<?xml version="1.0" encoding="utf-8"?>
<svg xmlns="http://www.w3.org/2000/svg" xmlns:xlink="http://www.w3.org/1999/xlink" width="512" height="512">
  <path fill="none" stroke="black" stroke-width="7" stroke-linejoin="round" transform="matrix(1.8 3.72529e-09 -3.72529e-09 1.8 210.879 409.868)" d="M49.2851 -47.434C67.5065 -47.0499 79.9788 -39.5293 79.365 4.75595C79.4043 33.7734 71.9599 43.7202 61.4461 43.3496C50.9324 42.9791 42.2928 42.9972 31.9593 42.977C21.4979 42.7759 16.2257 31.5844 16.1869 2.55391C16.5358 -43.9414 31.0638 -47.818 49.2851 -47.434Z"></path>
  <path fill="none" stroke="black" stroke-width="7" stroke-linejoin="round" transform="matrix(-2.15345 -3.29802e-07 -3.27096e-07 2.13577 356.395 286.562)" d="M18.5285 -58.5217C21.846 -53.9876 27.7973 -38.7699 27.7093 -34.8433C27.6211 -30.9167 31.9179 -21.9512 30.3572 2.36729C28.8082 31.2149 24.1089 54.2507 -1.14304 53.0341C-16.9912 52.169 -28.187 28.1037 -26.638 -0.743958C-24.696 -36.9106 1.32314 -64.9902 18.5285 -58.5217Z"></path>
  <path fill="none" stroke="black" stroke-width="7" stroke-linejoin="round" transform="matrix(1.79976 0.0293645 -0.0293645 1.79976 266.69 287.727)" d="M0.209626 -80.0966C37.3348 -80.0966 84.5 -60 84.5 0C84.5 41.1452 46.7396 76.2788 0.209626 76.2788C-62.1658 76.2788 -84 60.12 -84 0C-84 -71.2881 -50.5087 -80.0966 0.209626 -80.0966Z"></path>
  <path fill="none" stroke="black" stroke-width="7" stroke-linejoin="round" transform="matrix(1.53671 3.18039e-09 -3.72529e-09 1.8 308.979 398.168)" d="M-55.1284 -46.4734C-37.7861 -51.258 -9.63894 -42.3942 -4.07564 8.48872C-6.85519 25.6038 -26.8035 51.6355 -39.4449 47.1757C-52.0862 42.7159 -57.7567 40.7153 -69.0338 36.7368C-80.3109 32.7583 -68.6637 16.2397 -66.1727 6.87831C-72.586 -38.4424 -72.4708 -41.6889 -55.1284 -46.4734Z"></path>
  <path fill="#6C88D9" transform="matrix(-2.15345 -3.29802e-07 -3.27096e-07 2.13577 356.395 286.562)" d="M18.5285 -58.5217C21.846 -53.9876 27.7973 -38.7699 27.7093 -34.8433C27.6211 -30.9167 31.9179 -21.9512 30.3572 2.36729C28.8082 31.2149 24.1089 54.2507 -1.14304 53.0341C-16.9912 52.169 -28.187 28.1037 -26.638 -0.743958C-24.696 -36.9106 1.32314 -64.9902 18.5285 -58.5217Z"></path>
  <path fill="#5170C8" transform="matrix(1.53671 3.18039e-09 -3.72529e-09 1.8 308.979 398.168)" d="M-55.1284 -46.4734C-37.7861 -51.258 -9.63894 -42.3942 -4.07564 8.48872C-6.85519 25.6038 -26.8035 51.6355 -39.4449 47.1757C-52.0862 42.7159 -57.7567 40.7153 -69.0338 36.7368C-80.3109 32.7583 -68.6637 16.2397 -66.1727 6.87831C-72.586 -38.4424 -72.4708 -41.6889 -55.1284 -46.4734Z"></path>
  <path fill="#839BE0" transform="matrix(1.20328 2.49031e-09 -2.91698e-09 1.40944 308.979 398.168)" d="M-65.8279 -47.2599C-48.4855 -52.0444 -20.2758 -42.9662 -14.3693 12.1399C-19.1198 32.9361 -39.3239 49.8832 -51.9653 45.4233C-64.6066 40.9635 -64.4677 41.0672 -75.7447 37.0888C-87.0218 33.1102 -80.9283 23.572 -76.4664 10.5295C-83.2228 -39.0144 -83.1703 -42.4753 -65.8279 -47.2599Z"></path>
  <path fill="#6C88D9" transform="matrix(1.8 3.72529e-09 -3.72529e-09 1.8 210.879 409.868)" d="M49.2851 -47.434C67.5065 -47.0499 79.9788 -39.5293 79.365 4.75595C79.4043 33.7734 71.9599 43.7202 61.4461 43.3496C50.9324 42.9791 42.2928 42.9972 31.9593 42.977C21.4979 42.7759 16.2257 31.5844 16.1869 2.55391C16.5358 -43.9414 31.0638 -47.818 49.2851 -47.434Z"></path>
  <path fill="#91A8EB" transform="matrix(-1.67686 -2.56813e-07 -3.2026e-07 2.09114 352.405 280.849)" d="M20.3478 -52.1017C42.4836 -51.1407 33.9175 -26.6462 30.3562 1.83276C26.7949 30.3117 13.3421 53.1152 -2.09932 52.4448C-17.5406 51.7744 -28.1031 28.0006 -26.1669 -0.676208C-24.2308 -29.353 -1.78806 -53.0627 20.3478 -52.1017Z"></path>
  <path fill="none" stroke="black" stroke-width="7" stroke-miterlimit="4" transform="matrix(1.79976 0.0293645 -0.0293645 1.79976 225.238 127.598)" d="M0 -29.5C19.0538 -29.5 34.5 -16.1805 34.5 0.25C34.5 16.6805 19.0538 30 0 30C-19.0538 30 -34.5 16.6805 -34.5 0.25C-34.5 -16.1805 -19.0538 -29.5 0 -29.5Z"></path>
  <path fill="#6C88D9" transform="matrix(1.79976 0.0293645 -0.0293645 1.79976 266.69 287.727)" d="M0.209626 -80.0966C37.3348 -80.0966 84.5 -60 84.5 0C84.5 41.1452 46.7396 76.2788 0.209626 76.2788C-62.1658 76.2788 -84 60.12 -84 0C-84 -71.2881 -50.5087 -80.0966 0.209626 -80.0966Z"></path>
  <path fill="none" stroke="black" stroke-width="9" stroke-miterlimit="4" transform="translate(256 256)" d="M-57.071 -186.219C-42.2884 -185.978 -30.4733 -175.448 -30.6813 -162.701C-30.8893 -149.954 -43.0416 -139.816 -57.8242 -140.057C-72.6068 -140.298 -84.4218 -150.827 -84.2138 -163.574C-84.0059 -176.322 -71.8536 -186.46 -57.071 -186.219Z"></path>
  <path fill="none" stroke="black" stroke-width="9" stroke-miterlimit="4" transform="translate(256 256)" d="M-72.584 -171.306C-60.2844 -171.106 -50.4539 -162.345 -50.627 -151.739C-50.8 -141.133 -60.9111 -132.697 -73.2107 -132.898C-85.5103 -133.099 -95.3408 -141.859 -95.1677 -152.466C-94.9947 -163.072 -84.8836 -171.507 -72.584 -171.306Z"></path>
  <path fill="none" stroke="black" stroke-width="9" stroke-miterlimit="4" transform="translate(256 256)" d="M-92.5911 -195.64C-85.9101 -195.531 -80.5702 -190.773 -80.6642 -185.011C-80.7582 -179.25 -86.2505 -174.668 -92.9315 -174.777C-99.6125 -174.886 -104.952 -179.645 -104.858 -185.406C-104.764 -191.167 -99.2722 -195.749 -92.5911 -195.64Z"></path>
  <path fill="#6C88D9" transform="matrix(1.79976 0.0293645 -0.0293645 1.79976 225.238 127.598)" d="M0 -29.5C19.0538 -29.5 34.5 -16.1805 34.5 0.25C34.5 16.6805 19.0538 30 0 30C-19.0538 30 -34.5 16.6805 -34.5 0.25C-34.5 -16.1805 -19.0538 -29.5 0 -29.5Z"></path>
  <path fill="#6C88D9" transform="matrix(0.775834 0.0126583 -0.0126583 0.775834 198.556 92.6683)" d="M0 -29.5C19.0538 -29.5 34.5 -16.1805 34.5 0.25C34.5 16.6805 19.0538 30 0 30C-19.0538 30 -34.5 16.6805 -34.5 0.25C-34.5 -16.1805 -19.0538 -29.5 0 -29.5Z"></path>
  <path fill="#6C88D9" transform="matrix(0.645518 0.0105321 -0.0105321 0.645518 183.105 103.736)" d="M7.62939e-06 -29.5C19.0538 -29.5 34.5 -16.1805 34.5 0.25C34.5 16.6805 19.0538 30 7.62939e-06 30C-19.0538 30 -34.5 16.6805 -34.5 0.25C-34.5 -16.1805 -19.0538 -29.5 7.62939e-06 -29.5Z"></path>
  <path fill="#6C88D9" transform="matrix(0.35064 0.00572097 -0.00572097 0.35064 163.24 70.7035)" d="M3.05176e-05 -29.5C19.0539 -29.5 34.5 -16.1805 34.5 0.25C34.5 16.6805 19.0539 30 3.05176e-05 30C-19.0538 30 -34.5 16.6805 -34.5 0.25C-34.5 -16.1805 -19.0538 -29.5 3.05176e-05 -29.5Z"></path>
  <path fill="#91A8EB" transform="matrix(1.50913 0.0246226 -0.0246226 1.50913 265.325 287.727)" d="M0.24998 -81.5196C49.8787 -81.2985 84.5 -60 84.5 -3.8147e-06C84.5 41.1452 46.78 74.5 0.25 74.5C-62.1254 74.5 -84 60.12 -84 -3.8147e-06C-84 -71.2881 -62.1254 -81.5197 0.24998 -81.5196Z"></path>
  <clipPath id="cl_2bf">
    <path d="M269.419 143.579C336.236 144.669 420.531 182.223 418.769 290.209C417.561 364.26 348.57 426.383 264.827 425.017C152.566 423.186 113.744 393.462 115.51 285.261C117.603 156.959 178.138 142.09 269.419 143.579Z"></path>
  </clipPath>
  <g clip-path="url(#cl_2bf)">
    <path fill="#A6B8EF" transform="matrix(0.805953 0.0131497 -0.0151654 0.929491 320.984 252.606)" d="M0.249964 -81.5196C49.8787 -81.2985 84.5 -60 84.5 0C84.5 41.1452 67.1354 74.5 20.6054 74.5C-41.77 74.5 -84 60.12 -84 0C-84 -71.2881 -62.1254 -81.5197 0.249964 -81.5196Z"></path>
    <path fill="#C1CBE8" transform="matrix(0.197995 -0.202726 0.445703 0.435301 344.084 203.756)" d="M11.5671 -77.0972C58.0971 -77.0972 97.5959 -41.1452 97.5959 -2.05241e-05C97.5959 41.1452 73.4188 83.0524 26.8888 83.0524C-35.4866 83.0524 11.8086 60.12 11.8086 -1.92457e-05C11.8086 -41.1452 -34.9629 -77.0972 11.5671 -77.0972Z"></path>
    <path fill="#C1CBE8" transform="matrix(0.197995 -0.202726 0.184201 0.179903 388.526 268.112)" d="M48.93 -79.7643C80.6762 -79.053 77.4946 -42.8889 62.8507 4.00562C48.2069 50.9001 -0.03942 91.2963 -20.4536 67.777C-40.8678 44.2576 -16.8141 31.8032 -0.458991 -5.13884C15.8961 -42.0808 17.1838 -80.4756 48.93 -79.7643Z"></path>
  </g>
  <path fill="#91A8EB" transform="matrix(1.37947 2.85496e-09 -2.85496e-09 1.37947 210.879 346.868)" d="M64.0151 -2.24789C82.2365 -1.86385 95.854 -2.36858 95.2173 49.1211C94.5065 74.5992 86.7189 89.0277 76.2052 88.6572C65.6914 88.2867 57.0518 88.3048 46.7184 88.2846C36.3387 88.1909 29.1185 71.3475 29.8294 45.8694C30.2014 -7.83049 45.7938 -2.63195 64.0151 -2.24789Z"></path>
  <path fill="#91A8EB" transform="matrix(1.79976 0.0293645 -0.0293645 1.79976 225.238 127.598)" d="M0 -22.5C14.6355 -22.5 26.5 -12.3145 26.5 0.25C26.5 12.8145 14.6355 23 0 23C-14.6355 23 -26.5 12.8145 -26.5 0.25C-26.5 -12.3145 -14.6355 -22.5 0 -22.5Z"></path>
  <path fill="none" stroke="black" stroke-width="7" stroke-linecap="round" stroke-linejoin="round" transform="matrix(2.15345 4.45679e-09 -4.42021e-09 2.13577 150.503 296.226)" d="M28.8857 -33.8653C30.8464 -29.3673 33.7846 -22.5947 38.1664 -11.6137C51.1107 13.413 66.5181 26.4699 47.0991 42.7908C34.8436 52.959 1.59676 39.4414 -11.3903 14.3317C-21.3424 -9.09201 -16.9762 -34.9077 -7.55149 -49.4634"></path>
  <path fill="#6C88D9" transform="matrix(2.15345 4.45679e-09 -4.42021e-09 2.13577 150.503 296.226)" d="M9.49735 -61.1397C14.0774 -57.9114 24.5373 -45.4072 25.6976 -41.6579C26.8579 -37.9086 30.0128 -32.0469 38.1664 -11.6137C51.1107 13.413 66.5181 26.4699 47.0991 42.7908C34.8436 52.959 1.59676 39.4414 -11.3903 14.3317C-26.3934 -20.9805 -8.85585 -61.7288 9.49735 -61.1397Z"></path>
  <path fill="#91A8EB" transform="matrix(1.67686 3.47045e-09 -4.32784e-09 2.09114 154.493 290.513)" d="M10.7722 -54.7608C32.1314 -59.5193 32.6373 -35.5113 38.4731 -10.0818C49.0828 15.9914 71.7616 30.243 60.8948 39.0655C50.0281 47.8881 8.75124 35.9977 -8.75136 12.0571C-24.7107 -15.8604 -10.5871 -50.0023 10.7722 -54.7608Z"></path>
  <path fill="#312F2F" transform="matrix(0.527165 -0.13208 0.157487 0.628571 262.797 345.313)" d="M5.72205e-06 -128C70.6925 -128 128 -70.6925 128 0C128 70.6925 70.6925 128 -1.90735e-06 128C-70.6925 128 -128 70.6925 -128 0C-128 -70.6925 -70.6924 -128 5.72205e-06 -128Z"></path>
  <path fill="none" stroke="black" stroke-width="7" stroke-miterlimit="4" transform="translate(256 256)" d="M-1.41832 5.86356C35.8483 -3.4735 75.084 24.9792 86.2171 69.4145C97.3503 113.85 76.1649 157.441 38.8983 166.778C1.63173 176.115 -37.604 147.662 -48.7371 103.227C-59.8703 58.7917 -38.6849 15.2006 -1.41832 5.86356Z"></path>
  <path fill="none" stroke="black" stroke-width="7" stroke-linejoin="round" transform="translate(256 256)" d="M-1.41832 5.86356C-1.41832 5.86356 -10.9733 8.25754 -12.9 8.74027C-42.9219 17.1331 -75.7551 46.0505 -60.68 106.219C-45.6049 166.388 3.75979 175.582 26.9555 169.77C28.8822 169.287 38.8983 166.778 38.8983 166.778C38.3577 166.913 37.7711 167.036 37.1418 167.144"></path>
  <path fill="#DEDEDE" transform="matrix(0.527165 -0.13208 0.157487 0.628571 274.74 342.321)" d="M-4.76837e-07 -128C70.6925 -128 128 -70.6925 128 -1.52588e-05C128 70.6924 70.6924 128 -8.10623e-06 128C-70.6925 128 -128 70.6924 -128 -1.52588e-05C-128 -70.6925 -70.6925 -128 -4.76837e-07 -128Z"></path>
  <clipPath id="cl_2c2">
    <path d="M254.582 261.864C291.848 252.527 331.084 280.979 342.217 325.414C353.35 369.85 332.165 413.441 294.898 422.778C257.632 432.115 218.396 403.662 207.263 359.227C196.13 314.792 217.315 271.201 254.582 261.864Z"></path>
  </clipPath>
  <g clip-path="url(#cl_2c2)">
    <path fill="#F2F1F1" transform="matrix(0.549618 0.0823961 -0.0249966 0.636991 276.75 371.599)" d="M-170.753 -28.5017L169.944 -28.5017L169.944 28.5017L-170.753 28.5017L-170.753 -28.5017Z"></path>
    <path fill="#F2F1F1" transform="matrix(0.549618 0.0823961 -0.0249966 0.636991 274.766 396.091)" d="M-170.753 -5.22015L169.944 -5.22015L169.944 5.22018L-170.753 5.22018L-170.753 -5.22015Z"></path>
  </g>
  <path fill="#8B8B8B" transform="matrix(0.527165 -0.13208 0.157487 0.628571 278.009 340.834)" d="M0.249997 -87.5C51.4744 -87.5 93 -48.4368 93 -0.25C93 47.9368 51.4744 87 0.249992 87C-50.9744 87 -92.5 47.9368 -92.5 -0.25C-92.5 -48.4368 -50.9744 -87.5 0.249997 -87.5Z"></path>
  <path fill="#B0AFAF" transform="matrix(0.527165 -0.13208 0.157487 0.628571 274.74 342.321)" d="M-1.72853e-06 -86C47.4965 -86 86 -47.4965 86 -1.52588e-05C86 47.4965 47.4965 86 -6.85453e-06 86C-47.4965 86 -86 47.4965 -86 -1.52588e-05C-86 -47.4965 -47.4965 -86 -1.72853e-06 -86Z"></path>
  <path fill="#8B8B8B" transform="matrix(0.527165 -0.13208 0.157487 0.628571 274.374 339.74)" d="M-52.3281 27.625L-52.3281 -27.668L-46.756 -30.4056L-46.7825 24.7561L-42.4192 24.6238L-47.1315 27.6684L-52.3281 27.625ZM-50.25 21.3164C-54.7526 21.3164 -58.6058 20.4196 -61.8096 18.626C-65.0133 16.8324 -67.4626 14.3337 -69.1572 11.1299C-70.8519 7.92611 -71.6992 4.19662 -71.6992 -0.0585938C-71.6992 -4.3138 -70.8519 -8.0433 -69.1572 -11.2471C-67.4626 -14.4508 -65.0133 -16.9495 -61.8096 -18.7432C-58.6058 -20.5368 -54.7526 -21.4336 -50.25 -21.4336C-47.3802 -21.4336 -44.7826 -21.0625 -42.457 -20.3203C-40.1315 -19.5781 -38.109 -18.5205 -36.3896 -17.1475C-34.6702 -15.7744 -27.78 -10.4693 -25.0591 -8.68546C-26.0599 -7.96244 -28.21 -6.9054 -30.3965 -5.66211C-30.3965 -5.66211 -44.0898 -3.62109 -44.0898 -3.62109C-44.0898 -3.62109 -44.5166 -5.6683 -44.8506 -6.49707C-45.1846 -7.32584 -45.599 -8.02474 -46.0938 -8.59375C-46.5885 -9.16276 -47.1637 -9.58952 -47.8193 -9.87402C-48.4749 -10.1585 -49.2109 -10.3008 -50.0273 -10.3008C-51.3385 -10.3008 -52.4766 -9.92969 -53.4414 -9.1875C-54.4062 -8.44531 -55.1546 -7.31966 -55.6865 -5.81055C-56.2184 -4.30143 -56.4844 -2.40885 -56.4844 -0.132812C-56.4844 2.11849 -56.2184 4.01107 -55.6865 5.54492C-55.1546 7.07878 -54.4062 8.23535 -53.4414 9.01465C-52.4766 9.79395 -51.3385 10.1836 -50.0273 10.1836C-49.2109 10.1836 -48.4749 10.0352 -47.8193 9.73828C-47.1637 9.44141 -46.5824 9.00228 -46.0752 8.4209C-45.568 7.83952 -45.8968 6.99338 -44.8135 6.25C-43.7302 5.50662 -38.8902 1.52308 -38.7417 0.409798C-38.7417 0.409798 -30.3965 5.28516 -30.3965 5.28516C-30.3965 5.28516 -31.2747 9.97949 -32.2891 11.9463C-33.3034 13.9131 -34.6641 15.5954 -36.3711 16.9932C-38.0781 18.3909 -40.1006 19.4609 -42.4385 20.2031C-44.7764 20.9453 -47.3802 21.3164 -50.25 21.3164ZM-24.5332 27.625L-24.5332 16.8633L-3.90039 -0.207031C-3.90039 -0.207031 -1.36458 -2.41504 -0.375 -3.41699C0.614586 -4.41895 1.37533 -5.45182 1.90723 -6.51562C2.43913 -7.57943 2.70508 -8.76693 2.70508 -10.0781C2.70508 -11.4883 2.40202 -12.6943 1.7959 -13.6963C1.18978 -14.6982 0.361004 -15.4714 -0.690428 -16.0156C-1.74186 -16.5599 -2.96029 -16.832 -4.3457 -16.832C-5.73112 -16.832 -6.94954 -16.5537 -8.00097 -15.9971C-9.05241 -15.4404 -6.2922 -13.7058 -5.868 -12.6284C-7.10778 -11.907 -9.37628 -10.5827 -11.3223 -9.63281C-11.3223 -9.63281 -25.5723 -9.63281 -25.5723 -9.63281C-25.5723 -9.63281 -24.7002 -16.8568 -22.9561 -19.6523C-21.2119 -22.4479 -18.7441 -24.6064 -15.5527 -26.1279C-12.3613 -27.6494 -8.62565 -28.4102 -4.3457 -28.4102C0.0826836 -28.4102 3.91732 -27.7051 7.15821 -26.2949C10.3991 -24.8848 12.904 -22.8994 14.6729 -20.3389C16.4417 -17.7783 17.3262 -14.7786 17.3262 -11.3398C17.3262 -9.21224 16.887 -7.10319 16.0088 -5.0127C15.1305 -2.9222 13.5534 -0.602865 11.2773 1.94531C9.0013 4.49349 5.74805 7.51172 1.51758 11C1.51758 11 -3.67773 15.3047 -3.67773 15.3047L-3.67773 15.6758L17.9199 15.6758L23.3601 24.6527L17.9199 27.625L-24.5332 27.625ZM45.3066 28.3672C41.0514 28.3672 37.2786 27.6188 33.9883 26.1221C30.6979 24.6253 28.1126 22.5534 26.2324 19.9062C24.3522 17.2591 23.3874 14.2161 23.3379 10.7773C23.3379 10.7773 28.8025 7.82545 28.8025 7.82545L37.959 10.7773C37.959 10.7773 38.293 13.14 38.9609 14.0801C39.6289 15.0202 40.5195 15.7438 41.6328 16.251C42.7461 16.7581 43.9707 17.0117 45.3066 17.0117C46.8405 17.0117 48.1826 16.6839 49.333 16.0283C50.4834 15.3727 51.3864 14.4512 52.042 13.2637C52.6976 12.0762 53.0254 10.6784 53.0254 9.0703C53.0254 7.43748 52.6976 6.02114 52.042 4.82127C51.3864 3.6214 50.4834 2.69367 49.333 2.03807C48.1826 1.38247 46.8405 1.05467 45.3066 1.05467C43.6986 1.05467 43.4423 2.31532 43.4423 2.31532C43.4423 2.31532 38.6022 4.02342 37.959 5.35936C37.959 5.35936 24.7481 2.7617 24.7481 2.7617L26.9004 -27.668L32.366 -30.6324L64.084 -27.668L69.5015 -18.6129L64.084 -15.6445L39.2207 -15.6445L38.1816 -3.47267L38.4785 -3.47267C38.4785 -3.47267 40.8412 -6.54038 42.9688 -7.62892C45.0964 -8.71746 47.5579 -9.26173 50.3535 -9.26173C52.8027 -9.26173 55.0726 -8.82879 57.1631 -7.96291C59.2536 -7.09702 61.0719 -5.86623 62.6182 -4.27052C64.1644 -2.67482 65.3643 -0.782242 66.2178 1.40721C67.0713 3.59666 67.498 6.00259 67.498 8.62498C67.498 12.4844 66.5827 15.8984 64.752 18.8672C62.9212 21.8359 60.3421 24.1614 57.0147 25.8437C53.6872 27.526 49.7845 28.3672 45.3066 28.3672Z"></path>
  <path fill="#DEDEDE" transform="matrix(0.527165 -0.13208 0.157487 0.628571 276.38 336.566)" d="M-51.8282 28.625L-51.8282 -26.668L-47.375 -26.668L-47.375 28.625L-51.8282 28.625ZM-49.75 22.3164C-54.2526 22.3164 -58.1058 21.4196 -61.3096 19.626C-64.5134 17.8324 -66.9626 15.3337 -68.6573 12.1299C-70.3519 8.92611 -71.1993 5.19662 -71.1993 0.941406C-71.1993 -3.3138 -70.3519 -7.0433 -68.6573 -10.2471C-66.9626 -13.4508 -64.5134 -15.9495 -61.3096 -17.7432C-58.1058 -19.5368 -54.2526 -20.4336 -49.75 -20.4336C-46.8802 -20.4336 -44.2826 -20.0625 -41.9571 -19.3203C-39.6315 -18.5781 -37.6091 -17.5205 -35.8897 -16.1475C-34.1703 -14.7744 -32.8034 -13.1169 -31.7891 -11.1748C-30.7748 -9.23275 -30.1439 -7.06185 -29.8965 -4.66211C-29.8965 -4.66211 -43.5899 -2.62109 -43.5899 -2.62109C-43.5899 -2.62109 -44.0166 -4.6683 -44.3506 -5.49707C-44.6846 -6.32584 -45.099 -7.02474 -45.5938 -7.59375C-46.0886 -8.16276 -46.6638 -8.58952 -47.3194 -8.87402C-47.975 -9.15853 -48.711 -9.30078 -49.5274 -9.30078C-50.8386 -9.30078 -51.9766 -8.92969 -52.9414 -8.1875C-53.9063 -7.44531 -54.6547 -6.31966 -55.1866 -4.81055C-55.7185 -3.30143 -55.9844 -1.40885 -55.9844 0.867188C-55.9844 3.11849 -55.7185 5.01107 -55.1866 6.54492C-54.6547 8.07878 -53.9063 9.23535 -52.9414 10.0146C-51.9766 10.7939 -50.8386 11.1836 -49.5274 11.1836C-48.711 11.1836 -47.975 11.0352 -47.3194 10.7383C-46.6638 10.4414 -46.0824 10.0023 -45.5752 9.4209C-45.0681 8.83952 -44.6475 8.11588 -44.3135 7.25C-43.9795 6.38412 -43.7383 5.39453 -43.5899 4.28125C-43.5899 4.28125 -29.8965 6.28516 -29.8965 6.28516C-29.8965 6.28516 -30.7748 10.9795 -31.7891 12.9463C-32.8034 14.9131 -34.1641 16.5954 -35.8711 17.9932C-37.5782 19.3909 -39.6006 20.4609 -41.9385 21.2031C-44.2764 21.9453 -46.8802 22.3164 -49.75 22.3164ZM-24.0332 28.625L-24.0332 17.8633L-3.4004 0.792953C-3.4004 0.792953 -0.864595 -1.41505 0.124989 -2.41701C1.11457 -3.41896 1.87532 -4.45184 2.40722 -5.51564C2.93912 -6.57944 3.20507 -7.76694 3.20507 -9.07814C3.20507 -10.4883 2.90201 -11.6944 2.29589 -12.6963C1.68977 -13.6983 0.860992 -14.4714 -0.190439 -15.0156C-1.24187 -15.5599 -2.4603 -15.832 -3.84571 -15.832C-5.23113 -15.832 -6.44955 -15.5537 -7.50099 -14.9971C-8.55242 -14.4404 -9.36883 -13.6302 -9.9502 -12.5664C-10.5316 -11.5026 -10.8223 -10.1914 -10.8223 -8.63283C-10.8223 -8.63283 -25.0723 -8.63283 -25.0723 -8.63283C-25.0723 -8.63283 -24.2002 -15.8568 -22.4561 -18.6524C-20.7119 -21.4479 -18.2442 -23.6065 -15.0527 -25.1279C-11.8613 -26.6494 -8.12566 -27.4102 -3.84571 -27.4102C0.582672 -27.4102 4.41731 -26.7051 7.65819 -25.2949C10.8991 -23.8848 13.404 -21.8994 15.1728 -19.3389C16.9417 -16.7783 17.8262 -13.7787 17.8262 -10.3399C17.8262 -8.21226 17.387 -6.1032 16.5088 -4.01271C15.6305 -1.92222 14.0534 0.39712 11.7773 2.9453C9.50129 5.49347 6.24804 8.5117 2.01757 12C2.01757 12 -3.17775 16.3047 -3.17775 16.3047L-3.17775 16.6758L18.4199 16.6758L18.4199 28.625L-24.0332 28.625ZM45.8066 29.3672C41.5514 29.3672 37.7786 28.6188 34.4883 27.1221C31.1979 25.6253 28.6126 23.5534 26.7324 20.9062C24.8522 18.2591 23.8874 15.2161 23.8379 11.7773C23.8379 11.7773 38.459 11.7773 38.459 11.7773C38.459 11.7773 38.793 14.14 39.4609 15.0801C40.1289 16.0202 41.0195 16.7438 42.1328 17.251C43.2461 17.7581 44.4707 18.0117 45.8066 18.0117C47.3405 18.0117 48.6826 17.6839 49.833 17.0283C50.9834 16.3727 51.8864 15.4512 52.542 14.2637C53.1976 13.0762 53.5254 11.6784 53.5254 10.0703C53.5254 8.4375 53.1976 7.02116 52.542 5.82129C51.8864 4.62142 50.9834 3.69369 49.833 3.03809C48.6826 2.38249 47.3405 2.05469 45.8066 2.05469C44.1986 2.05469 42.7327 2.43815 41.4092 3.20508C40.0856 3.97201 39.1022 5.02344 38.459 6.35938C38.459 6.35938 25.248 3.76172 25.248 3.76172L27.4004 -26.668L64.584 -26.668L64.584 -14.6445L39.7207 -14.6445L38.6816 -2.47266L38.9785 -2.47266C38.9785 -2.47266 41.3411 -5.54037 43.4687 -6.62891C45.5964 -7.71745 48.0579 -8.26172 50.8535 -8.26172C53.3027 -8.26172 55.5726 -7.82877 57.6631 -6.96289C59.7536 -6.097 61.5719 -4.86621 63.1182 -3.27051C64.6644 -1.6748 65.8643 0.217773 66.7178 2.40723C67.5713 4.59668 67.998 7.0026 67.998 9.625C67.998 13.4844 67.0827 16.8984 65.2519 19.8672C63.4212 22.8359 60.8421 25.1615 57.5146 26.8438C54.1872 28.526 50.2845 29.3672 45.8066 29.3672Z"></path>
  <clipPath id="cl_2c4">
    <path d="M253.566 361.404L244.858 326.648L247.205 326.06L255.913 360.816L253.566 361.404ZM253.668 357.164C251.294 357.759 249.121 357.704 247.15 357C245.179 356.296 243.494 355.048 242.096 353.258C240.698 351.468 239.664 349.236 238.994 346.561C238.324 343.887 238.183 341.431 238.572 339.193C238.961 336.955 239.858 335.061 241.265 333.511C242.671 331.96 244.561 330.887 246.935 330.293C248.448 329.914 249.876 329.804 251.219 329.963C252.561 330.123 253.794 330.52 254.917 331.156C256.039 331.792 257.021 332.653 257.862 333.74C258.702 334.827 259.377 336.108 259.885 337.584C259.885 337.584 252.988 340.675 252.988 340.675C252.988 340.675 252.44 339.445 252.134 338.968C251.827 338.491 251.499 338.107 251.148 337.815C250.798 337.522 250.427 337.33 250.037 337.238C249.646 337.145 249.236 337.153 248.806 337.261C248.114 337.434 247.573 337.818 247.181 338.412C246.789 339.006 246.572 339.812 246.529 340.831C246.487 341.85 246.645 343.075 247.003 344.505C247.358 345.92 247.796 347.075 248.318 347.969C248.84 348.863 249.416 349.491 250.048 349.853C250.679 350.216 251.34 350.31 252.032 350.137C252.462 350.029 252.827 349.839 253.126 349.565C253.424 349.292 253.662 348.939 253.838 348.507C254.013 348.075 254.121 347.564 254.161 346.976C254.2 346.387 254.172 345.733 254.075 345.014C254.075 345.014 261.609 344.465 261.609 344.465C261.609 344.465 261.885 347.532 261.66 348.902C261.435 350.272 260.983 351.509 260.303 352.614C259.623 353.718 258.726 354.657 257.61 355.433C256.495 356.208 255.18 356.785 253.668 357.164ZM268.218 357.733L266.523 350.968L274.712 337.513C274.712 337.513 275.701 335.79 276.065 335.03C276.429 334.269 276.667 333.52 276.78 332.781C276.893 332.042 276.846 331.26 276.639 330.436C276.417 329.55 276.068 328.832 275.59 328.282C275.113 327.732 274.554 327.356 273.914 327.152C273.274 326.949 272.589 326.939 271.859 327.122C271.129 327.305 270.53 327.641 270.063 328.13C269.597 328.618 269.294 329.236 269.155 329.981C269.016 330.727 269.069 331.589 269.315 332.569C269.315 332.569 261.803 334.451 261.803 334.451C261.803 334.451 261.125 329.795 261.604 327.807C262.083 325.82 263.044 324.137 264.487 322.759C265.93 321.381 267.779 320.41 270.035 319.844C272.37 319.259 274.502 319.196 276.433 319.655C278.364 320.113 279.997 321.03 281.332 322.406C282.668 323.782 283.607 325.55 284.148 327.712C284.484 329.049 284.584 330.433 284.45 331.863C284.317 333.293 283.851 334.959 283.052 336.861C282.253 338.764 281.014 341.091 279.333 343.842C279.333 343.842 277.272 347.234 277.272 347.234L277.331 347.467L288.716 344.615L290.598 352.126L268.218 357.733ZM305.152 348.975C302.909 349.537 300.802 349.565 298.832 349.059C296.862 348.552 295.172 347.592 293.764 346.176C292.356 344.76 291.368 342.975 290.801 340.82C290.801 340.82 298.509 338.889 298.509 338.889C298.509 338.889 299.057 340.33 299.557 340.833C300.057 341.335 300.641 341.673 301.307 341.844C301.974 342.016 302.66 342.014 303.364 341.837C304.172 341.635 304.828 341.251 305.331 340.687C305.835 340.123 306.166 339.425 306.324 338.592C306.483 337.759 306.435 336.837 306.182 335.826C305.925 334.8 305.529 333.953 304.995 333.285C304.46 332.617 303.838 332.154 303.128 331.893C302.419 331.633 301.659 331.604 300.851 331.807C300.003 332.019 299.291 332.454 298.714 333.111C298.137 333.768 297.784 334.559 297.655 335.483C297.655 335.483 290.282 335.595 290.282 335.595L286.624 316.184L306.226 311.273L308.12 318.83L295.013 322.114L296.382 329.902L296.538 329.863C296.538 329.863 297.301 327.623 298.251 326.658C299.201 325.692 300.413 325.025 301.887 324.656C303.178 324.332 304.443 324.305 305.681 324.573C306.919 324.841 308.072 325.375 309.138 326.173C310.205 326.972 311.135 328.003 311.93 329.267C312.725 330.53 313.329 331.986 313.742 333.635C314.349 336.06 314.404 338.327 313.907 340.435C313.409 342.543 312.416 344.345 310.927 345.842C309.438 347.339 307.513 348.383 305.152 348.975Z"></path>
  </clipPath>
  <g clip-path="url(#cl_2c4)">
    <path fill="#F2F1F1" transform="matrix(0.549618 0.0823961 -0.0249966 0.636991 276.75 371.599)" d="M-170.753 -28.5017L169.944 -28.5017L169.944 28.5017L-170.753 28.5017L-170.753 -28.5017Z"></path>
  </g>
  <path fill="#8E8B8B" transform="matrix(0.628571 -0.157487 0.157487 0.628571 254.582 261.864)" d="M2.38419e-07 0C2.38419e-07 0 -15.2012 -4.76837e-06 -18.2664 -3.8147e-06C-66.3551 1.30369 -126.35 32.2772 -126.35 128C-126.35 223.723 -55.9022 256 -19 256C-15.9348 256 0 256 3.8147e-06 256C-25.5438 256 -107.35 223.723 -107.35 128C-107.35 32.2772 -25.5438 4.76837e-06 2.38419e-07 0Z"></path>
  <clipPath id="cl_2c6">
    <path d="M254.582 261.864C254.582 261.864 245.027 264.258 243.1 264.74C213.078 273.133 180.245 302.051 195.32 362.219C210.395 422.388 259.76 431.582 282.955 425.77C284.882 425.287 294.898 422.778 294.898 422.778C278.842 426.801 222.338 419.396 207.263 359.227C192.188 299.058 238.526 265.886 254.582 261.864Z"></path>
  </clipPath>
  <g clip-path="url(#cl_2c6)">
    <path fill="#ACABAB" transform="matrix(0.527165 -0.13208 0.157487 0.628571 239.497 388.827)" d="M-105.5 -40.8039L105 -40.8039L105 40.8038L-105.5 40.8038L-105.5 -40.8039Z"></path>
    <path fill="#D6D6D6" transform="matrix(0.527165 -0.13208 0.157487 0.628571 234.324 384.846)" d="M-105.5 -7.02946L105 -7.02946L105 7.02946L-105.5 7.02946L-105.5 -7.02946Z"></path>
    <path fill="#D6D6D6" transform="matrix(0.528664 -0.132455 0.15704 0.626789 249.431 352.002)" d="M-137.32 -30.4789L136.67 -30.4789L136.67 30.4789L-137.32 30.4789L-137.32 -30.4789Z"></path>
  </g>
  <path fill="#91A8EB" transform="matrix(0.606874 0.00990163 -0.00990163 0.606874 198.556 94.8754)" d="M-7.62939e-06 -22.5C14.6355 -22.5 26.5 -12.3145 26.5 0.25C26.5 12.8145 14.6355 23 -7.62939e-06 23C-14.6356 23 -26.5 12.8145 -26.5 0.25C-26.5 -12.3145 -14.6356 -22.5 -7.62939e-06 -22.5Z"></path>
  <path fill="#91A8EB" transform="matrix(0.504938 0.00823846 -0.00823846 0.504938 183.105 105.573)" d="M-4.23752e-08 -22.4999C14.6355 -22.4999 26.5 -12.3144 26.5 0.250061C26.5 12.8145 14.6355 23.0001 4.23752e-08 23.0001C-14.6355 23.0001 -26.5 12.8145 -26.5 0.250061C-26.5 -12.3144 -14.6355 -22.4999 -4.23752e-08 -22.4999Z"></path>
  <path fill="#91A8EB" transform="matrix(0.274279 0.00447507 -0.00447507 0.274279 164.236 72.7862)" d="M0 -22.4261C14.2962 -22.4261 25.8855 -12.274 25.8855 0.249268C25.8855 12.7726 14.2962 22.9247 0 22.9247C-14.2962 22.9247 -25.8855 12.7726 -25.8855 0.249268C-25.8855 -12.274 -14.2962 -22.4261 0 -22.4261Z"></path>
  <path fill="#C1CBE8" transform="matrix(0.073816 -0.11483 0.26388 0.16963 160.52 70.1225)" d="M-6.10352e-05 -11.4999C14.6355 -11.4999 28.006 -7.98322 28.006 -1.63195C28.006 4.71933 15.5058 0.400246 0.870295 0.400247C-13.7652 0.400246 -26.7661 4.37695 -26.7661 -1.97432C-26.7661 -8.3256 -14.6356 -11.4999 -6.10352e-05 -11.4999Z"></path>
  <path fill="#C1CBE8" transform="matrix(-0.166841 -0.570472 0.880441 -0.257495 183.056 131.884)" d="M1.52588e-05 -11.5C14.6356 -11.5 28.0061 -7.98328 28.0061 -1.63201C28.0061 4.71927 15.5059 0.400186 0.870372 0.400186C-13.7652 0.400184 -26.766 4.37689 -26.766 -1.97439C-26.766 -8.32566 -14.6355 -11.5 1.52588e-05 -11.5Z"></path>
  <path fill="#1B2B56" transform="matrix(1.78669 -0.21848 0.065544 0.536007 235.132 107.65)" d="M-9.62988e-07 -2.5C1.38071 -2.5 2.5 -1.38071 2.5 0C2.5 1.38071 1.38071 2.5 -9.44361e-07 2.5C-1.38071 2.5 -2.5 1.38071 -2.5 0C-2.5 -1.38071 -1.38071 -2.5 -9.62988e-07 -2.5Z"></path>
  <path fill="none" stroke="#1B2B56" stroke-width="0.5" stroke-linecap="round" stroke-linejoin="round" transform="matrix(1.78289 -0.247598 0.247598 1.78289 243.775 106.538)" d="M1.98548 0.277974L6.02909 0.184236"></path>
  <path fill="#1B2B56" transform="matrix(1.78669 -0.21848 0.065544 0.536007 263.719 104.154)" d="M-9.62988e-07 -2.5C1.38071 -2.5 2.5 -1.38071 2.5 0C2.5 1.38071 1.38071 2.5 -9.44361e-07 2.5C-1.38071 2.5 -2.5 1.38071 -2.5 0C-2.5 -1.38071 -1.38071 -2.5 -9.62988e-07 -2.5Z"></path>
  <path fill="#354B89" transform="matrix(1.46507 -0.885005 0.929571 0.72522 255.496 97.2221)" d="M0 -2.5C1.38071 -2.5 2.5 -1.38071 2.5 1.49012e-07C2.5 1.38071 1.38071 2.5 0 2.5C-1.38071 2.5 -2.5 1.38071 -2.5 -1.49012e-07C-2.5 -1.38071 -1.38071 -2.5 0 -2.5Z"></path>
  <path fill="#354B89" transform="matrix(2.16254 0.296937 -0.629837 1.0733 239.524 98.1616)" d="M-7.62939e-06 -2.98532C1.68305 -2.98532 3.04743 -1.64874 3.04743 1.5168e-05C3.04743 1.64877 1.68305 2.98535 -7.62939e-06 2.98535C-1.68306 2.98535 -3.04745 1.64877 -3.04745 1.53496e-05C-3.04745 -1.64874 -1.68306 -2.98532 -7.62939e-06 -2.98532Z"></path>
  <path fill="none" stroke="white" stroke-width="5" stroke-linecap="round" stroke-linejoin="round" transform="matrix(1.5 0 0 1.5 158.539 362.24)" d=""></path>
</svg>