<?xml version="1.0" encoding="utf-8"?>
<svg xmlns="http://www.w3.org/2000/svg" xmlns:xlink="http://www.w3.org/1999/xlink" width="512" height="512">
  <path fill="none" stroke="black" stroke-width="7" stroke-linejoin="round" transform="matrix(1.8 3.72529e-09 -3.72529e-09 1.8 210.879 409.868)" d="M0.428263 -46.2537C18.6525 -46.0467 31.1973 -38.6476 31.0138 5.64147C31.335 34.6572 23.9875 44.6758 13.4706 44.4074C2.95379 44.1391 -5.68522 44.2411 -16.0184 44.3213C-26.4813 44.2218 -31.8619 33.0821 -32.1828 4.05334C-32.2856 -42.4432 -17.796 -46.4607 0.428263 -46.2537Z"></path>
  <path fill="none" stroke="black" stroke-width="7" stroke-linejoin="round" transform="matrix(-2.15345 -3.29802e-07 -3.27096e-07 2.13577 356.093 274.181)" d="M20.0122 -55.9862C22.394 -50.8892 25.3035 -34.7964 24.4614 -30.9617C23.6193 -27.127 26.109 -17.4912 19.8979 6.05968C12.8265 34.0559 3.78308 55.7345 -20.7547 49.6005C-36.1351 45.6511 -42.4866 19.8527 -35.4153 -8.1436C-26.5498 -43.2428 4.37868 -65.698 20.0122 -55.9862Z"></path>
  <path fill="none" stroke="black" stroke-width="7" stroke-linejoin="round" transform="matrix(1.79976 0.0293645 -0.0293645 1.79976 266.388 275.346)" d="M0.209625 -80.0966C37.3348 -80.0966 84.5 -60 84.5 9.53674e-07C84.5 41.1452 46.7396 76.2788 0.209625 76.2788C-62.1658 76.2788 -84 60.12 -84 9.53674e-07C-84 -71.2881 -50.5087 -80.0966 0.209625 -80.0966Z"></path>
  <path fill="none" stroke="black" stroke-width="7" stroke-linejoin="round" transform="matrix(1.53671 3.18039e-09 -3.72529e-09 1.8 308.979 398.168)" d="M-0.425034 -47.8462C17.7984 -48.0727 33.2873 -41.3556 33.9419 8.21586C34.5616 22.0612 28.69 45.8405 15.0118 45.8264C1.3336 45.8124 -4.80204 45.8062 -17.0041 45.7936C-29.2061 45.7811 -31.4314 22.8813 -32.0511 9.036C-33.0538 -42.7221 -18.6485 -47.6197 -0.425034 -47.8462Z"></path>
  <path fill="#6C88D9" transform="matrix(-2.15345 -3.29802e-07 -3.27096e-07 2.13577 356.093 274.181)" d="M20.0122 -55.9862C22.394 -50.8892 25.3035 -34.7964 24.4614 -30.9617C23.6193 -27.127 26.109 -17.4912 19.8979 6.05968C12.8265 34.0559 3.78308 55.7345 -20.7547 49.6005C-36.1351 45.6511 -42.4866 19.8527 -35.4153 -8.1436C-26.5498 -43.2428 4.37868 -65.698 20.0122 -55.9862Z"></path>
  <path fill="#5170C8" transform="matrix(1.53671 3.18039e-09 -3.72529e-09 1.8 308.979 398.168)" d="M-0.425034 -47.8462C17.7984 -48.0727 33.2873 -41.3556 33.9419 8.21586C34.5616 22.0612 28.69 45.8405 15.0118 45.8264C1.3336 45.8124 -4.80204 45.8062 -17.0041 45.7936C-29.2061 45.7811 -31.4314 22.8813 -32.0511 9.036C-33.0538 -42.7221 -18.6485 -47.6197 -0.425034 -47.8462Z"></path>
  <path fill="#839BE0" transform="matrix(1.20328 2.49031e-09 -2.91698e-09 1.40944 308.979 398.168)" d="M-0.326172 -48.3987C17.8973 -48.6252 32.8359 -41.8176 33.6942 12.2443C33.493 30.1784 24.7669 45.3482 11.0887 45.3342C-2.58953 45.3201 -2.41474 45.3709 -14.6167 45.3584C-26.8188 45.3459 -32.5001 30.9985 -32.2988 13.0644C-33.5053 -43.1841 -18.5497 -48.1722 -0.326172 -48.3987Z"></path>
  <path fill="#6C88D9" transform="matrix(1.8 3.72529e-09 -3.72529e-09 1.8 210.879 409.868)" d="M0.428263 -46.2537C18.6525 -46.0467 31.1973 -38.6476 31.0138 5.64147C31.335 34.6572 23.9875 44.6758 13.4706 44.4074C2.95379 44.1391 -5.68522 44.2411 -16.0184 44.3213C-26.4813 44.2218 -31.8619 33.0821 -32.1828 4.05334C-32.2856 -42.4432 -17.796 -46.4607 0.428263 -46.2537Z"></path>
  <path fill="#91A8EB" transform="matrix(-1.67686 -2.56813e-07 -3.2026e-07 2.09114 352.103 268.468)" d="M21.0787 -49.7721C42.5613 -45.385 28.2307 -22.6889 17.8456 4.69458C7.46057 32.078 -11.2548 52.3548 -26.2404 49.2945C-41.2261 46.2341 -45.8347 21.2686 -36.996 -6.56186C-28.1573 -34.3923 -0.403835 -54.1592 21.0787 -49.7721Z"></path>
  <path fill="none" stroke="black" stroke-width="7" stroke-miterlimit="4" transform="matrix(1.79976 0.0293645 -0.0293645 1.79976 224.937 112.789)" d="M0 -29.5C19.0538 -29.5 34.5 -16.1805 34.5 0.25C34.5 16.6805 19.0538 30 0 30C-19.0538 30 -34.5 16.6805 -34.5 0.25C-34.5 -16.1805 -19.0538 -29.5 0 -29.5Z"></path>
  <path fill="#6C88D9" transform="matrix(1.79976 0.0293645 -0.0293645 1.79976 266.388 275.346)" d="M0.209625 -80.0966C37.3348 -80.0966 84.5 -60 84.5 9.53674e-07C84.5 41.1452 46.7396 76.2788 0.209625 76.2788C-62.1658 76.2788 -84 60.12 -84 9.53674e-07C-84 -71.2881 -50.5087 -80.0966 0.209625 -80.0966Z"></path>
  <path fill="none" stroke="black" stroke-width="9" stroke-miterlimit="4" transform="translate(256 256)" d="M-57.3729 -201.028C-42.5903 -200.786 -30.7752 -190.257 -30.9832 -177.51C-31.1912 -164.763 -43.3435 -154.624 -58.1261 -154.866C-72.9087 -155.107 -84.7237 -165.636 -84.5157 -178.383C-84.3078 -191.131 -72.1555 -201.269 -57.3729 -201.028Z"></path>
  <path fill="none" stroke="black" stroke-width="9" stroke-miterlimit="4" transform="translate(256 256)" d="M-72.8859 -186.115C-60.5863 -185.914 -50.7558 -177.154 -50.9289 -166.548C-51.1019 -155.941 -61.213 -147.506 -73.5126 -147.707C-85.8121 -147.908 -95.6426 -156.668 -95.4696 -167.274C-95.2965 -177.881 -85.1855 -186.316 -72.8859 -186.115Z"></path>
  <path fill="none" stroke="black" stroke-width="9" stroke-miterlimit="4" transform="translate(256 256)" d="M-92.893 -210.449C-86.212 -210.34 -80.8721 -205.581 -80.9661 -199.82C-81.0601 -194.059 -86.5524 -189.477 -93.2334 -189.586C-99.9144 -189.695 -105.254 -194.454 -105.16 -200.215C-105.066 -205.976 -99.574 -210.558 -92.893 -210.449Z"></path>
  <path fill="#6C88D9" transform="matrix(1.79976 0.0293645 -0.0293645 1.79976 224.937 112.789)" d="M0 -29.5C19.0538 -29.5 34.5 -16.1805 34.5 0.25C34.5 16.6805 19.0538 30 0 30C-19.0538 30 -34.5 16.6805 -34.5 0.25C-34.5 -16.1805 -19.0538 -29.5 0 -29.5Z"></path>
  <path fill="#6C88D9" transform="matrix(0.775834 0.0126583 -0.0126583 0.775834 198.254 77.8595)" d="M7.62939e-06 -29.5C19.0538 -29.5 34.5 -16.1805 34.5 0.249985C34.5 16.6805 19.0538 30 7.62939e-06 30C-19.0538 30 -34.5 16.6805 -34.5 0.249985C-34.5 -16.1805 -19.0538 -29.5 7.62939e-06 -29.5Z"></path>
  <path fill="#6C88D9" transform="matrix(0.645518 0.0105321 -0.0105321 0.645518 182.803 88.9276)" d="M0 -29.5C19.0538 -29.5 34.5 -16.1805 34.5 0.25C34.5 16.6805 19.0538 30 0 30C-19.0538 30 -34.5 16.6805 -34.5 0.25C-34.5 -16.1805 -19.0538 -29.5 0 -29.5Z"></path>
  <path fill="#6C88D9" transform="matrix(0.35064 0.00572097 -0.00572097 0.35064 162.938 55.8947)" d="M3.05176e-05 -29.4999C19.0539 -29.4999 34.5 -16.1804 34.5 0.250061C34.5 16.6805 19.0539 30.0001 3.05176e-05 30.0001C-19.0538 30.0001 -34.5 16.6805 -34.5 0.250061C-34.5 -16.1804 -19.0538 -29.4999 3.05176e-05 -29.4999Z"></path>
  <path fill="#91A8EB" transform="matrix(1.50913 0.0246226 -0.0246226 1.50913 265.023 275.346)" d="M0.249979 -81.5196C49.8787 -81.2985 84.5 -60 84.5 -9.53674e-07C84.5 41.1452 46.78 74.5 0.25 74.5C-62.1254 74.5 -84 60.12 -84 -9.53674e-07C-84 -71.2881 -62.1254 -81.5196 0.249979 -81.5196Z"></path>
  <clipPath id="cl_17">
    <path d="M269.117 131.198C335.934 132.288 420.229 169.842 418.468 277.828C417.259 351.879 348.268 414.002 264.525 412.636C152.264 410.805 113.443 381.081 115.208 272.88C117.301 144.578 177.836 129.708 269.117 131.198Z"></path>
  </clipPath>
  <g clip-path="url(#cl_17)">
    <path fill="#A6B8EF" transform="matrix(0.805953 0.0131497 -0.0151654 0.929491 320.682 240.225)" d="M0.249972 -81.5196C49.8787 -81.2985 84.5 -60 84.5 0C84.5 41.1452 67.1354 74.5 20.6054 74.5C-41.77 74.5 -84 60.12 -84 0C-84 -71.2881 -62.1254 -81.5197 0.249972 -81.5196Z"></path>
    <path fill="#C1CBE8" transform="matrix(0.197995 -0.202726 0.445703 0.435301 343.782 191.375)" d="M11.5671 -77.0972C58.0971 -77.0972 97.5959 -41.1452 97.5959 -3.19681e-05C97.5959 41.1452 73.4188 83.0524 26.8888 83.0524C-35.4866 83.0524 11.8086 60.12 11.8086 -3.06898e-05C11.8086 -41.1452 -34.9629 -77.0972 11.5671 -77.0972Z"></path>
    <path fill="#C1CBE8" transform="matrix(0.197995 -0.202726 0.184201 0.179903 388.224 255.731)" d="M48.9301 -79.7643C80.6763 -79.053 77.4946 -42.8889 62.8508 4.00562C48.2069 50.9001 -0.039359 91.2963 -20.4536 67.777C-40.8678 44.2576 -16.8141 31.8032 -0.45893 -5.13884C15.8962 -42.0808 17.1838 -80.4756 48.9301 -79.7643Z"></path>
  </g>
  <path fill="#91A8EB" transform="matrix(1.37947 2.85496e-09 -2.85496e-09 1.37947 210.879 346.868)" d="M0.400063 -0.705681C18.6243 -0.498672 32.2363 -1.13567 32.0999 50.3579C31.6367 75.8416 23.9894 90.3451 13.4726 90.0767C2.95577 89.8084 -5.68328 89.9104 -16.0164 89.9905C-26.3965 89.9977 -33.7799 73.2253 -33.3166 47.7415C-33.4663 -5.95951 -17.8242 -0.912682 0.400063 -0.705681Z"></path>
  <path fill="#91A8EB" transform="matrix(1.79976 0.0293645 -0.0293645 1.79976 224.937 112.789)" d="M0 -22.5C14.6355 -22.5 26.5 -12.3145 26.5 0.25C26.5 12.8145 14.6355 23 0 23C-14.6355 23 -26.5 12.8145 -26.5 0.25C-26.5 -12.3145 -14.6355 -22.5 0 -22.5Z"></path>
  <path fill="none" stroke="black" stroke-width="7" stroke-linecap="round" stroke-linejoin="round" transform="matrix(2.15345 4.45679e-09 -4.42021e-09 2.13577 150.201 283.845)" d="M25.1585 -27.7811C25.574 -23.0401 26.2907 -15.947 27.4641 -4.57988C33.5397 22.6993 46.9404 37.9173 24.4537 49.5655C10.2907 56.788 -20.4433 34.9146 -26.5428 7.52708C-29.8819 -17.9679 -18.1381 -41.897 -4.78911 -53.295"></path>
  <path fill="#6C88D9" transform="matrix(2.15345 4.45679e-09 -4.42021e-09 2.13577 150.201 283.845)" d="M14.8818 -59.5794C18.3123 -55.1316 24.6448 -40.0711 24.6555 -36.1435C24.6662 -32.2159 25.2577 -25.9527 27.4641 -4.57988C33.5397 22.6993 46.9404 37.9173 24.4537 49.5655C10.2907 56.788 -20.4433 34.9146 -26.5428 7.52708C-31.5639 -30.8096 -2.48085 -65.6055 14.8818 -59.5794Z"></path>
  <path fill="#91A8EB" transform="matrix(1.67686 3.47045e-09 -4.32784e-09 2.09114 154.191 278.132)" d="M15.8212 -53.1618C37.9803 -52.6516 28.5273 -29.7416 25.3342 -4.51278C27.2015 22.5604 46.7626 39.9464 33.7544 46.6517C20.7462 53.357 -17.6749 33.4491 -26.8038 7.00761C-32.7564 -23.4815 -6.33789 -53.6721 15.8212 -53.1618Z"></path>
  <path fill="#312F2F" transform="matrix(0.543287 -0.0136993 0.0163345 0.647794 222.711 350.798)" d="M-2.38419e-07 -128C70.6925 -128 128 -70.6925 128 -1.50204e-05C128 70.6924 70.6925 128 2.38419e-07 128C-70.6925 128 -128 70.6924 -128 -1.54972e-05C-128 -70.6925 -70.6925 -128 -2.38419e-07 -128Z"></path>
  <path fill="none" stroke="black" stroke-width="7" stroke-miterlimit="4" transform="translate(256 256)" d="M-23.0721 11.5704C15.3342 10.602 47.4047 46.9404 48.5595 92.7346C49.7142 138.529 19.5159 176.437 -18.8904 177.406C-57.2967 178.374 -89.3672 142.036 -90.5219 96.2416C-91.6767 50.4474 -61.4783 12.5389 -23.0721 11.5704Z"></path>
  <path fill="none" stroke="black" stroke-width="7" stroke-linejoin="round" transform="translate(256 256)" d="M-23.0721 11.5704C-23.0721 11.5704 -32.9193 11.8187 -34.9049 11.8688C-66.0352 13.4988 -104.394 34.5432 -102.83 96.5519C-101.266 158.561 -55.1035 178.319 -31.1985 177.716C-29.2129 177.666 -18.8904 177.406 -18.8904 177.406C-19.4476 177.42 -20.0468 177.411 -20.6845 177.379"></path>
  <path fill="#DEDEDE" transform="matrix(0.543287 -0.0136993 0.0163345 0.647794 235.019 350.488)" d="M3.57628e-06 -128C70.6925 -128 128 -70.6925 128 2.38419e-07C128 70.6925 70.6925 128 4.05312e-06 128C-70.6924 128 -128 70.6925 -128 -2.38419e-07C-128 -70.6925 -70.6925 -128 3.57628e-06 -128Z"></path>
  <clipPath id="cl_1a">
    <path d="M232.928 267.57C271.334 266.602 303.405 302.94 304.559 348.735C305.714 394.529 275.516 432.437 237.11 433.406C198.703 434.374 166.633 398.036 165.478 352.242C164.323 306.447 194.522 268.539 232.928 267.57Z"></path>
  </clipPath>
  <g clip-path="url(#cl_1a)">
    <path fill="#F2F1F1" transform="matrix(0.518333 0.2005 -0.163579 0.616137 230.583 379.498)" d="M-170.753 -28.5017L169.944 -28.5017L169.944 28.5017L-170.753 28.5017L-170.753 -28.5017Z"></path>
    <path fill="#F2F1F1" transform="matrix(0.518333 0.2005 -0.163579 0.616137 223.295 402.964)" d="M-170.753 -5.22016L169.944 -5.22016L169.944 5.22016L-170.753 5.22016L-170.753 -5.22016Z"></path>
  </g>
  <path fill="#8B8B8B" transform="matrix(0.543287 -0.0136993 0.0163345 0.647794 238.534 349.751)" d="M0.249996 -87.5C51.4744 -87.5 93 -48.4368 93 -0.25C93 47.9368 51.4744 87 0.249996 87C-50.9744 87 -92.5 47.9368 -92.5 -0.25C-92.5 -48.4368 -50.9744 -87.5 0.249996 -87.5Z"></path>
  <path fill="#B0AFAF" transform="matrix(0.543287 -0.0136993 0.0163345 0.647794 235.019 350.488)" d="M3.65451e-06 -86C47.4965 -86 86 -47.4965 86 1.60187e-07C86 47.4965 47.4965 86 3.97488e-06 86C-47.4965 86 -86 47.4965 -86 -1.60187e-07C-86 -47.4965 -47.4965 -86 3.65451e-06 -86Z"></path>
  <path fill="#8B8B8B" transform="matrix(0.543287 -0.0136993 0.0163345 0.647794 235.225 347.89)" d="M-52.3281 27.625L-52.3281 -27.668L-46.756 -30.4056L-46.7825 24.7561L-42.4192 24.6238L-47.1315 27.6684L-52.3281 27.625ZM-50.25 21.3164C-54.7526 21.3164 -58.6058 20.4196 -61.8096 18.626C-65.0133 16.8324 -67.4626 14.3337 -69.1572 11.1299C-70.8519 7.92611 -71.6992 4.19662 -71.6992 -0.0585938C-71.6992 -4.3138 -70.8519 -8.0433 -69.1572 -11.2471C-67.4626 -14.4508 -65.0133 -16.9495 -61.8096 -18.7432C-58.6058 -20.5368 -54.7526 -21.4336 -50.25 -21.4336C-47.3802 -21.4336 -44.7826 -21.0625 -42.457 -20.3203C-40.1315 -19.5781 -38.109 -18.5205 -36.3896 -17.1475C-34.6702 -15.7744 -27.78 -10.4693 -25.0591 -8.68546C-26.0599 -7.96244 -28.21 -6.9054 -30.3965 -5.66211C-30.3965 -5.66211 -44.0898 -3.62109 -44.0898 -3.62109C-44.0898 -3.62109 -44.5166 -5.6683 -44.8506 -6.49707C-45.1846 -7.32584 -45.599 -8.02474 -46.0938 -8.59375C-46.5885 -9.16276 -47.1637 -9.58952 -47.8193 -9.87402C-48.4749 -10.1585 -49.2109 -10.3008 -50.0273 -10.3008C-51.3385 -10.3008 -52.4766 -9.92969 -53.4414 -9.1875C-54.4062 -8.44531 -55.1546 -7.31966 -55.6865 -5.81055C-56.2184 -4.30143 -56.4844 -2.40885 -56.4844 -0.132812C-56.4844 2.11849 -56.2184 4.01107 -55.6865 5.54492C-55.1546 7.07878 -54.4062 8.23535 -53.4414 9.01465C-52.4766 9.79395 -51.3385 10.1836 -50.0273 10.1836C-49.2109 10.1836 -48.4749 10.0352 -47.8193 9.73828C-47.1637 9.44141 -46.5824 9.00228 -46.0752 8.4209C-45.568 7.83952 -45.8968 6.99338 -44.8135 6.25C-43.7302 5.50662 -38.8902 1.52308 -38.7417 0.409798C-38.7417 0.409798 -30.3965 5.28516 -30.3965 5.28516C-30.3965 5.28516 -31.2747 9.97949 -32.2891 11.9463C-33.3034 13.9131 -34.6641 15.5954 -36.3711 16.9932C-38.0781 18.3909 -40.1006 19.4609 -42.4385 20.2031C-44.7764 20.9453 -47.3802 21.3164 -50.25 21.3164ZM-24.5332 27.625L-24.5332 16.8633L-3.90039 -0.207031C-3.90039 -0.207031 -1.36458 -2.41504 -0.374996 -3.41699C0.614588 -4.41895 1.37533 -5.45182 1.90723 -6.51562C2.43913 -7.57943 2.70508 -8.76693 2.70508 -10.0781C2.70508 -11.4883 2.40202 -12.6943 1.7959 -13.6963C1.18978 -14.6982 0.361006 -15.4714 -0.690426 -16.0156C-1.74186 -16.5599 -2.96028 -16.832 -4.3457 -16.832C-5.73112 -16.832 -6.94954 -16.5537 -8.00097 -15.9971C-9.0524 -15.4404 -6.2922 -13.7058 -5.868 -12.6284C-7.10778 -11.907 -9.37627 -10.5827 -11.3223 -9.63281C-11.3223 -9.63281 -25.5723 -9.63281 -25.5723 -9.63281C-25.5723 -9.63281 -24.7002 -16.8568 -22.9561 -19.6523C-21.2119 -22.4479 -18.7441 -24.6064 -15.5527 -26.1279C-12.3613 -27.6494 -8.62565 -28.4102 -4.3457 -28.4102C0.0826855 -28.4102 3.91732 -27.7051 7.15821 -26.2949C10.3991 -24.8848 12.904 -22.8994 14.6729 -20.3389C16.4417 -17.7783 17.3262 -14.7786 17.3262 -11.3398C17.3262 -9.21224 16.887 -7.10319 16.0088 -5.0127C15.1305 -2.9222 13.5534 -0.602865 11.2773 1.94531C9.0013 4.49349 5.74805 7.51172 1.51758 11C1.51758 11 -3.67773 15.3047 -3.67773 15.3047L-3.67773 15.6758L17.9199 15.6758L23.3601 24.6527L17.9199 27.625L-24.5332 27.625ZM45.3066 28.3672C41.0514 28.3672 37.2786 27.6188 33.9883 26.1221C30.6979 24.6253 28.1126 22.5534 26.2324 19.9063C24.3522 17.2591 23.3874 14.2162 23.3379 10.7774C23.3379 10.7774 28.8025 7.82548 28.8025 7.82548L37.959 10.7774C37.959 10.7774 38.293 13.14 38.9609 14.0801C39.6289 15.0202 40.5195 15.7438 41.6328 16.251C42.7461 16.7582 43.9707 17.0117 45.3066 17.0117C46.8405 17.0117 48.1826 16.6839 49.333 16.0283C50.4834 15.3727 51.3864 14.4512 52.042 13.2637C52.6976 12.0762 53.0254 10.6784 53.0254 9.07033C53.0254 7.43752 52.6976 6.02117 52.042 4.8213C51.3864 3.62144 50.4834 2.6937 49.333 2.0381C48.1826 1.3825 46.8405 1.0547 45.3066 1.0547C43.6986 1.0547 43.4423 2.31536 43.4423 2.31536C43.4423 2.31536 38.6022 4.02345 37.959 5.35939C37.959 5.35939 24.7481 2.76173 24.7481 2.76173L26.9004 -27.668L32.366 -30.6324L64.084 -27.668L69.5014 -18.6128L64.084 -15.6445L39.2207 -15.6445L38.1816 -3.47264L38.4785 -3.47264C38.4785 -3.47264 40.8411 -6.54035 42.9688 -7.62889C45.0964 -8.71743 47.5579 -9.2617 50.3535 -9.2617C52.8027 -9.2617 55.0726 -8.82876 57.1631 -7.96288C59.2536 -7.09699 61.0719 -5.8662 62.6182 -4.27049C64.1644 -2.67479 65.3643 -0.782211 66.2178 1.40724C67.0713 3.59669 67.498 6.00262 67.498 8.62502C67.498 12.4844 66.5827 15.8985 64.752 18.8672C62.9212 21.836 60.3421 24.1615 57.0147 25.8438C53.6872 27.5261 49.7845 28.3672 45.3066 28.3672Z"></path>
  <path fill="#DEDEDE" transform="matrix(0.543287 -0.0136993 0.0163345 0.647794 237.876 345.23)" d="M-51.8281 28.625L-51.8281 -26.668L-47.375 -26.668L-47.375 28.625L-51.8281 28.625ZM-49.75 22.3164C-54.2526 22.3164 -58.1058 21.4196 -61.3096 19.626C-64.5134 17.8324 -66.9626 15.3337 -68.6572 12.1299C-70.3519 8.92611 -71.1992 5.19662 -71.1992 0.941406C-71.1992 -3.3138 -70.3519 -7.0433 -68.6572 -10.2471C-66.9626 -13.4508 -64.5134 -15.9495 -61.3096 -17.7432C-58.1058 -19.5368 -54.2526 -20.4336 -49.75 -20.4336C-46.8802 -20.4336 -44.2826 -20.0625 -41.9571 -19.3203C-39.6315 -18.5781 -37.6091 -17.5205 -35.8897 -16.1475C-34.1703 -14.7744 -32.8034 -13.1169 -31.7891 -11.1748C-30.7748 -9.23275 -30.1439 -7.06185 -29.8965 -4.66211C-29.8965 -4.66211 -43.5899 -2.62109 -43.5899 -2.62109C-43.5899 -2.62109 -44.0166 -4.6683 -44.3506 -5.49707C-44.6846 -6.32584 -45.099 -7.02474 -45.5938 -7.59375C-46.0886 -8.16276 -46.6638 -8.58952 -47.3194 -8.87402C-47.975 -9.15853 -48.711 -9.30078 -49.5274 -9.30078C-50.8386 -9.30078 -51.9766 -8.92969 -52.9414 -8.1875C-53.9063 -7.44531 -54.6546 -6.31966 -55.1865 -4.81055C-55.7184 -3.30143 -55.9844 -1.40885 -55.9844 0.867188C-55.9844 3.11849 -55.7184 5.01107 -55.1865 6.54492C-54.6546 8.07878 -53.9063 9.23535 -52.9414 10.0146C-51.9766 10.7939 -50.8386 11.1836 -49.5274 11.1836C-48.711 11.1836 -47.975 11.0352 -47.3194 10.7383C-46.6638 10.4414 -46.0824 10.0023 -45.5752 9.4209C-45.0681 8.83952 -44.6475 8.11588 -44.3135 7.25C-43.9795 6.38412 -43.7383 5.39453 -43.5899 4.28125C-43.5899 4.28125 -29.8965 6.28516 -29.8965 6.28516C-29.8965 6.28516 -30.7748 10.9795 -31.7891 12.9463C-32.8034 14.9131 -34.1641 16.5954 -35.8711 17.9932C-37.5781 19.3909 -39.6006 20.4609 -41.9385 21.2031C-44.2764 21.9453 -46.8802 22.3164 -49.75 22.3164ZM-24.0332 28.625L-24.0332 17.8633L-3.4004 0.792969C-3.4004 0.792969 -0.864592 -1.41504 0.124992 -2.41699C1.11458 -3.41895 1.87532 -4.45182 2.40722 -5.51562C2.93912 -6.57943 3.20507 -7.76693 3.20507 -9.07812C3.20507 -10.4883 2.90201 -11.6943 2.29589 -12.6963C1.68977 -13.6982 0.860994 -14.4714 -0.190437 -15.0156C-1.24187 -15.5599 -2.46029 -15.832 -3.84571 -15.832C-5.23113 -15.832 -6.44955 -15.5537 -7.50098 -14.9971C-8.55242 -14.4404 -9.36882 -13.6302 -9.9502 -12.5664C-10.5316 -11.5026 -10.8223 -10.1914 -10.8223 -8.63281C-10.8223 -8.63281 -25.0723 -8.63281 -25.0723 -8.63281C-25.0723 -8.63281 -24.2002 -15.8568 -22.4561 -18.6523C-20.7119 -21.4479 -18.2441 -23.6064 -15.0527 -25.1279C-11.8613 -26.6494 -8.12566 -27.4102 -3.84571 -27.4102C0.582674 -27.4102 4.41731 -26.7051 7.6582 -25.2949C10.8991 -23.8848 13.404 -21.8994 15.1728 -19.3389C16.9417 -16.7783 17.8262 -13.7786 17.8262 -10.3398C17.8262 -8.21224 17.387 -6.10319 16.5088 -4.0127C15.6305 -1.9222 14.0534 0.397135 11.7773 2.94531C9.50129 5.49349 6.24804 8.51172 2.01757 12C2.01757 12 -3.17774 16.3047 -3.17774 16.3047L-3.17774 16.6758L18.4199 16.6758L18.4199 28.625L-24.0332 28.625ZM45.8066 29.3672C41.5514 29.3672 37.7786 28.6188 34.4883 27.1221C31.1979 25.6253 28.6126 23.5534 26.7324 20.9062C24.8522 18.2591 23.8874 15.2161 23.8379 11.7773C23.8379 11.7773 38.459 11.7773 38.459 11.7773C38.459 11.7773 38.793 14.14 39.4609 15.0801C40.1289 16.0202 41.0195 16.7438 42.1328 17.251C43.2461 17.7581 44.4707 18.0117 45.8066 18.0117C47.3405 18.0117 48.6826 17.6839 49.833 17.0283C50.9834 16.3727 51.8864 15.4512 52.542 14.2637C53.1976 13.0762 53.5254 11.6784 53.5254 10.0703C53.5254 8.4375 53.1976 7.02116 52.542 5.82129C51.8864 4.62142 50.9834 3.69369 49.833 3.03809C48.6826 2.38249 47.3405 2.05469 45.8066 2.05469C44.1986 2.05469 42.7327 2.43815 41.4092 3.20508C40.0856 3.97201 39.1022 5.02344 38.459 6.35938C38.459 6.35938 25.248 3.76172 25.248 3.76172L27.4004 -26.668L64.584 -26.668L64.584 -14.6445L39.7207 -14.6445L38.6816 -2.47266L38.9785 -2.47266C38.9785 -2.47266 41.3411 -5.54037 43.4688 -6.62891C45.5964 -7.71745 48.0579 -8.26172 50.8535 -8.26172C53.3027 -8.26172 55.5726 -7.82877 57.6631 -6.96289C59.7536 -6.097 61.5719 -4.86621 63.1182 -3.27051C64.6644 -1.6748 65.8643 0.217773 66.7178 2.40723C67.5713 4.59668 67.998 7.0026 67.998 9.625C67.998 13.4844 67.0827 16.8984 65.252 19.8672C63.4212 22.8359 60.8421 25.1615 57.5146 26.8438C54.1872 28.526 50.2845 29.3672 45.8066 29.3672Z"></path>
  <clipPath id="cl_1c">
    <path d="M210.186 364.483L209.283 328.665L211.702 328.604L212.606 364.422L210.186 364.483ZM211.212 360.368C208.766 360.43 206.658 359.902 204.888 358.784C203.118 357.666 201.747 356.081 200.774 354.029C199.801 351.976 199.279 349.572 199.21 346.816C199.14 344.059 199.54 341.632 200.408 339.533C201.277 337.434 202.566 335.782 204.278 334.576C205.989 333.371 208.068 332.737 210.514 332.675C212.073 332.636 213.49 332.841 214.766 333.29C216.041 333.738 217.157 334.396 218.114 335.262C219.071 336.128 219.84 337.183 220.423 338.427C221.006 339.671 221.384 341.069 221.558 342.62C221.558 342.62 214.152 344.13 214.152 344.13C214.152 344.13 213.886 342.809 213.691 342.277C213.496 341.745 213.26 341.298 212.982 340.936C212.704 340.574 212.384 340.305 212.023 340.13C211.662 339.955 211.26 339.873 210.817 339.884C210.104 339.902 209.492 340.158 208.98 340.652C208.468 341.146 208.08 341.885 207.815 342.87C207.551 343.855 207.438 345.085 207.475 346.559C207.512 348.017 207.687 349.24 208.001 350.226C208.315 351.212 208.74 351.951 209.277 352.443C209.814 352.935 210.439 353.172 211.151 353.154C211.595 353.142 211.992 353.036 212.344 352.835C212.695 352.634 213.004 352.341 213.27 351.958C213.536 351.574 213.752 351.099 213.92 350.534C214.087 349.968 214.202 349.324 214.264 348.601C214.264 348.601 221.736 349.711 221.736 349.711C221.736 349.711 221.336 352.764 220.817 354.052C220.298 355.34 219.586 356.449 218.682 357.378C217.777 358.307 216.696 359.027 215.438 359.54C214.18 360.053 212.771 360.329 211.212 360.368ZM225.287 364.103L225.111 357.131L236.042 345.791C236.042 345.791 237.383 344.326 237.905 343.663C238.426 343 238.822 342.321 239.094 341.624C239.365 340.928 239.491 340.155 239.469 339.306C239.446 338.392 239.262 337.615 238.916 336.974C238.57 336.334 238.108 335.844 237.527 335.506C236.947 335.168 236.281 335.008 235.528 335.027C234.776 335.046 234.118 335.243 233.556 335.618C232.994 335.993 232.564 336.529 232.265 337.226C231.967 337.923 231.83 338.777 231.856 339.786C231.856 339.786 224.114 339.982 224.114 339.982C224.114 339.982 224.47 335.29 225.371 333.455C226.273 331.62 227.579 330.188 229.288 329.159C230.997 328.13 233.014 327.586 235.339 327.527C237.745 327.466 239.84 327.87 241.624 328.74C243.407 329.609 244.801 330.86 245.803 332.495C246.806 334.129 247.336 336.06 247.392 338.288C247.427 339.666 247.223 341.039 246.78 342.405C246.337 343.771 245.518 345.295 244.323 346.977C243.128 348.659 241.41 350.659 239.168 352.976C239.168 352.976 236.416 355.836 236.416 355.836L236.422 356.076L248.156 355.781L248.351 363.521L225.287 364.103ZM263.242 363.627C260.93 363.685 258.868 363.252 257.056 362.327C255.244 361.403 253.806 360.096 252.741 358.407C251.676 356.718 251.102 354.76 251.019 352.533C251.019 352.533 258.963 352.333 258.963 352.333C258.963 352.333 259.183 353.859 259.561 354.459C259.939 355.058 260.435 355.515 261.048 355.828C261.661 356.142 262.331 356.289 263.057 356.271C263.89 356.25 264.614 356.019 265.228 355.579C265.842 355.138 266.318 354.529 266.655 353.751C266.991 352.972 267.147 352.062 267.12 351.021C267.094 349.963 266.892 349.05 266.517 348.282C266.141 347.513 265.635 346.925 264.999 346.516C264.364 346.107 263.629 345.913 262.796 345.934C261.922 345.956 261.132 346.224 260.426 346.739C259.719 347.254 259.202 347.949 258.874 348.823C258.874 348.823 251.655 347.321 251.655 347.321L252.327 327.58L272.528 327.07L272.725 334.859L259.217 335.2L258.851 343.099L259.012 343.095C259.012 343.095 260.246 341.075 261.384 340.341C262.522 339.606 263.85 339.22 265.369 339.182C266.7 339.148 267.94 339.398 269.09 339.93C270.24 340.462 271.248 341.235 272.114 342.247C272.98 343.26 273.663 344.469 274.162 345.876C274.662 347.282 274.933 348.835 274.976 350.534C275.039 353.034 274.597 355.258 273.651 357.206C272.705 359.155 271.342 360.696 269.562 361.832C267.781 362.967 265.675 363.565 263.242 363.627Z"></path>
  </clipPath>
  <g clip-path="url(#cl_1c)">
    <path fill="#F2F1F1" transform="matrix(0.518333 0.2005 -0.163579 0.616137 230.583 379.498)" d="M-170.753 -28.5017L169.944 -28.5017L169.944 28.5017L-170.753 28.5017L-170.753 -28.5017Z"></path>
    <path fill="#F2F1F1" transform="matrix(0.518333 0.2005 -0.163579 0.616137 223.295 402.964)" d="M-170.753 -5.22016L169.944 -5.22016L169.944 5.22016L-170.753 5.22016L-170.753 -5.22016Z"></path>
  </g>
  <path fill="#8E8B8B" transform="matrix(0.647794 -0.0163345 0.0163345 0.647794 232.928 267.57)" d="M-7.62939e-06 0C-7.62939e-06 0 -15.2012 3.8147e-06 -18.2664 9.53674e-06C-66.3551 1.30371 -126.35 32.2772 -126.35 128C-126.35 223.723 -55.9022 256 -19 256C-15.9348 256 -9.53674e-06 256 -3.8147e-06 256C-25.5439 256 -107.35 223.723 -107.35 128C-107.35 32.2772 -25.5439 -3.8147e-06 -7.62939e-06 0Z"></path>
  <clipPath id="cl_1e">
    <path d="M232.928 267.57C232.928 267.57 223.081 267.819 221.095 267.869C189.965 269.499 151.606 290.543 153.17 352.552C154.734 414.561 200.896 434.319 224.801 433.716C226.787 433.666 237.11 433.406 237.11 433.406C220.562 433.823 167.042 414.25 165.478 352.242C163.914 290.233 216.381 267.988 232.928 267.57Z"></path>
  </clipPath>
  <g clip-path="url(#cl_1e)">
    <path fill="#ACABAB" transform="matrix(0.543287 -0.0136993 0.0163345 0.647794 190.466 388.17)" d="M-105.5 -40.8039L105 -40.8039L105 40.8038L-105.5 40.8038L-105.5 -40.8039Z"></path>
    <path fill="#D6D6D6" transform="matrix(0.543287 -0.0136993 0.0163345 0.647794 186.288 383.155)" d="M-105.5 -7.02946L105 -7.02946L105 7.02946L-105.5 7.02946L-105.5 -7.02946Z"></path>
    <path fill="#D6D6D6" transform="matrix(0.544832 -0.0137383 0.0162882 0.645957 208.206 354.405)" d="M-137.32 -30.4789L136.67 -30.4789L136.67 30.4789L-137.32 30.4789L-137.32 -30.4789Z"></path>
  </g>
  <path fill="#91A8EB" transform="matrix(0.606874 0.00990163 -0.00990163 0.606874 198.254 80.0666)" d="M0 -22.5C14.6355 -22.5 26.5 -12.3145 26.5 0.25C26.5 12.8145 14.6355 23 0 23C-14.6355 23 -26.5 12.8145 -26.5 0.25C-26.5 -12.3145 -14.6355 -22.5 0 -22.5Z"></path>
  <path fill="#91A8EB" transform="matrix(0.504938 0.00823846 -0.00823846 0.504938 182.803 90.764)" d="M-1.53012e-05 -22.5C14.6355 -22.5 26.5 -12.3145 26.5 0.25C26.5 12.8145 14.6355 23 -1.52164e-05 23C-14.6356 23 -26.5 12.8145 -26.5 0.25C-26.5 -12.3145 -14.6356 -22.5 -1.53012e-05 -22.5Z"></path>
  <path fill="#91A8EB" transform="matrix(0.274279 0.00447507 -0.00447507 0.274279 163.934 57.9774)" d="M0 -22.4261C14.2962 -22.4261 25.8855 -12.274 25.8855 0.249268C25.8855 12.7726 14.2962 22.9247 0 22.9247C-14.2962 22.9247 -25.8855 12.7726 -25.8855 0.249268C-25.8855 -12.274 -14.2962 -22.4261 0 -22.4261Z"></path>
  <path fill="#C1CBE8" transform="matrix(0.073816 -0.11483 0.26388 0.16963 160.167 55.3653)" d="M-6.10352e-05 -11.5C14.6355 -11.5 28.006 -7.98328 28.006 -1.63201C28.006 4.71926 15.5058 0.400185 0.870295 0.400186C-13.7652 0.400185 -26.7661 4.37689 -26.7661 -1.97439C-26.7661 -8.32566 -14.6356 -11.5 -6.10352e-05 -11.5Z"></path>
  <path fill="#C1CBE8" transform="matrix(-0.166841 -0.570472 0.880441 -0.257495 182.703 117.127)" d="M0 -11.5C14.6355 -11.5 28.0061 -7.98329 28.0061 -1.63202C28.0061 4.71926 15.5059 0.400178 0.870357 0.400178C-13.7652 0.400177 -26.766 4.37688 -26.766 -1.97439C-26.766 -8.32567 -14.6355 -11.5 0 -11.5Z"></path>
  <path fill="#1B2B56" transform="matrix(1.78669 -0.21848 0.065544 0.536007 237.348 90.2646)" d="M1.69501e-07 -2.50003C1.38071 -2.50003 2.5 -1.38074 2.5 -3.05176e-05C2.5 1.38068 1.38071 2.49997 1.88127e-07 2.49997C-1.38071 2.49997 -2.5 1.38068 -2.5 -3.05176e-05C-2.5 -1.38074 -1.38071 -2.50003 1.69501e-07 -2.50003Z"></path>
  <path fill="none" stroke="#1B2B56" stroke-width="0.5" stroke-linecap="round" stroke-linejoin="round" transform="matrix(1.78289 -0.247598 0.247598 1.78289 245.991 89.153)" d="M1.98548 0.277981L6.02909 0.184244"></path>
  <path fill="#1B2B56" transform="matrix(1.78669 -0.21848 0.065544 0.536007 265.935 86.7689)" d="M-9.31323e-09 -2.5C1.38071 -2.5 2.5 -1.38071 2.5 0C2.5 1.38071 1.38071 2.5 9.31323e-09 2.5C-1.38071 2.5 -2.5 1.38071 -2.5 0C-2.5 -1.38071 -1.38071 -2.5 -9.31323e-09 -2.5Z"></path>
  <path fill="#354B89" transform="matrix(1.46507 -0.885005 0.929571 0.72522 257.712 79.8368)" d="M7.62939e-06 -2.49998C1.38072 -2.49998 2.50001 -1.3807 2.50001 1.54078e-05C2.50001 1.38073 1.38072 2.50002 7.62939e-06 2.50002C-1.3807 2.50002 -2.49999 1.38073 -2.49999 1.51098e-05C-2.49999 -1.3807 -1.3807 -2.49998 7.62939e-06 -2.49998Z"></path>
  <path fill="#354B89" transform="matrix(2.16254 0.296937 -0.629837 1.0733 241.74 80.7763)" d="M0 -2.98532C1.68306 -2.98532 3.04744 -1.64874 3.04744 1.5168e-05C3.04744 1.64877 1.68306 2.98535 0 2.98535C-1.68306 2.98535 -3.04744 1.64877 -3.04744 1.53496e-05C-3.04744 -1.64874 -1.68306 -2.98532 0 -2.98532Z"></path>
  <path fill="none" stroke="white" stroke-width="5" stroke-linecap="round" stroke-linejoin="round" transform="matrix(1.5 0 0 1.5 158.539 362.24)" d=""></path>
</svg>