<?xml version="1.0" encoding="utf-8"?>
<svg xmlns="http://www.w3.org/2000/svg" xmlns:xlink="http://www.w3.org/1999/xlink" width="512" height="512">
  <path fill="none" stroke="black" stroke-width="7" stroke-linejoin="round" transform="matrix(1.8 3.72529e-09 -3.72529e-09 1.8 210.879 409.868)" d="M33.5819 -47.0547C51.8043 -46.7269 64.2999 -39.2449 63.823 5.04204C63.952 34.0593 56.5382 44.0289 46.0234 43.6908C35.5086 43.3528 26.8691 43.3976 16.5356 43.4093C6.07361 43.2406 0.766922 32.0655 0.638359 3.03531C0.843489 -43.4609 15.3594 -47.3824 33.5819 -47.0547Z"></path>
  <path fill="none" stroke="black" stroke-width="7" stroke-linejoin="round" transform="matrix(-2.15345 -3.29802e-07 -3.27096e-07 2.13577 356.531 292.12)" d="M19.0586 -57.7392C22.0874 -53.0042 27.0803 -37.4401 26.7481 -33.5269C26.4159 -29.6136 30.1465 -20.3939 27.0759 3.77795C23.7353 32.4708 17.6121 55.164 -7.51435 52.3528C-23.2775 50.487 -32.9541 25.761 -29.6135 -2.93191C-25.4253 -38.9045 2.28951 -65.2832 19.0586 -57.7392Z"></path>
  <path fill="none" stroke="black" stroke-width="7" stroke-linejoin="round" transform="matrix(1.79976 0.0293645 -0.0293645 1.79976 266.825 293.286)" d="M0.209625 -80.0966C37.3348 -80.0966 84.5 -60 84.5 0C84.5 41.1452 46.7396 76.2788 0.209625 76.2788C-62.1658 76.2788 -84 60.12 -84 0C-84 -71.2881 -50.5087 -80.0966 0.209625 -80.0966Z"></path>
  <path fill="none" stroke="black" stroke-width="7" stroke-linejoin="round" transform="matrix(1.53671 3.18039e-09 -3.72529e-09 1.8 308.979 398.168)" d="M-40.2329 -46.5669C-23.2819 -52.2828 7.00729 -43.1712 13.8301 7.29252C10.5167 24.8048 -11.7444 50.9227 -23.9969 45.7317C-36.2493 40.5407 -41.7453 38.2121 -52.6755 33.5813C-63.6056 28.9505 -49.598 13.9518 -46.6537 5.60554C-54.4576 -37.8538 -57.184 -40.851 -40.2329 -46.5669Z"></path>
  <path fill="#6C88D9" transform="matrix(-2.15345 -3.29802e-07 -3.27096e-07 2.13577 356.531 292.12)" d="M19.0586 -57.7392C22.0874 -53.0042 27.0803 -37.4401 26.7481 -33.5269C26.4159 -29.6136 30.1465 -20.3939 27.0759 3.77795C23.7353 32.4708 17.6121 55.164 -7.51435 52.3528C-23.2775 50.487 -32.9541 25.761 -29.6135 -2.93191C-25.4253 -38.9045 2.28951 -65.2832 19.0586 -57.7392Z"></path>
  <path fill="#5170C8" transform="matrix(1.53671 3.18039e-09 -3.72529e-09 1.8 308.979 398.168)" d="M-40.2329 -46.5669C-23.2819 -52.2828 7.00729 -43.1712 13.8301 7.29252C10.5167 24.8048 -11.7444 50.9227 -23.9969 45.7317C-36.2493 40.5407 -41.7453 38.2121 -52.6755 33.5813C-63.6056 28.9505 -49.598 13.9518 -46.6537 5.60554C-54.4576 -37.8538 -57.184 -40.851 -40.2329 -46.5669Z"></path>
  <path fill="#839BE0" transform="matrix(1.20328 2.49031e-09 -2.91698e-09 1.40944 308.979 398.168)" d="M-45.9138 -47.652C-28.9627 -53.3679 1.50837 -44.016 8.73235 10.5611C3.28199 31.6267 -18.7869 48.712 -31.0394 43.521C-43.2918 38.3299 -43.1615 38.4416 -54.0916 33.8108C-65.0217 29.18 -56.8327 20.7738 -51.7514 8.87413C-59.9567 -38.6985 -62.8649 -41.9361 -45.9138 -47.652Z"></path>
  <path fill="#6C88D9" transform="matrix(1.8 3.72529e-09 -3.72529e-09 1.8 210.879 409.868)" d="M33.5819 -47.0547C51.8043 -46.7269 64.2999 -39.2449 63.823 5.04204C63.952 34.0593 56.5382 44.0289 46.0234 43.6908C35.5086 43.3528 26.8691 43.3976 16.5356 43.4093C6.07361 43.2406 0.766922 32.0655 0.638359 3.03531C0.843489 -43.4609 15.3594 -47.3824 33.5819 -47.0547Z"></path>
  <path fill="#91A8EB" transform="matrix(-1.67686 -2.56813e-07 -3.2026e-07 2.09114 352.541 286.407)" d="M20.6444 -51.366C42.6614 -49.2935 32.1961 -25.278 26.4141 2.9657C20.6321 31.2094 5.42202 53.2913 -9.93653 51.8456C-25.295 50.3998 -33.9769 26.1415 -29.8014 -2.38144C-25.6259 -30.9044 -1.3727 -53.4386 20.6444 -51.366Z"></path>
  <path fill="none" stroke="black" stroke-width="7" stroke-miterlimit="4" transform="matrix(1.79976 0.0293645 -0.0293645 1.79976 225.374 134.267)" d="M0 -29.5C19.0538 -29.5 34.5 -16.1805 34.5 0.25C34.5 16.6805 19.0538 30 0 30C-19.0538 30 -34.5 16.6805 -34.5 0.25C-34.5 -16.1805 -19.0538 -29.5 0 -29.5Z"></path>
  <path fill="#6C88D9" transform="matrix(1.79976 0.0293645 -0.0293645 1.79976 266.825 293.286)" d="M0.209625 -80.0966C37.3348 -80.0966 84.5 -60 84.5 0C84.5 41.1452 46.7396 76.2788 0.209625 76.2788C-62.1658 76.2788 -84 60.12 -84 0C-84 -71.2881 -50.5087 -80.0966 0.209625 -80.0966Z"></path>
  <path fill="none" stroke="black" stroke-width="9" stroke-miterlimit="4" transform="translate(256 256)" d="M-56.9355 -179.55C-42.1529 -179.309 -30.3378 -168.78 -30.5458 -156.033C-30.7538 -143.285 -42.906 -133.147 -57.6886 -133.388C-72.4712 -133.629 -84.2863 -144.159 -84.0783 -156.906C-83.8703 -169.653 -71.7181 -179.792 -56.9355 -179.55Z"></path>
  <path fill="none" stroke="black" stroke-width="9" stroke-miterlimit="4" transform="translate(256 256)" d="M-72.4485 -164.638C-60.1489 -164.437 -50.3184 -155.677 -50.4914 -145.07C-50.6645 -134.464 -60.7756 -126.029 -73.0751 -126.23C-85.3747 -126.43 -95.2052 -135.191 -95.0322 -145.797C-94.8591 -156.403 -84.7481 -164.839 -72.4485 -164.638Z"></path>
  <path fill="none" stroke="black" stroke-width="9" stroke-miterlimit="4" transform="translate(256 256)" d="M-92.4556 -188.972C-85.7745 -188.863 -80.4347 -184.104 -80.5287 -178.343C-80.6227 -172.582 -86.1149 -168 -92.796 -168.109C-99.477 -168.218 -104.817 -172.977 -104.723 -178.738C-104.629 -184.499 -99.1366 -189.081 -92.4556 -188.972Z"></path>
  <path fill="#6C88D9" transform="matrix(1.79976 0.0293645 -0.0293645 1.79976 225.374 134.267)" d="M0 -29.5C19.0538 -29.5 34.5 -16.1805 34.5 0.25C34.5 16.6805 19.0538 30 0 30C-19.0538 30 -34.5 16.6805 -34.5 0.25C-34.5 -16.1805 -19.0538 -29.5 0 -29.5Z"></path>
  <path fill="#6C88D9" transform="matrix(0.775834 0.0126583 -0.0126583 0.775834 198.691 99.3367)" d="M0 -29.5C19.0538 -29.5 34.5 -16.1805 34.5 0.25C34.5 16.6805 19.0538 30 0 30C-19.0538 30 -34.5 16.6805 -34.5 0.25C-34.5 -16.1805 -19.0538 -29.5 0 -29.5Z"></path>
  <path fill="#6C88D9" transform="matrix(0.645518 0.0105321 -0.0105321 0.645518 183.241 110.405)" d="M7.62939e-06 -29.5C19.0538 -29.5 34.5 -16.1805 34.5 0.25C34.5 16.6805 19.0538 30 7.62939e-06 30C-19.0538 30 -34.5 16.6805 -34.5 0.25C-34.5 -16.1805 -19.0538 -29.5 7.62939e-06 -29.5Z"></path>
  <path fill="#6C88D9" transform="matrix(0.35064 0.00572097 -0.00572097 0.35064 163.376 77.372)" d="M0 -29.5C19.0538 -29.5 34.5 -16.1805 34.5 0.25C34.5 16.6805 19.0538 30 0 30C-19.0538 30 -34.5 16.6805 -34.5 0.25C-34.5 -16.1805 -19.0538 -29.5 0 -29.5Z"></path>
  <path fill="#91A8EB" transform="matrix(1.50913 0.0246226 -0.0246226 1.50913 265.461 293.286)" d="M0.24998 -81.5196C49.8787 -81.2985 84.5 -60 84.5 0C84.5 41.1452 46.78 74.5 0.25 74.5C-62.1254 74.5 -84 60.12 -84 0C-84 -71.2881 -62.1254 -81.5196 0.24998 -81.5196Z"></path>
  <clipPath id="cl_355">
    <path d="M269.555 149.138C336.371 150.228 420.667 187.782 418.905 295.767C417.697 369.819 348.705 431.942 264.963 430.576C152.702 428.744 113.88 399.021 115.645 290.819C117.739 162.518 178.274 147.648 269.555 149.138Z"></path>
  </clipPath>
  <g clip-path="url(#cl_355)">
    <path fill="#A6B8EF" transform="matrix(0.805953 0.0131497 -0.0151654 0.929491 321.119 258.164)" d="M0.249972 -81.5196C49.8787 -81.2985 84.5 -60 84.5 3.57628e-07C84.5 41.1452 67.1354 74.5 20.6054 74.5C-41.77 74.5 -84 60.12 -84 3.57628e-07C-84 -71.2881 -62.1254 -81.5197 0.249972 -81.5196Z"></path>
    <path fill="#C1CBE8" transform="matrix(0.197995 -0.202726 0.445703 0.435301 344.219 209.315)" d="M11.5671 -77.0972C58.0971 -77.0972 97.5959 -41.1452 97.5959 -2.05241e-05C97.5959 41.1452 73.4188 83.0524 26.8888 83.0524C-35.4866 83.0524 11.8086 60.12 11.8086 -1.92457e-05C11.8086 -41.1452 -34.9629 -77.0972 11.5671 -77.0972Z"></path>
    <path fill="#C1CBE8" transform="matrix(0.197995 -0.202726 0.184201 0.179903 388.661 273.671)" d="M48.93 -79.7642C80.6763 -79.0529 77.4946 -42.8888 62.8508 4.00568C48.2069 50.9002 -0.0393895 91.2964 -20.4536 67.777C-40.8678 44.2577 -16.8141 31.8032 -0.458961 -5.13878C15.8962 -42.0808 17.1838 -80.4755 48.93 -79.7642Z"></path>
  </g>
  <path fill="#91A8EB" transform="matrix(1.37947 2.85496e-09 -2.85496e-09 1.37947 210.879 346.868)" d="M43.5679 -1.75217C61.7904 -1.42445 75.4064 -1.97123 74.9289 49.5202C74.2968 75.0004 66.5537 89.4528 56.0388 89.1148C45.524 88.7768 36.8845 88.8216 26.551 88.8333C16.1711 88.7718 8.89905 71.9508 9.53112 46.4707C9.73715 -7.23017 25.3454 -2.07985 43.5679 -1.75217Z"></path>
  <path fill="#91A8EB" transform="matrix(1.79976 0.0293645 -0.0293645 1.79976 225.374 134.267)" d="M0 -22.5C14.6355 -22.5 26.5 -12.3145 26.5 0.25C26.5 12.8145 14.6355 23 0 23C-14.6355 23 -26.5 12.8145 -26.5 0.25C-26.5 -12.3145 -14.6355 -22.5 0 -22.5Z"></path>
  <path fill="none" stroke="black" stroke-width="7" stroke-linecap="round" stroke-linejoin="round" transform="matrix(2.15345 4.45679e-09 -4.42021e-09 2.13577 150.639 301.784)" d="M28.0374 -31.8246C29.6088 -27.1237 31.9358 -20.0238 35.2198 -8.51046C45.441 17.8415 58.8872 32.9784 37.6765 46.848C24.3058 55.4701 -6.69007 38.3917 -16.9431 11.9574C-24.4058 -12.2917 -17.5933 -37.3832 -6.84977 -50.8751"></path>
  <path fill="#6C88D9" transform="matrix(2.15345 4.45679e-09 -4.42021e-09 2.13577 150.639 301.784)" d="M11.2726 -60.8175C15.524 -57.1607 24.7448 -43.7016 25.5427 -39.8573C26.3406 -36.0129 29.1404 -29.8243 35.2198 -8.51046C45.441 17.8415 58.8872 32.9784 37.6765 46.848C24.3058 55.4701 -6.69007 38.3917 -16.9431 11.9574C-28.2097 -24.6518 -6.93974 -63.1807 11.2726 -60.8175Z"></path>
  <path fill="#91A8EB" transform="matrix(1.67686 3.47045e-09 -4.32784e-09 2.09114 154.628 296.071)" d="M12.4545 -54.3811C34.2848 -57.473 32.2411 -33.5332 34.8573 -7.62021C41.9286 19.2987 61.9716 35.8082 49.8704 43.5287C37.7692 51.2492 -0.983383 35.7592 -15.2154 10.3704C-27.4702 -18.671 -9.37579 -51.2892 12.4545 -54.3811Z"></path>
  <path fill="#312F2F" transform="matrix(0.539154 -0.0682743 0.0814076 0.642866 247.609 361.135)" d="M-1.90735e-06 -128C70.6925 -128 128 -70.6924 128 1.43051e-05C128 70.6925 70.6924 128 -5.72205e-06 128C-70.6925 128 -128 70.6925 -128 1.62125e-05C-128 -70.6924 -70.6925 -128 -1.90735e-06 -128Z"></path>
  <path fill="none" stroke="black" stroke-width="7" stroke-miterlimit="4" transform="translate(256 256)" d="M-6.59701 21.3014C31.5171 16.4749 67.0799 49.4034 72.8349 94.8491C78.5898 140.295 52.3574 181.049 14.2433 185.875C-23.8708 190.702 -59.4336 157.773 -65.1885 112.327C-70.9434 66.8816 -44.7111 26.1278 -6.59701 21.3014Z"></path>
  <path fill="none" stroke="black" stroke-width="7" stroke-linejoin="round" transform="translate(256 256)" d="M-6.59701 21.3014C-6.59701 21.3014 -16.3693 22.5389 -18.3399 22.7884C-49.1483 27.5413 -85.1955 52.3371 -77.403 113.874C-69.6104 175.411 -21.6943 190.426 2.02888 187.422C3.99942 187.172 14.2433 185.875 14.2433 185.875C13.6904 185.945 13.0934 185.997 12.4557 186.029"></path>
  <path fill="#DEDEDE" transform="matrix(0.539154 -0.0682743 0.0814076 0.642866 259.823 359.588)" d="M0 -128C70.6925 -128 128 -70.6924 128 1.43051e-05C128 70.6925 70.6924 128 -3.8147e-06 128C-70.6925 128 -128 70.6925 -128 1.62125e-05C-128 -70.6924 -70.6925 -128 0 -128Z"></path>
  <clipPath id="cl_358">
    <path d="M249.403 277.301C287.517 272.475 323.08 305.403 328.835 350.849C334.59 396.295 308.357 437.049 270.243 441.875C232.129 446.702 196.566 413.773 190.811 368.327C185.057 322.882 211.289 282.128 249.403 277.301Z"></path>
  </clipPath>
  <g clip-path="url(#cl_358)">
    <path fill="#F2F1F1" transform="matrix(0.535871 0.147349 -0.100778 0.629465 258.328 388.898)" d="M-170.753 -28.5017L169.944 -28.5017L169.944 28.5017L-170.753 28.5017L-170.753 -28.5017Z"></path>
    <path fill="#F2F1F1" transform="matrix(0.535871 0.147349 -0.100778 0.629465 253.437 412.978)" d="M-170.753 -5.22015L169.944 -5.22015L169.944 5.22018L-170.753 5.22018L-170.753 -5.22015Z"></path>
  </g>
  <path fill="#8B8B8B" transform="matrix(0.539154 -0.0682743 0.0814076 0.642866 263.246 358.502)" d="M0.250002 -87.5C51.4744 -87.5 93 -48.4368 93 -0.250001C93 47.9368 51.4744 87 0.25 87C-50.9744 87 -92.5 47.9368 -92.5 -0.249999C-92.5 -48.4368 -50.9744 -87.5 0.250002 -87.5Z"></path>
  <path fill="#B0AFAF" transform="matrix(0.539154 -0.0682743 0.0814076 0.642866 259.823 359.588)" d="M-6.25849e-07 -86C47.4965 -86 86 -47.4965 86 1.4618e-05C86 47.4965 47.4965 86 -3.18885e-06 86C-47.4965 86 -86 47.4965 -86 1.58995e-05C-86 -47.4965 -47.4965 -86 -6.25849e-07 -86Z"></path>
  <path fill="#8B8B8B" transform="matrix(0.539154 -0.0682743 0.0814076 0.642866 259.767 356.983)" d="M-52.3281 27.625L-52.3281 -27.668L-46.756 -30.4056L-46.7825 24.7561L-42.4192 24.6237L-47.1315 27.6684L-52.3281 27.625ZM-50.25 21.3164C-54.7526 21.3164 -58.6058 20.4196 -61.8096 18.626C-65.0133 16.8323 -67.4626 14.3336 -69.1572 11.1299C-70.8519 7.92609 -71.6992 4.1966 -71.6992 -0.058609C-71.6992 -4.31382 -70.8519 -8.04331 -69.1572 -11.2471C-67.4626 -14.4509 -65.0133 -16.9496 -61.8096 -18.7432C-58.6058 -20.5368 -54.7526 -21.4336 -50.25 -21.4336C-47.3802 -21.4336 -44.7826 -21.0625 -42.457 -20.3203C-40.1315 -19.5781 -38.109 -18.5205 -36.3896 -17.1475C-34.6702 -15.7744 -27.78 -10.4694 -25.0591 -8.68547C-26.0599 -7.96246 -28.21 -6.90541 -30.3965 -5.66212C-30.3965 -5.66212 -44.0898 -3.62111 -44.0898 -3.62111C-44.0898 -3.62111 -44.5166 -5.66831 -44.8506 -6.49709C-45.1846 -7.32586 -45.599 -8.02476 -46.0938 -8.59377C-46.5885 -9.16277 -47.1637 -9.58953 -47.8193 -9.87404C-48.4749 -10.1585 -49.2109 -10.3008 -50.0273 -10.3008C-51.3385 -10.3008 -52.4766 -9.9297 -53.4414 -9.18752C-54.4062 -8.44533 -55.1546 -7.31968 -55.6865 -5.81056C-56.2184 -4.30145 -56.4844 -2.40887 -56.4844 -0.132828C-56.4844 2.11847 -56.2184 4.01105 -55.6865 5.54491C-55.1546 7.07876 -54.4062 8.23534 -53.4414 9.01463C-52.4766 9.79393 -51.3385 10.1836 -50.0273 10.1836C-49.2109 10.1836 -48.4749 10.0351 -47.8193 9.73827C-47.1637 9.44139 -46.5824 9.00226 -46.0752 8.42088C-45.568 7.8395 -45.8968 6.99336 -44.8135 6.24998C-43.7302 5.50661 -38.8902 1.52306 -38.7417 0.409782C-38.7417 0.409782 -30.3965 5.28514 -30.3965 5.28514C-30.3965 5.28514 -31.2747 9.97948 -32.2891 11.9463C-33.3034 13.9131 -34.6641 15.5954 -36.3711 16.9931C-38.0781 18.3909 -40.1006 19.4609 -42.4385 20.2031C-44.7764 20.9453 -47.3802 21.3164 -50.25 21.3164ZM-24.5332 27.625L-24.5332 16.8633L-3.90039 -0.207047C-3.90039 -0.207047 -1.36458 -2.41505 -0.375 -3.41701C0.614584 -4.41896 1.37533 -5.45184 1.90723 -6.51564C2.43913 -7.57944 2.70508 -8.76694 2.70508 -10.0781C2.70508 -11.4883 2.40202 -12.6944 1.7959 -13.6963C1.18978 -14.6983 0.361002 -15.4714 -0.69043 -16.0156C-1.74186 -16.5599 -2.96029 -16.832 -4.3457 -16.832C-5.73112 -16.832 -6.94954 -16.5537 -8.00098 -15.9971C-9.05241 -15.4404 -6.2922 -13.7058 -5.868 -12.6284C-7.10779 -11.907 -9.37628 -10.5827 -11.3223 -9.63283C-11.3223 -9.63283 -25.5723 -9.63283 -25.5723 -9.63283C-25.5723 -9.63283 -24.7002 -16.8568 -22.9561 -19.6524C-21.2119 -22.4479 -18.7441 -24.6065 -15.5527 -26.1279C-12.3613 -27.6494 -8.62565 -28.4102 -4.3457 -28.4102C0.0826817 -28.4102 3.91732 -27.7051 7.1582 -26.2949C10.3991 -24.8848 12.904 -22.8994 14.6729 -20.3389C16.4417 -17.7783 17.3262 -14.7787 17.3262 -11.3399C17.3262 -9.21226 16.887 -7.1032 16.0088 -5.01271C15.1305 -2.92222 13.5534 -0.60288 11.2773 1.9453C9.0013 4.49347 5.74805 7.5117 1.51758 11C1.51758 11 -3.67773 15.3047 -3.67773 15.3047L-3.67773 15.6758L17.9199 15.6758L23.3601 24.6526L17.9199 27.625L-24.5332 27.625ZM45.3066 28.3672C41.0514 28.3672 37.2786 27.6188 33.9883 26.1221C30.6979 24.6253 28.1126 22.5534 26.2324 19.9062C24.3522 17.2591 23.3874 14.2161 23.3379 10.7773C23.3379 10.7773 28.8025 7.82545 28.8025 7.82545L37.959 10.7773C37.959 10.7773 38.293 13.14 38.9609 14.0801C39.6289 15.0202 40.5195 15.7438 41.6328 16.251C42.7461 16.7581 43.9707 17.0117 45.3066 17.0117C46.8405 17.0117 48.1826 16.6839 49.333 16.0283C50.4834 15.3727 51.3864 14.4512 52.042 13.2637C52.6976 12.0762 53.0254 10.6784 53.0254 9.0703C53.0254 7.43748 52.6976 6.02114 52.042 4.82127C51.3864 3.6214 50.4834 2.69367 49.333 2.03807C48.1826 1.38247 46.8405 1.05467 45.3066 1.05467C43.6986 1.05467 43.4423 2.31532 43.4423 2.31532C43.4423 2.31532 38.6022 4.02342 37.959 5.35936C37.959 5.35936 24.748 2.7617 24.748 2.7617L26.9004 -27.668L32.366 -30.6324L64.084 -27.668L69.5014 -18.6129L64.084 -15.6445L39.2207 -15.6445L38.1816 -3.47267L38.4785 -3.47267C38.4785 -3.47267 40.8411 -6.54038 42.9688 -7.62892C45.0964 -8.71746 47.5579 -9.26173 50.3535 -9.26173C52.8027 -9.26173 55.0726 -8.82879 57.1631 -7.96291C59.2536 -7.09702 61.0719 -5.86623 62.6182 -4.27052C64.1644 -2.67482 65.3643 -0.782242 66.2178 1.40721C67.0713 3.59666 67.498 6.00259 67.498 8.62498C67.498 12.4844 66.5827 15.8984 64.752 18.8672C62.9212 21.8359 60.3421 24.1614 57.0146 25.8437C53.6872 27.526 49.7845 28.3672 45.3066 28.3672Z"></path>
  <path fill="#DEDEDE" transform="matrix(0.539154 -0.0682743 0.0814076 0.642866 262.137 354.07)" d="M-51.8282 28.625L-51.8282 -26.668L-47.375 -26.668L-47.375 28.625L-51.8282 28.625ZM-49.75 22.3164C-54.2526 22.3164 -58.1058 21.4196 -61.3096 19.626C-64.5134 17.8324 -66.9626 15.3337 -68.6573 12.1299C-70.3519 8.92611 -71.1993 5.19662 -71.1993 0.941406C-71.1993 -3.3138 -70.3519 -7.0433 -68.6573 -10.2471C-66.9626 -13.4508 -64.5134 -15.9495 -61.3096 -17.7432C-58.1058 -19.5368 -54.2526 -20.4336 -49.75 -20.4336C-46.8802 -20.4336 -44.2826 -20.0625 -41.9571 -19.3203C-39.6315 -18.5781 -37.6091 -17.5205 -35.8897 -16.1475C-34.1703 -14.7744 -32.8034 -13.1169 -31.7891 -11.1748C-30.7748 -9.23275 -30.1439 -7.06185 -29.8965 -4.66211C-29.8965 -4.66211 -43.5899 -2.62109 -43.5899 -2.62109C-43.5899 -2.62109 -44.0166 -4.6683 -44.3506 -5.49707C-44.6846 -6.32584 -45.099 -7.02474 -45.5938 -7.59375C-46.0886 -8.16276 -46.6638 -8.58952 -47.3194 -8.87402C-47.975 -9.15853 -48.711 -9.30078 -49.5274 -9.30078C-50.8386 -9.30078 -51.9766 -8.92969 -52.9414 -8.1875C-53.9063 -7.44531 -54.6547 -6.31966 -55.1866 -4.81055C-55.7185 -3.30143 -55.9844 -1.40885 -55.9844 0.867188C-55.9844 3.11849 -55.7185 5.01107 -55.1866 6.54492C-54.6547 8.07878 -53.9063 9.23535 -52.9414 10.0146C-51.9766 10.7939 -50.8386 11.1836 -49.5274 11.1836C-48.711 11.1836 -47.975 11.0352 -47.3194 10.7383C-46.6638 10.4414 -46.0824 10.0023 -45.5752 9.4209C-45.0681 8.83952 -44.6475 8.11588 -44.3135 7.25C-43.9795 6.38412 -43.7383 5.39453 -43.5899 4.28125C-43.5899 4.28125 -29.8965 6.28516 -29.8965 6.28516C-29.8965 6.28516 -30.7748 10.9795 -31.7891 12.9463C-32.8034 14.9131 -34.1641 16.5954 -35.8711 17.9932C-37.5782 19.3909 -39.6006 20.4609 -41.9385 21.2031C-44.2764 21.9453 -46.8802 22.3164 -49.75 22.3164ZM-24.0332 28.625L-24.0332 17.8633L-3.4004 0.792984C-3.4004 0.792984 -0.864597 -1.41502 0.124987 -2.41698C1.11457 -3.41893 1.87531 -4.45181 2.40721 -5.51561C2.93911 -6.57941 3.20506 -7.76691 3.20506 -9.07811C3.20506 -10.4883 2.902 -11.6943 2.29589 -12.6963C1.68977 -13.6982 0.860989 -14.4713 -0.190443 -15.0156C-1.24187 -15.5599 -2.4603 -15.832 -3.84572 -15.832C-5.23113 -15.832 -6.44956 -15.5537 -7.50099 -14.9971C-8.55242 -14.4404 -9.36883 -13.6302 -9.95021 -12.5664C-10.5316 -11.5026 -10.8223 -10.1914 -10.8223 -8.6328C-10.8223 -8.6328 -25.0723 -8.6328 -25.0723 -8.6328C-25.0723 -8.6328 -24.2002 -15.8568 -22.4561 -18.6523C-20.7119 -21.4479 -18.2442 -23.6064 -15.0527 -25.1279C-11.8613 -26.6494 -8.12566 -27.4101 -3.84572 -27.4101C0.582668 -27.4101 4.41731 -26.7051 7.65819 -25.2949C10.8991 -23.8848 13.404 -21.8994 15.1728 -19.3389C16.9417 -16.7783 17.8262 -13.7786 17.8262 -10.3398C17.8262 -8.21223 17.387 -6.10317 16.5088 -4.01268C15.6305 -1.92219 14.0534 0.39715 11.7773 2.94533C9.50129 5.49351 6.24803 8.51173 2.01756 12C2.01756 12 -3.17775 16.3047 -3.17775 16.3047L-3.17775 16.6758L18.4199 16.6758L18.4199 28.625L-24.0332 28.625ZM45.8066 29.3672C41.5514 29.3672 37.7786 28.6188 34.4883 27.1221C31.1979 25.6253 28.6126 23.5534 26.7324 20.9063C24.8522 18.2591 23.8874 15.2162 23.8379 11.7774C23.8379 11.7774 38.459 11.7774 38.459 11.7774C38.459 11.7774 38.793 14.14 39.4609 15.0801C40.1289 16.0202 41.0195 16.7438 42.1328 17.251C43.2461 17.7582 44.4707 18.0117 45.8066 18.0117C47.3405 18.0117 48.6826 17.6839 49.833 17.0283C50.9834 16.3727 51.8864 15.4512 52.542 14.2637C53.1976 13.0762 53.5254 11.6784 53.5254 10.0703C53.5254 8.43752 53.1976 7.02117 52.542 5.8213C51.8864 4.62144 50.9834 3.6937 49.833 3.0381C48.6826 2.3825 47.3405 2.0547 45.8066 2.0547C44.1986 2.0547 42.7327 2.43817 41.4092 3.20509C40.0856 3.97202 39.1022 5.02345 38.459 6.35939C38.459 6.35939 25.248 3.76173 25.248 3.76173L27.4004 -26.668L64.584 -26.668L64.584 -14.6445L39.7207 -14.6445L38.6816 -2.47264L38.9785 -2.47264C38.9785 -2.47264 41.3411 -5.54035 43.4688 -6.62889C45.5964 -7.71743 48.0579 -8.2617 50.8535 -8.2617C53.3027 -8.2617 55.5726 -7.82876 57.6631 -6.96288C59.7536 -6.09699 61.5719 -4.8662 63.1182 -3.27049C64.6644 -1.67479 65.8643 0.217789 66.7178 2.40724C67.5713 4.59669 67.998 7.00262 67.998 9.62502C67.998 13.4844 67.0827 16.8985 65.252 19.8672C63.4212 22.836 60.8421 25.1615 57.5146 26.8438C54.1872 28.5261 50.2845 29.3672 45.8066 29.3672Z"></path>
  <clipPath id="cl_35a">
    <path d="M236.524 376.01L232.023 340.464L234.424 340.16L238.925 375.706L236.524 376.01ZM237.131 371.813C234.703 372.12 232.553 371.807 230.68 370.873C228.806 369.938 227.282 368.499 226.108 366.555C224.933 364.611 224.173 362.272 223.827 359.536C223.48 356.801 223.633 354.345 224.286 352.17C224.939 349.995 226.056 348.221 227.638 346.849C229.219 345.477 231.223 344.638 233.651 344.33C235.198 344.134 236.629 344.196 237.943 344.514C239.257 344.832 240.434 345.374 241.473 346.139C242.511 346.905 243.383 347.877 244.088 349.056C244.793 350.236 245.31 351.588 245.639 353.114C245.639 353.114 238.422 355.361 238.422 355.361C238.422 355.361 238.025 354.074 237.778 353.564C237.53 353.054 237.25 352.633 236.937 352.301C236.624 351.969 236.279 351.734 235.902 351.596C235.526 351.458 235.117 351.416 234.677 351.472C233.97 351.562 233.387 351.878 232.927 352.421C232.467 352.964 232.156 353.739 231.992 354.745C231.828 355.752 231.838 356.986 232.024 358.45C232.207 359.897 232.504 361.095 232.916 362.045C233.328 362.995 233.825 363.687 234.409 364.122C234.993 364.558 235.638 364.73 236.345 364.641C236.785 364.585 237.17 364.439 237.499 364.204C237.828 363.968 238.106 363.646 238.332 363.238C238.558 362.829 238.726 362.336 238.836 361.756C238.945 361.177 238.995 360.524 238.984 359.798C238.984 359.798 246.53 360.151 246.53 360.151C246.53 360.151 246.439 363.229 246.052 364.563C245.665 365.897 245.069 367.071 244.262 368.086C243.455 369.101 242.452 369.927 241.252 370.564C240.052 371.201 238.678 371.617 237.131 371.813ZM251.51 374.113L250.634 367.194L260.368 354.812C260.368 354.812 261.556 353.219 262.008 352.507C262.46 351.796 262.786 351.08 262.986 350.36C263.186 349.639 263.233 348.858 263.126 348.015C263.011 347.108 262.75 346.354 262.342 345.751C261.933 345.148 261.423 344.708 260.812 344.43C260.201 344.152 259.522 344.06 258.775 344.154C258.028 344.249 257.394 344.511 256.872 344.941C256.351 345.37 255.976 345.947 255.75 346.671C255.523 347.394 255.473 348.257 255.6 349.259C255.6 349.259 247.917 350.232 247.917 350.232C247.917 350.232 247.799 345.528 248.512 343.612C249.224 341.696 250.379 340.14 251.976 338.944C253.573 337.748 255.525 337.004 257.832 336.711C260.22 336.409 262.345 336.6 264.207 337.286C266.069 337.971 267.581 339.076 268.743 340.602C269.906 342.127 270.627 343.995 270.907 346.206C271.08 347.573 271.015 348.959 270.711 350.363C270.408 351.767 269.747 353.366 268.727 355.159C267.707 356.953 266.199 359.115 264.202 361.646C264.202 361.646 261.751 364.768 261.751 364.768L261.781 365.007L273.426 363.533L274.399 371.214L251.51 374.113ZM289.225 369.822C286.931 370.112 284.836 369.889 282.94 369.151C281.044 368.413 279.481 367.258 278.252 365.685C277.023 364.111 276.255 362.221 275.948 360.014C275.948 360.014 283.831 359.015 283.831 359.015C283.831 359.015 284.204 360.511 284.64 361.07C285.077 361.629 285.616 362.033 286.258 362.283C286.899 362.533 287.58 362.613 288.3 362.522C289.127 362.417 289.824 362.114 290.391 361.614C290.958 361.114 291.37 360.46 291.627 359.652C291.883 358.844 291.946 357.923 291.815 356.889C291.683 355.84 291.391 354.951 290.939 354.225C290.488 353.498 289.926 352.964 289.252 352.621C288.579 352.278 287.828 352.159 287.001 352.263C286.134 352.373 285.375 352.72 284.724 353.303C284.073 353.886 283.628 354.63 283.39 355.532C283.39 355.532 276.056 354.764 276.056 354.764L274.739 335.055L294.787 332.516L295.766 340.246L282.361 341.943L282.791 349.839L282.951 349.819C282.951 349.819 283.975 347.686 285.034 346.841C286.092 345.995 287.375 345.478 288.883 345.287C290.203 345.119 291.462 345.243 292.66 345.657C293.857 346.071 294.938 346.738 295.901 347.658C296.865 348.578 297.666 349.713 298.304 351.062C298.943 352.411 299.369 353.929 299.582 355.615C299.896 358.096 299.681 360.353 298.935 362.387C298.19 364.42 296.989 366.091 295.332 367.4C293.675 368.709 291.639 369.516 289.225 369.822Z"></path>
  </clipPath>
  <g clip-path="url(#cl_35a)">
    <path fill="#F2F1F1" transform="matrix(0.535871 0.147349 -0.100778 0.629465 258.328 388.898)" d="M-170.753 -28.5017L169.944 -28.5017L169.944 28.5017L-170.753 28.5017L-170.753 -28.5017Z"></path>
  </g>
  <path fill="#8E8B8B" transform="matrix(0.642866 -0.0814076 0.0814076 0.642866 249.403 277.301)" d="M9.53674e-07 0C9.53674e-07 0 -15.2012 -3.8147e-06 -18.2664 -3.8147e-06C-66.3551 1.3037 -126.35 32.2772 -126.35 128C-126.35 223.723 -55.9022 256 -19 256C-15.9348 256 -1.90735e-06 256 -1.90735e-06 256C-25.5439 256 -107.35 223.723 -107.35 128C-107.35 32.2772 -25.5439 -3.8147e-06 9.53674e-07 0Z"></path>
  <clipPath id="cl_35c">
    <path d="M249.403 277.301C249.403 277.301 239.631 278.539 237.66 278.788C206.852 283.541 170.804 308.337 178.597 369.874C186.39 431.411 234.306 446.426 258.029 443.422C259.999 443.172 270.243 441.875 270.243 441.875C253.822 443.955 198.604 429.864 190.811 368.327C183.019 306.79 232.982 279.381 249.403 277.301Z"></path>
  </clipPath>
  <g clip-path="url(#cl_35c)">
    <path fill="#ACABAB" transform="matrix(0.539154 -0.0682743 0.0814076 0.642866 219.286 401.56)" d="M-105.5 -40.8038L105 -40.8038L105 40.8039L-105.5 40.8039L-105.5 -40.8038Z"></path>
    <path fill="#D6D6D6" transform="matrix(0.539154 -0.0682743 0.0814076 0.642866 214.625 396.991)" d="M-105.5 -7.02944L105 -7.02944L105 7.02947L-105.5 7.02947L-105.5 -7.02944Z"></path>
    <path fill="#D6D6D6" transform="matrix(0.540687 -0.0684684 0.0811768 0.641043 233.54 366.182)" d="M-137.32 -30.4789L136.67 -30.4789L136.67 30.4789L-137.32 30.4789L-137.32 -30.4789Z"></path>
  </g>
  <path fill="#91A8EB" transform="matrix(0.606874 0.00990163 -0.00990163 0.606874 198.691 101.544)" d="M-7.62939e-06 -22.5C14.6355 -22.5 26.5 -12.3145 26.5 0.25C26.5 12.8145 14.6355 23 -7.62939e-06 23C-14.6356 23 -26.5 12.8145 -26.5 0.25C-26.5 -12.3145 -14.6356 -22.5 -7.62939e-06 -22.5Z"></path>
  <path fill="#91A8EB" transform="matrix(0.504938 0.00823846 -0.00823846 0.504938 183.241 112.241)" d="M-4.23752e-08 -22.5C14.6355 -22.5 26.5 -12.3145 26.5 0.249969C26.5 12.8144 14.6355 23 4.23752e-08 23C-14.6355 23 -26.5 12.8144 -26.5 0.24997C-26.5 -12.3145 -14.6355 -22.5 -4.23752e-08 -22.5Z"></path>
  <path fill="#91A8EB" transform="matrix(0.274279 0.00447507 -0.00447507 0.274279 164.372 79.4547)" d="M0 -22.4262C14.2962 -22.4262 25.8855 -12.2741 25.8855 0.249207C25.8855 12.7725 14.2962 22.9246 0 22.9246C-14.2962 22.9246 -25.8855 12.7725 -25.8855 0.249207C-25.8855 -12.2741 -14.2962 -22.4262 0 -22.4262Z"></path>
  <path fill="#C1CBE8" transform="matrix(0.073816 -0.11483 0.26388 0.16963 160.672 76.7666)" d="M0 -11.4999C14.6355 -11.4999 28.0061 -7.98322 28.0061 -1.63195C28.0061 4.71933 15.5059 0.400246 0.870356 0.400247C-13.7652 0.400246 -26.766 4.37695 -26.766 -1.97432C-26.766 -8.3256 -14.6355 -11.4999 0 -11.4999Z"></path>
  <path fill="#C1CBE8" transform="matrix(-0.166841 -0.570472 0.880441 -0.257495 183.207 138.529)" d="M0 -11.5C14.6355 -11.5 28.0061 -7.98328 28.0061 -1.63201C28.0061 4.71927 15.5059 0.400186 0.870357 0.400186C-13.7652 0.400184 -26.766 4.37689 -26.766 -1.97439C-26.766 -8.32566 -14.6355 -11.5 0 -11.5Z"></path>
  <path fill="#1B2B56" transform="matrix(1.78669 -0.21848 0.065544 0.536007 234.455 115.537)" d="M-2.47732e-07 -2.5C1.38071 -2.5 2.5 -1.38071 2.5 0C2.5 1.38071 1.38071 2.5 -2.29105e-07 2.5C-1.38071 2.5 -2.5 1.38071 -2.5 0C-2.5 -1.38071 -1.38071 -2.5 -2.47732e-07 -2.5Z"></path>
  <path fill="none" stroke="#1B2B56" stroke-width="0.5" stroke-linecap="round" stroke-linejoin="round" transform="matrix(1.78289 -0.247598 0.247598 1.78289 243.098 114.426)" d="M1.98548 0.277974L6.02909 0.184236"></path>
  <path fill="#1B2B56" transform="matrix(1.78669 -0.21848 0.065544 0.536007 263.042 112.041)" d="M-9.31323e-09 -2.50003C1.38071 -2.50003 2.5 -1.38074 2.5 -3.05176e-05C2.5 1.38068 1.38071 2.49997 9.31323e-09 2.49997C-1.38071 2.49997 -2.5 1.38068 -2.5 -3.05176e-05C-2.5 -1.38074 -1.38071 -2.50003 -9.31323e-09 -2.50003Z"></path>
  <path fill="#354B89" transform="matrix(1.46507 -0.885005 0.929571 0.72522 254.819 105.109)" d="M0 -2.49999C1.38071 -2.49999 2.5 -1.3807 2.5 7.77841e-06C2.5 1.38072 1.38071 2.50001 0 2.50001C-1.38071 2.50001 -2.5 1.38072 -2.5 7.48038e-06C-2.5 -1.3807 -1.38071 -2.49999 0 -2.49999Z"></path>
  <path fill="#354B89" transform="matrix(2.16254 0.296937 -0.629837 1.0733 238.847 106.049)" d="M-3.8147e-06 -2.98533C1.68305 -2.98533 3.04744 -1.64875 3.04744 7.53857e-06C3.04744 1.64876 1.68305 2.98535 -3.8147e-06 2.98535C-1.68306 2.98535 -3.04744 1.64876 -3.04744 7.72022e-06C-3.04744 -1.64875 -1.68306 -2.98533 -3.8147e-06 -2.98533Z"></path>
  <path fill="none" stroke="white" stroke-width="5" stroke-linecap="round" stroke-linejoin="round" transform="matrix(1.5 0 0 1.5 158.539 362.24)" d=""></path>
</svg>