<?xml version="1.0" encoding="utf-8"?>
<svg xmlns="http://www.w3.org/2000/svg" xmlns:xlink="http://www.w3.org/1999/xlink" width="512" height="512">
  <path fill="none" stroke="black" stroke-width="7" stroke-linejoin="round" transform="matrix(1.8 3.72529e-09 -3.72529e-09 1.8 210.879 409.868)" d="M42.4754 -47.2695C60.6973 -46.9098 73.1796 -39.4059 72.6251 4.88016C72.7031 33.8976 65.2719 43.8542 54.7577 43.4977C44.2435 43.1412 35.6039 43.1709 25.2704 43.1645C14.8088 42.9774 9.52165 31.793 9.44404 2.76254C9.73078 -43.7332 24.2536 -47.6292 42.4754 -47.2695Z"></path>
  <path fill="none" stroke="black" stroke-width="7" stroke-linejoin="round" transform="matrix(-2.15345 -3.29802e-07 -3.27096e-07 2.13577 356.564 293.495)" d="M18.7643 -58.1865C21.9582 -53.563 27.4966 -38.1877 27.3025 -34.265C27.1084 -30.3423 31.1616 -21.2621 28.9451 3.00448C26.618 31.7989 21.2986 54.6973 -3.91111 52.7882C-19.73 51.4885 -30.2721 27.1248 -27.945 -1.66964C-25.0275 -37.7696 1.73994 -65.1247 18.7643 -58.1865Z"></path>
  <path fill="none" stroke="black" stroke-width="7" stroke-linejoin="round" transform="matrix(1.79976 0.0293645 -0.0293645 1.79976 266.859 294.66)" d="M0.209625 -80.0966C37.3348 -80.0966 84.5 -60 84.5 0C84.5 41.1452 46.7396 76.2788 0.209625 76.2788C-62.1658 76.2788 -84 60.12 -84 0C-84 -71.2881 -50.5087 -80.0966 0.209625 -80.0966Z"></path>
  <path fill="none" stroke="black" stroke-width="7" stroke-linejoin="round" transform="matrix(1.53671 3.18039e-09 -3.72529e-09 1.8 308.979 398.168)" d="M-49.5712 -46.2983C-32.7475 -52.2824 -1.76611 -42.9752 5.25068 7.31108C1.65909 24.934 -21.5429 50.9677 -33.6134 45.4749C-45.684 39.9821 -51.0985 37.5182 -61.8664 32.6181C-72.6342 27.7181 -57.721 13.34 -54.5778 5.38051C-62.662 -37.3932 -66.3948 -40.3142 -49.5712 -46.2983Z"></path>
  <path fill="#6C88D9" transform="matrix(-2.15345 -3.29802e-07 -3.27096e-07 2.13577 356.564 293.495)" d="M18.7643 -58.1865C21.9582 -53.563 27.4966 -38.1877 27.3025 -34.265C27.1084 -30.3423 31.1616 -21.2621 28.9451 3.00448C26.618 31.7989 21.2986 54.6973 -3.91111 52.7882C-19.73 51.4885 -30.2721 27.1248 -27.945 -1.66964C-25.0275 -37.7696 1.73994 -65.1247 18.7643 -58.1865Z"></path>
  <path fill="#5170C8" transform="matrix(1.53671 3.18039e-09 -3.72529e-09 1.8 308.979 398.168)" d="M-49.5712 -46.2983C-32.7475 -52.2824 -1.76611 -42.9752 5.25068 7.31108C1.65909 24.934 -21.5429 50.9677 -33.6134 45.4749C-45.684 39.9821 -51.0985 37.5182 -61.8664 32.6181C-72.6342 27.7181 -57.721 13.34 -54.5778 5.38051C-62.662 -37.3932 -66.3948 -40.3142 -49.5712 -46.2983Z"></path>
  <path fill="#839BE0" transform="matrix(1.20328 2.49031e-09 -2.91698e-09 1.40944 308.979 398.168)" d="M-57.5832 -47.3978C-40.7596 -53.3819 -9.55468 -43.8243 -2.13662 10.5329C-7.94003 31.651 -30.7433 48.6824 -42.8139 43.1896C-54.8844 37.6967 -54.758 37.8115 -65.5258 32.9115C-76.2937 28.0115 -67.3201 20.0571 -61.9651 8.60229C-70.4506 -38.2423 -74.4069 -41.4138 -57.5832 -47.3978Z"></path>
  <path fill="#6C88D9" transform="matrix(1.8 3.72529e-09 -3.72529e-09 1.8 210.879 409.868)" d="M42.4754 -47.2695C60.6973 -46.9098 73.1796 -39.4059 72.6251 4.88016C72.7031 33.8976 65.2719 43.8542 54.7577 43.4977C44.2435 43.1412 35.6039 43.1709 25.2704 43.1645C14.8088 42.9774 9.52165 31.793 9.44404 2.76254C9.73078 -43.7332 24.2536 -47.6292 42.4754 -47.2695Z"></path>
  <path fill="#91A8EB" transform="matrix(-1.67686 -2.56813e-07 -3.2026e-07 2.09114 352.574 287.782)" d="M20.4834 -51.7845C42.5785 -50.3408 33.1842 -26.0422 28.6576 2.34841C24.1311 30.739 9.90929 53.2405 -5.5036 52.2334C-20.9165 51.2263 -30.6681 27.2307 -27.7594 -1.39323C-24.8506 -30.0172 -1.61158 -53.2283 20.4834 -51.7845Z"></path>
  <path fill="none" stroke="black" stroke-width="7" stroke-miterlimit="4" transform="matrix(1.79976 0.0293645 -0.0293645 1.79976 225.407 135.915)" d="M1.90735e-06 -29.5C19.0538 -29.5 34.5 -16.1805 34.5 0.25C34.5 16.6805 19.0538 30 1.90735e-06 30C-19.0538 30 -34.5 16.6805 -34.5 0.25C-34.5 -16.1805 -19.0538 -29.5 1.90735e-06 -29.5Z"></path>
  <path fill="#6C88D9" transform="matrix(1.79976 0.0293645 -0.0293645 1.79976 266.859 294.66)" d="M0.209625 -80.0966C37.3348 -80.0966 84.5 -60 84.5 0C84.5 41.1452 46.7396 76.2788 0.209625 76.2788C-62.1658 76.2788 -84 60.12 -84 0C-84 -71.2881 -50.5087 -80.0966 0.209625 -80.0966Z"></path>
  <path fill="none" stroke="black" stroke-width="9" stroke-miterlimit="4" transform="translate(256 256)" d="M-56.902 -177.902C-42.1194 -177.661 -30.3043 -167.131 -30.5123 -154.384C-30.7203 -141.637 -42.8725 -131.498 -57.6551 -131.74C-72.4377 -131.981 -84.2528 -142.51 -84.0448 -155.257C-83.8368 -168.005 -71.6846 -178.143 -56.902 -177.902Z"></path>
  <path fill="none" stroke="black" stroke-width="9" stroke-miterlimit="4" transform="translate(256 256)" d="M-72.415 -162.989C-60.1154 -162.789 -50.2849 -154.028 -50.4579 -143.422C-50.631 -132.816 -60.7421 -124.38 -73.0416 -124.581C-85.3412 -124.782 -95.1717 -133.542 -94.9987 -144.149C-94.8256 -154.755 -84.7146 -163.19 -72.415 -162.989Z"></path>
  <path fill="none" stroke="black" stroke-width="9" stroke-miterlimit="4" transform="translate(256 256)" d="M-92.4221 -187.323C-85.741 -187.214 -80.4012 -182.456 -80.4952 -176.694C-80.5892 -170.933 -86.0814 -166.351 -92.7625 -166.46C-99.4435 -166.569 -104.783 -171.328 -104.689 -177.089C-104.595 -182.85 -99.1031 -187.432 -92.4221 -187.323Z"></path>
  <path fill="#6C88D9" transform="matrix(1.79976 0.0293645 -0.0293645 1.79976 225.407 135.915)" d="M1.90735e-06 -29.5C19.0538 -29.5 34.5 -16.1805 34.5 0.25C34.5 16.6805 19.0538 30 1.90735e-06 30C-19.0538 30 -34.5 16.6805 -34.5 0.25C-34.5 -16.1805 -19.0538 -29.5 1.90735e-06 -29.5Z"></path>
  <path fill="#6C88D9" transform="matrix(0.775834 0.0126583 -0.0126583 0.775834 198.725 100.985)" d="M0 -29.5C19.0538 -29.5 34.5 -16.1805 34.5 0.25C34.5 16.6805 19.0538 30 0 30C-19.0538 30 -34.5 16.6805 -34.5 0.25C-34.5 -16.1805 -19.0538 -29.5 0 -29.5Z"></path>
  <path fill="#6C88D9" transform="matrix(0.645518 0.0105321 -0.0105321 0.645518 183.274 112.053)" d="M7.62939e-06 -29.5C19.0538 -29.5 34.5 -16.1805 34.5 0.25C34.5 16.6805 19.0538 30 7.62939e-06 30C-19.0538 30 -34.5 16.6805 -34.5 0.25C-34.5 -16.1805 -19.0538 -29.5 7.62939e-06 -29.5Z"></path>
  <path fill="#6C88D9" transform="matrix(0.35064 0.00572097 -0.00572097 0.35064 163.409 79.0206)" d="M0 -29.5C19.0538 -29.5 34.5 -16.1804 34.5 0.250031C34.5 16.6805 19.0538 30 0 30C-19.0538 30 -34.5 16.6805 -34.5 0.250031C-34.5 -16.1804 -19.0538 -29.5 0 -29.5Z"></path>
  <path fill="#91A8EB" transform="matrix(1.50913 0.0246226 -0.0246226 1.50913 265.494 294.66)" d="M0.24998 -81.5196C49.8787 -81.2985 84.5 -60 84.5 -1.90735e-06C84.5 41.1452 46.78 74.5 0.25 74.5C-62.1254 74.5 -84 60.12 -84 -1.90735e-06C-84 -71.2881 -62.1254 -81.5196 0.24998 -81.5196Z"></path>
  <clipPath id="cl_30f">
    <path d="M269.588 150.512C336.405 151.602 420.7 189.156 418.939 297.142C417.73 371.193 348.739 433.316 264.996 431.95C152.735 430.118 113.913 400.395 115.679 292.194C117.772 163.892 178.307 149.022 269.588 150.512Z"></path>
  </clipPath>
  <g clip-path="url(#cl_30f)">
    <path fill="#A6B8EF" transform="matrix(0.805953 0.0131497 -0.0151654 0.929491 321.153 259.539)" d="M0.249972 -81.5196C49.8787 -81.2985 84.5 -60 84.5 2.38419e-07C84.5 41.1452 67.1354 74.5 20.6054 74.5C-41.77 74.5 -84 60.12 -84 2.38419e-07C-84 -71.2881 -62.1254 -81.5197 0.249972 -81.5196Z"></path>
    <path fill="#C1CBE8" transform="matrix(0.197995 -0.202726 0.445703 0.435301 344.253 210.689)" d="M11.5671 -77.0972C58.097 -77.0972 97.5959 -41.1452 97.5959 -2.05241e-05C97.5959 41.1452 73.4187 83.0524 26.8888 83.0524C-35.4867 83.0524 11.8086 60.12 11.8086 -1.92457e-05C11.8086 -41.1452 -34.9629 -77.0972 11.5671 -77.0972Z"></path>
    <path fill="#C1CBE8" transform="matrix(0.197995 -0.202726 0.184201 0.179903 388.695 275.045)" d="M48.93 -79.7642C80.6763 -79.0529 77.4946 -42.8888 62.8508 4.00568C48.2069 50.9002 -0.0393895 91.2964 -20.4536 67.777C-40.8678 44.2577 -16.8141 31.8032 -0.458961 -5.13878C15.8962 -42.0808 17.1838 -80.4755 48.93 -79.7642Z"></path>
  </g>
  <path fill="#91A8EB" transform="matrix(1.37947 2.85496e-09 -2.85496e-09 1.37947 210.879 346.868)" d="M55.1482 -2.03291C73.37 -1.67323 86.9869 -2.19615 86.4191 49.2944C85.7423 74.7734 77.9738 89.2123 67.4596 88.8558C56.9454 88.4993 48.3058 88.529 37.9723 88.5225C27.5925 88.4427 20.35 71.6091 21.0268 46.1301C21.3271 -7.57033 36.9263 -2.39262 55.1482 -2.03291Z"></path>
  <path fill="#91A8EB" transform="matrix(1.79976 0.0293645 -0.0293645 1.79976 225.407 135.915)" d="M1.90735e-06 -22.5C14.6355 -22.5 26.5 -12.3145 26.5 0.25C26.5 12.8145 14.6355 23 1.90735e-06 23C-14.6355 23 -26.5 12.8145 -26.5 0.25C-26.5 -12.3145 -14.6355 -22.5 1.90735e-06 -22.5Z"></path>
  <path fill="none" stroke="black" stroke-width="7" stroke-linecap="round" stroke-linejoin="round" transform="matrix(2.15345 4.45679e-09 -4.42021e-09 2.13577 150.672 303.159)" d="M28.5774 -32.9829C30.3988 -28.376 33.1034 -21.4179 37.0026 -10.1128C48.6395 15.6331 62.9012 29.9896 42.4811 45.0171C29.6022 54.3693 -2.29322 39.0304 -13.9664 13.2038C-22.7351 -10.6047 -17.2843 -36.0431 -7.28107 -50.1056"></path>
  <path fill="#6C88D9" transform="matrix(2.15345 4.45679e-09 -4.42021e-09 2.13577 150.672 303.159)" d="M10.2709 -61.0211C14.7135 -57.6031 24.6473 -44.6701 25.6516 -40.8752C26.6558 -37.0804 29.7792 -31.0558 37.0026 -10.1128C48.6395 15.6331 62.9012 29.9896 42.4811 45.0171C29.6022 54.3693 -2.29322 39.0304 -13.9664 13.2038C-27.2017 -22.732 -8.04194 -62.3812 10.2709 -61.0211Z"></path>
  <path fill="#91A8EB" transform="matrix(1.67686 3.47045e-09 -4.32784e-09 2.09114 154.662 297.446)" d="M11.5073 -54.6121C33.0953 -58.6524 32.6701 -34.6586 37.0457 -8.9029C45.9445 17.6626 67.1021 33.2548 55.55 41.4985C43.998 49.7422 4.22512 35.9818 -11.7185 11.2585C-25.9351 -17.2038 -10.0808 -50.5718 11.5073 -54.6121Z"></path>
  <path fill="#312F2F" transform="matrix(0.53457 -0.0978921 0.116723 0.637401 255.721 357.788)" d="M-3.8147e-06 -128C70.6924 -128 128 -70.6925 128 -1.52588e-05C128 70.6924 70.6924 128 -3.8147e-06 128C-70.6925 128 -128 70.6924 -128 -1.52588e-05C-128 -70.6925 -70.6925 -128 -3.8147e-06 -128Z"></path>
  <path fill="none" stroke="black" stroke-width="7" stroke-miterlimit="4" transform="translate(256 256)" d="M-3.10924 17.9826C34.6808 11.0624 72.0048 41.9803 80.2562 87.0398C88.5077 132.099 64.5619 174.237 26.7718 181.157C-11.0183 188.077 -48.3423 157.16 -56.5937 112.1C-64.8451 67.0407 -40.8993 24.9029 -3.10924 17.9826Z"></path>
  <path fill="none" stroke="black" stroke-width="7" stroke-linejoin="round" transform="translate(256 256)" d="M-3.10924 17.9826C-3.10924 17.9826 -12.7985 19.757 -14.7523 20.1148C-45.2518 26.5588 -79.8773 53.3041 -68.7043 114.318C-57.5313 175.332 -8.86032 187.682 14.6612 183.375C16.615 183.017 26.7718 181.157 26.7718 181.157C26.2235 181.258 25.6303 181.342 24.9954 181.409"></path>
  <path fill="#DEDEDE" transform="matrix(0.53457 -0.0978921 0.116723 0.637401 267.831 355.57)" d="M-3.8147e-06 -128C70.6924 -128 128 -70.6925 128 0C128 70.6925 70.6924 128 -3.8147e-06 128C-70.6925 128 -128 70.6925 -128 0C-128 -70.6925 -70.6925 -128 -3.8147e-06 -128Z"></path>
  <clipPath id="cl_312">
    <path d="M252.891 273.983C290.681 267.062 328.005 297.98 336.256 343.04C344.508 388.099 320.562 430.237 282.772 437.157C244.982 444.077 207.658 413.16 199.406 368.1C191.155 323.041 215.101 280.903 252.891 273.983Z"></path>
  </clipPath>
  <g clip-path="url(#cl_312)">
    <path fill="#F2F1F1" transform="matrix(0.543179 0.117584 -0.0659243 0.634064 267.954 384.917)" d="M-170.753 -28.5017L169.944 -28.5017L169.944 28.5017L-170.753 28.5017L-170.753 -28.5017Z"></path>
    <path fill="#F2F1F1" transform="matrix(0.543179 0.117584 -0.0659243 0.634064 264.398 409.23)" d="M-170.753 -5.22016L169.944 -5.22016L169.944 5.22016L-170.753 5.22016L-170.753 -5.22016Z"></path>
  </g>
  <path fill="#8B8B8B" transform="matrix(0.53457 -0.0978921 0.116723 0.637401 271.189 354.296)" d="M0.249998 -87.5C51.4744 -87.5 93 -48.4368 93 -0.25C93 47.9368 51.4744 87 0.249998 87C-50.9744 87 -92.5 47.9368 -92.5 -0.25C-92.5 -48.4368 -50.9744 -87.5 0.249998 -87.5Z"></path>
  <path fill="#B0AFAF" transform="matrix(0.53457 -0.0978921 0.116723 0.637401 267.831 355.57)" d="M-3.8147e-06 -86C47.4965 -86 86 -47.4965 86 0C86 47.4965 47.4965 86 -3.8147e-06 86C-47.4965 86 -86 47.4965 -86 0C-86 -47.4965 -47.4965 -86 -3.8147e-06 -86Z"></path>
  <path fill="#8B8B8B" transform="matrix(0.53457 -0.0978921 0.116723 0.637401 267.632 352.971)" d="M-52.3281 27.625L-52.3281 -27.668L-46.756 -30.4056L-46.7825 24.7561L-42.4192 24.6238L-47.1315 27.6684L-52.3281 27.625ZM-50.25 21.3164C-54.7526 21.3164 -58.6058 20.4196 -61.8096 18.626C-65.0133 16.8324 -67.4626 14.3337 -69.1572 11.1299C-70.8519 7.92611 -71.6992 4.19662 -71.6992 -0.0585938C-71.6992 -4.3138 -70.8519 -8.0433 -69.1572 -11.2471C-67.4626 -14.4508 -65.0133 -16.9495 -61.8096 -18.7432C-58.6058 -20.5368 -54.7526 -21.4336 -50.25 -21.4336C-47.3802 -21.4336 -44.7826 -21.0625 -42.457 -20.3203C-40.1315 -19.5781 -38.109 -18.5205 -36.3896 -17.1475C-34.6702 -15.7744 -27.78 -10.4693 -25.0591 -8.68546C-26.0599 -7.96244 -28.21 -6.9054 -30.3965 -5.66211C-30.3965 -5.66211 -44.0898 -3.62109 -44.0898 -3.62109C-44.0898 -3.62109 -44.5166 -5.6683 -44.8506 -6.49707C-45.1846 -7.32584 -45.599 -8.02474 -46.0938 -8.59375C-46.5885 -9.16276 -47.1637 -9.58952 -47.8193 -9.87402C-48.4749 -10.1585 -49.2109 -10.3008 -50.0273 -10.3008C-51.3385 -10.3008 -52.4766 -9.92969 -53.4414 -9.1875C-54.4062 -8.44531 -55.1546 -7.31966 -55.6865 -5.81055C-56.2184 -4.30143 -56.4844 -2.40885 -56.4844 -0.132812C-56.4844 2.11849 -56.2184 4.01107 -55.6865 5.54492C-55.1546 7.07878 -54.4062 8.23535 -53.4414 9.01465C-52.4766 9.79395 -51.3385 10.1836 -50.0273 10.1836C-49.2109 10.1836 -48.4749 10.0352 -47.8193 9.73828C-47.1637 9.44141 -46.5824 9.00228 -46.0752 8.4209C-45.568 7.83952 -45.8968 6.99338 -44.8135 6.25C-43.7302 5.50662 -38.8902 1.52308 -38.7417 0.409798C-38.7417 0.409798 -30.3965 5.28516 -30.3965 5.28516C-30.3965 5.28516 -31.2747 9.97949 -32.2891 11.9463C-33.3034 13.9131 -34.6641 15.5954 -36.3711 16.9932C-38.0781 18.3909 -40.1006 19.4609 -42.4385 20.2031C-44.7764 20.9453 -47.3802 21.3164 -50.25 21.3164ZM-24.5332 27.625L-24.5332 16.8633L-3.90039 -0.207031C-3.90039 -0.207031 -1.36459 -2.41504 -0.375004 -3.41699C0.61458 -4.41895 1.37532 -5.45182 1.90722 -6.51562C2.43912 -7.57943 2.70507 -8.76693 2.70507 -10.0781C2.70507 -11.4883 2.40201 -12.6943 1.79589 -13.6963C1.18978 -14.6982 0.360998 -15.4714 -0.690434 -16.0156C-1.74187 -16.5599 -2.96029 -16.832 -4.34571 -16.832C-5.73112 -16.832 -6.94955 -16.5537 -8.00098 -15.9971C-9.05241 -15.4404 -6.2922 -13.7058 -5.86801 -12.6284C-7.10779 -11.907 -9.37628 -10.5827 -11.3223 -9.63281C-11.3223 -9.63281 -25.5723 -9.63281 -25.5723 -9.63281C-25.5723 -9.63281 -24.7002 -16.8568 -22.9561 -19.6523C-21.2119 -22.4479 -18.7441 -24.6064 -15.5527 -26.1279C-12.3613 -27.6494 -8.62565 -28.4102 -4.34571 -28.4102C0.0826778 -28.4102 3.91732 -27.7051 7.1582 -26.2949C10.3991 -24.8848 12.904 -22.8994 14.6728 -20.3389C16.4417 -17.7783 17.3262 -14.7786 17.3262 -11.3398C17.3262 -9.21224 16.887 -7.10319 16.0088 -5.0127C15.1305 -2.9222 13.5534 -0.602865 11.2773 1.94531C9.0013 4.49349 5.74804 7.51172 1.51757 11C1.51757 11 -3.67774 15.3047 -3.67774 15.3047L-3.67774 15.6758L17.9199 15.6758L23.3601 24.6527L17.9199 27.625L-24.5332 27.625ZM45.3066 28.3672C41.0514 28.3672 37.2786 27.6188 33.9883 26.1221C30.6979 24.6253 28.1126 22.5534 26.2324 19.9062C24.3522 17.2591 23.3874 14.2161 23.3379 10.7773C23.3379 10.7773 28.8025 7.82547 28.8025 7.82547L37.959 10.7773C37.959 10.7773 38.293 13.14 38.9609 14.0801C39.6289 15.0202 40.5195 15.7438 41.6328 16.251C42.7461 16.7581 43.9707 17.0117 45.3066 17.0117C46.8405 17.0117 48.1826 16.6839 49.333 16.0283C50.4834 15.3727 51.3864 14.4512 52.042 13.2637C52.6976 12.0762 53.0254 10.6784 53.0254 9.07031C53.0254 7.4375 52.6976 6.02116 52.042 4.82129C51.3864 3.62142 50.4834 2.69369 49.333 2.03809C48.1826 1.38249 46.8405 1.05469 45.3066 1.05469C43.6986 1.05469 43.4423 2.31534 43.4423 2.31534C43.4423 2.31534 38.6022 4.02344 37.959 5.35938C37.959 5.35938 24.748 2.76172 24.748 2.76172L26.9004 -27.668L32.366 -30.6324L64.084 -27.668L69.5014 -18.6129L64.084 -15.6445L39.2207 -15.6445L38.1816 -3.47266L38.4785 -3.47266C38.4785 -3.47266 40.8411 -6.54037 42.9688 -7.62891C45.0964 -8.71745 47.5579 -9.26172 50.3535 -9.26172C52.8027 -9.26172 55.0726 -8.82877 57.1631 -7.96289C59.2536 -7.097 61.0719 -5.86621 62.6182 -4.27051C64.1644 -2.6748 65.3643 -0.782227 66.2178 1.40723C67.0713 3.59668 67.498 6.0026 67.498 8.625C67.498 12.4844 66.5827 15.8984 64.752 18.8672C62.9212 21.8359 60.3421 24.1615 57.0146 25.8438C53.6872 27.526 49.7845 28.3672 45.3066 28.3672Z"></path>
  <path fill="#DEDEDE" transform="matrix(0.53457 -0.0978921 0.116723 0.637401 269.838 349.932)" d="M-51.8282 28.625L-51.8282 -26.668L-47.375 -26.668L-47.375 28.625L-51.8282 28.625ZM-49.75 22.3164C-54.2526 22.3164 -58.1058 21.4196 -61.3096 19.626C-64.5134 17.8324 -66.9626 15.3337 -68.6573 12.1299C-70.3519 8.92612 -71.1993 5.19663 -71.1993 0.941422C-71.1993 -3.31379 -70.3519 -7.04328 -68.6573 -10.2471C-66.9626 -13.4508 -64.5134 -15.9495 -61.3096 -17.7431C-58.1058 -19.5368 -54.2526 -20.4336 -49.75 -20.4336C-46.8802 -20.4336 -44.2826 -20.0625 -41.9571 -19.3203C-39.6315 -18.5781 -37.6091 -17.5205 -35.8897 -16.1474C-34.1703 -14.7744 -32.8034 -13.1168 -31.7891 -11.1748C-30.7748 -9.23273 -30.1439 -7.06184 -29.8965 -4.66209C-29.8965 -4.66209 -43.5899 -2.62108 -43.5899 -2.62108C-43.5899 -2.62108 -44.0166 -4.66828 -44.3506 -5.49706C-44.6846 -6.32583 -45.099 -7.02473 -45.5938 -7.59373C-46.0886 -8.16274 -46.6638 -8.5895 -47.3194 -8.87401C-47.975 -9.15852 -48.711 -9.30077 -49.5274 -9.30077C-50.8386 -9.30077 -51.9766 -8.92967 -52.9414 -8.18748C-53.9063 -7.4453 -54.6547 -6.31965 -55.1866 -4.81053C-55.7185 -3.30142 -55.9844 -1.40884 -55.9844 0.867203C-55.9844 3.11851 -55.7185 5.01108 -55.1866 6.54494C-54.6547 8.07879 -53.9063 9.23537 -52.9414 10.0147C-51.9766 10.794 -50.8386 11.1836 -49.5274 11.1836C-48.711 11.1836 -47.975 11.0352 -47.3194 10.7383C-46.6638 10.4414 -46.0824 10.0023 -45.5752 9.42091C-45.0681 8.83953 -44.6475 8.1159 -44.3135 7.25002C-43.9795 6.38413 -43.7383 5.39455 -43.5899 4.28127C-43.5899 4.28127 -29.8965 6.28517 -29.8965 6.28517C-29.8965 6.28517 -30.7748 10.9795 -31.7891 12.9463C-32.8034 14.9131 -34.1641 16.5954 -35.8711 17.9932C-37.5782 19.391 -39.6006 20.461 -41.9385 21.2031C-44.2764 21.9453 -46.8802 22.3164 -49.75 22.3164ZM-24.0332 28.625L-24.0332 17.8633L-3.4004 0.792953C-3.4004 0.792953 -0.864595 -1.41505 0.124989 -2.41701C1.11457 -3.41896 1.87531 -4.45184 2.40722 -5.51564C2.93912 -6.57944 3.20507 -7.76694 3.20507 -9.07814C3.20507 -10.4883 2.90201 -11.6944 2.29589 -12.6963C1.68977 -13.6983 0.860991 -14.4714 -0.190441 -15.0156C-1.24187 -15.5599 -2.4603 -15.832 -3.84571 -15.832C-5.23113 -15.832 -6.44956 -15.5537 -7.50099 -14.9971C-8.55242 -14.4404 -9.36883 -13.6302 -9.95021 -12.5664C-10.5316 -11.5026 -10.8223 -10.1914 -10.8223 -8.63283C-10.8223 -8.63283 -25.0723 -8.63283 -25.0723 -8.63283C-25.0723 -8.63283 -24.2002 -15.8568 -22.4561 -18.6524C-20.7119 -21.4479 -18.2442 -23.6065 -15.0527 -25.1279C-11.8613 -26.6494 -8.12566 -27.4102 -3.84571 -27.4102C0.58267 -27.4102 4.41731 -26.7051 7.65819 -25.2949C10.8991 -23.8848 13.404 -21.8994 15.1728 -19.3389C16.9417 -16.7783 17.8262 -13.7787 17.8262 -10.3399C17.8262 -8.21226 17.387 -6.1032 16.5088 -4.01271C15.6305 -1.92222 14.0534 0.39712 11.7773 2.9453C9.50129 5.49347 6.24804 8.5117 2.01757 12C2.01757 12 -3.17775 16.3047 -3.17775 16.3047L-3.17775 16.6758L18.4199 16.6758L18.4199 28.625L-24.0332 28.625ZM45.8066 29.3672C41.5514 29.3672 37.7786 28.6188 34.4883 27.1221C31.1979 25.6253 28.6126 23.5534 26.7324 20.9062C24.8522 18.2591 23.8874 15.2161 23.8379 11.7773C23.8379 11.7773 38.459 11.7773 38.459 11.7773C38.459 11.7773 38.793 14.14 39.4609 15.0801C40.1289 16.0202 41.0195 16.7438 42.1328 17.251C43.2461 17.7581 44.4707 18.0117 45.8066 18.0117C47.3405 18.0117 48.6826 17.6839 49.833 17.0283C50.9834 16.3727 51.8864 15.4512 52.542 14.2637C53.1976 13.0762 53.5254 11.6784 53.5254 10.0703C53.5254 8.4375 53.1976 7.02116 52.542 5.82129C51.8864 4.62142 50.9834 3.69369 49.833 3.03809C48.6826 2.38249 47.3405 2.05469 45.8066 2.05469C44.1986 2.05469 42.7327 2.43815 41.4092 3.20508C40.0856 3.97201 39.1022 5.02344 38.459 6.35938C38.459 6.35938 25.248 3.76172 25.248 3.76172L27.4004 -26.668L64.584 -26.668L64.584 -14.6445L39.7207 -14.6445L38.6816 -2.47266L38.9785 -2.47266C38.9785 -2.47266 41.3411 -5.54037 43.4687 -6.62891C45.5964 -7.71745 48.0579 -8.26172 50.8535 -8.26172C53.3027 -8.26172 55.5726 -7.82877 57.6631 -6.96289C59.7536 -6.097 61.5719 -4.86621 63.1182 -3.27051C64.6644 -1.6748 65.8643 0.217773 66.7178 2.40723C67.5713 4.59668 67.998 7.0026 67.998 9.625C67.998 13.4844 67.0827 16.8984 65.252 19.8672C63.4212 22.8359 60.8421 25.1615 57.5146 26.8438C54.1872 28.526 50.2845 29.3672 45.8066 29.3672Z"></path>
  <clipPath id="cl_314">
    <path d="M245.473 373.251L239.019 338.008L241.4 337.572L247.854 372.816L245.473 373.251ZM245.848 369.027C243.441 369.468 241.276 369.273 239.354 368.444C237.432 367.614 235.831 366.261 234.551 364.385C233.271 362.509 232.383 360.215 231.887 357.502C231.39 354.79 231.407 352.33 231.939 350.122C232.471 347.914 233.489 346.081 234.992 344.625C236.496 343.168 238.451 342.219 240.858 341.778C242.392 341.497 243.824 341.479 245.154 341.725C246.483 341.97 247.688 342.446 248.767 343.153C249.847 343.86 250.771 344.783 251.54 345.921C252.309 347.06 252.899 348.382 253.312 349.887C253.312 349.887 246.23 352.529 246.23 352.529C246.23 352.529 245.763 351.266 245.487 350.77C245.212 350.275 244.909 349.87 244.578 349.555C244.247 349.241 243.89 349.025 243.506 348.908C243.123 348.791 242.713 348.772 242.276 348.852C241.575 348.981 241.01 349.329 240.581 349.896C240.152 350.464 239.883 351.254 239.775 352.268C239.667 353.282 239.746 354.515 240.011 355.966C240.274 357.401 240.637 358.581 241.1 359.506C241.564 360.432 242.099 361.096 242.706 361.498C243.312 361.901 243.966 362.037 244.667 361.909C245.104 361.829 245.48 361.663 245.796 361.409C246.111 361.156 246.371 360.819 246.574 360.399C246.777 359.978 246.918 359.476 246.995 358.891C247.073 358.307 247.086 357.652 247.036 356.928C247.036 356.928 254.589 356.865 254.589 356.865C254.589 356.865 254.668 359.943 254.355 361.296C254.043 362.649 253.512 363.855 252.762 364.913C252.013 365.971 251.057 366.851 249.893 367.553C248.73 368.255 247.382 368.746 245.848 369.027ZM260.331 370.531L259.075 363.671L268.112 350.771C268.112 350.771 269.21 349.115 269.622 348.38C270.034 347.644 270.32 346.911 270.481 346.181C270.641 345.451 270.644 344.668 270.491 343.832C270.327 342.933 270.024 342.194 269.583 341.615C269.142 341.036 268.609 340.624 267.983 340.38C267.358 340.136 266.674 340.082 265.934 340.217C265.193 340.353 264.574 340.65 264.077 341.107C263.58 341.565 263.238 342.162 263.052 342.897C262.865 343.632 262.863 344.496 263.045 345.489C263.045 345.489 255.427 346.884 255.427 346.884C255.427 346.884 255.05 342.194 255.656 340.242C256.262 338.289 257.329 336.672 258.858 335.389C260.386 334.107 262.294 333.257 264.582 332.838C266.95 332.404 269.082 332.478 270.979 333.06C272.876 333.641 274.447 334.661 275.691 336.12C276.936 337.579 277.759 339.405 278.16 341.597C278.408 342.953 278.42 344.34 278.194 345.759C277.969 347.177 277.396 348.81 276.477 350.657C275.558 352.504 274.171 354.746 272.317 357.384C272.317 357.384 270.042 360.636 270.042 360.636L270.085 360.873L281.631 358.758L283.026 366.375L260.331 370.531ZM297.752 364.167C295.478 364.583 293.373 364.476 291.44 363.844C289.506 363.212 287.882 362.144 286.568 360.641C285.254 359.138 284.383 357.293 283.955 355.106C283.955 355.106 291.771 353.674 291.771 353.674C291.771 353.674 292.226 355.148 292.692 355.681C293.159 356.215 293.72 356.589 294.374 356.804C295.028 357.018 295.713 357.06 296.427 356.929C297.247 356.779 297.926 356.438 298.464 355.908C299.003 355.377 299.378 354.702 299.59 353.881C299.802 353.059 299.814 352.136 299.626 351.111C299.436 350.071 299.095 349.2 298.604 348.499C298.114 347.799 297.523 347.296 296.831 346.991C296.14 346.685 295.384 346.608 294.564 346.758C293.705 346.915 292.966 347.303 292.348 347.922C291.73 348.54 291.327 349.306 291.139 350.221C291.139 350.221 283.774 349.858 283.774 349.858L281.372 330.252L301.25 326.612L302.653 334.276L289.362 336.71L290.227 344.57L290.386 344.541C290.386 344.541 291.291 342.354 292.301 341.452C293.311 340.55 294.564 339.962 296.058 339.688C297.367 339.448 298.631 339.502 299.85 339.849C301.068 340.197 302.184 340.803 303.197 341.669C304.21 342.535 305.072 343.624 305.784 344.936C306.496 346.248 307.005 347.739 307.311 349.411C307.761 351.871 307.67 354.137 307.038 356.208C306.406 358.28 305.299 360.014 303.717 361.412C302.134 362.81 300.146 363.729 297.752 364.167Z"></path>
  </clipPath>
  <g clip-path="url(#cl_314)">
    <path fill="#F2F1F1" transform="matrix(0.543179 0.117584 -0.0659243 0.634064 267.954 384.917)" d="M-170.753 -28.5017L169.944 -28.5017L169.944 28.5017L-170.753 28.5017L-170.753 -28.5017Z"></path>
  </g>
  <path fill="#8E8B8B" transform="matrix(0.637401 -0.116723 0.116723 0.637401 252.891 273.983)" d="M-4.76837e-07 1.90735e-06C-4.76837e-07 1.90735e-06 -15.2012 1.90735e-06 -18.2664 1.14441e-05C-66.3551 1.30371 -126.35 32.2772 -126.35 128C-126.35 223.723 -55.9022 256 -19 256C-15.9348 256 0 256 3.8147e-06 256C-25.5438 256 -107.35 223.723 -107.35 128C-107.35 32.2772 -25.5439 5.72205e-06 -4.76837e-07 1.90735e-06Z"></path>
  <clipPath id="cl_316">
    <path d="M252.891 273.983C252.891 273.983 243.202 275.757 241.248 276.115C210.748 282.559 176.123 309.304 187.296 370.318C198.469 431.332 247.14 443.682 270.661 439.375C272.615 439.017 282.772 437.157 282.772 437.157C266.49 440.139 210.579 429.114 199.406 368.1C188.233 307.086 236.609 276.964 252.891 273.983Z"></path>
  </clipPath>
  <g clip-path="url(#cl_316)">
    <path fill="#ACABAB" transform="matrix(0.53457 -0.0978921 0.116723 0.637401 229.67 399.713)" d="M-105.5 -40.8039L105 -40.8039L105 40.8039L-105.5 40.8039L-105.5 -40.8039Z"></path>
    <path fill="#D6D6D6" transform="matrix(0.53457 -0.0978921 0.116723 0.637401 224.764 395.407)" d="M-105.5 -7.02946L105 -7.02946L105 7.02946L-105.5 7.02946L-105.5 -7.02946Z"></path>
    <path fill="#D6D6D6" transform="matrix(0.53609 -0.0981705 0.116392 0.635593 241.952 363.603)" d="M-137.32 -30.4789L136.67 -30.4789L136.67 30.4789L-137.32 30.4789L-137.32 -30.4789Z"></path>
  </g>
  <path fill="#91A8EB" transform="matrix(0.606874 0.00990163 -0.00990163 0.606874 198.725 103.192)" d="M7.62939e-06 -22.5C14.6356 -22.5 26.5 -12.3145 26.5 0.250015C26.5 12.8145 14.6356 23 7.62939e-06 23C-14.6355 23 -26.5 12.8145 -26.5 0.250015C-26.5 -12.3145 -14.6355 -22.5 7.62939e-06 -22.5Z"></path>
  <path fill="#91A8EB" transform="matrix(0.504938 0.00823846 -0.00823846 0.504938 183.274 113.89)" d="M-4.23752e-08 -22.5C14.6355 -22.5 26.5 -12.3144 26.5 0.25003C26.5 12.8145 14.6355 23 4.23752e-08 23C-14.6355 23 -26.5 12.8145 -26.5 0.250031C-26.5 -12.3144 -14.6355 -22.5 -4.23752e-08 -22.5Z"></path>
  <path fill="#91A8EB" transform="matrix(0.274279 0.00447507 -0.00447507 0.274279 164.405 81.1033)" d="M0 -22.4262C14.2962 -22.4262 25.8855 -12.2741 25.8855 0.249207C25.8855 12.7725 14.2962 22.9246 0 22.9246C-14.2962 22.9246 -25.8855 12.7725 -25.8855 0.249207C-25.8855 -12.2741 -14.2962 -22.4262 0 -22.4262Z"></path>
  <path fill="#C1CBE8" transform="matrix(0.073816 -0.11483 0.26388 0.16963 160.717 78.3976)" d="M-6.10352e-05 -11.5C14.6355 -11.5 28.006 -7.98328 28.006 -1.63201C28.006 4.71926 15.5058 0.400185 0.870295 0.400186C-13.7652 0.400185 -26.7661 4.37689 -26.7661 -1.97439C-26.7661 -8.32566 -14.6356 -11.5 -6.10352e-05 -11.5Z"></path>
  <path fill="#C1CBE8" transform="matrix(-0.166841 -0.570472 0.880441 -0.257495 183.253 140.16)" d="M0 -11.5C14.6355 -11.5 28.0061 -7.98328 28.0061 -1.632C28.0061 4.71927 15.5059 0.40019 0.870357 0.40019C-13.7652 0.400188 -26.766 4.37689 -26.766 -1.97438C-26.766 -8.32566 -14.6355 -11.5 0 -11.5Z"></path>
  <path fill="#1B2B56" transform="matrix(1.78669 -0.21848 0.065544 0.536007 233.902 118.065)" d="M-9.31323e-09 -2.5C1.38071 -2.5 2.5 -1.38071 2.5 0C2.5 1.38071 1.38071 2.5 9.31323e-09 2.5C-1.38071 2.5 -2.5 1.38071 -2.5 0C-2.5 -1.38071 -1.38071 -2.5 -9.31323e-09 -2.5Z"></path>
  <path fill="none" stroke="#1B2B56" stroke-width="0.5" stroke-linecap="round" stroke-linejoin="round" transform="matrix(1.78289 -0.247598 0.247598 1.78289 242.546 116.953)" d="M1.98548 0.277981L6.02909 0.184244"></path>
  <path fill="#1B2B56" transform="matrix(1.78669 -0.21848 0.065544 0.536007 262.489 114.569)" d="M-9.31323e-09 -2.5C1.38071 -2.5 2.5 -1.38071 2.5 0C2.5 1.38071 1.38071 2.5 9.31323e-09 2.5C-1.38071 2.5 -2.5 1.38071 -2.5 0C-2.5 -1.38071 -1.38071 -2.5 -9.31323e-09 -2.5Z"></path>
  <path fill="#354B89" transform="matrix(1.46507 -0.885005 0.929571 0.72522 254.267 107.637)" d="M0 -2.5C1.38071 -2.5 2.5 -1.38071 2.5 1.49012e-07C2.5 1.38071 1.38071 2.5 0 2.5C-1.38071 2.5 -2.5 1.38071 -2.5 -1.49012e-07C-2.5 -1.38071 -1.38071 -2.5 0 -2.5Z"></path>
  <path fill="#354B89" transform="matrix(2.16254 0.296937 -0.629837 1.0733 238.294 108.577)" d="M0 -2.98532C1.68306 -2.98532 3.04744 -1.64874 3.04744 1.5168e-05C3.04744 1.64877 1.68306 2.98535 0 2.98535C-1.68306 2.98535 -3.04744 1.64877 -3.04744 1.53496e-05C-3.04744 -1.64874 -1.68306 -2.98532 0 -2.98532Z"></path>
  <path fill="none" stroke="white" stroke-width="5" stroke-linecap="round" stroke-linejoin="round" transform="matrix(1.5 0 0 1.5 158.539 362.24)" d=""></path>
</svg>