<?xml version="1.0" encoding="utf-8"?>
<svg xmlns="http://www.w3.org/2000/svg" xmlns:xlink="http://www.w3.org/1999/xlink" width="512" height="512">
  <path fill="none" stroke="black" stroke-width="7" stroke-linejoin="round" transform="matrix(1.8 3.72529e-09 -3.72529e-09 1.8 210.879 409.868)" d="M29.6122 -46.642C46.7055 -52.9652 69.9357 -43.3244 75.0421 2.68956C69.8055 34.2794 51.6501 47.5962 42.072 43.2447C32.4939 38.8931 24.5002 35.6154 14.9551 31.6565C5.36083 27.4815 11.6254 22.2442 16.4583 0.0904083C10.3781 -38.3045 12.5188 -40.3187 29.6122 -46.642Z"></path>
  <path fill="none" stroke="black" stroke-width="7" stroke-linejoin="round" transform="matrix(-2.15345 -3.29802e-07 -3.27096e-07 2.13577 356.401 286.786)" d="M19.0586 -57.7392C22.0875 -53.0042 27.0803 -37.4401 26.7481 -33.5268C26.4159 -29.6136 30.1464 -20.3939 27.0759 3.77796C23.7353 32.4708 17.6121 55.164 -7.51444 52.3528C-23.2775 50.487 -32.9541 25.761 -29.6135 -2.93193C-25.4253 -38.9045 2.28954 -65.2831 19.0586 -57.7392Z"></path>
  <path fill="none" stroke="black" stroke-width="7" stroke-linejoin="round" transform="matrix(1.79976 0.0293645 -0.0293645 1.79976 266.695 287.952)" d="M0.209625 -80.0966C37.3348 -80.0966 84.5 -60 84.5 0C84.5 41.1452 46.7396 76.2788 0.209625 76.2788C-62.1658 76.2788 -84 60.12 -84 0C-84 -71.2881 -50.5087 -80.0966 0.209625 -80.0966Z"></path>
  <path fill="none" stroke="black" stroke-width="7" stroke-linejoin="round" transform="matrix(1.53671 3.18039e-09 -3.72529e-09 1.8 308.979 398.168)" d="M-33.952 -47.1358C-15.7269 -47.2287 -0.306118 -40.3983 -0.150105 9.17612C0.330326 23.0255 -5.7803 46.7608 -19.4578 46.6465C-33.1354 46.5322 -39.2707 46.481 -51.4722 46.379C-63.6736 46.2771 -65.6685 23.3618 -66.1489 9.51245C-66.631 -42.2511 -52.1771 -47.0429 -33.952 -47.1358Z"></path>
  <path fill="#6C88D9" transform="matrix(-2.15345 -3.29802e-07 -3.27096e-07 2.13577 356.401 286.786)" d="M19.0586 -57.7392C22.0875 -53.0042 27.0803 -37.4401 26.7481 -33.5268C26.4159 -29.6136 30.1464 -20.3939 27.0759 3.77796C23.7353 32.4708 17.6121 55.164 -7.51444 52.3528C-23.2775 50.487 -32.9541 25.761 -29.6135 -2.93193C-25.4253 -38.9045 2.28954 -65.2831 19.0586 -57.7392Z"></path>
  <path fill="#5170C8" transform="matrix(1.53671 3.18039e-09 -3.72529e-09 1.8 308.979 398.168)" d="M-33.952 -47.1358C-15.7269 -47.2287 -0.306118 -40.3983 -0.150105 9.17612C0.330326 23.0255 -5.7803 46.7608 -19.4578 46.6465C-33.1354 46.5322 -39.2707 46.481 -51.4722 46.379C-63.6736 46.2771 -65.6685 23.3618 -66.1489 9.51245C-66.631 -42.2511 -52.1771 -47.0429 -33.952 -47.1358Z"></path>
  <path fill="#839BE0" transform="matrix(1.20328 2.49031e-09 -2.91698e-09 1.40944 308.979 398.168)" d="M-43.2714 -47.4903C-25.0463 -47.5832 -10.1767 -40.6664 -9.86227 13.3998C-10.2438 31.3317 -19.1222 46.437 -32.7998 46.3227C-46.4773 46.2084 -46.3031 46.2604 -58.5045 46.1585C-70.706 46.0565 -76.2427 31.6681 -75.8611 13.7361C-76.5018 -42.5192 -61.4965 -47.3974 -43.2714 -47.4903Z"></path>
  <path fill="#6C88D9" transform="matrix(1.8 3.72529e-09 -3.72529e-09 1.8 210.879 409.868)" d="M29.6122 -46.642C46.7055 -52.9652 69.9357 -43.3244 75.0421 2.68956C69.8055 34.2794 51.6501 47.5962 42.072 43.2447C32.4939 38.8931 24.5002 35.6154 14.9551 31.6565C5.36083 27.4815 11.6254 22.2442 16.4583 0.0904083C10.3781 -38.3045 12.5188 -40.3187 29.6122 -46.642Z"></path>
  <path fill="#91A8EB" transform="matrix(-1.67686 -2.56813e-07 -3.2026e-07 2.09114 352.411 281.073)" d="M20.6444 -51.366C42.6614 -49.2934 32.1961 -25.278 26.4141 2.96574C20.6321 31.2094 5.42195 53.2913 -9.93657 51.8456C-25.2951 50.3998 -33.977 26.1415 -29.8014 -2.38146C-25.6259 -30.9044 -1.37267 -53.4385 20.6444 -51.366Z"></path>
  <path fill="none" stroke="black" stroke-width="7" stroke-miterlimit="4" transform="matrix(1.79976 0.0293645 -0.0293645 1.79976 225.244 129.056)" d="M0 -29.5C19.0538 -29.5 34.5 -16.1805 34.5 0.250008C34.5 16.6805 19.0538 30 0 30C-19.0538 30 -34.5 16.6805 -34.5 0.250008C-34.5 -16.1805 -19.0538 -29.5 0 -29.5Z"></path>
  <path fill="#6C88D9" transform="matrix(1.79976 0.0293645 -0.0293645 1.79976 266.695 287.952)" d="M0.209625 -80.0966C37.3348 -80.0966 84.5 -60 84.5 0C84.5 41.1452 46.7396 76.2788 0.209625 76.2788C-62.1658 76.2788 -84 60.12 -84 0C-84 -71.2881 -50.5087 -80.0966 0.209625 -80.0966Z"></path>
  <path fill="none" stroke="black" stroke-width="9" stroke-miterlimit="4" transform="translate(256 256)" d="M-57.0655 -184.761C-42.2829 -184.519 -30.4679 -173.99 -30.6759 -161.243C-30.8838 -148.496 -43.0361 -138.357 -57.8187 -138.599C-72.6013 -138.84 -84.4164 -149.369 -84.2084 -162.116C-84.0004 -174.864 -71.8481 -185.002 -57.0655 -184.761Z"></path>
  <path fill="none" stroke="black" stroke-width="9" stroke-miterlimit="4" transform="translate(256 256)" d="M-72.5785 -169.848C-60.279 -169.647 -50.4485 -160.887 -50.6215 -150.281C-50.7946 -139.674 -60.9056 -131.239 -73.2052 -131.44C-85.5048 -131.641 -95.3353 -140.401 -95.1622 -151.007C-94.9892 -161.614 -84.8781 -170.049 -72.5785 -169.848Z"></path>
  <path fill="none" stroke="black" stroke-width="9" stroke-miterlimit="4" transform="translate(256 256)" d="M-92.5856 -194.182C-85.9046 -194.073 -80.5648 -189.314 -80.6588 -183.553C-80.7528 -177.792 -86.245 -173.21 -92.926 -173.319C-99.6071 -173.428 -104.947 -178.187 -104.853 -183.948C-104.759 -189.709 -99.2667 -194.291 -92.5856 -194.182Z"></path>
  <path fill="#6C88D9" transform="matrix(1.79976 0.0293645 -0.0293645 1.79976 225.244 129.056)" d="M0 -29.5C19.0538 -29.5 34.5 -16.1805 34.5 0.250008C34.5 16.6805 19.0538 30 0 30C-19.0538 30 -34.5 16.6805 -34.5 0.250008C-34.5 -16.1805 -19.0538 -29.5 0 -29.5Z"></path>
  <path fill="#6C88D9" transform="matrix(0.775834 0.0126583 -0.0126583 0.775834 198.561 94.1265)" d="M7.62939e-06 -29.5C19.0538 -29.5 34.5 -16.1805 34.5 0.250015C34.5 16.6805 19.0538 30 7.62939e-06 30C-19.0538 30 -34.5 16.6805 -34.5 0.250015C-34.5 -16.1805 -19.0538 -29.5 7.62939e-06 -29.5Z"></path>
  <path fill="#6C88D9" transform="matrix(0.645518 0.0105321 -0.0105321 0.645518 183.111 105.195)" d="M7.62939e-06 -29.5C19.0538 -29.5 34.5 -16.1805 34.5 0.25C34.5 16.6805 19.0538 30 7.62939e-06 30C-19.0538 30 -34.5 16.6805 -34.5 0.25C-34.5 -16.1805 -19.0538 -29.5 7.62939e-06 -29.5Z"></path>
  <path fill="#6C88D9" transform="matrix(0.35064 0.00572097 -0.00572097 0.35064 163.246 72.1617)" d="M3.05176e-05 -29.5001C19.0539 -29.5001 34.5 -16.1805 34.5 0.249939C34.5 16.6804 19.0539 29.9999 3.05176e-05 29.9999C-19.0538 29.9999 -34.5 16.6804 -34.5 0.249939C-34.5 -16.1805 -19.0538 -29.5001 3.05176e-05 -29.5001Z"></path>
  <path fill="#91A8EB" transform="matrix(1.50913 0.0246226 -0.0246226 1.50913 265.331 287.952)" d="M0.249979 -81.5196C49.8787 -81.2985 84.5 -60 84.5 0C84.5 41.1452 46.78 74.5 0.25 74.5C-62.1254 74.5 -84 60.12 -84 0C-84 -71.2881 -62.1254 -81.5196 0.249979 -81.5196Z"></path>
  <clipPath id="cl_161">
    <path d="M269.424 143.803C336.241 144.894 420.537 182.448 418.775 290.433C417.567 364.485 348.575 426.608 264.833 425.242C152.572 423.41 113.75 393.687 115.515 285.485C117.609 157.184 178.144 142.314 269.424 143.803Z"></path>
  </clipPath>
  <g clip-path="url(#cl_161)">
    <path fill="#A6B8EF" transform="matrix(0.805953 0.0131497 -0.0151654 0.929491 320.989 252.83)" d="M0.24998 -81.5196C49.8787 -81.2985 84.5 -60 84.5 4.76837e-07C84.5 41.1452 67.1354 74.5 20.6054 74.5C-41.77 74.5 -84 60.12 -84 4.76837e-07C-84 -71.2881 -62.1254 -81.5197 0.24998 -81.5196Z"></path>
    <path fill="#C1CBE8" transform="matrix(0.197995 -0.202726 0.445703 0.435301 344.089 203.981)" d="M11.5671 -77.0972C58.0971 -77.0972 97.5959 -41.1452 97.5959 -2.43388e-05C97.5959 41.1452 73.4188 83.0524 26.8888 83.0524C-35.4866 83.0524 11.8086 60.12 11.8086 -2.30604e-05C11.8086 -41.1452 -34.9629 -77.0972 11.5671 -77.0972Z"></path>
    <path fill="#C1CBE8" transform="matrix(0.197995 -0.202726 0.184201 0.179903 388.531 268.337)" d="M48.93 -79.7642C80.6762 -79.0529 77.4946 -42.8889 62.8507 4.00565C48.2069 50.9001 -0.03942 91.2963 -20.4536 67.777C-40.8678 44.2576 -16.8141 31.8032 -0.458991 -5.13881C15.8961 -42.0808 17.1838 -80.4755 48.93 -79.7642Z"></path>
  </g>
  <path fill="#91A8EB" transform="matrix(1.37947 2.85496e-09 -2.85496e-09 1.37947 210.879 346.868)" d="M43.4896 -2.07976C60.5829 -8.40298 83.8643 -6.35037 90.2139 46.4549C89.4048 70.0844 65.9803 92.3828 56.4022 88.0312C46.8241 83.6797 38.8304 80.402 29.2854 76.443C19.7256 72.3985 28.7694 66.6839 29.5784 43.0543C22.1036 -1.98802 26.3962 4.24348 43.4896 -2.07976Z"></path>
  <path fill="#91A8EB" transform="matrix(1.79976 0.0293645 -0.0293645 1.79976 225.244 129.056)" d="M0 -22.5C14.6355 -22.5 26.5 -12.3145 26.5 0.250008C26.5 12.8145 14.6355 23 0 23C-14.6355 23 -26.5 12.8145 -26.5 0.250008C-26.5 -12.3145 -14.6355 -22.5 0 -22.5Z"></path>
  <path fill="none" stroke="black" stroke-width="7" stroke-linecap="round" stroke-linejoin="round" transform="matrix(2.15345 4.45679e-09 -4.42021e-09 2.13577 150.508 296.45)" d="M27.9705 -31.7397C29.5049 -27.0473 31.7869 -19.9686 35.044 -8.50396C45.286 17.8091 58.9481 32.7292 37.8207 46.7273C24.5017 55.4304 -6.76977 38.4014 -17.0444 12.0041C-24.5055 -12.2822 -17.6073 -37.4198 -6.80714 -50.9081"></path>
  <path fill="#6C88D9" transform="matrix(2.15345 4.45679e-09 -4.42021e-09 2.13577 150.508 296.45)" d="M11.34 -60.8017C15.578 -57.1291 24.7496 -43.6359 25.5334 -39.7886C26.3172 -35.9414 29.0042 -29.7635 35.044 -8.50396C45.286 17.8091 58.9481 32.7292 37.8207 46.7273C24.5017 55.4304 -6.76977 38.4014 -17.0444 12.0041C-28.3035 -24.6448 -6.86358 -63.2327 11.34 -60.8017Z"></path>
  <path fill="#91A8EB" transform="matrix(1.67686 3.47045e-09 -4.32784e-09 2.09114 154.498 290.737)" d="M12.5181 -54.364C34.3625 -57.3914 32.0727 -33.4604 34.632 -7.6024C41.7329 19.2765 62.0456 35.6081 50.0026 43.3869C37.9596 51.1656 -1.10211 35.7559 -15.3527 10.4118C-27.5937 -18.6566 -9.32629 -51.3366 12.5181 -54.364Z"></path>
  <path fill="#312F2F" transform="matrix(0.538733 -0.071519 0.0852765 0.642364 247.544 355.448)" d="M0 -128C70.6924 -128 128 -70.6924 128 9.53674e-07C128 70.6924 70.6924 128 0 128C-70.6924 128 -128 70.6924 -128 -9.53674e-07C-128 -70.6924 -70.6924 -128 0 -128Z"></path>
  <path fill="none" stroke="black" stroke-width="7" stroke-miterlimit="4" transform="translate(256 256)" d="M-7.16675 15.6055C30.9176 10.5497 66.678 43.2634 72.7065 88.6737C78.7349 134.084 52.7484 174.995 14.664 180.051C-23.4203 185.107 -59.1808 152.393 -65.2092 106.983C-71.2376 61.5723 -45.2511 20.6614 -7.16675 15.6055Z"></path>
  <path fill="none" stroke="black" stroke-width="7" stroke-linejoin="round" transform="translate(256 256)" d="M-7.16675 15.6055C-7.16675 15.6055 -16.9314 16.9018 -18.9004 17.1632C-49.6797 22.1015 -85.577 47.1139 -77.4141 108.603C-69.2512 170.092 -21.2456 184.818 2.4591 181.671C4.42809 181.41 14.664 180.051 14.664 180.051C14.1115 180.124 13.5148 180.179 12.8774 180.215"></path>
  <path fill="#DEDEDE" transform="matrix(0.538733 -0.071519 0.0852765 0.642364 259.749 353.828)" d="M0 -128C70.6924 -128 128 -70.6924 128 9.53674e-07C128 70.6924 70.6924 128 0 128C-70.6924 128 -128 70.6924 -128 -9.53674e-07C-128 -70.6924 -70.6924 -128 0 -128Z"></path>
  <clipPath id="cl_164">
    <path d="M248.833 271.605C286.918 266.55 322.678 299.263 328.706 344.674C334.735 390.084 308.748 430.995 270.664 436.051C232.58 441.107 196.819 408.393 190.791 362.983C184.762 317.572 210.749 276.661 248.833 271.605Z"></path>
  </clipPath>
  <g clip-path="url(#cl_164)">
    <path fill="#F2F1F1" transform="matrix(0.536748 0.14412 -0.0969863 0.630061 258.43 383.146)" d="M-170.753 -28.5016L169.944 -28.5016L169.944 28.5017L-170.753 28.5017L-170.753 -28.5016Z"></path>
    <path fill="#F2F1F1" transform="matrix(0.536748 0.14412 -0.0969863 0.630061 253.684 407.255)" d="M-170.753 -5.22015L169.944 -5.22015L169.944 5.22018L-170.753 5.22018L-170.753 -5.22015Z"></path>
  </g>
  <path fill="#8B8B8B" transform="matrix(0.538733 -0.071519 0.0852765 0.642364 263.165 352.721)" d="M0.250001 -87.5C51.4744 -87.5 93 -48.4369 93 -0.250015C93 47.9368 51.4744 87 0.250001 87C-50.9744 87 -92.5 47.9368 -92.5 -0.250016C-92.5 -48.4369 -50.9744 -87.5 0.250001 -87.5Z"></path>
  <path fill="#B0AFAF" transform="matrix(0.538733 -0.071519 0.0852765 0.642364 259.749 353.828)" d="M0 -86C47.4965 -86 86 -47.4965 86 6.4075e-07C86 47.4965 47.4965 86 0 86C-47.4965 86 -86 47.4965 -86 -6.4075e-07C-86 -47.4965 -47.4965 -86 0 -86Z"></path>
  <path fill="#8B8B8B" transform="matrix(0.538733 -0.071519 0.0852765 0.642364 259.677 351.223)" d="M-52.3281 27.625L-52.3281 -27.668L-46.756 -30.4055L-46.7825 24.7561L-42.4191 24.6238L-47.1315 27.6684L-52.3281 27.625ZM-50.25 21.3164C-54.7526 21.3164 -58.6058 20.4196 -61.8096 18.626C-65.0133 16.8324 -67.4626 14.3337 -69.1572 11.1299C-70.8519 7.92611 -71.6992 4.19662 -71.6992 -0.0585918C-71.6992 -4.3138 -70.8519 -8.04329 -69.1572 -11.2471C-67.4626 -14.4508 -65.0133 -16.9495 -61.8096 -18.7432C-58.6058 -20.5368 -54.7526 -21.4336 -50.25 -21.4336C-47.3802 -21.4336 -44.7825 -21.0625 -42.457 -20.3203C-40.1315 -19.5781 -38.109 -18.5205 -36.3896 -17.1475C-34.6702 -15.7744 -27.78 -10.4693 -25.0591 -8.68545C-26.0599 -7.96244 -28.21 -6.90539 -30.3965 -5.66211C-30.3965 -5.66211 -44.0898 -3.62109 -44.0898 -3.62109C-44.0898 -3.62109 -44.5166 -5.66829 -44.8506 -6.49707C-45.1846 -7.32584 -45.599 -8.02474 -46.0937 -8.59375C-46.5885 -9.16275 -47.1637 -9.58951 -47.8193 -9.87402C-48.4749 -10.1585 -49.2109 -10.3008 -50.0273 -10.3008C-51.3385 -10.3008 -52.4766 -9.92968 -53.4414 -9.1875C-54.4062 -8.44531 -55.1546 -7.31966 -55.6865 -5.81054C-56.2184 -4.30143 -56.4844 -2.40885 -56.4844 -0.132811C-56.4844 2.11849 -56.2184 4.01107 -55.6865 5.54492C-55.1546 7.07878 -54.4062 8.23535 -53.4414 9.01465C-52.4766 9.79395 -51.3385 10.1836 -50.0273 10.1836C-49.2109 10.1836 -48.4749 10.0352 -47.8193 9.73828C-47.1637 9.44141 -46.5824 9.00228 -46.0752 8.4209C-45.568 7.83952 -45.8968 6.99338 -44.8135 6.25C-43.7302 5.50663 -38.8902 1.52308 -38.7417 0.4098C-38.7417 0.4098 -30.3965 5.28516 -30.3965 5.28516C-30.3965 5.28516 -31.2747 9.97949 -32.2891 11.9463C-33.3034 13.9131 -34.6641 15.5954 -36.3711 16.9932C-38.0781 18.391 -40.1006 19.4609 -42.4385 20.2031C-44.7764 20.9453 -47.3802 21.3164 -50.25 21.3164ZM-24.5332 27.625L-24.5332 16.8633L-3.90039 -0.207029C-3.90039 -0.207029 -1.36458 -2.41504 -0.374996 -3.41699C0.614588 -4.41894 1.37533 -5.45182 1.90723 -6.51562C2.43913 -7.57943 2.70508 -8.76693 2.70508 -10.0781C2.70508 -11.4883 2.40202 -12.6943 1.7959 -13.6963C1.18978 -14.6982 0.361006 -15.4714 -0.690426 -16.0156C-1.74186 -16.5599 -2.96028 -16.832 -4.3457 -16.832C-5.73112 -16.832 -6.94954 -16.5537 -8.00097 -15.9971C-9.0524 -15.4404 -6.2922 -13.7058 -5.868 -12.6284C-7.10778 -11.907 -9.37627 -10.5827 -11.3223 -9.63281C-11.3223 -9.63281 -25.5723 -9.63281 -25.5723 -9.63281C-25.5723 -9.63281 -24.7002 -16.8568 -22.956 -19.6523C-21.2119 -22.4479 -18.7441 -24.6064 -15.5527 -26.1279C-12.3613 -27.6494 -8.62565 -28.4102 -4.3457 -28.4102C0.0826855 -28.4102 3.91732 -27.7051 7.15821 -26.2949C10.3991 -24.8848 12.904 -22.8994 14.6729 -20.3389C16.4417 -17.7783 17.3262 -14.7786 17.3262 -11.3398C17.3262 -9.21224 16.887 -7.10318 16.0088 -5.01269C15.1305 -2.9222 13.5534 -0.602863 11.2773 1.94531C9.0013 4.49349 5.74805 7.51172 1.51758 11C1.51758 11 -3.67773 15.3047 -3.67773 15.3047L-3.67773 15.6758L17.9199 15.6758L23.3601 24.6527L17.9199 27.625L-24.5332 27.625ZM45.3066 28.3672C41.0514 28.3672 37.2786 27.6188 33.9883 26.1221C30.6979 24.6253 28.1126 22.5534 26.2324 19.9062C24.3522 17.2591 23.3874 14.2161 23.3379 10.7773C23.3379 10.7773 28.8025 7.82547 28.8025 7.82547L37.959 10.7773C37.959 10.7773 38.293 13.14 38.9609 14.0801C39.6289 15.0202 40.5195 15.7438 41.6328 16.251C42.7461 16.7581 43.9707 17.0117 45.3066 17.0117C46.8405 17.0117 48.1826 16.6839 49.333 16.0283C50.4834 15.3727 51.3864 14.4512 52.042 13.2637C52.6976 12.0762 53.0254 10.6784 53.0254 9.07031C53.0254 7.4375 52.6976 6.02116 52.042 4.82129C51.3864 3.62142 50.4834 2.69369 49.333 2.03809C48.1826 1.38249 46.8405 1.05469 45.3066 1.05469C43.6986 1.05469 43.4423 2.31534 43.4423 2.31534C43.4423 2.31534 38.6022 4.02344 37.959 5.35938C37.959 5.35938 24.748 2.76172 24.748 2.76172L26.9004 -27.668L32.366 -30.6324L64.084 -27.668L69.5014 -18.6128L64.084 -15.6445L39.2207 -15.6445L38.1816 -3.47265L38.4785 -3.47265C38.4785 -3.47265 40.8411 -6.54036 42.9688 -7.6289C45.0964 -8.71744 47.5579 -9.26171 50.3535 -9.26171C52.8027 -9.26171 55.0726 -8.82877 57.1631 -7.96289C59.2536 -7.097 61.0719 -5.86621 62.6182 -4.27051C64.1644 -2.6748 65.3643 -0.782225 66.2178 1.40723C67.0713 3.59668 67.498 6.00261 67.498 8.625C67.498 12.4844 66.5827 15.8984 64.752 18.8672C62.9212 21.8359 60.3421 24.1615 57.0146 25.8438C53.6872 27.526 49.7845 28.3672 45.3066 28.3672Z"></path>
  <path fill="#DEDEDE" transform="matrix(0.538733 -0.071519 0.0852765 0.642364 262.029 348.296)" d="M-51.8281 28.625L-51.8281 -26.668L-47.375 -26.668L-47.375 28.625L-51.8281 28.625ZM-49.75 22.3164C-54.2526 22.3164 -58.1058 21.4196 -61.3096 19.626C-64.5134 17.8323 -66.9626 15.3336 -68.6572 12.1299C-70.3519 8.92609 -71.1992 5.1966 -71.1992 0.941393C-71.1992 -3.31382 -70.3519 -7.04331 -68.6572 -10.2471C-66.9626 -13.4509 -64.5134 -15.9496 -61.3096 -17.7432C-58.1058 -19.5368 -54.2526 -20.4336 -49.75 -20.4336C-46.8802 -20.4336 -44.2826 -20.0625 -41.9571 -19.3203C-39.6315 -18.5781 -37.6091 -17.5205 -35.8897 -16.1475C-34.1703 -14.7744 -32.8034 -13.1169 -31.7891 -11.1748C-30.7748 -9.23276 -30.1439 -7.06186 -29.8965 -4.66212C-29.8965 -4.66212 -43.5899 -2.62111 -43.5899 -2.62111C-43.5899 -2.62111 -44.0166 -4.66831 -44.3506 -5.49708C-44.6846 -6.32586 -45.099 -7.02475 -45.5938 -7.59376C-46.0886 -8.16277 -46.6638 -8.58953 -47.3194 -8.87403C-47.975 -9.15854 -48.711 -9.30079 -49.5274 -9.30079C-50.8386 -9.30079 -51.9766 -8.9297 -52.9414 -8.18751C-53.9063 -7.44532 -54.6546 -6.31968 -55.1865 -4.81056C-55.7185 -3.30145 -55.9844 -1.40887 -55.9844 0.867174C-55.9844 3.11848 -55.7185 5.01105 -55.1865 6.54491C-54.6546 8.07876 -53.9063 9.23534 -52.9414 10.0146C-51.9766 10.7939 -50.8386 11.1836 -49.5274 11.1836C-48.711 11.1836 -47.975 11.0351 -47.3194 10.7383C-46.6638 10.4414 -46.0824 10.0023 -45.5752 9.42089C-45.0681 8.8395 -44.6475 8.11587 -44.3135 7.24999C-43.9795 6.3841 -43.7383 5.39452 -43.5899 4.28124C-43.5899 4.28124 -29.8965 6.28514 -29.8965 6.28514C-29.8965 6.28514 -30.7748 10.9795 -31.7891 12.9463C-32.8034 14.9131 -34.1641 16.5954 -35.8711 17.9931C-37.5782 19.3909 -39.6006 20.4609 -41.9385 21.2031C-44.2764 21.9453 -46.8802 22.3164 -49.75 22.3164ZM-24.0332 28.625L-24.0332 17.8633L-3.4004 0.792971C-3.4004 0.792971 -0.864597 -1.41504 0.124987 -2.41699C1.11457 -3.41894 1.87531 -4.45182 2.40721 -5.51562C2.93911 -6.57943 3.20506 -7.76693 3.20506 -9.07812C3.20506 -10.4883 2.902 -11.6943 2.29589 -12.6963C1.68977 -13.6982 0.860989 -14.4714 -0.190443 -15.0156C-1.24187 -15.5599 -2.4603 -15.832 -3.84572 -15.832C-5.23113 -15.832 -6.44956 -15.5537 -7.50099 -14.9971C-8.55242 -14.4404 -9.36883 -13.6302 -9.95021 -12.5664C-10.5316 -11.5026 -10.8223 -10.1914 -10.8223 -8.63281C-10.8223 -8.63281 -25.0723 -8.63281 -25.0723 -8.63281C-25.0723 -8.63281 -24.2002 -15.8568 -22.4561 -18.6523C-20.7119 -21.4479 -18.2442 -23.6064 -15.0527 -25.1279C-11.8613 -26.6494 -8.12566 -27.4102 -3.84572 -27.4102C0.582668 -27.4102 4.4173 -26.7051 7.65819 -25.2949C10.8991 -23.8848 13.404 -21.8994 15.1728 -19.3389C16.9417 -16.7783 17.8262 -13.7786 17.8262 -10.3398C17.8262 -8.21224 17.387 -6.10318 16.5088 -4.01269C15.6305 -1.9222 14.0534 0.397137 11.7773 2.94531C9.50129 5.49349 6.24803 8.51172 2.01756 12C2.01756 12 -3.17775 16.3047 -3.17775 16.3047L-3.17775 16.6758L18.4199 16.6758L18.4199 28.625L-24.0332 28.625ZM45.8066 29.3672C41.5514 29.3672 37.7786 28.6188 34.4883 27.1221C31.1979 25.6253 28.6126 23.5534 26.7324 20.9062C24.8522 18.2591 23.8874 15.2161 23.8379 11.7773C23.8379 11.7773 38.459 11.7773 38.459 11.7773C38.459 11.7773 38.793 14.14 39.4609 15.0801C40.1289 16.0202 41.0195 16.7438 42.1328 17.251C43.2461 17.7581 44.4707 18.0117 45.8066 18.0117C47.3405 18.0117 48.6826 17.6839 49.833 17.0283C50.9834 16.3727 51.8864 15.4512 52.542 14.2637C53.1976 13.0762 53.5254 11.6784 53.5254 10.0703C53.5254 8.43749 53.1976 7.02114 52.542 5.82128C51.8864 4.62141 50.9834 3.69367 49.833 3.03807C48.6826 2.38247 47.3405 2.05467 45.8066 2.05467C44.1986 2.05467 42.7327 2.43814 41.4092 3.20506C40.0856 3.97199 39.1022 5.02342 38.459 6.35936C38.459 6.35936 25.248 3.76171 25.248 3.76171L27.4004 -26.668L64.584 -26.668L64.584 -14.6445L39.7207 -14.6445L38.6816 -2.47267L38.9785 -2.47267C38.9785 -2.47267 41.3411 -5.54038 43.4688 -6.62892C45.5964 -7.71746 48.0579 -8.26173 50.8535 -8.26173C53.3027 -8.26173 55.5726 -7.82878 57.6631 -6.9629C59.7536 -6.09702 61.5719 -4.86622 63.1182 -3.27052C64.6644 -1.67482 65.8643 0.21776 66.7178 2.40721C67.5713 4.59667 67.998 7.00259 67.998 9.62499C67.998 13.4844 67.0827 16.8984 65.252 19.8672C63.4212 22.8359 60.8421 25.1614 57.5146 26.8437C54.1872 28.526 50.2845 29.3672 45.8066 29.3672Z"></path>
  <clipPath id="cl_166">
    <path d="M236.549 370.39L231.834 334.872L234.233 334.554L238.948 370.072L236.549 370.39ZM237.131 366.189C234.705 366.511 232.553 366.211 230.674 365.288C228.795 364.365 227.262 362.935 226.076 360.998C224.89 359.061 224.115 356.726 223.752 353.993C223.389 351.259 223.528 348.803 224.168 346.624C224.807 344.445 225.914 342.664 227.487 341.283C229.06 339.902 231.059 339.05 233.485 338.728C235.031 338.523 236.462 338.576 237.778 338.886C239.094 339.196 240.274 339.731 241.318 340.49C242.361 341.249 243.239 342.216 243.951 343.391C244.663 344.566 245.188 345.915 245.526 347.439C245.526 347.439 238.323 349.73 238.323 349.73C238.323 349.73 237.918 348.445 237.668 347.937C237.417 347.428 237.134 347.009 236.819 346.679C236.504 346.349 236.158 346.116 235.78 345.98C235.403 345.844 234.994 345.805 234.554 345.864C233.848 345.957 233.266 346.277 232.81 346.823C232.353 347.369 232.046 348.145 231.888 349.153C231.731 350.16 231.749 351.395 231.943 352.857C232.135 354.303 232.439 355.5 232.857 356.447C233.274 357.394 233.776 358.084 234.362 358.515C234.948 358.947 235.595 359.116 236.301 359.022C236.741 358.964 237.125 358.816 237.453 358.578C237.781 358.34 238.056 358.017 238.28 357.607C238.504 357.197 238.668 356.702 238.775 356.122C238.881 355.542 238.926 354.889 238.911 354.164C238.911 354.164 246.459 354.471 246.459 354.471C246.459 354.471 246.386 357.55 246.008 358.886C245.629 360.222 245.039 361.4 244.239 362.419C243.438 363.439 242.44 364.271 241.244 364.915C240.048 365.559 238.677 365.984 237.131 366.189ZM251.523 368.402L250.605 361.489L260.265 349.048C260.265 349.048 261.443 347.449 261.891 346.734C262.338 346.02 262.66 345.302 262.856 344.581C263.052 343.859 263.094 343.077 262.982 342.235C262.862 341.329 262.596 340.576 262.184 339.976C261.772 339.376 261.259 338.938 260.646 338.664C260.034 338.39 259.354 338.302 258.608 338.401C257.861 338.5 257.229 338.766 256.71 339.199C256.191 339.632 255.82 340.21 255.597 340.935C255.375 341.66 255.33 342.523 255.463 343.524C255.463 343.524 247.786 344.544 247.786 344.544C247.786 344.544 247.64 339.841 248.341 337.92C249.042 336 250.188 334.437 251.777 333.231C253.367 332.026 255.314 331.27 257.62 330.964C260.006 330.647 262.132 330.826 263.998 331.5C265.864 332.174 267.383 333.27 268.554 334.788C269.726 336.306 270.458 338.17 270.751 340.379C270.933 341.746 270.876 343.132 270.581 344.538C270.286 345.943 269.634 347.546 268.625 349.346C267.617 351.145 266.121 353.317 264.14 355.86C264.14 355.86 261.708 358.997 261.708 358.997L261.74 359.235L273.375 357.69L274.394 365.366L251.523 368.402ZM289.211 363.884C286.919 364.189 284.823 363.978 282.922 363.252C281.022 362.525 279.453 361.379 278.214 359.813C276.975 358.247 276.196 356.362 275.876 354.156C275.876 354.156 283.753 353.111 283.753 353.111C283.753 353.111 284.134 354.604 284.574 355.161C285.014 355.717 285.556 356.118 286.199 356.364C286.842 356.61 287.523 356.685 288.243 356.59C289.069 356.48 289.764 356.174 290.328 355.67C290.892 355.167 291.3 354.51 291.552 353.701C291.804 352.891 291.861 351.97 291.724 350.937C291.585 349.888 291.287 349.001 290.832 348.278C290.376 347.554 289.811 347.022 289.135 346.683C288.46 346.345 287.709 346.23 286.882 346.34C286.016 346.455 285.259 346.806 284.611 347.393C283.964 347.98 283.523 348.726 283.291 349.63C283.291 349.63 275.952 348.907 275.952 348.907L274.517 329.206L294.549 326.546L295.574 334.27L282.179 336.048L282.658 343.941L282.818 343.92C282.818 343.92 283.829 341.78 284.882 340.929C285.936 340.077 287.215 339.552 288.721 339.352C290.041 339.177 291.301 339.292 292.501 339.699C293.701 340.106 294.785 340.766 295.754 341.681C296.723 342.595 297.531 343.725 298.178 345.071C298.824 346.416 299.259 347.931 299.483 349.615C299.812 352.095 299.61 354.353 298.877 356.391C298.144 358.429 296.953 360.107 295.304 361.426C293.654 362.745 291.624 363.564 289.211 363.884Z"></path>
  </clipPath>
  <g clip-path="url(#cl_166)">
    <path fill="#F2F1F1" transform="matrix(0.536748 0.14412 -0.0969863 0.630061 258.43 383.146)" d="M-170.753 -28.5016L169.944 -28.5016L169.944 28.5017L-170.753 28.5017L-170.753 -28.5016Z"></path>
  </g>
  <path fill="#8E8B8B" transform="matrix(0.642364 -0.0852765 0.0852765 0.642364 248.833 271.605)" d="M-1.90735e-06 1.90735e-06C-1.90735e-06 1.90735e-06 -15.2012 1.90735e-06 -18.2664 1.90735e-06C-66.3551 1.3037 -126.35 32.2772 -126.35 128C-126.35 223.723 -55.9022 256 -19 256C-15.9348 256 0 256 3.8147e-06 256C-25.5439 256 -107.35 223.723 -107.35 128C-107.35 32.2772 -25.5439 3.8147e-06 -1.90735e-06 1.90735e-06Z"></path>
  <clipPath id="cl_168">
    <path d="M248.833 271.605C248.833 271.605 239.069 272.902 237.1 273.163C206.32 278.101 170.423 303.114 178.586 364.603C186.749 426.092 234.754 440.818 258.459 437.671C260.428 437.41 270.664 436.051 270.664 436.051C254.256 438.229 198.954 424.471 190.791 362.983C182.628 301.494 232.425 273.784 248.833 271.605Z"></path>
  </clipPath>
  <g clip-path="url(#cl_168)">
    <path fill="#ACABAB" transform="matrix(0.538733 -0.071519 0.0852765 0.642364 219.465 396.043)" d="M-105.5 -40.8039L105 -40.8039L105 40.8039L-105.5 40.8039L-105.5 -40.8039Z"></path>
    <path fill="#D6D6D6" transform="matrix(0.538733 -0.071519 0.0852765 0.642364 214.776 391.502)" d="M-105.5 -7.02947L105 -7.02947L105 7.02944L-105.5 7.02944L-105.5 -7.02947Z"></path>
    <path fill="#D6D6D6" transform="matrix(0.540265 -0.0717223 0.0850346 0.640543 233.506 360.58)" d="M-137.32 -30.4789L136.67 -30.4789L136.67 30.4789L-137.32 30.4789L-137.32 -30.4789Z"></path>
  </g>
  <path fill="#91A8EB" transform="matrix(0.606874 0.00990163 -0.00990163 0.606874 198.561 96.3336)" d="M0 -22.5C14.6355 -22.5 26.5 -12.3145 26.5 0.249969C26.5 12.8144 14.6355 23 0 23C-14.6355 23 -26.5 12.8144 -26.5 0.249969C-26.5 -12.3145 -14.6355 -22.5 0 -22.5Z"></path>
  <path fill="#91A8EB" transform="matrix(0.504938 0.00823846 -0.00823846 0.504938 183.111 107.031)" d="M1.52164e-05 -22.5C14.6356 -22.5 26.5 -12.3144 26.5 0.25003C26.5 12.8145 14.6356 23 1.53012e-05 23C-14.6355 23 -26.5 12.8145 -26.5 0.250031C-26.5 -12.3144 -14.6355 -22.5 1.52164e-05 -22.5Z"></path>
  <path fill="#91A8EB" transform="matrix(0.274279 0.00447507 -0.00447507 0.274279 164.242 74.2444)" d="M3.05176e-05 -22.4261C14.2962 -22.4261 25.8855 -12.274 25.8855 0.249268C25.8855 12.7726 14.2962 22.9247 3.05176e-05 22.9247C-14.2961 22.9247 -25.8855 12.7726 -25.8855 0.249268C-25.8855 -12.274 -14.2961 -22.4261 3.05176e-05 -22.4261Z"></path>
  <path fill="#C1CBE8" transform="matrix(0.073816 -0.11483 0.26388 0.16963 160.44 71.58)" d="M0 -11.5C14.6355 -11.5 28.0061 -7.98328 28.0061 -1.63201C28.0061 4.71926 15.5059 0.400185 0.870356 0.400186C-13.7652 0.400185 -26.766 4.37689 -26.766 -1.97439C-26.766 -8.32566 -14.6355 -11.5 0 -11.5Z"></path>
  <path fill="#C1CBE8" transform="matrix(-0.166841 -0.570472 0.880441 -0.257495 182.976 133.342)" d="M-1.52588e-05 -11.5C14.6355 -11.5 28.0061 -7.98329 28.0061 -1.63201C28.0061 4.71926 15.5059 0.400182 0.870341 0.400182C-13.7652 0.400181 -26.766 4.37688 -26.766 -1.97439C-26.766 -8.32566 -14.6356 -11.5 -1.52588e-05 -11.5Z"></path>
  <path fill="#1B2B56" transform="matrix(1.78669 -0.21848 0.065544 0.536007 239.398 109.146)" d="M-4.8615e-07 -2.5C1.38071 -2.5 2.5 -1.38071 2.5 0C2.5 1.38071 1.38071 2.5 -4.67524e-07 2.5C-1.38071 2.5 -2.5 1.38071 -2.5 0C-2.5 -1.38071 -1.38071 -2.5 -4.8615e-07 -2.5Z"></path>
  <path fill="none" stroke="#1B2B56" stroke-width="0.5" stroke-linecap="round" stroke-linejoin="round" transform="matrix(1.78289 -0.247598 0.247598 1.78289 248.041 108.034)" d="M1.98548 0.277974L6.02909 0.184236"></path>
  <path fill="#1B2B56" transform="matrix(1.78669 -0.21848 0.065544 0.536007 267.985 105.65)" d="M-9.31323e-09 -2.5C1.38071 -2.5 2.5 -1.38071 2.5 0C2.5 1.38071 1.38071 2.5 9.31323e-09 2.5C-1.38071 2.5 -2.5 1.38071 -2.5 0C-2.5 -1.38071 -1.38071 -2.5 -9.31323e-09 -2.5Z"></path>
  <path fill="#354B89" transform="matrix(1.46507 -0.885005 0.929571 0.72522 259.762 98.7181)" d="M0 -2.5C1.38071 -2.5 2.5 -1.38071 2.5 1.49012e-07C2.5 1.38071 1.38071 2.5 0 2.5C-1.38071 2.5 -2.5 1.38071 -2.5 -1.49012e-07C-2.5 -1.38071 -1.38071 -2.5 0 -2.5Z"></path>
  <path fill="#354B89" transform="matrix(2.16254 0.296937 -0.629837 1.0733 243.79 99.6576)" d="M0 -2.98532C1.68306 -2.98532 3.04744 -1.64874 3.04744 1.5168e-05C3.04744 1.64877 1.68306 2.98535 0 2.98535C-1.68306 2.98535 -3.04744 1.64877 -3.04744 1.53496e-05C-3.04744 -1.64874 -1.68306 -2.98532 0 -2.98532Z"></path>
  <path fill="none" stroke="white" stroke-width="5" stroke-linecap="round" stroke-linejoin="round" transform="matrix(1.5 0 0 1.5 158.539 362.24)" d=""></path>
</svg>