<?xml version="1.0" encoding="utf-8"?>
<svg xmlns="http://www.w3.org/2000/svg" xmlns:xlink="http://www.w3.org/1999/xlink" width="512" height="512">
  <path fill="none" stroke="black" stroke-width="7" stroke-linejoin="round" transform="matrix(1.8 3.72529e-09 -3.72529e-09 1.8 210.879 409.868)" d="M45.4965 -47.3425C63.7181 -46.9719 76.196 -39.4606 75.6152 4.8251C75.676 33.8425 68.2389 43.7948 57.7248 43.4321C47.2109 43.0693 38.5713 43.0939 28.2378 43.0813C17.7762 42.888 12.4958 31.7005 12.4354 2.66998C12.7497 -43.8256 27.2748 -47.713 45.4965 -47.3425Z"></path>
  <path fill="none" stroke="black" stroke-width="7" stroke-linejoin="round" transform="matrix(-2.15345 -3.29802e-07 -3.27096e-07 2.13577 356.551 292.97)" d="M18.6608 -58.336C21.9098 -53.7517 27.6319 -38.445 27.4849 -34.5202C27.3378 -30.5954 31.4994 -21.5653 29.5737 2.72661C27.5916 31.5473 22.5468 54.5087 -2.68399 52.9067C-18.5173 51.7997 -29.3504 27.5662 -27.3683 -1.25452C-24.8833 -37.3874 1.55456 -65.0664 18.6608 -58.336Z"></path>
  <path fill="none" stroke="black" stroke-width="7" stroke-linejoin="round" transform="matrix(1.79976 0.0293645 -0.0293645 1.79976 266.846 294.136)" d="M0.209625 -80.0966C37.3348 -80.0966 84.5 -60 84.5 0C84.5 41.1452 46.7396 76.2788 0.209625 76.2788C-62.1658 76.2788 -84 60.12 -84 0C-84 -71.2881 -50.5087 -80.0966 0.209625 -80.0966Z"></path>
  <path fill="none" stroke="black" stroke-width="7" stroke-linejoin="round" transform="matrix(1.53671 3.18039e-09 -3.72529e-09 1.8 308.979 398.168)" d="M-52.5611 -46.2557C-35.704 -52.1706 -4.86432 -42.864 2.03645 7.46519C-1.53166 25.0644 -24.6016 51.0886 -36.698 45.6374C-48.7943 40.1861 -54.2204 37.7409 -65.0113 32.8779C-75.8022 28.015 -61.0327 13.5378 -57.9132 5.50967C-65.8767 -37.4021 -69.4183 -40.3408 -52.5611 -46.2557Z"></path>
  <path fill="#6C88D9" transform="matrix(-2.15345 -3.29802e-07 -3.27096e-07 2.13577 356.551 292.97)" d="M18.6608 -58.336C21.9098 -53.7517 27.6319 -38.445 27.4849 -34.5202C27.3378 -30.5954 31.4994 -21.5653 29.5737 2.72661C27.5916 31.5473 22.5468 54.5087 -2.68399 52.9067C-18.5173 51.7997 -29.3504 27.5662 -27.3683 -1.25452C-24.8833 -37.3874 1.55456 -65.0664 18.6608 -58.336Z"></path>
  <path fill="#5170C8" transform="matrix(1.53671 3.18039e-09 -3.72529e-09 1.8 308.979 398.168)" d="M-52.5611 -46.2557C-35.704 -52.1706 -4.86432 -42.864 2.03645 7.46519C-1.53166 25.0644 -24.6016 51.0886 -36.698 45.6374C-48.7943 40.1861 -54.2204 37.7409 -65.0113 32.8779C-75.8022 28.015 -61.0327 13.5378 -57.9132 5.50967C-65.8767 -37.4021 -69.4183 -40.3408 -52.5611 -46.2557Z"></path>
  <path fill="#839BE0" transform="matrix(1.20328 2.49031e-09 -2.91698e-09 1.40944 308.979 398.168)" d="M-61.4678 -47.3201C-44.6107 -53.235 -13.5556 -43.6796 -6.26014 10.729C-12.0319 31.8319 -34.7271 48.8481 -46.8235 43.3968C-58.9199 37.9456 -58.7928 38.0599 -69.5837 33.197C-80.3747 28.3341 -71.533 20.3054 -66.2097 8.77347C-74.5681 -38.2176 -78.325 -41.4051 -61.4678 -47.3201Z"></path>
  <path fill="#6C88D9" transform="matrix(1.8 3.72529e-09 -3.72529e-09 1.8 210.879 409.868)" d="M45.4965 -47.3425C63.7181 -46.9719 76.196 -39.4606 75.6152 4.8251C75.676 33.8425 68.2389 43.7948 57.7248 43.4321C47.2109 43.0693 38.5713 43.0939 28.2378 43.0813C17.7762 42.888 12.4958 31.7005 12.4354 2.66998C12.7497 -43.8256 27.2748 -47.713 45.4965 -47.3425Z"></path>
  <path fill="#91A8EB" transform="matrix(-1.67686 -2.56813e-07 -3.2026e-07 2.09114 352.562 287.257)" d="M20.4245 -51.9256C42.5397 -50.6959 33.512 -26.3082 29.4133 2.12424C25.3146 30.5566 11.4327 53.1942 -3.99426 52.3364C-19.4212 51.4786 -29.5334 27.5792 -27.0559 -1.07082C-24.5785 -29.7208 -1.69058 -53.1553 20.4245 -51.9256Z"></path>
  <path fill="none" stroke="black" stroke-width="7" stroke-miterlimit="4" transform="matrix(1.79976 0.0293645 -0.0293645 1.79976 225.395 135.286)" d="M0 -29.5C19.0538 -29.5 34.5 -16.1805 34.5 0.25C34.5 16.6805 19.0538 30 0 30C-19.0538 30 -34.5 16.6805 -34.5 0.25C-34.5 -16.1805 -19.0538 -29.5 0 -29.5Z"></path>
  <path fill="#6C88D9" transform="matrix(1.79976 0.0293645 -0.0293645 1.79976 266.846 294.136)" d="M0.209625 -80.0966C37.3348 -80.0966 84.5 -60 84.5 0C84.5 41.1452 46.7396 76.2788 0.209625 76.2788C-62.1658 76.2788 -84 60.12 -84 0C-84 -71.2881 -50.5087 -80.0966 0.209625 -80.0966Z"></path>
  <path fill="none" stroke="black" stroke-width="9" stroke-miterlimit="4" transform="translate(256 256)" d="M-56.9147 -178.531C-42.1321 -178.29 -30.3171 -167.76 -30.5251 -155.013C-30.7331 -142.266 -42.8853 -132.127 -57.6679 -132.369C-72.4505 -132.61 -84.2656 -143.139 -84.0576 -155.886C-83.8496 -168.634 -71.6973 -178.772 -56.9147 -178.531Z"></path>
  <path fill="none" stroke="black" stroke-width="9" stroke-miterlimit="4" transform="translate(256 256)" d="M-72.4278 -163.618C-60.1282 -163.418 -50.2977 -154.657 -50.4707 -144.051C-50.6438 -133.445 -60.7548 -125.009 -73.0544 -125.21C-85.354 -125.411 -95.1845 -134.171 -95.0115 -144.777C-94.8384 -155.384 -84.7273 -163.819 -72.4278 -163.618Z"></path>
  <path fill="none" stroke="black" stroke-width="9" stroke-miterlimit="4" transform="translate(256 256)" d="M-92.4349 -187.952C-85.7538 -187.843 -80.414 -183.085 -80.508 -177.323C-80.602 -171.562 -86.0942 -166.98 -92.7753 -167.089C-99.4563 -167.198 -104.796 -171.957 -104.702 -177.718C-104.608 -183.479 -99.1159 -188.061 -92.4349 -187.952Z"></path>
  <path fill="#6C88D9" transform="matrix(1.79976 0.0293645 -0.0293645 1.79976 225.395 135.286)" d="M0 -29.5C19.0538 -29.5 34.5 -16.1805 34.5 0.25C34.5 16.6805 19.0538 30 0 30C-19.0538 30 -34.5 16.6805 -34.5 0.25C-34.5 -16.1805 -19.0538 -29.5 0 -29.5Z"></path>
  <path fill="#6C88D9" transform="matrix(0.775834 0.0126583 -0.0126583 0.775834 198.712 100.356)" d="M7.62939e-06 -29.5C19.0538 -29.5 34.5 -16.1805 34.5 0.25C34.5 16.6805 19.0538 30 7.62939e-06 30C-19.0538 30 -34.5 16.6805 -34.5 0.25C-34.5 -16.1805 -19.0538 -29.5 7.62939e-06 -29.5Z"></path>
  <path fill="#6C88D9" transform="matrix(0.645518 0.0105321 -0.0105321 0.645518 183.262 111.424)" d="M0 -29.5C19.0538 -29.5 34.5 -16.1805 34.5 0.250015C34.5 16.6805 19.0538 30 0 30C-19.0538 30 -34.5 16.6805 -34.5 0.250015C-34.5 -16.1805 -19.0538 -29.5 0 -29.5Z"></path>
  <path fill="#6C88D9" transform="matrix(0.35064 0.00572097 -0.00572097 0.35064 163.396 78.3916)" d="M3.05176e-05 -29.5C19.0539 -29.5 34.5 -16.1805 34.5 0.25C34.5 16.6805 19.0539 30 3.05176e-05 30C-19.0538 30 -34.5 16.6805 -34.5 0.25C-34.5 -16.1805 -19.0538 -29.5 3.05176e-05 -29.5Z"></path>
  <path fill="#91A8EB" transform="matrix(1.50913 0.0246226 -0.0246226 1.50913 265.482 294.136)" d="M0.249979 -81.5196C49.8787 -81.2985 84.5 -60 84.5 1.90735e-06C84.5 41.1452 46.78 74.5 0.25 74.5C-62.1254 74.5 -84 60.12 -84 1.90735e-06C-84 -71.2881 -62.1254 -81.5196 0.249979 -81.5196Z"></path>
  <clipPath id="cl_2f1">
    <path d="M269.575 149.987C336.392 151.078 420.688 188.632 418.926 296.617C417.718 370.669 348.726 432.792 264.983 431.426C152.723 429.594 113.901 399.871 115.666 291.669C117.759 163.368 178.294 148.498 269.575 149.987Z"></path>
  </clipPath>
  <g clip-path="url(#cl_2f1)">
    <path fill="#A6B8EF" transform="matrix(0.805953 0.0131497 -0.0151654 0.929491 321.14 259.014)" d="M0.249972 -81.5196C49.8787 -81.2985 84.5 -60 84.5 4.76837e-07C84.5 41.1452 67.1354 74.5 20.6054 74.5C-41.77 74.5 -84 60.12 -84 4.76837e-07C-84 -71.2881 -62.1254 -81.5197 0.249972 -81.5196Z"></path>
    <path fill="#C1CBE8" transform="matrix(0.197995 -0.202726 0.445703 0.435301 344.24 210.165)" d="M11.5671 -77.0972C58.0971 -77.0972 97.5959 -41.1452 97.5959 -1.67094e-05C97.5959 41.1452 73.4188 83.0524 26.8888 83.0524C-35.4866 83.0524 11.8086 60.12 11.8086 -1.5431e-05C11.8086 -41.1452 -34.9629 -77.0972 11.5671 -77.0972Z"></path>
    <path fill="#C1CBE8" transform="matrix(0.197995 -0.202726 0.184201 0.179903 388.682 274.521)" d="M48.93 -79.7643C80.6762 -79.053 77.4946 -42.8889 62.8507 4.00562C48.2069 50.9001 -0.03942 91.2963 -20.4536 67.777C-40.8678 44.2576 -16.8141 31.8032 -0.458991 -5.13884C15.8961 -42.0808 17.1838 -80.4756 48.93 -79.7643Z"></path>
  </g>
  <path fill="#91A8EB" transform="matrix(1.37947 2.85496e-09 -2.85496e-09 1.37947 210.879 346.868)" d="M59.0819 -2.12832C77.3035 -1.75781 90.9207 -2.27263 90.3223 49.2175C89.6304 74.6961 81.8534 89.1305 71.3394 88.7678C60.8254 88.4051 52.1858 88.4296 41.8523 88.417C31.4726 88.331 24.24 71.493 24.9319 46.0144C25.2641 -7.68576 40.8602 -2.49883 59.0819 -2.12832Z"></path>
  <path fill="#91A8EB" transform="matrix(1.79976 0.0293645 -0.0293645 1.79976 225.395 135.286)" d="M0 -22.5C14.6355 -22.5 26.5 -12.3145 26.5 0.25C26.5 12.8145 14.6355 23 0 23C-14.6355 23 -26.5 12.8145 -26.5 0.25C-26.5 -12.3145 -14.6355 -22.5 0 -22.5Z"></path>
  <path fill="none" stroke="black" stroke-width="7" stroke-linecap="round" stroke-linejoin="round" transform="matrix(2.15345 4.45679e-09 -4.42021e-09 2.13577 150.659 302.634)" d="M28.7281 -33.3762C30.619 -28.8131 33.4355 -21.9271 37.5481 -10.7426C49.7334 14.7219 64.4321 28.6085 44.3959 44.1524C31.7559 53.8303 -0.6437 39.2224 -12.8677 13.6769C-22.134 -9.96783 -17.1574 -35.5556 -7.40913 -49.8276"></path>
  <path fill="#6C88D9" transform="matrix(2.15345 4.45679e-09 -4.42021e-09 2.13577 150.659 302.634)" d="M9.92836 -61.0778C14.4328 -57.7431 24.6023 -44.9977 25.676 -41.2222C26.7497 -37.4467 29.9187 -31.4914 37.5481 -10.7426C49.7334 14.7219 64.4321 28.6085 44.3959 44.1524C31.7559 53.8303 -0.6437 39.2224 -12.8677 13.6769C-26.8486 -21.9979 -8.40636 -62.096 9.92836 -61.0778Z"></path>
  <path fill="#91A8EB" transform="matrix(1.67686 3.47045e-09 -4.32784e-09 2.09114 154.649 296.921)" d="M11.1821 -54.6811C32.6732 -59.041 32.7061 -35.0411 37.7147 -9.40115C47.3282 16.9787 69.0682 32.0736 57.7801 40.5492C46.4921 49.0247 6.15501 36.0094 -10.4453 11.5933C-25.3994 -16.6419 -10.3091 -50.3213 11.1821 -54.6811Z"></path>
  <path fill="#312F2F" transform="matrix(0.53192 -0.111395 0.132823 0.634241 258.776 355.086)" d="M0 -128C70.6924 -128 128 -70.6925 128 -1.71661e-05C128 70.6924 70.6924 128 0 128C-70.6924 128 -128 70.6924 -128 -1.33514e-05C-128 -70.6925 -70.6924 -128 0 -128Z"></path>
  <path fill="none" stroke="black" stroke-width="7" stroke-miterlimit="4" transform="translate(256 256)" d="M-2.17492 15.3799C35.4278 7.50513 73.5226 37.4682 82.9122 82.3043C92.3018 127.14 69.4304 169.871 31.8277 177.746C-5.77509 185.62 -43.8699 155.657 -53.2594 110.821C-62.649 65.9852 -39.7777 23.2546 -2.17492 15.3799Z"></path>
  <path fill="none" stroke="black" stroke-width="7" stroke-linejoin="round" transform="translate(256 256)" d="M-2.17492 15.3799C-2.17492 15.3799 -11.8161 17.3989 -13.7602 17.8061C-44.0869 25.0202 -78.0242 52.6335 -65.31 113.345C-52.5959 174.056 -3.62782 185.171 19.7771 180.269C21.7212 179.862 31.8277 177.746 31.8277 177.746C31.2821 177.86 30.6912 177.959 30.0582 178.043"></path>
  <path fill="#DEDEDE" transform="matrix(0.53192 -0.111395 0.132823 0.634241 270.826 352.563)" d="M-2.86102e-06 -128C70.6924 -128 128 -70.6925 128 -1.90735e-06C128 70.6925 70.6924 128 -2.86102e-06 128C-70.6924 128 -128 70.6925 -128 1.90735e-06C-128 -70.6925 -70.6924 -128 -2.86102e-06 -128Z"></path>
  <clipPath id="cl_2f4">
    <path d="M253.825 271.38C291.428 263.505 329.523 293.468 338.912 338.304C348.302 383.14 325.43 425.871 287.828 433.746C250.225 441.62 212.13 411.657 202.741 366.821C193.351 321.985 216.222 279.255 253.825 271.38Z"></path>
  </clipPath>
  <g clip-path="url(#cl_2f4)">
    <path fill="#F2F1F1" transform="matrix(0.545982 0.103795 -0.0498504 0.635529 271.692 381.897)" d="M-170.753 -28.5017L169.944 -28.5017L169.944 28.5017L-170.753 28.5017L-170.753 -28.5017Z"></path>
    <path fill="#F2F1F1" transform="matrix(0.545982 0.103795 -0.0498504 0.635529 268.753 406.293)" d="M-170.753 -5.22019L169.944 -5.22019L169.944 5.22013L-170.753 5.22013L-170.753 -5.22019Z"></path>
  </g>
  <path fill="#8B8B8B" transform="matrix(0.53192 -0.111395 0.132823 0.634241 274.151 351.204)" d="M0.25 -87.5C51.4744 -87.5 93 -48.4368 93 -0.250001C93 47.9368 51.4744 87 0.25 87C-50.9744 87 -92.5 47.9368 -92.5 -0.249999C-92.5 -48.4368 -50.9744 -87.5 0.25 -87.5Z"></path>
  <path fill="#B0AFAF" transform="matrix(0.53192 -0.111395 0.132823 0.634241 270.826 352.563)" d="M-2.86102e-06 -86C47.4965 -86 86 -47.4965 86 -1.2815e-06C86 47.4965 47.4965 86 -2.86102e-06 86C-47.4965 86 -86 47.4965 -86 1.2815e-06C-86 -47.4965 -47.4965 -86 -2.86102e-06 -86Z"></path>
  <path fill="#8B8B8B" transform="matrix(0.53192 -0.111395 0.132823 0.634241 270.561 349.97)" d="M-52.3281 27.625L-52.3281 -27.668L-46.756 -30.4055L-46.7825 24.7561L-42.4192 24.6238L-47.1315 27.6684L-52.3281 27.625ZM-50.25 21.3164C-54.7526 21.3164 -58.6058 20.4196 -61.8096 18.626C-65.0134 16.8324 -67.4626 14.3337 -69.1572 11.1299C-70.8519 7.92612 -71.6992 4.19663 -71.6992 -0.0585785C-71.6992 -4.31379 -70.8519 -8.04328 -69.1572 -11.2471C-67.4626 -14.4508 -65.0134 -16.9495 -61.8096 -18.7431C-58.6058 -20.5368 -54.7526 -21.4336 -50.25 -21.4336C-47.3802 -21.4336 -44.7826 -21.0625 -42.457 -20.3203C-40.1315 -19.5781 -38.1091 -18.5205 -36.3897 -17.1474C-34.6702 -15.7744 -27.78 -10.4693 -25.0591 -8.68544C-26.0599 -7.96243 -28.21 -6.90538 -30.3965 -5.66209C-30.3965 -5.66209 -44.0898 -3.62108 -44.0898 -3.62108C-44.0898 -3.62108 -44.5166 -5.66828 -44.8506 -6.49706C-45.1846 -7.32583 -45.599 -8.02473 -46.0938 -8.59373C-46.5885 -9.16274 -47.1637 -9.5895 -47.8193 -9.87401C-48.4749 -10.1585 -49.2109 -10.3008 -50.0273 -10.3008C-51.3385 -10.3008 -52.4766 -9.92967 -53.4414 -9.18748C-54.4062 -8.4453 -55.1546 -7.31965 -55.6865 -5.81053C-56.2184 -4.30142 -56.4844 -2.40884 -56.4844 -0.132797C-56.4844 2.11851 -56.2184 4.01108 -55.6865 5.54494C-55.1546 7.07879 -54.4062 8.23537 -53.4414 9.01466C-52.4766 9.79396 -51.3385 10.1836 -50.0273 10.1836C-49.2109 10.1836 -48.4749 10.0352 -47.8193 9.7383C-47.1637 9.44142 -46.5824 9.00229 -46.0752 8.42091C-45.568 7.83953 -45.8968 6.99339 -44.8135 6.25002C-43.7302 5.50664 -38.8902 1.52309 -38.7417 0.409813C-38.7417 0.409813 -30.3965 5.28517 -30.3965 5.28517C-30.3965 5.28517 -31.2747 9.97951 -32.2891 11.9463C-33.3034 13.9131 -34.6641 15.5954 -36.3711 16.9932C-38.0781 18.391 -40.1006 19.461 -42.4385 20.2031C-44.7764 20.9453 -47.3802 21.3164 -50.25 21.3164ZM-24.5332 27.625L-24.5332 16.8633L-3.90039 -0.207031C-3.90039 -0.207031 -1.36459 -2.41504 -0.375002 -3.41699C0.614582 -4.41895 1.37532 -5.45182 1.90722 -6.51562C2.43913 -7.57943 2.70508 -8.76693 2.70508 -10.0781C2.70508 -11.4883 2.40202 -12.6943 1.7959 -13.6963C1.18978 -14.6982 0.361 -15.4714 -0.690432 -16.0156C-1.74186 -16.5599 -2.96029 -16.832 -4.34571 -16.832C-5.73112 -16.832 -6.94955 -16.5537 -8.00098 -15.9971C-9.05241 -15.4404 -6.2922 -13.7058 -5.86801 -12.6284C-7.10779 -11.907 -9.37628 -10.5827 -11.3223 -9.63281C-11.3223 -9.63281 -25.5723 -9.63281 -25.5723 -9.63281C-25.5723 -9.63281 -24.7002 -16.8568 -22.9561 -19.6523C-21.2119 -22.4479 -18.7441 -24.6064 -15.5527 -26.1279C-12.3613 -27.6494 -8.62565 -28.4102 -4.34571 -28.4102C0.0826797 -28.4102 3.91732 -27.7051 7.1582 -26.2949C10.3991 -24.8848 12.904 -22.8994 14.6728 -20.3389C16.4417 -17.7783 17.3262 -14.7786 17.3262 -11.3398C17.3262 -9.21224 16.887 -7.10319 16.0088 -5.0127C15.1305 -2.9222 13.5534 -0.602865 11.2773 1.94531C9.0013 4.49349 5.74804 7.51172 1.51758 11C1.51758 11 -3.67774 15.3047 -3.67774 15.3047L-3.67774 15.6758L17.9199 15.6758L23.3601 24.6527L17.9199 27.625L-24.5332 27.625ZM45.3066 28.3672C41.0514 28.3672 37.2786 27.6188 33.9883 26.1221C30.6979 24.6253 28.1126 22.5534 26.2324 19.9063C24.3522 17.2591 23.3874 14.2162 23.3379 10.7774C23.3379 10.7774 28.8025 7.82548 28.8025 7.82548L37.959 10.7774C37.959 10.7774 38.293 13.14 38.9609 14.0801C39.6289 15.0202 40.5195 15.7438 41.6328 16.251C42.7461 16.7582 43.9707 17.0117 45.3066 17.0117C46.8405 17.0117 48.1826 16.6839 49.333 16.0283C50.4834 15.3727 51.3864 14.4512 52.042 13.2637C52.6976 12.0762 53.0254 10.6784 53.0254 9.07033C53.0254 7.43752 52.6976 6.02117 52.042 4.8213C51.3864 3.62144 50.4834 2.6937 49.333 2.0381C48.1826 1.3825 46.8405 1.0547 45.3066 1.0547C43.6986 1.0547 43.4422 2.31536 43.4422 2.31536C43.4422 2.31536 38.6022 4.02345 37.959 5.35939C37.959 5.35939 24.748 2.76173 24.748 2.76173L26.9004 -27.668L32.366 -30.6324L64.084 -27.668L69.5014 -18.6128L64.084 -15.6445L39.2207 -15.6445L38.1816 -3.47264L38.4785 -3.47264C38.4785 -3.47264 40.8411 -6.54035 42.9687 -7.62889C45.0963 -8.71743 47.5579 -9.2617 50.3535 -9.2617C52.8027 -9.2617 55.0726 -8.82876 57.1631 -7.96288C59.2536 -7.09699 61.0719 -5.8662 62.6182 -4.27049C64.1644 -2.67479 65.3643 -0.782211 66.2178 1.40724C67.0713 3.59669 67.498 6.00262 67.498 8.62502C67.498 12.4844 66.5827 15.8985 64.7519 18.8672C62.9212 21.836 60.3421 24.1615 57.0146 25.8438C53.6872 27.5261 49.7845 28.3672 45.3066 28.3672Z"></path>
  <path fill="#DEDEDE" transform="matrix(0.53192 -0.111395 0.132823 0.634241 272.689 346.876)" d="M-51.8282 28.625L-51.8282 -26.668L-47.375 -26.668L-47.375 28.625L-51.8282 28.625ZM-49.75 22.3164C-54.2526 22.3164 -58.1058 21.4196 -61.3096 19.626C-64.5134 17.8324 -66.9626 15.3337 -68.6573 12.1299C-70.3519 8.92611 -71.1992 5.19662 -71.1992 0.941406C-71.1992 -3.3138 -70.3519 -7.0433 -68.6573 -10.2471C-66.9626 -13.4508 -64.5134 -15.9495 -61.3096 -17.7432C-58.1058 -19.5368 -54.2526 -20.4336 -49.75 -20.4336C-46.8802 -20.4336 -44.2826 -20.0625 -41.9571 -19.3203C-39.6315 -18.5781 -37.6091 -17.5205 -35.8897 -16.1475C-34.1703 -14.7744 -32.8034 -13.1169 -31.7891 -11.1748C-30.7748 -9.23275 -30.1439 -7.06185 -29.8965 -4.66211C-29.8965 -4.66211 -43.5899 -2.62109 -43.5899 -2.62109C-43.5899 -2.62109 -44.0166 -4.6683 -44.3506 -5.49707C-44.6846 -6.32584 -45.099 -7.02474 -45.5938 -7.59375C-46.0886 -8.16276 -46.6638 -8.58952 -47.3194 -8.87402C-47.975 -9.15853 -48.711 -9.30078 -49.5274 -9.30078C-50.8386 -9.30078 -51.9766 -8.92969 -52.9414 -8.1875C-53.9063 -7.44531 -54.6547 -6.31966 -55.1866 -4.81055C-55.7185 -3.30143 -55.9844 -1.40885 -55.9844 0.867188C-55.9844 3.11849 -55.7185 5.01107 -55.1866 6.54492C-54.6547 8.07878 -53.9063 9.23535 -52.9414 10.0146C-51.9766 10.7939 -50.8386 11.1836 -49.5274 11.1836C-48.711 11.1836 -47.975 11.0352 -47.3194 10.7383C-46.6638 10.4414 -46.0824 10.0023 -45.5752 9.4209C-45.0681 8.83952 -44.6475 8.11588 -44.3135 7.25C-43.9795 6.38412 -43.7383 5.39453 -43.5899 4.28125C-43.5899 4.28125 -29.8965 6.28516 -29.8965 6.28516C-29.8965 6.28516 -30.7748 10.9795 -31.7891 12.9463C-32.8034 14.9131 -34.1641 16.5954 -35.8711 17.9932C-37.5782 19.3909 -39.6006 20.4609 -41.9385 21.2031C-44.2764 21.9453 -46.8802 22.3164 -49.75 22.3164ZM-24.0332 28.625L-24.0332 17.8633L-3.4004 0.792969C-3.4004 0.792969 -0.864594 -1.41504 0.12499 -2.41699C1.11457 -3.41895 1.87532 -4.45182 2.40722 -5.51562C2.93912 -6.57943 3.20507 -7.76693 3.20507 -9.07812C3.20507 -10.4883 2.90201 -11.6943 2.29589 -12.6963C1.68977 -13.6982 0.860992 -14.4714 -0.190439 -15.0156C-1.24187 -15.5599 -2.4603 -15.832 -3.84571 -15.832C-5.23113 -15.832 -6.44955 -15.5537 -7.50099 -14.9971C-8.55242 -14.4404 -9.36883 -13.6302 -9.9502 -12.5664C-10.5316 -11.5026 -10.8223 -10.1914 -10.8223 -8.63281C-10.8223 -8.63281 -25.0723 -8.63281 -25.0723 -8.63281C-25.0723 -8.63281 -24.2002 -15.8568 -22.4561 -18.6523C-20.7119 -21.4479 -18.2441 -23.6064 -15.0527 -25.1279C-11.8613 -26.6494 -8.12566 -27.4102 -3.84571 -27.4102C0.582672 -27.4102 4.41731 -26.7051 7.65819 -25.2949C10.8991 -23.8848 13.404 -21.8994 15.1728 -19.3389C16.9417 -16.7783 17.8262 -13.7786 17.8262 -10.3398C17.8262 -8.21224 17.387 -6.10319 16.5088 -4.0127C15.6305 -1.9222 14.0534 0.397135 11.7773 2.94531C9.50129 5.49349 6.24804 8.51172 2.01757 12C2.01757 12 -3.17774 16.3047 -3.17774 16.3047L-3.17774 16.6758L18.4199 16.6758L18.4199 28.625L-24.0332 28.625ZM45.8066 29.3672C41.5514 29.3672 37.7786 28.6188 34.4883 27.1221C31.1979 25.6253 28.6126 23.5534 26.7324 20.9063C24.8522 18.2591 23.8874 15.2162 23.8379 11.7774C23.8379 11.7774 38.459 11.7774 38.459 11.7774C38.459 11.7774 38.793 14.14 39.4609 15.0801C40.1289 16.0202 41.0195 16.7438 42.1328 17.251C43.2461 17.7582 44.4707 18.0117 45.8066 18.0117C47.3405 18.0117 48.6826 17.6839 49.833 17.0283C50.9834 16.3727 51.8864 15.4512 52.542 14.2637C53.1976 13.0762 53.5254 11.6784 53.5254 10.0703C53.5254 8.43752 53.1976 7.02117 52.542 5.8213C51.8864 4.62144 50.9834 3.6937 49.833 3.0381C48.6826 2.3825 47.3405 2.0547 45.8066 2.0547C44.1986 2.0547 42.7327 2.43817 41.4092 3.20509C40.0856 3.97202 39.1022 5.02345 38.459 6.35939C38.459 6.35939 25.248 3.76173 25.248 3.76173L27.4004 -26.668L64.584 -26.668L64.584 -14.6445L39.7207 -14.6445L38.6816 -2.47264L38.9785 -2.47264C38.9785 -2.47264 41.3411 -5.54035 43.4687 -6.62889C45.5963 -7.71743 48.0579 -8.2617 50.8535 -8.2617C53.3027 -8.2617 55.5726 -7.82876 57.6631 -6.96288C59.7536 -6.09699 61.5719 -4.8662 63.1182 -3.27049C64.6644 -1.67479 65.8643 0.217789 66.7178 2.40724C67.5713 4.59669 67.998 7.00262 67.998 9.62502C67.998 13.4844 67.0827 16.8985 65.2519 19.8672C63.4212 22.836 60.8421 25.1615 57.5146 26.8438C54.1872 28.5261 50.2845 29.3672 45.8066 29.3672Z"></path>
  <clipPath id="cl_2f6">
    <path d="M248.923 370.805L241.579 335.736L243.947 335.24L251.292 370.309L248.923 370.805ZM249.19 366.572C246.795 367.074 244.627 366.934 242.684 366.153C240.742 365.373 239.107 364.061 237.78 362.218C236.453 360.374 235.507 358.103 234.942 355.404C234.377 352.706 234.332 350.246 234.808 348.025C235.284 345.804 236.255 343.947 237.721 342.452C239.187 340.958 241.117 339.96 243.512 339.458C245.039 339.139 246.47 339.085 247.805 339.296C249.141 339.508 250.357 339.953 251.454 340.633C252.551 341.312 253.498 342.211 254.296 343.33C255.093 344.449 255.717 345.755 256.168 347.25C256.168 347.25 249.155 350.069 249.155 350.069C249.155 350.069 248.656 348.819 248.368 348.33C248.08 347.842 247.767 347.445 247.428 347.139C247.09 346.833 246.727 346.626 246.341 346.519C245.954 346.412 245.544 346.403 245.109 346.494C244.412 346.64 243.856 347.003 243.441 347.581C243.027 348.159 242.778 348.956 242.696 349.973C242.613 350.989 242.723 352.219 243.025 353.663C243.324 355.09 243.717 356.261 244.204 357.175C244.69 358.088 245.242 358.738 245.859 359.125C246.476 359.512 247.133 359.632 247.83 359.486C248.264 359.395 248.636 359.219 248.946 358.958C249.255 358.697 249.506 358.353 249.698 357.928C249.891 357.503 250.018 356.997 250.081 356.411C250.144 355.824 250.141 355.17 250.072 354.447C250.072 354.447 257.622 354.193 257.622 354.193C257.622 354.193 257.778 357.268 257.5 358.628C257.221 359.989 256.721 361.207 255.999 362.284C255.276 363.361 254.343 364.265 253.198 364.996C252.053 365.727 250.717 366.252 249.19 366.572ZM263.708 367.709L262.278 360.883L270.986 347.758C270.986 347.758 272.042 346.075 272.435 345.329C272.828 344.584 273.096 343.844 273.237 343.11C273.379 342.376 273.363 341.593 273.188 340.761C273.001 339.867 272.68 339.136 272.224 338.568C271.769 338 271.225 337.602 270.594 337.374C269.962 337.146 269.278 337.109 268.541 337.263C267.804 337.418 267.193 337.73 266.707 338.2C266.222 338.67 265.895 339.275 265.728 340.014C265.56 340.754 265.579 341.618 265.786 342.606C265.786 342.606 258.206 344.194 258.206 344.194C258.206 344.194 257.711 339.515 258.267 337.548C258.823 335.58 259.849 333.936 261.345 332.616C262.84 331.295 264.726 330.397 267.003 329.92C269.359 329.427 271.492 329.447 273.403 329.98C275.314 330.513 276.91 331.494 278.191 332.921C279.472 334.347 280.341 336.151 280.798 338.333C281.081 339.682 281.127 341.068 280.938 342.492C280.748 343.916 280.217 345.563 279.345 347.432C278.473 349.302 277.143 351.579 275.356 354.262C275.356 354.262 273.165 357.571 273.165 357.571L273.214 357.807L284.702 355.401L286.289 362.979L263.708 367.709ZM300.955 360.399C298.692 360.873 296.586 360.819 294.637 360.236C292.688 359.654 291.037 358.627 289.686 357.158C288.334 355.688 287.417 353.866 286.934 351.69C286.934 351.69 294.711 350.062 294.711 350.062C294.711 350.062 295.202 351.523 295.682 352.045C296.163 352.567 296.732 352.926 297.392 353.124C298.052 353.322 298.737 353.346 299.447 353.197C300.263 353.026 300.933 352.669 301.458 352.125C301.983 351.581 302.341 350.896 302.532 350.07C302.723 349.244 302.712 348.321 302.498 347.301C302.281 346.265 301.919 345.403 301.411 344.715C300.903 344.027 300.299 343.54 299.6 343.252C298.901 342.964 298.144 342.906 297.328 343.077C296.472 343.256 295.744 343.662 295.141 344.296C294.539 344.93 294.156 345.706 293.991 346.625C293.991 346.625 286.619 346.45 286.619 346.45L283.722 326.91L303.501 322.768L305.098 330.394L291.872 333.163L292.936 340.999L293.094 340.966C293.094 340.966 293.944 338.757 294.931 337.83C295.918 336.902 297.155 336.283 298.642 335.971C299.945 335.699 301.21 335.72 302.437 336.037C303.664 336.353 304.794 336.931 305.829 337.771C306.863 338.611 307.753 339.677 308.498 340.971C309.242 342.265 309.789 343.743 310.137 345.406C310.65 347.854 310.617 350.121 310.037 352.208C309.458 354.295 308.395 356.057 306.848 357.495C305.302 358.932 303.337 359.901 300.955 360.399Z"></path>
  </clipPath>
  <g clip-path="url(#cl_2f6)">
    <path fill="#F2F1F1" transform="matrix(0.545982 0.103795 -0.0498504 0.635529 271.692 381.897)" d="M-170.753 -28.5017L169.944 -28.5017L169.944 28.5017L-170.753 28.5017L-170.753 -28.5017Z"></path>
  </g>
  <path fill="#8E8B8B" transform="matrix(0.634241 -0.132823 0.132823 0.634241 253.825 271.38)" d="M2.6226e-06 0C2.6226e-06 0 -15.2012 -1.90735e-06 -18.2664 -9.53674e-06C-66.3551 1.30369 -126.35 32.2772 -126.35 128C-126.35 223.723 -55.9022 256 -19 256C-15.9348 256 3.8147e-06 256 -3.8147e-06 256C-25.5439 256 -107.35 223.723 -107.35 128C-107.35 32.2772 -25.5439 -5.72205e-06 2.6226e-06 0Z"></path>
  <clipPath id="cl_2f8">
    <path d="M253.825 271.38C253.825 271.38 244.184 273.399 242.24 273.806C211.913 281.02 177.976 308.634 190.69 369.345C203.404 430.056 252.372 441.171 275.777 436.269C277.721 435.862 287.828 433.746 287.828 433.746C271.627 437.138 215.455 427.533 202.741 366.821C190.026 306.11 237.624 274.773 253.825 271.38Z"></path>
  </clipPath>
  <g clip-path="url(#cl_2f8)">
    <path fill="#ACABAB" transform="matrix(0.53192 -0.111395 0.132823 0.634241 233.795 397.657)" d="M-105.5 -40.8039L105 -40.8039L105 40.8039L-105.5 40.8039L-105.5 -40.8039Z"></path>
    <path fill="#D6D6D6" transform="matrix(0.53192 -0.111395 0.132823 0.634241 228.781 393.478)" d="M-105.5 -7.02944L105 -7.02944L105 7.02947L-105.5 7.02947L-105.5 -7.02944Z"></path>
    <path fill="#D6D6D6" transform="matrix(0.533433 -0.111711 0.132446 0.632443 245.158 361.248)" d="M-137.32 -30.4789L136.67 -30.4789L136.67 30.4789L-137.32 30.4789L-137.32 -30.4789Z"></path>
  </g>
  <path fill="#91A8EB" transform="matrix(0.606874 0.00990163 -0.00990163 0.606874 198.712 102.563)" d="M0 -22.5C14.6355 -22.5 26.5 -12.3145 26.5 0.25C26.5 12.8145 14.6355 23 0 23C-14.6355 23 -26.5 12.8145 -26.5 0.25C-26.5 -12.3145 -14.6355 -22.5 0 -22.5Z"></path>
  <path fill="#91A8EB" transform="matrix(0.504938 0.00823846 -0.00823846 0.504938 183.262 113.261)" d="M-1.53012e-05 -22.5C14.6355 -22.5 26.5 -12.3145 26.5 0.25C26.5 12.8145 14.6355 23 -1.52164e-05 23C-14.6356 23 -26.5 12.8145 -26.5 0.25C-26.5 -12.3145 -14.6356 -22.5 -1.53012e-05 -22.5Z"></path>
  <path fill="#91A8EB" transform="matrix(0.274279 0.00447507 -0.00447507 0.274279 164.392 80.4743)" d="M0 -22.4261C14.2962 -22.4261 25.8855 -12.274 25.8855 0.249268C25.8855 12.7726 14.2962 22.9247 0 22.9247C-14.2962 22.9247 -25.8855 12.7726 -25.8855 0.249268C-25.8855 -12.274 -14.2962 -22.4261 0 -22.4261Z"></path>
  <path fill="#C1CBE8" transform="matrix(0.073816 -0.11483 0.26388 0.16963 160.697 77.7789)" d="M0 -11.5C14.6355 -11.5 28.0061 -7.98328 28.0061 -1.63201C28.0061 4.71926 15.5059 0.400185 0.870356 0.400186C-13.7652 0.400185 -26.766 4.37689 -26.766 -1.97439C-26.766 -8.32566 -14.6355 -11.5 0 -11.5Z"></path>
  <path fill="#C1CBE8" transform="matrix(-0.166841 -0.570472 0.880441 -0.257495 183.233 139.541)" d="M0 -11.5C14.6355 -11.5 28.0061 -7.98329 28.0061 -1.63201C28.0061 4.71926 15.5059 0.400182 0.870357 0.400182C-13.7652 0.400181 -26.766 4.37688 -26.766 -1.97439C-26.766 -8.32566 -14.6355 -11.5 0 -11.5Z"></path>
  <path fill="#1B2B56" transform="matrix(1.78669 -0.21848 0.065544 0.536007 234.229 116.926)" d="M-4.8615e-07 -2.5C1.38071 -2.5 2.5 -1.38071 2.5 0C2.5 1.38071 1.38071 2.5 -4.67524e-07 2.5C-1.38071 2.5 -2.5 1.38071 -2.5 0C-2.5 -1.38071 -1.38071 -2.5 -4.8615e-07 -2.5Z"></path>
  <path fill="none" stroke="#1B2B56" stroke-width="0.5" stroke-linecap="round" stroke-linejoin="round" transform="matrix(1.78289 -0.247598 0.247598 1.78289 242.873 115.815)" d="M1.98548 0.277974L6.02909 0.184236"></path>
  <path fill="#1B2B56" transform="matrix(1.78669 -0.21848 0.065544 0.536007 262.816 113.43)" d="M-9.62988e-07 -2.50003C1.38071 -2.50003 2.5 -1.38074 2.5 -3.05176e-05C2.5 1.38068 1.38071 2.49997 -9.44361e-07 2.49997C-1.38071 2.49997 -2.5 1.38068 -2.5 -3.05176e-05C-2.5 -1.38074 -1.38071 -2.50003 -9.62988e-07 -2.50003Z"></path>
  <path fill="#354B89" transform="matrix(1.46507 -0.885005 0.929571 0.72522 254.594 106.498)" d="M7.62939e-06 -2.5C1.38072 -2.5 2.50001 -1.38071 2.50001 1.49012e-07C2.50001 1.38071 1.38072 2.5 7.62939e-06 2.5C-1.3807 2.5 -2.49999 1.38071 -2.49999 -1.49012e-07C-2.49999 -1.38071 -1.3807 -2.5 7.62939e-06 -2.5Z"></path>
  <path fill="#354B89" transform="matrix(2.16254 0.296937 -0.629837 1.0733 238.621 107.438)" d="M3.8147e-06 -2.98532C1.68306 -2.98532 3.04744 -1.64874 3.04744 1.5168e-05C3.04744 1.64877 1.68306 2.98535 3.8147e-06 2.98535C-1.68305 2.98535 -3.04744 1.64877 -3.04744 1.53496e-05C-3.04744 -1.64874 -1.68305 -2.98532 3.8147e-06 -2.98532Z"></path>
  <path fill="none" stroke="white" stroke-width="5" stroke-linecap="round" stroke-linejoin="round" transform="matrix(1.5 0 0 1.5 158.539 362.24)" d=""></path>
</svg>