<?xml version="1.0" encoding="utf-8"?>
<svg xmlns="http://www.w3.org/2000/svg" xmlns:xlink="http://www.w3.org/1999/xlink" width="512" height="512">
  <path fill="none" stroke="black" stroke-width="7" stroke-linejoin="round" transform="matrix(1.8 3.72529e-09 -3.72529e-09 1.8 210.879 409.868)" d="M-1.00244 -45.9576C16.2313 -51.8876 38.7754 -42.5336 43.7689 3.55289C39.1611 35.1415 21.8793 48.3843 12.1413 44.4035C2.40331 40.4226 -5.7103 37.454 -15.4002 33.8642C-25.1476 30.0605 -19.8315 24.262 -15.5291 1.38953C-21.3891 -37.8349 -18.2362 -40.0277 -1.00244 -45.9576Z"></path>
  <path fill="none" stroke="black" stroke-width="7" stroke-linejoin="round" transform="matrix(-2.15345 -3.29802e-07 -3.27096e-07 2.13577 356.323 283.606)" d="M19.9552 -56.1083C22.382 -51.0329 25.4341 -34.967 24.626 -31.1248C23.8178 -27.2827 26.3928 -17.6697 20.3905 5.93621C13.5675 33.9951 4.71657 55.7541 -19.8746 49.8414C-35.2894 46.0307 -41.8693 20.2905 -35.0462 -7.76831C-26.4921 -42.946 4.23629 -65.6789 19.9552 -56.1083Z"></path>
  <path fill="none" stroke="black" stroke-width="7" stroke-linejoin="round" transform="matrix(1.79976 0.0293645 -0.0293645 1.79976 266.618 284.771)" d="M0.209625 -80.0966C37.3348 -80.0966 84.5 -60 84.5 0C84.5 41.1452 46.7396 76.2788 0.209625 76.2788C-62.1658 76.2788 -84 60.12 -84 0C-84 -71.2881 -50.5087 -80.0966 0.209625 -80.0966Z"></path>
  <path fill="none" stroke="black" stroke-width="7" stroke-linejoin="round" transform="matrix(1.53671 3.18039e-09 -3.72529e-09 1.8 308.979 398.168)" d="M-2.68527 -47.7983C15.5384 -48.0159 31.0228 -41.2913 31.6441 8.28053C32.2545 22.1262 26.3669 45.9025 12.6887 45.8818C-0.989506 45.8611 -7.12511 45.8518 -19.3271 45.8333C-31.5292 45.8149 -33.7391 22.914 -34.3494 9.06832C-35.3175 -42.6903 -20.9089 -47.5808 -2.68527 -47.7983Z"></path>
  <path fill="#6C88D9" transform="matrix(-2.15345 -3.29802e-07 -3.27096e-07 2.13577 356.323 283.606)" d="M19.9552 -56.1083C22.382 -51.0329 25.4341 -34.967 24.626 -31.1248C23.8178 -27.2827 26.3928 -17.6697 20.3905 5.93621C13.5675 33.9951 4.71657 55.7541 -19.8746 49.8414C-35.2894 46.0307 -41.8693 20.2905 -35.0462 -7.76831C-26.4921 -42.946 4.23629 -65.6789 19.9552 -56.1083Z"></path>
  <path fill="#5170C8" transform="matrix(1.53671 3.18039e-09 -3.72529e-09 1.8 308.979 398.168)" d="M-2.68527 -47.7983C15.5384 -48.0159 31.0228 -41.2913 31.6441 8.28053C32.2545 22.1262 26.3669 45.9025 12.6887 45.8818C-0.989506 45.8611 -7.12511 45.8518 -19.3271 45.8333C-31.5292 45.8149 -33.7391 22.914 -34.3494 9.06832C-35.3175 -42.6903 -20.9089 -47.5808 -2.68527 -47.7983Z"></path>
  <path fill="#839BE0" transform="matrix(1.20328 2.49031e-09 -2.91698e-09 1.40944 308.979 398.168)" d="M-3.22126 -48.3374C15.0024 -48.555 29.9364 -41.7402 30.7585 12.3222C30.5452 30.2561 21.8089 45.4216 8.13071 45.4009C-5.54752 45.3802 -5.37277 45.431 -17.5748 45.4126C-29.7768 45.3941 -35.4484 31.044 -35.2351 13.11C-36.4038 -43.1392 -21.4449 -48.1199 -3.22126 -48.3374Z"></path>
  <path fill="#6C88D9" transform="matrix(1.8 3.72529e-09 -3.72529e-09 1.8 210.879 409.868)" d="M-1.00244 -45.9576C16.2313 -51.8876 38.7754 -42.5336 43.7689 3.55289C39.1611 35.1415 21.8793 48.3843 12.1413 44.4035C2.40331 40.4226 -5.7103 37.454 -15.4002 33.8642C-25.1476 30.0605 -19.8315 24.262 -15.5291 1.38953C-21.3891 -37.8349 -18.2362 -40.0277 -1.00244 -45.9576Z"></path>
  <path fill="#91A8EB" transform="matrix(-1.67686 -2.56813e-07 -3.2026e-07 2.09114 352.333 277.893)" d="M21.0577 -49.8809C42.5882 -45.6478 28.5111 -22.85 18.4314 4.6068C8.35185 32.0635 -10.1367 52.4736 -25.1559 49.5207C-40.175 46.5678 -45.0617 21.6363 -36.5334 -6.25635C-28.005 -34.149 -0.472885 -54.114 21.0577 -49.8809Z"></path>
  <path fill="none" stroke="black" stroke-width="7" stroke-miterlimit="4" transform="matrix(1.79976 0.0293645 -0.0293645 1.79976 225.166 124.952)" d="M-1.90735e-06 -29.5C19.0538 -29.5 34.5 -16.1805 34.5 0.25C34.5 16.6805 19.0538 30 -1.90735e-06 30C-19.0538 30 -34.5 16.6805 -34.5 0.25C-34.5 -16.1805 -19.0538 -29.5 -1.90735e-06 -29.5Z"></path>
  <path fill="#6C88D9" transform="matrix(1.79976 0.0293645 -0.0293645 1.79976 266.618 284.771)" d="M0.209625 -80.0966C37.3348 -80.0966 84.5 -60 84.5 0C84.5 41.1452 46.7396 76.2788 0.209625 76.2788C-62.1658 76.2788 -84 60.12 -84 0C-84 -71.2881 -50.5087 -80.0966 0.209625 -80.0966Z"></path>
  <path fill="none" stroke="black" stroke-width="9" stroke-miterlimit="4" transform="translate(256 256)" d="M-57.1431 -188.865C-42.3605 -188.624 -30.5454 -178.095 -30.7534 -165.347C-30.9614 -152.6 -43.1137 -142.462 -57.8963 -142.703C-72.6788 -142.944 -84.4939 -153.473 -84.2859 -166.221C-84.0779 -178.968 -71.9257 -189.106 -57.1431 -188.865Z"></path>
  <path fill="none" stroke="black" stroke-width="9" stroke-miterlimit="4" transform="translate(256 256)" d="M-72.6561 -173.953C-60.3565 -173.752 -50.526 -164.991 -50.6991 -154.385C-50.8721 -143.779 -60.9832 -135.344 -73.2828 -135.544C-85.5823 -135.745 -95.4128 -144.506 -95.2398 -155.112C-95.0667 -165.718 -84.9557 -174.153 -72.6561 -173.953Z"></path>
  <path fill="none" stroke="black" stroke-width="9" stroke-miterlimit="4" transform="translate(256 256)" d="M-92.6632 -198.287C-85.9822 -198.178 -80.6423 -193.419 -80.7363 -187.658C-80.8303 -181.897 -86.3226 -177.315 -93.0036 -177.424C-99.6846 -177.533 -105.024 -182.291 -104.93 -188.053C-104.836 -193.814 -99.3442 -198.396 -92.6632 -198.287Z"></path>
  <path fill="#6C88D9" transform="matrix(1.79976 0.0293645 -0.0293645 1.79976 225.166 124.952)" d="M-1.90735e-06 -29.5C19.0538 -29.5 34.5 -16.1805 34.5 0.25C34.5 16.6805 19.0538 30 -1.90735e-06 30C-19.0538 30 -34.5 16.6805 -34.5 0.25C-34.5 -16.1805 -19.0538 -29.5 -1.90735e-06 -29.5Z"></path>
  <path fill="#6C88D9" transform="matrix(0.775834 0.0126583 -0.0126583 0.775834 198.483 90.0219)" d="M0 -29.5C19.0538 -29.5 34.5 -16.1805 34.5 0.250015C34.5 16.6805 19.0538 30 0 30C-19.0538 30 -34.5 16.6805 -34.5 0.250015C-34.5 -16.1805 -19.0538 -29.5 0 -29.5Z"></path>
  <path fill="#6C88D9" transform="matrix(0.645518 0.0105321 -0.0105321 0.645518 183.033 101.09)" d="M1.52588e-05 -29.5C19.0538 -29.5 34.5 -16.1805 34.5 0.250015C34.5 16.6805 19.0538 30 1.52588e-05 30C-19.0538 30 -34.5 16.6805 -34.5 0.250015C-34.5 -16.1805 -19.0538 -29.5 1.52588e-05 -29.5Z"></path>
  <path fill="#6C88D9" transform="matrix(0.35064 0.00572097 -0.00572097 0.35064 163.168 68.0572)" d="M0 -29.5C19.0538 -29.5 34.5 -16.1805 34.5 0.25C34.5 16.6805 19.0538 30 0 30C-19.0538 30 -34.5 16.6805 -34.5 0.25C-34.5 -16.1805 -19.0538 -29.5 0 -29.5Z"></path>
  <path fill="#91A8EB" transform="matrix(1.50913 0.0246226 -0.0246226 1.50913 265.253 284.771)" d="M0.249979 -81.5196C49.8787 -81.2985 84.5 -60 84.5 -1.90735e-06C84.5 41.1452 46.78 74.5 0.25 74.5C-62.1254 74.5 -84 60.12 -84 -1.90735e-06C-84 -71.2881 -62.1254 -81.5196 0.249979 -81.5196Z"></path>
  <clipPath id="cl_5d">
    <path d="M269.347 140.623C336.163 141.713 420.459 179.267 418.697 287.253C417.489 361.304 348.498 423.427 264.755 422.061C152.494 420.229 113.672 390.506 115.438 282.305C117.531 154.003 178.066 139.133 269.347 140.623Z"></path>
  </clipPath>
  <g clip-path="url(#cl_5d)">
    <path fill="#A6B8EF" transform="matrix(0.805953 0.0131497 -0.0151654 0.929491 320.911 249.649)" d="M0.249972 -81.5196C49.8787 -81.2985 84.5 -60 84.5 -9.53674e-07C84.5 41.1452 67.1354 74.5 20.6054 74.5C-41.77 74.5 -84 60.12 -84 -9.53674e-07C-84 -71.2881 -62.1254 -81.5197 0.249972 -81.5196Z"></path>
    <path fill="#C1CBE8" transform="matrix(0.197995 -0.202726 0.445703 0.435301 344.012 200.8)" d="M11.5671 -77.0972C58.0971 -77.0972 97.5959 -41.1452 97.5959 -1.67094e-05C97.5959 41.1452 73.4188 83.0524 26.8888 83.0524C-35.4866 83.0524 11.8086 60.12 11.8086 -1.5431e-05C11.8086 -41.1452 -34.9629 -77.0972 11.5671 -77.0972Z"></path>
    <path fill="#C1CBE8" transform="matrix(0.197995 -0.202726 0.184201 0.179903 388.454 265.156)" d="M48.93 -79.7642C80.6762 -79.0529 77.4946 -42.8889 62.8507 4.00565C48.2069 50.9001 -0.03942 91.2963 -20.4536 67.777C-40.8678 44.2576 -16.8141 31.8032 -0.458991 -5.13881C15.8961 -42.0808 17.1838 -80.4755 48.93 -79.7642Z"></path>
  </g>
  <path fill="#91A8EB" transform="matrix(1.37947 2.85496e-09 -2.85496e-09 1.37947 210.879 346.868)" d="M3.24044 -1.07911C20.4742 -7.00901 43.1052 -5.3208 49.2934 47.6189C48.6563 71.5344 26.5443 93.4768 16.8063 89.4959C7.06831 85.5151 -1.04532 82.5465 -10.7352 78.9567C-20.4431 75.2819 -12.7231 68.5596 -12.0861 44.6441C-19.2795 -1.29958 -13.9933 4.85079 3.24044 -1.07911Z"></path>
  <path fill="#91A8EB" transform="matrix(1.79976 0.0293645 -0.0293645 1.79976 225.166 124.952)" d="M-1.90735e-06 -22.5C14.6355 -22.5 26.5 -12.3145 26.5 0.25C26.5 12.8145 14.6355 23 -1.90735e-06 23C-14.6355 23 -26.5 12.8145 -26.5 0.25C-26.5 -12.3145 -14.6355 -22.5 -1.90735e-06 -22.5Z"></path>
  <path fill="none" stroke="black" stroke-width="7" stroke-linecap="round" stroke-linejoin="round" transform="matrix(2.15345 4.45679e-09 -4.42021e-09 2.13577 150.431 293.27)" d="M25.3414 -27.9907C25.8203 -23.2463 26.6252 -16.146 27.9165 -4.765C34.2376 22.4765 47.6555 37.6647 25.243 49.4574C11.126 56.7708 -19.6698 35.1856 -26.0156 7.83716C-29.6004 -17.609 -18.1305 -41.6356 -4.91728 -53.1688"></path>
  <path fill="#6C88D9" transform="matrix(2.15345 4.45679e-09 -4.42021e-09 2.13577 150.431 293.27)" d="M14.6851 -59.6689C18.1661 -55.2612 24.6699 -40.2751 24.7255 -36.3479C24.781 -32.4207 25.4903 -26.1493 27.9165 -4.765C34.2376 22.4765 47.6555 37.6647 25.243 49.4574C11.126 56.7708 -19.6698 35.1856 -26.0156 7.83716C-31.4072 -30.4335 -2.74516 -65.4933 14.6851 -59.6689Z"></path>
  <path fill="#91A8EB" transform="matrix(1.67686 3.47045e-09 -4.32784e-09 2.09114 154.421 287.557)" d="M15.6397 -53.2452C37.8046 -52.9394 28.7522 -29.9369 25.8847 -4.64996C28.056 22.4301 47.6691 39.7454 34.7145 46.5172C21.76 53.2889 -16.7324 33.6493 -26.1636 7.25368C-32.4896 -23.1785 -6.52522 -53.551 15.6397 -53.2452Z"></path>
  <path fill="#312F2F" transform="matrix(0.543188 -0.0171665 0.0204687 0.647677 224.391 359.866)" d="M-7.62939e-06 -128C70.6924 -128 128 -70.6924 128 2.38419e-07C128 70.6924 70.6924 128 -7.62939e-06 128C-70.6925 128 -128 70.6924 -128 -2.38419e-07C-128 -70.6924 -70.6925 -128 -7.62939e-06 -128Z"></path>
  <path fill="none" stroke="black" stroke-width="7" stroke-miterlimit="4" transform="translate(256 256)" d="M-21.9227 20.5749C16.4766 19.3614 48.7784 55.4943 50.2254 101.28C51.6724 147.066 21.7166 185.167 -16.6827 186.38C-55.082 187.594 -87.3838 151.461 -88.8308 105.675C-90.2778 59.889 -60.322 21.7884 -21.9227 20.5749Z"></path>
  <path fill="none" stroke="black" stroke-width="7" stroke-linejoin="round" transform="translate(256 256)" d="M-21.9227 20.5749C-21.9227 20.5749 -31.7681 20.886 -33.7534 20.9488C-64.8727 22.7775 -103.096 44.0663 -101.137 106.064C-99.1773 168.061 -52.8893 187.524 -28.9886 186.769C-27.0033 186.706 -16.6827 186.38 -16.6827 186.38C-17.2398 186.398 -17.839 186.393 -18.4768 186.365"></path>
  <path fill="#DEDEDE" transform="matrix(0.543188 -0.0171665 0.0204687 0.647677 236.697 359.478)" d="M0 -128C70.6925 -128 128 -70.6924 128 2.38419e-07C128 70.6924 70.6925 128 0 128C-70.6925 128 -128 70.6924 -128 -2.38419e-07C-128 -70.6924 -70.6925 -128 0 -128Z"></path>
  <clipPath id="cl_60">
    <path d="M234.077 276.575C272.477 275.361 304.778 311.494 306.225 357.28C307.672 403.066 277.717 441.167 239.317 442.38C200.918 443.594 168.616 407.461 167.169 361.675C165.722 315.889 195.678 277.788 234.077 276.575Z"></path>
  </clipPath>
  <g clip-path="url(#cl_60)">
    <path fill="#F2F1F1" transform="matrix(0.519602 0.197188 -0.159643 0.617168 232.447 388.516)" d="M-170.753 -28.5017L169.944 -28.5017L169.944 28.5017L-170.753 28.5017L-170.753 -28.5017Z"></path>
    <path fill="#F2F1F1" transform="matrix(0.519602 0.197188 -0.159643 0.617168 225.309 412.027)" d="M-170.753 -5.22016L169.944 -5.22017L169.944 5.22016L-170.753 5.22017L-170.753 -5.22016Z"></path>
  </g>
  <path fill="#8B8B8B" transform="matrix(0.543188 -0.0171665 0.0204687 0.647677 240.208 358.718)" d="M0.25 -87.5C51.4744 -87.5 93 -48.4369 93 -0.250015C93 47.9368 51.4744 87 0.25 87C-50.9744 87 -92.5 47.9368 -92.5 -0.250015C-92.5 -48.4369 -50.9744 -87.5 0.25 -87.5Z"></path>
  <path fill="#B0AFAF" transform="matrix(0.543188 -0.0171665 0.0204687 0.647677 236.697 359.478)" d="M0 -86C47.4965 -86 86 -47.4965 86 1.60187e-07C86 47.4965 47.4965 86 0 86C-47.4965 86 -86 47.4965 -86 -1.60187e-07C-86 -47.4965 -47.4965 -86 0 -86Z"></path>
  <path fill="#8B8B8B" transform="matrix(0.543188 -0.0171665 0.0204687 0.647677 236.887 356.878)" d="M-52.3281 27.625L-52.3281 -27.668L-46.756 -30.4056L-46.7825 24.7561L-42.4192 24.6237L-47.1315 27.6684L-52.3281 27.625ZM-50.25 21.3164C-54.7526 21.3164 -58.6058 20.4196 -61.8096 18.6259C-65.0133 16.8323 -67.4626 14.3336 -69.1572 11.1299C-70.8519 7.92608 -71.6992 4.19659 -71.6992 -0.0586224C-71.6992 -4.31383 -70.8519 -8.04332 -69.1572 -11.2471C-67.4626 -14.4509 -65.0133 -16.9496 -61.8096 -18.7432C-58.6058 -20.5368 -54.7526 -21.4336 -50.25 -21.4336C-47.3802 -21.4336 -44.7826 -21.0625 -42.457 -20.3203C-40.1315 -19.5782 -38.109 -18.5205 -36.3896 -17.1475C-34.6702 -15.7744 -27.78 -10.4694 -25.0591 -8.68548C-26.0599 -7.96247 -28.21 -6.90542 -30.3965 -5.66214C-30.3965 -5.66214 -44.0898 -3.62112 -44.0898 -3.62112C-44.0898 -3.62112 -44.5166 -5.66832 -44.8506 -6.4971C-45.1846 -7.32587 -45.599 -8.02477 -46.0938 -8.59378C-46.5885 -9.16278 -47.1637 -9.58954 -47.8193 -9.87405C-48.4749 -10.1586 -49.2109 -10.3008 -50.0273 -10.3008C-51.3385 -10.3008 -52.4766 -9.92971 -53.4414 -9.18753C-54.4062 -8.44534 -55.1546 -7.31969 -55.6865 -5.81057C-56.2184 -4.30146 -56.4844 -2.40888 -56.4844 -0.132841C-56.4844 2.11846 -56.2184 4.01104 -55.6865 5.54489C-55.1546 7.07875 -54.4062 8.23532 -53.4414 9.01462C-52.4766 9.79392 -51.3385 10.1836 -50.0273 10.1836C-49.2109 10.1836 -48.4749 10.0351 -47.8193 9.73825C-47.1637 9.44138 -46.5824 9.00225 -46.0752 8.42087C-45.568 7.83949 -45.8968 6.99335 -44.8135 6.24997C-43.7302 5.5066 -38.8902 1.52305 -38.7417 0.409769C-38.7417 0.409769 -30.3965 5.28513 -30.3965 5.28513C-30.3965 5.28513 -31.2747 9.97946 -32.2891 11.9463C-33.3034 13.9131 -34.6641 15.5953 -36.3711 16.9931C-38.0781 18.3909 -40.1006 19.4609 -42.4385 20.2031C-44.7764 20.9453 -47.3802 21.3164 -50.25 21.3164ZM-24.5332 27.625L-24.5332 16.8633L-3.90039 -0.207045C-3.90039 -0.207045 -1.36459 -2.41505 -0.375004 -3.41701C0.61458 -4.41896 1.37532 -5.45183 1.90722 -6.51564C2.43912 -7.57944 2.70507 -8.76694 2.70507 -10.0781C2.70507 -11.4883 2.40201 -12.6943 1.79589 -13.6963C1.18978 -14.6983 0.360998 -15.4714 -0.690434 -16.0156C-1.74187 -16.5599 -2.96029 -16.832 -4.34571 -16.832C-5.73112 -16.832 -6.94955 -16.5537 -8.00098 -15.9971C-9.05241 -15.4404 -6.2922 -13.7058 -5.86801 -12.6284C-7.10779 -11.907 -9.37628 -10.5827 -11.3223 -9.63282C-11.3223 -9.63282 -25.5723 -9.63282 -25.5723 -9.63282C-25.5723 -9.63282 -24.7002 -16.8568 -22.9561 -19.6524C-21.2119 -22.4479 -18.7441 -24.6065 -15.5527 -26.1279C-12.3613 -27.6494 -8.62565 -28.4102 -4.34571 -28.4102C0.0826778 -28.4102 3.91732 -27.7051 7.1582 -26.2949C10.3991 -24.8848 12.904 -22.8994 14.6728 -20.3389C16.4417 -17.7783 17.3262 -14.7787 17.3262 -11.3399C17.3262 -9.21225 16.887 -7.1032 16.0088 -5.01271C15.1305 -2.92221 13.5534 -0.602879 11.2773 1.9453C9.0013 4.49348 5.74804 7.51171 1.51757 11C1.51757 11 -3.67774 15.3047 -3.67774 15.3047L-3.67774 15.6758L17.9199 15.6758L23.3601 24.6526L17.9199 27.625L-24.5332 27.625ZM45.3066 28.3672C41.0514 28.3672 37.2786 27.6188 33.9883 26.1221C30.6979 24.6253 28.1126 22.5534 26.2324 19.9062C24.3522 17.2591 23.3874 14.2161 23.3379 10.7773C23.3379 10.7773 28.8025 7.82545 28.8025 7.82545L37.959 10.7773C37.959 10.7773 38.293 13.14 38.9609 14.0801C39.6289 15.0202 40.5195 15.7438 41.6328 16.251C42.7461 16.7581 43.9707 17.0117 45.3066 17.0117C46.8405 17.0117 48.1826 16.6839 49.333 16.0283C50.4834 15.3727 51.3864 14.4512 52.042 13.2637C52.6976 12.0762 53.0254 10.6784 53.0254 9.0703C53.0254 7.43749 52.6976 6.02114 52.042 4.82128C51.3864 3.62141 50.4834 2.69367 49.333 2.03807C48.1826 1.38247 46.8405 1.05467 45.3066 1.05467C43.6986 1.05467 43.4423 2.31533 43.4423 2.31533C43.4423 2.31533 38.6022 4.02342 37.959 5.35936C37.959 5.35936 24.748 2.76171 24.748 2.76171L26.9004 -27.668L32.366 -30.6324L64.084 -27.668L69.5014 -18.6129L64.084 -15.6445L39.2207 -15.6445L38.1816 -3.47267L38.4785 -3.47267C38.4785 -3.47267 40.8411 -6.54038 42.9688 -7.62892C45.0964 -8.71746 47.5579 -9.26173 50.3535 -9.26173C52.8027 -9.26173 55.0726 -8.82878 57.1631 -7.9629C59.2536 -7.09702 61.0719 -5.86622 62.6182 -4.27052C64.1644 -2.67482 65.3643 -0.78224 66.2178 1.40721C67.0713 3.59667 67.498 6.00259 67.498 8.62499C67.498 12.4844 66.5827 15.8984 64.752 18.8672C62.9212 21.8359 60.3421 24.1614 57.0146 25.8437C53.6872 27.526 49.7845 28.3672 45.3066 28.3672Z"></path>
  <path fill="#DEDEDE" transform="matrix(0.543188 -0.0171665 0.0204687 0.647677 239.521 354.202)" d="M-51.8282 28.625L-51.8282 -26.6679L-47.375 -26.6679L-47.375 28.625L-51.8282 28.625ZM-49.75 22.3164C-54.2526 22.3164 -58.1058 21.4196 -61.3096 19.626C-64.5134 17.8324 -66.9626 15.3337 -68.6573 12.1299C-70.3519 8.92612 -71.1992 5.19663 -71.1992 0.941423C-71.1992 -3.31379 -70.3519 -7.04328 -68.6573 -10.2471C-66.9626 -13.4508 -64.5134 -15.9495 -61.3096 -17.7431C-58.1058 -19.5368 -54.2526 -20.4336 -49.75 -20.4336C-46.8802 -20.4336 -44.2826 -20.0625 -41.9571 -19.3203C-39.6315 -18.5781 -37.6091 -17.5205 -35.8897 -16.1474C-34.1703 -14.7744 -32.8034 -13.1168 -31.7891 -11.1748C-30.7748 -9.23273 -30.1439 -7.06183 -29.8965 -4.66209C-29.8965 -4.66209 -43.5899 -2.62108 -43.5899 -2.62108C-43.5899 -2.62108 -44.0166 -4.66828 -44.3506 -5.49705C-44.6846 -6.32582 -45.099 -7.02472 -45.5938 -7.59373C-46.0886 -8.16274 -46.6638 -8.5895 -47.3194 -8.874C-47.975 -9.15851 -48.711 -9.30076 -49.5274 -9.30076C-50.8386 -9.30076 -51.9766 -8.92967 -52.9414 -8.18748C-53.9063 -7.44529 -54.6547 -6.31964 -55.1866 -4.81053C-55.7185 -3.30141 -55.9844 -1.40884 -55.9844 0.867205C-55.9844 3.11851 -55.7185 5.01109 -55.1866 6.54494C-54.6547 8.07879 -53.9063 9.23537 -52.9414 10.0147C-51.9766 10.794 -50.8386 11.1836 -49.5274 11.1836C-48.711 11.1836 -47.975 11.0352 -47.3194 10.7383C-46.6638 10.4414 -46.0824 10.0023 -45.5752 9.42092C-45.0681 8.83953 -44.6475 8.1159 -44.3135 7.25002C-43.9795 6.38413 -43.7383 5.39455 -43.5899 4.28127C-43.5899 4.28127 -29.8965 6.28517 -29.8965 6.28517C-29.8965 6.28517 -30.7748 10.9795 -31.7891 12.9463C-32.8034 14.9131 -34.1641 16.5954 -35.8711 17.9932C-37.5782 19.391 -39.6006 20.461 -41.9385 21.2031C-44.2764 21.9453 -46.8802 22.3164 -49.75 22.3164ZM-24.0332 28.625L-24.0332 17.8633L-3.4004 0.792986C-3.4004 0.792986 -0.864595 -1.41502 0.124989 -2.41698C1.11457 -3.41893 1.87531 -4.4518 2.40722 -5.51561C2.93912 -6.57941 3.20507 -7.76691 3.20507 -9.07811C3.20507 -10.4883 2.90201 -11.6943 2.29589 -12.6963C1.68977 -13.6982 0.860991 -14.4713 -0.190441 -15.0156C-1.24187 -15.5599 -2.4603 -15.832 -3.84571 -15.832C-5.23113 -15.832 -6.44956 -15.5537 -7.50099 -14.9971C-8.55242 -14.4404 -9.36883 -13.6302 -9.95021 -12.5664C-10.5316 -11.5026 -10.8223 -10.1914 -10.8223 -8.63279C-10.8223 -8.63279 -25.0723 -8.63279 -25.0723 -8.63279C-25.0723 -8.63279 -24.2002 -15.8568 -22.4561 -18.6523C-20.7119 -21.4479 -18.2442 -23.6064 -15.0527 -25.1279C-11.8613 -26.6494 -8.12566 -27.4101 -3.84571 -27.4101C0.58267 -27.4101 4.41731 -26.7051 7.65819 -25.2949C10.8991 -23.8847 13.404 -21.8994 15.1728 -19.3388C16.9417 -16.7783 17.8262 -13.7786 17.8262 -10.3398C17.8262 -8.21222 17.387 -6.10317 16.5088 -4.01268C15.6305 -1.92218 14.0534 0.397152 11.7773 2.94533C9.50129 5.49351 6.24804 8.51174 2.01757 12C2.01757 12 -3.17775 16.3047 -3.17775 16.3047L-3.17775 16.6758L18.4199 16.6758L18.4199 28.625L-24.0332 28.625ZM45.8066 29.3672C41.5514 29.3672 37.7786 28.6188 34.4883 27.1221C31.1979 25.6253 28.6126 23.5534 26.7324 20.9063C24.8522 18.2591 23.8874 15.2162 23.8379 11.7774C23.8379 11.7774 38.459 11.7774 38.459 11.7774C38.459 11.7774 38.793 14.14 39.4609 15.0801C40.1289 16.0202 41.0195 16.7438 42.1328 17.251C43.2461 17.7582 44.4707 18.0117 45.8066 18.0117C47.3405 18.0117 48.6826 17.6839 49.833 17.0283C50.9834 16.3727 51.8864 15.4512 52.542 14.2637C53.1976 13.0762 53.5254 11.6784 53.5254 10.0703C53.5254 8.43752 53.1976 7.02118 52.542 5.82131C51.8864 4.62144 50.9834 3.6937 49.833 3.0381C48.6826 2.3825 47.3405 2.0547 45.8066 2.0547C44.1986 2.0547 42.7327 2.43817 41.4092 3.2051C40.0856 3.97202 39.1022 5.02345 38.459 6.35939C38.459 6.35939 25.248 3.76174 25.248 3.76174L27.4004 -26.6679L64.584 -26.6679L64.584 -14.6445L39.7207 -14.6445L38.6816 -2.47264L38.9785 -2.47264C38.9785 -2.47264 41.3411 -5.54035 43.4688 -6.62889C45.5964 -7.71743 48.0579 -8.2617 50.8535 -8.2617C53.3027 -8.2617 55.5726 -7.82875 57.6631 -6.96287C59.7536 -6.09698 61.5719 -4.86619 63.1182 -3.27049C64.6644 -1.67479 65.8643 0.217791 66.7178 2.40724C67.5713 4.5967 67.998 7.00262 67.998 9.62502C67.998 13.4844 67.0827 16.8985 65.252 19.8672C63.4212 22.836 60.8421 25.1615 57.5146 26.8438C54.1872 28.5261 50.2845 29.3672 45.8066 29.3672Z"></path>
  <clipPath id="cl_62">
    <path d="M211.955 373.631L210.823 337.819L213.242 337.743L214.373 373.555L211.955 373.631ZM212.954 369.51C210.508 369.587 208.397 369.072 206.62 367.965C204.843 366.859 203.462 365.282 202.476 363.237C201.489 361.191 200.953 358.79 200.866 356.034C200.779 353.278 201.163 350.848 202.018 348.743C202.872 346.639 204.152 344.979 205.855 343.762C207.559 342.546 209.633 341.899 212.079 341.821C213.638 341.772 215.057 341.968 216.335 342.409C217.613 342.849 218.734 343.5 219.696 344.359C220.658 345.219 221.434 346.269 222.025 347.51C222.616 348.75 223.003 350.145 223.186 351.695C223.186 351.695 215.79 353.252 215.79 353.252C215.79 353.252 215.516 351.934 215.318 351.403C215.119 350.872 214.88 350.426 214.6 350.066C214.319 349.706 213.998 349.44 213.636 349.266C213.274 349.093 212.871 349.014 212.428 349.028C211.716 349.051 211.105 349.31 210.596 349.808C210.087 350.305 209.704 351.047 209.446 352.033C209.188 353.02 209.082 354.25 209.129 355.724C209.175 357.183 209.358 358.404 209.678 359.388C209.999 360.372 210.429 361.109 210.969 361.597C211.509 362.085 212.135 362.318 212.847 362.295C213.291 362.281 213.688 362.172 214.038 361.969C214.388 361.765 214.694 361.471 214.958 361.086C215.222 360.701 215.435 360.225 215.599 359.658C215.763 359.091 215.873 358.446 215.931 357.723C215.931 357.723 223.41 358.786 223.41 358.786C223.41 358.786 223.029 361.841 222.519 363.132C222.008 364.424 221.303 365.537 220.405 366.471C219.506 367.406 218.429 368.134 217.175 368.654C215.92 369.175 214.513 369.46 212.954 369.51ZM227.052 373.154L226.832 366.184L237.69 354.774C237.69 354.774 239.022 353.3 239.54 352.634C240.057 351.968 240.449 351.286 240.716 350.588C240.983 349.89 241.103 349.116 241.076 348.267C241.047 347.354 240.858 346.578 240.508 345.939C240.159 345.301 239.693 344.814 239.11 344.48C238.528 344.145 237.861 343.99 237.108 344.014C236.356 344.037 235.699 344.239 235.14 344.617C234.58 344.996 234.153 345.535 233.859 346.234C233.565 346.932 233.434 347.787 233.466 348.796C233.466 348.796 225.725 349.041 225.725 349.041C225.725 349.041 226.051 344.347 226.941 342.506C227.832 340.666 229.128 339.226 230.83 338.185C232.533 337.145 234.546 336.588 236.871 336.515C239.277 336.439 241.374 336.83 243.163 337.687C244.952 338.545 246.354 339.788 247.367 341.416C248.38 343.044 248.922 344.972 248.992 347.199C249.036 348.577 248.841 349.95 248.406 351.319C247.972 352.688 247.163 354.218 245.979 355.907C244.795 357.597 243.089 359.607 240.863 361.939C240.863 361.939 238.129 364.816 238.129 364.816L238.136 365.057L249.868 364.686L250.112 372.425L227.052 373.154ZM265.004 372.436C262.692 372.509 260.628 372.089 258.81 371.176C256.992 370.263 255.545 368.965 254.47 367.283C253.394 365.601 252.808 363.647 252.711 361.42C252.711 361.42 260.653 361.169 260.653 361.169C260.653 361.169 260.882 362.694 261.264 363.291C261.647 363.889 262.145 364.342 262.76 364.651C263.375 364.961 264.046 365.104 264.771 365.081C265.605 365.055 266.327 364.819 266.938 364.375C267.55 363.931 268.021 363.318 268.353 362.538C268.685 361.758 268.834 360.847 268.802 359.805C268.768 358.748 268.561 357.836 268.18 357.07C267.8 356.304 267.29 355.719 266.652 355.314C266.014 354.909 265.278 354.72 264.445 354.746C263.571 354.774 262.783 355.047 262.08 355.567C261.376 356.086 260.864 356.784 260.542 357.66C260.542 357.66 253.313 356.205 253.313 356.205L253.859 336.459L274.056 335.821L274.303 343.608L260.797 344.035L260.482 351.936L260.643 351.931C260.643 351.931 261.864 349.904 262.997 349.162C264.131 348.421 265.456 348.026 266.975 347.978C268.305 347.936 269.547 348.177 270.7 348.702C271.854 349.227 272.867 349.993 273.739 351C274.612 352.007 275.302 353.212 275.811 354.615C276.319 356.019 276.6 357.57 276.654 359.268C276.733 361.768 276.305 363.995 275.372 365.949C274.438 367.903 273.085 369.454 271.312 370.6C269.539 371.747 267.436 372.359 265.004 372.436Z"></path>
  </clipPath>
  <g clip-path="url(#cl_62)">
    <path fill="#F2F1F1" transform="matrix(0.519602 0.197188 -0.159643 0.617168 232.447 388.516)" d="M-170.753 -28.5017L169.944 -28.5017L169.944 28.5017L-170.753 28.5017L-170.753 -28.5017Z"></path>
  </g>
  <path fill="#8E8B8B" transform="matrix(0.647677 -0.0204687 0.0204687 0.647677 234.077 276.575)" d="M-3.8147e-06 0C-3.8147e-06 0 -15.2012 0 -18.2664 3.8147e-06C-66.3551 1.30371 -126.35 32.2772 -126.35 128C-126.35 223.723 -55.9022 256 -19 256C-15.9348 256 -3.8147e-06 256 0 256C-25.5438 256 -107.35 223.723 -107.35 128C-107.35 32.2772 -25.5439 0 -3.8147e-06 0Z"></path>
  <clipPath id="cl_64">
    <path d="M234.077 276.575C234.077 276.575 224.232 276.886 222.247 276.949C191.127 278.777 152.904 300.066 154.863 362.064C156.823 424.061 203.111 443.524 227.011 442.769C228.997 442.706 239.317 442.38 239.317 442.38C222.773 442.903 169.129 423.672 167.169 361.675C165.21 299.677 217.533 277.098 234.077 276.575Z"></path>
  </clipPath>
  <g clip-path="url(#cl_64)">
    <path fill="#ACABAB" transform="matrix(0.543188 -0.0171665 0.0204687 0.647677 192.386 397.443)" d="M-105.5 -40.8039L105 -40.8039L105 40.8039L-105.5 40.8039L-105.5 -40.8039Z"></path>
    <path fill="#D6D6D6" transform="matrix(0.543188 -0.0171665 0.0204687 0.647677 188.176 392.455)" d="M-105.5 -7.02947L105 -7.02947L105 7.02944L-105.5 7.02944L-105.5 -7.02947Z"></path>
    <path fill="#D6D6D6" transform="matrix(0.544733 -0.0172154 0.0204107 0.64584 209.91 363.566)" d="M-137.32 -30.4789L136.67 -30.4789L136.67 30.4789L-137.32 30.4789L-137.32 -30.4789Z"></path>
  </g>
  <path fill="#91A8EB" transform="matrix(0.606874 0.00990163 -0.00990163 0.606874 198.483 92.229)" d="M-7.62939e-06 -22.5C14.6355 -22.5 26.5 -12.3144 26.5 0.250031C26.5 12.8145 14.6355 23 -7.62939e-06 23C-14.6356 23 -26.5 12.8145 -26.5 0.250031C-26.5 -12.3144 -14.6356 -22.5 -7.62939e-06 -22.5Z"></path>
  <path fill="#91A8EB" transform="matrix(0.504938 0.00823846 -0.00823846 0.504938 183.033 102.926)" d="M-4.23752e-08 -22.5C14.6355 -22.5 26.5 -12.3145 26.5 0.25C26.5 12.8145 14.6355 23 4.23752e-08 23C-14.6355 23 -26.5 12.8145 -26.5 0.25C-26.5 -12.3145 -14.6355 -22.5 -4.23752e-08 -22.5Z"></path>
  <path fill="#91A8EB" transform="matrix(0.274279 0.00447507 -0.00447507 0.274279 164.164 70.1399)" d="M3.05176e-05 -22.4262C14.2962 -22.4262 25.8855 -12.2741 25.8855 0.249207C25.8855 12.7725 14.2962 22.9246 3.05176e-05 22.9246C-14.2961 22.9246 -25.8855 12.7725 -25.8855 0.249207C-25.8855 -12.2741 -14.2961 -22.4262 3.05176e-05 -22.4262Z"></path>
  <path fill="#C1CBE8" transform="matrix(0.073816 -0.11483 0.26388 0.16963 160.369 67.4857)" d="M-6.10352e-05 -11.5C14.6355 -11.5 28.006 -7.98328 28.006 -1.63201C28.006 4.71926 15.5058 0.400185 0.870295 0.400186C-13.7652 0.400185 -26.7661 4.37689 -26.7661 -1.97439C-26.7661 -8.32566 -14.6356 -11.5 -6.10352e-05 -11.5Z"></path>
  <path fill="#C1CBE8" transform="matrix(-0.166841 -0.570472 0.880441 -0.257495 182.905 129.248)" d="M0 -11.5C14.6355 -11.5 28.0061 -7.98329 28.0061 -1.63201C28.0061 4.71926 15.5059 0.400182 0.870357 0.400182C-13.7652 0.400181 -26.766 4.37688 -26.766 -1.97439C-26.766 -8.32566 -14.6355 -11.5 0 -11.5Z"></path>
  <path fill="#1B2B56" transform="matrix(1.78669 -0.21848 0.065544 0.536007 238.977 104.527)" d="M-1.88127e-07 -2.50003C1.38071 -2.50003 2.5 -1.38074 2.5 -3.05176e-05C2.5 1.38068 1.38071 2.49997 -1.69501e-07 2.49997C-1.38071 2.49997 -2.5 1.38068 -2.5 -3.05176e-05C-2.5 -1.38074 -1.38071 -2.50003 -1.88127e-07 -2.50003Z"></path>
  <path fill="none" stroke="#1B2B56" stroke-width="0.5" stroke-linecap="round" stroke-linejoin="round" transform="matrix(1.78289 -0.247598 0.247598 1.78289 247.621 103.415)" d="M1.98548 0.277981L6.02909 0.184244"></path>
  <path fill="#1B2B56" transform="matrix(1.78669 -0.21848 0.065544 0.536007 267.564 101.031)" d="M-1.91666e-06 -2.5C1.38071 -2.5 2.5 -1.38071 2.5 0C2.5 1.38071 1.38071 2.5 -1.89804e-06 2.5C-1.38071 2.5 -2.5 1.38071 -2.5 0C-2.5 -1.38071 -1.38071 -2.5 -1.91666e-06 -2.5Z"></path>
  <path fill="#354B89" transform="matrix(1.46507 -0.885005 0.929571 0.72522 259.342 94.0993)" d="M0 -2.49999C1.38071 -2.49999 2.5 -1.3807 2.5 7.77841e-06C2.5 1.38072 1.38071 2.50001 0 2.50001C-1.38071 2.50001 -2.5 1.38072 -2.5 7.48038e-06C-2.5 -1.3807 -1.38071 -2.49999 0 -2.49999Z"></path>
  <path fill="#354B89" transform="matrix(2.16254 0.296937 -0.629837 1.0733 243.369 95.0388)" d="M0 -2.98532C1.68306 -2.98532 3.04744 -1.64874 3.04744 1.5168e-05C3.04744 1.64877 1.68306 2.98535 0 2.98535C-1.68306 2.98535 -3.04744 1.64877 -3.04744 1.53496e-05C-3.04744 -1.64874 -1.68306 -2.98532 0 -2.98532Z"></path>
  <path fill="none" stroke="white" stroke-width="5" stroke-linecap="round" stroke-linejoin="round" transform="matrix(1.5 0 0 1.5 158.539 362.24)" d=""></path>
</svg>