<?xml version="1.0" encoding="utf-8"?>
<svg xmlns="http://www.w3.org/2000/svg" xmlns:xlink="http://www.w3.org/1999/xlink" width="512" height="512">
  <path fill="none" stroke="black" stroke-width="7" stroke-linejoin="round" transform="matrix(1.8 3.72529e-09 -3.72529e-09 1.8 210.879 409.868)" d="M49.8533 -47.4475C68.0746 -47.0585 80.5449 -39.5346 79.9192 4.7505C79.9506 33.7681 72.5034 43.7127 61.9898 43.3393C51.4762 42.966 42.8365 42.9817 32.5031 42.9587C22.0417 42.7548 16.7726 31.5619 16.7416 2.53143C17.103 -43.9638 31.6321 -47.8365 49.8533 -47.4475Z"></path>
  <path fill="none" stroke="black" stroke-width="7" stroke-linejoin="round" transform="matrix(-2.15345 -3.29802e-07 -3.27096e-07 2.13577 356.127 275.561)" d="M18.5084 -58.5493C21.8361 -54.0227 27.8216 -38.8187 27.7423 -34.8919C27.663 -30.9651 31.98 -22.0094 30.4739 2.31255C28.9897 31.1637 24.342 54.2101 -0.912537 53.0512C-16.7626 52.2223 -28.0124 28.1825 -26.5282 -0.668564C-24.6674 -36.8395 1.2886 -64.9784 18.5084 -58.5493Z"></path>
  <path fill="none" stroke="black" stroke-width="7" stroke-linejoin="round" transform="matrix(1.79976 0.0293645 -0.0293645 1.79976 266.422 276.727)" d="M0.209625 -80.0966C37.3348 -80.0966 84.5 -60 84.5 0C84.5 41.1452 46.7396 76.2788 0.209625 76.2788C-62.1658 76.2788 -84 60.12 -84 0C-84 -71.2881 -50.5087 -80.0966 0.209625 -80.0966Z"></path>
  <path fill="none" stroke="black" stroke-width="7" stroke-linejoin="round" transform="matrix(1.53671 3.18039e-09 -3.72529e-09 1.8 308.979 398.168)" d="M-50.4047 -46.7867C-32.1793 -46.8131 -16.7929 -39.9265 -16.8851 9.64805C-16.474 23.499 -22.7034 47.2119 -36.3803 47.0477C-50.0571 46.8835 -56.1922 46.8099 -68.393 46.6634C-80.5938 46.5169 -82.4739 23.5945 -82.885 9.74354C-83.108 -42.0213 -68.6301 -46.7603 -50.4047 -46.7867Z"></path>
  <path fill="#6C88D9" transform="matrix(-2.15345 -3.29802e-07 -3.27096e-07 2.13577 356.127 275.561)" d="M18.5084 -58.5493C21.8361 -54.0227 27.8216 -38.8187 27.7423 -34.8919C27.663 -30.9651 31.98 -22.0094 30.4739 2.31255C28.9897 31.1637 24.342 54.2101 -0.912537 53.0512C-16.7626 52.2223 -28.0124 28.1825 -26.5282 -0.668564C-24.6674 -36.8395 1.2886 -64.9784 18.5084 -58.5493Z"></path>
  <path fill="#5170C8" transform="matrix(1.53671 3.18039e-09 -3.72529e-09 1.8 308.979 398.168)" d="M-50.4047 -46.7867C-32.1793 -46.8131 -16.7929 -39.9265 -16.8851 9.64805C-16.474 23.499 -22.7034 47.2119 -36.3803 47.0477C-50.0571 46.8835 -56.1922 46.8099 -68.393 46.6634C-80.5938 46.5169 -82.4739 23.5945 -82.885 9.74354C-83.108 -42.0213 -68.6301 -46.7603 -50.4047 -46.7867Z"></path>
  <path fill="#839BE0" transform="matrix(1.20328 2.49031e-09 -2.91698e-09 1.40944 308.979 398.168)" d="M-64.3469 -47.0442C-46.1216 -47.0706 -31.2867 -40.0997 -31.2429 13.9672C-31.7143 31.8976 -40.6682 46.9703 -54.3451 46.8061C-68.0219 46.6419 -67.848 46.6945 -80.0488 46.5481C-92.2496 46.4016 -97.7142 31.9931 -97.2428 14.0627C-97.6019 -42.1945 -82.5723 -47.0179 -64.3469 -47.0442Z"></path>
  <path fill="#6C88D9" transform="matrix(1.8 3.72529e-09 -3.72529e-09 1.8 210.879 409.868)" d="M49.8533 -47.4475C68.0746 -47.0585 80.5449 -39.5346 79.9192 4.7505C79.9506 33.7681 72.5034 43.7127 61.9898 43.3393C51.4762 42.966 42.8365 42.9817 32.5031 42.9587C22.0417 42.7548 16.7726 31.5619 16.7416 2.53143C17.103 -43.9638 31.6321 -47.8365 49.8533 -47.4475Z"></path>
  <path fill="#91A8EB" transform="matrix(-1.67686 -2.56813e-07 -3.2026e-07 2.09114 352.137 269.848)" d="M20.3359 -52.128C42.4744 -51.2072 33.9775 -26.6971 30.4967 1.78822C27.0158 30.2735 13.6274 53.1014 -1.81584 52.4591C-17.2591 51.8167 -27.8885 28.0621 -26.0334 -0.618104C-24.1782 -29.2984 -1.80257 -53.0488 20.3359 -52.128Z"></path>
  <path fill="none" stroke="black" stroke-width="7" stroke-miterlimit="4" transform="matrix(1.79976 0.0293645 -0.0293645 1.79976 224.97 114.571)" d="M-1.90735e-06 -29.5C19.0538 -29.5 34.5 -16.1805 34.5 0.25C34.5 16.6805 19.0538 30 -1.90735e-06 30C-19.0538 30 -34.5 16.6805 -34.5 0.25C-34.5 -16.1805 -19.0538 -29.5 -1.90735e-06 -29.5Z"></path>
  <path fill="#6C88D9" transform="matrix(1.79976 0.0293645 -0.0293645 1.79976 266.422 276.727)" d="M0.209625 -80.0966C37.3348 -80.0966 84.5 -60 84.5 0C84.5 41.1452 46.7396 76.2788 0.209625 76.2788C-62.1658 76.2788 -84 60.12 -84 0C-84 -71.2881 -50.5087 -80.0966 0.209625 -80.0966Z"></path>
  <path fill="none" stroke="black" stroke-width="9" stroke-miterlimit="4" transform="translate(256 256)" d="M-57.3392 -199.246C-42.5566 -199.005 -30.7416 -188.476 -30.9496 -175.728C-31.1575 -162.981 -43.3098 -152.843 -58.0924 -153.084C-72.875 -153.325 -84.69 -163.854 -84.4821 -176.602C-84.2741 -189.349 -72.1218 -199.487 -57.3392 -199.246Z"></path>
  <path fill="none" stroke="black" stroke-width="9" stroke-miterlimit="4" transform="translate(256 256)" d="M-72.8522 -184.334C-60.5527 -184.133 -50.7222 -175.372 -50.8952 -164.766C-51.0683 -154.16 -61.1793 -145.725 -73.4789 -145.925C-85.7785 -146.126 -95.609 -154.887 -95.4359 -165.493C-95.2629 -176.099 -85.1518 -184.534 -72.8522 -184.334Z"></path>
  <path fill="none" stroke="black" stroke-width="9" stroke-miterlimit="4" transform="translate(256 256)" d="M-92.8593 -208.668C-86.1783 -208.559 -80.8384 -203.8 -80.9324 -198.039C-81.0265 -192.278 -86.5187 -187.696 -93.1997 -187.805C-99.8808 -187.914 -105.221 -192.672 -105.127 -198.434C-105.033 -204.195 -99.5404 -208.777 -92.8593 -208.668Z"></path>
  <path fill="#6C88D9" transform="matrix(1.79976 0.0293645 -0.0293645 1.79976 224.97 114.571)" d="M-1.90735e-06 -29.5C19.0538 -29.5 34.5 -16.1805 34.5 0.25C34.5 16.6805 19.0538 30 -1.90735e-06 30C-19.0538 30 -34.5 16.6805 -34.5 0.25C-34.5 -16.1805 -19.0538 -29.5 -1.90735e-06 -29.5Z"></path>
  <path fill="#6C88D9" transform="matrix(0.775834 0.0126583 -0.0126583 0.775834 198.287 79.641)" d="M0 -29.5C19.0538 -29.5 34.5 -16.1805 34.5 0.25C34.5 16.6805 19.0538 30 0 30C-19.0538 30 -34.5 16.6805 -34.5 0.25C-34.5 -16.1805 -19.0538 -29.5 0 -29.5Z"></path>
  <path fill="#6C88D9" transform="matrix(0.645518 0.0105321 -0.0105321 0.645518 182.837 90.7091)" d="M0 -29.5C19.0538 -29.5 34.5 -16.1805 34.5 0.25C34.5 16.6805 19.0538 30 0 30C-19.0538 30 -34.5 16.6805 -34.5 0.25C-34.5 -16.1805 -19.0538 -29.5 0 -29.5Z"></path>
  <path fill="#6C88D9" transform="matrix(0.35064 0.00572097 -0.00572097 0.35064 162.972 57.6762)" d="M3.05176e-05 -29.5001C19.0539 -29.5001 34.5 -16.1805 34.5 0.249939C34.5 16.6804 19.0539 29.9999 3.05176e-05 29.9999C-19.0538 29.9999 -34.5 16.6804 -34.5 0.249939C-34.5 -16.1805 -19.0538 -29.5001 3.05176e-05 -29.5001Z"></path>
  <path fill="#91A8EB" transform="matrix(1.50913 0.0246226 -0.0246226 1.50913 265.057 276.727)" d="M0.249979 -81.5196C49.8787 -81.2985 84.5 -60 84.5 0C84.5 41.1452 46.78 74.5 0.25 74.5C-62.1254 74.5 -84 60.12 -84 0C-84 -71.2881 -62.1254 -81.5196 0.249979 -81.5196Z"></path>
  <clipPath id="cl_201">
    <path d="M269.151 132.578C335.967 133.668 420.263 171.223 418.501 279.208C417.293 353.26 348.302 415.383 264.559 414.017C152.298 412.185 113.476 382.462 115.242 274.26C117.335 145.959 177.87 131.089 269.151 132.578Z"></path>
  </clipPath>
  <g clip-path="url(#cl_201)">
    <path fill="#A6B8EF" transform="matrix(0.805953 0.0131497 -0.0151654 0.929491 320.715 241.605)" d="M0.249972 -81.5196C49.8787 -81.2985 84.5 -60 84.5 0C84.5 41.1452 67.1354 74.5 20.6054 74.5C-41.77 74.5 -84 60.12 -84 0C-84 -71.2881 -62.1254 -81.5197 0.249972 -81.5196Z"></path>
    <path fill="#C1CBE8" transform="matrix(0.197995 -0.202726 0.445703 0.435301 343.816 192.756)" d="M11.5671 -77.0972C58.097 -77.0972 97.5959 -41.1452 97.5959 -2.62461e-05C97.5959 41.1452 73.4187 83.0524 26.8888 83.0524C-35.4867 83.0524 11.8086 60.12 11.8086 -2.49678e-05C11.8086 -41.1452 -34.9629 -77.0972 11.5671 -77.0972Z"></path>
    <path fill="#C1CBE8" transform="matrix(0.197995 -0.202726 0.184201 0.179903 388.258 257.112)" d="M48.93 -79.7643C80.6762 -79.053 77.4946 -42.8889 62.8507 4.00562C48.2069 50.9001 -0.03942 91.2963 -20.4536 67.777C-40.8678 44.2576 -16.8141 31.8032 -0.458991 -5.13884C15.8961 -42.0808 17.1838 -80.4756 48.93 -79.7643Z"></path>
  </g>
  <path fill="#91A8EB" transform="matrix(1.37947 2.85496e-09 -2.85496e-09 1.37947 210.879 346.868)" d="M64.7527 -2.26568C82.974 -1.87672 96.5917 -2.37775 95.9411 49.1118C95.2234 74.5897 87.4318 89.0161 76.9182 88.6427C66.4046 88.2694 57.765 88.2851 47.4315 88.2621C37.0519 88.1656 29.8363 71.3204 30.554 45.8425C30.9406 -7.8574 46.5315 -2.65464 64.7527 -2.26568Z"></path>
  <path fill="#91A8EB" transform="matrix(1.79976 0.0293645 -0.0293645 1.79976 224.97 114.571)" d="M-1.90735e-06 -22.5C14.6355 -22.5 26.5 -12.3145 26.5 0.25C26.5 12.8145 14.6355 23 -1.90735e-06 23C-14.6355 23 -26.5 12.8145 -26.5 0.25C-26.5 -12.3145 -14.6355 -22.5 -1.90735e-06 -22.5Z"></path>
  <path fill="none" stroke="black" stroke-width="7" stroke-linecap="round" stroke-linejoin="round" transform="matrix(2.15345 4.45679e-09 -4.42021e-09 2.13577 150.235 285.225)" d="M28.8961 -33.9247C30.8589 -29.4388 33.8054 -22.6894 38.2236 -11.7543C51.2973 13.1862 66.8668 26.0408 47.5787 42.5186C35.4046 52.7859 1.95322 39.4752 -11.1643 14.451C-21.2311 -8.94245 -16.9482 -34.8084 -7.56452 -49.4113"></path>
  <path fill="#6C88D9" transform="matrix(2.15345 4.45679e-09 -4.42021e-09 2.13577 150.235 285.225)" d="M9.44218 -61.1469C14.0316 -57.9322 24.5284 -45.4594 25.6997 -41.7136C26.871 -37.9677 29.9949 -32.1206 38.2236 -11.7543C51.2973 13.1862 66.8668 26.0408 47.5787 42.5186C35.4046 52.7859 1.95322 39.4752 -11.1643 14.451C-26.3367 -20.8069 -8.9127 -61.6811 9.44218 -61.1469Z"></path>
  <path fill="#91A8EB" transform="matrix(1.67686 3.47045e-09 -4.32784e-09 2.09114 154.225 279.512)" d="M10.7196 -54.7704C32.0611 -59.5797 32.585 -35.5673 38.5421 -10.1876C49.3229 15.8208 72.2146 29.8775 61.4367 38.7698C50.6588 47.6622 9.15627 35.9908 -8.49804 12.1439C-24.6221 -15.7246 -10.622 -49.9612 10.7196 -54.7704Z"></path>
  <path fill="#312F2F" transform="matrix(0.526086 -0.136315 0.162537 0.627284 263.221 333.645)" d="M1.90735e-06 -128C70.6925 -128 128 -70.6925 128 0C128 70.6925 70.6925 128 1.90735e-06 128C-70.6925 128 -128 70.6925 -128 0C-128 -70.6925 -70.6925 -128 1.90735e-06 -128Z"></path>
  <path fill="none" stroke="black" stroke-width="7" stroke-miterlimit="4" transform="translate(256 256)" d="M-1.6653 -5.73544C35.525 -15.3719 74.9883 12.7643 86.4784 57.1086C97.9686 101.453 77.1345 145.213 39.9442 154.849C2.75393 164.486 -36.7094 136.35 -48.1995 92.0053C-59.6897 47.6611 -38.8556 3.90102 -1.6653 -5.73544Z"></path>
  <path fill="none" stroke="black" stroke-width="7" stroke-linejoin="round" transform="translate(256 256)" d="M-1.6653 -5.73544C-1.6653 -5.73544 -11.2008 -3.26468 -13.1235 -2.76647C-43.0769 5.86752 -75.6764 35.0481 -60.1179 95.0935C-44.5594 155.139 4.87764 163.936 28.0258 157.938C29.9486 157.439 39.9442 154.849 39.9442 154.849C39.4046 154.989 38.8191 155.116 38.1907 155.229"></path>
  <path fill="#DEDEDE" transform="matrix(0.526086 -0.136315 0.162537 0.627284 275.139 330.557)" d="M3.72529e-06 -128C70.6925 -128 128 -70.6925 128 -7.62939e-06C128 70.6924 70.6925 128 3.72529e-06 128C-70.6925 128 -128 70.6924 -128 -7.62939e-06C-128 -70.6925 -70.6925 -128 3.72529e-06 -128Z"></path>
  <clipPath id="cl_204">
    <path d="M254.335 250.265C291.525 240.628 330.988 268.764 342.478 313.109C353.969 357.453 333.135 401.213 295.944 410.849C258.754 420.486 219.291 392.35 207.8 348.005C196.31 303.661 217.144 259.901 254.335 250.265Z"></path>
  </clipPath>
  <g clip-path="url(#cl_204)">
    <path fill="#F2F1F1" transform="matrix(0.550263 0.0779731 -0.0198726 0.637172 277.385 359.818)" d="M-170.753 -28.5017L169.944 -28.5017L169.944 28.5017L-170.753 28.5017L-170.753 -28.5017Z"></path>
    <path fill="#F2F1F1" transform="matrix(0.550263 0.0779731 -0.0198726 0.637172 275.598 384.325)" d="M-170.753 -5.22018L169.944 -5.22018L169.944 5.22015L-170.753 5.22015L-170.753 -5.22018Z"></path>
  </g>
  <path fill="#8B8B8B" transform="matrix(0.526086 -0.136315 0.162537 0.627284 278.396 329.044)" d="M0.250001 -87.5C51.4744 -87.5 93 -48.4369 93 -0.250008C93 47.9368 51.4744 87 0.250001 87C-50.9744 87 -92.5 47.9368 -92.5 -0.250008C-92.5 -48.4369 -50.9744 -87.5 0.250001 -87.5Z"></path>
  <path fill="#B0AFAF" transform="matrix(0.526086 -0.136315 0.162537 0.627284 275.139 330.557)" d="M3.72529e-06 -86C47.4965 -86 86 -47.4965 86 -7.62939e-06C86 47.4965 47.4965 86 3.72529e-06 86C-47.4965 86 -86 47.4965 -86 -7.62939e-06C-86 -47.4965 -47.4965 -86 3.72529e-06 -86Z"></path>
  <path fill="#8B8B8B" transform="matrix(0.526086 -0.136315 0.162537 0.627284 274.752 327.98)" d="M-52.3281 27.625L-52.3281 -27.668L-46.756 -30.4056L-46.7825 24.7561L-42.4192 24.6238L-47.1315 27.6684L-52.3281 27.625ZM-50.25 21.3164C-54.7526 21.3164 -58.6058 20.4196 -61.8096 18.626C-65.0133 16.8324 -67.4626 14.3337 -69.1572 11.1299C-70.8519 7.92611 -71.6992 4.19662 -71.6992 -0.0585938C-71.6992 -4.3138 -70.8519 -8.0433 -69.1572 -11.2471C-67.4626 -14.4508 -65.0133 -16.9495 -61.8096 -18.7432C-58.6058 -20.5368 -54.7526 -21.4336 -50.25 -21.4336C-47.3802 -21.4336 -44.7826 -21.0625 -42.457 -20.3203C-40.1315 -19.5781 -38.109 -18.5205 -36.3896 -17.1475C-34.6702 -15.7744 -27.78 -10.4693 -25.0591 -8.68546C-26.0599 -7.96244 -28.21 -6.9054 -30.3965 -5.66211C-30.3965 -5.66211 -44.0898 -3.62109 -44.0898 -3.62109C-44.0898 -3.62109 -44.5166 -5.6683 -44.8506 -6.49707C-45.1846 -7.32584 -45.599 -8.02474 -46.0938 -8.59375C-46.5885 -9.16276 -47.1637 -9.58952 -47.8193 -9.87402C-48.4749 -10.1585 -49.2109 -10.3008 -50.0273 -10.3008C-51.3385 -10.3008 -52.4766 -9.92969 -53.4414 -9.1875C-54.4062 -8.44531 -55.1546 -7.31966 -55.6865 -5.81055C-56.2184 -4.30143 -56.4844 -2.40885 -56.4844 -0.132812C-56.4844 2.11849 -56.2184 4.01107 -55.6865 5.54492C-55.1546 7.07878 -54.4062 8.23535 -53.4414 9.01465C-52.4766 9.79395 -51.3385 10.1836 -50.0273 10.1836C-49.2109 10.1836 -48.4749 10.0352 -47.8193 9.73828C-47.1637 9.44141 -46.5824 9.00228 -46.0752 8.4209C-45.568 7.83952 -45.8968 6.99338 -44.8135 6.25C-43.7302 5.50662 -38.8902 1.52308 -38.7417 0.409798C-38.7417 0.409798 -30.3965 5.28516 -30.3965 5.28516C-30.3965 5.28516 -31.2747 9.97949 -32.2891 11.9463C-33.3034 13.9131 -34.6641 15.5954 -36.3711 16.9932C-38.0781 18.3909 -40.1006 19.4609 -42.4385 20.2031C-44.7764 20.9453 -47.3802 21.3164 -50.25 21.3164ZM-24.5332 27.625L-24.5332 16.8633L-3.90039 -0.207047C-3.90039 -0.207047 -1.36458 -2.41505 -0.374996 -3.41701C0.614588 -4.41896 1.37533 -5.45184 1.90723 -6.51564C2.43913 -7.57944 2.70508 -8.76694 2.70508 -10.0781C2.70508 -11.4883 2.40202 -12.6944 1.7959 -13.6963C1.18978 -14.6983 0.361006 -15.4714 -0.690426 -16.0156C-1.74186 -16.5599 -2.96028 -16.832 -4.3457 -16.832C-5.73112 -16.832 -6.94954 -16.5537 -8.00097 -15.9971C-9.0524 -15.4404 -6.2922 -13.7058 -5.868 -12.6284C-7.10778 -11.907 -9.37627 -10.5827 -11.3223 -9.63283C-11.3223 -9.63283 -25.5723 -9.63283 -25.5723 -9.63283C-25.5723 -9.63283 -24.7002 -16.8568 -22.9561 -19.6524C-21.2119 -22.4479 -18.7441 -24.6065 -15.5527 -26.1279C-12.3613 -27.6494 -8.62565 -28.4102 -4.3457 -28.4102C0.0826855 -28.4102 3.91732 -27.7051 7.15821 -26.2949C10.3991 -24.8848 12.904 -22.8994 14.6729 -20.3389C16.4417 -17.7783 17.3262 -14.7787 17.3262 -11.3399C17.3262 -9.21226 16.887 -7.1032 16.0088 -5.01271C15.1305 -2.92222 13.5534 -0.60288 11.2773 1.9453C9.0013 4.49347 5.74805 7.5117 1.51758 11C1.51758 11 -3.67773 15.3047 -3.67773 15.3047L-3.67773 15.6758L17.9199 15.6758L23.3601 24.6526L17.9199 27.625L-24.5332 27.625ZM45.3066 28.3672C41.0514 28.3672 37.2786 27.6188 33.9883 26.1221C30.6979 24.6253 28.1126 22.5534 26.2324 19.9062C24.3522 17.2591 23.3874 14.2161 23.3379 10.7773C23.3379 10.7773 28.8025 7.82547 28.8025 7.82547L37.959 10.7773C37.959 10.7773 38.293 13.14 38.9609 14.0801C39.6289 15.0202 40.5195 15.7438 41.6328 16.251C42.7461 16.7581 43.9707 17.0117 45.3066 17.0117C46.8405 17.0117 48.1826 16.6839 49.333 16.0283C50.4834 15.3727 51.3864 14.4512 52.042 13.2637C52.6976 12.0762 53.0254 10.6784 53.0254 9.07031C53.0254 7.4375 52.6976 6.02116 52.042 4.82129C51.3864 3.62142 50.4834 2.69369 49.333 2.03809C48.1826 1.38249 46.8405 1.05469 45.3066 1.05469C43.6986 1.05469 43.4423 2.31534 43.4423 2.31534C43.4423 2.31534 38.6022 4.02344 37.959 5.35938C37.959 5.35938 24.748 2.76172 24.748 2.76172L26.9004 -27.668L32.366 -30.6324L64.084 -27.668L69.5014 -18.6129L64.084 -15.6445L39.2207 -15.6445L38.1816 -3.47266L38.4785 -3.47266C38.4785 -3.47266 40.8411 -6.54037 42.9688 -7.62891C45.0964 -8.71745 47.5579 -9.26172 50.3535 -9.26172C52.8027 -9.26172 55.0726 -8.82877 57.1631 -7.96289C59.2536 -7.097 61.0719 -5.86621 62.6182 -4.27051C64.1644 -2.6748 65.3643 -0.782227 66.2178 1.40723C67.0713 3.59668 67.498 6.0026 67.498 8.625C67.498 12.4844 66.5827 15.8984 64.752 18.8672C62.9212 21.8359 60.3421 24.1615 57.0146 25.8438C53.6872 27.526 49.7845 28.3672 45.3066 28.3672Z"></path>
  <path fill="#DEDEDE" transform="matrix(0.526086 -0.136315 0.162537 0.627284 276.733 324.789)" d="M-51.8281 28.625L-51.8281 -26.668L-47.375 -26.668L-47.375 28.625L-51.8281 28.625ZM-49.75 22.3164C-54.2526 22.3164 -58.1058 21.4196 -61.3096 19.626C-64.5134 17.8323 -66.9626 15.3337 -68.6572 12.1299C-70.3519 8.9261 -71.1992 5.19661 -71.1992 0.941399C-71.1992 -3.31381 -70.3519 -7.0433 -68.6572 -10.2471C-66.9626 -13.4509 -64.5134 -15.9496 -61.3096 -17.7432C-58.1058 -19.5368 -54.2526 -20.4336 -49.75 -20.4336C-46.8802 -20.4336 -44.2826 -20.0625 -41.9571 -19.3203C-39.6315 -18.5781 -37.6091 -17.5205 -35.8897 -16.1475C-34.1703 -14.7744 -32.8034 -13.1169 -31.7891 -11.1748C-30.7748 -9.23275 -30.1439 -7.06186 -29.8965 -4.66212C-29.8965 -4.66212 -43.5899 -2.6211 -43.5899 -2.6211C-43.5899 -2.6211 -44.0166 -4.6683 -44.3506 -5.49708C-44.6846 -6.32585 -45.099 -7.02475 -45.5938 -7.59376C-46.0886 -8.16277 -46.6638 -8.58952 -47.3194 -8.87403C-47.975 -9.15854 -48.711 -9.30079 -49.5274 -9.30079C-50.8386 -9.30079 -51.9766 -8.9297 -52.9414 -8.18751C-53.9063 -7.44532 -54.6546 -6.31967 -55.1865 -4.81055C-55.7184 -3.30144 -55.9844 -1.40886 -55.9844 0.86718C-55.9844 3.11848 -55.7184 5.01106 -55.1865 6.54491C-54.6546 8.07877 -53.9063 9.23534 -52.9414 10.0146C-51.9766 10.7939 -50.8386 11.1836 -49.5274 11.1836C-48.711 11.1836 -47.975 11.0351 -47.3194 10.7383C-46.6638 10.4414 -46.0824 10.0023 -45.5752 9.42089C-45.0681 8.83951 -44.6475 8.11588 -44.3135 7.24999C-43.9795 6.38411 -43.7383 5.39452 -43.5899 4.28124C-43.5899 4.28124 -29.8965 6.28515 -29.8965 6.28515C-29.8965 6.28515 -30.7748 10.9795 -31.7891 12.9463C-32.8034 14.9131 -34.1641 16.5954 -35.8711 17.9932C-37.5781 19.3909 -39.6006 20.4609 -41.9385 21.2031C-44.2764 21.9453 -46.8802 22.3164 -49.75 22.3164ZM-24.0332 28.625L-24.0332 17.8633L-3.4004 0.792946C-3.4004 0.792946 -0.864594 -1.41506 0.12499 -2.41702C1.11457 -3.41897 1.87532 -4.45184 2.40722 -5.51565C2.93912 -6.57945 3.20507 -7.76695 3.20507 -9.07815C3.20507 -10.4883 2.90201 -11.6944 2.29589 -12.6963C1.68977 -13.6983 0.860992 -14.4714 -0.190439 -15.0156C-1.24187 -15.5599 -2.4603 -15.8321 -3.84571 -15.8321C-5.23113 -15.8321 -6.44955 -15.5537 -7.50099 -14.9971C-8.55242 -14.4405 -9.36883 -13.6302 -9.9502 -12.5664C-10.5316 -11.5026 -10.8223 -10.1914 -10.8223 -8.63284C-10.8223 -8.63284 -25.0723 -8.63284 -25.0723 -8.63284C-25.0723 -8.63284 -24.2002 -15.8568 -22.4561 -18.6524C-20.7119 -21.4479 -18.2442 -23.6065 -15.0527 -25.128C-11.8613 -26.6494 -8.12566 -27.4102 -3.84571 -27.4102C0.582672 -27.4102 4.41731 -26.7051 7.65819 -25.2949C10.8991 -23.8848 13.404 -21.8994 15.1728 -19.3389C16.9417 -16.7783 17.8262 -13.7787 17.8262 -10.3399C17.8262 -8.21227 17.387 -6.10321 16.5088 -4.01272C15.6305 -1.92222 14.0534 0.397112 11.7773 2.94529C9.50129 5.49347 6.24804 8.5117 2.01757 12C2.01757 12 -3.17774 16.3047 -3.17774 16.3047L-3.17774 16.6758L18.4199 16.6758L18.4199 28.625L-24.0332 28.625ZM45.8066 29.3672C41.5514 29.3672 37.7786 28.6188 34.4883 27.1221C31.1979 25.6253 28.6126 23.5534 26.7324 20.9062C24.8522 18.2591 23.8874 15.2161 23.8379 11.7773C23.8379 11.7773 38.459 11.7773 38.459 11.7773C38.459 11.7773 38.793 14.14 39.4609 15.0801C40.1289 16.0202 41.0195 16.7438 42.1328 17.251C43.2461 17.7581 44.4707 18.0117 45.8066 18.0117C47.3405 18.0117 48.6826 17.6839 49.833 17.0283C50.9834 16.3727 51.8864 15.4512 52.542 14.2637C53.1976 13.0762 53.5254 11.6784 53.5254 10.0703C53.5254 8.43749 53.1976 7.02115 52.542 5.82128C51.8864 4.62141 50.9834 3.69368 49.833 3.03808C48.6826 2.38248 47.3405 2.05468 45.8066 2.05468C44.1986 2.05468 42.7327 2.43814 41.4092 3.20507C40.0856 3.972 39.1022 5.02343 38.459 6.35937C38.459 6.35937 25.248 3.76171 25.248 3.76171L27.4004 -26.668L64.584 -26.668L64.584 -14.6445L39.7207 -14.6445L38.6816 -2.47266L38.9785 -2.47266C38.9785 -2.47266 41.3411 -5.54037 43.4687 -6.62891C45.5964 -7.71745 48.0579 -8.26173 50.8535 -8.26173C53.3027 -8.26173 55.5726 -7.82878 57.6631 -6.9629C59.7536 -6.09701 61.5719 -4.86622 63.1182 -3.27052C64.6644 -1.67481 65.8643 0.217766 66.7178 2.40722C67.5713 4.59667 67.998 7.0026 67.998 9.62499C67.998 13.4844 67.0827 16.8984 65.252 19.8672C63.4212 22.8359 60.8421 25.1615 57.5146 26.8437C54.1872 28.526 50.2845 29.3672 45.8066 29.3672Z"></path>
  <clipPath id="cl_206">
    <path d="M254.119 349.81L245.132 315.126L247.475 314.518L256.462 349.203L254.119 349.81ZM254.187 345.569C251.818 346.183 249.645 346.146 247.668 345.457C245.691 344.769 243.997 343.536 242.585 341.757C241.172 339.978 240.12 337.754 239.429 335.085C238.737 332.416 238.577 329.961 238.948 327.72C239.318 325.479 240.201 323.578 241.595 322.016C242.989 320.455 244.87 319.367 247.239 318.753C248.748 318.362 250.175 318.24 251.519 318.389C252.863 318.538 254.099 318.925 255.227 319.552C256.355 320.179 257.343 321.033 258.193 322.112C259.042 323.192 259.727 324.468 260.247 325.94C260.247 325.94 253.375 329.087 253.375 329.087C253.375 329.087 252.817 327.861 252.507 327.386C252.197 326.912 251.865 326.53 251.512 326.241C251.159 325.951 250.787 325.762 250.396 325.673C250.005 325.584 249.595 325.595 249.165 325.706C248.475 325.885 247.937 326.273 247.55 326.87C247.163 327.467 246.952 328.275 246.918 329.294C246.883 330.313 247.051 331.537 247.421 332.964C247.787 334.377 248.234 335.528 248.764 336.417C249.293 337.307 249.874 337.93 250.509 338.288C251.143 338.645 251.805 338.734 252.495 338.556C252.924 338.444 253.287 338.251 253.584 337.975C253.881 337.7 254.115 337.345 254.287 336.911C254.46 336.477 254.563 335.966 254.598 335.377C254.633 334.789 254.599 334.135 254.496 333.416C254.496 333.416 262.026 332.807 262.026 332.807C262.026 332.807 262.327 335.871 262.113 337.243C261.899 338.615 261.457 339.856 260.786 340.966C260.115 342.075 259.225 343.022 258.116 343.806C257.006 344.59 255.697 345.178 254.187 345.569ZM268.742 346.021L266.993 339.27L275.073 325.75C275.073 325.75 276.048 324.019 276.406 323.256C276.763 322.492 276.996 321.741 277.103 321.001C277.209 320.261 277.156 319.48 276.943 318.657C276.714 317.773 276.359 317.058 275.877 316.512C275.395 315.966 274.833 315.594 274.192 315.396C273.55 315.198 272.865 315.193 272.136 315.382C271.407 315.571 270.812 315.912 270.349 316.404C269.886 316.897 269.588 317.516 269.455 318.263C269.323 319.009 269.383 319.871 269.636 320.849C269.636 320.849 262.139 322.791 262.139 322.791C262.139 322.791 261.424 318.141 261.887 316.15C262.35 314.158 263.298 312.468 264.729 311.078C266.161 309.689 268.003 308.703 270.254 308.119C272.584 307.516 274.716 307.435 276.65 307.878C278.584 308.321 280.225 309.225 281.572 310.59C282.918 311.955 283.871 313.716 284.43 315.873C284.776 317.208 284.888 318.59 284.765 320.021C284.643 321.453 284.19 323.122 283.407 325.031C282.624 326.94 281.403 329.277 279.745 332.041C279.745 332.041 277.711 335.45 277.711 335.45L277.771 335.683L289.134 332.738L291.076 340.234L268.742 346.021ZM305.604 336.966C303.366 337.546 301.259 337.591 299.285 337.101C297.31 336.611 295.614 335.663 294.194 334.259C292.775 332.855 291.773 331.078 291.188 328.927C291.188 328.927 298.88 326.934 298.88 326.934C298.88 326.934 299.439 328.371 299.944 328.869C300.448 329.368 301.034 329.701 301.702 329.867C302.37 330.033 303.056 330.025 303.758 329.843C304.565 329.634 305.218 329.246 305.717 328.678C306.215 328.109 306.541 327.408 306.693 326.574C306.845 325.74 306.79 324.818 306.528 323.81C306.263 322.785 305.86 321.942 305.32 321.278C304.78 320.615 304.155 320.156 303.443 319.902C302.731 319.647 301.972 319.625 301.165 319.834C300.319 320.053 299.61 320.493 299.038 321.155C298.467 321.816 298.12 322.61 297.999 323.536C297.999 323.536 290.627 323.707 290.627 323.707L286.813 304.325L306.375 299.257L308.329 306.799L295.249 310.188L296.681 317.965L296.837 317.925C296.837 317.925 297.581 315.678 298.523 314.705C299.466 313.732 300.672 313.055 302.143 312.674C303.432 312.341 304.696 312.303 305.937 312.561C307.177 312.819 308.334 313.343 309.407 314.133C310.479 314.924 311.418 315.947 312.223 317.204C313.028 318.461 313.644 319.912 314.07 321.557C314.697 323.978 314.771 326.245 314.29 328.356C313.809 330.468 312.831 332.279 311.353 333.787C309.876 335.296 307.96 336.356 305.604 336.966Z"></path>
  </clipPath>
  <g clip-path="url(#cl_206)">
    <path fill="#F2F1F1" transform="matrix(0.550263 0.0779731 -0.0198726 0.637172 277.385 359.818)" d="M-170.753 -28.5017L169.944 -28.5017L169.944 28.5017L-170.753 28.5017L-170.753 -28.5017Z"></path>
  </g>
  <path fill="#8E8B8B" transform="matrix(0.627284 -0.162537 0.162537 0.627284 254.335 250.265)" d="M-2.86102e-06 1.23978e-05C-2.86102e-06 1.23978e-05 -15.2012 1.38283e-05 -18.2664 3.33786e-06C-66.3551 1.3037 -126.35 32.2772 -126.35 128C-126.35 223.723 -55.9022 256 -19 256C-15.9348 256 -3.8147e-06 256 -3.8147e-06 256C-25.5439 256 -107.35 223.723 -107.35 128C-107.35 32.2772 -25.5439 8.34465e-06 -2.86102e-06 1.23978e-05Z"></path>
  <clipPath id="cl_208">
    <path d="M254.335 250.265C254.335 250.265 244.799 252.735 242.876 253.234C212.923 261.868 180.324 291.048 195.882 351.094C211.441 411.139 260.878 419.936 284.026 413.938C285.949 413.439 295.944 410.849 295.944 410.849C279.921 415.001 223.359 408.051 207.8 348.005C192.242 287.96 238.311 254.416 254.335 250.265Z"></path>
  </clipPath>
  <g clip-path="url(#cl_208)">
    <path fill="#ACABAB" transform="matrix(0.526086 -0.136315 0.162537 0.627284 240.272 377.345)" d="M-105.5 -40.8039L105 -40.8039L105 40.8039L-105.5 40.8039L-105.5 -40.8039Z"></path>
    <path fill="#D6D6D6" transform="matrix(0.526086 -0.136315 0.162537 0.627284 235.067 373.406)" d="M-105.5 -7.02944L105 -7.02944L105 7.02947L-105.5 7.02947L-105.5 -7.02944Z"></path>
    <path fill="#D6D6D6" transform="matrix(0.527582 -0.136703 0.162076 0.625506 249.909 340.442)" d="M-137.32 -30.4789L136.67 -30.4789L136.67 30.4789L-137.32 30.4789L-137.32 -30.4789Z"></path>
  </g>
  <path fill="#91A8EB" transform="matrix(0.606874 0.00990163 -0.00990163 0.606874 198.287 81.8481)" d="M0 -22.5C14.6355 -22.5 26.5 -12.3144 26.5 0.250031C26.5 12.8145 14.6355 23 0 23C-14.6355 23 -26.5 12.8145 -26.5 0.250031C-26.5 -12.3144 -14.6355 -22.5 0 -22.5Z"></path>
  <path fill="#91A8EB" transform="matrix(0.504938 0.00823846 -0.00823846 0.504938 182.837 92.5455)" d="M1.52164e-05 -22.5C14.6356 -22.5 26.5 -12.3145 26.5 0.249969C26.5 12.8144 14.6356 23 1.53012e-05 23C-14.6355 23 -26.5 12.8144 -26.5 0.24997C-26.5 -12.3145 -14.6355 -22.5 1.52164e-05 -22.5Z"></path>
  <path fill="#91A8EB" transform="matrix(0.274279 0.00447507 -0.00447507 0.274279 163.968 59.7589)" d="M3.05176e-05 -22.4261C14.2962 -22.4261 25.8855 -12.274 25.8855 0.249268C25.8855 12.7726 14.2962 22.9247 3.05176e-05 22.9247C-14.2961 22.9247 -25.8855 12.7726 -25.8855 0.249268C-25.8855 -12.274 -14.2961 -22.4261 3.05176e-05 -22.4261Z"></path>
  <path fill="#C1CBE8" transform="matrix(0.073816 -0.11483 0.26388 0.16963 160.194 57.1356)" d="M-0.00012207 -11.4999C14.6354 -11.4999 28.006 -7.98322 28.006 -1.63195C28.006 4.71933 15.5058 0.400246 0.870234 0.400247C-13.7653 0.400246 -26.7661 4.37695 -26.7661 -1.97432C-26.7661 -8.3256 -14.6357 -11.4999 -0.00012207 -11.4999Z"></path>
  <path fill="#C1CBE8" transform="matrix(-0.166841 -0.570472 0.880441 -0.257495 182.73 118.898)" d="M-3.05176e-05 -11.5C14.6355 -11.5 28.0061 -7.98328 28.0061 -1.632C28.0061 4.71927 15.5059 0.40019 0.870326 0.40019C-13.7652 0.400188 -26.7661 4.37689 -26.7661 -1.97438C-26.7661 -8.32566 -14.6356 -11.5 -3.05176e-05 -11.5Z"></path>
  <path fill="#1B2B56" transform="matrix(1.78669 -0.21848 0.065544 0.536007 237.753 92.6033)" d="M-4.26546e-07 -2.49997C1.38071 -2.49997 2.5 -1.38068 2.5 3.05176e-05C2.5 1.38074 1.38071 2.50003 -4.07919e-07 2.50003C-1.38071 2.50003 -2.5 1.38074 -2.5 3.05176e-05C-2.5 -1.38068 -1.38071 -2.49997 -4.26546e-07 -2.49997Z"></path>
  <path fill="none" stroke="#1B2B56" stroke-width="0.5" stroke-linecap="round" stroke-linejoin="round" transform="matrix(1.78289 -0.247598 0.247598 1.78289 246.396 91.4917)" d="M1.98548 0.277974L6.02909 0.184236"></path>
  <path fill="#1B2B56" transform="matrix(1.78669 -0.21848 0.065544 0.536007 266.34 89.1075)" d="M-9.31323e-09 -2.5C1.38071 -2.5 2.5 -1.38071 2.5 0C2.5 1.38071 1.38071 2.5 9.31323e-09 2.5C-1.38071 2.5 -2.5 1.38071 -2.5 0C-2.5 -1.38071 -1.38071 -2.5 -9.31323e-09 -2.5Z"></path>
  <path fill="#354B89" transform="matrix(1.46507 -0.885005 0.929571 0.72522 258.117 82.1755)" d="M7.62939e-06 -2.5C1.38072 -2.5 2.50001 -1.38071 2.50001 1.49012e-07C2.50001 1.38071 1.38072 2.5 7.62939e-06 2.5C-1.3807 2.5 -2.49999 1.38071 -2.49999 -1.49012e-07C-2.49999 -1.38071 -1.3807 -2.5 7.62939e-06 -2.5Z"></path>
  <path fill="#354B89" transform="matrix(2.16254 0.296937 -0.629837 1.0733 242.145 83.115)" d="M-3.8147e-06 -2.98532C1.68305 -2.98532 3.04744 -1.64874 3.04744 1.5168e-05C3.04744 1.64877 1.68305 2.98535 -3.8147e-06 2.98535C-1.68306 2.98535 -3.04744 1.64877 -3.04744 1.53496e-05C-3.04744 -1.64874 -1.68306 -2.98532 -3.8147e-06 -2.98532Z"></path>
  <path fill="none" stroke="white" stroke-width="5" stroke-linecap="round" stroke-linejoin="round" transform="matrix(1.5 0 0 1.5 158.539 362.24)" d=""></path>
</svg>