<?xml version="1.0" encoding="utf-8"?>
<svg xmlns="http://www.w3.org/2000/svg" xmlns:xlink="http://www.w3.org/1999/xlink" width="512" height="512">
  <path fill="none" stroke="black" stroke-width="7" stroke-linejoin="round" transform="matrix(1.8 3.72529e-09 -3.72529e-09 1.8 210.879 409.868)" d="M29.231 -46.9496C47.4538 -46.6376 59.9557 -39.1663 59.5171 5.12101C59.6711 34.1381 52.266 44.1142 41.7508 43.7852C31.2357 43.4562 22.5963 43.5085 12.2628 43.5291C1.8007 43.3694 -3.51571 32.1989 -3.66927 3.16877C-3.50423 -43.3275 11.0083 -47.2616 29.231 -46.9496Z"></path>
  <path fill="none" stroke="black" stroke-width="7" stroke-linejoin="round" transform="matrix(-2.15345 -3.29802e-07 -3.27096e-07 2.13577 356.499 290.832)" d="M19.1968 -57.5167C22.1435 -52.7293 26.8672 -37.08 26.4676 -33.1731C26.0679 -29.2662 29.6389 -19.9826 26.152 4.13178C22.317 32.7617 15.8032 55.3442 -9.27094 52.0928C-24.9995 49.9509 -34.2481 25.0589 -30.4131 -3.57102C-25.6052 -39.4647 2.56033 -65.3535 19.1968 -57.5167Z"></path>
  <path fill="none" stroke="black" stroke-width="7" stroke-linejoin="round" transform="matrix(1.79976 0.0293645 -0.0293645 1.79976 266.794 291.997)" d="M0.209625 -80.0966C37.3348 -80.0966 84.5 -60 84.5 -1.90735e-06C84.5 41.1452 46.7396 76.2788 0.209625 76.2788C-62.1658 76.2788 -84 60.12 -84 -1.90735e-06C-84 -71.2881 -50.5087 -80.0966 0.209625 -80.0966Z"></path>
  <path fill="none" stroke="black" stroke-width="7" stroke-linejoin="round" transform="matrix(1.53671 3.18039e-09 -3.72529e-09 1.8 308.979 398.168)" d="M-35.5328 -46.7284C-18.47 -52.1968 11.1972 -43.2264 17.7904 7.37558C14.6956 24.7802 -6.77698 50.9337 -19.1717 45.9951C-31.5664 41.0564 -37.1264 38.8411 -48.1834 34.4354C-59.2405 30.0298 -46.0058 14.5213 -43.2272 5.84973C-50.7398 -38.1896 -52.5955 -41.26 -35.5328 -46.7284Z"></path>
  <path fill="#6C88D9" transform="matrix(-2.15345 -3.29802e-07 -3.27096e-07 2.13577 356.499 290.832)" d="M19.1968 -57.5167C22.1435 -52.7293 26.8672 -37.08 26.4676 -33.1731C26.0679 -29.2662 29.6389 -19.9826 26.152 4.13178C22.317 32.7617 15.8032 55.3442 -9.27094 52.0928C-24.9995 49.9509 -34.2481 25.0589 -30.4131 -3.57102C-25.6052 -39.4647 2.56033 -65.3535 19.1968 -57.5167Z"></path>
  <path fill="#5170C8" transform="matrix(1.53671 3.18039e-09 -3.72529e-09 1.8 308.979 398.168)" d="M-35.5328 -46.7284C-18.47 -52.1968 11.1972 -43.2264 17.7904 7.37558C14.6956 24.7802 -6.77698 50.9337 -19.1717 45.9951C-31.5664 41.0564 -37.1264 38.8411 -48.1834 34.4354C-59.2405 30.0298 -46.0058 14.5213 -43.2272 5.84973C-50.7398 -38.1896 -52.5955 -41.26 -35.5328 -46.7284Z"></path>
  <path fill="#839BE0" transform="matrix(1.20328 2.49031e-09 -2.91698e-09 1.40944 308.979 398.168)" d="M-40.1479 -47.7804C-23.0852 -53.2488 6.72779 -44.0464 13.7172 10.704C8.54711 31.7081 -12.9004 48.8083 -25.2951 43.8697C-37.6899 38.931 -37.5564 39.0399 -48.6135 34.6343C-59.6706 30.2286 -52.1543 21.4492 -47.3003 9.17815C-55.2093 -39.0096 -57.2107 -42.312 -40.1479 -47.7804Z"></path>
  <path fill="#6C88D9" transform="matrix(1.8 3.72529e-09 -3.72529e-09 1.8 210.879 409.868)" d="M29.231 -46.9496C47.4538 -46.6376 59.9557 -39.1663 59.5171 5.12101C59.6711 34.1381 52.266 44.1142 41.7508 43.7852C31.2357 43.4562 22.5963 43.5085 12.2628 43.5291C1.8007 43.3694 -3.51571 32.1989 -3.66927 3.16877C-3.50423 -43.3275 11.0083 -47.2616 29.231 -46.9496Z"></path>
  <path fill="#91A8EB" transform="matrix(-1.67686 -2.56813e-07 -3.2026e-07 2.09114 352.509 285.119)" d="M20.7163 -51.1596C42.6852 -48.7804 31.7007 -24.9145 25.3071 3.24429C18.9135 31.4031 3.2267 53.2696 -12.0981 51.6099C-27.423 49.9502 -35.5775 25.5745 -30.784 -2.88595C-25.9906 -31.3464 -1.25243 -53.5389 20.7163 -51.1596Z"></path>
  <path fill="none" stroke="black" stroke-width="7" stroke-miterlimit="4" transform="matrix(1.79976 0.0293645 -0.0293645 1.79976 225.343 132.721)" d="M1.90735e-06 -29.5C19.0538 -29.5 34.5 -16.1805 34.5 0.249992C34.5 16.6805 19.0538 30 1.90735e-06 30C-19.0538 30 -34.5 16.6805 -34.5 0.249992C-34.5 -16.1805 -19.0538 -29.5 1.90735e-06 -29.5Z"></path>
  <path fill="#6C88D9" transform="matrix(1.79976 0.0293645 -0.0293645 1.79976 266.794 291.997)" d="M0.209625 -80.0966C37.3348 -80.0966 84.5 -60 84.5 -1.90735e-06C84.5 41.1452 46.7396 76.2788 0.209625 76.2788C-62.1658 76.2788 -84 60.12 -84 -1.90735e-06C-84 -71.2881 -50.5087 -80.0966 0.209625 -80.0966Z"></path>
  <path fill="none" stroke="black" stroke-width="9" stroke-miterlimit="4" transform="translate(256 256)" d="M-56.9669 -181.096C-42.1843 -180.855 -30.3692 -170.326 -30.5772 -157.579C-30.7852 -144.831 -42.9375 -134.693 -57.7201 -134.934C-72.5027 -135.175 -84.3177 -145.705 -84.1097 -158.452C-83.9017 -171.199 -71.7495 -181.337 -56.9669 -181.096Z"></path>
  <path fill="none" stroke="black" stroke-width="9" stroke-miterlimit="4" transform="translate(256 256)" d="M-72.4799 -166.184C-60.1803 -165.983 -50.3498 -157.222 -50.5229 -146.616C-50.6959 -136.01 -60.807 -127.575 -73.1066 -127.775C-85.4062 -127.976 -95.2366 -136.737 -95.0636 -147.343C-94.8905 -157.949 -84.7795 -166.384 -72.4799 -166.184Z"></path>
  <path fill="none" stroke="black" stroke-width="9" stroke-miterlimit="4" transform="translate(256 256)" d="M-92.487 -190.518C-85.806 -190.409 -80.4661 -185.65 -80.5601 -179.889C-80.6541 -174.128 -86.1464 -169.546 -92.8274 -169.655C-99.5084 -169.764 -104.848 -174.522 -104.754 -180.284C-104.66 -186.045 -99.168 -190.627 -92.487 -190.518Z"></path>
  <path fill="#6C88D9" transform="matrix(1.79976 0.0293645 -0.0293645 1.79976 225.343 132.721)" d="M1.90735e-06 -29.5C19.0538 -29.5 34.5 -16.1805 34.5 0.249992C34.5 16.6805 19.0538 30 1.90735e-06 30C-19.0538 30 -34.5 16.6805 -34.5 0.249992C-34.5 -16.1805 -19.0538 -29.5 1.90735e-06 -29.5Z"></path>
  <path fill="#6C88D9" transform="matrix(0.775834 0.0126583 -0.0126583 0.775834 198.66 97.7908)" d="M0 -29.5C19.0538 -29.5 34.5 -16.1805 34.5 0.25C34.5 16.6805 19.0538 30 0 30C-19.0538 30 -34.5 16.6805 -34.5 0.25C-34.5 -16.1805 -19.0538 -29.5 0 -29.5Z"></path>
  <path fill="#6C88D9" transform="matrix(0.645518 0.0105321 -0.0105321 0.645518 183.209 108.859)" d="M7.62939e-06 -29.5C19.0538 -29.5 34.5 -16.1805 34.5 0.250015C34.5 16.6805 19.0538 30 7.62939e-06 30C-19.0538 30 -34.5 16.6805 -34.5 0.250015C-34.5 -16.1805 -19.0538 -29.5 7.62939e-06 -29.5Z"></path>
  <path fill="#6C88D9" transform="matrix(0.35064 0.00572097 -0.00572097 0.35064 163.344 75.8261)" d="M0 -29.5C19.0538 -29.5 34.5 -16.1805 34.5 0.25C34.5 16.6805 19.0538 30 0 30C-19.0538 30 -34.5 16.6805 -34.5 0.25C-34.5 -16.1805 -19.0538 -29.5 0 -29.5Z"></path>
  <path fill="#91A8EB" transform="matrix(1.50913 0.0246226 -0.0246226 1.50913 265.429 291.997)" d="M0.249979 -81.5196C49.8787 -81.2985 84.5 -60 84.5 -1.90735e-06C84.5 41.1452 46.78 74.5 0.25 74.5C-62.1254 74.5 -84 60.12 -84 -1.90735e-06C-84 -71.2881 -62.1254 -81.5196 0.249979 -81.5196Z"></path>
  <clipPath id="cl_373">
    <path d="M269.523 147.849C336.34 148.939 420.635 186.493 418.874 294.479C417.665 368.53 348.674 430.654 264.931 429.287C152.67 427.456 113.849 397.733 115.614 289.531C117.707 161.229 178.242 146.36 269.523 147.849Z"></path>
  </clipPath>
  <g clip-path="url(#cl_373)">
    <path fill="#A6B8EF" transform="matrix(0.805953 0.0131497 -0.0151654 0.929491 321.088 256.876)" d="M0.24998 -81.5196C49.8787 -81.2985 84.5 -60 84.5 8.9407e-08C84.5 41.1452 67.1354 74.5 20.6054 74.5C-41.77 74.5 -84 60.12 -84 8.9407e-08C-84 -71.2881 -62.1254 -81.5197 0.24998 -81.5196Z"></path>
    <path fill="#C1CBE8" transform="matrix(0.197995 -0.202726 0.445703 0.435301 344.188 208.026)" d="M11.5671 -77.0972C58.0971 -77.0972 97.5959 -41.1452 97.5959 -2.05241e-05C97.5959 41.1452 73.4188 83.0524 26.8888 83.0524C-35.4866 83.0524 11.8086 60.12 11.8086 -1.92457e-05C11.8086 -41.1452 -34.9629 -77.0972 11.5671 -77.0972Z"></path>
    <path fill="#C1CBE8" transform="matrix(0.197995 -0.202726 0.184201 0.179903 388.63 272.382)" d="M48.93 -79.7642C80.6763 -79.0529 77.4946 -42.8889 62.8508 4.00565C48.2069 50.9001 -0.0393895 91.2963 -20.4536 67.777C-40.8678 44.2576 -16.8141 31.8032 -0.458961 -5.13881C15.8962 -42.0808 17.1838 -80.4755 48.93 -79.7642Z"></path>
  </g>
  <path fill="#91A8EB" transform="matrix(1.37947 2.85496e-09 -2.85496e-09 1.37947 210.879 346.868)" d="M37.9028 -1.61481C56.1255 -1.30279 69.7411 -1.8613 69.3079 49.6305C68.6978 75.1112 60.9672 89.5704 50.4521 89.2414C39.937 88.9124 31.2975 88.9647 20.9641 88.9853C10.5841 88.9327 3.29745 72.118 3.90755 46.6373C4.06732 -7.06365 19.68 -1.92683 37.9028 -1.61481Z"></path>
  <path fill="#91A8EB" transform="matrix(1.79976 0.0293645 -0.0293645 1.79976 225.343 132.721)" d="M1.90735e-06 -22.5C14.6355 -22.5 26.5 -12.3145 26.5 0.249992C26.5 12.8145 14.6355 23 1.90735e-06 23C-14.6355 23 -26.5 12.8145 -26.5 0.249992C-26.5 -12.3145 -14.6355 -22.5 1.90735e-06 -22.5Z"></path>
  <path fill="none" stroke="black" stroke-width="7" stroke-linecap="round" stroke-linejoin="round" transform="matrix(2.15345 4.45679e-09 -4.42021e-09 2.13577 150.607 300.496)" d="M27.7307 -31.2642C29.164 -26.5328 31.2904 -19.393 34.2812 -7.83395C43.8837 18.7327 57.1151 34.0479 35.6334 47.4868C22.0943 55.8374 -8.67318 38.0391 -18.3062 11.388C-25.1843 -13.0591 -17.7159 -38.0057 -6.6155 -51.2298"></path>
  <path fill="#6C88D9" transform="matrix(2.15345 4.45679e-09 -4.42021e-09 2.13577 150.607 300.496)" d="M11.7583 -60.6979C15.9115 -56.9282 24.7735 -43.2262 25.4695 -39.3618C26.1655 -35.4974 28.7395 -29.2517 34.2812 -7.83395C43.8837 18.7327 57.1151 34.0479 35.6334 47.4868C22.0943 55.8374 -8.67318 38.0391 -18.3062 11.388C-28.6879 -25.5117 -6.38513 -63.5495 11.7583 -60.6979Z"></path>
  <path fill="#91A8EB" transform="matrix(1.67686 3.47045e-09 -4.32784e-09 2.09114 154.597 294.783)" d="M12.9119 -54.2531C34.8372 -56.8776 31.906 -32.9936 33.7042 -7.07578C39.9847 19.9452 59.7132 36.7197 47.4218 44.2445C35.1304 51.7692 -3.35788 35.5848 -16.8356 9.95838C-28.2033 -19.33 -9.01336 -51.6286 12.9119 -54.2531Z"></path>
  <path fill="#312F2F" transform="matrix(0.540412 -0.0574732 0.0685289 0.644366 243.989 361.536)" d="M0 -128C70.6925 -128 128 -70.6924 128 0C128 70.6924 70.6925 128 0 128C-70.6925 128 -128 70.6924 -128 0C-128 -70.6924 -70.6925 -128 0 -128Z"></path>
  <path fill="none" stroke="black" stroke-width="7" stroke-miterlimit="4" transform="translate(256 256)" d="M-8.5398 21.7546C29.6632 17.6917 64.5601 51.3251 69.4046 96.8769C74.2491 142.429 47.2066 182.649 9.00359 186.712C-29.1994 190.775 -64.0963 157.142 -68.9408 111.59C-73.7853 66.0383 -46.7428 25.8176 -8.5398 21.7546Z"></path>
  <path fill="none" stroke="black" stroke-width="7" stroke-linejoin="round" transform="translate(256 256)" d="M-8.5398 21.7546C-8.5398 21.7546 -18.3349 22.7964 -20.31 23.0064C-51.2074 27.1419 -87.7436 51.2116 -81.1838 112.892C-74.624 174.573 -27.0179 190.543 -3.23937 188.014C-1.26423 187.804 9.00359 186.712 9.00359 186.712C8.44931 186.771 7.85142 186.811 7.21321 186.83"></path>
  <path fill="#DEDEDE" transform="matrix(0.540412 -0.0574732 0.0685289 0.644366 256.232 360.234)" d="M-1.90735e-06 -128C70.6925 -128 128 -70.6925 128 -1.52588e-05C128 70.6924 70.6925 128 -1.90735e-06 128C-70.6925 128 -128 70.6924 -128 -1.52588e-05C-128 -70.6925 -70.6925 -128 -1.90735e-06 -128Z"></path>
  <clipPath id="cl_376">
    <path d="M247.46 277.755C285.663 273.692 320.56 307.325 325.405 352.877C330.249 398.429 303.207 438.649 265.004 442.712C226.801 446.775 191.904 413.142 187.059 367.59C182.215 322.038 209.257 281.818 247.46 277.755Z"></path>
  </clipPath>
  <g clip-path="url(#cl_376)">
    <path fill="#F2F1F1" transform="matrix(0.532816 0.158041 -0.113352 0.627323 254.15 389.507)" d="M-170.753 -28.5017L169.944 -28.5017L169.944 28.5017L-170.753 28.5017L-170.753 -28.5017Z"></path>
    <path fill="#F2F1F1" transform="matrix(0.532816 0.158041 -0.113352 0.627323 248.779 413.484)" d="M-170.753 -5.22016L169.944 -5.22016L169.944 5.22016L-170.753 5.22016L-170.753 -5.22016Z"></path>
  </g>
  <path fill="#8B8B8B" transform="matrix(0.540412 -0.0574732 0.0685289 0.644366 259.676 359.216)" d="M0.250001 -87.5C51.4744 -87.5 93 -48.4368 93 -0.25C93 47.9368 51.4744 87 0.250001 87C-50.9744 87 -92.5 47.9368 -92.5 -0.25C-92.5 -48.4368 -50.9744 -87.5 0.250001 -87.5Z"></path>
  <path fill="#B0AFAF" transform="matrix(0.540412 -0.0574732 0.0685289 0.644366 256.232 360.234)" d="M-1.90735e-06 -86C47.4965 -86 86 -47.4965 86 -1.52588e-05C86 47.4965 47.4965 86 -1.90735e-06 86C-47.4965 86 -86 47.4965 -86 -1.52588e-05C-86 -47.4965 -47.4965 -86 -1.90735e-06 -86Z"></path>
  <path fill="#8B8B8B" transform="matrix(0.540412 -0.0574732 0.0685289 0.644366 256.228 357.627)" d="M-52.3281 27.625L-52.3281 -27.668L-46.756 -30.4056L-46.7825 24.7561L-42.4192 24.6237L-47.1315 27.6684L-52.3281 27.625ZM-50.25 21.3164C-54.7526 21.3164 -58.6058 20.4196 -61.8096 18.626C-65.0133 16.8323 -67.4626 14.3336 -69.1572 11.1299C-70.8519 7.92609 -71.6992 4.1966 -71.6992 -0.0586071C-71.6992 -4.31382 -70.8519 -8.04331 -69.1572 -11.2471C-67.4626 -14.4509 -65.0133 -16.9496 -61.8096 -18.7432C-58.6058 -20.5368 -54.7526 -21.4336 -50.25 -21.4336C-47.3802 -21.4336 -44.7826 -21.0625 -42.457 -20.3203C-40.1315 -19.5781 -38.109 -18.5205 -36.3896 -17.1475C-34.6702 -15.7744 -27.78 -10.4694 -25.0591 -8.68547C-26.0599 -7.96245 -28.21 -6.90541 -30.3965 -5.66212C-30.3965 -5.66212 -44.0898 -3.62111 -44.0898 -3.62111C-44.0898 -3.62111 -44.5166 -5.66831 -44.8506 -6.49708C-45.1846 -7.32586 -45.599 -8.02475 -46.0938 -8.59376C-46.5885 -9.16277 -47.1637 -9.58953 -47.8193 -9.87403C-48.4749 -10.1585 -49.2109 -10.3008 -50.0273 -10.3008C-51.3385 -10.3008 -52.4766 -9.9297 -53.4414 -9.18751C-54.4062 -8.44532 -55.1546 -7.31968 -55.6865 -5.81056C-56.2184 -4.30145 -56.4844 -2.40887 -56.4844 -0.132826C-56.4844 2.11848 -56.2184 4.01105 -55.6865 5.54491C-55.1546 7.07876 -54.4062 8.23534 -53.4414 9.01464C-52.4766 9.79393 -51.3385 10.1836 -50.0273 10.1836C-49.2109 10.1836 -48.4749 10.0351 -47.8193 9.73827C-47.1637 9.44139 -46.5824 9.00226 -46.0752 8.42089C-45.568 7.8395 -45.8968 6.99336 -44.8135 6.24999C-43.7302 5.50661 -38.8902 1.52307 -38.7417 0.409784C-38.7417 0.409784 -30.3965 5.28514 -30.3965 5.28514C-30.3965 5.28514 -31.2747 9.97948 -32.2891 11.9463C-33.3034 13.9131 -34.6641 15.5954 -36.3711 16.9931C-38.0781 18.3909 -40.1006 19.4609 -42.4385 20.2031C-44.7764 20.9453 -47.3802 21.3164 -50.25 21.3164ZM-24.5332 27.625L-24.5332 16.8633L-3.90039 -0.207045C-3.90039 -0.207045 -1.36458 -2.41505 -0.375 -3.41701C0.614584 -4.41896 1.37533 -5.45183 1.90723 -6.51564C2.43913 -7.57944 2.70508 -8.76694 2.70508 -10.0781C2.70508 -11.4883 2.40202 -12.6943 1.7959 -13.6963C1.18978 -14.6983 0.361002 -15.4714 -0.69043 -16.0156C-1.74186 -16.5599 -2.96029 -16.832 -4.3457 -16.832C-5.73112 -16.832 -6.94954 -16.5537 -8.00098 -15.9971C-9.05241 -15.4404 -6.2922 -13.7058 -5.868 -12.6284C-7.10779 -11.907 -9.37628 -10.5827 -11.3223 -9.63282C-11.3223 -9.63282 -25.5723 -9.63282 -25.5723 -9.63282C-25.5723 -9.63282 -24.7002 -16.8568 -22.9561 -19.6524C-21.2119 -22.4479 -18.7441 -24.6065 -15.5527 -26.1279C-12.3613 -27.6494 -8.62565 -28.4102 -4.3457 -28.4102C0.0826817 -28.4102 3.91732 -27.7051 7.1582 -26.2949C10.3991 -24.8848 12.904 -22.8994 14.6729 -20.3389C16.4417 -17.7783 17.3262 -14.7787 17.3262 -11.3399C17.3262 -9.21225 16.887 -7.1032 16.0088 -5.01271C15.1305 -2.92221 13.5534 -0.602879 11.2773 1.9453C9.0013 4.49348 5.74805 7.51171 1.51758 11C1.51758 11 -3.67773 15.3047 -3.67773 15.3047L-3.67773 15.6758L17.9199 15.6758L23.3601 24.6526L17.9199 27.625L-24.5332 27.625ZM45.3066 28.3672C41.0514 28.3672 37.2786 27.6188 33.9883 26.1221C30.6979 24.6253 28.1126 22.5534 26.2324 19.9062C24.3522 17.2591 23.3874 14.2161 23.3379 10.7773C23.3379 10.7773 28.8025 7.82545 28.8025 7.82545L37.959 10.7773C37.959 10.7773 38.293 13.14 38.9609 14.0801C39.6289 15.0202 40.5195 15.7438 41.6328 16.251C42.7461 16.7581 43.9707 17.0117 45.3066 17.0117C46.8405 17.0117 48.1826 16.6839 49.333 16.0283C50.4834 15.3727 51.3864 14.4512 52.042 13.2637C52.6976 12.0762 53.0254 10.6784 53.0254 9.0703C53.0254 7.43749 52.6976 6.02114 52.042 4.82128C51.3864 3.62141 50.4834 2.69367 49.333 2.03807C48.1826 1.38247 46.8405 1.05467 45.3066 1.05467C43.6986 1.05467 43.4423 2.31533 43.4423 2.31533C43.4423 2.31533 38.6022 4.02342 37.959 5.35936C37.959 5.35936 24.748 2.76171 24.748 2.76171L26.9004 -27.668L32.366 -30.6324L64.084 -27.668L69.5014 -18.6129L64.084 -15.6445L39.2207 -15.6445L38.1816 -3.47267L38.4785 -3.47267C38.4785 -3.47267 40.8411 -6.54038 42.9688 -7.62892C45.0964 -8.71746 47.5579 -9.26173 50.3535 -9.26173C52.8027 -9.26173 55.0726 -8.82878 57.1631 -7.9629C59.2536 -7.09702 61.0719 -5.86622 62.6182 -4.27052C64.1644 -2.67482 65.3643 -0.78224 66.2178 1.40721C67.0713 3.59667 67.498 6.00259 67.498 8.62499C67.498 12.4844 66.5827 15.8984 64.752 18.8672C62.9212 21.8359 60.3421 24.1614 57.0146 25.8437C53.6872 27.526 49.7845 28.3672 45.3066 28.3672Z"></path>
  <path fill="#DEDEDE" transform="matrix(0.540412 -0.0574732 0.0685289 0.644366 258.656 354.762)" d="M-51.8282 28.625L-51.8282 -26.668L-47.375 -26.668L-47.375 28.625L-51.8282 28.625ZM-49.75 22.3164C-54.2526 22.3164 -58.1058 21.4196 -61.3096 19.626C-64.5134 17.8324 -66.9626 15.3337 -68.6573 12.1299C-70.3519 8.92611 -71.1992 5.19662 -71.1992 0.941408C-71.1992 -3.3138 -70.3519 -7.04329 -68.6573 -10.2471C-66.9626 -13.4508 -64.5134 -15.9495 -61.3096 -17.7432C-58.1058 -19.5368 -54.2526 -20.4336 -49.75 -20.4336C-46.8802 -20.4336 -44.2826 -20.0625 -41.9571 -19.3203C-39.6315 -18.5781 -37.6091 -17.5205 -35.8897 -16.1475C-34.1703 -14.7744 -32.8034 -13.1169 -31.7891 -11.1748C-30.7748 -9.23274 -30.1439 -7.06185 -29.8965 -4.66211C-29.8965 -4.66211 -43.5899 -2.62109 -43.5899 -2.62109C-43.5899 -2.62109 -44.0166 -4.66829 -44.3506 -5.49707C-44.6846 -6.32584 -45.099 -7.02474 -45.5938 -7.59375C-46.0886 -8.16275 -46.6638 -8.58951 -47.3194 -8.87402C-47.975 -9.15853 -48.711 -9.30078 -49.5274 -9.30078C-50.8386 -9.30078 -51.9766 -8.92968 -52.9414 -8.1875C-53.9063 -7.44531 -54.6547 -6.31966 -55.1866 -4.81054C-55.7185 -3.30143 -55.9844 -1.40885 -55.9844 0.867189C-55.9844 3.11849 -55.7185 5.01107 -55.1866 6.54492C-54.6547 8.07878 -53.9063 9.23535 -52.9414 10.0147C-51.9766 10.7939 -50.8386 11.1836 -49.5274 11.1836C-48.711 11.1836 -47.975 11.0352 -47.3194 10.7383C-46.6638 10.4414 -46.0824 10.0023 -45.5752 9.4209C-45.0681 8.83952 -44.6475 8.11589 -44.3135 7.25C-43.9795 6.38412 -43.7383 5.39453 -43.5899 4.28125C-43.5899 4.28125 -29.8965 6.28516 -29.8965 6.28516C-29.8965 6.28516 -30.7748 10.9795 -31.7891 12.9463C-32.8034 14.9131 -34.1641 16.5954 -35.8711 17.9932C-37.5782 19.391 -39.6006 20.4609 -41.9385 21.2031C-44.2764 21.9453 -46.8802 22.3164 -49.75 22.3164ZM-24.0332 28.625L-24.0332 17.8633L-3.4004 0.792955C-3.4004 0.792955 -0.864595 -1.41505 0.124989 -2.41701C1.11457 -3.41896 1.87531 -4.45183 2.40722 -5.51564C2.93912 -6.57944 3.20507 -7.76694 3.20507 -9.07814C3.20507 -10.4883 2.90201 -11.6943 2.29589 -12.6963C1.68977 -13.6983 0.860991 -14.4714 -0.190441 -15.0156C-1.24187 -15.5599 -2.4603 -15.832 -3.84571 -15.832C-5.23113 -15.832 -6.44956 -15.5537 -7.50099 -14.9971C-8.55242 -14.4404 -9.36883 -13.6302 -9.95021 -12.5664C-10.5316 -11.5026 -10.8223 -10.1914 -10.8223 -8.63282C-10.8223 -8.63282 -25.0723 -8.63282 -25.0723 -8.63282C-25.0723 -8.63282 -24.2002 -15.8568 -22.4561 -18.6524C-20.7119 -21.4479 -18.2442 -23.6065 -15.0527 -25.1279C-11.8613 -26.6494 -8.12566 -27.4102 -3.84571 -27.4102C0.58267 -27.4102 4.41731 -26.7051 7.65819 -25.2949C10.8991 -23.8848 13.404 -21.8994 15.1728 -19.3389C16.9417 -16.7783 17.8262 -13.7787 17.8262 -10.3399C17.8262 -8.21225 17.387 -6.1032 16.5088 -4.01271C15.6305 -1.92221 14.0534 0.397121 11.7773 2.9453C9.50129 5.49348 6.24804 8.51171 2.01757 12C2.01757 12 -3.17775 16.3047 -3.17775 16.3047L-3.17775 16.6758L18.4199 16.6758L18.4199 28.625L-24.0332 28.625ZM45.8066 29.3672C41.5514 29.3672 37.7786 28.6188 34.4883 27.1221C31.1979 25.6253 28.6126 23.5534 26.7324 20.9062C24.8522 18.2591 23.8874 15.2161 23.8379 11.7773C23.8379 11.7773 38.459 11.7773 38.459 11.7773C38.459 11.7773 38.793 14.14 39.4609 15.0801C40.1289 16.0202 41.0195 16.7438 42.1328 17.251C43.2461 17.7581 44.4707 18.0117 45.8066 18.0117C47.3405 18.0117 48.6826 17.6839 49.833 17.0283C50.9834 16.3727 51.8864 15.4512 52.542 14.2637C53.1976 13.0762 53.5254 11.6784 53.5254 10.0703C53.5254 8.43749 53.1976 7.02114 52.542 5.82128C51.8864 4.62141 50.9834 3.69367 49.833 3.03807C48.6826 2.38247 47.3405 2.05467 45.8066 2.05467C44.1986 2.05467 42.7327 2.43814 41.4092 3.20506C40.0856 3.97199 39.1022 5.02342 38.459 6.35936C38.459 6.35936 25.248 3.76171 25.248 3.76171L27.4004 -26.668L64.584 -26.668L64.584 -14.6445L39.7207 -14.6445L38.6816 -2.47267L38.9785 -2.47267C38.9785 -2.47267 41.3411 -5.54038 43.4688 -6.62892C45.5964 -7.71746 48.0579 -8.26173 50.8535 -8.26173C53.3027 -8.26173 55.5726 -7.82878 57.6631 -6.9629C59.7536 -6.09702 61.5719 -4.86622 63.1182 -3.27052C64.6644 -1.67482 65.8643 0.21776 66.7178 2.40721C67.5713 4.59667 67.998 7.00259 67.998 9.62499C67.998 13.4844 67.0827 16.8984 65.252 19.8672C63.4212 22.8359 60.8421 25.1614 57.5146 26.8437C54.1872 28.526 50.2845 29.3672 45.8066 29.3672Z"></path>
  <clipPath id="cl_378">
    <path d="M232.609 376.186L228.82 340.557L231.226 340.301L235.016 375.93L232.609 376.186ZM233.3 372.002C230.866 372.26 228.723 371.904 226.868 370.932C225.014 369.961 223.519 368.492 222.384 366.525C221.249 364.558 220.535 362.203 220.244 359.461C219.952 356.719 220.154 354.267 220.851 352.106C221.547 349.944 222.699 348.193 224.308 346.853C225.916 345.513 227.937 344.714 230.37 344.455C231.921 344.29 233.35 344.38 234.658 344.725C235.965 345.069 237.131 345.634 238.154 346.42C239.177 347.206 240.03 348.196 240.711 349.389C241.392 350.582 241.882 351.945 242.18 353.477C242.18 353.477 234.92 355.579 234.92 355.579C234.92 355.579 234.549 354.284 234.312 353.769C234.074 353.255 233.803 352.828 233.496 352.49C233.19 352.152 232.85 351.91 232.476 351.764C232.102 351.618 231.695 351.569 231.253 351.616C230.545 351.691 229.955 351.996 229.485 352.529C229.014 353.063 228.687 353.831 228.503 354.834C228.319 355.837 228.305 357.072 228.461 358.539C228.615 359.99 228.888 361.194 229.281 362.152C229.674 363.109 230.157 363.812 230.732 364.258C231.307 364.705 231.949 364.891 232.657 364.815C233.098 364.768 233.486 364.63 233.82 364.401C234.154 364.172 234.438 363.856 234.672 363.452C234.906 363.049 235.084 362.558 235.205 361.981C235.326 361.404 235.389 360.752 235.393 360.026C235.393 360.026 242.93 360.531 242.93 360.531C242.93 360.531 242.777 363.606 242.364 364.932C241.951 366.257 241.331 367.42 240.504 368.418C239.677 369.417 238.657 370.223 237.445 370.835C236.232 371.448 234.851 371.837 233.3 372.002ZM247.63 374.589L246.892 367.654L256.873 355.469C256.873 355.469 258.092 353.9 258.558 353.198C259.024 352.495 259.364 351.786 259.579 351.07C259.793 350.354 259.856 349.574 259.766 348.729C259.669 347.82 259.423 347.06 259.027 346.449C258.63 345.839 258.13 345.388 257.524 345.098C256.919 344.808 256.241 344.702 255.493 344.782C254.744 344.862 254.105 345.111 253.575 345.53C253.045 345.949 252.659 346.518 252.418 347.237C252.176 347.956 252.109 348.817 252.216 349.822C252.216 349.822 244.515 350.641 244.515 350.641C244.515 350.641 244.491 345.936 245.242 344.034C245.993 342.133 247.179 340.6 248.799 339.436C250.42 338.272 252.386 337.567 254.699 337.321C257.092 337.067 259.213 337.301 261.061 338.023C262.909 338.746 264.399 339.881 265.53 341.429C266.662 342.977 267.345 344.859 267.581 347.075C267.727 348.446 267.634 349.831 267.302 351.228C266.971 352.626 266.278 354.211 265.222 355.983C264.167 357.756 262.616 359.888 260.569 362.379C260.569 362.379 258.056 365.451 258.056 365.451L258.081 365.69L269.753 364.449L270.572 372.149L247.63 374.589ZM285.423 371.053C283.123 371.298 281.033 371.032 279.152 370.257C277.272 369.482 275.733 368.295 274.535 366.697C273.338 365.1 272.608 363.194 272.345 360.981C272.345 360.981 280.247 360.141 280.247 360.141C280.247 360.141 280.589 361.644 281.014 362.212C281.44 362.779 281.971 363.194 282.607 363.457C283.244 363.72 283.923 363.813 284.645 363.736C285.474 363.648 286.176 363.359 286.753 362.871C287.33 362.382 287.755 361.737 288.028 360.934C288.301 360.131 288.382 359.211 288.272 358.175C288.16 357.123 287.886 356.229 287.449 355.494C287.013 354.758 286.461 354.212 285.794 353.856C285.128 353.5 284.38 353.366 283.551 353.454C282.682 353.546 281.916 353.878 281.254 354.448C280.591 355.018 280.131 355.752 279.875 356.65C279.875 356.65 272.558 355.735 272.558 355.735L271.636 336.004L291.73 333.867L292.554 341.614L279.118 343.043L279.391 350.946L279.551 350.929C279.551 350.929 280.617 348.816 281.693 347.993C282.768 347.169 284.061 346.677 285.572 346.516C286.895 346.375 288.152 346.524 289.341 346.962C290.53 347.4 291.597 348.088 292.542 349.027C293.487 349.967 294.265 351.117 294.876 352.479C295.487 353.841 295.883 355.367 296.062 357.056C296.327 359.543 296.066 361.796 295.28 363.814C294.494 365.832 293.26 367.479 291.577 368.754C289.894 370.029 287.843 370.796 285.423 371.053Z"></path>
  </clipPath>
  <g clip-path="url(#cl_378)">
    <path fill="#F2F1F1" transform="matrix(0.532816 0.158041 -0.113352 0.627323 254.15 389.507)" d="M-170.753 -28.5017L169.944 -28.5017L169.944 28.5017L-170.753 28.5017L-170.753 -28.5017Z"></path>
  </g>
  <path fill="#8E8B8B" transform="matrix(0.644366 -0.0685289 0.0685289 0.644366 247.46 277.755)" d="M1.90735e-06 -3.8147e-06C1.90735e-06 -3.8147e-06 -15.2012 0 -18.2664 -7.62939e-06C-66.3551 1.30369 -126.35 32.2772 -126.35 128C-126.35 223.723 -55.9022 256 -19 256C-15.9348 256 9.53674e-07 256 -9.53674e-07 256C-25.5438 256 -107.35 223.723 -107.35 128C-107.35 32.2772 -25.5438 -7.62939e-06 1.90735e-06 -3.8147e-06Z"></path>
  <clipPath id="cl_37a">
    <path d="M247.46 277.755C247.46 277.755 237.665 278.796 235.69 279.006C204.793 283.142 168.256 307.212 174.816 368.892C181.376 430.573 228.982 446.543 252.761 444.014C254.736 443.804 265.004 442.712 265.004 442.712C248.544 444.463 193.619 429.271 187.059 367.59C180.499 305.91 231.001 279.505 247.46 277.755Z"></path>
  </clipPath>
  <g clip-path="url(#cl_37a)">
    <path fill="#ACABAB" transform="matrix(0.540412 -0.0574732 0.0685289 0.644366 214.863 401.386)" d="M-105.5 -40.8039L105 -40.8039L105 40.8039L-105.5 40.8039L-105.5 -40.8039Z"></path>
    <path fill="#D6D6D6" transform="matrix(0.540412 -0.0574732 0.0685289 0.644366 210.294 396.724)" d="M-105.5 -7.02947L105 -7.02947L105 7.02944L-105.5 7.02944L-105.5 -7.02947Z"></path>
    <path fill="#D6D6D6" transform="matrix(0.541949 -0.0576367 0.0683345 0.642539 229.822 366.3)" d="M-137.32 -30.4789L136.67 -30.4789L136.67 30.4789L-137.32 30.4789L-137.32 -30.4789Z"></path>
  </g>
  <path fill="#91A8EB" transform="matrix(0.606874 0.00990163 -0.00990163 0.606874 198.66 99.9979)" d="M0 -22.5C14.6355 -22.5 26.5 -12.3145 26.5 0.249985C26.5 12.8145 14.6355 23 0 23C-14.6355 23 -26.5 12.8145 -26.5 0.249985C-26.5 -12.3145 -14.6355 -22.5 0 -22.5Z"></path>
  <path fill="#91A8EB" transform="matrix(0.504938 0.00823846 -0.00823846 0.504938 183.209 110.695)" d="M-4.23752e-08 -22.5C14.6355 -22.5 26.5 -12.3145 26.5 0.25C26.5 12.8145 14.6355 23 4.23752e-08 23C-14.6355 23 -26.5 12.8145 -26.5 0.25C-26.5 -12.3145 -14.6355 -22.5 -4.23752e-08 -22.5Z"></path>
  <path fill="#91A8EB" transform="matrix(0.274279 0.00447507 -0.00447507 0.274279 164.34 77.9088)" d="M3.05176e-05 -22.4261C14.2962 -22.4261 25.8855 -12.274 25.8855 0.249268C25.8855 12.7726 14.2962 22.9247 3.05176e-05 22.9247C-14.2961 22.9247 -25.8855 12.7726 -25.8855 0.249268C-25.8855 -12.274 -14.2961 -22.4261 3.05176e-05 -22.4261Z"></path>
  <path fill="#C1CBE8" transform="matrix(0.073816 -0.11483 0.26388 0.16963 160.635 75.2283)" d="M-0.00012207 -11.5C14.6354 -11.5 28.006 -7.98328 28.006 -1.63201C28.006 4.71926 15.5058 0.400185 0.870234 0.400186C-13.7653 0.400185 -26.7661 4.37689 -26.7661 -1.97439C-26.7661 -8.32566 -14.6357 -11.5 -0.00012207 -11.5Z"></path>
  <path fill="#C1CBE8" transform="matrix(-0.166841 -0.570472 0.880441 -0.257495 183.171 136.99)" d="M0 -11.5C14.6355 -11.5 28.0061 -7.98329 28.0061 -1.63201C28.0061 4.71926 15.5059 0.400182 0.870357 0.400182C-13.7652 0.400181 -26.766 4.37688 -26.766 -1.97439C-26.766 -8.32566 -14.6355 -11.5 0 -11.5Z"></path>
  <path fill="#1B2B56" transform="matrix(1.78669 -0.21848 0.065544 0.536007 234.674 113.615)" d="M-4.8615e-07 -2.49997C1.38071 -2.49997 2.5 -1.38068 2.5 3.05176e-05C2.5 1.38074 1.38071 2.50003 -4.67524e-07 2.50003C-1.38071 2.50003 -2.5 1.38074 -2.5 3.05176e-05C-2.5 -1.38068 -1.38071 -2.49997 -4.8615e-07 -2.49997Z"></path>
  <path fill="none" stroke="#1B2B56" stroke-width="0.5" stroke-linecap="round" stroke-linejoin="round" transform="matrix(1.78289 -0.247598 0.247598 1.78289 243.318 112.503)" d="M1.98548 0.277981L6.02909 0.184244"></path>
  <path fill="#1B2B56" transform="matrix(1.78669 -0.21848 0.065544 0.536007 263.262 110.119)" d="M-9.62988e-07 -2.5C1.38071 -2.5 2.5 -1.38071 2.5 0C2.5 1.38071 1.38071 2.5 -9.44361e-07 2.5C-1.38071 2.5 -2.5 1.38071 -2.5 0C-2.5 -1.38071 -1.38071 -2.5 -9.62988e-07 -2.5Z"></path>
  <path fill="#354B89" transform="matrix(1.46507 -0.885005 0.929571 0.72522 255.039 103.187)" d="M0 -2.49999C1.38071 -2.49999 2.5 -1.3807 2.5 7.77841e-06C2.5 1.38072 1.38071 2.50001 0 2.50001C-1.38071 2.50001 -2.5 1.38072 -2.5 7.48038e-06C-2.5 -1.3807 -1.38071 -2.49999 0 -2.49999Z"></path>
  <path fill="#354B89" transform="matrix(2.16254 0.296937 -0.629837 1.0733 239.066 104.126)" d="M0 -2.98532C1.68306 -2.98532 3.04744 -1.64874 3.04744 1.5168e-05C3.04744 1.64877 1.68306 2.98535 0 2.98535C-1.68306 2.98535 -3.04744 1.64877 -3.04744 1.53496e-05C-3.04744 -1.64874 -1.68306 -2.98532 0 -2.98532Z"></path>
  <path fill="none" stroke="white" stroke-width="5" stroke-linecap="round" stroke-linejoin="round" transform="matrix(1.5 0 0 1.5 158.539 362.24)" d=""></path>
</svg>