<?xml version="1.0" encoding="utf-8"?>
<svg xmlns="http://www.w3.org/2000/svg" xmlns:xlink="http://www.w3.org/1999/xlink" width="512" height="512">
  <path fill="none" stroke="black" stroke-width="7" stroke-linejoin="round" transform="matrix(1.8 3.72529e-09 -3.72529e-09 1.8 210.879 409.868)" d="M50.7963 -47.4703C69.0175 -47.0792 81.487 -39.5537 80.8559 4.73132C80.8838 33.7488 73.4354 43.6926 62.9218 43.3179C52.4082 42.9433 43.7686 42.958 33.4352 42.9338C22.9739 42.7286 17.706 31.535 17.6786 2.50459C18.0457 -43.9906 32.5751 -47.8615 50.7963 -47.4703Z"></path>
  <path fill="none" stroke="black" stroke-width="7" stroke-linejoin="round" transform="matrix(-2.15345 -3.29802e-07 -3.27096e-07 2.13577 356.109 274.809)" d="M18.475 -58.5951C21.8195 -54.0813 27.8619 -38.9001 27.7973 -34.9731C27.7327 -31.046 32.0831 -22.1068 30.668 2.22071C29.2918 31.0773 24.7304 54.1413 -0.528366 53.0784C-16.3814 52.3098 -27.721 28.313 -26.3448 -0.543573C-24.6193 -36.7214 1.23116 -64.9588 18.475 -58.5951Z"></path>
  <path fill="none" stroke="black" stroke-width="7" stroke-linejoin="round" transform="matrix(1.79976 0.0293645 -0.0293645 1.79976 266.403 275.974)" d="M0.209625 -80.0966C37.3348 -80.0966 84.5 -60 84.5 0C84.5 41.1452 46.7396 76.2788 0.209625 76.2788C-62.1658 76.2788 -84 60.12 -84 0C-84 -71.2881 -50.5087 -80.0966 0.209625 -80.0966Z"></path>
  <path fill="none" stroke="black" stroke-width="7" stroke-linejoin="round" transform="matrix(1.53671 3.18039e-09 -3.72529e-09 1.8 308.979 398.168)" d="M-51.359 -46.7665C-33.1336 -46.7889 -17.7492 -39.8991 -17.8559 9.67548C-17.4488 23.5266 -23.6852 47.238 -37.362 47.0709C-51.0388 46.9038 -57.1738 46.8288 -69.3746 46.6797C-81.5753 46.5307 -83.4487 23.608 -83.8558 9.75693C-84.0637 -42.008 -69.5844 -46.744 -51.359 -46.7665Z"></path>
  <path fill="#6C88D9" transform="matrix(-2.15345 -3.29802e-07 -3.27096e-07 2.13577 356.109 274.809)" d="M18.475 -58.5951C21.8195 -54.0813 27.8619 -38.9001 27.7973 -34.9731C27.7327 -31.046 32.0831 -22.1068 30.668 2.22071C29.2918 31.0773 24.7304 54.1413 -0.528366 53.0784C-16.3814 52.3098 -27.721 28.313 -26.3448 -0.543573C-24.6193 -36.7214 1.23116 -64.9588 18.475 -58.5951Z"></path>
  <path fill="#5170C8" transform="matrix(1.53671 3.18039e-09 -3.72529e-09 1.8 308.979 398.168)" d="M-51.359 -46.7665C-33.1336 -46.7889 -17.7492 -39.8991 -17.8559 9.67548C-17.4488 23.5266 -23.6852 47.238 -37.362 47.0709C-51.0388 46.9038 -57.1738 46.8288 -69.3746 46.6797C-81.5753 46.5307 -83.4487 23.608 -83.8558 9.75693C-84.0637 -42.008 -69.5844 -46.744 -51.359 -46.7665Z"></path>
  <path fill="#839BE0" transform="matrix(1.20328 2.49031e-09 -2.91698e-09 1.40944 308.979 398.168)" d="M-65.5694 -47.0184C-47.344 -47.0409 -32.5112 -40.0667 -32.4832 14.0002C-32.9597 31.9305 -41.9181 47.0012 -55.5949 46.8341C-69.2717 46.667 -69.0977 46.7197 -81.2985 46.5706C-93.4993 46.4215 -98.9597 32.0119 -98.4831 14.0817C-98.8258 -42.1756 -83.7948 -46.9959 -65.5694 -47.0184Z"></path>
  <path fill="#6C88D9" transform="matrix(1.8 3.72529e-09 -3.72529e-09 1.8 210.879 409.868)" d="M50.7963 -47.4703C69.0175 -47.0792 81.487 -39.5537 80.8559 4.73132C80.8838 33.7488 73.4354 43.6926 62.9218 43.3179C52.4082 42.9433 43.7686 42.958 33.4352 42.9338C22.9739 42.7286 17.706 31.535 17.6786 2.50459C18.0457 -43.9906 32.5751 -47.8615 50.7963 -47.4703Z"></path>
  <path fill="#91A8EB" transform="matrix(-1.67686 -2.56813e-07 -3.2026e-07 2.09114 352.119 269.096)" d="M20.3162 -52.1717C42.4589 -51.3178 34.0773 -26.7823 30.7305 1.71338C27.3836 30.209 14.1027 53.0772 -1.34345 52.4816C-16.7896 51.886 -27.5307 28.1637 -25.8105 -0.521937C-24.0903 -29.2076 -1.82648 -53.0255 20.3162 -52.1717Z"></path>
  <path fill="none" stroke="black" stroke-width="7" stroke-miterlimit="4" transform="matrix(1.79976 0.0293645 -0.0293645 1.79976 224.952 113.6)" d="M1.90735e-06 -29.5C19.0538 -29.5 34.5 -16.1805 34.5 0.25C34.5 16.6805 19.0538 30 1.90735e-06 30C-19.0538 30 -34.5 16.6805 -34.5 0.25C-34.5 -16.1805 -19.0538 -29.5 1.90735e-06 -29.5Z"></path>
  <path fill="#6C88D9" transform="matrix(1.79976 0.0293645 -0.0293645 1.79976 266.403 275.974)" d="M0.209625 -80.0966C37.3348 -80.0966 84.5 -60 84.5 0C84.5 41.1452 46.7396 76.2788 0.209625 76.2788C-62.1658 76.2788 -84 60.12 -84 0C-84 -71.2881 -50.5087 -80.0966 0.209625 -80.0966Z"></path>
  <path fill="none" stroke="black" stroke-width="9" stroke-miterlimit="4" transform="translate(256 256)" d="M-57.3576 -200.217C-42.575 -199.976 -30.7599 -189.447 -30.9679 -176.7C-31.1759 -163.952 -43.3282 -153.814 -58.1107 -154.055C-72.8933 -154.297 -84.7084 -164.826 -84.5004 -177.573C-84.2924 -190.32 -72.1402 -200.459 -57.3576 -200.217Z"></path>
  <path fill="none" stroke="black" stroke-width="9" stroke-miterlimit="4" transform="translate(256 256)" d="M-72.8706 -185.305C-60.571 -185.104 -50.7405 -176.344 -50.9136 -165.737C-51.0866 -155.131 -61.1977 -146.696 -73.4973 -146.897C-85.7968 -147.097 -95.6273 -155.858 -95.4543 -166.464C-95.2812 -177.07 -85.1702 -185.506 -72.8706 -185.305Z"></path>
  <path fill="none" stroke="black" stroke-width="9" stroke-miterlimit="4" transform="translate(256 256)" d="M-92.8777 -209.639C-86.1967 -209.53 -80.8568 -204.771 -80.9508 -199.01C-81.0448 -193.249 -86.537 -188.667 -93.2181 -188.776C-99.8991 -188.885 -105.239 -193.644 -105.145 -199.405C-105.051 -205.166 -99.5587 -209.748 -92.8777 -209.639Z"></path>
  <path fill="#6C88D9" transform="matrix(1.79976 0.0293645 -0.0293645 1.79976 224.952 113.6)" d="M1.90735e-06 -29.5C19.0538 -29.5 34.5 -16.1805 34.5 0.25C34.5 16.6805 19.0538 30 1.90735e-06 30C-19.0538 30 -34.5 16.6805 -34.5 0.25C-34.5 -16.1805 -19.0538 -29.5 1.90735e-06 -29.5Z"></path>
  <path fill="#6C88D9" transform="matrix(0.775834 0.0126583 -0.0126583 0.775834 198.269 78.6696)" d="M0 -29.5C19.0538 -29.5 34.5 -16.1805 34.5 0.250015C34.5 16.6805 19.0538 30 0 30C-19.0538 30 -34.5 16.6805 -34.5 0.250015C-34.5 -16.1805 -19.0538 -29.5 0 -29.5Z"></path>
  <path fill="#6C88D9" transform="matrix(0.645518 0.0105321 -0.0105321 0.645518 182.819 89.7378)" d="M0 -29.5C19.0538 -29.5 34.5 -16.1804 34.5 0.250031C34.5 16.6805 19.0538 30 0 30C-19.0538 30 -34.5 16.6805 -34.5 0.250031C-34.5 -16.1804 -19.0538 -29.5 0 -29.5Z"></path>
  <path fill="#6C88D9" transform="matrix(0.35064 0.00572097 -0.00572097 0.35064 162.954 56.7049)" d="M3.05176e-05 -29.5C19.0539 -29.5 34.5 -16.1805 34.5 0.25C34.5 16.6805 19.0539 30 3.05176e-05 30C-19.0538 30 -34.5 16.6805 -34.5 0.25C-34.5 -16.1805 -19.0538 -29.5 3.05176e-05 -29.5Z"></path>
  <path fill="#91A8EB" transform="matrix(1.50913 0.0246226 -0.0246226 1.50913 265.039 275.974)" d="M0.249979 -81.5196C49.8787 -81.2985 84.5 -60 84.5 0C84.5 41.1452 46.78 74.5 0.25 74.5C-62.1254 74.5 -84 60.12 -84 0C-84 -71.2881 -62.1254 -81.5196 0.249979 -81.5196Z"></path>
  <clipPath id="cl_215">
    <path d="M269.132 131.826C335.949 132.916 420.245 170.47 418.483 278.455C417.275 352.507 348.283 414.63 264.541 413.264C152.28 411.432 113.458 381.709 115.223 273.508C117.317 145.206 177.852 130.336 269.132 131.826Z"></path>
  </clipPath>
  <g clip-path="url(#cl_215)">
    <path fill="#A6B8EF" transform="matrix(0.805953 0.0131497 -0.0151654 0.929491 320.697 240.852)" d="M0.249972 -81.5196C49.8787 -81.2985 84.5 -60 84.5 0C84.5 41.1452 67.1354 74.5 20.6054 74.5C-41.77 74.5 -84 60.12 -84 0C-84 -71.2881 -62.1254 -81.5197 0.249972 -81.5196Z"></path>
    <path fill="#C1CBE8" transform="matrix(0.197995 -0.202726 0.445703 0.435301 343.797 192.003)" d="M11.5671 -77.0972C58.0971 -77.0972 97.5959 -41.1452 97.5959 -1.67094e-05C97.5959 41.1452 73.4188 83.0524 26.8888 83.0524C-35.4866 83.0524 11.8087 60.12 11.8087 -1.5431e-05C11.8087 -41.1452 -34.9629 -77.0972 11.5671 -77.0972Z"></path>
    <path fill="#C1CBE8" transform="matrix(0.197995 -0.202726 0.184201 0.179903 388.239 256.359)" d="M48.93 -79.7642C80.6763 -79.0529 77.4946 -42.8889 62.8508 4.00565C48.2069 50.9001 -0.0393895 91.2963 -20.4536 67.777C-40.8678 44.2576 -16.8141 31.8032 -0.458961 -5.13881C15.8962 -42.0808 17.1838 -80.4755 48.93 -79.7642Z"></path>
  </g>
  <path fill="#91A8EB" transform="matrix(1.37947 2.85496e-09 -2.85496e-09 1.37947 210.879 346.868)" d="M65.9816 -2.29555C84.2028 -1.90437 97.8206 -2.40373 97.1638 49.0857C96.443 74.5636 88.6496 88.989 78.136 88.6143C67.6224 88.2397 58.9828 88.2545 48.6493 88.2302C38.2697 88.1324 31.0562 71.2862 31.777 45.8084C32.1701 -7.89135 47.7604 -2.68672 65.9816 -2.29555Z"></path>
  <path fill="#91A8EB" transform="matrix(1.79976 0.0293645 -0.0293645 1.79976 224.952 113.6)" d="M1.90735e-06 -22.5C14.6355 -22.5 26.5 -12.3145 26.5 0.25C26.5 12.8145 14.6355 23 1.90735e-06 23C-14.6355 23 -26.5 12.8145 -26.5 0.25C-26.5 -12.3145 -14.6355 -22.5 1.90735e-06 -22.5Z"></path>
  <path fill="none" stroke="black" stroke-width="7" stroke-linecap="round" stroke-linejoin="round" transform="matrix(2.15345 4.45679e-09 -4.42021e-09 2.13577 150.216 284.472)" d="M28.9308 -34.0501C30.9085 -29.5824 33.8829 -22.8658 38.3696 -11.9919C51.6489 12.8189 67.4219 25.415 48.3194 42.1112C36.2611 52.5164 2.56015 39.5218 -10.7642 14.6266C-21.0177 -8.70512 -16.8961 -34.6356 -7.59745 -49.3148"></path>
  <path fill="#6C88D9" transform="matrix(2.15345 4.45679e-09 -4.42021e-09 2.13577 150.216 284.472)" d="M9.33078 -61.1609C13.9392 -57.974 24.5098 -45.5647 25.7033 -41.826C26.8968 -38.0873 30.005 -32.2639 38.3696 -11.9919C51.6489 12.8189 67.4219 25.415 48.3194 42.1112C36.2611 52.5164 2.56015 39.5218 -10.7642 14.6266C-26.2139 -20.5289 -9.0269 -61.5844 9.33078 -61.1609Z"></path>
  <path fill="#91A8EB" transform="matrix(1.67686 3.47045e-09 -4.32784e-09 2.09114 154.206 278.759)" d="M10.6135 -54.7895C31.9187 -59.7011 32.5479 -35.6851 38.7222 -10.3719C49.7744 15.5424 72.9359 29.3403 62.2838 38.3296C51.6317 47.3189 9.85482 35.9747 -8.04249 12.2678C-24.4382 -15.5109 -10.6918 -49.878 10.6135 -54.7895Z"></path>
  <path fill="#312F2F" transform="matrix(0.524514 -0.142244 0.169606 0.62541 264.319 331.906)" d="M0 -128C70.6925 -128 128 -70.6925 128 1.90735e-06C128 70.6925 70.6925 128 7.62939e-06 128C-70.6924 128 -128 70.6925 -128 -1.90735e-06C-128 -70.6925 -70.6925 -128 0 -128Z"></path>
  <path fill="none" stroke="black" stroke-width="7" stroke-miterlimit="4" transform="translate(256 256)" d="M-1.508 -7.36882C35.5712 -17.4244 75.3495 10.2647 87.3394 54.4765C99.3292 98.6882 78.9903 142.681 41.9112 152.736C4.83199 162.792 -34.9463 135.103 -46.9362 90.8909C-58.9261 46.6791 -38.5872 2.68674 -1.508 -7.36882Z"></path>
  <path fill="none" stroke="black" stroke-width="7" stroke-linejoin="round" transform="translate(256 256)" d="M-1.508 -7.36881C-1.508 -7.36881 -11.015 -4.7906 -12.932 -4.27073C-42.786 4.70075 -75.0542 34.2474 -58.819 94.1134C-42.5838 153.979 6.94936 162.218 30.0284 155.959C31.9454 155.439 41.9112 152.736 41.9112 152.736C41.3732 152.882 40.7891 153.016 40.1621 153.136"></path>
  <path fill="#DEDEDE" transform="matrix(0.524514 -0.142244 0.169606 0.62541 276.202 328.684)" d="M-3.27826e-06 -128C70.6925 -128 128 -70.6925 128 1.90735e-06C128 70.6925 70.6925 128 4.35114e-06 128C-70.6924 128 -128 70.6925 -128 -1.90735e-06C-128 -70.6925 -70.6925 -128 -3.27826e-06 -128Z"></path>
  <clipPath id="cl_218">
    <path d="M254.492 248.631C291.571 238.576 331.349 266.265 343.339 310.476C355.329 354.688 334.99 398.681 297.911 408.736C260.832 418.792 221.054 391.103 209.064 346.891C197.074 302.679 217.413 258.687 254.492 248.631Z"></path>
  </clipPath>
  <g clip-path="url(#cl_218)">
    <path fill="#F2F1F1" transform="matrix(0.551108 0.0717581 -0.0126805 0.637355 278.777 357.918)" d="M-170.753 -28.5017L169.944 -28.5017L169.944 28.5017L-170.753 28.5017L-170.753 -28.5017Z"></path>
    <path fill="#F2F1F1" transform="matrix(0.551108 0.0717581 -0.0126805 0.637355 277.267 382.443)" d="M-170.753 -5.22018L169.944 -5.22018L169.944 5.22015L-170.753 5.22015L-170.753 -5.22018Z"></path>
  </g>
  <path fill="#8B8B8B" transform="matrix(0.524514 -0.142244 0.169606 0.62541 279.441 327.134)" d="M0.249992 -87.5C51.4744 -87.5 93 -48.4368 93 -0.249999C93 47.9368 51.4744 87 0.249997 87C-50.9744 87 -92.5 47.9368 -92.5 -0.250001C-92.5 -48.4368 -50.9744 -87.5 0.249992 -87.5Z"></path>
  <path fill="#B0AFAF" transform="matrix(0.524514 -0.142244 0.169606 0.62541 276.202 328.684)" d="M-2.02656e-06 -86C47.4965 -86 86 -47.4965 86 1.2815e-06C86 47.4965 47.4965 86 3.09944e-06 86C-47.4965 86 -86 47.4965 -86 -1.2815e-06C-86 -47.4965 -47.4965 -86 -2.02656e-06 -86Z"></path>
  <path fill="#8B8B8B" transform="matrix(0.524514 -0.142244 0.169606 0.62541 275.785 326.111)" d="M-52.3281 27.625L-52.3281 -27.668L-46.756 -30.4056L-46.7825 24.7561L-42.4192 24.6237L-47.1315 27.6684L-52.3281 27.625ZM-50.25 21.3164C-54.7526 21.3164 -58.6058 20.4196 -61.8096 18.626C-65.0134 16.8323 -67.4626 14.3336 -69.1572 11.1299C-70.8519 7.92609 -71.6992 4.1966 -71.6992 -0.058609C-71.6992 -4.31382 -70.8519 -8.04331 -69.1572 -11.2471C-67.4626 -14.4509 -65.0134 -16.9496 -61.8096 -18.7432C-58.6058 -20.5368 -54.7526 -21.4336 -50.25 -21.4336C-47.3802 -21.4336 -44.7826 -21.0625 -42.457 -20.3203C-40.1315 -19.5781 -38.1091 -18.5205 -36.3897 -17.1475C-34.6703 -15.7744 -27.78 -10.4694 -25.0591 -8.68547C-26.0599 -7.96246 -28.21 -6.90541 -30.3965 -5.66212C-30.3965 -5.66212 -44.0899 -3.62111 -44.0899 -3.62111C-44.0899 -3.62111 -44.5166 -5.66831 -44.8506 -6.49709C-45.1846 -7.32586 -45.599 -8.02476 -46.0938 -8.59377C-46.5885 -9.16277 -47.1637 -9.58953 -47.8193 -9.87404C-48.4749 -10.1585 -49.2109 -10.3008 -50.0274 -10.3008C-51.3385 -10.3008 -52.4766 -9.9297 -53.4414 -9.18752C-54.4063 -8.44533 -55.1546 -7.31968 -55.6865 -5.81056C-56.2184 -4.30145 -56.4844 -2.40887 -56.4844 -0.132828C-56.4844 2.11847 -56.2184 4.01105 -55.6865 5.54491C-55.1546 7.07876 -54.4063 8.23534 -53.4414 9.01463C-52.4766 9.79393 -51.3385 10.1836 -50.0274 10.1836C-49.2109 10.1836 -48.4749 10.0351 -47.8193 9.73827C-47.1637 9.44139 -46.5824 9.00226 -46.0752 8.42088C-45.568 7.8395 -45.8968 6.99336 -44.8135 6.24998C-43.7302 5.50661 -38.8902 1.52306 -38.7417 0.409782C-38.7417 0.409782 -30.3965 5.28514 -30.3965 5.28514C-30.3965 5.28514 -31.2747 9.97948 -32.2891 11.9463C-33.3034 13.9131 -34.6641 15.5954 -36.3711 16.9931C-38.0781 18.3909 -40.1006 19.4609 -42.4385 20.2031C-44.7764 20.9453 -47.3802 21.3164 -50.25 21.3164ZM-24.5332 27.625L-24.5332 16.8633L-3.90039 -0.207047C-3.90039 -0.207047 -1.36458 -2.41505 -0.374996 -3.41701C0.614586 -4.41896 1.37533 -5.45184 1.90723 -6.51564C2.43913 -7.57944 2.70508 -8.76694 2.70508 -10.0781C2.70508 -11.4883 2.40202 -12.6944 1.7959 -13.6963C1.18978 -14.6983 0.361004 -15.4714 -0.690428 -16.0156C-1.74186 -16.5599 -2.96029 -16.832 -4.3457 -16.832C-5.73112 -16.832 -6.94954 -16.5537 -8.00097 -15.9971C-9.05241 -15.4404 -6.2922 -13.7058 -5.868 -12.6284C-7.10778 -11.907 -9.37628 -10.5827 -11.3223 -9.63283C-11.3223 -9.63283 -25.5723 -9.63283 -25.5723 -9.63283C-25.5723 -9.63283 -24.7002 -16.8568 -22.9561 -19.6524C-21.2119 -22.4479 -18.7441 -24.6065 -15.5527 -26.1279C-12.3613 -27.6494 -8.62565 -28.4102 -4.3457 -28.4102C0.0826836 -28.4102 3.91732 -27.7051 7.15821 -26.2949C10.3991 -24.8848 12.904 -22.8994 14.6729 -20.3389C16.4417 -17.7783 17.3262 -14.7787 17.3262 -11.3399C17.3262 -9.21226 16.887 -7.1032 16.0088 -5.01271C15.1305 -2.92222 13.5534 -0.60288 11.2773 1.9453C9.0013 4.49347 5.74805 7.5117 1.51758 11C1.51758 11 -3.67773 15.3047 -3.67773 15.3047L-3.67773 15.6758L17.9199 15.6758L23.3601 24.6526L17.9199 27.625L-24.5332 27.625ZM45.3066 28.3672C41.0514 28.3672 37.2786 27.6188 33.9883 26.1221C30.6979 24.6253 28.1126 22.5534 26.2324 19.9062C24.3522 17.2591 23.3874 14.2161 23.3379 10.7773C23.3379 10.7773 28.8025 7.82545 28.8025 7.82545L37.959 10.7773C37.959 10.7773 38.293 13.14 38.9609 14.0801C39.6289 15.0202 40.5195 15.7438 41.6328 16.251C42.7461 16.7581 43.9707 17.0117 45.3066 17.0117C46.8405 17.0117 48.1826 16.6839 49.333 16.0283C50.4834 15.3727 51.3864 14.4512 52.042 13.2637C52.6976 12.0762 53.0254 10.6784 53.0254 9.0703C53.0254 7.43748 52.6976 6.02114 52.042 4.82127C51.3864 3.6214 50.4834 2.69367 49.333 2.03807C48.1826 1.38247 46.8405 1.05467 45.3066 1.05467C43.6986 1.05467 43.4422 2.31532 43.4422 2.31532C43.4422 2.31532 38.6022 4.02342 37.959 5.35936C37.959 5.35936 24.748 2.7617 24.748 2.7617L26.9004 -27.668L32.366 -30.6324L64.084 -27.668L69.5014 -18.6129L64.084 -15.6445L39.2207 -15.6445L38.1816 -3.47267L38.4785 -3.47267C38.4785 -3.47267 40.8411 -6.54038 42.9687 -7.62892C45.0963 -8.71746 47.5579 -9.26173 50.3535 -9.26173C52.8027 -9.26173 55.0726 -8.82879 57.1631 -7.96291C59.2536 -7.09702 61.0719 -5.86623 62.6182 -4.27052C64.1644 -2.67482 65.3643 -0.782242 66.2178 1.40721C67.0713 3.59666 67.498 6.00259 67.498 8.62498C67.498 12.4844 66.5827 15.8984 64.752 18.8672C62.9212 21.8359 60.3421 24.1614 57.0146 25.8437C53.6872 27.526 49.7845 28.3672 45.3066 28.3672Z"></path>
  <path fill="#DEDEDE" transform="matrix(0.524514 -0.142244 0.169606 0.62541 277.73 322.898)" d="M-51.8282 28.625L-51.8282 -26.668L-47.375 -26.668L-47.375 28.625L-51.8282 28.625ZM-49.75 22.3164C-54.2526 22.3164 -58.1058 21.4196 -61.3096 19.626C-64.5134 17.8323 -66.9626 15.3337 -68.6573 12.1299C-70.3519 8.9261 -71.1993 5.19661 -71.1993 0.941399C-71.1993 -3.31381 -70.3519 -7.0433 -68.6573 -10.2471C-66.9626 -13.4509 -64.5134 -15.9496 -61.3096 -17.7432C-58.1058 -19.5368 -54.2526 -20.4336 -49.75 -20.4336C-46.8802 -20.4336 -44.2826 -20.0625 -41.9571 -19.3203C-39.6315 -18.5781 -37.6091 -17.5205 -35.8897 -16.1475C-34.1703 -14.7744 -32.8034 -13.1169 -31.7891 -11.1748C-30.7748 -9.23275 -30.1439 -7.06186 -29.8965 -4.66212C-29.8965 -4.66212 -43.5899 -2.6211 -43.5899 -2.6211C-43.5899 -2.6211 -44.0166 -4.6683 -44.3506 -5.49708C-44.6846 -6.32585 -45.099 -7.02475 -45.5938 -7.59376C-46.0886 -8.16277 -46.6638 -8.58952 -47.3194 -8.87403C-47.975 -9.15854 -48.711 -9.30079 -49.5274 -9.30079C-50.8386 -9.30079 -51.9766 -8.9297 -52.9414 -8.18751C-53.9063 -7.44532 -54.6547 -6.31967 -55.1866 -4.81055C-55.7185 -3.30144 -55.9844 -1.40886 -55.9844 0.86718C-55.9844 3.11848 -55.7185 5.01106 -55.1866 6.54491C-54.6547 8.07877 -53.9063 9.23534 -52.9414 10.0146C-51.9766 10.7939 -50.8386 11.1836 -49.5274 11.1836C-48.711 11.1836 -47.975 11.0351 -47.3194 10.7383C-46.6638 10.4414 -46.0824 10.0023 -45.5752 9.42089C-45.0681 8.83951 -44.6475 8.11588 -44.3135 7.24999C-43.9795 6.38411 -43.7383 5.39452 -43.5899 4.28124C-43.5899 4.28124 -29.8965 6.28515 -29.8965 6.28515C-29.8965 6.28515 -30.7748 10.9795 -31.7891 12.9463C-32.8034 14.9131 -34.1641 16.5954 -35.8711 17.9932C-37.5782 19.3909 -39.6006 20.4609 -41.9385 21.2031C-44.2764 21.9453 -46.8802 22.3164 -49.75 22.3164ZM-24.0332 28.625L-24.0332 17.8633L-3.4004 0.792961C-3.4004 0.792961 -0.864594 -1.41505 0.12499 -2.417C1.11457 -3.41895 1.87531 -4.45183 2.40722 -5.51563C2.93912 -6.57944 3.20507 -7.76694 3.20507 -9.07813C3.20507 -10.4883 2.90201 -11.6943 2.29589 -12.6963C1.68977 -13.6982 0.860991 -14.4714 -0.190441 -15.0156C-1.24187 -15.5599 -2.4603 -15.832 -3.84571 -15.832C-5.23113 -15.832 -6.44956 -15.5537 -7.50099 -14.9971C-8.55242 -14.4404 -9.36883 -13.6302 -9.95021 -12.5664C-10.5316 -11.5026 -10.8223 -10.1914 -10.8223 -8.63282C-10.8223 -8.63282 -25.0723 -8.63282 -25.0723 -8.63282C-25.0723 -8.63282 -24.2002 -15.8568 -22.4561 -18.6524C-20.7119 -21.4479 -18.2442 -23.6065 -15.0527 -25.1279C-11.8613 -26.6494 -8.12566 -27.4102 -3.84571 -27.4102C0.58267 -27.4102 4.41731 -26.7051 7.65819 -25.2949C10.8991 -23.8848 13.404 -21.8994 15.1728 -19.3389C16.9417 -16.7783 17.8262 -13.7787 17.8262 -10.3399C17.8262 -8.21225 17.387 -6.1032 16.5088 -4.0127C15.6305 -1.92221 14.0534 0.397127 11.7773 2.9453C9.50129 5.49348 6.24804 8.51171 2.01757 12C2.01757 12 -3.17774 16.3047 -3.17774 16.3047L-3.17774 16.6758L18.4199 16.6758L18.4199 28.625L-24.0332 28.625ZM45.8066 29.3672C41.5514 29.3672 37.7786 28.6188 34.4883 27.1221C31.1979 25.6253 28.6126 23.5534 26.7324 20.9063C24.8522 18.2591 23.8874 15.2162 23.8379 11.7774C23.8379 11.7774 38.459 11.7774 38.459 11.7774C38.459 11.7774 38.793 14.14 39.4609 15.0801C40.1289 16.0202 41.0195 16.7438 42.1328 17.251C43.2461 17.7581 44.4707 18.0117 45.8066 18.0117C47.3405 18.0117 48.6826 17.6839 49.833 17.0283C50.9834 16.3727 51.8864 15.4512 52.542 14.2637C53.1976 13.0762 53.5254 11.6784 53.5254 10.0703C53.5254 8.43751 53.1976 7.02117 52.542 5.8213C51.8864 4.62143 50.9834 3.69369 49.833 3.03809C48.6826 2.38249 47.3405 2.0547 45.8066 2.0547C44.1986 2.0547 42.7327 2.43816 41.4092 3.20509C40.0856 3.97201 39.1022 5.02345 38.459 6.35938C38.459 6.35938 25.2481 3.76173 25.2481 3.76173L27.4004 -26.668L64.584 -26.668L64.584 -14.6445L39.7207 -14.6445L38.6816 -2.47265L38.9785 -2.47265C38.9785 -2.47265 41.3411 -5.54036 43.4688 -6.6289C45.5964 -7.71744 48.0579 -8.26171 50.8535 -8.26171C53.3027 -8.26171 55.5726 -7.82877 57.6631 -6.96288C59.7536 -6.097 61.5719 -4.8662 63.1182 -3.2705C64.6644 -1.6748 65.8643 0.217781 66.7178 2.40723C67.5713 4.59669 67.998 7.00261 67.998 9.62501C67.998 13.4844 67.0827 16.8984 65.252 19.8672C63.4212 22.8359 60.8421 25.1615 57.5147 26.8438C54.1872 28.526 50.2845 29.3672 45.8066 29.3672Z"></path>
  <clipPath id="cl_21a">
    <path d="M255.4 348.173L246.022 313.592L248.358 312.958L257.736 347.539L255.4 348.173ZM255.42 343.932C253.058 344.572 250.885 344.559 248.901 343.893C246.916 343.227 245.207 342.013 243.775 340.25C242.343 338.488 241.266 336.276 240.544 333.614C239.823 330.953 239.634 328.5 239.98 326.255C240.325 324.011 241.186 322.1 242.562 320.522C243.939 318.945 245.808 317.836 248.169 317.195C249.675 316.787 251.1 316.65 252.446 316.783C253.791 316.916 255.031 317.29 256.166 317.904C257.301 318.518 258.299 319.361 259.16 320.431C260.022 321.501 260.721 322.769 261.258 324.235C261.258 324.235 254.422 327.459 254.422 327.459C254.422 327.459 253.85 326.24 253.535 325.769C253.219 325.298 252.883 324.92 252.527 324.634C252.171 324.349 251.797 324.164 251.405 324.079C251.013 323.994 250.603 324.01 250.174 324.126C249.487 324.313 248.953 324.707 248.572 325.308C248.192 325.91 247.991 326.72 247.968 327.739C247.945 328.759 248.126 329.98 248.512 331.404C248.894 332.812 249.354 333.958 249.894 334.841C250.433 335.725 251.021 336.342 251.66 336.692C252.298 337.042 252.961 337.124 253.649 336.937C254.077 336.821 254.438 336.624 254.731 336.345C255.025 336.066 255.255 335.708 255.423 335.273C255.59 334.837 255.688 334.325 255.716 333.736C255.744 333.147 255.703 332.493 255.592 331.776C255.592 331.776 263.114 331.081 263.114 331.081C263.114 331.081 263.45 334.142 263.251 335.517C263.053 336.891 262.625 338.137 261.966 339.254C261.308 340.371 260.429 341.327 259.328 342.124C258.228 342.921 256.925 343.523 255.42 343.932ZM269.979 344.219L268.154 337.489L276.081 323.878C276.081 323.878 277.036 322.136 277.385 321.369C277.734 320.601 277.958 319.847 278.057 319.106C278.155 318.365 278.093 317.585 277.871 316.765C277.632 315.883 277.268 315.172 276.78 314.631C276.293 314.091 275.727 313.725 275.083 313.534C274.439 313.343 273.754 313.346 273.027 313.544C272.301 313.741 271.709 314.088 271.252 314.586C270.795 315.083 270.504 315.706 270.379 316.454C270.255 317.202 270.325 318.064 270.589 319.038C270.589 319.038 263.115 321.065 263.115 321.065C263.115 321.065 262.347 316.423 262.788 314.427C263.228 312.43 264.156 310.729 265.572 309.324C266.988 307.918 268.819 306.911 271.064 306.302C273.386 305.673 275.517 305.568 277.456 305.989C279.395 306.41 281.046 307.295 282.408 308.645C283.77 309.995 284.743 311.745 285.326 313.896C285.687 315.226 285.814 316.608 285.708 318.04C285.602 319.473 285.168 321.147 284.406 323.065C283.645 324.982 282.45 327.333 280.823 330.116C280.823 330.116 278.828 333.547 278.828 333.547L278.891 333.779L290.219 330.707L292.246 338.18L269.979 344.219ZM306.737 334.749C304.505 335.354 302.399 335.423 300.419 334.955C298.44 334.487 296.732 333.559 295.297 332.171C293.862 330.782 292.84 329.017 292.23 326.873C292.23 326.873 299.899 324.793 299.899 324.793C299.899 324.793 300.475 326.223 300.985 326.716C301.495 327.209 302.085 327.535 302.755 327.694C303.425 327.853 304.11 327.837 304.811 327.647C305.615 327.429 306.264 327.033 306.756 326.459C307.248 325.886 307.565 325.181 307.708 324.345C307.85 323.509 307.785 322.588 307.512 321.582C307.235 320.561 306.823 319.722 306.276 319.065C305.729 318.408 305.098 317.956 304.383 317.71C303.668 317.463 302.909 317.449 302.104 317.667C301.261 317.896 300.557 318.344 299.993 319.012C299.429 319.68 299.091 320.478 298.98 321.405C298.98 321.405 291.611 321.659 291.611 321.659L287.578 302.322L307.082 297.033L309.121 304.553L296.08 308.089L297.599 315.849L297.755 315.807C297.755 315.807 298.474 313.553 299.405 312.569C300.337 311.586 301.535 310.895 303.002 310.497C304.286 310.149 305.55 310.097 306.794 310.341C308.037 310.585 309.2 311.096 310.281 311.874C311.363 312.652 312.313 313.665 313.132 314.913C313.951 316.161 314.583 317.605 315.028 319.245C315.683 321.659 315.781 323.924 315.325 326.042C314.868 328.159 313.91 329.98 312.45 331.505C310.99 333.031 309.085 334.112 306.737 334.749Z"></path>
  </clipPath>
  <g clip-path="url(#cl_21a)">
    <path fill="#F2F1F1" transform="matrix(0.551108 0.0717581 -0.0126805 0.637355 278.777 357.918)" d="M-170.753 -28.5017L169.944 -28.5017L169.944 28.5017L-170.753 28.5017L-170.753 -28.5017Z"></path>
  </g>
  <path fill="#8E8B8B" transform="matrix(0.62541 -0.169606 0.169606 0.62541 254.492 248.631)" d="M-2.86102e-06 1.04904e-05C-2.86102e-06 1.04904e-05 -15.2012 9.05991e-06 -18.2664 -9.53674e-07C-66.3551 1.3037 -126.35 32.2772 -126.35 128C-126.35 223.723 -55.9022 256 -19 256C-15.9348 256 -7.62939e-06 256 -7.62939e-06 256C-25.5439 256 -107.35 223.723 -107.35 128C-107.35 32.2772 -25.5439 5.24521e-06 -2.86102e-06 1.04904e-05Z"></path>
  <clipPath id="cl_21c">
    <path d="M254.492 248.631C254.492 248.631 244.985 251.209 243.068 251.729C213.214 260.701 180.946 290.247 197.181 350.113C213.416 409.979 262.949 418.218 286.028 411.959C287.945 411.439 297.911 408.736 297.911 408.736C281.936 413.069 225.299 406.757 209.064 346.891C192.829 287.025 238.517 252.964 254.492 248.631Z"></path>
  </clipPath>
  <g clip-path="url(#cl_21c)">
    <path fill="#ACABAB" transform="matrix(0.524514 -0.142244 0.169606 0.62541 241.864 375.862)" d="M-105.5 -40.8039L105 -40.8039L105 40.8039L-105.5 40.8039L-105.5 -40.8039Z"></path>
    <path fill="#D6D6D6" transform="matrix(0.524514 -0.142244 0.169606 0.62541 236.615 371.982)" d="M-105.5 -7.02947L105 -7.02947L105 7.02944L-105.5 7.02944L-105.5 -7.02947Z"></path>
    <path fill="#D6D6D6" transform="matrix(0.526005 -0.142648 0.169125 0.623637 251.084 338.852)" d="M-137.32 -30.4789L136.67 -30.4789L136.67 30.4789L-137.32 30.4789L-137.32 -30.4789Z"></path>
  </g>
  <path fill="#91A8EB" transform="matrix(0.606874 0.00990163 -0.00990163 0.606874 198.269 80.8768)" d="M0 -22.5C14.6355 -22.5 26.5 -12.3145 26.5 0.25C26.5 12.8145 14.6355 23 0 23C-14.6355 23 -26.5 12.8145 -26.5 0.25C-26.5 -12.3145 -14.6355 -22.5 0 -22.5Z"></path>
  <path fill="#91A8EB" transform="matrix(0.504938 0.00823846 -0.00823846 0.504938 182.819 91.5742)" d="M-4.23752e-08 -22.5C14.6355 -22.5 26.5 -12.3144 26.5 0.25003C26.5 12.8145 14.6355 23 4.23752e-08 23C-14.6355 23 -26.5 12.8145 -26.5 0.250031C-26.5 -12.3144 -14.6355 -22.5 -4.23752e-08 -22.5Z"></path>
  <path fill="#91A8EB" transform="matrix(0.274279 0.00447507 -0.00447507 0.274279 163.95 58.7876)" d="M3.05176e-05 -22.4261C14.2962 -22.4261 25.8855 -12.274 25.8855 0.249268C25.8855 12.7726 14.2962 22.9247 3.05176e-05 22.9247C-14.2961 22.9247 -25.8855 12.7726 -25.8855 0.249268C-25.8855 -12.274 -14.2961 -22.4261 3.05176e-05 -22.4261Z"></path>
  <path fill="#C1CBE8" transform="matrix(0.073816 -0.11483 0.26388 0.16963 160.179 56.1694)" d="M0 -11.5C14.6355 -11.5 28.0061 -7.98328 28.0061 -1.63201C28.0061 4.71926 15.5059 0.400185 0.870356 0.400186C-13.7652 0.400185 -26.766 4.37689 -26.766 -1.97439C-26.766 -8.32566 -14.6355 -11.5 0 -11.5Z"></path>
  <path fill="#C1CBE8" transform="matrix(-0.166841 -0.570472 0.880441 -0.257495 182.715 117.931)" d="M0 -11.5C14.6355 -11.5 28.0061 -7.98329 28.0061 -1.63201C28.0061 4.71926 15.5059 0.400182 0.870357 0.400182C-13.7652 0.400181 -26.766 4.37688 -26.766 -1.97439C-26.766 -8.32566 -14.6355 -11.5 0 -11.5Z"></path>
  <path fill="#1B2B56" transform="matrix(1.78669 -0.21848 0.065544 0.536007 237.563 91.3748)" d="M1.09896e-07 -2.5C1.38071 -2.5 2.5 -1.38071 2.5 0C2.5 1.38071 1.38071 2.5 1.28523e-07 2.5C-1.38071 2.5 -2.5 1.38071 -2.5 0C-2.5 -1.38071 -1.38071 -2.5 1.09896e-07 -2.5Z"></path>
  <path fill="none" stroke="#1B2B56" stroke-width="0.5" stroke-linecap="round" stroke-linejoin="round" transform="matrix(1.78289 -0.247598 0.247598 1.78289 246.207 90.2632)" d="M1.98548 0.277974L6.02909 0.184236"></path>
  <path fill="#1B2B56" transform="matrix(1.78669 -0.21848 0.065544 0.536007 266.15 87.879)" d="M-1.91666e-06 -2.5C1.38071 -2.5 2.5 -1.38071 2.5 0C2.5 1.38071 1.38071 2.5 -1.89804e-06 2.5C-1.38071 2.5 -2.5 1.38071 -2.5 0C-2.5 -1.38071 -1.38071 -2.5 -1.91666e-06 -2.5Z"></path>
  <path fill="#354B89" transform="matrix(1.46507 -0.885005 0.929571 0.72522 257.927 80.947)" d="M0 -2.50002C1.38071 -2.50002 2.5 -1.38073 2.5 -1.51098e-05C2.5 1.3807 1.38071 2.49998 0 2.49998C-1.38071 2.49998 -2.5 1.3807 -2.5 -1.54078e-05C-2.5 -1.38073 -1.38071 -2.50002 0 -2.50002Z"></path>
  <path fill="#354B89" transform="matrix(2.16254 0.296937 -0.629837 1.0733 241.955 81.8865)" d="M0 -2.98532C1.68306 -2.98532 3.04744 -1.64874 3.04744 1.5168e-05C3.04744 1.64877 1.68306 2.98535 0 2.98535C-1.68306 2.98535 -3.04744 1.64877 -3.04744 1.53496e-05C-3.04744 -1.64874 -1.68306 -2.98532 0 -2.98532Z"></path>
  <path fill="none" stroke="white" stroke-width="5" stroke-linecap="round" stroke-linejoin="round" transform="matrix(1.5 0 0 1.5 158.539 362.24)" d=""></path>
</svg>