<?xml version="1.0" encoding="utf-8"?>
<svg xmlns="http://www.w3.org/2000/svg" xmlns:xlink="http://www.w3.org/1999/xlink" width="512" height="512">
  <path fill="none" stroke="black" stroke-width="7" stroke-linejoin="round" transform="matrix(1.8 3.72529e-09 -3.72529e-09 1.8 210.879 409.868)" d="M0.345016 -46.2517C18.5693 -46.0452 31.1143 -38.6465 30.9319 5.64269C31.2539 34.6584 23.9067 44.6771 13.3898 44.409C2.87296 44.141 -5.76606 44.2432 -16.0992 44.3237C-26.5621 44.2245 -31.9431 33.0849 -32.2647 4.05615C-32.3687 -42.4403 -17.8792 -46.4582 0.345016 -46.2517Z"></path>
  <path fill="none" stroke="black" stroke-width="7" stroke-linejoin="round" transform="matrix(-2.15345 -3.29802e-07 -3.27096e-07 2.13577 356.082 273.717)" d="M20.0142 -55.9817C22.3944 -50.8839 25.2986 -34.7901 24.4553 -30.9557C23.6119 -27.1212 26.0984 -17.4846 19.8794 6.06422C12.7988 34.0581 3.74835 55.7336 -20.7874 49.5913C-36.1665 45.6368 -42.5096 19.8363 -35.429 -8.1576C-26.552 -43.2539 4.38396 -65.6987 20.0142 -55.9817Z"></path>
  <path fill="none" stroke="black" stroke-width="7" stroke-linejoin="round" transform="matrix(1.79976 0.0293645 -0.0293645 1.79976 266.377 274.882)" d="M0.209625 -80.0966C37.3348 -80.0966 84.5 -60 84.5 0C84.5 41.1452 46.7396 76.2788 0.209625 76.2788C-62.1658 76.2788 -84 60.12 -84 0C-84 -71.2881 -50.5087 -80.0966 0.209625 -80.0966Z"></path>
  <path fill="none" stroke="black" stroke-width="7" stroke-linejoin="round" transform="matrix(1.53671 3.18039e-09 -3.72529e-09 1.8 308.979 398.168)" d="M-0.34111 -47.848C17.8824 -48.0748 33.3715 -41.3581 34.0274 8.21339C34.6475 22.0588 28.7766 45.8381 15.0983 45.8244C1.42015 45.8106 -4.7155 45.8045 -16.9175 45.7922C-29.1195 45.78 -31.3455 22.8802 -31.9655 9.03482C-32.9697 -42.7233 -18.5646 -47.6211 -0.34111 -47.848Z"></path>
  <path fill="#6C88D9" transform="matrix(-2.15345 -3.29802e-07 -3.27096e-07 2.13577 356.082 273.717)" d="M20.0142 -55.9817C22.3944 -50.8839 25.2986 -34.7901 24.4553 -30.9557C23.6119 -27.1212 26.0984 -17.4846 19.8794 6.06422C12.7988 34.0581 3.74835 55.7336 -20.7874 49.5913C-36.1665 45.6368 -42.5096 19.8363 -35.429 -8.1576C-26.552 -43.2539 4.38396 -65.6987 20.0142 -55.9817Z"></path>
  <path fill="#5170C8" transform="matrix(1.53671 3.18039e-09 -3.72529e-09 1.8 308.979 398.168)" d="M-0.34111 -47.848C17.8824 -48.0748 33.3715 -41.3581 34.0274 8.21339C34.6475 22.0588 28.7766 45.8381 15.0983 45.8244C1.42015 45.8106 -4.7155 45.8045 -16.9175 45.7922C-29.1195 45.78 -31.3455 22.8802 -31.9655 9.03482C-32.9697 -42.7233 -18.5646 -47.6211 -0.34111 -47.848Z"></path>
  <path fill="#839BE0" transform="matrix(1.20328 2.49031e-09 -2.91698e-09 1.40944 308.979 398.168)" d="M-0.218636 -48.4009C18.0048 -48.6278 32.9437 -41.8206 33.8034 12.2413C33.6028 30.1754 24.877 45.3454 11.1988 45.3317C-2.47941 45.3179 -2.30457 45.3686 -14.5066 45.3564C-26.7086 45.3441 -32.3902 30.9969 -32.1896 13.0628C-33.3975 -43.1858 -18.4421 -48.1741 -0.218636 -48.4009Z"></path>
  <path fill="#6C88D9" transform="matrix(1.8 3.72529e-09 -3.72529e-09 1.8 210.879 409.868)" d="M0.345016 -46.2517C18.5693 -46.0452 31.1143 -38.6465 30.9319 5.64269C31.2539 34.6584 23.9067 44.6771 13.3898 44.409C2.87296 44.141 -5.76606 44.2432 -16.0992 44.3237C-26.5621 44.2245 -31.9431 33.0849 -32.2647 4.05615C-32.3687 -42.4403 -17.8792 -46.4582 0.345016 -46.2517Z"></path>
  <path fill="#91A8EB" transform="matrix(-1.67686 -2.56813e-07 -3.2026e-07 2.09114 352.092 268.004)" d="M21.0794 -49.768C42.5601 -45.3752 28.2202 -22.6829 17.8237 4.69778C7.42732 32.0785 -11.2963 52.3503 -26.2807 49.2859C-41.2651 46.2216 -45.8634 21.2548 -37.0132 -6.57327C-28.163 -34.4014 -0.401306 -54.1609 21.0794 -49.768Z"></path>
  <path fill="none" stroke="black" stroke-width="7" stroke-miterlimit="4" transform="matrix(1.79976 0.0293645 -0.0293645 1.79976 224.925 112.188)" d="M0 -29.5C19.0538 -29.5 34.5 -16.1805 34.5 0.249992C34.5 16.6805 19.0538 30 0 30C-19.0538 30 -34.5 16.6805 -34.5 0.249992C-34.5 -16.1805 -19.0538 -29.5 0 -29.5Z"></path>
  <path fill="#6C88D9" transform="matrix(1.79976 0.0293645 -0.0293645 1.79976 266.377 274.882)" d="M0.209625 -80.0966C37.3348 -80.0966 84.5 -60 84.5 0C84.5 41.1452 46.7396 76.2788 0.209625 76.2788C-62.1658 76.2788 -84 60.12 -84 0C-84 -71.2881 -50.5087 -80.0966 0.209625 -80.0966Z"></path>
  <path fill="none" stroke="black" stroke-width="9" stroke-miterlimit="4" transform="translate(256 256)" d="M-57.3842 -201.629C-42.6016 -201.387 -30.7865 -190.858 -30.9945 -178.111C-31.2025 -165.363 -43.3548 -155.225 -58.1374 -155.466C-72.92 -155.708 -84.735 -166.237 -84.527 -178.984C-84.3191 -191.731 -72.1668 -201.87 -57.3842 -201.629Z"></path>
  <path fill="none" stroke="black" stroke-width="9" stroke-miterlimit="4" transform="translate(256 256)" d="M-72.8972 -186.716C-60.5976 -186.515 -50.7671 -177.755 -50.9402 -167.149C-51.1132 -156.542 -61.2243 -148.107 -73.5239 -148.308C-85.8235 -148.508 -95.654 -157.269 -95.4809 -167.875C-95.3079 -178.481 -85.1968 -186.917 -72.8972 -186.716Z"></path>
  <path fill="none" stroke="black" stroke-width="9" stroke-miterlimit="4" transform="translate(256 256)" d="M-92.9043 -211.05C-86.2233 -210.941 -80.8834 -206.182 -80.9774 -200.421C-81.0714 -194.66 -86.5637 -190.078 -93.2447 -190.187C-99.9258 -190.296 -105.266 -195.055 -105.172 -200.816C-105.078 -206.577 -99.5854 -211.159 -92.9043 -211.05Z"></path>
  <path fill="#6C88D9" transform="matrix(1.79976 0.0293645 -0.0293645 1.79976 224.925 112.188)" d="M0 -29.5C19.0538 -29.5 34.5 -16.1805 34.5 0.249992C34.5 16.6805 19.0538 30 0 30C-19.0538 30 -34.5 16.6805 -34.5 0.249992C-34.5 -16.1805 -19.0538 -29.5 0 -29.5Z"></path>
  <path fill="#6C88D9" transform="matrix(0.775834 0.0126583 -0.0126583 0.775834 198.242 77.2586)" d="M0 -29.5C19.0538 -29.5 34.5 -16.1805 34.5 0.250015C34.5 16.6805 19.0538 30 0 30C-19.0538 30 -34.5 16.6805 -34.5 0.250015C-34.5 -16.1805 -19.0538 -29.5 0 -29.5Z"></path>
  <path fill="#6C88D9" transform="matrix(0.645518 0.0105321 -0.0105321 0.645518 182.792 88.3267)" d="M7.62939e-06 -29.5C19.0538 -29.5 34.5 -16.1805 34.5 0.25C34.5 16.6805 19.0538 30 7.62939e-06 30C-19.0538 30 -34.5 16.6805 -34.5 0.25C-34.5 -16.1805 -19.0538 -29.5 7.62939e-06 -29.5Z"></path>
  <path fill="#6C88D9" transform="matrix(0.35064 0.00572097 -0.00572097 0.35064 162.927 55.2938)" d="M3.05176e-05 -29.5C19.0539 -29.5 34.5 -16.1805 34.5 0.25C34.5 16.6805 19.0539 30 3.05176e-05 30C-19.0538 30 -34.5 16.6805 -34.5 0.25C-34.5 -16.1805 -19.0538 -29.5 3.05176e-05 -29.5Z"></path>
  <path fill="#91A8EB" transform="matrix(1.50913 0.0246226 -0.0246226 1.50913 265.012 274.882)" d="M0.24998 -81.5196C49.8787 -81.2985 84.5 -60 84.5 0C84.5 41.1452 46.78 74.5 0.25 74.5C-62.1254 74.5 -84 60.12 -84 0C-84 -71.2881 -62.1254 -81.5196 0.24998 -81.5196Z"></path>
  <clipPath id="cl_4a9">
    <path d="M269.106 130.734C335.922 131.824 420.218 169.378 418.456 277.363C417.248 351.415 348.257 413.538 264.514 412.172C152.253 410.34 113.431 380.617 115.197 272.416C117.29 144.114 177.825 129.244 269.106 130.734Z"></path>
  </clipPath>
  <g clip-path="url(#cl_4a9)">
    <path fill="#A6B8EF" transform="matrix(0.805953 0.0131497 -0.0151654 0.929491 320.67 239.76)" d="M0.249972 -81.5196C49.8787 -81.2985 84.5 -60 84.5 1.90735e-06C84.5 41.1452 67.1354 74.5 20.6054 74.5C-41.77 74.5 -84 60.12 -84 1.90735e-06C-84 -71.2881 -62.1254 -81.5197 0.249972 -81.5196Z"></path>
    <path fill="#C1CBE8" transform="matrix(0.197995 -0.202726 0.445703 0.435301 343.771 190.911)" d="M11.5671 -77.0972C58.0971 -77.0972 97.5959 -41.1452 97.5959 -3.00608e-05C97.5959 41.1452 73.4188 83.0524 26.8888 83.0524C-35.4866 83.0524 11.8087 60.12 11.8087 -2.87825e-05C11.8087 -41.1452 -34.9629 -77.0972 11.5671 -77.0972Z"></path>
    <path fill="#C1CBE8" transform="matrix(0.197995 -0.202726 0.184201 0.179903 388.213 255.267)" d="M48.93 -79.7642C80.6763 -79.0529 77.4946 -42.8889 62.8508 4.00565C48.2069 50.9001 -0.0393895 91.2963 -20.4536 67.777C-40.8678 44.2576 -16.8141 31.8032 -0.458961 -5.13881C15.8962 -42.0808 17.1838 -80.4755 48.93 -79.7642Z"></path>
  </g>
  <path fill="#91A8EB" transform="matrix(1.37947 2.85496e-09 -2.85496e-09 1.37947 210.879 346.868)" d="M0.291798 -0.703064C18.516 -0.496552 32.1281 -1.13388 31.993 50.3596C31.5304 75.8434 23.8837 90.3471 13.3668 90.0789C2.84998 89.8109 -5.78907 89.9132 -16.1222 89.9936C-26.5023 90.001 -33.8862 73.2288 -33.4236 47.745C-33.5746 -5.95604 -17.9324 -0.909584 0.291798 -0.703064Z"></path>
  <path fill="#91A8EB" transform="matrix(1.79976 0.0293645 -0.0293645 1.79976 224.925 112.188)" d="M0 -22.5C14.6355 -22.5 26.5 -12.3145 26.5 0.249992C26.5 12.8145 14.6355 23 0 23C-14.6355 23 -26.5 12.8145 -26.5 0.249992C-26.5 -12.3145 -14.6355 -22.5 0 -22.5Z"></path>
  <path fill="none" stroke="black" stroke-width="7" stroke-linecap="round" stroke-linejoin="round" transform="matrix(2.15345 4.45679e-09 -4.42021e-09 2.13577 150.19 283.38)" d="M25.1604 -27.781C25.5769 -23.0391 26.2943 -15.9441 27.4664 -4.57367C33.5344 22.7093 46.9174 37.9415 24.424 49.5766C10.2569 56.7907 -20.4561 34.9095 -26.548 7.51826C-29.8819 -17.9757 -18.1381 -41.9005 -4.78963 -53.2963"></path>
  <path fill="#6C88D9" transform="matrix(2.15345 4.45679e-09 -4.42021e-09 2.13577 150.19 283.38)" d="M14.8819 -59.5793C18.3124 -55.1315 24.6447 -40.071 24.6555 -36.1434C24.6662 -32.2158 25.2628 -25.9508 27.4664 -4.57367C33.5344 22.7093 46.9174 37.9415 24.424 49.5766C10.2569 56.7907 -20.4561 34.9095 -26.548 7.51826C-31.5613 -30.8178 -2.48072 -65.6056 14.8819 -59.5793Z"></path>
  <path fill="#91A8EB" transform="matrix(1.67686 3.47045e-09 -4.32784e-09 2.09114 154.18 277.667)" d="M15.8213 -53.1618C37.9804 -52.6515 28.5352 -29.7407 25.3378 -4.50848C27.1954 22.5676 46.7342 39.9659 33.7211 46.6651C20.7081 53.3644 -17.689 33.4467 -26.8091 7.00071C-32.7543 -23.4884 -6.3378 -53.6722 15.8213 -53.1618Z"></path>
  <path fill="#312F2F" transform="matrix(0.543295 -0.0133836 0.0159581 0.647803 222.658 350.369)" d="M0 -128C70.6925 -128 128 -70.6925 128 -2.38419e-07C128 70.6925 70.6925 128 0 128C-70.6925 128 -128 70.6925 -128 2.38419e-07C-128 -70.6925 -70.6925 -128 0 -128Z"></path>
  <path fill="none" stroke="black" stroke-width="7" stroke-miterlimit="4" transform="translate(256 256)" d="M-23.0763 11.1473C15.3305 10.2012 47.3799 46.5582 48.508 92.353C49.6361 138.148 19.4158 176.039 -18.991 176.985C-57.3979 177.931 -89.4473 141.574 -90.5754 95.7792C-91.7035 49.9844 -61.4831 12.0934 -23.0763 11.1473Z"></path>
  <path fill="none" stroke="black" stroke-width="7" stroke-linejoin="round" transform="translate(256 256)" d="M-23.0763 11.1473C-23.0763 11.1473 -32.9237 11.3899 -34.9093 11.4388C-66.0405 13.0507 -104.411 34.0729 -102.884 96.0824C-101.356 158.092 -55.2047 177.877 -31.2993 177.288C-29.3136 177.239 -18.991 176.985 -18.991 176.985C-19.5483 176.999 -20.1474 176.99 -20.7851 176.957"></path>
  <path fill="#DEDEDE" transform="matrix(0.543295 -0.0133836 0.0159581 0.647803 234.966 350.066)" d="M3.8147e-06 -128C70.6925 -128 128 -70.6925 128 -2.38419e-07C128 70.6925 70.6925 128 3.8147e-06 128C-70.6924 128 -128 70.6925 -128 2.38419e-07C-128 -70.6925 -70.6924 -128 3.8147e-06 -128Z"></path>
  <clipPath id="cl_4ac">
    <path d="M232.924 267.147C271.331 266.201 303.38 302.558 304.508 348.353C305.636 394.148 275.416 432.039 237.009 432.985C198.602 433.931 166.553 397.574 165.425 351.779C164.297 305.984 194.517 268.093 232.924 267.147Z"></path>
  </clipPath>
  <g clip-path="url(#cl_4ac)">
    <path fill="#F2F1F1" transform="matrix(0.518216 0.200801 -0.163937 0.616042 230.514 379.074)" d="M-170.753 -28.5017L169.944 -28.5017L169.944 28.5017L-170.753 28.5017L-170.753 -28.5017Z"></path>
    <path fill="#F2F1F1" transform="matrix(0.518216 0.200801 -0.163937 0.616042 223.212 402.536)" d="M-170.753 -5.22018L169.944 -5.22018L169.944 5.22015L-170.753 5.22015L-170.753 -5.22018Z"></path>
  </g>
  <path fill="#8B8B8B" transform="matrix(0.543295 -0.0133836 0.0159581 0.647803 238.482 349.331)" d="M0.25 -87.5C51.4744 -87.5 93 -48.4368 93 -0.25C93 47.9368 51.4744 87 0.25 87C-50.9744 87 -92.5 47.9368 -92.5 -0.25C-92.5 -48.4368 -50.9744 -87.5 0.25 -87.5Z"></path>
  <path fill="#B0AFAF" transform="matrix(0.543295 -0.0133836 0.0159581 0.647803 234.966 350.066)" d="M3.8147e-06 -86C47.4965 -86 86 -47.4965 86 -1.60187e-07C86 47.4965 47.4965 86 3.8147e-06 86C-47.4965 86 -86 47.4965 -86 1.60187e-07C-86 -47.4965 -47.4965 -86 3.8147e-06 -86Z"></path>
  <path fill="#8B8B8B" transform="matrix(0.543295 -0.0133836 0.0159581 0.647803 235.174 347.468)" d="M-52.3281 27.625L-52.3281 -27.668L-46.756 -30.4056L-46.7825 24.7561L-42.4192 24.6238L-47.1315 27.6684L-52.3281 27.625ZM-50.25 21.3164C-54.7526 21.3164 -58.6058 20.4196 -61.8096 18.626C-65.0133 16.8324 -67.4626 14.3337 -69.1572 11.1299C-70.8519 7.92611 -71.6992 4.19662 -71.6992 -0.0585938C-71.6992 -4.3138 -70.8519 -8.0433 -69.1572 -11.2471C-67.4626 -14.4508 -65.0133 -16.9495 -61.8096 -18.7432C-58.6058 -20.5368 -54.7526 -21.4336 -50.25 -21.4336C-47.3802 -21.4336 -44.7826 -21.0625 -42.457 -20.3203C-40.1315 -19.5781 -38.109 -18.5205 -36.3896 -17.1475C-34.6702 -15.7744 -27.78 -10.4693 -25.0591 -8.68546C-26.0599 -7.96244 -28.21 -6.9054 -30.3965 -5.66211C-30.3965 -5.66211 -44.0898 -3.62109 -44.0898 -3.62109C-44.0898 -3.62109 -44.5166 -5.6683 -44.8506 -6.49707C-45.1846 -7.32584 -45.599 -8.02474 -46.0938 -8.59375C-46.5885 -9.16276 -47.1637 -9.58952 -47.8193 -9.87402C-48.4749 -10.1585 -49.2109 -10.3008 -50.0273 -10.3008C-51.3385 -10.3008 -52.4766 -9.92969 -53.4414 -9.1875C-54.4062 -8.44531 -55.1546 -7.31966 -55.6865 -5.81055C-56.2184 -4.30143 -56.4844 -2.40885 -56.4844 -0.132812C-56.4844 2.11849 -56.2184 4.01107 -55.6865 5.54492C-55.1546 7.07878 -54.4062 8.23535 -53.4414 9.01465C-52.4766 9.79395 -51.3385 10.1836 -50.0273 10.1836C-49.2109 10.1836 -48.4749 10.0352 -47.8193 9.73828C-47.1637 9.44141 -46.5824 9.00228 -46.0752 8.4209C-45.568 7.83952 -45.8968 6.99338 -44.8135 6.25C-43.7302 5.50662 -38.8902 1.52308 -38.7417 0.409798C-38.7417 0.409798 -30.3965 5.28516 -30.3965 5.28516C-30.3965 5.28516 -31.2747 9.97949 -32.2891 11.9463C-33.3034 13.9131 -34.6641 15.5954 -36.3711 16.9932C-38.0781 18.3909 -40.1006 19.4609 -42.4385 20.2031C-44.7764 20.9453 -47.3802 21.3164 -50.25 21.3164ZM-24.5332 27.625L-24.5332 16.8633L-3.90039 -0.207031C-3.90039 -0.207031 -1.36458 -2.41504 -0.374996 -3.41699C0.614588 -4.41895 1.37533 -5.45182 1.90723 -6.51562C2.43913 -7.57943 2.70508 -8.76693 2.70508 -10.0781C2.70508 -11.4883 2.40202 -12.6943 1.7959 -13.6963C1.18978 -14.6982 0.361006 -15.4714 -0.690426 -16.0156C-1.74186 -16.5599 -2.96028 -16.832 -4.3457 -16.832C-5.73112 -16.832 -6.94954 -16.5537 -8.00097 -15.9971C-9.0524 -15.4404 -6.2922 -13.7058 -5.868 -12.6284C-7.10778 -11.907 -9.37627 -10.5827 -11.3223 -9.63281C-11.3223 -9.63281 -25.5723 -9.63281 -25.5723 -9.63281C-25.5723 -9.63281 -24.7002 -16.8568 -22.9561 -19.6523C-21.2119 -22.4479 -18.7441 -24.6064 -15.5527 -26.1279C-12.3613 -27.6494 -8.62565 -28.4102 -4.3457 -28.4102C0.0826855 -28.4102 3.91732 -27.7051 7.15821 -26.2949C10.3991 -24.8848 12.904 -22.8994 14.6729 -20.3389C16.4417 -17.7783 17.3262 -14.7786 17.3262 -11.3398C17.3262 -9.21224 16.887 -7.10319 16.0088 -5.0127C15.1305 -2.9222 13.5534 -0.602865 11.2773 1.94531C9.0013 4.49349 5.74805 7.51172 1.51758 11C1.51758 11 -3.67773 15.3047 -3.67773 15.3047L-3.67773 15.6758L17.9199 15.6758L23.3601 24.6527L17.9199 27.625L-24.5332 27.625ZM45.3066 28.3672C41.0514 28.3672 37.2786 27.6188 33.9883 26.1221C30.6979 24.6253 28.1126 22.5534 26.2324 19.9062C24.3522 17.2591 23.3874 14.2161 23.3379 10.7773C23.3379 10.7773 28.8025 7.82547 28.8025 7.82547L37.959 10.7773C37.959 10.7773 38.293 13.14 38.9609 14.0801C39.6289 15.0202 40.5195 15.7438 41.6328 16.251C42.7461 16.7581 43.9707 17.0117 45.3066 17.0117C46.8405 17.0117 48.1826 16.6839 49.333 16.0283C50.4834 15.3727 51.3864 14.4512 52.042 13.2637C52.6976 12.0762 53.0254 10.6784 53.0254 9.07031C53.0254 7.4375 52.6976 6.02116 52.042 4.82129C51.3864 3.62142 50.4834 2.69369 49.333 2.03809C48.1826 1.38249 46.8405 1.05469 45.3066 1.05469C43.6986 1.05469 43.4423 2.31534 43.4423 2.31534C43.4423 2.31534 38.6022 4.02344 37.959 5.35938C37.959 5.35938 24.748 2.76172 24.748 2.76172L26.9004 -27.668L32.366 -30.6324L64.084 -27.668L69.5014 -18.6129L64.084 -15.6445L39.2207 -15.6445L38.1816 -3.47266L38.4785 -3.47266C38.4785 -3.47266 40.8411 -6.54037 42.9688 -7.62891C45.0964 -8.71745 47.5579 -9.26172 50.3535 -9.26172C52.8027 -9.26172 55.0726 -8.82877 57.1631 -7.96289C59.2536 -7.097 61.0719 -5.86621 62.6182 -4.27051C64.1644 -2.6748 65.3643 -0.782227 66.2178 1.40723C67.0713 3.59668 67.498 6.0026 67.498 8.625C67.498 12.4844 66.5827 15.8984 64.752 18.8672C62.9212 21.8359 60.3421 24.1615 57.0146 25.8438C53.6872 27.526 49.7845 28.3672 45.3066 28.3672Z"></path>
  <path fill="#DEDEDE" transform="matrix(0.543295 -0.0133836 0.0159581 0.647803 237.827 344.81)" d="M-51.8282 28.625L-51.8282 -26.668L-47.375 -26.668L-47.375 28.625L-51.8282 28.625ZM-49.75 22.3164C-54.2526 22.3164 -58.1058 21.4196 -61.3096 19.626C-64.5134 17.8324 -66.9626 15.3337 -68.6573 12.1299C-70.3519 8.92611 -71.1992 5.19662 -71.1992 0.941406C-71.1992 -3.3138 -70.3519 -7.0433 -68.6573 -10.2471C-66.9626 -13.4508 -64.5134 -15.9495 -61.3096 -17.7432C-58.1058 -19.5368 -54.2526 -20.4336 -49.75 -20.4336C-46.8802 -20.4336 -44.2826 -20.0625 -41.9571 -19.3203C-39.6315 -18.5781 -37.6091 -17.5205 -35.8897 -16.1475C-34.1703 -14.7744 -32.8034 -13.1169 -31.7891 -11.1748C-30.7748 -9.23275 -30.1439 -7.06185 -29.8965 -4.66211C-29.8965 -4.66211 -43.5899 -2.62109 -43.5899 -2.62109C-43.5899 -2.62109 -44.0166 -4.6683 -44.3506 -5.49707C-44.6846 -6.32584 -45.099 -7.02474 -45.5938 -7.59375C-46.0886 -8.16276 -46.6638 -8.58952 -47.3194 -8.87402C-47.975 -9.15853 -48.711 -9.30078 -49.5274 -9.30078C-50.8386 -9.30078 -51.9766 -8.92969 -52.9414 -8.1875C-53.9063 -7.44531 -54.6547 -6.31966 -55.1866 -4.81055C-55.7185 -3.30143 -55.9844 -1.40885 -55.9844 0.867188C-55.9844 3.11849 -55.7185 5.01107 -55.1866 6.54492C-54.6547 8.07878 -53.9063 9.23535 -52.9414 10.0146C-51.9766 10.7939 -50.8386 11.1836 -49.5274 11.1836C-48.711 11.1836 -47.975 11.0352 -47.3194 10.7383C-46.6638 10.4414 -46.0824 10.0023 -45.5752 9.4209C-45.0681 8.83952 -44.6475 8.11588 -44.3135 7.25C-43.9795 6.38412 -43.7383 5.39453 -43.5899 4.28125C-43.5899 4.28125 -29.8965 6.28516 -29.8965 6.28516C-29.8965 6.28516 -30.7748 10.9795 -31.7891 12.9463C-32.8034 14.9131 -34.1641 16.5954 -35.8711 17.9932C-37.5782 19.3909 -39.6006 20.4609 -41.9385 21.2031C-44.2764 21.9453 -46.8802 22.3164 -49.75 22.3164ZM-24.0332 28.625L-24.0332 17.8633L-3.40039 0.792969C-3.40039 0.792969 -0.864588 -1.41504 0.124996 -2.41699C1.11458 -3.41895 1.87532 -4.45182 2.40722 -5.51562C2.93912 -6.57943 3.20507 -7.76693 3.20507 -9.07812C3.20507 -10.4883 2.90201 -11.6943 2.29589 -12.6963C1.68978 -13.6982 0.860998 -14.4714 -0.190434 -15.0156C-1.24187 -15.5599 -2.46029 -15.832 -3.84571 -15.832C-5.23112 -15.832 -6.44955 -15.5537 -7.50098 -14.9971C-8.55241 -14.4404 -9.36882 -13.6302 -9.9502 -12.5664C-10.5316 -11.5026 -10.8223 -10.1914 -10.8223 -8.63281C-10.8223 -8.63281 -25.0723 -8.63281 -25.0723 -8.63281C-25.0723 -8.63281 -24.2002 -15.8568 -22.4561 -18.6523C-20.7119 -21.4479 -18.2441 -23.6064 -15.0527 -25.1279C-11.8613 -26.6494 -8.12565 -27.4102 -3.84571 -27.4102C0.582678 -27.4102 4.41732 -26.7051 7.6582 -25.2949C10.8991 -23.8848 13.404 -21.8994 15.1728 -19.3389C16.9417 -16.7783 17.8262 -13.7786 17.8262 -10.3398C17.8262 -8.21224 17.387 -6.10319 16.5088 -4.0127C15.6305 -1.9222 14.0534 0.397135 11.7773 2.94531C9.5013 5.49349 6.24804 8.51172 2.01757 12C2.01757 12 -3.17774 16.3047 -3.17774 16.3047L-3.17774 16.6758L18.4199 16.6758L18.4199 28.625L-24.0332 28.625ZM45.8066 29.3672C41.5514 29.3672 37.7786 28.6188 34.4883 27.1221C31.1979 25.6253 28.6126 23.5534 26.7324 20.9062C24.8522 18.2591 23.8874 15.2161 23.8379 11.7773C23.8379 11.7773 38.459 11.7773 38.459 11.7773C38.459 11.7773 38.793 14.14 39.4609 15.0801C40.1289 16.0202 41.0195 16.7438 42.1328 17.251C43.2461 17.7581 44.4707 18.0117 45.8066 18.0117C47.3405 18.0117 48.6826 17.6839 49.833 17.0283C50.9834 16.3727 51.8864 15.4512 52.542 14.2637C53.1976 13.0762 53.5254 11.6784 53.5254 10.0703C53.5254 8.4375 53.1976 7.02116 52.542 5.82129C51.8864 4.62142 50.9834 3.69369 49.833 3.03809C48.6826 2.38249 47.3405 2.05469 45.8066 2.05469C44.1986 2.05469 42.7327 2.43815 41.4092 3.20508C40.0856 3.97201 39.1022 5.02344 38.459 6.35938C38.459 6.35938 25.248 3.76172 25.248 3.76172L27.4004 -26.668L64.584 -26.668L64.584 -14.6445L39.7207 -14.6445L38.6816 -2.47266L38.9785 -2.47266C38.9785 -2.47266 41.3411 -5.54037 43.4688 -6.62891C45.5964 -7.71745 48.0579 -8.26172 50.8535 -8.26172C53.3027 -8.26172 55.5726 -7.82877 57.6631 -6.96289C59.7536 -6.097 61.5719 -4.86621 63.1182 -3.27051C64.6644 -1.6748 65.8643 0.217773 66.7178 2.40723C67.5713 4.59668 67.998 7.0026 67.998 9.625C67.998 13.4844 67.0827 16.8984 65.252 19.8672C63.4212 22.8359 60.8421 25.1615 57.5146 26.8438C54.1872 28.526 50.2845 29.3672 45.8066 29.3672Z"></path>
  <clipPath id="cl_4ae">
    <path d="M210.126 364.047L209.243 328.228L211.663 328.169L212.545 363.988L210.126 364.047ZM211.154 359.933C208.708 359.993 206.6 359.463 204.831 358.344C203.062 357.225 201.691 355.639 200.719 353.587C199.747 351.534 199.228 349.129 199.16 346.373C199.092 343.616 199.493 341.189 200.362 339.091C201.232 336.993 202.522 335.341 204.234 334.137C205.946 332.932 208.026 332.299 210.472 332.239C212.031 332.201 213.448 332.406 214.723 332.856C215.999 333.306 217.114 333.964 218.07 334.83C219.026 335.696 219.796 336.752 220.378 337.996C220.96 339.241 221.337 340.639 221.51 342.19C221.51 342.19 214.103 343.696 214.103 343.696C214.103 343.696 213.838 342.375 213.644 341.843C213.449 341.31 213.213 340.863 212.935 340.501C212.657 340.139 212.338 339.87 211.977 339.695C211.616 339.519 211.214 339.437 210.77 339.448C210.058 339.465 209.446 339.721 208.933 340.215C208.421 340.708 208.032 341.448 207.767 342.432C207.503 343.417 207.388 344.647 207.425 346.121C207.461 347.58 207.635 348.802 207.949 349.789C208.262 350.775 208.687 351.514 209.224 352.006C209.76 352.498 210.385 352.735 211.097 352.718C211.541 352.707 211.938 352.601 212.29 352.4C212.641 352.199 212.95 351.906 213.216 351.523C213.483 351.14 213.7 350.665 213.867 350.1C214.035 349.534 214.15 348.89 214.213 348.167C214.213 348.167 221.684 349.282 221.684 349.282C221.684 349.282 221.282 352.335 220.763 353.622C220.243 354.91 219.53 356.018 218.625 356.946C217.72 357.875 216.638 358.595 215.38 359.107C214.122 359.619 212.713 359.894 211.154 359.933ZM225.226 363.675L225.055 356.704L235.992 345.369C235.992 345.369 237.334 343.905 237.856 343.243C238.378 342.58 238.775 341.901 239.047 341.205C239.319 340.509 239.444 339.736 239.423 338.886C239.401 337.973 239.217 337.196 238.872 336.555C238.526 335.914 238.064 335.424 237.484 335.085C236.904 334.747 236.237 334.587 235.485 334.606C234.732 334.624 234.075 334.821 233.512 335.195C232.95 335.57 232.519 336.106 232.22 336.803C231.921 337.5 231.784 338.353 231.809 339.363C231.809 339.363 224.067 339.553 224.067 339.553C224.067 339.553 224.426 334.862 225.329 333.028C226.232 331.193 227.538 329.762 229.248 328.734C230.957 327.705 232.975 327.162 235.3 327.105C237.706 327.046 239.801 327.451 241.584 328.321C243.367 329.192 244.76 330.444 245.761 332.079C246.763 333.714 247.292 335.646 247.347 337.873C247.381 339.252 247.176 340.624 246.732 341.99C246.288 343.356 245.468 344.879 244.272 346.56C243.076 348.242 241.357 350.24 239.114 352.557C239.114 352.557 236.361 355.415 236.361 355.415L236.366 355.655L248.1 355.366L248.291 363.107L225.226 363.675ZM263.182 363.221C260.87 363.278 258.808 362.844 256.997 361.918C255.185 360.993 253.748 359.685 252.684 357.995C251.62 356.306 251.047 354.347 250.966 352.12C250.966 352.12 258.909 351.925 258.909 351.925C258.909 351.925 259.128 353.451 259.506 354.051C259.884 354.651 260.38 355.108 260.993 355.421C261.606 355.735 262.275 355.883 263.001 355.865C263.834 355.845 264.558 355.614 265.173 355.174C265.787 354.734 266.263 354.125 266.6 353.347C266.937 352.569 267.093 351.659 267.068 350.617C267.041 349.56 266.841 348.646 266.465 347.878C266.09 347.109 265.585 346.521 264.949 346.111C264.314 345.702 263.579 345.508 262.746 345.528C261.872 345.55 261.082 345.818 260.375 346.332C259.668 346.847 259.151 347.541 258.823 348.415C258.823 348.415 251.604 346.909 251.604 346.909L252.288 327.168L272.489 326.67L272.681 334.459L259.173 334.792L258.803 342.691L258.964 342.687C258.964 342.687 260.199 340.668 261.337 339.934C262.476 339.2 263.805 338.815 265.323 338.778C266.654 338.745 267.894 338.995 269.044 339.528C270.193 340.061 271.201 340.834 272.066 341.847C272.932 342.86 273.614 344.07 274.113 345.477C274.611 346.883 274.882 348.436 274.923 350.135C274.985 352.635 274.542 354.859 273.595 356.807C272.648 358.754 271.284 360.295 269.503 361.43C267.722 362.564 265.615 363.161 263.182 363.221Z"></path>
  </clipPath>
  <g clip-path="url(#cl_4ae)">
    <path fill="#F2F1F1" transform="matrix(0.518216 0.200801 -0.163937 0.616042 230.514 379.074)" d="M-170.753 -28.5017L169.944 -28.5017L169.944 28.5017L-170.753 28.5017L-170.753 -28.5017Z"></path>
    <path fill="#F2F1F1" transform="matrix(0.518216 0.200801 -0.163937 0.616042 223.212 402.536)" d="M-170.753 -5.22018L169.944 -5.22018L169.944 5.22015L-170.753 5.22015L-170.753 -5.22018Z"></path>
  </g>
  <path fill="#8E8B8B" transform="matrix(0.647803 -0.0159581 0.0159581 0.647803 232.924 267.147)" d="M0 0C0 0 -15.2012 5.72205e-06 -18.2664 0C-66.3551 1.30369 -126.35 32.2772 -126.35 128C-126.35 223.723 -55.9022 256 -19 256C-15.9348 256 -1.90735e-06 256 -3.8147e-06 256C-25.5439 256 -107.35 223.723 -107.35 128C-107.35 32.2772 -25.5438 1.90735e-06 0 0Z"></path>
  <clipPath id="cl_4b0">
    <path d="M232.924 267.147C232.924 267.147 223.076 267.39 221.091 267.439C189.959 269.051 151.589 290.073 153.116 352.082C154.644 414.092 200.795 433.877 224.701 433.288C226.686 433.239 237.009 432.985 237.009 432.985C220.462 433.393 166.952 413.789 165.425 351.779C163.897 289.77 216.376 267.555 232.924 267.147Z"></path>
  </clipPath>
  <g clip-path="url(#cl_4b0)">
    <path fill="#ACABAB" transform="matrix(0.543295 -0.0133836 0.0159581 0.647803 190.391 387.722)" d="M-105.5 -40.8039L105 -40.8039L105 40.8039L-105.5 40.8039L-105.5 -40.8039Z"></path>
    <path fill="#D6D6D6" transform="matrix(0.543295 -0.0133836 0.0159581 0.647803 186.216 382.705)" d="M-105.5 -7.02944L105 -7.02944L105 7.02947L-105.5 7.02947L-105.5 -7.02944Z"></path>
    <path fill="#D6D6D6" transform="matrix(0.544839 -0.0134216 0.0159128 0.645967 208.151 353.968)" d="M-137.32 -30.4789L136.67 -30.4789L136.67 30.4789L-137.32 30.4789L-137.32 -30.4789Z"></path>
  </g>
  <path fill="#91A8EB" transform="matrix(0.606874 0.00990163 -0.00990163 0.606874 198.242 79.4657)" d="M0 -22.5C14.6355 -22.5 26.5 -12.3145 26.5 0.25C26.5 12.8145 14.6355 23 0 23C-14.6355 23 -26.5 12.8145 -26.5 0.25C-26.5 -12.3145 -14.6355 -22.5 0 -22.5Z"></path>
  <path fill="#91A8EB" transform="matrix(0.504938 0.00823846 -0.00823846 0.504938 182.792 90.1631)" d="M-4.23752e-08 -22.5C14.6355 -22.5 26.5 -12.3144 26.5 0.25003C26.5 12.8145 14.6355 23 4.23752e-08 23C-14.6355 23 -26.5 12.8145 -26.5 0.250031C-26.5 -12.3144 -14.6355 -22.5 -4.23752e-08 -22.5Z"></path>
  <path fill="#91A8EB" transform="matrix(0.274279 0.00447507 -0.00447507 0.274279 163.923 57.3765)" d="M0 -22.4262C14.2962 -22.4262 25.8855 -12.2741 25.8855 0.249207C25.8855 12.7725 14.2962 22.9246 0 22.9246C-14.2962 22.9246 -25.8855 12.7725 -25.8855 0.249207C-25.8855 -12.2741 -14.2962 -22.4262 0 -22.4262Z"></path>
  <path fill="#C1CBE8" transform="matrix(0.073816 -0.11483 0.26388 0.16963 160.166 54.7739)" d="M6.10352e-05 -11.5C14.6356 -11.5 28.0061 -7.98328 28.0061 -1.63201C28.0061 4.71926 15.506 0.400185 0.870417 0.400186C-13.7651 0.400185 -26.766 4.37689 -26.766 -1.97439C-26.766 -8.32566 -14.6355 -11.5 6.10352e-05 -11.5Z"></path>
  <path fill="#C1CBE8" transform="matrix(-0.166841 -0.570472 0.880441 -0.257495 182.702 116.536)" d="M-3.05176e-05 -11.5C14.6355 -11.5 28.0061 -7.98328 28.0061 -1.63201C28.0061 4.71927 15.5059 0.400186 0.870326 0.400186C-13.7652 0.400184 -26.7661 4.37689 -26.7661 -1.97439C-26.7661 -8.32566 -14.6356 -11.5 -3.05176e-05 -11.5Z"></path>
  <path fill="#1B2B56" transform="matrix(1.78669 -0.21848 0.065544 0.536007 236.852 89.1893)" d="M-5.45755e-07 -2.50003C1.38071 -2.50003 2.5 -1.38074 2.5 -3.05176e-05C2.5 1.38068 1.38071 2.49997 -5.27129e-07 2.49997C-1.38071 2.49997 -2.5 1.38068 -2.5 -3.05176e-05C-2.5 -1.38074 -1.38071 -2.50003 -5.45755e-07 -2.50003Z"></path>
  <path fill="none" stroke="#1B2B56" stroke-width="0.5" stroke-linecap="round" stroke-linejoin="round" transform="matrix(1.78289 -0.247598 0.247598 1.78289 245.496 88.0777)" d="M1.98548 0.277981L6.02909 0.184244"></path>
  <path fill="#1B2B56" transform="matrix(1.78669 -0.21848 0.065544 0.536007 265.44 85.6936)" d="M-9.31323e-09 -2.5C1.38071 -2.5 2.5 -1.38071 2.5 0C2.5 1.38071 1.38071 2.5 9.31323e-09 2.5C-1.38071 2.5 -2.5 1.38071 -2.5 0C-2.5 -1.38071 -1.38071 -2.5 -9.31323e-09 -2.5Z"></path>
  <path fill="#354B89" transform="matrix(1.46507 -0.885005 0.929571 0.72522 257.217 78.7615)" d="M0 -2.5C1.38071 -2.5 2.5 -1.38071 2.5 1.49012e-07C2.5 1.38071 1.38071 2.5 0 2.5C-1.38071 2.5 -2.5 1.38071 -2.5 -1.49012e-07C-2.5 -1.38071 -1.38071 -2.5 0 -2.5Z"></path>
  <path fill="#354B89" transform="matrix(2.16254 0.296937 -0.629837 1.0733 241.244 79.701)" d="M-3.8147e-06 -2.98531C1.68305 -2.98531 3.04744 -1.64873 3.04744 3.04268e-05C3.04744 1.64879 1.68305 2.98537 -3.8147e-06 2.98537C-1.68306 2.98537 -3.04744 1.64879 -3.04744 3.06084e-05C-3.04744 -1.64873 -1.68306 -2.98531 -3.8147e-06 -2.98531Z"></path>
  <path fill="none" stroke="white" stroke-width="5" stroke-linecap="round" stroke-linejoin="round" transform="matrix(1.5 0 0 1.5 158.539 362.24)" d=""></path>
</svg>