<?xml version="1.0" encoding="utf-8"?>
<svg xmlns="http://www.w3.org/2000/svg" xmlns:xlink="http://www.w3.org/1999/xlink" width="512" height="512">
  <path fill="none" stroke="black" stroke-width="7" stroke-linejoin="round" transform="matrix(1.8 3.72529e-09 -3.72529e-09 1.8 210.879 409.868)" d="M3.7992 -45.5817C19.9769 -53.9751 46.0397 -44.008 53.0368 1.12326C46.3512 32.5756 25.2968 46.6276 16.3174 41.1461C7.33803 35.6646 -0.199001 31.4413 -9.19319 26.3535C-18.2101 21.0454 -8.3919 17.9254 -2.21368 -1.28729C-10.3781 -35.8129 -12.3785 -37.1884 3.7992 -45.5817Z"></path>
  <path fill="none" stroke="black" stroke-width="7" stroke-linejoin="round" transform="matrix(-2.15345 -3.29802e-07 -3.27096e-07 2.13577 356.562 293.397)" d="M19.7886 -56.45C22.3416 -51.438 25.7945 -35.4547 25.0828 -31.5933C24.371 -27.7318 27.1855 -18.1873 21.7756 5.5637C15.6565 33.7871 7.35254 55.7643 -17.3787 50.4787C-32.8838 47.0612 -40.1054 21.4965 -33.9863 -6.72691C-26.3147 -42.1109 3.83533 -65.6179 19.7886 -56.45Z"></path>
  <path fill="none" stroke="black" stroke-width="7" stroke-linejoin="round" transform="matrix(1.79976 0.0293645 -0.0293645 1.79976 266.856 294.562)" d="M0.209625 -80.0966C37.3348 -80.0966 84.5 -60 84.5 -1.90735e-06C84.5 41.1452 46.7396 76.2788 0.209625 76.2788C-62.1658 76.2788 -84 60.12 -84 -1.90735e-06C-84 -71.2881 -50.5087 -80.0966 0.209625 -80.0966Z"></path>
  <path fill="none" stroke="black" stroke-width="7" stroke-linejoin="round" transform="matrix(1.53671 3.18039e-09 -3.72529e-09 1.8 308.979 398.168)" d="M-9.06629 -47.6632C9.1577 -47.8555 24.6293 -41.1094 25.1564 8.46319C25.7404 22.3097 19.8075 46.0778 6.12936 46.0381C-7.54878 45.9985 -13.6843 45.9807 -25.8863 45.9453C-38.0883 45.9099 -40.2545 23.006 -40.8386 9.1595C-41.7082 -42.6003 -27.2903 -47.4709 -9.06629 -47.6632Z"></path>
  <path fill="#6C88D9" transform="matrix(-2.15345 -3.29802e-07 -3.27096e-07 2.13577 356.562 293.397)" d="M19.7886 -56.45C22.3416 -51.438 25.7945 -35.4547 25.0828 -31.5933C24.371 -27.7318 27.1855 -18.1873 21.7756 5.5637C15.6565 33.7871 7.35254 55.7643 -17.3787 50.4787C-32.8838 47.0612 -40.1054 21.4965 -33.9863 -6.72691C-26.3147 -42.1109 3.83533 -65.6179 19.7886 -56.45Z"></path>
  <path fill="#5170C8" transform="matrix(1.53671 3.18039e-09 -3.72529e-09 1.8 308.979 398.168)" d="M-9.06629 -47.6632C9.1577 -47.8555 24.6293 -41.1094 25.1564 8.46319C25.7404 22.3097 19.8075 46.0778 6.12936 46.0381C-7.54878 45.9985 -13.6843 45.9807 -25.8863 45.9453C-38.0883 45.9099 -40.2545 23.006 -40.8386 9.1595C-41.7082 -42.6003 -27.2903 -47.4709 -9.06629 -47.6632Z"></path>
  <path fill="#839BE0" transform="matrix(1.20328 2.49031e-09 -2.91698e-09 1.40944 308.979 398.168)" d="M-11.3947 -48.1646C6.82928 -48.3569 21.7505 -41.5214 22.4696 12.542C22.2222 30.4757 13.457 45.629 -0.221123 45.5894C-13.8993 45.5497 -13.7246 45.6007 -25.9266 45.5653C-38.1285 45.5299 -43.7728 31.172 -43.5254 13.2383C-44.5871 -43.0123 -29.6187 -47.9723 -11.3947 -48.1646Z"></path>
  <path fill="#6C88D9" transform="matrix(1.8 3.72529e-09 -3.72529e-09 1.8 210.879 409.868)" d="M3.7992 -45.5817C19.9769 -53.9751 46.0397 -44.008 53.0368 1.12326C46.3512 32.5756 25.2968 46.6276 16.3174 41.1461C7.33803 35.6646 -0.199001 31.4413 -9.19319 26.3535C-18.2101 21.0454 -8.3919 17.9254 -2.21368 -1.28729C-10.3781 -35.8129 -12.3785 -37.1884 3.7992 -45.5817Z"></path>
  <path fill="#91A8EB" transform="matrix(-1.67686 -2.56813e-07 -3.2026e-07 2.09114 352.572 287.684)" d="M20.9921 -50.1871C42.6489 -46.3908 29.2931 -23.3155 20.0802 4.33636C10.8673 31.9882 -6.97367 52.7656 -22.0809 50.1174C-37.1882 47.4692 -42.8572 22.6444 -35.2088 -5.41185C-27.5604 -33.4681 -0.664753 -53.9835 20.9921 -50.1871Z"></path>
  <path fill="none" stroke="black" stroke-width="7" stroke-miterlimit="4" transform="matrix(1.79976 0.0293645 -0.0293645 1.79976 225.405 137.587)" d="M0 -29.5C19.0538 -29.5 34.5 -16.1805 34.5 0.250008C34.5 16.6805 19.0538 30 0 30C-19.0538 30 -34.5 16.6805 -34.5 0.250008C-34.5 -16.1805 -19.0538 -29.5 0 -29.5Z"></path>
  <path fill="#6C88D9" transform="matrix(1.79976 0.0293645 -0.0293645 1.79976 266.856 294.562)" d="M0.209625 -80.0966C37.3348 -80.0966 84.5 -60 84.5 -1.90735e-06C84.5 41.1452 46.7396 76.2788 0.209625 76.2788C-62.1658 76.2788 -84 60.12 -84 -1.90735e-06C-84 -71.2881 -50.5087 -80.0966 0.209625 -80.0966Z"></path>
  <path fill="none" stroke="black" stroke-width="9" stroke-miterlimit="4" transform="translate(256 256)" d="M-56.9044 -176.23C-42.1218 -175.989 -30.3067 -165.46 -30.5147 -152.712C-30.7227 -139.965 -42.8749 -129.827 -57.6575 -130.068C-72.4401 -130.309 -84.2552 -140.838 -84.0472 -153.586C-83.8392 -166.333 -71.687 -176.471 -56.9044 -176.23Z"></path>
  <path fill="none" stroke="black" stroke-width="9" stroke-miterlimit="4" transform="translate(256 256)" d="M-72.4174 -161.318C-60.1178 -161.117 -50.2873 -152.356 -50.4603 -141.75C-50.6334 -131.144 -60.7444 -122.709 -73.044 -122.909C-85.3436 -123.11 -95.1741 -131.871 -95.0011 -142.477C-94.828 -153.083 -84.7169 -161.518 -72.4174 -161.318Z"></path>
  <path fill="none" stroke="black" stroke-width="9" stroke-miterlimit="4" transform="translate(256 256)" d="M-92.4245 -185.652C-85.7434 -185.543 -80.4036 -180.784 -80.4976 -175.023C-80.5916 -169.262 -86.0838 -164.68 -92.7649 -164.789C-99.4459 -164.898 -104.786 -169.656 -104.692 -175.417C-104.598 -181.179 -99.1055 -185.761 -92.4245 -185.652Z"></path>
  <path fill="#6C88D9" transform="matrix(1.79976 0.0293645 -0.0293645 1.79976 225.405 137.587)" d="M0 -29.5C19.0538 -29.5 34.5 -16.1805 34.5 0.250008C34.5 16.6805 19.0538 30 0 30C-19.0538 30 -34.5 16.6805 -34.5 0.250008C-34.5 -16.1805 -19.0538 -29.5 0 -29.5Z"></path>
  <path fill="#6C88D9" transform="matrix(0.775834 0.0126583 -0.0126583 0.775834 198.722 102.657)" d="M7.62939e-06 -29.5C19.0538 -29.5 34.5 -16.1805 34.5 0.25C34.5 16.6805 19.0538 30 7.62939e-06 30C-19.0538 30 -34.5 16.6805 -34.5 0.25C-34.5 -16.1805 -19.0538 -29.5 7.62939e-06 -29.5Z"></path>
  <path fill="#6C88D9" transform="matrix(0.645518 0.0105321 -0.0105321 0.645518 183.272 113.725)" d="M0 -29.5C19.0538 -29.5 34.5 -16.1805 34.5 0.249985C34.5 16.6805 19.0538 30 0 30C-19.0538 30 -34.5 16.6805 -34.5 0.249985C-34.5 -16.1805 -19.0538 -29.5 0 -29.5Z"></path>
  <path fill="#6C88D9" transform="matrix(0.35064 0.00572097 -0.00572097 0.35064 163.407 80.6923)" d="M0 -29.5C19.0538 -29.5 34.5 -16.1805 34.5 0.25C34.5 16.6805 19.0538 30 0 30C-19.0538 30 -34.5 16.6805 -34.5 0.25C-34.5 -16.1805 -19.0538 -29.5 0 -29.5Z"></path>
  <path fill="#91A8EB" transform="matrix(1.50913 0.0246226 -0.0246226 1.50913 265.492 294.562)" d="M0.24998 -81.5196C49.8787 -81.2985 84.5 -60 84.5 1.90735e-06C84.5 41.1452 46.78 74.5 0.25 74.5C-62.1254 74.5 -84 60.12 -84 1.90735e-06C-84 -71.2881 -62.1254 -81.5196 0.24998 -81.5196Z"></path>
  <clipPath id="cl_ad">
    <path d="M269.586 150.414C336.402 151.504 420.698 189.058 418.936 297.044C417.728 371.095 348.737 433.218 264.994 431.852C152.733 430.02 113.911 400.297 115.677 292.096C117.77 163.794 178.305 148.924 269.586 150.414Z"></path>
  </clipPath>
  <g clip-path="url(#cl_ad)">
    <path fill="#A6B8EF" transform="matrix(0.805953 0.0131497 -0.0151654 0.929491 321.15 259.441)" d="M0.24998 -81.5196C49.8787 -81.2985 84.5 -60 84.5 4.76837e-07C84.5 41.1452 67.1354 74.5 20.6054 74.5C-41.77 74.5 -84 60.12 -84 4.76837e-07C-84 -71.2881 -62.1254 -81.5197 0.24998 -81.5196Z"></path>
    <path fill="#C1CBE8" transform="matrix(0.197995 -0.202726 0.445703 0.435301 344.25 210.591)" d="M11.5671 -77.0972C58.0971 -77.0972 97.5959 -41.1452 97.5959 -2.05241e-05C97.5959 41.1452 73.4188 83.0524 26.8888 83.0524C-35.4866 83.0524 11.8086 60.12 11.8086 -1.92457e-05C11.8086 -41.1452 -34.9629 -77.0972 11.5671 -77.0972Z"></path>
    <path fill="#C1CBE8" transform="matrix(0.197995 -0.202726 0.184201 0.179903 388.693 274.947)" d="M48.93 -79.7642C80.6762 -79.0529 77.4946 -42.8889 62.8507 4.00565C48.2069 50.9001 -0.03942 91.2963 -20.4536 67.777C-40.8678 44.2576 -16.8141 31.8032 -0.458991 -5.13881C15.8961 -42.0808 17.1838 -80.4755 48.93 -79.7642Z"></path>
  </g>
  <path fill="#91A8EB" transform="matrix(1.37947 2.85496e-09 -2.85496e-09 1.37947 210.879 346.868)" d="M11.3954 -1.39862C27.5731 -9.79197 53.2962 -7.03458 61.9401 44.5376C61.2199 66.8233 33.4712 91.0608 24.4918 85.5793C15.5124 80.0978 7.97535 75.8745 -1.01879 70.7868C-10.0172 65.6123 4.03031 63.7262 4.75054 41.4405C-5.25689 0.660866 -4.78227 6.99474 11.3954 -1.39862Z"></path>
  <path fill="#91A8EB" transform="matrix(1.79976 0.0293645 -0.0293645 1.79976 225.405 137.587)" d="M0 -22.5C14.6355 -22.5 26.5 -12.3145 26.5 0.250008C26.5 12.8145 14.6355 23 0 23C-14.6355 23 -26.5 12.8145 -26.5 0.250008C-26.5 -12.3145 -14.6355 -22.5 0 -22.5Z"></path>
  <path fill="none" stroke="black" stroke-width="7" stroke-linecap="round" stroke-linejoin="round" transform="matrix(2.15345 4.45679e-09 -4.42021e-09 2.13577 150.67 303.061)" d="M25.9246 -28.6778C26.6156 -23.92 27.7113 -16.7896 29.3717 -5.34527C36.4188 21.791 49.7578 37.0046 27.5334 49.1538C13.5331 56.6917 -17.2767 35.9601 -24.3502 8.72195C-28.6761 -16.543 -18.0878 -40.8266 -5.32288 -52.7647"></path>
  <path fill="#6C88D9" transform="matrix(2.15345 4.45679e-09 -4.42021e-09 2.13577 150.67 303.061)" d="M14.0492 -59.9398C17.6887 -55.6642 24.7348 -40.9295 24.9336 -37.007C25.1324 -33.0845 26.2611 -26.7845 29.3717 -5.34527C36.4188 21.791 49.7578 37.0046 27.5334 49.1538C13.5331 56.6917 -17.2767 35.9601 -24.3502 8.72195C-30.8617 -29.3077 -3.58176 -65.1138 14.0492 -59.9398Z"></path>
  <path fill="#91A8EB" transform="matrix(1.67686 3.47045e-09 -4.32784e-09 2.09114 154.659 297.348)" d="M15.0515 -53.5005C37.2155 -53.8487 29.5166 -30.5727 27.6655 -5.0911C30.7358 22.019 50.3416 39.213 37.5225 46.1485C24.7033 53.084 -13.8083 34.2194 -24.1364 7.94959C-31.5946 -22.2805 -7.11252 -53.1523 15.0515 -53.5005Z"></path>
  <path fill="#312F2F" transform="matrix(0.542848 -0.0257693 0.0307263 0.647271 228.942 368.703)" d="M4.29153e-06 -128C70.6925 -128 128 -70.6925 128 -1.52588e-05C128 70.6924 70.6925 128 3.33786e-06 128C-70.6925 128 -128 70.6924 -128 -1.52588e-05C-128 -70.6925 -70.6925 -128 4.29153e-06 -128Z"></path>
  <path fill="none" stroke="black" stroke-width="7" stroke-miterlimit="4" transform="translate(256 256)" d="M-18.6932 29.269C19.6821 27.4473 52.5522 63.064 54.7244 108.821C56.8965 154.578 27.548 193.149 -10.8272 194.97C-49.2025 196.792 -82.0726 161.175 -84.2448 115.418C-86.4169 69.6609 -57.0684 31.0907 -18.6932 29.269Z"></path>
  <path fill="none" stroke="black" stroke-width="7" stroke-linejoin="round" transform="translate(256 256)" d="M-18.6932 29.269C-18.6932 29.269 -28.5324 29.736 -30.5165 29.8302C-61.6028 32.1516 -99.4841 54.0433 -96.5429 116.002C-93.6017 177.961 -47.0111 196.688 -23.1254 195.554C-21.1413 195.46 -10.8272 194.97 -10.8272 194.97C-11.384 194.997 -11.9832 195.002 -12.6214 194.984"></path>
  <path fill="#DEDEDE" transform="matrix(0.542848 -0.0257693 0.0307263 0.647271 241.24 368.12)" d="M4.76837e-07 -128C70.6925 -128 128 -70.6925 128 0C128 70.6925 70.6925 128 -4.76837e-07 128C-70.6925 128 -128 70.6925 -128 0C-128 -70.6925 -70.6925 -128 4.76837e-07 -128Z"></path>
  <clipPath id="cl_b0">
    <path d="M237.307 285.269C275.682 283.447 308.552 319.064 310.724 364.821C312.896 410.578 283.548 449.149 245.173 450.97C206.798 452.792 173.927 417.175 171.755 371.418C169.583 325.661 198.932 287.091 237.307 285.269Z"></path>
  </clipPath>
  <g clip-path="url(#cl_b0)">
    <path fill="#F2F1F1" transform="matrix(0.522661 0.188932 -0.149846 0.61962 237.45 397.221)" d="M-170.753 -28.5017L169.944 -28.5017L169.944 28.5017L-170.753 28.5017L-170.753 -28.5017Z"></path>
    <path fill="#F2F1F1" transform="matrix(0.522661 0.188932 -0.149846 0.61962 230.685 420.843)" d="M-170.753 -5.22019L169.944 -5.22019L169.944 5.22013L-170.753 5.22013L-170.753 -5.22019Z"></path>
  </g>
  <path fill="#8B8B8B" transform="matrix(0.542848 -0.0257693 0.0307263 0.647271 244.738 367.305)" d="M0.249998 -87.5C51.4744 -87.5 93 -48.4369 93 -0.250015C93 47.9368 51.4744 87 0.249998 87C-50.9744 87 -92.5 47.9368 -92.5 -0.250015C-92.5 -48.4369 -50.9744 -87.5 0.249998 -87.5Z"></path>
  <path fill="#B0AFAF" transform="matrix(0.542848 -0.0257693 0.0307263 0.647271 241.24 368.12)" d="M3.20375e-07 -86C47.4965 -86 86 -47.4965 86 0C86 47.4965 47.4965 86 -3.20375e-07 86C-47.4965 86 -86 47.4965 -86 0C-86 -47.4965 -47.4965 -86 3.20375e-07 -86Z"></path>
  <path fill="#8B8B8B" transform="matrix(0.542848 -0.0257693 0.0307263 0.647271 241.388 365.518)" d="M-52.3281 27.625L-52.3281 -27.668L-46.756 -30.4055L-46.7825 24.7561L-42.4192 24.6238L-47.1315 27.6684L-52.3281 27.625ZM-50.25 21.3164C-54.7526 21.3164 -58.6058 20.4196 -61.8096 18.626C-65.0134 16.8324 -67.4626 14.3337 -69.1572 11.1299C-70.8519 7.92612 -71.6992 4.19663 -71.6992 -0.0585785C-71.6992 -4.31379 -70.8519 -8.04328 -69.1572 -11.2471C-67.4626 -14.4508 -65.0134 -16.9495 -61.8096 -18.7431C-58.6058 -20.5368 -54.7526 -21.4336 -50.25 -21.4336C-47.3802 -21.4336 -44.7826 -21.0625 -42.457 -20.3203C-40.1315 -19.5781 -38.1091 -18.5205 -36.3897 -17.1474C-34.6703 -15.7744 -27.78 -10.4693 -25.0591 -8.68544C-26.0599 -7.96243 -28.21 -6.90538 -30.3965 -5.66209C-30.3965 -5.66209 -44.0899 -3.62108 -44.0899 -3.62108C-44.0899 -3.62108 -44.5166 -5.66828 -44.8506 -6.49706C-45.1846 -7.32583 -45.599 -8.02473 -46.0938 -8.59373C-46.5886 -9.16274 -47.1637 -9.5895 -47.8193 -9.87401C-48.4749 -10.1585 -49.2109 -10.3008 -50.0274 -10.3008C-51.3386 -10.3008 -52.4766 -9.92967 -53.4414 -9.18748C-54.4063 -8.4453 -55.1546 -7.31965 -55.6865 -5.81053C-56.2184 -4.30142 -56.4844 -2.40884 -56.4844 -0.132797C-56.4844 2.11851 -56.2184 4.01108 -55.6865 5.54494C-55.1546 7.07879 -54.4063 8.23537 -53.4414 9.01466C-52.4766 9.79396 -51.3386 10.1836 -50.0274 10.1836C-49.2109 10.1836 -48.4749 10.0352 -47.8193 9.7383C-47.1637 9.44142 -46.5824 9.00229 -46.0752 8.42091C-45.568 7.83953 -45.8968 6.99339 -44.8135 6.25002C-43.7302 5.50664 -38.8902 1.52309 -38.7417 0.409813C-38.7417 0.409813 -30.3965 5.28517 -30.3965 5.28517C-30.3965 5.28517 -31.2747 9.97951 -32.2891 11.9463C-33.3034 13.9131 -34.6641 15.5954 -36.3711 16.9932C-38.0781 18.391 -40.1006 19.461 -42.4385 20.2031C-44.7764 20.9453 -47.3802 21.3164 -50.25 21.3164ZM-24.5332 27.625L-24.5332 16.8633L-3.90039 -0.207031C-3.90039 -0.207031 -1.36458 -2.41504 -0.375 -3.41699C0.614584 -4.41895 1.37533 -5.45182 1.90723 -6.51562C2.43913 -7.57943 2.70508 -8.76693 2.70508 -10.0781C2.70508 -11.4883 2.40202 -12.6943 1.7959 -13.6963C1.18978 -14.6982 0.361002 -15.4714 -0.69043 -16.0156C-1.74186 -16.5599 -2.96029 -16.832 -4.34571 -16.832C-5.73112 -16.832 -6.94955 -16.5537 -8.00098 -15.9971C-9.05241 -15.4404 -6.2922 -13.7058 -5.86801 -12.6284C-7.10779 -11.907 -9.37628 -10.5827 -11.3223 -9.63281C-11.3223 -9.63281 -25.5723 -9.63281 -25.5723 -9.63281C-25.5723 -9.63281 -24.7002 -16.8568 -22.9561 -19.6523C-21.2119 -22.4479 -18.7441 -24.6064 -15.5527 -26.1279C-12.3613 -27.6494 -8.62565 -28.4102 -4.34571 -28.4102C0.0826817 -28.4102 3.91732 -27.7051 7.1582 -26.2949C10.3991 -24.8848 12.904 -22.8994 14.6729 -20.3389C16.4417 -17.7783 17.3262 -14.7786 17.3262 -11.3398C17.3262 -9.21224 16.887 -7.10319 16.0088 -5.0127C15.1305 -2.9222 13.5534 -0.602865 11.2773 1.94531C9.0013 4.49349 5.74805 7.51172 1.51758 11C1.51758 11 -3.67773 15.3047 -3.67773 15.3047L-3.67773 15.6758L17.9199 15.6758L23.3601 24.6527L17.9199 27.625L-24.5332 27.625ZM45.3066 28.3672C41.0514 28.3672 37.2787 27.6188 33.9883 26.1221C30.6979 24.6253 28.1126 22.5534 26.2324 19.9062C24.3522 17.2591 23.3874 14.2161 23.3379 10.7773C23.3379 10.7773 28.8025 7.82547 28.8025 7.82547L37.959 10.7773C37.959 10.7773 38.293 13.14 38.9609 14.0801C39.6289 15.0202 40.5195 15.7438 41.6328 16.251C42.7461 16.7581 43.9707 17.0117 45.3066 17.0117C46.8405 17.0117 48.1826 16.6839 49.333 16.0283C50.4834 15.3727 51.3864 14.4512 52.042 13.2637C52.6976 12.0762 53.0254 10.6784 53.0254 9.07031C53.0254 7.4375 52.6976 6.02116 52.042 4.82129C51.3864 3.62142 50.4834 2.69369 49.333 2.03809C48.1826 1.38249 46.8405 1.05469 45.3066 1.05469C43.6986 1.05469 43.4423 2.31534 43.4423 2.31534C43.4423 2.31534 38.6022 4.02344 37.959 5.35938C37.959 5.35938 24.7481 2.76172 24.7481 2.76172L26.9004 -27.668L32.366 -30.6324L64.084 -27.668L69.5015 -18.6129L64.084 -15.6445L39.2207 -15.6445L38.1816 -3.47266L38.4785 -3.47266C38.4785 -3.47266 40.8412 -6.54037 42.9688 -7.62891C45.0964 -8.71745 47.558 -9.26172 50.3535 -9.26172C52.8027 -9.26172 55.0726 -8.82877 57.1631 -7.96289C59.2536 -7.097 61.0719 -5.86621 62.6182 -4.27051C64.1644 -2.6748 65.3643 -0.782227 66.2178 1.40723C67.0713 3.59668 67.4981 6.0026 67.4981 8.625C67.4981 12.4844 66.5827 15.8984 64.752 18.8672C62.9212 21.8359 60.3421 24.1615 57.0147 25.8438C53.6872 27.526 49.7845 28.3672 45.3066 28.3672Z"></path>
  <path fill="#DEDEDE" transform="matrix(0.542848 -0.0257693 0.0307263 0.647271 243.98 362.8)" d="M-51.8282 28.625L-51.8282 -26.668L-47.375 -26.668L-47.375 28.625L-51.8282 28.625ZM-49.75 22.3164C-54.2526 22.3164 -58.1058 21.4196 -61.3096 19.626C-64.5134 17.8324 -66.9626 15.3337 -68.6573 12.1299C-70.3519 8.92611 -71.1993 5.19662 -71.1993 0.941406C-71.1993 -3.3138 -70.3519 -7.0433 -68.6573 -10.2471C-66.9626 -13.4508 -64.5134 -15.9495 -61.3096 -17.7432C-58.1058 -19.5368 -54.2526 -20.4336 -49.75 -20.4336C-46.8802 -20.4336 -44.2826 -20.0625 -41.9571 -19.3203C-39.6315 -18.5781 -37.6091 -17.5205 -35.8897 -16.1475C-34.1703 -14.7744 -32.8034 -13.1169 -31.7891 -11.1748C-30.7748 -9.23275 -30.1439 -7.06185 -29.8965 -4.66211C-29.8965 -4.66211 -43.5899 -2.62109 -43.5899 -2.62109C-43.5899 -2.62109 -44.0166 -4.6683 -44.3506 -5.49707C-44.6846 -6.32584 -45.099 -7.02474 -45.5938 -7.59375C-46.0886 -8.16276 -46.6638 -8.58952 -47.3194 -8.87402C-47.975 -9.15853 -48.711 -9.30078 -49.5274 -9.30078C-50.8386 -9.30078 -51.9766 -8.92969 -52.9415 -8.1875C-53.9063 -7.44531 -54.6547 -6.31966 -55.1866 -4.81055C-55.7185 -3.30143 -55.9844 -1.40885 -55.9844 0.867188C-55.9844 3.11849 -55.7185 5.01107 -55.1866 6.54492C-54.6547 8.07878 -53.9063 9.23535 -52.9415 10.0146C-51.9766 10.7939 -50.8386 11.1836 -49.5274 11.1836C-48.711 11.1836 -47.975 11.0352 -47.3194 10.7383C-46.6638 10.4414 -46.0824 10.0023 -45.5752 9.4209C-45.0681 8.83952 -44.6475 8.11588 -44.3135 7.25C-43.9795 6.38412 -43.7383 5.39453 -43.5899 4.28125C-43.5899 4.28125 -29.8965 6.28516 -29.8965 6.28516C-29.8965 6.28516 -30.7748 10.9795 -31.7891 12.9463C-32.8034 14.9131 -34.1641 16.5954 -35.8711 17.9932C-37.5782 19.3909 -39.6006 20.4609 -41.9385 21.2031C-44.2764 21.9453 -46.8802 22.3164 -49.75 22.3164ZM-24.0332 28.625L-24.0332 17.8633L-3.4004 0.792969C-3.4004 0.792969 -0.864597 -1.41504 0.124987 -2.41699C1.11457 -3.41895 1.87531 -4.45182 2.40721 -5.51562C2.93911 -6.57943 3.20506 -7.76693 3.20506 -9.07812C3.20506 -10.4883 2.902 -11.6943 2.29589 -12.6963C1.68977 -13.6982 0.860989 -14.4714 -0.190443 -15.0156C-1.24187 -15.5599 -2.4603 -15.832 -3.84572 -15.832C-5.23113 -15.832 -6.44956 -15.5537 -7.50099 -14.9971C-8.55242 -14.4404 -9.36883 -13.6302 -9.95021 -12.5664C-10.5316 -11.5026 -10.8223 -10.1914 -10.8223 -8.63281C-10.8223 -8.63281 -25.0723 -8.63281 -25.0723 -8.63281C-25.0723 -8.63281 -24.2002 -15.8568 -22.4561 -18.6523C-20.7119 -21.4479 -18.2442 -23.6064 -15.0527 -25.1279C-11.8613 -26.6494 -8.12567 -27.4102 -3.84572 -27.4102C0.582668 -27.4102 4.41731 -26.7051 7.65819 -25.2949C10.8991 -23.8848 13.404 -21.8994 15.1728 -19.3389C16.9417 -16.7783 17.8262 -13.7786 17.8262 -10.3398C17.8262 -8.21224 17.387 -6.10319 16.5088 -4.0127C15.6305 -1.9222 14.0534 0.397135 11.7773 2.94531C9.50129 5.49349 6.24803 8.51172 2.01756 12C2.01756 12 -3.17775 16.3047 -3.17775 16.3047L-3.17775 16.6758L18.4199 16.6758L18.4199 28.625L-24.0332 28.625ZM45.8066 29.3672C41.5514 29.3672 37.7786 28.6188 34.4883 27.1221C31.1979 25.6253 28.6126 23.5534 26.7324 20.9062C24.8522 18.2591 23.8874 15.2161 23.8379 11.7773C23.8379 11.7773 38.459 11.7773 38.459 11.7773C38.459 11.7773 38.793 14.14 39.4609 15.0801C40.1289 16.0202 41.0195 16.7438 42.1328 17.251C43.2461 17.7581 44.4707 18.0117 45.8066 18.0117C47.3405 18.0117 48.6826 17.6839 49.833 17.0283C50.9834 16.3727 51.8864 15.4512 52.542 14.2637C53.1976 13.0762 53.5254 11.6784 53.5254 10.0703C53.5254 8.4375 53.1976 7.02116 52.542 5.82129C51.8864 4.62142 50.9834 3.69369 49.833 3.03809C48.6826 2.38249 47.3405 2.05469 45.8066 2.05469C44.1986 2.05469 42.7327 2.43815 41.4092 3.20508C40.0856 3.97201 39.1022 5.02344 38.459 6.35938C38.459 6.35938 25.248 3.76172 25.248 3.76172L27.4004 -26.668L64.584 -26.668L64.584 -14.6445L39.7207 -14.6445L38.6816 -2.47266L38.9785 -2.47266C38.9785 -2.47266 41.3411 -5.54037 43.4688 -6.62891C45.5964 -7.71745 48.0579 -8.26172 50.8535 -8.26172C53.3027 -8.26172 55.5726 -7.82877 57.6631 -6.96289C59.7536 -6.097 61.5719 -4.86621 63.1182 -3.27051C64.6644 -1.6748 65.8643 0.217773 66.7178 2.40723C67.5713 4.59668 67.998 7.0026 67.998 9.625C67.998 13.4844 67.0827 16.8984 65.252 19.8672C63.4212 22.8359 60.8421 25.1615 57.5146 26.8438C54.1872 28.526 50.2845 29.3672 45.8066 29.3672Z"></path>
  <clipPath id="cl_b2">
    <path d="M216.724 382.663L215.025 346.874L217.443 346.759L219.142 382.549L216.724 382.663ZM217.659 378.527C215.214 378.643 213.095 378.161 211.301 377.083C209.507 376.005 208.1 374.45 207.082 372.42C206.064 370.39 205.489 367.998 205.358 365.244C205.227 362.49 205.573 360.054 206.394 357.936C207.216 355.819 208.469 354.139 210.153 352.895C211.837 351.652 213.901 350.972 216.345 350.856C217.903 350.782 219.324 350.955 220.61 351.375C221.895 351.796 223.025 352.428 224.001 353.273C224.976 354.117 225.769 355.155 226.38 356.386C226.99 357.617 227.399 359.006 227.607 360.553C227.607 360.553 220.236 362.227 220.236 362.227C220.236 362.227 219.942 360.912 219.735 360.385C219.528 359.857 219.282 359.415 218.996 359.059C218.71 358.704 218.384 358.443 218.02 358.275C217.655 358.108 217.251 358.035 216.808 358.056C216.096 358.09 215.49 358.359 214.989 358.865C214.488 359.37 214.116 360.118 213.874 361.108C213.632 362.099 213.545 363.331 213.615 364.804C213.684 366.261 213.887 367.479 214.223 368.458C214.559 369.437 215.001 370.167 215.548 370.646C216.096 371.126 216.726 371.349 217.437 371.315C217.881 371.294 218.276 371.179 218.622 370.97C218.969 370.761 219.271 370.461 219.529 370.072C219.786 369.683 219.992 369.203 220.147 368.634C220.302 368.065 220.402 367.419 220.449 366.694C220.449 366.694 227.944 367.638 227.944 367.638C227.944 367.638 227.611 370.7 227.121 371.999C226.631 373.298 225.944 374.422 225.06 375.371C224.176 376.319 223.111 377.064 221.865 377.605C220.619 378.145 219.217 378.453 217.659 378.527ZM231.813 381.947L231.482 374.981L242.158 363.401C242.158 363.401 243.467 361.906 243.973 361.232C244.48 360.558 244.861 359.87 245.117 359.168C245.373 358.465 245.481 357.69 245.441 356.841C245.397 355.928 245.196 355.156 244.836 354.523C244.476 353.89 244.002 353.411 243.415 353.086C242.827 352.76 242.158 352.616 241.406 352.651C240.653 352.687 240.001 352.898 239.447 353.286C238.893 353.673 238.475 354.219 238.192 354.922C237.909 355.626 237.792 356.482 237.84 357.491C237.84 357.491 230.104 357.858 230.104 357.858C230.104 357.858 230.355 353.16 231.216 351.305C232.077 349.451 233.351 347.99 235.036 346.923C236.722 345.856 238.726 345.267 241.05 345.157C243.454 345.043 245.557 345.401 247.36 346.23C249.162 347.059 250.583 348.28 251.622 349.891C252.661 351.503 253.233 353.422 253.339 355.648C253.404 357.025 253.231 358.401 252.818 359.777C252.406 361.153 251.621 362.695 250.463 364.403C249.306 366.111 247.633 368.148 245.444 370.515C245.444 370.515 242.756 373.435 242.756 373.435L242.767 373.675L254.491 373.119L254.858 380.853L231.813 381.947ZM269.748 380.628C267.438 380.738 265.367 380.35 263.535 379.466C261.703 378.582 260.236 377.308 259.134 375.643C258.032 373.978 257.414 372.033 257.282 369.809C257.282 369.809 265.219 369.432 265.219 369.432C265.219 369.432 265.473 370.952 265.864 371.544C266.256 372.135 266.762 372.581 267.381 372.88C268.001 373.18 268.674 373.312 269.399 373.278C270.232 373.238 270.95 372.992 271.555 372.538C272.159 372.084 272.621 371.464 272.94 370.678C273.26 369.893 273.395 368.98 273.345 367.939C273.295 366.882 273.074 365.974 272.681 365.214C272.288 364.454 271.769 363.877 271.125 363.482C270.48 363.087 269.741 362.91 268.909 362.949C268.036 362.991 267.252 363.277 266.557 363.807C265.862 364.338 265.361 365.044 265.052 365.925C265.052 365.925 257.801 364.584 257.801 364.584L258.035 344.832L278.22 343.874L278.589 351.656L265.092 352.297L264.902 360.202L265.063 360.195C265.063 360.195 266.251 358.148 267.373 357.389C268.494 356.63 269.814 356.214 271.332 356.142C272.661 356.079 273.907 356.3 275.068 356.807C276.229 357.314 277.254 358.063 278.143 359.056C279.031 360.049 279.741 361.243 280.271 362.639C280.802 364.034 281.107 365.58 281.188 367.277C281.307 369.776 280.915 372.009 280.012 373.978C279.109 375.946 277.781 377.518 276.026 378.693C274.272 379.867 272.179 380.513 269.748 380.628Z"></path>
  </clipPath>
  <g clip-path="url(#cl_b2)">
    <path fill="#F2F1F1" transform="matrix(0.522661 0.188932 -0.149846 0.61962 237.45 397.221)" d="M-170.753 -28.5017L169.944 -28.5017L169.944 28.5017L-170.753 28.5017L-170.753 -28.5017Z"></path>
  </g>
  <path fill="#8E8B8B" transform="matrix(0.647271 -0.0307263 0.0307263 0.647271 237.307 285.269)" d="M-1.90735e-06 0C-1.90735e-06 0 -15.2012 -7.62939e-06 -18.2664 -3.8147e-06C-66.3551 1.3037 -126.35 32.2772 -126.35 128C-126.35 223.723 -55.9022 256 -19 256C-15.9348 256 -1.90735e-06 256 -1.90735e-06 256C-25.5439 256 -107.35 223.723 -107.35 128C-107.35 32.2772 -25.5439 -3.8147e-06 -1.90735e-06 0Z"></path>
  <clipPath id="cl_b4">
    <path d="M237.307 285.269C237.307 285.269 227.468 285.736 225.484 285.83C194.397 288.152 156.516 310.043 159.457 372.002C162.398 433.961 208.989 452.688 232.875 451.554C234.859 451.46 245.173 450.97 245.173 450.97C228.639 451.755 174.696 433.377 171.755 371.418C168.814 309.46 220.773 286.054 237.307 285.269Z"></path>
  </clipPath>
  <g clip-path="url(#cl_b4)">
    <path fill="#ACABAB" transform="matrix(0.542848 -0.0257693 0.0307263 0.647271 197.535 406.782)" d="M-105.5 -40.8039L105 -40.8039L105 40.8039L-105.5 40.8039L-105.5 -40.8039Z"></path>
    <path fill="#D6D6D6" transform="matrix(0.542848 -0.0257693 0.0307263 0.647271 193.247 401.861)" d="M-105.5 -7.02946L105 -7.02946L105 7.02946L-105.5 7.02946L-105.5 -7.02946Z"></path>
    <path fill="#D6D6D6" transform="matrix(0.544392 -0.0258426 0.0306392 0.645436 214.52 372.632)" d="M-137.32 -30.4789L136.67 -30.4789L136.67 30.4789L-137.32 30.4789L-137.32 -30.4789Z"></path>
  </g>
  <path fill="#91A8EB" transform="matrix(0.606874 0.00990163 -0.00990163 0.606874 198.722 104.864)" d="M-7.62939e-06 -22.5C14.6355 -22.5 26.5 -12.3145 26.5 0.249985C26.5 12.8145 14.6355 23 -7.62939e-06 23C-14.6356 23 -26.5 12.8145 -26.5 0.249985C-26.5 -12.3145 -14.6356 -22.5 -7.62939e-06 -22.5Z"></path>
  <path fill="#91A8EB" transform="matrix(0.504938 0.00823846 -0.00823846 0.504938 183.272 115.562)" d="M1.52164e-05 -22.5C14.6356 -22.5 26.5 -12.3145 26.5 0.25C26.5 12.8145 14.6356 23 1.53012e-05 23C-14.6355 23 -26.5 12.8145 -26.5 0.25C-26.5 -12.3145 -14.6355 -22.5 1.52164e-05 -22.5Z"></path>
  <path fill="#91A8EB" transform="matrix(0.274279 0.00447507 -0.00447507 0.274279 164.403 82.775)" d="M3.05176e-05 -22.4262C14.2962 -22.4262 25.8855 -12.2741 25.8855 0.249207C25.8855 12.7725 14.2962 22.9246 3.05176e-05 22.9246C-14.2961 22.9246 -25.8855 12.7725 -25.8855 0.249207C-25.8855 -12.2741 -14.2961 -22.4262 3.05176e-05 -22.4262Z"></path>
  <path fill="#C1CBE8" transform="matrix(0.073816 -0.11483 0.26388 0.16963 160.576 80.0728)" d="M0 -11.5C14.6355 -11.5 28.0061 -7.98328 28.0061 -1.63201C28.0061 4.71926 15.5059 0.400185 0.870356 0.400186C-13.7652 0.400185 -26.766 4.37689 -26.766 -1.97439C-26.766 -8.32566 -14.6355 -11.5 0 -11.5Z"></path>
  <path fill="#C1CBE8" transform="matrix(-0.166841 -0.570472 0.880441 -0.257495 183.112 141.835)" d="M-1.52588e-05 -11.5C14.6355 -11.5 28.0061 -7.98328 28.0061 -1.63201C28.0061 4.71927 15.5059 0.400186 0.870341 0.400186C-13.7652 0.400184 -26.766 4.37689 -26.766 -1.97439C-26.766 -8.32566 -14.6356 -11.5 -1.52588e-05 -11.5Z"></path>
  <path fill="#1B2B56" transform="matrix(1.78669 -0.21848 0.065544 0.536007 240.816 119.562)" d="M-6.64964e-07 -2.5C1.38071 -2.5 2.5 -1.38071 2.5 0C2.5 1.38071 1.38071 2.5 -6.46338e-07 2.5C-1.38071 2.5 -2.5 1.38071 -2.5 0C-2.5 -1.38071 -1.38071 -2.5 -6.64964e-07 -2.5Z"></path>
  <path fill="none" stroke="#1B2B56" stroke-width="0.5" stroke-linecap="round" stroke-linejoin="round" transform="matrix(1.78289 -0.247598 0.247598 1.78289 249.46 118.451)" d="M1.98548 0.277981L6.02909 0.184244"></path>
  <path fill="#1B2B56" transform="matrix(1.78669 -0.21848 0.065544 0.536007 269.403 116.066)" d="M-9.31323e-09 -2.5C1.38071 -2.5 2.5 -1.38071 2.5 0C2.5 1.38071 1.38071 2.5 9.31323e-09 2.5C-1.38071 2.5 -2.5 1.38071 -2.5 0C-2.5 -1.38071 -1.38071 -2.5 -9.31323e-09 -2.5Z"></path>
  <path fill="#354B89" transform="matrix(1.46507 -0.885005 0.929571 0.72522 261.18 109.134)" d="M-7.62939e-06 -2.5C1.3807 -2.5 2.49999 -1.38071 2.49999 1.49012e-07C2.49999 1.38071 1.3807 2.5 -7.62939e-06 2.5C-1.38072 2.5 -2.50001 1.38071 -2.50001 -1.49012e-07C-2.50001 -1.38071 -1.38072 -2.5 -7.62939e-06 -2.5Z"></path>
  <path fill="#354B89" transform="matrix(2.16254 0.296937 -0.629837 1.0733 245.208 110.074)" d="M0 -2.98532C1.68306 -2.98532 3.04744 -1.64874 3.04744 1.5168e-05C3.04744 1.64877 1.68306 2.98535 0 2.98535C-1.68306 2.98535 -3.04744 1.64877 -3.04744 1.53496e-05C-3.04744 -1.64874 -1.68306 -2.98532 0 -2.98532Z"></path>
  <path fill="none" stroke="white" stroke-width="5" stroke-linecap="round" stroke-linejoin="round" transform="matrix(1.5 0 0 1.5 158.539 362.24)" d=""></path>
</svg>