<?xml version="1.0" encoding="utf-8"?>
<svg xmlns="http://www.w3.org/2000/svg" xmlns:xlink="http://www.w3.org/1999/xlink" width="512" height="512">
  <path fill="none" stroke="black" stroke-width="7" stroke-linejoin="round" transform="matrix(1.8 3.72529e-09 -3.72529e-09 1.8 210.879 409.868)" d="M32.6934 -46.801C49.9774 -52.5829 72.4204 -43.0699 77.058 3.05547C72.2365 34.6074 54.8914 47.7148 45.1775 43.6756C35.4635 39.6364 27.3679 36.6193 17.6997 32.9714C7.97524 29.1093 13.2954 23.328 17.7493 0.459198C12.1975 -38.8428 15.4095 -41.0191 32.6934 -46.801Z"></path>
  <path fill="none" stroke="black" stroke-width="7" stroke-linejoin="round" transform="matrix(-2.15345 -3.29802e-07 -3.27096e-07 2.13577 356.362 285.223)" d="M18.969 -57.8792C22.0494 -53.1782 27.2124 -37.6706 26.923 -33.7538C26.6336 -29.8371 30.4648 -20.6595 27.659 3.54509C24.6325 32.2734 18.7579 55.0333 -6.39779 52.5017C-22.1804 50.8114 -32.1269 26.1945 -29.1004 -2.53376C-25.3061 -38.5508 2.11837 -65.2361 18.969 -57.8792Z"></path>
  <path fill="none" stroke="black" stroke-width="7" stroke-linejoin="round" transform="matrix(1.79976 0.0293645 -0.0293645 1.79976 266.657 286.389)" d="M0.209625 -80.0966C37.3348 -80.0966 84.5 -60 84.5 -1.90735e-06C84.5 41.1452 46.7396 76.2788 0.209625 76.2788C-62.1658 76.2788 -84 60.12 -84 -1.90735e-06C-84 -71.2881 -50.5087 -80.0966 0.209625 -80.0966Z"></path>
  <path fill="none" stroke="black" stroke-width="7" stroke-linejoin="round" transform="matrix(1.53671 3.18039e-09 -3.72529e-09 1.8 308.979 398.168)" d="M-36.7433 -47.0766C-18.5182 -47.1582 -3.10314 -40.3184 -2.98915 9.25619C-2.5204 23.1059 -8.65112 46.8373 -22.3286 46.7146C-36.0061 46.5919 -42.1413 46.5369 -54.3427 46.4274C-66.5441 46.3179 -68.5195 23.4015 -68.9882 9.5518C-69.4266 -42.2121 -54.9685 -46.9949 -36.7433 -47.0766Z"></path>
  <path fill="#6C88D9" transform="matrix(-2.15345 -3.29802e-07 -3.27096e-07 2.13577 356.362 285.223)" d="M18.969 -57.8792C22.0494 -53.1782 27.2124 -37.6706 26.923 -33.7538C26.6336 -29.8371 30.4648 -20.6595 27.659 3.54509C24.6325 32.2734 18.7579 55.0333 -6.39779 52.5017C-22.1804 50.8114 -32.1269 26.1945 -29.1004 -2.53376C-25.3061 -38.5508 2.11837 -65.2361 18.969 -57.8792Z"></path>
  <path fill="#5170C8" transform="matrix(1.53671 3.18039e-09 -3.72529e-09 1.8 308.979 398.168)" d="M-36.7433 -47.0766C-18.5182 -47.1582 -3.10314 -40.3184 -2.98915 9.25619C-2.5204 23.1059 -8.65112 46.8373 -22.3286 46.7146C-36.0061 46.5919 -42.1413 46.5369 -54.3427 46.4274C-66.5441 46.3179 -68.5195 23.4015 -68.9882 9.5518C-69.4266 -42.2121 -54.9685 -46.9949 -36.7433 -47.0766Z"></path>
  <path fill="#839BE0" transform="matrix(1.20328 2.49031e-09 -2.91698e-09 1.40944 308.979 398.168)" d="M-46.8471 -47.4146C-28.6219 -47.4963 -13.7581 -40.5703 -13.4894 13.4961C-13.8862 31.4279 -22.7773 46.5275 -36.4548 46.4048C-50.1322 46.2821 -49.958 46.3342 -62.1594 46.2247C-74.3607 46.1152 -79.8853 31.7235 -79.4885 13.7917C-80.0816 -42.464 -65.0722 -47.333 -46.8471 -47.4146Z"></path>
  <path fill="#6C88D9" transform="matrix(1.8 3.72529e-09 -3.72529e-09 1.8 210.879 409.868)" d="M32.6934 -46.801C49.9774 -52.5829 72.4204 -43.0699 77.058 3.05547C72.2365 34.6074 54.8914 47.7148 45.1775 43.6756C35.4635 39.6364 27.3679 36.6193 17.6997 32.9714C7.97524 29.1093 13.2954 23.328 17.7493 0.459198C12.1975 -38.8428 15.4095 -41.0191 32.6934 -46.801Z"></path>
  <path fill="#91A8EB" transform="matrix(-1.67686 -2.56813e-07 -3.2026e-07 2.09114 352.373 279.51)" d="M20.5964 -51.4964C42.6407 -49.6187 32.5064 -25.5122 27.1133 2.78099C21.7203 31.0741 6.81483 53.2893 -8.56265 51.9795C-23.9401 50.6697 -32.9552 26.4896 -29.1723 -2.0685C-25.3895 -30.6267 -1.4478 -53.374 20.5964 -51.4964Z"></path>
  <path fill="none" stroke="black" stroke-width="7" stroke-miterlimit="4" transform="matrix(1.79976 0.0293645 -0.0293645 1.79976 225.206 127.04)" d="M1.90735e-06 -29.5C19.0538 -29.5 34.5 -16.1805 34.5 0.250008C34.5 16.6805 19.0538 30 1.90735e-06 30C-19.0538 30 -34.5 16.6805 -34.5 0.250008C-34.5 -16.1805 -19.0538 -29.5 1.90735e-06 -29.5Z"></path>
  <path fill="#6C88D9" transform="matrix(1.79976 0.0293645 -0.0293645 1.79976 266.657 286.389)" d="M0.209625 -80.0966C37.3348 -80.0966 84.5 -60 84.5 -1.90735e-06C84.5 41.1452 46.7396 76.2788 0.209625 76.2788C-62.1658 76.2788 -84 60.12 -84 -1.90735e-06C-84 -71.2881 -50.5087 -80.0966 0.209625 -80.0966Z"></path>
  <path fill="none" stroke="black" stroke-width="9" stroke-miterlimit="4" transform="translate(256 256)" d="M-57.1036 -186.777C-42.321 -186.536 -30.506 -176.007 -30.714 -163.26C-30.9219 -150.512 -43.0742 -140.374 -57.8568 -140.615C-72.6394 -140.856 -84.4545 -151.386 -84.2465 -164.133C-84.0385 -176.88 -71.8862 -187.019 -57.1036 -186.777Z"></path>
  <path fill="none" stroke="black" stroke-width="9" stroke-miterlimit="4" transform="translate(256 256)" d="M-72.6166 -171.865C-60.3171 -171.664 -50.4866 -162.904 -50.6596 -152.297C-50.8327 -141.691 -60.9437 -133.256 -73.2433 -133.457C-85.5429 -133.657 -95.3734 -142.418 -95.2003 -153.024C-95.0273 -163.63 -84.9162 -172.066 -72.6166 -171.865Z"></path>
  <path fill="none" stroke="black" stroke-width="9" stroke-miterlimit="4" transform="translate(256 256)" d="M-92.6237 -196.199C-85.9427 -196.09 -80.6029 -191.331 -80.6969 -185.57C-80.7909 -179.809 -86.2831 -175.227 -92.9641 -175.336C-99.6452 -175.445 -104.985 -180.204 -104.891 -185.965C-104.797 -191.726 -99.3048 -196.308 -92.6237 -196.199Z"></path>
  <path fill="#6C88D9" transform="matrix(1.79976 0.0293645 -0.0293645 1.79976 225.206 127.04)" d="M1.90735e-06 -29.5C19.0538 -29.5 34.5 -16.1805 34.5 0.250008C34.5 16.6805 19.0538 30 1.90735e-06 30C-19.0538 30 -34.5 16.6805 -34.5 0.250008C-34.5 -16.1805 -19.0538 -29.5 1.90735e-06 -29.5Z"></path>
  <path fill="#6C88D9" transform="matrix(0.775834 0.0126583 -0.0126583 0.775834 198.523 92.1097)" d="M0 -29.5C19.0538 -29.5 34.5 -16.1805 34.5 0.249985C34.5 16.6805 19.0538 30 0 30C-19.0538 30 -34.5 16.6805 -34.5 0.249985C-34.5 -16.1805 -19.0538 -29.5 0 -29.5Z"></path>
  <path fill="#6C88D9" transform="matrix(0.645518 0.0105321 -0.0105321 0.645518 183.073 103.178)" d="M7.62939e-06 -29.5C19.0538 -29.5 34.5 -16.1805 34.5 0.249985C34.5 16.6805 19.0538 30 7.62939e-06 30C-19.0538 30 -34.5 16.6805 -34.5 0.249985C-34.5 -16.1805 -19.0538 -29.5 7.62939e-06 -29.5Z"></path>
  <path fill="#6C88D9" transform="matrix(0.35064 0.00572097 -0.00572097 0.35064 163.207 70.145)" d="M0 -29.5C19.0538 -29.5 34.5 -16.1805 34.5 0.25C34.5 16.6805 19.0538 30 0 30C-19.0538 30 -34.5 16.6805 -34.5 0.25C-34.5 -16.1805 -19.0538 -29.5 0 -29.5Z"></path>
  <path fill="#91A8EB" transform="matrix(1.50913 0.0246226 -0.0246226 1.50913 265.293 286.389)" d="M0.24998 -81.5196C49.8787 -81.2985 84.5 -60 84.5 0C84.5 41.1452 46.78 74.5 0.25 74.5C-62.1254 74.5 -84 60.12 -84 0C-84 -71.2881 -62.1254 -81.5196 0.24998 -81.5196Z"></path>
  <clipPath id="cl_175">
    <path d="M269.386 142.241C336.203 143.331 420.499 180.885 418.737 288.87C417.529 362.922 348.537 425.045 264.794 423.679C152.534 421.847 113.712 392.124 115.477 283.922C117.571 155.621 178.106 140.751 269.386 142.241Z"></path>
  </clipPath>
  <g clip-path="url(#cl_175)">
    <path fill="#A6B8EF" transform="matrix(0.805953 0.0131497 -0.0151654 0.929491 320.951 251.267)" d="M0.249972 -81.5196C49.8787 -81.2985 84.5 -60 84.5 0C84.5 41.1452 67.1354 74.5 20.6054 74.5C-41.77 74.5 -84 60.12 -84 0C-84 -71.2881 -62.1254 -81.5197 0.249972 -81.5196Z"></path>
    <path fill="#C1CBE8" transform="matrix(0.197995 -0.202726 0.445703 0.435301 344.051 202.418)" d="M11.5671 -77.0972C58.0971 -77.0972 97.5959 -41.1452 97.5959 -2.43388e-05C97.5959 41.1452 73.4188 83.0524 26.8888 83.0524C-35.4866 83.0524 11.8086 60.12 11.8086 -2.30604e-05C11.8086 -41.1452 -34.9629 -77.0972 11.5671 -77.0972Z"></path>
    <path fill="#C1CBE8" transform="matrix(0.197995 -0.202726 0.184201 0.179903 388.493 266.774)" d="M48.93 -79.7642C80.6762 -79.0529 77.4946 -42.8889 62.8507 4.00565C48.2069 50.9001 -0.03942 91.2963 -20.4536 67.777C-40.8678 44.2576 -16.8141 31.8032 -0.458991 -5.13881C15.8961 -42.0808 17.1838 -80.4755 48.93 -79.7642Z"></path>
  </g>
  <path fill="#91A8EB" transform="matrix(1.37947 2.85496e-09 -2.85496e-09 1.37947 210.879 346.868)" d="M47.095 -2.14106C64.3789 -7.92299 86.9688 -6.07789 92.7469 46.9121C91.935 70.8336 69.7122 92.5914 59.9982 88.5523C50.2843 84.5131 42.1886 81.4959 32.5204 77.848C22.8348 74.1152 30.5498 67.4097 31.3617 43.4881C24.5301 -2.54604 29.811 3.64086 47.095 -2.14106Z"></path>
  <path fill="#91A8EB" transform="matrix(1.79976 0.0293645 -0.0293645 1.79976 225.206 127.04)" d="M1.90735e-06 -22.5C14.6355 -22.5 26.5 -12.3145 26.5 0.250008C26.5 12.8145 14.6355 23 1.90735e-06 23C-14.6355 23 -26.5 12.8145 -26.5 0.250008C-26.5 -12.3145 -14.6355 -22.5 1.90735e-06 -22.5Z"></path>
  <path fill="none" stroke="black" stroke-width="7" stroke-linecap="round" stroke-linejoin="round" transform="matrix(2.15345 4.45679e-09 -4.42021e-09 2.13577 150.47 294.887)" d="M28.1602 -32.1073C29.7813 -27.438 32.1908 -20.3917 35.6399 -8.96882C46.2974 17.1855 60.1319 31.9488 39.2058 46.2511C26.0121 55.146 -5.44396 38.6137 -16.1353 12.3763C-23.9869 -11.7746 -17.5191 -37.0085 -6.95385 -50.672"></path>
  <path fill="#6C88D9" transform="matrix(2.15345 4.45679e-09 -4.42021e-09 2.13577 150.47 294.887)" d="M11.0221 -60.8738C15.3227 -57.2759 24.7253 -43.9453 25.5752 -40.1123C26.4252 -36.2794 29.2463 -30.1435 35.6399 -8.96882C46.2974 17.1855 60.1319 31.9488 39.2058 46.2511C26.0121 55.146 -5.44396 38.6137 -16.1353 12.3763C-27.9846 -24.0714 -7.22058 -62.9857 11.0221 -60.8738Z"></path>
  <path fill="#91A8EB" transform="matrix(1.67686 3.47045e-09 -4.32784e-09 2.09114 154.46 289.174)" d="M12.2182 -54.443C33.9937 -57.7741 32.2647 -33.8148 35.3647 -7.97651C42.9993 18.8191 63.5571 34.9408 51.6545 42.8574C39.752 50.7739 0.479073 35.8479 -14.2767 10.6785C-27.1081 -18.2185 -9.55738 -51.1119 12.2182 -54.443Z"></path>
  <path fill="#312F2F" transform="matrix(0.537651 -0.0792418 0.0944848 0.641075 249.902 352.649)" d="M0 -128C70.6925 -128 128 -70.6924 128 1.52588e-05C128 70.6925 70.6925 128 0 128C-70.6925 128 -128 70.6925 -128 1.52588e-05C-128 -70.6924 -70.6925 -128 0 -128Z"></path>
  <path fill="none" stroke="black" stroke-width="7" stroke-miterlimit="4" transform="translate(256 256)" d="M-6.0121 12.7963C31.9958 7.19447 68.222 39.3917 74.9013 84.7109C81.5807 130.03 56.1839 171.31 18.176 176.911C-19.8319 182.513 -56.058 150.316 -62.7374 104.997C-69.4168 59.6776 -44.02 18.3981 -6.0121 12.7963Z"></path>
  <path fill="none" stroke="black" stroke-width="7" stroke-linejoin="round" transform="translate(256 256)" d="M-6.0121 12.7963C-6.0121 12.7963 -15.7572 14.2325 -17.7222 14.5222C-48.4275 19.9016 -83.9622 45.4265 -74.9178 106.792C-65.8735 168.157 -17.6615 182.193 5.99561 178.707C7.96064 178.417 18.176 176.911 18.176 176.911C17.6246 176.993 17.0287 177.056 16.3918 177.102"></path>
  <path fill="#DEDEDE" transform="matrix(0.537651 -0.0792418 0.0944848 0.641075 262.082 350.854)" d="M1.90735e-06 -128C70.6925 -128 128 -70.6925 128 0C128 70.6925 70.6925 128 1.90735e-06 128C-70.6925 128 -128 70.6925 -128 0C-128 -70.6925 -70.6925 -128 1.90735e-06 -128Z"></path>
  <clipPath id="cl_178">
    <path d="M249.988 268.796C287.996 263.194 324.222 295.392 330.901 340.711C337.581 386.03 312.184 427.31 274.176 432.911C236.168 438.513 199.942 406.316 193.263 360.997C186.583 315.678 211.98 274.398 249.988 268.796Z"></path>
  </clipPath>
  <g clip-path="url(#cl_178)">
    <path fill="#F2F1F1" transform="matrix(0.538761 0.136403 -0.0879357 0.631387 261.184 380.188)" d="M-170.753 -28.5017L169.944 -28.5017L169.944 28.5017L-170.753 28.5017L-170.753 -28.5017Z"></path>
    <path fill="#F2F1F1" transform="matrix(0.538761 0.136403 -0.0879357 0.631387 256.784 404.362)" d="M-170.753 -5.22018L169.944 -5.22018L169.944 5.22014L-170.753 5.22015L-170.753 -5.22018Z"></path>
  </g>
  <path fill="#8B8B8B" transform="matrix(0.537651 -0.0792418 0.0944848 0.641075 265.482 349.698)" d="M0.249999 -87.5C51.4744 -87.5 93 -48.4368 93 -0.25C93 47.9368 51.4744 87 0.249999 87C-50.9744 87 -92.5 47.9368 -92.5 -0.25C-92.5 -48.4368 -50.9744 -87.5 0.249999 -87.5Z"></path>
  <path fill="#B0AFAF" transform="matrix(0.537651 -0.0792418 0.0944848 0.641075 262.082 350.854)" d="M1.90735e-06 -86C47.4965 -86 86 -47.4965 86 0C86 47.4965 47.4965 86 1.90735e-06 86C-47.4965 86 -86 47.4965 -86 0C-86 -47.4965 -47.4965 -86 1.90735e-06 -86Z"></path>
  <path fill="#8B8B8B" transform="matrix(0.537651 -0.0792418 0.0944848 0.641075 261.973 348.25)" d="M-52.3281 27.625L-52.3281 -27.668L-46.756 -30.4056L-46.7825 24.7561L-42.4192 24.6238L-47.1315 27.6684L-52.3281 27.625ZM-50.25 21.3164C-54.7526 21.3164 -58.6058 20.4196 -61.8096 18.626C-65.0134 16.8324 -67.4626 14.3337 -69.1572 11.1299C-70.8519 7.92611 -71.6992 4.19662 -71.6992 -0.0585938C-71.6992 -4.3138 -70.8519 -8.0433 -69.1572 -11.2471C-67.4626 -14.4508 -65.0134 -16.9495 -61.8096 -18.7432C-58.6058 -20.5368 -54.7526 -21.4336 -50.25 -21.4336C-47.3802 -21.4336 -44.7826 -21.0625 -42.457 -20.3203C-40.1315 -19.5781 -38.1091 -18.5205 -36.3897 -17.1475C-34.6703 -15.7744 -27.78 -10.4693 -25.0591 -8.68546C-26.0599 -7.96244 -28.21 -6.9054 -30.3965 -5.66211C-30.3965 -5.66211 -44.0899 -3.62109 -44.0899 -3.62109C-44.0899 -3.62109 -44.5166 -5.6683 -44.8506 -6.49707C-45.1846 -7.32584 -45.599 -8.02474 -46.0938 -8.59375C-46.5885 -9.16276 -47.1637 -9.58952 -47.8193 -9.87402C-48.4749 -10.1585 -49.2109 -10.3008 -50.0274 -10.3008C-51.3385 -10.3008 -52.4766 -9.92969 -53.4414 -9.1875C-54.4063 -8.44531 -55.1546 -7.31966 -55.6865 -5.81055C-56.2184 -4.30143 -56.4844 -2.40885 -56.4844 -0.132812C-56.4844 2.11849 -56.2184 4.01107 -55.6865 5.54492C-55.1546 7.07878 -54.4063 8.23535 -53.4414 9.01465C-52.4766 9.79395 -51.3385 10.1836 -50.0274 10.1836C-49.2109 10.1836 -48.4749 10.0352 -47.8193 9.73828C-47.1637 9.44141 -46.5824 9.00228 -46.0752 8.4209C-45.568 7.83952 -45.8968 6.99338 -44.8135 6.25C-43.7302 5.50662 -38.8902 1.52308 -38.7417 0.409798C-38.7417 0.409798 -30.3965 5.28516 -30.3965 5.28516C-30.3965 5.28516 -31.2747 9.97949 -32.2891 11.9463C-33.3034 13.9131 -34.6641 15.5954 -36.3711 16.9932C-38.0781 18.3909 -40.1006 19.4609 -42.4385 20.2031C-44.7764 20.9453 -47.3802 21.3164 -50.25 21.3164ZM-24.5332 27.625L-24.5332 16.8633L-3.90039 -0.207031C-3.90039 -0.207031 -1.36458 -2.41504 -0.374996 -3.41699C0.614588 -4.41895 1.37533 -5.45182 1.90723 -6.51562C2.43913 -7.57943 2.70508 -8.76693 2.70508 -10.0781C2.70508 -11.4883 2.40202 -12.6943 1.7959 -13.6963C1.18978 -14.6982 0.361006 -15.4714 -0.690426 -16.0156C-1.74186 -16.5599 -2.96028 -16.832 -4.3457 -16.832C-5.73112 -16.832 -6.94954 -16.5537 -8.00097 -15.9971C-9.0524 -15.4404 -6.2922 -13.7058 -5.868 -12.6284C-7.10778 -11.907 -9.37627 -10.5827 -11.3223 -9.63281C-11.3223 -9.63281 -25.5723 -9.63281 -25.5723 -9.63281C-25.5723 -9.63281 -24.7002 -16.8568 -22.9561 -19.6523C-21.2119 -22.4479 -18.7441 -24.6064 -15.5527 -26.1279C-12.3613 -27.6494 -8.62565 -28.4102 -4.3457 -28.4102C0.0826855 -28.4102 3.91732 -27.7051 7.15821 -26.2949C10.3991 -24.8848 12.904 -22.8994 14.6729 -20.3389C16.4417 -17.7783 17.3262 -14.7786 17.3262 -11.3398C17.3262 -9.21224 16.887 -7.10319 16.0088 -5.0127C15.1305 -2.9222 13.5534 -0.602865 11.2773 1.94531C9.0013 4.49349 5.74805 7.51172 1.51758 11C1.51758 11 -3.67773 15.3047 -3.67773 15.3047L-3.67773 15.6758L17.9199 15.6758L23.3601 24.6527L17.9199 27.625L-24.5332 27.625ZM45.3066 28.3672C41.0514 28.3672 37.2786 27.6188 33.9883 26.1221C30.6979 24.6253 28.1126 22.5534 26.2324 19.9063C24.3522 17.2591 23.3874 14.2162 23.3379 10.7774C23.3379 10.7774 28.8025 7.82548 28.8025 7.82548L37.959 10.7774C37.959 10.7774 38.293 13.14 38.9609 14.0801C39.6289 15.0202 40.5195 15.7438 41.6328 16.251C42.7461 16.7582 43.9707 17.0117 45.3066 17.0117C46.8405 17.0117 48.1826 16.6839 49.333 16.0283C50.4834 15.3727 51.3864 14.4512 52.042 13.2637C52.6976 12.0762 53.0254 10.6784 53.0254 9.07033C53.0254 7.43752 52.6976 6.02117 52.042 4.8213C51.3864 3.62144 50.4834 2.6937 49.333 2.0381C48.1826 1.3825 46.8405 1.0547 45.3066 1.0547C43.6986 1.0547 43.4423 2.31536 43.4423 2.31536C43.4423 2.31536 38.6022 4.02345 37.959 5.35939C37.959 5.35939 24.7481 2.76173 24.7481 2.76173L26.9004 -27.668L32.366 -30.6324L64.084 -27.668L69.5014 -18.6128L64.084 -15.6445L39.2207 -15.6445L38.1816 -3.47264L38.4785 -3.47264C38.4785 -3.47264 40.8411 -6.54035 42.9688 -7.62889C45.0964 -8.71743 47.5579 -9.2617 50.3535 -9.2617C52.8027 -9.2617 55.0726 -8.82876 57.1631 -7.96288C59.2536 -7.09699 61.0719 -5.8662 62.6182 -4.27049C64.1644 -2.67479 65.3643 -0.782211 66.2178 1.40724C67.0713 3.59669 67.498 6.00262 67.498 8.62502C67.498 12.4844 66.5827 15.8985 64.752 18.8672C62.9212 21.836 60.3421 24.1615 57.0147 25.8438C53.6872 27.5261 49.7845 28.3672 45.3066 28.3672Z"></path>
  <path fill="#DEDEDE" transform="matrix(0.537651 -0.0792418 0.0944848 0.641075 264.283 345.289)" d="M-51.8282 28.625L-51.8282 -26.668L-47.375 -26.668L-47.375 28.625L-51.8282 28.625ZM-49.75 22.3164C-54.2526 22.3164 -58.1058 21.4196 -61.3096 19.626C-64.5134 17.8323 -66.9626 15.3336 -68.6573 12.1299C-70.3519 8.92609 -71.1992 5.1966 -71.1992 0.941391C-71.1992 -3.31382 -70.3519 -7.04331 -68.6573 -10.2471C-66.9626 -13.4509 -64.5134 -15.9496 -61.3096 -17.7432C-58.1058 -19.5368 -54.2526 -20.4336 -49.75 -20.4336C-46.8802 -20.4336 -44.2826 -20.0625 -41.9571 -19.3203C-39.6315 -18.5781 -37.6091 -17.5205 -35.8897 -16.1475C-34.1703 -14.7744 -32.8034 -13.1169 -31.7891 -11.1748C-30.7748 -9.23276 -30.1439 -7.06187 -29.8965 -4.66212C-29.8965 -4.66212 -43.5899 -2.62111 -43.5899 -2.62111C-43.5899 -2.62111 -44.0166 -4.66831 -44.3506 -5.49709C-44.6846 -6.32586 -45.099 -7.02476 -45.5938 -7.59377C-46.0886 -8.16277 -46.6638 -8.58953 -47.3194 -8.87404C-47.975 -9.15855 -48.711 -9.3008 -49.5274 -9.3008C-50.8386 -9.3008 -51.9766 -8.9297 -52.9414 -8.18752C-53.9063 -7.44533 -54.6547 -6.31968 -55.1866 -4.81056C-55.7185 -3.30145 -55.9844 -1.40887 -55.9844 0.867172C-55.9844 3.11847 -55.7185 5.01105 -55.1866 6.54491C-54.6547 8.07876 -53.9063 9.23534 -52.9414 10.0146C-51.9766 10.7939 -50.8386 11.1836 -49.5274 11.1836C-48.711 11.1836 -47.975 11.0351 -47.3194 10.7383C-46.6638 10.4414 -46.0824 10.0023 -45.5752 9.42088C-45.0681 8.8395 -44.6475 8.11587 -44.3135 7.24998C-43.9795 6.3841 -43.7383 5.39452 -43.5899 4.28123C-43.5899 4.28123 -29.8965 6.28514 -29.8965 6.28514C-29.8965 6.28514 -30.7748 10.9795 -31.7891 12.9463C-32.8034 14.9131 -34.1641 16.5954 -35.8711 17.9931C-37.5782 19.3909 -39.6006 20.4609 -41.9385 21.2031C-44.2764 21.9453 -46.8802 22.3164 -49.75 22.3164ZM-24.0332 28.625L-24.0332 17.8633L-3.40039 0.792969C-3.40039 0.792969 -0.864588 -1.41504 0.124996 -2.41699C1.11458 -3.41895 1.87532 -4.45182 2.40722 -5.51562C2.93912 -6.57943 3.20507 -7.76693 3.20507 -9.07812C3.20507 -10.4883 2.90201 -11.6943 2.29589 -12.6963C1.68978 -13.6982 0.860998 -14.4714 -0.190434 -15.0156C-1.24187 -15.5599 -2.46029 -15.832 -3.84571 -15.832C-5.23112 -15.832 -6.44955 -15.5537 -7.50098 -14.9971C-8.55241 -14.4404 -9.36882 -13.6302 -9.9502 -12.5664C-10.5316 -11.5026 -10.8223 -10.1914 -10.8223 -8.63281C-10.8223 -8.63281 -25.0723 -8.63281 -25.0723 -8.63281C-25.0723 -8.63281 -24.2002 -15.8568 -22.4561 -18.6523C-20.7119 -21.4479 -18.2441 -23.6064 -15.0527 -25.1279C-11.8613 -26.6494 -8.12565 -27.4102 -3.84571 -27.4102C0.582678 -27.4102 4.41732 -26.7051 7.6582 -25.2949C10.8991 -23.8848 13.404 -21.8994 15.1728 -19.3389C16.9417 -16.7783 17.8262 -13.7786 17.8262 -10.3398C17.8262 -8.21224 17.387 -6.10319 16.5088 -4.0127C15.6305 -1.9222 14.0534 0.397135 11.7773 2.94531C9.5013 5.49349 6.24804 8.51172 2.01757 12C2.01757 12 -3.17774 16.3047 -3.17774 16.3047L-3.17774 16.6758L18.4199 16.6758L18.4199 28.625L-24.0332 28.625ZM45.8066 29.3672C41.5514 29.3672 37.7786 28.6188 34.4883 27.1221C31.1979 25.6253 28.6126 23.5534 26.7324 20.9062C24.8522 18.2591 23.8874 15.2161 23.8379 11.7773C23.8379 11.7773 38.459 11.7773 38.459 11.7773C38.459 11.7773 38.793 14.14 39.4609 15.0801C40.1289 16.0202 41.0195 16.7438 42.1328 17.251C43.2461 17.7581 44.4707 18.0117 45.8066 18.0117C47.3405 18.0117 48.6826 17.6839 49.833 17.0283C50.9834 16.3727 51.8864 15.4512 52.542 14.2637C53.1976 13.0762 53.5254 11.6784 53.5254 10.0703C53.5254 8.4375 53.1976 7.02116 52.542 5.82129C51.8864 4.62142 50.9834 3.69369 49.833 3.03809C48.6826 2.38249 47.3405 2.05469 45.8066 2.05469C44.1986 2.05469 42.7327 2.43815 41.4092 3.20508C40.0856 3.97201 39.1022 5.02344 38.459 6.35938C38.459 6.35938 25.248 3.76172 25.248 3.76172L27.4004 -26.668L64.584 -26.668L64.584 -14.6445L39.7207 -14.6445L38.6816 -2.47266L38.9785 -2.47266C38.9785 -2.47266 41.3411 -5.54037 43.4688 -6.62891C45.5964 -7.71745 48.0579 -8.26172 50.8535 -8.26172C53.3027 -8.26172 55.5726 -7.82877 57.6631 -6.96289C59.7536 -6.097 61.5719 -4.86621 63.1182 -3.27051C64.6644 -1.6748 65.8643 0.217773 66.7178 2.40723C67.5713 4.59668 67.998 7.0026 67.998 9.625C67.998 13.4844 67.0827 16.8984 65.252 19.8672C63.4212 22.8359 60.8421 25.1615 57.5146 26.8438C54.1872 28.526 50.2845 29.3672 45.8066 29.3672Z"></path>
  <clipPath id="cl_17a">
    <path d="M239.122 367.747L233.898 332.3L236.292 331.947L241.517 367.394L239.122 367.747ZM239.644 363.538C237.223 363.895 235.066 363.625 233.174 362.729C231.282 361.833 229.729 360.426 228.516 358.506C227.302 356.586 226.494 354.263 226.092 351.535C225.69 348.807 225.793 346.349 226.401 344.161C227.01 341.973 228.09 340.177 229.644 338.773C231.197 337.369 233.184 336.489 235.604 336.132C237.147 335.905 238.579 335.937 239.899 336.228C241.22 336.52 242.407 337.038 243.461 337.782C244.516 338.526 245.407 339.48 246.136 340.645C246.865 341.809 247.409 343.151 247.769 344.67C247.769 344.67 240.599 347.063 240.599 347.063C240.599 347.063 240.176 345.785 239.919 345.28C239.661 344.775 239.372 344.36 239.052 344.034C238.732 343.709 238.383 343.481 238.003 343.35C237.624 343.22 237.215 343.187 236.776 343.252C236.071 343.355 235.494 343.684 235.046 344.236C234.597 344.788 234.301 345.569 234.158 346.579C234.014 347.588 234.05 348.823 234.265 350.282C234.478 351.725 234.8 352.917 235.23 353.858C235.661 354.799 236.173 355.482 236.765 355.905C237.358 356.328 238.006 356.487 238.711 356.384C239.15 356.319 239.532 356.165 239.856 355.923C240.181 355.681 240.452 355.353 240.67 354.94C240.887 354.527 241.045 354.03 241.143 353.449C241.241 352.867 241.277 352.214 241.252 351.488C241.252 351.488 248.803 351.688 248.803 351.688C248.803 351.688 248.774 354.767 248.415 356.108C248.055 357.449 247.483 358.635 246.697 359.667C245.911 360.698 244.925 361.544 243.738 362.205C242.551 362.867 241.187 363.311 239.644 363.538ZM254.066 365.545L253.049 358.646L262.53 346.067C262.53 346.067 263.685 344.451 264.122 343.73C264.559 343.009 264.871 342.287 265.056 341.563C265.242 340.839 265.273 340.056 265.149 339.216C265.015 338.312 264.738 337.562 264.318 336.968C263.897 336.374 263.379 335.944 262.762 335.678C262.145 335.413 261.465 335.335 260.72 335.445C259.975 335.554 259.346 335.829 258.833 336.27C258.321 336.71 257.958 337.294 257.746 338.022C257.534 338.75 257.502 339.614 257.649 340.613C257.649 340.613 249.987 341.742 249.987 341.742C249.987 341.742 249.774 337.042 250.447 335.111C251.121 333.181 252.244 331.602 253.816 330.373C255.388 329.145 257.325 328.361 259.626 328.022C262.007 327.671 264.135 327.819 266.011 328.467C267.886 329.114 269.421 330.188 270.614 331.689C271.807 333.191 272.566 335.044 272.89 337.248C273.091 338.612 273.055 339.999 272.78 341.409C272.505 342.819 271.876 344.43 270.894 346.244C269.911 348.058 268.447 350.251 266.502 352.822C266.502 352.822 264.115 355.994 264.115 355.994L264.15 356.232L275.762 354.52L276.891 362.181L254.066 365.545ZM291.686 360.486C289.398 360.823 287.299 360.643 285.388 359.944C283.478 359.245 281.892 358.122 280.631 356.574C279.37 355.026 278.564 353.151 278.212 350.951C278.212 350.951 286.073 349.792 286.073 349.792C286.073 349.792 286.476 351.28 286.924 351.83C287.372 352.38 287.919 352.773 288.566 353.01C289.212 353.247 289.895 353.312 290.613 353.206C291.438 353.085 292.128 352.768 292.685 352.257C293.241 351.746 293.64 351.083 293.88 350.27C294.12 349.457 294.165 348.535 294.013 347.504C293.858 346.457 293.548 345.575 293.082 344.858C292.617 344.141 292.043 343.617 291.363 343.288C290.683 342.959 289.93 342.855 289.105 342.977C288.241 343.104 287.489 343.466 286.85 344.063C286.211 344.659 285.781 345.411 285.562 346.319C285.562 346.319 278.213 345.7 278.213 345.7L276.495 326.022L296.487 323.075L297.623 330.783L284.255 332.754L284.847 340.639L285.006 340.616C285.006 340.616 285.987 338.462 287.028 337.595C288.069 336.729 289.341 336.185 290.844 335.963C292.161 335.769 293.422 335.867 294.628 336.256C295.834 336.646 296.928 337.291 297.91 338.191C298.892 339.092 299.716 340.21 300.382 341.546C301.047 342.882 301.504 344.39 301.752 346.071C302.116 348.546 301.947 350.807 301.243 352.855C300.539 354.903 299.372 356.599 297.742 357.941C296.112 359.283 294.093 360.131 291.686 360.486Z"></path>
  </clipPath>
  <g clip-path="url(#cl_17a)">
    <path fill="#F2F1F1" transform="matrix(0.538761 0.136403 -0.0879357 0.631387 261.184 380.188)" d="M-170.753 -28.5017L169.944 -28.5017L169.944 28.5017L-170.753 28.5017L-170.753 -28.5017Z"></path>
  </g>
  <path fill="#8E8B8B" transform="matrix(0.641075 -0.0944848 0.0944848 0.641075 249.988 268.796)" d="M-2.86102e-06 0C-2.86102e-06 0 -15.2012 0 -18.2664 1.90735e-06C-66.3551 1.3037 -126.35 32.2772 -126.35 128C-126.35 223.723 -55.9022 256 -19 256C-15.9348 256 -1.90735e-06 256 -5.72205e-06 256C-25.5439 256 -107.35 223.723 -107.35 128C-107.35 32.2772 -25.5439 -1.90735e-06 -2.86102e-06 0Z"></path>
  <clipPath id="cl_17c">
    <path d="M249.988 268.796C249.988 268.796 240.243 270.233 238.278 270.522C207.573 275.902 172.038 301.426 181.082 362.792C190.127 424.157 238.339 438.193 261.996 434.707C263.961 434.417 274.176 432.911 274.176 432.911C257.801 435.325 202.307 422.362 193.263 360.997C184.218 299.631 233.612 271.21 249.988 268.796Z"></path>
  </clipPath>
  <g clip-path="url(#cl_17c)">
    <path fill="#ACABAB" transform="matrix(0.537651 -0.0792418 0.0944848 0.641075 222.408 393.643)" d="M-105.5 -40.8039L105 -40.8039L105 40.8039L-105.5 40.8039L-105.5 -40.8039Z"></path>
    <path fill="#D6D6D6" transform="matrix(0.537651 -0.0792418 0.0944848 0.641075 217.655 389.169)" d="M-105.5 -7.02946L105 -7.02946L105 7.02946L-105.5 7.02946L-105.5 -7.02946Z"></path>
    <path fill="#D6D6D6" transform="matrix(0.53918 -0.0794671 0.0942169 0.639257 235.939 357.982)" d="M-137.32 -30.4789L136.67 -30.4789L136.67 30.4789L-137.32 30.4789L-137.32 -30.4789Z"></path>
  </g>
  <path fill="#91A8EB" transform="matrix(0.606874 0.00990163 -0.00990163 0.606874 198.523 94.3168)" d="M0 -22.5C14.6355 -22.5 26.5 -12.3145 26.5 0.25C26.5 12.8145 14.6355 23 0 23C-14.6355 23 -26.5 12.8145 -26.5 0.25C-26.5 -12.3145 -14.6355 -22.5 0 -22.5Z"></path>
  <path fill="#91A8EB" transform="matrix(0.504938 0.00823846 -0.00823846 0.504938 183.073 105.014)" d="M-4.23752e-08 -22.5C14.6355 -22.5 26.5 -12.3145 26.5 0.25C26.5 12.8145 14.6355 23 4.23752e-08 23C-14.6355 23 -26.5 12.8145 -26.5 0.25C-26.5 -12.3145 -14.6355 -22.5 -4.23752e-08 -22.5Z"></path>
  <path fill="#91A8EB" transform="matrix(0.274279 0.00447507 -0.00447507 0.274279 164.204 72.2277)" d="M3.05176e-05 -22.4262C14.2962 -22.4262 25.8855 -12.2741 25.8855 0.249207C25.8855 12.7725 14.2962 22.9246 3.05176e-05 22.9246C-14.2961 22.9246 -25.8855 12.7725 -25.8855 0.249207C-25.8855 -12.2741 -14.2961 -22.4262 3.05176e-05 -22.4262Z"></path>
  <path fill="#C1CBE8" transform="matrix(0.073816 -0.11483 0.26388 0.16963 160.405 69.5684)" d="M-0.00012207 -11.4999C14.6354 -11.4999 28.006 -7.98322 28.006 -1.63195C28.006 4.71933 15.5058 0.400246 0.870234 0.400247C-13.7653 0.400246 -26.7661 4.37695 -26.7661 -1.97432C-26.7661 -8.3256 -14.6357 -11.4999 -0.00012207 -11.4999Z"></path>
  <path fill="#C1CBE8" transform="matrix(-0.166841 -0.570472 0.880441 -0.257495 182.941 131.33)" d="M0 -11.5C14.6355 -11.5 28.0061 -7.98328 28.0061 -1.63201C28.0061 4.71927 15.5059 0.400186 0.870357 0.400186C-13.7652 0.400184 -26.766 4.37689 -26.766 -1.97439C-26.766 -8.32566 -14.6355 -11.5 0 -11.5Z"></path>
  <path fill="#1B2B56" transform="matrix(1.78669 -0.21848 0.065544 0.536007 239.188 106.872)" d="M-9.03383e-07 -2.50003C1.38071 -2.50003 2.5 -1.38074 2.5 -3.05176e-05C2.5 1.38068 1.38071 2.49997 -8.84756e-07 2.49997C-1.38071 2.49997 -2.5 1.38068 -2.5 -3.05176e-05C-2.5 -1.38074 -1.38071 -2.50003 -9.03383e-07 -2.50003Z"></path>
  <path fill="none" stroke="#1B2B56" stroke-width="0.5" stroke-linecap="round" stroke-linejoin="round" transform="matrix(1.78289 -0.247598 0.247598 1.78289 247.832 105.76)" d="M1.98548 0.277974L6.02909 0.184236"></path>
  <path fill="#1B2B56" transform="matrix(1.78669 -0.21848 0.065544 0.536007 267.775 103.376)" d="M-1.91666e-06 -2.50003C1.38071 -2.50003 2.5 -1.38074 2.5 -3.05176e-05C2.5 1.38068 1.38071 2.49997 -1.89804e-06 2.49997C-1.38071 2.49997 -2.5 1.38068 -2.5 -3.05176e-05C-2.5 -1.38074 -1.38071 -2.50003 -1.91666e-06 -2.50003Z"></path>
  <path fill="#354B89" transform="matrix(1.46507 -0.885005 0.929571 0.72522 259.553 96.4442)" d="M-7.62939e-06 -2.49999C1.3807 -2.49999 2.49999 -1.3807 2.49999 7.77841e-06C2.49999 1.38072 1.3807 2.50001 -7.62939e-06 2.50001C-1.38072 2.50001 -2.50001 1.38072 -2.50001 7.48038e-06C-2.50001 -1.3807 -1.38072 -2.49999 -7.62939e-06 -2.49999Z"></path>
  <path fill="#354B89" transform="matrix(2.16254 0.296937 -0.629837 1.0733 243.58 97.3837)" d="M-3.8147e-06 -2.98534C1.68305 -2.98534 3.04744 -1.64876 3.04744 -9.08208e-08C3.04744 1.64876 1.68305 2.98534 -3.8147e-06 2.98534C-1.68306 2.98534 -3.04744 1.64876 -3.04744 9.08208e-08C-3.04744 -1.64876 -1.68306 -2.98534 -3.8147e-06 -2.98534Z"></path>
  <path fill="none" stroke="white" stroke-width="5" stroke-linecap="round" stroke-linejoin="round" transform="matrix(1.5 0 0 1.5 158.539 362.24)" d=""></path>
</svg>