<?xml version="1.0" encoding="utf-8"?>
<svg xmlns="http://www.w3.org/2000/svg" xmlns:xlink="http://www.w3.org/1999/xlink" width="512" height="512">
  <path fill="none" stroke="black" stroke-width="7" stroke-linejoin="round" transform="translate(256 256)" d="M188.166 -126.387C166.818 -170.254 143.208 -197.825 80.513 -201.102C51.725 -143.151 28.981 -111.087 28.981 -111.087C29.3001 -103.912 32.8589 -99.9956 41.6656 -100.387C41.6656 -100.387 148.058 -88.7264 188.166 -126.387Z"></path>
  <path fill="#828594" transform="matrix(-2.01951 0.089779 0.089779 2.01951 425.162 126.831)" d="M-9.33073 1.79229C0.255675 -20.3553 11.318 -34.4995 42.2294 -37.4964C57.7294 -9.48986 69.6738 5.85637 69.6738 5.85637C69.6737 9.4091 68.001 11.4229 63.6402 11.4229C63.6402 11.4229 11.318 19.5229 -9.33073 1.79229Z"></path>
  <path fill="none" stroke="black" stroke-width="7" stroke-linejoin="round" transform="translate(256 256)" d="M174.875 -117.221C195.959 -55.8721 180.158 17.8351 180.158 17.8351C164.216 47.2494 128.507 57.9835 128.507 57.9835C119.966 53.3455 113.599 37.953 113.599 37.953C113.599 37.953 105.327 54.4829 82.7541 73.9391C-12.2489 98.2207 -112.155 83.8794 -116.307 64.271C-119.115 50.7518 -145.943 -109.193 -145.943 -109.193L-121.559 -191.696L-82.6457 -196.052C-82.6457 -196.052 -82.2532 -195.867 -81.4908 -195.528"></path>
  <path fill="none" stroke="black" stroke-width="7" stroke-linejoin="round" transform="translate(256 256)" d="M55.0659 -190.109C49.1777 -195.966 43.5759 -198.122 43.5759 -198.122C56.2015 -198.755 67.7397 -198.295 78.28 -196.887"></path>
  <path fill="none" stroke="black" stroke-width="7" stroke-linejoin="round" transform="translate(256 256)" d="M-110.58 -179.201C-87.5676 -216.368 45.2686 -198.017 45.2686 -198.017L52.0261 -196.876"></path>
  <defs>
    <linearGradient id="gradient_0" gradientUnits="userSpaceOnUse" x1="-10.499905" y1="-40.34568" x2="-3.0814617" y2="20.75737">
      <stop offset="0" stop-color="#A1A8AF"></stop>
      <stop offset="0.99830264" stop-color="#242B4A"></stop>
      <stop offset="1" stop-color="#000417"></stop>
    </linearGradient>
  </defs>
  <path fill="url(#gradient_0)" transform="matrix(1.89117 -0.0840739 0.0897793 2.01951 247.948 90.192)" d="M-53.7932 -8.87113C-40.7768 -26.7335 28.8943 -14.7462 28.8943 -14.7462L53.5854 -9.77639L68.6389 10.0869L-57 14.5C-57 14.5 -53.7932 -8.87113 -53.7932 -8.87113Z"></path>
  <path fill="#999CA8" transform="matrix(2.01951 -0.0897793 0.0897793 2.01951 158.778 70.6411)" d="M69.8618 -3.21399C161.425 -3.7359 132.615 106.511 132.615 106.511C124.09 120.697 106.208 125.217 106.208 125.217C102.088 122.738 99.2801 114.991 99.2801 114.991C99.2801 114.991 94.8288 122.978 83.2462 132.097C35.7629 142.01 -13.2949 132.728 -14.9159 122.946C-16.0065 116.203 -25.751 36.5701 -25.751 36.5701L-11.8878 -3.66654L7.43844 -4.96424C7.43844 -4.96424 39.4631 11.9061 80.554 10.9645C78.088 0.379149 69.8618 -3.21399 69.8618 -3.21399Z"></path>
  <clipPath id="cl_8a">
    <path d="M299.576 57.8783C484.442 48.6039 436.158 273.835 436.158 273.835C420.216 303.249 384.507 313.984 384.507 313.984C375.966 309.346 369.599 293.953 369.599 293.953C369.599 293.953 361.327 310.483 338.754 329.939C243.751 354.221 143.845 339.879 139.693 320.271C136.885 306.752 110.057 146.807 110.057 146.807L134.441 64.3038L173.354 59.948C173.354 59.948 239.543 91.1427 322.442 85.552C316.512 64.3962 299.576 57.8783 299.576 57.8783Z"></path>
  </clipPath>
  <g clip-path="url(#cl_8a)">
    <path fill="#686B77" transform="matrix(2.19707 -0.0976731 0.090705 2.04033 279.334 199.783)" d="M-5.81434 -76.9003C-5.81434 -76.9003 -38.015 -34.4167 -37.875 19.4009C-37.7351 73.2184 27.8948 68.4574 27.8948 68.4574L-79.1489 92.4107L-83.3846 -74.5391L-5.81434 -76.9003Z"></path>
    <path fill="#BCBFC5" transform="matrix(2.55989 -0.113802 0.090705 2.04033 243.246 194.812)" d="M45.4521 -82.9725L93.7889 -50.8112C93.7889 -50.8112 78.8995 -3.97774 47.484 1.7428C16.0686 7.46334 -45.8161 -37.4435 -45.8161 -37.4435L-90.6289 -85.8936L45.4521 -82.9725Z"></path>
    <path fill="#DADDE0" transform="matrix(2.19707 -0.0976731 0.090705 2.04033 307.041 43.5748)" d="M33.8967 14.5768L59.8776 19.1892C59.8776 19.1892 48.6614 51.4509 28.5602 52.2698C8.45894 53.0887 -29.101 32.4093 -29.101 32.4093C-29.101 32.4093 17.1176 36.5863 22.2728 36.8407C27.4281 37.0951 33.8967 14.5768 33.8967 14.5768Z"></path>
    <path fill="none" stroke="#494B53" stroke-width="1" stroke-linejoin="round" transform="matrix(2.24208 -0.0996738 0.090705 2.04033 232.771 201.926)" d="M58.3754 51.355C55.7901 58.8553 52.5584 66.737 48.5941 75.0016C14.6377 75.5171 -25.2378 65.559 -25.2378 65.559C-35.0428 44.0427 -33.6038 2.4507 -31.9509 -19.8113"></path>
    <path fill="none" stroke="#898FA2" stroke-width="1" stroke-linejoin="round" transform="matrix(2.24208 -0.0996738 0.090705 2.04033 232.771 201.926)" d="M-52.5751 -90.6465C-52.5751 -90.6465 29.9049 -60.6268 29.9049 -60.6268C47.3299 -58.4002 82.3269 -22.6898 59.5525 47.8296"></path>
  </g>
  <defs>
    <linearGradient id="gradient_1" gradientUnits="userSpaceOnUse" x1="-60.30225" y1="-15.24908" x2="-29.287821" y2="-15.24908">
      <stop offset="0" stop-color="#42444C"></stop>
      <stop offset="0.99602401" stop-color="#161823"></stop>
      <stop offset="1" stop-color="black"></stop>
    </linearGradient>
  </defs>
  <path fill="url(#gradient_1)" transform="matrix(2.54821 -0.113283 0.0897793 2.01951 284.21 195.336)" d="M-59.1504 -29.4358L-32.5504 -30.7818C-32.5504 -30.7818 -29.2878 -16.904 -29.2878 -16.904C-37.342 10.4732 -59.3233 2.22359 -60.3022 -21.2052C-60.3022 -21.2052 -59.1504 -29.4358 -59.1504 -29.4358Z"></path>
  <path fill="#999696" transform="matrix(2.01951 -0.0897793 0.0897793 2.01951 55.1804 138.64)" d="M-9.33073 1.7923C0.255675 -20.3552 11.318 -34.4995 42.2294 -37.4964C57.7294 -9.48986 69.6738 5.85638 69.6738 5.85638C69.6737 9.4091 68.001 11.4229 63.6402 11.4229C63.6402 11.4229 11.318 19.5229 -9.33073 1.7923Z"></path>
  <path fill="none" stroke="black" stroke-width="7" stroke-linejoin="round" transform="translate(256 256)" d="M-158.787 -94.2245C-181.813 -95.9116 -204.406 -101.062 -219.502 -112.903C-202.131 -158.49 -181.06 -188.048 -118.903 -196.875C-118.639 -196.444 -118.375 -196.014 -118.111 -195.585"></path>
  <path fill="#828594" transform="matrix(2.01951 -0.0897793 0.0897793 2.01951 55.1804 138.64)" d="M-9.33073 1.7923C0.255675 -20.3552 11.318 -34.4995 42.2294 -37.4964C57.7294 -9.48986 69.6738 5.85638 69.6738 5.85638C69.6737 9.4091 68.001 11.4229 63.6402 11.4229C63.6402 11.4229 11.318 19.5229 -9.33073 1.7923Z"></path>
  <clipPath id="cl_8e">
    <path d="M36.4978 143.097C53.8693 97.5096 74.9398 67.9519 137.097 59.1246C170.913 114.292 196.413 144.212 196.413 144.212C196.732 151.387 193.535 155.604 184.728 155.995C184.728 155.995 79.7899 177.051 36.4978 143.097Z"></path>
  </clipPath>
  <g clip-path="url(#cl_8e)">
    <path fill="#686B77" transform="matrix(2.075 -0.0922461 0.0897793 2.01951 60.6902 138.395)" d="M-18.5853 15.5755L-13.4615 -44.4622C-13.4615 -44.4622 70.2014 -44.8305 70.2014 -44.8305C29.0482 -45.0949 3.69742 17.5905 3.69742 17.5905L-18.5853 15.5755Z"></path>
  </g>
  <path fill="#42444C" transform="matrix(2.01951 -0.0897793 0.0897793 2.01951 55.1804 138.64)" d="M-7.3892 -2.74581C-7.3892 -2.74581 -3.9105 -12.6587 2.43461 -18.8153C16.915 -6.28383 67.6134 6.22991 67.6134 6.22991L66.536 9.4091C66.536 9.4091 3.07251 11.6987 -7.3892 -2.74581Z"></path>
  <path fill="#21232E" transform="matrix(1.97455 -0.0877804 0.0897793 2.01951 192.583 150.323)" d="M4.47035e-08 -12C6.90356 -12 12.5 -6.62742 12.5 0C12.5 6.62742 6.90356 12 -4.47035e-08 12C-6.90356 12 -12.5 6.62742 -12.5 0C-12.5 -6.62742 -6.90356 -12 4.47035e-08 -12Z"></path>
  <path fill="#7A7E92" transform="matrix(1.97455 -0.0877804 0.0897793 2.01951 198.596 152.079)" d="M4.47035e-08 -12C6.90356 -12 12.5 -6.62742 12.5 0C12.5 6.62742 6.90356 12 -4.47035e-08 12C-6.90356 12 -12.5 6.62742 -12.5 0C-12.5 -6.62742 -6.90356 -12 4.47035e-08 -12Z"></path>
  <path fill="#A5A5A5" transform="matrix(1.71395 0 0 0.223031 270.629 476.008)" d="M-0.25 -88C55.945 -88 101.5 -48.6011 101.5 0C101.5 48.6011 55.945 88 -0.25 88C-56.445 88 -102 48.6011 -102 0C-102 -48.6011 -56.445 -88 -0.25 -88Z" style="mix-blend-mode: multiply"></path>
</svg>