<?xml version="1.0" encoding="utf-8"?>
<svg xmlns="http://www.w3.org/2000/svg" xmlns:xlink="http://www.w3.org/1999/xlink" width="512" height="512">
  <path fill="none" stroke="black" stroke-width="7" stroke-linejoin="round" transform="translate(256 256)" d="M185.425 -106.082C164.62 -150.208 141.351 -178.069 78.7015 -182.118C49.2011 -124.527 26.0635 -92.7456 26.0635 -92.7456C26.294 -85.5675 29.8043 -81.6072 38.6151 -81.8901C38.6151 -81.8901 144.856 -68.9184 185.425 -106.082Z"></path>
  <path fill="#828594" transform="matrix(-2.02046 0.0648703 0.0648703 2.02046 422.457 146.902)" d="M-9.33073 1.7923C0.255675 -20.3552 11.318 -34.4995 42.2294 -37.4964C57.7294 -9.48986 69.6738 5.85638 69.6738 5.85638C69.6737 9.4091 68.001 11.4229 63.6402 11.4229C63.6402 11.4229 11.318 19.5229 -9.33073 1.7923Z"></path>
  <path fill="none" stroke="black" stroke-width="7" stroke-linejoin="round" transform="translate(256 256)" d="M177.747 -99.5932C197.113 -37.4648 177.416 37.9737 177.416 37.9737C161.112 67.1892 132.536 77.249 132.536 77.249C124.053 72.5061 117.794 57.0389 117.794 57.0389C117.794 57.0389 109.357 73.4643 86.5462 92.6407C-8.74889 115.749 -111.687 100.28 -115.597 80.622C-118.238 67.0692 -145.264 -93.1249 -145.264 -93.1249L-119.864 -175.321L-74.602 -179.106"></path>
  <path fill="none" stroke="black" stroke-width="7" stroke-linejoin="round" transform="translate(256 256)" d="M62.3303 -171.451C56.6416 -177.594 51.1615 -179.897 51.1615 -179.897C59.9838 -180.23 68.2517 -180.036 75.9981 -179.364"></path>
  <path fill="none" stroke="black" stroke-width="7" stroke-linejoin="round" transform="translate(256 256)" d="M-97.5549 -163.06C-75.8925 -199.883 52.3037 -179.754 52.3037 -179.754L54.8077 -179.178"></path>
  <defs>
    <linearGradient id="gradient_0" gradientUnits="userSpaceOnUse" x1="-10.499905" y1="-40.34568" x2="-3.0814617" y2="20.75737">
      <stop offset="0" stop-color="#A1A8AF"></stop>
      <stop offset="0.99830264" stop-color="#242B4A"></stop>
      <stop offset="1" stop-color="#000417"></stop>
    </linearGradient>
  </defs>
  <path fill="url(#gradient_0)" transform="matrix(1.75325 -0.0562913 0.0648706 2.02046 253.334 107.836)" d="M-53.7932 -8.87113C-40.7768 -26.7335 31.8987 -14.7462 31.8987 -14.7462L53.5854 -9.77639L68.6389 10.0869L-57 14.5C-57 14.5 -53.7932 -8.87113 -53.7932 -8.87113Z"></path>
  <path fill="#999CA8" transform="matrix(2.02046 -0.0648706 0.0648706 2.02046 160.393 87.3162)" d="M72.7442 -3.21399C164.307 -3.7359 131.709 106.511 131.709 106.511C123.184 120.697 108.896 125.217 108.896 125.217C104.777 122.738 101.928 114.991 101.928 114.991C101.928 114.991 97.4956 122.978 85.913 132.097C38.4297 142.01 -12.2201 132.728 -13.8411 122.946C-14.9317 116.203 -25.751 36.5701 -25.751 36.5701L-11.8878 -3.66654L13.3632 -4.96424C13.3632 -4.96424 41.9572 11.9061 83.0481 10.9645C80.5821 0.379149 72.7442 -3.21399 72.7442 -3.21399Z"></path>
  <clipPath id="cl_170">
    <path d="M307.161 76.1035C492.128 69.1092 433.416 293.974 433.416 293.974C417.112 323.189 388.536 333.249 388.536 333.249C380.053 328.506 373.794 313.039 373.794 313.039C373.794 313.039 365.357 329.464 342.546 348.641C247.251 371.749 144.313 356.28 140.403 336.622C137.762 323.069 110.736 162.875 110.736 162.875L136.136 80.6793L187.071 76.4193C187.071 76.4193 245.938 108.65 328.9 104.082C323.231 82.8548 307.161 76.1035 307.161 76.1035Z"></path>
  </clipPath>
  <g clip-path="url(#cl_170)">
    <path fill="#686B77" transform="matrix(2.19811 -0.0705743 0.0655394 2.0413 287.267 217.68)" d="M-5.81434 -76.9003C-5.81434 -76.9003 -38.015 -34.4167 -37.875 19.4009C-37.7351 73.2184 27.8948 68.4574 27.8948 68.4574L-79.1489 92.4107L-83.3847 -74.5391L-5.81434 -76.9003Z"></path>
    <path fill="#BCBFC5" transform="matrix(2.5611 -0.0822287 0.0655394 2.0413 248.905 204.578)" d="M45.4521 -82.9725L93.7889 -50.8112C93.7889 -50.8112 78.8995 -3.97774 47.484 1.7428C16.0686 7.46334 -45.8161 -37.4435 -45.8161 -37.4435L-90.6289 -85.8936L45.4521 -82.9725Z"></path>
    <path fill="#DADDE0" transform="matrix(2.19811 -0.0705743 0.0655394 2.0413 314.572 54.5229)" d="M33.8967 14.5768L59.8776 19.1892C59.8776 19.1892 48.6614 51.4509 28.5602 52.2698C8.45894 53.0887 -29.101 32.4093 -29.101 32.4093C-29.101 32.4093 17.1176 36.5863 22.2728 36.8407C27.4281 37.0951 33.8967 14.5768 33.8967 14.5768Z"></path>
    <path fill="none" stroke="#494B53" stroke-width="1" stroke-linejoin="round" transform="matrix(2.24314 -0.0720199 0.0655394 2.0413 238.592 219.317)" d="M58.0964 51.1911C55.505 58.6966 52.2679 66.5855 48.2992 74.8595C14.3427 75.375 -25.2378 65.559 -25.2378 65.559C-35.0542 44.0177 -33.6005 2.35392 -31.9451 -19.8889"></path>
    <path fill="none" stroke="#898FA2" stroke-width="1" stroke-linejoin="round" transform="matrix(2.24314 -0.0720199 0.0655394 2.0413 238.592 219.317)" d="M-52.5751 -90.6465C-52.5751 -90.6465 29.9049 -60.6268 29.9049 -60.6268C47.3282 -58.4005 82.0852 -22.8102 59.2741 47.6705"></path>
  </g>
  <defs>
    <linearGradient id="gradient_1" gradientUnits="userSpaceOnUse" x1="-60.30225" y1="-15.24908" x2="-29.287821" y2="-15.24908">
      <stop offset="0" stop-color="#42444C"></stop>
      <stop offset="0.99602401" stop-color="#161823"></stop>
      <stop offset="1" stop-color="black"></stop>
    </linearGradient>
  </defs>
  <path fill="url(#gradient_1)" transform="matrix(2.54942 -0.0818536 0.0648706 2.02046 291.056 213.33)" d="M-59.1504 -29.4358L-32.5504 -30.7818C-32.5504 -30.7818 -29.2878 -16.904 -29.2878 -16.904C-37.342 10.4732 -59.3233 2.22359 -60.3022 -21.2052C-60.3022 -21.2052 -59.1504 -29.4358 -59.1504 -29.4358Z"></path>
  <path fill="#999696" transform="matrix(2.02046 -0.0648706 0.0648706 2.02046 55.9649 154.033)" d="M-9.33073 1.7923C0.255675 -20.3552 11.318 -34.4995 42.2294 -37.4964C57.7294 -9.48986 69.6738 5.85638 69.6738 5.85638C69.6737 9.4091 68.001 11.4229 63.6402 11.4229C63.6402 11.4229 11.318 19.5229 -9.33073 1.7923Z"></path>
  <path fill="none" stroke="black" stroke-width="7" stroke-linejoin="round" transform="translate(256 256)" d="M-161.826 -78.6465C-183.585 -80.8607 -204.589 -86.3323 -218.771 -97.7408C-200.839 -143.111 -179.406 -172.407 -117.145 -180.467C-116.885 -180.032 -116.627 -179.599 -116.368 -179.167"></path>
  <path fill="#828594" transform="matrix(2.02046 -0.0648706 0.0648706 2.02046 55.9649 154.033)" d="M-9.33073 1.7923C0.255675 -20.3552 11.318 -34.4995 42.2294 -37.4964C57.7294 -9.48986 69.6738 5.85638 69.6738 5.85638C69.6737 9.4091 68.001 11.4229 63.6402 11.4229C63.6402 11.4229 11.318 19.5229 -9.33073 1.7923Z"></path>
  <clipPath id="cl_174">
    <path d="M37.2288 158.259C55.161 112.889 76.5944 83.5934 138.855 75.5332C171.989 131.114 197.118 161.345 197.118 161.345C197.348 168.524 194.099 172.701 185.289 172.984C185.289 172.984 80.0989 192.744 37.2288 158.259Z"></path>
  </clipPath>
  <g clip-path="url(#cl_174)">
    <path fill="#686B77" transform="matrix(2.07598 -0.066653 0.0648706 2.02046 67.9882 153.647)" d="M-18.5853 15.5755L-13.4615 -44.4622C-13.4615 -44.4622 70.2014 -44.8305 70.2014 -44.8305C29.0482 -45.0949 3.69743 17.5905 3.69743 17.5905L-18.5853 15.5755Z"></path>
  </g>
  <path fill="#42444C" transform="matrix(2.02046 -0.0648706 0.0648706 2.02046 55.9649 154.033)" d="M-7.3892 -2.74581C-7.3892 -2.74581 -3.9105 -12.6587 2.43461 -18.8153C16.915 -6.28383 67.6134 6.22991 67.6134 6.22991L66.536 9.4091C66.536 9.4091 3.07251 11.6987 -7.3892 -2.74581Z"></path>
  <path fill="#21232E" transform="matrix(1.92235 -0.0617204 0.0648706 2.02046 193.293 167.406)" d="M-1.95205e-06 -12C6.90356 -12 12.5 -6.62742 12.5 -2.32831e-08C12.5 6.62742 6.90356 12 -1.86265e-06 12C-6.90356 12 -12.5 6.62742 -12.5 2.32831e-08C-12.5 -6.62742 -6.90356 -12 -1.95205e-06 -12Z"></path>
  <path fill="#7A7E92" transform="matrix(1.92235 -0.0617204 0.0648706 2.02046 199.125 169.242)" d="M-1.95205e-06 -12C6.90356 -12 12.5 -6.62742 12.5 -3.83798e-06C12.5 6.62741 6.90356 12 -1.86265e-06 12C-6.90356 12 -12.5 6.62741 -12.5 -3.79141e-06C-12.5 -6.62742 -6.90356 -12 -1.95205e-06 -12Z"></path>
  <path fill="#A5A5A5" transform="matrix(1.71395 0 0 0.261006 270.629 475.134)" d="M-0.25 -88.0001C55.945 -88.0001 101.5 -48.6011 101.5 -6.10352e-05C101.5 48.601 55.945 87.9999 -0.25 87.9999C-56.445 87.9999 -102 48.601 -102 -6.10352e-05C-102 -48.6011 -56.445 -88.0001 -0.25 -88.0001Z" style="mix-blend-mode: multiply"></path>
</svg>