<?xml version="1.0" encoding="utf-8"?>
<svg xmlns="http://www.w3.org/2000/svg" xmlns:xlink="http://www.w3.org/1999/xlink" width="512" height="512">
  <path fill="none" stroke="black" stroke-width="7" stroke-linejoin="round" transform="translate(256 256)" d="M191.175 -122.338C171.389 -166.931 148.767 -195.319 86.2271 -200.808C55.4105 -143.91 31.5484 -112.669 31.5484 -112.669C31.6138 -105.488 35.0321 -101.448 43.8471 -101.528C43.8471 -101.528 149.761 -86.1173 191.175 -122.338Z"></path>
  <path fill="#828594" transform="matrix(-2.02142 0.018405 0.018405 2.02142 428.281 130.21)" d="M-9.33074 1.7923C0.255668 -20.3552 11.3179 -34.4995 42.2294 -37.4963C57.7294 -9.48985 69.6737 5.85638 69.6737 5.85638C69.6737 9.40911 68.001 11.4229 63.6402 11.4229C63.6402 11.4229 11.3179 19.5229 -9.33074 1.7923Z"></path>
  <path fill="none" stroke="black" stroke-width="7" stroke-linejoin="round" transform="translate(256 256)" d="M176.605 -113.246C195.675 -51.2788 177.779 21.514 177.779 21.514C160.808 50.347 123.518 59.8245 123.518 59.8245C115.146 54.8878 109.34 39.2799 109.34 39.2799C109.34 39.2799 100.483 55.5074 77.2375 74.1544C-18.5637 95.0658 -117.359 77.2004 -120.816 57.4576C-123.144 43.8477 -143.942 -116.948 -143.942 -116.948L-116.659 -198.539L-79.6342 -201.499C-79.6342 -201.499 -78.8746 -201.115 -77.4163 -200.432"></path>
  <path fill="none" stroke="black" stroke-width="7" stroke-linejoin="round" transform="translate(256 256)" d="M58.8552 -190.753C53.1556 -196.78 47.618 -199.12 47.618 -199.12C60.8965 -199.316 72.9396 -198.349 83.8564 -196.384"></path>
  <path fill="none" stroke="black" stroke-width="7" stroke-linejoin="round" transform="translate(256 256)" d="M-108.065 -185.646C-83.4491 -221.98 49.3163 -198.956 49.3163 -198.956L56.83 -197.464"></path>
  <defs>
    <linearGradient id="gradient_0" gradientUnits="userSpaceOnUse" x1="-10.499905" y1="-40.34568" x2="-3.0814617" y2="20.75737">
      <stop offset="0" stop-color="#A1A8AF"></stop>
      <stop offset="0.99830264" stop-color="#242B4A"></stop>
      <stop offset="1" stop-color="#000417"></stop>
    </linearGradient>
  </defs>
  <path fill="url(#gradient_0)" transform="matrix(1.91636 -0.0174487 0.0184053 2.02142 251.186 87.3479)" d="M-53.7932 -8.87113C-40.7768 -26.7335 28.3881 -14.7462 28.3881 -14.7462L53.5854 -9.77639L68.6389 10.0869L-57 14.5C-57 14.5 -53.7932 -8.87113 -53.7932 -8.87113Z"></path>
  <path fill="#999CA8" transform="matrix(2.02142 -0.0184053 0.0184053 2.02142 163.439 64.6541)" d="M69.3761 -3.21399C160.939 -3.7359 132.768 106.511 132.768 106.511C124.243 120.697 105.755 125.217 105.755 125.217C101.635 122.738 98.834 114.991 98.834 114.991C98.834 114.991 94.3795 122.978 82.7969 132.097C35.3136 142.01 -13.476 132.728 -15.097 122.946C-16.1875 116.203 -25.751 36.5701 -25.751 36.5701L-11.8878 -3.66654L6.44021 -4.96424C6.44021 -4.96424 39.0429 11.9061 80.1338 10.9645C77.6678 0.379149 69.3761 -3.21399 69.3761 -3.21399Z"></path>
  <clipPath id="cl_1e3">
    <path d="M303.618 56.8804C488.696 54.1401 433.779 277.514 433.779 277.514C416.808 306.347 379.518 315.825 379.518 315.825C371.146 310.888 365.34 295.28 365.34 295.28C365.34 295.28 356.483 311.507 333.237 330.154C237.436 351.066 138.641 333.2 135.184 313.458C132.856 299.848 112.058 139.052 112.058 139.052L139.341 57.4613L176.366 54.5007C176.366 54.5007 242.58 88.0028 325.625 85.3431C320.445 63.991 303.618 56.8804 303.618 56.8804Z"></path>
  </clipPath>
  <g clip-path="url(#cl_1e3)">
    <path fill="#686B77" transform="matrix(2.19915 -0.0200236 0.0185951 2.04226 278.024 197.985)" d="M-5.81434 -76.9003C-5.81434 -76.9003 -38.015 -34.4167 -37.875 19.4008C-37.7351 73.2184 27.8948 68.4574 27.8948 68.4574L-79.1489 92.4107L-83.3847 -74.5391L-5.81434 -76.9003Z"></path>
    <path fill="#BCBFC5" transform="matrix(2.56231 -0.0233303 0.0185951 2.04226 242.498 193.047)" d="M45.4521 -82.9725L93.7889 -50.8112C93.7889 -50.8112 78.8995 -3.97774 47.484 1.7428C16.0686 7.46333 -45.8161 -37.4435 -45.8161 -37.4435L-90.6289 -85.8936L45.4521 -82.9725Z"></path>
    <path fill="#DADDE0" transform="matrix(2.19915 -0.0200236 0.0185951 2.04226 311.594 44.0917)" d="M33.8967 14.5768L59.8776 19.1892C59.8776 19.1892 48.6614 51.4509 28.5602 52.2698C8.45895 53.0887 -29.101 32.4093 -29.101 32.4093C-29.101 32.4093 17.1176 36.5863 22.2728 36.8407C27.4281 37.0951 33.8967 14.5768 33.8967 14.5768Z"></path>
    <path fill="none" stroke="#494B53" stroke-width="1" stroke-linejoin="round" transform="matrix(2.2442 -0.0204338 0.0185951 2.04226 231.767 198.48)" d="M58.4224 51.3827C55.8381 58.882 52.6074 66.7625 48.6438 75.0256C14.6874 75.5411 -25.2378 65.559 -25.2378 65.559C-35.0409 44.0469 -33.6044 2.46701 -31.9519 -19.7982"></path>
    <path fill="none" stroke="#898FA2" stroke-width="1" stroke-linejoin="round" transform="matrix(2.2442 -0.0204338 0.0185951 2.04226 231.767 198.48)" d="M-52.5751 -90.6465C-52.5751 -90.6465 29.9049 -60.6268 29.9049 -60.6268C47.3302 -58.4002 82.3676 -22.6695 59.5994 47.8563"></path>
  </g>
  <defs>
    <linearGradient id="gradient_1" gradientUnits="userSpaceOnUse" x1="-60.30225" y1="-15.24908" x2="-29.287821" y2="-15.24908">
      <stop offset="0" stop-color="#42444C"></stop>
      <stop offset="0.99602401" stop-color="#161823"></stop>
      <stop offset="1" stop-color="black"></stop>
    </linearGradient>
  </defs>
  <path fill="url(#gradient_1)" transform="matrix(2.55062 -0.0232238 0.0184053 2.02142 283.246 193.711)" d="M-59.1504 -29.4358L-32.5504 -30.7818C-32.5504 -30.7818 -29.2878 -16.904 -29.2878 -16.904C-37.342 10.4732 -59.3233 2.22359 -60.3022 -21.2052C-60.3022 -21.2052 -59.1504 -29.4358 -59.1504 -29.4358Z"></path>
  <path fill="#999696" transform="matrix(2.02142 -0.0184053 0.0184053 2.02142 57.5045 128.952)" d="M-9.33073 1.7923C0.255683 -20.3552 11.318 -34.4995 42.2294 -37.4964C57.7294 -9.48986 69.6738 5.85638 69.6738 5.85638C69.6737 9.4091 68.001 11.4229 63.6402 11.4229C63.6402 11.4229 11.318 19.5229 -9.33073 1.7923Z"></path>
  <path fill="none" stroke="black" stroke-width="7" stroke-linejoin="round" transform="translate(256 256)" d="M-156.711 -102.379C-179.87 -104.839 -202.528 -110.78 -217.324 -123.253C-198.353 -168.199 -176.252 -196.994 -113.822 -203.621C-113.573 -203.18 -113.324 -202.741 -113.076 -202.304"></path>
  <path fill="#828594" transform="matrix(2.02142 -0.0184053 0.0184053 2.02142 57.5045 128.952)" d="M-9.33073 1.7923C0.255683 -20.3552 11.318 -34.4995 42.2294 -37.4964C57.7294 -9.48986 69.6738 5.85638 69.6738 5.85638C69.6737 9.4091 68.001 11.4229 63.6402 11.4229C63.6402 11.4229 11.318 19.5229 -9.33073 1.7923Z"></path>
  <clipPath id="cl_1e7">
    <path d="M38.6762 132.747C57.6467 87.801 79.7479 59.0058 142.178 52.3791C174.025 108.707 198.452 139.508 198.452 139.508C198.518 146.69 195.173 150.791 186.358 150.871C186.358 150.871 80.7422 168.208 38.6762 132.747Z"></path>
  </clipPath>
  <g clip-path="url(#cl_1e7)">
    <path fill="#686B77" transform="matrix(2.07696 -0.0189111 0.0184053 2.02142 61.9221 128.912)" d="M-18.5853 15.5755L-13.4615 -44.4622C-13.4615 -44.4622 70.2014 -44.8304 70.2014 -44.8304C29.0482 -45.0949 3.69741 17.5905 3.69741 17.5905L-18.5853 15.5755Z"></path>
  </g>
  <path fill="#42444C" transform="matrix(2.02142 -0.0184053 0.0184053 2.02142 57.5045 128.952)" d="M-7.3892 -2.74581C-7.3892 -2.74581 -3.91049 -12.6587 2.43462 -18.8153C16.915 -6.28383 67.6134 6.22991 67.6134 6.22991L66.536 9.4091C66.536 9.4091 3.07252 11.6987 -7.3892 -2.74581Z"></path>
  <path fill="#21232E" transform="matrix(1.98537 -0.0180771 0.0184053 2.02142 194.395 145.48)" d="M-1.90735e-06 -12C6.90356 -12 12.5 -6.62742 12.5 -3.8147e-06C12.5 6.62741 6.90356 12 -1.90735e-06 12C-6.90356 12 -12.5 6.62741 -12.5 -3.8147e-06C-12.5 -6.62742 -6.90356 -12 -1.90735e-06 -12Z"></path>
  <path fill="#7A7E92" transform="matrix(1.98537 -0.0180771 0.0184053 2.02142 200.37 147.447)" d="M0 -12C6.90356 -12 12.5 -6.62742 12.5 -3.8147e-06C12.5 6.62741 6.90356 12 0 12C-6.90356 12 -12.5 6.62741 -12.5 -3.8147e-06C-12.5 -6.62742 -6.90356 -12 0 -12Z"></path>
  <path fill="#A5A5A5" transform="matrix(1.71395 0 0 0.216632 270.629 476.155)" d="M-0.25 -88C55.945 -88 101.5 -48.6011 101.5 0C101.5 48.6011 55.945 88 -0.25 88C-56.445 88 -102 48.6011 -102 0C-102 -48.6011 -56.445 -88 -0.25 -88Z" style="mix-blend-mode: multiply"></path>
</svg>