<?xml version="1.0" encoding="utf-8"?>
<svg xmlns="http://www.w3.org/2000/svg" xmlns:xlink="http://www.w3.org/1999/xlink" width="512" height="512">
  <path fill="none" stroke="black" stroke-width="7" stroke-linejoin="round" transform="translate(256 256)" d="M186.022 -107.32C165.358 -151.513 142.179 -179.448 79.5423 -183.698C49.8576 -126.202 26.6183 -94.4945 26.6183 -94.4945C26.8258 -87.3156 30.3234 -83.3442 39.1351 -83.5988C39.1351 -83.5988 145.334 -70.2869 186.022 -107.32Z"></path>
  <path fill="#828594" transform="matrix(-2.02066 0.0583985 0.0583985 2.02066 423.063 145.603)" d="M-9.33073 1.7923C0.255675 -20.3552 11.318 -34.4995 42.2294 -37.4964C57.7294 -9.48986 69.6738 5.85638 69.6738 5.85638C69.6737 9.4091 68.001 11.4229 63.6402 11.4229C63.6402 11.4229 11.318 19.5229 -9.33073 1.7923Z"></path>
  <path fill="none" stroke="black" stroke-width="7" stroke-linejoin="round" transform="translate(256 256)" d="M177.719 -100.595C196.985 -38.4578 177.366 36.7143 177.366 36.7143C160.968 65.8775 131.601 75.8676 131.601 75.8676C123.133 71.0975 116.932 55.6101 116.932 55.6101C116.932 55.6101 108.439 72.0085 85.5669 91.1118C-9.8018 113.915 -112.354 98.1066 -116.201 78.436C-118.798 64.8748 -145.084 -95.4116 -145.084 -95.4116L-119.421 -177.526L-74.6483 -181.184"></path>
  <path fill="none" stroke="black" stroke-width="7" stroke-linejoin="round" transform="translate(256 256)" d="M62.175 -173.086C56.4926 -179.224 51.0097 -181.536 51.0097 -181.536C60.2332 -181.855 68.8511 -181.6 76.9008 -180.827"></path>
  <path fill="none" stroke="black" stroke-width="7" stroke-linejoin="round" transform="translate(256 256)" d="M-98.3516 -165.159C-76.3825 -201.917 52.2478 -181.392 52.2478 -181.392L55.1516 -180.732"></path>
  <defs>
    <linearGradient id="gradient_0" gradientUnits="userSpaceOnUse" x1="-10.499905" y1="-40.34568" x2="-3.0814617" y2="20.75737">
      <stop offset="0" stop-color="#A1A8AF"></stop>
      <stop offset="0.99830264" stop-color="#242B4A"></stop>
      <stop offset="1" stop-color="#000417"></stop>
    </linearGradient>
  </defs>
  <path fill="url(#gradient_0)" transform="matrix(1.76793 -0.0510948 0.0583989 2.02066 253.269 106.018)" d="M-53.7932 -8.87113C-40.7768 -26.7335 31.5848 -14.7462 31.5848 -14.7462L53.5854 -9.7764L68.6389 10.0869L-57 14.5C-57 14.5 -53.7932 -8.87113 -53.7932 -8.87113Z"></path>
  <path fill="#999CA8" transform="matrix(2.02066 -0.0583989 0.0583989 2.02066 160.815 85.1889)" d="M72.443 -3.21398C164.006 -3.73589 131.804 106.511 131.804 106.511C123.279 120.697 108.615 125.217 108.615 125.217C104.496 122.738 101.651 114.991 101.651 114.991C101.651 114.991 97.2169 122.978 85.6343 132.097C38.151 142.01 -12.3324 132.728 -13.9535 122.946C-15.044 116.203 -25.751 36.5701 -25.751 36.5701L-11.8878 -3.66653L12.7441 -4.96423C12.7441 -4.96423 41.6966 11.9061 82.7875 10.9645C80.3215 0.379157 72.443 -3.21398 72.443 -3.21398Z"></path>
  <clipPath id="cl_17f">
    <path d="M307.01 74.4639C491.997 68.0622 433.366 292.714 433.366 292.714C416.968 321.877 387.601 331.868 387.601 331.868C379.133 327.098 372.932 311.61 372.932 311.61C372.932 311.61 364.439 328.009 341.567 347.112C246.198 369.915 143.646 354.107 139.799 334.436C137.202 320.875 110.916 160.588 110.916 160.588L136.579 78.4743L186.276 74.4136C186.276 74.4136 245.765 106.812 328.74 102.51C323.139 81.2644 307.01 74.4639 307.01 74.4639Z"></path>
  </clipPath>
  <g clip-path="url(#cl_17f)">
    <path fill="#686B77" transform="matrix(2.19833 -0.0635336 0.059001 2.0415 286.443 215.983)" d="M-5.81433 -76.9003C-5.81433 -76.9003 -38.015 -34.4167 -37.875 19.4008C-37.7351 73.2184 27.8948 68.4574 27.8948 68.4574L-79.1489 92.4107L-83.3847 -74.5391L-5.81433 -76.9003Z"></path>
    <path fill="#BCBFC5" transform="matrix(2.56135 -0.0740253 0.059001 2.0415 248.365 203.562)" d="M45.4521 -82.9725L93.7889 -50.8112C93.7889 -50.8112 78.8995 -3.97775 47.484 1.74279C16.0686 7.46333 -45.8161 -37.4435 -45.8161 -37.4435L-90.6289 -85.8936L45.4521 -82.9725Z"></path>
    <path fill="#DADDE0" transform="matrix(2.19833 -0.0635336 0.059001 2.0415 314.511 53.6774)" d="M33.8967 14.5768L59.8776 19.1892C59.8776 19.1892 48.6614 51.4509 28.5602 52.2698C8.45895 53.0887 -29.101 32.4092 -29.101 32.4092C-29.101 32.4092 17.1176 36.5863 22.2728 36.8407C27.4281 37.0951 33.8967 14.5768 33.8967 14.5768Z"></path>
    <path fill="none" stroke="#494B53" stroke-width="1" stroke-linejoin="round" transform="matrix(2.24336 -0.0648349 0.059001 2.0415 237.981 217.457)" d="M58.1256 51.2082C55.5348 58.7132 52.2983 66.6013 48.33 74.8743C14.3736 75.3898 -25.2378 65.559 -25.2378 65.559C-35.0531 44.0203 -33.6008 2.36403 -31.9457 -19.8808"></path>
    <path fill="none" stroke="#898FA2" stroke-width="1" stroke-linejoin="round" transform="matrix(2.24336 -0.0648349 0.059001 2.0415 237.981 217.457)" d="M-52.5751 -90.6465C-52.5751 -90.6465 29.9049 -60.6268 29.9049 -60.6268C47.3284 -58.4004 82.1104 -22.7976 59.3032 47.6871"></path>
  </g>
  <defs>
    <linearGradient id="gradient_1" gradientUnits="userSpaceOnUse" x1="-60.30225" y1="-15.24908" x2="-29.287821" y2="-15.24908">
      <stop offset="0" stop-color="#42444C"></stop>
      <stop offset="0.99602401" stop-color="#161823"></stop>
      <stop offset="1" stop-color="black"></stop>
    </linearGradient>
  </defs>
  <path fill="url(#gradient_1)" transform="matrix(2.54967 -0.0736876 0.0583989 2.02066 290.365 211.641)" d="M-59.1504 -29.4358L-32.5504 -30.7818C-32.5504 -30.7818 -29.2878 -16.904 -29.2878 -16.904C-37.342 10.4732 -59.3233 2.22359 -60.3022 -21.2052C-60.3022 -21.2052 -59.1504 -29.4358 -59.1504 -29.4358Z"></path>
  <path fill="#999696" transform="matrix(2.02066 -0.0583989 0.0583989 2.02066 56.1734 151.571)" d="M-9.33073 1.7923C0.255675 -20.3552 11.318 -34.4995 42.2294 -37.4964C57.7294 -9.48986 69.6738 5.85638 69.6738 5.85638C69.6737 9.4091 68.001 11.4229 63.6402 11.4229C63.6402 11.4229 11.318 19.5229 -9.33073 1.7923Z"></path>
  <path fill="none" stroke="black" stroke-width="7" stroke-linejoin="round" transform="translate(256 256)" d="M-161.324 -80.948C-183.207 -83.2078 -204.35 -88.7443 -218.576 -100.263C-200.499 -145.575 -178.972 -174.802 -116.685 -182.663C-116.427 -182.227 -116.17 -181.793 -115.913 -181.361"></path>
  <path fill="#828594" transform="matrix(2.02066 -0.0583989 0.0583989 2.02066 56.1734 151.571)" d="M-9.33073 1.7923C0.255675 -20.3552 11.318 -34.4995 42.2294 -37.4964C57.7294 -9.48986 69.6738 5.85638 69.6738 5.85638C69.6737 9.4091 68.001 11.4229 63.6402 11.4229C63.6402 11.4229 11.318 19.5229 -9.33073 1.7923Z"></path>
  <clipPath id="cl_183">
    <path d="M37.4238 155.737C55.5013 110.425 77.0284 81.1978 139.315 73.337C172.271 129.023 197.302 159.335 197.302 159.335C197.51 166.514 194.247 170.681 185.436 170.936C185.436 170.936 80.1832 190.359 37.4238 155.737Z"></path>
  </clipPath>
  <g clip-path="url(#cl_183)">
    <path fill="#686B77" transform="matrix(2.07618 -0.0600035 0.0583989 2.02066 67.5174 151.243)" d="M-18.5853 15.5755L-13.4615 -44.4622C-13.4615 -44.4622 70.2014 -44.8305 70.2014 -44.8305C29.0482 -45.0949 3.69742 17.5905 3.69742 17.5905L-18.5853 15.5755Z"></path>
  </g>
  <path fill="#42444C" transform="matrix(2.02066 -0.0583989 0.0583989 2.02066 56.1734 151.571)" d="M-7.3892 -2.74581C-7.3892 -2.74581 -3.9105 -12.6587 2.43461 -18.8153C16.915 -6.28383 67.6134 6.22991 67.6134 6.22991L66.536 9.4091C66.536 9.4091 3.07251 11.6987 -7.3892 -2.74581Z"></path>
  <path fill="#21232E" transform="matrix(1.92809 -0.0557234 0.0583989 2.02066 193.449 165.384)" d="M-1.9297e-06 -12C6.90356 -12 12.5 -6.62743 12.5 -7.65268e-06C12.5 6.62741 6.90356 12 -1.885e-06 12C-6.90356 12 -12.5 6.62741 -12.5 -7.60611e-06C-12.5 -6.62743 -6.90356 -12 -1.9297e-06 -12Z"></path>
  <path fill="#7A7E92" transform="matrix(1.92809 -0.0557234 0.0583989 2.02066 199.292 167.238)" d="M-2.23517e-08 -12C6.90356 -12 12.5 -6.62742 12.5 -3.83798e-06C12.5 6.62741 6.90356 12 2.23517e-08 12C-6.90356 12 -12.5 6.62741 -12.5 -3.79141e-06C-12.5 -6.62742 -6.90356 -12 -2.23517e-08 -12Z"></path>
  <path fill="#A5A5A5" transform="matrix(1.71395 0 0 0.257038 270.629 475.226)" d="M-0.249999 -88C55.945 -88 101.5 -48.6011 101.5 0C101.5 48.6011 55.945 88 -0.249999 88C-56.445 88 -102 48.6011 -102 0C-102 -48.6011 -56.445 -88 -0.249999 -88Z" style="mix-blend-mode: multiply"></path>
</svg>