<?xml version="1.0" encoding="utf-8"?>
<svg xmlns="http://www.w3.org/2000/svg" xmlns:xlink="http://www.w3.org/1999/xlink" width="512" height="512">
  <path fill="none" stroke="black" stroke-width="7" stroke-linejoin="round" transform="translate(256 256)" d="M187.7 -111.594C167.371 -155.942 144.404 -184.052 81.8014 -188.776C51.6823 -131.506 28.2035 -99.9754 28.2035 -99.9754C28.3567 -92.7952 31.8241 -88.7973 40.6375 -88.9853C40.6375 -88.9853 146.732 -74.8697 187.7 -111.594Z"></path>
  <path fill="#828594" transform="matrix(-2.02104 0.0430989 0.0430989 2.02104 424.765 141.186)" d="M-9.33073 1.7923C0.255675 -20.3552 11.318 -34.4995 42.2294 -37.4963C57.7294 -9.48985 69.6738 5.85638 69.6738 5.85638C69.6737 9.40911 68.001 11.4229 63.6402 11.4229C63.6402 11.4229 11.318 19.5229 -9.33073 1.7923Z"></path>
  <path fill="none" stroke="black" stroke-width="7" stroke-linejoin="round" transform="translate(256 256)" d="M177.478 -104.136C196.583 -42.0193 177.379 32.3832 177.379 32.3832C160.761 61.4213 128.971 71.239 128.971 71.239C120.539 66.4049 114.482 50.8704 114.482 50.8704C114.482 50.8704 105.852 67.2043 82.8365 86.1339C-12.7021 108.214 -114.091 91.6078 -117.789 71.9087C-120.284 58.3282 -144.653 -102.168 -144.653 -102.168L-118.369 -184.085L-75.1252 -187.482"></path>
  <path fill="none" stroke="black" stroke-width="7" stroke-linejoin="round" transform="translate(256 256)" d="M61.3783 -178.325C55.7003 -184.437 50.2035 -186.765 50.2035 -186.765C60.6647 -187.048 70.3494 -186.598 79.3121 -185.498"></path>
  <path fill="none" stroke="black" stroke-width="7" stroke-linejoin="round" transform="translate(256 256)" d="M-101.108 -171.479C-78.2771 -208.083 51.6812 -186.617 51.6812 -186.617L55.8742 -185.7"></path>
  <defs>
    <linearGradient id="gradient_0" gradientUnits="userSpaceOnUse" x1="-10.499905" y1="-40.34568" x2="-3.0814617" y2="20.75737">
      <stop offset="0" stop-color="#A1A8AF"></stop>
      <stop offset="0.99830264" stop-color="#242B4A"></stop>
      <stop offset="1" stop-color="#000417"></stop>
    </linearGradient>
  </defs>
  <path fill="url(#gradient_0)" transform="matrix(1.81315 -0.0386659 0.0430992 2.02104 252.81 100.37)" d="M-53.7932 -8.87111C-40.7768 -26.7335 30.6135 -14.7462 30.6135 -14.7462L53.5854 -9.77637L68.6389 10.0869L-57 14.5C-57 14.5 -53.7932 -8.87111 -53.7932 -8.87111Z"></path>
  <path fill="#999CA8" transform="matrix(2.02104 -0.0430992 0.0430992 2.02104 161.815 78.8129)" d="M71.5112 -3.21399C163.074 -3.7359 132.097 106.511 132.097 106.511C123.572 120.697 107.746 125.217 107.746 125.217C103.627 122.738 100.795 114.991 100.795 114.991C100.795 114.991 96.3548 122.978 84.7722 132.097C37.2889 142.01 -12.6799 132.728 -14.3009 122.946C-15.3914 116.203 -25.751 36.5701 -25.751 36.5701L-11.8878 -3.66654L10.8288 -4.96424C10.8288 -4.96424 40.8903 11.9061 81.9812 10.9645C79.5152 0.379149 71.5112 -3.21399 71.5112 -3.21399Z"></path>
  <clipPath id="cl_1a2">
    <path d="M306.204 69.2352C491.234 64.2341 433.379 288.383 433.379 288.383C416.761 317.421 384.971 327.239 384.971 327.239C376.539 322.405 370.482 306.87 370.482 306.87C370.482 306.87 361.852 323.204 338.836 342.134C243.298 364.214 141.909 347.608 138.211 327.909C135.716 314.328 111.347 153.833 111.347 153.833L137.631 71.9151L183.486 68.3133C183.486 68.3133 244.969 101.113 327.975 97.4394C322.535 76.1522 306.204 69.2352 306.204 69.2352Z"></path>
  </clipPath>
  <g clip-path="url(#cl_1a2)">
    <path fill="#686B77" transform="matrix(2.19874 -0.0468886 0.0435436 2.04188 283.889 210.609)" d="M-5.81433 -76.9002C-5.81433 -76.9002 -38.015 -34.4167 -37.875 19.4008C-37.7351 73.2184 27.8948 68.4574 27.8948 68.4574L-79.1489 92.4107L-83.3846 -74.5391L-5.81433 -76.9002Z"></path>
    <path fill="#BCBFC5" transform="matrix(2.56184 -0.0546317 0.0435436 2.04188 246.634 200.393)" d="M45.4521 -82.9725L93.7889 -50.8112C93.7889 -50.8112 78.8995 -3.97774 47.484 1.7428C16.0686 7.46334 -45.8161 -37.4435 -45.8161 -37.4435L-90.6289 -85.8936L45.4521 -82.9725Z"></path>
    <path fill="#DADDE0" transform="matrix(2.19874 -0.0468886 0.0435436 2.04188 313.911 50.8894)" d="M33.8967 14.5768L59.8776 19.1892C59.8776 19.1892 48.6614 51.4509 28.5602 52.2698C8.45895 53.0887 -29.101 32.4093 -29.101 32.4093C-29.101 32.4093 17.1176 36.5863 22.2728 36.8407C27.4281 37.0951 33.8967 14.5768 33.8967 14.5768Z"></path>
    <path fill="none" stroke="#494B53" stroke-width="1" stroke-linejoin="round" transform="matrix(2.24378 -0.0478491 0.0435436 2.04188 236.092 211.701)" d="M58.2158 51.2612C55.6269 58.7645 52.3922 66.6503 48.4253 74.9203C14.4689 75.4358 -25.2378 65.559 -25.2378 65.559C-35.0494 44.0284 -33.6019 2.3953 -31.9476 -19.8558"></path>
    <path fill="none" stroke="#898FA2" stroke-width="1" stroke-linejoin="round" transform="matrix(2.24378 -0.0478491 0.0435436 2.04188 236.092 211.701)" d="M-52.5751 -90.6465C-52.5751 -90.6465 29.9049 -60.6268 29.9049 -60.6268C47.3289 -58.4004 82.1886 -22.7587 59.3932 47.7386"></path>
  </g>
  <defs>
    <linearGradient id="gradient_1" gradientUnits="userSpaceOnUse" x1="-60.30225" y1="-15.24908" x2="-29.287821" y2="-15.24908">
      <stop offset="0" stop-color="#42444C"></stop>
      <stop offset="0.99602401" stop-color="#161823"></stop>
      <stop offset="1" stop-color="black"></stop>
    </linearGradient>
  </defs>
  <path fill="url(#gradient_1)" transform="matrix(2.55015 -0.0543825 0.0430992 2.02104 288.212 206.289)" d="M-59.1504 -29.4358L-32.5504 -30.7818C-32.5504 -30.7818 -29.2878 -16.904 -29.2878 -16.904C-37.342 10.4732 -59.3233 2.22359 -60.3022 -21.2052C-60.3022 -21.2052 -59.1504 -29.4358 -59.1504 -29.4358Z"></path>
  <path fill="#999696" transform="matrix(2.02104 -0.0430992 0.0430992 2.02104 56.674 144.4)" d="M-9.33072 1.7923C0.255683 -20.3552 11.318 -34.4995 42.2294 -37.4963C57.7294 -9.48986 69.6738 5.85638 69.6738 5.85638C69.6737 9.4091 68.001 11.4229 63.6402 11.4229C63.6402 11.4229 11.318 19.5229 -9.33072 1.7923Z"></path>
  <path fill="none" stroke="black" stroke-width="7" stroke-linejoin="round" transform="translate(256 256)" d="M-159.861 -87.7038C-182.132 -90.0565 -203.723 -95.7471 -218.107 -107.575C-199.687 -152.749 -177.939 -181.812 -115.595 -189.201C-115.34 -188.764 -115.086 -188.328 -114.832 -187.893"></path>
  <path fill="#828594" transform="matrix(2.02104 -0.0430992 0.0430992 2.02104 56.674 144.4)" d="M-9.33072 1.7923C0.255683 -20.3552 11.318 -34.4995 42.2294 -37.4963C57.7294 -9.48986 69.6738 5.85638 69.6738 5.85638C69.6737 9.4091 68.001 11.4229 63.6402 11.4229C63.6402 11.4229 11.318 19.5229 -9.33072 1.7923Z"></path>
  <clipPath id="cl_1a6">
    <path d="M37.8934 148.425C56.3134 103.251 78.0611 74.1876 140.405 66.7986C172.939 122.733 197.74 153.234 197.74 153.234C197.893 160.414 194.599 164.556 185.786 164.744C185.786 164.744 80.3895 183.369 37.8934 148.425Z"></path>
  </clipPath>
  <g clip-path="url(#cl_1a6)">
    <path fill="#686B77" transform="matrix(2.07658 -0.0442834 0.0430992 2.02104 65.9147 144.203)" d="M-18.5853 15.5755L-13.4615 -44.4622C-13.4615 -44.4622 70.2014 -44.8304 70.2014 -44.8304C29.0482 -45.0949 3.69742 17.5905 3.69742 17.5905L-18.5853 15.5755Z"></path>
  </g>
  <path fill="#42444C" transform="matrix(2.02104 -0.0430992 0.0430992 2.02104 56.674 144.4)" d="M-7.38919 -2.74581C-7.38919 -2.74581 -3.91049 -12.6587 2.43462 -18.8153C16.915 -6.28383 67.6134 6.22991 67.6134 6.22991L66.536 9.4091C66.536 9.4091 3.07252 11.6987 -7.38919 -2.74581Z"></path>
  <path fill="#21232E" transform="matrix(1.94564 -0.0414911 0.0430992 2.02104 193.816 159.254)" d="M-1.90735e-06 -12C6.90356 -12 12.5 -6.62742 12.5 -3.83798e-06C12.5 6.62741 6.90356 12 -1.90735e-06 12C-6.90356 12 -12.5 6.62741 -12.5 -3.79141e-06C-12.5 -6.62742 -6.90356 -12 -1.90735e-06 -12Z"></path>
  <path fill="#7A7E92" transform="matrix(1.94564 -0.0414911 0.0430992 2.02104 199.696 161.15)" d="M0 -12C6.90356 -12 12.5 -6.62742 12.5 -3.83798e-06C12.5 6.62741 6.90356 12 0 12C-6.90356 12 -12.5 6.62741 -12.5 -3.79141e-06C-12.5 -6.62742 -6.90356 -12 0 -12Z"></path>
  <path fill="#A5A5A5" transform="matrix(1.71395 0 0 0.244761 270.629 475.508)" d="M-0.249999 -88C55.945 -88 101.5 -48.6011 101.5 0C101.5 48.6011 55.945 88 -0.249999 88C-56.445 88 -102 48.6011 -102 0C-102 -48.6011 -56.445 -88 -0.249999 -88Z" style="mix-blend-mode: multiply"></path>
</svg>