<?xml version="1.0" encoding="utf-8"?>
<svg xmlns="http://www.w3.org/2000/svg" xmlns:xlink="http://www.w3.org/1999/xlink" width="512" height="512">
  <path fill="none" stroke="black" stroke-width="7" stroke-linejoin="round" transform="translate(256 256)" d="M193.463 -132.198C173.798 -176.845 151.253 -205.294 88.7283 -210.952C57.7575 -154.138 33.8108 -122.962 33.8108 -122.962C33.8568 -115.78 37.2641 -111.731 46.0793 -111.787C46.0793 -111.787 151.951 -96.0894 193.463 -132.198Z"></path>
  <path fill="#828594" transform="matrix(-2.02146 0.0129237 0.0129237 2.02146 430.578 120.299)" d="M-9.33073 1.7923C0.255675 -20.3552 11.318 -34.4995 42.2294 -37.4963C57.7294 -9.48985 69.6738 5.85638 69.6738 5.85638C69.6737 9.40911 68.001 11.4229 63.6402 11.4229C63.6402 11.4229 11.318 19.5229 -9.33073 1.7923Z"></path>
  <path fill="none" stroke="black" stroke-width="7" stroke-linejoin="round" transform="translate(256 256)" d="M175.546 -121.764C195.026 -60.0546 178.636 11.6241 178.636 11.6241C161.587 40.411 120.015 49.8146 120.015 49.8146C111.656 44.8552 105.941 29.2313 105.941 29.2313C105.941 29.2313 97.0172 45.4349 73.7213 64.0188C-22.1363 84.6704 -118.998 66.5251 -122.401 46.7729C-124.692 33.1567 -143.781 -127.703 -143.781 -127.703L-116.277 -209.219L-86.2603 -212.035C-86.2603 -212.035 -84.0877 -210.993 -80.0547 -209.289"></path>
  <path fill="none" stroke="black" stroke-width="7" stroke-linejoin="round" transform="translate(256 256)" d="M55.9303 -201.095C50.1714 -207.02 44.5875 -209.333 44.5875 -209.333C60.078 -209.52 73.9145 -208.129 86.2654 -205.421"></path>
  <path fill="none" stroke="black" stroke-width="7" stroke-linejoin="round" transform="translate(256 256)" d="M-114.449 -196.26C-88.6761 -232.534 46.1371 -209.163 46.1371 -209.163L56.6233 -207.277"></path>
  <defs>
    <linearGradient id="gradient_0" gradientUnits="userSpaceOnUse" x1="-10.499905" y1="-40.34568" x2="-3.0814617" y2="20.75737">
      <stop offset="0" stop-color="#A1A8AF"></stop>
      <stop offset="0.99830264" stop-color="#242B4A"></stop>
      <stop offset="1" stop-color="#000417"></stop>
    </linearGradient>
  </defs>
  <path fill="url(#gradient_0)" transform="matrix(1.99775 -0.0127724 0.012924 2.02146 249.131 76.9855)" d="M-53.7932 -8.87113C-40.7768 -26.7335 26.6281 -14.7462 26.6281 -14.7462L53.5854 -9.7764L68.6389 10.0869L-57 14.5C-57 14.5 -53.7932 -8.87113 -53.7932 -8.87113Z"></path>
  <path fill="#999CA8" transform="matrix(2.02146 -0.012924 0.012924 2.02146 163.801 54.0388)" d="M67.6876 -3.21399C159.251 -3.7359 133.299 106.511 133.299 106.511C124.774 120.697 104.18 125.217 104.18 125.217C100.061 122.738 97.283 114.991 97.283 114.991C97.283 114.991 92.8174 122.978 81.2348 132.097C33.7515 142.01 -14.1056 132.728 -15.7266 122.946C-16.8171 116.203 -25.751 36.5701 -25.751 36.5701L-11.8878 -3.66654L2.96958 -4.96424C2.96958 -4.96424 37.5819 11.9061 78.6728 10.9645C76.2068 0.379149 67.6876 -3.21399 67.6876 -3.21399Z"></path>
  <clipPath id="cl_30">
    <path d="M300.587 46.6671C485.672 44.4287 434.636 267.624 434.636 267.624C417.587 296.411 376.015 305.815 376.015 305.815C367.656 300.855 361.941 285.231 361.941 285.231C361.941 285.231 353.017 301.435 329.721 320.019C233.864 340.67 137.002 322.525 133.599 302.773C131.308 289.157 112.219 128.297 112.219 128.297L139.723 46.7807L169.74 43.9654C169.74 43.9654 239.925 77.6209 322.977 75.1865C317.855 53.8204 300.587 46.6671 300.587 46.6671Z"></path>
  </clipPath>
  <g clip-path="url(#cl_30)">
    <path fill="#686B77" transform="matrix(2.1992 -0.0140604 0.0130573 2.04231 273.383 187.71)" d="M-5.81434 -76.9003C-5.81434 -76.9003 -38.015 -34.4167 -37.875 19.4009C-37.7351 73.2184 27.8948 68.4574 27.8948 68.4574L-79.1489 92.4107L-83.3847 -74.5391L-5.81434 -76.9003Z"></path>
    <path fill="#BCBFC5" transform="matrix(2.56237 -0.0163823 0.0130573 2.04231 239.124 187.212)" d="M45.4521 -82.9725L93.7889 -50.8112C93.7889 -50.8112 78.8995 -3.97774 47.484 1.7428C16.0686 7.46334 -45.8161 -37.4435 -45.8161 -37.4435L-90.6289 -85.8936L45.4521 -82.9725Z"></path>
    <path fill="#DADDE0" transform="matrix(2.1992 -0.0140604 0.0130573 2.04231 308.622 38.2194)" d="M33.8967 14.5768L59.8776 19.1892C59.8776 19.1892 48.6614 51.4509 28.5602 52.2698C8.45894 53.0887 -29.101 32.4093 -29.101 32.4093C-29.101 32.4093 17.1176 36.5863 22.2728 36.8407C27.4281 37.0951 33.8967 14.5768 33.8967 14.5768Z"></path>
    <path fill="none" stroke="#494B53" stroke-width="1" stroke-linejoin="round" transform="matrix(2.24425 -0.0143484 0.0130573 2.04231 228.349 188.071)" d="M58.5859 51.4786C56.0051 58.9749 52.7775 66.8512 48.8166 75.1089C14.8601 75.6244 -25.2378 65.559 -25.2378 65.559C-35.0342 44.0616 -33.6064 2.52373 -31.9553 -19.7526"></path>
    <path fill="none" stroke="#898FA2" stroke-width="1" stroke-linejoin="round" transform="matrix(2.24425 -0.0143484 0.0130573 2.04231 228.349 188.071)" d="M-52.5751 -90.6465C-52.5751 -90.6465 29.9049 -60.6268 29.9049 -60.6268C47.3313 -58.4001 82.5092 -22.5991 59.7625 47.9494"></path>
  </g>
  <defs>
    <linearGradient id="gradient_1" gradientUnits="userSpaceOnUse" x1="-60.30225" y1="-15.24908" x2="-29.287821" y2="-15.24908">
      <stop offset="0" stop-color="#42444C"></stop>
      <stop offset="0.99602401" stop-color="#161823"></stop>
      <stop offset="1" stop-color="black"></stop>
    </linearGradient>
  </defs>
  <path fill="url(#gradient_1)" transform="matrix(2.55068 -0.0163075 0.012924 2.02146 279.286 183.445)" d="M-59.1504 -29.4358L-32.5504 -30.7818C-32.5504 -30.7818 -29.2878 -16.904 -29.2878 -16.904C-37.342 10.4732 -59.3233 2.22359 -60.3022 -21.2052C-60.3022 -21.2052 -59.1504 -29.4358 -59.1504 -29.4358Z"></path>
  <path fill="#999696" transform="matrix(2.02146 -0.012924 0.012924 2.02146 57.6927 118.049)" d="M-9.33073 1.7923C0.255675 -20.3552 11.318 -34.4995 42.2294 -37.4964C57.7294 -9.48986 69.6738 5.85638 69.6738 5.85638C69.6737 9.4091 68.001 11.4229 63.6402 11.4229C63.6402 11.4229 11.318 19.5229 -9.33073 1.7923Z"></path>
  <path fill="none" stroke="black" stroke-width="7" stroke-linejoin="round" transform="translate(256 256)" d="M-154.52 -112.952C-178.386 -115.34 -201.944 -121.321 -217.146 -134.207C-198.054 -179.101 -175.874 -207.836 -113.427 -214.294C-113.179 -213.852 -112.931 -213.413 -112.684 -212.974"></path>
  <path fill="#828594" transform="matrix(2.02146 -0.012924 0.012924 2.02146 57.6927 118.049)" d="M-9.33073 1.7923C0.255675 -20.3552 11.318 -34.4995 42.2294 -37.4964C57.7294 -9.48986 69.6738 5.85638 69.6738 5.85638C69.6737 9.4091 68.001 11.4229 63.6402 11.4229C63.6402 11.4229 11.318 19.5229 -9.33073 1.7923Z"></path>
  <clipPath id="cl_34">
    <path d="M38.8542 121.793C57.9465 76.8988 80.1257 48.1637 142.573 41.7062C174.268 98.12 198.611 128.987 198.611 128.987C198.657 136.169 195.302 140.262 186.487 140.318C186.487 140.318 80.8239 157.368 38.8542 121.793Z"></path>
  </clipPath>
  <g clip-path="url(#cl_34)">
    <path fill="#686B77" transform="matrix(2.07701 -0.0132791 0.012924 2.02146 58.2945 118.046)" d="M-18.5853 15.5755L-13.4615 -44.4622C-13.4615 -44.4622 70.2014 -44.8305 70.2014 -44.8305C29.0482 -45.0949 3.69742 17.5905 3.69742 17.5905L-18.5853 15.5755Z"></path>
  </g>
  <path fill="#42444C" transform="matrix(2.02146 -0.012924 0.012924 2.02146 57.6927 118.049)" d="M-7.3892 -2.74581C-7.3892 -2.74581 -3.9105 -12.6587 2.43461 -18.8153C16.915 -6.28383 67.6134 6.22991 67.6134 6.22991L66.536 9.4091C66.536 9.4091 3.07251 11.6987 -7.3892 -2.74581Z"></path>
  <path fill="#21232E" transform="matrix(2.01655 -0.0128926 0.012924 2.02146 194.492 134.949)" d="M0 -12C6.90356 -12 12.5 -6.62742 12.5 0C12.5 6.62742 6.90356 12 0 12C-6.90356 12 -12.5 6.62742 -12.5 0C-12.5 -6.62742 -6.90356 -12 0 -12Z"></path>
  <path fill="#7A7E92" transform="matrix(2.01655 -0.0128926 0.012924 2.02146 200.554 136.932)" d="M1.90735e-06 -12C6.90356 -12 12.5 -6.62742 12.5 0C12.5 6.62742 6.90356 12 1.90735e-06 12C-6.90356 12 -12.5 6.62742 -12.5 0C-12.5 -6.62742 -6.90356 -12 1.90735e-06 -12Z"></path>
  <path fill="#A5A5A5" transform="matrix(1.71395 0 0 0.194387 270.629 476.667)" d="M-0.249999 -88C55.945 -88 101.5 -48.6011 101.5 0C101.5 48.6011 55.945 88 -0.249999 88C-56.445 88 -102 48.6011 -102 0C-102 -48.6011 -56.445 -88 -0.249999 -88Z" style="mix-blend-mode: multiply"></path>
</svg>