<?xml version="1.0" encoding="utf-8"?>
<svg xmlns="http://www.w3.org/2000/svg" xmlns:xlink="http://www.w3.org/1999/xlink" width="512" height="512">
  <path fill="none" stroke="black" stroke-width="7" stroke-linejoin="round" transform="translate(256 256)" d="M187.187 -110.192C166.762 -154.496 143.735 -182.556 81.1227 -187.147C51.1264 -129.812 27.7154 -98.2312 27.7154 -98.2312C27.884 -91.0513 31.36 -87.061 40.1729 -87.2678C40.1729 -87.2678 146.298 -73.3799 187.187 -110.192Z"></path>
  <path fill="#828594" transform="matrix(-2.02095 0.0474342 0.0474342 2.02095 424.245 142.628)" d="M-9.33073 1.7923C0.255675 -20.3552 11.318 -34.4995 42.2294 -37.4963C57.7294 -9.48986 69.6737 5.85638 69.6737 5.85638C69.6737 9.4091 68.001 11.4229 63.6402 11.4229C63.6402 11.4229 11.318 19.5229 -9.33073 1.7923Z"></path>
  <path fill="none" stroke="black" stroke-width="7" stroke-linejoin="round" transform="translate(256 256)" d="M177.57 -102.966C196.711 -40.8379 177.356 33.8028 177.356 33.8028C160.801 62.8765 129.776 72.7449 129.776 72.7449C121.334 67.9289 115.235 52.4076 115.235 52.4076C115.235 52.4076 106.644 68.7599 83.6692 87.7388C-11.8218 110.024 -113.576 93.6429 -117.316 73.9518C-119.84 60.3767 -144.776 -100.061 -144.776 -100.061L-118.668 -182.035L-74.9368 -185.499"></path>
  <path fill="none" stroke="black" stroke-width="7" stroke-linejoin="round" transform="translate(256 256)" d="M61.6651 -176.645C55.9874 -182.766 50.4956 -185.09 50.4956 -185.09C60.565 -185.384 69.9142 -184.998 78.5917 -184.004"></path>
  <path fill="none" stroke="black" stroke-width="7" stroke-linejoin="round" transform="translate(256 256)" d="M-100.203 -169.494C-77.6356 -206.142 51.9067 -184.944 51.9067 -184.944L55.6783 -184.108"></path>
  <defs>
    <linearGradient id="gradient_0" gradientUnits="userSpaceOnUse" x1="-10.499905" y1="-40.34568" x2="-3.0814617" y2="20.75737">
      <stop offset="0" stop-color="#A1A8AF"></stop>
      <stop offset="0.99830264" stop-color="#242B4A"></stop>
      <stop offset="1" stop-color="#000417"></stop>
    </linearGradient>
  </defs>
  <path fill="url(#gradient_0)" transform="matrix(1.79884 -0.0422214 0.0474345 2.02095 252.984 102.163)" d="M-53.7932 -8.87113C-40.7768 -26.7335 30.9213 -14.7462 30.9213 -14.7462L53.5854 -9.77639L68.6389 10.0869L-57 14.5C-57 14.5 -53.7932 -8.87113 -53.7932 -8.87113Z"></path>
  <path fill="#999CA8" transform="matrix(2.02095 -0.0474345 0.0474345 2.02095 161.531 80.8111)" d="M71.8064 -3.21399C163.37 -3.7359 132.004 106.511 132.004 106.511C123.479 120.697 108.021 125.217 108.021 125.217C103.902 122.738 101.066 114.991 101.066 114.991C101.066 114.991 96.628 122.978 85.0454 132.097C37.5621 142.01 -12.5698 132.728 -14.1908 122.946C-15.2813 116.203 -25.751 36.5701 -25.751 36.5701L-11.8878 -3.66654L11.4357 -4.96424C11.4357 -4.96424 41.1458 11.9061 82.2367 10.9645C79.7707 0.379149 71.8064 -3.21399 71.8064 -3.21399Z"></path>
  <clipPath id="cl_198">
    <path d="M306.496 70.9097C491.515 65.5117 433.356 289.803 433.356 289.803C416.801 318.877 385.776 328.745 385.776 328.745C377.334 323.929 371.235 308.408 371.235 308.408C371.235 308.408 362.644 324.76 339.669 343.739C244.178 366.024 142.424 349.643 138.684 329.952C136.16 316.377 111.224 155.939 111.224 155.939L137.332 73.9651L184.406 70.2362C184.406 70.2362 245.249 102.921 328.247 99.069C322.761 77.7935 306.496 70.9097 306.496 70.9097Z"></path>
  </clipPath>
  <g clip-path="url(#cl_198)">
    <path fill="#686B77" transform="matrix(2.19864 -0.0516052 0.0479236 2.04179 284.699 212.326)" d="M-5.81433 -76.9003C-5.81433 -76.9003 -38.015 -34.4167 -37.875 19.4009C-37.7351 73.2184 27.8948 68.4574 27.8948 68.4574L-79.1489 92.4107L-83.3847 -74.5391L-5.81433 -76.9003Z"></path>
    <path fill="#BCBFC5" transform="matrix(2.56171 -0.0601271 0.0479236 2.04179 247.19 201.4)" d="M45.4521 -82.9725L93.7889 -50.8112C93.7889 -50.8112 78.8995 -3.97774 47.484 1.7428C16.0686 7.46334 -45.8161 -37.4435 -45.8161 -37.4435L-90.6289 -85.8936L45.4521 -82.9725Z"></path>
    <path fill="#DADDE0" transform="matrix(2.19864 -0.0516052 0.0479236 2.04179 314.147 51.7922)" d="M33.8967 14.5768L59.8776 19.1892C59.8776 19.1892 48.6614 51.4509 28.5602 52.2698C8.45895 53.0887 -29.101 32.4093 -29.101 32.4093C-29.101 32.4093 17.1176 36.5863 22.2728 36.8407C27.4281 37.0951 33.8967 14.5768 33.8967 14.5768Z"></path>
    <path fill="none" stroke="#494B53" stroke-width="1" stroke-linejoin="round" transform="matrix(2.24367 -0.0526622 0.0479236 2.04179 236.691 213.526)" d="M58.1872 51.2444C55.5977 58.7483 52.3624 66.6348 48.3951 74.9057C14.4387 75.4212 -25.2378 65.559 -25.2378 65.559C-35.0505 44.0258 -33.6016 2.3854 -31.947 -19.8637"></path>
    <path fill="none" stroke="#898FA2" stroke-width="1" stroke-linejoin="round" transform="matrix(2.24367 -0.0526622 0.0479236 2.04179 236.691 213.526)" d="M-52.5751 -90.6465C-52.5751 -90.6465 29.9049 -60.6268 29.9049 -60.6268C47.3288 -58.4004 82.1638 -22.771 59.3646 47.7222"></path>
  </g>
  <defs>
    <linearGradient id="gradient_1" gradientUnits="userSpaceOnUse" x1="-60.30225" y1="-15.24908" x2="-29.287821" y2="-15.24908">
      <stop offset="0" stop-color="#42444C"></stop>
      <stop offset="0.99602401" stop-color="#161823"></stop>
      <stop offset="1" stop-color="black"></stop>
    </linearGradient>
  </defs>
  <path fill="url(#gradient_1)" transform="matrix(2.55003 -0.0598528 0.0474345 2.02095 288.896 208)" d="M-59.1504 -29.4358L-32.5504 -30.7818C-32.5504 -30.7818 -29.2878 -16.904 -29.2878 -16.904C-37.342 10.4732 -59.3233 2.22359 -60.3022 -21.2052C-60.3022 -21.2052 -59.1504 -29.4358 -59.1504 -29.4358Z"></path>
  <path fill="#999696" transform="matrix(2.02095 -0.0474345 0.0474345 2.02095 56.531 146.624)" d="M-9.33073 1.7923C0.255675 -20.3552 11.318 -34.4995 42.2294 -37.4963C57.7294 -9.48985 69.6738 5.85638 69.6738 5.85638C69.6737 9.40911 68.001 11.4229 63.6402 11.4229C63.6402 11.4229 11.318 19.5229 -9.33073 1.7923Z"></path>
  <path fill="none" stroke="black" stroke-width="7" stroke-linejoin="round" transform="translate(256 256)" d="M-160.315 -85.6026C-182.462 -87.9312 -203.909 -93.578 -218.241 -105.311C-199.918 -150.525 -178.232 -179.635 -115.904 -187.157C-115.649 -186.72 -115.394 -186.285 -115.139 -185.851"></path>
  <path fill="#828594" transform="matrix(2.02095 -0.0474345 0.0474345 2.02095 56.531 146.624)" d="M-9.33073 1.7923C0.255675 -20.3552 11.318 -34.4995 42.2294 -37.4963C57.7294 -9.48985 69.6738 5.85638 69.6738 5.85638C69.6737 9.40911 68.001 11.4229 63.6402 11.4229C63.6402 11.4229 11.318 19.5229 -9.33073 1.7923Z"></path>
  <clipPath id="cl_19c">
    <path d="M37.7591 150.689C56.0822 105.475 77.7675 76.3654 140.096 68.8427C172.749 124.707 197.616 155.155 197.616 155.155C197.784 162.334 194.499 166.483 185.686 166.69C185.686 166.69 80.33 185.542 37.7591 150.689Z"></path>
  </clipPath>
  <g clip-path="url(#cl_19c)">
    <path fill="#686B77" transform="matrix(2.07648 -0.0487379 0.0474345 2.02095 66.4385 146.391)" d="M-18.5853 15.5755L-13.4615 -44.4622C-13.4615 -44.4622 70.2014 -44.8305 70.2014 -44.8305C29.0482 -45.0949 3.69741 17.5905 3.69741 17.5905L-18.5853 15.5755Z"></path>
  </g>
  <path fill="#42444C" transform="matrix(2.02095 -0.0474345 0.0474345 2.02095 56.531 146.624)" d="M-7.3892 -2.7458C-7.3892 -2.7458 -3.9105 -12.6587 2.43461 -18.8153C16.915 -6.28382 67.6134 6.22992 67.6134 6.22992L66.536 9.40911C66.536 9.40911 3.07251 11.6987 -7.3892 -2.7458Z"></path>
  <path fill="#21232E" transform="matrix(1.9401 -0.0455369 0.0474345 2.02095 193.712 161.183)" d="M-3.83705e-06 -12C6.90356 -12 12.5 -6.62742 12.5 -3.83798e-06C12.5 6.62741 6.90356 12 -3.79235e-06 12C-6.90356 12 -12.5 6.62741 -12.5 -3.79141e-06C-12.5 -6.62742 -6.90356 -12 -3.83705e-06 -12Z"></path>
  <path fill="#7A7E92" transform="matrix(1.9401 -0.0455369 0.0474345 2.02095 199.58 163.067)" d="M-2.23517e-08 -12C6.90356 -12 12.5 -6.62742 12.5 -2.32831e-08C12.5 6.62742 6.90356 12 2.23517e-08 12C-6.90356 12 -12.5 6.62742 -12.5 2.32831e-08C-12.5 -6.62742 -6.90356 -12 -2.23517e-08 -12Z"></path>
  <path fill="#A5A5A5" transform="matrix(1.71395 0 0 0.248652 270.629 475.419)" d="M-0.25 -88C55.945 -88 101.5 -48.6011 101.5 0C101.5 48.6011 55.945 88 -0.25 88C-56.445 88 -102 48.6011 -102 0C-102 -48.6011 -56.445 -88 -0.25 -88Z" style="mix-blend-mode: multiply"></path>
</svg>