<?xml version="1.0" encoding="utf-8"?>
<svg xmlns="http://www.w3.org/2000/svg" xmlns:xlink="http://www.w3.org/1999/xlink" width="512" height="512">
  <path fill="none" stroke="black" stroke-width="7" stroke-linejoin="round" transform="translate(256 256)" d="M191.811 -131.271C171.534 -175.643 148.6 -203.78 86.0029 -208.577C55.8167 -151.342 32.3011 -119.84 32.3011 -119.84C32.4459 -112.659 35.9086 -108.657 44.7222 -108.835C44.7222 -108.835 150.8 -94.595 191.811 -131.271Z"></path>
  <path fill="#828594" transform="matrix(-2.02109 0.0407313 0.0407313 2.02109 428.88 121.486)" d="M-9.33073 1.7923C0.255675 -20.3552 11.318 -34.4995 42.2294 -37.4964C57.7294 -9.48986 69.6738 5.85638 69.6738 5.85638C69.6737 9.4091 68.001 11.4229 63.6402 11.4229C63.6402 11.4229 11.318 19.5229 -9.33073 1.7923Z"></path>
  <path fill="none" stroke="black" stroke-width="7" stroke-linejoin="round" transform="translate(256 256)" d="M175.212 -121.1C195.334 -59.5501 179.335 12.7337 179.335 12.7337C162.684 41.7524 122.762 51.6964 122.762 51.6964C114.336 46.8525 108.389 31.3091 108.389 31.3091C108.389 31.3091 99.6973 47.6337 76.6592 66.5363C-18.9052 88.5046 -116.679 71.7071 -120.354 52.0036C-122.832 38.4202 -144.586 -122.153 -144.586 -122.153L-118.206 -204.039L-85.7297 -207.318C-85.7297 -207.318 -84.1283 -206.561 -81.1204 -205.289"></path>
  <path fill="none" stroke="black" stroke-width="7" stroke-linejoin="round" transform="translate(256 256)" d="M55.2692 -198.253C49.4556 -204.139 43.8587 -206.391 43.8587 -206.391C58.5584 -206.771 71.7776 -205.707 83.6586 -203.428"></path>
  <path fill="none" stroke="black" stroke-width="7" stroke-linejoin="round" transform="translate(256 256)" d="M-113.8 -191.155C-88.9062 -227.773 45.4962 -206.244 45.4962 -206.244L54.9102 -204.616"></path>
  <defs>
    <linearGradient id="gradient_0" gradientUnits="userSpaceOnUse" x1="-10.499905" y1="-40.34568" x2="-3.0814617" y2="20.75737">
      <stop offset="0" stop-color="#A1A8AF"></stop>
      <stop offset="0.99830264" stop-color="#242B4A"></stop>
      <stop offset="1" stop-color="#000417"></stop>
    </linearGradient>
  </defs>
  <path fill="url(#gradient_0)" transform="matrix(1.96839 -0.0396695 0.0407316 2.02109 248.447 80.6405)" d="M-53.7932 -8.87113C-40.7768 -26.7335 27.2556 -14.7462 27.2556 -14.7462L53.5854 -9.77639L68.6389 10.0869L-57 14.5C-57 14.5 -53.7932 -8.87113 -53.7932 -8.87113Z"></path>
  <path fill="#999CA8" transform="matrix(2.02109 -0.0407316 0.0407316 2.02109 161.97 58.8867)" d="M68.2896 -3.21399C159.853 -3.7359 133.109 106.511 133.109 106.511C124.585 120.697 104.741 125.217 104.741 125.217C100.622 122.738 97.8359 114.991 97.8359 114.991C97.8359 114.991 93.3743 122.978 81.7917 132.097C34.3084 142.01 -13.8811 132.728 -15.5022 122.946C-16.5927 116.203 -25.751 36.5701 -25.751 36.5701L-11.8878 -3.66654L4.20687 -4.96424C4.20687 -4.96424 38.1027 11.9061 79.1936 10.9645C76.7277 0.379149 68.2896 -3.21399 68.2896 -3.21399Z"></path>
  <clipPath id="cl_53">
    <path d="M299.859 49.6094C484.895 44.8251 435.335 268.734 435.335 268.734C418.684 297.752 378.762 307.696 378.762 307.696C370.336 302.853 364.389 287.309 364.389 287.309C364.389 287.309 355.697 303.634 332.659 322.536C237.095 344.505 139.321 327.707 135.646 308.004C133.168 294.42 111.414 133.847 111.414 133.847L137.794 51.9605L170.27 48.6822C170.27 48.6822 239.464 81.3981 322.474 77.8214C317.059 56.5278 299.859 49.6094 299.859 49.6094Z"></path>
  </clipPath>
  <g clip-path="url(#cl_53)">
    <path fill="#686B77" transform="matrix(2.1988 -0.0443129 0.0411516 2.04193 275.035 191.004)" d="M-5.81434 -76.9003C-5.81434 -76.9003 -38.015 -34.4167 -37.875 19.4009C-37.7351 73.2184 27.8948 68.4574 27.8948 68.4574L-79.1489 92.4107L-83.3847 -74.5391L-5.81434 -76.9003Z"></path>
    <path fill="#BCBFC5" transform="matrix(2.5619 -0.0516306 0.0411516 2.04193 240.303 189.367)" d="M45.4521 -82.9725L93.7889 -50.8112C93.7889 -50.8112 78.8995 -3.97774 47.484 1.7428C16.0686 7.46333 -45.8161 -37.4435 -45.8161 -37.4435L-90.6289 -85.8936L45.4521 -82.9725Z"></path>
    <path fill="#DADDE0" transform="matrix(2.1988 -0.0443129 0.0411516 2.04193 307.747 39.5125)" d="M33.8967 14.5768L59.8776 19.1892C59.8776 19.1892 48.6614 51.4509 28.5602 52.2698C8.45895 53.0887 -29.101 32.4093 -29.101 32.4093C-29.101 32.4093 17.1176 36.5863 22.2728 36.8407C27.4281 37.0951 33.8967 14.5768 33.8967 14.5768Z"></path>
    <path fill="none" stroke="#494B53" stroke-width="1" stroke-linejoin="round" transform="matrix(2.24384 -0.0452206 0.0411516 2.04193 229.574 191.994)" d="M58.5276 51.4444C55.9456 58.9417 52.7169 66.8195 48.755 75.0792C14.7985 75.5947 -25.2378 65.559 -25.2378 65.559C-35.0366 44.0563 -33.6057 2.50352 -31.954 -19.7689"></path>
    <path fill="none" stroke="#898FA2" stroke-width="1" stroke-linejoin="round" transform="matrix(2.24384 -0.0452206 0.0411516 2.04193 229.574 191.994)" d="M-52.5751 -90.6465C-52.5751 -90.6465 29.9049 -60.6268 29.9049 -60.6268C47.3309 -58.4001 82.4587 -22.6242 59.7043 47.9162"></path>
  </g>
  <defs>
    <linearGradient id="gradient_1" gradientUnits="userSpaceOnUse" x1="-60.30225" y1="-15.24908" x2="-29.287821" y2="-15.24908">
      <stop offset="0" stop-color="#42444C"></stop>
      <stop offset="0.99602401" stop-color="#161823"></stop>
      <stop offset="1" stop-color="black"></stop>
    </linearGradient>
  </defs>
  <path fill="url(#gradient_1)" transform="matrix(2.55021 -0.0513951 0.0407316 2.02109 280.64 186.664)" d="M-59.1504 -29.4358L-32.5504 -30.7818C-32.5504 -30.7818 -29.2878 -16.904 -29.2878 -16.904C-37.342 10.4732 -59.3233 2.22359 -60.3023 -21.2052C-60.3023 -21.2052 -59.1504 -29.4358 -59.1504 -29.4358Z"></path>
  <path fill="#999696" transform="matrix(2.02109 -0.0407316 0.0407316 2.02109 56.7523 124.351)" d="M-9.33073 1.79229C0.255675 -20.3553 11.318 -34.4995 42.2294 -37.4964C57.7294 -9.48986 69.6738 5.85637 69.6738 5.85637C69.6737 9.4091 68.001 11.4229 63.6402 11.4229C63.6402 11.4229 11.318 19.5229 -9.33073 1.79229Z"></path>
  <path fill="none" stroke="black" stroke-width="7" stroke-linejoin="round" transform="translate(256 256)" d="M-155.86 -107.32C-179.504 -109.432 -202.814 -115.102 -218.033 -127.646C-199.56 -172.799 -177.778 -201.837 -115.425 -209.153C-115.171 -208.715 -114.918 -208.278 -114.665 -207.844"></path>
  <path fill="#828594" transform="matrix(2.02109 -0.0407316 0.0407316 2.02109 56.7523 124.351)" d="M-9.33073 1.79229C0.255675 -20.3553 11.318 -34.4995 42.2294 -37.4964C57.7294 -9.48986 69.6738 5.85637 69.6738 5.85637C69.6737 9.4091 68.001 11.4229 63.6402 11.4229C63.6402 11.4229 11.318 19.5229 -9.33073 1.79229Z"></path>
  <clipPath id="cl_57">
    <path d="M37.9671 128.354C56.44 83.2008 78.2218 54.1633 140.575 46.8474C173.042 102.82 197.808 133.349 197.808 133.349C197.953 140.53 194.654 144.668 185.84 144.846C185.84 144.846 80.4222 163.348 37.9671 128.354Z"></path>
  </clipPath>
  <g clip-path="url(#cl_57)">
    <path fill="#686B77" transform="matrix(2.07663 -0.0418508 0.0407316 2.02109 58.7141 124.312)" d="M-18.5853 15.5755L-13.4615 -44.4622C-13.4615 -44.4622 70.2014 -44.8305 70.2014 -44.8305C29.0482 -45.0949 3.69741 17.5905 3.69741 17.5905L-18.5853 15.5755Z"></path>
  </g>
  <path fill="#42444C" transform="matrix(2.02109 -0.0407316 0.0407316 2.02109 56.7523 124.351)" d="M-7.3892 -2.74582C-7.3892 -2.74582 -3.9105 -12.6587 2.43461 -18.8153C16.915 -6.28384 67.6134 6.22991 67.6134 6.22991L66.536 9.4091C66.536 9.4091 3.07251 11.6987 -7.3892 -2.74582Z"></path>
  <path fill="#21232E" transform="matrix(2.00508 -0.040409 0.0407316 2.02109 193.787 139.367)" d="M2.23517e-08 -12C6.90356 -12 12.5 -6.62742 12.5 -3.83798e-06C12.5 6.62741 6.90356 12 -2.23517e-08 12C-6.90356 12 -12.5 6.62741 -12.5 -3.79141e-06C-12.5 -6.62742 -6.90356 -12 2.23517e-08 -12Z"></path>
  <path fill="#7A7E92" transform="matrix(2.00508 -0.040409 0.0407316 2.02109 199.843 141.266)" d="M1.9297e-06 -12C6.90356 -12 12.5 -6.62742 12.5 -3.83798e-06C12.5 6.62741 6.90356 12 1.885e-06 12C-6.90356 12 -12.5 6.62741 -12.5 -3.79141e-06C-12.5 -6.62742 -6.90356 -12 1.9297e-06 -12Z"></path>
  <path fill="#A5A5A5" transform="matrix(1.71395 0 0 0.202318 270.629 476.484)" d="M-0.25 -88C55.945 -88 101.5 -48.6011 101.5 0C101.5 48.6011 55.945 88 -0.25 88C-56.445 88 -102 48.6011 -102 0C-102 -48.6011 -56.445 -88 -0.25 -88Z" style="mix-blend-mode: multiply"></path>
</svg>