<?xml version="1.0" encoding="utf-8"?>
<svg xmlns="http://www.w3.org/2000/svg" xmlns:xlink="http://www.w3.org/1999/xlink" width="512" height="512">
  <path fill="none" stroke="black" stroke-width="7" stroke-linejoin="round" transform="translate(256 256)" d="M184.766 -105.015C163.781 -149.056 140.399 -176.821 77.7328 -180.615C48.4678 -122.903 25.46 -91.0279 25.46 -91.0279C25.7199 -83.8507 29.2462 -79.9049 38.0559 -80.2237C38.0559 -80.2237 144.349 -67.6858 184.766 -105.015Z"></path>
  <path fill="#828594" transform="matrix(-2.02018 0.073117 0.073117 2.02018 421.785 148.047)" d="M-9.33073 1.7923C0.255683 -20.3552 11.318 -34.4995 42.2294 -37.4963C57.7294 -9.48985 69.6738 5.85638 69.6738 5.85638C69.6737 9.40911 68.001 11.4229 63.6402 11.4229C63.6402 11.4229 11.318 19.5229 -9.33073 1.7923Z"></path>
  <path fill="none" stroke="black" stroke-width="7" stroke-linejoin="round" transform="translate(256 256)" d="M177.718 -98.7605C197.238 -36.6582 177.53 39.0659 177.53 39.0659C161.346 68.3477 133.569 78.4966 133.569 78.4966C125.066 73.7883 118.736 58.3471 118.736 58.3471C118.736 58.3471 110.37 74.8067 87.6375 94.0761C-7.56256 117.573 -110.899 102.537 -114.889 82.8947C-117.585 69.3528 -145.491 -90.7214 -145.491 -90.7214L-120.427 -173.02L-74.6842 -176.978"></path>
  <path fill="none" stroke="black" stroke-width="7" stroke-linejoin="round" transform="translate(256 256)" d="M62.3654 -169.885C56.665 -176.028 51.186 -178.316 51.186 -178.316C59.6068 -178.669 67.5228 -178.539 74.9624 -177.969"></path>
  <path fill="none" stroke="black" stroke-width="7" stroke-linejoin="round" transform="translate(256 256)" d="M-96.8699 -160.894C-75.5464 -197.798 52.2234 -178.174 52.2234 -178.174L54.3382 -177.684"></path>
  <defs>
    <linearGradient id="gradient_0" gradientUnits="userSpaceOnUse" x1="-10.499905" y1="-40.34568" x2="-3.0814617" y2="20.75737">
      <stop offset="0" stop-color="#A1A8AF"></stop>
      <stop offset="0.99830264" stop-color="#242B4A"></stop>
      <stop offset="1" stop-color="#000417"></stop>
    </linearGradient>
  </defs>
  <path fill="url(#gradient_0)" transform="matrix(1.73853 -0.0629234 0.0731173 2.02018 253.3 109.643)" d="M-53.7932 -8.87114C-40.7768 -26.7335 32.2122 -14.7462 32.2122 -14.7462L53.5854 -9.7764L68.6389 10.0869L-57 14.5C-57 14.5 -53.7932 -8.87114 -53.7932 -8.87114Z"></path>
  <path fill="#999CA8" transform="matrix(2.02018 -0.0731173 0.0731173 2.02018 159.857 89.5176)" d="M73.0449 -3.21399C164.608 -3.7359 131.615 106.511 131.615 106.511C123.09 120.697 109.177 125.217 109.177 125.217C105.057 122.738 102.204 114.991 102.204 114.991C102.204 114.991 97.7738 122.978 86.1912 132.097C38.708 142.01 -12.108 132.728 -13.729 122.946C-14.8195 116.203 -25.751 36.5701 -25.751 36.5701L-11.8878 -3.66654L13.9814 -4.96424C13.9814 -4.96424 42.2174 11.9061 83.3083 10.9645C80.8424 0.379149 73.0449 -3.21399 73.0449 -3.21399Z"></path>
  <clipPath id="cl_15c">
    <path d="M307.186 77.6839C492.122 69.9347 433.53 295.066 433.53 295.066C417.346 324.348 389.569 334.497 389.569 334.497C381.066 329.788 374.736 314.347 374.736 314.347C374.736 314.347 366.37 330.807 343.637 350.076C248.437 373.573 145.101 358.537 141.111 338.895C138.415 325.353 110.509 165.279 110.509 165.279L135.573 82.9797L187.739 78.4666C187.739 78.4666 246.014 110.483 328.957 105.577C323.201 84.3726 307.186 77.6839 307.186 77.6839Z"></path>
  </clipPath>
  <g clip-path="url(#cl_15c)">
    <path fill="#686B77" transform="matrix(2.1978 -0.0795462 0.0738713 2.04101 288.089 219.333)" d="M-5.81434 -76.9002C-5.81434 -76.9002 -38.015 -34.4167 -37.875 19.4008C-37.7351 73.2184 27.8948 68.4574 27.8948 68.4574L-79.1489 92.4107L-83.3846 -74.5391L-5.81434 -76.9002Z"></path>
    <path fill="#BCBFC5" transform="matrix(2.56074 -0.0926821 0.0738713 2.04101 249.426 205.586)" d="M45.4521 -82.9725L93.7889 -50.8112C93.7889 -50.8112 78.8995 -3.97774 47.484 1.7428C16.0686 7.46333 -45.8161 -37.4435 -45.8161 -37.4435L-90.6289 -85.8936L45.4521 -82.9725Z"></path>
    <path fill="#DADDE0" transform="matrix(2.1978 -0.0795462 0.0738713 2.04101 314.482 55.3044)" d="M33.8967 14.5768L59.8776 19.1892C59.8776 19.1892 48.6614 51.4509 28.5602 52.2698C8.45894 53.0887 -29.101 32.4093 -29.101 32.4093C-29.101 32.4093 17.1176 36.5863 22.2728 36.8407C27.4281 37.0951 33.8967 14.5768 33.8967 14.5768Z"></path>
    <path fill="none" stroke="#494B53" stroke-width="1" stroke-linejoin="round" transform="matrix(2.24282 -0.0811756 0.0738713 2.04101 239.202 221.176)" d="M58.0673 51.1739C55.4752 58.6801 52.2376 66.5697 48.2684 74.8446C14.312 75.3601 -25.2378 65.559 -25.2378 65.559C-35.0554 44.015 -33.6001 2.34379 -31.9445 -19.897"></path>
    <path fill="none" stroke="#898FA2" stroke-width="1" stroke-linejoin="round" transform="matrix(2.24282 -0.0811756 0.0738713 2.04101 239.202 221.176)" d="M-52.5751 -90.6465C-52.5751 -90.6465 29.9049 -60.6268 29.9049 -60.6268C47.328 -58.4005 82.06 -22.8227 59.245 47.6539"></path>
  </g>
  <defs>
    <linearGradient id="gradient_1" gradientUnits="userSpaceOnUse" x1="-60.30225" y1="-15.24908" x2="-29.287821" y2="-15.24908">
      <stop offset="0" stop-color="#42444C"></stop>
      <stop offset="0.99602401" stop-color="#161823"></stop>
      <stop offset="1" stop-color="black"></stop>
    </linearGradient>
  </defs>
  <path fill="url(#gradient_1)" transform="matrix(2.54906 -0.0922593 0.0731173 2.02018 291.74 214.972)" d="M-59.1504 -29.4358L-32.5504 -30.7818C-32.5504 -30.7818 -29.2878 -16.904 -29.2878 -16.904C-37.342 10.4732 -59.3233 2.22359 -60.3022 -21.2052C-60.3022 -21.2052 -59.1504 -29.4358 -59.1504 -29.4358Z"></path>
  <path fill="#999696" transform="matrix(2.02018 -0.0731173 0.0731173 2.02018 55.702 156.66)" d="M-9.33074 1.7923C0.255668 -20.3552 11.3179 -34.4995 42.2294 -37.4964C57.7294 -9.48986 69.6737 5.85638 69.6737 5.85638C69.6737 9.4091 68.001 11.4229 63.6402 11.4229C63.6402 11.4229 11.3179 19.5229 -9.33074 1.7923Z"></path>
  <path fill="none" stroke="black" stroke-width="7" stroke-linejoin="round" transform="translate(256 256)" d="M-162.363 -76.2119C-183.999 -78.3619 -204.868 -83.7507 -219.017 -95.0372C-201.27 -140.48 -179.956 -169.863 -117.729 -178.177C-117.468 -177.744 -117.207 -177.311 -116.947 -176.881"></path>
  <path fill="#828594" transform="matrix(2.02018 -0.0731173 0.0731173 2.02018 55.702 156.66)" d="M-9.33074 1.7923C0.255668 -20.3552 11.3179 -34.4995 42.2294 -37.4964C57.7294 -9.48986 69.6737 5.85638 69.6737 5.85638C69.6737 9.4091 68.001 11.4229 63.6402 11.4229C63.6402 11.4229 11.3179 19.5229 -9.33074 1.7923Z"></path>
  <clipPath id="cl_160">
    <path d="M36.9833 160.963C54.7302 115.52 76.0438 86.1369 138.271 77.8226C171.632 133.268 196.884 163.396 196.884 163.396C197.143 170.573 193.912 174.764 185.102 175.083C185.102 175.083 79.9938 195.272 36.9833 160.963Z"></path>
  </clipPath>
  <g clip-path="url(#cl_160)">
    <path fill="#686B77" transform="matrix(2.07569 -0.0751264 0.0731173 2.02018 68.4028 156.2)" d="M-18.5853 15.5755L-13.4615 -44.4622C-13.4615 -44.4622 70.2014 -44.8304 70.2014 -44.8304C29.0482 -45.0949 3.69741 17.5905 3.69741 17.5905L-18.5853 15.5755Z"></path>
  </g>
  <path fill="#42444C" transform="matrix(2.02018 -0.0731173 0.0731173 2.02018 55.702 156.66)" d="M-7.38921 -2.74581C-7.38921 -2.74581 -3.9105 -12.6587 2.4346 -18.8153C16.915 -6.28383 67.6134 6.22991 67.6134 6.22991L66.536 9.4091C66.536 9.4091 3.0725 11.6987 -7.38921 -2.74581Z"></path>
  <path fill="#21232E" transform="matrix(1.91654 -0.0693661 0.0731173 2.02018 193.092 169.472)" d="M3.8594e-06 -12C6.90356 -12 12.5 -6.62742 12.5 0C12.5 6.62742 6.90356 12 3.76999e-06 12C-6.90356 12 -12.5 6.62742 -12.5 0C-12.5 -6.62742 -6.90356 -12 3.8594e-06 -12Z"></path>
  <path fill="#7A7E92" transform="matrix(1.91654 -0.0693661 0.0731173 2.02018 198.914 171.285)" d="M1.95205e-06 -12C6.90356 -12 12.5 -6.62742 12.5 0C12.5 6.62742 6.90356 12 1.86265e-06 12C-6.90356 12 -12.5 6.62742 -12.5 0C-12.5 -6.62742 -6.90356 -12 1.95205e-06 -12Z"></path>
  <path fill="#A5A5A5" transform="matrix(1.71395 0 0 0.264968 270.629 475.043)" d="M-0.25 -88.0001C55.945 -88.0001 101.5 -48.6011 101.5 -6.10352e-05C101.5 48.601 55.945 87.9999 -0.25 87.9999C-56.445 87.9999 -102 48.601 -102 -6.10352e-05C-102 -48.6011 -56.445 -88.0001 -0.25 -88.0001Z" style="mix-blend-mode: multiply"></path>
</svg>