<?xml version="1.0" encoding="utf-8"?>
<svg xmlns="http://www.w3.org/2000/svg" xmlns:xlink="http://www.w3.org/1999/xlink" width="512" height="512">
  <path fill="none" stroke="black" stroke-width="7" stroke-linejoin="round" transform="translate(256 256)" d="M183.832 -107.574C162.268 -151.335 138.522 -178.79 75.8118 -181.758C47.3093 -123.666 24.7234 -91.4903 24.7234 -91.4903C25.0777 -84.3172 28.6558 -80.4181 37.4604 -80.853C37.4604 -80.853 143.909 -69.716 183.832 -107.574Z"></path>
  <path fill="#828594" transform="matrix(-2.01904 0.0997157 0.0997157 2.01904 420.814 145.738)" d="M-9.33073 1.7923C0.255675 -20.3552 11.318 -34.4995 42.2294 -37.4964C57.7294 -9.48986 69.6738 5.85638 69.6738 5.85638C69.6737 9.4091 68.001 11.4229 63.6402 11.4229C63.6402 11.4229 11.318 19.5229 -9.33073 1.7923Z"></path>
  <path fill="none" stroke="black" stroke-width="7" stroke-linejoin="round" transform="translate(256 256)" d="M176.866 -101.228C197.202 -39.3876 178.494 36.5894 178.494 36.5894C162.696 66.0818 135.055 76.5957 135.055 76.5957C126.491 71.9998 119.958 56.6433 119.958 56.6433C119.958 56.6433 111.81 73.2116 89.3332 92.7787C-5.54916 117.527 -109.074 103.853 -113.323 84.2655C-116.197 70.7603 -146.209 -88.9325 -146.209 -88.9325L-122.23 -171.554L-76.5441 -176.114"></path>
  <path fill="none" stroke="black" stroke-width="7" stroke-linejoin="round" transform="translate(256 256)" d="M60.587 -170.826C54.8063 -176.894 49.2975 -179.11 49.2975 -179.11C57.713 -179.574 65.63 -179.548 73.0764 -179.076"></path>
  <path fill="none" stroke="black" stroke-width="7" stroke-linejoin="round" transform="translate(256 256)" d="M-98.516 -159.739C-77.6805 -196.921 50.3368 -178.981 50.3368 -178.981L52.4578 -178.519"></path>
  <defs>
    <linearGradient id="gradient_0" gradientUnits="userSpaceOnUse" x1="-10.499905" y1="-40.34568" x2="-3.0814617" y2="20.75737">
      <stop offset="0" stop-color="#A1A8AF"></stop>
      <stop offset="0.99830264" stop-color="#242B4A"></stop>
      <stop offset="1" stop-color="#000417"></stop>
    </linearGradient>
  </defs>
  <path fill="url(#gradient_0)" transform="matrix(1.73755 -0.0858136 0.099716 2.01904 251.837 109.556)" d="M-53.7932 -8.87113C-40.7768 -26.7335 32.2122 -14.7462 32.2122 -14.7462L53.5854 -9.77639L68.6389 10.0869L-57 14.5C-57 14.5 -53.7932 -8.87113 -53.7932 -8.87113Z"></path>
  <path fill="#999CA8" transform="matrix(2.01904 -0.099716 0.099716 2.01904 158.137 90.6631)" d="M73.0449 -3.21399C164.608 -3.7359 131.615 106.511 131.615 106.511C123.09 120.697 109.177 125.217 109.177 125.217C105.057 122.738 102.204 114.991 102.204 114.991C102.204 114.991 97.7738 122.978 86.1912 132.097C38.708 142.01 -12.108 132.728 -13.729 122.946C-14.8195 116.203 -25.751 36.5701 -25.751 36.5701L-11.8878 -3.66654L13.9814 -4.96424C13.9814 -4.96424 42.2174 11.9061 83.3083 10.9645C80.8424 0.379149 73.0449 -3.21399 73.0449 -3.21399Z"></path>
  <clipPath id="cl_102">
    <path d="M305.298 76.8902C490.116 66.7061 434.494 292.589 434.494 292.589C418.696 322.082 391.055 332.596 391.055 332.596C382.491 328 375.958 312.643 375.958 312.643C375.958 312.643 367.81 329.212 345.333 348.779C250.451 373.527 146.926 359.853 142.677 340.266C139.803 326.76 109.791 167.067 109.791 167.067L133.77 84.4456L185.871 79.246C185.871 79.246 244.563 110.492 327.434 104.494C321.399 83.3674 305.298 76.8902 305.298 76.8902Z"></path>
  </clipPath>
  <g clip-path="url(#cl_102)">
    <path fill="#686B77" transform="matrix(2.19657 -0.108483 0.100744 2.03986 288.067 218.779)" d="M-5.81433 -76.9003C-5.81433 -76.9003 -38.015 -34.4167 -37.875 19.4009C-37.7351 73.2184 27.8948 68.4574 27.8948 68.4574L-79.1489 92.4107L-83.3847 -74.5391L-5.81433 -76.9003Z"></path>
    <path fill="#BCBFC5" transform="matrix(2.5593 -0.126398 0.100744 2.03986 249.227 205.542)" d="M45.4521 -82.9725L93.7889 -50.8112C93.7889 -50.8112 78.8995 -3.97774 47.484 1.7428C16.0686 7.46333 -45.8161 -37.4435 -45.8161 -37.4435L-90.6289 -85.8936L45.4521 -82.9725Z"></path>
    <path fill="#DADDE0" transform="matrix(2.19657 -0.108483 0.100744 2.03986 312.298 54.4166)" d="M33.8967 14.5768L59.8776 19.1892C59.8776 19.1892 48.6614 51.4509 28.5602 52.2698C8.45895 53.0887 -29.101 32.4093 -29.101 32.4093C-29.101 32.4093 17.1176 36.5863 22.2728 36.8407C27.4281 37.0951 33.8967 14.5768 33.8967 14.5768Z"></path>
    <path fill="none" stroke="#494B53" stroke-width="1" stroke-linejoin="round" transform="matrix(2.24156 -0.110706 0.100744 2.03986 239.21 221.265)" d="M58.0674 51.1739C55.4753 58.6801 52.2376 66.5697 48.2684 74.8446C14.312 75.3601 -25.2378 65.559 -25.2378 65.559C-35.0554 44.015 -33.6001 2.3438 -31.9445 -19.897"></path>
    <path fill="none" stroke="#898FA2" stroke-width="1" stroke-linejoin="round" transform="matrix(2.24156 -0.110706 0.100744 2.03986 239.21 221.265)" d="M-52.5751 -90.6465C-52.5751 -90.6465 29.9049 -60.6268 29.9049 -60.6268C47.328 -58.4005 82.06 -22.8227 59.2451 47.6538"></path>
  </g>
  <defs>
    <linearGradient id="gradient_1" gradientUnits="userSpaceOnUse" x1="-60.30225" y1="-15.24908" x2="-29.287821" y2="-15.24908">
      <stop offset="0" stop-color="#42444C"></stop>
      <stop offset="0.99602401" stop-color="#161823"></stop>
      <stop offset="1" stop-color="black"></stop>
    </linearGradient>
  </defs>
  <path fill="url(#gradient_1)" transform="matrix(2.54762 -0.125821 0.099716 2.01904 291.661 214.37)" d="M-59.1504 -29.4358L-32.5504 -30.7818C-32.5504 -30.7818 -29.2878 -16.904 -29.2878 -16.904C-37.342 10.4732 -59.3233 2.22359 -60.3022 -21.2052C-60.3022 -21.2052 -59.1504 -29.4358 -59.1504 -29.4358Z"></path>
  <path fill="#999696" transform="matrix(2.01904 -0.099716 0.099716 2.01904 54.8755 159.171)" d="M-9.33073 1.79229C0.255675 -20.3553 11.318 -34.4995 42.2294 -37.4964C57.7294 -9.48986 69.6738 5.85637 69.6738 5.85637C69.6737 9.4091 68.001 11.4229 63.6402 11.4229C63.6402 11.4229 11.318 19.5229 -9.33073 1.79229Z"></path>
  <path fill="none" stroke="black" stroke-width="7" stroke-linejoin="round" transform="translate(256 256)" d="M-162.888 -74.2021C-184.551 -76.067 -205.489 -81.1805 -219.785 -92.2797C-202.638 -137.952 -181.713 -167.613 -119.601 -176.747C-119.334 -176.316 -119.068 -175.887 -118.802 -175.46"></path>
  <path fill="#828594" transform="matrix(2.01904 -0.099716 0.099716 2.01904 54.8755 159.171)" d="M-9.33073 1.79229C0.255675 -20.3553 11.318 -34.4995 42.2294 -37.4964C57.7294 -9.48986 69.6738 5.85637 69.6738 5.85637C69.6737 9.4091 68.001 11.4229 63.6402 11.4229C63.6402 11.4229 11.318 19.5229 -9.33073 1.79229Z"></path>
  <clipPath id="cl_106">
    <path d="M36.215 163.72C53.362 118.048 74.2868 88.3865 136.399 79.2535C170.487 134.254 196.134 164.048 196.134 164.048C196.488 171.221 193.311 175.454 184.507 175.888C184.507 175.888 79.6737 197.46 36.215 163.72Z"></path>
  </clipPath>
  <g clip-path="url(#cl_106)">
    <path fill="#686B77" transform="matrix(2.07452 -0.102456 0.099716 2.01904 67.5692 158.544)" d="M-18.5853 15.5755L-13.4615 -44.4622C-13.4615 -44.4622 70.2014 -44.8305 70.2014 -44.8305C29.0482 -45.0949 3.69742 17.5905 3.69742 17.5905L-18.5853 15.5755Z"></path>
  </g>
  <path fill="#42444C" transform="matrix(2.01904 -0.099716 0.099716 2.01904 54.8755 159.171)" d="M-7.3892 -2.74581C-7.3892 -2.74581 -3.9105 -12.6587 2.43461 -18.8153C16.915 -6.28383 67.6134 6.22991 67.6134 6.22991L66.536 9.4091C66.536 9.4091 3.07251 11.6987 -7.3892 -2.74581Z"></path>
  <path fill="#21232E" transform="matrix(1.91546 -0.0946001 0.099716 2.01904 192.422 170.173)" d="M-4.47035e-08 -12C6.90356 -12 12.5 -6.62742 12.5 -3.8147e-06C12.5 6.62741 6.90356 12 4.47035e-08 12C-6.90356 12 -12.5 6.62741 -12.5 -3.8147e-06C-12.5 -6.62742 -6.90356 -12 -4.47035e-08 -12Z"></path>
  <path fill="#7A7E92" transform="matrix(1.91546 -0.0946001 0.099716 2.01904 198.268 171.909)" d="M-4.47035e-08 -12C6.90356 -12 12.5 -6.62742 12.5 0C12.5 6.62742 6.90356 12 4.47035e-08 12C-6.90356 12 -12.5 6.62742 -12.5 0C-12.5 -6.62742 -6.90356 -12 -4.47035e-08 -12Z"></path>
  <path fill="#A5A5A5" transform="matrix(1.71395 0 0 0.264968 270.629 475.043)" d="M-0.249999 -88C55.945 -88 101.5 -48.6011 101.5 0C101.5 48.6011 55.945 88 -0.249999 88C-56.445 88 -102 48.6011 -102 0C-102 -48.6011 -56.445 -88 -0.249999 -88Z" style="mix-blend-mode: multiply"></path>
</svg>