<?xml version="1.0" encoding="utf-8"?>
<svg xmlns="http://www.w3.org/2000/svg" xmlns:xlink="http://www.w3.org/1999/xlink" width="512" height="512">
  <path fill="none" stroke="black" stroke-width="7" stroke-linejoin="round" transform="translate(256 256)" d="M193.761 -132.333C174.212 -177.03 151.74 -205.537 89.2301 -211.357C58.1129 -154.623 34.0858 -123.508 34.0858 -123.508C34.1133 -116.327 37.5101 -112.269 46.3254 -112.302C46.3254 -112.302 152.157 -96.3315 193.761 -132.333Z"></path>
  <path fill="#828594" transform="matrix(-2.02149 0.00770949 0.00770949 2.02149 430.885 120.116)" d="M-9.33073 1.7923C0.255683 -20.3552 11.318 -34.4995 42.2294 -37.4963C57.7294 -9.48985 69.6738 5.85638 69.6738 5.85638C69.6737 9.40911 68.001 11.4229 63.6402 11.4229C63.6402 11.4229 11.318 19.5229 -9.33073 1.7923Z"></path>
  <path fill="none" stroke="black" stroke-width="7" stroke-linejoin="round" transform="translate(256 256)" d="M175.608 -121.857C194.965 -60.1175 178.497 11.4508 178.497 11.4508C161.374 40.1936 119.508 49.491 119.508 49.491C111.162 44.51 105.49 28.8714 105.49 28.8714C105.49 28.8714 96.5231 45.0519 73.1793 63.5756C-22.7312 83.9799 -119.426 65.5844 -122.778 45.8235C-125.035 32.2015 -143.627 -128.708 -143.627 -128.708L-115.913 -210.152L-86.3345 -212.889C-86.3345 -212.889 -84.0533 -211.791 -79.8275 -210.005"></path>
  <path fill="none" stroke="black" stroke-width="7" stroke-linejoin="round" transform="translate(256 256)" d="M56.0642 -201.593C50.3158 -207.525 44.7345 -209.85 44.7345 -209.85C60.3655 -209.999 74.3104 -208.544 86.7425 -205.756"></path>
  <path fill="none" stroke="black" stroke-width="7" stroke-linejoin="round" transform="translate(256 256)" d="M-114.546 -197.187C-88.6121 -233.395 46.2646 -209.677 46.2646 -209.677L56.9448 -207.74"></path>
  <defs>
    <linearGradient id="gradient_0" gradientUnits="userSpaceOnUse" x1="-10.499905" y1="-40.34568" x2="-3.0814617" y2="20.75737">
      <stop offset="0" stop-color="#A1A8AF"></stop>
      <stop offset="0.99830264" stop-color="#242B4A"></stop>
      <stop offset="1" stop-color="#000417"></stop>
    </linearGradient>
  </defs>
  <path fill="url(#gradient_0)" transform="matrix(2.00294 -0.00763906 0.0077098 2.02149 249.267 76.3351)" d="M-53.7932 -8.87113C-40.7768 -26.7335 26.5165 -14.7462 26.5165 -14.7462L53.5853 -9.77639L68.6389 10.0869L-57 14.5C-57 14.5 -53.7932 -8.87113 -53.7932 -8.87113Z"></path>
  <path fill="#999CA8" transform="matrix(2.02149 -0.0077098 0.0077098 2.02149 164.146 53.1679)" d="M67.5805 -3.21399C159.144 -3.7359 133.332 106.511 133.332 106.511C124.808 120.697 104.08 125.217 104.08 125.217C99.9607 122.738 97.1845 114.991 97.1845 114.991C97.1845 114.991 92.7182 122.978 81.1357 132.097C33.6524 142.01 -14.1456 132.728 -15.7666 122.946C-16.8571 116.203 -25.751 36.5701 -25.751 36.5701L-11.8878 -3.66654L2.74934 -4.96424C2.74934 -4.96424 37.4892 11.9061 78.5801 10.9645C76.1141 0.379149 67.5805 -3.21399 67.5805 -3.21399Z"></path>
  <clipPath id="cl_26">
    <path d="M300.734 46.1498C485.824 44.3888 434.497 267.451 434.497 267.451C417.374 296.194 375.508 305.491 375.508 305.491C367.162 300.51 361.49 284.871 361.49 284.871C361.49 284.871 352.523 301.052 329.179 319.576C233.269 339.98 136.574 321.584 133.222 301.824C130.965 288.201 112.373 127.292 112.373 127.292L140.087 45.8477L169.665 43.1115C169.665 43.1115 240.022 76.9469 323.079 74.7267C318.013 53.3475 300.734 46.1498 300.734 46.1498Z"></path>
  </clipPath>
  <g clip-path="url(#cl_26)">
    <path fill="#686B77" transform="matrix(2.19923 -0.00838768 0.00778929 2.04233 273.088 187.122)" d="M-5.81434 -76.9003C-5.81434 -76.9003 -38.015 -34.4167 -37.875 19.4009C-37.7351 73.2184 27.8948 68.4574 27.8948 68.4574L-79.1489 92.4107L-83.3847 -74.5391L-5.81434 -76.9003Z"></path>
    <path fill="#BCBFC5" transform="matrix(2.5624 -0.00977279 0.00778929 2.04233 238.91 186.824)" d="M45.4521 -82.9725L93.7889 -50.8112C93.7889 -50.8112 78.8995 -3.97774 47.484 1.7428C16.0686 7.46333 -45.8161 -37.4435 -45.8161 -37.4435L-90.6289 -85.8936L45.4521 -82.9725Z"></path>
    <path fill="#DADDE0" transform="matrix(2.19923 -0.00838768 0.00778929 2.04233 308.792 37.997)" d="M33.8967 14.5768L59.8776 19.1892C59.8776 19.1892 48.6614 51.4509 28.5602 52.2698C8.45894 53.0887 -29.101 32.4093 -29.101 32.4093C-29.101 32.4093 17.1176 36.5863 22.2728 36.8407C27.4281 37.0951 33.8967 14.5768 33.8967 14.5768Z"></path>
    <path fill="none" stroke="#494B53" stroke-width="1" stroke-linejoin="round" transform="matrix(2.24428 -0.00855949 0.00778929 2.04233 228.131 187.367)" d="M58.5963 51.4847C56.0158 58.9808 52.7883 66.8568 48.8275 75.1141C14.8711 75.6296 -25.2378 65.559 -25.2378 65.559C-35.0338 44.0625 -33.6065 2.52729 -31.9555 -19.7498"></path>
    <path fill="none" stroke="#898FA2" stroke-width="1" stroke-linejoin="round" transform="matrix(2.24428 -0.00855949 0.00778929 2.04233 228.131 187.367)" d="M-52.5751 -90.6465C-52.5751 -90.6465 29.9049 -60.6268 29.9049 -60.6268C47.3313 -58.4001 82.5182 -22.5946 59.7728 47.9553"></path>
  </g>
  <defs>
    <linearGradient id="gradient_1" gradientUnits="userSpaceOnUse" x1="-60.30225" y1="-15.24908" x2="-29.287821" y2="-15.24908">
      <stop offset="0" stop-color="#42444C"></stop>
      <stop offset="0.99602401" stop-color="#161823"></stop>
      <stop offset="1" stop-color="black"></stop>
    </linearGradient>
  </defs>
  <path fill="url(#gradient_1)" transform="matrix(2.55071 -0.00972821 0.0077098 2.02149 279.044 182.873)" d="M-59.1504 -29.4358L-32.5504 -30.7818C-32.5504 -30.7818 -29.2878 -16.904 -29.2878 -16.904C-37.342 10.4732 -59.3233 2.22359 -60.3023 -21.2052C-60.3023 -21.2052 -59.1504 -29.4358 -59.1504 -29.4358Z"></path>
  <path fill="#999696" transform="matrix(2.02149 -0.0077098 0.0077098 2.02149 57.873 116.905)" d="M-9.33073 1.7923C0.255675 -20.3552 11.318 -34.4995 42.2294 -37.4964C57.7294 -9.48986 69.6738 5.85638 69.6738 5.85638C69.6737 9.4091 68.001 11.4229 63.6402 11.4229C63.6402 11.4229 11.318 19.5229 -9.33073 1.7923Z"></path>
  <path fill="none" stroke="black" stroke-width="7" stroke-linejoin="round" transform="translate(256 256)" d="M-154.273 -113.97C-178.178 -116.411 -201.779 -122.452 -216.975 -135.4C-197.767 -180.245 -175.514 -208.923 -113.05 -215.219C-112.803 -214.777 -112.557 -214.337 -112.311 -213.898"></path>
  <path fill="#828594" transform="matrix(2.02149 -0.0077098 0.0077098 2.02149 57.873 116.905)" d="M-9.33073 1.7923C0.255675 -20.3552 11.318 -34.4995 42.2294 -37.4964C57.7294 -9.48986 69.6738 5.85638 69.6738 5.85638C69.6737 9.4091 68.001 11.4229 63.6402 11.4229C63.6402 11.4229 11.318 19.5229 -9.33073 1.7923Z"></path>
  <clipPath id="cl_2a">
    <path d="M39.0249 120.6C58.2329 75.7547 80.4861 47.0769 142.95 40.7805C174.499 97.2759 198.763 128.206 198.763 128.206C198.79 135.388 195.424 139.472 186.609 139.505C186.609 139.505 80.9026 156.283 39.0249 120.6Z"></path>
  </clipPath>
  <g clip-path="url(#cl_2a)">
    <path fill="#686B77" transform="matrix(2.07703 -0.00792164 0.0077098 2.02149 58.2327 116.903)" d="M-18.5853 15.5755L-13.4615 -44.4622C-13.4615 -44.4622 70.2014 -44.8305 70.2014 -44.8305C29.0482 -45.0949 3.69741 17.5905 3.69741 17.5905L-18.5853 15.5755Z"></path>
  </g>
  <path fill="#42444C" transform="matrix(2.02149 -0.0077098 0.0077098 2.02149 57.873 116.905)" d="M-7.3892 -2.74581C-7.3892 -2.74581 -3.9105 -12.6587 2.43461 -18.8153C16.915 -6.28383 67.6134 6.22991 67.6134 6.22991L66.536 9.4091C66.536 9.4091 3.07251 11.6987 -7.3892 -2.74581Z"></path>
  <path fill="#21232E" transform="matrix(2.01855 -0.00769861 0.0077098 2.02149 194.625 134.157)" d="M0 -12C6.90356 -12 12.5 -6.62742 12.5 -3.81761e-06C12.5 6.62741 6.90356 12 0 12C-6.90356 12 -12.5 6.62741 -12.5 -3.81179e-06C-12.5 -6.62742 -6.90356 -12 0 -12Z"></path>
  <path fill="#7A7E92" transform="matrix(2.01855 -0.00769861 0.0077098 2.02149 200.688 136.155)" d="M-1.90735e-06 -12C6.90356 -12 12.5 -6.62742 12.5 -2.91038e-09C12.5 6.62742 6.90356 12 -1.90735e-06 12C-6.90356 12 -12.5 6.62742 -12.5 2.91038e-09C-12.5 -6.62742 -6.90356 -12 -1.90735e-06 -12Z"></path>
  <path fill="#A5A5A5" transform="matrix(1.71395 0 0 0.192976 270.629 476.699)" d="M-0.25 -88C55.945 -88 101.5 -48.6011 101.5 0C101.5 48.6011 55.945 88 -0.25 88C-56.445 88 -102 48.6011 -102 0C-102 -48.6011 -56.445 -88 -0.25 -88Z" style="mix-blend-mode: multiply"></path>
</svg>