<?xml version="1.0" encoding="utf-8"?>
<svg xmlns="http://www.w3.org/2000/svg" xmlns:xlink="http://www.w3.org/1999/xlink" width="686" height="512">
  <path fill="none" stroke="black" stroke-width="7" stroke-linejoin="round" transform="matrix(1.75255 0 0 1.75255 394.496 414.526)" d="M-0.319668 -46.2806C17.8849 -47.1524 30.8455 -40.5087 33.2832 3.71366C35.3209 32.6595 28.5791 43.0953 18.0648 43.4497C7.55049 43.8042 -1.06733 44.4173 -11.3777 45.1087C-21.8281 45.6287 -27.8585 34.8269 -29.8965 5.868C-32.7507 -40.5409 -18.5242 -45.4088 -0.319668 -46.2806Z"></path>
  <path fill="none" stroke="black" stroke-width="7" stroke-linejoin="round" transform="matrix(-2.09669 -3.16894e-07 -3.14293e-07 2.07948 535.871 281.944)" d="M18.4249 -58.663C21.7945 -54.1681 27.9211 -39.0213 27.8783 -35.094C27.8355 -31.1666 32.2355 -22.2521 30.9557 2.08302C29.7398 30.9469 25.3067 54.0363 0.0424271 53.1161C-15.8146 52.4371 -27.2874 28.5047 -26.0716 -0.359159C-24.5472 -36.5461 1.146 -64.9291 18.4249 -58.663Z"></path>
  <path fill="none" stroke="black" stroke-width="7" stroke-linejoin="round" transform="matrix(1.75232 0.0285905 -0.0285905 1.75232 448.53 283.079)" d="M0.209621 -80.0966C37.3348 -80.0966 84.5 -60 84.5 0C84.5 41.1452 46.7396 76.2788 0.209621 76.2788C-62.1658 76.2788 -84 60.12 -84 0C-84 -71.2881 -50.5087 -80.0966 0.209621 -80.0966Z"></path>
  <path fill="none" stroke="black" stroke-width="7" stroke-linejoin="round" transform="matrix(1.49621 0 0 1.75255 490.01 403.135)" d="M-1.2982 -47.8839C16.8799 -49.0039 32.7953 -43.0576 36.7848 6.39981C38.3353 20.1919 34.0736 44.2198 20.417 44.8767C6.76047 45.5336 0.634544 45.8283 -11.5482 46.4143C-23.7309 47.0004 -27.4936 24.2476 -29.0441 10.4555C-33.5283 -41.1679 -19.4764 -46.764 -1.2982 -47.8839Z"></path>
  <path fill="#6C88D9" transform="matrix(-2.09669 -3.16894e-07 -3.14293e-07 2.07948 535.871 281.944)" d="M18.4249 -58.663C21.7945 -54.1681 27.9211 -39.0213 27.8783 -35.094C27.8355 -31.1666 32.2355 -22.2521 30.9557 2.08302C29.7398 30.9469 25.3067 54.0363 0.0424347 53.1161C-15.8146 52.4371 -27.2874 28.5047 -26.0715 -0.359159C-24.5472 -36.5461 1.14601 -64.9291 18.4249 -58.663Z"></path>
  <path fill="#5170C8" transform="matrix(1.49621 0 0 1.75255 490.01 403.135)" d="M-1.2982 -47.8839C16.8799 -49.0039 32.7953 -43.0576 36.7848 6.39981C38.3353 20.1919 34.0736 44.2198 20.417 44.8767C6.76047 45.5336 0.634544 45.8283 -11.5482 46.4143C-23.7309 47.0004 -27.4936 24.2476 -29.0441 10.4555C-33.5283 -41.1679 -19.4764 -46.764 -1.2982 -47.8839Z"></path>
  <path fill="#839BE0" transform="matrix(1.17156 0 0 1.37229 490.01 403.135)" d="M-0.586563 -48.4785C17.5916 -49.5984 32.9637 -43.5349 37.4587 10.3956C38.4647 28.3099 30.7739 43.8826 17.1173 44.5395C3.46075 45.1965 3.63871 45.2385 -8.544 45.8245C-20.7268 46.4106 -27.3642 32.3656 -28.3702 14.4513C-33.36 -41.6451 -18.7647 -47.3585 -0.586563 -48.4785Z"></path>
  <path fill="#6C88D9" transform="matrix(1.75255 0 0 1.75255 394.496 414.526)" d="M-0.319668 -46.2806C17.8849 -47.1524 30.8455 -40.5087 33.2832 3.71366C35.3209 32.6595 28.5791 43.0953 18.0648 43.4497C7.55049 43.8042 -1.06733 44.4173 -11.3777 45.1087C-21.8281 45.6287 -27.8585 34.8269 -29.8965 5.868C-32.7507 -40.5409 -18.5242 -45.4088 -0.319668 -46.2806Z"></path>
  <path fill="#91A8EB" transform="matrix(-1.63266 -2.46762e-07 -3.07725e-07 2.03602 531.986 276.382)" d="M20.2864 -52.2365C42.4347 -51.4821 34.2247 -26.9093 31.0771 1.60099C27.9294 30.1112 14.8084 53.0388 -0.64164 52.5125C-16.0917 51.9863 -26.9984 28.3127 -25.4786 -0.380268C-23.9589 -29.0732 -1.86186 -52.9908 20.2864 -52.2365Z"></path>
  <path fill="none" stroke="black" stroke-width="7" stroke-miterlimit="4" transform="matrix(1.75232 0.0285905 -0.0285905 1.75232 404.725 124.754)" d="M3.8147e-06 -29.5C19.0538 -29.5 34.5 -16.1805 34.5 0.250008C34.5 16.6805 19.0538 30 3.8147e-06 30C-19.0538 30 -34.5 16.6805 -34.5 0.250008C-34.5 -16.1805 -19.0538 -29.5 3.8147e-06 -29.5Z"></path>
  <path fill="#6C88D9" transform="matrix(1.75232 0.0285905 -0.0285905 1.75232 448.53 283.079)" d="M0.209621 -80.0966C37.3348 -80.0966 84.5 -60 84.5 0C84.5 41.1452 46.7396 76.2788 0.209621 76.2788C-62.1658 76.2788 -84 60.12 -84 0C-84 -71.2881 -50.5087 -80.0966 0.209621 -80.0966Z"></path>
  <path fill="none" stroke="black" stroke-width="9" stroke-miterlimit="4" transform="matrix(1.00146 0 0 1.00146 343 256)" d="M36.0569 -187.266C50.4289 -187.032 61.9157 -176.795 61.7135 -164.402C61.5113 -152.008 49.6966 -142.152 35.3246 -142.386C20.9527 -142.621 9.46581 -152.858 9.66802 -165.251C9.87022 -177.644 21.6849 -187.501 36.0569 -187.266Z"></path>
  <path fill="none" stroke="black" stroke-width="9" stroke-miterlimit="4" transform="matrix(1.00146 0 0 1.00146 343 256)" d="M20.9748 -172.768C32.9327 -172.573 42.4902 -164.055 42.3219 -153.744C42.1537 -143.432 32.3235 -135.231 20.3655 -135.426C8.40761 -135.622 -1.14981 -144.139 -0.981571 -154.45C-0.81333 -164.762 9.01687 -172.963 20.9748 -172.768Z"></path>
  <path fill="none" stroke="black" stroke-width="9" stroke-miterlimit="4" transform="matrix(1.00146 0 0 1.00146 343 256)" d="M1.52344 -196.426C8.0189 -196.32 13.2104 -191.693 13.119 -186.092C13.0276 -180.491 7.68796 -176.036 1.1925 -176.142C-5.30296 -176.248 -10.4945 -180.875 -10.4031 -186.476C-10.3117 -192.077 -4.97201 -196.532 1.52344 -196.426Z"></path>
  <path fill="#6C88D9" transform="matrix(1.75232 0.0285905 -0.0285905 1.75232 404.725 124.754)" d="M3.8147e-06 -29.5C19.0538 -29.5 34.5 -16.1805 34.5 0.250008C34.5 16.6805 19.0538 30 3.8147e-06 30C-19.0538 30 -34.5 16.6805 -34.5 0.250008C-34.5 -16.1805 -19.0538 -29.5 3.8147e-06 -29.5Z"></path>
  <path fill="#6C88D9" transform="matrix(0.755384 0.0123247 -0.0123247 0.755384 378.746 90.7444)" d="M-3.8147e-06 -29.5C19.0538 -29.5 34.5 -16.1805 34.5 0.249985C34.5 16.6805 19.0538 30 -3.8147e-06 30C-19.0538 30 -34.5 16.6805 -34.5 0.249985C-34.5 -16.1805 -19.0538 -29.5 -3.8147e-06 -29.5Z"></path>
  <path fill="#6C88D9" transform="matrix(0.628503 0.0102545 -0.0102545 0.628503 363.703 101.521)" d="M-1.85193e-06 -29.5C19.0538 -29.5 34.5 -16.1805 34.5 0.24997C34.5 16.6804 19.0538 30 -1.96276e-06 30C-19.0538 30 -34.5 16.6804 -34.5 0.249969C-34.5 -16.1805 -19.0538 -29.5 -1.85193e-06 -29.5Z"></path>
  <path fill="#6C88D9" transform="matrix(0.341398 0.00557018 -0.00557018 0.341398 344.361 69.3586)" d="M-4.76837e-07 -29.5001C19.0538 -29.5001 34.5 -16.1805 34.5 0.249939C34.5 16.6804 19.0538 29.9999 -4.76837e-07 29.9999C-19.0538 29.9999 -34.5 16.6804 -34.5 0.249939C-34.5 -16.1805 -19.0538 -29.5001 -4.76837e-07 -29.5001Z"></path>
  <path fill="#91A8EB" transform="matrix(1.46935 0.0239736 -0.0239736 1.46935 447.201 283.079)" d="M0.24998 -81.5196C49.8787 -81.2985 84.5 -60 84.5 1.90735e-06C84.5 41.1452 46.78 74.5 0.25 74.5C-62.1254 74.5 -84 60.12 -84 1.90735e-06C-84 -71.2881 -62.1254 -81.5197 0.24998 -81.5196Z"></path>
  <clipPath id="cl_4b">
    <path d="M451.187 142.73C516.242 143.791 598.316 180.355 596.601 285.495C595.425 357.594 528.252 418.08 446.716 416.75C337.414 414.967 299.616 386.027 301.335 280.677C303.373 155.758 362.312 141.28 451.187 142.73Z"></path>
  </clipPath>
  <g clip-path="url(#cl_4b)">
    <path fill="#A6B8EF" transform="matrix(0.784709 0.0128031 -0.0147656 0.904991 501.392 248.883)" d="M0.249995 -81.5197C49.8788 -81.2985 84.5 -60 84.5 -9.53674e-07C84.5 41.1452 67.1354 74.5 20.6054 74.5C-41.77 74.5 -84 60.12 -84 -9.53674e-07C-84 -71.2881 -62.1254 -81.5197 0.249995 -81.5197Z"></path>
    <path fill="#C1CBE8" transform="matrix(0.192776 -0.197383 0.433955 0.423827 523.884 201.321)" d="M11.5671 -77.0972C58.0971 -77.0972 97.5959 -41.1452 97.5959 -1.38082e-05C97.5959 41.1452 73.4188 83.0524 26.8888 83.0524C-35.4866 83.0524 11.8086 60.12 11.8086 -1.50866e-05C11.8086 -41.1452 -34.9629 -77.0972 11.5671 -77.0972Z"></path>
    <path fill="#C1CBE8" transform="matrix(0.192776 -0.197383 0.179346 0.175161 567.155 263.981)" d="M48.93 -79.7643C80.6763 -79.053 77.4946 -42.8889 62.8508 4.00562C48.2069 50.9001 -0.0393867 91.2963 -20.4536 67.7769C-40.8678 44.2576 -16.8141 31.8032 -0.458961 -5.13884C15.8962 -42.0808 17.1838 -80.4755 48.93 -79.7643Z"></path>
  </g>
  <path fill="#91A8EB" transform="matrix(1.34311 0 0 1.34311 394.496 353.187)" d="M0.251598 -0.755875C18.4562 -1.62766 32.0066 -3.06904 34.9175 48.3422C35.9632 73.8087 29.1876 88.7393 18.6734 89.0937C8.15907 89.4482 -0.458759 90.0612 -10.769 90.7527C-21.1305 91.3742 -29.4935 75.0681 -30.5391 49.6016C-33.8662 -3.99643 -17.9529 0.115929 0.251598 -0.755875Z"></path>
  <path fill="#91A8EB" transform="matrix(1.75232 0.0285905 -0.0285905 1.75232 404.725 124.754)" d="M3.8147e-06 -22.5C14.6355 -22.5 26.5 -12.3145 26.5 0.250008C26.5 12.8145 14.6355 23 3.8147e-06 23C-14.6355 23 -26.5 12.8145 -26.5 0.250008C-26.5 -12.3145 -14.6355 -22.5 3.8147e-06 -22.5Z"></path>
  <path fill="#91A8EB" transform="matrix(0.590878 0.00964063 -0.00964063 0.590878 378.746 92.8933)" d="M-3.77232e-06 -22.5C14.6355 -22.5 26.5 -12.3145 26.5 0.25C26.5 12.8145 14.6355 23 -3.85707e-06 23C-14.6355 23 -26.5 12.8145 -26.5 0.25C-26.5 -12.3145 -14.6355 -22.5 -3.77232e-06 -22.5Z"></path>
  <path fill="#91A8EB" transform="matrix(0.491629 0.00802131 -0.00802131 0.491629 363.703 103.309)" d="M-3.8147e-06 -22.5C14.6355 -22.5 26.5 -12.3144 26.5 0.250031C26.5 12.8145 14.6355 23 -3.8147e-06 23C-14.6356 23 -26.5 12.8145 -26.5 0.250031C-26.5 -12.3144 -14.6356 -22.5 -3.8147e-06 -22.5Z"></path>
  <path fill="#91A8EB" transform="matrix(0.267049 0.00435711 -0.00435711 0.267049 345.331 71.3864)" d="M9.53674e-06 -22.4261C14.2962 -22.4261 25.8855 -12.274 25.8855 0.249268C25.8855 12.7726 14.2962 22.9247 9.53674e-06 22.9247C-14.2962 22.9247 -25.8855 12.7726 -25.8855 0.249268C-25.8855 -12.274 -14.2962 -22.4261 9.53674e-06 -22.4261Z"></path>
  <path fill="#C1CBE8" transform="matrix(0.0718703 -0.111803 0.256925 0.165159 341.799 68.8548)" d="M0 -11.5C14.6355 -11.5 28.0061 -7.98325 28.0061 -1.63198C28.0061 4.7193 15.5059 0.400216 0.870357 0.400216C-13.7652 0.400215 -26.766 4.37692 -26.766 -1.97436C-26.766 -8.32563 -14.6355 -11.5 0 -11.5Z"></path>
  <path fill="#C1CBE8" transform="matrix(-0.162443 -0.555435 0.857234 -0.250708 363.741 128.989)" d="M1.52588e-05 -11.5C14.6356 -11.5 28.0061 -7.98328 28.0061 -1.632C28.0061 4.71927 15.5059 0.40019 0.870372 0.40019C-13.7652 0.400188 -26.766 4.37689 -26.766 -1.97438C-26.766 -8.32566 -14.6355 -11.5 1.52588e-05 -11.5Z"></path>
  <path fill="#1B2B56" transform="matrix(1.7396 -0.212721 0.0638164 0.521879 410.046 102.238)" d="M9.31323e-09 -2.5C1.38071 -2.5 2.5 -1.38071 2.5 0C2.5 1.38071 1.38071 2.5 -9.31323e-09 2.5C-1.38071 2.5 -2.5 1.38071 -2.5 0C-2.5 -1.38071 -1.38071 -2.5 9.31323e-09 -2.5Z"></path>
  <path fill="none" stroke="#1B2B56" stroke-width="0.5" stroke-linecap="round" stroke-linejoin="round" transform="matrix(1.7359 -0.241072 0.241072 1.7359 418.462 101.156)" d="M1.98548 0.277989C2.99638 0.254555 6.02909 0.184252 6.02909 0.184252"></path>
  <path fill="#1B2B56" transform="matrix(1.7396 -0.212721 0.0638164 0.521879 437.88 98.8347)" d="M9.31323e-09 -2.5C1.38071 -2.5 2.5 -1.38071 2.5 0C2.5 1.38071 1.38071 2.5 -9.31323e-09 2.5C-1.38071 2.5 -2.5 1.38071 -2.5 0C-2.5 -1.38071 -1.38071 -2.5 9.31323e-09 -2.5Z"></path>
  <path fill="#354B89" transform="matrix(1.42645 -0.861678 0.905069 0.706104 429.874 92.0854)" d="M0 -2.49999C1.38071 -2.49999 2.5 -1.3807 2.5 7.62939e-06C2.5 1.38072 1.38071 2.50001 0 2.50001C-1.38071 2.50001 -2.5 1.38072 -2.5 7.62939e-06C-2.5 -1.3807 -1.38071 -2.49999 0 -2.49999Z"></path>
  <path fill="#354B89" transform="matrix(2.10554 0.289111 -0.613236 1.04501 414.322 93.0002)" d="M6.67572e-06 -2.98532C1.68306 -2.98532 3.04745 -1.64874 3.04745 1.52588e-05C3.04745 1.64877 1.68306 2.98535 6.67572e-06 2.98535C-1.68305 2.98535 -3.04743 1.64877 -3.04743 1.52588e-05C-3.04743 -1.64874 -1.68305 -2.98532 6.67572e-06 -2.98532Z"></path>
  <path fill="none" stroke="black" stroke-width="7" stroke-linecap="round" stroke-linejoin="round" transform="matrix(2.09669 0 0 2.07948 335.406 291.353)" d="M27.3341 -29.5853C28.925 -24.0457 30.9092 -15.4171 31.6931 -1.40946C33.8498 27.3876 33.2771 50.3242 8.13193 52.9603C-7.6644 54.5143 -23.0532 31.7193 -25.2106 2.91244C-26.7842 -20.7664 -17.4957 -42.241 -5.91476 -53.1205"></path>
  <path fill="#6C88D9" transform="matrix(2.09669 0 0 2.07948 335.406 291.353)" d="M13.4585 -60.1671C17.2388 -56.0175 24.7733 -41.5305 25.103 -37.617C25.4327 -33.7035 30.343 -25.534 31.6931 -1.40946C33.8498 27.3876 33.2771 50.3242 8.13193 52.9603C-7.6644 54.5143 -23.0532 31.7193 -25.2106 2.91244C-27.6319 -33.523 -4.33524 -64.7393 13.4585 -60.1671Z"></path>
  <path fill="#91A8EB" transform="matrix(1.63266 0 0 2.03602 339.29 285.791)" d="M14.5028 -53.719C36.6396 -54.6656 29.6501 -30.2579 31.3463 -2.26385C34.2143 26.1878 30.6576 49.4825 15.5028 51.95C0.348128 54.4175 -20.1611 31.8063 -24.6678 3.39398C-28.2124 -25.9228 -7.63399 -52.7723 14.5028 -53.719Z"></path>
  <path fill="none" stroke="white" stroke-width="5" stroke-linecap="round" stroke-linejoin="round" transform="matrix(1.50219 0 0 1.50219 258.877 362.655)" d=""></path>
  <path fill="none" stroke="white" stroke-width="5" stroke-linecap="round" stroke-linejoin="round" transform="matrix(1.11139 0 0 1.11139 243.355 245.985)" d=""></path>
</svg>