<?xml version="1.0" encoding="utf-8"?>
<svg xmlns="http://www.w3.org/2000/svg" xmlns:xlink="http://www.w3.org/1999/xlink" width="686" height="512">
  <path fill="none" stroke="black" stroke-width="7" stroke-linejoin="round" transform="matrix(1.75255 0 0 1.75255 400.252 414.526)" d="M0.164043 -46.2616C18.3894 -46.3155 31.0388 -39.0968 31.4893 5.19035C32.2257 34.1985 25.0224 44.3211 14.5028 44.2033C3.98324 44.0855 -4.65345 44.3112 -14.9844 44.5393C-25.4476 44.5897 -30.9872 33.5282 -31.7235 4.507C-32.4919 -41.9832 -18.0613 -46.2078 0.164043 -46.2616Z"></path>
  <path fill="none" stroke="black" stroke-width="7" stroke-linejoin="round" transform="matrix(-2.09669 -3.16894e-07 -3.14293e-07 2.07948 541.627 281.944)" d="M18.4249 -58.663C21.7945 -54.1681 27.9211 -39.0213 27.8783 -35.094C27.8355 -31.1666 32.2355 -22.2521 30.9557 2.08302C29.7398 30.9469 25.3067 54.0363 0.0424271 53.1161C-15.8146 52.4371 -27.2874 28.5047 -26.0716 -0.359159C-24.5472 -36.5461 1.14601 -64.9291 18.4249 -58.663Z"></path>
  <path fill="none" stroke="black" stroke-width="7" stroke-linejoin="round" transform="matrix(1.75232 0.0285905 -0.0285905 1.75232 454.286 283.079)" d="M0.209618 -80.0966C37.3348 -80.0966 84.5 -60 84.5 0C84.5 41.1452 46.7396 76.2788 0.209618 76.2788C-62.1658 76.2788 -84 60.12 -84 0C-84 -71.2881 -50.5087 -80.0966 0.209618 -80.0966Z"></path>
  <path fill="none" stroke="black" stroke-width="7" stroke-linejoin="round" transform="matrix(1.49621 0 0 1.75255 495.766 403.135)" d="M-0.550415 -47.8615C17.6677 -48.3038 33.2643 -41.7708 34.7244 7.78805C35.569 21.6247 30.0843 45.4712 16.4071 45.6192C2.73001 45.7672 -3.40514 45.8335 -15.6062 45.9656C-27.8073 46.0976 -30.4044 23.2264 -31.249 9.38972C-33.0928 -42.3514 -18.7685 -47.4192 -0.550415 -47.8615Z"></path>
  <path fill="#6C88D9" transform="matrix(-2.09669 -3.16894e-07 -3.14293e-07 2.07948 541.627 281.944)" d="M18.4249 -58.663C21.7945 -54.1681 27.9211 -39.0213 27.8783 -35.094C27.8355 -31.1666 32.2355 -22.2521 30.9557 2.08302C29.7398 30.9469 25.3067 54.0363 0.0424347 53.1161C-15.8146 52.4371 -27.2874 28.5047 -26.0716 -0.359159C-24.5472 -36.5461 1.14602 -64.9291 18.4249 -58.663Z"></path>
  <path fill="#5170C8" transform="matrix(1.49621 0 0 1.75255 495.766 403.135)" d="M-0.550415 -47.8615C17.6677 -48.3038 33.2643 -41.7708 34.7244 7.78805C35.569 21.6247 30.0843 45.4712 16.4071 45.6192C2.73001 45.7672 -3.40514 45.8335 -15.6062 45.9656C-27.8073 46.0976 -30.4044 23.2264 -31.249 9.38972C-33.0928 -42.3514 -18.7685 -47.4192 -0.550415 -47.8615Z"></path>
  <path fill="#839BE0" transform="matrix(1.17156 0 0 1.37229 495.766 403.135)" d="M-0.279816 -48.422C17.9383 -48.8643 32.9861 -42.2344 34.7228 11.8121C34.8132 29.7469 26.3343 45.0185 12.6572 45.1665C-1.02002 45.3145 -0.844406 45.3631 -13.0455 45.4951C-25.2466 45.6272 -31.1603 31.3486 -31.2506 13.4138C-33.371 -42.815 -18.4979 -47.9797 -0.279816 -48.422Z"></path>
  <path fill="#6C88D9" transform="matrix(1.75255 0 0 1.75255 400.252 414.526)" d="M0.164043 -46.2616C18.3894 -46.3155 31.0388 -39.0968 31.4893 5.19035C32.2257 34.1985 25.0224 44.3211 14.5028 44.2033C3.98324 44.0855 -4.65345 44.3112 -14.9844 44.5393C-25.4476 44.5897 -30.9872 33.5282 -31.7235 4.507C-32.4919 -41.9832 -18.0613 -46.2078 0.164043 -46.2616Z"></path>
  <path fill="#91A8EB" transform="matrix(-1.63266 -2.46762e-07 -3.07725e-07 2.03602 537.742 276.382)" d="M20.2864 -52.2365C42.4347 -51.4821 34.2247 -26.9093 31.077 1.60099C27.9294 30.1112 14.8084 53.0388 -0.64164 52.5126C-16.0917 51.9863 -26.9984 28.3127 -25.4786 -0.380267C-23.9589 -29.0732 -1.86186 -52.9908 20.2864 -52.2365Z"></path>
  <path fill="none" stroke="black" stroke-width="7" stroke-miterlimit="4" transform="matrix(1.75232 0.0285905 -0.0285905 1.75232 413.097 124.69)" d="M0 -29.5C19.0538 -29.5 34.5 -16.1805 34.5 0.25C34.5 16.6805 19.0538 30 0 30C-19.0538 30 -34.5 16.6805 -34.5 0.25C-34.5 -16.1805 -19.0538 -29.5 0 -29.5Z"></path>
  <path fill="#6C88D9" transform="matrix(1.75232 0.0285905 -0.0285905 1.75232 454.286 283.079)" d="M0.209618 -80.0966C37.3348 -80.0966 84.5 -60 84.5 0C84.5 41.1452 46.7396 76.2788 0.209618 76.2788C-62.1658 76.2788 -84 60.12 -84 0C-84 -71.2881 -50.5087 -80.0966 0.209618 -80.0966Z"></path>
  <path fill="none" stroke="black" stroke-width="9" stroke-miterlimit="4" transform="matrix(1.00146 0 0 1.00146 343 256)" d="M44.4158 -187.33C58.7877 -187.095 70.2746 -176.858 70.0724 -164.465C69.8702 -152.072 58.0555 -142.215 43.6835 -142.45C29.3115 -142.684 17.8247 -152.921 18.0269 -165.314C18.2291 -177.708 30.0438 -187.564 44.4158 -187.33Z"></path>
  <path fill="none" stroke="black" stroke-width="9" stroke-miterlimit="4" transform="matrix(1.00146 0 0 1.00146 343 256)" d="M29.3337 -172.832C41.2916 -172.636 50.849 -164.119 50.6808 -153.808C50.5125 -143.496 40.6823 -135.295 28.7244 -135.49C16.7665 -135.685 7.20905 -144.203 7.37729 -154.514C7.54553 -164.826 17.3757 -173.027 29.3337 -172.832Z"></path>
  <path fill="none" stroke="black" stroke-width="9" stroke-miterlimit="4" transform="matrix(1.00146 0 0 1.00146 343 256)" d="M9.88231 -196.49C16.3778 -196.384 21.5693 -191.757 21.4779 -186.156C21.3865 -180.555 16.0468 -176.1 9.55136 -176.206C3.05591 -176.312 -2.13561 -180.939 -2.04423 -186.54C-1.95284 -192.141 3.38685 -196.596 9.88231 -196.49Z"></path>
  <path fill="#6C88D9" transform="matrix(1.75232 0.0285905 -0.0285905 1.75232 413.097 124.69)" d="M0 -29.5C19.0538 -29.5 34.5 -16.1805 34.5 0.25C34.5 16.6805 19.0538 30 0 30C-19.0538 30 -34.5 16.6805 -34.5 0.25C-34.5 -16.1805 -19.0538 -29.5 0 -29.5Z"></path>
  <path fill="#6C88D9" transform="matrix(0.755384 0.0123247 -0.0123247 0.755384 387.117 90.6806)" d="M-3.8147e-06 -29.5C19.0538 -29.5 34.5 -16.1805 34.5 0.250015C34.5 16.6805 19.0538 30 -3.8147e-06 30C-19.0538 30 -34.5 16.6805 -34.5 0.250015C-34.5 -16.1805 -19.0538 -29.5 -3.8147e-06 -29.5Z"></path>
  <path fill="#6C88D9" transform="matrix(0.628503 0.0102545 -0.0102545 0.628503 372.074 101.457)" d="M3.87011e-06 -29.5C19.0538 -29.5 34.5 -16.1805 34.5 0.249985C34.5 16.6805 19.0538 30 3.75928e-06 30C-19.0538 30 -34.5 16.6805 -34.5 0.249985C-34.5 -16.1805 -19.0538 -29.5 3.87011e-06 -29.5Z"></path>
  <path fill="#6C88D9" transform="matrix(0.341398 0.00557018 -0.00557018 0.341398 352.732 69.2948)" d="M1.90735e-06 -29.5C19.0538 -29.5 34.5 -16.1805 34.5 0.25C34.5 16.6805 19.0538 30 1.90735e-06 30C-19.0538 30 -34.5 16.6805 -34.5 0.25C-34.5 -16.1805 -19.0538 -29.5 1.90735e-06 -29.5Z"></path>
  <path fill="#91A8EB" transform="matrix(1.46935 0.0239736 -0.0239736 1.46935 452.957 283.079)" d="M0.24998 -81.5196C49.8787 -81.2985 84.5 -60 84.5 1.90735e-06C84.5 41.1452 46.78 74.5 0.25 74.5C-62.1254 74.5 -84 60.12 -84 1.90735e-06C-84 -71.2881 -62.1254 -81.5197 0.24998 -81.5196Z"></path>
  <clipPath id="cl_54">
    <path d="M456.943 142.73C521.998 143.791 604.072 180.355 602.357 285.495C601.181 357.594 534.008 418.08 452.472 416.75C343.17 414.967 305.372 386.027 307.091 280.677C309.129 155.758 368.068 141.28 456.943 142.73Z"></path>
  </clipPath>
  <g clip-path="url(#cl_54)">
    <path fill="#A6B8EF" transform="matrix(0.784709 0.0128031 -0.0147656 0.904991 507.148 248.883)" d="M0.24998 -81.5197C49.8788 -81.2985 84.5 -60 84.5 -9.53674e-07C84.5 41.1452 67.1354 74.5 20.6054 74.5C-41.77 74.5 -84 60.12 -84 -9.53674e-07C-84 -71.2881 -62.1254 -81.5197 0.24998 -81.5197Z"></path>
    <path fill="#C1CBE8" transform="matrix(0.192776 -0.197383 0.433955 0.423827 529.64 201.321)" d="M11.5671 -77.0971C58.0971 -77.0971 97.5959 -41.1452 97.5959 1.45057e-06C97.5959 41.1452 73.4188 83.0524 26.8888 83.0524C-35.4866 83.0524 11.8086 60.12 11.8086 1.72236e-07C11.8086 -41.1452 -34.9629 -77.0972 11.5671 -77.0971Z"></path>
    <path fill="#C1CBE8" transform="matrix(0.192776 -0.197383 0.179346 0.175161 572.911 263.981)" d="M48.93 -79.7643C80.6762 -79.053 77.4945 -42.8889 62.8507 4.00556C48.2068 50.9001 -0.0394478 91.2962 -20.4537 67.7769C-40.8679 44.2575 -16.8141 31.8031 -0.459022 -5.1389C15.8961 -42.0809 17.1837 -80.4756 48.93 -79.7643Z"></path>
  </g>
  <path fill="#91A8EB" transform="matrix(1.34311 0 0 1.34311 400.252 353.187)" d="M0.255379 -0.715218C18.4807 -0.769096 32.0822 -1.60085 32.6828 49.8893C32.5845 75.377 25.1457 89.9884 14.6261 89.8706C4.10654 89.7529 -4.53013 89.9785 -14.8611 90.2066C-25.24 90.3623 -32.8628 73.6974 -32.7643 48.2096C-33.6826 -5.48368 -17.97 -0.661331 0.255379 -0.715218Z"></path>
  <path fill="#91A8EB" transform="matrix(1.75232 0.0285905 -0.0285905 1.75232 413.097 124.69)" d="M0 -22.5C14.6355 -22.5 26.5 -12.3145 26.5 0.25C26.5 12.8145 14.6355 23 0 23C-14.6355 23 -26.5 12.8145 -26.5 0.25C-26.5 -12.3145 -14.6355 -22.5 0 -22.5Z"></path>
  <path fill="#91A8EB" transform="matrix(0.590878 0.00964063 -0.00964063 0.590878 387.117 92.8296)" d="M-7.58702e-06 -22.5C14.6355 -22.5 26.5 -12.3144 26.5 0.250031C26.5 12.8145 14.6355 23 -7.67177e-06 23C-14.6356 23 -26.5 12.8145 -26.5 0.25003C-26.5 -12.3144 -14.6356 -22.5 -7.58702e-06 -22.5Z"></path>
  <path fill="#91A8EB" transform="matrix(0.491629 0.00802131 -0.00802131 0.491629 372.074 103.245)" d="M-7.62939e-06 -22.5C14.6355 -22.5 26.5 -12.3145 26.5 0.25C26.5 12.8145 14.6355 23 -7.62939e-06 23C-14.6356 23 -26.5 12.8145 -26.5 0.25C-26.5 -12.3145 -14.6356 -22.5 -7.62939e-06 -22.5Z"></path>
  <path fill="#91A8EB" transform="matrix(0.267049 0.00435711 -0.00435711 0.267049 353.702 71.3226)" d="M5.72205e-06 -22.4261C14.2962 -22.4261 25.8855 -12.274 25.8855 0.249268C25.8855 12.7726 14.2962 22.9247 5.72205e-06 22.9247C-14.2962 22.9247 -25.8855 12.7726 -25.8855 0.249268C-25.8855 -12.274 -14.2962 -22.4261 5.72205e-06 -22.4261Z"></path>
  <path fill="#C1CBE8" transform="matrix(0.0718703 -0.111803 0.256925 0.165159 350.073 68.791)" d="M0 -11.5C14.6355 -11.5 28.0061 -7.98325 28.0061 -1.63198C28.0061 4.7193 15.5059 0.400216 0.870357 0.400216C-13.7652 0.400215 -26.766 4.37692 -26.766 -1.97436C-26.766 -8.32563 -14.6355 -11.5 0 -11.5Z"></path>
  <path fill="#C1CBE8" transform="matrix(-0.162443 -0.555435 0.857234 -0.250708 372.015 128.925)" d="M-1.52588e-05 -11.5C14.6355 -11.5 28.0061 -7.98329 28.0061 -1.63202C28.0061 4.71926 15.5059 0.400178 0.870341 0.400178C-13.7652 0.400177 -26.766 4.37688 -26.766 -1.97439C-26.766 -8.32567 -14.6356 -11.5 -1.52588e-05 -11.5Z"></path>
  <path fill="#1B2B56" transform="matrix(1.7396 -0.212721 0.0638164 0.521879 423.242 102.175)" d="M-3.80538e-06 -2.50003C1.38071 -2.50003 2.5 -1.38074 2.5 -3.05176e-05C2.5 1.38068 1.38071 2.49997 -3.82401e-06 2.49997C-1.38072 2.49997 -2.5 1.38068 -2.5 -3.05176e-05C-2.5 -1.38074 -1.38072 -2.50003 -3.80538e-06 -2.50003Z"></path>
  <path fill="none" stroke="#1B2B56" stroke-width="0.5" stroke-linecap="round" stroke-linejoin="round" transform="matrix(1.7359 -0.241072 0.241072 1.7359 431.658 101.092)" d="M1.98548 0.277989C2.99638 0.254555 6.02909 0.184252 6.02909 0.184252"></path>
  <path fill="#1B2B56" transform="matrix(1.7396 -0.212721 0.0638164 0.521879 451.076 98.771)" d="M9.31323e-09 -2.5C1.38071 -2.5 2.5 -1.38071 2.5 0C2.5 1.38071 1.38071 2.5 -9.31323e-09 2.5C-1.38071 2.5 -2.5 1.38071 -2.5 0C-2.5 -1.38071 -1.38071 -2.5 9.31323e-09 -2.5Z"></path>
  <path fill="#354B89" transform="matrix(1.42645 -0.861678 0.905069 0.706104 443.07 92.0217)" d="M7.62939e-06 -2.50001C1.38072 -2.50001 2.50001 -1.38072 2.50001 -7.62939e-06C2.50001 1.3807 1.38072 2.49999 7.62939e-06 2.49999C-1.3807 2.49999 -2.49999 1.3807 -2.49999 -7.62939e-06C-2.49999 -1.38072 -1.3807 -2.50001 7.62939e-06 -2.50001Z"></path>
  <path fill="#354B89" transform="matrix(2.10554 0.289111 -0.613236 1.04501 427.518 92.9364)" d="M9.53674e-07 -2.98532C1.68306 -2.98532 3.04744 -1.64874 3.04744 1.52588e-05C3.04744 1.64877 1.68306 2.98535 9.53674e-07 2.98535C-1.68305 2.98535 -3.04744 1.64877 -3.04744 1.52588e-05C-3.04744 -1.64874 -1.68305 -2.98532 9.53674e-07 -2.98532Z"></path>
  <path fill="none" stroke="black" stroke-width="7" stroke-linecap="round" stroke-linejoin="round" transform="matrix(2.09669 0 0 2.07948 341.162 291.353)" d="M26.7558 -28.6791C28.1385 -22.9874 29.7653 -14.1174 29.7346 0.137154C30.0115 29.0249 26.9584 52.248 1.68244 52.7425C-14.1876 52.9515 -27.0642 29.581 -27.3411 0.691746C-27.5357 -22.8238 -17.3612 -43.5709 -5.39525 -53.7774"></path>
  <path fill="#6C88D9" transform="matrix(2.09669 0 0 2.07948 341.162 291.353)" d="M14.281 -59.8442C17.8636 -55.52 24.7141 -40.6918 24.8609 -36.767C25.0077 -32.8422 29.787 -24.2008 29.7346 0.137154C30.0115 29.0249 26.9584 52.248 1.68244 52.7425C-14.1876 52.9515 -27.0642 29.581 -27.3411 0.691746C-27.6412 -35.5737 -3.27985 -65.255 14.281 -59.8442Z"></path>
  <path fill="#91A8EB" transform="matrix(1.63266 0 0 2.03602 345.046 285.791)" d="M15.2662 -53.4099C37.434 -53.5208 29.4644 -29.234 29.1567 -1.04603C29.6952 27.5293 23.0649 50.8099 7.70503 52.2466C-7.65481 53.6833 -25.0879 30.2829 -27.2666 1.66072C-28.6725 -27.5983 -6.90158 -53.299 15.2662 -53.4099Z"></path>
  <path fill="none" stroke="white" stroke-width="5" stroke-linecap="round" stroke-linejoin="round" transform="matrix(1.50219 0 0 1.50219 258.877 362.655)" d=""></path>
  <path fill="none" stroke="white" stroke-width="5" stroke-linecap="round" stroke-linejoin="round" transform="matrix(1.11139 0 0 1.11139 243.355 245.985)" d=""></path>
</svg>