<?xml version="1.0" encoding="utf-8"?>
<svg xmlns="http://www.w3.org/2000/svg" xmlns:xlink="http://www.w3.org/1999/xlink" width="686" height="512">
  <path fill="none" stroke="#181818" stroke-width="7" stroke-linejoin="round" transform="matrix(1.75255 0 0 1.75255 400.987 414.526)" d="M0.225746 -46.2577C18.4511 -46.2069 31.0588 -38.9157 31.2551 5.37342C31.8251 34.3853 24.5637 44.4665 14.045 44.2883C3.52623 44.1101 -5.11157 44.2862 -15.4437 44.455C-25.907 44.4453 -31.383 33.3521 -31.9527 4.32717C-32.4543 -42.1667 -17.9996 -46.3084 0.225746 -46.2577Z"></path>
  <path fill="none" stroke="#181818" stroke-width="7" stroke-linejoin="round" transform="matrix(-2.09669 -3.16894e-07 -3.14293e-07 2.07948 542.362 281.944)" d="M18.4249 -58.663C21.7945 -54.1681 27.9211 -39.0213 27.8783 -35.094C27.8355 -31.1666 32.2355 -22.2521 30.9557 2.08302C29.7398 30.9469 25.3066 54.0363 0.0424194 53.1161C-15.8146 52.4371 -27.2875 28.5047 -26.0716 -0.359159C-24.5472 -36.5461 1.14601 -64.9291 18.4249 -58.663Z"></path>
  <path fill="none" stroke="#181818" stroke-width="7" stroke-linejoin="round" transform="matrix(1.75232 0.0285905 -0.0285905 1.75232 455.021 283.079)" d="M0.209625 -80.0966C37.3348 -80.0966 84.5 -60 84.5 -9.53674e-07C84.5 41.1452 46.7396 76.2788 0.209625 76.2788C-62.1658 76.2788 -84 60.12 -84 -9.53674e-07C-84 -71.2881 -50.5087 -80.0966 0.209625 -80.0966Z"></path>
  <path fill="none" stroke="#181818" stroke-width="7" stroke-linejoin="round" transform="matrix(1.49621 0 0 1.75255 496.501 403.135)" d="M-0.454735 -47.8566C17.7659 -48.2121 33.3195 -41.6049 34.4557 7.9602C35.2098 21.8007 29.5692 45.6206 15.8913 45.7035C2.21347 45.7863 -3.92197 45.8234 -16.1237 45.8973C-28.3254 45.9712 -30.773 23.088 -31.5271 9.24745C-33.0326 -42.5018 -18.6753 -47.5012 -0.454735 -47.8566Z"></path>
  <path fill="#7891D9" transform="matrix(-2.09669 -3.16894e-07 -3.14293e-07 2.07948 542.362 281.944)" d="M18.4249 -58.663C21.7945 -54.1681 27.9211 -39.0213 27.8783 -35.094C27.8355 -31.1666 32.2355 -22.2521 30.9557 2.08302C29.7398 30.9469 25.3067 54.0363 0.0424271 53.1161C-15.8146 52.4371 -27.2875 28.5047 -26.0716 -0.359159C-24.5472 -36.5461 1.14602 -64.9291 18.4249 -58.663Z"></path>
  <path fill="#607BCA" transform="matrix(1.49621 0 0 1.75255 496.501 403.135)" d="M-0.454735 -47.8566C17.7659 -48.2121 33.3195 -41.6049 34.4557 7.9602C35.2098 21.8007 29.5692 45.6206 15.8913 45.7035C2.21347 45.7863 -3.92197 45.8234 -16.1237 45.8973C-28.3254 45.9712 -30.773 23.088 -31.5271 9.24745C-33.0326 -42.5018 -18.6753 -47.5012 -0.454735 -47.8566Z"></path>
  <path fill="#8CA2DF" transform="matrix(1.17156 0 0 1.37229 496.501 403.135)" d="M-0.240723 -48.414C17.98 -48.7694 32.9843 -42.0679 34.3676 11.9861C34.3406 29.921 25.762 45.1519 12.0841 45.2348C-1.59375 45.3176 -1.41846 45.3671 -13.6202 45.4409C-25.8219 45.5148 -31.6422 31.2082 -31.6152 13.2733C-33.368 -42.9648 -18.4613 -48.0585 -0.240723 -48.414Z"></path>
  <path fill="#7891D9" transform="matrix(1.75255 0 0 1.75255 400.987 414.526)" d="M0.225746 -46.2577C18.4511 -46.2069 31.0588 -38.9157 31.2551 5.37342C31.8251 34.3853 24.5637 44.4665 14.045 44.2883C3.52623 44.1101 -5.11157 44.2862 -15.4437 44.455C-25.907 44.4453 -31.383 33.3521 -31.9527 4.32717C-32.4543 -42.1667 -17.9996 -46.3084 0.225746 -46.2577Z"></path>
  <path fill="#99ADE9" transform="matrix(-1.63266 -2.46762e-07 -3.07725e-07 2.03602 538.477 276.382)" d="M20.2864 -52.2365C42.4347 -51.4821 34.2247 -26.9093 31.077 1.60099C27.9294 30.1112 14.8084 53.0388 -0.641647 52.5126C-16.0917 51.9863 -26.9984 28.3127 -25.4787 -0.380267C-23.9589 -29.0732 -1.86185 -52.9908 20.2864 -52.2365Z"></path>
  <path fill="none" stroke="#181818" stroke-width="7" stroke-miterlimit="4" transform="matrix(1.75232 0.0285905 -0.0285905 1.75232 414.166 124.682)" d="M-3.8147e-06 -29.5C19.0538 -29.5 34.5 -16.1805 34.5 0.25C34.5 16.6805 19.0538 30 -3.8147e-06 30C-19.0538 30 -34.5 16.6805 -34.5 0.25C-34.5 -16.1805 -19.0538 -29.5 -3.8147e-06 -29.5Z"></path>
  <path fill="#7891D9" transform="matrix(1.75232 0.0285905 -0.0285905 1.75232 455.021 283.079)" d="M0.209625 -80.0966C37.3348 -80.0966 84.5 -60 84.5 -9.53674e-07C84.5 41.1452 46.7396 76.2788 0.209625 76.2788C-62.1658 76.2788 -84 60.12 -84 -9.53674e-07C-84 -71.2881 -50.5087 -80.0966 0.209625 -80.0966Z"></path>
  <path fill="none" stroke="#181818" stroke-width="9" stroke-miterlimit="4" transform="matrix(1.00146 0 0 1.00146 343 256)" d="M45.4834 -187.338C59.8553 -187.103 71.3422 -176.867 71.14 -164.473C70.9378 -152.08 59.1231 -142.224 44.7511 -142.458C30.3791 -142.693 18.8923 -152.929 19.0945 -165.323C19.2967 -177.716 31.1114 -187.572 45.4834 -187.338Z"></path>
  <path fill="none" stroke="#181818" stroke-width="9" stroke-miterlimit="4" transform="matrix(1.00146 0 0 1.00146 343 256)" d="M30.4013 -172.84C42.3592 -172.645 51.9166 -164.127 51.7484 -153.816C51.5801 -143.504 41.7499 -135.303 29.792 -135.498C17.8341 -135.693 8.27666 -144.211 8.4449 -154.522C8.61315 -164.834 18.4433 -173.035 30.4013 -172.84Z"></path>
  <path fill="none" stroke="#181818" stroke-width="9" stroke-miterlimit="4" transform="matrix(1.00146 0 0 1.00146 343 256)" d="M10.9499 -196.498C17.4454 -196.392 22.6369 -191.765 22.5455 -186.164C22.4541 -180.563 17.1144 -176.108 10.619 -176.214C4.12352 -176.32 -1.068 -180.947 -0.976616 -186.548C-0.885229 -192.149 4.45446 -196.604 10.9499 -196.498Z"></path>
  <path fill="#7891D9" transform="matrix(1.75232 0.0285905 -0.0285905 1.75232 414.166 124.682)" d="M-3.8147e-06 -29.5C19.0538 -29.5 34.5 -16.1805 34.5 0.25C34.5 16.6805 19.0538 30 -3.8147e-06 30C-19.0538 30 -34.5 16.6805 -34.5 0.25C-34.5 -16.1805 -19.0538 -29.5 -3.8147e-06 -29.5Z"></path>
  <path fill="#7891D9" transform="matrix(0.755384 0.0123247 -0.0123247 0.755384 388.186 90.6725)" d="M-3.8147e-06 -29.5C19.0538 -29.5 34.5 -16.1805 34.5 0.25C34.5 16.6805 19.0538 30 -3.8147e-06 30C-19.0538 30 -34.5 16.6805 -34.5 0.25C-34.5 -16.1805 -19.0538 -29.5 -3.8147e-06 -29.5Z"></path>
  <path fill="#7891D9" transform="matrix(0.628503 0.0102545 -0.0102545 0.628503 373.143 101.449)" d="M-3.75928e-06 -29.5C19.0538 -29.5 34.5 -16.1805 34.5 0.25C34.5 16.6805 19.0538 30 -3.87011e-06 30C-19.0538 30 -34.5 16.6805 -34.5 0.25C-34.5 -16.1805 -19.0538 -29.5 -3.75928e-06 -29.5Z"></path>
  <path fill="#7891D9" transform="matrix(0.341398 0.00557018 -0.00557018 0.341398 353.802 69.2867)" d="M0 -29.5C19.0538 -29.5 34.5 -16.1805 34.5 0.25C34.5 16.6805 19.0538 30 0 30C-19.0538 30 -34.5 16.6805 -34.5 0.25C-34.5 -16.1805 -19.0538 -29.5 0 -29.5Z"></path>
  <path fill="#99ADE9" transform="matrix(1.46935 0.0239736 -0.0239736 1.46935 453.692 283.079)" d="M0.24998 -81.5196C49.8787 -81.2985 84.5 -60 84.5 1.90735e-06C84.5 41.1452 46.78 74.5 0.25 74.5C-62.1254 74.5 -84 60.12 -84 1.90735e-06C-84 -71.2881 -62.1254 -81.5197 0.24998 -81.5196Z"></path>
  <clipPath id="cl_6">
    <path d="M457.678 142.73C522.734 143.791 604.807 180.355 603.092 285.495C601.916 357.594 534.743 418.08 453.207 416.75C343.906 414.967 306.107 386.027 307.826 280.677C309.864 155.758 368.803 141.28 457.678 142.73Z"></path>
  </clipPath>
  <g clip-path="url(#cl_6)">
    <path fill="#ABBBEC" transform="matrix(0.784709 0.0128031 -0.0147656 0.904991 507.884 248.883)" d="M0.249995 -81.5197C49.8788 -81.2985 84.5 -60 84.5 0C84.5 41.1452 67.1354 74.5 20.6054 74.5C-41.77 74.5 -84 60.12 -84 0C-84 -71.2881 -62.1254 -81.5197 0.249995 -81.5197Z"></path>
    <path fill="#C3CCE6" transform="matrix(0.192776 -0.197383 0.433955 0.423827 530.375 201.321)" d="M11.5672 -77.0971C58.0971 -77.0971 97.596 -41.1452 97.596 1.45057e-06C97.596 41.1452 73.4188 83.0524 26.8888 83.0524C-35.4866 83.0524 11.8087 60.12 11.8087 1.72236e-07C11.8087 -41.1452 -34.9628 -77.0972 11.5672 -77.0971Z"></path>
    <path fill="#C3CCE6" transform="matrix(0.192776 -0.197383 0.179346 0.175161 573.646 263.981)" d="M48.93 -79.7642C80.6763 -79.0529 77.4946 -42.8888 62.8508 4.00568C48.2069 50.9002 -0.0393867 91.2963 -20.4536 67.777C-40.8678 44.2577 -16.8141 31.8032 -0.458961 -5.13878C15.8962 -42.0808 17.1838 -80.4755 48.93 -79.7642Z"></path>
  </g>
  <path fill="#99ADE9" transform="matrix(1.34311 0 0 1.34311 400.987 353.187)" d="M0.255657 -0.709961C18.481 -0.659241 32.087 -1.41288 32.3922 50.0799C32.1475 75.5667 24.6249 90.1352 14.1061 89.957C3.58739 89.7788 -5.05042 89.9549 -15.3825 90.1237C-25.7622 90.2199 -33.2891 73.5113 -33.0444 48.0246C-33.6545 -5.67319 -17.9697 -0.760704 0.255657 -0.709961Z"></path>
  <path fill="#99ADE9" transform="matrix(1.75232 0.0285905 -0.0285905 1.75232 414.166 124.682)" d="M-3.8147e-06 -22.5C14.6355 -22.5 26.5 -12.3145 26.5 0.25C26.5 12.8145 14.6355 23 -3.8147e-06 23C-14.6355 23 -26.5 12.8145 -26.5 0.25C-26.5 -12.3145 -14.6355 -22.5 -3.8147e-06 -22.5Z"></path>
  <path fill="#99ADE9" transform="matrix(0.590878 0.00964063 -0.00964063 0.590878 388.186 92.8214)" d="M4.23752e-08 -22.5C14.6355 -22.5 26.5 -12.3144 26.5 0.250031C26.5 12.8145 14.6355 23 -4.23752e-08 23C-14.6355 23 -26.5 12.8145 -26.5 0.25003C-26.5 -12.3144 -14.6355 -22.5 4.23752e-08 -22.5Z"></path>
  <path fill="#99ADE9" transform="matrix(0.491629 0.00802131 -0.00802131 0.491629 373.143 103.237)" d="M0 -22.5C14.6355 -22.5 26.5 -12.3145 26.5 0.25C26.5 12.8145 14.6355 23 0 23C-14.6355 23 -26.5 12.8145 -26.5 0.25C-26.5 -12.3145 -14.6355 -22.5 0 -22.5Z"></path>
  <path fill="#99ADE9" transform="matrix(0.267049 0.00435711 -0.00435711 0.267049 354.771 71.3145)" d="M7.62939e-06 -22.4261C14.2962 -22.4261 25.8855 -12.274 25.8855 0.249268C25.8855 12.7726 14.2962 22.9247 7.62939e-06 22.9247C-14.2962 22.9247 -25.8855 12.7726 -25.8855 0.249268C-25.8855 -12.274 -14.2962 -22.4261 7.62939e-06 -22.4261Z"></path>
  <path fill="#C3CCE6" transform="matrix(0.0718703 -0.111803 0.256925 0.165159 351.112 68.7829)" d="M0 -11.5C14.6355 -11.5 28.0061 -7.98328 28.0061 -1.63201C28.0061 4.71927 15.5059 0.400186 0.870357 0.400186C-13.7652 0.400184 -26.766 4.37689 -26.766 -1.97439C-26.766 -8.32566 -14.6355 -11.5 0 -11.5Z"></path>
  <path fill="#C3CCE6" transform="matrix(-0.162443 -0.555435 0.857234 -0.250708 373.053 128.917)" d="M1.52588e-05 -11.5C14.6356 -11.5 28.0061 -7.98328 28.0061 -1.63201C28.0061 4.71927 15.5059 0.400186 0.870372 0.400186C-13.7652 0.400184 -26.766 4.37689 -26.766 -1.97439C-26.766 -8.32566 -14.6355 -11.5 1.52588e-05 -11.5Z"></path>
  <path fill="#303E64" transform="matrix(1.7396 -0.212721 0.0638164 0.521879 425.86 102.166)" d="M9.31323e-09 -2.49997C1.38071 -2.49997 2.5 -1.38068 2.5 3.05176e-05C2.5 1.38074 1.38071 2.50003 -9.31323e-09 2.50003C-1.38071 2.50003 -2.5 1.38074 -2.5 3.05176e-05C-2.5 -1.38068 -1.38071 -2.49997 9.31323e-09 -2.49997Z"></path>
  <path fill="none" stroke="#303E64" stroke-width="0.5" stroke-linecap="round" stroke-linejoin="round" transform="matrix(1.7359 -0.241072 0.241072 1.7359 434.276 101.084)" d="M1.98548 0.277981C2.99638 0.254547 6.02909 0.184244 6.02909 0.184244"></path>
  <path fill="#303E64" transform="matrix(1.7396 -0.212721 0.0638164 0.521879 453.694 98.7628)" d="M9.31323e-09 -2.5C1.38071 -2.5 2.5 -1.38071 2.5 0C2.5 1.38071 1.38071 2.5 -9.31323e-09 2.5C-1.38071 2.5 -2.5 1.38071 -2.5 0C-2.5 -1.38071 -1.38071 -2.5 9.31323e-09 -2.5Z"></path>
  <path fill="#475B92" transform="matrix(1.42645 -0.861678 0.905069 0.706104 445.688 92.0135)" d="M1.52588e-05 -2.49999C1.38073 -2.49999 2.50002 -1.3807 2.50002 7.62939e-06C2.50002 1.38072 1.38073 2.50001 1.52588e-05 2.50001C-1.3807 2.50001 -2.49998 1.38072 -2.49998 7.62939e-06C-2.49998 -1.3807 -1.3807 -2.49999 1.52588e-05 -2.49999Z"></path>
  <path fill="#475B92" transform="matrix(2.10554 0.289111 -0.613236 1.04501 430.136 92.9283)" d="M3.09944e-06 -2.98531C1.68306 -2.98531 3.04744 -1.64873 3.04744 3.05176e-05C3.04744 1.64879 1.68306 2.98537 3.09944e-06 2.98537C-1.68305 2.98537 -3.04744 1.64879 -3.04744 3.05176e-05C-3.04744 -1.64873 -1.68305 -2.98531 3.09944e-06 -2.98531Z"></path>
  <path fill="none" stroke="#181818" stroke-width="7" stroke-linecap="round" stroke-linejoin="round" transform="matrix(2.09669 0 0 2.07948 341.897 291.353)" d="M26.7369 -28.6124C28.1704 -22.7619 29.819 -13.6018 29.4019 1.02083C28.5609 29.891 22.8427 53.5494 -2.40341 52.2154C-18.2474 51.2766 -28.4685 28.203 -27.6278 -0.653957C-27.2198 -23.7678 -17.1278 -43.9955 -5.30892 -53.9396"></path>
  <path fill="#7891D9" transform="matrix(2.09669 0 0 2.07948 341.897 291.353)" d="M14.3849 -59.8002C17.9417 -55.4544 24.7037 -40.585 24.8271 -36.6593C24.9506 -32.7337 30.1042 -23.599 29.4019 1.02083C28.5609 29.891 22.8427 53.5494 -2.40341 52.2154C-18.2474 51.2766 -28.4685 28.203 -27.6278 -0.653957C-26.9959 -36.4458 -3.14337 -65.3173 14.3849 -59.8002Z"></path>
  <path fill="#99ADE9" transform="matrix(1.63266 0 0 2.03602 345.781 285.791)" d="M15.3624 -53.3684C37.5306 -53.3725 30.1406 -28.7887 28.9648 -0.348016C28.1211 28.2587 18.2755 51.6251 2.82678 52.175C-12.622 52.7249 -26.8234 29.3097 -27.6185 0.604909C-28.091 -28.3458 -6.80583 -53.3642 15.3624 -53.3684Z"></path>
  <path fill="none" stroke="white" stroke-width="5" stroke-linecap="round" stroke-linejoin="round" transform="matrix(1.50219 0 0 1.50219 258.877 362.655)" d=""></path>
  <path fill="none" stroke="white" stroke-width="5" stroke-linecap="round" stroke-linejoin="round" transform="matrix(1.11139 0 0 1.11139 243.355 245.985)" d=""></path>
</svg>