<?xml version="1.0" encoding="utf-8"?>
<svg xmlns="http://www.w3.org/2000/svg" xmlns:xlink="http://www.w3.org/1999/xlink" width="686" height="512">
  <path fill="none" stroke="#303030" stroke-width="7" stroke-linejoin="round" transform="matrix(1.75255 0 0 1.75255 397.547 414.526)" d="M-0.0633488 -46.2733C18.1568 -46.7119 30.9558 -39.7617 32.341 4.50613C33.6896 33.4923 26.7015 43.7648 16.1818 43.8691C5.66206 43.9733 -2.96792 44.3813 -13.2918 44.8274C-23.7516 45.0986 -29.5234 34.1564 -30.8722 5.15721C-32.6217 -41.3065 -18.2835 -45.8347 -0.0633488 -46.2733Z"></path>
  <path fill="none" stroke="#303030" stroke-width="7" stroke-linejoin="round" transform="matrix(-2.09669 -3.16894e-07 -3.14293e-07 2.07948 538.922 281.944)" d="M18.4249 -58.663C21.7945 -54.1681 27.9211 -39.0213 27.8783 -35.094C27.8355 -31.1666 32.2355 -22.2521 30.9557 2.08302C29.7398 30.9469 25.3067 54.0363 0.0424347 53.1161C-15.8146 52.4371 -27.2874 28.5047 -26.0716 -0.359159C-24.5472 -36.5461 1.14602 -64.9291 18.4249 -58.663Z"></path>
  <path fill="none" stroke="#303030" stroke-width="7" stroke-linejoin="round" transform="matrix(1.75232 0.0285905 -0.0285905 1.75232 451.582 283.079)" d="M0.209618 -80.0966C37.3348 -80.0966 84.5 -60 84.5 -9.53674e-07C84.5 41.1452 46.7396 76.2788 0.209618 76.2788C-62.1658 76.2788 -84 60.12 -84 -9.53674e-07C-84 -71.2881 -50.5087 -80.0966 0.209618 -80.0966Z"></path>
  <path fill="none" stroke="#303030" stroke-width="7" stroke-linejoin="round" transform="matrix(1.49621 0 0 1.75255 493.062 403.135)" d="M-0.901947 -47.8755C17.3016 -48.6367 33.0519 -42.3783 35.7023 7.14474C36.8792 20.9637 31.9686 44.9012 18.2979 45.2886C4.62724 45.6761 -1.50502 45.8499 -13.7003 46.1956C-25.8956 46.5412 -29.0417 23.7203 -30.2187 9.90129C-33.3051 -41.7968 -19.1055 -47.1143 -0.901947 -47.8755Z"></path>
  <path fill="#849AD9" transform="matrix(-2.09669 -3.16894e-07 -3.14293e-07 2.07948 538.922 281.944)" d="M18.4249 -58.663C21.7945 -54.1681 27.9211 -39.0213 27.8783 -35.094C27.8355 -31.1666 32.2355 -22.2521 30.9557 2.08302C29.7398 30.9469 25.3067 54.0363 0.0424423 53.1161C-15.8146 52.4371 -27.2874 28.5047 -26.0715 -0.359159C-24.5472 -36.5461 1.14603 -64.9291 18.4249 -58.663Z"></path>
  <path fill="#6F87CB" transform="matrix(1.49621 0 0 1.75255 493.062 403.135)" d="M-0.901947 -47.8755C17.3016 -48.6367 33.0519 -42.3783 35.7023 7.14474C36.8792 20.9637 31.9686 44.9012 18.2979 45.2886C4.62724 45.6761 -1.50502 45.8499 -13.7003 46.1956C-25.8956 46.5412 -29.0417 23.7203 -30.2187 9.90129C-33.3051 -41.7968 -19.1055 -47.1143 -0.901947 -47.8755Z"></path>
  <path fill="#96A8DE" transform="matrix(1.17156 0 0 1.37229 493.062 403.135)" d="M-0.423683 -48.4499C17.7799 -49.2111 32.9839 -42.8462 36.0187 11.1587C36.5398 29.088 28.4297 44.5049 14.759 44.8924C1.0883 45.2798 1.26512 45.3254 -10.9302 45.6711C-23.1255 46.0167 -29.3812 31.8446 -29.9023 13.9152C-33.3732 -42.2648 -18.6273 -47.6887 -0.423683 -48.4499Z"></path>
  <path fill="#849AD9" transform="matrix(1.75255 0 0 1.75255 397.547 414.526)" d="M-0.0633488 -46.2733C18.1568 -46.7119 30.9558 -39.7617 32.341 4.50613C33.6896 33.4923 26.7015 43.7648 16.1818 43.8691C5.66206 43.9733 -2.96792 44.3813 -13.2918 44.8274C-23.7516 45.0986 -29.5234 34.1564 -30.8722 5.15721C-32.6217 -41.3065 -18.2835 -45.8347 -0.0633488 -46.2733Z"></path>
  <path fill="#A1B2E7" transform="matrix(-1.63266 -2.46762e-07 -3.07725e-07 2.03602 535.038 276.382)" d="M20.2864 -52.2365C42.4347 -51.4821 34.2248 -26.9093 31.0771 1.60099C27.9294 30.1112 14.8084 53.0388 -0.641624 52.5125C-16.0917 51.9863 -26.9984 28.3127 -25.4786 -0.380268C-23.9589 -29.0732 -1.86185 -52.9908 20.2864 -52.2365Z"></path>
  <path fill="none" stroke="#303030" stroke-width="7" stroke-miterlimit="4" transform="matrix(1.75232 0.0285905 -0.0285905 1.75232 409.164 124.72)" d="M0 -29.5C19.0538 -29.5 34.5 -16.1805 34.5 0.250008C34.5 16.6805 19.0538 30 0 30C-19.0538 30 -34.5 16.6805 -34.5 0.250008C-34.5 -16.1805 -19.0538 -29.5 0 -29.5Z"></path>
  <path fill="#849AD9" transform="matrix(1.75232 0.0285905 -0.0285905 1.75232 451.582 283.079)" d="M0.209618 -80.0966C37.3348 -80.0966 84.5 -60 84.5 -9.53674e-07C84.5 41.1452 46.7396 76.2788 0.209618 76.2788C-62.1658 76.2788 -84 60.12 -84 -9.53674e-07C-84 -71.2881 -50.5087 -80.0966 0.209618 -80.0966Z"></path>
  <path fill="none" stroke="#303030" stroke-width="9" stroke-miterlimit="4" transform="matrix(1.00146 0 0 1.00146 343 256)" d="M40.4887 -187.3C54.8607 -187.065 66.3475 -176.829 66.1453 -164.435C65.9431 -152.042 54.1284 -142.186 39.7565 -142.42C25.3845 -142.655 13.8976 -152.891 14.0998 -165.285C14.302 -177.678 26.1167 -187.534 40.4887 -187.3Z"></path>
  <path fill="none" stroke="#303030" stroke-width="9" stroke-miterlimit="4" transform="matrix(1.00146 0 0 1.00146 343 256)" d="M25.4066 -172.802C37.3645 -172.607 46.922 -164.089 46.7537 -153.778C46.5855 -143.466 36.7553 -135.265 24.7974 -135.46C12.8394 -135.655 3.282 -144.173 3.45024 -154.484C3.61849 -164.796 13.4487 -172.997 25.4066 -172.802Z"></path>
  <path fill="none" stroke="#303030" stroke-width="9" stroke-miterlimit="4" transform="matrix(1.00146 0 0 1.00146 343 256)" d="M5.95526 -196.46C12.4507 -196.354 17.6422 -191.727 17.5508 -186.126C17.4595 -180.525 12.1198 -176.07 5.62432 -176.176C-0.87114 -176.282 -6.06266 -180.909 -5.97128 -186.51C-5.87989 -192.111 -0.540197 -196.566 5.95526 -196.46Z"></path>
  <path fill="#849AD9" transform="matrix(1.75232 0.0285905 -0.0285905 1.75232 409.164 124.72)" d="M0 -29.5C19.0538 -29.5 34.5 -16.1805 34.5 0.250008C34.5 16.6805 19.0538 30 0 30C-19.0538 30 -34.5 16.6805 -34.5 0.250008C-34.5 -16.1805 -19.0538 -29.5 0 -29.5Z"></path>
  <path fill="#849AD9" transform="matrix(0.755384 0.0123247 -0.0123247 0.755384 383.184 90.7106)" d="M-3.8147e-06 -29.5C19.0538 -29.5 34.5 -16.1805 34.5 0.249985C34.5 16.6805 19.0538 30 -3.8147e-06 30C-19.0538 30 -34.5 16.6805 -34.5 0.249985C-34.5 -16.1805 -19.0538 -29.5 -3.8147e-06 -29.5Z"></path>
  <path fill="#849AD9" transform="matrix(0.628503 0.0102545 -0.0102545 0.628503 368.141 101.487)" d="M5.54137e-08 -29.5C19.0538 -29.5 34.5 -16.1805 34.5 0.24997C34.5 16.6804 19.0538 30 -5.54137e-08 30C-19.0538 30 -34.5 16.6804 -34.5 0.249969C-34.5 -16.1805 -19.0538 -29.5 5.54137e-08 -29.5Z"></path>
  <path fill="#849AD9" transform="matrix(0.341398 0.00557018 -0.00557018 0.341398 348.8 69.3248)" d="M9.53674e-07 -29.5001C19.0538 -29.5001 34.5 -16.1805 34.5 0.249939C34.5 16.6804 19.0538 29.9999 9.53674e-07 29.9999C-19.0538 29.9999 -34.5 16.6804 -34.5 0.249939C-34.5 -16.1805 -19.0538 -29.5001 9.53674e-07 -29.5001Z"></path>
  <path fill="#A1B2E7" transform="matrix(1.46935 0.0239736 -0.0239736 1.46935 450.253 283.079)" d="M0.24998 -81.5196C49.8787 -81.2985 84.5 -60 84.5 3.8147e-06C84.5 41.1452 46.78 74.5 0.25 74.5C-62.1254 74.5 -84 60.12 -84 3.8147e-06C-84 -71.2881 -62.1254 -81.5197 0.24998 -81.5196Z"></path>
  <clipPath id="cl_9">
    <path d="M454.239 142.73C519.294 143.791 601.368 180.355 599.653 285.495C598.476 357.594 531.304 418.08 449.768 416.75C340.466 414.967 302.668 386.027 304.387 280.677C306.425 155.758 365.364 141.28 454.239 142.73Z"></path>
  </clipPath>
  <g clip-path="url(#cl_9)">
    <path fill="#B1BFEA" transform="matrix(0.784709 0.0128031 -0.0147656 0.904991 504.444 248.883)" d="M0.249995 -81.5197C49.8788 -81.2985 84.5 -60 84.5 -9.53674e-07C84.5 41.1452 67.1354 74.5 20.6054 74.5C-41.77 74.5 -84 60.12 -84 -9.53674e-07C-84 -71.2881 -62.1254 -81.5197 0.249995 -81.5197Z"></path>
    <path fill="#C6CEE4" transform="matrix(0.192776 -0.197383 0.433955 0.423827 526.936 201.321)" d="M11.5671 -77.0971C58.0971 -77.0971 97.5959 -41.1452 97.5959 1.45057e-06C97.5959 41.1452 73.4188 83.0524 26.8888 83.0524C-35.4866 83.0524 11.8086 60.12 11.8086 1.72236e-07C11.8086 -41.1452 -34.9629 -77.0972 11.5671 -77.0971Z"></path>
    <path fill="#C6CEE4" transform="matrix(0.192776 -0.197383 0.179346 0.175161 570.206 263.981)" d="M48.93 -79.7643C80.6762 -79.053 77.4945 -42.8889 62.8507 4.00562C48.2068 50.9001 -0.0394478 91.2963 -20.4537 67.7769C-40.8679 44.2576 -16.8141 31.8032 -0.459022 -5.13884C15.8961 -42.0808 17.1837 -80.4755 48.93 -79.7643Z"></path>
  </g>
  <path fill="#A1B2E7" transform="matrix(1.34311 0 0 1.34311 397.547 353.187)" d="M0.25375 -0.734375C18.4739 -1.17295 32.0549 -2.2916 33.7422 49.1744C34.1818 74.6586 27.0532 89.4239 16.5334 89.5281C6.01362 89.6324 -2.61636 90.0403 -12.9402 90.4864C-23.3136 90.8612 -31.2863 74.3608 -31.7259 48.8766C-33.7774 -4.78541 -17.9664 -0.295799 0.25375 -0.734375Z"></path>
  <path fill="#A1B2E7" transform="matrix(1.75232 0.0285905 -0.0285905 1.75232 409.164 124.72)" d="M0 -22.5C14.6355 -22.5 26.5 -12.3145 26.5 0.250008C26.5 12.8145 14.6355 23 0 23C-14.6355 23 -26.5 12.8145 -26.5 0.250008C-26.5 -12.3145 -14.6355 -22.5 0 -22.5Z"></path>
  <path fill="#A1B2E7" transform="matrix(0.590878 0.00964063 -0.00964063 0.590878 383.184 92.8595)" d="M4.23752e-08 -22.5C14.6355 -22.5 26.5 -12.3144 26.5 0.250031C26.5 12.8145 14.6355 23 -4.23752e-08 23C-14.6355 23 -26.5 12.8145 -26.5 0.25003C-26.5 -12.3144 -14.6355 -22.5 4.23752e-08 -22.5Z"></path>
  <path fill="#A1B2E7" transform="matrix(0.491629 0.00802131 -0.00802131 0.491629 368.141 103.275)" d="M-3.8147e-06 -22.5C14.6355 -22.5 26.5 -12.3144 26.5 0.250031C26.5 12.8145 14.6355 23 -3.8147e-06 23C-14.6356 23 -26.5 12.8145 -26.5 0.250031C-26.5 -12.3144 -14.6356 -22.5 -3.8147e-06 -22.5Z"></path>
  <path fill="#A1B2E7" transform="matrix(0.267049 0.00435711 -0.00435711 0.267049 349.769 71.3526)" d="M7.62939e-06 -22.4261C14.2962 -22.4261 25.8855 -12.274 25.8855 0.249329C25.8855 12.7726 14.2962 22.9247 7.62939e-06 22.9247C-14.2962 22.9247 -25.8855 12.7726 -25.8855 0.249329C-25.8855 -12.274 -14.2962 -22.4261 7.62939e-06 -22.4261Z"></path>
  <path fill="#C6CEE4" transform="matrix(0.0718703 -0.111803 0.256925 0.165159 346.11 68.821)" d="M-0.00012207 -11.5C14.6354 -11.5 28.006 -7.98325 28.006 -1.63198C28.006 4.7193 15.5058 0.400216 0.870234 0.400216C-13.7653 0.400215 -26.7661 4.37692 -26.7661 -1.97436C-26.7661 -8.32563 -14.6357 -11.5 -0.00012207 -11.5Z"></path>
  <path fill="#C6CEE4" transform="matrix(-0.162443 -0.555435 0.857234 -0.250708 368.052 128.955)" d="M-1.52588e-05 -11.5C14.6355 -11.5 28.0061 -7.98329 28.0061 -1.63202C28.0061 4.71926 15.5059 0.400178 0.870341 0.400178C-13.7652 0.400177 -26.766 4.37688 -26.766 -1.97439C-26.766 -8.32567 -14.6356 -11.5 -1.52588e-05 -11.5Z"></path>
  <path fill="#455173" transform="matrix(1.7396 -0.212721 0.0638164 0.521879 420.858 102.205)" d="M9.31323e-09 -2.5C1.38071 -2.5 2.5 -1.38071 2.5 0C2.5 1.38071 1.38071 2.5 -9.31323e-09 2.5C-1.38071 2.5 -2.5 1.38071 -2.5 0C-2.5 -1.38071 -1.38071 -2.5 9.31323e-09 -2.5Z"></path>
  <path fill="none" stroke="#455173" stroke-width="0.5" stroke-linecap="round" stroke-linejoin="round" transform="matrix(1.7359 -0.241072 0.241072 1.7359 429.274 101.122)" d="M1.98548 0.277989C2.99638 0.254555 6.02909 0.184252 6.02909 0.184252"></path>
  <path fill="#455173" transform="matrix(1.7396 -0.212721 0.0638164 0.521879 448.692 98.8009)" d="M9.31323e-09 -2.5C1.38071 -2.5 2.5 -1.38071 2.5 0C2.5 1.38071 1.38071 2.5 -9.31323e-09 2.5C-1.38071 2.5 -2.5 1.38071 -2.5 0C-2.5 -1.38071 -1.38071 -2.5 9.31323e-09 -2.5Z"></path>
  <path fill="#596A9A" transform="matrix(1.42645 -0.861678 0.905069 0.706104 440.686 92.0516)" d="M0 -2.5C1.38071 -2.5 2.5 -1.38071 2.5 0C2.5 1.38071 1.38071 2.5 0 2.5C-1.38071 2.5 -2.5 1.38071 -2.5 0C-2.5 -1.38071 -1.38071 -2.5 0 -2.5Z"></path>
  <path fill="#596A9A" transform="matrix(2.10554 0.289111 -0.613236 1.04501 425.134 92.9664)" d="M2.38419e-06 -2.98534C1.68306 -2.98534 3.04744 -1.64876 3.04744 0C3.04744 1.64876 1.68306 2.98534 2.38419e-06 2.98534C-1.68305 2.98534 -3.04744 1.64876 -3.04744 0C-3.04744 -1.64876 -1.68305 -2.98534 2.38419e-06 -2.98534Z"></path>
  <path fill="none" stroke="#303030" stroke-width="7" stroke-linecap="round" stroke-linejoin="round" transform="matrix(2.09669 0 0 2.07948 338.457 291.353)" d="M27.149 -29.2184C28.8101 -23.2913 30.7752 -13.9569 30.5227 0.957645C29.7417 29.8024 22.6829 53.9098 -2.52465 51.9721C-18.3421 50.6545 -27.2283 28.236 -26.448 -0.583794C-26.3277 -23.3727 -16.9698 -43.5211 -5.60249 -53.648"></path>
  <path fill="#849AD9" transform="matrix(2.09669 0 0 2.07948 338.457 291.353)" d="M13.8965 -60.0008C17.573 -55.7574 24.7468 -41.0855 24.9796 -37.1649C25.2124 -33.2443 30.9432 -23.8828 30.5227 0.957645C29.7417 29.8024 22.6829 53.9098 -2.52465 51.9721C-18.3421 50.6545 -27.2283 28.236 -26.448 -0.583794C-26.2611 -35.9879 -3.77868 -65.019 13.8965 -60.0008Z"></path>
  <path fill="#A1B2E7" transform="matrix(1.63266 0 0 2.03602 342.342 285.791)" d="M14.9098 -53.5587C37.0692 -54.0624 31.1337 -29.0423 30.4297 -0.398377C29.6675 28.2166 18.2444 51.8297 2.78374 52.0854C-12.6769 52.3412 -25.2869 29.3686 -26.1642 0.658648C-27.0977 -28.0082 -7.24949 -53.055 14.9098 -53.5587Z"></path>
  <path fill="none" stroke="white" stroke-width="5" stroke-linecap="round" stroke-linejoin="round" transform="matrix(1.50219 0 0 1.50219 258.877 362.655)" d=""></path>
  <path fill="none" stroke="white" stroke-width="5" stroke-linecap="round" stroke-linejoin="round" transform="matrix(1.11139 0 0 1.11139 243.355 245.985)" d=""></path>
</svg>