<?xml version="1.0" encoding="utf-8"?>
<svg xmlns="http://www.w3.org/2000/svg" xmlns:xlink="http://www.w3.org/1999/xlink" width="686" height="512">
  <path fill="none" stroke="#8F8F8F" stroke-width="7" stroke-linejoin="round" transform="matrix(1.75255 0 0 1.75255 367.748 414.526)" d="M-2.49676 -46.0956C15.1582 -50.6195 29.1921 -46.725 40.495 -3.90204C48.3262 24.0387 43.8267 35.6194 33.5997 38.0862C23.3728 40.553 15.0555 42.8908 5.0963 45.6467C-5.0347 48.2627 -13.119 38.8985 -20.9533 10.945C-33.1048 -33.9356 -20.1518 -41.5717 -2.49676 -46.0956Z"></path>
  <path fill="none" stroke="#8F8F8F" stroke-width="7" stroke-linejoin="round" transform="matrix(-2.09669 -3.16894e-07 -3.14293e-07 2.07948 509.123 281.944)" d="M18.4249 -58.663C21.7945 -54.1681 27.9211 -39.0213 27.8783 -35.094C27.8355 -31.1666 32.2355 -22.2521 30.9557 2.08302C29.7398 30.9469 25.3067 54.0363 0.0424271 53.1161C-15.8146 52.4371 -27.2874 28.5047 -26.0716 -0.359159C-24.5472 -36.5461 1.14603 -64.9291 18.4249 -58.663Z"></path>
  <path fill="none" stroke="#8F8F8F" stroke-width="7" stroke-linejoin="round" transform="matrix(1.75232 0.0285905 -0.0285905 1.75232 421.782 283.079)" d="M0.209618 -80.0966C37.3348 -80.0966 84.5 -60 84.5 0C84.5 41.1452 46.7396 76.2788 0.209618 76.2788C-62.1658 76.2788 -84 60.12 -84 0C-84 -71.2881 -50.5087 -80.0966 0.209618 -80.0966Z"></path>
  <path fill="none" stroke="#8F8F8F" stroke-width="7" stroke-linejoin="round" transform="matrix(1.49621 0 0 1.75255 463.262 403.135)" d="M-4.65523 -47.6397C12.9162 -51.7705 29.8858 -48.594 45.1183 -0.755447C49.7956 12.5122 51.1156 36.7878 37.8726 39.7103C24.6297 42.6327 18.6893 43.9436 6.87557 46.5507C-4.93813 49.1578 -13.8359 27.4713 -18.5132 14.2037C-34.7268 -35.6765 -22.2266 -43.5089 -4.65523 -47.6397Z"></path>
  <path fill="#B3BDD8" transform="matrix(-2.09669 -3.16894e-07 -3.14293e-07 2.07948 509.123 281.944)" d="M18.4249 -58.663C21.7945 -54.1681 27.9211 -39.0213 27.8783 -35.094C27.8355 -31.1666 32.2355 -22.2521 30.9557 2.08302C29.7398 30.9469 25.3067 54.0363 0.0424347 53.1161C-15.8146 52.4371 -27.2874 28.5047 -26.0716 -0.359159C-24.5472 -36.5461 1.14603 -64.9291 18.4249 -58.663Z"></path>
  <path fill="#AAB5D2" transform="matrix(1.49621 0 0 1.75255 463.262 403.135)" d="M-4.65523 -47.6397C12.9162 -51.7705 29.8858 -48.594 45.1183 -0.755447C49.7956 12.5122 51.1156 36.7878 37.8726 39.7103C24.6297 42.6327 18.6893 43.9436 6.87557 46.5507C-4.93813 49.1578 -13.8359 27.4713 -18.5132 14.2037C-34.7268 -35.6765 -22.2266 -43.5089 -4.65523 -47.6397Z"></path>
  <path fill="#BBC3DA" transform="matrix(1.17156 0 0 1.37229 463.262 403.135)" d="M-1.99355 -48.5896C15.5778 -52.7205 32.0414 -49.3382 48.7936 2.8028C53.8805 20.204 49.9022 36.7594 36.6593 39.6819C23.4163 42.6043 23.6004 42.6159 11.7867 45.223C-0.0270233 47.83 -9.75106 35.1631 -14.838 17.7619C-32.5711 -36.4207 -19.5649 -44.4588 -1.99355 -48.5896Z"></path>
  <path fill="#B3BDD8" transform="matrix(1.75255 0 0 1.75255 367.748 414.526)" d="M-2.49676 -46.0956C15.1582 -50.6195 29.1921 -46.725 40.495 -3.90204C48.3262 24.0387 43.8267 35.6194 33.5997 38.0862C23.3728 40.553 15.0555 42.8908 5.0963 45.6467C-5.0347 48.2627 -13.119 38.8985 -20.9533 10.945C-33.1048 -33.9356 -20.1518 -41.5717 -2.49676 -46.0956Z"></path>
  <path fill="#C0C7DE" transform="matrix(-1.63266 -2.46762e-07 -3.07725e-07 2.03602 505.238 276.382)" d="M20.2864 -52.2365C42.4347 -51.4821 34.2248 -26.9093 31.077 1.60099C27.9294 30.1112 14.8084 53.0388 -0.641632 52.5125C-16.0917 51.9863 -26.9984 28.3127 -25.4786 -0.380268C-23.9589 -29.0732 -1.86184 -52.9908 20.2864 -52.2365Z"></path>
  <path fill="none" stroke="#8F8F8F" stroke-width="7" stroke-miterlimit="4" transform="matrix(1.75232 0.0285905 -0.0285905 1.75232 365.825 125.05)" d="M-9.53674e-07 -29.5C19.0538 -29.5 34.5 -16.1805 34.5 0.25C34.5 16.6805 19.0538 30 -9.53674e-07 30C-19.0538 30 -34.5 16.6805 -34.5 0.25C-34.5 -16.1805 -19.0538 -29.5 -9.53674e-07 -29.5Z"></path>
  <path fill="#B3BDD8" transform="matrix(1.75232 0.0285905 -0.0285905 1.75232 421.782 283.079)" d="M0.209618 -80.0966C37.3348 -80.0966 84.5 -60 84.5 0C84.5 41.1452 46.7396 76.2788 0.209618 76.2788C-62.1658 76.2788 -84 60.12 -84 0C-84 -71.2881 -50.5087 -80.0966 0.209618 -80.0966Z"></path>
  <path fill="none" stroke="#8F8F8F" stroke-width="9" stroke-miterlimit="4" transform="matrix(1.00146 0 0 1.00146 343 256)" d="M-2.78654 -186.97C11.5854 -186.736 23.0723 -176.499 22.8701 -164.106C22.6679 -151.713 10.8532 -141.856 -3.51879 -142.09C-17.8908 -142.325 -29.3776 -152.562 -29.1754 -164.955C-28.9732 -177.348 -17.1585 -187.205 -2.78654 -186.97Z"></path>
  <path fill="none" stroke="#8F8F8F" stroke-width="9" stroke-miterlimit="4" transform="matrix(1.00146 0 0 1.00146 343 256)" d="M-17.8686 -172.472C-5.91071 -172.277 3.64672 -163.76 3.47848 -153.448C3.31023 -143.136 -6.51996 -134.935 -18.4779 -135.131C-30.4358 -135.326 -39.9932 -143.843 -39.825 -154.155C-39.6568 -164.466 -29.8266 -172.667 -17.8686 -172.472Z"></path>
  <path fill="none" stroke="#8F8F8F" stroke-width="9" stroke-miterlimit="4" transform="matrix(1.00146 0 0 1.00146 343 256)" d="M-37.32 -196.13C-30.8245 -196.024 -25.633 -191.398 -25.7244 -185.796C-25.8158 -180.195 -31.1555 -175.741 -37.6509 -175.846C-44.1464 -175.952 -49.3379 -180.579 -49.2465 -186.18C-49.1551 -191.781 -43.8154 -196.236 -37.32 -196.13Z"></path>
  <path fill="#B3BDD8" transform="matrix(1.75232 0.0285905 -0.0285905 1.75232 365.825 125.05)" d="M-9.53674e-07 -29.5C19.0538 -29.5 34.5 -16.1805 34.5 0.25C34.5 16.6805 19.0538 30 -9.53674e-07 30C-19.0538 30 -34.5 16.6805 -34.5 0.25C-34.5 -16.1805 -19.0538 -29.5 -9.53674e-07 -29.5Z"></path>
  <path fill="#B3BDD8" transform="matrix(0.755384 0.0123247 -0.0123247 0.755384 339.846 91.0407)" d="M-9.53674e-07 -29.5C19.0538 -29.5 34.5 -16.1805 34.5 0.250015C34.5 16.6805 19.0538 30 -9.53674e-07 30C-19.0538 30 -34.5 16.6805 -34.5 0.250015C-34.5 -16.1805 -19.0538 -29.5 -9.53674e-07 -29.5Z"></path>
  <path fill="#B3BDD8" transform="matrix(0.628503 0.0102545 -0.0102545 0.628503 324.803 101.817)" d="M-3.75928e-06 -29.5C19.0538 -29.5 34.5 -16.1805 34.5 0.25C34.5 16.6805 19.0538 30 -3.87011e-06 30C-19.0538 30 -34.5 16.6805 -34.5 0.25C-34.5 -16.1805 -19.0538 -29.5 -3.75928e-06 -29.5Z"></path>
  <path fill="#B3BDD8" transform="matrix(0.341398 0.00557018 -0.00557018 0.341398 305.461 69.6549)" d="M-7.62939e-06 -29.5001C19.0538 -29.5001 34.5 -16.1805 34.5 0.249939C34.5 16.6804 19.0538 29.9999 -7.62939e-06 29.9999C-19.0538 29.9999 -34.5 16.6804 -34.5 0.249939C-34.5 -16.1805 -19.0538 -29.5001 -7.62939e-06 -29.5001Z"></path>
  <path fill="#C0C7DE" transform="matrix(1.46935 0.0239736 -0.0239736 1.46935 420.453 283.079)" d="M0.249976 -81.5196C49.8787 -81.2985 84.5 -60 84.5 1.90735e-06C84.5 41.1452 46.78 74.5 0.249996 74.5C-62.1254 74.5 -84 60.12 -84 1.90735e-06C-84 -71.2881 -62.1254 -81.5197 0.249976 -81.5196Z"></path>
  <clipPath id="cl_15">
    <path d="M424.439 142.73C489.494 143.791 571.568 180.355 569.853 285.495C568.677 357.594 501.504 418.08 419.968 416.75C310.666 414.967 272.868 386.027 274.587 280.677C276.625 155.758 335.564 141.28 424.439 142.73Z"></path>
  </clipPath>
  <g clip-path="url(#cl_15)">
    <path fill="#C7CDDF" transform="matrix(0.784709 0.0128031 -0.0147656 0.904991 474.644 248.883)" d="M0.24998 -81.5197C49.8788 -81.2985 84.5 -60 84.5 -9.53674e-07C84.5 41.1452 67.1354 74.5 20.6054 74.5C-41.77 74.5 -84 60.12 -84 -9.53674e-07C-84 -71.2881 -62.1254 -81.5197 0.24998 -81.5197Z"></path>
    <path fill="#D0D3DD" transform="matrix(0.192776 -0.197383 0.433955 0.423827 497.136 201.321)" d="M11.5671 -77.0971C58.0971 -77.0971 97.5959 -41.1452 97.5959 1.45057e-06C97.5959 41.1452 73.4188 83.0524 26.8888 83.0524C-35.4866 83.0524 11.8086 60.12 11.8086 1.72236e-07C11.8086 -41.1452 -34.9629 -77.0972 11.5671 -77.0971Z"></path>
    <path fill="#D0D3DD" transform="matrix(0.192776 -0.197383 0.179346 0.175161 540.406 263.981)" d="M48.93 -79.7643C80.6762 -79.053 77.4946 -42.8889 62.8507 4.00562C48.2069 50.9001 -0.0394173 91.2963 -20.4536 67.7769C-40.8678 44.2576 -16.8141 31.8032 -0.458992 -5.13884C15.8961 -42.0808 17.1838 -80.4755 48.93 -79.7643Z"></path>
  </g>
  <path fill="#C0C7DE" transform="matrix(1.34311 0 0 1.34311 367.748 353.187)" d="M0.212166 -0.935959C17.8671 -5.45988 30.8488 -9.60341 44.0645 40.1655C50.2226 64.8983 46.5962 80.8883 36.3693 83.3551C26.1424 85.822 17.825 88.1598 7.86583 90.9156C-2.15765 93.6132 -13.6362 79.3278 -19.7943 54.5949C-33.8586 2.76816 -17.4429 3.58797 0.212166 -0.935959Z"></path>
  <path fill="#C0C7DE" transform="matrix(1.75232 0.0285905 -0.0285905 1.75232 365.825 125.05)" d="M-9.53674e-07 -22.5C14.6355 -22.5 26.5 -12.3145 26.5 0.25C26.5 12.8145 14.6355 23 -9.53674e-07 23C-14.6355 23 -26.5 12.8145 -26.5 0.25C-26.5 -12.3145 -14.6355 -22.5 -9.53674e-07 -22.5Z"></path>
  <path fill="#C0C7DE" transform="matrix(0.590878 0.00964063 -0.00964063 0.590878 339.846 93.1896)" d="M4.23752e-08 -22.5C14.6355 -22.5 26.5 -12.3145 26.5 0.25C26.5 12.8145 14.6355 23 -4.23752e-08 23C-14.6355 23 -26.5 12.8145 -26.5 0.25C-26.5 -12.3145 -14.6355 -22.5 4.23752e-08 -22.5Z"></path>
  <path fill="#C0C7DE" transform="matrix(0.491629 0.00802131 -0.00802131 0.491629 324.803 103.605)" d="M-3.8147e-06 -22.5C14.6355 -22.5 26.5 -12.3144 26.5 0.250031C26.5 12.8145 14.6355 23 -3.8147e-06 23C-14.6356 23 -26.5 12.8145 -26.5 0.250031C-26.5 -12.3144 -14.6356 -22.5 -3.8147e-06 -22.5Z"></path>
  <path fill="#C0C7DE" transform="matrix(0.267049 0.00435711 -0.00435711 0.267049 306.431 71.6827)" d="M0 -22.4261C14.2962 -22.4261 25.8855 -12.274 25.8855 0.249329C25.8855 12.7726 14.2962 22.9247 0 22.9247C-14.2962 22.9247 -25.8855 12.7726 -25.8855 0.249329C-25.8855 -12.274 -14.2962 -22.4261 0 -22.4261Z"></path>
  <path fill="#D0D3DD" transform="matrix(0.0718703 -0.111803 0.256925 0.165159 302.821 69.1511)" d="M0 -11.5C14.6355 -11.5 28.0061 -7.98328 28.0061 -1.63201C28.0061 4.71927 15.5059 0.400186 0.870357 0.400186C-13.7652 0.400184 -26.766 4.37689 -26.766 -1.97439C-26.766 -8.32566 -14.6355 -11.5 0 -11.5Z"></path>
  <path fill="#D0D3DD" transform="matrix(-0.162443 -0.555435 0.857234 -0.250708 324.763 129.285)" d="M0 -11.5C14.6355 -11.5 28.0061 -7.98328 28.0061 -1.63201C28.0061 4.71927 15.5059 0.400188 0.870357 0.400188C-13.7652 0.400186 -26.766 4.37689 -26.766 -1.97438C-26.766 -8.32566 -14.6355 -11.5 0 -11.5Z"></path>
  <path fill="#989EAC" transform="matrix(1.7396 -0.212721 0.0638164 0.521879 375.031 102.535)" d="M9.31323e-09 -2.49997C1.38071 -2.49997 2.5 -1.38068 2.5 3.05176e-05C2.5 1.38074 1.38071 2.50003 -9.31323e-09 2.50003C-1.38071 2.50003 -2.5 1.38074 -2.5 3.05176e-05C-2.5 -1.38068 -1.38071 -2.49997 9.31323e-09 -2.49997Z"></path>
  <path fill="none" stroke="#989EAC" stroke-width="0.5" stroke-linecap="round" stroke-linejoin="round" transform="matrix(1.7359 -0.241072 0.241072 1.7359 383.447 101.452)" d="M1.98548 0.277981C2.99638 0.254547 6.02909 0.184244 6.02909 0.184244"></path>
  <path fill="#989EAC" transform="matrix(1.7396 -0.212721 0.0638164 0.521879 402.865 99.131)" d="M-3.80538e-06 -2.5C1.38071 -2.5 2.5 -1.38071 2.5 0C2.5 1.38071 1.38071 2.5 -3.82401e-06 2.5C-1.38072 2.5 -2.5 1.38071 -2.5 0C-2.5 -1.38071 -1.38072 -2.5 -3.80538e-06 -2.5Z"></path>
  <path fill="#A1A8BD" transform="matrix(1.42645 -0.861678 0.905069 0.706104 394.859 92.3817)" d="M0 -2.49999C1.38071 -2.49999 2.5 -1.3807 2.5 7.62939e-06C2.5 1.38072 1.38071 2.50001 0 2.50001C-1.38071 2.50001 -2.5 1.38072 -2.5 7.62939e-06C-2.5 -1.3807 -1.38071 -2.49999 0 -2.49999Z"></path>
  <path fill="#A1A8BD" transform="matrix(2.10554 0.289111 -0.613236 1.04501 379.308 93.2965)" d="M3.8147e-06 -2.98532C1.68306 -2.98532 3.04744 -1.64874 3.04744 1.52588e-05C3.04744 1.64877 1.68306 2.98535 3.8147e-06 2.98535C-1.68305 2.98535 -3.04744 1.64877 -3.04744 1.52588e-05C-3.04744 -1.64874 -1.68305 -2.98532 3.8147e-06 -2.98532Z"></path>
  <path fill="none" stroke="#8F8F8F" stroke-width="7" stroke-linecap="round" stroke-linejoin="round" transform="matrix(2.09669 0 0 2.07948 308.658 291.353)" d="M29.5861 -34.8724C32.9151 -29.166 37.5186 -19.7849 40.1722 -3.93036C43.6836 24.4538 35.7068 51.5009 10.4293 51.092C-5.43805 50.7338 -12.3438 31.5042 -15.8469 3.18567C-19.7845 -18.0364 -15.864 -38.5844 -7.74662 -50.5392"></path>
  <path fill="#B3BDD8" transform="matrix(2.09669 0 0 2.07948 308.658 291.353)" d="M9.48087 -61.1419C14.0637 -57.9176 24.5347 -45.4228 25.6983 -41.6745C26.8618 -37.9262 35.9664 -29.0593 40.1722 -3.93036C43.6836 24.4538 35.7068 51.5009 10.4293 51.092C-5.43805 50.7338 -12.3438 31.5042 -15.8469 3.18567C-22.0216 -30.0932 -8.87283 -61.7146 9.48087 -61.1419Z"></path>
  <path fill="#C0C7DE" transform="matrix(1.63266 0 0 2.03602 312.542 285.791)" d="M10.7565 -54.7637C32.1104 -59.5374 36.0978 -33.338 42.2892 -4.55675C46.923 23.6909 34.5389 49.7895 19.1252 50.7888C3.71157 51.7881 -6.93204 31.4731 -13.197 3.33028C-20.638 -23.5891 -10.5975 -49.9901 10.7565 -54.7637Z"></path>
  <path fill="none" stroke="white" stroke-width="5" stroke-linecap="round" stroke-linejoin="round" transform="matrix(1.50219 0 0 1.50219 258.877 362.655)" d=""></path>
  <path fill="none" stroke="white" stroke-width="5" stroke-linecap="round" stroke-linejoin="round" transform="matrix(1.11139 0 0 1.11139 243.355 245.985)" d=""></path>
</svg>