<?xml version="1.0" encoding="utf-8"?>
<svg xmlns="http://www.w3.org/2000/svg" xmlns:xlink="http://www.w3.org/1999/xlink" width="686" height="512">
  <path fill="none" stroke="#777" stroke-width="7" stroke-linejoin="round" transform="matrix(1.75255 0 0 1.75255 375.487 414.526)" d="M-1.88697 -46.1925C15.998 -49.6985 29.786 -45.0071 38.6191 -1.60736C44.8382 26.7358 39.6833 38.04 29.3319 39.9174C18.9805 41.7948 10.543 43.6527 0.442373 45.834C-9.82179 47.8658 -17.3568 38.0542 -23.5782 9.69814C-33.1409 -35.8045 -19.772 -42.6866 -1.88697 -46.1925Z"></path>
  <path fill="none" stroke="#777" stroke-width="7" stroke-linejoin="round" transform="matrix(-2.09669 -3.16894e-07 -3.14293e-07 2.07948 516.862 281.944)" d="M18.4249 -58.663C21.7945 -54.1681 27.9211 -39.0213 27.8783 -35.094C27.8355 -31.1666 32.2355 -22.2521 30.9557 2.08302C29.7398 30.9469 25.3067 54.0363 0.0424347 53.1161C-15.8146 52.4371 -27.2874 28.5047 -26.0716 -0.359159C-24.5472 -36.5461 1.14603 -64.9291 18.4249 -58.663Z"></path>
  <path fill="none" stroke="#777" stroke-width="7" stroke-linejoin="round" transform="matrix(1.75232 0.0285905 -0.0285905 1.75232 429.522 283.079)" d="M0.209621 -80.0966C37.3348 -80.0966 84.5 -60 84.5 0C84.5 41.1452 46.7396 76.2788 0.209621 76.2788C-62.1658 76.2788 -84 60.12 -84 0C-84 -71.2881 -50.5087 -80.0966 0.209621 -80.0966Z"></path>
  <path fill="none" stroke="#777" stroke-width="7" stroke-linejoin="round" transform="matrix(1.49621 0 0 1.75255 471.002 403.135)" d="M-3.71567 -47.7655C14.0968 -51.0589 30.8342 -47.0846 42.9387 1.40099C46.7478 14.8695 46.4903 39.1703 33.078 41.4619C19.6658 43.7534 13.6495 44.7814 1.68467 46.8256C-10.2801 48.8699 -17.7568 26.7958 -21.5659 13.3274C-34.5174 -37.2431 -21.5281 -44.4722 -3.71567 -47.7655Z"></path>
  <path fill="#A7B4D8" transform="matrix(-2.09669 -3.16894e-07 -3.14293e-07 2.07948 516.862 281.944)" d="M18.4249 -58.663C21.7945 -54.1681 27.9211 -39.0213 27.8783 -35.094C27.8355 -31.1666 32.2355 -22.2521 30.9557 2.08302C29.7398 30.9469 25.3067 54.0363 0.0424423 53.1161C-15.8146 52.4371 -27.2874 28.5047 -26.0715 -0.359159C-24.5472 -36.5461 1.14604 -64.9291 18.4249 -58.663Z"></path>
  <path fill="#9BA9D0" transform="matrix(1.49621 0 0 1.75255 471.002 403.135)" d="M-3.71567 -47.7655C14.0968 -51.0589 30.8342 -47.0846 42.9387 1.40099C46.7478 14.8695 46.4903 39.1703 33.078 41.4619C19.6658 43.7534 13.6495 44.7814 1.68467 46.8256C-10.2801 48.8699 -17.7568 26.7958 -21.5659 13.3274C-34.5174 -37.2431 -21.5281 -44.4722 -3.71567 -47.7655Z"></path>
  <path fill="#B2BCDB" transform="matrix(1.17156 0 0 1.37229 471.002 403.135)" d="M-1.5948 -48.5822C16.2177 -51.8756 32.4365 -47.7199 45.7791 5.13348C49.7289 22.7486 44.6823 39.0905 31.27 41.382C17.8578 43.6736 18.0408 43.6939 6.07606 45.7381C-5.88873 47.7824 -14.7757 34.6749 -18.7255 17.0598C-32.9151 -37.8784 -19.4072 -45.2889 -1.5948 -48.5822Z"></path>
  <path fill="#A7B4D8" transform="matrix(1.75255 0 0 1.75255 375.487 414.526)" d="M-1.88697 -46.1925C15.998 -49.6985 29.786 -45.0071 38.6191 -1.60736C44.8382 26.7358 39.6833 38.04 29.3319 39.9174C18.9805 41.7948 10.543 43.6527 0.442373 45.834C-9.82179 47.8658 -17.3568 38.0542 -23.5782 9.69814C-33.1409 -35.8045 -19.772 -42.6866 -1.88697 -46.1925Z"></path>
  <path fill="#B8C2E0" transform="matrix(-1.63266 -2.46762e-07 -3.07725e-07 2.03602 512.978 276.382)" d="M20.2864 -52.2365C42.4347 -51.4821 34.2248 -26.9093 31.077 1.60099C27.9294 30.1112 14.8084 53.0388 -0.641632 52.5126C-16.0917 51.9863 -26.9984 28.3127 -25.4786 -0.380267C-23.9589 -29.0732 -1.86184 -52.9908 20.2864 -52.2365Z"></path>
  <path fill="none" stroke="#777" stroke-width="7" stroke-miterlimit="4" transform="matrix(1.75232 0.0285905 -0.0285905 1.75232 377.081 124.964)" d="M0 -29.5C19.0538 -29.5 34.5 -16.1805 34.5 0.250008C34.5 16.6805 19.0538 30 0 30C-19.0538 30 -34.5 16.6805 -34.5 0.250008C-34.5 -16.1805 -19.0538 -29.5 0 -29.5Z"></path>
  <path fill="#A7B4D8" transform="matrix(1.75232 0.0285905 -0.0285905 1.75232 429.522 283.079)" d="M0.209621 -80.0966C37.3348 -80.0966 84.5 -60 84.5 0C84.5 41.1452 46.7396 76.2788 0.209621 76.2788C-62.1658 76.2788 -84 60.12 -84 0C-84 -71.2881 -50.5087 -80.0966 0.209621 -80.0966Z"></path>
  <path fill="none" stroke="#777" stroke-width="9" stroke-miterlimit="4" transform="matrix(1.00146 0 0 1.00146 343 256)" d="M8.45322 -187.056C22.8252 -186.821 34.312 -176.585 34.1098 -164.191C33.9076 -151.798 22.0929 -141.941 7.72097 -142.176C-6.651 -142.41 -18.1379 -152.647 -17.9357 -165.04C-17.7335 -177.434 -5.91875 -187.29 8.45322 -187.056Z"></path>
  <path fill="none" stroke="#777" stroke-width="9" stroke-miterlimit="4" transform="matrix(1.00146 0 0 1.00146 343 256)" d="M-6.62888 -172.558C5.32905 -172.362 14.8865 -163.845 14.7182 -153.534C14.55 -143.222 4.71979 -135.021 -7.23813 -135.216C-19.1961 -135.411 -28.7535 -143.929 -28.5852 -154.24C-28.417 -164.552 -18.5868 -172.753 -6.62888 -172.558Z"></path>
  <path fill="none" stroke="#777" stroke-width="9" stroke-miterlimit="4" transform="matrix(1.00146 0 0 1.00146 343 256)" d="M-26.0802 -196.216C-19.5848 -196.11 -14.3933 -191.483 -14.4846 -185.882C-14.576 -180.281 -19.9157 -175.826 -26.4112 -175.932C-32.9066 -176.038 -38.0982 -180.665 -38.0068 -186.266C-37.9154 -191.867 -32.5757 -196.322 -26.0802 -196.216Z"></path>
  <path fill="#A7B4D8" transform="matrix(1.75232 0.0285905 -0.0285905 1.75232 377.081 124.964)" d="M0 -29.5C19.0538 -29.5 34.5 -16.1805 34.5 0.250008C34.5 16.6805 19.0538 30 0 30C-19.0538 30 -34.5 16.6805 -34.5 0.250008C-34.5 -16.1805 -19.0538 -29.5 0 -29.5Z"></path>
  <path fill="#A7B4D8" transform="matrix(0.755384 0.0123247 -0.0123247 0.755384 351.102 90.9549)" d="M-4.76837e-07 -29.5C19.0538 -29.5 34.5 -16.1805 34.5 0.25C34.5 16.6805 19.0538 30 -4.76837e-07 30C-19.0538 30 -34.5 16.6805 -34.5 0.25C-34.5 -16.1805 -19.0538 -29.5 -4.76837e-07 -29.5Z"></path>
  <path fill="#A7B4D8" transform="matrix(0.628503 0.0102545 -0.0102545 0.628503 336.059 101.731)" d="M5.54137e-08 -29.5C19.0538 -29.5 34.5 -16.1805 34.5 0.249985C34.5 16.6805 19.0538 30 -5.54137e-08 30C-19.0538 30 -34.5 16.6805 -34.5 0.249985C-34.5 -16.1805 -19.0538 -29.5 5.54137e-08 -29.5Z"></path>
  <path fill="#A7B4D8" transform="matrix(0.341398 0.00557018 -0.00557018 0.341398 316.717 69.5692)" d="M0 -29.5001C19.0538 -29.5001 34.5 -16.1805 34.5 0.249939C34.5 16.6804 19.0538 29.9999 0 29.9999C-19.0538 29.9999 -34.5 16.6804 -34.5 0.249939C-34.5 -16.1805 -19.0538 -29.5001 0 -29.5001Z"></path>
  <path fill="#B8C2E0" transform="matrix(1.46935 0.0239736 -0.0239736 1.46935 428.193 283.079)" d="M0.24998 -81.5196C49.8787 -81.2985 84.5 -60 84.5 1.90735e-06C84.5 41.1452 46.78 74.5 0.25 74.5C-62.1254 74.5 -84 60.12 -84 1.90735e-06C-84 -71.2881 -62.1254 -81.5197 0.24998 -81.5196Z"></path>
  <clipPath id="cl_12">
    <path d="M432.179 142.73C497.234 143.791 579.308 180.355 577.593 285.495C576.416 357.594 509.244 418.08 427.708 416.75C318.406 414.967 280.608 386.027 282.327 280.677C284.365 155.758 343.304 141.28 432.179 142.73Z"></path>
  </clipPath>
  <g clip-path="url(#cl_12)">
    <path fill="#C1C9E2" transform="matrix(0.784709 0.0128031 -0.0147656 0.904991 482.384 248.883)" d="M0.249995 -81.5197C49.8788 -81.2985 84.5 -60 84.5 -9.53674e-07C84.5 41.1452 67.1354 74.5 20.6054 74.5C-41.77 74.5 -84 60.12 -84 -9.53674e-07C-84 -71.2881 -62.1254 -81.5197 0.249995 -81.5197Z"></path>
    <path fill="#CDD2DF" transform="matrix(0.192776 -0.197383 0.433955 0.423827 504.876 201.321)" d="M11.5671 -77.0972C58.0971 -77.0972 97.5959 -41.1452 97.5959 -6.17883e-06C97.5959 41.1452 73.4188 83.0524 26.8888 83.0524C-35.4866 83.0524 11.8086 60.12 11.8086 -7.45716e-06C11.8086 -41.1452 -34.9629 -77.0972 11.5671 -77.0972Z"></path>
    <path fill="#CDD2DF" transform="matrix(0.192776 -0.197383 0.179346 0.175161 548.146 263.981)" d="M48.93 -79.7643C80.6762 -79.053 77.4946 -42.8889 62.8507 4.00556C48.2069 50.9001 -0.0394173 91.2962 -20.4536 67.7769C-40.8678 44.2575 -16.8141 31.8031 -0.458992 -5.1389C15.8961 -42.0809 17.1838 -80.4756 48.93 -79.7643Z"></path>
  </g>
  <path fill="#B8C2E0" transform="matrix(1.34311 0 0 1.34311 375.487 353.187)" d="M0.226946 -0.886055C18.1119 -4.392 31.3095 -7.78565 41.6548 42.6581C46.3872 67.7029 41.8514 83.4591 31.5001 85.3365C21.1487 87.2139 12.7112 89.0719 2.6106 91.2531C-7.55087 93.3725 -18.1929 78.4535 -22.9253 53.4087C-33.9999 0.861832 -17.6581 2.61989 0.226946 -0.886055Z"></path>
  <path fill="#B8C2E0" transform="matrix(1.75232 0.0285905 -0.0285905 1.75232 377.081 124.964)" d="M0 -22.5C14.6355 -22.5 26.5 -12.3145 26.5 0.250008C26.5 12.8145 14.6355 23 0 23C-14.6355 23 -26.5 12.8145 -26.5 0.250008C-26.5 -12.3145 -14.6355 -22.5 0 -22.5Z"></path>
  <path fill="#B8C2E0" transform="matrix(0.590878 0.00964063 -0.00964063 0.590878 351.102 93.1039)" d="M4.23752e-08 -22.5C14.6355 -22.5 26.5 -12.3145 26.5 0.25C26.5 12.8145 14.6355 23 -4.23752e-08 23C-14.6355 23 -26.5 12.8145 -26.5 0.25C-26.5 -12.3145 -14.6355 -22.5 4.23752e-08 -22.5Z"></path>
  <path fill="#B8C2E0" transform="matrix(0.491629 0.00802131 -0.00802131 0.491629 336.059 103.519)" d="M3.8147e-06 -22.5C14.6356 -22.5 26.5 -12.3145 26.5 0.25C26.5 12.8145 14.6356 23 3.8147e-06 23C-14.6355 23 -26.5 12.8145 -26.5 0.25C-26.5 -12.3145 -14.6355 -22.5 3.8147e-06 -22.5Z"></path>
  <path fill="#B8C2E0" transform="matrix(0.267049 0.00435711 -0.00435711 0.267049 317.687 71.597)" d="M1.52588e-05 -22.4261C14.2962 -22.4261 25.8855 -12.274 25.8855 0.249268C25.8855 12.7726 14.2962 22.9247 1.52588e-05 22.9247C-14.2961 22.9247 -25.8855 12.7726 -25.8855 0.249268C-25.8855 -12.274 -14.2961 -22.4261 1.52588e-05 -22.4261Z"></path>
  <path fill="#CDD2DF" transform="matrix(0.0718703 -0.111803 0.256925 0.165159 314.039 69.0654)" d="M0 -11.5C14.6355 -11.5 28.0061 -7.98328 28.0061 -1.63201C28.0061 4.71927 15.5059 0.400186 0.870357 0.400186C-13.7652 0.400184 -26.766 4.37689 -26.766 -1.97439C-26.766 -8.32566 -14.6355 -11.5 0 -11.5Z"></path>
  <path fill="#CDD2DF" transform="matrix(-0.162443 -0.555435 0.857234 -0.250708 335.981 129.199)" d="M1.52588e-05 -11.5C14.6356 -11.5 28.0061 -7.98328 28.0061 -1.63201C28.0061 4.71927 15.5059 0.400186 0.870372 0.400186C-13.7652 0.400184 -26.766 4.37689 -26.766 -1.97439C-26.766 -8.32566 -14.6355 -11.5 1.52588e-05 -11.5Z"></path>
  <path fill="#838B9E" transform="matrix(1.7396 -0.212721 0.0638164 0.521879 388.176 102.449)" d="M-3.80538e-06 -2.50003C1.38071 -2.50003 2.5 -1.38074 2.5 -3.05176e-05C2.5 1.38068 1.38071 2.49997 -3.82401e-06 2.49997C-1.38072 2.49997 -2.5 1.38068 -2.5 -3.05176e-05C-2.5 -1.38074 -1.38072 -2.50003 -3.80538e-06 -2.50003Z"></path>
  <path fill="none" stroke="#838B9E" stroke-width="0.5" stroke-linecap="round" stroke-linejoin="round" transform="matrix(1.7359 -0.241072 0.241072 1.7359 396.592 101.367)" d="M1.98548 0.277989C2.99638 0.254555 6.02909 0.184252 6.02909 0.184252"></path>
  <path fill="#838B9E" transform="matrix(1.7396 -0.212721 0.0638164 0.521879 416.009 99.0453)" d="M-3.80538e-06 -2.49997C1.38071 -2.49997 2.5 -1.38068 2.5 3.05176e-05C2.5 1.38074 1.38071 2.50003 -3.82401e-06 2.50003C-1.38072 2.50003 -2.5 1.38074 -2.5 3.05176e-05C-2.5 -1.38068 -1.38072 -2.49997 -3.80538e-06 -2.49997Z"></path>
  <path fill="#8F99B4" transform="matrix(1.42645 -0.861678 0.905069 0.706104 408.004 92.296)" d="M7.62939e-06 -2.5C1.38072 -2.5 2.50001 -1.38071 2.50001 0C2.50001 1.38071 1.38072 2.5 7.62939e-06 2.5C-1.3807 2.5 -2.49999 1.38071 -2.49999 0C-2.49999 -1.38071 -1.3807 -2.5 7.62939e-06 -2.5Z"></path>
  <path fill="#8F99B4" transform="matrix(2.10554 0.289111 -0.613236 1.04501 392.452 93.2107)" d="M1.90735e-06 -2.98532C1.68306 -2.98532 3.04744 -1.64874 3.04744 1.52588e-05C3.04744 1.64877 1.68306 2.98535 1.90735e-06 2.98535C-1.68305 2.98535 -3.04744 1.64877 -3.04744 1.52588e-05C-3.04744 -1.64874 -1.68305 -2.98532 1.90735e-06 -2.98532Z"></path>
  <path fill="none" stroke="#777" stroke-width="7" stroke-linecap="round" stroke-linejoin="round" transform="matrix(2.09669 0 0 2.07948 316.397 291.353)" d="M29.0651 -33.4618C32.0281 -27.5594 36.0354 -17.9091 37.6987 -1.91617C39.4476 26.6369 29.8564 53.1139 4.65178 51.1374C-11.1637 49.7955 -16.9137 30.1508 -18.6586 1.66338C-21.2689 -19.7737 -16.0657 -40.0385 -7.21255 -51.4584"></path>
  <path fill="#A7B4D8" transform="matrix(2.09669 0 0 2.07948 316.397 291.353)" d="M10.6523 -60.9503C15.0238 -57.4405 24.6905 -44.3033 25.6167 -40.4883C26.543 -36.6734 35.0633 -27.2565 37.6987 -1.91617C39.4476 26.6369 29.8564 53.1139 4.65178 51.1374C-11.1637 49.7955 -16.9137 30.1508 -18.6586 1.66338C-22.7522 -31.9557 -7.62886 -62.6917 10.6523 -60.9503Z"></path>
  <path fill="#B8C2E0" transform="matrix(1.63266 0 0 2.03602 320.282 285.791)" d="M11.8685 -54.5293C33.5561 -58.2111 35.4515 -31.8714 39.3789 -2.83966C41.8067 25.5871 27.468 51.0063 12.0069 51.2432C-3.45427 51.4801 -12.5532 30.6608 -16.6172 2.25712C-21.9389 -24.9944 -9.81903 -50.8476 11.8685 -54.5293Z"></path>
  <path fill="none" stroke="white" stroke-width="5" stroke-linecap="round" stroke-linejoin="round" transform="matrix(1.50219 0 0 1.50219 258.877 362.655)" d=""></path>
  <path fill="none" stroke="white" stroke-width="5" stroke-linecap="round" stroke-linejoin="round" transform="matrix(1.11139 0 0 1.11139 243.355 245.985)" d=""></path>
</svg>