<?xml version="1.0" encoding="utf-8"?>
<svg xmlns="http://www.w3.org/2000/svg" xmlns:xlink="http://www.w3.org/1999/xlink" width="686" height="512">
  <path fill="none" stroke="#D7D7D7" stroke-width="7" stroke-linejoin="round" transform="matrix(1.75255 0 0 1.75255 357.39 414.526)" d="M-3.27419 -45.9191C13.9983 -51.7352 28.2816 -48.8883 42.7178 -7.01762C52.5922 20.2681 48.9606 32.1496 38.9439 35.3653C28.9272 38.5811 20.8054 41.5271 11.077 45.0113C1.16701 48.3688 -7.58707 39.6274 -17.4655 12.3293C-32.9001 -31.5307 -20.5467 -40.103 -3.27419 -45.9191Z"></path>
  <path fill="none" stroke="#D7D7D7" stroke-width="7" stroke-linejoin="round" transform="matrix(-2.09669 -3.16894e-07 -3.14293e-07 2.07948 498.765 281.944)" d="M18.4249 -58.663C21.7945 -54.1681 27.9211 -39.0213 27.8783 -35.094C27.8355 -31.1666 32.2355 -22.2521 30.9557 2.08302C29.7398 30.9469 25.3067 54.0363 0.0424423 53.1161C-15.8146 52.4371 -27.2874 28.5047 -26.0716 -0.359159C-24.5472 -36.5461 1.14603 -64.9291 18.4249 -58.663Z"></path>
  <path fill="none" stroke="#D7D7D7" stroke-width="7" stroke-linejoin="round" transform="matrix(1.75232 0.0285905 -0.0285905 1.75232 411.424 283.079)" d="M0.209621 -80.0966C37.3348 -80.0966 84.5 -60 84.5 -9.53674e-07C84.5 41.1452 46.7396 76.2788 0.209621 76.2788C-62.1658 76.2788 -84 60.12 -84 -9.53674e-07C-84 -71.2881 -50.5087 -80.0966 0.209621 -80.0966Z"></path>
  <path fill="none" stroke="#D7D7D7" stroke-width="7" stroke-linejoin="round" transform="matrix(1.49621 0 0 1.75255 452.904 403.135)" d="M-5.85375 -47.4118C11.3266 -52.6049 28.5188 -50.4725 47.7197 -3.68655C53.4965 9.26148 56.8466 33.3944 43.8824 37.1179C30.9182 40.8414 25.1028 42.5117 13.5377 45.8334C1.97263 49.155 -8.71905 28.0674 -14.4958 15.1193C-34.8462 -33.6432 -23.0341 -42.2187 -5.85375 -47.4118Z"></path>
  <path fill="#D7D7D7" transform="matrix(-2.09669 -3.16894e-07 -3.14293e-07 2.07948 498.765 281.944)" d="M18.4249 -58.663C21.7945 -54.1681 27.9211 -39.0213 27.8783 -35.094C27.8355 -31.1666 32.2355 -22.2521 30.9557 2.08302C29.7398 30.9469 25.3067 54.0363 0.04245 53.1161C-15.8146 52.4371 -27.2874 28.5047 -26.0715 -0.359159C-24.5472 -36.5461 1.14604 -64.9291 18.4249 -58.663Z"></path>
  <path fill="#D7D7D7" transform="matrix(1.49621 0 0 1.75255 452.904 403.135)" d="M-5.85375 -47.4118C11.3266 -52.6049 28.5188 -50.4725 47.7197 -3.68655C53.4965 9.26148 56.8466 33.3944 43.8824 37.1179C30.9182 40.8414 25.1028 42.5117 13.5377 45.8334C1.97263 49.155 -8.71905 28.0674 -14.4958 15.1193C-34.8462 -33.6432 -23.0341 -42.2187 -5.85375 -47.4118Z"></path>
  <path fill="#D7D7D7" transform="matrix(1.17156 0 0 1.37229 452.904 403.135)" d="M-2.508 -48.5712C14.6723 -53.7643 31.3771 -51.3959 52.4541 -0.411255C58.9858 16.6348 56.4044 33.3907 43.4401 37.1143C30.4759 40.8378 30.6605 40.8381 19.0955 44.1598C7.53037 47.4815 -3.22983 35.4407 -9.76142 18.3946C-31.988 -34.5666 -19.6884 -43.3781 -2.508 -48.5712Z"></path>
  <path fill="#D7D7D7" transform="matrix(1.75255 0 0 1.75255 357.39 414.526)" d="M-3.27419 -45.9191C13.9983 -51.7352 28.2816 -48.8883 42.7178 -7.01762C52.5922 20.2681 48.9606 32.1496 38.9439 35.3653C28.9272 38.5811 20.8054 41.5271 11.077 45.0113C1.16701 48.3688 -7.58707 39.6274 -17.4655 12.3293C-32.9001 -31.5307 -20.5467 -40.103 -3.27419 -45.9191Z"></path>
  <path fill="#D7D7D7" transform="matrix(-1.63266 -2.46762e-07 -3.07725e-07 2.03602 494.88 276.382)" d="M20.2864 -52.2365C42.4347 -51.4821 34.2248 -26.9093 31.077 1.60099C27.9294 30.1112 14.8084 53.0388 -0.641632 52.5126C-16.0917 51.9863 -26.9984 28.3127 -25.4786 -0.380267C-23.9589 -29.0732 -1.86183 -52.9908 20.2864 -52.2365Z"></path>
  <path fill="none" stroke="#D7D7D7" stroke-width="7" stroke-miterlimit="4" transform="matrix(1.75232 0.0285905 -0.0285905 1.75232 350.761 125.165)" d="M-7.15256e-07 -29.5C19.0538 -29.5 34.5 -16.1805 34.5 0.25C34.5 16.6805 19.0538 30 -7.15256e-07 30C-19.0538 30 -34.5 16.6805 -34.5 0.25C-34.5 -16.1805 -19.0538 -29.5 -7.15256e-07 -29.5Z"></path>
  <path fill="#D7D7D7" transform="matrix(1.75232 0.0285905 -0.0285905 1.75232 411.424 283.079)" d="M0.209621 -80.0966C37.3348 -80.0966 84.5 -60 84.5 -9.53674e-07C84.5 41.1452 46.7396 76.2788 0.209621 76.2788C-62.1658 76.2788 -84 60.12 -84 -9.53674e-07C-84 -71.2881 -50.5087 -80.0966 0.209621 -80.0966Z"></path>
  <path fill="none" stroke="#D7D7D7" stroke-width="9" stroke-miterlimit="4" transform="matrix(1.00146 0 0 1.00146 343 256)" d="M-17.8285 -186.856C-3.45658 -186.621 8.03028 -176.384 7.82808 -163.991C7.62587 -151.598 -4.18883 -141.741 -18.5608 -141.976C-32.9328 -142.21 -44.4196 -152.447 -44.2174 -164.84C-44.0152 -177.234 -32.2005 -187.09 -17.8285 -186.856Z"></path>
  <path fill="none" stroke="#D7D7D7" stroke-width="9" stroke-miterlimit="4" transform="matrix(1.00146 0 0 1.00146 343 256)" d="M-32.9106 -172.357C-20.9527 -172.162 -11.3953 -163.645 -11.5635 -153.333C-11.7318 -143.022 -21.562 -134.821 -33.5199 -135.016C-45.4778 -135.211 -55.0352 -143.728 -54.867 -154.04C-54.6988 -164.352 -44.8686 -172.553 -32.9106 -172.357Z"></path>
  <path fill="none" stroke="#D7D7D7" stroke-width="9" stroke-miterlimit="4" transform="matrix(1.00146 0 0 1.00146 343 256)" d="M-52.362 -196.015C-45.8665 -195.91 -40.675 -191.283 -40.7664 -185.682C-40.8578 -180.081 -46.1975 -175.626 -52.6929 -175.732C-59.1884 -175.838 -64.3799 -180.464 -64.2885 -186.066C-64.1971 -191.667 -58.8575 -196.121 -52.362 -196.015Z"></path>
  <path fill="#D7D7D7" transform="matrix(1.75232 0.0285905 -0.0285905 1.75232 350.761 125.165)" d="M-7.15256e-07 -29.5C19.0538 -29.5 34.5 -16.1805 34.5 0.25C34.5 16.6805 19.0538 30 -7.15256e-07 30C-19.0538 30 -34.5 16.6805 -34.5 0.25C-34.5 -16.1805 -19.0538 -29.5 -7.15256e-07 -29.5Z"></path>
  <path fill="#D7D7D7" transform="matrix(0.755384 0.0123247 -0.0123247 0.755384 324.782 91.1554)" d="M1.90735e-06 -29.5C19.0538 -29.5 34.5 -16.1805 34.5 0.250015C34.5 16.6805 19.0538 30 1.90735e-06 30C-19.0538 30 -34.5 16.6805 -34.5 0.250015C-34.5 -16.1805 -19.0538 -29.5 1.90735e-06 -29.5Z"></path>
  <path fill="#D7D7D7" transform="matrix(0.628503 0.0102545 -0.0102545 0.628503 309.739 101.932)" d="M3.87011e-06 -29.5C19.0538 -29.5 34.5 -16.1805 34.5 0.25C34.5 16.6805 19.0538 30 3.75928e-06 30C-19.0538 30 -34.5 16.6805 -34.5 0.25C-34.5 -16.1805 -19.0538 -29.5 3.87011e-06 -29.5Z"></path>
  <path fill="#D7D7D7" transform="matrix(0.341398 0.00557018 -0.00557018 0.341398 290.397 69.7696)" d="M-1.52588e-05 -29.5C19.0538 -29.5 34.5 -16.1805 34.5 0.25C34.5 16.6805 19.0538 30 -1.52588e-05 30C-19.0538 30 -34.5 16.6805 -34.5 0.25C-34.5 -16.1805 -19.0538 -29.5 -1.52588e-05 -29.5Z"></path>
  <path fill="#D7D7D7" transform="matrix(1.46935 0.0239736 -0.0239736 1.46935 410.095 283.079)" d="M0.249976 -81.5196C49.8787 -81.2985 84.5 -60 84.5 1.90735e-06C84.5 41.1452 46.78 74.5 0.249996 74.5C-62.1254 74.5 -84 60.12 -84 1.90735e-06C-84 -71.2881 -62.1254 -81.5197 0.249976 -81.5196Z"></path>
  <clipPath id="cl_1e">
    <path d="M414.081 142.73C479.136 143.791 561.21 180.355 559.495 285.495C558.318 357.594 491.146 418.08 409.61 416.75C300.308 414.967 262.51 386.027 264.229 280.677C266.267 155.758 325.206 141.28 414.081 142.73Z"></path>
  </clipPath>
  <g clip-path="url(#cl_1e)">
    <path fill="#D7D7D7" transform="matrix(0.784709 0.0128031 -0.0147656 0.904991 464.286 248.883)" d="M0.249995 -81.5197C49.8788 -81.2985 84.5 -60 84.5 -9.53674e-07C84.5 41.1452 67.1354 74.5 20.6054 74.5C-41.77 74.5 -84 60.12 -84 -9.53674e-07C-84 -71.2881 -62.1254 -81.5197 0.249995 -81.5197Z"></path>
    <path fill="#D7D7D7" transform="matrix(0.192776 -0.197383 0.433955 0.423827 486.778 201.321)" d="M11.5671 -77.0972C58.0971 -77.0972 97.5959 -41.1452 97.5959 -6.17883e-06C97.5959 41.1452 73.4188 83.0524 26.8888 83.0524C-35.4866 83.0524 11.8086 60.12 11.8086 -7.45716e-06C11.8086 -41.1452 -34.9629 -77.0972 11.5671 -77.0972Z"></path>
    <path fill="#D7D7D7" transform="matrix(0.192776 -0.197383 0.179346 0.175161 530.048 263.981)" d="M48.93 -79.7643C80.6763 -79.053 77.4946 -42.8889 62.8508 4.00556C48.2069 50.9001 -0.0393867 91.2962 -20.4536 67.7769C-40.8678 44.2575 -16.8141 31.8031 -0.458961 -5.1389C15.8962 -42.0809 17.1838 -80.4756 48.93 -79.7643Z"></path>
  </g>
  <path fill="#D7D7D7" transform="matrix(1.34311 0 0 1.34311 357.39 353.187)" d="M0.188843 -0.9991C17.4613 -6.81518 30.1013 -11.9066 46.9583 36.7497C54.9272 60.9599 52.4922 77.1741 42.4755 80.3898C32.4588 83.6056 24.3369 86.5517 14.6086 90.0358C4.81184 93.4666 -7.69091 80.0685 -15.6597 55.8583C-33.515 5.2124 -17.0836 4.81699 0.188843 -0.9991Z"></path>
  <path fill="#D7D7D7" transform="matrix(1.75232 0.0285905 -0.0285905 1.75232 350.761 125.165)" d="M-7.15256e-07 -22.5C14.6355 -22.5 26.5 -12.3145 26.5 0.25C26.5 12.8145 14.6355 23 -7.15256e-07 23C-14.6355 23 -26.5 12.8145 -26.5 0.25C-26.5 -12.3145 -14.6355 -22.5 -7.15256e-07 -22.5Z"></path>
  <path fill="#D7D7D7" transform="matrix(0.590878 0.00964063 -0.00964063 0.590878 324.782 93.3044)" d="M4.23752e-08 -22.5C14.6355 -22.5 26.5 -12.3145 26.5 0.25C26.5 12.8145 14.6355 23 -4.23752e-08 23C-14.6355 23 -26.5 12.8145 -26.5 0.25C-26.5 -12.3145 -14.6355 -22.5 4.23752e-08 -22.5Z"></path>
  <path fill="#D7D7D7" transform="matrix(0.491629 0.00802131 -0.00802131 0.491629 309.739 103.72)" d="M7.62939e-06 -22.5C14.6356 -22.5 26.5 -12.3145 26.5 0.25C26.5 12.8145 14.6356 23 7.62939e-06 23C-14.6355 23 -26.5 12.8145 -26.5 0.25C-26.5 -12.3145 -14.6355 -22.5 7.62939e-06 -22.5Z"></path>
  <path fill="#D7D7D7" transform="matrix(0.267049 0.00435711 -0.00435711 0.267049 291.367 71.7974)" d="M0 -22.4261C14.2962 -22.4261 25.8855 -12.274 25.8855 0.249268C25.8855 12.7726 14.2962 22.9247 0 22.9247C-14.2962 22.9247 -25.8855 12.7726 -25.8855 0.249268C-25.8855 -12.274 -14.2962 -22.4261 0 -22.4261Z"></path>
  <path fill="#D7D7D7" transform="matrix(0.0718703 -0.111803 0.256925 0.165159 287.999 69.2658)" d="M6.10352e-05 -11.5C14.6356 -11.5 28.0061 -7.98331 28.0061 -1.63204C28.0061 4.71924 15.506 0.400155 0.870418 0.400155C-13.7651 0.400154 -26.766 4.37686 -26.766 -1.97442C-26.766 -8.32569 -14.6355 -11.5 6.10352e-05 -11.5Z"></path>
  <path fill="#D7D7D7" transform="matrix(-0.162443 -0.555435 0.857234 -0.250708 309.941 129.4)" d="M0 -11.5C14.6355 -11.5 28.0061 -7.98328 28.0061 -1.63201C28.0061 4.71927 15.5059 0.400186 0.870357 0.400186C-13.7652 0.400185 -26.766 4.37689 -26.766 -1.97439C-26.766 -8.32566 -14.6355 -11.5 0 -11.5Z"></path>
  <path fill="#D7D7D7" transform="matrix(1.7396 -0.212721 0.0638164 0.521879 347.856 102.649)" d="M9.31323e-09 -2.50003C1.38071 -2.50003 2.5 -1.38074 2.5 -3.05176e-05C2.5 1.38068 1.38071 2.49997 -9.31323e-09 2.49997C-1.38071 2.49997 -2.5 1.38068 -2.5 -3.05176e-05C-2.5 -1.38074 -1.38071 -2.50003 9.31323e-09 -2.50003Z"></path>
  <path fill="none" stroke="#D7D7D7" stroke-width="0.5" stroke-linecap="round" stroke-linejoin="round" transform="matrix(1.7359 -0.241072 0.241072 1.7359 356.272 101.567)" d="M1.98548 0.277981C2.99638 0.254547 6.02909 0.184244 6.02909 0.184244"></path>
  <path fill="#D7D7D7" transform="matrix(1.7396 -0.212721 0.0638164 0.521879 375.69 99.2458)" d="M-1.89804e-06 -2.5C1.38071 -2.5 2.5 -1.38071 2.5 0C2.5 1.38071 1.38071 2.5 -1.91666e-06 2.5C-1.38071 2.5 -2.5 1.38071 -2.5 0C-2.5 -1.38071 -1.38071 -2.5 -1.89804e-06 -2.5Z"></path>
  <path fill="#D7D7D7" transform="matrix(1.42645 -0.861678 0.905069 0.706104 367.684 92.4965)" d="M0 -2.5C1.38071 -2.5 2.5 -1.38071 2.5 0C2.5 1.38071 1.38071 2.5 0 2.5C-1.38071 2.5 -2.5 1.38071 -2.5 0C-2.5 -1.38071 -1.38071 -2.5 0 -2.5Z"></path>
  <path fill="#D7D7D7" transform="matrix(2.10554 0.289111 -0.613236 1.04501 352.132 93.4112)" d="M3.8147e-06 -2.98532C1.68306 -2.98532 3.04744 -1.64874 3.04744 1.52588e-05C3.04744 1.64877 1.68306 2.98535 3.8147e-06 2.98535C-1.68305 2.98535 -3.04744 1.64877 -3.04744 1.52588e-05C-3.04744 -1.64874 -1.68305 -2.98532 3.8147e-06 -2.98532Z"></path>
  <path fill="none" stroke="#D7D7D7" stroke-width="7" stroke-linecap="round" stroke-linejoin="round" transform="matrix(2.09669 0 0 2.07948 298.299 291.353)" d="M30.2217 -36.5477C33.7033 -31.4747 38.5931 -23.2434 43.1349 -8.91871C51.5421 18.6595 52.3782 43.865 27.8632 50.0909C12.4482 53.9011 -2.92494 35.5416 -11.3246 7.98835C-18.458 -13.6239 -16.0337 -35.7207 -8.50477 -48.977"></path>
  <path fill="#D7D7D7" transform="matrix(2.09669 0 0 2.07948 298.299 291.353)" d="M7.89906 -61.2807C12.7358 -58.4586 24.217 -46.9012 25.6908 -43.2655C27.1645 -39.6298 35.6255 -32.6033 43.1349 -8.91871C51.5421 18.6595 52.3782 43.865 27.8632 50.0909C12.4482 53.9011 -2.92494 35.5416 -11.3246 7.98835C-22.3994 -25.5653 -10.437 -60.2867 7.89906 -61.2807Z"></path>
  <path fill="#D7D7D7" transform="matrix(1.63266 0 0 2.03602 302.184 285.791)" d="M9.24367 -54.9883C30.0178 -61.1927 34.525 -35.9607 45.3274 -8.63215C56.017 18.6752 54.4598 44.0425 39.899 48.2183C25.3382 52.3941 4.40888 33.8594 -7.87206 6.88244C-20.2142 -20.0008 -11.5306 -48.784 9.24367 -54.9883Z"></path>
  <path fill="none" stroke="white" stroke-width="5" stroke-linecap="round" stroke-linejoin="round" transform="matrix(1.50219 0 0 1.50219 258.877 362.655)" d=""></path>
  <path fill="none" stroke="white" stroke-width="5" stroke-linecap="round" stroke-linejoin="round" transform="matrix(1.11139 0 0 1.11139 243.355 245.985)" d=""></path>
</svg>