<?xml version="1.0" encoding="utf-8"?>
<svg xmlns="http://www.w3.org/2000/svg" xmlns:xlink="http://www.w3.org/1999/xlink" width="686" height="512">
  <path fill="none" stroke="black" stroke-width="6" stroke-linejoin="round" transform="matrix(1.70248 0 0 1.44029 567.099 179.773)" d="M-12.9438 -16.9737C-9.2896 -16.9737 -6.63603 -16.9737 -3.2142 -16.9737C3.85004 -16.9737 11.0107 -12.9707 11.0107 2.73135C11.0107 18.4334 11.0107 47.7067 11.0107 56.4808C11.0107 99.4374 -52.4893 99.3952 -52.4893 56.4387C-52.4893 45.6553 -52.4893 25.833 -52.4893 13.3474C-52.4893 0.861706 -46.228 -16.9737 -30.1482 -16.9737C-28.9445 -16.9737 -27.8096 -16.9737 -26.7371 -16.9737"></path>
  <path fill="none" stroke="black" stroke-width="6" stroke-linejoin="round" transform="matrix(1.70248 0 0 1.55154 567.099 257.563)" d="M-52.4886 0.0848538C-52.623 -42.5374 10.8768 -42.7376 11.0112 -0.115283C11.0645 16.8043 11.1535 45.0294 11.2088 62.564C11.2282 68.7248 2.75394 80.0671 -20.4852 80.4108C-43.7244 80.7546 -52.2687 69.8604 -52.2838 65.0584C-52.3394 47.4211 -52.4493 12.5712 -52.4886 0.0848538Z"></path>
  <path fill="#503F7E" transform="matrix(1.70248 0 0 1.44029 567.099 179.773)" d="M-52.4893 13.3474C-52.4893 0.861706 -46.228 -16.9737 -30.1482 -16.9737C-14.0684 -16.9737 -10.2784 -16.9737 -3.2142 -16.9737C3.85004 -16.9737 11.0107 -12.9707 11.0107 2.73135C11.0107 18.4334 11.0107 47.7067 11.0107 56.4809C11.0107 99.4374 -52.4893 99.3952 -52.4893 56.4387C-52.4893 45.6553 -52.4893 25.833 -52.4893 13.3474Z"></path>
  <path fill="#503F7E" transform="matrix(1.70248 0 0 1.55154 567.099 257.563)" d="M-52.4886 0.0848526C-52.623 -42.5375 10.8768 -42.7376 11.0112 -0.115284C11.0645 16.8043 11.1535 45.0294 11.2088 62.564C11.2282 68.7248 2.75394 80.0671 -20.4852 80.4108C-43.7244 80.7546 -52.2687 69.8604 -52.2838 65.0584C-52.3394 47.4211 -52.4493 12.5711 -52.4886 0.0848526Z"></path>
  <path fill="none" stroke="black" stroke-width="5" stroke-linejoin="round" transform="matrix(1.58884 0 0 1.70248 482.401 356.274)" d="M3.2486 -15.6843C21.4654 -15.1617 34.2677 -10.6205 32.7075 36.7461C32.6825 50.8532 36.3525 66.1191 21.075 74.6392C9.51464 74.2177 -3.42916 74.6557 -19.8776 73.9225C-30.4244 64.7914 -30.4432 50.8531 -30.4432 34.0309C-29.5285 -12.4507 -14.9682 -16.207 3.2486 -15.6843Z"></path>
  <path fill="#453279" transform="matrix(1.58884 0 0 1.70248 482.401 356.274)" d="M3.2486 -15.6843C21.4654 -15.1617 34.2677 -10.6205 32.7075 36.7461C32.6825 50.8532 36.3525 66.1191 21.075 74.6392C9.51464 74.2177 -3.42916 74.6557 -19.8776 73.9225C-30.4244 64.7914 -30.4432 50.8531 -30.4432 34.0309C-29.5285 -12.4507 -14.9682 -16.207 3.2486 -15.6843Z"></path>
  <path fill="none" stroke="black" stroke-width="5" stroke-linejoin="round" transform="matrix(1.58884 0 0 1.70248 408.748 362.548)" d="M-0.0200195 -14.3434C18.2054 -14.3653 31.226 -10.1701 31.2229 37.2187C31.837 56.0952 34.5794 69.0808 19.0958 75.6705C3.62161 76.0217 -7.06572 76.2142 -21.9017 75.8544C-36.7283 69.2561 -32.12 52.8085 -31.9872 36.3121C-32.6002 -10.1738 -18.2454 -14.3214 -0.0200195 -14.3434Z"></path>
  <path fill="none" stroke="black" stroke-width="5" stroke-linejoin="round" transform="matrix(1.70226 0.0261988 -0.0277736 1.60574 487.3 283.869)" d="M-11.3238 -80.2543C25.8014 -80.2543 54.9476 -94.6926 58.9092 -40.8672C62.8708 12.9582 37.0524 74.7499 0.0572919 75.3534C-14.1177 75.5847 -17.7665 75.6442 -48.2096 76.1409C-78.6526 76.6376 -84.25 60.12 -84.25 0C-86.6294 -86.0849 -88.6034 -78.4854 -12.7475 -80.2208"></path>
  <path fill="#503F7E" transform="matrix(1.58884 0 0 1.70248 408.748 362.548)" d="M-0.0200195 -14.3434C18.2054 -14.3653 31.226 -10.1701 31.2229 37.2187C31.837 56.0952 34.5794 69.0808 19.0958 75.6705C3.62161 76.0217 -7.06572 76.2142 -21.9017 75.8544C-36.7283 69.2561 -32.12 52.8085 -31.9872 36.3121C-32.6002 -10.1738 -18.2454 -14.3214 -0.0200195 -14.3434Z"></path>
  <path fill="none" stroke="black" stroke-width="5" stroke-linejoin="round" transform="matrix(1.44842 1.48659e-24 -1.35259e-24 1.31786 441.19 138.15)" d="M7.62939e-06 -40C20.9426 -40 35.0096 -26.8589 47.8597 -2.20018C49.1253 -3.81499 50.3124 -3.57653 51.1974 -3.11682C52.0824 -2.65711 52.5509 -1.60562 52.2206 -0.665342C53.8524 0.0631991 55.2854 1.47333 55.8775 2.67698C56.9197 4.79566 57.6743 10.5072 53.7931 11.8212C58.5977 31.9882 20.3683 22.0914 -5.66676e-06 22.0914C-20.2357 22.0914 -45.0732 28.3281 -41.8836 12.9784C-44.6787 11.8212 -48.2008 8.95144 -46.5316 4.29175C-45.7036 1.98006 -43.8184 0.567089 -42.3936 0.566997C-41.0391 0.56691 -42.9934 -2.2 -40.2188 -3.81491C-39.0195 -4.51291 -37.7273 -4.43211 -36.6067 -4.12355C-28.014 -23.7311 -20.4124 -40 7.62939e-06 -40Z"></path>
  <path fill="#503F7E" transform="matrix(1.70226 0.0261988 -0.0277736 1.60574 487.3 283.869)" d="M-11.3238 -80.2543C25.8014 -80.2543 54.9476 -94.6926 58.9092 -40.8672C62.8708 12.9582 37.0524 74.7499 0.0572919 75.3534C-14.1177 75.5847 -17.7665 75.6442 -48.2096 76.1409C-78.6526 76.6376 -84.25 60.12 -84.25 0C-86.6442 -86.62 -88.6279 -78.3873 -11.3238 -80.2543Z"></path>
  <clipPath id="cl_153">
    <path d="M470.253 154.705C533.45 155.677 583.465 133.257 588.714 219.79C593.962 306.323 548.297 404.868 485.305 404.868C461.169 404.868 454.956 404.868 403.12 404.868C351.285 404.868 342.215 378.198 343.885 281.661C342.215 142.51 338.61 155.677 470.253 154.705Z"></path>
  </clipPath>
  <g clip-path="url(#cl_153)">
    <path fill="#655494" transform="matrix(1.70248 0 0 1.70248 522.414 266.919)" d="M-0.158638 -48.2656C25.513 -48.2656 46.324 -26.6563 46.324 4.76837e-07C46.324 26.6563 25.513 48.2656 -0.158638 48.2656C-25.8303 48.2656 -46.6413 26.6563 -46.6413 4.76837e-07C-46.6413 -26.6563 -25.8303 -48.2656 -0.158638 -48.2656Z"></path>
  </g>
  <path fill="none" stroke="black" stroke-width="2" stroke-linejoin="round" transform="matrix(3.67759 -0.721864 0.653943 3.33157 447.621 64.1411)" d="M-4.34758 -5.25471C-4.34758 -11.5047 3.66088 -11.5047 3.66088 -5.25472C3.66088 0.995283 3.66088 12.5 3.66088 12.5L-4.57314 12.5C-4.57314 12.5 -4.34758 0.995284 -4.34758 -5.25471Z"></path>
  <path fill="none" stroke="black" stroke-width="2" stroke-linejoin="round" transform="matrix(3.33157 -0.653943 0.653943 3.33157 415.267 69.2607)" d="M-5.16451 -6.50117C-5.16451 -12.7512 6 -12.7512 6 -6.50117C6 -0.251166 6 12.5 6 12.5L-6 12.5C-6 12.5 -5.16451 -0.251167 -5.16451 -6.50117Z"></path>
  <path fill="#453279" transform="matrix(3.67759 -0.721864 0.653943 3.33157 447.621 64.1411)" d="M-4.34758 -5.25471C-4.34758 -11.5047 3.66088 -11.5047 3.66088 -5.25472C3.66088 0.995283 3.66088 12.5 3.66088 12.5L-4.57314 12.5C-4.57314 12.5 -4.34758 0.995284 -4.34758 -5.25471Z"></path>
  <path fill="none" stroke="#161616" stroke-width="0.5" stroke-linecap="round" stroke-linejoin="round" transform="matrix(3.67759 -0.721864 0.653943 3.33157 443.087 45.6676)" d="M7.30771e-07 1.51652L1.59903e-08 10.5382"></path>
  <path fill="#503F7E" transform="matrix(3.33157 -0.653943 0.653943 3.33157 415.267 69.2607)" d="M-5.16451 -6.50117C-5.16451 -12.7512 6 -12.7512 6 -6.50117C6 -0.251166 6 12.5 6 12.5L-6 12.5C-6 12.5 -5.16451 -0.251167 -5.16451 -6.50117Z"></path>
  <path fill="none" stroke="#161616" stroke-width="0.5" stroke-linecap="round" stroke-linejoin="round" transform="matrix(3.33157 -0.653943 0.653943 3.33157 415.469 50.3267)" d="M1.85391e-08 2.6499e-08L3.83324e-06 10.5382"></path>
  <path fill="#503F7E" transform="matrix(1.44842 0 0 1.31786 441.19 138.15)" d="M7.62939e-06 -40C20.9426 -40 35.0096 -26.8589 47.8597 -2.20018C49.1253 -3.81499 50.3124 -3.57653 51.1974 -3.11682C52.0824 -2.65711 52.5509 -1.60562 52.2206 -0.665342C53.8524 0.0631991 55.2854 1.47333 55.8775 2.67698C56.9197 4.79566 57.6743 10.5072 53.7931 11.8212C58.5977 31.9882 20.3683 22.0914 -5.66676e-06 22.0914C-20.2357 22.0914 -45.0732 28.3281 -41.8836 12.9784C-44.6787 11.8212 -48.2008 8.95144 -46.5316 4.29175C-45.7036 1.98006 -43.8184 0.567089 -42.3936 0.566997C-41.0391 0.56691 -42.9934 -2.2 -40.2188 -3.81491C-39.0195 -4.51291 -37.7273 -4.43211 -36.6067 -4.12355C-28.014 -23.7311 -20.4124 -40 7.62939e-06 -40Z"></path>
  <clipPath id="cl_154">
    <path d="M441.19 85.4358C471.524 85.4358 491.899 102.754 510.511 135.251C512.344 133.122 514.063 133.437 515.345 134.043C516.627 134.648 517.306 136.034 516.827 137.273C519.191 138.233 521.266 140.092 522.124 141.678C523.634 144.47 524.727 151.997 519.105 153.729C526.064 180.306 470.692 167.263 441.19 167.263C411.88 167.263 375.905 175.482 380.525 155.254C376.477 153.729 371.375 149.947 373.793 143.806C374.992 140.76 377.723 138.897 379.786 138.897C381.748 138.897 378.918 135.251 382.936 133.123C384.673 132.203 386.545 132.309 388.168 132.716C400.614 106.876 411.624 85.4358 441.19 85.4358Z"></path>
  </clipPath>
  <g clip-path="url(#cl_154)">
    <path fill="#7463A5" transform="matrix(1.70248 0 0.00718207 1.70248 427.401 123.828)" d="M-2.67755e-09 -5.5C3.86599 -5.5 7 -2.92564 7 0.25C7 3.42564 3.86599 6 2.67755e-09 6C-3.86599 6 -7 3.42564 -7 0.25C-7 -2.92564 -3.86599 -5.5 -2.67755e-09 -5.5Z"></path>
    <path fill="#7463A5" transform="matrix(1.7367 0 0.00718207 1.70248 477.103 116.123)" d="M2.44472e-09 -5C2.76142 -5 5 -2.6495 5 0.25C5 3.1495 2.76142 5.5 -2.44472e-09 5.5C-2.76142 5.5 -5 3.1495 -5 0.25C-5 -2.6495 -2.76142 -5 2.44472e-09 -5Z"></path>
    <path fill="none" stroke="#131212" stroke-width="1" stroke-linecap="round" stroke-linejoin="round" transform="matrix(2.182 -0.353477 0.259285 1.60056 456.513 109.79)" d="M4.88246e-07 7.21529e-06L2.92891 -0.71456"></path>
    <path fill="none" stroke="#131212" stroke-width="1" stroke-linecap="round" stroke-linejoin="round" transform="matrix(2.182 -0.353477 0.259285 1.60056 435.941 109.005)" d="M0 -7.77785e-06L4.25731 1.79212"></path>
    <path fill="#131212" transform="matrix(2.33716 -0.378612 0.383771 2.36901 448.979 111.947)" d="M-4.99596e-07 -4.03018e-06L1.9614 0.352734L0.915089 1.42246L-4.99596e-07 -4.03018e-06Z"></path>
    <path fill="none" stroke="#131212" stroke-width="0.5" stroke-linecap="round" stroke-linejoin="round" transform="matrix(1.83262 -0.296878 0.300923 1.85759 451.873 115.291)" d="M1.0783e-07 -0.711224L-3.70687e-06 1.1102"></path>
    <path fill="#32225E" transform="matrix(1.64843 0.417573 -0.40107 1.65095 445.998 104.507)" d="M5.74338e-08 -1.92716C1.62851 -1.92716 2.94867 -1.06435 2.94867 -7.58546e-06C2.94867 1.06433 1.62851 1.92715 -5.74338e-08 1.92715C-1.62851 1.92715 -2.94867 1.06433 -2.94867 -7.67333e-06C-2.94867 -1.06435 -1.62851 -1.92716 5.74338e-08 -1.92716Z"></path>
    <path fill="#32225E" transform="matrix(1.61937 0.410211 -0.390122 1.60588 456.584 103.68)" d="M-7.65769e-06 -1.89919C0.889981 -1.89919 1.61146 -1.04889 1.61146 -2.40127e-08C1.61146 1.04889 0.889981 1.89919 -7.60109e-06 1.89919C-0.889997 1.89919 -1.61148 1.04889 -1.61148 2.40127e-08C-1.61148 -1.04889 -0.889997 -1.89919 -7.65769e-06 -1.89919Z"></path>
  </g>
  <path fill="none" stroke="black" stroke-width="6" stroke-linejoin="round" transform="matrix(1.70248 0 0 1.70248 388.529 267.34)" d="M-18.2091 12.8505C-35.5593 -22.8858 21.5641 -50.6195 38.9144 -14.8832C46.3041 0.337469 58.6314 25.7284 66.2897 41.5022C68.9805 47.0444 66.2672 60.9404 45.479 71.3339C24.6908 81.7274 12.2656 75.6197 10.1683 71.2999C2.46513 55.4336 -12.7557 24.0831 -18.2091 12.8505Z"></path>
  <path fill="none" stroke="black" stroke-width="6" stroke-linecap="round" stroke-linejoin="bevel" transform="matrix(1.70248 0 0 1.58041 388.529 181.982)" d="M38.4772 30.5984C39.9559 38.3727 41.2298 45.0699 41.8868 48.5241C49.891 90.6064 -12.3245 104.296 -20.3287 62.2133C-22.338 51.6494 -26.0316 32.2306 -28.3581 19.9991C-30.6846 7.76749 -27.874 -11.0588 -12.1214 -14.5358C-10.5247 -14.8882 -9.0517 -15.2133 -7.68652 -15.5146"></path>
  <path fill="#503F7E" transform="matrix(1.70248 0 0 1.70248 388.529 267.34)" d="M-18.2091 12.8505C-36.2799 -24.3701 20.8436 -52.1038 38.9144 -14.8832C46.3041 0.337467 58.6314 25.7284 66.2897 41.5022C68.9805 47.0444 66.2672 60.9404 45.479 71.3339C24.6908 81.7274 12.2656 75.6197 10.1683 71.2999C2.46513 55.4336 -12.7557 24.0831 -18.2091 12.8505Z"></path>
  <path fill="#503F7E" transform="matrix(1.70248 0 0 1.58041 388.529 181.982)" d="M-28.3581 19.999C-30.6846 7.76749 -27.874 -11.0588 -12.1214 -14.5358C3.63113 -18.0127 7.34392 -18.8322 14.2644 -20.3597C21.1848 -21.8872 28.9456 -19.514 31.8714 -4.13147C34.7973 11.251 40.2519 39.9286 41.8868 48.5241C48.9274 85.5401 -13.2881 99.2293 -20.3287 62.2133C-22.338 51.6494 -26.0316 32.2306 -28.3581 19.999Z"></path>
  <path fill="none" stroke="#010101" stroke-width="7" stroke-linecap="round" stroke-miterlimit="4" transform="matrix(1.00146 0 0 1.00146 343 256)" d="M-77.9163 15.0987C-22.757 15.0987 21.9584 15.1693 21.9584 15.2563C21.9584 15.3433 -22.757 15.4139 -77.9163 15.4139C-133.076 15.4139 -177.791 15.3433 -177.791 15.2563C-177.791 15.1693 -133.076 15.0987 -77.9163 15.0987Z"></path>
  <path fill="#8D5A3E" transform="matrix(1.20507 9.0505e-23 -1.42778e-25 0.00190108 264.97 271.279)" d="M1.02305e-30 -83.0005C45.8396 -83.0005 83 -45.8401 83 -0.000488281C83 45.8391 45.8396 82.9995 -1.02305e-30 82.9995C-45.8396 82.9995 -83 45.8391 -83 -0.000488281C-83 -45.8401 -45.8396 -83.0005 1.02305e-30 -83.0005Z"></path>
  <path fill="#65524C" transform="matrix(0.692913 5.20404e-23 -1.31735e-25 0.00175404 264.97 271.304)" d="M1.20178e-30 -97.5C45.8396 -97.5 83 -53.8478 83 -2.68187e-25C83 53.8478 45.8396 97.5 -1.20178e-30 97.5C-45.8396 97.5 -83 53.8478 -83 2.68187e-25C-83 -53.8478 -45.8396 -97.5 1.20178e-30 -97.5Z"></path>
  <clipPath id="cl_15c">
    <path d="M264.97 271.133C296.733 271.133 322.482 271.21 322.482 271.304C322.482 271.399 296.733 271.475 264.97 271.475C233.207 271.475 207.458 271.399 207.458 271.304C207.458 271.21 233.207 271.133 264.97 271.133Z"></path>
  </clipPath>
  <g clip-path="url(#cl_15c)">
    <path fill="#281C18" transform="matrix(0.692913 5.20404e-23 -1.31735e-25 0.00175404 246.894 271.304)" d="M0 -97.5C45.8396 -97.5 83 -53.8478 83 -2.68187e-25C83 53.8478 45.8396 97.5 0 97.5C-45.8396 97.5 -83 53.8478 -83 2.68187e-25C-83 -53.8478 -45.8396 -97.5 0 -97.5Z"></path>
  </g>
  <path fill="none" stroke="#010101" stroke-width="7" stroke-linejoin="round" transform="matrix(1.00146 0 0 1.00146 343 256)" d="M-176.637 15.2342C-176.65 15.2337 -176.662 15.2332 -176.673 15.2326C-176.673 15.2326 -219.741 28.8942 -219.952 67.5823C-219.952 67.5823 -203.542 74.6835 -160.257 87.5375C-126.501 97.5617 -131.282 90.9157 -78.7877 93.6881C-56.2537 96.1517 -12.6525 87.3949 -12.6525 87.3949C-12.6525 87.3949 -12.9327 78.8525 -7.95983 78.8525C-2.98695 78.8525 -0.114357 87.3949 -0.114357 87.3949C11.9215 87.3949 22.7016 81.3033 31.7527 79.9859C60.2741 75.8345 63.697 67.5823 63.697 67.5823C63.6971 28.8942 20.4673 15.2327 20.4673 15.2327C7.03192 15.3379 -28.0073 15.4139 -77.9163 15.4141C-127.58 15.4143 -173.999 15.3386 -176.637 15.2342"></path>
  <path fill="none" stroke="#010101" stroke-width="21" stroke-linecap="round" stroke-linejoin="round" transform="matrix(0.91934 6.90459e-23 -6.90459e-23 0.91934 115.118 323.681)" d="M8.27733 0C8.27733 0 26.1524 7.73553 73.3041 21.7377C110.075 32.6572 104.867 25.4176 162.051 28.4377C186.598 31.1214 234.093 21.5824 234.093 21.5824C234.093 21.5824 233.788 12.2769 239.205 12.2769C244.622 12.2769 247.752 21.5824 247.752 21.5824C260.863 21.5824 272.606 14.9466 282.465 13.5115C313.534 8.98929 317.263 0 317.263 0C317.263 -0.789491 317.246 -1.56941 317.214 -2.33985"></path>
  <path fill="none" stroke="white" stroke-width="14" stroke-linecap="round" stroke-linejoin="round" transform="matrix(0.91934 6.90459e-23 -6.90459e-23 0.91934 115.118 323.681)" d="M8.27733 0C8.27733 0 26.1524 7.73553 73.3041 21.7377C110.075 32.6572 104.867 25.4176 162.051 28.4377C186.598 31.1214 234.093 21.5824 234.093 21.5824C234.093 21.5824 233.788 12.2769 239.205 12.2769C244.622 12.2769 247.752 21.5824 247.752 21.5824C260.863 21.5824 272.606 14.9466 282.465 13.5115C313.534 8.98929 317.263 0 317.263 0C317.263 -0.168577 317.262 -0.336718 317.261 -0.504424"></path>
  <path fill="#8D5A3E" transform="matrix(0.91934 6.90459e-23 -6.90459e-23 0.91934 115.118 323.681)" d="M8.27733 0C8.27733 0 28.6505 6.97294 72.0222 20.0838C95.5232 27.188 124.361 26.4472 162.051 28.4377C186.598 31.1214 234.093 21.5824 234.093 21.5824C234.093 21.5824 234.776 13.5868 238.41 13.5868C242.043 13.5868 247.752 21.5824 247.752 21.5824C260.529 21.5824 277.837 13.8723 286.934 12.7945C317.391 9.18614 317.263 0 317.263 0C317.263 -42.1439 270.172 -57.0257 270.172 -57.0257C255.536 -56.9111 217.367 -56.8284 163 -56.8281C108.633 -56.8279 57.8352 -56.9111 55.4223 -57.0258C55.4223 -57.0258 8.50729 -42.1439 8.27733 0Z"></path>
  <clipPath id="cl_15d">
    <path d="M122.727 323.681C122.727 323.681 141.457 330.091 181.33 342.145C202.936 348.676 229.448 347.995 264.097 349.825C286.664 352.292 330.329 343.523 330.329 343.523C330.329 343.523 330.957 336.172 334.297 336.172C337.637 336.172 342.885 343.523 342.885 343.523C354.632 343.523 370.544 336.434 378.908 335.443C406.908 332.126 406.79 323.681 406.79 323.681C406.79 284.936 363.497 271.255 363.497 271.255C350.042 271.36 314.952 271.436 264.97 271.437C214.988 271.437 168.288 271.36 166.069 271.255C166.069 271.255 122.939 284.936 122.727 323.681Z"></path>
  </clipPath>
  <g clip-path="url(#cl_15d)">
    <path fill="#7F4728" transform="matrix(2.47275 -0.0817371 0.117134 3.54359 212.568 323.221)" d="M-14.8742 -9.69253L16.7537 -6.3603L15.092 9.39556L-21.0084 4.35254L-14.8742 -9.69253Z"></path>
  </g>
  <path fill="none" stroke="#612F13" stroke-width="1" stroke-linecap="round" stroke-linejoin="round" transform="matrix(0.0618651 -1.47647 1.47647 0.0618651 222.919 298.966)" d="M1.02357 0.373779L4.21644 0.641903"></path>
  <path fill="none" stroke="#612F13" stroke-width="1" stroke-linecap="round" stroke-linejoin="round" transform="matrix(0.0618651 -1.47647 1.47647 0.0618651 211.427 298.506)" d="M1.02357 0.373772L4.21644 0.641895"></path>
  <clipPath id="cl_15e">
    <path d="M122.727 323.681C122.727 323.681 141.457 330.091 181.33 342.145C202.936 348.676 229.448 347.995 264.097 349.825C286.664 352.292 330.329 343.523 330.329 343.523C330.329 343.523 330.957 336.172 334.297 336.172C337.637 336.172 342.885 343.523 342.885 343.523C354.632 343.523 370.544 336.434 378.908 335.443C406.908 332.126 406.79 323.681 406.79 323.681C406.79 284.936 363.497 271.255 363.497 271.255C350.042 271.36 314.952 271.436 264.97 271.437C214.988 271.437 168.288 271.36 166.069 271.255C166.069 271.255 122.939 284.936 122.727 323.681Z"></path>
  </clipPath>
  <g clip-path="url(#cl_15e)">
    <clipPath id="cl_15f">
      <path d="M122.727 323.681C122.727 323.681 141.457 330.091 181.33 342.145C202.936 348.676 229.448 347.995 264.097 349.825C286.664 352.292 330.329 343.523 330.329 343.523C330.329 343.523 330.957 336.172 334.297 336.172C337.637 336.172 342.885 343.523 342.885 343.523C354.632 343.523 370.544 336.434 378.908 335.443C406.908 332.126 406.79 323.681 406.79 323.681C406.79 284.936 363.497 271.255 363.497 271.255C350.042 271.36 314.952 271.436 264.97 271.437C214.988 271.437 168.288 271.36 166.069 271.255C166.069 271.255 122.939 284.936 122.727 323.681Z"></path>
    </clipPath>
    <g clip-path="url(#cl_15f)">
      <path fill="#7F4728" transform="matrix(0.91934 6.90459e-23 -6.90459e-23 0.91934 387.702 300.927)" d="M3.8147e-06 -32.5C25.6812 -32.5 46.5 -17.8373 46.5 0.250004C46.5 18.3373 25.6812 33 3.8147e-06 33C-25.6812 33 -46.5 18.3373 -46.5 0.250004C-46.5 -17.8373 -25.6812 -32.5 3.8147e-06 -32.5Z"></path>
    </g>
    <path fill="none" stroke="#612F13" stroke-width="1" stroke-linecap="round" stroke-linejoin="round" transform="matrix(-1.35113 0.598538 -0.598538 -1.35113 349.09 305.294)" d="M1.02357 0.373768L4.21644 0.641892"></path>
    <path fill="none" stroke="#612F13" stroke-width="1" stroke-linecap="round" stroke-linejoin="round" transform="matrix(-0.766963 1.26316 -1.26316 -0.766963 363.339 320.923)" d="M1.02357 0.373775L4.21644 0.641899"></path>
    <path fill="none" stroke="#612F13" stroke-width="1" stroke-linecap="round" stroke-linejoin="round" transform="matrix(-1.47709 -0.0446689 0.0446689 -1.47709 349.549 296.101)" d="M1.02357 0.373772L4.21644 0.641895"></path>
  </g>
</svg>