<?xml version="1.0" encoding="utf-8"?>
<svg xmlns="http://www.w3.org/2000/svg" xmlns:xlink="http://www.w3.org/1999/xlink" width="686" height="512">
  <path fill="none" stroke="#565656" stroke-width="6" stroke-linejoin="round" transform="matrix(1.70248 0 0 1.44029 558.017 179.773)" d="M-12.9438 -16.9737C-9.28958 -16.9737 -6.63601 -16.9737 -3.21419 -16.9737C3.85004 -16.9737 11.0107 -12.9707 11.0107 2.73135C11.0107 18.4334 11.0107 47.7067 11.0107 56.4808C11.0107 99.4374 -52.4893 99.3952 -52.4893 56.4387C-52.4893 45.6553 -52.4893 25.833 -52.4893 13.3474C-52.4893 0.861706 -46.228 -16.9737 -30.1481 -16.9737C-28.9444 -16.9737 -27.8096 -16.9737 -26.7371 -16.9737"></path>
  <path fill="none" stroke="#565656" stroke-width="6" stroke-linejoin="round" transform="matrix(1.70248 0 0 1.55154 558.017 257.563)" d="M-52.3208 3.07178C-56.4845 -39.3469 6.71188 -45.55 10.8756 -3.13136C12.5284 13.7074 15.2856 41.7976 16.9986 59.2484C17.6004 65.3798 10.2365 77.4725 -12.866 80.012C-35.9685 82.5515 -45.5046 72.514 -45.9737 67.7349C-47.6967 50.1818 -51.1011 15.4984 -52.3208 3.07178Z"></path>
  <path fill="#867CA2" transform="matrix(1.70248 0 0 1.44029 558.017 179.773)" d="M-52.4893 13.3474C-52.4893 0.861706 -46.228 -16.9737 -30.1481 -16.9737C-14.0683 -16.9737 -10.2784 -16.9737 -3.21419 -16.9737C3.85004 -16.9737 11.0107 -12.9707 11.0107 2.73135C11.0107 18.4334 11.0107 47.7067 11.0107 56.4809C11.0107 99.4374 -52.4893 99.3952 -52.4893 56.4387C-52.4893 45.6553 -52.4893 25.833 -52.4893 13.3474Z"></path>
  <path fill="#867CA2" transform="matrix(1.70248 0 0 1.55154 558.017 257.563)" d="M-52.3208 3.07178C-56.4845 -39.3469 6.71188 -45.55 10.8756 -3.13136C12.5284 13.7074 15.2856 41.7976 16.9986 59.2484C17.6004 65.3798 10.2365 77.4725 -12.866 80.012C-35.9685 82.5515 -45.5046 72.514 -45.9737 67.7349C-47.6967 50.1818 -51.1011 15.4984 -52.3208 3.07178Z"></path>
  <path fill="none" stroke="#565656" stroke-width="5" stroke-linejoin="round" transform="matrix(1.58884 0 0 1.70248 473.319 356.274)" d="M2.10729 -15.6475C20.316 -16.3761 33.4414 -12.7255 35.6166 34.62C36.7029 48.6906 41.5655 63.6634 27.0005 73.2086C15.4383 73.5814 2.564 74.9062 -13.8976 75.3035C-25.1352 66.9207 -26.252 53.0215 -27.5771 36.2448C-30.3263 -10.1738 -16.1014 -14.9189 2.10729 -15.6475Z"></path>
  <path fill="#7F749F" transform="matrix(1.58884 0 0 1.70248 473.319 356.274)" d="M2.10729 -15.6475C20.316 -16.3761 33.4414 -12.7255 35.6166 34.62C36.7029 48.6906 41.5655 63.6634 27.0005 73.2086C15.4383 73.5814 2.564 74.9062 -13.8976 75.3035C-25.1352 66.9207 -26.252 53.0215 -27.5771 36.2448C-30.3263 -10.1738 -16.1014 -14.9189 2.10729 -15.6475Z"></path>
  <path fill="none" stroke="#565656" stroke-width="5" stroke-linejoin="round" transform="matrix(1.58884 0 0 1.70248 399.666 362.548)" d="M-1.15173 -14.2731C17.0233 -15.537 30.2655 -12.2742 34.0385 34.9837C36.1551 53.7653 39.9666 66.4788 25.0619 74.1435C9.66063 75.5871 -0.980427 76.534 -15.803 77.2234C-31.1223 71.6916 -27.8868 54.9264 -29.0689 38.4664C-33.3844 -7.84826 -19.3268 -13.0093 -1.15173 -14.2731Z"></path>
  <path fill="none" stroke="#565656" stroke-width="5" stroke-linejoin="round" transform="matrix(1.70226 0.0261988 -0.0277736 1.60574 478.218 283.869)" d="M-11.3238 -80.2543C25.8014 -80.2543 54.9476 -94.6926 58.9092 -40.8672C62.8708 12.9582 37.0524 74.7499 0.0572995 75.3534C-14.1177 75.5847 -17.7665 75.6442 -48.2096 76.1409C-78.6526 76.6376 -84.25 60.12 -84.25 0C-86.6294 -86.0849 -88.6034 -78.4854 -12.7475 -80.2208"></path>
  <path fill="#867CA2" transform="matrix(1.58884 0 0 1.70248 399.666 362.548)" d="M-1.15173 -14.2731C17.0233 -15.537 30.2655 -12.2742 34.0385 34.9837C36.1551 53.7653 39.9666 66.4788 25.0619 74.1435C9.66063 75.5871 -0.980427 76.534 -15.803 77.2234C-31.1223 71.6916 -27.8868 54.9264 -29.0689 38.4664C-33.3844 -7.84826 -19.3268 -13.0093 -1.15173 -14.2731Z"></path>
  <path fill="none" stroke="#565656" stroke-width="5" stroke-linejoin="round" transform="matrix(1.44842 1.48659e-24 -1.35259e-24 1.31786 423.208 138.15)" d="M0 -40C20.9426 -40 35.0096 -26.8589 47.8597 -2.20018C49.1253 -3.81499 50.3123 -3.57653 51.1974 -3.11682C52.0824 -2.65711 52.5509 -1.60562 52.2206 -0.665342C53.8523 0.0631991 55.2854 1.47333 55.8775 2.67698C56.9197 4.79566 57.6743 10.5072 53.7931 11.8212C58.5977 31.9882 20.3682 22.0914 -1.32962e-05 22.0914C-20.2357 22.0914 -45.0732 28.3281 -41.8836 12.9784C-44.6787 11.8212 -48.2008 8.95144 -46.5316 4.29175C-45.7036 1.98006 -43.8185 0.567089 -42.3936 0.566997C-41.0392 0.56691 -42.9934 -2.2 -40.2188 -3.81491C-39.0195 -4.51291 -37.7273 -4.43211 -36.6068 -4.12355C-28.0141 -23.7311 -20.4124 -40 0 -40Z"></path>
  <path fill="#867CA2" transform="matrix(1.70226 0.0261988 -0.0277736 1.60574 478.218 283.869)" d="M-11.3238 -80.2543C25.8014 -80.2543 54.9476 -94.6926 58.9092 -40.8672C62.8708 12.9582 37.0524 74.7499 0.0572995 75.3534C-14.1177 75.5847 -17.7665 75.6442 -48.2096 76.1409C-78.6526 76.6376 -84.25 60.12 -84.25 0C-86.6442 -86.62 -88.6279 -78.3873 -11.3238 -80.2543Z"></path>
  <clipPath id="cl_103">
    <path d="M461.171 154.705C524.368 155.677 574.383 133.257 579.632 219.79C584.881 306.323 539.215 404.868 476.223 404.868C452.087 404.868 445.874 404.868 394.039 404.868C342.203 404.868 333.134 378.198 334.803 281.661C333.134 142.51 329.528 155.677 461.171 154.705Z"></path>
  </clipPath>
  <g clip-path="url(#cl_103)">
    <path fill="#9388AF" transform="matrix(1.70248 0 0 1.70248 513.333 266.919)" d="M-0.158646 -48.2656C25.513 -48.2656 46.324 -26.6563 46.324 4.76837e-07C46.324 26.6563 25.513 48.2656 -0.158646 48.2656C-25.8303 48.2656 -46.6413 26.6563 -46.6413 4.76837e-07C-46.6413 -26.6563 -25.8303 -48.2656 -0.158646 -48.2656Z"></path>
  </g>
  <path fill="none" stroke="#565656" stroke-width="2" stroke-linejoin="round" transform="matrix(3.67759 -0.721864 0.653943 3.33157 429.64 64.1411)" d="M-4.34758 -5.25471C-4.34758 -11.5047 3.66088 -11.5047 3.66088 -5.25471C3.66088 0.995287 3.66089 12.5 3.66089 12.5L-4.57313 12.5C-4.57313 12.5 -4.34758 0.995288 -4.34758 -5.25471Z"></path>
  <path fill="none" stroke="#565656" stroke-width="2" stroke-linejoin="round" transform="matrix(3.33157 -0.653943 0.653943 3.33157 397.285 69.2607)" d="M-5.1645 -6.50117C-5.16451 -12.7512 6 -12.7512 6 -6.50117C6 -0.251166 6 12.5 6 12.5L-6 12.5C-6 12.5 -5.1645 -0.251167 -5.1645 -6.50117Z"></path>
  <path fill="#7F749F" transform="matrix(3.67759 -0.721864 0.653943 3.33157 429.64 64.1411)" d="M-4.34758 -5.25471C-4.34758 -11.5047 3.66088 -11.5047 3.66088 -5.25471C3.66088 0.995287 3.66089 12.5 3.66089 12.5L-4.57313 12.5C-4.57313 12.5 -4.34758 0.995288 -4.34758 -5.25471Z"></path>
  <path fill="none" stroke="#636363" stroke-width="0.5" stroke-linecap="round" stroke-linejoin="round" transform="matrix(3.67759 -0.721864 0.653943 3.33157 425.106 45.6676)" d="M8.36017e-06 1.51652L7.64539e-06 10.5382"></path>
  <path fill="#867CA2" transform="matrix(3.33157 -0.653943 0.653943 3.33157 397.285 69.2607)" d="M-5.1645 -6.50117C-5.16451 -12.7512 6 -12.7512 6 -6.50117C6 -0.251166 6 12.5 6 12.5L-6 12.5C-6 12.5 -5.1645 -0.251167 -5.1645 -6.50117Z"></path>
  <path fill="none" stroke="#636363" stroke-width="0.5" stroke-linecap="round" stroke-linejoin="round" transform="matrix(3.33157 -0.653943 0.653943 3.33157 397.488 50.3267)" d="M1.85391e-08 2.6499e-08L3.83324e-06 10.5382"></path>
  <path fill="#867CA2" transform="matrix(1.44842 0 0 1.31786 423.208 138.15)" d="M0 -40C20.9426 -40 35.0096 -26.8589 47.8597 -2.20018C49.1253 -3.81499 50.3123 -3.57653 51.1974 -3.11682C52.0824 -2.65711 52.5509 -1.60562 52.2206 -0.665342C53.8523 0.0631991 55.2854 1.47333 55.8775 2.67698C56.9197 4.79566 57.6743 10.5072 53.7931 11.8212C58.5977 31.9882 20.3682 22.0914 -1.32962e-05 22.0914C-20.2357 22.0914 -45.0732 28.3281 -41.8836 12.9784C-44.6787 11.8212 -48.2008 8.95144 -46.5316 4.29175C-45.7036 1.98006 -43.8185 0.567089 -42.3936 0.566997C-41.0392 0.56691 -42.9934 -2.2 -40.2188 -3.81491C-39.0195 -4.51291 -37.7273 -4.43211 -36.6068 -4.12355C-28.0141 -23.7311 -20.4124 -40 0 -40Z"></path>
  <clipPath id="cl_104">
    <path d="M423.208 85.4358C453.542 85.4358 473.917 102.754 492.529 135.251C494.363 133.122 496.082 133.437 497.364 134.043C498.646 134.648 499.324 136.034 498.846 137.273C501.209 138.233 503.285 140.092 504.143 141.678C505.652 144.47 506.745 151.997 501.123 153.729C508.083 180.306 452.71 167.263 423.208 167.263C393.899 167.263 357.924 175.482 362.543 155.254C358.495 153.729 353.394 149.947 355.811 143.806C357.011 140.76 359.741 138.897 361.805 138.897C363.767 138.897 360.936 135.251 364.955 133.123C366.692 132.203 368.563 132.309 370.187 132.716C382.632 106.876 393.643 85.4358 423.208 85.4358Z"></path>
  </clipPath>
  <g clip-path="url(#cl_104)">
    <path fill="#9C91B9" transform="matrix(1.70248 0 0.00718207 1.70248 404.42 123.828)" d="M-3.81737e-06 -5.5C3.86599 -5.5 7 -2.92564 7 0.25C7 3.42564 3.86599 6 -3.81202e-06 6C-3.866 6 -7 3.42564 -7 0.25C-7 -2.92564 -3.866 -5.5 -3.81737e-06 -5.5Z"></path>
    <path fill="#9C91B9" transform="matrix(1.7367 0 0.00718207 1.70248 454.122 116.123)" d="M2.44472e-09 -5C2.76142 -5 5 -2.6495 5 0.25C5 3.1495 2.76142 5.5 -2.44472e-09 5.5C-2.76142 5.5 -5 3.1495 -5 0.25C-5 -2.6495 -2.76142 -5 2.44472e-09 -5Z"></path>
    <path fill="none" stroke="#616161" stroke-width="1" stroke-linecap="round" stroke-linejoin="round" transform="matrix(2.182 -0.353477 0.259285 1.60056 433.533 109.79)" d="M-3.32645e-06 -4.14104e-07L2.92891 -0.714567"></path>
    <path fill="none" stroke="#616161" stroke-width="1" stroke-linecap="round" stroke-linejoin="round" transform="matrix(2.182 -0.353477 0.259285 1.60056 412.96 109.005)" d="M0 -1.48459e-07L4.25731 1.79213"></path>
    <path fill="#616161" transform="matrix(2.33716 -0.378612 0.383771 2.36901 425.998 111.947)" d="M-4.99596e-07 -4.03018e-06L1.9614 0.352734L0.915089 1.42246L-4.99596e-07 -4.03018e-06Z"></path>
    <path fill="none" stroke="#616161" stroke-width="0.5" stroke-linecap="round" stroke-linejoin="round" transform="matrix(1.83262 -0.296878 0.300923 1.85759 428.892 115.291)" d="M-3.70687e-06 -0.711224L-7.52156e-06 1.1102"></path>
    <path fill="#746A8E" transform="matrix(1.64843 0.417573 -0.40107 1.65095 423.017 104.507)" d="M-1.84991e-06 -1.92716C1.6285 -1.92716 2.94867 -1.06434 2.94867 4.39386e-08C2.94867 1.06434 1.6285 1.92716 -1.96478e-06 1.92716C-1.62851 1.92716 -2.94867 1.06434 -2.94867 -4.39386e-08C-2.94867 -1.06434 -1.62851 -1.92716 -1.84991e-06 -1.92716Z"></path>
    <path fill="#746A8E" transform="matrix(1.61937 0.410211 -0.390122 1.60588 433.603 103.68)" d="M-7.65769e-06 -1.89919C0.889981 -1.89919 1.61146 -1.04889 1.61146 -2.40127e-08C1.61146 1.04889 0.889981 1.89919 -7.60109e-06 1.89919C-0.889997 1.89919 -1.61148 1.04889 -1.61148 2.40127e-08C-1.61148 -1.04889 -0.889997 -1.89919 -7.65769e-06 -1.89919Z"></path>
  </g>
  <path fill="none" stroke="#565656" stroke-width="6" stroke-linejoin="round" transform="matrix(1.70248 0 0 1.70248 379.447 267.34)" d="M-11.7723 13.2348C-31.4109 -21.297 23.787 -52.6887 43.4256 -18.157C51.79 -3.44938 65.7434 21.0856 74.4118 36.3278C77.4574 41.6831 75.654 55.7262 55.5861 67.4503C35.5182 79.1743 22.722 73.8881 20.3481 69.7138C11.6289 54.3824 -5.59956 24.0886 -11.7723 13.2348Z"></path>
  <path fill="none" stroke="#565656" stroke-width="6" stroke-linecap="round" stroke-linejoin="bevel" transform="matrix(1.70248 0 0 1.58041 379.447 181.982)" d="M41.4072 25.6551C43.7038 33.242 45.6839 39.7839 46.703 43.1508C59.065 83.9911 -1.31877 105.157 -13.6807 64.3165C-16.784 54.0644 -22.4884 35.2187 -26.0815 23.3481C-29.6746 11.4776 -28.8544 -7.57018 -13.5667 -12.94C-12.093 -13.4577 -10.7278 -13.9372 -9.4579 -14.3833"></path>
  <path fill="#867CA2" transform="matrix(1.70248 0 0 1.70248 379.447 267.34)" d="M-11.7723 13.2348C-32.2266 -22.7312 22.9713 -54.1229 43.4256 -18.157C51.79 -3.44938 65.7434 21.0856 74.4118 36.3278C77.4574 41.6831 75.654 55.7262 55.5861 67.4503C35.5182 79.1743 22.722 73.888 20.3481 69.7138C11.6289 54.3824 -5.59956 24.0886 -11.7723 13.2348Z"></path>
  <path fill="#867CA2" transform="matrix(1.70248 0 0 1.58041 379.447 181.982)" d="M-26.0815 23.3481C-29.6746 11.4776 -28.8544 -7.57018 -13.5667 -12.94C1.72089 -18.3099 5.3241 -19.5755 12.0403 -21.9346C18.7565 -24.2937 26.7164 -22.8792 31.2351 -7.95073C35.7538 6.97777 44.178 34.8089 46.703 43.1508C57.5767 79.0743 -2.80705 100.24 -13.6808 64.3165C-16.784 54.0644 -22.4884 35.2187 -26.0815 23.3481Z"></path>
  <path fill="none" stroke="#010101" stroke-width="7" stroke-linecap="round" stroke-miterlimit="4" transform="matrix(1.00146 0 0 1.00146 343 256)" d="M-46.0147 -78.6559C9.14462 -78.6559 53.8601 -78.5853 53.8601 -78.4983C53.8601 -78.4113 9.14462 -78.3407 -46.0147 -78.3407C-101.174 -78.3407 -145.889 -78.4113 -145.889 -78.4983C-145.889 -78.5853 -101.174 -78.6559 -46.0147 -78.6559Z"></path>
  <path fill="#8D5A3E" transform="matrix(1.20507 9.0505e-23 -1.42778e-25 0.00190108 296.918 177.387)" d="M1.02305e-30 -82.9961C45.8396 -82.9961 83 -45.8357 83 0.00390625C83 45.8435 45.8396 83.0039 -1.02305e-30 83.0039C-45.8396 83.0039 -83 45.8435 -83 0.00390625C-83 -45.8357 -45.8396 -82.9961 1.02305e-30 -82.9961Z"></path>
  <path fill="#65524C" transform="matrix(0.692913 5.20404e-23 -1.31735e-25 0.00175404 296.918 177.413)" d="M-7.62939e-06 -97.5C45.8396 -97.5 83 -53.8478 83 -2.68187e-25C83 53.8478 45.8396 97.5 -7.62939e-06 97.5C-45.8396 97.5 -83 53.8478 -83 2.68187e-25C-83 -53.8478 -45.8396 -97.5 -7.62939e-06 -97.5Z"></path>
  <clipPath id="cl_10c">
    <path d="M296.918 177.242C328.681 177.242 354.43 177.318 354.43 177.413C354.43 177.507 328.681 177.584 296.918 177.584C265.155 177.584 239.406 177.507 239.406 177.413C239.406 177.318 265.155 177.242 296.918 177.242Z"></path>
  </clipPath>
  <g clip-path="url(#cl_10c)">
    <path fill="#281C18" transform="matrix(0.692913 5.20404e-23 -1.31735e-25 0.00175404 278.842 177.413)" d="M-7.62939e-06 -97.5C45.8396 -97.5 83 -53.8478 83 -2.68187e-25C83 53.8478 45.8396 97.5 -7.62939e-06 97.5C-45.8396 97.5 -83 53.8478 -83 2.68187e-25C-83 -53.8478 -45.8396 -97.5 -7.62939e-06 -97.5Z"></path>
  </g>
  <path fill="none" stroke="#010101" stroke-width="7" stroke-linejoin="round" transform="matrix(1.00146 0 0 1.00146 343 256)" d="M-144.735 -78.5204C-144.748 -78.5209 -144.76 -78.5214 -144.771 -78.522C-144.771 -78.522 -187.839 -64.8604 -188.05 -26.1723C-188.05 -26.1723 -171.641 -19.0711 -128.355 -6.21705C-94.5998 3.80707 -99.3809 -2.83891 -46.8861 -0.0664587C-24.3521 2.39714 19.2491 -6.35966 19.2491 -6.35966C19.2491 -6.35966 18.9689 -14.9021 23.9418 -14.9021C28.9147 -14.9021 31.7873 -6.35966 31.7873 -6.35966C43.8231 -6.35966 54.6033 -12.4513 63.6543 -13.7687C92.1758 -17.9201 95.5986 -26.1723 95.5986 -26.1723C95.5987 -64.8604 52.3689 -78.5219 52.3689 -78.5219C38.9335 -78.4167 3.89434 -78.3407 -46.0147 -78.3405C-95.6779 -78.3403 -142.097 -78.416 -144.735 -78.5204"></path>
  <path fill="none" stroke="#010101" stroke-width="21" stroke-linecap="round" stroke-linejoin="round" transform="matrix(0.91934 6.90459e-23 -6.90459e-23 0.91934 147.066 229.79)" d="M8.27733 0C8.27733 0 26.1524 7.73552 73.3041 21.7377C110.075 32.6572 104.867 25.4176 162.051 28.4377C186.598 31.1214 234.093 21.5824 234.093 21.5824C234.093 21.5824 233.788 12.2769 239.205 12.2769C244.622 12.2769 247.752 21.5824 247.752 21.5824C260.863 21.5824 272.606 14.9466 282.465 13.5115C313.534 8.9893 317.263 0 317.263 0C317.263 -0.789469 317.246 -1.56937 317.214 -2.33979"></path>
  <path fill="none" stroke="white" stroke-width="14" stroke-linecap="round" stroke-linejoin="round" transform="matrix(0.91934 6.90459e-23 -6.90459e-23 0.91934 147.066 229.79)" d="M8.27733 0C8.27733 0 26.1524 7.73552 73.3041 21.7377C110.075 32.6572 104.867 25.4176 162.051 28.4377C186.598 31.1214 234.093 21.5824 234.093 21.5824C234.093 21.5824 233.788 12.2769 239.205 12.2769C244.622 12.2769 247.752 21.5824 247.752 21.5824C260.863 21.5824 272.606 14.9466 282.465 13.5115C313.534 8.9893 317.263 0 317.263 0C317.263 -0.168556 317.262 -0.336675 317.261 -0.50436"></path>
  <path fill="#8D5A3E" transform="matrix(0.91934 6.90459e-23 -6.90459e-23 0.91934 147.066 229.79)" d="M8.27733 0C8.27733 0 28.6505 6.97293 72.0222 20.0838C95.5232 27.188 124.361 26.4472 162.051 28.4377C186.598 31.1214 234.093 21.5824 234.093 21.5824C234.093 21.5824 234.776 13.5868 238.41 13.5868C242.043 13.5868 247.752 21.5824 247.752 21.5824C260.529 21.5824 277.837 13.8723 286.934 12.7945C317.391 9.18615 317.263 0 317.263 0C317.263 -42.1439 270.172 -57.0257 270.172 -57.0257C255.536 -56.9112 217.367 -56.8284 163 -56.8281C108.633 -56.8279 57.8352 -56.9112 55.4223 -57.0258C55.4223 -57.0258 8.50729 -42.1439 8.27733 0Z"></path>
  <clipPath id="cl_10d">
    <path d="M154.675 229.79C154.675 229.79 173.405 236.2 213.279 248.253C234.884 254.785 261.396 254.103 296.046 255.933C318.612 258.401 362.277 249.631 362.277 249.631C362.277 249.631 362.905 242.28 366.245 242.28C369.586 242.28 374.834 249.631 374.834 249.631C386.581 249.631 402.492 242.543 410.856 241.552C438.856 238.235 438.738 229.79 438.738 229.79C438.738 191.045 395.445 177.364 395.445 177.364C381.99 177.469 346.9 177.545 296.918 177.545C246.936 177.545 200.236 177.469 198.018 177.363C198.018 177.363 154.887 191.045 154.675 229.79Z"></path>
  </clipPath>
  <g clip-path="url(#cl_10d)">
    <path fill="#7F4728" transform="matrix(2.47275 -0.0817371 0.117134 3.54359 244.516 229.33)" d="M-14.8742 -9.69253L16.7537 -6.3603L15.092 9.39556L-21.0084 4.35254L-14.8742 -9.69253Z"></path>
  </g>
  <path fill="none" stroke="#612F13" stroke-width="1" stroke-linecap="round" stroke-linejoin="round" transform="matrix(0.0618651 -1.47647 1.47647 0.0618651 254.867 205.075)" d="M1.02357 0.373775L4.21644 0.641899"></path>
  <path fill="none" stroke="#612F13" stroke-width="1" stroke-linecap="round" stroke-linejoin="round" transform="matrix(0.0618651 -1.47647 1.47647 0.0618651 243.375 204.615)" d="M1.02357 0.373772L4.21644 0.641895"></path>
  <clipPath id="cl_10e">
    <path d="M154.675 229.79C154.675 229.79 173.405 236.2 213.279 248.253C234.884 254.785 261.396 254.103 296.046 255.933C318.612 258.401 362.277 249.631 362.277 249.631C362.277 249.631 362.905 242.28 366.245 242.28C369.586 242.28 374.834 249.631 374.834 249.631C386.581 249.631 402.492 242.543 410.856 241.552C438.856 238.235 438.738 229.79 438.738 229.79C438.738 191.045 395.445 177.364 395.445 177.364C381.99 177.469 346.9 177.545 296.918 177.545C246.936 177.545 200.236 177.469 198.018 177.363C198.018 177.363 154.887 191.045 154.675 229.79Z"></path>
  </clipPath>
  <g clip-path="url(#cl_10e)">
    <clipPath id="cl_10f">
      <path d="M154.675 229.79C154.675 229.79 173.405 236.2 213.279 248.253C234.884 254.785 261.396 254.103 296.046 255.933C318.612 258.401 362.277 249.631 362.277 249.631C362.277 249.631 362.905 242.28 366.245 242.28C369.586 242.28 374.834 249.631 374.834 249.631C386.581 249.631 402.492 242.543 410.856 241.552C438.856 238.235 438.738 229.79 438.738 229.79C438.738 191.045 395.445 177.364 395.445 177.364C381.99 177.469 346.9 177.545 296.918 177.545C246.936 177.545 200.236 177.469 198.018 177.363C198.018 177.363 154.887 191.045 154.675 229.79Z"></path>
    </clipPath>
    <g clip-path="url(#cl_10f)">
      <path fill="#7F4728" transform="matrix(0.91934 6.90459e-23 -6.90459e-23 0.91934 419.65 207.036)" d="M0 -32.5C25.6812 -32.5 46.5 -17.8373 46.5 0.25C46.5 18.3373 25.6812 33 0 33C-25.6812 33 -46.5 18.3373 -46.5 0.25C-46.5 -17.8373 -25.6812 -32.5 0 -32.5Z"></path>
    </g>
    <path fill="none" stroke="#612F13" stroke-width="1" stroke-linecap="round" stroke-linejoin="round" transform="matrix(-1.35113 0.598538 -0.598538 -1.35113 381.038 211.403)" d="M1.02357 0.373773L4.21644 0.641897"></path>
    <path fill="none" stroke="#612F13" stroke-width="1" stroke-linecap="round" stroke-linejoin="round" transform="matrix(-0.766963 1.26316 -1.26316 -0.766963 395.288 227.031)" d="M1.02357 0.373773L4.21644 0.641897"></path>
    <path fill="none" stroke="#612F13" stroke-width="1" stroke-linecap="round" stroke-linejoin="round" transform="matrix(-1.47709 -0.0446689 0.0446689 -1.47709 381.497 202.209)" d="M1.02357 0.373772L4.21644 0.641895"></path>
  </g>
</svg>