<?xml version="1.0" encoding="utf-8"?>
<svg xmlns="http://www.w3.org/2000/svg" xmlns:xlink="http://www.w3.org/1999/xlink" width="686" height="512">
  <path fill="none" stroke="#D7D7D7" stroke-width="6" stroke-linejoin="round" transform="matrix(1.70248 0 0 1.44029 539.735 179.773)" d="M-12.9438 -16.9737C-9.28959 -16.9737 -6.63603 -16.9737 -3.2142 -16.9737C3.85003 -16.9737 11.0107 -12.9707 11.0107 2.73135C11.0107 18.4334 11.0107 47.7067 11.0107 56.4808C11.0107 99.4374 -52.4893 99.3952 -52.4893 56.4387C-52.4893 45.6553 -52.4893 25.833 -52.4893 13.3474C-52.4893 0.861706 -46.228 -16.9737 -30.1482 -16.9737C-28.9445 -16.9737 -27.8096 -16.9737 -26.7371 -16.9737"></path>
  <path fill="none" stroke="#D7D7D7" stroke-width="6" stroke-linejoin="round" transform="matrix(1.70248 0 0 1.55154 539.735 257.563)" d="M-51.1941 8.76441C-63.0432 -32.178 -2.0462 -49.831 9.80286 -8.88861C14.5065 7.36413 22.3531 34.4767 27.2278 51.3202C28.9405 57.2382 23.9117 70.4734 1.66294 77.194C-20.5859 83.9146 -31.7964 75.7898 -33.1314 71.1771C-38.0346 54.2349 -47.7229 20.7586 -51.1941 8.76441Z"></path>
  <path fill="#D7D7D7" transform="matrix(1.70248 0 0 1.44029 539.735 179.773)" d="M-52.4893 13.3474C-52.4893 0.861706 -46.228 -16.9737 -30.1482 -16.9737C-14.0684 -16.9737 -10.2784 -16.9737 -3.2142 -16.9737C3.85003 -16.9737 11.0107 -12.9707 11.0107 2.73135C11.0107 18.4334 11.0107 47.7067 11.0107 56.4809C11.0107 99.4374 -52.4893 99.3952 -52.4893 56.4387C-52.4893 45.6553 -52.4893 25.833 -52.4893 13.3474Z"></path>
  <path fill="#D7D7D7" transform="matrix(1.70248 0 0 1.55154 539.735 257.563)" d="M-51.1941 8.76441C-63.0432 -32.178 -2.0462 -49.831 9.80286 -8.88861C14.5065 7.36412 22.3531 34.4767 27.2278 51.3202C28.9405 57.2382 23.9117 70.4734 1.66294 77.194C-20.5859 83.9146 -31.7964 75.7898 -33.1314 71.1771C-38.0346 54.2349 -47.7229 20.7586 -51.1941 8.76441Z"></path>
  <path fill="none" stroke="#D7D7D7" stroke-width="5" stroke-linejoin="round" transform="matrix(1.58884 0 0 1.70248 455.037 356.274)" d="M-0.132751 -15.3436C17.7688 -18.5357 31.3235 -16.7053 40.8536 29.8415C44.121 43.6151 51.2652 57.7688 38.3424 69.1892C26.9612 71.1273 14.4303 74.1854 -1.7944 76.8127C-14.2188 70.0442 -17.4896 56.4443 -21.415 40.0258C-31.3686 -5.52613 -18.0343 -12.1514 -0.132751 -15.3436Z"></path>
  <path fill="#D7D7D7" transform="matrix(1.58884 0 0 1.70248 455.037 356.274)" d="M-0.132751 -15.3436C17.7688 -18.5357 31.3235 -16.7053 40.8536 29.8415C44.121 43.6151 51.2652 57.7688 38.3424 69.1892C26.9612 71.1273 14.4303 74.1854 -1.7944 76.8127C-14.2188 70.0442 -17.4896 56.4443 -21.415 40.0258C-31.3686 -5.52613 -18.0343 -12.1514 -0.132751 -15.3436Z"></path>
  <path fill="none" stroke="#D7D7D7" stroke-width="5" stroke-linejoin="round" transform="matrix(1.58884 0 0 1.70248 381.384 362.548)" d="M-3.38823 -13.9016C14.3946 -17.6274 28.0052 -16.2032 39.1282 30.0348C44.1592 48.327 49.9181 60.3852 36.3717 69.9979C21.3611 73.5237 10.982 75.9098 -3.57402 78.6108C-19.5944 75.2247 -19.0153 58.1984 -22.7588 42.0756C-34.271 -3.15536 -21.171 -10.1759 -3.38823 -13.9016Z"></path>
  <path fill="none" stroke="#D7D7D7" stroke-width="5" stroke-linejoin="round" transform="matrix(1.70226 0.0261988 -0.0277736 1.60574 459.936 283.869)" d="M-11.3238 -80.2543C25.8014 -80.2543 54.9476 -94.6926 58.9092 -40.8672C62.8708 12.9582 37.0524 74.7499 0.0572919 75.3534C-14.1177 75.5847 -17.7665 75.6442 -48.2096 76.1409C-78.6526 76.6376 -84.25 60.12 -84.25 0C-86.6294 -86.0849 -88.6034 -78.4854 -12.7475 -80.2208"></path>
  <path fill="#D7D7D7" transform="matrix(1.58884 0 0 1.70248 381.384 362.548)" d="M-3.38823 -13.9016C14.3946 -17.6274 28.0052 -16.2032 39.1282 30.0348C44.1592 48.327 49.9181 60.3852 36.3717 69.9979C21.3611 73.5237 10.982 75.9098 -3.57402 78.6108C-19.5944 75.2247 -19.0153 58.1984 -22.7588 42.0756C-34.271 -3.15536 -21.171 -10.1759 -3.38823 -13.9016Z"></path>
  <path fill="none" stroke="#D7D7D7" stroke-width="5" stroke-linejoin="round" transform="matrix(1.44842 1.48659e-24 -1.35259e-24 1.31786 404.926 138.15)" d="M0 -40C20.9426 -40 35.0096 -26.8589 47.8597 -2.20018C49.1253 -3.81499 50.3123 -3.57653 51.1974 -3.11682C52.0824 -2.65711 52.5509 -1.60562 52.2206 -0.665342C53.8523 0.0631991 55.2854 1.47333 55.8775 2.67698C56.9197 4.79566 57.6743 10.5072 53.7931 11.8212C58.5977 31.9882 20.3682 22.0914 -1.32962e-05 22.0914C-20.2357 22.0914 -45.0732 28.3281 -41.8836 12.9784C-44.6787 11.8212 -48.2008 8.95144 -46.5316 4.29175C-45.7036 1.98006 -43.8185 0.567089 -42.3936 0.566997C-41.0392 0.56691 -42.9934 -2.2 -40.2188 -3.81491C-39.0195 -4.51291 -37.7273 -4.43211 -36.6068 -4.12355C-28.0141 -23.7311 -20.4124 -40 0 -40Z"></path>
  <path fill="#D7D7D7" transform="matrix(1.70226 0.0261988 -0.0277736 1.60574 459.936 283.869)" d="M-11.3238 -80.2543C25.8014 -80.2543 54.9476 -94.6926 58.9092 -40.8672C62.8708 12.9582 37.0524 74.7499 0.0572919 75.3534C-14.1177 75.5847 -17.7665 75.6442 -48.2096 76.1409C-78.6526 76.6376 -84.25 60.12 -84.25 0C-86.6442 -86.62 -88.6279 -78.3873 -11.3238 -80.2543Z"></path>
  <clipPath id="cl_a3">
    <path d="M442.889 154.705C506.086 155.677 556.101 133.257 561.35 219.79C566.598 306.323 520.933 404.868 457.941 404.868C433.805 404.868 427.592 404.868 375.756 404.868C323.921 404.868 314.851 378.198 316.521 281.661C314.851 142.51 311.246 155.677 442.889 154.705Z"></path>
  </clipPath>
  <g clip-path="url(#cl_a3)">
    <path fill="#D7D7D7" transform="matrix(1.70248 0 0 1.70248 495.05 266.919)" d="M-0.158646 -48.2656C25.513 -48.2656 46.324 -26.6563 46.324 4.76837e-07C46.324 26.6563 25.513 48.2656 -0.158646 48.2656C-25.8303 48.2656 -46.6413 26.6563 -46.6413 4.76837e-07C-46.6413 -26.6563 -25.8303 -48.2656 -0.158646 -48.2656Z"></path>
  </g>
  <path fill="none" stroke="#D7D7D7" stroke-width="2" stroke-linejoin="round" transform="matrix(3.67759 -0.721864 0.653943 3.33157 411.357 64.1411)" d="M-4.34759 -5.25471C-4.34759 -11.5047 3.66088 -11.5047 3.66088 -5.25471C3.66088 0.995287 3.66088 12.5 3.66088 12.5L-4.57314 12.5C-4.57314 12.5 -4.34758 0.995288 -4.34759 -5.25471Z"></path>
  <path fill="none" stroke="#D7D7D7" stroke-width="2" stroke-linejoin="round" transform="matrix(3.33157 -0.653943 0.653943 3.33157 379.003 69.2607)" d="M-5.1645 -6.50117C-5.16451 -12.7512 6 -12.7512 6 -6.50117C6 -0.251166 6 12.5 6 12.5L-6 12.5C-6 12.5 -5.1645 -0.251167 -5.1645 -6.50117Z"></path>
  <path fill="#D7D7D7" transform="matrix(3.67759 -0.721864 0.653943 3.33157 411.357 64.1411)" d="M-4.34759 -5.25471C-4.34759 -11.5047 3.66088 -11.5047 3.66088 -5.25471C3.66088 0.995287 3.66088 12.5 3.66088 12.5L-4.57314 12.5C-4.57314 12.5 -4.34758 0.995288 -4.34759 -5.25471Z"></path>
  <path fill="none" stroke="#D7D7D7" stroke-width="0.5" stroke-linecap="round" stroke-linejoin="round" transform="matrix(3.67759 -0.721864 0.653943 3.33157 406.824 45.6676)" d="M2.63812e-06 1.51651L1.92334e-06 10.5382"></path>
  <path fill="#D7D7D7" transform="matrix(3.33157 -0.653943 0.653943 3.33157 379.003 69.2607)" d="M-5.1645 -6.50117C-5.16451 -12.7512 6 -12.7512 6 -6.50117C6 -0.251166 6 12.5 6 12.5L-6 12.5C-6 12.5 -5.1645 -0.251167 -5.1645 -6.50117Z"></path>
  <path fill="none" stroke="#D7D7D7" stroke-width="0.5" stroke-linecap="round" stroke-linejoin="round" transform="matrix(3.33157 -0.653943 0.653943 3.33157 379.206 50.3267)" d="M1.85391e-08 2.6499e-08L3.83324e-06 10.5382"></path>
  <path fill="#D7D7D7" transform="matrix(1.44842 0 0 1.31786 404.926 138.15)" d="M0 -40C20.9426 -40 35.0096 -26.8589 47.8597 -2.20018C49.1253 -3.81499 50.3123 -3.57653 51.1974 -3.11682C52.0824 -2.65711 52.5509 -1.60562 52.2206 -0.665342C53.8523 0.0631991 55.2854 1.47333 55.8775 2.67698C56.9197 4.79566 57.6743 10.5072 53.7931 11.8212C58.5977 31.9882 20.3682 22.0914 -1.32962e-05 22.0914C-20.2357 22.0914 -45.0732 28.3281 -41.8836 12.9784C-44.6787 11.8212 -48.2008 8.95144 -46.5316 4.29175C-45.7036 1.98006 -43.8185 0.567089 -42.3936 0.566997C-41.0392 0.56691 -42.9934 -2.2 -40.2188 -3.81491C-39.0195 -4.51291 -37.7273 -4.43211 -36.6068 -4.12355C-28.0141 -23.7311 -20.4124 -40 0 -40Z"></path>
  <clipPath id="cl_a4">
    <path d="M404.926 85.4358C435.26 85.4358 455.635 102.754 474.247 135.251C476.08 133.122 477.8 133.437 479.082 134.043C480.363 134.648 481.042 136.034 480.564 137.273C482.927 138.233 485.003 140.092 485.86 141.678C487.37 144.47 488.463 151.997 482.841 153.729C489.8 180.306 434.428 167.263 404.926 167.263C375.616 167.263 339.641 175.482 344.261 155.254C340.213 153.729 335.111 149.947 337.529 143.806C338.728 140.76 341.459 138.897 343.523 138.897C345.484 138.897 342.654 135.251 346.673 133.123C348.41 132.203 350.281 132.309 351.904 132.716C364.35 106.876 375.361 85.4358 404.926 85.4358Z"></path>
  </clipPath>
  <g clip-path="url(#cl_a4)">
    <path fill="#D7D7D7" transform="matrix(1.70248 0 0.00718207 1.70248 398.836 123.828)" d="M-2.67755e-09 -5.5C3.86599 -5.5 7 -2.92564 7 0.25C7 3.42564 3.86599 6 2.67755e-09 6C-3.86599 6 -7 3.42564 -7 0.25C-7 -2.92564 -3.86599 -5.5 -2.67755e-09 -5.5Z"></path>
    <path fill="#D7D7D7" transform="matrix(1.7367 0 0.00718207 1.70248 448.538 116.123)" d="M2.44472e-09 -5C2.76142 -5 5 -2.6495 5 0.25C5 3.1495 2.76142 5.5 -2.44472e-09 5.5C-2.76142 5.5 -5 3.1495 -5 0.25C-5 -2.6495 -2.76142 -5 2.44472e-09 -5Z"></path>
    <path fill="none" stroke="#D7D7D7" stroke-width="1" stroke-linecap="round" stroke-linejoin="round" transform="matrix(2.182 -0.353477 0.259285 1.60056 427.948 109.79)" d="M-3.32645e-06 7.21529e-06L2.92891 -0.71456"></path>
    <path fill="none" stroke="#D7D7D7" stroke-width="1" stroke-linecap="round" stroke-linejoin="round" transform="matrix(2.182 -0.353477 0.259285 1.60056 407.376 109.005)" d="M0 -1.48459e-07L4.25731 1.79213"></path>
    <path fill="#D7D7D7" transform="matrix(2.33716 -0.378612 0.383771 2.36901 420.414 111.947)" d="M3.3151e-06 -7.84488e-06L1.96141 0.35273L0.915093 1.42245L3.3151e-06 -7.84488e-06Z"></path>
    <path fill="none" stroke="#D7D7D7" stroke-width="0.5" stroke-linecap="round" stroke-linejoin="round" transform="matrix(1.83262 -0.296878 0.300923 1.85759 423.308 115.291)" d="M-3.70687e-06 -0.711224L-7.52156e-06 1.1102"></path>
    <path fill="#D7D7D7" transform="matrix(1.64843 0.417573 -0.40107 1.65095 417.433 104.507)" d="M1.96478e-06 -1.92716C1.62851 -1.92716 2.94867 -1.06435 2.94867 -7.58546e-06C2.94867 1.06433 1.62851 1.92715 1.84991e-06 1.92715C-1.6285 1.92715 -2.94867 1.06433 -2.94867 -7.67333e-06C-2.94867 -1.06435 -1.6285 -1.92716 1.96478e-06 -1.92716Z"></path>
    <path fill="#D7D7D7" transform="matrix(1.61937 0.410211 -0.390122 1.60588 428.019 103.68)" d="M-3.843e-06 -1.89919C0.889985 -1.89919 1.61146 -1.04889 1.61146 -2.40127e-08C1.61146 1.04889 0.889985 1.89919 -3.7864e-06 1.89919C-0.889993 1.89919 -1.61147 1.04889 -1.61147 2.40127e-08C-1.61147 -1.04889 -0.889993 -1.89919 -3.843e-06 -1.89919Z"></path>
  </g>
  <path fill="none" stroke="#D7D7D7" stroke-width="6" stroke-linejoin="round" transform="matrix(1.70248 0 0 1.70248 361.165 267.34)" d="M-21.9633 5.53633C-29.8245 -33.4036 32.4198 -45.9694 40.281 -7.02949C43.6291 9.55562 49.2145 37.2227 52.6844 54.4106C53.9036 60.4496 47.8011 73.2254 25.0742 78.0894C2.34719 82.9535 -8.15559 73.9324 -9.10586 69.2253C-12.5961 51.9367 -19.4924 17.7758 -21.9633 5.53633Z"></path>
  <path fill="none" stroke="#D7D7D7" stroke-width="6" stroke-linecap="round" stroke-linejoin="bevel" transform="matrix(1.70248 0 0 1.58041 361.165 181.982)" d="M37.7975 31.5838C39.1036 39.3856 40.2286 46.1054 40.809 49.5726C47.8862 91.8472 -14.6127 103.946 -21.6898 61.6714C-23.4664 51.0592 -26.7322 31.5516 -28.7893 19.2642C-30.8463 6.9767 -27.6228 -11.7727 -11.7982 -14.8469C-10.1774 -15.1618 -8.68353 -15.452 -7.30004 -15.7208"></path>
  <path fill="#D7D7D7" transform="matrix(1.70248 0 0 1.70248 361.165 267.34)" d="M-21.9633 5.53633C-30.151 -35.0209 32.0933 -47.5867 40.281 -7.02949C43.6291 9.55562 49.2145 37.2227 52.6844 54.4106C53.9036 60.4496 47.8011 73.2254 25.0742 78.0894C2.34719 82.9535 -8.15559 73.9324 -9.10586 69.2253C-12.5961 51.9367 -19.4924 17.7758 -21.9633 5.53633Z"></path>
  <path fill="#D7D7D7" transform="matrix(1.70248 0 0 1.58041 361.165 181.982)" d="M-28.7892 19.2641C-30.8463 6.97669 -27.6228 -11.7727 -11.7982 -14.8469C4.02632 -17.9211 7.75608 -18.6457 14.7082 -19.9963C21.6603 -21.3469 29.3667 -18.7764 31.9537 -3.32362C34.5406 12.1292 39.3635 40.9378 40.809 49.5726C47.0342 86.7578 -15.4647 98.8566 -21.6899 61.6714C-23.4664 51.0592 -26.7322 31.5516 -28.7892 19.2641Z"></path>
  <path fill="none" stroke="#010101" stroke-width="7" stroke-linecap="round" stroke-miterlimit="4" transform="matrix(1.00146 0 0 1.00146 343 256)" d="M40.7897 -96.5058C95.949 -96.5058 140.664 -96.4353 140.664 -96.3483C140.664 -96.2613 95.949 -96.1907 40.7897 -96.1907C-14.3696 -96.1907 -59.0851 -96.2613 -59.0851 -96.3483C-59.0851 -96.4353 -14.3696 -96.5058 40.7897 -96.5058Z"></path>
  <path fill="#8D5A3E" transform="matrix(1.20507 9.0505e-23 -1.42778e-25 0.00190108 383.849 159.511)" d="M1.02305e-30 -82.9961C45.8396 -82.9961 83 -45.8357 83 0.00390625C83 45.8435 45.8396 83.0039 -1.02305e-30 83.0039C-45.8396 83.0039 -83 45.8435 -83 0.00390625C-83 -45.8357 -45.8396 -82.9961 1.02305e-30 -82.9961Z"></path>
  <path fill="#65524C" transform="matrix(0.692913 5.20404e-23 -1.31735e-25 0.00175404 383.849 159.537)" d="M1.20178e-30 -97.4922C45.8396 -97.4922 83 -53.84 83 0.0078125C83 53.8556 45.8396 97.5078 -1.20178e-30 97.5078C-45.8396 97.5078 -83 53.8556 -83 0.0078125C-83 -53.84 -45.8396 -97.4922 1.20178e-30 -97.4922Z"></path>
  <clipPath id="cl_ac">
    <path d="M383.849 159.366C415.612 159.366 441.361 159.442 441.361 159.537C441.361 159.631 415.612 159.708 383.849 159.708C352.086 159.708 326.337 159.631 326.337 159.537C326.337 159.442 352.086 159.366 383.849 159.366Z"></path>
  </clipPath>
  <g clip-path="url(#cl_ac)">
    <path fill="#281C18" transform="matrix(0.692913 5.20404e-23 -1.31735e-25 0.00175404 365.773 159.537)" d="M0 -97.4961C45.8396 -97.4961 83 -53.8439 83 0.00390625C83 53.8517 45.8396 97.5039 0 97.5039C-45.8396 97.5039 -83 53.8517 -83 0.00390625C-83 -53.8439 -45.8396 -97.4961 0 -97.4961Z"></path>
  </g>
  <path fill="none" stroke="#010101" stroke-width="7" stroke-linejoin="round" transform="matrix(1.00146 0 0 1.00146 343 256)" d="M-57.9307 -96.3704C-57.9438 -96.3709 -57.9557 -96.3714 -57.9667 -96.3719C-57.9667 -96.3719 -101.035 -82.7104 -101.246 -44.0223C-101.246 -44.0223 -84.8364 -36.9211 -41.5511 -24.067C-7.79542 -14.0429 -12.5765 -20.6889 39.9183 -17.9164C62.4523 -15.4528 106.053 -24.2097 106.053 -24.2097C106.053 -24.2097 105.773 -32.7521 110.746 -32.7521C115.719 -32.7521 118.592 -24.2097 118.592 -24.2097C130.628 -24.2096 141.408 -30.3013 150.459 -31.6187C178.98 -35.7701 182.403 -44.0223 182.403 -44.0223C182.403 -82.7104 139.173 -96.3718 139.173 -96.3718C125.738 -96.2667 90.6987 -96.1907 40.7897 -96.1905C-8.87342 -96.1903 -55.292 -96.266 -57.9307 -96.3704"></path>
  <path fill="none" stroke="#010101" stroke-width="21" stroke-linecap="round" stroke-linejoin="round" transform="matrix(0.91934 6.90459e-23 -6.90459e-23 0.91934 233.997 211.913)" d="M8.27734 0C8.27734 0 26.1524 7.73552 73.3041 21.7377C110.075 32.6572 104.867 25.4176 162.051 28.4377C186.598 31.1214 234.093 21.5824 234.093 21.5824C234.093 21.5824 233.788 12.2769 239.205 12.2769C244.622 12.2769 247.752 21.5824 247.752 21.5824C260.863 21.5824 272.606 14.9466 282.465 13.5115C313.534 8.9893 317.263 0 317.263 0C317.263 -0.789502 317.246 -1.56944 317.214 -2.33988"></path>
  <path fill="none" stroke="white" stroke-width="14" stroke-linecap="round" stroke-linejoin="round" transform="matrix(0.91934 6.90459e-23 -6.90459e-23 0.91934 233.997 211.913)" d="M8.27734 0C8.27734 0 26.1524 7.73552 73.3041 21.7377C110.075 32.6572 104.867 25.4176 162.051 28.4377C186.598 31.1214 234.093 21.5824 234.093 21.5824C234.093 21.5824 233.788 12.2769 239.205 12.2769C244.622 12.2769 247.752 21.5824 247.752 21.5824C260.863 21.5824 272.606 14.9466 282.465 13.5115C313.534 8.9893 317.263 0 317.263 0C317.263 -0.168588 317.262 -0.33674 317.261 -0.504456"></path>
  <path fill="#8D5A3E" transform="matrix(0.91934 6.90459e-23 -6.90459e-23 0.91934 233.997 211.913)" d="M8.27734 0C8.27734 0 28.6505 6.97293 72.0222 20.0838C95.5232 27.188 124.361 26.4472 162.051 28.4377C186.598 31.1214 234.093 21.5824 234.093 21.5824C234.093 21.5824 234.776 13.5868 238.41 13.5868C242.043 13.5868 247.752 21.5824 247.752 21.5824C260.529 21.5824 277.837 13.8723 286.934 12.7945C317.391 9.18615 317.263 0 317.263 0C317.263 -42.1439 270.172 -57.0257 270.172 -57.0257C255.536 -56.9112 217.367 -56.8284 163 -56.8281C108.633 -56.8279 57.8352 -56.9112 55.4223 -57.0258C55.4223 -57.0258 8.50729 -42.1439 8.27734 0Z"></path>
  <clipPath id="cl_ad">
    <path d="M241.606 211.913C241.606 211.913 260.336 218.324 300.21 230.377C321.815 236.908 348.327 236.227 382.977 238.057C405.543 240.525 449.208 231.755 449.208 231.755C449.208 231.755 449.836 224.404 453.176 224.404C456.517 224.404 461.765 231.755 461.765 231.755C473.512 231.755 489.423 224.667 497.787 223.676C525.787 220.359 525.669 211.913 525.669 211.913C525.669 173.169 482.376 159.487 482.376 159.487C468.921 159.593 433.831 159.669 383.849 159.669C333.867 159.669 287.167 159.593 284.949 159.487C284.949 159.487 241.818 173.169 241.606 211.913Z"></path>
  </clipPath>
  <g clip-path="url(#cl_ad)">
    <path fill="#7F4728" transform="matrix(2.47275 -0.0817371 0.117134 3.54359 331.447 211.454)" d="M-14.8742 -9.69253L16.7537 -6.3603L15.092 9.39556L-21.0084 4.35254L-14.8742 -9.69253Z"></path>
  </g>
  <path fill="none" stroke="#612F13" stroke-width="1" stroke-linecap="round" stroke-linejoin="round" transform="matrix(0.0618651 -1.47647 1.47647 0.0618651 341.798 187.199)" d="M1.02357 0.373772L4.21644 0.641895"></path>
  <path fill="none" stroke="#612F13" stroke-width="1" stroke-linecap="round" stroke-linejoin="round" transform="matrix(0.0618651 -1.47647 1.47647 0.0618651 330.306 186.739)" d="M1.02357 0.373772L4.21644 0.641895"></path>
  <clipPath id="cl_ae">
    <path d="M241.606 211.913C241.606 211.913 260.336 218.324 300.21 230.377C321.815 236.908 348.327 236.227 382.977 238.057C405.543 240.525 449.208 231.755 449.208 231.755C449.208 231.755 449.836 224.404 453.176 224.404C456.517 224.404 461.765 231.755 461.765 231.755C473.512 231.755 489.423 224.667 497.787 223.676C525.787 220.359 525.669 211.913 525.669 211.913C525.669 173.169 482.376 159.487 482.376 159.487C468.921 159.593 433.831 159.669 383.849 159.669C333.867 159.669 287.167 159.593 284.949 159.487C284.949 159.487 241.818 173.169 241.606 211.913Z"></path>
  </clipPath>
  <g clip-path="url(#cl_ae)">
    <clipPath id="cl_af">
      <path d="M241.606 211.913C241.606 211.913 260.336 218.324 300.21 230.377C321.815 236.908 348.327 236.227 382.977 238.057C405.543 240.525 449.208 231.755 449.208 231.755C449.208 231.755 449.836 224.404 453.176 224.404C456.517 224.404 461.765 231.755 461.765 231.755C473.512 231.755 489.423 224.667 497.787 223.676C525.787 220.359 525.669 211.913 525.669 211.913C525.669 173.169 482.376 159.487 482.376 159.487C468.921 159.593 433.831 159.669 383.849 159.669C333.867 159.669 287.167 159.593 284.949 159.487C284.949 159.487 241.818 173.169 241.606 211.913Z"></path>
    </clipPath>
    <g clip-path="url(#cl_af)">
      <path fill="#7F4728" transform="matrix(0.91934 6.90459e-23 -6.90459e-23 0.91934 506.581 189.16)" d="M0 -32.5C25.6812 -32.5 46.5 -17.8373 46.5 0.25C46.5 18.3373 25.6812 33 0 33C-25.6812 33 -46.5 18.3373 -46.5 0.25C-46.5 -17.8373 -25.6812 -32.5 0 -32.5Z"></path>
    </g>
    <path fill="none" stroke="#612F13" stroke-width="1" stroke-linecap="round" stroke-linejoin="round" transform="matrix(-1.35113 0.598538 -0.598538 -1.35113 467.969 193.527)" d="M1.02356 0.373776L4.21643 0.6419"></path>
    <path fill="none" stroke="#612F13" stroke-width="1" stroke-linecap="round" stroke-linejoin="round" transform="matrix(-0.766963 1.26316 -1.26316 -0.766963 482.219 209.155)" d="M1.02357 0.373772L4.21644 0.641895"></path>
    <path fill="none" stroke="#612F13" stroke-width="1" stroke-linecap="round" stroke-linejoin="round" transform="matrix(-1.47709 -0.0446689 0.0446689 -1.47709 468.429 184.333)" d="M1.02357 0.373772L4.21644 0.641895"></path>
  </g>
</svg>