<?xml version="1.0" encoding="utf-8"?>
<svg xmlns="http://www.w3.org/2000/svg" xmlns:xlink="http://www.w3.org/1999/xlink" width="686" height="512">
  <path fill="none" stroke="#C2C2C2" stroke-width="6" stroke-linejoin="round" transform="matrix(1.70248 0 0 1.44029 540.275 179.773)" d="M-12.9438 -16.9737C-9.28959 -16.9737 -6.63603 -16.9737 -3.2142 -16.9737C3.85003 -16.9737 11.0107 -12.9707 11.0107 2.73135C11.0107 18.4334 11.0107 47.7067 11.0107 56.4808C11.0107 99.4374 -52.4893 99.3952 -52.4893 56.4387C-52.4893 45.6553 -52.4893 25.833 -52.4893 13.3474C-52.4893 0.861706 -46.228 -16.9737 -30.1482 -16.9737C-28.9445 -16.9737 -27.8096 -16.9737 -26.7371 -16.9737"></path>
  <path fill="none" stroke="#C2C2C2" stroke-width="6" stroke-linejoin="round" transform="matrix(1.70248 0 0 1.55154 540.275 257.563)" d="M-51.2404 8.60617C-62.8757 -32.3975 -1.78748 -49.732 9.84782 -8.7284C14.4667 7.54866 22.1717 34.7018 26.9584 51.5705C28.6402 57.4973 23.5425 70.7062 1.2589 77.3106C-21.0247 83.915 -32.1926 75.7318 -33.5035 71.1122C-38.3183 54.1447 -47.8318 20.6183 -51.2404 8.60617Z"></path>
  <path fill="#CAC8CE" transform="matrix(1.70248 0 0 1.44029 540.275 179.773)" d="M-52.4893 13.3474C-52.4893 0.861706 -46.228 -16.9737 -30.1482 -16.9737C-14.0684 -16.9737 -10.2784 -16.9737 -3.2142 -16.9737C3.85003 -16.9737 11.0107 -12.9707 11.0107 2.73135C11.0107 18.4334 11.0107 47.7067 11.0107 56.4809C11.0107 99.4374 -52.4893 99.3952 -52.4893 56.4387C-52.4893 45.6553 -52.4893 25.833 -52.4893 13.3474Z"></path>
  <path fill="#CAC8CE" transform="matrix(1.70248 0 0 1.55154 540.275 257.563)" d="M-51.2404 8.60617C-62.8757 -32.3975 -1.78748 -49.732 9.84782 -8.7284C14.4667 7.54866 22.1717 34.7018 26.9584 51.5705C28.6402 57.4973 23.5425 70.7062 1.2589 77.3106C-21.0247 83.915 -32.1926 75.7318 -33.5035 71.1122C-38.3183 54.1447 -47.8318 20.6183 -51.2404 8.60617Z"></path>
  <path fill="none" stroke="#C2C2C2" stroke-width="5" stroke-linejoin="round" transform="matrix(1.58884 0 0 1.70248 455.576 356.274)" d="M-0.0687103 -15.3566C17.8472 -18.4782 31.3935 -16.5944 40.7127 29.9896C43.9178 43.7759 50.9978 57.9577 38.0235 69.3271C26.6337 71.2203 14.089 74.229 -2.14747 76.7923C-14.5411 69.9748 -17.7504 56.3622 -21.6014 39.9284C-31.3487 -5.66241 -17.9846 -12.235 -0.0687103 -15.3566Z"></path>
  <path fill="#C8C7CE" transform="matrix(1.58884 0 0 1.70248 455.576 356.274)" d="M-0.0687103 -15.3566C17.8472 -18.4782 31.3935 -16.5944 40.7127 29.9896C43.9178 43.7759 50.9978 57.9577 38.0235 69.3271C26.6337 71.2203 14.089 74.229 -2.14747 76.7923C-14.5411 69.9748 -17.7504 56.3622 -21.6014 39.9284C-31.3487 -5.66241 -17.9846 -12.235 -0.0687103 -15.3566Z"></path>
  <path fill="none" stroke="#C2C2C2" stroke-width="5" stroke-linejoin="round" transform="matrix(1.58884 0 0 1.70248 381.923 362.548)" d="M-3.32471 -13.9166C14.4748 -17.5723 28.0788 -16.0946 38.9927 30.1868C43.941 48.4987 49.6453 60.5795 36.0556 70.1388C21.0291 73.6054 10.6394 75.9507 -3.92874 78.5943C-19.9336 75.1452 -19.2776 58.1213 -22.9482 41.9839C-34.2558 -3.292 -21.1242 -10.2609 -3.32471 -13.9166Z"></path>
  <path fill="none" stroke="#C2C2C2" stroke-width="5" stroke-linejoin="round" transform="matrix(1.70226 0.0261988 -0.0277736 1.60574 460.476 283.869)" d="M-11.3238 -80.2543C25.8014 -80.2543 54.9476 -94.6926 58.9092 -40.8672C62.8708 12.9582 37.0524 74.7499 0.0572919 75.3534C-14.1177 75.5847 -17.7665 75.6442 -48.2096 76.1409C-78.6526 76.6376 -84.25 60.12 -84.25 0C-86.6294 -86.0849 -88.6034 -78.4854 -12.7475 -80.2208"></path>
  <path fill="#CAC8CE" transform="matrix(1.58884 0 0 1.70248 381.923 362.548)" d="M-3.32471 -13.9166C14.4748 -17.5723 28.0788 -16.0946 38.9927 30.1868C43.941 48.4987 49.6453 60.5795 36.0556 70.1388C21.0291 73.6054 10.6394 75.9507 -3.92874 78.5943C-19.9336 75.1452 -19.2776 58.1213 -22.9482 41.9839C-34.2558 -3.292 -21.1242 -10.2609 -3.32471 -13.9166Z"></path>
  <path fill="none" stroke="#C2C2C2" stroke-width="5" stroke-linejoin="round" transform="matrix(1.44842 1.48659e-24 -1.35259e-24 1.31786 404.179 138.15)" d="M0 -40C20.9426 -40 35.0096 -26.8589 47.8597 -2.20018C49.1253 -3.81499 50.3123 -3.57653 51.1974 -3.11682C52.0824 -2.65711 52.5509 -1.60562 52.2206 -0.665342C53.8523 0.0631991 55.2854 1.47333 55.8775 2.67698C56.9197 4.79566 57.6743 10.5072 53.7931 11.8212C58.5977 31.9882 20.3682 22.0914 -1.32962e-05 22.0914C-20.2357 22.0914 -45.0732 28.3281 -41.8836 12.9784C-44.6787 11.8212 -48.2008 8.95144 -46.5316 4.29175C-45.7036 1.98006 -43.8185 0.567089 -42.3936 0.566997C-41.0392 0.56691 -42.9934 -2.2 -40.2188 -3.81491C-39.0195 -4.51291 -37.7273 -4.43211 -36.6068 -4.12355C-28.0141 -23.7311 -20.4124 -40 0 -40Z"></path>
  <path fill="#CAC8CE" transform="matrix(1.70226 0.0261988 -0.0277736 1.60574 460.476 283.869)" d="M-11.3238 -80.2543C25.8014 -80.2543 54.9476 -94.6926 58.9092 -40.8672C62.8708 12.9582 37.0524 74.7499 0.0572919 75.3534C-14.1177 75.5847 -17.7665 75.6442 -48.2096 76.1409C-78.6526 76.6376 -84.25 60.12 -84.25 0C-86.6442 -86.62 -88.6279 -78.3873 -11.3238 -80.2543Z"></path>
  <clipPath id="cl_b3">
    <path d="M443.429 154.705C506.625 155.677 556.641 133.257 561.889 219.79C567.138 306.323 521.472 404.868 458.48 404.868C434.345 404.868 428.132 404.868 376.296 404.868C324.46 404.868 315.391 378.198 317.061 281.661C315.391 142.51 311.786 155.677 443.429 154.705Z"></path>
  </clipPath>
  <g clip-path="url(#cl_b3)">
    <path fill="#CCCAD0" transform="matrix(1.70248 0 0 1.70248 495.59 266.919)" d="M-0.158638 -48.2656C25.513 -48.2656 46.324 -26.6563 46.324 4.76837e-07C46.324 26.6563 25.513 48.2656 -0.158638 48.2656C-25.8303 48.2656 -46.6413 26.6563 -46.6413 4.76837e-07C-46.6413 -26.6563 -25.8303 -48.2656 -0.158638 -48.2656Z"></path>
  </g>
  <path fill="none" stroke="#C2C2C2" stroke-width="2" stroke-linejoin="round" transform="matrix(3.67759 -0.721864 0.653943 3.33157 410.61 64.1411)" d="M-4.34759 -5.25471C-4.34759 -11.5047 3.66088 -11.5047 3.66088 -5.25471C3.66088 0.995287 3.66088 12.5 3.66088 12.5L-4.57314 12.5C-4.57314 12.5 -4.34758 0.995288 -4.34759 -5.25471Z"></path>
  <path fill="none" stroke="#C2C2C2" stroke-width="2" stroke-linejoin="round" transform="matrix(3.33157 -0.653943 0.653943 3.33157 378.255 69.2607)" d="M-5.1645 -6.50117C-5.16451 -12.7512 6 -12.7512 6 -6.50117C6 -0.25117 6 12.5 6 12.5L-6 12.5C-6 12.5 -5.1645 -0.251171 -5.1645 -6.50117Z"></path>
  <path fill="#C8C7CE" transform="matrix(3.67759 -0.721864 0.653943 3.33157 410.61 64.1411)" d="M-4.34759 -5.25471C-4.34759 -11.5047 3.66088 -11.5047 3.66088 -5.25471C3.66088 0.995287 3.66088 12.5 3.66088 12.5L-4.57314 12.5C-4.57314 12.5 -4.34758 0.995288 -4.34759 -5.25471Z"></path>
  <path fill="none" stroke="#C4C4C4" stroke-width="0.5" stroke-linecap="round" stroke-linejoin="round" transform="matrix(3.67759 -0.721864 0.653943 3.33157 406.076 45.6676)" d="M2.63812e-06 1.51651L1.92334e-06 10.5382"></path>
  <path fill="#CAC8CE" transform="matrix(3.33157 -0.653943 0.653943 3.33157 378.255 69.2607)" d="M-5.1645 -6.50117C-5.1645 -12.7512 6 -12.7512 6 -6.50117C6 -0.25117 6 12.5 6 12.5L-6 12.5C-6 12.5 -5.1645 -0.251171 -5.1645 -6.50117Z"></path>
  <path fill="none" stroke="#C4C4C4" stroke-width="0.5" stroke-linecap="round" stroke-linejoin="round" transform="matrix(3.33157 -0.653943 0.653943 3.33157 378.458 50.3267)" d="M1.85391e-08 3.8412e-06L3.83324e-06 10.5382"></path>
  <path fill="#CAC8CE" transform="matrix(1.44842 0 0 1.31786 404.179 138.15)" d="M0 -40C20.9426 -40 35.0096 -26.8589 47.8597 -2.20018C49.1253 -3.81499 50.3123 -3.57653 51.1974 -3.11682C52.0824 -2.65711 52.5509 -1.60562 52.2206 -0.665342C53.8523 0.0631991 55.2854 1.47333 55.8775 2.67698C56.9197 4.79566 57.6743 10.5072 53.7931 11.8212C58.5977 31.9882 20.3682 22.0914 -1.32962e-05 22.0914C-20.2357 22.0914 -45.0732 28.3281 -41.8836 12.9784C-44.6787 11.8212 -48.2008 8.95144 -46.5316 4.29175C-45.7036 1.98006 -43.8185 0.567089 -42.3936 0.566997C-41.0392 0.56691 -42.9934 -2.2 -40.2188 -3.81491C-39.0195 -4.51291 -37.7273 -4.43211 -36.6068 -4.12355C-28.0141 -23.7311 -20.4124 -40 0 -40Z"></path>
  <clipPath id="cl_b4">
    <path d="M404.179 85.4358C434.512 85.4358 454.887 102.754 473.5 135.251C475.333 133.122 477.052 133.437 478.334 134.043C479.616 134.648 480.294 136.034 479.816 137.273C482.179 138.233 484.255 140.092 485.113 141.678C486.622 144.47 487.715 151.997 482.094 153.729C489.053 180.306 433.68 167.263 404.179 167.263C374.869 167.263 338.894 175.482 343.513 155.254C339.465 153.729 334.364 149.947 336.781 143.806C337.981 140.76 340.711 138.897 342.775 138.897C344.737 138.897 341.906 135.251 345.925 133.123C347.662 132.203 349.534 132.309 351.157 132.716C363.602 106.876 374.613 85.4358 404.179 85.4358Z"></path>
  </clipPath>
  <g clip-path="url(#cl_b4)">
    <path fill="#CDCBD2" transform="matrix(1.70248 0 0.00718207 1.70248 395.774 123.828)" d="M1.90467e-06 -5.5C3.866 -5.5 7 -2.92564 7 0.25C7 3.42564 3.866 6 1.91003e-06 6C-3.86599 6 -7 3.42564 -7 0.25C-7 -2.92564 -3.86599 -5.5 1.90467e-06 -5.5Z"></path>
    <path fill="#CDCBD2" transform="matrix(1.7367 0 0.00718207 1.70248 445.476 116.123)" d="M2.44472e-09 -5C2.76142 -5 5 -2.6495 5 0.25C5 3.1495 2.76142 5.5 -2.44472e-09 5.5C-2.76142 5.5 -5 3.1495 -5 0.25C-5 -2.6495 -2.76142 -5 2.44472e-09 -5Z"></path>
    <path fill="none" stroke="#C3C3C3" stroke-width="1" stroke-linecap="round" stroke-linejoin="round" transform="matrix(2.182 -0.353477 0.259285 1.60056 424.887 109.79)" d="M4.30294e-06 -4.14104e-07L2.92892 -0.714567"></path>
    <path fill="none" stroke="#C3C3C3" stroke-width="1" stroke-linecap="round" stroke-linejoin="round" transform="matrix(2.182 -0.353477 0.259285 1.60056 404.315 109.005)" d="M3.8147e-06 -7.77785e-06L4.25731 1.79212"></path>
    <path fill="#C3C3C3" transform="matrix(2.33716 -0.378612 0.383771 2.36901 417.353 111.947)" d="M-4.99596e-07 -2.15485e-07L1.9614 0.352738L0.915089 1.42246L-4.99596e-07 -2.15485e-07Z"></path>
    <path fill="none" stroke="#C3C3C3" stroke-width="0.5" stroke-linecap="round" stroke-linejoin="round" transform="matrix(1.83262 -0.296878 0.300923 1.85759 420.246 115.291)" d="M3.92253e-06 -0.711217L1.0783e-07 1.11021"></path>
    <path fill="#C7C5CB" transform="matrix(1.64843 0.417573 -0.40107 1.65095 414.371 104.507)" d="M1.96478e-06 -1.92716C1.62851 -1.92716 2.94867 -1.06434 2.94867 4.39386e-08C2.94867 1.06434 1.62851 1.92716 1.84991e-06 1.92716C-1.6285 1.92716 -2.94867 1.06434 -2.94867 -4.39386e-08C-2.94867 -1.06434 -1.6285 -1.92716 1.96478e-06 -1.92716Z"></path>
    <path fill="#C7C5CB" transform="matrix(1.61937 0.410211 -0.390122 1.60588 424.957 103.68)" d="M-3.843e-06 -1.89919C0.889985 -1.89919 1.61146 -1.04889 1.61146 -2.40127e-08C1.61146 1.04889 0.889985 1.89919 -3.7864e-06 1.89919C-0.889993 1.89919 -1.61147 1.04889 -1.61147 2.40127e-08C-1.61147 -1.04889 -0.889993 -1.89919 -3.843e-06 -1.89919Z"></path>
  </g>
  <path fill="none" stroke="#C2C2C2" stroke-width="6" stroke-linejoin="round" transform="matrix(1.70248 0 0 1.70248 361.705 267.34)" d="M-19.5467 7.07638C-29.8333 -31.2942 31.501 -47.737 41.7875 -9.36637C46.1687 6.97625 53.4774 34.2388 58.0178 51.1754C59.6131 57.1261 54.3235 70.2593 31.9461 76.5384C9.56874 82.8175 -1.47886 74.4724 -2.7223 69.8342C-7.28936 52.7983 -16.3135 19.1369 -19.5467 7.07638Z"></path>
  <path fill="none" stroke="#C2C2C2" stroke-width="6" stroke-linecap="round" stroke-linejoin="bevel" transform="matrix(1.70248 0 0 1.58041 361.705 181.982)" d="M38.9278 29.9163C40.5239 37.6695 41.8991 44.3494 42.6082 47.7937C51.2419 89.7313 -10.7604 104.5 -19.3941 62.5628C-21.5614 52.0352 -25.5454 32.6832 -28.0549 20.4937C-30.5643 8.30415 -28.0362 -10.5686 -12.3378 -14.319C-10.7579 -14.6964 -9.29951 -15.0448 -7.94717 -15.3679"></path>
  <path fill="#CAC8CE" transform="matrix(1.70248 0 0 1.70248 361.705 267.34)" d="M-19.5467 7.07638C-30.2605 -32.8879 31.0737 -49.3306 41.7875 -9.36637C46.1687 6.97625 53.4774 34.2388 58.0178 51.1754C59.6131 57.1261 54.3235 70.2593 31.9461 76.5384C9.56874 82.8175 -1.47886 74.4724 -2.7223 69.8342C-7.28936 52.7983 -16.3135 19.1369 -19.5467 7.07638Z"></path>
  <path fill="#CAC8CE" transform="matrix(1.70248 0 0 1.58041 361.705 181.982)" d="M-28.0549 20.4937C-30.5643 8.30415 -28.0362 -10.5686 -12.3378 -14.319C3.36061 -18.0693 7.06064 -18.9533 13.9573 -20.6009C20.854 -22.2485 28.6493 -20.0105 31.8052 -4.68091C34.9611 10.6487 40.8447 39.2277 42.6082 47.7937C50.2025 84.6824 -11.7998 99.4516 -19.3941 62.5628C-21.5614 52.0352 -25.5454 32.6832 -28.0549 20.4937Z"></path>
  <path fill="none" stroke="#010101" stroke-width="7" stroke-linecap="round" stroke-miterlimit="4" transform="matrix(1.00146 0 0 1.00146 343 256)" d="M23.8186 -93.5308C78.9779 -93.5308 123.693 -93.4603 123.693 -93.3733C123.693 -93.2863 78.9779 -93.2157 23.8186 -93.2157C-31.3407 -93.2157 -76.0562 -93.2863 -76.0562 -93.3733C-76.0562 -93.4603 -31.3407 -93.5308 23.8186 -93.5308Z"></path>
  <path fill="#8D5A3E" transform="matrix(1.20507 9.0505e-23 -1.42778e-25 0.00190108 366.853 162.49)" d="M1.02305e-30 -83C45.8396 -83 83 -45.8396 83 0C83 45.8396 45.8396 83 -1.02305e-30 83C-45.8396 83 -83 45.8396 -83 0C-83 -45.8396 -45.8396 -83 1.02305e-30 -83Z"></path>
  <path fill="#65524C" transform="matrix(0.692913 5.20404e-23 -1.31735e-25 0.00175404 366.853 162.516)" d="M1.20178e-30 -97.4961C45.8396 -97.4961 83 -53.8439 83 0.00390625C83 53.8517 45.8396 97.5039 -1.20178e-30 97.5039C-45.8396 97.5039 -83 53.8517 -83 0.00390625C-83 -53.8439 -45.8396 -97.4961 1.20178e-30 -97.4961Z"></path>
  <clipPath id="cl_bc">
    <path d="M366.853 162.345C398.616 162.345 424.365 162.422 424.365 162.516C424.365 162.611 398.616 162.687 366.853 162.687C335.09 162.687 309.342 162.611 309.342 162.516C309.342 162.422 335.09 162.345 366.853 162.345Z"></path>
  </clipPath>
  <g clip-path="url(#cl_bc)">
    <path fill="#281C18" transform="matrix(0.692913 5.20404e-23 -1.31735e-25 0.00175404 348.777 162.516)" d="M9.53674e-07 -97.5C45.8396 -97.5 83 -53.8478 83 -2.68187e-25C83 53.8478 45.8396 97.5 9.53674e-07 97.5C-45.8396 97.5 -83 53.8478 -83 2.68187e-25C-83 -53.8478 -45.8396 -97.5 9.53674e-07 -97.5Z"></path>
  </g>
  <path fill="none" stroke="#010101" stroke-width="7" stroke-linejoin="round" transform="matrix(1.00146 0 0 1.00146 343 256)" d="M-74.9018 -93.3954C-74.9149 -93.3959 -74.9268 -93.3964 -74.9378 -93.3969C-74.9378 -93.3969 -118.006 -79.7354 -118.217 -41.0473C-118.217 -41.0473 -101.808 -33.9461 -58.5222 -21.092C-24.7665 -11.0679 -29.5476 -17.7139 22.9472 -14.9415C45.4812 -12.4778 89.0824 -21.2347 89.0824 -21.2347C89.0824 -21.2347 88.8022 -29.7771 93.775 -29.7771C98.7479 -29.7771 101.621 -21.2347 101.621 -21.2347C113.656 -21.2346 124.437 -27.3263 133.488 -28.6437C162.009 -32.7951 165.432 -41.0473 165.432 -41.0473C165.432 -79.7354 122.202 -93.3968 122.202 -93.3968C108.767 -93.2917 73.7276 -93.2157 23.8186 -93.2155C-25.8445 -93.2153 -72.2631 -93.291 -74.9018 -93.3954"></path>
  <path fill="none" stroke="#010101" stroke-width="21" stroke-linecap="round" stroke-linejoin="round" transform="matrix(0.91934 6.90459e-23 -6.90459e-23 0.91934 217.001 214.893)" d="M8.27733 -3.8147e-06C8.27733 -3.8147e-06 26.1524 7.73552 73.3041 21.7377C110.075 32.6572 104.867 25.4176 162.051 28.4377C186.598 31.1214 234.093 21.5824 234.093 21.5824C234.093 21.5824 233.788 12.2769 239.205 12.2769C244.622 12.2769 247.752 21.5824 247.752 21.5824C260.863 21.5824 272.606 14.9466 282.465 13.5115C313.534 8.98929 317.263 -3.8147e-06 317.263 -3.8147e-06C317.263 -0.789495 317.246 -1.56942 317.214 -2.33986"></path>
  <path fill="none" stroke="white" stroke-width="14" stroke-linecap="round" stroke-linejoin="round" transform="matrix(0.91934 6.90459e-23 -6.90459e-23 0.91934 217.001 214.893)" d="M8.27733 -3.8147e-06C8.27733 -3.8147e-06 26.1524 7.73552 73.3041 21.7377C110.075 32.6572 104.867 25.4176 162.051 28.4377C186.598 31.1214 234.093 21.5824 234.093 21.5824C234.093 21.5824 233.788 12.2769 239.205 12.2769C244.622 12.2769 247.752 21.5824 247.752 21.5824C260.863 21.5824 272.606 14.9466 282.465 13.5115C313.534 8.98929 317.263 -3.8147e-06 317.263 -3.8147e-06C317.263 -0.168581 317.262 -0.336722 317.261 -0.504428"></path>
  <path fill="#8D5A3E" transform="matrix(0.91934 6.90459e-23 -6.90459e-23 0.91934 217.001 214.893)" d="M8.27733 -3.8147e-06C8.27733 -3.8147e-06 28.6505 6.97293 72.0222 20.0838C95.5232 27.188 124.361 26.4472 162.051 28.4377C186.598 31.1214 234.093 21.5824 234.093 21.5824C234.093 21.5824 234.776 13.5868 238.41 13.5868C242.043 13.5868 247.752 21.5824 247.752 21.5824C260.529 21.5824 277.837 13.8723 286.934 12.7945C317.391 9.18614 317.263 -3.8147e-06 317.263 -3.8147e-06C317.263 -42.1439 270.172 -57.0257 270.172 -57.0257C255.536 -56.9112 217.367 -56.8284 163 -56.8281C108.633 -56.8279 57.8352 -56.9112 55.4223 -57.0258C55.4223 -57.0258 8.50729 -42.1439 8.27733 -3.8147e-06Z"></path>
  <clipPath id="cl_bd">
    <path d="M224.611 214.893C224.611 214.893 243.34 221.303 283.214 233.357C304.819 239.888 331.331 239.207 365.981 241.037C388.548 243.504 432.212 234.734 432.212 234.734C432.212 234.734 432.84 227.384 436.181 227.384C439.521 227.384 444.769 234.734 444.769 234.734C456.516 234.734 472.427 227.646 480.791 226.655C508.791 223.338 508.673 214.893 508.673 214.893C508.673 176.148 465.381 162.467 465.381 162.467C451.926 162.572 416.835 162.648 366.853 162.648C316.871 162.649 270.171 162.572 267.953 162.467C267.953 162.467 224.822 176.148 224.611 214.893Z"></path>
  </clipPath>
  <g clip-path="url(#cl_bd)">
    <path fill="#7F4728" transform="matrix(2.47275 -0.0817371 0.117134 3.54359 314.451 214.433)" d="M-14.8742 -9.69253L16.7537 -6.3603L15.092 9.39556L-21.0084 4.35254L-14.8742 -9.69253Z"></path>
  </g>
  <path fill="none" stroke="#612F13" stroke-width="1" stroke-linecap="round" stroke-linejoin="round" transform="matrix(0.0618651 -1.47647 1.47647 0.0618651 324.802 190.178)" d="M1.02357 0.373772L4.21644 0.641895"></path>
  <path fill="none" stroke="#612F13" stroke-width="1" stroke-linecap="round" stroke-linejoin="round" transform="matrix(0.0618651 -1.47647 1.47647 0.0618651 313.31 189.718)" d="M1.02357 0.373773L4.21644 0.641897"></path>
  <clipPath id="cl_be">
    <path d="M224.611 214.893C224.611 214.893 243.34 221.303 283.214 233.357C304.819 239.888 331.331 239.207 365.981 241.037C388.548 243.504 432.212 234.734 432.212 234.734C432.212 234.734 432.84 227.384 436.181 227.384C439.521 227.384 444.769 234.734 444.769 234.734C456.516 234.734 472.427 227.646 480.791 226.655C508.791 223.338 508.673 214.893 508.673 214.893C508.673 176.148 465.381 162.467 465.381 162.467C451.926 162.572 416.835 162.648 366.853 162.648C316.871 162.649 270.171 162.572 267.953 162.467C267.953 162.467 224.822 176.148 224.611 214.893Z"></path>
  </clipPath>
  <g clip-path="url(#cl_be)">
    <clipPath id="cl_bf">
      <path d="M224.611 214.893C224.611 214.893 243.34 221.303 283.214 233.357C304.819 239.888 331.331 239.207 365.981 241.037C388.548 243.504 432.212 234.734 432.212 234.734C432.212 234.734 432.84 227.384 436.181 227.384C439.521 227.384 444.769 234.734 444.769 234.734C456.516 234.734 472.427 227.646 480.791 226.655C508.791 223.338 508.673 214.893 508.673 214.893C508.673 176.148 465.381 162.467 465.381 162.467C451.926 162.572 416.835 162.648 366.853 162.648C316.871 162.649 270.171 162.572 267.953 162.467C267.953 162.467 224.822 176.148 224.611 214.893Z"></path>
    </clipPath>
    <g clip-path="url(#cl_bf)">
      <path fill="#7F4728" transform="matrix(0.91934 6.90459e-23 -6.90459e-23 0.91934 489.585 192.139)" d="M0 -32.5C25.6812 -32.5 46.5 -17.8373 46.5 0.25C46.5 18.3373 25.6812 33 0 33C-25.6812 33 -46.5 18.3373 -46.5 0.25C-46.5 -17.8373 -25.6812 -32.5 0 -32.5Z"></path>
    </g>
    <path fill="none" stroke="#612F13" stroke-width="1" stroke-linecap="round" stroke-linejoin="round" transform="matrix(-1.35113 0.598538 -0.598538 -1.35113 450.973 196.506)" d="M1.02358 0.373775L4.21645 0.641899"></path>
    <path fill="none" stroke="#612F13" stroke-width="1" stroke-linecap="round" stroke-linejoin="round" transform="matrix(-0.766963 1.26316 -1.26316 -0.766963 465.223 212.135)" d="M1.02357 0.373775L4.21644 0.641899"></path>
    <path fill="none" stroke="#612F13" stroke-width="1" stroke-linecap="round" stroke-linejoin="round" transform="matrix(-1.47709 -0.0446689 0.0446689 -1.47709 451.433 187.313)" d="M1.02356 0.373775L4.21643 0.641899"></path>
  </g>
</svg>