<?xml version="1.0" encoding="utf-8"?>
<svg xmlns="http://www.w3.org/2000/svg" xmlns:xlink="http://www.w3.org/1999/xlink" width="686" height="512">
  <path fill="none" stroke="black" stroke-width="6" stroke-linejoin="round" transform="matrix(1.70248 0 0 1.44029 567.099 179.773)" d="M-12.9438 -16.9737C-9.2896 -16.9737 -6.63603 -16.9737 -3.2142 -16.9737C3.85004 -16.9737 11.0107 -12.9707 11.0107 2.73135C11.0107 18.4334 11.0107 47.7067 11.0107 56.4808C11.0107 99.4374 -52.4893 99.3952 -52.4893 56.4387C-52.4893 45.6553 -52.4893 25.833 -52.4893 13.3474C-52.4893 0.861706 -46.228 -16.9737 -30.1482 -16.9737C-28.9445 -16.9737 -27.8096 -16.9737 -26.7371 -16.9737"></path>
  <path fill="none" stroke="black" stroke-width="6" stroke-linejoin="round" transform="matrix(1.70248 0 0 1.55154 567.099 257.563)" d="M-52.4886 0.0848538C-52.623 -42.5374 10.8768 -42.7376 11.0112 -0.115283C11.0645 16.8043 11.1535 45.0294 11.2088 62.564C11.2282 68.7248 2.75394 80.0671 -20.4852 80.4108C-43.7244 80.7546 -52.2687 69.8604 -52.2838 65.0584C-52.3394 47.4211 -52.4493 12.5712 -52.4886 0.0848538Z"></path>
  <path fill="#503F7E" transform="matrix(1.70248 0 0 1.44029 567.099 179.773)" d="M-52.4893 13.3474C-52.4893 0.861706 -46.228 -16.9737 -30.1482 -16.9737C-14.0684 -16.9737 -10.2784 -16.9737 -3.2142 -16.9737C3.85004 -16.9737 11.0107 -12.9707 11.0107 2.73135C11.0107 18.4334 11.0107 47.7067 11.0107 56.4809C11.0107 99.4374 -52.4893 99.3952 -52.4893 56.4387C-52.4893 45.6553 -52.4893 25.833 -52.4893 13.3474Z"></path>
  <path fill="#503F7E" transform="matrix(1.70248 0 0 1.55154 567.099 257.563)" d="M-52.4886 0.0848526C-52.623 -42.5375 10.8768 -42.7376 11.0112 -0.115284C11.0645 16.8043 11.1535 45.0294 11.2088 62.564C11.2282 68.7248 2.75394 80.0671 -20.4852 80.4108C-43.7244 80.7546 -52.2687 69.8604 -52.2838 65.0584C-52.3394 47.4211 -52.4493 12.5711 -52.4886 0.0848526Z"></path>
  <path fill="none" stroke="black" stroke-width="5" stroke-linejoin="round" transform="matrix(1.58884 0 0 1.70248 482.401 356.274)" d="M3.2486 -15.6843C21.4654 -15.1617 34.2677 -10.6205 32.7075 36.7461C32.6825 50.8532 36.3525 66.1191 21.075 74.6392C9.51464 74.2177 -3.42916 74.6557 -19.8776 73.9225C-30.4244 64.7914 -30.4432 50.8531 -30.4432 34.0309C-29.5285 -12.4507 -14.9682 -16.207 3.2486 -15.6843Z"></path>
  <path fill="#453279" transform="matrix(1.58884 0 0 1.70248 482.401 356.274)" d="M3.2486 -15.6843C21.4654 -15.1617 34.2677 -10.6205 32.7075 36.7461C32.6825 50.8532 36.3525 66.1191 21.075 74.6392C9.51464 74.2177 -3.42916 74.6557 -19.8776 73.9225C-30.4244 64.7914 -30.4432 50.8531 -30.4432 34.0309C-29.5285 -12.4507 -14.9682 -16.207 3.2486 -15.6843Z"></path>
  <path fill="none" stroke="black" stroke-width="5" stroke-linejoin="round" transform="matrix(1.58884 0 0 1.70248 408.748 362.548)" d="M-0.0200195 -14.3434C18.2054 -14.3653 31.226 -10.1701 31.2229 37.2187C31.837 56.0952 34.5794 69.0808 19.0958 75.6705C3.62161 76.0217 -7.06572 76.2142 -21.9017 75.8544C-36.7283 69.2561 -32.12 52.8085 -31.9872 36.3121C-32.6002 -10.1738 -18.2454 -14.3214 -0.0200195 -14.3434Z"></path>
  <path fill="none" stroke="black" stroke-width="5" stroke-linejoin="round" transform="matrix(1.70226 0.0261988 -0.0277736 1.60574 487.3 283.869)" d="M-11.3238 -80.2543C25.8014 -80.2543 54.9476 -94.6926 58.9092 -40.8672C62.8708 12.9582 37.0524 74.7499 0.0572919 75.3534C-14.1177 75.5847 -17.7665 75.6442 -48.2096 76.1409C-78.6526 76.6376 -84.25 60.12 -84.25 0C-86.6294 -86.0849 -88.6034 -78.4854 -12.7475 -80.2208"></path>
  <path fill="#503F7E" transform="matrix(1.58884 0 0 1.70248 408.748 362.548)" d="M-0.0200195 -14.3434C18.2054 -14.3653 31.226 -10.1701 31.2229 37.2187C31.837 56.0952 34.5794 69.0808 19.0958 75.6705C3.62161 76.0217 -7.06572 76.2142 -21.9017 75.8544C-36.7283 69.2561 -32.12 52.8085 -31.9872 36.3121C-32.6002 -10.1738 -18.2454 -14.3214 -0.0200195 -14.3434Z"></path>
  <path fill="none" stroke="black" stroke-width="5" stroke-linejoin="round" transform="matrix(1.44842 1.48659e-24 -1.35259e-24 1.31786 442.184 138.15)" d="M0 -40C20.9426 -40 35.0096 -26.8589 47.8597 -2.20018C49.1253 -3.81499 50.3123 -3.57653 51.1974 -3.11682C52.0824 -2.65711 52.5509 -1.60562 52.2206 -0.665342C53.8523 0.0631991 55.2854 1.47333 55.8775 2.67698C56.9197 4.79566 57.6743 10.5072 53.7931 11.8212C58.5977 31.9882 20.3682 22.0914 -1.32962e-05 22.0914C-20.2357 22.0914 -45.0732 28.3281 -41.8836 12.9784C-44.6787 11.8212 -48.2008 8.95144 -46.5316 4.29175C-45.7036 1.98006 -43.8185 0.567089 -42.3936 0.566997C-41.0392 0.56691 -42.9934 -2.2 -40.2188 -3.81491C-39.0195 -4.51291 -37.7273 -4.43211 -36.6068 -4.12355C-28.0141 -23.7311 -20.4124 -40 0 -40Z"></path>
  <path fill="#503F7E" transform="matrix(1.70226 0.0261988 -0.0277736 1.60574 487.3 283.869)" d="M-11.3238 -80.2543C25.8014 -80.2543 54.9476 -94.6926 58.9092 -40.8672C62.8708 12.9582 37.0524 74.7499 0.0572919 75.3534C-14.1177 75.5847 -17.7665 75.6442 -48.2096 76.1409C-78.6526 76.6376 -84.25 60.12 -84.25 0C-86.6442 -86.62 -88.6279 -78.3873 -11.3238 -80.2543Z"></path>
  <clipPath id="cl_193">
    <path d="M470.253 154.705C533.45 155.677 583.465 133.257 588.714 219.79C593.962 306.323 548.297 404.868 485.305 404.868C461.169 404.868 454.956 404.868 403.12 404.868C351.285 404.868 342.215 378.198 343.885 281.661C342.215 142.51 338.61 155.677 470.253 154.705Z"></path>
  </clipPath>
  <g clip-path="url(#cl_193)">
    <path fill="#655494" transform="matrix(1.70248 0 0 1.70248 522.414 266.919)" d="M-0.158638 -48.2656C25.513 -48.2656 46.324 -26.6563 46.324 4.76837e-07C46.324 26.6563 25.513 48.2656 -0.158638 48.2656C-25.8303 48.2656 -46.6413 26.6563 -46.6413 4.76837e-07C-46.6413 -26.6563 -25.8303 -48.2656 -0.158638 -48.2656Z"></path>
  </g>
  <path fill="none" stroke="black" stroke-width="2" stroke-linejoin="round" transform="matrix(3.67759 -0.721864 0.653943 3.33157 448.615 64.1411)" d="M-4.34758 -5.25471C-4.34758 -11.5047 3.66088 -11.5047 3.66088 -5.25472C3.66088 0.995283 3.66089 12.5 3.66089 12.5L-4.57313 12.5C-4.57313 12.5 -4.34758 0.995284 -4.34758 -5.25471Z"></path>
  <path fill="none" stroke="black" stroke-width="2" stroke-linejoin="round" transform="matrix(3.33157 -0.653943 0.653943 3.33157 416.261 69.2607)" d="M-5.16451 -6.50116C-5.16451 -12.7512 6 -12.7512 6 -6.50116C6 -0.251162 6 12.5 6 12.5L-6 12.5C-6 12.5 -5.16451 -0.251163 -5.16451 -6.50116Z"></path>
  <path fill="#453279" transform="matrix(3.67759 -0.721864 0.653943 3.33157 448.615 64.1411)" d="M-4.34758 -5.25471C-4.34758 -11.5047 3.66088 -11.5047 3.66088 -5.25472C3.66088 0.995283 3.66089 12.5 3.66089 12.5L-4.57313 12.5C-4.57313 12.5 -4.34758 0.995284 -4.34758 -5.25471Z"></path>
  <path fill="none" stroke="#161616" stroke-width="0.5" stroke-linecap="round" stroke-linejoin="round" transform="matrix(3.67759 -0.721864 0.653943 3.33157 444.082 45.6676)" d="M8.36017e-06 1.51652L7.64539e-06 10.5382"></path>
  <path fill="#503F7E" transform="matrix(3.33157 -0.653943 0.653943 3.33157 416.261 69.2607)" d="M-5.1645 -6.50117C-5.16451 -12.7512 6 -12.7512 6 -6.50117C6 -0.251166 6 12.5 6 12.5L-6 12.5C-6 12.5 -5.1645 -0.251167 -5.1645 -6.50117Z"></path>
  <path fill="none" stroke="#161616" stroke-width="0.5" stroke-linecap="round" stroke-linejoin="round" transform="matrix(3.33157 -0.653943 0.653943 3.33157 416.464 50.3267)" d="M3.83324e-06 2.6499e-08L7.64793e-06 10.5382"></path>
  <path fill="#503F7E" transform="matrix(1.44842 0 0 1.31786 442.184 138.15)" d="M0 -40C20.9426 -40 35.0096 -26.8589 47.8597 -2.20018C49.1253 -3.81499 50.3123 -3.57653 51.1974 -3.11682C52.0824 -2.65711 52.5509 -1.60562 52.2206 -0.665342C53.8523 0.0631991 55.2854 1.47333 55.8775 2.67698C56.9197 4.79566 57.6743 10.5072 53.7931 11.8212C58.5977 31.9882 20.3682 22.0914 -1.32962e-05 22.0914C-20.2357 22.0914 -45.0732 28.3281 -41.8836 12.9784C-44.6787 11.8212 -48.2008 8.95144 -46.5316 4.29175C-45.7036 1.98006 -43.8185 0.567089 -42.3936 0.566997C-41.0392 0.56691 -42.9934 -2.2 -40.2188 -3.81491C-39.0195 -4.51291 -37.7273 -4.43211 -36.6068 -4.12355C-28.0141 -23.7311 -20.4124 -40 0 -40Z"></path>
  <clipPath id="cl_194">
    <path d="M442.184 85.4358C472.518 85.4358 492.893 102.754 511.505 135.251C513.338 133.122 515.058 133.437 516.34 134.043C517.622 134.648 518.3 136.034 517.822 137.273C520.185 138.233 522.261 140.092 523.118 141.678C524.628 144.47 525.721 151.997 520.099 153.729C527.058 180.306 471.686 167.263 442.184 167.263C412.874 167.263 376.899 175.482 381.519 155.254C377.471 153.729 372.369 149.947 374.787 143.806C375.986 140.76 378.717 138.897 380.781 138.897C382.742 138.897 379.912 135.251 383.931 133.123C385.668 132.203 387.539 132.309 389.162 132.716C401.608 106.876 412.619 85.4358 442.184 85.4358Z"></path>
  </clipPath>
  <g clip-path="url(#cl_194)">
    <path fill="#7463A5" transform="matrix(1.70248 0 0.00718207 1.70248 437.787 123.828)" d="M-2.67755e-09 -5.5C3.86599 -5.5 7 -2.92564 7 0.25C7 3.42564 3.86599 6 2.67755e-09 6C-3.86599 6 -7 3.42564 -7 0.25C-7 -2.92564 -3.86599 -5.5 -2.67755e-09 -5.5Z"></path>
    <path fill="#7463A5" transform="matrix(1.7367 0 0.00718207 1.70248 487.489 116.123)" d="M-7.62695e-06 -5C2.76142 -5 4.99999 -2.6495 4.99999 0.25C4.99999 3.1495 2.76142 5.5 -7.63184e-06 5.5C-2.76143 5.5 -5.00001 3.1495 -5.00001 0.25C-5.00001 -2.6495 -2.76143 -5 -7.62695e-06 -5Z"></path>
    <path fill="none" stroke="#131212" stroke-width="1" stroke-linecap="round" stroke-linejoin="round" transform="matrix(2.182 -0.353477 0.259285 1.60056 466.9 109.79)" d="M4.88246e-07 -4.14104e-07L2.92891 -0.714567"></path>
    <path fill="none" stroke="#131212" stroke-width="1" stroke-linecap="round" stroke-linejoin="round" transform="matrix(2.182 -0.353477 0.259285 1.60056 446.328 109.005)" d="M0 -1.48459e-07L4.25731 1.79213"></path>
    <path fill="#131212" transform="matrix(2.33716 -0.378612 0.383771 2.36901 459.366 111.947)" d="M-4.99596e-07 -4.03018e-06L1.9614 0.352734L0.915089 1.42246L-4.99596e-07 -4.03018e-06Z"></path>
    <path fill="none" stroke="#131212" stroke-width="0.5" stroke-linecap="round" stroke-linejoin="round" transform="matrix(1.83262 -0.296878 0.300923 1.85759 462.259 115.291)" d="M1.0783e-07 -0.711224L-3.70687e-06 1.1102"></path>
    <path fill="#32225E" transform="matrix(1.64843 0.417573 -0.40107 1.65095 456.384 104.507)" d="M3.87213e-06 -1.92716C1.62851 -1.92716 2.94867 -1.06434 2.94867 4.39386e-08C2.94867 1.06434 1.62851 1.92716 3.75726e-06 1.92716C-1.6285 1.92716 -2.94867 1.06434 -2.94867 -4.39386e-08C-2.94867 -1.06434 -1.6285 -1.92716 3.87213e-06 -1.92716Z"></path>
    <path fill="#32225E" transform="matrix(1.61937 0.410211 -0.390122 1.60588 466.971 103.68)" d="M-3.843e-06 -1.89918C0.889985 -1.89918 1.61146 -1.04889 1.61146 7.60538e-06C1.61146 1.0489 0.889985 1.8992 -3.7864e-06 1.8992C-0.889993 1.8992 -1.61147 1.0489 -1.61147 7.65341e-06C-1.61147 -1.04889 -0.889993 -1.89918 -3.843e-06 -1.89918Z"></path>
  </g>
  <path fill="none" stroke="black" stroke-width="6" stroke-linejoin="round" transform="matrix(1.70248 0 0 1.70248 388.529 267.34)" d="M-28.7969 6.30718C-36.7045 -32.6233 25.5248 -45.2633 33.4324 -6.33282C36.8003 10.2483 42.4187 37.9087 45.9091 55.0924C47.1354 61.13 41.0482 73.913 18.327 78.8042C-4.3941 83.6953 -14.9076 74.6868 -15.8635 69.9808C-19.3743 52.6963 -26.3114 18.5437 -28.7969 6.30718Z"></path>
  <path fill="none" stroke="black" stroke-width="6" stroke-linecap="round" stroke-linejoin="bevel" transform="matrix(1.70248 0 0 1.58041 388.529 181.982)" d="M33.4223 36.9291C33.7203 44.8117 33.9769 51.5959 34.1095 55.1028C35.7325 98.0237 -27.7164 100.766 -29.3395 57.8448C-29.7469 47.0704 -30.4958 27.2645 -30.9676 14.7892C-31.4393 2.31389 -25.857 -15.7813 -9.79055 -16.4863C-8.04653 -16.5629 -6.4472 -16.633 -4.97267 -16.6977"></path>
  <path fill="#503F7E" transform="matrix(1.70248 0 0 1.70248 388.529 267.34)" d="M-28.7969 6.30718C-37.0329 -34.2402 25.1964 -46.8803 33.4324 -6.33282C36.8003 10.2483 42.4187 37.9087 45.9091 55.0924C47.1354 61.13 41.0482 73.913 18.327 78.8042C-4.3941 83.6953 -14.9076 74.6868 -15.8635 69.9808C-19.3743 52.6963 -26.3114 18.5437 -28.7969 6.30718Z"></path>
  <path fill="#503F7E" transform="matrix(1.70248 0 0 1.58041 388.529 181.982)" d="M-30.9676 14.7892C-31.4393 2.31388 -25.857 -15.7813 -9.79055 -16.4863C6.27593 -17.1913 10.0627 -17.3575 17.1211 -17.6672C24.1795 -17.977 31.4854 -14.2912 32.0787 1.39782C32.6719 17.0869 33.778 46.3359 34.1095 55.1028C35.5371 92.8565 -27.9118 95.5985 -29.3395 57.8448C-29.7469 47.0704 -30.4958 27.2645 -30.9676 14.7892Z"></path>
  <path fill="none" stroke="#010101" stroke-width="7" stroke-linecap="round" stroke-miterlimit="4" transform="matrix(1.00146 0 0 1.00146 343 256)" d="M-101.376 105.879C-46.217 105.879 -1.50153 105.949 -1.50153 106.036C-1.50153 106.123 -46.217 106.194 -101.376 106.194C-156.536 106.194 -201.251 106.123 -201.251 106.036C-201.251 105.949 -156.536 105.879 -101.376 105.879Z"></path>
  <path fill="#8D5A3E" transform="matrix(1.20507 9.0505e-23 -1.42778e-25 0.00190108 241.476 362.191)" d="M1.02305e-30 -83C45.8396 -83 83 -45.8396 83 0C83 45.8396 45.8396 83 -1.02305e-30 83C-45.8396 83 -83 45.8396 -83 0C-83 -45.8396 -45.8396 -83 1.02305e-30 -83Z"></path>
  <path fill="#65524C" transform="matrix(0.692913 5.20404e-23 -1.31735e-25 0.00175404 241.476 362.217)" d="M1.20178e-30 -97.5039C45.8396 -97.5039 83 -53.8517 83 -0.00390625C83 53.8439 45.8396 97.4961 -1.20178e-30 97.4961C-45.8396 97.4961 -83 53.8439 -83 -0.00390625C-83 -53.8517 -45.8396 -97.5039 1.20178e-30 -97.5039Z"></path>
  <clipPath id="cl_19c">
    <path d="M241.476 362.046C273.239 362.046 298.988 362.122 298.988 362.217C298.988 362.311 273.239 362.388 241.476 362.388C209.713 362.388 183.964 362.311 183.964 362.217C183.964 362.122 209.713 362.046 241.476 362.046Z"></path>
  </clipPath>
  <g clip-path="url(#cl_19c)">
    <path fill="#281C18" transform="matrix(0.692913 5.20404e-23 -1.31735e-25 0.00175404 223.4 362.217)" d="M0 -97.5C45.8396 -97.5 83 -53.8478 83 -2.68187e-25C83 53.8478 45.8396 97.5 0 97.5C-45.8396 97.5 -83 53.8478 -83 2.68187e-25C-83 -53.8478 -45.8396 -97.5 0 -97.5Z"></path>
  </g>
  <path fill="none" stroke="#010101" stroke-width="7" stroke-linejoin="round" transform="matrix(1.00146 0 0 1.00146 343 256)" d="M-200.097 106.014C-200.11 106.014 -200.122 106.013 -200.133 106.013C-200.133 106.013 -243.201 119.674 -243.412 158.362C-243.412 158.362 -227.002 165.463 -183.717 178.317C-149.961 188.342 -154.742 181.696 -102.248 184.468C-79.7137 186.932 -36.1125 178.175 -36.1125 178.175C-36.1125 178.175 -36.3927 169.632 -31.4198 169.632C-26.4469 169.632 -23.5743 178.175 -23.5743 178.175C-11.5384 178.175 -0.758316 172.083 8.29274 170.766C36.8142 166.614 40.2371 158.362 40.2371 158.362C40.2371 119.674 -2.99269 106.013 -2.99269 106.013C-16.428 106.118 -51.4672 106.194 -101.376 106.194C-151.04 106.194 -197.458 106.118 -200.097 106.014"></path>
  <path fill="none" stroke="#010101" stroke-width="21" stroke-linecap="round" stroke-linejoin="round" transform="matrix(0.91934 6.90459e-23 -6.90459e-23 0.91934 91.6233 414.593)" d="M8.27731 1.52588e-05C8.27731 1.52588e-05 26.1524 7.73555 73.3041 21.7377C110.075 32.6573 104.867 25.4176 162.051 28.4377C186.598 31.1214 234.093 21.5824 234.093 21.5824C234.093 21.5824 233.788 12.2769 239.205 12.2769C244.622 12.2769 247.752 21.5824 247.752 21.5824C260.863 21.5824 272.606 14.9466 282.465 13.5115C313.534 8.98932 317.263 1.52588e-05 317.263 1.52588e-05C317.263 -0.789519 317.246 -1.56949 317.214 -2.33996"></path>
  <path fill="none" stroke="white" stroke-width="14" stroke-linecap="round" stroke-linejoin="round" transform="matrix(0.91934 6.90459e-23 -6.90459e-23 0.91934 91.6233 414.593)" d="M8.27731 1.52588e-05C8.27731 1.52588e-05 26.1524 7.73555 73.3041 21.7377C110.075 32.6573 104.867 25.4176 162.051 28.4377C186.598 31.1214 234.093 21.5824 234.093 21.5824C234.093 21.5824 233.788 12.2769 239.205 12.2769C244.622 12.2769 247.752 21.5824 247.752 21.5824C260.863 21.5824 272.606 14.9466 282.465 13.5115C313.534 8.98932 317.263 1.52588e-05 317.263 1.52588e-05C317.263 -0.168605 317.262 -0.336789 317.261 -0.504538"></path>
  <path fill="#8D5A3E" transform="matrix(0.91934 6.90459e-23 -6.90459e-23 0.91934 91.6233 414.593)" d="M8.27731 1.52588e-05C8.27731 1.52588e-05 28.6505 6.97295 72.0222 20.0838C95.5232 27.188 124.361 26.4472 162.051 28.4377C186.598 31.1214 234.093 21.5824 234.093 21.5824C234.093 21.5824 234.776 13.5868 238.41 13.5868C242.043 13.5868 247.752 21.5824 247.752 21.5824C260.529 21.5824 277.837 13.8723 286.934 12.7945C317.391 9.18616 317.263 1.52588e-05 317.263 1.52588e-05C317.263 -42.1439 270.172 -57.0257 270.172 -57.0257C255.536 -56.9111 217.367 -56.8284 163 -56.8281C108.633 -56.8279 57.8352 -56.9111 55.4223 -57.0258C55.4223 -57.0258 8.50729 -42.1439 8.27731 1.52588e-05Z"></path>
  <clipPath id="cl_19d">
    <path d="M99.233 414.593C99.233 414.593 117.963 421.004 157.836 433.057C179.442 439.588 205.954 438.907 240.603 440.737C263.17 443.204 306.835 434.435 306.835 434.435C306.835 434.435 307.463 427.084 310.803 427.084C314.143 427.084 319.391 434.435 319.391 434.435C331.138 434.435 347.05 427.347 355.414 426.356C383.414 423.039 383.296 414.593 383.296 414.593C383.296 375.849 340.003 362.167 340.003 362.167C326.548 362.273 291.458 362.349 241.476 362.349C191.494 362.349 144.794 362.273 142.575 362.167C142.575 362.167 99.4444 375.849 99.233 414.593Z"></path>
  </clipPath>
  <g clip-path="url(#cl_19d)">
    <path fill="#7F4728" transform="matrix(2.47275 -0.0817371 0.117134 3.54359 189.073 414.134)" d="M-14.8742 -9.69253L16.7537 -6.3603L15.092 9.39556L-21.0084 4.35254L-14.8742 -9.69253Z"></path>
  </g>
  <path fill="none" stroke="#612F13" stroke-width="1" stroke-linecap="round" stroke-linejoin="round" transform="matrix(0.0618651 -1.47647 1.47647 0.0618651 199.424 389.879)" d="M1.02357 0.373772L4.21644 0.641895"></path>
  <path fill="none" stroke="#612F13" stroke-width="1" stroke-linecap="round" stroke-linejoin="round" transform="matrix(0.0618651 -1.47647 1.47647 0.0618651 187.933 389.419)" d="M1.02357 0.373772L4.21644 0.641895"></path>
  <clipPath id="cl_19e">
    <path d="M99.233 414.593C99.233 414.593 117.963 421.004 157.836 433.057C179.442 439.588 205.954 438.907 240.603 440.737C263.17 443.204 306.835 434.435 306.835 434.435C306.835 434.435 307.463 427.084 310.803 427.084C314.143 427.084 319.391 434.435 319.391 434.435C331.138 434.435 347.05 427.347 355.414 426.356C383.414 423.039 383.296 414.593 383.296 414.593C383.296 375.849 340.003 362.167 340.003 362.167C326.548 362.273 291.458 362.349 241.476 362.349C191.494 362.349 144.794 362.273 142.575 362.167C142.575 362.167 99.4444 375.849 99.233 414.593Z"></path>
  </clipPath>
  <g clip-path="url(#cl_19e)">
    <clipPath id="cl_19f">
      <path d="M99.233 414.593C99.233 414.593 117.963 421.004 157.836 433.057C179.442 439.588 205.954 438.907 240.603 440.737C263.17 443.204 306.835 434.435 306.835 434.435C306.835 434.435 307.463 427.084 310.803 427.084C314.143 427.084 319.391 434.435 319.391 434.435C331.138 434.435 347.05 427.347 355.414 426.356C383.414 423.039 383.296 414.593 383.296 414.593C383.296 375.849 340.003 362.167 340.003 362.167C326.548 362.273 291.458 362.349 241.476 362.349C191.494 362.349 144.794 362.273 142.575 362.167C142.575 362.167 99.4444 375.849 99.233 414.593Z"></path>
    </clipPath>
    <g clip-path="url(#cl_19f)">
      <path fill="#7F4728" transform="matrix(0.91934 6.90459e-23 -6.90459e-23 0.91934 364.208 391.84)" d="M1.90735e-06 -32.5C25.6812 -32.5 46.5 -17.8373 46.5 0.250015C46.5 18.3373 25.6812 33 1.90735e-06 33C-25.6812 33 -46.5 18.3373 -46.5 0.250015C-46.5 -17.8373 -25.6812 -32.5 1.90735e-06 -32.5Z"></path>
    </g>
    <path fill="none" stroke="#612F13" stroke-width="1" stroke-linecap="round" stroke-linejoin="round" transform="matrix(-1.35113 0.598538 -0.598538 -1.35113 325.595 396.207)" d="M1.02357 0.373764L4.21644 0.641888"></path>
    <path fill="none" stroke="#612F13" stroke-width="1" stroke-linecap="round" stroke-linejoin="round" transform="matrix(-0.766963 1.26316 -1.26316 -0.766963 339.845 411.835)" d="M1.02358 0.373772L4.21645 0.641895"></path>
    <path fill="none" stroke="#612F13" stroke-width="1" stroke-linecap="round" stroke-linejoin="round" transform="matrix(-1.47709 -0.0446689 0.0446689 -1.47709 326.055 387.013)" d="M1.02357 0.373772L4.21644 0.641895"></path>
  </g>
</svg>