<?xml version="1.0" encoding="utf-8"?>
<svg xmlns="http://www.w3.org/2000/svg" xmlns:xlink="http://www.w3.org/1999/xlink" width="686" height="512">
  <path fill="none" stroke="#161616" stroke-width="6" stroke-linejoin="round" transform="matrix(1.70248 0 0 1.44029 566.559 179.773)" d="M-12.9438 -16.9737C-9.28961 -16.9737 -6.63604 -16.9737 -3.21422 -16.9737C3.85002 -16.9737 11.0106 -12.9707 11.0106 2.73135C11.0106 18.4334 11.0106 47.7067 11.0106 56.4808C11.0106 99.4374 -52.4894 99.3952 -52.4894 56.4387C-52.4894 45.6553 -52.4894 25.833 -52.4894 13.3474C-52.4894 0.861706 -46.228 -16.9737 -30.1482 -16.9737C-28.9445 -16.9737 -27.8096 -16.9737 -26.7371 -16.9737"></path>
  <path fill="none" stroke="#161616" stroke-width="6" stroke-linejoin="round" transform="matrix(1.70248 0 0 1.55154 566.559 257.563)" d="M-52.4866 0.26327C-52.8615 -42.3576 10.6361 -42.9162 11.0111 -0.295364C11.16 16.6237 11.4083 44.8478 11.5625 62.3818C11.6167 68.5424 3.20665 79.9324 -20.0302 80.4073C-43.267 80.8823 -51.8727 70.0365 -51.915 65.2346C-52.0701 47.5979 -52.3767 12.7491 -52.4866 0.26327Z"></path>
  <path fill="#5E4E87" transform="matrix(1.70248 0 0 1.44029 566.559 179.773)" d="M-52.4894 13.3474C-52.4894 0.861706 -46.228 -16.9737 -30.1482 -16.9737C-14.0684 -16.9737 -10.2785 -16.9737 -3.21422 -16.9737C3.85002 -16.9737 11.0106 -12.9707 11.0106 2.73135C11.0106 18.4334 11.0106 47.7067 11.0106 56.4809C11.0106 99.4374 -52.4894 99.3952 -52.4894 56.4387C-52.4894 45.6553 -52.4894 25.833 -52.4894 13.3474Z"></path>
  <path fill="#5E4E87" transform="matrix(1.70248 0 0 1.55154 566.559 257.563)" d="M-52.4866 0.263269C-52.8615 -42.3576 10.6361 -42.9162 11.0111 -0.295366C11.16 16.6237 11.4083 44.8478 11.5625 62.3818C11.6167 68.5424 3.20665 79.9324 -20.0302 80.4073C-43.267 80.8823 -51.8727 70.0365 -51.915 65.2346C-52.0701 47.5979 -52.3767 12.7491 -52.4866 0.263269Z"></path>
  <path fill="none" stroke="#161616" stroke-width="5" stroke-linejoin="round" transform="matrix(1.58884 0 0 1.70248 481.861 356.274)" d="M3.18076 -15.6843C21.3999 -15.236 34.2233 -10.7471 32.8849 36.6254C32.926 50.7325 36.6675 65.9833 21.43 74.5656C9.86784 74.1913 -3.07379 74.6821 -19.5255 74.016C-30.115 64.928 -30.1991 50.9899 -30.2779 34.1679C-29.5809 -12.317 -15.0384 -16.1326 3.18076 -15.6843Z"></path>
  <path fill="#544382" transform="matrix(1.58884 0 0 1.70248 481.861 356.274)" d="M3.18076 -15.6843C21.3999 -15.236 34.2233 -10.7471 32.8849 36.6254C32.926 50.7325 36.6675 65.9833 21.43 74.5656C9.86784 74.1913 -3.07379 74.6821 -19.5255 74.016C-30.115 64.928 -30.1991 50.9899 -30.2779 34.1679C-29.5809 -12.317 -15.0384 -16.1326 3.18076 -15.6843Z"></path>
  <path fill="none" stroke="#161616" stroke-width="5" stroke-linejoin="round" transform="matrix(1.58884 0 0 1.70248 408.208 362.548)" d="M-0.0686798 -14.3419C18.1566 -14.4172 31.122 -10.2988 31.3469 37.0896C32.0518 55.9633 34.9019 68.8944 19.4598 75.5683C3.988 76.0038 -6.69796 76.2543 -21.5359 75.9753C-36.4035 69.4579 -31.9205 52.9447 -31.867 36.4479C-32.7037 -10.035 -18.2939 -14.2666 -0.0686798 -14.3419Z"></path>
  <path fill="none" stroke="#161616" stroke-width="5" stroke-linejoin="round" transform="matrix(1.70226 0.0261988 -0.0277736 1.60574 486.76 283.869)" d="M-11.3238 -80.2543C25.8014 -80.2543 54.9476 -94.6926 58.9092 -40.8672C62.8708 12.9582 37.0524 74.7499 0.0572919 75.3534C-14.1177 75.5847 -17.7665 75.6442 -48.2096 76.1409C-78.6526 76.6376 -84.25 60.12 -84.25 0C-86.6294 -86.0849 -88.6034 -78.4854 -12.7475 -80.2208"></path>
  <path fill="#5E4E87" transform="matrix(1.58884 0 0 1.70248 408.208 362.548)" d="M-0.0686798 -14.3419C18.1566 -14.4172 31.122 -10.2988 31.3469 37.0896C32.0518 55.9633 34.9019 68.8944 19.4598 75.5683C3.988 76.0038 -6.69796 76.2543 -21.5359 75.9753C-36.4035 69.4579 -31.9205 52.9447 -31.867 36.4479C-32.7037 -10.035 -18.2939 -14.2666 -0.0686798 -14.3419Z"></path>
  <path fill="none" stroke="#161616" stroke-width="5" stroke-linejoin="round" transform="matrix(1.44842 1.48659e-24 -1.35259e-24 1.31786 437.604 138.15)" d="M0 -40C20.9426 -40 35.0096 -26.8589 47.8597 -2.20018C49.1253 -3.81499 50.3123 -3.57653 51.1974 -3.11682C52.0824 -2.65711 52.5509 -1.60562 52.2206 -0.665342C53.8523 0.0631991 55.2854 1.47333 55.8775 2.67698C56.9197 4.79566 57.6743 10.5072 53.7931 11.8212C58.5977 31.9882 20.3682 22.0914 -1.32962e-05 22.0914C-20.2357 22.0914 -45.0732 28.3281 -41.8836 12.9784C-44.6787 11.8212 -48.2008 8.95144 -46.5316 4.29175C-45.7036 1.98006 -43.8185 0.567089 -42.3936 0.566997C-41.0392 0.56691 -42.9934 -2.2 -40.2188 -3.81491C-39.0195 -4.51291 -37.7273 -4.43211 -36.6068 -4.12355C-28.0141 -23.7311 -20.4124 -40 0 -40Z"></path>
  <path fill="#5E4E87" transform="matrix(1.70226 0.0261988 -0.0277736 1.60574 486.76 283.869)" d="M-11.3238 -80.2543C25.8014 -80.2543 54.9476 -94.6926 58.9092 -40.8672C62.8708 12.9582 37.0524 74.7499 0.0572919 75.3534C-14.1177 75.5847 -17.7665 75.6442 -48.2096 76.1409C-78.6526 76.6376 -84.25 60.12 -84.25 0C-86.6442 -86.62 -88.6279 -78.3873 -11.3238 -80.2543Z"></path>
  <clipPath id="cl_133">
    <path d="M469.713 154.705C532.91 155.677 582.925 133.257 588.174 219.79C593.423 306.323 547.757 404.868 484.765 404.868C460.629 404.868 454.416 404.868 402.581 404.868C350.745 404.868 341.676 378.198 343.345 281.661C341.676 142.51 338.07 155.677 469.713 154.705Z"></path>
  </clipPath>
  <g clip-path="url(#cl_133)">
    <path fill="#70619B" transform="matrix(1.70248 0 0 1.70248 521.875 266.919)" d="M-0.158646 -48.2656C25.513 -48.2656 46.324 -26.6563 46.324 4.76837e-07C46.324 26.6563 25.513 48.2656 -0.158646 48.2656C-25.8303 48.2656 -46.6413 26.6563 -46.6413 4.76837e-07C-46.6413 -26.6563 -25.8303 -48.2656 -0.158646 -48.2656Z"></path>
  </g>
  <path fill="none" stroke="#161616" stroke-width="2" stroke-linejoin="round" transform="matrix(3.67759 -0.721864 0.653943 3.33157 444.035 64.1411)" d="M-4.34758 -5.25471C-4.34758 -11.5047 3.66088 -11.5047 3.66088 -5.25472C3.66088 0.995283 3.66089 12.5 3.66089 12.5L-4.57313 12.5C-4.57313 12.5 -4.34758 0.995284 -4.34758 -5.25471Z"></path>
  <path fill="none" stroke="#161616" stroke-width="2" stroke-linejoin="round" transform="matrix(3.33157 -0.653943 0.653943 3.33157 411.68 69.2607)" d="M-5.16451 -6.50117C-5.16451 -12.7512 6 -12.7512 6 -6.50117C6 -0.25117 6 12.5 6 12.5L-6 12.5C-6 12.5 -5.16451 -0.251171 -5.16451 -6.50117Z"></path>
  <path fill="#544382" transform="matrix(3.67759 -0.721864 0.653943 3.33157 444.035 64.1411)" d="M-4.34758 -5.25471C-4.34758 -11.5047 3.66088 -11.5047 3.66088 -5.25472C3.66088 0.995283 3.66089 12.5 3.66089 12.5L-4.57313 12.5C-4.57313 12.5 -4.34758 0.995284 -4.34758 -5.25471Z"></path>
  <path fill="none" stroke="#292929" stroke-width="0.5" stroke-linecap="round" stroke-linejoin="round" transform="matrix(3.67759 -0.721864 0.653943 3.33157 439.501 45.6676)" d="M4.54547e-06 1.51651L3.83069e-06 10.5382"></path>
  <path fill="#5E4E87" transform="matrix(3.33157 -0.653943 0.653943 3.33157 411.68 69.2607)" d="M-5.16451 -6.50117C-5.16451 -12.7512 6 -12.7512 6 -6.50117C6 -0.25117 6 12.5 6 12.5L-6 12.5C-6 12.5 -5.16451 -0.251171 -5.16451 -6.50117Z"></path>
  <path fill="none" stroke="#292929" stroke-width="0.5" stroke-linecap="round" stroke-linejoin="round" transform="matrix(3.33157 -0.653943 0.653943 3.33157 411.883 50.3267)" d="M-1.88881e-06 2.6499e-08L1.92589e-06 10.5382"></path>
  <path fill="#5E4E87" transform="matrix(1.44842 0 0 1.31786 437.604 138.15)" d="M0 -40C20.9426 -40 35.0096 -26.8589 47.8597 -2.20018C49.1253 -3.81499 50.3123 -3.57653 51.1974 -3.11682C52.0824 -2.65711 52.5509 -1.60562 52.2206 -0.665342C53.8523 0.0631991 55.2854 1.47333 55.8775 2.67698C56.9197 4.79566 57.6743 10.5072 53.7931 11.8212C58.5977 31.9882 20.3682 22.0914 -1.32962e-05 22.0914C-20.2357 22.0914 -45.0732 28.3281 -41.8836 12.9784C-44.6787 11.8212 -48.2008 8.95144 -46.5316 4.29175C-45.7036 1.98006 -43.8185 0.567089 -42.3936 0.566997C-41.0392 0.56691 -42.9934 -2.2 -40.2188 -3.81491C-39.0195 -4.51291 -37.7273 -4.43211 -36.6068 -4.12355C-28.0141 -23.7311 -20.4124 -40 0 -40Z"></path>
  <clipPath id="cl_134">
    <path d="M437.604 85.4358C467.937 85.4358 488.312 102.754 506.925 135.251C508.758 133.122 510.477 133.437 511.759 134.043C513.041 134.648 513.719 136.034 513.241 137.273C515.604 138.233 517.68 140.092 518.538 141.678C520.047 144.47 521.14 151.997 515.519 153.729C522.478 180.306 467.105 167.263 437.604 167.263C408.294 167.263 372.319 175.482 376.939 155.254C372.89 153.729 367.789 149.947 370.206 143.806C371.406 140.76 374.136 138.897 376.2 138.897C378.162 138.897 375.331 135.251 379.35 133.123C381.087 132.203 382.959 132.309 384.582 132.716C397.028 106.876 408.038 85.4358 437.604 85.4358Z"></path>
  </clipPath>
  <g clip-path="url(#cl_134)">
    <path fill="#7E6FAA" transform="matrix(1.70248 0 0.00718207 1.70248 419.807 123.828)" d="M-2.67755e-09 -5.5C3.86599 -5.5 7 -2.92564 7 0.25C7 3.42564 3.86599 6 2.67755e-09 6C-3.86599 6 -7 3.42564 -7 0.25C-7 -2.92564 -3.86599 -5.5 -2.67755e-09 -5.5Z"></path>
    <path fill="#7E6FAA" transform="matrix(1.7367 0 0.00718207 1.70248 469.509 116.123)" d="M2.44472e-09 -5C2.76142 -5 5 -2.6495 5 0.25C5 3.1495 2.76142 5.5 -2.44472e-09 5.5C-2.76142 5.5 -5 3.1495 -5 0.25C-5 -2.6495 -2.76142 -5 2.44472e-09 -5Z"></path>
    <path fill="none" stroke="#272626" stroke-width="1" stroke-linecap="round" stroke-linejoin="round" transform="matrix(2.182 -0.353477 0.259285 1.60056 448.92 109.79)" d="M-3.32645e-06 7.21529e-06L2.92891 -0.71456"></path>
    <path fill="none" stroke="#272626" stroke-width="1" stroke-linecap="round" stroke-linejoin="round" transform="matrix(2.182 -0.353477 0.259285 1.60056 428.347 109.005)" d="M0 -7.77785e-06L4.25731 1.79212"></path>
    <path fill="#272626" transform="matrix(2.33716 -0.378612 0.383771 2.36901 441.385 111.947)" d="M-4.99596e-07 -7.84488e-06L1.9614 0.35273L0.915089 1.42245L-4.99596e-07 -7.84488e-06Z"></path>
    <path fill="none" stroke="#272626" stroke-width="0.5" stroke-linecap="round" stroke-linejoin="round" transform="matrix(1.83262 -0.296878 0.300923 1.85759 444.279 115.291)" d="M1.0783e-07 -0.711224L-3.70687e-06 1.1102"></path>
    <path fill="#43346A" transform="matrix(1.64843 0.417573 -0.40107 1.65095 438.404 104.507)" d="M5.74338e-08 -1.92716C1.62851 -1.92716 2.94867 -1.06434 2.94867 4.39386e-08C2.94867 1.06434 1.62851 1.92716 -5.74338e-08 1.92716C-1.62851 1.92716 -2.94867 1.06434 -2.94867 -4.39386e-08C-2.94867 -1.06434 -1.62851 -1.92716 5.74338e-08 -1.92716Z"></path>
    <path fill="#43346A" transform="matrix(1.61937 0.410211 -0.390122 1.60588 448.99 103.68)" d="M-7.65769e-06 -1.89919C0.889981 -1.89919 1.61146 -1.04889 1.61146 -2.40127e-08C1.61146 1.04889 0.889981 1.89919 -7.60109e-06 1.89919C-0.889997 1.89919 -1.61148 1.04889 -1.61148 2.40127e-08C-1.61148 -1.04889 -0.889997 -1.89919 -7.65769e-06 -1.89919Z"></path>
  </g>
  <path fill="none" stroke="#161616" stroke-width="6" stroke-linejoin="round" transform="matrix(1.70248 0 0 1.70248 387.989 267.34)" d="M-13.5975 14.0345C-33.5053 -20.3428 21.4457 -52.1647 41.3535 -17.7875C49.8325 -3.14568 63.9771 21.2796 72.7643 36.4535C75.8517 41.7849 74.1581 55.8417 54.1824 67.7222C34.2067 79.6026 21.3695 74.4165 18.9631 70.2609C10.1244 54.998 -7.34017 24.8398 -13.5975 14.0345Z"></path>
  <path fill="none" stroke="#161616" stroke-width="6" stroke-linecap="round" stroke-linejoin="bevel" transform="matrix(1.70248 0 0 1.58041 387.989 181.982)" d="M40.4144 27.4771C42.418 35.1422 44.1451 41.749 45.0347 45.1522C55.8434 86.5006 -5.29 105.001 -16.0987 63.6529C-18.812 53.2733 -23.7997 34.1931 -26.9413 22.1748C-30.083 10.1565 -28.5437 -8.83946 -13.0659 -13.5346C-11.5466 -13.9955 -10.1413 -14.4218 -8.8358 -14.8178"></path>
  <path fill="#5E4E87" transform="matrix(1.70248 0 0 1.70248 387.989 267.34)" d="M-13.5975 14.0345C-34.3321 -21.7706 20.6189 -53.5925 41.3535 -17.7875C49.8325 -3.14569 63.9771 21.2796 72.7643 36.4535C75.8517 41.7849 74.1581 55.8417 54.1824 67.7222C34.2067 79.6026 21.3695 74.4165 18.9631 70.2609C10.1244 54.998 -7.34017 24.8398 -13.5975 14.0345Z"></path>
  <path fill="#5E4E87" transform="matrix(1.70248 0 0 1.58041 387.989 181.982)" d="M-26.9413 22.1748C-30.083 10.1565 -28.5437 -8.83946 -13.0659 -13.5346C2.41197 -18.2297 6.06 -19.3364 12.8598 -21.399C19.6596 -23.4617 27.5594 -21.6994 31.5103 -6.58516C35.4613 8.52909 42.827 36.7065 45.0347 45.1522C54.5422 81.5227 -6.59126 100.023 -16.0987 63.6529C-18.812 53.2732 -23.7997 34.1931 -26.9413 22.1748Z"></path>
  <path fill="none" stroke="#010101" stroke-width="7" stroke-linecap="round" stroke-miterlimit="4" transform="matrix(1.00146 0 0 1.00146 343 256)" d="M-66.7252 -30.2912C-11.5659 -30.2912 33.1495 -30.2206 33.1495 -30.1336C33.1495 -30.0466 -11.5659 -29.9761 -66.7252 -29.9761C-121.885 -29.9761 -166.6 -30.0466 -166.6 -30.1336C-166.6 -30.2206 -121.885 -30.2912 -66.7252 -30.2912Z"></path>
  <path fill="#8D5A3E" transform="matrix(1.20507 9.0505e-23 -1.42778e-25 0.00190108 276.177 225.822)" d="M-3.8147e-06 -82.999C45.8396 -82.999 83 -45.8387 83 0.000976562C83 45.8406 45.8396 83.001 -3.8147e-06 83.001C-45.8396 83.001 -83 45.8406 -83 0.000976562C-83 -45.8387 -45.8396 -82.999 -3.8147e-06 -82.999Z"></path>
  <path fill="#65524C" transform="matrix(0.692913 5.20404e-23 -1.31735e-25 0.00175404 276.177 225.848)" d="M1.20178e-30 -97.498C45.8396 -97.498 83 -53.8458 83 0.00195312C83 53.8497 45.8396 97.502 -1.20178e-30 97.502C-45.8396 97.502 -83 53.8497 -83 0.00195312C-83 -53.8458 -45.8396 -97.498 1.20178e-30 -97.498Z"></path>
  <clipPath id="cl_13c">
    <path d="M276.177 225.677C307.94 225.677 333.689 225.754 333.689 225.848C333.689 225.942 307.94 226.019 276.177 226.019C244.414 226.019 218.666 225.942 218.666 225.848C218.666 225.754 244.414 225.677 276.177 225.677Z"></path>
  </clipPath>
  <g clip-path="url(#cl_13c)">
    <path fill="#281C18" transform="matrix(0.692913 5.20404e-23 -1.31735e-25 0.00175404 258.101 225.848)" d="M-7.62939e-06 -97.498C45.8396 -97.498 83 -53.8458 83 0.00195312C83 53.8497 45.8396 97.502 -7.62939e-06 97.502C-45.8396 97.502 -83 53.8497 -83 0.00195312C-83 -53.8458 -45.8396 -97.498 -7.62939e-06 -97.498Z"></path>
  </g>
  <path fill="none" stroke="#010101" stroke-width="7" stroke-linejoin="round" transform="matrix(1.00146 0 0 1.00146 343 256)" d="M-165.446 -30.1558C-165.459 -30.1563 -165.471 -30.1568 -165.482 -30.1573C-165.482 -30.1573 -208.55 -16.4957 -208.761 22.1924C-208.761 22.1924 -192.351 29.2936 -149.066 42.1476C-115.31 52.1717 -120.091 45.5257 -67.5966 48.2982C-45.0626 50.7618 -1.46146 42.005 -1.46146 42.005C-1.46146 42.005 -1.74165 33.4625 3.23124 33.4625C8.20412 33.4625 11.0767 42.005 11.0767 42.005C23.1126 42.005 33.8927 35.9134 42.9438 34.596C71.4652 30.4445 74.8881 22.1924 74.8881 22.1924C74.8881 -16.4957 31.6583 -30.1572 31.6583 -30.1572C18.223 -30.0521 -16.8162 -29.9761 -66.7252 -29.9759C-116.389 -29.9756 -162.807 -30.0513 -165.446 -30.1558"></path>
  <path fill="none" stroke="#010101" stroke-width="21" stroke-linecap="round" stroke-linejoin="round" transform="matrix(0.91934 6.90459e-23 -6.90459e-23 0.91934 126.325 278.225)" d="M8.27733 0C8.27733 0 26.1524 7.73552 73.3041 21.7377C110.075 32.6572 104.867 25.4176 162.051 28.4377C186.598 31.1214 234.093 21.5824 234.093 21.5824C234.093 21.5824 233.788 12.2769 239.205 12.2769C244.622 12.2769 247.752 21.5824 247.752 21.5824C260.863 21.5824 272.606 14.9466 282.465 13.5115C313.534 8.9893 317.263 0 317.263 0C317.263 -0.78948 317.246 -1.56939 317.214 -2.33982"></path>
  <path fill="none" stroke="white" stroke-width="14" stroke-linecap="round" stroke-linejoin="round" transform="matrix(0.91934 6.90459e-23 -6.90459e-23 0.91934 126.325 278.225)" d="M8.27733 0C8.27733 0 26.1524 7.73552 73.3041 21.7377C110.075 32.6572 104.867 25.4176 162.051 28.4377C186.598 31.1214 234.093 21.5824 234.093 21.5824C234.093 21.5824 233.788 12.2769 239.205 12.2769C244.622 12.2769 247.752 21.5824 247.752 21.5824C260.863 21.5824 272.606 14.9466 282.465 13.5115C313.534 8.9893 317.263 0 317.263 0C317.263 -0.168567 317.262 -0.336697 317.261 -0.504392"></path>
  <path fill="#8D5A3E" transform="matrix(0.91934 6.90459e-23 -6.90459e-23 0.91934 126.325 278.225)" d="M8.27733 0C8.27733 0 28.6505 6.97293 72.0222 20.0838C95.5232 27.188 124.361 26.4472 162.051 28.4377C186.598 31.1214 234.093 21.5824 234.093 21.5824C234.093 21.5824 234.776 13.5868 238.41 13.5868C242.043 13.5868 247.752 21.5824 247.752 21.5824C260.529 21.5824 277.837 13.8723 286.934 12.7945C317.391 9.18615 317.263 0 317.263 0C317.263 -42.1439 270.172 -57.0257 270.172 -57.0257C255.536 -56.9111 217.367 -56.8284 163 -56.8281C108.633 -56.8279 57.8352 -56.9111 55.4223 -57.0258C55.4223 -57.0258 8.50729 -42.1439 8.27733 0Z"></path>
  <clipPath id="cl_13d">
    <path d="M133.935 278.225C133.935 278.225 152.664 284.635 192.538 296.689C214.143 303.22 240.655 302.539 275.305 304.369C297.872 306.836 341.536 298.066 341.536 298.066C341.536 298.066 342.164 290.716 345.505 290.716C348.845 290.716 354.093 298.066 354.093 298.066C365.84 298.066 381.751 290.978 390.115 289.987C418.115 286.67 417.997 278.225 417.997 278.225C417.997 239.48 374.705 225.799 374.705 225.799C361.25 225.904 326.159 225.98 276.177 225.98C226.195 225.981 179.495 225.904 177.277 225.799C177.277 225.799 134.146 239.48 133.935 278.225Z"></path>
  </clipPath>
  <g clip-path="url(#cl_13d)">
    <path fill="#7F4728" transform="matrix(2.47275 -0.0817371 0.117134 3.54359 223.775 277.765)" d="M-14.8742 -9.69253L16.7537 -6.3603L15.092 9.39556L-21.0084 4.35254L-14.8742 -9.69253Z"></path>
  </g>
  <path fill="none" stroke="#612F13" stroke-width="1" stroke-linecap="round" stroke-linejoin="round" transform="matrix(0.0618651 -1.47647 1.47647 0.0618651 234.126 253.51)" d="M1.02357 0.373772L4.21644 0.641895"></path>
  <path fill="none" stroke="#612F13" stroke-width="1" stroke-linecap="round" stroke-linejoin="round" transform="matrix(0.0618651 -1.47647 1.47647 0.0618651 222.634 253.05)" d="M1.02357 0.373764L4.21644 0.641888"></path>
  <clipPath id="cl_13e">
    <path d="M133.935 278.225C133.935 278.225 152.664 284.635 192.538 296.689C214.143 303.22 240.655 302.539 275.305 304.369C297.872 306.836 341.536 298.066 341.536 298.066C341.536 298.066 342.164 290.716 345.505 290.716C348.845 290.716 354.093 298.066 354.093 298.066C365.84 298.066 381.751 290.978 390.115 289.987C418.115 286.67 417.997 278.225 417.997 278.225C417.997 239.48 374.705 225.799 374.705 225.799C361.25 225.904 326.159 225.98 276.177 225.98C226.195 225.981 179.495 225.904 177.277 225.799C177.277 225.799 134.146 239.48 133.935 278.225Z"></path>
  </clipPath>
  <g clip-path="url(#cl_13e)">
    <clipPath id="cl_13f">
      <path d="M133.935 278.225C133.935 278.225 152.664 284.635 192.538 296.689C214.143 303.22 240.655 302.539 275.305 304.369C297.872 306.836 341.536 298.066 341.536 298.066C341.536 298.066 342.164 290.716 345.505 290.716C348.845 290.716 354.093 298.066 354.093 298.066C365.84 298.066 381.751 290.978 390.115 289.987C418.115 286.67 417.997 278.225 417.997 278.225C417.997 239.48 374.705 225.799 374.705 225.799C361.25 225.904 326.159 225.98 276.177 225.98C226.195 225.981 179.495 225.904 177.277 225.799C177.277 225.799 134.146 239.48 133.935 278.225Z"></path>
    </clipPath>
    <g clip-path="url(#cl_13f)">
      <path fill="#7F4728" transform="matrix(0.91934 6.90459e-23 -6.90459e-23 0.91934 398.909 255.471)" d="M3.8147e-06 -32.5C25.6812 -32.5 46.5 -17.8373 46.5 0.25C46.5 18.3373 25.6812 33 3.8147e-06 33C-25.6812 33 -46.5 18.3373 -46.5 0.25C-46.5 -17.8373 -25.6812 -32.5 3.8147e-06 -32.5Z"></path>
    </g>
    <path fill="none" stroke="#612F13" stroke-width="1" stroke-linecap="round" stroke-linejoin="round" transform="matrix(-1.35113 0.598538 -0.598538 -1.35113 360.297 259.838)" d="M1.02357 0.373772L4.21644 0.641896"></path>
    <path fill="none" stroke="#612F13" stroke-width="1" stroke-linecap="round" stroke-linejoin="round" transform="matrix(-0.766963 1.26316 -1.26316 -0.766963 374.547 275.467)" d="M1.02357 0.373772L4.21644 0.641895"></path>
    <path fill="none" stroke="#612F13" stroke-width="1" stroke-linecap="round" stroke-linejoin="round" transform="matrix(-1.47709 -0.0446689 0.0446689 -1.47709 360.757 250.645)" d="M1.02357 0.373772L4.21644 0.641896"></path>
  </g>
</svg>