<?xml version="1.0" encoding="utf-8"?>
<svg xmlns="http://www.w3.org/2000/svg" xmlns:xlink="http://www.w3.org/1999/xlink" width="686" height="512">
  <path fill="none" stroke="black" stroke-width="6" stroke-linejoin="round" transform="matrix(1.70248 0 0 1.44029 567.099 179.773)" d="M-12.9438 -16.9737C-9.2896 -16.9737 -6.63603 -16.9737 -3.2142 -16.9737C3.85004 -16.9737 11.0107 -12.9707 11.0107 2.73135C11.0107 18.4334 11.0107 47.7067 11.0107 56.4808C11.0107 99.4374 -52.4893 99.3952 -52.4893 56.4387C-52.4893 45.6553 -52.4893 25.833 -52.4893 13.3474C-52.4893 0.861706 -46.228 -16.9737 -30.1482 -16.9737C-28.9445 -16.9737 -27.8096 -16.9737 -26.7371 -16.9737"></path>
  <path fill="none" stroke="black" stroke-width="6" stroke-linejoin="round" transform="matrix(1.70248 0 0 1.55154 567.099 257.563)" d="M-52.4886 0.0848538C-52.623 -42.5374 10.8768 -42.7376 11.0112 -0.115283C11.0645 16.8043 11.1535 45.0294 11.2088 62.564C11.2282 68.7248 2.75394 80.0671 -20.4852 80.4108C-43.7244 80.7546 -52.2687 69.8604 -52.2838 65.0584C-52.3394 47.4211 -52.4493 12.5712 -52.4886 0.0848538Z"></path>
  <path fill="#503F7E" transform="matrix(1.70248 0 0 1.44029 567.099 179.773)" d="M-52.4893 13.3474C-52.4893 0.861706 -46.228 -16.9737 -30.1482 -16.9737C-14.0684 -16.9737 -10.2784 -16.9737 -3.2142 -16.9737C3.85004 -16.9737 11.0107 -12.9707 11.0107 2.73135C11.0107 18.4334 11.0107 47.7067 11.0107 56.4809C11.0107 99.4374 -52.4893 99.3952 -52.4893 56.4387C-52.4893 45.6553 -52.4893 25.833 -52.4893 13.3474Z"></path>
  <path fill="#503F7E" transform="matrix(1.70248 0 0 1.55154 567.099 257.563)" d="M-52.4886 0.0848526C-52.623 -42.5375 10.8768 -42.7376 11.0112 -0.115284C11.0645 16.8043 11.1535 45.0294 11.2088 62.564C11.2282 68.7248 2.75394 80.0671 -20.4852 80.4108C-43.7244 80.7546 -52.2687 69.8604 -52.2838 65.0584C-52.3394 47.4211 -52.4493 12.5711 -52.4886 0.0848526Z"></path>
  <path fill="none" stroke="black" stroke-width="5" stroke-linejoin="round" transform="matrix(1.58884 0 0 1.70248 482.401 356.274)" d="M3.2486 -15.6843C21.4654 -15.1617 34.2677 -10.6205 32.7075 36.7461C32.6825 50.8532 36.3525 66.1191 21.075 74.6392C9.51464 74.2177 -3.42916 74.6557 -19.8776 73.9225C-30.4244 64.7914 -30.4432 50.8531 -30.4432 34.0309C-29.5285 -12.4507 -14.9682 -16.207 3.2486 -15.6843Z"></path>
  <path fill="#453279" transform="matrix(1.58884 0 0 1.70248 482.401 356.274)" d="M3.2486 -15.6843C21.4654 -15.1617 34.2677 -10.6205 32.7075 36.7461C32.6825 50.8532 36.3525 66.1191 21.075 74.6392C9.51464 74.2177 -3.42916 74.6557 -19.8776 73.9225C-30.4244 64.7914 -30.4432 50.8531 -30.4432 34.0309C-29.5285 -12.4507 -14.9682 -16.207 3.2486 -15.6843Z"></path>
  <path fill="none" stroke="black" stroke-width="5" stroke-linejoin="round" transform="matrix(1.58884 0 0 1.70248 408.748 362.548)" d="M-0.0200195 -14.3434C18.2054 -14.3653 31.226 -10.1701 31.2229 37.2187C31.837 56.0952 34.5794 69.0808 19.0958 75.6705C3.62161 76.0217 -7.06572 76.2142 -21.9017 75.8544C-36.7283 69.2561 -32.12 52.8085 -31.9872 36.3121C-32.6002 -10.1738 -18.2454 -14.3214 -0.0200195 -14.3434Z"></path>
  <path fill="none" stroke="black" stroke-width="5" stroke-linejoin="round" transform="matrix(1.70226 0.0261988 -0.0277736 1.60574 487.3 283.869)" d="M-11.3238 -80.2543C25.8014 -80.2543 54.9476 -94.6926 58.9092 -40.8672C62.8708 12.9582 37.0524 74.7499 0.0572919 75.3534C-14.1177 75.5847 -17.7665 75.6442 -48.2096 76.1409C-78.6526 76.6376 -84.25 60.12 -84.25 0C-86.6294 -86.0849 -88.6034 -78.4854 -12.7475 -80.2208"></path>
  <path fill="#503F7E" transform="matrix(1.58884 0 0 1.70248 408.748 362.548)" d="M-0.0200195 -14.3434C18.2054 -14.3653 31.226 -10.1701 31.2229 37.2187C31.837 56.0952 34.5794 69.0808 19.0958 75.6705C3.62161 76.0217 -7.06572 76.2142 -21.9017 75.8544C-36.7283 69.2561 -32.12 52.8085 -31.9872 36.3121C-32.6002 -10.1738 -18.2454 -14.3214 -0.0200195 -14.3434Z"></path>
  <path fill="none" stroke="black" stroke-width="5" stroke-linejoin="round" transform="matrix(1.44842 1.48659e-24 -1.35259e-24 1.31786 439.903 138.15)" d="M0 -40C20.9426 -40 35.0096 -26.8589 47.8597 -2.20018C49.1253 -3.81499 50.3123 -3.57653 51.1974 -3.11682C52.0824 -2.65711 52.5509 -1.60562 52.2206 -0.665342C53.8523 0.0631991 55.2854 1.47333 55.8775 2.67698C56.9197 4.79566 57.6743 10.5072 53.7931 11.8212C58.5977 31.9882 20.3682 22.0914 -1.32962e-05 22.0914C-20.2357 22.0914 -45.0732 28.3281 -41.8836 12.9784C-44.6787 11.8212 -48.2008 8.95144 -46.5316 4.29175C-45.7036 1.98006 -43.8185 0.567089 -42.3936 0.566997C-41.0392 0.56691 -42.9934 -2.2 -40.2188 -3.81491C-39.0195 -4.51291 -37.7273 -4.43211 -36.6068 -4.12355C-28.0141 -23.7311 -20.4124 -40 0 -40Z"></path>
  <path fill="#503F7E" transform="matrix(1.70226 0.0261988 -0.0277736 1.60574 487.3 283.869)" d="M-11.3238 -80.2543C25.8014 -80.2543 54.9476 -94.6926 58.9092 -40.8672C62.8708 12.9582 37.0524 74.7499 0.0572919 75.3534C-14.1177 75.5847 -17.7665 75.6442 -48.2096 76.1409C-78.6526 76.6376 -84.25 60.12 -84.25 0C-86.6442 -86.62 -88.6279 -78.3873 -11.3238 -80.2543Z"></path>
  <clipPath id="cl_143">
    <path d="M470.253 154.705C533.45 155.677 583.465 133.257 588.714 219.79C593.962 306.323 548.297 404.868 485.305 404.868C461.169 404.868 454.956 404.868 403.12 404.868C351.285 404.868 342.215 378.198 343.885 281.661C342.215 142.51 338.61 155.677 470.253 154.705Z"></path>
  </clipPath>
  <g clip-path="url(#cl_143)">
    <path fill="#655494" transform="matrix(1.70248 0 0 1.70248 522.414 266.919)" d="M-0.158638 -48.2656C25.513 -48.2656 46.324 -26.6563 46.324 4.76837e-07C46.324 26.6563 25.513 48.2656 -0.158638 48.2656C-25.8303 48.2656 -46.6413 26.6563 -46.6413 4.76837e-07C-46.6413 -26.6563 -25.8303 -48.2656 -0.158638 -48.2656Z"></path>
  </g>
  <path fill="none" stroke="black" stroke-width="2" stroke-linejoin="round" transform="matrix(3.67759 -0.721864 0.653943 3.33157 446.334 64.1411)" d="M-4.34758 -5.25471C-4.34758 -11.5047 3.66088 -11.5047 3.66088 -5.25472C3.66088 0.995283 3.66088 12.5 3.66088 12.5L-4.57314 12.5C-4.57314 12.5 -4.34758 0.995284 -4.34758 -5.25471Z"></path>
  <path fill="none" stroke="black" stroke-width="2" stroke-linejoin="round" transform="matrix(3.33157 -0.653943 0.653943 3.33157 413.979 69.2607)" d="M-5.1645 -6.50117C-5.16451 -12.7512 6 -12.7512 6 -6.50117C6 -0.25117 6 12.5 6 12.5L-6 12.5C-6 12.5 -5.1645 -0.251171 -5.1645 -6.50117Z"></path>
  <path fill="#453279" transform="matrix(3.67759 -0.721864 0.653943 3.33157 446.334 64.1411)" d="M-4.34758 -5.25471C-4.34758 -11.5047 3.66088 -11.5047 3.66088 -5.25472C3.66088 0.995283 3.66088 12.5 3.66088 12.5L-4.57314 12.5C-4.57314 12.5 -4.34758 0.995284 -4.34758 -5.25471Z"></path>
  <path fill="none" stroke="#161616" stroke-width="0.5" stroke-linecap="round" stroke-linejoin="round" transform="matrix(3.67759 -0.721864 0.653943 3.33157 441.8 45.6676)" d="M4.54547e-06 1.51651L3.83069e-06 10.5382"></path>
  <path fill="#503F7E" transform="matrix(3.33157 -0.653943 0.653943 3.33157 413.979 69.2607)" d="M-5.1645 -6.50117C-5.16451 -12.7512 6 -12.7512 6 -6.50117C6 -0.251166 6 12.5 6 12.5L-6 12.5C-6 12.5 -5.1645 -0.251167 -5.1645 -6.50117Z"></path>
  <path fill="none" stroke="#161616" stroke-width="0.5" stroke-linecap="round" stroke-linejoin="round" transform="matrix(3.33157 -0.653943 0.653943 3.33157 414.182 50.3267)" d="M3.83324e-06 2.6499e-08L7.64793e-06 10.5382"></path>
  <path fill="#503F7E" transform="matrix(1.44842 0 0 1.31786 439.903 138.15)" d="M0 -40C20.9426 -40 35.0096 -26.8589 47.8597 -2.20018C49.1253 -3.81499 50.3123 -3.57653 51.1974 -3.11682C52.0824 -2.65711 52.5509 -1.60562 52.2206 -0.665342C53.8523 0.0631991 55.2854 1.47333 55.8775 2.67698C56.9197 4.79566 57.6743 10.5072 53.7931 11.8212C58.5977 31.9882 20.3682 22.0914 -1.32962e-05 22.0914C-20.2357 22.0914 -45.0732 28.3281 -41.8836 12.9784C-44.6787 11.8212 -48.2008 8.95144 -46.5316 4.29175C-45.7036 1.98006 -43.8185 0.567089 -42.3936 0.566997C-41.0392 0.56691 -42.9934 -2.2 -40.2188 -3.81491C-39.0195 -4.51291 -37.7273 -4.43211 -36.6068 -4.12355C-28.0141 -23.7311 -20.4124 -40 0 -40Z"></path>
  <clipPath id="cl_144">
    <path d="M439.903 85.4358C470.236 85.4358 490.611 102.754 509.224 135.251C511.057 133.122 512.776 133.437 514.058 134.043C515.34 134.648 516.018 136.034 515.54 137.273C517.903 138.233 519.979 140.092 520.837 141.678C522.346 144.47 523.439 151.997 517.818 153.729C524.777 180.306 469.404 167.263 439.903 167.263C410.593 167.263 374.618 175.482 379.238 155.254C375.189 153.729 370.088 149.947 372.505 143.806C373.705 140.76 376.435 138.897 378.499 138.897C380.461 138.897 377.63 135.251 381.649 133.123C383.386 132.203 385.258 132.309 386.881 132.716C399.326 106.876 410.337 85.4358 439.903 85.4358Z"></path>
  </clipPath>
  <g clip-path="url(#cl_144)">
    <path fill="#7463A5" transform="matrix(1.70248 0 0.00718207 1.70248 423.8 123.828)" d="M-2.67755e-09 -5.5C3.86599 -5.5 7 -2.92564 7 0.25C7 3.42564 3.86599 6 2.67755e-09 6C-3.86599 6 -7 3.42564 -7 0.25C-7 -2.92564 -3.86599 -5.5 -2.67755e-09 -5.5Z"></path>
    <path fill="#7463A5" transform="matrix(1.7367 0 0.00718207 1.70248 473.501 116.123)" d="M-7.62695e-06 -5C2.76142 -5 4.99999 -2.6495 4.99999 0.25C4.99999 3.1495 2.76142 5.5 -7.63184e-06 5.5C-2.76143 5.5 -5.00001 3.1495 -5.00001 0.25C-5.00001 -2.6495 -2.76143 -5 -7.62695e-06 -5Z"></path>
    <path fill="none" stroke="#131212" stroke-width="1" stroke-linecap="round" stroke-linejoin="round" transform="matrix(2.182 -0.353477 0.259285 1.60056 452.912 109.79)" d="M-3.32645e-06 -4.14104e-07L2.92891 -0.714567"></path>
    <path fill="none" stroke="#131212" stroke-width="1" stroke-linecap="round" stroke-linejoin="round" transform="matrix(2.182 -0.353477 0.259285 1.60056 432.34 109.005)" d="M0 -1.48459e-07L4.25731 1.79213"></path>
    <path fill="#131212" transform="matrix(2.33716 -0.378612 0.383771 2.36901 445.378 111.947)" d="M3.3151e-06 -4.03018e-06L1.96141 0.352734L0.915093 1.42246L3.3151e-06 -4.03018e-06Z"></path>
    <path fill="none" stroke="#131212" stroke-width="0.5" stroke-linecap="round" stroke-linejoin="round" transform="matrix(1.83262 -0.296878 0.300923 1.85759 448.272 115.291)" d="M1.0783e-07 -0.711224L-3.70687e-06 1.1102"></path>
    <path fill="#32225E" transform="matrix(1.64843 0.417573 -0.40107 1.65095 442.396 104.507)" d="M5.74338e-08 -1.92715C1.62851 -1.92715 2.94867 -1.06433 2.94867 7.67333e-06C2.94867 1.06435 1.62851 1.92716 -5.74338e-08 1.92716C-1.62851 1.92716 -2.94867 1.06435 -2.94867 7.58546e-06C-2.94867 -1.06433 -1.62851 -1.92715 5.74338e-08 -1.92715Z"></path>
    <path fill="#32225E" transform="matrix(1.61937 0.410211 -0.390122 1.60588 452.983 103.68)" d="M-7.65769e-06 -1.89918C0.889981 -1.89918 1.61146 -1.04889 1.61146 7.60538e-06C1.61146 1.0489 0.889981 1.8992 -7.60109e-06 1.8992C-0.889997 1.8992 -1.61148 1.0489 -1.61148 7.65341e-06C-1.61148 -1.04889 -0.889997 -1.89918 -7.65769e-06 -1.89918Z"></path>
  </g>
  <path fill="none" stroke="black" stroke-width="6" stroke-linejoin="round" transform="matrix(1.70248 0 0 1.70248 388.529 267.34)" d="M-15.6193 13.6373C-34.5106 -21.3089 21.3497 -51.5061 40.2411 -16.56C48.2872 -1.67587 61.7096 23.1536 70.0482 38.5787C72.9779 43.9983 70.8729 57.9993 50.5575 69.289C30.242 80.5788 17.5625 75.0185 15.2789 70.7942C6.89145 55.2787 -9.68142 24.6214 -15.6193 13.6373Z"></path>
  <path fill="none" stroke="black" stroke-width="6" stroke-linecap="round" stroke-linejoin="bevel" transform="matrix(1.70248 0 0 1.58041 388.529 181.982)" d="M39.5755 28.8912C41.3453 36.6097 42.8703 43.261 43.6563 46.689C53.2181 88.3924 -8.43875 104.754 -18.0006 63.0505C-20.4009 52.5817 -24.8131 33.3378 -27.5924 21.2164C-30.3716 9.09496 -28.2629 -9.83751 -12.6522 -13.991C-11.0977 -14.4046 -9.66153 -14.7867 -8.32873 -15.1414"></path>
  <path fill="#503F7E" transform="matrix(1.70248 0 0 1.70248 388.529 267.34)" d="M-15.6193 13.6373C-35.2952 -22.7603 20.5651 -52.9575 40.2411 -16.56C48.2872 -1.67587 61.7096 23.1536 70.0482 38.5787C72.9779 43.9983 70.8729 57.9993 50.5575 69.289C30.242 80.5788 17.5625 75.0185 15.2789 70.7942C6.89145 55.2787 -9.68142 24.6214 -15.6193 13.6373Z"></path>
  <path fill="#503F7E" transform="matrix(1.70248 0 0 1.58041 388.529 181.982)" d="M-27.5924 21.2164C-30.3716 9.09495 -28.2629 -9.83751 -12.6522 -13.991C2.95847 -18.1445 6.63782 -19.1235 13.496 -20.9482C20.3541 -22.773 28.1969 -20.7364 31.692 -5.49237C35.1872 9.7516 41.7032 38.1709 43.6563 46.689C52.0669 83.3717 -9.58988 99.7332 -18.0005 63.0505C-20.4009 52.5817 -24.8131 33.3378 -27.5924 21.2164Z"></path>
  <path fill="none" stroke="#010101" stroke-width="7" stroke-linecap="round" stroke-miterlimit="4" transform="matrix(1.00146 0 0 1.00146 343 256)" d="M-72.0513 -7.59623C-16.892 -7.59623 27.8234 -7.52569 27.8234 -7.43867C27.8234 -7.35165 -16.892 -7.28111 -72.0513 -7.28111C-127.211 -7.28111 -171.926 -7.35165 -171.926 -7.43867C-171.926 -7.52569 -127.211 -7.59623 -72.0513 -7.59623Z"></path>
  <path fill="#8D5A3E" transform="matrix(1.20507 9.0505e-23 -1.42778e-25 0.00190108 270.844 248.55)" d="M1.02305e-30 -82.9998C45.8396 -82.9998 83 -45.8394 83 0.000244141C83 45.8399 45.8396 83.0002 -1.02305e-30 83.0002C-45.8396 83.0002 -83 45.8399 -83 0.000244141C-83 -45.8394 -45.8396 -82.9998 1.02305e-30 -82.9998Z"></path>
  <path fill="#65524C" transform="matrix(0.692913 5.20404e-23 -1.31735e-25 0.00175404 270.844 248.576)" d="M-7.62939e-06 -97.5C45.8396 -97.5 83 -53.8478 83 -2.68187e-25C83 53.8478 45.8396 97.5 -7.62939e-06 97.5C-45.8396 97.5 -83 53.8478 -83 2.68187e-25C-83 -53.8478 -45.8396 -97.5 -7.62939e-06 -97.5Z"></path>
  <clipPath id="cl_14c">
    <path d="M270.844 248.405C302.606 248.405 328.355 248.482 328.355 248.576C328.355 248.671 302.606 248.747 270.844 248.747C239.081 248.747 213.332 248.671 213.332 248.576C213.332 248.482 239.081 248.405 270.844 248.405Z"></path>
  </clipPath>
  <g clip-path="url(#cl_14c)">
    <path fill="#281C18" transform="matrix(0.692913 5.20404e-23 -1.31735e-25 0.00175404 252.768 248.576)" d="M-1.52588e-05 -97.5C45.8396 -97.5 83 -53.8478 83 -2.68187e-25C83 53.8478 45.8396 97.5 -1.52588e-05 97.5C-45.8397 97.5 -83 53.8478 -83 2.68187e-25C-83 -53.8478 -45.8397 -97.5 -1.52588e-05 -97.5Z"></path>
  </g>
  <path fill="none" stroke="#010101" stroke-width="7" stroke-linejoin="round" transform="matrix(1.00146 0 0 1.00146 343 256)" d="M-170.772 -7.46079C-170.785 -7.4613 -170.797 -7.46182 -170.808 -7.46234C-170.808 -7.46234 -213.876 6.19923 -214.087 44.8873C-214.087 44.8873 -197.677 51.9885 -154.392 64.8426C-120.636 74.8667 -125.417 68.2207 -72.9227 70.9932C-50.3887 73.4568 -6.78754 64.7 -6.78754 64.7C-6.78754 64.7 -7.06773 56.1575 -2.09484 56.1575C2.87804 56.1575 5.75063 64.7 5.75063 64.7C17.7865 64.7 28.5666 58.6083 37.6177 57.2909C66.1391 53.1395 69.562 44.8873 69.562 44.8873C69.562 6.19923 26.3323 -7.46223 26.3323 -7.46223C12.8969 -7.3571 -22.1423 -7.28111 -72.0513 -7.28089C-121.715 -7.28067 -168.133 -7.35635 -170.772 -7.46079"></path>
  <path fill="none" stroke="#010101" stroke-width="21" stroke-linecap="round" stroke-linejoin="round" transform="matrix(0.91934 6.90459e-23 -6.90459e-23 0.91934 120.991 300.953)" d="M8.27731 3.8147e-06C8.27731 3.8147e-06 26.1524 7.73552 73.3041 21.7377C110.075 32.6572 104.867 25.4176 162.051 28.4377C186.598 31.1214 234.093 21.5824 234.093 21.5824C234.093 21.5824 233.788 12.2769 239.205 12.2769C244.622 12.2769 247.752 21.5824 247.752 21.5824C260.863 21.5824 272.606 14.9466 282.465 13.5115C313.534 8.9893 317.263 3.8147e-06 317.263 3.8147e-06C317.263 -0.789498 317.246 -1.56943 317.214 -2.33988"></path>
  <path fill="none" stroke="white" stroke-width="14" stroke-linecap="round" stroke-linejoin="round" transform="matrix(0.91934 6.90459e-23 -6.90459e-23 0.91934 120.991 300.953)" d="M8.27731 3.8147e-06C8.27731 3.8147e-06 26.1524 7.73552 73.3041 21.7377C110.075 32.6572 104.867 25.4176 162.051 28.4377C186.598 31.1214 234.093 21.5824 234.093 21.5824C234.093 21.5824 233.788 12.2769 239.205 12.2769C244.622 12.2769 247.752 21.5824 247.752 21.5824C260.863 21.5824 272.606 14.9466 282.465 13.5115C313.534 8.9893 317.263 3.8147e-06 317.263 3.8147e-06C317.263 -0.168584 317.262 -0.336736 317.261 -0.504453"></path>
  <path fill="#8D5A3E" transform="matrix(0.91934 6.90459e-23 -6.90459e-23 0.91934 120.991 300.953)" d="M8.27731 3.8147e-06C8.27731 3.8147e-06 28.6505 6.97293 72.0222 20.0838C95.5232 27.188 124.361 26.4472 162.051 28.4377C186.598 31.1214 234.093 21.5824 234.093 21.5824C234.093 21.5824 234.776 13.5868 238.41 13.5868C242.043 13.5868 247.752 21.5824 247.752 21.5824C260.529 21.5824 277.837 13.8723 286.934 12.7945C317.391 9.18615 317.263 3.8147e-06 317.263 3.8147e-06C317.263 -42.1439 270.172 -57.0257 270.172 -57.0257C255.536 -56.9111 217.367 -56.8284 163 -56.8281C108.633 -56.8279 57.8352 -56.9111 55.4223 -57.0258C55.4223 -57.0258 8.50728 -42.1439 8.27731 3.8147e-06Z"></path>
  <clipPath id="cl_14d">
    <path d="M128.601 300.953C128.601 300.953 147.331 307.363 187.204 319.417C208.809 325.948 235.321 325.267 269.971 327.097C292.538 329.564 336.203 320.794 336.203 320.794C336.203 320.794 336.83 313.444 340.171 313.444C343.511 313.444 348.759 320.794 348.759 320.794C360.506 320.794 376.418 313.706 384.781 312.715C412.781 309.398 412.664 300.953 412.664 300.953C412.664 262.208 369.371 248.527 369.371 248.527C355.916 248.632 320.825 248.708 270.844 248.708C220.862 248.709 174.161 248.632 171.943 248.527C171.943 248.527 128.812 262.208 128.601 300.953Z"></path>
  </clipPath>
  <g clip-path="url(#cl_14d)">
    <path fill="#7F4728" transform="matrix(2.47275 -0.0817371 0.117134 3.54359 218.441 300.493)" d="M-14.8742 -9.69254L16.7537 -6.36031L15.092 9.39556L-21.0084 4.35254L-14.8742 -9.69254Z"></path>
  </g>
  <path fill="none" stroke="#612F13" stroke-width="1" stroke-linecap="round" stroke-linejoin="round" transform="matrix(0.0618651 -1.47647 1.47647 0.0618651 228.792 276.238)" d="M1.02357 0.373772L4.21644 0.641895"></path>
  <path fill="none" stroke="#612F13" stroke-width="1" stroke-linecap="round" stroke-linejoin="round" transform="matrix(0.0618651 -1.47647 1.47647 0.0618651 217.3 275.778)" d="M1.02357 0.373772L4.21644 0.641895"></path>
  <clipPath id="cl_14e">
    <path d="M128.601 300.953C128.601 300.953 147.331 307.363 187.204 319.417C208.809 325.948 235.321 325.267 269.971 327.097C292.538 329.564 336.203 320.794 336.203 320.794C336.203 320.794 336.83 313.444 340.171 313.444C343.511 313.444 348.759 320.794 348.759 320.794C360.506 320.794 376.418 313.706 384.781 312.715C412.781 309.398 412.664 300.953 412.664 300.953C412.664 262.208 369.371 248.527 369.371 248.527C355.916 248.632 320.825 248.708 270.844 248.708C220.862 248.709 174.161 248.632 171.943 248.527C171.943 248.527 128.812 262.208 128.601 300.953Z"></path>
  </clipPath>
  <g clip-path="url(#cl_14e)">
    <clipPath id="cl_14f">
      <path d="M128.601 300.953C128.601 300.953 147.331 307.363 187.204 319.417C208.809 325.948 235.321 325.267 269.971 327.097C292.538 329.564 336.203 320.794 336.203 320.794C336.203 320.794 336.83 313.444 340.171 313.444C343.511 313.444 348.759 320.794 348.759 320.794C360.506 320.794 376.418 313.706 384.781 312.715C412.781 309.398 412.664 300.953 412.664 300.953C412.664 262.208 369.371 248.527 369.371 248.527C355.916 248.632 320.825 248.708 270.844 248.708C220.862 248.709 174.161 248.632 171.943 248.527C171.943 248.527 128.812 262.208 128.601 300.953Z"></path>
    </clipPath>
    <g clip-path="url(#cl_14f)">
      <path fill="#7F4728" transform="matrix(0.91934 6.90459e-23 -6.90459e-23 0.91934 393.575 278.199)" d="M3.8147e-06 -32.5C25.6812 -32.5 46.5 -17.8373 46.5 0.25C46.5 18.3373 25.6812 33 3.8147e-06 33C-25.6812 33 -46.5 18.3373 -46.5 0.25C-46.5 -17.8373 -25.6812 -32.5 3.8147e-06 -32.5Z"></path>
    </g>
    <path fill="none" stroke="#612F13" stroke-width="1" stroke-linecap="round" stroke-linejoin="round" transform="matrix(-1.35113 0.598538 -0.598538 -1.35113 354.963 282.566)" d="M1.02357 0.373772L4.21644 0.641895"></path>
    <path fill="none" stroke="#612F13" stroke-width="1" stroke-linecap="round" stroke-linejoin="round" transform="matrix(-0.766963 1.26316 -1.26316 -0.766963 369.213 298.195)" d="M1.02357 0.373772L4.21644 0.641895"></path>
    <path fill="none" stroke="#612F13" stroke-width="1" stroke-linecap="round" stroke-linejoin="round" transform="matrix(-1.47709 -0.0446689 0.0446689 -1.47709 355.423 273.373)" d="M1.02357 0.373772L4.21644 0.641895"></path>
  </g>
</svg>