<?xml version="1.0" encoding="utf-8"?>
<svg xmlns="http://www.w3.org/2000/svg" xmlns:xlink="http://www.w3.org/1999/xlink" width="686" height="512">
  <path fill="none" stroke="black" stroke-width="7" stroke-linejoin="round" transform="matrix(1.75255 0 0 1.75255 381.567 414.526)" d="M-1.39429 -46.245C16.6329 -48.9254 30.1908 -43.6055 37.0206 0.154182C41.9309 28.7532 36.262 39.8085 25.8352 41.2084C15.4085 42.6082 6.8946 44.0765 -3.29562 45.7914C-13.6423 47.3495 -20.7185 37.2019 -25.6305 8.59C-33.0924 -37.3039 -19.4215 -43.5645 -1.39429 -46.245Z"></path>
  <path fill="none" stroke="black" stroke-width="7" stroke-linejoin="round" transform="matrix(-2.09669 -3.16894e-07 -3.14293e-07 2.07948 522.941 281.944)" d="M18.4249 -58.663C21.7945 -54.1681 27.9211 -39.0213 27.8783 -35.094C27.8355 -31.1666 32.2355 -22.2521 30.9557 2.08302C29.7398 30.9469 25.3066 54.0363 0.0424194 53.1161C-15.8146 52.4371 -27.2875 28.5047 -26.0716 -0.359159C-24.5472 -36.5461 1.14601 -64.9291 18.4249 -58.663Z"></path>
  <path fill="none" stroke="black" stroke-width="7" stroke-linejoin="round" transform="matrix(1.75232 0.0285905 -0.0285905 1.75232 435.601 283.079)" d="M0.209621 -80.0966C37.3348 -80.0966 84.5 -60 84.5 -9.53674e-07C84.5 41.1452 46.7396 76.2788 0.209621 76.2788C-62.1658 76.2788 -84 60.12 -84 -9.53674e-07C-84 -71.2881 -50.5087 -80.0966 0.209621 -80.0966Z"></path>
  <path fill="none" stroke="black" stroke-width="7" stroke-linejoin="round" transform="matrix(1.49621 0 0 1.75255 477.081 403.135)" d="M-2.95631 -47.8343C15.0102 -50.4478 31.5238 -45.8416 41.0895 3.05576C44.1929 16.6555 42.6691 40.9225 29.1507 42.7024C15.6323 44.4822 9.56836 45.2805 -2.49111 46.8683C-14.5506 48.4561 -20.8695 26.1198 -23.9729 12.5201C-34.276 -38.4923 -20.9228 -45.2208 -2.95631 -47.8343Z"></path>
  <path fill="#6C88D9" transform="matrix(-2.09669 -3.16894e-07 -3.14293e-07 2.07948 522.941 281.944)" d="M18.4249 -58.663C21.7945 -54.1681 27.9211 -39.0213 27.8783 -35.094C27.8355 -31.1666 32.2355 -22.2521 30.9557 2.08302C29.7398 30.9469 25.3067 54.0363 0.0424271 53.1161C-15.8146 52.4371 -27.2875 28.5047 -26.0716 -0.359159C-24.5472 -36.5461 1.14602 -64.9291 18.4249 -58.663Z"></path>
  <path fill="#5170C8" transform="matrix(1.49621 0 0 1.75255 477.081 403.135)" d="M-2.95631 -47.8343C15.0102 -50.4478 31.5238 -45.8416 41.0895 3.05576C44.1929 16.6555 42.6691 40.9225 29.1507 42.7024C15.6323 44.4822 9.56836 45.2805 -2.49111 46.8683C-14.5506 48.4561 -20.8695 26.1198 -23.9729 12.5201C-34.276 -38.4923 -20.9228 -45.2208 -2.95631 -47.8343Z"></path>
  <path fill="#839BE0" transform="matrix(1.17156 0 0 1.37229 477.081 403.135)" d="M-1.27536 -48.5627C16.6911 -51.1762 32.6773 -46.4084 43.2521 6.89939C46.2799 24.647 40.3867 40.7811 26.8682 42.5609C13.3498 44.3407 13.5317 44.3679 1.4722 45.9556C-10.5873 47.5434 -18.7824 34.1113 -21.8103 16.3637C-33.1226 -39.0592 -19.2419 -45.9492 -1.27536 -48.5627Z"></path>
  <path fill="#6C88D9" transform="matrix(1.75255 0 0 1.75255 381.567 414.526)" d="M-1.39429 -46.245C16.6329 -48.9254 30.1908 -43.6055 37.0206 0.154182C41.9309 28.7532 36.262 39.8085 25.8352 41.2084C15.4085 42.6082 6.8946 44.0765 -3.29562 45.7914C-13.6423 47.3495 -20.7185 37.2019 -25.6305 8.59C-33.0924 -37.3039 -19.4215 -43.5645 -1.39429 -46.245Z"></path>
  <path fill="#91A8EB" transform="matrix(-1.63266 -2.46762e-07 -3.07725e-07 2.03602 519.057 276.382)" d="M20.2864 -52.2365C42.4347 -51.4821 34.2247 -26.9093 31.077 1.60099C27.9294 30.1112 14.8084 53.0388 -0.641647 52.5125C-16.0917 51.9863 -26.9984 28.3127 -25.4786 -0.380268C-23.9589 -29.0732 -1.86185 -52.9908 20.2864 -52.2365Z"></path>
  <path fill="none" stroke="black" stroke-width="7" stroke-miterlimit="4" transform="matrix(1.75232 0.0285905 -0.0285905 1.75232 385.922 124.897)" d="M-1.90735e-06 -29.5C19.0538 -29.5 34.5 -16.1805 34.5 0.250008C34.5 16.6805 19.0538 30 -1.90735e-06 30C-19.0538 30 -34.5 16.6805 -34.5 0.250008C-34.5 -16.1805 -19.0538 -29.5 -1.90735e-06 -29.5Z"></path>
  <path fill="none" stroke="black" stroke-width="7" stroke-linejoin="round" transform="matrix(1.00146 0 0 1.00146 343 256)" d="M-110.509 15.5391L-103.982 8.3595C-103.982 8.3595 -64.2572 69.387 -67.9569 72.7018C-67.9569 72.7018 -68.5791 73.2562 -69.5214 74.096"></path>
  <path fill="none" stroke="black" stroke-width="7" stroke-linejoin="round" transform="matrix(1.00146 0 0 1.00146 343 256)" d="M-79.5514 71.6996C-84.785 57.4507 -99.5829 32.9832 -106.654 21.6413"></path>
  <path fill="none" stroke="black" stroke-width="7" stroke-linejoin="round" transform="matrix(1.00146 0 0 1.00146 343 256)" d="M-68.8212 73.4539C-71.4092 75.7737 -73.3699 77.5312 -80.032 83.503C-86.1129 88.9537 -166.267 36.1702 -171.493 33.9834C-171.792 29.259 -169.071 25.1331 -161.973 22.8684C-142.716 38.4318 -76.6241 80.4482 -68.1271 72.8317C-68.3655 73.0454 -68.5957 73.2518 -68.8212 73.4539"></path>
  <path fill="#6C88D9" transform="matrix(1.75232 0.0285905 -0.0285905 1.75232 435.601 283.079)" d="M0.209621 -80.0966C37.3348 -80.0966 84.5 -60 84.5 -9.53674e-07C84.5 41.1452 46.7396 76.2788 0.209621 76.2788C-62.1658 76.2788 -84 60.12 -84 -9.53674e-07C-84 -71.2881 -50.5087 -80.0966 0.209621 -80.0966Z"></path>
  <path fill="none" stroke="black" stroke-width="9" stroke-miterlimit="4" transform="matrix(1.00146 0 0 1.00146 343 256)" d="M17.2812 -187.123C31.6531 -186.889 43.14 -176.652 42.9378 -164.259C42.7356 -151.865 30.9209 -142.009 16.5489 -142.243C2.17695 -142.478 -9.30992 -152.715 -9.10771 -165.108C-8.9055 -177.501 2.9092 -187.358 17.2812 -187.123Z"></path>
  <path fill="none" stroke="black" stroke-width="9" stroke-miterlimit="4" transform="matrix(1.00146 0 0 1.00146 343 256)" d="M2.19907 -172.625C14.157 -172.43 23.7144 -163.912 23.5462 -153.601C23.3779 -143.289 13.5477 -135.088 1.58981 -135.283C-10.3681 -135.479 -19.9255 -143.996 -19.7573 -154.307C-19.5891 -164.619 -9.75886 -172.82 2.19907 -172.625Z"></path>
  <path fill="#3A6D3D" transform="matrix(0.5897 -0.510271 0.680018 0.78587 166.275 283.673)" d="M74.2156 32.7782L86.5869 31.6617C86.5869 31.6617 73.8823 101.182 67.5039 101.265C67.5039 101.265 49.336 101.463 49.336 101.463C61.2865 101.485 74.2156 32.7782 74.2156 32.7782Z"></path>
  <path fill="none" stroke="black" stroke-width="7" stroke-miterlimit="4" transform="matrix(1.00146 0 0 1.00146 343 256)" d="M-149.369 3.22514C-124.166 -18.5837 -99.0822 -30.887 -93.3436 -24.255C-87.6049 -17.6231 -103.384 5.43273 -128.588 27.2416C-153.791 49.0504 -178.875 61.3536 -184.614 54.7217C-190.352 48.0898 -174.573 25.034 -149.369 3.22514Z"></path>
  <path fill="#585555" transform="matrix(0.5897 -0.510271 0.135142 0.156178 203.818 271.256)" d="M1.41114e-05 -77C42.8021 -77 77.5 -42.5259 77.5 0C77.5 42.5259 42.8021 77 1.64062e-05 77C-42.8021 77 -77.5 42.5259 -77.5 0C-77.5 -42.5259 -42.8021 -77 1.41114e-05 -77Z"></path>
  <path fill="none" stroke="black" stroke-width="7" stroke-linejoin="round" transform="matrix(1.00146 0 0 1.00146 343 256)" d="M-216.321 -18.4254L-181.146 44.8433"></path>
  <path fill="none" stroke="black" stroke-width="7" stroke-linejoin="round" transform="matrix(1.00146 0 0 1.00146 343 256)" d="M-92.673 -13.895L-161.176 -66.1426L-177.8 -51.7581"></path>
  <path fill="none" stroke="black" stroke-width="8" stroke-miterlimit="4" transform="matrix(1.00146 0 0 1.00146 343 256)" d="M-196.875 -51.6746C-181.647 -64.8513 -165.664 -71.3289 -161.176 -66.1426C-156.689 -60.9564 -165.395 -46.0703 -180.623 -32.8935C-195.851 -19.7168 -211.834 -13.2392 -216.321 -18.4254C-220.809 -23.6117 -212.102 -38.4978 -196.875 -51.6746Z"></path>
  <path fill="#9C4040" transform="matrix(0.5897 -0.510271 0.510271 0.5897 112.639 233.603)" d="M9.99825 15.3403L-13.0686 125.78L126.715 125.78L103.648 15.3403L9.99825 15.3403Z"></path>
  <path fill="none" stroke="black" stroke-width="7" stroke-miterlimit="4" transform="matrix(1.00146 0 0 1.00146 343 256)" d="M-142.746 10.8801C-117.542 -10.9288 -92.4584 -23.232 -86.7197 -16.6001C-80.981 -9.96814 -96.7605 13.0877 -121.964 34.8965C-147.168 56.7053 -172.251 69.0086 -177.99 62.3766C-183.729 55.7447 -167.949 32.6889 -142.746 10.8801Z"></path>
  <path fill="none" stroke="black" stroke-width="7" stroke-linejoin="round" transform="matrix(1.00146 0 0 1.00146 343 256)" d="M-177.99 62.3766C-177.99 62.3766 -184.645 54.6858 -184.645 54.6859C-186.234 52.8497 -186.128 49.6937 -184.619 45.6424"></path>
  <path fill="none" stroke="black" stroke-width="7" stroke-linejoin="round" transform="matrix(1.00146 0 0 1.00146 343 256)" d="M-93.9491 -24.8386C-93.7398 -24.6739 -93.5481 -24.4914 -93.3746 -24.2909C-93.3746 -24.2909 -87.784 -17.83 -86.851 -16.7518"></path>
  <path fill="#611E1E" transform="matrix(0.5897 -0.510271 0.135142 0.156178 210.452 278.922)" d="M0.749679 55.1992C17.8705 55.1992 66.8714 46.0031 69.8043 0.434675C69.9644 -2.05384 77.4999 -10.588 77.5 0C77.5 42.5259 42.8021 77 -1.41114e-05 77C-42.8021 77 -77.5 42.5259 -77.5 0C-76.7271 -10.3619 -70.1795 -1.22879 -69.7331 1.90431C-67.4206 42.6838 -17.7408 55.1992 0.749679 55.1992Z"></path>
  <defs>
    <linearGradient id="gradient_0" gradientUnits="userSpaceOnUse" x1="8.5369253" y1="175.39754" x2="0.96320713" y2="-480.78424">
      <stop offset="0" stop-color="#583636"></stop>
      <stop offset="0.015997024" stop-color="#583636"></stop>
      <stop offset="0.98742092" stop-color="#EE1010"></stop>
      <stop offset="1" stop-color="#EE1010"></stop>
    </linearGradient>
  </defs>
  <path fill="url(#gradient_0)" transform="matrix(0.638995 -0.552927 0.116718 0.134887 210.452 278.922)" d="M1.52588e-05 -64C35.6224 -64 64.5 -35.3463 64.5 -4.58956e-05C64.5 35.3462 35.6224 64 1.52588e-05 64C-35.6223 64 -64.5 35.3462 -64.5 -1.51396e-05C-64.5 -35.3462 -35.6223 -64 1.52588e-05 -64Z"></path>
  <path fill="#6C88D9" transform="matrix(1.75232 0.0285905 -0.0285905 1.75232 385.922 124.897)" d="M-1.90735e-06 -29.5C19.0538 -29.5 34.5 -16.1805 34.5 0.250008C34.5 16.6805 19.0538 30 -1.90735e-06 30C-19.0538 30 -34.5 16.6805 -34.5 0.250008C-34.5 -16.1805 -19.0538 -29.5 -1.90735e-06 -29.5Z"></path>
  <path fill="none" stroke="black" stroke-width="9" stroke-miterlimit="4" transform="matrix(1.00146 0 0 1.00146 343 256)" d="M-17.2523 -196.283C-10.7568 -196.177 -5.56531 -191.55 -5.65669 -185.949C-5.74808 -180.348 -11.0878 -175.893 -17.5832 -175.999C-24.0787 -176.105 -29.2702 -180.732 -29.1788 -186.333C-29.0874 -191.934 -23.7477 -196.389 -17.2523 -196.283Z"></path>
  <path fill="#6C88D9" transform="matrix(0.755384 0.0123247 -0.0123247 0.755384 359.943 90.8876)" d="M0 -29.5C19.0538 -29.5 34.5 -16.1805 34.5 0.250015C34.5 16.6805 19.0538 30 0 30C-19.0538 30 -34.5 16.6805 -34.5 0.250015C-34.5 -16.1805 -19.0538 -29.5 0 -29.5Z"></path>
  <path fill="#6C88D9" transform="matrix(0.628503 0.0102545 -0.0102545 0.628503 344.9 101.664)" d="M-5.96046e-08 -29.5C19.0538 -29.5 34.5 -16.1805 34.5 0.25C34.5 16.6805 19.0538 30 -5.96046e-08 30C-19.0538 30 -34.5 16.6805 -34.5 0.25C-34.5 -16.1805 -19.0538 -29.5 -5.96046e-08 -29.5Z"></path>
  <path fill="#6C88D9" transform="matrix(0.341398 0.00557018 -0.00557018 0.341398 325.558 69.5018)" d="M0 -29.4999C19.0538 -29.4999 34.5 -16.1804 34.5 0.250061C34.5 16.6805 19.0538 30.0001 0 30.0001C-19.0538 30.0001 -34.5 16.6805 -34.5 0.250061C-34.5 -16.1804 -19.0538 -29.4999 0 -29.4999Z"></path>
  <path fill="#91A8EB" transform="matrix(1.46935 0.0239736 -0.0239736 1.46935 434.272 283.079)" d="M0.249976 -81.5196C49.8787 -81.2985 84.5 -60 84.5 1.90735e-06C84.5 41.1452 46.78 74.5 0.249996 74.5C-62.1254 74.5 -84 60.12 -84 1.90735e-06C-84 -71.2881 -62.1254 -81.5197 0.249976 -81.5196Z"></path>
  <clipPath id="cl_7b">
    <path d="M438.258 142.73C503.313 143.791 585.387 180.355 583.672 285.495C582.495 357.594 515.323 418.08 433.787 416.75C324.485 414.967 286.687 386.027 288.406 280.677C290.444 155.758 349.383 141.28 438.258 142.73Z"></path>
  </clipPath>
  <g clip-path="url(#cl_7b)">
    <path fill="#A6B8EF" transform="matrix(0.784709 0.0128031 -0.0147656 0.904991 488.463 248.883)" d="M0.249995 -81.5197C49.8788 -81.2985 84.5 -60 84.5 -9.53674e-07C84.5 41.1452 67.1354 74.5 20.6054 74.5C-41.77 74.5 -84 60.12 -84 -9.53674e-07C-84 -71.2881 -62.1254 -81.5197 0.249995 -81.5197Z"></path>
    <path fill="#C1CBE8" transform="matrix(0.192776 -0.197383 0.433955 0.423827 510.955 201.321)" d="M11.5671 -77.0971C58.0971 -77.0971 97.5959 -41.1452 97.5959 1.45057e-06C97.5959 41.1452 73.4188 83.0524 26.8888 83.0524C-35.4866 83.0524 11.8086 60.12 11.8086 1.72236e-07C11.8086 -41.1452 -34.9629 -77.0972 11.5671 -77.0971Z"></path>
    <path fill="#C1CBE8" transform="matrix(0.192776 -0.197383 0.179346 0.175161 554.225 263.981)" d="M48.93 -79.7643C80.6762 -79.053 77.4945 -42.8889 62.8507 4.00562C48.2068 50.9001 -0.0394478 91.2963 -20.4537 67.7769C-40.8679 44.2576 -16.8141 31.8032 -0.459022 -5.13884C15.8961 -42.0808 17.1837 -80.4755 48.93 -79.7643Z"></path>
  </g>
  <path fill="#91A8EB" transform="matrix(1.34311 0 0 1.34311 381.567 353.187)" d="M0.236702 -0.845375C18.2639 -3.52586 31.6035 -6.30962 39.6201 44.5562C43.1968 69.7919 37.942 85.3231 27.5153 86.7229C17.0886 88.1227 8.5746 89.591 -1.61554 91.3059C-11.8637 92.9561 -21.809 77.564 -25.3856 52.3282C-34.0342 -0.671982 -17.7905 1.8351 0.236702 -0.845375Z"></path>
  <path fill="#91A8EB" transform="matrix(1.75232 0.0285905 -0.0285905 1.75232 385.922 124.897)" d="M-1.90735e-06 -22.5C14.6355 -22.5 26.5 -12.3145 26.5 0.250008C26.5 12.8145 14.6355 23 -1.90735e-06 23C-14.6355 23 -26.5 12.8145 -26.5 0.250008C-26.5 -12.3145 -14.6355 -22.5 -1.90735e-06 -22.5Z"></path>
  <path fill="#91A8EB" transform="matrix(0.590878 0.00964063 -0.00964063 0.590878 359.943 93.0365)" d="M-1.90735e-06 -22.5C14.6355 -22.5 26.5 -12.3145 26.5 0.25C26.5 12.8145 14.6355 23 -1.90735e-06 23C-14.6355 23 -26.5 12.8145 -26.5 0.25C-26.5 -12.3145 -14.6355 -22.5 -1.90735e-06 -22.5Z"></path>
  <path fill="#91A8EB" transform="matrix(0.491629 0.00802131 -0.00802131 0.491629 344.9 103.452)" d="M-1.19209e-07 -22.5C14.6355 -22.5 26.5 -12.3144 26.5 0.250031C26.5 12.8145 14.6355 23 -1.19209e-07 23C-14.6355 23 -26.5 12.8145 -26.5 0.250031C-26.5 -12.3144 -14.6355 -22.5 -1.19209e-07 -22.5Z"></path>
  <path fill="#91A8EB" transform="matrix(0.267049 0.00435711 -0.00435711 0.267049 326.528 71.5296)" d="M7.62939e-06 -22.4261C14.2962 -22.4261 25.8855 -12.274 25.8855 0.249268C25.8855 12.7726 14.2962 22.9247 7.62939e-06 22.9247C-14.2962 22.9247 -25.8855 12.7726 -25.8855 0.249268C-25.8855 -12.274 -14.2962 -22.4261 7.62939e-06 -22.4261Z"></path>
  <path fill="#C1CBE8" transform="matrix(0.0718703 -0.111803 0.256925 0.165159 324.586 69.5872)" d="M-0.00012207 -11.5C14.6354 -11.5 28.006 -7.98328 28.006 -1.63201C28.006 4.71927 15.5058 0.400186 0.870234 0.400186C-13.7653 0.400184 -26.7661 4.37689 -26.7661 -1.97439C-26.7661 -8.32566 -14.6357 -11.5 -0.00012207 -11.5Z"></path>
  <path fill="#1B2B56" transform="matrix(1.7396 -0.212721 0.0638164 0.521879 397.617 102.382)" d="M9.31323e-09 -2.5C1.38071 -2.5 2.5 -1.38071 2.5 0C2.5 1.38071 1.38071 2.5 -9.31323e-09 2.5C-1.38071 2.5 -2.5 1.38071 -2.5 0C-2.5 -1.38071 -1.38071 -2.5 9.31323e-09 -2.5Z"></path>
  <path fill="none" stroke="#1B2B56" stroke-width="0.5" stroke-linecap="round" stroke-linejoin="round" transform="matrix(1.7359 -0.241072 0.241072 1.7359 406.033 101.299)" d="M1.98548 0.277981L6.02909 0.184244"></path>
  <path fill="#1B2B56" transform="matrix(1.7396 -0.212721 0.0638164 0.521879 425.45 98.978)" d="M3.82401e-06 -2.5C1.38072 -2.5 2.5 -1.38071 2.5 0C2.5 1.38071 1.38072 2.5 3.80538e-06 2.5C-1.38071 2.5 -2.5 1.38071 -2.5 0C-2.5 -1.38071 -1.38071 -2.5 3.82401e-06 -2.5Z"></path>
  <path fill="#354B89" transform="matrix(1.42052 -0.87143 0.909885 0.699887 417.597 92.0412)" d="M-7.45058e-08 -2.49999C1.38071 -2.49999 2.5 -1.3807 2.5 7.62939e-06C2.5 1.38072 1.38071 2.50001 7.45058e-08 2.50001C-1.38071 2.50001 -2.5 1.38072 -2.5 7.62939e-06C-2.5 -1.3807 -1.38071 -2.49999 -7.45058e-08 -2.49999Z"></path>
  <path fill="#354B89" transform="matrix(2.10747 0.274679 -0.606062 1.04918 402.758 93.0429)" d="M1.90735e-06 -2.98532C1.68306 -2.98532 3.04744 -1.64874 3.04744 1.52588e-05C3.04744 1.64877 1.68306 2.98535 1.90735e-06 2.98535C-1.68305 2.98535 -3.04744 1.64877 -3.04744 1.52588e-05C-3.04744 -1.64874 -1.68305 -2.98532 1.90735e-06 -2.98532Z"></path>
  <path fill="#9C4040" transform="matrix(0.356293 -0.308302 0.105682 0.122133 153.976 213.654)" d="M4.57764e-05 -77.0001C42.8021 -77.0001 77.5 -42.526 77.5 -5.17964e-05C77.5 42.5259 42.8021 77 4.57764e-05 76.9999C-42.802 76.9999 -77.5 42.5259 -77.5 -7.02739e-05C-77.5 -42.526 -42.802 -77.0001 4.57764e-05 -77.0001Z"></path>
  <path fill="#C1CBE8" transform="matrix(0.162964 -0.616283 0.863465 0.228326 346.483 121.83)" d="M0 -11.5C14.6355 -11.5 28.0061 -7.98328 28.0061 -1.63201C28.0061 4.71927 15.5059 0.40019 0.870357 0.40019C-13.7652 0.400188 -26.766 4.37689 -26.766 -1.97438C-26.766 -8.32566 -14.6355 -11.5 0 -11.5Z"></path>
  <path fill="#611E1E" transform="matrix(0.5897 -0.510271 0.135142 0.156178 210.452 278.922)" d="M-1.64062e-05 -77C42.8021 -77 77.5 -42.5259 77.5 0C76.8893 5.3405 70.0211 3.38985 69.8079 -1.63419C68.2223 -39.0047 22.4635 -53.8416 1.14805 -53.8416C-18.1129 -53.8416 -70.7895 -39.8299 -69.4932 2.24309C-69.4637 3.19753 -74.2395 10.5248 -77.5 0C-77.5 -42.5259 -42.8021 -77 -1.64062e-05 -77Z"></path>
  <clipPath id="cl_7f">
    <path d="M126.363 237.548L169.115 314.444L251.545 243.117L181.588 189.761L126.363 237.548Z"></path>
  </clipPath>
  <g clip-path="url(#cl_7f)">
    <path fill="#BA4646" transform="matrix(0.434091 -0.375622 0.324433 0.374934 159.725 244.309)" d="M-67.4615 -84L67.4615 -84L92.3226 83.7694L-67.4615 84L-67.4615 -84Z"></path>
  </g>
  <clipPath id="cl_80">
    <path d="M145.838 204.25C161.088 191.054 177.094 184.567 181.588 189.761C186.083 194.955 177.363 209.862 162.113 223.058C146.863 236.254 130.857 242.741 126.363 237.548C121.869 232.354 130.588 217.446 145.838 204.25Z"></path>
  </clipPath>
  <g clip-path="url(#cl_80)">
    <path fill="#BA4646" transform="matrix(0.434091 -0.375622 0.324433 0.374934 159.725 244.309)" d="M-67.4615 -84L67.4615 -84L92.3226 83.7694L-67.4615 84L-67.4615 -84Z"></path>
  </g>
  <path fill="#993535" transform="matrix(0.5897 -0.510271 0.510271 0.5897 164.75 318.468)" d="M0 -3.8147e-06C0 -3.8147e-06 1.52588e-05 -13.0609 0 -13.0609C0 -24.3079 35.8327 -33.7054 77.5 -33.393C119.167 -33.0805 155 -24.3079 155 -13.0609C155 -13.0609 155 1.33514e-05 155 1.33514e-05C155 -10.5378 119.167 -20.393 77.5 -20.393C35.8327 -20.393 0 -10.5379 0 -3.8147e-06Z"></path>
  <path fill="#669969" transform="matrix(0.5897 -0.510271 0.627994 0.725747 171.541 289.758)" d="M-0.506042 0.0226212C3.1732 -3.90972 9.28305 -5.30723 18.0791 -2.2478C23.7018 23.1815 52.5776 101.463 67.2296 101.254C62.0975 101.327 59.1898 101.368 46.7011 101.546C36.2156 101.695 2.73154 5.3165 -0.506042 0.0226212Z"></path>
  <path fill="none" stroke="black" stroke-width="7" stroke-linecap="round" stroke-linejoin="round" transform="matrix(2.09669 0 0 2.07948 322.476 291.353)" d="M28.5411 -31.7758C30.6652 -26.477 33.4988 -18.192 35.8096 -4.49561C41.2624 23.8448 43.8447 46.3794 19.2317 52.199C3.75684 55.7537 -14.7422 34.7984 -20.1977 6.4435C-24.414 -17.0324 -17.3854 -39.5383 -6.95282 -51.6593"></path>
  <path fill="#6C88D9" transform="matrix(2.09669 0 0 2.07948 322.476 291.353)" d="M11.5624 -60.7478C15.7557 -57.0233 24.7634 -43.4183 25.5006 -39.5617C26.2379 -35.7051 31.8077 -28.2153 35.8096 -4.49561C41.2624 23.8448 43.8447 46.3794 19.2317 52.199C3.75684 55.7537 -14.7422 34.7984 -20.1977 6.4435C-26.6755 -29.6242 -6.61036 -63.4023 11.5624 -60.7478Z"></path>
  <path fill="#91A8EB" transform="matrix(1.63266 0 0 2.03602 326.361 285.791)" d="M12.7277 -54.306C34.6165 -57.1195 30.6071 -32.315 36.1562 -4.73985C43.1112 23.2302 43.5738 46.4738 28.9296 50.4576C14.2853 54.4413 -10.0416 33.8555 -18.6171 6.07655C-26.25 -22.8314 -9.16115 -51.4924 12.7277 -54.306Z"></path>
  <path fill="none" stroke="white" stroke-width="5" stroke-linecap="round" stroke-linejoin="round" transform="matrix(1.50219 0 0 1.50219 258.877 362.655)" d=""></path>
  <path fill="none" stroke="white" stroke-width="5" stroke-linecap="round" stroke-linejoin="round" transform="matrix(1.11139 0 0 1.11139 243.355 245.985)" d=""></path>
</svg>