<?xml version="1.0" encoding="utf-8"?>
<svg xmlns="http://www.w3.org/2000/svg" xmlns:xlink="http://www.w3.org/1999/xlink" width="686" height="512">
  <path fill="none" stroke="#D7D7D7" stroke-width="7" stroke-linejoin="round" transform="matrix(1.75255 0 0 1.75255 357.39 414.526)" d="M-3.27419 -45.9191C13.9983 -51.7352 28.2816 -48.8883 42.7178 -7.01762C52.5922 20.2681 48.9606 32.1496 38.9439 35.3653C28.9272 38.5811 20.8054 41.5271 11.077 45.0113C1.16701 48.3688 -7.58707 39.6274 -17.4655 12.3293C-32.9001 -31.5307 -20.5467 -40.103 -3.27419 -45.9191Z"></path>
  <path fill="none" stroke="#D7D7D7" stroke-width="7" stroke-linejoin="round" transform="matrix(-2.09669 -3.16894e-07 -3.14293e-07 2.07948 498.765 281.944)" d="M18.4249 -58.663C21.7945 -54.1681 27.9211 -39.0213 27.8783 -35.094C27.8355 -31.1666 32.2355 -22.2521 30.9557 2.08302C29.7398 30.9469 25.3067 54.0363 0.0424423 53.1161C-15.8146 52.4371 -27.2874 28.5047 -26.0716 -0.359159C-24.5472 -36.5461 1.14603 -64.9291 18.4249 -58.663Z"></path>
  <path fill="none" stroke="#D7D7D7" stroke-width="7" stroke-linejoin="round" transform="matrix(1.75232 0.0285905 -0.0285905 1.75232 411.424 283.079)" d="M0.209621 -80.0966C37.3348 -80.0966 84.5 -60 84.5 -9.53674e-07C84.5 41.1452 46.7396 76.2788 0.209621 76.2788C-62.1658 76.2788 -84 60.12 -84 -9.53674e-07C-84 -71.2881 -50.5087 -80.0966 0.209621 -80.0966Z"></path>
  <path fill="none" stroke="#D7D7D7" stroke-width="7" stroke-linejoin="round" transform="matrix(1.49621 0 0 1.75255 452.904 403.135)" d="M-5.85375 -47.4118C11.3266 -52.6049 28.5188 -50.4725 47.7197 -3.68655C53.4965 9.26148 56.8466 33.3944 43.8824 37.1179C30.9182 40.8414 25.1028 42.5117 13.5377 45.8334C1.97263 49.155 -8.71905 28.0674 -14.4958 15.1193C-34.8462 -33.6432 -23.0341 -42.2187 -5.85375 -47.4118Z"></path>
  <path fill="#D7D7D7" transform="matrix(-2.09669 -3.16894e-07 -3.14293e-07 2.07948 498.765 281.944)" d="M18.4249 -58.663C21.7945 -54.1681 27.9211 -39.0213 27.8783 -35.094C27.8355 -31.1666 32.2355 -22.2521 30.9557 2.08302C29.7398 30.9469 25.3067 54.0363 0.04245 53.1161C-15.8146 52.4371 -27.2874 28.5047 -26.0715 -0.359159C-24.5472 -36.5461 1.14604 -64.9291 18.4249 -58.663Z"></path>
  <path fill="#D7D7D7" transform="matrix(1.49621 0 0 1.75255 452.904 403.135)" d="M-5.85375 -47.4118C11.3266 -52.6049 28.5188 -50.4725 47.7197 -3.68655C53.4965 9.26148 56.8466 33.3944 43.8824 37.1179C30.9182 40.8414 25.1028 42.5117 13.5377 45.8334C1.97263 49.155 -8.71905 28.0674 -14.4958 15.1193C-34.8462 -33.6432 -23.0341 -42.2187 -5.85375 -47.4118Z"></path>
  <path fill="#D7D7D7" transform="matrix(1.17156 0 0 1.37229 452.904 403.135)" d="M-2.508 -48.5712C14.6723 -53.7643 31.3771 -51.3959 52.4541 -0.411255C58.9858 16.6348 56.4044 33.3907 43.4401 37.1143C30.4759 40.8378 30.6605 40.8381 19.0955 44.1598C7.53037 47.4815 -3.22983 35.4407 -9.76142 18.3946C-31.988 -34.5666 -19.6884 -43.3781 -2.508 -48.5712Z"></path>
  <path fill="#D7D7D7" transform="matrix(1.75255 0 0 1.75255 357.39 414.526)" d="M-3.27419 -45.9191C13.9983 -51.7352 28.2816 -48.8883 42.7178 -7.01762C52.5922 20.2681 48.9606 32.1496 38.9439 35.3653C28.9272 38.5811 20.8054 41.5271 11.077 45.0113C1.16701 48.3688 -7.58707 39.6274 -17.4655 12.3293C-32.9001 -31.5307 -20.5467 -40.103 -3.27419 -45.9191Z"></path>
  <path fill="#D7D7D7" transform="matrix(-1.63266 -2.46762e-07 -3.07725e-07 2.03602 494.88 276.382)" d="M20.2864 -52.2365C42.4347 -51.4821 34.2248 -26.9093 31.077 1.60099C27.9294 30.1112 14.8084 53.0388 -0.641632 52.5126C-16.0917 51.9863 -26.9984 28.3127 -25.4786 -0.380267C-23.9589 -29.0732 -1.86183 -52.9908 20.2864 -52.2365Z"></path>
  <path fill="none" stroke="#D7D7D7" stroke-width="7" stroke-miterlimit="4" transform="matrix(1.75232 0.0285905 -0.0285905 1.75232 350.761 125.165)" d="M-7.15256e-07 -29.5C19.0538 -29.5 34.5 -16.1805 34.5 0.25C34.5 16.6805 19.0538 30 -7.15256e-07 30C-19.0538 30 -34.5 16.6805 -34.5 0.25C-34.5 -16.1805 -19.0538 -29.5 -7.15256e-07 -29.5Z"></path>
  <path fill="none" stroke="#D7D7D7" stroke-width="7" stroke-linejoin="round" transform="matrix(1.00146 0 0 1.00146 343 256)" d="M-15.7651 -133.765L-9.23847 -140.945C-9.23847 -140.945 30.4866 -79.9171 26.7869 -76.6023C26.7869 -76.6023 26.1647 -76.0479 25.2224 -75.2082"></path>
  <path fill="none" stroke="#D7D7D7" stroke-width="7" stroke-linejoin="round" transform="matrix(1.00146 0 0 1.00146 343 256)" d="M15.1924 -77.6045C9.95878 -91.8534 -4.83906 -116.321 -11.9101 -127.663"></path>
  <path fill="none" stroke="black" stroke-width="7" stroke-linejoin="round" transform="matrix(1.00146 0 0 1.00146 343 256)" d="M25.9226 -75.8503C23.3346 -73.5304 21.3739 -71.7729 14.7118 -65.8012C8.63094 -60.3505 -71.5228 -113.134 -76.7489 -115.321C-77.0482 -120.045 -74.3269 -124.171 -67.2289 -126.436C-47.9719 -110.872 18.1197 -68.8559 26.6167 -76.4725C26.3783 -76.2587 26.148 -76.0523 25.9226 -75.8503"></path>
  <path fill="#D7D7D7" transform="matrix(1.75232 0.0285905 -0.0285905 1.75232 411.424 283.079)" d="M0.209621 -80.0966C37.3348 -80.0966 84.5 -60 84.5 -9.53674e-07C84.5 41.1452 46.7396 76.2788 0.209621 76.2788C-62.1658 76.2788 -84 60.12 -84 -9.53674e-07C-84 -71.2881 -50.5087 -80.0966 0.209621 -80.0966Z"></path>
  <path fill="none" stroke="#D7D7D7" stroke-width="9" stroke-miterlimit="4" transform="matrix(1.00146 0 0 1.00146 343 256)" d="M-17.8286 -186.856C-3.45658 -186.621 8.03028 -176.384 7.82808 -163.991C7.62587 -151.598 -4.18883 -141.741 -18.5608 -141.976C-32.9328 -142.21 -44.4196 -152.447 -44.2174 -164.84C-44.0152 -177.234 -32.2005 -187.09 -17.8286 -186.856Z"></path>
  <path fill="none" stroke="#D7D7D7" stroke-width="9" stroke-miterlimit="4" transform="matrix(1.00146 0 0 1.00146 343 256)" d="M-32.9106 -172.357C-20.9527 -172.162 -11.3953 -163.645 -11.5635 -153.333C-11.7318 -143.022 -21.562 -134.821 -33.5199 -135.016C-45.4778 -135.211 -55.0353 -143.728 -54.867 -154.04C-54.6988 -164.352 -44.8686 -172.553 -32.9106 -172.357Z"></path>
  <path fill="#3A6D3D" transform="matrix(0.5897 -0.510271 0.680018 0.78587 261.157 134.15)" d="M74.2157 32.7782L86.5869 31.6617C86.5869 31.6617 73.8823 101.182 67.5039 101.265C67.5039 101.265 49.336 101.463 49.336 101.463C61.2865 101.485 74.2157 32.7782 74.2157 32.7782Z"></path>
  <path fill="none" stroke="black" stroke-width="7" stroke-miterlimit="4" transform="matrix(1.00146 0 0 1.00146 343 256)" d="M-54.6257 -146.079C-29.4221 -167.888 -4.33842 -180.191 1.40025 -173.559C7.13891 -166.927 -8.64052 -143.871 -33.8441 -122.063C-59.0477 -100.254 -84.1313 -87.9505 -89.87 -94.5824C-95.6087 -101.214 -79.8292 -124.27 -54.6257 -146.079Z"></path>
  <path fill="#D7D7D7" transform="matrix(0.5897 -0.510271 0.135142 0.156178 298.701 121.733)" d="M-1.14739e-06 -77C42.8021 -77 77.5 -42.5259 77.5 0C77.5 42.5259 42.8021 77 1.14739e-06 77C-42.8021 77 -77.5 42.5259 -77.5 0C-77.5 -42.5259 -42.8021 -77 -1.14739e-06 -77Z"></path>
  <path fill="none" stroke="black" stroke-width="7" stroke-linejoin="round" transform="matrix(1.00146 0 0 1.00146 343 256)" d="M-121.577 -167.73L-86.4023 -104.461"></path>
  <path fill="none" stroke="black" stroke-width="7" stroke-linejoin="round" transform="matrix(1.00146 0 0 1.00146 343 256)" d="M2.07086 -163.199L-66.4326 -215.447L-83.0562 -201.062"></path>
  <path fill="none" stroke="black" stroke-width="8" stroke-miterlimit="4" transform="matrix(1.00146 0 0 1.00146 343 256)" d="M-102.131 -200.979C-86.9029 -214.155 -70.9203 -220.633 -66.4326 -215.447C-61.9449 -210.261 -70.6515 -195.374 -85.8794 -182.198C-101.107 -169.021 -117.09 -162.543 -121.577 -167.73C-126.065 -172.916 -117.359 -187.802 -102.131 -200.979Z"></path>
  <path fill="#9C4040" transform="matrix(0.5897 -0.510271 0.510271 0.5897 207.521 84.0812)" d="M9.99828 15.3403L-13.0685 125.78L126.715 125.78L103.648 15.3403L9.99828 15.3403Z"></path>
  <path fill="none" stroke="black" stroke-width="7" stroke-miterlimit="4" transform="matrix(1.00146 0 0 1.00146 343 256)" d="M-48.0018 -138.424C-22.7982 -160.233 2.28543 -172.536 8.0241 -165.904C13.7628 -159.272 -2.01667 -136.216 -27.2203 -114.408C-52.4238 -92.5989 -77.5075 -80.2956 -83.2462 -86.9275C-88.9848 -93.5595 -73.2054 -116.615 -48.0018 -138.424Z"></path>
  <path fill="none" stroke="black" stroke-width="7" stroke-linejoin="round" transform="matrix(1.00146 0 0 1.00146 343 256)" d="M-83.2462 -86.9275C-83.2462 -86.9275 -89.901 -94.6183 -89.901 -94.6183C-91.4899 -96.4545 -91.3844 -99.6105 -89.8755 -103.662"></path>
  <path fill="none" stroke="black" stroke-width="7" stroke-linejoin="round" transform="matrix(1.00146 0 0 1.00146 343 256)" d="M0.794657 -174.143C1.00398 -173.978 1.1957 -173.796 1.36922 -173.595C1.36922 -173.595 6.95984 -167.134 7.89282 -166.056"></path>
  <path fill="#611E1E" transform="matrix(0.5897 -0.510271 0.135142 0.156178 305.334 129.4)" d="M0.749694 55.1993C17.8705 55.1993 66.8714 46.0032 69.8043 0.434736C69.9645 -2.05378 77.5 -10.5879 77.5 6.10352e-05C77.5 42.526 42.8021 77.0001 1.14739e-06 77.0001C-42.8021 77.0001 -77.5 42.526 -77.5 6.10352e-05C-76.7271 -10.3618 -70.1795 -1.22873 -69.733 1.90438C-67.4205 42.6839 -17.7408 55.1993 0.749694 55.1993Z"></path>
  <defs>
    <linearGradient id="gradient_0" gradientUnits="userSpaceOnUse" x1="8.5369253" y1="175.39754" x2="0.96320713" y2="-480.78424">
      <stop offset="0" stop-color="#583636"></stop>
      <stop offset="0.015997024" stop-color="#583636"></stop>
      <stop offset="0.98742092" stop-color="#EE1010"></stop>
      <stop offset="1" stop-color="#EE1010"></stop>
    </linearGradient>
  </defs>
  <path fill="url(#gradient_0)" transform="matrix(0.638995 -0.552927 0.116718 0.134887 305.334 129.4)" d="M0 -64C35.6224 -64 64.5 -35.3462 64.5 -1.5378e-05C64.5 35.3462 35.6224 64 0 64C-35.6224 64 -64.5 35.3462 -64.5 1.5378e-05C-64.5 -35.3462 -35.6224 -64 0 -64Z"></path>
  <path fill="#D7D7D7" transform="matrix(1.75232 0.0285905 -0.0285905 1.75232 350.761 125.165)" d="M-7.15256e-07 -29.5C19.0538 -29.5 34.5 -16.1805 34.5 0.25C34.5 16.6805 19.0538 30 -7.15256e-07 30C-19.0538 30 -34.5 16.6805 -34.5 0.25C-34.5 -16.1805 -19.0538 -29.5 -7.15256e-07 -29.5Z"></path>
  <path fill="none" stroke="#D7D7D7" stroke-width="9" stroke-miterlimit="4" transform="matrix(1.00146 0 0 1.00146 343 256)" d="M-52.362 -196.015C-45.8666 -195.91 -40.675 -191.283 -40.7664 -185.682C-40.8578 -180.081 -46.1975 -175.626 -52.6929 -175.732C-59.1884 -175.838 -64.3799 -180.464 -64.2885 -186.066C-64.1972 -191.667 -58.8575 -196.121 -52.362 -196.015Z"></path>
  <path fill="#D7D7D7" transform="matrix(0.755384 0.0123247 -0.0123247 0.755384 324.782 91.1554)" d="M1.90735e-06 -29.5C19.0538 -29.5 34.5 -16.1805 34.5 0.250015C34.5 16.6805 19.0538 30 1.90735e-06 30C-19.0538 30 -34.5 16.6805 -34.5 0.250015C-34.5 -16.1805 -19.0538 -29.5 1.90735e-06 -29.5Z"></path>
  <path fill="#D7D7D7" transform="matrix(0.628503 0.0102545 -0.0102545 0.628503 309.739 101.932)" d="M0 -29.5C19.0538 -29.5 34.5 -16.1805 34.5 0.25C34.5 16.6805 19.0538 30 0 30C-19.0538 30 -34.5 16.6805 -34.5 0.25C-34.5 -16.1805 -19.0538 -29.5 0 -29.5Z"></path>
  <path fill="#D7D7D7" transform="matrix(0.341398 0.00557018 -0.00557018 0.341398 290.397 69.7696)" d="M-1.52588e-05 -29.5C19.0538 -29.5 34.5 -16.1805 34.5 0.25C34.5 16.6805 19.0538 30 -1.52588e-05 30C-19.0538 30 -34.5 16.6805 -34.5 0.25C-34.5 -16.1805 -19.0538 -29.5 -1.52588e-05 -29.5Z"></path>
  <path fill="#D7D7D7" transform="matrix(1.46935 0.0239736 -0.0239736 1.46935 410.095 283.079)" d="M0.249976 -81.5196C49.8787 -81.2985 84.5 -60 84.5 1.90735e-06C84.5 41.1452 46.78 74.5 0.249996 74.5C-62.1254 74.5 -84 60.12 -84 1.90735e-06C-84 -71.2881 -62.1254 -81.5197 0.249976 -81.5196Z"></path>
  <clipPath id="cl_39">
    <path d="M414.081 142.73C479.136 143.791 561.21 180.355 559.495 285.495C558.318 357.594 491.146 418.08 409.61 416.75C300.308 414.967 262.51 386.027 264.229 280.677C266.267 155.758 325.206 141.28 414.081 142.73Z"></path>
  </clipPath>
  <g clip-path="url(#cl_39)">
    <path fill="#D7D7D7" transform="matrix(0.784709 0.0128031 -0.0147656 0.904991 464.286 248.883)" d="M0.249995 -81.5197C49.8788 -81.2985 84.5 -60 84.5 -9.53674e-07C84.5 41.1452 67.1354 74.5 20.6054 74.5C-41.77 74.5 -84 60.12 -84 -9.53674e-07C-84 -71.2881 -62.1254 -81.5197 0.249995 -81.5197Z"></path>
    <path fill="#D7D7D7" transform="matrix(0.192776 -0.197383 0.433955 0.423827 486.778 201.321)" d="M11.5671 -77.0972C58.0971 -77.0972 97.5959 -41.1452 97.5959 -6.17883e-06C97.5959 41.1452 73.4188 83.0524 26.8888 83.0524C-35.4866 83.0524 11.8086 60.12 11.8086 -7.45716e-06C11.8086 -41.1452 -34.9629 -77.0972 11.5671 -77.0972Z"></path>
    <path fill="#D7D7D7" transform="matrix(0.192776 -0.197383 0.179346 0.175161 530.048 263.981)" d="M48.93 -79.7643C80.6763 -79.053 77.4946 -42.8889 62.8508 4.00556C48.2069 50.9001 -0.0393867 91.2962 -20.4536 67.7769C-40.8678 44.2575 -16.8141 31.8031 -0.458961 -5.1389C15.8962 -42.0809 17.1838 -80.4756 48.93 -79.7643Z"></path>
  </g>
  <path fill="#D7D7D7" transform="matrix(1.34311 0 0 1.34311 357.39 353.187)" d="M0.188843 -0.9991C17.4613 -6.81518 30.1013 -11.9066 46.9583 36.7497C54.9272 60.9599 52.4922 77.1741 42.4755 80.3898C32.4588 83.6056 24.3369 86.5517 14.6086 90.0358C4.81184 93.4666 -7.69091 80.0685 -15.6597 55.8583C-33.515 5.2124 -17.0836 4.81699 0.188843 -0.9991Z"></path>
  <path fill="#D7D7D7" transform="matrix(1.75232 0.0285905 -0.0285905 1.75232 350.761 125.165)" d="M-7.15256e-07 -22.5C14.6355 -22.5 26.5 -12.3145 26.5 0.25C26.5 12.8145 14.6355 23 -7.15256e-07 23C-14.6355 23 -26.5 12.8145 -26.5 0.25C-26.5 -12.3145 -14.6355 -22.5 -7.15256e-07 -22.5Z"></path>
  <path fill="#D7D7D7" transform="matrix(0.590878 0.00964063 -0.00964063 0.590878 324.782 93.3044)" d="M0 -22.5C14.6355 -22.5 26.5 -12.3145 26.5 0.25C26.5 12.8145 14.6355 23 0 23C-14.6355 23 -26.5 12.8145 -26.5 0.25C-26.5 -12.3145 -14.6355 -22.5 0 -22.5Z"></path>
  <path fill="#D7D7D7" transform="matrix(0.491629 0.00802131 -0.00802131 0.491629 309.739 103.72)" d="M7.62939e-06 -22.5C14.6356 -22.5 26.5 -12.3144 26.5 0.250031C26.5 12.8145 14.6356 23 7.62939e-06 23C-14.6355 23 -26.5 12.8145 -26.5 0.250031C-26.5 -12.3144 -14.6355 -22.5 7.62939e-06 -22.5Z"></path>
  <path fill="#D7D7D7" transform="matrix(0.267049 0.00435711 -0.00435711 0.267049 291.367 71.7974)" d="M0 -22.4262C14.2962 -22.4262 25.8855 -12.2741 25.8855 0.249207C25.8855 12.7725 14.2962 22.9246 0 22.9246C-14.2962 22.9246 -25.8855 12.7725 -25.8855 0.249207C-25.8855 -12.2741 -14.2962 -22.4262 0 -22.4262Z"></path>
  <path fill="#D7D7D7" transform="matrix(0.0718703 -0.111803 0.256925 0.165159 289.425 69.855)" d="M0 -11.5C14.6355 -11.5 28.0061 -7.98325 28.0061 -1.63198C28.0061 4.7193 15.5059 0.400216 0.870357 0.400216C-13.7652 0.400215 -26.766 4.37692 -26.766 -1.97436C-26.766 -8.32563 -14.6355 -11.5 0 -11.5Z"></path>
  <path fill="#D7D7D7" transform="matrix(1.7396 -0.212721 0.0638164 0.521879 362.456 102.649)" d="M1.91666e-06 -2.50003C1.38071 -2.50003 2.5 -1.38074 2.5 -3.05176e-05C2.5 1.38068 1.38071 2.49997 1.89804e-06 2.49997C-1.38071 2.49997 -2.5 1.38068 -2.5 -3.05176e-05C-2.5 -1.38074 -1.38071 -2.50003 1.91666e-06 -2.50003Z"></path>
  <path fill="none" stroke="#D7D7D7" stroke-width="0.5" stroke-linecap="round" stroke-linejoin="round" transform="matrix(1.7359 -0.241072 0.241072 1.7359 370.872 101.567)" d="M1.98548 0.277981L6.02909 0.184244"></path>
  <path fill="#D7D7D7" transform="matrix(1.7396 -0.212721 0.0638164 0.521879 390.289 99.2458)" d="M9.31323e-09 -2.5C1.38071 -2.5 2.5 -1.38071 2.5 0C2.5 1.38071 1.38071 2.5 -9.31323e-09 2.5C-1.38071 2.5 -2.5 1.38071 -2.5 0C-2.5 -1.38071 -1.38071 -2.5 9.31323e-09 -2.5Z"></path>
  <path fill="#D7D7D7" transform="matrix(1.42052 -0.87143 0.909885 0.699887 382.436 92.309)" d="M-7.45058e-08 -2.5C1.38071 -2.5 2.5 -1.38071 2.5 0C2.5 1.38071 1.38071 2.5 7.45058e-08 2.5C-1.38071 2.5 -2.5 1.38071 -2.5 0C-2.5 -1.38071 -1.38071 -2.5 -7.45058e-08 -2.5Z"></path>
  <path fill="#D7D7D7" transform="matrix(2.10747 0.274679 -0.606062 1.04918 367.597 93.3107)" d="M1.90735e-06 -2.98532C1.68306 -2.98532 3.04744 -1.64874 3.04744 1.52588e-05C3.04744 1.64877 1.68306 2.98535 1.90735e-06 2.98535C-1.68305 2.98535 -3.04744 1.64877 -3.04744 1.52588e-05C-3.04744 -1.64874 -1.68305 -2.98532 1.90735e-06 -2.98532Z"></path>
  <clipPath id="cl_3c">
    <path d="M412.417 163.304C485.333 164.819 535.694 196.944 534.255 285.105C533.269 345.561 477.045 393.667 408.676 392.551C317.025 391.056 285.228 369.402 286.67 281.065C288.379 176.318 320.765 161.809 412.417 163.304Z"></path>
  </clipPath>
  <g clip-path="url(#cl_3c)">
    <path fill="#3A6D3D" transform="matrix(0.5897 -0.510271 0.680018 0.78587 261.157 134.15)" d="M74.2157 32.7782L86.5869 31.6617C86.5869 31.6617 73.8823 101.182 67.5039 101.265C67.5039 101.265 49.336 101.463 49.336 101.463C61.2865 101.485 74.2157 32.7782 74.2157 32.7782Z"></path>
  </g>
  <path fill="#9C4040" transform="matrix(0.356293 -0.308302 0.105682 0.122133 248.858 64.1321)" d="M-1.52588e-05 -77.0001C42.8021 -77.0001 77.5 -42.526 77.5 -0.000112832C77.5 42.5258 42.8021 76.9999 -1.52588e-05 76.9999C-42.8021 76.9999 -77.5 42.5258 -77.5 -0.000131309C-77.5 -42.5261 -42.8021 -77.0001 -1.52588e-05 -77.0001Z"></path>
  <path fill="#D7D7D7" transform="matrix(0.162964 -0.616283 0.863465 0.228326 311.322 122.097)" d="M0 -11.5C14.6355 -11.5 28.0061 -7.98328 28.0061 -1.632C28.0061 4.71927 15.5059 0.400193 0.870357 0.400193C-13.7652 0.400192 -26.766 4.3769 -26.766 -1.97438C-26.766 -8.32565 -14.6355 -11.5 0 -11.5Z"></path>
  <path fill="#611E1E" transform="matrix(0.5897 -0.510271 0.135142 0.156178 305.334 129.4)" d="M-1.14739e-06 -76.9999C42.8021 -76.9999 77.5 -42.5259 77.5 6.10352e-05C76.8894 5.34056 70.0211 3.38991 69.8079 -1.63413C68.2223 -39.0047 22.4635 -53.8415 1.14807 -53.8415C-18.1129 -53.8415 -70.7895 -39.8299 -69.4931 2.24315C-69.4637 3.19759 -74.2395 10.5248 -77.5 6.10352e-05C-77.5 -42.5259 -42.8021 -76.9999 -1.14739e-06 -76.9999Z"></path>
  <clipPath id="cl_3d">
    <path d="M221.245 88.0255L263.997 164.922L346.427 93.5948L276.47 40.2387L221.245 88.0255Z"></path>
  </clipPath>
  <g clip-path="url(#cl_3d)">
    <path fill="#BA4646" transform="matrix(0.434091 -0.375622 0.324433 0.374934 254.607 94.7866)" d="M-67.4615 -84L67.4615 -84L92.3226 83.7694L-67.4615 84L-67.4615 -84Z"></path>
  </g>
  <clipPath id="cl_3e">
    <path d="M240.72 54.7279C255.97 41.5319 271.976 35.0449 276.47 40.2387C280.965 45.4325 272.245 60.3403 256.995 73.5363C241.745 86.7323 225.739 93.2193 221.245 88.0255C216.751 82.8317 225.47 67.9239 240.72 54.7279Z"></path>
  </clipPath>
  <g clip-path="url(#cl_3e)">
    <path fill="#BA4646" transform="matrix(0.434091 -0.375622 0.324433 0.374934 254.607 94.7866)" d="M-67.4615 -84L67.4615 -84L92.3226 83.7694L-67.4615 84L-67.4615 -84Z"></path>
  </g>
  <path fill="#993535" transform="matrix(0.5897 -0.510271 0.510271 0.5897 259.632 168.946)" d="M7.62939e-06 -7.62939e-06C7.62939e-06 -7.62939e-06 1.52588e-05 -13.0609 1.52588e-05 -13.0609C0 -24.3079 35.8327 -33.7054 77.5 -33.393C119.167 -33.0805 155 -24.3079 155 -13.0609C155 -13.0609 155 0 155 0C155 -10.5379 119.167 -20.393 77.5 -20.393C35.8327 -20.393 1.52588e-05 -10.5379 7.62939e-06 -7.62939e-06Z"></path>
  <path fill="#669969" transform="matrix(0.5897 -0.510271 0.627994 0.725747 266.423 140.236)" d="M-0.506065 0.0225983C3.1732 -3.90971 9.28303 -5.30723 18.0791 -2.2478C23.7018 23.1815 52.5776 101.463 67.2296 101.254C62.0975 101.327 59.1898 101.368 46.7011 101.546C36.2156 101.695 2.7315 5.31647 -0.506065 0.0225983Z"></path>
  <path fill="none" stroke="#D7D7D7" stroke-width="7" stroke-linecap="round" stroke-linejoin="round" transform="matrix(2.09669 0 0 2.07948 298.299 291.353)" d="M30.2217 -36.5477C33.7033 -31.4747 38.5931 -23.2434 43.1349 -8.91871C51.5421 18.6595 52.3782 43.865 27.8632 50.0909C12.4482 53.9011 -2.92494 35.5416 -11.3246 7.98835C-18.458 -13.6239 -16.0337 -35.7207 -8.50477 -48.977"></path>
  <path fill="#D7D7D7" transform="matrix(2.09669 0 0 2.07948 298.299 291.353)" d="M7.89906 -61.2807C12.7358 -58.4586 24.217 -46.9012 25.6908 -43.2655C27.1645 -39.6298 35.6255 -32.6033 43.1349 -8.91871C51.5421 18.6595 52.3782 43.865 27.8632 50.0909C12.4482 53.9011 -2.92494 35.5416 -11.3246 7.98835C-22.3994 -25.5653 -10.437 -60.2867 7.89906 -61.2807Z"></path>
  <path fill="#D7D7D7" transform="matrix(1.63266 0 0 2.03602 302.184 285.791)" d="M9.24367 -54.9883C30.0178 -61.1927 34.525 -35.9607 45.3274 -8.63215C56.017 18.6752 54.4598 44.0425 39.899 48.2183C25.3382 52.3941 4.40888 33.8594 -7.87206 6.88244C-20.2142 -20.0008 -11.5306 -48.784 9.24367 -54.9883Z"></path>
  <path fill="none" stroke="white" stroke-width="5" stroke-linecap="round" stroke-linejoin="round" transform="matrix(1.50219 0 0 1.50219 258.877 362.655)" d=""></path>
  <path fill="none" stroke="white" stroke-width="5" stroke-linecap="round" stroke-linejoin="round" transform="matrix(1.11139 0 0 1.11139 243.355 245.985)" d=""></path>
</svg>