<?xml version="1.0" encoding="utf-8"?>
<svg xmlns="http://www.w3.org/2000/svg" xmlns:xlink="http://www.w3.org/1999/xlink" width="512" height="512">
  <path fill="none" stroke="black" stroke-width="6" stroke-linejoin="round" transform="matrix(1.8 0 0 1.52279 359.051 169.591)" d="M-2.26519 -16.9737C1.38903 -16.9737 4.0426 -16.9737 7.46442 -16.9737C14.5287 -16.9737 21.6893 -12.9707 21.6893 2.73135C21.6893 18.4334 21.6893 47.7067 21.6893 56.4809C21.6893 99.4374 -41.8107 99.3952 -41.8107 56.4387C-41.8107 45.6553 -41.8107 25.833 -41.8107 13.3474C-41.8107 0.86171 -35.5494 -16.9737 -19.4695 -16.9737C-18.2658 -16.9737 -17.131 -16.9737 -16.0585 -16.9737"></path>
  <path fill="none" stroke="black" stroke-width="6" stroke-linejoin="round" transform="matrix(1.8 0 0 1.64041 359.051 251.837)" d="M-41.802 0.571283C-42.5924 -42.0439 20.8967 -43.2214 21.6871 -0.606243C22.0008 16.3105 22.5242 44.5309 22.8494 62.0626C22.9636 68.2223 14.665 79.6937 -8.56606 80.3952C-31.7971 81.0966 -40.5081 70.3352 -40.5972 65.534C-40.9242 47.8996 -41.5705 13.0555 -41.802 0.571283Z"></path>
  <path fill="#503F7E" transform="matrix(1.8 0 0 1.52279 359.051 169.591)" d="M-41.8107 13.3474C-41.8107 0.861706 -35.5494 -16.9737 -19.4695 -16.9737C-3.38974 -16.9737 0.400185 -16.9737 7.46442 -16.9737C14.5287 -16.9737 21.6893 -12.9707 21.6893 2.73135C21.6893 18.4334 21.6893 47.7067 21.6893 56.4809C21.6893 99.4374 -41.8107 99.3952 -41.8107 56.4387C-41.8107 45.6553 -41.8107 25.833 -41.8107 13.3474Z"></path>
  <path fill="#503F7E" transform="matrix(1.8 0 0 1.64041 359.051 251.837)" d="M-41.802 0.571282C-42.5924 -42.0439 20.8967 -43.2214 21.6871 -0.606245C22.0008 16.3105 22.5242 44.5309 22.8494 62.0626C22.9636 68.2223 14.665 79.6937 -8.56606 80.3952C-31.7971 81.0966 -40.5081 70.3352 -40.5972 65.534C-40.9242 47.8996 -41.5705 13.0555 -41.802 0.571282Z"></path>
  <path fill="none" stroke="black" stroke-width="5" stroke-linejoin="round" transform="matrix(1.67985 0 0 1.8 269.501 356.202)" d="M3.4545 -15.6843C21.6715 -15.1666 34.4751 -10.6288 32.9295 36.7381C32.9089 50.8451 36.4312 65.8926 21.44 74.0595C9.87135 73.9674 -3.05207 74.7738 -19.5167 74.5093C-30.3542 65.898 -30.2166 50.8621 -30.2218 34.0399C-29.3215 -12.4419 -14.7624 -16.2021 3.4545 -15.6843Z"></path>
  <path fill="#453279" transform="matrix(1.67985 0 0 1.8 269.501 356.202)" d="M3.4545 -15.6843C21.6715 -15.1666 34.4751 -10.6288 32.9295 36.7381C32.9089 50.8451 36.4312 65.8926 21.44 74.0595C9.87135 73.9674 -3.05207 74.7738 -19.5167 74.5093C-30.3542 65.898 -30.2166 50.8621 -30.2218 34.0399C-29.3215 -12.4419 -14.7624 -16.2021 3.4545 -15.6843Z"></path>
  <path fill="none" stroke="black" stroke-width="5" stroke-linejoin="round" transform="matrix(1.67985 0 0 1.8 191.63 362.835)" d="M-7.29848 -14.2661C10.87 -15.6088 24.1283 -12.4035 28.1368 34.8374C30.347 53.6096 34.0941 68.0726 19.093 75.4272C3.61938 75.7987 -7.06763 76.0051 -21.9041 75.6648C-37.139 69.9275 -33.6883 55.0488 -34.9524 38.5941C-39.4987 -7.70132 -25.467 -12.9234 -7.29848 -14.2661Z"></path>
  <path fill="none" stroke="black" stroke-width="5" stroke-linejoin="round" transform="matrix(1.79976 0.0276995 -0.0293645 1.69771 261.723 279.649)" d="M-11.3238 -80.2543C25.8014 -80.2543 54.9476 -94.6926 58.9092 -40.8672C62.8708 12.9582 37.0524 74.7499 0.0572916 75.3534C-14.1177 75.5847 -17.7665 75.6442 -48.2096 76.1409C-78.6526 76.6376 -84.25 60.12 -84.25 9.53674e-07C-86.6294 -86.0849 -88.6034 -78.4854 -12.7475 -80.2208"></path>
  <path fill="#503F7E" transform="matrix(1.67985 0 0 1.8 191.63 362.835)" d="M-7.29848 -14.2661C10.87 -15.6088 24.1283 -12.4035 28.1368 34.8374C30.347 53.6096 34.0941 68.0726 19.093 75.4272C3.61938 75.7987 -7.06763 76.0051 -21.9041 75.6648C-37.139 69.9275 -33.6883 55.0488 -34.9524 38.5941C-39.4987 -7.70132 -25.467 -12.9234 -7.29848 -14.2661Z"></path>
  <path fill="none" stroke="black" stroke-width="5" stroke-linejoin="round" transform="matrix(1.53139 0 0 1.39334 219.678 125.584)" d="M0 -40C20.9426 -40 35.0096 -26.8589 47.8597 -2.20017C49.1253 -3.81498 50.3123 -3.57652 51.1974 -3.11681C52.0824 -2.6571 52.5509 -1.60561 52.2206 -0.665335C53.8523 0.0632067 55.2854 1.47333 55.8775 2.67699C56.9197 4.79567 57.6743 10.5072 53.7931 11.8212C58.5977 31.9882 20.3682 22.0914 -1.32962e-05 22.0914C-20.2357 22.0914 -45.0732 28.3281 -41.8836 12.9784C-44.6787 11.8212 -48.2008 8.95145 -46.5316 4.29176C-45.7036 1.98007 -43.8185 0.567096 -42.3936 0.567005C-41.0392 0.566917 -42.9934 -2.19999 -40.2188 -3.8149C-39.0195 -4.5129 -37.7273 -4.43211 -36.6068 -4.12355C-28.0141 -23.731 -20.4124 -40 0 -40Z"></path>
  <path fill="#503F7E" transform="matrix(1.79976 0.0276995 -0.0293645 1.69771 261.723 279.649)" d="M-11.3238 -80.2543C25.8014 -80.2543 54.9476 -94.6926 58.9092 -40.8672C62.8708 12.9582 37.0524 74.7499 0.0572916 75.3534C-14.1177 75.5847 -17.7665 75.6442 -48.2096 76.1409C-78.6526 76.6376 -84.25 60.12 -84.25 9.53674e-07C-86.6442 -86.62 -88.6279 -78.3873 -11.3238 -80.2543Z"></path>
  <clipPath id="cl_9c">
    <path d="M243.699 143.087C310.516 144.115 363.396 120.411 368.945 211.9C374.495 303.39 326.213 407.579 259.613 407.579C234.095 407.579 227.526 407.579 172.721 407.579C117.917 407.579 108.328 379.382 110.093 277.316C108.328 130.193 104.516 144.115 243.699 143.087Z"></path>
  </clipPath>
  <g clip-path="url(#cl_9c)">
    <path fill="#655494" transform="matrix(1.8 0 0 1.8 298.849 261.728)" d="M-0.158644 -48.2655C25.513 -48.2655 46.324 -26.6563 46.324 0C46.324 26.6563 25.513 48.2655 -0.158644 48.2655C-25.8303 48.2655 -46.6413 26.6563 -46.6413 0C-46.6413 -26.6563 -25.8303 -48.2655 -0.158644 -48.2655Z"></path>
  </g>
  <path fill="none" stroke="black" stroke-width="2" stroke-linejoin="round" transform="matrix(3.88825 -0.763212 0.691401 3.5224 226.478 47.3358)" d="M-4.34758 -5.25471C-4.34758 -11.5047 3.66088 -11.5047 3.66088 -5.25472C3.66088 0.995284 3.66088 12.5 3.66088 12.5L-4.57314 12.5C-4.57314 12.5 -4.34758 0.995284 -4.34758 -5.25471Z"></path>
  <path fill="none" stroke="black" stroke-width="2" stroke-linejoin="round" transform="matrix(3.5224 -0.691401 0.691401 3.5224 192.27 52.7486)" d="M-5.1645 -6.50116C-5.1645 -12.7512 6 -12.7512 6 -6.50116C6 -0.251162 6 12.5 6 12.5L-6 12.5C-6 12.5 -5.1645 -0.251163 -5.1645 -6.50116Z"></path>
  <path fill="#453279" transform="matrix(3.88825 -0.763212 0.691401 3.5224 226.478 47.3358)" d="M-4.34758 -5.25471C-4.34758 -11.5047 3.66088 -11.5047 3.66088 -5.25472C3.66088 0.995284 3.66088 12.5 3.66088 12.5L-4.57314 12.5C-4.57314 12.5 -4.34758 0.995284 -4.34758 -5.25471Z"></path>
  <path fill="none" stroke="#161616" stroke-width="0.5" stroke-linecap="round" stroke-linejoin="round" transform="matrix(3.88825 -0.763212 0.691401 3.5224 221.684 27.8041)" d="M4.54547e-06 1.51652L3.83069e-06 10.5382"></path>
  <path fill="#503F7E" transform="matrix(3.5224 -0.691401 0.691401 3.5224 192.27 52.7486)" d="M-5.1645 -6.50117C-5.1645 -12.7512 6 -12.7512 6 -6.50117C6 -0.251166 6 12.5 6 12.5L-6 12.5C-6 12.5 -5.1645 -0.251167 -5.1645 -6.50117Z"></path>
  <path fill="none" stroke="#161616" stroke-width="0.5" stroke-linecap="round" stroke-linejoin="round" transform="matrix(3.5224 -0.691401 0.691401 3.5224 192.484 32.7301)" d="M9.72213e-07 7.65589e-06L4.78691e-06 10.5382"></path>
  <path fill="#503F7E" transform="matrix(1.53139 0 0 1.39334 219.678 125.584)" d="M0 -40C20.9426 -40 35.0096 -26.8589 47.8597 -2.20017C49.1253 -3.81498 50.3123 -3.57652 51.1974 -3.11681C52.0824 -2.6571 52.5509 -1.60561 52.2206 -0.665335C53.8523 0.0632067 55.2854 1.47333 55.8775 2.67699C56.9197 4.79567 57.6743 10.5072 53.7931 11.8212C58.5977 31.9882 20.3682 22.0914 -1.32962e-05 22.0914C-20.2357 22.0914 -45.0732 28.3281 -41.8836 12.9784C-44.6787 11.8212 -48.2008 8.95145 -46.5316 4.29176C-45.7036 1.98007 -43.8185 0.567096 -42.3936 0.567005C-41.0392 0.566917 -42.9934 -2.19999 -40.2188 -3.8149C-39.0195 -4.5129 -37.7273 -4.43211 -36.6068 -4.12355C-28.0141 -23.731 -20.4124 -40 0 -40Z"></path>
  <clipPath id="cl_9d">
    <path d="M219.678 69.8503C251.749 69.8503 273.291 88.1603 292.97 122.518C294.908 120.268 296.726 120.601 298.081 121.241C299.436 121.882 300.154 123.347 299.648 124.657C302.147 125.672 304.341 127.637 305.248 129.314C306.844 132.266 308 140.224 302.056 142.055C309.414 170.155 250.87 156.365 219.678 156.365C188.689 156.365 150.654 165.055 155.538 143.667C151.258 142.055 145.864 138.056 148.42 131.564C149.688 128.343 152.575 126.374 154.757 126.374C156.831 126.374 153.839 122.519 158.088 120.269C159.924 119.296 161.903 119.409 163.619 119.838C176.778 92.5185 188.419 69.8503 219.678 69.8503Z"></path>
  </clipPath>
  <g clip-path="url(#cl_9d)">
    <path fill="#7463A5" transform="matrix(1.8 2.98023e-08 0.00759348 1.8 212.369 110.441)" d="M0 -5.5C3.86599 -5.5 7 -2.92564 7 0.25C7 3.42564 3.86599 6 0 6C-3.86599 6 -7 3.42564 -7 0.25C-7 -2.92564 -3.86599 -5.5 0 -5.5Z"></path>
    <path fill="#7463A5" transform="matrix(1.83618 3.04014e-08 0.00759348 1.8 264.917 102.295)" d="M0 -5.00001C2.76142 -5.00001 5 -2.6495 5 0.249992C5 3.14949 2.76142 5.49999 0 5.49999C-2.76142 5.49999 -5 3.14949 -5 0.249992C-5 -2.6495 -2.76142 -5.00001 0 -5.00001Z"></path>
    <path fill="none" stroke="#131212" stroke-width="1" stroke-linecap="round" stroke-linejoin="round" transform="matrix(2.30699 -0.373724 0.274137 1.69224 243.149 95.5994)" d="M1.44192e-06 -4.14104e-07L2.92891 -0.714567"></path>
    <path fill="none" stroke="#131212" stroke-width="1" stroke-linecap="round" stroke-linejoin="round" transform="matrix(2.30699 -0.373724 0.274137 1.69224 221.398 94.7697)" d="M2.38419e-07 7.48094e-06L4.25731 1.79213"></path>
    <path fill="#131212" transform="matrix(2.47104 -0.400299 0.405754 2.50471 235.183 97.8799)" d="M-2.27592e-08 -2.15485e-07L1.9614 0.352738L0.91509 1.42246L-2.27592e-08 -2.15485e-07Z"></path>
    <path fill="none" stroke="#131212" stroke-width="0.5" stroke-linecap="round" stroke-linejoin="round" transform="matrix(1.93759 -0.313883 0.31816 1.96399 238.243 101.415)" d="M1.18428e-07 -0.711224L-3.72341e-06 1.1102"></path>
    <path fill="#32225E" transform="matrix(1.74285 0.441491 -0.424043 1.74552 232.031 90.0143)" d="M-2.87169e-08 -1.92716C1.62851 -1.92716 2.94867 -1.06434 2.94867 -4.39386e-08C2.94867 1.06434 1.62851 1.92716 2.87169e-08 1.92716C-1.62851 1.92716 -2.94867 1.06434 -2.94867 4.39386e-08C-2.94867 -1.06434 -1.62851 -1.92716 -2.87169e-08 -1.92716Z"></path>
    <path fill="#32225E" transform="matrix(1.71213 0.433708 -0.412468 1.69787 243.224 89.1394)" d="M-5.72205e-06 -1.8992C0.889983 -1.8992 1.61146 -1.0489 1.61146 -7.65341e-06C1.61146 1.04889 0.889983 1.89918 -5.72205e-06 1.89918C-0.889995 1.89918 -1.61147 1.04889 -1.61147 -7.60538e-06C-1.61147 -1.0489 -0.889995 -1.8992 -5.72205e-06 -1.8992Z"></path>
  </g>
  <path fill="none" stroke="black" stroke-width="4" stroke-linejoin="round" transform="matrix(1.8 0 0 1.8 336.621 164.528)" d="M-11.7479 -12.9046C-11.318 -13.5165 -10.7601 -14.1187 -10.0572 -14.7065C-5.47351 -18.5399 3.93804 -16.1165 4.43081 -14.7065C7.46664 -16.1165 10.8961 -16.6614 15.0174 -13.9738C19.1387 -11.2862 16.2386 -4.86793 16.6118 -4.55444C16.985 -4.24095 25.2116 0.494543 17.5976 8.33766C16.6439 8.92035 15.7365 9.39702 14.8735 9.77867"></path>
  <path fill="#7463A5" transform="matrix(1.8 0 0 1.8 336.621 164.528)" d="M-0.116455 0C-2.60165 -0.66394 -7.05858 1.11792 -10.0572 -2.65576C-13.0559 -6.42944 -14.6409 -10.8732 -10.0572 -14.7065C-5.47351 -18.5399 3.93804 -16.1165 4.43081 -14.7065C7.46664 -16.1165 10.8961 -16.6614 15.0174 -13.9738C19.1387 -11.2862 16.2386 -4.86793 16.6118 -4.55444C16.985 -4.24095 25.2116 0.494543 17.5976 8.33766C2.9012 17.3171 -0.809986 1.11792 -0.116455 0Z"></path>
  <path fill="none" stroke="black" stroke-width="6" stroke-linejoin="round" transform="matrix(1.8 0 0 1.8 170.253 262.174)" d="M-7.2238 31.2838C-46.6938 26.7855 -39.5034 -36.3061 -0.0334396 -31.8078C16.7774 -29.8919 44.8211 -26.6959 62.243 -24.7103C68.3642 -24.0127 78.6434 -14.2762 76.2806 8.84501C73.9178 31.9662 62.1033 39.1848 57.3322 38.641C39.8082 36.6439 5.18226 32.6977 -7.2238 31.2838Z"></path>
  <path fill="none" stroke="black" stroke-width="6" stroke-linecap="round" stroke-linejoin="bevel" transform="matrix(1.8 0 0 1.67094 170.253 171.927)" d="M27.657 37.3852C27.8623 45.2686 28.039 52.0531 28.1303 55.5605C29.2486 98.5002 -34.2276 100.376 -35.3458 57.4366C-35.6265 46.6574 -36.1425 26.843 -36.4675 14.3622C-36.7926 1.88147 -30.9979 -16.1361 -14.9245 -16.6218C-13.1708 -16.6748 -11.5635 -16.7234 -10.0821 -16.7682"></path>
  <path fill="#503F7E" transform="matrix(1.8 0 0 1.8 170.253 262.174)" d="M-7.2238 31.2838C-48.3331 26.5987 -41.1428 -36.4929 -0.0334396 -31.8078C16.7774 -29.8919 44.8211 -26.6959 62.243 -24.7103C68.3642 -24.0127 78.6434 -14.2762 76.2806 8.84501C73.9178 31.9662 62.1033 39.1848 57.3322 38.641C39.8082 36.6439 5.18226 32.6977 -7.2238 31.2838Z"></path>
  <path fill="#503F7E" transform="matrix(1.8 0 0 1.67094 170.253 171.927)" d="M-36.4675 14.3622C-36.7926 1.88147 -30.9979 -16.1361 -14.9245 -16.6218C1.14902 -17.1076 4.93745 -17.2221 11.9989 -17.4355C19.0604 -17.6489 26.3224 -13.8638 26.7311 1.83215C27.1399 17.528 27.9019 46.7898 28.1303 55.5605C29.1139 93.3307 -34.3622 95.2068 -35.3458 57.4366C-35.6265 46.6574 -36.1425 26.843 -36.4675 14.3622Z"></path>
</svg>