<?xml version="1.0" encoding="utf-8"?>
<svg xmlns="http://www.w3.org/2000/svg" xmlns:xlink="http://www.w3.org/1999/xlink" width="512" height="512">
  <path fill="none" stroke="black" stroke-width="6" stroke-linejoin="round" transform="matrix(1.8 0 0 1.52279 359.051 169.591)" d="M-8.07422 -16.9737C-4.41999 -16.9737 -1.76642 -16.9737 1.6554 -16.9737C8.71963 -16.9737 15.8803 -12.9707 15.8803 2.73135C15.8803 18.4334 15.8803 47.7067 15.8803 56.4809C15.8803 99.4374 -47.6197 99.3952 -47.6197 56.4387C-47.6197 45.6553 -47.6197 25.833 -47.6197 13.3474C-47.6197 0.86171 -41.3584 -16.9737 -25.2786 -16.9737C-24.0749 -16.9737 -22.94 -16.9737 -21.8675 -16.9737"></path>
  <path fill="none" stroke="black" stroke-width="6" stroke-linejoin="round" transform="matrix(1.8 0 0 1.64041 359.051 251.837)" d="M-47.6163 0.309144C-48.0531 -42.3111 15.4436 -42.9619 15.8804 -0.341653C16.0538 16.5772 16.3431 44.8009 16.5228 62.3346C16.5859 68.4951 8.19241 79.8973 -15.0437 80.406C-38.2798 80.9147 -46.9012 70.0814 -46.9504 65.2796C-47.1311 47.6431 -47.4883 12.7948 -47.6163 0.309144Z"></path>
  <path fill="#503F7E" transform="matrix(1.8 0 0 1.52279 359.051 169.591)" d="M-47.6197 13.3474C-47.6197 0.861706 -41.3584 -16.9737 -25.2786 -16.9737C-9.19876 -16.9737 -5.40884 -16.9737 1.6554 -16.9737C8.71963 -16.9737 15.8803 -12.9707 15.8803 2.73135C15.8803 18.4334 15.8803 47.7067 15.8803 56.4809C15.8803 99.4374 -47.6197 99.3952 -47.6197 56.4387C-47.6197 45.6553 -47.6197 25.833 -47.6197 13.3474Z"></path>
  <path fill="#503F7E" transform="matrix(1.8 0 0 1.64041 359.051 251.837)" d="M-47.6163 0.309142C-48.0531 -42.3111 15.4436 -42.9619 15.8804 -0.341654C16.0538 16.5772 16.3431 44.8009 16.5228 62.3346C16.5859 68.4951 8.19241 79.8973 -15.0437 80.406C-38.2798 80.9147 -46.9012 70.0814 -46.9504 65.2796C-47.1311 47.6431 -47.4883 12.7948 -47.6163 0.309142Z"></path>
  <path fill="none" stroke="black" stroke-width="5" stroke-linejoin="round" transform="matrix(1.67985 0 0 1.8 269.501 356.202)" d="M3.24853 -15.6843C21.4653 -15.1617 34.2676 -10.6205 32.7074 36.746C32.6824 50.8531 36.1986 65.8994 21.2075 74.0589C9.63882 73.9668 -3.28459 74.7731 -19.7493 74.5086C-30.5867 65.8994 -30.4431 50.8531 -30.4431 34.0309C-29.5284 -12.4507 -14.9683 -16.207 3.24853 -15.6843Z"></path>
  <path fill="#453279" transform="matrix(1.67985 0 0 1.8 269.501 356.202)" d="M3.24853 -15.6843C21.4653 -15.1617 34.2676 -10.6205 32.7074 36.746C32.6824 50.8531 36.1986 65.8994 21.2075 74.0589C9.63882 73.9668 -3.28459 74.7731 -19.7493 74.5086C-30.5867 65.8994 -30.4431 50.8531 -30.4431 34.0309C-29.5284 -12.4507 -14.9683 -16.207 3.24853 -15.6843Z"></path>
  <path fill="none" stroke="black" stroke-width="5" stroke-linejoin="round" transform="matrix(1.67985 0 0 1.8 191.63 362.835)" d="M-3.29143 -14.3199C14.9224 -14.9266 28.0193 -11.1883 29.8306 36.1704C31.1671 55.0143 34.3726 68.6522 19.1045 75.6026C3.63087 75.9742 -7.05614 76.1806 -21.8926 75.8403C-36.9178 69.6377 -32.8748 53.8626 -33.3737 37.3723C-35.7662 -9.06352 -21.5052 -13.7132 -3.29143 -14.3199Z"></path>
  <path fill="none" stroke="black" stroke-width="5" stroke-linejoin="round" transform="matrix(1.79976 0.0276995 -0.0293645 1.69771 268.803 279.649)" d="M-11.3238 -80.2543C25.8014 -80.2543 54.9476 -94.6926 58.9092 -40.8672C62.8708 12.9582 37.0524 74.7499 0.0572919 75.3534C-14.1177 75.5847 -17.7665 75.6442 -48.2096 76.1409C-78.6526 76.6376 -84.25 60.12 -84.25 0C-86.6294 -86.0849 -88.6034 -78.4854 -12.7475 -80.2208"></path>
  <path fill="#503F7E" transform="matrix(1.67985 0 0 1.8 191.63 362.835)" d="M-3.29143 -14.3199C14.9224 -14.9266 28.0193 -11.1883 29.8306 36.1704C31.1671 55.0143 34.3726 68.6522 19.1045 75.6026C3.63087 75.9742 -7.05614 76.1806 -21.8926 75.8403C-36.9178 69.6377 -32.8748 53.8626 -33.3737 37.3723C-35.7662 -9.06352 -21.5052 -13.7132 -3.29143 -14.3199Z"></path>
  <path fill="none" stroke="black" stroke-width="5" stroke-linejoin="round" transform="matrix(1.53139 0 0 1.39334 222.615 125.584)" d="M1.90735e-06 -40C20.9426 -40 35.0096 -26.8589 47.8597 -2.20017C49.1253 -3.81498 50.3123 -3.57652 51.1974 -3.11681C52.0824 -2.6571 52.5509 -1.60561 52.2206 -0.665335C53.8523 0.0632067 55.2854 1.47333 55.8775 2.67699C56.9197 4.79567 57.6743 10.5072 53.7931 11.8212C58.5977 31.9882 20.3682 22.0914 -1.13888e-05 22.0914C-20.2357 22.0914 -45.0732 28.3281 -41.8836 12.9784C-44.6787 11.8212 -48.2008 8.95145 -46.5316 4.29176C-45.7036 1.98007 -43.8185 0.567096 -42.3936 0.567005C-41.0392 0.566917 -42.9934 -2.19999 -40.2188 -3.8149C-39.0195 -4.5129 -37.7273 -4.43211 -36.6068 -4.12355C-28.0141 -23.731 -20.4124 -40 1.90735e-06 -40Z"></path>
  <path fill="#503F7E" transform="matrix(1.79976 0.0276995 -0.0293645 1.69771 268.803 279.649)" d="M-11.3238 -80.2543C25.8014 -80.2543 54.9476 -94.6926 58.9092 -40.8672C62.8708 12.9582 37.0524 74.7499 0.0572919 75.3534C-14.1177 75.5847 -17.7665 75.6442 -48.2096 76.1409C-78.6526 76.6376 -84.25 60.12 -84.25 0C-86.6442 -86.62 -88.6279 -78.3873 -11.3238 -80.2543Z"></path>
  <clipPath id="cl_42">
    <path d="M250.779 143.087C317.596 144.115 370.476 120.411 376.025 211.9C381.574 303.39 333.293 407.579 266.693 407.579C241.175 407.579 234.606 407.579 179.801 407.579C124.996 407.579 115.407 379.382 117.173 277.316C115.407 130.193 111.595 144.115 250.779 143.087Z"></path>
  </clipPath>
  <g clip-path="url(#cl_42)">
    <path fill="#655494" transform="matrix(1.8 0 0 1.8 305.928 261.728)" d="M-0.158644 -48.2655C25.513 -48.2655 46.324 -26.6563 46.324 0C46.324 26.6563 25.513 48.2655 -0.158644 48.2655C-25.8303 48.2655 -46.6413 26.6563 -46.6413 0C-46.6413 -26.6563 -25.8303 -48.2655 -0.158644 -48.2655Z"></path>
  </g>
  <path fill="none" stroke="black" stroke-width="2" stroke-linejoin="round" transform="matrix(3.88825 -0.763212 0.691401 3.5224 229.414 47.3358)" d="M-4.34758 -5.25471C-4.34758 -11.5047 3.66088 -11.5047 3.66088 -5.25471C3.66088 0.995287 3.66088 12.5 3.66088 12.5L-4.57314 12.5C-4.57314 12.5 -4.34758 0.995288 -4.34758 -5.25471Z"></path>
  <path fill="none" stroke="black" stroke-width="2" stroke-linejoin="round" transform="matrix(3.5224 -0.691401 0.691401 3.5224 195.207 52.7486)" d="M-5.1645 -6.50117C-5.1645 -12.7512 6 -12.7512 6 -6.50117C6 -0.251166 6 12.5 6 12.5L-6 12.5C-6 12.5 -5.1645 -0.251167 -5.1645 -6.50117Z"></path>
  <path fill="#453279" transform="matrix(3.88825 -0.763212 0.691401 3.5224 229.414 47.3358)" d="M-4.34758 -5.25471C-4.34758 -11.5047 3.66088 -11.5047 3.66088 -5.25471C3.66088 0.995287 3.66088 12.5 3.66088 12.5L-4.57314 12.5C-4.57314 12.5 -4.34758 0.995288 -4.34758 -5.25471Z"></path>
  <path fill="none" stroke="#161616" stroke-width="0.5" stroke-linecap="round" stroke-linejoin="round" transform="matrix(3.88825 -0.763212 0.691401 3.5224 224.621 27.8041)" d="M4.30705e-06 1.51652L3.59227e-06 10.5382"></path>
  <path fill="#503F7E" transform="matrix(3.5224 -0.691401 0.691401 3.5224 195.207 52.7486)" d="M-5.1645 -6.50117C-5.1645 -12.7512 6 -12.7512 6 -6.50117C6 -0.251166 6 12.5 6 12.5L-6 12.5C-6 12.5 -5.1645 -0.251167 -5.1645 -6.50117Z"></path>
  <path fill="none" stroke="#161616" stroke-width="0.5" stroke-linecap="round" stroke-linejoin="round" transform="matrix(3.5224 -0.691401 0.691401 3.5224 195.421 32.7301)" d="M1.85391e-08 2.6499e-08L3.83324e-06 10.5382"></path>
  <path fill="#503F7E" transform="matrix(1.53139 0 0 1.39334 222.615 125.584)" d="M1.90735e-06 -40C20.9426 -40 35.0096 -26.8589 47.8597 -2.20017C49.1253 -3.81498 50.3123 -3.57652 51.1974 -3.11681C52.0824 -2.6571 52.5509 -1.60561 52.2206 -0.665335C53.8523 0.0632067 55.2854 1.47333 55.8775 2.67699C56.9197 4.79567 57.6743 10.5072 53.7931 11.8212C58.5977 31.9882 20.3682 22.0914 -1.13888e-05 22.0914C-20.2357 22.0914 -45.0732 28.3281 -41.8836 12.9784C-44.6787 11.8212 -48.2008 8.95145 -46.5316 4.29176C-45.7036 1.98007 -43.8185 0.567096 -42.3936 0.567005C-41.0392 0.566917 -42.9934 -2.19999 -40.2188 -3.8149C-39.0195 -4.5129 -37.7273 -4.43211 -36.6068 -4.12355C-28.0141 -23.731 -20.4124 -40 1.90735e-06 -40Z"></path>
  <clipPath id="cl_43">
    <path d="M222.615 69.8503C254.686 69.8503 276.228 88.1603 295.907 122.518C297.845 120.268 299.663 120.601 301.018 121.241C302.373 121.882 303.091 123.347 302.585 124.657C305.084 125.672 307.278 127.637 308.185 129.314C309.781 132.266 310.937 140.224 304.993 142.055C312.351 170.155 253.807 156.365 222.615 156.365C191.626 156.365 153.59 165.055 158.475 143.667C154.195 142.055 148.801 138.056 151.357 131.564C152.625 128.343 155.512 126.374 157.694 126.374C159.768 126.374 156.775 122.519 161.024 120.269C162.861 119.296 164.84 119.409 166.556 119.838C179.715 92.5185 191.356 69.8503 222.615 69.8503Z"></path>
  </clipPath>
  <g clip-path="url(#cl_43)">
    <path fill="#7463A5" transform="matrix(1.8 2.98023e-08 0.00759348 1.8 217.431 110.441)" d="M1.90735e-06 -5.5C3.866 -5.5 7 -2.92564 7 0.25C7 3.42564 3.866 6 1.90735e-06 6C-3.86599 6 -7 3.42564 -7 0.25C-7 -2.92564 -3.86599 -5.5 1.90735e-06 -5.5Z"></path>
    <path fill="#7463A5" transform="matrix(1.83618 3.04014e-08 0.00759348 1.8 269.979 102.295)" d="M4.76837e-07 -5.00001C2.76142 -5.00001 5 -2.6495 5 0.249992C5 3.14949 2.76142 5.49999 4.76837e-07 5.49999C-2.76142 5.49999 -5 3.14949 -5 0.249992C-5 -2.6495 -2.76142 -5.00001 4.76837e-07 -5.00001Z"></path>
    <path fill="none" stroke="#131212" stroke-width="1" stroke-linecap="round" stroke-linejoin="round" transform="matrix(2.30699 -0.373724 0.274137 1.69224 248.211 95.5994)" d="M1.44192e-06 7.21529e-06L2.92891 -0.71456"></path>
    <path fill="none" stroke="#131212" stroke-width="1" stroke-linecap="round" stroke-linejoin="round" transform="matrix(2.30699 -0.373724 0.274137 1.69224 226.46 94.7697)" d="M0 -1.48459e-07L4.25731 1.79213"></path>
    <path fill="#131212" transform="matrix(2.47104 -0.400299 0.405754 2.50471 240.245 97.8799)" d="M2.15659e-07 -4.03018e-06L1.9614 0.352734L0.91509 1.42246L2.15659e-07 -4.03018e-06Z"></path>
    <path fill="none" stroke="#131212" stroke-width="0.5" stroke-linecap="round" stroke-linejoin="round" transform="matrix(1.93759 -0.313883 0.31816 1.96399 243.305 101.415)" d="M1.18428e-07 -0.711224L-3.72341e-06 1.1102"></path>
    <path fill="#32225E" transform="matrix(1.74285 0.441491 -0.424043 1.74552 237.093 90.0143)" d="M3.78598e-06 -1.92716C1.62851 -1.92716 2.94867 -1.06435 2.94867 -7.67333e-06C2.94867 1.06433 1.62851 1.92715 3.84341e-06 1.92715C-1.6285 1.92715 -2.94867 1.06433 -2.94867 -7.58546e-06C-2.94867 -1.06435 -1.6285 -1.92716 3.78598e-06 -1.92716Z"></path>
    <path fill="#32225E" transform="matrix(1.71213 0.433708 -0.412468 1.69787 248.286 89.1394)" d="M-3.8147e-06 -1.89919C0.889985 -1.89919 1.61146 -1.04889 1.61146 -2.40127e-08C1.61146 1.04889 0.889985 1.89919 -3.8147e-06 1.89919C-0.889993 1.89919 -1.61147 1.04889 -1.61147 2.40127e-08C-1.61147 -1.04889 -0.889993 -1.89919 -3.8147e-06 -1.89919Z"></path>
  </g>
  <path fill="none" stroke="black" stroke-width="4" stroke-linejoin="round" transform="matrix(1.8 0 0 1.8 345.024 164.528)" d="M-11.7479 -12.9046C-11.318 -13.5165 -10.7601 -14.1187 -10.0572 -14.7065C-5.47351 -18.5399 3.93804 -16.1165 4.43081 -14.7065C7.46664 -16.1165 10.8961 -16.6614 15.0174 -13.9738C19.1387 -11.2862 16.2386 -4.86793 16.6118 -4.55444C16.985 -4.24095 25.2116 0.494543 17.5976 8.33766C16.6439 8.92035 15.7365 9.39702 14.8735 9.77867"></path>
  <path fill="#7463A5" transform="matrix(1.8 0 0 1.8 345.024 164.528)" d="M-0.116455 0C-2.60165 -0.66394 -7.05858 1.11792 -10.0572 -2.65576C-13.0559 -6.42944 -14.6409 -10.8732 -10.0572 -14.7065C-5.47351 -18.5399 3.93804 -16.1165 4.43081 -14.7065C7.46664 -16.1165 10.8961 -16.6614 15.0174 -13.9738C19.1387 -11.2862 16.2386 -4.86793 16.6118 -4.55444C16.985 -4.24095 25.2116 0.494543 17.5976 8.33766C2.9012 17.3171 -0.809986 1.11792 -0.116455 0Z"></path>
  <path fill="none" stroke="black" stroke-width="6" stroke-linejoin="round" transform="matrix(1.8 0 0 1.8 170.253 262.174)" d="M-27.7923 18.8925C-51.5134 -12.9732 -0.576958 -50.8907 23.1442 -19.0249C33.2473 -5.45283 50.1013 17.188 60.5717 31.2534C64.2505 36.1953 64.1811 50.3535 45.7006 64.4477C27.2202 78.542 13.8727 74.8631 11.0053 71.0112C0.473522 56.8634 -20.3363 28.9084 -27.7923 18.8925Z"></path>
  <path fill="none" stroke="black" stroke-width="6" stroke-linecap="round" stroke-linejoin="bevel" transform="matrix(1.8 0 0 1.67094 170.253 171.927)" d="M29.3486 38.3726C29.3486 46.2536 29.3486 53.0353 29.3486 56.5422C29.3486 99.4987 -34.1514 99.4565 -34.1514 56.5C-34.1514 45.7166 -34.1514 25.8944 -34.1514 13.4087C-34.1514 0.923035 -27.8901 -16.9124 -11.8103 -16.9124C-10.0366 -16.9124 -8.41253 -16.9124 -6.91707 -16.9124"></path>
  <path fill="#503F7E" transform="matrix(1.8 0 0 1.8 170.253 262.174)" d="M-27.7923 18.8925C-52.4986 -14.2967 -1.56216 -52.2141 23.1442 -19.0249C33.2473 -5.45283 50.1013 17.188 60.5717 31.2534C64.2505 36.1953 64.1811 50.3535 45.7006 64.4477C27.2202 78.542 13.8727 74.8631 11.0053 71.0112C0.473522 56.8634 -20.3363 28.9084 -27.7923 18.8925Z"></path>
  <path fill="#503F7E" transform="matrix(1.8 0 0 1.67094 170.253 171.927)" d="M-34.1514 13.4087C-34.1514 0.923035 -27.8901 -16.9124 -11.8103 -16.9124C4.26956 -16.9124 8.05948 -16.9124 15.1237 -16.9124C22.188 -16.9124 29.3486 -12.9094 29.3486 2.79268C29.3486 18.4947 29.3486 47.7681 29.3486 56.5422C29.3486 94.3272 -34.1514 94.285 -34.1514 56.5C-34.1514 45.7166 -34.1514 25.8944 -34.1514 13.4087Z"></path>
</svg>