<?xml version="1.0" encoding="utf-8"?>
<svg xmlns="http://www.w3.org/2000/svg" xmlns:xlink="http://www.w3.org/1999/xlink" width="512" height="512">
  <path fill="none" stroke="black" stroke-width="6" stroke-linejoin="round" transform="matrix(1.8 0 0 1.52279 359.051 169.591)" d="M-13.593 -16.9737C-9.9388 -16.9737 -7.28522 -16.9737 -3.8634 -16.9737C3.20083 -16.9737 10.3615 -12.9707 10.3615 2.73135C10.3615 18.4334 10.3615 47.7067 10.3615 56.4809C10.3615 99.4374 -53.1385 99.3952 -53.1385 56.4387C-53.1385 45.6553 -53.1385 25.833 -53.1385 13.3474C-53.1385 0.86171 -46.8772 -16.9737 -30.7974 -16.9737C-29.5937 -16.9737 -28.4588 -16.9737 -27.3863 -16.9737"></path>
  <path fill="none" stroke="black" stroke-width="6" stroke-linejoin="round" transform="matrix(1.8 0 0 1.64041 359.051 251.837)" d="M-53.1383 0.0274704C-53.1952 -42.595 10.3047 -42.6799 10.3617 -0.0573812C10.3843 16.8623 10.422 45.0875 10.4454 62.6221C10.4537 68.783 1.95885 80.1099 -21.2808 80.4114C-44.5205 80.713 -53.045 69.8033 -53.0515 65.0013C-53.075 47.3639 -53.1216 12.5138 -53.1383 0.0274704Z"></path>
  <path fill="#503F7E" transform="matrix(1.8 0 0 1.52279 359.051 169.591)" d="M-53.1385 13.3474C-53.1385 0.861706 -46.8772 -16.9737 -30.7974 -16.9737C-14.7176 -16.9737 -10.9276 -16.9737 -3.8634 -16.9737C3.20083 -16.9737 10.3615 -12.9707 10.3615 2.73135C10.3615 18.4334 10.3615 47.7067 10.3615 56.4809C10.3615 99.4374 -53.1385 99.3952 -53.1385 56.4387C-53.1385 45.6553 -53.1385 25.833 -53.1385 13.3474Z"></path>
  <path fill="#503F7E" transform="matrix(1.8 0 0 1.64041 359.051 251.837)" d="M-53.1383 0.0274692C-53.1952 -42.595 10.3047 -42.6799 10.3617 -0.0573823C10.3843 16.8623 10.422 45.0875 10.4454 62.6221C10.4537 68.783 1.95885 80.1099 -21.2808 80.4114C-44.5205 80.713 -53.045 69.8033 -53.0515 65.0013C-53.075 47.3639 -53.1216 12.5138 -53.1383 0.0274692Z"></path>
  <path fill="none" stroke="black" stroke-width="5" stroke-linejoin="round" transform="matrix(1.67985 0 0 1.8 269.501 356.202)" d="M4.55644 -15.6825C22.7637 -14.9247 35.4975 -10.2186 33.2352 37.1232C33.001 51.2286 36.2232 66.2199 21.2409 74.0205C9.67228 73.9283 -3.25114 74.7347 -19.7158 74.4702C-30.5543 65.9596 -30.1185 50.4135 -29.8691 33.5929C-28.2653 -12.8724 -13.6509 -16.4403 4.55644 -15.6825Z"></path>
  <path fill="#453279" transform="matrix(1.67985 0 0 1.8 269.501 356.202)" d="M4.55644 -15.6825C22.7637 -14.9247 35.4975 -10.2186 33.2352 37.1232C33.001 51.2286 36.2232 66.2199 21.2409 74.0205C9.67228 73.9283 -3.25114 74.7347 -19.7158 74.4702C-30.5543 65.9596 -30.1185 50.4135 -29.8691 33.5929C-28.2653 -12.8724 -13.6509 -16.4403 4.55644 -15.6825Z"></path>
  <path fill="none" stroke="black" stroke-width="5" stroke-linejoin="round" transform="matrix(1.67985 0 0 1.8 191.63 362.835)" d="M1.14441e-05 -14.3439C18.2254 -14.3439 31.1711 -10.1719 31.1712 37.2169C31.7865 56.0934 34.5752 69.036 19.1016 75.646C3.62799 76.0176 -7.05902 76.224 -21.8955 75.8837C-36.732 69.3049 -32.1706 52.8104 -32.0389 36.314C-32.655 -10.1719 -18.2254 -14.3439 1.14441e-05 -14.3439Z"></path>
  <path fill="none" stroke="black" stroke-width="5" stroke-linejoin="round" transform="matrix(1.79976 0.0276995 -0.0293645 1.69771 275.119 279.649)" d="M-11.3238 -80.2543C25.8014 -80.2543 54.9476 -94.6926 58.9092 -40.8672C62.8708 12.9582 37.0524 74.7499 0.0572919 75.3534C-14.1177 75.5847 -17.7665 75.6442 -48.2096 76.1409C-78.6526 76.6376 -84.25 60.12 -84.25 0C-86.6294 -86.0849 -88.6034 -78.4854 -12.7475 -80.2208"></path>
  <path fill="#503F7E" transform="matrix(1.67985 0 0 1.8 191.63 362.835)" d="M1.14441e-05 -14.3439C18.2254 -14.3439 31.1711 -10.1719 31.1712 37.2169C31.7865 56.0934 34.5752 69.036 19.1016 75.646C3.62799 76.0176 -7.05902 76.224 -21.8955 75.8837C-36.732 69.3049 -32.1706 52.8104 -32.0389 36.314C-32.655 -10.1719 -18.2254 -14.3439 1.14441e-05 -14.3439Z"></path>
  <path fill="none" stroke="black" stroke-width="5" stroke-linejoin="round" transform="matrix(1.53139 0 0 1.39334 225.769 125.584)" d="M0 -40C20.9426 -40 35.0096 -26.8589 47.8597 -2.20017C49.1253 -3.81498 50.3123 -3.57652 51.1974 -3.11681C52.0824 -2.6571 52.5509 -1.60561 52.2206 -0.665335C53.8523 0.0632067 55.2854 1.47333 55.8775 2.67699C56.9197 4.79567 57.6743 10.5072 53.7931 11.8212C58.5977 31.9882 20.3682 22.0914 -1.32962e-05 22.0914C-20.2357 22.0914 -45.0732 28.3281 -41.8836 12.9784C-44.6787 11.8212 -48.2008 8.95145 -46.5316 4.29176C-45.7036 1.98007 -43.8185 0.567096 -42.3936 0.567005C-41.0392 0.566917 -42.9934 -2.19999 -40.2188 -3.8149C-39.0195 -4.5129 -37.7273 -4.43211 -36.6068 -4.12355C-28.0141 -23.731 -20.4124 -40 0 -40Z"></path>
  <path fill="#503F7E" transform="matrix(1.79976 0.0276995 -0.0293645 1.69771 275.119 279.649)" d="M-11.3238 -80.2543C25.8014 -80.2543 54.9476 -94.6926 58.9092 -40.8672C62.8708 12.9582 37.0524 74.7499 0.0572919 75.3534C-14.1177 75.5847 -17.7665 75.6442 -48.2096 76.1409C-78.6526 76.6376 -84.25 60.12 -84.25 0C-86.6442 -86.62 -88.6279 -78.3873 -11.3238 -80.2543Z"></path>
  <clipPath id="cl_294">
    <path d="M257.096 143.087C323.912 144.115 376.792 120.411 382.342 211.9C387.891 303.39 339.61 407.579 273.01 407.579C247.491 407.579 240.922 407.579 186.118 407.579C131.313 407.579 121.724 379.382 123.489 277.316C121.724 130.193 117.912 144.115 257.096 143.087Z"></path>
  </clipPath>
  <g clip-path="url(#cl_294)">
    <path fill="#655494" transform="matrix(1.8 0 0 1.8 312.245 261.728)" d="M-0.158644 -48.2655C25.513 -48.2655 46.324 -26.6563 46.324 0C46.324 26.6563 25.513 48.2655 -0.158644 48.2655C-25.8303 48.2655 -46.6413 26.6563 -46.6413 0C-46.6413 -26.6563 -25.8303 -48.2655 -0.158644 -48.2655Z"></path>
  </g>
  <path fill="none" stroke="black" stroke-width="2" stroke-linejoin="round" transform="matrix(3.88825 -0.763212 0.691401 3.5224 232.568 47.3358)" d="M-4.34758 -5.25471C-4.34758 -11.5047 3.66088 -11.5047 3.66088 -5.25471C3.66088 0.995287 3.66088 12.5 3.66088 12.5L-4.57314 12.5C-4.57314 12.5 -4.34758 0.995288 -4.34758 -5.25471Z"></path>
  <path fill="none" stroke="black" stroke-width="2" stroke-linejoin="round" transform="matrix(3.5224 -0.691401 0.691401 3.5224 198.36 52.7486)" d="M-5.1645 -6.50117C-5.1645 -12.7512 6 -12.7512 6 -6.50117C6 -0.251166 6 12.5 6 12.5L-6 12.5C-6 12.5 -5.1645 -0.251167 -5.1645 -6.50117Z"></path>
  <path fill="#453279" transform="matrix(3.88825 -0.763212 0.691401 3.5224 232.568 47.3358)" d="M-4.34758 -5.25471C-4.34758 -11.5047 3.66088 -11.5047 3.66088 -5.25471C3.66088 0.995287 3.66088 12.5 3.66088 12.5L-4.57314 12.5C-4.57314 12.5 -4.34758 0.995288 -4.34758 -5.25471Z"></path>
  <path fill="none" stroke="#161616" stroke-width="0.5" stroke-linecap="round" stroke-linejoin="round" transform="matrix(3.88825 -0.763212 0.691401 3.5224 227.775 27.8041)" d="M4.54547e-06 1.51652L3.83069e-06 10.5382"></path>
  <path fill="#503F7E" transform="matrix(3.5224 -0.691401 0.691401 3.5224 198.36 52.7486)" d="M-5.1645 -6.50116C-5.1645 -12.7512 6 -12.7512 6 -6.50116C6 -0.251162 6 12.5 6 12.5L-6 12.5C-6 12.5 -5.1645 -0.251163 -5.1645 -6.50116Z"></path>
  <path fill="none" stroke="#161616" stroke-width="0.5" stroke-linecap="round" stroke-linejoin="round" transform="matrix(3.5224 -0.691401 0.691401 3.5224 198.575 32.7301)" d="M1.21063e-06 7.65589e-06L5.02533e-06 10.5382"></path>
  <path fill="#503F7E" transform="matrix(1.53139 0 0 1.39334 225.769 125.584)" d="M0 -40C20.9426 -40 35.0096 -26.8589 47.8597 -2.20017C49.1253 -3.81498 50.3123 -3.57652 51.1974 -3.11681C52.0824 -2.6571 52.5509 -1.60561 52.2206 -0.665335C53.8523 0.0632067 55.2854 1.47333 55.8775 2.67699C56.9197 4.79567 57.6743 10.5072 53.7931 11.8212C58.5977 31.9882 20.3682 22.0914 -1.32962e-05 22.0914C-20.2357 22.0914 -45.0732 28.3281 -41.8836 12.9784C-44.6787 11.8212 -48.2008 8.95145 -46.5316 4.29176C-45.7036 1.98007 -43.8185 0.567096 -42.3936 0.567005C-41.0392 0.566917 -42.9934 -2.19999 -40.2188 -3.8149C-39.0195 -4.5129 -37.7273 -4.43211 -36.6068 -4.12355C-28.0141 -23.731 -20.4124 -40 0 -40Z"></path>
  <clipPath id="cl_295">
    <path d="M225.769 69.8503C257.84 69.8503 279.382 88.1603 299.06 122.518C300.999 120.268 302.816 120.601 304.172 121.241C305.527 121.882 306.244 123.347 305.739 124.657C308.237 125.672 310.432 127.637 311.339 129.314C312.935 132.266 314.09 140.224 308.147 142.055C315.504 170.155 256.96 156.365 225.769 156.365C194.78 156.365 156.744 165.055 161.629 143.667C157.348 142.055 151.955 138.056 154.511 131.564C155.779 128.343 158.666 126.374 160.848 126.374C162.922 126.374 159.929 122.519 164.178 120.269C166.015 119.296 167.994 119.409 169.71 119.838C182.868 92.5185 194.509 69.8503 225.769 69.8503Z"></path>
  </clipPath>
  <g clip-path="url(#cl_295)">
    <path fill="#7463A5" transform="matrix(1.8 2.98023e-08 0.00759348 1.8 223.603 110.441)" d="M1.90735e-06 -5.5C3.866 -5.5 7 -2.92564 7 0.25C7 3.42564 3.866 6 1.90735e-06 6C-3.86599 6 -7 3.42564 -7 0.25C-7 -2.92564 -3.86599 -5.5 1.90735e-06 -5.5Z"></path>
    <path fill="#7463A5" transform="matrix(1.83618 3.04014e-08 0.00759348 1.8 276.152 102.295)" d="M-9.53674e-07 -5.00001C2.76142 -5.00001 5 -2.6495 5 0.249992C5 3.14949 2.76142 5.49999 -9.53674e-07 5.49999C-2.76142 5.49999 -5 3.14949 -5 0.249992C-5 -2.6495 -2.76142 -5.00001 -9.53674e-07 -5.00001Z"></path>
    <path fill="none" stroke="#131212" stroke-width="1" stroke-linecap="round" stroke-linejoin="round" transform="matrix(2.30699 -0.373724 0.274137 1.69224 254.383 95.5994)" d="M2.39559e-06 7.21529e-06L2.92892 -0.71456"></path>
    <path fill="none" stroke="#131212" stroke-width="1" stroke-linecap="round" stroke-linejoin="round" transform="matrix(2.30699 -0.373724 0.274137 1.69224 232.633 94.7697)" d="M7.15256e-07 -1.48459e-07L4.25731 1.79213"></path>
    <path fill="#131212" transform="matrix(2.47104 -0.400299 0.405754 2.50471 246.418 97.8799)" d="M4.54078e-07 -2.15485e-07L1.9614 0.352738L0.91509 1.42246L4.54078e-07 -2.15485e-07Z"></path>
    <path fill="none" stroke="#131212" stroke-width="0.5" stroke-linecap="round" stroke-linejoin="round" transform="matrix(1.93759 -0.313883 0.31816 1.96399 249.477 101.415)" d="M1.18428e-07 -0.711224L-3.72341e-06 1.1102"></path>
    <path fill="#32225E" transform="matrix(1.74285 0.441491 -0.424043 1.74552 243.265 90.0143)" d="M-1.93607e-06 -1.92716C1.6285 -1.92716 2.94867 -1.06434 2.94867 -4.39386e-08C2.94867 1.06434 1.6285 1.92716 -1.87863e-06 1.92716C-1.62851 1.92716 -2.94867 1.06434 -2.94867 4.39386e-08C-2.94867 -1.06434 -1.62851 -1.92716 -1.93607e-06 -1.92716Z"></path>
    <path fill="#32225E" transform="matrix(1.71213 0.433708 -0.412468 1.69787 254.458 89.1394)" d="M-3.8147e-06 -1.89919C0.889985 -1.89919 1.61146 -1.04889 1.61146 -2.40127e-08C1.61146 1.04889 0.889985 1.89919 -3.8147e-06 1.89919C-0.889993 1.89919 -1.61147 1.04889 -1.61147 2.40127e-08C-1.61147 -1.04889 -0.889993 -1.89919 -3.8147e-06 -1.89919Z"></path>
  </g>
  <path fill="none" stroke="black" stroke-width="4" stroke-linejoin="round" transform="matrix(1.8 0 0 1.8 353.668 164.528)" d="M-11.7479 -12.9046C-11.318 -13.5165 -10.7601 -14.1187 -10.0572 -14.7065C-5.47351 -18.5399 3.93804 -16.1165 4.43081 -14.7065C7.46665 -16.1165 10.8961 -16.6614 15.0174 -13.9738C19.1387 -11.2862 16.2386 -4.86793 16.6118 -4.55444C16.985 -4.24095 25.2116 0.494543 17.5976 8.33766C16.6439 8.92035 15.7365 9.39702 14.8735 9.77867"></path>
  <path fill="#7463A5" transform="matrix(1.8 0 0 1.8 353.668 164.528)" d="M-0.116451 0C-2.60164 -0.66394 -7.05858 1.11792 -10.0572 -2.65576C-13.0559 -6.42944 -14.6409 -10.8732 -10.0572 -14.7065C-5.47351 -18.5399 3.93804 -16.1165 4.43081 -14.7065C7.46665 -16.1165 10.8961 -16.6614 15.0174 -13.9738C19.1387 -11.2862 16.2386 -4.86793 16.6118 -4.55444C16.985 -4.24095 25.2116 0.494543 17.5976 8.33766C2.9012 17.3171 -0.809982 1.11792 -0.116451 0Z"></path>
  <path fill="none" stroke="black" stroke-width="6" stroke-linejoin="round" transform="matrix(1.8 0 0 1.8 170.253 262.174)" d="M-21.0397 3.88588C-26.4975 -35.4629 36.4003 -44.187 41.8581 -4.83823C44.1827 11.921 48.0605 39.8786 50.4695 57.247C51.3159 63.3494 44.4413 75.7268 21.4588 79.1876C-1.52374 82.6485 -11.4534 73.0001 -12.1131 68.2436C-14.5363 50.7734 -19.3243 16.2538 -21.0397 3.88588Z"></path>
  <path fill="none" stroke="black" stroke-width="6" stroke-linecap="round" stroke-linejoin="bevel" transform="matrix(1.8 0 0 1.67094 170.253 171.927)" d="M39.6974 32.9159C40.7643 40.7491 41.683 47.4945 42.1573 50.9767C47.946 93.4782 -14.8871 103.367 -20.6758 60.865C-22.1289 50.1959 -24.8001 30.5836 -26.4827 18.2302C-28.1652 5.87674 -24.3736 -12.7489 -8.46414 -15.2635C-6.81127 -15.5247 -5.28965 -15.7652 -3.882 -15.9877"></path>
  <path fill="#503F7E" transform="matrix(1.8 0 0 1.8 170.253 262.174)" d="M-21.0397 3.88588C-26.7242 -37.0972 36.1737 -45.8213 41.8581 -4.83823C44.1827 11.921 48.0605 39.8786 50.4695 57.247C51.3159 63.3494 44.4413 75.7268 21.4588 79.1876C-1.52374 82.6485 -11.4534 73.0001 -12.1131 68.2436C-14.5363 50.7734 -19.3243 16.2538 -21.0397 3.88588Z"></path>
  <path fill="#503F7E" transform="matrix(1.8 0 0 1.67094 170.253 171.927)" d="M-26.4827 18.2302C-28.1652 5.87674 -24.3736 -12.7489 -8.46413 -15.2635C7.44534 -17.778 11.1951 -18.3707 18.1845 -19.4753C25.1739 -20.58 32.7981 -17.7392 34.9141 -2.20345C37.0301 13.3323 40.9749 42.2955 42.1573 50.9767C47.2491 88.3615 -15.584 98.2498 -20.6758 60.865C-22.1289 50.1958 -24.8001 30.5836 -26.4827 18.2302Z"></path>
</svg>