<?xml version="1.0" encoding="utf-8"?>
<svg xmlns="http://www.w3.org/2000/svg" xmlns:xlink="http://www.w3.org/1999/xlink" width="512" height="512">
  <path fill="none" stroke="black" stroke-width="6" stroke-linejoin="round" transform="matrix(1.8 0 0 1.52279 359.051 169.591)" d="M-2.68007 -16.9737C0.974143 -16.9737 3.62771 -16.9737 7.04953 -16.9737C14.1138 -16.9737 21.2744 -12.9707 21.2744 2.73135C21.2744 18.4334 21.2744 47.7067 21.2744 56.4809C21.2744 99.4374 -42.2256 99.3952 -42.2256 56.4387C-42.2256 45.6553 -42.2256 25.833 -42.2256 13.3474C-42.2256 0.86171 -35.9642 -16.9737 -19.8844 -16.9737C-18.6807 -16.9737 -17.5459 -16.9737 -16.4734 -16.9737"></path>
  <path fill="none" stroke="black" stroke-width="6" stroke-linejoin="round" transform="matrix(1.8 0 0 1.64041 359.051 251.837)" d="M-42.2175 0.545349C-42.9729 -42.0705 20.5171 -43.1959 21.2725 -0.580069C21.5724 16.337 22.0726 44.5578 22.3834 62.0897C22.4926 68.2495 14.1845 79.7141 -9.04708 80.3965C-32.2787 81.0788 -40.9809 70.3103 -41.066 65.509C-41.3786 47.8744 -41.9962 13.0297 -42.2175 0.545349Z"></path>
  <path fill="#503F7E" transform="matrix(1.8 0 0 1.52279 359.051 169.591)" d="M-42.2256 13.3474C-42.2256 0.861706 -35.9642 -16.9737 -19.8844 -16.9737C-3.80462 -16.9737 -0.0147018 -16.9737 7.04953 -16.9737C14.1138 -16.9737 21.2744 -12.9707 21.2744 2.73135C21.2744 18.4334 21.2744 47.7067 21.2744 56.4809C21.2744 99.4374 -42.2256 99.3952 -42.2256 56.4387C-42.2256 45.6553 -42.2256 25.833 -42.2256 13.3474Z"></path>
  <path fill="#503F7E" transform="matrix(1.8 0 0 1.64041 359.051 251.837)" d="M-42.2175 0.545348C-42.9729 -42.0705 20.5171 -43.1959 21.2725 -0.58007C21.5724 16.337 22.0726 44.5578 22.3834 62.0897C22.4926 68.2495 14.1845 79.7141 -9.04708 80.3965C-32.2787 81.0788 -40.9809 70.3103 -41.066 65.509C-41.3786 47.8744 -41.9962 13.0297 -42.2175 0.545348Z"></path>
  <path fill="none" stroke="black" stroke-width="5" stroke-linejoin="round" transform="matrix(1.67985 0 0 1.8 269.501 356.202)" d="M3.7204 -15.6844C21.9376 -15.173 34.743 -10.6396 33.2163 36.7278C33.2013 50.8349 36.7315 65.8838 21.7402 74.0604C10.1715 73.9682 -2.75191 74.7746 -19.2166 74.5101C-30.054 65.8962 -29.9242 50.8738 -29.9361 34.0516C-29.0543 -12.4305 -14.4968 -16.1957 3.7204 -15.6844Z"></path>
  <path fill="#453279" transform="matrix(1.67985 0 0 1.8 269.501 356.202)" d="M3.7204 -15.6844C21.9376 -15.173 34.743 -10.6396 33.2163 36.7278C33.2013 50.8349 36.7315 65.8838 21.7402 74.0604C10.1715 73.9682 -2.75191 74.7746 -19.2166 74.5101C-30.054 65.8962 -29.9242 50.8738 -29.9361 34.0516C-29.0543 -12.4305 -14.4968 -16.1957 3.7204 -15.6844Z"></path>
  <path fill="none" stroke="black" stroke-width="5" stroke-linejoin="round" transform="matrix(1.67985 0 0 1.8 191.63 362.835)" d="M-7.12741 -14.2689C11.0437 -15.5803 24.2956 -12.3522 28.2106 34.8956C30.3836 53.6715 34.107 68.0998 19.0941 75.4374C3.62044 75.8089 -7.06657 76.0153 -21.9031 75.675C-37.1295 69.9177 -33.6544 55.0003 -34.8859 38.5435C-39.3406 -7.75969 -25.2986 -12.9575 -7.12741 -14.2689Z"></path>
  <path fill="none" stroke="black" stroke-width="5" stroke-linejoin="round" transform="matrix(1.79976 0.0276995 -0.0293645 1.69771 262.138 279.649)" d="M-11.3238 -80.2543C25.8014 -80.2543 54.9476 -94.6926 58.9092 -40.8672C62.8708 12.9582 37.0524 74.7499 0.0572916 75.3534C-14.1177 75.5847 -17.7665 75.6442 -48.2096 76.1409C-78.6526 76.6376 -84.25 60.12 -84.25 9.53674e-07C-86.6294 -86.0849 -88.6034 -78.4854 -12.7475 -80.2208"></path>
  <path fill="#503F7E" transform="matrix(1.67985 0 0 1.8 191.63 362.835)" d="M-7.12741 -14.2689C11.0437 -15.5803 24.2956 -12.3522 28.2106 34.8956C30.3836 53.6715 34.107 68.0998 19.0941 75.4374C3.62044 75.8089 -7.06657 76.0153 -21.9031 75.675C-37.1295 69.9177 -33.6544 55.0003 -34.8859 38.5435C-39.3406 -7.75969 -25.2986 -12.9575 -7.12741 -14.2689Z"></path>
  <path fill="none" stroke="black" stroke-width="5" stroke-linejoin="round" transform="matrix(1.53139 0 0 1.39334 219.969 125.584)" d="M0 -40C20.9426 -40 35.0096 -26.8589 47.8597 -2.20017C49.1253 -3.81498 50.3123 -3.57652 51.1974 -3.11681C52.0824 -2.6571 52.5509 -1.60561 52.2206 -0.665335C53.8523 0.0632067 55.2854 1.47333 55.8775 2.67699C56.9197 4.79567 57.6743 10.5072 53.7931 11.8212C58.5977 31.9882 20.3682 22.0914 -1.32962e-05 22.0914C-20.2357 22.0914 -45.0732 28.3281 -41.8836 12.9784C-44.6787 11.8212 -48.2008 8.95145 -46.5316 4.29176C-45.7036 1.98007 -43.8185 0.567096 -42.3936 0.567005C-41.0392 0.566917 -42.9934 -2.19999 -40.2188 -3.8149C-39.0195 -4.5129 -37.7273 -4.43211 -36.6068 -4.12355C-28.0141 -23.731 -20.4124 -40 0 -40Z"></path>
  <path fill="#503F7E" transform="matrix(1.79976 0.0276995 -0.0293645 1.69771 262.138 279.649)" d="M-11.3238 -80.2543C25.8014 -80.2543 54.9476 -94.6926 58.9092 -40.8672C62.8708 12.9582 37.0524 74.7499 0.0572916 75.3534C-14.1177 75.5847 -17.7665 75.6442 -48.2096 76.1409C-78.6526 76.6376 -84.25 60.12 -84.25 9.53674e-07C-86.6442 -86.62 -88.6279 -78.3873 -11.3238 -80.2543Z"></path>
  <clipPath id="cl_a5">
    <path d="M244.114 143.087C310.931 144.115 363.811 120.411 369.36 211.9C374.91 303.39 326.628 407.579 260.028 407.579C234.51 407.579 227.941 407.579 173.136 407.579C118.331 407.579 108.743 379.382 110.508 277.316C108.743 130.193 104.931 144.115 244.114 143.087Z"></path>
  </clipPath>
  <g clip-path="url(#cl_a5)">
    <path fill="#655494" transform="matrix(1.8 0 0 1.8 299.263 261.728)" d="M-0.158646 -48.2655C25.513 -48.2655 46.324 -26.6563 46.324 0C46.324 26.6563 25.513 48.2655 -0.158646 48.2655C-25.8303 48.2655 -46.6413 26.6563 -46.6413 0C-46.6413 -26.6563 -25.8303 -48.2655 -0.158646 -48.2655Z"></path>
  </g>
  <path fill="none" stroke="black" stroke-width="2" stroke-linejoin="round" transform="matrix(3.88825 -0.763212 0.691401 3.5224 226.768 47.3358)" d="M-4.34758 -5.25471C-4.34758 -11.5047 3.66088 -11.5047 3.66088 -5.25471C3.66088 0.995287 3.66088 12.5 3.66088 12.5L-4.57314 12.5C-4.57314 12.5 -4.34758 0.995288 -4.34758 -5.25471Z"></path>
  <path fill="none" stroke="black" stroke-width="2" stroke-linejoin="round" transform="matrix(3.5224 -0.691401 0.691401 3.5224 192.56 52.7486)" d="M-5.1645 -6.50117C-5.1645 -12.7512 6 -12.7512 6 -6.50117C6 -0.251166 6 12.5 6 12.5L-6 12.5C-6 12.5 -5.1645 -0.251167 -5.1645 -6.50117Z"></path>
  <path fill="#453279" transform="matrix(3.88825 -0.763212 0.691401 3.5224 226.768 47.3358)" d="M-4.34758 -5.25471C-4.34758 -11.5047 3.66088 -11.5047 3.66088 -5.25471C3.66088 0.995287 3.66088 12.5 3.66088 12.5L-4.57314 12.5C-4.57314 12.5 -4.34758 0.995288 -4.34758 -5.25471Z"></path>
  <path fill="none" stroke="#161616" stroke-width="0.5" stroke-linecap="round" stroke-linejoin="round" transform="matrix(3.88825 -0.763212 0.691401 3.5224 221.975 27.8041)" d="M4.06863e-06 1.51652L3.35385e-06 10.5382"></path>
  <path fill="#503F7E" transform="matrix(3.5224 -0.691401 0.691401 3.5224 192.56 52.7486)" d="M-5.1645 -6.50117C-5.1645 -12.7512 6 -12.7512 6 -6.50117C6 -0.251166 6 12.5 6 12.5L-6 12.5C-6 12.5 -5.1645 -0.251167 -5.1645 -6.50117Z"></path>
  <path fill="none" stroke="#161616" stroke-width="0.5" stroke-linecap="round" stroke-linejoin="round" transform="matrix(3.5224 -0.691401 0.691401 3.5224 192.775 32.7301)" d="M4.95376e-07 2.6499e-08L4.31007e-06 10.5382"></path>
  <path fill="#503F7E" transform="matrix(1.53139 0 0 1.39334 219.969 125.584)" d="M0 -40C20.9426 -40 35.0096 -26.8589 47.8597 -2.20017C49.1253 -3.81498 50.3123 -3.57652 51.1974 -3.11681C52.0824 -2.6571 52.5509 -1.60561 52.2206 -0.665335C53.8523 0.0632067 55.2854 1.47333 55.8775 2.67699C56.9197 4.79567 57.6743 10.5072 53.7931 11.8212C58.5977 31.9882 20.3682 22.0914 -1.32962e-05 22.0914C-20.2357 22.0914 -45.0732 28.3281 -41.8836 12.9784C-44.6787 11.8212 -48.2008 8.95145 -46.5316 4.29176C-45.7036 1.98007 -43.8185 0.567096 -42.3936 0.567005C-41.0392 0.566917 -42.9934 -2.19999 -40.2188 -3.8149C-39.0195 -4.5129 -37.7273 -4.43211 -36.6068 -4.12355C-28.0141 -23.731 -20.4124 -40 0 -40Z"></path>
  <clipPath id="cl_a6">
    <path d="M219.969 69.8503C252.04 69.8503 273.582 88.1603 293.26 122.518C295.198 120.268 297.016 120.601 298.371 121.241C299.727 121.882 300.444 123.347 299.938 124.657C302.437 125.672 304.632 127.637 305.539 129.314C307.135 132.266 308.29 140.224 302.346 142.055C309.704 170.155 251.16 156.365 219.969 156.365C188.98 156.365 150.944 165.055 155.829 143.667C151.548 142.055 146.155 138.056 148.711 131.564C149.979 128.343 152.866 126.374 155.048 126.374C157.122 126.374 154.129 122.519 158.378 120.269C160.215 119.296 162.193 119.409 163.91 119.838C177.068 92.5185 188.709 69.8503 219.969 69.8503Z"></path>
  </clipPath>
  <g clip-path="url(#cl_a6)">
    <path fill="#7463A5" transform="matrix(1.8 2.98023e-08 0.00759348 1.8 213.033 110.441)" d="M1.90735e-06 -5.5C3.866 -5.5 7 -2.92564 7 0.25C7 3.42564 3.866 6 1.90735e-06 6C-3.86599 6 -7 3.42564 -7 0.25C-7 -2.92564 -3.86599 -5.5 1.90735e-06 -5.5Z"></path>
    <path fill="#7463A5" transform="matrix(1.83618 3.04014e-08 0.00759348 1.8 265.581 102.295)" d="M4.76837e-07 -5.00001C2.76142 -5.00001 5 -2.6495 5 0.249992C5 3.14949 2.76142 5.49999 4.76837e-07 5.49999C-2.76142 5.49999 -5 3.14949 -5 0.249992C-5 -2.6495 -2.76142 -5.00001 4.76837e-07 -5.00001Z"></path>
    <path fill="none" stroke="#131212" stroke-width="1" stroke-linecap="round" stroke-linejoin="round" transform="matrix(2.30699 -0.373724 0.274137 1.69224 243.813 95.5994)" d="M9.65083e-07 7.21529e-06L2.92891 -0.71456"></path>
    <path fill="none" stroke="#131212" stroke-width="1" stroke-linecap="round" stroke-linejoin="round" transform="matrix(2.30699 -0.373724 0.274137 1.69224 222.062 94.7697)" d="M-2.38419e-07 -1.48459e-07L4.25731 1.79213"></path>
    <path fill="#131212" transform="matrix(2.47104 -0.400299 0.405754 2.50471 235.847 97.8799)" d="M2.15659e-07 -4.03018e-06L1.9614 0.352734L0.91509 1.42246L2.15659e-07 -4.03018e-06Z"></path>
    <path fill="none" stroke="#131212" stroke-width="0.5" stroke-linecap="round" stroke-linejoin="round" transform="matrix(1.93759 -0.313883 0.31816 1.96399 238.907 101.415)" d="M1.18428e-07 -0.711224L-3.72341e-06 1.1102"></path>
    <path fill="#32225E" transform="matrix(1.74285 0.441491 -0.424043 1.74552 232.695 90.0143)" d="M-2.87169e-08 -1.92716C1.62851 -1.92716 2.94867 -1.06434 2.94867 -4.39386e-08C2.94867 1.06434 1.62851 1.92716 2.87169e-08 1.92716C-1.62851 1.92716 -2.94867 1.06434 -2.94867 4.39386e-08C-2.94867 -1.06434 -1.62851 -1.92716 -2.87169e-08 -1.92716Z"></path>
    <path fill="#32225E" transform="matrix(1.71213 0.433708 -0.412468 1.69787 243.887 89.1394)" d="M-3.8147e-06 -1.89919C0.889985 -1.89919 1.61146 -1.04889 1.61146 -2.40127e-08C1.61146 1.04889 0.889985 1.89919 -3.8147e-06 1.89919C-0.889993 1.89919 -1.61147 1.04889 -1.61147 2.40127e-08C-1.61147 -1.04889 -0.889993 -1.89919 -3.8147e-06 -1.89919Z"></path>
  </g>
  <path fill="none" stroke="black" stroke-width="4" stroke-linejoin="round" transform="matrix(1.8 0 0 1.8 337.368 164.528)" d="M-11.7479 -12.9046C-11.318 -13.5165 -10.7601 -14.1187 -10.0572 -14.7065C-5.47351 -18.5399 3.93804 -16.1165 4.43081 -14.7065C7.46664 -16.1165 10.8961 -16.6614 15.0174 -13.9738C19.1387 -11.2862 16.2386 -4.86793 16.6118 -4.55444C16.985 -4.24095 25.2116 0.494543 17.5976 8.33766C16.6439 8.92035 15.7365 9.39702 14.8735 9.77867"></path>
  <path fill="#7463A5" transform="matrix(1.8 0 0 1.8 337.368 164.528)" d="M-0.116455 0C-2.60165 -0.66394 -7.05858 1.11792 -10.0572 -2.65576C-13.0559 -6.42944 -14.6409 -10.8732 -10.0572 -14.7065C-5.47351 -18.5399 3.93804 -16.1165 4.43081 -14.7065C7.46664 -16.1165 10.8961 -16.6614 15.0174 -13.9738C19.1387 -11.2862 16.2386 -4.86793 16.6118 -4.55444C16.985 -4.24095 25.2116 0.494543 17.5976 8.33766C2.9012 17.3171 -0.809986 1.11792 -0.116455 0Z"></path>
  <path fill="none" stroke="black" stroke-width="6" stroke-linejoin="round" transform="matrix(1.8 0 0 1.8 170.253 262.174)" d="M-4.48453 31.2135C-43.9656 26.8131 -36.9316 -36.2962 2.54942 -31.8957C19.365 -30.0215 47.4165 -26.895 64.8433 -24.9527C70.9662 -24.2702 81.2694 -14.5592 78.964 8.56778C76.6585 31.6948 64.862 38.9426 60.0895 38.4107C42.5606 36.457 7.92499 32.5966 -4.48453 31.2135Z"></path>
  <path fill="none" stroke="black" stroke-width="6" stroke-linecap="round" stroke-linejoin="bevel" transform="matrix(1.8 0 0 1.67094 170.253 171.927)" d="M29.743 36.0648C30.2135 43.9432 30.6185 50.7244 30.8279 54.2288C33.3882 97.0967 -29.9833 101.447 -32.5436 58.5787C-33.1864 47.8176 -34.3678 28.0363 -35.112 15.5764C-35.8562 3.11645 -30.6708 -15.1153 -14.6242 -16.2275C-12.8989 -16.347 -11.3153 -16.4568 -9.85425 -16.5581"></path>
  <path fill="#503F7E" transform="matrix(1.8 0 0 1.8 170.253 262.174)" d="M-4.48453 31.2135C-45.6053 26.6303 -38.5714 -36.4789 2.54942 -31.8957C19.365 -30.0215 47.4165 -26.895 64.8433 -24.9527C70.9662 -24.2702 81.2694 -14.5592 78.964 8.56778C76.6585 31.6948 64.862 38.9426 60.0895 38.4107C42.5606 36.457 7.92499 32.5966 -4.48453 31.2135Z"></path>
  <path fill="#503F7E" transform="matrix(1.8 0 0 1.67094 170.253 171.927)" d="M-35.112 15.5764C-35.8562 3.11646 -30.6708 -15.1153 -14.6242 -16.2275C1.42244 -17.3396 5.20454 -17.6018 12.2542 -18.0904C19.3039 -18.579 26.6883 -15.0795 27.6242 0.590168C28.5601 16.2598 30.3049 45.4728 30.8279 54.2288C33.08 91.9358 -30.2915 96.2858 -32.5436 58.5787C-33.1864 47.8176 -34.3678 28.0363 -35.112 15.5764Z"></path>
</svg>