<?xml version="1.0" encoding="utf-8"?>
<svg xmlns="http://www.w3.org/2000/svg" xmlns:xlink="http://www.w3.org/1999/xlink" width="512" height="512">
  <path fill="none" stroke="black" stroke-width="6" stroke-linejoin="round" transform="matrix(1.8 0 0 1.52279 359.051 169.591)" d="M-18.035 -16.9737C-14.3808 -16.9737 -11.7272 -16.9737 -8.30536 -16.9737C-1.24113 -16.9737 5.91949 -12.9707 5.91949 2.73135C5.91949 18.4334 5.91949 47.7067 5.91949 56.4809C5.91949 99.4374 -57.5805 99.3952 -57.5805 56.4387C-57.5805 45.6553 -57.5805 25.833 -57.5805 13.3474C-57.5805 0.86171 -51.3191 -16.9737 -35.2393 -16.9737C-34.0356 -16.9737 -32.9008 -16.9737 -31.8283 -16.9737"></path>
  <path fill="none" stroke="black" stroke-width="6" stroke-linejoin="round" transform="matrix(1.8 0 0 1.64041 359.051 251.837)" d="M-57.5805 -0.365386C-57.1077 -42.9853 6.38841 -42.2808 5.91555 0.339086C5.72784 17.2577 5.41473 45.4812 5.2202 63.0148C5.15185 69.1753 -3.48309 80.3957 -26.7247 80.4084C-49.9664 80.421 -58.3546 69.4062 -58.3013 64.6045C-58.1057 46.9681 -57.7191 12.1202 -57.5805 -0.365386Z"></path>
  <path fill="#503F7E" transform="matrix(1.8 0 0 1.52279 359.051 169.591)" d="M-57.5805 13.3474C-57.5805 0.861706 -51.3191 -16.9737 -35.2393 -16.9737C-19.1595 -16.9737 -15.3696 -16.9737 -8.30536 -16.9737C-1.24113 -16.9737 5.91949 -12.9707 5.91949 2.73135C5.91949 18.4334 5.91949 47.7067 5.91949 56.4809C5.91949 99.4374 -57.5805 99.3952 -57.5805 56.4387C-57.5805 45.6553 -57.5805 25.833 -57.5805 13.3474Z"></path>
  <path fill="#503F7E" transform="matrix(1.8 0 0 1.64041 359.051 251.837)" d="M-57.5805 -0.365388C-57.1077 -42.9853 6.38841 -42.2808 5.91555 0.339085C5.72784 17.2577 5.41473 45.4812 5.2202 63.0148C5.15185 69.1753 -3.48309 80.3957 -26.7247 80.4084C-49.9664 80.421 -58.3546 69.4062 -58.3013 64.6045C-58.1057 46.9681 -57.7191 12.1202 -57.5805 -0.365388Z"></path>
  <path fill="none" stroke="black" stroke-width="5" stroke-linejoin="round" transform="matrix(1.67985 0 0 1.8 269.501 356.202)" d="M11.9963 -15.6831C30.2056 -14.9687 42.9522 -10.2929 40.8194 37.0541C40.6239 51.16 43.9002 66.1618 28.916 74.0286C17.3473 73.9365 4.42388 74.7428 -12.0408 74.4783C-22.8789 65.9495 -22.4976 50.4953 -22.2942 33.6742C-20.8177 -12.7948 -6.21302 -16.3975 11.9963 -15.6831Z"></path>
  <path fill="#453279" transform="matrix(1.67985 0 0 1.8 269.501 356.202)" d="M11.9963 -15.6831C30.2056 -14.9687 42.9522 -10.2929 40.8194 37.0541C40.6239 51.16 43.9002 66.1618 28.916 74.0286C17.3473 73.9365 4.42388 74.7428 -12.0408 74.4783C-22.8789 65.9495 -22.4976 50.4953 -22.2942 33.6742C-20.8177 -12.7948 -6.21302 -16.3975 11.9963 -15.6831Z"></path>
  <path fill="none" stroke="black" stroke-width="5" stroke-linejoin="round" transform="matrix(1.67985 0 0 1.8 191.63 362.835)" d="M1.14441e-05 -14.3439C18.2254 -14.3439 31.1711 -10.1719 31.1712 37.2169C31.7865 56.0934 34.5752 69.036 19.1016 75.646C3.62799 76.0176 -7.05902 76.224 -21.8955 75.8837C-36.732 69.3049 -32.1706 52.8104 -32.0389 36.314C-32.655 -10.1719 -18.2254 -14.3439 1.14441e-05 -14.3439Z"></path>
  <path fill="none" stroke="black" stroke-width="5" stroke-linejoin="round" transform="matrix(1.79976 0.0276995 -0.0293645 1.69771 278.114 279.649)" d="M-11.3238 -80.2543C25.8014 -80.2543 54.9476 -94.6926 58.9092 -40.8672C62.8708 12.9582 37.0524 74.7499 0.0572919 75.3534C-14.1177 75.5847 -17.7665 75.6442 -48.2096 76.1409C-78.6526 76.6376 -84.25 60.12 -84.25 0C-86.6294 -86.0849 -88.6034 -78.4854 -12.7475 -80.2208"></path>
  <path fill="#503F7E" transform="matrix(1.67985 0 0 1.8 191.63 362.835)" d="M1.14441e-05 -14.3439C18.2254 -14.3439 31.1711 -10.1719 31.1712 37.2169C31.7865 56.0934 34.5752 69.036 19.1016 75.646C3.62799 76.0176 -7.05902 76.224 -21.8955 75.8837C-36.732 69.3049 -32.1706 52.8104 -32.0389 36.314C-32.655 -10.1719 -18.2254 -14.3439 1.14441e-05 -14.3439Z"></path>
  <path fill="none" stroke="black" stroke-width="5" stroke-linejoin="round" transform="matrix(1.53139 0 0 1.39334 230.164 125.584)" d="M1.90735e-06 -40C20.9426 -40 35.0096 -26.8589 47.8597 -2.20017C49.1253 -3.81498 50.3123 -3.57652 51.1974 -3.11681C52.0824 -2.6571 52.5509 -1.60561 52.2206 -0.665335C53.8523 0.0632067 55.2854 1.47333 55.8775 2.67699C56.9197 4.79567 57.6743 10.5072 53.7931 11.8212C58.5977 31.9882 20.3682 22.0914 -1.13888e-05 22.0914C-20.2357 22.0914 -45.0732 28.3281 -41.8836 12.9784C-44.6787 11.8212 -48.2008 8.95145 -46.5316 4.29176C-45.7036 1.98007 -43.8185 0.567096 -42.3936 0.567005C-41.0392 0.566917 -42.9934 -2.19999 -40.2188 -3.8149C-39.0195 -4.5129 -37.7273 -4.43211 -36.6068 -4.12355C-28.0141 -23.731 -20.4124 -40 1.90735e-06 -40Z"></path>
  <path fill="#503F7E" transform="matrix(1.79976 0.0276995 -0.0293645 1.69771 278.114 279.649)" d="M-11.3238 -80.2543C25.8014 -80.2543 54.9476 -94.6926 58.9092 -40.8672C62.8708 12.9582 37.0524 74.7499 0.0572919 75.3534C-14.1177 75.5847 -17.7665 75.6442 -48.2096 76.1409C-78.6526 76.6376 -84.25 60.12 -84.25 0C-86.6442 -86.62 -88.6279 -78.3873 -11.3238 -80.2543Z"></path>
  <clipPath id="cl_1e0">
    <path d="M260.091 143.087C326.907 144.115 379.787 120.411 385.337 211.9C390.886 303.39 342.605 407.579 276.005 407.579C250.486 407.579 243.918 407.579 189.113 407.579C134.308 407.579 124.719 379.382 126.485 277.316C124.719 130.193 120.907 144.115 260.091 143.087Z"></path>
  </clipPath>
  <g clip-path="url(#cl_1e0)">
    <path fill="#655494" transform="matrix(1.8 0 0 1.8 315.24 261.728)" d="M-0.158646 -48.2655C25.513 -48.2655 46.324 -26.6563 46.324 0C46.324 26.6563 25.513 48.2655 -0.158646 48.2655C-25.8303 48.2655 -46.6413 26.6563 -46.6413 0C-46.6413 -26.6563 -25.8303 -48.2655 -0.158646 -48.2655Z"></path>
  </g>
  <path fill="none" stroke="black" stroke-width="2" stroke-linejoin="round" transform="matrix(3.88825 -0.763212 0.691401 3.5224 236.964 47.3358)" d="M-4.34758 -5.25471C-4.34758 -11.5047 3.66088 -11.5047 3.66088 -5.25471C3.66088 0.995287 3.66088 12.5 3.66088 12.5L-4.57314 12.5C-4.57314 12.5 -4.34758 0.995288 -4.34758 -5.25471Z"></path>
  <path fill="none" stroke="black" stroke-width="2" stroke-linejoin="round" transform="matrix(3.5224 -0.691401 0.691401 3.5224 202.756 52.7486)" d="M-5.1645 -6.50117C-5.1645 -12.7512 6 -12.7512 6 -6.50117C6 -0.251166 6 12.5 6 12.5L-6 12.5C-6 12.5 -5.1645 -0.251167 -5.1645 -6.50117Z"></path>
  <path fill="#453279" transform="matrix(3.88825 -0.763212 0.691401 3.5224 236.964 47.3358)" d="M-4.34758 -5.25471C-4.34758 -11.5047 3.66088 -11.5047 3.66088 -5.25471C3.66088 0.995287 3.66088 12.5 3.66088 12.5L-4.57314 12.5C-4.57314 12.5 -4.34758 0.995288 -4.34758 -5.25471Z"></path>
  <path fill="none" stroke="#161616" stroke-width="0.5" stroke-linecap="round" stroke-linejoin="round" transform="matrix(3.88825 -0.763212 0.691401 3.5224 232.17 27.8041)" d="M3.59179e-06 1.51652L2.87701e-06 10.5382"></path>
  <path fill="#503F7E" transform="matrix(3.5224 -0.691401 0.691401 3.5224 202.756 52.7486)" d="M-5.1645 -6.50117C-5.1645 -12.7512 6 -12.7512 6 -6.50117C6 -0.251166 6 12.5 6 12.5L-6 12.5C-6 12.5 -5.1645 -0.251167 -5.1645 -6.50117Z"></path>
  <path fill="none" stroke="#161616" stroke-width="0.5" stroke-linecap="round" stroke-linejoin="round" transform="matrix(3.5224 -0.691401 0.691401 3.5224 202.97 32.7301)" d="M4.95376e-07 2.6499e-08L4.31007e-06 10.5382"></path>
  <path fill="#503F7E" transform="matrix(1.53139 0 0 1.39334 230.164 125.584)" d="M1.90735e-06 -40C20.9426 -40 35.0096 -26.8589 47.8597 -2.20017C49.1253 -3.81498 50.3123 -3.57652 51.1974 -3.11681C52.0824 -2.6571 52.5509 -1.60561 52.2206 -0.665335C53.8523 0.0632067 55.2854 1.47333 55.8775 2.67699C56.9197 4.79567 57.6743 10.5072 53.7931 11.8212C58.5977 31.9882 20.3682 22.0914 -1.13888e-05 22.0914C-20.2357 22.0914 -45.0732 28.3281 -41.8836 12.9784C-44.6787 11.8212 -48.2008 8.95145 -46.5316 4.29176C-45.7036 1.98007 -43.8185 0.567096 -42.3936 0.567005C-41.0392 0.566917 -42.9934 -2.19999 -40.2188 -3.8149C-39.0195 -4.5129 -37.7273 -4.43211 -36.6068 -4.12355C-28.0141 -23.731 -20.4124 -40 1.90735e-06 -40Z"></path>
  <clipPath id="cl_1e1">
    <path d="M230.164 69.8503C262.236 69.8503 283.777 88.1603 303.456 122.518C305.394 120.268 307.212 120.601 308.567 121.241C309.923 121.882 310.64 123.347 310.134 124.657C312.633 125.672 314.828 127.637 315.734 129.314C317.33 132.266 318.486 140.224 312.542 142.055C319.9 170.155 261.356 156.365 230.164 156.365C199.176 156.365 161.14 165.055 166.024 143.667C161.744 142.055 156.35 138.056 158.906 131.564C160.175 128.343 163.061 126.374 165.243 126.374C167.318 126.374 164.325 122.519 168.574 120.269C170.41 119.296 172.389 119.409 174.105 119.838C187.264 92.5185 198.905 69.8503 230.164 69.8503Z"></path>
  </clipPath>
  <g clip-path="url(#cl_1e1)">
    <path fill="#7463A5" transform="matrix(1.8 2.98023e-08 0.00759348 1.8 235.53 110.441)" d="M0 -5.5C3.86599 -5.5 7 -2.92564 7 0.25C7 3.42564 3.86599 6 0 6C-3.86599 6 -7 3.42564 -7 0.25C-7 -2.92564 -3.86599 -5.5 0 -5.5Z"></path>
    <path fill="#7463A5" transform="matrix(1.83618 3.04014e-08 0.00759348 1.8 288.078 102.295)" d="M0 -5.00001C2.76142 -5.00001 5 -2.6495 5 0.249992C5 3.14949 2.76142 5.49999 0 5.49999C-2.76142 5.49999 -5 3.14949 -5 0.249992C-5 -2.6495 -2.76142 -5.00001 0 -5.00001Z"></path>
    <path fill="none" stroke="#131212" stroke-width="1" stroke-linecap="round" stroke-linejoin="round" transform="matrix(2.30699 -0.373724 0.274137 1.69224 266.31 95.5994)" d="M1.44192e-06 7.21529e-06L2.92891 -0.71456"></path>
    <path fill="none" stroke="#131212" stroke-width="1" stroke-linecap="round" stroke-linejoin="round" transform="matrix(2.30699 -0.373724 0.274137 1.69224 244.559 94.7697)" d="M9.53674e-07 7.48094e-06L4.25731 1.79213"></path>
    <path fill="#131212" transform="matrix(2.47104 -0.400299 0.405754 2.50471 258.344 97.8799)" d="M1.40775e-06 -2.15485e-07L1.96141 0.352738L0.915091 1.42246L1.40775e-06 -2.15485e-07Z"></path>
    <path fill="none" stroke="#131212" stroke-width="0.5" stroke-linecap="round" stroke-linejoin="round" transform="matrix(1.93759 -0.313883 0.31816 1.96399 261.404 101.415)" d="M1.18428e-07 -0.711224L-3.72341e-06 1.1102"></path>
    <path fill="#32225E" transform="matrix(1.74285 0.441491 -0.424043 1.74552 255.191 90.0143)" d="M-2.87169e-08 -1.92716C1.62851 -1.92716 2.94867 -1.06434 2.94867 -4.39386e-08C2.94867 1.06434 1.62851 1.92716 2.87169e-08 1.92716C-1.62851 1.92716 -2.94867 1.06434 -2.94867 4.39386e-08C-2.94867 -1.06434 -1.62851 -1.92716 -2.87169e-08 -1.92716Z"></path>
    <path fill="#32225E" transform="matrix(1.71213 0.433708 -0.412468 1.69787 266.384 89.1394)" d="M-3.8147e-06 -1.89919C0.889985 -1.89919 1.61146 -1.04889 1.61146 -2.40127e-08C1.61146 1.04889 0.889985 1.89919 -3.8147e-06 1.89919C-0.889993 1.89919 -1.61147 1.04889 -1.61147 2.40127e-08C-1.61147 -1.04889 -0.889993 -1.89919 -3.8147e-06 -1.89919Z"></path>
  </g>
  <path fill="none" stroke="black" stroke-width="4" stroke-linejoin="round" transform="matrix(1.8 0 0 1.8 364.002 164.528)" d="M-11.7479 -12.9046C-11.318 -13.5165 -10.7601 -14.1187 -10.0572 -14.7065C-5.47351 -18.5399 3.93804 -16.1165 4.43081 -14.7065C7.46664 -16.1165 10.8961 -16.6614 15.0174 -13.9738C19.1387 -11.2862 16.2386 -4.86793 16.6118 -4.55444C16.985 -4.24095 25.2116 0.494543 17.5976 8.33766C16.6439 8.92035 15.7365 9.39702 14.8735 9.77867"></path>
  <path fill="#7463A5" transform="matrix(1.8 0 0 1.8 364.002 164.528)" d="M-0.116455 0C-2.60165 -0.66394 -7.05858 1.11792 -10.0572 -2.65576C-13.0559 -6.42944 -14.6409 -10.8732 -10.0572 -14.7065C-5.47351 -18.5399 3.93804 -16.1165 4.43081 -14.7065C7.46664 -16.1165 10.8961 -16.6614 15.0174 -13.9738C19.1387 -11.2862 16.2386 -4.86793 16.6118 -4.55444C16.985 -4.24095 25.2116 0.494543 17.5976 8.33766C2.9012 17.3171 -0.809986 1.11792 -0.116455 0Z"></path>
  <path fill="none" stroke="black" stroke-width="6" stroke-linejoin="round" transform="matrix(1.8 0 0 1.8 170.253 262.174)" d="M55.0312 -0.512673C19.0254 -17.2966 45.8541 -74.8507 81.8598 -58.0668C97.1952 -50.9182 122.778 -38.9931 138.67 -31.5848C144.254 -28.9818 150.915 -16.4879 141.341 4.69031C131.767 25.8686 118.274 28.9675 113.921 26.9387C97.9352 19.4869 66.3484 4.76279 55.0312 -0.512673Z"></path>
  <path fill="none" stroke="black" stroke-width="6" stroke-linecap="round" stroke-linejoin="bevel" transform="matrix(1.8 0 0 1.67094 170.253 171.927)" d="M67.4315 -15.6417C74.4871 -12.1711 80.6198 -9.15455 83.7206 -7.62932C119.994 10.2133 93.5833 72.4204 57.3094 54.5778C48.2035 50.0988 31.465 41.8653 20.9217 36.6792C10.3783 31.4932 -2.08175 17.9493 4.59721 2.19249C5.14877 0.891243 5.66553 -0.327868 6.15111 -1.47344"></path>
  <path fill="#503F7E" transform="matrix(1.8 0 0 1.8 170.253 262.174)" d="M55.0312 -0.512674C17.53 -17.9937 44.3586 -75.5478 81.8598 -58.0668C97.1952 -50.9182 122.778 -38.9931 138.67 -31.5848C144.254 -28.9818 150.915 -16.4879 141.341 4.69031C131.767 25.8686 118.274 28.9675 113.921 26.9387C97.9352 19.4869 66.3484 4.76279 55.0312 -0.512674Z"></path>
  <path fill="#503F7E" transform="matrix(1.8 0 0 1.67094 170.253 171.927)" d="M20.9217 36.6792C10.3783 31.4932 -2.08175 17.9493 4.59722 2.19249C11.2762 -13.5644 12.8504 -17.2782 15.7846 -24.2005C18.7188 -31.1229 25.0734 -36.477 38.3327 -29.9549C51.5921 -23.4328 76.3114 -11.2738 83.7206 -7.62932C115.628 8.0652 89.2163 70.2723 57.3094 54.5778C48.2035 50.0988 31.465 41.8653 20.9217 36.6792Z"></path>
</svg>