<?xml version="1.0" encoding="utf-8"?>
<svg xmlns="http://www.w3.org/2000/svg" xmlns:xlink="http://www.w3.org/1999/xlink" width="512" height="512">
  <path fill="none" stroke="black" stroke-width="6" stroke-linejoin="round" transform="matrix(1.8 0 0 1.52279 359.051 169.591)" d="M-8.75553 -16.9737C-5.10132 -16.9737 -2.44775 -16.9737 0.974079 -16.9737C8.03831 -16.9737 15.1989 -12.9707 15.1989 2.73135C15.1989 18.4334 15.1989 47.7067 15.1989 56.4809C15.1989 99.4374 -48.3011 99.3952 -48.3011 56.4387C-48.3011 45.6553 -48.3011 25.833 -48.3011 13.3474C-48.3011 0.86171 -42.0397 -16.9737 -25.9599 -16.9737C-24.7562 -16.9737 -23.6213 -16.9737 -22.5489 -16.9737"></path>
  <path fill="none" stroke="black" stroke-width="6" stroke-linejoin="round" transform="matrix(1.8 0 0 1.64041 359.051 251.837)" d="M-48.2996 0.165493C-48.5426 -42.4563 14.9563 -42.8185 15.1994 -0.196665C15.2959 16.7228 15.4569 44.9475 15.5569 62.4819C15.592 68.6426 7.14678 80.0065 -16.0914 80.4096C-39.3295 80.8126 -47.9016 69.9403 -47.929 65.1383C-48.0296 47.5012 -48.2283 12.6517 -48.2996 0.165493Z"></path>
  <path fill="#503F7E" transform="matrix(1.8 0 0 1.52279 359.051 169.591)" d="M-48.3011 13.3474C-48.3011 0.861706 -42.0397 -16.9737 -25.9599 -16.9737C-9.88008 -16.9737 -6.09016 -16.9737 0.974079 -16.9737C8.03831 -16.9737 15.1989 -12.9707 15.1989 2.73135C15.1989 18.4334 15.1989 47.7067 15.1989 56.4809C15.1989 99.4374 -48.3011 99.3952 -48.3011 56.4387C-48.3011 45.6553 -48.3011 25.833 -48.3011 13.3474Z"></path>
  <path fill="#503F7E" transform="matrix(1.8 0 0 1.64041 359.051 251.837)" d="M-48.2996 0.165492C-48.5426 -42.4563 14.9563 -42.8185 15.1994 -0.196666C15.2959 16.7228 15.4569 44.9475 15.5569 62.4819C15.592 68.6426 7.14678 80.0065 -16.0914 80.4096C-39.3295 80.8126 -47.9016 69.9403 -47.929 65.1383C-48.0296 47.5012 -48.2283 12.6516 -48.2996 0.165492Z"></path>
  <path fill="none" stroke="black" stroke-width="5" stroke-linejoin="round" transform="matrix(1.67985 0 0 1.8 269.501 356.202)" d="M7.61419 -15.6843C25.8341 -15.2655 38.6658 -10.7973 37.4156 36.5772C37.4829 50.6842 41.1291 65.7536 26.1358 74.0715C14.5671 73.9793 1.64372 74.7857 -14.821 74.5212C-25.6584 65.8685 -25.6415 51.0439 -25.7515 34.222C-25.141 -12.2639 -10.6057 -16.103 7.61419 -15.6843Z"></path>
  <path fill="#453279" transform="matrix(1.67985 0 0 1.8 269.501 356.202)" d="M7.61419 -15.6843C25.8341 -15.2655 38.6658 -10.7973 37.4156 36.5772C37.4829 50.6842 41.1291 65.7536 26.1358 74.0715C14.5671 73.9793 1.64372 74.7857 -14.821 74.5212C-25.6584 65.8685 -25.6415 51.0439 -25.7515 34.222C-25.141 -12.2639 -10.6057 -16.103 7.61419 -15.6843Z"></path>
  <path fill="none" stroke="black" stroke-width="5" stroke-linejoin="round" transform="matrix(1.67985 0 0 1.8 191.63 362.835)" d="M-4.62076 -14.305C13.5818 -15.1564 26.7351 -11.5944 29.2767 35.7351C30.9037 54.5591 34.2849 68.4734 19.1033 75.5593C3.6297 75.9308 -7.05732 76.1372 -21.8938 75.7969C-36.991 69.7479 -33.1494 54.2679 -33.9026 37.7859C-37.0111 -8.61289 -22.8233 -13.4537 -4.62076 -14.305Z"></path>
  <path fill="none" stroke="black" stroke-width="5" stroke-linejoin="round" transform="matrix(1.79976 0.0276995 -0.0293645 1.69771 268.213 279.649)" d="M-11.3238 -80.2543C25.8014 -80.2543 54.9476 -94.6926 58.9092 -40.8672C62.8708 12.9582 37.0524 74.7499 0.0572914 75.3534C-14.1177 75.5847 -17.7665 75.6442 -48.2096 76.1409C-78.6526 76.6376 -84.25 60.12 -84.25 9.53674e-07C-86.6294 -86.0849 -88.6034 -78.4854 -12.7475 -80.2208"></path>
  <path fill="#503F7E" transform="matrix(1.67985 0 0 1.8 191.63 362.835)" d="M-4.62076 -14.305C13.5818 -15.1564 26.7351 -11.5944 29.2767 35.7351C30.9037 54.5591 34.2849 68.4734 19.1033 75.5593C3.6297 75.9308 -7.05732 76.1372 -21.8938 75.7969C-36.991 69.7479 -33.1494 54.2679 -33.9026 37.7859C-37.0111 -8.61289 -22.8233 -13.4537 -4.62076 -14.305Z"></path>
  <path fill="none" stroke="black" stroke-width="5" stroke-linejoin="round" transform="matrix(1.53139 0 0 1.39334 224.221 125.584)" d="M0 -40C20.9426 -40 35.0096 -26.8589 47.8597 -2.20017C49.1253 -3.81498 50.3123 -3.57652 51.1974 -3.11681C52.0824 -2.6571 52.5509 -1.60561 52.2206 -0.665335C53.8523 0.0632067 55.2854 1.47333 55.8775 2.67699C56.9197 4.79567 57.6743 10.5072 53.7931 11.8212C58.5977 31.9882 20.3682 22.0914 -1.32962e-05 22.0914C-20.2357 22.0914 -45.0732 28.3281 -41.8836 12.9784C-44.6787 11.8212 -48.2008 8.95145 -46.5316 4.29176C-45.7036 1.98007 -43.8185 0.567096 -42.3936 0.567005C-41.0392 0.566917 -42.9934 -2.19999 -40.2188 -3.8149C-39.0195 -4.5129 -37.7273 -4.43211 -36.6068 -4.12355C-28.0141 -23.731 -20.4124 -40 0 -40Z"></path>
  <path fill="#503F7E" transform="matrix(1.79976 0.0276995 -0.0293645 1.69771 268.213 279.649)" d="M-11.3238 -80.2543C25.8014 -80.2543 54.9476 -94.6926 58.9092 -40.8672C62.8708 12.9582 37.0524 74.7499 0.0572914 75.3534C-14.1177 75.5847 -17.7665 75.6442 -48.2096 76.1409C-78.6526 76.6376 -84.25 60.12 -84.25 9.53674e-07C-86.6442 -86.62 -88.6279 -78.3873 -11.3238 -80.2543Z"></path>
  <clipPath id="cl_db">
    <path d="M250.19 143.087C317.006 144.115 369.886 120.411 375.436 211.9C380.985 303.39 332.704 407.579 266.104 407.579C240.585 407.579 234.016 407.579 179.212 407.579C124.407 407.579 114.818 379.382 116.583 277.316C114.818 130.193 111.006 144.115 250.19 143.087Z"></path>
  </clipPath>
  <g clip-path="url(#cl_db)">
    <path fill="#655494" transform="matrix(1.8 0 0 1.8 305.339 261.728)" d="M-0.158646 -48.2655C25.513 -48.2655 46.324 -26.6563 46.324 0C46.324 26.6563 25.513 48.2655 -0.158646 48.2655C-25.8303 48.2655 -46.6413 26.6563 -46.6413 0C-46.6413 -26.6563 -25.8303 -48.2655 -0.158646 -48.2655Z"></path>
  </g>
  <path fill="none" stroke="black" stroke-width="2" stroke-linejoin="round" transform="matrix(3.88825 -0.763212 0.691401 3.5224 231.021 47.3358)" d="M-4.34758 -5.25471C-4.34758 -11.5047 3.66088 -11.5047 3.66088 -5.25472C3.66088 0.995284 3.66088 12.5 3.66088 12.5L-4.57314 12.5C-4.57314 12.5 -4.34758 0.995284 -4.34758 -5.25471Z"></path>
  <path fill="none" stroke="black" stroke-width="2" stroke-linejoin="round" transform="matrix(3.5224 -0.691401 0.691401 3.5224 196.813 52.7486)" d="M-5.1645 -6.50117C-5.16451 -12.7512 6 -12.7512 6 -6.50117C6 -0.251166 6 12.5 6 12.5L-6 12.5C-6 12.5 -5.1645 -0.251167 -5.1645 -6.50117Z"></path>
  <path fill="#453279" transform="matrix(3.88825 -0.763212 0.691401 3.5224 231.021 47.3358)" d="M-4.34758 -5.25471C-4.34758 -11.5047 3.66088 -11.5047 3.66088 -5.25472C3.66088 0.995284 3.66088 12.5 3.66088 12.5L-4.57314 12.5C-4.57314 12.5 -4.34758 0.995284 -4.34758 -5.25471Z"></path>
  <path fill="none" stroke="#161616" stroke-width="0.5" stroke-linecap="round" stroke-linejoin="round" transform="matrix(3.88825 -0.763212 0.691401 3.5224 226.227 27.8041)" d="M4.06863e-06 1.51652L3.35385e-06 10.5382"></path>
  <path fill="#503F7E" transform="matrix(3.5224 -0.691401 0.691401 3.5224 196.813 52.7486)" d="M-5.1645 -6.50117C-5.16451 -12.7512 6 -12.7512 6 -6.50117C6 -0.251166 6 12.5 6 12.5L-6 12.5C-6 12.5 -5.1645 -0.251167 -5.1645 -6.50117Z"></path>
  <path fill="none" stroke="#161616" stroke-width="0.5" stroke-linecap="round" stroke-linejoin="round" transform="matrix(3.5224 -0.691401 0.691401 3.5224 197.027 32.7301)" d="M1.85391e-08 7.65589e-06L3.83324e-06 10.5382"></path>
  <path fill="#503F7E" transform="matrix(1.53139 0 0 1.39334 224.221 125.584)" d="M0 -40C20.9426 -40 35.0096 -26.8589 47.8597 -2.20017C49.1253 -3.81498 50.3123 -3.57652 51.1974 -3.11681C52.0824 -2.6571 52.5509 -1.60561 52.2206 -0.665335C53.8523 0.0632067 55.2854 1.47333 55.8775 2.67699C56.9197 4.79567 57.6743 10.5072 53.7931 11.8212C58.5977 31.9882 20.3682 22.0914 -1.32962e-05 22.0914C-20.2357 22.0914 -45.0732 28.3281 -41.8836 12.9784C-44.6787 11.8212 -48.2008 8.95145 -46.5316 4.29176C-45.7036 1.98007 -43.8185 0.567096 -42.3936 0.567005C-41.0392 0.566917 -42.9934 -2.19999 -40.2188 -3.8149C-39.0195 -4.5129 -37.7273 -4.43211 -36.6068 -4.12355C-28.0141 -23.731 -20.4124 -40 0 -40Z"></path>
  <clipPath id="cl_dc">
    <path d="M224.221 69.8503C256.293 69.8503 277.835 88.1603 297.513 122.518C299.451 120.268 301.269 120.601 302.624 121.241C303.98 121.882 304.697 123.347 304.191 124.657C306.69 125.672 308.885 127.637 309.791 129.314C311.387 132.266 312.543 140.224 306.599 142.055C313.957 170.155 255.413 156.365 224.221 156.365C193.233 156.365 155.197 165.055 160.081 143.667C155.801 142.055 150.407 138.056 152.964 131.564C154.232 128.343 157.118 126.374 159.3 126.374C161.375 126.374 158.382 122.519 162.631 120.269C164.467 119.296 166.446 119.409 168.162 119.838C181.321 92.5185 192.962 69.8503 224.221 69.8503Z"></path>
  </clipPath>
  <g clip-path="url(#cl_dc)">
    <path fill="#7463A5" transform="matrix(1.8 2.98023e-08 0.00759348 1.8 222.754 110.441)" d="M0 -5.5C3.86599 -5.5 7 -2.92564 7 0.25C7 3.42564 3.86599 6 0 6C-3.86599 6 -7 3.42564 -7 0.25C-7 -2.92564 -3.86599 -5.5 0 -5.5Z"></path>
    <path fill="#7463A5" transform="matrix(1.83618 3.04014e-08 0.00759348 1.8 275.302 102.295)" d="M0 -5.00001C2.76142 -5.00001 5 -2.6495 5 0.249992C5 3.14949 2.76142 5.49999 0 5.49999C-2.76142 5.49999 -5 3.14949 -5 0.249992C-5 -2.6495 -2.76142 -5.00001 0 -5.00001Z"></path>
    <path fill="none" stroke="#131212" stroke-width="1" stroke-linecap="round" stroke-linejoin="round" transform="matrix(2.30699 -0.373724 0.274137 1.69224 253.533 95.5994)" d="M1.44192e-06 7.21529e-06L2.92891 -0.71456"></path>
    <path fill="none" stroke="#131212" stroke-width="1" stroke-linecap="round" stroke-linejoin="round" transform="matrix(2.30699 -0.373724 0.274137 1.69224 231.783 94.7697)" d="M0 -1.48459e-07L4.25731 1.79213"></path>
    <path fill="#131212" transform="matrix(2.47104 -0.400299 0.405754 2.50471 245.568 97.8799)" d="M4.54078e-07 -2.15485e-07L1.9614 0.352738L0.91509 1.42246L4.54078e-07 -2.15485e-07Z"></path>
    <path fill="none" stroke="#131212" stroke-width="0.5" stroke-linecap="round" stroke-linejoin="round" transform="matrix(1.93759 -0.313883 0.31816 1.96399 248.627 101.415)" d="M1.18428e-07 -0.711224L-3.72341e-06 1.1102"></path>
    <path fill="#32225E" transform="matrix(1.74285 0.441491 -0.424043 1.74552 242.415 90.0143)" d="M-1.93607e-06 -1.92716C1.6285 -1.92716 2.94867 -1.06434 2.94867 -4.39386e-08C2.94867 1.06434 1.6285 1.92716 -1.87863e-06 1.92716C-1.62851 1.92716 -2.94867 1.06434 -2.94867 4.39386e-08C-2.94867 -1.06434 -1.62851 -1.92716 -1.93607e-06 -1.92716Z"></path>
    <path fill="#32225E" transform="matrix(1.71213 0.433708 -0.412468 1.69787 253.608 89.1394)" d="M-3.8147e-06 -1.89918C0.889985 -1.89918 1.61146 -1.04889 1.61146 7.60538e-06C1.61146 1.0489 0.889985 1.8992 -3.8147e-06 1.8992C-0.889993 1.8992 -1.61147 1.0489 -1.61147 7.65341e-06C-1.61147 -1.04889 -0.889993 -1.89918 -3.8147e-06 -1.89918Z"></path>
  </g>
  <path fill="none" stroke="black" stroke-width="4" stroke-linejoin="round" transform="matrix(1.8 0 0 1.8 348.304 164.528)" d="M-11.7479 -12.9046C-11.318 -13.5165 -10.7601 -14.1187 -10.0572 -14.7065C-5.47351 -18.5399 3.93803 -16.1165 4.43081 -14.7065C7.46664 -16.1165 10.8961 -16.6614 15.0174 -13.9738C19.1387 -11.2862 16.2386 -4.86793 16.6118 -4.55444C16.985 -4.24095 25.2116 0.494543 17.5976 8.33766C16.6439 8.92035 15.7365 9.39702 14.8735 9.77867"></path>
  <path fill="#7463A5" transform="matrix(1.8 0 0 1.8 348.304 164.528)" d="M-0.116459 0C-2.60165 -0.66394 -7.05859 1.11792 -10.0572 -2.65576C-13.0559 -6.42944 -14.641 -10.8732 -10.0572 -14.7065C-5.47351 -18.5399 3.93803 -16.1165 4.43081 -14.7065C7.46664 -16.1165 10.8961 -16.6614 15.0174 -13.9738C19.1387 -11.2862 16.2386 -4.86793 16.6118 -4.55444C16.985 -4.24095 25.2116 0.494543 17.5976 8.33766C2.90119 17.3171 -0.80999 1.11792 -0.116459 0Z"></path>
  <path fill="none" stroke="black" stroke-width="6" stroke-linejoin="round" transform="matrix(1.8 0 0 1.8 170.253 262.174)" d="M33.9626 22.906C-5.65212 19.9412 -0.913017 -43.3817 38.7017 -40.4169C55.5742 -39.1542 83.7207 -37.0477 101.206 -35.739C107.35 -35.2792 117.999 -25.9486 116.534 -2.7531C115.07 20.4424 103.544 28.1135 98.7552 27.7551C81.167 26.4388 46.4141 23.8379 33.9626 22.906Z"></path>
  <path fill="none" stroke="black" stroke-width="6" stroke-linecap="round" stroke-linejoin="bevel" transform="matrix(1.8 0 0 1.67094 170.253 171.927)" d="M54.2195 12.1737C58.4388 18.8974 62.0873 24.7113 63.9529 27.6844C86.2855 63.2724 33.656 101.547 11.3235 65.9588C5.71737 57.0252 -4.58794 40.6032 -11.0791 30.2592C-17.5702 19.9153 -21.6553 1.36178 -8.33371 -8.33913C-7.18481 -9.17578 -6.11163 -9.95728 -5.10592 -10.6896"></path>
  <path fill="#503F7E" transform="matrix(1.8 0 0 1.8 170.253 262.174)" d="M33.9626 22.906C-7.29745 19.8181 -2.55834 -43.5048 38.7017 -40.4169C55.5742 -39.1542 83.7207 -37.0477 101.206 -35.739C107.35 -35.2792 117.999 -25.9486 116.534 -2.7531C115.07 20.4423 103.544 28.1135 98.7552 27.7551C81.167 26.4388 46.4141 23.8379 33.9626 22.906Z"></path>
  <path fill="#503F7E" transform="matrix(1.8 0 0 1.67094 170.253 171.927)" d="M-11.0791 30.2592C-17.5702 19.9153 -21.6553 1.36178 -8.3337 -8.33913C4.98786 -18.04 8.12766 -20.3265 13.9801 -24.5883C19.8326 -28.8502 27.846 -29.8538 36.0093 -16.8452C44.1726 -3.83658 59.3914 20.4153 63.9529 27.6844C83.5969 58.9879 30.9674 97.2624 11.3235 65.9588C5.71738 57.0252 -4.58793 40.6032 -11.0791 30.2592Z"></path>
</svg>