<?xml version="1.0" encoding="utf-8"?>
<svg xmlns="http://www.w3.org/2000/svg" xmlns:xlink="http://www.w3.org/1999/xlink" width="512" height="512">
  <path fill="none" stroke="black" stroke-width="6" stroke-linejoin="round" transform="matrix(1.8 0 0 1.52279 359.051 169.591)" d="M-10.3943 -16.9737C-6.74008 -16.9737 -4.08651 -16.9737 -0.66468 -16.9737C6.39955 -16.9737 13.5602 -12.9707 13.5602 2.73135C13.5602 18.4334 13.5602 47.7067 13.5602 56.4809C13.5602 99.4374 -49.9398 99.3952 -49.9398 56.4387C-49.9398 45.6553 -49.9398 25.833 -49.9398 13.3474C-49.9398 0.86171 -43.6785 -16.9737 -27.5987 -16.9737C-26.3949 -16.9737 -25.2601 -16.9737 -24.1876 -16.9737"></path>
  <path fill="none" stroke="black" stroke-width="6" stroke-linejoin="round" transform="matrix(1.8 0 0 1.64041 359.051 251.837)" d="M-49.9379 0.202304C-50.2306 -42.4192 13.2679 -42.8553 13.5606 -0.233822C13.6768 16.6855 13.8707 44.91 13.9911 62.4443C14.0334 68.605 5.60144 79.9787 -17.6362 80.4088C-40.8739 80.8389 -49.4586 69.9766 -49.4916 65.1746C-49.6128 47.5376 -49.8521 12.6884 -49.9379 0.202304Z"></path>
  <path fill="#503F7E" transform="matrix(1.8 0 0 1.52279 359.051 169.591)" d="M-49.9398 13.3474C-49.9398 0.861706 -43.6785 -16.9737 -27.5987 -16.9737C-11.5188 -16.9737 -7.72892 -16.9737 -0.66468 -16.9737C6.39955 -16.9737 13.5602 -12.9707 13.5602 2.73135C13.5602 18.4334 13.5602 47.7067 13.5602 56.4809C13.5602 99.4374 -49.9398 99.3952 -49.9398 56.4387C-49.9398 45.6553 -49.9398 25.833 -49.9398 13.3474Z"></path>
  <path fill="#503F7E" transform="matrix(1.8 0 0 1.64041 359.051 251.837)" d="M-49.9379 0.202303C-50.2306 -42.4192 13.2679 -42.8553 13.5606 -0.233823C13.6768 16.6855 13.8707 44.91 13.9911 62.4443C14.0334 68.605 5.60144 79.9787 -17.6362 80.4088C-40.8739 80.8389 -49.4586 69.9766 -49.4916 65.1746C-49.6128 47.5376 -49.8521 12.6884 -49.9379 0.202303Z"></path>
  <path fill="none" stroke="black" stroke-width="5" stroke-linejoin="round" transform="matrix(1.67985 0 0 1.8 269.501 356.202)" d="M3.24853 -15.6843C21.4653 -15.1617 34.2676 -10.6205 32.7074 36.746C32.6824 50.8531 36.1986 65.8994 21.2075 74.0589C9.63882 73.9668 -3.28459 74.7731 -19.7493 74.5086C-30.5867 65.8994 -30.4431 50.8531 -30.4431 34.0309C-29.5284 -12.4507 -14.9683 -16.207 3.24853 -15.6843Z"></path>
  <path fill="#453279" transform="matrix(1.67985 0 0 1.8 269.501 356.202)" d="M3.24853 -15.6843C21.4653 -15.1617 34.2676 -10.6205 32.7074 36.746C32.6824 50.8531 36.1986 65.8994 21.2075 74.0589C9.63882 73.9668 -3.28459 74.7731 -19.7493 74.5086C-30.5867 65.8994 -30.4431 50.8531 -30.4431 34.0309C-29.5284 -12.4507 -14.9683 -16.207 3.24853 -15.6843Z"></path>
  <path fill="none" stroke="black" stroke-width="5" stroke-linejoin="round" transform="matrix(1.67985 0 0 1.8 191.63 362.835)" d="M-1.72346 -14.3336C16.4988 -14.6514 29.5258 -10.7059 30.4745 36.6747C31.4677 55.5371 34.4714 68.8455 19.1038 75.6347C3.63015 76.0062 -7.05686 76.2127 -21.8933 75.8723C-36.8304 69.4898 -32.544 53.3699 -32.7426 36.874C-34.2892 -9.59296 -19.9457 -14.0158 -1.72346 -14.3336Z"></path>
  <path fill="none" stroke="black" stroke-width="5" stroke-linejoin="round" transform="matrix(1.79976 0.0276995 -0.0293645 1.69771 271.603 279.649)" d="M-11.3238 -80.2543C25.8014 -80.2543 54.9476 -94.6926 58.9092 -40.8672C62.8708 12.9582 37.0524 74.7499 0.0572919 75.3534C-14.1177 75.5847 -17.7665 75.6442 -48.2096 76.1409C-78.6526 76.6376 -84.25 60.12 -84.25 0C-86.6294 -86.0849 -88.6034 -78.4854 -12.7475 -80.2208"></path>
  <path fill="#503F7E" transform="matrix(1.67985 0 0 1.8 191.63 362.835)" d="M-1.72346 -14.3336C16.4988 -14.6514 29.5258 -10.7059 30.4745 36.6747C31.4677 55.5371 34.4714 68.8455 19.1038 75.6347C3.63015 76.0062 -7.05686 76.2127 -21.8933 75.8723C-36.8304 69.4898 -32.544 53.3699 -32.7426 36.874C-34.2892 -9.59296 -19.9457 -14.0158 -1.72346 -14.3336Z"></path>
  <path fill="none" stroke="black" stroke-width="5" stroke-linejoin="round" transform="matrix(1.53139 0 0 1.39334 223.811 125.584)" d="M1.90735e-06 -40C20.9426 -40 35.0096 -26.8589 47.8597 -2.20017C49.1253 -3.81498 50.3123 -3.57652 51.1974 -3.11681C52.0824 -2.6571 52.5509 -1.60561 52.2206 -0.665335C53.8523 0.0632067 55.2854 1.47333 55.8775 2.67699C56.9197 4.79567 57.6743 10.5072 53.7931 11.8212C58.5977 31.9882 20.3682 22.0914 -1.13888e-05 22.0914C-20.2357 22.0914 -45.0732 28.3281 -41.8836 12.9784C-44.6787 11.8212 -48.2008 8.95145 -46.5316 4.29176C-45.7036 1.98007 -43.8185 0.567096 -42.3936 0.567005C-41.0392 0.566917 -42.9934 -2.19999 -40.2188 -3.8149C-39.0195 -4.5129 -37.7273 -4.43211 -36.6068 -4.12355C-28.0141 -23.731 -20.4124 -40 1.90735e-06 -40Z"></path>
  <path fill="#503F7E" transform="matrix(1.79976 0.0276995 -0.0293645 1.69771 271.603 279.649)" d="M-11.3238 -80.2543C25.8014 -80.2543 54.9476 -94.6926 58.9092 -40.8672C62.8708 12.9582 37.0524 74.7499 0.0572919 75.3534C-14.1177 75.5847 -17.7665 75.6442 -48.2096 76.1409C-78.6526 76.6376 -84.25 60.12 -84.25 0C-86.6442 -86.62 -88.6279 -78.3873 -11.3238 -80.2543Z"></path>
  <clipPath id="cl_30">
    <path d="M253.58 143.087C320.396 144.115 373.277 120.411 378.826 211.9C384.375 303.39 336.094 407.579 269.494 407.579C243.976 407.579 237.407 407.579 182.602 407.579C127.797 407.579 118.208 379.382 119.974 277.316C118.208 130.193 114.396 144.115 253.58 143.087Z"></path>
  </clipPath>
  <g clip-path="url(#cl_30)">
    <path fill="#655494" transform="matrix(1.8 0 0 1.8 308.729 261.728)" d="M-0.158646 -48.2655C25.513 -48.2655 46.324 -26.6563 46.324 0C46.324 26.6563 25.513 48.2655 -0.158646 48.2655C-25.8303 48.2655 -46.6413 26.6563 -46.6413 0C-46.6413 -26.6563 -25.8303 -48.2655 -0.158646 -48.2655Z"></path>
  </g>
  <path fill="none" stroke="black" stroke-width="2" stroke-linejoin="round" transform="matrix(3.88825 -0.763212 0.691401 3.5224 230.611 47.3358)" d="M-4.34758 -5.25471C-4.34758 -11.5047 3.66088 -11.5047 3.66088 -5.25472C3.66088 0.995284 3.66088 12.5 3.66088 12.5L-4.57314 12.5C-4.57314 12.5 -4.34758 0.995284 -4.34758 -5.25471Z"></path>
  <path fill="none" stroke="black" stroke-width="2" stroke-linejoin="round" transform="matrix(3.5224 -0.691401 0.691401 3.5224 196.403 52.7486)" d="M-5.1645 -6.50116C-5.1645 -12.7512 6 -12.7512 6 -6.50116C6 -0.251162 6 12.5 6 12.5L-6 12.5C-6 12.5 -5.1645 -0.251163 -5.1645 -6.50116Z"></path>
  <path fill="#453279" transform="matrix(3.88825 -0.763212 0.691401 3.5224 230.611 47.3358)" d="M-4.34758 -5.25471C-4.34758 -11.5047 3.66088 -11.5047 3.66088 -5.25472C3.66088 0.995284 3.66088 12.5 3.66088 12.5L-4.57314 12.5C-4.57314 12.5 -4.34758 0.995284 -4.34758 -5.25471Z"></path>
  <path fill="none" stroke="#161616" stroke-width="0.5" stroke-linecap="round" stroke-linejoin="round" transform="matrix(3.88825 -0.763212 0.691401 3.5224 225.818 27.8041)" d="M4.30705e-06 1.51652L3.59227e-06 10.5382"></path>
  <path fill="#503F7E" transform="matrix(3.5224 -0.691401 0.691401 3.5224 196.403 52.7486)" d="M-5.1645 -6.50117C-5.1645 -12.7512 6 -12.7512 6 -6.50117C6 -0.251166 6 12.5 6 12.5L-6 12.5C-6 12.5 -5.1645 -0.251167 -5.1645 -6.50117Z"></path>
  <path fill="none" stroke="#161616" stroke-width="0.5" stroke-linecap="round" stroke-linejoin="round" transform="matrix(3.5224 -0.691401 0.691401 3.5224 196.617 32.7301)" d="M4.95376e-07 7.65589e-06L4.31007e-06 10.5382"></path>
  <path fill="#503F7E" transform="matrix(1.53139 0 0 1.39334 223.811 125.584)" d="M1.90735e-06 -40C20.9426 -40 35.0096 -26.8589 47.8597 -2.20017C49.1253 -3.81498 50.3123 -3.57652 51.1974 -3.11681C52.0824 -2.6571 52.5509 -1.60561 52.2206 -0.665335C53.8523 0.0632067 55.2854 1.47333 55.8775 2.67699C56.9197 4.79567 57.6743 10.5072 53.7931 11.8212C58.5977 31.9882 20.3682 22.0914 -1.13888e-05 22.0914C-20.2357 22.0914 -45.0732 28.3281 -41.8836 12.9784C-44.6787 11.8212 -48.2008 8.95145 -46.5316 4.29176C-45.7036 1.98007 -43.8185 0.567096 -42.3936 0.567005C-41.0392 0.566917 -42.9934 -2.19999 -40.2188 -3.8149C-39.0195 -4.5129 -37.7273 -4.43211 -36.6068 -4.12355C-28.0141 -23.731 -20.4124 -40 1.90735e-06 -40Z"></path>
  <clipPath id="cl_31">
    <path d="M223.811 69.8503C255.883 69.8503 277.425 88.1603 297.103 122.518C299.041 120.268 300.859 120.601 302.214 121.241C303.57 121.882 304.287 123.347 303.781 124.657C306.28 125.672 308.475 127.637 309.381 129.314C310.978 132.266 312.133 140.224 306.189 142.055C313.547 170.155 255.003 156.365 223.811 156.365C192.823 156.365 154.787 165.055 159.672 143.667C155.391 142.055 149.998 138.056 152.554 131.564C153.822 128.343 156.709 126.374 158.891 126.374C160.965 126.374 157.972 122.519 162.221 120.269C164.058 119.296 166.036 119.409 167.752 119.838C180.911 92.5185 192.552 69.8503 223.811 69.8503Z"></path>
  </clipPath>
  <g clip-path="url(#cl_31)">
    <path fill="#7463A5" transform="matrix(1.8 2.98023e-08 0.00759348 1.8 219.541 110.441)" d="M1.90735e-06 -5.5C3.866 -5.5 7 -2.92564 7 0.25C7 3.42564 3.866 6 1.90735e-06 6C-3.86599 6 -7 3.42564 -7 0.25C-7 -2.92564 -3.86599 -5.5 1.90735e-06 -5.5Z"></path>
    <path fill="#7463A5" transform="matrix(1.83618 3.04014e-08 0.00759348 1.8 272.09 102.295)" d="M0 -5.00001C2.76142 -5.00001 5 -2.6495 5 0.249992C5 3.14949 2.76142 5.49999 0 5.49999C-2.76142 5.49999 -5 3.14949 -5 0.249992C-5 -2.6495 -2.76142 -5.00001 0 -5.00001Z"></path>
    <path fill="none" stroke="#131212" stroke-width="1" stroke-linecap="round" stroke-linejoin="round" transform="matrix(2.30699 -0.373724 0.274137 1.69224 250.321 95.5994)" d="M2.39559e-06 -4.14104e-07L2.92892 -0.714567"></path>
    <path fill="none" stroke="#131212" stroke-width="1" stroke-linecap="round" stroke-linejoin="round" transform="matrix(2.30699 -0.373724 0.274137 1.69224 228.571 94.7697)" d="M4.76837e-07 -1.48459e-07L4.25731 1.79213"></path>
    <path fill="#131212" transform="matrix(2.47104 -0.400299 0.405754 2.50471 242.355 97.8799)" d="M-2.27592e-08 -4.03018e-06L1.9614 0.352734L0.91509 1.42246L-2.27592e-08 -4.03018e-06Z"></path>
    <path fill="none" stroke="#131212" stroke-width="0.5" stroke-linecap="round" stroke-linejoin="round" transform="matrix(1.93759 -0.313883 0.31816 1.96399 245.415 101.415)" d="M-8.35247e-07 -0.711224L-4.67709e-06 1.1102"></path>
    <path fill="#32225E" transform="matrix(1.74285 0.441491 -0.424043 1.74552 239.203 90.0143)" d="M1.87863e-06 -1.92716C1.62851 -1.92716 2.94867 -1.06434 2.94867 -4.39386e-08C2.94867 1.06434 1.62851 1.92716 1.93607e-06 1.92716C-1.6285 1.92716 -2.94867 1.06434 -2.94867 4.39386e-08C-2.94867 -1.06434 -1.6285 -1.92716 1.87863e-06 -1.92716Z"></path>
    <path fill="#32225E" transform="matrix(1.71213 0.433708 -0.412468 1.69787 250.396 89.1394)" d="M-5.72205e-06 -1.89919C0.889983 -1.89919 1.61146 -1.04889 1.61146 -2.40127e-08C1.61146 1.04889 0.889983 1.89919 -5.72205e-06 1.89919C-0.889995 1.89919 -1.61147 1.04889 -1.61147 2.40127e-08C-1.61147 -1.04889 -0.889995 -1.89919 -5.72205e-06 -1.89919Z"></path>
  </g>
  <path fill="none" stroke="black" stroke-width="4" stroke-linejoin="round" transform="matrix(1.8 0 0 1.8 348.423 164.528)" d="M-11.7479 -12.9046C-11.318 -13.5165 -10.7601 -14.1187 -10.0572 -14.7065C-5.47351 -18.5399 3.93804 -16.1165 4.43081 -14.7065C7.46665 -16.1165 10.8961 -16.6614 15.0174 -13.9738C19.1387 -11.2862 16.2386 -4.86793 16.6118 -4.55444C16.985 -4.24095 25.2116 0.494543 17.5976 8.33766C16.6439 8.92035 15.7365 9.39702 14.8735 9.77867"></path>
  <path fill="#7463A5" transform="matrix(1.8 0 0 1.8 348.423 164.528)" d="M-0.116451 0C-2.60164 -0.66394 -7.05858 1.11792 -10.0572 -2.65576C-13.0559 -6.42944 -14.6409 -10.8732 -10.0572 -14.7065C-5.47351 -18.5399 3.93804 -16.1165 4.43081 -14.7065C7.46665 -16.1165 10.8961 -16.6614 15.0174 -13.9738C19.1387 -11.2862 16.2386 -4.86793 16.6118 -4.55444C16.985 -4.24095 25.2116 0.494543 17.5976 8.33766C2.9012 17.3171 -0.809982 1.11792 -0.116451 0Z"></path>
  <path fill="none" stroke="black" stroke-width="6" stroke-linejoin="round" transform="matrix(1.8 0 0 1.8 170.253 262.174)" d="M-31.1118 10.3258C-44.033 -27.2396 16.0141 -47.8937 28.9353 -10.3283C34.4386 5.67136 43.6192 32.3618 49.3225 48.943C51.3264 54.7688 46.9597 68.237 25.0713 76.0519C3.18294 83.8668 -8.41645 76.3076 -9.97837 71.7666C-15.7151 55.0883 -27.0505 22.1332 -31.1118 10.3258Z"></path>
  <path fill="none" stroke="black" stroke-width="6" stroke-linecap="round" stroke-linejoin="bevel" transform="matrix(1.8 0 0 1.67094 170.253 171.927)" d="M30.6118 38.3726C30.6118 46.2536 30.6118 53.0353 30.6118 56.5422C30.6118 99.4987 -32.8882 99.4565 -32.8882 56.5C-32.8882 45.7166 -32.8882 25.8944 -32.8882 13.4087C-32.8882 0.923035 -26.6268 -16.9124 -10.547 -16.9124C-8.77338 -16.9124 -7.14928 -16.9124 -5.65381 -16.9124"></path>
  <path fill="#503F7E" transform="matrix(1.8 0 0 1.8 170.253 262.174)" d="M-31.1118 10.3258C-44.5697 -28.7998 15.4775 -49.4539 28.9353 -10.3283C34.4386 5.67136 43.6192 32.3618 49.3225 48.943C51.3264 54.7688 46.9597 68.237 25.0713 76.0519C3.18294 83.8668 -8.41645 76.3076 -9.97837 71.7666C-15.7151 55.0883 -27.0505 22.1332 -31.1118 10.3258Z"></path>
  <path fill="#503F7E" transform="matrix(1.8 0 0 1.67094 170.253 171.927)" d="M-32.8882 13.4087C-32.8882 0.923035 -26.6268 -16.9124 -10.547 -16.9124C5.53281 -16.9124 9.32273 -16.9124 16.387 -16.9124C23.4512 -16.9124 30.6118 -12.9094 30.6118 2.79268C30.6118 18.4947 30.6118 47.7681 30.6118 56.5422C30.6118 94.3272 -32.8882 94.285 -32.8882 56.5C-32.8882 45.7166 -32.8882 25.8944 -32.8882 13.4087Z"></path>
</svg>