<?xml version="1.0" encoding="utf-8"?>
<svg xmlns="http://www.w3.org/2000/svg" xmlns:xlink="http://www.w3.org/1999/xlink" width="512" height="512">
  <path fill="none" stroke="black" stroke-width="6" stroke-linejoin="round" transform="matrix(1.8 0 0 1.52279 359.051 169.591)" d="M-18.6143 -16.9737C-14.96 -16.9737 -12.3065 -16.9737 -8.88464 -16.9737C-1.82041 -16.9737 5.34021 -12.9707 5.34021 2.73135C5.34021 18.4334 5.34021 47.7067 5.34021 56.4809C5.34021 99.4374 -58.1598 99.3952 -58.1598 56.4387C-58.1598 45.6553 -58.1598 25.833 -58.1598 13.3474C-58.1598 0.86171 -51.8984 -16.9737 -35.8186 -16.9737C-34.6149 -16.9737 -33.4801 -16.9737 -32.4076 -16.9737"></path>
  <path fill="none" stroke="black" stroke-width="6" stroke-linejoin="round" transform="matrix(1.8 0 0 1.64041 359.051 251.837)" d="M-58.1592 -0.45106C-57.5709 -43.0695 5.9231 -42.1929 5.33472 0.425517C5.10115 17.3436 4.71152 45.5661 4.46946 63.0991C4.38441 69.2594 -4.2809 80.4564 -27.5225 80.406C-50.7641 80.3557 -59.1225 69.3182 -59.0562 64.5166C-58.8127 46.8809 -58.3316 12.0341 -58.1592 -0.45106Z"></path>
  <path fill="#503F7E" transform="matrix(1.8 0 0 1.52279 359.051 169.591)" d="M-58.1598 13.3474C-58.1598 0.861706 -51.8984 -16.9737 -35.8186 -16.9737C-19.7388 -16.9737 -15.9489 -16.9737 -8.88464 -16.9737C-1.82041 -16.9737 5.34021 -12.9707 5.34021 2.73135C5.34021 18.4334 5.34021 47.7067 5.34021 56.4809C5.34021 99.4374 -58.1598 99.3952 -58.1598 56.4387C-58.1598 45.6553 -58.1598 25.833 -58.1598 13.3474Z"></path>
  <path fill="#503F7E" transform="matrix(1.8 0 0 1.64041 359.051 251.837)" d="M-58.1592 -0.451061C-57.5709 -43.0695 5.9231 -42.1929 5.33472 0.425515C5.10115 17.3436 4.71152 45.5661 4.46946 63.0991C4.38441 69.2594 -4.2809 80.4564 -27.5225 80.406C-50.7641 80.3557 -59.1225 69.3182 -59.0562 64.5166C-58.8127 46.8809 -58.3316 12.0341 -58.1592 -0.451061Z"></path>
  <path fill="none" stroke="black" stroke-width="5" stroke-linejoin="round" transform="matrix(1.67985 0 0 1.8 269.501 356.202)" d="M13.9327 -15.6832C32.1558 -15.4148 45.0294 -11.0526 44.228 36.3303C44.4289 50.4362 48.2636 65.5378 33.269 74.085C21.7003 73.9928 8.77689 74.7992 -7.68779 74.5347C-18.5258 65.8191 -18.6896 51.3167 -18.959 34.4964C-18.7889 -11.9927 -4.29047 -15.9516 13.9327 -15.6832Z"></path>
  <path fill="#453279" transform="matrix(1.67985 0 0 1.8 269.501 356.202)" d="M13.9327 -15.6832C32.1558 -15.4148 45.0294 -11.0526 44.228 36.3303C44.4289 50.4362 48.2636 65.5378 33.269 74.085C21.7003 73.9928 8.77689 74.7992 -7.68779 74.5347C-18.5258 65.8191 -18.6896 51.3167 -18.959 34.4964C-18.7889 -11.9927 -4.29047 -15.9516 13.9327 -15.6832Z"></path>
  <path fill="none" stroke="black" stroke-width="5" stroke-linejoin="round" transform="matrix(1.67985 0 0 1.8 191.63 362.835)" d="M-0.549278 -14.3412C17.6758 -14.4425 30.6479 -10.3425 30.9503 37.0455C31.6862 55.9182 34.5426 68.9778 19.1024 75.6451C3.62875 76.0167 -7.05826 76.2231 -21.8947 75.8828C-36.7637 69.3663 -32.2908 52.9907 -32.2644 36.4938C-33.1771 -9.98776 -18.7743 -14.2399 -0.549278 -14.3412Z"></path>
  <path fill="none" stroke="black" stroke-width="5" stroke-linejoin="round" transform="matrix(1.79976 0.0276995 -0.0293645 1.69771 278.072 279.649)" d="M-11.3238 -80.2543C25.8014 -80.2543 54.9476 -94.6926 58.9092 -40.8672C62.8708 12.9582 37.0524 74.7499 0.0572919 75.3534C-14.1177 75.5847 -17.7665 75.6442 -48.2096 76.1409C-78.6526 76.6376 -84.25 60.12 -84.25 9.53674e-07C-86.6294 -86.0849 -88.6034 -78.4854 -12.7475 -80.2208"></path>
  <path fill="#503F7E" transform="matrix(1.67985 0 0 1.8 191.63 362.835)" d="M-0.549278 -14.3412C17.6758 -14.4425 30.6479 -10.3425 30.9503 37.0455C31.6862 55.9182 34.5426 68.9778 19.1024 75.6451C3.62875 76.0167 -7.05826 76.2231 -21.8947 75.8828C-36.7637 69.3663 -32.2908 52.9907 -32.2644 36.4938C-33.1771 -9.98776 -18.7743 -14.2399 -0.549278 -14.3412Z"></path>
  <path fill="none" stroke="black" stroke-width="5" stroke-linejoin="round" transform="matrix(1.53139 0 0 1.39334 231.122 125.584)" d="M0 -40C20.9426 -40 35.0096 -26.8589 47.8597 -2.20017C49.1253 -3.81498 50.3123 -3.57652 51.1974 -3.11681C52.0824 -2.6571 52.5509 -1.60561 52.2206 -0.665335C53.8523 0.0632067 55.2854 1.47333 55.8775 2.67699C56.9197 4.79567 57.6743 10.5072 53.7931 11.8212C58.5977 31.9882 20.3682 22.0914 -1.32962e-05 22.0914C-20.2357 22.0914 -45.0732 28.3281 -41.8836 12.9784C-44.6787 11.8212 -48.2008 8.95145 -46.5316 4.29176C-45.7036 1.98007 -43.8185 0.567096 -42.3936 0.567005C-41.0392 0.566917 -42.9934 -2.19999 -40.2188 -3.8149C-39.0195 -4.5129 -37.7273 -4.43211 -36.6068 -4.12355C-28.0141 -23.731 -20.4124 -40 0 -40Z"></path>
  <path fill="#503F7E" transform="matrix(1.79976 0.0276995 -0.0293645 1.69771 278.072 279.649)" d="M-11.3238 -80.2543C25.8014 -80.2543 54.9476 -94.6926 58.9092 -40.8672C62.8708 12.9582 37.0524 74.7499 0.0572919 75.3534C-14.1177 75.5847 -17.7665 75.6442 -48.2096 76.1409C-78.6526 76.6376 -84.25 60.12 -84.25 9.53674e-07C-86.6442 -86.62 -88.6279 -78.3873 -11.3238 -80.2543Z"></path>
  <clipPath id="cl_123">
    <path d="M260.048 143.087C326.865 144.115 379.745 120.411 385.294 211.9C390.844 303.39 342.562 407.579 275.962 407.579C250.444 407.579 243.875 407.579 189.07 407.579C134.266 407.579 124.677 379.382 126.442 277.316C124.677 130.193 120.865 144.115 260.048 143.087Z"></path>
  </clipPath>
  <g clip-path="url(#cl_123)">
    <path fill="#655494" transform="matrix(1.8 0 0 1.8 315.198 261.728)" d="M-0.158642 -48.2655C25.513 -48.2655 46.324 -26.6563 46.324 0C46.324 26.6563 25.513 48.2655 -0.158642 48.2655C-25.8303 48.2655 -46.6413 26.6563 -46.6413 0C-46.6413 -26.6563 -25.8303 -48.2655 -0.158642 -48.2655Z"></path>
  </g>
  <path fill="none" stroke="black" stroke-width="2" stroke-linejoin="round" transform="matrix(3.88825 -0.763212 0.691401 3.5224 237.922 47.3358)" d="M-4.34758 -5.25471C-4.34758 -11.5047 3.66088 -11.5047 3.66088 -5.25471C3.66088 0.995287 3.66088 12.5 3.66088 12.5L-4.57314 12.5C-4.57314 12.5 -4.34758 0.995288 -4.34758 -5.25471Z"></path>
  <path fill="none" stroke="black" stroke-width="2" stroke-linejoin="round" transform="matrix(3.5224 -0.691401 0.691401 3.5224 203.714 52.7486)" d="M-5.1645 -6.50117C-5.1645 -12.7512 6 -12.7512 6 -6.50117C6 -0.251166 6 12.5 6 12.5L-6 12.5C-6 12.5 -5.1645 -0.251167 -5.1645 -6.50117Z"></path>
  <path fill="#453279" transform="matrix(3.88825 -0.763212 0.691401 3.5224 237.922 47.3358)" d="M-4.34758 -5.25471C-4.34758 -11.5047 3.66088 -11.5047 3.66088 -5.25471C3.66088 0.995287 3.66088 12.5 3.66088 12.5L-4.57314 12.5C-4.57314 12.5 -4.34758 0.995288 -4.34758 -5.25471Z"></path>
  <path fill="none" stroke="#161616" stroke-width="0.5" stroke-linecap="round" stroke-linejoin="round" transform="matrix(3.88825 -0.763212 0.691401 3.5224 233.129 27.8041)" d="M4.06863e-06 1.51652L3.35385e-06 10.5382"></path>
  <path fill="#503F7E" transform="matrix(3.5224 -0.691401 0.691401 3.5224 203.714 52.7486)" d="M-5.1645 -6.50117C-5.1645 -12.7512 6 -12.7512 6 -6.50117C6 -0.25117 6 12.5 6 12.5L-6 12.5C-6 12.5 -5.1645 -0.251171 -5.1645 -6.50117Z"></path>
  <path fill="none" stroke="#161616" stroke-width="0.5" stroke-linecap="round" stroke-linejoin="round" transform="matrix(3.5224 -0.691401 0.691401 3.5224 203.928 32.7301)" d="M1.44905e-06 3.8412e-06L5.26375e-06 10.5382"></path>
  <path fill="#503F7E" transform="matrix(1.53139 0 0 1.39334 231.122 125.584)" d="M0 -40C20.9426 -40 35.0096 -26.8589 47.8597 -2.20017C49.1253 -3.81498 50.3123 -3.57652 51.1974 -3.11681C52.0824 -2.6571 52.5509 -1.60561 52.2206 -0.665335C53.8523 0.0632067 55.2854 1.47333 55.8775 2.67699C56.9197 4.79567 57.6743 10.5072 53.7931 11.8212C58.5977 31.9882 20.3682 22.0914 -1.32962e-05 22.0914C-20.2357 22.0914 -45.0732 28.3281 -41.8836 12.9784C-44.6787 11.8212 -48.2008 8.95145 -46.5316 4.29176C-45.7036 1.98007 -43.8185 0.567096 -42.3936 0.567005C-41.0392 0.566917 -42.9934 -2.19999 -40.2188 -3.8149C-39.0195 -4.5129 -37.7273 -4.43211 -36.6068 -4.12355C-28.0141 -23.731 -20.4124 -40 0 -40Z"></path>
  <clipPath id="cl_124">
    <path d="M231.122 69.8503C263.194 69.8503 284.736 88.1603 304.414 122.518C306.352 120.268 308.17 120.601 309.525 121.241C310.881 121.882 311.598 123.347 311.092 124.657C313.591 125.672 315.786 127.637 316.692 129.314C318.289 132.266 319.444 140.224 313.5 142.055C320.858 170.155 262.314 156.365 231.122 156.365C200.134 156.365 162.098 165.055 166.983 143.667C162.702 142.055 157.309 138.056 159.865 131.564C161.133 128.343 164.02 126.374 166.202 126.374C168.276 126.374 165.283 122.519 169.532 120.269C171.369 119.296 173.347 119.409 175.063 119.838C188.222 92.5185 199.863 69.8503 231.122 69.8503Z"></path>
  </clipPath>
  <g clip-path="url(#cl_124)">
    <path fill="#7463A5" transform="matrix(1.8 2.98023e-08 0.00759348 1.8 238.527 110.441)" d="M9.53674e-07 -5.5C3.86599 -5.5 7 -2.92564 7 0.25C7 3.42564 3.86599 6 9.53674e-07 6C-3.86599 6 -7 3.42564 -7 0.25C-7 -2.92564 -3.86599 -5.5 9.53674e-07 -5.5Z"></path>
    <path fill="#7463A5" transform="matrix(1.83618 3.04014e-08 0.00759348 1.8 291.076 102.295)" d="M1.90735e-06 -5.00001C2.76143 -5.00001 5 -2.6495 5 0.249992C5 3.14949 2.76143 5.49999 1.90735e-06 5.49999C-2.76142 5.49999 -5 3.14949 -5 0.249992C-5 -2.6495 -2.76142 -5.00001 1.90735e-06 -5.00001Z"></path>
    <path fill="none" stroke="#131212" stroke-width="1" stroke-linecap="round" stroke-linejoin="round" transform="matrix(2.30699 -0.373724 0.274137 1.69224 269.307 95.5994)" d="M4.88246e-07 -4.14104e-07L2.92891 -0.714567"></path>
    <path fill="none" stroke="#131212" stroke-width="1" stroke-linecap="round" stroke-linejoin="round" transform="matrix(2.30699 -0.373724 0.274137 1.69224 247.557 94.7697)" d="M9.53674e-07 -1.48459e-07L4.25731 1.79213"></path>
    <path fill="#131212" transform="matrix(2.47104 -0.400299 0.405754 2.50471 261.342 97.8799)" d="M4.54078e-07 -2.15485e-07L1.9614 0.352738L0.91509 1.42246L4.54078e-07 -2.15485e-07Z"></path>
    <path fill="none" stroke="#131212" stroke-width="0.5" stroke-linecap="round" stroke-linejoin="round" transform="matrix(1.93759 -0.313883 0.31816 1.96399 264.401 101.415)" d="M1.18428e-07 -0.711224L-3.72341e-06 1.1102"></path>
    <path fill="#32225E" transform="matrix(1.74285 0.441491 -0.424043 1.74552 258.189 90.0143)" d="M-2.87169e-08 -1.92716C1.62851 -1.92716 2.94867 -1.06435 2.94867 -7.67333e-06C2.94867 1.06433 1.62851 1.92715 2.87169e-08 1.92715C-1.62851 1.92715 -2.94867 1.06433 -2.94867 -7.58546e-06C-2.94867 -1.06435 -1.62851 -1.92716 -2.87169e-08 -1.92716Z"></path>
    <path fill="#32225E" transform="matrix(1.71213 0.433708 -0.412468 1.69787 269.382 89.1394)" d="M-3.8147e-06 -1.89918C0.889985 -1.89918 1.61146 -1.04889 1.61146 7.60538e-06C1.61146 1.0489 0.889985 1.8992 -3.8147e-06 1.8992C-0.889993 1.8992 -1.61147 1.0489 -1.61147 7.65341e-06C-1.61147 -1.04889 -0.889993 -1.89918 -3.8147e-06 -1.89918Z"></path>
  </g>
  <path fill="none" stroke="black" stroke-width="4" stroke-linejoin="round" transform="matrix(1.8 0 0 1.8 366.049 164.528)" d="M-11.7479 -12.9046C-11.318 -13.5165 -10.7601 -14.1187 -10.0572 -14.7065C-5.47351 -18.5399 3.93804 -16.1165 4.43081 -14.7065C7.46664 -16.1165 10.8961 -16.6614 15.0174 -13.9738C19.1387 -11.2862 16.2386 -4.86793 16.6118 -4.55444C16.985 -4.24095 25.2116 0.494543 17.5976 8.33766C16.6439 8.92035 15.7365 9.39702 14.8735 9.77867"></path>
  <path fill="#7463A5" transform="matrix(1.8 0 0 1.8 366.049 164.528)" d="M-0.116455 0C-2.60165 -0.66394 -7.05858 1.11792 -10.0572 -2.65576C-13.0559 -6.42944 -14.6409 -10.8732 -10.0572 -14.7065C-5.47351 -18.5399 3.93804 -16.1165 4.43081 -14.7065C7.46664 -16.1165 10.8961 -16.6614 15.0174 -13.9738C19.1387 -11.2862 16.2386 -4.86793 16.6118 -4.55444C16.985 -4.24095 25.2116 0.494543 17.5976 8.33766C2.9012 17.3171 -0.809986 1.11792 -0.116455 0Z"></path>
  <path fill="none" stroke="black" stroke-width="6" stroke-linejoin="round" transform="matrix(1.8 0 0 1.8 170.253 262.174)" d="M77.8464 -12.599C38.1258 -13.2267 39.1291 -76.7187 78.8497 -76.0911C95.7673 -75.8238 123.989 -75.3778 141.521 -75.1008C147.682 -75.0034 158.861 -66.3158 158.764 -43.0743C158.668 -19.8329 147.614 -11.4966 142.812 -11.5724C125.177 -11.8511 90.3312 -12.4017 77.8464 -12.599Z"></path>
  <path fill="none" stroke="black" stroke-width="6" stroke-linecap="round" stroke-linejoin="bevel" transform="matrix(1.8 0 0 1.67094 170.253 171.927)" d="M66.4636 -29.6677C74.1958 -28.6969 80.921 -27.8525 84.3166 -27.4262C123.925 -22.4533 116.535 45.4865 76.9266 40.5136C66.9837 39.2653 48.7064 36.9706 37.1939 35.5251C25.6814 34.0797 9.96089 25.3154 11.8224 8.11005C11.9914 6.54784 12.1487 5.09404 12.2956 3.73619"></path>
  <path fill="#503F7E" transform="matrix(1.8 0 0 1.8 170.253 262.174)" d="M77.8464 -12.599C36.4761 -13.2528 37.4794 -76.7448 78.8497 -76.0911C95.7673 -75.8238 123.989 -75.3778 141.521 -75.1008C147.682 -75.0034 158.861 -66.3158 158.764 -43.0743C158.668 -19.8329 147.614 -11.4966 142.812 -11.5724C125.177 -11.8511 90.3312 -12.4017 77.8464 -12.599Z"></path>
  <path fill="#503F7E" transform="matrix(1.8 0 0 1.67094 170.253 171.927)" d="M37.1939 35.5251C25.6814 34.0797 9.9609 25.3154 11.8224 8.11004C13.6839 -9.09529 14.1226 -13.1505 14.9404 -20.7092C15.7582 -28.2679 20.2781 -35.4663 34.7564 -33.6486C49.2346 -31.8308 76.2263 -28.442 84.3166 -27.4262C119.157 -23.052 111.767 44.8878 76.9266 40.5136C66.9837 39.2653 48.7064 36.9705 37.1939 35.5251Z"></path>
</svg>