<?xml version="1.0" encoding="utf-8"?>
<svg xmlns="http://www.w3.org/2000/svg" xmlns:xlink="http://www.w3.org/1999/xlink" width="512" height="512">
  <path fill="none" stroke="black" stroke-width="6" stroke-linejoin="round" transform="matrix(1.8 0 0 1.52279 359.051 170.228)" d="M-14.3712 -17.5992C-10.5639 -17.943 -7.86512 -18.1867 -4.35604 -18.5037C2.68766 -19.1398 10.0855 -15.7932 11.0975 -0.136795C12.1095 15.5196 13.9962 44.7079 14.5616 53.4565C17.3302 96.2882 -45.988 101.964 -48.7565 59.1327C-49.4515 48.3806 -50.7291 28.616 -51.5338 16.1666C-52.3385 3.71721 -47.2448 -14.6302 -31.2117 -16.0782C-30.1307 -16.1759 -29.1053 -16.2685 -28.1309 -16.3565"></path>
  <path fill="none" stroke="black" stroke-width="6" stroke-linejoin="round" transform="matrix(1.8 0 0 1.64041 359.051 252.474)" d="M-48.9157 -2.23287C-45.5085 -44.7879 17.757 -40.6012 14.3497 1.95385C12.9971 18.8468 10.7408 47.0273 9.33909 64.5342C8.8466 70.6853 -0.536465 81.4219 -23.7123 80.1597C-46.8882 78.8975 -54.4936 67.4326 -54.1098 62.6382C-52.6998 45.0287 -49.9139 10.2337 -48.9157 -2.23287Z"></path>
  <path fill="#503F7E" transform="matrix(1.8 0 0 1.52279 359.051 170.228)" d="M-51.5338 16.1666C-52.3385 3.71721 -47.2448 -14.6302 -31.2117 -16.0782C-15.1787 -17.5262 -11.3997 -17.8675 -4.35604 -18.5037C2.68766 -19.1398 10.0855 -15.7932 11.0975 -0.136795C12.1095 15.5196 13.9961 44.7079 14.5616 53.4565C17.3302 96.2882 -45.988 101.964 -48.7565 59.1327C-49.4515 48.3806 -50.7291 28.616 -51.5338 16.1666Z"></path>
  <path fill="#503F7E" transform="matrix(1.8 0 0 1.64041 359.051 252.474)" d="M-48.9157 -2.23287C-45.5085 -44.7879 17.757 -40.6012 14.3497 1.95385C12.9971 18.8468 10.7408 47.0273 9.33909 64.5342C8.8466 70.6853 -0.536465 81.4219 -23.7123 80.1597C-46.8882 78.8975 -54.4936 67.4326 -54.1098 62.6382C-52.6998 45.0287 -49.9139 10.2337 -48.9157 -2.23287Z"></path>
  <path fill="none" stroke="black" stroke-width="5" stroke-linejoin="round" transform="matrix(1.67985 0 0 1.8 269.501 356.202)" d="M-1.78146 -15.6804C16.4437 -15.5939 29.3665 -11.3605 29.1082 36.0278C29.4708 50.1308 33.7932 65.6479 18.3018 75.0855C6.75415 74.4292 -6.19676 74.6042 -22.6241 73.5369C-32.9552 63.8559 -33.634 51.6413 -34.0961 34.8247C-34.4588 -11.6635 -20.0066 -15.7669 -1.78146 -15.6804Z"></path>
  <path fill="#453279" transform="matrix(1.67985 0 0 1.8 269.501 356.202)" d="M-1.78146 -15.6804C16.4437 -15.5939 29.3665 -11.3605 29.1082 36.0278C29.4708 50.1308 33.7932 65.6479 18.3018 75.0855C6.75415 74.4292 -6.19676 74.6042 -22.6241 73.5369C-32.9552 63.8559 -33.634 51.6413 -34.0961 34.8247C-34.4588 -11.6635 -20.0066 -15.7669 -1.78146 -15.6804Z"></path>
  <path fill="none" stroke="black" stroke-width="5" stroke-linejoin="round" transform="matrix(1.67985 0 0 1.8 191.63 362.835)" d="M3.23981 -14.3465C21.4647 -14.2237 34.3778 -9.96456 34.0112 37.4231C34.4805 56.3031 37.1881 69.1034 21.6745 75.6437C6.20082 76.0153 -4.48618 76.2217 -19.3227 75.8814C-34.1192 69.2272 -29.4496 52.5893 -29.1903 36.0941C-29.4467 -10.3947 -14.9851 -14.4693 3.23981 -14.3465Z"></path>
  <path fill="none" stroke="black" stroke-width="5" stroke-linejoin="round" transform="matrix(1.79976 0.0276995 -0.0293645 1.69771 274.681 280.286)" d="M-11.3238 -80.2543C25.8014 -80.2543 54.9476 -94.6926 58.9092 -40.8672C62.8708 12.9582 37.0524 74.7499 0.0572909 75.3534C-14.1177 75.5847 -17.7665 75.6442 -48.2096 76.1409C-78.6526 76.6376 -84.25 60.12 -84.25 9.53674e-07C-86.6294 -86.0849 -88.6034 -78.4854 -12.7475 -80.2208"></path>
  <path fill="#503F7E" transform="matrix(1.67985 0 0 1.8 191.63 362.835)" d="M3.23981 -14.3465C21.4647 -14.2237 34.3778 -9.96456 34.0112 37.4231C34.4805 56.3031 37.1881 69.1034 21.6745 75.6437C6.20082 76.0153 -4.48618 76.2217 -19.3227 75.8814C-34.1192 69.2272 -29.4496 52.5893 -29.1903 36.0941C-29.4467 -10.3947 -14.9851 -14.4693 3.23981 -14.3465Z"></path>
  <path fill="none" stroke="black" stroke-width="5" stroke-linejoin="round" transform="matrix(1.53139 0 0 1.39334 226.982 126.996)" d="M0 -40C20.9426 -40 35.0096 -26.8589 47.8597 -2.20017C49.1253 -3.81498 50.3123 -3.57652 51.1974 -3.11681C52.0824 -2.6571 52.5509 -1.60561 52.2206 -0.665335C53.8523 0.0632067 55.2854 1.47333 55.8775 2.67699C56.9197 4.79567 57.6743 10.5072 53.7931 11.8212C58.5977 31.9882 20.3682 22.0914 -1.32962e-05 22.0914C-20.2357 22.0914 -45.0732 28.3281 -41.8836 12.9784C-44.6787 11.8212 -48.2008 8.95145 -46.5316 4.29176C-45.7036 1.98007 -43.8185 0.567096 -42.3936 0.567005C-41.0392 0.566917 -42.9934 -2.19999 -40.2188 -3.8149C-39.0195 -4.5129 -37.7273 -4.43211 -36.6068 -4.12355C-28.0141 -23.731 -20.4124 -40 0 -40Z"></path>
  <path fill="#503F7E" transform="matrix(1.79976 0.0276995 -0.0293645 1.69771 274.681 280.286)" d="M-11.3238 -80.2543C25.8014 -80.2543 54.9476 -94.6926 58.9092 -40.8672C62.8708 12.9582 37.0524 74.7499 0.0572909 75.3534C-14.1177 75.5847 -17.7665 75.6442 -48.2096 76.1409C-78.6526 76.6376 -84.25 60.12 -84.25 9.53674e-07C-86.6442 -86.62 -88.6279 -78.3873 -11.3238 -80.2543Z"></path>
  <clipPath id="cl_6e3">
    <path d="M256.658 143.724C323.474 144.752 376.354 121.047 381.904 212.537C387.453 304.027 339.172 408.216 272.572 408.216C247.053 408.216 240.485 408.216 185.68 408.216C130.875 408.216 121.286 380.019 123.052 277.952C121.286 130.83 117.474 144.752 256.658 143.724Z"></path>
  </clipPath>
  <g clip-path="url(#cl_6e3)">
    <path fill="#655494" transform="matrix(1.8 0 0 1.8 311.807 262.365)" d="M-0.158648 -48.2655C25.513 -48.2655 46.324 -26.6563 46.324 0C46.324 26.6563 25.513 48.2655 -0.158648 48.2655C-25.8303 48.2655 -46.6413 26.6563 -46.6413 0C-46.6413 -26.6563 -25.8303 -48.2655 -0.158648 -48.2655Z"></path>
  </g>
  <path fill="none" stroke="black" stroke-width="2" stroke-linejoin="round" transform="matrix(3.88825 -0.763212 0.691401 3.5224 233.781 48.7478)" d="M-4.34758 -5.25471C-4.34759 -11.5047 3.66088 -11.5047 3.66088 -5.25471C3.66088 0.995287 3.66088 12.5 3.66088 12.5L-4.57314 12.5C-4.57314 12.5 -4.34758 0.995288 -4.34758 -5.25471Z"></path>
  <path fill="none" stroke="black" stroke-width="2" stroke-linejoin="round" transform="matrix(3.5224 -0.691401 0.691401 3.5224 199.573 54.1607)" d="M-5.1645 -6.50116C-5.1645 -12.7512 6 -12.7512 6 -6.50116C6 -0.251159 6 12.5 6 12.5L-6 12.5C-6 12.5 -5.1645 -0.25116 -5.1645 -6.50116Z"></path>
  <path fill="#453279" transform="matrix(3.88825 -0.763212 0.691401 3.5224 233.781 48.7478)" d="M-4.34758 -5.25471C-4.34759 -11.5047 3.66088 -11.5047 3.66088 -5.25471C3.66088 0.995287 3.66088 12.5 3.66088 12.5L-4.57314 12.5C-4.57314 12.5 -4.34758 0.995288 -4.34758 -5.25471Z"></path>
  <path fill="none" stroke="#161616" stroke-width="0.5" stroke-linecap="round" stroke-linejoin="round" transform="matrix(3.88825 -0.763212 0.691401 3.5224 228.988 29.2162)" d="M4.06863e-06 1.51652L3.35385e-06 10.5382"></path>
  <path fill="#503F7E" transform="matrix(3.5224 -0.691401 0.691401 3.5224 199.573 54.1607)" d="M-5.1645 -6.50116C-5.1645 -12.7512 6 -12.7512 6 -6.50116C6 -0.251162 6 12.5 6 12.5L-6 12.5C-6 12.5 -5.1645 -0.251163 -5.1645 -6.50116Z"></path>
  <path fill="none" stroke="#161616" stroke-width="0.5" stroke-linecap="round" stroke-linejoin="round" transform="matrix(3.5224 -0.691401 0.691401 3.5224 199.787 34.1422)" d="M2.56958e-07 3.8412e-06L4.07165e-06 10.5382"></path>
  <path fill="#503F7E" transform="matrix(1.53139 0 0 1.39334 226.982 126.996)" d="M0 -40C20.9426 -40 35.0096 -26.8589 47.8597 -2.20017C49.1253 -3.81498 50.3123 -3.57652 51.1974 -3.11681C52.0824 -2.6571 52.5509 -1.60561 52.2206 -0.665335C53.8523 0.0632067 55.2854 1.47333 55.8775 2.67699C56.9197 4.79567 57.6743 10.5072 53.7931 11.8212C58.5977 31.9882 20.3682 22.0914 -1.32962e-05 22.0914C-20.2357 22.0914 -45.0732 28.3281 -41.8836 12.9784C-44.6787 11.8212 -48.2008 8.95145 -46.5316 4.29176C-45.7036 1.98007 -43.8185 0.567096 -42.3936 0.567005C-41.0392 0.566917 -42.9934 -2.19999 -40.2188 -3.8149C-39.0195 -4.5129 -37.7273 -4.43211 -36.6068 -4.12355C-28.0141 -23.731 -20.4124 -40 0 -40Z"></path>
  <clipPath id="cl_6e4">
    <path d="M226.982 71.2623C259.053 71.2623 280.595 89.5724 300.273 123.93C302.211 121.68 304.029 122.013 305.384 122.653C306.74 123.294 307.457 124.759 306.951 126.069C309.45 127.084 311.645 129.049 312.552 130.726C314.148 133.678 315.303 141.636 309.359 143.467C316.717 171.567 258.173 157.777 226.981 157.777C195.993 157.777 157.957 166.467 162.842 145.079C158.561 143.467 153.168 139.468 155.724 132.976C156.992 129.755 159.879 127.786 162.061 127.786C164.135 127.786 161.142 123.931 165.391 121.681C167.228 120.708 169.206 120.821 170.922 121.251C184.081 93.9305 195.722 71.2623 226.982 71.2623Z"></path>
  </clipPath>
  <g clip-path="url(#cl_6e4)">
    <path fill="#7463A5" transform="matrix(1.8 2.98023e-08 0.00759348 1.8 223.614 112.798)" d="M0 -5.5C3.86599 -5.5 7 -2.92564 7 0.25C7 3.42564 3.86599 6 0 6C-3.86599 6 -7 3.42564 -7 0.25C-7 -2.92564 -3.86599 -5.5 0 -5.5Z"></path>
    <path fill="#7463A5" transform="matrix(1.83618 3.04014e-08 0.00759348 1.8 276.162 104.652)" d="M0 -5C2.76142 -5 5 -2.6495 5 0.25C5 3.1495 2.76142 5.5 0 5.5C-2.76142 5.5 -5 3.1495 -5 0.25C-5 -2.6495 -2.76142 -5 0 -5Z"></path>
    <path fill="none" stroke="#131212" stroke-width="1" stroke-linecap="round" stroke-linejoin="round" transform="matrix(2.30699 -0.373724 0.274137 1.69224 254.393 97.9564)" d="M4.88246e-07 -8.0435e-06L2.92891 -0.714575"></path>
    <path fill="none" stroke="#131212" stroke-width="1" stroke-linecap="round" stroke-linejoin="round" transform="matrix(2.30699 -0.373724 0.274137 1.69224 232.643 97.1267)" d="M2.38419e-07 7.48094e-06L4.25731 1.79213"></path>
    <path fill="#131212" transform="matrix(2.47104 -0.400299 0.405754 2.50471 246.428 100.237)" d="M-2.27592e-08 -4.03018e-06L1.9614 0.352734L0.91509 1.42246L-2.27592e-08 -4.03018e-06Z"></path>
    <path fill="none" stroke="#131212" stroke-width="0.5" stroke-linecap="round" stroke-linejoin="round" transform="matrix(1.93759 -0.313883 0.31816 1.96399 249.487 103.772)" d="M1.0721e-06 -0.711224L-2.76974e-06 1.1102"></path>
    <path fill="#32225E" transform="matrix(1.74285 0.441491 -0.424043 1.74552 243.275 92.3713)" d="M-1.93607e-06 -1.92716C1.6285 -1.92716 2.94867 -1.06434 2.94867 -4.39386e-08C2.94867 1.06434 1.6285 1.92716 -1.87863e-06 1.92716C-1.62851 1.92716 -2.94867 1.06434 -2.94867 4.39386e-08C-2.94867 -1.06434 -1.62851 -1.92716 -1.93607e-06 -1.92716Z"></path>
    <path fill="#32225E" transform="matrix(1.71213 0.433708 -0.412468 1.69787 254.468 91.4965)" d="M-5.72205e-06 -1.89918C0.889983 -1.89918 1.61146 -1.04889 1.61146 7.60538e-06C1.61146 1.0489 0.889983 1.8992 -5.72205e-06 1.8992C-0.889995 1.8992 -1.61147 1.0489 -1.61147 7.65341e-06C-1.61147 -1.04889 -0.889995 -1.89918 -5.72205e-06 -1.89918Z"></path>
  </g>
  <path fill="none" stroke="black" stroke-width="6" stroke-linejoin="round" transform="matrix(1.8 0 0 1.8 161.833 262.811)" d="M-35.0258 -2.61697C-31.8438 -42.2148 31.4522 -37.1285 28.2702 2.46936C26.9149 19.3347 24.6541 47.4692 23.2496 64.9475C22.7561 71.0886 13.3671 81.6861 -9.81992 80.0942C-33.007 78.5023 -40.6148 66.9347 -40.2302 62.1481C-38.8174 44.5674 -36.0259 9.82927 -35.0258 -2.61697Z"></path>
  <path fill="none" stroke="black" stroke-width="6" stroke-linecap="round" stroke-linejoin="bevel" transform="matrix(1.8 0 0 1.67094 161.833 172.564)" d="M29.342 40.7698C28.814 48.6195 28.3598 55.3728 28.1248 58.8668C25.2431 101.711 -38.088 96.7257 -35.2063 53.8815C-34.483 43.1263 -33.1532 23.3559 -32.3156 10.9029C-31.478 -1.55016 -24.0366 -18.8515 -7.99881 -17.5998C-6.18209 -17.458 -4.52266 -17.3285 -2.99796 -17.2095"></path>
  <path fill="#503F7E" transform="matrix(1.8 0 0 1.8 161.833 262.811)" d="M-35.0258 -2.61697C-31.7116 -43.8595 31.5843 -38.7731 28.2702 2.46936C26.9149 19.3347 24.6541 47.4692 23.2496 64.9475C22.7561 71.0886 13.3671 81.6861 -9.81992 80.0942C-33.007 78.5023 -40.6148 66.9347 -40.2302 62.1481C-38.8174 44.5674 -36.0259 9.82927 -35.0258 -2.61697Z"></path>
  <path fill="#503F7E" transform="matrix(1.8 0 0 1.67094 161.833 172.564)" d="M-32.3156 10.9029C-31.478 -1.55015 -24.0366 -18.8515 -7.99881 -17.5998C8.03897 -16.348 11.819 -16.053 18.8647 -15.5031C25.9105 -14.9531 32.7839 -10.4031 31.7305 5.25788C30.6772 20.9189 28.7134 50.1157 28.1248 58.8669C25.59 96.5531 -37.7411 91.5677 -35.2064 53.8815C-34.483 43.1263 -33.1532 23.3559 -32.3156 10.9029Z"></path>
  <path fill="none" stroke="black" stroke-width="7" stroke-linecap="round" stroke-miterlimit="4" transform="translate(256 256)" d="M-6.14386 -116.812C52.2601 -116.812 99.6059 -116.737 99.6059 -116.645C99.6059 -116.553 52.2601 -116.478 -6.14386 -116.478C-64.5478 -116.478 -111.894 -116.553 -111.894 -116.645C-111.894 -116.737 -64.5478 -116.812 -6.14386 -116.812Z"></path>
  <path fill="#8D5A3E" transform="matrix(1.27409 9.56891e-23 -1.50956e-25 0.00200997 249.856 139.355)" d="M-1.02305e-30 -83C45.8396 -83 83 -45.8396 83 0C83 45.8396 45.8396 83 1.02305e-30 83C-45.8396 83 -83 45.8396 -83 0C-83 -45.8396 -45.8396 -83 -1.02305e-30 -83Z"></path>
  <path fill="#65524C" transform="matrix(0.732603 5.50213e-23 -1.39281e-25 0.00185451 249.856 139.382)" d="M0 -97.4961C45.8396 -97.4961 83 -53.8439 83 0.00390625C83 53.8517 45.8396 97.5039 0 97.5039C-45.8396 97.5039 -83 53.8517 -83 0.00390625C-83 -53.8439 -45.8396 -97.4961 0 -97.4961Z"></path>
  <clipPath id="cl_6ec">
    <path d="M249.856 139.202C283.438 139.202 310.662 139.282 310.662 139.382C310.662 139.482 283.438 139.563 249.856 139.563C216.274 139.563 189.05 139.482 189.05 139.382C189.05 139.282 216.274 139.202 249.856 139.202Z"></path>
  </clipPath>
  <g clip-path="url(#cl_6ec)">
    <path fill="#281C18" transform="matrix(0.732603 5.50213e-23 -1.39281e-25 0.00185451 230.745 139.382)" d="M3.8147e-06 -97.5C45.8396 -97.5 83 -53.8478 83 -2.68187e-25C83 53.8478 45.8396 97.5 3.8147e-06 97.5C-45.8396 97.5 -83 53.8478 -83 2.68187e-25C-83 -53.8478 -45.8396 -97.5 3.8147e-06 -97.5Z"></path>
  </g>
  <path fill="none" stroke="black" stroke-width="7" stroke-linejoin="round" transform="translate(256 256)" d="M-110.818 -116.635C-113.262 -115.826 -156.317 -101.02 -156.534 -60.4767C-156.534 -60.4767 -139.16 -53.3452 -93.3282 -39.7351C-57.5869 -29.1213 -62.6492 -36.1582 -7.0665 -33.2227C16.793 -30.6142 62.959 -39.8861 62.959 -39.8861C62.959 -39.8861 62.6623 -48.931 67.9277 -48.931C73.1931 -48.931 76.2347 -39.8861 76.2347 -39.8861C88.9785 -39.8861 100.393 -46.336 109.976 -47.7309C140.175 -52.1266 143.8 -60.4767 143.8 -60.4767C143.8 -102.205 98.027 -116.67 98.027 -116.67C83.8013 -116.558 46.701 -116.478 -6.14386 -116.478C-58.9887 -116.477 -108.364 -116.558 -110.709 -116.67C-110.709 -116.67 -110.746 -116.658 -110.818 -116.635"></path>
  <path fill="none" stroke="black" stroke-width="21" stroke-linecap="round" stroke-linejoin="round" transform="matrix(0.972 7.30008e-23 -7.30008e-23 0.972 91.4201 194.759)" d="M8.27734 0.786087C8.27734 0.786087 26.1524 8.12301 73.3042 22.1252C110.075 33.0447 104.867 25.8051 162.051 28.8252C186.598 31.5089 234.093 21.9699 234.093 21.9699C234.093 21.9699 233.788 12.6644 239.205 12.6644C244.622 12.6644 247.752 21.9699 247.752 21.9699C260.863 21.9699 272.606 15.3341 282.465 13.899C313.534 9.37679 317.263 0.786087 317.263 0.786087C317.263 -0.287133 317.233 -1.34282 317.176 -2.38119"></path>
  <path fill="none" stroke="white" stroke-width="14" stroke-linecap="round" stroke-linejoin="round" transform="matrix(0.972 7.30008e-23 -7.30008e-23 0.972 91.4201 194.759)" d="M8.27734 0.786087C8.27734 0.786087 26.1524 8.12301 73.3042 22.1252C110.075 33.0447 104.867 25.8051 162.051 28.8252C186.598 31.5089 234.093 21.9699 234.093 21.9699C234.093 21.9699 233.788 12.6644 239.205 12.6644C244.622 12.6644 247.752 21.9699 247.752 21.9699C260.863 21.9699 272.606 15.3341 282.465 13.899C313.534 9.37679 317.263 0.786087 317.263 0.786087C317.263 0.335189 317.258 -0.112615 317.247 -0.55734"></path>
  <path fill="#8D5A3E" transform="matrix(0.972 7.30008e-23 -7.30008e-23 0.972 91.4201 194.759)" d="M8.27734 0.786087C8.27734 0.786087 28.6505 7.36043 72.0222 20.4713C95.5232 27.5755 124.361 26.8347 162.051 28.8252C186.598 31.5089 234.093 21.9699 234.093 21.9699C234.093 21.9699 234.776 13.9743 238.41 13.9743C242.043 13.9743 247.752 21.9699 247.752 21.9699C260.529 21.9699 277.837 14.2598 286.934 13.182C317.391 9.57364 317.263 0.786087 317.263 0.786087C317.263 -42.1439 270.172 -57.0257 270.172 -57.0257C255.536 -56.9111 217.367 -56.8284 163 -56.8281C108.633 -56.8279 57.8352 -56.9111 55.4223 -57.0258C55.4223 -57.0258 8.50731 -42.1439 8.27734 0.786087Z"></path>
  <clipPath id="cl_6ed">
    <path d="M99.4657 195.523C99.4657 195.523 119.268 201.914 161.426 214.657C184.269 221.563 212.299 220.843 248.934 222.777C272.793 225.386 318.959 216.114 318.959 216.114C318.959 216.114 319.623 208.342 323.154 208.342C326.686 208.342 332.235 216.114 332.235 216.114C344.655 216.114 361.478 208.62 370.32 207.572C399.924 204.065 399.8 195.523 399.8 195.523C399.8 153.795 354.027 139.33 354.027 139.33C339.801 139.442 302.701 139.522 249.856 139.522C197.011 139.523 147.636 139.442 145.291 139.33C145.291 139.33 99.6892 153.795 99.4657 195.523Z"></path>
  </clipPath>
  <g clip-path="url(#cl_6ed)">
    <path fill="#7F4728" transform="matrix(2.61439 -0.086419 0.123843 3.74656 194.452 194.273)" d="M-14.8742 -9.69254L16.7537 -6.36031L15.092 9.39556L-21.0084 4.35254L-14.8742 -9.69254Z"></path>
  </g>
  <path fill="none" stroke="#612F13" stroke-width="1" stroke-linecap="round" stroke-linejoin="round" transform="matrix(0.0654088 -1.56104 1.56104 0.0654088 205.396 168.629)" d="M1.02357 0.373772L4.21644 0.641895"></path>
  <path fill="none" stroke="#612F13" stroke-width="1" stroke-linecap="round" stroke-linejoin="round" transform="matrix(0.0654088 -1.56104 1.56104 0.0654088 193.246 168.143)" d="M1.02357 0.373772L4.21644 0.641895"></path>
  <clipPath id="cl_6ee">
    <path d="M99.4657 195.523C99.4657 195.523 119.268 201.914 161.426 214.657C184.269 221.563 212.299 220.843 248.934 222.777C272.793 225.386 318.959 216.114 318.959 216.114C318.959 216.114 319.623 208.342 323.154 208.342C326.686 208.342 332.235 216.114 332.235 216.114C344.655 216.114 361.478 208.62 370.32 207.572C399.924 204.065 399.8 195.523 399.8 195.523C399.8 153.795 354.027 139.33 354.027 139.33C339.801 139.442 302.701 139.522 249.856 139.522C197.011 139.523 147.636 139.442 145.291 139.33C145.291 139.33 99.6892 153.795 99.4657 195.523Z"></path>
  </clipPath>
  <g clip-path="url(#cl_6ee)">
    <clipPath id="cl_6ef">
      <path d="M99.4657 195.523C99.4657 195.523 119.268 201.914 161.426 214.657C184.269 221.563 212.299 220.843 248.934 222.777C272.793 225.386 318.959 216.114 318.959 216.114C318.959 216.114 319.623 208.342 323.154 208.342C326.686 208.342 332.235 216.114 332.235 216.114C344.655 216.114 361.478 208.62 370.32 207.572C399.924 204.065 399.8 195.523 399.8 195.523C399.8 153.795 354.027 139.33 354.027 139.33C339.801 139.442 302.701 139.522 249.856 139.522C197.011 139.523 147.636 139.442 145.291 139.33C145.291 139.33 99.6892 153.795 99.4657 195.523Z"></path>
    </clipPath>
    <g clip-path="url(#cl_6ef)">
      <path fill="#7F4728" transform="matrix(0.972 7.30008e-23 -7.30008e-23 0.972 379.618 170.702)" d="M7.62939e-06 -32.5C25.6812 -32.5 46.5 -17.8373 46.5 0.25C46.5 18.3373 25.6812 33 7.62939e-06 33C-25.6812 33 -46.5 18.3373 -46.5 0.25C-46.5 -17.8373 -25.6812 -32.5 7.62939e-06 -32.5Z"></path>
    </g>
    <path fill="none" stroke="#612F13" stroke-width="1" stroke-linecap="round" stroke-linejoin="round" transform="matrix(-1.42852 0.632822 -0.632822 -1.42852 338.794 175.319)" d="M1.02356 0.37377L4.21643 0.641894"></path>
    <path fill="none" stroke="#612F13" stroke-width="1" stroke-linecap="round" stroke-linejoin="round" transform="matrix(-0.810895 1.33551 -1.33551 -0.810895 353.86 191.843)" d="M1.02357 0.373772L4.21644 0.641895"></path>
    <path fill="none" stroke="#612F13" stroke-width="1" stroke-linecap="round" stroke-linejoin="round" transform="matrix(-1.5617 -0.0472275 0.0472275 -1.5617 339.28 165.599)" d="M1.02357 0.373772L4.21644 0.641895"></path>
  </g>
</svg>