<?xml version="1.0" encoding="utf-8"?>
<svg xmlns="http://www.w3.org/2000/svg" xmlns:xlink="http://www.w3.org/1999/xlink" width="512" height="512">
  <path fill="none" stroke="black" stroke-width="6" stroke-linejoin="round" transform="matrix(1.8 0 0 1.52279 359.051 170.517)" d="M-11.3382 -16.0109C-7.85857 -15.6278 -5.27105 -15.343 -1.96194 -14.9787C5.07186 -14.2044 11.8876 -9.43375 10.6558 6.20067C9.42396 21.8351 7.12749 50.9823 6.43916 59.7186C3.06925 102.49 -60.1538 95.4878 -56.7839 52.7163C-55.938 41.9794 -54.3829 22.2426 -53.4034 9.8107C-52.424 -2.62117 -44.7904 -19.6935 -28.7799 -17.931C-27.4433 -17.7838 -26.1921 -17.6461 -25.0171 -17.5167"></path>
  <path fill="none" stroke="black" stroke-width="6" stroke-linejoin="round" transform="matrix(1.8 0 0 1.64041 359.051 252.763)" d="M-55.9326 -7.84012C-46.4227 -49.2534 15.4291 -34.0012 5.91917 7.4121C2.14405 23.8518 -4.15355 51.2762 -8.06588 68.3134C-9.44048 74.2994 -20.2542 83.2499 -42.9514 77.9306C-65.6486 72.6114 -71.501 59.9561 -70.4295 55.2903C-66.4943 38.1533 -58.7186 4.29198 -55.9326 -7.84012Z"></path>
  <path fill="#503F7E" transform="matrix(1.8 0 0 1.52279 359.051 170.517)" d="M-53.4034 9.81071C-52.424 -2.62117 -44.7904 -19.6935 -28.7799 -17.931C-12.7693 -16.1684 -8.99574 -15.753 -1.96194 -14.9787C5.07186 -14.2044 11.8876 -9.43375 10.6558 6.20067C9.42395 21.8351 7.12749 50.9823 6.43916 59.7186C3.06925 102.49 -60.1538 95.4878 -56.7839 52.7163C-55.938 41.9794 -54.3829 22.2426 -53.4034 9.81071Z"></path>
  <path fill="#503F7E" transform="matrix(1.8 0 0 1.64041 359.051 252.763)" d="M-55.9326 -7.84012C-46.4227 -49.2534 15.4291 -34.0012 5.91917 7.41209C2.14405 23.8518 -4.15355 51.2762 -8.06588 68.3134C-9.44048 74.2994 -20.2542 83.2499 -42.9514 77.9306C-65.6486 72.6114 -71.501 59.9561 -70.4295 55.2903C-66.4943 38.1533 -58.7186 4.29198 -55.9326 -7.84012Z"></path>
  <path fill="none" stroke="black" stroke-width="5" stroke-linejoin="round" transform="matrix(1.67985 0 0 1.8 269.501 356.202)" d="M-44.0149 -15.6715C-25.7912 -15.9034 -12.7858 -11.8965 -12.0935 35.488C-11.4481 49.5822 -6.98409 64.7794 -21.9677 74.0897C-33.5364 73.9975 -46.4598 74.8039 -62.9245 74.5394C-73.7686 65.6143 -74.5115 52.1949 -75.3109 35.3893C-76.606 -11.0844 -62.2386 -15.4396 -44.0149 -15.6715Z"></path>
  <path fill="#453279" transform="matrix(1.67985 0 0 1.8 269.501 356.202)" d="M-44.0149 -15.6715C-25.7912 -15.9034 -12.7858 -11.8965 -12.0935 35.488C-11.4481 49.5822 -6.98409 64.7794 -21.9677 74.0897C-33.5364 73.9975 -46.4598 74.8039 -62.9245 74.5394C-73.7686 65.6143 -74.5115 52.1949 -75.3109 35.3893C-76.606 -11.0844 -62.2386 -15.4396 -44.0149 -15.6715Z"></path>
  <path fill="none" stroke="black" stroke-width="5" stroke-linejoin="round" transform="matrix(1.67985 0 0 1.8 191.63 362.835)" d="M40.4935 -13.9831C58.3667 -17.311 83.1929 -8.84093 81.7312 37.3273C81.7484 55.7341 77.4584 71.4775 60.8142 75.126C45.3553 74.3946 34.6826 73.8395 19.9172 72.4436C6.95099 63.1454 19.5398 50.8175 20.177 34.7495C21.0107 -10.5556 22.6204 -10.6553 40.4935 -13.9831Z"></path>
  <path fill="none" stroke="black" stroke-width="5" stroke-linejoin="round" transform="matrix(1.79976 0.0276995 -0.0293645 1.69771 274.681 280.575)" d="M-11.3238 -80.2543C25.8014 -80.2543 54.9476 -94.6926 58.9092 -40.8672C62.8708 12.9582 37.0524 74.7499 0.0572909 75.3534C-14.1177 75.5847 -17.7665 75.6442 -48.2096 76.1409C-78.6526 76.6376 -84.25 60.12 -84.25 9.53674e-07C-86.6294 -86.0849 -88.6034 -78.4854 -12.7475 -80.2208"></path>
  <path fill="#503F7E" transform="matrix(1.67985 0 0 1.8 191.63 362.835)" d="M40.4935 -13.9831C58.3667 -17.311 83.1929 -8.84093 81.7312 37.3273C81.7484 55.7341 77.4584 71.4775 60.8142 75.126C45.3553 74.3946 34.6826 73.8395 19.9172 72.4436C6.95099 63.1454 19.5398 50.8175 20.177 34.7495C21.0107 -10.5556 22.6204 -10.6553 40.4935 -13.9831Z"></path>
  <path fill="none" stroke="black" stroke-width="5" stroke-linejoin="round" transform="matrix(1.53139 0 0 1.39334 226.982 127.526)" d="M0 -40C20.9426 -40 35.0096 -26.8589 47.8597 -2.20017C49.1253 -3.81498 50.3123 -3.57652 51.1974 -3.11681C52.0824 -2.6571 52.5509 -1.60561 52.2206 -0.665335C53.8523 0.0632067 55.2854 1.47333 55.8775 2.67699C56.9197 4.79567 57.6743 10.5072 53.7931 11.8212C58.5977 31.9882 20.3682 22.0914 -1.32962e-05 22.0914C-20.2357 22.0914 -45.0732 28.3281 -41.8836 12.9784C-44.6787 11.8212 -48.2008 8.95145 -46.5316 4.29176C-45.7036 1.98007 -43.8185 0.567096 -42.3936 0.567005C-41.0392 0.566917 -42.9934 -2.19999 -40.2188 -3.8149C-39.0195 -4.5129 -37.7273 -4.43211 -36.6068 -4.12355C-28.0141 -23.731 -20.4124 -40 0 -40Z"></path>
  <path fill="#503F7E" transform="matrix(1.79976 0.0276995 -0.0293645 1.69771 274.681 280.575)" d="M-11.3238 -80.2543C25.8014 -80.2543 54.9476 -94.6926 58.9092 -40.8672C62.8708 12.9582 37.0524 74.7499 0.0572909 75.3534C-14.1177 75.5847 -17.7665 75.6442 -48.2096 76.1409C-78.6526 76.6376 -84.25 60.12 -84.25 9.53674e-07C-86.6442 -86.62 -88.6279 -78.3873 -11.3238 -80.2543Z"></path>
  <clipPath id="cl_303">
    <path d="M256.658 144.013C323.474 145.042 376.354 121.337 381.904 212.826C387.453 304.316 339.172 408.506 272.572 408.505C247.053 408.505 240.485 408.505 185.68 408.505C130.875 408.505 121.286 380.308 123.052 278.242C121.286 131.12 117.474 145.041 256.658 144.013Z"></path>
  </clipPath>
  <g clip-path="url(#cl_303)">
    <path fill="#655494" transform="matrix(1.8 0 0 1.8 311.807 262.655)" d="M-0.158648 -48.2655C25.513 -48.2655 46.324 -26.6563 46.324 0C46.324 26.6563 25.513 48.2655 -0.158648 48.2655C-25.8303 48.2655 -46.6413 26.6563 -46.6413 0C-46.6413 -26.6563 -25.8303 -48.2655 -0.158648 -48.2655Z"></path>
  </g>
  <path fill="none" stroke="black" stroke-width="2" stroke-linejoin="round" transform="matrix(3.88825 -0.763212 0.691401 3.5224 233.781 49.2777)" d="M-4.34758 -5.25471C-4.34758 -11.5047 3.66088 -11.5047 3.66088 -5.25472C3.66088 0.995284 3.66088 12.5 3.66088 12.5L-4.57314 12.5C-4.57314 12.5 -4.34758 0.995284 -4.34758 -5.25471Z"></path>
  <path fill="none" stroke="black" stroke-width="2" stroke-linejoin="round" transform="matrix(3.5224 -0.691401 0.691401 3.5224 199.573 54.6905)" d="M-5.1645 -6.50116C-5.16451 -12.7512 6 -12.7512 6 -6.50116C6 -0.251162 6 12.5 6 12.5L-6 12.5C-6 12.5 -5.1645 -0.251163 -5.1645 -6.50116Z"></path>
  <path fill="#453279" transform="matrix(3.88825 -0.763212 0.691401 3.5224 233.781 49.2777)" d="M-4.34758 -5.25471C-4.34758 -11.5047 3.66088 -11.5047 3.66088 -5.25472C3.66088 0.995284 3.66088 12.5 3.66088 12.5L-4.57314 12.5C-4.57314 12.5 -4.34758 0.995284 -4.34758 -5.25471Z"></path>
  <path fill="none" stroke="#161616" stroke-width="0.5" stroke-linecap="round" stroke-linejoin="round" transform="matrix(3.88825 -0.763212 0.691401 3.5224 228.988 29.7461)" d="M3.59179e-06 1.51652L2.87701e-06 10.5382"></path>
  <path fill="#503F7E" transform="matrix(3.5224 -0.691401 0.691401 3.5224 199.573 54.6906)" d="M-5.1645 -6.50116C-5.1645 -12.7512 6 -12.7512 6 -6.50116C6 -0.251162 6 12.5 6 12.5L-6 12.5C-6 12.5 -5.1645 -0.251163 -5.1645 -6.50116Z"></path>
  <path fill="none" stroke="#161616" stroke-width="0.5" stroke-linecap="round" stroke-linejoin="round" transform="matrix(3.5224 -0.691401 0.691401 3.5224 199.787 34.6721)" d="M9.72213e-07 3.8412e-06L4.78691e-06 10.5382"></path>
  <path fill="#503F7E" transform="matrix(1.53139 0 0 1.39334 226.982 127.526)" d="M0 -40C20.9426 -40 35.0096 -26.8589 47.8597 -2.20017C49.1253 -3.81498 50.3123 -3.57652 51.1974 -3.11681C52.0824 -2.6571 52.5509 -1.60561 52.2206 -0.665335C53.8523 0.0632067 55.2854 1.47333 55.8775 2.67699C56.9197 4.79567 57.6743 10.5072 53.7931 11.8212C58.5977 31.9882 20.3682 22.0914 -1.32962e-05 22.0914C-20.2357 22.0914 -45.0732 28.3281 -41.8836 12.9784C-44.6787 11.8212 -48.2008 8.95145 -46.5316 4.29176C-45.7036 1.98007 -43.8185 0.567096 -42.3936 0.567005C-41.0392 0.566917 -42.9934 -2.19999 -40.2188 -3.8149C-39.0195 -4.5129 -37.7273 -4.43211 -36.6068 -4.12355C-28.0141 -23.731 -20.4124 -40 0 -40Z"></path>
  <clipPath id="cl_304">
    <path d="M226.982 71.7922C259.053 71.7922 280.595 90.1023 300.273 124.46C302.211 122.21 304.029 122.543 305.384 123.183C306.74 123.824 307.457 125.289 306.951 126.599C309.45 127.614 311.645 129.579 312.552 131.256C314.148 134.208 315.303 142.166 309.359 143.997C316.717 172.096 258.173 158.307 226.981 158.307C195.993 158.307 157.957 166.997 162.842 145.609C158.561 143.997 153.168 139.998 155.724 133.506C156.992 130.285 159.879 128.316 162.061 128.316C164.135 128.316 161.142 124.461 165.391 122.21C167.228 121.238 169.206 121.35 170.922 121.78C184.081 94.4604 195.722 71.7922 226.982 71.7922Z"></path>
  </clipPath>
  <g clip-path="url(#cl_304)">
    <path fill="#7463A5" transform="matrix(1.8 2.98023e-08 0.00759348 1.8 224.24 113.624)" d="M0 -5.50001C3.86599 -5.50001 7 -2.92565 7 0.249992C7 3.42563 3.86599 5.99999 0 5.99999C-3.86599 5.99999 -7 3.42563 -7 0.249992C-7 -2.92565 -3.86599 -5.50001 0 -5.50001Z"></path>
    <path fill="#7463A5" transform="matrix(1.83618 3.04014e-08 0.00759348 1.8 276.788 105.478)" d="M-9.53674e-07 -5C2.76142 -5 5 -2.6495 5 0.25C5 3.1495 2.76142 5.5 -9.53674e-07 5.5C-2.76142 5.5 -5 3.1495 -5 0.25C-5 -2.6495 -2.76142 -5 -9.53674e-07 -5Z"></path>
    <path fill="none" stroke="#131212" stroke-width="1" stroke-linecap="round" stroke-linejoin="round" transform="matrix(2.30699 -0.373724 0.274137 1.69224 255.019 98.7822)" d="M4.88246e-07 -8.0435e-06L2.92891 -0.714575"></path>
    <path fill="none" stroke="#131212" stroke-width="1" stroke-linecap="round" stroke-linejoin="round" transform="matrix(2.30699 -0.373724 0.274137 1.69224 233.269 97.9525)" d="M4.76837e-07 1.51103e-05L4.25731 1.79214"></path>
    <path fill="#131212" transform="matrix(2.47104 -0.400299 0.405754 2.50471 247.054 101.063)" d="M4.54078e-07 -2.15485e-07L1.9614 0.352738L0.91509 1.42246L4.54078e-07 -2.15485e-07Z"></path>
    <path fill="none" stroke="#131212" stroke-width="0.5" stroke-linecap="round" stroke-linejoin="round" transform="matrix(1.93759 -0.313883 0.31816 1.96399 250.113 104.598)" d="M1.0721e-06 -0.711232L-2.76974e-06 1.11019"></path>
    <path fill="#32225E" transform="matrix(1.74285 0.441491 -0.424043 1.74552 243.901 93.1971)" d="M-1.93607e-06 -1.92716C1.6285 -1.92716 2.94867 -1.06434 2.94867 -4.39386e-08C2.94867 1.06434 1.6285 1.92716 -1.87863e-06 1.92716C-1.62851 1.92716 -2.94867 1.06434 -2.94867 4.39386e-08C-2.94867 -1.06434 -1.62851 -1.92716 -1.93607e-06 -1.92716Z"></path>
    <path fill="#32225E" transform="matrix(1.71213 0.433708 -0.412468 1.69787 255.094 92.3223)" d="M-3.8147e-06 -1.8992C0.889985 -1.8992 1.61146 -1.0489 1.61146 -7.65341e-06C1.61146 1.04889 0.889985 1.89918 -3.8147e-06 1.89918C-0.889993 1.89918 -1.61147 1.04889 -1.61147 -7.60538e-06C-1.61147 -1.0489 -0.889993 -1.8992 -3.8147e-06 -1.8992Z"></path>
  </g>
  <path fill="none" stroke="black" stroke-width="6" stroke-linejoin="round" transform="matrix(1.8 0 0 1.8 171.84 263.1)" d="M-23.296 4.1588C-29.2038 -35.125 33.5901 -44.5684 39.4979 -5.28463C42.0141 11.4469 46.2116 39.3583 48.8193 56.698C49.7355 62.7903 43.003 75.2456 20.0616 78.9692C-2.8798 82.6929 -12.9192 73.1588 -13.6334 68.4102C-16.2563 50.9689 -21.4391 16.5063 -23.296 4.1588Z"></path>
  <path fill="none" stroke="black" stroke-width="6" stroke-linecap="round" stroke-linejoin="bevel" transform="matrix(1.8 0 0 1.67094 171.84 172.853)" d="M37.1673 32.4544C38.3179 40.2775 39.3087 47.0147 39.8202 50.492C46.0601 92.9194 -16.6638 103.582 -22.9037 61.1544C-24.4701 50.5038 -27.3495 30.9258 -29.1632 18.5939C-30.9769 6.26203 -27.3834 -12.4092 -11.5017 -15.1197C-9.85991 -15.3999 -8.34781 -15.658 -6.94846 -15.8968"></path>
  <path fill="#503F7E" transform="matrix(1.8 0 0 1.8 171.84 263.1)" d="M-23.296 4.1588C-29.4492 -36.7565 33.3447 -46.2 39.4979 -5.28463C42.0141 11.4469 46.2116 39.3583 48.8193 56.698C49.7355 62.7903 43.003 75.2456 20.0616 78.9692C-2.8798 82.6929 -12.9192 73.1588 -13.6334 68.4102C-16.2563 50.9689 -21.4391 16.5063 -23.296 4.1588Z"></path>
  <path fill="#503F7E" transform="matrix(1.8 0 0 1.67094 171.84 172.853)" d="M-29.1632 18.5939C-30.9769 6.26203 -27.3834 -12.4092 -11.5017 -15.1197C4.38 -17.8302 8.12323 -18.4691 15.1004 -19.6599C22.0777 -20.8507 29.7316 -18.104 32.0124 -2.59536C34.2934 12.9133 38.5456 41.826 39.8202 50.492C45.3088 87.8116 -17.415 98.4739 -22.9037 61.1543C-24.4701 50.5038 -27.3495 30.9257 -29.1632 18.5939Z"></path>
  <path fill="none" stroke="black" stroke-width="7" stroke-linecap="round" stroke-miterlimit="4" transform="translate(256 256)" d="M-6.14386 -116.522C52.2601 -116.522 99.6059 -116.447 99.6059 -116.355C99.6059 -116.263 52.2601 -116.188 -6.14386 -116.188C-64.5478 -116.188 -111.894 -116.263 -111.894 -116.355C-111.894 -116.447 -64.5478 -116.522 -6.14386 -116.522Z"></path>
  <path fill="#8D5A3E" transform="matrix(1.27409 9.56891e-23 -1.50956e-25 0.00200997 249.856 139.645)" d="M-1.02305e-30 -83C45.8396 -83 83 -45.8396 83 0C83 45.8396 45.8396 83 1.02305e-30 83C-45.8396 83 -83 45.8396 -83 0C-83 -45.8396 -45.8396 -83 -1.02305e-30 -83Z"></path>
  <path fill="#65524C" transform="matrix(0.732603 5.50213e-23 -1.39281e-25 0.00185451 249.856 139.672)" d="M0 -97.4961C45.8396 -97.4961 83 -53.8439 83 0.00390625C83 53.8517 45.8396 97.5039 0 97.5039C-45.8396 97.5039 -83 53.8517 -83 0.00390625C-83 -53.8439 -45.8396 -97.4961 0 -97.4961Z"></path>
  <clipPath id="cl_30c">
    <path d="M249.856 139.491C283.438 139.491 310.662 139.572 310.662 139.672C310.662 139.772 283.438 139.853 249.856 139.853C216.274 139.853 189.05 139.772 189.05 139.672C189.05 139.572 216.274 139.491 249.856 139.491Z"></path>
  </clipPath>
  <g clip-path="url(#cl_30c)">
    <path fill="#281C18" transform="matrix(0.732603 5.50213e-23 -1.39281e-25 0.00185451 230.745 139.672)" d="M3.8147e-06 -97.5C45.8396 -97.5 83 -53.8478 83 -2.68187e-25C83 53.8478 45.8396 97.5 3.8147e-06 97.5C-45.8396 97.5 -83 53.8478 -83 2.68187e-25C-83 -53.8478 -45.8396 -97.5 3.8147e-06 -97.5Z"></path>
  </g>
  <path fill="none" stroke="black" stroke-width="7" stroke-linejoin="round" transform="translate(256 256)" d="M-110.972 -116.293C-114.678 -115.038 -156.321 -100.043 -156.534 -59.8427C-156.534 -59.8427 -139.16 -52.8858 -93.3282 -39.2757C-57.5869 -28.6619 -62.6492 -35.6988 -7.0665 -32.7633C16.793 -30.1548 62.959 -39.4267 62.959 -39.4267C62.959 -39.4267 62.6623 -48.4716 67.9277 -48.4716C73.1931 -48.4716 76.2347 -39.4267 76.2347 -39.4267C88.9785 -39.4267 100.393 -45.8767 109.976 -47.2716C140.175 -51.6672 143.8 -59.8427 143.8 -59.8427C143.8 -101.915 98.027 -116.38 98.027 -116.38C83.8013 -116.269 46.701 -116.188 -6.14386 -116.188C-58.9887 -116.188 -108.364 -116.269 -110.709 -116.38C-110.709 -116.38 -110.8 -116.352 -110.972 -116.293"></path>
  <path fill="none" stroke="black" stroke-width="21" stroke-linecap="round" stroke-linejoin="round" transform="matrix(0.972 7.30008e-23 -7.30008e-23 0.972 91.4201 195.049)" d="M8.27734 1.14049C8.27734 1.14049 26.1524 8.29771 73.3042 22.2999C110.075 33.2194 104.867 25.9798 162.051 28.9999C186.598 31.6836 234.093 22.1446 234.093 22.1446C234.093 22.1446 233.788 12.8391 239.205 12.8391C244.622 12.8391 247.752 22.1446 247.752 22.1446C260.863 22.1446 272.606 15.5088 282.465 14.0737C313.534 9.55149 317.263 1.14049 317.263 1.14049C317.263 -0.0604736 317.227 -1.23957 317.156 -2.39709"></path>
  <path fill="none" stroke="white" stroke-width="14" stroke-linecap="round" stroke-linejoin="round" transform="matrix(0.972 7.30008e-23 -7.30008e-23 0.972 91.4201 195.049)" d="M8.27734 1.14049C8.27734 1.14049 26.1524 8.29771 73.3042 22.2999C110.075 33.2194 104.867 25.9798 162.051 28.9999C186.598 31.6836 234.093 22.1446 234.093 22.1446C234.093 22.1446 233.788 12.8391 239.205 12.8391C244.622 12.8391 247.752 22.1446 247.752 22.1446C260.863 22.1446 272.606 15.5088 282.465 14.0737C313.534 9.55149 317.263 1.14049 317.263 1.14049C317.263 0.562484 317.254 -0.0104554 317.238 -0.578362"></path>
  <path fill="#8D5A3E" transform="matrix(0.972 7.30008e-23 -7.30008e-23 0.972 91.4201 195.049)" d="M8.27734 1.14049C8.27734 1.14049 28.6505 7.53513 72.0222 20.646C95.5232 27.7502 124.361 27.0094 162.051 28.9999C186.598 31.6836 234.093 22.1446 234.093 22.1446C234.093 22.1446 234.776 14.149 238.41 14.149C242.043 14.149 247.752 22.1446 247.752 22.1446C260.529 22.1446 277.837 14.4345 286.934 13.3567C317.391 9.74834 317.263 1.14049 317.263 1.14049C317.263 -42.1439 270.172 -57.0257 270.172 -57.0257C255.536 -56.9111 217.367 -56.8284 163 -56.8281C108.633 -56.8279 57.8352 -56.9111 55.4223 -57.0258C55.4223 -57.0258 8.50731 -42.1439 8.27734 1.14049Z"></path>
  <clipPath id="cl_30d">
    <path d="M99.4657 196.157C99.4657 196.157 119.268 202.373 161.426 215.117C184.269 222.022 212.299 221.302 248.934 223.237C272.793 225.845 318.959 216.573 318.959 216.573C318.959 216.573 319.623 208.802 323.154 208.802C326.686 208.802 332.235 216.573 332.235 216.573C344.655 216.573 361.478 209.079 370.32 208.031C399.924 204.524 399.8 196.157 399.8 196.157C399.8 154.085 354.027 139.62 354.027 139.62C339.801 139.731 302.701 139.812 249.856 139.812C197.011 139.812 147.636 139.731 145.291 139.62C145.291 139.62 99.6892 154.085 99.4657 196.157Z"></path>
  </clipPath>
  <g clip-path="url(#cl_30d)">
    <path fill="#7F4728" transform="matrix(2.61439 -0.086419 0.123843 3.74656 194.452 194.563)" d="M-14.8742 -9.69253L16.7537 -6.3603L15.092 9.39556L-21.0084 4.35254L-14.8742 -9.69253Z"></path>
  </g>
  <path fill="none" stroke="#612F13" stroke-width="1" stroke-linecap="round" stroke-linejoin="round" transform="matrix(0.0654088 -1.56104 1.56104 0.0654088 205.396 168.918)" d="M1.02357 0.373772L4.21644 0.641895"></path>
  <path fill="none" stroke="#612F13" stroke-width="1" stroke-linecap="round" stroke-linejoin="round" transform="matrix(0.0654088 -1.56104 1.56104 0.0654088 193.246 168.432)" d="M1.02357 0.373775L4.21644 0.641899"></path>
  <clipPath id="cl_30e">
    <path d="M99.4657 196.157C99.4657 196.157 119.268 202.373 161.426 215.117C184.269 222.022 212.299 221.302 248.934 223.237C272.793 225.845 318.959 216.573 318.959 216.573C318.959 216.573 319.623 208.802 323.154 208.802C326.686 208.802 332.235 216.573 332.235 216.573C344.655 216.573 361.478 209.079 370.32 208.031C399.924 204.524 399.8 196.157 399.8 196.157C399.8 154.085 354.027 139.62 354.027 139.62C339.801 139.731 302.701 139.812 249.856 139.812C197.011 139.812 147.636 139.731 145.291 139.62C145.291 139.62 99.6892 154.085 99.4657 196.157Z"></path>
  </clipPath>
  <g clip-path="url(#cl_30e)">
    <clipPath id="cl_30f">
      <path d="M99.4657 196.157C99.4657 196.157 119.268 202.373 161.426 215.117C184.269 222.022 212.299 221.302 248.934 223.237C272.793 225.845 318.959 216.573 318.959 216.573C318.959 216.573 319.623 208.802 323.154 208.802C326.686 208.802 332.235 216.573 332.235 216.573C344.655 216.573 361.478 209.079 370.32 208.031C399.924 204.524 399.8 196.157 399.8 196.157C399.8 154.085 354.027 139.62 354.027 139.62C339.801 139.731 302.701 139.812 249.856 139.812C197.011 139.812 147.636 139.731 145.291 139.62C145.291 139.62 99.6892 154.085 99.4657 196.157Z"></path>
    </clipPath>
    <g clip-path="url(#cl_30f)">
      <path fill="#7F4728" transform="matrix(0.972 7.30008e-23 -7.30008e-23 0.972 379.618 170.992)" d="M7.62939e-06 -32.5C25.6812 -32.5 46.5 -17.8373 46.5 0.25C46.5 18.3373 25.6812 33 7.62939e-06 33C-25.6812 33 -46.5 18.3373 -46.5 0.25C-46.5 -17.8373 -25.6812 -32.5 7.62939e-06 -32.5Z"></path>
    </g>
    <path fill="none" stroke="#612F13" stroke-width="1" stroke-linecap="round" stroke-linejoin="round" transform="matrix(-1.42852 0.632822 -0.632822 -1.42852 338.794 175.609)" d="M1.02357 0.373773L4.21644 0.641897"></path>
    <path fill="none" stroke="#612F13" stroke-width="1" stroke-linecap="round" stroke-linejoin="round" transform="matrix(-0.810895 1.33551 -1.33551 -0.810895 353.86 192.133)" d="M1.02357 0.373775L4.21644 0.641899"></path>
    <path fill="none" stroke="#612F13" stroke-width="1" stroke-linecap="round" stroke-linejoin="round" transform="matrix(-1.5617 -0.0472275 0.0472275 -1.5617 339.28 165.889)" d="M1.02357 0.373775L4.21644 0.641899"></path>
  </g>
</svg>