<?xml version="1.0" encoding="utf-8"?>
<svg xmlns="http://www.w3.org/2000/svg" xmlns:xlink="http://www.w3.org/1999/xlink" width="512" height="512">
  <path fill="none" stroke="black" stroke-width="6" stroke-linejoin="round" transform="matrix(1.8 0 0 1.52279 359.051 174.738)" d="M-12.6482 -16.8186C-9.02602 -16.7482 -6.38339 -16.6968 -2.98119 -16.6307C4.08209 -16.4934 11.1861 -12.3518 10.9677 3.34813C10.7493 19.0481 10.3422 48.3174 10.2202 57.0904C9.62281 100.041 -53.868 98.7651 -53.2706 55.8143C-53.1207 45.0324 -52.845 25.2128 -52.6714 12.7288C-52.4977 0.244858 -45.9892 -17.4665 -29.9115 -17.1541C-28.6827 -17.1302 -27.5257 -17.1077 -26.4336 -17.0865"></path>
  <path fill="none" stroke="black" stroke-width="6" stroke-linejoin="round" transform="matrix(1.8 0 0 1.64041 359.051 256.984)" d="M-52.8877 -4.98973C-46.3228 -47.0845 16.418 -37.1117 9.85307 4.98305C7.24702 21.6933 2.89964 49.569 0.198864 66.8865C-0.750053 72.9711 -10.9011 82.81 -33.905 79.4273C-56.9089 76.0446 -63.6349 63.9222 -62.8953 59.1796C-60.1787 41.7606 -54.8109 7.34203 -52.8877 -4.98973Z"></path>
  <path fill="#503F7E" transform="matrix(1.8 0 0 1.52279 359.051 174.738)" d="M-52.6714 12.7288C-52.4977 0.24485 -45.9892 -17.4665 -29.9115 -17.1541C-13.8339 -16.8416 -10.0445 -16.768 -2.98119 -16.6307C4.08209 -16.4934 11.1861 -12.3518 10.9677 3.34812C10.7493 19.0481 10.3422 48.3174 10.2202 57.0904C9.62281 100.041 -53.868 98.7651 -53.2706 55.8143C-53.1207 45.0324 -52.845 25.2128 -52.6714 12.7288Z"></path>
  <path fill="#503F7E" transform="matrix(1.8 0 0 1.64041 359.051 256.984)" d="M-52.8877 -4.98973C-46.3228 -47.0845 16.418 -37.1117 9.85307 4.98305C7.24702 21.6932 2.89964 49.569 0.198864 66.8865C-0.750053 72.9711 -10.9011 82.81 -33.905 79.4273C-56.9089 76.0446 -63.6349 63.9222 -62.8953 59.1796C-60.1787 41.7606 -54.8109 7.34203 -52.8877 -4.98973Z"></path>
  <path fill="none" stroke="black" stroke-width="5" stroke-linejoin="round" transform="matrix(1.67985 0 0 1.8 269.501 356.202)" d="M-25.8707 -15.6705C-7.64745 -15.9305 5.36512 -11.9437 6.14151 35.4396C6.81195 49.5328 11.3115 64.7348 -3.67074 74.0881C-15.2394 73.996 -28.1628 74.8024 -44.6275 74.5378C-55.4722 65.6009 -56.2467 52.243 -57.076 35.4386C-58.4536 -11.033 -44.094 -15.4104 -25.8707 -15.6705Z"></path>
  <path fill="#453279" transform="matrix(1.67985 0 0 1.8 269.501 356.202)" d="M-25.8707 -15.6705C-7.64745 -15.9305 5.36512 -11.9437 6.14151 35.4396C6.81195 49.5328 11.3115 64.7348 -3.67074 74.0881C-15.2394 73.996 -28.1628 74.8024 -44.6275 74.5378C-55.4722 65.6009 -56.2467 52.243 -57.076 35.4386C-58.4536 -11.033 -44.094 -15.4104 -25.8707 -15.6705Z"></path>
  <path fill="none" stroke="black" stroke-width="5" stroke-linejoin="round" transform="matrix(1.67985 0 0 1.8 191.63 362.835)" d="M18.3597 -12.7266C34.7757 -20.1152 71.6956 -7.46477 70.063 34.4615C69.9571 51.1804 57.9119 73.6084 40.8251 73.0646C26.1217 68.5498 15.9848 65.3844 2.13835 60.3997C-7.77328 48.2593 13.4855 46.3569 14.1704 31.7659C15.2268 -9.37988 1.94368 -5.33797 18.3597 -12.7266Z"></path>
  <path fill="none" stroke="black" stroke-width="5" stroke-linejoin="round" transform="matrix(1.79976 0.0276995 -0.0293645 1.69771 274.681 284.797)" d="M-11.3238 -80.2543C25.8014 -80.2543 54.9476 -94.6926 58.9092 -40.8672C62.8708 12.9582 37.0524 74.7499 0.0572909 75.3534C-14.1177 75.5847 -17.7665 75.6442 -48.2096 76.1409C-78.6526 76.6376 -84.25 60.12 -84.25 1.90735e-06C-86.6294 -86.0849 -88.6034 -78.4854 -12.7475 -80.2208"></path>
  <path fill="#503F7E" transform="matrix(1.67985 0 0 1.8 191.63 362.835)" d="M18.3597 -12.7266C34.7757 -20.1152 71.6956 -7.46477 70.063 34.4615C69.9571 51.1804 57.9119 73.6084 40.8251 73.0646C26.1217 68.5498 15.9848 65.3844 2.13835 60.3997C-7.77328 48.2593 13.4855 46.3569 14.1704 31.7659C15.2268 -9.37988 1.94368 -5.33797 18.3597 -12.7266Z"></path>
  <path fill="none" stroke="black" stroke-width="5" stroke-linejoin="round" transform="matrix(1.53139 0 0 1.39334 226.982 134.521)" d="M0 -40C20.9426 -40 35.0096 -26.8589 47.8597 -2.20018C49.1253 -3.81499 50.3123 -3.57653 51.1974 -3.11682C52.0824 -2.65711 52.5509 -1.60562 52.2206 -0.665342C53.8523 0.0631991 55.2854 1.47333 55.8775 2.67698C56.9197 4.79566 57.6743 10.5072 53.7931 11.8212C58.5977 31.9882 20.3682 22.0914 -1.32962e-05 22.0914C-20.2357 22.0914 -45.0732 28.3281 -41.8836 12.9784C-44.6787 11.8212 -48.2008 8.95144 -46.5316 4.29175C-45.7036 1.98006 -43.8185 0.567089 -42.3936 0.566997C-41.0392 0.56691 -42.9934 -2.2 -40.2188 -3.81491C-39.0195 -4.51291 -37.7273 -4.43211 -36.6068 -4.12355C-28.0141 -23.7311 -20.4124 -40 0 -40Z"></path>
  <path fill="#503F7E" transform="matrix(1.79976 0.0276995 -0.0293645 1.69771 274.681 284.797)" d="M-11.3238 -80.2543C25.8014 -80.2543 54.9476 -94.6926 58.9092 -40.8672C62.8708 12.9582 37.0524 74.7499 0.0572909 75.3534C-14.1177 75.5847 -17.7665 75.6442 -48.2096 76.1409C-78.6526 76.6376 -84.25 60.12 -84.25 1.90735e-06C-86.6442 -86.62 -88.6279 -78.3873 -11.3238 -80.2543Z"></path>
  <clipPath id="cl_1f3">
    <path d="M256.658 148.234C323.474 149.263 376.354 125.558 381.904 217.048C387.453 308.537 339.172 412.727 272.572 412.727C247.053 412.727 240.485 412.727 185.68 412.727C130.875 412.727 121.286 384.529 123.052 282.463C121.286 135.341 117.474 149.263 256.658 148.234Z"></path>
  </clipPath>
  <g clip-path="url(#cl_1f3)">
    <path fill="#655494" transform="matrix(1.8 0 0 1.8 311.807 266.876)" d="M-0.158648 -48.2655C25.513 -48.2655 46.324 -26.6563 46.324 0C46.324 26.6563 25.513 48.2655 -0.158648 48.2655C-25.8303 48.2655 -46.6413 26.6563 -46.6413 0C-46.6413 -26.6563 -25.8303 -48.2655 -0.158648 -48.2655Z"></path>
  </g>
  <path fill="none" stroke="black" stroke-width="2" stroke-linejoin="round" transform="matrix(3.88825 -0.763212 0.691401 3.5224 233.781 56.2725)" d="M-4.34759 -5.25471C-4.34759 -11.5047 3.66088 -11.5047 3.66088 -5.25472C3.66088 0.995284 3.66088 12.5 3.66088 12.5L-4.57314 12.5C-4.57314 12.5 -4.34758 0.995284 -4.34759 -5.25471Z"></path>
  <path fill="none" stroke="black" stroke-width="2" stroke-linejoin="round" transform="matrix(3.5224 -0.691401 0.691401 3.5224 199.573 61.6853)" d="M-5.1645 -6.50116C-5.1645 -12.7512 6 -12.7512 6 -6.50116C6 -0.251162 6 12.5 6 12.5L-6 12.5C-6 12.5 -5.1645 -0.251163 -5.1645 -6.50116Z"></path>
  <path fill="#453279" transform="matrix(3.88825 -0.763212 0.691401 3.5224 233.781 56.2725)" d="M-4.34759 -5.25471C-4.34759 -11.5047 3.66088 -11.5047 3.66088 -5.25472C3.66088 0.995284 3.66088 12.5 3.66088 12.5L-4.57314 12.5C-4.57314 12.5 -4.34758 0.995284 -4.34759 -5.25471Z"></path>
  <path fill="none" stroke="#161616" stroke-width="0.5" stroke-linecap="round" stroke-linejoin="round" transform="matrix(3.88825 -0.763212 0.691401 3.5224 228.988 36.7408)" d="M4.30705e-06 1.51652L3.59227e-06 10.5382"></path>
  <path fill="#503F7E" transform="matrix(3.5224 -0.691401 0.691401 3.5224 199.573 61.6853)" d="M-5.1645 -6.50117C-5.1645 -12.7512 6 -12.7512 6 -6.50117C6 -0.251166 6 12.5 6 12.5L-6 12.5C-6 12.5 -5.1645 -0.251167 -5.1645 -6.50117Z"></path>
  <path fill="none" stroke="#161616" stroke-width="0.5" stroke-linecap="round" stroke-linejoin="round" transform="matrix(3.5224 -0.691401 0.691401 3.5224 199.787 41.6668)" d="M4.95376e-07 2.6499e-08L4.31007e-06 10.5382"></path>
  <path fill="#503F7E" transform="matrix(1.53139 0 0 1.39334 226.982 134.521)" d="M0 -40C20.9426 -40 35.0096 -26.8589 47.8597 -2.20018C49.1253 -3.81499 50.3123 -3.57653 51.1974 -3.11682C52.0824 -2.65711 52.5509 -1.60562 52.2206 -0.665342C53.8523 0.0631991 55.2854 1.47333 55.8775 2.67698C56.9197 4.79566 57.6743 10.5072 53.7931 11.8212C58.5977 31.9882 20.3682 22.0914 -1.32962e-05 22.0914C-20.2357 22.0914 -45.0732 28.3281 -41.8836 12.9784C-44.6787 11.8212 -48.2008 8.95144 -46.5316 4.29175C-45.7036 1.98006 -43.8185 0.567089 -42.3936 0.566997C-41.0392 0.56691 -42.9934 -2.2 -40.2188 -3.81491C-39.0195 -4.51291 -37.7273 -4.43211 -36.6068 -4.12355C-28.0141 -23.7311 -20.4124 -40 0 -40Z"></path>
  <clipPath id="cl_1f4">
    <path d="M226.982 78.787C259.053 78.787 280.595 97.097 300.273 131.455C302.211 129.205 304.029 129.537 305.384 130.178C306.74 130.818 307.457 132.284 306.951 133.594C309.45 134.609 311.645 136.574 312.552 138.251C314.148 141.203 315.303 149.161 309.359 150.992C316.717 179.091 258.173 165.302 226.981 165.302C195.993 165.302 157.957 173.991 162.842 152.604C158.561 150.992 153.168 146.993 155.724 140.501C156.992 137.28 159.879 135.311 162.061 135.311C164.135 135.311 161.142 131.455 165.391 129.205C167.228 128.233 169.206 128.345 170.922 128.775C184.081 101.455 195.722 78.787 226.982 78.787Z"></path>
  </clipPath>
  <g clip-path="url(#cl_1f4)">
    <path fill="#7463A5" transform="matrix(1.8 2.98023e-08 0.00759348 1.8 225.682 124.035)" d="M-1.90735e-06 -5.5C3.86599 -5.5 7 -2.92564 7 0.25C7 3.42564 3.86599 6 -1.90735e-06 6C-3.866 6 -7 3.42564 -7 0.25C-7 -2.92564 -3.866 -5.5 -1.90735e-06 -5.5Z"></path>
    <path fill="#7463A5" transform="matrix(1.83618 3.04014e-08 0.00759348 1.8 278.23 115.889)" d="M0 -5.00001C2.76142 -5.00001 5 -2.6495 5 0.249992C5 3.14949 2.76142 5.49999 0 5.49999C-2.76142 5.49999 -5 3.14949 -5 0.249992C-5 -2.6495 -2.76142 -5.00001 0 -5.00001Z"></path>
    <path fill="none" stroke="#131212" stroke-width="1" stroke-linecap="round" stroke-linejoin="round" transform="matrix(2.30699 -0.373724 0.274137 1.69224 256.462 109.193)" d="M1.44192e-06 -4.14104e-07L2.92891 -0.714567"></path>
    <path fill="none" stroke="#131212" stroke-width="1" stroke-linecap="round" stroke-linejoin="round" transform="matrix(2.30699 -0.373724 0.274137 1.69224 234.711 108.363)" d="M-2.38419e-07 -1.48459e-07L4.25731 1.79213"></path>
    <path fill="#131212" transform="matrix(2.47104 -0.400299 0.405754 2.50471 248.496 111.473)" d="M4.54078e-07 -2.15485e-07L1.9614 0.352738L0.91509 1.42246L4.54078e-07 -2.15485e-07Z"></path>
    <path fill="none" stroke="#131212" stroke-width="0.5" stroke-linecap="round" stroke-linejoin="round" transform="matrix(1.93759 -0.313883 0.31816 1.96399 251.556 115.009)" d="M1.0721e-06 -0.711217L-2.76974e-06 1.11021"></path>
    <path fill="#32225E" transform="matrix(1.74285 0.441491 -0.424043 1.74552 245.344 103.608)" d="M-1.93607e-06 -1.92716C1.6285 -1.92716 2.94867 -1.06434 2.94867 -4.39386e-08C2.94867 1.06434 1.6285 1.92716 -1.87863e-06 1.92716C-1.62851 1.92716 -2.94867 1.06434 -2.94867 4.39386e-08C-2.94867 -1.06434 -1.62851 -1.92716 -1.93607e-06 -1.92716Z"></path>
    <path fill="#32225E" transform="matrix(1.71213 0.433708 -0.412468 1.69787 256.537 102.733)" d="M-3.8147e-06 -1.89919C0.889985 -1.89919 1.61146 -1.04889 1.61146 -2.40127e-08C1.61146 1.04889 0.889985 1.89919 -3.8147e-06 1.89919C-0.889993 1.89919 -1.61147 1.04889 -1.61147 2.40127e-08C-1.61147 -1.04889 -0.889993 -1.89919 -3.8147e-06 -1.89919Z"></path>
  </g>
  <path fill="none" stroke="black" stroke-width="6" stroke-linejoin="round" transform="matrix(1.8 0 0 1.8 166.784 267.322)" d="M-28.7881 1.43127C-30.5982 -38.253 32.8358 -41.1463 34.6459 -1.46209C35.4169 15.44 36.7029 43.6359 37.5019 61.1524C37.7826 67.3068 29.7971 78.9984 6.59351 80.3275C-16.6101 81.6567 -25.6088 71.1347 -25.8276 66.3376C-26.6313 48.7185 -28.2192 13.9047 -28.7881 1.43127Z"></path>
  <path fill="none" stroke="black" stroke-width="6" stroke-linecap="round" stroke-linejoin="bevel" transform="matrix(1.8 0 0 1.67094 166.784 177.074)" d="M33.8553 36.4645C34.2466 44.3453 34.5834 51.1283 34.7575 54.634C36.8874 97.5293 -26.5241 101.141 -28.654 58.2456C-29.1886 47.4776 -30.1715 27.6836 -30.7905 15.2158C-31.4096 2.74794 -26.0415 -15.4223 -9.98465 -16.3475C-8.25059 -16.4474 -6.65967 -16.5391 -5.1923 -16.6236"></path>
  <path fill="#503F7E" transform="matrix(1.8 0 0 1.8 166.784 267.322)" d="M-28.7881 1.43127C-30.6734 -39.9012 32.7607 -42.7945 34.6459 -1.46209C35.4169 15.44 36.7029 43.6359 37.5019 61.1524C37.7826 67.3068 29.7971 78.9984 6.59351 80.3275C-16.6101 81.6567 -25.6088 71.1347 -25.8276 66.3376C-26.6313 48.7185 -28.2192 13.9047 -28.7881 1.43127Z"></path>
  <path fill="#503F7E" transform="matrix(1.8 0 0 1.67094 166.784 177.074)" d="M-30.7905 15.2158C-31.4096 2.74793 -26.0415 -15.4223 -9.98465 -16.3475C6.07221 -17.2727 9.85672 -17.4908 16.9109 -17.8972C23.965 -18.3037 31.3139 -14.7184 32.0925 0.961269C32.871 16.6409 34.3224 45.8725 34.7575 54.634C36.631 92.3651 -26.7805 95.9767 -28.654 58.2456C-29.1886 47.4776 -30.1715 27.6836 -30.7905 15.2158Z"></path>
  <path fill="none" stroke="black" stroke-width="7" stroke-linecap="round" stroke-miterlimit="4" transform="translate(256 256)" d="M-6.14386 -112.301C52.2601 -112.301 99.6059 -112.226 99.6059 -112.134C99.6059 -112.042 52.2601 -111.967 -6.14386 -111.967C-64.5478 -111.967 -111.894 -112.042 -111.894 -112.134C-111.894 -112.226 -64.5478 -112.301 -6.14386 -112.301Z"></path>
  <path fill="#8D5A3E" transform="matrix(1.27409 9.56891e-23 -1.50956e-25 0.00200997 249.856 143.866)" d="M-1.02305e-30 -83C45.8396 -83 83 -45.8396 83 0C83 45.8396 45.8396 83 1.02305e-30 83C-45.8396 83 -83 45.8396 -83 0C-83 -45.8396 -45.8396 -83 -1.02305e-30 -83Z"></path>
  <path fill="#65524C" transform="matrix(0.732603 5.50213e-23 -1.39281e-25 0.00185451 249.856 143.893)" d="M0 -97.4961C45.8396 -97.4961 83 -53.8439 83 0.00390625C83 53.8517 45.8396 97.5039 0 97.5039C-45.8396 97.5039 -83 53.8517 -83 0.00390625C-83 -53.8439 -45.8396 -97.4961 0 -97.4961Z"></path>
  <clipPath id="cl_1fc">
    <path d="M249.856 143.712C283.438 143.712 310.662 143.793 310.662 143.893C310.662 143.993 283.438 144.074 249.856 144.074C216.274 144.074 189.05 143.993 189.05 143.893C189.05 143.793 216.274 143.712 249.856 143.712Z"></path>
  </clipPath>
  <g clip-path="url(#cl_1fc)">
    <path fill="#281C18" transform="matrix(0.732603 5.50213e-23 -1.39281e-25 0.00185451 230.745 143.893)" d="M3.8147e-06 -97.4961C45.8396 -97.4961 83 -53.8439 83 0.00390625C83 53.8517 45.8396 97.5039 3.8147e-06 97.5039C-45.8396 97.5039 -83 53.8517 -83 0.00390625C-83 -53.8439 -45.8396 -97.4961 3.8147e-06 -97.4961Z"></path>
  </g>
  <path fill="none" stroke="black" stroke-width="7" stroke-linejoin="round" transform="translate(256 256)" d="M-113.637 -111.062C-123.711 -106.941 -156.345 -90.5982 -156.534 -51.7431C-156.534 -51.7431 -139.16 -46.7529 -93.3282 -33.1428C-57.5869 -22.529 -62.6492 -29.5659 -7.0665 -26.6304C16.793 -24.0218 62.959 -33.2938 62.959 -33.2938C62.959 -33.2938 62.6623 -42.3387 67.9277 -42.3387C73.1931 -42.3387 76.2347 -33.2938 76.2347 -33.2938C88.9785 -33.2938 100.393 -39.7437 109.976 -41.1386C140.175 -45.5342 143.8 -51.7431 143.8 -51.7431C143.8 -97.694 98.027 -112.159 98.027 -112.159C83.8013 -112.048 46.701 -111.967 -6.14386 -111.967C-58.9887 -111.967 -108.364 -112.048 -110.709 -112.159C-110.709 -112.159 -111.797 -111.814 -113.637 -111.062"></path>
  <path fill="none" stroke="black" stroke-width="21" stroke-linecap="round" stroke-linejoin="round" transform="matrix(0.972 7.30008e-23 -7.30008e-23 0.972 91.4201 199.27)" d="M8.27734 5.13058C8.27734 5.13058 26.1524 10.2646 73.3042 24.2668C110.075 35.1863 104.867 27.9467 162.051 30.9668C186.598 33.6504 234.093 24.1114 234.093 24.1114C234.093 24.1114 233.788 14.8059 239.205 14.8059C244.622 14.8059 247.752 24.1114 247.752 24.1114C260.863 24.1114 272.606 17.4757 282.465 16.0406C313.534 11.5184 317.263 5.13058 317.263 5.13058C317.263 2.49907 317.117 -0.0320685 316.841 -2.46586"></path>
  <path fill="none" stroke="white" stroke-width="14" stroke-linecap="round" stroke-linejoin="round" transform="matrix(0.972 7.30008e-23 -7.30008e-23 0.972 91.4201 199.27)" d="M8.27734 5.13058C8.27734 5.13058 26.1524 10.2646 73.3042 24.2668C110.075 35.1863 104.867 27.9467 162.051 30.9668C186.598 33.6504 234.093 24.1114 234.093 24.1114C234.093 24.1114 233.788 14.8059 239.205 14.8059C244.622 14.8059 247.752 24.1114 247.752 24.1114C260.863 24.1114 272.606 17.4757 282.465 16.0406C313.534 11.5184 317.263 5.13058 317.263 5.13058C317.263 3.12903 317.178 1.18555 317.017 -0.7012"></path>
  <path fill="#8D5A3E" transform="matrix(0.972 7.30008e-23 -7.30008e-23 0.972 91.4201 199.27)" d="M8.27734 5.13058C8.27734 5.13058 28.6505 9.502 72.0222 22.6129C95.5232 29.717 124.361 28.9763 162.051 30.9668C186.598 33.6504 234.093 24.1114 234.093 24.1114C234.093 24.1114 234.776 16.1159 238.41 16.1159C242.043 16.1159 247.752 24.1114 247.752 24.1114C260.529 24.1114 277.837 16.4014 286.934 15.3236C317.391 11.7152 317.263 5.13058 317.263 5.13058C317.263 -42.1439 270.172 -57.0257 270.172 -57.0257C255.536 -56.9111 217.367 -56.8284 163 -56.8281C108.633 -56.8279 57.8352 -56.9111 55.4223 -57.0258C55.4223 -57.0258 8.50731 -42.1439 8.27734 5.13058Z"></path>
  <clipPath id="cl_1fd">
    <path d="M99.4657 204.257C99.4657 204.257 119.268 208.506 161.426 221.25C184.269 228.155 212.299 227.435 248.934 229.37C272.793 231.978 318.959 222.706 318.959 222.706C318.959 222.706 319.623 214.935 323.154 214.935C326.686 214.935 332.235 222.706 332.235 222.706C344.655 222.706 361.478 215.212 370.32 214.164C399.924 210.657 399.8 204.257 399.8 204.257C399.8 158.306 354.027 143.841 354.027 143.841C339.801 143.952 302.701 144.033 249.856 144.033C197.011 144.033 147.636 143.952 145.291 143.841C145.291 143.841 99.6892 158.306 99.4657 204.257Z"></path>
  </clipPath>
  <g clip-path="url(#cl_1fd)">
    <path fill="#7F4728" transform="matrix(2.61439 -0.086419 0.123843 3.74656 194.452 198.784)" d="M-14.8742 -9.69253L16.7537 -6.3603L15.092 9.39556L-21.0084 4.35254L-14.8742 -9.69253Z"></path>
  </g>
  <path fill="none" stroke="#612F13" stroke-width="1" stroke-linecap="round" stroke-linejoin="round" transform="matrix(0.0654088 -1.56104 1.56104 0.0654088 205.396 173.139)" d="M1.02357 0.373772L4.21644 0.641895"></path>
  <path fill="none" stroke="#612F13" stroke-width="1" stroke-linecap="round" stroke-linejoin="round" transform="matrix(0.0654088 -1.56104 1.56104 0.0654088 193.246 172.653)" d="M1.02357 0.373775L4.21644 0.641899"></path>
  <clipPath id="cl_1fe">
    <path d="M99.4657 204.257C99.4657 204.257 119.268 208.506 161.426 221.25C184.269 228.155 212.299 227.435 248.934 229.37C272.793 231.978 318.959 222.706 318.959 222.706C318.959 222.706 319.623 214.935 323.154 214.935C326.686 214.935 332.235 222.706 332.235 222.706C344.655 222.706 361.478 215.212 370.32 214.164C399.924 210.657 399.8 204.257 399.8 204.257C399.8 158.306 354.027 143.841 354.027 143.841C339.801 143.952 302.701 144.033 249.856 144.033C197.011 144.033 147.636 143.952 145.291 143.841C145.291 143.841 99.6892 158.306 99.4657 204.257Z"></path>
  </clipPath>
  <g clip-path="url(#cl_1fe)">
    <clipPath id="cl_1ff">
      <path d="M99.4657 204.257C99.4657 204.257 119.268 208.506 161.426 221.25C184.269 228.155 212.299 227.435 248.934 229.37C272.793 231.978 318.959 222.706 318.959 222.706C318.959 222.706 319.623 214.935 323.154 214.935C326.686 214.935 332.235 222.706 332.235 222.706C344.655 222.706 361.478 215.212 370.32 214.164C399.924 210.657 399.8 204.257 399.8 204.257C399.8 158.306 354.027 143.841 354.027 143.841C339.801 143.952 302.701 144.033 249.856 144.033C197.011 144.033 147.636 143.952 145.291 143.841C145.291 143.841 99.6892 158.306 99.4657 204.257Z"></path>
    </clipPath>
    <g clip-path="url(#cl_1ff)">
      <path fill="#7F4728" transform="matrix(0.972 7.30008e-23 -7.30008e-23 0.972 379.618 175.213)" d="M7.62939e-06 -32.5C25.6812 -32.5 46.5 -17.8373 46.5 0.249992C46.5 18.3373 25.6812 33 7.62939e-06 33C-25.6812 33 -46.5 18.3373 -46.5 0.249992C-46.5 -17.8373 -25.6812 -32.5 7.62939e-06 -32.5Z"></path>
    </g>
    <path fill="none" stroke="#612F13" stroke-width="1" stroke-linecap="round" stroke-linejoin="round" transform="matrix(-1.42852 0.632822 -0.632822 -1.42852 338.794 179.83)" d="M1.02357 0.373773L4.21644 0.641897"></path>
    <path fill="none" stroke="#612F13" stroke-width="1" stroke-linecap="round" stroke-linejoin="round" transform="matrix(-0.810895 1.33551 -1.33551 -0.810895 353.86 196.354)" d="M1.02357 0.373775L4.21644 0.641899"></path>
    <path fill="none" stroke="#612F13" stroke-width="1" stroke-linecap="round" stroke-linejoin="round" transform="matrix(-1.5617 -0.0472275 0.0472275 -1.5617 339.28 170.11)" d="M1.02357 0.373772L4.21644 0.641895"></path>
  </g>
</svg>