<?xml version="1.0" encoding="utf-8"?>
<svg xmlns="http://www.w3.org/2000/svg" xmlns:xlink="http://www.w3.org/1999/xlink" width="512" height="512">
  <path fill="none" stroke="black" stroke-width="6" stroke-linejoin="round" transform="matrix(1.8 0 0 1.52279 359.051 172.461)" d="M-13.6283 -17.2983C-9.90025 -17.4621 -7.22343 -17.5797 -3.75819 -17.732C3.30117 -18.0422 10.5826 -14.3563 11.0761 1.33493C11.5695 17.0262 12.4894 46.2793 12.7651 55.0473C14.115 97.9742 -49.3425 100.72 -50.6924 57.7933C-51.0313 47.0173 -51.6542 27.2087 -52.0465 14.7317C-52.4389 2.25463 -46.7423 -15.8434 -30.6736 -16.5494C-29.5285 -16.5997 -28.4458 -16.6473 -27.4198 -16.6924"></path>
  <path fill="none" stroke="black" stroke-width="6" stroke-linejoin="round" transform="matrix(1.8 0 0 1.64041 359.051 254.707)" d="M-50.569 -3.76851C-45.2568 -46.1002 17.7406 -38.619 12.4284 3.71273C10.3196 20.517 6.80173 48.5496 4.61631 65.9647C3.84846 72.0835 -6.00442 82.3192 -29.0943 79.8499C-52.1841 77.3805 -59.2655 65.5313 -58.667 60.7621C-56.4688 43.245 -52.1253 8.63266 -50.569 -3.76851Z"></path>
  <path fill="#503F7E" transform="matrix(1.8 0 0 1.52279 359.051 172.461)" d="M-52.0465 14.7317C-52.4389 2.25464 -46.7423 -15.8434 -30.6736 -16.5494C-14.6049 -17.2554 -10.8176 -17.4218 -3.75819 -17.732C3.30117 -18.0422 10.5826 -14.3563 11.0761 1.33493C11.5695 17.0262 12.4894 46.2793 12.7651 55.0473C14.115 97.9743 -49.3425 100.72 -50.6924 57.7933C-51.0313 47.0173 -51.6542 27.2088 -52.0465 14.7317Z"></path>
  <path fill="#503F7E" transform="matrix(1.8 0 0 1.64041 359.051 254.707)" d="M-50.569 -3.76851C-45.2568 -46.1002 17.7406 -38.619 12.4284 3.71272C10.3196 20.517 6.80173 48.5496 4.61631 65.9647C3.84846 72.0835 -6.00442 82.3192 -29.0943 79.8499C-52.1841 77.3805 -59.2655 65.5313 -58.667 60.7621C-56.4688 43.245 -52.1253 8.63266 -50.569 -3.76851Z"></path>
  <path fill="none" stroke="black" stroke-width="5" stroke-linejoin="round" transform="matrix(1.67985 0 0 1.8 269.501 356.202)" d="M-14.626 -15.2066C3.12355 -19.0677 29.1088 -10.5239 28.2044 35.4261C28.3614 49.1064 24.2755 71.4049 7.82665 75.9848C-3.44206 73.5405 -16.2429 71.6973 -32.2495 68.0883C-40.8372 57.5722 -32.8531 49.8128 -33.0692 33.4999C-32.7795 -11.5848 -32.3756 -11.3454 -14.626 -15.2066Z"></path>
  <path fill="#453279" transform="matrix(1.67985 0 0 1.8 269.501 356.202)" d="M-14.626 -15.2066C3.12355 -19.0677 29.1088 -10.5239 28.2044 35.4261C28.3614 49.1064 24.2755 71.4049 7.82665 75.9848C-3.44206 73.5405 -16.2429 71.6973 -32.2495 68.0883C-40.8372 57.5722 -32.8531 49.8128 -33.0692 33.4999C-32.7795 -11.5848 -32.3756 -11.3454 -14.626 -15.2066Z"></path>
  <path fill="none" stroke="black" stroke-width="5" stroke-linejoin="round" transform="matrix(1.67985 0 0 1.8 191.63 362.835)" d="M13.0791 -14.3484C31.3025 -14.0968 44.1807 -9.74659 43.4296 37.6371C43.7457 56.5199 46.3694 69.1704 30.8145 75.6373C15.3408 76.0088 4.65381 76.2152 -10.1827 75.8749C-24.9367 69.142 -20.1524 52.3545 -19.7593 35.8616C-19.6385 -10.6277 -5.14433 -14.6 13.0791 -14.3484Z"></path>
  <path fill="none" stroke="black" stroke-width="5" stroke-linejoin="round" transform="matrix(1.79976 0.0276995 -0.0293645 1.69771 274.681 282.52)" d="M-11.3238 -80.2543C25.8014 -80.2543 54.9476 -94.6926 58.9092 -40.8672C62.8708 12.9582 37.0524 74.7499 0.0572909 75.3534C-14.1177 75.5847 -17.7665 75.6442 -48.2096 76.1409C-78.6526 76.6376 -84.25 60.12 -84.25 9.53674e-07C-86.6294 -86.0849 -88.6034 -78.4854 -12.7475 -80.2208"></path>
  <path fill="#503F7E" transform="matrix(1.67985 0 0 1.8 191.63 362.835)" d="M13.0791 -14.3484C31.3025 -14.0968 44.1807 -9.74659 43.4296 37.6371C43.7457 56.5199 46.3694 69.1704 30.8145 75.6373C15.3408 76.0088 4.65381 76.2152 -10.1827 75.8749C-24.9367 69.142 -20.1524 52.3545 -19.7593 35.8616C-19.6385 -10.6277 -5.14433 -14.6 13.0791 -14.3484Z"></path>
  <path fill="none" stroke="black" stroke-width="5" stroke-linejoin="round" transform="matrix(1.53139 0 0 1.39334 226.982 130.869)" d="M0 -40C20.9426 -40 35.0096 -26.8589 47.8597 -2.20018C49.1253 -3.81499 50.3123 -3.57653 51.1974 -3.11682C52.0824 -2.65711 52.5509 -1.60562 52.2206 -0.665342C53.8523 0.0631991 55.2854 1.47333 55.8775 2.67698C56.9197 4.79566 57.6743 10.5072 53.7931 11.8212C58.5977 31.9882 20.3682 22.0914 -1.32962e-05 22.0914C-20.2357 22.0914 -45.0732 28.3281 -41.8836 12.9784C-44.6787 11.8212 -48.2008 8.95144 -46.5316 4.29175C-45.7036 1.98006 -43.8185 0.567089 -42.3936 0.566997C-41.0392 0.56691 -42.9934 -2.2 -40.2188 -3.81491C-39.0195 -4.51291 -37.7273 -4.43211 -36.6068 -4.12355C-28.0141 -23.7311 -20.4124 -40 0 -40Z"></path>
  <path fill="#503F7E" transform="matrix(1.79976 0.0276995 -0.0293645 1.69771 274.681 282.52)" d="M-11.3238 -80.2543C25.8014 -80.2543 54.9476 -94.6926 58.9092 -40.8672C62.8708 12.9582 37.0524 74.7499 0.0572909 75.3534C-14.1177 75.5847 -17.7665 75.6442 -48.2096 76.1409C-78.6526 76.6376 -84.25 60.12 -84.25 9.53674e-07C-86.6442 -86.62 -88.6279 -78.3873 -11.3238 -80.2543Z"></path>
  <clipPath id="cl_633">
    <path d="M256.658 145.957C323.474 146.986 376.354 123.281 381.904 214.771C387.453 306.26 339.172 410.45 272.572 410.45C247.053 410.449 240.485 410.449 185.68 410.45C130.875 410.45 121.286 382.252 123.052 280.186C121.286 133.064 117.474 146.986 256.658 145.957Z"></path>
  </clipPath>
  <g clip-path="url(#cl_633)">
    <path fill="#655494" transform="matrix(1.8 0 0 1.8 311.807 264.599)" d="M-0.158648 -48.2655C25.513 -48.2655 46.324 -26.6563 46.324 0C46.324 26.6563 25.513 48.2655 -0.158648 48.2655C-25.8303 48.2655 -46.6413 26.6563 -46.6413 0C-46.6413 -26.6563 -25.8303 -48.2655 -0.158648 -48.2655Z"></path>
  </g>
  <path fill="none" stroke="black" stroke-width="2" stroke-linejoin="round" transform="matrix(3.88825 -0.763212 0.691401 3.5224 233.781 52.6205)" d="M-4.34758 -5.25472C-4.34758 -11.5047 3.66088 -11.5047 3.66088 -5.25472C3.66088 0.99528 3.66088 12.5 3.66088 12.5L-4.57314 12.5C-4.57314 12.5 -4.34758 0.99528 -4.34758 -5.25472Z"></path>
  <path fill="none" stroke="black" stroke-width="2" stroke-linejoin="round" transform="matrix(3.5224 -0.691401 0.691401 3.5224 199.573 58.0333)" d="M-5.1645 -6.50117C-5.1645 -12.7512 6 -12.7512 6 -6.50117C6 -0.251166 6 12.5 6 12.5L-6 12.5C-6 12.5 -5.1645 -0.251167 -5.1645 -6.50117Z"></path>
  <path fill="#453279" transform="matrix(3.88825 -0.763212 0.691401 3.5224 233.781 52.6205)" d="M-4.34758 -5.25472C-4.34758 -11.5047 3.66088 -11.5047 3.66088 -5.25472C3.66088 0.99528 3.66088 12.5 3.66088 12.5L-4.57314 12.5C-4.57314 12.5 -4.34758 0.99528 -4.34758 -5.25472Z"></path>
  <path fill="none" stroke="#161616" stroke-width="0.5" stroke-linecap="round" stroke-linejoin="round" transform="matrix(3.88825 -0.763212 0.691401 3.5224 228.988 33.0888)" d="M4.06863e-06 1.51652L3.35385e-06 10.5382"></path>
  <path fill="#503F7E" transform="matrix(3.5224 -0.691401 0.691401 3.5224 199.573 58.0333)" d="M-5.1645 -6.50116C-5.1645 -12.7512 6 -12.7512 6 -6.50116C6 -0.251162 6 12.5 6 12.5L-6 12.5C-6 12.5 -5.1645 -0.251163 -5.1645 -6.50116Z"></path>
  <path fill="none" stroke="#161616" stroke-width="0.5" stroke-linecap="round" stroke-linejoin="round" transform="matrix(3.5224 -0.691401 0.691401 3.5224 199.787 38.0148)" d="M-4.58298e-07 3.8412e-06L3.3564e-06 10.5382"></path>
  <path fill="#503F7E" transform="matrix(1.53139 0 0 1.39334 226.982 130.869)" d="M0 -40C20.9426 -40 35.0096 -26.8589 47.8597 -2.20018C49.1253 -3.81499 50.3123 -3.57653 51.1974 -3.11682C52.0824 -2.65711 52.5509 -1.60562 52.2206 -0.665342C53.8523 0.0631991 55.2854 1.47333 55.8775 2.67698C56.9197 4.79566 57.6743 10.5072 53.7931 11.8212C58.5977 31.9882 20.3682 22.0914 -1.32962e-05 22.0914C-20.2357 22.0914 -45.0732 28.3281 -41.8836 12.9784C-44.6787 11.8212 -48.2008 8.95144 -46.5316 4.29175C-45.7036 1.98006 -43.8185 0.567089 -42.3936 0.566997C-41.0392 0.56691 -42.9934 -2.2 -40.2188 -3.81491C-39.0195 -4.51291 -37.7273 -4.43211 -36.6068 -4.12355C-28.0141 -23.7311 -20.4124 -40 0 -40Z"></path>
  <clipPath id="cl_634">
    <path d="M226.982 75.1349C259.053 75.1349 280.595 93.445 300.273 127.803C302.211 125.553 304.029 125.885 305.384 126.526C306.74 127.166 307.457 128.632 306.951 129.942C309.45 130.957 311.645 132.922 312.552 134.599C314.148 137.551 315.303 145.509 309.359 147.34C316.717 175.439 258.173 161.65 226.981 161.65C195.993 161.65 157.957 170.339 162.842 148.952C158.561 147.34 153.168 143.341 155.724 136.849C156.992 133.628 159.879 131.659 162.061 131.659C164.135 131.659 161.142 127.803 165.391 125.553C167.228 124.581 169.206 124.693 170.922 125.123C184.081 97.8032 195.722 75.1349 226.982 75.1349Z"></path>
  </clipPath>
  <g clip-path="url(#cl_634)">
    <path fill="#7463A5" transform="matrix(1.8 2.98023e-08 0.00759348 1.8 223.396 118.689)" d="M1.90735e-06 -5.5C3.866 -5.5 7 -2.92564 7 0.25C7 3.42564 3.866 6 1.90735e-06 6C-3.86599 6 -7 3.42564 -7 0.25C-7 -2.92564 -3.86599 -5.5 1.90735e-06 -5.5Z"></path>
    <path fill="#7463A5" transform="matrix(1.83618 3.04014e-08 0.00759348 1.8 275.944 110.543)" d="M9.53674e-07 -5C2.76142 -5 5 -2.6495 5 0.25C5 3.1495 2.76142 5.5 9.53674e-07 5.5C-2.76142 5.5 -5 3.1495 -5 0.25C-5 -2.6495 -2.76142 -5 9.53674e-07 -5Z"></path>
    <path fill="none" stroke="#131212" stroke-width="1" stroke-linecap="round" stroke-linejoin="round" transform="matrix(2.30699 -0.373724 0.274137 1.69224 254.176 103.847)" d="M4.88246e-07 -4.14104e-07L2.92891 -0.714567"></path>
    <path fill="none" stroke="#131212" stroke-width="1" stroke-linecap="round" stroke-linejoin="round" transform="matrix(2.30699 -0.373724 0.274137 1.69224 232.425 103.018)" d="M3.57628e-07 -1.48459e-07L4.25731 1.79213"></path>
    <path fill="#131212" transform="matrix(2.47104 -0.400299 0.405754 2.50471 246.21 106.128)" d="M-4.99596e-07 -4.03018e-06L1.9614 0.352734L0.915089 1.42246L-4.99596e-07 -4.03018e-06Z"></path>
    <path fill="none" stroke="#131212" stroke-width="0.5" stroke-linecap="round" stroke-linejoin="round" transform="matrix(1.93759 -0.313883 0.31816 1.96399 249.27 109.663)" d="M1.0721e-06 -0.711232L-2.76974e-06 1.11019"></path>
    <path fill="#32225E" transform="matrix(1.74285 0.441491 -0.424043 1.74552 243.058 98.2624)" d="M-1.93607e-06 -1.92716C1.6285 -1.92716 2.94867 -1.06434 2.94867 -4.39386e-08C2.94867 1.06434 1.6285 1.92716 -1.87863e-06 1.92716C-1.62851 1.92716 -2.94867 1.06434 -2.94867 4.39386e-08C-2.94867 -1.06434 -1.62851 -1.92716 -1.93607e-06 -1.92716Z"></path>
    <path fill="#32225E" transform="matrix(1.71213 0.433708 -0.412468 1.69787 254.251 97.3875)" d="M-3.8147e-06 -1.89919C0.889985 -1.89919 1.61146 -1.04889 1.61146 -2.40127e-08C1.61146 1.04889 0.889985 1.89919 -3.8147e-06 1.89919C-0.889993 1.89919 -1.61147 1.04889 -1.61147 2.40127e-08C-1.61147 -1.04889 -0.889993 -1.89919 -3.8147e-06 -1.89919Z"></path>
  </g>
  <path fill="none" stroke="black" stroke-width="6" stroke-linejoin="round" transform="matrix(1.8 0 0 1.8 164.859 265.045)" d="M-32.4569 -0.813758C-31.3792 -40.5246 32.0974 -38.802 31.0197 0.908914C30.5607 17.8224 29.795 46.0372 29.3193 63.5654C29.1522 69.724 20.3384 80.8045 -2.90043 80.4444C-26.1393 80.0844 -34.3498 68.9365 -34.2195 64.1362C-33.7411 46.5053 -32.7956 11.668 -32.4569 -0.813758Z"></path>
  <path fill="none" stroke="black" stroke-width="6" stroke-linecap="round" stroke-linejoin="bevel" transform="matrix(1.8 0 0 1.67094 164.859 174.797)" d="M31.3076 39.0327C31.1667 46.9089 31.0454 53.686 30.9827 57.1911C30.2141 100.14 -33.2733 98.7791 -32.5048 55.8305C-32.3118 45.0492 -31.9572 25.2306 -31.7338 12.7472C-31.5104 0.263874 -24.9311 -17.4383 -8.85425 -17.1044C-7.0679 -17.0673 -5.43326 -17.0334 -3.92898 -17.0021"></path>
  <path fill="#503F7E" transform="matrix(1.8 0 0 1.8 164.859 265.045)" d="M-32.4569 -0.81376C-31.3344 -42.174 32.1422 -40.4513 31.0197 0.908912C30.5607 17.8224 29.795 46.0372 29.3193 63.5654C29.1522 69.724 20.3384 80.8045 -2.90043 80.4444C-26.1393 80.0844 -34.3498 68.9365 -34.2195 64.1362C-33.7411 46.5053 -32.7956 11.668 -32.4569 -0.81376Z"></path>
  <path fill="#503F7E" transform="matrix(1.8 0 0 1.67094 164.859 174.797)" d="M-31.7338 12.7472C-31.5104 0.263882 -24.9311 -17.4383 -8.85425 -17.1044C7.22257 -16.7705 11.0118 -16.6919 18.0747 -16.5452C25.1376 -16.3985 32.2253 -12.2476 31.9444 3.45158C31.6634 19.1507 31.1397 48.4186 30.9827 57.1911C30.3067 94.9691 -33.1808 93.6085 -32.5048 55.8305C-32.3118 45.0492 -31.9572 25.2306 -31.7338 12.7472Z"></path>
  <path fill="none" stroke="black" stroke-width="7" stroke-linecap="round" stroke-miterlimit="4" transform="translate(256 256)" d="M-6.14386 -114.578C52.2601 -114.578 99.6059 -114.503 99.6059 -114.411C99.6059 -114.319 52.2601 -114.244 -6.14386 -114.244C-64.5478 -114.244 -111.894 -114.319 -111.894 -114.411C-111.894 -114.503 -64.5478 -114.578 -6.14386 -114.578Z"></path>
  <path fill="#8D5A3E" transform="matrix(1.27409 9.56891e-23 -1.50956e-25 0.00200997 249.856 141.589)" d="M-1.02305e-30 -83C45.8396 -83 83 -45.8396 83 0C83 45.8396 45.8396 83 1.02305e-30 83C-45.8396 83 -83 45.8396 -83 0C-83 -45.8396 -45.8396 -83 -1.02305e-30 -83Z"></path>
  <path fill="#65524C" transform="matrix(0.732603 5.50213e-23 -1.39281e-25 0.00185451 249.856 141.616)" d="M0 -97.5C45.8396 -97.5 83 -53.8478 83 -2.68187e-25C83 53.8478 45.8396 97.5 0 97.5C-45.8396 97.5 -83 53.8478 -83 2.68187e-25C-83 -53.8478 -45.8396 -97.5 0 -97.5Z"></path>
  <clipPath id="cl_63c">
    <path d="M249.856 141.435C283.438 141.435 310.662 141.516 310.662 141.616C310.662 141.716 283.438 141.797 249.856 141.797C216.274 141.797 189.05 141.716 189.05 141.616C189.05 141.516 216.274 141.435 249.856 141.435Z"></path>
  </clipPath>
  <g clip-path="url(#cl_63c)">
    <path fill="#281C18" transform="matrix(0.732603 5.50213e-23 -1.39281e-25 0.00185451 230.745 141.616)" d="M3.8147e-06 -97.5C45.8396 -97.5 83 -53.8478 83 -2.68187e-25C83 53.8478 45.8396 97.5 3.8147e-06 97.5C-45.8396 97.5 -83 53.8478 -83 2.68187e-25C-83 -53.8478 -45.8396 -97.5 3.8147e-06 -97.5Z"></path>
  </g>
  <path fill="none" stroke="black" stroke-width="7" stroke-linejoin="round" transform="translate(256 256)" d="M-112.56 -113.771C-121.104 -110.49 -156.338 -94.6128 -156.534 -55.7948C-156.534 -55.7948 -139.16 -49.9047 -93.3282 -36.2946C-57.5869 -25.6808 -62.6492 -32.7177 -7.0665 -29.7822C16.793 -27.1737 62.959 -36.4456 62.959 -36.4456C62.959 -36.4456 62.6623 -45.4905 67.9277 -45.4905C73.1931 -45.4905 76.2347 -36.4456 76.2347 -36.4456C88.9785 -36.4456 100.393 -42.8955 109.976 -44.2904C140.175 -48.686 143.8 -55.7948 143.8 -55.7948C143.8 -99.971 98.027 -114.436 98.027 -114.436C83.8013 -114.325 46.701 -114.244 -6.14386 -114.244C-58.9887 -114.244 -108.364 -114.325 -110.709 -114.436C-110.709 -114.436 -111.38 -114.223 -112.56 -113.771"></path>
  <path fill="none" stroke="black" stroke-width="21" stroke-linecap="round" stroke-linejoin="round" transform="matrix(0.972 7.30008e-23 -7.30008e-23 0.972 91.4201 196.993)" d="M8.27734 3.3049C8.27734 3.3049 26.1524 9.36463 73.3042 23.3668C110.075 34.2864 104.867 27.0467 162.051 30.0668C186.598 32.7505 234.093 23.2115 234.093 23.2115C234.093 23.2115 233.788 13.906 239.205 13.906C244.622 13.906 247.752 23.2115 247.752 23.2115C260.863 23.2115 272.606 16.5757 282.465 15.1406C313.534 10.6184 317.263 3.3049 317.263 3.3049C317.263 1.32579 317.174 -0.595345 317.003 -2.45982"></path>
  <path fill="none" stroke="white" stroke-width="14" stroke-linecap="round" stroke-linejoin="round" transform="matrix(0.972 7.30008e-23 -7.30008e-23 0.972 91.4201 196.993)" d="M8.27734 3.3049C8.27734 3.3049 26.1524 9.36463 73.3042 23.3668C110.075 34.2864 104.867 27.0467 162.051 30.0668C186.598 32.7505 234.093 23.2115 234.093 23.2115C234.093 23.2115 233.788 13.906 239.205 13.906C244.622 13.906 247.752 23.2115 247.752 23.2115C260.863 23.2115 272.606 16.5757 282.465 15.1406C313.534 10.6184 317.263 3.3049 317.263 3.3049C317.263 1.95257 317.221 0.627303 317.14 -0.671312"></path>
  <path fill="#8D5A3E" transform="matrix(0.972 7.30008e-23 -7.30008e-23 0.972 91.4201 196.993)" d="M8.27734 3.3049C8.27734 3.3049 28.6505 8.60205 72.0222 21.7129C95.5232 28.8171 124.361 28.0763 162.051 30.0668C186.598 32.7505 234.093 23.2115 234.093 23.2115C234.093 23.2115 234.776 15.2159 238.41 15.2159C242.043 15.2159 247.752 23.2115 247.752 23.2115C260.529 23.2115 277.837 15.5014 286.934 14.4236C317.391 10.8153 317.263 3.3049 317.263 3.3049C317.263 -42.1439 270.172 -57.0257 270.172 -57.0257C255.536 -56.9111 217.367 -56.8284 163 -56.8281C108.633 -56.8279 57.8352 -56.9111 55.4223 -57.0258C55.4223 -57.0258 8.50731 -42.1439 8.27734 3.3049Z"></path>
  <clipPath id="cl_63d">
    <path d="M99.4657 200.205C99.4657 200.205 119.268 205.354 161.426 218.098C184.269 225.003 212.299 224.283 248.934 226.218C272.793 228.826 318.959 219.554 318.959 219.554C318.959 219.554 319.623 211.783 323.154 211.783C326.686 211.783 332.235 219.554 332.235 219.554C344.655 219.554 361.478 212.06 370.32 211.013C399.924 207.505 399.8 200.205 399.8 200.205C399.8 156.029 354.027 141.564 354.027 141.564C339.801 141.675 302.701 141.756 249.856 141.756C197.011 141.756 147.636 141.675 145.291 141.564C145.291 141.564 99.6892 156.029 99.4657 200.205Z"></path>
  </clipPath>
  <g clip-path="url(#cl_63d)">
    <path fill="#7F4728" transform="matrix(2.61439 -0.086419 0.123843 3.74656 194.452 196.507)" d="M-14.8742 -9.69253L16.7537 -6.3603L15.092 9.39556L-21.0084 4.35254L-14.8742 -9.69253Z"></path>
  </g>
  <path fill="none" stroke="#612F13" stroke-width="1" stroke-linecap="round" stroke-linejoin="round" transform="matrix(0.0654088 -1.56104 1.56104 0.0654088 205.396 170.862)" d="M1.02357 0.373775L4.21644 0.641899"></path>
  <path fill="none" stroke="#612F13" stroke-width="1" stroke-linecap="round" stroke-linejoin="round" transform="matrix(0.0654088 -1.56104 1.56104 0.0654088 193.246 170.376)" d="M1.02357 0.373772L4.21644 0.641895"></path>
  <clipPath id="cl_63e">
    <path d="M99.4657 200.205C99.4657 200.205 119.268 205.354 161.426 218.098C184.269 225.003 212.299 224.283 248.934 226.218C272.793 228.826 318.959 219.554 318.959 219.554C318.959 219.554 319.623 211.783 323.154 211.783C326.686 211.783 332.235 219.554 332.235 219.554C344.655 219.554 361.478 212.06 370.32 211.013C399.924 207.505 399.8 200.205 399.8 200.205C399.8 156.029 354.027 141.564 354.027 141.564C339.801 141.675 302.701 141.756 249.856 141.756C197.011 141.756 147.636 141.675 145.291 141.564C145.291 141.564 99.6892 156.029 99.4657 200.205Z"></path>
  </clipPath>
  <g clip-path="url(#cl_63e)">
    <clipPath id="cl_63f">
      <path d="M99.4657 200.205C99.4657 200.205 119.268 205.354 161.426 218.098C184.269 225.003 212.299 224.283 248.934 226.218C272.793 228.826 318.959 219.554 318.959 219.554C318.959 219.554 319.623 211.783 323.154 211.783C326.686 211.783 332.235 219.554 332.235 219.554C344.655 219.554 361.478 212.06 370.32 211.013C399.924 207.505 399.8 200.205 399.8 200.205C399.8 156.029 354.027 141.564 354.027 141.564C339.801 141.675 302.701 141.756 249.856 141.756C197.011 141.756 147.636 141.675 145.291 141.564C145.291 141.564 99.6892 156.029 99.4657 200.205Z"></path>
    </clipPath>
    <g clip-path="url(#cl_63f)">
      <path fill="#7F4728" transform="matrix(0.972 7.30008e-23 -7.30008e-23 0.972 379.618 172.936)" d="M7.62939e-06 -32.5C25.6812 -32.5 46.5 -17.8373 46.5 0.249992C46.5 18.3373 25.6812 33 7.62939e-06 33C-25.6812 33 -46.5 18.3373 -46.5 0.249992C-46.5 -17.8373 -25.6812 -32.5 7.62939e-06 -32.5Z"></path>
    </g>
    <path fill="none" stroke="#612F13" stroke-width="1" stroke-linecap="round" stroke-linejoin="round" transform="matrix(-1.42852 0.632822 -0.632822 -1.42852 338.794 177.553)" d="M1.02357 0.37377L4.21644 0.641894"></path>
    <path fill="none" stroke="#612F13" stroke-width="1" stroke-linecap="round" stroke-linejoin="round" transform="matrix(-0.810895 1.33551 -1.33551 -0.810895 353.86 194.077)" d="M1.02358 0.373772L4.21645 0.641895"></path>
    <path fill="none" stroke="#612F13" stroke-width="1" stroke-linecap="round" stroke-linejoin="round" transform="matrix(-1.5617 -0.0472275 0.0472275 -1.5617 339.28 167.833)" d="M1.02357 0.373772L4.21644 0.641895"></path>
  </g>
</svg>