<?xml version="1.0" encoding="utf-8"?>
<svg xmlns="http://www.w3.org/2000/svg" xmlns:xlink="http://www.w3.org/1999/xlink" width="512" height="512">
  <path fill="none" stroke="black" stroke-width="6" stroke-linejoin="round" transform="matrix(1.8 0 0 1.52279 359.051 169.591)" d="M-14.5843 -17.676C-10.7544 -18.0721 -8.04994 -18.3518 -4.52895 -18.7159C2.50841 -19.4437 9.93693 -16.1936 11.0947 -0.551258C12.2525 15.0911 14.4109 44.253 15.0579 52.9937C18.2252 95.7868 -45.0363 102.287 -48.2036 59.4936C-48.9987 48.7512 -50.4603 29.0044 -51.3809 16.5662C-52.3015 4.12808 -47.379 -14.2845 -31.3604 -15.9411C-30.2977 -16.051 -29.2888 -16.1554 -28.3294 -16.2546"></path>
  <path fill="none" stroke="black" stroke-width="6" stroke-linejoin="round" transform="matrix(1.8 0 0 1.64041 359.051 251.837)" d="M-48.438 -1.81522C-45.5659 -44.4146 17.7488 -41.1536 14.8767 1.4457C13.7366 18.3562 11.8347 46.5661 10.6531 64.0912C10.238 70.2487 0.990364 81.121 -22.2001 80.198C-45.3906 79.2749 -53.1398 67.9227 -52.8162 63.1233C-51.6277 45.4955 -49.2794 10.6643 -48.438 -1.81522Z"></path>
  <path fill="#503F7E" transform="matrix(1.8 0 0 1.52279 359.051 169.591)" d="M-51.3809 16.5662C-52.3015 4.12808 -47.379 -14.2846 -31.3604 -15.9411C-15.3418 -17.5977 -11.5663 -17.9881 -4.52895 -18.7159C2.50841 -19.4437 9.93694 -16.1936 11.0947 -0.551262C12.2525 15.0911 14.4109 44.253 15.0578 52.9937C18.2252 95.7868 -45.0363 102.287 -48.2036 59.4936C-48.9987 48.7512 -50.4603 29.0044 -51.3809 16.5662Z"></path>
  <path fill="#503F7E" transform="matrix(1.8 0 0 1.64041 359.051 251.837)" d="M-48.438 -1.81522C-45.5659 -44.4146 17.7488 -41.1536 14.8767 1.4457C13.7366 18.3562 11.8347 46.5661 10.6531 64.0912C10.238 70.2487 0.990364 81.121 -22.2001 80.198C-45.3906 79.2749 -53.1398 67.9227 -52.8162 63.1233C-51.6277 45.4955 -49.2794 10.6643 -48.438 -1.81522Z"></path>
  <path fill="none" stroke="black" stroke-width="5" stroke-linejoin="round" transform="matrix(1.67985 0 0 1.8 269.501 356.202)" d="M0.355266 -15.6783C18.5807 -15.6837 31.5278 -11.5156 31.5439 35.8733C31.9881 49.9743 36.1669 65.1303 21.1753 74.0952C9.60664 74.0031 -3.31678 74.8095 -19.7815 74.545C-30.622 65.7146 -31.107 51.803 -31.6665 34.989C-32.2983 -11.4967 -17.8701 -15.673 0.355266 -15.6783Z"></path>
  <path fill="#453279" transform="matrix(1.67985 0 0 1.8 269.501 356.202)" d="M0.355266 -15.6783C18.5807 -15.6837 31.5278 -11.5156 31.5439 35.8733C31.9881 49.9743 36.1669 65.1303 21.1753 74.0952C9.60664 74.0031 -3.31678 74.8095 -19.7815 74.545C-30.622 65.7146 -31.107 51.803 -31.6665 34.989C-32.2983 -11.4967 -17.8701 -15.673 0.355266 -15.6783Z"></path>
  <path fill="none" stroke="black" stroke-width="5" stroke-linejoin="round" transform="matrix(1.67985 0 0 1.8 191.63 362.835)" d="M1.14441e-05 -14.3439C18.2254 -14.3439 31.1711 -10.1719 31.1712 37.2169C31.7865 56.0934 34.5752 69.036 19.1016 75.646C3.62799 76.0176 -7.05902 76.224 -21.8955 75.8837C-36.732 69.3049 -32.1706 52.8104 -32.0389 36.314C-32.655 -10.1719 -18.2254 -14.3439 1.14441e-05 -14.3439Z"></path>
  <path fill="none" stroke="black" stroke-width="5" stroke-linejoin="round" transform="matrix(1.79976 0.0276995 -0.0293645 1.69771 274.681 279.649)" d="M-11.3238 -80.2543C25.8014 -80.2543 54.9476 -94.6926 58.9092 -40.8672C62.8708 12.9582 37.0524 74.7499 0.0572919 75.3534C-14.1177 75.5847 -17.7665 75.6442 -48.2096 76.1409C-78.6526 76.6376 -84.25 60.12 -84.25 0C-86.6294 -86.0849 -88.6034 -78.4854 -12.7475 -80.2208"></path>
  <path fill="#503F7E" transform="matrix(1.67985 0 0 1.8 191.63 362.835)" d="M1.14441e-05 -14.3439C18.2254 -14.3439 31.1711 -10.1719 31.1712 37.2169C31.7865 56.0934 34.5752 69.036 19.1016 75.646C3.62799 76.0176 -7.05902 76.224 -21.8955 75.8837C-36.732 69.3049 -32.1706 52.8104 -32.0389 36.314C-32.655 -10.1719 -18.2254 -14.3439 1.14441e-05 -14.3439Z"></path>
  <path fill="none" stroke="black" stroke-width="5" stroke-linejoin="round" transform="matrix(1.53139 0 0 1.39334 226.982 125.592)" d="M0 -40C20.9426 -40 35.0096 -26.8589 47.8597 -2.20017C49.1253 -3.81498 50.3123 -3.57652 51.1974 -3.11681C52.0824 -2.6571 52.5509 -1.60561 52.2206 -0.665335C53.8523 0.0632067 55.2854 1.47333 55.8775 2.67699C56.9197 4.79567 57.6743 10.5072 53.7931 11.8212C58.5977 31.9882 20.3682 22.0914 -1.32962e-05 22.0914C-20.2357 22.0914 -45.0732 28.3281 -41.8836 12.9784C-44.6787 11.8212 -48.2008 8.95145 -46.5316 4.29176C-45.7036 1.98007 -43.8185 0.567096 -42.3936 0.567005C-41.0392 0.566917 -42.9934 -2.19999 -40.2188 -3.8149C-39.0195 -4.5129 -37.7273 -4.43211 -36.6068 -4.12355C-28.0141 -23.731 -20.4124 -40 0 -40Z"></path>
  <path fill="#503F7E" transform="matrix(1.79976 0.0276995 -0.0293645 1.69771 274.681 279.649)" d="M-11.3238 -80.2543C25.8014 -80.2543 54.9476 -94.6926 58.9092 -40.8672C62.8708 12.9582 37.0524 74.7499 0.0572919 75.3534C-14.1177 75.5847 -17.7665 75.6442 -48.2096 76.1409C-78.6526 76.6376 -84.25 60.12 -84.25 0C-86.6442 -86.62 -88.6279 -78.3873 -11.3238 -80.2543Z"></path>
  <clipPath id="cl_3">
    <path d="M256.658 143.087C323.474 144.115 376.354 120.411 381.904 211.9C387.453 303.39 339.172 407.579 272.572 407.579C247.053 407.579 240.485 407.579 185.68 407.579C130.875 407.579 121.286 379.382 123.052 277.316C121.286 130.193 117.474 144.115 256.658 143.087Z"></path>
  </clipPath>
  <g clip-path="url(#cl_3)">
    <path fill="#655494" transform="matrix(1.8 0 0 1.8 311.807 261.728)" d="M-0.158648 -48.2655C25.513 -48.2655 46.324 -26.6563 46.324 0C46.324 26.6563 25.513 48.2655 -0.158648 48.2655C-25.8303 48.2655 -46.6413 26.6563 -46.6413 0C-46.6413 -26.6563 -25.8303 -48.2655 -0.158648 -48.2655Z"></path>
  </g>
  <path fill="none" stroke="black" stroke-width="2" stroke-linejoin="round" transform="matrix(3.88825 -0.763212 0.691401 3.5224 233.781 47.3439)" d="M-4.34758 -5.25471C-4.34759 -11.5047 3.66088 -11.5047 3.66088 -5.25472C3.66088 0.995284 3.66088 12.5 3.66088 12.5L-4.57314 12.5C-4.57314 12.5 -4.34758 0.995284 -4.34758 -5.25471Z"></path>
  <path fill="none" stroke="black" stroke-width="2" stroke-linejoin="round" transform="matrix(3.5224 -0.691401 0.691401 3.5224 199.573 52.7567)" d="M-5.1645 -6.50116C-5.16451 -12.7512 6 -12.7512 6 -6.50116C6 -0.251162 6 12.5 6 12.5L-6 12.5C-6 12.5 -5.1645 -0.251163 -5.1645 -6.50116Z"></path>
  <path fill="#453279" transform="matrix(3.88825 -0.763212 0.691401 3.5224 233.781 47.3439)" d="M-4.34758 -5.25471C-4.34759 -11.5047 3.66088 -11.5047 3.66088 -5.25472C3.66088 0.995284 3.66088 12.5 3.66088 12.5L-4.57314 12.5C-4.57314 12.5 -4.34758 0.995284 -4.34758 -5.25471Z"></path>
  <path fill="none" stroke="#161616" stroke-width="0.5" stroke-linecap="round" stroke-linejoin="round" transform="matrix(3.88825 -0.763212 0.691401 3.5224 228.988 27.8123)" d="M4.54547e-06 1.51652L3.83069e-06 10.5382"></path>
  <path fill="#503F7E" transform="matrix(3.5224 -0.691401 0.691401 3.5224 199.573 52.7567)" d="M-5.1645 -6.50116C-5.16451 -12.7512 6 -12.7512 6 -6.50116C6 -0.251162 6 12.5 6 12.5L-6 12.5C-6 12.5 -5.1645 -0.251163 -5.1645 -6.50116Z"></path>
  <path fill="none" stroke="#161616" stroke-width="0.5" stroke-linecap="round" stroke-linejoin="round" transform="matrix(3.5224 -0.691401 0.691401 3.5224 199.787 32.7383)" d="M2.56958e-07 7.65589e-06L4.07165e-06 10.5382"></path>
  <path fill="#503F7E" transform="matrix(1.53139 0 0 1.39334 226.982 125.592)" d="M0 -40C20.9426 -40 35.0096 -26.8589 47.8597 -2.20017C49.1253 -3.81498 50.3123 -3.57652 51.1974 -3.11681C52.0824 -2.6571 52.5509 -1.60561 52.2206 -0.665335C53.8523 0.0632067 55.2854 1.47333 55.8775 2.67699C56.9197 4.79567 57.6743 10.5072 53.7931 11.8212C58.5977 31.9882 20.3682 22.0914 -1.32962e-05 22.0914C-20.2357 22.0914 -45.0732 28.3281 -41.8836 12.9784C-44.6787 11.8212 -48.2008 8.95145 -46.5316 4.29176C-45.7036 1.98007 -43.8185 0.567096 -42.3936 0.567005C-41.0392 0.566917 -42.9934 -2.19999 -40.2188 -3.8149C-39.0195 -4.5129 -37.7273 -4.43211 -36.6068 -4.12355C-28.0141 -23.731 -20.4124 -40 0 -40Z"></path>
  <clipPath id="cl_4">
    <path d="M226.982 69.8584C259.053 69.8584 280.595 88.1684 300.273 122.527C302.211 120.277 304.029 120.609 305.384 121.249C306.74 121.89 307.457 123.355 306.951 124.665C309.45 125.68 311.645 127.645 312.552 129.322C314.148 132.274 315.303 140.232 309.359 142.063C316.717 170.163 258.173 156.373 226.981 156.373C195.993 156.373 157.957 165.063 162.842 143.675C158.561 142.063 153.168 138.065 155.724 131.572C156.992 128.351 159.879 126.382 162.061 126.382C164.135 126.382 161.142 122.527 165.391 120.277C167.228 119.304 169.206 119.417 170.922 119.847C184.081 92.5266 195.722 69.8584 226.982 69.8584Z"></path>
  </clipPath>
  <g clip-path="url(#cl_4)">
    <path fill="#7463A5" transform="matrix(1.8 2.98023e-08 0.00759348 1.8 223.716 110.449)" d="M0 -5.5C3.86599 -5.5 7 -2.92564 7 0.25C7 3.42564 3.86599 6 0 6C-3.86599 6 -7 3.42564 -7 0.25C-7 -2.92564 -3.86599 -5.5 0 -5.5Z"></path>
    <path fill="#7463A5" transform="matrix(1.83618 3.04014e-08 0.00759348 1.8 276.264 102.303)" d="M0 -5C2.76142 -5 5 -2.6495 5 0.25C5 3.1495 2.76142 5.5 0 5.5C-2.76142 5.5 -5 3.1495 -5 0.25C-5 -2.6495 -2.76142 -5 0 -5Z"></path>
    <path fill="none" stroke="#131212" stroke-width="1" stroke-linecap="round" stroke-linejoin="round" transform="matrix(2.30699 -0.373724 0.274137 1.69224 254.495 95.6075)" d="M2.39559e-06 -4.14104e-07L2.92892 -0.714567"></path>
    <path fill="none" stroke="#131212" stroke-width="1" stroke-linecap="round" stroke-linejoin="round" transform="matrix(2.30699 -0.373724 0.274137 1.69224 232.745 94.7777)" d="M4.76837e-07 -1.48459e-07L4.25731 1.79213"></path>
    <path fill="#131212" transform="matrix(2.47104 -0.400299 0.405754 2.50471 246.53 97.888)" d="M4.54078e-07 -4.03018e-06L1.9614 0.352734L0.91509 1.42246L4.54078e-07 -4.03018e-06Z"></path>
    <path fill="none" stroke="#131212" stroke-width="0.5" stroke-linecap="round" stroke-linejoin="round" transform="matrix(1.93759 -0.313883 0.31816 1.96399 249.589 101.423)" d="M2.02578e-06 -0.711232L-1.81606e-06 1.11019"></path>
    <path fill="#32225E" transform="matrix(1.74285 0.441491 -0.424043 1.74552 243.377 90.0224)" d="M-1.93607e-06 -1.92716C1.6285 -1.92716 2.94867 -1.06434 2.94867 -4.39386e-08C2.94867 1.06434 1.6285 1.92716 -1.87863e-06 1.92716C-1.62851 1.92716 -2.94867 1.06434 -2.94867 4.39386e-08C-2.94867 -1.06434 -1.62851 -1.92716 -1.93607e-06 -1.92716Z"></path>
    <path fill="#32225E" transform="matrix(1.71213 0.433708 -0.412468 1.69787 254.57 89.1475)" d="M-3.8147e-06 -1.89919C0.889985 -1.89919 1.61146 -1.04889 1.61146 -2.40127e-08C1.61146 1.04889 0.889985 1.89919 -3.8147e-06 1.89919C-0.889993 1.89919 -1.61147 1.04889 -1.61147 2.40127e-08C-1.61147 -1.04889 -0.889993 -1.89919 -3.8147e-06 -1.89919Z"></path>
  </g>
  <path fill="none" stroke="black" stroke-width="6" stroke-linejoin="round" transform="matrix(1.8 0 0 1.8 161.092 262.174)" d="M-35.7315 -3.14905C-31.9584 -42.695 31.2546 -36.6637 27.4814 2.8822C25.8744 19.7254 23.1935 47.823 21.5281 65.2784C20.9429 71.4114 11.3967 81.8675 -11.764 79.9294C-34.9247 77.9914 -42.3588 66.3114 -41.9027 61.5311C-40.2275 43.9734 -36.9175 9.28086 -35.7315 -3.14905Z"></path>
  <path fill="none" stroke="black" stroke-width="6" stroke-linecap="round" stroke-linejoin="bevel" transform="matrix(1.8 0 0 1.67094 161.092 171.927)" d="M28.7733 41.2372C28.1367 49.076 27.589 55.8197 27.3056 59.309C23.8301 102.102 -39.4248 96.0982 -35.9494 53.3051C-35.0769 42.5628 -33.4732 22.816 -32.463 10.3778C-31.4528 -2.06036 -23.7723 -19.2401 -7.75364 -17.7304C-5.92967 -17.5585 -4.26443 -17.4015 -2.73504 -17.2574"></path>
  <path fill="#503F7E" transform="matrix(1.8 0 0 1.8 161.092 262.174)" d="M-35.7315 -3.14905C-31.8017 -44.3374 31.4113 -38.3062 27.4814 2.8822C25.8744 19.7254 23.1935 47.823 21.5281 65.2784C20.9429 71.4114 11.3967 81.8675 -11.764 79.9294C-34.9247 77.9914 -42.3588 66.3114 -41.9027 61.5311C-40.2275 43.9734 -36.9175 9.28086 -35.7315 -3.14905Z"></path>
  <path fill="#503F7E" transform="matrix(1.8 0 0 1.67094 161.092 171.927)" d="M-32.463 10.3778C-31.4528 -2.06036 -23.7723 -19.2401 -7.75365 -17.7304C8.26498 -16.2207 12.0405 -15.8649 19.0778 -15.2016C26.1152 -14.5384 32.9247 -9.8783 31.6543 5.76402C30.3839 21.4063 28.0155 50.5683 27.3056 59.309C24.2485 96.9502 -39.0064 90.9464 -35.9494 53.3051C-35.0769 42.5628 -33.4732 22.816 -32.463 10.3778Z"></path>
  <path fill="none" stroke="black" stroke-width="7" stroke-linecap="round" stroke-miterlimit="4" transform="translate(256 256)" d="M-6.14386 -117.448C52.2601 -117.448 99.6059 -117.374 99.6059 -117.281C99.6059 -117.189 52.2601 -117.115 -6.14386 -117.115C-64.5478 -117.115 -111.894 -117.189 -111.894 -117.281C-111.894 -117.374 -64.5478 -117.448 -6.14386 -117.448Z"></path>
  <path fill="#8D5A3E" transform="matrix(1.27409 9.56891e-23 -1.50956e-25 0.00200997 249.856 138.719)" d="M-1.02305e-30 -83.0039C45.8396 -83.0039 83 -45.8435 83 -0.00390625C83 45.8357 45.8396 82.9961 1.02305e-30 82.9961C-45.8396 82.9961 -83 45.8357 -83 -0.00390625C-83 -45.8435 -45.8396 -83.0039 -1.02305e-30 -83.0039Z"></path>
  <path fill="#65524C" transform="matrix(0.732603 5.50213e-23 -1.39281e-25 0.00185451 249.856 138.746)" d="M0 -97.4961C45.8396 -97.4961 83 -53.8439 83 0.00390625C83 53.8517 45.8396 97.5039 0 97.5039C-45.8396 97.5039 -83 53.8517 -83 0.00390625C-83 -53.8439 -45.8396 -97.4961 0 -97.4961Z"></path>
  <clipPath id="cl_c">
    <path d="M249.856 138.565C283.438 138.565 310.662 138.646 310.662 138.746C310.662 138.846 283.438 138.927 249.856 138.927C216.274 138.927 189.05 138.846 189.05 138.746C189.05 138.646 216.274 138.565 249.856 138.565Z"></path>
  </clipPath>
  <g clip-path="url(#cl_c)">
    <path fill="#281C18" transform="matrix(0.732603 5.50213e-23 -1.39281e-25 0.00185451 230.745 138.746)" d="M3.8147e-06 -97.5C45.8396 -97.5 83 -53.8478 83 -2.68187e-25C83 53.8478 45.8396 97.5 3.8147e-06 97.5C-45.8396 97.5 -83 53.8478 -83 2.68187e-25C-83 -53.8478 -45.8396 -97.5 3.8147e-06 -97.5Z"></path>
  </g>
  <path fill="none" stroke="black" stroke-width="7" stroke-linejoin="round" transform="translate(256 256)" d="M-110.671 -117.305C-110.685 -117.305 -110.698 -117.306 -110.709 -117.306C-110.709 -117.306 -156.311 -102.841 -156.534 -61.8774C-156.534 -61.8774 -139.16 -54.3585 -93.3282 -40.7483C-57.5869 -30.1345 -62.6492 -37.1715 -7.0665 -34.2359C16.793 -31.6274 62.959 -40.8993 62.959 -40.8993C62.959 -40.8993 62.6623 -49.9443 67.9277 -49.9443C73.1931 -49.9443 76.2347 -40.8993 76.2347 -40.8993C88.9785 -40.8993 100.393 -47.3493 109.976 -48.7442C140.175 -53.1398 143.8 -61.8774 143.8 -61.8774C143.8 -102.841 98.027 -117.306 98.027 -117.306C83.8013 -117.195 46.701 -117.115 -6.14386 -117.114C-58.7284 -117.114 -107.877 -117.194 -110.671 -117.305"></path>
  <path fill="none" stroke="black" stroke-width="21" stroke-linecap="round" stroke-linejoin="round" transform="matrix(0.972 7.30008e-23 -7.30008e-23 0.972 91.4201 194.123)" d="M8.27734 0C8.27734 0 26.1524 7.73552 73.3042 21.7377C110.075 32.6572 104.867 25.4176 162.051 28.4377C186.598 31.1214 234.093 21.5824 234.093 21.5824C234.093 21.5824 233.788 12.2769 239.205 12.2769C244.622 12.2769 247.752 21.5824 247.752 21.5824C260.863 21.5824 272.606 14.9466 282.465 13.5115C313.534 8.9893 317.263 0 317.263 0C317.263 -0.789502 317.246 -1.56944 317.214 -2.33988"></path>
  <path fill="none" stroke="white" stroke-width="14" stroke-linecap="round" stroke-linejoin="round" transform="matrix(0.972 7.30008e-23 -7.30008e-23 0.972 91.4201 194.123)" d="M8.27734 0C8.27734 0 26.1524 7.73552 73.3042 21.7377C110.075 32.6572 104.867 25.4176 162.051 28.4377C186.598 31.1214 234.093 21.5824 234.093 21.5824C234.093 21.5824 233.788 12.2769 239.205 12.2769C244.622 12.2769 247.752 21.5824 247.752 21.5824C260.863 21.5824 272.606 14.9466 282.465 13.5115C313.534 8.9893 317.263 0 317.263 0C317.263 -0.168588 317.262 -0.33674 317.261 -0.504457"></path>
  <path fill="#8D5A3E" transform="matrix(0.972 7.30008e-23 -7.30008e-23 0.972 91.4201 194.123)" d="M8.27734 0C8.27734 0 28.6505 6.97293 72.0222 20.0838C95.5232 27.188 124.361 26.4472 162.051 28.4377C186.598 31.1214 234.093 21.5824 234.093 21.5824C234.093 21.5824 234.776 13.5868 238.41 13.5868C242.043 13.5868 247.752 21.5824 247.752 21.5824C260.529 21.5824 277.837 13.8723 286.934 12.7945C317.391 9.18615 317.263 0 317.263 0C317.263 -42.1439 270.172 -57.0257 270.172 -57.0257C255.536 -56.9111 217.367 -56.8284 163 -56.8281C108.633 -56.8279 57.8352 -56.9111 55.4223 -57.0258C55.4223 -57.0258 8.50731 -42.1439 8.27734 0Z"></path>
  <clipPath id="cl_d">
    <path d="M99.4657 194.123C99.4657 194.123 119.268 200.9 161.426 213.644C184.269 220.549 212.299 219.829 248.934 221.764C272.793 224.373 318.959 215.101 318.959 215.101C318.959 215.101 319.623 207.329 323.154 207.329C326.686 207.329 332.235 215.101 332.235 215.101C344.655 215.101 361.478 207.607 370.32 206.559C399.924 203.052 399.8 194.123 399.8 194.123C399.8 153.159 354.027 138.694 354.027 138.694C339.801 138.805 302.701 138.885 249.856 138.886C197.011 138.886 147.636 138.805 145.291 138.694C145.291 138.694 99.6892 153.159 99.4657 194.123Z"></path>
  </clipPath>
  <g clip-path="url(#cl_d)">
    <path fill="#7F4728" transform="matrix(2.61439 -0.086419 0.123843 3.74656 194.452 193.637)" d="M-14.8742 -9.69253L16.7537 -6.3603L15.092 9.39556L-21.0084 4.35254L-14.8742 -9.69253Z"></path>
  </g>
  <path fill="none" stroke="#612F13" stroke-width="1" stroke-linecap="round" stroke-linejoin="round" transform="matrix(0.0654088 -1.56104 1.56104 0.0654088 205.396 167.992)" d="M1.02357 0.373772L4.21644 0.641895"></path>
  <path fill="none" stroke="#612F13" stroke-width="1" stroke-linecap="round" stroke-linejoin="round" transform="matrix(0.0654088 -1.56104 1.56104 0.0654088 193.246 167.506)" d="M1.02357 0.373772L4.21644 0.641895"></path>
  <clipPath id="cl_e">
    <path d="M99.4657 194.123C99.4657 194.123 119.268 200.9 161.426 213.644C184.269 220.549 212.299 219.829 248.934 221.764C272.793 224.373 318.959 215.101 318.959 215.101C318.959 215.101 319.623 207.329 323.154 207.329C326.686 207.329 332.235 215.101 332.235 215.101C344.655 215.101 361.478 207.607 370.32 206.559C399.924 203.052 399.8 194.123 399.8 194.123C399.8 153.159 354.027 138.694 354.027 138.694C339.801 138.805 302.701 138.885 249.856 138.886C197.011 138.886 147.636 138.805 145.291 138.694C145.291 138.694 99.6892 153.159 99.4657 194.123Z"></path>
  </clipPath>
  <g clip-path="url(#cl_e)">
    <clipPath id="cl_f">
      <path d="M99.4657 194.123C99.4657 194.123 119.268 200.9 161.426 213.644C184.269 220.549 212.299 219.829 248.934 221.764C272.793 224.373 318.959 215.101 318.959 215.101C318.959 215.101 319.623 207.329 323.154 207.329C326.686 207.329 332.235 215.101 332.235 215.101C344.655 215.101 361.478 207.607 370.32 206.559C399.924 203.052 399.8 194.123 399.8 194.123C399.8 153.159 354.027 138.694 354.027 138.694C339.801 138.805 302.701 138.885 249.856 138.886C197.011 138.886 147.636 138.805 145.291 138.694C145.291 138.694 99.6892 153.159 99.4657 194.123Z"></path>
    </clipPath>
    <g clip-path="url(#cl_f)">
      <path fill="#7F4728" transform="matrix(0.972 7.30008e-23 -7.30008e-23 0.972 379.618 170.066)" d="M7.62939e-06 -32.5C25.6812 -32.5 46.5 -17.8373 46.5 0.249992C46.5 18.3373 25.6812 33 7.62939e-06 33C-25.6812 33 -46.5 18.3373 -46.5 0.249992C-46.5 -17.8373 -25.6812 -32.5 7.62939e-06 -32.5Z"></path>
    </g>
    <path fill="none" stroke="#612F13" stroke-width="1" stroke-linecap="round" stroke-linejoin="round" transform="matrix(-1.42852 0.632822 -0.632822 -1.42852 338.794 174.683)" d="M1.02357 0.373772L4.21644 0.641895"></path>
    <path fill="none" stroke="#612F13" stroke-width="1" stroke-linecap="round" stroke-linejoin="round" transform="matrix(-0.810895 1.33551 -1.33551 -0.810895 353.86 191.207)" d="M1.02358 0.373772L4.21645 0.641895"></path>
    <path fill="none" stroke="#612F13" stroke-width="1" stroke-linecap="round" stroke-linejoin="round" transform="matrix(-1.5617 -0.0472275 0.0472275 -1.5617 339.28 164.963)" d="M1.02357 0.373775L4.21644 0.641899"></path>
  </g>
</svg>