<?xml version="1.0" encoding="utf-8"?>
<svg xmlns="http://www.w3.org/2000/svg" xmlns:xlink="http://www.w3.org/1999/xlink" width="512" height="512">
  <path fill="none" stroke="black" stroke-width="6" stroke-linejoin="round" transform="matrix(1.8 0 0 1.52279 359.051 177.797)" d="M-11.6827 -16.2435C-8.16558 -15.9431 -5.56249 -15.7208 -2.22792 -15.4361C4.81794 -14.8343 11.7159 -10.2318 10.7587 5.42947C9.8014 21.0907 8.01678 50.2879 7.48188 59.0392C4.86309 101.884 -58.4693 96.4331 -55.8505 53.5883C-55.1931 42.8329 -53.9846 23.0622 -53.2234 10.609C-52.4623 -1.8442 -45.1299 -19.0999 -29.0919 -17.7303C-27.783 -17.6185 -26.5557 -17.5137 -25.4017 -17.4151"></path>
  <path fill="none" stroke="black" stroke-width="6" stroke-linejoin="round" transform="matrix(1.8 0 0 1.64041 359.051 260.043)" d="M-54.8966 -8.07954C-44.7801 -49.3659 16.8766 -33.4559 6.76001 7.83039C2.74408 24.2197 -3.95525 51.56 -8.11716 68.545C-9.57944 74.5127 -20.5281 83.3414 -43.1577 77.7806C-65.7874 72.2198 -71.4581 59.5089 -70.3183 54.8574C-66.132 37.773 -57.8603 4.01539 -54.8966 -8.07954Z"></path>
  <path fill="#503F7E" transform="matrix(1.8 0 0 1.52279 359.051 177.797)" d="M-53.2235 10.609C-52.4623 -1.8442 -45.1299 -19.0999 -29.0919 -17.7303C-13.0539 -16.3606 -9.2738 -16.0378 -2.22792 -15.436C4.81794 -14.8343 11.7159 -10.2318 10.7587 5.42949C9.8014 21.0907 8.01678 50.2879 7.48188 59.0392C4.86308 101.884 -58.4693 96.4332 -55.8505 53.5883C-55.1931 42.8329 -53.9846 23.0622 -53.2235 10.609Z"></path>
  <path fill="#503F7E" transform="matrix(1.8 0 0 1.64041 359.051 260.043)" d="M-54.8966 -8.07954C-44.7801 -49.3659 16.8766 -33.456 6.76001 7.83039C2.74408 24.2197 -3.95525 51.56 -8.11716 68.545C-9.57944 74.5127 -20.5281 83.3413 -43.1577 77.7806C-65.7874 72.2198 -71.4581 59.5089 -70.3183 54.8574C-66.132 37.773 -57.8603 4.01539 -54.8966 -8.07954Z"></path>
  <path fill="none" stroke="black" stroke-width="5" stroke-linejoin="round" transform="matrix(1.67985 0 0 1.8 269.501 356.202)" d="M-43.6063 -14.6498C-26.4963 -20.5087 5.17467 -10.4466 4.68121 33.8925C4.94556 47.0901 -2.29384 73.0367 -20.104 76.5519C-30.7355 72.294 -42.9885 68.376 -58.0641 62.193C-64.3332 49.9579 -54.1084 48.2115 -54.4516 32.4743C-54.5439 -11.0255 -60.7163 -8.79086 -43.6063 -14.6498Z"></path>
  <path fill="#453279" transform="matrix(1.67985 0 0 1.8 269.501 356.202)" d="M-43.6063 -14.6498C-26.4963 -20.5087 5.17467 -10.4466 4.68121 33.8925C4.94556 47.0901 -2.29384 73.0367 -20.104 76.5519C-30.7355 72.294 -42.9885 68.376 -58.0641 62.193C-64.3332 49.9579 -54.1084 48.2115 -54.4516 32.4743C-54.5439 -11.0255 -60.7163 -8.79086 -43.6063 -14.6498Z"></path>
  <path fill="none" stroke="black" stroke-width="5" stroke-linejoin="round" transform="matrix(1.67985 0 0 1.8 191.63 362.835)" d="M39.1154 -14.3493C57.3371 -14.0071 70.1903 -9.59292 69.1688 37.7863C69.3772 56.6705 71.9426 69.2152 56.3589 75.6303C40.8853 76.0018 30.1983 76.2082 15.3618 75.8679C0.638023 69.0798 5.50369 52.1875 5.99098 35.6968C6.37707 -10.7912 20.8937 -14.6914 39.1154 -14.3493Z"></path>
  <path fill="none" stroke="black" stroke-width="5" stroke-linejoin="round" transform="matrix(1.79976 0.0276995 -0.0293645 1.69771 274.681 287.855)" d="M-11.3238 -80.2543C25.8014 -80.2543 54.9476 -94.6926 58.9092 -40.8672C62.8708 12.9582 37.0524 74.7499 0.0572919 75.3534C-14.1177 75.5847 -17.7665 75.6442 -48.2096 76.1409C-78.6526 76.6376 -84.25 60.12 -84.25 1.90735e-06C-86.6294 -86.0849 -88.6034 -78.4854 -12.7475 -80.2208"></path>
  <path fill="#503F7E" transform="matrix(1.67985 0 0 1.8 191.63 362.835)" d="M39.1154 -14.3493C57.3371 -14.0071 70.1903 -9.59292 69.1688 37.7863C69.3772 56.6705 71.9426 69.2152 56.3589 75.6303C40.8853 76.0018 30.1983 76.2082 15.3618 75.8679C0.638023 69.0798 5.50369 52.1875 5.99098 35.6968C6.37707 -10.7912 20.8937 -14.6914 39.1154 -14.3493Z"></path>
  <path fill="none" stroke="black" stroke-width="5" stroke-linejoin="round" transform="matrix(1.53139 0 0 1.39334 226.982 139.07)" d="M0 -40C20.9426 -40 35.0096 -26.8589 47.8597 -2.20018C49.1253 -3.81499 50.3123 -3.57653 51.1974 -3.11682C52.0824 -2.65711 52.5509 -1.60562 52.2206 -0.665342C53.8523 0.0631991 55.2854 1.47333 55.8775 2.67698C56.9197 4.79566 57.6743 10.5072 53.7931 11.8212C58.5977 31.9882 20.3682 22.0914 -1.32962e-05 22.0914C-20.2357 22.0914 -45.0732 28.3281 -41.8836 12.9784C-44.6787 11.8212 -48.2008 8.95144 -46.5316 4.29175C-45.7036 1.98006 -43.8185 0.567089 -42.3936 0.566997C-41.0392 0.56691 -42.9934 -2.2 -40.2188 -3.81491C-39.0195 -4.51291 -37.7273 -4.43211 -36.6068 -4.12355C-28.0141 -23.7311 -20.4124 -40 0 -40Z"></path>
  <path fill="#503F7E" transform="matrix(1.79976 0.0276995 -0.0293645 1.69771 274.681 287.855)" d="M-11.3238 -80.2543C25.8014 -80.2543 54.9476 -94.6926 58.9092 -40.8672C62.8708 12.9582 37.0524 74.7499 0.0572919 75.3534C-14.1177 75.5847 -17.7665 75.6442 -48.2096 76.1409C-78.6526 76.6376 -84.25 60.12 -84.25 1.90735e-06C-86.6442 -86.62 -88.6279 -78.3873 -11.3238 -80.2543Z"></path>
  <clipPath id="cl_4e3">
    <path d="M256.658 151.293C323.474 152.322 376.354 128.617 381.904 220.106C387.453 311.596 339.172 415.786 272.572 415.785C247.053 415.785 240.485 415.785 185.68 415.785C130.875 415.785 121.286 387.588 123.052 285.522C121.286 138.4 117.474 152.322 256.658 151.293Z"></path>
  </clipPath>
  <g clip-path="url(#cl_4e3)">
    <path fill="#655494" transform="matrix(1.8 0 0 1.8 311.807 269.935)" d="M-0.158648 -48.2655C25.513 -48.2655 46.324 -26.6563 46.324 0C46.324 26.6563 25.513 48.2655 -0.158648 48.2655C-25.8303 48.2655 -46.6413 26.6563 -46.6413 0C-46.6413 -26.6563 -25.8303 -48.2655 -0.158648 -48.2655Z"></path>
  </g>
  <path fill="none" stroke="black" stroke-width="2" stroke-linejoin="round" transform="matrix(3.88825 -0.763212 0.691401 3.5224 233.781 60.8215)" d="M-4.34758 -5.25471C-4.34758 -11.5047 3.66088 -11.5047 3.66088 -5.25472C3.66088 0.995284 3.66088 12.5 3.66088 12.5L-4.57314 12.5C-4.57314 12.5 -4.34758 0.995284 -4.34758 -5.25471Z"></path>
  <path fill="none" stroke="black" stroke-width="2" stroke-linejoin="round" transform="matrix(3.5224 -0.691401 0.691401 3.5224 199.573 66.2343)" d="M-5.1645 -6.50116C-5.1645 -12.7512 6 -12.7512 6 -6.50116C6 -0.251162 6 12.5 6 12.5L-6 12.5C-6 12.5 -5.1645 -0.251163 -5.1645 -6.50116Z"></path>
  <path fill="#453279" transform="matrix(3.88825 -0.763212 0.691401 3.5224 233.781 60.8215)" d="M-4.34758 -5.25471C-4.34758 -11.5047 3.66088 -11.5047 3.66088 -5.25472C3.66088 0.995284 3.66088 12.5 3.66088 12.5L-4.57314 12.5C-4.57314 12.5 -4.34758 0.995284 -4.34758 -5.25471Z"></path>
  <path fill="none" stroke="#161616" stroke-width="0.5" stroke-linecap="round" stroke-linejoin="round" transform="matrix(3.88825 -0.763212 0.691401 3.5224 228.988 41.2898)" d="M4.30705e-06 1.51652L3.59227e-06 10.5382"></path>
  <path fill="#503F7E" transform="matrix(3.5224 -0.691401 0.691401 3.5224 199.573 66.2343)" d="M-5.1645 -6.50116C-5.1645 -12.7512 6 -12.7512 6 -6.50116C6 -0.251162 6 12.5 6 12.5L-6 12.5C-6 12.5 -5.1645 -0.251163 -5.1645 -6.50116Z"></path>
  <path fill="none" stroke="#161616" stroke-width="0.5" stroke-linecap="round" stroke-linejoin="round" transform="matrix(3.5224 -0.691401 0.691401 3.5224 199.787 46.2158)" d="M4.95376e-07 3.8412e-06L4.31007e-06 10.5382"></path>
  <path fill="#503F7E" transform="matrix(1.53139 0 0 1.39334 226.982 139.07)" d="M0 -40C20.9426 -40 35.0096 -26.8589 47.8597 -2.20018C49.1253 -3.81499 50.3123 -3.57653 51.1974 -3.11682C52.0824 -2.65711 52.5509 -1.60562 52.2206 -0.665342C53.8523 0.0631991 55.2854 1.47333 55.8775 2.67698C56.9197 4.79566 57.6743 10.5072 53.7931 11.8212C58.5977 31.9882 20.3682 22.0914 -1.32962e-05 22.0914C-20.2357 22.0914 -45.0732 28.3281 -41.8836 12.9784C-44.6787 11.8212 -48.2008 8.95144 -46.5316 4.29175C-45.7036 1.98006 -43.8185 0.567089 -42.3936 0.566997C-41.0392 0.56691 -42.9934 -2.2 -40.2188 -3.81491C-39.0195 -4.51291 -37.7273 -4.43211 -36.6068 -4.12355C-28.0141 -23.7311 -20.4124 -40 0 -40Z"></path>
  <clipPath id="cl_4e4">
    <path d="M226.982 83.336C259.053 83.336 280.595 101.646 300.273 136.004C302.211 133.754 304.029 134.086 305.384 134.727C306.74 135.367 307.457 136.833 306.951 138.143C309.45 139.158 311.645 141.123 312.552 142.8C314.148 145.752 315.303 153.71 309.359 155.541C316.717 183.64 258.173 169.851 226.981 169.851C195.993 169.851 157.957 178.54 162.842 157.153C158.561 155.541 153.168 151.542 155.724 145.05C156.992 141.829 159.879 139.86 162.061 139.86C164.135 139.86 161.142 136.004 165.391 133.754C167.228 132.782 169.206 132.894 170.922 133.324C184.081 106.004 195.722 83.336 226.982 83.336Z"></path>
  </clipPath>
  <g clip-path="url(#cl_4e4)">
    <path fill="#7463A5" transform="matrix(1.8 2.98023e-08 0.00759348 1.8 223.015 130.419)" d="M1.90735e-06 -5.5C3.866 -5.5 7 -2.92564 7 0.25C7 3.42564 3.866 6 1.90735e-06 6C-3.86599 6 -7 3.42564 -7 0.25C-7 -2.92564 -3.86599 -5.5 1.90735e-06 -5.5Z"></path>
    <path fill="#7463A5" transform="matrix(1.83618 3.04014e-08 0.00759348 1.8 275.564 122.273)" d="M0 -5.00001C2.76142 -5.00001 5 -2.6495 5 0.249992C5 3.14949 2.76142 5.49999 0 5.49999C-2.76142 5.49999 -5 3.14949 -5 0.249992C-5 -2.6495 -2.76142 -5.00001 0 -5.00001Z"></path>
    <path fill="none" stroke="#131212" stroke-width="1" stroke-linecap="round" stroke-linejoin="round" transform="matrix(2.30699 -0.373724 0.274137 1.69224 253.795 115.577)" d="M4.88246e-07 -4.14104e-07L2.92891 -0.714567"></path>
    <path fill="none" stroke="#131212" stroke-width="1" stroke-linecap="round" stroke-linejoin="round" transform="matrix(2.30699 -0.373724 0.274137 1.69224 232.045 114.747)" d="M6.55651e-07 7.48094e-06L4.25731 1.79213"></path>
    <path fill="#131212" transform="matrix(2.47104 -0.400299 0.405754 2.50471 245.83 117.857)" d="M-4.99596e-07 -4.03018e-06L1.9614 0.352734L0.915089 1.42246L-4.99596e-07 -4.03018e-06Z"></path>
    <path fill="none" stroke="#131212" stroke-width="0.5" stroke-linecap="round" stroke-linejoin="round" transform="matrix(1.93759 -0.313883 0.31816 1.96399 248.889 121.393)" d="M-3.58409e-07 -0.711224L-4.20025e-06 1.1102"></path>
    <path fill="#32225E" transform="matrix(1.74285 0.441491 -0.424043 1.74552 242.677 109.992)" d="M-1.93607e-06 -1.92716C1.6285 -1.92716 2.94867 -1.06434 2.94867 -4.39386e-08C2.94867 1.06434 1.6285 1.92716 -1.87863e-06 1.92716C-1.62851 1.92716 -2.94867 1.06434 -2.94867 4.39386e-08C-2.94867 -1.06434 -1.62851 -1.92716 -1.93607e-06 -1.92716Z"></path>
    <path fill="#32225E" transform="matrix(1.71213 0.433708 -0.412468 1.69787 253.87 109.117)" d="M-5.72205e-06 -1.89918C0.889983 -1.89918 1.61146 -1.04889 1.61146 7.60538e-06C1.61146 1.0489 0.889983 1.8992 -5.72205e-06 1.8992C-0.889995 1.8992 -1.61147 1.0489 -1.61147 7.65341e-06C-1.61147 -1.04889 -0.889995 -1.89918 -5.72205e-06 -1.89918Z"></path>
  </g>
  <path fill="none" stroke="black" stroke-width="6" stroke-linejoin="round" transform="matrix(1.8 0 0 1.8 172.462 270.38)" d="M-24.8139 3.47515C-29.6142 -35.9593 33.4205 -43.6323 38.2208 -4.19786C40.2653 12.5979 43.6759 40.6163 45.7947 58.0224C46.5391 64.1381 39.4588 76.3991 16.4217 79.4758C-6.61536 82.5525 -16.3826 72.7398 -16.9628 67.9729C-19.0941 50.4648 -23.3051 15.87 -24.8139 3.47515Z"></path>
  <path fill="none" stroke="black" stroke-width="6" stroke-linecap="round" stroke-linejoin="bevel" transform="matrix(1.8 0 0 1.67094 172.462 180.133)" d="M36.3078 33.5809C37.2526 41.4272 38.0661 48.1832 38.4861 51.6716C43.6155 94.2713 -19.3621 103.028 -24.4914 60.4287C-25.779 49.7349 -28.146 30.0774 -29.6368 17.6954C-31.1277 5.31347 -27.0481 -13.2414 -11.1018 -15.4695C-9.43321 -15.7027 -7.89804 -15.9172 -6.47864 -16.1155"></path>
  <path fill="#503F7E" transform="matrix(1.8 0 0 1.8 172.462 270.38)" d="M-24.8139 3.47515C-29.8135 -37.5971 33.2212 -45.2701 38.2208 -4.19786C40.2653 12.5979 43.6759 40.6163 45.7947 58.0224C46.5391 64.1381 39.4588 76.3991 16.4217 79.4758C-6.61536 82.5525 -16.3826 72.7398 -16.9628 67.9729C-19.0941 50.4648 -23.3051 15.87 -24.8139 3.47515Z"></path>
  <path fill="#503F7E" transform="matrix(1.8 0 0 1.67094 172.462 180.133)" d="M-29.6368 17.6954C-31.1277 5.31347 -27.0481 -13.2414 -11.1018 -15.4695C4.8444 -17.6977 8.60283 -18.2228 15.6084 -19.2017C22.6139 -20.1805 30.1931 -17.203 32.068 -1.63136C33.943 13.9403 37.4384 42.9704 38.4861 51.6716C42.9979 89.1428 -19.9796 97.8999 -24.4914 60.4287C-25.779 49.7349 -28.146 30.0774 -29.6368 17.6954Z"></path>
  <path fill="none" stroke="black" stroke-width="7" stroke-linecap="round" stroke-miterlimit="4" transform="translate(256 256)" d="M-6.14386 -109.242C52.2601 -109.242 99.6059 -109.167 99.6059 -109.075C99.6059 -108.983 52.2601 -108.908 -6.14386 -108.908C-64.5478 -108.908 -111.894 -108.983 -111.894 -109.075C-111.894 -109.167 -64.5478 -109.242 -6.14386 -109.242Z"></path>
  <path fill="#8D5A3E" transform="matrix(1.27409 9.56891e-23 -1.50956e-25 0.00200997 249.856 146.925)" d="M-1.02305e-30 -83C45.8396 -83 83 -45.8396 83 0C83 45.8396 45.8396 83 1.02305e-30 83C-45.8396 83 -83 45.8396 -83 0C-83 -45.8396 -45.8396 -83 -1.02305e-30 -83Z"></path>
  <path fill="#65524C" transform="matrix(0.732603 5.50213e-23 -1.39281e-25 0.00185451 249.856 146.952)" d="M0 -97.4961C45.8396 -97.4961 83 -53.8439 83 0.00390625C83 53.8517 45.8396 97.5039 0 97.5039C-45.8396 97.5039 -83 53.8517 -83 0.00390625C-83 -53.8439 -45.8396 -97.4961 0 -97.4961Z"></path>
  <clipPath id="cl_4ec">
    <path d="M249.856 146.771C283.438 146.771 310.662 146.852 310.662 146.952C310.662 147.052 283.438 147.133 249.856 147.133C216.274 147.133 189.05 147.052 189.05 146.952C189.05 146.852 216.274 146.771 249.856 146.771Z"></path>
  </clipPath>
  <g clip-path="url(#cl_4ec)">
    <path fill="#281C18" transform="matrix(0.732603 5.50213e-23 -1.39281e-25 0.00185451 230.745 146.952)" d="M3.8147e-06 -97.4961C45.8396 -97.4961 83 -53.8439 83 0.00390625C83 53.8517 45.8396 97.5039 3.8147e-06 97.5039C-45.8396 97.5039 -83 53.8517 -83 0.00390625C-83 -53.8439 -45.8396 -97.4961 3.8147e-06 -97.4961Z"></path>
  </g>
  <path fill="none" stroke="black" stroke-width="7" stroke-linejoin="round" transform="translate(256 256)" d="M-114.199 -107.766C-124.869 -103.266 -156.349 -86.7059 -156.534 -47.8724C-156.534 -47.8724 -139.16 -43.2938 -93.3282 -29.6837C-57.5869 -19.0699 -62.6492 -26.1068 -7.0665 -23.1713C16.793 -20.5627 62.959 -29.8347 62.959 -29.8347C62.959 -29.8347 62.6623 -38.8796 67.9277 -38.8796C73.1931 -38.8796 76.2347 -29.8347 76.2347 -29.8347C88.9785 -29.8347 100.393 -36.2846 109.976 -37.6795C140.175 -42.0751 143.8 -47.8724 143.8 -47.8724C143.8 -94.6351 98.027 -109.1 98.027 -109.1C83.8013 -108.989 46.701 -108.908 -6.14386 -108.908C-58.9887 -108.908 -108.364 -108.989 -110.709 -109.1C-110.709 -109.1 -112.02 -108.684 -114.199 -107.766"></path>
  <path fill="none" stroke="black" stroke-width="21" stroke-linecap="round" stroke-linejoin="round" transform="matrix(0.972 7.30008e-23 -7.30008e-23 0.972 91.4201 202.329)" d="M8.27734 5.9659C8.27734 5.9659 26.1524 10.6763 73.3042 24.6786C110.075 35.5981 104.867 28.3585 162.051 31.3785C186.598 34.0622 234.093 24.5232 234.093 24.5232C234.093 24.5232 233.788 15.2177 239.205 15.2177C244.622 15.2177 247.752 24.5232 247.752 24.5232C260.863 24.5232 272.606 17.8874 282.465 16.4524C313.534 11.9301 317.263 5.9659 317.263 5.9659C317.263 3.03739 317.088 0.232008 316.761 -2.4544"></path>
  <path fill="none" stroke="white" stroke-width="14" stroke-linecap="round" stroke-linejoin="round" transform="matrix(0.972 7.30008e-23 -7.30008e-23 0.972 91.4201 202.329)" d="M8.27734 5.9659C8.27734 5.9659 26.1524 10.6763 73.3042 24.6786C110.075 35.5981 104.867 28.3585 162.051 31.3785C186.598 34.0622 234.093 24.5232 234.093 24.5232C234.093 24.5232 233.788 15.2177 239.205 15.2177C244.622 15.2177 247.752 24.5232 247.752 24.5232C260.863 24.5232 272.606 17.8874 282.465 16.4524C313.534 11.9301 317.263 5.9659 317.263 5.9659C317.263 3.66881 317.156 1.44748 316.951 -0.700105"></path>
  <path fill="#8D5A3E" transform="matrix(0.972 7.30008e-23 -7.30008e-23 0.972 91.4201 202.329)" d="M8.27734 5.9659C8.27734 5.9659 28.6505 9.91376 72.0222 23.0247C95.5232 30.1288 124.361 29.388 162.051 31.3785C186.598 34.0622 234.093 24.5232 234.093 24.5232C234.093 24.5232 234.776 16.5276 238.41 16.5276C242.043 16.5276 247.752 24.5232 247.752 24.5232C260.529 24.5232 277.837 16.8132 286.934 15.7353C317.391 12.127 317.263 5.9659 317.263 5.9659C317.263 -42.1439 270.172 -57.0257 270.172 -57.0257C255.536 -56.9111 217.367 -56.8284 163 -56.8281C108.633 -56.8279 57.8352 -56.9111 55.4223 -57.0258C55.4223 -57.0258 8.50731 -42.1439 8.27734 5.9659Z"></path>
  <clipPath id="cl_4ed">
    <path d="M99.4657 208.128C99.4657 208.128 119.268 211.965 161.426 224.709C184.269 231.614 212.299 230.894 248.934 232.829C272.793 235.437 318.959 226.165 318.959 226.165C318.959 226.165 319.623 218.394 323.154 218.394C326.686 218.394 332.235 226.165 332.235 226.165C344.655 226.165 361.478 218.671 370.32 217.624C399.924 214.116 399.8 208.128 399.8 208.128C399.8 161.365 354.027 146.9 354.027 146.9C339.801 147.011 302.701 147.092 249.856 147.092C197.011 147.092 147.636 147.011 145.291 146.9C145.291 146.9 99.6892 161.365 99.4657 208.128Z"></path>
  </clipPath>
  <g clip-path="url(#cl_4ed)">
    <path fill="#7F4728" transform="matrix(2.61439 -0.086419 0.123843 3.74656 194.452 201.843)" d="M-14.8742 -9.69253L16.7537 -6.3603L15.092 9.39556L-21.0084 4.35254L-14.8742 -9.69253Z"></path>
  </g>
  <path fill="none" stroke="#612F13" stroke-width="1" stroke-linecap="round" stroke-linejoin="round" transform="matrix(0.0654088 -1.56104 1.56104 0.0654088 205.396 176.198)" d="M1.02357 0.373772L4.21644 0.641895"></path>
  <path fill="none" stroke="#612F13" stroke-width="1" stroke-linecap="round" stroke-linejoin="round" transform="matrix(0.0654088 -1.56104 1.56104 0.0654088 193.246 175.712)" d="M1.02357 0.373775L4.21644 0.641899"></path>
  <clipPath id="cl_4ee">
    <path d="M99.4657 208.128C99.4657 208.128 119.268 211.965 161.426 224.709C184.269 231.614 212.299 230.894 248.934 232.829C272.793 235.437 318.959 226.165 318.959 226.165C318.959 226.165 319.623 218.394 323.154 218.394C326.686 218.394 332.235 226.165 332.235 226.165C344.655 226.165 361.478 218.671 370.32 217.624C399.924 214.116 399.8 208.128 399.8 208.128C399.8 161.365 354.027 146.9 354.027 146.9C339.801 147.011 302.701 147.092 249.856 147.092C197.011 147.092 147.636 147.011 145.291 146.9C145.291 146.9 99.6892 161.365 99.4657 208.128Z"></path>
  </clipPath>
  <g clip-path="url(#cl_4ee)">
    <clipPath id="cl_4ef">
      <path d="M99.4657 208.128C99.4657 208.128 119.268 211.965 161.426 224.709C184.269 231.614 212.299 230.894 248.934 232.829C272.793 235.437 318.959 226.165 318.959 226.165C318.959 226.165 319.623 218.394 323.154 218.394C326.686 218.394 332.235 226.165 332.235 226.165C344.655 226.165 361.478 218.671 370.32 217.624C399.924 214.116 399.8 208.128 399.8 208.128C399.8 161.365 354.027 146.9 354.027 146.9C339.801 147.011 302.701 147.092 249.856 147.092C197.011 147.092 147.636 147.011 145.291 146.9C145.291 146.9 99.6892 161.365 99.4657 208.128Z"></path>
    </clipPath>
    <g clip-path="url(#cl_4ef)">
      <path fill="#7F4728" transform="matrix(0.972 7.30008e-23 -7.30008e-23 0.972 379.618 178.272)" d="M7.62939e-06 -32.5C25.6812 -32.5 46.5 -17.8373 46.5 0.249992C46.5 18.3373 25.6812 33 7.62939e-06 33C-25.6812 33 -46.5 18.3373 -46.5 0.249992C-46.5 -17.8373 -25.6812 -32.5 7.62939e-06 -32.5Z"></path>
    </g>
    <path fill="none" stroke="#612F13" stroke-width="1" stroke-linecap="round" stroke-linejoin="round" transform="matrix(-1.42852 0.632822 -0.632822 -1.42852 338.794 182.889)" d="M1.02356 0.373773L4.21643 0.641897"></path>
    <path fill="none" stroke="#612F13" stroke-width="1" stroke-linecap="round" stroke-linejoin="round" transform="matrix(-0.810895 1.33551 -1.33551 -0.810895 353.86 199.413)" d="M1.02357 0.373775L4.21644 0.641899"></path>
    <path fill="none" stroke="#612F13" stroke-width="1" stroke-linecap="round" stroke-linejoin="round" transform="matrix(-1.5617 -0.0472275 0.0472275 -1.5617 339.28 173.169)" d="M1.02357 0.373772L4.21644 0.641895"></path>
  </g>
</svg>