<?xml version="1.0" encoding="utf-8"?>
<svg xmlns="http://www.w3.org/2000/svg" xmlns:xlink="http://www.w3.org/1999/xlink" width="686" height="512">
  <path fill="none" stroke="#D7D7D7" stroke-width="7" stroke-linejoin="round" transform="matrix(1.75255 0 0 1.75255 357.39 414.526)" d="M-3.27419 -45.9191C13.9983 -51.7352 28.2816 -48.8883 42.7178 -7.01762C52.5922 20.2681 48.9606 32.1496 38.9439 35.3653C28.9272 38.5811 20.8054 41.5271 11.077 45.0113C1.16701 48.3688 -7.58707 39.6274 -17.4655 12.3293C-32.9001 -31.5307 -20.5467 -40.103 -3.27419 -45.9191Z"></path>
  <path fill="none" stroke="#D7D7D7" stroke-width="7" stroke-linejoin="round" transform="matrix(-2.09669 -3.16894e-07 -3.14293e-07 2.07948 498.765 281.944)" d="M18.4249 -58.663C21.7945 -54.1681 27.9211 -39.0213 27.8783 -35.094C27.8355 -31.1666 32.2355 -22.2521 30.9557 2.08302C29.7398 30.9469 25.3067 54.0363 0.0424423 53.1161C-15.8146 52.4371 -27.2874 28.5047 -26.0716 -0.359159C-24.5472 -36.5461 1.14603 -64.9291 18.4249 -58.663Z"></path>
  <path fill="none" stroke="#D7D7D7" stroke-width="7" stroke-linejoin="round" transform="matrix(1.75232 0.0285905 -0.0285905 1.75232 411.424 283.079)" d="M0.209621 -80.0966C37.3348 -80.0966 84.5 -60 84.5 -9.53674e-07C84.5 41.1452 46.7396 76.2788 0.209621 76.2788C-62.1658 76.2788 -84 60.12 -84 -9.53674e-07C-84 -71.2881 -50.5087 -80.0966 0.209621 -80.0966Z"></path>
  <path fill="none" stroke="#D7D7D7" stroke-width="7" stroke-linejoin="round" transform="matrix(1.49621 0 0 1.75255 452.904 403.135)" d="M-5.85375 -47.4118C11.3266 -52.6049 28.5188 -50.4725 47.7197 -3.68655C53.4965 9.26148 56.8466 33.3944 43.8824 37.1179C30.9182 40.8414 25.1028 42.5117 13.5377 45.8334C1.97263 49.155 -8.71905 28.0674 -14.4958 15.1193C-34.8462 -33.6432 -23.0341 -42.2187 -5.85375 -47.4118Z"></path>
  <path fill="#D7D7D7" transform="matrix(-2.09669 -3.16894e-07 -3.14293e-07 2.07948 498.765 281.944)" d="M18.4249 -58.663C21.7945 -54.1681 27.9211 -39.0213 27.8783 -35.094C27.8355 -31.1666 32.2355 -22.2521 30.9557 2.08302C29.7398 30.9469 25.3067 54.0363 0.04245 53.1161C-15.8146 52.4371 -27.2874 28.5047 -26.0715 -0.359159C-24.5472 -36.5461 1.14604 -64.9291 18.4249 -58.663Z"></path>
  <path fill="#D7D7D7" transform="matrix(1.49621 0 0 1.75255 452.904 403.135)" d="M-5.85375 -47.4118C11.3266 -52.6049 28.5188 -50.4725 47.7197 -3.68655C53.4965 9.26148 56.8466 33.3944 43.8824 37.1179C30.9182 40.8414 25.1028 42.5117 13.5377 45.8334C1.97263 49.155 -8.71905 28.0674 -14.4958 15.1193C-34.8462 -33.6432 -23.0341 -42.2187 -5.85375 -47.4118Z"></path>
  <path fill="#D7D7D7" transform="matrix(1.17156 0 0 1.37229 452.904 403.135)" d="M-2.508 -48.5712C14.6723 -53.7643 31.3771 -51.3959 52.4541 -0.411255C58.9858 16.6348 56.4044 33.3907 43.4401 37.1143C30.4759 40.8378 30.6605 40.8381 19.0955 44.1598C7.53037 47.4815 -3.22983 35.4407 -9.76142 18.3946C-31.988 -34.5666 -19.6884 -43.3781 -2.508 -48.5712Z"></path>
  <path fill="#D7D7D7" transform="matrix(1.75255 0 0 1.75255 357.39 414.526)" d="M-3.27419 -45.9191C13.9983 -51.7352 28.2816 -48.8883 42.7178 -7.01762C52.5922 20.2681 48.9606 32.1496 38.9439 35.3653C28.9272 38.5811 20.8054 41.5271 11.077 45.0113C1.16701 48.3688 -7.58707 39.6274 -17.4655 12.3293C-32.9001 -31.5307 -20.5467 -40.103 -3.27419 -45.9191Z"></path>
  <path fill="#D7D7D7" transform="matrix(-1.63266 -2.46762e-07 -3.07725e-07 2.03602 494.88 276.382)" d="M20.2864 -52.2365C42.4347 -51.4821 34.2248 -26.9093 31.077 1.60099C27.9294 30.1112 14.8084 53.0388 -0.641632 52.5126C-16.0917 51.9863 -26.9984 28.3127 -25.4786 -0.380267C-23.9589 -29.0732 -1.86183 -52.9908 20.2864 -52.2365Z"></path>
  <path fill="none" stroke="#D7D7D7" stroke-width="7" stroke-miterlimit="4" transform="matrix(1.75232 0.0285905 -0.0285905 1.75232 371.065 124.67)" d="M-9.53674e-07 -29.5C19.0538 -29.5 34.5 -16.1805 34.5 0.25C34.5 16.6805 19.0538 30 -9.53674e-07 30C-19.0538 30 -34.5 16.6805 -34.5 0.25C-34.5 -16.1805 -19.0538 -29.5 -9.53674e-07 -29.5Z"></path>
  <path fill="#D7D7D7" transform="matrix(1.75232 0.0285905 -0.0285905 1.75232 411.424 283.079)" d="M0.209621 -80.0966C37.3348 -80.0966 84.5 -60 84.5 -9.53674e-07C84.5 41.1452 46.7396 76.2788 0.209621 76.2788C-62.1658 76.2788 -84 60.12 -84 -9.53674e-07C-84 -71.2881 -50.5087 -80.0966 0.209621 -80.0966Z"></path>
  <path fill="none" stroke="#D7D7D7" stroke-width="9" stroke-miterlimit="4" transform="matrix(1.00146 0 0 1.00146 343 256)" d="M2.44543 -187.35C16.8174 -187.115 28.3043 -176.879 28.1021 -164.485C27.8999 -152.092 16.0852 -142.236 1.71319 -142.47C-12.6588 -142.705 -24.1456 -152.941 -23.9434 -165.335C-23.7412 -177.728 -11.9265 -187.584 2.44543 -187.35Z"></path>
  <path fill="none" stroke="#D7D7D7" stroke-width="9" stroke-miterlimit="4" transform="matrix(1.00146 0 0 1.00146 343 256)" d="M-12.6367 -172.852C-0.678736 -172.657 8.87869 -164.139 8.71045 -153.828C8.54221 -143.516 -1.28799 -135.315 -13.2459 -135.51C-25.2038 -135.705 -34.7613 -144.223 -34.593 -154.534C-34.4248 -164.846 -24.5946 -173.047 -12.6367 -172.852Z"></path>
  <path fill="none" stroke="#D7D7D7" stroke-width="9" stroke-miterlimit="4" transform="matrix(1.00146 0 0 1.00146 343 256)" d="M-32.088 -196.51C-25.5926 -196.404 -20.401 -191.777 -20.4924 -186.176C-20.5838 -180.575 -25.9235 -176.12 -32.419 -176.226C-38.9144 -176.332 -44.1059 -180.959 -44.0145 -186.56C-43.9232 -192.161 -38.5835 -196.616 -32.088 -196.51Z"></path>
  <path fill="#D7D7D7" transform="matrix(1.75232 0.0285905 -0.0285905 1.75232 371.065 124.67)" d="M-9.53674e-07 -29.5C19.0538 -29.5 34.5 -16.1805 34.5 0.25C34.5 16.6805 19.0538 30 -9.53674e-07 30C-19.0538 30 -34.5 16.6805 -34.5 0.25C-34.5 -16.1805 -19.0538 -29.5 -9.53674e-07 -29.5Z"></path>
  <path fill="#D7D7D7" transform="matrix(0.755384 0.0123247 -0.0123247 0.755384 345.085 90.6604)" d="M-7.15256e-07 -29.5C19.0538 -29.5 34.5 -16.1805 34.5 0.25C34.5 16.6805 19.0538 30 -7.15256e-07 30C-19.0538 30 -34.5 16.6805 -34.5 0.25C-34.5 -16.1805 -19.0538 -29.5 -7.15256e-07 -29.5Z"></path>
  <path fill="#D7D7D7" transform="matrix(0.628503 0.0102545 -0.0102545 0.628503 330.042 101.437)" d="M5.54137e-08 -29.5C19.0538 -29.5 34.5 -16.1805 34.5 0.24997C34.5 16.6804 19.0538 30 -5.54137e-08 30C-19.0538 30 -34.5 16.6804 -34.5 0.249969C-34.5 -16.1805 -19.0538 -29.5 5.54137e-08 -29.5Z"></path>
  <path fill="#D7D7D7" transform="matrix(0.341398 0.00557018 -0.00557018 0.341398 310.701 69.2746)" d="M-7.62939e-06 -29.5C19.0538 -29.5 34.5 -16.1805 34.5 0.25C34.5 16.6805 19.0538 30 -7.62939e-06 30C-19.0538 30 -34.5 16.6805 -34.5 0.25C-34.5 -16.1805 -19.0538 -29.5 -7.62939e-06 -29.5Z"></path>
  <path fill="#D7D7D7" transform="matrix(1.46935 0.0239736 -0.0239736 1.46935 410.095 283.079)" d="M0.249976 -81.5196C49.8787 -81.2985 84.5 -60 84.5 1.90735e-06C84.5 41.1452 46.78 74.5 0.249996 74.5C-62.1254 74.5 -84 60.12 -84 1.90735e-06C-84 -71.2881 -62.1254 -81.5197 0.249976 -81.5196Z"></path>
  <clipPath id="cl_5d">
    <path d="M414.081 142.73C479.136 143.791 561.21 180.355 559.495 285.495C558.318 357.594 491.146 418.08 409.61 416.75C300.308 414.967 262.51 386.027 264.229 280.677C266.267 155.758 325.206 141.28 414.081 142.73Z"></path>
  </clipPath>
  <g clip-path="url(#cl_5d)">
    <path fill="#D7D7D7" transform="matrix(0.784709 0.0128031 -0.0147656 0.904991 464.286 248.883)" d="M0.249995 -81.5197C49.8788 -81.2985 84.5 -60 84.5 -9.53674e-07C84.5 41.1452 67.1354 74.5 20.6054 74.5C-41.77 74.5 -84 60.12 -84 -9.53674e-07C-84 -71.2881 -62.1254 -81.5197 0.249995 -81.5197Z"></path>
    <path fill="#D7D7D7" transform="matrix(0.192776 -0.197383 0.433955 0.423827 486.778 201.321)" d="M11.5671 -77.0972C58.0971 -77.0972 97.5959 -41.1452 97.5959 -6.17883e-06C97.5959 41.1452 73.4188 83.0524 26.8888 83.0524C-35.4866 83.0524 11.8086 60.12 11.8086 -7.45716e-06C11.8086 -41.1452 -34.9629 -77.0972 11.5671 -77.0972Z"></path>
    <path fill="#D7D7D7" transform="matrix(0.192776 -0.197383 0.179346 0.175161 530.048 263.981)" d="M48.93 -79.7643C80.6763 -79.053 77.4946 -42.8889 62.8508 4.00556C48.2069 50.9001 -0.0393867 91.2962 -20.4536 67.7769C-40.8678 44.2575 -16.8141 31.8031 -0.458961 -5.1389C15.8962 -42.0809 17.1838 -80.4756 48.93 -79.7643Z"></path>
  </g>
  <path fill="#D7D7D7" transform="matrix(1.34311 0 0 1.34311 357.39 353.187)" d="M0.188843 -0.9991C17.4613 -6.81518 30.1013 -11.9066 46.9583 36.7497C54.9272 60.9599 52.4922 77.1741 42.4755 80.3898C32.4588 83.6056 24.3369 86.5517 14.6086 90.0358C4.81184 93.4666 -7.69091 80.0685 -15.6597 55.8583C-33.515 5.2124 -17.0836 4.81699 0.188843 -0.9991Z"></path>
  <path fill="#D7D7D7" transform="matrix(1.75232 0.0285905 -0.0285905 1.75232 371.065 124.67)" d="M-9.53674e-07 -22.5C14.6355 -22.5 26.5 -12.3145 26.5 0.25C26.5 12.8145 14.6355 23 -9.53674e-07 23C-14.6355 23 -26.5 12.8145 -26.5 0.25C-26.5 -12.3145 -14.6355 -22.5 -9.53674e-07 -22.5Z"></path>
  <path fill="none" stroke="#D7D7D7" stroke-width="7" stroke-linecap="round" stroke-linejoin="round" transform="matrix(2.09669 0 0 2.07948 298.299 291.353)" d="M25.1576 -27.7779C25.5731 -23.0361 26.2892 -15.9414 27.4596 -4.57143C33.5245 22.7119 46.9085 37.9435 24.4145 49.5773C10.2469 56.7907 -20.4665 34.9058 -26.5553 7.51427C-29.886 -17.9805 -18.1382 -41.9041 -4.78767 -53.2981"></path>
  <path fill="#D7D7D7" transform="matrix(2.09669 0 0 2.07948 298.299 291.353)" d="M14.8848 -59.578C18.3145 -55.1296 24.6443 -40.068 24.6544 -36.1404C24.6645 -32.2128 25.2591 -25.9481 27.4596 -4.57143C33.5245 22.7119 46.9085 37.9435 24.4145 49.5773C10.2469 56.7907 -20.4665 34.9058 -26.5553 7.51427C-31.5638 -30.8228 -2.47685 -65.6072 14.8848 -59.578Z"></path>
  <path fill="#D7D7D7" transform="matrix(1.63266 0 0 2.03602 302.184 285.791)" d="M15.8239 -53.1606C37.9829 -52.6472 28.5314 -29.7379 25.3295 -4.5068C27.1833 22.5689 46.7229 39.9675 33.7094 46.6662C20.6959 53.3648 -17.7018 33.4438 -26.818 6.99754C-32.7583 -23.4924 -6.33504 -53.6739 15.8239 -53.1606Z"></path>
  <path fill="#312F2F" transform="matrix(0.528975 -0.0130023 0.0155034 0.630729 346.54 356.084)" d="M2.38419e-07 -128C70.6924 -128 128 -70.6924 128 0C128 70.6924 70.6924 128 -2.38419e-07 128C-70.6924 128 -128 70.6924 -128 0C-128 -70.6924 -70.6924 -128 2.38419e-07 -128Z"></path>
  <path fill="none" stroke="black" stroke-width="7" stroke-miterlimit="4" transform="matrix(1.00146 0 0 1.00146 343 256)" d="M13.5193 19.0288C50.8593 18.1109 82.0165 53.4598 83.1109 97.9826C84.2053 142.505 54.8224 179.342 17.4824 180.26C-19.8576 181.178 -51.0149 145.829 -52.1092 101.306C-53.2036 56.7835 -23.8207 19.9466 13.5193 19.0288Z"></path>
  <path fill="none" stroke="black" stroke-width="7" stroke-linejoin="round" transform="matrix(1.00146 0 0 1.00146 343 256)" d="M13.5193 19.0288C13.5193 19.0288 3.94546 19.2641 2.01494 19.3116C-28.2516 20.8771 -65.5575 41.3133 -64.0756 101.6C-62.5937 161.888 -17.7254 181.125 5.51601 180.554C7.44652 180.507 17.4824 180.26 17.4824 180.26C16.9551 180.273 16.3892 180.265 15.7878 180.235"></path>
  <path fill="#DEDEDE" transform="matrix(0.528975 -0.0130023 0.0155034 0.630729 358.523 355.79)" d="M2.38419e-07 -128C70.6924 -128 128 -70.6924 128 0C128 70.6924 70.6924 128 -2.38419e-07 128C-70.6924 128 -128 70.6924 -128 0C-128 -70.6924 -70.6924 -128 2.38419e-07 -128Z"></path>
  <clipPath id="cl_60">
    <path d="M356.539 275.057C393.934 274.137 425.136 309.538 426.232 354.126C427.328 398.713 397.902 435.604 360.508 436.523C323.113 437.442 291.911 402.042 290.815 357.454C289.719 312.866 319.145 275.976 356.539 275.057Z"></path>
  </clipPath>
  <g clip-path="url(#cl_60)">
    <path fill="#F2F1F1" transform="matrix(0.504546 0.195536 -0.159648 0.599795 354.187 384.033)" d="M-170.753 -28.5017L169.944 -28.5017L169.944 28.5017L-170.753 28.5017L-170.753 -28.5017Z"></path>
    <path fill="#F2F1F1" transform="matrix(0.504546 0.195536 -0.159648 0.599795 347.076 406.876)" d="M-170.753 -5.22018L169.944 -5.22017L169.944 5.22015L-170.753 5.22014L-170.753 -5.22018Z"></path>
  </g>
  <path fill="#8B8B8B" transform="matrix(0.528975 -0.0130023 0.0155034 0.630729 361.946 355.075)" d="M0.25 -87.5C51.4744 -87.5 93 -48.4368 93 -0.25C93 47.9368 51.4744 87 0.25 87C-50.9744 87 -92.5 47.9368 -92.5 -0.25C-92.5 -48.4368 -50.9744 -87.5 0.25 -87.5Z"></path>
  <path fill="#B0AFAF" transform="matrix(0.528975 -0.0130023 0.0155034 0.630729 358.523 355.79)" d="M1.60187e-07 -86C47.4965 -86 86 -47.4965 86 0C86 47.4965 47.4965 86 -1.60187e-07 86C-47.4965 86 -86 47.4965 -86 0C-86 -47.4965 -47.4965 -86 1.60187e-07 -86Z"></path>
  <path fill="#8B8B8B" transform="matrix(0.528975 -0.0130023 0.0155034 0.630729 358.726 353.26)" d="M-52.3281 27.625L-52.3281 -27.668L-46.756 -30.4056L-46.7825 24.7561L-42.4192 24.6237L-47.1315 27.6684L-52.3281 27.625ZM-50.25 21.3164C-54.7526 21.3164 -58.6058 20.4196 -61.8096 18.626C-65.0134 16.8323 -67.4626 14.3336 -69.1572 11.1299C-70.8519 7.92609 -71.6992 4.1966 -71.6992 -0.0586071C-71.6992 -4.31382 -70.8519 -8.04331 -69.1572 -11.2471C-67.4626 -14.4509 -65.0134 -16.9496 -61.8096 -18.7432C-58.6058 -20.5368 -54.7526 -21.4336 -50.25 -21.4336C-47.3802 -21.4336 -44.7826 -21.0625 -42.457 -20.3203C-40.1315 -19.5781 -38.1091 -18.5205 -36.3897 -17.1475C-34.6702 -15.7744 -27.78 -10.4694 -25.0591 -8.68547C-26.0599 -7.96245 -28.21 -6.90541 -30.3965 -5.66212C-30.3965 -5.66212 -44.0898 -3.62111 -44.0898 -3.62111C-44.0898 -3.62111 -44.5166 -5.66831 -44.8506 -6.49708C-45.1846 -7.32586 -45.599 -8.02475 -46.0938 -8.59376C-46.5885 -9.16277 -47.1637 -9.58953 -47.8193 -9.87403C-48.4749 -10.1585 -49.2109 -10.3008 -50.0273 -10.3008C-51.3385 -10.3008 -52.4766 -9.9297 -53.4414 -9.18751C-54.4062 -8.44532 -55.1546 -7.31968 -55.6865 -5.81056C-56.2184 -4.30145 -56.4844 -2.40887 -56.4844 -0.132826C-56.4844 2.11848 -56.2184 4.01105 -55.6865 5.54491C-55.1546 7.07876 -54.4062 8.23534 -53.4414 9.01464C-52.4766 9.79393 -51.3385 10.1836 -50.0273 10.1836C-49.2109 10.1836 -48.4749 10.0351 -47.8193 9.73827C-47.1637 9.44139 -46.5824 9.00226 -46.0752 8.42089C-45.568 7.8395 -45.8968 6.99336 -44.8135 6.24999C-43.7302 5.50661 -38.8902 1.52307 -38.7417 0.409784C-38.7417 0.409784 -30.3965 5.28514 -30.3965 5.28514C-30.3965 5.28514 -31.2747 9.97948 -32.2891 11.9463C-33.3034 13.9131 -34.6641 15.5954 -36.3711 16.9931C-38.0781 18.3909 -40.1006 19.4609 -42.4385 20.2031C-44.7764 20.9453 -47.3802 21.3164 -50.25 21.3164ZM-24.5332 27.625L-24.5332 16.8633L-3.90039 -0.207029C-3.90039 -0.207029 -1.36459 -2.41504 -0.375004 -3.41699C0.61458 -4.41894 1.37532 -5.45182 1.90722 -6.51562C2.43912 -7.57943 2.70507 -8.76693 2.70507 -10.0781C2.70507 -11.4883 2.40201 -12.6943 1.79589 -13.6963C1.18978 -14.6982 0.360998 -15.4714 -0.690434 -16.0156C-1.74187 -16.5599 -2.96029 -16.832 -4.34571 -16.832C-5.73112 -16.832 -6.94955 -16.5537 -8.00098 -15.9971C-9.05241 -15.4404 -6.2922 -13.7058 -5.86801 -12.6284C-7.10779 -11.907 -9.37628 -10.5827 -11.3223 -9.63281C-11.3223 -9.63281 -25.5723 -9.63281 -25.5723 -9.63281C-25.5723 -9.63281 -24.7002 -16.8568 -22.9561 -19.6523C-21.2119 -22.4479 -18.7441 -24.6064 -15.5527 -26.1279C-12.3613 -27.6494 -8.62565 -28.4102 -4.34571 -28.4102C0.0826778 -28.4102 3.91731 -27.7051 7.1582 -26.2949C10.3991 -24.8848 12.904 -22.8994 14.6728 -20.3389C16.4417 -17.7783 17.3262 -14.7786 17.3262 -11.3398C17.3262 -9.21224 16.887 -7.10318 16.0088 -5.01269C15.1305 -2.9222 13.5534 -0.602863 11.2773 1.94531C9.0013 4.49349 5.74804 7.51172 1.51757 11C1.51757 11 -3.67774 15.3047 -3.67774 15.3047L-3.67774 15.6758L17.9199 15.6758L23.3601 24.6527L17.9199 27.625L-24.5332 27.625ZM45.3066 28.3672C41.0514 28.3672 37.2786 27.6188 33.9883 26.1221C30.6979 24.6253 28.1126 22.5534 26.2324 19.9062C24.3522 17.2591 23.3874 14.2161 23.3379 10.7773C23.3379 10.7773 28.8025 7.82547 28.8025 7.82547L37.959 10.7773C37.959 10.7773 38.293 13.14 38.9609 14.0801C39.6289 15.0202 40.5195 15.7438 41.6328 16.251C42.7461 16.7581 43.9707 17.0117 45.3066 17.0117C46.8405 17.0117 48.1826 16.6839 49.333 16.0283C50.4834 15.3727 51.3864 14.4512 52.042 13.2637C52.6976 12.0762 53.0254 10.6784 53.0254 9.07031C53.0254 7.4375 52.6976 6.02116 52.042 4.82129C51.3864 3.62142 50.4834 2.69369 49.333 2.03809C48.1826 1.38249 46.8405 1.05469 45.3066 1.05469C43.6986 1.05469 43.4422 2.31534 43.4422 2.31534C43.4422 2.31534 38.6022 4.02344 37.959 5.35938C37.959 5.35938 24.748 2.76172 24.748 2.76172L26.9004 -27.668L32.366 -30.6324L64.084 -27.668L69.5014 -18.6128L64.084 -15.6445L39.2207 -15.6445L38.1816 -3.47265L38.4785 -3.47265C38.4785 -3.47265 40.8411 -6.54036 42.9687 -7.6289C45.0963 -8.71744 47.5579 -9.26171 50.3535 -9.26171C52.8027 -9.26171 55.0726 -8.82877 57.1631 -7.96289C59.2536 -7.097 61.0719 -5.86621 62.6182 -4.27051C64.1644 -2.6748 65.3643 -0.782225 66.2178 1.40723C67.0713 3.59668 67.498 6.00261 67.498 8.625C67.498 12.4844 66.5827 15.8984 64.7519 18.8672C62.9212 21.8359 60.3421 24.1615 57.0146 25.8438C53.6872 27.526 49.7845 28.3672 45.3066 28.3672Z"></path>
  <path fill="#DEDEDE" transform="matrix(0.528975 -0.0130023 0.0155034 0.630729 361.309 350.673)" d="M-51.8282 28.625L-51.8282 -26.668L-47.375 -26.668L-47.375 28.625L-51.8282 28.625ZM-49.75 22.3164C-54.2526 22.3164 -58.1058 21.4196 -61.3096 19.626C-64.5134 17.8324 -66.9626 15.3337 -68.6573 12.1299C-70.3519 8.92611 -71.1992 5.19662 -71.1992 0.941408C-71.1992 -3.3138 -70.3519 -7.04329 -68.6573 -10.2471C-66.9626 -13.4508 -64.5134 -15.9495 -61.3096 -17.7432C-58.1058 -19.5368 -54.2526 -20.4336 -49.75 -20.4336C-46.8802 -20.4336 -44.2826 -20.0625 -41.9571 -19.3203C-39.6315 -18.5781 -37.6091 -17.5205 -35.8897 -16.1475C-34.1703 -14.7744 -32.8034 -13.1169 -31.7891 -11.1748C-30.7748 -9.23274 -30.1439 -7.06185 -29.8965 -4.66211C-29.8965 -4.66211 -43.5899 -2.62109 -43.5899 -2.62109C-43.5899 -2.62109 -44.0166 -4.66829 -44.3506 -5.49707C-44.6846 -6.32584 -45.099 -7.02474 -45.5938 -7.59375C-46.0886 -8.16275 -46.6638 -8.58951 -47.3194 -8.87402C-47.975 -9.15853 -48.711 -9.30078 -49.5274 -9.30078C-50.8386 -9.30078 -51.9766 -8.92968 -52.9414 -8.1875C-53.9063 -7.44531 -54.6547 -6.31966 -55.1866 -4.81054C-55.7185 -3.30143 -55.9844 -1.40885 -55.9844 0.867189C-55.9844 3.11849 -55.7185 5.01107 -55.1866 6.54492C-54.6547 8.07878 -53.9063 9.23535 -52.9414 10.0147C-51.9766 10.7939 -50.8386 11.1836 -49.5274 11.1836C-48.711 11.1836 -47.975 11.0352 -47.3194 10.7383C-46.6638 10.4414 -46.0824 10.0023 -45.5752 9.4209C-45.0681 8.83952 -44.6475 8.11589 -44.3135 7.25C-43.9795 6.38412 -43.7383 5.39453 -43.5899 4.28125C-43.5899 4.28125 -29.8965 6.28516 -29.8965 6.28516C-29.8965 6.28516 -30.7748 10.9795 -31.7891 12.9463C-32.8034 14.9131 -34.1641 16.5954 -35.8711 17.9932C-37.5782 19.391 -39.6006 20.4609 -41.9385 21.2031C-44.2764 21.9453 -46.8802 22.3164 -49.75 22.3164ZM-24.0332 28.625L-24.0332 17.8633L-3.4004 0.792971C-3.4004 0.792971 -0.864595 -1.41504 0.124989 -2.41699C1.11457 -3.41894 1.87531 -4.45182 2.40722 -5.51562C2.93912 -6.57943 3.20507 -7.76693 3.20507 -9.07812C3.20507 -10.4883 2.90201 -11.6943 2.29589 -12.6963C1.68977 -13.6982 0.860991 -14.4714 -0.190441 -15.0156C-1.24187 -15.5599 -2.4603 -15.832 -3.84571 -15.832C-5.23113 -15.832 -6.44956 -15.5537 -7.50099 -14.9971C-8.55242 -14.4404 -9.36883 -13.6302 -9.95021 -12.5664C-10.5316 -11.5026 -10.8223 -10.1914 -10.8223 -8.63281C-10.8223 -8.63281 -25.0723 -8.63281 -25.0723 -8.63281C-25.0723 -8.63281 -24.2002 -15.8568 -22.4561 -18.6523C-20.7119 -21.4479 -18.2442 -23.6064 -15.0527 -25.1279C-11.8613 -26.6494 -8.12566 -27.4102 -3.84571 -27.4102C0.58267 -27.4102 4.41731 -26.7051 7.65819 -25.2949C10.8991 -23.8848 13.404 -21.8994 15.1728 -19.3389C16.9417 -16.7783 17.8262 -13.7786 17.8262 -10.3398C17.8262 -8.21224 17.387 -6.10318 16.5088 -4.01269C15.6305 -1.9222 14.0534 0.397137 11.7773 2.94531C9.50129 5.49349 6.24803 8.51172 2.01757 12C2.01757 12 -3.17775 16.3047 -3.17775 16.3047L-3.17775 16.6758L18.4199 16.6758L18.4199 28.625L-24.0332 28.625ZM45.8066 29.3672C41.5514 29.3672 37.7786 28.6188 34.4883 27.1221C31.1979 25.6253 28.6126 23.5534 26.7324 20.9062C24.8522 18.2591 23.8874 15.2161 23.8379 11.7773C23.8379 11.7773 38.459 11.7773 38.459 11.7773C38.459 11.7773 38.793 14.14 39.4609 15.0801C40.1289 16.0202 41.0195 16.7438 42.1328 17.251C43.2461 17.7581 44.4707 18.0117 45.8066 18.0117C47.3405 18.0117 48.6826 17.6839 49.833 17.0283C50.9834 16.3727 51.8864 15.4512 52.542 14.2637C53.1976 13.0762 53.5254 11.6784 53.5254 10.0703C53.5254 8.43749 53.1976 7.02114 52.542 5.82128C51.8864 4.62141 50.9834 3.69367 49.833 3.03807C48.6826 2.38247 47.3405 2.05467 45.8066 2.05467C44.1986 2.05467 42.7327 2.43814 41.4092 3.20506C40.0856 3.97199 39.1022 5.02342 38.459 6.35936C38.459 6.35936 25.248 3.76171 25.248 3.76171L27.4004 -26.668L64.584 -26.668L64.584 -14.6445L39.7207 -14.6445L38.6816 -2.47267L38.9785 -2.47267C38.9785 -2.47267 41.3411 -5.54038 43.4687 -6.62892C45.5964 -7.71746 48.0579 -8.26173 50.8535 -8.26173C53.3027 -8.26173 55.5726 -7.82878 57.6631 -6.9629C59.7536 -6.09702 61.5719 -4.86622 63.1182 -3.27052C64.6644 -1.67482 65.8643 0.21776 66.7178 2.40721C67.5713 4.59667 67.998 7.00259 67.998 9.62499C67.998 13.4844 67.0827 16.8984 65.2519 19.8672C63.4212 22.8359 60.8421 25.1614 57.5146 26.8437C54.1872 28.526 50.2845 29.3672 45.8066 29.3672Z"></path>
  <clipPath id="cl_62">
    <path d="M334.337 369.401L333.48 334.526L335.835 334.468L336.692 369.343L334.337 369.401ZM335.338 365.395C332.957 365.454 330.904 364.938 329.182 363.848C327.459 362.759 326.125 361.215 325.179 359.216C324.233 357.217 323.727 354.876 323.661 352.192C323.595 349.508 323.985 347.145 324.832 345.102C325.679 343.059 326.936 341.452 328.602 340.279C330.269 339.106 332.294 338.49 334.676 338.431C336.194 338.394 337.573 338.594 338.815 339.032C340.057 339.47 341.143 340.111 342.074 340.955C343.005 341.798 343.753 342.826 344.32 344.038C344.887 345.249 345.254 346.61 345.422 348.121C345.422 348.121 338.21 349.586 338.21 349.586C338.21 349.586 337.953 348.3 337.763 347.782C337.574 347.264 337.344 346.828 337.073 346.476C336.803 346.123 336.492 345.862 336.14 345.691C335.789 345.52 335.398 345.44 334.966 345.45C334.272 345.467 333.676 345.716 333.177 346.197C332.678 346.677 332.3 347.397 332.042 348.356C331.784 349.315 331.673 350.512 331.708 351.947C331.743 353.367 331.913 354.558 332.218 355.518C332.523 356.479 332.937 357.198 333.459 357.677C333.982 358.156 334.59 358.387 335.283 358.37C335.715 358.36 336.102 358.257 336.445 358.061C336.787 357.865 337.087 357.58 337.347 357.207C337.606 356.834 337.817 356.372 337.98 355.822C338.144 355.271 338.256 354.644 338.317 353.94C338.317 353.94 345.592 355.026 345.592 355.026C345.592 355.026 345.2 357.998 344.694 359.251C344.188 360.505 343.494 361.584 342.613 362.488C341.732 363.392 340.678 364.093 339.453 364.591C338.228 365.09 336.856 365.358 335.338 365.395ZM349.04 369.04L348.873 362.252L359.522 351.217C359.522 351.217 360.83 349.791 361.337 349.146C361.845 348.502 362.232 347.84 362.497 347.162C362.762 346.484 362.884 345.732 362.863 344.905C362.842 344.016 362.663 343.259 362.326 342.635C361.99 342.011 361.54 341.534 360.975 341.204C360.411 340.875 359.762 340.719 359.029 340.737C358.296 340.755 357.656 340.946 357.108 341.311C356.561 341.676 356.142 342.197 355.851 342.876C355.56 343.554 355.426 344.385 355.45 345.368C355.45 345.368 347.912 345.554 347.912 345.554C347.912 345.554 348.262 340.986 349.141 339.2C350.02 337.414 351.292 336.02 352.957 335.019C354.621 334.018 356.586 333.49 358.85 333.434C361.192 333.377 363.231 333.771 364.968 334.619C366.704 335.466 368.06 336.686 369.035 338.278C370.01 339.87 370.525 341.75 370.578 343.919C370.611 345.261 370.411 346.597 369.979 347.927C369.547 349.257 368.749 350.74 367.584 352.377C366.42 354.014 364.746 355.96 362.562 358.215C362.562 358.215 359.881 360.998 359.881 360.998L359.886 361.232L371.311 360.951L371.496 368.488L349.04 369.04ZM385.995 368.6C383.744 368.655 381.736 368.232 379.973 367.331C378.209 366.43 376.809 365.156 375.774 363.511C374.738 361.866 374.181 359.959 374.101 357.791C374.101 357.791 381.835 357.601 381.835 357.601C381.835 357.601 382.049 359.087 382.416 359.671C382.784 360.255 383.267 360.7 383.863 361.005C384.46 361.311 385.112 361.455 385.819 361.437C386.63 361.418 387.335 361.193 387.933 360.765C388.532 360.336 388.995 359.743 389.323 358.986C389.652 358.228 389.803 357.342 389.779 356.328C389.753 355.298 389.558 354.409 389.192 353.661C388.827 352.913 388.335 352.339 387.716 351.941C387.098 351.542 386.383 351.353 385.571 351.373C384.721 351.394 383.951 351.655 383.263 352.156C382.575 352.657 382.071 353.333 381.751 354.184C381.751 354.184 374.723 352.717 374.723 352.717L375.389 333.496L395.059 333.013L395.245 340.596L382.093 340.919L381.732 348.61L381.889 348.606C381.889 348.606 383.091 346.641 384.2 345.926C385.308 345.212 386.602 344.837 388.081 344.8C389.377 344.769 390.584 345.012 391.703 345.531C392.822 346.05 393.803 346.803 394.646 347.789C395.489 348.775 396.153 349.953 396.638 351.323C397.124 352.693 397.387 354.205 397.427 355.859C397.487 358.293 397.056 360.459 396.133 362.355C395.211 364.251 393.883 365.752 392.149 366.856C390.415 367.96 388.363 368.541 385.995 368.6Z"></path>
  </clipPath>
  <g clip-path="url(#cl_62)">
    <path fill="#F2F1F1" transform="matrix(0.504546 0.195536 -0.159648 0.599795 354.187 384.033)" d="M-170.753 -28.5017L169.944 -28.5017L169.944 28.5017L-170.753 28.5017L-170.753 -28.5017Z"></path>
    <path fill="#F2F1F1" transform="matrix(0.504546 0.195536 -0.159648 0.599795 347.076 406.876)" d="M-170.753 -5.22018L169.944 -5.22017L169.944 5.22015L-170.753 5.22014L-170.753 -5.22018Z"></path>
  </g>
  <path fill="#8E8B8B" transform="matrix(0.630729 -0.0155034 0.0155034 0.630729 356.539 275.057)" d="M0 1.14441e-05C0 1.14441e-05 -15.2012 1.52588e-05 -18.2664 7.62939e-06C-66.3551 1.30371 -126.35 32.2772 -126.35 128C-126.35 223.723 -55.9022 256 -19 256C-15.9348 256 1.90735e-06 256 -1.90735e-06 256C-25.5439 256 -107.35 223.723 -107.35 128C-107.35 32.2772 -25.5438 9.53674e-06 0 1.14441e-05Z"></path>
  <clipPath id="cl_64">
    <path d="M356.539 275.057C356.539 275.057 346.951 275.292 345.018 275.34C314.707 276.908 277.347 297.374 278.831 357.749C280.315 418.124 325.249 437.39 348.524 436.818C350.457 436.77 360.508 436.523 360.508 436.523C344.397 436.919 292.299 417.829 290.815 357.454C289.331 297.079 340.428 275.453 356.539 275.057Z"></path>
  </clipPath>
  <g clip-path="url(#cl_64)">
    <path fill="#ACABAB" transform="matrix(0.528975 -0.0130023 0.0155034 0.630729 315.122 392.451)" d="M-105.5 -40.8039L105 -40.8039L105 40.8039L-105.5 40.8039L-105.5 -40.8039Z"></path>
    <path fill="#D6D6D6" transform="matrix(0.528975 -0.0130023 0.0155034 0.630729 311.057 387.565)" d="M-105.5 -7.02949L105 -7.02949L105 7.02943L-105.5 7.02943L-105.5 -7.02949Z"></path>
    <path fill="#D6D6D6" transform="matrix(0.530479 -0.0130393 0.0154595 0.628941 332.415 359.587)" d="M-137.32 -30.4789L136.67 -30.4789L136.67 30.4789L-137.32 30.4789L-137.32 -30.4789Z"></path>
  </g>
  <path fill="#D7D7D7" transform="matrix(0.590878 0.00964063 -0.00964063 0.590878 345.085 92.8093)" d="M4.23752e-08 -22.5C14.6355 -22.5 26.5 -12.3144 26.5 0.250031C26.5 12.8145 14.6355 23 -4.23752e-08 23C-14.6355 23 -26.5 12.8145 -26.5 0.25003C-26.5 -12.3144 -14.6355 -22.5 4.23752e-08 -22.5Z"></path>
  <path fill="#D7D7D7" transform="matrix(0.491629 0.00802131 -0.00802131 0.491629 330.042 103.225)" d="M1.90735e-06 -22.5C14.6355 -22.5 26.5 -12.3144 26.5 0.250031C26.5 12.8145 14.6355 23 1.90735e-06 23C-14.6355 23 -26.5 12.8145 -26.5 0.250031C-26.5 -12.3144 -14.6355 -22.5 1.90735e-06 -22.5Z"></path>
  <path fill="#D7D7D7" transform="matrix(0.267049 0.00435711 -0.00435711 0.267049 311.671 71.3024)" d="M1.52588e-05 -22.4261C14.2962 -22.4261 25.8855 -12.274 25.8855 0.249329C25.8855 12.7726 14.2962 22.9247 1.52588e-05 22.9247C-14.2961 22.9247 -25.8855 12.7726 -25.8855 0.249329C-25.8855 -12.274 -14.2961 -22.4261 1.52588e-05 -22.4261Z"></path>
  <path fill="#D7D7D7" transform="matrix(0.0718703 -0.111803 0.256925 0.165159 308.303 68.7708)" d="M0 -11.5C14.6355 -11.5 28.0061 -7.98328 28.0061 -1.63201C28.0061 4.71927 15.5059 0.400186 0.870357 0.400186C-13.7652 0.400184 -26.766 4.37689 -26.766 -1.97439C-26.766 -8.32566 -14.6355 -11.5 0 -11.5Z"></path>
  <path fill="#D7D7D7" transform="matrix(-0.162443 -0.555435 0.857234 -0.250708 330.245 128.905)" d="M0 -11.5C14.6355 -11.5 28.0061 -7.98328 28.0061 -1.632C28.0061 4.71927 15.5059 0.40019 0.870357 0.40019C-13.7652 0.400188 -26.766 4.37689 -26.766 -1.97438C-26.766 -8.32566 -14.6355 -11.5 0 -11.5Z"></path>
  <path fill="#D7D7D7" transform="matrix(1.7396 -0.212721 0.0638164 0.521879 368.16 102.154)" d="M-1.89804e-06 -2.49997C1.38071 -2.49997 2.5 -1.38068 2.5 3.05176e-05C2.5 1.38074 1.38071 2.50003 -1.91666e-06 2.50003C-1.38071 2.50003 -2.5 1.38074 -2.5 3.05176e-05C-2.5 -1.38068 -1.38071 -2.49997 -1.89804e-06 -2.49997Z"></path>
  <path fill="none" stroke="#D7D7D7" stroke-width="0.5" stroke-linecap="round" stroke-linejoin="round" transform="matrix(1.7359 -0.241072 0.241072 1.7359 376.576 101.072)" d="M1.98548 0.277981C2.99638 0.254547 6.02909 0.184244 6.02909 0.184244"></path>
  <path fill="#D7D7D7" transform="matrix(1.7396 -0.212721 0.0638164 0.521879 395.993 98.7507)" d="M9.31323e-09 -2.5C1.38071 -2.5 2.5 -1.38071 2.5 0C2.5 1.38071 1.38071 2.5 -9.31323e-09 2.5C-1.38071 2.5 -2.5 1.38071 -2.5 0C-2.5 -1.38071 -1.38071 -2.5 9.31323e-09 -2.5Z"></path>
  <path fill="#D7D7D7" transform="matrix(1.42645 -0.861678 0.905069 0.706104 387.987 92.0014)" d="M0 -2.5C1.38071 -2.5 2.5 -1.38071 2.5 0C2.5 1.38071 1.38071 2.5 0 2.5C-1.38071 2.5 -2.5 1.38071 -2.5 0C-2.5 -1.38071 -1.38071 -2.5 0 -2.5Z"></path>
  <path fill="#D7D7D7" transform="matrix(2.10554 0.289111 -0.613236 1.04501 372.436 92.9162)" d="M3.8147e-06 -2.98532C1.68306 -2.98532 3.04744 -1.64874 3.04744 1.52588e-05C3.04744 1.64877 1.68306 2.98535 3.8147e-06 2.98535C-1.68305 2.98535 -3.04744 1.64877 -3.04744 1.52588e-05C-3.04744 -1.64874 -1.68305 -2.98532 3.8147e-06 -2.98532Z"></path>
  <path fill="none" stroke="white" stroke-width="5" stroke-linecap="round" stroke-linejoin="round" transform="matrix(1.50219 0 0 1.50219 258.877 362.655)" d=""></path>
  <path fill="none" stroke="white" stroke-width="5" stroke-linecap="round" stroke-linejoin="round" transform="matrix(1.11139 0 0 1.11139 243.355 245.985)" d=""></path>
</svg>