<?xml version="1.0" encoding="utf-8"?>
<svg xmlns="http://www.w3.org/2000/svg" xmlns:xlink="http://www.w3.org/1999/xlink" width="686" height="512">
  <path fill="none" stroke="black" stroke-width="7" stroke-linejoin="round" transform="matrix(1.75255 0 0 1.75255 401.282 414.526)" d="M0.250546 -46.2559C18.4757 -46.1632 31.0667 -38.843 31.1609 5.44638C31.664 34.4594 24.3795 44.5238 13.8612 44.3214C3.34288 44.119 -5.29534 44.2752 -15.6278 44.4202C-26.0911 44.3864 -31.5415 33.2806 -32.0443 4.25452C-32.4387 -42.2403 -17.9746 -46.3487 0.250546 -46.2559Z"></path>
  <path fill="none" stroke="black" stroke-width="7" stroke-linejoin="round" transform="matrix(-2.09669 -3.16894e-07 -3.14293e-07 2.07948 542.657 281.944)" d="M18.4249 -58.663C21.7945 -54.1681 27.9211 -39.0213 27.8783 -35.094C27.8355 -31.1666 32.2355 -22.2521 30.9557 2.08302C29.7398 30.9469 25.3067 54.0363 0.0424271 53.1161C-15.8146 52.4371 -27.2875 28.5047 -26.0716 -0.359159C-24.5472 -36.5461 1.14602 -64.9291 18.4249 -58.663Z"></path>
  <path fill="none" stroke="black" stroke-width="7" stroke-linejoin="round" transform="matrix(1.75232 0.0285905 -0.0285905 1.75232 455.316 283.079)" d="M0.209618 -80.0966C37.3348 -80.0966 84.5 -60 84.5 -9.53674e-07C84.5 41.1452 46.7396 76.2788 0.209618 76.2788C-62.1658 76.2788 -84 60.12 -84 -9.53674e-07C-84 -71.2881 -50.5087 -80.0966 0.209618 -80.0966Z"></path>
  <path fill="none" stroke="black" stroke-width="7" stroke-linejoin="round" transform="matrix(1.49621 0 0 1.75255 496.796 403.135)" d="M-0.416443 -47.8545C17.8051 -48.1752 33.3414 -41.5383 34.3475 8.02884C35.0653 21.8707 29.3623 45.6798 15.6843 45.7365C2.00621 45.7931 -4.12936 45.8186 -16.3313 45.8691C-28.5332 45.9197 -30.9207 23.0319 -31.6386 9.19001C-33.0083 -42.5619 -18.638 -47.5339 -0.416443 -47.8545Z"></path>
  <path fill="#6C88D9" transform="matrix(-2.09669 -3.16894e-07 -3.14293e-07 2.07948 542.657 281.944)" d="M18.4249 -58.663C21.7945 -54.1681 27.9211 -39.0213 27.8783 -35.094C27.8355 -31.1666 32.2355 -22.2521 30.9557 2.08302C29.7398 30.9469 25.3067 54.0363 0.0424347 53.1161C-15.8146 52.4371 -27.2874 28.5047 -26.0716 -0.359159C-24.5472 -36.5461 1.14603 -64.9291 18.4249 -58.663Z"></path>
  <path fill="#5170C8" transform="matrix(1.49621 0 0 1.75255 496.796 403.135)" d="M-0.416443 -47.8545C17.8051 -48.1752 33.3414 -41.5383 34.3475 8.02884C35.0653 21.8707 29.3623 45.6798 15.6843 45.7365C2.00621 45.7931 -4.12936 45.8186 -16.3313 45.8691C-28.5332 45.9197 -30.9207 23.0319 -31.6386 9.19001C-33.0083 -42.5619 -18.638 -47.5339 -0.416443 -47.8545Z"></path>
  <path fill="#839BE0" transform="matrix(1.17156 0 0 1.37229 496.796 403.135)" d="M-0.225052 -48.4107C17.9965 -48.7313 32.9832 -42.0011 34.2247 12.0553C34.1507 29.9901 25.5322 45.2046 11.8541 45.2613C-1.82391 45.318 -1.64876 45.3678 -13.8507 45.4184C-26.0526 45.4689 -31.8354 31.1512 -31.7613 13.2164C-33.3667 -43.0248 -18.4466 -48.09 -0.225052 -48.4107Z"></path>
  <path fill="#6C88D9" transform="matrix(1.75255 0 0 1.75255 401.282 414.526)" d="M0.250546 -46.2559C18.4757 -46.1632 31.0667 -38.843 31.1609 5.44638C31.664 34.4594 24.3795 44.5238 13.8612 44.3214C3.34288 44.119 -5.29534 44.2752 -15.6278 44.4202C-26.0911 44.3864 -31.5415 33.2806 -32.0443 4.25452C-32.4387 -42.2403 -17.9746 -46.3487 0.250546 -46.2559Z"></path>
  <path fill="#91A8EB" transform="matrix(-1.63266 -2.46762e-07 -3.07725e-07 2.03602 538.772 276.382)" d="M20.2864 -52.2365C42.4347 -51.4821 34.2247 -26.9093 31.077 1.60099C27.9294 30.1112 14.8084 53.0388 -0.641647 52.5126C-16.0917 51.9863 -26.9984 28.3127 -25.4786 -0.380267C-23.9589 -29.0732 -1.86185 -52.9908 20.2864 -52.2365Z"></path>
  <path fill="none" stroke="black" stroke-width="7" stroke-miterlimit="4" transform="matrix(1.75232 0.0285905 -0.0285905 1.75232 414.957 124.67)" d="M3.8147e-06 -29.5C19.0538 -29.5 34.5 -16.1805 34.5 0.25C34.5 16.6805 19.0538 30 3.8147e-06 30C-19.0538 30 -34.5 16.6805 -34.5 0.25C-34.5 -16.1805 -19.0538 -29.5 3.8147e-06 -29.5Z"></path>
  <path fill="#6C88D9" transform="matrix(1.75232 0.0285905 -0.0285905 1.75232 455.316 283.079)" d="M0.209618 -80.0966C37.3348 -80.0966 84.5 -60 84.5 -9.53674e-07C84.5 41.1452 46.7396 76.2788 0.209618 76.2788C-62.1658 76.2788 -84 60.12 -84 -9.53674e-07C-84 -71.2881 -50.5087 -80.0966 0.209618 -80.0966Z"></path>
  <path fill="none" stroke="black" stroke-width="9" stroke-miterlimit="4" transform="matrix(1.00146 0 0 1.00146 343 256)" d="M46.2736 -187.35C60.6456 -187.115 72.1325 -176.879 71.9303 -164.485C71.7281 -152.092 59.9134 -142.236 45.5414 -142.47C31.1694 -142.705 19.6826 -152.941 19.8848 -165.335C20.087 -177.728 31.9017 -187.584 46.2736 -187.35Z"></path>
  <path fill="none" stroke="black" stroke-width="9" stroke-miterlimit="4" transform="matrix(1.00146 0 0 1.00146 343 256)" d="M31.1915 -172.852C43.1495 -172.657 52.7069 -164.139 52.5387 -153.828C52.3704 -143.516 42.5402 -135.315 30.5823 -135.51C18.6244 -135.705 9.06694 -144.223 9.23518 -154.534C9.40342 -164.846 19.2336 -173.047 31.1915 -172.852Z"></path>
  <path fill="none" stroke="black" stroke-width="9" stroke-miterlimit="4" transform="matrix(1.00146 0 0 1.00146 343 256)" d="M11.7402 -196.51C18.2356 -196.404 23.4272 -191.777 23.3358 -186.176C23.2444 -180.575 17.9047 -176.12 11.4093 -176.226C4.9138 -176.332 -0.277727 -180.959 -0.18634 -186.56C-0.0949535 -192.161 5.24474 -196.616 11.7402 -196.51Z"></path>
  <path fill="#6C88D9" transform="matrix(1.75232 0.0285905 -0.0285905 1.75232 414.957 124.67)" d="M3.8147e-06 -29.5C19.0538 -29.5 34.5 -16.1805 34.5 0.25C34.5 16.6805 19.0538 30 3.8147e-06 30C-19.0538 30 -34.5 16.6805 -34.5 0.25C-34.5 -16.1805 -19.0538 -29.5 3.8147e-06 -29.5Z"></path>
  <path fill="#6C88D9" transform="matrix(0.755384 0.0123247 -0.0123247 0.755384 388.978 90.6604)" d="M-3.8147e-06 -29.5C19.0538 -29.5 34.5 -16.1805 34.5 0.25C34.5 16.6805 19.0538 30 -3.8147e-06 30C-19.0538 30 -34.5 16.6805 -34.5 0.25C-34.5 -16.1805 -19.0538 -29.5 -3.8147e-06 -29.5Z"></path>
  <path fill="#6C88D9" transform="matrix(0.628503 0.0102545 -0.0102545 0.628503 373.935 101.437)" d="M3.87011e-06 -29.5C19.0538 -29.5 34.5 -16.1805 34.5 0.249954C34.5 16.6804 19.0538 30 3.75928e-06 30C-19.0538 30 -34.5 16.6804 -34.5 0.249954C-34.5 -16.1805 -19.0538 -29.5 3.87011e-06 -29.5Z"></path>
  <path fill="#6C88D9" transform="matrix(0.341398 0.00557018 -0.00557018 0.341398 354.593 69.2746)" d="M0 -29.5C19.0538 -29.5 34.5 -16.1805 34.5 0.25C34.5 16.6805 19.0538 30 0 30C-19.0538 30 -34.5 16.6805 -34.5 0.25C-34.5 -16.1805 -19.0538 -29.5 0 -29.5Z"></path>
  <path fill="#91A8EB" transform="matrix(1.46935 0.0239736 -0.0239736 1.46935 453.987 283.079)" d="M0.24998 -81.5196C49.8787 -81.2985 84.5 -60 84.5 1.90735e-06C84.5 41.1452 46.78 74.5 0.25 74.5C-62.1254 74.5 -84 60.12 -84 1.90735e-06C-84 -71.2881 -62.1254 -81.5197 0.24998 -81.5196Z"></path>
  <clipPath id="cl_11b">
    <path d="M457.973 142.73C523.029 143.791 605.102 180.355 603.387 285.495C602.211 357.594 535.038 418.08 453.502 416.75C344.201 414.967 306.402 386.027 308.121 280.677C310.159 155.758 369.098 141.28 457.973 142.73Z"></path>
  </clipPath>
  <g clip-path="url(#cl_11b)">
    <path fill="#A6B8EF" transform="matrix(0.784709 0.0128031 -0.0147656 0.904991 508.179 248.883)" d="M0.249995 -81.5197C49.8788 -81.2985 84.5 -60 84.5 -9.53674e-07C84.5 41.1452 67.1354 74.5 20.6054 74.5C-41.77 74.5 -84 60.12 -84 -9.53674e-07C-84 -71.2881 -62.1254 -81.5197 0.249995 -81.5197Z"></path>
    <path fill="#C1CBE8" transform="matrix(0.192776 -0.197383 0.433955 0.423827 530.67 201.321)" d="M11.5672 -77.0971C58.0971 -77.0971 97.596 -41.1452 97.596 1.45057e-06C97.596 41.1452 73.4188 83.0524 26.8888 83.0524C-35.4866 83.0524 11.8087 60.12 11.8087 1.72236e-07C11.8087 -41.1452 -34.9628 -77.0972 11.5672 -77.0971Z"></path>
    <path fill="#C1CBE8" transform="matrix(0.192776 -0.197383 0.179346 0.175161 573.941 263.981)" d="M48.93 -79.7643C80.6763 -79.053 77.4946 -42.8889 62.8508 4.00556C48.2069 50.9001 -0.0393867 91.2962 -20.4536 67.7769C-40.8678 44.2575 -16.8141 31.8031 -0.458961 -5.1389C15.8962 -42.0809 17.1838 -80.4756 48.93 -79.7643Z"></path>
  </g>
  <path fill="#91A8EB" transform="matrix(1.34311 0 0 1.34311 401.282 353.187)" d="M0.255798 -0.707863C18.481 -0.615143 32.0888 -1.33751 32.2752 50.1558C31.9718 75.642 24.4157 90.193 13.8974 89.9906C3.37914 89.7882 -5.25912 89.9444 -15.5916 90.0894C-25.9714 90.1616 -33.4598 73.4358 -33.1564 47.9497C-33.6427 -5.74925 -17.9693 -0.800591 0.255798 -0.707863Z"></path>
  <path fill="#91A8EB" transform="matrix(1.75232 0.0285905 -0.0285905 1.75232 414.957 124.67)" d="M3.8147e-06 -22.5C14.6355 -22.5 26.5 -12.3145 26.5 0.25C26.5 12.8145 14.6355 23 3.8147e-06 23C-14.6355 23 -26.5 12.8145 -26.5 0.25C-26.5 -12.3145 -14.6355 -22.5 3.8147e-06 -22.5Z"></path>
  <path fill="none" stroke="black" stroke-width="7" stroke-linecap="round" stroke-linejoin="round" transform="matrix(2.09669 0 0 2.07948 342.192 291.353)" d="M25.1576 -27.7779C25.5731 -23.0361 26.2892 -15.9414 27.4596 -4.57145C33.5245 22.7118 46.9085 37.9435 24.4145 49.5773C10.247 56.7906 -20.4665 34.9058 -26.5553 7.51425C-29.886 -17.9805 -18.1382 -41.9041 -4.78768 -53.2981"></path>
  <path fill="#6C88D9" transform="matrix(2.09669 0 0 2.07948 342.192 291.353)" d="M14.8848 -59.578C18.3145 -55.1296 24.6443 -40.068 24.6544 -36.1404C24.6645 -32.2128 25.259 -25.9481 27.4596 -4.57145C33.5245 22.7118 46.9085 37.9435 24.4145 49.5773C10.247 56.7906 -20.4665 34.9058 -26.5553 7.51425C-31.5638 -30.8228 -2.47684 -65.6072 14.8848 -59.578Z"></path>
  <path fill="#91A8EB" transform="matrix(1.63266 0 0 2.03602 346.076 285.791)" d="M15.8239 -53.1606C37.9829 -52.6472 28.5313 -29.7379 25.3295 -4.50681C27.1833 22.5689 46.7229 39.9675 33.7094 46.6662C20.6959 53.3648 -17.7018 33.4438 -26.818 6.99754C-32.7583 -23.4924 -6.33504 -53.6739 15.8239 -53.1606Z"></path>
  <path fill="#312F2F" transform="matrix(0.528975 -0.0130023 0.0155035 0.630729 214.942 408.571)" d="M1.52588e-05 -128C70.6925 -128 128 -70.6925 128 -3.05176e-05C128 70.6924 70.6925 128 1.52588e-05 128C-70.6924 128 -128 70.6924 -128 -3.05176e-05C-128 -70.6925 -70.6924 -128 1.52588e-05 -128Z"></path>
  <path fill="none" stroke="black" stroke-width="7" stroke-miterlimit="4" transform="matrix(1.00146 0 0 1.00146 343 256)" d="M-117.886 71.4393C-80.5462 70.5214 -49.389 105.87 -48.2946 150.393C-47.2002 194.916 -76.5831 231.753 -113.923 232.671C-151.263 233.588 -182.42 198.24 -183.515 153.717C-184.609 109.194 -155.226 72.3571 -117.886 71.4393Z"></path>
  <path fill="none" stroke="black" stroke-width="7" stroke-linejoin="round" transform="matrix(1.00146 0 0 1.00146 343 256)" d="M-117.886 71.4393C-117.886 71.4393 -127.46 71.6746 -129.391 71.722C-159.657 73.2876 -196.963 93.7237 -195.481 154.011C-193.999 214.298 -149.131 233.536 -125.889 232.965C-123.959 232.917 -113.923 232.671 -113.923 232.671C-114.45 232.684 -115.016 232.676 -115.618 232.646"></path>
  <path fill="#DEDEDE" transform="matrix(0.528975 -0.0130023 0.0155035 0.630729 226.926 408.277)" d="M1.52588e-05 -128C70.6925 -128 128 -70.6924 128 1.52588e-05C128 70.6925 70.6925 128 1.52588e-05 128C-70.6924 128 -128 70.6925 -128 1.52588e-05C-128 -70.6924 -70.6924 -128 1.52588e-05 -128Z"></path>
  <clipPath id="cl_11e">
    <path d="M224.942 327.544C262.336 326.624 293.539 362.025 294.635 406.613C295.731 451.2 266.305 488.091 228.911 489.01C191.516 489.929 160.313 454.529 159.217 409.941C158.121 365.353 187.547 328.463 224.942 327.544Z"></path>
  </clipPath>
  <g clip-path="url(#cl_11e)">
    <path fill="#F2F1F1" transform="matrix(0.504546 0.195536 -0.159648 0.599795 222.589 436.52)" d="M-170.753 -28.5016L169.944 -28.5016L169.944 28.5017L-170.753 28.5017L-170.753 -28.5016Z"></path>
    <path fill="#F2F1F1" transform="matrix(0.504546 0.195536 -0.159648 0.599795 215.479 459.363)" d="M-170.753 -5.22019L169.944 -5.22019L169.944 5.22013L-170.753 5.22013L-170.753 -5.22019Z"></path>
  </g>
  <path fill="#8B8B8B" transform="matrix(0.528975 -0.0130023 0.0155035 0.630729 230.349 407.562)" d="M0.25 -87.5C51.4744 -87.5 93 -48.4369 93 -0.250031C93 47.9368 51.4744 87 0.25 87C-50.9744 87 -92.5 47.9368 -92.5 -0.250031C-92.5 -48.4369 -50.9744 -87.5 0.25 -87.5Z"></path>
  <path fill="#B0AFAF" transform="matrix(0.528975 -0.0130023 0.0155035 0.630729 226.926 408.277)" d="M1.52588e-05 -86C47.4965 -86 86 -47.4965 86 1.52588e-05C86 47.4965 47.4965 86 1.52588e-05 86C-47.4965 86 -86 47.4965 -86 1.52588e-05C-86 -47.4965 -47.4965 -86 1.52588e-05 -86Z"></path>
  <path fill="#8B8B8B" transform="matrix(0.528975 -0.0130023 0.0155035 0.630729 227.129 405.747)" d="M-52.3281 27.625L-52.3281 -27.668L-46.756 -30.4056L-46.7826 24.7561L-42.4192 24.6237L-47.1315 27.6684L-52.3281 27.625ZM-50.25 21.3164C-54.7526 21.3164 -58.6058 20.4196 -61.8096 18.626C-65.0134 16.8323 -67.4626 14.3336 -69.1572 11.1299C-70.8519 7.92609 -71.6992 4.1966 -71.6992 -0.0586071C-71.6992 -4.31382 -70.8519 -8.04331 -69.1572 -11.2471C-67.4626 -14.4509 -65.0134 -16.9496 -61.8096 -18.7432C-58.6058 -20.5368 -54.7526 -21.4336 -50.25 -21.4336C-47.3802 -21.4336 -44.7826 -21.0625 -42.457 -20.3203C-40.1315 -19.5781 -38.1091 -18.5205 -36.3897 -17.1475C-34.6703 -15.7744 -27.7801 -10.4694 -25.0592 -8.68547C-26.0599 -7.96245 -28.21 -6.90541 -30.3965 -5.66212C-30.3965 -5.66212 -44.0899 -3.62111 -44.0899 -3.62111C-44.0899 -3.62111 -44.5166 -5.66831 -44.8506 -6.49708C-45.1846 -7.32586 -45.599 -8.02475 -46.0938 -8.59376C-46.5886 -9.16277 -47.1638 -9.58953 -47.8194 -9.87403C-48.475 -10.1585 -49.211 -10.3008 -50.0274 -10.3008C-51.3386 -10.3008 -52.4766 -9.9297 -53.4414 -9.18751C-54.4063 -8.44532 -55.1546 -7.31968 -55.6865 -5.81056C-56.2184 -4.30145 -56.4844 -2.40887 -56.4844 -0.132826C-56.4844 2.11848 -56.2184 4.01105 -55.6865 5.54491C-55.1546 7.07876 -54.4063 8.23534 -53.4414 9.01464C-52.4766 9.79393 -51.3386 10.1836 -50.0274 10.1836C-49.211 10.1836 -48.475 10.0351 -47.8194 9.73827C-47.1638 9.44139 -46.5824 9.00226 -46.0752 8.42089C-45.5681 7.8395 -45.8968 6.99336 -44.8135 6.24999C-43.7302 5.50661 -38.8902 1.52307 -38.7417 0.409784C-38.7417 0.409784 -30.3965 5.28514 -30.3965 5.28514C-30.3965 5.28514 -31.2748 9.97948 -32.2891 11.9463C-33.3034 13.9131 -34.6641 15.5954 -36.3711 16.9931C-38.0781 18.3909 -40.1006 19.4609 -42.4385 20.2031C-44.7764 20.9453 -47.3802 21.3164 -50.25 21.3164ZM-24.5332 27.625L-24.5332 16.8633L-3.90038 -0.207045C-3.90038 -0.207045 -1.36457 -2.41505 -0.374987 -3.41701C0.614597 -4.41896 1.37534 -5.45183 1.90724 -6.51564C2.43914 -7.57944 2.70509 -8.76694 2.70509 -10.0781C2.70509 -11.4883 2.40203 -12.6943 1.79591 -13.6963C1.18979 -14.6983 0.361015 -15.4714 -0.690416 -16.0156C-1.74185 -16.5599 -2.96027 -16.832 -4.34569 -16.832C-5.73111 -16.832 -6.94953 -16.5537 -8.00096 -15.9971C-9.05239 -15.4404 -6.29219 -13.7058 -5.86799 -12.6284C-7.10777 -11.907 -9.37626 -10.5827 -11.3223 -9.63282C-11.3223 -9.63282 -25.5723 -9.63282 -25.5723 -9.63282C-25.5723 -9.63282 -24.7002 -16.8568 -22.956 -19.6524C-21.2119 -22.4479 -18.7441 -24.6065 -15.5527 -26.1279C-12.3613 -27.6494 -8.62564 -28.4102 -4.34569 -28.4102C0.082695 -28.4102 3.91733 -27.7051 7.15821 -26.2949C10.3991 -24.8848 12.904 -22.8994 14.6729 -20.3389C16.4417 -17.7783 17.3262 -14.7787 17.3262 -11.3399C17.3262 -9.21225 16.8871 -7.1032 16.0088 -5.01271C15.1305 -2.92221 13.5534 -0.602879 11.2774 1.9453C9.00131 4.49348 5.74806 7.51171 1.51759 11C1.51759 11 -3.67772 15.3047 -3.67772 15.3047L-3.67772 15.6758L17.9199 15.6758L23.3601 24.6526L17.9199 27.625L-24.5332 27.625ZM45.3067 28.3672C41.0514 28.3672 37.2787 27.6188 33.9883 26.1221C30.6979 24.6253 28.1126 22.5534 26.2324 19.9062C24.3522 17.2591 23.3874 14.2161 23.3379 10.7773C23.3379 10.7773 28.8025 7.82545 28.8025 7.82545L37.959 10.7773C37.959 10.7773 38.293 13.14 38.961 14.0801C39.6289 15.0202 40.5195 15.7438 41.6328 16.251C42.7461 16.7581 43.9707 17.0117 45.3067 17.0117C46.8405 17.0117 48.1826 16.6839 49.333 16.0283C50.4834 15.3727 51.3864 14.4512 52.042 13.2637C52.6976 12.0762 53.0254 10.6784 53.0254 9.0703C53.0254 7.43749 52.6976 6.02114 52.042 4.82128C51.3864 3.62141 50.4834 2.69367 49.333 2.03807C48.1826 1.38247 46.8405 1.05467 45.3067 1.05467C43.6986 1.05467 43.4423 2.31533 43.4423 2.31533C43.4423 2.31533 38.6022 4.02342 37.959 5.35936C37.959 5.35936 24.7481 2.76171 24.7481 2.76171L26.9004 -27.668L32.366 -30.6324L64.084 -27.668L69.5015 -18.6129L64.084 -15.6445L39.2207 -15.6445L38.1817 -3.47267L38.4785 -3.47267C38.4785 -3.47267 40.8412 -6.54038 42.9688 -7.62892C45.0964 -8.71746 47.558 -9.26173 50.3535 -9.26173C52.8027 -9.26173 55.0726 -8.82878 57.1631 -7.9629C59.2536 -7.09702 61.072 -5.86622 62.6182 -4.27052C64.1644 -2.67482 65.3643 -0.78224 66.2178 1.40721C67.0713 3.59667 67.4981 6.00259 67.4981 8.62499C67.4981 12.4844 66.5827 15.8984 64.752 18.8672C62.9212 21.8359 60.3421 24.1614 57.0147 25.8437C53.6872 27.526 49.7845 28.3672 45.3067 28.3672Z"></path>
  <path fill="#DEDEDE" transform="matrix(0.528975 -0.0130023 0.0155035 0.630729 229.711 403.16)" d="M-51.8281 28.625L-51.8281 -26.668L-47.375 -26.668L-47.375 28.625L-51.8281 28.625ZM-49.75 22.3164C-54.2526 22.3164 -58.1058 21.4196 -61.3095 19.626C-64.5133 17.8324 -66.9625 15.3337 -68.6572 12.1299C-70.3519 8.92611 -71.1992 5.19662 -71.1992 0.941408C-71.1992 -3.3138 -70.3519 -7.04329 -68.6572 -10.2471C-66.9625 -13.4508 -64.5133 -15.9495 -61.3095 -17.7432C-58.1058 -19.5368 -54.2526 -20.4336 -49.75 -20.4336C-46.8802 -20.4336 -44.2825 -20.0625 -41.957 -19.3203C-39.6315 -18.5781 -37.609 -17.5205 -35.8896 -16.1475C-34.1702 -14.7744 -32.8034 -13.1169 -31.789 -11.1748C-30.7747 -9.23274 -30.1439 -7.06185 -29.8965 -4.66211C-29.8965 -4.66211 -43.5898 -2.62109 -43.5898 -2.62109C-43.5898 -2.62109 -44.0166 -4.66829 -44.3506 -5.49707C-44.6845 -6.32584 -45.0989 -7.02474 -45.5937 -7.59375C-46.0885 -8.16275 -46.6637 -8.58951 -47.3193 -8.87402C-47.9749 -9.15853 -48.7109 -9.30078 -49.5273 -9.30078C-50.8385 -9.30078 -51.9765 -8.92968 -52.9414 -8.1875C-53.9062 -7.44531 -54.6546 -6.31966 -55.1865 -4.81054C-55.7184 -3.30143 -55.9843 -1.40885 -55.9843 0.867189C-55.9843 3.11849 -55.7184 5.01107 -55.1865 6.54492C-54.6546 8.07878 -53.9062 9.23535 -52.9414 10.0147C-51.9765 10.7939 -50.8385 11.1836 -49.5273 11.1836C-48.7109 11.1836 -47.9749 11.0352 -47.3193 10.7383C-46.6637 10.4414 -46.0823 10.0023 -45.5752 9.4209C-45.068 8.83952 -44.6474 8.11589 -44.3134 7.25C-43.9795 6.38412 -43.7383 5.39453 -43.5898 4.28125C-43.5898 4.28125 -29.8965 6.28516 -29.8965 6.28516C-29.8965 6.28516 -30.7747 10.9795 -31.789 12.9463C-32.8034 14.9131 -34.164 16.5954 -35.8711 17.9932C-37.5781 19.391 -39.6006 20.4609 -41.9384 21.2031C-44.2763 21.9453 -46.8802 22.3164 -49.75 22.3164ZM-24.0332 28.625L-24.0332 17.8633L-3.40038 0.793001C-3.40038 0.793001 -0.864571 -1.41501 0.125013 -2.41696C1.1146 -3.41891 1.87534 -4.45179 2.40724 -5.51559C2.93914 -6.5794 3.20509 -7.7669 3.20509 -9.07809C3.20509 -10.4882 2.90203 -11.6943 2.29591 -12.6963C1.68979 -13.6982 0.861015 -14.4713 -0.190416 -15.0156C-1.24185 -15.5599 -2.46027 -15.832 -3.84569 -15.832C-5.23111 -15.832 -6.44953 -15.5537 -7.50096 -14.997C-8.55239 -14.4404 -9.3688 -13.6302 -9.95018 -12.5664C-10.5316 -11.5026 -10.8223 -10.1914 -10.8223 -8.63278C-10.8223 -8.63278 -25.0723 -8.63278 -25.0723 -8.63278C-25.0723 -8.63278 -24.2002 -15.8567 -22.456 -18.6523C-20.7119 -21.4479 -18.2441 -23.6064 -15.0527 -25.1279C-11.8613 -26.6494 -8.12564 -27.4101 -3.84569 -27.4101C0.582695 -27.4101 4.41733 -26.705 7.65821 -25.2949C10.8991 -23.8847 13.404 -21.8994 15.1729 -19.3388C16.9417 -16.7783 17.8262 -13.7786 17.8262 -10.3398C17.8262 -8.21221 17.3871 -6.10315 16.5088 -4.01266C15.6305 -1.92217 14.0534 0.397167 11.7774 2.94534C9.50131 5.49352 6.24806 8.51175 2.01759 12C2.01759 12 -3.17772 16.3047 -3.17772 16.3047L-3.17772 16.6758L18.4199 16.6758L18.4199 28.625L-24.0332 28.625ZM45.8067 29.3672C41.5514 29.3672 37.7787 28.6188 34.4883 27.1221C31.1979 25.6253 28.6126 23.5534 26.7324 20.9062C24.8522 18.2591 23.8874 15.2161 23.8379 11.7773C23.8379 11.7773 38.459 11.7773 38.459 11.7773C38.459 11.7773 38.793 14.14 39.461 15.0801C40.1289 16.0202 41.0195 16.7438 42.1328 17.251C43.2461 17.7581 44.4707 18.0117 45.8067 18.0117C47.3405 18.0117 48.6826 17.6839 49.833 17.0283C50.9834 16.3727 51.8864 15.4512 52.542 14.2637C53.1976 13.0762 53.5254 11.6784 53.5254 10.0703C53.5254 8.4375 53.1976 7.02116 52.542 5.82129C51.8864 4.62142 50.9834 3.69369 49.833 3.03809C48.6826 2.38249 47.3405 2.05469 45.8067 2.05469C44.1986 2.05469 42.7328 2.43815 41.4092 3.20508C40.0856 3.97201 39.1022 5.02344 38.459 6.35938C38.459 6.35938 25.2481 3.76172 25.2481 3.76172L27.4004 -26.668L64.584 -26.668L64.584 -14.6445L39.7207 -14.6445L38.6817 -2.47265L38.9785 -2.47265C38.9785 -2.47265 41.3412 -5.54036 43.4688 -6.6289C45.5964 -7.71744 48.058 -8.26171 50.8535 -8.26171C53.3027 -8.26171 55.5726 -7.82877 57.6631 -6.96289C59.7536 -6.097 61.572 -4.86621 63.1182 -3.27051C64.6644 -1.6748 65.8643 0.217775 66.7178 2.40723C67.5713 4.59668 67.9981 7.00261 67.9981 9.625C67.9981 13.4844 67.0827 16.8984 65.252 19.8672C63.4212 22.8359 60.8421 25.1615 57.5147 26.8438C54.1872 28.526 50.2845 29.3672 45.8067 29.3672Z"></path>
  <clipPath id="cl_120">
    <path d="M202.739 421.888L201.882 387.013L204.238 386.955L205.095 421.83L202.739 421.888ZM203.741 417.882C201.359 417.941 199.307 417.425 197.585 416.335C195.862 415.246 194.528 413.702 193.582 411.703C192.635 409.704 192.129 407.363 192.063 404.679C191.997 401.995 192.388 399.632 193.235 397.589C194.081 395.546 195.338 393.938 197.005 392.766C198.672 391.593 200.696 390.977 203.078 390.918C204.596 390.881 205.976 391.081 207.218 391.519C208.459 391.957 209.546 392.598 210.476 393.441C211.407 394.285 212.156 395.313 212.723 396.525C213.289 397.736 213.657 399.097 213.825 400.608C213.825 400.608 206.613 402.073 206.613 402.073C206.613 402.073 206.355 400.787 206.166 400.269C205.976 399.751 205.746 399.315 205.476 398.963C205.205 398.61 204.894 398.349 204.543 398.178C204.192 398.007 203.8 397.927 203.369 397.937C202.675 397.954 202.079 398.203 201.58 398.684C201.081 399.164 200.703 399.884 200.445 400.843C200.187 401.802 200.075 402.999 200.111 404.434C200.145 405.854 200.315 407.045 200.621 408.005C200.926 408.966 201.34 409.685 201.862 410.164C202.385 410.643 202.993 410.874 203.686 410.857C204.118 410.847 204.505 410.743 204.847 410.548C205.189 410.352 205.49 410.067 205.749 409.694C206.009 409.321 206.22 408.859 206.383 408.308C206.546 407.758 206.659 407.131 206.72 406.427C206.72 406.427 213.994 407.512 213.994 407.512C213.994 407.512 213.603 410.485 213.097 411.738C212.591 412.992 211.897 414.071 211.016 414.975C210.134 415.879 209.081 416.58 207.856 417.078C206.631 417.577 205.259 417.845 203.741 417.882ZM217.442 421.527L217.275 414.739L227.925 403.704C227.925 403.704 229.232 402.278 229.74 401.633C230.248 400.989 230.634 400.327 230.899 399.649C231.164 398.971 231.286 398.219 231.266 397.392C231.244 396.503 231.065 395.746 230.729 395.122C230.393 394.498 229.943 394.021 229.378 393.691C228.813 393.362 228.165 393.206 227.432 393.224C226.699 393.242 226.059 393.433 225.511 393.798C224.964 394.163 224.544 394.684 224.253 395.363C223.962 396.041 223.829 396.872 223.853 397.855C223.853 397.855 216.315 398.041 216.315 398.041C216.315 398.041 216.664 393.473 217.544 391.687C218.423 389.901 219.695 388.507 221.359 387.506C223.024 386.505 224.988 385.977 227.252 385.921C229.595 385.864 231.634 386.258 233.37 387.106C235.107 387.953 236.462 389.173 237.438 390.765C238.413 392.357 238.927 394.237 238.981 396.406C239.014 397.748 238.814 399.084 238.382 400.414C237.95 401.744 237.152 403.227 235.987 404.864C234.823 406.501 233.148 408.447 230.965 410.702C230.965 410.702 228.283 413.485 228.283 413.485L228.289 413.719L239.714 413.438L239.899 420.975L217.442 421.527ZM254.397 421.087C252.146 421.142 250.139 420.719 248.375 419.818C246.612 418.917 245.212 417.643 244.176 415.998C243.141 414.353 242.583 412.446 242.504 410.278C242.504 410.278 250.238 410.088 250.238 410.088C250.238 410.088 250.451 411.574 250.819 412.158C251.187 412.742 251.669 413.187 252.266 413.492C252.863 413.798 253.515 413.942 254.221 413.924C255.033 413.904 255.738 413.68 256.336 413.252C256.934 412.823 257.398 412.23 257.726 411.473C258.054 410.715 258.206 409.829 258.181 408.815C258.156 407.785 257.961 406.896 257.595 406.148C257.23 405.4 256.738 404.826 256.119 404.428C255.5 404.029 254.785 403.84 253.974 403.86C253.123 403.881 252.354 404.142 251.666 404.643C250.977 405.144 250.473 405.82 250.154 406.671C250.154 406.671 243.125 405.204 243.125 405.204L243.792 385.983L263.461 385.5L263.648 393.083L250.496 393.406L250.135 401.097L250.292 401.093C250.292 401.093 251.494 399.128 252.603 398.413C253.711 397.699 255.005 397.324 256.484 397.287C257.779 397.256 258.987 397.499 260.106 398.018C261.225 398.537 262.206 399.29 263.049 400.276C263.891 401.262 264.555 402.44 265.041 403.81C265.526 405.18 265.789 406.692 265.83 408.346C265.89 410.78 265.458 412.946 264.536 414.842C263.614 416.738 262.285 418.238 260.551 419.343C258.817 420.447 256.766 421.028 254.397 421.087Z"></path>
  </clipPath>
  <g clip-path="url(#cl_120)">
    <path fill="#F2F1F1" transform="matrix(0.504546 0.195536 -0.159648 0.599795 222.589 436.52)" d="M-170.753 -28.5016L169.944 -28.5016L169.944 28.5017L-170.753 28.5017L-170.753 -28.5016Z"></path>
    <path fill="#F2F1F1" transform="matrix(0.504546 0.195536 -0.159648 0.599795 215.479 459.363)" d="M-170.753 -5.22019L169.944 -5.22019L169.944 5.22013L-170.753 5.22013L-170.753 -5.22019Z"></path>
  </g>
  <path fill="#8E8B8B" transform="matrix(0.630729 -0.0155035 0.0155035 0.630729 224.942 327.544)" d="M3.05176e-05 -7.62939e-06C3.05176e-05 -7.62939e-06 -15.2011 0 -18.2664 0C-66.3551 1.3037 -126.35 32.2772 -126.35 128C-126.35 223.723 -55.9022 256 -19 256C-15.9347 256 3.05176e-05 256 3.05176e-05 256C-25.5438 256 -107.35 223.723 -107.35 128C-107.35 32.2772 -25.5438 -7.62939e-06 3.05176e-05 -7.62939e-06Z"></path>
  <clipPath id="cl_122">
    <path d="M224.942 327.544C224.942 327.544 215.354 327.779 213.421 327.827C183.11 329.395 145.749 349.861 147.234 410.236C148.718 470.611 193.651 489.877 216.927 489.305C218.86 489.257 228.911 489.01 228.911 489.01C212.799 489.406 160.701 470.316 159.217 409.941C157.733 349.566 208.83 327.94 224.942 327.544Z"></path>
  </clipPath>
  <g clip-path="url(#cl_122)">
    <path fill="#ACABAB" transform="matrix(0.528975 -0.0130023 0.0155035 0.630729 183.524 444.938)" d="M-105.5 -40.8039L105 -40.8039L105 40.8038L-105.5 40.8038L-105.5 -40.8039Z"></path>
    <path fill="#D6D6D6" transform="matrix(0.528975 -0.0130023 0.0155035 0.630729 179.459 440.052)" d="M-105.5 -7.02943L105 -7.02943L105 7.02949L-105.5 7.02949L-105.5 -7.02943Z"></path>
    <path fill="#D6D6D6" transform="matrix(0.530479 -0.0130393 0.0154595 0.628941 200.817 412.074)" d="M-137.32 -30.4789L136.67 -30.4789L136.67 30.4789L-137.32 30.4789L-137.32 -30.4789Z"></path>
  </g>
  <path fill="#91A8EB" transform="matrix(0.590878 0.00964063 -0.00964063 0.590878 388.978 92.8093)" d="M7.67177e-06 -22.5C14.6356 -22.5 26.5 -12.3144 26.5 0.250031C26.5 12.8145 14.6356 23 7.58702e-06 23C-14.6355 23 -26.5 12.8145 -26.5 0.25003C-26.5 -12.3144 -14.6355 -22.5 7.67177e-06 -22.5Z"></path>
  <path fill="#91A8EB" transform="matrix(0.491629 0.00802131 -0.00802131 0.491629 373.935 103.225)" d="M-3.8147e-06 -22.5C14.6355 -22.5 26.5 -12.3144 26.5 0.250031C26.5 12.8145 14.6355 23 -3.8147e-06 23C-14.6356 23 -26.5 12.8145 -26.5 0.250031C-26.5 -12.3144 -14.6356 -22.5 -3.8147e-06 -22.5Z"></path>
  <path fill="#91A8EB" transform="matrix(0.267049 0.00435711 -0.00435711 0.267049 355.563 71.3024)" d="M7.62939e-06 -22.4261C14.2962 -22.4261 25.8855 -12.274 25.8855 0.249268C25.8855 12.7726 14.2962 22.9247 7.62939e-06 22.9247C-14.2962 22.9247 -25.8855 12.7726 -25.8855 0.249268C-25.8855 -12.274 -14.2962 -22.4261 7.62939e-06 -22.4261Z"></path>
  <path fill="#C1CBE8" transform="matrix(0.0718703 -0.111803 0.256925 0.165159 351.917 68.7708)" d="M0.00012207 -11.5C14.6357 -11.5 28.0062 -7.98325 28.0062 -1.63198C28.0062 4.7193 15.506 0.400216 0.870479 0.400216C-13.7651 0.400215 -26.7659 4.37692 -26.7659 -1.97436C-26.7659 -8.32563 -14.6354 -11.5 0.00012207 -11.5Z"></path>
  <path fill="#C1CBE8" transform="matrix(-0.162443 -0.555435 0.857234 -0.250708 373.858 128.905)" d="M0 -11.5C14.6355 -11.5 28.0061 -7.98327 28.0061 -1.632C28.0061 4.71927 15.5059 0.400194 0.870357 0.400193C-13.7652 0.400192 -26.766 4.3769 -26.766 -1.97438C-26.766 -8.32565 -14.6355 -11.5 0 -11.5Z"></path>
  <path fill="#1B2B56" transform="matrix(1.7396 -0.212721 0.0638164 0.521879 425.977 102.154)" d="M9.31323e-09 -2.5C1.38071 -2.5 2.5 -1.38071 2.5 0C2.5 1.38071 1.38071 2.5 -9.31323e-09 2.5C-1.38071 2.5 -2.5 1.38071 -2.5 0C-2.5 -1.38071 -1.38071 -2.5 9.31323e-09 -2.5Z"></path>
  <path fill="none" stroke="#1B2B56" stroke-width="0.5" stroke-linecap="round" stroke-linejoin="round" transform="matrix(1.7359 -0.241072 0.241072 1.7359 434.393 101.072)" d="M1.98548 0.277981C2.99638 0.254547 6.02909 0.184244 6.02909 0.184244"></path>
  <path fill="#1B2B56" transform="matrix(1.7396 -0.212721 0.0638164 0.521879 453.811 98.7507)" d="M-7.62008e-06 -2.5C1.3807 -2.5 2.49999 -1.38071 2.49999 0C2.49999 1.38071 1.3807 2.5 -7.63871e-06 2.5C-1.38072 2.5 -2.50001 1.38071 -2.50001 0C-2.50001 -1.38071 -1.38072 -2.5 -7.62008e-06 -2.5Z"></path>
  <path fill="#354B89" transform="matrix(1.42645 -0.861678 0.905069 0.706104 445.805 92.0014)" d="M0 -2.49999C1.38071 -2.49999 2.5 -1.3807 2.5 7.62939e-06C2.5 1.38072 1.38071 2.50001 0 2.50001C-1.38071 2.50001 -2.5 1.38072 -2.5 7.62939e-06C-2.5 -1.3807 -1.38071 -2.49999 0 -2.49999Z"></path>
  <path fill="#354B89" transform="matrix(2.10554 0.289111 -0.613236 1.04501 430.253 92.9162)" d="M1.90735e-06 -2.98532C1.68306 -2.98532 3.04744 -1.64874 3.04744 1.52588e-05C3.04744 1.64877 1.68306 2.98535 1.90735e-06 2.98535C-1.68305 2.98535 -3.04744 1.64877 -3.04744 1.52588e-05C-3.04744 -1.64874 -1.68305 -2.98532 1.90735e-06 -2.98532Z"></path>
  <path fill="none" stroke="white" stroke-width="5" stroke-linecap="round" stroke-linejoin="round" transform="matrix(1.50219 0 0 1.50219 258.877 362.655)" d=""></path>
  <path fill="none" stroke="white" stroke-width="5" stroke-linecap="round" stroke-linejoin="round" transform="matrix(1.11139 0 0 1.11139 243.355 245.985)" d=""></path>
</svg>