<?xml version="1.0" encoding="utf-8"?>
<svg xmlns="http://www.w3.org/2000/svg" xmlns:xlink="http://www.w3.org/1999/xlink" width="686" height="512">
  <path fill="none" stroke="black" stroke-width="7" stroke-linejoin="round" transform="matrix(1.75255 0 0 1.75255 402.08 414.526)" d="M0.317593 -46.2511C18.5418 -46.0448 31.0869 -38.6462 30.9052 5.64291C31.2274 34.6585 23.8803 44.6774 13.3635 44.4094C2.84659 44.1414 -5.79236 44.2438 -16.1256 44.3244C-26.5884 44.2254 -31.9695 33.0859 -32.2914 4.05719C-32.3961 -42.4392 -17.9066 -46.4574 0.317593 -46.2511Z"></path>
  <path fill="none" stroke="black" stroke-width="7" stroke-linejoin="round" transform="matrix(-2.09669 -3.16894e-07 -3.14293e-07 2.07948 543.455 281.944)" d="M18.4249 -58.663C21.7945 -54.1681 27.9211 -39.0213 27.8783 -35.094C27.8355 -31.1666 32.2355 -22.2521 30.9557 2.08302C29.7398 30.9469 25.3067 54.0363 0.0424271 53.1161C-15.8146 52.4371 -27.2875 28.5047 -26.0716 -0.359159C-24.5472 -36.5461 1.14601 -64.9291 18.4249 -58.663Z"></path>
  <path fill="none" stroke="black" stroke-width="7" stroke-linejoin="round" transform="matrix(1.75232 0.0285905 -0.0285905 1.75232 456.114 283.079)" d="M0.209618 -80.0966C37.3348 -80.0966 84.5 -60 84.5 0C84.5 41.1452 46.7396 76.2788 0.209618 76.2788C-62.1658 76.2788 -84 60.12 -84 0C-84 -71.2881 -50.5087 -80.0966 0.209618 -80.0966Z"></path>
  <path fill="none" stroke="black" stroke-width="7" stroke-linejoin="round" transform="matrix(1.49621 0 0 1.75255 497.594 403.135)" d="M-0.312737 -47.8485C17.9108 -48.0749 33.3997 -41.3577 34.0539 8.21371C34.6735 22.0591 28.8016 45.8382 15.1233 45.8241C1.44514 45.81 -4.69047 45.8037 -16.8926 45.7911C-29.0946 45.7786 -31.3196 22.8788 -31.9392 9.03342C-32.9416 -42.7246 -18.5362 -47.6221 -0.312737 -47.8485Z"></path>
  <path fill="#6C88D9" transform="matrix(-2.09669 -3.16894e-07 -3.14293e-07 2.07948 543.455 281.944)" d="M18.4249 -58.663C21.7945 -54.1681 27.9211 -39.0213 27.8783 -35.094C27.8355 -31.1666 32.2355 -22.2521 30.9557 2.08302C29.7398 30.9469 25.3067 54.0363 0.0424347 53.1161C-15.8146 52.4371 -27.2874 28.5047 -26.0716 -0.359159C-24.5472 -36.5461 1.14602 -64.9291 18.4249 -58.663Z"></path>
  <path fill="#5170C8" transform="matrix(1.49621 0 0 1.75255 497.594 403.135)" d="M-0.312737 -47.8485C17.9108 -48.0749 33.3997 -41.3577 34.0539 8.21371C34.6735 22.0591 28.8016 45.8382 15.1233 45.8241C1.44514 45.81 -4.69047 45.8037 -16.8926 45.7911C-29.0946 45.7786 -31.3196 22.8788 -31.9392 9.03342C-32.9416 -42.7246 -18.5362 -47.6221 -0.312737 -47.8485Z"></path>
  <path fill="#839BE0" transform="matrix(1.17156 0 0 1.37229 497.594 403.135)" d="M-0.182816 -48.4016C18.0407 -48.628 32.9793 -41.8204 33.8371 12.2415C33.6358 30.1756 24.9095 45.3452 11.2312 45.3311C-2.44696 45.317 -2.27213 45.3678 -14.4742 45.3552C-26.6762 45.3426 -32.3574 30.9953 -32.156 13.0612C-33.362 -43.1873 -18.4063 -48.1753 -0.182816 -48.4016Z"></path>
  <path fill="#6C88D9" transform="matrix(1.75255 0 0 1.75255 402.08 414.526)" d="M0.317593 -46.2511C18.5418 -46.0448 31.0869 -38.6462 30.9052 5.64291C31.2274 34.6585 23.8803 44.6774 13.3635 44.4094C2.84659 44.1414 -5.79236 44.2438 -16.1256 44.3244C-26.5884 44.2254 -31.9695 33.0859 -32.2914 4.05719C-32.3961 -42.4392 -17.9066 -46.4574 0.317593 -46.2511Z"></path>
  <path fill="#91A8EB" transform="matrix(-1.63266 -2.46762e-07 -3.07725e-07 2.03602 539.57 276.382)" d="M20.2864 -52.2365C42.4347 -51.4821 34.2247 -26.9093 31.077 1.60099C27.9294 30.1112 14.8084 53.0388 -0.64164 52.5126C-16.0917 51.9863 -26.9984 28.3127 -25.4786 -0.380268C-23.9589 -29.0732 -1.86186 -52.9908 20.2864 -52.2365Z"></path>
  <path fill="none" stroke="black" stroke-width="7" stroke-miterlimit="4" transform="matrix(1.75232 0.0285905 -0.0285905 1.75232 415.755 124.67)" d="M3.8147e-06 -29.5C19.0538 -29.5 34.5 -16.1805 34.5 0.250008C34.5 16.6805 19.0538 30 3.8147e-06 30C-19.0538 30 -34.5 16.6805 -34.5 0.250008C-34.5 -16.1805 -19.0538 -29.5 3.8147e-06 -29.5Z"></path>
  <path fill="#6C88D9" transform="matrix(1.75232 0.0285905 -0.0285905 1.75232 456.114 283.079)" d="M0.209618 -80.0966C37.3348 -80.0966 84.5 -60 84.5 0C84.5 41.1452 46.7396 76.2788 0.209618 76.2788C-62.1658 76.2788 -84 60.12 -84 0C-84 -71.2881 -50.5087 -80.0966 0.209618 -80.0966Z"></path>
  <path fill="none" stroke="black" stroke-width="9" stroke-miterlimit="4" transform="matrix(1.00146 0 0 1.00146 343 256)" d="M47.0704 -187.35C61.4424 -187.115 72.9293 -176.879 72.7271 -164.485C72.5249 -152.092 60.7102 -142.236 46.3382 -142.47C31.9662 -142.705 20.4794 -152.941 20.6816 -165.335C20.8838 -177.728 32.6985 -187.584 47.0704 -187.35Z"></path>
  <path fill="none" stroke="black" stroke-width="9" stroke-miterlimit="4" transform="matrix(1.00146 0 0 1.00146 343 256)" d="M31.9883 -172.852C43.9463 -172.657 53.5037 -164.139 53.3355 -153.828C53.1672 -143.516 43.337 -135.315 31.3791 -135.51C19.4212 -135.705 9.86374 -144.223 10.032 -154.534C10.2002 -164.846 20.0304 -173.047 31.9883 -172.852Z"></path>
  <path fill="none" stroke="black" stroke-width="9" stroke-miterlimit="4" transform="matrix(1.00146 0 0 1.00146 343 256)" d="M12.537 -196.51C19.0324 -196.404 24.224 -191.777 24.1326 -186.176C24.0412 -180.575 18.7015 -176.12 12.206 -176.226C5.71059 -176.332 0.519072 -180.959 0.610458 -186.56C0.701845 -192.161 6.04154 -196.616 12.537 -196.51Z"></path>
  <path fill="#6C88D9" transform="matrix(1.75232 0.0285905 -0.0285905 1.75232 415.755 124.67)" d="M3.8147e-06 -29.5C19.0538 -29.5 34.5 -16.1805 34.5 0.250008C34.5 16.6805 19.0538 30 3.8147e-06 30C-19.0538 30 -34.5 16.6805 -34.5 0.250008C-34.5 -16.1805 -19.0538 -29.5 3.8147e-06 -29.5Z"></path>
  <path fill="#6C88D9" transform="matrix(0.755384 0.0123247 -0.0123247 0.755384 389.776 90.6604)" d="M-7.62939e-06 -29.5C19.0538 -29.5 34.5 -16.1805 34.5 0.25C34.5 16.6805 19.0538 30 -7.62939e-06 30C-19.0538 30 -34.5 16.6805 -34.5 0.25C-34.5 -16.1805 -19.0538 -29.5 -7.62939e-06 -29.5Z"></path>
  <path fill="#6C88D9" transform="matrix(0.628503 0.0102545 -0.0102545 0.628503 374.733 101.437)" d="M5.54137e-08 -29.5C19.0538 -29.5 34.5 -16.1805 34.5 0.24997C34.5 16.6804 19.0538 30 -5.54137e-08 30C-19.0538 30 -34.5 16.6804 -34.5 0.249969C-34.5 -16.1805 -19.0538 -29.5 5.54137e-08 -29.5Z"></path>
  <path fill="#6C88D9" transform="matrix(0.341398 0.00557018 -0.00557018 0.341398 355.391 69.2746)" d="M0 -29.5001C19.0538 -29.5001 34.5 -16.1805 34.5 0.249939C34.5 16.6804 19.0538 29.9999 0 29.9999C-19.0538 29.9999 -34.5 16.6804 -34.5 0.249939C-34.5 -16.1805 -19.0538 -29.5001 0 -29.5001Z"></path>
  <path fill="#91A8EB" transform="matrix(1.46935 0.0239736 -0.0239736 1.46935 454.785 283.079)" d="M0.249972 -81.5196C49.8787 -81.2985 84.5 -60 84.5 1.90735e-06C84.5 41.1452 46.78 74.5 0.249992 74.5C-62.1254 74.5 -84 60.12 -84 1.90735e-06C-84 -71.2881 -62.1254 -81.5197 0.249972 -81.5196Z"></path>
  <clipPath id="cl_157">
    <path d="M458.771 142.73C523.826 143.791 605.9 180.355 604.185 285.495C603.009 357.594 535.836 418.08 454.3 416.75C344.999 414.967 307.2 386.027 308.919 280.677C310.957 155.758 369.896 141.28 458.771 142.73Z"></path>
  </clipPath>
  <g clip-path="url(#cl_157)">
    <path fill="#A6B8EF" transform="matrix(0.784709 0.0128031 -0.0147656 0.904991 508.977 248.883)" d="M0.249995 -81.5197C49.8788 -81.2985 84.5 -60 84.5 0C84.5 41.1452 67.1354 74.5 20.6054 74.5C-41.77 74.5 -84 60.12 -84 0C-84 -71.2881 -62.1254 -81.5197 0.249995 -81.5197Z"></path>
    <path fill="#C1CBE8" transform="matrix(0.192776 -0.197383 0.433955 0.423827 531.468 201.321)" d="M11.5671 -77.0971C58.0971 -77.0971 97.5959 -41.1452 97.5959 1.67094e-05C97.5959 41.1452 73.4188 83.0524 26.8888 83.0524C-35.4866 83.0524 11.8086 60.1201 11.8086 1.5431e-05C11.8086 -41.1452 -34.9629 -77.0971 11.5671 -77.0971Z"></path>
    <path fill="#C1CBE8" transform="matrix(0.192776 -0.197383 0.179346 0.175161 574.739 263.981)" d="M48.93 -79.7642C80.6762 -79.0529 77.4945 -42.8888 62.8507 4.00568C48.2068 50.9002 -0.0394478 91.2963 -20.4537 67.777C-40.8679 44.2577 -16.8141 31.8032 -0.459022 -5.13878C15.8961 -42.0808 17.1837 -80.4755 48.93 -79.7642Z"></path>
  </g>
  <path fill="#91A8EB" transform="matrix(1.34311 0 0 1.34311 402.08 353.187)" d="M0.256172 -0.702248C18.4804 -0.495926 32.0925 -1.13342 31.958 50.3599C31.4957 75.8437 23.8491 90.3475 13.3323 90.0795C2.81543 89.8116 -5.82356 89.914 -16.1567 89.9945C-26.5368 90.002 -33.9209 73.2299 -33.4586 47.7461C-33.6103 -5.95473 -17.968 -0.908539 0.256172 -0.702248Z"></path>
  <path fill="#91A8EB" transform="matrix(1.75232 0.0285905 -0.0285905 1.75232 415.755 124.67)" d="M3.8147e-06 -22.5C14.6355 -22.5 26.5 -12.3145 26.5 0.250008C26.5 12.8145 14.6355 23 3.8147e-06 23C-14.6355 23 -26.5 12.8145 -26.5 0.250008C-26.5 -12.3145 -14.6355 -22.5 3.8147e-06 -22.5Z"></path>
  <path fill="none" stroke="black" stroke-width="7" stroke-linecap="round" stroke-linejoin="round" transform="matrix(2.09669 0 0 2.07948 342.99 291.353)" d="M25.1576 -27.7779C25.573 -23.0361 26.2892 -15.9414 27.4596 -4.57145C33.5245 22.7118 46.9085 37.9435 24.4145 49.5773C10.247 56.7906 -20.4665 34.9058 -26.5553 7.51425C-29.886 -17.9805 -18.1382 -41.9041 -4.78767 -53.2981"></path>
  <path fill="#6C88D9" transform="matrix(2.09669 0 0 2.07948 342.99 291.353)" d="M14.8848 -59.578C18.3145 -55.1296 24.6443 -40.068 24.6544 -36.1404C24.6645 -32.2128 25.259 -25.9481 27.4596 -4.57145C33.5245 22.7118 46.9085 37.9435 24.4145 49.5773C10.247 56.7906 -20.4665 34.9058 -26.5553 7.51425C-31.5638 -30.8228 -2.47685 -65.6072 14.8848 -59.578Z"></path>
  <path fill="#91A8EB" transform="matrix(1.63266 0 0 2.03602 346.874 285.791)" d="M15.8239 -53.1606C37.9829 -52.6472 28.5313 -29.7379 25.3295 -4.50681C27.1833 22.5689 46.7229 39.9675 33.7094 46.6662C20.6959 53.3648 -17.7018 33.4438 -26.818 6.99754C-32.7583 -23.4924 -6.33505 -53.6739 15.8239 -53.1606Z"></path>
  <path fill="#312F2F" transform="matrix(0.528975 -0.0130023 0.0155035 0.630729 215.74 408.571)" d="M1.52588e-05 -128C70.6925 -128 128 -70.6925 128 -3.05176e-05C128 70.6924 70.6925 128 1.52588e-05 128C-70.6924 128 -128 70.6924 -128 -3.05176e-05C-128 -70.6925 -70.6924 -128 1.52588e-05 -128Z"></path>
  <path fill="none" stroke="black" stroke-width="7" stroke-miterlimit="4" transform="matrix(1.00146 0 0 1.00146 343 256)" d="M-117.089 71.4393C-79.7494 70.5214 -48.5922 105.87 -47.4978 150.393C-46.4034 194.916 -75.7863 231.753 -113.126 232.671C-150.466 233.588 -181.624 198.24 -182.718 153.717C-183.812 109.194 -154.429 72.3571 -117.089 71.4393Z"></path>
  <path fill="none" stroke="black" stroke-width="7" stroke-linejoin="round" transform="matrix(1.00146 0 0 1.00146 343 256)" d="M-117.089 71.4393C-117.089 71.4393 -126.663 71.6746 -128.594 71.722C-158.86 73.2876 -196.166 93.7237 -194.684 154.011C-193.202 214.298 -148.334 233.536 -125.093 232.965C-123.162 232.917 -113.126 232.671 -113.126 232.671C-113.654 232.684 -114.22 232.676 -114.821 232.646"></path>
  <path fill="#DEDEDE" transform="matrix(0.528975 -0.0130023 0.0155035 0.630729 227.724 408.277)" d="M0 -128C70.6924 -128 128 -70.6924 128 1.52588e-05C128 70.6925 70.6924 128 0 128C-70.6924 128 -128 70.6925 -128 1.52588e-05C-128 -70.6924 -70.6924 -128 0 -128Z"></path>
  <clipPath id="cl_15a">
    <path d="M225.74 327.544C263.134 326.624 294.337 362.025 295.433 406.613C296.529 451.2 267.103 488.091 229.709 489.01C192.314 489.929 161.111 454.529 160.015 409.941C158.919 365.353 188.345 328.463 225.74 327.544Z"></path>
  </clipPath>
  <g clip-path="url(#cl_15a)">
    <path fill="#F2F1F1" transform="matrix(0.504546 0.195536 -0.159648 0.599795 223.387 436.52)" d="M-170.753 -28.5016L169.944 -28.5016L169.944 28.5017L-170.753 28.5017L-170.753 -28.5016Z"></path>
    <path fill="#F2F1F1" transform="matrix(0.504546 0.195536 -0.159648 0.599795 216.277 459.363)" d="M-170.753 -5.22016L169.944 -5.22016L169.944 5.22016L-170.753 5.22016L-170.753 -5.22016Z"></path>
  </g>
  <path fill="#8B8B8B" transform="matrix(0.528975 -0.0130023 0.0155035 0.630729 231.147 407.562)" d="M0.250015 -87.5C51.4744 -87.5 93 -48.4369 93 -0.250015C93 47.9368 51.4744 87 0.250015 87C-50.9744 87 -92.5 47.9368 -92.5 -0.250015C-92.5 -48.4369 -50.9744 -87.5 0.250015 -87.5Z"></path>
  <path fill="#B0AFAF" transform="matrix(0.528975 -0.0130023 0.0155035 0.630729 227.724 408.277)" d="M0 -86C47.4965 -86 86 -47.4965 86 1.52588e-05C86 47.4965 47.4965 86 0 86C-47.4965 86 -86 47.4965 -86 1.52588e-05C-86 -47.4965 -47.4965 -86 0 -86Z"></path>
  <path fill="#8B8B8B" transform="matrix(0.528975 -0.0130023 0.0155035 0.630729 227.927 405.747)" d="M-52.3281 27.625L-52.3281 -27.6679L-46.756 -30.4055L-46.7825 24.7561L-42.4191 24.6238L-47.1314 27.6684L-52.3281 27.625ZM-50.25 21.3164C-54.7526 21.3164 -58.6058 20.4196 -61.8096 18.626C-65.0133 16.8324 -67.4625 14.3337 -69.1572 11.1299C-70.8519 7.92614 -71.6992 4.19665 -71.6992 -0.0585613C-71.6992 -4.31377 -70.8519 -8.04326 -69.1572 -11.247C-67.4625 -14.4508 -65.0133 -16.9495 -61.8096 -18.7431C-58.6058 -20.5368 -54.7526 -21.4336 -50.25 -21.4336C-47.3802 -21.4336 -44.7825 -21.0625 -42.457 -20.3203C-40.1315 -19.5781 -38.109 -18.5205 -36.3896 -17.1474C-34.6702 -15.7744 -27.78 -10.4693 -25.0591 -8.68542C-26.0599 -7.96241 -28.2099 -6.90536 -30.3965 -5.66208C-30.3965 -5.66208 -44.0898 -3.62106 -44.0898 -3.62106C-44.0898 -3.62106 -44.5166 -5.66826 -44.8506 -6.49704C-45.1846 -7.32581 -45.5989 -8.02471 -46.0937 -8.59372C-46.5885 -9.16272 -47.1637 -9.58948 -47.8193 -9.87399C-48.4749 -10.1585 -49.2109 -10.3007 -50.0273 -10.3007C-51.3385 -10.3007 -52.4765 -9.92965 -53.4414 -9.18747C-54.4062 -8.44528 -55.1546 -7.31963 -55.6865 -5.81051C-56.2184 -4.3014 -56.4844 -2.40882 -56.4844 -0.13278C-56.4844 2.11852 -56.2184 4.0111 -55.6865 5.54495C-55.1546 7.07881 -54.4062 8.23538 -53.4414 9.01468C-52.4765 9.79398 -51.3385 10.1836 -50.0273 10.1836C-49.2109 10.1836 -48.4749 10.0352 -47.8193 9.73831C-47.1637 9.44144 -46.5823 9.00231 -46.0752 8.42093C-45.568 7.83955 -45.8968 6.99341 -44.8135 6.25003C-43.7301 5.50666 -38.8901 1.52311 -38.7417 0.40983C-38.7417 0.40983 -30.3965 5.28519 -30.3965 5.28519C-30.3965 5.28519 -31.2747 9.97952 -32.2891 11.9463C-33.3034 13.9131 -34.6641 15.5954 -36.3711 16.9932C-38.0781 18.391 -40.1006 19.461 -42.4385 20.2032C-44.7764 20.9453 -47.3802 21.3164 -50.25 21.3164ZM-24.5332 27.625L-24.5332 16.8633L-3.90038 -0.207029C-3.90038 -0.207029 -1.36457 -2.41504 -0.374987 -3.41699C0.614597 -4.41894 1.37534 -5.45182 1.90724 -6.51562C2.43914 -7.57943 2.70509 -8.76693 2.70509 -10.0781C2.70509 -11.4883 2.40203 -12.6943 1.79591 -13.6963C1.18979 -14.6982 0.361015 -15.4714 -0.690416 -16.0156C-1.74185 -16.5599 -2.96027 -16.832 -4.34569 -16.832C-5.73111 -16.832 -6.94953 -16.5537 -8.00096 -15.9971C-9.05239 -15.4404 -6.29219 -13.7058 -5.86799 -12.6284C-7.10777 -11.907 -9.37626 -10.5827 -11.3223 -9.63281C-11.3223 -9.63281 -25.5723 -9.63281 -25.5723 -9.63281C-25.5723 -9.63281 -24.7002 -16.8568 -22.956 -19.6523C-21.2119 -22.4479 -18.7441 -24.6064 -15.5527 -26.1279C-12.3613 -27.6494 -8.62564 -28.4102 -4.34569 -28.4102C0.082695 -28.4102 3.91733 -27.7051 7.15821 -26.2949C10.3991 -24.8848 12.904 -22.8994 14.6729 -20.3389C16.4417 -17.7783 17.3262 -14.7786 17.3262 -11.3398C17.3262 -9.21224 16.8871 -7.10318 16.0088 -5.01269C15.1305 -2.9222 13.5534 -0.602863 11.2774 1.94531C9.00131 4.49349 5.74806 7.51172 1.51759 11C1.51759 11 -3.67772 15.3047 -3.67772 15.3047L-3.67772 15.6758L17.9199 15.6758L23.3601 24.6527L17.9199 27.625L-24.5332 27.625ZM45.3067 28.3672C41.0514 28.3672 37.2787 27.6188 33.9883 26.1221C30.6979 24.6254 28.1126 22.5534 26.2324 19.9063C24.3522 17.2591 23.3874 14.2162 23.3379 10.7774C23.3379 10.7774 28.8025 7.8255 28.8025 7.8255L37.959 10.7774C37.959 10.7774 38.293 13.14 38.961 14.0801C39.6289 15.0202 40.5195 15.7438 41.6328 16.251C42.7461 16.7582 43.9707 17.0117 45.3067 17.0117C46.8405 17.0117 48.1826 16.684 49.333 16.0284C50.4834 15.3728 51.3864 14.4512 52.042 13.2637C52.6976 12.0762 53.0254 10.6784 53.0254 9.07034C53.0254 7.43753 52.6976 6.02119 52.042 4.82132C51.3864 3.62145 50.4834 2.69372 49.333 2.03812C48.1826 1.38252 46.8405 1.05472 45.3067 1.05472C43.6986 1.05472 43.4423 2.31537 43.4423 2.31537C43.4423 2.31537 38.6022 4.02347 37.959 5.35941C37.959 5.35941 24.7481 2.76175 24.7481 2.76175L26.9004 -27.6679L32.366 -30.6324L64.084 -27.6679L69.5015 -18.6128L64.084 -15.6445L39.2207 -15.6445L38.1817 -3.47262L38.4785 -3.47262C38.4785 -3.47262 40.8412 -6.54033 42.9688 -7.62887C45.0964 -8.71741 47.558 -9.26168 50.3535 -9.26168C52.8027 -9.26168 55.0726 -8.82874 57.1631 -7.96286C59.2536 -7.09697 61.072 -5.86618 62.6182 -4.27048C64.1644 -2.67477 65.3643 -0.782194 66.2178 1.40726C67.0713 3.59671 67.4981 6.00264 67.4981 8.62503C67.4981 12.4844 66.5827 15.8985 64.752 18.8672C62.9212 21.836 60.3421 24.1615 57.0147 25.8438C53.6872 27.5261 49.7845 28.3672 45.3067 28.3672Z"></path>
  <path fill="#DEDEDE" transform="matrix(0.528975 -0.0130023 0.0155035 0.630729 230.509 403.16)" d="M-51.8281 28.625L-51.8281 -26.668L-47.375 -26.668L-47.375 28.625L-51.8281 28.625ZM-49.75 22.3164C-54.2526 22.3164 -58.1058 21.4196 -61.3096 19.626C-64.5134 17.8323 -66.9626 15.3336 -68.6572 12.1299C-70.3519 8.92609 -71.1992 5.1966 -71.1992 0.941393C-71.1992 -3.31382 -70.3519 -7.04331 -68.6572 -10.2471C-66.9626 -13.4509 -64.5134 -15.9496 -61.3096 -17.7432C-58.1058 -19.5368 -54.2526 -20.4336 -49.75 -20.4336C-46.8802 -20.4336 -44.2826 -20.0625 -41.957 -19.3203C-39.6315 -18.5781 -37.6091 -17.5205 -35.8897 -16.1475C-34.1702 -14.7744 -32.8034 -13.1169 -31.7891 -11.1748C-30.7747 -9.23276 -30.1439 -7.06186 -29.8965 -4.66212C-29.8965 -4.66212 -43.5898 -2.62111 -43.5898 -2.62111C-43.5898 -2.62111 -44.0166 -4.66831 -44.3506 -5.49708C-44.6846 -6.32586 -45.099 -7.02475 -45.5938 -7.59376C-46.0885 -8.16277 -46.6637 -8.58953 -47.3193 -8.87403C-47.9749 -9.15854 -48.7109 -9.30079 -49.5273 -9.30079C-50.8385 -9.30079 -51.9766 -8.9297 -52.9414 -8.18751C-53.9062 -7.44532 -54.6546 -6.31968 -55.1865 -4.81056C-55.7184 -3.30145 -55.9844 -1.40887 -55.9844 0.867174C-55.9844 3.11848 -55.7184 5.01105 -55.1865 6.54491C-54.6546 8.07876 -53.9062 9.23534 -52.9414 10.0146C-51.9766 10.7939 -50.8385 11.1836 -49.5273 11.1836C-48.7109 11.1836 -47.9749 11.0351 -47.3193 10.7383C-46.6637 10.4414 -46.0824 10.0023 -45.5752 9.42089C-45.068 8.8395 -44.6475 8.11587 -44.3135 7.24999C-43.9795 6.3841 -43.7383 5.39452 -43.5898 4.28124C-43.5898 4.28124 -29.8965 6.28514 -29.8965 6.28514C-29.8965 6.28514 -30.7747 10.9795 -31.7891 12.9463C-32.8034 14.9131 -34.1641 16.5954 -35.8711 17.9931C-37.5781 19.3909 -39.6006 20.4609 -41.9385 21.2031C-44.2764 21.9453 -46.8802 22.3164 -49.75 22.3164ZM-24.0332 28.625L-24.0332 17.8633L-3.40038 0.792986C-3.40038 0.792986 -0.864571 -1.41502 0.125013 -2.41698C1.1146 -3.41893 1.87534 -4.4518 2.40724 -5.51561C2.93914 -6.57941 3.20509 -7.76691 3.20509 -9.07811C3.20509 -10.4883 2.90203 -11.6943 2.29591 -12.6963C1.68979 -13.6982 0.861015 -14.4713 -0.190416 -15.0156C-1.24185 -15.5599 -2.46027 -15.832 -3.84569 -15.832C-5.23111 -15.832 -6.44953 -15.5537 -7.50096 -14.9971C-8.55239 -14.4404 -9.3688 -13.6302 -9.95018 -12.5664C-10.5316 -11.5026 -10.8223 -10.1914 -10.8223 -8.63279C-10.8223 -8.63279 -25.0723 -8.63279 -25.0723 -8.63279C-25.0723 -8.63279 -24.2002 -15.8568 -22.456 -18.6523C-20.7119 -21.4479 -18.2441 -23.6064 -15.0527 -25.1279C-11.8613 -26.6494 -8.12564 -27.4101 -3.84569 -27.4101C0.582695 -27.4101 4.41733 -26.7051 7.65821 -25.2949C10.8991 -23.8847 13.404 -21.8994 15.1729 -19.3388C16.9417 -16.7783 17.8262 -13.7786 17.8262 -10.3398C17.8262 -8.21222 17.3871 -6.10317 16.5088 -4.01268C15.6305 -1.92218 14.0534 0.397152 11.7774 2.94533C9.50131 5.49351 6.24806 8.51174 2.01759 12C2.01759 12 -3.17772 16.3047 -3.17772 16.3047L-3.17772 16.6758L18.4199 16.6758L18.4199 28.625L-24.0332 28.625ZM45.8067 29.3672C41.5514 29.3672 37.7787 28.6188 34.4883 27.1221C31.1979 25.6253 28.6126 23.5534 26.7324 20.9062C24.8522 18.2591 23.8874 15.2161 23.8379 11.7773C23.8379 11.7773 38.459 11.7773 38.459 11.7773C38.459 11.7773 38.793 14.14 39.461 15.0801C40.1289 16.0202 41.0195 16.7438 42.1328 17.251C43.2461 17.7581 44.4707 18.0117 45.8067 18.0117C47.3405 18.0117 48.6826 17.6839 49.833 17.0283C50.9834 16.3727 51.8864 15.4512 52.542 14.2637C53.1976 13.0762 53.5254 11.6784 53.5254 10.0703C53.5254 8.43749 53.1976 7.02114 52.542 5.82128C51.8864 4.62141 50.9834 3.69367 49.833 3.03807C48.6826 2.38247 47.3405 2.05467 45.8067 2.05467C44.1986 2.05467 42.7328 2.43814 41.4092 3.20506C40.0856 3.97199 39.1022 5.02342 38.459 6.35936C38.459 6.35936 25.2481 3.76171 25.2481 3.76171L27.4004 -26.668L64.584 -26.668L64.584 -14.6445L39.7207 -14.6445L38.6817 -2.47267L38.9785 -2.47267C38.9785 -2.47267 41.3412 -5.54038 43.4688 -6.62892C45.5964 -7.71746 48.058 -8.26173 50.8535 -8.26173C53.3027 -8.26173 55.5726 -7.82878 57.6631 -6.9629C59.7536 -6.09702 61.572 -4.86622 63.1182 -3.27052C64.6644 -1.67482 65.8643 0.21776 66.7178 2.40721C67.5713 4.59667 67.9981 7.00259 67.9981 9.62499C67.9981 13.4844 67.0827 16.8984 65.252 19.8672C63.4212 22.8359 60.8421 25.1614 57.5147 26.8437C54.1872 28.526 50.2845 29.3672 45.8067 29.3672Z"></path>
  <clipPath id="cl_15c">
    <path d="M203.537 421.888L202.68 387.013L205.036 386.955L205.893 421.83L203.537 421.888ZM204.539 417.882C202.157 417.941 200.105 417.425 198.382 416.335C196.66 415.246 195.326 413.702 194.38 411.703C193.433 409.704 192.927 407.363 192.861 404.679C192.795 401.995 193.186 399.632 194.033 397.589C194.879 395.546 196.136 393.938 197.803 392.766C199.47 391.593 201.494 390.977 203.876 390.918C205.394 390.881 206.774 391.081 208.016 391.519C209.257 391.957 210.344 392.598 211.274 393.441C212.205 394.285 212.954 395.313 213.521 396.525C214.087 397.736 214.455 399.097 214.623 400.608C214.623 400.608 207.411 402.073 207.411 402.073C207.411 402.073 207.153 400.787 206.964 400.269C206.774 399.751 206.544 399.315 206.274 398.963C206.003 398.61 205.692 398.349 205.341 398.178C204.99 398.007 204.598 397.927 204.167 397.937C203.473 397.954 202.877 398.203 202.378 398.684C201.879 399.164 201.501 399.884 201.243 400.843C200.985 401.802 200.873 402.999 200.909 404.434C200.943 405.854 201.113 407.045 201.419 408.005C201.724 408.966 202.138 409.685 202.66 410.164C203.182 410.643 203.79 410.874 204.484 410.857C204.916 410.847 205.303 410.743 205.645 410.548C205.987 410.352 206.288 410.067 206.547 409.694C206.807 409.321 207.018 408.859 207.181 408.308C207.344 407.758 207.457 407.131 207.518 406.427C207.518 406.427 214.792 407.512 214.792 407.512C214.792 407.512 214.401 410.485 213.895 411.738C213.388 412.992 212.695 414.071 211.813 414.975C210.932 415.879 209.879 416.58 208.654 417.078C207.429 417.577 206.057 417.845 204.539 417.882ZM218.24 421.527L218.073 414.739L228.723 403.704C228.723 403.704 230.03 402.278 230.538 401.633C231.046 400.989 231.432 400.327 231.697 399.649C231.962 398.971 232.084 398.219 232.064 397.392C232.042 396.503 231.863 395.746 231.527 395.122C231.191 394.498 230.741 394.021 230.176 393.691C229.611 393.362 228.963 393.206 228.23 393.224C227.497 393.242 226.857 393.433 226.309 393.798C225.762 394.163 225.342 394.684 225.051 395.363C224.76 396.041 224.627 396.872 224.651 397.855C224.651 397.855 217.113 398.041 217.113 398.041C217.113 398.041 217.462 393.473 218.342 391.687C219.221 389.901 220.493 388.507 222.157 387.506C223.822 386.505 225.786 385.977 228.05 385.921C230.393 385.864 232.432 386.258 234.168 387.106C235.904 387.953 237.26 389.173 238.236 390.765C239.211 392.357 239.725 394.237 239.779 396.406C239.812 397.748 239.612 399.084 239.18 400.414C238.748 401.744 237.949 403.227 236.785 404.864C235.621 406.501 233.946 408.447 231.763 410.702C231.763 410.702 229.081 413.485 229.081 413.485L229.087 413.719L240.512 413.438L240.697 420.975L218.24 421.527ZM255.195 421.087C252.944 421.142 250.937 420.719 249.173 419.818C247.41 418.917 246.01 417.643 244.974 415.998C243.939 414.353 243.381 412.446 243.302 410.278C243.302 410.278 251.036 410.088 251.036 410.088C251.036 410.088 251.249 411.574 251.617 412.158C251.985 412.742 252.467 413.187 253.064 413.492C253.661 413.798 254.313 413.942 255.019 413.924C255.831 413.904 256.535 413.68 257.134 413.252C257.732 412.823 258.196 412.23 258.524 411.473C258.852 410.715 259.004 409.829 258.979 408.815C258.954 407.785 258.758 406.896 258.393 406.148C258.028 405.4 257.536 404.826 256.917 404.428C256.298 404.029 255.583 403.84 254.772 403.86C253.921 403.881 253.152 404.142 252.464 404.643C251.775 405.144 251.271 405.82 250.952 406.671C250.952 406.671 243.923 405.204 243.923 405.204L244.59 385.983L264.259 385.5L264.446 393.083L251.294 393.406L250.933 401.097L251.09 401.093C251.09 401.093 252.292 399.128 253.401 398.413C254.509 397.699 255.803 397.324 257.282 397.287C258.577 397.256 259.785 397.499 260.904 398.018C262.023 398.537 263.004 399.29 263.847 400.276C264.689 401.262 265.353 402.44 265.839 403.81C266.324 405.18 266.587 406.692 266.628 408.346C266.688 410.78 266.256 412.946 265.334 414.842C264.412 416.738 263.083 418.238 261.349 419.343C259.615 420.447 257.564 421.028 255.195 421.087Z"></path>
  </clipPath>
  <g clip-path="url(#cl_15c)">
    <path fill="#F2F1F1" transform="matrix(0.504546 0.195536 -0.159648 0.599795 223.387 436.52)" d="M-170.753 -28.5016L169.944 -28.5016L169.944 28.5017L-170.753 28.5017L-170.753 -28.5016Z"></path>
    <path fill="#F2F1F1" transform="matrix(0.504546 0.195536 -0.159648 0.599795 216.277 459.363)" d="M-170.753 -5.22016L169.944 -5.22016L169.944 5.22016L-170.753 5.22016L-170.753 -5.22016Z"></path>
  </g>
  <path fill="#8E8B8B" transform="matrix(0.630729 -0.0155035 0.0155035 0.630729 225.74 327.544)" d="M1.52588e-05 -7.62939e-06C1.52588e-05 -7.62939e-06 -15.2011 -7.62939e-06 -18.2664 0C-66.3551 1.3037 -126.35 32.2772 -126.35 128C-126.35 223.723 -55.9022 256 -19 256C-15.9348 256 1.52588e-05 256 1.52588e-05 256C-25.5438 256 -107.35 223.723 -107.35 128C-107.35 32.2772 -25.5438 -7.62939e-06 1.52588e-05 -7.62939e-06Z"></path>
  <clipPath id="cl_15e">
    <path d="M225.74 327.544C225.74 327.544 216.152 327.779 214.219 327.827C183.908 329.395 146.547 349.861 148.031 410.236C149.516 470.611 194.449 489.877 217.725 489.305C219.658 489.257 229.709 489.01 229.709 489.01C213.597 489.406 161.499 470.316 160.015 409.941C158.531 349.566 209.628 327.94 225.74 327.544Z"></path>
  </clipPath>
  <g clip-path="url(#cl_15e)">
    <path fill="#ACABAB" transform="matrix(0.528975 -0.0130023 0.0155035 0.630729 184.322 444.938)" d="M-105.5 -40.8039L105 -40.8039L105 40.8039L-105.5 40.8039L-105.5 -40.8039Z"></path>
    <path fill="#D6D6D6" transform="matrix(0.528975 -0.0130023 0.0155035 0.630729 180.257 440.052)" d="M-105.5 -7.02943L105 -7.02943L105 7.02949L-105.5 7.02949L-105.5 -7.02943Z"></path>
    <path fill="#D6D6D6" transform="matrix(0.530479 -0.0130393 0.0154595 0.628941 201.615 412.074)" d="M-137.32 -30.4789L136.67 -30.4789L136.67 30.4789L-137.32 30.4789L-137.32 -30.4789Z"></path>
  </g>
  <path fill="#91A8EB" transform="matrix(0.590878 0.00964063 -0.00964063 0.590878 389.776 92.8093)" d="M4.23752e-08 -22.5C14.6355 -22.5 26.5 -12.3145 26.5 0.25C26.5 12.8145 14.6355 23 -4.23752e-08 23C-14.6355 23 -26.5 12.8145 -26.5 0.25C-26.5 -12.3145 -14.6355 -22.5 4.23752e-08 -22.5Z"></path>
  <path fill="#91A8EB" transform="matrix(0.491629 0.00802131 -0.00802131 0.491629 374.733 103.225)" d="M-3.8147e-06 -22.5C14.6355 -22.5 26.5 -12.3144 26.5 0.250031C26.5 12.8145 14.6355 23 -3.8147e-06 23C-14.6356 23 -26.5 12.8145 -26.5 0.250031C-26.5 -12.3144 -14.6356 -22.5 -3.8147e-06 -22.5Z"></path>
  <path fill="#91A8EB" transform="matrix(0.267049 0.00435711 -0.00435711 0.267049 356.361 71.3024)" d="M3.8147e-06 -22.4261C14.2962 -22.4261 25.8855 -12.274 25.8855 0.249268C25.8855 12.7726 14.2962 22.9247 3.8147e-06 22.9247C-14.2962 22.9247 -25.8855 12.7726 -25.8855 0.249268C-25.8855 -12.274 -14.2962 -22.4261 3.8147e-06 -22.4261Z"></path>
  <path fill="#C1CBE8" transform="matrix(0.0718703 -0.111803 0.256925 0.165159 352.701 68.7708)" d="M0 -11.5C14.6355 -11.5 28.0061 -7.98325 28.0061 -1.63198C28.0061 4.7193 15.5059 0.400216 0.870357 0.400216C-13.7652 0.400215 -26.766 4.37692 -26.766 -1.97436C-26.766 -8.32563 -14.6355 -11.5 0 -11.5Z"></path>
  <path fill="#C1CBE8" transform="matrix(-0.162443 -0.555435 0.857234 -0.250708 374.643 128.905)" d="M0 -11.5C14.6355 -11.5 28.0061 -7.98327 28.0061 -1.632C28.0061 4.71927 15.5059 0.400194 0.870357 0.400193C-13.7652 0.400192 -26.766 4.3769 -26.766 -1.97438C-26.766 -8.32565 -14.6355 -11.5 0 -11.5Z"></path>
  <path fill="#1B2B56" transform="matrix(1.7396 -0.212721 0.0638164 0.521879 427.449 102.154)" d="M-3.80538e-06 -2.5C1.38071 -2.5 2.5 -1.38071 2.5 0C2.5 1.38071 1.38071 2.5 -3.82401e-06 2.5C-1.38072 2.5 -2.5 1.38071 -2.5 0C-2.5 -1.38071 -1.38072 -2.5 -3.80538e-06 -2.5Z"></path>
  <path fill="none" stroke="#1B2B56" stroke-width="0.5" stroke-linecap="round" stroke-linejoin="round" transform="matrix(1.7359 -0.241072 0.241072 1.7359 435.865 101.072)" d="M1.98548 0.277989C2.99638 0.254555 6.02909 0.184252 6.02909 0.184252"></path>
  <path fill="#1B2B56" transform="matrix(1.7396 -0.212721 0.0638164 0.521879 455.283 98.7507)" d="M9.31323e-09 -2.5C1.38071 -2.5 2.5 -1.38071 2.5 0C2.5 1.38071 1.38071 2.5 -9.31323e-09 2.5C-1.38071 2.5 -2.5 1.38071 -2.5 0C-2.5 -1.38071 -1.38071 -2.5 9.31323e-09 -2.5Z"></path>
  <path fill="#354B89" transform="matrix(1.42645 -0.861678 0.905069 0.706104 447.277 92.0014)" d="M7.62939e-06 -2.5C1.38072 -2.5 2.50001 -1.38071 2.50001 0C2.50001 1.38071 1.38072 2.5 7.62939e-06 2.5C-1.3807 2.5 -2.49999 1.38071 -2.49999 0C-2.49999 -1.38071 -1.3807 -2.5 7.62939e-06 -2.5Z"></path>
  <path fill="#354B89" transform="matrix(2.10554 0.289111 -0.613236 1.04501 431.726 92.9162)" d="M3.33786e-06 -2.98532C1.68306 -2.98532 3.04744 -1.64874 3.04744 1.52588e-05C3.04744 1.64877 1.68306 2.98535 3.33786e-06 2.98535C-1.68305 2.98535 -3.04744 1.64877 -3.04744 1.52588e-05C-3.04744 -1.64874 -1.68305 -2.98532 3.33786e-06 -2.98532Z"></path>
  <path fill="none" stroke="white" stroke-width="5" stroke-linecap="round" stroke-linejoin="round" transform="matrix(1.50219 0 0 1.50219 258.877 362.655)" d=""></path>
  <path fill="none" stroke="white" stroke-width="5" stroke-linecap="round" stroke-linejoin="round" transform="matrix(1.11139 0 0 1.11139 243.355 245.985)" d=""></path>
</svg>