<?xml version="1.0" encoding="utf-8"?>
<svg xmlns="http://www.w3.org/2000/svg" xmlns:xlink="http://www.w3.org/1999/xlink" width="512" height="512">
  <path fill="none" stroke="black" stroke-width="6" stroke-linejoin="round" transform="matrix(1.8 0 0 1.52279 359.051 169.591)" d="M-13.8878 -16.9737C-10.2336 -16.9737 -7.58004 -16.9737 -4.15821 -16.9737C2.90602 -16.9737 10.0666 -12.9707 10.0666 2.73135C10.0666 18.4334 10.0666 47.7067 10.0666 56.4809C10.0666 99.4374 -53.4334 99.3952 -53.4334 56.4387C-53.4334 45.6553 -53.4334 25.833 -53.4334 13.3474C-53.4334 0.86171 -47.172 -16.9737 -31.0922 -16.9737C-29.8885 -16.9737 -28.7536 -16.9737 -27.6811 -16.9737"></path>
  <path fill="none" stroke="black" stroke-width="6" stroke-linejoin="round" transform="matrix(1.8 0 0 1.64041 359.051 251.837)" d="M-53.4333 0.00139737C-53.455 -42.6211 10.0449 -42.6536 10.0667 -0.0310619C10.0754 16.8886 10.0898 45.1138 10.0988 62.6485C10.1019 68.8093 1.59777 80.1292 -21.6422 80.4116C-44.8821 80.694 -53.3976 69.7773 -53.4001 64.9753C-53.4091 47.3378 -53.4269 12.4878 -53.4333 0.00139737Z"></path>
  <path fill="#503F7E" transform="matrix(1.8 0 0 1.52279 359.051 169.591)" d="M-53.4334 13.3474C-53.4334 0.861706 -47.172 -16.9737 -31.0922 -16.9737C-15.0124 -16.9737 -11.2225 -16.9737 -4.15821 -16.9737C2.90602 -16.9737 10.0666 -12.9707 10.0666 2.73135C10.0666 18.4334 10.0666 47.7067 10.0666 56.4809C10.0666 99.4374 -53.4334 99.3952 -53.4334 56.4387C-53.4334 45.6553 -53.4334 25.833 -53.4334 13.3474Z"></path>
  <path fill="#503F7E" transform="matrix(1.8 0 0 1.64041 359.051 251.837)" d="M-53.4333 0.00139618C-53.455 -42.6211 10.0449 -42.6536 10.0667 -0.0310631C10.0754 16.8886 10.0898 45.1138 10.0988 62.6485C10.1019 68.8093 1.59777 80.1292 -21.6422 80.4116C-44.8821 80.694 -53.3976 69.7773 -53.4001 64.9753C-53.4091 47.3378 -53.4269 12.4878 -53.4333 0.00139618Z"></path>
  <path fill="none" stroke="black" stroke-width="5" stroke-linejoin="round" transform="matrix(1.67985 0 0 1.8 269.501 356.202)" d="M5.12361 -15.6813C23.327 -14.8461 36.0376 -10.0858 33.5441 37.2458C33.2411 51.3501 36.3665 66.3225 21.3884 74.0048C9.8197 73.9127 -3.10372 74.7191 -19.5684 74.4546C-30.4075 65.9764 -29.8738 50.2665 -29.5422 33.4471C-27.7115 -13.0109 -13.0798 -16.5165 5.12361 -15.6813Z"></path>
  <path fill="#453279" transform="matrix(1.67985 0 0 1.8 269.501 356.202)" d="M5.12361 -15.6813C23.327 -14.8461 36.0376 -10.0858 33.5441 37.2458C33.2411 51.3501 36.3665 66.3225 21.3884 74.0048C9.8197 73.9127 -3.10372 74.7191 -19.5684 74.4546C-30.4075 65.9764 -29.8738 50.2665 -29.5422 33.4471C-27.7115 -13.0109 -13.0798 -16.5165 5.12361 -15.6813Z"></path>
  <path fill="none" stroke="black" stroke-width="5" stroke-linejoin="round" transform="matrix(1.67985 0 0 1.8 191.63 362.835)" d="M1.14441e-05 -14.3439C18.2254 -14.3439 31.1711 -10.1719 31.1712 37.2169C31.7865 56.0934 34.5752 69.036 19.1016 75.646C3.62799 76.0176 -7.05902 76.224 -21.8955 75.8837C-36.732 69.3049 -32.1706 52.8104 -32.0389 36.314C-32.655 -10.1719 -18.2254 -14.3439 1.14441e-05 -14.3439Z"></path>
  <path fill="none" stroke="black" stroke-width="5" stroke-linejoin="round" transform="matrix(1.79976 0.0276995 -0.0293645 1.69771 275.318 279.649)" d="M-11.3238 -80.2543C25.8014 -80.2543 54.9476 -94.6926 58.9092 -40.8672C62.8708 12.9582 37.0524 74.7499 0.0572919 75.3534C-14.1177 75.5847 -17.7665 75.6442 -48.2096 76.1409C-78.6526 76.6376 -84.25 60.12 -84.25 9.53674e-07C-86.6294 -86.0849 -88.6034 -78.4854 -12.7475 -80.2208"></path>
  <path fill="#503F7E" transform="matrix(1.67985 0 0 1.8 191.63 362.835)" d="M1.14441e-05 -14.3439C18.2254 -14.3439 31.1711 -10.1719 31.1712 37.2169C31.7865 56.0934 34.5752 69.036 19.1016 75.646C3.62799 76.0176 -7.05902 76.224 -21.8955 75.8837C-36.732 69.3049 -32.1706 52.8104 -32.0389 36.314C-32.655 -10.1719 -18.2254 -14.3439 1.14441e-05 -14.3439Z"></path>
  <path fill="none" stroke="black" stroke-width="5" stroke-linejoin="round" transform="matrix(1.53139 0 0 1.39334 226.061 125.584)" d="M1.90735e-06 -40C20.9426 -40 35.0096 -26.8589 47.8597 -2.20017C49.1253 -3.81498 50.3123 -3.57652 51.1974 -3.11681C52.0824 -2.6571 52.5509 -1.60561 52.2206 -0.665335C53.8523 0.0632067 55.2854 1.47333 55.8775 2.67699C56.9197 4.79567 57.6743 10.5072 53.7931 11.8212C58.5977 31.9882 20.3682 22.0914 -1.13888e-05 22.0914C-20.2357 22.0914 -45.0732 28.3281 -41.8836 12.9784C-44.6787 11.8212 -48.2008 8.95145 -46.5316 4.29176C-45.7036 1.98007 -43.8185 0.567096 -42.3936 0.567005C-41.0392 0.566917 -42.9934 -2.19999 -40.2188 -3.8149C-39.0195 -4.5129 -37.7273 -4.43211 -36.6068 -4.12355C-28.0141 -23.731 -20.4124 -40 1.90735e-06 -40Z"></path>
  <path fill="#503F7E" transform="matrix(1.79976 0.0276995 -0.0293645 1.69771 275.318 279.649)" d="M-11.3238 -80.2543C25.8014 -80.2543 54.9476 -94.6926 58.9092 -40.8672C62.8708 12.9582 37.0524 74.7499 0.0572919 75.3534C-14.1177 75.5847 -17.7665 75.6442 -48.2096 76.1409C-78.6526 76.6376 -84.25 60.12 -84.25 9.53674e-07C-86.6442 -86.62 -88.6279 -78.3873 -11.3238 -80.2543Z"></path>
  <clipPath id="cl_473">
    <path d="M257.294 143.087C324.111 144.115 376.991 120.411 382.54 211.9C388.09 303.39 339.808 407.579 273.208 407.579C247.69 407.579 241.121 407.579 186.316 407.579C131.512 407.579 121.923 379.382 123.688 277.316C121.923 130.193 118.111 144.115 257.294 143.087Z"></path>
  </clipPath>
  <g clip-path="url(#cl_473)">
    <path fill="#655494" transform="matrix(1.8 0 0 1.8 312.444 261.728)" d="M-0.158644 -48.2655C25.513 -48.2655 46.324 -26.6563 46.324 0C46.324 26.6563 25.513 48.2655 -0.158644 48.2655C-25.8303 48.2655 -46.6413 26.6563 -46.6413 0C-46.6413 -26.6563 -25.8303 -48.2655 -0.158644 -48.2655Z"></path>
  </g>
  <path fill="none" stroke="black" stroke-width="2" stroke-linejoin="round" transform="matrix(3.88825 -0.763212 0.691401 3.5224 232.86 47.3358)" d="M-4.34758 -5.25471C-4.34758 -11.5047 3.66088 -11.5047 3.66088 -5.25472C3.66088 0.995284 3.66088 12.5 3.66088 12.5L-4.57314 12.5C-4.57314 12.5 -4.34758 0.995284 -4.34758 -5.25471Z"></path>
  <path fill="none" stroke="black" stroke-width="2" stroke-linejoin="round" transform="matrix(3.42951 -0.673169 0.691401 3.5224 198.719 52.7355)" d="M-5.1645 -6.50116C-5.1645 -12.7512 6 -12.7512 6 -6.50116C6 -0.251159 6 12.5 6 12.5L-6 12.5C-6 12.5 -5.1645 -0.25116 -5.1645 -6.50116Z"></path>
  <path fill="#453279" transform="matrix(3.88825 -0.763212 0.691401 3.5224 232.86 47.3358)" d="M-4.34758 -5.25471C-4.34758 -11.5047 3.66088 -11.5047 3.66088 -5.25472C3.66088 0.995284 3.66088 12.5 3.66088 12.5L-4.57314 12.5C-4.57314 12.5 -4.34758 0.995284 -4.34758 -5.25471Z"></path>
  <path fill="none" stroke="#161616" stroke-width="0.5" stroke-linecap="round" stroke-linejoin="round" transform="matrix(3.88825 -0.763212 0.691401 3.5224 228.067 27.8041)" d="M4.06863e-06 1.51652L3.35385e-06 10.5382"></path>
  <path fill="#503F7E" transform="matrix(3.42163 -0.671621 0.691401 3.5224 198.672 52.7448)" d="M-5.16451 -6.50117C-5.16451 -12.7512 6 -12.7512 6 -6.50117C6 -0.25117 6 12.5 6 12.5L-6 12.5C-6 12.5 -5.16451 -0.251171 -5.16451 -6.50117Z"></path>
  <path fill="none" stroke="#161616" stroke-width="0.5" stroke-linecap="round" stroke-linejoin="round" transform="matrix(3.5224 -0.691401 0.691401 3.5224 198.866 32.7301)" d="M9.72213e-07 2.6499e-08L4.78691e-06 10.5382"></path>
  <path fill="none" stroke="black" stroke-width="7" stroke-linejoin="round" transform="translate(256 256)" d="M-81.3825 -151.663L22.7828 -166.441C22.7828 -166.441 8.25268 -237.613 -39.0139 -229.526C-41.502 -229.101 -43.6474 -228.116 -45.5417 -226.754C-46.4177 -218.207 -49.1667 -201.898 -73.2384 -200.476C-83.2886 -178.08 -81.3825 -151.663 -81.3825 -151.663Z"></path>
  <path fill="none" stroke="black" stroke-width="7" stroke-miterlimit="4" transform="translate(256 256)" d="M-38.094 -237.059C-33.1727 -237.757 -28.6172 -234.333 -27.9191 -229.412C-27.2209 -224.491 -30.6444 -219.935 -35.5657 -219.237C-40.487 -218.539 -45.0424 -221.962 -45.7406 -226.884C-46.4388 -231.805 -43.0153 -236.36 -38.094 -237.059Z"></path>
  <path fill="#E3CEC2" transform="matrix(0.556923 -0.0790095 0.0790095 0.556923 219.17 27.8522)" d="M-3.33786e-06 -16C8.83655 -16 16 -8.83659 16 -3.05176e-05C16 8.83653 8.83655 16 -3.33786e-06 16C-8.83656 16 -16 8.83653 -16 -3.05176e-05C-16 -8.83659 -8.83656 -16 -3.33786e-06 -16Z"></path>
  <path fill="#8D5A3E" transform="matrix(0.556923 -0.0790095 0.0790095 0.556923 167.141 105.398)" d="M13.4248 -3.05176e-05L200.462 -3.05176e-05C200.462 -3.05176e-05 192.659 -128.902 107.443 -126.472C102.958 -126.344 98.9354 -125.146 95.2612 -123.223C91.5849 -108.397 82.6738 -80.3768 39.9489 -83.8848C16.6664 -46.9736 13.4248 -3.05176e-05 13.4248 -3.05176e-05Z"></path>
  <path fill="#4A4848" transform="matrix(0.504494 -0.0715715 0.0228078 0.160768 225.497 86.468)" d="M1.90735e-06 -116.5C64.3412 -116.5 116.5 -64.3411 116.5 0.000125542C116.5 64.3413 64.3412 116.5 1.90735e-06 116.5C-64.3412 116.5 -116.5 64.3413 -116.5 0.000118598C-116.5 -64.3411 -64.3412 -116.5 1.90735e-06 -116.5Z"></path>
  <path fill="none" stroke="black" stroke-width="7" stroke-miterlimit="4" transform="translate(256 256)" d="M-31.957 -177.781C3.87614 -182.865 34.1142 -178.6 35.5817 -168.256C37.0492 -157.912 9.19036 -145.406 -26.6427 -140.322C-62.4759 -135.239 -92.714 -139.503 -94.1814 -149.847C-95.6489 -160.191 -67.7901 -172.698 -31.957 -177.781Z"></path>
  <path fill="#C9B1AA" transform="matrix(0.556923 -0.0790095 0.0228078 0.160768 226.7 96.9483)" d="M-0.519162 93.3573C63.822 93.3573 81.6545 -40.5054 116.5 0C116.333 7.78602 114.666 35.3784 103.443 64.6424C92.2186 93.9064 32.9112 142.08 1.25538 142.08C-34.5183 142.08 -86.5851 95.3331 -99.0913 78.9829C-111.597 62.6327 -116.509 26.4158 -116.5 0C-66.3811 -27.319 -64.8603 93.3573 -0.519162 93.3573Z"></path>
  <path fill="#65524C" transform="matrix(0.447062 -0.0634237 0.0183086 0.129054 226.7 96.9483)" d="M-3.8147e-06 -116.5C64.3412 -116.5 116.5 -64.3412 116.5 0C116.5 64.3412 64.3412 116.5 -3.8147e-06 116.5C-64.3412 116.5 -116.5 64.3412 -116.5 0C-116.5 -64.3412 -64.3412 -116.5 -3.8147e-06 -116.5Z"></path>
  <clipPath id="cl_474">
    <path d="M224.567 81.9135C253.332 77.8327 277.605 81.2559 278.783 89.5594C279.961 97.8629 257.598 107.902 228.833 111.983C200.069 116.064 175.795 112.641 174.617 104.337C173.439 96.0336 195.803 85.9942 224.567 81.9135Z"></path>
  </clipPath>
  <g clip-path="url(#cl_474)">
    <path fill="#857069" transform="matrix(1.7889 -0.253787 0.253787 1.7889 184.668 87.0036)" d="M6.3453 -18.4774C15.1819 -18.4774 19.9785 -8.83655 25.4977 7.48038e-06C40.8823 25.7165 8.83656 21.8364 2.5928e-06 19.1869C-8.83655 16.5373 -16 8.83656 -16 7.62939e-06C-16 -8.83655 -2.49126 -18.4774 6.3453 -18.4774Z"></path>
  </g>
  <clipPath id="cl_475">
    <path d="M174.617 104.337L278.783 89.5594C278.783 89.5594 264.253 18.3875 216.986 26.4736C214.498 26.8993 212.353 27.884 210.458 29.2456C209.582 37.7928 206.833 54.1021 182.762 55.5241C172.711 77.9203 174.617 104.337 174.617 104.337Z"></path>
  </clipPath>
  <g clip-path="url(#cl_475)">
    <path fill="#65524C" transform="matrix(0.682449 -0.0968176 0.0594143 0.4188 196.811 36.0466)" d="M0 -50.4999C11.1423 -50.4999 26.7229 -45.7371 27.5442 -33.3092C28.6357 -16.7925 29.2617 -6.93537 29.2617 5.94999C29.2617 33.8404 20.7107 50.5001 0 50.5001C-20.7107 50.5001 -29.0363 45.6072 -29.0363 17.7168C-29.0363 -10.1735 -20.7107 -50.4999 0 -50.4999Z"></path>
    <path fill="#714035" transform="matrix(0.298708 -0.253155 0.253155 0.298708 246.6 41.9243)" d="M-46.3834 -19.9076C-36.9946 -19.9076 -29.3834 -27.5188 -29.3834 -36.9076L29.3834 -36.9076C29.3834 -27.5188 36.9946 -19.9076 46.3834 -19.9076L46.3834 19.9075C36.9946 19.9075 29.3834 27.5187 29.3834 36.9075L-29.3834 36.9075C-29.3834 27.5187 -36.9946 19.9075 -46.3834 19.9075L-46.3834 -19.9076Z"></path>
  </g>
  <clipPath id="cl_477">
    <path d="M193.811 14.8972C201.415 13.8184 212.331 14.3046 213.63 19.4299C215.356 26.2415 216.369 30.309 217.134 35.7054C218.791 47.3859 213.946 55.1909 199.812 57.196C185.678 59.2012 179.705 57.9581 178.048 46.2776C176.391 34.5971 179.677 16.9024 193.811 14.8972Z"></path>
  </clipPath>
  <g clip-path="url(#cl_477)">
    <clipPath id="cl_478">
      <path d="M174.617 104.337L278.783 89.5594C278.783 89.5594 264.253 18.3875 216.986 26.4736C214.498 26.8993 212.353 27.884 210.458 29.2456C209.582 37.7928 206.833 54.1021 182.762 55.5241C172.711 77.9203 174.617 104.337 174.617 104.337Z"></path>
    </clipPath>
    <g clip-path="url(#cl_478)">
      <path fill="#857069" transform="matrix(1.7889 -0.253787 0.253787 1.7889 180.32 58.3615)" d="M0 -16C8.83656 -16 12.0102 -8.83656 16.201 -1.21452e-06C20.3918 8.83655 8.83656 16 0 16C-8.83656 16 -16 8.83656 -16 0C-16 -8.83656 -8.83656 -16 0 -16Z"></path>
    </g>
  </g>
  <path fill="none" stroke="black" stroke-width="7" stroke-linejoin="round" transform="translate(256 256)" d="M-94.1814 -149.847C-95.7187 -160.683 -92.6212 -163.64 -92.6212 -163.64C-89.6255 -167.862 -85.9393 -171.461 -81.0144 -174.571"></path>
  <path fill="none" stroke="black" stroke-width="7" stroke-linejoin="round" transform="translate(256 256)" d="M16.2889 -188.499C23.4833 -186.783 28.5745 -184.044 31.5792 -180.471C31.5792 -180.471 35.9724 -177.044 35.7084 -169.825"></path>
  <path fill="#503F7E" transform="matrix(1.53139 0 0 1.39334 226.061 125.584)" d="M1.90735e-06 -40C20.9426 -40 35.0096 -26.8589 47.8597 -2.20017C49.1253 -3.81498 50.3123 -3.57652 51.1974 -3.11681C52.0824 -2.6571 52.5509 -1.60561 52.2206 -0.665335C53.8523 0.0632067 55.2854 1.47333 55.8775 2.67699C56.9197 4.79567 57.6743 10.5072 53.7931 11.8212C58.5977 31.9882 20.3682 22.0914 -1.13888e-05 22.0914C-20.2357 22.0914 -45.0732 28.3281 -41.8836 12.9784C-44.6787 11.8212 -48.2008 8.95145 -46.5316 4.29176C-45.7036 1.98007 -43.8185 0.567096 -42.3936 0.567005C-41.0392 0.566917 -42.9934 -2.19999 -40.2188 -3.8149C-39.0195 -4.5129 -37.7273 -4.43211 -36.6068 -4.12355C-28.0141 -23.731 -20.4124 -40 1.90735e-06 -40Z"></path>
  <path fill="#E3CEC2" transform="matrix(0.556923 -0.0790095 0.0790095 0.556923 161.819 106.153)" d="M0 -3.05176e-05C0 -19.4564 6.19049 -23.8887 6.19049 -23.8887C25.0053 -43.7609 53.1913 -52.4203 117 -52.4203C180.809 -52.4203 217.711 -40.5795 229.005 -22.5C229.005 -22.5 236.876 -14.3389 233 -6.10352e-05C233 -6.10352e-05 222.592 -33.1384 117.06 -33.1384C11.5269 -33.1384 0 -3.05176e-05 0 -3.05176e-05Z"></path>
  <path fill="#C9B1AA" transform="matrix(0.556923 -0.0790095 0.0228078 0.160768 226.7 96.9483)" d="M1.90735e-06 -116.5C64.3412 -116.5 116.5 -64.3412 116.5 0C116.333 7.78602 114.079 -0.846931 92.5947 -2.56885C90.1363 -68.6432 33.7083 -93.0964 2.0524 -93.0964C-33.7213 -93.0964 -91.7603 -68.5196 -92.7458 3.01566C-107.568 13.6071 -116.5 28.5675 -116.5 0C-116.5 -64.3412 -64.3412 -116.5 1.90735e-06 -116.5Z"></path>
  <clipPath id="cl_479">
    <path d="M193.811 14.8972C201.415 13.8184 212.331 14.3046 213.63 19.4299C215.356 26.2415 216.369 30.309 217.134 35.7054C218.791 47.3859 213.946 55.1909 199.812 57.196C185.678 59.2012 179.705 57.9581 178.048 46.2776C176.391 34.5971 179.677 16.9024 193.811 14.8972Z"></path>
  </clipPath>
  <g clip-path="url(#cl_479)">
    <path fill="#503F7E" transform="matrix(3.43886 -0.675003 0.691401 3.5224 198.663 52.7465)" d="M-5.16451 -6.50117C-5.16451 -12.7512 6 -12.7512 6 -6.50117C6 -0.251166 6 12.5 6 12.5L-6 12.5C-6 12.5 -5.1645 -0.251167 -5.16451 -6.50117Z"></path>
    <path fill="none" stroke="#161616" stroke-width="0.5" stroke-linecap="round" stroke-linejoin="round" transform="matrix(3.5224 -0.691401 0.691401 3.5224 199.125 32.7301)" d="M4.95376e-07 7.65589e-06L4.31007e-06 10.5382"></path>
  </g>
  <clipPath id="cl_47b">
    <path d="M226.061 69.8503C258.132 69.8503 279.674 88.1603 299.352 122.518C301.29 120.268 303.108 120.601 304.463 121.241C305.819 121.882 306.536 123.347 306.03 124.657C308.529 125.672 310.724 127.637 311.63 129.314C313.227 132.266 314.382 140.224 308.438 142.055C315.796 170.155 257.252 156.365 226.06 156.365C195.072 156.365 157.036 165.055 161.921 143.667C157.64 142.055 152.247 138.056 154.803 131.564C156.071 128.343 158.958 126.374 161.14 126.374C163.214 126.374 160.221 122.519 164.47 120.269C166.307 119.296 168.285 119.409 170.001 119.838C183.16 92.5185 194.801 69.8503 226.061 69.8503Z"></path>
  </clipPath>
  <g clip-path="url(#cl_47b)">
    <path fill="#7463A5" transform="matrix(1.8 2.98023e-08 0.00759348 1.8 224.4 110.441)" d="M0 -5.5C3.86599 -5.5 7 -2.92564 7 0.25C7 3.42564 3.86599 6 0 6C-3.86599 6 -7 3.42564 -7 0.25C-7 -2.92564 -3.86599 -5.5 0 -5.5Z"></path>
    <path fill="#7463A5" transform="matrix(1.83618 3.04014e-08 0.00759348 1.8 276.948 102.295)" d="M-9.53674e-07 -5.00001C2.76142 -5.00001 5 -2.6495 5 0.249992C5 3.14949 2.76142 5.49999 -9.53674e-07 5.49999C-2.76142 5.49999 -5 3.14949 -5 0.249992C-5 -2.6495 -2.76142 -5.00001 -9.53674e-07 -5.00001Z"></path>
    <path fill="none" stroke="#131212" stroke-width="1" stroke-linecap="round" stroke-linejoin="round" transform="matrix(2.30699 -0.373724 0.274137 1.69224 255.18 95.5994)" d="M4.88246e-07 7.21529e-06L2.92891 -0.71456"></path>
    <path fill="none" stroke="#131212" stroke-width="1" stroke-linecap="round" stroke-linejoin="round" transform="matrix(2.30699 -0.373724 0.274137 1.69224 233.429 94.7697)" d="M3.57628e-07 -1.48459e-07L4.25731 1.79213"></path>
    <path fill="#131212" transform="matrix(2.47104 -0.400299 0.405754 2.50471 247.214 97.8799)" d="M-4.99596e-07 -2.15485e-07L1.9614 0.352738L0.915089 1.42246L-4.99596e-07 -2.15485e-07Z"></path>
    <path fill="none" stroke="#131212" stroke-width="0.5" stroke-linecap="round" stroke-linejoin="round" transform="matrix(1.93759 -0.313883 0.31816 1.96399 250.274 101.415)" d="M1.18428e-07 -0.711224L-3.72341e-06 1.1102"></path>
    <path fill="#32225E" transform="matrix(1.74285 0.441491 -0.424043 1.74552 244.062 90.0143)" d="M-2.87169e-08 -1.92716C1.62851 -1.92716 2.94867 -1.06434 2.94867 -4.39386e-08C2.94867 1.06434 1.62851 1.92716 2.87169e-08 1.92716C-1.62851 1.92716 -2.94867 1.06434 -2.94867 4.39386e-08C-2.94867 -1.06434 -1.62851 -1.92716 -2.87169e-08 -1.92716Z"></path>
    <path fill="#32225E" transform="matrix(1.71213 0.433708 -0.412468 1.69787 255.255 89.1394)" d="M-5.72205e-06 -1.89918C0.889983 -1.89918 1.61146 -1.04889 1.61146 7.60538e-06C1.61146 1.0489 0.889983 1.8992 -5.72205e-06 1.8992C-0.889995 1.8992 -1.61147 1.0489 -1.61147 7.65341e-06C-1.61147 -1.04889 -0.889995 -1.89918 -5.72205e-06 -1.89918Z"></path>
  </g>
  <path fill="none" stroke="black" stroke-width="4" stroke-linejoin="round" transform="matrix(1.8 0 0 1.8 353.383 164.528)" d="M-11.7479 -12.9046C-11.318 -13.5165 -10.7601 -14.1187 -10.0572 -14.7065C-5.47351 -18.5399 3.93804 -16.1165 4.43081 -14.7065C7.46664 -16.1165 10.8961 -16.6614 15.0174 -13.9738C19.1387 -11.2862 16.2386 -4.86793 16.6118 -4.55444C16.985 -4.24095 25.2116 0.494543 17.5976 8.33766C16.6439 8.92035 15.7365 9.39702 14.8735 9.77867"></path>
  <path fill="#7463A5" transform="matrix(1.8 0 0 1.8 353.383 164.528)" d="M-0.116455 0C-2.60165 -0.66394 -7.05858 1.11792 -10.0572 -2.65576C-13.0559 -6.42944 -14.6409 -10.8732 -10.0572 -14.7065C-5.47351 -18.5399 3.93804 -16.1165 4.43081 -14.7065C7.46664 -16.1165 10.8961 -16.6614 15.0174 -13.9738C19.1387 -11.2862 16.2386 -4.86793 16.6118 -4.55444C16.985 -4.24095 25.2116 0.494543 17.5976 8.33766C2.9012 17.3171 -0.809986 1.11792 -0.116455 0Z"></path>
  <path fill="none" stroke="black" stroke-width="6" stroke-linejoin="round" transform="matrix(1.8 0 0 1.8 170.253 262.174)" d="M-16.1104 5.36454C-24.1575 -33.5374 38.0261 -46.4004 46.0732 -7.49846C49.5005 9.07046 55.218 36.7105 58.77 53.8817C60.018 59.9148 53.9766 72.7196 31.2732 77.6921C8.56968 82.6647 -1.97607 73.6939 -2.94881 68.9914C-6.52156 51.7196 -13.581 17.592 -16.1104 5.36454Z"></path>
  <path fill="none" stroke="black" stroke-width="6" stroke-linecap="round" stroke-linejoin="bevel" transform="matrix(1.8 0 0 1.67094 170.253 171.927)" d="M42.9323 30.1879C44.4819 37.9497 45.8169 44.6366 46.5053 48.0849C54.8896 90.0813 -7.1992 104.422 -15.5834 62.4261C-17.6881 51.8838 -21.557 32.5046 -23.994 20.2981C-26.4309 8.0915 -23.7907 -10.7634 -8.07028 -14.4054C-6.48367 -14.773 -5.01946 -15.1122 -3.66199 -15.4267"></path>
  <path fill="#503F7E" transform="matrix(1.8 0 0 1.8 170.253 262.174)" d="M-16.1104 5.36454C-24.4917 -35.1531 37.6919 -48.0161 46.0732 -7.49846C49.5005 9.07046 55.218 36.7105 58.77 53.8817C60.018 59.9148 53.9766 72.7196 31.2732 77.6921C8.56968 82.6647 -1.97607 73.6939 -2.94881 68.9914C-6.52156 51.7196 -13.581 17.592 -16.1104 5.36454Z"></path>
  <path fill="#503F7E" transform="matrix(1.8 0 0 1.67094 170.253 171.927)" d="M-23.994 20.2981C-26.4309 8.09149 -23.7907 -10.7634 -8.07028 -14.4054C7.65009 -18.0474 11.3553 -18.9058 18.2616 -20.5058C25.1679 -22.1058 32.9498 -19.8141 36.0145 -4.46307C39.0793 10.888 44.7928 39.507 46.5053 48.0849C53.8802 85.0254 -8.20857 99.3665 -15.5834 62.4261C-17.6881 51.8838 -21.557 32.5046 -23.994 20.2981Z"></path>
</svg>