<?xml version="1.0" encoding="utf-8"?>
<svg xmlns="http://www.w3.org/2000/svg" xmlns:xlink="http://www.w3.org/1999/xlink" width="512" height="512">
  <path fill="none" stroke="black" stroke-width="6" stroke-linejoin="round" transform="matrix(1.8 0 0 1.52279 359.051 169.591)" d="M-16.0596 -16.9737C-12.4054 -16.9737 -9.75186 -16.9737 -6.33003 -16.9737C0.7342 -16.9737 7.89482 -12.9707 7.89482 2.73135C7.89482 18.4334 7.89482 47.7067 7.89482 56.4809C7.89482 99.4374 -55.6052 99.3952 -55.6052 56.4387C-55.6052 45.6553 -55.6052 25.833 -55.6052 13.3474C-55.6052 0.86171 -49.3438 -16.9737 -33.264 -16.9737C-32.0603 -16.9737 -30.9255 -16.9737 -29.853 -16.9737"></path>
  <path fill="none" stroke="black" stroke-width="6" stroke-linejoin="round" transform="matrix(1.8 0 0 1.64041 359.051 251.837)" d="M-55.6057 -0.19069C-55.3684 -42.8125 8.13061 -42.4591 7.89334 0.162789C7.79916 17.0822 7.64204 45.307 7.54443 62.8414C7.51014 69.0021 -1.06265 80.2701 -24.3039 80.4113C-47.5451 80.5524 -55.9941 69.5841 -55.9674 64.7822C-55.8692 47.145 -55.6752 12.2955 -55.6057 -0.19069Z"></path>
  <path fill="#503F7E" transform="matrix(1.8 0 0 1.52279 359.051 169.591)" d="M-55.6052 13.3474C-55.6052 0.861706 -49.3438 -16.9737 -33.264 -16.9737C-17.1842 -16.9737 -13.3943 -16.9737 -6.33003 -16.9737C0.7342 -16.9737 7.89482 -12.9707 7.89482 2.73135C7.89482 18.4334 7.89482 47.7067 7.89482 56.4809C7.89482 99.4374 -55.6052 99.3952 -55.6052 56.4387C-55.6052 45.6553 -55.6052 25.833 -55.6052 13.3474Z"></path>
  <path fill="#503F7E" transform="matrix(1.8 0 0 1.64041 359.051 251.837)" d="M-55.6057 -0.190691C-55.3684 -42.8125 8.13061 -42.4591 7.89334 0.162788C7.79916 17.0822 7.64204 45.307 7.54443 62.8414C7.51014 69.0021 -1.06265 80.2701 -24.3039 80.4113C-47.5451 80.5524 -55.9941 69.5841 -55.9674 64.7822C-55.8692 47.145 -55.6752 12.2955 -55.6057 -0.190691Z"></path>
  <path fill="none" stroke="black" stroke-width="5" stroke-linejoin="round" transform="matrix(1.67985 0 0 1.8 269.501 356.202)" d="M8.90657 -15.6784C27.1021 -14.7053 39.7709 -9.84887 36.8657 37.4623C36.4399 51.5639 39.3934 66.5014 24.4239 73.9733C12.8553 73.8811 -0.068152 74.6875 -16.5328 74.423C-27.3735 66.0027 -26.6634 50.002 -26.1855 33.1857C-23.9507 -13.2569 -9.28897 -16.6516 8.90657 -15.6784Z"></path>
  <path fill="#453279" transform="matrix(1.67985 0 0 1.8 269.501 356.202)" d="M8.90657 -15.6784C27.1021 -14.7053 39.7709 -9.84887 36.8657 37.4623C36.4399 51.5639 39.3934 66.5014 24.4239 73.9733C12.8553 73.8811 -0.068152 74.6875 -16.5328 74.423C-27.3735 66.0027 -26.6634 50.002 -26.1855 33.1857C-23.9507 -13.2569 -9.28897 -16.6516 8.90657 -15.6784Z"></path>
  <path fill="none" stroke="black" stroke-width="5" stroke-linejoin="round" transform="matrix(1.67985 0 0 1.8 191.63 362.835)" d="M1.14441e-05 -14.3439C18.2254 -14.3439 31.1711 -10.1719 31.1712 37.2169C31.7865 56.0934 34.5752 69.036 19.1016 75.646C3.62799 76.0176 -7.05902 76.224 -21.8955 75.8837C-36.732 69.3049 -32.1706 52.8104 -32.0389 36.314C-32.655 -10.1719 -18.2254 -14.3439 1.14441e-05 -14.3439Z"></path>
  <path fill="none" stroke="black" stroke-width="5" stroke-linejoin="round" transform="matrix(1.79976 0.0276995 -0.0293645 1.69771 276.782 279.649)" d="M-11.3238 -80.2543C25.8014 -80.2543 54.9476 -94.6926 58.9092 -40.8672C62.8708 12.9582 37.0524 74.7499 0.0572919 75.3534C-14.1177 75.5847 -17.7665 75.6442 -48.2096 76.1409C-78.6526 76.6376 -84.25 60.12 -84.25 0C-86.6294 -86.0849 -88.6034 -78.4854 -12.7475 -80.2208"></path>
  <path fill="#503F7E" transform="matrix(1.67985 0 0 1.8 191.63 362.835)" d="M1.14441e-05 -14.3439C18.2254 -14.3439 31.1711 -10.1719 31.1712 37.2169C31.7865 56.0934 34.5752 69.036 19.1016 75.646C3.62799 76.0176 -7.05902 76.224 -21.8955 75.8837C-36.732 69.3049 -32.1706 52.8104 -32.0389 36.314C-32.655 -10.1719 -18.2254 -14.3439 1.14441e-05 -14.3439Z"></path>
  <path fill="none" stroke="black" stroke-width="5" stroke-linejoin="round" transform="matrix(1.53139 0 0 1.39334 228.21 125.584)" d="M-1.90735e-06 -40C20.9426 -40 35.0096 -26.8589 47.8597 -2.20017C49.1253 -3.81498 50.3123 -3.57652 51.1974 -3.11681C52.0824 -2.6571 52.5509 -1.60561 52.2206 -0.665335C53.8523 0.0632067 55.2854 1.47333 55.8775 2.67699C56.9197 4.79567 57.6743 10.5072 53.7931 11.8212C58.5977 31.9882 20.3682 22.0914 -1.52035e-05 22.0914C-20.2357 22.0914 -45.0732 28.3281 -41.8836 12.9784C-44.6787 11.8212 -48.2008 8.95145 -46.5316 4.29176C-45.7036 1.98007 -43.8185 0.567096 -42.3936 0.567005C-41.0392 0.566917 -42.9934 -2.19999 -40.2188 -3.8149C-39.0195 -4.5129 -37.7273 -4.43211 -36.6068 -4.12355C-28.0141 -23.731 -20.4124 -40 -1.90735e-06 -40Z"></path>
  <path fill="#503F7E" transform="matrix(1.79976 0.0276995 -0.0293645 1.69771 276.782 279.649)" d="M-11.3238 -80.2543C25.8014 -80.2543 54.9476 -94.6926 58.9092 -40.8672C62.8708 12.9582 37.0524 74.7499 0.0572919 75.3534C-14.1177 75.5847 -17.7665 75.6442 -48.2096 76.1409C-78.6526 76.6376 -84.25 60.12 -84.25 0C-86.6442 -86.62 -88.6279 -78.3873 -11.3238 -80.2543Z"></path>
  <clipPath id="cl_3d3">
    <path d="M258.759 143.087C325.575 144.115 378.455 120.411 384.005 211.9C389.554 303.39 341.273 407.579 274.673 407.579C249.154 407.579 242.586 407.579 187.781 407.579C132.976 407.579 123.387 379.382 125.153 277.316C123.387 130.193 119.575 144.115 258.759 143.087Z"></path>
  </clipPath>
  <g clip-path="url(#cl_3d3)">
    <path fill="#655494" transform="matrix(1.8 0 0 1.8 313.908 261.728)" d="M-0.158642 -48.2655C25.513 -48.2655 46.324 -26.6563 46.324 0C46.324 26.6563 25.513 48.2655 -0.158642 48.2655C-25.8303 48.2655 -46.6413 26.6563 -46.6413 0C-46.6413 -26.6563 -25.8303 -48.2655 -0.158642 -48.2655Z"></path>
  </g>
  <path fill="none" stroke="black" stroke-width="2" stroke-linejoin="round" transform="matrix(3.88825 -0.763212 0.691401 3.5224 235.009 47.3358)" d="M-4.34758 -5.25471C-4.34758 -11.5047 3.66088 -11.5047 3.66088 -5.25471C3.66088 0.995287 3.66088 12.5 3.66088 12.5L-4.57314 12.5C-4.57314 12.5 -4.34758 0.995288 -4.34758 -5.25471Z"></path>
  <path fill="none" stroke="black" stroke-width="2" stroke-linejoin="round" transform="matrix(3.37073 -0.66163 0.691401 3.5224 201.952 52.5228)" d="M-5.16451 -6.50117C-5.16451 -12.7512 6 -12.7512 6 -6.50117C6 -0.25117 6 12.5 6 12.5L-6 12.5C-6 12.5 -5.1645 -0.251171 -5.16451 -6.50117Z"></path>
  <path fill="#453279" transform="matrix(3.88825 -0.763212 0.691401 3.5224 235.009 47.3358)" d="M-4.34758 -5.25471C-4.34758 -11.5047 3.66088 -11.5047 3.66088 -5.25471C3.66088 0.995287 3.66088 12.5 3.66088 12.5L-4.57314 12.5C-4.57314 12.5 -4.34758 0.995288 -4.34758 -5.25471Z"></path>
  <path fill="none" stroke="#161616" stroke-width="0.5" stroke-linecap="round" stroke-linejoin="round" transform="matrix(3.88825 -0.763212 0.691401 3.5224 230.216 27.8041)" d="M4.06863e-06 1.51652L3.35385e-06 10.5382"></path>
  <path fill="#503F7E" transform="matrix(3.36954 -0.661397 0.691401 3.5224 201.945 52.5242)" d="M-5.16451 -6.50117C-5.16451 -12.7512 6 -12.7512 6 -6.50117C6 -0.251166 6 12.5 6 12.5L-6 12.5C-6 12.5 -5.16451 -0.251167 -5.16451 -6.50117Z"></path>
  <path fill="none" stroke="#161616" stroke-width="0.5" stroke-linecap="round" stroke-linejoin="round" transform="matrix(3.5224 -0.691401 0.691401 3.5224 201.016 32.7301)" d="M1.44905e-06 7.65589e-06L5.26375e-06 10.5382"></path>
  <path fill="none" stroke="black" stroke-width="7" stroke-linejoin="round" transform="translate(256 256)" d="M-78.675 -151.663L25.4904 -166.441C25.4904 -166.441 10.9603 -237.613 -36.3063 -229.526C-38.7944 -229.101 -40.9398 -228.116 -42.8341 -226.754C-43.7102 -218.207 -46.4591 -201.898 -70.5308 -200.476C-80.581 -178.08 -78.675 -151.663 -78.675 -151.663Z"></path>
  <path fill="none" stroke="black" stroke-width="7" stroke-miterlimit="4" transform="translate(256 256)" d="M-35.3864 -237.059C-30.4651 -237.757 -25.9097 -234.333 -25.2115 -229.412C-24.5133 -224.491 -27.9368 -219.935 -32.8581 -219.237C-37.7794 -218.539 -42.3349 -221.962 -43.033 -226.884C-43.7312 -231.805 -40.3077 -236.36 -35.3864 -237.059Z"></path>
  <path fill="#E3CEC2" transform="matrix(0.556923 -0.0790095 0.0790095 0.556923 221.878 27.8522)" d="M-2.38419e-06 -16C8.83655 -16 16 -8.83656 16 0C16 8.83656 8.83655 16 -2.38419e-06 16C-8.83656 16 -16 8.83656 -16 0C-16 -8.83656 -8.83656 -16 -2.38419e-06 -16Z"></path>
  <path fill="#8D5A3E" transform="matrix(0.556923 -0.0790095 0.0790095 0.556923 169.848 105.398)" d="M13.4248 -6.10352e-05L200.462 -6.10352e-05C200.462 -6.10352e-05 192.659 -128.902 107.443 -126.472C102.958 -126.344 98.9355 -125.146 95.2612 -123.223C91.585 -108.397 82.6739 -80.3768 39.9489 -83.8848C16.6664 -46.9736 13.4248 -6.10352e-05 13.4248 -6.10352e-05Z"></path>
  <path fill="#4A4848" transform="matrix(0.504494 -0.0715715 0.0228078 0.160768 228.205 86.468)" d="M0 -116.5C64.3412 -116.5 116.5 -64.3411 116.5 0.000125542C116.5 64.3413 64.3412 116.5 0 116.5C-64.3412 116.5 -116.5 64.3413 -116.5 0.000118598C-116.5 -64.3411 -64.3412 -116.5 0 -116.5Z"></path>
  <path fill="none" stroke="black" stroke-width="7" stroke-miterlimit="4" transform="translate(256 256)" d="M-29.2494 -177.781C6.58372 -182.865 36.8218 -178.6 38.2893 -168.256C39.7568 -157.912 11.8979 -145.406 -23.9352 -140.322C-59.7683 -135.239 -90.0064 -139.503 -91.4739 -149.847C-92.9413 -160.191 -65.0825 -172.698 -29.2494 -177.781Z"></path>
  <path fill="#C9B1AA" transform="matrix(0.556923 -0.0790095 0.0228078 0.160768 229.408 96.9483)" d="M-0.519164 93.3573C63.822 93.3573 81.6545 -40.5054 116.5 0C116.333 7.78602 114.666 35.3784 103.443 64.6424C92.2186 93.9064 32.9112 142.08 1.25538 142.08C-34.5183 142.08 -86.5851 95.3331 -99.0913 78.9829C-111.597 62.6327 -116.509 26.4158 -116.5 0C-66.3811 -27.319 -64.8603 93.3573 -0.519164 93.3573Z"></path>
  <path fill="#65524C" transform="matrix(0.447062 -0.0634237 0.0183086 0.129054 229.408 96.9483)" d="M1.90735e-06 -116.5C64.3412 -116.5 116.5 -64.3412 116.5 0C116.5 64.3412 64.3412 116.5 1.90735e-06 116.5C-64.3412 116.5 -116.5 64.3412 -116.5 0C-116.5 -64.3412 -64.3412 -116.5 1.90735e-06 -116.5Z"></path>
  <clipPath id="cl_3d4">
    <path d="M227.275 81.9135C256.039 77.8327 280.312 81.2559 281.49 89.5594C282.668 97.8629 260.305 107.902 231.541 111.983C202.776 116.064 178.503 112.641 177.325 104.337C176.147 96.0336 198.51 85.9942 227.275 81.9135Z"></path>
  </clipPath>
  <g clip-path="url(#cl_3d4)">
    <path fill="#857069" transform="matrix(1.7889 -0.253787 0.253787 1.7889 187.375 87.0036)" d="M6.3453 -18.4774C15.1819 -18.4774 19.9785 -8.83656 25.4977 -1.49012e-07C40.8822 25.7165 8.83656 21.8364 6.85453e-07 19.1869C-8.83656 16.5373 -16 8.83656 -16 0C-16 -8.83656 -2.49126 -18.4774 6.3453 -18.4774Z"></path>
  </g>
  <clipPath id="cl_3d5">
    <path d="M177.325 104.337L281.49 89.5594C281.49 89.5594 266.96 18.3875 219.694 26.4736C217.206 26.8993 215.06 27.884 213.166 29.2456C212.29 37.7928 209.541 54.1021 185.469 55.5241C175.419 77.9203 177.325 104.337 177.325 104.337Z"></path>
  </clipPath>
  <g clip-path="url(#cl_3d5)">
    <path fill="#65524C" transform="matrix(0.682449 -0.0968176 0.0594143 0.4188 199.519 36.0466)" d="M7.62939e-06 -50.5C11.1424 -50.5 26.7229 -45.7372 27.5442 -33.3093C28.6357 -16.7925 29.2617 -6.93543 29.2617 5.94992C29.2617 33.8403 20.7107 50.5 7.62939e-06 50.5C-20.7107 50.5 -29.0363 45.6071 -29.0363 17.7168C-29.0363 -10.1736 -20.7107 -50.5 7.62939e-06 -50.5Z"></path>
    <path fill="#714035" transform="matrix(0.298708 -0.253155 0.253155 0.298708 249.308 41.9243)" d="M-46.3835 -19.9076C-36.9946 -19.9076 -29.3835 -27.5187 -29.3835 -36.9076L29.3834 -36.9076C29.3834 -27.5187 36.9946 -19.9076 46.3834 -19.9076L46.3834 19.9076C36.9946 19.9076 29.3834 27.5187 29.3834 36.9076L-29.3835 36.9076C-29.3835 27.5187 -36.9946 19.9076 -46.3835 19.9076L-46.3835 -19.9076Z"></path>
  </g>
  <clipPath id="cl_3d7">
    <path d="M196.518 14.8972C204.122 13.8184 215.038 14.3046 216.337 19.4299C218.063 26.2415 219.076 30.309 219.842 35.7054C221.499 47.3859 216.653 55.1909 202.519 57.196C188.385 59.2012 182.413 57.9581 180.756 46.2776C179.098 34.5971 182.384 16.9024 196.518 14.8972Z"></path>
  </clipPath>
  <g clip-path="url(#cl_3d7)">
    <clipPath id="cl_3d8">
      <path d="M177.325 104.337L281.49 89.5594C281.49 89.5594 266.96 18.3875 219.694 26.4736C217.206 26.8993 215.06 27.884 213.166 29.2456C212.29 37.7928 209.541 54.1021 185.469 55.5241C175.419 77.9203 177.325 104.337 177.325 104.337Z"></path>
    </clipPath>
    <g clip-path="url(#cl_3d8)">
      <path fill="#857069" transform="matrix(1.7889 -0.253787 0.253787 1.7889 183.028 58.3615)" d="M1.90735e-06 -16C8.83656 -16 12.0102 -8.83655 16.201 6.41487e-06C20.3918 8.83656 8.83656 16 1.90735e-06 16C-8.83655 16 -16 8.83656 -16 7.62939e-06C-16 -8.83655 -8.83655 -16 1.90735e-06 -16Z"></path>
    </g>
  </g>
  <path fill="none" stroke="black" stroke-width="7" stroke-linejoin="round" transform="translate(256 256)" d="M-91.4739 -149.847C-93.0111 -160.683 -89.9137 -163.64 -89.9137 -163.64C-86.9179 -167.862 -83.2317 -171.461 -78.3068 -174.571"></path>
  <path fill="none" stroke="black" stroke-width="7" stroke-linejoin="round" transform="translate(256 256)" d="M18.9965 -188.499C26.1909 -186.783 31.2821 -184.044 34.2868 -180.471C34.2868 -180.471 38.6799 -177.044 38.4159 -169.825"></path>
  <path fill="#503F7E" transform="matrix(1.53139 0 0 1.39334 228.21 125.584)" d="M-1.90735e-06 -40C20.9426 -40 35.0096 -26.8589 47.8597 -2.20017C49.1253 -3.81498 50.3123 -3.57652 51.1974 -3.11681C52.0824 -2.6571 52.5509 -1.60561 52.2206 -0.665335C53.8523 0.0632067 55.2854 1.47333 55.8775 2.67699C56.9197 4.79567 57.6743 10.5072 53.7931 11.8212C58.5977 31.9882 20.3682 22.0914 -1.52035e-05 22.0914C-20.2357 22.0914 -45.0732 28.3281 -41.8836 12.9784C-44.6787 11.8212 -48.2008 8.95145 -46.5316 4.29176C-45.7036 1.98007 -43.8185 0.567096 -42.3936 0.567005C-41.0392 0.566917 -42.9934 -2.19999 -40.2188 -3.8149C-39.0195 -4.5129 -37.7273 -4.43211 -36.6068 -4.12355C-28.0141 -23.731 -20.4124 -40 -1.90735e-06 -40Z"></path>
  <path fill="#E3CEC2" transform="matrix(0.556923 -0.0790095 0.0790095 0.556923 164.526 106.153)" d="M-3.05176e-05 0C-1.52588e-05 -19.4564 6.19049 -23.8887 6.19049 -23.8887C25.0053 -43.7609 53.1913 -52.4203 117 -52.4203C180.809 -52.4203 217.711 -40.5795 229.005 -22.5C229.005 -22.5 236.876 -14.3389 233 -3.05176e-05C233 -3.05176e-05 222.592 -33.1384 117.06 -33.1384C11.5269 -33.1384 -3.05176e-05 0 -3.05176e-05 0Z"></path>
  <path fill="#C9B1AA" transform="matrix(0.556923 -0.0790095 0.0228078 0.160768 229.408 96.9483)" d="M-4.76837e-07 -116.5C64.3412 -116.5 116.5 -64.3412 116.5 0C116.333 7.78602 114.079 -0.846931 92.5947 -2.56885C90.1363 -68.6432 33.7083 -93.0964 2.0524 -93.0964C-33.7213 -93.0964 -91.7603 -68.5196 -92.7458 3.01566C-107.568 13.6071 -116.5 28.5675 -116.5 0C-116.5 -64.3412 -64.3412 -116.5 -4.76837e-07 -116.5Z"></path>
  <clipPath id="cl_3d9">
    <path d="M196.518 14.8972C204.122 13.8184 215.038 14.3046 216.337 19.4299C218.063 26.2415 219.076 30.309 219.842 35.7054C221.499 47.3859 216.653 55.1909 202.519 57.196C188.385 59.2012 182.413 57.9581 180.756 46.2776C179.098 34.5971 182.384 16.9024 196.518 14.8972Z"></path>
  </clipPath>
  <g clip-path="url(#cl_3d9)">
    <path fill="#503F7E" transform="matrix(3.37672 -0.662806 0.691401 3.5224 201.916 52.5299)" d="M-5.16451 -6.50117C-5.16451 -12.7512 6 -12.7512 6 -6.50117C6 -0.251166 6 12.5 6 12.5L-6 12.5C-6 12.5 -5.1645 -0.251167 -5.16451 -6.50117Z"></path>
    <path fill="none" stroke="#161616" stroke-width="0.5" stroke-linecap="round" stroke-linejoin="round" transform="matrix(3.5224 -0.691401 0.691401 3.5224 201.868 32.7301)" d="M4.95376e-07 3.8412e-06L4.31007e-06 10.5382"></path>
  </g>
  <clipPath id="cl_3db">
    <path d="M228.21 69.8503C260.281 69.8503 281.823 88.1603 301.501 122.518C303.439 120.268 305.257 120.601 306.613 121.241C307.968 121.882 308.685 123.347 308.179 124.657C310.678 125.672 312.873 127.637 313.78 129.314C315.376 132.266 316.531 140.224 310.588 142.055C317.945 170.155 259.401 156.365 228.21 156.365C197.221 156.365 159.185 165.055 164.07 143.667C159.789 142.055 154.396 138.056 156.952 131.564C158.22 128.343 161.107 126.374 163.289 126.374C165.363 126.374 162.37 122.519 166.619 120.269C168.456 119.296 170.435 119.409 172.151 119.838C185.309 92.5185 196.95 69.8503 228.21 69.8503Z"></path>
  </clipPath>
  <g clip-path="url(#cl_3db)">
    <path fill="#7463A5" transform="matrix(1.8 2.98023e-08 0.00759348 1.8 230.229 110.441)" d="M0 -5.5C3.86599 -5.5 7 -2.92564 7 0.25C7 3.42564 3.86599 6 0 6C-3.86599 6 -7 3.42564 -7 0.25C-7 -2.92564 -3.86599 -5.5 0 -5.5Z"></path>
    <path fill="#7463A5" transform="matrix(1.83618 3.04014e-08 0.00759348 1.8 282.778 102.295)" d="M0 -5.00001C2.76142 -5.00001 5 -2.6495 5 0.249992C5 3.14949 2.76142 5.49999 0 5.49999C-2.76142 5.49999 -5 3.14949 -5 0.249992C-5 -2.6495 -2.76142 -5.00001 0 -5.00001Z"></path>
    <path fill="none" stroke="#131212" stroke-width="1" stroke-linecap="round" stroke-linejoin="round" transform="matrix(2.30699 -0.373724 0.274137 1.69224 261.009 95.5994)" d="M1.44192e-06 -4.14104e-07L2.92891 -0.714567"></path>
    <path fill="none" stroke="#131212" stroke-width="1" stroke-linecap="round" stroke-linejoin="round" transform="matrix(2.30699 -0.373724 0.274137 1.69224 239.259 94.7697)" d="M4.76837e-07 -1.48459e-07L4.25731 1.79213"></path>
    <path fill="#131212" transform="matrix(2.47104 -0.400299 0.405754 2.50471 253.043 97.8799)" d="M4.54078e-07 -4.03018e-06L1.9614 0.352734L0.91509 1.42246L4.54078e-07 -4.03018e-06Z"></path>
    <path fill="none" stroke="#131212" stroke-width="0.5" stroke-linecap="round" stroke-linejoin="round" transform="matrix(1.93759 -0.313883 0.31816 1.96399 256.103 101.415)" d="M1.18428e-07 -0.711232L-3.72341e-06 1.11019"></path>
    <path fill="#32225E" transform="matrix(1.74285 0.441491 -0.424043 1.74552 249.891 90.0143)" d="M-2.87169e-08 -1.92716C1.62851 -1.92716 2.94867 -1.06434 2.94867 -4.39386e-08C2.94867 1.06434 1.62851 1.92716 2.87169e-08 1.92716C-1.62851 1.92716 -2.94867 1.06434 -2.94867 4.39386e-08C-2.94867 -1.06434 -1.62851 -1.92716 -2.87169e-08 -1.92716Z"></path>
    <path fill="#32225E" transform="matrix(1.71213 0.433708 -0.412468 1.69787 261.084 89.1394)" d="M-5.72205e-06 -1.89919C0.889983 -1.89919 1.61146 -1.04889 1.61146 -2.40127e-08C1.61146 1.04889 0.889983 1.89919 -5.72205e-06 1.89919C-0.889995 1.89919 -1.61147 1.04889 -1.61147 2.40127e-08C-1.61147 -1.04889 -0.889995 -1.89919 -5.72205e-06 -1.89919Z"></path>
  </g>
  <path fill="none" stroke="black" stroke-width="4" stroke-linejoin="round" transform="matrix(1.8 0 0 1.8 356.202 164.528)" d="M-11.7479 -12.9046C-11.318 -13.5165 -10.7601 -14.1187 -10.0572 -14.7065C-5.47351 -18.5399 3.93804 -16.1165 4.43081 -14.7065C7.46664 -16.1165 10.8961 -16.6614 15.0174 -13.9738C19.1387 -11.2862 16.2386 -4.86793 16.6118 -4.55444C16.985 -4.24095 25.2116 0.494543 17.5976 8.33766C16.6439 8.92035 15.7365 9.39702 14.8735 9.77867"></path>
  <path fill="#7463A5" transform="matrix(1.8 0 0 1.8 356.202 164.528)" d="M-0.116455 0C-2.60165 -0.66394 -7.05858 1.11792 -10.0572 -2.65576C-13.0559 -6.42944 -14.6409 -10.8732 -10.0572 -14.7065C-5.47351 -18.5399 3.93804 -16.1165 4.43081 -14.7065C7.46664 -16.1165 10.8961 -16.6614 15.0174 -13.9738C19.1387 -11.2862 16.2386 -4.86793 16.6118 -4.55444C16.985 -4.24095 25.2116 0.494543 17.5976 8.33766C2.9012 17.3171 -0.809986 1.11792 -0.116455 0Z"></path>
  <path fill="none" stroke="black" stroke-width="6" stroke-linejoin="round" transform="matrix(1.8 0 0 1.8 170.253 262.174)" d="M21.8867 8.51898C-3.44097 -22.0854 45.4792 -62.5708 70.8068 -31.9664C81.5942 -18.9316 99.5897 2.81301 110.769 16.3216C114.697 21.0679 115.355 35.211 97.6239 50.2365C79.8923 65.262 66.3734 62.2741 63.3118 58.5746C52.0668 44.9868 29.8475 18.1384 21.8867 8.51898Z"></path>
  <path fill="none" stroke="black" stroke-width="6" stroke-linecap="round" stroke-linejoin="bevel" transform="matrix(1.8 0 0 1.67094 170.253 171.927)" d="M60.8619 6.83062C65.7433 13.0839 69.9691 18.4973 72.1244 21.2585C97.789 54.1358 49.1632 98.1287 23.4987 65.2514C17.0562 56.9982 5.21328 41.827 -2.24632 32.2709C-9.70592 22.7148 -15.5696 4.72317 -3.26266 -6.42513C-2.23295 -7.35789 -1.2691 -8.23101 -0.36411 -9.0508"></path>
  <path fill="#503F7E" transform="matrix(1.8 0 0 1.8 170.253 262.174)" d="M21.8867 8.51898C-4.4929 -23.3565 44.4272 -63.8419 70.8068 -31.9664C81.5942 -18.9316 99.5897 2.813 110.769 16.3216C114.697 21.0679 115.355 35.211 97.6239 50.2365C79.8923 65.262 66.3734 62.2741 63.3118 58.5746C52.0668 44.9868 29.8475 18.1384 21.8867 8.51898Z"></path>
  <path fill="#503F7E" transform="matrix(1.8 0 0 1.67094 170.253 171.927)" d="M-2.24632 32.2709C-9.70592 22.7148 -15.5695 4.72316 -3.26266 -6.42513C9.04423 -17.5734 11.9449 -20.201 17.3516 -25.0987C22.7583 -29.9964 30.6304 -31.8972 40.0116 -19.8794C49.3929 -7.86163 66.8823 14.5431 72.1244 21.2585C94.6992 50.1777 46.0735 94.1706 23.4987 65.2514C17.0561 56.9982 5.21328 41.8269 -2.24632 32.2709Z"></path>
</svg>