<?xml version="1.0" encoding="utf-8"?>
<svg xmlns="http://www.w3.org/2000/svg" xmlns:xlink="http://www.w3.org/1999/xlink" width="512" height="512">
  <path fill="none" stroke="black" stroke-width="6" stroke-linejoin="round" transform="matrix(1.8 0 0 1.52279 359.051 169.591)" d="M-2.33443 -16.9737C1.31979 -16.9737 3.97336 -16.9737 7.39518 -16.9737C14.4594 -16.9737 21.62 -12.9707 21.62 2.73135C21.62 18.4334 21.62 47.7067 21.62 56.4809C21.62 99.4374 -41.88 99.3952 -41.88 56.4387C-41.88 45.6553 -41.88 25.833 -41.88 13.3474C-41.88 0.86171 -35.6186 -16.9737 -19.5388 -16.9737C-18.3351 -16.9737 -17.2002 -16.9737 -16.1277 -16.9737"></path>
  <path fill="none" stroke="black" stroke-width="6" stroke-linejoin="round" transform="matrix(1.8 0 0 1.64041 359.051 251.837)" d="M-41.8712 0.573394C-42.6644 -42.0417 20.8246 -43.2235 21.6178 -0.608372C21.9327 16.3084 22.458 44.5287 22.7843 62.0604C22.899 68.2201 14.6011 79.6921 -8.62991 80.3951C-31.8609 81.098 -40.5726 70.3372 -40.662 65.536C-40.9902 47.9016 -41.6388 13.0576 -41.8712 0.573394Z"></path>
  <path fill="#503F7E" transform="matrix(1.8 0 0 1.52279 359.051 169.591)" d="M-41.88 13.3474C-41.88 0.861706 -35.6186 -16.9737 -19.5388 -16.9737C-3.45898 -16.9737 0.330944 -16.9737 7.39518 -16.9737C14.4594 -16.9737 21.62 -12.9707 21.62 2.73135C21.62 18.4334 21.62 47.7067 21.62 56.4809C21.62 99.4374 -41.88 99.3952 -41.88 56.4387C-41.88 45.6553 -41.88 25.833 -41.88 13.3474Z"></path>
  <path fill="#503F7E" transform="matrix(1.8 0 0 1.64041 359.051 251.837)" d="M-41.8712 0.573393C-42.6644 -42.0417 20.8246 -43.2235 21.6178 -0.608373C21.9327 16.3084 22.458 44.5287 22.7843 62.0604C22.899 68.2201 14.6011 79.6921 -8.62991 80.3951C-31.8609 81.098 -40.5726 70.3372 -40.662 65.536C-40.9902 47.9016 -41.6388 13.0576 -41.8712 0.573393Z"></path>
  <path fill="none" stroke="black" stroke-width="5" stroke-linejoin="round" transform="matrix(1.67985 0 0 1.8 269.501 356.202)" d="M3.24853 -15.6843C21.4653 -15.1617 34.2676 -10.6205 32.7074 36.746C32.6824 50.8531 36.1986 65.8994 21.2075 74.0589C9.63882 73.9668 -3.28459 74.7731 -19.7493 74.5086C-30.5867 65.8994 -30.4431 50.8531 -30.4431 34.0309C-29.5284 -12.4507 -14.9683 -16.207 3.24853 -15.6843Z"></path>
  <path fill="#453279" transform="matrix(1.67985 0 0 1.8 269.501 356.202)" d="M3.24853 -15.6843C21.4653 -15.1617 34.2676 -10.6205 32.7074 36.746C32.6824 50.8531 36.1986 65.8994 21.2075 74.0589C9.63882 73.9668 -3.28459 74.7731 -19.7493 74.5086C-30.5867 65.8994 -30.4431 50.8531 -30.4431 34.0309C-29.5284 -12.4507 -14.9683 -16.207 3.24853 -15.6843Z"></path>
  <path fill="none" stroke="black" stroke-width="5" stroke-linejoin="round" transform="matrix(1.67985 0 0 1.8 191.63 362.835)" d="M-7.16745 -14.2682C11.0031 -15.587 24.2565 -12.3642 28.1934 34.882C30.3751 53.6571 34.104 68.0935 19.0938 75.435C3.6202 75.8066 -7.06681 76.013 -21.9033 75.6727C-37.1317 69.92 -33.6623 55.0117 -34.9015 38.5553C-39.3776 -7.74602 -25.338 -12.9495 -7.16745 -14.2682Z"></path>
  <path fill="none" stroke="black" stroke-width="5" stroke-linejoin="round" transform="matrix(1.79976 0.0276995 -0.0293645 1.69771 261.873 279.649)" d="M-11.3238 -80.2543C25.8014 -80.2543 54.9476 -94.6926 58.9092 -40.8672C62.8708 12.9582 37.0524 74.7499 0.0572916 75.3534C-14.1177 75.5847 -17.7665 75.6442 -48.2096 76.1409C-78.6526 76.6376 -84.25 60.12 -84.25 9.53674e-07C-86.6294 -86.0849 -88.6034 -78.4854 -12.7475 -80.2208"></path>
  <path fill="#503F7E" transform="matrix(1.67985 0 0 1.8 191.63 362.835)" d="M-7.16745 -14.2682C11.0031 -15.587 24.2565 -12.3642 28.1934 34.882C30.3751 53.6571 34.104 68.0935 19.0938 75.435C3.6202 75.8066 -7.06681 76.013 -21.9033 75.6727C-37.1317 69.92 -33.6623 55.0117 -34.9015 38.5553C-39.3776 -7.74602 -25.338 -12.9495 -7.16745 -14.2682Z"></path>
  <path fill="none" stroke="black" stroke-width="5" stroke-linejoin="round" transform="matrix(1.53139 0 0 1.39334 219.655 125.584)" d="M1.90735e-06 -40C20.9426 -40 35.0096 -26.8589 47.8597 -2.20017C49.1253 -3.81498 50.3123 -3.57652 51.1974 -3.11681C52.0824 -2.6571 52.5509 -1.60561 52.2206 -0.665335C53.8523 0.0632067 55.2854 1.47333 55.8775 2.67699C56.9197 4.79567 57.6743 10.5072 53.7931 11.8212C58.5977 31.9882 20.3682 22.0914 -1.13888e-05 22.0914C-20.2357 22.0914 -45.0732 28.3281 -41.8836 12.9784C-44.6787 11.8212 -48.2008 8.95145 -46.5316 4.29176C-45.7036 1.98007 -43.8185 0.567096 -42.3936 0.567005C-41.0392 0.566917 -42.9934 -2.19999 -40.2188 -3.8149C-39.0195 -4.5129 -37.7273 -4.43211 -36.6068 -4.12355C-28.0141 -23.731 -20.4124 -40 1.90735e-06 -40Z"></path>
  <path fill="#503F7E" transform="matrix(1.79976 0.0276995 -0.0293645 1.69771 261.873 279.649)" d="M-11.3238 -80.2543C25.8014 -80.2543 54.9476 -94.6926 58.9092 -40.8672C62.8708 12.9582 37.0524 74.7499 0.0572916 75.3534C-14.1177 75.5847 -17.7665 75.6442 -48.2096 76.1409C-78.6526 76.6376 -84.25 60.12 -84.25 9.53674e-07C-86.6442 -86.62 -88.6279 -78.3873 -11.3238 -80.2543Z"></path>
  <clipPath id="cl_d3">
    <path d="M243.85 143.087C310.666 144.115 363.546 120.411 369.096 211.9C374.645 303.39 326.363 407.579 259.763 407.579C234.245 407.579 227.676 407.579 172.872 407.579C118.067 407.579 108.478 379.382 110.243 277.316C108.478 130.193 104.666 144.115 243.85 143.087Z"></path>
  </clipPath>
  <g clip-path="url(#cl_d3)">
    <path fill="#655494" transform="matrix(1.8 0 0 1.8 298.999 261.728)" d="M-0.158644 -48.2655C25.513 -48.2655 46.324 -26.6563 46.324 0C46.324 26.6563 25.513 48.2655 -0.158644 48.2655C-25.8303 48.2655 -46.6413 26.6563 -46.6413 0C-46.6413 -26.6563 -25.8303 -48.2655 -0.158644 -48.2655Z"></path>
  </g>
  <path fill="none" stroke="black" stroke-width="2" stroke-linejoin="round" transform="matrix(3.88825 -0.763212 0.691401 3.5224 226.454 47.3358)" d="M-4.34758 -5.25471C-4.34758 -11.5047 3.66088 -11.5047 3.66088 -5.25472C3.66088 0.995284 3.66088 12.5 3.66088 12.5L-4.57314 12.5C-4.57314 12.5 -4.34758 0.995284 -4.34758 -5.25471Z"></path>
  <path fill="none" stroke="black" stroke-width="2" stroke-linejoin="round" transform="matrix(3.45507 -0.678185 0.691401 3.5224 191.842 52.8279)" d="M-5.1645 -6.50116C-5.16451 -12.7512 6 -12.7512 6 -6.50116C6 -0.251162 6 12.5 6 12.5L-6 12.5C-6 12.5 -5.1645 -0.251164 -5.1645 -6.50116Z"></path>
  <path fill="#453279" transform="matrix(3.88825 -0.763212 0.691401 3.5224 226.454 47.3358)" d="M-4.34758 -5.25471C-4.34758 -11.5047 3.66088 -11.5047 3.66088 -5.25472C3.66088 0.995284 3.66088 12.5 3.66088 12.5L-4.57314 12.5C-4.57314 12.5 -4.34758 0.995284 -4.34758 -5.25471Z"></path>
  <path fill="none" stroke="#161616" stroke-width="0.5" stroke-linecap="round" stroke-linejoin="round" transform="matrix(3.88825 -0.763212 0.691401 3.5224 221.661 27.8041)" d="M4.30705e-06 1.51652L3.59227e-06 10.5382"></path>
  <path fill="#503F7E" transform="matrix(3.44427 -0.676064 0.691401 3.5224 191.777 52.8407)" d="M-5.1645 -6.50117C-5.1645 -12.7512 6 -12.7512 6 -6.50117C6 -0.251166 6 12.5 6 12.5L-6 12.5C-6 12.5 -5.1645 -0.251167 -5.1645 -6.50117Z"></path>
  <path fill="none" stroke="#161616" stroke-width="0.5" stroke-linecap="round" stroke-linejoin="round" transform="matrix(3.5224 -0.691401 0.691401 3.5224 192.461 32.7301)" d="M9.72213e-07 7.65589e-06L4.78691e-06 10.5382"></path>
  <path fill="none" stroke="black" stroke-width="7" stroke-linejoin="round" transform="translate(256 256)" d="M-88.8992 -151.663L15.2662 -166.441C15.2662 -166.441 0.736019 -237.613 -46.5305 -229.526C-49.0187 -229.101 -51.1641 -228.116 -53.0584 -226.754C-53.9344 -218.207 -56.6833 -201.898 -80.755 -200.476C-90.8053 -178.08 -88.8992 -151.663 -88.8992 -151.663Z"></path>
  <path fill="none" stroke="black" stroke-width="7" stroke-miterlimit="4" transform="translate(256 256)" d="M-45.6107 -237.059C-40.6894 -237.757 -36.1339 -234.333 -35.4357 -229.412C-34.7376 -224.491 -38.1611 -219.935 -43.0824 -219.237C-48.0036 -218.539 -52.5591 -221.962 -53.2573 -226.884C-53.9555 -231.805 -50.5319 -236.36 -45.6107 -237.059Z"></path>
  <path fill="#E3CEC2" transform="matrix(0.556923 -0.0790095 0.0790095 0.556923 211.654 27.8522)" d="M1.90735e-06 -16C8.83656 -16 16 -8.83659 16 -3.05176e-05C16 8.83653 8.83656 16 1.90735e-06 16C-8.83655 16 -16 8.83653 -16 -3.05176e-05C-16 -8.83659 -8.83655 -16 1.90735e-06 -16Z"></path>
  <path fill="#8D5A3E" transform="matrix(0.556923 -0.0790095 0.0790095 0.556923 159.624 105.398)" d="M13.4248 -3.05176e-05L200.462 -3.05176e-05C200.462 -3.05176e-05 192.659 -128.902 107.443 -126.472C102.958 -126.344 98.9354 -125.146 95.2612 -123.223C91.585 -108.397 82.6738 -80.3768 39.9489 -83.8848C16.6664 -46.9736 13.4248 -3.05176e-05 13.4248 -3.05176e-05Z"></path>
  <path fill="#4A4848" transform="matrix(0.504494 -0.0715715 0.0228078 0.160768 217.981 86.468)" d="M0 -116.5C64.3412 -116.5 116.5 -64.3411 116.5 0.000125542C116.5 64.3413 64.3412 116.5 0 116.5C-64.3412 116.5 -116.5 64.3413 -116.5 0.000118598C-116.5 -64.3411 -64.3412 -116.5 0 -116.5Z"></path>
  <path fill="none" stroke="black" stroke-width="7" stroke-miterlimit="4" transform="translate(256 256)" d="M-39.4736 -177.781C-3.64053 -182.865 26.5976 -178.6 28.0651 -168.256C29.5325 -157.912 1.6737 -145.406 -34.1594 -140.322C-69.9925 -135.239 -100.231 -139.503 -101.698 -149.847C-103.166 -160.191 -75.3067 -172.698 -39.4736 -177.781Z"></path>
  <path fill="#C9B1AA" transform="matrix(0.556923 -0.0790095 0.0228078 0.160768 219.183 96.9483)" d="M-0.519164 93.3574C63.822 93.3574 81.6545 -40.5053 116.5 6.10352e-05C116.333 7.78609 114.666 35.3784 103.443 64.6425C92.2186 93.9065 32.9112 142.08 1.25538 142.08C-34.5183 142.08 -86.5851 95.3332 -99.0913 78.983C-111.597 62.6328 -116.509 26.4159 -116.5 6.10352e-05C-66.3811 -27.3189 -64.8603 93.3574 -0.519164 93.3574Z"></path>
  <path fill="#65524C" transform="matrix(0.447062 -0.0634237 0.0183086 0.129054 219.183 96.9483)" d="M3.8147e-06 -116.5C64.3412 -116.5 116.5 -64.3413 116.5 -0.00012207C116.5 64.3411 64.3412 116.5 3.8147e-06 116.5C-64.3412 116.5 -116.5 64.3411 -116.5 -0.00012207C-116.5 -64.3413 -64.3412 -116.5 3.8147e-06 -116.5Z"></path>
  <clipPath id="cl_d4">
    <path d="M217.051 81.9135C245.815 77.8327 270.088 81.2559 271.266 89.5594C272.444 97.8629 250.081 107.902 221.316 111.983C192.552 116.064 168.279 112.641 167.101 104.337C165.923 96.0336 188.286 85.9942 217.051 81.9135Z"></path>
  </clipPath>
  <g clip-path="url(#cl_d4)">
    <path fill="#857069" transform="matrix(1.7889 -0.253787 0.253787 1.7889 177.151 87.0036)" d="M6.34529 -18.4774C15.1819 -18.4774 19.9785 -8.83655 25.4977 7.48038e-06C40.8822 25.7165 8.83655 21.8364 -3.12924e-06 19.1869C-8.83656 16.5373 -16 8.83656 -16 7.62939e-06C-16 -8.83655 -2.49126 -18.4774 6.34529 -18.4774Z"></path>
  </g>
  <clipPath id="cl_d5">
    <path d="M167.101 104.337L271.266 89.5594C271.266 89.5594 256.736 18.3875 209.469 26.4736C206.981 26.8993 204.836 27.884 202.942 29.2456C202.066 37.7928 199.317 54.1021 175.245 55.5241C165.195 77.9203 167.101 104.337 167.101 104.337Z"></path>
  </clipPath>
  <g clip-path="url(#cl_d5)">
    <path fill="#65524C" transform="matrix(0.682449 -0.0968176 0.0594143 0.4188 189.294 36.0466)" d="M0 -50.5C11.1423 -50.5 26.7229 -45.7372 27.5442 -33.3093C28.6357 -16.7925 29.2617 -6.93543 29.2617 5.94992C29.2617 33.8403 20.7107 50.5 0 50.5C-20.7107 50.5 -29.0363 45.6071 -29.0363 17.7168C-29.0363 -10.1736 -20.7107 -50.5 0 -50.5Z"></path>
    <path fill="#714035" transform="matrix(0.298708 -0.253155 0.253155 0.298708 239.084 41.9243)" d="M-46.3834 -19.9076C-36.9946 -19.9076 -29.3834 -27.5187 -29.3834 -36.9076L29.3834 -36.9076C29.3834 -27.5187 36.9946 -19.9076 46.3834 -19.9076L46.3834 19.9076C36.9946 19.9076 29.3834 27.5187 29.3834 36.9076L-29.3834 36.9076C-29.3834 27.5187 -36.9946 19.9076 -46.3834 19.9076L-46.3834 -19.9076Z"></path>
  </g>
  <clipPath id="cl_d7">
    <path d="M186.294 14.8972C193.898 13.8184 204.814 14.3046 206.113 19.4299C207.839 26.2415 208.852 30.309 209.618 35.7054C211.275 47.3859 206.429 55.1909 192.295 57.196C178.161 59.2012 172.188 57.9581 170.531 46.2776C168.874 34.5971 172.16 16.9024 186.294 14.8972Z"></path>
  </clipPath>
  <g clip-path="url(#cl_d7)">
    <clipPath id="cl_d8">
      <path d="M167.101 104.337L271.266 89.5594C271.266 89.5594 256.736 18.3875 209.469 26.4736C206.981 26.8993 204.836 27.884 202.942 29.2456C202.066 37.7928 199.317 54.1021 175.245 55.5241C165.195 77.9203 167.101 104.337 167.101 104.337Z"></path>
    </clipPath>
    <g clip-path="url(#cl_d8)">
      <path fill="#857069" transform="matrix(1.7889 -0.253787 0.253787 1.7889 172.804 58.3615)" d="M7.62939e-06 -16C8.83656 -16 12.0102 -8.83655 16.201 6.41487e-06C20.3918 8.83656 8.83656 16 7.62939e-06 16C-8.83655 16 -16 8.83656 -16 7.62939e-06C-16 -8.83655 -8.83655 -16 7.62939e-06 -16Z"></path>
    </g>
  </g>
  <path fill="none" stroke="black" stroke-width="7" stroke-linejoin="round" transform="translate(256 256)" d="M-101.698 -149.847C-103.235 -160.683 -100.138 -163.64 -100.138 -163.64C-97.1421 -167.862 -93.456 -171.461 -88.5311 -174.571"></path>
  <path fill="none" stroke="black" stroke-width="7" stroke-linejoin="round" transform="translate(256 256)" d="M8.77229 -188.499C15.9666 -186.783 21.0579 -184.044 24.0625 -180.471C24.0625 -180.471 28.4557 -177.044 28.1917 -169.825"></path>
  <path fill="#503F7E" transform="matrix(1.53139 0 0 1.39334 219.655 125.584)" d="M1.90735e-06 -40C20.9426 -40 35.0096 -26.8589 47.8597 -2.20017C49.1253 -3.81498 50.3123 -3.57652 51.1974 -3.11681C52.0824 -2.6571 52.5509 -1.60561 52.2206 -0.665335C53.8523 0.0632067 55.2854 1.47333 55.8775 2.67699C56.9197 4.79567 57.6743 10.5072 53.7931 11.8212C58.5977 31.9882 20.3682 22.0914 -1.13888e-05 22.0914C-20.2357 22.0914 -45.0732 28.3281 -41.8836 12.9784C-44.6787 11.8212 -48.2008 8.95145 -46.5316 4.29176C-45.7036 1.98007 -43.8185 0.567096 -42.3936 0.567005C-41.0392 0.566917 -42.9934 -2.19999 -40.2188 -3.8149C-39.0195 -4.5129 -37.7273 -4.43211 -36.6068 -4.12355C-28.0141 -23.731 -20.4124 -40 1.90735e-06 -40Z"></path>
  <path fill="#E3CEC2" transform="matrix(0.556923 -0.0790095 0.0790095 0.556923 154.302 106.153)" d="M-3.05176e-05 -3.05176e-05C-3.05176e-05 -19.4564 6.19049 -23.8887 6.19049 -23.8887C25.0053 -43.7609 53.1913 -52.4203 117 -52.4203C180.809 -52.4203 217.711 -40.5795 229.005 -22.5C229.005 -22.5 236.876 -14.3389 233 -3.05176e-05C233 -3.05176e-05 222.592 -33.1384 117.06 -33.1384C11.5269 -33.1384 -3.05176e-05 -3.05176e-05 -3.05176e-05 -3.05176e-05Z"></path>
  <path fill="#C9B1AA" transform="matrix(0.556923 -0.0790095 0.0228078 0.160768 219.183 96.9483)" d="M0 -116.5C64.3412 -116.5 116.5 -64.3411 116.5 6.10352e-05C116.333 7.78609 114.079 -0.84687 92.5947 -2.56879C90.1363 -68.6431 33.7083 -93.0964 2.0524 -93.0964C-33.7213 -93.0964 -91.7603 -68.5195 -92.7458 3.01572C-107.568 13.6071 -116.5 28.5675 -116.5 6.10352e-05C-116.5 -64.3411 -64.3412 -116.5 0 -116.5Z"></path>
  <clipPath id="cl_d9">
    <path d="M186.294 14.8972C193.898 13.8184 204.814 14.3046 206.113 19.4299C207.839 26.2415 208.852 30.309 209.618 35.7054C211.275 47.3859 206.429 55.1909 192.295 57.196C178.161 59.2012 172.188 57.9581 170.531 46.2776C168.874 34.5971 172.16 16.9024 186.294 14.8972Z"></path>
  </clipPath>
  <g clip-path="url(#cl_d9)">
    <path fill="#503F7E" transform="matrix(3.46587 -0.680305 0.691401 3.5224 191.777 52.8406)" d="M-5.16451 -6.50116C-5.16451 -12.7512 6 -12.7512 6 -6.50116C6 -0.251163 6 12.5 6 12.5L-6 12.5C-6 12.5 -5.16451 -0.251163 -5.16451 -6.50116Z"></path>
    <path fill="none" stroke="#161616" stroke-width="0.5" stroke-linecap="round" stroke-linejoin="round" transform="matrix(3.5224 -0.691401 0.691401 3.5224 192.461 32.7301)" d="M9.72213e-07 7.65589e-06L4.78691e-06 10.5382"></path>
  </g>
  <clipPath id="cl_db">
    <path d="M219.655 69.8503C251.726 69.8503 273.268 88.1603 292.946 122.518C294.884 120.268 296.702 120.601 298.058 121.241C299.413 121.882 300.13 123.347 299.624 124.657C302.123 125.672 304.318 127.637 305.225 129.314C306.821 132.266 307.976 140.224 302.033 142.055C309.39 170.155 250.846 156.365 219.655 156.365C188.666 156.365 150.63 165.055 155.515 143.667C151.234 142.055 145.841 138.056 148.397 131.564C149.665 128.343 152.552 126.374 154.734 126.374C156.808 126.374 153.815 122.519 158.064 120.269C159.901 119.296 161.88 119.409 163.596 119.838C176.754 92.5185 188.395 69.8503 219.655 69.8503Z"></path>
  </clipPath>
  <g clip-path="url(#cl_db)">
    <path fill="#7463A5" transform="matrix(1.8 2.98023e-08 0.00759348 1.8 212.21 110.441)" d="M-1.90735e-06 -5.5C3.86599 -5.5 7 -2.92564 7 0.25C7 3.42564 3.86599 6 -1.90735e-06 6C-3.866 6 -7 3.42564 -7 0.25C-7 -2.92564 -3.866 -5.5 -1.90735e-06 -5.5Z"></path>
    <path fill="#7463A5" transform="matrix(1.83618 3.04014e-08 0.00759348 1.8 264.759 102.295)" d="M4.76837e-07 -5.00001C2.76142 -5.00001 5 -2.6495 5 0.249992C5 3.14949 2.76142 5.49999 4.76837e-07 5.49999C-2.76142 5.49999 -5 3.14949 -5 0.249992C-5 -2.6495 -2.76142 -5.00001 4.76837e-07 -5.00001Z"></path>
    <path fill="none" stroke="#131212" stroke-width="1" stroke-linecap="round" stroke-linejoin="round" transform="matrix(2.30699 -0.373724 0.274137 1.69224 242.99 95.5994)" d="M1.44192e-06 7.21529e-06L2.92891 -0.71456"></path>
    <path fill="none" stroke="#131212" stroke-width="1" stroke-linecap="round" stroke-linejoin="round" transform="matrix(2.30699 -0.373724 0.274137 1.69224 221.24 94.7697)" d="M4.76837e-07 -7.77785e-06L4.25731 1.79212"></path>
    <path fill="#131212" transform="matrix(2.47104 -0.400299 0.405754 2.50471 235.024 97.8799)" d="M4.54078e-07 -2.15485e-07L1.9614 0.352738L0.91509 1.42246L4.54078e-07 -2.15485e-07Z"></path>
    <path fill="none" stroke="#131212" stroke-width="0.5" stroke-linecap="round" stroke-linejoin="round" transform="matrix(1.93759 -0.313883 0.31816 1.96399 238.084 101.415)" d="M-1.19991e-07 -0.711224L-3.96183e-06 1.1102"></path>
    <path fill="#32225E" transform="matrix(1.74285 0.441491 -0.424043 1.74552 231.872 90.0143)" d="M-2.87169e-08 -1.92716C1.62851 -1.92716 2.94867 -1.06435 2.94867 -7.67333e-06C2.94867 1.06433 1.62851 1.92715 2.87169e-08 1.92715C-1.62851 1.92715 -2.94867 1.06433 -2.94867 -7.58546e-06C-2.94867 -1.06435 -1.62851 -1.92716 -2.87169e-08 -1.92716Z"></path>
    <path fill="#32225E" transform="matrix(1.71213 0.433708 -0.412468 1.69787 243.065 89.1394)" d="M-5.72205e-06 -1.89919C0.889983 -1.89919 1.61146 -1.04889 1.61146 -2.40127e-08C1.61146 1.04889 0.889983 1.89919 -5.72205e-06 1.89919C-0.889995 1.89919 -1.61147 1.04889 -1.61147 2.40127e-08C-1.61147 -1.04889 -0.889995 -1.89919 -5.72205e-06 -1.89919Z"></path>
  </g>
  <path fill="none" stroke="black" stroke-width="4" stroke-linejoin="round" transform="matrix(1.8 0 0 1.8 336.615 164.528)" d="M-11.7479 -12.9046C-11.318 -13.5165 -10.7601 -14.1187 -10.0572 -14.7065C-5.47351 -18.5399 3.93804 -16.1165 4.43081 -14.7065C7.46664 -16.1165 10.8961 -16.6614 15.0174 -13.9738C19.1387 -11.2862 16.2386 -4.86793 16.6118 -4.55444C16.985 -4.24095 25.2116 0.494543 17.5976 8.33766C16.6439 8.92035 15.7365 9.39702 14.8735 9.77867"></path>
  <path fill="#7463A5" transform="matrix(1.8 0 0 1.8 336.615 164.528)" d="M-0.116455 0C-2.60165 -0.66394 -7.05858 1.11792 -10.0572 -2.65576C-13.0559 -6.42944 -14.6409 -10.8732 -10.0572 -14.7065C-5.47351 -18.5399 3.93804 -16.1165 4.43081 -14.7065C7.46664 -16.1165 10.8961 -16.6614 15.0174 -13.9738C19.1387 -11.2862 16.2386 -4.86793 16.6118 -4.55444C16.985 -4.24095 25.2116 0.494543 17.5976 8.33766C2.9012 17.3171 -0.809986 1.11792 -0.116455 0Z"></path>
  <path fill="none" stroke="black" stroke-width="6" stroke-linejoin="round" transform="matrix(1.8 0 0 1.8 170.253 262.174)" d="M-10.7613 31.0709C-49.9318 24.4535 -39.354 -38.1593 -0.183559 -31.5419C16.4997 -28.7235 44.3306 -24.0218 61.6203 -21.1009C67.695 -20.0746 77.4349 -9.79867 73.8303 13.1618C70.2258 36.1222 58.0397 42.694 53.3048 41.8941C35.9138 38.9561 1.55062 33.1508 -10.7613 31.0709Z"></path>
  <path fill="none" stroke="black" stroke-width="6" stroke-linecap="round" stroke-linejoin="bevel" transform="matrix(1.8 0 0 1.67094 170.253 171.927)" d="M26.2233 38.3726C26.2233 46.2536 26.2233 53.0353 26.2233 56.5422C26.2233 99.4987 -37.2767 99.4565 -37.2767 56.5C-37.2767 45.7166 -37.2767 25.8944 -37.2767 13.4087C-37.2767 0.923035 -31.0153 -16.9124 -14.9355 -16.9124C-13.1619 -16.9124 -11.5378 -16.9124 -10.0423 -16.9124"></path>
  <path fill="#503F7E" transform="matrix(1.8 0 0 1.8 170.253 262.174)" d="M-10.7613 31.0709C-51.5586 24.1786 -40.9809 -38.4342 -0.183559 -31.5419C16.4997 -28.7235 44.3306 -24.0218 61.6203 -21.1009C67.695 -20.0746 77.4349 -9.79867 73.8303 13.1618C70.2258 36.1222 58.0397 42.694 53.3048 41.8941C35.9138 38.9561 1.55062 33.1508 -10.7613 31.0709Z"></path>
  <path fill="#503F7E" transform="matrix(1.8 0 0 1.67094 170.253 171.927)" d="M-37.2767 13.4087C-37.2767 0.923035 -31.0153 -16.9124 -14.9355 -16.9124C1.14433 -16.9124 4.93425 -16.9124 11.9985 -16.9124C19.0627 -16.9124 26.2233 -12.9094 26.2233 2.79268C26.2233 18.4947 26.2233 47.7681 26.2233 56.5422C26.2233 94.3272 -37.2767 94.285 -37.2767 56.5C-37.2767 45.7166 -37.2767 25.8944 -37.2767 13.4087Z"></path>
</svg>