<?xml version="1.0" encoding="utf-8"?>
<svg xmlns="http://www.w3.org/2000/svg" xmlns:xlink="http://www.w3.org/1999/xlink" width="512" height="512">
  <path fill="none" stroke="black" stroke-width="6" stroke-linejoin="round" transform="matrix(1.8 0 0 1.52279 359.051 169.591)" d="M-16.8892 -16.9737C-13.2349 -16.9737 -10.5814 -16.9737 -7.15953 -16.9737C-0.0953026 -16.9737 7.06532 -12.9707 7.06532 2.73135C7.06532 18.4334 7.06532 47.7067 7.06532 56.4809C7.06532 99.4374 -56.4347 99.3952 -56.4347 56.4387C-56.4347 45.6553 -56.4347 25.833 -56.4347 13.3474C-56.4347 0.86171 -50.1733 -16.9737 -34.0935 -16.9737C-32.8898 -16.9737 -31.755 -16.9737 -30.6825 -16.9737"></path>
  <path fill="none" stroke="black" stroke-width="6" stroke-linejoin="round" transform="matrix(1.8 0 0 1.64041 359.051 251.837)" d="M-56.4348 -0.343181C-55.9919 -42.9634 7.50465 -42.3036 7.06176 0.316661C6.88594 17.2354 6.59265 45.4591 6.41044 62.9929C6.34642 69.1534 -2.28063 80.3799 -25.5223 80.4089C-48.7639 80.4379 -57.1599 69.429 -57.11 64.6272C-56.9267 46.9907 -56.5646 12.1425 -56.4348 -0.343181Z"></path>
  <path fill="#503F7E" transform="matrix(1.8 0 0 1.52279 359.051 169.591)" d="M-56.4347 13.3474C-56.4347 0.861706 -50.1733 -16.9737 -34.0935 -16.9737C-18.0137 -16.9737 -14.2238 -16.9737 -7.15953 -16.9737C-0.0953026 -16.9737 7.06532 -12.9707 7.06532 2.73135C7.06532 18.4334 7.06532 47.7067 7.06532 56.4809C7.06532 99.4374 -56.4347 99.3952 -56.4347 56.4387C-56.4347 45.6553 -56.4347 25.833 -56.4347 13.3474Z"></path>
  <path fill="#503F7E" transform="matrix(1.8 0 0 1.64041 359.051 251.837)" d="M-56.4348 -0.343182C-55.9919 -42.9634 7.50465 -42.3036 7.06176 0.316659C6.88594 17.2354 6.59265 45.4591 6.41044 62.9929C6.34642 69.1534 -2.28063 80.3799 -25.5223 80.4089C-48.7639 80.4379 -57.1599 69.429 -57.11 64.6272C-56.9267 46.9907 -56.5646 12.1425 -56.4348 -0.343182Z"></path>
  <path fill="none" stroke="black" stroke-width="5" stroke-linejoin="round" transform="matrix(1.67985 0 0 1.8 269.501 356.202)" d="M12.827 -15.6835C31.0497 -15.3887 43.916 -11.008 43.0361 36.3737C43.2136 50.4799 47.0153 65.5759 32.0208 74.083C20.4521 73.9909 7.52868 74.7973 -8.936 74.5328C-19.7739 65.8281 -19.9062 51.2693 -20.1478 34.4486C-19.9006 -12.0402 -5.39563 -15.9782 12.827 -15.6835Z"></path>
  <path fill="#453279" transform="matrix(1.67985 0 0 1.8 269.501 356.202)" d="M12.827 -15.6835C31.0497 -15.3887 43.916 -11.008 43.0361 36.3737C43.2136 50.4799 47.0153 65.5759 32.0208 74.083C20.4521 73.9909 7.52868 74.7973 -8.936 74.5328C-19.7739 65.8281 -19.9062 51.2693 -20.1478 34.4486C-19.9006 -12.0402 -5.39563 -15.9782 12.827 -15.6835Z"></path>
  <path fill="none" stroke="black" stroke-width="5" stroke-linejoin="round" transform="matrix(1.67985 0 0 1.8 191.63 362.835)" d="M-1.26193 -14.3369C16.9618 -14.5696 29.9674 -10.5633 30.6622 36.8211C31.5542 55.6879 34.4996 68.8988 19.1033 75.6402C3.62966 76.0117 -7.05735 76.2181 -21.8938 75.8778C-36.8044 69.4426 -32.4451 53.2219 -32.5552 36.7253C-33.8527 -9.74831 -19.4856 -14.1042 -1.26193 -14.3369Z"></path>
  <path fill="none" stroke="black" stroke-width="5" stroke-linejoin="round" transform="matrix(1.79976 0.0276995 -0.0293645 1.69771 276.347 279.649)" d="M-11.3238 -80.2543C25.8014 -80.2543 54.9476 -94.6926 58.9092 -40.8672C62.8708 12.9582 37.0524 74.7499 0.0572919 75.3534C-14.1177 75.5847 -17.7665 75.6442 -48.2096 76.1409C-78.6526 76.6376 -84.25 60.12 -84.25 0C-86.6294 -86.0849 -88.6034 -78.4854 -12.7475 -80.2208"></path>
  <path fill="#503F7E" transform="matrix(1.67985 0 0 1.8 191.63 362.835)" d="M-1.26193 -14.3369C16.9618 -14.5696 29.9674 -10.5633 30.6622 36.8211C31.5542 55.6879 34.4996 68.8988 19.1033 75.6402C3.62966 76.0117 -7.05735 76.2181 -21.8938 75.8778C-36.8044 69.4426 -32.4451 53.2219 -32.5552 36.7253C-33.8527 -9.74831 -19.4856 -14.1042 -1.26193 -14.3369Z"></path>
  <path fill="none" stroke="black" stroke-width="5" stroke-linejoin="round" transform="matrix(1.53139 0 0 1.39334 229.915 125.584)" d="M0 -40C20.9426 -40 35.0096 -26.8589 47.8597 -2.20017C49.1253 -3.81498 50.3123 -3.57652 51.1974 -3.11681C52.0824 -2.6571 52.5509 -1.60561 52.2206 -0.665335C53.8523 0.0632067 55.2854 1.47333 55.8775 2.67699C56.9197 4.79567 57.6743 10.5072 53.7931 11.8212C58.5977 31.9882 20.3682 22.0914 -1.32962e-05 22.0914C-20.2357 22.0914 -45.0732 28.3281 -41.8836 12.9784C-44.6787 11.8212 -48.2008 8.95145 -46.5316 4.29176C-45.7036 1.98007 -43.8185 0.567096 -42.3936 0.567005C-41.0392 0.566917 -42.9934 -2.19999 -40.2188 -3.8149C-39.0195 -4.5129 -37.7273 -4.43211 -36.6068 -4.12355C-28.0141 -23.731 -20.4124 -40 0 -40Z"></path>
  <path fill="#503F7E" transform="matrix(1.79976 0.0276995 -0.0293645 1.69771 276.347 279.649)" d="M-11.3238 -80.2543C25.8014 -80.2543 54.9476 -94.6926 58.9092 -40.8672C62.8708 12.9582 37.0524 74.7499 0.0572919 75.3534C-14.1177 75.5847 -17.7665 75.6442 -48.2096 76.1409C-78.6526 76.6376 -84.25 60.12 -84.25 0C-86.6442 -86.62 -88.6279 -78.3873 -11.3238 -80.2543Z"></path>
  <clipPath id="cl_1e3">
    <path d="M258.323 143.087C325.14 144.115 378.02 120.411 383.569 211.9C389.119 303.39 340.837 407.579 274.237 407.579C248.719 407.579 242.15 407.579 187.345 407.579C132.541 407.579 122.952 379.382 124.717 277.316C122.952 130.193 119.14 144.115 258.323 143.087Z"></path>
  </clipPath>
  <g clip-path="url(#cl_1e3)">
    <path fill="#655494" transform="matrix(1.8 0 0 1.8 313.472 261.728)" d="M-0.158644 -48.2655C25.513 -48.2655 46.324 -26.6563 46.324 0C46.324 26.6563 25.513 48.2655 -0.158644 48.2655C-25.8303 48.2655 -46.6413 26.6563 -46.6413 0C-46.6413 -26.6563 -25.8303 -48.2655 -0.158644 -48.2655Z"></path>
  </g>
  <path fill="none" stroke="black" stroke-width="2" stroke-linejoin="round" transform="matrix(3.88825 -0.763212 0.691401 3.5224 236.714 47.3358)" d="M-4.34758 -5.25471C-4.34758 -11.5047 3.66088 -11.5047 3.66088 -5.25471C3.66088 0.995287 3.66088 12.5 3.66088 12.5L-4.57314 12.5C-4.57314 12.5 -4.34758 0.995288 -4.34758 -5.25471Z"></path>
  <path fill="none" stroke="black" stroke-width="2" stroke-linejoin="round" transform="matrix(3.29774 -0.647304 0.691401 3.5224 205.002 52.2588)" d="M-5.1645 -6.50117C-5.16451 -12.7512 6 -12.7512 6 -6.50117C6 -0.25117 6 12.5 6 12.5L-6 12.5C-6 12.5 -5.1645 -0.251171 -5.1645 -6.50117Z"></path>
  <path fill="#453279" transform="matrix(3.88825 -0.763212 0.691401 3.5224 236.714 47.3358)" d="M-4.34758 -5.25471C-4.34758 -11.5047 3.66088 -11.5047 3.66088 -5.25471C3.66088 0.995287 3.66088 12.5 3.66088 12.5L-4.57314 12.5C-4.57314 12.5 -4.34758 0.995288 -4.34758 -5.25471Z"></path>
  <path fill="none" stroke="#161616" stroke-width="0.5" stroke-linecap="round" stroke-linejoin="round" transform="matrix(3.88825 -0.763212 0.691401 3.5224 231.921 27.8041)" d="M4.54547e-06 1.51652L3.83069e-06 10.5382"></path>
  <path fill="#503F7E" transform="matrix(3.30488 -0.648705 0.691401 3.5224 205.045 52.2504)" d="M-5.1645 -6.50117C-5.16451 -12.7512 6 -12.7512 6 -6.50117C6 -0.25117 6 12.5 6 12.5L-6 12.5C-6 12.5 -5.1645 -0.251171 -5.1645 -6.50117Z"></path>
  <path fill="none" stroke="#161616" stroke-width="0.5" stroke-linecap="round" stroke-linejoin="round" transform="matrix(3.5224 -0.691401 0.691401 3.5224 202.721 32.7301)" d="M1.44905e-06 3.8412e-06L5.26375e-06 10.5382"></path>
  <path fill="none" stroke="black" stroke-width="7" stroke-linejoin="round" transform="translate(256 256)" d="M-76.4291 -151.663L27.7363 -166.441C27.7363 -166.441 13.2061 -237.613 -34.0604 -229.526C-36.5485 -229.101 -38.694 -228.116 -40.5883 -226.754C-41.4643 -218.207 -44.2132 -201.898 -68.2849 -200.476C-78.3351 -178.08 -76.4291 -151.663 -76.4291 -151.663Z"></path>
  <path fill="none" stroke="black" stroke-width="7" stroke-miterlimit="4" transform="translate(256 256)" d="M-33.1405 -237.059C-28.2193 -237.757 -23.6638 -234.333 -22.9656 -229.412C-22.2674 -224.491 -25.691 -219.935 -30.6122 -219.237C-35.5335 -218.539 -40.089 -221.962 -40.7872 -226.884C-41.4853 -231.805 -38.0618 -236.36 -33.1405 -237.059Z"></path>
  <path fill="#E3CEC2" transform="matrix(0.556923 -0.0790095 0.0790095 0.556923 224.124 27.8522)" d="M-3.8147e-06 -16.0001C8.83655 -16.0001 16 -8.83662 16 -6.10352e-05C16 8.8365 8.83655 15.9999 -3.8147e-06 15.9999C-8.83656 15.9999 -16 8.8365 -16 -6.10352e-05C-16 -8.83662 -8.83656 -16.0001 -3.8147e-06 -16.0001Z"></path>
  <path fill="#8D5A3E" transform="matrix(0.556923 -0.0790095 0.0790095 0.556923 172.094 105.398)" d="M13.4248 -6.10352e-05L200.462 -6.10352e-05C200.462 -6.10352e-05 192.659 -128.902 107.443 -126.472C102.958 -126.344 98.9354 -125.146 95.2612 -123.223C91.5849 -108.397 82.6738 -80.3768 39.9489 -83.8848C16.6664 -46.9736 13.4248 -6.10352e-05 13.4248 -6.10352e-05Z"></path>
  <path fill="#4A4848" transform="matrix(0.504494 -0.0715715 0.0228078 0.160768 230.451 86.468)" d="M7.15256e-07 -116.5C64.3412 -116.5 116.5 -64.3411 116.5 0.000125542C116.5 64.3413 64.3412 116.5 7.15256e-07 116.5C-64.3412 116.5 -116.5 64.3413 -116.5 0.000118598C-116.5 -64.3411 -64.3412 -116.5 7.15256e-07 -116.5Z"></path>
  <path fill="none" stroke="black" stroke-width="7" stroke-miterlimit="4" transform="translate(256 256)" d="M-27.0035 -177.781C8.82959 -182.865 39.0677 -178.6 40.5352 -168.256C42.0027 -157.912 14.1438 -145.406 -21.6893 -140.322C-57.5224 -135.239 -87.7605 -139.503 -89.228 -149.847C-90.6955 -160.191 -62.8366 -172.698 -27.0035 -177.781Z"></path>
  <path fill="#C9B1AA" transform="matrix(0.556923 -0.0790095 0.0228078 0.160768 231.654 96.9483)" d="M-0.519163 93.3573C63.822 93.3573 81.6545 -40.5054 116.5 0C116.333 7.78602 114.666 35.3784 103.443 64.6424C92.2186 93.9064 32.9112 142.08 1.25538 142.08C-34.5183 142.08 -86.5851 95.3331 -99.0913 78.9829C-111.597 62.6327 -116.509 26.4158 -116.5 0C-66.3811 -27.319 -64.8603 93.3573 -0.519163 93.3573Z"></path>
  <path fill="#65524C" transform="matrix(0.447062 -0.0634237 0.0183086 0.129054 231.654 96.9483)" d="M-9.53674e-07 -116.5C64.3412 -116.5 116.5 -64.3412 116.5 0C116.5 64.3412 64.3412 116.5 -9.53674e-07 116.5C-64.3412 116.5 -116.5 64.3412 -116.5 0C-116.5 -64.3412 -64.3412 -116.5 -9.53674e-07 -116.5Z"></path>
  <clipPath id="cl_1e4">
    <path d="M229.521 81.9135C258.285 77.8327 282.558 81.2559 283.736 89.5594C284.914 97.8629 262.551 107.902 233.787 111.983C205.022 116.064 180.749 112.641 179.571 104.337C178.393 96.0336 200.756 85.9942 229.521 81.9135Z"></path>
  </clipPath>
  <g clip-path="url(#cl_1e4)">
    <path fill="#857069" transform="matrix(1.7889 -0.253787 0.253787 1.7889 189.621 87.0036)" d="M6.3453 -18.4774C15.1819 -18.4774 19.9785 -8.83656 25.4977 -1.49012e-07C40.8822 25.7165 8.83656 21.8364 -1.2219e-06 19.1869C-8.83656 16.5373 -16 8.83656 -16 0C-16 -8.83656 -2.49126 -18.4774 6.3453 -18.4774Z"></path>
  </g>
  <clipPath id="cl_1e5">
    <path d="M179.571 104.337L283.736 89.5594C283.736 89.5594 269.206 18.3875 221.94 26.4736C219.451 26.8993 217.306 27.884 215.412 29.2456C214.536 37.7928 211.787 54.1021 187.715 55.5241C177.665 77.9203 179.571 104.337 179.571 104.337Z"></path>
  </clipPath>
  <g clip-path="url(#cl_1e5)">
    <path fill="#65524C" transform="matrix(0.682449 -0.0968176 0.0594143 0.4188 201.765 36.0466)" d="M3.8147e-06 -50.5C11.1423 -50.5 26.7229 -45.7372 27.5442 -33.3093C28.6357 -16.7925 29.2617 -6.93543 29.2617 5.94992C29.2617 33.8403 20.7107 50.5 3.8147e-06 50.5C-20.7107 50.5 -29.0363 45.6071 -29.0363 17.7168C-29.0363 -10.1736 -20.7107 -50.5 3.8147e-06 -50.5Z"></path>
    <path fill="#714035" transform="matrix(0.298708 -0.253155 0.253155 0.298708 251.554 41.9243)" d="M-46.3835 -19.9076C-36.9946 -19.9076 -29.3835 -27.5188 -29.3835 -36.9076L29.3834 -36.9076C29.3834 -27.5188 36.9946 -19.9076 46.3834 -19.9076L46.3834 19.9075C36.9946 19.9075 29.3834 27.5187 29.3834 36.9075L-29.3835 36.9075C-29.3835 27.5187 -36.9946 19.9075 -46.3835 19.9075L-46.3835 -19.9076Z"></path>
  </g>
  <clipPath id="cl_1e7">
    <path d="M198.764 14.8972C206.368 13.8184 217.284 14.3046 218.583 19.4299C220.309 26.2415 221.322 30.309 222.088 35.7054C223.745 47.3859 218.899 55.1909 204.765 57.196C190.631 59.2012 184.658 57.9581 183.001 46.2776C181.344 34.5971 184.63 16.9024 198.764 14.8972Z"></path>
  </clipPath>
  <g clip-path="url(#cl_1e7)">
    <clipPath id="cl_1e8">
      <path d="M179.571 104.337L283.736 89.5594C283.736 89.5594 269.206 18.3875 221.94 26.4736C219.451 26.8993 217.306 27.884 215.412 29.2456C214.536 37.7928 211.787 54.1021 187.715 55.5241C177.665 77.9203 179.571 104.337 179.571 104.337Z"></path>
    </clipPath>
    <g clip-path="url(#cl_1e8)">
      <path fill="#857069" transform="matrix(1.7889 -0.253787 0.253787 1.7889 185.274 58.3615)" d="M3.8147e-06 -16C8.83656 -16 12.0102 -8.83655 16.201 6.41487e-06C20.3918 8.83656 8.83656 16 3.8147e-06 16C-8.83655 16 -16 8.83656 -16 7.62939e-06C-16 -8.83655 -8.83655 -16 3.8147e-06 -16Z"></path>
    </g>
  </g>
  <path fill="none" stroke="black" stroke-width="7" stroke-linejoin="round" transform="translate(256 256)" d="M-89.228 -149.847C-90.7652 -160.683 -87.6678 -163.64 -87.6678 -163.64C-84.672 -167.862 -80.9859 -171.461 -76.061 -174.571"></path>
  <path fill="none" stroke="black" stroke-width="7" stroke-linejoin="round" transform="translate(256 256)" d="M21.2424 -188.499C28.4368 -186.783 33.528 -184.044 36.5326 -180.471C36.5326 -180.471 40.9258 -177.044 40.6618 -169.825"></path>
  <path fill="#503F7E" transform="matrix(1.53139 0 0 1.39334 229.915 125.584)" d="M0 -40C20.9426 -40 35.0096 -26.8589 47.8597 -2.20017C49.1253 -3.81498 50.3123 -3.57652 51.1974 -3.11681C52.0824 -2.6571 52.5509 -1.60561 52.2206 -0.665335C53.8523 0.0632067 55.2854 1.47333 55.8775 2.67699C56.9197 4.79567 57.6743 10.5072 53.7931 11.8212C58.5977 31.9882 20.3682 22.0914 -1.32962e-05 22.0914C-20.2357 22.0914 -45.0732 28.3281 -41.8836 12.9784C-44.6787 11.8212 -48.2008 8.95145 -46.5316 4.29176C-45.7036 1.98007 -43.8185 0.567096 -42.3936 0.567005C-41.0392 0.566917 -42.9934 -2.19999 -40.2188 -3.8149C-39.0195 -4.5129 -37.7273 -4.43211 -36.6068 -4.12355C-28.0141 -23.731 -20.4124 -40 0 -40Z"></path>
  <path fill="#E3CEC2" transform="matrix(0.556923 -0.0790095 0.0790095 0.556923 166.772 106.153)" d="M0 0C0 -19.4564 6.19049 -23.8887 6.19049 -23.8887C25.0054 -43.7609 53.1913 -52.4203 117 -52.4203C180.809 -52.4203 217.711 -40.5795 229.005 -22.5C229.005 -22.5 236.876 -14.3389 233 -3.05176e-05C233 -3.05176e-05 222.592 -33.1384 117.06 -33.1384C11.5269 -33.1384 0 0 0 0Z"></path>
  <path fill="#C9B1AA" transform="matrix(0.556923 -0.0790095 0.0228078 0.160768 231.654 96.9483)" d="M4.76837e-07 -116.5C64.3412 -116.5 116.5 -64.3412 116.5 0C116.333 7.78602 114.079 -0.846931 92.5947 -2.56885C90.1363 -68.6432 33.7083 -93.0964 2.0524 -93.0964C-33.7213 -93.0964 -91.7603 -68.5196 -92.7458 3.01566C-107.568 13.6071 -116.5 28.5675 -116.5 0C-116.5 -64.3412 -64.3412 -116.5 4.76837e-07 -116.5Z"></path>
  <clipPath id="cl_1e9">
    <path d="M198.764 14.8972C206.368 13.8184 217.284 14.3046 218.583 19.4299C220.309 26.2415 221.322 30.309 222.088 35.7054C223.745 47.3859 218.899 55.1909 204.765 57.196C190.631 59.2012 184.658 57.9581 183.001 46.2776C181.344 34.5971 184.63 16.9024 198.764 14.8972Z"></path>
  </clipPath>
  <g clip-path="url(#cl_1e9)">
    <path fill="#503F7E" transform="matrix(3.29958 -0.647664 0.691401 3.5224 204.991 52.2609)" d="M-5.16451 -6.50116C-5.16451 -12.7512 6 -12.7512 6 -6.50116C6 -0.251163 6 12.5 6 12.5L-6 12.5C-6 12.5 -5.16451 -0.251163 -5.16451 -6.50116Z"></path>
    <path fill="none" stroke="#161616" stroke-width="0.5" stroke-linecap="round" stroke-linejoin="round" transform="matrix(3.5224 -0.691401 0.691401 3.5224 204.311 32.7301)" d="M7.33795e-07 3.8412e-06L4.54849e-06 10.5382"></path>
  </g>
  <clipPath id="cl_1eb">
    <path d="M229.915 69.8503C261.986 69.8503 283.528 88.1603 303.207 122.518C305.145 120.268 306.962 120.601 308.318 121.241C309.673 121.882 310.391 123.347 309.885 124.657C312.384 125.672 314.578 127.637 315.485 129.314C317.081 132.266 318.237 140.224 312.293 142.055C319.651 170.155 261.107 156.365 229.915 156.365C198.926 156.365 160.891 165.055 165.775 143.667C161.495 142.055 156.101 138.056 158.657 131.564C159.925 128.343 162.812 126.374 164.994 126.374C167.068 126.374 164.075 122.519 168.324 120.269C170.161 119.296 172.14 119.409 173.856 119.838C187.015 92.5185 198.656 69.8503 229.915 69.8503Z"></path>
  </clipPath>
  <g clip-path="url(#cl_1eb)">
    <path fill="#7463A5" transform="matrix(1.8 2.98023e-08 0.00759348 1.8 235.767 110.441)" d="M9.53674e-07 -5.5C3.86599 -5.5 7 -2.92564 7 0.25C7 3.42564 3.86599 6 9.53674e-07 6C-3.86599 6 -7 3.42564 -7 0.25C-7 -2.92564 -3.86599 -5.5 9.53674e-07 -5.5Z"></path>
    <path fill="#7463A5" transform="matrix(1.83618 3.04014e-08 0.00759348 1.8 288.316 102.295)" d="M0 -5.00001C2.76142 -5.00001 5 -2.6495 5 0.249992C5 3.14949 2.76142 5.49999 0 5.49999C-2.76142 5.49999 -5 3.14949 -5 0.249992C-5 -2.6495 -2.76142 -5.00001 0 -5.00001Z"></path>
    <path fill="none" stroke="#131212" stroke-width="1" stroke-linecap="round" stroke-linejoin="round" transform="matrix(2.30699 -0.373724 0.274137 1.69224 266.547 95.5994)" d="M2.39559e-06 7.21529e-06L2.92892 -0.71456"></path>
    <path fill="none" stroke="#131212" stroke-width="1" stroke-linecap="round" stroke-linejoin="round" transform="matrix(2.30699 -0.373724 0.274137 1.69224 244.797 94.7697)" d="M4.76837e-07 -1.48459e-07L4.25731 1.79213"></path>
    <path fill="#131212" transform="matrix(2.47104 -0.400299 0.405754 2.50471 258.581 97.8799)" d="M4.54078e-07 -2.15485e-07L1.9614 0.352738L0.91509 1.42246L4.54078e-07 -2.15485e-07Z"></path>
    <path fill="none" stroke="#131212" stroke-width="0.5" stroke-linecap="round" stroke-linejoin="round" transform="matrix(1.93759 -0.313883 0.31816 1.96399 261.641 101.415)" d="M-8.35247e-07 -0.711232L-4.67709e-06 1.11019"></path>
    <path fill="#32225E" transform="matrix(1.74285 0.441491 -0.424043 1.74552 255.429 90.0143)" d="M-2.87169e-08 -1.92716C1.62851 -1.92716 2.94867 -1.06434 2.94867 -4.39386e-08C2.94867 1.06434 1.62851 1.92716 2.87169e-08 1.92716C-1.62851 1.92716 -2.94867 1.06434 -2.94867 4.39386e-08C-2.94867 -1.06434 -1.62851 -1.92716 -2.87169e-08 -1.92716Z"></path>
    <path fill="#32225E" transform="matrix(1.71213 0.433708 -0.412468 1.69787 266.622 89.1394)" d="M-3.8147e-06 -1.89919C0.889985 -1.89919 1.61146 -1.04889 1.61146 -2.40127e-08C1.61146 1.04889 0.889985 1.89919 -3.8147e-06 1.89919C-0.889993 1.89919 -1.61147 1.04889 -1.61147 2.40127e-08C-1.61147 -1.04889 -0.889993 -1.89919 -3.8147e-06 -1.89919Z"></path>
  </g>
  <path fill="none" stroke="black" stroke-width="4" stroke-linejoin="round" transform="matrix(1.8 0 0 1.8 356.966 164.528)" d="M-11.7479 -12.9046C-11.318 -13.5165 -10.7601 -14.1187 -10.0572 -14.7065C-5.47351 -18.5399 3.93803 -16.1165 4.43081 -14.7065C7.46664 -16.1165 10.8961 -16.6614 15.0174 -13.9738C19.1387 -11.2862 16.2386 -4.86793 16.6118 -4.55444C16.985 -4.24095 25.2116 0.494543 17.5976 8.33766C16.6439 8.92035 15.7365 9.39702 14.8735 9.77867"></path>
  <path fill="#7463A5" transform="matrix(1.8 0 0 1.8 356.966 164.528)" d="M-0.116459 0C-2.60165 -0.66394 -7.05859 1.11792 -10.0572 -2.65576C-13.0559 -6.42944 -14.641 -10.8732 -10.0572 -14.7065C-5.47351 -18.5399 3.93803 -16.1165 4.43081 -14.7065C7.46664 -16.1165 10.8961 -16.6614 15.0174 -13.9738C19.1387 -11.2862 16.2386 -4.86793 16.6118 -4.55444C16.985 -4.24095 25.2116 0.494543 17.5976 8.33766C2.90119 17.3171 -0.80999 1.11792 -0.116459 0Z"></path>
  <path fill="none" stroke="black" stroke-width="6" stroke-linejoin="round" transform="matrix(1.8 0 0 1.8 170.253 262.174)" d="M72.5249 -5.22451C32.8129 -6.2615 34.4705 -69.7399 74.1825 -68.7029C91.0964 -68.2612 119.312 -67.5244 136.841 -67.0667C142.999 -66.9058 154.089 -58.1034 153.753 -34.8642C153.416 -11.625 142.277 -3.40305 137.477 -3.52841C119.845 -3.98882 85.007 -4.89856 72.5249 -5.22451Z"></path>
  <path fill="none" stroke="black" stroke-width="6" stroke-linecap="round" stroke-linejoin="bevel" transform="matrix(1.8 0 0 1.67094 170.253 171.927)" d="M66.6239 -23.2003C74.1321 -20.9917 80.6623 -19.0708 83.9596 -18.1009C122.428 -6.78509 105.663 59.1924 67.1944 47.8766C57.5378 45.036 39.7867 39.8144 28.6057 36.5253C17.4246 33.2363 3.1021 22.0313 7.33792 5.32129C7.70249 3.88309 8.04307 2.53949 8.36229 1.2802"></path>
  <path fill="#503F7E" transform="matrix(1.8 0 0 1.8 170.253 262.174)" d="M72.5249 -5.22451C31.1635 -6.30459 32.8212 -69.783 74.1825 -68.7029C91.0964 -68.2612 119.312 -67.5244 136.841 -67.0667C142.999 -66.9058 154.089 -58.1034 153.753 -34.8642C153.416 -11.625 142.277 -3.40305 137.477 -3.52841C119.845 -3.98882 85.007 -4.89856 72.5249 -5.22451Z"></path>
  <path fill="#503F7E" transform="matrix(1.8 0 0 1.67094 170.253 171.927)" d="M28.6057 36.5253C17.4246 33.2363 3.10211 22.0313 7.33792 5.32128C11.5737 -11.3887 12.5721 -15.3271 14.433 -22.6682C16.2939 -30.0093 21.7649 -36.3961 35.8263 -32.2598C49.8877 -28.1235 76.1023 -20.4122 83.9596 -18.1009C117.797 -8.14738 101.031 57.8301 67.1944 47.8766C57.5378 45.036 39.7867 39.8144 28.6057 36.5253Z"></path>
</svg>