<?xml version="1.0" encoding="utf-8"?>
<svg xmlns="http://www.w3.org/2000/svg" xmlns:xlink="http://www.w3.org/1999/xlink" width="512" height="512">
  <path fill="none" stroke="black" stroke-width="6" stroke-linejoin="round" transform="matrix(1.8 0 0 1.52279 359.051 169.591)" d="M-12.9499 -16.9737C-9.29564 -16.9737 -6.64207 -16.9737 -3.22024 -16.9737C3.84399 -16.9737 11.0046 -12.9707 11.0046 2.73135C11.0046 18.4334 11.0046 47.7067 11.0046 56.4809C11.0046 99.4374 -52.4954 99.3952 -52.4954 56.4387C-52.4954 45.6553 -52.4954 25.833 -52.4954 13.3474C-52.4954 0.86171 -46.234 -16.9737 -30.1542 -16.9737C-28.9505 -16.9737 -27.8157 -16.9737 -26.7432 -16.9737"></path>
  <path fill="none" stroke="black" stroke-width="6" stroke-linejoin="round" transform="matrix(1.8 0 0 1.64041 359.051 251.837)" d="M-52.4947 0.0843637C-52.6283 -42.538 10.8713 -42.7371 11.005 -0.114778C11.0581 16.8048 11.1466 45.0299 11.2016 62.5645C11.2209 68.7253 2.74649 80.0675 -20.4926 80.4109C-43.7317 80.7542 -52.2759 69.8599 -52.2909 65.0579C-52.3462 47.4206 -52.4555 12.5707 -52.4947 0.0843637Z"></path>
  <path fill="#503F7E" transform="matrix(1.8 0 0 1.52279 359.051 169.591)" d="M-52.4954 13.3474C-52.4954 0.861706 -46.234 -16.9737 -30.1542 -16.9737C-14.0744 -16.9737 -10.2845 -16.9737 -3.22024 -16.9737C3.84399 -16.9737 11.0046 -12.9707 11.0046 2.73135C11.0046 18.4334 11.0046 47.7067 11.0046 56.4809C11.0046 99.4374 -52.4954 99.3952 -52.4954 56.4387C-52.4954 45.6553 -52.4954 25.833 -52.4954 13.3474Z"></path>
  <path fill="#503F7E" transform="matrix(1.8 0 0 1.64041 359.051 251.837)" d="M-52.4947 0.0843625C-52.6283 -42.538 10.8713 -42.7371 11.005 -0.114779C11.0581 16.8048 11.1466 45.0299 11.2016 62.5645C11.2209 68.7253 2.74649 80.0675 -20.4926 80.4109C-43.7317 80.7542 -52.2759 69.8599 -52.2909 65.0579C-52.3462 47.4206 -52.4555 12.5707 -52.4947 0.0843625Z"></path>
  <path fill="none" stroke="black" stroke-width="5" stroke-linejoin="round" transform="matrix(1.67985 0 0 1.8 269.501 356.202)" d="M3.26075 -15.6843C21.4775 -15.1595 34.2791 -10.6167 32.7122 36.7496C32.6853 50.8567 36.1987 65.9025 21.2077 74.0586C9.63898 73.9664 -3.28444 74.7728 -19.7491 74.5083C-30.5866 65.9001 -30.4402 50.8489 -30.4379 34.0268C-29.5167 -12.4547 -14.956 -16.2092 3.26075 -15.6843Z"></path>
  <path fill="#453279" transform="matrix(1.67985 0 0 1.8 269.501 356.202)" d="M3.26075 -15.6843C21.4775 -15.1595 34.2791 -10.6167 32.7122 36.7496C32.6853 50.8567 36.1987 65.9025 21.2077 74.0586C9.63898 73.9664 -3.28444 74.7728 -19.7491 74.5083C-30.5866 65.9001 -30.4402 50.8489 -30.4379 34.0268C-29.5167 -12.4547 -14.956 -16.2092 3.26075 -15.6843Z"></path>
  <path fill="none" stroke="black" stroke-width="5" stroke-linejoin="round" transform="matrix(1.67985 0 0 1.8 191.63 362.835)" d="M1.14441e-05 -14.3439C18.2254 -14.3439 31.1711 -10.1719 31.1712 37.2169C31.7865 56.0934 34.5752 69.036 19.1016 75.646C3.62799 76.0176 -7.05902 76.224 -21.8955 75.8837C-36.732 69.3049 -32.1706 52.8104 -32.0389 36.314C-32.655 -10.1719 -18.2254 -14.3439 1.14441e-05 -14.3439Z"></path>
  <path fill="none" stroke="black" stroke-width="5" stroke-linejoin="round" transform="matrix(1.79976 0.0276995 -0.0293645 1.69771 274.686 279.649)" d="M-11.3238 -80.2543C25.8014 -80.2543 54.9476 -94.6926 58.9092 -40.8672C62.8708 12.9582 37.0524 74.7499 0.0572928 75.3534C-14.1177 75.5847 -17.7665 75.6442 -48.2096 76.1409C-78.6526 76.6376 -84.25 60.12 -84.25 0C-86.6294 -86.0849 -88.6034 -78.4854 -12.7475 -80.2208"></path>
  <path fill="#503F7E" transform="matrix(1.67985 0 0 1.8 191.63 362.835)" d="M1.14441e-05 -14.3439C18.2254 -14.3439 31.1711 -10.1719 31.1712 37.2169C31.7865 56.0934 34.5752 69.036 19.1016 75.646C3.62799 76.0176 -7.05902 76.224 -21.8955 75.8837C-36.732 69.3049 -32.1706 52.8104 -32.0389 36.314C-32.655 -10.1719 -18.2254 -14.3439 1.14441e-05 -14.3439Z"></path>
  <path fill="none" stroke="black" stroke-width="5" stroke-linejoin="round" transform="matrix(1.53139 0 0 1.39334 225.132 125.584)" d="M0 -40C20.9426 -40 35.0096 -26.8589 47.8597 -2.20017C49.1253 -3.81498 50.3123 -3.57652 51.1974 -3.11681C52.0824 -2.6571 52.5509 -1.60561 52.2206 -0.665335C53.8523 0.0632067 55.2854 1.47333 55.8775 2.67699C56.9197 4.79567 57.6743 10.5072 53.7931 11.8212C58.5977 31.9882 20.3682 22.0914 -1.32962e-05 22.0914C-20.2357 22.0914 -45.0732 28.3281 -41.8836 12.9784C-44.6787 11.8212 -48.2008 8.95145 -46.5316 4.29176C-45.7036 1.98007 -43.8185 0.567096 -42.3936 0.567005C-41.0392 0.566917 -42.9934 -2.19999 -40.2188 -3.8149C-39.0195 -4.5129 -37.7273 -4.43211 -36.6068 -4.12355C-28.0141 -23.731 -20.4124 -40 0 -40Z"></path>
  <path fill="#503F7E" transform="matrix(1.79976 0.0276995 -0.0293645 1.69771 274.686 279.649)" d="M-11.3238 -80.2543C25.8014 -80.2543 54.9476 -94.6926 58.9092 -40.8672C62.8708 12.9582 37.0524 74.7499 0.0572928 75.3534C-14.1177 75.5847 -17.7665 75.6442 -48.2096 76.1409C-78.6526 76.6376 -84.25 60.12 -84.25 0C-86.6442 -86.62 -88.6279 -78.3873 -11.3238 -80.2543Z"></path>
  <clipPath id="cl_523">
    <path d="M256.662 143.087C323.479 144.115 376.359 120.411 381.908 211.9C387.457 303.39 339.176 407.579 272.576 407.579C247.058 407.579 240.489 407.579 185.684 407.579C130.879 407.579 121.29 379.382 123.056 277.316C121.29 130.193 117.478 144.115 256.662 143.087Z"></path>
  </clipPath>
  <g clip-path="url(#cl_523)">
    <path fill="#655494" transform="matrix(1.8 0 0 1.8 311.811 261.728)" d="M-0.158646 -48.2655C25.513 -48.2655 46.324 -26.6563 46.324 0C46.324 26.6563 25.513 48.2655 -0.158646 48.2655C-25.8303 48.2655 -46.6413 26.6563 -46.6413 0C-46.6413 -26.6563 -25.8303 -48.2655 -0.158646 -48.2655Z"></path>
  </g>
  <path fill="none" stroke="black" stroke-width="2" stroke-linejoin="round" transform="matrix(3.88825 -0.763212 0.691401 3.5224 231.932 47.3358)" d="M-4.34758 -5.25471C-4.34758 -11.5047 3.66088 -11.5047 3.66088 -5.25471C3.66088 0.995287 3.66088 12.5 3.66088 12.5L-4.57314 12.5C-4.57314 12.5 -4.34758 0.995288 -4.34758 -5.25471Z"></path>
  <path fill="none" stroke="black" stroke-width="2" stroke-linejoin="round" transform="matrix(3.4549 -0.678153 0.691401 3.5224 197.323 52.8273)" d="M-5.16451 -6.50118C-5.16451 -12.7512 6 -12.7512 6 -6.50118C6 -0.251178 6 12.5 6 12.5L-6 12.5C-6 12.5 -5.16451 -0.251179 -5.16451 -6.50118Z"></path>
  <path fill="#453279" transform="matrix(3.88825 -0.763212 0.691401 3.5224 231.932 47.3358)" d="M-4.34758 -5.25471C-4.34758 -11.5047 3.66088 -11.5047 3.66088 -5.25471C3.66088 0.995287 3.66088 12.5 3.66088 12.5L-4.57314 12.5C-4.57314 12.5 -4.34758 0.995288 -4.34758 -5.25471Z"></path>
  <path fill="none" stroke="#161616" stroke-width="0.5" stroke-linecap="round" stroke-linejoin="round" transform="matrix(3.88825 -0.763212 0.691401 3.5224 227.138 27.8041)" d="M3.83021e-06 1.51652L3.11543e-06 10.5382"></path>
  <path fill="#503F7E" transform="matrix(3.44412 -0.676036 0.691401 3.5224 197.258 52.84)" d="M-5.1645 -6.50117C-5.1645 -12.7512 6 -12.7512 6 -6.50117C6 -0.25117 6 12.5 6 12.5L-6 12.5C-6 12.5 -5.1645 -0.251171 -5.1645 -6.50117Z"></path>
  <path fill="none" stroke="#161616" stroke-width="0.5" stroke-linecap="round" stroke-linejoin="round" transform="matrix(3.5224 -0.691401 0.691401 3.5224 197.938 32.7301)" d="M1.85391e-08 7.65589e-06L3.83324e-06 10.5382"></path>
  <path fill="none" stroke="black" stroke-width="7" stroke-linejoin="round" transform="translate(256 256)" d="M-82.5519 -151.663L21.6135 -166.441C21.6135 -166.441 7.08333 -237.613 -40.1832 -229.526C-42.6713 -229.101 -44.8168 -228.116 -46.7111 -226.754C-47.5871 -218.207 -50.336 -201.898 -74.4077 -200.476C-84.4579 -178.08 -82.5519 -151.663 -82.5519 -151.663Z"></path>
  <path fill="none" stroke="black" stroke-width="7" stroke-miterlimit="4" transform="translate(256 256)" d="M-39.2633 -237.059C-34.3421 -237.757 -29.7866 -234.333 -29.0884 -229.412C-28.3902 -224.491 -31.8138 -219.935 -36.735 -219.237C-41.6563 -218.539 -46.2118 -221.962 -46.91 -226.884C-47.6081 -231.805 -44.1846 -236.36 -39.2633 -237.059Z"></path>
  <path fill="#E3CEC2" transform="matrix(0.556923 -0.0790095 0.0790095 0.556923 218.001 27.8522)" d="M0 -16C8.83656 -16 16 -8.83659 16 -3.05176e-05C16 8.83653 8.83656 16 0 16C-8.83656 16 -16 8.83653 -16 -3.05176e-05C-16 -8.83659 -8.83656 -16 0 -16Z"></path>
  <path fill="#8D5A3E" transform="matrix(0.556923 -0.0790095 0.0790095 0.556923 165.972 105.398)" d="M13.4248 -3.05176e-05L200.462 -3.05176e-05C200.462 -3.05176e-05 192.659 -128.902 107.443 -126.472C102.958 -126.344 98.9354 -125.146 95.2612 -123.223C91.5849 -108.397 82.6738 -80.3768 39.9489 -83.8848C16.6664 -46.9736 13.4248 -3.05176e-05 13.4248 -3.05176e-05Z"></path>
  <path fill="#4A4848" transform="matrix(0.504494 -0.0715715 0.0228078 0.160768 224.328 86.468)" d="M1.90735e-06 -116.5C64.3412 -116.5 116.5 -64.3411 116.5 0.000125542C116.5 64.3413 64.3412 116.5 1.90735e-06 116.5C-64.3412 116.5 -116.5 64.3413 -116.5 0.000118598C-116.5 -64.3411 -64.3412 -116.5 1.90735e-06 -116.5Z"></path>
  <path fill="none" stroke="black" stroke-width="7" stroke-miterlimit="4" transform="translate(256 256)" d="M-33.1263 -177.781C2.70679 -182.865 32.9449 -178.6 34.4124 -168.256C35.8799 -157.912 8.02101 -145.406 -27.8121 -140.322C-63.6452 -135.239 -93.8833 -139.503 -95.3508 -149.847C-96.8183 -160.191 -68.9594 -172.698 -33.1263 -177.781Z"></path>
  <path fill="#C9B1AA" transform="matrix(0.556923 -0.0790095 0.0228078 0.160768 225.531 96.9483)" d="M-0.51916 93.3573C63.822 93.3573 81.6546 -40.5054 116.5 0C116.333 7.78602 114.666 35.3784 103.443 64.6424C92.2186 93.9064 32.9112 142.08 1.25539 142.08C-34.5183 142.08 -86.5851 95.3331 -99.0912 78.9829C-111.597 62.6327 -116.509 26.4158 -116.5 0C-66.3811 -27.319 -64.8603 93.3573 -0.51916 93.3573Z"></path>
  <path fill="#65524C" transform="matrix(0.447062 -0.0634237 0.0183086 0.129054 225.531 96.9483)" d="M0 -116.5C64.3412 -116.5 116.5 -64.3411 116.5 0.00012207C116.5 64.3413 64.3412 116.5 0 116.5C-64.3412 116.5 -116.5 64.3413 -116.5 0.00012207C-116.5 -64.3411 -64.3412 -116.5 0 -116.5Z"></path>
  <clipPath id="cl_524">
    <path d="M223.398 81.9135C252.162 77.8327 276.435 81.2559 277.613 89.5594C278.791 97.8629 256.428 107.902 227.664 111.983C198.899 116.064 174.626 112.641 173.448 104.337C172.27 96.0336 194.633 85.9942 223.398 81.9135Z"></path>
  </clipPath>
  <g clip-path="url(#cl_524)">
    <path fill="#857069" transform="matrix(1.7889 -0.253787 0.253787 1.7889 183.499 87.0036)" d="M6.3453 -18.4774C15.1819 -18.4774 19.9785 -8.83655 25.4977 7.48038e-06C40.8822 25.7165 8.83656 21.8364 6.85453e-07 19.1869C-8.83656 16.5373 -16 8.83656 -16 7.62939e-06C-16 -8.83655 -2.49126 -18.4774 6.3453 -18.4774Z"></path>
  </g>
  <clipPath id="cl_525">
    <path d="M173.448 104.337L277.613 89.5594C277.613 89.5594 263.083 18.3875 215.817 26.4736C213.329 26.8993 211.183 27.884 209.289 29.2456C208.413 37.7928 205.664 54.1021 181.592 55.5241C171.542 77.9203 173.448 104.337 173.448 104.337Z"></path>
  </clipPath>
  <g clip-path="url(#cl_525)">
    <path fill="#65524C" transform="matrix(0.682449 -0.0968176 0.0594143 0.4188 195.642 36.0466)" d="M-3.8147e-06 -50.5C11.1423 -50.5 26.7229 -45.7372 27.5442 -33.3093C28.6357 -16.7925 29.2617 -6.93543 29.2617 5.94992C29.2616 33.8403 20.7107 50.5 -3.8147e-06 50.5C-20.7107 50.5 -29.0363 45.6071 -29.0363 17.7168C-29.0363 -10.1736 -20.7107 -50.5 -3.8147e-06 -50.5Z"></path>
    <path fill="#714035" transform="matrix(0.298708 -0.253155 0.253155 0.298708 245.431 41.9243)" d="M-46.3834 -19.9076C-36.9946 -19.9076 -29.3834 -27.5187 -29.3834 -36.9076L29.3834 -36.9076C29.3834 -27.5187 36.9946 -19.9076 46.3834 -19.9076L46.3834 19.9076C36.9946 19.9076 29.3834 27.5187 29.3834 36.9076L-29.3834 36.9076C-29.3834 27.5187 -36.9946 19.9076 -46.3834 19.9076L-46.3834 -19.9076Z"></path>
  </g>
  <clipPath id="cl_527">
    <path d="M192.641 14.8972C200.245 13.8184 211.161 14.3046 212.46 19.4299C214.186 26.2415 215.199 30.309 215.965 35.7054C217.622 47.3859 212.776 55.1909 198.642 57.196C184.508 59.2012 178.536 57.9581 176.879 46.2776C175.221 34.5971 178.507 16.9024 192.641 14.8972Z"></path>
  </clipPath>
  <g clip-path="url(#cl_527)">
    <clipPath id="cl_528">
      <path d="M173.448 104.337L277.613 89.5594C277.613 89.5594 263.083 18.3875 215.817 26.4736C213.329 26.8993 211.183 27.884 209.289 29.2456C208.413 37.7928 205.664 54.1021 181.592 55.5241C171.542 77.9203 173.448 104.337 173.448 104.337Z"></path>
    </clipPath>
    <g clip-path="url(#cl_528)">
      <path fill="#857069" transform="matrix(1.7889 -0.253787 0.253787 1.7889 179.151 58.3615)" d="M1.90735e-06 -16C8.83656 -16 12.0102 -8.83655 16.201 6.41487e-06C20.3918 8.83656 8.83656 16 1.90735e-06 16C-8.83655 16 -16 8.83656 -16 7.62939e-06C-16 -8.83655 -8.83655 -16 1.90735e-06 -16Z"></path>
    </g>
  </g>
  <path fill="none" stroke="black" stroke-width="7" stroke-linejoin="round" transform="translate(256 256)" d="M-95.3508 -149.847C-96.888 -160.683 -93.7906 -163.64 -93.7906 -163.64C-90.7948 -167.862 -87.1087 -171.461 -82.1838 -174.571"></path>
  <path fill="none" stroke="black" stroke-width="7" stroke-linejoin="round" transform="translate(256 256)" d="M15.1196 -188.499C22.314 -186.783 27.4052 -184.044 30.4098 -180.471C30.4098 -180.471 34.803 -177.044 34.539 -169.825"></path>
  <path fill="#503F7E" transform="matrix(1.53139 0 0 1.39334 225.132 125.584)" d="M0 -40C20.9426 -40 35.0096 -26.8589 47.8597 -2.20017C49.1253 -3.81498 50.3123 -3.57652 51.1974 -3.11681C52.0824 -2.6571 52.5509 -1.60561 52.2206 -0.665335C53.8523 0.0632067 55.2854 1.47333 55.8775 2.67699C56.9197 4.79567 57.6743 10.5072 53.7931 11.8212C58.5977 31.9882 20.3682 22.0914 -1.32962e-05 22.0914C-20.2357 22.0914 -45.0732 28.3281 -41.8836 12.9784C-44.6787 11.8212 -48.2008 8.95145 -46.5316 4.29176C-45.7036 1.98007 -43.8185 0.567096 -42.3936 0.567005C-41.0392 0.566917 -42.9934 -2.19999 -40.2188 -3.8149C-39.0195 -4.5129 -37.7273 -4.43211 -36.6068 -4.12355C-28.0141 -23.731 -20.4124 -40 0 -40Z"></path>
  <path fill="#E3CEC2" transform="matrix(0.556923 -0.0790095 0.0790095 0.556923 160.649 106.153)" d="M0 0C0 -19.4564 6.19049 -23.8887 6.19049 -23.8887C25.0053 -43.7609 53.1913 -52.4203 117 -52.4203C180.809 -52.4203 217.711 -40.5795 229.005 -22.5C229.005 -22.5 236.876 -14.3389 233 -3.05176e-05C233 -3.05176e-05 222.592 -33.1383 117.06 -33.1384C11.5269 -33.1384 0 0 0 0Z"></path>
  <path fill="#C9B1AA" transform="matrix(0.556923 -0.0790095 0.0228078 0.160768 225.531 96.9483)" d="M3.8147e-06 -116.5C64.3412 -116.5 116.5 -64.3412 116.5 0C116.333 7.78602 114.079 -0.846931 92.5947 -2.56885C90.1363 -68.6432 33.7083 -93.0964 2.05241 -93.0964C-33.7213 -93.0964 -91.7603 -68.5196 -92.7458 3.01566C-107.568 13.6071 -116.5 28.5675 -116.5 0C-116.5 -64.3412 -64.3412 -116.5 3.8147e-06 -116.5Z"></path>
  <clipPath id="cl_529">
    <path d="M192.641 14.8972C200.245 13.8184 211.161 14.3046 212.46 19.4299C214.186 26.2415 215.199 30.309 215.965 35.7054C217.622 47.3859 212.776 55.1909 198.642 57.196C184.508 59.2012 178.536 57.9581 176.879 46.2776C175.221 34.5971 178.507 16.9024 192.641 14.8972Z"></path>
  </clipPath>
  <g clip-path="url(#cl_529)">
    <path fill="#503F7E" transform="matrix(3.4657 -0.680271 0.691401 3.5224 197.258 52.84)" d="M-5.1645 -6.50116C-5.16451 -12.7512 6 -12.7512 6 -6.50116C6 -0.251162 6 12.5 6 12.5L-6 12.5C-6 12.5 -5.1645 -0.251164 -5.1645 -6.50116Z"></path>
    <path fill="none" stroke="#161616" stroke-width="0.5" stroke-linecap="round" stroke-linejoin="round" transform="matrix(3.5224 -0.691401 0.691401 3.5224 197.94 32.7301)" d="M7.33795e-07 2.6499e-08L4.54849e-06 10.5382"></path>
  </g>
  <clipPath id="cl_52b">
    <path d="M225.132 69.8503C257.204 69.8503 278.746 88.1603 298.424 122.518C300.362 120.268 302.18 120.601 303.535 121.241C304.891 121.882 305.608 123.347 305.102 124.657C307.601 125.672 309.796 127.637 310.702 129.314C312.298 132.266 313.454 140.224 307.51 142.055C314.868 170.155 256.324 156.365 225.132 156.365C194.144 156.365 156.108 165.055 160.992 143.667C156.712 142.055 151.318 138.056 153.874 131.564C155.143 128.343 158.029 126.374 160.211 126.374C162.286 126.374 159.293 122.519 163.542 120.269C165.378 119.296 167.357 119.409 169.073 119.838C182.232 92.5185 193.873 69.8503 225.132 69.8503Z"></path>
  </clipPath>
  <g clip-path="url(#cl_52b)">
    <path fill="#7463A5" transform="matrix(1.8 2.98023e-08 0.00759348 1.8 221.882 110.441)" d="M0 -5.5C3.86599 -5.5 7 -2.92564 7 0.25C7 3.42564 3.86599 6 0 6C-3.86599 6 -7 3.42564 -7 0.25C-7 -2.92564 -3.86599 -5.5 0 -5.5Z"></path>
    <path fill="#7463A5" transform="matrix(1.83618 3.04014e-08 0.00759348 1.8 274.431 102.295)" d="M-9.53674e-07 -5.00001C2.76142 -5.00001 5 -2.6495 5 0.249992C5 3.14949 2.76142 5.49999 -9.53674e-07 5.49999C-2.76142 5.49999 -5 3.14949 -5 0.249992C-5 -2.6495 -2.76142 -5.00001 -9.53674e-07 -5.00001Z"></path>
    <path fill="none" stroke="#131212" stroke-width="1" stroke-linecap="round" stroke-linejoin="round" transform="matrix(2.30699 -0.373724 0.274137 1.69224 252.662 95.5994)" d="M1.44192e-06 -4.14104e-07L2.92891 -0.714567"></path>
    <path fill="none" stroke="#131212" stroke-width="1" stroke-linecap="round" stroke-linejoin="round" transform="matrix(2.30699 -0.373724 0.274137 1.69224 230.912 94.7697)" d="M1.01328e-06 -1.48459e-07L4.25731 1.79213"></path>
    <path fill="#131212" transform="matrix(2.47104 -0.400299 0.405754 2.50471 244.696 97.8799)" d="M9.30915e-07 -4.03018e-06L1.96141 0.352734L0.915091 1.42246L9.30915e-07 -4.03018e-06Z"></path>
    <path fill="none" stroke="#131212" stroke-width="0.5" stroke-linecap="round" stroke-linejoin="round" transform="matrix(1.93759 -0.313883 0.31816 1.96399 247.756 101.415)" d="M-8.35247e-07 -0.711232L-4.67709e-06 1.11019"></path>
    <path fill="#32225E" transform="matrix(1.74285 0.441491 -0.424043 1.74552 241.544 90.0143)" d="M-2.87169e-08 -1.92716C1.62851 -1.92716 2.94867 -1.06434 2.94867 -4.39386e-08C2.94867 1.06434 1.62851 1.92716 2.87169e-08 1.92716C-1.62851 1.92716 -2.94867 1.06434 -2.94867 4.39386e-08C-2.94867 -1.06434 -1.62851 -1.92716 -2.87169e-08 -1.92716Z"></path>
    <path fill="#32225E" transform="matrix(1.71213 0.433708 -0.412468 1.69787 252.737 89.1394)" d="M-5.72205e-06 -1.89919C0.889983 -1.89919 1.61146 -1.04889 1.61146 -2.40127e-08C1.61146 1.04889 0.889983 1.89919 -5.72205e-06 1.89919C-0.889995 1.89919 -1.61147 1.04889 -1.61147 2.40127e-08C-1.61147 -1.04889 -0.889995 -1.89919 -5.72205e-06 -1.89919Z"></path>
  </g>
  <path fill="none" stroke="black" stroke-width="4" stroke-linejoin="round" transform="matrix(1.8 0 0 1.8 352.166 164.528)" d="M-11.7479 -12.9046C-11.318 -13.5165 -10.7601 -14.1187 -10.0572 -14.7065C-5.47351 -18.5399 3.93804 -16.1165 4.43081 -14.7065C7.46664 -16.1165 10.8961 -16.6614 15.0174 -13.9738C19.1387 -11.2862 16.2386 -4.86793 16.6118 -4.55444C16.985 -4.24095 25.2116 0.494543 17.5976 8.33766C16.6439 8.92035 15.7365 9.39702 14.8735 9.77867"></path>
  <path fill="#7463A5" transform="matrix(1.8 0 0 1.8 352.166 164.528)" d="M-0.116455 0C-2.60165 -0.66394 -7.05858 1.11792 -10.0572 -2.65576C-13.0559 -6.42944 -14.6409 -10.8732 -10.0572 -14.7065C-5.47351 -18.5399 3.93804 -16.1165 4.43081 -14.7065C7.46664 -16.1165 10.8961 -16.6614 15.0174 -13.9738C19.1387 -11.2862 16.2386 -4.86793 16.6118 -4.55444C16.985 -4.24095 25.2116 0.494543 17.5976 8.33766C2.9012 17.3171 -0.809986 1.11792 -0.116455 0Z"></path>
  <path fill="none" stroke="black" stroke-width="6" stroke-linejoin="round" transform="matrix(1.8 0 0 1.8 170.253 262.174)" d="M-31.4058 -0.149719C-31.1476 -39.8744 32.351 -39.4616 32.0928 0.26305C31.9828 17.1824 31.7994 45.407 31.6854 62.9413C31.6453 69.102 23.062 80.362 -0.179314 80.4814C-23.4207 80.6009 -31.8594 69.6247 -31.8282 64.8228C-31.7135 47.1857 -31.487 12.3364 -31.4058 -0.149719Z"></path>
  <path fill="none" stroke="black" stroke-width="6" stroke-linecap="round" stroke-linejoin="bevel" transform="matrix(1.8 0 0 1.67094 170.253 171.927)" d="M32.0751 38.3255C32.085 46.2068 32.0935 52.9887 32.0979 56.4957C32.1521 99.4522 -31.3479 99.5028 -31.402 56.5463C-31.4156 45.763 -31.4406 25.9407 -31.4563 13.4551C-31.4721 0.969425 -25.2332 -16.8752 -9.15335 -16.8987C-7.38067 -16.9013 -5.75735 -16.9036 -4.26254 -16.9058"></path>
  <path fill="#503F7E" transform="matrix(1.8 0 0 1.8 170.253 262.174)" d="M-31.4058 -0.14972C-31.1369 -41.5243 32.3618 -41.1115 32.0928 0.263049C31.9828 17.1824 31.7994 45.407 31.6854 62.9413C31.6453 69.102 23.062 80.362 -0.179314 80.4814C-23.4207 80.6009 -31.8594 69.6247 -31.8282 64.8228C-31.7135 47.1857 -31.487 12.3364 -31.4058 -0.14972Z"></path>
  <path fill="#503F7E" transform="matrix(1.8 0 0 1.67094 170.253 171.927)" d="M-31.4563 13.4551C-31.4721 0.969421 -25.2332 -16.8752 -9.15335 -16.8987C6.92644 -16.9222 10.7164 -16.9277 17.7806 -16.938C24.8448 -16.9484 32.0105 -12.9558 32.0303 2.74625C32.05 18.4483 32.0869 47.7216 32.0979 56.4957C32.1455 94.2807 -31.3545 94.3313 -31.402 56.5463C-31.4156 45.763 -31.4406 25.9407 -31.4563 13.4551Z"></path>
</svg>