<?xml version="1.0" encoding="utf-8"?>
<svg xmlns="http://www.w3.org/2000/svg" xmlns:xlink="http://www.w3.org/1999/xlink" width="686" height="512">
  <path fill="none" stroke="#818181" stroke-width="6" stroke-linejoin="round" transform="matrix(1.70248 0 0 1.44029 548.817 179.773)" d="M-12.9438 -16.9737C-9.28959 -16.9737 -6.63602 -16.9737 -3.2142 -16.9737C3.85004 -16.9737 11.0107 -12.9707 11.0107 2.73135C11.0107 18.4334 11.0107 47.7067 11.0107 56.4808C11.0107 99.4374 -52.4893 99.3952 -52.4893 56.4387C-52.4893 45.6553 -52.4893 25.833 -52.4893 13.3474C-52.4893 0.861706 -46.228 -16.9737 -30.1482 -16.9737C-28.9445 -16.9737 -27.8096 -16.9737 -26.7371 -16.9737"></path>
  <path fill="none" stroke="#818181" stroke-width="6" stroke-linejoin="round" transform="matrix(1.70248 0 0 1.55154 548.817 257.563)" d="M-51.8746 6.0132C-60.0083 -35.826 2.32478 -47.9439 10.4585 -6.10463C13.6873 10.5041 19.0736 38.2106 22.4198 55.4231C23.5954 61.4707 17.4013 74.2022 -5.36013 78.9027C-28.1215 83.6032 -38.5592 74.5068 -39.4755 69.793C-42.8413 52.4797 -49.4918 18.2701 -51.8746 6.0132Z"></path>
  <path fill="#A19AB3" transform="matrix(1.70248 0 0 1.44029 548.817 179.773)" d="M-52.4893 13.3474C-52.4893 0.861706 -46.228 -16.9737 -30.1482 -16.9737C-14.0683 -16.9737 -10.2784 -16.9737 -3.2142 -16.9737C3.85004 -16.9737 11.0107 -12.9707 11.0107 2.73135C11.0107 18.4334 11.0107 47.7067 11.0107 56.4809C11.0107 99.4374 -52.4893 99.3952 -52.4893 56.4387C-52.4893 45.6553 -52.4893 25.833 -52.4893 13.3474Z"></path>
  <path fill="#A19AB3" transform="matrix(1.70248 0 0 1.55154 548.817 257.563)" d="M-51.8746 6.0132C-60.0083 -35.826 2.32478 -47.9439 10.4585 -6.10463C13.6873 10.5041 19.0736 38.2106 22.4198 55.4231C23.5954 61.4707 17.4013 74.2022 -5.36013 78.9027C-28.1215 83.6032 -38.5592 74.5068 -39.4755 69.793C-42.8413 52.4797 -49.4918 18.2701 -51.8746 6.0132Z"></path>
  <path fill="none" stroke="#818181" stroke-width="5" stroke-linejoin="round" transform="matrix(1.58884 0 0 1.70248 464.118 356.274)" d="M0.964432 -15.5314C19.0654 -17.5155 32.4443 -14.7814 38.3678 32.2839C40.5669 46.2409 46.6035 60.8369 32.8354 71.3618C21.3344 72.532 8.60053 74.7424 -7.78445 76.2755C-19.6559 68.6918 -21.8718 54.9078 -24.5236 38.2687C-30.9462 -7.83276 -17.1365 -13.5472 0.964432 -15.5314Z"></path>
  <path fill="#9D95B1" transform="matrix(1.58884 0 0 1.70248 464.118 356.274)" d="M0.964432 -15.5314C19.0654 -17.5155 32.4443 -14.7814 38.3678 32.2839C40.5669 46.2409 46.6035 60.8369 32.8354 71.3618C21.3344 72.532 8.60053 74.7424 -7.78445 76.2755C-19.6559 68.6918 -21.8718 54.9078 -24.5236 38.2687C-30.9462 -7.83276 -17.1365 -13.5472 0.964432 -15.5314Z"></path>
  <path fill="none" stroke="#818181" stroke-width="5" stroke-linejoin="round" transform="matrix(1.58884 0 0 1.70248 390.465 362.548)" d="M-2.29679 -14.1224C15.727 -16.6454 29.1926 -14.3116 36.7248 32.553C40.3337 51.1354 45.1487 63.5489 30.8969 72.2278C15.6534 74.7373 5.11746 76.4209 -9.60899 78.1382C-25.327 73.686 -23.4378 56.7425 -25.9296 40.4103C-33.9275 -5.47601 -20.3206 -11.5994 -2.29679 -14.1224Z"></path>
  <path fill="none" stroke="#818181" stroke-width="5" stroke-linejoin="round" transform="matrix(1.70226 0.0261988 -0.0277736 1.60574 469.018 283.869)" d="M-11.3238 -80.2543C25.8014 -80.2543 54.9476 -94.6926 58.9092 -40.8672C62.8708 12.9582 37.0524 74.7499 0.0572919 75.3534C-14.1177 75.5847 -17.7665 75.6442 -48.2096 76.1409C-78.6526 76.6376 -84.25 60.12 -84.25 0C-86.6294 -86.0849 -88.6034 -78.4854 -12.7475 -80.2208"></path>
  <path fill="#A19AB3" transform="matrix(1.58884 0 0 1.70248 390.465 362.548)" d="M-2.29679 -14.1224C15.727 -16.6454 29.1926 -14.3116 36.7248 32.553C40.3337 51.1354 45.1487 63.5489 30.8969 72.2278C15.6534 74.7373 5.11746 76.4209 -9.60899 78.1382C-25.327 73.686 -23.4378 56.7425 -25.9296 40.4103C-33.9275 -5.47601 -20.3206 -11.5994 -2.29679 -14.1224Z"></path>
  <path fill="none" stroke="#818181" stroke-width="5" stroke-linejoin="round" transform="matrix(1.44842 1.48659e-24 -1.35259e-24 1.31786 421.62 138.15)" d="M0 -40C20.9426 -40 35.0096 -26.8589 47.8597 -2.20018C49.1253 -3.81499 50.3123 -3.57653 51.1974 -3.11682C52.0824 -2.65711 52.5509 -1.60562 52.2206 -0.665342C53.8523 0.0631991 55.2854 1.47333 55.8775 2.67698C56.9197 4.79566 57.6743 10.5072 53.7931 11.8212C58.5977 31.9882 20.3682 22.0914 -1.32962e-05 22.0914C-20.2357 22.0914 -45.0732 28.3281 -41.8836 12.9784C-44.6787 11.8212 -48.2008 8.95144 -46.5316 4.29175C-45.7036 1.98006 -43.8185 0.567089 -42.3936 0.566997C-41.0392 0.56691 -42.9934 -2.2 -40.2188 -3.81491C-39.0195 -4.51291 -37.7273 -4.43211 -36.6068 -4.12355C-28.0141 -23.7311 -20.4124 -40 0 -40Z"></path>
  <path fill="#A19AB3" transform="matrix(1.70226 0.0261988 -0.0277736 1.60574 469.018 283.869)" d="M-11.3238 -80.2543C25.8014 -80.2543 54.9476 -94.6926 58.9092 -40.8672C62.8708 12.9582 37.0524 74.7499 0.0572919 75.3534C-14.1177 75.5847 -17.7665 75.6442 -48.2096 76.1409C-78.6526 76.6376 -84.25 60.12 -84.25 0C-86.6442 -86.62 -88.6279 -78.3873 -11.3238 -80.2543Z"></path>
  <clipPath id="cl_39">
    <path d="M451.971 154.705C515.167 155.677 565.182 133.257 570.431 219.79C575.68 306.323 530.014 404.868 467.022 404.868C442.887 404.868 436.674 404.868 384.838 404.868C333.002 404.868 323.933 378.198 325.603 281.661C323.933 142.51 320.328 155.677 451.971 154.705Z"></path>
  </clipPath>
  <g clip-path="url(#cl_39)">
    <path fill="#A9A3BC" transform="matrix(1.70248 0 0 1.70248 504.132 266.919)" d="M-0.158638 -48.2656C25.513 -48.2656 46.324 -26.6563 46.324 4.76837e-07C46.324 26.6563 25.513 48.2656 -0.158638 48.2656C-25.8303 48.2656 -46.6413 26.6563 -46.6413 4.76837e-07C-46.6413 -26.6563 -25.8303 -48.2656 -0.158638 -48.2656Z"></path>
  </g>
  <path fill="none" stroke="#818181" stroke-width="2" stroke-linejoin="round" transform="matrix(3.67759 -0.721864 0.653943 3.33157 428.051 64.1411)" d="M-4.34758 -5.25471C-4.34758 -11.5047 3.66088 -11.5047 3.66088 -5.25472C3.66088 0.995283 3.66088 12.5 3.66088 12.5L-4.57314 12.5C-4.57314 12.5 -4.34758 0.995284 -4.34758 -5.25471Z"></path>
  <path fill="none" stroke="#818181" stroke-width="2" stroke-linejoin="round" transform="matrix(3.33157 -0.653943 0.653943 3.33157 395.697 69.2607)" d="M-5.1645 -6.50116C-5.16451 -12.7512 6 -12.7512 6 -6.50116C6 -0.251162 6 12.5 6 12.5L-6 12.5C-6 12.5 -5.1645 -0.251163 -5.1645 -6.50116Z"></path>
  <path fill="#9D95B1" transform="matrix(3.67759 -0.721864 0.653943 3.33157 428.051 64.1411)" d="M-4.34758 -5.25471C-4.34758 -11.5047 3.66088 -11.5047 3.66088 -5.25472C3.66088 0.995283 3.66088 12.5 3.66088 12.5L-4.57314 12.5C-4.57314 12.5 -4.34758 0.995284 -4.34758 -5.25471Z"></path>
  <path fill="none" stroke="#8A8A8A" stroke-width="0.5" stroke-linecap="round" stroke-linejoin="round" transform="matrix(3.67759 -0.721864 0.653943 3.33157 423.518 45.6676)" d="M4.54547e-06 1.51652L3.83069e-06 10.5382"></path>
  <path fill="#A19AB3" transform="matrix(3.33157 -0.653943 0.653943 3.33157 395.697 69.2607)" d="M-5.1645 -6.50117C-5.16451 -12.7512 6 -12.7512 6 -6.50117C6 -0.251166 6 12.5 6 12.5L-6 12.5C-6 12.5 -5.1645 -0.251167 -5.1645 -6.50117Z"></path>
  <path fill="none" stroke="#8A8A8A" stroke-width="0.5" stroke-linecap="round" stroke-linejoin="round" transform="matrix(3.33157 -0.653943 0.653943 3.33157 395.9 50.3267)" d="M1.85391e-08 3.8412e-06L3.83324e-06 10.5382"></path>
  <path fill="#A19AB3" transform="matrix(1.44842 0 0 1.31786 421.62 138.15)" d="M0 -40C20.9426 -40 35.0096 -26.8589 47.8597 -2.20018C49.1253 -3.81499 50.3123 -3.57653 51.1974 -3.11682C52.0824 -2.65711 52.5509 -1.60562 52.2206 -0.665342C53.8523 0.0631991 55.2854 1.47333 55.8775 2.67698C56.9197 4.79566 57.6743 10.5072 53.7931 11.8212C58.5977 31.9882 20.3682 22.0914 -1.32962e-05 22.0914C-20.2357 22.0914 -45.0732 28.3281 -41.8836 12.9784C-44.6787 11.8212 -48.2008 8.95144 -46.5316 4.29175C-45.7036 1.98006 -43.8185 0.567089 -42.3936 0.566997C-41.0392 0.56691 -42.9934 -2.2 -40.2188 -3.81491C-39.0195 -4.51291 -37.7273 -4.43211 -36.6068 -4.12355C-28.0141 -23.7311 -20.4124 -40 0 -40Z"></path>
  <clipPath id="cl_3a">
    <path d="M421.62 85.4358C451.954 85.4358 472.329 102.754 490.941 135.251C492.774 133.122 494.494 133.437 495.776 134.043C497.057 134.648 497.736 136.034 497.258 137.273C499.621 138.233 501.697 140.092 502.554 141.678C504.064 144.47 505.157 151.997 499.535 153.729C506.494 180.306 451.122 167.263 421.62 167.263C392.311 167.263 356.335 175.482 360.955 155.254C356.907 153.729 351.805 149.947 354.223 143.806C355.422 140.76 358.153 138.897 360.217 138.897C362.178 138.897 359.348 135.251 363.367 133.123C365.104 132.203 366.975 132.309 368.598 132.716C381.044 106.876 392.055 85.4358 421.62 85.4358Z"></path>
  </clipPath>
  <g clip-path="url(#cl_3a)">
    <path fill="#AFA9C3" transform="matrix(1.70248 0 0.00718207 1.70248 418.531 123.828)" d="M3.81202e-06 -5.5C3.866 -5.5 7 -2.92564 7 0.25C7 3.42564 3.866 6 3.81737e-06 6C-3.86599 6 -7 3.42564 -7 0.25C-7 -2.92564 -3.86599 -5.5 3.81202e-06 -5.5Z"></path>
    <path fill="#AFA9C3" transform="matrix(1.7367 0 0.00718207 1.70248 468.233 116.123)" d="M-7.62695e-06 -5C2.76142 -5 4.99999 -2.6495 4.99999 0.25C4.99999 3.1495 2.76142 5.5 -7.63184e-06 5.5C-2.76143 5.5 -5.00001 3.1495 -5.00001 0.25C-5.00001 -2.6495 -2.76143 -5 -7.62695e-06 -5Z"></path>
    <path fill="none" stroke="#898888" stroke-width="1" stroke-linecap="round" stroke-linejoin="round" transform="matrix(2.182 -0.353477 0.259285 1.60056 447.644 109.79)" d="M4.30294e-06 -4.14104e-07L2.92892 -0.714567"></path>
    <path fill="none" stroke="#898888" stroke-width="1" stroke-linecap="round" stroke-linejoin="round" transform="matrix(2.182 -0.353477 0.259285 1.60056 427.071 109.005)" d="M0 -1.48459e-07L4.25731 1.79213"></path>
    <path fill="#898888" transform="matrix(2.33716 -0.378612 0.383771 2.36901 440.109 111.947)" d="M-4.99596e-07 -4.03018e-06L1.9614 0.352734L0.915089 1.42246L-4.99596e-07 -4.03018e-06Z"></path>
    <path fill="none" stroke="#898888" stroke-width="0.5" stroke-linecap="round" stroke-linejoin="round" transform="matrix(1.83262 -0.296878 0.300923 1.85759 443.003 115.291)" d="M-7.52156e-06 -0.711224L-1.13363e-05 1.1102"></path>
    <path fill="#958FA7" transform="matrix(1.64843 0.417573 -0.40107 1.65095 437.128 104.507)" d="M3.87213e-06 -1.92716C1.62851 -1.92716 2.94867 -1.06434 2.94867 4.39386e-08C2.94867 1.06434 1.62851 1.92716 3.75726e-06 1.92716C-1.6285 1.92716 -2.94867 1.06434 -2.94867 -4.39386e-08C-2.94867 -1.06434 -1.6285 -1.92716 3.87213e-06 -1.92716Z"></path>
    <path fill="#958FA7" transform="matrix(1.61937 0.410211 -0.390122 1.60588 447.714 103.68)" d="M-7.65769e-06 -1.89918C0.889981 -1.89918 1.61146 -1.04889 1.61146 7.60538e-06C1.61146 1.0489 0.889981 1.8992 -7.60109e-06 1.8992C-0.889997 1.8992 -1.61148 1.0489 -1.61148 7.65341e-06C-1.61148 -1.04889 -0.889997 -1.89918 -7.65769e-06 -1.89918Z"></path>
  </g>
  <path fill="none" stroke="#818181" stroke-width="4" stroke-linejoin="round" transform="matrix(1.70248 0 0 1.70248 542.297 174.984)" d="M-11.7479 -12.9046C-11.318 -13.5165 -10.7601 -14.1187 -10.0572 -14.7065C-5.47351 -18.5399 3.93804 -16.1165 4.43081 -14.7065C7.46664 -16.1165 10.8961 -16.6614 15.0174 -13.9738C19.1387 -11.2862 16.2386 -4.86794 16.6118 -4.55445C16.985 -4.24095 25.2116 0.494539 17.5976 8.33765C16.6439 8.92035 15.7365 9.39702 14.8735 9.77867"></path>
  <path fill="#AFA9C3" transform="matrix(1.70248 0 0 1.70248 542.297 174.984)" d="M-0.116455 -3.8147e-06C-2.60165 -0.663944 -7.05858 1.11792 -10.0572 -2.65577C-13.0559 -6.42945 -14.641 -10.8732 -10.0572 -14.7065C-5.47351 -18.5399 3.93804 -16.1165 4.43081 -14.7065C7.46664 -16.1165 10.8961 -16.6614 15.0174 -13.9738C19.1387 -11.2862 16.2386 -4.86794 16.6118 -4.55445C16.985 -4.24095 25.2116 0.494539 17.5976 8.33765C2.9012 17.3171 -0.809986 1.11792 -0.116455 -3.8147e-06Z"></path>
  <path fill="none" stroke="#818181" stroke-width="6" stroke-linejoin="round" transform="matrix(1.70248 0 0 1.70248 370.247 267.34)" d="M-29.757 0.873661C-30.817 -38.8377 32.6604 -40.5321 33.7204 -0.820734C34.1719 16.0929 34.925 44.3081 35.3929 61.8365C35.5573 67.9952 27.3524 79.5338 4.12777 80.4243C-19.0968 81.3148 -27.8951 70.6247 -28.0233 65.8244C-28.4939 48.1932 -29.4238 13.3556 -29.757 0.873661Z"></path>
  <path fill="none" stroke="#818181" stroke-width="6" stroke-linecap="round" stroke-linejoin="bevel" transform="matrix(1.70248 0 0 1.58041 370.247 181.982)" d="M33.2103 37.152C33.4632 45.0352 33.6809 51.8196 33.7934 55.3268C35.1706 98.2577 -28.2929 100.578 -29.6701 57.6471C-30.0158 46.8702 -30.6513 27.0598 -31.0516 14.5816C-31.4519 2.10333 -25.7661 -15.9544 -9.69587 -16.5527C-7.94714 -16.6178 -6.34385 -16.6774 -4.86596 -16.7325"></path>
  <path fill="#A19AB3" transform="matrix(1.70248 0 0 1.70248 370.247 267.34)" d="M-29.757 0.87366C-30.861 -40.487 32.6164 -42.1814 33.7204 -0.820735C34.1719 16.0929 34.925 44.3081 35.3929 61.8365C35.5573 67.9952 27.3524 79.5338 4.12777 80.4243C-19.0968 81.3148 -27.8951 70.6247 -28.0233 65.8244C-28.4939 48.1932 -29.4238 13.3556 -29.757 0.87366Z"></path>
  <path fill="#A19AB3" transform="matrix(1.70248 0 0 1.58041 370.247 181.982)" d="M-31.0516 14.5816C-31.4519 2.10333 -25.7661 -15.9544 -9.69587 -16.5527C6.37435 -17.1509 10.162 -17.2919 17.222 -17.5547C24.282 -17.8176 31.5667 -14.0833 32.0701 1.60938C32.5736 17.3021 33.5121 46.5579 33.7934 55.3268C35.0048 93.0893 -28.4587 95.4096 -29.6701 57.6471C-30.0158 46.8702 -30.6513 27.0598 -31.0516 14.5816Z"></path>
</svg>