<?xml version="1.0" encoding="utf-8"?>
<svg xmlns="http://www.w3.org/2000/svg" xmlns:xlink="http://www.w3.org/1999/xlink" width="512" height="512">
  <path fill="none" stroke="black" stroke-width="6" stroke-linejoin="round" transform="matrix(1.8 0 0 1.52279 359.051 176.837)" d="M-13.445 -17.216C-9.73669 -17.3358 -7.06581 -17.4221 -3.61191 -17.5336C3.44969 -17.7617 10.7001 -13.9914 11.063 1.70478C11.4259 17.401 12.1024 46.6634 12.3052 55.4342C13.2979 98.3748 -50.1794 100.383 -51.1721 57.4425C-51.4213 46.6631 -51.8794 26.8482 -52.1679 14.3672C-52.4565 1.88622 -46.6096 -16.1447 -30.5358 -16.664C-29.375 -16.7015 -28.2782 -16.7369 -27.2397 -16.7704"></path>
  <path fill="none" stroke="black" stroke-width="6" stroke-linejoin="round" transform="matrix(1.8 0 0 1.64041 359.051 259.083)" d="M-51.0447 -3.58583C-46.0356 -45.9411 17.0203 -38.7978 12.0113 3.55748C10.0228 20.3711 6.70578 48.4193 4.64508 65.844C3.92106 71.9662 -5.85916 82.2535 -28.9685 79.908C-52.0778 77.5624 -59.2448 65.7525 -58.6805 60.9806C-56.6077 43.4538 -52.5121 8.82223 -51.0447 -3.58583Z"></path>
  <path fill="#503F7E" transform="matrix(1.8 0 0 1.52279 359.051 176.837)" d="M-52.1679 14.3672C-52.4565 1.88622 -46.6096 -16.1448 -30.5358 -16.664C-14.462 -17.1832 -10.6735 -17.3055 -3.61191 -17.5336C3.44969 -17.7617 10.7001 -13.9914 11.063 1.70478C11.4259 17.401 12.1024 46.6634 12.3052 55.4342C13.2979 98.3747 -50.1794 100.383 -51.1721 57.4424C-51.4213 46.6631 -51.8794 26.8482 -52.1679 14.3672Z"></path>
  <path fill="#503F7E" transform="matrix(1.8 0 0 1.64041 359.051 259.083)" d="M-51.0447 -3.58583C-46.0356 -45.9411 17.0203 -38.7978 12.0113 3.55748C10.0228 20.3711 6.70578 48.4193 4.64508 65.844C3.92106 71.9662 -5.85916 82.2535 -28.9685 79.908C-52.0778 77.5624 -59.2448 65.7525 -58.6805 60.9806C-56.6077 43.4538 -52.5121 8.82223 -51.0447 -3.58583Z"></path>
  <path fill="none" stroke="black" stroke-width="5" stroke-linejoin="round" transform="matrix(1.67985 0 0 1.8 269.501 356.202)" d="M-15.251 -15.6714C2.97267 -15.9055 15.9787 -11.9002 16.6777 35.4841C17.3251 49.5783 21.7919 64.7758 6.80845 74.0896C-4.76022 73.9974 -17.6836 74.8038 -34.1483 74.5393C-44.9925 65.6132 -45.7379 52.1987 -46.5397 35.3932C-47.8414 -11.0803 -33.4747 -15.4373 -15.251 -15.6714Z"></path>
  <path fill="#453279" transform="matrix(1.67985 0 0 1.8 269.501 356.202)" d="M-15.251 -15.6714C2.97267 -15.9055 15.9787 -11.9002 16.6777 35.4841C17.3251 49.5783 21.7919 64.7758 6.80845 74.0896C-4.76022 73.9974 -17.6836 74.8038 -34.1483 74.5393C-44.9925 65.6132 -45.7379 52.1987 -46.5397 35.3932C-47.8414 -11.0803 -33.4747 -15.4373 -15.251 -15.6714Z"></path>
  <path fill="none" stroke="black" stroke-width="5" stroke-linejoin="round" transform="matrix(1.67985 0 0 1.8 191.63 362.835)" d="M7.18972 -12.4222C23.2429 -20.4752 61.9323 -7.34334 60.442 33.6431C60.3806 49.9861 47.0007 73.7887 29.9612 72.5258C15.5716 67.203 5.65432 63.4806 -7.85004 57.7363C-17.193 45.1941 5.16749 45.3948 5.80021 31.1307C6.72933 -9.09161 -8.86351 -4.36924 7.18972 -12.4222Z"></path>
  <path fill="none" stroke="black" stroke-width="5" stroke-linejoin="round" transform="matrix(1.79976 0.0276995 -0.0293645 1.69771 274.681 286.895)" d="M-11.3238 -80.2543C25.8014 -80.2543 54.9476 -94.6926 58.9092 -40.8672C62.8708 12.9582 37.0524 74.7499 0.0572909 75.3534C-14.1177 75.5847 -17.7665 75.6442 -48.2096 76.1409C-78.6526 76.6376 -84.25 60.12 -84.25 1.90735e-06C-86.6294 -86.0849 -88.6034 -78.4854 -12.7475 -80.2208"></path>
  <path fill="#503F7E" transform="matrix(1.67985 0 0 1.8 191.63 362.835)" d="M7.18972 -12.4222C23.2429 -20.4752 61.9323 -7.34334 60.442 33.6431C60.3806 49.9861 47.0007 73.7887 29.9612 72.5258C15.5716 67.203 5.65432 63.4806 -7.85004 57.7363C-17.193 45.1941 5.16749 45.3948 5.80021 31.1307C6.72933 -9.09161 -8.86351 -4.36924 7.18972 -12.4222Z"></path>
  <path fill="none" stroke="black" stroke-width="5" stroke-linejoin="round" transform="matrix(1.53139 0 0 1.39334 226.982 137.693)" d="M0 -40C20.9426 -40 35.0096 -26.8589 47.8597 -2.20018C49.1253 -3.81499 50.3123 -3.57653 51.1974 -3.11682C52.0824 -2.65711 52.5509 -1.60562 52.2206 -0.665342C53.8523 0.0631991 55.2854 1.47333 55.8775 2.67698C56.9197 4.79566 57.6743 10.5072 53.7931 11.8212C58.5977 31.9882 20.3682 22.0914 -1.32962e-05 22.0914C-20.2357 22.0914 -45.0732 28.3281 -41.8836 12.9784C-44.6787 11.8212 -48.2008 8.95144 -46.5316 4.29175C-45.7036 1.98006 -43.8185 0.567089 -42.3936 0.566997C-41.0392 0.56691 -42.9934 -2.2 -40.2188 -3.81491C-39.0195 -4.51291 -37.7273 -4.43211 -36.6068 -4.12355C-28.0141 -23.7311 -20.4124 -40 0 -40Z"></path>
  <path fill="#503F7E" transform="matrix(1.79976 0.0276995 -0.0293645 1.69771 274.681 286.895)" d="M-11.3238 -80.2543C25.8014 -80.2543 54.9476 -94.6926 58.9092 -40.8672C62.8708 12.9582 37.0524 74.7499 0.0572909 75.3534C-14.1177 75.5847 -17.7665 75.6442 -48.2096 76.1409C-78.6526 76.6376 -84.25 60.12 -84.25 1.90735e-06C-86.6442 -86.62 -88.6279 -78.3873 -11.3238 -80.2543Z"></path>
  <clipPath id="cl_173">
    <path d="M256.658 150.333C323.474 151.361 376.354 127.656 381.904 219.146C387.453 310.636 339.172 414.825 272.572 414.825C247.053 414.825 240.485 414.825 185.68 414.825C130.875 414.825 121.286 386.628 123.052 284.561C121.286 137.439 117.474 151.361 256.658 150.333Z"></path>
  </clipPath>
  <g clip-path="url(#cl_173)">
    <path fill="#655494" transform="matrix(1.8 0 0 1.8 311.807 268.974)" d="M-0.158648 -48.2655C25.513 -48.2655 46.324 -26.6563 46.324 0C46.324 26.6563 25.513 48.2655 -0.158648 48.2655C-25.8303 48.2655 -46.6413 26.6563 -46.6413 0C-46.6413 -26.6563 -25.8303 -48.2655 -0.158648 -48.2655Z"></path>
  </g>
  <path fill="none" stroke="black" stroke-width="2" stroke-linejoin="round" transform="matrix(3.88825 -0.763212 0.691401 3.5224 233.781 59.4447)" d="M-4.34758 -5.25471C-4.34759 -11.5047 3.66088 -11.5047 3.66088 -5.25472C3.66088 0.995284 3.66088 12.5 3.66088 12.5L-4.57314 12.5C-4.57314 12.5 -4.34758 0.995284 -4.34758 -5.25471Z"></path>
  <path fill="none" stroke="black" stroke-width="2" stroke-linejoin="round" transform="matrix(3.5224 -0.691401 0.691401 3.5224 199.573 64.8576)" d="M-5.1645 -6.50116C-5.1645 -12.7512 6 -12.7512 6 -6.50116C6 -0.251162 6 12.5 6 12.5L-6 12.5C-6 12.5 -5.1645 -0.251163 -5.1645 -6.50116Z"></path>
  <path fill="#453279" transform="matrix(3.88825 -0.763212 0.691401 3.5224 233.781 59.4447)" d="M-4.34758 -5.25471C-4.34759 -11.5047 3.66088 -11.5047 3.66088 -5.25472C3.66088 0.995284 3.66088 12.5 3.66088 12.5L-4.57314 12.5C-4.57314 12.5 -4.34758 0.995284 -4.34758 -5.25471Z"></path>
  <path fill="none" stroke="#161616" stroke-width="0.5" stroke-linecap="round" stroke-linejoin="round" transform="matrix(3.88825 -0.763212 0.691401 3.5224 228.988 39.9131)" d="M3.59179e-06 1.51652L2.87701e-06 10.5382"></path>
  <path fill="#503F7E" transform="matrix(3.5224 -0.691401 0.691401 3.5224 199.573 64.8576)" d="M-5.1645 -6.50116C-5.1645 -12.7512 6 -12.7512 6 -6.50116C6 -0.251162 6 12.5 6 12.5L-6 12.5C-6 12.5 -5.1645 -0.251163 -5.1645 -6.50116Z"></path>
  <path fill="none" stroke="#161616" stroke-width="0.5" stroke-linecap="round" stroke-linejoin="round" transform="matrix(3.5224 -0.691401 0.691401 3.5224 199.787 44.8391)" d="M-4.58298e-07 3.8412e-06L3.3564e-06 10.5382"></path>
  <path fill="#503F7E" transform="matrix(1.53139 0 0 1.39334 226.982 137.693)" d="M0 -40C20.9426 -40 35.0096 -26.8589 47.8597 -2.20018C49.1253 -3.81499 50.3123 -3.57653 51.1974 -3.11682C52.0824 -2.65711 52.5509 -1.60562 52.2206 -0.665342C53.8523 0.0631991 55.2854 1.47333 55.8775 2.67698C56.9197 4.79566 57.6743 10.5072 53.7931 11.8212C58.5977 31.9882 20.3682 22.0914 -1.32962e-05 22.0914C-20.2357 22.0914 -45.0732 28.3281 -41.8836 12.9784C-44.6787 11.8212 -48.2008 8.95144 -46.5316 4.29175C-45.7036 1.98006 -43.8185 0.567089 -42.3936 0.566997C-41.0392 0.56691 -42.9934 -2.2 -40.2188 -3.81491C-39.0195 -4.51291 -37.7273 -4.43211 -36.6068 -4.12355C-28.0141 -23.7311 -20.4124 -40 0 -40Z"></path>
  <clipPath id="cl_174">
    <path d="M226.982 81.9592C259.053 81.9592 280.595 100.269 300.273 134.627C302.211 132.377 304.029 132.71 305.384 133.35C306.74 133.991 307.457 135.456 306.951 136.766C309.45 137.781 311.645 139.746 312.552 141.423C314.148 144.375 315.303 152.333 309.359 154.164C316.717 182.264 258.173 168.474 226.981 168.474C195.993 168.474 157.957 177.164 162.842 155.776C158.561 154.164 153.168 150.165 155.724 143.673C156.992 140.452 159.879 138.483 162.061 138.483C164.135 138.483 161.142 134.628 165.391 132.377C167.228 131.405 169.206 131.517 170.922 131.947C184.081 104.627 195.722 81.9592 226.982 81.9592Z"></path>
  </clipPath>
  <g clip-path="url(#cl_174)">
    <path fill="#7463A5" transform="matrix(1.8 2.98023e-08 0.00759348 1.8 226.24 128.53)" d="M-1.90735e-06 -5.5C3.86599 -5.5 7 -2.92564 7 0.25C7 3.42564 3.86599 6 -1.90735e-06 6C-3.866 6 -7 3.42564 -7 0.25C-7 -2.92564 -3.866 -5.5 -1.90735e-06 -5.5Z"></path>
    <path fill="#7463A5" transform="matrix(1.83618 3.04014e-08 0.00759348 1.8 278.789 120.383)" d="M9.53674e-07 -5.00001C2.76142 -5.00001 5 -2.6495 5 0.249992C5 3.14949 2.76142 5.49999 9.53674e-07 5.49999C-2.76142 5.49999 -5 3.14949 -5 0.249992C-5 -2.6495 -2.76142 -5.00001 9.53674e-07 -5.00001Z"></path>
    <path fill="none" stroke="#131212" stroke-width="1" stroke-linecap="round" stroke-linejoin="round" transform="matrix(2.30699 -0.373724 0.274137 1.69224 257.02 113.688)" d="M1.44192e-06 -4.14104e-07L2.92891 -0.714567"></path>
    <path fill="none" stroke="#131212" stroke-width="1" stroke-linecap="round" stroke-linejoin="round" transform="matrix(2.30699 -0.373724 0.274137 1.69224 235.27 112.858)" d="M0 7.48094e-06L4.25731 1.79213"></path>
    <path fill="#131212" transform="matrix(2.47104 -0.400299 0.405754 2.50471 249.054 115.968)" d="M-4.99596e-07 -4.03018e-06L1.9614 0.352734L0.915089 1.42246L-4.99596e-07 -4.03018e-06Z"></path>
    <path fill="none" stroke="#131212" stroke-width="0.5" stroke-linecap="round" stroke-linejoin="round" transform="matrix(1.93759 -0.313883 0.31816 1.96399 252.114 119.504)" d="M1.18428e-07 -0.711232L-3.72341e-06 1.11019"></path>
    <path fill="#32225E" transform="matrix(1.74285 0.441491 -0.424043 1.74552 245.902 108.102)" d="M-1.93607e-06 -1.92715C1.6285 -1.92715 2.94867 -1.06433 2.94867 7.58546e-06C2.94867 1.06435 1.6285 1.92716 -1.87863e-06 1.92716C-1.62851 1.92716 -2.94867 1.06435 -2.94867 7.67333e-06C-2.94867 -1.06433 -1.62851 -1.92715 -1.93607e-06 -1.92715Z"></path>
    <path fill="#32225E" transform="matrix(1.71213 0.433708 -0.412468 1.69787 257.095 107.228)" d="M-3.8147e-06 -1.89918C0.889985 -1.89918 1.61146 -1.04889 1.61146 7.60538e-06C1.61146 1.0489 0.889985 1.8992 -3.8147e-06 1.8992C-0.889993 1.8992 -1.61147 1.0489 -1.61147 7.65341e-06C-1.61147 -1.04889 -0.889993 -1.89918 -3.8147e-06 -1.89918Z"></path>
  </g>
  <path fill="none" stroke="black" stroke-width="6" stroke-linejoin="round" transform="matrix(1.8 0 0 1.8 164.311 269.42)" d="M-31.7961 -0.381955C-31.2483 -40.1037 32.2457 -39.228 31.6978 0.493736C31.4645 17.4118 31.0753 45.6344 30.8335 63.1674C30.7485 69.3276 22.0833 80.5247 -1.15826 80.4747C-24.3999 80.4247 -32.7584 69.3873 -32.6922 64.5857C-32.4489 46.95 -31.9683 12.1032 -31.7961 -0.381955Z"></path>
  <path fill="none" stroke="black" stroke-width="6" stroke-linecap="round" stroke-linejoin="bevel" transform="matrix(1.8 0 0 1.67094 164.311 179.173)" d="M31.7881 38.5774C31.7447 46.4572 31.7074 53.2377 31.6881 56.7442C31.4515 99.7 -32.0472 99.2519 -31.8106 56.2961C-31.7512 45.5129 -31.642 25.691 -31.5732 13.2056C-31.5045 0.720142 -25.145 -17.075 -9.06543 -16.9722C-7.2878 -16.9608 -5.66038 -16.9504 -4.16213 -16.9408"></path>
  <path fill="#503F7E" transform="matrix(1.8 0 0 1.8 164.311 269.42)" d="M-31.7961 -0.381956C-31.2256 -41.7534 32.2684 -40.8778 31.6978 0.493735C31.4645 17.4118 31.0753 45.6344 30.8335 63.1674C30.7485 69.3276 22.0833 80.5247 -1.15826 80.4747C-24.3999 80.4247 -32.7584 69.3873 -32.6922 64.5857C-32.4489 46.95 -31.9683 12.1032 -31.7961 -0.381956Z"></path>
  <path fill="#503F7E" transform="matrix(1.8 0 0 1.67094 164.311 179.173)" d="M-31.5732 13.2056C-31.5045 0.720142 -25.145 -17.075 -9.06543 -16.9722C7.0141 -16.8694 10.804 -16.8452 17.8681 -16.8C24.9322 -16.7549 32.0706 -12.7062 31.9841 2.99564C31.8976 18.6974 31.7364 47.9702 31.6881 56.7442C31.4799 94.5286 -32.0187 94.0805 -31.8106 56.2961C-31.7512 45.5129 -31.642 25.691 -31.5732 13.2056Z"></path>
  <path fill="none" stroke="black" stroke-width="7" stroke-linecap="round" stroke-miterlimit="4" transform="translate(256 256)" d="M-6.14386 -110.203C52.2601 -110.203 99.6059 -110.128 99.6059 -110.036C99.6059 -109.944 52.2601 -109.869 -6.14386 -109.869C-64.5478 -109.869 -111.894 -109.944 -111.894 -110.036C-111.894 -110.128 -64.5478 -110.203 -6.14386 -110.203Z"></path>
  <path fill="#8D5A3E" transform="matrix(1.27409 9.56891e-23 -1.50956e-25 0.00200997 249.856 145.964)" d="M-1.02305e-30 -83.0039C45.8396 -83.0039 83 -45.8435 83 -0.00390625C83 45.8357 45.8396 82.9961 1.02305e-30 82.9961C-45.8396 82.9961 -83 45.8357 -83 -0.00390625C-83 -45.8435 -45.8396 -83.0039 -1.02305e-30 -83.0039Z"></path>
  <path fill="#65524C" transform="matrix(0.732603 5.50213e-23 -1.39281e-25 0.00185451 249.856 145.991)" d="M0 -97.4961C45.8396 -97.4961 83 -53.8439 83 0.00390625C83 53.8517 45.8396 97.5039 0 97.5039C-45.8396 97.5039 -83 53.8517 -83 0.00390625C-83 -53.8439 -45.8396 -97.4961 0 -97.4961Z"></path>
  <clipPath id="cl_17c">
    <path d="M249.856 145.811C283.438 145.811 310.662 145.891 310.662 145.991C310.662 146.091 283.438 146.172 249.856 146.172C216.274 146.172 189.05 146.091 189.05 145.991C189.05 145.891 216.274 145.811 249.856 145.811Z"></path>
  </clipPath>
  <g clip-path="url(#cl_17c)">
    <path fill="#281C18" transform="matrix(0.732603 5.50213e-23 -1.39281e-25 0.00185451 230.745 145.991)" d="M3.8147e-06 -97.5039C45.8396 -97.5039 83 -53.8517 83 -0.00390625C83 53.8439 45.8396 97.4961 3.8147e-06 97.4961C-45.8396 97.4961 -83 53.8439 -83 -0.00390625C-83 -53.8517 -45.8396 -97.5039 3.8147e-06 -97.5039Z"></path>
  </g>
  <path fill="none" stroke="black" stroke-width="7" stroke-linejoin="round" transform="translate(256 256)" d="M-114.236 -108.71C-124.942 -104.187 -156.349 -87.6127 -156.534 -48.7812C-156.534 -48.7812 -139.16 -44.2289 -93.3282 -30.6187C-57.5869 -20.005 -62.6492 -27.0419 -7.0665 -24.1063C16.793 -21.4978 62.959 -30.7697 62.959 -30.7697C62.959 -30.7697 62.6623 -39.8147 67.9277 -39.8147C73.1931 -39.8147 76.2347 -30.7697 76.2347 -30.7697C88.9785 -30.7697 100.393 -37.2197 109.976 -38.6146C140.175 -43.0102 143.8 -48.7812 143.8 -48.7812C143.8 -95.5957 98.027 -110.061 98.027 -110.061C83.8013 -109.949 46.701 -109.869 -6.14386 -109.869C-58.9887 -109.868 -108.364 -109.949 -110.709 -110.061C-110.709 -110.061 -112.035 -109.64 -114.236 -108.71"></path>
  <path fill="none" stroke="black" stroke-width="21" stroke-linecap="round" stroke-linejoin="round" transform="matrix(0.972 7.30008e-23 -7.30008e-23 0.972 91.4201 201.368)" d="M8.27734 6.0191C8.27734 6.0191 26.1524 10.7026 73.3042 24.7048C110.075 35.6243 104.867 28.3847 162.051 31.4048C186.598 34.0884 234.093 24.5494 234.093 24.5494C234.093 24.5494 233.788 15.2439 239.205 15.2439C244.622 15.2439 247.752 24.5494 247.752 24.5494C260.863 24.5494 272.606 17.9137 282.465 16.4786C313.534 11.9563 317.263 6.0191 317.263 6.0191C317.263 3.07172 317.087 0.248969 316.755 -2.45336"></path>
  <path fill="none" stroke="white" stroke-width="14" stroke-linecap="round" stroke-linejoin="round" transform="matrix(0.972 7.30008e-23 -7.30008e-23 0.972 91.4201 201.368)" d="M8.27734 6.0191C8.27734 6.0191 26.1524 10.7026 73.3042 24.7048C110.075 35.6243 104.867 28.3847 162.051 31.4048C186.598 34.0884 234.093 24.5494 234.093 24.5494C234.093 24.5494 233.788 15.2439 239.205 15.2439C244.622 15.2439 247.752 24.5494 247.752 24.5494C260.863 24.5494 272.606 17.9137 282.465 16.4786C313.534 11.9563 317.263 6.0191 317.263 6.0191C317.263 3.70323 317.154 1.46431 316.947 -0.699714"></path>
  <path fill="#8D5A3E" transform="matrix(0.972 7.30008e-23 -7.30008e-23 0.972 91.4201 201.368)" d="M8.27734 6.0191C8.27734 6.0191 28.6505 9.93999 72.0222 23.0509C95.5232 30.155 124.361 29.4142 162.051 31.4048C186.598 34.0884 234.093 24.5494 234.093 24.5494C234.093 24.5494 234.776 16.5539 238.41 16.5539C242.043 16.5539 247.752 24.5494 247.752 24.5494C260.529 24.5494 277.837 16.8394 286.934 15.7616C317.391 12.1532 317.263 6.0191 317.263 6.0191C317.263 -42.1439 270.172 -57.0257 270.172 -57.0257C255.536 -56.9111 217.367 -56.8284 163 -56.8281C108.633 -56.8279 57.8352 -56.9111 55.4223 -57.0258C55.4223 -57.0258 8.50731 -42.1439 8.27734 6.0191Z"></path>
  <clipPath id="cl_17d">
    <path d="M99.4657 207.219C99.4657 207.219 119.268 211.03 161.426 223.774C184.269 230.679 212.299 229.959 248.934 231.894C272.793 234.502 318.959 225.23 318.959 225.23C318.959 225.23 319.623 217.459 323.154 217.459C326.686 217.459 332.235 225.23 332.235 225.23C344.655 225.23 361.478 217.736 370.32 216.688C399.924 213.181 399.8 207.219 399.8 207.219C399.8 160.404 354.027 145.939 354.027 145.939C339.801 146.051 302.701 146.131 249.856 146.131C197.011 146.132 147.636 146.051 145.291 145.939C145.291 145.939 99.6892 160.404 99.4657 207.219Z"></path>
  </clipPath>
  <g clip-path="url(#cl_17d)">
    <path fill="#7F4728" transform="matrix(2.61439 -0.086419 0.123843 3.74656 194.452 200.882)" d="M-14.8742 -9.69253L16.7537 -6.3603L15.092 9.39556L-21.0084 4.35254L-14.8742 -9.69253Z"></path>
  </g>
  <path fill="none" stroke="#612F13" stroke-width="1" stroke-linecap="round" stroke-linejoin="round" transform="matrix(0.0654088 -1.56104 1.56104 0.0654088 205.396 175.238)" d="M1.02356 0.373772L4.21643 0.641895"></path>
  <path fill="none" stroke="#612F13" stroke-width="1" stroke-linecap="round" stroke-linejoin="round" transform="matrix(0.0654088 -1.56104 1.56104 0.0654088 193.246 174.752)" d="M1.02357 0.373772L4.21644 0.641895"></path>
  <clipPath id="cl_17e">
    <path d="M99.4657 207.219C99.4657 207.219 119.268 211.03 161.426 223.774C184.269 230.679 212.299 229.959 248.934 231.894C272.793 234.502 318.959 225.23 318.959 225.23C318.959 225.23 319.623 217.459 323.154 217.459C326.686 217.459 332.235 225.23 332.235 225.23C344.655 225.23 361.478 217.736 370.32 216.688C399.924 213.181 399.8 207.219 399.8 207.219C399.8 160.404 354.027 145.939 354.027 145.939C339.801 146.051 302.701 146.131 249.856 146.131C197.011 146.132 147.636 146.051 145.291 145.939C145.291 145.939 99.6892 160.404 99.4657 207.219Z"></path>
  </clipPath>
  <g clip-path="url(#cl_17e)">
    <clipPath id="cl_17f">
      <path d="M99.4657 207.219C99.4657 207.219 119.268 211.03 161.426 223.774C184.269 230.679 212.299 229.959 248.934 231.894C272.793 234.502 318.959 225.23 318.959 225.23C318.959 225.23 319.623 217.459 323.154 217.459C326.686 217.459 332.235 225.23 332.235 225.23C344.655 225.23 361.478 217.736 370.32 216.688C399.924 213.181 399.8 207.219 399.8 207.219C399.8 160.404 354.027 145.939 354.027 145.939C339.801 146.051 302.701 146.131 249.856 146.131C197.011 146.132 147.636 146.051 145.291 145.939C145.291 145.939 99.6892 160.404 99.4657 207.219Z"></path>
    </clipPath>
    <g clip-path="url(#cl_17f)">
      <path fill="#7F4728" transform="matrix(0.972 7.30008e-23 -7.30008e-23 0.972 379.618 177.311)" d="M7.62939e-06 -32.5C25.6812 -32.5 46.5 -17.8373 46.5 0.25C46.5 18.3373 25.6812 33 7.62939e-06 33C-25.6812 33 -46.5 18.3373 -46.5 0.25C-46.5 -17.8373 -25.6812 -32.5 7.62939e-06 -32.5Z"></path>
    </g>
    <path fill="none" stroke="#612F13" stroke-width="1" stroke-linecap="round" stroke-linejoin="round" transform="matrix(-1.42852 0.632822 -0.632822 -1.42852 338.794 181.928)" d="M1.02357 0.37377L4.21644 0.641894"></path>
    <path fill="none" stroke="#612F13" stroke-width="1" stroke-linecap="round" stroke-linejoin="round" transform="matrix(-0.810895 1.33551 -1.33551 -0.810895 353.86 198.452)" d="M1.02357 0.373768L4.21644 0.641892"></path>
    <path fill="none" stroke="#612F13" stroke-width="1" stroke-linecap="round" stroke-linejoin="round" transform="matrix(-1.5617 -0.0472275 0.0472275 -1.5617 339.28 172.208)" d="M1.02357 0.373775L4.21644 0.641899"></path>
  </g>
</svg>