<?xml version="1.0" encoding="utf-8"?>
<svg xmlns="http://www.w3.org/2000/svg" xmlns:xlink="http://www.w3.org/1999/xlink" width="512" height="512">
  <path fill="none" stroke="black" stroke-width="6" stroke-linejoin="round" transform="matrix(1.8 0 0 1.52279 359.051 169.897)" d="M-11.1635 -15.887C-7.7029 -15.4618 -5.12357 -15.1448 -1.82764 -14.7398C5.19873 -13.8765 11.9708 -9.01974 10.5973 6.59818C9.22381 22.2161 6.66319 51.3325 5.89569 60.0596C2.13816 102.786 -61.0178 94.9831 -57.2603 52.2568C-56.317 41.5312 -54.5831 21.8152 -53.491 9.39645C-52.3988 -3.0223 -44.6109 -19.9969 -28.6172 -18.0317C-27.267 -17.8657 -26.0038 -17.7105 -24.8185 -17.5649"></path>
  <path fill="none" stroke="black" stroke-width="6" stroke-linejoin="round" transform="matrix(1.8 0 0 1.64041 359.051 252.143)" d="M-56.3263 -8.3323C-46.3098 -49.6046 15.3527 -33.4735 5.33618 7.79887C1.35998 24.1826 -5.27307 51.5137 -9.3938 68.4929C-10.8416 74.4586 -21.7645 83.2539 -44.3956 77.612C-67.0267 71.9702 -72.7239 59.2333 -71.5954 54.5833C-67.4505 37.5046 -59.2606 3.75852 -56.3263 -8.3323Z"></path>
  <path fill="#503F7E" transform="matrix(1.8 0 0 1.52279 359.051 169.897)" d="M-53.491 9.39646C-52.3988 -3.0223 -44.6109 -19.9969 -28.6172 -18.0316C-12.6236 -16.0664 -8.85402 -15.6032 -1.82764 -14.7398C5.19873 -13.8764 11.9708 -9.01974 10.5973 6.59818C9.22381 22.2161 6.66319 51.3325 5.89569 60.0596C2.13816 102.786 -61.0178 94.9831 -57.2603 52.2568C-56.317 41.5312 -54.5831 21.8152 -53.491 9.39646Z"></path>
  <path fill="#503F7E" transform="matrix(1.8 0 0 1.64041 359.051 252.143)" d="M-56.3263 -8.3323C-46.3098 -49.6046 15.3527 -33.4735 5.33618 7.79887C1.35998 24.1826 -5.27307 51.5137 -9.3938 68.4929C-10.8416 74.4586 -21.7645 83.2539 -44.3956 77.612C-67.0267 71.9702 -72.7239 59.2333 -71.5954 54.5833C-67.4505 37.5046 -59.2606 3.75852 -56.3263 -8.3323Z"></path>
  <path fill="none" stroke="black" stroke-width="5" stroke-linejoin="round" transform="matrix(1.67985 0 0 1.8 269.501 356.202)" d="M-46.5419 -15.6717C-28.3181 -15.8965 -15.3145 -11.8844 -14.6436 35.5003C-14.0046 49.5947 -9.54957 64.7906 -24.5335 74.09C-36.1022 73.9979 -49.0256 74.8043 -65.4903 74.5398C-76.3343 65.6176 -77.0691 52.1826 -77.861 35.3767C-79.135 -11.0975 -64.7657 -15.447 -46.5419 -15.6717Z"></path>
  <path fill="#453279" transform="matrix(1.67985 0 0 1.8 269.501 356.202)" d="M-46.5419 -15.6717C-28.3181 -15.8965 -15.3145 -11.8844 -14.6436 35.5003C-14.0046 49.5947 -9.54957 64.7906 -24.5335 74.09C-36.1022 73.9979 -49.0256 74.8043 -65.4903 74.5398C-76.3343 65.6176 -77.0691 52.1826 -77.861 35.3767C-79.135 -11.0975 -64.7657 -15.447 -46.5419 -15.6717Z"></path>
  <path fill="none" stroke="black" stroke-width="5" stroke-linejoin="round" transform="matrix(1.67985 0 0 1.8 191.63 362.835)" d="M44.5113 -14.2239C62.6393 -15.9794 82.4441 -9.23246 81.1513 37.7498C81.2464 56.4789 79.8292 70.5212 63.587 75.4722C48.1082 75.4784 37.419 75.4326 22.5965 74.7423C8.77346 66.5374 17.9276 51.7045 18.5082 35.3526C19.1656 -10.749 26.3832 -12.4684 44.5113 -14.2239Z"></path>
  <path fill="none" stroke="black" stroke-width="5" stroke-linejoin="round" transform="matrix(1.79976 0.0276995 -0.0293645 1.69771 274.681 279.955)" d="M-11.3238 -80.2543C25.8014 -80.2543 54.9476 -94.6926 58.9092 -40.8672C62.8708 12.9582 37.0524 74.7499 0.05729 75.3534C-14.1177 75.5847 -17.7665 75.6442 -48.2096 76.1409C-78.6526 76.6376 -84.25 60.12 -84.25 9.53674e-07C-86.6294 -86.0849 -88.6034 -78.4854 -12.7475 -80.2208"></path>
  <path fill="#503F7E" transform="matrix(1.67985 0 0 1.8 191.63 362.835)" d="M44.5113 -14.2239C62.6393 -15.9794 82.4441 -9.23246 81.1513 37.7498C81.2464 56.4789 79.8292 70.5212 63.587 75.4722C48.1082 75.4784 37.419 75.4326 22.5965 74.7423C8.77346 66.5374 17.9276 51.7045 18.5082 35.3526C19.1656 -10.749 26.3832 -12.4684 44.5113 -14.2239Z"></path>
  <path fill="none" stroke="black" stroke-width="5" stroke-linejoin="round" transform="matrix(1.53139 0 0 1.39334 226.982 126.366)" d="M0 -40C20.9426 -40 35.0096 -26.8589 47.8597 -2.20018C49.1253 -3.81499 50.3123 -3.57653 51.1974 -3.11682C52.0824 -2.65711 52.5509 -1.60562 52.2206 -0.665342C53.8523 0.0631991 55.2854 1.47333 55.8775 2.67698C56.9197 4.79566 57.6743 10.5072 53.7931 11.8212C58.5977 31.9882 20.3682 22.0914 -1.32962e-05 22.0914C-20.2357 22.0914 -45.0732 28.3281 -41.8836 12.9784C-44.6787 11.8212 -48.2008 8.95144 -46.5316 4.29175C-45.7036 1.98006 -43.8185 0.567089 -42.3936 0.566997C-41.0392 0.56691 -42.9934 -2.2 -40.2188 -3.81491C-39.0195 -4.51291 -37.7273 -4.43211 -36.6068 -4.12355C-28.0141 -23.7311 -20.4124 -40 0 -40Z"></path>
  <path fill="#503F7E" transform="matrix(1.79976 0.0276995 -0.0293645 1.69771 274.681 279.955)" d="M-11.3238 -80.2543C25.8014 -80.2543 54.9476 -94.6926 58.9092 -40.8672C62.8708 12.9582 37.0524 74.7499 0.05729 75.3534C-14.1177 75.5847 -17.7665 75.6442 -48.2096 76.1409C-78.6526 76.6376 -84.25 60.12 -84.25 9.53674e-07C-86.6442 -86.62 -88.6279 -78.3873 -11.3238 -80.2543Z"></path>
  <clipPath id="cl_353">
    <path d="M256.658 143.393C323.474 144.421 376.354 120.717 381.904 212.206C387.453 303.696 339.172 407.885 272.572 407.885C247.053 407.885 240.485 407.885 185.68 407.885C130.875 407.885 121.286 379.688 123.052 277.622C121.286 130.5 117.474 144.421 256.658 143.393Z"></path>
  </clipPath>
  <g clip-path="url(#cl_353)">
    <path fill="#655494" transform="matrix(1.8 0 0 1.8 311.807 262.034)" d="M-0.158648 -48.2655C25.513 -48.2655 46.324 -26.6563 46.324 2.38419e-07C46.324 26.6563 25.513 48.2655 -0.158648 48.2655C-25.8303 48.2655 -46.6413 26.6563 -46.6413 2.38419e-07C-46.6413 -26.6563 -25.8303 -48.2655 -0.158648 -48.2655Z"></path>
  </g>
  <path fill="none" stroke="black" stroke-width="2" stroke-linejoin="round" transform="matrix(3.88825 -0.763212 0.691401 3.5224 233.781 48.1176)" d="M-4.34758 -5.25471C-4.34758 -11.5047 3.66088 -11.5047 3.66088 -5.25471C3.66088 0.995287 3.66088 12.5 3.66088 12.5L-4.57314 12.5C-4.57314 12.5 -4.34758 0.995288 -4.34758 -5.25471Z"></path>
  <path fill="none" stroke="black" stroke-width="2" stroke-linejoin="round" transform="matrix(3.5224 -0.691401 0.691401 3.5224 199.573 53.5305)" d="M-5.1645 -6.50116C-5.1645 -12.7512 6 -12.7512 6 -6.50116C6 -0.251162 6 12.5 6 12.5L-6 12.5C-6 12.5 -5.1645 -0.251163 -5.1645 -6.50116Z"></path>
  <path fill="#453279" transform="matrix(3.88825 -0.763212 0.691401 3.5224 233.781 48.1176)" d="M-4.34758 -5.25471C-4.34758 -11.5047 3.66088 -11.5047 3.66088 -5.25471C3.66088 0.995287 3.66088 12.5 3.66088 12.5L-4.57314 12.5C-4.57314 12.5 -4.34758 0.995288 -4.34758 -5.25471Z"></path>
  <path fill="none" stroke="#161616" stroke-width="0.5" stroke-linecap="round" stroke-linejoin="round" transform="matrix(3.88825 -0.763212 0.691401 3.5224 228.988 28.586)" d="M4.06863e-06 1.51652L3.35385e-06 10.5382"></path>
  <path fill="#503F7E" transform="matrix(3.5224 -0.691401 0.691401 3.5224 199.573 53.5305)" d="M-5.1645 -6.50116C-5.1645 -12.7512 6 -12.7512 6 -6.50116C6 -0.251162 6 12.5 6 12.5L-6 12.5C-6 12.5 -5.1645 -0.251163 -5.1645 -6.50116Z"></path>
  <path fill="none" stroke="#161616" stroke-width="0.5" stroke-linecap="round" stroke-linejoin="round" transform="matrix(3.5224 -0.691401 0.691401 3.5224 199.787 33.512)" d="M-2.19879e-07 7.65589e-06L3.59482e-06 10.5382"></path>
  <path fill="#503F7E" transform="matrix(1.53139 0 0 1.39334 226.982 126.366)" d="M0 -40C20.9426 -40 35.0096 -26.8589 47.8597 -2.20018C49.1253 -3.81499 50.3123 -3.57653 51.1974 -3.11682C52.0824 -2.65711 52.5509 -1.60562 52.2206 -0.665342C53.8523 0.0631991 55.2854 1.47333 55.8775 2.67698C56.9197 4.79566 57.6743 10.5072 53.7931 11.8212C58.5977 31.9882 20.3682 22.0914 -1.32962e-05 22.0914C-20.2357 22.0914 -45.0732 28.3281 -41.8836 12.9784C-44.6787 11.8212 -48.2008 8.95144 -46.5316 4.29175C-45.7036 1.98006 -43.8185 0.567089 -42.3936 0.566997C-41.0392 0.56691 -42.9934 -2.2 -40.2188 -3.81491C-39.0195 -4.51291 -37.7273 -4.43211 -36.6068 -4.12355C-28.0141 -23.7311 -20.4124 -40 0 -40Z"></path>
  <clipPath id="cl_354">
    <path d="M226.982 70.6321C259.053 70.6321 280.595 88.9422 300.273 123.3C302.211 121.05 304.029 121.383 305.384 122.023C306.74 122.664 307.457 124.129 306.951 125.439C309.45 126.454 311.645 128.419 312.552 130.096C314.148 133.048 315.303 141.006 309.359 142.837C316.717 170.936 258.173 157.147 226.981 157.147C195.993 157.147 157.957 165.837 162.842 144.449C158.561 142.837 153.168 138.838 155.724 132.346C156.992 129.125 159.879 127.156 162.061 127.156C164.135 127.156 161.142 123.3 165.391 121.05C167.228 120.078 169.206 120.19 170.922 120.62C184.081 93.3003 195.722 70.6321 226.982 70.6321Z"></path>
  </clipPath>
  <g clip-path="url(#cl_354)">
    <path fill="#7463A5" transform="matrix(1.8 2.98023e-08 0.00759348 1.8 223.959 111.799)" d="M1.90735e-06 -5.5C3.866 -5.5 7 -2.92564 7 0.25C7 3.42564 3.866 6 1.90735e-06 6C-3.86599 6 -7 3.42564 -7 0.25C-7 -2.92564 -3.86599 -5.5 1.90735e-06 -5.5Z"></path>
    <path fill="#7463A5" transform="matrix(1.83618 3.04014e-08 0.00759348 1.8 276.507 103.653)" d="M-9.53674e-07 -5C2.76142 -5 5 -2.6495 5 0.25C5 3.1495 2.76142 5.5 -9.53674e-07 5.5C-2.76142 5.5 -5 3.1495 -5 0.25C-5 -2.6495 -2.76142 -5 -9.53674e-07 -5Z"></path>
    <path fill="none" stroke="#131212" stroke-width="1" stroke-linecap="round" stroke-linejoin="round" transform="matrix(2.30699 -0.373724 0.274137 1.69224 254.739 96.9571)" d="M4.88246e-07 7.21529e-06L2.92891 -0.71456"></path>
    <path fill="none" stroke="#131212" stroke-width="1" stroke-linecap="round" stroke-linejoin="round" transform="matrix(2.30699 -0.373724 0.274137 1.69224 232.988 96.1274)" d="M0 -1.48459e-07L4.25731 1.79213"></path>
    <path fill="#131212" transform="matrix(2.47104 -0.400299 0.405754 2.50471 246.773 99.2376)" d="M-2.27592e-08 -2.15485e-07L1.9614 0.352738L0.91509 1.42246L-2.27592e-08 -2.15485e-07Z"></path>
    <path fill="none" stroke="#131212" stroke-width="0.5" stroke-linecap="round" stroke-linejoin="round" transform="matrix(1.93759 -0.313883 0.31816 1.96399 249.833 102.773)" d="M1.18428e-07 -0.711232L-3.72341e-06 1.11019"></path>
    <path fill="#32225E" transform="matrix(1.74285 0.441491 -0.424043 1.74552 243.62 91.372)" d="M-1.93607e-06 -1.92714C1.6285 -1.92714 2.94867 -1.06432 2.94867 1.52149e-05C2.94867 1.06435 1.6285 1.92717 -1.87863e-06 1.92717C-1.62851 1.92717 -2.94867 1.06435 -2.94867 1.53027e-05C-2.94867 -1.06432 -1.62851 -1.92714 -1.93607e-06 -1.92714Z"></path>
    <path fill="#32225E" transform="matrix(1.71213 0.433708 -0.412468 1.69787 254.813 90.4971)" d="M-5.72205e-06 -1.8992C0.889983 -1.8992 1.61146 -1.0489 1.61146 -7.65341e-06C1.61146 1.04889 0.889983 1.89918 -5.72205e-06 1.89918C-0.889995 1.89918 -1.61147 1.04889 -1.61147 -7.60538e-06C-1.61147 -1.0489 -0.889995 -1.8992 -5.72205e-06 -1.8992Z"></path>
  </g>
  <path fill="none" stroke="black" stroke-width="6" stroke-linejoin="round" transform="matrix(1.8 0 0 1.8 172.796 262.48)" d="M-22.5042 4.49529C-28.9826 -34.6984 33.6674 -45.0539 40.1458 -5.86023C42.905 10.833 47.5079 38.6803 50.3675 55.9803C51.3722 62.0586 44.8215 74.6105 21.9367 78.6673C-0.948181 82.7242 -11.1252 73.3371 -11.9083 68.5993C-14.7846 51.198 -20.4679 16.8145 -22.5042 4.49529Z"></path>
  <path fill="none" stroke="black" stroke-width="6" stroke-linecap="round" stroke-linejoin="bevel" transform="matrix(1.8 0 0 1.67094 172.796 172.233)" d="M37.5995 31.8616C38.8563 39.6705 39.9388 46.3961 40.4973 49.8667C47.3093 92.1918 -15.264 103.836 -22.076 61.5104C-23.786 50.8855 -26.9294 31.3546 -28.9093 19.0525C-30.8893 6.75035 -27.5482 -11.9752 -11.7048 -14.9342C-10.0772 -15.2381 -8.57751 -15.5182 -7.18893 -15.7776"></path>
  <path fill="#503F7E" transform="matrix(1.8 0 0 1.8 172.796 262.48)" d="M-22.5042 4.49528C-29.2516 -36.3263 33.3983 -46.6818 40.1458 -5.86023C42.905 10.833 47.5079 38.6803 50.3675 55.9803C51.3722 62.0586 44.8215 74.6105 21.9367 78.6673C-0.948181 82.7242 -11.1252 73.3371 -11.9083 68.5993C-14.7846 51.198 -20.4679 16.8145 -22.5042 4.49528Z"></path>
  <path fill="#503F7E" transform="matrix(1.8 0 0 1.67094 172.796 172.233)" d="M-28.9093 19.0525C-30.8893 6.75034 -27.5482 -11.9752 -11.7048 -14.9342C4.13869 -17.8932 7.8729 -18.5906 14.8333 -19.8906C21.7937 -21.1905 29.4839 -18.564 31.9739 -3.09277C34.4639 12.3785 39.106 41.2215 40.4973 49.8667C46.4892 87.0963 -16.0841 98.74 -22.076 61.5104C-23.786 50.8855 -26.9294 31.3546 -28.9093 19.0525Z"></path>
  <path fill="none" stroke="black" stroke-width="7" stroke-linecap="round" stroke-miterlimit="4" transform="translate(256 256)" d="M-6.14386 -117.142C52.2601 -117.142 99.6059 -117.067 99.6059 -116.975C99.6059 -116.883 52.2601 -116.808 -6.14386 -116.808C-64.5478 -116.808 -111.894 -116.883 -111.894 -116.975C-111.894 -117.067 -64.5478 -117.142 -6.14386 -117.142Z"></path>
  <path fill="#8D5A3E" transform="matrix(1.27409 9.56891e-23 -1.50956e-25 0.00200997 249.856 139.025)" d="M-1.02305e-30 -83C45.8396 -83 83 -45.8396 83 0C83 45.8396 45.8396 83 1.02305e-30 83C-45.8396 83 -83 45.8396 -83 0C-83 -45.8396 -45.8396 -83 -1.02305e-30 -83Z"></path>
  <path fill="#65524C" transform="matrix(0.732603 5.50213e-23 -1.39281e-25 0.00185451 249.856 139.052)" d="M0 -97.4961C45.8396 -97.4961 83 -53.8439 83 0.00390625C83 53.8517 45.8396 97.5039 0 97.5039C-45.8396 97.5039 -83 53.8517 -83 0.00390625C-83 -53.8439 -45.8396 -97.4961 0 -97.4961Z"></path>
  <clipPath id="cl_35c">
    <path d="M249.856 138.871C283.438 138.871 310.662 138.952 310.662 139.052C310.662 139.152 283.438 139.233 249.856 139.233C216.274 139.233 189.05 139.152 189.05 139.052C189.05 138.952 216.274 138.871 249.856 138.871Z"></path>
  </clipPath>
  <g clip-path="url(#cl_35c)">
    <path fill="#281C18" transform="matrix(0.732603 5.50213e-23 -1.39281e-25 0.00185451 230.745 139.052)" d="M3.8147e-06 -97.4961C45.8396 -97.4961 83 -53.8439 83 0.00390625C83 53.8517 45.8396 97.5039 3.8147e-06 97.5039C-45.8396 97.5039 -83 53.8517 -83 0.00390625C-83 -53.8439 -45.8396 -97.4961 3.8147e-06 -97.4961Z"></path>
  </g>
  <path fill="none" stroke="black" stroke-width="7" stroke-linejoin="round" transform="translate(256 256)" d="M-110.723 -116.996C-111.602 -116.713 -156.313 -102.129 -156.534 -61.2042C-156.534 -61.2042 -139.16 -53.8714 -93.3282 -40.2613C-57.5869 -29.6475 -62.6492 -36.6844 -7.0665 -33.7489C16.793 -31.1404 62.959 -40.4123 62.959 -40.4123C62.959 -40.4123 62.6623 -49.4572 67.9277 -49.4572C73.1931 -49.4572 76.2347 -40.4123 76.2347 -40.4123C88.9785 -40.4123 100.393 -46.8622 109.976 -48.2571C140.175 -52.6527 143.8 -61.2042 143.8 -61.2042C143.8 -102.535 98.027 -117 98.027 -117C83.8013 -116.889 46.701 -116.808 -6.14386 -116.808C-58.9887 -116.808 -108.364 -116.889 -110.709 -117C-110.709 -117 -110.714 -116.999 -110.723 -116.996"></path>
  <path fill="none" stroke="black" stroke-width="21" stroke-linecap="round" stroke-linejoin="round" transform="matrix(0.972 7.30008e-23 -7.30008e-23 0.972 91.4201 194.429)" d="M8.27734 0.37764C8.27734 0.37764 26.1524 7.92167 73.3042 21.9239C110.075 32.8434 104.867 25.6038 162.051 28.6239C186.598 31.3075 234.093 21.7685 234.093 21.7685C234.093 21.7685 233.788 12.463 239.205 12.463C244.622 12.463 247.752 21.7685 247.752 21.7685C260.863 21.7685 272.606 15.1328 282.465 13.6977C313.534 9.17545 317.263 0.37764 317.263 0.37764C317.263 -0.548173 317.241 -1.46088 317.197 -2.36062"></path>
  <path fill="none" stroke="white" stroke-width="14" stroke-linecap="round" stroke-linejoin="round" transform="matrix(0.972 7.30008e-23 -7.30008e-23 0.972 91.4201 194.429)" d="M8.27734 0.37764C8.27734 0.37764 26.1524 7.92167 73.3042 21.9239C110.075 32.8434 104.867 25.6038 162.051 28.6239C186.598 31.3075 234.093 21.7685 234.093 21.7685C234.093 21.7685 233.788 12.463 239.205 12.463C244.622 12.463 247.752 21.7685 247.752 21.7685C260.863 21.7685 272.606 15.1328 282.465 13.6977C313.534 9.17545 317.263 0.37764 317.263 0.37764C317.263 0.0734105 317.26 -0.229404 317.256 -0.530808"></path>
  <path fill="#8D5A3E" transform="matrix(0.972 7.30008e-23 -7.30008e-23 0.972 91.4201 194.429)" d="M8.27734 0.37764C8.27734 0.37764 28.6505 7.15908 72.0222 20.27C95.5232 27.3741 124.361 26.6333 162.051 28.6239C186.598 31.3075 234.093 21.7685 234.093 21.7685C234.093 21.7685 234.776 13.773 238.41 13.773C242.043 13.773 247.752 21.7685 247.752 21.7685C260.529 21.7685 277.837 14.0585 286.934 12.9807C317.391 9.3723 317.263 0.37764 317.263 0.37764C317.263 -42.1439 270.172 -57.0257 270.172 -57.0257C255.536 -56.9111 217.367 -56.8284 163 -56.8281C108.633 -56.8279 57.8352 -56.9111 55.4223 -57.0258C55.4223 -57.0258 8.50731 -42.1439 8.27734 0.37764Z"></path>
  <clipPath id="cl_35d">
    <path d="M99.4657 194.796C99.4657 194.796 119.268 201.387 161.426 214.131C184.269 221.036 212.299 220.316 248.934 222.251C272.793 224.86 318.959 215.588 318.959 215.588C318.959 215.588 319.623 207.816 323.154 207.816C326.686 207.816 332.235 215.588 332.235 215.588C344.655 215.588 361.478 208.094 370.32 207.046C399.924 203.539 399.8 194.796 399.8 194.796C399.8 153.465 354.027 139 354.027 139C339.801 139.111 302.701 139.192 249.856 139.192C197.011 139.192 147.636 139.111 145.291 139C145.291 139 99.6892 153.465 99.4657 194.796Z"></path>
  </clipPath>
  <g clip-path="url(#cl_35d)">
    <path fill="#7F4728" transform="matrix(2.61439 -0.086419 0.123843 3.74656 194.452 193.943)" d="M-14.8742 -9.69253L16.7537 -6.3603L15.092 9.39556L-21.0084 4.35254L-14.8742 -9.69253Z"></path>
  </g>
  <path fill="none" stroke="#612F13" stroke-width="1" stroke-linecap="round" stroke-linejoin="round" transform="matrix(0.0654088 -1.56104 1.56104 0.0654088 205.396 168.298)" d="M1.02357 0.373772L4.21644 0.641895"></path>
  <path fill="none" stroke="#612F13" stroke-width="1" stroke-linecap="round" stroke-linejoin="round" transform="matrix(0.0654088 -1.56104 1.56104 0.0654088 193.246 167.812)" d="M1.02357 0.373775L4.21644 0.641899"></path>
  <clipPath id="cl_35e">
    <path d="M99.4657 194.796C99.4657 194.796 119.268 201.387 161.426 214.131C184.269 221.036 212.299 220.316 248.934 222.251C272.793 224.86 318.959 215.588 318.959 215.588C318.959 215.588 319.623 207.816 323.154 207.816C326.686 207.816 332.235 215.588 332.235 215.588C344.655 215.588 361.478 208.094 370.32 207.046C399.924 203.539 399.8 194.796 399.8 194.796C399.8 153.465 354.027 139 354.027 139C339.801 139.111 302.701 139.192 249.856 139.192C197.011 139.192 147.636 139.111 145.291 139C145.291 139 99.6892 153.465 99.4657 194.796Z"></path>
  </clipPath>
  <g clip-path="url(#cl_35e)">
    <clipPath id="cl_35f">
      <path d="M99.4657 194.796C99.4657 194.796 119.268 201.387 161.426 214.131C184.269 221.036 212.299 220.316 248.934 222.251C272.793 224.86 318.959 215.588 318.959 215.588C318.959 215.588 319.623 207.816 323.154 207.816C326.686 207.816 332.235 215.588 332.235 215.588C344.655 215.588 361.478 208.094 370.32 207.046C399.924 203.539 399.8 194.796 399.8 194.796C399.8 153.465 354.027 139 354.027 139C339.801 139.111 302.701 139.192 249.856 139.192C197.011 139.192 147.636 139.111 145.291 139C145.291 139 99.6892 153.465 99.4657 194.796Z"></path>
    </clipPath>
    <g clip-path="url(#cl_35f)">
      <path fill="#7F4728" transform="matrix(0.972 7.30008e-23 -7.30008e-23 0.972 379.618 170.372)" d="M7.62939e-06 -32.5C25.6812 -32.5 46.5 -17.8373 46.5 0.25C46.5 18.3373 25.6812 33 7.62939e-06 33C-25.6812 33 -46.5 18.3373 -46.5 0.25C-46.5 -17.8373 -25.6812 -32.5 7.62939e-06 -32.5Z"></path>
    </g>
    <path fill="none" stroke="#612F13" stroke-width="1" stroke-linecap="round" stroke-linejoin="round" transform="matrix(-1.42852 0.632822 -0.632822 -1.42852 338.794 174.989)" d="M1.02356 0.373775L4.21643 0.641899"></path>
    <path fill="none" stroke="#612F13" stroke-width="1" stroke-linecap="round" stroke-linejoin="round" transform="matrix(-0.810895 1.33551 -1.33551 -0.810895 353.86 191.513)" d="M1.02357 0.373768L4.21644 0.641892"></path>
    <path fill="none" stroke="#612F13" stroke-width="1" stroke-linecap="round" stroke-linejoin="round" transform="matrix(-1.5617 -0.0472275 0.0472275 -1.5617 339.28 165.269)" d="M1.02357 0.373775L4.21644 0.641899"></path>
  </g>
</svg>