<?xml version="1.0" encoding="utf-8"?>
<svg xmlns="http://www.w3.org/2000/svg" xmlns:xlink="http://www.w3.org/1999/xlink" width="512" height="512">
  <path fill="none" stroke="black" stroke-width="7" stroke-linejoin="round" transform="matrix(1.8 3.72529e-09 -3.72529e-09 1.8 210.879 409.868)" d="M0.317585 -46.251C18.5418 -46.0446 31.0869 -38.646 30.9048 5.64317C31.2269 34.6589 23.8797 44.6777 13.3629 44.4096C2.84604 44.1416 -5.79298 44.2439 -16.1262 44.3244C-26.589 44.2253 -31.97 33.0858 -32.2918 4.05704C-32.3961 -42.4394 -17.9066 -46.4575 0.317585 -46.251Z"></path>
  <path fill="none" stroke="black" stroke-width="7" stroke-linejoin="round" transform="matrix(-2.15345 -3.29802e-07 -3.27096e-07 2.13577 356.081 273.696)" d="M14.9195 -58.7492C18.2891 -54.2543 24.4157 -39.1075 24.373 -35.1802C24.3301 -31.2528 28.7302 -22.3383 27.4504 1.99683C26.2345 30.8607 21.8013 53.9501 -3.4629 53.0299C-19.32 52.3509 -30.7928 28.4185 -29.5769 -0.445342C-28.0525 -36.6323 -2.35935 -65.0153 14.9195 -58.7492Z"></path>
  <path fill="none" stroke="black" stroke-width="7" stroke-linejoin="round" transform="matrix(1.79976 0.0293645 -0.0293645 1.79976 266.376 274.862)" d="M0.209625 -80.0966C37.3348 -80.0966 84.5 -60 84.5 9.53674e-07C84.5 41.1452 46.7396 76.2788 0.209625 76.2788C-62.1658 76.2788 -84 60.12 -84 9.53674e-07C-84 -71.2881 -50.5087 -80.0966 0.209625 -80.0966Z"></path>
  <path fill="none" stroke="black" stroke-width="7" stroke-linejoin="round" transform="matrix(1.53671 3.18039e-09 -3.72529e-09 1.8 308.979 398.168)" d="M1.57211 -47.9197C19.782 -48.5612 35.4754 -42.1993 37.6788 7.33963C38.731 21.1659 33.6046 45.0704 19.9307 45.3679C6.25701 45.6655 0.123352 45.7989 -12.0747 46.0644C-24.2728 46.3298 -27.2129 23.4889 -28.2651 9.6626C-30.8849 -42.0543 -16.6378 -47.2783 1.57211 -47.9197Z"></path>
  <path fill="#6C88D9" transform="matrix(-2.15345 -3.29802e-07 -3.27096e-07 2.13577 356.081 273.696)" d="M14.9195 -58.7492C18.2891 -54.2543 24.4157 -39.1075 24.373 -35.1802C24.3301 -31.2528 28.7302 -22.3383 27.4504 1.99683C26.2345 30.8607 21.8013 53.9501 -3.4629 53.0299C-19.32 52.3509 -30.7928 28.4185 -29.5769 -0.445342C-28.0525 -36.6323 -2.35935 -65.0153 14.9195 -58.7492Z"></path>
  <path fill="#5170C8" transform="matrix(1.53671 3.18039e-09 -3.72529e-09 1.8 308.979 398.168)" d="M1.57211 -47.9197C19.782 -48.5612 35.4754 -42.1993 37.6788 7.33963C38.731 21.1659 33.6046 45.0704 19.9307 45.3679C6.25701 45.6655 0.123352 45.7989 -12.0747 46.0644C-24.2728 46.3298 -27.2129 23.4889 -28.2651 9.6626C-30.8849 -42.0543 -16.6378 -47.2783 1.57211 -47.9197Z"></path>
  <path fill="#839BE0" transform="matrix(1.20328 2.49031e-09 -2.91698e-09 1.40944 308.979 398.168)" d="M2.62141 -48.502C20.8313 -49.1435 35.9774 -42.6787 38.5248 11.3445C38.8841 29.2768 30.6352 44.6398 16.9614 44.9374C3.28762 45.2349 3.46394 45.2816 -8.73416 45.5471C-20.9322 45.8125 -27.0598 31.5997 -27.4191 13.6674C-30.3829 -42.5337 -15.5885 -47.8606 2.62141 -48.502Z"></path>
  <path fill="#6C88D9" transform="matrix(1.8 3.72529e-09 -3.72529e-09 1.8 210.879 409.868)" d="M0.317585 -46.251C18.5418 -46.0446 31.0869 -38.646 30.9048 5.64317C31.2269 34.6589 23.8797 44.6777 13.3629 44.4096C2.84604 44.1416 -5.79298 44.2439 -16.1262 44.3244C-26.589 44.2253 -31.97 33.0858 -32.2918 4.05704C-32.3961 -42.4394 -17.9066 -46.4575 0.317585 -46.251Z"></path>
  <path fill="#91A8EB" transform="matrix(-1.67686 -2.56813e-07 -3.2026e-07 2.09114 352.092 267.983)" d="M15.7848 -52.3245C37.9331 -51.5701 29.7232 -26.9973 26.5755 1.51296C23.4278 30.0232 10.3068 52.9507 -5.14328 52.4245C-20.5933 51.8983 -31.5 28.2246 -29.9803 -0.468295C-28.4605 -29.1612 -6.36348 -53.0788 15.7848 -52.3245Z"></path>
  <path fill="none" stroke="black" stroke-width="7" stroke-miterlimit="4" transform="matrix(1.79976 0.0293645 -0.0293645 1.79976 227.465 112.102)" d="M0 -29.5C19.0538 -29.5 34.5 -16.1805 34.5 0.250008C34.5 16.6805 19.0538 30 0 30C-19.0538 30 -34.5 16.6805 -34.5 0.250008C-34.5 -16.1805 -19.0538 -29.5 0 -29.5Z"></path>
  <path fill="#6C88D9" transform="matrix(1.79976 0.0293645 -0.0293645 1.79976 266.376 274.862)" d="M0.209625 -80.0966C37.3348 -80.0966 84.5 -60 84.5 9.53674e-07C84.5 41.1452 46.7396 76.2788 0.209625 76.2788C-62.1658 76.2788 -84 60.12 -84 9.53674e-07C-84 -71.2881 -50.5087 -80.0966 0.209625 -80.0966Z"></path>
  <path fill="none" stroke="black" stroke-width="9" stroke-miterlimit="4" transform="translate(256 256)" d="M-54.8449 -201.715C-40.0623 -201.474 -28.2472 -190.945 -28.4552 -178.197C-28.6632 -165.45 -40.8155 -155.312 -55.5981 -155.553C-70.3807 -155.794 -82.1957 -166.323 -81.9877 -179.071C-81.7798 -191.818 -69.6275 -201.956 -54.8449 -201.715Z"></path>
  <path fill="none" stroke="black" stroke-width="9" stroke-miterlimit="4" transform="translate(256 256)" d="M-70.3579 -186.803C-58.0583 -186.602 -48.2278 -177.841 -48.4009 -167.235C-48.5739 -156.629 -58.685 -148.194 -70.9846 -148.394C-83.2841 -148.595 -93.1146 -157.356 -92.9416 -167.962C-92.7685 -178.568 -82.6575 -187.003 -70.3579 -186.803Z"></path>
  <path fill="none" stroke="black" stroke-width="9" stroke-miterlimit="4" transform="translate(256 256)" d="M-90.365 -211.137C-83.684 -211.028 -78.3441 -206.269 -78.4381 -200.508C-78.5321 -194.746 -84.0244 -190.164 -90.7054 -190.273C-97.3864 -190.382 -102.726 -195.141 -102.632 -200.902C-102.538 -206.664 -97.046 -211.246 -90.365 -211.137Z"></path>
  <path fill="#6C88D9" transform="matrix(1.79976 0.0293645 -0.0293645 1.79976 227.465 112.102)" d="M0 -29.5C19.0538 -29.5 34.5 -16.1805 34.5 0.250008C34.5 16.6805 19.0538 30 0 30C-19.0538 30 -34.5 16.6805 -34.5 0.250008C-34.5 -16.1805 -19.0538 -29.5 0 -29.5Z"></path>
  <path fill="#6C88D9" transform="matrix(0.775834 0.0126583 -0.0126583 0.775834 200.782 77.1721)" d="M-7.62939e-06 -29.5C19.0538 -29.5 34.5 -16.1805 34.5 0.249985C34.5 16.6805 19.0538 30 -7.62939e-06 30C-19.0538 30 -34.5 16.6805 -34.5 0.249985C-34.5 -16.1805 -19.0538 -29.5 -7.62939e-06 -29.5Z"></path>
  <path fill="#6C88D9" transform="matrix(0.645518 0.0105321 -0.0105321 0.645518 185.331 88.2402)" d="M7.62939e-06 -29.5C19.0538 -29.5 34.5 -16.1805 34.5 0.249969C34.5 16.6804 19.0538 30 7.62939e-06 30C-19.0538 30 -34.5 16.6804 -34.5 0.249969C-34.5 -16.1805 -19.0538 -29.5 7.62939e-06 -29.5Z"></path>
  <path fill="#6C88D9" transform="matrix(0.35064 0.00572097 -0.00572097 0.35064 165.466 55.2073)" d="M0 -29.5001C19.0538 -29.5001 34.5 -16.1805 34.5 0.249939C34.5 16.6804 19.0538 29.9999 0 29.9999C-19.0538 29.9999 -34.5 16.6804 -34.5 0.249939C-34.5 -16.1805 -19.0538 -29.5001 0 -29.5001Z"></path>
  <path fill="#91A8EB" transform="matrix(1.50913 0.0246226 -0.0246226 1.50913 265.012 274.862)" d="M0.24998 -81.5196C49.8787 -81.2985 84.5 -60 84.5 -9.53674e-07C84.5 41.1452 46.78 74.5 0.25 74.5C-62.1254 74.5 -84 60.12 -84 -9.53674e-07C-84 -71.2881 -62.1254 -81.5196 0.24998 -81.5196Z"></path>
  <clipPath id="cl_35f">
    <path d="M269.105 130.713C335.922 131.803 420.218 169.357 418.456 277.343C417.248 351.394 348.256 413.518 264.513 412.151C152.253 410.32 113.431 380.597 115.196 272.395C117.289 144.094 177.824 129.224 269.105 130.713Z"></path>
  </clipPath>
  <g clip-path="url(#cl_35f)">
    <path fill="#A6B8EF" transform="matrix(0.805953 0.0131497 -0.0151654 0.929491 320.67 239.74)" d="M0.249972 -81.5196C49.8787 -81.2985 84.5 -60 84.5 1.90735e-06C84.5 41.1452 67.1354 74.5 20.6054 74.5C-41.77 74.5 -84 60.12 -84 1.90735e-06C-84 -71.2881 -62.1254 -81.5197 0.249972 -81.5196Z"></path>
    <path fill="#C1CBE8" transform="matrix(0.197995 -0.202726 0.445703 0.435301 343.77 190.891)" d="M11.5671 -77.0972C58.097 -77.0972 97.5959 -41.1452 97.5959 -1.67094e-05C97.5959 41.1452 73.4187 83.0524 26.8888 83.0524C-35.4867 83.0524 11.8086 60.12 11.8086 -1.5431e-05C11.8086 -41.1452 -34.9629 -77.0972 11.5671 -77.0972Z"></path>
    <path fill="#C1CBE8" transform="matrix(0.197995 -0.202726 0.184201 0.179903 388.212 255.247)" d="M48.93 -79.7642C80.6763 -79.0529 77.4946 -42.8889 62.8508 4.00565C48.2069 50.9001 -0.0393895 91.2963 -20.4536 67.777C-40.8678 44.2576 -16.8141 31.8032 -0.458961 -5.13881C15.8962 -42.0808 17.1838 -80.4755 48.93 -79.7642Z"></path>
  </g>
  <path fill="#91A8EB" transform="matrix(1.37947 2.85496e-09 -2.85496e-09 1.37947 210.879 346.868)" d="M0.256088 -0.702179C18.4803 -0.495773 32.0923 -1.13318 31.9576 50.3603C31.4951 75.8441 23.8484 90.3478 13.3316 90.0797C2.81476 89.8117 -5.82429 89.9141 -16.1575 89.9945C-26.5376 90.002 -33.9215 73.2298 -33.459 47.746C-33.6104 -5.95491 -17.9682 -0.908607 0.256088 -0.702179Z"></path>
  <path fill="#91A8EB" transform="matrix(1.79976 0.0293645 -0.0293645 1.79976 227.465 112.102)" d="M0 -22.5C14.6355 -22.5 26.5 -12.3145 26.5 0.250008C26.5 12.8145 14.6355 23 0 23C-14.6355 23 -26.5 12.8145 -26.5 0.250008C-26.5 -12.3145 -14.6355 -22.5 0 -22.5Z"></path>
  <path fill="none" stroke="black" stroke-width="7" stroke-linecap="round" stroke-linejoin="round" transform="matrix(2.15345 4.45679e-09 -4.42021e-09 2.13577 150.189 283.36)" d="M28.2034 -29.023C29.7343 -23.2528 31.5526 -14.2212 31.5444 0.286122C31.6235 29.1741 27.2197 52.8072 1.94016 52.5576C-13.9291 52.2995 -25.4447 29.3335 -25.5237 0.454101C-25.7584 -22.7926 -16.0362 -43.3823 -4.36577 -53.6419"></path>
  <path fill="#6C88D9" transform="matrix(2.15345 4.45679e-09 -4.42021e-09 2.13577 150.189 283.36)" d="M15.2034 -59.9555C18.8524 -55.6881 25.9312 -40.9693 26.1386 -37.0473C26.3461 -33.1253 31.5583 -24.2532 31.5444 0.286122C31.6235 29.1741 27.2197 52.8072 1.94016 52.5576C-13.9291 52.2995 -25.4447 29.3335 -25.5237 0.454101C-25.8866 -35.4949 -2.43888 -65.0898 15.2034 -59.9555Z"></path>
  <path fill="#91A8EB" transform="matrix(1.67686 3.47045e-09 -4.32784e-09 2.09114 154.179 277.647)" d="M16.5477 -53.5154C38.7106 -53.9033 37.6873 -28.6391 31.5411 -0.931378C25.8846 27.0709 23.5966 51.1685 8.19106 52.2451C-7.21456 53.3216 -23.0182 30.1351 -24.959 1.47376C-26.4385 -27.5626 -5.61527 -53.1276 16.5477 -53.5154Z"></path>
  <path fill="#312F2F" transform="matrix(0.487168 0.240863 -0.287196 0.580881 190.051 370.423)" d="M-4.76837e-06 -128C70.6925 -128 128 -70.6925 128 0C128 70.6925 70.6925 128 -4.76837e-06 128C-70.6925 128 -128 70.6925 -128 0C-128 -70.6925 -70.6925 -128 -4.76837e-06 -128Z"></path>
  <path fill="none" stroke="black" stroke-width="7" stroke-miterlimit="4" transform="translate(256 256)" d="M-18.151 45.5272C16.2881 62.5544 27.748 109.647 7.44538 150.71C-12.8572 191.774 -57.2342 211.26 -91.6733 194.233C-126.112 177.205 -137.572 130.113 -117.27 89.0494C-96.9671 47.9855 -52.5902 28.4999 -18.151 45.5272Z"></path>
  <path fill="none" stroke="black" stroke-width="7" stroke-linejoin="round" transform="translate(256 256)" d="M-18.151 45.5272C-18.151 45.5272 -26.9811 41.1614 -28.7616 40.2811C-57.0698 27.2275 -100.815 27.9891 -128.306 83.5926C-155.798 139.196 -124.146 178.178 -102.71 188.776C-100.929 189.656 -91.6733 194.233 -91.6733 194.233C-92.173 193.986 -92.6992 193.699 -93.2485 193.374"></path>
  <path fill="#DEDEDE" transform="matrix(0.487168 0.240863 -0.287196 0.580881 201.088 375.88)" d="M6.19888e-06 -128C70.6925 -128 128 -70.6925 128 0C128 70.6925 70.6925 128 6.19888e-06 128C-70.6925 128 -128 70.6925 -128 0C-128 -70.6925 -70.6925 -128 6.19888e-06 -128Z"></path>
  <clipPath id="cl_362">
    <path d="M237.849 301.527C272.288 318.554 283.748 365.647 263.445 406.71C243.143 447.774 198.766 467.26 164.327 450.233C129.888 433.205 118.428 386.113 138.73 345.049C159.033 303.985 203.41 284.5 237.849 301.527Z"></path>
  </clipPath>
  <g clip-path="url(#cl_362)">
    <path fill="#F2F1F1" transform="matrix(0.365341 0.418802 -0.431672 0.469087 183.653 399.487)" d="M-170.753 -28.5017L169.944 -28.5017L169.944 28.5017L-170.753 28.5017L-170.753 -28.5017Z"></path>
    <path fill="#F2F1F1" transform="matrix(0.365341 0.418802 -0.431672 0.469087 166.276 416.86)" d="M-170.753 -5.22016L169.944 -5.22016L169.944 5.22016L-170.753 5.22016L-170.753 -5.22016Z"></path>
  </g>
  <path fill="#8B8B8B" transform="matrix(0.487168 0.240863 -0.287196 0.580881 204.542 376.865)" d="M0.249994 -87.5C51.4744 -87.5 93 -48.4369 93 -0.250015C93 47.9368 51.4744 87 0.249994 87C-50.9744 87 -92.5 47.9368 -92.5 -0.250015C-92.5 -48.4369 -50.9744 -87.5 0.249994 -87.5Z"></path>
  <path fill="#B0AFAF" transform="matrix(0.487168 0.240863 -0.287196 0.580881 201.088 375.88)" d="M6.19888e-06 -86C47.4965 -86 86 -47.4965 86 0C86 47.4965 47.4965 86 6.19888e-06 86C-47.4965 86 -86 47.4965 -86 0C-86 -47.4965 -47.4965 -86 6.19888e-06 -86Z"></path>
  <path fill="#8B8B8B" transform="matrix(0.487168 0.240863 -0.287196 0.580881 202.48 373.677)" d="M-52.3281 27.625L-52.3281 -27.668L-46.756 -30.4056L-46.7825 24.7561L-42.4191 24.6238L-47.1314 27.6684L-52.3281 27.625ZM-50.25 21.3164C-54.7526 21.3164 -58.6058 20.4196 -61.8096 18.626C-65.0133 16.8324 -67.4626 14.3337 -69.1572 11.1299C-70.8519 7.92611 -71.6992 4.19662 -71.6992 -0.0585938C-71.6992 -4.3138 -70.8519 -8.0433 -69.1572 -11.2471C-67.4626 -14.4508 -65.0133 -16.9495 -61.8096 -18.7432C-58.6058 -20.5368 -54.7526 -21.4336 -50.25 -21.4336C-47.3802 -21.4336 -44.7825 -21.0625 -42.457 -20.3203C-40.1315 -19.5781 -38.109 -18.5205 -36.3896 -17.1475C-34.6702 -15.7744 -27.78 -10.4693 -25.0591 -8.68546C-26.0599 -7.96244 -28.2099 -6.9054 -30.3965 -5.66211C-30.3965 -5.66211 -44.0898 -3.62109 -44.0898 -3.62109C-44.0898 -3.62109 -44.5166 -5.6683 -44.8506 -6.49707C-45.1846 -7.32584 -45.5989 -8.02474 -46.0937 -8.59375C-46.5885 -9.16276 -47.1637 -9.58952 -47.8193 -9.87402C-48.4749 -10.1585 -49.2109 -10.3008 -50.0273 -10.3008C-51.3385 -10.3008 -52.4766 -9.92969 -53.4414 -9.1875C-54.4062 -8.44531 -55.1546 -7.31966 -55.6865 -5.81055C-56.2184 -4.30143 -56.4844 -2.40885 -56.4844 -0.132812C-56.4844 2.11849 -56.2184 4.01107 -55.6865 5.54492C-55.1546 7.07878 -54.4062 8.23535 -53.4414 9.01465C-52.4766 9.79395 -51.3385 10.1836 -50.0273 10.1836C-49.2109 10.1836 -48.4749 10.0352 -47.8193 9.73828C-47.1637 9.44141 -46.5823 9.00228 -46.0752 8.4209C-45.568 7.83952 -45.8968 6.99338 -44.8135 6.25C-43.7301 5.50662 -38.8901 1.52308 -38.7417 0.409798C-38.7417 0.409798 -30.3965 5.28516 -30.3965 5.28516C-30.3965 5.28516 -31.2747 9.97949 -32.2891 11.9463C-33.3034 13.9131 -34.6641 15.5954 -36.3711 16.9932C-38.0781 18.3909 -40.1006 19.4609 -42.4385 20.2031C-44.7764 20.9453 -47.3802 21.3164 -50.25 21.3164ZM-24.5332 27.625L-24.5332 16.8633L-3.90038 -0.207016C-3.90038 -0.207016 -1.36458 -2.41502 -0.374992 -3.41698C0.614592 -4.41893 1.37533 -5.45181 1.90723 -6.51561C2.43913 -7.57941 2.70509 -8.76691 2.70509 -10.0781C2.70509 -11.4883 2.40203 -12.6943 1.79591 -13.6963C1.18979 -14.6982 0.36101 -15.4713 -0.690422 -16.0156C-1.74185 -16.5599 -2.96028 -16.832 -4.3457 -16.832C-5.73111 -16.832 -6.94954 -16.5537 -8.00097 -15.9971C-9.0524 -15.4404 -6.29219 -13.7058 -5.868 -12.6284C-7.10778 -11.907 -9.37627 -10.5827 -11.3223 -9.6328C-11.3223 -9.6328 -25.5723 -9.6328 -25.5723 -9.6328C-25.5723 -9.6328 -24.7002 -16.8568 -22.9561 -19.6523C-21.2119 -22.4479 -18.7441 -24.6064 -15.5527 -26.1279C-12.3613 -27.6494 -8.62564 -28.4101 -4.3457 -28.4101C0.0826893 -28.4101 3.91733 -27.7051 7.15821 -26.2949C10.3991 -24.8848 12.904 -22.8994 14.6729 -20.3389C16.4417 -17.7783 17.3262 -14.7786 17.3262 -11.3398C17.3262 -9.21223 16.8871 -7.10317 16.0088 -5.01268C15.1305 -2.92219 13.5534 -0.60285 11.2774 1.94533C9.00131 4.49351 5.74805 7.51173 1.51759 11C1.51759 11 -3.67773 15.3047 -3.67773 15.3047L-3.67773 15.6758L17.9199 15.6758L23.3601 24.6527L17.9199 27.625L-24.5332 27.625ZM45.3066 28.3672C41.0514 28.3672 37.2786 27.6188 33.9883 26.1221C30.6979 24.6253 28.1126 22.5534 26.2324 19.9062C24.3522 17.2591 23.3874 14.2161 23.3379 10.7773C23.3379 10.7773 28.8025 7.82547 28.8025 7.82547L37.959 10.7773C37.959 10.7773 38.293 13.14 38.9609 14.0801C39.6289 15.0202 40.5195 15.7438 41.6328 16.251C42.7461 16.7581 43.9707 17.0117 45.3066 17.0117C46.8405 17.0117 48.1826 16.6839 49.333 16.0283C50.4834 15.3727 51.3864 14.4512 52.042 13.2637C52.6976 12.0762 53.0254 10.6784 53.0254 9.07031C53.0254 7.4375 52.6976 6.02116 52.042 4.82129C51.3864 3.62142 50.4834 2.69369 49.333 2.03809C48.1826 1.38249 46.8405 1.05469 45.3066 1.05469C43.6986 1.05469 43.4423 2.31534 43.4423 2.31534C43.4423 2.31534 38.6022 4.02344 37.959 5.35938C37.959 5.35938 24.748 2.76172 24.748 2.76172L26.9004 -27.668L32.366 -30.6324L64.084 -27.668L69.5014 -18.6129L64.084 -15.6445L39.2207 -15.6445L38.1816 -3.47266L38.4785 -3.47266C38.4785 -3.47266 40.8411 -6.54037 42.9688 -7.62891C45.0964 -8.71745 47.5579 -9.26172 50.3535 -9.26172C52.8027 -9.26172 55.0726 -8.82877 57.1631 -7.96289C59.2536 -7.097 61.0719 -5.86621 62.6182 -4.27051C64.1644 -2.6748 65.3643 -0.782227 66.2178 1.40723C67.0713 3.59668 67.498 6.0026 67.498 8.625C67.498 12.4844 66.5827 15.8984 64.752 18.8672C62.9212 21.8359 60.3421 24.1615 57.0146 25.8438C53.6872 27.526 49.7845 28.3672 45.3066 28.3672Z"></path>
  <path fill="#DEDEDE" transform="matrix(0.487168 0.240863 -0.287196 0.580881 206.065 372.558)" d="M-51.8281 28.625L-51.8281 -26.668L-47.375 -26.668L-47.375 28.625L-51.8281 28.625ZM-49.75 22.3164C-54.2526 22.3164 -58.1058 21.4196 -61.3096 19.626C-64.5134 17.8324 -66.9626 15.3337 -68.6572 12.1299C-70.3519 8.92611 -71.1992 5.19662 -71.1992 0.941406C-71.1992 -3.3138 -70.3519 -7.0433 -68.6572 -10.2471C-66.9626 -13.4508 -64.5134 -15.9495 -61.3096 -17.7432C-58.1058 -19.5368 -54.2526 -20.4336 -49.75 -20.4336C-46.8802 -20.4336 -44.2826 -20.0625 -41.957 -19.3203C-39.6315 -18.5781 -37.6091 -17.5205 -35.8897 -16.1475C-34.1703 -14.7744 -32.8034 -13.1169 -31.7891 -11.1748C-30.7747 -9.23275 -30.1439 -7.06185 -29.8965 -4.66211C-29.8965 -4.66211 -43.5899 -2.62109 -43.5899 -2.62109C-43.5899 -2.62109 -44.0166 -4.6683 -44.3506 -5.49707C-44.6846 -6.32584 -45.099 -7.02474 -45.5938 -7.59375C-46.0886 -8.16276 -46.6637 -8.58952 -47.3193 -8.87402C-47.9749 -9.15853 -48.7109 -9.30078 -49.5274 -9.30078C-50.8386 -9.30078 -51.9766 -8.92969 -52.9414 -8.1875C-53.9063 -7.44531 -54.6546 -6.31966 -55.1865 -4.81055C-55.7184 -3.30143 -55.9844 -1.40885 -55.9844 0.867188C-55.9844 3.11849 -55.7184 5.01107 -55.1865 6.54492C-54.6546 8.07878 -53.9063 9.23535 -52.9414 10.0146C-51.9766 10.7939 -50.8386 11.1836 -49.5274 11.1836C-48.7109 11.1836 -47.9749 11.0352 -47.3193 10.7383C-46.6637 10.4414 -46.0824 10.0023 -45.5752 9.4209C-45.068 8.83952 -44.6475 8.11588 -44.3135 7.25C-43.9795 6.38412 -43.7383 5.39453 -43.5899 4.28125C-43.5899 4.28125 -29.8965 6.28516 -29.8965 6.28516C-29.8965 6.28516 -30.7747 10.9795 -31.7891 12.9463C-32.8034 14.9131 -34.1641 16.5954 -35.8711 17.9932C-37.5781 19.3909 -39.6006 20.4609 -41.9385 21.2031C-44.2764 21.9453 -46.8802 22.3164 -49.75 22.3164ZM-24.0332 28.625L-24.0332 17.8633L-3.40039 0.792953C-3.40039 0.792953 -0.864588 -1.41505 0.124996 -2.41701C1.11458 -3.41896 1.87532 -4.45184 2.40722 -5.51564C2.93912 -6.57944 3.20507 -7.76694 3.20507 -9.07814C3.20507 -10.4883 2.90201 -11.6944 2.29589 -12.6963C1.68978 -13.6983 0.860998 -14.4714 -0.190434 -15.0156C-1.24187 -15.5599 -2.46029 -15.832 -3.84571 -15.832C-5.23112 -15.832 -6.44955 -15.5537 -7.50098 -14.9971C-8.55241 -14.4404 -9.36882 -13.6302 -9.9502 -12.5664C-10.5316 -11.5026 -10.8223 -10.1914 -10.8223 -8.63283C-10.8223 -8.63283 -25.0723 -8.63283 -25.0723 -8.63283C-25.0723 -8.63283 -24.2002 -15.8568 -22.4561 -18.6524C-20.7119 -21.4479 -18.2441 -23.6065 -15.0527 -25.1279C-11.8613 -26.6494 -8.12566 -27.4102 -3.84571 -27.4102C0.582678 -27.4102 4.41732 -26.7051 7.6582 -25.2949C10.8991 -23.8848 13.404 -21.8994 15.1728 -19.3389C16.9417 -16.7783 17.8262 -13.7787 17.8262 -10.3399C17.8262 -8.21226 17.387 -6.1032 16.5088 -4.01271C15.6305 -1.92222 14.0534 0.39712 11.7773 2.9453C9.5013 5.49347 6.24804 8.5117 2.01757 12C2.01757 12 -3.17774 16.3047 -3.17774 16.3047L-3.17774 16.6758L18.4199 16.6758L18.4199 28.625L-24.0332 28.625ZM45.8067 29.3672C41.5514 29.3672 37.7787 28.6188 34.4883 27.1221C31.1979 25.6253 28.6126 23.5534 26.7324 20.9062C24.8522 18.2591 23.8874 15.2161 23.8379 11.7773C23.8379 11.7773 38.459 11.7773 38.459 11.7773C38.459 11.7773 38.793 14.14 39.4609 15.0801C40.1289 16.0202 41.0195 16.7438 42.1328 17.251C43.2461 17.7581 44.4707 18.0117 45.8067 18.0117C47.3405 18.0117 48.6826 17.6839 49.833 17.0283C50.9834 16.3727 51.8864 15.4512 52.542 14.2637C53.1976 13.0762 53.5254 11.6784 53.5254 10.0703C53.5254 8.43748 53.1976 7.02114 52.542 5.82127C51.8864 4.6214 50.9834 3.69367 49.833 3.03807C48.6826 2.38247 47.3405 2.05467 45.8067 2.05467C44.1986 2.05467 42.7328 2.43814 41.4092 3.20506C40.0856 3.97199 39.1022 5.02342 38.459 6.35936C38.459 6.35936 25.2481 3.7617 25.2481 3.7617L27.4004 -26.668L64.584 -26.668L64.584 -14.6445L39.7207 -14.6445L38.6816 -2.47267L38.9785 -2.47267C38.9785 -2.47267 41.3412 -5.54038 43.4688 -6.62892C45.5964 -7.71746 48.058 -8.26173 50.8535 -8.26173C53.3027 -8.26173 55.5726 -7.82879 57.6631 -6.96291C59.7536 -6.09702 61.572 -4.86623 63.1182 -3.27052C64.6644 -1.67482 65.8643 0.217758 66.7178 2.40721C67.5713 4.59666 67.9981 7.00259 67.9981 9.62498C67.9981 13.4844 67.0827 16.8984 65.252 19.8672C63.4212 22.8359 60.8421 25.1614 57.5147 26.8437C54.1872 28.526 50.2845 29.3672 45.8067 29.3672Z"></path>
  <clipPath id="cl_364">
    <path d="M172.595 376.702L188.475 344.583L190.644 345.656L174.764 377.774L172.595 376.702ZM175.419 373.538C173.225 372.453 171.606 371.004 170.56 369.191C169.515 367.377 169.039 365.336 169.134 363.067C169.228 360.797 169.886 358.427 171.108 355.955C172.331 353.483 173.814 351.521 175.56 350.068C177.306 348.615 179.217 347.754 181.293 347.484C183.368 347.213 185.503 347.621 187.697 348.705C189.095 349.396 190.254 350.238 191.173 351.229C192.093 352.22 192.775 353.322 193.218 354.533C193.661 355.745 193.851 357.037 193.788 358.41C193.724 359.782 193.408 361.195 192.839 362.648C192.839 362.648 185.582 360.536 185.582 360.536C185.582 360.536 185.962 359.244 186.037 358.682C186.113 358.12 186.112 357.614 186.034 357.165C185.956 356.715 185.799 356.328 185.561 356.005C185.323 355.682 185.006 355.422 184.608 355.226C183.969 354.91 183.308 354.851 182.625 355.05C181.942 355.249 181.254 355.722 180.561 356.471C179.869 357.219 179.196 358.255 178.542 359.577C177.895 360.884 177.481 362.048 177.3 363.067C177.119 364.086 177.151 364.938 177.397 365.623C177.644 366.308 178.086 366.809 178.725 367.125C179.123 367.321 179.524 367.412 179.928 367.398C180.333 367.383 180.742 367.268 181.156 367.053C181.57 366.837 181.983 366.518 182.395 366.095C182.806 365.673 183.208 365.156 183.6 364.545C183.6 364.545 189.695 369.008 189.695 369.008C189.695 369.008 187.919 371.523 186.86 372.421C185.801 373.319 184.655 373.969 183.422 374.369C182.189 374.77 180.896 374.905 179.544 374.773C178.192 374.641 176.817 374.229 175.419 373.538ZM186.136 383.397L189.226 377.145L204.181 372.199C204.181 372.199 206.05 371.527 206.82 371.184C207.59 370.84 208.257 370.423 208.822 369.933C209.386 369.444 209.857 368.818 210.233 368.056C210.638 367.237 210.837 366.464 210.83 365.736C210.822 365.008 210.64 364.359 210.284 363.789C209.929 363.22 209.413 362.768 208.738 362.435C208.063 362.101 207.39 361.969 206.718 362.039C206.046 362.109 205.415 362.383 204.826 362.861C204.238 363.339 203.719 364.031 203.272 364.936C203.272 364.936 196.33 361.504 196.33 361.504C196.33 361.504 198.829 357.518 200.482 356.314C202.134 355.11 203.957 354.451 205.948 354.336C207.94 354.22 209.978 354.678 212.063 355.709C214.221 356.776 215.886 358.109 217.06 359.709C218.234 361.309 218.884 363.065 219.011 364.979C219.137 366.892 218.706 368.848 217.719 370.845C217.108 372.081 216.288 373.2 215.26 374.203C214.232 375.206 212.797 376.173 210.956 377.105C209.116 378.037 206.664 379.007 203.601 380.014C203.601 380.014 199.834 381.263 199.834 381.263L199.728 381.479L210.249 386.681L206.817 393.622L186.136 383.397ZM219.946 400.65C217.873 399.625 216.25 398.281 215.077 396.619C213.904 394.957 213.24 393.131 213.084 391.141C212.928 389.15 213.332 387.15 214.295 385.141C214.295 385.141 221.418 388.662 221.418 388.662C221.418 388.662 220.903 390.115 220.958 390.822C221.013 391.529 221.239 392.164 221.636 392.727C222.033 393.289 222.557 393.732 223.207 394.053C223.955 394.423 224.703 394.556 225.451 394.452C226.2 394.348 226.905 394.03 227.565 393.499C228.226 392.967 228.787 392.234 229.249 391.3C229.717 390.351 229.965 389.449 229.99 388.595C230.015 387.74 229.842 386.983 229.469 386.325C229.097 385.667 228.538 385.154 227.79 384.784C227.007 384.397 226.183 384.267 225.318 384.393C224.453 384.52 223.671 384.894 222.974 385.515C222.974 385.515 217.285 380.824 217.285 380.824L227.072 363.666L245.187 372.623L241.734 379.607L229.621 373.618L225.619 380.438L225.764 380.51C225.764 380.51 227.796 379.297 229.145 379.177C230.494 379.057 231.85 379.334 233.212 380.007C234.405 380.597 235.386 381.395 236.156 382.402C236.926 383.408 237.458 384.561 237.753 385.861C238.048 387.16 238.089 388.548 237.876 390.026C237.663 391.503 237.18 393.004 236.427 394.527C235.319 396.769 233.892 398.531 232.148 399.815C230.403 401.098 228.479 401.828 226.375 402.004C224.271 402.18 222.128 401.728 219.946 400.65Z"></path>
  </clipPath>
  <g clip-path="url(#cl_364)">
    <path fill="#F2F1F1" transform="matrix(0.365341 0.418802 -0.431672 0.469087 183.653 399.487)" d="M-170.753 -28.5017L169.944 -28.5017L169.944 28.5017L-170.753 28.5017L-170.753 -28.5017Z"></path>
    <path fill="#F2F1F1" transform="matrix(0.365341 0.418802 -0.431672 0.469087 166.276 416.86)" d="M-170.753 -5.22016L169.944 -5.22016L169.944 5.22016L-170.753 5.22016L-170.753 -5.22016Z"></path>
  </g>
  <path fill="#8E8B8B" transform="matrix(0.580881 0.287196 -0.287196 0.580881 237.849 301.527)" d="M-5.72205e-06 3.8147e-06C-5.72205e-06 3.8147e-06 -15.2012 1.14441e-05 -18.2664 3.8147e-06C-66.3551 1.3037 -126.35 32.2772 -126.35 128C-126.35 223.723 -55.9022 256 -19 256C-15.9348 256 7.62939e-06 256 -7.62939e-06 256C-25.5439 256 -107.35 223.723 -107.35 128C-107.35 32.2772 -25.5439 1.14441e-05 -5.72205e-06 3.8147e-06Z"></path>
  <clipPath id="cl_366">
    <path d="M237.849 301.527C237.849 301.527 229.019 297.161 227.238 296.281C198.93 283.228 155.185 283.989 127.694 339.593C100.202 395.196 131.854 434.178 153.29 444.776C155.07 445.656 164.327 450.233 164.327 450.233C149.489 442.897 111.239 400.653 138.73 345.049C166.222 289.446 223.011 294.191 237.849 301.527Z"></path>
  </clipPath>
  <g clip-path="url(#cl_366)">
    <path fill="#ACABAB" transform="matrix(0.487168 0.240863 -0.287196 0.580881 144.113 388.48)" d="M-105.5 -40.8039L105 -40.8039L105 40.8039L-105.5 40.8039L-105.5 -40.8039Z"></path>
    <path fill="#D6D6D6" transform="matrix(0.487168 0.240863 -0.287196 0.580881 142.751 382.097)" d="M-105.5 -7.02944L105 -7.02944L105 7.02947L-105.5 7.02947L-105.5 -7.02944Z"></path>
    <path fill="#D6D6D6" transform="matrix(0.488554 0.241548 -0.286382 0.579234 175.535 366.861)" d="M-137.32 -30.4789L136.67 -30.4789L136.67 30.4789L-137.32 30.4789L-137.32 -30.4789Z"></path>
  </g>
  <path fill="#91A8EB" transform="matrix(0.606874 0.00990163 -0.00990163 0.606874 200.782 79.3792)" d="M0 -22.5C14.6355 -22.5 26.5 -12.3145 26.5 0.25C26.5 12.8145 14.6355 23 0 23C-14.6355 23 -26.5 12.8145 -26.5 0.25C-26.5 -12.3145 -14.6355 -22.5 0 -22.5Z"></path>
  <path fill="#91A8EB" transform="matrix(0.504938 0.00823846 -0.00823846 0.504938 185.331 90.0766)" d="M-4.23752e-08 -22.5C14.6355 -22.5 26.5 -12.3145 26.5 0.25C26.5 12.8145 14.6355 23 4.23752e-08 23C-14.6355 23 -26.5 12.8145 -26.5 0.25C-26.5 -12.3145 -14.6355 -22.5 -4.23752e-08 -22.5Z"></path>
  <path fill="#91A8EB" transform="matrix(0.274279 0.00447507 -0.00447507 0.274279 166.462 57.2901)" d="M0 -22.4261C14.2962 -22.4261 25.8855 -12.274 25.8855 0.249268C25.8855 12.7726 14.2962 22.9247 0 22.9247C-14.2962 22.9247 -25.8855 12.7726 -25.8855 0.249268C-25.8855 -12.274 -14.2962 -22.4261 0 -22.4261Z"></path>
  <path fill="#C1CBE8" transform="matrix(0.073816 -0.11483 0.26388 0.16963 162.703 54.6899)" d="M-6.10352e-05 -11.5C14.6355 -11.5 28.006 -7.98328 28.006 -1.63201C28.006 4.71926 15.5058 0.400185 0.870295 0.400186C-13.7652 0.400185 -26.7661 4.37689 -26.7661 -1.97439C-26.7661 -8.32566 -14.6356 -11.5 -6.10352e-05 -11.5Z"></path>
  <path fill="#C1CBE8" transform="matrix(-0.166841 -0.570472 0.880441 -0.257495 185.239 116.452)" d="M-3.05176e-05 -11.5C14.6355 -11.5 28.0061 -7.98328 28.0061 -1.63201C28.0061 4.71927 15.5059 0.400188 0.870326 0.400188C-13.7652 0.400186 -26.7661 4.37689 -26.7661 -1.97438C-26.7661 -8.32566 -14.6356 -11.5 -3.05176e-05 -11.5Z"></path>
  <path fill="#1B2B56" transform="matrix(1.78669 -0.21848 0.065544 0.536007 239.475 88.9772)" d="M-9.31323e-09 -2.49997C1.38071 -2.49997 2.5 -1.38068 2.5 3.05176e-05C2.5 1.38074 1.38071 2.50003 9.31323e-09 2.50003C-1.38071 2.50003 -2.5 1.38074 -2.5 3.05176e-05C-2.5 -1.38068 -1.38071 -2.49997 -9.31323e-09 -2.49997Z"></path>
  <path fill="none" stroke="#1B2B56" stroke-width="0.5" stroke-linecap="round" stroke-linejoin="round" transform="matrix(1.78289 -0.247598 0.247598 1.78289 248.119 87.8656)" d="M1.98548 0.277981L6.02909 0.184244"></path>
  <path fill="#1B2B56" transform="matrix(1.78669 -0.21848 0.065544 0.536007 268.063 85.4815)" d="M-1.91666e-06 -2.49997C1.38071 -2.49997 2.5 -1.38068 2.5 3.05176e-05C2.5 1.38074 1.38071 2.50003 -1.89804e-06 2.50003C-1.38071 2.50003 -2.5 1.38074 -2.5 3.05176e-05C-2.5 -1.38068 -1.38071 -2.49997 -1.91666e-06 -2.49997Z"></path>
  <path fill="#354B89" transform="matrix(1.46507 -0.885005 0.929571 0.72522 259.84 78.5494)" d="M0 -2.50002C1.38071 -2.50002 2.5 -1.38073 2.5 -1.51098e-05C2.5 1.3807 1.38071 2.49998 0 2.49998C-1.38071 2.49998 -2.5 1.3807 -2.5 -1.54078e-05C-2.5 -1.38073 -1.38071 -2.50002 0 -2.50002Z"></path>
  <path fill="#354B89" transform="matrix(2.16254 0.296937 -0.629837 1.0733 243.868 79.489)" d="M0 -2.98534C1.68306 -2.98534 3.04744 -1.64876 3.04744 -9.08208e-08C3.04744 1.64876 1.68306 2.98534 0 2.98534C-1.68306 2.98534 -3.04744 1.64876 -3.04744 9.08208e-08C-3.04744 -1.64876 -1.68306 -2.98534 0 -2.98534Z"></path>
  <path fill="none" stroke="white" stroke-width="5" stroke-linecap="round" stroke-linejoin="round" transform="matrix(1.5 0 0 1.5 158.539 362.24)" d=""></path>
</svg>