<?xml version="1.0" encoding="utf-8"?>
<svg xmlns="http://www.w3.org/2000/svg" xmlns:xlink="http://www.w3.org/1999/xlink" width="512" height="512">
  <path fill="none" stroke="black" stroke-width="7" stroke-linejoin="round" transform="matrix(1.8 3.72529e-09 -3.72529e-09 1.8 210.879 409.868)" d="M0.317585 -46.251C18.5418 -46.0446 31.0869 -38.646 30.9048 5.64317C31.2269 34.6589 23.8797 44.6777 13.3629 44.4096C2.84604 44.1416 -5.79298 44.2439 -16.1262 44.3244C-26.589 44.2253 -31.97 33.0858 -32.2918 4.05704C-32.3961 -42.4394 -17.9066 -46.4575 0.317585 -46.251Z"></path>
  <path fill="none" stroke="black" stroke-width="7" stroke-linejoin="round" transform="matrix(-2.15345 -3.29802e-07 -3.27096e-07 2.13577 356.081 273.696)" d="M25.5164 -58.4887C28.886 -53.9938 35.0126 -38.847 34.9699 -34.9196C34.927 -30.9923 39.3271 -22.0778 38.0472 2.25735C36.8314 31.1212 32.3982 54.2107 7.13398 53.2905C-8.72308 52.6114 -20.1959 28.6791 -18.98 -0.184828C-17.4557 -36.3718 8.23753 -64.7548 25.5164 -58.4887Z"></path>
  <path fill="none" stroke="black" stroke-width="7" stroke-linejoin="round" transform="matrix(1.79976 0.0293645 -0.0293645 1.79976 266.376 274.862)" d="M0.209625 -80.0966C37.3348 -80.0966 84.5 -60 84.5 9.53674e-07C84.5 41.1452 46.7396 76.2788 0.209625 76.2788C-62.1658 76.2788 -84 60.12 -84 9.53674e-07C-84 -71.2881 -50.5087 -80.0966 0.209625 -80.0966Z"></path>
  <path fill="none" stroke="black" stroke-width="7" stroke-linejoin="round" transform="matrix(1.53671 3.18039e-09 -3.72529e-09 1.8 308.979 398.168)" d="M1.57211 -47.9197C19.782 -48.5612 35.4754 -42.1993 37.6788 7.33963C38.731 21.1659 33.6046 45.0704 19.9307 45.3679C6.25701 45.6655 0.123352 45.7989 -12.0747 46.0644C-24.2728 46.3298 -27.2129 23.4889 -28.2651 9.6626C-30.8849 -42.0543 -16.6378 -47.2783 1.57211 -47.9197Z"></path>
  <path fill="#6C88D9" transform="matrix(-2.15345 -3.29802e-07 -3.27096e-07 2.13577 356.081 273.696)" d="M25.5164 -58.4887C28.886 -53.9938 35.0126 -38.847 34.9699 -34.9196C34.927 -30.9923 39.3271 -22.0778 38.0472 2.25735C36.8314 31.1212 32.3982 54.2107 7.13398 53.2905C-8.72308 52.6114 -20.1959 28.6791 -18.98 -0.184828C-17.4557 -36.3718 8.23753 -64.7548 25.5164 -58.4887Z"></path>
  <path fill="#5170C8" transform="matrix(1.53671 3.18039e-09 -3.72529e-09 1.8 308.979 398.168)" d="M1.57211 -47.9197C19.782 -48.5612 35.4754 -42.1993 37.6788 7.33963C38.731 21.1659 33.6046 45.0704 19.9307 45.3679C6.25701 45.6655 0.123352 45.7989 -12.0747 46.0644C-24.2728 46.3298 -27.2129 23.4889 -28.2651 9.6626C-30.8849 -42.0543 -16.6378 -47.2783 1.57211 -47.9197Z"></path>
  <path fill="#839BE0" transform="matrix(1.20328 2.49031e-09 -2.91698e-09 1.40944 308.979 398.168)" d="M2.62141 -48.502C20.8313 -49.1435 35.9774 -42.6787 38.5248 11.3445C38.8841 29.2768 30.6352 44.6398 16.9614 44.9374C3.28762 45.2349 3.46394 45.2816 -8.73416 45.5471C-20.9322 45.8125 -27.0598 31.5997 -27.4191 13.6674C-30.3829 -42.5337 -15.5885 -47.8606 2.62141 -48.502Z"></path>
  <path fill="#6C88D9" transform="matrix(1.8 3.72529e-09 -3.72529e-09 1.8 210.879 409.868)" d="M0.317585 -46.251C18.5418 -46.0446 31.0869 -38.646 30.9048 5.64317C31.2269 34.6589 23.8797 44.6777 13.3629 44.4096C2.84604 44.1416 -5.79298 44.2439 -16.1262 44.3244C-26.589 44.2253 -31.97 33.0858 -32.2918 4.05704C-32.3961 -42.4394 -17.9066 -46.4575 0.317585 -46.251Z"></path>
  <path fill="#91A8EB" transform="matrix(-1.67686 -2.56813e-07 -3.2026e-07 2.09114 352.092 267.983)" d="M29.3934 -52.0584C51.5417 -51.304 43.3318 -26.7312 40.1841 1.77903C37.0364 30.2892 23.9154 53.2168 8.46535 52.6906C-6.98467 52.1644 -17.8914 28.4907 -16.3716 -0.20222C-14.8518 -28.8952 7.24515 -52.8127 29.3934 -52.0584Z"></path>
  <path fill="none" stroke="black" stroke-width="7" stroke-miterlimit="4" transform="matrix(1.79976 0.0293645 -0.0293645 1.79976 227.465 112.102)" d="M0 -29.5C19.0538 -29.5 34.5 -16.1805 34.5 0.250008C34.5 16.6805 19.0538 30 0 30C-19.0538 30 -34.5 16.6805 -34.5 0.250008C-34.5 -16.1805 -19.0538 -29.5 0 -29.5Z"></path>
  <path fill="#6C88D9" transform="matrix(1.79976 0.0293645 -0.0293645 1.79976 266.376 274.862)" d="M0.209625 -80.0966C37.3348 -80.0966 84.5 -60 84.5 9.53674e-07C84.5 41.1452 46.7396 76.2788 0.209625 76.2788C-62.1658 76.2788 -84 60.12 -84 9.53674e-07C-84 -71.2881 -50.5087 -80.0966 0.209625 -80.0966Z"></path>
  <path fill="none" stroke="black" stroke-width="9" stroke-miterlimit="4" transform="translate(256 256)" d="M-54.8449 -201.715C-40.0623 -201.474 -28.2472 -190.945 -28.4552 -178.197C-28.6632 -165.45 -40.8155 -155.312 -55.5981 -155.553C-70.3807 -155.794 -82.1957 -166.323 -81.9877 -179.071C-81.7798 -191.818 -69.6275 -201.956 -54.8449 -201.715Z"></path>
  <path fill="none" stroke="black" stroke-width="9" stroke-miterlimit="4" transform="translate(256 256)" d="M-70.3579 -186.803C-58.0583 -186.602 -48.2278 -177.841 -48.4009 -167.235C-48.5739 -156.629 -58.685 -148.194 -70.9846 -148.394C-83.2841 -148.595 -93.1146 -157.356 -92.9416 -167.962C-92.7685 -178.568 -82.6575 -187.003 -70.3579 -186.803Z"></path>
  <path fill="none" stroke="black" stroke-width="9" stroke-miterlimit="4" transform="translate(256 256)" d="M-90.365 -211.137C-83.684 -211.028 -78.3441 -206.269 -78.4381 -200.508C-78.5321 -194.746 -84.0244 -190.164 -90.7054 -190.273C-97.3864 -190.382 -102.726 -195.141 -102.632 -200.902C-102.538 -206.664 -97.046 -211.246 -90.365 -211.137Z"></path>
  <path fill="#6C88D9" transform="matrix(1.79976 0.0293645 -0.0293645 1.79976 227.465 112.102)" d="M0 -29.5C19.0538 -29.5 34.5 -16.1805 34.5 0.250008C34.5 16.6805 19.0538 30 0 30C-19.0538 30 -34.5 16.6805 -34.5 0.250008C-34.5 -16.1805 -19.0538 -29.5 0 -29.5Z"></path>
  <path fill="#6C88D9" transform="matrix(0.775834 0.0126583 -0.0126583 0.775834 200.782 77.1721)" d="M-7.62939e-06 -29.5C19.0538 -29.5 34.5 -16.1805 34.5 0.249985C34.5 16.6805 19.0538 30 -7.62939e-06 30C-19.0538 30 -34.5 16.6805 -34.5 0.249985C-34.5 -16.1805 -19.0538 -29.5 -7.62939e-06 -29.5Z"></path>
  <path fill="#6C88D9" transform="matrix(0.645518 0.0105321 -0.0105321 0.645518 185.331 88.2402)" d="M7.62939e-06 -29.5C19.0538 -29.5 34.5 -16.1805 34.5 0.249969C34.5 16.6804 19.0538 30 7.62939e-06 30C-19.0538 30 -34.5 16.6804 -34.5 0.249969C-34.5 -16.1805 -19.0538 -29.5 7.62939e-06 -29.5Z"></path>
  <path fill="#6C88D9" transform="matrix(0.35064 0.00572097 -0.00572097 0.35064 165.466 55.2073)" d="M0 -29.5001C19.0538 -29.5001 34.5 -16.1805 34.5 0.249939C34.5 16.6804 19.0538 29.9999 0 29.9999C-19.0538 29.9999 -34.5 16.6804 -34.5 0.249939C-34.5 -16.1805 -19.0538 -29.5001 0 -29.5001Z"></path>
  <path fill="#91A8EB" transform="matrix(1.50913 0.0246226 -0.0246226 1.50913 265.012 274.862)" d="M0.24998 -81.5196C49.8787 -81.2985 84.5 -60 84.5 -9.53674e-07C84.5 41.1452 46.78 74.5 0.25 74.5C-62.1254 74.5 -84 60.12 -84 -9.53674e-07C-84 -71.2881 -62.1254 -81.5196 0.24998 -81.5196Z"></path>
  <clipPath id="cl_21f">
    <path d="M269.105 130.713C335.922 131.803 420.218 169.357 418.456 277.343C417.248 351.394 348.256 413.518 264.513 412.151C152.253 410.32 113.431 380.597 115.196 272.395C117.289 144.094 177.824 129.224 269.105 130.713Z"></path>
  </clipPath>
  <g clip-path="url(#cl_21f)">
    <path fill="#A6B8EF" transform="matrix(0.805953 0.0131497 -0.0151654 0.929491 324.628 239.74)" d="M0.249972 -81.5196C49.8787 -81.2985 84.5 -60 84.5 0C84.5 41.1452 67.1354 74.5 20.6054 74.5C-41.77 74.5 -84 60.12 -84 0C-84 -71.2881 -62.1254 -81.5197 0.249972 -81.5196Z"></path>
    <path fill="#C1CBE8" transform="matrix(0.197995 -0.202726 0.445703 0.435301 347.728 190.891)" d="M11.5671 -77.0972C58.0971 -77.0972 97.5959 -41.1452 97.5959 -2.81534e-05C97.5959 41.1452 73.4188 83.0524 26.8888 83.0524C-35.4866 83.0524 11.8087 60.12 11.8087 -2.68751e-05C11.8087 -41.1452 -34.9629 -77.0972 11.5671 -77.0972Z"></path>
    <path fill="#C1CBE8" transform="matrix(0.197995 -0.202726 0.184201 0.179903 392.17 255.247)" d="M48.93 -79.7642C80.6763 -79.0529 77.4946 -42.8888 62.8508 4.00568C48.2069 50.9002 -0.0393895 91.2964 -20.4536 67.777C-40.8678 44.2577 -16.8141 31.8032 -0.458961 -5.13878C15.8962 -42.0808 17.1838 -80.4755 48.93 -79.7642Z"></path>
  </g>
  <path fill="#91A8EB" transform="matrix(1.37947 2.85496e-09 -2.85496e-09 1.37947 210.879 346.868)" d="M0.256088 -0.702179C18.4803 -0.495773 32.0923 -1.13318 31.9576 50.3603C31.4951 75.8441 23.8484 90.3478 13.3316 90.0797C2.81476 89.8117 -5.82429 89.9141 -16.1575 89.9945C-26.5376 90.002 -33.9215 73.2298 -33.459 47.746C-33.6104 -5.95491 -17.9682 -0.908607 0.256088 -0.702179Z"></path>
  <path fill="#91A8EB" transform="matrix(1.79976 0.0293645 -0.0293645 1.79976 227.465 112.102)" d="M0 -22.5C14.6355 -22.5 26.5 -12.3145 26.5 0.250008C26.5 12.8145 14.6355 23 0 23C-14.6355 23 -26.5 12.8145 -26.5 0.250008C-26.5 -12.3145 -14.6355 -22.5 0 -22.5Z"></path>
  <path fill="none" stroke="black" stroke-width="7" stroke-linecap="round" stroke-linejoin="round" transform="matrix(2.15345 4.45679e-09 -4.42021e-09 2.13577 150.189 283.36)" d="M56.5832 -57.0973C62.4474 -56.6863 71.4053 -55.5088 84.8765 -50.9769C112.119 -42.0238 132.994 -30.965 125.087 -6.75398C120.028 8.41379 94.4314 12.6916 67.1928 3.73973C45.0336 -3.45235 28.6689 -19.5689 22.8229 -34.1382"></path>
  <path fill="#6C88D9" transform="matrix(2.15345 4.45679e-09 -4.42021e-09 2.13577 150.189 283.36)" d="M23.2468 -54.6643C28.4279 -56.7754 44.527 -58.7993 48.2769 -57.7359C52.0268 -56.6725 61.8695 -58.7168 84.8765 -50.9769C112.119 -42.0238 132.994 -30.965 125.087 -6.75398C120.028 8.41379 94.4314 12.6916 67.1928 3.73973C33.1229 -7.31813 12.7507 -39.4726 23.2468 -54.6643Z"></path>
  <path fill="#91A8EB" transform="matrix(1.67686 3.47045e-09 -4.32784e-09 2.09114 154.179 277.647)" d="M33.1717 -51.0412C39.8422 -67.9938 69.1299 -58.962 99.8713 -45.5411C131.262 -32.4837 159.156 -23.701 155.76 -11.6033C152.364 0.49446 119.609 5.70992 85.0636 -1.76865C50.1301 -9.85345 26.5012 -34.0886 33.1717 -51.0412Z"></path>
  <path fill="#312F2F" transform="matrix(0.377342 -0.391103 0.466336 0.449928 406.386 227.29)" d="M-1.52588e-05 -128C70.6924 -128 128 -70.6924 128 1.90735e-05C128 70.6925 70.6924 128 -1.52588e-05 128C-70.6925 128 -128 70.6925 -128 1.14441e-05C-128 -70.6924 -70.6925 -128 -1.52588e-05 -128Z"></path>
  <path fill="none" stroke="black" stroke-width="7" stroke-miterlimit="4" transform="translate(256 256)" d="M99.244 -95.1608C125.919 -122.809 174.268 -119.438 207.235 -87.6312C240.201 -55.8247 245.301 -7.62726 218.626 20.0208C191.951 47.6688 143.602 44.2976 110.635 12.4911C77.6688 -19.3154 72.5688 -67.5128 99.244 -95.1608Z"></path>
  <path fill="none" stroke="black" stroke-width="7" stroke-linejoin="round" transform="translate(256 256)" d="M99.244 -95.1608C99.244 -95.1608 92.4045 -88.0719 91.0254 -86.6425C69.9969 -63.6304 57.4476 -21.7168 102.087 21.3515C146.726 64.4199 193.474 46.09 210.077 28.8811C211.456 27.4517 218.626 20.0207 218.626 20.0208C218.239 20.4219 217.806 20.8363 217.329 21.261"></path>
  <path fill="#DEDEDE" transform="matrix(0.377342 -0.391103 0.466336 0.449928 414.935 218.43)" d="M0 -128C70.6924 -128 128 -70.6924 128 3.8147e-06C128 70.6925 70.6924 128 0 128C-70.6924 128 -128 70.6924 -128 -3.8147e-06C-128 -70.6925 -70.6924 -128 0 -128Z"></path>
  <clipPath id="cl_222">
    <path d="M355.244 160.839C381.919 133.191 430.268 136.562 463.235 168.369C496.201 200.175 501.301 248.373 474.626 276.021C447.951 303.669 399.602 300.298 366.635 268.491C333.669 236.685 328.569 188.487 355.244 160.839Z"></path>
  </clipPath>
  <g clip-path="url(#cl_222)">
    <path fill="#F2F1F1" transform="matrix(0.50992 -0.221023 0.315971 0.553665 432.139 242.206)" d="M-170.753 -28.5017L169.944 -28.5017L169.944 28.5017L-170.753 28.5017L-170.753 -28.5017Z"></path>
    <path fill="#F2F1F1" transform="matrix(0.50992 -0.221023 0.315971 0.553665 443.419 264.036)" d="M-170.753 -5.22019L169.944 -5.22019L169.944 5.22013L-170.753 5.22013L-170.753 -5.22019Z"></path>
  </g>
  <path fill="#8B8B8B" transform="matrix(0.377342 -0.391103 0.466336 0.449928 416.921 215.438)" d="M0.25 -87.5C51.4744 -87.5 93 -48.4368 93 -0.249997C93 47.9369 51.4744 87 0.25 87C-50.9744 87 -92.5 47.9368 -92.5 -0.250003C-92.5 -48.4369 -50.9744 -87.5 0.25 -87.5Z"></path>
  <path fill="#B0AFAF" transform="matrix(0.377342 -0.391103 0.466336 0.449928 414.935 218.43)" d="M0 -86C47.4965 -86 86 -47.4965 86 2.563e-06C86 47.4965 47.4965 86 0 86C-47.4965 86 -86 47.4965 -86 -2.563e-06C-86 -47.4965 -47.4965 -86 0 -86Z"></path>
  <path fill="#8B8B8B" transform="matrix(0.377342 -0.391103 0.466336 0.449928 413.258 216.435)" d="M-52.3281 27.625L-52.3281 -27.668L-46.756 -30.4056L-46.7826 24.7561L-42.4192 24.6238L-47.1315 27.6684L-52.3281 27.625ZM-50.25 21.3164C-54.7526 21.3164 -58.6058 20.4196 -61.8096 18.626C-65.0134 16.8324 -67.4626 14.3337 -69.1572 11.1299C-70.8519 7.92611 -71.6992 4.19662 -71.6992 -0.0585938C-71.6992 -4.3138 -70.8519 -8.0433 -69.1572 -11.2471C-67.4626 -14.4508 -65.0134 -16.9495 -61.8096 -18.7432C-58.6058 -20.5368 -54.7526 -21.4336 -50.25 -21.4336C-47.3802 -21.4336 -44.7826 -21.0625 -42.457 -20.3203C-40.1315 -19.5781 -38.1091 -18.5205 -36.3897 -17.1475C-34.6703 -15.7744 -27.7801 -10.4693 -25.0592 -8.68545C-26.0599 -7.96244 -28.21 -6.90539 -30.3965 -5.66211C-30.3965 -5.66211 -44.0899 -3.62109 -44.0899 -3.62109C-44.0899 -3.62109 -44.5166 -5.6683 -44.8506 -6.49707C-45.1846 -7.32584 -45.599 -8.02474 -46.0938 -8.59375C-46.5886 -9.16276 -47.1638 -9.58952 -47.8194 -9.87402C-48.475 -10.1585 -49.211 -10.3008 -50.0274 -10.3008C-51.3386 -10.3008 -52.4766 -9.92969 -53.4414 -9.1875C-54.4063 -8.44531 -55.1546 -7.31966 -55.6865 -5.81055C-56.2184 -4.30143 -56.4844 -2.40885 -56.4844 -0.132812C-56.4844 2.11849 -56.2184 4.01107 -55.6865 5.54492C-55.1546 7.07878 -54.4063 8.23535 -53.4414 9.01465C-52.4766 9.79395 -51.3386 10.1836 -50.0274 10.1836C-49.211 10.1836 -48.475 10.0352 -47.8194 9.73828C-47.1638 9.44141 -46.5824 9.00228 -46.0752 8.4209C-45.5681 7.83952 -45.8968 6.99338 -44.8135 6.25C-43.7302 5.50662 -38.8902 1.52308 -38.7417 0.4098C-38.7417 0.4098 -30.3965 5.28516 -30.3965 5.28516C-30.3965 5.28516 -31.2748 9.97949 -32.2891 11.9463C-33.3034 13.9131 -34.6641 15.5954 -36.3711 16.9932C-38.0781 18.391 -40.1006 19.4609 -42.4385 20.2031C-44.7764 20.9453 -47.3802 21.3164 -50.25 21.3164ZM-24.5332 27.625L-24.5332 16.8633L-3.90041 -0.207016C-3.90041 -0.207016 -1.3646 -2.41502 -0.375017 -3.41698C0.614567 -4.41893 1.37531 -5.45181 1.90721 -6.51561C2.43911 -7.57941 2.70506 -8.76691 2.70506 -10.0781C2.70506 -11.4883 2.402 -12.6943 1.79588 -13.6963C1.18976 -14.6982 0.360985 -15.4713 -0.690447 -16.0156C-1.74188 -16.5599 -2.9603 -16.832 -4.34572 -16.832C-5.73114 -16.832 -6.94956 -16.5537 -8.00099 -15.9971C-9.05243 -15.4404 -6.29222 -13.7058 -5.86802 -12.6284C-7.1078 -11.907 -9.3763 -10.5827 -11.3223 -9.6328C-11.3223 -9.6328 -25.5723 -9.6328 -25.5723 -9.6328C-25.5723 -9.6328 -24.7002 -16.8568 -22.9561 -19.6523C-21.2119 -22.4479 -18.7442 -24.6064 -15.5528 -26.1279C-12.3613 -27.6494 -8.62567 -28.4101 -4.34572 -28.4101C0.0826645 -28.4101 3.9173 -27.7051 7.15818 -26.2949C10.3991 -24.8847 12.904 -22.8994 14.6728 -20.3389C16.4417 -17.7783 17.3262 -14.7786 17.3262 -11.3398C17.3262 -9.21222 16.887 -7.10317 16.0088 -5.01268C15.1305 -2.92218 13.5534 -0.602848 11.2773 1.94533C9.00128 4.49351 5.74803 7.51174 1.51756 11C1.51756 11 -3.67775 15.3047 -3.67775 15.3047L-3.67775 15.6758L17.9199 15.6758L23.36 24.6527L17.9199 27.625L-24.5332 27.625ZM45.3066 28.3672C41.0514 28.3672 37.2786 27.6188 33.9883 26.1221C30.6979 24.6253 28.1126 22.5534 26.2324 19.9063C24.3522 17.2591 23.3874 14.2162 23.3379 10.7774C23.3379 10.7774 28.8025 7.82548 28.8025 7.82548L37.959 10.7774C37.959 10.7774 38.293 13.14 38.9609 14.0801C39.6289 15.0202 40.5195 15.7438 41.6328 16.251C42.7461 16.7582 43.9707 17.0117 45.3066 17.0117C46.8405 17.0117 48.1826 16.6839 49.333 16.0283C50.4834 15.3727 51.3864 14.4512 52.042 13.2637C52.6976 12.0762 53.0254 10.6784 53.0254 9.07033C53.0254 7.43752 52.6976 6.02117 52.042 4.8213C51.3864 3.62144 50.4834 2.6937 49.333 2.0381C48.1826 1.3825 46.8405 1.0547 45.3066 1.0547C43.6986 1.0547 43.4422 2.31536 43.4422 2.31536C43.4422 2.31536 38.6022 4.02345 37.959 5.35939C37.959 5.35939 24.748 2.76173 24.748 2.76173L26.9004 -27.668L32.366 -30.6324L64.084 -27.668L69.5014 -18.6128L64.084 -15.6445L39.2207 -15.6445L38.1816 -3.47264L38.4785 -3.47264C38.4785 -3.47264 40.8411 -6.54035 42.9687 -7.62889C45.0963 -8.71743 47.5579 -9.2617 50.3535 -9.2617C52.8027 -9.2617 55.0726 -8.82876 57.1631 -7.96287C59.2536 -7.09699 61.0719 -5.86619 62.6181 -4.27049C64.1644 -2.67479 65.3642 -0.782209 66.2178 1.40724C67.0713 3.5967 67.498 6.00262 67.498 8.62502C67.498 12.4844 66.5827 15.8985 64.7519 18.8672C62.9212 21.836 60.3421 24.1615 57.0146 25.8438C53.6872 27.5261 49.7845 28.3672 45.3066 28.3672Z"></path>
  <path fill="#DEDEDE" transform="matrix(0.377342 -0.391103 0.466336 0.449928 413.28 212.68)" d="M-51.8282 28.625L-51.8282 -26.668L-47.3751 -26.668L-47.3751 28.625L-51.8282 28.625ZM-49.7501 22.3164C-54.2527 22.3164 -58.1059 21.4196 -61.3096 19.626C-64.5134 17.8324 -66.9626 15.3337 -68.6573 12.1299C-70.352 8.92611 -71.1993 5.19662 -71.1993 0.941406C-71.1993 -3.3138 -70.352 -7.0433 -68.6573 -10.2471C-66.9626 -13.4508 -64.5134 -15.9495 -61.3096 -17.7432C-58.1059 -19.5368 -54.2527 -20.4336 -49.7501 -20.4336C-46.8803 -20.4336 -44.2826 -20.0625 -41.9571 -19.3203C-39.6316 -18.5781 -37.6091 -17.5205 -35.8897 -16.1475C-34.1703 -14.7744 -32.8035 -13.1169 -31.7891 -11.1748C-30.7748 -9.23274 -30.1439 -7.06185 -29.8965 -4.66211C-29.8965 -4.66211 -43.5899 -2.62109 -43.5899 -2.62109C-43.5899 -2.62109 -44.0167 -4.6683 -44.3506 -5.49707C-44.6846 -6.32584 -45.099 -7.02474 -45.5938 -7.59375C-46.0886 -8.16276 -46.6638 -8.58952 -47.3194 -8.87402C-47.975 -9.15853 -48.711 -9.30078 -49.5274 -9.30078C-50.8386 -9.30078 -51.9766 -8.92969 -52.9415 -8.1875C-53.9063 -7.44531 -54.6547 -6.31966 -55.1866 -4.81055C-55.7185 -3.30143 -55.9844 -1.40885 -55.9844 0.867188C-55.9844 3.11849 -55.7185 5.01107 -55.1866 6.54492C-54.6547 8.07878 -53.9063 9.23535 -52.9415 10.0146C-51.9766 10.7939 -50.8386 11.1836 -49.5274 11.1836C-48.711 11.1836 -47.975 11.0352 -47.3194 10.7383C-46.6638 10.4414 -46.0824 10.0023 -45.5753 9.4209C-45.0681 8.83952 -44.6475 8.11588 -44.3135 7.25C-43.9796 6.38412 -43.7383 5.39453 -43.5899 4.28125C-43.5899 4.28125 -29.8965 6.28516 -29.8965 6.28516C-29.8965 6.28516 -30.7748 10.9795 -31.7891 12.9463C-32.8035 14.9131 -34.1641 16.5954 -35.8712 17.9932C-37.5782 19.391 -39.6007 20.4609 -41.9385 21.2031C-44.2764 21.9453 -46.8803 22.3164 -49.7501 22.3164ZM-24.0332 28.625L-24.0332 17.8633L-3.40044 0.792969C-3.40044 0.792969 -0.864632 -1.41504 0.124952 -2.41699C1.11454 -3.41895 1.87528 -4.45182 2.40718 -5.51562C2.93908 -6.57943 3.20503 -7.76693 3.20503 -9.07812C3.20503 -10.4883 2.90197 -11.6943 2.29585 -12.6963C1.68973 -13.6982 0.860954 -14.4714 -0.190477 -15.0156C-1.24191 -15.5599 -2.46033 -15.832 -3.84575 -15.832C-5.23117 -15.832 -6.44959 -15.5537 -7.50102 -14.9971C-8.55246 -14.4404 -9.36886 -13.6302 -9.95024 -12.5664C-10.5316 -11.5026 -10.8223 -10.1914 -10.8223 -8.63281C-10.8223 -8.63281 -25.0723 -8.63281 -25.0723 -8.63281C-25.0723 -8.63281 -24.2002 -15.8568 -22.4561 -18.6523C-20.712 -21.4479 -18.2442 -23.6064 -15.0528 -25.1279C-11.8614 -26.6494 -8.1257 -27.4102 -3.84575 -27.4102C0.582634 -27.4102 4.41727 -26.7051 7.65815 -25.2949C10.899 -23.8848 13.4039 -21.8994 15.1728 -19.3389C16.9417 -16.7783 17.8261 -13.7786 17.8261 -10.3398C17.8261 -8.21224 17.387 -6.10319 16.5087 -4.01269C15.6305 -1.9222 14.0533 0.397137 11.7773 2.94531C9.50125 5.49349 6.248 8.51172 2.01753 12C2.01753 12 -3.17778 16.3047 -3.17778 16.3047L-3.17778 16.6758L18.4199 16.6758L18.4199 28.625L-24.0332 28.625ZM45.8066 29.3672C41.5514 29.3672 37.7786 28.6188 34.4883 27.1221C31.1979 25.6253 28.6126 23.5534 26.7324 20.9062C24.8522 18.2591 23.8873 15.2161 23.8379 11.7773C23.8379 11.7773 38.459 11.7773 38.459 11.7773C38.459 11.7773 38.7929 14.14 39.4609 15.0801C40.1289 16.0202 41.0195 16.7438 42.1328 17.251C43.2461 17.7581 44.4707 18.0117 45.8066 18.0117C47.3405 18.0117 48.6826 17.6839 49.833 17.0283C50.9834 16.3727 51.8864 15.4512 52.542 14.2637C53.1976 13.0762 53.5254 11.6784 53.5254 10.0703C53.5254 8.4375 53.1976 7.02116 52.542 5.82129C51.8864 4.62142 50.9834 3.69369 49.833 3.03809C48.6826 2.38249 47.3405 2.05469 45.8066 2.05469C44.1985 2.05469 42.7327 2.43815 41.4091 3.20508C40.0856 3.97201 39.1022 5.02344 38.459 6.35938C38.459 6.35938 25.248 3.76172 25.248 3.76172L27.4004 -26.668L64.584 -26.668L64.584 -14.6445L39.7207 -14.6445L38.6816 -2.47266L38.9785 -2.47266C38.9785 -2.47266 41.3411 -5.54037 43.4687 -6.62891C45.5963 -7.71745 48.0579 -8.26172 50.8535 -8.26172C53.3027 -8.26172 55.5726 -7.82877 57.6631 -6.96289C59.7535 -6.097 61.5719 -4.86621 63.1181 -3.27051C64.6644 -1.6748 65.8642 0.217775 66.7177 2.40723C67.5713 4.59668 67.998 7.00261 67.998 9.625C67.998 13.4844 67.0826 16.8984 65.2519 19.8672C63.4212 22.8359 60.8421 25.1615 57.5146 26.8438C54.1871 28.526 50.2845 29.3672 45.8066 29.3672Z"></path>
  <clipPath id="cl_224">
    <path d="M407.072 245.829L381.286 220.951L382.967 219.209L408.752 244.087L407.072 245.829ZM404.914 242.178C403.215 243.939 401.343 245.042 399.297 245.488C397.252 245.934 395.163 245.768 393.029 244.989C390.896 244.21 388.837 242.864 386.852 240.949C384.868 239.035 383.448 237.025 382.594 234.921C381.739 232.817 381.498 230.735 381.871 228.675C382.243 226.615 383.279 224.704 384.978 222.943C386.061 221.821 387.214 220.972 388.438 220.396C389.661 219.821 390.918 219.506 392.207 219.451C393.496 219.396 394.785 219.607 396.073 220.084C397.362 220.562 398.612 221.292 399.824 222.275C399.824 222.275 395.609 228.548 395.609 228.548C395.609 228.548 394.493 227.794 393.981 227.552C393.468 227.31 392.986 227.157 392.534 227.095C392.082 227.032 391.666 227.065 391.286 227.194C390.906 227.322 390.562 227.546 390.254 227.865C389.759 228.378 389.503 228.99 389.484 229.701C389.467 230.413 389.709 231.212 390.212 232.099C390.715 232.986 391.497 233.941 392.559 234.965C393.609 235.978 394.592 236.726 395.508 237.208C396.424 237.69 397.245 237.918 397.973 237.891C398.7 237.864 399.311 237.594 399.806 237.082C400.114 236.762 400.323 236.408 400.432 236.018C400.541 235.628 400.555 235.203 400.476 234.743C400.396 234.283 400.217 233.793 399.939 233.273C399.661 232.752 399.291 232.213 398.828 231.654C398.828 231.654 404.929 227.2 404.929 227.2C404.929 227.2 406.787 229.656 407.322 230.937C407.856 232.219 408.127 233.508 408.135 234.804C408.143 236.101 407.878 237.373 407.342 238.622C406.806 239.87 405.997 241.055 404.914 242.178ZM417.56 234.958L412.541 230.116L412.366 214.366C412.366 214.366 412.294 212.381 412.2 211.543C412.106 210.705 411.911 209.943 411.616 209.256C411.32 208.57 410.867 207.931 410.256 207.341C409.598 206.707 408.921 206.283 408.225 206.069C407.529 205.855 406.856 205.832 406.205 205.998C405.555 206.164 404.968 206.518 404.445 207.06C403.923 207.602 403.593 208.204 403.456 208.866C403.318 209.527 403.388 210.211 403.665 210.917C403.942 211.623 404.443 212.327 405.17 213.028C405.17 213.028 399.793 218.601 399.793 218.601C399.793 218.601 396.753 215.01 396.108 213.07C395.462 211.13 395.387 209.194 395.882 207.261C396.376 205.328 397.431 203.525 399.046 201.851C400.717 200.119 402.493 198.937 404.373 198.303C406.254 197.67 408.125 197.584 409.987 198.044C411.848 198.505 413.581 199.508 415.184 201.055C416.177 202.013 416.994 203.133 417.638 204.417C418.281 205.702 418.768 207.362 419.097 209.399C419.427 211.435 419.607 214.066 419.637 217.29C419.637 217.29 419.684 221.258 419.684 221.258L419.857 221.425L428.007 212.978L433.579 218.355L417.56 234.958ZM444.259 207.978C442.654 209.642 440.881 210.781 438.942 211.394C437.002 212.007 435.06 212.086 433.116 211.631C431.172 211.175 429.389 210.183 427.767 208.655C427.767 208.655 433.284 202.937 433.284 202.937C433.284 202.937 434.512 203.869 435.202 204.031C435.893 204.193 436.566 204.17 437.223 203.963C437.879 203.756 438.46 203.391 438.964 202.868C439.543 202.268 439.896 201.596 440.025 200.851C440.153 200.106 440.064 199.339 439.758 198.548C439.451 197.757 438.923 197 438.173 196.276C437.412 195.542 436.628 195.033 435.821 194.749C435.014 194.466 434.24 194.402 433.5 194.557C432.761 194.712 432.101 195.089 431.523 195.689C430.916 196.318 430.542 197.064 430.4 197.926C430.258 198.789 430.377 199.647 430.757 200.499C430.757 200.499 424.561 204.497 424.561 204.497L411.183 189.964L425.214 175.422L430.821 180.832L421.439 190.556L426.723 196.438L426.835 196.322C426.835 196.322 426.296 194.018 426.591 192.696C426.886 191.374 427.561 190.167 428.616 189.073C429.54 188.115 430.599 187.423 431.791 186.995C432.984 186.566 434.244 186.409 435.572 186.522C436.899 186.636 438.235 187.018 439.578 187.669C440.921 188.32 442.204 189.236 443.427 190.416C445.226 192.152 446.473 194.046 447.167 196.098C447.86 198.15 447.972 200.205 447.501 202.263C447.029 204.321 445.949 206.226 444.259 207.978Z"></path>
  </clipPath>
  <g clip-path="url(#cl_224)">
    <path fill="#F2F1F1" transform="matrix(0.50992 -0.221023 0.315971 0.553665 432.139 242.206)" d="M-170.753 -28.5017L169.944 -28.5017L169.944 28.5017L-170.753 28.5017L-170.753 -28.5017Z"></path>
    <path fill="#F2F1F1" transform="matrix(0.50992 -0.221023 0.315971 0.553665 443.419 264.036)" d="M-170.753 -5.22019L169.944 -5.22019L169.944 5.22013L-170.753 5.22013L-170.753 -5.22019Z"></path>
  </g>
  <path fill="#8E8B8B" transform="matrix(0.449928 -0.466336 0.466336 0.449928 355.244 160.839)" d="M2.28882e-05 0C2.28882e-05 0 -15.2011 -7.62939e-06 -18.2664 7.62939e-06C-66.3551 1.3037 -126.35 32.2772 -126.35 128C-126.35 223.723 -55.9022 256 -19 256C-15.9347 256 3.05176e-05 256 1.52588e-05 256C-25.5438 256 -107.35 223.723 -107.35 128C-107.35 32.2772 -25.5438 -1.52588e-05 2.28882e-05 0Z"></path>
  <clipPath id="cl_226">
    <path d="M355.244 160.839C355.244 160.839 348.405 167.928 347.025 169.358C325.997 192.37 313.448 234.283 358.087 277.352C402.726 320.42 449.474 302.09 466.077 284.881C467.456 283.452 474.626 276.021 474.626 276.021C463.133 287.933 411.274 311.56 366.635 268.491C321.996 225.423 343.751 172.751 355.244 160.839Z"></path>
  </clipPath>
  <g clip-path="url(#cl_226)">
    <path fill="#ACABAB" transform="matrix(0.377342 -0.391103 0.466336 0.449928 409.652 276.542)" d="M-105.5 -40.8038L105 -40.8038L105 40.8039L-105.5 40.8039L-105.5 -40.8038Z"></path>
    <path fill="#D6D6D6" transform="matrix(0.377342 -0.391103 0.466336 0.449928 403.156 275.902)" d="M-105.5 -7.02946L105 -7.02945L105 7.02946L-105.5 7.02945L-105.5 -7.02946Z"></path>
    <path fill="#D6D6D6" transform="matrix(0.378415 -0.392215 0.465014 0.448652 398.587 240.041)" d="M-137.32 -30.4789L136.67 -30.4789L136.67 30.4789L-137.32 30.4789L-137.32 -30.4789Z"></path>
  </g>
  <path fill="#91A8EB" transform="matrix(0.606874 0.00990163 -0.00990163 0.606874 200.782 79.3792)" d="M0 -22.5C14.6355 -22.5 26.5 -12.3145 26.5 0.25C26.5 12.8145 14.6355 23 0 23C-14.6355 23 -26.5 12.8145 -26.5 0.25C-26.5 -12.3145 -14.6355 -22.5 0 -22.5Z"></path>
  <path fill="#91A8EB" transform="matrix(0.504938 0.00823846 -0.00823846 0.504938 185.331 90.0766)" d="M-4.23752e-08 -22.5C14.6355 -22.5 26.5 -12.3145 26.5 0.25C26.5 12.8145 14.6355 23 4.23752e-08 23C-14.6355 23 -26.5 12.8145 -26.5 0.25C-26.5 -12.3145 -14.6355 -22.5 -4.23752e-08 -22.5Z"></path>
  <path fill="#91A8EB" transform="matrix(0.274279 0.00447507 -0.00447507 0.274279 166.462 57.2901)" d="M0 -22.4261C14.2962 -22.4261 25.8855 -12.274 25.8855 0.249268C25.8855 12.7726 14.2962 22.9247 0 22.9247C-14.2962 22.9247 -25.8855 12.7726 -25.8855 0.249268C-25.8855 -12.274 -14.2962 -22.4261 0 -22.4261Z"></path>
  <path fill="#C1CBE8" transform="matrix(0.073816 -0.11483 0.26388 0.16963 162.655 54.6899)" d="M-6.10352e-05 -11.5C14.6355 -11.5 28.006 -7.98328 28.006 -1.63201C28.006 4.71926 15.5058 0.400185 0.870295 0.400186C-13.7652 0.400185 -26.7661 4.37689 -26.7661 -1.97439C-26.7661 -8.32566 -14.6356 -11.5 -6.10352e-05 -11.5Z"></path>
  <path fill="#C1CBE8" transform="matrix(-0.166841 -0.570472 0.880441 -0.257495 185.191 116.452)" d="M0 -11.5C14.6355 -11.5 28.0061 -7.98329 28.0061 -1.63201C28.0061 4.71926 15.5059 0.40018 0.870357 0.40018C-13.7652 0.400179 -26.766 4.37688 -26.766 -1.97439C-26.766 -8.32567 -14.6355 -11.5 0 -11.5Z"></path>
  <path fill="#1B2B56" transform="matrix(1.78669 -0.21848 0.065544 0.536007 241.885 88.9772)" d="M-9.31323e-09 -2.5C1.38071 -2.5 2.5 -1.38071 2.5 0C2.5 1.38071 1.38071 2.5 9.31323e-09 2.5C-1.38071 2.5 -2.5 1.38071 -2.5 0C-2.5 -1.38071 -1.38071 -2.5 -9.31323e-09 -2.5Z"></path>
  <path fill="none" stroke="#1B2B56" stroke-width="0.5" stroke-linecap="round" stroke-linejoin="round" transform="matrix(1.78289 -0.247598 0.247598 1.78289 250.529 87.8656)" d="M1.98548 0.277981L6.02909 0.184244"></path>
  <path fill="#1B2B56" transform="matrix(1.78669 -0.21848 0.065544 0.536007 270.472 85.4815)" d="M-1.91666e-06 -2.49997C1.38071 -2.49997 2.5 -1.38068 2.5 3.05176e-05C2.5 1.38074 1.38071 2.50003 -1.89804e-06 2.50003C-1.38071 2.50003 -2.5 1.38074 -2.5 3.05176e-05C-2.5 -1.38068 -1.38071 -2.49997 -1.91666e-06 -2.49997Z"></path>
  <path fill="#354B89" transform="matrix(1.46507 -0.885005 0.929571 0.72522 262.25 78.5494)" d="M7.62939e-06 -2.49998C1.38072 -2.49998 2.50001 -1.3807 2.50001 1.54078e-05C2.50001 1.38073 1.38072 2.50002 7.62939e-06 2.50002C-1.3807 2.50002 -2.49999 1.38073 -2.49999 1.51098e-05C-2.49999 -1.3807 -1.3807 -2.49998 7.62939e-06 -2.49998Z"></path>
  <path fill="#354B89" transform="matrix(2.16254 0.296937 -0.629837 1.0733 246.277 79.489)" d="M0 -2.98534C1.68306 -2.98534 3.04744 -1.64876 3.04744 -9.08208e-08C3.04744 1.64876 1.68306 2.98534 0 2.98534C-1.68306 2.98534 -3.04744 1.64876 -3.04744 9.08208e-08C-3.04744 -1.64876 -1.68306 -2.98534 0 -2.98534Z"></path>
  <path fill="none" stroke="white" stroke-width="5" stroke-linecap="round" stroke-linejoin="round" transform="matrix(1.5 0 0 1.5 158.539 362.24)" d=""></path>
</svg>