<?xml version="1.0" encoding="utf-8"?>
<svg xmlns="http://www.w3.org/2000/svg" xmlns:xlink="http://www.w3.org/1999/xlink" width="512" height="512">
  <path fill="none" stroke="black" stroke-width="7" stroke-linejoin="round" transform="matrix(1.8 3.72529e-09 -3.72529e-09 1.8 210.879 409.868)" d="M0.317585 -46.251C18.5418 -46.0446 31.0869 -38.646 30.9048 5.64317C31.2269 34.6589 23.8797 44.6777 13.3629 44.4096C2.84604 44.1416 -5.79298 44.2439 -16.1262 44.3244C-26.589 44.2253 -31.97 33.0858 -32.2918 4.05704C-32.3961 -42.4394 -17.9066 -46.4575 0.317585 -46.251Z"></path>
  <path fill="none" stroke="black" stroke-width="7" stroke-linejoin="round" transform="matrix(-2.15345 -3.29802e-07 -3.27096e-07 2.13577 356.081 273.696)" d="M28.4149 -58.4174C31.7845 -53.9225 37.9111 -38.7758 37.8683 -34.8484C37.8255 -30.921 42.2255 -22.0065 40.9457 2.3286C39.7298 31.1925 35.2966 54.2819 10.0324 53.3617C-5.82464 52.6827 -17.2974 28.7503 -16.0815 -0.113568C-14.5572 -36.3005 11.136 -64.6835 28.4149 -58.4174Z"></path>
  <path fill="none" stroke="black" stroke-width="7" stroke-linejoin="round" transform="matrix(1.79976 0.0293645 -0.0293645 1.79976 266.376 274.862)" d="M0.209625 -80.0966C37.3348 -80.0966 84.5 -60 84.5 9.53674e-07C84.5 41.1452 46.7396 76.2788 0.209625 76.2788C-62.1658 76.2788 -84 60.12 -84 9.53674e-07C-84 -71.2881 -50.5087 -80.0966 0.209625 -80.0966Z"></path>
  <path fill="none" stroke="black" stroke-width="7" stroke-linejoin="round" transform="matrix(1.53671 3.18039e-09 -3.72529e-09 1.8 308.979 398.168)" d="M1.57211 -47.9197C19.782 -48.5612 35.4754 -42.1993 37.6788 7.33963C38.731 21.1659 33.6046 45.0704 19.9307 45.3679C6.25701 45.6655 0.123352 45.7989 -12.0747 46.0644C-24.2728 46.3298 -27.2129 23.4889 -28.2651 9.6626C-30.8849 -42.0543 -16.6378 -47.2783 1.57211 -47.9197Z"></path>
  <path fill="#6C88D9" transform="matrix(-2.15345 -3.29802e-07 -3.27096e-07 2.13577 356.081 273.696)" d="M28.4149 -58.4174C31.7845 -53.9225 37.9111 -38.7758 37.8683 -34.8484C37.8255 -30.921 42.2255 -22.0065 40.9457 2.3286C39.7298 31.1925 35.2966 54.2819 10.0324 53.3617C-5.82464 52.6827 -17.2974 28.7503 -16.0815 -0.113568C-14.5572 -36.3005 11.136 -64.6835 28.4149 -58.4174Z"></path>
  <path fill="#5170C8" transform="matrix(1.53671 3.18039e-09 -3.72529e-09 1.8 308.979 398.168)" d="M1.57211 -47.9197C19.782 -48.5612 35.4754 -42.1993 37.6788 7.33963C38.731 21.1659 33.6046 45.0704 19.9307 45.3679C6.25701 45.6655 0.123352 45.7989 -12.0747 46.0644C-24.2728 46.3298 -27.2129 23.4889 -28.2651 9.6626C-30.8849 -42.0543 -16.6378 -47.2783 1.57211 -47.9197Z"></path>
  <path fill="#839BE0" transform="matrix(1.20328 2.49031e-09 -2.91698e-09 1.40944 308.979 398.168)" d="M2.62141 -48.502C20.8313 -49.1435 35.9774 -42.6787 38.5248 11.3445C38.8841 29.2768 30.6352 44.6398 16.9614 44.9374C3.28762 45.2349 3.46394 45.2816 -8.73416 45.5471C-20.9322 45.8125 -27.0598 31.5997 -27.4191 13.6674C-30.3829 -42.5337 -15.5885 -47.8606 2.62141 -48.502Z"></path>
  <path fill="#6C88D9" transform="matrix(1.8 3.72529e-09 -3.72529e-09 1.8 210.879 409.868)" d="M0.317585 -46.251C18.5418 -46.0446 31.0869 -38.646 30.9048 5.64317C31.2269 34.6589 23.8797 44.6777 13.3629 44.4096C2.84604 44.1416 -5.79298 44.2439 -16.1262 44.3244C-26.589 44.2253 -31.97 33.0858 -32.2918 4.05704C-32.3961 -42.4394 -17.9066 -46.4575 0.317585 -46.251Z"></path>
  <path fill="#91A8EB" transform="matrix(-1.67686 -2.56813e-07 -3.2026e-07 2.09114 352.092 267.983)" d="M33.1157 -51.9856C55.264 -51.2313 47.054 -26.6584 43.9063 1.85181C40.7587 30.362 27.6377 53.2896 12.1876 52.7634C-3.26246 52.2372 -14.1691 28.5635 -12.6494 -0.12944C-11.1296 -28.8224 10.9674 -52.74 33.1157 -51.9856Z"></path>
  <path fill="none" stroke="black" stroke-width="7" stroke-miterlimit="4" transform="matrix(1.79976 0.0293645 -0.0293645 1.79976 227.465 112.102)" d="M0 -29.5C19.0538 -29.5 34.5 -16.1805 34.5 0.250008C34.5 16.6805 19.0538 30 0 30C-19.0538 30 -34.5 16.6805 -34.5 0.250008C-34.5 -16.1805 -19.0538 -29.5 0 -29.5Z"></path>
  <path fill="#6C88D9" transform="matrix(1.79976 0.0293645 -0.0293645 1.79976 266.376 274.862)" d="M0.209625 -80.0966C37.3348 -80.0966 84.5 -60 84.5 9.53674e-07C84.5 41.1452 46.7396 76.2788 0.209625 76.2788C-62.1658 76.2788 -84 60.12 -84 9.53674e-07C-84 -71.2881 -50.5087 -80.0966 0.209625 -80.0966Z"></path>
  <path fill="none" stroke="black" stroke-width="9" stroke-miterlimit="4" transform="translate(256 256)" d="M-54.8449 -201.715C-40.0623 -201.474 -28.2472 -190.945 -28.4552 -178.197C-28.6632 -165.45 -40.8155 -155.312 -55.5981 -155.553C-70.3807 -155.794 -82.1957 -166.323 -81.9877 -179.071C-81.7798 -191.818 -69.6275 -201.956 -54.8449 -201.715Z"></path>
  <path fill="none" stroke="black" stroke-width="9" stroke-miterlimit="4" transform="translate(256 256)" d="M-70.3579 -186.803C-58.0583 -186.602 -48.2278 -177.841 -48.4009 -167.235C-48.5739 -156.629 -58.685 -148.194 -70.9846 -148.394C-83.2841 -148.595 -93.1146 -157.356 -92.9416 -167.962C-92.7685 -178.568 -82.6575 -187.003 -70.3579 -186.803Z"></path>
  <path fill="none" stroke="black" stroke-width="9" stroke-miterlimit="4" transform="translate(256 256)" d="M-90.365 -211.137C-83.684 -211.028 -78.3441 -206.269 -78.4381 -200.508C-78.5321 -194.746 -84.0244 -190.164 -90.7054 -190.273C-97.3864 -190.382 -102.726 -195.141 -102.632 -200.902C-102.538 -206.664 -97.046 -211.246 -90.365 -211.137Z"></path>
  <path fill="#6C88D9" transform="matrix(1.79976 0.0293645 -0.0293645 1.79976 227.465 112.102)" d="M0 -29.5C19.0538 -29.5 34.5 -16.1805 34.5 0.250008C34.5 16.6805 19.0538 30 0 30C-19.0538 30 -34.5 16.6805 -34.5 0.250008C-34.5 -16.1805 -19.0538 -29.5 0 -29.5Z"></path>
  <path fill="#6C88D9" transform="matrix(0.775834 0.0126583 -0.0126583 0.775834 200.782 77.1721)" d="M-7.62939e-06 -29.5C19.0538 -29.5 34.5 -16.1805 34.5 0.249985C34.5 16.6805 19.0538 30 -7.62939e-06 30C-19.0538 30 -34.5 16.6805 -34.5 0.249985C-34.5 -16.1805 -19.0538 -29.5 -7.62939e-06 -29.5Z"></path>
  <path fill="#6C88D9" transform="matrix(0.645518 0.0105321 -0.0105321 0.645518 185.331 88.2402)" d="M7.62939e-06 -29.5C19.0538 -29.5 34.5 -16.1805 34.5 0.249969C34.5 16.6804 19.0538 30 7.62939e-06 30C-19.0538 30 -34.5 16.6804 -34.5 0.249969C-34.5 -16.1805 -19.0538 -29.5 7.62939e-06 -29.5Z"></path>
  <path fill="#6C88D9" transform="matrix(0.35064 0.00572097 -0.00572097 0.35064 165.466 55.2073)" d="M0 -29.5001C19.0538 -29.5001 34.5 -16.1805 34.5 0.249939C34.5 16.6804 19.0538 29.9999 0 29.9999C-19.0538 29.9999 -34.5 16.6804 -34.5 0.249939C-34.5 -16.1805 -19.0538 -29.5001 0 -29.5001Z"></path>
  <path fill="#91A8EB" transform="matrix(1.50913 0.0246226 -0.0246226 1.50913 265.012 274.862)" d="M0.24998 -81.5196C49.8787 -81.2985 84.5 -60 84.5 -9.53674e-07C84.5 41.1452 46.78 74.5 0.25 74.5C-62.1254 74.5 -84 60.12 -84 -9.53674e-07C-84 -71.2881 -62.1254 -81.5196 0.24998 -81.5196Z"></path>
  <clipPath id="cl_189">
    <path d="M269.105 130.713C335.922 131.803 420.218 169.357 418.456 277.343C417.248 351.394 348.256 413.518 264.513 412.151C152.253 410.32 113.431 380.597 115.196 272.395C117.289 144.094 177.824 129.224 269.105 130.713Z"></path>
  </clipPath>
  <g clip-path="url(#cl_189)">
    <path fill="#A6B8EF" transform="matrix(0.805953 0.0131497 -0.0151654 0.929491 327.253 239.74)" d="M0.249972 -81.5196C49.8787 -81.2985 84.5 -60 84.5 1.90735e-06C84.5 41.1452 67.1354 74.5 20.6054 74.5C-41.77 74.5 -84 60.12 -84 1.90735e-06C-84 -71.2881 -62.1254 -81.5197 0.249972 -81.5196Z"></path>
    <path fill="#C1CBE8" transform="matrix(0.197995 -0.202726 0.445703 0.435301 350.353 190.891)" d="M11.5671 -77.0972C58.0971 -77.0972 97.5959 -41.1452 97.5959 -2.43388e-05C97.5959 41.1452 73.4188 83.0524 26.8888 83.0524C-35.4866 83.0524 11.8086 60.12 11.8086 -2.30604e-05C11.8086 -41.1452 -34.9629 -77.0972 11.5671 -77.0972Z"></path>
    <path fill="#C1CBE8" transform="matrix(0.197995 -0.202726 0.184201 0.179903 394.795 255.247)" d="M48.93 -79.7642C80.6762 -79.0529 77.4946 -42.8889 62.8507 4.00565C48.2069 50.9001 -0.03942 91.2963 -20.4536 67.777C-40.8678 44.2576 -16.8141 31.8032 -0.458991 -5.13881C15.8961 -42.0808 17.1838 -80.4755 48.93 -79.7642Z"></path>
  </g>
  <path fill="#91A8EB" transform="matrix(1.37947 2.85496e-09 -2.85496e-09 1.37947 210.879 346.868)" d="M0.256088 -0.702179C18.4803 -0.495773 32.0923 -1.13318 31.9576 50.3603C31.4951 75.8441 23.8484 90.3478 13.3316 90.0797C2.81476 89.8117 -5.82429 89.9141 -16.1575 89.9945C-26.5376 90.002 -33.9215 73.2298 -33.459 47.746C-33.6104 -5.95491 -17.9682 -0.908607 0.256088 -0.702179Z"></path>
  <path fill="#91A8EB" transform="matrix(1.79976 0.0293645 -0.0293645 1.79976 227.465 112.102)" d="M0 -22.5C14.6355 -22.5 26.5 -12.3145 26.5 0.250008C26.5 12.8145 14.6355 23 0 23C-14.6355 23 -26.5 12.8145 -26.5 0.250008C-26.5 -12.3145 -14.6355 -22.5 0 -22.5Z"></path>
  <path fill="none" stroke="black" stroke-width="7" stroke-linecap="round" stroke-linejoin="round" transform="matrix(2.15345 4.45679e-09 -4.42021e-09 2.13577 150.189 283.36)" d="M58.1845 -61.8524C64.2468 -63.2194 73.7807 -64.6847 88.7257 -63.3479C117.149 -60.2959 140.67 -50.1912 136.268 -25.0907C133.405 -9.3505 111.124 -3.23174 82.7343 -6.28017C60.3541 -7.99494 41.1402 -18.5274 31.9303 -30.4846"></path>
  <path fill="#6C88D9" transform="matrix(2.15345 4.45679e-09 -4.42021e-09 2.13577 150.189 283.36)" d="M26.9539 -50.2873C31.3702 -53.7398 46.3162 -60.1028 50.2116 -60.1079C54.1069 -60.113 64.0268 -65.5572 88.7257 -63.3479C117.149 -60.2959 140.67 -50.1912 136.268 -25.0907C133.405 -9.3505 111.124 -3.23174 82.7343 -6.28017C48.0381 -8.93859 20.952 -32.7898 26.9539 -50.2873Z"></path>
  <path fill="#91A8EB" transform="matrix(1.67686 3.47045e-09 -4.32784e-09 2.09114 154.179 277.647)" d="M38.4156 -47.891C39.0841 -65.6595 71.5397 -64.484 105.961 -57.2091C140.073 -49.669 170.031 -42.3321 168.821 -29.9697C167.612 -17.6073 138.581 -10.3435 102.83 -11.897C67.3859 -13.1485 37.7472 -30.1227 38.4156 -47.891Z"></path>
  <path fill="#312F2F" transform="matrix(0.317712 -0.440916 0.525731 0.378828 424.66 190.431)" d="M7.62939e-06 -128C70.6925 -128 128 -70.6925 128 0C128 70.6925 70.6924 128 -7.62939e-06 128C-70.6925 128 -128 70.6925 -128 0C-128 -70.6925 -70.6924 -128 7.62939e-06 -128Z"></path>
  <path fill="none" stroke="black" stroke-width="7" stroke-miterlimit="4" transform="translate(256 256)" d="M108.564 -124.048C131.024 -155.217 179.359 -158.775 216.524 -131.995C253.69 -105.215 265.611 -58.2373 243.151 -27.0678C220.691 4.10159 172.355 7.65971 135.19 -19.1206C98.0249 -45.9008 86.1038 -92.8783 108.564 -124.048Z"></path>
  <path fill="none" stroke="black" stroke-width="7" stroke-linejoin="round" transform="translate(256 256)" d="M108.564 -124.048C108.564 -124.048 102.805 -116.056 101.644 -114.445C84.1119 -88.669 77.6679 -45.3941 127.992 -9.13167C178.317 27.1308 221.974 2.32169 235.953 -17.079C237.114 -18.6904 243.151 -27.0678 243.151 -27.0678C242.825 -26.6156 242.456 -26.1437 242.044 -25.6554"></path>
  <path fill="#DEDEDE" transform="matrix(0.317712 -0.440916 0.525731 0.378828 431.857 180.442)" d="M7.62939e-06 -128C70.6925 -128 128 -70.6925 128 0C128 70.6925 70.6924 128 -7.62939e-06 128C-70.6925 128 -128 70.6925 -128 0C-128 -70.6925 -70.6924 -128 7.62939e-06 -128Z"></path>
  <clipPath id="cl_18c">
    <path d="M364.564 131.952C387.024 100.783 435.359 97.2247 472.524 124.005C509.69 150.785 521.611 197.763 499.151 228.932C476.691 260.102 428.355 263.66 391.19 236.879C354.025 210.099 342.104 163.122 364.564 131.952Z"></path>
  </clipPath>
  <g clip-path="url(#cl_18c)">
    <path fill="#F2F1F1" transform="matrix(0.47319 -0.291481 0.391696 0.502948 452.276 201.522)" d="M-170.753 -28.5017L169.944 -28.5017L169.944 28.5017L-170.753 28.5017L-170.753 -28.5017Z"></path>
    <path fill="#F2F1F1" transform="matrix(0.47319 -0.291481 0.391696 0.502948 466.554 221.52)" d="M-170.753 -5.22017L169.944 -5.22017L169.944 5.22016L-170.753 5.22016L-170.753 -5.22017Z"></path>
  </g>
  <path fill="#8B8B8B" transform="matrix(0.317712 -0.440916 0.525731 0.378828 433.397 177.197)" d="M0.250005 -87.5C51.4744 -87.5 93 -48.4368 93 -0.25C93 47.9368 51.4744 87 0.249995 87C-50.9744 87 -92.5 47.9368 -92.5 -0.25C-92.5 -48.4368 -50.9744 -87.5 0.250005 -87.5Z"></path>
  <path fill="#B0AFAF" transform="matrix(0.317712 -0.440916 0.525731 0.378828 431.857 180.442)" d="M5.126e-06 -86C47.4965 -86 86 -47.4965 86 0C86 47.4965 47.4965 86 -5.126e-06 86C-47.4965 86 -86 47.4965 -86 0C-86 -47.4965 -47.4965 -86 5.126e-06 -86Z"></path>
  <path fill="#8B8B8B" transform="matrix(0.317712 -0.440916 0.525731 0.378828 429.913 178.706)" d="M-52.3281 27.625L-52.3281 -27.668L-46.756 -30.4056L-46.7825 24.7561L-42.4192 24.6238L-47.1315 27.6684L-52.3281 27.625ZM-50.25 21.3164C-54.7526 21.3164 -58.6058 20.4196 -61.8096 18.626C-65.0133 16.8324 -67.4626 14.3337 -69.1572 11.1299C-70.8519 7.92611 -71.6992 4.19662 -71.6992 -0.0585938C-71.6992 -4.3138 -70.8519 -8.0433 -69.1572 -11.2471C-67.4626 -14.4508 -65.0133 -16.9495 -61.8096 -18.7432C-58.6058 -20.5368 -54.7526 -21.4336 -50.25 -21.4336C-47.3802 -21.4336 -44.7826 -21.0625 -42.457 -20.3203C-40.1315 -19.5781 -38.109 -18.5205 -36.3896 -17.1475C-34.6702 -15.7744 -27.78 -10.4693 -25.0591 -8.68546C-26.0599 -7.96244 -28.21 -6.9054 -30.3965 -5.66211C-30.3965 -5.66211 -44.0898 -3.62109 -44.0898 -3.62109C-44.0898 -3.62109 -44.5166 -5.6683 -44.8506 -6.49707C-45.1846 -7.32584 -45.599 -8.02474 -46.0938 -8.59375C-46.5885 -9.16276 -47.1637 -9.58952 -47.8193 -9.87402C-48.4749 -10.1585 -49.2109 -10.3008 -50.0273 -10.3008C-51.3385 -10.3008 -52.4766 -9.92969 -53.4414 -9.1875C-54.4062 -8.44531 -55.1546 -7.31966 -55.6865 -5.81055C-56.2184 -4.30143 -56.4844 -2.40885 -56.4844 -0.132812C-56.4844 2.11849 -56.2184 4.01107 -55.6865 5.54492C-55.1546 7.07878 -54.4062 8.23535 -53.4414 9.01465C-52.4766 9.79395 -51.3385 10.1836 -50.0273 10.1836C-49.2109 10.1836 -48.4749 10.0352 -47.8193 9.73828C-47.1637 9.44141 -46.5824 9.00228 -46.0752 8.4209C-45.568 7.83952 -45.8968 6.99338 -44.8135 6.25C-43.7302 5.50662 -38.8902 1.52308 -38.7417 0.409798C-38.7417 0.409798 -30.3965 5.28516 -30.3965 5.28516C-30.3965 5.28516 -31.2747 9.97949 -32.2891 11.9463C-33.3034 13.9131 -34.6641 15.5954 -36.3711 16.9932C-38.0781 18.3909 -40.1006 19.4609 -42.4385 20.2031C-44.7764 20.9453 -47.3802 21.3164 -50.25 21.3164ZM-24.5332 27.625L-24.5332 16.8633L-3.90039 -0.207047C-3.90039 -0.207047 -1.36458 -2.41505 -0.374998 -3.41701C0.614586 -4.41896 1.37533 -5.45184 1.90723 -6.51564C2.43913 -7.57944 2.70508 -8.76694 2.70508 -10.0781C2.70508 -11.4883 2.40202 -12.6944 1.7959 -13.6963C1.18978 -14.6983 0.361004 -15.4714 -0.690428 -16.0156C-1.74186 -16.5599 -2.96029 -16.832 -4.3457 -16.832C-5.73112 -16.832 -6.94954 -16.5537 -8.00097 -15.9971C-9.05241 -15.4404 -6.2922 -13.7058 -5.868 -12.6284C-7.10778 -11.907 -9.37628 -10.5827 -11.3223 -9.63283C-11.3223 -9.63283 -25.5723 -9.63283 -25.5723 -9.63283C-25.5723 -9.63283 -24.7002 -16.8568 -22.9561 -19.6524C-21.2119 -22.4479 -18.7441 -24.6065 -15.5527 -26.1279C-12.3613 -27.6494 -8.62565 -28.4102 -4.3457 -28.4102C0.0826855 -28.4102 3.91732 -27.7051 7.15821 -26.2949C10.3991 -24.8848 12.904 -22.8994 14.6729 -20.3389C16.4417 -17.7783 17.3262 -14.7787 17.3262 -11.3399C17.3262 -9.21226 16.887 -7.1032 16.0088 -5.01271C15.1305 -2.92222 13.5534 -0.60288 11.2773 1.9453C9.0013 4.49347 5.74805 7.5117 1.51758 11C1.51758 11 -3.67773 15.3047 -3.67773 15.3047L-3.67773 15.6758L17.9199 15.6758L23.3601 24.6526L17.9199 27.625L-24.5332 27.625ZM45.3066 28.3672C41.0514 28.3672 37.2786 27.6188 33.9883 26.1221C30.6979 24.6253 28.1126 22.5534 26.2324 19.9062C24.3522 17.2591 23.3874 14.2161 23.3379 10.7773C23.3379 10.7773 28.8025 7.82547 28.8025 7.82547L37.959 10.7773C37.959 10.7773 38.293 13.14 38.9609 14.0801C39.6289 15.0202 40.5195 15.7438 41.6328 16.251C42.7461 16.7581 43.9707 17.0117 45.3066 17.0117C46.8405 17.0117 48.1826 16.6839 49.333 16.0283C50.4834 15.3727 51.3864 14.4512 52.042 13.2637C52.6976 12.0762 53.0254 10.6784 53.0254 9.07031C53.0254 7.4375 52.6976 6.02116 52.042 4.82129C51.3864 3.62142 50.4834 2.69369 49.333 2.03809C48.1826 1.38249 46.8405 1.05469 45.3066 1.05469C43.6986 1.05469 43.4423 2.31534 43.4423 2.31534C43.4423 2.31534 38.6022 4.02344 37.959 5.35938C37.959 5.35938 24.748 2.76172 24.748 2.76172L26.9004 -27.668L32.366 -30.6324L64.084 -27.668L69.5014 -18.6129L64.084 -15.6445L39.2207 -15.6445L38.1816 -3.47266L38.4785 -3.47266C38.4785 -3.47266 40.8411 -6.54037 42.9688 -7.62891C45.0964 -8.71745 47.5579 -9.26172 50.3535 -9.26172C52.8027 -9.26172 55.0726 -8.82877 57.1631 -7.96289C59.2536 -7.097 61.0719 -5.86621 62.6182 -4.27051C64.1644 -2.6748 65.3643 -0.782227 66.2178 1.40723C67.0713 3.59668 67.498 6.0026 67.498 8.625C67.498 12.4844 66.5827 15.8984 64.752 18.8672C62.9212 21.8359 60.3421 24.1615 57.0146 25.8438C53.6872 27.526 49.7845 28.3672 45.3066 28.3672Z"></path>
  <path fill="#DEDEDE" transform="matrix(0.317712 -0.440916 0.525731 0.378828 429.399 174.987)" d="M-51.8282 28.625L-51.8282 -26.668L-47.375 -26.668L-47.375 28.625L-51.8282 28.625ZM-49.75 22.3164C-54.2526 22.3164 -58.1058 21.4196 -61.3096 19.626C-64.5134 17.8324 -66.9626 15.3337 -68.6573 12.1299C-70.3519 8.92611 -71.1993 5.19662 -71.1993 0.941406C-71.1993 -3.3138 -70.3519 -7.0433 -68.6573 -10.2471C-66.9626 -13.4508 -64.5134 -15.9495 -61.3096 -17.7432C-58.1058 -19.5368 -54.2526 -20.4336 -49.75 -20.4336C-46.8803 -20.4336 -44.2826 -20.0625 -41.9571 -19.3203C-39.6316 -18.5781 -37.6091 -17.5205 -35.8897 -16.1475C-34.1703 -14.7744 -32.8034 -13.1169 -31.7891 -11.1748C-30.7748 -9.23275 -30.1439 -7.06185 -29.8965 -4.66211C-29.8965 -4.66211 -43.5899 -2.62109 -43.5899 -2.62109C-43.5899 -2.62109 -44.0166 -4.6683 -44.3506 -5.49707C-44.6846 -6.32584 -45.099 -7.02474 -45.5938 -7.59375C-46.0886 -8.16276 -46.6638 -8.58952 -47.3194 -8.87402C-47.975 -9.15853 -48.711 -9.30078 -49.5274 -9.30078C-50.8386 -9.30078 -51.9766 -8.92969 -52.9415 -8.1875C-53.9063 -7.44531 -54.6547 -6.31966 -55.1866 -4.81055C-55.7185 -3.30143 -55.9844 -1.40885 -55.9844 0.867188C-55.9844 3.11849 -55.7185 5.01107 -55.1866 6.54492C-54.6547 8.07878 -53.9063 9.23535 -52.9415 10.0146C-51.9766 10.7939 -50.8386 11.1836 -49.5274 11.1836C-48.711 11.1836 -47.975 11.0352 -47.3194 10.7383C-46.6638 10.4414 -46.0824 10.0023 -45.5752 9.4209C-45.0681 8.83952 -44.6475 8.11588 -44.3135 7.25C-43.9795 6.38412 -43.7383 5.39453 -43.5899 4.28125C-43.5899 4.28125 -29.8965 6.28516 -29.8965 6.28516C-29.8965 6.28516 -30.7748 10.9795 -31.7891 12.9463C-32.8034 14.9131 -34.1641 16.5954 -35.8711 17.9932C-37.5782 19.3909 -39.6006 20.4609 -41.9385 21.2031C-44.2764 21.9453 -46.8803 22.3164 -49.75 22.3164ZM-24.0332 28.625L-24.0332 17.8633L-3.40039 0.792969C-3.40039 0.792969 -0.864582 -1.41504 0.125002 -2.41699C1.11459 -3.41895 1.87533 -4.45182 2.40723 -5.51562C2.93913 -6.57943 3.20508 -7.76693 3.20508 -9.07812C3.20508 -10.4883 2.90202 -11.6943 2.2959 -12.6963C1.68978 -13.6982 0.861004 -14.4714 -0.190428 -15.0156C-1.24186 -15.5599 -2.46029 -15.832 -3.8457 -15.832C-5.23112 -15.832 -6.44954 -15.5537 -7.50097 -14.9971C-8.55241 -14.4404 -9.36881 -13.6302 -9.95019 -12.5664C-10.5316 -11.5026 -10.8223 -10.1914 -10.8223 -8.63281C-10.8223 -8.63281 -25.0723 -8.63281 -25.0723 -8.63281C-25.0723 -8.63281 -24.2002 -15.8568 -22.4561 -18.6523C-20.7119 -21.4479 -18.2441 -23.6064 -15.0527 -25.1279C-11.8613 -26.6494 -8.12565 -27.4102 -3.8457 -27.4102C0.582685 -27.4102 4.41732 -26.7051 7.65821 -25.2949C10.8991 -23.8848 13.404 -21.8994 15.1729 -19.3389C16.9417 -16.7783 17.8262 -13.7786 17.8262 -10.3398C17.8262 -8.21224 17.387 -6.10319 16.5088 -4.0127C15.6305 -1.9222 14.0534 0.397135 11.7773 2.94531C9.5013 5.49349 6.24805 8.51172 2.01758 12C2.01758 12 -3.17773 16.3047 -3.17773 16.3047L-3.17773 16.6758L18.4199 16.6758L18.4199 28.625L-24.0332 28.625ZM45.8066 29.3672C41.5514 29.3672 37.7786 28.6188 34.4883 27.1221C31.1979 25.6253 28.6126 23.5534 26.7324 20.9062C24.8522 18.2591 23.8874 15.2161 23.8379 11.7773C23.8379 11.7773 38.459 11.7773 38.459 11.7773C38.459 11.7773 38.793 14.14 39.4609 15.0801C40.1289 16.0202 41.0195 16.7438 42.1328 17.251C43.2461 17.7581 44.4707 18.0117 45.8066 18.0117C47.3405 18.0117 48.6826 17.6839 49.833 17.0283C50.9834 16.3727 51.8864 15.4512 52.542 14.2637C53.1976 13.0762 53.5254 11.6784 53.5254 10.0703C53.5254 8.4375 53.1976 7.02116 52.542 5.82129C51.8864 4.62142 50.9834 3.69369 49.833 3.03809C48.6826 2.38249 47.3405 2.05469 45.8066 2.05469C44.1986 2.05469 42.7327 2.43815 41.4092 3.20508C40.0856 3.97201 39.1022 5.02344 38.459 6.35938C38.459 6.35938 25.248 3.76172 25.248 3.76172L27.4004 -26.668L64.584 -26.668L64.584 -14.6445L39.7207 -14.6445L38.6816 -2.47266L38.9785 -2.47266C38.9785 -2.47266 41.3411 -5.54037 43.4688 -6.62891C45.5964 -7.71745 48.0579 -8.26172 50.8535 -8.26172C53.3027 -8.26172 55.5726 -7.82877 57.6631 -6.96289C59.7536 -6.097 61.5719 -4.86621 63.1182 -3.27051C64.6644 -1.6748 65.8643 0.217773 66.7178 2.40723C67.5713 4.59668 67.998 7.0026 67.998 9.625C67.998 13.4844 67.0827 16.8984 65.252 19.8672C63.4212 22.8359 60.8421 25.1615 57.5146 26.8438C54.1872 28.526 50.2845 29.3672 45.8066 29.3672Z"></path>
  <clipPath id="cl_18e">
    <path d="M427.981 208.682L398.912 187.736L400.327 185.772L429.396 206.719L427.981 208.682ZM425.325 205.376C423.895 207.361 422.199 208.721 420.238 209.454C418.277 210.187 416.185 210.32 413.963 209.854C411.74 209.387 409.51 208.348 407.273 206.736C405.036 205.124 403.344 203.338 402.198 201.377C401.052 199.416 400.517 197.389 400.592 195.297C400.667 193.205 401.419 191.167 402.85 189.181C403.762 187.916 404.782 186.911 405.911 186.167C407.04 185.423 408.239 184.932 409.507 184.694C410.775 184.456 412.081 184.481 413.424 184.77C414.767 185.058 416.109 185.602 417.449 186.402C417.449 186.402 414.172 193.213 414.172 193.213C414.172 193.213 412.96 192.626 412.418 192.459C411.876 192.292 411.377 192.21 410.921 192.213C410.465 192.215 410.057 192.307 409.7 192.489C409.342 192.67 409.033 192.941 408.774 193.301C408.357 193.879 408.191 194.521 408.274 195.228C408.358 195.934 408.712 196.691 409.336 197.497C409.961 198.303 410.871 199.137 412.068 199.999C413.251 200.852 414.331 201.452 415.306 201.799C416.282 202.145 417.127 202.253 417.844 202.123C418.56 201.993 419.126 201.639 419.543 201.061C419.802 200.701 419.958 200.32 420.01 199.918C420.063 199.517 420.016 199.094 419.872 198.65C419.727 198.206 419.481 197.747 419.131 197.272C418.782 196.796 418.339 196.315 417.801 195.828C417.801 195.828 423.205 190.549 423.205 190.549C423.205 190.549 425.394 192.715 426.105 193.907C426.817 195.1 427.269 196.337 427.462 197.619C427.654 198.901 427.574 200.198 427.222 201.51C426.869 202.822 426.237 204.111 425.325 205.376ZM436.812 196.427L431.154 192.35L428.735 176.786C428.735 176.786 428.38 174.832 428.168 174.016C427.956 173.2 427.654 172.473 427.264 171.836C426.874 171.198 426.334 170.631 425.644 170.134C424.903 169.6 424.173 169.277 423.453 169.165C422.734 169.052 422.064 169.125 421.444 169.382C420.824 169.64 420.294 170.074 419.854 170.685C419.413 171.295 419.173 171.938 419.131 172.613C419.09 173.287 419.256 173.954 419.631 174.613C420.006 175.273 420.603 175.897 421.422 176.488C421.422 176.488 416.895 182.771 416.895 182.771C416.895 182.771 413.374 179.65 412.458 177.822C411.543 175.994 411.192 174.088 411.406 172.104C411.62 170.121 412.407 168.186 413.767 166.298C415.174 164.346 416.763 162.922 418.534 162.027C420.305 161.133 422.144 160.78 424.052 160.97C425.961 161.161 427.819 161.907 429.626 163.21C430.745 164.016 431.714 165.008 432.534 166.187C433.354 167.367 434.073 168.941 434.689 170.909C435.306 172.878 435.859 175.456 436.349 178.643C436.349 178.643 436.961 182.564 436.961 182.564L437.156 182.705L444.018 173.182L450.3 177.709L436.812 196.427ZM459.391 165.915C458.039 167.791 456.447 169.171 454.615 170.055C452.783 170.938 450.872 171.293 448.883 171.12C446.894 170.946 444.988 170.219 443.164 168.938C443.164 168.938 447.809 162.491 447.809 162.491C447.809 162.491 449.158 163.239 449.864 163.3C450.571 163.362 451.234 163.243 451.854 162.945C452.475 162.646 452.997 162.202 453.422 161.613C453.909 160.937 454.163 160.221 454.184 159.465C454.205 158.71 454.007 157.962 453.591 157.223C453.175 156.484 452.544 155.81 451.699 155.201C450.84 154.583 449.992 154.191 449.152 154.025C448.313 153.86 447.539 153.906 446.829 154.165C446.118 154.424 445.52 154.892 445.032 155.568C444.521 156.277 444.257 157.069 444.24 157.943C444.223 158.817 444.463 159.649 444.961 160.438C444.961 160.438 439.398 165.279 439.398 165.279L424.084 152.803L435.898 136.408L442.219 140.963L434.32 151.925L440.389 156.994L440.483 156.864C440.483 156.864 439.621 154.66 439.724 153.309C439.828 151.959 440.324 150.667 441.212 149.435C441.99 148.355 442.939 147.518 444.059 146.924C445.178 146.331 446.403 145.995 447.733 145.918C449.063 145.84 450.439 146.028 451.861 146.482C453.284 146.935 454.684 147.658 456.063 148.651C458.092 150.113 459.596 151.81 460.575 153.742C461.554 155.674 461.957 157.692 461.785 159.797C461.612 161.901 460.814 163.94 459.391 165.915Z"></path>
  </clipPath>
  <g clip-path="url(#cl_18e)">
    <path fill="#F2F1F1" transform="matrix(0.47319 -0.291481 0.391696 0.502948 452.276 201.522)" d="M-170.753 -28.5017L169.944 -28.5017L169.944 28.5017L-170.753 28.5017L-170.753 -28.5017Z"></path>
    <path fill="#F2F1F1" transform="matrix(0.47319 -0.291481 0.391696 0.502948 466.554 221.52)" d="M-170.753 -5.22017L169.944 -5.22017L169.944 5.22016L-170.753 5.22016L-170.753 -5.22017Z"></path>
  </g>
  <path fill="#8E8B8B" transform="matrix(0.378828 -0.525731 0.525731 0.378828 364.564 131.952)" d="M-1.52588e-05 1.52588e-05C-1.52588e-05 1.52588e-05 -15.2012 7.62939e-06 -18.2664 7.62939e-06C-66.3551 1.3037 -126.35 32.2772 -126.35 128C-126.35 223.723 -55.9022 256 -19 256C-15.9348 256 -3.05176e-05 256 -3.05176e-05 256C-25.5439 256 -107.35 223.723 -107.35 128C-107.35 32.2772 -25.5439 7.62939e-06 -1.52588e-05 1.52588e-05Z"></path>
  <clipPath id="cl_190">
    <path d="M364.564 131.952C364.564 131.952 358.805 139.944 357.644 141.555C340.112 167.331 333.668 210.606 383.992 246.868C434.317 283.131 477.974 258.322 491.953 238.921C493.114 237.31 499.151 228.932 499.151 228.932C489.474 242.361 441.515 273.142 391.19 236.879C340.866 200.617 354.887 145.381 364.564 131.952Z"></path>
  </clipPath>
  <g clip-path="url(#cl_190)">
    <path fill="#ACABAB" transform="matrix(0.317712 -0.440916 0.525731 0.378828 434.915 238.713)" d="M-105.5 -40.8039L105 -40.8039L105 40.8039L-105.5 40.8039L-105.5 -40.8039Z"></path>
    <path fill="#D6D6D6" transform="matrix(0.317712 -0.440916 0.525731 0.378828 428.394 239.007)" d="M-105.5 -7.02944L105 -7.02944L105 7.02947L-105.5 7.02947L-105.5 -7.02944Z"></path>
    <path fill="#D6D6D6" transform="matrix(0.318616 -0.44217 0.524241 0.377754 418.758 204.163)" d="M-137.32 -30.4789L136.67 -30.4789L136.67 30.4789L-137.32 30.4789L-137.32 -30.4789Z"></path>
  </g>
  <path fill="#91A8EB" transform="matrix(0.606874 0.00990163 -0.00990163 0.606874 200.782 79.3792)" d="M0 -22.5C14.6355 -22.5 26.5 -12.3145 26.5 0.25C26.5 12.8145 14.6355 23 0 23C-14.6355 23 -26.5 12.8145 -26.5 0.25C-26.5 -12.3145 -14.6355 -22.5 0 -22.5Z"></path>
  <path fill="#91A8EB" transform="matrix(0.504938 0.00823846 -0.00823846 0.504938 185.331 90.0766)" d="M-4.23752e-08 -22.5C14.6355 -22.5 26.5 -12.3145 26.5 0.25C26.5 12.8145 14.6355 23 4.23752e-08 23C-14.6355 23 -26.5 12.8145 -26.5 0.25C-26.5 -12.3145 -14.6355 -22.5 -4.23752e-08 -22.5Z"></path>
  <path fill="#91A8EB" transform="matrix(0.274279 0.00447507 -0.00447507 0.274279 166.462 57.2901)" d="M0 -22.4261C14.2962 -22.4261 25.8855 -12.274 25.8855 0.249268C25.8855 12.7726 14.2962 22.9247 0 22.9247C-14.2962 22.9247 -25.8855 12.7726 -25.8855 0.249268C-25.8855 -12.274 -14.2962 -22.4261 0 -22.4261Z"></path>
  <path fill="#C1CBE8" transform="matrix(0.073816 -0.11483 0.26388 0.16963 162.596 54.6899)" d="M-6.10352e-05 -11.4999C14.6355 -11.4999 28.006 -7.98322 28.006 -1.63195C28.006 4.71933 15.5058 0.400246 0.870295 0.400247C-13.7652 0.400246 -26.7661 4.37695 -26.7661 -1.97432C-26.7661 -8.3256 -14.6356 -11.4999 -6.10352e-05 -11.4999Z"></path>
  <path fill="#C1CBE8" transform="matrix(-0.166841 -0.570472 0.880441 -0.257495 185.132 116.452)" d="M-3.05176e-05 -11.5C14.6355 -11.5 28.0061 -7.98329 28.0061 -1.63201C28.0061 4.71926 15.5059 0.400182 0.870326 0.400182C-13.7652 0.400181 -26.7661 4.37688 -26.7661 -1.97439C-26.7661 -8.32566 -14.6356 -11.5 -3.05176e-05 -11.5Z"></path>
  <path fill="#1B2B56" transform="matrix(1.78669 -0.21848 0.065544 0.536007 244.835 88.9772)" d="M-4.8615e-07 -2.5C1.38071 -2.5 2.5 -1.38071 2.5 0C2.5 1.38071 1.38071 2.5 -4.67524e-07 2.5C-1.38071 2.5 -2.5 1.38071 -2.5 0C-2.5 -1.38071 -1.38071 -2.5 -4.8615e-07 -2.5Z"></path>
  <path fill="none" stroke="#1B2B56" stroke-width="0.5" stroke-linecap="round" stroke-linejoin="round" transform="matrix(1.78289 -0.247598 0.247598 1.78289 253.478 87.8656)" d="M1.98548 0.277981L6.02909 0.184244"></path>
  <path fill="#1B2B56" transform="matrix(1.78669 -0.21848 0.065544 0.536007 273.422 85.4815)" d="M-1.91666e-06 -2.49997C1.38071 -2.49997 2.5 -1.38068 2.5 3.05176e-05C2.5 1.38074 1.38071 2.50003 -1.89804e-06 2.50003C-1.38071 2.50003 -2.5 1.38074 -2.5 3.05176e-05C-2.5 -1.38068 -1.38071 -2.49997 -1.91666e-06 -2.49997Z"></path>
  <path fill="#354B89" transform="matrix(1.46507 -0.885005 0.929571 0.72522 265.199 78.5494)" d="M7.62939e-06 -2.5C1.38072 -2.5 2.50001 -1.38071 2.50001 1.49012e-07C2.50001 1.38071 1.38072 2.5 7.62939e-06 2.5C-1.3807 2.5 -2.49999 1.38071 -2.49999 -1.49012e-07C-2.49999 -1.38071 -1.3807 -2.5 7.62939e-06 -2.5Z"></path>
  <path fill="#354B89" transform="matrix(2.16254 0.296937 -0.629837 1.0733 249.227 79.489)" d="M0 -2.98534C1.68306 -2.98534 3.04744 -1.64876 3.04744 -9.08208e-08C3.04744 1.64876 1.68306 2.98534 0 2.98534C-1.68306 2.98534 -3.04744 1.64876 -3.04744 9.08208e-08C-3.04744 -1.64876 -1.68306 -2.98534 0 -2.98534Z"></path>
  <path fill="none" stroke="white" stroke-width="5" stroke-linecap="round" stroke-linejoin="round" transform="matrix(1.5 0 0 1.5 158.539 362.24)" d=""></path>
</svg>