<?xml version="1.0" encoding="utf-8"?>
<svg xmlns="http://www.w3.org/2000/svg" xmlns:xlink="http://www.w3.org/1999/xlink" width="512" height="512">
  <path fill="none" stroke="black" stroke-width="7" stroke-linejoin="round" transform="matrix(1.8 3.72529e-09 -3.72529e-09 1.8 210.879 409.868)" d="M0.317585 -46.251C18.5418 -46.0446 31.0869 -38.646 30.9048 5.64317C31.2269 34.6589 23.8797 44.6777 13.3629 44.4096C2.84604 44.1416 -5.79298 44.2439 -16.1262 44.3244C-26.589 44.2253 -31.97 33.0858 -32.2918 4.05704C-32.3961 -42.4394 -17.9066 -46.4575 0.317585 -46.251Z"></path>
  <path fill="none" stroke="black" stroke-width="7" stroke-linejoin="round" transform="matrix(-2.15345 -3.29802e-07 -3.27096e-07 2.13577 356.081 273.696)" d="M15.9758 -58.7232C19.3454 -54.2283 25.4721 -39.0816 25.4293 -35.1542C25.3865 -31.2268 29.7865 -22.3123 28.5067 2.02279C27.2908 30.8867 22.8576 53.9761 -2.40662 53.0559C-18.2637 52.3768 -29.7365 28.4445 -28.5206 -0.419379C-26.9963 -36.6063 -1.30304 -64.9893 15.9758 -58.7232Z"></path>
  <path fill="none" stroke="black" stroke-width="7" stroke-linejoin="round" transform="matrix(1.79976 0.0293645 -0.0293645 1.79976 266.376 274.862)" d="M0.209625 -80.0966C37.3348 -80.0966 84.5 -60 84.5 9.53674e-07C84.5 41.1452 46.7396 76.2788 0.209625 76.2788C-62.1658 76.2788 -84 60.12 -84 9.53674e-07C-84 -71.2881 -50.5087 -80.0966 0.209625 -80.0966Z"></path>
  <path fill="none" stroke="black" stroke-width="7" stroke-linejoin="round" transform="matrix(1.53671 3.18039e-09 -3.72529e-09 1.8 308.979 398.168)" d="M6.71274 -47.9948C24.9362 -48.2217 40.4253 -41.5049 41.0813 8.06653C41.7014 21.9119 35.8304 45.6912 22.1521 45.6775C8.47395 45.6638 2.33835 45.6576 -9.86371 45.6454C-22.0657 45.6331 -24.2916 22.7334 -24.9116 8.88799C-25.9159 -42.8701 -11.5107 -47.768 6.71274 -47.9948Z"></path>
  <path fill="#6C88D9" transform="matrix(-2.15345 -3.29802e-07 -3.27096e-07 2.13577 356.081 273.696)" d="M15.9758 -58.7232C19.3454 -54.2283 25.4721 -39.0816 25.4293 -35.1542C25.3865 -31.2268 29.7865 -22.3123 28.5067 2.02279C27.2908 30.8867 22.8576 53.9761 -2.40662 53.0559C-18.2637 52.3768 -29.7365 28.4445 -28.5206 -0.419379C-26.9963 -36.6063 -1.30304 -64.9893 15.9758 -58.7232Z"></path>
  <path fill="#5170C8" transform="matrix(1.53671 3.18039e-09 -3.72529e-09 1.8 308.979 398.168)" d="M6.71274 -47.9948C24.9362 -48.2217 40.4253 -41.5049 41.0813 8.06653C41.7014 21.9119 35.8304 45.6912 22.1521 45.6775C8.47395 45.6638 2.33835 45.6576 -9.86371 45.6454C-22.0657 45.6331 -24.2916 22.7334 -24.9116 8.88799C-25.9159 -42.8701 -11.5107 -47.768 6.71274 -47.9948Z"></path>
  <path fill="#839BE0" transform="matrix(1.20328 2.49031e-09 -2.91698e-09 1.40944 308.979 398.168)" d="M8.78988 -48.5885C27.0133 -48.8153 41.9522 -42.0081 42.812 12.0538C42.6113 29.9879 33.8855 45.1578 20.2073 45.1441C6.5291 45.1304 6.70395 45.1811 -5.49806 45.1688C-17.7001 45.1566 -23.3817 30.8093 -23.181 12.8753C-24.389 -43.3733 -9.4336 -48.3616 8.78988 -48.5885Z"></path>
  <path fill="#6C88D9" transform="matrix(1.8 3.72529e-09 -3.72529e-09 1.8 210.879 409.868)" d="M0.317585 -46.251C18.5418 -46.0446 31.0869 -38.646 30.9048 5.64317C31.2269 34.6589 23.8797 44.6777 13.3629 44.4096C2.84604 44.1416 -5.79298 44.2439 -16.1262 44.3244C-26.589 44.2253 -31.97 33.0858 -32.2918 4.05704C-32.3961 -42.4394 -17.9066 -46.4575 0.317585 -46.251Z"></path>
  <path fill="#91A8EB" transform="matrix(-1.67686 -2.56813e-07 -3.2026e-07 2.09114 352.092 267.983)" d="M17.1413 -52.2979C39.2896 -51.5436 31.0796 -26.9707 27.9319 1.53948C24.7843 30.0497 11.6633 52.9773 -3.78678 52.451C-19.2368 51.9248 -30.1435 28.2512 -28.6238 -0.441778C-27.104 -29.1347 -5.00694 -53.0523 17.1413 -52.2979Z"></path>
  <path fill="none" stroke="black" stroke-width="7" stroke-miterlimit="4" transform="matrix(1.79976 0.0293645 -0.0293645 1.79976 221.389 112.25)" d="M1.90735e-06 -29.5C19.0538 -29.5 34.5 -16.1805 34.5 0.250008C34.5 16.6805 19.0538 30 1.90735e-06 30C-19.0538 30 -34.5 16.6805 -34.5 0.250008C-34.5 -16.1805 -19.0538 -29.5 1.90735e-06 -29.5Z"></path>
  <path fill="#6C88D9" transform="matrix(1.79976 0.0293645 -0.0293645 1.79976 266.376 274.862)" d="M0.209625 -80.0966C37.3348 -80.0966 84.5 -60 84.5 9.53674e-07C84.5 41.1452 46.7396 76.2788 0.209625 76.2788C-62.1658 76.2788 -84 60.12 -84 9.53674e-07C-84 -71.2881 -50.5087 -80.0966 0.209625 -80.0966Z"></path>
  <path fill="none" stroke="black" stroke-width="9" stroke-miterlimit="4" transform="translate(256 256)" d="M-60.9205 -201.567C-46.1379 -201.326 -34.3229 -190.796 -34.5308 -178.049C-34.7388 -165.302 -46.8911 -155.164 -61.6737 -155.405C-76.4563 -155.646 -88.2713 -166.175 -88.0634 -178.923C-87.8554 -191.67 -75.7031 -201.808 -60.9205 -201.567Z"></path>
  <path fill="none" stroke="black" stroke-width="9" stroke-miterlimit="4" transform="translate(256 256)" d="M-76.4335 -186.654C-64.1339 -186.454 -54.3034 -177.693 -54.4765 -167.087C-54.6495 -156.481 -64.7606 -148.045 -77.0602 -148.246C-89.3598 -148.447 -99.1903 -157.207 -99.0172 -167.814C-98.8442 -178.42 -88.7331 -186.855 -76.4335 -186.654Z"></path>
  <path fill="none" stroke="black" stroke-width="9" stroke-miterlimit="4" transform="translate(256 256)" d="M-96.4406 -210.988C-89.7596 -210.879 -84.4197 -206.121 -84.5137 -200.359C-84.6077 -194.598 -90.1 -190.016 -96.781 -190.125C-103.462 -190.234 -108.802 -194.993 -108.708 -200.754C-108.614 -206.515 -103.122 -211.097 -96.4406 -210.988Z"></path>
  <path fill="#6C88D9" transform="matrix(1.79976 0.0293645 -0.0293645 1.79976 221.389 112.25)" d="M1.90735e-06 -29.5C19.0538 -29.5 34.5 -16.1805 34.5 0.250008C34.5 16.6805 19.0538 30 1.90735e-06 30C-19.0538 30 -34.5 16.6805 -34.5 0.250008C-34.5 -16.1805 -19.0538 -29.5 1.90735e-06 -29.5Z"></path>
  <path fill="#6C88D9" transform="matrix(0.775834 0.0126583 -0.0126583 0.775834 194.706 77.3202)" d="M0 -29.5C19.0538 -29.5 34.5 -16.1805 34.5 0.25C34.5 16.6805 19.0538 30 0 30C-19.0538 30 -34.5 16.6805 -34.5 0.25C-34.5 -16.1805 -19.0538 -29.5 0 -29.5Z"></path>
  <path fill="#6C88D9" transform="matrix(0.645518 0.0105321 -0.0105321 0.645518 179.256 88.3884)" d="M7.62939e-06 -29.5C19.0538 -29.5 34.5 -16.1804 34.5 0.250031C34.5 16.6805 19.0538 30 7.62939e-06 30C-19.0538 30 -34.5 16.6805 -34.5 0.250031C-34.5 -16.1804 -19.0538 -29.5 7.62939e-06 -29.5Z"></path>
  <path fill="#6C88D9" transform="matrix(0.35064 0.00572097 -0.00572097 0.35064 159.391 55.3555)" d="M-3.05176e-05 -29.5C19.0538 -29.5 34.5 -16.1805 34.5 0.25C34.5 16.6805 19.0538 30 -3.05176e-05 30C-19.0539 30 -34.5 16.6805 -34.5 0.25C-34.5 -16.1805 -19.0539 -29.5 -3.05176e-05 -29.5Z"></path>
  <path fill="#91A8EB" transform="matrix(1.50913 0.0246226 -0.0246226 1.50913 265.012 274.862)" d="M0.24998 -81.5196C49.8787 -81.2985 84.5 -60 84.5 -9.53674e-07C84.5 41.1452 46.78 74.5 0.25 74.5C-62.1254 74.5 -84 60.12 -84 -9.53674e-07C-84 -71.2881 -62.1254 -81.5196 0.24998 -81.5196Z"></path>
  <clipPath id="cl_111">
    <path d="M269.105 130.713C335.922 131.803 420.218 169.357 418.456 277.343C417.248 351.394 348.256 413.518 264.513 412.151C152.253 410.32 113.431 380.597 115.196 272.395C117.289 144.094 177.824 129.224 269.105 130.713Z"></path>
  </clipPath>
  <g clip-path="url(#cl_111)">
    <path fill="#A6B8EF" transform="matrix(0.805953 0.0131497 -0.0151654 0.929491 306.857 239.74)" d="M0.249976 -81.5196C49.8787 -81.2985 84.5 -60 84.5 1.90735e-06C84.5 41.1452 67.1354 74.5 20.6054 74.5C-41.77 74.5 -84 60.12 -84 1.90735e-06C-84 -71.2881 -62.1254 -81.5197 0.249976 -81.5196Z"></path>
    <path fill="#C1CBE8" transform="matrix(0.197995 -0.202726 0.445703 0.435301 329.957 190.891)" d="M11.5671 -77.0972C58.0971 -77.0972 97.5959 -41.1452 97.5959 -2.14777e-05C97.5959 41.1452 73.4188 83.0524 26.8888 83.0524C-35.4866 83.0524 11.8086 60.12 11.8086 -2.01994e-05C11.8086 -41.1452 -34.9629 -77.0972 11.5671 -77.0972Z"></path>
    <path fill="#C1CBE8" transform="matrix(0.197995 -0.202726 0.184201 0.179903 374.4 255.247)" d="M48.93 -79.7642C80.6763 -79.0529 77.4946 -42.8889 62.8508 4.00565C48.2069 50.9001 -0.0393895 91.2963 -20.4536 67.777C-40.8678 44.2576 -16.8141 31.8032 -0.458961 -5.13881C15.8962 -42.0808 17.1838 -80.4755 48.93 -79.7642Z"></path>
  </g>
  <path fill="#91A8EB" transform="matrix(1.37947 2.85496e-09 -2.85496e-09 1.37947 210.879 346.868)" d="M0.256088 -0.702179C18.4803 -0.495773 32.0923 -1.13318 31.9576 50.3603C31.4951 75.8441 23.8484 90.3478 13.3316 90.0797C2.81476 89.8117 -5.82429 89.9141 -16.1575 89.9945C-26.5376 90.002 -33.9215 73.2298 -33.459 47.746C-33.6104 -5.95491 -17.9682 -0.908607 0.256088 -0.702179Z"></path>
  <path fill="#91A8EB" transform="matrix(1.79976 0.0293645 -0.0293645 1.79976 221.389 112.25)" d="M1.90735e-06 -22.5C14.6355 -22.5 26.5 -12.3145 26.5 0.250008C26.5 12.8145 14.6355 23 1.90735e-06 23C-14.6355 23 -26.5 12.8145 -26.5 0.250008C-26.5 -12.3145 -14.6355 -22.5 1.90735e-06 -22.5Z"></path>
  <path fill="none" stroke="black" stroke-width="7" stroke-linecap="round" stroke-linejoin="round" transform="matrix(2.15345 4.45679e-09 -4.42021e-09 2.13577 150.189 283.36)" d="M21.2794 -31.1655C21.2672 -26.9771 21.9556 -21.1723 25.3221 -12.8098C40.6399 6.88668 65.6004 0.809076 56.0996 24.4305C50.0417 39.2217 1.57822 37.7509 -13.8756 17.8786C-26.0403 -5.37691 -20.126 -34.351 -9.41927 -49.8387"></path>
  <path fill="#6C88D9" transform="matrix(2.15345 4.45679e-09 -4.42021e-09 2.13577 150.189 283.36)" d="M7.89893 -60.6864C12.0431 -56.9065 20.8721 -43.1829 21.5588 -39.3168C22.2455 -35.4507 18.8791 -28.8146 25.3221 -12.8098C40.6399 6.88668 65.6004 0.809076 56.0996 24.4305C50.0417 39.2217 1.57822 37.7509 -13.8756 17.8786C-31.8982 -16.5758 -10.2376 -63.5824 7.89893 -60.6864Z"></path>
  <path fill="#91A8EB" transform="matrix(1.67686 3.47045e-09 -4.32784e-09 2.09114 154.179 277.647)" d="M7.9406 -54.241C29.8738 -56.8228 18.4629 -31.093 22.5568 -9.9307C36.7714 11.1011 72.1938 8.24129 67.7933 20.129C63.3927 32.0167 6.09174 33.3503 -13.6185 15.0172C-32.0399 -11.9629 -13.9926 -51.6592 7.9406 -54.241Z"></path>
  <path fill="#312F2F" transform="matrix(0.402738 -0.364897 0.435089 0.48021 260.65 293.103)" d="M7.62939e-06 -128C70.6925 -128 128 -70.6924 128 3.8147e-06C128 70.6925 70.6924 128 -7.62939e-06 128C-70.6925 128 -128 70.6924 -128 -3.8147e-06C-128 -70.6925 -70.6924 -128 7.62939e-06 -128Z"></path>
  <path fill="none" stroke="black" stroke-width="7" stroke-miterlimit="4" transform="translate(256 256)" d="M-41.9179 -32.6304C-13.4473 -58.4258 34.5666 -51.8176 65.3241 -17.8704C96.0816 16.0768 97.9356 64.5078 69.465 90.3033C40.9945 116.099 -7.01939 109.491 -37.7769 75.5433C-68.5345 41.5961 -70.3884 -6.83488 -41.9179 -32.6304Z"></path>
  <path fill="none" stroke="black" stroke-width="7" stroke-linejoin="round" transform="translate(256 256)" d="M-41.9179 -32.6304C-41.9179 -32.6304 -49.2176 -26.0165 -50.6896 -24.6829C-73.215 -3.13394 -88.5489 37.843 -46.9009 83.81C-5.25293 129.777 42.6202 114.626 60.341 98.57C61.813 97.2363 69.465 90.3033 69.465 90.3033C69.0519 90.6776 68.5923 91.062 68.0881 91.4538"></path>
  <path fill="#DEDEDE" transform="matrix(0.402738 -0.364897 0.435089 0.48021 269.774 284.836)" d="M7.62939e-06 -128C70.6925 -128 128 -70.6924 128 3.8147e-06C128 70.6925 70.6924 128 -7.62939e-06 128C-70.6925 128 -128 70.6924 -128 -3.8147e-06C-128 -70.6925 -70.6924 -128 7.62939e-06 -128Z"></path>
  <clipPath id="cl_114">
    <path d="M214.082 223.37C242.553 197.574 290.567 204.182 321.324 238.13C352.082 272.077 353.936 320.508 325.465 346.303C296.994 372.099 248.981 365.491 218.223 331.543C187.466 297.596 185.612 249.165 214.082 223.37Z"></path>
  </clipPath>
  <g clip-path="url(#cl_114)">
    <path fill="#F2F1F1" transform="matrix(0.523603 -0.186303 0.278101 0.573622 285.343 309.714)" d="M-170.753 -28.5017L169.944 -28.5017L169.944 28.5017L-170.753 28.5017L-170.753 -28.5017Z"></path>
    <path fill="#F2F1F1" transform="matrix(0.523603 -0.186303 0.278101 0.573622 295.133 332.251)" d="M-170.753 -5.22017L169.944 -5.22016L169.944 5.22017L-170.753 5.22016L-170.753 -5.22017Z"></path>
  </g>
  <path fill="#8B8B8B" transform="matrix(0.402738 -0.364897 0.435089 0.48021 271.956 281.984)" d="M0.250003 -87.5C51.4744 -87.5 93 -48.4368 93 -0.249997C93 47.9369 51.4744 87 0.249993 87C-50.9744 87 -92.5 47.9368 -92.5 -0.250003C-92.5 -48.4369 -50.9744 -87.5 0.250003 -87.5Z"></path>
  <path fill="#B0AFAF" transform="matrix(0.402738 -0.364897 0.435089 0.48021 269.774 284.836)" d="M5.126e-06 -86C47.4965 -86 86 -47.4965 86 2.563e-06C86 47.4965 47.4965 86 -5.126e-06 86C-47.4965 86 -86 47.4965 -86 -2.563e-06C-86 -47.4965 -47.4965 -86 5.126e-06 -86Z"></path>
  <path fill="#8B8B8B" transform="matrix(0.402738 -0.364897 0.435089 0.48021 268.235 282.733)" d="M-52.3281 27.625L-52.3281 -27.668L-46.756 -30.4055L-46.7826 24.7561L-42.4192 24.6238L-47.1315 27.6684L-52.3281 27.625ZM-50.25 21.3164C-54.7526 21.3164 -58.6058 20.4196 -61.8096 18.626C-65.0134 16.8324 -67.4626 14.3337 -69.1572 11.1299C-70.8519 7.92612 -71.6992 4.19662 -71.6992 -0.0585861C-71.6992 -4.3138 -70.8519 -8.04329 -69.1572 -11.2471C-67.4626 -14.4508 -65.0134 -16.9495 -61.8096 -18.7432C-58.6058 -20.5368 -54.7526 -21.4336 -50.25 -21.4336C-47.3802 -21.4336 -44.7826 -21.0625 -42.457 -20.3203C-40.1315 -19.5781 -38.1091 -18.5205 -36.3897 -17.1475C-34.6703 -15.7744 -27.7801 -10.4693 -25.0591 -8.68545C-26.0599 -7.96243 -28.21 -6.90539 -30.3965 -5.6621C-30.3965 -5.6621 -44.0899 -3.62109 -44.0899 -3.62109C-44.0899 -3.62109 -44.5166 -5.66829 -44.8506 -6.49706C-45.1846 -7.32584 -45.599 -8.02473 -46.0938 -8.59374C-46.5886 -9.16275 -47.1637 -9.58951 -47.8194 -9.87402C-48.475 -10.1585 -49.211 -10.3008 -50.0274 -10.3008C-51.3386 -10.3008 -52.4766 -9.92968 -53.4414 -9.18749C-54.4063 -8.4453 -55.1546 -7.31966 -55.6865 -5.81054C-56.2184 -4.30142 -56.4844 -2.40885 -56.4844 -0.132805C-56.4844 2.1185 -56.2184 4.01108 -55.6865 5.54493C-55.1546 7.07878 -54.4063 8.23536 -53.4414 9.01466C-52.4766 9.79395 -51.3386 10.1836 -50.0274 10.1836C-49.211 10.1836 -48.475 10.0352 -47.8194 9.73829C-47.1637 9.44141 -46.5824 9.00229 -46.0752 8.42091C-45.568 7.83953 -45.8968 6.99338 -44.8135 6.25001C-43.7302 5.50663 -38.8902 1.52309 -38.7417 0.409807C-38.7417 0.409807 -30.3965 5.28517 -30.3965 5.28517C-30.3965 5.28517 -31.2748 9.9795 -32.2891 11.9463C-33.3034 13.9131 -34.6641 15.5954 -36.3711 16.9932C-38.0781 18.391 -40.1006 19.4609 -42.4385 20.2031C-44.7764 20.9453 -47.3802 21.3164 -50.25 21.3164ZM-24.5332 27.625L-24.5332 16.8633L-3.9004 -0.207031C-3.9004 -0.207031 -1.36459 -2.41504 -0.375006 -3.41699C0.614578 -4.41895 1.37532 -5.45182 1.90722 -6.51562C2.43912 -7.57943 2.70507 -8.76693 2.70507 -10.0781C2.70507 -11.4883 2.40201 -12.6943 1.79589 -13.6963C1.18977 -14.6982 0.360996 -15.4714 -0.690435 -16.0156C-1.74187 -16.5599 -2.96029 -16.832 -4.34571 -16.832C-5.73112 -16.832 -6.94955 -16.5537 -8.00098 -15.9971C-9.05241 -15.4404 -6.29221 -13.7058 -5.86801 -12.6284C-7.10779 -11.907 -9.37628 -10.5827 -11.3223 -9.63281C-11.3223 -9.63281 -25.5723 -9.63281 -25.5723 -9.63281C-25.5723 -9.63281 -24.7002 -16.8568 -22.9561 -19.6523C-21.2119 -22.4479 -18.7441 -24.6064 -15.5527 -26.1279C-12.3613 -27.6494 -8.62565 -28.4102 -4.34571 -28.4102C0.0826778 -28.4102 3.91732 -27.7051 7.1582 -26.2949C10.3991 -24.8848 12.904 -22.8994 14.6728 -20.3389C16.4417 -17.7783 17.3262 -14.7786 17.3262 -11.3398C17.3262 -9.21224 16.887 -7.10319 16.0088 -5.01269C15.1305 -2.9222 13.5534 -0.602863 11.2773 1.94531C9.0013 4.49349 5.74804 7.51172 1.51757 11C1.51757 11 -3.67774 15.3047 -3.67774 15.3047L-3.67774 15.6758L17.9199 15.6758L23.3601 24.6527L17.9199 27.625L-24.5332 27.625ZM45.3066 28.3672C41.0514 28.3672 37.2786 27.6188 33.9883 26.1221C30.6979 24.6253 28.1126 22.5534 26.2324 19.9062C24.3522 17.2591 23.3874 14.2161 23.3379 10.7773C23.3379 10.7773 28.8025 7.82547 28.8025 7.82547L37.959 10.7773C37.959 10.7773 38.293 13.14 38.9609 14.0801C39.6289 15.0202 40.5195 15.7438 41.6328 16.251C42.7461 16.7581 43.9707 17.0117 45.3066 17.0117C46.8405 17.0117 48.1826 16.6839 49.333 16.0283C50.4834 15.3727 51.3864 14.4512 52.042 13.2637C52.6976 12.0762 53.0254 10.6784 53.0254 9.07031C53.0254 7.4375 52.6976 6.02116 52.042 4.82129C51.3864 3.62142 50.4834 2.69369 49.333 2.03809C48.1826 1.38249 46.8405 1.05469 45.3066 1.05469C43.6986 1.05469 43.4422 2.31534 43.4422 2.31534C43.4422 2.31534 38.6022 4.02344 37.959 5.35938C37.959 5.35938 24.748 2.76172 24.748 2.76172L26.9004 -27.668L32.366 -30.6324L64.084 -27.668L69.5014 -18.6128L64.084 -15.6445L39.2207 -15.6445L38.1816 -3.47266L38.4785 -3.47266C38.4785 -3.47266 40.8411 -6.54037 42.9687 -7.62891C45.0963 -8.71745 47.5579 -9.26172 50.3535 -9.26172C52.8027 -9.26172 55.0726 -8.82877 57.1631 -7.96289C59.2536 -7.097 61.0719 -5.86621 62.6182 -4.27051C64.1644 -2.6748 65.3643 -0.782225 66.2178 1.40723C67.0713 3.59668 67.498 6.00261 67.498 8.625C67.498 12.4844 66.5827 15.8984 64.7519 18.8672C62.9212 21.8359 60.3421 24.1615 57.0146 25.8438C53.6872 27.526 49.7845 28.3672 45.3066 28.3672Z"></path>
  <path fill="#DEDEDE" transform="matrix(0.402738 -0.364897 0.435089 0.48021 268.508 278.988)" d="M-51.8282 28.625L-51.8282 -26.668L-47.375 -26.668L-47.375 28.625L-51.8282 28.625ZM-49.75 22.3164C-54.2526 22.3164 -58.1058 21.4196 -61.3096 19.626C-64.5134 17.8324 -66.9626 15.3337 -68.6573 12.1299C-70.3519 8.92611 -71.1993 5.19662 -71.1993 0.94141C-71.1993 -3.3138 -70.3519 -7.04329 -68.6573 -10.2471C-66.9626 -13.4508 -64.5134 -15.9495 -61.3096 -17.7432C-58.1058 -19.5368 -54.2526 -20.4336 -49.75 -20.4336C-46.8802 -20.4336 -44.2826 -20.0625 -41.9571 -19.3203C-39.6315 -18.5781 -37.6091 -17.5205 -35.8897 -16.1475C-34.1703 -14.7744 -32.8034 -13.1169 -31.7891 -11.1748C-30.7748 -9.23274 -30.1439 -7.06185 -29.8965 -4.6621C-29.8965 -4.6621 -43.5899 -2.62109 -43.5899 -2.62109C-43.5899 -2.62109 -44.0166 -4.66829 -44.3506 -5.49707C-44.6846 -6.32584 -45.099 -7.02474 -45.5938 -7.59375C-46.0886 -8.16275 -46.6638 -8.58951 -47.3194 -8.87402C-47.975 -9.15853 -48.711 -9.30078 -49.5274 -9.30078C-50.8386 -9.30078 -51.9766 -8.92968 -52.9414 -8.1875C-53.9063 -7.44531 -54.6547 -6.31966 -55.1866 -4.81054C-55.7185 -3.30143 -55.9844 -1.40885 -55.9844 0.867191C-55.9844 3.11849 -55.7185 5.01107 -55.1866 6.54493C-54.6547 8.07878 -53.9063 9.23536 -52.9414 10.0147C-51.9766 10.7939 -50.8386 11.1836 -49.5274 11.1836C-48.711 11.1836 -47.975 11.0352 -47.3194 10.7383C-46.6638 10.4414 -46.0824 10.0023 -45.5752 9.4209C-45.0681 8.83952 -44.6475 8.11589 -44.3135 7.25C-43.9795 6.38412 -43.7383 5.39454 -43.5899 4.28125C-43.5899 4.28125 -29.8965 6.28516 -29.8965 6.28516C-29.8965 6.28516 -30.7748 10.9795 -31.7891 12.9463C-32.8034 14.9131 -34.1641 16.5954 -35.8711 17.9932C-37.5782 19.391 -39.6006 20.4609 -41.9385 21.2031C-44.2764 21.9453 -46.8802 22.3164 -49.75 22.3164ZM-24.0332 28.625L-24.0332 17.8633L-3.4004 0.792973C-3.4004 0.792973 -0.864597 -1.41504 0.124987 -2.41699C1.11457 -3.41894 1.87531 -4.45182 2.40721 -5.51562C2.93911 -6.57943 3.20506 -7.76693 3.20506 -9.07812C3.20506 -10.4883 2.902 -11.6943 2.29589 -12.6963C1.68977 -13.6982 0.860989 -14.4714 -0.190443 -15.0156C-1.24187 -15.5599 -2.4603 -15.832 -3.84572 -15.832C-5.23113 -15.832 -6.44956 -15.5537 -7.50099 -14.9971C-8.55242 -14.4404 -9.36883 -13.6302 -9.95021 -12.5664C-10.5316 -11.5026 -10.8223 -10.1914 -10.8223 -8.63281C-10.8223 -8.63281 -25.0723 -8.63281 -25.0723 -8.63281C-25.0723 -8.63281 -24.2002 -15.8568 -22.4561 -18.6523C-20.7119 -21.4479 -18.2442 -23.6064 -15.0527 -25.1279C-11.8613 -26.6494 -8.12566 -27.4102 -3.84571 -27.4102C0.58267 -27.4102 4.41731 -26.7051 7.65819 -25.2949C10.8991 -23.8848 13.404 -21.8994 15.1728 -19.3389C16.9417 -16.7783 17.8262 -13.7786 17.8262 -10.3398C17.8262 -8.21224 17.387 -6.10318 16.5088 -4.01269C15.6305 -1.9222 14.0534 0.397141 11.7773 2.94532C9.50129 5.4935 6.24803 8.51172 2.01756 12C2.01756 12 -3.17775 16.3047 -3.17775 16.3047L-3.17775 16.6758L18.4199 16.6758L18.4199 28.625L-24.0332 28.625ZM45.8066 29.3672C41.5514 29.3672 37.7786 28.6188 34.4883 27.1221C31.1979 25.6253 28.6126 23.5534 26.7324 20.9063C24.8522 18.2591 23.8874 15.2162 23.8379 11.7773C23.8379 11.7773 38.459 11.7773 38.459 11.7773C38.459 11.7773 38.793 14.14 39.4609 15.0801C40.1289 16.0202 41.0195 16.7438 42.1328 17.251C43.2461 17.7581 44.4707 18.0117 45.8066 18.0117C47.3405 18.0117 48.6826 17.6839 49.833 17.0283C50.9834 16.3727 51.8864 15.4512 52.542 14.2637C53.1976 13.0762 53.5254 11.6784 53.5254 10.0703C53.5254 8.43751 53.1976 7.02116 52.542 5.82129C51.8864 4.62142 50.9834 3.69369 49.833 3.03809C48.6826 2.38249 47.3405 2.05469 45.8066 2.05469C44.1986 2.05469 42.7327 2.43815 41.4092 3.20508C40.0856 3.97201 39.1022 5.02344 38.459 6.35938C38.459 6.35938 25.248 3.76172 25.248 3.76172L27.4004 -26.668L64.584 -26.668L64.584 -14.6445L39.7207 -14.6445L38.6816 -2.47265L38.9785 -2.47265C38.9785 -2.47265 41.3411 -5.54036 43.4688 -6.6289C45.5964 -7.71744 48.0579 -8.26171 50.8535 -8.26171C53.3027 -8.26171 55.5726 -7.82877 57.6631 -6.96288C59.7536 -6.097 61.5719 -4.86621 63.1182 -3.2705C64.6644 -1.6748 65.8643 0.217779 66.7178 2.40723C67.5713 4.59669 67.998 7.00261 67.998 9.62501C67.998 13.4844 67.0827 16.8984 65.252 19.8672C63.4212 22.8359 60.8421 25.1615 57.5146 26.8438C54.1872 28.526 50.2845 29.3672 45.8066 29.3672Z"></path>
  <clipPath id="cl_116">
    <path d="M260.089 311.646L236.032 285.094L237.825 283.469L261.883 310.021L260.089 311.646ZM258.181 307.858C256.368 309.501 254.426 310.476 252.355 310.784C250.285 311.092 248.211 310.786 246.135 309.866C244.058 308.945 242.094 307.464 240.243 305.42C238.391 303.377 237.11 301.277 236.399 299.12C235.687 296.963 235.586 294.869 236.096 292.839C236.606 290.809 237.768 288.972 239.581 287.329C240.737 286.282 241.945 285.512 243.204 285.02C244.464 284.528 245.738 284.298 247.028 284.33C248.318 284.362 249.59 284.659 250.843 285.221C252.097 285.784 253.295 286.596 254.439 287.658C254.439 287.658 249.812 293.635 249.812 293.635C249.812 293.635 248.75 292.808 248.255 292.532C247.759 292.255 247.288 292.071 246.842 291.978C246.395 291.886 245.977 291.891 245.59 291.993C245.202 292.096 244.843 292.296 244.515 292.594C243.987 293.072 243.69 293.666 243.624 294.374C243.558 295.083 243.747 295.896 244.189 296.815C244.632 297.734 245.348 298.74 246.338 299.833C247.318 300.914 248.248 301.726 249.13 302.268C250.011 302.811 250.816 303.093 251.544 303.115C252.271 303.137 252.899 302.909 253.427 302.431C253.756 302.133 253.988 301.793 254.123 301.411C254.258 301.029 254.301 300.606 254.252 300.142C254.203 299.678 254.058 299.177 253.816 298.639C253.573 298.102 253.24 297.538 252.815 296.95C252.815 296.95 259.202 292.915 259.202 292.915C259.202 292.915 260.891 295.49 261.338 296.805C261.785 298.119 261.969 299.423 261.89 300.718C261.811 302.012 261.462 303.264 260.843 304.473C260.224 305.683 259.337 306.811 258.181 307.858ZM271.283 301.504L266.601 296.336L267.483 280.609C267.483 280.609 267.544 278.624 267.507 277.782C267.469 276.939 267.326 276.166 267.078 275.461C266.829 274.756 266.419 274.089 265.849 273.459C265.235 272.782 264.589 272.313 263.909 272.053C263.229 271.793 262.558 271.724 261.898 271.847C261.238 271.969 260.629 272.283 260.071 272.788C259.513 273.294 259.143 273.872 258.962 274.523C258.781 275.174 258.804 275.861 259.033 276.584C259.262 277.307 259.715 278.043 260.393 278.791C260.393 278.791 254.654 283.991 254.654 283.991C254.654 283.991 251.862 280.204 251.349 278.225C250.835 276.246 250.889 274.309 251.513 272.414C252.136 270.519 253.31 268.79 255.033 267.229C256.817 265.613 258.668 264.552 260.587 264.047C262.505 263.541 264.378 263.58 266.204 264.165C268.031 264.749 269.692 265.867 271.188 267.518C272.114 268.54 272.855 269.713 273.411 271.037C273.967 272.361 274.341 274.051 274.533 276.105C274.725 278.159 274.728 280.795 274.542 284.014C274.542 284.014 274.322 287.977 274.322 287.977L274.484 288.155L283.182 280.274L288.381 286.012L271.283 301.504ZM299.733 276.376C298.02 277.928 296.175 278.946 294.198 279.427C292.222 279.909 290.279 279.858 288.37 279.273C286.461 278.688 284.749 277.578 283.233 275.945C283.233 275.945 289.121 270.61 289.121 270.61C289.121 270.61 290.284 271.623 290.962 271.83C291.64 272.038 292.313 272.06 292.982 271.898C293.651 271.735 294.255 271.41 294.793 270.923C295.41 270.363 295.808 269.716 295.986 268.981C296.164 268.246 296.127 267.474 295.875 266.665C295.622 265.855 295.146 265.065 294.446 264.292C293.736 263.508 292.987 262.948 292.201 262.611C291.415 262.274 290.648 262.158 289.899 262.263C289.151 262.368 288.468 262.7 287.85 263.26C287.202 263.847 286.779 264.566 286.579 265.417C286.38 266.268 286.442 267.132 286.764 268.008C286.764 268.008 280.313 271.581 280.313 271.581L267.94 256.183L282.915 242.615L288.147 248.389L278.133 257.461L283.011 263.686L283.13 263.577C283.13 263.577 282.747 261.242 283.13 259.943C283.514 258.644 284.268 257.484 285.394 256.464C286.38 255.57 287.483 254.95 288.702 254.603C289.92 254.256 291.188 254.184 292.505 254.386C293.822 254.588 295.129 255.059 296.425 255.799C297.721 256.539 298.94 257.538 300.081 258.798C301.76 260.651 302.877 262.624 303.431 264.718C303.986 266.812 303.959 268.87 303.351 270.892C302.743 272.914 301.537 274.742 299.733 276.376Z"></path>
  </clipPath>
  <g clip-path="url(#cl_116)">
    <path fill="#F2F1F1" transform="matrix(0.523603 -0.186303 0.278101 0.573622 285.343 309.714)" d="M-170.753 -28.5017L169.944 -28.5017L169.944 28.5017L-170.753 28.5017L-170.753 -28.5017Z"></path>
    <path fill="#F2F1F1" transform="matrix(0.523603 -0.186303 0.278101 0.573622 295.133 332.251)" d="M-170.753 -5.22017L169.944 -5.22016L169.944 5.22017L-170.753 5.22016L-170.753 -5.22017Z"></path>
  </g>
  <path fill="#8E8B8B" transform="matrix(0.48021 -0.435089 0.435089 0.48021 214.082 223.37)" d="M7.62939e-06 7.62939e-06C7.62939e-06 7.62939e-06 -15.2011 9.53674e-06 -18.2664 -1.90735e-06C-66.3551 1.30369 -126.35 32.2772 -126.35 128C-126.35 223.723 -55.9022 256 -19 256C-15.9348 256 1.52588e-05 256 0 256C-25.5438 256 -107.35 223.723 -107.35 128C-107.35 32.2772 -25.5438 5.72205e-06 7.62939e-06 7.62939e-06Z"></path>
  <clipPath id="cl_118">
    <path d="M214.082 223.37C214.082 223.37 206.782 229.983 205.31 231.317C182.785 252.866 167.451 293.843 209.099 339.81C250.747 385.777 298.62 370.626 316.341 354.57C317.813 353.236 325.465 346.303 325.465 346.303C313.199 357.417 259.871 377.51 218.223 331.543C176.575 285.576 201.816 234.483 214.082 223.37Z"></path>
  </clipPath>
  <g clip-path="url(#cl_118)">
    <path fill="#ACABAB" transform="matrix(0.402738 -0.364897 0.435089 0.48021 260.602 342.463)" d="M-105.5 -40.8039L105 -40.8039L105 40.8039L-105.5 40.8039L-105.5 -40.8039Z"></path>
    <path fill="#D6D6D6" transform="matrix(0.402738 -0.364897 0.435089 0.48021 254.164 341.389)" d="M-105.5 -7.02947L105 -7.02946L105 7.02945L-105.5 7.02945L-105.5 -7.02947Z"></path>
    <path fill="#D6D6D6" transform="matrix(0.403884 -0.365935 0.433856 0.478848 252.012 305.301)" d="M-137.32 -30.4789L136.67 -30.4789L136.67 30.4789L-137.32 30.4789L-137.32 -30.4789Z"></path>
  </g>
  <path fill="#91A8EB" transform="matrix(0.606874 0.00990163 -0.00990163 0.606874 194.706 79.5273)" d="M7.62939e-06 -22.5C14.6356 -22.5 26.5 -12.3145 26.5 0.25C26.5 12.8145 14.6356 23 7.62939e-06 23C-14.6355 23 -26.5 12.8145 -26.5 0.25C-26.5 -12.3145 -14.6355 -22.5 7.62939e-06 -22.5Z"></path>
  <path fill="#91A8EB" transform="matrix(0.504938 0.00823846 -0.00823846 0.504938 179.256 90.2247)" d="M-4.23752e-08 -22.5C14.6355 -22.5 26.5 -12.3145 26.5 0.25C26.5 12.8145 14.6355 23 4.23752e-08 23C-14.6355 23 -26.5 12.8145 -26.5 0.25C-26.5 -12.3145 -14.6355 -22.5 -4.23752e-08 -22.5Z"></path>
  <path fill="#91A8EB" transform="matrix(0.274279 0.00447507 -0.00447507 0.274279 160.387 57.4382)" d="M3.05176e-05 -22.4261C14.2962 -22.4261 25.8855 -12.274 25.8855 0.249268C25.8855 12.7726 14.2962 22.9247 3.05176e-05 22.9247C-14.2961 22.9247 -25.8855 12.7726 -25.8855 0.249268C-25.8855 -12.274 -14.2961 -22.4261 3.05176e-05 -22.4261Z"></path>
  <path fill="#C1CBE8" transform="matrix(0.073816 -0.11483 0.26388 0.16963 156.641 54.838)" d="M0.00012207 -11.5C14.6357 -11.5 28.0062 -7.98328 28.0062 -1.63201C28.0062 4.71926 15.506 0.400185 0.870479 0.400186C-13.7651 0.400185 -26.7659 4.37689 -26.7659 -1.97439C-26.7659 -8.32566 -14.6354 -11.5 0.00012207 -11.5Z"></path>
  <path fill="#C1CBE8" transform="matrix(-0.166841 -0.570472 0.880441 -0.257495 179.177 116.6)" d="M0 -11.5C14.6355 -11.5 28.0061 -7.98328 28.0061 -1.63201C28.0061 4.71927 15.5059 0.400186 0.870357 0.400186C-13.7652 0.400184 -26.766 4.37689 -26.766 -1.97439C-26.766 -8.32566 -14.6355 -11.5 0 -11.5Z"></path>
  <path fill="#1B2B56" transform="matrix(1.78669 -0.21848 0.065544 0.536007 232.722 89.1254)" d="M8.25152e-07 -2.49997C1.38071 -2.49997 2.5 -1.38068 2.5 3.05176e-05C2.5 1.38074 1.38071 2.50003 8.43778e-07 2.50003C-1.38071 2.50003 -2.5 1.38074 -2.5 3.05176e-05C-2.5 -1.38068 -1.38071 -2.49997 8.25152e-07 -2.49997Z"></path>
  <path fill="none" stroke="#1B2B56" stroke-width="0.5" stroke-linecap="round" stroke-linejoin="round" transform="matrix(1.78289 -0.247598 0.247598 1.78289 241.366 88.0138)" d="M1.98548 0.277981L6.02909 0.184244"></path>
  <path fill="#1B2B56" transform="matrix(1.78669 -0.21848 0.065544 0.536007 261.31 85.6296)" d="M9.44361e-07 -2.5C1.38071 -2.5 2.5 -1.38071 2.5 0C2.5 1.38071 1.38071 2.5 9.62988e-07 2.5C-1.38071 2.5 -2.5 1.38071 -2.5 0C-2.5 -1.38071 -1.38071 -2.5 9.44361e-07 -2.5Z"></path>
  <path fill="#354B89" transform="matrix(1.46507 -0.885005 0.929571 0.72522 253.087 78.6976)" d="M-7.62939e-06 -2.5C1.3807 -2.5 2.49999 -1.38071 2.49999 1.49012e-07C2.49999 1.38071 1.3807 2.5 -7.62939e-06 2.5C-1.38072 2.5 -2.50001 1.38071 -2.50001 -1.49012e-07C-2.50001 -1.38071 -1.38072 -2.5 -7.62939e-06 -2.5Z"></path>
  <path fill="#354B89" transform="matrix(2.16254 0.296937 -0.629837 1.0733 237.114 79.6371)" d="M0 -2.98534C1.68306 -2.98534 3.04744 -1.64876 3.04744 -9.08208e-08C3.04744 1.64876 1.68306 2.98534 0 2.98534C-1.68306 2.98534 -3.04744 1.64876 -3.04744 9.08208e-08C-3.04744 -1.64876 -1.68306 -2.98534 0 -2.98534Z"></path>
  <path fill="none" stroke="white" stroke-width="5" stroke-linecap="round" stroke-linejoin="round" transform="matrix(1.5 0 0 1.5 158.539 362.24)" d=""></path>
</svg>