<?xml version="1.0" encoding="utf-8"?>
<svg xmlns="http://www.w3.org/2000/svg" xmlns:xlink="http://www.w3.org/1999/xlink" width="512" height="512">
  <path fill="none" stroke="black" stroke-width="7" stroke-linejoin="round" transform="matrix(1.8 3.72529e-09 -3.72529e-09 1.8 210.879 409.868)" d="M0.317585 -46.251C18.5418 -46.0446 31.0869 -38.646 30.9048 5.64317C31.2269 34.6589 23.8797 44.6777 13.3629 44.4096C2.84604 44.1416 -5.79298 44.2439 -16.1262 44.3244C-26.589 44.2253 -31.97 33.0858 -32.2918 4.05704C-32.3961 -42.4394 -17.9066 -46.4575 0.317585 -46.251Z"></path>
  <path fill="none" stroke="black" stroke-width="7" stroke-linejoin="round" transform="matrix(-2.15345 -3.29802e-07 -3.27096e-07 2.13577 356.081 273.696)" d="M15.394 -58.7375C18.7636 -54.2426 24.8903 -39.0959 24.8475 -35.1685C24.8047 -31.2411 29.2047 -22.3266 27.9249 2.00849C26.709 30.8724 22.2758 53.9618 -2.98841 53.0416C-18.8455 52.3625 -30.3183 28.4302 -29.1024 -0.433682C-27.578 -36.6206 -1.88483 -65.0037 15.394 -58.7375Z"></path>
  <path fill="none" stroke="black" stroke-width="7" stroke-linejoin="round" transform="matrix(1.79976 0.0293645 -0.0293645 1.79976 266.376 274.862)" d="M0.209625 -80.0966C37.3348 -80.0966 84.5 -60 84.5 9.53674e-07C84.5 41.1452 46.7396 76.2788 0.209625 76.2788C-62.1658 76.2788 -84 60.12 -84 9.53674e-07C-84 -71.2881 -50.5087 -80.0966 0.209625 -80.0966Z"></path>
  <path fill="none" stroke="black" stroke-width="7" stroke-linejoin="round" transform="matrix(1.53671 3.18039e-09 -3.72529e-09 1.8 308.979 398.168)" d="M1.57211 -47.9197C19.782 -48.5612 35.4754 -42.1993 37.6788 7.33963C38.731 21.1659 33.6046 45.0704 19.9307 45.3679C6.25701 45.6655 0.123352 45.7989 -12.0747 46.0644C-24.2728 46.3298 -27.2129 23.4889 -28.2651 9.6626C-30.8849 -42.0543 -16.6378 -47.2783 1.57211 -47.9197Z"></path>
  <path fill="#6C88D9" transform="matrix(-2.15345 -3.29802e-07 -3.27096e-07 2.13577 356.081 273.696)" d="M15.394 -58.7375C18.7636 -54.2426 24.8903 -39.0959 24.8475 -35.1685C24.8047 -31.2411 29.2047 -22.3266 27.9249 2.00849C26.709 30.8724 22.2758 53.9618 -2.98841 53.0416C-18.8455 52.3625 -30.3183 28.4302 -29.1024 -0.433682C-27.578 -36.6206 -1.88483 -65.0037 15.394 -58.7375Z"></path>
  <path fill="#5170C8" transform="matrix(1.53671 3.18039e-09 -3.72529e-09 1.8 308.979 398.168)" d="M1.57211 -47.9197C19.782 -48.5612 35.4754 -42.1993 37.6788 7.33963C38.731 21.1659 33.6046 45.0704 19.9307 45.3679C6.25701 45.6655 0.123352 45.7989 -12.0747 46.0644C-24.2728 46.3298 -27.2129 23.4889 -28.2651 9.6626C-30.8849 -42.0543 -16.6378 -47.2783 1.57211 -47.9197Z"></path>
  <path fill="#839BE0" transform="matrix(1.20328 2.49031e-09 -2.91698e-09 1.40944 308.979 398.168)" d="M2.62141 -48.502C20.8313 -49.1435 35.9774 -42.6787 38.5248 11.3445C38.8841 29.2768 30.6352 44.6398 16.9614 44.9374C3.28762 45.2349 3.46394 45.2816 -8.73416 45.5471C-20.9322 45.8125 -27.0598 31.5997 -27.4191 13.6674C-30.3829 -42.5337 -15.5885 -47.8606 2.62141 -48.502Z"></path>
  <path fill="#6C88D9" transform="matrix(1.8 3.72529e-09 -3.72529e-09 1.8 210.879 409.868)" d="M0.317585 -46.251C18.5418 -46.0446 31.0869 -38.646 30.9048 5.64317C31.2269 34.6589 23.8797 44.6777 13.3629 44.4096C2.84604 44.1416 -5.79298 44.2439 -16.1262 44.3244C-26.589 44.2253 -31.97 33.0858 -32.2918 4.05704C-32.3961 -42.4394 -17.9066 -46.4575 0.317585 -46.251Z"></path>
  <path fill="#91A8EB" transform="matrix(-1.67686 -2.56813e-07 -3.2026e-07 2.09114 352.092 267.983)" d="M16.3942 -52.3125C38.5425 -51.5582 30.3325 -26.9854 27.1848 1.52487C24.0372 30.0351 10.9162 52.9626 -4.53393 52.4364C-19.984 51.9102 -30.8906 28.2366 -29.3709 -0.456386C-27.8511 -29.1493 -5.75409 -53.0669 16.3942 -52.3125Z"></path>
  <path fill="none" stroke="black" stroke-width="7" stroke-miterlimit="4" transform="matrix(1.79976 0.0293645 -0.0293645 1.79976 227.465 112.102)" d="M0 -29.5C19.0538 -29.5 34.5 -16.1805 34.5 0.250008C34.5 16.6805 19.0538 30 0 30C-19.0538 30 -34.5 16.6805 -34.5 0.250008C-34.5 -16.1805 -19.0538 -29.5 0 -29.5Z"></path>
  <path fill="#6C88D9" transform="matrix(1.79976 0.0293645 -0.0293645 1.79976 266.376 274.862)" d="M0.209625 -80.0966C37.3348 -80.0966 84.5 -60 84.5 9.53674e-07C84.5 41.1452 46.7396 76.2788 0.209625 76.2788C-62.1658 76.2788 -84 60.12 -84 9.53674e-07C-84 -71.2881 -50.5087 -80.0966 0.209625 -80.0966Z"></path>
  <path fill="none" stroke="black" stroke-width="9" stroke-miterlimit="4" transform="translate(256 256)" d="M-54.8449 -201.715C-40.0623 -201.474 -28.2472 -190.945 -28.4552 -178.197C-28.6632 -165.45 -40.8155 -155.312 -55.5981 -155.553C-70.3807 -155.794 -82.1957 -166.323 -81.9877 -179.071C-81.7798 -191.818 -69.6275 -201.956 -54.8449 -201.715Z"></path>
  <path fill="none" stroke="black" stroke-width="9" stroke-miterlimit="4" transform="translate(256 256)" d="M-70.3579 -186.803C-58.0583 -186.602 -48.2278 -177.841 -48.4009 -167.235C-48.5739 -156.629 -58.685 -148.194 -70.9846 -148.394C-83.2841 -148.595 -93.1146 -157.356 -92.9416 -167.962C-92.7685 -178.568 -82.6575 -187.003 -70.3579 -186.803Z"></path>
  <path fill="none" stroke="black" stroke-width="9" stroke-miterlimit="4" transform="translate(256 256)" d="M-90.365 -211.137C-83.684 -211.028 -78.3441 -206.269 -78.4381 -200.508C-78.5321 -194.746 -84.0244 -190.164 -90.7054 -190.273C-97.3864 -190.382 -102.726 -195.141 -102.632 -200.902C-102.538 -206.664 -97.046 -211.246 -90.365 -211.137Z"></path>
  <path fill="#6C88D9" transform="matrix(1.79976 0.0293645 -0.0293645 1.79976 227.465 112.102)" d="M0 -29.5C19.0538 -29.5 34.5 -16.1805 34.5 0.250008C34.5 16.6805 19.0538 30 0 30C-19.0538 30 -34.5 16.6805 -34.5 0.250008C-34.5 -16.1805 -19.0538 -29.5 0 -29.5Z"></path>
  <path fill="#6C88D9" transform="matrix(0.775834 0.0126583 -0.0126583 0.775834 200.782 77.1721)" d="M-7.62939e-06 -29.5C19.0538 -29.5 34.5 -16.1805 34.5 0.249985C34.5 16.6805 19.0538 30 -7.62939e-06 30C-19.0538 30 -34.5 16.6805 -34.5 0.249985C-34.5 -16.1805 -19.0538 -29.5 -7.62939e-06 -29.5Z"></path>
  <path fill="#6C88D9" transform="matrix(0.645518 0.0105321 -0.0105321 0.645518 185.331 88.2402)" d="M7.62939e-06 -29.5C19.0538 -29.5 34.5 -16.1805 34.5 0.249969C34.5 16.6804 19.0538 30 7.62939e-06 30C-19.0538 30 -34.5 16.6804 -34.5 0.249969C-34.5 -16.1805 -19.0538 -29.5 7.62939e-06 -29.5Z"></path>
  <path fill="#6C88D9" transform="matrix(0.35064 0.00572097 -0.00572097 0.35064 165.466 55.2073)" d="M0 -29.5001C19.0538 -29.5001 34.5 -16.1805 34.5 0.249939C34.5 16.6804 19.0538 29.9999 0 29.9999C-19.0538 29.9999 -34.5 16.6804 -34.5 0.249939C-34.5 -16.1805 -19.0538 -29.5001 0 -29.5001Z"></path>
  <path fill="#91A8EB" transform="matrix(1.50913 0.0246226 -0.0246226 1.50913 265.012 274.862)" d="M0.24998 -81.5196C49.8787 -81.2985 84.5 -60 84.5 -9.53674e-07C84.5 41.1452 46.78 74.5 0.25 74.5C-62.1254 74.5 -84 60.12 -84 -9.53674e-07C-84 -71.2881 -62.1254 -81.5196 0.24998 -81.5196Z"></path>
  <clipPath id="cl_337">
    <path d="M269.105 130.713C335.922 131.803 420.218 169.357 418.456 277.343C417.248 351.394 348.256 413.518 264.513 412.151C152.253 410.32 113.431 380.597 115.196 272.395C117.289 144.094 177.824 129.224 269.105 130.713Z"></path>
  </clipPath>
  <g clip-path="url(#cl_337)">
    <path fill="#A6B8EF" transform="matrix(0.805953 0.0131497 -0.0151654 0.929491 320.67 239.74)" d="M0.249972 -81.5196C49.8787 -81.2985 84.5 -60 84.5 1.90735e-06C84.5 41.1452 67.1354 74.5 20.6054 74.5C-41.77 74.5 -84 60.12 -84 1.90735e-06C-84 -71.2881 -62.1254 -81.5197 0.249972 -81.5196Z"></path>
    <path fill="#C1CBE8" transform="matrix(0.197995 -0.202726 0.445703 0.435301 343.77 190.891)" d="M11.5671 -77.0972C58.097 -77.0972 97.5959 -41.1452 97.5959 -1.67094e-05C97.5959 41.1452 73.4187 83.0524 26.8888 83.0524C-35.4867 83.0524 11.8086 60.12 11.8086 -1.5431e-05C11.8086 -41.1452 -34.9629 -77.0972 11.5671 -77.0972Z"></path>
    <path fill="#C1CBE8" transform="matrix(0.197995 -0.202726 0.184201 0.179903 388.212 255.247)" d="M48.93 -79.7642C80.6763 -79.0529 77.4946 -42.8889 62.8508 4.00565C48.2069 50.9001 -0.0393895 91.2963 -20.4536 67.777C-40.8678 44.2576 -16.8141 31.8032 -0.458961 -5.13881C15.8962 -42.0808 17.1838 -80.4755 48.93 -79.7642Z"></path>
  </g>
  <path fill="#91A8EB" transform="matrix(1.37947 2.85496e-09 -2.85496e-09 1.37947 210.879 346.868)" d="M0.256088 -0.702179C18.4803 -0.495773 32.0923 -1.13318 31.9576 50.3603C31.4951 75.8441 23.8484 90.3478 13.3316 90.0797C2.81476 89.8117 -5.82429 89.9141 -16.1575 89.9945C-26.5376 90.002 -33.9215 73.2298 -33.459 47.746C-33.6104 -5.95491 -17.9682 -0.908607 0.256088 -0.702179Z"></path>
  <path fill="#91A8EB" transform="matrix(1.79976 0.0293645 -0.0293645 1.79976 227.465 112.102)" d="M0 -22.5C14.6355 -22.5 26.5 -12.3145 26.5 0.250008C26.5 12.8145 14.6355 23 0 23C-14.6355 23 -26.5 12.8145 -26.5 0.250008C-26.5 -12.3145 -14.6355 -22.5 0 -22.5Z"></path>
  <path fill="none" stroke="black" stroke-width="7" stroke-linecap="round" stroke-linejoin="round" transform="matrix(2.15345 4.45679e-09 -4.42021e-09 2.13577 150.189 283.36)" d="M31.0329 -30.6486C33.0685 -24.9143 35.6417 -15.8621 36.5558 -1.13721C38.1949 27.6875 33.8808 52.024 8.60612 52.5817C-7.26332 52.8304 -18.7401 30.9799 -20.3781 2.17411C-22.0576 -20.729 -14.0634 -41.6904 -3.35081 -52.686"></path>
  <path fill="#6C88D9" transform="matrix(2.15345 4.45679e-09 -4.42021e-09 2.13577 150.189 283.36)" d="M15.6572 -60.4452C19.623 -56.4756 27.8114 -42.354 28.3196 -38.46C28.8278 -34.5659 35.0232 -25.8235 36.5558 -1.13721C38.1949 27.6875 33.8808 52.024 8.60612 52.5817C-7.26332 52.8304 -18.7401 30.9799 -20.3781 2.17411C-22.9824 -33.3403 -2.32663 -64.186 15.6572 -60.4452Z"></path>
  <path fill="#91A8EB" transform="matrix(1.67686 3.47045e-09 -4.32784e-09 2.09114 154.179 277.647)" d="M17.614 -53.9935C39.6729 -55.757 41.6392 -30.2329 37.7482 -2.09145C34.0076 26.1306 31.9383 50.5994 16.583 52.0666C1.22768 53.5339 -14.6367 31.3367 -18.5306 2.78952C-22.296 -25.8743 -4.4449 -52.23 17.614 -53.9935Z"></path>
  <path fill="#312F2F" transform="matrix(0.494552 0.225315 -0.268657 0.589684 203.59 369.357)" d="M3.21865e-06 -128C70.6925 -128 128 -70.6925 128 -3.8147e-06C128 70.6924 70.6925 128 3.21865e-06 128C-70.6925 128 -128 70.6925 -128 3.8147e-06C-128 -70.6924 -70.6925 -128 3.21865e-06 -128Z"></path>
  <path fill="none" stroke="black" stroke-width="7" stroke-miterlimit="4" transform="translate(256 256)" d="M-6.81752 42.9821C28.1435 58.9102 41.089 105.616 22.097 147.302C3.105 188.988 -40.6326 209.869 -75.5937 193.941C-110.555 178.013 -123.5 131.308 -104.508 89.6214C-85.5162 47.9352 -41.7786 27.0541 -6.81752 42.9821Z"></path>
  <path fill="none" stroke="black" stroke-width="7" stroke-linejoin="round" transform="translate(256 256)" d="M-6.81753 42.9821C-6.81753 42.9821 -15.7814 38.8982 -17.5889 38.0747C-46.2963 25.9242 -89.9956 28.0707 -115.712 84.5169C-141.429 140.963 -108.558 178.923 -86.7977 188.837C-84.9902 189.66 -75.5937 193.941 -75.5937 193.941C-76.1009 193.71 -76.6359 193.44 -77.1953 193.133"></path>
  <path fill="#DEDEDE" transform="matrix(0.494552 0.225315 -0.268657 0.589684 214.794 374.462)" d="M3.8147e-06 -128C70.6925 -128 128 -70.6925 128 -3.8147e-06C128 70.6924 70.6925 128 3.8147e-06 128C-70.6924 128 -128 70.6925 -128 3.8147e-06C-128 -70.6924 -70.6924 -128 3.8147e-06 -128Z"></path>
  <clipPath id="cl_33a">
    <path d="M249.182 298.982C284.144 314.91 297.089 361.616 278.097 403.302C259.105 444.988 215.367 465.869 180.406 449.941C145.445 434.013 132.5 387.308 151.492 345.621C170.484 303.935 214.221 283.054 249.182 298.982Z"></path>
  </clipPath>
  <g clip-path="url(#cl_33a)">
    <path fill="#F2F1F1" transform="matrix(0.378421 0.407023 -0.4166 0.482522 198.116 398.609)" d="M-170.753 -28.5017L169.944 -28.5017L169.944 28.5017L-170.753 28.5017L-170.753 -28.5017Z"></path>
    <path fill="#F2F1F1" transform="matrix(0.378421 0.407023 -0.4166 0.482522 181.298 416.524)" d="M-170.753 -5.22013L169.944 -5.22013L169.944 5.22019L-170.753 5.22019L-170.753 -5.22013Z"></path>
  </g>
  <path fill="#8B8B8B" transform="matrix(0.494552 0.225315 -0.268657 0.589684 218.278 375.337)" d="M0.249994 -87.5C51.4744 -87.5 93 -48.4369 93 -0.250018C93 47.9368 51.4744 87 0.249994 87C-50.9744 87 -92.5 47.9368 -92.5 -0.250012C-92.5 -48.4369 -50.9744 -87.5 0.249994 -87.5Z"></path>
  <path fill="#B0AFAF" transform="matrix(0.494552 0.225315 -0.268657 0.589684 214.794 374.462)" d="M3.8147e-06 -86C47.4965 -86 86 -47.4965 86 -2.563e-06C86 47.4965 47.4965 86 3.8147e-06 86C-47.4965 86 -86 47.4965 -86 2.563e-06C-86 -47.4965 -47.4965 -86 3.8147e-06 -86Z"></path>
  <path fill="#8B8B8B" transform="matrix(0.494552 0.225315 -0.268657 0.589684 216.116 372.216)" d="M-52.3281 27.625L-52.3281 -27.668L-46.756 -30.4056L-46.7825 24.7561L-42.4192 24.6238L-47.1315 27.6684L-52.3281 27.625ZM-50.25 21.3164C-54.7526 21.3164 -58.6058 20.4196 -61.8096 18.626C-65.0134 16.8324 -67.4626 14.3337 -69.1572 11.1299C-70.8519 7.92611 -71.6992 4.19662 -71.6992 -0.0585938C-71.6992 -4.3138 -70.8519 -8.0433 -69.1572 -11.2471C-67.4626 -14.4508 -65.0134 -16.9495 -61.8096 -18.7432C-58.6058 -20.5368 -54.7526 -21.4336 -50.25 -21.4336C-47.3802 -21.4336 -44.7826 -21.0625 -42.457 -20.3203C-40.1315 -19.5781 -38.1091 -18.5205 -36.3897 -17.1475C-34.6703 -15.7744 -27.78 -10.4694 -25.0591 -8.68546C-26.0599 -7.96244 -28.21 -6.9054 -30.3965 -5.66211C-30.3965 -5.66211 -44.0899 -3.62109 -44.0899 -3.62109C-44.0899 -3.62109 -44.5166 -5.6683 -44.8506 -6.49707C-45.1846 -7.32584 -45.599 -8.02474 -46.0938 -8.59375C-46.5885 -9.16276 -47.1637 -9.58952 -47.8193 -9.87402C-48.4749 -10.1585 -49.2109 -10.3008 -50.0274 -10.3008C-51.3385 -10.3008 -52.4766 -9.92969 -53.4414 -9.1875C-54.4063 -8.44531 -55.1546 -7.31966 -55.6865 -5.81055C-56.2184 -4.30143 -56.4844 -2.40885 -56.4844 -0.132812C-56.4844 2.11849 -56.2184 4.01107 -55.6865 5.54492C-55.1546 7.07878 -54.4063 8.23535 -53.4414 9.01465C-52.4766 9.79395 -51.3385 10.1836 -50.0274 10.1836C-49.2109 10.1836 -48.4749 10.0352 -47.8193 9.73828C-47.1637 9.44141 -46.5824 9.00228 -46.0752 8.4209C-45.568 7.83952 -45.8968 6.99338 -44.8135 6.25C-43.7302 5.50662 -38.8902 1.52308 -38.7417 0.409796C-38.7417 0.409796 -30.3965 5.28515 -30.3965 5.28515C-30.3965 5.28515 -31.2747 9.97949 -32.2891 11.9463C-33.3034 13.9131 -34.6641 15.5954 -36.3711 16.9932C-38.0781 18.3909 -40.1006 19.4609 -42.4385 20.2031C-44.7764 20.9453 -47.3802 21.3164 -50.25 21.3164ZM-24.5332 27.625L-24.5332 16.8633L-3.9004 -0.207031C-3.9004 -0.207031 -1.36459 -2.41504 -0.37501 -3.41699C0.614574 -4.41895 1.37532 -5.45182 1.90722 -6.51562C2.43912 -7.57943 2.70507 -8.76693 2.70507 -10.0781C2.70507 -11.4883 2.40201 -12.6943 1.79589 -13.6963C1.18977 -14.6982 0.360992 -15.4714 -0.690439 -16.0156C-1.74187 -16.5599 -2.9603 -16.832 -4.34571 -16.832C-5.73113 -16.832 -6.94955 -16.5537 -8.00099 -15.9971C-9.05242 -15.4404 -6.29221 -13.7058 -5.86801 -12.6284C-7.1078 -11.907 -9.37629 -10.5827 -11.3223 -9.63281C-11.3223 -9.63281 -25.5723 -9.63281 -25.5723 -9.63281C-25.5723 -9.63281 -24.7002 -16.8568 -22.9561 -19.6523C-21.2119 -22.4479 -18.7442 -24.6064 -15.5527 -26.1279C-12.3613 -27.6494 -8.62566 -28.4102 -4.34571 -28.4102C0.0826721 -28.4102 3.91731 -27.7051 7.15819 -26.2949C10.3991 -24.8848 12.904 -22.8994 14.6728 -20.3389C16.4417 -17.7783 17.3262 -14.7786 17.3262 -11.3398C17.3262 -9.21224 16.887 -7.10319 16.0088 -5.0127C15.1305 -2.9222 13.5534 -0.602867 11.2773 1.94531C9.00129 4.49349 5.74804 7.51172 1.51757 11C1.51757 11 -3.67774 15.3047 -3.67774 15.3047L-3.67774 15.6758L17.9199 15.6758L23.3601 24.6526L17.9199 27.625L-24.5332 27.625ZM45.3066 28.3672C41.0514 28.3672 37.2786 27.6188 33.9883 26.1221C30.6979 24.6253 28.1126 22.5534 26.2324 19.9062C24.3522 17.2591 23.3874 14.2161 23.3379 10.7773C23.3379 10.7773 28.8025 7.82547 28.8025 7.82547L37.959 10.7773C37.959 10.7773 38.293 13.14 38.9609 14.0801C39.6289 15.0202 40.5195 15.7438 41.6328 16.251C42.7461 16.7581 43.9707 17.0117 45.3066 17.0117C46.8405 17.0117 48.1826 16.6839 49.333 16.0283C50.4834 15.3727 51.3864 14.4512 52.042 13.2637C52.6976 12.0762 53.0254 10.6784 53.0254 9.07031C53.0254 7.4375 52.6976 6.02116 52.042 4.82129C51.3864 3.62142 50.4834 2.69369 49.333 2.03809C48.1826 1.38249 46.8405 1.05469 45.3066 1.05469C43.6986 1.05469 43.4423 2.31534 43.4423 2.31534C43.4423 2.31534 38.6022 4.02344 37.959 5.35938C37.959 5.35938 24.748 2.76172 24.748 2.76172L26.9004 -27.668L32.366 -30.6324L64.084 -27.668L69.5014 -18.6129L64.084 -15.6445L39.2207 -15.6445L38.1816 -3.47266L38.4785 -3.47266C38.4785 -3.47266 40.8411 -6.54037 42.9688 -7.62891C45.0964 -8.71745 47.5579 -9.26172 50.3535 -9.26172C52.8027 -9.26172 55.0726 -8.82878 57.1631 -7.96289C59.2536 -7.09701 61.0719 -5.86621 62.6182 -4.27051C64.1644 -2.67481 65.3643 -0.782228 66.2178 1.40722C67.0713 3.59668 67.498 6.0026 67.498 8.625C67.498 12.4844 66.5827 15.8984 64.752 18.8672C62.9212 21.8359 60.3421 24.1615 57.0146 25.8437C53.6872 27.526 49.7845 28.3672 45.3066 28.3672Z"></path>
  <path fill="#DEDEDE" transform="matrix(0.494552 0.225315 -0.268657 0.589684 219.664 370.983)" d="M-51.8282 28.625L-51.8282 -26.668L-47.375 -26.668L-47.375 28.625L-51.8282 28.625ZM-49.75 22.3164C-54.2526 22.3164 -58.1058 21.4196 -61.3096 19.626C-64.5134 17.8323 -66.9626 15.3336 -68.6573 12.1299C-70.3519 8.92609 -71.1993 5.1966 -71.1993 0.941391C-71.1993 -3.31382 -70.3519 -7.04331 -68.6573 -10.2471C-66.9626 -13.4509 -64.5134 -15.9496 -61.3096 -17.7432C-58.1058 -19.5368 -54.2526 -20.4336 -49.75 -20.4336C-46.8803 -20.4336 -44.2826 -20.0625 -41.9571 -19.3203C-39.6316 -18.5781 -37.6091 -17.5205 -35.8897 -16.1475C-34.1703 -14.7744 -32.8034 -13.1169 -31.7891 -11.1748C-30.7748 -9.23276 -30.1439 -7.06187 -29.8965 -4.66213C-29.8965 -4.66213 -43.5899 -2.62111 -43.5899 -2.62111C-43.5899 -2.62111 -44.0166 -4.66831 -44.3506 -5.49709C-44.6846 -6.32586 -45.099 -7.02476 -45.5938 -7.59377C-46.0886 -8.16277 -46.6638 -8.58953 -47.3194 -8.87404C-47.975 -9.15855 -48.711 -9.3008 -49.5274 -9.3008C-50.8386 -9.3008 -51.9766 -8.9297 -52.9415 -8.18752C-53.9063 -7.44533 -54.6547 -6.31968 -55.1866 -4.81056C-55.7185 -3.30145 -55.9844 -1.40887 -55.9844 0.867172C-55.9844 3.11847 -55.7185 5.01105 -55.1866 6.54491C-54.6547 8.07876 -53.9063 9.23534 -52.9415 10.0146C-51.9766 10.7939 -50.8386 11.1836 -49.5274 11.1836C-48.711 11.1836 -47.975 11.0351 -47.3194 10.7383C-46.6638 10.4414 -46.0824 10.0023 -45.5752 9.42088C-45.0681 8.8395 -44.6475 8.11587 -44.3135 7.24998C-43.9795 6.3841 -43.7383 5.39452 -43.5899 4.28123C-43.5899 4.28123 -29.8965 6.28514 -29.8965 6.28514C-29.8965 6.28514 -30.7748 10.9795 -31.7891 12.9463C-32.8034 14.9131 -34.1641 16.5954 -35.8711 17.9931C-37.5782 19.3909 -39.6006 20.4609 -41.9385 21.2031C-44.2764 21.9453 -46.8803 22.3164 -49.75 22.3164ZM-24.0332 28.625L-24.0332 17.8633L-3.4004 0.792953C-3.4004 0.792953 -0.864597 -1.41505 0.124987 -2.41701C1.11457 -3.41896 1.87531 -4.45184 2.40721 -5.51564C2.93911 -6.57944 3.20506 -7.76694 3.20506 -9.07814C3.20506 -10.4883 2.902 -11.6944 2.29589 -12.6963C1.68977 -13.6983 0.860989 -14.4714 -0.190443 -15.0156C-1.24187 -15.5599 -2.4603 -15.832 -3.84572 -15.832C-5.23113 -15.832 -6.44956 -15.5537 -7.50099 -14.9971C-8.55242 -14.4404 -9.36883 -13.6302 -9.95021 -12.5664C-10.5316 -11.5026 -10.8223 -10.1914 -10.8223 -8.63283C-10.8223 -8.63283 -25.0723 -8.63283 -25.0723 -8.63283C-25.0723 -8.63283 -24.2002 -15.8568 -22.4561 -18.6524C-20.7119 -21.4479 -18.2442 -23.6065 -15.0527 -25.1279C-11.8613 -26.6494 -8.12566 -27.4102 -3.84572 -27.4102C0.582668 -27.4102 4.41731 -26.7051 7.65819 -25.2949C10.8991 -23.8848 13.404 -21.8994 15.1728 -19.3389C16.9417 -16.7783 17.8262 -13.7787 17.8262 -10.3399C17.8262 -8.21226 17.387 -6.1032 16.5088 -4.01271C15.6305 -1.92222 14.0534 0.397118 11.7773 2.9453C9.50129 5.49347 6.24803 8.5117 2.01756 12C2.01756 12 -3.17775 16.3047 -3.17775 16.3047L-3.17775 16.6758L18.4199 16.6758L18.4199 28.625L-24.0332 28.625ZM45.8066 29.3672C41.5514 29.3672 37.7786 28.6188 34.4883 27.1221C31.1979 25.6253 28.6126 23.5534 26.7324 20.9062C24.8522 18.2591 23.8874 15.2161 23.8379 11.7773C23.8379 11.7773 38.459 11.7773 38.459 11.7773C38.459 11.7773 38.793 14.14 39.4609 15.0801C40.1289 16.0202 41.0195 16.7438 42.1328 17.251C43.2461 17.7581 44.4707 18.0117 45.8066 18.0117C47.3405 18.0117 48.6826 17.6839 49.833 17.0283C50.9834 16.3727 51.8864 15.4512 52.542 14.2637C53.1976 13.0762 53.5254 11.6784 53.5254 10.0703C53.5254 8.43748 53.1976 7.02114 52.542 5.82127C51.8864 4.6214 50.9834 3.69367 49.833 3.03807C48.6826 2.38247 47.3405 2.05467 45.8066 2.05467C44.1986 2.05467 42.7327 2.43814 41.4092 3.20506C40.0856 3.97199 39.1022 5.02342 38.459 6.35936C38.459 6.35936 25.248 3.7617 25.248 3.7617L27.4004 -26.668L64.584 -26.668L64.584 -14.6445L39.7207 -14.6445L38.6816 -2.47267L38.9785 -2.47267C38.9785 -2.47267 41.3411 -5.54038 43.4688 -6.62892C45.5964 -7.71746 48.0579 -8.26173 50.8535 -8.26173C53.3027 -8.26173 55.5726 -7.82879 57.6631 -6.96291C59.7536 -6.09702 61.5719 -4.86623 63.1182 -3.27052C64.6644 -1.67482 65.8643 0.217756 66.7178 2.40721C67.5713 4.59666 67.998 7.00259 67.998 9.62498C67.998 13.4844 67.0827 16.8984 65.252 19.8672C63.4212 22.8359 60.8421 25.1614 57.5146 26.8437C54.1872 28.526 50.2845 29.3672 45.8066 29.3672Z"></path>
  <clipPath id="cl_33c">
    <path d="M186.342 376.186L201.197 343.58L203.399 344.583L188.544 377.189L186.342 376.186ZM189.064 372.934C186.837 371.919 185.173 370.522 184.07 368.743C182.968 366.963 182.428 364.938 182.45 362.667C182.473 360.396 183.056 358.006 184.199 355.496C185.342 352.987 186.763 350.979 188.462 349.471C190.161 347.964 192.043 347.042 194.11 346.707C196.176 346.371 198.323 346.71 200.549 347.725C201.969 348.371 203.154 349.175 204.104 350.137C205.055 351.099 205.771 352.178 206.253 353.375C206.734 354.572 206.965 355.858 206.945 357.231C206.924 358.605 206.653 360.027 206.131 361.498C206.131 361.498 198.81 359.616 198.81 359.616C198.81 359.616 199.149 358.313 199.207 357.749C199.264 357.185 199.247 356.68 199.155 356.233C199.063 355.786 198.894 355.404 198.646 355.089C198.398 354.773 198.072 354.524 197.669 354.34C197.02 354.044 196.358 354.007 195.681 354.227C195.004 354.447 194.332 354.942 193.663 355.712C192.995 356.482 192.355 357.539 191.744 358.881C191.139 360.208 190.762 361.384 190.613 362.409C190.464 363.433 190.523 364.284 190.791 364.96C191.059 365.637 191.517 366.124 192.165 366.419C192.569 366.603 192.973 366.681 193.377 366.654C193.781 366.627 194.186 366.499 194.593 366.27C195 366.042 195.403 365.71 195.801 365.274C196.198 364.839 196.584 364.31 196.956 363.687C196.956 363.687 203.19 367.954 203.19 367.954C203.19 367.954 201.494 370.524 200.464 371.455C199.434 372.386 198.309 373.072 197.09 373.511C195.87 373.951 194.582 374.126 193.227 374.037C191.871 373.948 190.484 373.58 189.064 372.934ZM200.088 382.448L202.979 376.102L217.769 370.685C217.769 370.685 219.616 369.954 220.375 369.586C221.133 369.219 221.787 368.781 222.336 368.273C222.885 367.766 223.335 367.126 223.688 366.352C224.067 365.521 224.241 364.741 224.21 364.014C224.18 363.287 223.977 362.644 223.604 362.086C223.23 361.528 222.7 361.093 222.015 360.781C221.33 360.469 220.653 360.359 219.983 360.45C219.314 360.541 218.692 360.835 218.119 361.331C217.546 361.828 217.05 362.535 216.631 363.454C216.631 363.454 209.583 360.244 209.583 360.244C209.583 360.244 211.955 356.18 213.569 354.925C215.183 353.669 216.983 352.952 218.97 352.774C220.957 352.596 223.009 352.989 225.126 353.954C227.316 354.951 229.023 356.231 230.247 357.793C231.471 359.355 232.176 361.09 232.363 362.998C232.55 364.907 232.181 366.875 231.258 368.903C230.686 370.157 229.902 371.302 228.906 372.337C227.91 373.372 226.507 374.384 224.697 375.374C222.887 376.364 220.467 377.41 217.438 378.514C217.438 378.514 213.712 379.882 213.712 379.882L213.612 380.101L224.293 384.967L221.083 392.013L200.088 382.448ZM234.428 398.622C232.323 397.663 230.659 396.372 229.433 394.748C228.208 393.124 227.486 391.319 227.268 389.335C227.049 387.35 227.389 385.338 228.289 383.299C228.289 383.299 235.52 386.594 235.52 386.594C235.52 386.594 235.05 388.062 235.128 388.767C235.206 389.472 235.452 390.099 235.866 390.649C236.28 391.199 236.818 391.625 237.478 391.926C238.237 392.271 238.989 392.38 239.734 392.253C240.479 392.126 241.173 391.786 241.816 391.233C242.46 390.68 242.997 389.93 243.429 388.982C243.868 388.019 244.086 387.11 244.084 386.255C244.083 385.399 243.885 384.649 243.492 384.003C243.1 383.357 242.524 382.862 241.765 382.516C240.97 382.154 240.142 382.05 239.282 382.204C238.421 382.358 237.652 382.756 236.975 383.399C236.975 383.399 231.14 378.89 231.14 378.89L240.379 361.432L258.768 369.81L255.538 376.9L243.242 371.297L239.458 378.241L239.605 378.308C239.605 378.308 241.597 377.031 242.942 376.869C244.287 376.706 245.65 376.94 247.033 377.57C248.244 378.122 249.25 378.888 250.052 379.87C250.853 380.852 251.422 381.987 251.758 383.276C252.094 384.566 252.178 385.952 252.012 387.435C251.846 388.919 251.411 390.434 250.706 391.98C249.67 394.256 248.3 396.063 246.597 397.401C244.894 398.739 242.993 399.529 240.896 399.772C238.798 400.014 236.642 399.631 234.428 398.622Z"></path>
  </clipPath>
  <g clip-path="url(#cl_33c)">
    <path fill="#F2F1F1" transform="matrix(0.378421 0.407023 -0.4166 0.482522 198.116 398.609)" d="M-170.753 -28.5017L169.944 -28.5017L169.944 28.5017L-170.753 28.5017L-170.753 -28.5017Z"></path>
    <path fill="#F2F1F1" transform="matrix(0.378421 0.407023 -0.4166 0.482522 181.298 416.524)" d="M-170.753 -5.22013L169.944 -5.22013L169.944 5.22019L-170.753 5.22019L-170.753 -5.22013Z"></path>
  </g>
  <path fill="#8E8B8B" transform="matrix(0.589684 0.268657 -0.268657 0.589684 249.182 298.982)" d="M-1.62125e-05 -3.8147e-06C-1.62125e-05 -3.8147e-06 -15.2012 -1.14441e-05 -18.2664 -3.8147e-06C-66.3551 1.30369 -126.35 32.2772 -126.35 128C-126.35 223.723 -55.9022 256 -19 256C-15.9348 256 -1.52588e-05 256 -1.52588e-05 256C-25.5439 256 -107.35 223.723 -107.35 128C-107.35 32.2772 -25.5439 -7.62939e-06 -1.62125e-05 -3.8147e-06Z"></path>
  <clipPath id="cl_33e">
    <path d="M249.182 298.982C249.182 298.982 240.219 294.898 238.411 294.075C209.704 281.924 166.004 284.071 140.288 340.517C114.571 396.963 147.442 434.923 169.202 444.837C171.01 445.66 180.406 449.941 180.406 449.941C165.344 443.079 125.775 402.068 151.492 345.621C177.208 289.175 234.12 292.12 249.182 298.982Z"></path>
  </clipPath>
  <g clip-path="url(#cl_33e)">
    <path fill="#ACABAB" transform="matrix(0.494552 0.225315 -0.268657 0.589684 158.247 388.86)" d="M-105.5 -40.8039L105 -40.8039L105 40.8038L-105.5 40.8038L-105.5 -40.8039Z"></path>
    <path fill="#D6D6D6" transform="matrix(0.494552 0.225315 -0.268657 0.589684 156.684 382.523)" d="M-105.5 -7.02947L105 -7.02948L105 7.02944L-105.5 7.02944L-105.5 -7.02947Z"></path>
    <path fill="#D6D6D6" transform="matrix(0.495958 0.225956 -0.267895 0.588012 188.969 366.256)" d="M-137.32 -30.4789L136.67 -30.4789L136.67 30.4789L-137.32 30.4789L-137.32 -30.4789Z"></path>
  </g>
  <path fill="#91A8EB" transform="matrix(0.606874 0.00990163 -0.00990163 0.606874 200.782 79.3792)" d="M0 -22.5C14.6355 -22.5 26.5 -12.3145 26.5 0.25C26.5 12.8145 14.6355 23 0 23C-14.6355 23 -26.5 12.8145 -26.5 0.25C-26.5 -12.3145 -14.6355 -22.5 0 -22.5Z"></path>
  <path fill="#91A8EB" transform="matrix(0.504938 0.00823846 -0.00823846 0.504938 185.331 90.0766)" d="M-4.23752e-08 -22.5C14.6355 -22.5 26.5 -12.3145 26.5 0.25C26.5 12.8145 14.6355 23 4.23752e-08 23C-14.6355 23 -26.5 12.8145 -26.5 0.25C-26.5 -12.3145 -14.6355 -22.5 -4.23752e-08 -22.5Z"></path>
  <path fill="#91A8EB" transform="matrix(0.274279 0.00447507 -0.00447507 0.274279 166.462 57.2901)" d="M0 -22.4261C14.2962 -22.4261 25.8855 -12.274 25.8855 0.249268C25.8855 12.7726 14.2962 22.9247 0 22.9247C-14.2962 22.9247 -25.8855 12.7726 -25.8855 0.249268C-25.8855 -12.274 -14.2962 -22.4261 0 -22.4261Z"></path>
  <path fill="#C1CBE8" transform="matrix(0.073816 -0.11483 0.26388 0.16963 162.703 54.6899)" d="M-6.10352e-05 -11.5C14.6355 -11.5 28.006 -7.98328 28.006 -1.63201C28.006 4.71926 15.5058 0.400185 0.870295 0.400186C-13.7652 0.400185 -26.7661 4.37689 -26.7661 -1.97439C-26.7661 -8.32566 -14.6356 -11.5 -6.10352e-05 -11.5Z"></path>
  <path fill="#C1CBE8" transform="matrix(-0.166841 -0.570472 0.880441 -0.257495 185.239 116.452)" d="M-3.05176e-05 -11.5C14.6355 -11.5 28.0061 -7.98328 28.0061 -1.63201C28.0061 4.71927 15.5059 0.400188 0.870326 0.400188C-13.7652 0.400186 -26.7661 4.37689 -26.7661 -1.97438C-26.7661 -8.32566 -14.6356 -11.5 -3.05176e-05 -11.5Z"></path>
  <path fill="#1B2B56" transform="matrix(1.78669 -0.21848 0.065544 0.536007 239.475 88.9772)" d="M-9.31323e-09 -2.49997C1.38071 -2.49997 2.5 -1.38068 2.5 3.05176e-05C2.5 1.38074 1.38071 2.50003 9.31323e-09 2.50003C-1.38071 2.50003 -2.5 1.38074 -2.5 3.05176e-05C-2.5 -1.38068 -1.38071 -2.49997 -9.31323e-09 -2.49997Z"></path>
  <path fill="none" stroke="#1B2B56" stroke-width="0.5" stroke-linecap="round" stroke-linejoin="round" transform="matrix(1.78289 -0.247598 0.247598 1.78289 248.119 87.8656)" d="M1.98548 0.277981L6.02909 0.184244"></path>
  <path fill="#1B2B56" transform="matrix(1.78669 -0.21848 0.065544 0.536007 268.063 85.4815)" d="M-1.91666e-06 -2.49997C1.38071 -2.49997 2.5 -1.38068 2.5 3.05176e-05C2.5 1.38074 1.38071 2.50003 -1.89804e-06 2.50003C-1.38071 2.50003 -2.5 1.38074 -2.5 3.05176e-05C-2.5 -1.38068 -1.38071 -2.49997 -1.91666e-06 -2.49997Z"></path>
  <path fill="#354B89" transform="matrix(1.46507 -0.885005 0.929571 0.72522 259.84 78.5494)" d="M0 -2.50002C1.38071 -2.50002 2.5 -1.38073 2.5 -1.51098e-05C2.5 1.3807 1.38071 2.49998 0 2.49998C-1.38071 2.49998 -2.5 1.3807 -2.5 -1.54078e-05C-2.5 -1.38073 -1.38071 -2.50002 0 -2.50002Z"></path>
  <path fill="#354B89" transform="matrix(2.16254 0.296937 -0.629837 1.0733 243.868 79.489)" d="M0 -2.98534C1.68306 -2.98534 3.04744 -1.64876 3.04744 -9.08208e-08C3.04744 1.64876 1.68306 2.98534 0 2.98534C-1.68306 2.98534 -3.04744 1.64876 -3.04744 9.08208e-08C-3.04744 -1.64876 -1.68306 -2.98534 0 -2.98534Z"></path>
  <path fill="none" stroke="white" stroke-width="5" stroke-linecap="round" stroke-linejoin="round" transform="matrix(1.5 0 0 1.5 158.539 362.24)" d=""></path>
</svg>