<?xml version="1.0" encoding="utf-8"?>
<svg xmlns="http://www.w3.org/2000/svg" xmlns:xlink="http://www.w3.org/1999/xlink" width="512" height="512">
  <path fill="none" stroke="black" stroke-width="7" stroke-linejoin="round" transform="matrix(1.8 3.72529e-09 -3.72529e-09 1.8 210.879 409.868)" d="M0.317585 -46.251C18.5418 -46.0446 31.0869 -38.646 30.9048 5.64317C31.2269 34.6589 23.8797 44.6777 13.3629 44.4096C2.84604 44.1416 -5.79298 44.2439 -16.1262 44.3244C-26.589 44.2253 -31.97 33.0858 -32.2918 4.05704C-32.3961 -42.4394 -17.9066 -46.4575 0.317585 -46.251Z"></path>
  <path fill="none" stroke="black" stroke-width="7" stroke-linejoin="round" transform="matrix(-2.15345 -3.29802e-07 -3.27096e-07 2.13577 356.081 273.696)" d="M23.4597 -58.5392C26.8293 -54.0443 32.9559 -38.8976 32.9131 -34.9702C32.8703 -31.0428 37.2704 -22.1284 35.9905 2.20679C34.7746 31.0707 30.3415 54.1601 5.07727 53.2399C-10.7798 52.5608 -22.2526 28.6285 -21.0367 -0.235381C-19.5124 -36.4224 6.18082 -64.8054 23.4597 -58.5392Z"></path>
  <path fill="none" stroke="black" stroke-width="7" stroke-linejoin="round" transform="matrix(1.79976 0.0293645 -0.0293645 1.79976 266.376 274.862)" d="M0.209625 -80.0966C37.3348 -80.0966 84.5 -60 84.5 9.53674e-07C84.5 41.1452 46.7396 76.2788 0.209625 76.2788C-62.1658 76.2788 -84 60.12 -84 9.53674e-07C-84 -71.2881 -50.5087 -80.0966 0.209625 -80.0966Z"></path>
  <path fill="none" stroke="black" stroke-width="7" stroke-linejoin="round" transform="matrix(1.53671 3.18039e-09 -3.72529e-09 1.8 308.979 398.168)" d="M5.00681 -47.971C23.2272 -48.3355 38.7853 -41.736 39.9548 7.82863C40.7183 21.6687 35.0938 45.4915 21.416 45.581C7.73822 45.6706 1.60277 45.7107 -10.5989 45.7906C-22.8006 45.8705 -25.2636 22.9885 -26.0271 9.14831C-27.5675 -42.6002 -13.2136 -47.6066 5.00681 -47.971Z"></path>
  <path fill="#6C88D9" transform="matrix(-2.15345 -3.29802e-07 -3.27096e-07 2.13577 356.081 273.696)" d="M23.4597 -58.5392C26.8293 -54.0443 32.9559 -38.8976 32.9131 -34.9702C32.8703 -31.0428 37.2704 -22.1284 35.9905 2.20679C34.7746 31.0707 30.3415 54.1601 5.07727 53.2399C-10.7798 52.5608 -22.2526 28.6285 -21.0367 -0.235381C-19.5124 -36.4224 6.18082 -64.8054 23.4597 -58.5392Z"></path>
  <path fill="#5170C8" transform="matrix(1.53671 3.18039e-09 -3.72529e-09 1.8 308.979 398.168)" d="M5.00681 -47.971C23.2272 -48.3355 38.7853 -41.736 39.9548 7.82863C40.7183 21.6687 35.0938 45.4915 21.416 45.581C7.73822 45.6706 1.60277 45.7107 -10.5989 45.7906C-22.8006 45.8705 -25.2636 22.9885 -26.0271 9.14831C-27.5675 -42.6002 -13.2136 -47.6066 5.00681 -47.971Z"></path>
  <path fill="#839BE0" transform="matrix(1.20328 2.49031e-09 -2.91698e-09 1.40944 308.979 398.168)" d="M6.74285 -48.5602C24.9633 -48.9247 39.9721 -42.2305 41.3918 11.8227C41.377 29.7577 32.8087 44.9929 19.1309 45.0825C5.45304 45.172 5.62839 45.2214 -6.57331 45.3013C-18.775 45.3812 -24.6049 31.0774 -24.5901 13.1424C-26.3808 -43.0948 -11.4776 -48.1958 6.74285 -48.5602Z"></path>
  <path fill="#6C88D9" transform="matrix(1.8 3.72529e-09 -3.72529e-09 1.8 210.879 409.868)" d="M0.317585 -46.251C18.5418 -46.0446 31.0869 -38.646 30.9048 5.64317C31.2269 34.6589 23.8797 44.6777 13.3629 44.4096C2.84604 44.1416 -5.79298 44.2439 -16.1262 44.3244C-26.589 44.2253 -31.97 33.0858 -32.2918 4.05704C-32.3961 -42.4394 -17.9066 -46.4575 0.317585 -46.251Z"></path>
  <path fill="#91A8EB" transform="matrix(-1.67686 -2.56813e-07 -3.2026e-07 2.09114 352.092 267.983)" d="M26.7522 -52.11C48.9005 -51.3557 40.6905 -26.7828 37.5428 1.7274C34.3952 30.2376 21.2742 53.1652 5.8241 52.639C-9.62592 52.1127 -20.5326 28.4391 -19.0129 -0.253853C-17.4931 -28.9468 4.6039 -52.8644 26.7522 -52.11Z"></path>
  <path fill="none" stroke="black" stroke-width="7" stroke-miterlimit="4" transform="matrix(1.79976 0.0293645 -0.0293645 1.79976 225.243 112.156)" d="M-1.90735e-06 -29.5C19.0538 -29.5 34.5 -16.1805 34.5 0.25C34.5 16.6805 19.0538 30 -1.90735e-06 30C-19.0538 30 -34.5 16.6805 -34.5 0.25C-34.5 -16.1805 -19.0538 -29.5 -1.90735e-06 -29.5Z"></path>
  <path fill="#6C88D9" transform="matrix(1.79976 0.0293645 -0.0293645 1.79976 266.376 274.862)" d="M0.209625 -80.0966C37.3348 -80.0966 84.5 -60 84.5 9.53674e-07C84.5 41.1452 46.7396 76.2788 0.209625 76.2788C-62.1658 76.2788 -84 60.12 -84 9.53674e-07C-84 -71.2881 -50.5087 -80.0966 0.209625 -80.0966Z"></path>
  <path fill="none" stroke="black" stroke-width="9" stroke-miterlimit="4" transform="translate(256 256)" d="M-57.0667 -201.661C-42.2841 -201.42 -30.4691 -190.89 -30.6771 -178.143C-30.8851 -165.396 -43.0373 -155.258 -57.8199 -155.499C-72.6025 -155.74 -84.4176 -166.269 -84.2096 -179.016C-84.0016 -191.764 -71.8493 -201.902 -57.0667 -201.661Z"></path>
  <path fill="none" stroke="black" stroke-width="9" stroke-miterlimit="4" transform="translate(256 256)" d="M-72.5798 -186.748C-60.2802 -186.548 -50.4497 -177.787 -50.6227 -167.181C-50.7958 -156.575 -60.9068 -148.139 -73.2064 -148.34C-85.506 -148.541 -95.3365 -157.301 -95.1635 -167.908C-94.9904 -178.514 -84.8793 -186.949 -72.5798 -186.748Z"></path>
  <path fill="none" stroke="black" stroke-width="9" stroke-miterlimit="4" transform="translate(256 256)" d="M-92.5869 -211.082C-85.9058 -210.973 -80.566 -206.215 -80.66 -200.453C-80.754 -194.692 -86.2462 -190.11 -92.9273 -190.219C-99.6083 -190.328 -104.948 -195.087 -104.854 -200.848C-104.76 -206.609 -99.2679 -211.191 -92.5869 -211.082Z"></path>
  <path fill="#6C88D9" transform="matrix(1.79976 0.0293645 -0.0293645 1.79976 225.243 112.156)" d="M-1.90735e-06 -29.5C19.0538 -29.5 34.5 -16.1805 34.5 0.25C34.5 16.6805 19.0538 30 -1.90735e-06 30C-19.0538 30 -34.5 16.6805 -34.5 0.25C-34.5 -16.1805 -19.0538 -29.5 -1.90735e-06 -29.5Z"></path>
  <path fill="#6C88D9" transform="matrix(0.775834 0.0126583 -0.0126583 0.775834 198.56 77.2263)" d="M7.62939e-06 -29.5C19.0538 -29.5 34.5 -16.1805 34.5 0.250015C34.5 16.6805 19.0538 30 7.62939e-06 30C-19.0538 30 -34.5 16.6805 -34.5 0.250015C-34.5 -16.1805 -19.0538 -29.5 7.62939e-06 -29.5Z"></path>
  <path fill="#6C88D9" transform="matrix(0.645518 0.0105321 -0.0105321 0.645518 183.11 88.2944)" d="M7.62939e-06 -29.5C19.0538 -29.5 34.5 -16.1805 34.5 0.25C34.5 16.6805 19.0538 30 7.62939e-06 30C-19.0538 30 -34.5 16.6805 -34.5 0.25C-34.5 -16.1805 -19.0538 -29.5 7.62939e-06 -29.5Z"></path>
  <path fill="#6C88D9" transform="matrix(0.35064 0.00572097 -0.00572097 0.35064 163.244 55.2615)" d="M-3.05176e-05 -29.5001C19.0538 -29.5001 34.5 -16.1805 34.5 0.249939C34.5 16.6804 19.0538 29.9999 -3.05176e-05 29.9999C-19.0539 29.9999 -34.5 16.6804 -34.5 0.249939C-34.5 -16.1805 -19.0539 -29.5001 -3.05176e-05 -29.5001Z"></path>
  <path fill="#91A8EB" transform="matrix(1.50913 0.0246226 -0.0246226 1.50913 265.012 274.862)" d="M0.24998 -81.5196C49.8787 -81.2985 84.5 -60 84.5 -9.53674e-07C84.5 41.1452 46.78 74.5 0.25 74.5C-62.1254 74.5 -84 60.12 -84 -9.53674e-07C-84 -71.2881 -62.1254 -81.5196 0.24998 -81.5196Z"></path>
  <clipPath id="cl_139">
    <path d="M269.105 130.713C335.922 131.803 420.218 169.357 418.456 277.343C417.248 351.394 348.256 413.518 264.513 412.151C152.253 410.32 113.431 380.597 115.196 272.395C117.289 144.094 177.824 129.224 269.105 130.713Z"></path>
  </clipPath>
  <g clip-path="url(#cl_139)">
    <path fill="#A6B8EF" transform="matrix(0.805953 0.0131497 -0.0151654 0.929491 315.566 239.74)" d="M0.24998 -81.5196C49.8787 -81.2985 84.5 -60 84.5 1.90735e-06C84.5 41.1452 67.1354 74.5 20.6054 74.5C-41.77 74.5 -84 60.12 -84 1.90735e-06C-84 -71.2881 -62.1254 -81.5197 0.24998 -81.5196Z"></path>
    <path fill="#C1CBE8" transform="matrix(0.197995 -0.202726 0.445703 0.435301 338.666 190.891)" d="M11.5671 -77.0972C58.0971 -77.0972 97.5959 -41.1452 97.5959 -2.05241e-05C97.5959 41.1452 73.4188 83.0524 26.8888 83.0524C-35.4866 83.0524 11.8087 60.12 11.8087 -1.92457e-05C11.8087 -41.1452 -34.9629 -77.0972 11.5671 -77.0972Z"></path>
    <path fill="#C1CBE8" transform="matrix(0.197995 -0.202726 0.184201 0.179903 383.108 255.247)" d="M48.9301 -79.7642C80.6763 -79.0529 77.4946 -42.8888 62.8508 4.00568C48.2069 50.9002 -0.039359 91.2964 -20.4536 67.777C-40.8678 44.2577 -16.8141 31.8032 -0.45893 -5.13878C15.8962 -42.0808 17.1838 -80.4755 48.9301 -79.7642Z"></path>
  </g>
  <path fill="#91A8EB" transform="matrix(1.37947 2.85496e-09 -2.85496e-09 1.37947 210.879 346.868)" d="M0.256088 -0.702179C18.4803 -0.495773 32.0923 -1.13318 31.9576 50.3603C31.4951 75.8441 23.8484 90.3478 13.3316 90.0797C2.81476 89.8117 -5.82429 89.9141 -16.1575 89.9945C-26.5376 90.002 -33.9215 73.2298 -33.459 47.746C-33.6104 -5.95491 -17.9682 -0.908607 0.256088 -0.702179Z"></path>
  <path fill="#91A8EB" transform="matrix(1.79976 0.0293645 -0.0293645 1.79976 225.243 112.156)" d="M-1.90735e-06 -22.5C14.6355 -22.5 26.5 -12.3145 26.5 0.25C26.5 12.8145 14.6355 23 -1.90735e-06 23C-14.6355 23 -26.5 12.8145 -26.5 0.25C-26.5 -12.3145 -14.6355 -22.5 -1.90735e-06 -22.5Z"></path>
  <path fill="none" stroke="black" stroke-width="7" stroke-linecap="round" stroke-linejoin="round" transform="matrix(2.15345 4.45679e-09 -4.42021e-09 2.13577 150.189 283.36)" d="M29.6473 -35.5406C30.3649 -31.3996 32.079 -25.9023 37.126 -18.8068C56.596 -4.28826 79.2972 -19.1111 77.3913 6.30622C76.0944 22.2554 27.7871 34.9611 8.12698 20.2999C-9.42223 0.938111 -10.5961 -28.9658 -3.84911 -46.6947"></path>
  <path fill="#6C88D9" transform="matrix(2.15345 4.45679e-09 -4.42021e-09 2.13577 150.189 283.36)" d="M10.3441 -61.2922C15.2276 -58.5533 26.9014 -47.1937 28.4361 -43.5837C29.9707 -39.9737 27.5532 -32.2651 37.126 -18.8068C56.596 -4.28826 79.2972 -19.1111 77.3913 6.30622C76.0944 22.2554 27.7871 34.9611 8.12698 20.2999C-17.8164 -8.32305 -7.97261 -59.9851 10.3441 -61.2922Z"></path>
  <path fill="#91A8EB" transform="matrix(1.67686 3.47045e-09 -4.32784e-09 2.09114 154.179 277.647)" d="M12.4862 -55.0209C33.1263 -61.5067 28.4974 -33.6807 38.2722 -14.4679C58.3773 2.31931 92.0243 -9.96253 92.353 2.43508C92.6817 14.8327 36.7595 29.5418 12.3678 16.4239C-13.7475 -5.85132 -8.15382 -48.5351 12.4862 -55.0209Z"></path>
  <path fill="#312F2F" transform="matrix(0.272314 -0.470312 0.560781 0.324697 294.055 259.569)" d="M0 -128C70.6925 -128 128 -70.6925 128 0C128 70.6925 70.6925 128 0 128C-70.6925 128 -128 70.6925 -128 0C-128 -70.6925 -70.6925 -128 0 -128Z"></path>
  <path fill="none" stroke="black" stroke-width="7" stroke-miterlimit="4" transform="translate(256 256)" d="M-27.5554 -48.6472C-8.30487 -81.8947 39.4378 -90.2395 79.0808 -67.2859C118.724 -44.3323 135.255 1.22773 116.005 34.4752C96.754 67.7227 49.0113 76.0675 9.36834 53.1139C-30.2747 30.1602 -46.806 -15.3998 -27.5554 -48.6472Z"></path>
  <path fill="none" stroke="black" stroke-width="7" stroke-linejoin="round" transform="translate(256 256)" d="M-27.5554 -48.6472C-27.5554 -48.6472 -32.4912 -40.1227 -33.4865 -38.4038C-48.3697 -11.0133 -50.4805 32.6878 3.19909 63.7687C56.8787 94.8496 97.8533 65.8241 109.835 45.1301C110.831 43.4111 116.005 34.4752 116.005 34.4752C115.725 34.9576 115.405 35.4639 115.044 35.9907"></path>
  <path fill="#DEDEDE" transform="matrix(0.272314 -0.470312 0.560781 0.324697 300.225 248.914)" d="M0 -128C70.6925 -128 128 -70.6925 128 0C128 70.6925 70.6925 128 0 128C-70.6925 128 -128 70.6925 -128 0C-128 -70.6925 -70.6925 -128 0 -128Z"></path>
  <clipPath id="cl_13c">
    <path d="M228.445 207.353C247.695 174.105 295.438 165.76 335.081 188.714C374.724 211.668 391.255 257.228 372.005 290.475C352.754 323.723 305.011 332.068 265.368 309.114C225.725 286.16 209.194 240.6 228.445 207.353Z"></path>
  </clipPath>
  <g clip-path="url(#cl_13c)">
    <path fill="#F2F1F1" transform="matrix(0.441875 -0.33707 0.439747 0.461525 322.637 267.86)" d="M-170.753 -28.5017L169.944 -28.5017L169.944 28.5017L-170.753 28.5017L-170.753 -28.5017Z"></path>
    <path fill="#F2F1F1" transform="matrix(0.441875 -0.33707 0.439747 0.461525 338.832 286.34)" d="M-170.753 -5.22018L169.944 -5.22018L169.944 5.22015L-170.753 5.22015L-170.753 -5.22018Z"></path>
  </g>
  <path fill="#8B8B8B" transform="matrix(0.272314 -0.470312 0.560781 0.324697 301.434 245.532)" d="M0.250004 -87.5C51.4744 -87.5 93 -48.4368 93 -0.25C93 47.9368 51.4744 87 0.250004 87C-50.9744 87 -92.5 47.9368 -92.5 -0.25C-92.5 -48.4368 -50.9744 -87.5 0.250004 -87.5Z"></path>
  <path fill="#B0AFAF" transform="matrix(0.272314 -0.470312 0.560781 0.324697 300.225 248.914)" d="M0 -86C47.4965 -86 86 -47.4965 86 0C86 47.4965 47.4965 86 0 86C-47.4965 86 -86 47.4965 -86 0C-86 -47.4965 -47.4965 -86 0 -86Z"></path>
  <path fill="#8B8B8B" transform="matrix(0.272314 -0.470312 0.560781 0.324697 298.118 247.38)" d="M-52.3281 27.625L-52.3281 -27.668L-46.756 -30.4056L-46.7825 24.7561L-42.4192 24.6238L-47.1315 27.6684L-52.3281 27.625ZM-50.25 21.3164C-54.7526 21.3164 -58.6058 20.4196 -61.8096 18.626C-65.0133 16.8324 -67.4626 14.3337 -69.1572 11.1299C-70.8519 7.9261 -71.6992 4.19661 -71.6992 -0.0585976C-71.6992 -4.31381 -70.8519 -8.0433 -69.1572 -11.2471C-67.4626 -14.4509 -65.0133 -16.9495 -61.8096 -18.7432C-58.6058 -20.5368 -54.7526 -21.4336 -50.25 -21.4336C-47.3802 -21.4336 -44.7826 -21.0625 -42.457 -20.3203C-40.1315 -19.5781 -38.109 -18.5205 -36.3896 -17.1475C-34.6702 -15.7744 -27.78 -10.4694 -25.0591 -8.68546C-26.0599 -7.96244 -28.21 -6.9054 -30.3965 -5.66211C-30.3965 -5.66211 -44.0898 -3.6211 -44.0898 -3.6211C-44.0898 -3.6211 -44.5166 -5.6683 -44.8506 -6.49707C-45.1846 -7.32585 -45.599 -8.02475 -46.0938 -8.59375C-46.5885 -9.16276 -47.1637 -9.58952 -47.8193 -9.87403C-48.4749 -10.1585 -49.2109 -10.3008 -50.0273 -10.3008C-51.3385 -10.3008 -52.4766 -9.92969 -53.4414 -9.1875C-54.4062 -8.44532 -55.1546 -7.31967 -55.6865 -5.81055C-56.2184 -4.30144 -56.4844 -2.40886 -56.4844 -0.132816C-56.4844 2.11849 -56.2184 4.01106 -55.6865 5.54492C-55.1546 7.07877 -54.4062 8.23535 -53.4414 9.01464C-52.4766 9.79394 -51.3385 10.1836 -50.0273 10.1836C-49.2109 10.1836 -48.4749 10.0352 -47.8193 9.73828C-47.1637 9.4414 -46.5824 9.00227 -46.0752 8.42089C-45.568 7.83951 -45.8968 6.99337 -44.8135 6.25C-43.7302 5.50662 -38.8902 1.52308 -38.7417 0.409794C-38.7417 0.409794 -30.3965 5.28515 -30.3965 5.28515C-30.3965 5.28515 -31.2747 9.97949 -32.2891 11.9463C-33.3034 13.9131 -34.6641 15.5954 -36.3711 16.9932C-38.0781 18.3909 -40.1006 19.4609 -42.4385 20.2031C-44.7764 20.9453 -47.3802 21.3164 -50.25 21.3164ZM-24.5332 27.625L-24.5332 16.8633L-3.90039 -0.207035C-3.90039 -0.207035 -1.36459 -2.41504 -0.375004 -3.417C0.61458 -4.41895 1.37532 -5.45182 1.90722 -6.51563C2.43912 -7.57943 2.70507 -8.76693 2.70507 -10.0781C2.70507 -11.4883 2.40201 -12.6943 1.79589 -13.6963C1.18978 -14.6982 0.360998 -15.4714 -0.690434 -16.0156C-1.74187 -16.5599 -2.96029 -16.832 -4.34571 -16.832C-5.73112 -16.832 -6.94955 -16.5537 -8.00098 -15.9971C-9.05241 -15.4404 -6.2922 -13.7058 -5.86801 -12.6284C-7.10779 -11.907 -9.37628 -10.5827 -11.3223 -9.63282C-11.3223 -9.63282 -25.5723 -9.63282 -25.5723 -9.63282C-25.5723 -9.63282 -24.7002 -16.8568 -22.9561 -19.6523C-21.2119 -22.4479 -18.7441 -24.6064 -15.5527 -26.1279C-12.3613 -27.6494 -8.62565 -28.4102 -4.34571 -28.4102C0.0826778 -28.4102 3.91732 -27.7051 7.1582 -26.2949C10.3991 -24.8848 12.904 -22.8994 14.6728 -20.3389C16.4417 -17.7783 17.3262 -14.7786 17.3262 -11.3398C17.3262 -9.21225 16.887 -7.10319 16.0088 -5.0127C15.1305 -2.9222 13.5534 -0.602869 11.2773 1.94531C9.0013 4.49349 5.74804 7.51171 1.51757 11C1.51757 11 -3.67774 15.3047 -3.67774 15.3047L-3.67774 15.6758L17.9199 15.6758L23.3601 24.6526L17.9199 27.625L-24.5332 27.625ZM45.3066 28.3672C41.0514 28.3672 37.2786 27.6188 33.9883 26.1221C30.6979 24.6253 28.1126 22.5534 26.2324 19.9062C24.3522 17.2591 23.3874 14.2161 23.3379 10.7773C23.3379 10.7773 28.8025 7.82546 28.8025 7.82546L37.959 10.7773C37.959 10.7773 38.293 13.14 38.9609 14.0801C39.6289 15.0202 40.5195 15.7438 41.6328 16.251C42.7461 16.7581 43.9707 17.0117 45.3066 17.0117C46.8405 17.0117 48.1826 16.6839 49.333 16.0283C50.4834 15.3727 51.3864 14.4512 52.042 13.2637C52.6976 12.0762 53.0254 10.6784 53.0254 9.07031C53.0254 7.4375 52.6976 6.02115 52.042 4.82129C51.3864 3.62142 50.4834 2.69368 49.333 2.03808C48.1826 1.38248 46.8405 1.05468 45.3066 1.05468C43.6986 1.05468 43.4422 2.31534 43.4422 2.31534C43.4422 2.31534 38.6022 4.02343 37.959 5.35937C37.959 5.35937 24.748 2.76171 24.748 2.76171L26.9004 -27.668L32.366 -30.6324L64.084 -27.668L69.5014 -18.6129L64.084 -15.6445L39.2207 -15.6445L38.1816 -3.47266L38.4785 -3.47266C38.4785 -3.47266 40.8411 -6.54037 42.9687 -7.62891C45.0964 -8.71745 47.5579 -9.26172 50.3535 -9.26172C52.8027 -9.26172 55.0726 -8.82878 57.1631 -7.96289C59.2536 -7.09701 61.0719 -5.86621 62.6182 -4.27051C64.1644 -2.67481 65.3643 -0.78223 66.2178 1.40722C67.0713 3.59668 67.498 6.0026 67.498 8.625C67.498 12.4844 66.5827 15.8984 64.752 18.8672C62.9212 21.8359 60.3421 24.1615 57.0146 25.8437C53.6872 27.526 49.7845 28.3672 45.3066 28.3672Z"></path>
  <path fill="#DEDEDE" transform="matrix(0.272314 -0.470312 0.560781 0.324697 297.236 243.73)" d="M-51.8282 28.625L-51.8282 -26.668L-47.375 -26.668L-47.375 28.625L-51.8282 28.625ZM-49.75 22.3164C-54.2526 22.3164 -58.1058 21.4196 -61.3096 19.626C-64.5134 17.8324 -66.9626 15.3337 -68.6573 12.1299C-70.3519 8.9261 -71.1992 5.19661 -71.1992 0.941402C-71.1992 -3.31381 -70.3519 -7.0433 -68.6573 -10.2471C-66.9626 -13.4509 -64.5134 -15.9495 -61.3096 -17.7432C-58.1058 -19.5368 -54.2526 -20.4336 -49.75 -20.4336C-46.8802 -20.4336 -44.2826 -20.0625 -41.9571 -19.3203C-39.6315 -18.5781 -37.6091 -17.5205 -35.8897 -16.1475C-34.1703 -14.7744 -32.8034 -13.1169 -31.7891 -11.1748C-30.7748 -9.23275 -30.1439 -7.06186 -29.8965 -4.66211C-29.8965 -4.66211 -43.5899 -2.6211 -43.5899 -2.6211C-43.5899 -2.6211 -44.0166 -4.6683 -44.3506 -5.49707C-44.6846 -6.32585 -45.099 -7.02475 -45.5938 -7.59375C-46.0886 -8.16276 -46.6638 -8.58952 -47.3194 -8.87403C-47.975 -9.15854 -48.711 -9.30079 -49.5274 -9.30079C-50.8386 -9.30079 -51.9766 -8.92969 -52.9414 -8.1875C-53.9063 -7.44532 -54.6547 -6.31967 -55.1866 -4.81055C-55.7185 -3.30144 -55.9844 -1.40886 -55.9844 0.867184C-55.9844 3.11849 -55.7185 5.01106 -55.1866 6.54492C-54.6547 8.07877 -53.9063 9.23535 -52.9414 10.0146C-51.9766 10.7939 -50.8386 11.1836 -49.5274 11.1836C-48.711 11.1836 -47.975 11.0352 -47.3194 10.7383C-46.6638 10.4414 -46.0824 10.0023 -45.5752 9.42089C-45.0681 8.83951 -44.6475 8.11588 -44.3135 7.25C-43.9795 6.38411 -43.7383 5.39453 -43.5899 4.28125C-43.5899 4.28125 -29.8965 6.28515 -29.8965 6.28515C-29.8965 6.28515 -30.7748 10.9795 -31.7891 12.9463C-32.8034 14.9131 -34.1641 16.5954 -35.8711 17.9932C-37.5782 19.3909 -39.6006 20.4609 -41.9385 21.2031C-44.2764 21.9453 -46.8802 22.3164 -49.75 22.3164ZM-24.0332 28.625L-24.0332 17.8633L-3.40041 0.792965C-3.40041 0.792965 -0.864603 -1.41504 0.124981 -2.417C1.11456 -3.41895 1.87531 -4.45182 2.40721 -5.51563C2.93911 -6.57943 3.20506 -7.76693 3.20506 -9.07813C3.20506 -10.4883 2.902 -11.6943 2.29588 -12.6963C1.68976 -13.6982 0.860983 -14.4714 -0.190449 -15.0156C-1.24188 -15.5599 -2.46031 -15.832 -3.84572 -15.832C-5.23114 -15.832 -6.44956 -15.5537 -7.501 -14.9971C-8.55243 -14.4404 -9.36884 -13.6302 -9.95021 -12.5664C-10.5316 -11.5026 -10.8223 -10.1914 -10.8223 -8.63282C-10.8223 -8.63282 -25.0723 -8.63282 -25.0723 -8.63282C-25.0723 -8.63282 -24.2002 -15.8568 -22.4561 -18.6523C-20.7119 -21.4479 -18.2442 -23.6064 -15.0528 -25.1279C-11.8613 -26.6494 -8.12567 -27.4102 -3.84572 -27.4102C0.582663 -27.4102 4.4173 -26.7051 7.65818 -25.2949C10.8991 -23.8848 13.404 -21.8994 15.1728 -19.3389C16.9417 -16.7783 17.8262 -13.7786 17.8262 -10.3398C17.8262 -8.21225 17.387 -6.10319 16.5088 -4.0127C15.6305 -1.9222 14.0534 0.397131 11.7773 2.94531C9.50128 5.49349 6.24803 8.51171 2.01756 12C2.01756 12 -3.17775 16.3047 -3.17775 16.3047L-3.17775 16.6758L18.4199 16.6758L18.4199 28.625L-24.0332 28.625ZM45.8066 29.3672C41.5514 29.3672 37.7786 28.6188 34.4883 27.1221C31.1979 25.6253 28.6126 23.5534 26.7324 20.9063C24.8522 18.2591 23.8874 15.2162 23.8379 11.7773C23.8379 11.7773 38.459 11.7773 38.459 11.7773C38.459 11.7773 38.793 14.14 39.4609 15.0801C40.1289 16.0202 41.0195 16.7438 42.1328 17.251C43.2461 17.7581 44.4707 18.0117 45.8066 18.0117C47.3405 18.0117 48.6826 17.6839 49.833 17.0283C50.9834 16.3727 51.8864 15.4512 52.542 14.2637C53.1976 13.0762 53.5254 11.6784 53.5254 10.0703C53.5254 8.4375 53.1976 7.02116 52.542 5.82129C51.8864 4.62142 50.9834 3.69369 49.833 3.03809C48.6826 2.38249 47.3405 2.05469 45.8066 2.05469C44.1986 2.05469 42.7327 2.43815 41.4092 3.20508C40.0856 3.97201 39.1022 5.02344 38.459 6.35938C38.459 6.35938 25.248 3.76172 25.248 3.76172L27.4004 -26.668L64.584 -26.668L64.584 -14.6445L39.7207 -14.6445L38.6816 -2.47265L38.9785 -2.47265C38.9785 -2.47265 41.3411 -5.54036 43.4687 -6.6289C45.5963 -7.71744 48.0579 -8.26171 50.8535 -8.26171C53.3027 -8.26171 55.5726 -7.82877 57.6631 -6.96289C59.7536 -6.097 61.5719 -4.86621 63.1182 -3.2705C64.6644 -1.6748 65.8643 0.217777 66.7178 2.40723C67.5713 4.59668 67.998 7.00261 67.998 9.625C67.998 13.4844 67.0827 16.8984 65.2519 19.8672C63.4212 22.8359 60.8421 25.1615 57.5146 26.8438C54.1872 28.526 50.2845 29.3672 45.8066 29.3672Z"></path>
  <clipPath id="cl_13e">
    <path d="M299.175 277.4L268.168 259.446L269.38 257.352L300.388 275.305L299.175 277.4ZM296.203 274.374C294.977 276.491 293.425 278.012 291.546 278.937C289.668 279.861 287.6 280.202 285.342 279.959C283.084 279.715 280.762 278.903 278.375 277.521C275.989 276.14 274.128 274.53 272.793 272.693C271.458 270.856 270.724 268.892 270.591 266.803C270.457 264.714 271.004 262.611 272.23 260.493C273.011 259.143 273.927 258.042 274.976 257.189C276.026 256.337 277.169 255.729 278.408 255.366C279.646 255.003 280.948 254.899 282.313 255.052C283.678 255.206 285.067 255.614 286.48 256.277C286.48 256.277 283.896 263.379 283.896 263.379C283.896 263.379 282.632 262.915 282.076 262.803C281.52 262.691 281.016 262.659 280.562 262.707C280.108 262.755 279.712 262.887 279.374 263.103C279.036 263.319 278.756 263.619 278.533 264.003C278.176 264.62 278.074 265.275 278.228 265.97C278.381 266.665 278.809 267.382 279.51 268.123C280.212 268.863 281.201 269.602 282.477 270.341C283.739 271.072 284.873 271.562 285.878 271.81C286.883 272.058 287.736 272.081 288.435 271.88C289.135 271.68 289.664 271.271 290.021 270.654C290.243 270.27 290.36 269.876 290.372 269.471C290.384 269.066 290.296 268.65 290.108 268.223C289.92 267.796 289.629 267.363 289.234 266.925C288.84 266.487 288.351 266.052 287.767 265.621C287.767 265.621 292.619 259.831 292.619 259.831C292.619 259.831 295.013 261.768 295.839 262.884C296.666 264 297.239 265.186 297.558 266.443C297.877 267.699 297.926 268.998 297.706 270.338C297.485 271.679 296.984 273.024 296.203 274.374ZM306.744 264.327L300.709 260.833L296.755 245.586C296.755 245.586 296.207 243.677 295.915 242.886C295.622 242.095 295.25 241.402 294.799 240.807C294.347 240.211 293.753 239.7 293.018 239.275C292.227 238.817 291.468 238.568 290.741 238.527C290.014 238.487 289.355 238.626 288.764 238.944C288.172 239.262 287.688 239.746 287.31 240.398C286.933 241.049 286.758 241.713 286.783 242.388C286.809 243.063 287.041 243.71 287.479 244.329C287.918 244.948 288.574 245.51 289.448 246.016C289.448 246.016 285.567 252.718 285.567 252.718C285.567 252.718 281.754 249.963 280.661 248.235C279.568 246.507 279.03 244.645 279.046 242.65C279.062 240.655 279.652 238.651 280.818 236.638C282.024 234.556 283.463 232.981 285.137 231.915C286.81 230.848 288.605 230.315 290.523 230.314C292.441 230.314 294.364 230.872 296.292 231.989C297.485 232.679 298.548 233.571 299.481 234.663C300.415 235.754 301.286 237.249 302.095 239.147C302.904 241.045 303.711 243.555 304.515 246.677C304.515 246.677 305.514 250.518 305.514 250.518L305.722 250.639L311.604 240.481L318.304 244.361L306.744 264.327ZM326.178 231.722C325.02 233.723 323.573 235.254 321.837 236.316C320.102 237.377 318.236 237.921 316.24 237.945C314.243 237.97 312.274 237.436 310.332 236.343C310.332 236.343 314.314 229.466 314.314 229.466C314.314 229.466 315.729 230.076 316.438 230.067C317.148 230.058 317.796 229.874 318.383 229.515C318.971 229.157 319.447 228.663 319.81 228.035C320.228 227.313 320.41 226.576 320.355 225.822C320.301 225.068 320.03 224.344 319.543 223.65C319.055 222.956 318.361 222.348 317.459 221.826C316.543 221.296 315.66 220.99 314.808 220.909C313.957 220.827 313.191 220.951 312.51 221.279C311.829 221.607 311.28 222.132 310.862 222.853C310.424 223.61 310.24 224.424 310.31 225.295C310.379 226.167 310.701 226.971 311.275 227.707C311.275 227.707 306.221 233.077 306.221 233.077L289.743 222.184L299.868 204.696L306.611 208.6L299.84 220.294L306.383 224.734L306.464 224.595C306.464 224.595 305.387 222.488 305.356 221.133C305.325 219.779 305.69 218.445 306.451 217.13C307.118 215.978 307.979 215.051 309.034 214.349C310.089 213.647 311.274 213.192 312.59 212.983C313.906 212.773 315.294 212.824 316.754 213.133C318.214 213.443 319.68 214.023 321.15 214.875C323.315 216.128 324.98 217.667 326.146 219.492C327.313 221.317 327.914 223.285 327.952 225.396C327.989 227.507 327.398 229.616 326.178 231.722Z"></path>
  </clipPath>
  <g clip-path="url(#cl_13e)">
    <path fill="#F2F1F1" transform="matrix(0.441875 -0.33707 0.439747 0.461525 322.637 267.86)" d="M-170.753 -28.5017L169.944 -28.5017L169.944 28.5017L-170.753 28.5017L-170.753 -28.5017Z"></path>
    <path fill="#F2F1F1" transform="matrix(0.441875 -0.33707 0.439747 0.461525 338.832 286.34)" d="M-170.753 -5.22018L169.944 -5.22018L169.944 5.22015L-170.753 5.22015L-170.753 -5.22018Z"></path>
  </g>
  <path fill="#8E8B8B" transform="matrix(0.324697 -0.560781 0.560781 0.324697 228.445 207.353)" d="M-9.53674e-06 3.8147e-06C-9.53674e-06 3.8147e-06 -15.2012 -1.90735e-06 -18.2664 -7.62939e-06C-66.3551 1.30369 -126.35 32.2772 -126.35 128C-126.35 223.723 -55.9022 256 -19 256C-15.9348 256 0 256 7.62939e-06 256C-25.5438 256 -107.35 223.723 -107.35 128C-107.35 32.2772 -25.5439 3.8147e-06 -9.53674e-06 3.8147e-06Z"></path>
  <clipPath id="cl_140">
    <path d="M228.445 207.353C228.445 207.353 223.509 215.877 222.514 217.596C207.63 244.987 205.52 288.688 259.199 319.769C312.879 350.85 353.853 321.824 365.835 301.13C366.831 299.411 372.005 290.475 372.005 290.475C363.711 304.8 319.048 340.195 265.368 309.114C211.689 278.033 220.151 221.677 228.445 207.353Z"></path>
  </clipPath>
  <g clip-path="url(#cl_140)">
    <path fill="#ACABAB" transform="matrix(0.272314 -0.470312 0.560781 0.324697 309.059 306.593)" d="M-105.5 -40.8039L105 -40.8039L105 40.8039L-105.5 40.8039L-105.5 -40.8039Z"></path>
    <path fill="#D6D6D6" transform="matrix(0.272314 -0.470312 0.560781 0.324697 302.6 307.533)" d="M-105.5 -7.02946L105 -7.02946L105 7.02946L-105.5 7.02946L-105.5 -7.02946Z"></path>
    <path fill="#D6D6D6" transform="matrix(0.273089 -0.471649 0.559191 0.323776 289.548 273.82)" d="M-137.32 -30.4789L136.67 -30.4789L136.67 30.4789L-137.32 30.4789L-137.32 -30.4789Z"></path>
  </g>
  <path fill="#91A8EB" transform="matrix(0.606874 0.00990163 -0.00990163 0.606874 198.56 79.4334)" d="M7.62939e-06 -22.5C14.6356 -22.5 26.5 -12.3145 26.5 0.25C26.5 12.8145 14.6356 23 7.62939e-06 23C-14.6355 23 -26.5 12.8145 -26.5 0.25C-26.5 -12.3145 -14.6355 -22.5 7.62939e-06 -22.5Z"></path>
  <path fill="#91A8EB" transform="matrix(0.504938 0.00823846 -0.00823846 0.504938 183.11 90.1308)" d="M1.52164e-05 -22.5C14.6356 -22.5 26.5 -12.3144 26.5 0.25003C26.5 12.8145 14.6356 23 1.53012e-05 23C-14.6355 23 -26.5 12.8145 -26.5 0.250031C-26.5 -12.3144 -14.6355 -22.5 1.52164e-05 -22.5Z"></path>
  <path fill="#91A8EB" transform="matrix(0.274279 0.00447507 -0.00447507 0.274279 164.24 57.3442)" d="M3.05176e-05 -22.4261C14.2962 -22.4261 25.8855 -12.274 25.8855 0.249268C25.8855 12.7726 14.2962 22.9247 3.05176e-05 22.9247C-14.2961 22.9247 -25.8855 12.7726 -25.8855 0.249268C-25.8855 -12.274 -14.2961 -22.4261 3.05176e-05 -22.4261Z"></path>
  <path fill="#C1CBE8" transform="matrix(0.073816 -0.11483 0.26388 0.16963 160.418 54.7441)" d="M0 -11.5C14.6355 -11.5 28.0061 -7.98328 28.0061 -1.63201C28.0061 4.71926 15.5059 0.400185 0.870356 0.400186C-13.7652 0.400185 -26.766 4.37689 -26.766 -1.97439C-26.766 -8.32566 -14.6355 -11.5 0 -11.5Z"></path>
  <path fill="#C1CBE8" transform="matrix(-0.166841 -0.570472 0.880441 -0.257495 182.954 116.506)" d="M0 -11.5C14.6355 -11.5 28.0061 -7.98328 28.0061 -1.63201C28.0061 4.71927 15.5059 0.400186 0.870357 0.400186C-13.7652 0.400184 -26.766 4.37689 -26.766 -1.97439C-26.766 -8.32566 -14.6355 -11.5 0 -11.5Z"></path>
  <path fill="#1B2B56" transform="matrix(1.78669 -0.21848 0.065544 0.536007 240.431 89.0314)" d="M-9.31323e-09 -2.50003C1.38071 -2.50003 2.5 -1.38074 2.5 -3.05176e-05C2.5 1.38068 1.38071 2.49997 9.31323e-09 2.49997C-1.38071 2.49997 -2.5 1.38068 -2.5 -3.05176e-05C-2.5 -1.38074 -1.38071 -2.50003 -9.31323e-09 -2.50003Z"></path>
  <path fill="none" stroke="#1B2B56" stroke-width="0.5" stroke-linecap="round" stroke-linejoin="round" transform="matrix(1.78289 -0.247598 0.247598 1.78289 249.075 87.9198)" d="M1.98548 0.277981L6.02909 0.184244"></path>
  <path fill="#1B2B56" transform="matrix(1.78669 -0.21848 0.065544 0.536007 269.018 85.5357)" d="M-9.31323e-09 -2.50003C1.38071 -2.50003 2.5 -1.38074 2.5 -3.05176e-05C2.5 1.38068 1.38071 2.49997 9.31323e-09 2.49997C-1.38071 2.49997 -2.5 1.38068 -2.5 -3.05176e-05C-2.5 -1.38074 -1.38071 -2.50003 -9.31323e-09 -2.50003Z"></path>
  <path fill="#354B89" transform="matrix(1.46507 -0.885005 0.929571 0.72522 260.796 78.6036)" d="M7.62939e-06 -2.5C1.38072 -2.5 2.50001 -1.38071 2.50001 1.49012e-07C2.50001 1.38071 1.38072 2.5 7.62939e-06 2.5C-1.3807 2.5 -2.49999 1.38071 -2.49999 -1.49012e-07C-2.49999 -1.38071 -1.3807 -2.5 7.62939e-06 -2.5Z"></path>
  <path fill="#354B89" transform="matrix(2.16254 0.296937 -0.629837 1.0733 244.823 79.5431)" d="M0 -2.98532C1.68306 -2.98532 3.04744 -1.64874 3.04744 1.5168e-05C3.04744 1.64877 1.68306 2.98535 0 2.98535C-1.68306 2.98535 -3.04744 1.64877 -3.04744 1.53496e-05C-3.04744 -1.64874 -1.68306 -2.98532 0 -2.98532Z"></path>
  <path fill="none" stroke="white" stroke-width="5" stroke-linecap="round" stroke-linejoin="round" transform="matrix(1.5 0 0 1.5 158.539 362.24)" d=""></path>
</svg>