<?xml version="1.0" encoding="utf-8"?>
<svg xmlns="http://www.w3.org/2000/svg" xmlns:xlink="http://www.w3.org/1999/xlink" width="512" height="512">
  <path fill="none" stroke="black" stroke-width="7" stroke-linejoin="round" transform="matrix(1.8 3.72529e-09 -3.72529e-09 1.8 210.879 409.868)" d="M0.317585 -46.251C18.5418 -46.0446 31.0869 -38.646 30.9048 5.64317C31.2269 34.6589 23.8797 44.6777 13.3629 44.4096C2.84604 44.1416 -5.79298 44.2439 -16.1262 44.3244C-26.589 44.2253 -31.97 33.0858 -32.2918 4.05704C-32.3961 -42.4394 -17.9066 -46.4575 0.317585 -46.251Z"></path>
  <path fill="none" stroke="black" stroke-width="7" stroke-linejoin="round" transform="matrix(-2.15345 -3.29802e-07 -3.27096e-07 2.13577 356.081 273.696)" d="M20.0688 -58.6226C23.4384 -54.1277 29.5651 -38.9809 29.5223 -35.0536C29.4795 -31.1262 33.8795 -22.2117 32.5997 2.12342C31.3838 30.9873 26.9506 54.0767 1.6864 53.1565C-14.1707 52.4775 -25.6435 28.5451 -24.4276 -0.318756C-22.9032 -36.5057 2.78997 -64.8887 20.0688 -58.6226Z"></path>
  <path fill="none" stroke="black" stroke-width="7" stroke-linejoin="round" transform="matrix(1.79976 0.0293645 -0.0293645 1.79976 266.376 274.862)" d="M0.209625 -80.0966C37.3348 -80.0966 84.5 -60 84.5 9.53674e-07C84.5 41.1452 46.7396 76.2788 0.209625 76.2788C-62.1658 76.2788 -84 60.12 -84 9.53674e-07C-84 -71.2881 -50.5087 -80.0966 0.209625 -80.0966Z"></path>
  <path fill="none" stroke="black" stroke-width="7" stroke-linejoin="round" transform="matrix(1.53671 3.18039e-09 -3.72529e-09 1.8 308.979 398.168)" d="M1.57211 -47.9197C19.782 -48.5612 35.4754 -42.1993 37.6788 7.33963C38.731 21.1659 33.6046 45.0704 19.9307 45.3679C6.25701 45.6655 0.123352 45.7989 -12.0747 46.0644C-24.2728 46.3298 -27.2129 23.4889 -28.2651 9.6626C-30.8849 -42.0543 -16.6378 -47.2783 1.57211 -47.9197Z"></path>
  <path fill="#6C88D9" transform="matrix(-2.15345 -3.29802e-07 -3.27096e-07 2.13577 356.081 273.696)" d="M20.0688 -58.6226C23.4384 -54.1277 29.5651 -38.9809 29.5223 -35.0536C29.4795 -31.1262 33.8795 -22.2117 32.5997 2.12342C31.3838 30.9873 26.9506 54.0767 1.6864 53.1565C-14.1707 52.4775 -25.6435 28.5451 -24.4276 -0.318756C-22.9032 -36.5057 2.78997 -64.8887 20.0688 -58.6226Z"></path>
  <path fill="#5170C8" transform="matrix(1.53671 3.18039e-09 -3.72529e-09 1.8 308.979 398.168)" d="M1.57211 -47.9197C19.782 -48.5612 35.4754 -42.1993 37.6788 7.33963C38.731 21.1659 33.6046 45.0704 19.9307 45.3679C6.25701 45.6655 0.123352 45.7989 -12.0747 46.0644C-24.2728 46.3298 -27.2129 23.4889 -28.2651 9.6626C-30.8849 -42.0543 -16.6378 -47.2783 1.57211 -47.9197Z"></path>
  <path fill="#839BE0" transform="matrix(1.20328 2.49031e-09 -2.91698e-09 1.40944 308.979 398.168)" d="M2.62141 -48.502C20.8313 -49.1435 35.9774 -42.6787 38.5248 11.3445C38.8841 29.2768 30.6352 44.6398 16.9614 44.9374C3.28762 45.2349 3.46394 45.2816 -8.73416 45.5471C-20.9322 45.8125 -27.0598 31.5997 -27.4191 13.6674C-30.3829 -42.5337 -15.5885 -47.8606 2.62141 -48.502Z"></path>
  <path fill="#6C88D9" transform="matrix(1.8 3.72529e-09 -3.72529e-09 1.8 210.879 409.868)" d="M0.317585 -46.251C18.5418 -46.0446 31.0869 -38.646 30.9048 5.64317C31.2269 34.6589 23.8797 44.6777 13.3629 44.4096C2.84604 44.1416 -5.79298 44.2439 -16.1262 44.3244C-26.589 44.2253 -31.97 33.0858 -32.2918 4.05704C-32.3961 -42.4394 -17.9066 -46.4575 0.317585 -46.251Z"></path>
  <path fill="#91A8EB" transform="matrix(-1.67686 -2.56813e-07 -3.2026e-07 2.09114 352.092 267.983)" d="M22.3976 -52.1952C44.5459 -51.4408 36.3359 -26.868 33.1882 1.64225C30.0406 30.1525 16.9196 53.08 1.46951 52.5538C-13.9805 52.0276 -24.8872 28.3539 -23.3675 -0.339008C-21.8477 -29.032 0.249348 -52.9495 22.3976 -52.1952Z"></path>
  <path fill="none" stroke="black" stroke-width="7" stroke-miterlimit="4" transform="matrix(1.79976 0.0293645 -0.0293645 1.79976 227.465 112.102)" d="M0 -29.5C19.0538 -29.5 34.5 -16.1805 34.5 0.250008C34.5 16.6805 19.0538 30 0 30C-19.0538 30 -34.5 16.6805 -34.5 0.250008C-34.5 -16.1805 -19.0538 -29.5 0 -29.5Z"></path>
  <path fill="#6C88D9" transform="matrix(1.79976 0.0293645 -0.0293645 1.79976 266.376 274.862)" d="M0.209625 -80.0966C37.3348 -80.0966 84.5 -60 84.5 9.53674e-07C84.5 41.1452 46.7396 76.2788 0.209625 76.2788C-62.1658 76.2788 -84 60.12 -84 9.53674e-07C-84 -71.2881 -50.5087 -80.0966 0.209625 -80.0966Z"></path>
  <path fill="none" stroke="black" stroke-width="9" stroke-miterlimit="4" transform="translate(256 256)" d="M-54.8449 -201.715C-40.0623 -201.474 -28.2472 -190.945 -28.4552 -178.197C-28.6632 -165.45 -40.8155 -155.312 -55.5981 -155.553C-70.3807 -155.794 -82.1957 -166.323 -81.9877 -179.071C-81.7798 -191.818 -69.6275 -201.956 -54.8449 -201.715Z"></path>
  <path fill="none" stroke="black" stroke-width="9" stroke-miterlimit="4" transform="translate(256 256)" d="M-70.3579 -186.803C-58.0583 -186.602 -48.2278 -177.841 -48.4009 -167.235C-48.5739 -156.629 -58.685 -148.194 -70.9846 -148.394C-83.2841 -148.595 -93.1146 -157.356 -92.9416 -167.962C-92.7685 -178.568 -82.6575 -187.003 -70.3579 -186.803Z"></path>
  <path fill="none" stroke="black" stroke-width="9" stroke-miterlimit="4" transform="translate(256 256)" d="M-90.365 -211.137C-83.684 -211.028 -78.3441 -206.269 -78.4381 -200.508C-78.5321 -194.746 -84.0244 -190.164 -90.7054 -190.273C-97.3864 -190.382 -102.726 -195.141 -102.632 -200.902C-102.538 -206.664 -97.046 -211.246 -90.365 -211.137Z"></path>
  <path fill="#6C88D9" transform="matrix(1.79976 0.0293645 -0.0293645 1.79976 227.465 112.102)" d="M0 -29.5C19.0538 -29.5 34.5 -16.1805 34.5 0.250008C34.5 16.6805 19.0538 30 0 30C-19.0538 30 -34.5 16.6805 -34.5 0.250008C-34.5 -16.1805 -19.0538 -29.5 0 -29.5Z"></path>
  <path fill="#6C88D9" transform="matrix(0.775834 0.0126583 -0.0126583 0.775834 200.782 77.1721)" d="M-7.62939e-06 -29.5C19.0538 -29.5 34.5 -16.1805 34.5 0.249985C34.5 16.6805 19.0538 30 -7.62939e-06 30C-19.0538 30 -34.5 16.6805 -34.5 0.249985C-34.5 -16.1805 -19.0538 -29.5 -7.62939e-06 -29.5Z"></path>
  <path fill="#6C88D9" transform="matrix(0.645518 0.0105321 -0.0105321 0.645518 185.331 88.2402)" d="M7.62939e-06 -29.5C19.0538 -29.5 34.5 -16.1805 34.5 0.249969C34.5 16.6804 19.0538 30 7.62939e-06 30C-19.0538 30 -34.5 16.6804 -34.5 0.249969C-34.5 -16.1805 -19.0538 -29.5 7.62939e-06 -29.5Z"></path>
  <path fill="#6C88D9" transform="matrix(0.35064 0.00572097 -0.00572097 0.35064 165.466 55.2073)" d="M0 -29.5001C19.0538 -29.5001 34.5 -16.1805 34.5 0.249939C34.5 16.6804 19.0538 29.9999 0 29.9999C-19.0538 29.9999 -34.5 16.6804 -34.5 0.249939C-34.5 -16.1805 -19.0538 -29.5001 0 -29.5001Z"></path>
  <path fill="#91A8EB" transform="matrix(1.50913 0.0246226 -0.0246226 1.50913 265.012 274.862)" d="M0.24998 -81.5196C49.8787 -81.2985 84.5 -60 84.5 -9.53674e-07C84.5 41.1452 46.78 74.5 0.25 74.5C-62.1254 74.5 -84 60.12 -84 -9.53674e-07C-84 -71.2881 -62.1254 -81.5196 0.24998 -81.5196Z"></path>
  <clipPath id="cl_2a1">
    <path d="M269.105 130.713C335.922 131.803 420.218 169.357 418.456 277.343C417.248 351.394 348.256 413.518 264.513 412.151C152.253 410.32 113.431 380.597 115.196 272.395C117.289 144.094 177.824 129.224 269.105 130.713Z"></path>
  </clipPath>
  <g clip-path="url(#cl_2a1)">
    <path fill="#A6B8EF" transform="matrix(0.805953 0.0131497 -0.0151654 0.929491 320.74 239.74)" d="M0.249972 -81.5196C49.8787 -81.2985 84.5 -60 84.5 0C84.5 41.1452 67.1354 74.5 20.6054 74.5C-41.77 74.5 -84 60.12 -84 0C-84 -71.2881 -62.1254 -81.5197 0.249972 -81.5196Z"></path>
    <path fill="#C1CBE8" transform="matrix(0.197995 -0.202726 0.445703 0.435301 343.84 190.891)" d="M11.5671 -77.0972C58.097 -77.0972 97.5959 -41.1452 97.5959 -2.05241e-05C97.5959 41.1452 73.4187 83.0524 26.8888 83.0524C-35.4867 83.0524 11.8086 60.12 11.8086 -1.92457e-05C11.8086 -41.1452 -34.9629 -77.0972 11.5671 -77.0972Z"></path>
    <path fill="#C1CBE8" transform="matrix(0.197995 -0.202726 0.184201 0.179903 388.282 255.247)" d="M48.93 -79.7642C80.6763 -79.0529 77.4946 -42.8889 62.8508 4.00565C48.2069 50.9001 -0.0393895 91.2963 -20.4536 67.777C-40.8678 44.2576 -16.8141 31.8032 -0.458961 -5.13881C15.8962 -42.0808 17.1838 -80.4755 48.93 -79.7642Z"></path>
  </g>
  <path fill="#91A8EB" transform="matrix(1.37947 2.85496e-09 -2.85496e-09 1.37947 210.879 346.868)" d="M0.256088 -0.702179C18.4803 -0.495773 32.0923 -1.13318 31.9576 50.3603C31.4951 75.8441 23.8484 90.3478 13.3316 90.0797C2.81476 89.8117 -5.82429 89.9141 -16.1575 89.9945C-26.5376 90.002 -33.9215 73.2298 -33.459 47.746C-33.6104 -5.95491 -17.9682 -0.908607 0.256088 -0.702179Z"></path>
  <path fill="#91A8EB" transform="matrix(1.79976 0.0293645 -0.0293645 1.79976 227.465 112.102)" d="M0 -22.5C14.6355 -22.5 26.5 -12.3145 26.5 0.250008C26.5 12.8145 14.6355 23 0 23C-14.6355 23 -26.5 12.8145 -26.5 0.250008C-26.5 -12.3145 -14.6355 -22.5 0 -22.5Z"></path>
  <path fill="none" stroke="black" stroke-width="7" stroke-linecap="round" stroke-linejoin="round" transform="matrix(2.15345 4.45679e-09 -4.42021e-09 2.13577 150.189 283.36)" d="M47.6253 -44.34C52.5956 -40.6273 59.9254 -34.3378 68.7452 -22.0712C85.1565 1.53709 93.2214 25.8436 71.6291 39.1009C58.0212 47.3371 38.5347 34.4875 22.1416 10.9054C8.73636 -7.25985 4.05309 -28.8184 6.97262 -43.6992"></path>
  <path fill="#6C88D9" transform="matrix(2.15345 4.45679e-09 -4.42021e-09 2.13577 150.189 283.36)" d="M18.5942 -60.5539C24.0728 -59.4431 38.6213 -52.2038 41.1726 -49.2359C43.7239 -46.268 54.2117 -42.2845 68.7452 -22.0712C85.1565 1.53709 93.2214 25.8436 71.6291 39.1009C58.0212 47.3371 38.5347 34.4875 22.1416 10.9054C1.32639 -17.301 1.54058 -53.6891 18.5942 -60.5539Z"></path>
  <path fill="#91A8EB" transform="matrix(1.67686 3.47045e-09 -4.32784e-09 2.09114 154.179 277.647)" d="M24.8456 -54.8826C42.0458 -66.0972 62.0338 -45.6456 77.7422 -20.064C93.0841 5.5074 106.09 28.2649 93.7206 35.707C81.3511 43.149 55.1464 30.4621 33.1004 7.83615C10.9881 -14.4789 7.64545 -43.6681 24.8456 -54.8826Z"></path>
  <path fill="#312F2F" transform="matrix(0.540874 -0.0529515 0.0631373 0.644917 321.423 326.63)" d="M-7.62939e-06 -128C70.6924 -128 128 -70.6925 128 9.53674e-07C128 70.6925 70.6924 128 -7.62939e-06 128C-70.6925 128 -128 70.6925 -128 -9.53674e-07C-128 -70.6925 -70.6925 -128 -7.62939e-06 -128Z"></path>
  <path fill="none" stroke="black" stroke-width="7" stroke-miterlimit="4" transform="translate(256 256)" d="M69.5948 -13.1189C107.831 -16.8622 142.445 17.0619 146.908 62.6527C151.372 108.243 123.994 148.237 85.758 151.98C47.5223 155.723 12.9079 121.799 8.44456 76.2083C3.98123 30.6175 31.3591 -9.37561 69.5948 -13.1189Z"></path>
  <path fill="none" stroke="black" stroke-width="7" stroke-linejoin="round" transform="translate(256 256)" d="M69.5948 -13.1189C69.5948 -13.1189 59.7913 -12.1591 57.8145 -11.9656C26.8836 -8.08862 -9.85254 15.6746 -3.80886 77.4079C2.23482 139.141 49.7057 155.509 73.5045 153.179C75.4814 152.986 85.758 151.98 85.758 151.98C85.2032 152.034 84.605 152.069 83.9667 152.083"></path>
  <path fill="#DEDEDE" transform="matrix(0.540874 -0.0529515 0.0631373 0.644917 333.676 325.43)" d="M0 -128C70.6924 -128 128 -70.6925 128 9.53674e-07C128 70.6925 70.6924 128 0 128C-70.6924 128 -128 70.6925 -128 -9.53674e-07C-128 -70.6925 -70.6924 -128 0 -128Z"></path>
  <clipPath id="cl_2a4">
    <path d="M325.595 242.881C363.831 239.138 398.445 273.062 402.908 318.653C407.372 364.243 379.994 404.237 341.758 407.98C303.522 411.723 268.908 377.799 264.445 332.208C259.981 286.618 287.359 246.624 325.595 242.881Z"></path>
  </clipPath>
  <g clip-path="url(#cl_2a4)">
    <path fill="#F2F1F1" transform="matrix(0.531475 0.162492 -0.118595 0.626353 331.35 354.686)" d="M-170.753 -28.5017L169.944 -28.5017L169.944 28.5017L-170.753 28.5017L-170.753 -28.5017Z"></path>
    <path fill="#F2F1F1" transform="matrix(0.531475 0.162492 -0.118595 0.626353 325.778 378.617)" d="M-170.753 -5.22018L169.944 -5.22018L169.944 5.22015L-170.753 5.22015L-170.753 -5.22018Z"></path>
  </g>
  <path fill="#8B8B8B" transform="matrix(0.540874 -0.0529515 0.0631373 0.644917 337.129 324.441)" d="M0.25 -87.5C51.4744 -87.5 93 -48.4369 93 -0.250007C93 47.9368 51.4744 87 0.25 87C-50.9744 87 -92.5 47.9368 -92.5 -0.250008C-92.5 -48.4369 -50.9744 -87.5 0.25 -87.5Z"></path>
  <path fill="#B0AFAF" transform="matrix(0.540874 -0.0529515 0.0631373 0.644917 333.676 325.43)" d="M0 -86C47.4965 -86 86 -47.4965 86 6.4075e-07C86 47.4965 47.4965 86 0 86C-47.4965 86 -86 47.4965 -86 -6.4075e-07C-86 -47.4965 -47.4965 -86 0 -86Z"></path>
  <path fill="#8B8B8B" transform="matrix(0.540874 -0.0529515 0.0631373 0.644917 333.694 322.824)" d="M-52.3281 27.625L-52.3281 -27.668L-46.756 -30.4055L-46.7825 24.7561L-42.4192 24.6238L-47.1315 27.6684L-52.3281 27.625ZM-50.25 21.3164C-54.7526 21.3164 -58.6058 20.4196 -61.8096 18.626C-65.0134 16.8324 -67.4626 14.3337 -69.1572 11.1299C-70.8519 7.92612 -71.6992 4.19663 -71.6992 -0.0585785C-71.6992 -4.31379 -70.8519 -8.04328 -69.1572 -11.2471C-67.4626 -14.4508 -65.0134 -16.9495 -61.8096 -18.7431C-58.6058 -20.5368 -54.7526 -21.4336 -50.25 -21.4336C-47.3802 -21.4336 -44.7826 -21.0625 -42.457 -20.3203C-40.1315 -19.5781 -38.1091 -18.5205 -36.3897 -17.1474C-34.6702 -15.7744 -27.78 -10.4693 -25.0591 -8.68544C-26.0599 -7.96243 -28.21 -6.90538 -30.3965 -5.66209C-30.3965 -5.66209 -44.0898 -3.62108 -44.0898 -3.62108C-44.0898 -3.62108 -44.5166 -5.66828 -44.8506 -6.49706C-45.1846 -7.32583 -45.599 -8.02473 -46.0938 -8.59373C-46.5885 -9.16274 -47.1637 -9.5895 -47.8193 -9.87401C-48.4749 -10.1585 -49.2109 -10.3008 -50.0273 -10.3008C-51.3385 -10.3008 -52.4766 -9.92967 -53.4414 -9.18748C-54.4062 -8.4453 -55.1546 -7.31965 -55.6865 -5.81053C-56.2184 -4.30142 -56.4844 -2.40884 -56.4844 -0.132797C-56.4844 2.11851 -56.2184 4.01108 -55.6865 5.54494C-55.1546 7.07879 -54.4062 8.23537 -53.4414 9.01466C-52.4766 9.79396 -51.3385 10.1836 -50.0273 10.1836C-49.2109 10.1836 -48.4749 10.0352 -47.8193 9.7383C-47.1637 9.44142 -46.5824 9.00229 -46.0752 8.42091C-45.568 7.83953 -45.8968 6.99339 -44.8135 6.25002C-43.7302 5.50664 -38.8902 1.52309 -38.7417 0.409813C-38.7417 0.409813 -30.3965 5.28517 -30.3965 5.28517C-30.3965 5.28517 -31.2747 9.97951 -32.2891 11.9463C-33.3034 13.9131 -34.6641 15.5954 -36.3711 16.9932C-38.0781 18.391 -40.1006 19.461 -42.4385 20.2031C-44.7764 20.9453 -47.3802 21.3164 -50.25 21.3164ZM-24.5332 27.625L-24.5332 16.8633L-3.90038 -0.207016C-3.90038 -0.207016 -1.36458 -2.41502 -0.374994 -3.41698C0.61459 -4.41893 1.37533 -5.45181 1.90723 -6.51561C2.43913 -7.57941 2.70508 -8.76691 2.70508 -10.0781C2.70508 -11.4883 2.40202 -12.6943 1.7959 -13.6963C1.18979 -14.6982 0.361008 -15.4713 -0.690424 -16.0156C-1.74186 -16.5599 -2.96028 -16.832 -4.3457 -16.832C-5.73111 -16.832 -6.94954 -16.5537 -8.00097 -15.9971C-9.0524 -15.4404 -6.29219 -13.7058 -5.868 -12.6284C-7.10778 -11.907 -9.37627 -10.5827 -11.3223 -9.6328C-11.3223 -9.6328 -25.5723 -9.6328 -25.5723 -9.6328C-25.5723 -9.6328 -24.7002 -16.8568 -22.956 -19.6523C-21.2119 -22.4479 -18.7441 -24.6064 -15.5527 -26.1279C-12.3613 -27.6494 -8.62564 -28.4101 -4.3457 -28.4101C0.0826874 -28.4101 3.91732 -27.7051 7.15821 -26.2949C10.3991 -24.8848 12.904 -22.8994 14.6729 -20.3389C16.4417 -17.7783 17.3262 -14.7786 17.3262 -11.3398C17.3262 -9.21223 16.887 -7.10317 16.0088 -5.01268C15.1305 -2.92219 13.5534 -0.60285 11.2773 1.94533C9.0013 4.49351 5.74805 7.51173 1.51758 11C1.51758 11 -3.67773 15.3047 -3.67773 15.3047L-3.67773 15.6758L17.9199 15.6758L23.3601 24.6527L17.9199 27.625L-24.5332 27.625ZM45.3066 28.3672C41.0514 28.3672 37.2786 27.6188 33.9883 26.1221C30.6979 24.6253 28.1126 22.5534 26.2324 19.9062C24.3522 17.2591 23.3874 14.2161 23.3379 10.7773C23.3379 10.7773 28.8025 7.82547 28.8025 7.82547L37.959 10.7773C37.959 10.7773 38.293 13.14 38.9609 14.0801C39.6289 15.0202 40.5195 15.7438 41.6328 16.251C42.7461 16.7581 43.9707 17.0117 45.3066 17.0117C46.8405 17.0117 48.1826 16.6839 49.333 16.0283C50.4834 15.3727 51.3864 14.4512 52.042 13.2637C52.6976 12.0762 53.0254 10.6784 53.0254 9.07031C53.0254 7.4375 52.6976 6.02116 52.042 4.82129C51.3864 3.62142 50.4834 2.69369 49.333 2.03809C48.1826 1.38249 46.8405 1.05469 45.3066 1.05469C43.6986 1.05469 43.4423 2.31534 43.4423 2.31534C43.4423 2.31534 38.6022 4.02344 37.959 5.35938C37.959 5.35938 24.748 2.76172 24.748 2.76172L26.9004 -27.668L32.366 -30.6324L64.084 -27.668L69.5014 -18.6129L64.084 -15.6445L39.2207 -15.6445L38.1816 -3.47266L38.4785 -3.47266C38.4785 -3.47266 40.8411 -6.54037 42.9688 -7.62891C45.0964 -8.71745 47.5579 -9.26172 50.3535 -9.26172C52.8027 -9.26172 55.0726 -8.82877 57.1631 -7.96289C59.2536 -7.097 61.0719 -5.86621 62.6182 -4.27051C64.1644 -2.6748 65.3643 -0.782227 66.2178 1.40723C67.0713 3.59668 67.498 6.0026 67.498 8.625C67.498 12.4844 66.5827 15.8984 64.752 18.8672C62.9212 21.8359 60.3421 24.1615 57.0146 25.8438C53.6872 27.526 49.7845 28.3672 45.3066 28.3672Z"></path>
  <path fill="#DEDEDE" transform="matrix(0.540874 -0.0529515 0.0631373 0.644917 336.146 319.98)" d="M-51.8281 28.625L-51.8281 -26.668L-47.375 -26.668L-47.375 28.625L-51.8281 28.625ZM-49.75 22.3164C-54.2526 22.3164 -58.1058 21.4196 -61.3096 19.626C-64.5134 17.8324 -66.9626 15.3337 -68.6572 12.1299C-70.3519 8.92612 -71.1992 5.19662 -71.1992 0.941414C-71.1992 -3.3138 -70.3519 -7.04329 -68.6572 -10.2471C-66.9626 -13.4508 -64.5134 -15.9495 -61.3096 -17.7432C-58.1058 -19.5368 -54.2526 -20.4336 -49.75 -20.4336C-46.8802 -20.4336 -44.2826 -20.0625 -41.957 -19.3203C-39.6315 -18.5781 -37.6091 -17.5205 -35.8897 -16.1475C-34.1703 -14.7744 -32.8034 -13.1169 -31.7891 -11.1748C-30.7748 -9.23274 -30.1439 -7.06184 -29.8965 -4.6621C-29.8965 -4.6621 -43.5899 -2.62109 -43.5899 -2.62109C-43.5899 -2.62109 -44.0166 -4.66829 -44.3506 -5.49706C-44.6846 -6.32584 -45.099 -7.02473 -45.5938 -7.59374C-46.0886 -8.16275 -46.6638 -8.58951 -47.3194 -8.87402C-47.975 -9.15852 -48.711 -9.30077 -49.5274 -9.30077C-50.8386 -9.30077 -51.9766 -8.92968 -52.9414 -8.18749C-53.9063 -7.4453 -54.6546 -6.31966 -55.1865 -4.81054C-55.7184 -3.30142 -55.9844 -1.40885 -55.9844 0.867195C-55.9844 3.1185 -55.7184 5.01108 -55.1865 6.54493C-54.6546 8.07878 -53.9063 9.23536 -52.9414 10.0147C-51.9766 10.794 -50.8386 11.1836 -49.5274 11.1836C-48.711 11.1836 -47.975 11.0352 -47.3194 10.7383C-46.6638 10.4414 -46.0824 10.0023 -45.5752 9.42091C-45.0681 8.83953 -44.6475 8.11589 -44.3135 7.25001C-43.9795 6.38412 -43.7383 5.39454 -43.5899 4.28126C-43.5899 4.28126 -29.8965 6.28516 -29.8965 6.28516C-29.8965 6.28516 -30.7748 10.9795 -31.7891 12.9463C-32.8034 14.9131 -34.1641 16.5954 -35.8711 17.9932C-37.5781 19.391 -39.6006 20.4609 -41.9385 21.2031C-44.2764 21.9453 -46.8802 22.3164 -49.75 22.3164ZM-24.0332 28.625L-24.0332 17.8633L-3.40038 0.792961C-3.40038 0.792961 -0.864578 -1.41505 0.125006 -2.417C1.11459 -3.41895 1.87533 -4.45183 2.40723 -5.51563C2.93913 -6.57944 3.20508 -7.76694 3.20508 -9.07813C3.20508 -10.4883 2.90202 -11.6943 2.2959 -12.6963C1.68979 -13.6982 0.861008 -14.4714 -0.190424 -15.0156C-1.24186 -15.5599 -2.46028 -15.832 -3.8457 -15.832C-5.23111 -15.832 -6.44954 -15.5537 -7.50097 -14.9971C-8.5524 -14.4404 -9.36881 -13.6302 -9.95019 -12.5664C-10.5316 -11.5026 -10.8223 -10.1914 -10.8223 -8.63282C-10.8223 -8.63282 -25.0723 -8.63282 -25.0723 -8.63282C-25.0723 -8.63282 -24.2002 -15.8568 -22.456 -18.6524C-20.7119 -21.4479 -18.2441 -23.6065 -15.0527 -25.1279C-11.8613 -26.6494 -8.12564 -27.4102 -3.8457 -27.4102C0.582687 -27.4102 4.41732 -26.7051 7.65821 -25.2949C10.8991 -23.8848 13.404 -21.8994 15.1729 -19.3389C16.9417 -16.7783 17.8262 -13.7787 17.8262 -10.3399C17.8262 -8.21225 17.387 -6.1032 16.5088 -4.0127C15.6305 -1.92221 14.0534 0.397127 11.7773 2.9453C9.5013 5.49348 6.24805 8.51171 2.01758 12C2.01758 12 -3.17773 16.3047 -3.17773 16.3047L-3.17773 16.6758L18.4199 16.6758L18.4199 28.625L-24.0332 28.625ZM45.8066 29.3672C41.5514 29.3672 37.7786 28.6188 34.4883 27.1221C31.1979 25.6253 28.6126 23.5534 26.7324 20.9063C24.8522 18.2591 23.8874 15.2162 23.8379 11.7774C23.8379 11.7774 38.459 11.7774 38.459 11.7774C38.459 11.7774 38.793 14.14 39.4609 15.0801C40.1289 16.0202 41.0195 16.7438 42.1328 17.251C43.2461 17.7581 44.4707 18.0117 45.8066 18.0117C47.3405 18.0117 48.6826 17.6839 49.833 17.0283C50.9834 16.3727 51.8864 15.4512 52.542 14.2637C53.1976 13.0762 53.5254 11.6784 53.5254 10.0703C53.5254 8.43751 53.1976 7.02117 52.542 5.8213C51.8864 4.62143 50.9834 3.69369 49.833 3.03809C48.6826 2.38249 47.3405 2.0547 45.8066 2.0547C44.1986 2.0547 42.7327 2.43816 41.4092 3.20509C40.0856 3.97201 39.1022 5.02345 38.459 6.35938C38.459 6.35938 25.248 3.76173 25.248 3.76173L27.4004 -26.668L64.584 -26.668L64.584 -14.6445L39.7207 -14.6445L38.6816 -2.47265L38.9785 -2.47265C38.9785 -2.47265 41.3411 -5.54036 43.4688 -6.6289C45.5964 -7.71744 48.0579 -8.26171 50.8535 -8.26171C53.3027 -8.26171 55.5726 -7.82877 57.6631 -6.96288C59.7536 -6.097 61.5719 -4.8662 63.1182 -3.2705C64.6644 -1.6748 65.8643 0.217781 66.7178 2.40723C67.5713 4.59669 67.998 7.00261 67.998 9.62501C67.998 13.4844 67.0827 16.8984 65.252 19.8672C63.4212 22.8359 60.8421 25.1615 57.5146 26.8438C54.1872 28.526 50.2845 29.3672 45.8066 29.3672Z"></path>
  <clipPath id="cl_2a6">
    <path d="M309.921 341.185L306.43 305.526L308.838 305.29L312.329 340.949L309.921 341.185ZM310.647 337.007C308.211 337.245 306.071 336.871 304.224 335.883C302.378 334.896 300.896 333.415 299.777 331.438C298.658 329.462 297.964 327.101 297.696 324.357C297.427 321.613 297.65 319.163 298.364 317.007C299.079 314.851 300.246 313.11 301.865 311.784C303.485 310.457 305.512 309.675 307.948 309.436C309.5 309.284 310.928 309.386 312.233 309.742C313.537 310.097 314.698 310.672 315.715 311.467C316.731 312.261 317.575 313.258 318.247 314.456C318.918 315.655 319.396 317.022 319.682 318.556C319.682 318.556 312.404 320.598 312.404 320.598C312.404 320.598 312.044 319.3 311.811 318.783C311.578 318.266 311.31 317.838 311.006 317.497C310.703 317.156 310.365 316.911 309.992 316.763C309.619 316.614 309.212 316.561 308.771 316.604C308.062 316.674 307.47 316.973 306.995 317.503C306.52 318.033 306.186 318.798 305.993 319.8C305.801 320.801 305.777 322.036 305.92 323.504C306.062 324.956 306.326 326.162 306.71 327.123C307.095 328.084 307.573 328.79 308.144 329.242C308.715 329.693 309.355 329.884 310.064 329.815C310.506 329.772 310.894 329.637 311.23 329.411C311.566 329.185 311.853 328.871 312.09 328.469C312.328 328.067 312.51 327.578 312.636 327.002C312.762 326.426 312.83 325.775 312.84 325.049C312.84 325.049 320.373 325.616 320.373 325.616C320.373 325.616 320.194 328.69 319.77 330.012C319.345 331.335 318.715 332.492 317.88 333.483C317.045 334.475 316.019 335.272 314.801 335.875C313.584 336.477 312.199 336.855 310.647 337.007ZM324.954 339.713L324.275 332.773L334.357 320.671C334.357 320.671 335.589 319.113 336.061 318.415C336.533 317.716 336.879 317.01 337.1 316.295C337.32 315.581 337.389 314.801 337.306 313.956C337.217 313.046 336.977 312.284 336.586 311.67C336.195 311.056 335.698 310.602 335.095 310.306C334.492 310.011 333.816 309.9 333.066 309.973C332.317 310.047 331.676 310.291 331.142 310.705C330.609 311.12 330.218 311.686 329.971 312.402C329.724 313.119 329.649 313.98 329.748 314.986C329.748 314.986 322.04 315.74 322.04 315.74C322.04 315.74 322.056 311.035 322.823 309.14C323.589 307.245 324.788 305.722 326.418 304.572C328.048 303.421 330.021 302.733 332.335 302.506C334.731 302.272 336.849 302.523 338.691 303.261C340.533 303.999 342.013 305.147 343.132 306.705C344.25 308.262 344.918 310.15 345.135 312.368C345.269 313.74 345.165 315.123 344.822 316.518C344.479 317.913 343.772 319.492 342.702 321.256C341.632 323.02 340.063 325.138 337.995 327.612C337.995 327.612 335.457 330.663 335.457 330.663L335.48 330.903L347.162 329.759L347.916 337.465L324.954 339.713ZM362.776 336.494C360.474 336.719 358.386 336.436 356.512 335.645C354.638 334.854 353.109 333.655 351.925 332.047C350.741 330.44 350.027 328.528 349.783 326.313C349.783 326.313 357.691 325.539 357.691 325.539C357.691 325.539 358.021 327.045 358.442 327.616C358.862 328.187 359.39 328.606 360.024 328.874C360.658 329.143 361.336 329.241 362.059 329.17C362.889 329.089 363.594 328.807 364.175 328.323C364.755 327.839 365.186 327.197 365.465 326.397C365.745 325.596 365.834 324.677 365.732 323.64C365.629 322.587 365.363 321.691 364.932 320.952C364.502 320.213 363.955 319.662 363.291 319.301C362.628 318.939 361.881 318.798 361.051 318.879C360.182 318.965 359.413 319.29 358.746 319.854C358.078 320.419 357.613 321.149 357.349 322.045C357.349 322.045 350.04 321.069 350.04 321.069L349.283 301.33L369.394 299.361L370.153 307.116L356.705 308.432L356.912 316.337L357.072 316.321C357.072 316.321 358.157 314.218 359.239 313.403C360.321 312.588 361.618 312.107 363.13 311.959C364.455 311.829 365.71 311.988 366.895 312.436C368.08 312.884 369.142 313.581 370.079 314.529C371.016 315.476 371.784 316.633 372.384 318C372.984 319.366 373.367 320.895 373.532 322.587C373.776 325.076 373.496 327.326 372.694 329.337C371.891 331.349 370.643 332.985 368.949 334.246C367.256 335.508 365.198 336.257 362.776 336.494Z"></path>
  </clipPath>
  <g clip-path="url(#cl_2a6)">
    <path fill="#F2F1F1" transform="matrix(0.531475 0.162492 -0.118595 0.626353 331.35 354.686)" d="M-170.753 -28.5017L169.944 -28.5017L169.944 28.5017L-170.753 28.5017L-170.753 -28.5017Z"></path>
  </g>
  <path fill="#8E8B8B" transform="matrix(0.644917 -0.0631374 0.0631373 0.644917 325.595 242.881)" d="M1.52588e-05 -1.90735e-06C1.52588e-05 -1.90735e-06 -15.2012 0 -18.2664 -7.62939e-06C-66.3551 1.30369 -126.35 32.2772 -126.35 128C-126.35 223.723 -55.9022 256 -19 256C-15.9348 256 1.52588e-05 256 1.52588e-05 256C-25.5438 256 -107.35 223.723 -107.35 128C-107.35 32.2772 -25.5438 -1.90735e-06 1.52588e-05 -1.90735e-06Z"></path>
  <clipPath id="cl_2a8">
    <path d="M325.595 242.881C325.595 242.881 315.791 243.841 313.815 244.034C282.884 247.911 246.147 271.675 252.191 333.408C258.235 395.141 305.706 411.509 329.505 409.179C331.481 408.986 341.758 407.98 341.758 407.98C325.284 409.593 270.488 393.942 264.445 332.208C258.401 270.475 309.121 244.494 325.595 242.881Z"></path>
  </clipPath>
  <g clip-path="url(#cl_2a8)">
    <path fill="#ACABAB" transform="matrix(0.540874 -0.0529515 0.0631373 0.644917 291.965 366.235)" d="M-105.5 -40.8039L105 -40.8039L105 40.8039L-105.5 40.8039L-105.5 -40.8039Z"></path>
    <path fill="#D6D6D6" transform="matrix(0.540874 -0.0529515 0.0631373 0.644917 287.435 361.536)" d="M-105.5 -7.02946L105 -7.02946L105 7.02946L-105.5 7.02946L-105.5 -7.02946Z"></path>
    <path fill="#D6D6D6" transform="matrix(0.542412 -0.0531021 0.0629583 0.643088 307.217 331.276)" d="M-137.32 -30.4789L136.67 -30.4789L136.67 30.4789L-137.32 30.4789L-137.32 -30.4789Z"></path>
  </g>
  <path fill="#91A8EB" transform="matrix(0.606874 0.00990163 -0.00990163 0.606874 200.782 79.3792)" d="M0 -22.5C14.6355 -22.5 26.5 -12.3145 26.5 0.25C26.5 12.8145 14.6355 23 0 23C-14.6355 23 -26.5 12.8145 -26.5 0.25C-26.5 -12.3145 -14.6355 -22.5 0 -22.5Z"></path>
  <path fill="#91A8EB" transform="matrix(0.504938 0.00823846 -0.00823846 0.504938 185.331 90.0766)" d="M-4.23752e-08 -22.5C14.6355 -22.5 26.5 -12.3145 26.5 0.25C26.5 12.8145 14.6355 23 4.23752e-08 23C-14.6355 23 -26.5 12.8145 -26.5 0.25C-26.5 -12.3145 -14.6355 -22.5 -4.23752e-08 -22.5Z"></path>
  <path fill="#91A8EB" transform="matrix(0.274279 0.00447507 -0.00447507 0.274279 166.462 57.2901)" d="M0 -22.4261C14.2962 -22.4261 25.8855 -12.274 25.8855 0.249268C25.8855 12.7726 14.2962 22.9247 0 22.9247C-14.2962 22.9247 -25.8855 12.7726 -25.8855 0.249268C-25.8855 -12.274 -14.2962 -22.4261 0 -22.4261Z"></path>
  <path fill="#C1CBE8" transform="matrix(0.073816 -0.11483 0.26388 0.16963 162.703 54.6899)" d="M-6.10352e-05 -11.5C14.6355 -11.5 28.006 -7.98328 28.006 -1.63201C28.006 4.71926 15.5058 0.400185 0.870295 0.400186C-13.7652 0.400185 -26.7661 4.37689 -26.7661 -1.97439C-26.7661 -8.32566 -14.6356 -11.5 -6.10352e-05 -11.5Z"></path>
  <path fill="#C1CBE8" transform="matrix(-0.166841 -0.570472 0.880441 -0.257495 185.238 116.452)" d="M-3.05176e-05 -11.5C14.6355 -11.5 28.0061 -7.98328 28.0061 -1.63201C28.0061 4.71927 15.5059 0.400186 0.870326 0.400186C-13.7652 0.400184 -26.7661 4.37689 -26.7661 -1.97439C-26.7661 -8.32566 -14.6356 -11.5 -3.05176e-05 -11.5Z"></path>
  <path fill="#1B2B56" transform="matrix(1.78669 -0.21848 0.065544 0.536007 239.516 88.9772)" d="M-4.8615e-07 -2.50003C1.38071 -2.50003 2.5 -1.38074 2.5 -3.05176e-05C2.5 1.38068 1.38071 2.49997 -4.67524e-07 2.49997C-1.38071 2.49997 -2.5 1.38068 -2.5 -3.05176e-05C-2.5 -1.38074 -1.38071 -2.50003 -4.8615e-07 -2.50003Z"></path>
  <path fill="none" stroke="#1B2B56" stroke-width="0.5" stroke-linecap="round" stroke-linejoin="round" transform="matrix(1.78289 -0.247598 0.247598 1.78289 248.16 87.8656)" d="M1.98548 0.277981L6.02909 0.184244"></path>
  <path fill="#1B2B56" transform="matrix(1.78669 -0.21848 0.065544 0.536007 268.104 85.4815)" d="M-9.31323e-09 -2.5C1.38071 -2.5 2.5 -1.38071 2.5 0C2.5 1.38071 1.38071 2.5 9.31323e-09 2.5C-1.38071 2.5 -2.5 1.38071 -2.5 0C-2.5 -1.38071 -1.38071 -2.5 -9.31323e-09 -2.5Z"></path>
  <path fill="#354B89" transform="matrix(1.46507 -0.885005 0.929571 0.72522 259.881 78.5494)" d="M7.62939e-06 -2.5C1.38072 -2.5 2.50001 -1.38071 2.50001 1.49012e-07C2.50001 1.38071 1.38072 2.5 7.62939e-06 2.5C-1.3807 2.5 -2.49999 1.38071 -2.49999 -1.49012e-07C-2.49999 -1.38071 -1.3807 -2.5 7.62939e-06 -2.5Z"></path>
  <path fill="#354B89" transform="matrix(2.16254 0.296937 -0.629837 1.0733 243.908 79.489)" d="M3.8147e-06 -2.98532C1.68306 -2.98532 3.04744 -1.64874 3.04744 1.5168e-05C3.04744 1.64877 1.68306 2.98535 3.8147e-06 2.98535C-1.68305 2.98535 -3.04744 1.64877 -3.04744 1.53496e-05C-3.04744 -1.64874 -1.68305 -2.98532 3.8147e-06 -2.98532Z"></path>
  <path fill="none" stroke="white" stroke-width="5" stroke-linecap="round" stroke-linejoin="round" transform="matrix(1.5 0 0 1.5 158.539 362.24)" d=""></path>
</svg>