<?xml version="1.0" encoding="utf-8"?>
<svg xmlns="http://www.w3.org/2000/svg" xmlns:xlink="http://www.w3.org/1999/xlink" width="512" height="512">
  <path fill="none" stroke="black" stroke-width="7" stroke-linejoin="round" transform="matrix(1.8 3.72529e-09 -3.72529e-09 1.8 210.879 409.868)" d="M0.317585 -46.251C18.5418 -46.0446 31.0869 -38.646 30.9048 5.64317C31.2269 34.6589 23.8797 44.6777 13.3629 44.4096C2.84604 44.1416 -5.79298 44.2439 -16.1262 44.3244C-26.589 44.2253 -31.97 33.0858 -32.2918 4.05704C-32.3961 -42.4394 -17.9066 -46.4575 0.317585 -46.251Z"></path>
  <path fill="none" stroke="black" stroke-width="7" stroke-linejoin="round" transform="matrix(-2.15345 -3.29802e-07 -3.27096e-07 2.13577 356.081 273.696)" d="M22.2762 -58.5683C25.6459 -54.0735 31.7725 -38.9267 31.7297 -34.9993C31.6869 -31.072 36.0869 -22.1575 34.8071 2.17769C33.5912 31.0416 29.158 54.131 3.89381 53.2108C-11.9633 52.5317 -23.4361 28.5994 -22.2202 -0.264487C-20.6958 -36.4515 4.99739 -64.8345 22.2762 -58.5683Z"></path>
  <path fill="none" stroke="black" stroke-width="7" stroke-linejoin="round" transform="matrix(1.79976 0.0293645 -0.0293645 1.79976 266.376 274.862)" d="M0.209625 -80.0966C37.3348 -80.0966 84.5 -60 84.5 9.53674e-07C84.5 41.1452 46.7396 76.2788 0.209625 76.2788C-62.1658 76.2788 -84 60.12 -84 9.53674e-07C-84 -71.2881 -50.5087 -80.0966 0.209625 -80.0966Z"></path>
  <path fill="none" stroke="black" stroke-width="7" stroke-linejoin="round" transform="matrix(1.53671 3.18039e-09 -3.72529e-09 1.8 308.979 398.168)" d="M1.57211 -47.9197C19.782 -48.5612 35.4754 -42.1993 37.6788 7.33963C38.731 21.1659 33.6046 45.0704 19.9307 45.3679C6.25701 45.6655 0.123352 45.7989 -12.0747 46.0644C-24.2728 46.3298 -27.2129 23.4889 -28.2651 9.6626C-30.8849 -42.0543 -16.6378 -47.2783 1.57211 -47.9197Z"></path>
  <path fill="#6C88D9" transform="matrix(-2.15345 -3.29802e-07 -3.27096e-07 2.13577 356.081 273.696)" d="M22.2762 -58.5683C25.6459 -54.0735 31.7725 -38.9267 31.7297 -34.9993C31.6869 -31.072 36.0869 -22.1575 34.8071 2.17769C33.5912 31.0416 29.158 54.131 3.89381 53.2108C-11.9633 52.5317 -23.4361 28.5994 -22.2202 -0.264487C-20.6958 -36.4515 4.99739 -64.8345 22.2762 -58.5683Z"></path>
  <path fill="#5170C8" transform="matrix(1.53671 3.18039e-09 -3.72529e-09 1.8 308.979 398.168)" d="M1.57211 -47.9197C19.782 -48.5612 35.4754 -42.1993 37.6788 7.33963C38.731 21.1659 33.6046 45.0704 19.9307 45.3679C6.25701 45.6655 0.123352 45.7989 -12.0747 46.0644C-24.2728 46.3298 -27.2129 23.4889 -28.2651 9.6626C-30.8849 -42.0543 -16.6378 -47.2783 1.57211 -47.9197Z"></path>
  <path fill="#839BE0" transform="matrix(1.20328 2.49031e-09 -2.91698e-09 1.40944 308.979 398.168)" d="M2.62141 -48.502C20.8313 -49.1435 35.9774 -42.6787 38.5248 11.3445C38.8841 29.2768 30.6352 44.6398 16.9614 44.9374C3.28762 45.2349 3.46394 45.2816 -8.73416 45.5471C-20.9322 45.8125 -27.0598 31.5997 -27.4191 13.6674C-30.3829 -42.5337 -15.5885 -47.8606 2.62141 -48.502Z"></path>
  <path fill="#6C88D9" transform="matrix(1.8 3.72529e-09 -3.72529e-09 1.8 210.879 409.868)" d="M0.317585 -46.251C18.5418 -46.0446 31.0869 -38.646 30.9048 5.64317C31.2269 34.6589 23.8797 44.6777 13.3629 44.4096C2.84604 44.1416 -5.79298 44.2439 -16.1262 44.3244C-26.589 44.2253 -31.97 33.0858 -32.2918 4.05704C-32.3961 -42.4394 -17.9066 -46.4575 0.317585 -46.251Z"></path>
  <path fill="#91A8EB" transform="matrix(-1.67686 -2.56813e-07 -3.2026e-07 2.09114 352.092 267.983)" d="M25.2324 -52.1397C47.3807 -51.3854 39.1707 -26.8126 36.023 1.69767C32.8754 30.2079 19.7544 53.1354 4.30429 52.6092C-11.1457 52.083 -22.0524 28.4094 -20.5327 -0.283581C-19.0129 -28.9765 3.08413 -52.8941 25.2324 -52.1397Z"></path>
  <path fill="none" stroke="black" stroke-width="7" stroke-miterlimit="4" transform="matrix(1.79976 0.0293645 -0.0293645 1.79976 227.465 112.102)" d="M0 -29.5C19.0538 -29.5 34.5 -16.1805 34.5 0.250008C34.5 16.6805 19.0538 30 0 30C-19.0538 30 -34.5 16.6805 -34.5 0.250008C-34.5 -16.1805 -19.0538 -29.5 0 -29.5Z"></path>
  <path fill="#6C88D9" transform="matrix(1.79976 0.0293645 -0.0293645 1.79976 266.376 274.862)" d="M0.209625 -80.0966C37.3348 -80.0966 84.5 -60 84.5 9.53674e-07C84.5 41.1452 46.7396 76.2788 0.209625 76.2788C-62.1658 76.2788 -84 60.12 -84 9.53674e-07C-84 -71.2881 -50.5087 -80.0966 0.209625 -80.0966Z"></path>
  <path fill="none" stroke="black" stroke-width="9" stroke-miterlimit="4" transform="translate(256 256)" d="M-54.8449 -201.715C-40.0623 -201.474 -28.2472 -190.945 -28.4552 -178.197C-28.6632 -165.45 -40.8155 -155.312 -55.5981 -155.553C-70.3807 -155.794 -82.1957 -166.323 -81.9877 -179.071C-81.7798 -191.818 -69.6275 -201.956 -54.8449 -201.715Z"></path>
  <path fill="none" stroke="black" stroke-width="9" stroke-miterlimit="4" transform="translate(256 256)" d="M-70.3579 -186.803C-58.0583 -186.602 -48.2278 -177.841 -48.4009 -167.235C-48.5739 -156.629 -58.685 -148.194 -70.9846 -148.394C-83.2841 -148.595 -93.1146 -157.356 -92.9416 -167.962C-92.7685 -178.568 -82.6575 -187.003 -70.3579 -186.803Z"></path>
  <path fill="none" stroke="black" stroke-width="9" stroke-miterlimit="4" transform="translate(256 256)" d="M-90.365 -211.137C-83.684 -211.028 -78.3441 -206.269 -78.4381 -200.508C-78.5321 -194.746 -84.0244 -190.164 -90.7054 -190.273C-97.3864 -190.382 -102.726 -195.141 -102.632 -200.902C-102.538 -206.664 -97.046 -211.246 -90.365 -211.137Z"></path>
  <path fill="#6C88D9" transform="matrix(1.79976 0.0293645 -0.0293645 1.79976 227.465 112.102)" d="M0 -29.5C19.0538 -29.5 34.5 -16.1805 34.5 0.250008C34.5 16.6805 19.0538 30 0 30C-19.0538 30 -34.5 16.6805 -34.5 0.250008C-34.5 -16.1805 -19.0538 -29.5 0 -29.5Z"></path>
  <path fill="#6C88D9" transform="matrix(0.775834 0.0126583 -0.0126583 0.775834 200.782 77.1721)" d="M-7.62939e-06 -29.5C19.0538 -29.5 34.5 -16.1805 34.5 0.249985C34.5 16.6805 19.0538 30 -7.62939e-06 30C-19.0538 30 -34.5 16.6805 -34.5 0.249985C-34.5 -16.1805 -19.0538 -29.5 -7.62939e-06 -29.5Z"></path>
  <path fill="#6C88D9" transform="matrix(0.645518 0.0105321 -0.0105321 0.645518 185.331 88.2402)" d="M7.62939e-06 -29.5C19.0538 -29.5 34.5 -16.1805 34.5 0.249969C34.5 16.6804 19.0538 30 7.62939e-06 30C-19.0538 30 -34.5 16.6804 -34.5 0.249969C-34.5 -16.1805 -19.0538 -29.5 7.62939e-06 -29.5Z"></path>
  <path fill="#6C88D9" transform="matrix(0.35064 0.00572097 -0.00572097 0.35064 165.466 55.2073)" d="M0 -29.5001C19.0538 -29.5001 34.5 -16.1805 34.5 0.249939C34.5 16.6804 19.0538 29.9999 0 29.9999C-19.0538 29.9999 -34.5 16.6804 -34.5 0.249939C-34.5 -16.1805 -19.0538 -29.5001 0 -29.5001Z"></path>
  <path fill="#91A8EB" transform="matrix(1.50913 0.0246226 -0.0246226 1.50913 265.012 274.862)" d="M0.24998 -81.5196C49.8787 -81.2985 84.5 -60 84.5 -9.53674e-07C84.5 41.1452 46.78 74.5 0.25 74.5C-62.1254 74.5 -84 60.12 -84 -9.53674e-07C-84 -71.2881 -62.1254 -81.5196 0.24998 -81.5196Z"></path>
  <clipPath id="cl_26f">
    <path d="M269.105 130.713C335.922 131.803 420.218 169.357 418.456 277.343C417.248 351.394 348.256 413.518 264.513 412.151C152.253 410.32 113.431 380.597 115.196 272.395C117.289 144.094 177.824 129.224 269.105 130.713Z"></path>
  </clipPath>
  <g clip-path="url(#cl_26f)">
    <path fill="#A6B8EF" transform="matrix(0.805953 0.0131497 -0.0151654 0.929491 321.581 239.74)" d="M0.249964 -81.5196C49.8787 -81.2985 84.5 -60 84.5 1.90735e-06C84.5 41.1452 67.1354 74.5 20.6054 74.5C-41.77 74.5 -84 60.12 -84 1.90735e-06C-84 -71.2881 -62.1254 -81.5197 0.249964 -81.5196Z"></path>
    <path fill="#C1CBE8" transform="matrix(0.197995 -0.202726 0.445703 0.435301 344.681 190.891)" d="M11.5671 -77.0972C58.0971 -77.0972 97.5959 -41.1452 97.5959 -1.86167e-05C97.5959 41.1452 73.4188 83.0524 26.8888 83.0524C-35.4866 83.0524 11.8087 60.12 11.8087 -1.73384e-05C11.8087 -41.1452 -34.9629 -77.0972 11.5671 -77.0972Z"></path>
    <path fill="#C1CBE8" transform="matrix(0.197995 -0.202726 0.184201 0.179903 389.123 255.247)" d="M48.93 -79.7642C80.6762 -79.0529 77.4946 -42.8889 62.8507 4.00565C48.2069 50.9001 -0.03942 91.2963 -20.4536 67.777C-40.8678 44.2576 -16.8141 31.8032 -0.458991 -5.13881C15.8961 -42.0808 17.1838 -80.4755 48.93 -79.7642Z"></path>
  </g>
  <path fill="#91A8EB" transform="matrix(1.37947 2.85496e-09 -2.85496e-09 1.37947 210.879 346.868)" d="M0.256088 -0.702179C18.4803 -0.495773 32.0923 -1.13318 31.9576 50.3603C31.4951 75.8441 23.8484 90.3478 13.3316 90.0797C2.81476 89.8117 -5.82429 89.9141 -16.1575 89.9945C-26.5376 90.002 -33.9215 73.2298 -33.459 47.746C-33.6104 -5.95491 -17.9682 -0.908607 0.256088 -0.702179Z"></path>
  <path fill="#91A8EB" transform="matrix(1.79976 0.0293645 -0.0293645 1.79976 227.465 112.102)" d="M0 -22.5C14.6355 -22.5 26.5 -12.3145 26.5 0.250008C26.5 12.8145 14.6355 23 0 23C-14.6355 23 -26.5 12.8145 -26.5 0.250008C-26.5 -12.3145 -14.6355 -22.5 0 -22.5Z"></path>
  <path fill="none" stroke="black" stroke-width="7" stroke-linecap="round" stroke-linejoin="round" transform="matrix(2.15345 4.45679e-09 -4.42021e-09 2.13577 150.189 283.36)" d="M52.4024 -49.8934C57.8314 -47.5382 65.9395 -43.4092 77.166 -34.5483C99.8085 -16.8457 115.643 1.00835 99.968 21.007C90.0484 33.4991 64.8366 28.629 42.1996 10.9307C23.793 -3.27979 13.7061 -23.8495 12.9743 -39.4908"></path>
  <path fill="#6C88D9" transform="matrix(2.15345 4.45679e-09 -4.42021e-09 2.13577 150.189 283.36)" d="M20.1383 -58.7428C25.7206 -59.0008 41.5737 -55.5239 44.7611 -53.2662C47.9486 -51.0084 58.0246 -49.6562 77.166 -34.5483C99.8085 -16.8457 115.643 1.00835 99.968 21.007C90.0484 33.4991 64.8366 28.629 42.1996 10.9307C13.8518 -10.9547 5.23738 -47.9234 20.1383 -58.7428Z"></path>
  <path fill="#91A8EB" transform="matrix(1.67686 3.47045e-09 -4.32784e-09 2.09114 154.179 277.647)" d="M28.0054 -53.8074C41.3129 -68.0246 65.3703 -51.7539 88.7735 -30.817C112.828 -10.0218 135.212 6.08838 126.84 16.5144C118.468 26.9404 85.7705 22.7813 56.396 6.38427C26.9277 -10.5887 14.6979 -39.5901 28.0054 -53.8074Z"></path>
  <path fill="#312F2F" transform="matrix(0.488734 -0.23767 0.283389 0.582748 367.402 284.591)" d="M1.52588e-05 -128C70.6925 -128 128 -70.6925 128 0C128 70.6925 70.6925 128 1.52588e-05 128C-70.6924 128 -128 70.6925 -128 0C-128 -70.6925 -70.6924 -128 1.52588e-05 -128Z"></path>
  <path fill="none" stroke="black" stroke-width="7" stroke-miterlimit="4" transform="translate(256 256)" d="M86.1999 -51.385C120.75 -68.1865 164.998 -48.411 185.032 -7.21511C205.065 33.9807 193.297 80.9969 158.747 97.7984C124.198 114.6 79.9492 94.8244 59.9158 53.6285C39.8823 12.4326 51.6501 -34.5835 86.1999 -51.385Z"></path>
  <path fill="none" stroke="black" stroke-width="7" stroke-linejoin="round" transform="translate(256 256)" d="M86.1999 -51.385C86.1999 -51.385 77.3415 -47.0772 75.5552 -46.2085C47.9011 -31.821 21.7168 3.23064 48.8436 59.0129C75.9704 114.795 126.171 113.64 147.675 103.183C149.462 102.314 158.748 97.7984 158.747 97.7984C158.246 98.0421 157.697 98.2827 157.104 98.5178"></path>
  <path fill="#DEDEDE" transform="matrix(0.488734 -0.23767 0.283389 0.582748 378.474 279.207)" d="M1.52588e-05 -128C70.6925 -128 128 -70.6925 128 0C128 70.6925 70.6925 128 1.52588e-05 128C-70.6924 128 -128 70.6925 -128 0C-128 -70.6925 -70.6924 -128 1.52588e-05 -128Z"></path>
  <clipPath id="cl_272">
    <path d="M342.2 204.615C376.75 187.814 420.998 207.589 441.032 248.785C461.065 289.981 449.297 336.997 414.747 353.798C380.198 370.6 335.949 350.824 315.916 309.629C295.882 268.433 307.65 221.417 342.2 204.615Z"></path>
  </clipPath>
  <g clip-path="url(#cl_272)">
    <path fill="#F2F1F1" transform="matrix(0.554815 -0.0323965 0.106538 0.628516 386.462 307.446)" d="M-170.753 -28.5017L169.944 -28.5017L169.944 28.5017L-170.753 28.5017L-170.753 -28.5017Z"></path>
    <path fill="#F2F1F1" transform="matrix(0.554815 -0.0323965 0.106538 0.628516 389.557 331.822)" d="M-170.753 -5.22015L169.944 -5.22015L169.944 5.22018L-170.753 5.22018L-170.753 -5.22015Z"></path>
  </g>
  <path fill="#8B8B8B" transform="matrix(0.488734 -0.23767 0.283389 0.582748 381.367 277.079)" d="M0.249985 -87.5C51.4744 -87.5 93 -48.4368 93 -0.25C93 47.9368 51.4744 87 0.249985 87C-50.9744 87 -92.5 47.9368 -92.5 -0.25C-92.5 -48.4368 -50.9744 -87.5 0.249985 -87.5Z"></path>
  <path fill="#B0AFAF" transform="matrix(0.488734 -0.23767 0.283389 0.582748 378.474 279.207)" d="M1.52588e-05 -86C47.4965 -86 86 -47.4965 86 0C86 47.4965 47.4965 86 1.52588e-05 86C-47.4965 86 -86 47.4965 -86 0C-86 -47.4965 -47.4965 -86 1.52588e-05 -86Z"></path>
  <path fill="#8B8B8B" transform="matrix(0.488734 -0.23767 0.283389 0.582748 377.585 276.757)" d="M-52.3281 27.625L-52.3281 -27.668L-46.756 -30.4056L-46.7826 24.7561L-42.4192 24.6238L-47.1315 27.6684L-52.3281 27.625ZM-50.25 21.3164C-54.7526 21.3164 -58.6058 20.4196 -61.8096 18.626C-65.0134 16.8324 -67.4626 14.3337 -69.1572 11.1299C-70.8519 7.92611 -71.6992 4.19662 -71.6992 -0.0585938C-71.6992 -4.3138 -70.8519 -8.0433 -69.1572 -11.2471C-67.4626 -14.4508 -65.0134 -16.9495 -61.8096 -18.7432C-58.6058 -20.5368 -54.7526 -21.4336 -50.25 -21.4336C-47.3802 -21.4336 -44.7826 -21.0625 -42.457 -20.3203C-40.1315 -19.5781 -38.1091 -18.5205 -36.3897 -17.1475C-34.6703 -15.7744 -27.7801 -10.4693 -25.0591 -8.68546C-26.0599 -7.96244 -28.21 -6.9054 -30.3965 -5.66211C-30.3965 -5.66211 -44.0899 -3.62109 -44.0899 -3.62109C-44.0899 -3.62109 -44.5166 -5.6683 -44.8506 -6.49707C-45.1846 -7.32584 -45.599 -8.02474 -46.0938 -8.59375C-46.5886 -9.16276 -47.1637 -9.58952 -47.8194 -9.87402C-48.475 -10.1585 -49.211 -10.3008 -50.0274 -10.3008C-51.3386 -10.3008 -52.4766 -9.92969 -53.4414 -9.1875C-54.4063 -8.44531 -55.1546 -7.31966 -55.6865 -5.81055C-56.2184 -4.30143 -56.4844 -2.40885 -56.4844 -0.132812C-56.4844 2.11849 -56.2184 4.01107 -55.6865 5.54492C-55.1546 7.07878 -54.4063 8.23535 -53.4414 9.01465C-52.4766 9.79395 -51.3386 10.1836 -50.0274 10.1836C-49.211 10.1836 -48.475 10.0352 -47.8194 9.73828C-47.1637 9.44141 -46.5824 9.00228 -46.0752 8.4209C-45.568 7.83952 -45.8968 6.99338 -44.8135 6.25C-43.7302 5.50662 -38.8902 1.52308 -38.7417 0.409798C-38.7417 0.409798 -30.3965 5.28516 -30.3965 5.28516C-30.3965 5.28516 -31.2748 9.97949 -32.2891 11.9463C-33.3034 13.9131 -34.6641 15.5954 -36.3711 16.9932C-38.0781 18.3909 -40.1006 19.4609 -42.4385 20.2031C-44.7764 20.9453 -47.3802 21.3164 -50.25 21.3164ZM-24.5332 27.625L-24.5332 16.8633L-3.90041 -0.207031C-3.90041 -0.207031 -1.3646 -2.41504 -0.375015 -3.41699C0.614569 -4.41895 1.37531 -5.45182 1.90721 -6.51562C2.43911 -7.57943 2.70506 -8.76693 2.70506 -10.0781C2.70506 -11.4883 2.402 -12.6943 1.79588 -13.6963C1.18976 -14.6982 0.360987 -15.4714 -0.690445 -16.0156C-1.74188 -16.5599 -2.9603 -16.832 -4.34572 -16.832C-5.73113 -16.832 -6.94956 -16.5537 -8.00099 -15.9971C-9.05242 -15.4404 -6.29222 -13.7058 -5.86802 -12.6284C-7.1078 -11.907 -9.37629 -10.5827 -11.3223 -9.63281C-11.3223 -9.63281 -25.5723 -9.63281 -25.5723 -9.63281C-25.5723 -9.63281 -24.7002 -16.8568 -22.9561 -19.6523C-21.2119 -22.4479 -18.7442 -24.6064 -15.5527 -26.1279C-12.3613 -27.6494 -8.62567 -28.4102 -4.34572 -28.4102C0.0826664 -28.4102 3.9173 -27.7051 7.15819 -26.2949C10.3991 -24.8848 12.904 -22.8994 14.6728 -20.3389C16.4417 -17.7783 17.3262 -14.7786 17.3262 -11.3398C17.3262 -9.21224 16.887 -7.10319 16.0088 -5.0127C15.1305 -2.9222 13.5534 -0.602865 11.2773 1.94531C9.00129 4.49349 5.74803 7.51172 1.51756 11C1.51756 11 -3.67775 15.3047 -3.67775 15.3047L-3.67775 15.6758L17.9199 15.6758L23.36 24.6527L17.9199 27.625L-24.5332 27.625ZM45.3066 28.3672C41.0514 28.3672 37.2786 27.6188 33.9883 26.1221C30.6979 24.6253 28.1126 22.5534 26.2324 19.9062C24.3522 17.2591 23.3874 14.2161 23.3379 10.7773C23.3379 10.7773 28.8025 7.82547 28.8025 7.82547L37.959 10.7773C37.959 10.7773 38.293 13.14 38.9609 14.0801C39.6289 15.0202 40.5195 15.7438 41.6328 16.251C42.7461 16.7581 43.9707 17.0117 45.3066 17.0117C46.8405 17.0117 48.1826 16.6839 49.333 16.0283C50.4834 15.3727 51.3864 14.4512 52.042 13.2637C52.6976 12.0762 53.0254 10.6784 53.0254 9.07031C53.0254 7.4375 52.6976 6.02116 52.042 4.82129C51.3864 3.62142 50.4834 2.69369 49.333 2.03809C48.1826 1.38249 46.8405 1.05469 45.3066 1.05469C43.6986 1.05469 43.4422 2.31534 43.4422 2.31534C43.4422 2.31534 38.6022 4.02344 37.959 5.35938C37.959 5.35938 24.748 2.76172 24.748 2.76172L26.9004 -27.668L32.366 -30.6324L64.084 -27.668L69.5014 -18.6129L64.084 -15.6445L39.2207 -15.6445L38.1816 -3.47266L38.4785 -3.47266C38.4785 -3.47266 40.8411 -6.54037 42.9687 -7.62891C45.0963 -8.71745 47.5579 -9.26172 50.3535 -9.26172C52.8027 -9.26172 55.0726 -8.82877 57.1631 -7.96289C59.2536 -7.097 61.0719 -5.86621 62.6181 -4.27051C64.1644 -2.6748 65.3642 -0.782227 66.2178 1.40723C67.0713 3.59668 67.498 6.0026 67.498 8.625C67.498 12.4844 66.5827 15.8984 64.7519 18.8672C62.9212 21.8359 60.3421 24.1615 57.0146 25.8438C53.6872 27.526 49.7845 28.3672 45.3066 28.3672Z"></path>
  <path fill="#DEDEDE" transform="matrix(0.488734 -0.23767 0.283389 0.582748 378.895 273.238)" d="M-51.8281 28.625L-51.8281 -26.668L-47.375 -26.668L-47.375 28.625L-51.8281 28.625ZM-49.75 22.3164C-54.2526 22.3164 -58.1058 21.4196 -61.3096 19.626C-64.5134 17.8324 -66.9626 15.3337 -68.6572 12.1299C-70.3519 8.92612 -71.1992 5.19662 -71.1992 0.941414C-71.1992 -3.3138 -70.3519 -7.04329 -68.6572 -10.2471C-66.9626 -13.4508 -64.5134 -15.9495 -61.3096 -17.7432C-58.1058 -19.5368 -54.2526 -20.4336 -49.75 -20.4336C-46.8802 -20.4336 -44.2826 -20.0625 -41.957 -19.3203C-39.6315 -18.5781 -37.6091 -17.5205 -35.8897 -16.1475C-34.1703 -14.7744 -32.8034 -13.1169 -31.7891 -11.1748C-30.7748 -9.23274 -30.1439 -7.06184 -29.8965 -4.6621C-29.8965 -4.6621 -43.5899 -2.62109 -43.5899 -2.62109C-43.5899 -2.62109 -44.0166 -4.66829 -44.3506 -5.49706C-44.6846 -6.32584 -45.099 -7.02473 -45.5938 -7.59374C-46.0886 -8.16275 -46.6637 -8.58951 -47.3194 -8.87402C-47.975 -9.15852 -48.711 -9.30077 -49.5274 -9.30077C-50.8386 -9.30077 -51.9766 -8.92968 -52.9414 -8.18749C-53.9063 -7.4453 -54.6546 -6.31966 -55.1865 -4.81054C-55.7184 -3.30142 -55.9844 -1.40885 -55.9844 0.867195C-55.9844 3.1185 -55.7184 5.01108 -55.1865 6.54493C-54.6546 8.07878 -53.9063 9.23536 -52.9414 10.0147C-51.9766 10.794 -50.8386 11.1836 -49.5274 11.1836C-48.711 11.1836 -47.975 11.0352 -47.3194 10.7383C-46.6637 10.4414 -46.0824 10.0023 -45.5752 9.42091C-45.068 8.83953 -44.6475 8.11589 -44.3135 7.25001C-43.9795 6.38412 -43.7383 5.39454 -43.5899 4.28126C-43.5899 4.28126 -29.8965 6.28516 -29.8965 6.28516C-29.8965 6.28516 -30.7748 10.9795 -31.7891 12.9463C-32.8034 14.9131 -34.1641 16.5954 -35.8711 17.9932C-37.5781 19.391 -39.6006 20.4609 -41.9385 21.2031C-44.2764 21.9453 -46.8802 22.3164 -49.75 22.3164ZM-24.0332 28.625L-24.0332 17.8633L-3.40039 0.792976C-3.40039 0.792976 -0.864584 -1.41503 0.125 -2.41698C1.11458 -3.41894 1.87533 -4.45181 2.40723 -5.51562C2.93913 -6.57942 3.20508 -7.76692 3.20508 -9.07812C3.20508 -10.4883 2.90202 -11.6943 2.2959 -12.6963C1.68978 -13.6982 0.861002 -14.4713 -0.19043 -15.0156C-1.24186 -15.5599 -2.46029 -15.832 -3.8457 -15.832C-5.23112 -15.832 -6.44954 -15.5537 -7.50098 -14.9971C-8.55241 -14.4404 -9.36882 -13.6302 -9.9502 -12.5664C-10.5316 -11.5026 -10.8223 -10.1914 -10.8223 -8.6328C-10.8223 -8.6328 -25.0723 -8.6328 -25.0723 -8.6328C-25.0723 -8.6328 -24.2002 -15.8568 -22.4561 -18.6523C-20.7119 -21.4479 -18.2441 -23.6064 -15.0527 -25.1279C-11.8613 -26.6494 -8.12565 -27.4101 -3.8457 -27.4101C0.582682 -27.4101 4.41732 -26.7051 7.6582 -25.2949C10.8991 -23.8848 13.404 -21.8994 15.1729 -19.3389C16.9417 -16.7783 17.8262 -13.7786 17.8262 -10.3398C17.8262 -8.21223 17.387 -6.10318 16.5088 -4.01269C15.6305 -1.92219 14.0534 0.397142 11.7773 2.94532C9.5013 5.4935 6.24805 8.51173 2.01758 12C2.01758 12 -3.17773 16.3047 -3.17773 16.3047L-3.17773 16.6758L18.4199 16.6758L18.4199 28.625L-24.0332 28.625ZM45.8067 29.3672C41.5514 29.3672 37.7787 28.6188 34.4883 27.1221C31.1979 25.6253 28.6126 23.5534 26.7324 20.9063C24.8522 18.2591 23.8874 15.2162 23.8379 11.7774C23.8379 11.7774 38.459 11.7774 38.459 11.7774C38.459 11.7774 38.793 14.14 39.461 15.0801C40.1289 16.0202 41.0195 16.7438 42.1328 17.251C43.2461 17.7581 44.4707 18.0117 45.8067 18.0117C47.3405 18.0117 48.6826 17.6839 49.833 17.0283C50.9834 16.3727 51.8864 15.4512 52.542 14.2637C53.1976 13.0762 53.5254 11.6784 53.5254 10.0703C53.5254 8.43751 53.1976 7.02117 52.542 5.8213C51.8864 4.62143 50.9834 3.69369 49.833 3.03809C48.6826 2.38249 47.3405 2.0547 45.8067 2.0547C44.1986 2.0547 42.7328 2.43816 41.4092 3.20509C40.0856 3.97201 39.1022 5.02345 38.459 6.35938C38.459 6.35938 25.2481 3.76173 25.2481 3.76173L27.4004 -26.668L64.584 -26.668L64.584 -14.6445L39.7207 -14.6445L38.6817 -2.47265L38.9785 -2.47265C38.9785 -2.47265 41.3412 -5.54036 43.4688 -6.6289C45.5964 -7.71744 48.058 -8.26171 50.8535 -8.26171C53.3027 -8.26171 55.5726 -7.82877 57.6631 -6.96288C59.7536 -6.097 61.572 -4.8662 63.1182 -3.2705C64.6644 -1.6748 65.8643 0.217781 66.7178 2.40723C67.5713 4.59669 67.9981 7.00261 67.9981 9.62501C67.9981 13.4844 67.0827 16.8984 65.252 19.8672C63.4212 22.8359 60.8421 25.1615 57.5147 26.8438C54.1872 28.526 50.2845 29.3672 45.8067 29.3672Z"></path>
  <clipPath id="cl_274">
    <path d="M361.676 302.237L346.007 270.015L348.183 268.956L363.853 301.178L361.676 302.237ZM360.904 298.066C358.704 299.137 356.566 299.53 354.492 299.246C352.418 298.962 350.513 298.088 348.777 296.624C347.041 295.16 345.57 293.188 344.364 290.708C343.158 288.228 342.515 285.854 342.436 283.584C342.356 281.314 342.845 279.276 343.902 277.469C344.96 275.663 346.589 274.224 348.789 273.154C350.192 272.472 351.567 272.071 352.914 271.951C354.261 271.83 355.549 271.966 356.778 272.358C358.008 272.749 359.145 273.39 360.191 274.281C361.237 275.171 362.161 276.287 362.962 277.626C362.962 277.626 356.848 282.07 356.848 282.07C356.848 282.07 356.059 280.979 355.661 280.575C355.263 280.171 354.862 279.863 354.459 279.649C354.056 279.435 353.654 279.323 353.253 279.313C352.852 279.303 352.452 279.395 352.053 279.589C351.412 279.9 350.961 280.387 350.7 281.049C350.439 281.711 350.392 282.545 350.56 283.55C350.728 284.556 351.134 285.722 351.779 287.049C352.417 288.361 353.083 289.4 353.778 290.168C354.473 290.935 355.166 291.431 355.858 291.656C356.551 291.881 357.217 291.838 357.858 291.526C358.257 291.332 358.575 291.07 358.811 290.742C359.047 290.413 359.207 290.019 359.29 289.559C359.373 289.1 359.374 288.578 359.292 287.994C359.21 287.41 359.047 286.776 358.804 286.092C358.804 286.092 366.064 284.006 366.064 284.006C366.064 284.006 366.965 286.95 367.027 288.337C367.089 289.724 366.9 291.028 366.462 292.249C366.024 293.469 365.339 294.573 364.407 295.561C363.474 296.549 362.307 297.384 360.904 298.066ZM375.261 295.631L372.211 289.359L377.457 274.508C377.457 274.508 378.071 272.618 378.271 271.799C378.47 270.98 378.55 270.198 378.508 269.451C378.467 268.705 378.26 267.95 377.888 267.186C377.489 266.364 376.999 265.733 376.419 265.293C375.839 264.853 375.214 264.6 374.546 264.532C373.878 264.465 373.206 264.596 372.529 264.925C371.851 265.255 371.335 265.707 370.979 266.281C370.623 266.855 370.453 267.521 370.47 268.279C370.488 269.037 370.717 269.871 371.159 270.779C371.159 270.779 364.195 274.166 364.195 274.166C364.195 274.166 362.574 269.749 362.634 267.705C362.694 265.661 363.288 263.817 364.417 262.172C365.545 260.527 367.156 259.196 369.247 258.178C371.412 257.126 373.486 256.625 375.469 256.677C377.453 256.728 379.24 257.29 380.83 258.362C382.42 259.433 383.702 260.971 384.677 262.975C385.28 264.215 385.663 265.549 385.826 266.975C385.989 268.402 385.876 270.129 385.485 272.155C385.095 274.181 384.36 276.713 383.281 279.751C383.281 279.751 381.962 283.494 381.962 283.494L382.067 283.711L392.623 278.577L396.009 285.541L375.261 295.631ZM409.604 279.464C407.525 280.476 405.469 280.936 403.436 280.846C401.404 280.756 399.553 280.163 397.884 279.067C396.215 277.971 394.881 276.427 393.883 274.435C393.883 274.435 401.028 270.96 401.028 270.96C401.028 270.96 401.861 272.258 402.454 272.647C403.047 273.036 403.687 273.246 404.375 273.277C405.063 273.308 405.733 273.164 406.386 272.847C407.136 272.482 407.699 271.972 408.075 271.317C408.452 270.661 408.632 269.91 408.616 269.062C408.6 268.214 408.364 267.322 407.908 266.385C407.445 265.433 406.884 264.686 406.223 264.142C405.563 263.599 404.859 263.273 404.111 263.164C403.363 263.055 402.614 263.183 401.864 263.548C401.078 263.93 400.471 264.502 400.041 265.264C399.611 266.025 399.429 266.871 399.493 267.803C399.493 267.803 392.3 269.429 392.3 269.429L384.729 251.185L402.902 242.347L406.309 249.354L394.157 255.263L397.099 262.603L397.244 262.533C397.244 262.533 397.529 260.183 398.261 259.043C398.992 257.903 400.041 257.001 401.407 256.337C402.604 255.755 403.836 255.467 405.103 255.475C406.37 255.483 407.608 255.768 408.816 256.33C410.024 256.893 411.146 257.71 412.184 258.783C413.222 259.857 414.112 261.157 414.855 262.685C415.949 264.934 416.469 267.141 416.416 269.307C416.362 271.472 415.761 273.44 414.611 275.211C413.462 276.982 411.793 278.4 409.604 279.464Z"></path>
  </clipPath>
  <g clip-path="url(#cl_274)">
    <path fill="#F2F1F1" transform="matrix(0.554815 -0.0323965 0.106538 0.628516 386.462 307.446)" d="M-170.753 -28.5017L169.944 -28.5017L169.944 28.5017L-170.753 28.5017L-170.753 -28.5017Z"></path>
  </g>
  <path fill="#8E8B8B" transform="matrix(0.582748 -0.283389 0.283389 0.582748 342.2 204.615)" d="M7.62939e-06 1.52588e-05C7.62939e-06 1.52588e-05 -15.2012 0 -18.2664 -1.52588e-05C-66.3551 1.3037 -126.35 32.2772 -126.35 128C-126.35 223.723 -55.9022 256 -19 256C-15.9348 256 1.52588e-05 256 0 256C-25.5438 256 -107.35 223.723 -107.35 128C-107.35 32.2772 -25.5438 7.62939e-06 7.62939e-06 1.52588e-05Z"></path>
  <clipPath id="cl_276">
    <path d="M342.2 204.615C342.2 204.615 333.341 208.923 331.555 209.791C303.901 224.179 277.717 259.231 304.844 315.013C331.97 370.795 382.171 369.64 403.675 359.183C405.462 358.314 414.747 353.798 414.747 353.798C399.862 361.037 343.043 365.411 315.916 309.628C288.789 253.846 327.314 211.854 342.2 204.615Z"></path>
  </clipPath>
  <g clip-path="url(#cl_276)">
    <path fill="#ACABAB" transform="matrix(0.488734 -0.23767 0.283389 0.582748 353.548 331.967)" d="M-105.5 -40.8039L105 -40.8039L105 40.8039L-105.5 40.8039L-105.5 -40.8039Z"></path>
    <path fill="#D6D6D6" transform="matrix(0.488734 -0.23767 0.283389 0.582748 347.668 329.135)" d="M-105.5 -7.02944L105 -7.02944L105 7.02947L-105.5 7.02947L-105.5 -7.02944Z"></path>
    <path fill="#D6D6D6" transform="matrix(0.490124 -0.238346 0.282585 0.581095 355.696 293.886)" d="M-137.32 -30.4789L136.67 -30.4789L136.67 30.4789L-137.32 30.4789L-137.32 -30.4789Z"></path>
  </g>
  <path fill="#91A8EB" transform="matrix(0.606874 0.00990163 -0.00990163 0.606874 200.782 79.3792)" d="M0 -22.5C14.6355 -22.5 26.5 -12.3145 26.5 0.25C26.5 12.8145 14.6355 23 0 23C-14.6355 23 -26.5 12.8145 -26.5 0.25C-26.5 -12.3145 -14.6355 -22.5 0 -22.5Z"></path>
  <path fill="#91A8EB" transform="matrix(0.504938 0.00823846 -0.00823846 0.504938 185.331 90.0766)" d="M-4.23752e-08 -22.5C14.6355 -22.5 26.5 -12.3145 26.5 0.25C26.5 12.8145 14.6355 23 4.23752e-08 23C-14.6355 23 -26.5 12.8145 -26.5 0.25C-26.5 -12.3145 -14.6355 -22.5 -4.23752e-08 -22.5Z"></path>
  <path fill="#91A8EB" transform="matrix(0.274279 0.00447507 -0.00447507 0.274279 166.462 57.2901)" d="M0 -22.4261C14.2962 -22.4261 25.8855 -12.274 25.8855 0.249268C25.8855 12.7726 14.2962 22.9247 0 22.9247C-14.2962 22.9247 -25.8855 12.7726 -25.8855 0.249268C-25.8855 -12.274 -14.2962 -22.4261 0 -22.4261Z"></path>
  <path fill="#C1CBE8" transform="matrix(0.073816 -0.11483 0.26388 0.16963 162.693 54.6899)" d="M0 -11.4999C14.6355 -11.4999 28.0061 -7.98322 28.0061 -1.63195C28.0061 4.71933 15.5059 0.400246 0.870356 0.400247C-13.7652 0.400246 -26.766 4.37695 -26.766 -1.97432C-26.766 -8.3256 -14.6355 -11.4999 0 -11.4999Z"></path>
  <path fill="#C1CBE8" transform="matrix(-0.166841 -0.570472 0.880441 -0.257495 185.229 116.452)" d="M-3.05176e-05 -11.5C14.6355 -11.5 28.0061 -7.98329 28.0061 -1.63201C28.0061 4.71926 15.5059 0.400182 0.870326 0.400182C-13.7652 0.400181 -26.7661 4.37688 -26.7661 -1.97439C-26.7661 -8.32566 -14.6356 -11.5 -3.05176e-05 -11.5Z"></path>
  <path fill="#1B2B56" transform="matrix(1.78669 -0.21848 0.065544 0.536007 240.006 88.9772)" d="M7.05943e-07 -2.5C1.38071 -2.5 2.5 -1.38071 2.5 0C2.5 1.38071 1.38071 2.5 7.24569e-07 2.5C-1.38071 2.5 -2.5 1.38071 -2.5 0C-2.5 -1.38071 -1.38071 -2.5 7.05943e-07 -2.5Z"></path>
  <path fill="none" stroke="#1B2B56" stroke-width="0.5" stroke-linecap="round" stroke-linejoin="round" transform="matrix(1.78289 -0.247598 0.247598 1.78289 248.649 87.8656)" d="M1.98548 0.277974L6.02909 0.184236"></path>
  <path fill="#1B2B56" transform="matrix(1.78669 -0.21848 0.065544 0.536007 268.593 85.4815)" d="M-9.31323e-09 -2.49997C1.38071 -2.49997 2.5 -1.38068 2.5 3.05176e-05C2.5 1.38074 1.38071 2.50003 9.31323e-09 2.50003C-1.38071 2.50003 -2.5 1.38074 -2.5 3.05176e-05C-2.5 -1.38068 -1.38071 -2.49997 -9.31323e-09 -2.49997Z"></path>
  <path fill="#354B89" transform="matrix(1.46507 -0.885005 0.929571 0.72522 260.37 78.5494)" d="M0 -2.5C1.38071 -2.5 2.5 -1.38071 2.5 1.49012e-07C2.5 1.38071 1.38071 2.5 0 2.5C-1.38071 2.5 -2.5 1.38071 -2.5 -1.49012e-07C-2.5 -1.38071 -1.38071 -2.5 0 -2.5Z"></path>
  <path fill="#354B89" transform="matrix(2.16254 0.296937 -0.629837 1.0733 244.398 79.489)" d="M-3.8147e-06 -2.98534C1.68305 -2.98534 3.04744 -1.64876 3.04744 -9.08208e-08C3.04744 1.64876 1.68305 2.98534 -3.8147e-06 2.98534C-1.68306 2.98534 -3.04744 1.64876 -3.04744 9.08208e-08C-3.04744 -1.64876 -1.68306 -2.98534 -3.8147e-06 -2.98534Z"></path>
  <path fill="none" stroke="white" stroke-width="5" stroke-linecap="round" stroke-linejoin="round" transform="matrix(1.5 0 0 1.5 158.539 362.24)" d=""></path>
</svg>