<?xml version="1.0" encoding="utf-8"?>
<svg xmlns="http://www.w3.org/2000/svg" xmlns:xlink="http://www.w3.org/1999/xlink" width="512" height="512">
  <path fill="none" stroke="black" stroke-width="7" stroke-linejoin="round" transform="matrix(1.8 3.72529e-09 -3.72529e-09 1.8 210.879 409.868)" d="M-3.64383 -46.1574C14.5809 -46.0011 27.1462 -38.6369 27.0859 5.65256C27.4878 34.6673 20.1682 44.7062 9.65064 44.4671C-0.866903 44.228 -9.50562 44.354 -19.8385 44.463C-30.3016 44.3926 -35.7132 33.268 -36.1148 4.24017C-36.347 -42.2558 -21.8686 -46.3137 -3.64383 -46.1574Z"></path>
  <path fill="none" stroke="black" stroke-width="7" stroke-linejoin="round" transform="matrix(-2.15345 -3.29802e-07 -3.27096e-07 2.13577 356.081 273.696)" d="M12.4742 -58.8093C15.8438 -54.3144 21.9704 -39.1677 21.9277 -35.2403C21.8849 -31.3129 26.2849 -22.3984 25.0051 1.93672C23.7892 30.8006 19.356 53.89 -5.9082 52.9698C-21.7653 52.2908 -33.2381 28.3584 -32.0222 -0.505455C-30.4978 -36.6924 -4.80465 -65.0754 12.4742 -58.8093Z"></path>
  <path fill="none" stroke="black" stroke-width="7" stroke-linejoin="round" transform="matrix(1.79976 0.0293645 -0.0293645 1.79976 266.376 274.862)" d="M0.209625 -80.0966C37.3348 -80.0966 84.5 -60 84.5 9.53674e-07C84.5 41.1452 46.7396 76.2788 0.209625 76.2788C-62.1658 76.2788 -84 60.12 -84 9.53674e-07C-84 -71.2881 -50.5087 -80.0966 0.209625 -80.0966Z"></path>
  <path fill="none" stroke="black" stroke-width="7" stroke-linejoin="round" transform="matrix(1.53671 3.18039e-09 -3.72529e-09 1.8 308.979 398.168)" d="M1.57211 -47.9197C19.782 -48.5612 35.4754 -42.1993 37.6788 7.33963C38.731 21.1659 33.6046 45.0704 19.9307 45.3679C6.25701 45.6655 0.123352 45.7989 -12.0747 46.0644C-24.2728 46.3298 -27.2129 23.4889 -28.2651 9.6626C-30.8849 -42.0543 -16.6378 -47.2783 1.57211 -47.9197Z"></path>
  <path fill="#6C88D9" transform="matrix(-2.15345 -3.29802e-07 -3.27096e-07 2.13577 356.081 273.696)" d="M12.4742 -58.8093C15.8438 -54.3144 21.9704 -39.1677 21.9277 -35.2403C21.8849 -31.3129 26.2849 -22.3984 25.0051 1.93672C23.7892 30.8006 19.356 53.89 -5.9082 52.9698C-21.7653 52.2908 -33.2381 28.3584 -32.0222 -0.505455C-30.4978 -36.6924 -4.80465 -65.0754 12.4742 -58.8093Z"></path>
  <path fill="#5170C8" transform="matrix(1.53671 3.18039e-09 -3.72529e-09 1.8 308.979 398.168)" d="M1.57211 -47.9197C19.782 -48.5612 35.4754 -42.1993 37.6788 7.33963C38.731 21.1659 33.6046 45.0704 19.9307 45.3679C6.25701 45.6655 0.123352 45.7989 -12.0747 46.0644C-24.2728 46.3298 -27.2129 23.4889 -28.2651 9.6626C-30.8849 -42.0543 -16.6378 -47.2783 1.57211 -47.9197Z"></path>
  <path fill="#839BE0" transform="matrix(1.20328 2.49031e-09 -2.91698e-09 1.40944 308.979 398.168)" d="M2.62141 -48.502C20.8313 -49.1435 35.9774 -42.6787 38.5248 11.3445C38.8841 29.2768 30.6352 44.6398 16.9614 44.9374C3.28762 45.2349 3.46394 45.2816 -8.73416 45.5471C-20.9322 45.8125 -27.0598 31.5997 -27.4191 13.6674C-30.3829 -42.5337 -15.5885 -47.8606 2.62141 -48.502Z"></path>
  <path fill="#6C88D9" transform="matrix(1.8 3.72529e-09 -3.72529e-09 1.8 210.879 409.868)" d="M-3.64383 -46.1574C14.5809 -46.0011 27.1462 -38.6369 27.0859 5.65256C27.4878 34.6673 20.1682 44.7062 9.65064 44.4671C-0.866903 44.228 -9.50562 44.354 -19.8385 44.463C-30.3016 44.3926 -35.7132 33.268 -36.1148 4.24017C-36.347 -42.2558 -21.8686 -46.3137 -3.64383 -46.1574Z"></path>
  <path fill="#91A8EB" transform="matrix(-1.67686 -2.56813e-07 -3.2026e-07 2.09114 352.092 267.983)" d="M12.6445 -52.3859C34.7928 -51.6315 26.5829 -27.0587 23.4352 1.45156C20.2875 29.9618 7.16655 52.8893 -8.28355 52.3631C-23.7336 51.8369 -34.6403 28.1632 -33.1205 -0.529691C-31.6007 -29.2226 -9.50375 -53.1402 12.6445 -52.3859Z"></path>
  <path fill="none" stroke="black" stroke-width="7" stroke-miterlimit="4" transform="matrix(1.79976 0.0293645 -0.0293645 1.79976 217.004 112.357)" d="M1.90735e-06 -29.5C19.0538 -29.5 34.5 -16.1805 34.5 0.25C34.5 16.6805 19.0538 30 1.90735e-06 30C-19.0538 30 -34.5 16.6805 -34.5 0.25C-34.5 -16.1805 -19.0538 -29.5 1.90735e-06 -29.5Z"></path>
  <path fill="#6C88D9" transform="matrix(1.79976 0.0293645 -0.0293645 1.79976 266.376 274.862)" d="M0.209625 -80.0966C37.3348 -80.0966 84.5 -60 84.5 9.53674e-07C84.5 41.1452 46.7396 76.2788 0.209625 76.2788C-62.1658 76.2788 -84 60.12 -84 9.53674e-07C-84 -71.2881 -50.5087 -80.0966 0.209625 -80.0966Z"></path>
  <path fill="none" stroke="black" stroke-width="9" stroke-miterlimit="4" transform="translate(256 256)" d="M-65.3058 -201.46C-50.5232 -201.219 -38.7082 -190.689 -38.9161 -177.942C-39.1241 -165.195 -51.2764 -155.057 -66.059 -155.298C-80.8416 -155.539 -92.6566 -166.068 -92.4487 -178.816C-92.2407 -191.563 -80.0884 -201.701 -65.3058 -201.46Z"></path>
  <path fill="none" stroke="black" stroke-width="9" stroke-miterlimit="4" transform="translate(256 256)" d="M-80.8188 -186.547C-68.5192 -186.347 -58.6888 -177.586 -58.8618 -166.98C-59.0349 -156.374 -69.1459 -147.938 -81.4455 -148.139C-93.7451 -148.34 -103.576 -157.101 -103.403 -167.707C-103.229 -178.313 -93.1184 -186.748 -80.8188 -186.547Z"></path>
  <path fill="none" stroke="black" stroke-width="9" stroke-miterlimit="4" transform="translate(256 256)" d="M-100.826 -210.881C-94.1449 -210.772 -88.805 -206.014 -88.899 -200.253C-88.993 -194.491 -94.4853 -189.909 -101.166 -190.018C-107.847 -190.127 -113.187 -194.886 -113.093 -200.647C-112.999 -206.408 -107.507 -210.99 -100.826 -210.881Z"></path>
  <path fill="#6C88D9" transform="matrix(1.79976 0.0293645 -0.0293645 1.79976 217.004 112.357)" d="M1.90735e-06 -29.5C19.0538 -29.5 34.5 -16.1805 34.5 0.25C34.5 16.6805 19.0538 30 1.90735e-06 30C-19.0538 30 -34.5 16.6805 -34.5 0.25C-34.5 -16.1805 -19.0538 -29.5 1.90735e-06 -29.5Z"></path>
  <path fill="#6C88D9" transform="matrix(0.775834 0.0126583 -0.0126583 0.775834 190.321 77.4272)" d="M-7.62939e-06 -29.5C19.0538 -29.5 34.5 -16.1805 34.5 0.249985C34.5 16.6805 19.0538 30 -7.62939e-06 30C-19.0538 30 -34.5 16.6805 -34.5 0.249985C-34.5 -16.1805 -19.0538 -29.5 -7.62939e-06 -29.5Z"></path>
  <path fill="#6C88D9" transform="matrix(0.645518 0.0105321 -0.0105321 0.645518 174.87 88.4953)" d="M1.52588e-05 -29.5C19.0538 -29.5 34.5 -16.1805 34.5 0.25C34.5 16.6805 19.0538 30 1.52588e-05 30C-19.0538 30 -34.5 16.6805 -34.5 0.25C-34.5 -16.1805 -19.0538 -29.5 1.52588e-05 -29.5Z"></path>
  <path fill="#6C88D9" transform="matrix(0.35064 0.00572097 -0.00572097 0.35064 155.005 55.4624)" d="M0 -29.5C19.0538 -29.5 34.5 -16.1805 34.5 0.25C34.5 16.6805 19.0538 30 0 30C-19.0538 30 -34.5 16.6805 -34.5 0.25C-34.5 -16.1805 -19.0538 -29.5 0 -29.5Z"></path>
  <path fill="#91A8EB" transform="matrix(1.50913 0.0246226 -0.0246226 1.50913 265.012 274.862)" d="M0.24998 -81.5196C49.8787 -81.2985 84.5 -60 84.5 -9.53674e-07C84.5 41.1452 46.78 74.5 0.25 74.5C-62.1254 74.5 -84 60.12 -84 -9.53674e-07C-84 -71.2881 -62.1254 -81.5196 0.24998 -81.5196Z"></path>
  <clipPath id="cl_5d">
    <path d="M269.105 130.713C335.922 131.803 420.218 169.357 418.456 277.343C417.248 351.394 348.256 413.518 264.513 412.151C152.253 410.32 113.431 380.597 115.196 272.395C117.289 144.094 177.824 129.224 269.105 130.713Z"></path>
  </clipPath>
  <g clip-path="url(#cl_5d)">
    <path fill="#A6B8EF" transform="matrix(0.805953 0.0131497 -0.0151654 0.929491 310.78 239.74)" d="M0.249972 -81.5196C49.8787 -81.2985 84.5 -60 84.5 0C84.5 41.1452 67.1354 74.5 20.6054 74.5C-41.77 74.5 -84 60.12 -84 0C-84 -71.2881 -62.1254 -81.5197 0.249972 -81.5196Z"></path>
    <path fill="#C1CBE8" transform="matrix(0.197995 -0.202726 0.445703 0.435301 333.881 190.891)" d="M11.5671 -77.0972C58.0971 -77.0972 97.5959 -41.1452 97.5959 -1.86167e-05C97.5959 41.1452 73.4188 83.0524 26.8888 83.0524C-35.4866 83.0524 11.8087 60.12 11.8087 -1.73384e-05C11.8087 -41.1452 -34.9629 -77.0972 11.5671 -77.0972Z"></path>
    <path fill="#C1CBE8" transform="matrix(0.197995 -0.202726 0.184201 0.179903 378.323 255.247)" d="M48.93 -79.7642C80.6763 -79.0529 77.4946 -42.8888 62.8508 4.00568C48.2069 50.9002 -0.0393895 91.2964 -20.4536 67.777C-40.8678 44.2577 -16.8141 31.8032 -0.458961 -5.13878C15.8962 -42.0808 17.1838 -80.4755 48.93 -79.7642Z"></path>
  </g>
  <path fill="#91A8EB" transform="matrix(1.37947 2.85496e-09 -2.85496e-09 1.37947 210.879 346.868)" d="M-4.87456 -0.579597C13.3502 -0.423279 26.9604 -1.09809 26.9672 50.3956C26.5748 75.8805 18.968 90.4052 8.45047 90.1661C-2.06706 89.927 -10.7058 90.0531 -21.0387 90.1619C-31.4188 90.198 -38.8487 73.4462 -38.4563 47.9612C-38.7554 -5.73914 -23.0993 -0.735893 -4.87456 -0.579597Z"></path>
  <path fill="#91A8EB" transform="matrix(1.79976 0.0293645 -0.0293645 1.79976 217.004 112.357)" d="M1.90735e-06 -22.5C14.6355 -22.5 26.5 -12.3145 26.5 0.25C26.5 12.8145 14.6355 23 1.90735e-06 23C-14.6355 23 -26.5 12.8145 -26.5 0.25C-26.5 -12.3145 -14.6355 -22.5 1.90735e-06 -22.5Z"></path>
  <path fill="none" stroke="black" stroke-width="7" stroke-linecap="round" stroke-linejoin="round" transform="matrix(2.15345 4.45679e-09 -4.42021e-09 2.13577 150.189 283.36)" d="M23.4984 -28.0846C24.5511 -22.6555 25.8002 -14.2909 25.9722 -0.810241C27.4246 27.9593 28.8038 49.7696 3.72616 52.9938C-12.0301 54.9172 -29.441 30.8759 -30.8951 2.07485C-31.4815 -22.1681 -20.4205 -43.587 -7.82372 -53.8864"></path>
  <path fill="#6C88D9" transform="matrix(2.15345 4.45679e-09 -4.42021e-09 2.13577 150.189 283.36)" d="M12.0083 -59.6521C15.4798 -55.2367 21.9512 -40.2364 21.9982 -36.3091C22.0452 -32.3818 25.6702 -24.4868 25.9722 -0.810241C27.4246 27.9593 28.8038 49.7696 3.72616 52.9938C-12.0301 54.9172 -29.441 30.8759 -30.8951 2.07485C-31.7926 -35.0271 -5.40931 -65.5148 12.0083 -59.6521Z"></path>
  <path fill="#91A8EB" transform="matrix(1.67686 3.47045e-09 -4.32784e-09 2.09114 154.179 277.647)" d="M12.1887 -53.2295C34.3527 -52.8849 29.928 -28.7416 24.0719 -1.77447C20.1021 26.2183 24.781 49.098 9.70177 51.847C-5.37738 54.596 -28.232 31.1017 -31.8377 2.7415C-33.8112 -27.0787 -9.97541 -53.5741 12.1887 -53.2295Z"></path>
  <path fill="#312F2F" transform="matrix(0.515433 0.17227 -0.205409 0.614582 190.134 366.729)" d="M7.62939e-06 -128C70.6925 -128 128 -70.6925 128 -1.52588e-05C128 70.6924 70.6925 128 7.62939e-06 128C-70.6924 128 -128 70.6924 -128 -1.52588e-05C-128 -70.6925 -70.6924 -128 7.62939e-06 -128Z"></path>
  <path fill="none" stroke="black" stroke-width="7" stroke-miterlimit="4" transform="translate(256 256)" d="M-27.8963 35.9657C8.54089 48.1439 26.3076 93.2365 11.7868 136.683C-2.73405 180.129 -44.0437 205.477 -80.4809 193.299C-116.918 181.121 -134.685 136.028 -120.164 92.5816C-105.643 49.1353 -64.3335 23.7875 -27.8963 35.9657Z"></path>
  <path fill="none" stroke="black" stroke-width="7" stroke-linejoin="round" transform="translate(256 256)" d="M-27.8963 35.9657C-27.8963 35.9657 -37.2387 32.8433 -39.1225 32.2137C-68.9448 23.1371 -112.179 29.8493 -131.841 88.6789C-151.503 147.508 -114.837 181.816 -92.158 189.396C-90.2741 190.026 -80.4809 193.299 -80.4809 193.299C-81.0096 193.122 -81.5699 192.91 -82.1585 192.662"></path>
  <path fill="#DEDEDE" transform="matrix(0.515433 0.17227 -0.205409 0.614582 201.811 370.632)" d="M0 -128C70.6924 -128 128 -70.6925 128 -1.52588e-05C128 70.6924 70.6924 128 0 128C-70.6924 128 -128 70.6924 -128 -1.52588e-05C-128 -70.6925 -70.6924 -128 0 -128Z"></path>
  <clipPath id="cl_60">
    <path d="M228.104 291.966C264.541 304.144 282.308 349.237 267.787 392.683C253.266 436.129 211.956 461.477 175.519 449.299C139.082 437.121 121.315 392.028 135.836 348.582C150.357 305.135 191.666 279.788 228.104 291.966Z"></path>
  </clipPath>
  <g clip-path="url(#cl_60)">
    <path fill="#F2F1F1" transform="matrix(0.418975 0.365143 -0.363763 0.523506 187.755 396.394)" d="M-170.753 -28.5017L169.944 -28.5017L169.944 28.5017L-170.753 28.5017L-170.753 -28.5017Z"></path>
    <path fill="#F2F1F1" transform="matrix(0.418975 0.365143 -0.363763 0.523506 172.906 415.972)" d="M-170.753 -5.22013L169.944 -5.22013L169.944 5.22019L-170.753 5.22019L-170.753 -5.22013Z"></path>
  </g>
  <path fill="#8B8B8B" transform="matrix(0.515433 0.17227 -0.205409 0.614582 205.367 371.137)" d="M0.249994 -87.5C51.4744 -87.5 93 -48.4368 93 -0.25C93 47.9368 51.4744 87 0.249994 87C-50.9744 87 -92.5 47.9368 -92.5 -0.25C-92.5 -48.4368 -50.9744 -87.5 0.249994 -87.5Z"></path>
  <path fill="#B0AFAF" transform="matrix(0.515433 0.17227 -0.205409 0.614582 201.811 370.632)" d="M0 -86C47.4965 -86 86 -47.4965 86 -1.52588e-05C86 47.4965 47.4965 86 0 86C-47.4965 86 -86 47.4965 -86 -1.52588e-05C-86 -47.4965 -47.4965 -86 0 -86Z"></path>
  <path fill="#8B8B8B" transform="matrix(0.515433 0.17227 -0.205409 0.614582 202.891 368.26)" d="M-52.3281 27.625L-52.3281 -27.668L-46.756 -30.4055L-46.7825 24.7561L-42.4192 24.6238L-47.1315 27.6684L-52.3281 27.625ZM-50.25 21.3164C-54.7526 21.3164 -58.6058 20.4196 -61.8096 18.626C-65.0134 16.8324 -67.4626 14.3337 -69.1572 11.1299C-70.8519 7.92612 -71.6992 4.19663 -71.6992 -0.0585785C-71.6992 -4.31379 -70.8519 -8.04328 -69.1572 -11.2471C-67.4626 -14.4508 -65.0134 -16.9495 -61.8096 -18.7431C-58.6058 -20.5368 -54.7526 -21.4336 -50.25 -21.4336C-47.3802 -21.4336 -44.7826 -21.0625 -42.457 -20.3203C-40.1315 -19.5781 -38.1091 -18.5205 -36.3897 -17.1474C-34.6702 -15.7744 -27.78 -10.4693 -25.0591 -8.68544C-26.0599 -7.96243 -28.21 -6.90538 -30.3965 -5.66209C-30.3965 -5.66209 -44.0898 -3.62108 -44.0898 -3.62108C-44.0898 -3.62108 -44.5166 -5.66828 -44.8506 -6.49706C-45.1846 -7.32583 -45.599 -8.02473 -46.0938 -8.59373C-46.5885 -9.16274 -47.1637 -9.5895 -47.8193 -9.87401C-48.4749 -10.1585 -49.2109 -10.3008 -50.0273 -10.3008C-51.3385 -10.3008 -52.4766 -9.92967 -53.4414 -9.18748C-54.4062 -8.4453 -55.1546 -7.31965 -55.6865 -5.81053C-56.2184 -4.30142 -56.4844 -2.40884 -56.4844 -0.132797C-56.4844 2.11851 -56.2184 4.01108 -55.6865 5.54494C-55.1546 7.07879 -54.4062 8.23537 -53.4414 9.01466C-52.4766 9.79396 -51.3385 10.1836 -50.0273 10.1836C-49.2109 10.1836 -48.4749 10.0352 -47.8193 9.7383C-47.1637 9.44142 -46.5824 9.00229 -46.0752 8.42091C-45.568 7.83953 -45.8968 6.99339 -44.8135 6.25002C-43.7302 5.50664 -38.8902 1.52309 -38.7417 0.409813C-38.7417 0.409813 -30.3965 5.28517 -30.3965 5.28517C-30.3965 5.28517 -31.2747 9.97951 -32.2891 11.9463C-33.3034 13.9131 -34.6641 15.5954 -36.3711 16.9932C-38.0781 18.391 -40.1006 19.461 -42.4385 20.2031C-44.7764 20.9453 -47.3802 21.3164 -50.25 21.3164ZM-24.5332 27.625L-24.5332 16.8633L-3.90039 -0.207031C-3.90039 -0.207031 -1.36459 -2.41504 -0.375002 -3.41699C0.614582 -4.41895 1.37532 -5.45182 1.90722 -6.51562C2.43913 -7.57943 2.70508 -8.76693 2.70508 -10.0781C2.70508 -11.4883 2.40202 -12.6943 1.7959 -13.6963C1.18978 -14.6982 0.361 -15.4714 -0.690432 -16.0156C-1.74186 -16.5599 -2.96029 -16.832 -4.34571 -16.832C-5.73112 -16.832 -6.94955 -16.5537 -8.00098 -15.9971C-9.05241 -15.4404 -6.2922 -13.7058 -5.86801 -12.6284C-7.10779 -11.907 -9.37628 -10.5827 -11.3223 -9.63281C-11.3223 -9.63281 -25.5723 -9.63281 -25.5723 -9.63281C-25.5723 -9.63281 -24.7002 -16.8568 -22.9561 -19.6523C-21.2119 -22.4479 -18.7441 -24.6064 -15.5527 -26.1279C-12.3613 -27.6494 -8.62565 -28.4102 -4.34571 -28.4102C0.0826797 -28.4102 3.91732 -27.7051 7.1582 -26.2949C10.3991 -24.8848 12.904 -22.8994 14.6728 -20.3389C16.4417 -17.7783 17.3262 -14.7786 17.3262 -11.3398C17.3262 -9.21224 16.887 -7.10319 16.0088 -5.0127C15.1305 -2.9222 13.5534 -0.602865 11.2773 1.94531C9.0013 4.49349 5.74804 7.51172 1.51758 11C1.51758 11 -3.67774 15.3047 -3.67774 15.3047L-3.67774 15.6758L17.9199 15.6758L23.3601 24.6527L17.9199 27.625L-24.5332 27.625ZM45.3066 28.3672C41.0514 28.3672 37.2786 27.6188 33.9883 26.1221C30.6979 24.6253 28.1126 22.5534 26.2324 19.9062C24.3522 17.2591 23.3874 14.2161 23.3379 10.7773C23.3379 10.7773 28.8025 7.82547 28.8025 7.82547L37.959 10.7773C37.959 10.7773 38.293 13.14 38.9609 14.0801C39.6289 15.0202 40.5195 15.7438 41.6328 16.251C42.7461 16.7581 43.9707 17.0117 45.3066 17.0117C46.8405 17.0117 48.1826 16.6839 49.333 16.0283C50.4834 15.3727 51.3864 14.4512 52.042 13.2637C52.6976 12.0762 53.0254 10.6784 53.0254 9.07031C53.0254 7.4375 52.6976 6.02116 52.042 4.82129C51.3864 3.62142 50.4834 2.69369 49.333 2.03809C48.1826 1.38249 46.8405 1.05469 45.3066 1.05469C43.6986 1.05469 43.4422 2.31534 43.4422 2.31534C43.4422 2.31534 38.6022 4.02344 37.959 5.35938C37.959 5.35938 24.748 2.76172 24.748 2.76172L26.9004 -27.668L32.366 -30.6324L64.084 -27.668L69.5014 -18.6129L64.084 -15.6445L39.2207 -15.6445L38.1816 -3.47266L38.4785 -3.47266C38.4785 -3.47266 40.8411 -6.54037 42.9687 -7.62891C45.0963 -8.71745 47.5579 -9.26172 50.3535 -9.26172C52.8027 -9.26172 55.0726 -8.82877 57.1631 -7.96289C59.2536 -7.097 61.0719 -5.86621 62.6182 -4.27051C64.1644 -2.6748 65.3642 -0.782227 66.2178 1.40723C67.0713 3.59668 67.498 6.0026 67.498 8.625C67.498 12.4844 66.5827 15.8984 64.7519 18.8672C62.9212 21.8359 60.3421 24.1615 57.0146 25.8438C53.6872 27.526 49.7845 28.3672 45.3066 28.3672Z"></path>
  <path fill="#DEDEDE" transform="matrix(0.515433 0.17227 -0.205409 0.614582 206.29 366.663)" d="M-51.8281 28.625L-51.8281 -26.668L-47.375 -26.668L-47.375 28.625L-51.8281 28.625ZM-49.75 22.3164C-54.2526 22.3164 -58.1058 21.4196 -61.3096 19.626C-64.5134 17.8324 -66.9626 15.3337 -68.6572 12.1299C-70.3519 8.92612 -71.1992 5.19663 -71.1992 0.941422C-71.1992 -3.31379 -70.3519 -7.04328 -68.6572 -10.2471C-66.9626 -13.4508 -64.5134 -15.9495 -61.3096 -17.7431C-58.1058 -19.5368 -54.2526 -20.4336 -49.75 -20.4336C-46.8802 -20.4336 -44.2826 -20.0625 -41.9571 -19.3203C-39.6315 -18.5781 -37.6091 -17.5205 -35.8897 -16.1474C-34.1703 -14.7744 -32.8034 -13.1168 -31.7891 -11.1748C-30.7748 -9.23273 -30.1439 -7.06184 -29.8965 -4.66209C-29.8965 -4.66209 -43.5899 -2.62108 -43.5899 -2.62108C-43.5899 -2.62108 -44.0166 -4.66828 -44.3506 -5.49706C-44.6846 -6.32583 -45.099 -7.02473 -45.5938 -7.59373C-46.0886 -8.16274 -46.6638 -8.5895 -47.3194 -8.87401C-47.975 -9.15852 -48.711 -9.30077 -49.5274 -9.30077C-50.8386 -9.30077 -51.9766 -8.92967 -52.9414 -8.18748C-53.9063 -7.4453 -54.6546 -6.31965 -55.1865 -4.81053C-55.7185 -3.30142 -55.9844 -1.40884 -55.9844 0.867203C-55.9844 3.11851 -55.7185 5.01108 -55.1865 6.54494C-54.6546 8.07879 -53.9063 9.23537 -52.9414 10.0147C-51.9766 10.794 -50.8386 11.1836 -49.5274 11.1836C-48.711 11.1836 -47.975 11.0352 -47.3194 10.7383C-46.6638 10.4414 -46.0824 10.0023 -45.5752 9.42091C-45.0681 8.83953 -44.6475 8.1159 -44.3135 7.25002C-43.9795 6.38413 -43.7383 5.39455 -43.5899 4.28127C-43.5899 4.28127 -29.8965 6.28517 -29.8965 6.28517C-29.8965 6.28517 -30.7748 10.9795 -31.7891 12.9463C-32.8034 14.9131 -34.1641 16.5954 -35.8711 17.9932C-37.5782 19.391 -39.6006 20.461 -41.9385 21.2031C-44.2764 21.9453 -46.8802 22.3164 -49.75 22.3164ZM-24.0332 28.625L-24.0332 17.8633L-3.4004 0.792969C-3.4004 0.792969 -0.864592 -1.41504 0.124992 -2.41699C1.11458 -3.41895 1.87532 -4.45182 2.40722 -5.51562C2.93912 -6.57943 3.20507 -7.76693 3.20507 -9.07812C3.20507 -10.4883 2.90201 -11.6943 2.29589 -12.6963C1.68977 -13.6982 0.860994 -14.4714 -0.190437 -15.0156C-1.24187 -15.5599 -2.46029 -15.832 -3.84571 -15.832C-5.23113 -15.832 -6.44955 -15.5537 -7.50098 -14.9971C-8.55242 -14.4404 -9.36882 -13.6302 -9.9502 -12.5664C-10.5316 -11.5026 -10.8223 -10.1914 -10.8223 -8.63281C-10.8223 -8.63281 -25.0723 -8.63281 -25.0723 -8.63281C-25.0723 -8.63281 -24.2002 -15.8568 -22.4561 -18.6523C-20.7119 -21.4479 -18.2441 -23.6064 -15.0527 -25.1279C-11.8613 -26.6494 -8.12566 -27.4102 -3.84571 -27.4102C0.582674 -27.4102 4.41731 -26.7051 7.65819 -25.2949C10.8991 -23.8848 13.404 -21.8994 15.1728 -19.3389C16.9417 -16.7783 17.8262 -13.7786 17.8262 -10.3398C17.8262 -8.21224 17.387 -6.10319 16.5088 -4.0127C15.6305 -1.9222 14.0534 0.397135 11.7773 2.94531C9.50129 5.49349 6.24804 8.51172 2.01757 12C2.01757 12 -3.17774 16.3047 -3.17774 16.3047L-3.17774 16.6758L18.4199 16.6758L18.4199 28.625L-24.0332 28.625ZM45.8066 29.3672C41.5514 29.3672 37.7786 28.6188 34.4883 27.1221C31.1979 25.6253 28.6126 23.5534 26.7324 20.9062C24.8522 18.2591 23.8874 15.2161 23.8379 11.7773C23.8379 11.7773 38.459 11.7773 38.459 11.7773C38.459 11.7773 38.793 14.14 39.4609 15.0801C40.1289 16.0202 41.0195 16.7438 42.1328 17.251C43.2461 17.7581 44.4707 18.0117 45.8066 18.0117C47.3405 18.0117 48.6826 17.6839 49.833 17.0283C50.9834 16.3727 51.8864 15.4512 52.542 14.2637C53.1976 13.0762 53.5254 11.6784 53.5254 10.0703C53.5254 8.4375 53.1976 7.02116 52.542 5.82129C51.8864 4.62142 50.9834 3.69369 49.833 3.03809C48.6826 2.38249 47.3405 2.05469 45.8066 2.05469C44.1986 2.05469 42.7327 2.43815 41.4092 3.20508C40.0856 3.97201 39.1022 5.02344 38.459 6.35938C38.459 6.35938 25.248 3.76172 25.248 3.76172L27.4004 -26.668L64.584 -26.668L64.584 -14.6445L39.7207 -14.6445L38.6816 -2.47266L38.9785 -2.47266C38.9785 -2.47266 41.3411 -5.54037 43.4687 -6.62891C45.5963 -7.71745 48.0579 -8.26172 50.8535 -8.26172C53.3027 -8.26172 55.5726 -7.82877 57.6631 -6.96289C59.7536 -6.097 61.5719 -4.86621 63.1182 -3.27051C64.6644 -1.6748 65.8643 0.217773 66.7178 2.40723C67.5713 4.59668 67.998 7.0026 67.998 9.625C67.998 13.4844 67.0827 16.8984 65.2519 19.8672C63.4212 22.8359 60.8421 25.1615 57.5146 26.8438C54.1872 28.526 50.2845 29.3672 45.8066 29.3672Z"></path>
  <clipPath id="cl_62">
    <path d="M173.696 375.327L185.053 341.345L187.349 342.112L175.991 376.094L173.696 375.327ZM176.063 371.808C173.742 371.032 171.94 369.817 170.657 368.163C169.374 366.509 168.625 364.551 168.41 362.29C168.194 360.029 168.524 357.591 169.398 354.976C170.272 352.361 171.475 350.215 173.006 348.538C174.538 346.861 176.313 345.747 178.333 345.197C180.353 344.646 182.523 344.759 184.844 345.535C186.323 346.029 187.586 346.704 188.632 347.561C189.678 348.418 190.503 349.416 191.108 350.556C191.712 351.696 192.076 352.951 192.2 354.319C192.324 355.687 192.203 357.13 191.838 358.648C191.838 358.648 184.36 357.543 184.36 357.543C184.36 357.543 184.561 356.211 184.559 355.644C184.557 355.078 184.487 354.577 184.349 354.142C184.211 353.707 184.002 353.345 183.722 353.058C183.443 352.77 183.093 352.556 182.672 352.415C181.996 352.189 181.333 352.221 180.684 352.511C180.034 352.801 179.417 353.364 178.833 354.2C178.249 355.035 177.723 356.153 177.255 357.552C176.793 358.935 176.541 360.144 176.5 361.178C176.459 362.213 176.607 363.053 176.945 363.698C177.282 364.343 177.788 364.778 178.464 365.004C178.885 365.145 179.295 365.18 179.694 365.111C180.093 365.041 180.483 364.872 180.863 364.602C181.244 364.332 181.61 363.96 181.96 363.485C182.31 363.01 182.637 362.444 182.942 361.785C182.942 361.785 189.589 365.376 189.589 365.376C189.589 365.376 188.172 368.109 187.245 369.143C186.318 370.177 185.271 370.977 184.104 371.542C182.937 372.107 181.675 372.416 180.318 372.469C178.96 372.523 177.542 372.302 176.063 371.808ZM188.022 380.115L190.233 373.501L204.374 366.565C204.374 366.565 206.135 365.644 206.85 365.199C207.566 364.754 208.171 364.25 208.663 363.688C209.156 363.126 209.537 362.442 209.806 361.636C210.096 360.769 210.187 359.976 210.081 359.256C209.974 358.535 209.706 357.918 209.276 357.402C208.846 356.886 208.273 356.509 207.559 356.271C206.845 356.032 206.16 355.993 205.504 356.154C204.848 356.315 204.26 356.672 203.742 357.226C203.224 357.78 202.805 358.535 202.485 359.493C202.485 359.493 195.14 357.038 195.14 357.038C195.14 357.038 197.073 352.749 198.546 351.331C200.02 349.914 201.735 349.012 203.692 348.627C205.65 348.241 207.732 348.417 209.938 349.155C212.22 349.918 214.052 351.012 215.433 352.437C216.813 353.862 217.697 355.513 218.082 357.392C218.468 359.27 218.308 361.266 217.602 363.379C217.165 364.687 216.505 365.907 215.623 367.041C214.741 368.174 213.452 369.328 211.755 370.502C210.058 371.676 207.762 372.971 204.865 374.386C204.865 374.386 201.302 376.136 201.302 376.136L201.226 376.364L212.358 380.085L209.904 387.429L188.022 380.115ZM223.868 392.603C221.674 391.87 219.883 390.76 218.495 389.273C217.106 387.786 216.199 386.068 215.774 384.117C215.349 382.166 215.476 380.13 216.157 378.008C216.157 378.008 223.693 380.527 223.693 380.527C223.693 380.527 223.38 382.036 223.531 382.729C223.683 383.422 223.993 384.02 224.463 384.523C224.932 385.027 225.511 385.394 226.2 385.624C226.991 385.888 227.75 385.918 228.477 385.713C229.205 385.508 229.86 385.098 230.442 384.481C231.023 383.864 231.479 383.061 231.81 382.073C232.145 381.069 232.267 380.143 232.176 379.292C232.084 378.442 231.809 377.716 231.351 377.115C230.893 376.514 230.268 376.081 229.478 375.817C228.649 375.54 227.815 375.523 226.975 375.766C226.135 376.01 225.412 376.487 224.806 377.197C224.806 377.197 218.531 373.324 218.531 373.324L225.89 354.994L245.056 361.399L242.586 368.789L229.771 364.506L226.735 371.807L226.888 371.858C226.888 371.858 228.736 370.38 230.056 370.077C231.377 369.775 232.757 369.865 234.198 370.346C235.461 370.768 236.542 371.425 237.441 372.317C238.341 373.21 239.025 374.279 239.494 375.526C239.964 376.774 240.193 378.143 240.184 379.636C240.174 381.129 239.9 382.681 239.361 384.292C238.568 386.664 237.395 388.605 235.842 390.114C234.288 391.623 232.481 392.608 230.421 393.069C228.36 393.53 226.176 393.374 223.868 392.603Z"></path>
  </clipPath>
  <g clip-path="url(#cl_62)">
    <path fill="#F2F1F1" transform="matrix(0.418975 0.365143 -0.363763 0.523506 187.755 396.394)" d="M-170.753 -28.5017L169.944 -28.5017L169.944 28.5017L-170.753 28.5017L-170.753 -28.5017Z"></path>
    <path fill="#F2F1F1" transform="matrix(0.418975 0.365143 -0.363763 0.523506 172.906 415.972)" d="M-170.753 -5.22013L169.944 -5.22013L169.944 5.22019L-170.753 5.22019L-170.753 -5.22013Z"></path>
  </g>
  <path fill="#8E8B8B" transform="matrix(0.614582 0.205409 -0.205409 0.614582 228.104 291.966)" d="M-1.52588e-05 -1.90735e-05C-1.52588e-05 -1.90735e-05 -15.2012 -1.90735e-05 -18.2664 3.8147e-06C-66.3551 1.3037 -126.35 32.2772 -126.35 128C-126.35 223.723 -55.9022 256 -19 256C-15.9348 256 -2.28882e-05 256 -2.28882e-05 256C-25.5439 256 -107.35 223.723 -107.35 128C-107.35 32.2772 -25.5439 -1.52588e-05 -1.52588e-05 -1.90735e-05Z"></path>
  <clipPath id="cl_64">
    <path d="M228.104 291.966C228.104 291.966 218.761 288.843 216.877 288.214C187.055 279.137 143.821 285.849 124.159 344.679C104.497 403.508 141.163 437.816 163.842 445.396C165.726 446.026 175.519 449.299 175.519 449.299C159.82 444.052 116.174 407.411 135.836 348.582C155.498 289.752 212.405 286.719 228.104 291.966Z"></path>
  </clipPath>
  <g clip-path="url(#cl_64)">
    <path fill="#ACABAB" transform="matrix(0.515433 0.17227 -0.205409 0.614582 147.084 390.875)" d="M-105.5 -40.8039L105 -40.8039L105 40.8039L-105.5 40.8039L-105.5 -40.8039Z"></path>
    <path fill="#D6D6D6" transform="matrix(0.515433 0.17227 -0.205409 0.614582 144.865 384.736)" d="M-105.5 -7.02944L105 -7.02944L105 7.02947L-105.5 7.02947L-105.5 -7.02944Z"></path>
    <path fill="#D6D6D6" transform="matrix(0.516899 0.17276 -0.204826 0.61284 175.268 365.177)" d="M-137.32 -30.4789L136.67 -30.4789L136.67 30.4789L-137.32 30.4789L-137.32 -30.4789Z"></path>
  </g>
  <path fill="#91A8EB" transform="matrix(0.606874 0.00990163 -0.00990163 0.606874 190.321 79.6343)" d="M0 -22.5C14.6355 -22.5 26.5 -12.3144 26.5 0.250031C26.5 12.8145 14.6355 23 0 23C-14.6355 23 -26.5 12.8145 -26.5 0.250031C-26.5 -12.3144 -14.6355 -22.5 0 -22.5Z"></path>
  <path fill="#91A8EB" transform="matrix(0.504938 0.00823846 -0.00823846 0.504938 174.87 90.3317)" d="M-4.23752e-08 -22.5C14.6355 -22.5 26.5 -12.3144 26.5 0.25003C26.5 12.8145 14.6355 23 4.23752e-08 23C-14.6355 23 -26.5 12.8145 -26.5 0.250031C-26.5 -12.3144 -14.6355 -22.5 -4.23752e-08 -22.5Z"></path>
  <path fill="#91A8EB" transform="matrix(0.274279 0.00447507 -0.00447507 0.274279 156.001 57.5451)" d="M3.05176e-05 -22.4262C14.2962 -22.4262 25.8855 -12.2741 25.8855 0.249207C25.8855 12.7725 14.2962 22.9246 3.05176e-05 22.9246C-14.2961 22.9246 -25.8855 12.7725 -25.8855 0.249207C-25.8855 -12.2741 -14.2961 -22.4262 3.05176e-05 -22.4262Z"></path>
  <path fill="#C1CBE8" transform="matrix(0.073816 -0.11483 0.26388 0.16963 152.363 54.945)" d="M0.00012207 -11.5C14.6357 -11.5 28.0062 -7.98328 28.0062 -1.63201C28.0062 4.71926 15.506 0.400185 0.870479 0.400186C-13.7651 0.400185 -26.7659 4.37689 -26.7659 -1.97439C-26.7659 -8.32566 -14.6354 -11.5 0.00012207 -11.5Z"></path>
  <path fill="#C1CBE8" transform="matrix(-0.166841 -0.570472 0.880441 -0.257495 174.899 116.707)" d="M0 -11.5C14.6355 -11.5 28.0061 -7.98329 28.0061 -1.63202C28.0061 4.71926 15.5059 0.400178 0.870357 0.400178C-13.7652 0.400177 -26.766 4.37688 -26.766 -1.97439C-26.766 -8.32567 -14.6355 -11.5 0 -11.5Z"></path>
  <path fill="#1B2B56" transform="matrix(1.78669 -0.21848 0.065544 0.536007 223.002 89.2323)" d="M-9.31323e-09 -2.5C1.38071 -2.5 2.5 -1.38071 2.5 0C2.5 1.38071 1.38071 2.5 9.31323e-09 2.5C-1.38071 2.5 -2.5 1.38071 -2.5 0C-2.5 -1.38071 -1.38071 -2.5 -9.31323e-09 -2.5Z"></path>
  <path fill="none" stroke="#1B2B56" stroke-width="0.5" stroke-linecap="round" stroke-linejoin="round" transform="matrix(1.78289 -0.247598 0.247598 1.78289 231.645 88.1207)" d="M1.98548 0.277974L6.02909 0.184236"></path>
  <path fill="#1B2B56" transform="matrix(1.78669 -0.21848 0.065544 0.536007 251.589 85.7365)" d="M-9.31323e-09 -2.50003C1.38071 -2.50003 2.5 -1.38074 2.5 -3.05176e-05C2.5 1.38068 1.38071 2.49997 9.31323e-09 2.49997C-1.38071 2.49997 -2.5 1.38068 -2.5 -3.05176e-05C-2.5 -1.38074 -1.38071 -2.50003 -9.31323e-09 -2.50003Z"></path>
  <path fill="#354B89" transform="matrix(1.46507 -0.885005 0.929571 0.72522 243.366 78.8045)" d="M0 -2.5C1.38071 -2.5 2.5 -1.38071 2.5 1.49012e-07C2.5 1.38071 1.38071 2.5 0 2.5C-1.38071 2.5 -2.5 1.38071 -2.5 -1.49012e-07C-2.5 -1.38071 -1.38071 -2.5 0 -2.5Z"></path>
  <path fill="#354B89" transform="matrix(2.16254 0.296937 -0.629837 1.0733 227.394 79.744)" d="M0 -2.98531C1.68306 -2.98531 3.04744 -1.64873 3.04744 3.04268e-05C3.04744 1.64879 1.68306 2.98537 0 2.98537C-1.68306 2.98537 -3.04744 1.64879 -3.04744 3.06084e-05C-3.04744 -1.64873 -1.68306 -2.98531 0 -2.98531Z"></path>
  <path fill="none" stroke="white" stroke-width="5" stroke-linecap="round" stroke-linejoin="round" transform="matrix(1.5 0 0 1.5 158.539 362.24)" d=""></path>
</svg>