<?xml version="1.0" encoding="utf-8"?>
<svg xmlns="http://www.w3.org/2000/svg" xmlns:xlink="http://www.w3.org/1999/xlink" width="512" height="512">
  <path fill="none" stroke="black" stroke-width="7" stroke-linejoin="round" transform="matrix(1.8 3.72529e-09 -3.72529e-09 1.8 210.879 409.868)" d="M0.317585 -46.251C18.5418 -46.0446 31.0869 -38.646 30.9048 5.64317C31.2269 34.6589 23.8797 44.6777 13.3629 44.4096C2.84604 44.1416 -5.79298 44.2439 -16.1262 44.3244C-26.589 44.2253 -31.97 33.0858 -32.2918 4.05704C-32.3961 -42.4394 -17.9066 -46.4575 0.317585 -46.251Z"></path>
  <path fill="none" stroke="black" stroke-width="7" stroke-linejoin="round" transform="matrix(-2.15345 -3.29802e-07 -3.27096e-07 2.13577 356.081 273.696)" d="M11.425 -58.8351C14.7946 -54.3402 20.9212 -39.1934 20.8785 -35.2661C20.8357 -31.3387 25.2357 -22.4242 23.9558 1.91093C22.7399 30.7748 18.3068 53.8642 -6.95742 52.944C-22.8145 52.265 -34.2873 28.3326 -33.0714 -0.531247C-31.5471 -36.7182 -5.85385 -65.1012 11.425 -58.8351Z"></path>
  <path fill="none" stroke="black" stroke-width="7" stroke-linejoin="round" transform="matrix(1.79976 0.0293645 -0.0293645 1.79976 266.376 274.862)" d="M0.209625 -80.0966C37.3348 -80.0966 84.5 -60 84.5 9.53674e-07C84.5 41.1452 46.7396 76.2788 0.209625 76.2788C-62.1658 76.2788 -84 60.12 -84 9.53674e-07C-84 -71.2881 -50.5087 -80.0966 0.209625 -80.0966Z"></path>
  <path fill="none" stroke="black" stroke-width="7" stroke-linejoin="round" transform="matrix(1.53671 3.18039e-09 -3.72529e-09 1.8 308.979 398.168)" d="M5.52139 -47.9783C23.7428 -48.3012 39.2803 -41.6663 40.2949 7.90075C41.0151 21.7426 35.3162 45.5524 21.6381 45.6108C7.96012 45.6692 1.82456 45.6954 -10.3773 45.7474C-22.5792 45.7995 -24.9707 22.912 -25.6909 9.07015C-27.0696 -42.6817 -12.7001 -47.6554 5.52139 -47.9783Z"></path>
  <path fill="#6C88D9" transform="matrix(-2.15345 -3.29802e-07 -3.27096e-07 2.13577 356.081 273.696)" d="M11.425 -58.8351C14.7946 -54.3402 20.9212 -39.1934 20.8785 -35.2661C20.8357 -31.3387 25.2357 -22.4242 23.9558 1.91093C22.7399 30.7748 18.3068 53.8642 -6.95742 52.944C-22.8145 52.265 -34.2873 28.3326 -33.0714 -0.531247C-31.5471 -36.7182 -5.85385 -65.1012 11.425 -58.8351Z"></path>
  <path fill="#5170C8" transform="matrix(1.53671 3.18039e-09 -3.72529e-09 1.8 308.979 398.168)" d="M5.52139 -47.9783C23.7428 -48.3012 39.2803 -41.6663 40.2949 7.90075C41.0151 21.7426 35.3162 45.5524 21.6381 45.6108C7.96012 45.6692 1.82456 45.6954 -10.3773 45.7474C-22.5792 45.7995 -24.9707 22.912 -25.6909 9.07015C-27.0696 -42.6817 -12.7001 -47.6554 5.52139 -47.9783Z"></path>
  <path fill="#839BE0" transform="matrix(1.20328 2.49031e-09 -2.91698e-09 1.40944 308.979 398.168)" d="M7.36032 -48.5688C25.5818 -48.8917 40.5696 -42.1634 41.8205 11.8929C41.7495 29.8278 33.1336 45.0433 19.4556 45.1018C5.77752 45.1601 5.95272 45.2099 -6.24913 45.262C-18.451 45.3141 -24.2363 30.9972 -24.1653 13.0623C-25.7803 -43.1788 -10.8612 -48.2459 7.36032 -48.5688Z"></path>
  <path fill="#6C88D9" transform="matrix(1.8 3.72529e-09 -3.72529e-09 1.8 210.879 409.868)" d="M0.317585 -46.251C18.5418 -46.0446 31.0869 -38.646 30.9048 5.64317C31.2269 34.6589 23.8797 44.6777 13.3629 44.4096C2.84604 44.1416 -5.79298 44.2439 -16.1262 44.3244C-26.589 44.2253 -31.97 33.0858 -32.2918 4.05704C-32.3961 -42.4394 -17.9066 -46.4575 0.317585 -46.251Z"></path>
  <path fill="#91A8EB" transform="matrix(-1.67686 -2.56813e-07 -3.2026e-07 2.09114 352.092 267.983)" d="M11.2971 -52.4122C33.4454 -51.6579 25.2355 -27.085 22.0877 1.42522C18.9401 29.9354 5.81912 52.863 -9.63098 52.3368C-25.081 51.8106 -35.9877 28.1369 -34.468 -0.556033C-32.9482 -29.249 -10.8511 -53.1665 11.2971 -52.4122Z"></path>
  <path fill="none" stroke="black" stroke-width="7" stroke-miterlimit="4" transform="matrix(1.79976 0.0293645 -0.0293645 1.79976 218.057 112.331)" d="M0 -29.5C19.0538 -29.5 34.5 -16.1805 34.5 0.250008C34.5 16.6805 19.0538 30 0 30C-19.0538 30 -34.5 16.6805 -34.5 0.250008C-34.5 -16.1805 -19.0538 -29.5 0 -29.5Z"></path>
  <path fill="#6C88D9" transform="matrix(1.79976 0.0293645 -0.0293645 1.79976 266.376 274.862)" d="M0.209625 -80.0966C37.3348 -80.0966 84.5 -60 84.5 9.53674e-07C84.5 41.1452 46.7396 76.2788 0.209625 76.2788C-62.1658 76.2788 -84 60.12 -84 9.53674e-07C-84 -71.2881 -50.5087 -80.0966 0.209625 -80.0966Z"></path>
  <path fill="none" stroke="black" stroke-width="9" stroke-miterlimit="4" transform="translate(256 256)" d="M-64.2525 -201.486C-49.4699 -201.244 -37.6548 -190.715 -37.8628 -177.968C-38.0708 -165.221 -50.2231 -155.082 -65.0057 -155.324C-79.7883 -155.565 -91.6033 -166.094 -91.3953 -178.841C-91.1874 -191.589 -79.0351 -201.727 -64.2525 -201.486Z"></path>
  <path fill="none" stroke="black" stroke-width="9" stroke-miterlimit="4" transform="translate(256 256)" d="M-79.7655 -186.573C-67.4659 -186.372 -57.6354 -177.612 -57.8085 -167.006C-57.9815 -156.4 -68.0926 -147.964 -80.3922 -148.165C-92.6918 -148.366 -102.522 -157.126 -102.349 -167.732C-102.176 -178.339 -92.0651 -186.774 -79.7655 -186.573Z"></path>
  <path fill="none" stroke="black" stroke-width="9" stroke-miterlimit="4" transform="translate(256 256)" d="M-99.7726 -210.907C-93.0916 -210.798 -87.7517 -206.039 -87.8457 -200.278C-87.9397 -194.517 -93.432 -189.935 -100.113 -190.044C-106.794 -190.153 -112.134 -194.912 -112.04 -200.673C-111.946 -206.434 -106.454 -211.016 -99.7726 -210.907Z"></path>
  <path fill="#6C88D9" transform="matrix(1.79976 0.0293645 -0.0293645 1.79976 218.057 112.331)" d="M0 -29.5C19.0538 -29.5 34.5 -16.1805 34.5 0.250008C34.5 16.6805 19.0538 30 0 30C-19.0538 30 -34.5 16.6805 -34.5 0.250008C-34.5 -16.1805 -19.0538 -29.5 0 -29.5Z"></path>
  <path fill="#6C88D9" transform="matrix(0.775834 0.0126583 -0.0126583 0.775834 191.374 77.4015)" d="M7.62939e-06 -29.5C19.0538 -29.5 34.5 -16.1805 34.5 0.250015C34.5 16.6805 19.0538 30 7.62939e-06 30C-19.0538 30 -34.5 16.6805 -34.5 0.250015C-34.5 -16.1805 -19.0538 -29.5 7.62939e-06 -29.5Z"></path>
  <path fill="#6C88D9" transform="matrix(0.645518 0.0105321 -0.0105321 0.645518 175.924 88.4696)" d="M0 -29.5C19.0538 -29.5 34.5 -16.1805 34.5 0.249969C34.5 16.6804 19.0538 30 0 30C-19.0538 30 -34.5 16.6804 -34.5 0.249969C-34.5 -16.1805 -19.0538 -29.5 0 -29.5Z"></path>
  <path fill="#6C88D9" transform="matrix(0.35064 0.00572097 -0.00572097 0.35064 156.059 55.4367)" d="M0 -29.5C19.0538 -29.5 34.5 -16.1805 34.5 0.25C34.5 16.6805 19.0538 30 0 30C-19.0538 30 -34.5 16.6805 -34.5 0.25C-34.5 -16.1805 -19.0538 -29.5 0 -29.5Z"></path>
  <path fill="#91A8EB" transform="matrix(1.50913 0.0246226 -0.0246226 1.50913 265.012 274.862)" d="M0.24998 -81.5196C49.8787 -81.2985 84.5 -60 84.5 -9.53674e-07C84.5 41.1452 46.78 74.5 0.25 74.5C-62.1254 74.5 -84 60.12 -84 -9.53674e-07C-84 -71.2881 -62.1254 -81.5196 0.24998 -81.5196Z"></path>
  <clipPath id="cl_f3">
    <path d="M269.105 130.713C335.922 131.803 420.218 169.357 418.456 277.343C417.248 351.394 348.256 413.518 264.513 412.151C152.253 410.32 113.431 380.597 115.196 272.395C117.289 144.094 177.824 129.224 269.105 130.713Z"></path>
  </clipPath>
  <g clip-path="url(#cl_f3)">
    <path fill="#A6B8EF" transform="matrix(0.805953 0.0131497 -0.0151654 0.929491 301.979 239.74)" d="M0.249976 -81.5196C49.8787 -81.2985 84.5 -60 84.5 0C84.5 41.1452 67.1354 74.5 20.6054 74.5C-41.77 74.5 -84 60.12 -84 0C-84 -71.2881 -62.1254 -81.5197 0.249976 -81.5196Z"></path>
    <path fill="#C1CBE8" transform="matrix(0.197995 -0.202726 0.445703 0.435301 325.08 190.891)" d="M11.5671 -77.0972C58.097 -77.0972 97.5959 -41.1452 97.5959 -2.24314e-05C97.5959 41.1452 73.4187 83.0524 26.8888 83.0524C-35.4867 83.0524 11.8086 60.12 11.8086 -2.11531e-05C11.8086 -41.1452 -34.9629 -77.0972 11.5671 -77.0972Z"></path>
    <path fill="#C1CBE8" transform="matrix(0.197995 -0.202726 0.184201 0.179903 369.522 255.247)" d="M48.93 -79.7642C80.6763 -79.0529 77.4946 -42.8888 62.8508 4.00568C48.2069 50.9002 -0.0393895 91.2964 -20.4536 67.777C-40.8678 44.2577 -16.8141 31.8032 -0.458961 -5.13878C15.8962 -42.0808 17.1838 -80.4755 48.93 -79.7642Z"></path>
  </g>
  <path fill="#91A8EB" transform="matrix(1.37947 2.85496e-09 -2.85496e-09 1.37947 210.879 346.868)" d="M0.256088 -0.702179C18.4803 -0.495773 32.0923 -1.13318 31.9576 50.3603C31.4951 75.8441 23.8484 90.3478 13.3316 90.0797C2.81476 89.8117 -5.82429 89.9141 -16.1575 89.9945C-26.5376 90.002 -33.9215 73.2298 -33.459 47.746C-33.6104 -5.95491 -17.9682 -0.908607 0.256088 -0.702179Z"></path>
  <path fill="#91A8EB" transform="matrix(1.79976 0.0293645 -0.0293645 1.79976 218.057 112.331)" d="M0 -22.5C14.6355 -22.5 26.5 -12.3145 26.5 0.250008C26.5 12.8145 14.6355 23 0 23C-14.6355 23 -26.5 12.8145 -26.5 0.250008C-26.5 -12.3145 -14.6355 -22.5 0 -22.5Z"></path>
  <path fill="none" stroke="black" stroke-width="7" stroke-linecap="round" stroke-linejoin="round" transform="matrix(2.15345 4.45679e-09 -4.42021e-09 2.13577 150.189 283.36)" d="M18.3631 -29.2131C18.5785 -24.8705 19.337 -18.5737 21.737 -8.79507C32.8517 15.4628 54.0551 21.4164 36.8281 40.0721C25.9395 51.7149 -15.2004 37.8334 -26.3851 13.422C-34.0112 -11.6449 -24.5016 -38.2477 -12.0515 -51.6617"></path>
  <path fill="#6C88D9" transform="matrix(2.15345 4.45679e-09 -4.42021e-09 2.13577 150.189 283.36)" d="M6.77757 -60.1277C10.5328 -55.9551 17.98 -41.4223 18.2862 -37.5069C18.5924 -33.5914 17.0971 -27.7002 21.737 -8.79507C32.8517 15.4628 54.0551 21.4164 36.8281 40.0721C25.9395 51.7149 -15.2004 37.8334 -26.3851 13.422C-37.7649 -23.9833 -10.9884 -64.8086 6.77757 -60.1277Z"></path>
  <path fill="#91A8EB" transform="matrix(1.67686 3.47045e-09 -4.32784e-09 2.09114 154.179 277.647)" d="M5.88522 -53.6808C28.0287 -54.5198 17.0033 -30.8446 17.6874 -7.37252C26.1194 17.459 55.9209 26.2167 46.5255 36.066C37.1301 45.9152 -12.8394 34.7056 -27.8551 11.6159C-39.9494 -17.8828 -16.2583 -52.8417 5.88522 -53.6808Z"></path>
  <path fill="#312F2F" transform="matrix(0.506346 -0.197387 0.235356 0.603748 234.954 325.609)" d="M-3.8147e-06 -128C70.6924 -128 128 -70.6925 128 -7.62939e-06C128 70.6924 70.6925 128 3.8147e-06 128C-70.6924 128 -128 70.6924 -128 -7.62939e-06C-128 -70.6925 -70.6925 -128 -3.8147e-06 -128Z"></path>
  <path fill="none" stroke="black" stroke-width="7" stroke-miterlimit="4" transform="translate(256 256)" d="M-39.7005 -12.1423C-3.90566 -26.096 38.5995 -2.80844 55.2374 39.872C71.8753 82.5524 56.3455 128.463 20.5506 142.417C-15.2442 156.371 -57.7494 133.083 -74.3873 90.4029C-91.0252 47.7225 -75.4954 1.81146 -39.7005 -12.1423Z"></path>
  <path fill="none" stroke="black" stroke-width="7" stroke-linejoin="round" transform="translate(256 256)" d="M-39.7005 -12.1423C-39.7005 -12.1423 -48.8782 -8.56457 -50.7288 -7.84316C-79.4554 4.2619 -108.387 37.0822 -85.8585 94.8747C-63.3295 152.667 -13.2002 155.574 9.07942 146.889C10.9301 146.168 20.5506 142.417 20.5506 142.417C20.0313 142.62 19.4648 142.815 18.8542 143.001"></path>
  <path fill="#DEDEDE" transform="matrix(0.506346 -0.197387 0.235356 0.603748 246.425 321.137)" d="M0 -128C70.6925 -128 128 -70.6925 128 0C128 70.6925 70.6925 128 7.62939e-06 128C-70.6924 128 -128 70.6925 -128 0C-128 -70.6925 -70.6925 -128 0 -128Z"></path>
  <clipPath id="cl_f6">
    <path d="M216.299 243.858C252.094 229.904 294.599 253.192 311.237 295.872C327.875 338.552 312.345 384.463 276.551 398.417C240.756 412.371 198.251 389.083 181.613 346.403C164.975 303.723 180.505 257.811 216.299 243.858Z"></path>
  </clipPath>
  <g clip-path="url(#cl_f6)">
    <path fill="#F2F1F1" transform="matrix(0.555618 0.0125572 0.055384 0.635071 252.105 349.93)" d="M-170.753 -28.5017L169.944 -28.5017L169.944 28.5017L-170.753 28.5017L-170.753 -28.5017Z"></path>
    <path fill="#F2F1F1" transform="matrix(0.555618 0.0125572 0.055384 0.635071 253.219 374.476)" d="M-170.753 -5.22016L169.944 -5.22016L169.944 5.22016L-170.753 5.22016L-170.753 -5.22016Z"></path>
  </g>
  <path fill="#8B8B8B" transform="matrix(0.506346 -0.197387 0.235356 0.603748 249.481 319.251)" d="M0.250001 -87.5C51.4744 -87.5 93 -48.4369 93 -0.250008C93 47.9368 51.4744 87 0.250006 87C-50.9744 87 -92.5 47.9368 -92.5 -0.250008C-92.5 -48.4369 -50.9744 -87.5 0.250001 -87.5Z"></path>
  <path fill="#B0AFAF" transform="matrix(0.506346 -0.197387 0.235356 0.603748 246.425 321.137)" d="M1.2517e-06 -86C47.4965 -86 86 -47.4965 86 0C86 47.4965 47.4965 86 6.3777e-06 86C-47.4965 86 -86 47.4965 -86 0C-86 -47.4965 -47.4965 -86 1.2517e-06 -86Z"></path>
  <path fill="#8B8B8B" transform="matrix(0.506346 -0.197387 0.235356 0.603748 245.737 318.624)" d="M-52.3281 27.625L-52.3281 -27.668L-46.756 -30.4056L-46.7825 24.7561L-42.4192 24.6238L-47.1315 27.6684L-52.3281 27.625ZM-50.25 21.3164C-54.7526 21.3164 -58.6058 20.4196 -61.8096 18.626C-65.0133 16.8323 -67.4626 14.3337 -69.1572 11.1299C-70.8519 7.9261 -71.6992 4.19661 -71.6992 -0.0586014C-71.6992 -4.31381 -70.8519 -8.0433 -69.1572 -11.2471C-67.4626 -14.4509 -65.0133 -16.9496 -61.8096 -18.7432C-58.6058 -20.5368 -54.7526 -21.4336 -50.25 -21.4336C-47.3802 -21.4336 -44.7826 -21.0625 -42.457 -20.3203C-40.1315 -19.5781 -38.109 -18.5205 -36.3896 -17.1475C-34.6702 -15.7744 -27.78 -10.4694 -25.0591 -8.68546C-26.0599 -7.96245 -28.21 -6.9054 -30.3965 -5.66212C-30.3965 -5.66212 -44.0898 -3.6211 -44.0898 -3.6211C-44.0898 -3.6211 -44.5166 -5.6683 -44.8506 -6.49708C-45.1846 -7.32585 -45.599 -8.02475 -46.0938 -8.59376C-46.5885 -9.16277 -47.1637 -9.58952 -47.8193 -9.87403C-48.4749 -10.1585 -49.2109 -10.3008 -50.0273 -10.3008C-51.3385 -10.3008 -52.4766 -9.9297 -53.4414 -9.18751C-54.4062 -8.44532 -55.1546 -7.31967 -55.6865 -5.81055C-56.2184 -4.30144 -56.4844 -2.40886 -56.4844 -0.13282C-56.4844 2.11848 -56.2184 4.01106 -55.6865 5.54491C-55.1546 7.07877 -54.4062 8.23534 -53.4414 9.01464C-52.4766 9.79394 -51.3385 10.1836 -50.0273 10.1836C-49.2109 10.1836 -48.4749 10.0351 -47.8193 9.73827C-47.1637 9.4414 -46.5824 9.00227 -46.0752 8.42089C-45.568 7.83951 -45.8968 6.99337 -44.8135 6.24999C-43.7302 5.50662 -38.8902 1.52307 -38.7417 0.40979C-38.7417 0.40979 -30.3965 5.28515 -30.3965 5.28515C-30.3965 5.28515 -31.2747 9.97948 -32.2891 11.9463C-33.3034 13.9131 -34.6641 15.5954 -36.3711 16.9932C-38.0781 18.3909 -40.1006 19.4609 -42.4385 20.2031C-44.7764 20.9453 -47.3802 21.3164 -50.25 21.3164ZM-24.5332 27.625L-24.5332 16.8633L-3.90039 -0.207039C-3.90039 -0.207039 -1.36459 -2.41505 -0.375004 -3.417C0.614578 -4.41895 1.37532 -5.45183 1.90722 -6.51563C2.43912 -7.57944 2.70507 -8.76694 2.70507 -10.0781C2.70507 -11.4883 2.40201 -12.6943 1.79589 -13.6963C1.18977 -14.6982 0.360996 -15.4714 -0.690435 -16.0156C-1.74187 -16.5599 -2.96029 -16.832 -4.34571 -16.832C-5.73112 -16.832 -6.94955 -16.5537 -8.00098 -15.9971C-9.05241 -15.4404 -6.29221 -13.7058 -5.86801 -12.6284C-7.10779 -11.907 -9.37628 -10.5827 -11.3223 -9.63282C-11.3223 -9.63282 -25.5723 -9.63282 -25.5723 -9.63282C-25.5723 -9.63282 -24.7002 -16.8568 -22.9561 -19.6524C-21.2119 -22.4479 -18.7441 -24.6065 -15.5527 -26.1279C-12.3613 -27.6494 -8.62566 -28.4102 -4.34571 -28.4102C0.0826759 -28.4102 3.91731 -27.7051 7.1582 -26.2949C10.3991 -24.8848 12.904 -22.8994 14.6728 -20.3389C16.4417 -17.7783 17.3262 -14.7787 17.3262 -11.3399C17.3262 -9.21225 16.887 -7.1032 16.0088 -5.0127C15.1305 -2.92221 13.5534 -0.602873 11.2773 1.9453C9.0013 4.49348 5.74804 7.51171 1.51757 11C1.51757 11 -3.67774 15.3047 -3.67774 15.3047L-3.67774 15.6758L17.9199 15.6758L23.3601 24.6526L17.9199 27.625L-24.5332 27.625ZM45.3066 28.3672C41.0514 28.3672 37.2786 27.6188 33.9883 26.1221C30.6979 24.6253 28.1126 22.5534 26.2324 19.9062C24.3522 17.2591 23.3874 14.2161 23.3379 10.7773C23.3379 10.7773 28.8025 7.82546 28.8025 7.82546L37.959 10.7773C37.959 10.7773 38.293 13.14 38.9609 14.0801C39.6289 15.0202 40.5195 15.7438 41.6328 16.251C42.7461 16.7581 43.9707 17.0117 45.3066 17.0117C46.8405 17.0117 48.1826 16.6839 49.333 16.0283C50.4834 15.3727 51.3864 14.4512 52.042 13.2637C52.6976 12.0762 53.0254 10.6784 53.0254 9.0703C53.0254 7.43749 52.6976 6.02115 52.042 4.82128C51.3864 3.62141 50.4834 2.69368 49.333 2.03808C48.1826 1.38248 46.8405 1.05468 45.3066 1.05468C43.6986 1.05468 43.4423 2.31533 43.4423 2.31533C43.4423 2.31533 38.6022 4.02343 37.959 5.35937C37.959 5.35937 24.7481 2.76171 24.7481 2.76171L26.9004 -27.668L32.366 -30.6324L64.084 -27.668L69.5014 -18.6129L64.084 -15.6445L39.2207 -15.6445L38.1816 -3.47266L38.4785 -3.47266C38.4785 -3.47266 40.8411 -6.54037 42.9688 -7.62891C45.0964 -8.71745 47.5579 -9.26173 50.3535 -9.26173C52.8027 -9.26173 55.0726 -8.82878 57.1631 -7.9629C59.2536 -7.09701 61.0719 -5.86622 62.6182 -4.27052C64.1644 -2.67481 65.3643 -0.782234 66.2178 1.40722C67.0713 3.59667 67.498 6.0026 67.498 8.62499C67.498 12.4844 66.5827 15.8984 64.752 18.8672C62.9212 21.8359 60.3421 24.1615 57.0147 25.8437C53.6872 27.526 49.7845 28.3672 45.3066 28.3672Z"></path>
  <path fill="#DEDEDE" transform="matrix(0.506346 -0.197387 0.235356 0.603748 247.327 315.222)" d="M-51.8281 28.625L-51.8281 -26.668L-47.375 -26.668L-47.375 28.625L-51.8281 28.625ZM-49.75 22.3164C-54.2526 22.3164 -58.1058 21.4196 -61.3096 19.626C-64.5134 17.8323 -66.9626 15.3337 -68.6572 12.1299C-70.3519 8.9261 -71.1992 5.19661 -71.1992 0.941399C-71.1992 -3.31381 -70.3519 -7.0433 -68.6572 -10.2471C-66.9626 -13.4509 -64.5134 -15.9496 -61.3096 -17.7432C-58.1058 -19.5368 -54.2526 -20.4336 -49.75 -20.4336C-46.8802 -20.4336 -44.2826 -20.0625 -41.9571 -19.3203C-39.6315 -18.5781 -37.6091 -17.5205 -35.8897 -16.1475C-34.1703 -14.7744 -32.8034 -13.1169 -31.7891 -11.1748C-30.7748 -9.23275 -30.1439 -7.06186 -29.8965 -4.66212C-29.8965 -4.66212 -43.5899 -2.6211 -43.5899 -2.6211C-43.5899 -2.6211 -44.0166 -4.6683 -44.3506 -5.49708C-44.6846 -6.32585 -45.099 -7.02475 -45.5938 -7.59376C-46.0886 -8.16277 -46.6638 -8.58952 -47.3194 -8.87403C-47.975 -9.15854 -48.711 -9.30079 -49.5274 -9.30079C-50.8386 -9.30079 -51.9766 -8.9297 -52.9414 -8.18751C-53.9063 -7.44532 -54.6546 -6.31967 -55.1865 -4.81055C-55.7184 -3.30144 -55.9844 -1.40886 -55.9844 0.86718C-55.9844 3.11848 -55.7184 5.01106 -55.1865 6.54491C-54.6546 8.07877 -53.9063 9.23534 -52.9414 10.0146C-51.9766 10.7939 -50.8386 11.1836 -49.5274 11.1836C-48.711 11.1836 -47.975 11.0351 -47.3194 10.7383C-46.6638 10.4414 -46.0824 10.0023 -45.5752 9.42089C-45.0681 8.83951 -44.6475 8.11588 -44.3135 7.24999C-43.9795 6.38411 -43.7383 5.39452 -43.5899 4.28124C-43.5899 4.28124 -29.8965 6.28515 -29.8965 6.28515C-29.8965 6.28515 -30.7748 10.9795 -31.7891 12.9463C-32.8034 14.9131 -34.1641 16.5954 -35.8711 17.9932C-37.5781 19.3909 -39.6006 20.4609 -41.9385 21.2031C-44.2764 21.9453 -46.8802 22.3164 -49.75 22.3164ZM-24.0332 28.625L-24.0332 17.8633L-3.4004 0.792961C-3.4004 0.792961 -0.864592 -1.41505 0.124992 -2.417C1.11457 -3.41895 1.87532 -4.45183 2.40722 -5.51563C2.93912 -6.57944 3.20507 -7.76694 3.20507 -9.07813C3.20507 -10.4883 2.90201 -11.6943 2.29589 -12.6963C1.68977 -13.6982 0.860992 -14.4714 -0.190439 -15.0156C-1.24187 -15.5599 -2.4603 -15.832 -3.84571 -15.832C-5.23113 -15.832 -6.44955 -15.5537 -7.50099 -14.9971C-8.55242 -14.4404 -9.36883 -13.6302 -9.9502 -12.5664C-10.5316 -11.5026 -10.8223 -10.1914 -10.8223 -8.63282C-10.8223 -8.63282 -25.0723 -8.63282 -25.0723 -8.63282C-25.0723 -8.63282 -24.2002 -15.8568 -22.4561 -18.6524C-20.7119 -21.4479 -18.2442 -23.6065 -15.0527 -25.1279C-11.8613 -26.6494 -8.12566 -27.4102 -3.84571 -27.4102C0.582672 -27.4102 4.41731 -26.7051 7.65819 -25.2949C10.8991 -23.8848 13.404 -21.8994 15.1728 -19.3389C16.9417 -16.7783 17.8262 -13.7787 17.8262 -10.3399C17.8262 -8.21225 17.387 -6.1032 16.5088 -4.0127C15.6305 -1.92221 14.0534 0.397127 11.7773 2.9453C9.50129 5.49348 6.24804 8.51171 2.01757 12C2.01757 12 -3.17774 16.3047 -3.17774 16.3047L-3.17774 16.6758L18.4199 16.6758L18.4199 28.625L-24.0332 28.625ZM45.8066 29.3672C41.5514 29.3672 37.7787 28.6188 34.4883 27.1221C31.1979 25.6253 28.6126 23.5534 26.7324 20.9062C24.8522 18.2591 23.8874 15.2161 23.8379 11.7773C23.8379 11.7773 38.459 11.7773 38.459 11.7773C38.459 11.7773 38.793 14.14 39.4609 15.0801C40.1289 16.0202 41.0195 16.7438 42.1328 17.251C43.2461 17.7581 44.4707 18.0117 45.8066 18.0117C47.3405 18.0117 48.6826 17.6839 49.833 17.0283C50.9834 16.3727 51.8864 15.4512 52.542 14.2637C53.1976 13.0762 53.5254 11.6784 53.5254 10.0703C53.5254 8.43749 53.1976 7.02115 52.542 5.82128C51.8864 4.62141 50.9834 3.69368 49.833 3.03808C48.6826 2.38248 47.3405 2.05468 45.8066 2.05468C44.1986 2.05468 42.7328 2.43814 41.4092 3.20507C40.0856 3.972 39.1022 5.02343 38.459 6.35937C38.459 6.35937 25.2481 3.76171 25.2481 3.76171L27.4004 -26.668L64.584 -26.668L64.584 -14.6445L39.7207 -14.6445L38.6816 -2.47266L38.9785 -2.47266C38.9785 -2.47266 41.3412 -5.54037 43.4688 -6.62891C45.5964 -7.71745 48.0579 -8.26173 50.8535 -8.26173C53.3027 -8.26173 55.5726 -7.82878 57.6631 -6.9629C59.7536 -6.09701 61.5719 -4.86622 63.1182 -3.27052C64.6644 -1.67481 65.8643 0.217766 66.7178 2.40722C67.5713 4.59667 67.9981 7.0026 67.9981 9.62499C67.9981 13.4844 67.0827 16.8984 65.252 19.8672C63.4212 22.8359 60.8421 25.1615 57.5147 26.8437C54.1872 28.526 50.2845 29.3672 45.8066 29.3672Z"></path>
  <clipPath id="cl_f8">
    <path d="M227.821 342.734L214.808 309.351L217.062 308.472L230.076 341.855L227.821 342.734ZM227.389 338.515C225.109 339.404 222.947 339.623 220.902 339.173C218.858 338.722 217.03 337.697 215.418 336.097C213.805 334.497 212.499 332.413 211.497 329.844C210.496 327.275 210.047 324.856 210.151 322.587C210.255 320.318 210.907 318.326 212.107 316.611C213.307 314.896 215.047 313.594 217.327 312.705C218.78 312.139 220.183 311.85 221.535 311.839C222.887 311.828 224.16 312.067 225.354 312.557C226.548 313.047 227.63 313.778 228.601 314.75C229.571 315.722 230.402 316.908 231.092 318.308C231.092 318.308 224.639 322.243 224.639 322.243C224.639 322.243 223.941 321.092 223.577 320.657C223.212 320.223 222.838 319.883 222.454 319.637C222.069 319.391 221.677 319.247 221.279 319.204C220.88 319.162 220.473 319.221 220.06 319.383C219.396 319.641 218.907 320.09 218.593 320.729C218.28 321.367 218.166 322.194 218.251 323.211C218.337 324.227 218.648 325.422 219.184 326.796C219.714 328.155 220.294 329.245 220.924 330.066C221.554 330.887 222.205 331.438 222.877 331.718C223.549 331.998 224.217 332.009 224.881 331.75C225.295 331.589 225.632 331.354 225.894 331.045C226.157 330.737 226.348 330.357 226.468 329.906C226.587 329.455 226.63 328.935 226.595 328.346C226.561 327.757 226.45 327.112 226.263 326.411C226.263 326.411 233.668 324.918 233.668 324.918C233.668 324.918 234.329 327.925 234.278 329.313C234.227 330.701 233.934 331.985 233.399 333.166C232.863 334.347 232.091 335.392 231.082 336.301C230.073 337.211 228.842 337.949 227.389 338.515ZM241.895 337.248L239.362 330.751L245.792 316.372C245.792 316.372 246.556 314.538 246.822 313.738C247.087 312.938 247.229 312.164 247.248 311.417C247.267 310.669 247.122 309.9 246.813 309.108C246.482 308.257 246.044 307.589 245.501 307.103C244.959 306.618 244.357 306.315 243.697 306.194C243.036 306.073 242.355 306.149 241.654 306.422C240.952 306.696 240.401 307.104 239.999 307.648C239.598 308.192 239.375 308.842 239.331 309.599C239.287 310.356 239.449 311.205 239.816 312.146C239.816 312.146 232.6 314.959 232.6 314.959C232.6 314.959 231.341 310.425 231.567 308.393C231.792 306.361 232.533 304.571 233.791 303.022C235.049 301.474 236.762 300.277 238.929 299.432C241.171 298.558 243.279 298.227 245.251 298.438C247.224 298.65 248.96 299.354 250.458 300.551C251.957 301.748 253.11 303.384 253.92 305.461C254.421 306.745 254.695 308.105 254.742 309.541C254.789 310.976 254.536 312.688 253.984 314.675C253.431 316.663 252.494 319.128 251.173 322.069C251.173 322.069 249.555 325.693 249.555 325.693L249.643 325.917L260.579 321.654L263.391 328.868L241.895 337.248ZM277.433 323.911C275.278 324.751 273.192 325.043 271.173 324.789C269.155 324.535 267.358 323.794 265.783 322.567C264.208 321.34 263.004 319.694 262.169 317.627C262.169 317.627 269.573 314.741 269.573 314.741C269.573 314.741 270.298 316.102 270.857 316.537C271.417 316.973 272.038 317.234 272.721 317.321C273.404 317.407 274.084 317.318 274.76 317.055C275.537 316.752 276.139 316.289 276.568 315.666C276.996 315.043 277.236 314.309 277.289 313.462C277.341 312.616 277.178 311.707 276.8 310.737C276.415 309.751 275.916 308.96 275.302 308.365C274.687 307.77 274.012 307.388 273.275 307.22C272.538 307.051 271.781 307.118 271.005 307.421C270.19 307.738 269.539 308.259 269.049 308.983C268.559 309.708 268.309 310.536 268.297 311.47C268.297 311.47 260.997 312.509 260.997 312.509L254.925 293.713L273.753 286.373L276.582 293.632L263.993 298.54L266.331 306.094L266.482 306.035C266.482 306.035 266.956 303.717 267.777 302.64C268.598 301.562 269.717 300.748 271.132 300.196C272.372 299.713 273.624 299.526 274.886 299.636C276.148 299.746 277.359 300.13 278.517 300.789C279.676 301.447 280.728 302.353 281.676 303.506C282.623 304.659 283.406 306.028 284.023 307.611C284.931 309.941 285.271 312.183 285.043 314.337C284.815 316.491 284.056 318.404 282.767 320.076C281.478 321.749 279.7 323.027 277.433 323.911Z"></path>
  </clipPath>
  <g clip-path="url(#cl_f8)">
    <path fill="#F2F1F1" transform="matrix(0.555618 0.0125572 0.055384 0.635071 252.105 349.93)" d="M-170.753 -28.5017L169.944 -28.5017L169.944 28.5017L-170.753 28.5017L-170.753 -28.5017Z"></path>
  </g>
  <path fill="#8E8B8B" transform="matrix(0.603748 -0.235356 0.235356 0.603748 216.299 243.858)" d="M-1.14441e-05 2.09808e-05C-1.14441e-05 2.09808e-05 -15.2012 2.47955e-05 -18.2664 4.76837e-06C-66.3551 1.30369 -126.35 32.2772 -126.35 128C-126.35 223.723 -55.9022 256 -19 256C-15.9348 256 -7.62939e-06 256 1.90735e-06 256C-25.5438 256 -107.35 223.723 -107.35 128C-107.35 32.2772 -25.5439 2.00272e-05 -1.14441e-05 2.09808e-05Z"></path>
  <clipPath id="cl_fa">
    <path d="M216.299 243.858C216.299 243.858 207.122 247.435 205.271 248.157C176.545 260.262 147.613 293.082 170.142 350.875C192.67 408.667 242.8 411.574 265.079 402.889C266.93 402.168 276.551 398.417 276.551 398.417C261.129 404.429 204.142 404.195 181.613 346.403C159.084 288.61 200.877 249.87 216.299 243.858Z"></path>
  </clipPath>
  <g clip-path="url(#cl_fa)">
    <path fill="#ACABAB" transform="matrix(0.506346 -0.197387 0.235356 0.603748 217.317 371.71)" d="M-105.5 -40.8039L105 -40.8039L105 40.8039L-105.5 40.8039L-105.5 -40.8039Z"></path>
    <path fill="#D6D6D6" transform="matrix(0.506346 -0.197387 0.235356 0.603748 211.684 368.412)" d="M-105.5 -7.02947L105 -7.02947L105 7.02944L-105.5 7.02944L-105.5 -7.02947Z"></path>
    <path fill="#D6D6D6" transform="matrix(0.507786 -0.197948 0.234689 0.602036 222.536 333.928)" d="M-137.32 -30.4789L136.67 -30.4789L136.67 30.4789L-137.32 30.4789L-137.32 -30.4789Z"></path>
  </g>
  <path fill="#91A8EB" transform="matrix(0.606874 0.00990163 -0.00990163 0.606874 191.374 79.6086)" d="M1.52588e-05 -22.5C14.6356 -22.5 26.5 -12.3145 26.5 0.25C26.5 12.8145 14.6356 23 1.52588e-05 23C-14.6355 23 -26.5 12.8145 -26.5 0.25C-26.5 -12.3145 -14.6355 -22.5 1.52588e-05 -22.5Z"></path>
  <path fill="#91A8EB" transform="matrix(0.504938 0.00823846 -0.00823846 0.504938 175.924 90.306)" d="M-1.53012e-05 -22.5C14.6355 -22.5 26.5 -12.3145 26.5 0.25C26.5 12.8145 14.6355 23 -1.52164e-05 23C-14.6356 23 -26.5 12.8145 -26.5 0.25C-26.5 -12.3145 -14.6356 -22.5 -1.53012e-05 -22.5Z"></path>
  <path fill="#91A8EB" transform="matrix(0.274279 0.00447507 -0.00447507 0.274279 157.055 57.5194)" d="M3.05176e-05 -22.4261C14.2962 -22.4261 25.8855 -12.274 25.8855 0.249329C25.8855 12.7726 14.2962 22.9247 3.05176e-05 22.9247C-14.2961 22.9247 -25.8855 12.7726 -25.8855 0.249329C-25.8855 -12.274 -14.2961 -22.4261 3.05176e-05 -22.4261Z"></path>
  <path fill="#C1CBE8" transform="matrix(0.073816 -0.11483 0.26388 0.16963 153.376 54.9193)" d="M0 -11.4999C14.6355 -11.4999 28.0061 -7.98322 28.0061 -1.63195C28.0061 4.71933 15.5059 0.400246 0.870356 0.400247C-13.7652 0.400246 -26.766 4.37695 -26.766 -1.97432C-26.766 -8.3256 -14.6355 -11.4999 0 -11.4999Z"></path>
  <path fill="#C1CBE8" transform="matrix(-0.166841 -0.570472 0.880441 -0.257495 175.912 116.681)" d="M0 -11.5C14.6355 -11.5 28.0061 -7.98328 28.0061 -1.63201C28.0061 4.71927 15.5059 0.400186 0.870357 0.400186C-13.7652 0.400184 -26.766 4.37689 -26.766 -1.97439C-26.766 -8.32566 -14.6355 -11.5 0 -11.5Z"></path>
  <path fill="#1B2B56" transform="matrix(1.78669 -0.21848 0.065544 0.536007 226.057 89.2066)" d="M-9.31323e-09 -2.5C1.38071 -2.5 2.5 -1.38071 2.5 0C2.5 1.38071 1.38071 2.5 9.31323e-09 2.5C-1.38071 2.5 -2.5 1.38071 -2.5 0C-2.5 -1.38071 -1.38071 -2.5 -9.31323e-09 -2.5Z"></path>
  <path fill="none" stroke="#1B2B56" stroke-width="0.5" stroke-linecap="round" stroke-linejoin="round" transform="matrix(1.78289 -0.247598 0.247598 1.78289 234.701 88.095)" d="M1.98548 0.277981L6.02909 0.184244"></path>
  <path fill="#1B2B56" transform="matrix(1.78669 -0.21848 0.065544 0.536007 254.645 85.7109)" d="M-9.31323e-09 -2.5C1.38071 -2.5 2.5 -1.38071 2.5 0C2.5 1.38071 1.38071 2.5 9.31323e-09 2.5C-1.38071 2.5 -2.5 1.38071 -2.5 0C-2.5 -1.38071 -1.38071 -2.5 -9.31323e-09 -2.5Z"></path>
  <path fill="#354B89" transform="matrix(1.46507 -0.885005 0.929571 0.72522 246.422 78.7788)" d="M0 -2.50002C1.38071 -2.50002 2.5 -1.38073 2.5 -1.51098e-05C2.5 1.3807 1.38071 2.49998 0 2.49998C-1.38071 2.49998 -2.5 1.3807 -2.5 -1.54078e-05C-2.5 -1.38073 -1.38071 -2.50002 0 -2.50002Z"></path>
  <path fill="#354B89" transform="matrix(2.16254 0.296937 -0.629837 1.0733 230.45 79.7183)" d="M0 -2.98532C1.68306 -2.98532 3.04744 -1.64874 3.04744 1.5168e-05C3.04744 1.64877 1.68306 2.98535 0 2.98535C-1.68306 2.98535 -3.04744 1.64877 -3.04744 1.53496e-05C-3.04744 -1.64874 -1.68306 -2.98532 0 -2.98532Z"></path>
  <path fill="none" stroke="white" stroke-width="5" stroke-linecap="round" stroke-linejoin="round" transform="matrix(1.5 0 0 1.5 158.539 362.24)" d=""></path>
</svg>