<?xml version="1.0" encoding="utf-8"?>
<svg xmlns="http://www.w3.org/2000/svg" xmlns:xlink="http://www.w3.org/1999/xlink" width="512" height="512">
  <path fill="none" stroke="black" stroke-width="7" stroke-linejoin="round" transform="matrix(1.8 3.72529e-09 -3.72529e-09 1.8 210.879 409.868)" d="M0.317585 -46.251C18.5418 -46.0446 31.0869 -38.646 30.9048 5.64317C31.2269 34.6589 23.8797 44.6777 13.3629 44.4096C2.84604 44.1416 -5.79298 44.2439 -16.1262 44.3244C-26.589 44.2253 -31.97 33.0858 -32.2918 4.05704C-32.3961 -42.4394 -17.9066 -46.4575 0.317585 -46.251Z"></path>
  <path fill="none" stroke="black" stroke-width="7" stroke-linejoin="round" transform="matrix(-2.15345 -3.29802e-07 -3.27096e-07 2.13577 356.081 273.696)" d="M16.7459 -58.7043C20.1155 -54.2094 26.2421 -39.0626 26.1994 -35.1353C26.1565 -31.2079 30.5566 -22.2934 29.2767 2.04173C28.0608 30.9056 23.6277 53.995 -1.63654 53.0748C-17.4936 52.3958 -28.9664 28.4634 -27.7505 -0.400446C-26.2262 -36.5874 -0.532959 -64.9704 16.7459 -58.7043Z"></path>
  <path fill="none" stroke="black" stroke-width="7" stroke-linejoin="round" transform="matrix(1.79976 0.0293645 -0.0293645 1.79976 266.376 274.862)" d="M0.209625 -80.0966C37.3348 -80.0966 84.5 -60 84.5 9.53674e-07C84.5 41.1452 46.7396 76.2788 0.209625 76.2788C-62.1658 76.2788 -84 60.12 -84 9.53674e-07C-84 -71.2881 -50.5087 -80.0966 0.209625 -80.0966Z"></path>
  <path fill="none" stroke="black" stroke-width="7" stroke-linejoin="round" transform="matrix(1.53671 3.18039e-09 -3.72529e-09 1.8 308.979 398.168)" d="M1.57211 -47.9197C19.782 -48.5612 35.4754 -42.1993 37.6788 7.33963C38.731 21.1659 33.6046 45.0704 19.9307 45.3679C6.25701 45.6655 0.123352 45.7989 -12.0747 46.0644C-24.2728 46.3298 -27.2129 23.4889 -28.2651 9.6626C-30.8849 -42.0543 -16.6378 -47.2783 1.57211 -47.9197Z"></path>
  <path fill="#6C88D9" transform="matrix(-2.15345 -3.29802e-07 -3.27096e-07 2.13577 356.081 273.696)" d="M16.7459 -58.7043C20.1155 -54.2094 26.2421 -39.0626 26.1994 -35.1353C26.1565 -31.2079 30.5566 -22.2934 29.2767 2.04173C28.0608 30.9056 23.6277 53.995 -1.63654 53.0748C-17.4936 52.3958 -28.9664 28.4634 -27.7505 -0.400446C-26.2262 -36.5874 -0.532959 -64.9704 16.7459 -58.7043Z"></path>
  <path fill="#5170C8" transform="matrix(1.53671 3.18039e-09 -3.72529e-09 1.8 308.979 398.168)" d="M1.57211 -47.9197C19.782 -48.5612 35.4754 -42.1993 37.6788 7.33963C38.731 21.1659 33.6046 45.0704 19.9307 45.3679C6.25701 45.6655 0.123352 45.7989 -12.0747 46.0644C-24.2728 46.3298 -27.2129 23.4889 -28.2651 9.6626C-30.8849 -42.0543 -16.6378 -47.2783 1.57211 -47.9197Z"></path>
  <path fill="#839BE0" transform="matrix(1.20328 2.49031e-09 -2.91698e-09 1.40944 308.979 398.168)" d="M2.62141 -48.502C20.8313 -49.1435 35.9774 -42.6787 38.5248 11.3445C38.8841 29.2768 30.6352 44.6398 16.9614 44.9374C3.28762 45.2349 3.46394 45.2816 -8.73416 45.5471C-20.9322 45.8125 -27.0598 31.5997 -27.4191 13.6674C-30.3829 -42.5337 -15.5885 -47.8606 2.62141 -48.502Z"></path>
  <path fill="#6C88D9" transform="matrix(1.8 3.72529e-09 -3.72529e-09 1.8 210.879 409.868)" d="M0.317585 -46.251C18.5418 -46.0446 31.0869 -38.646 30.9048 5.64317C31.2269 34.6589 23.8797 44.6777 13.3629 44.4096C2.84604 44.1416 -5.79298 44.2439 -16.1262 44.3244C-26.589 44.2253 -31.97 33.0858 -32.2918 4.05704C-32.3961 -42.4394 -17.9066 -46.4575 0.317585 -46.251Z"></path>
  <path fill="#91A8EB" transform="matrix(-1.67686 -2.56813e-07 -3.2026e-07 2.09114 352.092 267.983)" d="M18.1303 -52.2786C40.2786 -51.5243 32.0686 -26.9514 28.9209 1.55881C25.7732 30.069 12.6523 52.9966 -2.79784 52.4704C-18.2479 51.9442 -29.1546 28.2705 -27.6348 -0.422441C-26.115 -29.1154 -4.018 -53.033 18.1303 -52.2786Z"></path>
  <path fill="none" stroke="black" stroke-width="7" stroke-miterlimit="4" transform="matrix(1.79976 0.0293645 -0.0293645 1.79976 227.465 112.102)" d="M0 -29.5C19.0538 -29.5 34.5 -16.1805 34.5 0.250008C34.5 16.6805 19.0538 30 0 30C-19.0538 30 -34.5 16.6805 -34.5 0.250008C-34.5 -16.1805 -19.0538 -29.5 0 -29.5Z"></path>
  <path fill="#6C88D9" transform="matrix(1.79976 0.0293645 -0.0293645 1.79976 266.376 274.862)" d="M0.209625 -80.0966C37.3348 -80.0966 84.5 -60 84.5 9.53674e-07C84.5 41.1452 46.7396 76.2788 0.209625 76.2788C-62.1658 76.2788 -84 60.12 -84 9.53674e-07C-84 -71.2881 -50.5087 -80.0966 0.209625 -80.0966Z"></path>
  <path fill="none" stroke="black" stroke-width="9" stroke-miterlimit="4" transform="translate(256 256)" d="M-54.8449 -201.715C-40.0623 -201.474 -28.2472 -190.945 -28.4552 -178.197C-28.6632 -165.45 -40.8155 -155.312 -55.5981 -155.553C-70.3807 -155.794 -82.1957 -166.323 -81.9877 -179.071C-81.7798 -191.818 -69.6275 -201.956 -54.8449 -201.715Z"></path>
  <path fill="none" stroke="black" stroke-width="9" stroke-miterlimit="4" transform="translate(256 256)" d="M-70.3579 -186.803C-58.0583 -186.602 -48.2278 -177.841 -48.4009 -167.235C-48.5739 -156.629 -58.685 -148.194 -70.9846 -148.394C-83.2841 -148.595 -93.1146 -157.356 -92.9416 -167.962C-92.7685 -178.568 -82.6575 -187.003 -70.3579 -186.803Z"></path>
  <path fill="none" stroke="black" stroke-width="9" stroke-miterlimit="4" transform="translate(256 256)" d="M-90.365 -211.137C-83.684 -211.028 -78.3441 -206.269 -78.4381 -200.508C-78.5321 -194.746 -84.0244 -190.164 -90.7054 -190.273C-97.3864 -190.382 -102.726 -195.141 -102.632 -200.902C-102.538 -206.664 -97.046 -211.246 -90.365 -211.137Z"></path>
  <path fill="#6C88D9" transform="matrix(1.79976 0.0293645 -0.0293645 1.79976 227.465 112.102)" d="M0 -29.5C19.0538 -29.5 34.5 -16.1805 34.5 0.250008C34.5 16.6805 19.0538 30 0 30C-19.0538 30 -34.5 16.6805 -34.5 0.250008C-34.5 -16.1805 -19.0538 -29.5 0 -29.5Z"></path>
  <path fill="#6C88D9" transform="matrix(0.775834 0.0126583 -0.0126583 0.775834 200.782 77.1721)" d="M-7.62939e-06 -29.5C19.0538 -29.5 34.5 -16.1805 34.5 0.249985C34.5 16.6805 19.0538 30 -7.62939e-06 30C-19.0538 30 -34.5 16.6805 -34.5 0.249985C-34.5 -16.1805 -19.0538 -29.5 -7.62939e-06 -29.5Z"></path>
  <path fill="#6C88D9" transform="matrix(0.645518 0.0105321 -0.0105321 0.645518 185.331 88.2402)" d="M7.62939e-06 -29.5C19.0538 -29.5 34.5 -16.1805 34.5 0.249969C34.5 16.6804 19.0538 30 7.62939e-06 30C-19.0538 30 -34.5 16.6804 -34.5 0.249969C-34.5 -16.1805 -19.0538 -29.5 7.62939e-06 -29.5Z"></path>
  <path fill="#6C88D9" transform="matrix(0.35064 0.00572097 -0.00572097 0.35064 165.466 55.2073)" d="M0 -29.5001C19.0538 -29.5001 34.5 -16.1805 34.5 0.249939C34.5 16.6804 19.0538 29.9999 0 29.9999C-19.0538 29.9999 -34.5 16.6804 -34.5 0.249939C-34.5 -16.1805 -19.0538 -29.5001 0 -29.5001Z"></path>
  <path fill="#91A8EB" transform="matrix(1.50913 0.0246226 -0.0246226 1.50913 265.012 274.862)" d="M0.24998 -81.5196C49.8787 -81.2985 84.5 -60 84.5 -9.53674e-07C84.5 41.1452 46.78 74.5 0.25 74.5C-62.1254 74.5 -84 60.12 -84 -9.53674e-07C-84 -71.2881 -62.1254 -81.5196 0.24998 -81.5196Z"></path>
  <clipPath id="cl_2fb">
    <path d="M269.105 130.713C335.922 131.803 420.218 169.357 418.456 277.343C417.248 351.394 348.256 413.518 264.513 412.151C152.253 410.32 113.431 380.597 115.196 272.395C117.289 144.094 177.824 129.224 269.105 130.713Z"></path>
  </clipPath>
  <g clip-path="url(#cl_2fb)">
    <path fill="#A6B8EF" transform="matrix(0.805953 0.0131497 -0.0151654 0.929491 320.67 239.74)" d="M0.249972 -81.5196C49.8787 -81.2985 84.5 -60 84.5 1.90735e-06C84.5 41.1452 67.1354 74.5 20.6054 74.5C-41.77 74.5 -84 60.12 -84 1.90735e-06C-84 -71.2881 -62.1254 -81.5197 0.249972 -81.5196Z"></path>
    <path fill="#C1CBE8" transform="matrix(0.197995 -0.202726 0.445703 0.435301 343.77 190.891)" d="M11.5671 -77.0972C58.097 -77.0972 97.5959 -41.1452 97.5959 -1.67094e-05C97.5959 41.1452 73.4187 83.0524 26.8888 83.0524C-35.4867 83.0524 11.8086 60.12 11.8086 -1.5431e-05C11.8086 -41.1452 -34.9629 -77.0972 11.5671 -77.0972Z"></path>
    <path fill="#C1CBE8" transform="matrix(0.197995 -0.202726 0.184201 0.179903 388.212 255.247)" d="M48.93 -79.7642C80.6763 -79.0529 77.4946 -42.8889 62.8508 4.00565C48.2069 50.9001 -0.0393895 91.2963 -20.4536 67.777C-40.8678 44.2576 -16.8141 31.8032 -0.458961 -5.13881C15.8962 -42.0808 17.1838 -80.4755 48.93 -79.7642Z"></path>
  </g>
  <path fill="#91A8EB" transform="matrix(1.37947 2.85496e-09 -2.85496e-09 1.37947 210.879 346.868)" d="M0.256088 -0.702179C18.4803 -0.495773 32.0923 -1.13318 31.9576 50.3603C31.4951 75.8441 23.8484 90.3478 13.3316 90.0797C2.81476 89.8117 -5.82429 89.9141 -16.1575 89.9945C-26.5376 90.002 -33.9215 73.2298 -33.459 47.746C-33.6104 -5.95491 -17.9682 -0.908607 0.256088 -0.702179Z"></path>
  <path fill="#91A8EB" transform="matrix(1.79976 0.0293645 -0.0293645 1.79976 227.465 112.102)" d="M0 -22.5C14.6355 -22.5 26.5 -12.3145 26.5 0.250008C26.5 12.8145 14.6355 23 0 23C-14.6355 23 -26.5 12.8145 -26.5 0.250008C-26.5 -12.3145 -14.6355 -22.5 0 -22.5Z"></path>
  <path fill="none" stroke="black" stroke-width="7" stroke-linecap="round" stroke-linejoin="round" transform="matrix(2.15345 4.45679e-09 -4.42021e-09 2.13577 150.189 283.36)" d="M37.0866 -34.9524C40.2806 -29.5424 44.6892 -20.7675 48.0203 -5.79242C53.7045 22.4368 50.881 48.3033 25.7941 51.4536C10.0323 53.3307 -2.03943 33.8503 -7.71622 5.6578C-12.8691 -16.1712 -8.94699 -37.6523 -0.622575 -50.1474"></path>
  <path fill="#6C88D9" transform="matrix(2.15345 4.45679e-09 -4.42021e-09 2.13577 150.189 283.36)" d="M16.6171 -61.1695C21.2376 -58.0005 31.8553 -45.6322 33.0631 -41.8981C34.2708 -38.1641 42.5816 -30.242 48.0203 -5.79242C53.7045 22.4368 50.881 48.3033 25.7941 51.4536C10.0323 53.3307 -2.03943 33.8503 -7.71622 5.6578C-15.745 -28.3543 -1.74211 -61.522 16.6171 -61.1695Z"></path>
  <path fill="#91A8EB" transform="matrix(1.67686 3.47045e-09 -4.32784e-09 2.09114 154.179 277.647)" d="M19.9942 -54.8015C41.2758 -59.7786 50.0916 -34.5854 51.9534 -6.03194C53.2793 22.3163 53.1491 47.5774 38.0599 50.2911C22.9708 53.0048 6.08319 33.0378 -2.85345 5.24221C-12.1397 -22.1262 -1.28741 -49.8244 19.9942 -54.8015Z"></path>
  <path fill="#312F2F" transform="matrix(0.514927 0.173775 -0.207203 0.61398 237.743 363.533)" d="M-3.8147e-06 -128C70.6924 -128 128 -70.6924 128 1.52588e-05C128 70.6925 70.6924 128 -3.8147e-06 128C-70.6925 128 -128 70.6925 -128 1.52588e-05C-128 -70.6924 -70.6925 -128 -3.8147e-06 -128Z"></path>
  <path fill="none" stroke="black" stroke-width="7" stroke-miterlimit="4" transform="translate(256 256)" d="M19.9311 32.8809C56.3325 45.1655 73.9675 90.3098 59.3198 133.714C44.6721 177.117 3.2886 202.344 -33.1129 190.06C-69.5144 177.775 -87.1493 132.631 -72.5016 89.2271C-57.8539 45.8234 -16.4704 20.5963 19.9311 32.8809Z"></path>
  <path fill="none" stroke="black" stroke-width="7" stroke-linejoin="round" transform="translate(256 256)" d="M19.9311 32.8809C19.9311 32.8809 10.5979 29.7312 8.71587 29.0961C-21.0797 19.9324 -64.3332 26.5184 -84.1672 85.2902C-104.001 144.062 -67.4357 178.477 -44.7785 186.123C-42.8965 186.758 -33.1129 190.06 -33.1129 190.06C-33.641 189.882 -34.2008 189.668 -34.7886 189.418"></path>
  <path fill="#DEDEDE" transform="matrix(0.514927 0.173775 -0.207203 0.61398 249.409 367.47)" d="M-3.8147e-06 -128C70.6924 -128 128 -70.6925 128 0C128 70.6925 70.6924 128 -3.8147e-06 128C-70.6925 128 -128 70.6925 -128 0C-128 -70.6925 -70.6925 -128 -3.8147e-06 -128Z"></path>
  <clipPath id="cl_2fe">
    <path d="M275.931 288.881C312.333 301.166 329.967 346.31 315.32 389.714C300.672 433.117 259.289 458.344 222.887 446.06C186.486 433.775 168.851 388.631 183.498 345.227C198.146 301.823 239.53 276.596 275.931 288.881Z"></path>
  </clipPath>
  <g clip-path="url(#cl_2fe)">
    <path fill="#F2F1F1" transform="matrix(0.417906 0.366366 -0.365291 0.522442 235.277 393.191)" d="M-170.753 -28.5017L169.944 -28.5017L169.944 28.5017L-170.753 28.5017L-170.753 -28.5017Z"></path>
    <path fill="#F2F1F1" transform="matrix(0.417906 0.366366 -0.365291 0.522442 220.371 412.725)" d="M-170.753 -5.22017L169.944 -5.22016L169.944 5.22017L-170.753 5.22016L-170.753 -5.22017Z"></path>
  </g>
  <path fill="#8B8B8B" transform="matrix(0.514927 0.173775 -0.207203 0.61398 252.963 367.986)" d="M0.249996 -87.5C51.4744 -87.5 93 -48.4368 93 -0.25C93 47.9368 51.4744 87 0.249996 87C-50.9744 87 -92.5 47.9368 -92.5 -0.25C-92.5 -48.4368 -50.9744 -87.5 0.249996 -87.5Z"></path>
  <path fill="#B0AFAF" transform="matrix(0.514927 0.173775 -0.207203 0.61398 249.409 367.47)" d="M-3.8147e-06 -86C47.4965 -86 86 -47.4965 86 0C86 47.4965 47.4965 86 -3.8147e-06 86C-47.4965 86 -86 47.4965 -86 0C-86 -47.4965 -47.4965 -86 -3.8147e-06 -86Z"></path>
  <path fill="#8B8B8B" transform="matrix(0.514927 0.173775 -0.207203 0.61398 250.495 365.101)" d="M-52.3281 27.625L-52.3281 -27.668L-46.756 -30.4056L-46.7825 24.7561L-42.4192 24.6238L-47.1315 27.6684L-52.3281 27.625ZM-50.25 21.3164C-54.7526 21.3164 -58.6058 20.4196 -61.8096 18.626C-65.0133 16.8324 -67.4626 14.3337 -69.1572 11.1299C-70.8519 7.92611 -71.6992 4.19662 -71.6992 -0.0585938C-71.6992 -4.3138 -70.8519 -8.0433 -69.1572 -11.2471C-67.4626 -14.4508 -65.0133 -16.9495 -61.8096 -18.7432C-58.6058 -20.5368 -54.7526 -21.4336 -50.25 -21.4336C-47.3802 -21.4336 -44.7826 -21.0625 -42.457 -20.3203C-40.1315 -19.5781 -38.109 -18.5205 -36.3896 -17.1475C-34.6702 -15.7744 -27.78 -10.4693 -25.0591 -8.68546C-26.0599 -7.96244 -28.21 -6.9054 -30.3965 -5.66211C-30.3965 -5.66211 -44.0898 -3.62109 -44.0898 -3.62109C-44.0898 -3.62109 -44.5166 -5.6683 -44.8506 -6.49707C-45.1846 -7.32584 -45.599 -8.02474 -46.0938 -8.59375C-46.5885 -9.16276 -47.1637 -9.58952 -47.8193 -9.87402C-48.4749 -10.1585 -49.2109 -10.3008 -50.0273 -10.3008C-51.3385 -10.3008 -52.4766 -9.92969 -53.4414 -9.1875C-54.4062 -8.44531 -55.1546 -7.31966 -55.6865 -5.81055C-56.2184 -4.30143 -56.4844 -2.40885 -56.4844 -0.132812C-56.4844 2.11849 -56.2184 4.01107 -55.6865 5.54492C-55.1546 7.07878 -54.4062 8.23535 -53.4414 9.01465C-52.4766 9.79395 -51.3385 10.1836 -50.0273 10.1836C-49.2109 10.1836 -48.4749 10.0352 -47.8193 9.73828C-47.1637 9.44141 -46.5824 9.00228 -46.0752 8.4209C-45.568 7.83952 -45.8968 6.99338 -44.8135 6.25C-43.7302 5.50662 -38.8902 1.52308 -38.7417 0.409798C-38.7417 0.409798 -30.3965 5.28516 -30.3965 5.28516C-30.3965 5.28516 -31.2747 9.97949 -32.2891 11.9463C-33.3034 13.9131 -34.6641 15.5954 -36.3711 16.9932C-38.0781 18.3909 -40.1006 19.4609 -42.4385 20.2031C-44.7764 20.9453 -47.3802 21.3164 -50.25 21.3164ZM-24.5332 27.625L-24.5332 16.8633L-3.90039 -0.207031C-3.90039 -0.207031 -1.36458 -2.41504 -0.375 -3.41699C0.614584 -4.41895 1.37533 -5.45182 1.90723 -6.51562C2.43913 -7.57943 2.70508 -8.76693 2.70508 -10.0781C2.70508 -11.4883 2.40202 -12.6943 1.7959 -13.6963C1.18978 -14.6982 0.361002 -15.4714 -0.69043 -16.0156C-1.74186 -16.5599 -2.96029 -16.832 -4.3457 -16.832C-5.73112 -16.832 -6.94954 -16.5537 -8.00098 -15.9971C-9.05241 -15.4404 -6.2922 -13.7058 -5.868 -12.6284C-7.10779 -11.907 -9.37628 -10.5827 -11.3223 -9.63281C-11.3223 -9.63281 -25.5723 -9.63281 -25.5723 -9.63281C-25.5723 -9.63281 -24.7002 -16.8568 -22.9561 -19.6523C-21.2119 -22.4479 -18.7441 -24.6064 -15.5527 -26.1279C-12.3613 -27.6494 -8.62565 -28.4102 -4.3457 -28.4102C0.0826817 -28.4102 3.91732 -27.7051 7.1582 -26.2949C10.3991 -24.8848 12.904 -22.8994 14.6729 -20.3389C16.4417 -17.7783 17.3262 -14.7786 17.3262 -11.3398C17.3262 -9.21224 16.887 -7.10319 16.0088 -5.0127C15.1305 -2.9222 13.5534 -0.602865 11.2773 1.94531C9.0013 4.49349 5.74805 7.51172 1.51758 11C1.51758 11 -3.67773 15.3047 -3.67773 15.3047L-3.67773 15.6758L17.9199 15.6758L23.3601 24.6527L17.9199 27.625L-24.5332 27.625ZM45.3066 28.3672C41.0514 28.3672 37.2786 27.6188 33.9883 26.1221C30.6979 24.6253 28.1126 22.5534 26.2324 19.9062C24.3522 17.2591 23.3874 14.2161 23.3379 10.7773C23.3379 10.7773 28.8025 7.82547 28.8025 7.82547L37.959 10.7773C37.959 10.7773 38.293 13.14 38.9609 14.0801C39.6289 15.0202 40.5195 15.7438 41.6328 16.251C42.7461 16.7581 43.9707 17.0117 45.3066 17.0117C46.8405 17.0117 48.1826 16.6839 49.333 16.0283C50.4834 15.3727 51.3864 14.4512 52.042 13.2637C52.6976 12.0762 53.0254 10.6784 53.0254 9.07031C53.0254 7.4375 52.6976 6.02116 52.042 4.82129C51.3864 3.62142 50.4834 2.69369 49.333 2.03809C48.1826 1.38249 46.8405 1.05469 45.3066 1.05469C43.6986 1.05469 43.4422 2.31534 43.4422 2.31534C43.4422 2.31534 38.6022 4.02344 37.959 5.35938C37.959 5.35938 24.748 2.76172 24.748 2.76172L26.9004 -27.668L32.366 -30.6324L64.084 -27.668L69.5014 -18.6129L64.084 -15.6445L39.2207 -15.6445L38.1816 -3.47266L38.4785 -3.47266C38.4785 -3.47266 40.8411 -6.54037 42.9687 -7.62891C45.0964 -8.71745 47.5579 -9.26172 50.3535 -9.26172C52.8027 -9.26172 55.0726 -8.82877 57.1631 -7.96289C59.2536 -7.097 61.0719 -5.86621 62.6182 -4.27051C64.1644 -2.6748 65.3643 -0.782227 66.2178 1.40723C67.0713 3.59668 67.498 6.0026 67.498 8.625C67.498 12.4844 66.5827 15.8984 64.752 18.8672C62.9212 21.8359 60.3421 24.1615 57.0146 25.8438C53.6872 27.526 49.7845 28.3672 45.3066 28.3672Z"></path>
  <path fill="#DEDEDE" transform="matrix(0.514927 0.173775 -0.207203 0.61398 253.899 363.514)" d="M-51.8282 28.625L-51.8282 -26.668L-47.375 -26.668L-47.375 28.625L-51.8282 28.625ZM-49.75 22.3164C-54.2526 22.3164 -58.1058 21.4196 -61.3096 19.626C-64.5134 17.8324 -66.9626 15.3337 -68.6573 12.1299C-70.3519 8.92611 -71.1992 5.19662 -71.1992 0.941406C-71.1992 -3.3138 -70.3519 -7.0433 -68.6573 -10.2471C-66.9626 -13.4508 -64.5134 -15.9495 -61.3096 -17.7432C-58.1058 -19.5368 -54.2526 -20.4336 -49.75 -20.4336C-46.8802 -20.4336 -44.2826 -20.0625 -41.9571 -19.3203C-39.6315 -18.5781 -37.6091 -17.5205 -35.8897 -16.1475C-34.1703 -14.7744 -32.8034 -13.1169 -31.7891 -11.1748C-30.7748 -9.23275 -30.1439 -7.06185 -29.8965 -4.66211C-29.8965 -4.66211 -43.5899 -2.62109 -43.5899 -2.62109C-43.5899 -2.62109 -44.0166 -4.6683 -44.3506 -5.49707C-44.6846 -6.32584 -45.099 -7.02474 -45.5938 -7.59375C-46.0886 -8.16276 -46.6638 -8.58952 -47.3194 -8.87402C-47.975 -9.15853 -48.711 -9.30078 -49.5274 -9.30078C-50.8386 -9.30078 -51.9766 -8.92969 -52.9414 -8.1875C-53.9063 -7.44531 -54.6547 -6.31966 -55.1866 -4.81055C-55.7185 -3.30143 -55.9844 -1.40885 -55.9844 0.867188C-55.9844 3.11849 -55.7185 5.01107 -55.1866 6.54492C-54.6547 8.07878 -53.9063 9.23535 -52.9414 10.0146C-51.9766 10.7939 -50.8386 11.1836 -49.5274 11.1836C-48.711 11.1836 -47.975 11.0352 -47.3194 10.7383C-46.6638 10.4414 -46.0824 10.0023 -45.5752 9.4209C-45.0681 8.83952 -44.6475 8.11588 -44.3135 7.25C-43.9795 6.38412 -43.7383 5.39453 -43.5899 4.28125C-43.5899 4.28125 -29.8965 6.28516 -29.8965 6.28516C-29.8965 6.28516 -30.7748 10.9795 -31.7891 12.9463C-32.8034 14.9131 -34.1641 16.5954 -35.8711 17.9932C-37.5782 19.3909 -39.6006 20.4609 -41.9385 21.2031C-44.2764 21.9453 -46.8802 22.3164 -49.75 22.3164ZM-24.0332 28.625L-24.0332 17.8633L-3.4004 0.792969C-3.4004 0.792969 -0.864595 -1.41504 0.124989 -2.41699C1.11457 -3.41895 1.87531 -4.45182 2.40722 -5.51562C2.93912 -6.57943 3.20507 -7.76693 3.20507 -9.07812C3.20507 -10.4883 2.90201 -11.6943 2.29589 -12.6963C1.68977 -13.6982 0.860991 -14.4714 -0.190441 -15.0156C-1.24187 -15.5599 -2.4603 -15.832 -3.84571 -15.832C-5.23113 -15.832 -6.44956 -15.5537 -7.50099 -14.9971C-8.55242 -14.4404 -9.36883 -13.6302 -9.95021 -12.5664C-10.5316 -11.5026 -10.8223 -10.1914 -10.8223 -8.63281C-10.8223 -8.63281 -25.0723 -8.63281 -25.0723 -8.63281C-25.0723 -8.63281 -24.2002 -15.8568 -22.4561 -18.6523C-20.7119 -21.4479 -18.2442 -23.6064 -15.0527 -25.1279C-11.8613 -26.6494 -8.12566 -27.4102 -3.84571 -27.4102C0.58267 -27.4102 4.41731 -26.7051 7.65819 -25.2949C10.8991 -23.8848 13.404 -21.8994 15.1728 -19.3389C16.9417 -16.7783 17.8262 -13.7786 17.8262 -10.3398C17.8262 -8.21224 17.387 -6.10319 16.5088 -4.0127C15.6305 -1.9222 14.0534 0.397135 11.7773 2.94531C9.50129 5.49349 6.24804 8.51172 2.01757 12C2.01757 12 -3.17775 16.3047 -3.17775 16.3047L-3.17775 16.6758L18.4199 16.6758L18.4199 28.625L-24.0332 28.625ZM45.8066 29.3672C41.5514 29.3672 37.7786 28.6188 34.4883 27.1221C31.1979 25.6253 28.6126 23.5534 26.7324 20.9063C24.8522 18.2591 23.8874 15.2162 23.8379 11.7774C23.8379 11.7774 38.459 11.7774 38.459 11.7774C38.459 11.7774 38.793 14.14 39.4609 15.0801C40.1289 16.0202 41.0195 16.7438 42.1328 17.251C43.2461 17.7582 44.4707 18.0117 45.8066 18.0117C47.3405 18.0117 48.6826 17.6839 49.833 17.0283C50.9834 16.3727 51.8864 15.4512 52.542 14.2637C53.1976 13.0762 53.5254 11.6784 53.5254 10.0703C53.5254 8.43752 53.1976 7.02117 52.542 5.8213C51.8864 4.62144 50.9834 3.6937 49.833 3.0381C48.6826 2.3825 47.3405 2.0547 45.8066 2.0547C44.1986 2.0547 42.7327 2.43817 41.4092 3.20509C40.0856 3.97202 39.1022 5.02345 38.459 6.35939C38.459 6.35939 25.2481 3.76173 25.2481 3.76173L27.4004 -26.668L64.584 -26.668L64.584 -14.6445L39.7207 -14.6445L38.6816 -2.47264L38.9785 -2.47264C38.9785 -2.47264 41.3411 -5.54035 43.4688 -6.62889C45.5964 -7.71743 48.0579 -8.2617 50.8535 -8.2617C53.3027 -8.2617 55.5726 -7.82876 57.6631 -6.96288C59.7536 -6.09699 61.5719 -4.8662 63.1182 -3.27049C64.6644 -1.67479 65.8643 0.217789 66.7178 2.40724C67.5713 4.59669 67.998 7.00262 67.998 9.62502C67.998 13.4844 67.0827 16.8985 65.252 19.8672C63.4212 22.836 60.8421 25.1615 57.5147 26.8438C54.1872 28.5261 50.2845 29.3672 45.8066 29.3672Z"></path>
  <clipPath id="cl_300">
    <path d="M221.28 372.083L232.737 338.134L235.03 338.908L223.573 372.857L221.28 372.083ZM223.657 368.571C221.339 367.788 219.54 366.568 218.262 364.91C216.984 363.252 216.241 361.292 216.032 359.031C215.823 356.769 216.16 354.332 217.041 351.72C217.923 349.107 219.132 346.964 220.669 345.292C222.205 343.619 223.984 342.511 226.005 341.966C228.027 341.422 230.197 341.541 232.515 342.323C233.993 342.822 235.254 343.501 236.297 344.361C237.341 345.221 238.163 346.221 238.764 347.363C239.365 348.505 239.725 349.76 239.845 351.129C239.965 352.498 239.84 353.94 239.47 355.457C239.47 355.457 231.996 354.33 231.996 354.33C231.996 354.33 232.201 352.999 232.2 352.432C232.2 351.865 232.132 351.364 231.995 350.929C231.858 350.493 231.65 350.131 231.371 349.843C231.093 349.554 230.743 349.339 230.323 349.197C229.648 348.969 228.985 348.999 228.334 349.287C227.684 349.575 227.065 350.136 226.479 350.971C225.892 351.805 225.363 352.921 224.891 354.318C224.425 355.7 224.17 356.908 224.126 357.943C224.082 358.977 224.227 359.817 224.563 360.463C224.898 361.109 225.403 361.546 226.079 361.774C226.499 361.916 226.909 361.953 227.308 361.884C227.707 361.816 228.097 361.647 228.479 361.379C228.86 361.11 229.227 360.739 229.578 360.265C229.93 359.791 230.259 359.226 230.566 358.568C230.566 358.568 237.202 362.178 237.202 362.178C237.202 362.178 235.777 364.908 234.847 365.939C233.917 366.97 232.868 367.767 231.7 368.328C230.531 368.89 229.268 369.195 227.91 369.245C226.553 369.294 225.135 369.069 223.657 368.571ZM235.592 376.913L237.822 370.306L251.984 363.41C251.984 363.41 253.747 362.495 254.464 362.052C255.181 361.609 255.787 361.107 256.281 360.546C256.776 359.985 257.159 359.302 257.43 358.497C257.722 357.632 257.816 356.838 257.712 356.118C257.607 355.397 257.341 354.779 256.912 354.262C256.483 353.745 255.912 353.366 255.199 353.125C254.486 352.885 253.801 352.844 253.144 353.003C252.487 353.162 251.899 353.518 251.379 354.07C250.859 354.622 250.438 355.376 250.115 356.333C250.115 356.333 242.777 353.857 242.777 353.857C242.777 353.857 244.723 349.573 246.2 348.16C247.678 346.746 249.396 345.85 251.354 345.47C253.313 345.091 255.394 345.273 257.598 346.017C259.878 346.786 261.707 347.885 263.083 349.314C264.46 350.743 265.339 352.398 265.719 354.277C266.099 356.157 265.933 358.152 265.22 360.264C264.78 361.57 264.116 362.788 263.231 363.919C262.346 365.05 261.053 366.2 259.353 367.369C257.653 368.538 255.352 369.826 252.451 371.233C252.451 371.233 248.884 372.973 248.884 372.973L248.807 373.201L259.928 376.954L257.453 384.29L235.592 376.913ZM271.401 389.505C269.21 388.766 267.422 387.651 266.038 386.16C264.654 384.669 263.752 382.948 263.332 380.996C262.913 379.044 263.046 377.008 263.733 374.888C263.733 374.888 271.262 377.429 271.262 377.429C271.262 377.429 270.945 378.937 271.094 379.63C271.243 380.324 271.552 380.923 272.02 381.428C272.488 381.932 273.066 382.301 273.754 382.533C274.544 382.8 275.303 382.832 276.031 382.629C276.759 382.426 277.415 382.018 277.999 381.402C278.582 380.787 279.041 379.986 279.374 378.999C279.712 377.996 279.837 377.07 279.748 376.219C279.659 375.368 279.386 374.642 278.93 374.039C278.473 373.437 277.85 373.002 277.06 372.736C276.232 372.456 275.398 372.437 274.557 372.678C273.717 372.919 272.993 373.394 272.385 374.102C272.385 374.102 266.12 370.211 266.12 370.211L273.534 351.902L292.681 358.364L290.189 365.746L277.386 361.425L274.329 368.718L274.482 368.77C274.482 368.77 276.334 367.297 277.656 366.998C278.977 366.699 280.357 366.793 281.797 367.279C283.058 367.704 284.137 368.365 285.034 369.26C285.931 370.155 286.612 371.226 287.078 372.475C287.543 373.723 287.769 375.094 287.755 376.586C287.741 378.079 287.462 379.63 286.919 381.24C286.119 383.61 284.94 385.547 283.382 387.051C281.824 388.556 280.015 389.536 277.953 389.99C275.891 390.445 273.707 390.283 271.401 389.505Z"></path>
  </clipPath>
  <g clip-path="url(#cl_300)">
    <path fill="#F2F1F1" transform="matrix(0.417906 0.366366 -0.365291 0.522442 235.277 393.191)" d="M-170.753 -28.5017L169.944 -28.5017L169.944 28.5017L-170.753 28.5017L-170.753 -28.5017Z"></path>
    <path fill="#F2F1F1" transform="matrix(0.417906 0.366366 -0.365291 0.522442 220.371 412.725)" d="M-170.753 -5.22017L169.944 -5.22016L169.944 5.22017L-170.753 5.22016L-170.753 -5.22017Z"></path>
  </g>
  <path fill="#8E8B8B" transform="matrix(0.61398 0.207203 -0.207203 0.61398 275.931 288.881)" d="M-3.8147e-06 3.8147e-06C-3.8147e-06 3.8147e-06 -15.2012 0 -18.2664 -3.8147e-06C-66.3551 1.3037 -126.35 32.2772 -126.35 128C-126.35 223.723 -55.9022 256 -19 256C-15.9348 256 -3.8147e-06 256 7.62939e-06 256C-25.5438 256 -107.35 223.723 -107.35 128C-107.35 32.2772 -25.5439 0 -3.8147e-06 3.8147e-06Z"></path>
  <clipPath id="cl_302">
    <path d="M275.931 288.881C275.931 288.881 266.598 285.731 264.716 285.096C234.92 275.932 191.667 282.518 171.833 341.29C151.999 400.062 188.564 434.477 211.221 442.123C213.103 442.758 222.887 446.06 222.887 446.06C207.204 440.767 163.664 403.999 183.498 345.227C203.332 286.455 260.248 283.588 275.931 288.881Z"></path>
  </clipPath>
  <g clip-path="url(#cl_302)">
    <path fill="#ACABAB" transform="matrix(0.514927 0.173775 -0.207203 0.61398 194.622 387.553)" d="M-105.5 -40.8039L105 -40.8039L105 40.8039L-105.5 40.8039L-105.5 -40.8039Z"></path>
    <path fill="#D6D6D6" transform="matrix(0.514927 0.173775 -0.207203 0.61398 192.422 381.408)" d="M-105.5 -7.02946L105 -7.02946L105 7.02946L-105.5 7.02946L-105.5 -7.02946Z"></path>
    <path fill="#D6D6D6" transform="matrix(0.516392 0.174269 -0.206615 0.612239 222.882 361.938)" d="M-137.32 -30.4789L136.67 -30.4789L136.67 30.4789L-137.32 30.4789L-137.32 -30.4789Z"></path>
  </g>
  <path fill="#91A8EB" transform="matrix(0.606874 0.00990163 -0.00990163 0.606874 200.782 79.3792)" d="M0 -22.5C14.6355 -22.5 26.5 -12.3145 26.5 0.25C26.5 12.8145 14.6355 23 0 23C-14.6355 23 -26.5 12.8145 -26.5 0.25C-26.5 -12.3145 -14.6355 -22.5 0 -22.5Z"></path>
  <path fill="#91A8EB" transform="matrix(0.504938 0.00823846 -0.00823846 0.504938 185.331 90.0766)" d="M-4.23752e-08 -22.5C14.6355 -22.5 26.5 -12.3145 26.5 0.25C26.5 12.8145 14.6355 23 4.23752e-08 23C-14.6355 23 -26.5 12.8145 -26.5 0.25C-26.5 -12.3145 -14.6355 -22.5 -4.23752e-08 -22.5Z"></path>
  <path fill="#91A8EB" transform="matrix(0.274279 0.00447507 -0.00447507 0.274279 166.462 57.2901)" d="M0 -22.4261C14.2962 -22.4261 25.8855 -12.274 25.8855 0.249268C25.8855 12.7726 14.2962 22.9247 0 22.9247C-14.2962 22.9247 -25.8855 12.7726 -25.8855 0.249268C-25.8855 -12.274 -14.2962 -22.4261 0 -22.4261Z"></path>
  <path fill="#C1CBE8" transform="matrix(0.073816 -0.11483 0.26388 0.16963 162.703 54.6899)" d="M-6.10352e-05 -11.5C14.6355 -11.5 28.006 -7.98328 28.006 -1.63201C28.006 4.71926 15.5058 0.400185 0.870295 0.400186C-13.7652 0.400185 -26.7661 4.37689 -26.7661 -1.97439C-26.7661 -8.32566 -14.6356 -11.5 -6.10352e-05 -11.5Z"></path>
  <path fill="#C1CBE8" transform="matrix(-0.166841 -0.570472 0.880441 -0.257495 185.239 116.452)" d="M-3.05176e-05 -11.5C14.6355 -11.5 28.0061 -7.98328 28.0061 -1.63201C28.0061 4.71927 15.5059 0.400188 0.870326 0.400188C-13.7652 0.400186 -26.7661 4.37689 -26.7661 -1.97438C-26.7661 -8.32566 -14.6356 -11.5 -3.05176e-05 -11.5Z"></path>
  <path fill="#1B2B56" transform="matrix(1.78669 -0.21848 0.065544 0.536007 239.475 88.9772)" d="M-9.31323e-09 -2.49997C1.38071 -2.49997 2.5 -1.38068 2.5 3.05176e-05C2.5 1.38074 1.38071 2.50003 9.31323e-09 2.50003C-1.38071 2.50003 -2.5 1.38074 -2.5 3.05176e-05C-2.5 -1.38068 -1.38071 -2.49997 -9.31323e-09 -2.49997Z"></path>
  <path fill="none" stroke="#1B2B56" stroke-width="0.5" stroke-linecap="round" stroke-linejoin="round" transform="matrix(1.78289 -0.247598 0.247598 1.78289 248.119 87.8656)" d="M1.98548 0.277981L6.02909 0.184244"></path>
  <path fill="#1B2B56" transform="matrix(1.78669 -0.21848 0.065544 0.536007 268.063 85.4815)" d="M-1.91666e-06 -2.49997C1.38071 -2.49997 2.5 -1.38068 2.5 3.05176e-05C2.5 1.38074 1.38071 2.50003 -1.89804e-06 2.50003C-1.38071 2.50003 -2.5 1.38074 -2.5 3.05176e-05C-2.5 -1.38068 -1.38071 -2.49997 -1.91666e-06 -2.49997Z"></path>
  <path fill="#354B89" transform="matrix(1.46507 -0.885005 0.929571 0.72522 259.84 78.5494)" d="M0 -2.50002C1.38071 -2.50002 2.5 -1.38073 2.5 -1.51098e-05C2.5 1.3807 1.38071 2.49998 0 2.49998C-1.38071 2.49998 -2.5 1.3807 -2.5 -1.54078e-05C-2.5 -1.38073 -1.38071 -2.50002 0 -2.50002Z"></path>
  <path fill="#354B89" transform="matrix(2.16254 0.296937 -0.629837 1.0733 243.868 79.489)" d="M0 -2.98534C1.68306 -2.98534 3.04744 -1.64876 3.04744 -9.08208e-08C3.04744 1.64876 1.68306 2.98534 0 2.98534C-1.68306 2.98534 -3.04744 1.64876 -3.04744 9.08208e-08C-3.04744 -1.64876 -1.68306 -2.98534 0 -2.98534Z"></path>
  <path fill="none" stroke="white" stroke-width="5" stroke-linecap="round" stroke-linejoin="round" transform="matrix(1.5 0 0 1.5 158.539 362.24)" d=""></path>
</svg>