<?xml version="1.0" encoding="utf-8"?>
<svg xmlns="http://www.w3.org/2000/svg" xmlns:xlink="http://www.w3.org/1999/xlink" width="512" height="512">
  <path fill="none" stroke="black" stroke-width="7" stroke-linejoin="round" transform="matrix(1.8 3.72529e-09 -3.72529e-09 1.8 210.879 409.868)" d="M0.317585 -46.251C18.5418 -46.0446 31.0869 -38.646 30.9048 5.64317C31.2269 34.6589 23.8797 44.6777 13.3629 44.4096C2.84604 44.1416 -5.79298 44.2439 -16.1262 44.3244C-26.589 44.2253 -31.97 33.0858 -32.2918 4.05704C-32.3961 -42.4394 -17.9066 -46.4575 0.317585 -46.251Z"></path>
  <path fill="none" stroke="black" stroke-width="7" stroke-linejoin="round" transform="matrix(-2.15345 -3.29802e-07 -3.27096e-07 2.13577 356.081 273.696)" d="M15.115 -58.7444C18.4846 -54.2495 24.6112 -39.1027 24.5685 -35.1754C24.5256 -31.248 28.9257 -22.3335 27.6458 2.00163C26.4299 30.8655 21.9968 53.9549 -3.26745 53.0347C-19.1245 52.3557 -30.5973 28.4233 -29.3814 -0.44054C-27.8571 -36.6275 -2.16387 -65.0105 15.115 -58.7444Z"></path>
  <path fill="none" stroke="black" stroke-width="7" stroke-linejoin="round" transform="matrix(1.79976 0.0293645 -0.0293645 1.79976 266.376 274.862)" d="M0.209625 -80.0966C37.3348 -80.0966 84.5 -60 84.5 9.53674e-07C84.5 41.1452 46.7396 76.2788 0.209625 76.2788C-62.1658 76.2788 -84 60.12 -84 9.53674e-07C-84 -71.2881 -50.5087 -80.0966 0.209625 -80.0966Z"></path>
  <path fill="none" stroke="black" stroke-width="7" stroke-linejoin="round" transform="matrix(1.53671 3.18039e-09 -3.72529e-09 1.8 308.979 398.168)" d="M1.57211 -47.9197C19.782 -48.5612 35.4754 -42.1993 37.6788 7.33963C38.731 21.1659 33.6046 45.0704 19.9307 45.3679C6.25701 45.6655 0.123352 45.7989 -12.0747 46.0644C-24.2728 46.3298 -27.2129 23.4889 -28.2651 9.6626C-30.8849 -42.0543 -16.6378 -47.2783 1.57211 -47.9197Z"></path>
  <path fill="#6C88D9" transform="matrix(-2.15345 -3.29802e-07 -3.27096e-07 2.13577 356.081 273.696)" d="M15.115 -58.7444C18.4846 -54.2495 24.6112 -39.1027 24.5685 -35.1754C24.5256 -31.248 28.9257 -22.3335 27.6458 2.00163C26.4299 30.8655 21.9968 53.9549 -3.26745 53.0347C-19.1245 52.3557 -30.5973 28.4233 -29.3814 -0.44054C-27.8571 -36.6275 -2.16387 -65.0105 15.115 -58.7444Z"></path>
  <path fill="#5170C8" transform="matrix(1.53671 3.18039e-09 -3.72529e-09 1.8 308.979 398.168)" d="M1.57211 -47.9197C19.782 -48.5612 35.4754 -42.1993 37.6788 7.33963C38.731 21.1659 33.6046 45.0704 19.9307 45.3679C6.25701 45.6655 0.123352 45.7989 -12.0747 46.0644C-24.2728 46.3298 -27.2129 23.4889 -28.2651 9.6626C-30.8849 -42.0543 -16.6378 -47.2783 1.57211 -47.9197Z"></path>
  <path fill="#839BE0" transform="matrix(1.20328 2.49031e-09 -2.91698e-09 1.40944 308.979 398.168)" d="M2.62141 -48.502C20.8313 -49.1435 35.9774 -42.6787 38.5248 11.3445C38.8841 29.2768 30.6352 44.6398 16.9614 44.9374C3.28762 45.2349 3.46394 45.2816 -8.73416 45.5471C-20.9322 45.8125 -27.0598 31.5997 -27.4191 13.6674C-30.3829 -42.5337 -15.5885 -47.8606 2.62141 -48.502Z"></path>
  <path fill="#6C88D9" transform="matrix(1.8 3.72529e-09 -3.72529e-09 1.8 210.879 409.868)" d="M0.317585 -46.251C18.5418 -46.0446 31.0869 -38.646 30.9048 5.64317C31.2269 34.6589 23.8797 44.6777 13.3629 44.4096C2.84604 44.1416 -5.79298 44.2439 -16.1262 44.3244C-26.589 44.2253 -31.97 33.0858 -32.2918 4.05704C-32.3961 -42.4394 -17.9066 -46.4575 0.317585 -46.251Z"></path>
  <path fill="#91A8EB" transform="matrix(-1.67686 -2.56813e-07 -3.2026e-07 2.09114 352.092 267.983)" d="M16.0358 -52.3195C38.1841 -51.5652 29.9742 -26.9924 26.8265 1.51786C23.6788 30.0281 10.5578 52.9556 -4.89227 52.4294C-20.3423 51.9032 -31.249 28.2295 -29.7292 -0.463391C-28.2095 -29.1563 -6.11243 -53.0739 16.0358 -52.3195Z"></path>
  <path fill="none" stroke="black" stroke-width="7" stroke-miterlimit="4" transform="matrix(1.79976 0.0293645 -0.0293645 1.79976 227.465 112.102)" d="M0 -29.5C19.0538 -29.5 34.5 -16.1805 34.5 0.250008C34.5 16.6805 19.0538 30 0 30C-19.0538 30 -34.5 16.6805 -34.5 0.250008C-34.5 -16.1805 -19.0538 -29.5 0 -29.5Z"></path>
  <path fill="#6C88D9" transform="matrix(1.79976 0.0293645 -0.0293645 1.79976 266.376 274.862)" d="M0.209625 -80.0966C37.3348 -80.0966 84.5 -60 84.5 9.53674e-07C84.5 41.1452 46.7396 76.2788 0.209625 76.2788C-62.1658 76.2788 -84 60.12 -84 9.53674e-07C-84 -71.2881 -50.5087 -80.0966 0.209625 -80.0966Z"></path>
  <path fill="none" stroke="black" stroke-width="9" stroke-miterlimit="4" transform="translate(256 256)" d="M-54.8449 -201.715C-40.0623 -201.474 -28.2472 -190.945 -28.4552 -178.197C-28.6632 -165.45 -40.8155 -155.312 -55.5981 -155.553C-70.3807 -155.794 -82.1957 -166.323 -81.9877 -179.071C-81.7798 -191.818 -69.6275 -201.956 -54.8449 -201.715Z"></path>
  <path fill="none" stroke="black" stroke-width="9" stroke-miterlimit="4" transform="translate(256 256)" d="M-70.3579 -186.803C-58.0583 -186.602 -48.2278 -177.841 -48.4009 -167.235C-48.5739 -156.629 -58.685 -148.194 -70.9846 -148.394C-83.2841 -148.595 -93.1146 -157.356 -92.9416 -167.962C-92.7685 -178.568 -82.6575 -187.003 -70.3579 -186.803Z"></path>
  <path fill="none" stroke="black" stroke-width="9" stroke-miterlimit="4" transform="translate(256 256)" d="M-90.365 -211.137C-83.684 -211.028 -78.3441 -206.269 -78.4381 -200.508C-78.5321 -194.746 -84.0244 -190.164 -90.7054 -190.273C-97.3864 -190.382 -102.726 -195.141 -102.632 -200.902C-102.538 -206.664 -97.046 -211.246 -90.365 -211.137Z"></path>
  <path fill="#6C88D9" transform="matrix(1.79976 0.0293645 -0.0293645 1.79976 227.465 112.102)" d="M0 -29.5C19.0538 -29.5 34.5 -16.1805 34.5 0.250008C34.5 16.6805 19.0538 30 0 30C-19.0538 30 -34.5 16.6805 -34.5 0.250008C-34.5 -16.1805 -19.0538 -29.5 0 -29.5Z"></path>
  <path fill="#6C88D9" transform="matrix(0.775834 0.0126583 -0.0126583 0.775834 200.782 77.1721)" d="M-7.62939e-06 -29.5C19.0538 -29.5 34.5 -16.1805 34.5 0.249985C34.5 16.6805 19.0538 30 -7.62939e-06 30C-19.0538 30 -34.5 16.6805 -34.5 0.249985C-34.5 -16.1805 -19.0538 -29.5 -7.62939e-06 -29.5Z"></path>
  <path fill="#6C88D9" transform="matrix(0.645518 0.0105321 -0.0105321 0.645518 185.331 88.2402)" d="M7.62939e-06 -29.5C19.0538 -29.5 34.5 -16.1805 34.5 0.249969C34.5 16.6804 19.0538 30 7.62939e-06 30C-19.0538 30 -34.5 16.6804 -34.5 0.249969C-34.5 -16.1805 -19.0538 -29.5 7.62939e-06 -29.5Z"></path>
  <path fill="#6C88D9" transform="matrix(0.35064 0.00572097 -0.00572097 0.35064 165.466 55.2073)" d="M0 -29.5001C19.0538 -29.5001 34.5 -16.1805 34.5 0.249939C34.5 16.6804 19.0538 29.9999 0 29.9999C-19.0538 29.9999 -34.5 16.6804 -34.5 0.249939C-34.5 -16.1805 -19.0538 -29.5001 0 -29.5001Z"></path>
  <path fill="#91A8EB" transform="matrix(1.50913 0.0246226 -0.0246226 1.50913 265.012 274.862)" d="M0.24998 -81.5196C49.8787 -81.2985 84.5 -60 84.5 -9.53674e-07C84.5 41.1452 46.78 74.5 0.25 74.5C-62.1254 74.5 -84 60.12 -84 -9.53674e-07C-84 -71.2881 -62.1254 -81.5196 0.24998 -81.5196Z"></path>
  <clipPath id="cl_34b">
    <path d="M269.105 130.713C335.922 131.803 420.218 169.357 418.456 277.343C417.248 351.394 348.256 413.518 264.513 412.151C152.253 410.32 113.431 380.597 115.196 272.395C117.289 144.094 177.824 129.224 269.105 130.713Z"></path>
  </clipPath>
  <g clip-path="url(#cl_34b)">
    <path fill="#A6B8EF" transform="matrix(0.805953 0.0131497 -0.0151654 0.929491 320.67 239.74)" d="M0.249972 -81.5196C49.8787 -81.2985 84.5 -60 84.5 1.90735e-06C84.5 41.1452 67.1354 74.5 20.6054 74.5C-41.77 74.5 -84 60.12 -84 1.90735e-06C-84 -71.2881 -62.1254 -81.5197 0.249972 -81.5196Z"></path>
    <path fill="#C1CBE8" transform="matrix(0.197995 -0.202726 0.445703 0.435301 343.77 190.891)" d="M11.5671 -77.0972C58.097 -77.0972 97.5959 -41.1452 97.5959 -1.67094e-05C97.5959 41.1452 73.4187 83.0524 26.8888 83.0524C-35.4867 83.0524 11.8086 60.12 11.8086 -1.5431e-05C11.8086 -41.1452 -34.9629 -77.0972 11.5671 -77.0972Z"></path>
    <path fill="#C1CBE8" transform="matrix(0.197995 -0.202726 0.184201 0.179903 388.212 255.247)" d="M48.93 -79.7642C80.6763 -79.0529 77.4946 -42.8889 62.8508 4.00565C48.2069 50.9001 -0.0393895 91.2963 -20.4536 67.777C-40.8678 44.2576 -16.8141 31.8032 -0.458961 -5.13881C15.8962 -42.0808 17.1838 -80.4755 48.93 -79.7642Z"></path>
  </g>
  <path fill="#91A8EB" transform="matrix(1.37947 2.85496e-09 -2.85496e-09 1.37947 210.879 346.868)" d="M0.256088 -0.702179C18.4803 -0.495773 32.0923 -1.13318 31.9576 50.3603C31.4951 75.8441 23.8484 90.3478 13.3316 90.0797C2.81476 89.8117 -5.82429 89.9141 -16.1575 89.9945C-26.5376 90.002 -33.9215 73.2298 -33.459 47.746C-33.6104 -5.95491 -17.9682 -0.908607 0.256088 -0.702179Z"></path>
  <path fill="#91A8EB" transform="matrix(1.79976 0.0293645 -0.0293645 1.79976 227.465 112.102)" d="M0 -22.5C14.6355 -22.5 26.5 -12.3145 26.5 0.250008C26.5 12.8145 14.6355 23 0 23C-14.6355 23 -26.5 12.8145 -26.5 0.250008C-26.5 -12.3145 -14.6355 -22.5 0 -22.5Z"></path>
  <path fill="none" stroke="black" stroke-width="7" stroke-linecap="round" stroke-linejoin="round" transform="matrix(2.15345 4.45679e-09 -4.42021e-09 2.13577 150.189 283.36)" d="M29.4682 -29.7302C31.2223 -23.9691 33.3726 -14.9183 33.7649 -0.303447C34.523 28.5691 30.1257 52.5113 4.84512 52.6011C-11.0262 52.556 -22.511 30.0924 -23.2687 1.23307C-24.1402 -21.8708 -15.1802 -42.637 -3.92749 -53.2293"></path>
  <path fill="#6C88D9" transform="matrix(2.15345 4.45679e-09 -4.42021e-09 2.13577 150.189 283.36)" d="M15.4082 -60.1846C19.1997 -56.0455 26.7733 -41.5793 27.1136 -37.6667C27.454 -33.7541 33.104 -24.924 33.7649 -0.303447C34.523 28.5691 30.1257 52.5113 4.84512 52.6011C-11.0262 52.556 -22.511 30.0924 -23.2687 1.23307C-24.6181 -34.5394 -2.39794 -64.7078 15.4082 -60.1846Z"></path>
  <path fill="#91A8EB" transform="matrix(1.67686 3.47045e-09 -4.32784e-09 2.09114 154.179 277.647)" d="M17.0236 -53.736C39.157 -54.7312 39.4548 -29.3237 34.2909 -1.40712C29.4654 26.7032 27.2381 50.9627 11.8518 52.2036C-3.53461 53.4446 -19.3466 30.7006 -22.138 2.07623C-24.6237 -26.8088 -5.10993 -52.7408 17.0236 -53.736Z"></path>
  <path fill="#312F2F" transform="matrix(0.490332 0.234356 -0.279438 0.584653 195.968 370.043)" d="M2.86102e-06 -128C70.6925 -128 128 -70.6925 128 -1.52588e-05C128 70.6924 70.6925 128 2.86102e-06 128C-70.6925 128 -128 70.6924 -128 -1.52588e-05C-128 -70.6925 -70.6925 -128 2.86102e-06 -128Z"></path>
  <path fill="none" stroke="black" stroke-width="7" stroke-miterlimit="4" transform="translate(256 256)" d="M-13.1553 44.517C21.5075 61.0843 33.5933 108.02 13.8392 149.35C-5.91495 190.681 -50.0285 210.755 -84.6913 194.188C-119.354 177.621 -131.44 130.686 -111.686 89.355C-91.9316 48.0244 -47.8181 27.9498 -13.1553 44.517Z"></path>
  <path fill="none" stroke="black" stroke-width="7" stroke-linejoin="round" transform="translate(256 256)" d="M-13.1553 44.517C-13.1553 44.517 -22.0427 40.2693 -23.8348 39.4127C-52.3143 26.7372 -96.0456 28.0811 -122.794 84.0457C-149.543 140.01 -117.375 178.567 -95.7997 188.879C-94.0076 189.735 -84.6913 194.188 -84.6913 194.188C-85.1942 193.948 -85.7242 193.668 -86.2778 193.35"></path>
  <path fill="#DEDEDE" transform="matrix(0.490332 0.234356 -0.279438 0.584653 207.077 375.353)" d="M-9.53674e-07 -128C70.6925 -128 128 -70.6925 128 -3.05176e-05C128 70.6924 70.6925 128 -9.53674e-07 128C-70.6925 128 -128 70.6924 -128 -3.05176e-05C-128 -70.6925 -70.6925 -128 -9.53674e-07 -128Z"></path>
  <clipPath id="cl_34e">
    <path d="M242.845 300.517C277.507 317.084 289.593 364.02 269.839 405.35C250.085 446.681 205.971 466.755 171.309 450.188C136.646 433.621 124.56 386.686 144.314 345.355C164.068 304.024 208.182 283.95 242.845 300.517Z"></path>
  </clipPath>
  <g clip-path="url(#cl_34e)">
    <path fill="#F2F1F1" transform="matrix(0.370884 0.413901 -0.425389 0.474792 189.958 399.19)" d="M-170.753 -28.5017L169.944 -28.5017L169.944 28.5017L-170.753 28.5017L-170.753 -28.5017Z"></path>
    <path fill="#F2F1F1" transform="matrix(0.370884 0.413901 -0.425389 0.474792 172.814 416.793)" d="M-170.753 -5.22019L169.944 -5.22019L169.944 5.22013L-170.753 5.22013L-170.753 -5.22019Z"></path>
  </g>
  <path fill="#8B8B8B" transform="matrix(0.490332 0.234356 -0.279438 0.584653 210.543 376.291)" d="M0.249994 -87.5C51.4744 -87.5 93 -48.4369 93 -0.250015C93 47.9368 51.4744 87 0.249994 87C-50.9744 87 -92.5 47.9368 -92.5 -0.250015C-92.5 -48.4369 -50.9744 -87.5 0.249994 -87.5Z"></path>
  <path fill="#B0AFAF" transform="matrix(0.490332 0.234356 -0.279438 0.584653 207.077 375.353)" d="M-9.53674e-07 -86C47.4965 -86 86 -47.4965 86 -3.05176e-05C86 47.4965 47.4965 86 -9.53674e-07 86C-47.4965 86 -86 47.4965 -86 -3.05176e-05C-86 -47.4965 -47.4965 -86 -9.53674e-07 -86Z"></path>
  <path fill="#8B8B8B" transform="matrix(0.490332 0.234356 -0.279438 0.584653 208.44 373.131)" d="M-52.3281 27.625L-52.3281 -27.668L-46.756 -30.4056L-46.7825 24.7561L-42.4191 24.6237L-47.1315 27.6684L-52.3281 27.625ZM-50.25 21.3164C-54.7526 21.3164 -58.6058 20.4196 -61.8096 18.626C-65.0133 16.8323 -67.4626 14.3336 -69.1572 11.1299C-70.8519 7.92609 -71.6992 4.1966 -71.6992 -0.058609C-71.6992 -4.31382 -70.8519 -8.04331 -69.1572 -11.2471C-67.4626 -14.4509 -65.0133 -16.9496 -61.8096 -18.7432C-58.6058 -20.5368 -54.7526 -21.4336 -50.25 -21.4336C-47.3802 -21.4336 -44.7825 -21.0625 -42.457 -20.3203C-40.1315 -19.5781 -38.109 -18.5205 -36.3896 -17.1475C-34.6702 -15.7744 -27.78 -10.4694 -25.0591 -8.68547C-26.0599 -7.96246 -28.21 -6.90541 -30.3965 -5.66212C-30.3965 -5.66212 -44.0898 -3.62111 -44.0898 -3.62111C-44.0898 -3.62111 -44.5166 -5.66831 -44.8506 -6.49709C-45.1846 -7.32586 -45.599 -8.02476 -46.0937 -8.59377C-46.5885 -9.16277 -47.1637 -9.58953 -47.8193 -9.87404C-48.4749 -10.1585 -49.2109 -10.3008 -50.0273 -10.3008C-51.3385 -10.3008 -52.4766 -9.9297 -53.4414 -9.18752C-54.4062 -8.44533 -55.1546 -7.31968 -55.6865 -5.81056C-56.2184 -4.30145 -56.4844 -2.40887 -56.4844 -0.132828C-56.4844 2.11847 -56.2184 4.01105 -55.6865 5.54491C-55.1546 7.07876 -54.4062 8.23534 -53.4414 9.01463C-52.4766 9.79393 -51.3385 10.1836 -50.0273 10.1836C-49.2109 10.1836 -48.4749 10.0351 -47.8193 9.73827C-47.1637 9.44139 -46.5824 9.00226 -46.0752 8.42088C-45.568 7.8395 -45.8968 6.99336 -44.8135 6.24998C-43.7301 5.50661 -38.8902 1.52306 -38.7417 0.409782C-38.7417 0.409782 -30.3965 5.28514 -30.3965 5.28514C-30.3965 5.28514 -31.2747 9.97948 -32.2891 11.9463C-33.3034 13.9131 -34.6641 15.5954 -36.3711 16.9931C-38.0781 18.3909 -40.1006 19.4609 -42.4385 20.2031C-44.7764 20.9453 -47.3802 21.3164 -50.25 21.3164ZM-24.5332 27.625L-24.5332 16.8633L-3.90039 -0.207031C-3.90039 -0.207031 -1.36459 -2.41504 -0.375004 -3.41699C0.61458 -4.41895 1.37532 -5.45182 1.90722 -6.51562C2.43912 -7.57943 2.70507 -8.76693 2.70507 -10.0781C2.70507 -11.4883 2.40201 -12.6943 1.79589 -13.6963C1.18978 -14.6982 0.360998 -15.4714 -0.690434 -16.0156C-1.74187 -16.5599 -2.96029 -16.832 -4.34571 -16.832C-5.73112 -16.832 -6.94955 -16.5537 -8.00098 -15.9971C-9.05241 -15.4404 -6.2922 -13.7058 -5.86801 -12.6284C-7.10779 -11.907 -9.37628 -10.5827 -11.3223 -9.63281C-11.3223 -9.63281 -25.5723 -9.63281 -25.5723 -9.63281C-25.5723 -9.63281 -24.7002 -16.8568 -22.9561 -19.6523C-21.2119 -22.4479 -18.7441 -24.6064 -15.5527 -26.1279C-12.3613 -27.6494 -8.62565 -28.4102 -4.34571 -28.4102C0.0826778 -28.4102 3.91732 -27.7051 7.1582 -26.2949C10.3991 -24.8848 12.904 -22.8994 14.6728 -20.3389C16.4417 -17.7783 17.3262 -14.7786 17.3262 -11.3398C17.3262 -9.21224 16.887 -7.10319 16.0088 -5.0127C15.1305 -2.9222 13.5534 -0.602865 11.2773 1.94531C9.0013 4.49349 5.74804 7.51172 1.51757 11C1.51757 11 -3.67774 15.3047 -3.67774 15.3047L-3.67774 15.6758L17.9199 15.6758L23.3601 24.6527L17.9199 27.625L-24.5332 27.625ZM45.3066 28.3672C41.0514 28.3672 37.2786 27.6188 33.9883 26.1221C30.6979 24.6253 28.1126 22.5534 26.2324 19.9062C24.3522 17.2591 23.3874 14.2161 23.3379 10.7773C23.3379 10.7773 28.8025 7.82547 28.8025 7.82547L37.959 10.7773C37.959 10.7773 38.293 13.14 38.9609 14.0801C39.6289 15.0202 40.5195 15.7438 41.6328 16.251C42.7461 16.7581 43.9707 17.0117 45.3066 17.0117C46.8405 17.0117 48.1826 16.6839 49.333 16.0283C50.4834 15.3727 51.3864 14.4512 52.042 13.2637C52.6976 12.0762 53.0254 10.6784 53.0254 9.07031C53.0254 7.4375 52.6976 6.02116 52.042 4.82129C51.3864 3.62142 50.4834 2.69369 49.333 2.03809C48.1826 1.38249 46.8405 1.05469 45.3066 1.05469C43.6986 1.05469 43.4422 2.31534 43.4422 2.31534C43.4422 2.31534 38.6022 4.02344 37.959 5.35938C37.959 5.35938 24.748 2.76172 24.748 2.76172L26.9004 -27.668L32.366 -30.6324L64.084 -27.668L69.5014 -18.6129L64.084 -15.6445L39.2207 -15.6445L38.1816 -3.47266L38.4785 -3.47266C38.4785 -3.47266 40.8411 -6.54037 42.9687 -7.62891C45.0964 -8.71745 47.5579 -9.26172 50.3535 -9.26172C52.8027 -9.26172 55.0726 -8.82877 57.1631 -7.96289C59.2536 -7.097 61.0719 -5.86621 62.6182 -4.27051C64.1644 -2.6748 65.3643 -0.782227 66.2178 1.40723C67.0713 3.59668 67.498 6.0026 67.498 8.625C67.498 12.4844 66.5827 15.8984 64.752 18.8672C62.9212 21.8359 60.3421 24.1615 57.0146 25.8438C53.6872 27.526 49.7845 28.3672 45.3066 28.3672Z"></path>
  <path fill="#DEDEDE" transform="matrix(0.490332 0.234356 -0.279438 0.584653 212.009 371.964)" d="M-51.8282 28.625L-51.8282 -26.668L-47.375 -26.668L-47.375 28.625L-51.8282 28.625ZM-49.75 22.3164C-54.2526 22.3164 -58.1058 21.4196 -61.3096 19.626C-64.5134 17.8324 -66.9626 15.3337 -68.6573 12.1299C-70.3519 8.92611 -71.1992 5.19662 -71.1992 0.941406C-71.1992 -3.3138 -70.3519 -7.0433 -68.6573 -10.2471C-66.9626 -13.4508 -64.5134 -15.9495 -61.3096 -17.7432C-58.1058 -19.5368 -54.2526 -20.4336 -49.75 -20.4336C-46.8802 -20.4336 -44.2826 -20.0625 -41.9571 -19.3203C-39.6315 -18.5781 -37.6091 -17.5205 -35.8897 -16.1475C-34.1703 -14.7744 -32.8034 -13.1169 -31.7891 -11.1748C-30.7748 -9.23275 -30.1439 -7.06185 -29.8965 -4.66211C-29.8965 -4.66211 -43.5899 -2.62109 -43.5899 -2.62109C-43.5899 -2.62109 -44.0166 -4.6683 -44.3506 -5.49707C-44.6846 -6.32584 -45.099 -7.02474 -45.5938 -7.59375C-46.0886 -8.16276 -46.6638 -8.58952 -47.3194 -8.87402C-47.975 -9.15853 -48.711 -9.30078 -49.5274 -9.30078C-50.8386 -9.30078 -51.9766 -8.92969 -52.9414 -8.1875C-53.9063 -7.44531 -54.6547 -6.31966 -55.1866 -4.81055C-55.7185 -3.30143 -55.9844 -1.40885 -55.9844 0.867188C-55.9844 3.11849 -55.7185 5.01107 -55.1866 6.54492C-54.6547 8.07878 -53.9063 9.23535 -52.9414 10.0146C-51.9766 10.7939 -50.8386 11.1836 -49.5274 11.1836C-48.711 11.1836 -47.975 11.0352 -47.3194 10.7383C-46.6638 10.4414 -46.0824 10.0023 -45.5752 9.4209C-45.0681 8.83952 -44.6475 8.11588 -44.3135 7.25C-43.9795 6.38412 -43.7383 5.39453 -43.5899 4.28125C-43.5899 4.28125 -29.8965 6.28516 -29.8965 6.28516C-29.8965 6.28516 -30.7748 10.9795 -31.7891 12.9463C-32.8034 14.9131 -34.1641 16.5954 -35.8711 17.9932C-37.5782 19.3909 -39.6006 20.4609 -41.9385 21.2031C-44.2764 21.9453 -46.8802 22.3164 -49.75 22.3164ZM-24.0332 28.625L-24.0332 17.8633L-3.4004 0.792984C-3.4004 0.792984 -0.864592 -1.41502 0.124992 -2.41698C1.11458 -3.41893 1.87532 -4.45181 2.40722 -5.51561C2.93912 -6.57941 3.20507 -7.76691 3.20507 -9.07811C3.20507 -10.4883 2.90201 -11.6943 2.29589 -12.6963C1.68977 -13.6982 0.860994 -14.4713 -0.190437 -15.0156C-1.24187 -15.5599 -2.46029 -15.832 -3.84571 -15.832C-5.23113 -15.832 -6.44955 -15.5537 -7.50098 -14.9971C-8.55242 -14.4404 -9.36882 -13.6302 -9.9502 -12.5664C-10.5316 -11.5026 -10.8223 -10.1914 -10.8223 -8.6328C-10.8223 -8.6328 -25.0723 -8.6328 -25.0723 -8.6328C-25.0723 -8.6328 -24.2002 -15.8568 -22.4561 -18.6523C-20.7119 -21.4479 -18.2441 -23.6064 -15.0527 -25.1279C-11.8613 -26.6494 -8.12566 -27.4101 -3.84571 -27.4101C0.582674 -27.4101 4.41731 -26.7051 7.6582 -25.2949C10.8991 -23.8848 13.404 -21.8994 15.1728 -19.3389C16.9417 -16.7783 17.8262 -13.7786 17.8262 -10.3398C17.8262 -8.21223 17.387 -6.10317 16.5088 -4.01268C15.6305 -1.92219 14.0534 0.39715 11.7773 2.94533C9.50129 5.49351 6.24804 8.51173 2.01757 12C2.01757 12 -3.17774 16.3047 -3.17774 16.3047L-3.17774 16.6758L18.4199 16.6758L18.4199 28.625L-24.0332 28.625ZM45.8066 29.3672C41.5514 29.3672 37.7786 28.6188 34.4883 27.1221C31.1979 25.6253 28.6126 23.5534 26.7324 20.9062C24.8522 18.2591 23.8874 15.2161 23.8379 11.7773C23.8379 11.7773 38.459 11.7773 38.459 11.7773C38.459 11.7773 38.793 14.14 39.4609 15.0801C40.1289 16.0202 41.0195 16.7438 42.1328 17.251C43.2461 17.7581 44.4707 18.0117 45.8066 18.0117C47.3405 18.0117 48.6826 17.6839 49.833 17.0283C50.9834 16.3727 51.8864 15.4512 52.542 14.2637C53.1976 13.0762 53.5254 11.6784 53.5254 10.0703C53.5254 8.4375 53.1976 7.02116 52.542 5.82129C51.8864 4.62142 50.9834 3.69369 49.833 3.03809C48.6826 2.38249 47.3405 2.05469 45.8066 2.05469C44.1986 2.05469 42.7327 2.43815 41.4092 3.20508C40.0856 3.97201 39.1022 5.02344 38.459 6.35938C38.459 6.35938 25.248 3.76172 25.248 3.76172L27.4004 -26.668L64.584 -26.668L64.584 -14.6445L39.7207 -14.6445L38.6816 -2.47266L38.9785 -2.47266C38.9785 -2.47266 41.3411 -5.54037 43.4687 -6.62891C45.5963 -7.71745 48.0579 -8.26172 50.8535 -8.26172C53.3027 -8.26172 55.5726 -7.82877 57.6631 -6.96289C59.7536 -6.097 61.5719 -4.86621 63.1182 -3.27051C64.6644 -1.6748 65.8643 0.217773 66.7178 2.40723C67.5713 4.59668 67.998 7.0026 67.998 9.625C67.998 13.4844 67.0827 16.8984 65.2519 19.8672C63.4212 22.8359 60.8421 25.1615 57.5146 26.8438C54.1872 28.526 50.2845 29.3672 45.8066 29.3672Z"></path>
  <clipPath id="cl_350">
    <path d="M178.597 376.554L194.048 344.227L196.232 345.27L180.781 377.597L178.597 376.554ZM181.379 373.352C179.171 372.297 177.532 370.87 176.463 369.07C175.393 367.271 174.89 365.236 174.955 362.966C175.019 360.696 175.646 358.317 176.835 355.829C178.024 353.341 179.481 351.359 181.208 349.883C182.934 348.407 184.833 347.52 186.905 347.222C188.977 346.925 191.117 347.303 193.325 348.359C194.732 349.031 195.902 349.857 196.835 350.836C197.768 351.815 198.464 352.907 198.923 354.113C199.383 355.318 199.59 356.608 199.544 357.981C199.499 359.354 199.202 360.771 198.653 362.232C198.653 362.232 191.368 360.216 191.368 360.216C191.368 360.216 191.731 358.919 191.799 358.357C191.866 357.794 191.859 357.288 191.775 356.839C191.691 356.391 191.529 356.007 191.287 355.687C191.045 355.367 190.723 355.111 190.323 354.92C189.68 354.612 189.019 354.562 188.338 354.77C187.658 354.978 186.976 355.461 186.294 356.219C185.611 356.976 184.952 358.02 184.316 359.351C183.687 360.667 183.288 361.836 183.12 362.858C182.953 363.879 182.996 364.731 183.252 365.412C183.507 366.094 183.956 366.589 184.599 366.896C184.999 367.087 185.402 367.173 185.806 367.153C186.211 367.133 186.618 367.012 187.029 366.791C187.441 366.57 187.849 366.246 188.255 365.818C188.661 365.39 189.055 364.868 189.439 364.252C189.439 364.252 195.594 368.633 195.594 368.633C195.594 368.633 193.851 371.171 192.804 372.083C191.757 372.996 190.62 373.66 189.392 374.077C188.165 374.495 186.874 374.646 185.52 374.532C184.167 374.418 182.786 374.025 181.379 373.352ZM192.226 383.068L195.233 376.776L210.12 371.631C210.12 371.631 211.98 370.934 212.746 370.581C213.511 370.227 214.173 369.801 214.731 369.304C215.289 368.806 215.751 368.174 216.117 367.408C216.511 366.583 216.7 365.807 216.683 365.079C216.665 364.352 216.475 363.705 216.112 363.141C215.748 362.576 215.227 362.132 214.547 361.807C213.868 361.482 213.193 361.359 212.522 361.438C211.851 361.517 211.224 361.8 210.642 362.285C210.059 362.771 209.55 363.47 209.115 364.381C209.115 364.381 202.128 361.041 202.128 361.041C202.128 361.041 204.574 357.022 206.21 355.796C207.847 354.571 209.66 353.887 211.65 353.746C213.64 353.604 215.684 354.035 217.783 355.038C219.954 356.075 221.637 357.386 222.832 358.97C224.027 360.554 224.701 362.302 224.853 364.214C225.005 366.125 224.6 368.086 223.639 370.097C223.045 371.341 222.24 372.471 221.225 373.487C220.21 374.504 218.789 375.49 216.961 376.446C215.133 377.403 212.694 378.405 209.645 379.453C209.645 379.453 205.895 380.752 205.895 380.752L205.791 380.969L216.381 386.031L213.042 393.017L192.226 383.068ZM226.263 399.869C224.177 398.872 222.536 397.55 221.341 395.904C220.146 394.258 219.457 392.44 219.275 390.452C219.093 388.464 219.47 386.459 220.406 384.437C220.406 384.437 227.576 387.863 227.576 387.863C227.576 387.863 227.079 389.323 227.144 390.029C227.209 390.735 227.443 391.367 227.848 391.924C228.252 392.482 228.781 392.917 229.436 393.23C230.188 393.589 230.938 393.712 231.685 393.599C232.433 393.485 233.133 393.158 233.786 392.617C234.44 392.077 234.991 391.336 235.44 390.396C235.896 389.441 236.132 388.536 236.145 387.681C236.159 386.826 235.976 386.072 235.595 385.419C235.214 384.766 234.647 384.26 233.895 383.901C233.107 383.524 232.281 383.404 231.418 383.543C230.554 383.681 229.778 384.065 229.09 384.695C229.09 384.695 223.338 380.081 223.338 380.081L232.896 362.794L251.129 371.508L247.769 378.538L235.578 372.711L231.667 379.584L231.812 379.654C231.812 379.654 233.828 378.414 235.176 378.276C236.523 378.138 237.882 378.397 239.253 379.052C240.454 379.626 241.446 380.411 242.229 381.407C243.012 382.403 243.56 383.549 243.872 384.844C244.184 386.14 244.244 387.527 244.05 389.007C243.857 390.488 243.394 391.994 242.661 393.527C241.583 395.784 240.18 397.565 238.452 398.872C236.725 400.179 234.811 400.934 232.709 401.138C230.607 401.341 228.459 400.918 226.263 399.869Z"></path>
  </clipPath>
  <g clip-path="url(#cl_350)">
    <path fill="#F2F1F1" transform="matrix(0.370884 0.413901 -0.425389 0.474792 189.958 399.19)" d="M-170.753 -28.5017L169.944 -28.5017L169.944 28.5017L-170.753 28.5017L-170.753 -28.5017Z"></path>
    <path fill="#F2F1F1" transform="matrix(0.370884 0.413901 -0.425389 0.474792 172.814 416.793)" d="M-170.753 -5.22019L169.944 -5.22019L169.944 5.22013L-170.753 5.22013L-170.753 -5.22019Z"></path>
  </g>
  <path fill="#8E8B8B" transform="matrix(0.584653 0.279438 -0.279438 0.584653 242.845 300.517)" d="M1.90735e-06 -3.8147e-06C1.90735e-06 -3.8147e-06 -15.2012 3.8147e-06 -18.2664 1.52588e-05C-66.3551 1.30371 -126.35 32.2772 -126.35 128C-126.35 223.723 -55.9022 256 -19 256C-15.9348 256 7.62939e-06 256 7.62939e-06 256C-25.5438 256 -107.35 223.723 -107.35 128C-107.35 32.2772 -25.5439 0 1.90735e-06 -3.8147e-06Z"></path>
  <clipPath id="cl_352">
    <path d="M242.845 300.517C242.845 300.517 233.957 296.269 232.165 295.413C203.686 282.737 159.954 284.081 133.206 340.046C106.457 396.01 138.625 434.567 160.2 444.879C161.992 445.735 171.309 450.188 171.309 450.188C156.374 443.05 117.566 401.32 144.314 345.355C171.063 289.39 227.91 293.379 242.845 300.517Z"></path>
  </clipPath>
  <g clip-path="url(#cl_352)">
    <path fill="#ACABAB" transform="matrix(0.490332 0.234356 -0.279438 0.584653 150.275 388.71)" d="M-105.5 -40.8039L105 -40.8039L105 40.8039L-105.5 40.8039L-105.5 -40.8039Z"></path>
    <path fill="#D6D6D6" transform="matrix(0.490332 0.234356 -0.279438 0.584653 148.828 382.346)" d="M-105.5 -7.02946L105 -7.02946L105 7.02946L-105.5 7.02946L-105.5 -7.02946Z"></path>
    <path fill="#D6D6D6" transform="matrix(0.491726 0.235023 -0.278645 0.582995 181.406 366.674)" d="M-137.32 -30.4789L136.67 -30.4789L136.67 30.4789L-137.32 30.4789L-137.32 -30.4789Z"></path>
  </g>
  <path fill="#91A8EB" transform="matrix(0.606874 0.00990163 -0.00990163 0.606874 200.782 79.3792)" d="M0 -22.5C14.6355 -22.5 26.5 -12.3145 26.5 0.25C26.5 12.8145 14.6355 23 0 23C-14.6355 23 -26.5 12.8145 -26.5 0.25C-26.5 -12.3145 -14.6355 -22.5 0 -22.5Z"></path>
  <path fill="#91A8EB" transform="matrix(0.504938 0.00823846 -0.00823846 0.504938 185.331 90.0766)" d="M-4.23752e-08 -22.5C14.6355 -22.5 26.5 -12.3145 26.5 0.25C26.5 12.8145 14.6355 23 4.23752e-08 23C-14.6355 23 -26.5 12.8145 -26.5 0.25C-26.5 -12.3145 -14.6355 -22.5 -4.23752e-08 -22.5Z"></path>
  <path fill="#91A8EB" transform="matrix(0.274279 0.00447507 -0.00447507 0.274279 166.462 57.2901)" d="M0 -22.4261C14.2962 -22.4261 25.8855 -12.274 25.8855 0.249268C25.8855 12.7726 14.2962 22.9247 0 22.9247C-14.2962 22.9247 -25.8855 12.7726 -25.8855 0.249268C-25.8855 -12.274 -14.2962 -22.4261 0 -22.4261Z"></path>
  <path fill="#C1CBE8" transform="matrix(0.073816 -0.11483 0.26388 0.16963 162.703 54.6899)" d="M-6.10352e-05 -11.5C14.6355 -11.5 28.006 -7.98328 28.006 -1.63201C28.006 4.71926 15.5058 0.400185 0.870295 0.400186C-13.7652 0.400185 -26.7661 4.37689 -26.7661 -1.97439C-26.7661 -8.32566 -14.6356 -11.5 -6.10352e-05 -11.5Z"></path>
  <path fill="#C1CBE8" transform="matrix(-0.166841 -0.570472 0.880441 -0.257495 185.239 116.452)" d="M-3.05176e-05 -11.5C14.6355 -11.5 28.0061 -7.98328 28.0061 -1.63201C28.0061 4.71927 15.5059 0.400188 0.870326 0.400188C-13.7652 0.400186 -26.7661 4.37689 -26.7661 -1.97438C-26.7661 -8.32566 -14.6356 -11.5 -3.05176e-05 -11.5Z"></path>
  <path fill="#1B2B56" transform="matrix(1.78669 -0.21848 0.065544 0.536007 239.475 88.9772)" d="M-9.31323e-09 -2.49997C1.38071 -2.49997 2.5 -1.38068 2.5 3.05176e-05C2.5 1.38074 1.38071 2.50003 9.31323e-09 2.50003C-1.38071 2.50003 -2.5 1.38074 -2.5 3.05176e-05C-2.5 -1.38068 -1.38071 -2.49997 -9.31323e-09 -2.49997Z"></path>
  <path fill="none" stroke="#1B2B56" stroke-width="0.5" stroke-linecap="round" stroke-linejoin="round" transform="matrix(1.78289 -0.247598 0.247598 1.78289 248.119 87.8656)" d="M1.98548 0.277981L6.02909 0.184244"></path>
  <path fill="#1B2B56" transform="matrix(1.78669 -0.21848 0.065544 0.536007 268.063 85.4815)" d="M-1.91666e-06 -2.49997C1.38071 -2.49997 2.5 -1.38068 2.5 3.05176e-05C2.5 1.38074 1.38071 2.50003 -1.89804e-06 2.50003C-1.38071 2.50003 -2.5 1.38074 -2.5 3.05176e-05C-2.5 -1.38068 -1.38071 -2.49997 -1.91666e-06 -2.49997Z"></path>
  <path fill="#354B89" transform="matrix(1.46507 -0.885005 0.929571 0.72522 259.84 78.5494)" d="M0 -2.50002C1.38071 -2.50002 2.5 -1.38073 2.5 -1.51098e-05C2.5 1.3807 1.38071 2.49998 0 2.49998C-1.38071 2.49998 -2.5 1.3807 -2.5 -1.54078e-05C-2.5 -1.38073 -1.38071 -2.50002 0 -2.50002Z"></path>
  <path fill="#354B89" transform="matrix(2.16254 0.296937 -0.629837 1.0733 243.868 79.489)" d="M0 -2.98534C1.68306 -2.98534 3.04744 -1.64876 3.04744 -9.08208e-08C3.04744 1.64876 1.68306 2.98534 0 2.98534C-1.68306 2.98534 -3.04744 1.64876 -3.04744 9.08208e-08C-3.04744 -1.64876 -1.68306 -2.98534 0 -2.98534Z"></path>
  <path fill="none" stroke="white" stroke-width="5" stroke-linecap="round" stroke-linejoin="round" transform="matrix(1.5 0 0 1.5 158.539 362.24)" d=""></path>
</svg>