<?xml version="1.0" encoding="utf-8"?>
<svg xmlns="http://www.w3.org/2000/svg" xmlns:xlink="http://www.w3.org/1999/xlink" width="512" height="512">
  <path fill="none" stroke="black" stroke-width="7" stroke-linejoin="round" transform="matrix(1.8 3.72529e-09 -3.72529e-09 1.8 210.879 409.868)" d="M0.317585 -46.251C18.5418 -46.0446 31.0869 -38.646 30.9048 5.64317C31.2269 34.6589 23.8797 44.6777 13.3629 44.4096C2.84604 44.1416 -5.79298 44.2439 -16.1262 44.3244C-26.589 44.2253 -31.97 33.0858 -32.2918 4.05704C-32.3961 -42.4394 -17.9066 -46.4575 0.317585 -46.251Z"></path>
  <path fill="none" stroke="black" stroke-width="7" stroke-linejoin="round" transform="matrix(1.79976 0.0293645 -0.0298671 1.83057 266.414 272.512)" d="M0.209625 -80.0966C37.3348 -80.0966 80.6639 -60.1508 80.6639 -0.150775C80.6639 40.9944 46.7396 76.2788 0.209625 76.2788C-62.1658 76.2788 -84 60.12 -84 -9.53674e-07C-84 -71.2881 -50.5087 -80.0966 0.209625 -80.0966Z"></path>
  <path fill="none" stroke="black" stroke-width="7" stroke-linejoin="round" transform="matrix(-2.15345 -3.29802e-07 -3.27096e-07 2.13577 356.081 273.696)" d="M11.425 -58.8351C14.7946 -54.3402 20.9212 -39.1934 20.8785 -35.2661C20.8357 -31.3387 25.2357 -22.4242 23.9558 1.91093C22.7399 30.7748 18.3068 53.8642 -6.95742 52.944C-22.8145 52.265 -34.2873 28.3326 -33.0714 -0.531247C-31.5471 -36.7182 -5.85385 -65.1012 11.425 -58.8351Z"></path>
  <path fill="none" stroke="black" stroke-width="7" stroke-linejoin="round" transform="matrix(1.53671 3.18039e-09 -3.72529e-09 1.8 308.979 398.168)" d="M5.52139 -47.9783C23.7428 -48.3012 39.2803 -41.6663 40.2949 7.90075C41.0151 21.7426 35.3162 45.5524 21.6381 45.6108C7.96012 45.6692 1.82456 45.6954 -10.3773 45.7474C-22.5792 45.7995 -24.9707 22.912 -25.6909 9.07015C-27.0696 -42.6817 -12.7001 -47.6554 5.52139 -47.9783Z"></path>
  <path fill="#6C88D9" transform="matrix(-2.15345 -3.29802e-07 -3.27096e-07 2.13577 356.081 273.696)" d="M11.425 -58.8351C14.7946 -54.3402 20.9212 -39.1934 20.8785 -35.2661C20.8357 -31.3387 25.2357 -22.4242 23.9558 1.91093C22.7399 30.7748 18.3068 53.8642 -6.95742 52.944C-22.8145 52.265 -34.2873 28.3326 -33.0714 -0.531247C-31.5471 -36.7182 -5.85385 -65.1012 11.425 -58.8351Z"></path>
  <path fill="#5170C8" transform="matrix(1.53671 3.18039e-09 -3.72529e-09 1.8 308.979 398.168)" d="M5.52139 -47.9783C23.7428 -48.3012 39.2803 -41.6663 40.2949 7.90075C41.0151 21.7426 35.3162 45.5524 21.6381 45.6108C7.96012 45.6692 1.82456 45.6954 -10.3773 45.7474C-22.5792 45.7995 -24.9707 22.912 -25.6909 9.07015C-27.0696 -42.6817 -12.7001 -47.6554 5.52139 -47.9783Z"></path>
  <path fill="#839BE0" transform="matrix(1.20328 2.49031e-09 -2.91698e-09 1.40944 308.979 398.168)" d="M7.36032 -48.5688C25.5818 -48.8917 40.5696 -42.1634 41.8205 11.8929C41.7495 29.8278 33.1336 45.0433 19.4556 45.1018C5.77752 45.1601 5.95272 45.2099 -6.24913 45.262C-18.451 45.3141 -24.2363 30.9972 -24.1653 13.0623C-25.7803 -43.1788 -10.8612 -48.2459 7.36032 -48.5688Z"></path>
  <path fill="#6C88D9" transform="matrix(1.8 3.72529e-09 -3.72529e-09 1.8 210.879 409.868)" d="M0.317585 -46.251C18.5418 -46.0446 31.0869 -38.646 30.9048 5.64317C31.2269 34.6589 23.8797 44.6777 13.3629 44.4096C2.84604 44.1416 -5.79298 44.2439 -16.1262 44.3244C-26.589 44.2253 -31.97 33.0858 -32.2918 4.05704C-32.3961 -42.4394 -17.9066 -46.4575 0.317585 -46.251Z"></path>
  <path fill="#91A8EB" transform="matrix(-1.67686 -2.56813e-07 -3.2026e-07 2.09114 352.092 267.983)" d="M11.2971 -52.4122C33.4454 -51.6579 25.2355 -27.085 22.0877 1.42522C18.9401 29.9354 5.81912 52.863 -9.63098 52.3368C-25.081 51.8106 -35.9877 28.1369 -34.468 -0.556033C-32.9482 -29.249 -10.8511 -53.1665 11.2971 -52.4122Z"></path>
  <path fill="none" stroke="black" stroke-width="7" stroke-miterlimit="4" transform="matrix(1.79976 0.0293645 -0.0293645 1.79976 218.057 112.331)" d="M0 -29.5C19.0538 -29.5 34.5 -16.1805 34.5 0.250008C34.5 16.6805 19.0538 30 0 30C-19.0538 30 -34.5 16.6805 -34.5 0.250008C-34.5 -16.1805 -19.0538 -29.5 0 -29.5Z"></path>
  <path fill="none" stroke="black" stroke-width="9" stroke-miterlimit="4" transform="translate(256 256)" d="M-64.2525 -201.486C-49.4699 -201.244 -37.6548 -190.715 -37.8628 -177.968C-38.0708 -165.221 -50.2231 -155.082 -65.0057 -155.324C-79.7883 -155.565 -91.6033 -166.094 -91.3953 -178.841C-91.1874 -191.589 -79.0351 -201.727 -64.2525 -201.486Z"></path>
  <path fill="none" stroke="black" stroke-width="9" stroke-miterlimit="4" transform="translate(256 256)" d="M-79.7655 -186.573C-67.4659 -186.372 -57.6354 -177.612 -57.8085 -167.006C-57.9815 -156.4 -68.0926 -147.964 -80.3922 -148.165C-92.6918 -148.366 -102.522 -157.126 -102.349 -167.732C-102.176 -178.339 -92.0651 -186.774 -79.7655 -186.573Z"></path>
  <path fill="none" stroke="black" stroke-width="9" stroke-miterlimit="4" transform="translate(256 256)" d="M-99.7726 -210.907C-93.0916 -210.798 -87.7517 -206.039 -87.8457 -200.278C-87.9397 -194.517 -93.432 -189.935 -100.113 -190.044C-106.794 -190.153 -112.134 -194.912 -112.04 -200.673C-111.946 -206.434 -106.454 -211.016 -99.7726 -210.907Z"></path>
  <path fill="#6C88D9" transform="matrix(1.79976 0.0293645 -0.0293645 1.79976 218.057 112.331)" d="M0 -29.5C19.0538 -29.5 34.5 -16.1805 34.5 0.250008C34.5 16.6805 19.0538 30 0 30C-19.0538 30 -34.5 16.6805 -34.5 0.250008C-34.5 -16.1805 -19.0538 -29.5 0 -29.5Z"></path>
  <path fill="#6C88D9" transform="matrix(0.775834 0.0126583 -0.0126583 0.775834 191.374 77.4015)" d="M7.62939e-06 -29.5C19.0538 -29.5 34.5 -16.1805 34.5 0.250015C34.5 16.6805 19.0538 30 7.62939e-06 30C-19.0538 30 -34.5 16.6805 -34.5 0.250015C-34.5 -16.1805 -19.0538 -29.5 7.62939e-06 -29.5Z"></path>
  <path fill="#6C88D9" transform="matrix(0.645518 0.0105321 -0.0105321 0.645518 175.924 88.4696)" d="M0 -29.5C19.0538 -29.5 34.5 -16.1805 34.5 0.249969C34.5 16.6804 19.0538 30 0 30C-19.0538 30 -34.5 16.6804 -34.5 0.249969C-34.5 -16.1805 -19.0538 -29.5 0 -29.5Z"></path>
  <path fill="#6C88D9" transform="matrix(0.35064 0.00572097 -0.00572097 0.35064 156.059 55.4367)" d="M0 -29.5C19.0538 -29.5 34.5 -16.1805 34.5 0.25C34.5 16.6805 19.0538 30 0 30C-19.0538 30 -34.5 16.6805 -34.5 0.25C-34.5 -16.1805 -19.0538 -29.5 0 -29.5Z"></path>
  <path fill="none" stroke="black" stroke-width="7" stroke-linejoin="round" transform="translate(256 256)" d="M-89.5409 -105.85C-70.0683 -132.572 23.2477 -118.559 39.4817 -115.893"></path>
  <defs>
    <linearGradient id="gradient_0" gradientUnits="userSpaceOnUse" x1="-10.499905" y1="-40.34568" x2="-3.0814617" y2="20.75737">
      <stop offset="0" stop-color="#A1A8AF"></stop>
      <stop offset="0.99830264" stop-color="#242B4A"></stop>
      <stop offset="1" stop-color="#000417"></stop>
    </linearGradient>
  </defs>
  <path fill="url(#gradient_0)" transform="matrix(1.63997 3.39408e-09 -3.39408e-09 1.63997 254.678 164.699)" d="M-53.7932 -8.87113C-40.7768 -26.7335 26.3506 -14.7462 26.3506 -14.7462L53.5854 -9.77639L68.6389 10.0869L-57 14.5C-57 14.5 -53.7932 -8.87113 -53.7932 -8.87113Z"></path>
  <path fill="none" stroke="black" stroke-width="7" stroke-linejoin="round" transform="translate(256 256)" d="M174.562 -74.4204C153.423 -107.88 131.919 -127.999 81.0742 -125.031C68.3759 -73.2379 47.5779 -47.8396 47.5779 -47.8396C48.4771 -42.083 51.6971 -39.2434 58.763 -40.3471C58.763 -40.3471 145.592 -40.465 174.562 -74.4204Z"></path>
  <path fill="#828594" transform="matrix(-1.62032 0.253095 0.253095 1.62032 414.989 181.037)" d="M-9.33072 1.7923C0.255683 -20.3552 11.318 -34.4995 42.2294 -37.4963C57.7294 -9.48985 69.6738 5.85638 69.6738 5.85638C69.6737 9.4091 68.001 11.4229 63.6402 11.4229C63.6402 11.4229 11.318 19.5229 -9.33072 1.7923Z"></path>
  <path fill="none" stroke="black" stroke-width="7" stroke-linecap="round" stroke-linejoin="round" transform="translate(256 256)" d="M50.1135 -127.394C55.264 -127.215 60.1735 -126.81 64.8524 -126.198"></path>
  <path fill="#6C88D9" transform="matrix(1.79976 0.0293645 -0.0297683 1.82451 266.407 272.974)" d="M0.445611 -80.8406C37.5708 -80.8406 80.6032 -59.9373 80.6032 0.062734C80.6032 41.2079 46.7396 76.2788 0.209625 76.2788C-62.1658 76.2788 -84 60.12 -84 7.96746e-07C-84 -71.2881 -50.2727 -80.8406 0.445611 -80.8406Z"></path>
  <path fill="#91A8EB" transform="matrix(1.37947 2.85496e-09 -2.85496e-09 1.37947 210.879 346.868)" d="M0.256088 -0.702179C18.4803 -0.495773 32.0923 -1.13318 31.9576 50.3603C31.4951 75.8441 23.8484 90.3478 13.3316 90.0797C2.81476 89.8117 -5.82429 89.9141 -16.1575 89.9945C-26.5376 90.002 -33.9215 73.2298 -33.459 47.746C-33.6104 -5.95491 -17.9682 -0.908607 0.256088 -0.702179Z"></path>
  <path fill="#91A8EB" transform="matrix(1.50913 0.0246226 -0.0246226 1.50913 266.376 274.862)" d="M0.249979 -81.5196C49.8787 -81.2985 84.5 -60 84.5 0C84.5 41.1452 46.78 74.5 0.25 74.5C-62.1254 74.5 -84 60.12 -84 0C-84 -71.2881 -62.1254 -81.5196 0.249979 -81.5196Z"></path>
  <path fill="#A6B8EF" transform="matrix(0.805953 0.0131497 -0.0151654 0.929491 320.67 239.74)" d="M0.249972 -81.5196C49.8787 -81.2985 84.5 -60 84.5 0C84.5 41.1452 67.1354 74.5 20.6054 74.5C-41.77 74.5 -84 60.12 -84 0C-84 -71.2881 -62.1254 -81.5197 0.249972 -81.5196Z"></path>
  <path fill="#C1CBE8" transform="matrix(0.197995 -0.202726 0.445703 0.435301 343.77 190.891)" d="M11.5671 -77.0972C58.097 -77.0972 97.5959 -41.1452 97.5959 -1.67094e-05C97.5959 41.1452 73.4187 83.0524 26.8888 83.0524C-35.4867 83.0524 11.8086 60.12 11.8086 -1.5431e-05C11.8086 -41.1452 -34.9629 -77.0972 11.5671 -77.0972Z"></path>
  <path fill="#C1CBE8" transform="matrix(0.197995 -0.202726 0.184201 0.179903 388.212 255.247)" d="M48.93 -79.7642C80.6763 -79.0529 77.4946 -42.8889 62.8508 4.00565C48.2069 50.9001 -0.0393895 91.2963 -20.4536 67.777C-40.8678 44.2576 -16.8141 31.8032 -0.458961 -5.13881C15.8962 -42.0808 17.1838 -80.4755 48.93 -79.7642Z"></path>
  <path fill="#91A8EB" transform="matrix(1.79976 0.0293645 -0.0293645 1.79976 218.057 112.331)" d="M0 -22.5C14.6355 -22.5 26.5 -12.3145 26.5 0.250008C26.5 12.8145 14.6355 23 0 23C-14.6355 23 -26.5 12.8145 -26.5 0.250008C-26.5 -12.3145 -14.6355 -22.5 0 -22.5Z"></path>
  <path fill="#999CA8" transform="matrix(1.63997 3.39408e-09 -3.39408e-09 1.63997 188.309 133.774)" d="M62.0301 -4.32144C160.708 -3.80839 133.382 106.511 133.382 106.511C124.858 120.697 103.931 125.217 103.931 125.217C99.8122 122.738 97.0384 114.991 97.0384 114.991C97.0384 114.991 92.571 122.978 80.9884 132.097C33.5051 142.01 -40.0389 126.614 -41.66 116.832C-51.8318 89.8804 -42.4754 41.613 -40.0228 35.324C-37.5701 29.0351 -23.4335 12.2991 -23.4335 12.2991L-3.96149 -3.64614C-3.96149 -3.64614 28.6909 8.70725 69.7818 7.76565C67.3158 -2.81973 62.0301 -4.32144 62.0301 -4.32144Z"></path>
  <clipPath id="cl_7b">
    <path d="M290.036 126.687C451.865 127.529 407.052 308.449 407.052 308.449C393.072 331.714 358.753 339.126 358.753 339.126C351.998 335.06 347.449 322.355 347.449 322.355C347.449 322.355 340.123 335.454 321.128 350.409C243.257 366.666 122.647 341.417 119.988 325.376C103.307 281.175 118.651 202.018 122.673 191.704C126.695 181.391 149.879 153.944 149.879 153.944L181.813 127.795C181.813 127.795 235.361 148.054 302.749 146.51C298.705 129.15 290.036 126.687 290.036 126.687Z"></path>
  </clipPath>
  <g clip-path="url(#cl_7b)">
    <path fill="#686B77" transform="matrix(1.78416 3.69251e-09 -3.42908e-09 1.65688 275.92 243.03)" d="M-5.81434 -76.9003C-5.81434 -76.9003 -38.015 -34.4167 -37.875 19.4009C-37.7351 73.2184 27.8948 68.4574 27.8948 68.4574L-79.1489 92.4107L-102.257 16.7671L-83.3847 -74.5391L-5.81434 -76.9003Z"></path>
    <path fill="#BCBFC5" transform="matrix(1.78416 3.69251e-09 -3.42908e-09 1.65688 275.92 243.03)" d="M45.4521 -82.9725L93.7889 -50.8112C93.7889 -50.8112 78.8995 -3.97774 47.484 1.7428C16.0686 7.46333 -45.8161 -37.4435 -45.8161 -37.4435L-73.0634 -72.0992L45.4521 -82.9725Z"></path>
    <path fill="#DADDE0" transform="matrix(1.78416 3.69251e-09 -3.42908e-09 1.65688 305.439 122.493)" d="M33.8967 14.5768L59.8776 19.1892C59.8776 19.1892 48.6614 51.4509 28.5602 52.2698C8.45895 53.0887 -29.101 32.4093 -29.101 32.4093C-29.101 32.4093 17.1176 36.5863 22.2728 36.8407C27.4281 37.0951 33.8967 14.5768 33.8967 14.5768Z"></path>
    <path fill="none" stroke="#494B53" stroke-width="1" stroke-linejoin="round" transform="matrix(1.78416 3.69251e-09 -3.42908e-09 1.65688 237.62 243.09)" d="M59.9289 52.7444C57.3564 60.3316 54.1158 68.2952 50.1158 76.6343C16.1594 77.1498 -25.2378 65.559 -25.2378 65.559C-34.9636 44.2166 -33.6264 3.12168 -31.9909 -19.2678"></path>
    <path fill="none" stroke="#898FA2" stroke-width="1" stroke-linejoin="round" transform="matrix(1.78416 3.69251e-09 -3.42908e-09 1.65688 237.62 243.09)" d="M-52.5751 -90.6465C-52.5751 -90.6465 29.9049 -60.6268 29.9049 -60.6268C47.3122 -58.4025 83.4637 -21.4663 61.0933 49.1929"></path>
  </g>
  <defs>
    <linearGradient id="gradient_1" gradientUnits="userSpaceOnUse" x1="-60.30225" y1="-15.24908" x2="-29.287821" y2="-15.24908">
      <stop offset="0" stop-color="#42444C"></stop>
      <stop offset="0.99602401" stop-color="#161823"></stop>
      <stop offset="1" stop-color="black"></stop>
    </linearGradient>
  </defs>
  <path fill="url(#gradient_1)" transform="matrix(2.06931 4.28265e-09 -3.39408e-09 1.63997 280.816 239.75)" d="M-58.1232 -38.8393C-54.5001 -50.2495 -36.6337 -48.5811 -31.9012 -38.5612C-27.1688 -28.5414 -29.2878 -16.904 -29.2878 -16.904C-37.342 10.4732 -59.3233 2.22359 -60.3022 -21.2052C-60.3022 -21.2052 -61.7464 -27.4291 -58.1232 -38.8393Z"></path>
  <path fill="#91A8EB" transform="matrix(0.606874 0.00990163 -0.00990163 0.606874 191.374 79.6086)" d="M1.52588e-05 -22.5C14.6356 -22.5 26.5 -12.3145 26.5 0.25C26.5 12.8145 14.6356 23 1.52588e-05 23C-14.6355 23 -26.5 12.8145 -26.5 0.25C-26.5 -12.3145 -14.6355 -22.5 1.52588e-05 -22.5Z"></path>
  <path fill="#91A8EB" transform="matrix(0.504938 0.00823846 -0.00823846 0.504938 175.924 90.306)" d="M-1.53012e-05 -22.5C14.6355 -22.5 26.5 -12.3145 26.5 0.25C26.5 12.8145 14.6355 23 -1.52164e-05 23C-14.6356 23 -26.5 12.8145 -26.5 0.25C-26.5 -12.3145 -14.6356 -22.5 -1.53012e-05 -22.5Z"></path>
  <path fill="#91A8EB" transform="matrix(0.274279 0.00447507 -0.00447507 0.274279 157.055 57.5194)" d="M3.05176e-05 -22.4261C14.2962 -22.4261 25.8855 -12.274 25.8855 0.249329C25.8855 12.7726 14.2962 22.9247 3.05176e-05 22.9247C-14.2961 22.9247 -25.8855 12.7726 -25.8855 0.249329C-25.8855 -12.274 -14.2961 -22.4261 3.05176e-05 -22.4261Z"></path>
  <path fill="#C1CBE8" transform="matrix(0.073816 -0.11483 0.26388 0.16963 153.376 54.9193)" d="M0 -11.4999C14.6355 -11.4999 28.0061 -7.98322 28.0061 -1.63195C28.0061 4.71933 15.5059 0.400246 0.870356 0.400247C-13.7652 0.400246 -26.766 4.37695 -26.766 -1.97432C-26.766 -8.3256 -14.6355 -11.4999 0 -11.4999Z"></path>
  <path fill="#C1CBE8" transform="matrix(-0.166841 -0.570472 0.880441 -0.257495 175.912 116.681)" d="M0 -11.5C14.6355 -11.5 28.0061 -7.98328 28.0061 -1.63201C28.0061 4.71927 15.5059 0.400186 0.870357 0.400186C-13.7652 0.400184 -26.766 4.37689 -26.766 -1.97439C-26.766 -8.32566 -14.6355 -11.5 0 -11.5Z"></path>
  <path fill="#1B2B56" transform="matrix(1.78669 -0.21848 0.065544 0.536007 226.057 89.2066)" d="M-9.31323e-09 -2.5C1.38071 -2.5 2.5 -1.38071 2.5 0C2.5 1.38071 1.38071 2.5 9.31323e-09 2.5C-1.38071 2.5 -2.5 1.38071 -2.5 0C-2.5 -1.38071 -1.38071 -2.5 -9.31323e-09 -2.5Z"></path>
  <path fill="none" stroke="#1B2B56" stroke-width="0.5" stroke-linecap="round" stroke-linejoin="round" transform="matrix(1.78289 -0.247598 0.247598 1.78289 234.701 88.095)" d="M1.98548 0.277981L6.02909 0.184244"></path>
  <path fill="#1B2B56" transform="matrix(1.78669 -0.21848 0.065544 0.536007 254.645 85.7109)" d="M-9.31323e-09 -2.5C1.38071 -2.5 2.5 -1.38071 2.5 0C2.5 1.38071 1.38071 2.5 9.31323e-09 2.5C-1.38071 2.5 -2.5 1.38071 -2.5 0C-2.5 -1.38071 -1.38071 -2.5 -9.31323e-09 -2.5Z"></path>
  <path fill="#354B89" transform="matrix(1.46507 -0.885005 0.929571 0.72522 246.422 78.7788)" d="M0 -2.50002C1.38071 -2.50002 2.5 -1.38073 2.5 -1.51098e-05C2.5 1.3807 1.38071 2.49998 0 2.49998C-1.38071 2.49998 -2.5 1.3807 -2.5 -1.54078e-05C-2.5 -1.38073 -1.38071 -2.50002 0 -2.50002Z"></path>
  <path fill="#354B89" transform="matrix(2.16254 0.296937 -0.629837 1.0733 230.45 79.7183)" d="M0 -2.98532C1.68306 -2.98532 3.04744 -1.64874 3.04744 1.5168e-05C3.04744 1.64877 1.68306 2.98535 0 2.98535C-1.68306 2.98535 -3.04744 1.64877 -3.04744 1.53496e-05C-3.04744 -1.64874 -1.68306 -2.98532 0 -2.98532Z"></path>
  <path fill="none" stroke="black" stroke-width="7" stroke-linecap="round" stroke-linejoin="round" transform="matrix(2.15345 4.45679e-09 -4.42021e-09 2.13577 150.189 283.36)" d="M19.7244 -29.6912C20.174 -25.3013 21.2103 -18.907 23.8224 -8.93327C35.053 15.5853 55.3032 22.7624 37.5852 40.9445C26.3901 52.288 -13.5058 38.1858 -24.8018 13.524C-32.6264 -11.4047 -23.7136 -37.8955 -11.6012 -51.4457"></path>
  <path fill="none" stroke="black" stroke-width="7" stroke-linejoin="round" transform="translate(256 256)" d="M-90.9974 -49.8314C-114.34 -47.0671 -140.061 -47.4404 -157.017 -57.7434C-151.012 -97.9958 -114.861 -133.135 -83.8878 -133.943C-81.0021 -124.844 -77.1138 -116.945 -72.7249 -110.125"></path>
  <path fill="#6C88D9" transform="matrix(2.15345 4.45679e-09 -4.42021e-09 2.13577 150.189 283.36)" d="M7.08946 -60.2976C10.9548 -56.2285 18.7872 -41.9031 19.1978 -37.9973C19.6084 -34.0916 18.7842 -28.1703 23.8224 -8.93327C35.053 15.5853 55.3032 22.7624 37.5852 40.9445C26.3901 52.288 -13.5058 38.1858 -24.8018 13.524C-36.4982 -23.74 -10.795 -64.4947 7.08946 -60.2976Z"></path>
  <path fill="#91A8EB" transform="matrix(1.67686 3.47045e-09 -4.32784e-09 2.09114 154.179 277.647)" d="M6.45366 -53.8467C28.561 -55.1634 13.5208 -30.8108 20.3118 -7.53876C34.1155 16.2831 57.4738 27.3512 47.7517 36.9944C38.0295 46.6376 -10.578 35.0541 -25.7803 11.6857C-38.2313 -17.7187 -15.6537 -52.53 6.45366 -53.8467Z"></path>
  <path fill="#999696" transform="matrix(1.61809 -0.266948 0.266948 1.61809 113.603 192.866)" d="M-9.33073 1.7923C0.255675 -20.3552 11.318 -34.4995 42.2294 -37.4964C57.7294 -9.48986 69.6738 5.85637 69.6738 5.85637C69.6737 9.4091 68.001 11.4229 63.6402 11.4229C63.6402 11.4229 11.318 19.5229 -9.33073 1.7923Z"></path>
  <path fill="#828594" transform="matrix(1.61809 -0.266948 0.266948 1.61809 113.603 192.866)" d="M-9.33073 1.7923C0.255675 -20.3552 11.318 -34.4995 42.2294 -37.4964C57.7294 -9.48986 69.6738 5.85637 69.6738 5.85637C69.6737 9.4091 68.001 11.4229 63.6402 11.4229C63.6402 11.4229 11.318 19.5229 -9.33073 1.7923Z"></path>
  <clipPath id="cl_7f">
    <path d="M98.983 198.257C108.583 159.861 122.707 134.021 171.924 120.92C204.481 162.099 227.905 183.743 227.905 183.743C228.853 189.491 226.684 193.196 219.628 194.36C219.628 194.36 137.128 221.434 98.983 198.257Z"></path>
  </clipPath>
  <g clip-path="url(#cl_7f)">
    <path fill="#686B77" transform="matrix(1.61809 -0.266948 0.266948 1.61809 113.603 192.866)" d="M-18.5853 15.5755L-13.4615 -44.4622C-13.4615 -44.4622 70.2014 -44.8305 70.2014 -44.8305C29.0482 -45.0949 3.69742 17.5905 3.69742 17.5905L-18.5853 15.5755Z"></path>
  </g>
  <path fill="#42444C" transform="matrix(1.61809 -0.266948 0.266948 1.61809 113.603 192.866)" d="M-9.33073 -5.18064C-9.33073 -5.18064 -8.34055 -14.2229 2.12124 -18.7125C16.6016 -6.18101 67.6134 6.22991 67.6134 6.22991L66.536 9.4091C66.536 9.4091 1.13099 9.26386 -9.33073 -5.18064Z"></path>
  <path fill="#4B4949" transform="matrix(1.61809 -0.266948 0.266948 1.61809 225.354 189.043)" d="M-2.08616e-06 -12C6.90356 -12 12.5 -6.62742 12.5 -1.86265e-07C12.5 6.62742 6.90356 12 -1.72853e-06 12C-6.90356 12 -12.5 6.62742 -12.5 1.86265e-07C-12.5 -6.62742 -6.90356 -12 -2.08616e-06 -12Z"></path>
  <path fill="#827A7A" transform="matrix(1.61809 -0.266948 0.266948 1.61809 230.476 189.86)" d="M-1.13249e-06 -12C6.90356 -12 12.5 -6.62742 12.5 -1.86265e-07C12.5 6.62742 6.90356 12 -7.7486e-07 12C-6.90356 12 -12.5 6.62742 -12.5 1.86265e-07C-12.5 -6.62742 -6.90356 -12 -1.13249e-06 -12Z"></path>
  <path fill="none" stroke="white" stroke-width="5" stroke-linecap="round" stroke-linejoin="round" transform="matrix(1.5 0 0 1.5 158.539 362.24)" d=""></path>
</svg>