<?xml version="1.0" encoding="utf-8"?>
<svg xmlns="http://www.w3.org/2000/svg" xmlns:xlink="http://www.w3.org/1999/xlink" width="512" height="512">
  <path fill="none" stroke="black" stroke-width="7" stroke-linejoin="round" transform="matrix(1.8 3.72529e-09 -3.72529e-09 1.8 210.879 409.868)" d="M-3.64383 -46.1574C14.5809 -46.0011 27.1462 -38.6369 27.0859 5.65256C27.4878 34.6673 20.1682 44.7062 9.65064 44.4671C-0.866903 44.228 -9.50562 44.354 -19.8385 44.463C-30.3016 44.3926 -35.7132 33.268 -36.1148 4.24017C-36.347 -42.2558 -21.8686 -46.3137 -3.64383 -46.1574Z"></path>
  <path fill="none" stroke="black" stroke-width="7" stroke-linejoin="round" transform="matrix(1.79976 0.0293645 -0.0298671 1.83057 266.414 272.512)" d="M0.209625 -80.0966C37.3348 -80.0966 80.6639 -60.1508 80.6639 -0.150775C80.6639 40.9944 46.7396 76.2788 0.209625 76.2788C-62.1658 76.2788 -84 60.12 -84 -9.53674e-07C-84 -71.2881 -50.5087 -80.0966 0.209625 -80.0966Z"></path>
  <path fill="none" stroke="black" stroke-width="7" stroke-linejoin="round" transform="matrix(-2.15345 -3.29802e-07 -3.27096e-07 2.13577 356.081 273.696)" d="M12.4742 -58.8093C15.8438 -54.3144 21.9704 -39.1677 21.9277 -35.2403C21.8849 -31.3129 26.2849 -22.3984 25.0051 1.93672C23.7892 30.8006 19.356 53.89 -5.9082 52.9698C-21.7653 52.2908 -33.2381 28.3584 -32.0222 -0.505455C-30.4978 -36.6924 -4.80465 -65.0754 12.4742 -58.8093Z"></path>
  <path fill="none" stroke="black" stroke-width="7" stroke-linejoin="round" transform="matrix(1.53671 3.18039e-09 -3.72529e-09 1.8 308.979 398.168)" d="M1.57211 -47.9197C19.782 -48.5612 35.4754 -42.1993 37.6788 7.33963C38.731 21.1659 33.6046 45.0704 19.9307 45.3679C6.25701 45.6655 0.123352 45.7989 -12.0747 46.0644C-24.2728 46.3298 -27.2129 23.4889 -28.2651 9.6626C-30.8849 -42.0543 -16.6378 -47.2783 1.57211 -47.9197Z"></path>
  <path fill="#6C88D9" transform="matrix(-2.15345 -3.29802e-07 -3.27096e-07 2.13577 356.081 273.696)" d="M12.4742 -58.8093C15.8438 -54.3144 21.9704 -39.1677 21.9277 -35.2403C21.8849 -31.3129 26.2849 -22.3984 25.0051 1.93672C23.7892 30.8006 19.356 53.89 -5.9082 52.9698C-21.7653 52.2908 -33.2381 28.3584 -32.0222 -0.505455C-30.4978 -36.6924 -4.80465 -65.0754 12.4742 -58.8093Z"></path>
  <path fill="#5170C8" transform="matrix(1.53671 3.18039e-09 -3.72529e-09 1.8 308.979 398.168)" d="M1.57211 -47.9197C19.782 -48.5612 35.4754 -42.1993 37.6788 7.33963C38.731 21.1659 33.6046 45.0704 19.9307 45.3679C6.25701 45.6655 0.123352 45.7989 -12.0747 46.0644C-24.2728 46.3298 -27.2129 23.4889 -28.2651 9.6626C-30.8849 -42.0543 -16.6378 -47.2783 1.57211 -47.9197Z"></path>
  <path fill="#839BE0" transform="matrix(1.20328 2.49031e-09 -2.91698e-09 1.40944 308.979 398.168)" d="M2.62141 -48.502C20.8313 -49.1435 35.9774 -42.6787 38.5248 11.3445C38.8841 29.2768 30.6352 44.6398 16.9614 44.9374C3.28762 45.2349 3.46394 45.2816 -8.73416 45.5471C-20.9322 45.8125 -27.0598 31.5997 -27.4191 13.6674C-30.3829 -42.5337 -15.5885 -47.8606 2.62141 -48.502Z"></path>
  <path fill="#6C88D9" transform="matrix(1.8 3.72529e-09 -3.72529e-09 1.8 210.879 409.868)" d="M-3.64383 -46.1574C14.5809 -46.0011 27.1462 -38.6369 27.0859 5.65256C27.4878 34.6673 20.1682 44.7062 9.65064 44.4671C-0.866903 44.228 -9.50562 44.354 -19.8385 44.463C-30.3016 44.3926 -35.7132 33.268 -36.1148 4.24017C-36.347 -42.2558 -21.8686 -46.3137 -3.64383 -46.1574Z"></path>
  <path fill="#91A8EB" transform="matrix(-1.67686 -2.56813e-07 -3.2026e-07 2.09114 352.092 267.983)" d="M12.6445 -52.3859C34.7928 -51.6315 26.5829 -27.0587 23.4352 1.45156C20.2875 29.9618 7.16655 52.8893 -8.28355 52.3631C-23.7336 51.8369 -34.6403 28.1632 -33.1205 -0.529691C-31.6007 -29.2226 -9.50375 -53.1402 12.6445 -52.3859Z"></path>
  <path fill="none" stroke="black" stroke-width="7" stroke-miterlimit="4" transform="matrix(1.79976 0.0293645 -0.0293645 1.79976 217.004 112.357)" d="M1.90735e-06 -29.5C19.0538 -29.5 34.5 -16.1805 34.5 0.25C34.5 16.6805 19.0538 30 1.90735e-06 30C-19.0538 30 -34.5 16.6805 -34.5 0.25C-34.5 -16.1805 -19.0538 -29.5 1.90735e-06 -29.5Z"></path>
  <path fill="none" stroke="black" stroke-width="9" stroke-miterlimit="4" transform="translate(256 256)" d="M-65.3058 -201.46C-50.5232 -201.219 -38.7082 -190.689 -38.9161 -177.942C-39.1241 -165.195 -51.2764 -155.057 -66.059 -155.298C-80.8416 -155.539 -92.6566 -166.068 -92.4487 -178.816C-92.2407 -191.563 -80.0884 -201.701 -65.3058 -201.46Z"></path>
  <path fill="none" stroke="black" stroke-width="9" stroke-miterlimit="4" transform="translate(256 256)" d="M-80.8188 -186.547C-68.5192 -186.347 -58.6888 -177.586 -58.8618 -166.98C-59.0349 -156.374 -69.1459 -147.938 -81.4455 -148.139C-93.7451 -148.34 -103.576 -157.101 -103.403 -167.707C-103.229 -178.313 -93.1184 -186.748 -80.8188 -186.547Z"></path>
  <path fill="none" stroke="black" stroke-width="9" stroke-miterlimit="4" transform="translate(256 256)" d="M-100.826 -210.881C-94.1449 -210.772 -88.805 -206.014 -88.899 -200.253C-88.993 -194.491 -94.4853 -189.909 -101.166 -190.018C-107.847 -190.127 -113.187 -194.886 -113.093 -200.647C-112.999 -206.408 -107.507 -210.99 -100.826 -210.881Z"></path>
  <path fill="#6C88D9" transform="matrix(1.79976 0.0293645 -0.0293645 1.79976 217.004 112.357)" d="M1.90735e-06 -29.5C19.0538 -29.5 34.5 -16.1805 34.5 0.25C34.5 16.6805 19.0538 30 1.90735e-06 30C-19.0538 30 -34.5 16.6805 -34.5 0.25C-34.5 -16.1805 -19.0538 -29.5 1.90735e-06 -29.5Z"></path>
  <path fill="#6C88D9" transform="matrix(0.775834 0.0126583 -0.0126583 0.775834 190.321 77.4272)" d="M-7.62939e-06 -29.5C19.0538 -29.5 34.5 -16.1805 34.5 0.249985C34.5 16.6805 19.0538 30 -7.62939e-06 30C-19.0538 30 -34.5 16.6805 -34.5 0.249985C-34.5 -16.1805 -19.0538 -29.5 -7.62939e-06 -29.5Z"></path>
  <path fill="#6C88D9" transform="matrix(0.645518 0.0105321 -0.0105321 0.645518 174.87 88.4953)" d="M1.52588e-05 -29.5C19.0538 -29.5 34.5 -16.1805 34.5 0.25C34.5 16.6805 19.0538 30 1.52588e-05 30C-19.0538 30 -34.5 16.6805 -34.5 0.25C-34.5 -16.1805 -19.0538 -29.5 1.52588e-05 -29.5Z"></path>
  <path fill="#6C88D9" transform="matrix(0.35064 0.00572097 -0.00572097 0.35064 155.005 55.4624)" d="M0 -29.5C19.0538 -29.5 34.5 -16.1805 34.5 0.25C34.5 16.6805 19.0538 30 0 30C-19.0538 30 -34.5 16.6805 -34.5 0.25C-34.5 -16.1805 -19.0538 -29.5 0 -29.5Z"></path>
  <path fill="none" stroke="black" stroke-width="7" stroke-linejoin="round" transform="translate(256 256)" d="M-89.5409 -105.85C-70.0683 -132.572 23.2477 -118.559 39.4817 -115.893"></path>
  <defs>
    <linearGradient id="gradient_0" gradientUnits="userSpaceOnUse" x1="-10.499905" y1="-40.34568" x2="-3.0814617" y2="20.75737">
      <stop offset="0" stop-color="#A1A8AF"></stop>
      <stop offset="0.99830264" stop-color="#242B4A"></stop>
      <stop offset="1" stop-color="#000417"></stop>
    </linearGradient>
  </defs>
  <path fill="url(#gradient_0)" transform="matrix(1.63997 3.39408e-09 -3.39408e-09 1.63997 254.678 164.699)" d="M-53.7932 -8.87113C-40.7768 -26.7335 26.3506 -14.7462 26.3506 -14.7462L53.5854 -9.77639L68.6389 10.0869L-57 14.5C-57 14.5 -53.7932 -8.87113 -53.7932 -8.87113Z"></path>
  <path fill="none" stroke="black" stroke-width="7" stroke-linejoin="round" transform="translate(256 256)" d="M171.964 -69.6583C153.254 -104.534 133.233 -126.129 82.3054 -126.778C65.9624 -76.0169 43.4138 -52.1592 43.4138 -52.1592C43.9022 -46.3533 46.9124 -43.2923 54.0388 -43.8916C54.0388 -43.8916 140.657 -37.8452 171.964 -69.6583Z"></path>
  <path fill="#828594" transform="matrix(-1.6342 0.137431 0.137431 1.6342 412.47 184.695)" d="M-9.33074 1.7923C0.255668 -20.3552 11.3179 -34.4995 42.2294 -37.4963C57.7294 -9.48986 69.6737 5.85638 69.6737 5.85638C69.6737 9.4091 68.001 11.4229 63.6402 11.4229C63.6402 11.4229 11.3179 19.5229 -9.33074 1.7923Z"></path>
  <path fill="none" stroke="black" stroke-width="7" stroke-linecap="round" stroke-linejoin="round" transform="translate(256 256)" d="M50.1135 -127.394C57.4812 -127.137 64.3555 -126.421 70.7677 -125.292"></path>
  <path fill="#6C88D9" transform="matrix(1.79976 0.0293645 -0.0297683 1.82451 266.407 272.974)" d="M0.445611 -80.8406C37.5708 -80.8406 80.6032 -59.9373 80.6032 0.062734C80.6032 41.2079 46.7396 76.2788 0.209625 76.2788C-62.1658 76.2788 -84 60.12 -84 7.96746e-07C-84 -71.2881 -50.2727 -80.8406 0.445611 -80.8406Z"></path>
  <path fill="#91A8EB" transform="matrix(1.37947 2.85496e-09 -2.85496e-09 1.37947 210.879 346.868)" d="M-4.87456 -0.579597C13.3502 -0.423279 26.9604 -1.09809 26.9672 50.3956C26.5748 75.8805 18.968 90.4052 8.45047 90.1661C-2.06706 89.927 -10.7058 90.0531 -21.0387 90.1619C-31.4188 90.198 -38.8487 73.4462 -38.4563 47.9612C-38.7554 -5.73914 -23.0993 -0.735893 -4.87456 -0.579597Z"></path>
  <path fill="#91A8EB" transform="matrix(1.50913 0.0246226 -0.0246226 1.50913 266.376 274.862)" d="M0.249979 -81.5196C49.8787 -81.2985 84.5 -60 84.5 0C84.5 41.1452 46.78 74.5 0.25 74.5C-62.1254 74.5 -84 60.12 -84 0C-84 -71.2881 -62.1254 -81.5196 0.249979 -81.5196Z"></path>
  <path fill="#A6B8EF" transform="matrix(0.805953 0.0131497 -0.0151654 0.929491 320.67 239.74)" d="M0.249972 -81.5196C49.8787 -81.2985 84.5 -60 84.5 0C84.5 41.1452 67.1354 74.5 20.6054 74.5C-41.77 74.5 -84 60.12 -84 0C-84 -71.2881 -62.1254 -81.5197 0.249972 -81.5196Z"></path>
  <path fill="#C1CBE8" transform="matrix(0.197995 -0.202726 0.445703 0.435301 343.77 190.891)" d="M11.5671 -77.0972C58.097 -77.0972 97.5959 -41.1452 97.5959 -1.67094e-05C97.5959 41.1452 73.4187 83.0524 26.8888 83.0524C-35.4867 83.0524 11.8086 60.12 11.8086 -1.5431e-05C11.8086 -41.1452 -34.9629 -77.0972 11.5671 -77.0972Z"></path>
  <path fill="#C1CBE8" transform="matrix(0.197995 -0.202726 0.184201 0.179903 388.212 255.247)" d="M48.93 -79.7642C80.6763 -79.0529 77.4946 -42.8889 62.8508 4.00565C48.2069 50.9001 -0.0393895 91.2963 -20.4536 67.777C-40.8678 44.2576 -16.8141 31.8032 -0.458961 -5.13881C15.8962 -42.0808 17.1838 -80.4755 48.93 -79.7642Z"></path>
  <path fill="#91A8EB" transform="matrix(1.79976 0.0293645 -0.0293645 1.79976 217.004 112.357)" d="M1.90735e-06 -22.5C14.6355 -22.5 26.5 -12.3145 26.5 0.25C26.5 12.8145 14.6355 23 1.90735e-06 23C-14.6355 23 -26.5 12.8145 -26.5 0.25C-26.5 -12.3145 -14.6355 -22.5 1.90735e-06 -22.5Z"></path>
  <path fill="#999CA8" transform="matrix(1.63997 3.39408e-09 -3.39408e-09 1.63997 188.309 133.774)" d="M62.0301 -4.32144C160.708 -3.80839 133.382 106.511 133.382 106.511C124.858 120.697 103.931 125.217 103.931 125.217C99.8122 122.738 97.0384 114.991 97.0384 114.991C97.0384 114.991 92.571 122.978 80.9884 132.097C33.5051 142.01 -40.0389 126.614 -41.66 116.832C-51.8318 89.8804 -42.4754 41.613 -40.0228 35.324C-37.5701 29.0351 -23.4335 12.2991 -23.4335 12.2991L-3.96149 -3.64614C-3.96149 -3.64614 28.6909 8.70725 69.7818 7.76565C67.3158 -2.81973 62.0301 -4.32144 62.0301 -4.32144Z"></path>
  <clipPath id="cl_30">
    <path d="M290.036 126.687C451.865 127.529 407.052 308.449 407.052 308.449C393.072 331.714 358.753 339.126 358.753 339.126C351.998 335.06 347.449 322.355 347.449 322.355C347.449 322.355 340.123 335.454 321.128 350.409C243.257 366.666 122.647 341.417 119.988 325.376C103.307 281.175 118.651 202.018 122.673 191.704C126.695 181.391 149.879 153.944 149.879 153.944L181.813 127.795C181.813 127.795 235.361 148.054 302.749 146.51C298.705 129.15 290.036 126.687 290.036 126.687Z"></path>
  </clipPath>
  <g clip-path="url(#cl_30)">
    <path fill="#686B77" transform="matrix(1.78416 3.69251e-09 -3.42908e-09 1.65688 275.92 243.03)" d="M-5.81434 -76.9003C-5.81434 -76.9003 -38.015 -34.4167 -37.875 19.4009C-37.7351 73.2184 27.8948 68.4574 27.8948 68.4574L-79.1489 92.4107L-102.257 16.7671L-83.3847 -74.5391L-5.81434 -76.9003Z"></path>
    <path fill="#BCBFC5" transform="matrix(1.78416 3.69251e-09 -3.42908e-09 1.65688 275.92 243.03)" d="M45.4521 -82.9725L93.7889 -50.8112C93.7889 -50.8112 78.8995 -3.97774 47.484 1.7428C16.0686 7.46333 -45.8161 -37.4435 -45.8161 -37.4435L-73.0634 -72.0992L45.4521 -82.9725Z"></path>
    <path fill="#DADDE0" transform="matrix(1.78416 3.69251e-09 -3.42908e-09 1.65688 305.439 122.493)" d="M33.8967 14.5768L59.8776 19.1892C59.8776 19.1892 48.6614 51.4509 28.5602 52.2698C8.45895 53.0887 -29.101 32.4093 -29.101 32.4093C-29.101 32.4093 17.1176 36.5863 22.2728 36.8407C27.4281 37.0951 33.8967 14.5768 33.8967 14.5768Z"></path>
    <path fill="none" stroke="#494B53" stroke-width="1" stroke-linejoin="round" transform="matrix(1.78416 3.69251e-09 -3.42908e-09 1.65688 237.62 243.09)" d="M59.9289 52.7444C57.3564 60.3316 54.1158 68.2952 50.1158 76.6343C16.1594 77.1498 -25.2378 65.559 -25.2378 65.559C-34.9636 44.2166 -33.6264 3.12168 -31.9909 -19.2678"></path>
    <path fill="none" stroke="#898FA2" stroke-width="1" stroke-linejoin="round" transform="matrix(1.78416 3.69251e-09 -3.42908e-09 1.65688 237.62 243.09)" d="M-52.5751 -90.6465C-52.5751 -90.6465 29.9049 -60.6268 29.9049 -60.6268C47.3122 -58.4025 83.4637 -21.4663 61.0933 49.1929"></path>
  </g>
  <defs>
    <linearGradient id="gradient_1" gradientUnits="userSpaceOnUse" x1="-60.30225" y1="-15.24908" x2="-29.287821" y2="-15.24908">
      <stop offset="0" stop-color="#42444C"></stop>
      <stop offset="0.99602401" stop-color="#161823"></stop>
      <stop offset="1" stop-color="black"></stop>
    </linearGradient>
  </defs>
  <path fill="url(#gradient_1)" transform="matrix(2.06931 4.28265e-09 -3.39408e-09 1.63997 280.816 239.75)" d="M-58.1232 -38.8393C-54.5001 -50.2495 -36.6337 -48.5811 -31.9012 -38.5612C-27.1688 -28.5414 -29.2878 -16.904 -29.2878 -16.904C-37.342 10.4732 -59.3233 2.22359 -60.3022 -21.2052C-60.3022 -21.2052 -61.7464 -27.4291 -58.1232 -38.8393Z"></path>
  <path fill="#91A8EB" transform="matrix(0.606874 0.00990163 -0.00990163 0.606874 190.321 79.6343)" d="M0 -22.5C14.6355 -22.5 26.5 -12.3144 26.5 0.250031C26.5 12.8145 14.6355 23 0 23C-14.6355 23 -26.5 12.8145 -26.5 0.250031C-26.5 -12.3144 -14.6355 -22.5 0 -22.5Z"></path>
  <path fill="#91A8EB" transform="matrix(0.504938 0.00823846 -0.00823846 0.504938 174.87 90.3317)" d="M-4.23752e-08 -22.5C14.6355 -22.5 26.5 -12.3144 26.5 0.25003C26.5 12.8145 14.6355 23 4.23752e-08 23C-14.6355 23 -26.5 12.8145 -26.5 0.250031C-26.5 -12.3144 -14.6355 -22.5 -4.23752e-08 -22.5Z"></path>
  <path fill="#91A8EB" transform="matrix(0.274279 0.00447507 -0.00447507 0.274279 156.001 57.5451)" d="M3.05176e-05 -22.4262C14.2962 -22.4262 25.8855 -12.2741 25.8855 0.249207C25.8855 12.7725 14.2962 22.9246 3.05176e-05 22.9246C-14.2961 22.9246 -25.8855 12.7725 -25.8855 0.249207C-25.8855 -12.2741 -14.2961 -22.4262 3.05176e-05 -22.4262Z"></path>
  <path fill="#C1CBE8" transform="matrix(0.073816 -0.11483 0.26388 0.16963 152.363 54.945)" d="M0.00012207 -11.5C14.6357 -11.5 28.0062 -7.98328 28.0062 -1.63201C28.0062 4.71926 15.506 0.400185 0.870479 0.400186C-13.7651 0.400185 -26.7659 4.37689 -26.7659 -1.97439C-26.7659 -8.32566 -14.6354 -11.5 0.00012207 -11.5Z"></path>
  <path fill="#C1CBE8" transform="matrix(-0.166841 -0.570472 0.880441 -0.257495 174.899 116.707)" d="M0 -11.5C14.6355 -11.5 28.0061 -7.98329 28.0061 -1.63202C28.0061 4.71926 15.5059 0.400178 0.870357 0.400178C-13.7652 0.400177 -26.766 4.37688 -26.766 -1.97439C-26.766 -8.32567 -14.6355 -11.5 0 -11.5Z"></path>
  <path fill="#1B2B56" transform="matrix(1.78669 -0.21848 0.065544 0.536007 223.002 89.2323)" d="M-9.31323e-09 -2.5C1.38071 -2.5 2.5 -1.38071 2.5 0C2.5 1.38071 1.38071 2.5 9.31323e-09 2.5C-1.38071 2.5 -2.5 1.38071 -2.5 0C-2.5 -1.38071 -1.38071 -2.5 -9.31323e-09 -2.5Z"></path>
  <path fill="none" stroke="#1B2B56" stroke-width="0.5" stroke-linecap="round" stroke-linejoin="round" transform="matrix(1.78289 -0.247598 0.247598 1.78289 231.645 88.1207)" d="M1.98548 0.277974L6.02909 0.184236"></path>
  <path fill="#1B2B56" transform="matrix(1.78669 -0.21848 0.065544 0.536007 251.589 85.7365)" d="M-9.31323e-09 -2.50003C1.38071 -2.50003 2.5 -1.38074 2.5 -3.05176e-05C2.5 1.38068 1.38071 2.49997 9.31323e-09 2.49997C-1.38071 2.49997 -2.5 1.38068 -2.5 -3.05176e-05C-2.5 -1.38074 -1.38071 -2.50003 -9.31323e-09 -2.50003Z"></path>
  <path fill="#354B89" transform="matrix(1.46507 -0.885005 0.929571 0.72522 243.366 78.8045)" d="M0 -2.5C1.38071 -2.5 2.5 -1.38071 2.5 1.49012e-07C2.5 1.38071 1.38071 2.5 0 2.5C-1.38071 2.5 -2.5 1.38071 -2.5 -1.49012e-07C-2.5 -1.38071 -1.38071 -2.5 0 -2.5Z"></path>
  <path fill="#354B89" transform="matrix(2.16254 0.296937 -0.629837 1.0733 227.394 79.744)" d="M0 -2.98531C1.68306 -2.98531 3.04744 -1.64873 3.04744 3.04268e-05C3.04744 1.64879 1.68306 2.98537 0 2.98537C-1.68306 2.98537 -3.04744 1.64879 -3.04744 3.06084e-05C-3.04744 -1.64873 -1.68306 -2.98531 0 -2.98531Z"></path>
  <path fill="none" stroke="black" stroke-width="7" stroke-linecap="round" stroke-linejoin="round" transform="matrix(2.15345 4.45679e-09 -4.42021e-09 2.13577 150.189 283.36)" d="M23.0018 -28.1928C24.2035 -22.5543 25.5838 -13.8035 25.389 0.235539C25.5318 29.1142 23.3566 51.955 -1.91018 52.7997C-17.7758 53.2285 -31.5325 29.4004 -31.6753 0.511799C-31.5941 -23.2159 -20.8357 -43.976 -8.52788 -54.0095"></path>
  <path fill="none" stroke="black" stroke-width="7" stroke-linejoin="round" transform="translate(256 256)" d="M-110.337 -49.3557C-133.819 -50.4279 -159.135 -54.9829 -174.188 -67.9086C-161.712 -106.647 -120.323 -135.433 -89.6311 -131.188C-88.265 -121.74 -85.7142 -113.314 -82.494 -105.871"></path>
  <path fill="#6C88D9" transform="matrix(2.15345 4.45679e-09 -4.42021e-09 2.13577 150.189 283.36)" d="M11.2935 -59.6702C14.7754 -55.2631 21.2818 -40.2783 21.3381 -36.3511C21.3943 -32.4239 25.7243 -23.9257 25.389 0.235539C25.5318 29.1142 23.3566 51.955 -1.91018 52.7997C-17.7758 53.2285 -31.5325 29.4004 -31.6753 0.511799C-31.5503 -36.0041 -6.13771 -65.4915 11.2935 -59.6702Z"></path>
  <path fill="#91A8EB" transform="matrix(1.67686 3.47045e-09 -4.32784e-09 2.09114 154.179 277.647)" d="M11.2854 -53.2465C33.4504 -52.9438 24.3417 -28.9894 23.5799 -0.968286C23.9456 27.5748 18.3498 50.6122 3.01604 52.218C-12.3177 53.8238 -30.7883 30.113 -32.792 1.51669C-33.758 -27.9266 -10.8796 -53.5491 11.2854 -53.2465Z"></path>
  <path fill="#999696" transform="matrix(1.63997 3.39408e-09 -3.39408e-09 1.63997 97.1137 185.152)" d="M-9.33073 1.7923C0.255675 -20.3552 11.318 -34.4995 42.2294 -37.4963C57.7294 -9.48986 69.6737 5.85638 69.6737 5.85638C69.6737 9.4091 68.001 11.4229 63.6402 11.4229C63.6402 11.4229 11.318 19.5229 -9.33073 1.7923Z"></path>
  <path fill="#828594" transform="matrix(1.63997 3.39408e-09 -3.39408e-09 1.63997 97.1137 185.152)" d="M-9.33073 1.7923C0.255675 -20.3552 11.318 -34.4995 42.2294 -37.4963C57.7294 -9.48986 69.6737 5.85638 69.6737 5.85638C69.6737 9.4091 68.001 11.4229 63.6402 11.4229C63.6402 11.4229 11.318 19.5229 -9.33073 1.7923Z"></path>
  <clipPath id="cl_34">
    <path d="M81.8116 188.091C97.533 151.77 115.675 128.574 166.368 123.659C191.788 169.589 211.376 194.756 211.376 194.756C211.376 200.583 208.633 203.885 201.482 203.885C201.482 203.885 115.675 217.169 81.8116 188.091Z"></path>
  </clipPath>
  <g clip-path="url(#cl_34)">
    <path fill="#686B77" transform="matrix(1.63997 3.39408e-09 -3.39408e-09 1.63997 97.1137 185.152)" d="M-18.5853 15.5755L-13.4615 -44.4622C-13.4615 -44.4622 70.2014 -44.8304 70.2014 -44.8304C29.0482 -45.0949 3.69742 17.5905 3.69742 17.5905L-18.5853 15.5755Z"></path>
  </g>
  <path fill="#42444C" transform="matrix(1.63997 3.39408e-09 -3.39408e-09 1.63997 97.1137 185.152)" d="M-9.33073 -5.18064C-9.33073 -5.18064 -8.34054 -14.2229 2.12124 -18.7125C16.6016 -6.18101 67.6134 6.22991 67.6134 6.22991L66.536 9.4091C66.536 9.4091 1.13099 9.26386 -9.33073 -5.18064Z"></path>
  <path fill="#4B4949" transform="matrix(1.63997 3.39408e-09 -3.39408e-09 1.63997 207.997 199.571)" d="M1.90735e-06 -12C6.90356 -12 12.5 -6.62741 12.5 3.8147e-06C12.5 6.62742 6.90356 12 1.90735e-06 12C-6.90356 12 -12.5 6.62742 -12.5 3.8147e-06C-12.5 -6.62741 -6.90356 -12 1.90735e-06 -12Z"></path>
  <path fill="#827A7A" transform="matrix(1.63997 3.39408e-09 -3.39408e-09 1.63997 212.917 201.211)" d="M1.90735e-06 -12C6.90356 -12 12.5 -6.62742 12.5 0C12.5 6.62742 6.90356 12 1.90735e-06 12C-6.90356 12 -12.5 6.62742 -12.5 0C-12.5 -6.62742 -6.90356 -12 1.90735e-06 -12Z"></path>
  <path fill="none" stroke="white" stroke-width="5" stroke-linecap="round" stroke-linejoin="round" transform="matrix(1.5 0 0 1.5 158.539 362.24)" d=""></path>
</svg>