<?xml version="1.0" encoding="utf-8"?>
<svg xmlns="http://www.w3.org/2000/svg" xmlns:xlink="http://www.w3.org/1999/xlink" width="512" height="512">
  <path fill="none" stroke="black" stroke-width="7" stroke-linejoin="round" transform="matrix(1.8 3.72529e-09 -3.72529e-09 1.8 210.879 409.868)" d="M10.04 -46.486C28.2638 -46.2438 40.7943 -38.8205 40.5254 5.46813C40.7906 34.4844 33.4238 44.4888 22.9075 44.2002C12.3912 43.9115 3.752 43.9969 -6.58135 44.0571C-17.044 43.9375 -22.4031 32.7874 -22.668 3.75806C-22.6812 -42.7385 -8.1838 -46.7281 10.04 -46.486Z"></path>
  <path fill="none" stroke="black" stroke-width="7" stroke-linejoin="round" transform="matrix(-2.15345 -3.29802e-07 -3.27096e-07 2.13577 356.256 280.871)" d="M19.7596 -56.5073C22.3338 -51.5063 25.8542 -35.5381 25.1588 -31.6736C24.4633 -27.8091 27.3182 -18.2768 22.0088 5.49723C16.0091 33.7467 7.79823 55.7594 -16.9551 50.5802C-32.4746 47.2293 -39.8042 21.696 -33.8045 -6.5535C-26.2827 -41.9702 3.76765 -65.6065 19.7596 -56.5073Z"></path>
  <path fill="none" stroke="black" stroke-width="7" stroke-linejoin="round" transform="matrix(1.79976 0.0293645 -0.0293645 1.79976 266.551 282.036)" d="M0.209625 -80.0966C37.3348 -80.0966 84.5 -60 84.5 -9.53674e-07C84.5 41.1452 46.7396 76.2788 0.209625 76.2788C-62.1658 76.2788 -84 60.12 -84 -9.53674e-07C-84 -71.2881 -50.5087 -80.0966 0.209625 -80.0966Z"></path>
  <path fill="none" stroke="black" stroke-width="7" stroke-linejoin="round" transform="matrix(1.53671 3.18039e-09 -3.72529e-09 1.8 308.979 398.168)" d="M-13.0608 -47.611C4.86291 -50.4305 27.6459 -42.6596 31.3568 8.29558C30.2525 24.1878 16.7126 49.7605 3.3309 47.342C-10.0507 44.9235 -16.0533 43.8387 -27.9908 41.6812C-39.9282 39.5237 -34.5629 19.6498 -33.4854 8.04202C-37.7078 -40.8457 -30.9845 -44.7915 -13.0608 -47.611Z"></path>
  <path fill="#6C88D9" transform="matrix(-2.15345 -3.29802e-07 -3.27096e-07 2.13577 356.256 280.871)" d="M19.7596 -56.5073C22.3338 -51.5063 25.8542 -35.5381 25.1588 -31.6736C24.4633 -27.8091 27.3182 -18.2768 22.0088 5.49723C16.0091 33.7467 7.79823 55.7594 -16.9551 50.5802C-32.4746 47.2293 -39.8042 21.696 -33.8045 -6.5535C-26.2827 -41.9702 3.76765 -65.6065 19.7596 -56.5073Z"></path>
  <path fill="#5170C8" transform="matrix(1.53671 3.18039e-09 -3.72529e-09 1.8 308.979 398.168)" d="M-13.0608 -47.611C4.86291 -50.4305 27.6459 -42.6596 31.3568 8.29558C30.2525 24.1878 16.7126 49.7605 3.3309 47.342C-10.0507 44.9235 -16.0533 43.8387 -27.9908 41.6812C-39.9282 39.5237 -34.5629 19.6498 -33.4854 8.04202C-37.7078 -40.8457 -30.9845 -44.7915 -13.0608 -47.611Z"></path>
  <path fill="#839BE0" transform="matrix(1.20328 2.49031e-09 -2.91698e-09 1.40944 308.979 398.168)" d="M-13.9828 -48.3074C3.94085 -51.1269 26.5066 -43.2008 30.525 12.1602C27.9717 31.9939 12.9078 48.5498 -0.473881 46.1313C-13.8555 43.7129 -13.6967 43.7932 -25.6342 41.6357C-37.5717 39.4782 -36.8437 27.456 -34.3171 11.9066C-38.8471 -41.3869 -31.9065 -45.4879 -13.9828 -48.3074Z"></path>
  <path fill="#6C88D9" transform="matrix(1.8 3.72529e-09 -3.72529e-09 1.8 210.879 409.868)" d="M10.04 -46.486C28.2638 -46.2438 40.7943 -38.8205 40.5254 5.46813C40.7906 34.4844 33.4238 44.4888 22.9075 44.2002C12.3912 43.9115 3.752 43.9969 -6.58135 44.0571C-17.044 43.9375 -22.4031 32.7874 -22.668 3.75806C-22.6812 -42.7385 -8.1838 -46.7281 10.04 -46.486Z"></path>
  <path fill="#91A8EB" transform="matrix(-1.67686 -2.56813e-07 -3.2026e-07 2.09114 352.267 275.158)" d="M20.9799 -50.2387C42.6568 -46.5165 29.4238 -23.3958 20.358 4.28734C11.2922 31.9704 -6.438 52.8087 -21.5592 50.2121C-36.6804 47.6156 -42.4814 22.8104 -34.9823 -5.27172C-27.4831 -33.3539 -0.696861 -53.961 20.9799 -50.2387Z"></path>
  <path fill="none" stroke="black" stroke-width="7" stroke-miterlimit="4" transform="matrix(1.79976 0.0293645 -0.0293645 1.79976 225.1 119.338)" d="M0 -29.5C19.0538 -29.5 34.5 -16.1805 34.5 0.250008C34.5 16.6805 19.0538 30 0 30C-19.0538 30 -34.5 16.6805 -34.5 0.250008C-34.5 -16.1805 -19.0538 -29.5 0 -29.5Z"></path>
  <path fill="none" stroke="black" stroke-width="7" stroke-linejoin="round" transform="translate(256 256)" d="M-24.6875 -156.157L-17.9744 -163.542C-17.9744 -163.542 22.8857 -100.771 19.0802 -97.3612C19.0802 -97.3612 18.4403 -96.7909 17.471 -95.9272"></path>
  <path fill="none" stroke="black" stroke-width="7" stroke-linejoin="round" transform="translate(256 256)" d="M7.15449 -98.392C1.77137 -113.048 -13.4493 -138.215 -20.7223 -149.881"></path>
  <path fill="none" stroke="black" stroke-width="7" stroke-linejoin="round" transform="translate(256 256)" d="M18.1864 -96.5832C15.5268 -94.1993 13.5084 -92.39 6.66013 -86.2514C0.405571 -80.645 -82.0383 -134.937 -87.4137 -137.186C-87.7216 -142.045 -84.9225 -146.289 -77.6217 -148.618C-57.8145 -132.61 10.1654 -89.3934 18.9053 -97.2276C18.6582 -97.0062 18.4198 -96.7925 18.1864 -96.5832"></path>
  <path fill="#6C88D9" transform="matrix(1.79976 0.0293645 -0.0293645 1.79976 266.551 282.036)" d="M0.209625 -80.0966C37.3348 -80.0966 84.5 -60 84.5 -9.53674e-07C84.5 41.1452 46.7396 76.2788 0.209625 76.2788C-62.1658 76.2788 -84 60.12 -84 -9.53674e-07C-84 -71.2881 -50.5087 -80.0966 0.209625 -80.0966Z"></path>
  <path fill="#3A6D3D" transform="matrix(0.605664 -0.524085 0.698428 0.807145 163.47 112.282)" d="M74.2157 32.7782L86.5869 31.6617C86.5869 31.6617 73.8823 101.182 67.5039 101.264C67.5039 101.264 49.336 101.463 49.336 101.463C61.2865 101.485 74.2157 32.7782 74.2157 32.7782Z"></path>
  <path fill="none" stroke="black" stroke-width="7" stroke-miterlimit="4" transform="translate(256 256)" d="M-64.6583 -168.823C-38.7347 -191.255 -12.9343 -203.91 -7.03172 -197.088C-1.12909 -190.267 -17.3594 -166.552 -43.283 -144.12C-69.2067 -121.688 -95.0071 -109.034 -100.91 -115.855C-106.812 -122.676 -90.582 -146.391 -64.6583 -168.823Z"></path>
  <path fill="#585555" transform="matrix(0.605664 -0.524085 0.138801 0.160406 202.029 99.5284)" d="M0 -77C42.8021 -77 77.5 -42.5259 77.5 0C77.5 42.5259 42.8021 77 0 77C-42.8021 77 -77.5 42.5259 -77.5 0C-77.5 -42.5259 -42.8021 -77 0 -77Z"></path>
  <path fill="none" stroke="black" stroke-width="7" stroke-linejoin="round" transform="translate(256 256)" d="M-133.523 -191.092L-97.3429 -126.016"></path>
  <path fill="none" stroke="black" stroke-width="7" stroke-linejoin="round" transform="translate(256 256)" d="M-6.34196 -186.432L-76.8026 -240.173L-93.9012 -225.377"></path>
  <path fill="none" stroke="black" stroke-width="8" stroke-miterlimit="4" transform="translate(256 256)" d="M-113.521 -225.291C-97.8578 -238.844 -81.4185 -245.507 -76.8026 -240.173C-72.1867 -234.838 -81.1421 -219.527 -96.805 -205.974C-112.468 -192.42 -128.907 -185.758 -133.523 -191.092C-138.139 -196.426 -129.184 -211.738 -113.521 -225.291Z"></path>
  <path fill="#9C4040" transform="matrix(0.605664 -0.524085 0.524085 0.605664 108.382 60.8568)" d="M9.99828 15.3403L-13.0686 125.78L126.715 125.78L103.648 15.3403L9.99828 15.3403Z"></path>
  <path fill="none" stroke="black" stroke-width="7" stroke-miterlimit="4" transform="translate(256 256)" d="M-57.8452 -160.949C-31.9216 -183.381 -6.12123 -196.036 -0.218609 -189.215C5.68402 -182.393 -10.5463 -158.679 -36.4699 -136.247C-62.3936 -113.815 -88.194 -101.16 -94.0966 -107.981C-99.9992 -114.803 -83.7689 -138.517 -57.8452 -160.949Z"></path>
  <path fill="none" stroke="black" stroke-width="7" stroke-linejoin="round" transform="translate(256 256)" d="M-94.0966 -107.981C-94.0966 -107.981 -100.942 -115.892 -100.942 -115.892C-102.576 -117.781 -102.467 -121.027 -100.915 -125.194"></path>
  <path fill="none" stroke="black" stroke-width="7" stroke-linejoin="round" transform="translate(256 256)" d="M-7.65461 -197.688C-7.4393 -197.519 -7.24211 -197.331 -7.06363 -197.125C-7.06363 -197.125 -1.3133 -190.48 -0.353638 -189.371"></path>
  <path fill="#611E1E" transform="matrix(0.605664 -0.524085 0.138801 0.160406 208.842 107.402)" d="M0.749693 55.1992C17.8705 55.1992 66.8714 46.0031 69.8043 0.434675C69.9644 -2.05384 77.4999 -10.588 77.5 0C77.5 42.5259 42.8021 77 0 77C-42.8021 77 -77.5 42.5259 -77.5 0C-76.7271 -10.3619 -70.1795 -1.22879 -69.733 1.90431C-67.4205 42.6838 -17.7408 55.1992 0.749693 55.1992Z"></path>
  <defs>
    <linearGradient id="gradient_0" gradientUnits="userSpaceOnUse" x1="8.5369253" y1="175.39754" x2="0.96320713" y2="-480.78424">
      <stop offset="0" stop-color="#583636"></stop>
      <stop offset="0.015997024" stop-color="#583636"></stop>
      <stop offset="0.98742092" stop-color="#EE1010"></stop>
      <stop offset="1" stop-color="#EE1010"></stop>
    </linearGradient>
  </defs>
  <path fill="url(#gradient_0)" transform="matrix(0.656294 -0.567895 0.119878 0.138539 208.842 107.402)" d="M0 -63.9999C35.6224 -63.9999 64.5 -35.3461 64.5 7.64132e-05C64.5 35.3463 35.6224 64.0001 0 64.0001C-35.6224 64.0001 -64.5 35.3463 -64.5 4.56572e-05C-64.5 -35.3462 -35.6224 -63.9999 0 -63.9999Z"></path>
  <path fill="#6C88D9" transform="matrix(1.79976 0.0293645 -0.0293645 1.79976 225.1 119.338)" d="M0 -29.5C19.0538 -29.5 34.5 -16.1805 34.5 0.250008C34.5 16.6805 19.0538 30 0 30C-19.0538 30 -34.5 16.6805 -34.5 0.250008C-34.5 -16.1805 -19.0538 -29.5 0 -29.5Z"></path>
  <path fill="#91A8EB" transform="matrix(1.50913 0.0246226 -0.0246226 1.50913 265.186 282.036)" d="M0.24998 -81.5196C49.8787 -81.2985 84.5 -60 84.5 -1.90735e-06C84.5 41.1452 46.78 74.5 0.25 74.5C-62.1254 74.5 -84 60.12 -84 -1.90735e-06C-84 -71.2881 -62.1254 -81.5196 0.24998 -81.5196Z"></path>
  <clipPath id="cl_267">
    <path d="M269.28 137.888C336.097 138.978 420.393 176.532 418.631 284.518C417.422 358.569 348.431 420.692 264.688 419.326C152.428 417.494 113.606 387.771 115.371 279.57C117.464 151.268 177.999 136.398 269.28 137.888Z"></path>
  </clipPath>
  <g clip-path="url(#cl_267)">
    <path fill="#A6B8EF" transform="matrix(0.805953 0.0131497 -0.0151654 0.929491 320.845 246.914)" d="M0.24998 -81.5196C49.8787 -81.2985 84.5 -60 84.5 0C84.5 41.1452 67.1354 74.5 20.6054 74.5C-41.77 74.5 -84 60.12 -84 0C-84 -71.2881 -62.1254 -81.5197 0.24998 -81.5196Z"></path>
    <path fill="#C1CBE8" transform="matrix(0.197995 -0.202726 0.445703 0.435301 343.945 198.065)" d="M11.5671 -77.0972C58.097 -77.0972 97.5959 -41.1452 97.5959 -2.05241e-05C97.5959 41.1452 73.4187 83.0524 26.8888 83.0524C-35.4867 83.0524 11.8086 60.12 11.8086 -1.92457e-05C11.8086 -41.1452 -34.9629 -77.0972 11.5671 -77.0972Z"></path>
    <path fill="#C1CBE8" transform="matrix(0.197995 -0.202726 0.184201 0.179903 388.387 262.421)" d="M48.93 -79.7642C80.6763 -79.0529 77.4946 -42.8889 62.8508 4.00565C48.2069 50.9001 -0.0393895 91.2963 -20.4536 67.777C-40.8678 44.2576 -16.8141 31.8032 -0.458961 -5.13881C15.8962 -42.0808 17.1838 -80.4755 48.93 -79.7642Z"></path>
  </g>
  <path fill="#91A8EB" transform="matrix(1.37947 2.85496e-09 -2.85496e-09 1.37947 210.879 346.868)" d="M12.9149 -1.00909C31.1387 -0.766937 44.752 -1.37761 44.5162 50.1155C44.0038 75.5983 36.3287 90.087 25.8124 89.7984C15.2961 89.5097 6.65689 89.5951 -3.6764 89.6553C-14.0565 89.6425 -21.4075 72.8558 -20.8951 47.373C-20.9412 -6.32816 -5.30888 -1.25124 12.9149 -1.00909Z"></path>
  <path fill="#91A8EB" transform="matrix(1.79976 0.0293645 -0.0293645 1.79976 225.1 119.338)" d="M0 -22.5C14.6355 -22.5 26.5 -12.3145 26.5 0.250008C26.5 12.8145 14.6355 23 0 23C-14.6355 23 -26.5 12.8145 -26.5 0.250008C-26.5 -12.3145 -14.6355 -22.5 0 -22.5Z"></path>
  <path fill="#1B2B56" transform="matrix(1.78669 -0.21848 0.065544 0.536007 235.352 98.8508)" d="M-3.66941e-07 -2.5C1.38071 -2.5 2.5 -1.38071 2.5 0C2.5 1.38071 1.38071 2.5 -3.48315e-07 2.5C-1.38071 2.5 -2.5 1.38071 -2.5 0C-2.5 -1.38071 -1.38071 -2.5 -3.66941e-07 -2.5Z"></path>
  <path fill="none" stroke="#1B2B56" stroke-width="0.5" stroke-linecap="round" stroke-linejoin="round" transform="matrix(1.78289 -0.247598 0.247598 1.78289 243.996 97.7392)" d="M1.98548 0.277974L6.02909 0.184236"></path>
  <path fill="#1B2B56" transform="matrix(1.78669 -0.21848 0.065544 0.536007 263.94 95.3551)" d="M-9.62988e-07 -2.5C1.38071 -2.5 2.5 -1.38071 2.5 0C2.5 1.38071 1.38071 2.5 -9.44361e-07 2.5C-1.38071 2.5 -2.5 1.38071 -2.5 0C-2.5 -1.38071 -1.38071 -2.5 -9.62988e-07 -2.5Z"></path>
  <path fill="#354B89" transform="matrix(1.45897 -0.895021 0.934518 0.718834 255.874 88.2305)" d="M7.7039e-06 -2.49998C1.38072 -2.49998 2.50001 -1.3807 2.50001 1.52588e-05C2.50001 1.38073 1.38072 2.50002 7.55489e-06 2.50002C-1.3807 2.50002 -2.49999 1.38073 -2.49999 1.52588e-05C-2.49999 -1.3807 -1.3807 -2.49998 7.7039e-06 -2.49998Z"></path>
  <path fill="#354B89" transform="matrix(2.16453 0.282115 -0.62247 1.07759 240.633 89.2594)" d="M3.8147e-06 -2.98532C1.68306 -2.98532 3.04744 -1.64874 3.04744 1.52588e-05C3.04744 1.64877 1.68306 2.98535 3.8147e-06 2.98535C-1.68305 2.98535 -3.04744 1.64877 -3.04744 1.52588e-05C-3.04744 -1.64874 -1.68305 -2.98532 3.8147e-06 -2.98532Z"></path>
  <clipPath id="cl_26a">
    <path d="M267.571 159.019C342.462 160.574 394.185 193.569 392.708 284.117C391.695 346.21 333.949 395.618 263.729 394.473C169.597 392.937 136.939 370.697 138.42 279.968C140.175 172.385 173.438 157.483 267.571 159.019Z"></path>
  </clipPath>
  <g clip-path="url(#cl_26a)">
    <path fill="#3A6D3D" transform="matrix(0.605664 -0.524085 0.698428 0.807145 163.47 112.282)" d="M74.2157 32.7782L86.5869 31.6617C86.5869 31.6617 73.8823 101.182 67.5039 101.264C67.5039 101.264 49.336 101.463 49.336 101.463C61.2865 101.485 74.2157 32.7782 74.2157 32.7782Z"></path>
  </g>
  <path fill="#9C4040" transform="matrix(0.365938 -0.316649 0.108543 0.125439 150.837 40.3677)" d="M0 -77C42.8021 -77 77.5 -42.5259 77.5 9.23872e-06C77.5 42.5259 42.8021 77 0 77C-42.8021 77 -77.5 42.5259 -77.5 -9.23872e-06C-77.5 -42.5259 -42.8021 -77 0 -77Z"></path>
  <path fill="#C1CBE8" transform="matrix(0.167375 -0.632967 0.886841 0.234507 184.592 116.188)" d="M0 -11.5C14.6355 -11.5 28.0061 -7.98328 28.0061 -1.632C28.0061 4.71927 15.5059 0.400193 0.870357 0.400193C-13.7652 0.400192 -26.766 4.3769 -26.766 -1.97438C-26.766 -8.32565 -14.6355 -11.5 0 -11.5Z"></path>
  <path fill="#611E1E" transform="matrix(0.605664 -0.524085 0.138801 0.160406 208.842 107.402)" d="M0 -77C42.8021 -77 77.5 -42.5259 77.5 0C76.8894 5.3405 70.0211 3.38985 69.8079 -1.63419C68.2223 -39.0047 22.4635 -53.8416 1.14807 -53.8416C-18.1129 -53.8416 -70.7895 -39.8299 -69.4931 2.24309C-69.4637 3.19753 -74.2395 10.5248 -77.5 0C-77.5 -42.5259 -42.8021 -77 0 -77Z"></path>
  <clipPath id="cl_26b">
    <path d="M122.477 64.9079L166.386 143.886L251.048 70.628L179.197 15.8274L122.477 64.9079Z"></path>
  </clipPath>
  <g clip-path="url(#cl_26b)">
    <path fill="#BA4646" transform="matrix(0.439468 -0.380274 0.333216 0.385084 156.312 72.2242)" d="M-67.4615 -84L67.4615 -84L92.3226 83.7695L-67.4615 84L-67.4615 -84Z"></path>
  </g>
  <clipPath id="cl_26c">
    <path d="M142.479 30.7088C158.142 17.1556 174.581 10.493 179.197 15.8274C183.813 21.1618 174.858 36.4733 159.195 50.0265C143.532 63.5797 127.093 70.2423 122.477 64.9079C117.861 59.5735 126.816 44.2621 142.479 30.7088Z"></path>
  </clipPath>
  <g clip-path="url(#cl_26c)">
    <path fill="#BA4646" transform="matrix(0.439468 -0.380274 0.333216 0.385084 156.312 72.2242)" d="M-67.4615 -84L67.4615 -84L92.3226 83.7695L-67.4615 84L-67.4615 -84Z"></path>
  </g>
  <path fill="#993535" transform="matrix(0.605664 -0.524085 0.524085 0.605664 161.903 148.019)" d="M-1.52588e-05 0C-1.52588e-05 0 -1.52588e-05 -13.0609 0 -13.0609C-7.62939e-06 -24.308 35.8327 -33.7055 77.5 -33.393C119.167 -33.0805 155 -24.308 155 -13.0609C155 -13.0609 155 0 155 0C155 -10.5379 119.167 -20.393 77.5 -20.393C35.8327 -20.393 -1.52588e-05 -10.5379 -1.52588e-05 0Z"></path>
  <path fill="#669969" transform="matrix(0.605664 -0.524085 0.644995 0.745395 168.878 118.532)" d="M-0.506058 0.0225983C3.17322 -3.90972 9.28306 -5.30724 18.0792 -2.2478C23.7018 23.1815 52.5776 101.462 67.2296 101.254C62.0975 101.327 59.1898 101.368 46.7011 101.546C36.2156 101.695 2.73151 5.31648 -0.506058 0.0225983Z"></path>
  <path fill="none" stroke="black" stroke-width="7" stroke-linecap="round" stroke-linejoin="round" transform="matrix(2.15345 4.45679e-09 -4.42021e-09 2.13577 150.364 290.535)" d="M23.9874 -25.3587C24.3974 -19.1895 24.4028 -9.58451 20.9991 5.04525C14.1289 33.0492 1.84503 55.1039 -22.3338 47.6605C-37.4837 42.8906 -41.1791 19.2568 -34.3153 -8.72075C-29.4316 -30.9004 -16.1627 -48.575 -2.99199 -56.0704"></path>
  <path fill="#6C88D9" transform="matrix(2.15345 4.45679e-09 -4.42021e-09 2.13577 150.364 290.535)" d="M17.3913 -58.1765C20.1091 -53.2533 24.0899 -37.3953 23.5066 -33.512C22.9233 -29.6287 26.6355 -19.1813 20.9991 5.04525C14.1289 33.0492 1.84503 55.1039 -22.3338 47.6605C-37.4837 42.8906 -41.1791 19.2568 -34.3153 -8.72075C-26.7219 -43.2066 1.14297 -66.8014 17.3913 -58.1765Z"></path>
  <path fill="#91A8EB" transform="matrix(1.67686 3.47045e-09 -4.32784e-09 2.09114 154.354 284.822)" d="M18.112 -51.8983C39.9149 -48.6846 27.6977 -25.1326 19.4481 2.77956C11.0848 30.6034 -6.68584 51.7032 -21.8427 49.2443C-36.9997 46.7854 -42.9073 22.3205 -36.1205 -5.87678C-29.4873 -33.999 -3.69098 -55.112 18.112 -51.8983Z"></path>
  <path fill="none" stroke="white" stroke-width="5" stroke-linecap="round" stroke-linejoin="round" transform="matrix(1.5 0 0 1.5 158.539 362.24)" d=""></path>
</svg>