<?xml version="1.0" encoding="utf-8"?>
<svg xmlns="http://www.w3.org/2000/svg" xmlns:xlink="http://www.w3.org/1999/xlink" width="512" height="512">
  <path fill="none" stroke="black" stroke-width="7" stroke-linejoin="round" transform="matrix(1.8 3.72529e-09 -3.72529e-09 1.8 210.879 409.868)" d="M-0.236309 -46.2882C17.9526 -47.4413 32.8528 -39.55 33.8273 5.60231C33.07 35.5073 23.4497 46.3667 12.9864 45.2734C2.52314 44.1801 -6.09723 43.6035 -16.4048 42.8721C-26.8276 41.9515 -29.8878 31.8588 -29.1826 3.87596C-30.5595 -41.4959 -18.4252 -45.1351 -0.236309 -46.2882Z"></path>
  <path fill="none" stroke="black" stroke-width="7" stroke-linejoin="round" transform="matrix(-2.15345 -3.29802e-07 -3.27096e-07 2.13577 356.109 274.809)" d="M20.0086 -55.9939C22.3933 -50.8982 25.3118 -34.8071 24.4717 -30.9719C23.6318 -27.1367 26.1268 -17.5023 19.9287 6.0521C12.8729 34.0524 3.84153 55.736 -20.6997 49.6158C-36.0823 45.6751 -42.4481 19.8803 -35.3923 -8.11997C-26.5463 -43.2242 4.36975 -65.6969 20.0086 -55.9939Z"></path>
  <path fill="none" stroke="black" stroke-width="7" stroke-linejoin="round" transform="matrix(1.79976 0.0293645 -0.0293645 1.79976 266.403 275.974)" d="M0.209625 -80.0966C37.3348 -80.0966 84.5 -60 84.5 9.53674e-07C84.5 41.1452 46.7396 76.2788 0.209625 76.2788C-62.1658 76.2788 -84 60.12 -84 9.53674e-07C-84 -71.2881 -50.5087 -80.0966 0.209625 -80.0966Z"></path>
  <path fill="none" stroke="black" stroke-width="7" stroke-linejoin="round" transform="matrix(1.53671 3.18039e-09 -3.72529e-09 1.8 308.979 398.168)" d="M-0.566708 -47.8432C17.6568 -48.0691 33.1455 -41.3516 33.798 8.21993C34.4171 22.0653 28.5445 45.8444 14.8663 45.83C1.18808 45.8155 -4.94757 45.8091 -17.1496 45.7962C-29.3516 45.7833 -31.5759 22.8835 -32.1951 9.03804C-33.1956 -42.7201 -18.7902 -47.6173 -0.566708 -47.8432Z"></path>
  <path fill="#6C88D9" transform="matrix(-2.15345 -3.29802e-07 -3.27096e-07 2.13577 356.109 274.809)" d="M20.0086 -55.9939C22.3933 -50.8982 25.3118 -34.8071 24.4717 -30.9719C23.6318 -27.1367 26.1268 -17.5023 19.9287 6.0521C12.8729 34.0524 3.84153 55.736 -20.6997 49.6158C-36.0823 45.6751 -42.4481 19.8803 -35.3923 -8.11997C-26.5463 -43.2242 4.36975 -65.6969 20.0086 -55.9939Z"></path>
  <path fill="#5170C8" transform="matrix(1.53671 3.18039e-09 -3.72529e-09 1.8 308.979 398.168)" d="M-0.566708 -47.8432C17.6568 -48.0691 33.1455 -41.3516 33.798 8.21993C34.4171 22.0653 28.5445 45.8444 14.8663 45.83C1.18808 45.8155 -4.94757 45.8091 -17.1496 45.7962C-29.3516 45.7833 -31.5759 22.8835 -32.1951 9.03804C-33.1956 -42.7201 -18.7902 -47.6173 -0.566708 -47.8432Z"></path>
  <path fill="#839BE0" transform="matrix(1.20328 2.49031e-09 -2.91698e-09 1.40944 308.979 398.168)" d="M-0.507614 -48.3948C17.7159 -48.6207 32.6543 -41.8128 33.5103 12.2492C33.3084 30.1833 24.5816 45.3528 10.9034 45.3384C-2.77488 45.3239 -2.60004 45.3747 -14.802 45.3618C-27.004 45.3489 -32.6847 31.0015 -32.4828 13.0673C-33.6869 -43.1813 -18.7311 -48.1689 -0.507614 -48.3948Z"></path>
  <path fill="#6C88D9" transform="matrix(1.8 3.72529e-09 -3.72529e-09 1.8 210.879 409.868)" d="M-0.236309 -46.2882C17.9526 -47.4413 32.8528 -39.55 33.8273 5.60231C33.07 35.5073 23.4497 46.3667 12.9864 45.2734C2.52314 44.1801 -6.09723 43.6035 -16.4048 42.8721C-26.8276 41.9515 -29.8878 31.8588 -29.1826 3.87596C-30.5595 -41.4959 -18.4252 -45.1351 -0.236309 -46.2882Z"></path>
  <path fill="#91A8EB" transform="matrix(-1.67686 -2.56813e-07 -3.2026e-07 2.09114 352.119 269.096)" d="M21.0774 -49.7789C42.563 -45.4014 28.2483 -22.6989 17.8823 4.68923C7.51635 32.0773 -11.1848 52.3625 -26.1726 49.3089C-41.1603 46.2552 -45.7864 21.2918 -36.9672 -6.54261C-28.1479 -34.377 -0.408215 -54.1564 21.0774 -49.7789Z"></path>
  <path fill="none" stroke="black" stroke-width="7" stroke-miterlimit="4" transform="matrix(1.79976 0.0293645 -0.0293645 1.79976 224.952 113.276)" d="M1.90735e-06 -29.5C19.0538 -29.5 34.5 -16.1805 34.5 0.249992C34.5 16.6805 19.0538 30 1.90735e-06 30C-19.0538 30 -34.5 16.6805 -34.5 0.249992C-34.5 -16.1805 -19.0538 -29.5 1.90735e-06 -29.5Z"></path>
  <path fill="none" stroke="black" stroke-width="7" stroke-linejoin="round" transform="translate(256 256)" d="M-24.8353 -163.333L-18.1222 -170.718C-18.1222 -170.718 22.7378 -107.947 18.9324 -104.537C18.9324 -104.537 18.2925 -103.967 17.3232 -103.103"></path>
  <path fill="none" stroke="black" stroke-width="7" stroke-linejoin="round" transform="translate(256 256)" d="M7.00668 -105.568C1.62355 -120.224 -13.5971 -145.391 -20.8701 -157.057"></path>
  <path fill="none" stroke="black" stroke-width="7" stroke-linejoin="round" transform="translate(256 256)" d="M18.0386 -103.759C15.379 -101.375 13.3606 -99.566 6.51232 -93.4274C0.257759 -87.821 -82.1861 -142.113 -87.5615 -144.362C-87.8694 -149.221 -85.0703 -153.465 -77.7695 -155.794C-57.9623 -139.786 10.0176 -96.5694 18.7574 -104.404C18.5104 -104.182 18.272 -103.968 18.0386 -103.759"></path>
  <path fill="#6C88D9" transform="matrix(1.79976 0.0293645 -0.0293645 1.79976 266.403 275.974)" d="M0.209625 -80.0966C37.3348 -80.0966 84.5 -60 84.5 9.53674e-07C84.5 41.1452 46.7396 76.2788 0.209625 76.2788C-62.1658 76.2788 -84 60.12 -84 9.53674e-07C-84 -71.2881 -50.5087 -80.0966 0.209625 -80.0966Z"></path>
  <path fill="#3A6D3D" transform="matrix(0.605664 -0.524085 0.698428 0.807145 163.322 105.106)" d="M74.2156 32.7782L86.5869 31.6617C86.5869 31.6617 73.8823 101.182 67.5039 101.264C67.5039 101.264 49.336 101.463 49.336 101.463C61.2865 101.485 74.2156 32.7782 74.2156 32.7782Z"></path>
  <path fill="none" stroke="black" stroke-width="7" stroke-miterlimit="4" transform="translate(256 256)" d="M-64.8062 -175.999C-38.8825 -198.431 -13.0821 -211.086 -7.17952 -204.264C-1.2769 -197.443 -17.5072 -173.728 -43.4309 -151.296C-69.3545 -128.864 -95.1549 -116.21 -101.057 -123.031C-106.96 -129.852 -90.7298 -153.567 -64.8062 -175.999Z"></path>
  <path fill="#585555" transform="matrix(0.605664 -0.524085 0.138801 0.160406 201.882 92.3524)" d="M7.62939e-06 -77.0001C42.8021 -77.0001 77.5 -42.526 77.5 -6.10352e-05C77.5 42.5259 42.8021 76.9999 7.62939e-06 76.9999C-42.8021 76.9999 -77.5 42.5259 -77.5 -6.10352e-05C-77.5 -42.526 -42.8021 -77.0001 7.62939e-06 -77.0001Z"></path>
  <path fill="none" stroke="black" stroke-width="7" stroke-linejoin="round" transform="translate(256 256)" d="M-133.671 -198.268L-97.4907 -133.192"></path>
  <path fill="none" stroke="black" stroke-width="7" stroke-linejoin="round" transform="translate(256 256)" d="M-6.48977 -193.608L-76.9505 -247.349L-94.049 -232.553"></path>
  <path fill="none" stroke="black" stroke-width="8" stroke-miterlimit="4" transform="translate(256 256)" d="M-113.668 -232.467C-98.0056 -246.02 -81.5663 -252.683 -76.9505 -247.349C-72.3345 -242.014 -81.2899 -226.703 -96.9528 -213.15C-112.616 -199.596 -129.055 -192.934 -133.671 -198.268C-138.287 -203.602 -129.331 -218.914 -113.668 -232.467Z"></path>
  <path fill="#9C4040" transform="matrix(0.605664 -0.524085 0.524085 0.605664 108.234 53.6808)" d="M9.99828 15.3403L-13.0686 125.78L126.715 125.78L103.648 15.3403L9.99828 15.3403Z"></path>
  <path fill="none" stroke="black" stroke-width="7" stroke-miterlimit="4" transform="translate(256 256)" d="M-57.9931 -168.125C-32.0694 -190.557 -6.26904 -203.212 -0.366417 -196.391C5.53621 -189.569 -10.6941 -165.855 -36.6177 -143.423C-62.5414 -120.991 -88.3418 -108.336 -94.2444 -115.157C-100.147 -121.979 -83.9167 -145.693 -57.9931 -168.125Z"></path>
  <path fill="none" stroke="black" stroke-width="7" stroke-linejoin="round" transform="translate(256 256)" d="M-94.2444 -115.157C-94.2444 -115.157 -101.089 -123.068 -101.089 -123.068C-102.724 -124.957 -102.615 -128.203 -101.063 -132.37"></path>
  <path fill="none" stroke="black" stroke-width="7" stroke-linejoin="round" transform="translate(256 256)" d="M-7.80243 -204.864C-7.58712 -204.695 -7.38993 -204.507 -7.21144 -204.301C-7.21144 -204.301 -1.46113 -197.656 -0.501453 -196.547"></path>
  <path fill="#611E1E" transform="matrix(0.605664 -0.524085 0.138801 0.160406 208.695 100.226)" d="M0.749685 55.1992C17.8705 55.1992 66.8714 46.0031 69.8043 0.434675C69.9644 -2.05384 77.4999 -10.588 77.5 0C77.5 42.5259 42.8021 77 -7.62939e-06 77C-42.8021 77 -77.5 42.5259 -77.5 0C-76.7271 -10.3619 -70.1795 -1.22879 -69.733 1.90431C-67.4205 42.6838 -17.7408 55.1992 0.749685 55.1992Z"></path>
  <defs>
    <linearGradient id="gradient_0" gradientUnits="userSpaceOnUse" x1="8.5369253" y1="175.39754" x2="0.96320713" y2="-480.78424">
      <stop offset="0" stop-color="#583636"></stop>
      <stop offset="0.015997024" stop-color="#583636"></stop>
      <stop offset="0.98742092" stop-color="#EE1010"></stop>
      <stop offset="1" stop-color="#EE1010"></stop>
    </linearGradient>
  </defs>
  <path fill="url(#gradient_0)" transform="matrix(0.656294 -0.567895 0.119878 0.138539 208.695 100.226)" d="M0 -64.0001C35.6224 -64.0001 64.5 -35.3463 64.5 -4.56572e-05C64.5 35.3462 35.6224 63.9999 0 63.9999C-35.6224 63.9999 -64.5 35.3461 -64.5 -7.64132e-05C-64.5 -35.3463 -35.6224 -64.0001 0 -64.0001Z"></path>
  <path fill="#6C88D9" transform="matrix(1.79976 0.0293645 -0.0293645 1.79976 224.952 113.276)" d="M1.90735e-06 -29.5C19.0538 -29.5 34.5 -16.1805 34.5 0.249992C34.5 16.6805 19.0538 30 1.90735e-06 30C-19.0538 30 -34.5 16.6805 -34.5 0.249992C-34.5 -16.1805 -19.0538 -29.5 1.90735e-06 -29.5Z"></path>
  <path fill="#91A8EB" transform="matrix(1.50913 0.0246226 -0.0246226 1.50913 265.039 275.974)" d="M0.249979 -81.5196C49.8787 -81.2985 84.5 -60 84.5 -9.53674e-07C84.5 41.1452 46.78 74.5 0.25 74.5C-62.1254 74.5 -84 60.12 -84 -9.53674e-07C-84 -71.2881 -62.1254 -81.5196 0.249979 -81.5196Z"></path>
  <clipPath id="cl_15">
    <path d="M269.132 131.826C335.949 132.916 420.245 170.47 418.483 278.455C417.275 352.507 348.283 414.63 264.541 413.264C152.28 411.432 113.458 381.709 115.223 273.508C117.317 145.206 177.852 130.336 269.132 131.826Z"></path>
  </clipPath>
  <g clip-path="url(#cl_15)">
    <path fill="#A6B8EF" transform="matrix(0.805953 0.0131497 -0.0151654 0.929491 320.697 240.852)" d="M0.24998 -81.5196C49.8787 -81.2985 84.5 -60 84.5 0C84.5 41.1452 67.1354 74.5 20.6054 74.5C-41.77 74.5 -84 60.12 -84 0C-84 -71.2881 -62.1254 -81.5197 0.24998 -81.5196Z"></path>
    <path fill="#C1CBE8" transform="matrix(0.197995 -0.202726 0.445703 0.435301 343.797 192.003)" d="M11.5671 -77.0972C58.0971 -77.0972 97.5959 -41.1452 97.5959 -1.09873e-05C97.5959 41.1452 73.4188 83.0524 26.8888 83.0524C-35.4866 83.0524 11.8086 60.12 11.8086 -9.70898e-06C11.8086 -41.1452 -34.9629 -77.0972 11.5671 -77.0972Z"></path>
    <path fill="#C1CBE8" transform="matrix(0.197995 -0.202726 0.184201 0.179903 388.239 256.359)" d="M48.93 -79.7643C80.6762 -79.053 77.4946 -42.8889 62.8507 4.00562C48.2069 50.9001 -0.03942 91.2963 -20.4536 67.777C-40.8678 44.2576 -16.8141 31.8032 -0.458991 -5.13884C15.8961 -42.0808 17.1838 -80.4756 48.93 -79.7643Z"></path>
  </g>
  <path fill="#91A8EB" transform="matrix(1.37947 2.85496e-09 -2.85496e-09 1.37947 210.879 346.868)" d="M0.576073 -0.777779C18.765 -1.93085 34.5256 -2.07799 35.8029 50.2758C35.2987 75.685 24.3797 92.0195 13.9165 90.9262C3.45313 89.8329 -5.16725 89.2563 -15.4748 88.5249C-25.8234 87.7171 -29.924 72.9678 -29.4198 47.5586C-31.1299 -4.98507 -17.6128 0.375305 0.576073 -0.777779Z"></path>
  <path fill="#91A8EB" transform="matrix(1.79976 0.0293645 -0.0293645 1.79976 224.952 113.276)" d="M1.90735e-06 -22.5C14.6355 -22.5 26.5 -12.3145 26.5 0.249992C26.5 12.8145 14.6355 23 1.90735e-06 23C-14.6355 23 -26.5 12.8145 -26.5 0.249992C-26.5 -12.3145 -14.6355 -22.5 1.90735e-06 -22.5Z"></path>
  <path fill="#1B2B56" transform="matrix(1.78669 -0.21848 0.065544 0.536007 236.963 90.1515)" d="M1.69501e-07 -2.5C1.38071 -2.5 2.5 -1.38071 2.5 0C2.5 1.38071 1.38071 2.5 1.88127e-07 2.5C-1.38071 2.5 -2.5 1.38071 -2.5 0C-2.5 -1.38071 -1.38071 -2.5 1.69501e-07 -2.5Z"></path>
  <path fill="none" stroke="#1B2B56" stroke-width="0.5" stroke-linecap="round" stroke-linejoin="round" transform="matrix(1.78289 -0.247598 0.247598 1.78289 245.606 89.0399)" d="M1.98548 0.277981L6.02909 0.184244"></path>
  <path fill="#1B2B56" transform="matrix(1.78669 -0.21848 0.065544 0.536007 265.55 86.6558)" d="M-9.31323e-09 -2.50003C1.38071 -2.50003 2.5 -1.38074 2.5 -3.05176e-05C2.5 1.38068 1.38071 2.49997 9.31323e-09 2.49997C-1.38071 2.49997 -2.5 1.38068 -2.5 -3.05176e-05C-2.5 -1.38074 -1.38071 -2.50003 -9.31323e-09 -2.50003Z"></path>
  <path fill="#354B89" transform="matrix(1.45897 -0.895021 0.934518 0.718834 257.484 79.5312)" d="M7.45058e-08 -2.5C1.38071 -2.5 2.5 -1.38071 2.5 0C2.5 1.38071 1.38071 2.5 -7.45058e-08 2.5C-1.38071 2.5 -2.5 1.38071 -2.5 0C-2.5 -1.38071 -1.38071 -2.5 7.45058e-08 -2.5Z"></path>
  <path fill="#354B89" transform="matrix(2.16453 0.282115 -0.62247 1.07759 242.243 80.56)" d="M3.8147e-06 -2.98534C1.68306 -2.98534 3.04744 -1.64876 3.04744 0C3.04744 1.64876 1.68306 2.98534 3.8147e-06 2.98534C-1.68305 2.98534 -3.04744 1.64876 -3.04744 0C-3.04744 -1.64876 -1.68305 -2.98534 3.8147e-06 -2.98534Z"></path>
  <clipPath id="cl_18">
    <path d="M267.423 152.957C342.314 154.512 394.037 187.507 392.56 278.055C391.547 340.148 333.801 389.556 263.582 388.41C169.449 386.875 136.792 364.635 138.272 273.906C140.027 166.323 173.291 151.421 267.423 152.957Z"></path>
  </clipPath>
  <g clip-path="url(#cl_18)">
    <path fill="#3A6D3D" transform="matrix(0.605664 -0.524085 0.698428 0.807145 163.322 105.106)" d="M74.2156 32.7782L86.5869 31.6617C86.5869 31.6617 73.8823 101.182 67.5039 101.264C67.5039 101.264 49.336 101.463 49.336 101.463C61.2865 101.485 74.2156 32.7782 74.2156 32.7782Z"></path>
  </g>
  <path fill="#9C4040" transform="matrix(0.365938 -0.316649 0.108543 0.125439 150.689 33.1917)" d="M0 -77C42.8021 -77 77.5 -42.5259 77.5 9.23872e-06C77.5 42.5259 42.8021 77 0 77C-42.8021 77 -77.5 42.5259 -77.5 -9.23872e-06C-77.5 -42.5259 -42.8021 -77 0 -77Z"></path>
  <path fill="#C1CBE8" transform="matrix(0.167375 -0.632967 0.886841 0.234507 184.445 110.126)" d="M0 -11.5C14.6355 -11.5 28.0061 -7.98328 28.0061 -1.632C28.0061 4.71927 15.5059 0.400193 0.870357 0.400193C-13.7652 0.400192 -26.766 4.3769 -26.766 -1.97438C-26.766 -8.32565 -14.6355 -11.5 0 -11.5Z"></path>
  <path fill="#611E1E" transform="matrix(0.605664 -0.524085 0.138801 0.160406 208.695 100.226)" d="M-7.62939e-06 -77C42.8021 -77 77.5 -42.5259 77.5 0C76.8893 5.3405 70.0211 3.38985 69.8079 -1.63419C68.2223 -39.0047 22.4635 -53.8416 1.14806 -53.8416C-18.1129 -53.8416 -70.7895 -39.8299 -69.4931 2.24309C-69.4637 3.19753 -74.2395 10.5248 -77.5 0C-77.5 -42.5259 -42.8021 -77 -7.62939e-06 -77Z"></path>
  <clipPath id="cl_19">
    <path d="M122.329 57.7319L166.238 136.71L250.9 63.452L179.05 8.65138L122.329 57.7319Z"></path>
  </clipPath>
  <g clip-path="url(#cl_19)">
    <path fill="#BA4646" transform="matrix(0.439468 -0.380274 0.333216 0.385084 156.164 65.0482)" d="M-67.4615 -84L67.4615 -84L92.3226 83.7695L-67.4615 84L-67.4615 -84Z"></path>
  </g>
  <clipPath id="cl_1a">
    <path d="M142.332 23.5329C157.994 9.97963 174.434 3.31699 179.05 8.6514C183.665 13.9858 174.71 29.2973 159.047 42.8505C143.384 56.4037 126.945 63.0663 122.329 57.7319C117.713 52.3975 126.669 37.0861 142.332 23.5329Z"></path>
  </clipPath>
  <g clip-path="url(#cl_1a)">
    <path fill="#BA4646" transform="matrix(0.439468 -0.380274 0.333216 0.385084 156.164 65.0482)" d="M-67.4615 -84L67.4615 -84L92.3226 83.7695L-67.4615 84L-67.4615 -84Z"></path>
  </g>
  <path fill="#993535" transform="matrix(0.605664 -0.524085 0.524085 0.605664 161.756 140.843)" d="M-7.62939e-06 1.52588e-05C-7.62939e-06 1.52588e-05 -7.62939e-06 -13.0609 7.62939e-06 -13.0609C0 -24.308 35.8327 -33.7055 77.5 -33.393C119.167 -33.0805 155 -24.3079 155 -13.0609C155 -13.0609 155 1.52588e-05 155 1.52588e-05C155 -10.5378 119.167 -20.393 77.5 -20.393C35.8327 -20.393 0 -10.5378 -7.62939e-06 1.52588e-05Z"></path>
  <path fill="#669969" transform="matrix(0.605664 -0.524085 0.644995 0.745395 168.73 111.356)" d="M-0.506065 0.0225983C3.17321 -3.90973 9.28305 -5.30724 18.0792 -2.24782C23.7018 23.1815 52.5776 101.462 67.2296 101.254C62.0975 101.327 59.1898 101.368 46.7011 101.546C36.2156 101.695 2.73151 5.31648 -0.506065 0.0225983Z"></path>
  <path fill="none" stroke="black" stroke-width="7" stroke-linecap="round" stroke-linejoin="round" transform="matrix(2.15345 4.45679e-09 -4.42021e-09 2.13577 150.216 284.472)" d="M22.0761 -23.8151C21.8422 -17.562 20.832 -7.8146 15.6099 6.61375C5.33197 33.5054 -10.4802 53.7962 -33.3791 42.9952C-47.7122 36.1225 -47.7742 12.8734 -37.5086 -13.9861C-30.1214 -35.229 -15.1904 -51.1695 -1.41883 -57.1228"></path>
  <path fill="#6C88D9" transform="matrix(2.15345 4.45679e-09 -4.42021e-09 2.13577 150.216 284.472)" d="M19.0383 -56.9467C21.2074 -51.754 23.4492 -35.5529 22.4493 -31.7569C21.4494 -27.9609 24.1124 -16.8781 15.6099 6.61375C5.33197 33.5054 -10.4802 53.7962 -33.3791 42.9952C-47.7122 36.1225 -47.7742 12.8734 -37.5086 -13.9861C-25.9996 -47.0816 3.81981 -67.3069 19.0383 -56.9467Z"></path>
  <path fill="#91A8EB" transform="matrix(1.67686 3.47045e-09 -4.32784e-09 2.09114 154.206 278.759)" d="M19.5869 -50.832C40.8227 -45.7307 25.7362 -23.1213 13.3852 3.91672C0.758259 30.6781 -21.1646 49.6868 -35.7389 45.5415C-50.3132 41.3962 -51.5075 17.0575 -40.386 -10.2321C-29.7228 -37.3569 -1.64895 -55.9333 19.5869 -50.832Z"></path>
  <path fill="none" stroke="white" stroke-width="5" stroke-linecap="round" stroke-linejoin="round" transform="matrix(1.5 0 0 1.5 158.539 362.24)" d=""></path>
</svg>