<?xml version="1.0" encoding="utf-8"?>
<svg xmlns="http://www.w3.org/2000/svg" xmlns:xlink="http://www.w3.org/1999/xlink" width="512" height="512">
  <path fill="none" stroke="black" stroke-width="7" stroke-linejoin="round" transform="matrix(1.8 3.72529e-09 -3.72529e-09 1.8 210.879 409.868)" d="M27.7476 -46.9137C45.9705 -46.6071 58.4746 -39.1396 58.049 5.1479C58.2116 34.1649 50.8094 44.1432 40.2942 43.8173C29.779 43.4914 21.1395 43.5463 10.806 43.5699C0.343882 43.4133 -4.97577 32.2443 -5.13794 3.21427C-4.98659 -43.2821 9.52481 -47.2204 27.7476 -46.9137Z"></path>
  <path fill="none" stroke="black" stroke-width="7" stroke-linejoin="round" transform="matrix(-2.15345 -3.29802e-07 -3.27096e-07 2.13577 356.487 290.309)" d="M19.243 -57.4402C22.1615 -52.6353 26.7931 -36.9581 26.3705 -33.0536C25.9479 -29.1492 29.4642 -19.8444 25.8355 4.24873C21.8322 32.8553 15.1858 55.3983 -9.8688 51.9971C-25.5845 49.7612 -34.6866 24.8144 -30.6833 -3.79211C-25.6643 -39.6565 2.65294 -65.3763 19.243 -57.4402Z"></path>
  <path fill="none" stroke="black" stroke-width="7" stroke-linejoin="round" transform="matrix(1.79976 0.0293645 -0.0293645 1.79976 266.781 291.475)" d="M0.209625 -80.0966C37.3348 -80.0966 84.5 -60 84.5 0C84.5 41.1452 46.7396 76.2788 0.209625 76.2788C-62.1658 76.2788 -84 60.12 -84 0C-84 -71.2881 -50.5087 -80.0966 0.209625 -80.0966Z"></path>
  <path fill="none" stroke="black" stroke-width="7" stroke-linejoin="round" transform="matrix(1.53671 3.18039e-09 -3.72529e-09 1.8 308.979 398.168)" d="M-33.9091 -46.7875C-16.8014 -52.1526 12.6064 -43.2374 19.0991 7.4161C16.0919 24.774 -5.05836 50.9358 -17.5087 46.1002C-29.9591 41.2646 -35.5439 39.0955 -46.6506 34.7817C-57.7573 30.468 -44.8399 14.7551 -42.1291 5.95197C-49.5177 -38.3207 -51.0167 -41.4223 -33.9091 -46.7875Z"></path>
  <path fill="#6C88D9" transform="matrix(-2.15345 -3.29802e-07 -3.27096e-07 2.13577 356.487 290.309)" d="M19.243 -57.4402C22.1615 -52.6353 26.7931 -36.9581 26.3705 -33.0536C25.9479 -29.1492 29.4642 -19.8444 25.8355 4.24873C21.8322 32.8553 15.1858 55.3983 -9.8688 51.9971C-25.5845 49.7612 -34.6866 24.8144 -30.6833 -3.79211C-25.6643 -39.6565 2.65294 -65.3763 19.243 -57.4402Z"></path>
  <path fill="#5170C8" transform="matrix(1.53671 3.18039e-09 -3.72529e-09 1.8 308.979 398.168)" d="M-33.9091 -46.7875C-16.8014 -52.1526 12.6064 -43.2374 19.0991 7.4161C16.0919 24.774 -5.05836 50.9358 -17.5087 46.1002C-29.9591 41.2646 -35.5439 39.0955 -46.6506 34.7817C-57.7573 30.468 -44.8399 14.7551 -42.1291 5.95197C-49.5177 -38.3207 -51.0167 -41.4223 -33.9091 -46.7875Z"></path>
  <path fill="#839BE0" transform="matrix(1.20328 2.49031e-09 -2.91698e-09 1.40944 308.979 398.168)" d="M-38.1731 -47.8246C-21.0654 -53.1897 8.4733 -44.0458 15.3598 10.77C10.3024 31.7456 -10.8901 48.847 -23.3405 44.0113C-35.7908 39.1758 -35.6562 39.2836 -46.7628 34.9698C-57.8696 30.6561 -50.6293 21.7267 -45.8684 9.30585C-53.6509 -39.1292 -55.2807 -42.4594 -38.1731 -47.8246Z"></path>
  <path fill="#6C88D9" transform="matrix(1.8 3.72529e-09 -3.72529e-09 1.8 210.879 409.868)" d="M27.7476 -46.9137C45.9705 -46.6071 58.4746 -39.1396 58.049 5.1479C58.2116 34.1649 50.8094 44.1432 40.2942 43.8173C29.779 43.4914 21.1395 43.5463 10.806 43.5699C0.343882 43.4133 -4.97577 32.2443 -5.13794 3.21427C-4.98659 -43.2821 9.52481 -47.2204 27.7476 -46.9137Z"></path>
  <path fill="#91A8EB" transform="matrix(-1.67686 -2.56813e-07 -3.2026e-07 2.09114 352.497 284.596)" d="M20.7399 -51.0891C42.6907 -48.6054 31.5299 -24.7922 24.9282 3.33576C18.3264 31.4636 2.47832 53.2552 -12.834 51.5226C-28.1463 49.7901 -36.1204 25.376 -31.1166 -3.06109C-26.1127 -31.4982 -1.21093 -53.5728 20.7399 -51.0891Z"></path>
  <path fill="none" stroke="black" stroke-width="7" stroke-miterlimit="4" transform="matrix(1.79976 0.0293645 -0.0293645 1.79976 225.33 128.777)" d="M0 -29.5C19.0538 -29.5 34.5 -16.1805 34.5 0.250008C34.5 16.6805 19.0538 30 0 30C-19.0538 30 -34.5 16.6805 -34.5 0.250008C-34.5 -16.1805 -19.0538 -29.5 0 -29.5Z"></path>
  <path fill="none" stroke="black" stroke-width="7" stroke-linejoin="round" transform="translate(256 256)" d="M-24.4573 -146.046L-17.7442 -153.431C-17.7442 -153.431 23.1158 -90.6598 19.3104 -87.2503C19.3104 -87.2503 18.6704 -86.6801 17.7012 -85.8164"></path>
  <path fill="none" stroke="black" stroke-width="7" stroke-linejoin="round" transform="translate(256 256)" d="M7.38463 -88.2812C2.0015 -102.937 -13.2191 -128.104 -20.4922 -139.77"></path>
  <path fill="none" stroke="black" stroke-width="7" stroke-linejoin="round" transform="translate(256 256)" d="M18.4165 -86.4724C15.757 -84.0885 13.7386 -82.2792 6.89027 -76.1406C0.635712 -70.5342 -81.8081 -124.826 -87.1835 -127.075C-87.4914 -131.934 -84.6923 -136.178 -77.3915 -138.508C-57.5843 -122.5 10.3955 -79.2826 19.1354 -87.1168C18.8884 -86.8953 18.65 -86.6817 18.4165 -86.4724"></path>
  <path fill="#6C88D9" transform="matrix(1.79976 0.0293645 -0.0293645 1.79976 266.781 291.475)" d="M0.209625 -80.0966C37.3348 -80.0966 84.5 -60 84.5 0C84.5 41.1452 46.7396 76.2788 0.209625 76.2788C-62.1658 76.2788 -84 60.12 -84 0C-84 -71.2881 -50.5087 -80.0966 0.209625 -80.0966Z"></path>
  <path fill="#3A6D3D" transform="matrix(0.605664 -0.524085 0.698428 0.807145 163.7 122.392)" d="M74.2156 32.7782L86.5869 31.6617C86.5869 31.6617 73.8823 101.182 67.5039 101.264C67.5039 101.264 49.336 101.463 49.336 101.463C61.2865 101.485 74.2156 32.7782 74.2156 32.7782Z"></path>
  <path fill="none" stroke="black" stroke-width="7" stroke-miterlimit="4" transform="translate(256 256)" d="M-64.4282 -158.712C-38.5045 -181.144 -12.7042 -193.799 -6.80157 -186.977C-0.898949 -180.156 -17.1292 -156.441 -43.0529 -134.009C-68.9766 -111.578 -94.7769 -98.9228 -100.68 -105.744C-106.582 -112.566 -90.3519 -136.28 -64.4282 -158.712Z"></path>
  <path fill="#585555" transform="matrix(0.605664 -0.524085 0.138801 0.160406 202.259 109.639)" d="M0 -77C42.8021 -77 77.5 -42.5259 77.5 0C77.5 42.5259 42.8021 77 0 77C-42.8021 77 -77.5 42.5259 -77.5 0C-77.5 -42.5259 -42.8021 -77 0 -77Z"></path>
  <path fill="none" stroke="black" stroke-width="7" stroke-linejoin="round" transform="translate(256 256)" d="M-133.293 -180.981L-97.1128 -115.905"></path>
  <path fill="none" stroke="black" stroke-width="7" stroke-linejoin="round" transform="translate(256 256)" d="M-6.11181 -176.321L-76.5725 -230.062L-93.6711 -215.266"></path>
  <path fill="none" stroke="black" stroke-width="8" stroke-miterlimit="4" transform="translate(256 256)" d="M-113.291 -215.18C-97.6276 -228.734 -81.1884 -235.396 -76.5725 -230.062C-71.9566 -224.727 -80.912 -209.416 -96.5749 -195.863C-112.238 -182.309 -128.677 -175.647 -133.293 -180.981C-137.909 -186.316 -128.953 -201.627 -113.291 -215.18Z"></path>
  <path fill="#9C4040" transform="matrix(0.605664 -0.524085 0.524085 0.605664 108.612 70.9676)" d="M9.99828 15.3403L-13.0686 125.78L126.715 125.78L103.648 15.3403L9.99828 15.3403Z"></path>
  <path fill="none" stroke="black" stroke-width="7" stroke-miterlimit="4" transform="translate(256 256)" d="M-57.6151 -150.838C-31.6914 -173.27 -5.89109 -185.925 0.0115318 -179.104C5.91416 -172.282 -10.3161 -148.568 -36.2398 -126.136C-62.1635 -103.704 -87.9638 -91.0491 -93.8664 -97.8705C-99.7691 -104.692 -83.5388 -128.406 -57.6151 -150.838Z"></path>
  <path fill="none" stroke="black" stroke-width="7" stroke-linejoin="round" transform="translate(256 256)" d="M-93.8664 -97.8705C-93.8664 -97.8705 -100.711 -105.781 -100.711 -105.781C-102.346 -107.67 -102.237 -110.916 -100.685 -115.083"></path>
  <path fill="none" stroke="black" stroke-width="7" stroke-linejoin="round" transform="translate(256 256)" d="M-7.42448 -187.578C-7.20917 -187.408 -7.01198 -187.221 -6.83349 -187.014C-6.83349 -187.014 -1.08319 -180.369 -0.123504 -179.26"></path>
  <path fill="#611E1E" transform="matrix(0.605664 -0.524085 0.138801 0.160406 209.073 117.513)" d="M0.749693 55.1992C17.8705 55.1992 66.8714 46.0031 69.8043 0.434675C69.9644 -2.05384 77.4999 -10.588 77.5 0C77.5 42.5259 42.8021 77 0 77C-42.8021 77 -77.5 42.5259 -77.5 0C-76.7271 -10.3619 -70.1795 -1.22879 -69.733 1.90431C-67.4205 42.6838 -17.7408 55.1992 0.749693 55.1992Z"></path>
  <defs>
    <linearGradient id="gradient_0" gradientUnits="userSpaceOnUse" x1="8.5369253" y1="175.39754" x2="0.96320713" y2="-480.78424">
      <stop offset="0" stop-color="#583636"></stop>
      <stop offset="0.015997024" stop-color="#583636"></stop>
      <stop offset="0.98742092" stop-color="#EE1010"></stop>
      <stop offset="1" stop-color="#EE1010"></stop>
    </linearGradient>
  </defs>
  <path fill="url(#gradient_0)" transform="matrix(0.656294 -0.567895 0.119878 0.138539 209.073 117.513)" d="M0 -64C35.6224 -64 64.5 -35.3462 64.5 1.5378e-05C64.5 35.3462 35.6224 64 0 64C-35.6224 64 -64.5 35.3462 -64.5 -1.5378e-05C-64.5 -35.3462 -35.6224 -64 0 -64Z"></path>
  <path fill="#6C88D9" transform="matrix(1.79976 0.0293645 -0.0293645 1.79976 225.33 128.777)" d="M0 -29.5C19.0538 -29.5 34.5 -16.1805 34.5 0.250008C34.5 16.6805 19.0538 30 0 30C-19.0538 30 -34.5 16.6805 -34.5 0.250008C-34.5 -16.1805 -19.0538 -29.5 0 -29.5Z"></path>
  <path fill="#91A8EB" transform="matrix(1.50913 0.0246226 -0.0246226 1.50913 265.417 291.475)" d="M0.24998 -81.5196C49.8787 -81.2985 84.5 -60 84.5 0C84.5 41.1452 46.78 74.5 0.25 74.5C-62.1254 74.5 -84 60.12 -84 0C-84 -71.2881 -62.1254 -81.5196 0.24998 -81.5196Z"></path>
  <clipPath id="cl_219">
    <path d="M269.51 147.326C336.327 148.417 420.623 185.971 418.861 293.956C417.653 368.008 348.661 430.131 264.918 428.765C152.658 426.933 113.836 397.21 115.601 289.008C117.695 160.707 178.23 145.837 269.51 147.326Z"></path>
  </clipPath>
  <g clip-path="url(#cl_219)">
    <path fill="#A6B8EF" transform="matrix(0.805953 0.0131497 -0.0151654 0.929491 321.075 256.353)" d="M0.24998 -81.5196C49.8787 -81.2985 84.5 -60 84.5 1.19209e-07C84.5 41.1452 67.1354 74.5 20.6054 74.5C-41.77 74.5 -84 60.12 -84 1.19209e-07C-84 -71.2881 -62.1254 -81.5197 0.24998 -81.5196Z"></path>
    <path fill="#C1CBE8" transform="matrix(0.197995 -0.202726 0.445703 0.435301 344.175 207.504)" d="M11.5671 -77.0972C58.0971 -77.0972 97.5959 -41.1452 97.5959 -2.05241e-05C97.5959 41.1452 73.4188 83.0524 26.8888 83.0524C-35.4866 83.0524 11.8086 60.12 11.8086 -1.92457e-05C11.8086 -41.1452 -34.9629 -77.0972 11.5671 -77.0972Z"></path>
    <path fill="#C1CBE8" transform="matrix(0.197995 -0.202726 0.184201 0.179903 388.617 271.86)" d="M48.93 -79.7643C80.6763 -79.053 77.4946 -42.8889 62.8508 4.00562C48.2069 50.9001 -0.0393895 91.2963 -20.4536 67.777C-40.8678 44.2576 -16.8141 31.8032 -0.458961 -5.13884C15.8962 -42.0808 17.1838 -80.4756 48.93 -79.7643Z"></path>
  </g>
  <path fill="#91A8EB" transform="matrix(1.37947 2.85496e-09 -2.85496e-09 1.37947 210.879 346.868)" d="M35.9713 -1.56798C54.1941 -1.26135 67.8094 -1.82396 67.3915 49.668C66.789 75.1489 59.0626 89.6103 48.5474 89.2844C38.0322 88.9586 29.3927 89.0134 19.0593 89.0371C8.67931 88.9874 1.38769 72.175 1.99029 46.6941C2.13417 -7.00693 17.7485 -1.87464 35.9713 -1.56798Z"></path>
  <path fill="#91A8EB" transform="matrix(1.79976 0.0293645 -0.0293645 1.79976 225.33 128.777)" d="M0 -22.5C14.6355 -22.5 26.5 -12.3145 26.5 0.250008C26.5 12.8145 14.6355 23 0 23C-14.6355 23 -26.5 12.8145 -26.5 0.250008C-26.5 -12.3145 -14.6355 -22.5 0 -22.5Z"></path>
  <path fill="#1B2B56" transform="matrix(1.78669 -0.21848 0.065544 0.536007 234.494 109.922)" d="M-9.62988e-07 -2.50003C1.38071 -2.50003 2.5 -1.38074 2.5 -3.05176e-05C2.5 1.38068 1.38071 2.49997 -9.44361e-07 2.49997C-1.38071 2.49997 -2.5 1.38068 -2.5 -3.05176e-05C-2.5 -1.38074 -1.38071 -2.50003 -9.62988e-07 -2.50003Z"></path>
  <path fill="none" stroke="#1B2B56" stroke-width="0.5" stroke-linecap="round" stroke-linejoin="round" transform="matrix(1.78289 -0.247598 0.247598 1.78289 243.138 108.811)" d="M1.98548 0.277974L6.02909 0.184236"></path>
  <path fill="#1B2B56" transform="matrix(1.78669 -0.21848 0.065544 0.536007 263.081 106.426)" d="M-9.62988e-07 -2.50003C1.38071 -2.50003 2.5 -1.38074 2.5 -3.05176e-05C2.5 1.38068 1.38071 2.49997 -9.44361e-07 2.49997C-1.38071 2.49997 -2.5 1.38068 -2.5 -3.05176e-05C-2.5 -1.38074 -1.38071 -2.50003 -9.62988e-07 -2.50003Z"></path>
  <path fill="#354B89" transform="matrix(1.45897 -0.895021 0.934518 0.718834 255.016 99.3018)" d="M7.45058e-08 -2.49999C1.38071 -2.49999 2.5 -1.3807 2.5 7.62939e-06C2.5 1.38072 1.38071 2.50001 -7.45058e-08 2.50001C-1.38071 2.50001 -2.5 1.38072 -2.5 7.62939e-06C-2.5 -1.3807 -1.38071 -2.49999 7.45058e-08 -2.49999Z"></path>
  <path fill="#354B89" transform="matrix(2.16453 0.282115 -0.62247 1.07759 239.775 100.331)" d="M3.8147e-06 -2.98531C1.68306 -2.98531 3.04744 -1.64873 3.04744 3.05176e-05C3.04744 1.64879 1.68306 2.98537 3.8147e-06 2.98537C-1.68305 2.98537 -3.04744 1.64879 -3.04744 3.05176e-05C-3.04744 -1.64873 -1.68305 -2.98531 3.8147e-06 -2.98531Z"></path>
  <clipPath id="cl_21c">
    <path d="M267.801 168.458C342.692 170.013 394.415 203.008 392.938 293.556C391.925 355.649 334.179 405.057 263.96 403.911C169.827 402.375 137.169 380.136 138.65 289.407C140.405 181.824 173.669 166.922 267.801 168.458Z"></path>
  </clipPath>
  <g clip-path="url(#cl_21c)">
    <path fill="#3A6D3D" transform="matrix(0.605664 -0.524085 0.698428 0.807145 163.7 122.392)" d="M74.2156 32.7782L86.5869 31.6617C86.5869 31.6617 73.8823 101.182 67.5039 101.264C67.5039 101.264 49.336 101.463 49.336 101.463C61.2865 101.485 74.2156 32.7782 74.2156 32.7782Z"></path>
  </g>
  <path fill="#9C4040" transform="matrix(0.365938 -0.316649 0.108543 0.125439 151.067 50.4785)" d="M1.52588e-05 -77C42.8021 -77 77.5 -42.5259 77.5 9.23872e-06C77.5 42.5259 42.8021 77 1.52588e-05 77C-42.8021 77 -77.5 42.5259 -77.5 -9.23872e-06C-77.5 -42.5259 -42.8021 -77 1.52588e-05 -77Z"></path>
  <path fill="#C1CBE8" transform="matrix(0.167375 -0.632967 0.886841 0.234507 184.822 125.627)" d="M0 -11.5C14.6355 -11.5 28.0061 -7.98328 28.0061 -1.63201C28.0061 4.71927 15.5059 0.400186 0.870357 0.400186C-13.7652 0.400184 -26.766 4.37689 -26.766 -1.97439C-26.766 -8.32566 -14.6355 -11.5 0 -11.5Z"></path>
  <path fill="#611E1E" transform="matrix(0.605664 -0.524085 0.138801 0.160406 209.073 117.513)" d="M0 -77C42.8021 -77 77.5 -42.5259 77.5 0C76.8894 5.3405 70.0211 3.38985 69.8079 -1.63419C68.2223 -39.0047 22.4635 -53.8416 1.14807 -53.8416C-18.1129 -53.8416 -70.7895 -39.8299 -69.4931 2.24309C-69.4637 3.19753 -74.2395 10.5248 -77.5 0C-77.5 -42.5259 -42.8021 -77 0 -77Z"></path>
  <clipPath id="cl_21d">
    <path d="M122.707 75.0187L166.616 153.997L251.278 80.7388L179.428 25.9382L122.707 75.0187Z"></path>
  </clipPath>
  <g clip-path="url(#cl_21d)">
    <path fill="#BA4646" transform="matrix(0.439468 -0.380274 0.333216 0.385084 156.542 82.335)" d="M-67.4615 -84L67.4615 -84L92.3226 83.7694L-67.4615 84L-67.4615 -84Z"></path>
  </g>
  <clipPath id="cl_21e">
    <path d="M142.709 40.8197C158.372 27.2664 174.812 20.6038 179.428 25.9382C184.043 31.2726 175.088 46.5841 159.425 60.1373C143.762 73.6905 127.323 80.3531 122.707 75.0187C118.091 69.6843 127.047 54.3729 142.709 40.8197Z"></path>
  </clipPath>
  <g clip-path="url(#cl_21e)">
    <path fill="#BA4646" transform="matrix(0.439468 -0.380274 0.333216 0.385084 156.542 82.335)" d="M-67.4615 -84L67.4615 -84L92.3226 83.7694L-67.4615 84L-67.4615 -84Z"></path>
  </g>
  <path fill="#993535" transform="matrix(0.605664 -0.524085 0.524085 0.605664 162.134 158.129)" d="M-1.52588e-05 1.52588e-05C-1.52588e-05 1.52588e-05 -1.52588e-05 -13.0609 7.62939e-06 -13.0609C7.62939e-06 -24.3079 35.8327 -33.7055 77.5 -33.393C119.167 -33.0805 155 -24.3079 155 -13.0609C155 -13.0609 155 1.52588e-05 155 1.52588e-05C155 -10.5378 119.167 -20.393 77.5 -20.393C35.8327 -20.393 -7.62939e-06 -10.5378 -1.52588e-05 1.52588e-05Z"></path>
  <path fill="#669969" transform="matrix(0.605664 -0.524085 0.644995 0.745395 169.108 128.643)" d="M-0.506058 0.0225983C3.17321 -3.90973 9.28305 -5.30724 18.0792 -2.24781C23.7018 23.1815 52.5776 101.462 67.2296 101.254C62.0975 101.327 59.1898 101.368 46.7011 101.546C36.2156 101.695 2.7315 5.31647 -0.506058 0.0225983Z"></path>
  <path fill="none" stroke="black" stroke-width="7" stroke-linecap="round" stroke-linejoin="round" transform="matrix(2.15345 4.45679e-09 -4.42021e-09 2.13577 150.594 299.973)" d="M27.0006 -29.0208C28.5087 -23.2971 30.3086 -14.3519 30.4003 0.040987C30.7884 28.9287 27.1701 52.4101 1.89093 52.6905C-13.9803 52.765 -26.2828 29.7086 -26.6708 0.824913C-27.0654 -22.5417 -17.2975 -43.2792 -5.57185 -53.6064"></path>
  <path fill="#6C88D9" transform="matrix(2.15345 4.45679e-09 -4.42021e-09 2.13577 150.594 299.973)" d="M13.9981 -59.9604C17.65 -55.6955 24.739 -40.9817 24.9491 -37.0599C25.1593 -33.138 30.2446 -24.4088 30.4003 0.040987C30.7884 28.9287 27.1701 52.4101 1.89093 52.6905C-13.9803 52.765 -26.2828 29.7086 -26.6708 0.824913C-27.2803 -35.2644 -3.64776 -65.0823 13.9981 -59.9604Z"></path>
  <path fill="#91A8EB" transform="matrix(1.67686 3.47045e-09 -4.32784e-09 2.09114 154.584 294.26)" d="M15.0041 -53.5201C37.1667 -53.9204 29.9835 -29.4165 30.0067 -1.12435C30.6876 27.4662 23.3924 50.9138 8.0181 52.2469C-7.35625 53.5801 -24.1144 30.3967 -26.4367 1.76446C-28.1622 -27.3636 -7.1585 -53.1199 15.0041 -53.5201Z"></path>
  <path fill="none" stroke="white" stroke-width="5" stroke-linecap="round" stroke-linejoin="round" transform="matrix(1.5 0 0 1.5 158.539 362.24)" d=""></path>
</svg>