<?xml version="1.0" encoding="utf-8"?>
<svg xmlns="http://www.w3.org/2000/svg" xmlns:xlink="http://www.w3.org/1999/xlink" width="512" height="512">
  <path fill="none" stroke="black" stroke-width="7" stroke-linejoin="round" transform="matrix(1.8 3.72529e-09 -3.72529e-09 1.8 210.879 409.868)" d="M49.2872 -47.4338C67.5084 -47.0461 79.9793 -39.5231 79.3569 4.76202C79.3904 33.7795 71.944 43.7247 61.4303 43.3521C50.9166 42.9796 42.277 42.996 31.9435 42.9737C21.4822 42.7706 16.2123 31.5781 16.1792 2.5476C16.5371 -43.9476 31.0659 -47.8214 49.2872 -47.4338Z"></path>
  <path fill="none" stroke="black" stroke-width="7" stroke-linejoin="round" transform="matrix(-2.15345 -3.29802e-07 -3.27096e-07 2.13577 356.138 276.012)" d="M18.5285 -58.5217C21.8459 -53.9876 27.7973 -38.7699 27.7092 -34.8433C27.6211 -30.9167 31.9179 -21.9512 30.3572 2.36729C28.8082 31.2149 24.1088 54.2507 -1.1431 53.0341C-16.9912 52.169 -28.187 28.1037 -26.638 -0.743968C-24.696 -36.9106 1.32309 -64.9902 18.5285 -58.5217Z"></path>
  <path fill="none" stroke="black" stroke-width="7" stroke-linejoin="round" transform="matrix(1.79976 0.0293645 -0.0293645 1.79976 266.432 277.178)" d="M0.209624 -80.0966C37.3348 -80.0966 84.5 -60 84.5 0C84.5 41.1452 46.7396 76.2788 0.209624 76.2788C-62.1658 76.2788 -84 60.12 -84 0C-84 -71.2881 -50.5087 -80.0966 0.209624 -80.0966Z"></path>
  <path fill="none" stroke="black" stroke-width="7" stroke-linejoin="round" transform="matrix(1.53671 3.18039e-09 -3.72529e-09 1.8 308.979 398.168)" d="M-49.8317 -46.7989C-31.6064 -46.8276 -16.2188 -39.943 -16.3023 9.63161C-15.8888 23.4826 -22.114 47.1962 -35.7909 47.0337C-49.4678 46.8713 -55.6028 46.7984 -67.8037 46.6535C-80.0045 46.5086 -81.8887 23.5865 -82.3022 9.73553C-82.5343 -42.0293 -68.0571 -46.7702 -49.8317 -46.7989Z"></path>
  <path fill="#6C88D9" transform="matrix(-2.15345 -3.29802e-07 -3.27096e-07 2.13577 356.138 276.012)" d="M18.5285 -58.5217C21.8459 -53.9876 27.7973 -38.7699 27.7092 -34.8433C27.6211 -30.9167 31.9179 -21.9512 30.3572 2.36729C28.8082 31.2149 24.1088 54.2507 -1.1431 53.0341C-16.9912 52.169 -28.187 28.1037 -26.638 -0.743968C-24.696 -36.9106 1.32309 -64.9902 18.5285 -58.5217Z"></path>
  <path fill="#5170C8" transform="matrix(1.53671 3.18039e-09 -3.72529e-09 1.8 308.979 398.168)" d="M-49.8317 -46.7989C-31.6064 -46.8276 -16.2188 -39.943 -16.3023 9.63161C-15.8888 23.4826 -22.114 47.1962 -35.7909 47.0337C-49.4678 46.8713 -55.6028 46.7984 -67.8037 46.6535C-80.0045 46.5086 -81.8887 23.5865 -82.3022 9.73553C-82.5343 -42.0293 -68.0571 -46.7702 -49.8317 -46.7989Z"></path>
  <path fill="#839BE0" transform="matrix(1.20328 2.49031e-09 -2.91698e-09 1.40944 308.979 398.168)" d="M-63.613 -47.0598C-45.3877 -47.0885 -30.5516 -40.1194 -30.4984 13.9475C-30.9666 31.8779 -39.9178 46.9518 -53.5947 46.7893C-67.2716 46.6269 -67.0975 46.6795 -79.2984 46.5346C-91.4992 46.3897 -96.9665 31.9818 -96.4982 14.0514C-96.8672 -42.2058 -81.8384 -47.0311 -63.613 -47.0598Z"></path>
  <path fill="#6C88D9" transform="matrix(1.8 3.72529e-09 -3.72529e-09 1.8 210.879 409.868)" d="M49.2872 -47.4338C67.5084 -47.0461 79.9793 -39.5231 79.3569 4.76202C79.3904 33.7795 71.944 43.7247 61.4303 43.3521C50.9166 42.9796 42.277 42.996 31.9435 42.9737C21.4822 42.7706 16.2123 31.5781 16.1792 2.5476C16.5371 -43.9476 31.0659 -47.8214 49.2872 -47.4338Z"></path>
  <path fill="#91A8EB" transform="matrix(-1.67686 -2.56813e-07 -3.2026e-07 2.09114 352.148 270.299)" d="M20.3477 -52.1017C42.4836 -51.1407 33.9174 -26.6462 30.3562 1.83276C26.7949 30.3117 13.342 53.1152 -2.09938 52.4448C-17.5407 51.7744 -28.1031 28.0006 -26.167 -0.676218C-24.2308 -29.353 -1.78812 -53.0627 20.3477 -52.1017Z"></path>
  <path fill="none" stroke="black" stroke-width="7" stroke-miterlimit="4" transform="matrix(1.79976 0.0293645 -0.0293645 1.79976 224.981 114.48)" d="M0 -29.5C19.0538 -29.5 34.5 -16.1805 34.5 0.25C34.5 16.6805 19.0538 30 0 30C-19.0538 30 -34.5 16.6805 -34.5 0.25C-34.5 -16.1805 -19.0538 -29.5 0 -29.5Z"></path>
  <path fill="none" stroke="black" stroke-width="7" stroke-linejoin="round" transform="translate(256 256)" d="M-24.8059 -161.568L-18.0928 -168.953C-18.0928 -168.953 22.7672 -106.182 18.9618 -102.772C18.9618 -102.772 18.3218 -102.202 17.3526 -101.338"></path>
  <path fill="none" stroke="black" stroke-width="7" stroke-linejoin="round" transform="translate(256 256)" d="M7.03603 -103.803C1.6529 -118.459 -13.5677 -143.626 -20.8408 -155.292"></path>
  <path fill="none" stroke="black" stroke-width="7" stroke-linejoin="round" transform="translate(256 256)" d="M18.0679 -101.995C15.4084 -99.6106 13.39 -97.8013 6.54167 -91.6627C0.287109 -86.0563 -82.1567 -140.348 -87.5321 -142.597C-87.84 -147.457 -85.0409 -151.7 -77.7401 -154.03C-57.9329 -138.022 10.0469 -94.8047 18.7868 -102.639C18.5398 -102.417 18.3014 -102.204 18.0679 -101.995"></path>
  <path fill="#6C88D9" transform="matrix(1.79976 0.0293645 -0.0293645 1.79976 266.432 277.178)" d="M0.209624 -80.0966C37.3348 -80.0966 84.5 -60 84.5 0C84.5 41.1452 46.7396 76.2788 0.209624 76.2788C-62.1658 76.2788 -84 60.12 -84 0C-84 -71.2881 -50.5087 -80.0966 0.209624 -80.0966Z"></path>
  <path fill="#3A6D3D" transform="matrix(0.605664 -0.524085 0.698428 0.807145 163.351 106.87)" d="M74.2156 32.7782L86.5869 31.6617C86.5869 31.6617 73.8823 101.182 67.5039 101.265C67.5039 101.265 49.336 101.463 49.336 101.463C61.2865 101.485 74.2156 32.7782 74.2156 32.7782Z"></path>
  <path fill="none" stroke="black" stroke-width="7" stroke-miterlimit="4" transform="translate(256 256)" d="M-64.7768 -174.234C-38.8531 -196.666 -13.0528 -209.321 -7.15018 -202.499C-1.24755 -195.678 -17.4778 -171.964 -43.4015 -149.532C-69.3252 -127.1 -95.1255 -114.445 -101.028 -121.266C-106.931 -128.088 -90.7005 -151.802 -64.7768 -174.234Z"></path>
  <path fill="#585555" transform="matrix(0.605664 -0.524085 0.138801 0.160406 201.911 94.1171)" d="M-7.62939e-06 -76.9999C42.8021 -76.9999 77.5 -42.5259 77.5 6.10352e-05C77.5 42.526 42.8021 77.0001 -7.62939e-06 77.0001C-42.8021 77.0001 -77.5 42.526 -77.5 6.10352e-05C-77.5 -42.5259 -42.8021 -76.9999 -7.62939e-06 -76.9999Z"></path>
  <path fill="none" stroke="black" stroke-width="7" stroke-linejoin="round" transform="translate(256 256)" d="M-133.642 -196.503L-97.4614 -131.427"></path>
  <path fill="none" stroke="black" stroke-width="7" stroke-linejoin="round" transform="translate(256 256)" d="M-6.46041 -191.843L-76.9211 -245.584L-94.0197 -230.788"></path>
  <path fill="none" stroke="black" stroke-width="8" stroke-miterlimit="4" transform="translate(256 256)" d="M-113.639 -230.702C-97.9762 -244.256 -81.537 -250.918 -76.9211 -245.584C-72.3052 -240.25 -81.2606 -224.938 -96.9235 -211.385C-112.586 -197.832 -129.026 -191.169 -133.642 -196.503C-138.257 -201.838 -129.302 -217.149 -113.639 -230.702Z"></path>
  <path fill="#9C4040" transform="matrix(0.605664 -0.524085 0.524085 0.605664 108.263 55.4455)" d="M9.99828 15.3403L-13.0685 125.78L126.715 125.78L103.648 15.3403L9.99828 15.3403Z"></path>
  <path fill="none" stroke="black" stroke-width="7" stroke-miterlimit="4" transform="translate(256 256)" d="M-57.9637 -166.361C-32.04 -188.792 -6.2397 -201.447 -0.33707 -194.626C5.56556 -187.804 -10.6647 -164.09 -36.5884 -141.658C-62.5121 -119.226 -88.3124 -106.571 -94.215 -113.393C-100.118 -120.214 -83.8874 -143.929 -57.9637 -166.361Z"></path>
  <path fill="none" stroke="black" stroke-width="7" stroke-linejoin="round" transform="translate(256 256)" d="M-94.215 -113.393C-94.215 -113.393 -101.06 -121.303 -101.06 -121.303C-102.694 -123.192 -102.586 -126.438 -101.034 -130.605"></path>
  <path fill="none" stroke="black" stroke-width="7" stroke-linejoin="round" transform="translate(256 256)" d="M-7.77309 -203.1C-7.55777 -202.93 -7.36058 -202.743 -7.18209 -202.536C-7.18209 -202.536 -1.43179 -195.891 -0.472107 -194.782"></path>
  <path fill="#611E1E" transform="matrix(0.605664 -0.524085 0.138801 0.160406 208.724 101.991)" d="M0.749685 55.1992C17.8705 55.1992 66.8714 46.0031 69.8043 0.434675C69.9644 -2.05384 77.4999 -10.588 77.5 0C77.5 42.5259 42.8021 77 -7.62939e-06 77C-42.8021 77 -77.5 42.5259 -77.5 0C-76.7271 -10.3619 -70.1795 -1.22879 -69.733 1.90431C-67.4205 42.6838 -17.7408 55.1992 0.749685 55.1992Z"></path>
  <defs>
    <linearGradient id="gradient_0" gradientUnits="userSpaceOnUse" x1="8.5369253" y1="175.39754" x2="0.96320713" y2="-480.78424">
      <stop offset="0" stop-color="#583636"></stop>
      <stop offset="0.015997024" stop-color="#583636"></stop>
      <stop offset="0.98742092" stop-color="#EE1010"></stop>
      <stop offset="1" stop-color="#EE1010"></stop>
    </linearGradient>
  </defs>
  <path fill="url(#gradient_0)" transform="matrix(0.656294 -0.567895 0.119878 0.138539 208.724 101.991)" d="M0 -64C35.6224 -64 64.5 -35.3462 64.5 1.5378e-05C64.5 35.3462 35.6224 64 0 64C-35.6224 64 -64.5 35.3462 -64.5 -1.5378e-05C-64.5 -35.3462 -35.6224 -64 0 -64Z"></path>
  <path fill="#6C88D9" transform="matrix(1.79976 0.0293645 -0.0293645 1.79976 224.981 114.48)" d="M0 -29.5C19.0538 -29.5 34.5 -16.1805 34.5 0.25C34.5 16.6805 19.0538 30 0 30C-19.0538 30 -34.5 16.6805 -34.5 0.25C-34.5 -16.1805 -19.0538 -29.5 0 -29.5Z"></path>
  <path fill="#91A8EB" transform="matrix(1.50913 0.0246226 -0.0246226 1.50913 265.068 277.178)" d="M0.24998 -81.5196C49.8787 -81.2985 84.5 -60 84.5 -9.53674e-07C84.5 41.1452 46.78 74.5 0.25 74.5C-62.1254 74.5 -84 60.12 -84 -9.53674e-07C-84 -71.2881 -62.1254 -81.5196 0.24998 -81.5196Z"></path>
  <clipPath id="cl_12f">
    <path d="M269.162 133.029C335.978 134.119 420.274 171.673 418.512 279.659C417.304 353.711 348.313 415.834 264.57 414.467C152.309 412.636 113.487 382.913 115.253 274.711C117.346 146.41 177.881 131.54 269.162 133.029Z"></path>
  </clipPath>
  <g clip-path="url(#cl_12f)">
    <path fill="#A6B8EF" transform="matrix(0.805953 0.0131497 -0.0151654 0.929491 320.726 242.056)" d="M0.24998 -81.5196C49.8787 -81.2985 84.5 -60 84.5 0C84.5 41.1452 67.1354 74.5 20.6054 74.5C-41.77 74.5 -84 60.12 -84 0C-84 -71.2881 -62.1254 -81.5197 0.24998 -81.5196Z"></path>
    <path fill="#C1CBE8" transform="matrix(0.197995 -0.202726 0.445703 0.435301 343.827 193.207)" d="M11.5671 -77.0972C58.097 -77.0972 97.5959 -41.1452 97.5959 -2.43388e-05C97.5959 41.1452 73.4187 83.0524 26.8888 83.0524C-35.4867 83.0524 11.8086 60.12 11.8086 -2.30604e-05C11.8086 -41.1452 -34.9629 -77.0972 11.5671 -77.0972Z"></path>
    <path fill="#C1CBE8" transform="matrix(0.197995 -0.202726 0.184201 0.179903 388.269 257.563)" d="M48.93 -79.7643C80.6762 -79.053 77.4946 -42.8889 62.8507 4.00562C48.2069 50.9001 -0.03942 91.2963 -20.4536 67.777C-40.8678 44.2576 -16.8141 31.8032 -0.458991 -5.13884C15.8961 -42.0808 17.1838 -80.4756 48.93 -79.7643Z"></path>
  </g>
  <path fill="#91A8EB" transform="matrix(1.37947 2.85496e-09 -2.85496e-09 1.37947 210.879 346.868)" d="M64.015 -2.24772C82.2363 -1.86013 95.854 -2.36216 95.2072 49.1274C94.4914 74.6054 86.7008 89.0324 76.1871 88.6597C65.6735 88.2872 57.0339 88.3036 46.7004 88.2813C36.3207 88.1856 29.104 71.3408 29.8198 45.8629C30.2024 -7.83698 45.7937 -2.63535 64.015 -2.24772Z"></path>
  <path fill="#91A8EB" transform="matrix(1.79976 0.0293645 -0.0293645 1.79976 224.981 114.48)" d="M0 -22.5C14.6355 -22.5 26.5 -12.3145 26.5 0.25C26.5 12.8145 14.6355 23 0 23C-14.6355 23 -26.5 12.8145 -26.5 0.25C-26.5 -12.3145 -14.6355 -22.5 0 -22.5Z"></path>
  <path fill="#1B2B56" transform="matrix(1.78669 -0.21848 0.065544 0.536007 238.106 93.0265)" d="M1.09896e-07 -2.5C1.38071 -2.5 2.5 -1.38071 2.5 0C2.5 1.38071 1.38071 2.5 1.28523e-07 2.5C-1.38071 2.5 -2.5 1.38071 -2.5 0C-2.5 -1.38071 -1.38071 -2.5 1.09896e-07 -2.5Z"></path>
  <path fill="none" stroke="#1B2B56" stroke-width="0.5" stroke-linecap="round" stroke-linejoin="round" transform="matrix(1.78289 -0.247598 0.247598 1.78289 246.75 91.9149)" d="M1.98548 0.277981L6.02909 0.184244"></path>
  <path fill="#1B2B56" transform="matrix(1.78669 -0.21848 0.065544 0.536007 266.693 89.5308)" d="M-9.31323e-09 -2.5C1.38071 -2.5 2.5 -1.38071 2.5 0C2.5 1.38071 1.38071 2.5 9.31323e-09 2.5C-1.38071 2.5 -2.5 1.38071 -2.5 0C-2.5 -1.38071 -1.38071 -2.5 -9.31323e-09 -2.5Z"></path>
  <path fill="#354B89" transform="matrix(1.45897 -0.895021 0.934518 0.718834 258.628 82.4062)" d="M7.45058e-08 -2.5C1.38071 -2.5 2.5 -1.38071 2.5 0C2.5 1.38071 1.38071 2.5 -7.45058e-08 2.5C-1.38071 2.5 -2.5 1.38071 -2.5 0C-2.5 -1.38071 -1.38071 -2.5 7.45058e-08 -2.5Z"></path>
  <path fill="#354B89" transform="matrix(2.16453 0.282115 -0.62247 1.07759 243.387 83.4351)" d="M0 -2.98532C1.68306 -2.98532 3.04744 -1.64874 3.04744 1.52588e-05C3.04744 1.64877 1.68306 2.98535 0 2.98535C-1.68306 2.98535 -3.04744 1.64877 -3.04744 1.52588e-05C-3.04744 -1.64874 -1.68306 -2.98532 0 -2.98532Z"></path>
  <clipPath id="cl_132">
    <path d="M267.452 154.16C342.343 155.716 394.067 188.711 392.589 279.258C391.576 341.352 333.831 390.76 263.611 389.614C169.478 388.078 136.821 365.838 138.301 275.109C140.056 167.527 173.32 152.624 267.452 154.16Z"></path>
  </clipPath>
  <g clip-path="url(#cl_132)">
    <path fill="#3A6D3D" transform="matrix(0.605664 -0.524085 0.698428 0.807145 163.351 106.87)" d="M74.2156 32.7782L86.5869 31.6617C86.5869 31.6617 73.8823 101.182 67.5039 101.265C67.5039 101.265 49.336 101.463 49.336 101.463C61.2865 101.485 74.2156 32.7782 74.2156 32.7782Z"></path>
  </g>
  <path fill="#9C4040" transform="matrix(0.365938 -0.316649 0.108543 0.125439 150.719 34.9563)" d="M-1.52588e-05 -76.9999C42.8021 -76.9999 77.5 -42.5258 77.5 0.000131309C77.5 42.5261 42.8021 77.0001 -1.52588e-05 77.0001C-42.8021 77.0001 -77.5 42.526 -77.5 0.000112832C-77.5 -42.5258 -42.8021 -76.9999 -1.52588e-05 -76.9999Z"></path>
  <path fill="#C1CBE8" transform="matrix(0.167375 -0.632967 0.886841 0.234507 184.474 111.33)" d="M0 -11.5C14.6355 -11.5 28.0061 -7.98329 28.0061 -1.63202C28.0061 4.71926 15.5059 0.400178 0.870357 0.400178C-13.7652 0.400177 -26.766 4.37688 -26.766 -1.97439C-26.766 -8.32567 -14.6355 -11.5 0 -11.5Z"></path>
  <path fill="#611E1E" transform="matrix(0.605664 -0.524085 0.138801 0.160406 208.724 101.991)" d="M-7.62939e-06 -77C42.8021 -77 77.5 -42.5259 77.5 0C76.8893 5.3405 70.0211 3.38985 69.8079 -1.63419C68.2223 -39.0047 22.4635 -53.8416 1.14806 -53.8416C-18.1129 -53.8416 -70.7895 -39.8299 -69.4931 2.24309C-69.4637 3.19753 -74.2395 10.5248 -77.5 0C-77.5 -42.5259 -42.8021 -77 -7.62939e-06 -77Z"></path>
  <clipPath id="cl_133">
    <path d="M122.358 59.4966L166.268 138.475L250.93 65.2166L179.079 10.4161L122.358 59.4966Z"></path>
  </clipPath>
  <g clip-path="url(#cl_133)">
    <path fill="#BA4646" transform="matrix(0.439468 -0.380274 0.333216 0.385084 156.194 66.8129)" d="M-67.4615 -84L67.4615 -84L92.3226 83.7694L-67.4615 84L-67.4615 -84Z"></path>
  </g>
  <clipPath id="cl_134">
    <path d="M142.361 25.2975C158.024 11.7443 174.463 5.08167 179.079 10.4161C183.695 15.7505 174.739 31.0619 159.077 44.6152C143.414 58.1684 126.974 64.831 122.358 59.4966C117.743 54.1622 126.698 38.8508 142.361 25.2975Z"></path>
  </clipPath>
  <g clip-path="url(#cl_134)">
    <path fill="#BA4646" transform="matrix(0.439468 -0.380274 0.333216 0.385084 156.194 66.8129)" d="M-67.4615 -84L67.4615 -84L92.3226 83.7694L-67.4615 84L-67.4615 -84Z"></path>
  </g>
  <path fill="#993535" transform="matrix(0.605664 -0.524085 0.524085 0.605664 161.785 142.607)" d="M-1.52588e-05 7.62939e-06C-1.52588e-05 7.62939e-06 -7.62939e-06 -13.0609 7.62939e-06 -13.0609C1.52588e-05 -24.308 35.8327 -33.7055 77.5 -33.393C119.167 -33.0805 155 -24.3079 155 -13.0609C155 -13.0609 155 1.52588e-05 155 1.52588e-05C155 -10.5379 119.167 -20.393 77.5 -20.393C35.8327 -20.393 -7.62939e-06 -10.5379 -1.52588e-05 7.62939e-06Z"></path>
  <path fill="#669969" transform="matrix(0.605664 -0.524085 0.644995 0.745395 168.76 113.121)" d="M-0.506065 0.0225983C3.1732 -3.90973 9.28304 -5.30724 18.0792 -2.24782C23.7018 23.1815 52.5776 101.462 67.2296 101.254C62.0975 101.327 59.1898 101.368 46.7011 101.546C36.2156 101.695 2.73151 5.31647 -0.506065 0.0225983Z"></path>
  <path fill="none" stroke="black" stroke-width="7" stroke-linecap="round" stroke-linejoin="round" transform="matrix(2.15345 4.45679e-09 -4.42021e-09 2.13577 150.246 285.676)" d="M29.5642 -34.2227C32.2166 -29.2359 35.8956 -21.408 39.7621 -8.22907C48.6358 19.2027 54.4701 40.8297 30.8593 49.9402C16.0006 55.5649 -5.57715 37.0296 -14.4569 9.579C-21.4544 -13.355 -16.9458 -36.6972 -7.87335 -50.002"></path>
  <path fill="#6C88D9" transform="matrix(2.15345 4.45679e-09 -4.42021e-09 2.13577 150.246 285.676)" d="M9.49702 -61.1397C14.0771 -57.9115 24.5373 -45.4075 25.6977 -41.6582C26.858 -37.9089 33.0253 -31.1911 39.7621 -8.22907C48.6358 19.2027 54.4701 40.8297 30.8593 49.9402C16.0006 55.5649 -5.57715 37.0296 -14.4569 9.579C-25.1889 -25.5948 -8.85621 -61.7285 9.49702 -61.1397Z"></path>
  <path fill="#91A8EB" transform="matrix(1.67686 3.47045e-09 -4.32784e-09 2.09114 154.236 279.963)" d="M10.7718 -54.7609C32.131 -59.5197 31.3033 -34.5428 40.8375 -7.78912C52.0268 19.2522 56.7039 41.9574 42.8626 47.4871C29.0213 53.0169 0.965607 35.0334 -11.8009 8.3416C-23.7013 -19.73 -10.5873 -50.002 10.7718 -54.7609Z"></path>
  <path fill="none" stroke="white" stroke-width="5" stroke-linecap="round" stroke-linejoin="round" transform="matrix(1.5 0 0 1.5 158.539 362.24)" d=""></path>
</svg>