<?xml version="1.0" encoding="utf-8"?>
<svg xmlns="http://www.w3.org/2000/svg" xmlns:xlink="http://www.w3.org/1999/xlink" width="512" height="512">
  <path fill="none" stroke="black" stroke-width="7" stroke-linejoin="round" transform="matrix(1.8 3.72529e-09 -3.72529e-09 1.8 210.879 409.868)" d="M42.4754 -47.2695C60.6973 -46.9098 73.1796 -39.4059 72.6251 4.88016C72.7031 33.8976 65.2719 43.8542 54.7577 43.4977C44.2435 43.1412 35.6039 43.1709 25.2704 43.1645C14.8088 42.9774 9.52165 31.793 9.44404 2.76254C9.73078 -43.7332 24.2536 -47.6292 42.4754 -47.2695Z"></path>
  <path fill="none" stroke="black" stroke-width="7" stroke-linejoin="round" transform="matrix(-2.15345 -3.29802e-07 -3.27096e-07 2.13577 356.564 293.495)" d="M18.7643 -58.1865C21.9582 -53.563 27.4966 -38.1877 27.3025 -34.265C27.1084 -30.3423 31.1616 -21.2621 28.9451 3.00448C26.618 31.7989 21.2986 54.6973 -3.91111 52.7882C-19.73 51.4885 -30.2721 27.1248 -27.945 -1.66964C-25.0275 -37.7696 1.73994 -65.1247 18.7643 -58.1865Z"></path>
  <path fill="none" stroke="black" stroke-width="7" stroke-linejoin="round" transform="matrix(1.79976 0.0293645 -0.0293645 1.79976 266.859 294.66)" d="M0.209625 -80.0966C37.3348 -80.0966 84.5 -60 84.5 0C84.5 41.1452 46.7396 76.2788 0.209625 76.2788C-62.1658 76.2788 -84 60.12 -84 0C-84 -71.2881 -50.5087 -80.0966 0.209625 -80.0966Z"></path>
  <path fill="none" stroke="black" stroke-width="7" stroke-linejoin="round" transform="matrix(1.53671 3.18039e-09 -3.72529e-09 1.8 308.979 398.168)" d="M-49.5712 -46.2983C-32.7475 -52.2824 -1.76611 -42.9752 5.25068 7.31108C1.65909 24.934 -21.5429 50.9677 -33.6134 45.4749C-45.684 39.9821 -51.0985 37.5182 -61.8664 32.6181C-72.6342 27.7181 -57.721 13.34 -54.5778 5.38051C-62.662 -37.3932 -66.3948 -40.3142 -49.5712 -46.2983Z"></path>
  <path fill="#6C88D9" transform="matrix(-2.15345 -3.29802e-07 -3.27096e-07 2.13577 356.564 293.495)" d="M18.7643 -58.1865C21.9582 -53.563 27.4966 -38.1877 27.3025 -34.265C27.1084 -30.3423 31.1616 -21.2621 28.9451 3.00448C26.618 31.7989 21.2986 54.6973 -3.91111 52.7882C-19.73 51.4885 -30.2721 27.1248 -27.945 -1.66964C-25.0275 -37.7696 1.73994 -65.1247 18.7643 -58.1865Z"></path>
  <path fill="#5170C8" transform="matrix(1.53671 3.18039e-09 -3.72529e-09 1.8 308.979 398.168)" d="M-49.5712 -46.2983C-32.7475 -52.2824 -1.76611 -42.9752 5.25068 7.31108C1.65909 24.934 -21.5429 50.9677 -33.6134 45.4749C-45.684 39.9821 -51.0985 37.5182 -61.8664 32.6181C-72.6342 27.7181 -57.721 13.34 -54.5778 5.38051C-62.662 -37.3932 -66.3948 -40.3142 -49.5712 -46.2983Z"></path>
  <path fill="#839BE0" transform="matrix(1.20328 2.49031e-09 -2.91698e-09 1.40944 308.979 398.168)" d="M-57.5832 -47.3978C-40.7596 -53.3819 -9.55468 -43.8243 -2.13662 10.5329C-7.94003 31.651 -30.7433 48.6824 -42.8139 43.1896C-54.8844 37.6967 -54.758 37.8115 -65.5258 32.9115C-76.2937 28.0115 -67.3201 20.0571 -61.9651 8.60229C-70.4506 -38.2423 -74.4069 -41.4138 -57.5832 -47.3978Z"></path>
  <path fill="#6C88D9" transform="matrix(1.8 3.72529e-09 -3.72529e-09 1.8 210.879 409.868)" d="M42.4754 -47.2695C60.6973 -46.9098 73.1796 -39.4059 72.6251 4.88016C72.7031 33.8976 65.2719 43.8542 54.7577 43.4977C44.2435 43.1412 35.6039 43.1709 25.2704 43.1645C14.8088 42.9774 9.52165 31.793 9.44404 2.76254C9.73078 -43.7332 24.2536 -47.6292 42.4754 -47.2695Z"></path>
  <path fill="#91A8EB" transform="matrix(-1.67686 -2.56813e-07 -3.2026e-07 2.09114 352.574 287.782)" d="M20.4834 -51.7845C42.5785 -50.3408 33.1842 -26.0422 28.6576 2.34841C24.1311 30.739 9.90929 53.2405 -5.5036 52.2334C-20.9165 51.2263 -30.6681 27.2307 -27.7594 -1.39323C-24.8506 -30.0172 -1.61158 -53.2283 20.4834 -51.7845Z"></path>
  <path fill="none" stroke="black" stroke-width="7" stroke-miterlimit="4" transform="matrix(1.79976 0.0293645 -0.0293645 1.79976 225.407 131.963)" d="M0 -29.5C19.0538 -29.5 34.5 -16.1805 34.5 0.25C34.5 16.6805 19.0538 30 0 30C-19.0538 30 -34.5 16.6805 -34.5 0.25C-34.5 -16.1805 -19.0538 -29.5 0 -29.5Z"></path>
  <path fill="none" stroke="black" stroke-width="7" stroke-linejoin="round" transform="translate(256 256)" d="M-24.3796 -143.123L-17.6666 -150.508C-17.6666 -150.508 23.1935 -87.7366 19.388 -84.3271C19.388 -84.3271 18.7481 -83.7568 17.7788 -82.8931"></path>
  <path fill="none" stroke="black" stroke-width="7" stroke-linejoin="round" transform="translate(256 256)" d="M7.4623 -85.358C2.07917 -100.014 -13.1415 -125.181 -20.4145 -136.847"></path>
  <path fill="none" stroke="black" stroke-width="7" stroke-linejoin="round" transform="translate(256 256)" d="M18.4942 -83.5492C15.8346 -81.1652 13.8162 -79.356 6.96794 -73.2174C0.713379 -67.6109 -81.7305 -121.903 -87.1059 -124.152C-87.4138 -129.011 -84.6147 -133.255 -77.3139 -135.584C-57.5067 -119.576 10.4732 -76.3594 19.2131 -84.1936C18.966 -83.9721 18.7276 -83.7584 18.4942 -83.5492"></path>
  <path fill="#6C88D9" transform="matrix(1.79976 0.0293645 -0.0293645 1.79976 266.859 294.66)" d="M0.209625 -80.0966C37.3348 -80.0966 84.5 -60 84.5 0C84.5 41.1452 46.7396 76.2788 0.209625 76.2788C-62.1658 76.2788 -84 60.12 -84 0C-84 -71.2881 -50.5087 -80.0966 0.209625 -80.0966Z"></path>
  <path fill="#3A6D3D" transform="matrix(0.605664 -0.524085 0.698428 0.807145 163.777 125.316)" d="M74.2157 32.7782L86.5869 31.6617C86.5869 31.6617 73.8822 101.182 67.5039 101.264C67.5039 101.264 49.336 101.463 49.336 101.463C61.2865 101.485 74.2157 32.7782 74.2157 32.7782Z"></path>
  <path fill="none" stroke="black" stroke-width="7" stroke-miterlimit="4" transform="translate(256 256)" d="M-64.3505 -155.789C-38.4269 -178.221 -12.6265 -190.876 -6.72391 -184.054C-0.821281 -177.233 -17.0516 -153.518 -42.9752 -131.086C-68.8989 -108.654 -94.6992 -95.9995 -100.602 -102.821C-106.505 -109.642 -90.2742 -133.357 -64.3505 -155.789Z"></path>
  <path fill="#585555" transform="matrix(0.605664 -0.524085 0.138801 0.160406 202.337 112.562)" d="M0 -77C42.8021 -77 77.5 -42.5259 77.5 0C77.5 42.5259 42.8021 77 0 77C-42.8021 77 -77.5 42.5259 -77.5 0C-77.5 -42.5259 -42.8021 -77 0 -77Z"></path>
  <path fill="none" stroke="black" stroke-width="7" stroke-linejoin="round" transform="translate(256 256)" d="M-133.215 -178.058L-97.0351 -112.982"></path>
  <path fill="none" stroke="black" stroke-width="7" stroke-linejoin="round" transform="translate(256 256)" d="M-6.03413 -173.398L-76.4948 -227.139L-93.5934 -212.343"></path>
  <path fill="none" stroke="black" stroke-width="8" stroke-miterlimit="4" transform="translate(256 256)" d="M-113.213 -212.257C-97.55 -225.81 -81.1107 -232.473 -76.4948 -227.139C-71.8789 -221.804 -80.8343 -206.493 -96.4972 -192.939C-112.16 -179.386 -128.599 -172.724 -133.215 -178.058C-137.831 -183.392 -128.876 -198.704 -113.213 -212.257Z"></path>
  <path fill="#9C4040" transform="matrix(0.605664 -0.524085 0.524085 0.605664 108.69 73.8909)" d="M9.99827 15.3403L-13.0685 125.78L126.715 125.78L103.648 15.3403L9.99827 15.3403Z"></path>
  <path fill="none" stroke="black" stroke-width="7" stroke-miterlimit="4" transform="translate(256 256)" d="M-57.5374 -147.915C-31.6138 -170.347 -5.81343 -183.002 0.0891991 -176.18C5.99183 -169.359 -10.2384 -145.645 -36.1621 -123.213C-62.0858 -100.781 -87.8861 -88.1259 -93.7888 -94.9473C-99.6914 -101.769 -83.4611 -125.483 -57.5374 -147.915Z"></path>
  <path fill="none" stroke="black" stroke-width="7" stroke-linejoin="round" transform="translate(256 256)" d="M-93.7888 -94.9473C-93.7888 -94.9473 -100.634 -102.858 -100.634 -102.858C-102.268 -104.746 -102.16 -107.993 -100.608 -112.16"></path>
  <path fill="none" stroke="black" stroke-width="7" stroke-linejoin="round" transform="translate(256 256)" d="M-7.34679 -184.654C-7.13149 -184.485 -6.9343 -184.297 -6.75583 -184.091C-6.75583 -184.091 -1.00549 -177.446 -0.04583 -176.337"></path>
  <path fill="#611E1E" transform="matrix(0.605664 -0.524085 0.138801 0.160406 209.15 120.436)" d="M0.749685 55.1992C17.8705 55.1992 66.8714 46.0031 69.8043 0.434675C69.9644 -2.05384 77.4999 -10.588 77.5 0C77.5 42.5259 42.8021 77 -7.62939e-06 77C-42.8021 77 -77.5 42.5259 -77.5 0C-76.7271 -10.3619 -70.1795 -1.22879 -69.733 1.90431C-67.4205 42.6838 -17.7408 55.1992 0.749685 55.1992Z"></path>
  <defs>
    <linearGradient id="gradient_0" gradientUnits="userSpaceOnUse" x1="8.5369253" y1="175.39754" x2="0.96320713" y2="-480.78424">
      <stop offset="0" stop-color="#583636"></stop>
      <stop offset="0.015997024" stop-color="#583636"></stop>
      <stop offset="0.98742092" stop-color="#EE1010"></stop>
      <stop offset="1" stop-color="#EE1010"></stop>
    </linearGradient>
  </defs>
  <path fill="url(#gradient_0)" transform="matrix(0.656294 -0.567895 0.119878 0.138539 209.15 120.436)" d="M0 -64.0001C35.6224 -64.0001 64.5 -35.3463 64.5 -4.56572e-05C64.5 35.3462 35.6224 63.9999 0 63.9999C-35.6224 63.9999 -64.5 35.3461 -64.5 -7.64132e-05C-64.5 -35.3463 -35.6224 -64.0001 0 -64.0001Z"></path>
  <path fill="#6C88D9" transform="matrix(1.79976 0.0293645 -0.0293645 1.79976 225.407 131.963)" d="M0 -29.5C19.0538 -29.5 34.5 -16.1805 34.5 0.25C34.5 16.6805 19.0538 30 0 30C-19.0538 30 -34.5 16.6805 -34.5 0.25C-34.5 -16.1805 -19.0538 -29.5 0 -29.5Z"></path>
  <path fill="#91A8EB" transform="matrix(1.50913 0.0246226 -0.0246226 1.50913 265.494 294.66)" d="M0.24998 -81.5196C49.8787 -81.2985 84.5 -60 84.5 -1.90735e-06C84.5 41.1452 46.78 74.5 0.25 74.5C-62.1254 74.5 -84 60.12 -84 -1.90735e-06C-84 -71.2881 -62.1254 -81.5196 0.24998 -81.5196Z"></path>
  <clipPath id="cl_1d7">
    <path d="M269.588 150.512C336.405 151.602 420.7 189.156 418.939 297.142C417.73 371.193 348.739 433.316 264.996 431.95C152.735 430.118 113.913 400.395 115.679 292.194C117.772 163.892 178.307 149.022 269.588 150.512Z"></path>
  </clipPath>
  <g clip-path="url(#cl_1d7)">
    <path fill="#A6B8EF" transform="matrix(0.805953 0.0131497 -0.0151654 0.929491 321.153 259.539)" d="M0.249972 -81.5196C49.8787 -81.2985 84.5 -60 84.5 2.38419e-07C84.5 41.1452 67.1354 74.5 20.6054 74.5C-41.77 74.5 -84 60.12 -84 2.38419e-07C-84 -71.2881 -62.1254 -81.5197 0.249972 -81.5196Z"></path>
    <path fill="#C1CBE8" transform="matrix(0.197995 -0.202726 0.445703 0.435301 344.253 210.689)" d="M11.5671 -77.0972C58.097 -77.0972 97.5959 -41.1452 97.5959 -2.05241e-05C97.5959 41.1452 73.4187 83.0524 26.8888 83.0524C-35.4867 83.0524 11.8086 60.12 11.8086 -1.92457e-05C11.8086 -41.1452 -34.9629 -77.0972 11.5671 -77.0972Z"></path>
    <path fill="#C1CBE8" transform="matrix(0.197995 -0.202726 0.184201 0.179903 388.695 275.045)" d="M48.93 -79.7642C80.6763 -79.0529 77.4946 -42.8888 62.8508 4.00568C48.2069 50.9002 -0.0393895 91.2964 -20.4536 67.777C-40.8678 44.2577 -16.8141 31.8032 -0.458961 -5.13878C15.8962 -42.0808 17.1838 -80.4755 48.93 -79.7642Z"></path>
  </g>
  <path fill="#91A8EB" transform="matrix(1.37947 2.85496e-09 -2.85496e-09 1.37947 210.879 346.868)" d="M55.1482 -2.03291C73.37 -1.67323 86.9869 -2.19615 86.4191 49.2944C85.7423 74.7734 77.9738 89.2123 67.4596 88.8558C56.9454 88.4993 48.3058 88.529 37.9723 88.5225C27.5925 88.4427 20.35 71.6091 21.0268 46.1301C21.3271 -7.57033 36.9263 -2.39262 55.1482 -2.03291Z"></path>
  <path fill="#91A8EB" transform="matrix(1.79976 0.0293645 -0.0293645 1.79976 225.407 131.963)" d="M0 -22.5C14.6355 -22.5 26.5 -12.3145 26.5 0.25C26.5 12.8145 14.6355 23 0 23C-14.6355 23 -26.5 12.8145 -26.5 0.25C-26.5 -12.3145 -14.6355 -22.5 0 -22.5Z"></path>
  <path fill="#1B2B56" transform="matrix(1.78669 -0.21848 0.065544 0.536007 234.242 113.602)" d="M-4.8615e-07 -2.50006C1.38071 -2.50006 2.5 -1.38077 2.5 -6.10352e-05C2.5 1.38065 1.38071 2.49994 -4.67524e-07 2.49994C-1.38071 2.49994 -2.5 1.38065 -2.5 -6.10352e-05C-2.5 -1.38077 -1.38071 -2.50006 -4.8615e-07 -2.50006Z"></path>
  <path fill="none" stroke="#1B2B56" stroke-width="0.5" stroke-linecap="round" stroke-linejoin="round" transform="matrix(1.78289 -0.247598 0.247598 1.78289 242.886 112.491)" d="M1.98548 0.277981L6.02909 0.184244"></path>
  <path fill="#1B2B56" transform="matrix(1.78669 -0.21848 0.065544 0.536007 262.829 110.107)" d="M-9.62988e-07 -2.50003C1.38071 -2.50003 2.5 -1.38074 2.5 -3.05176e-05C2.5 1.38068 1.38071 2.49997 -9.44361e-07 2.49997C-1.38071 2.49997 -2.5 1.38068 -2.5 -3.05176e-05C-2.5 -1.38074 -1.38071 -2.50003 -9.62988e-07 -2.50003Z"></path>
  <path fill="#354B89" transform="matrix(1.45897 -0.895021 0.934518 0.718834 254.763 102.982)" d="M7.7039e-06 -2.5C1.38072 -2.5 2.50001 -1.38071 2.50001 0C2.50001 1.38071 1.38072 2.5 7.55489e-06 2.5C-1.3807 2.5 -2.49999 1.38071 -2.49999 0C-2.49999 -1.38071 -1.3807 -2.5 7.7039e-06 -2.5Z"></path>
  <path fill="#354B89" transform="matrix(2.16453 0.282115 -0.62247 1.07759 239.523 104.011)" d="M0 -2.98531C1.68306 -2.98531 3.04744 -1.64873 3.04744 3.05176e-05C3.04744 1.64879 1.68306 2.98537 0 2.98537C-1.68306 2.98537 -3.04744 1.64879 -3.04744 3.05176e-05C-3.04744 -1.64873 -1.68306 -2.98531 0 -2.98531Z"></path>
  <clipPath id="cl_1da">
    <path d="M267.879 171.643C342.77 173.199 394.493 206.193 393.016 296.741C392.003 358.834 334.257 408.242 264.037 407.097C169.905 405.561 137.247 383.321 138.727 292.592C140.483 185.009 173.746 170.107 267.879 171.643Z"></path>
  </clipPath>
  <g clip-path="url(#cl_1da)">
    <path fill="#3A6D3D" transform="matrix(0.605664 -0.524085 0.698428 0.807145 163.777 125.316)" d="M74.2157 32.7782L86.5869 31.6617C86.5869 31.6617 73.8822 101.182 67.5039 101.264C67.5039 101.264 49.336 101.463 49.336 101.463C61.2865 101.485 74.2157 32.7782 74.2157 32.7782Z"></path>
  </g>
  <path fill="#9C4040" transform="matrix(0.365938 -0.316649 0.108543 0.125439 151.145 53.4017)" d="M0 -77C42.8021 -77 77.5 -42.5259 77.5 9.23872e-06C77.5 42.5259 42.8021 77 0 77C-42.8021 77 -77.5 42.5259 -77.5 -9.23872e-06C-77.5 -42.5259 -42.8021 -77 0 -77Z"></path>
  <path fill="#C1CBE8" transform="matrix(0.167375 -0.632967 0.886841 0.234507 184.9 128.812)" d="M0 -11.5C14.6355 -11.5 28.0061 -7.98328 28.0061 -1.632C28.0061 4.71927 15.5059 0.400193 0.870357 0.400193C-13.7652 0.400192 -26.766 4.3769 -26.766 -1.97438C-26.766 -8.32565 -14.6355 -11.5 0 -11.5Z"></path>
  <path fill="#611E1E" transform="matrix(0.605664 -0.524085 0.138801 0.160406 209.15 120.436)" d="M-7.62939e-06 -77C42.8021 -77 77.5 -42.5259 77.5 0C76.8893 5.3405 70.0211 3.38985 69.8079 -1.63419C68.2223 -39.0047 22.4635 -53.8416 1.14806 -53.8416C-18.1129 -53.8416 -70.7895 -39.8299 -69.4931 2.24309C-69.4637 3.19753 -74.2395 10.5248 -77.5 0C-77.5 -42.5259 -42.8021 -77 -7.62939e-06 -77Z"></path>
  <clipPath id="cl_1db">
    <path d="M122.785 77.942L166.694 156.921L251.356 83.662L179.505 28.8614L122.785 77.942Z"></path>
  </clipPath>
  <g clip-path="url(#cl_1db)">
    <path fill="#BA4646" transform="matrix(0.439468 -0.380274 0.333216 0.385084 156.62 85.2582)" d="M-67.4615 -84L67.4615 -84L92.3226 83.7694L-67.4615 84L-67.4615 -84Z"></path>
  </g>
  <clipPath id="cl_1dc">
    <path d="M142.787 43.7429C158.45 30.1897 174.889 23.527 179.505 28.8615C184.121 34.1959 175.166 49.5073 159.503 63.0605C143.84 76.6138 127.401 83.2764 122.785 77.942C118.169 72.6076 127.124 57.2961 142.787 43.7429Z"></path>
  </clipPath>
  <g clip-path="url(#cl_1dc)">
    <path fill="#BA4646" transform="matrix(0.439468 -0.380274 0.333216 0.385084 156.62 85.2582)" d="M-67.4615 -84L67.4615 -84L92.3226 83.7694L-67.4615 84L-67.4615 -84Z"></path>
  </g>
  <path fill="#993535" transform="matrix(0.605664 -0.524085 0.524085 0.605664 162.211 161.053)" d="M7.62939e-06 0C7.62939e-06 0 7.62939e-06 -13.0609 1.52588e-05 -13.0609C1.52588e-05 -24.3079 35.8327 -33.7055 77.5 -33.393C119.167 -33.0805 155 -24.308 155 -13.0609C155 -13.0609 155 1.52588e-05 155 1.52588e-05C155 -10.5378 119.167 -20.393 77.5 -20.393C35.8327 -20.393 7.62939e-06 -10.5379 7.62939e-06 0Z"></path>
  <path fill="#669969" transform="matrix(0.605664 -0.524085 0.644995 0.745395 169.186 131.566)" d="M-0.506058 0.0226059C3.17321 -3.90972 9.28304 -5.30722 18.0791 -2.2478C23.7018 23.1815 52.5776 101.462 67.2296 101.254C62.0975 101.327 59.1898 101.368 46.7011 101.546C36.2156 101.695 2.73151 5.31649 -0.506058 0.0226059Z"></path>
  <path fill="none" stroke="black" stroke-width="7" stroke-linecap="round" stroke-linejoin="round" transform="matrix(2.15345 4.45679e-09 -4.42021e-09 2.13577 150.672 303.159)" d="M28.8845 -32.5022C31.1843 -27.2767 34.2916 -19.0906 37.0532 -5.48046C43.4355 22.6623 46.7428 45.1082 22.3327 51.74C6.98203 55.8055 -12.1784 35.4832 -18.5639 7.32629C-23.5528 -15.9941 -17.2747 -38.7223 -7.2501 -51.1858"></path>
  <path fill="#6C88D9" transform="matrix(2.15345 4.45679e-09 -4.42021e-09 2.13577 150.672 303.159)" d="M10.9498 -60.8894C15.2644 -57.3086 24.719 -44.0155 25.584 -40.1859C26.4489 -36.3563 32.2695 -29.0557 37.0532 -5.48046C43.4355 22.6623 46.7428 45.1082 22.3327 51.74C6.98203 55.8055 -12.1784 35.4832 -18.5639 7.32629C-26.2282 -28.5 -7.30097 -62.9288 10.9498 -60.8894Z"></path>
  <path fill="#91A8EB" transform="matrix(1.67686 3.47045e-09 -4.32784e-09 2.09114 154.662 297.446)" d="M12.1499 -54.4604C33.9089 -57.8602 30.946 -32.9604 37.6385 -5.54603C45.747 22.2244 47.1525 45.4502 32.6794 49.8176C18.2062 54.1851 -6.93827 34.2582 -16.6586 6.72196C-25.487 -21.9634 -9.60915 -51.0605 12.1499 -54.4604Z"></path>
  <path fill="none" stroke="white" stroke-width="5" stroke-linecap="round" stroke-linejoin="round" transform="matrix(1.5 0 0 1.5 158.539 362.24)" d=""></path>
</svg>