<?xml version="1.0" encoding="utf-8"?>
<svg xmlns="http://www.w3.org/2000/svg" xmlns:xlink="http://www.w3.org/1999/xlink" width="512" height="512">
  <path fill="none" stroke="black" stroke-width="7" stroke-linejoin="round" transform="matrix(1.8 3.72529e-09 -3.72529e-09 1.8 210.879 409.868)" d="M3.22981 -46.3214C21.4539 -46.1043 33.9946 -38.6982 33.7865 5.59081C34.0915 34.6067 26.7383 44.6212 16.2217 44.3469C5.70499 44.0727 -2.93406 44.1699 -13.2673 44.2443C-23.7301 44.1391 -29.1045 32.9964 -29.4092 3.96748C-29.4862 -42.5291 -14.9943 -46.5386 3.22981 -46.3214Z"></path>
  <path fill="none" stroke="black" stroke-width="7" stroke-linejoin="round" transform="matrix(-2.15345 -3.29802e-07 -3.27096e-07 2.13577 356.135 275.903)" d="M19.9406 -56.1391C22.3788 -51.0693 25.4669 -35.0104 24.6674 -31.1664C23.8679 -27.3224 26.4645 -17.7153 20.5153 5.90419C13.7553 33.9786 4.95326 55.7578 -19.6511 49.9012C-35.0744 46.1257 -41.7121 20.4007 -34.9521 -7.67369C-26.477 -42.8708 4.20023 -65.6738 19.9406 -56.1391Z"></path>
  <path fill="none" stroke="black" stroke-width="7" stroke-linejoin="round" transform="matrix(1.79976 0.0293645 -0.0293645 1.79976 266.43 277.068)" d="M0.209625 -80.0966C37.3348 -80.0966 84.5 -60 84.5 9.53674e-07C84.5 41.1452 46.7396 76.2788 0.209625 76.2788C-62.1658 76.2788 -84 60.12 -84 9.53674e-07C-84 -71.2881 -50.5087 -80.0966 0.209625 -80.0966Z"></path>
  <path fill="none" stroke="black" stroke-width="7" stroke-linejoin="round" transform="matrix(1.53671 3.18039e-09 -3.72529e-09 1.8 308.979 398.168)" d="M-3.26098 -47.7864C14.9626 -48.0041 30.4471 -41.2796 31.0691 8.29219C31.6797 22.1378 25.7923 45.9143 12.1141 45.8936C-1.56411 45.8731 -7.69971 45.8638 -19.9017 45.8455C-32.1038 45.8271 -34.3139 22.9262 -34.9245 9.0806C-35.8931 -42.678 -21.4846 -47.5687 -3.26098 -47.7864Z"></path>
  <path fill="#6C88D9" transform="matrix(-2.15345 -3.29802e-07 -3.27096e-07 2.13577 356.135 275.903)" d="M19.9406 -56.1391C22.3788 -51.0693 25.4669 -35.0104 24.6674 -31.1664C23.8679 -27.3224 26.4645 -17.7153 20.5153 5.90419C13.7553 33.9786 4.95326 55.7578 -19.6511 49.9012C-35.0744 46.1257 -41.7121 20.4007 -34.9521 -7.67369C-26.477 -42.8708 4.20023 -65.6738 19.9406 -56.1391Z"></path>
  <path fill="#5170C8" transform="matrix(1.53671 3.18039e-09 -3.72529e-09 1.8 308.979 398.168)" d="M-3.26098 -47.7864C14.9626 -48.0041 30.4471 -41.2796 31.0691 8.29219C31.6797 22.1378 25.7923 45.9143 12.1141 45.8936C-1.56411 45.8731 -7.69971 45.8638 -19.9017 45.8455C-32.1038 45.8271 -34.3139 22.9262 -34.9245 9.0806C-35.8931 -42.678 -21.4846 -47.5687 -3.26098 -47.7864Z"></path>
  <path fill="#839BE0" transform="matrix(1.20328 2.49031e-09 -2.91698e-09 1.40944 308.979 398.168)" d="M-3.95635 -48.3222C14.2673 -48.5399 29.2014 -41.7252 30.024 12.3371C29.811 30.2711 21.0749 45.4367 7.39674 45.4161C-6.28149 45.3955 -6.1067 45.4463 -18.3087 45.4279C-30.5107 45.4096 -36.1825 31.0595 -35.9695 13.1255C-37.1389 -43.1236 -22.18 -48.1044 -3.95635 -48.3222Z"></path>
  <path fill="#6C88D9" transform="matrix(1.8 3.72529e-09 -3.72529e-09 1.8 210.879 409.868)" d="M3.22981 -46.3214C21.4539 -46.1043 33.9946 -38.6982 33.7865 5.59081C34.0915 34.6067 26.7383 44.6212 16.2217 44.3469C5.70499 44.0727 -2.93406 44.1699 -13.2673 44.2443C-23.7301 44.1391 -29.1045 32.9964 -29.4092 3.96748C-29.4862 -42.5291 -14.9943 -46.5386 3.22981 -46.3214Z"></path>
  <path fill="#91A8EB" transform="matrix(-1.67686 -2.56813e-07 -3.2026e-07 2.09114 352.145 270.19)" d="M21.0522 -49.9084C42.5946 -45.7145 28.5819 -22.8911 18.5799 4.58387C8.57781 32.0588 -9.85306 52.5024 -24.8805 49.5768C-39.9079 46.6512 -44.865 21.7287 -36.4155 -6.17942C-27.966 -34.0875 -0.490246 -54.1024 21.0522 -49.9084Z"></path>
  <path fill="none" stroke="black" stroke-width="7" stroke-miterlimit="4" transform="matrix(1.79976 0.0293645 -0.0293645 1.79976 224.979 114.371)" d="M0 -29.5C19.0538 -29.5 34.5 -16.1805 34.5 0.25C34.5 16.6805 19.0538 30 0 30C-19.0538 30 -34.5 16.6805 -34.5 0.25C-34.5 -16.1805 -19.0538 -29.5 0 -29.5Z"></path>
  <path fill="none" stroke="black" stroke-width="7" stroke-linejoin="round" transform="translate(256 256)" d="M-24.8086 -161.703L-18.0955 -169.088C-18.0955 -169.088 22.7645 -106.316 18.9591 -102.907C18.9591 -102.907 18.3192 -102.337 17.3499 -101.473"></path>
  <path fill="none" stroke="black" stroke-width="7" stroke-linejoin="round" transform="translate(256 256)" d="M7.03336 -103.938C1.65023 -118.594 -13.5704 -143.76 -20.8435 -155.426"></path>
  <path fill="none" stroke="black" stroke-width="7" stroke-linejoin="round" transform="translate(256 256)" d="M18.0652 -102.129C15.4057 -99.7451 13.3873 -97.9358 6.53901 -91.7972C0.284447 -86.1908 -82.1594 -140.482 -87.5348 -142.732C-87.8427 -147.591 -85.0436 -151.835 -77.7428 -154.164C-57.9356 -138.156 10.0443 -94.9392 18.7841 -102.773C18.5371 -102.552 18.2987 -102.338 18.0652 -102.129"></path>
  <path fill="#6C88D9" transform="matrix(1.79976 0.0293645 -0.0293645 1.79976 266.43 277.068)" d="M0.209625 -80.0966C37.3348 -80.0966 84.5 -60 84.5 9.53674e-07C84.5 41.1452 46.7396 76.2788 0.209625 76.2788C-62.1658 76.2788 -84 60.12 -84 9.53674e-07C-84 -71.2881 -50.5087 -80.0966 0.209625 -80.0966Z"></path>
  <path fill="#3A6D3D" transform="matrix(0.605664 -0.524085 0.698428 0.807145 163.348 106.736)" d="M74.2157 32.7782L86.5869 31.6617C86.5869 31.6617 73.8822 101.182 67.5039 101.264C67.5039 101.264 49.336 101.463 49.336 101.463C61.2865 101.485 74.2157 32.7782 74.2157 32.7782Z"></path>
  <path fill="none" stroke="black" stroke-width="7" stroke-miterlimit="4" transform="translate(256 256)" d="M-64.7795 -174.369C-38.8558 -196.801 -13.0555 -209.455 -7.15284 -202.634C-1.25021 -195.813 -17.4805 -172.098 -43.4042 -149.666C-69.3279 -127.234 -95.1282 -114.579 -101.031 -121.401C-106.933 -128.222 -90.7032 -151.937 -64.7795 -174.369Z"></path>
  <path fill="#585555" transform="matrix(0.605664 -0.524085 0.138801 0.160406 201.908 93.9826)" d="M-1.52588e-05 -77.0001C42.8021 -77.0001 77.5 -42.526 77.5 -6.10352e-05C77.5 42.5259 42.8021 76.9999 -1.52588e-05 76.9999C-42.8021 76.9999 -77.5 42.5259 -77.5 -6.10352e-05C-77.5 -42.526 -42.8021 -77.0001 -1.52588e-05 -77.0001Z"></path>
  <path fill="none" stroke="black" stroke-width="7" stroke-linejoin="round" transform="translate(256 256)" d="M-133.644 -196.638L-97.4641 -131.561"></path>
  <path fill="none" stroke="black" stroke-width="7" stroke-linejoin="round" transform="translate(256 256)" d="M-6.46306 -191.978L-76.9238 -245.718L-94.0223 -230.923"></path>
  <path fill="none" stroke="black" stroke-width="8" stroke-miterlimit="4" transform="translate(256 256)" d="M-113.642 -230.837C-97.9789 -244.39 -81.5397 -251.053 -76.9238 -245.718C-72.3079 -240.384 -81.2632 -225.073 -96.9262 -211.519C-112.589 -197.966 -129.028 -191.303 -133.644 -196.638C-138.26 -201.972 -129.305 -217.284 -113.642 -230.837Z"></path>
  <path fill="#9C4040" transform="matrix(0.605664 -0.524085 0.524085 0.605664 108.261 55.311)" d="M9.99828 15.3403L-13.0685 125.78L126.715 125.78L103.648 15.3403L9.99828 15.3403Z"></path>
  <path fill="none" stroke="black" stroke-width="7" stroke-miterlimit="4" transform="translate(256 256)" d="M-57.9664 -166.495C-32.0427 -188.927 -6.24236 -201.582 -0.339733 -194.76C5.56289 -187.939 -10.6674 -164.224 -36.5911 -141.792C-62.5148 -119.361 -88.3151 -106.706 -94.2177 -113.527C-100.12 -120.349 -83.8901 -144.063 -57.9664 -166.495Z"></path>
  <path fill="none" stroke="black" stroke-width="7" stroke-linejoin="round" transform="translate(256 256)" d="M-94.2177 -113.527C-94.2177 -113.527 -101.063 -121.438 -101.063 -121.438C-102.697 -123.326 -102.588 -126.572 -101.037 -130.74"></path>
  <path fill="none" stroke="black" stroke-width="7" stroke-linejoin="round" transform="translate(256 256)" d="M-7.77575 -203.234C-7.56044 -203.065 -7.36324 -202.877 -7.18476 -202.671C-7.18476 -202.671 -1.43448 -196.025 -0.474777 -194.916"></path>
  <path fill="#611E1E" transform="matrix(0.605664 -0.524085 0.138801 0.160406 208.721 101.856)" d="M0.749685 55.1991C17.8705 55.1991 66.8714 46.0031 69.8043 0.434614C69.9644 -2.0539 77.4999 -10.588 77.5 -6.10352e-05C77.5 42.5259 42.8021 76.9999 -7.62939e-06 76.9999C-42.8021 76.9999 -77.5 42.5259 -77.5 -6.10352e-05C-76.7271 -10.362 -70.1795 -1.22885 -69.733 1.90425C-67.4205 42.6838 -17.7408 55.1991 0.749685 55.1991Z"></path>
  <defs>
    <linearGradient id="gradient_0" gradientUnits="userSpaceOnUse" x1="8.5369253" y1="175.39754" x2="0.96320713" y2="-480.78424">
      <stop offset="0" stop-color="#583636"></stop>
      <stop offset="0.015997024" stop-color="#583636"></stop>
      <stop offset="0.98742092" stop-color="#EE1010"></stop>
      <stop offset="1" stop-color="#EE1010"></stop>
    </linearGradient>
  </defs>
  <path fill="url(#gradient_0)" transform="matrix(0.656294 -0.567895 0.119878 0.138539 208.721 101.856)" d="M0 -63.9999C35.6224 -63.9999 64.5 -35.3461 64.5 7.64132e-05C64.5 35.3463 35.6224 64.0001 0 64.0001C-35.6224 64.0001 -64.5 35.3463 -64.5 4.56572e-05C-64.5 -35.3462 -35.6224 -63.9999 0 -63.9999Z"></path>
  <path fill="#6C88D9" transform="matrix(1.79976 0.0293645 -0.0293645 1.79976 224.979 114.371)" d="M0 -29.5C19.0538 -29.5 34.5 -16.1805 34.5 0.25C34.5 16.6805 19.0538 30 0 30C-19.0538 30 -34.5 16.6805 -34.5 0.25C-34.5 -16.1805 -19.0538 -29.5 0 -29.5Z"></path>
  <path fill="#91A8EB" transform="matrix(1.50913 0.0246226 -0.0246226 1.50913 265.065 277.068)" d="M0.249979 -81.5196C49.8787 -81.2985 84.5 -60 84.5 0C84.5 41.1452 46.78 74.5 0.25 74.5C-62.1254 74.5 -84 60.12 -84 0C-84 -71.2881 -62.1254 -81.5196 0.249979 -81.5196Z"></path>
  <clipPath id="cl_297">
    <path d="M269.159 132.92C335.976 134.01 420.271 171.564 418.51 279.55C417.301 353.601 348.31 415.725 264.567 414.358C152.306 412.527 113.485 382.804 115.25 274.602C117.343 146.3 177.878 131.431 269.159 132.92Z"></path>
  </clipPath>
  <g clip-path="url(#cl_297)">
    <path fill="#A6B8EF" transform="matrix(0.805953 0.0131497 -0.0151654 0.929491 320.724 241.947)" d="M0.249972 -81.5196C49.8787 -81.2985 84.5 -60 84.5 0C84.5 41.1452 67.1354 74.5 20.6054 74.5C-41.77 74.5 -84 60.12 -84 0C-84 -71.2881 -62.1254 -81.5197 0.249972 -81.5196Z"></path>
    <path fill="#C1CBE8" transform="matrix(0.197995 -0.202726 0.445703 0.435301 343.824 193.097)" d="M11.5671 -77.0972C58.0971 -77.0972 97.5959 -41.1452 97.5959 -2.62461e-05C97.5959 41.1452 73.4188 83.0524 26.8888 83.0524C-35.4866 83.0524 11.8086 60.12 11.8086 -2.49678e-05C11.8086 -41.1452 -34.9629 -77.0972 11.5671 -77.0972Z"></path>
    <path fill="#C1CBE8" transform="matrix(0.197995 -0.202726 0.184201 0.179903 388.266 257.453)" d="M48.93 -79.7642C80.6762 -79.0529 77.4946 -42.8889 62.8507 4.00565C48.2069 50.9001 -0.03942 91.2963 -20.4536 67.777C-40.8678 44.2576 -16.8141 31.8032 -0.458991 -5.13881C15.8961 -42.0808 17.1838 -80.4755 48.93 -79.7642Z"></path>
  </g>
  <path fill="#91A8EB" transform="matrix(1.37947 2.85496e-09 -2.85496e-09 1.37947 210.879 346.868)" d="M4.04783 -0.794121C22.2719 -0.576965 35.8843 -1.20636 35.7192 50.2871C35.2418 75.7706 27.5866 90.2698 17.0698 89.9955C6.55318 89.7213 -2.08591 89.8186 -12.4191 89.8929C-22.7992 89.8943 -30.1733 73.1178 -29.6958 47.6343C-29.8156 -6.06678 -14.1763 -1.01128 4.04783 -0.794121Z"></path>
  <path fill="#91A8EB" transform="matrix(1.79976 0.0293645 -0.0293645 1.79976 224.979 114.371)" d="M0 -22.5C14.6355 -22.5 26.5 -12.3145 26.5 0.25C26.5 12.8145 14.6355 23 0 23C-14.6355 23 -26.5 12.8145 -26.5 0.25C-26.5 -12.3145 -14.6355 -22.5 0 -22.5Z"></path>
  <path fill="#1B2B56" transform="matrix(1.78669 -0.21848 0.065544 0.536007 235.901 92.8784)" d="M-4.56348e-07 -2.50003C1.38071 -2.50003 2.5 -1.38074 2.5 -3.05176e-05C2.5 1.38068 1.38071 2.49997 -4.37722e-07 2.49997C-1.38071 2.49997 -2.5 1.38068 -2.5 -3.05176e-05C-2.5 -1.38074 -1.38071 -2.50003 -4.56348e-07 -2.50003Z"></path>
  <path fill="none" stroke="#1B2B56" stroke-width="0.5" stroke-linecap="round" stroke-linejoin="round" transform="matrix(1.78289 -0.247598 0.247598 1.78289 244.545 91.7668)" d="M1.98548 0.277981L6.02909 0.184244"></path>
  <path fill="#1B2B56" transform="matrix(1.78669 -0.21848 0.065544 0.536007 264.488 89.3827)" d="M-9.62988e-07 -2.49997C1.38071 -2.49997 2.5 -1.38068 2.5 3.05176e-05C2.5 1.38074 1.38071 2.50003 -9.44361e-07 2.50003C-1.38071 2.50003 -2.5 1.38074 -2.5 3.05176e-05C-2.5 -1.38068 -1.38071 -2.49997 -9.62988e-07 -2.49997Z"></path>
  <path fill="#354B89" transform="matrix(1.45897 -0.895021 0.934518 0.718834 256.422 82.2581)" d="M7.45058e-08 -2.5C1.38071 -2.5 2.5 -1.38071 2.5 0C2.5 1.38071 1.38071 2.5 -7.45058e-08 2.5C-1.38071 2.5 -2.5 1.38071 -2.5 0C-2.5 -1.38071 -1.38071 -2.5 7.45058e-08 -2.5Z"></path>
  <path fill="#354B89" transform="matrix(2.16453 0.282115 -0.62247 1.07759 241.182 83.287)" d="M3.8147e-06 -2.98532C1.68306 -2.98532 3.04744 -1.64874 3.04744 1.52588e-05C3.04744 1.64877 1.68306 2.98535 3.8147e-06 2.98535C-1.68305 2.98535 -3.04744 1.64877 -3.04744 1.52588e-05C-3.04744 -1.64874 -1.68305 -2.98532 3.8147e-06 -2.98532Z"></path>
  <clipPath id="cl_29a">
    <path d="M267.45 154.051C342.341 155.607 394.064 188.601 392.587 279.149C391.574 341.243 333.828 390.65 263.608 389.505C169.476 387.969 136.818 365.729 138.299 275C140.054 167.417 173.317 152.515 267.45 154.051Z"></path>
  </clipPath>
  <g clip-path="url(#cl_29a)">
    <path fill="#3A6D3D" transform="matrix(0.605664 -0.524085 0.698428 0.807145 163.348 106.736)" d="M74.2157 32.7782L86.5869 31.6617C86.5869 31.6617 73.8822 101.182 67.5039 101.264C67.5039 101.264 49.336 101.463 49.336 101.463C61.2865 101.485 74.2157 32.7782 74.2157 32.7782Z"></path>
  </g>
  <path fill="#9C4040" transform="matrix(0.365938 -0.316649 0.108543 0.125439 150.716 34.8219)" d="M0 -77C42.8021 -77 77.5 -42.5259 77.5 9.23872e-06C77.5 42.5259 42.8021 77 0 77C-42.8021 77 -77.5 42.5259 -77.5 -9.23872e-06C-77.5 -42.5259 -42.8021 -77 0 -77Z"></path>
  <path fill="#C1CBE8" transform="matrix(0.167375 -0.632967 0.886841 0.234507 184.471 111.221)" d="M0 -11.5C14.6355 -11.5 28.0061 -7.98328 28.0061 -1.63201C28.0061 4.71927 15.5059 0.400186 0.870357 0.400186C-13.7652 0.400184 -26.766 4.37689 -26.766 -1.97439C-26.766 -8.32566 -14.6355 -11.5 0 -11.5Z"></path>
  <path fill="#611E1E" transform="matrix(0.605664 -0.524085 0.138801 0.160406 208.721 101.856)" d="M-7.62939e-06 -77.0001C42.8021 -77.0001 77.5 -42.526 77.5 -6.10352e-05C76.8893 5.34044 70.0211 3.38978 69.8079 -1.63426C68.2223 -39.0048 22.4635 -53.8417 1.14806 -53.8417C-18.1129 -53.8417 -70.7895 -39.83 -69.4931 2.24303C-69.4637 3.19747 -74.2395 10.5247 -77.5 -6.10352e-05C-77.5 -42.526 -42.8021 -77.0001 -7.62939e-06 -77.0001Z"></path>
  <clipPath id="cl_29b">
    <path d="M122.356 59.3622L166.265 138.341L250.927 65.0822L179.076 10.2816L122.356 59.3622Z"></path>
  </clipPath>
  <g clip-path="url(#cl_29b)">
    <path fill="#BA4646" transform="matrix(0.439468 -0.380274 0.333216 0.385084 156.191 66.6784)" d="M-67.4615 -84L67.4615 -84L92.3226 83.7694L-67.4615 84L-67.4615 -84Z"></path>
  </g>
  <clipPath id="cl_29c">
    <path d="M142.358 25.1631C158.021 11.6098 174.46 4.9472 179.076 10.2816C183.692 15.616 174.737 30.9275 159.074 44.4807C143.411 58.0339 126.972 64.6966 122.356 59.3622C117.74 54.0277 126.695 38.7163 142.358 25.1631Z"></path>
  </clipPath>
  <g clip-path="url(#cl_29c)">
    <path fill="#BA4646" transform="matrix(0.439468 -0.380274 0.333216 0.385084 156.191 66.6784)" d="M-67.4615 -84L67.4615 -84L92.3226 83.7694L-67.4615 84L-67.4615 -84Z"></path>
  </g>
  <path fill="#993535" transform="matrix(0.605664 -0.524085 0.524085 0.605664 161.782 142.473)" d="M0 -2.28882e-05C0 -2.28882e-05 0 -13.0609 0 -13.0609C7.62939e-06 -24.308 35.8327 -33.7055 77.5 -33.393C119.167 -33.0805 155 -24.308 155 -13.0609C155 -13.0609 155 -1.52588e-05 155 -1.52588e-05C155 -10.5379 119.167 -20.393 77.5 -20.393C35.8327 -20.393 0 -10.5379 0 -2.28882e-05Z"></path>
  <path fill="#669969" transform="matrix(0.605664 -0.524085 0.644995 0.745395 168.757 112.986)" d="M-0.506065 0.0225983C3.17321 -3.90973 9.28303 -5.30724 18.0791 -2.24782C23.7018 23.1815 52.5776 101.462 67.2296 101.254C62.0975 101.327 59.1898 101.368 46.7011 101.546C36.2156 101.695 2.7315 5.31647 -0.506065 0.0225983Z"></path>
  <path fill="none" stroke="black" stroke-width="7" stroke-linecap="round" stroke-linejoin="round" transform="matrix(2.15345 4.45679e-09 -4.42021e-09 2.13577 150.243 285.567)" d="M22.6299 -24.2753C22.583 -18.0347 21.8694 -8.2941 17.1336 6.25835C7.76836 33.4938 -7.16172 54.3191 -30.4454 44.3896C-45.0236 38.0625 -46.0178 14.6936 -36.6632 -12.5107C-29.9556 -34.0275 -15.4825 -50.4589 -1.87145 -56.847"></path>
  <path fill="#6C88D9" transform="matrix(2.15345 4.45679e-09 -4.42021e-09 2.13577 150.243 285.567)" d="M18.5891 -57.3105C20.9152 -52.1874 23.6493 -36.0634 22.7655 -32.2382C21.8817 -28.413 24.8582 -17.4784 17.1336 6.25835C7.76836 33.4938 -7.16172 54.3191 -30.4454 44.3896C-45.0236 38.0625 -46.0178 14.6936 -36.6632 -12.5107C-26.2173 -46.0195 3.06231 -67.1947 18.5891 -57.3105Z"></path>
  <path fill="#91A8EB" transform="matrix(1.67686 3.47045e-09 -4.32784e-09 2.09114 154.233 279.854)" d="M19.1872 -51.1446C40.6084 -46.5686 26.3385 -23.6535 15.103 3.67175C3.61876 30.7645 -17.2719 50.3862 -32.0295 46.6812C-46.7871 42.9761 -49.1991 18.5779 -39.242 -9.00178C-29.6751 -36.4279 -2.23392 -55.7207 19.1872 -51.1446Z"></path>
  <path fill="none" stroke="white" stroke-width="5" stroke-linecap="round" stroke-linejoin="round" transform="matrix(1.5 0 0 1.5 158.539 362.24)" d=""></path>
</svg>