<?xml version="1.0" encoding="utf-8"?>
<svg xmlns="http://www.w3.org/2000/svg" xmlns:xlink="http://www.w3.org/1999/xlink" width="512" height="512">
  <path fill="none" stroke="black" stroke-width="7" stroke-linejoin="round" transform="matrix(1.8 3.72529e-09 -3.72529e-09 1.8 210.879 409.868)" d="M51.7484 -47.4934C69.9696 -47.1006 82.4383 -39.574 81.8032 4.71099C81.8285 33.7285 74.3792 43.6716 63.8657 43.296C53.3521 42.9204 44.7125 42.9343 34.3791 42.9091C23.9177 42.703 18.6509 31.509 18.6261 2.47846C18.9974 -44.0167 33.5273 -47.8863 51.7484 -47.4934Z"></path>
  <path fill="none" stroke="black" stroke-width="7" stroke-linejoin="round" transform="matrix(-2.15345 -3.29802e-07 -3.27096e-07 2.13577 356.137 275.956)" d="M18.4409 -58.6413C21.8025 -54.1404 27.9022 -38.9825 27.8524 -35.0552C27.8027 -31.128 32.1869 -22.2055 30.8637 2.12725C29.5965 30.9889 25.1223 54.0702 -0.140278 53.1044C-15.9961 52.3967 -27.4263 28.4436 -26.1591 -0.418027C-24.5704 -36.6022 1.17324 -64.9387 18.4409 -58.6413Z"></path>
  <path fill="none" stroke="black" stroke-width="7" stroke-linejoin="round" transform="matrix(1.79976 0.0293645 -0.0293645 1.79976 266.431 277.122)" d="M0.209625 -80.0966C37.3348 -80.0966 84.5 -60 84.5 -9.53674e-07C84.5 41.1452 46.7396 76.2788 0.209625 76.2788C-62.1658 76.2788 -84 60.12 -84 -9.53674e-07C-84 -71.2881 -50.5087 -80.0966 0.209625 -80.0966Z"></path>
  <path fill="none" stroke="black" stroke-width="7" stroke-linejoin="round" transform="matrix(1.53671 3.18039e-09 -3.72529e-09 1.8 308.979 398.168)" d="M-53.737 -46.7978C-35.5755 -48.0988 -16.5593 -40.6692 -15.1289 9.79935C-15.5504 24.7078 -25.5349 49.3956 -39.124 48.0644C-52.7129 46.7331 -58.8086 46.136 -70.9311 44.9484C-83.0535 43.7608 -81.2569 22.2226 -80.8536 9.40469C-82.6868 -41.1878 -71.8986 -45.4969 -53.737 -46.7978Z"></path>
  <path fill="#6C88D9" transform="matrix(-2.15345 -3.29802e-07 -3.27096e-07 2.13577 356.137 275.956)" d="M18.4409 -58.6413C21.8025 -54.1404 27.9022 -38.9825 27.8524 -35.0552C27.8027 -31.128 32.1869 -22.2055 30.8637 2.12725C29.5965 30.9889 25.1223 54.0702 -0.140278 53.1044C-15.9961 52.3967 -27.4263 28.4436 -26.1591 -0.418027C-24.5704 -36.6022 1.17324 -64.9387 18.4409 -58.6413Z"></path>
  <path fill="#5170C8" transform="matrix(1.53671 3.18039e-09 -3.72529e-09 1.8 308.979 398.168)" d="M-53.737 -46.7978C-35.5755 -48.0988 -16.5593 -40.6692 -15.1289 9.79935C-15.5504 24.7078 -25.5349 49.3956 -39.124 48.0644C-52.7129 46.7331 -58.8086 46.136 -70.9311 44.9484C-83.0535 43.7608 -81.2569 22.2226 -80.8536 9.40469C-82.6868 -41.1878 -71.8986 -45.4969 -53.737 -46.7978Z"></path>
  <path fill="#839BE0" transform="matrix(1.20328 2.49031e-09 -2.91698e-09 1.40944 308.979 398.168)" d="M-67.3834 -47.1029C-49.2218 -48.4039 -30.5972 -40.8574 -28.9764 14.0817C-30.5876 33.0155 -42.6647 48.8292 -56.2537 47.4979C-69.8428 46.1667 -69.6759 46.2339 -81.7983 45.0463C-93.9208 43.8588 -96.2942 30.5303 -94.7011 13.6871C-96.7247 -41.3761 -85.545 -45.802 -67.3834 -47.1029Z"></path>
  <path fill="#6C88D9" transform="matrix(1.8 3.72529e-09 -3.72529e-09 1.8 210.879 409.868)" d="M51.7484 -47.4934C69.9696 -47.1006 82.4383 -39.574 81.8032 4.71099C81.8285 33.7285 74.3792 43.6716 63.8657 43.296C53.3521 42.9204 44.7125 42.9343 34.3791 42.9091C23.9177 42.703 18.6509 31.509 18.6261 2.47846C18.9974 -44.0167 33.5273 -47.8863 51.7484 -47.4934Z"></path>
  <path fill="#91A8EB" transform="matrix(-1.67686 -2.56813e-07 -3.2026e-07 2.09114 352.147 270.243)" d="M20.296 -52.2157C42.4425 -51.4295 34.1777 -26.8686 30.9662 1.63712C27.7548 30.1428 14.5825 53.0514 -0.866322 52.503C-16.3152 51.9546 -27.1688 28.2652 -25.5849 -0.425453C-24.001 -29.1162 -1.85059 -53.0019 20.296 -52.2157Z"></path>
  <path fill="none" stroke="black" stroke-width="7" stroke-miterlimit="4" transform="matrix(1.79976 0.0293645 -0.0293645 1.79976 224.98 114.424)" d="M0 -29.5C19.0538 -29.5 34.5 -16.1805 34.5 0.25C34.5 16.6805 19.0538 30 0 30C-19.0538 30 -34.5 16.6805 -34.5 0.25C-34.5 -16.1805 -19.0538 -29.5 0 -29.5Z"></path>
  <path fill="none" stroke="black" stroke-width="7" stroke-linejoin="round" transform="translate(256 256)" d="M-24.8073 -162.177L-18.0942 -169.562C-18.0942 -169.562 22.7658 -106.791 18.9604 -103.381C18.9604 -103.381 18.3205 -102.811 17.3512 -101.947"></path>
  <path fill="none" stroke="black" stroke-width="7" stroke-linejoin="round" transform="translate(256 256)" d="M7.03467 -104.412C1.65155 -119.068 -13.5691 -144.235 -20.8421 -155.901"></path>
  <path fill="none" stroke="black" stroke-width="7" stroke-linejoin="round" transform="translate(256 256)" d="M18.0666 -102.603C15.407 -100.219 13.3886 -98.41 6.54031 -92.2713C0.285751 -86.6649 -82.1581 -140.957 -87.5335 -143.206C-87.8414 -148.065 -85.0423 -152.309 -77.7415 -154.638C-57.9343 -138.63 10.0456 -95.4134 18.7854 -103.248C18.5384 -103.026 18.3 -102.812 18.0666 -102.603"></path>
  <path fill="#6C88D9" transform="matrix(1.79976 0.0293645 -0.0293645 1.79976 266.431 277.122)" d="M0.209625 -80.0966C37.3348 -80.0966 84.5 -60 84.5 -9.53674e-07C84.5 41.1452 46.7396 76.2788 0.209625 76.2788C-62.1658 76.2788 -84 60.12 -84 -9.53674e-07C-84 -71.2881 -50.5087 -80.0966 0.209625 -80.0966Z"></path>
  <path fill="#3A6D3D" transform="matrix(0.605664 -0.524085 0.698428 0.807145 163.35 106.262)" d="M74.2156 32.7782L86.5869 31.6617C86.5869 31.6617 73.8823 101.182 67.5039 101.264C67.5039 101.264 49.336 101.463 49.336 101.463C61.2865 101.485 74.2156 32.7782 74.2156 32.7782Z"></path>
  <path fill="none" stroke="black" stroke-width="7" stroke-miterlimit="4" transform="translate(256 256)" d="M-64.7782 -174.843C-38.8545 -197.275 -13.0542 -209.93 -7.15154 -203.108C-1.24891 -196.287 -17.4792 -172.572 -43.4029 -150.14C-69.3266 -127.708 -95.1269 -115.054 -101.03 -121.875C-106.932 -128.696 -90.7019 -152.411 -64.7782 -174.843Z"></path>
  <path fill="#585555" transform="matrix(0.605664 -0.524085 0.138801 0.160406 201.909 93.5085)" d="M7.62939e-06 -77C42.8021 -77 77.5 -42.5259 77.5 0C77.5 42.5259 42.8021 77 7.62939e-06 77C-42.8021 77 -77.5 42.5259 -77.5 0C-77.5 -42.5259 -42.8021 -77 7.62939e-06 -77Z"></path>
  <path fill="none" stroke="black" stroke-width="7" stroke-linejoin="round" transform="translate(256 256)" d="M-133.643 -197.112L-97.4628 -132.036"></path>
  <path fill="none" stroke="black" stroke-width="7" stroke-linejoin="round" transform="translate(256 256)" d="M-6.46177 -192.452L-76.9225 -246.193L-94.021 -231.397"></path>
  <path fill="none" stroke="black" stroke-width="8" stroke-miterlimit="4" transform="translate(256 256)" d="M-113.641 -231.311C-97.9776 -244.864 -81.5384 -251.527 -76.9225 -246.193C-72.3066 -240.858 -81.2619 -225.547 -96.9249 -211.993C-112.588 -198.44 -129.027 -191.778 -133.643 -197.112C-138.259 -202.446 -129.303 -217.758 -113.641 -231.311Z"></path>
  <path fill="#9C4040" transform="matrix(0.605664 -0.524085 0.524085 0.605664 108.262 54.8369)" d="M9.99828 15.3403L-13.0686 125.78L126.715 125.78L103.648 15.3403L9.99828 15.3403Z"></path>
  <path fill="none" stroke="black" stroke-width="7" stroke-miterlimit="4" transform="translate(256 256)" d="M-57.9651 -166.969C-32.0414 -189.401 -6.24105 -202.056 -0.338428 -195.234C5.5642 -188.413 -10.6661 -164.699 -36.5898 -142.267C-62.5134 -119.835 -88.3138 -107.18 -94.2164 -114.001C-100.119 -120.823 -83.8887 -144.537 -57.9651 -166.969Z"></path>
  <path fill="none" stroke="black" stroke-width="7" stroke-linejoin="round" transform="translate(256 256)" d="M-94.2164 -114.001C-94.2164 -114.001 -101.061 -121.912 -101.061 -121.912C-102.696 -123.8 -102.587 -127.047 -101.035 -131.214"></path>
  <path fill="none" stroke="black" stroke-width="7" stroke-linejoin="round" transform="translate(256 256)" d="M-7.77444 -203.708C-7.55913 -203.539 -7.36194 -203.351 -7.18345 -203.145C-7.18345 -203.145 -1.43315 -196.5 -0.473465 -195.391"></path>
  <path fill="#611E1E" transform="matrix(0.605664 -0.524085 0.138801 0.160406 208.723 101.382)" d="M0.749693 55.1992C17.8705 55.1992 66.8714 46.0031 69.8043 0.434675C69.9644 -2.05384 77.4999 -10.588 77.5 0C77.5 42.5259 42.8021 77 0 77C-42.8021 77 -77.5 42.5259 -77.5 0C-76.7271 -10.3619 -70.1795 -1.22879 -69.733 1.90431C-67.4205 42.6838 -17.7408 55.1992 0.749693 55.1992Z"></path>
  <defs>
    <linearGradient id="gradient_0" gradientUnits="userSpaceOnUse" x1="8.5369253" y1="175.39754" x2="0.96320713" y2="-480.78424">
      <stop offset="0" stop-color="#583636"></stop>
      <stop offset="0.015997024" stop-color="#583636"></stop>
      <stop offset="0.98742092" stop-color="#EE1010"></stop>
      <stop offset="1" stop-color="#EE1010"></stop>
    </linearGradient>
  </defs>
  <path fill="url(#gradient_0)" transform="matrix(0.656294 -0.567895 0.119878 0.138539 208.723 101.382)" d="M0 -64C35.6224 -64 64.5 -35.3462 64.5 1.5378e-05C64.5 35.3462 35.6224 64 0 64C-35.6224 64 -64.5 35.3462 -64.5 -1.5378e-05C-64.5 -35.3462 -35.6224 -64 0 -64Z"></path>
  <path fill="#6C88D9" transform="matrix(1.79976 0.0293645 -0.0293645 1.79976 224.98 114.424)" d="M0 -29.5C19.0538 -29.5 34.5 -16.1805 34.5 0.25C34.5 16.6805 19.0538 30 0 30C-19.0538 30 -34.5 16.6805 -34.5 0.25C-34.5 -16.1805 -19.0538 -29.5 0 -29.5Z"></path>
  <path fill="#91A8EB" transform="matrix(1.50913 0.0246226 -0.0246226 1.50913 265.067 277.122)" d="M0.249979 -81.5196C49.8787 -81.2985 84.5 -60 84.5 0C84.5 41.1452 46.78 74.5 0.25 74.5C-62.1254 74.5 -84 60.12 -84 0C-84 -71.2881 -62.1254 -81.5196 0.249979 -81.5196Z"></path>
  <clipPath id="cl_183">
    <path d="M269.16 132.973C335.977 134.064 420.273 171.618 418.511 279.603C417.303 353.655 348.311 415.778 264.569 414.412C152.308 412.58 113.486 382.857 115.251 274.655C117.345 146.354 177.88 131.484 269.16 132.973Z"></path>
  </clipPath>
  <g clip-path="url(#cl_183)">
    <path fill="#A6B8EF" transform="matrix(0.805953 0.0131497 -0.0151654 0.929491 320.725 242)" d="M0.249972 -81.5196C49.8787 -81.2985 84.5 -60 84.5 0C84.5 41.1452 67.1354 74.5 20.6054 74.5C-41.77 74.5 -84 60.12 -84 0C-84 -71.2881 -62.1254 -81.5197 0.249972 -81.5196Z"></path>
    <path fill="#C1CBE8" transform="matrix(0.197995 -0.202726 0.445703 0.435301 343.825 193.151)" d="M11.5671 -77.0972C58.0971 -77.0972 97.5959 -41.1452 97.5959 -1.28947e-05C97.5959 41.1452 73.4188 83.0524 26.8888 83.0524C-35.4866 83.0524 11.8086 60.12 11.8086 -1.16163e-05C11.8086 -41.1452 -34.9629 -77.0972 11.5671 -77.0972Z"></path>
    <path fill="#C1CBE8" transform="matrix(0.197995 -0.202726 0.184201 0.179903 388.267 257.507)" d="M48.93 -79.7643C80.6762 -79.053 77.4946 -42.8889 62.8507 4.00562C48.2069 50.9001 -0.03942 91.2963 -20.4536 67.777C-40.8678 44.2576 -16.8141 31.8032 -0.458991 -5.13884C15.8961 -42.0808 17.1838 -80.4756 48.93 -79.7643Z"></path>
  </g>
  <path fill="#91A8EB" transform="matrix(1.37947 2.85496e-09 -2.85496e-09 1.37947 210.879 346.868)" d="M67.2226 -2.3257C85.4438 -1.93285 99.0616 -2.43103 98.4001 49.0584C97.677 74.5362 89.8824 88.9609 79.3688 88.5853C68.8553 88.2098 60.2157 88.2237 49.8822 88.1984C39.5026 88.0998 32.2905 71.2529 33.0136 45.7752C33.4116 -7.92458 49.0014 -2.71851 67.2226 -2.3257Z"></path>
  <path fill="#91A8EB" transform="matrix(1.79976 0.0293645 -0.0293645 1.79976 224.98 114.424)" d="M0 -22.5C14.6355 -22.5 26.5 -12.3145 26.5 0.25C26.5 12.8145 14.6355 23 0 23C-14.6355 23 -26.5 12.8145 -26.5 0.25C-26.5 -12.3145 -14.6355 -22.5 0 -22.5Z"></path>
  <path fill="#1B2B56" transform="matrix(1.78669 -0.21848 0.065544 0.536007 236.779 91.617)" d="M-1.05239e-06 -2.5C1.38071 -2.5 2.5 -1.38071 2.5 0C2.5 1.38071 1.38071 2.5 -1.03377e-06 2.5C-1.38071 2.5 -2.5 1.38071 -2.5 0C-2.5 -1.38071 -1.38071 -2.5 -1.05239e-06 -2.5Z"></path>
  <path fill="none" stroke="#1B2B56" stroke-width="0.5" stroke-linecap="round" stroke-linejoin="round" transform="matrix(1.78289 -0.247598 0.247598 1.78289 245.423 90.5054)" d="M1.98548 0.277981L6.02909 0.184244"></path>
  <path fill="#1B2B56" transform="matrix(1.78669 -0.21848 0.065544 0.536007 265.366 88.1213)" d="M-1.91666e-06 -2.5C1.38071 -2.5 2.5 -1.38071 2.5 0C2.5 1.38071 1.38071 2.5 -1.89804e-06 2.5C-1.38071 2.5 -2.5 1.38071 -2.5 0C-2.5 -1.38071 -1.38071 -2.5 -1.91666e-06 -2.5Z"></path>
  <path fill="#354B89" transform="matrix(1.45897 -0.895021 0.934518 0.718834 257.3 80.9967)" d="M7.45058e-08 -2.49998C1.38071 -2.49998 2.5 -1.3807 2.5 1.52588e-05C2.5 1.38073 1.38071 2.50002 -7.45058e-08 2.50002C-1.38071 2.50002 -2.5 1.38073 -2.5 1.52588e-05C-2.5 -1.3807 -1.38071 -2.49998 7.45058e-08 -2.49998Z"></path>
  <path fill="#354B89" transform="matrix(2.16453 0.282115 -0.62247 1.07759 242.06 82.0256)" d="M3.8147e-06 -2.98532C1.68306 -2.98532 3.04744 -1.64874 3.04744 1.52588e-05C3.04744 1.64877 1.68306 2.98535 3.8147e-06 2.98535C-1.68305 2.98535 -3.04744 1.64877 -3.04744 1.52588e-05C-3.04744 -1.64874 -1.68305 -2.98532 3.8147e-06 -2.98532Z"></path>
  <clipPath id="cl_186">
    <path d="M267.451 154.105C342.342 155.66 394.065 188.655 392.588 279.203C391.575 341.296 333.829 390.704 263.61 389.558C169.477 388.022 136.82 365.783 138.3 275.054C140.055 167.471 173.319 152.569 267.451 154.105Z"></path>
  </clipPath>
  <g clip-path="url(#cl_186)">
    <path fill="#3A6D3D" transform="matrix(0.605664 -0.524085 0.698428 0.807145 163.35 106.262)" d="M74.2156 32.7782L86.5869 31.6617C86.5869 31.6617 73.8823 101.182 67.5039 101.264C67.5039 101.264 49.336 101.463 49.336 101.463C61.2865 101.485 74.2156 32.7782 74.2156 32.7782Z"></path>
  </g>
  <path fill="#9C4040" transform="matrix(0.365938 -0.316649 0.108543 0.125439 150.717 34.3477)" d="M-1.52588e-05 -77C42.8021 -77 77.5 -42.5259 77.5 9.23872e-06C77.5 42.5259 42.8021 77 -1.52588e-05 77C-42.8021 77 -77.5 42.5259 -77.5 -9.23872e-06C-77.5 -42.5259 -42.8021 -77 -1.52588e-05 -77Z"></path>
  <path fill="#C1CBE8" transform="matrix(0.167375 -0.632967 0.886841 0.234507 184.472 111.274)" d="M0 -11.5C14.6355 -11.5 28.0061 -7.98328 28.0061 -1.63201C28.0061 4.71927 15.5059 0.400186 0.870357 0.400186C-13.7652 0.400184 -26.766 4.37689 -26.766 -1.97439C-26.766 -8.32566 -14.6355 -11.5 0 -11.5Z"></path>
  <path fill="#611E1E" transform="matrix(0.605664 -0.524085 0.138801 0.160406 208.723 101.382)" d="M0 -77C42.8021 -77 77.5 -42.5259 77.5 0C76.8894 5.3405 70.0211 3.38985 69.8079 -1.63419C68.2223 -39.0047 22.4635 -53.8416 1.14807 -53.8416C-18.1129 -53.8416 -70.7895 -39.8299 -69.4931 2.24309C-69.4637 3.19753 -74.2395 10.5248 -77.5 0C-77.5 -42.5259 -42.8021 -77 0 -77Z"></path>
  <clipPath id="cl_187">
    <path d="M122.357 58.888L166.266 137.866L250.928 64.608L179.078 9.80742L122.357 58.888Z"></path>
  </clipPath>
  <g clip-path="url(#cl_187)">
    <path fill="#BA4646" transform="matrix(0.439468 -0.380274 0.333216 0.385084 156.192 66.2043)" d="M-67.4615 -84L67.4615 -84L92.3226 83.7694L-67.4615 84L-67.4615 -84Z"></path>
  </g>
  <clipPath id="cl_188">
    <path d="M142.359 24.6889C158.022 11.1357 174.462 4.47302 179.078 9.80743C183.693 15.1418 174.738 30.4533 159.075 44.0065C143.412 57.5597 126.973 64.2224 122.357 58.888C117.741 53.5536 126.697 38.2421 142.359 24.6889Z"></path>
  </clipPath>
  <g clip-path="url(#cl_188)">
    <path fill="#BA4646" transform="matrix(0.439468 -0.380274 0.333216 0.385084 156.192 66.2043)" d="M-67.4615 -84L67.4615 -84L92.3226 83.7694L-67.4615 84L-67.4615 -84Z"></path>
  </g>
  <path fill="#993535" transform="matrix(0.605664 -0.524085 0.524085 0.605664 161.784 141.999)" d="M-1.52588e-05 -7.62939e-06C-1.52588e-05 -7.62939e-06 -7.62939e-06 -13.0609 7.62939e-06 -13.0609C1.52588e-05 -24.308 35.8327 -33.7055 77.5 -33.393C119.167 -33.0805 155 -24.308 155 -13.0609C155 -13.0609 155 -1.52588e-05 155 -1.52588e-05C155 -10.5379 119.167 -20.393 77.5 -20.393C35.8327 -20.393 -7.62939e-06 -10.5379 -1.52588e-05 -7.62939e-06Z"></path>
  <path fill="#669969" transform="matrix(0.605664 -0.524085 0.644995 0.745395 168.758 112.512)" d="M-0.506058 0.0225906C3.17321 -3.90974 9.28305 -5.30725 18.0792 -2.24783C23.7018 23.1815 52.5776 101.462 67.2296 101.254C62.0975 101.327 59.1898 101.368 46.7011 101.546C36.2156 101.695 2.73151 5.31646 -0.506058 0.0225906Z"></path>
  <path fill="none" stroke="black" stroke-width="7" stroke-linecap="round" stroke-linejoin="round" transform="matrix(2.15345 4.45679e-09 -4.42021e-09 2.13577 150.244 285.62)" d="M29.7804 -34.8604C32.5607 -29.9607 36.4445 -22.2618 40.6919 -9.24139C50.4103 17.8933 57.035 39.22 33.7459 49.1364C19.0859 55.2683 -3.21663 37.4177 -12.9421 10.2631C-20.634 -12.4792 -16.7817 -35.9869 -8.07627 -49.5671"></path>
  <path fill="#6C88D9" transform="matrix(2.15345 4.45679e-09 -4.42021e-09 2.13577 150.244 285.62)" d="M8.96727 -61.2019C13.6365 -58.1062 24.4449 -45.907 25.7105 -42.1925C26.976 -38.4779 33.2805 -31.9611 40.6919 -9.24139C50.4103 17.8933 57.035 39.22 33.7459 49.1364C19.0859 55.2683 -3.21663 37.4177 -12.9421 10.2631C-24.7339 -24.6013 -9.39515 -61.2645 8.96727 -61.2019Z"></path>
  <path fill="#91A8EB" transform="matrix(1.67686 3.47045e-09 -4.32784e-09 2.09114 154.234 279.907)" d="M10.2666 -54.8481C31.4485 -60.0918 31.4318 -35.1113 41.9509 -8.62403C54.1848 18.1164 59.8989 40.6117 46.3007 46.5165C32.7024 52.4212 3.7771 35.1642 -10.0192 8.81247C-22.9795 -18.9814 -10.9152 -49.6045 10.2666 -54.8481Z"></path>
  <path fill="none" stroke="white" stroke-width="5" stroke-linecap="round" stroke-linejoin="round" transform="matrix(1.5 0 0 1.5 158.539 362.24)" d=""></path>
</svg>