<?xml version="1.0" encoding="utf-8"?>
<svg xmlns="http://www.w3.org/2000/svg" xmlns:xlink="http://www.w3.org/1999/xlink" width="512" height="512">
  <path fill="none" stroke="black" stroke-width="7" stroke-linejoin="round" transform="matrix(1.8 3.72529e-09 -3.72529e-09 1.8 210.879 409.868)" d="M23.2848 -46.806C41.5078 -46.5155 54.0186 -39.0591 53.6323 5.22874C53.8207 34.2457 46.4274 44.2305 35.9119 43.9139C25.3964 43.5974 16.757 43.6599 6.42354 43.6928C-4.03875 43.5454 -9.36837 32.3812 -9.55629 3.35123C-9.44621 -43.1453 5.06168 -47.0964 23.2848 -46.806Z"></path>
  <path fill="none" stroke="black" stroke-width="7" stroke-linejoin="round" transform="matrix(-2.15345 -3.29802e-07 -3.27096e-07 2.13577 356.442 288.485)" d="M19.3793 -57.2086C22.2124 -52.352 26.5659 -36.5939 26.0743 -32.6977C25.5827 -28.8015 28.9338 -19.4349 24.8795 4.58909C20.3708 33.1191 13.3266 55.539 -11.6639 51.6877C-27.3375 49.1696 -35.9968 24.063 -31.4881 -4.46696C-25.8355 -40.2353 2.93232 -65.4418 19.3793 -57.2086Z"></path>
  <path fill="none" stroke="black" stroke-width="7" stroke-linejoin="round" transform="matrix(1.79976 0.0293645 -0.0293645 1.79976 266.737 289.651)" d="M0.209624 -80.0966C37.3348 -80.0966 84.5 -60 84.5 0C84.5 41.1452 46.7396 76.2788 0.209624 76.2788C-62.1658 76.2788 -84 60.12 -84 0C-84 -71.2881 -50.5087 -80.0966 0.209624 -80.0966Z"></path>
  <path fill="none" stroke="black" stroke-width="7" stroke-linejoin="round" transform="matrix(1.53671 3.18039e-09 -3.72529e-09 1.8 308.979 398.168)" d="M-28.9481 -46.9766C-11.6843 -51.9637 16.7694 -43.2395 22.8799 7.57407C20.1815 24.7516 0.192661 50.917 -12.4463 46.4523C-25.0853 41.9876 -30.7548 39.9849 -42.0298 36.002C-53.3047 32.0191 -41.5345 15.5894 -39.0691 6.31998C-45.997 -38.7708 -46.212 -41.9895 -28.9481 -46.9766Z"></path>
  <path fill="#6C88D9" transform="matrix(-2.15345 -3.29802e-07 -3.27096e-07 2.13577 356.442 288.485)" d="M19.3793 -57.2086C22.2124 -52.352 26.5659 -36.5939 26.0743 -32.6977C25.5827 -28.8015 28.9338 -19.4349 24.8795 4.58909C20.3708 33.1191 13.3266 55.539 -11.6639 51.6877C-27.3375 49.1696 -35.9968 24.063 -31.4881 -4.46696C-25.8355 -40.2353 2.93232 -65.4418 19.3793 -57.2086Z"></path>
  <path fill="#5170C8" transform="matrix(1.53671 3.18039e-09 -3.72529e-09 1.8 308.979 398.168)" d="M-28.9481 -46.9766C-11.6843 -51.9637 16.7694 -43.2395 22.8799 7.57407C20.1815 24.7516 0.192661 50.917 -12.4463 46.4523C-25.0853 41.9876 -30.7548 39.9849 -42.0298 36.002C-53.3047 32.0191 -41.5345 15.5894 -39.0691 6.31998C-45.997 -38.7708 -46.212 -41.9895 -28.9481 -46.9766Z"></path>
  <path fill="#839BE0" transform="matrix(1.20328 2.49031e-09 -2.91698e-09 1.40944 308.979 398.168)" d="M-32.1991 -47.9571C-14.9352 -52.9443 13.5956 -44.0033 20.0896 11.0204C15.4317 31.8779 -4.83844 48.9636 -17.4774 44.4989C-30.1164 40.0342 -29.9775 40.138 -41.2524 36.1551C-52.5274 32.1722 -46.2843 22.7157 -41.8594 9.76631C-49.1709 -39.5346 -49.4629 -42.97 -32.1991 -47.9571Z"></path>
  <path fill="#6C88D9" transform="matrix(1.8 3.72529e-09 -3.72529e-09 1.8 210.879 409.868)" d="M23.2848 -46.806C41.5078 -46.5155 54.0186 -39.0591 53.6323 5.22874C53.8207 34.2457 46.4274 44.2305 35.9119 43.9139C25.3964 43.5974 16.757 43.6599 6.42354 43.6928C-4.03875 43.5454 -9.36837 32.3812 -9.55629 3.35123C-9.44621 -43.1453 5.06168 -47.0964 23.2848 -46.806Z"></path>
  <path fill="#91A8EB" transform="matrix(-1.67686 -2.56813e-07 -3.2026e-07 2.09114 352.452 282.772)" d="M20.8075 -50.8761C42.6996 -48.0788 31.0108 -24.429 23.7845 3.6C16.5581 31.629 0.227749 53.1904 -15.0436 51.2391C-30.3149 49.2878 -37.7446 24.7635 -32.109 -3.59747C-26.4735 -31.9585 -1.08458 -53.6733 20.8075 -50.8761Z"></path>
  <path fill="none" stroke="black" stroke-width="7" stroke-miterlimit="4" transform="matrix(1.79976 0.0293645 -0.0293645 1.79976 225.285 126.953)" d="M0 -29.5C19.0538 -29.5 34.5 -16.1805 34.5 0.25C34.5 16.6805 19.0538 30 0 30C-19.0538 30 -34.5 16.6805 -34.5 0.25C-34.5 -16.1805 -19.0538 -29.5 0 -29.5Z"></path>
  <path fill="none" stroke="black" stroke-width="7" stroke-linejoin="round" transform="translate(256 256)" d="M-24.5018 -147.965L-17.7887 -155.349C-17.7887 -155.349 23.0713 -92.5783 19.2659 -89.1688C19.2659 -89.1688 18.626 -88.5985 17.6567 -87.7348"></path>
  <path fill="none" stroke="black" stroke-width="7" stroke-linejoin="round" transform="translate(256 256)" d="M7.34015 -90.1997C1.95702 -104.856 -13.2636 -130.022 -20.5367 -141.688"></path>
  <path fill="none" stroke="black" stroke-width="7" stroke-linejoin="round" transform="translate(256 256)" d="M18.372 -88.3909C15.7125 -86.0069 13.6941 -84.1976 6.84579 -78.059C0.591232 -72.4526 -81.8526 -126.744 -87.228 -128.993C-87.5359 -133.853 -84.7368 -138.097 -77.436 -140.426C-57.6288 -124.418 10.3511 -81.2011 19.0909 -89.0352C18.8439 -88.8138 18.6055 -88.6001 18.372 -88.3908"></path>
  <path fill="#6C88D9" transform="matrix(1.79976 0.0293645 -0.0293645 1.79976 266.737 289.651)" d="M0.209624 -80.0966C37.3348 -80.0966 84.5 -60 84.5 0C84.5 41.1452 46.7396 76.2788 0.209624 76.2788C-62.1658 76.2788 -84 60.12 -84 0C-84 -71.2881 -50.5087 -80.0966 0.209624 -80.0966Z"></path>
  <path fill="#3A6D3D" transform="matrix(0.605664 -0.524085 0.698428 0.807145 163.655 120.474)" d="M74.2157 32.7782L86.5869 31.6617C86.5869 31.6617 73.8823 101.182 67.5039 101.264C67.5039 101.264 49.336 101.463 49.336 101.463C61.2865 101.485 74.2157 32.7782 74.2157 32.7782Z"></path>
  <path fill="none" stroke="black" stroke-width="7" stroke-miterlimit="4" transform="translate(256 256)" d="M-64.4727 -160.631C-38.549 -183.062 -12.7487 -195.717 -6.84605 -188.896C-0.943428 -182.074 -17.1737 -158.36 -43.0974 -135.928C-69.0211 -113.496 -94.8214 -100.841 -100.724 -107.663C-106.627 -114.484 -90.3964 -138.199 -64.4727 -160.631Z"></path>
  <path fill="#585555" transform="matrix(0.605664 -0.524085 0.138801 0.160406 202.215 107.721)" d="M-7.62939e-06 -77C42.8021 -77 77.5 -42.5259 77.5 0C77.5 42.5259 42.8021 77 -7.62939e-06 77C-42.8021 77 -77.5 42.5259 -77.5 0C-77.5 -42.5259 -42.8021 -77 -7.62939e-06 -77Z"></path>
  <path fill="none" stroke="black" stroke-width="7" stroke-linejoin="round" transform="translate(256 256)" d="M-133.337 -182.9L-97.1573 -117.823"></path>
  <path fill="none" stroke="black" stroke-width="7" stroke-linejoin="round" transform="translate(256 256)" d="M-6.15627 -178.24L-76.617 -231.98L-93.7155 -217.185"></path>
  <path fill="none" stroke="black" stroke-width="8" stroke-miterlimit="4" transform="translate(256 256)" d="M-113.335 -217.099C-97.6721 -230.652 -81.2329 -237.315 -76.617 -231.98C-72.0011 -226.646 -80.9565 -211.334 -96.6194 -197.781C-112.282 -184.228 -128.722 -177.565 -133.337 -182.9C-137.953 -188.234 -128.998 -203.546 -113.335 -217.099Z"></path>
  <path fill="#9C4040" transform="matrix(0.605664 -0.524085 0.524085 0.605664 108.567 69.0492)" d="M9.99827 15.3403L-13.0686 125.78L126.715 125.78L103.648 15.3403L9.99827 15.3403Z"></path>
  <path fill="none" stroke="black" stroke-width="7" stroke-miterlimit="4" transform="translate(256 256)" d="M-57.6596 -152.757C-31.7359 -175.189 -5.93557 -187.844 -0.0329475 -181.022C5.86968 -174.201 -10.3606 -150.486 -36.2843 -128.054C-62.208 -105.622 -88.0083 -92.9676 -93.9109 -99.789C-99.8135 -106.61 -83.5833 -130.325 -57.6596 -152.757Z"></path>
  <path fill="none" stroke="black" stroke-width="7" stroke-linejoin="round" transform="translate(256 256)" d="M-93.9109 -99.789C-93.9109 -99.789 -100.756 -107.7 -100.756 -107.7C-102.39 -109.588 -102.282 -112.834 -100.73 -117.001"></path>
  <path fill="none" stroke="black" stroke-width="7" stroke-linejoin="round" transform="translate(256 256)" d="M-7.46894 -189.496C-7.25364 -189.327 -7.05645 -189.139 -6.87797 -188.933C-6.87797 -188.933 -1.12764 -182.287 -0.167977 -181.178"></path>
  <path fill="#611E1E" transform="matrix(0.605664 -0.524085 0.138801 0.160406 209.028 115.594)" d="M0.749693 55.1992C17.8705 55.1992 66.8714 46.0031 69.8043 0.434675C69.9644 -2.05384 77.4999 -10.588 77.5 0C77.5 42.5259 42.8021 77 0 77C-42.8021 77 -77.5 42.5259 -77.5 0C-76.7271 -10.3619 -70.1795 -1.22879 -69.733 1.90431C-67.4205 42.6838 -17.7408 55.1992 0.749693 55.1992Z"></path>
  <defs>
    <linearGradient id="gradient_0" gradientUnits="userSpaceOnUse" x1="8.5369253" y1="175.39754" x2="0.96320713" y2="-480.78424">
      <stop offset="0" stop-color="#583636"></stop>
      <stop offset="0.015997024" stop-color="#583636"></stop>
      <stop offset="0.98742092" stop-color="#EE1010"></stop>
      <stop offset="1" stop-color="#EE1010"></stop>
    </linearGradient>
  </defs>
  <path fill="url(#gradient_0)" transform="matrix(0.656294 -0.567895 0.119878 0.138539 209.028 115.594)" d="M-7.62939e-06 -64C35.6224 -64 64.5 -35.3462 64.5 1.5378e-05C64.5 35.3462 35.6224 64 -7.62939e-06 64C-35.6224 64 -64.5 35.3462 -64.5 -1.5378e-05C-64.5 -35.3462 -35.6224 -64 -7.62939e-06 -64Z"></path>
  <path fill="#6C88D9" transform="matrix(1.79976 0.0293645 -0.0293645 1.79976 225.285 126.953)" d="M0 -29.5C19.0538 -29.5 34.5 -16.1805 34.5 0.25C34.5 16.6805 19.0538 30 0 30C-19.0538 30 -34.5 16.6805 -34.5 0.25C-34.5 -16.1805 -19.0538 -29.5 0 -29.5Z"></path>
  <path fill="#91A8EB" transform="matrix(1.50913 0.0246226 -0.0246226 1.50913 265.372 289.651)" d="M0.24998 -81.5196C49.8787 -81.2985 84.5 -60 84.5 0C84.5 41.1452 46.78 74.5 0.25 74.5C-62.1254 74.5 -84 60.12 -84 0C-84 -71.2881 -62.1254 -81.5196 0.24998 -81.5196Z"></path>
  <clipPath id="cl_22b">
    <path d="M269.466 145.502C336.282 146.592 420.578 184.146 418.816 292.132C417.608 366.184 348.617 428.307 264.874 426.941C152.613 425.109 113.791 395.386 115.557 287.184C117.65 158.883 178.185 144.013 269.466 145.502Z"></path>
  </clipPath>
  <g clip-path="url(#cl_22b)">
    <path fill="#A6B8EF" transform="matrix(0.805953 0.0131497 -0.0151654 0.929491 321.03 254.529)" d="M0.24998 -81.5196C49.8787 -81.2985 84.5 -60 84.5 0C84.5 41.1452 67.1354 74.5 20.6054 74.5C-41.77 74.5 -84 60.12 -84 0C-84 -71.2881 -62.1254 -81.5197 0.24998 -81.5196Z"></path>
    <path fill="#C1CBE8" transform="matrix(0.197995 -0.202726 0.445703 0.435301 344.131 205.68)" d="M11.5671 -77.0972C58.0971 -77.0972 97.5959 -41.1452 97.5959 -2.81534e-05C97.5959 41.1452 73.4188 83.0524 26.8888 83.0524C-35.4866 83.0524 11.8086 60.12 11.8086 -2.68751e-05C11.8086 -41.1452 -34.9629 -77.0972 11.5671 -77.0972Z"></path>
    <path fill="#C1CBE8" transform="matrix(0.197995 -0.202726 0.184201 0.179903 388.573 270.036)" d="M48.93 -79.7642C80.6762 -79.0529 77.4946 -42.8889 62.8507 4.00565C48.2069 50.9001 -0.03942 91.2963 -20.4536 67.777C-40.8678 44.2576 -16.8141 31.8032 -0.458991 -5.13881C15.8961 -42.0808 17.1838 -80.4755 48.93 -79.7642Z"></path>
  </g>
  <path fill="#91A8EB" transform="matrix(1.37947 2.85496e-09 -2.85496e-09 1.37947 210.879 346.868)" d="M30.1603 -1.42719C48.3834 -1.13672 61.9983 -1.71133 61.626 49.7809C61.046 75.2624 53.3326 89.7307 42.8171 89.4142C32.3017 89.0976 23.6622 89.1601 13.3288 89.1929C2.94878 89.1526 -4.35778 72.3465 -3.77783 46.8651C-3.68155 -6.83599 11.9372 -1.71766 30.1603 -1.42719Z"></path>
  <path fill="#91A8EB" transform="matrix(1.79976 0.0293645 -0.0293645 1.79976 225.285 126.953)" d="M0 -22.5C14.6355 -22.5 26.5 -12.3145 26.5 0.25C26.5 12.8145 14.6355 23 0 23C-14.6355 23 -26.5 12.8145 -26.5 0.25C-26.5 -12.3145 -14.6355 -22.5 0 -22.5Z"></path>
  <path fill="#1B2B56" transform="matrix(1.78669 -0.21848 0.065544 0.536007 234.701 107.721)" d="M-8.43778e-07 -2.5C1.38071 -2.5 2.5 -1.38071 2.5 0C2.5 1.38071 1.38071 2.5 -8.25152e-07 2.5C-1.38071 2.5 -2.5 1.38071 -2.5 0C-2.5 -1.38071 -1.38071 -2.5 -8.43778e-07 -2.5Z"></path>
  <path fill="none" stroke="#1B2B56" stroke-width="0.5" stroke-linecap="round" stroke-linejoin="round" transform="matrix(1.78289 -0.247598 0.247598 1.78289 243.345 106.61)" d="M1.98548 0.277974L6.02909 0.184236"></path>
  <path fill="#1B2B56" transform="matrix(1.78669 -0.21848 0.065544 0.536007 263.288 104.225)" d="M-9.62988e-07 -2.5C1.38071 -2.5 2.5 -1.38071 2.5 0C2.5 1.38071 1.38071 2.5 -9.44361e-07 2.5C-1.38071 2.5 -2.5 1.38071 -2.5 0C-2.5 -1.38071 -1.38071 -2.5 -9.62988e-07 -2.5Z"></path>
  <path fill="#354B89" transform="matrix(1.45897 -0.895021 0.934518 0.718834 255.222 97.1008)" d="M7.45058e-08 -2.49999C1.38071 -2.49999 2.5 -1.3807 2.5 7.62939e-06C2.5 1.38072 1.38071 2.50001 -7.45058e-08 2.50001C-1.38071 2.50001 -2.5 1.38072 -2.5 7.62939e-06C-2.5 -1.3807 -1.38071 -2.49999 7.45058e-08 -2.49999Z"></path>
  <path fill="#354B89" transform="matrix(2.16453 0.282115 -0.62247 1.07759 239.982 98.1297)" d="M0 -2.98532C1.68306 -2.98532 3.04744 -1.64874 3.04744 1.52588e-05C3.04744 1.64877 1.68306 2.98535 0 2.98535C-1.68306 2.98535 -3.04744 1.64877 -3.04744 1.52588e-05C-3.04744 -1.64874 -1.68306 -2.98532 0 -2.98532Z"></path>
  <clipPath id="cl_22e">
    <path d="M267.757 166.633C342.647 168.189 394.371 201.184 392.894 291.731C391.88 353.825 334.135 403.233 263.915 402.087C169.783 400.551 137.125 378.311 138.605 287.582C140.361 180 173.624 165.097 267.757 166.633Z"></path>
  </clipPath>
  <g clip-path="url(#cl_22e)">
    <path fill="#3A6D3D" transform="matrix(0.605664 -0.524085 0.698428 0.807145 163.655 120.474)" d="M74.2157 32.7782L86.5869 31.6617C86.5869 31.6617 73.8823 101.182 67.5039 101.264C67.5039 101.264 49.336 101.463 49.336 101.463C61.2865 101.485 74.2157 32.7782 74.2157 32.7782Z"></path>
  </g>
  <path fill="#9C4040" transform="matrix(0.365938 -0.316649 0.108543 0.125439 151.023 48.56)" d="M7.62939e-06 -77C42.8021 -77 77.5 -42.5259 77.5 9.23872e-06C77.5 42.5259 42.8021 77 7.62939e-06 77C-42.8021 77 -77.5 42.5259 -77.5 -9.23872e-06C-77.5 -42.5259 -42.8021 -77 7.62939e-06 -77Z"></path>
  <path fill="#C1CBE8" transform="matrix(0.167375 -0.632967 0.886841 0.234507 184.778 123.803)" d="M0 -11.5C14.6355 -11.5 28.0061 -7.98328 28.0061 -1.63201C28.0061 4.71927 15.5059 0.400186 0.870357 0.400186C-13.7652 0.400184 -26.766 4.37689 -26.766 -1.97439C-26.766 -8.32566 -14.6355 -11.5 0 -11.5Z"></path>
  <path fill="#611E1E" transform="matrix(0.605664 -0.524085 0.138801 0.160406 209.028 115.594)" d="M0 -77C42.8021 -77 77.5 -42.5259 77.5 0C76.8894 5.3405 70.0211 3.38985 69.8079 -1.63419C68.2223 -39.0047 22.4635 -53.8416 1.14807 -53.8416C-18.1129 -53.8416 -70.7895 -39.8299 -69.4931 2.24309C-69.4637 3.19753 -74.2395 10.5248 -77.5 0C-77.5 -42.5259 -42.8021 -77 0 -77Z"></path>
  <clipPath id="cl_22f">
    <path d="M122.663 73.1003L166.572 152.079L251.234 78.8203L179.383 24.0198L122.663 73.1003Z"></path>
  </clipPath>
  <g clip-path="url(#cl_22f)">
    <path fill="#BA4646" transform="matrix(0.439468 -0.380274 0.333216 0.385084 156.498 80.4166)" d="M-67.4615 -84L67.4615 -84L92.3226 83.7695L-67.4615 84L-67.4615 -84Z"></path>
  </g>
  <clipPath id="cl_230">
    <path d="M142.665 38.9012C158.328 25.348 174.767 18.6854 179.383 24.0198C183.999 29.3542 175.044 44.6656 159.381 58.2189C143.718 71.7721 127.278 78.4347 122.663 73.1003C118.047 67.7659 127.002 52.4545 142.665 38.9012Z"></path>
  </clipPath>
  <g clip-path="url(#cl_230)">
    <path fill="#BA4646" transform="matrix(0.439468 -0.380274 0.333216 0.385084 156.498 80.4166)" d="M-67.4615 -84L67.4615 -84L92.3226 83.7695L-67.4615 84L-67.4615 -84Z"></path>
  </g>
  <path fill="#993535" transform="matrix(0.605664 -0.524085 0.524085 0.605664 162.089 156.211)" d="M7.62939e-06 0C7.62939e-06 0 7.62939e-06 -13.0609 1.52588e-05 -13.0609C7.62939e-06 -24.308 35.8327 -33.7054 77.5 -33.393C119.167 -33.0805 155 -24.308 155 -13.0609C155 -13.0609 155 1.52588e-05 155 1.52588e-05C155 -10.5378 119.167 -20.393 77.5 -20.393C35.8327 -20.393 0 -10.5379 7.62939e-06 0Z"></path>
  <path fill="#669969" transform="matrix(0.605664 -0.524085 0.644995 0.745395 169.064 126.724)" d="M-0.506058 0.0226135C3.17321 -3.90972 9.28304 -5.30722 18.0791 -2.2478C23.7018 23.1815 52.5776 101.462 67.2296 101.254C62.0975 101.327 59.1898 101.368 46.7011 101.546C36.2156 101.695 2.73151 5.31648 -0.506058 0.0226135Z"></path>
  <path fill="none" stroke="black" stroke-width="7" stroke-linecap="round" stroke-linejoin="round" transform="matrix(2.15345 4.45679e-09 -4.42021e-09 2.13577 150.55 298.149)" d="M26.3178 -28.0342C27.5668 -22.1736 28.9381 -13.0222 28.1583 1.51882C26.6611 30.3656 20.7453 53.7863 -4.4752 52.0277C-20.3015 50.8224 -30.3243 27.3596 -28.8277 -1.47678C-27.8343 -24.6492 -17.1184 -44.6555 -4.97549 -54.282"></path>
  <path fill="#6C88D9" transform="matrix(2.15345 4.45679e-09 -4.42021e-09 2.13577 150.55 298.149)" d="M14.8863 -59.5773C18.3157 -55.1285 24.6441 -40.0664 24.6538 -36.1388C24.6635 -32.2112 29.4743 -23.0215 28.1583 1.51882C26.6611 30.3656 20.7453 53.7863 -4.4752 52.0277C-20.3015 50.8224 -30.3243 27.3596 -28.8277 -1.47678C-27.2906 -37.3327 -2.47478 -65.608 14.8863 -59.5773Z"></path>
  <path fill="#91A8EB" transform="matrix(1.67686 3.47045e-09 -4.32784e-09 2.09114 154.54 292.436)" d="M15.8253 -53.1599C37.9842 -52.6449 29.5619 -28.315 27.4792 0.0432262C25.8166 28.6224 15.7039 51.7517 0.245907 52.0948C-15.2121 52.4379 -29.1349 28.661 -29.1076 -0.0462914C-28.6572 -29.0616 -6.33359 -53.6748 15.8253 -53.1599Z"></path>
  <path fill="none" stroke="white" stroke-width="5" stroke-linecap="round" stroke-linejoin="round" transform="matrix(1.5 0 0 1.5 158.539 362.24)" d=""></path>
</svg>