<?xml version="1.0" encoding="utf-8"?>
<svg xmlns="http://www.w3.org/2000/svg" xmlns:xlink="http://www.w3.org/1999/xlink" width="512" height="512">
  <path fill="none" stroke="black" stroke-width="7" stroke-linejoin="round" transform="matrix(1.8 3.72529e-09 -3.72529e-09 1.8 210.879 409.868)" d="M32.6934 -46.801C49.9774 -52.5829 72.4204 -43.0699 77.058 3.05547C72.2365 34.6074 54.8914 47.7148 45.1775 43.6756C35.4635 39.6364 27.3679 36.6193 17.6997 32.9714C7.97524 29.1093 13.2954 23.328 17.7493 0.459198C12.1975 -38.8428 15.4095 -41.0191 32.6934 -46.801Z"></path>
  <path fill="none" stroke="black" stroke-width="7" stroke-linejoin="round" transform="matrix(-2.15345 -3.29802e-07 -3.27096e-07 2.13577 356.362 285.223)" d="M18.969 -57.8792C22.0494 -53.1782 27.2124 -37.6706 26.923 -33.7538C26.6336 -29.8371 30.4648 -20.6595 27.659 3.54509C24.6325 32.2734 18.7579 55.0333 -6.39779 52.5017C-22.1804 50.8114 -32.1269 26.1945 -29.1004 -2.53376C-25.3061 -38.5508 2.11837 -65.2361 18.969 -57.8792Z"></path>
  <path fill="none" stroke="black" stroke-width="7" stroke-linejoin="round" transform="matrix(1.79976 0.0293645 -0.0293645 1.79976 266.657 286.389)" d="M0.209625 -80.0966C37.3348 -80.0966 84.5 -60 84.5 -1.90735e-06C84.5 41.1452 46.7396 76.2788 0.209625 76.2788C-62.1658 76.2788 -84 60.12 -84 -1.90735e-06C-84 -71.2881 -50.5087 -80.0966 0.209625 -80.0966Z"></path>
  <path fill="none" stroke="black" stroke-width="7" stroke-linejoin="round" transform="matrix(1.53671 3.18039e-09 -3.72529e-09 1.8 308.979 398.168)" d="M-36.7433 -47.0766C-18.5182 -47.1582 -3.10314 -40.3184 -2.98915 9.25619C-2.5204 23.1059 -8.65112 46.8373 -22.3286 46.7146C-36.0061 46.5919 -42.1413 46.5369 -54.3427 46.4274C-66.5441 46.3179 -68.5195 23.4015 -68.9882 9.5518C-69.4266 -42.2121 -54.9685 -46.9949 -36.7433 -47.0766Z"></path>
  <path fill="#6C88D9" transform="matrix(-2.15345 -3.29802e-07 -3.27096e-07 2.13577 356.362 285.223)" d="M18.969 -57.8792C22.0494 -53.1782 27.2124 -37.6706 26.923 -33.7538C26.6336 -29.8371 30.4648 -20.6595 27.659 3.54509C24.6325 32.2734 18.7579 55.0333 -6.39779 52.5017C-22.1804 50.8114 -32.1269 26.1945 -29.1004 -2.53376C-25.3061 -38.5508 2.11837 -65.2361 18.969 -57.8792Z"></path>
  <path fill="#5170C8" transform="matrix(1.53671 3.18039e-09 -3.72529e-09 1.8 308.979 398.168)" d="M-36.7433 -47.0766C-18.5182 -47.1582 -3.10314 -40.3184 -2.98915 9.25619C-2.5204 23.1059 -8.65112 46.8373 -22.3286 46.7146C-36.0061 46.5919 -42.1413 46.5369 -54.3427 46.4274C-66.5441 46.3179 -68.5195 23.4015 -68.9882 9.5518C-69.4266 -42.2121 -54.9685 -46.9949 -36.7433 -47.0766Z"></path>
  <path fill="#839BE0" transform="matrix(1.20328 2.49031e-09 -2.91698e-09 1.40944 308.979 398.168)" d="M-46.8471 -47.4146C-28.6219 -47.4963 -13.7581 -40.5703 -13.4894 13.4961C-13.8862 31.4279 -22.7773 46.5275 -36.4548 46.4048C-50.1322 46.2821 -49.958 46.3342 -62.1594 46.2247C-74.3607 46.1152 -79.8853 31.7235 -79.4885 13.7917C-80.0816 -42.464 -65.0722 -47.333 -46.8471 -47.4146Z"></path>
  <path fill="#6C88D9" transform="matrix(1.8 3.72529e-09 -3.72529e-09 1.8 210.879 409.868)" d="M32.6934 -46.801C49.9774 -52.5829 72.4204 -43.0699 77.058 3.05547C72.2365 34.6074 54.8914 47.7148 45.1775 43.6756C35.4635 39.6364 27.3679 36.6193 17.6997 32.9714C7.97524 29.1093 13.2954 23.328 17.7493 0.459198C12.1975 -38.8428 15.4095 -41.0191 32.6934 -46.801Z"></path>
  <path fill="#91A8EB" transform="matrix(-1.67686 -2.56813e-07 -3.2026e-07 2.09114 352.373 279.51)" d="M20.5964 -51.4964C42.6407 -49.6187 32.5064 -25.5122 27.1133 2.78099C21.7203 31.0741 6.81483 53.2893 -8.56265 51.9795C-23.9401 50.6697 -32.9552 26.4896 -29.1723 -2.0685C-25.3895 -30.6267 -1.4478 -53.374 20.5964 -51.4964Z"></path>
  <path fill="none" stroke="black" stroke-width="7" stroke-miterlimit="4" transform="matrix(1.79976 0.0293645 -0.0293645 1.79976 225.206 123.691)" d="M1.90735e-06 -29.5C19.0538 -29.5 34.5 -16.1805 34.5 0.250008C34.5 16.6805 19.0538 30 1.90735e-06 30C-19.0538 30 -34.5 16.6805 -34.5 0.250008C-34.5 -16.1805 -19.0538 -29.5 1.90735e-06 -29.5Z"></path>
  <path fill="none" stroke="black" stroke-width="7" stroke-linejoin="round" transform="translate(256 256)" d="M-24.5813 -151.431L-17.8682 -158.815C-17.8682 -158.815 22.9918 -96.0443 19.1864 -92.6348C19.1864 -92.6348 18.5464 -92.0646 17.5772 -91.2009"></path>
  <path fill="none" stroke="black" stroke-width="7" stroke-linejoin="round" transform="translate(256 256)" d="M7.26062 -93.6657C1.87749 -108.322 -13.3431 -133.488 -20.6162 -145.154"></path>
  <path fill="none" stroke="black" stroke-width="7" stroke-linejoin="round" transform="translate(256 256)" d="M18.2925 -91.8569C15.633 -89.4729 13.6145 -87.6637 6.76627 -81.5251C0.511703 -75.9186 -81.9321 -130.21 -87.3075 -132.46C-87.6155 -137.319 -84.8163 -141.563 -77.5155 -143.892C-57.7083 -127.884 10.2715 -84.6671 19.0114 -92.5013C18.7644 -92.2798 18.526 -92.0661 18.2925 -91.8569"></path>
  <path fill="#6C88D9" transform="matrix(1.79976 0.0293645 -0.0293645 1.79976 266.657 286.389)" d="M0.209625 -80.0966C37.3348 -80.0966 84.5 -60 84.5 -1.90735e-06C84.5 41.1452 46.7396 76.2788 0.209625 76.2788C-62.1658 76.2788 -84 60.12 -84 -1.90735e-06C-84 -71.2881 -50.5087 -80.0966 0.209625 -80.0966Z"></path>
  <path fill="#3A6D3D" transform="matrix(0.605664 -0.524085 0.698428 0.807145 163.576 117.008)" d="M74.2157 32.7782L86.5869 31.6617C86.5869 31.6617 73.8823 101.182 67.5039 101.264C67.5039 101.264 49.336 101.463 49.336 101.463C61.2865 101.485 74.2157 32.7782 74.2157 32.7782Z"></path>
  <path fill="none" stroke="black" stroke-width="7" stroke-miterlimit="4" transform="translate(256 256)" d="M-64.5522 -164.097C-38.6285 -186.528 -12.8282 -199.183 -6.92558 -192.362C-1.02295 -185.54 -17.2532 -161.826 -43.1769 -139.394C-69.1006 -116.962 -94.9009 -104.307 -100.804 -111.129C-106.706 -117.95 -90.4759 -141.665 -64.5522 -164.097Z"></path>
  <path fill="#585555" transform="matrix(0.605664 -0.524085 0.138801 0.160406 202.135 104.255)" d="M1.52588e-05 -77C42.8021 -77 77.5 -42.5259 77.5 0C77.5 42.5259 42.8021 77 1.52588e-05 77C-42.8021 77 -77.5 42.5259 -77.5 0C-77.5 -42.5259 -42.8021 -77 1.52588e-05 -77Z"></path>
  <path fill="none" stroke="black" stroke-width="7" stroke-linejoin="round" transform="translate(256 256)" d="M-133.417 -186.366L-97.2368 -121.289"></path>
  <path fill="none" stroke="black" stroke-width="7" stroke-linejoin="round" transform="translate(256 256)" d="M-6.2358 -181.706L-76.6965 -235.446L-93.7951 -220.651"></path>
  <path fill="none" stroke="black" stroke-width="8" stroke-miterlimit="4" transform="translate(256 256)" d="M-113.415 -220.565C-97.7516 -234.118 -81.3124 -240.781 -76.6965 -235.446C-72.0806 -230.112 -81.036 -214.8 -96.6989 -201.247C-112.362 -187.694 -128.801 -181.031 -133.417 -186.366C-138.033 -191.7 -129.077 -207.012 -113.415 -220.565Z"></path>
  <path fill="#9C4040" transform="matrix(0.605664 -0.524085 0.524085 0.605664 108.488 65.5831)" d="M9.99828 15.3403L-13.0686 125.78L126.715 125.78L103.648 15.3403L9.99828 15.3403Z"></path>
  <path fill="none" stroke="black" stroke-width="7" stroke-miterlimit="4" transform="translate(256 256)" d="M-57.7391 -156.223C-31.8154 -178.655 -6.0151 -191.31 -0.112473 -184.488C5.79015 -177.667 -10.4401 -153.952 -36.3638 -131.52C-62.2875 -109.088 -88.0878 -96.4336 -93.9904 -103.255C-99.8931 -110.076 -83.6628 -133.791 -57.7391 -156.223Z"></path>
  <path fill="none" stroke="black" stroke-width="7" stroke-linejoin="round" transform="translate(256 256)" d="M-93.9904 -103.255C-93.9904 -103.255 -100.835 -111.166 -100.835 -111.166C-102.47 -113.054 -102.361 -116.3 -100.809 -120.467"></path>
  <path fill="none" stroke="black" stroke-width="7" stroke-linejoin="round" transform="translate(256 256)" d="M-7.54848 -192.962C-7.33317 -192.793 -7.13598 -192.605 -6.9575 -192.399C-6.9575 -192.399 -1.20716 -185.753 -0.247502 -184.644"></path>
  <path fill="#611E1E" transform="matrix(0.605664 -0.524085 0.138801 0.160406 208.949 112.128)" d="M0.749685 55.1991C17.8705 55.1991 66.8714 46.0031 69.8043 0.434614C69.9644 -2.0539 77.4999 -10.588 77.5 -6.10352e-05C77.5 42.5259 42.8021 76.9999 -7.62939e-06 76.9999C-42.8021 76.9999 -77.5 42.5259 -77.5 -6.10352e-05C-76.7271 -10.362 -70.1795 -1.22885 -69.733 1.90425C-67.4205 42.6838 -17.7408 55.1991 0.749685 55.1991Z"></path>
  <defs>
    <linearGradient id="gradient_0" gradientUnits="userSpaceOnUse" x1="8.5369253" y1="175.39754" x2="0.96320713" y2="-480.78424">
      <stop offset="0" stop-color="#583636"></stop>
      <stop offset="0.015997024" stop-color="#583636"></stop>
      <stop offset="0.98742092" stop-color="#EE1010"></stop>
      <stop offset="1" stop-color="#EE1010"></stop>
    </linearGradient>
  </defs>
  <path fill="url(#gradient_0)" transform="matrix(0.656294 -0.567895 0.119878 0.138539 208.949 112.128)" d="M0 -64C35.6224 -64 64.5 -35.3462 64.5 1.5378e-05C64.5 35.3462 35.6224 64 0 64C-35.6224 64 -64.5 35.3462 -64.5 -1.5378e-05C-64.5 -35.3462 -35.6224 -64 0 -64Z"></path>
  <path fill="#6C88D9" transform="matrix(1.79976 0.0293645 -0.0293645 1.79976 225.206 123.691)" d="M1.90735e-06 -29.5C19.0538 -29.5 34.5 -16.1805 34.5 0.250008C34.5 16.6805 19.0538 30 1.90735e-06 30C-19.0538 30 -34.5 16.6805 -34.5 0.250008C-34.5 -16.1805 -19.0538 -29.5 1.90735e-06 -29.5Z"></path>
  <path fill="#91A8EB" transform="matrix(1.50913 0.0246226 -0.0246226 1.50913 265.293 286.389)" d="M0.24998 -81.5196C49.8787 -81.2985 84.5 -60 84.5 0C84.5 41.1452 46.78 74.5 0.25 74.5C-62.1254 74.5 -84 60.12 -84 0C-84 -71.2881 -62.1254 -81.5196 0.24998 -81.5196Z"></path>
  <clipPath id="cl_e1">
    <path d="M269.386 142.241C336.203 143.331 420.499 180.885 418.737 288.87C417.529 362.922 348.537 425.045 264.794 423.679C152.534 421.847 113.712 392.124 115.477 283.922C117.571 155.621 178.106 140.751 269.386 142.241Z"></path>
  </clipPath>
  <g clip-path="url(#cl_e1)">
    <path fill="#A6B8EF" transform="matrix(0.805953 0.0131497 -0.0151654 0.929491 320.951 251.267)" d="M0.249972 -81.5196C49.8787 -81.2985 84.5 -60 84.5 0C84.5 41.1452 67.1354 74.5 20.6054 74.5C-41.77 74.5 -84 60.12 -84 0C-84 -71.2881 -62.1254 -81.5197 0.249972 -81.5196Z"></path>
    <path fill="#C1CBE8" transform="matrix(0.197995 -0.202726 0.445703 0.435301 344.051 202.418)" d="M11.5671 -77.0972C58.0971 -77.0972 97.5959 -41.1452 97.5959 -2.43388e-05C97.5959 41.1452 73.4188 83.0524 26.8888 83.0524C-35.4866 83.0524 11.8086 60.12 11.8086 -2.30604e-05C11.8086 -41.1452 -34.9629 -77.0972 11.5671 -77.0972Z"></path>
    <path fill="#C1CBE8" transform="matrix(0.197995 -0.202726 0.184201 0.179903 388.493 266.774)" d="M48.93 -79.7642C80.6762 -79.0529 77.4946 -42.8889 62.8507 4.00565C48.2069 50.9001 -0.03942 91.2963 -20.4536 67.777C-40.8678 44.2576 -16.8141 31.8032 -0.458991 -5.13881C15.8961 -42.0808 17.1838 -80.4755 48.93 -79.7642Z"></path>
  </g>
  <path fill="#91A8EB" transform="matrix(1.37947 2.85496e-09 -2.85496e-09 1.37947 210.879 346.868)" d="M47.095 -2.14106C64.3789 -7.92299 86.9688 -6.07789 92.7469 46.9121C91.935 70.8336 69.7122 92.5914 59.9982 88.5523C50.2843 84.5131 42.1886 81.4959 32.5204 77.848C22.8348 74.1152 30.5498 67.4097 31.3617 43.4881C24.5301 -2.54604 29.811 3.64086 47.095 -2.14106Z"></path>
  <path fill="#91A8EB" transform="matrix(1.79976 0.0293645 -0.0293645 1.79976 225.206 123.691)" d="M1.90735e-06 -22.5C14.6355 -22.5 26.5 -12.3145 26.5 0.250008C26.5 12.8145 14.6355 23 1.90735e-06 23C-14.6355 23 -26.5 12.8145 -26.5 0.250008C-26.5 -12.3145 -14.6355 -22.5 1.90735e-06 -22.5Z"></path>
  <path fill="#1B2B56" transform="matrix(1.78669 -0.21848 0.065544 0.536007 239.445 103.909)" d="M-2.47732e-07 -2.49997C1.38071 -2.49997 2.5 -1.38068 2.5 3.05176e-05C2.5 1.38074 1.38071 2.50003 -2.29105e-07 2.50003C-1.38071 2.50003 -2.5 1.38074 -2.5 3.05176e-05C-2.5 -1.38068 -1.38071 -2.49997 -2.47732e-07 -2.49997Z"></path>
  <path fill="none" stroke="#1B2B56" stroke-width="0.5" stroke-linecap="round" stroke-linejoin="round" transform="matrix(1.78289 -0.247598 0.247598 1.78289 248.089 102.798)" d="M1.98548 0.277974L6.02909 0.184236"></path>
  <path fill="#1B2B56" transform="matrix(1.78669 -0.21848 0.065544 0.536007 268.032 100.414)" d="M-1.91666e-06 -2.50003C1.38071 -2.50003 2.5 -1.38074 2.5 -3.05176e-05C2.5 1.38068 1.38071 2.49997 -1.89804e-06 2.49997C-1.38071 2.49997 -2.5 1.38068 -2.5 -3.05176e-05C-2.5 -1.38074 -1.38071 -2.50003 -1.91666e-06 -2.50003Z"></path>
  <path fill="#354B89" transform="matrix(1.45897 -0.895021 0.934518 0.718834 259.967 93.289)" d="M7.45058e-08 -2.5C1.38071 -2.5 2.5 -1.38071 2.5 0C2.5 1.38071 1.38071 2.5 -7.45058e-08 2.5C-1.38071 2.5 -2.5 1.38071 -2.5 0C-2.5 -1.38071 -1.38071 -2.5 7.45058e-08 -2.5Z"></path>
  <path fill="#354B89" transform="matrix(2.16453 0.282115 -0.62247 1.07759 244.726 94.3179)" d="M3.8147e-06 -2.98532C1.68306 -2.98532 3.04744 -1.64874 3.04744 1.52588e-05C3.04744 1.64877 1.68306 2.98535 3.8147e-06 2.98535C-1.68305 2.98535 -3.04744 1.64877 -3.04744 1.52588e-05C-3.04744 -1.64874 -1.68305 -2.98532 3.8147e-06 -2.98532Z"></path>
  <clipPath id="cl_e4">
    <path d="M267.677 163.372C342.568 164.927 394.291 197.922 392.814 288.47C391.801 350.563 334.055 399.971 263.836 398.825C169.703 397.289 137.045 375.05 138.526 284.321C140.281 176.738 173.545 161.836 267.677 163.372Z"></path>
  </clipPath>
  <g clip-path="url(#cl_e4)">
    <path fill="#3A6D3D" transform="matrix(0.605664 -0.524085 0.698428 0.807145 163.576 117.008)" d="M74.2157 32.7782L86.5869 31.6617C86.5869 31.6617 73.8823 101.182 67.5039 101.264C67.5039 101.264 49.336 101.463 49.336 101.463C61.2865 101.485 74.2157 32.7782 74.2157 32.7782Z"></path>
  </g>
  <path fill="#9C4040" transform="matrix(0.365938 -0.316649 0.108543 0.125439 150.943 45.094)" d="M-2.28882e-05 -77C42.802 -77 77.5 -42.5259 77.5 9.23872e-06C77.5 42.5259 42.802 77 -2.28882e-05 77C-42.8021 77 -77.5 42.5259 -77.5 -9.23872e-06C-77.5 -42.5259 -42.8021 -77 -2.28882e-05 -77Z"></path>
  <path fill="#C1CBE8" transform="matrix(0.167375 -0.632967 0.886841 0.234507 184.698 120.541)" d="M1.52588e-05 -11.5C14.6356 -11.5 28.0061 -7.98328 28.0061 -1.632C28.0061 4.71927 15.5059 0.400193 0.870372 0.400193C-13.7652 0.400192 -26.766 4.3769 -26.766 -1.97438C-26.766 -8.32565 -14.6355 -11.5 1.52588e-05 -11.5Z"></path>
  <path fill="#611E1E" transform="matrix(0.605664 -0.524085 0.138801 0.160406 208.949 112.128)" d="M-7.62939e-06 -77.0001C42.8021 -77.0001 77.5 -42.526 77.5 -6.10352e-05C76.8893 5.34044 70.0211 3.38978 69.8079 -1.63426C68.2223 -39.0048 22.4635 -53.8417 1.14806 -53.8417C-18.1129 -53.8417 -70.7895 -39.83 -69.4931 2.24303C-69.4637 3.19747 -74.2395 10.5247 -77.5 -6.10352e-05C-77.5 -42.526 -42.8021 -77.0001 -7.62939e-06 -77.0001Z"></path>
  <clipPath id="cl_e5">
    <path d="M122.583 69.6342L166.492 148.613L251.154 75.3543L179.303 20.5537L122.583 69.6342Z"></path>
  </clipPath>
  <g clip-path="url(#cl_e5)">
    <path fill="#BA4646" transform="matrix(0.439468 -0.380274 0.333216 0.385084 156.418 76.9505)" d="M-67.4615 -84L67.4615 -84L92.3226 83.7695L-67.4615 84L-67.4615 -84Z"></path>
  </g>
  <clipPath id="cl_e6">
    <path d="M142.585 35.4352C158.248 21.8819 174.688 15.2193 179.303 20.5537C183.919 25.8881 174.964 41.1996 159.301 54.7528C143.638 68.306 127.199 74.9687 122.583 69.6342C117.967 64.2998 126.923 48.9884 142.585 35.4352Z"></path>
  </clipPath>
  <g clip-path="url(#cl_e6)">
    <path fill="#BA4646" transform="matrix(0.439468 -0.380274 0.333216 0.385084 156.418 76.9505)" d="M-67.4615 -84L67.4615 -84L92.3226 83.7695L-67.4615 84L-67.4615 -84Z"></path>
  </g>
  <path fill="#993535" transform="matrix(0.605664 -0.524085 0.524085 0.605664 162.01 152.745)" d="M-1.52588e-05 0C-1.52588e-05 0 -7.62939e-06 -13.0609 7.62939e-06 -13.0609C7.62939e-06 -24.308 35.8327 -33.7055 77.5 -33.393C119.167 -33.0805 155 -24.308 155 -13.0609C155 -13.0609 155 0 155 0C155 -10.5378 119.167 -20.393 77.5 -20.393C35.8327 -20.393 -1.52588e-05 -10.5379 -1.52588e-05 0Z"></path>
  <path fill="#669969" transform="matrix(0.605664 -0.524085 0.644995 0.745395 168.984 123.258)" d="M-0.506065 0.0225983C3.1732 -3.90972 9.28304 -5.30724 18.0792 -2.24781C23.7018 23.1815 52.5776 101.462 67.2296 101.254C62.0975 101.327 59.1898 101.368 46.7011 101.546C36.2156 101.695 2.7315 5.31648 -0.506065 0.0225983Z"></path>
  <path fill="none" stroke="black" stroke-width="7" stroke-linecap="round" stroke-linejoin="round" transform="matrix(2.15345 4.45679e-09 -4.42021e-09 2.13577 150.47 294.887)" d="M28.1695 -31.0093C30.1478 -25.5715 32.7265 -17.0628 34.4216 -3.08966C38.3848 25.5153 39.007 48.5759 14.0578 52.69C-1.6214 55.1726 -18.1369 33.4759 -22.1011 4.86337C-25.1974 -18.6093 -17.402 -40.6042 -6.60766 -52.2216"></path>
  <path fill="#6C88D9" transform="matrix(2.15345 4.45679e-09 -4.42021e-09 2.13577 150.47 294.887)" d="M12.238 -60.5661C16.2907 -56.6867 24.7895 -42.7528 25.3837 -38.8711C25.9779 -34.9895 31.5063 -27.1208 34.4216 -3.08966C38.3848 25.5153 39.007 48.5759 14.0578 52.69C-1.6214 55.1726 -18.1369 33.4759 -22.1011 4.86337C-26.8674 -31.27 -5.82407 -63.9015 12.238 -60.5661Z"></path>
  <path fill="#91A8EB" transform="matrix(1.67686 3.47045e-09 -4.32784e-09 2.09114 154.46 289.174)" d="M13.3625 -54.1162C35.3668 -56.2738 30.5981 -31.5075 34.588 -3.61943C39.7024 24.639 37.6937 48.1597 22.7448 51.3335C7.79595 54.5073 -14.1381 33.0147 -20.8853 4.87891C-26.8038 -24.1445 -8.64189 -51.9585 13.3625 -54.1162Z"></path>
  <path fill="none" stroke="white" stroke-width="5" stroke-linecap="round" stroke-linejoin="round" transform="matrix(1.5 0 0 1.5 158.539 362.24)" d=""></path>
</svg>