<?xml version="1.0" encoding="utf-8"?>
<svg xmlns="http://www.w3.org/2000/svg" xmlns:xlink="http://www.w3.org/1999/xlink" width="512" height="512">
  <path fill="none" stroke="black" stroke-width="7" stroke-linejoin="round" transform="matrix(1.8 3.72529e-09 -3.72529e-09 1.8 210.879 409.868)" d="M51.1746 -47.4795C69.3958 -47.0874 81.8648 -39.5614 81.2316 4.72364C81.2581 33.7411 73.8092 43.6845 63.2957 43.3094C52.7821 42.9343 44.1425 42.9485 33.809 42.9238C23.3477 42.7181 18.0804 31.5243 18.0544 2.49382C18.4237 -44.0013 32.9534 -47.8716 51.1746 -47.4795Z"></path>
  <path fill="none" stroke="black" stroke-width="7" stroke-linejoin="round" transform="matrix(-2.15345 -3.29802e-07 -3.27096e-07 2.13577 356.101 274.507)" d="M18.4615 -58.6135C21.8128 -54.1048 27.878 -38.9328 27.8193 -35.0057C27.7605 -31.0785 32.1243 -22.1459 30.7458 2.1837C29.4129 31.0423 24.8861 54.1133 -0.374226 53.0889C-16.2284 52.3444 -27.604 28.365 -26.2711 -0.493609C-24.6 -36.674 1.20818 -64.9508 18.4615 -58.6135Z"></path>
  <path fill="none" stroke="black" stroke-width="7" stroke-linejoin="round" transform="matrix(1.79976 0.0293645 -0.0293645 1.79976 266.396 275.672)" d="M0.209625 -80.0966C37.3348 -80.0966 84.5 -60 84.5 9.53674e-07C84.5 41.1452 46.7396 76.2788 0.209625 76.2788C-62.1658 76.2788 -84 60.12 -84 9.53674e-07C-84 -71.2881 -50.5087 -80.0966 0.209625 -80.0966Z"></path>
  <path fill="none" stroke="black" stroke-width="7" stroke-linejoin="round" transform="matrix(1.53671 3.18039e-09 -3.72529e-09 1.8 308.979 398.168)" d="M-51.7418 -46.7583C-33.5164 -46.7793 -18.1328 -39.8881 -18.2453 9.6864C-17.8398 23.5376 -24.0789 47.2485 -37.7557 47.0803C-51.4325 46.912 -57.5675 46.8365 -69.7683 46.6864C-81.969 46.5363 -83.8398 23.6134 -84.2452 9.76222C-84.447 -42.0027 -69.9672 -46.7374 -51.7418 -46.7583Z"></path>
  <path fill="#6C88D9" transform="matrix(-2.15345 -3.29802e-07 -3.27096e-07 2.13577 356.101 274.507)" d="M18.4615 -58.6135C21.8128 -54.1048 27.878 -38.9328 27.8193 -35.0057C27.7605 -31.0785 32.1243 -22.1459 30.7458 2.1837C29.4129 31.0423 24.8861 54.1133 -0.374226 53.0889C-16.2284 52.3444 -27.604 28.365 -26.2711 -0.493609C-24.6 -36.674 1.20818 -64.9508 18.4615 -58.6135Z"></path>
  <path fill="#5170C8" transform="matrix(1.53671 3.18039e-09 -3.72529e-09 1.8 308.979 398.168)" d="M-51.7418 -46.7583C-33.5164 -46.7793 -18.1328 -39.8881 -18.2453 9.6864C-17.8398 23.5376 -24.0789 47.2485 -37.7557 47.0803C-51.4325 46.912 -57.5675 46.8365 -69.7683 46.6864C-81.969 46.5363 -83.8398 23.6134 -84.2452 9.76222C-84.447 -42.0027 -69.9672 -46.7374 -51.7418 -46.7583Z"></path>
  <path fill="#839BE0" transform="matrix(1.20328 2.49031e-09 -2.91698e-09 1.40944 308.979 398.168)" d="M-66.0597 -47.008C-47.8343 -47.0289 -33.0023 -40.0536 -32.9807 14.0133C-33.4594 31.9436 -42.4194 47.0136 -56.0962 46.8454C-69.773 46.6771 -69.599 46.7298 -81.7998 46.5797C-94.0005 46.4296 -99.4593 32.0194 -98.9806 14.0892C-99.3166 -42.1681 -84.2851 -46.9871 -66.0597 -47.008Z"></path>
  <path fill="#6C88D9" transform="matrix(1.8 3.72529e-09 -3.72529e-09 1.8 210.879 409.868)" d="M51.1746 -47.4795C69.3958 -47.0874 81.8648 -39.5614 81.2316 4.72364C81.2581 33.7411 73.8092 43.6845 63.2957 43.3094C52.7821 42.9343 44.1425 42.9485 33.809 42.9238C23.3477 42.7181 18.0804 31.5243 18.0544 2.49382C18.4237 -44.0013 32.9534 -47.8716 51.1746 -47.4795Z"></path>
  <path fill="#91A8EB" transform="matrix(-1.67686 -2.56813e-07 -3.2026e-07 2.09114 352.111 268.794)" d="M20.3082 -52.1892C42.4525 -51.3622 34.1172 -26.8165 30.8242 1.68319C27.5311 30.1828 14.2933 53.0672 -1.15395 52.4903C-16.6012 51.9134 -27.387 28.2042 -25.721 -0.483531C-24.0549 -29.1712 -1.83603 -53.0162 20.3082 -52.1892Z"></path>
  <path fill="none" stroke="black" stroke-width="7" stroke-miterlimit="4" transform="matrix(1.79976 0.0293645 -0.0293645 1.79976 224.944 112.975)" d="M-1.90735e-06 -29.5C19.0538 -29.5 34.5 -16.1805 34.5 0.250008C34.5 16.6805 19.0538 30 -1.90735e-06 30C-19.0538 30 -34.5 16.6805 -34.5 0.250008C-34.5 -16.1805 -19.0538 -29.5 -1.90735e-06 -29.5Z"></path>
  <path fill="none" stroke="black" stroke-width="7" stroke-linejoin="round" transform="translate(256 256)" d="M-24.8426 -163.319L-18.1295 -170.704C-18.1295 -170.704 22.7305 -107.933 18.9251 -104.524C18.9251 -104.524 18.2851 -103.953 17.3159 -103.09"></path>
  <path fill="none" stroke="black" stroke-width="7" stroke-linejoin="round" transform="translate(256 256)" d="M6.99932 -105.554C1.6162 -120.21 -13.6045 -145.377 -20.8775 -157.043"></path>
  <path fill="none" stroke="black" stroke-width="7" stroke-linejoin="round" transform="translate(256 256)" d="M18.0312 -103.746C15.3717 -101.362 13.3532 -99.5524 6.50497 -93.4138C0.250404 -87.8074 -82.1934 -142.099 -87.5688 -144.348C-87.8768 -149.208 -85.0776 -153.451 -77.7768 -155.781C-57.9696 -139.773 10.0102 -96.5558 18.7501 -104.39C18.5031 -104.169 18.2647 -103.955 18.0312 -103.746"></path>
  <path fill="#6C88D9" transform="matrix(1.79976 0.0293645 -0.0293645 1.79976 266.396 275.672)" d="M0.209625 -80.0966C37.3348 -80.0966 84.5 -60 84.5 9.53674e-07C84.5 41.1452 46.7396 76.2788 0.209625 76.2788C-62.1658 76.2788 -84 60.12 -84 9.53674e-07C-84 -71.2881 -50.5087 -80.0966 0.209625 -80.0966Z"></path>
  <path fill="#3A6D3D" transform="matrix(0.605664 -0.524085 0.698428 0.807145 163.314 105.119)" d="M74.2156 32.7782L86.5869 31.6617C86.5869 31.6617 73.8823 101.182 67.5039 101.264C67.5039 101.264 49.336 101.463 49.336 101.463C61.2865 101.485 74.2156 32.7782 74.2156 32.7782Z"></path>
  <path fill="none" stroke="black" stroke-width="7" stroke-miterlimit="4" transform="translate(256 256)" d="M-64.8135 -175.985C-38.8898 -198.417 -13.0895 -211.072 -7.18688 -204.251C-1.28426 -197.429 -17.5145 -173.715 -43.4382 -151.283C-69.3619 -128.851 -95.1622 -116.196 -101.065 -123.017C-106.967 -129.839 -90.7372 -153.553 -64.8135 -175.985Z"></path>
  <path fill="#585555" transform="matrix(0.605664 -0.524085 0.138801 0.160406 201.874 92.366)" d="M7.62939e-06 -77.0001C42.8021 -77.0001 77.5 -42.526 77.5 -6.10352e-05C77.5 42.5259 42.8021 76.9999 7.62939e-06 76.9999C-42.8021 76.9999 -77.5 42.5259 -77.5 -6.10352e-05C-77.5 -42.526 -42.8021 -77.0001 7.62939e-06 -77.0001Z"></path>
  <path fill="none" stroke="black" stroke-width="7" stroke-linejoin="round" transform="translate(256 256)" d="M-133.678 -198.254L-97.4981 -133.178"></path>
  <path fill="none" stroke="black" stroke-width="7" stroke-linejoin="round" transform="translate(256 256)" d="M-6.49713 -193.595L-76.9578 -247.335L-94.0564 -232.54"></path>
  <path fill="none" stroke="black" stroke-width="8" stroke-miterlimit="4" transform="translate(256 256)" d="M-113.676 -232.454C-98.0129 -246.007 -81.5737 -252.669 -76.9578 -247.335C-72.3419 -242.001 -81.2973 -226.689 -96.9602 -213.136C-112.623 -199.583 -129.062 -192.92 -133.678 -198.254C-138.294 -203.589 -129.339 -218.9 -113.676 -232.454Z"></path>
  <path fill="#9C4040" transform="matrix(0.605664 -0.524085 0.524085 0.605664 108.227 53.6944)" d="M9.99829 15.3403L-13.0686 125.78L126.715 125.78L103.648 15.3403L9.99829 15.3403Z"></path>
  <path fill="none" stroke="black" stroke-width="7" stroke-miterlimit="4" transform="translate(256 256)" d="M-58.0004 -168.112C-32.0767 -190.544 -6.2764 -203.198 -0.373775 -196.377C5.52885 -189.555 -10.7014 -165.841 -36.6251 -143.409C-62.5488 -120.977 -88.3491 -108.322 -94.2517 -115.144C-100.154 -121.965 -83.9241 -145.68 -58.0004 -168.112Z"></path>
  <path fill="none" stroke="black" stroke-width="7" stroke-linejoin="round" transform="translate(256 256)" d="M-94.2517 -115.144C-94.2517 -115.144 -101.097 -123.054 -101.097 -123.054C-102.731 -124.943 -102.622 -128.189 -101.071 -132.356"></path>
  <path fill="none" stroke="black" stroke-width="7" stroke-linejoin="round" transform="translate(256 256)" d="M-7.80978 -204.851C-7.59447 -204.681 -7.39728 -204.494 -7.2188 -204.287C-7.2188 -204.287 -1.46846 -197.642 -0.508805 -196.533"></path>
  <path fill="#611E1E" transform="matrix(0.605664 -0.524085 0.138801 0.160406 208.687 100.24)" d="M0.749685 55.1992C17.8705 55.1992 66.8714 46.0031 69.8043 0.434675C69.9644 -2.05384 77.4999 -10.588 77.5 0C77.5 42.5259 42.8021 77 -7.62939e-06 77C-42.8021 77 -77.5 42.5259 -77.5 0C-76.7271 -10.3619 -70.1795 -1.22879 -69.733 1.90431C-67.4205 42.6838 -17.7408 55.1992 0.749685 55.1992Z"></path>
  <defs>
    <linearGradient id="gradient_0" gradientUnits="userSpaceOnUse" x1="8.5369253" y1="175.39754" x2="0.96320713" y2="-480.78424">
      <stop offset="0" stop-color="#583636"></stop>
      <stop offset="0.015997024" stop-color="#583636"></stop>
      <stop offset="0.98742092" stop-color="#EE1010"></stop>
      <stop offset="1" stop-color="#EE1010"></stop>
    </linearGradient>
  </defs>
  <path fill="url(#gradient_0)" transform="matrix(0.656294 -0.567895 0.119878 0.138539 208.687 100.24)" d="M0 -64C35.6224 -64 64.5 -35.3462 64.5 1.5378e-05C64.5 35.3462 35.6224 64 0 64C-35.6224 64 -64.5 35.3462 -64.5 -1.5378e-05C-64.5 -35.3462 -35.6224 -64 0 -64Z"></path>
  <path fill="#6C88D9" transform="matrix(1.79976 0.0293645 -0.0293645 1.79976 224.944 112.975)" d="M-1.90735e-06 -29.5C19.0538 -29.5 34.5 -16.1805 34.5 0.250008C34.5 16.6805 19.0538 30 -1.90735e-06 30C-19.0538 30 -34.5 16.6805 -34.5 0.250008C-34.5 -16.1805 -19.0538 -29.5 -1.90735e-06 -29.5Z"></path>
  <path fill="#91A8EB" transform="matrix(1.50913 0.0246226 -0.0246226 1.50913 265.031 275.672)" d="M0.249979 -81.5196C49.8787 -81.2985 84.5 -60 84.5 -9.53674e-07C84.5 41.1452 46.78 74.5 0.25 74.5C-62.1254 74.5 -84 60.12 -84 -9.53674e-07C-84 -71.2881 -62.1254 -81.5196 0.249979 -81.5196Z"></path>
  <clipPath id="cl_147">
    <path d="M269.125 131.524C335.942 132.614 420.237 170.168 418.476 278.154C417.267 352.205 348.276 414.328 264.533 412.962C152.272 411.131 113.451 381.407 115.216 273.206C117.309 144.904 177.844 130.035 269.125 131.524Z"></path>
  </clipPath>
  <g clip-path="url(#cl_147)">
    <path fill="#A6B8EF" transform="matrix(0.805953 0.0131497 -0.0151654 0.929491 320.69 240.551)" d="M0.24998 -81.5196C49.8787 -81.2985 84.5 -60 84.5 0C84.5 41.1452 67.1354 74.5 20.6054 74.5C-41.77 74.5 -84 60.12 -84 0C-84 -71.2881 -62.1254 -81.5197 0.24998 -81.5196Z"></path>
    <path fill="#C1CBE8" transform="matrix(0.197995 -0.202726 0.445703 0.435301 343.79 191.701)" d="M11.5671 -77.0972C58.0971 -77.0972 97.5959 -41.1452 97.5959 -2.62461e-05C97.5959 41.1452 73.4188 83.0524 26.8888 83.0524C-35.4866 83.0524 11.8086 60.12 11.8086 -2.49678e-05C11.8086 -41.1452 -34.9629 -77.0972 11.5671 -77.0972Z"></path>
    <path fill="#C1CBE8" transform="matrix(0.197995 -0.202726 0.184201 0.179903 388.232 256.057)" d="M48.93 -79.7643C80.6763 -79.053 77.4946 -42.8889 62.8508 4.00562C48.2069 50.9001 -0.0393895 91.2963 -20.4536 67.777C-40.8678 44.2576 -16.8141 31.8032 -0.458961 -5.13884C15.8962 -42.0808 17.1838 -80.4756 48.93 -79.7643Z"></path>
  </g>
  <path fill="#91A8EB" transform="matrix(1.37947 2.85496e-09 -2.85496e-09 1.37947 210.879 346.868)" d="M66.4744 -2.30747C84.6957 -1.91541 98.3135 -2.41412 97.6541 49.0753C96.9321 74.553 89.138 88.9782 78.6245 88.603C68.1109 88.2279 59.4713 88.2421 49.1379 88.2174C38.7582 88.1191 31.5455 71.2725 32.2676 45.7948C32.6633 -7.90491 48.2533 -2.69953 66.4744 -2.30747Z"></path>
  <path fill="#91A8EB" transform="matrix(1.79976 0.0293645 -0.0293645 1.79976 224.944 112.975)" d="M-1.90735e-06 -22.5C14.6355 -22.5 26.5 -12.3145 26.5 0.250008C26.5 12.8145 14.6355 23 -1.90735e-06 23C-14.6355 23 -26.5 12.8145 -26.5 0.250008C-26.5 -12.3145 -14.6355 -22.5 -1.90735e-06 -22.5Z"></path>
  <path fill="#1B2B56" transform="matrix(1.78669 -0.21848 0.065544 0.536007 237.727 91.0069)" d="M-1.0822e-06 -2.50006C1.38071 -2.50006 2.5 -1.38077 2.5 -6.10352e-05C2.5 1.38065 1.38071 2.49994 -1.06357e-06 2.49994C-1.38071 2.49994 -2.5 1.38065 -2.5 -6.10352e-05C-2.5 -1.38077 -1.38071 -2.50006 -1.0822e-06 -2.50006Z"></path>
  <path fill="none" stroke="#1B2B56" stroke-width="0.5" stroke-linecap="round" stroke-linejoin="round" transform="matrix(1.78289 -0.247598 0.247598 1.78289 246.371 89.8953)" d="M1.98548 0.277974L6.02909 0.184236"></path>
  <path fill="#1B2B56" transform="matrix(1.78669 -0.21848 0.065544 0.536007 266.314 87.5112)" d="M-9.31323e-09 -2.50003C1.38071 -2.50003 2.5 -1.38074 2.5 -3.05176e-05C2.5 1.38068 1.38071 2.49997 9.31323e-09 2.49997C-1.38071 2.49997 -2.5 1.38068 -2.5 -3.05176e-05C-2.5 -1.38074 -1.38071 -2.50003 -9.31323e-09 -2.50003Z"></path>
  <path fill="#354B89" transform="matrix(1.45897 -0.895021 0.934518 0.718834 258.248 80.3866)" d="M7.45058e-08 -2.49998C1.38071 -2.49998 2.5 -1.3807 2.5 1.52588e-05C2.5 1.38073 1.38071 2.50002 -7.45058e-08 2.50002C-1.38071 2.50002 -2.5 1.38073 -2.5 1.52588e-05C-2.5 -1.3807 -1.38071 -2.49998 7.45058e-08 -2.49998Z"></path>
  <path fill="#354B89" transform="matrix(2.16453 0.282115 -0.62247 1.07759 243.008 81.4154)" d="M3.8147e-06 -2.98531C1.68306 -2.98531 3.04744 -1.64873 3.04744 3.05176e-05C3.04744 1.64879 1.68306 2.98537 3.8147e-06 2.98537C-1.68305 2.98537 -3.04744 1.64879 -3.04744 3.05176e-05C-3.04744 -1.64873 -1.68305 -2.98531 3.8147e-06 -2.98531Z"></path>
  <clipPath id="cl_14a">
    <path d="M267.416 152.655C342.307 154.211 394.03 187.205 392.553 277.753C391.54 339.846 333.794 389.254 263.574 388.109C169.442 386.573 136.784 364.333 138.264 273.604C140.02 166.021 173.283 151.119 267.416 152.655Z"></path>
  </clipPath>
  <g clip-path="url(#cl_14a)">
    <path fill="#3A6D3D" transform="matrix(0.605664 -0.524085 0.698428 0.807145 163.314 105.119)" d="M74.2156 32.7782L86.5869 31.6617C86.5869 31.6617 73.8823 101.182 67.5039 101.264C67.5039 101.264 49.336 101.463 49.336 101.463C61.2865 101.485 74.2156 32.7782 74.2156 32.7782Z"></path>
  </g>
  <path fill="#9C4040" transform="matrix(0.365938 -0.316649 0.108543 0.125439 150.682 33.2053)" d="M-1.52588e-05 -77C42.8021 -77 77.5 -42.5259 77.5 9.23872e-06C77.5 42.5259 42.8021 77 -1.52588e-05 77C-42.8021 77 -77.5 42.5259 -77.5 -9.23872e-06C-77.5 -42.5259 -42.8021 -77 -1.52588e-05 -77Z"></path>
  <path fill="#C1CBE8" transform="matrix(0.167375 -0.632967 0.886841 0.234507 184.437 109.824)" d="M0 -11.5C14.6355 -11.5 28.0061 -7.98328 28.0061 -1.63201C28.0061 4.71927 15.5059 0.400186 0.870357 0.400186C-13.7652 0.400184 -26.766 4.37689 -26.766 -1.97439C-26.766 -8.32566 -14.6355 -11.5 0 -11.5Z"></path>
  <path fill="#611E1E" transform="matrix(0.605664 -0.524085 0.138801 0.160406 208.687 100.24)" d="M-7.62939e-06 -77C42.8021 -77 77.5 -42.5259 77.5 0C76.8893 5.3405 70.0211 3.38985 69.8079 -1.63419C68.2223 -39.0047 22.4635 -53.8416 1.14806 -53.8416C-18.1129 -53.8416 -70.7895 -39.8299 -69.4931 2.24309C-69.4637 3.19753 -74.2395 10.5248 -77.5 0C-77.5 -42.5259 -42.8021 -77 -7.62939e-06 -77Z"></path>
  <clipPath id="cl_14b">
    <path d="M122.322 57.7455L166.231 136.724L250.893 63.4656L179.042 8.66499L122.322 57.7455Z"></path>
  </clipPath>
  <g clip-path="url(#cl_14b)">
    <path fill="#BA4646" transform="matrix(0.439468 -0.380274 0.333216 0.385084 156.157 65.0618)" d="M-67.4615 -84L67.4615 -84L92.3226 83.7694L-67.4615 84L-67.4615 -84Z"></path>
  </g>
  <clipPath id="cl_14c">
    <path d="M142.324 23.5465C157.987 9.99324 174.426 3.3306 179.042 8.66501C183.658 13.9994 174.703 29.3109 159.04 42.8641C143.377 56.4173 126.938 63.08 122.322 57.7455C117.706 52.4111 126.661 37.0997 142.324 23.5465Z"></path>
  </clipPath>
  <g clip-path="url(#cl_14c)">
    <path fill="#BA4646" transform="matrix(0.439468 -0.380274 0.333216 0.385084 156.157 65.0618)" d="M-67.4615 -84L67.4615 -84L92.3226 83.7694L-67.4615 84L-67.4615 -84Z"></path>
  </g>
  <path fill="#993535" transform="matrix(0.605664 -0.524085 0.524085 0.605664 161.748 140.856)" d="M-1.52588e-05 -7.62939e-06C-1.52588e-05 -7.62939e-06 -7.62939e-06 -13.0609 0 -13.0609C7.62939e-06 -24.308 35.8327 -33.7055 77.5 -33.393C119.167 -33.0805 155 -24.308 155 -13.0609C155 -13.0609 155 0 155 0C155 -10.5379 119.167 -20.393 77.5 -20.393C35.8327 -20.393 -1.52588e-05 -10.5379 -1.52588e-05 -7.62939e-06Z"></path>
  <path fill="#669969" transform="matrix(0.605664 -0.524085 0.644995 0.745395 168.723 111.37)" d="M-0.506073 0.0225906C3.1732 -3.90974 9.28304 -5.30726 18.0791 -2.24783C23.7018 23.1815 52.5776 101.462 67.2296 101.254C62.0975 101.327 59.1898 101.368 46.7011 101.546C36.2156 101.695 2.73149 5.31647 -0.506073 0.0225906Z"></path>
  <path fill="none" stroke="black" stroke-width="7" stroke-linecap="round" stroke-linejoin="round" transform="matrix(2.15345 4.45679e-09 -4.42021e-09 2.13577 150.209 284.171)" d="M29.7315 -34.7109C32.4818 -29.7909 36.3179 -22.0619 40.4773 -9.00451C50.0014 18.2011 56.4476 39.5973 33.0823 49.3301C18.3754 55.3465 -3.76537 37.3351 -13.2964 10.1098C-20.828 -12.6796 -16.822 -36.1514 -8.02995 -49.6689"></path>
  <path fill="#6C88D9" transform="matrix(2.15345 4.45679e-09 -4.42021e-09 2.13577 150.209 284.171)" d="M9.09101 -61.1887C13.7397 -58.0619 24.4677 -45.7907 25.7088 -42.0678C26.95 -38.3449 33.2218 -31.7815 40.4773 -9.00451C50.0014 18.2011 56.4476 39.5973 33.0823 49.3301C18.3754 55.3465 -3.76537 37.3351 -13.2964 10.1098C-24.8435 -24.83 -9.27058 -61.3741 9.09101 -61.1887Z"></path>
  <path fill="#91A8EB" transform="matrix(1.67686 3.47045e-09 -4.32784e-09 2.09114 154.199 278.458)" d="M10.3848 -54.8288C31.6095 -59.9597 31.4018 -34.9787 41.6931 -8.42821C53.6867 18.3839 59.1661 40.9285 45.5108 46.7479C31.8554 52.5674 3.12408 35.1405 -10.4355 8.70814C-23.1512 -19.153 -10.84 -49.6978 10.3848 -54.8288Z"></path>
  <path fill="none" stroke="white" stroke-width="5" stroke-linecap="round" stroke-linejoin="round" transform="matrix(1.5 0 0 1.5 158.539 362.24)" d=""></path>
</svg>