<?xml version="1.0" encoding="utf-8"?>
<svg xmlns="http://www.w3.org/2000/svg" xmlns:xlink="http://www.w3.org/1999/xlink" width="512" height="512">
  <path fill="none" stroke="black" stroke-width="7" stroke-linejoin="round" transform="matrix(1.8 3.72529e-09 -3.72529e-09 1.8 210.879 409.868)" d="M-1.11742 -46.0435C16.3241 -51.3311 37.9007 -42.1496 42.3591 4.01237C38.2764 35.5134 21.995 48.4915 12.1074 44.8983C2.21973 41.3052 -6.00479 38.6594 -15.8289 35.455C-25.719 32.0393 -21.5512 25.6028 -17.7322 1.90415C-22.9885 -38.3581 -18.559 -40.756 -1.11742 -46.0435Z"></path>
  <path fill="none" stroke="black" stroke-width="7" stroke-linejoin="round" transform="matrix(-2.15345 -3.29802e-07 -3.27096e-07 2.13577 356.277 281.722)" d="M19.9681 -56.0808C22.3849 -51.0006 25.4048 -34.9285 24.589 -31.088C23.7732 -27.2475 26.329 -17.6293 20.2797 5.96441C13.4007 34.0094 4.50637 55.7505 -20.0729 49.7878C-35.4801 45.9459 -42.0086 20.1924 -35.1296 -7.85251C-26.5053 -43.0128 4.26836 -65.6833 19.9681 -56.0808Z"></path>
  <path fill="none" stroke="black" stroke-width="7" stroke-linejoin="round" transform="matrix(1.79976 0.0293645 -0.0293645 1.79976 266.572 282.888)" d="M0.209625 -80.0966C37.3348 -80.0966 84.5 -60 84.5 0C84.5 41.1452 46.7396 76.2788 0.209625 76.2788C-62.1658 76.2788 -84 60.12 -84 0C-84 -71.2881 -50.5087 -80.0966 0.209625 -80.0966Z"></path>
  <path fill="none" stroke="black" stroke-width="7" stroke-linejoin="round" transform="matrix(1.53671 3.18039e-09 -3.72529e-09 1.8 308.979 398.168)" d="M-2.17632 -47.8091C16.0473 -48.0287 31.5327 -41.3058 32.1615 8.26598C32.774 22.1116 26.8899 45.8885 13.2117 45.8693C-0.466461 45.8502 -6.6021 45.8415 -18.8041 45.8244C-31.0061 45.8073 -33.2194 22.9067 -33.8319 9.06107C-34.8077 -42.6974 -20.3999 -47.5896 -2.17632 -47.8091Z"></path>
  <path fill="#6C88D9" transform="matrix(-2.15345 -3.29802e-07 -3.27096e-07 2.13577 356.277 281.722)" d="M19.9681 -56.0808C22.3849 -51.0006 25.4048 -34.9285 24.589 -31.088C23.7732 -27.2475 26.329 -17.6293 20.2797 5.96441C13.4007 34.0094 4.50637 55.7505 -20.0729 49.7878C-35.4801 45.9459 -42.0086 20.1924 -35.1296 -7.85251C-26.5053 -43.0128 4.26836 -65.6833 19.9681 -56.0808Z"></path>
  <path fill="#5170C8" transform="matrix(1.53671 3.18039e-09 -3.72529e-09 1.8 308.979 398.168)" d="M-2.17632 -47.8091C16.0473 -48.0287 31.5327 -41.3058 32.1615 8.26598C32.774 22.1116 26.8899 45.8885 13.2117 45.8693C-0.466461 45.8502 -6.6021 45.8415 -18.8041 45.8244C-31.0061 45.8073 -33.2194 22.9067 -33.8319 9.06107C-34.8077 -42.6974 -20.3999 -47.5896 -2.17632 -47.8091Z"></path>
  <path fill="#839BE0" transform="matrix(1.20328 2.49031e-09 -2.91698e-09 1.40944 308.979 398.168)" d="M-2.56935 -48.3512C15.6543 -48.5708 30.5894 -41.7576 31.4195 12.3046C31.209 30.2386 22.4749 45.4051 8.79667 45.3859C-4.88151 45.3667 -4.70676 45.4175 -16.9088 45.4003C-29.1108 45.3832 -34.7845 31.0338 -34.574 13.0997C-35.7511 -43.1493 -20.793 -48.1317 -2.56935 -48.3512Z"></path>
  <path fill="#6C88D9" transform="matrix(1.8 3.72529e-09 -3.72529e-09 1.8 210.879 409.868)" d="M-1.11742 -46.0435C16.3241 -51.3311 37.9007 -42.1496 42.3591 4.01237C38.2764 35.5134 21.995 48.4915 12.1074 44.8983C2.21973 41.3052 -6.00479 38.6594 -15.8289 35.455C-25.719 32.0393 -21.5512 25.6028 -17.7322 1.90415C-22.9885 -38.3581 -18.559 -40.756 -1.11742 -46.0435Z"></path>
  <path fill="#91A8EB" transform="matrix(-1.67686 -2.56813e-07 -3.2026e-07 2.09114 352.287 276.009)" d="M21.0625 -49.8564C42.5825 -45.5886 28.4481 -22.8135 18.2996 4.62694C8.15118 32.0674 -10.3886 52.4475 -25.4003 49.4704C-40.412 46.4933 -45.2361 21.554 -36.6378 -6.32484C-28.0396 -34.2037 -0.457317 -54.1242 21.0625 -49.8564Z"></path>
  <path fill="none" stroke="black" stroke-width="7" stroke-miterlimit="4" transform="matrix(1.79976 0.0293645 -0.0293645 1.79976 225.12 120.19)" d="M-1.90735e-06 -29.5C19.0538 -29.5 34.5 -16.1805 34.5 0.249992C34.5 16.6805 19.0538 30 -1.90735e-06 30C-19.0538 30 -34.5 16.6805 -34.5 0.249992C-34.5 -16.1805 -19.0538 -29.5 -1.90735e-06 -29.5Z"></path>
  <path fill="none" stroke="black" stroke-width="7" stroke-linejoin="round" transform="translate(256 256)" d="M-24.6667 -156.374L-17.9536 -163.759C-17.9536 -163.759 22.9064 -100.988 19.101 -97.5781C19.101 -97.5781 18.4611 -97.0079 17.4918 -96.1442"></path>
  <path fill="none" stroke="black" stroke-width="7" stroke-linejoin="round" transform="translate(256 256)" d="M7.17526 -98.609C1.79213 -113.265 -13.4285 -138.432 -20.7016 -150.098"></path>
  <path fill="none" stroke="black" stroke-width="7" stroke-linejoin="round" transform="translate(256 256)" d="M18.2071 -96.8002C15.5476 -94.4163 13.5292 -92.607 6.68089 -86.4684C0.426331 -80.862 -82.0175 -135.154 -87.3929 -137.403C-87.7008 -142.262 -84.9017 -146.506 -77.6009 -148.835C-57.7937 -132.827 10.1862 -89.6104 18.926 -97.4446C18.679 -97.2232 18.4406 -97.0095 18.2071 -96.8002"></path>
  <path fill="#6C88D9" transform="matrix(1.79976 0.0293645 -0.0293645 1.79976 266.572 282.888)" d="M0.209625 -80.0966C37.3348 -80.0966 84.5 -60 84.5 0C84.5 41.1452 46.7396 76.2788 0.209625 76.2788C-62.1658 76.2788 -84 60.12 -84 0C-84 -71.2881 -50.5087 -80.0966 0.209625 -80.0966Z"></path>
  <path fill="#3A6D3D" transform="matrix(0.605664 -0.524085 0.698428 0.807145 163.49 112.065)" d="M74.2156 32.7781L86.5869 31.6617C86.5869 31.6617 73.8823 101.182 67.5039 101.264C67.5039 101.264 49.336 101.463 49.336 101.463C61.2865 101.485 74.2156 32.7781 74.2156 32.7781Z"></path>
  <path fill="none" stroke="black" stroke-width="7" stroke-miterlimit="4" transform="translate(256 256)" d="M-64.6376 -169.04C-38.7139 -191.472 -12.9136 -204.127 -7.01095 -197.305C-1.10833 -190.484 -17.3386 -166.769 -43.2623 -144.337C-69.186 -121.905 -94.9863 -109.251 -100.889 -116.072C-106.792 -122.893 -90.5613 -146.608 -64.6376 -169.04Z"></path>
  <path fill="#585555" transform="matrix(0.605664 -0.524085 0.138801 0.160406 202.05 99.3114)" d="M7.62939e-06 -77.0001C42.8021 -77.0001 77.5 -42.526 77.5 -6.10352e-05C77.5 42.5259 42.8021 76.9999 7.62939e-06 76.9999C-42.8021 76.9999 -77.5 42.5259 -77.5 -6.10352e-05C-77.5 -42.526 -42.8021 -77.0001 7.62939e-06 -77.0001Z"></path>
  <path fill="none" stroke="black" stroke-width="7" stroke-linejoin="round" transform="translate(256 256)" d="M-133.502 -191.309L-97.3222 -126.233"></path>
  <path fill="none" stroke="black" stroke-width="7" stroke-linejoin="round" transform="translate(256 256)" d="M-6.32118 -186.649L-76.7819 -240.39L-93.8804 -225.594"></path>
  <path fill="none" stroke="black" stroke-width="8" stroke-miterlimit="4" transform="translate(256 256)" d="M-113.5 -225.508C-97.837 -239.061 -81.3978 -245.724 -76.7819 -240.39C-72.166 -235.055 -81.1213 -219.744 -96.7843 -206.191C-112.447 -192.637 -128.886 -185.975 -133.502 -191.309C-138.118 -196.643 -129.163 -211.955 -113.5 -225.508Z"></path>
  <path fill="#9C4040" transform="matrix(0.605664 -0.524085 0.524085 0.605664 108.402 60.6398)" d="M9.99829 15.3403L-13.0685 125.78L126.715 125.78L103.648 15.3403L9.99829 15.3403Z"></path>
  <path fill="none" stroke="black" stroke-width="7" stroke-miterlimit="4" transform="translate(256 256)" d="M-57.8245 -161.166C-31.9008 -183.598 -6.10047 -196.253 -0.197845 -189.432C5.70478 -182.61 -10.5255 -158.896 -36.4492 -136.464C-62.3729 -114.032 -88.1732 -101.377 -94.0758 -108.198C-99.9784 -115.02 -83.7482 -138.734 -57.8245 -161.166Z"></path>
  <path fill="none" stroke="black" stroke-width="7" stroke-linejoin="round" transform="translate(256 256)" d="M-94.0758 -108.198C-94.0758 -108.198 -100.921 -116.109 -100.921 -116.109C-102.555 -117.998 -102.447 -121.244 -100.895 -125.411"></path>
  <path fill="none" stroke="black" stroke-width="7" stroke-linejoin="round" transform="translate(256 256)" d="M-7.63385 -197.905C-7.41854 -197.736 -7.22135 -197.548 -7.04287 -197.342C-7.04287 -197.342 -1.29256 -190.697 -0.332882 -189.588"></path>
  <path fill="#611E1E" transform="matrix(0.605664 -0.524085 0.138801 0.160406 208.863 107.185)" d="M0.749693 55.1992C17.8705 55.1992 66.8714 46.0031 69.8043 0.434675C69.9644 -2.05384 77.4999 -10.588 77.5 0C77.5 42.5259 42.8021 77 0 77C-42.8021 77 -77.5 42.5259 -77.5 0C-76.7271 -10.3619 -70.1795 -1.22879 -69.733 1.90431C-67.4205 42.6838 -17.7408 55.1992 0.749693 55.1992Z"></path>
  <defs>
    <linearGradient id="gradient_0" gradientUnits="userSpaceOnUse" x1="8.5369253" y1="175.39754" x2="0.96320713" y2="-480.78424">
      <stop offset="0" stop-color="#583636"></stop>
      <stop offset="0.015997024" stop-color="#583636"></stop>
      <stop offset="0.98742092" stop-color="#EE1010"></stop>
      <stop offset="1" stop-color="#EE1010"></stop>
    </linearGradient>
  </defs>
  <path fill="url(#gradient_0)" transform="matrix(0.656294 -0.567895 0.119878 0.138539 208.863 107.185)" d="M0 -64C35.6224 -64 64.5 -35.3462 64.5 1.5378e-05C64.5 35.3462 35.6224 64 0 64C-35.6224 64 -64.5 35.3462 -64.5 -1.5378e-05C-64.5 -35.3462 -35.6224 -64 0 -64Z"></path>
  <path fill="#6C88D9" transform="matrix(1.79976 0.0293645 -0.0293645 1.79976 225.12 120.19)" d="M-1.90735e-06 -29.5C19.0538 -29.5 34.5 -16.1805 34.5 0.249992C34.5 16.6805 19.0538 30 -1.90735e-06 30C-19.0538 30 -34.5 16.6805 -34.5 0.249992C-34.5 -16.1805 -19.0538 -29.5 -1.90735e-06 -29.5Z"></path>
  <path fill="#91A8EB" transform="matrix(1.50913 0.0246226 -0.0246226 1.50913 265.207 282.888)" d="M0.24998 -81.5196C49.8787 -81.2985 84.5 -60 84.5 0C84.5 41.1452 46.78 74.5 0.25 74.5C-62.1254 74.5 -84 60.12 -84 0C-84 -71.2881 -62.1254 -81.5196 0.24998 -81.5196Z"></path>
  <clipPath id="cl_33">
    <path d="M269.301 138.739C336.117 139.829 420.413 177.383 418.651 285.369C417.443 359.421 348.452 421.544 264.709 420.177C152.448 418.346 113.626 388.623 115.392 280.421C117.485 152.12 178.02 137.25 269.301 138.739Z"></path>
  </clipPath>
  <g clip-path="url(#cl_33)">
    <path fill="#A6B8EF" transform="matrix(0.805953 0.0131497 -0.0151654 0.929491 320.866 247.766)" d="M0.249972 -81.5196C49.8787 -81.2985 84.5 -60 84.5 0C84.5 41.1452 67.1354 74.5 20.6054 74.5C-41.77 74.5 -84 60.12 -84 0C-84 -71.2881 -62.1254 -81.5197 0.249972 -81.5196Z"></path>
    <path fill="#C1CBE8" transform="matrix(0.197995 -0.202726 0.445703 0.435301 343.966 198.917)" d="M11.5671 -77.0972C58.0971 -77.0972 97.5959 -41.1452 97.5959 -1.67094e-05C97.5959 41.1452 73.4188 83.0524 26.8888 83.0524C-35.4866 83.0524 11.8086 60.12 11.8086 -1.5431e-05C11.8086 -41.1452 -34.9629 -77.0972 11.5671 -77.0972Z"></path>
    <path fill="#C1CBE8" transform="matrix(0.197995 -0.202726 0.184201 0.179903 388.408 263.273)" d="M48.9301 -79.7642C80.6763 -79.0529 77.4946 -42.8889 62.8508 4.00565C48.2069 50.9001 -0.039359 91.2963 -20.4536 67.777C-40.8678 44.2576 -16.8141 31.8032 -0.45893 -5.13881C15.8962 -42.0808 17.1838 -80.4755 48.9301 -79.7642Z"></path>
  </g>
  <path fill="#91A8EB" transform="matrix(1.37947 2.85496e-09 -2.85496e-09 1.37947 210.879 346.868)" d="M2.59769 -1.03181C20.0392 -6.31931 41.8111 -4.89027 47.3451 48.2043C46.7252 72.4392 26.0914 93.7077 16.2038 90.1146C6.31621 86.5214 -1.90835 83.8756 -11.7324 80.6713C-21.5779 77.3829 -15.4756 69.4907 -14.8557 45.2557C-21.3115 -1.81905 -14.8438 4.25574 2.59769 -1.03181Z"></path>
  <path fill="#91A8EB" transform="matrix(1.79976 0.0293645 -0.0293645 1.79976 225.12 120.19)" d="M-1.90735e-06 -22.5C14.6355 -22.5 26.5 -12.3145 26.5 0.249992C26.5 12.8145 14.6355 23 -1.90735e-06 23C-14.6355 23 -26.5 12.8145 -26.5 0.249992C-26.5 -12.3145 -14.6355 -22.5 -1.90735e-06 -22.5Z"></path>
  <path fill="#1B2B56" transform="matrix(1.78669 -0.21848 0.065544 0.536007 238.131 98.5651)" d="M-3.07336e-07 -2.50003C1.38071 -2.50003 2.5 -1.38074 2.5 -3.05176e-05C2.5 1.38068 1.38071 2.49997 -2.8871e-07 2.49997C-1.38071 2.49997 -2.5 1.38068 -2.5 -3.05176e-05C-2.5 -1.38074 -1.38071 -2.50003 -3.07336e-07 -2.50003Z"></path>
  <path fill="none" stroke="#1B2B56" stroke-width="0.5" stroke-linecap="round" stroke-linejoin="round" transform="matrix(1.78289 -0.247598 0.247598 1.78289 246.775 97.4535)" d="M1.98548 0.277981L6.02909 0.184244"></path>
  <path fill="#1B2B56" transform="matrix(1.78669 -0.21848 0.065544 0.536007 266.718 95.0693)" d="M-9.31323e-09 -2.5C1.38071 -2.5 2.5 -1.38071 2.5 0C2.5 1.38071 1.38071 2.5 9.31323e-09 2.5C-1.38071 2.5 -2.5 1.38071 -2.5 0C-2.5 -1.38071 -1.38071 -2.5 -9.31323e-09 -2.5Z"></path>
  <path fill="#354B89" transform="matrix(1.45897 -0.895021 0.934518 0.718834 258.653 87.9447)" d="M7.45058e-08 -2.5C1.38071 -2.5 2.5 -1.38071 2.5 0C2.5 1.38071 1.38071 2.5 -7.45058e-08 2.5C-1.38071 2.5 -2.5 1.38071 -2.5 0C-2.5 -1.38071 -1.38071 -2.5 7.45058e-08 -2.5Z"></path>
  <path fill="#354B89" transform="matrix(2.16453 0.282115 -0.62247 1.07759 243.412 88.9736)" d="M3.8147e-06 -2.98532C1.68306 -2.98532 3.04744 -1.64874 3.04744 1.52588e-05C3.04744 1.64877 1.68306 2.98535 3.8147e-06 2.98535C-1.68305 2.98535 -3.04744 1.64877 -3.04744 1.52588e-05C-3.04744 -1.64874 -1.68305 -2.98532 3.8147e-06 -2.98532Z"></path>
  <clipPath id="cl_36">
    <path d="M267.592 159.87C342.482 161.426 394.206 194.421 392.729 284.968C391.716 347.062 333.97 396.47 263.75 395.324C169.618 393.788 136.96 371.548 138.44 280.819C140.196 173.236 173.459 158.334 267.592 159.87Z"></path>
  </clipPath>
  <g clip-path="url(#cl_36)">
    <path fill="#3A6D3D" transform="matrix(0.605664 -0.524085 0.698428 0.807145 163.49 112.065)" d="M74.2156 32.7781L86.5869 31.6617C86.5869 31.6617 73.8823 101.182 67.5039 101.264C67.5039 101.264 49.336 101.463 49.336 101.463C61.2865 101.485 74.2156 32.7781 74.2156 32.7781Z"></path>
  </g>
  <path fill="#9C4040" transform="matrix(0.365938 -0.316649 0.108543 0.125439 150.858 40.1507)" d="M-7.62939e-06 -76.9999C42.8021 -76.9999 77.5 -42.5258 77.5 0.000131309C77.5 42.5261 42.8021 77.0001 -7.62939e-06 77.0001C-42.8021 77.0001 -77.5 42.526 -77.5 0.000112832C-77.5 -42.5258 -42.8021 -76.9999 -7.62939e-06 -76.9999Z"></path>
  <path fill="#C1CBE8" transform="matrix(0.167375 -0.632967 0.886841 0.234507 184.613 117.04)" d="M0 -11.5C14.6355 -11.5 28.0061 -7.98328 28.0061 -1.63201C28.0061 4.71927 15.5059 0.400186 0.870357 0.400186C-13.7652 0.400184 -26.766 4.37689 -26.766 -1.97439C-26.766 -8.32566 -14.6355 -11.5 0 -11.5Z"></path>
  <path fill="#611E1E" transform="matrix(0.605664 -0.524085 0.138801 0.160406 208.863 107.185)" d="M0 -77C42.8021 -77 77.5 -42.5259 77.5 0C76.8894 5.3405 70.0211 3.38985 69.8079 -1.63419C68.2223 -39.0047 22.4635 -53.8416 1.14807 -53.8416C-18.1129 -53.8416 -70.7895 -39.8299 -69.4931 2.24309C-69.4637 3.19753 -74.2395 10.5248 -77.5 0C-77.5 -42.5259 -42.8021 -77 0 -77Z"></path>
  <clipPath id="cl_37">
    <path d="M122.498 64.6909L166.407 143.669L251.069 70.411L179.218 15.6104L122.498 64.6909Z"></path>
  </clipPath>
  <g clip-path="url(#cl_37)">
    <path fill="#BA4646" transform="matrix(0.439468 -0.380274 0.333216 0.385084 156.333 72.0072)" d="M-67.4615 -84L67.4615 -84L92.3226 83.7695L-67.4615 84L-67.4615 -84Z"></path>
  </g>
  <clipPath id="cl_38">
    <path d="M142.5 30.4919C158.163 16.9386 174.602 10.276 179.218 15.6104C183.834 20.9448 174.879 36.2563 159.216 49.8095C143.553 63.3627 127.114 70.0254 122.498 64.6909C117.882 59.3565 126.837 44.0451 142.5 30.4919Z"></path>
  </clipPath>
  <g clip-path="url(#cl_38)">
    <path fill="#BA4646" transform="matrix(0.439468 -0.380274 0.333216 0.385084 156.333 72.0072)" d="M-67.4615 -84L67.4615 -84L92.3226 83.7695L-67.4615 84L-67.4615 -84Z"></path>
  </g>
  <path fill="#993535" transform="matrix(0.605664 -0.524085 0.524085 0.605664 161.924 147.802)" d="M0 -1.52588e-05C0 -1.52588e-05 0 -13.0609 7.62939e-06 -13.0609C7.62939e-06 -24.308 35.8327 -33.7055 77.5 -33.393C119.167 -33.0805 155 -24.308 155 -13.0609C155 -13.0609 155 0 155 0C155 -10.5379 119.167 -20.393 77.5 -20.393C35.8327 -20.393 0 -10.5379 0 -1.52588e-05Z"></path>
  <path fill="#669969" transform="matrix(0.605664 -0.524085 0.644995 0.745395 168.899 118.315)" d="M-0.506058 0.0226135C3.17321 -3.90972 9.28304 -5.30722 18.0792 -2.2478C23.7018 23.1815 52.5776 101.462 67.2296 101.254C62.0975 101.327 59.1898 101.368 46.7011 101.546C36.2156 101.695 2.73151 5.31648 -0.506058 0.0226135Z"></path>
  <path fill="none" stroke="black" stroke-width="7" stroke-linecap="round" stroke-linejoin="round" transform="matrix(2.15345 4.45679e-09 -4.42021e-09 2.13577 150.385 291.386)" d="M22.4091 -24.0886C22.2872 -17.8417 21.4546 -8.09623 16.5215 6.40926C6.78508 33.509 -8.51017 54.122 -31.6408 43.8353C-46.1215 37.2846 -46.7326 13.9638 -37.0075 -13.1043C-30.0246 -34.5119 -15.3667 -50.7463 -1.69039 -56.9598"></path>
  <path fill="#6C88D9" transform="matrix(2.15345 4.45679e-09 -4.42021e-09 2.13577 150.385 291.386)" d="M18.771 -57.1659C21.0342 -52.0143 23.5708 -35.8575 22.6402 -32.0436C21.7096 -28.2297 24.5616 -17.2324 16.5215 6.40926C6.78508 33.509 -8.51017 54.122 -31.6408 43.8353C-46.1215 37.2846 -46.7326 13.9638 -37.0075 -13.1043C-26.1309 -46.4488 3.36639 -67.2427 18.771 -57.1659Z"></path>
  <path fill="#91A8EB" transform="matrix(1.67686 3.47045e-09 -4.32784e-09 2.09114 154.375 285.673)" d="M19.3493 -51.0202C40.6984 -46.2324 26.101 -23.4362 14.4133 3.77731C2.4644 30.7395 -18.8541 50.1162 -33.5394 46.2309C-48.2247 42.3456 -50.137 17.97 -39.7066 -9.49588C-29.6957 -36.8026 -1.99975 -55.8079 19.3493 -51.0202Z"></path>
  <path fill="none" stroke="white" stroke-width="5" stroke-linecap="round" stroke-linejoin="round" transform="matrix(1.5 0 0 1.5 158.539 362.24)" d=""></path>
</svg>