<?xml version="1.0" encoding="utf-8"?>
<svg xmlns="http://www.w3.org/2000/svg" xmlns:xlink="http://www.w3.org/1999/xlink" width="512" height="512">
  <path fill="none" stroke="black" stroke-width="7" stroke-linejoin="round" transform="matrix(1.8 3.72529e-09 -3.72529e-09 1.8 210.879 409.868)" d="M5.99182 -45.638C22.1752 -54.0204 48.2294 -44.0406 55.2011 1.09595C48.5017 32.5455 27.444 46.5859 18.4665 41.1014C9.4889 35.6169 1.95328 31.3912 -7.03922 26.3004C-16.0544 20.9893 -6.23944 17.8712 -0.0534248 -1.34268C-8.1976 -35.8782 -10.1915 -37.2556 5.99182 -45.638Z"></path>
  <path fill="none" stroke="black" stroke-width="7" stroke-linejoin="round" transform="matrix(-2.15345 -3.29802e-07 -3.27096e-07 2.13577 356.564 293.494)" d="M19.7287 -56.5676C22.3252 -51.5783 25.9167 -35.6262 25.2385 -31.7586C24.5603 -27.891 27.4577 -18.3717 22.2542 5.42612C16.3805 33.7025 8.26767 55.7522 -16.5085 50.6851C-32.0427 47.4046 -39.486 21.9046 -33.6123 -6.37171C-26.2482 -41.8221 3.69645 -65.5943 19.7287 -56.5676Z"></path>
  <path fill="none" stroke="black" stroke-width="7" stroke-linejoin="round" transform="matrix(1.79976 0.0293645 -0.0293645 1.79976 266.859 294.659)" d="M0.209625 -80.0966C37.3348 -80.0966 84.5 -60 84.5 0C84.5 41.1452 46.7396 76.2788 0.209625 76.2788C-62.1658 76.2788 -84 60.12 -84 0C-84 -71.2881 -50.5087 -80.0966 0.209625 -80.0966Z"></path>
  <path fill="none" stroke="black" stroke-width="7" stroke-linejoin="round" transform="matrix(1.53671 3.18039e-09 -3.72529e-09 1.8 308.979 398.168)" d="M-11.2817 -47.6163C6.94242 -47.7998 22.4095 -41.0462 22.9037 8.5266C23.4786 22.3734 17.5301 46.1386 3.85192 46.0924C-9.82614 46.0461 -15.9617 46.0254 -28.1637 45.9841C-40.3656 45.9428 -42.5168 23.0378 -43.0917 9.19107C-43.9269 -42.5692 -29.5059 -47.4328 -11.2817 -47.6163Z"></path>
  <path fill="#6C88D9" transform="matrix(-2.15345 -3.29802e-07 -3.27096e-07 2.13577 356.564 293.494)" d="M19.7287 -56.5676C22.3252 -51.5783 25.9167 -35.6262 25.2385 -31.7586C24.5603 -27.891 27.4577 -18.3717 22.2542 5.42612C16.3805 33.7025 8.26767 55.7522 -16.5085 50.6851C-32.0427 47.4046 -39.486 21.9046 -33.6123 -6.37171C-26.2482 -41.8221 3.69645 -65.5943 19.7287 -56.5676Z"></path>
  <path fill="#5170C8" transform="matrix(1.53671 3.18039e-09 -3.72529e-09 1.8 308.979 398.168)" d="M-11.2817 -47.6163C6.94242 -47.7998 22.4095 -41.0462 22.9037 8.5266C23.4786 22.3734 17.5301 46.1386 3.85192 46.0924C-9.82614 46.0461 -15.9617 46.0254 -28.1637 45.9841C-40.3656 45.9428 -42.5168 23.0378 -43.0917 9.19107C-43.9269 -42.5692 -29.5059 -47.4328 -11.2817 -47.6163Z"></path>
  <path fill="#839BE0" transform="matrix(1.20328 2.49031e-09 -2.91698e-09 1.40944 308.979 398.168)" d="M-14.2324 -48.1046C3.99172 -48.2881 18.9083 -41.4454 19.5916 12.6184C19.3323 30.5519 10.5572 45.701 -3.12092 45.6547C-16.7991 45.6085 -16.6244 45.6596 -28.8264 45.6183C-41.0283 45.577 -46.6631 31.2163 -46.4038 13.2828C-47.4283 -42.9684 -32.4565 -47.9211 -14.2324 -48.1046Z"></path>
  <path fill="#6C88D9" transform="matrix(1.8 3.72529e-09 -3.72529e-09 1.8 210.879 409.868)" d="M5.99182 -45.638C22.1752 -54.0204 48.2294 -44.0406 55.2011 1.09595C48.5017 32.5455 27.444 46.5859 18.4665 41.1014C9.4889 35.6169 1.95328 31.3912 -7.03922 26.3004C-16.0544 20.9893 -6.23944 17.8712 -0.0534248 -1.34268C-8.1976 -35.8782 -10.1915 -37.2556 5.99182 -45.638Z"></path>
  <path fill="#91A8EB" transform="matrix(-1.67686 -2.56813e-07 -3.2026e-07 2.09114 352.574 287.781)" d="M20.9669 -50.2931C42.6644 -46.649 29.5611 -23.4808 20.6505 4.23466C11.7399 31.9501 -5.8735 52.852 -21.0091 50.31C-36.1446 47.7679 -42.0846 22.9839 -34.7428 -5.12496C-27.401 -33.2338 -0.730499 -53.9372 20.9669 -50.2931Z"></path>
  <path fill="none" stroke="black" stroke-width="7" stroke-miterlimit="4" transform="matrix(1.79976 0.0293645 -0.0293645 1.79976 225.407 131.962)" d="M-1.90735e-06 -29.5C19.0538 -29.5 34.5 -16.1805 34.5 0.25C34.5 16.6805 19.0538 30 -1.90735e-06 30C-19.0538 30 -34.5 16.6805 -34.5 0.25C-34.5 -16.1805 -19.0538 -29.5 -1.90735e-06 -29.5Z"></path>
  <path fill="none" stroke="black" stroke-width="7" stroke-linejoin="round" transform="translate(256 256)" d="M-24.3797 -143.087L-17.6666 -150.472C-17.6666 -150.472 23.1934 -87.7009 19.388 -84.2914C19.388 -84.2914 18.7481 -83.7211 17.7788 -82.8574"></path>
  <path fill="none" stroke="black" stroke-width="7" stroke-linejoin="round" transform="translate(256 256)" d="M7.46227 -85.3222C2.07914 -99.9782 -13.1415 -125.145 -20.4145 -136.811"></path>
  <path fill="none" stroke="black" stroke-width="7" stroke-linejoin="round" transform="translate(256 256)" d="M18.4941 -83.5134C15.8346 -81.1295 13.8162 -79.3202 6.96792 -73.1816C0.713356 -67.5752 -81.7305 -121.867 -87.1059 -124.116C-87.4138 -128.975 -84.6147 -133.219 -77.3139 -135.549C-57.5067 -119.541 10.4732 -76.3236 19.213 -84.1578C18.966 -83.9364 18.7276 -83.7227 18.4942 -83.5134"></path>
  <path fill="#6C88D9" transform="matrix(1.79976 0.0293645 -0.0293645 1.79976 266.859 294.659)" d="M0.209625 -80.0966C37.3348 -80.0966 84.5 -60 84.5 0C84.5 41.1452 46.7396 76.2788 0.209625 76.2788C-62.1658 76.2788 -84 60.12 -84 0C-84 -71.2881 -50.5087 -80.0966 0.209625 -80.0966Z"></path>
  <path fill="#3A6D3D" transform="matrix(0.605664 -0.524085 0.698428 0.807145 163.777 125.351)" d="M74.2156 32.7782L86.5869 31.6617C86.5869 31.6617 73.8823 101.182 67.5039 101.264C67.5039 101.264 49.336 101.463 49.336 101.463C61.2865 101.485 74.2156 32.7782 74.2156 32.7782Z"></path>
  <path fill="none" stroke="black" stroke-width="7" stroke-miterlimit="4" transform="translate(256 256)" d="M-64.3506 -155.753C-38.4269 -178.185 -12.6266 -190.84 -6.72393 -184.018C-0.821304 -177.197 -17.0516 -153.482 -42.9753 -131.051C-68.8989 -108.619 -94.6993 -95.9638 -100.602 -102.785C-106.505 -109.607 -90.2742 -133.321 -64.3506 -155.753Z"></path>
  <path fill="#585555" transform="matrix(0.605664 -0.524085 0.138801 0.160406 202.337 112.598)" d="M0 -77.0001C42.8021 -77.0001 77.5 -42.526 77.5 -6.10352e-05C77.5 42.5259 42.8021 76.9999 0 76.9999C-42.8021 76.9999 -77.5 42.5259 -77.5 -6.10352e-05C-77.5 -42.526 -42.8021 -77.0001 0 -77.0001Z"></path>
  <path fill="none" stroke="black" stroke-width="7" stroke-linejoin="round" transform="translate(256 256)" d="M-133.215 -178.022L-97.0351 -112.946"></path>
  <path fill="none" stroke="black" stroke-width="7" stroke-linejoin="round" transform="translate(256 256)" d="M-6.03417 -173.362L-76.4949 -227.103L-93.5934 -212.307"></path>
  <path fill="none" stroke="black" stroke-width="8" stroke-miterlimit="4" transform="translate(256 256)" d="M-113.213 -212.221C-97.55 -225.775 -81.1107 -232.437 -76.4949 -227.103C-71.879 -221.768 -80.8343 -206.457 -96.4972 -192.904C-112.16 -179.351 -128.599 -172.688 -133.215 -178.022C-137.831 -183.357 -128.876 -198.668 -113.213 -212.221Z"></path>
  <path fill="#9C4040" transform="matrix(0.605664 -0.524085 0.524085 0.605664 108.689 73.9266)" d="M9.99828 15.3403L-13.0685 125.78L126.715 125.78L103.648 15.3403L9.99828 15.3403Z"></path>
  <path fill="none" stroke="black" stroke-width="7" stroke-miterlimit="4" transform="translate(256 256)" d="M-57.5375 -147.879C-31.6138 -170.311 -5.81345 -182.966 0.0891762 -176.145C5.9918 -169.323 -10.2385 -145.609 -36.1622 -123.177C-62.0858 -100.745 -87.8862 -88.0901 -93.7888 -94.9116C-99.6914 -101.733 -83.4612 -125.448 -57.5375 -147.879Z"></path>
  <path fill="none" stroke="black" stroke-width="7" stroke-linejoin="round" transform="translate(256 256)" d="M-93.7888 -94.9116C-93.7888 -94.9116 -100.634 -102.822 -100.634 -102.822C-102.268 -104.711 -102.16 -107.957 -100.608 -112.124"></path>
  <path fill="none" stroke="black" stroke-width="7" stroke-linejoin="round" transform="translate(256 256)" d="M-7.34684 -184.619C-7.13153 -184.449 -6.93433 -184.262 -6.75585 -184.055C-6.75585 -184.055 -1.00554 -177.41 -0.0458602 -176.301"></path>
  <path fill="#611E1E" transform="matrix(0.605664 -0.524085 0.138801 0.160406 209.15 120.472)" d="M0.749693 55.1992C17.8705 55.1992 66.8714 46.0031 69.8043 0.434675C69.9644 -2.05384 77.4999 -10.588 77.5 0C77.5 42.5259 42.8021 77 0 77C-42.8021 77 -77.5 42.5259 -77.5 0C-76.7271 -10.3619 -70.1795 -1.22879 -69.733 1.90431C-67.4205 42.6838 -17.7408 55.1992 0.749693 55.1992Z"></path>
  <defs>
    <linearGradient id="gradient_0" gradientUnits="userSpaceOnUse" x1="8.5369253" y1="175.39754" x2="0.96320713" y2="-480.78424">
      <stop offset="0" stop-color="#583636"></stop>
      <stop offset="0.015997024" stop-color="#583636"></stop>
      <stop offset="0.98742092" stop-color="#EE1010"></stop>
      <stop offset="1" stop-color="#EE1010"></stop>
    </linearGradient>
  </defs>
  <path fill="url(#gradient_0)" transform="matrix(0.656294 -0.567895 0.119878 0.138539 209.15 120.472)" d="M0 -63.9999C35.6224 -63.9999 64.5 -35.3461 64.5 7.64132e-05C64.5 35.3463 35.6224 64.0001 0 64.0001C-35.6224 64.0001 -64.5 35.3463 -64.5 4.56572e-05C-64.5 -35.3462 -35.6224 -63.9999 0 -63.9999Z"></path>
  <path fill="#6C88D9" transform="matrix(1.79976 0.0293645 -0.0293645 1.79976 225.407 131.962)" d="M-1.90735e-06 -29.5C19.0538 -29.5 34.5 -16.1805 34.5 0.25C34.5 16.6805 19.0538 30 -1.90735e-06 30C-19.0538 30 -34.5 16.6805 -34.5 0.25C-34.5 -16.1805 -19.0538 -29.5 -1.90735e-06 -29.5Z"></path>
  <path fill="#91A8EB" transform="matrix(1.50913 0.0246226 -0.0246226 1.50913 265.494 294.659)" d="M0.249979 -81.5196C49.8787 -81.2985 84.5 -60 84.5 0C84.5 41.1452 46.78 74.5 0.25 74.5C-62.1254 74.5 -84 60.12 -84 0C-84 -71.2881 -62.1254 -81.5196 0.249979 -81.5196Z"></path>
  <clipPath id="cl_75">
    <path d="M269.588 150.511C336.405 151.601 420.7 189.155 418.938 297.141C417.73 371.192 348.739 433.315 264.996 431.949C152.735 430.117 113.913 400.394 115.679 292.193C117.772 163.891 178.307 149.021 269.588 150.511Z"></path>
  </clipPath>
  <g clip-path="url(#cl_75)">
    <path fill="#A6B8EF" transform="matrix(0.805953 0.0131497 -0.0151654 0.929491 321.153 259.538)" d="M0.24998 -81.5196C49.8787 -81.2985 84.5 -60 84.5 0C84.5 41.1452 67.1354 74.5 20.6054 74.5C-41.77 74.5 -84 60.12 -84 0C-84 -71.2881 -62.1254 -81.5197 0.24998 -81.5196Z"></path>
    <path fill="#C1CBE8" transform="matrix(0.197995 -0.202726 0.445703 0.435301 344.253 210.688)" d="M11.5671 -77.0972C58.0971 -77.0972 97.5959 -41.1452 97.5959 -1.67094e-05C97.5959 41.1452 73.4188 83.0524 26.8888 83.0524C-35.4866 83.0524 11.8086 60.12 11.8086 -1.5431e-05C11.8086 -41.1452 -34.9629 -77.0972 11.5671 -77.0972Z"></path>
    <path fill="#C1CBE8" transform="matrix(0.197995 -0.202726 0.184201 0.179903 388.695 275.044)" d="M48.93 -79.7643C80.6762 -79.053 77.4946 -42.8889 62.8507 4.00562C48.2069 50.9001 -0.03942 91.2963 -20.4536 67.777C-40.8678 44.2576 -16.8141 31.8032 -0.458991 -5.13884C15.8961 -42.0808 17.1838 -80.4756 48.93 -79.7643Z"></path>
  </g>
  <path fill="#91A8EB" transform="matrix(1.37947 2.85496e-09 -2.85496e-09 1.37947 210.879 346.868)" d="M14.2481 -1.46768C30.4315 -9.85006 56.1501 -7.08067 64.7649 44.4981C64.0333 66.7856 36.2781 91.0066 27.3006 85.5221C18.323 80.0377 10.7874 75.8119 1.7949 70.7211C-7.20178 65.5436 6.83981 63.6593 7.57138 41.3718C-2.41204 0.580666 -1.9353 6.91471 14.2481 -1.46768Z"></path>
  <path fill="#91A8EB" transform="matrix(1.79976 0.0293645 -0.0293645 1.79976 225.407 131.962)" d="M-1.90735e-06 -22.5C14.6355 -22.5 26.5 -12.3145 26.5 0.25C26.5 12.8145 14.6355 23 -1.90735e-06 23C-14.6355 23 -26.5 12.8145 -26.5 0.25C-26.5 -12.3145 -14.6355 -22.5 -1.90735e-06 -22.5Z"></path>
  <path fill="#1B2B56" transform="matrix(1.78669 -0.21848 0.065544 0.536007 240.618 113.637)" d="M4.67524e-07 -2.5C1.38071 -2.5 2.5 -1.38071 2.5 0C2.5 1.38071 1.38071 2.5 4.8615e-07 2.5C-1.38071 2.5 -2.5 1.38071 -2.5 0C-2.5 -1.38071 -1.38071 -2.5 4.67524e-07 -2.5Z"></path>
  <path fill="none" stroke="#1B2B56" stroke-width="0.5" stroke-linecap="round" stroke-linejoin="round" transform="matrix(1.78289 -0.247598 0.247598 1.78289 249.262 112.525)" d="M1.98548 0.277981L6.02909 0.184244"></path>
  <path fill="#1B2B56" transform="matrix(1.78669 -0.21848 0.065544 0.536007 269.205 110.141)" d="M-9.31323e-09 -2.5C1.38071 -2.5 2.5 -1.38071 2.5 0C2.5 1.38071 1.38071 2.5 9.31323e-09 2.5C-1.38071 2.5 -2.5 1.38071 -2.5 0C-2.5 -1.38071 -1.38071 -2.5 -9.31323e-09 -2.5Z"></path>
  <path fill="#354B89" transform="matrix(1.45897 -0.895021 0.934518 0.718834 261.14 103.016)" d="M7.45058e-08 -2.49999C1.38071 -2.49999 2.5 -1.3807 2.5 7.62939e-06C2.5 1.38072 1.38071 2.50001 -7.45058e-08 2.50001C-1.38071 2.50001 -2.5 1.38072 -2.5 7.62939e-06C-2.5 -1.3807 -1.38071 -2.49999 7.45058e-08 -2.49999Z"></path>
  <path fill="#354B89" transform="matrix(2.16453 0.282115 -0.62247 1.07759 245.899 104.045)" d="M3.8147e-06 -2.98531C1.68306 -2.98531 3.04744 -1.64873 3.04744 3.05176e-05C3.04744 1.64879 1.68306 2.98537 3.8147e-06 2.98537C-1.68305 2.98537 -3.04744 1.64879 -3.04744 3.05176e-05C-3.04744 -1.64873 -1.68305 -2.98531 3.8147e-06 -2.98531Z"></path>
  <clipPath id="cl_78">
    <path d="M267.879 171.642C342.77 173.198 394.493 206.192 393.016 296.74C392.003 358.833 334.257 408.241 264.037 407.096C169.905 405.56 137.247 383.32 138.727 292.591C140.483 185.008 173.746 170.106 267.879 171.642Z"></path>
  </clipPath>
  <g clip-path="url(#cl_78)">
    <path fill="#3A6D3D" transform="matrix(0.605664 -0.524085 0.698428 0.807145 163.777 125.351)" d="M74.2156 32.7782L86.5869 31.6617C86.5869 31.6617 73.8823 101.182 67.5039 101.264C67.5039 101.264 49.336 101.463 49.336 101.463C61.2865 101.485 74.2156 32.7782 74.2156 32.7782Z"></path>
  </g>
  <path fill="#9C4040" transform="matrix(0.365938 -0.316649 0.108543 0.125439 151.145 53.4375)" d="M-1.52588e-05 -76.9999C42.8021 -76.9999 77.5 -42.5258 77.5 0.000131309C77.5 42.5261 42.8021 77.0001 -1.52588e-05 77.0001C-42.8021 77.0001 -77.5 42.526 -77.5 0.000112832C-77.5 -42.5258 -42.8021 -76.9999 -1.52588e-05 -76.9999Z"></path>
  <path fill="#C1CBE8" transform="matrix(0.167375 -0.632967 0.886841 0.234507 184.9 128.811)" d="M-1.52588e-05 -11.5C14.6355 -11.5 28.0061 -7.98328 28.0061 -1.632C28.0061 4.71927 15.5059 0.400193 0.870341 0.400193C-13.7652 0.400192 -26.766 4.3769 -26.766 -1.97438C-26.766 -8.32565 -14.6356 -11.5 -1.52588e-05 -11.5Z"></path>
  <path fill="#611E1E" transform="matrix(0.605664 -0.524085 0.138801 0.160406 209.15 120.472)" d="M0 -77C42.8021 -77 77.5 -42.5259 77.5 0C76.8894 5.3405 70.0211 3.38985 69.8079 -1.63419C68.2223 -39.0047 22.4635 -53.8416 1.14807 -53.8416C-18.1129 -53.8416 -70.7895 -39.8299 -69.4931 2.24309C-69.4637 3.19753 -74.2395 10.5248 -77.5 0C-77.5 -42.5259 -42.8021 -77 0 -77Z"></path>
  <clipPath id="cl_79">
    <path d="M122.785 77.9777L166.694 156.956L251.356 83.6978L179.505 28.8972L122.785 77.9777Z"></path>
  </clipPath>
  <g clip-path="url(#cl_79)">
    <path fill="#BA4646" transform="matrix(0.439468 -0.380274 0.333216 0.385084 156.62 85.294)" d="M-67.4615 -84L67.4615 -84L92.3226 83.7694L-67.4615 84L-67.4615 -84Z"></path>
  </g>
  <clipPath id="cl_7a">
    <path d="M142.787 43.7786C158.45 30.2254 174.889 23.5628 179.505 28.8972C184.121 34.2316 175.166 49.543 159.503 63.0963C143.84 76.6495 127.401 83.3121 122.785 77.9777C118.169 72.6433 127.124 57.3319 142.787 43.7786Z"></path>
  </clipPath>
  <g clip-path="url(#cl_7a)">
    <path fill="#BA4646" transform="matrix(0.439468 -0.380274 0.333216 0.385084 156.62 85.294)" d="M-67.4615 -84L67.4615 -84L92.3226 83.7694L-67.4615 84L-67.4615 -84Z"></path>
  </g>
  <path fill="#993535" transform="matrix(0.605664 -0.524085 0.524085 0.605664 162.211 161.088)" d="M-7.62939e-06 -7.62939e-06C-7.62939e-06 -7.62939e-06 0 -13.0609 7.62939e-06 -13.0609C7.62939e-06 -24.308 35.8327 -33.7055 77.5 -33.393C119.167 -33.0805 155 -24.308 155 -13.0609C155 -13.0609 155 0 155 0C155 -10.5379 119.167 -20.393 77.5 -20.393C35.8327 -20.393 -7.62939e-06 -10.5379 -7.62939e-06 -7.62939e-06Z"></path>
  <path fill="#669969" transform="matrix(0.605664 -0.524085 0.644995 0.745395 169.186 131.602)" d="M-0.50605 0.0226059C3.17322 -3.90971 9.28305 -5.30723 18.0792 -2.2478C23.7018 23.1815 52.5776 101.463 67.2296 101.254C62.0975 101.327 59.1898 101.368 46.7011 101.546C36.2156 101.695 2.73151 5.3165 -0.50605 0.0226059Z"></path>
  <path fill="none" stroke="black" stroke-width="7" stroke-linecap="round" stroke-linejoin="round" transform="matrix(2.15345 4.45679e-09 -4.42021e-09 2.13577 150.672 303.158)" d="M24.2021 -25.5658C24.6868 -19.4152 24.812 -9.8375 21.6289 4.80376C15.1911 32.9161 3.39391 55.1468 -20.915 48.1473C-36.1483 43.6555 -40.3316 19.9916 -33.8997 -8.09526C-29.329 -30.3771 -16.2645 -48.255 -3.17117 -55.9326"></path>
  <path fill="#6C88D9" transform="matrix(2.15345 4.45679e-09 -4.42021e-09 2.13577 150.672 303.158)" d="M17.1873 -58.3101C19.9682 -53.4229 24.1526 -37.6183 23.6192 -33.7277C23.0859 -29.8371 26.9091 -19.4833 21.6289 4.80376C15.1911 32.9161 3.39391 55.1468 -20.915 48.1473C-36.1483 43.6555 -40.3316 19.9916 -33.8997 -8.09526C-26.7954 -42.7285 0.829468 -66.722 17.1873 -58.3101Z"></path>
  <path fill="#91A8EB" transform="matrix(1.67686 3.47045e-09 -4.32784e-09 2.09114 154.662 297.445)" d="M17.9276 -52.0161C39.7807 -49.0293 27.8957 -25.3904 20.1546 2.59656C12.3319 30.5218 -4.86108 51.8454 -20.0712 49.6076C-35.2813 47.3698 -41.8155 22.9131 -35.5762 -5.36597C-29.4448 -33.5905 -3.92548 -55.0028 17.9276 -52.0161Z"></path>
  <path fill="none" stroke="white" stroke-width="5" stroke-linecap="round" stroke-linejoin="round" transform="matrix(1.5 0 0 1.5 158.539 362.24)" d=""></path>
</svg>