<?xml version="1.0" encoding="utf-8"?>
<svg xmlns="http://www.w3.org/2000/svg" xmlns:xlink="http://www.w3.org/1999/xlink" width="512" height="512">
  <path fill="none" stroke="black" stroke-width="7" stroke-linejoin="round" transform="matrix(1.8 3.72529e-09 -3.72529e-09 1.8 210.879 409.868)" d="M0.345016 -46.2517C18.5693 -46.0451 31.1143 -38.6464 30.9319 5.64278C31.2537 34.6585 23.9065 44.6772 13.3897 44.4091C2.87279 44.141 -5.76623 44.2433 -16.0994 44.3237C-26.5622 44.2245 -31.9432 33.0849 -32.2647 4.05614C-32.3687 -42.4403 -17.8792 -46.4583 0.345016 -46.2517Z"></path>
  <path fill="none" stroke="black" stroke-width="7" stroke-linejoin="round" transform="matrix(-2.15345 -3.29802e-07 -3.27096e-07 2.13577 356.084 273.815)" d="M20.0142 -55.9817C22.3944 -50.8839 25.2986 -34.7901 24.4552 -30.9557C23.6119 -27.1212 26.0983 -17.4846 19.8794 6.06422C12.7988 34.0581 3.74833 55.7336 -20.7874 49.5914C-36.1665 45.6368 -42.5096 19.8363 -35.429 -8.1576C-26.552 -43.2539 4.38395 -65.6987 20.0142 -55.9817Z"></path>
  <path fill="none" stroke="black" stroke-width="7" stroke-linejoin="round" transform="matrix(1.79976 0.0293645 -0.0293645 1.79976 266.379 274.98)" d="M0.209625 -80.0966C37.3348 -80.0966 84.5 -60 84.5 0C84.5 41.1452 46.7396 76.2788 0.209625 76.2788C-62.1658 76.2788 -84 60.12 -84 0C-84 -71.2881 -50.5087 -80.0966 0.209625 -80.0966Z"></path>
  <path fill="none" stroke="black" stroke-width="7" stroke-linejoin="round" transform="matrix(1.53671 3.18039e-09 -3.72529e-09 1.8 308.979 398.168)" d="M-0.341068 -47.848C17.8824 -48.0748 33.3715 -41.358 34.0274 8.21346C34.6475 22.0588 28.7764 45.8382 15.0982 45.8244C1.41999 45.8106 -4.71565 45.8045 -16.9177 45.7922C-29.1197 45.7799 -31.3455 22.8801 -31.9655 9.03478C-32.9697 -42.7233 -18.5645 -47.6212 -0.341068 -47.848Z"></path>
  <path fill="#6C88D9" transform="matrix(-2.15345 -3.29802e-07 -3.27096e-07 2.13577 356.084 273.815)" d="M20.0142 -55.9817C22.3944 -50.8839 25.2986 -34.7901 24.4552 -30.9557C23.6119 -27.1212 26.0983 -17.4846 19.8794 6.06422C12.7988 34.0581 3.74833 55.7336 -20.7874 49.5914C-36.1665 45.6368 -42.5096 19.8363 -35.429 -8.1576C-26.552 -43.2539 4.38395 -65.6987 20.0142 -55.9817Z"></path>
  <path fill="#5170C8" transform="matrix(1.53671 3.18039e-09 -3.72529e-09 1.8 308.979 398.168)" d="M-0.341068 -47.848C17.8824 -48.0748 33.3715 -41.358 34.0274 8.21346C34.6475 22.0588 28.7764 45.8382 15.0982 45.8244C1.41999 45.8106 -4.71565 45.8045 -16.9177 45.7922C-29.1197 45.7799 -31.3455 22.8801 -31.9655 9.03478C-32.9697 -42.7233 -18.5645 -47.6212 -0.341068 -47.848Z"></path>
  <path fill="#839BE0" transform="matrix(1.20328 2.49031e-09 -2.91698e-09 1.40944 308.979 398.168)" d="M-0.218586 -48.4009C18.0049 -48.6277 32.9437 -41.8205 33.8034 12.2414C33.6027 30.1755 24.8769 45.3454 11.1987 45.3316C-2.47956 45.3179 -2.30477 45.3686 -14.5068 45.3563C-26.7088 45.3441 -32.3903 30.9968 -32.1896 13.0628C-33.3975 -43.1858 -18.4421 -48.1741 -0.218586 -48.4009Z"></path>
  <path fill="#6C88D9" transform="matrix(1.8 3.72529e-09 -3.72529e-09 1.8 210.879 409.868)" d="M0.345016 -46.2517C18.5693 -46.0451 31.1143 -38.6464 30.9319 5.64278C31.2537 34.6585 23.9065 44.6772 13.3897 44.4091C2.87279 44.141 -5.76623 44.2433 -16.0994 44.3237C-26.5622 44.2245 -31.9432 33.0849 -32.2647 4.05614C-32.3687 -42.4403 -17.8792 -46.4583 0.345016 -46.2517Z"></path>
  <path fill="#91A8EB" transform="matrix(-1.67686 -2.56813e-07 -3.2026e-07 2.09114 352.094 268.102)" d="M21.0794 -49.768C42.5601 -45.3752 28.2201 -22.6829 17.8237 4.69779C7.42729 32.0785 -11.2963 52.3503 -26.2808 49.2859C-41.2651 46.2216 -45.8635 21.2548 -37.0132 -6.57327C-28.163 -34.4014 -0.401333 -54.1609 21.0794 -49.768Z"></path>
  <path fill="none" stroke="black" stroke-width="7" stroke-miterlimit="4" transform="matrix(1.79976 0.0293645 -0.0293645 1.79976 224.928 112.282)" d="M0 -29.5C19.0538 -29.5 34.5 -16.1805 34.5 0.25C34.5 16.6805 19.0538 30 0 30C-19.0538 30 -34.5 16.6805 -34.5 0.25C-34.5 -16.1805 -19.0538 -29.5 0 -29.5Z"></path>
  <path fill="none" stroke="black" stroke-width="7" stroke-linejoin="round" transform="translate(256 256)" d="M-24.8595 -164.327L-18.1464 -171.712C-18.1464 -171.712 22.7136 -108.941 18.9082 -105.531C18.9082 -105.531 18.2683 -104.961 17.299 -104.097"></path>
  <path fill="none" stroke="black" stroke-width="7" stroke-linejoin="round" transform="translate(256 256)" d="M6.98245 -106.562C1.59931 -121.218 -13.6213 -146.385 -20.8944 -158.051"></path>
  <path fill="none" stroke="black" stroke-width="7" stroke-linejoin="round" transform="translate(256 256)" d="M18.0143 -104.753C15.3548 -102.369 13.3364 -100.56 6.48809 -94.4214C0.233528 -88.815 -82.2103 -143.107 -87.5857 -145.356C-87.8936 -150.215 -85.0945 -154.459 -77.7937 -156.788C-57.9865 -140.78 9.99335 -97.5634 18.7332 -105.398C18.4862 -105.176 18.2478 -104.962 18.0143 -104.753"></path>
  <path fill="#6C88D9" transform="matrix(1.79976 0.0293645 -0.0293645 1.79976 266.379 274.98)" d="M0.209625 -80.0966C37.3348 -80.0966 84.5 -60 84.5 0C84.5 41.1452 46.7396 76.2788 0.209625 76.2788C-62.1658 76.2788 -84 60.12 -84 0C-84 -71.2881 -50.5087 -80.0966 0.209625 -80.0966Z"></path>
  <path fill="#3A6D3D" transform="matrix(0.605664 -0.524085 0.698428 0.807145 163.298 104.112)" d="M74.2156 32.7782L86.5869 31.6617C86.5869 31.6617 73.8823 101.182 67.5039 101.264C67.5039 101.264 49.336 101.463 49.336 101.463C61.2865 101.485 74.2156 32.7782 74.2156 32.7782Z"></path>
  <path fill="none" stroke="black" stroke-width="7" stroke-miterlimit="4" transform="translate(256 256)" d="M-64.8304 -176.993C-38.9067 -199.425 -13.1064 -212.08 -7.20376 -205.258C-1.30113 -198.437 -17.5314 -174.722 -43.4551 -152.29C-69.3788 -129.858 -95.1791 -117.204 -101.082 -124.025C-106.984 -130.846 -90.7541 -154.561 -64.8304 -176.993Z"></path>
  <path fill="#585555" transform="matrix(0.605664 -0.524085 0.138801 0.160406 201.857 91.3584)" d="M7.62939e-06 -76.9999C42.8021 -76.9999 77.5 -42.5259 77.5 6.10352e-05C77.5 42.526 42.8021 77.0001 7.62939e-06 77.0001C-42.8021 77.0001 -77.5 42.526 -77.5 6.10352e-05C-77.5 -42.5259 -42.8021 -76.9999 7.62939e-06 -76.9999Z"></path>
  <path fill="none" stroke="black" stroke-width="7" stroke-linejoin="round" transform="translate(256 256)" d="M-133.695 -199.262L-97.515 -134.186"></path>
  <path fill="none" stroke="black" stroke-width="7" stroke-linejoin="round" transform="translate(256 256)" d="M-6.51398 -194.602L-76.9747 -248.343L-94.0733 -233.547"></path>
  <path fill="none" stroke="black" stroke-width="8" stroke-miterlimit="4" transform="translate(256 256)" d="M-113.693 -233.461C-98.0298 -247.014 -81.5906 -253.677 -76.9747 -248.343C-72.3588 -243.008 -81.3142 -227.697 -96.9771 -214.144C-112.64 -200.59 -129.079 -193.928 -133.695 -199.262C-138.311 -204.596 -129.356 -219.908 -113.693 -233.461Z"></path>
  <path fill="#9C4040" transform="matrix(0.605664 -0.524085 0.524085 0.605664 108.21 52.6868)" d="M9.99827 15.3403L-13.0686 125.78L126.715 125.78L103.648 15.3403L9.99827 15.3403Z"></path>
  <path fill="none" stroke="black" stroke-width="7" stroke-miterlimit="4" transform="translate(256 256)" d="M-58.0173 -169.119C-32.0936 -191.551 -6.29328 -204.206 -0.390652 -197.385C5.51197 -190.563 -10.7183 -166.849 -36.642 -144.417C-62.5657 -121.985 -88.366 -109.33 -94.2686 -116.151C-100.171 -122.973 -83.941 -146.687 -58.0173 -169.119Z"></path>
  <path fill="none" stroke="black" stroke-width="7" stroke-linejoin="round" transform="translate(256 256)" d="M-94.2686 -116.151C-94.2686 -116.151 -101.114 -124.062 -101.114 -124.062C-102.748 -125.951 -102.639 -129.197 -101.087 -133.364"></path>
  <path fill="none" stroke="black" stroke-width="7" stroke-linejoin="round" transform="translate(256 256)" d="M-7.82667 -205.858C-7.61135 -205.689 -7.41416 -205.501 -7.23568 -205.295C-7.23568 -205.295 -1.4854 -198.65 -0.525695 -197.541"></path>
  <path fill="#611E1E" transform="matrix(0.605664 -0.524085 0.138801 0.160406 208.67 99.2321)" d="M0.749693 55.1991C17.8705 55.1991 66.8714 46.0031 69.8043 0.434614C69.9644 -2.0539 77.4999 -10.588 77.5 -6.10352e-05C77.5 42.5259 42.8021 76.9999 0 76.9999C-42.8021 76.9999 -77.5 42.5259 -77.5 -6.10352e-05C-76.7271 -10.362 -70.1795 -1.22885 -69.733 1.90425C-67.4205 42.6838 -17.7408 55.1991 0.749693 55.1991Z"></path>
  <defs>
    <linearGradient id="gradient_0" gradientUnits="userSpaceOnUse" x1="8.5369253" y1="175.39754" x2="0.96320713" y2="-480.78424">
      <stop offset="0" stop-color="#583636"></stop>
      <stop offset="0.015997024" stop-color="#583636"></stop>
      <stop offset="0.98742092" stop-color="#EE1010"></stop>
      <stop offset="1" stop-color="#EE1010"></stop>
    </linearGradient>
  </defs>
  <path fill="url(#gradient_0)" transform="matrix(0.656294 -0.567895 0.119878 0.138539 208.67 99.2321)" d="M-7.62939e-06 -63.9999C35.6224 -63.9999 64.5 -35.3461 64.5 0.000137448C64.5 35.3464 35.6224 64.0001 -7.62939e-06 64.0001C-35.6224 64.0001 -64.5 35.3463 -64.5 0.000106692C-64.5 -35.3461 -35.6224 -63.9999 -7.62939e-06 -63.9999Z"></path>
  <path fill="#6C88D9" transform="matrix(1.79976 0.0293645 -0.0293645 1.79976 224.928 112.282)" d="M0 -29.5C19.0538 -29.5 34.5 -16.1805 34.5 0.25C34.5 16.6805 19.0538 30 0 30C-19.0538 30 -34.5 16.6805 -34.5 0.25C-34.5 -16.1805 -19.0538 -29.5 0 -29.5Z"></path>
  <path fill="#91A8EB" transform="matrix(1.50913 0.0246226 -0.0246226 1.50913 265.014 274.98)" d="M0.24998 -81.5196C49.8787 -81.2985 84.5 -60 84.5 -9.53674e-07C84.5 41.1452 46.78 74.5 0.25 74.5C-62.1254 74.5 -84 60.12 -84 -9.53674e-07C-84 -71.2881 -62.1254 -81.5196 0.24998 -81.5196Z"></path>
  <clipPath id="cl_9">
    <path d="M269.108 130.832C335.925 131.922 420.221 169.476 418.459 277.461C417.25 351.513 348.259 413.636 264.516 412.27C152.256 410.438 113.434 380.715 115.199 272.514C117.292 144.212 177.827 129.342 269.108 130.832Z"></path>
  </clipPath>
  <g clip-path="url(#cl_9)">
    <path fill="#A6B8EF" transform="matrix(0.805953 0.0131497 -0.0151654 0.929491 320.673 239.858)" d="M0.249972 -81.5196C49.8787 -81.2985 84.5 -60 84.5 0C84.5 41.1452 67.1354 74.5 20.6054 74.5C-41.77 74.5 -84 60.12 -84 0C-84 -71.2881 -62.1254 -81.5197 0.249972 -81.5196Z"></path>
    <path fill="#C1CBE8" transform="matrix(0.197995 -0.202726 0.445703 0.435301 343.773 191.009)" d="M11.5671 -77.0972C58.0971 -77.0972 97.5959 -41.1452 97.5959 -2.24314e-05C97.5959 41.1452 73.4188 83.0524 26.8888 83.0524C-35.4866 83.0524 11.8086 60.12 11.8086 -2.11531e-05C11.8086 -41.1452 -34.9629 -77.0972 11.5671 -77.0972Z"></path>
    <path fill="#C1CBE8" transform="matrix(0.197995 -0.202726 0.184201 0.179903 388.215 255.365)" d="M48.93 -79.7642C80.6763 -79.0529 77.4946 -42.8889 62.8508 4.00565C48.2069 50.9001 -0.0393895 91.2963 -20.4536 67.777C-40.8678 44.2576 -16.8141 31.8032 -0.458961 -5.13881C15.8962 -42.0808 17.1838 -80.4755 48.93 -79.7642Z"></path>
  </g>
  <path fill="#91A8EB" transform="matrix(1.37947 2.85496e-09 -2.85496e-09 1.37947 210.879 346.868)" d="M0.291752 -0.703041C18.516 -0.496483 32.128 -1.1338 31.9929 50.3597C31.5302 75.8435 23.8834 90.3472 13.3666 90.079C2.8498 89.811 -5.78925 89.9132 -16.1224 89.9936C-26.5025 90.001 -33.8864 73.2288 -33.4237 47.7449C-33.5747 -5.95608 -17.9325 -0.909607 0.291752 -0.703041Z"></path>
  <path fill="#91A8EB" transform="matrix(1.79976 0.0293645 -0.0293645 1.79976 224.928 112.282)" d="M0 -22.5C14.6355 -22.5 26.5 -12.3145 26.5 0.25C26.5 12.8145 14.6355 23 0 23C-14.6355 23 -26.5 12.8145 -26.5 0.25C-26.5 -12.3145 -14.6355 -22.5 0 -22.5Z"></path>
  <path fill="#1B2B56" transform="matrix(1.78669 -0.21848 0.065544 0.536007 236.939 89.1575)" d="M-1.26101e-06 -2.5C1.38071 -2.5 2.5 -1.38071 2.5 0C2.5 1.38071 1.38071 2.5 -1.24238e-06 2.5C-1.38071 2.5 -2.5 1.38071 -2.5 0C-2.5 -1.38071 -1.38071 -2.5 -1.26101e-06 -2.5Z"></path>
  <path fill="none" stroke="#1B2B56" stroke-width="0.5" stroke-linecap="round" stroke-linejoin="round" transform="matrix(1.78289 -0.247598 0.247598 1.78289 245.582 88.0459)" d="M1.98548 0.277974L6.02909 0.184236"></path>
  <path fill="#1B2B56" transform="matrix(1.78669 -0.21848 0.065544 0.536007 265.526 85.6618)" d="M-1.91666e-06 -2.49997C1.38071 -2.49997 2.5 -1.38068 2.5 3.05176e-05C2.5 1.38074 1.38071 2.50003 -1.89804e-06 2.50003C-1.38071 2.50003 -2.5 1.38074 -2.5 3.05176e-05C-2.5 -1.38068 -1.38071 -2.49997 -1.91666e-06 -2.49997Z"></path>
  <path fill="#354B89" transform="matrix(1.45897 -0.895021 0.934518 0.718834 257.46 78.5372)" d="M7.45058e-08 -2.5C1.38071 -2.5 2.5 -1.38071 2.5 0C2.5 1.38071 1.38071 2.5 -7.45058e-08 2.5C-1.38071 2.5 -2.5 1.38071 -2.5 0C-2.5 -1.38071 -1.38071 -2.5 7.45058e-08 -2.5Z"></path>
  <path fill="#354B89" transform="matrix(2.16453 0.282115 -0.62247 1.07759 242.219 79.566)" d="M0 -2.98532C1.68306 -2.98532 3.04744 -1.64874 3.04744 1.52588e-05C3.04744 1.64877 1.68306 2.98535 0 2.98535C-1.68306 2.98535 -3.04744 1.64877 -3.04744 1.52588e-05C-3.04744 -1.64874 -1.68306 -2.98532 0 -2.98532Z"></path>
  <clipPath id="cl_c">
    <path d="M267.399 151.963C342.29 153.518 394.013 186.513 392.536 277.061C391.523 339.154 333.777 388.562 263.557 387.416C169.425 385.881 136.767 363.641 138.248 272.912C140.003 165.329 173.266 150.427 267.399 151.963Z"></path>
  </clipPath>
  <g clip-path="url(#cl_c)">
    <path fill="#3A6D3D" transform="matrix(0.605664 -0.524085 0.698428 0.807145 163.298 104.112)" d="M74.2156 32.7782L86.5869 31.6617C86.5869 31.6617 73.8823 101.182 67.5039 101.264C67.5039 101.264 49.336 101.463 49.336 101.463C61.2865 101.485 74.2156 32.7782 74.2156 32.7782Z"></path>
  </g>
  <path fill="#9C4040" transform="matrix(0.365938 -0.316649 0.108543 0.125439 150.665 32.1977)" d="M1.52588e-05 -77C42.8021 -77 77.5 -42.5259 77.5 9.23872e-06C77.5 42.5259 42.8021 77 1.52588e-05 77C-42.8021 77 -77.5 42.5259 -77.5 -9.23872e-06C-77.5 -42.5259 -42.8021 -77 1.52588e-05 -77Z"></path>
  <path fill="#C1CBE8" transform="matrix(0.167375 -0.632967 0.886841 0.234507 184.42 109.132)" d="M1.52588e-05 -11.5C14.6356 -11.5 28.0061 -7.98327 28.0061 -1.63199C28.0061 4.71928 15.5059 0.400201 0.870372 0.400201C-13.7652 0.4002 -26.766 4.3769 -26.766 -1.97437C-26.766 -8.32565 -14.6355 -11.5 1.52588e-05 -11.5Z"></path>
  <path fill="#611E1E" transform="matrix(0.605664 -0.524085 0.138801 0.160406 208.67 99.2321)" d="M0 -77.0001C42.8021 -77.0001 77.5 -42.526 77.5 -6.10352e-05C76.8894 5.34044 70.0211 3.38978 69.8079 -1.63426C68.2223 -39.0048 22.4635 -53.8417 1.14807 -53.8417C-18.1129 -53.8417 -70.7895 -39.83 -69.4931 2.24303C-69.4637 3.19747 -74.2395 10.5247 -77.5 -6.10352e-05C-77.5 -42.526 -42.8021 -77.0001 0 -77.0001Z"></path>
  <clipPath id="cl_d">
    <path d="M122.305 56.7379L166.214 135.716L250.876 62.458L179.025 7.65739L122.305 56.7379Z"></path>
  </clipPath>
  <g clip-path="url(#cl_d)">
    <path fill="#BA4646" transform="matrix(0.439468 -0.380274 0.333216 0.385084 156.14 64.0542)" d="M-67.4615 -84L67.4615 -84L92.3226 83.7694L-67.4615 84L-67.4615 -84Z"></path>
  </g>
  <clipPath id="cl_e">
    <path d="M142.307 22.5389C157.97 8.98564 174.409 2.323 179.025 7.65741C183.641 12.9918 174.686 28.3033 159.023 41.8565C143.36 55.4097 126.921 62.0724 122.305 56.7379C117.689 51.4035 126.644 36.0921 142.307 22.5389Z"></path>
  </clipPath>
  <g clip-path="url(#cl_e)">
    <path fill="#BA4646" transform="matrix(0.439468 -0.380274 0.333216 0.385084 156.14 64.0542)" d="M-67.4615 -84L67.4615 -84L92.3226 83.7694L-67.4615 84L-67.4615 -84Z"></path>
  </g>
  <path fill="#993535" transform="matrix(0.605664 -0.524085 0.524085 0.605664 161.731 139.849)" d="M-7.62939e-06 -7.62939e-06C-7.62939e-06 -7.62939e-06 -7.62939e-06 -13.0609 -7.62939e-06 -13.0609C7.62939e-06 -24.308 35.8327 -33.7055 77.5 -33.393C119.167 -33.0805 155 -24.308 155 -13.0609C155 -13.0609 155 1.52588e-05 155 1.52588e-05C155 -10.5378 119.167 -20.393 77.5 -20.393C35.8327 -20.393 0 -10.5379 -7.62939e-06 -7.62939e-06Z"></path>
  <path fill="#669969" transform="matrix(0.605664 -0.524085 0.644995 0.745395 168.706 110.362)" d="M-0.506065 0.0226135C3.17322 -3.90971 9.28304 -5.30722 18.0791 -2.2478C23.7018 23.1815 52.5776 101.462 67.2296 101.254C62.0975 101.327 59.1898 101.368 46.7011 101.546C36.2156 101.695 2.73151 5.31649 -0.506065 0.0226135Z"></path>
  <path fill="none" stroke="black" stroke-width="7" stroke-linecap="round" stroke-linejoin="round" transform="matrix(2.15345 4.45679e-09 -4.42021e-09 2.13577 150.192 283.478)" d="M22.0289 -23.7772C21.7793 -17.5235 20.7442 -7.77634 15.482 6.64052C5.12923 33.5024 -10.7529 53.7476 -33.619 42.8761C-47.9312 35.9593 -47.9182 12.7201 -37.5778 -14.1095C-30.1344 -35.3292 -15.1653 -51.2284 -1.38056 -57.1452"></path>
  <path fill="#6C88D9" transform="matrix(2.15345 4.45679e-09 -4.42021e-09 2.13577 150.192 283.478)" d="M19.0754 -56.9156C21.2312 -51.7173 23.4317 -35.5104 22.4221 -31.717C21.4125 -27.9236 24.0487 -16.8296 15.482 6.64052C5.12923 33.5024 -10.7529 53.7476 -33.619 42.8761C-47.9312 35.9593 -47.9182 12.7201 -37.5778 -14.1095C-25.981 -47.1697 3.88345 -67.3153 19.0754 -56.9156Z"></path>
  <path fill="#91A8EB" transform="matrix(1.67686 3.47045e-09 -4.32784e-09 2.09114 154.182 277.765)" d="M19.6198 -50.8054C40.8392 -45.6603 25.684 -23.0779 13.2409 3.93452C0.52021 30.6671 -21.4843 49.6241 -36.0428 45.4431C-50.6012 41.2621 -51.6972 16.9288 -40.4801 -10.3355C-29.7263 -37.4343 -1.59958 -55.9505 19.6198 -50.8054Z"></path>
  <path fill="none" stroke="white" stroke-width="5" stroke-linecap="round" stroke-linejoin="round" transform="matrix(1.5 0 0 1.5 158.539 362.24)" d=""></path>
</svg>