<?xml version="1.0" encoding="utf-8"?>
<svg xmlns="http://www.w3.org/2000/svg" xmlns:xlink="http://www.w3.org/1999/xlink" width="512" height="512">
  <path fill="none" stroke="black" stroke-width="7" stroke-linejoin="round" transform="matrix(1.8 3.72529e-09 -3.72529e-09 1.8 210.879 409.868)" d="M8.44018 -45.7161C24.6615 -54.0249 50.6229 -44.044 57.5161 1.13594C50.8522 32.5953 29.8819 46.6066 20.884 41.1556C11.8861 35.7045 4.33483 31.5068 -4.67654 26.4495C-13.7114 21.172 -4.01271 17.9855 2.13655 -1.32995C-5.92675 -36.0074 -7.7811 -37.4074 8.44018 -45.7161Z"></path>
  <path fill="none" stroke="black" stroke-width="7" stroke-linejoin="round" transform="matrix(-2.15345 -3.29802e-07 -3.27096e-07 2.13577 356.56 293.318)" d="M19.6617 -56.6964C22.3057 -51.7325 26.0494 -35.816 25.4082 -31.9419C24.7669 -28.0679 27.755 -18.5772 22.779 5.27003C17.1755 33.6021 9.27364 55.7295 -15.5498 50.9032C-31.1147 47.7736 -38.801 22.3471 -33.1975 -5.98497C-26.1724 -41.5052 3.54404 -65.567 19.6617 -56.6964Z"></path>
  <path fill="none" stroke="black" stroke-width="7" stroke-linejoin="round" transform="matrix(1.79976 0.0293645 -0.0293645 1.79976 266.854 294.484)" d="M0.209624 -80.0966C37.3348 -80.0966 84.5 -60 84.5 -1.90735e-06C84.5 41.1452 46.7396 76.2788 0.209624 76.2788C-62.1658 76.2788 -84 60.12 -84 -1.90735e-06C-84 -71.2881 -50.5087 -80.0966 0.209624 -80.0966Z"></path>
  <path fill="none" stroke="black" stroke-width="7" stroke-linejoin="round" transform="matrix(1.53671 3.18039e-09 -3.72529e-09 1.8 308.979 398.168)" d="M-13.7175 -47.5647C4.50676 -47.7385 19.969 -40.9767 20.4271 8.59634C20.9919 22.4434 15.026 46.2055 1.3479 46.152C-12.3302 46.0984 -18.4657 46.0744 -30.6677 46.0267C-42.8695 45.9789 -45.004 23.0728 -45.5688 9.22579C-46.3664 -42.535 -31.9417 -47.3909 -13.7175 -47.5647Z"></path>
  <path fill="#6C88D9" transform="matrix(-2.15345 -3.29802e-07 -3.27096e-07 2.13577 356.56 293.318)" d="M19.6617 -56.6964C22.3057 -51.7325 26.0494 -35.816 25.4082 -31.9419C24.7669 -28.0679 27.755 -18.5772 22.779 5.27003C17.1755 33.6021 9.27364 55.7295 -15.5498 50.9032C-31.1147 47.7736 -38.801 22.3471 -33.1975 -5.98497C-26.1724 -41.5052 3.54404 -65.567 19.6617 -56.6964Z"></path>
  <path fill="#5170C8" transform="matrix(1.53671 3.18039e-09 -3.72529e-09 1.8 308.979 398.168)" d="M-13.7175 -47.5647C4.50676 -47.7385 19.969 -40.9767 20.4271 8.59634C20.9919 22.4434 15.026 46.2055 1.3479 46.152C-12.3302 46.0984 -18.4657 46.0744 -30.6677 46.0267C-42.8695 45.9789 -45.004 23.0728 -45.5688 9.22579C-46.3664 -42.535 -31.9417 -47.3909 -13.7175 -47.5647Z"></path>
  <path fill="#839BE0" transform="matrix(1.20328 2.49031e-09 -2.91698e-09 1.40944 308.979 398.168)" d="M-17.3524 -48.0386C0.87183 -48.2124 15.7834 -41.3618 16.4273 12.7023C16.155 30.6357 7.36884 45.7801 -6.30924 45.7266C-19.9873 45.6731 -19.8127 45.7243 -32.0146 45.6765C-44.2165 45.6288 -49.8409 31.2651 -49.5685 13.3317C-50.552 -42.92 -35.5767 -47.8648 -17.3524 -48.0386Z"></path>
  <path fill="#6C88D9" transform="matrix(1.8 3.72529e-09 -3.72529e-09 1.8 210.879 409.868)" d="M8.44018 -45.7161C24.6615 -54.0249 50.6229 -44.044 57.5161 1.13594C50.8522 32.5953 29.8819 46.6066 20.884 41.1556C11.8861 35.7045 4.33483 31.5068 -4.67654 26.4495C-13.7114 21.172 -4.01271 17.9855 2.13655 -1.32995C-5.92675 -36.0074 -7.7811 -37.4074 8.44018 -45.7161Z"></path>
  <path fill="#91A8EB" transform="matrix(-1.67686 -2.56813e-07 -3.2026e-07 2.09114 352.57 287.605)" d="M20.938 -50.4094C42.6782 -46.9329 29.8537 -23.6647 21.2762 4.11827C12.6987 31.9012 -4.66286 52.9382 -19.8283 50.5131C-34.9936 48.088 -41.2309 23.351 -34.2269 -4.81329C-27.2229 -32.9776 -0.802174 -53.8859 20.938 -50.4094Z"></path>
  <path fill="none" stroke="black" stroke-width="7" stroke-miterlimit="4" transform="matrix(1.79976 0.0293645 -0.0293645 1.79976 225.403 131.786)" d="M1.90735e-06 -29.5C19.0538 -29.5 34.5 -16.1805 34.5 0.249992C34.5 16.6805 19.0538 30 1.90735e-06 30C-19.0538 30 -34.5 16.6805 -34.5 0.249992C-34.5 -16.1805 -19.0538 -29.5 1.90735e-06 -29.5Z"></path>
  <path fill="none" stroke="black" stroke-width="7" stroke-linejoin="round" transform="translate(256 256)" d="M-24.384 -143.069L-17.6709 -150.454C-17.6709 -150.454 23.1892 -87.683 19.3837 -84.2735C19.3837 -84.2735 18.7438 -83.7033 17.7745 -82.8396"></path>
  <path fill="none" stroke="black" stroke-width="7" stroke-linejoin="round" transform="translate(256 256)" d="M7.45799 -85.3044C2.07486 -99.9604 -13.1458 -125.127 -20.4188 -136.793"></path>
  <path fill="none" stroke="black" stroke-width="7" stroke-linejoin="round" transform="translate(256 256)" d="M18.4899 -83.4956C15.8303 -81.1117 13.8119 -79.3024 6.96363 -73.1638C0.709068 -67.5574 -81.7348 -121.849 -87.1102 -124.098C-87.4181 -128.958 -84.619 -133.201 -77.3182 -135.531C-57.511 -119.523 10.4689 -76.3058 19.2088 -84.14C18.9617 -83.9186 18.7233 -83.7049 18.4899 -83.4956"></path>
  <path fill="#6C88D9" transform="matrix(1.79976 0.0293645 -0.0293645 1.79976 266.854 294.484)" d="M0.209624 -80.0966C37.3348 -80.0966 84.5 -60 84.5 -1.90735e-06C84.5 41.1452 46.7396 76.2788 0.209624 76.2788C-62.1658 76.2788 -84 60.12 -84 -1.90735e-06C-84 -71.2881 -50.5087 -80.0966 0.209624 -80.0966Z"></path>
  <path fill="#3A6D3D" transform="matrix(0.605664 -0.524085 0.698428 0.807145 163.773 125.369)" d="M74.2157 32.7782L86.5869 31.6617C86.5869 31.6617 73.8823 101.182 67.5039 101.265C67.5039 101.265 49.336 101.463 49.336 101.463C61.2865 101.485 74.2157 32.7782 74.2157 32.7782Z"></path>
  <path fill="none" stroke="black" stroke-width="7" stroke-miterlimit="4" transform="translate(256 256)" d="M-64.3549 -155.735C-38.4312 -178.167 -12.6308 -190.822 -6.72821 -184.001C-0.825588 -177.179 -17.0559 -153.465 -42.9795 -131.033C-68.9032 -108.601 -94.7036 -95.946 -100.606 -102.767C-106.509 -109.589 -90.2785 -133.303 -64.3549 -155.735Z"></path>
  <path fill="#585555" transform="matrix(0.605664 -0.524085 0.138801 0.160406 202.333 112.616)" d="M7.62939e-06 -76.9999C42.8021 -76.9999 77.5 -42.5259 77.5 6.10352e-05C77.5 42.526 42.8021 77.0001 7.62939e-06 77.0001C-42.8021 77.0001 -77.5 42.526 -77.5 6.10352e-05C-77.5 -42.5259 -42.8021 -76.9999 7.62939e-06 -76.9999Z"></path>
  <path fill="none" stroke="black" stroke-width="7" stroke-linejoin="round" transform="translate(256 256)" d="M-133.22 -178.004L-97.0394 -112.928"></path>
  <path fill="none" stroke="black" stroke-width="7" stroke-linejoin="round" transform="translate(256 256)" d="M-6.03843 -173.345L-76.4991 -227.085L-93.5977 -212.29"></path>
  <path fill="none" stroke="black" stroke-width="8" stroke-miterlimit="4" transform="translate(256 256)" d="M-113.217 -212.204C-97.5543 -225.757 -81.115 -232.419 -76.4991 -227.085C-71.8832 -221.751 -80.8386 -206.439 -96.5015 -192.886C-112.164 -179.333 -128.604 -172.67 -133.22 -178.004C-137.835 -183.339 -128.88 -198.65 -113.217 -212.204Z"></path>
  <path fill="#9C4040" transform="matrix(0.605664 -0.524085 0.524085 0.605664 108.685 73.9444)" d="M9.99828 15.3403L-13.0685 125.78L126.715 125.78L103.648 15.3403L9.99828 15.3403Z"></path>
  <path fill="none" stroke="black" stroke-width="7" stroke-miterlimit="4" transform="translate(256 256)" d="M-57.5417 -147.862C-31.6181 -170.294 -5.81773 -182.948 0.0848923 -176.127C5.98752 -169.306 -10.2428 -145.591 -36.1664 -123.159C-62.0901 -100.727 -87.8904 -88.0723 -93.7931 -94.8938C-99.6957 -101.715 -83.4654 -125.43 -57.5417 -147.862Z"></path>
  <path fill="none" stroke="black" stroke-width="7" stroke-linejoin="round" transform="translate(256 256)" d="M-93.7931 -94.8938C-93.7931 -94.8938 -100.638 -102.804 -100.638 -102.804C-102.272 -104.693 -102.164 -107.939 -100.612 -112.106"></path>
  <path fill="none" stroke="black" stroke-width="7" stroke-linejoin="round" transform="translate(256 256)" d="M-7.3511 -184.601C-7.1358 -184.431 -6.93861 -184.244 -6.76013 -184.037C-6.76013 -184.037 -1.0098 -177.392 -0.0501368 -176.283"></path>
  <path fill="#611E1E" transform="matrix(0.605664 -0.524085 0.138801 0.160406 209.146 120.49)" d="M0.749685 55.1993C17.8705 55.1993 66.8714 46.0032 69.8043 0.434736C69.9644 -2.05378 77.4999 -10.5879 77.5 6.10352e-05C77.5 42.526 42.8021 77.0001 -7.62939e-06 77.0001C-42.8021 77.0001 -77.5 42.526 -77.5 6.10352e-05C-76.7271 -10.3618 -70.1795 -1.22873 -69.733 1.90438C-67.4205 42.6839 -17.7408 55.1993 0.749685 55.1993Z"></path>
  <defs>
    <linearGradient id="gradient_0" gradientUnits="userSpaceOnUse" x1="8.5369253" y1="175.39754" x2="0.96320713" y2="-480.78424">
      <stop offset="0" stop-color="#583636"></stop>
      <stop offset="0.015997024" stop-color="#583636"></stop>
      <stop offset="0.98742092" stop-color="#EE1010"></stop>
      <stop offset="1" stop-color="#EE1010"></stop>
    </linearGradient>
  </defs>
  <path fill="url(#gradient_0)" transform="matrix(0.656294 -0.567895 0.119878 0.138539 209.146 120.49)" d="M-3.8147e-06 -64C35.6224 -64 64.5 -35.3462 64.5 1.5378e-05C64.5 35.3462 35.6224 64 -3.8147e-06 64C-35.6224 64 -64.5 35.3462 -64.5 -1.5378e-05C-64.5 -35.3462 -35.6224 -64 -3.8147e-06 -64Z"></path>
  <path fill="#6C88D9" transform="matrix(1.79976 0.0293645 -0.0293645 1.79976 225.403 131.786)" d="M1.90735e-06 -29.5C19.0538 -29.5 34.5 -16.1805 34.5 0.249992C34.5 16.6805 19.0538 30 1.90735e-06 30C-19.0538 30 -34.5 16.6805 -34.5 0.249992C-34.5 -16.1805 -19.0538 -29.5 1.90735e-06 -29.5Z"></path>
  <path fill="#91A8EB" transform="matrix(1.50913 0.0246226 -0.0246226 1.50913 265.49 294.484)" d="M0.249979 -81.5196C49.8787 -81.2985 84.5 -60 84.5 0C84.5 41.1452 46.78 74.5 0.25 74.5C-62.1254 74.5 -84 60.12 -84 0C-84 -71.2881 -62.1254 -81.5196 0.249979 -81.5196Z"></path>
  <clipPath id="cl_81">
    <path d="M269.584 150.335C336.4 151.425 420.696 188.979 418.934 296.965C417.726 371.016 348.735 433.14 264.992 431.773C152.731 429.942 113.909 400.219 115.675 292.017C117.768 163.716 178.303 148.846 269.584 150.335Z"></path>
  </clipPath>
  <g clip-path="url(#cl_81)">
    <path fill="#A6B8EF" transform="matrix(0.805953 0.0131497 -0.0151654 0.929491 321.148 259.362)" d="M0.249972 -81.5196C49.8787 -81.2985 84.5 -60 84.5 2.38419e-07C84.5 41.1452 67.1354 74.5 20.6054 74.5C-41.77 74.5 -84 60.12 -84 2.38419e-07C-84 -71.2881 -62.1254 -81.5197 0.249972 -81.5196Z"></path>
    <path fill="#C1CBE8" transform="matrix(0.197995 -0.202726 0.445703 0.435301 344.249 210.513)" d="M11.5671 -77.0972C58.0971 -77.0972 97.5959 -41.1452 97.5959 -2.43388e-05C97.5959 41.1452 73.4188 83.0524 26.8888 83.0524C-35.4866 83.0524 11.8086 60.12 11.8086 -2.30604e-05C11.8086 -41.1452 -34.9629 -77.0972 11.5671 -77.0972Z"></path>
    <path fill="#C1CBE8" transform="matrix(0.197995 -0.202726 0.184201 0.179903 388.691 274.869)" d="M48.93 -79.7642C80.6762 -79.0529 77.4946 -42.8888 62.8507 4.00568C48.2069 50.9002 -0.03942 91.2964 -20.4536 67.777C-40.8678 44.2577 -16.8141 31.8032 -0.458991 -5.13878C15.8961 -42.0808 17.1838 -80.4755 48.93 -79.7642Z"></path>
  </g>
  <path fill="#91A8EB" transform="matrix(1.37947 2.85496e-09 -2.85496e-09 1.37947 210.879 346.868)" d="M17.3863 -1.54057C33.6076 -9.84932 59.2492 -7.09348 67.7698 44.5427C67.0269 66.8806 39.4017 91.0319 30.4039 85.5809C21.406 80.13 13.8546 75.9322 4.84331 70.8749C-4.17259 65.7309 9.70443 63.7223 10.4474 41.3844C0.561783 0.435944 1.16502 6.76817 17.3863 -1.54057Z"></path>
  <path fill="#91A8EB" transform="matrix(1.79976 0.0293645 -0.0293645 1.79976 225.403 131.786)" d="M1.90735e-06 -22.5C14.6355 -22.5 26.5 -12.3145 26.5 0.249992C26.5 12.8145 14.6355 23 1.90735e-06 23C-14.6355 23 -26.5 12.8145 -26.5 0.249992C-26.5 -12.3145 -14.6355 -22.5 1.90735e-06 -22.5Z"></path>
  <path fill="#1B2B56" transform="matrix(1.78669 -0.21848 0.065544 0.536007 241.014 114.061)" d="M-2.47732e-07 -2.5C1.38071 -2.5 2.5 -1.38071 2.5 0C2.5 1.38071 1.38071 2.5 -2.29105e-07 2.5C-1.38071 2.5 -2.5 1.38071 -2.5 0C-2.5 -1.38071 -1.38071 -2.5 -2.47732e-07 -2.5Z"></path>
  <path fill="none" stroke="#1B2B56" stroke-width="0.5" stroke-linecap="round" stroke-linejoin="round" transform="matrix(1.78289 -0.247598 0.247598 1.78289 249.658 112.949)" d="M1.98548 0.277974L6.02909 0.184236"></path>
  <path fill="#1B2B56" transform="matrix(1.78669 -0.21848 0.065544 0.536007 269.601 110.565)" d="M-9.31323e-09 -2.5C1.38071 -2.5 2.5 -1.38071 2.5 0C2.5 1.38071 1.38071 2.5 9.31323e-09 2.5C-1.38071 2.5 -2.5 1.38071 -2.5 0C-2.5 -1.38071 -1.38071 -2.5 -9.31323e-09 -2.5Z"></path>
  <path fill="#354B89" transform="matrix(1.45897 -0.895021 0.934518 0.718834 261.535 103.441)" d="M7.7039e-06 -2.49999C1.38072 -2.49999 2.50001 -1.3807 2.50001 7.62939e-06C2.50001 1.38072 1.38072 2.50001 7.55489e-06 2.50001C-1.3807 2.50001 -2.49999 1.38072 -2.49999 7.62939e-06C-2.49999 -1.3807 -1.3807 -2.49999 7.7039e-06 -2.49999Z"></path>
  <path fill="#354B89" transform="matrix(2.16453 0.282115 -0.62247 1.07759 246.295 104.47)" d="M3.8147e-06 -2.98532C1.68306 -2.98532 3.04744 -1.64874 3.04744 1.52588e-05C3.04744 1.64877 1.68306 2.98535 3.8147e-06 2.98535C-1.68305 2.98535 -3.04744 1.64877 -3.04744 1.52588e-05C-3.04744 -1.64874 -1.68305 -2.98532 3.8147e-06 -2.98532Z"></path>
  <clipPath id="cl_84">
    <path d="M267.874 171.466C342.765 173.022 394.489 206.017 393.011 296.564C391.998 358.658 334.253 408.066 264.033 406.92C169.9 405.384 137.243 383.144 138.723 292.415C140.478 184.832 173.742 169.93 267.874 171.466Z"></path>
  </clipPath>
  <g clip-path="url(#cl_84)">
    <path fill="#3A6D3D" transform="matrix(0.605664 -0.524085 0.698428 0.807145 163.773 125.369)" d="M74.2157 32.7782L86.5869 31.6617C86.5869 31.6617 73.8823 101.182 67.5039 101.265C67.5039 101.265 49.336 101.463 49.336 101.463C61.2865 101.485 74.2157 32.7782 74.2157 32.7782Z"></path>
  </g>
  <path fill="#9C4040" transform="matrix(0.365938 -0.316649 0.108543 0.125439 151.141 53.4553)" d="M-3.05176e-05 -77C42.802 -77 77.5 -42.5259 77.5 9.23872e-06C77.5 42.5259 42.802 77 -3.05176e-05 77C-42.8021 77 -77.5 42.5259 -77.5 -9.23872e-06C-77.5 -42.5259 -42.8021 -77 -3.05176e-05 -77Z"></path>
  <path fill="#C1CBE8" transform="matrix(0.167375 -0.632967 0.886841 0.234507 184.896 128.636)" d="M0 -11.5C14.6355 -11.5 28.0061 -7.98329 28.0061 -1.63202C28.0061 4.71926 15.5059 0.400178 0.870357 0.400178C-13.7652 0.400177 -26.766 4.37688 -26.766 -1.97439C-26.766 -8.32567 -14.6355 -11.5 0 -11.5Z"></path>
  <path fill="#611E1E" transform="matrix(0.605664 -0.524085 0.138801 0.160406 209.146 120.49)" d="M-7.62939e-06 -76.9999C42.8021 -76.9999 77.5 -42.5259 77.5 6.10352e-05C76.8893 5.34056 70.0211 3.38991 69.8079 -1.63413C68.2223 -39.0047 22.4635 -53.8415 1.14806 -53.8415C-18.1129 -53.8415 -70.7895 -39.8299 -69.4931 2.24315C-69.4637 3.19759 -74.2395 10.5248 -77.5 6.10352e-05C-77.5 -42.5259 -42.8021 -76.9999 -7.62939e-06 -76.9999Z"></path>
  <clipPath id="cl_85">
    <path d="M122.78 77.9955L166.69 156.974L251.352 83.7156L179.501 28.915L122.78 77.9955Z"></path>
  </clipPath>
  <g clip-path="url(#cl_85)">
    <path fill="#BA4646" transform="matrix(0.439468 -0.380274 0.333216 0.385084 156.616 85.3118)" d="M-67.4615 -84L67.4615 -84L92.3226 83.7694L-67.4615 84L-67.4615 -84Z"></path>
  </g>
  <clipPath id="cl_86">
    <path d="M142.783 43.7965C158.446 30.2432 174.885 23.5806 179.501 28.915C184.117 34.2494 175.161 49.5609 159.498 63.1141C143.836 76.6673 127.396 83.33 122.78 77.9955C118.165 72.6611 127.12 57.3497 142.783 43.7965Z"></path>
  </clipPath>
  <g clip-path="url(#cl_86)">
    <path fill="#BA4646" transform="matrix(0.439468 -0.380274 0.333216 0.385084 156.616 85.3118)" d="M-67.4615 -84L67.4615 -84L92.3226 83.7694L-67.4615 84L-67.4615 -84Z"></path>
  </g>
  <path fill="#993535" transform="matrix(0.605664 -0.524085 0.524085 0.605664 162.207 161.106)" d="M0 -2.28882e-05C0 -2.28882e-05 0 -13.0609 0 -13.0609C-7.62939e-06 -24.308 35.8327 -33.7055 77.5 -33.393C119.167 -33.0805 155 -24.308 155 -13.0609C155 -13.0609 155 -1.52588e-05 155 -1.52588e-05C155 -10.5379 119.167 -20.393 77.5 -20.393C35.8327 -20.393 7.62939e-06 -10.5379 0 -2.28882e-05Z"></path>
  <path fill="#669969" transform="matrix(0.605664 -0.524085 0.644995 0.745395 169.182 131.62)" d="M-0.506058 0.0226059C3.17321 -3.90971 9.28304 -5.30722 18.0792 -2.2478C23.7018 23.1815 52.5776 101.462 67.2296 101.254C62.0975 101.327 59.1898 101.368 46.7011 101.546C36.2156 101.695 2.73151 5.31649 -0.506058 0.0226059Z"></path>
  <path fill="none" stroke="black" stroke-width="7" stroke-linecap="round" stroke-linejoin="round" transform="matrix(2.15345 4.45679e-09 -4.42021e-09 2.13577 150.668 302.982)" d="M24.653 -26.0168C25.2956 -19.911 25.6744 -10.4012 22.9678 4.24783C17.4747 32.5718 6.76246 55.1473 -17.8033 49.1282C-33.2018 45.2509 -38.4681 21.5435 -32.9794 -6.75747C-29.0912 -29.2494 -16.4712 -47.5604 -3.54904 -55.6281"></path>
  <path fill="#6C88D9" transform="matrix(2.15345 4.45679e-09 -4.42021e-09 2.13577 150.668 302.982)" d="M16.7444 -58.5875C19.6589 -53.7801 24.2772 -38.0989 23.8513 -34.1948C23.4254 -30.2908 27.4754 -20.1482 22.9678 4.24783C17.4747 32.5718 6.76246 55.1473 -17.8033 49.1282C-33.2018 45.2509 -38.4681 21.5435 -32.9794 -6.75747C-26.9405 -41.6901 0.161076 -66.5379 16.7444 -58.5875Z"></path>
  <path fill="#91A8EB" transform="matrix(1.67686 3.47045e-09 -4.32784e-09 2.09114 154.658 297.269)" d="M17.5261 -52.262C39.4742 -49.7633 28.2945 -25.9532 21.656 2.17147C15.0131 30.2932 -0.887436 52.0698 -16.1965 50.3189C-31.5055 48.5681 -39.4248 24.1544 -34.3794 -4.278C-29.3394 -32.7075 -4.42208 -54.7606 17.5261 -52.262Z"></path>
  <path fill="none" stroke="white" stroke-width="5" stroke-linecap="round" stroke-linejoin="round" transform="matrix(1.5 0 0 1.5 158.539 362.24)" d=""></path>
</svg>