<?xml version="1.0" encoding="utf-8"?>
<svg xmlns="http://www.w3.org/2000/svg" xmlns:xlink="http://www.w3.org/1999/xlink" width="512" height="512">
  <path fill="none" stroke="black" stroke-width="7" stroke-linejoin="round" transform="matrix(1.8 3.72529e-09 -3.72529e-09 1.8 210.879 409.868)" d="M42.4038 -47.2875C60.3373 -50.5364 78.8979 -41.7336 81.3662 4.30416C78.5224 35.2696 65.1084 47.2501 54.9025 44.6979C44.6965 42.1456 36.2426 40.3639 26.14 38.1918C15.9499 35.8161 16.8776 27.6363 19.5181 1.80304C16.412 -41.1331 24.4703 -44.0385 42.4038 -47.2875Z"></path>
  <path fill="none" stroke="black" stroke-width="7" stroke-linejoin="round" transform="matrix(-2.15345 -3.29802e-07 -3.27096e-07 2.13577 356.227 279.68)" d="M18.6935 -58.2893C21.9252 -53.6927 27.5898 -38.3642 27.428 -34.4399C27.2662 -30.5158 31.3939 -21.4698 29.3771 2.8145C27.2868 31.6274 22.1558 54.5694 -3.06872 52.8711C-18.8978 51.7037 -29.6398 27.429 -27.5495 -1.3839C-24.929 -37.507 1.61257 -65.085 18.6935 -58.2893Z"></path>
  <path fill="none" stroke="black" stroke-width="7" stroke-linejoin="round" transform="matrix(1.79976 0.0293645 -0.0293645 1.79976 266.522 280.846)" d="M0.209624 -80.0966C37.3348 -80.0966 84.5 -60 84.5 0C84.5 41.1452 46.7396 76.2788 0.209624 76.2788C-62.1658 76.2788 -84 60.12 -84 0C-84 -71.2881 -50.5087 -80.0966 0.209624 -80.0966Z"></path>
  <path fill="none" stroke="black" stroke-width="7" stroke-linejoin="round" transform="matrix(1.53671 3.18039e-09 -3.72529e-09 1.8 308.979 398.168)" d="M-45.0432 -46.9005C-26.8179 -46.9486 -11.4202 -40.0804 -11.4312 9.49421C-10.9975 23.3447 -17.188 47.0649 -30.8651 46.9171C-44.5423 46.7692 -50.6774 46.7028 -62.8784 46.5709C-75.0795 46.439 -76.9971 23.5189 -77.4309 9.66843C-77.7386 -42.0961 -63.2685 -46.8524 -45.0432 -46.9005Z"></path>
  <path fill="#6C88D9" transform="matrix(-2.15345 -3.29802e-07 -3.27096e-07 2.13577 356.227 279.68)" d="M18.6935 -58.2893C21.9252 -53.6927 27.5898 -38.3642 27.428 -34.4399C27.2662 -30.5158 31.3939 -21.4698 29.3771 2.8145C27.2868 31.6274 22.1558 54.5694 -3.06872 52.8711C-18.8978 51.7037 -29.6398 27.429 -27.5495 -1.3839C-24.929 -37.507 1.61257 -65.085 18.6935 -58.2893Z"></path>
  <path fill="#5170C8" transform="matrix(1.53671 3.18039e-09 -3.72529e-09 1.8 308.979 398.168)" d="M-45.0432 -46.9005C-26.8179 -46.9486 -11.4202 -40.0804 -11.4312 9.49421C-10.9975 23.3447 -17.188 47.0649 -30.8651 46.9171C-44.5423 46.7692 -50.6774 46.7028 -62.8784 46.5709C-75.0795 46.439 -76.9971 23.5189 -77.4309 9.66843C-77.7386 -42.0961 -63.2685 -46.8524 -45.0432 -46.9005Z"></path>
  <path fill="#839BE0" transform="matrix(1.20328 2.49031e-09 -2.91698e-09 1.40944 308.979 398.168)" d="M-57.479 -47.1896C-39.2536 -47.2377 -24.4074 -40.2845 -24.275 13.7823C-24.717 31.7132 -33.6463 46.7966 -47.3234 46.6487C-61.0006 46.5008 -60.8264 46.5533 -73.0275 46.4214C-85.2285 46.2894 -90.7168 31.8874 -90.2747 13.9565C-90.7259 -42.3002 -75.7043 -47.1415 -57.479 -47.1896Z"></path>
  <path fill="#6C88D9" transform="matrix(1.8 3.72529e-09 -3.72529e-09 1.8 210.879 409.868)" d="M42.4038 -47.2875C60.3373 -50.5364 78.8979 -41.7336 81.3662 4.30416C78.5224 35.2696 65.1084 47.2501 54.9025 44.6979C44.6965 42.1456 36.2426 40.3639 26.14 38.1918C15.9499 35.8161 16.8776 27.6363 19.5181 1.80304C16.412 -41.1331 24.4703 -44.0385 42.4038 -47.2875Z"></path>
  <path fill="#91A8EB" transform="matrix(-1.67686 -2.56813e-07 -3.2026e-07 2.09114 352.237 273.967)" d="M20.4432 -51.8815C42.5524 -50.5846 33.4097 -26.2245 29.1769 2.19527C24.944 30.615 10.9553 53.2103 -4.46745 52.3057C-19.8902 51.401 -29.8895 27.4711 -27.2768 -1.17115C-24.6642 -29.8134 -1.66595 -53.1783 20.4432 -51.8815Z"></path>
  <path fill="none" stroke="black" stroke-width="7" stroke-miterlimit="4" transform="matrix(1.79976 0.0293645 -0.0293645 1.79976 225.071 118.148)" d="M0 -29.5C19.0538 -29.5 34.5 -16.1805 34.5 0.25C34.5 16.6805 19.0538 30 0 30C-19.0538 30 -34.5 16.6805 -34.5 0.25C-34.5 -16.1805 -19.0538 -29.5 0 -29.5Z"></path>
  <path fill="none" stroke="black" stroke-width="7" stroke-linejoin="round" transform="translate(256 256)" d="M-24.7165 -157.456L-18.0034 -164.841C-18.0034 -164.841 22.8566 -102.07 19.0512 -98.6603C19.0512 -98.6603 18.4113 -98.09 17.442 -97.2263"></path>
  <path fill="none" stroke="black" stroke-width="7" stroke-linejoin="round" transform="translate(256 256)" d="M7.12547 -99.6911C1.74234 -114.347 -13.4783 -139.514 -20.7513 -151.18"></path>
  <path fill="none" stroke="black" stroke-width="7" stroke-linejoin="round" transform="translate(256 256)" d="M18.1573 -97.8823C15.4978 -95.4984 13.4794 -93.6891 6.6311 -87.5505C0.376541 -81.9441 -82.0673 -136.236 -87.4427 -138.485C-87.7506 -143.344 -84.9515 -147.588 -77.6507 -149.918C-57.8435 -133.909 10.1364 -90.6925 18.8762 -98.5267C18.6292 -98.3053 18.3908 -98.0916 18.1573 -97.8823"></path>
  <path fill="#6C88D9" transform="matrix(1.79976 0.0293645 -0.0293645 1.79976 266.522 280.846)" d="M0.209624 -80.0966C37.3348 -80.0966 84.5 -60 84.5 0C84.5 41.1452 46.7396 76.2788 0.209624 76.2788C-62.1658 76.2788 -84 60.12 -84 0C-84 -71.2881 -50.5087 -80.0966 0.209624 -80.0966Z"></path>
  <path fill="#3A6D3D" transform="matrix(0.605664 -0.524085 0.698428 0.807145 163.441 110.982)" d="M74.2156 32.7782L86.5869 31.6617C86.5869 31.6617 73.8823 101.182 67.5039 101.264C67.5039 101.264 49.336 101.463 49.336 101.463C61.2865 101.485 74.2156 32.7782 74.2156 32.7782Z"></path>
  <path fill="none" stroke="black" stroke-width="7" stroke-miterlimit="4" transform="translate(256 256)" d="M-64.6874 -170.122C-38.7637 -192.554 -12.9634 -205.209 -7.06074 -198.387C-1.15812 -191.566 -17.3884 -167.851 -43.3121 -145.419C-69.2358 -122.987 -95.0361 -110.333 -100.939 -117.154C-106.841 -123.976 -90.6111 -147.69 -64.6874 -170.122Z"></path>
  <path fill="#585555" transform="matrix(0.605664 -0.524085 0.138801 0.160406 202 98.2293)" d="M-7.62939e-06 -77C42.8021 -77 77.5 -42.5259 77.5 0C77.5 42.5259 42.8021 77 -7.62939e-06 77C-42.8021 77 -77.5 42.5259 -77.5 0C-77.5 -42.5259 -42.8021 -77 -7.62939e-06 -77Z"></path>
  <path fill="none" stroke="black" stroke-width="7" stroke-linejoin="round" transform="translate(256 256)" d="M-133.552 -192.391L-97.372 -127.315"></path>
  <path fill="none" stroke="black" stroke-width="7" stroke-linejoin="round" transform="translate(256 256)" d="M-6.37096 -187.731L-76.8317 -241.472L-93.9302 -226.676"></path>
  <path fill="none" stroke="black" stroke-width="8" stroke-miterlimit="4" transform="translate(256 256)" d="M-113.55 -226.59C-97.8868 -240.143 -81.4476 -246.806 -76.8317 -241.472C-72.2158 -236.137 -81.1711 -220.826 -96.8341 -207.273C-112.497 -193.719 -128.936 -187.057 -133.552 -192.391C-138.168 -197.726 -129.213 -213.037 -113.55 -226.59Z"></path>
  <path fill="#9C4040" transform="matrix(0.605664 -0.524085 0.524085 0.605664 108.353 59.5577)" d="M9.99828 15.3403L-13.0686 125.78L126.715 125.78L103.648 15.3403L9.99828 15.3403Z"></path>
  <path fill="none" stroke="black" stroke-width="7" stroke-miterlimit="4" transform="translate(256 256)" d="M-57.8743 -162.248C-31.9506 -184.68 -6.15026 -197.335 -0.247635 -190.514C5.65499 -183.692 -10.5753 -159.978 -36.499 -137.546C-62.4227 -115.114 -88.223 -102.459 -94.1256 -109.28C-100.028 -116.102 -83.798 -139.816 -57.8743 -162.248Z"></path>
  <path fill="none" stroke="black" stroke-width="7" stroke-linejoin="round" transform="translate(256 256)" d="M-94.1256 -109.28C-94.1256 -109.28 -100.971 -117.191 -100.971 -117.191C-102.605 -119.08 -102.496 -122.326 -100.944 -126.493"></path>
  <path fill="none" stroke="black" stroke-width="7" stroke-linejoin="round" transform="translate(256 256)" d="M-7.68364 -198.988C-7.46833 -198.818 -7.27114 -198.63 -7.09266 -198.424C-7.09266 -198.424 -1.34232 -191.779 -0.382664 -190.67"></path>
  <path fill="#611E1E" transform="matrix(0.605664 -0.524085 0.138801 0.160406 208.813 106.103)" d="M0.749685 55.1992C17.8705 55.1992 66.8714 46.0031 69.8043 0.434675C69.9644 -2.05384 77.4999 -10.588 77.5 0C77.5 42.5259 42.8021 77 -7.62939e-06 77C-42.8021 77 -77.5 42.5259 -77.5 0C-76.7271 -10.3619 -70.1795 -1.22879 -69.733 1.90431C-67.4205 42.6838 -17.7408 55.1992 0.749685 55.1992Z"></path>
  <defs>
    <linearGradient id="gradient_0" gradientUnits="userSpaceOnUse" x1="8.5369253" y1="175.39754" x2="0.96320713" y2="-480.78424">
      <stop offset="0" stop-color="#583636"></stop>
      <stop offset="0.015997024" stop-color="#583636"></stop>
      <stop offset="0.98742092" stop-color="#EE1010"></stop>
      <stop offset="1" stop-color="#EE1010"></stop>
    </linearGradient>
  </defs>
  <path fill="url(#gradient_0)" transform="matrix(0.656294 -0.567895 0.119878 0.138539 208.813 106.103)" d="M0 -64C35.6224 -64 64.5 -35.3462 64.5 1.5378e-05C64.5 35.3462 35.6224 64 0 64C-35.6224 64 -64.5 35.3462 -64.5 -1.5378e-05C-64.5 -35.3462 -35.6224 -64 0 -64Z"></path>
  <path fill="#6C88D9" transform="matrix(1.79976 0.0293645 -0.0293645 1.79976 225.071 118.148)" d="M0 -29.5C19.0538 -29.5 34.5 -16.1805 34.5 0.25C34.5 16.6805 19.0538 30 0 30C-19.0538 30 -34.5 16.6805 -34.5 0.25C-34.5 -16.1805 -19.0538 -29.5 0 -29.5Z"></path>
  <path fill="#91A8EB" transform="matrix(1.50913 0.0246226 -0.0246226 1.50913 265.157 280.846)" d="M0.249979 -81.5196C49.8787 -81.2985 84.5 -60 84.5 -1.90735e-06C84.5 41.1452 46.78 74.5 0.25 74.5C-62.1254 74.5 -84 60.12 -84 -1.90735e-06C-84 -71.2881 -62.1254 -81.5196 0.249979 -81.5196Z"></path>
  <clipPath id="cl_10b">
    <path d="M269.251 136.697C336.068 137.787 420.364 175.341 418.602 283.327C417.393 357.378 348.402 419.502 264.659 418.135C152.399 416.304 113.577 386.581 115.342 278.379C117.435 150.078 177.97 135.208 269.251 136.697Z"></path>
  </clipPath>
  <g clip-path="url(#cl_10b)">
    <path fill="#A6B8EF" transform="matrix(0.805953 0.0131497 -0.0151654 0.929491 320.816 245.724)" d="M0.249972 -81.5196C49.8787 -81.2985 84.5 -60 84.5 9.53674e-07C84.5 41.1452 67.1354 74.5 20.6054 74.5C-41.77 74.5 -84 60.12 -84 9.53674e-07C-84 -71.2881 -62.1254 -81.5197 0.249972 -81.5196Z"></path>
    <path fill="#C1CBE8" transform="matrix(0.197995 -0.202726 0.445703 0.435301 343.916 196.874)" d="M11.5671 -77.0972C58.0971 -77.0972 97.5959 -41.1452 97.5959 -2.05241e-05C97.5959 41.1452 73.4188 83.0524 26.8888 83.0524C-35.4866 83.0524 11.8087 60.12 11.8087 -1.92457e-05C11.8087 -41.1452 -34.9629 -77.0972 11.5671 -77.0972Z"></path>
    <path fill="#C1CBE8" transform="matrix(0.197995 -0.202726 0.184201 0.179903 388.358 261.231)" d="M48.93 -79.7642C80.6763 -79.0529 77.4946 -42.8888 62.8508 4.00568C48.2069 50.9002 -0.0393895 91.2964 -20.4536 67.777C-40.8678 44.2577 -16.8141 31.8032 -0.458961 -5.13878C15.8962 -42.0808 17.1838 -80.4755 48.93 -79.7642Z"></path>
  </g>
  <path fill="#91A8EB" transform="matrix(1.37947 2.85496e-09 -2.85496e-09 1.37947 210.879 346.868)" d="M57.8226 -2.27761C75.7561 -5.52657 94.8926 -4.65748 98.0225 48.4913C97.228 73.4354 80.7877 92.4391 70.5818 89.8868C60.3758 87.3346 51.9219 85.5528 41.8193 83.3807C31.6867 81.1271 33.2161 69.9988 34.0106 45.0547C30.161 -4.91388 39.8892 0.971359 57.8226 -2.27761Z"></path>
  <path fill="#91A8EB" transform="matrix(1.79976 0.0293645 -0.0293645 1.79976 225.071 118.148)" d="M0 -22.5C14.6355 -22.5 26.5 -12.3145 26.5 0.25C26.5 12.8145 14.6355 23 0 23C-14.6355 23 -26.5 12.8145 -26.5 0.25C-26.5 -12.3145 -14.6355 -22.5 0 -22.5Z"></path>
  <path fill="#1B2B56" transform="matrix(1.78669 -0.21848 0.065544 0.536007 238.71 97.4659)" d="M-3.66941e-07 -2.50003C1.38071 -2.50003 2.5 -1.38074 2.5 -3.05176e-05C2.5 1.38068 1.38071 2.49997 -3.48315e-07 2.49997C-1.38071 2.49997 -2.5 1.38068 -2.5 -3.05176e-05C-2.5 -1.38074 -1.38071 -2.50003 -3.66941e-07 -2.50003Z"></path>
  <path fill="none" stroke="#1B2B56" stroke-width="0.5" stroke-linecap="round" stroke-linejoin="round" transform="matrix(1.78289 -0.247598 0.247598 1.78289 247.354 96.3543)" d="M1.98548 0.277981L6.02909 0.184244"></path>
  <path fill="#1B2B56" transform="matrix(1.78669 -0.21848 0.065544 0.536007 267.297 93.9702)" d="M-9.31323e-09 -2.50003C1.38071 -2.50003 2.5 -1.38074 2.5 -3.05176e-05C2.5 1.38068 1.38071 2.49997 9.31323e-09 2.49997C-1.38071 2.49997 -2.5 1.38068 -2.5 -3.05176e-05C-2.5 -1.38074 -1.38071 -2.50003 -9.31323e-09 -2.50003Z"></path>
  <path fill="#354B89" transform="matrix(1.45897 -0.895021 0.934518 0.718834 259.231 86.8456)" d="M7.45058e-08 -2.5C1.38071 -2.5 2.5 -1.38071 2.5 0C2.5 1.38071 1.38071 2.5 -7.45058e-08 2.5C-1.38071 2.5 -2.5 1.38071 -2.5 0C-2.5 -1.38071 -1.38071 -2.5 7.45058e-08 -2.5Z"></path>
  <path fill="#354B89" transform="matrix(2.16453 0.282115 -0.62247 1.07759 243.991 87.8744)" d="M0 -2.98532C1.68306 -2.98532 3.04744 -1.64874 3.04744 1.52588e-05C3.04744 1.64877 1.68306 2.98535 0 2.98535C-1.68306 2.98535 -3.04744 1.64877 -3.04744 1.52588e-05C-3.04744 -1.64874 -1.68306 -2.98532 0 -2.98532Z"></path>
  <clipPath id="cl_10e">
    <path d="M267.542 157.828C342.433 159.384 394.156 192.379 392.679 282.926C391.666 345.02 333.92 394.428 263.7 393.282C169.568 391.746 136.91 369.506 138.391 278.777C140.146 171.194 173.409 156.292 267.542 157.828Z"></path>
  </clipPath>
  <g clip-path="url(#cl_10e)">
    <path fill="#3A6D3D" transform="matrix(0.605664 -0.524085 0.698428 0.807145 163.441 110.982)" d="M74.2156 32.7782L86.5869 31.6617C86.5869 31.6617 73.8823 101.182 67.5039 101.264C67.5039 101.264 49.336 101.463 49.336 101.463C61.2865 101.485 74.2156 32.7782 74.2156 32.7782Z"></path>
  </g>
  <path fill="#9C4040" transform="matrix(0.365938 -0.316649 0.108543 0.125439 150.808 39.0686)" d="M-1.52588e-05 -77C42.8021 -77 77.5 -42.5259 77.5 9.23872e-06C77.5 42.5259 42.8021 77 -1.52588e-05 77C-42.8021 77 -77.5 42.5259 -77.5 -9.23872e-06C-77.5 -42.5259 -42.8021 -77 -1.52588e-05 -77Z"></path>
  <path fill="#C1CBE8" transform="matrix(0.167375 -0.632967 0.886841 0.234507 184.563 114.998)" d="M1.52588e-05 -11.5C14.6356 -11.5 28.0061 -7.98328 28.0061 -1.63201C28.0061 4.71927 15.5059 0.400186 0.870372 0.400186C-13.7652 0.400184 -26.766 4.37689 -26.766 -1.97439C-26.766 -8.32566 -14.6355 -11.5 1.52588e-05 -11.5Z"></path>
  <path fill="#611E1E" transform="matrix(0.605664 -0.524085 0.138801 0.160406 208.813 106.103)" d="M-7.62939e-06 -77C42.8021 -77 77.5 -42.5259 77.5 0C76.8893 5.3405 70.0211 3.38985 69.8079 -1.63419C68.2223 -39.0047 22.4635 -53.8416 1.14806 -53.8416C-18.1129 -53.8416 -70.7895 -39.8299 -69.4931 2.24309C-69.4637 3.19753 -74.2395 10.5248 -77.5 0C-77.5 -42.5259 -42.8021 -77 -7.62939e-06 -77Z"></path>
  <clipPath id="cl_10f">
    <path d="M122.448 63.6088L166.357 142.587L251.019 69.3289L179.168 14.5283L122.448 63.6088Z"></path>
  </clipPath>
  <g clip-path="url(#cl_10f)">
    <path fill="#BA4646" transform="matrix(0.439468 -0.380274 0.333216 0.385084 156.283 70.9251)" d="M-67.4615 -84L67.4615 -84L92.3226 83.7694L-67.4615 84L-67.4615 -84Z"></path>
  </g>
  <clipPath id="cl_110">
    <path d="M142.45 29.4097C158.113 15.8565 174.552 9.19388 179.168 14.5283C183.784 19.8627 174.829 35.1741 159.166 48.7274C143.503 62.2806 127.064 68.9432 122.448 63.6088C117.832 58.2744 126.787 42.963 142.45 29.4097Z"></path>
  </clipPath>
  <g clip-path="url(#cl_110)">
    <path fill="#BA4646" transform="matrix(0.439468 -0.380274 0.333216 0.385084 156.283 70.9251)" d="M-67.4615 -84L67.4615 -84L92.3226 83.7694L-67.4615 84L-67.4615 -84Z"></path>
  </g>
  <path fill="#993535" transform="matrix(0.605664 -0.524085 0.524085 0.605664 161.874 146.72)" d="M-7.62939e-06 0C-7.62939e-06 0 -1.52588e-05 -13.0609 7.62939e-06 -13.0609C1.52588e-05 -24.308 35.8327 -33.7055 77.5 -33.393C119.167 -33.0805 155 -24.308 155 -13.0609C155 -13.0609 155 0 155 0C155 -10.5378 119.167 -20.393 77.5 -20.393C35.8327 -20.393 -7.62939e-06 -10.5379 -7.62939e-06 0Z"></path>
  <path fill="#669969" transform="matrix(0.605664 -0.524085 0.644995 0.745395 168.849 117.233)" d="M-0.506058 0.0226059C3.17322 -3.90973 9.28306 -5.30724 18.0791 -2.24781C23.7018 23.1815 52.5776 101.462 67.2296 101.254C62.0975 101.327 59.1898 101.368 46.7011 101.546C36.2156 101.695 2.73151 5.31647 -0.506058 0.0226059Z"></path>
  <path fill="none" stroke="black" stroke-width="7" stroke-linecap="round" stroke-linejoin="round" transform="matrix(2.15345 4.45679e-09 -4.42021e-09 2.13577 150.335 289.344)" d="M29.1042 -33.0195C31.5116 -27.8664 34.7942 -19.7896 37.901 -6.30896C45.0656 21.6367 49.1956 43.8408 25.0111 51.2657C9.79898 55.8298 -10.1602 36.0295 -17.3289 8.068C-22.942 -15.1581 -17.1947 -38.0968 -7.44979 -50.8284"></path>
  <path fill="#6C88D9" transform="matrix(2.15345 4.45679e-09 -4.42021e-09 2.13577 150.335 289.344)" d="M10.5094 -60.9778C14.9078 -57.5022 24.6752 -44.441 25.6308 -40.6333C26.5863 -36.8258 32.5084 -29.7075 37.901 -6.30896C45.0656 21.6367 49.1956 43.8408 25.0111 51.2657C9.79898 55.8298 -10.1602 36.0295 -17.3289 8.068C-25.9471 -27.5928 -7.78454 -62.5762 10.5094 -60.9778Z"></path>
  <path fill="#91A8EB" transform="matrix(1.67686 3.47045e-09 -4.32784e-09 2.09114 154.325 283.631)" d="M11.7333 -54.5611C33.3846 -58.3775 31.0561 -33.445 38.6326 -6.2187C47.7088 21.3478 50.1725 44.4299 35.8832 49.1706C21.5939 53.9113 -4.51462 34.5604 -15.1932 7.26424C-24.9776 -21.2594 -9.91803 -50.7447 11.7333 -54.5611Z"></path>
  <path fill="none" stroke="white" stroke-width="5" stroke-linecap="round" stroke-linejoin="round" transform="matrix(1.5 0 0 1.5 158.539 362.24)" d=""></path>
</svg>