<?xml version="1.0" encoding="utf-8"?>
<svg xmlns="http://www.w3.org/2000/svg" xmlns:xlink="http://www.w3.org/1999/xlink" width="686" height="512">
  <path fill="none" stroke="#181818" stroke-width="7" stroke-linejoin="round" transform="matrix(1.75255 0 0 1.75255 400.987 414.526)" d="M0.225746 -46.2577C18.4511 -46.2069 31.0588 -38.9157 31.2551 5.37342C31.8251 34.3853 24.5637 44.4665 14.045 44.2883C3.52623 44.1101 -5.11157 44.2862 -15.4437 44.455C-25.907 44.4453 -31.383 33.3521 -31.9527 4.32717C-32.4543 -42.1667 -17.9996 -46.3084 0.225746 -46.2577Z"></path>
  <path fill="none" stroke="#181818" stroke-width="7" stroke-linejoin="round" transform="matrix(-2.09669 -3.16894e-07 -3.14293e-07 2.07948 542.362 281.944)" d="M18.4249 -58.663C21.7945 -54.1681 27.9211 -39.0213 27.8783 -35.094C27.8355 -31.1666 32.2355 -22.2521 30.9557 2.08302C29.7398 30.9469 25.3066 54.0363 0.0424194 53.1161C-15.8146 52.4371 -27.2875 28.5047 -26.0716 -0.359159C-24.5472 -36.5461 1.14601 -64.9291 18.4249 -58.663Z"></path>
  <path fill="none" stroke="#181818" stroke-width="7" stroke-linejoin="round" transform="matrix(1.49621 0 0 1.75255 496.501 403.135)" d="M-0.454735 -47.8566C17.7659 -48.2121 33.3195 -41.6049 34.4557 7.9602C35.2098 21.8007 29.5692 45.6206 15.8913 45.7035C2.21347 45.7863 -3.92197 45.8234 -16.1237 45.8973C-28.3254 45.9712 -30.773 23.088 -31.5271 9.24745C-33.0326 -42.5018 -18.6753 -47.5012 -0.454735 -47.8566Z"></path>
  <path fill="#7891D9" transform="matrix(-2.09669 -3.16894e-07 -3.14293e-07 2.07948 542.362 281.944)" d="M18.4249 -58.663C21.7945 -54.1681 27.9211 -39.0213 27.8783 -35.094C27.8355 -31.1666 32.2355 -22.2521 30.9557 2.08302C29.7398 30.9469 25.3067 54.0363 0.0424271 53.1161C-15.8146 52.4371 -27.2875 28.5047 -26.0716 -0.359159C-24.5472 -36.5461 1.14602 -64.9291 18.4249 -58.663Z"></path>
  <path fill="#607BCA" transform="matrix(1.49621 0 0 1.75255 496.501 403.135)" d="M-0.454735 -47.8566C17.7659 -48.2121 33.3195 -41.6049 34.4557 7.9602C35.2098 21.8007 29.5692 45.6206 15.8913 45.7035C2.21347 45.7863 -3.92197 45.8234 -16.1237 45.8973C-28.3254 45.9712 -30.773 23.088 -31.5271 9.24745C-33.0326 -42.5018 -18.6753 -47.5012 -0.454735 -47.8566Z"></path>
  <path fill="#8CA2DF" transform="matrix(1.17156 0 0 1.37229 496.501 403.135)" d="M-0.240723 -48.414C17.98 -48.7694 32.9843 -42.0679 34.3676 11.9861C34.3406 29.921 25.762 45.1519 12.0841 45.2348C-1.59375 45.3176 -1.41846 45.3671 -13.6202 45.4409C-25.8219 45.5148 -31.6422 31.2082 -31.6152 13.2733C-33.368 -42.9648 -18.4613 -48.0585 -0.240723 -48.414Z"></path>
  <path fill="#7891D9" transform="matrix(1.75255 0 0 1.75255 400.987 414.526)" d="M0.225746 -46.2577C18.4511 -46.2069 31.0588 -38.9157 31.2551 5.37342C31.8251 34.3853 24.5637 44.4665 14.045 44.2883C3.52623 44.1101 -5.11157 44.2862 -15.4437 44.455C-25.907 44.4453 -31.383 33.3521 -31.9527 4.32717C-32.4543 -42.1667 -17.9996 -46.3084 0.225746 -46.2577Z"></path>
  <path fill="#99ADE9" transform="matrix(-1.63266 -2.46762e-07 -3.07725e-07 2.03602 538.477 276.382)" d="M20.2864 -52.2365C42.4347 -51.4821 34.2247 -26.9093 31.077 1.60099C27.9294 30.1112 14.8084 53.0388 -0.641647 52.5126C-16.0917 51.9863 -26.9984 28.3127 -25.4787 -0.380267C-23.9589 -29.0732 -1.86185 -52.9908 20.2864 -52.2365Z"></path>
  <path fill="none" stroke="#181818" stroke-width="7" stroke-miterlimit="4" transform="matrix(1.75232 0.0285905 -0.0285905 1.75232 414.662 124.67)" d="M3.8147e-06 -29.5C19.0538 -29.5 34.5 -16.1805 34.5 0.250008C34.5 16.6805 19.0538 30 3.8147e-06 30C-19.0538 30 -34.5 16.6805 -34.5 0.250008C-34.5 -16.1805 -19.0538 -29.5 3.8147e-06 -29.5Z"></path>
  <path fill="none" stroke="#181818" stroke-width="9" stroke-miterlimit="4" transform="matrix(1.00146 0 0 1.00146 343 256)" d="M45.9792 -187.35C60.3511 -187.115 71.838 -176.879 71.6358 -164.485C71.4336 -152.092 59.6189 -142.236 45.2469 -142.47C30.8749 -142.705 19.3881 -152.941 19.5903 -165.335C19.7925 -177.728 31.6072 -187.584 45.9792 -187.35Z"></path>
  <path fill="none" stroke="#181818" stroke-width="9" stroke-miterlimit="4" transform="matrix(1.00146 0 0 1.00146 343 256)" d="M30.8971 -172.852C42.855 -172.657 52.4124 -164.139 52.2442 -153.828C52.0759 -143.516 42.2457 -135.315 30.2878 -135.51C18.3299 -135.705 8.77245 -144.223 8.94069 -154.534C9.10893 -164.846 18.9391 -173.047 30.8971 -172.852Z"></path>
  <path fill="none" stroke="#181818" stroke-width="9" stroke-miterlimit="4" transform="matrix(1.00146 0 0 1.00146 343 256)" d="M11.4457 -196.51C17.9412 -196.404 23.1327 -191.777 23.0413 -186.176C22.9499 -180.575 17.6102 -176.12 11.1148 -176.226C4.61931 -176.332 -0.572214 -180.959 -0.480827 -186.56C-0.389441 -192.161 4.95025 -196.616 11.4457 -196.51Z"></path>
  <path fill="#7891D9" transform="matrix(1.75232 0.0285905 -0.0285905 1.75232 414.662 124.67)" d="M3.8147e-06 -29.5C19.0538 -29.5 34.5 -16.1805 34.5 0.250008C34.5 16.6805 19.0538 30 3.8147e-06 30C-19.0538 30 -34.5 16.6805 -34.5 0.250008C-34.5 -16.1805 -19.0538 -29.5 3.8147e-06 -29.5Z"></path>
  <path fill="#7891D9" transform="matrix(0.755384 0.0123247 -0.0123247 0.755384 388.683 90.6604)" d="M-3.8147e-06 -29.5C19.0538 -29.5 34.5 -16.1805 34.5 0.25C34.5 16.6805 19.0538 30 -3.8147e-06 30C-19.0538 30 -34.5 16.6805 -34.5 0.25C-34.5 -16.1805 -19.0538 -29.5 -3.8147e-06 -29.5Z"></path>
  <path fill="#7891D9" transform="matrix(0.628503 0.0102545 -0.0102545 0.628503 373.64 101.437)" d="M3.87011e-06 -29.5C19.0538 -29.5 34.5 -16.1805 34.5 0.24997C34.5 16.6804 19.0538 30 3.75928e-06 30C-19.0538 30 -34.5 16.6804 -34.5 0.249969C-34.5 -16.1805 -19.0538 -29.5 3.87011e-06 -29.5Z"></path>
  <path fill="#7891D9" transform="matrix(0.341398 0.00557018 -0.00557018 0.341398 354.298 69.2746)" d="M1.90735e-06 -29.5001C19.0538 -29.5001 34.5 -16.1805 34.5 0.249939C34.5 16.6804 19.0538 29.9999 1.90735e-06 29.9999C-19.0538 29.9999 -34.5 16.6804 -34.5 0.249939C-34.5 -16.1805 -19.0538 -29.5001 1.90735e-06 -29.5001Z"></path>
  <path fill="none" stroke="black" stroke-width="7" stroke-linejoin="round" transform="matrix(1.00146 0 0 1.00146 343 256)" d="M14.7162 -94.2078C33.6479 -120.188 124.372 -106.564 140.155 -103.972"></path>
  <defs>
    <linearGradient id="gradient_0" gradientUnits="userSpaceOnUse" x1="-10.499905" y1="-40.34568" x2="-3.0814617" y2="20.75737">
      <stop offset="0" stop-color="#A1A8AF"></stop>
      <stop offset="0.99830264" stop-color="#242B4A"></stop>
      <stop offset="1" stop-color="#000417"></stop>
    </linearGradient>
  </defs>
  <path fill="url(#gradient_0)" transform="matrix(1.59674 0 0 1.59674 443.632 175.82)" d="M-53.7932 -8.87113C-40.7768 -26.7335 26.3506 -14.7462 26.3506 -14.7462L53.5854 -9.77639L68.6389 10.0869L-57 14.5C-57 14.5 -53.7932 -8.87113 -53.7932 -8.87113Z"></path>
  <path fill="none" stroke="black" stroke-width="7" stroke-linejoin="round" transform="matrix(1.00146 0 0 1.00146 343 256)" d="M261.175 -53.6657C245.89 -88.978 228.252 -111.53 178.967 -116.308C158.998 -68.4623 135.209 -47.1859 135.209 -47.1859C135.209 -41.5214 137.876 -38.3106 144.829 -38.3106C144.829 -38.3106 228.252 -25.3958 261.175 -53.6657Z"></path>
  <path fill="#828594" transform="matrix(-1.59674 -2.41101e-07 -2.41101e-07 1.59674 589.657 199.394)" d="M-9.33073 1.7923C0.255675 -20.3552 11.318 -34.4995 42.2294 -37.4963C57.7294 -9.48985 69.6738 5.85638 69.6738 5.85638C69.6737 9.40911 68.001 11.4229 63.6402 11.4229C63.6402 11.4229 11.318 19.5229 -9.33073 1.7923Z"></path>
  <path fill="none" stroke="black" stroke-width="7" stroke-linecap="round" stroke-linejoin="round" transform="matrix(1.00146 0 0 1.00146 343 256)" d="M150.491 -115.153C157.654 -114.904 164.338 -114.207 170.572 -113.11"></path>
  <path fill="#7891D9" transform="matrix(1.75232 0.0285905 -0.0289836 1.77642 455.051 281.241)" d="M0.445611 -80.8406C37.5708 -80.8406 80.6032 -59.9373 80.6032 0.062731C80.6032 41.2079 46.7396 76.2788 0.209625 76.2788C-62.1658 76.2788 -84 60.12 -84 -1.90735e-06C-84 -71.2881 -50.2727 -80.8406 0.445611 -80.8406Z"></path>
  <path fill="#99ADE9" transform="matrix(1.34311 0 0 1.34311 400.987 353.187)" d="M0.255657 -0.709961C18.481 -0.659241 32.087 -1.41288 32.3922 50.0799C32.1475 75.5667 24.6249 90.1352 14.1061 89.957C3.58739 89.7788 -5.05042 89.9549 -15.3825 90.1237C-25.7622 90.2199 -33.2891 73.5113 -33.0444 48.0246C-33.6545 -5.67319 -17.9697 -0.760704 0.255657 -0.709961Z"></path>
  <path fill="#99ADE9" transform="matrix(1.46935 0.0239736 -0.0239736 1.46935 455.021 283.079)" d="M0.24998 -81.5196C49.8787 -81.2985 84.5 -60 84.5 1.90735e-06C84.5 41.1452 46.78 74.5 0.25 74.5C-62.1254 74.5 -84 60.12 -84 1.90735e-06C-84 -71.2881 -62.1254 -81.5197 0.24998 -81.5196Z"></path>
  <path fill="#ABBBEC" transform="matrix(0.784709 0.0128031 -0.0147656 0.904991 507.884 248.883)" d="M0.249995 -81.5197C49.8788 -81.2985 84.5 -60 84.5 0C84.5 41.1452 67.1354 74.5 20.6054 74.5C-41.77 74.5 -84 60.12 -84 0C-84 -71.2881 -62.1254 -81.5197 0.249995 -81.5197Z"></path>
  <path fill="#C3CCE6" transform="matrix(0.192776 -0.197383 0.433955 0.423827 530.375 201.321)" d="M11.5671 -77.0972C58.0971 -77.0972 97.5959 -41.1452 97.5959 -1.38082e-05C97.5959 41.1452 73.4188 83.0524 26.8888 83.0524C-35.4866 83.0524 11.8086 60.12 11.8086 -1.50866e-05C11.8086 -41.1452 -34.9629 -77.0972 11.5671 -77.0972Z"></path>
  <path fill="#C3CCE6" transform="matrix(0.192776 -0.197383 0.179346 0.175161 573.646 263.981)" d="M48.93 -79.7643C80.6763 -79.053 77.4946 -42.8889 62.8508 4.00562C48.2069 50.9001 -0.0393867 91.2963 -20.4536 67.7769C-40.8678 44.2576 -16.8141 31.8032 -0.458961 -5.13884C15.8962 -42.0808 17.1838 -80.4755 48.93 -79.7643Z"></path>
  <path fill="#99ADE9" transform="matrix(1.75232 0.0285905 -0.0285905 1.75232 414.662 124.67)" d="M3.8147e-06 -22.5C14.6355 -22.5 26.5 -12.3145 26.5 0.250008C26.5 12.8145 14.6355 23 3.8147e-06 23C-14.6355 23 -26.5 12.8145 -26.5 0.250008C-26.5 -12.3145 -14.6355 -22.5 3.8147e-06 -22.5Z"></path>
  <path fill="#C3CCE6" transform="matrix(-0.162443 -0.555435 0.857234 -0.250708 373.55 128.905)" d="M0 -11.5C14.6355 -11.5 28.0061 -7.98327 28.0061 -1.632C28.0061 4.71927 15.5059 0.400194 0.870357 0.400193C-13.7652 0.400192 -26.766 4.3769 -26.766 -1.97438C-26.766 -8.32565 -14.6355 -11.5 0 -11.5Z"></path>
  <path fill="#999CA8" transform="matrix(1.59674 0 0 1.59674 379.012 145.71)" d="M62.0301 -4.32144C160.708 -3.80839 133.382 106.511 133.382 106.511C124.858 120.697 103.931 125.217 103.931 125.217C99.8122 122.738 97.0384 114.991 97.0384 114.991C97.0384 114.991 92.571 122.978 80.9884 132.097C33.5051 142.01 -40.0389 126.614 -41.66 116.833C-51.8318 89.8804 -42.4754 41.613 -40.0228 35.324C-37.5701 29.0351 -23.4335 12.2991 -23.4335 12.2991L-3.9615 -3.64614C-3.9615 -3.64614 28.6909 8.70725 69.7818 7.76565C67.3158 -2.81973 62.0301 -4.32144 62.0301 -4.32144Z"></path>
  <clipPath id="cl_8">
    <path d="M478.058 138.81C635.621 139.629 591.989 315.781 591.989 315.781C578.377 338.432 544.963 345.65 544.963 345.65C538.386 341.69 533.957 329.321 533.957 329.321C533.957 329.321 526.824 342.074 508.329 356.635C432.511 372.463 315.08 347.88 312.492 332.261C296.25 289.226 311.19 212.155 315.106 202.114C319.022 192.072 341.595 165.349 341.595 165.349L372.686 139.888C372.686 139.888 424.824 159.613 490.435 158.11C486.498 141.208 478.058 138.81 478.058 138.81Z"></path>
  </clipPath>
  <g clip-path="url(#cl_8)">
    <path fill="#686B77" transform="matrix(1.73713 0 0 1.6132 464.313 252.087)" d="M-5.81434 -76.9003C-5.81434 -76.9003 -38.015 -34.4167 -37.875 19.4009C-37.7351 73.2184 27.8948 68.4574 27.8948 68.4574L-79.1489 92.4107L-102.257 16.7671L-83.3847 -74.5391L-5.81434 -76.9003Z"></path>
    <path fill="#BCBFC5" transform="matrix(1.73713 0 0 1.6132 464.313 252.087)" d="M45.4521 -82.9725L93.7889 -50.8112C93.7889 -50.8112 78.8995 -3.97774 47.484 1.7428C16.0685 7.46333 -45.8161 -37.4435 -45.8161 -37.4435L-73.0634 -72.0992L45.4521 -82.9725Z"></path>
    <path fill="#DADDE0" transform="matrix(1.73713 0 0 1.6132 493.055 134.726)" d="M33.8967 14.5768L59.8776 19.1892C59.8776 19.1892 48.6614 51.4509 28.5602 52.2698C8.45895 53.0887 -29.101 32.4093 -29.101 32.4093C-29.101 32.4093 17.1176 36.5863 22.2728 36.8407C27.4281 37.0951 33.8967 14.5768 33.8967 14.5768Z"></path>
    <path fill="none" stroke="#494B53" stroke-width="1" stroke-linejoin="round" transform="matrix(1.73713 0 0 1.6132 427.023 252.145)" d="M59.9289 52.7444C57.3564 60.3316 54.1158 68.2952 50.1158 76.6343C16.1594 77.1498 -25.2378 65.559 -25.2378 65.559C-34.9636 44.2166 -33.6264 3.12165 -31.9909 -19.2678"></path>
    <path fill="none" stroke="#898FA2" stroke-width="1" stroke-linejoin="round" transform="matrix(1.73713 0 0 1.6132 427.023 252.145)" d="M-52.5751 -90.6465C-52.5751 -90.6465 29.9049 -60.6268 29.9049 -60.6268C47.3122 -58.4025 83.4637 -21.4663 61.0933 49.1929"></path>
  </g>
  <defs>
    <linearGradient id="gradient_1" gradientUnits="userSpaceOnUse" x1="-60.30225" y1="-15.24908" x2="-29.287821" y2="-15.24908">
      <stop offset="0" stop-color="#42444C"></stop>
      <stop offset="0.99602401" stop-color="#161823"></stop>
      <stop offset="1" stop-color="black"></stop>
    </linearGradient>
  </defs>
  <path fill="url(#gradient_1)" transform="matrix(2.01476 0 0 1.59674 469.08 248.893)" d="M-58.1232 -38.8393C-54.5001 -50.2495 -36.6337 -48.5811 -31.9012 -38.5612C-27.1688 -28.5414 -29.2878 -16.904 -29.2878 -16.904C-37.342 10.4732 -59.3233 2.22359 -60.3022 -21.2052C-60.3022 -21.2052 -61.7464 -27.4291 -58.1232 -38.8393Z"></path>
  <path fill="#99ADE9" transform="matrix(0.590878 0.00964063 -0.00964063 0.590878 388.683 92.8093)" d="M4.23752e-08 -22.5C14.6355 -22.5 26.5 -12.3145 26.5 0.25C26.5 12.8145 14.6355 23 -4.23752e-08 23C-14.6355 23 -26.5 12.8145 -26.5 0.25C-26.5 -12.3145 -14.6355 -22.5 4.23752e-08 -22.5Z"></path>
  <path fill="#99ADE9" transform="matrix(0.491629 0.00802131 -0.00802131 0.491629 373.64 103.225)" d="M-7.62939e-06 -22.5C14.6355 -22.5 26.5 -12.3144 26.5 0.250031C26.5 12.8145 14.6355 23 -7.62939e-06 23C-14.6356 23 -26.5 12.8145 -26.5 0.250031C-26.5 -12.3144 -14.6356 -22.5 -7.62939e-06 -22.5Z"></path>
  <path fill="#99ADE9" transform="matrix(0.267049 0.00435711 -0.00435711 0.267049 355.268 71.3024)" d="M7.62939e-06 -22.4261C14.2962 -22.4261 25.8855 -12.274 25.8855 0.249329C25.8855 12.7726 14.2962 22.9247 7.62939e-06 22.9247C-14.2962 22.9247 -25.8855 12.7726 -25.8855 0.249329C-25.8855 -12.274 -14.2962 -22.4261 7.62939e-06 -22.4261Z"></path>
  <path fill="#C3CCE6" transform="matrix(0.0718703 -0.111803 0.256925 0.165159 351.608 68.7708)" d="M0 -11.5C14.6355 -11.5 28.0061 -7.98325 28.0061 -1.63198C28.0061 4.7193 15.5059 0.400216 0.870357 0.400216C-13.7652 0.400215 -26.766 4.37692 -26.766 -1.97436C-26.766 -8.32563 -14.6355 -11.5 0 -11.5Z"></path>
  <path fill="#303E64" transform="matrix(1.7396 -0.212721 0.0638164 0.521879 426.357 102.154)" d="M9.31323e-09 -2.5C1.38071 -2.5 2.5 -1.38071 2.5 0C2.5 1.38071 1.38071 2.5 -9.31323e-09 2.5C-1.38071 2.5 -2.5 1.38071 -2.5 0C-2.5 -1.38071 -1.38071 -2.5 9.31323e-09 -2.5Z"></path>
  <path fill="none" stroke="#303E64" stroke-width="0.5" stroke-linecap="round" stroke-linejoin="round" transform="matrix(1.7359 -0.241072 0.241072 1.7359 434.772 101.072)" d="M1.98547 0.277989C2.99638 0.254555 6.02908 0.184252 6.02908 0.184252"></path>
  <path fill="#303E64" transform="matrix(1.7396 -0.212721 0.0638164 0.521879 454.19 98.7507)" d="M9.31323e-09 -2.5C1.38071 -2.5 2.5 -1.38071 2.5 0C2.5 1.38071 1.38071 2.5 -9.31323e-09 2.5C-1.38071 2.5 -2.5 1.38071 -2.5 0C-2.5 -1.38071 -1.38071 -2.5 9.31323e-09 -2.5Z"></path>
  <path fill="#475B92" transform="matrix(1.42645 -0.861678 0.905069 0.706104 446.184 92.0014)" d="M7.62939e-06 -2.5C1.38072 -2.5 2.50001 -1.38071 2.50001 0C2.50001 1.38071 1.38072 2.5 7.62939e-06 2.5C-1.3807 2.5 -2.49999 1.38071 -2.49999 0C-2.49999 -1.38071 -1.3807 -2.5 7.62939e-06 -2.5Z"></path>
  <path fill="#475B92" transform="matrix(2.10554 0.289111 -0.613236 1.04501 430.633 92.9162)" d="M1.90735e-06 -2.98532C1.68306 -2.98532 3.04744 -1.64874 3.04744 1.52588e-05C3.04744 1.64877 1.68306 2.98535 1.90735e-06 2.98535C-1.68305 2.98535 -3.04744 1.64877 -3.04744 1.52588e-05C-3.04744 -1.64874 -1.68305 -2.98532 1.90735e-06 -2.98532Z"></path>
  <path fill="none" stroke="#181818" stroke-width="7" stroke-linecap="round" stroke-linejoin="round" transform="matrix(2.09669 0 0 2.07948 341.897 291.353)" d="M26.7369 -28.6124C28.1704 -22.7619 29.819 -13.6018 29.4019 1.02083C28.5609 29.891 22.8427 53.5494 -2.40341 52.2154C-18.2474 51.2766 -28.4685 28.203 -27.6278 -0.653957C-27.2198 -23.7678 -17.1278 -43.9955 -5.30892 -53.9396"></path>
  <path fill="none" stroke="black" stroke-width="7" stroke-linejoin="round" transform="matrix(1.00146 0 0 1.00146 343 256)" d="M-0.854153 -39.2832C-23.6825 -40.3258 -48.2948 -44.7545 -62.929 -57.3206C-50.799 -94.9827 -10.5594 -122.969 19.2795 -118.842C20.6119 -109.627 23.1036 -101.412 26.2488 -94.1585"></path>
  <path fill="#7891D9" transform="matrix(2.09669 0 0 2.07948 341.897 291.353)" d="M14.3849 -59.8002C17.9417 -55.4544 24.7037 -40.585 24.8271 -36.6593C24.9506 -32.7337 30.1042 -23.599 29.4019 1.02083C28.5609 29.891 22.8427 53.5494 -2.40341 52.2154C-18.2474 51.2766 -28.4685 28.203 -27.6278 -0.653957C-26.9959 -36.4458 -3.14337 -65.3173 14.3849 -59.8002Z"></path>
  <path fill="#99ADE9" transform="matrix(1.63266 0 0 2.03602 345.781 285.791)" d="M15.3624 -53.3684C37.5306 -53.3725 30.1406 -28.7887 28.9648 -0.348016C28.1211 28.2587 18.2755 51.6251 2.82678 52.175C-12.622 52.7249 -26.8234 29.3097 -27.6185 0.604909C-28.091 -28.3458 -6.80583 -53.3642 15.3624 -53.3684Z"></path>
  <path fill="#999696" transform="matrix(1.59674 0 0 1.59674 294.878 195.734)" d="M-9.33073 1.7923C0.255677 -20.3552 11.318 -34.4995 42.2294 -37.4964C57.7294 -9.48986 69.6738 5.85638 69.6738 5.85638C69.6737 9.4091 68.001 11.4229 63.6402 11.4229C63.6402 11.4229 11.318 19.5229 -9.33073 1.7923Z"></path>
  <path fill="#828594" transform="matrix(1.59674 0 0 1.59674 294.878 195.734)" d="M-9.33073 1.7923C0.255677 -20.3552 11.318 -34.4995 42.2294 -37.4964C57.7294 -9.48986 69.6738 5.85638 69.6738 5.85638C69.6737 9.4091 68.001 11.4229 63.6402 11.4229C63.6402 11.4229 11.318 19.5229 -9.33073 1.7923Z"></path>
  <clipPath id="cl_c">
    <path d="M279.979 198.596C295.286 163.232 312.95 140.647 362.307 135.862C387.057 180.581 406.129 205.085 406.129 205.085C406.129 210.758 403.458 213.973 396.495 213.973C396.495 213.973 312.95 226.907 279.979 198.596Z"></path>
  </clipPath>
  <g clip-path="url(#cl_c)">
    <path fill="#686B77" transform="matrix(1.59674 0 0 1.59674 294.878 195.734)" d="M-18.5853 15.5755L-13.4615 -44.4622C-13.4615 -44.4622 70.2014 -44.8305 70.2014 -44.8305C29.0482 -45.0949 3.69742 17.5905 3.69742 17.5905L-18.5853 15.5755Z"></path>
  </g>
  <path fill="#42444C" transform="matrix(1.59674 0 0 1.59674 294.878 195.734)" d="M-9.33072 -5.18064C-9.33072 -5.18064 -8.34054 -14.2229 2.12125 -18.7125C16.6016 -6.18101 67.6134 6.22991 67.6134 6.22991L66.536 9.4091C66.536 9.4091 1.13099 9.26386 -9.33072 -5.18064Z"></path>
  <path fill="#4B4949" transform="matrix(1.59674 0 0 1.59674 402.839 209.773)" d="M0 -12C6.90356 -12 12.5 -6.62742 12.5 0C12.5 6.62742 6.90356 12 0 12C-6.90356 12 -12.5 6.62742 -12.5 0C-12.5 -6.62742 -6.90356 -12 0 -12Z"></path>
  <path fill="#827A7A" transform="matrix(1.59674 0 0 1.59674 407.629 211.37)" d="M0 -12C6.90356 -12 12.5 -6.62742 12.5 -1.90735e-06C12.5 6.62742 6.90356 12 0 12C-6.90356 12 -12.5 6.62742 -12.5 -1.90735e-06C-12.5 -6.62742 -6.90356 -12 0 -12Z"></path>
  <path fill="none" stroke="white" stroke-width="5" stroke-linecap="round" stroke-linejoin="round" transform="matrix(1.50219 0 0 1.50219 258.877 362.655)" d=""></path>
  <path fill="none" stroke="white" stroke-width="5" stroke-linecap="round" stroke-linejoin="round" transform="matrix(1.11139 0 0 1.11139 243.355 245.985)" d=""></path>
</svg>