<?xml version="1.0" encoding="utf-8"?>
<svg xmlns="http://www.w3.org/2000/svg" xmlns:xlink="http://www.w3.org/1999/xlink" width="686" height="512">
  <path fill="none" stroke="black" stroke-width="6" stroke-linejoin="round" transform="matrix(1.70248 0 0 1.44029 567.099 179.773)" d="M-12.9438 -16.9737C-9.2896 -16.9737 -6.63603 -16.9737 -3.2142 -16.9737C3.85004 -16.9737 11.0107 -12.9707 11.0107 2.73135C11.0107 18.4334 11.0107 47.7067 11.0107 56.4808C11.0107 99.4374 -52.4893 99.3952 -52.4893 56.4387C-52.4893 45.6553 -52.4893 25.833 -52.4893 13.3474C-52.4893 0.861706 -46.228 -16.9737 -30.1482 -16.9737C-28.9445 -16.9737 -27.8096 -16.9737 -26.7371 -16.9737"></path>
  <path fill="none" stroke="black" stroke-width="6" stroke-linejoin="round" transform="matrix(1.70248 0 0 1.55154 567.099 257.563)" d="M-52.4886 0.0848538C-52.623 -42.5374 10.8768 -42.7376 11.0112 -0.115283C11.0645 16.8043 11.1535 45.0294 11.2088 62.564C11.2282 68.7248 2.75394 80.0671 -20.4852 80.4108C-43.7244 80.7546 -52.2687 69.8604 -52.2838 65.0584C-52.3394 47.4211 -52.4493 12.5712 -52.4886 0.0848538Z"></path>
  <path fill="#503F7E" transform="matrix(1.70248 0 0 1.44029 567.099 179.773)" d="M-52.4893 13.3474C-52.4893 0.861706 -46.228 -16.9737 -30.1482 -16.9737C-14.0684 -16.9737 -10.2784 -16.9737 -3.2142 -16.9737C3.85004 -16.9737 11.0107 -12.9707 11.0107 2.73135C11.0107 18.4334 11.0107 47.7067 11.0107 56.4809C11.0107 99.4374 -52.4893 99.3952 -52.4893 56.4387C-52.4893 45.6553 -52.4893 25.833 -52.4893 13.3474Z"></path>
  <path fill="#503F7E" transform="matrix(1.70248 0 0 1.55154 567.099 257.563)" d="M-52.4886 0.0848526C-52.623 -42.5375 10.8768 -42.7376 11.0112 -0.115284C11.0645 16.8043 11.1535 45.0294 11.2088 62.564C11.2282 68.7248 2.75394 80.0671 -20.4852 80.4108C-43.7244 80.7546 -52.2687 69.8604 -52.2838 65.0584C-52.3394 47.4211 -52.4493 12.5711 -52.4886 0.0848526Z"></path>
  <path fill="none" stroke="black" stroke-width="5" stroke-linejoin="round" transform="matrix(1.58884 0 0 1.70248 482.401 356.274)" d="M3.2486 -15.6843C21.4654 -15.1617 34.2677 -10.6205 32.7075 36.7461C32.6825 50.8532 36.3525 66.1191 21.075 74.6392C9.51464 74.2177 -3.42916 74.6557 -19.8776 73.9225C-30.4244 64.7914 -30.4432 50.8531 -30.4432 34.0309C-29.5285 -12.4507 -14.9682 -16.207 3.2486 -15.6843Z"></path>
  <path fill="#453279" transform="matrix(1.58884 0 0 1.70248 482.401 356.274)" d="M3.2486 -15.6843C21.4654 -15.1617 34.2677 -10.6205 32.7075 36.7461C32.6825 50.8532 36.3525 66.1191 21.075 74.6392C9.51464 74.2177 -3.42916 74.6557 -19.8776 73.9225C-30.4244 64.7914 -30.4432 50.8531 -30.4432 34.0309C-29.5285 -12.4507 -14.9682 -16.207 3.2486 -15.6843Z"></path>
  <path fill="none" stroke="black" stroke-width="5" stroke-linejoin="round" transform="matrix(1.58884 0 0 1.70248 408.748 362.548)" d="M-0.0200195 -14.3434C18.2054 -14.3653 31.226 -10.1701 31.2229 37.2187C31.837 56.0952 34.5794 69.0808 19.0958 75.6705C3.62161 76.0217 -7.06572 76.2142 -21.9017 75.8544C-36.7283 69.2561 -32.12 52.8085 -31.9872 36.3121C-32.6002 -10.1738 -18.2454 -14.3214 -0.0200195 -14.3434Z"></path>
  <path fill="none" stroke="black" stroke-width="5" stroke-linejoin="round" transform="matrix(1.70226 0.0261988 -0.0277736 1.60574 487.3 283.869)" d="M-11.3238 -80.2543C25.8014 -80.2543 54.9476 -94.6926 58.9092 -40.8672C62.8708 12.9582 37.0524 74.7499 0.0572919 75.3534C-14.1177 75.5847 -17.7665 75.6442 -48.2096 76.1409C-78.6526 76.6376 -84.25 60.12 -84.25 0C-86.6294 -86.0849 -88.6034 -78.4854 -12.7475 -80.2208"></path>
  <path fill="#503F7E" transform="matrix(1.58884 0 0 1.70248 408.748 362.548)" d="M-0.0200195 -14.3434C18.2054 -14.3653 31.226 -10.1701 31.2229 37.2187C31.837 56.0952 34.5794 69.0808 19.0958 75.6705C3.62161 76.0217 -7.06572 76.2142 -21.9017 75.8544C-36.7283 69.2561 -32.12 52.8085 -31.9872 36.3121C-32.6002 -10.1738 -18.2454 -14.3214 -0.0200195 -14.3434Z"></path>
  <path fill="none" stroke="#010101" stroke-width="5" stroke-linejoin="round" transform="matrix(1.44842 0 0 1.31786 442.184 138.15)" d="M0 -40C20.9426 -40 35.0096 -26.8589 47.8597 -2.20018C49.1253 -3.81499 50.3123 -3.57653 51.1974 -3.11682C52.0824 -2.65711 52.5509 -1.60562 52.2206 -0.665342C53.8523 0.0631991 55.2854 1.47333 55.8775 2.67698C56.9197 4.79566 57.6743 10.5072 53.7931 11.8212C58.5977 31.9882 20.3682 22.0914 -1.32962e-05 22.0914C-20.2357 22.0914 -45.0732 28.3281 -41.8836 12.9784C-44.6787 11.8212 -48.2008 8.95144 -46.5316 4.29175C-45.7036 1.98006 -43.8185 0.567089 -42.3936 0.566997C-41.0392 0.56691 -42.9934 -2.2 -40.2188 -3.81491C-39.0195 -4.51291 -37.7273 -4.43211 -36.6068 -4.12355C-28.0141 -23.7311 -20.4124 -40 0 -40Z"></path>
  <path fill="#503F7E" transform="matrix(1.70226 0.0261988 -0.0277736 1.60574 487.3 283.869)" d="M-11.3238 -80.2543C25.8014 -80.2543 54.9476 -94.6926 58.9092 -40.8672C62.8708 12.9582 37.0524 74.7499 0.0572919 75.3534C-14.1177 75.5847 -17.7665 75.6442 -48.2096 76.1409C-78.6526 76.6376 -84.25 60.12 -84.25 0C-86.6442 -86.62 -88.6279 -78.3873 -11.3238 -80.2543Z"></path>
  <clipPath id="cl_183">
    <path d="M470.253 154.705C533.45 155.677 583.465 133.257 588.714 219.79C593.962 306.323 548.297 404.868 485.305 404.868C461.169 404.868 454.956 404.868 403.12 404.868C351.285 404.868 342.215 378.198 343.885 281.661C342.215 142.51 338.61 155.677 470.253 154.705Z"></path>
  </clipPath>
  <g clip-path="url(#cl_183)">
    <path fill="#655494" transform="matrix(1.70248 0 0 1.70248 522.414 266.919)" d="M-0.158638 -48.2656C25.513 -48.2656 46.324 -26.6563 46.324 4.76837e-07C46.324 26.6563 25.513 48.2656 -0.158638 48.2656C-25.8303 48.2656 -46.6413 26.6563 -46.6413 4.76837e-07C-46.6413 -26.6563 -25.8303 -48.2656 -0.158638 -48.2656Z"></path>
  </g>
  <path fill="none" stroke="#010101" stroke-width="2" stroke-linejoin="round" transform="matrix(3.67759 -0.721864 0.653943 3.33157 448.615 64.1411)" d="M-4.34758 -5.25471C-4.34758 -11.5047 3.66088 -11.5047 3.66088 -5.25472C3.66088 0.995284 3.66088 12.5 3.66088 12.5L-4.57314 12.5C-4.57314 12.5 -4.34758 0.995284 -4.34758 -5.25471Z"></path>
  <path fill="none" stroke="#010101" stroke-width="2" stroke-linejoin="round" transform="matrix(3.33157 -0.653943 0.653943 3.33157 416.261 69.2607)" d="M-5.16451 -6.50116C-5.16451 -12.7512 6 -12.7512 6 -6.50116C6 -0.251162 6 12.5 6 12.5L-6 12.5C-6 12.5 -5.16451 -0.251163 -5.16451 -6.50116Z"></path>
  <path fill="#453279" transform="matrix(3.67759 -0.721864 0.653943 3.33157 448.615 64.1411)" d="M-4.34758 -5.25471C-4.34758 -11.5047 3.66088 -11.5047 3.66088 -5.25472C3.66088 0.995284 3.66088 12.5 3.66088 12.5L-4.57314 12.5C-4.57314 12.5 -4.34758 0.995284 -4.34758 -5.25471Z"></path>
  <path fill="none" stroke="#161616" stroke-width="0.5" stroke-linecap="round" stroke-linejoin="round" transform="matrix(3.67759 -0.721864 0.653943 3.33157 444.082 45.6676)" d="M4.54547e-06 1.51652L3.83069e-06 10.5382"></path>
  <path fill="#503F7E" transform="matrix(3.33157 -0.653943 0.653943 3.33157 416.261 69.2607)" d="M-5.16451 -6.50116C-5.16451 -12.7512 6 -12.7512 6 -6.50116C6 -0.251162 6 12.5 6 12.5L-6 12.5C-6 12.5 -5.16451 -0.251163 -5.16451 -6.50116Z"></path>
  <path fill="none" stroke="#161616" stroke-width="0.5" stroke-linecap="round" stroke-linejoin="round" transform="matrix(3.33157 -0.653943 0.653943 3.33157 416.464 50.3267)" d="M1.85391e-08 3.8412e-06L3.83324e-06 10.5382"></path>
  <path fill="none" stroke="#010101" stroke-width="7" stroke-linejoin="round" transform="matrix(1.00146 0 0 1.00146 343 256)" d="M-149.014 158.735L-50.636 144.778C-50.636 144.778 -64.3589 77.5602 -109 85.1971C-111.349 85.5991 -113.376 86.5291 -115.165 87.8151C-115.992 95.8874 -118.588 111.291 -141.323 112.634C-150.815 133.786 -149.014 158.735 -149.014 158.735Z"></path>
  <path fill="none" stroke="#010101" stroke-width="7" stroke-miterlimit="4" transform="matrix(1.00146 0 0 1.00146 343 256)" d="M-108.131 78.0833C-103.483 77.424 -99.1805 80.6573 -98.5211 85.3052C-97.8617 89.953 -101.095 94.2554 -105.743 94.9148C-110.391 95.5742 -114.693 92.3409 -115.353 87.693C-116.012 83.0451 -112.779 78.7427 -108.131 78.0833Z"></path>
  <path fill="#E3CEC2" transform="matrix(0.526751 -0.0747291 0.0747291 0.526751 235.907 342.625)" d="M-3.05176e-05 -16C8.83652 -16 16 -8.83654 16 1.52588e-05C16 8.83657 8.83652 16 -3.05176e-05 16C-8.83659 16 -16 8.83657 -16 1.52588e-05C-16 -8.83654 -8.83659 -16 -3.05176e-05 -16Z"></path>
  <path fill="#8D5A3E" transform="matrix(0.526751 -0.0747291 0.0747291 0.526751 186.697 415.97)" d="M13.4248 0L200.462 -3.05176e-05C200.462 -3.05176e-05 192.659 -128.902 107.443 -126.472C102.958 -126.344 98.9355 -125.146 95.2612 -123.223C91.5849 -108.397 82.6739 -80.3767 39.9489 -83.8848C16.6664 -46.9736 13.4248 0 13.4248 0Z"></path>
  <path fill="#4A4848" transform="matrix(0.477162 -0.067694 0.0215722 0.152058 241.891 398.066)" d="M-1.56928e-05 -116.5C64.3412 -116.5 116.5 -64.3413 116.5 -0.00012207C116.5 64.3411 64.3412 116.5 -1.48248e-05 116.5C-64.3412 116.5 -116.5 64.3411 -116.5 -0.00012207C-116.5 -64.3413 -64.3412 -116.5 -1.56928e-05 -116.5Z"></path>
  <path fill="none" stroke="#010101" stroke-width="7" stroke-miterlimit="4" transform="matrix(1.00146 0 0 1.00146 343 256)" d="M-102.335 134.068C-68.4923 129.266 -39.9341 133.294 -38.5481 143.063C-37.1622 152.833 -63.4733 164.644 -97.3157 169.445C-131.158 174.247 -159.716 170.219 -161.102 160.45C-162.488 150.68 -136.177 138.869 -102.335 134.068Z"></path>
  <path fill="#C9B1AA" transform="matrix(0.526751 -0.0747291 0.0215722 0.152058 243.029 407.978)" d="M-0.519163 93.3573C63.822 93.3573 81.6546 -40.5054 116.5 0C116.333 7.78602 114.666 35.3784 103.443 64.6424C92.2186 93.9064 32.9112 142.08 1.25538 142.08C-34.5183 142.08 -86.5851 95.3331 -99.0913 78.9829C-111.597 62.6327 -116.509 26.4158 -116.5 0C-66.3811 -27.319 -64.8603 93.3573 -0.519163 93.3573Z"></path>
  <path fill="#65524C" transform="matrix(0.422841 -0.0599876 0.0173167 0.122062 243.029 407.978)" d="M-3.05176e-05 -116.5C64.3411 -116.5 116.5 -64.3411 116.5 0.000125542C116.5 64.3413 64.3411 116.5 -3.05176e-05 116.5C-64.3412 116.5 -116.5 64.3413 -116.5 0.000118598C-116.5 -64.3411 -64.3412 -116.5 -3.05176e-05 -116.5Z"></path>
  <clipPath id="cl_184">
    <path d="M241.012 393.758C268.218 389.898 291.176 393.136 292.29 400.989C293.404 408.843 272.253 418.339 245.046 422.198C217.84 426.058 194.882 422.82 193.768 414.967C192.654 407.113 213.806 397.617 241.012 393.758Z"></path>
  </clipPath>
  <g clip-path="url(#cl_184)">
    <path fill="#857069" transform="matrix(1.69198 -0.240038 0.240038 1.69198 203.274 398.572)" d="M6.3453 -18.4774C15.1819 -18.4774 19.9785 -8.83656 25.4977 -1.49012e-07C40.8822 25.7165 8.83656 21.8364 -1.2219e-06 19.1869C-8.83656 16.5373 -16 8.83656 -16 0C-16 -8.83656 -2.49126 -18.4774 6.3453 -18.4774Z"></path>
  </g>
  <clipPath id="cl_185">
    <path d="M193.768 414.967L292.29 400.989C292.29 400.989 278.547 333.673 233.841 341.321C231.488 341.724 229.459 342.655 227.667 343.943C226.839 352.027 224.239 367.453 201.471 368.798C191.965 389.981 193.768 414.967 193.768 414.967Z"></path>
  </clipPath>
  <g clip-path="url(#cl_185)">
    <path fill="#65524C" transform="matrix(0.645476 -0.0915723 0.0561954 0.396111 214.759 350.376)" d="M0 -50.5C11.1423 -50.5 26.7229 -45.7372 27.5442 -33.3093C28.6357 -16.7925 29.2617 -6.93543 29.2617 5.94992C29.2617 33.8403 20.7107 50.5 0 50.5C-20.7107 50.5 -29.0363 45.6072 -29.0363 17.7168C-29.0363 -10.1736 -20.7107 -50.5 0 -50.5Z"></path>
    <path fill="#714035" transform="matrix(0.282525 -0.239439 0.239439 0.282525 261.851 355.935)" d="M-46.3834 -19.9076C-36.9946 -19.9076 -29.3834 -27.5187 -29.3834 -36.9076L29.3835 -36.9076C29.3835 -27.5187 36.9946 -19.9076 46.3835 -19.9076L46.3835 19.9076C36.9946 19.9076 29.3835 27.5188 29.3835 36.9076L-29.3834 36.9076C-29.3834 27.5188 -36.9946 19.9076 -46.3834 19.9076L-46.3834 -19.9076Z"></path>
  </g>
  <clipPath id="cl_187">
    <path d="M211.921 330.372C219.114 329.352 229.438 329.812 230.667 334.659C232.299 341.102 233.257 344.949 233.981 350.053C235.549 361.101 230.965 368.483 217.597 370.379C204.229 372.276 198.58 371.1 197.013 360.053C195.445 349.005 198.553 332.269 211.921 330.372Z"></path>
  </clipPath>
  <g clip-path="url(#cl_187)">
    <clipPath id="cl_188">
      <path d="M193.768 414.967L292.29 400.989C292.29 400.989 278.547 333.673 233.841 341.321C231.488 341.724 229.459 342.655 227.667 343.943C226.839 352.027 224.239 367.453 201.471 368.798C191.965 389.981 193.768 414.967 193.768 414.967Z"></path>
    </clipPath>
    <g clip-path="url(#cl_188)">
      <path fill="#857069" transform="matrix(1.69198 -0.240038 0.240038 1.69198 199.162 371.482)" d="M-2.38419e-07 -16C8.83656 -16 12.0102 -8.83655 16.201 6.17346e-06C20.3918 8.83656 8.83656 16 2.38419e-07 16C-8.83656 16 -16 8.83656 -16 7.86781e-06C-16 -8.83655 -8.83656 -16 -2.38419e-07 -16Z"></path>
    </g>
  </g>
  <path fill="none" stroke="#010101" stroke-width="7" stroke-linejoin="round" transform="matrix(1.00146 0 0 1.00146 343 256)" d="M-161.102 160.45C-162.554 150.216 -159.629 147.423 -159.629 147.423C-156.8 143.436 -153.319 140.037 -148.668 137.1"></path>
  <path fill="none" stroke="#010101" stroke-width="7" stroke-linejoin="round" transform="matrix(1.00146 0 0 1.00146 343 256)" d="M-56.7761 123.944C-49.9777 125.564 -45.167 128.152 -42.3283 131.527C-42.3283 131.527 -38.1826 134.761 -38.4282 141.573"></path>
  <path fill="#503F7E" transform="matrix(1.44842 0 0 1.31786 442.184 138.15)" d="M0 -40C20.9426 -40 35.0096 -26.8589 47.8597 -2.20018C49.1253 -3.81499 50.3123 -3.57653 51.1974 -3.11682C52.0824 -2.65711 52.5509 -1.60562 52.2206 -0.665342C53.8523 0.0631991 55.2854 1.47333 55.8775 2.67698C56.9197 4.79566 57.6743 10.5072 53.7931 11.8212C58.5977 31.9882 20.3682 22.0914 -1.32962e-05 22.0914C-20.2357 22.0914 -45.0732 28.3281 -41.8836 12.9784C-44.6787 11.8212 -48.2008 8.95144 -46.5316 4.29175C-45.7036 1.98006 -43.8185 0.567089 -42.3936 0.566997C-41.0392 0.56691 -42.9934 -2.2 -40.2188 -3.81491C-39.0195 -4.51291 -37.7273 -4.43211 -36.6068 -4.12355C-28.0141 -23.7311 -20.4124 -40 0 -40Z"></path>
  <path fill="#E3CEC2" transform="matrix(0.526751 -0.0747291 0.0747291 0.526751 181.663 416.684)" d="M0 0C0 -19.4564 6.19049 -23.8887 6.19049 -23.8887C25.0053 -43.7609 53.1913 -52.4203 117 -52.4203C180.809 -52.4203 217.711 -40.5795 229.005 -22.5C229.005 -22.5 236.876 -14.3389 233 0C233 0 222.592 -33.1383 117.06 -33.1383C11.5269 -33.1383 0 0 0 0Z"></path>
  <path fill="#C9B1AA" transform="matrix(0.526751 -0.0747291 0.0215722 0.152058 243.029 407.978)" d="M-4.33996e-07 -116.5C64.3412 -116.5 116.5 -64.3412 116.5 0C116.333 7.78602 114.079 -0.846931 92.5947 -2.56885C90.1363 -68.6432 33.7083 -93.0964 2.0524 -93.0964C-33.7213 -93.0964 -91.7603 -68.5196 -92.7458 3.01566C-107.568 13.6071 -116.5 28.5675 -116.5 0C-116.5 -64.3412 -64.3412 -116.5 -4.33996e-07 -116.5Z"></path>
  <clipPath id="cl_18b">
    <path d="M442.184 85.4358C472.518 85.4358 492.893 102.754 511.505 135.251C513.338 133.122 515.058 133.437 516.34 134.043C517.622 134.648 518.3 136.034 517.822 137.273C520.185 138.233 522.261 140.092 523.118 141.678C524.628 144.47 525.721 151.997 520.099 153.729C527.058 180.306 471.686 167.263 442.184 167.263C412.874 167.263 376.899 175.482 381.519 155.254C377.471 153.729 372.369 149.947 374.787 143.806C375.986 140.76 378.717 138.897 380.781 138.897C382.742 138.897 379.912 135.251 383.931 133.123C385.668 132.203 387.539 132.309 389.162 132.716C401.608 106.876 412.619 85.4358 442.184 85.4358Z"></path>
  </clipPath>
  <g clip-path="url(#cl_18b)">
    <path fill="#7463A5" transform="matrix(1.70248 0 0.00718207 1.70248 439.095 123.828)" d="M3.81202e-06 -5.5C3.866 -5.5 7 -2.92564 7 0.25C7 3.42564 3.866 6 3.81737e-06 6C-3.86599 6 -7 3.42564 -7 0.25C-7 -2.92564 -3.86599 -5.5 3.81202e-06 -5.5Z"></path>
    <path fill="#7463A5" transform="matrix(1.7367 0 0.00718207 1.70248 488.797 116.123)" d="M-7.62695e-06 -5C2.76142 -5 4.99999 -2.6495 4.99999 0.25C4.99999 3.1495 2.76142 5.5 -7.63184e-06 5.5C-2.76143 5.5 -5.00001 3.1495 -5.00001 0.25C-5.00001 -2.6495 -2.76143 -5 -7.62695e-06 -5Z"></path>
    <path fill="none" stroke="#131212" stroke-width="1" stroke-linecap="round" stroke-linejoin="round" transform="matrix(2.182 -0.353477 0.259285 1.60056 468.208 109.79)" d="M4.88246e-07 -4.14104e-07L2.92891 -0.714567"></path>
    <path fill="none" stroke="#131212" stroke-width="1" stroke-linecap="round" stroke-linejoin="round" transform="matrix(2.182 -0.353477 0.259285 1.60056 447.635 109.005)" d="M0 -1.48459e-07L4.25731 1.79213"></path>
    <path fill="#131212" transform="matrix(2.33716 -0.378612 0.383771 2.36901 460.673 111.947)" d="M3.3151e-06 -2.15485e-07L1.96141 0.352738L0.915093 1.42246L3.3151e-06 -2.15485e-07Z"></path>
    <path fill="none" stroke="#131212" stroke-width="0.5" stroke-linecap="round" stroke-linejoin="round" transform="matrix(1.83262 -0.296878 0.300923 1.85759 463.567 115.291)" d="M1.0783e-07 -0.711224L-3.70687e-06 1.1102"></path>
    <path fill="#32225E" transform="matrix(1.64843 0.417573 -0.40107 1.65095 457.692 104.507)" d="M-3.75726e-06 -1.92716C1.6285 -1.92716 2.94867 -1.06434 2.94867 4.39386e-08C2.94867 1.06434 1.6285 1.92716 -3.87213e-06 1.92716C-1.62851 1.92716 -2.94867 1.06434 -2.94867 -4.39386e-08C-2.94867 -1.06434 -1.62851 -1.92716 -3.75726e-06 -1.92716Z"></path>
    <path fill="#32225E" transform="matrix(1.61937 0.410211 -0.390122 1.60588 468.278 103.68)" d="M-3.843e-06 -1.89919C0.889985 -1.89919 1.61146 -1.04889 1.61146 -2.40127e-08C1.61146 1.04889 0.889985 1.89919 -3.7864e-06 1.89919C-0.889993 1.89919 -1.61147 1.04889 -1.61147 2.40127e-08C-1.61147 -1.04889 -0.889993 -1.89919 -3.843e-06 -1.89919Z"></path>
  </g>
  <path fill="none" stroke="black" stroke-width="4" stroke-linejoin="round" transform="matrix(1.70248 0 0 1.70248 560.579 174.984)" d="M-11.7479 -12.9046C-11.318 -13.5165 -10.7601 -14.1187 -10.0572 -14.7065C-5.4735 -18.5399 3.93805 -16.1165 4.43082 -14.7065C7.46665 -16.1165 10.8961 -16.6614 15.0174 -13.9738C19.1387 -11.2862 16.2386 -4.86794 16.6118 -4.55445C16.985 -4.24095 25.2116 0.494539 17.5976 8.33765C16.6439 8.92035 15.7365 9.39702 14.8736 9.77867"></path>
  <path fill="#7463A5" transform="matrix(1.70248 0 0 1.70248 560.579 174.984)" d="M-0.116447 -3.8147e-06C-2.60164 -0.663944 -7.05858 1.11792 -10.0572 -2.65577C-13.0559 -6.42945 -14.6409 -10.8732 -10.0572 -14.7065C-5.4735 -18.5399 3.93805 -16.1165 4.43082 -14.7065C7.46665 -16.1165 10.8961 -16.6614 15.0174 -13.9738C19.1387 -11.2862 16.2386 -4.86794 16.6118 -4.55445C16.985 -4.24095 25.2116 0.494539 17.5976 8.33765C2.9012 17.3171 -0.809979 1.11792 -0.116447 -3.8147e-06Z"></path>
  <path fill="none" stroke="black" stroke-width="6" stroke-linejoin="round" transform="matrix(1.70248 0 0 1.70248 388.529 267.34)" d="M-26.6922 8.23192C-37.1325 -30.0971 24.1353 -46.7857 34.5756 -8.45664C39.0223 7.86828 46.4402 35.1013 51.0486 52.0196C52.6677 57.9638 47.4308 71.1181 25.0788 77.4869C2.72673 83.8556 -8.35423 75.555 -9.61627 70.9217C-14.2516 53.9043 -23.4106 20.2794 -26.6922 8.23192Z"></path>
  <path fill="none" stroke="black" stroke-width="6" stroke-linecap="round" stroke-linejoin="bevel" transform="matrix(1.70248 0 0 1.58041 388.529 181.982)" d="M34.5119 35.7361C35.047 43.6118 35.5075 50.3911 35.7455 53.8941C38.6562 96.736 -24.6773 101.687 -27.588 58.845C-28.3186 48.0903 -29.6617 28.321 -30.5077 15.8686C-31.3537 3.41624 -26.3175 -14.864 -10.2806 -16.1283C-8.56256 -16.2637 -6.98518 -16.3881 -5.52939 -16.5029"></path>
  <path fill="#503F7E" transform="matrix(1.70248 0 0 1.70248 388.529 267.34)" d="M-26.6922 8.23192C-37.5661 -31.689 23.7016 -48.3776 34.5756 -8.45664C39.0223 7.86828 46.4402 35.1013 51.0486 52.0196C52.6677 57.9638 47.4308 71.1181 25.0788 77.4869C2.72673 83.8556 -8.35423 75.555 -9.61627 70.9217C-14.2516 53.9043 -23.4106 20.2793 -26.6922 8.23192Z"></path>
  <path fill="#503F7E" transform="matrix(1.70248 0 0 1.58041 388.529 181.982)" d="M-30.5077 15.8686C-31.3537 3.41624 -26.3175 -14.864 -10.2806 -16.1283C5.75631 -17.3926 9.53612 -17.6906 16.5815 -18.2461C23.6269 -18.8015 31.0396 -15.3722 32.1036 0.287956C33.1675 15.9481 35.151 45.1434 35.7455 53.8941C38.3057 91.5783 -25.0277 96.5292 -27.588 58.845C-28.3186 48.0903 -29.6617 28.321 -30.5077 15.8686Z"></path>
</svg>