<?xml version="1.0" encoding="utf-8"?>
<svg xmlns="http://www.w3.org/2000/svg" xmlns:xlink="http://www.w3.org/1999/xlink" width="686" height="512">
  <path fill="none" stroke="#969696" stroke-width="6" stroke-linejoin="round" transform="matrix(1.70248 0 0 1.44029 544.863 179.773)" d="M-12.9438 -16.9737C-9.28959 -16.9737 -6.63603 -16.9737 -3.2142 -16.9737C3.85004 -16.9737 11.0107 -12.9707 11.0107 2.73135C11.0107 18.4334 11.0107 47.7067 11.0107 56.4808C11.0107 99.4374 -52.4893 99.3952 -52.4893 56.4387C-52.4893 45.6553 -52.4893 25.833 -52.4893 13.3474C-52.4893 0.861706 -46.228 -16.9737 -30.1482 -16.9737C-28.9445 -16.9737 -27.8096 -16.9737 -26.7371 -16.9737"></path>
  <path fill="none" stroke="#969696" stroke-width="6" stroke-linejoin="round" transform="matrix(1.70248 0 0 1.55154 544.863 257.563)" d="M-51.6052 7.23299C-61.3859 -34.2521 0.41964 -48.8237 10.2004 -7.3386C14.083 9.1296 20.5599 36.6016 24.5837 53.6684C25.9974 59.6648 20.3112 72.6312 -2.24666 78.2275C-24.8045 83.8237 -35.5935 75.1469 -36.6954 70.473C-40.7427 53.3063 -48.7399 19.3862 -51.6052 7.23299Z"></path>
  <path fill="#AEA9BC" transform="matrix(1.70248 0 0 1.44029 544.863 179.773)" d="M-52.4893 13.3474C-52.4893 0.861706 -46.228 -16.9737 -30.1482 -16.9737C-14.0684 -16.9737 -10.2784 -16.9737 -3.2142 -16.9737C3.85004 -16.9737 11.0107 -12.9707 11.0107 2.73135C11.0107 18.4334 11.0107 47.7067 11.0107 56.4809C11.0107 99.4374 -52.4893 99.3952 -52.4893 56.4387C-52.4893 45.6553 -52.4893 25.833 -52.4893 13.3474Z"></path>
  <path fill="#AEA9BC" transform="matrix(1.70248 0 0 1.55154 544.863 257.563)" d="M-51.6052 7.23299C-61.3859 -34.2521 0.41964 -48.8237 10.2004 -7.3386C14.083 9.12959 20.5599 36.6016 24.5837 53.6684C25.9974 59.6648 20.3112 72.6312 -2.24666 78.2275C-24.8045 83.8237 -35.5935 75.1469 -36.6954 70.473C-40.7427 53.3063 -48.7399 19.3862 -51.6052 7.23299Z"></path>
  <path fill="none" stroke="#969696" stroke-width="5" stroke-linejoin="round" transform="matrix(1.58884 0 0 1.70248 460.165 356.274)" d="M0.482025 -15.4582C18.5071 -17.9731 31.9716 -15.6334 39.4798 31.2345C42.1486 45.12 48.6746 59.5314 35.2683 70.4556C23.8125 71.9632 11.1595 74.5465 -5.16564 76.5602C-17.2871 69.3291 -19.9668 55.6171 -23.1786 39.064C-31.1531 -6.82584 -17.5431 -12.9432 0.482025 -15.4582Z"></path>
  <path fill="#ABA5BB" transform="matrix(1.58884 0 0 1.70248 460.165 356.274)" d="M0.482025 -15.4582C18.5071 -17.9731 31.9716 -15.6334 39.4798 31.2345C42.1486 45.12 48.6746 59.5314 35.2683 70.4556C23.8125 71.9632 11.1595 74.5465 -5.16564 76.5602C-17.2871 69.3291 -19.9668 55.6171 -23.1786 39.064C-31.1531 -6.82584 -17.5431 -12.9432 0.482025 -15.4582Z"></path>
  <path fill="none" stroke="#969696" stroke-width="5" stroke-linejoin="round" transform="matrix(1.58884 0 0 1.70248 386.512 362.548)" d="M-2.77763 -14.0346C15.1519 -17.0871 28.6897 -15.1512 37.8029 31.4683C42.0383 49.9352 47.2707 62.2006 33.3195 71.295C18.1685 74.2522 7.69469 76.2452 -6.96636 78.3953C-22.8271 74.4083 -21.5118 57.4177 -24.5546 41.167C-34.1002 -4.46094 -20.7071 -10.982 -2.77763 -14.0346Z"></path>
  <path fill="none" stroke="#969696" stroke-width="5" stroke-linejoin="round" transform="matrix(1.70226 0.0261988 -0.0277736 1.60574 465.064 283.869)" d="M-11.3238 -80.2543C25.8014 -80.2543 54.9476 -94.6926 58.9092 -40.8672C62.8708 12.9582 37.0524 74.7499 0.0572995 75.3534C-14.1177 75.5847 -17.7665 75.6442 -48.2096 76.1409C-78.6526 76.6376 -84.25 60.12 -84.25 1.90735e-06C-86.6294 -86.0849 -88.6034 -78.4854 -12.7475 -80.2208"></path>
  <path fill="#AEA9BC" transform="matrix(1.58884 0 0 1.70248 386.512 362.548)" d="M-2.77763 -14.0346C15.1519 -17.0871 28.6897 -15.1512 37.8029 31.4683C42.0383 49.9352 47.2707 62.2006 33.3195 71.295C18.1685 74.2522 7.69469 76.2452 -6.96636 78.3953C-22.8271 74.4083 -21.5118 57.4177 -24.5546 41.167C-34.1002 -4.46094 -20.7071 -10.982 -2.77763 -14.0346Z"></path>
  <path fill="none" stroke="#010101" stroke-width="5" stroke-linejoin="round" transform="matrix(1.44842 0 0 1.31786 419.948 138.15)" d="M0 -40C20.9426 -40 35.0096 -26.8589 47.8597 -2.20018C49.1253 -3.81499 50.3123 -3.57653 51.1974 -3.11682C52.0824 -2.65711 52.5509 -1.60562 52.2206 -0.665342C53.8523 0.0631991 55.2854 1.47333 55.8775 2.67698C56.9197 4.79566 57.6743 10.5072 53.7931 11.8212C58.5977 31.9882 20.3682 22.0914 -1.32962e-05 22.0914C-20.2357 22.0914 -45.0732 28.3281 -41.8836 12.9784C-44.6787 11.8212 -48.2008 8.95144 -46.5316 4.29175C-45.7036 1.98006 -43.8185 0.567089 -42.3936 0.566997C-41.0392 0.56691 -42.9934 -2.2 -40.2188 -3.81491C-39.0195 -4.51291 -37.7273 -4.43211 -36.6068 -4.12355C-28.0141 -23.7311 -20.4124 -40 0 -40Z"></path>
  <path fill="#AEA9BC" transform="matrix(1.70226 0.0261988 -0.0277736 1.60574 465.064 283.869)" d="M-11.3238 -80.2543C25.8014 -80.2543 54.9476 -94.6926 58.9092 -40.8672C62.8708 12.9582 37.0524 74.7499 0.0572995 75.3534C-14.1177 75.5847 -17.7665 75.6442 -48.2096 76.1409C-78.6526 76.6376 -84.25 60.12 -84.25 1.90735e-06C-86.6442 -86.62 -88.6279 -78.3873 -11.3238 -80.2543Z"></path>
  <clipPath id="cl_73">
    <path d="M448.017 154.705C511.214 155.677 561.229 133.257 566.478 219.79C571.726 306.323 526.061 404.868 463.069 404.868C438.933 404.868 432.72 404.868 380.884 404.868C329.049 404.868 319.979 378.198 321.649 281.661C319.979 142.51 316.374 155.677 448.017 154.705Z"></path>
  </clipPath>
  <g clip-path="url(#cl_73)">
    <path fill="#B5B0C3" transform="matrix(1.70248 0 0 1.70248 500.178 266.919)" d="M-0.158646 -48.2656C25.513 -48.2656 46.324 -26.6563 46.324 4.76837e-07C46.324 26.6563 25.513 48.2656 -0.158646 48.2656C-25.8303 48.2656 -46.6413 26.6563 -46.6413 4.76837e-07C-46.6413 -26.6563 -25.8303 -48.2656 -0.158646 -48.2656Z"></path>
  </g>
  <path fill="none" stroke="#010101" stroke-width="2" stroke-linejoin="round" transform="matrix(3.67759 -0.721864 0.653943 3.33157 426.379 64.1411)" d="M-4.34759 -5.25471C-4.34759 -11.5047 3.66088 -11.5047 3.66088 -5.25472C3.66088 0.995284 3.66088 12.5 3.66088 12.5L-4.57314 12.5C-4.57314 12.5 -4.34758 0.995284 -4.34759 -5.25471Z"></path>
  <path fill="none" stroke="#010101" stroke-width="2" stroke-linejoin="round" transform="matrix(3.33157 -0.653943 0.653943 3.33157 394.025 69.2607)" d="M-5.16451 -6.50116C-5.16451 -12.7512 6 -12.7512 6 -6.50116C6 -0.251162 6 12.5 6 12.5L-6 12.5C-6 12.5 -5.16451 -0.251163 -5.16451 -6.50116Z"></path>
  <path fill="#ABA5BB" transform="matrix(3.67759 -0.721864 0.653943 3.33157 426.379 64.1411)" d="M-4.34759 -5.25471C-4.34759 -11.5047 3.66088 -11.5047 3.66088 -5.25472C3.66088 0.995284 3.66088 12.5 3.66088 12.5L-4.57314 12.5C-4.57314 12.5 -4.34758 0.995284 -4.34759 -5.25471Z"></path>
  <path fill="none" stroke="#9D9D9D" stroke-width="0.5" stroke-linecap="round" stroke-linejoin="round" transform="matrix(3.67759 -0.721864 0.653943 3.33157 421.846 45.6676)" d="M4.54547e-06 1.51652L3.83069e-06 10.5382"></path>
  <path fill="#AEA9BC" transform="matrix(3.33157 -0.653943 0.653943 3.33157 394.025 69.2607)" d="M-5.1645 -6.50116C-5.16451 -12.7512 6 -12.7512 6 -6.50116C6 -0.251162 6 12.5 6 12.5L-6 12.5C-6 12.5 -5.1645 -0.251163 -5.1645 -6.50116Z"></path>
  <path fill="none" stroke="#9D9D9D" stroke-width="0.5" stroke-linecap="round" stroke-linejoin="round" transform="matrix(3.33157 -0.653943 0.653943 3.33157 394.228 50.3267)" d="M-1.88881e-06 3.8412e-06L1.92589e-06 10.5382"></path>
  <path fill="none" stroke="#010101" stroke-width="7" stroke-linejoin="round" transform="matrix(1.00146 0 0 1.00146 343 256)" d="M28.0217 -137.745L126.4 -151.701C126.4 -151.701 112.677 -218.919 68.0366 -211.282C65.6867 -210.88 63.6604 -209.95 61.8714 -208.664C61.044 -200.592 58.4478 -185.189 35.7134 -183.846C26.2216 -162.694 28.0217 -137.745 28.0217 -137.745Z"></path>
  <path fill="none" stroke="#010101" stroke-width="7" stroke-miterlimit="4" transform="matrix(1.00146 0 0 1.00146 343 256)" d="M68.9053 -218.396C73.5532 -219.056 77.8556 -215.822 78.515 -211.174C79.1744 -206.526 75.9411 -202.224 71.2932 -201.565C66.6453 -200.905 62.3429 -204.139 61.6835 -208.787C61.0242 -213.434 64.2575 -217.737 68.9053 -218.396Z"></path>
  <path fill="#E3CEC2" transform="matrix(0.526751 -0.0747291 0.0747291 0.526751 413.202 45.713)" d="M0 -16C8.83656 -16 16 -8.83659 16 -3.05176e-05C16 8.83652 8.83656 16 0 16C-8.83656 16 -16 8.83652 -16 -3.05176e-05C-16 -8.83659 -8.83656 -16 0 -16Z"></path>
  <path fill="#8D5A3E" transform="matrix(0.526751 -0.0747291 0.0747291 0.526751 363.991 119.058)" d="M13.4248 -3.05176e-05L200.462 -6.10352e-05C200.462 -6.10352e-05 192.659 -128.902 107.443 -126.472C102.958 -126.344 98.9354 -125.146 95.2612 -123.223C91.5849 -108.397 82.6738 -80.3768 39.9489 -83.8848C16.6664 -46.9736 13.4248 -3.05176e-05 13.4248 -3.05176e-05Z"></path>
  <path fill="#4A4848" transform="matrix(0.477162 -0.067694 0.0215722 0.152058 419.186 101.153)" d="M-4.33996e-07 -116.5C64.3412 -116.5 116.5 -64.3412 116.5 0C116.5 64.3412 64.3412 116.5 4.33996e-07 116.5C-64.3412 116.5 -116.5 64.3412 -116.5 0C-116.5 -64.3412 -64.3412 -116.5 -4.33996e-07 -116.5Z"></path>
  <path fill="none" stroke="#010101" stroke-width="7" stroke-miterlimit="4" transform="matrix(1.00146 0 0 1.00146 343 256)" d="M74.7014 -162.412C108.544 -167.213 137.102 -163.186 138.488 -153.416C139.874 -143.647 113.563 -131.835 79.7204 -127.034C45.878 -122.233 17.3198 -126.26 15.9339 -136.03C14.5479 -145.799 40.859 -157.611 74.7014 -162.412Z"></path>
  <path fill="#C9B1AA" transform="matrix(0.526751 -0.0747291 0.0215722 0.152058 420.324 111.066)" d="M-0.519163 93.3572C63.822 93.3572 81.6546 -40.5055 116.5 -6.10352e-05C116.333 7.78596 114.666 35.3783 103.443 64.6423C92.2186 93.9063 32.9112 142.08 1.25538 142.08C-34.5183 142.08 -86.5851 95.3331 -99.0913 78.9828C-111.597 62.6326 -116.509 26.4158 -116.5 -6.10352e-05C-66.3811 -27.3191 -64.8603 93.3572 -0.519163 93.3572Z"></path>
  <path fill="#65524C" transform="matrix(0.422841 -0.0599876 0.0173167 0.122062 420.324 111.066)" d="M-1.52588e-05 -116.5C64.3412 -116.5 116.5 -64.3412 116.5 3.47197e-06C116.5 64.3412 64.3412 116.5 -1.52588e-05 116.5C-64.3412 116.5 -116.5 64.3412 -116.5 -3.47197e-06C-116.5 -64.3412 -64.3412 -116.5 -1.52588e-05 -116.5Z"></path>
  <clipPath id="cl_74">
    <path d="M418.306 96.8455C445.512 92.9858 468.47 96.2235 469.585 104.077C470.699 111.931 449.547 121.426 422.341 125.286C395.135 129.146 372.177 125.908 371.063 118.054C369.948 110.201 391.1 100.705 418.306 96.8455Z"></path>
  </clipPath>
  <g clip-path="url(#cl_74)">
    <path fill="#857069" transform="matrix(1.69198 -0.240038 0.240038 1.69198 380.569 101.66)" d="M6.3453 -18.4774C15.1819 -18.4774 19.9785 -8.83656 25.4977 -7.77841e-06C40.8822 25.7165 8.83656 21.8364 -1.2219e-06 19.1868C-8.83656 16.5373 -16 8.83655 -16 -7.62939e-06C-16 -8.83656 -2.49126 -18.4774 6.3453 -18.4774Z"></path>
  </g>
  <clipPath id="cl_75">
    <path d="M371.063 118.054L469.585 104.077C469.585 104.077 455.842 36.7611 411.136 44.4091C408.783 44.8118 406.753 45.7431 404.962 47.031C404.133 55.1151 401.533 70.5408 378.766 71.8858C369.26 93.0687 371.063 118.054 371.063 118.054Z"></path>
  </clipPath>
  <g clip-path="url(#cl_75)">
    <path fill="#65524C" transform="matrix(0.645476 -0.0915723 0.0561954 0.396111 392.054 53.4635)" d="M-7.62939e-06 -50.5C11.1423 -50.5 26.7229 -45.7372 27.5442 -33.3092C28.6357 -16.7925 29.2617 -6.9354 29.2617 5.94996C29.2617 33.8403 20.7107 50.5 -7.62939e-06 50.5C-20.7107 50.5 -29.0363 45.6072 -29.0363 17.7168C-29.0363 -10.1736 -20.7107 -50.5 -7.62939e-06 -50.5Z"></path>
    <path fill="#714035" transform="matrix(0.282525 -0.239439 0.239439 0.282525 439.146 59.0228)" d="M-46.3834 -19.9076C-36.9946 -19.9076 -29.3834 -27.5188 -29.3834 -36.9076L29.3834 -36.9076C29.3834 -27.5188 36.9946 -19.9076 46.3834 -19.9076L46.3834 19.9075C36.9946 19.9075 29.3834 27.5187 29.3834 36.9075L-29.3834 36.9075C-29.3834 27.5187 -36.9946 19.9075 -46.3834 19.9075L-46.3834 -19.9076Z"></path>
  </g>
  <clipPath id="cl_77">
    <path d="M389.216 33.4599C396.408 32.4396 406.733 32.8995 407.961 37.7471C409.594 44.1896 410.552 48.0368 411.276 53.1408C412.843 64.1885 408.26 71.5706 394.892 73.4671C381.524 75.3636 375.875 74.1879 374.307 63.1403C372.74 52.0926 375.848 35.3564 389.216 33.4599Z"></path>
  </clipPath>
  <g clip-path="url(#cl_77)">
    <clipPath id="cl_78">
      <path d="M371.063 118.054L469.585 104.077C469.585 104.077 455.842 36.7611 411.136 44.4091C408.783 44.8118 406.753 45.7431 404.962 47.031C404.133 55.1151 401.533 70.5408 378.766 71.8858C369.26 93.0687 371.063 118.054 371.063 118.054Z"></path>
    </clipPath>
    <g clip-path="url(#cl_78)">
      <path fill="#857069" transform="matrix(1.69198 -0.240038 0.240038 1.69198 376.457 74.5695)" d="M-4.05312e-06 -16C8.83655 -16 12.0102 -8.83656 16.201 -1.45594e-06C20.3918 8.83655 8.83655 16 -3.57628e-06 16C-8.83656 16 -16 8.83656 -16 2.38419e-07C-16 -8.83656 -8.83656 -16 -4.05312e-06 -16Z"></path>
    </g>
  </g>
  <path fill="none" stroke="#010101" stroke-width="7" stroke-linejoin="round" transform="matrix(1.00146 0 0 1.00146 343 256)" d="M15.9339 -136.03C14.482 -146.264 17.4074 -149.057 17.4074 -149.057C20.2365 -153.044 23.7175 -156.443 28.3682 -159.379"></path>
  <path fill="none" stroke="#010101" stroke-width="7" stroke-linejoin="round" transform="matrix(1.00146 0 0 1.00146 343 256)" d="M120.26 -172.536C127.058 -170.915 131.869 -168.328 134.708 -164.953C134.708 -164.953 138.854 -161.718 138.608 -154.906"></path>
  <path fill="#AEA9BC" transform="matrix(1.44842 0 0 1.31786 419.948 138.15)" d="M0 -40C20.9426 -40 35.0096 -26.8589 47.8597 -2.20018C49.1253 -3.81499 50.3123 -3.57653 51.1974 -3.11682C52.0824 -2.65711 52.5509 -1.60562 52.2206 -0.665342C53.8523 0.0631991 55.2854 1.47333 55.8775 2.67698C56.9197 4.79566 57.6743 10.5072 53.7931 11.8212C58.5977 31.9882 20.3682 22.0914 -1.32962e-05 22.0914C-20.2357 22.0914 -45.0732 28.3281 -41.8836 12.9784C-44.6787 11.8212 -48.2008 8.95144 -46.5316 4.29175C-45.7036 1.98006 -43.8185 0.567089 -42.3936 0.566997C-41.0392 0.56691 -42.9934 -2.2 -40.2188 -3.81491C-39.0195 -4.51291 -37.7273 -4.43211 -36.6068 -4.12355C-28.0141 -23.7311 -20.4124 -40 0 -40Z"></path>
  <path fill="#E3CEC2" transform="matrix(0.526751 -0.0747291 0.0747291 0.526751 358.957 119.772)" d="M-5.72205e-06 -1.52588e-05C0 -19.4564 6.19047 -23.8887 6.19047 -23.8887C25.0053 -43.7609 53.1913 -52.4203 117 -52.4203C180.809 -52.4203 217.711 -40.5795 229.005 -22.5C229.005 -22.5 236.876 -14.3389 233 -3.05176e-05C233 -3.05176e-05 222.592 -33.1383 117.06 -33.1384C11.5269 -33.1384 -5.72205e-06 -1.52588e-05 -5.72205e-06 -1.52588e-05Z"></path>
  <path fill="#C9B1AA" transform="matrix(0.526751 -0.0747291 0.0215722 0.152058 420.324 111.066)" d="M-4.33996e-07 -116.5C64.3412 -116.5 116.5 -64.3412 116.5 -6.10352e-05C116.333 7.78596 114.079 -0.846992 92.5947 -2.56891C90.1363 -68.6432 33.7083 -93.0965 2.0524 -93.0965C-33.7213 -93.0965 -91.7603 -68.5196 -92.7458 3.01559C-107.568 13.607 -116.5 28.5674 -116.5 -6.10352e-05C-116.5 -64.3412 -64.3412 -116.5 -4.33996e-07 -116.5Z"></path>
  <clipPath id="cl_79">
    <path d="M389.216 33.4599C396.408 32.4396 406.733 32.8995 407.961 37.7471C409.594 44.1896 410.552 48.0368 411.276 53.1408C412.843 64.1885 408.26 71.5706 394.892 73.4671C381.524 75.3636 375.875 74.1879 374.307 63.1403C372.74 52.0926 375.848 35.3564 389.216 33.4599Z"></path>
  </clipPath>
  <g clip-path="url(#cl_79)">
    <path fill="#AEA9BC" transform="matrix(3.33157 -0.653943 0.653943 3.33157 394.025 69.2607)" d="M-5.16451 -6.50116C-5.16451 -12.7512 6 -12.7512 6 -6.50116C6 -0.251162 6 12.5 6 12.5L-6 12.5C-6 12.5 -5.16451 -0.251163 -5.16451 -6.50116Z"></path>
    <path fill="none" stroke="#9D9D9D" stroke-width="0.5" stroke-linecap="round" stroke-linejoin="round" transform="matrix(3.33157 -0.653943 0.653943 3.33157 394.228 50.3267)" d="M-1.88881e-06 3.8412e-06L1.92589e-06 10.5382"></path>
  </g>
  <clipPath id="cl_7b">
    <path d="M419.948 85.4358C450.282 85.4358 470.657 102.754 489.269 135.251C491.102 133.122 492.822 133.437 494.104 134.043C495.385 134.648 496.064 136.034 495.586 137.273C497.949 138.233 500.025 140.092 500.882 141.678C502.392 144.47 503.485 151.997 497.863 153.729C504.822 180.306 449.45 167.263 419.948 167.263C390.638 167.263 354.663 175.482 359.283 155.254C355.235 153.729 350.133 149.947 352.551 143.806C353.75 140.76 356.481 138.897 358.545 138.897C360.506 138.897 357.676 135.251 361.695 133.123C363.432 132.203 365.303 132.309 366.926 132.716C379.372 106.876 390.382 85.4358 419.948 85.4358Z"></path>
  </clipPath>
  <g clip-path="url(#cl_7b)">
    <path fill="#B9B4C8" transform="matrix(1.70248 0 0.00718207 1.70248 416.859 123.828)" d="M-2.67755e-09 -5.5C3.86599 -5.5 7 -2.92564 7 0.25C7 3.42564 3.86599 6 2.67755e-09 6C-3.86599 6 -7 3.42564 -7 0.25C-7 -2.92564 -3.86599 -5.5 -2.67755e-09 -5.5Z"></path>
    <path fill="#B9B4C8" transform="matrix(1.7367 0 0.00718207 1.70248 466.561 116.123)" d="M2.44472e-09 -5C2.76142 -5 5 -2.6495 5 0.25C5 3.1495 2.76142 5.5 -2.44472e-09 5.5C-2.76142 5.5 -5 3.1495 -5 0.25C-5 -2.6495 -2.76142 -5 2.44472e-09 -5Z"></path>
    <path fill="none" stroke="#131212" stroke-width="1" stroke-linecap="round" stroke-linejoin="round" transform="matrix(2.182 -0.353477 0.259285 1.60056 445.971 109.79)" d="M-3.32645e-06 -4.14104e-07L2.92891 -0.714567"></path>
    <path fill="none" stroke="#131212" stroke-width="1" stroke-linecap="round" stroke-linejoin="round" transform="matrix(2.182 -0.353477 0.259285 1.60056 425.399 109.005)" d="M3.8147e-06 -1.48459e-07L4.25731 1.79213"></path>
    <path fill="#131212" transform="matrix(2.33716 -0.378612 0.383771 2.36901 438.437 111.947)" d="M-4.99596e-07 -4.03018e-06L1.9614 0.352734L0.915089 1.42246L-4.99596e-07 -4.03018e-06Z"></path>
    <path fill="none" stroke="#131212" stroke-width="0.5" stroke-linecap="round" stroke-linejoin="round" transform="matrix(1.83262 -0.296878 0.300923 1.85759 441.331 115.291)" d="M1.0783e-07 -0.711217L-3.70687e-06 1.11021"></path>
    <path fill="#32225E" transform="matrix(1.64843 0.417573 -0.40107 1.65095 435.456 104.507)" d="M1.96478e-06 -1.92716C1.62851 -1.92716 2.94867 -1.06435 2.94867 -7.58546e-06C2.94867 1.06433 1.62851 1.92715 1.84991e-06 1.92715C-1.6285 1.92715 -2.94867 1.06433 -2.94867 -7.67333e-06C-2.94867 -1.06435 -1.6285 -1.92716 1.96478e-06 -1.92716Z"></path>
    <path fill="#32225E" transform="matrix(1.61937 0.410211 -0.390122 1.60588 446.042 103.68)" d="M-7.65769e-06 -1.89918C0.889981 -1.89918 1.61146 -1.04889 1.61146 7.60538e-06C1.61146 1.0489 0.889981 1.8992 -7.60109e-06 1.8992C-0.889997 1.8992 -1.61148 1.0489 -1.61148 7.65341e-06C-1.61148 -1.04889 -0.889997 -1.89918 -7.65769e-06 -1.89918Z"></path>
  </g>
  <path fill="none" stroke="#969696" stroke-width="4" stroke-linejoin="round" transform="matrix(1.70248 0 0 1.70248 538.343 174.984)" d="M-11.7479 -12.9046C-11.318 -13.5165 -10.7601 -14.1187 -10.0572 -14.7065C-5.4735 -18.5399 3.93805 -16.1165 4.43082 -14.7065C7.46665 -16.1165 10.8961 -16.6614 15.0174 -13.9738C19.1387 -11.2862 16.2386 -4.86794 16.6118 -4.55445C16.985 -4.24095 25.2116 0.494539 17.5976 8.33765C16.6439 8.92035 15.7365 9.39702 14.8736 9.77867"></path>
  <path fill="#B9B4C8" transform="matrix(1.70248 0 0 1.70248 538.343 174.984)" d="M-0.116447 -3.8147e-06C-2.60164 -0.663944 -7.05858 1.11792 -10.0572 -2.65577C-13.0559 -6.42945 -14.6409 -10.8732 -10.0572 -14.7065C-5.4735 -18.5399 3.93805 -16.1165 4.43082 -14.7065C7.46665 -16.1165 10.8961 -16.6614 15.0174 -13.9738C19.1387 -11.2862 16.2386 -4.86794 16.6118 -4.55445C16.985 -4.24095 25.2116 0.494539 17.5976 8.33765C2.9012 17.3171 -0.809979 1.11792 -0.116447 -3.8147e-06Z"></path>
  <path fill="none" stroke="#969696" stroke-width="6" stroke-linejoin="round" transform="matrix(1.70248 0 0 1.70248 366.293 267.34)" d="M-28.3365 1.68296C-30.4933 -37.984 32.9131 -41.4315 35.0699 -1.7646C35.9885 15.1301 37.5209 43.3137 38.4729 60.8225C38.8074 66.9743 30.9243 78.7352 7.73322 80.267C-15.4579 81.7989 -24.5482 71.3559 -24.8089 66.561C-25.7665 48.9496 -27.6586 14.1509 -28.3365 1.68296Z"></path>
  <path fill="none" stroke="#969696" stroke-width="6" stroke-linecap="round" stroke-linejoin="bevel" transform="matrix(1.70248 0 0 1.58041 366.293 181.982)" d="M34.1494 36.1419C34.6048 44.0208 34.9967 50.8024 35.1992 54.307C37.677 97.1806 -25.7027 101.389 -28.1805 58.5153C-28.8025 47.7528 -29.9458 27.9688 -30.666 15.5073C-31.3862 3.04576 -26.1657 -15.1743 -10.117 -16.2506C-8.38994 -16.3665 -6.80496 -16.4728 -5.34266 -16.5708"></path>
  <path fill="#AEA9BC" transform="matrix(1.70248 0 0 1.70248 366.293 267.34)" d="M-28.3365 1.68295C-30.5828 -39.6315 32.8235 -43.079 35.0699 -1.7646C35.9885 15.1301 37.5209 43.3137 38.4729 60.8225C38.8074 66.9743 30.9243 78.7352 7.73322 80.267C-15.4579 81.7989 -24.5482 71.3559 -24.8089 66.561C-25.7665 48.9496 -27.6586 14.1509 -28.3365 1.68295Z"></path>
  <path fill="#AEA9BC" transform="matrix(1.70248 0 0 1.58041 366.293 181.982)" d="M-30.666 15.5073C-31.3862 3.04575 -26.1657 -15.1743 -10.117 -16.2506C5.93177 -17.3269 9.71436 -17.5806 16.765 -18.0535C23.8155 -18.5263 31.1932 -15.0103 32.0989 0.661388C33.0046 16.3331 34.6931 45.5499 35.1992 54.307C37.3787 92.019 -26.001 96.2273 -28.1805 58.5153C-28.8025 47.7528 -29.9458 27.9688 -30.666 15.5073Z"></path>
</svg>