<?xml version="1.0" encoding="utf-8"?>
<svg xmlns="http://www.w3.org/2000/svg" xmlns:xlink="http://www.w3.org/1999/xlink" width="686" height="512">
  <path fill="none" stroke="#565656" stroke-width="6" stroke-linejoin="round" transform="matrix(1.70248 0 0 1.44029 558.018 179.773)" d="M-12.9438 -16.9737C-9.2896 -16.9737 -6.63603 -16.9737 -3.2142 -16.9737C3.85004 -16.9737 11.0107 -12.9707 11.0107 2.73135C11.0107 18.4334 11.0107 47.7067 11.0107 56.4808C11.0107 99.4374 -52.4893 99.3952 -52.4893 56.4387C-52.4893 45.6553 -52.4893 25.833 -52.4893 13.3474C-52.4893 0.861706 -46.228 -16.9737 -30.1482 -16.9737C-28.9445 -16.9737 -27.8096 -16.9737 -26.7371 -16.9737"></path>
  <path fill="none" stroke="#565656" stroke-width="6" stroke-linejoin="round" transform="matrix(1.70248 0 0 1.55154 558.018 257.563)" d="M-52.3208 3.07176C-56.4845 -39.3469 6.71187 -45.55 10.8755 -3.13134C12.5284 13.7074 15.2856 41.7977 16.9985 59.2485C17.6003 65.3798 10.2365 77.4725 -12.8661 80.012C-35.9686 82.5515 -45.5046 72.5139 -45.9737 67.7349C-47.6967 50.1818 -51.1011 15.4984 -52.3208 3.07176Z"></path>
  <path fill="#867CA2" transform="matrix(1.70248 0 0 1.44029 558.018 179.773)" d="M-52.4893 13.3474C-52.4893 0.861706 -46.228 -16.9737 -30.1482 -16.9737C-14.0684 -16.9737 -10.2784 -16.9737 -3.2142 -16.9737C3.85004 -16.9737 11.0107 -12.9707 11.0107 2.73135C11.0107 18.4334 11.0107 47.7067 11.0107 56.4809C11.0107 99.4374 -52.4893 99.3952 -52.4893 56.4387C-52.4893 45.6553 -52.4893 25.833 -52.4893 13.3474Z"></path>
  <path fill="#867CA2" transform="matrix(1.70248 0 0 1.55154 558.018 257.563)" d="M-52.3208 3.07176C-56.4845 -39.3469 6.71187 -45.55 10.8755 -3.13134C12.5284 13.7074 15.2856 41.7976 16.9985 59.2485C17.6003 65.3798 10.2365 77.4725 -12.8661 80.012C-35.9686 82.5515 -45.5046 72.5139 -45.9737 67.7349C-47.6967 50.1818 -51.1011 15.4984 -52.3208 3.07176Z"></path>
  <path fill="none" stroke="#565656" stroke-width="5" stroke-linejoin="round" transform="matrix(1.58884 0 0 1.70248 473.319 356.274)" d="M2.10725 -15.6475C20.3159 -16.3761 33.4413 -12.7254 35.6165 34.6199C36.7028 48.6906 41.5655 63.6634 27.0004 73.2086C15.4382 73.5813 2.56399 74.9062 -13.8976 75.3035C-25.1352 66.9206 -26.252 53.0214 -27.5771 36.2448C-30.3263 -10.1738 -16.1014 -14.9189 2.10725 -15.6475Z"></path>
  <path fill="#7F749F" transform="matrix(1.58884 0 0 1.70248 473.319 356.274)" d="M2.10725 -15.6475C20.3159 -16.3761 33.4413 -12.7254 35.6165 34.6199C36.7028 48.6906 41.5655 63.6634 27.0004 73.2086C15.4382 73.5813 2.56399 74.9062 -13.8976 75.3035C-25.1352 66.9206 -26.252 53.0214 -27.5771 36.2448C-30.3263 -10.1738 -16.1014 -14.9189 2.10725 -15.6475Z"></path>
  <path fill="none" stroke="#565656" stroke-width="5" stroke-linejoin="round" transform="matrix(1.58884 0 0 1.70248 399.666 362.548)" d="M-1.15171 -14.2731C17.0233 -15.5369 30.2654 -12.2742 34.0384 34.9837C36.155 53.7653 39.9664 66.4788 25.0618 74.1435C9.66055 75.587 -0.980488 76.534 -15.8031 77.2234C-31.1223 71.6915 -27.8868 54.9264 -29.0689 38.4664C-33.3843 -7.84829 -19.3267 -13.0093 -1.15171 -14.2731Z"></path>
  <path fill="none" stroke="#565656" stroke-width="5" stroke-linejoin="round" transform="matrix(1.70226 0.0261988 -0.0277736 1.60574 478.218 283.869)" d="M-11.3238 -80.2543C25.8014 -80.2543 54.9476 -94.6926 58.9092 -40.8672C62.8708 12.9582 37.0524 74.7499 0.0572995 75.3534C-14.1177 75.5847 -17.7665 75.6442 -48.2096 76.1409C-78.6526 76.6376 -84.25 60.12 -84.25 0C-86.6294 -86.0849 -88.6034 -78.4854 -12.7475 -80.2208"></path>
  <path fill="#867CA2" transform="matrix(1.58884 0 0 1.70248 399.666 362.548)" d="M-1.15171 -14.2731C17.0233 -15.5369 30.2654 -12.2742 34.0384 34.9837C36.155 53.7653 39.9664 66.4788 25.0618 74.1435C9.66055 75.587 -0.980488 76.534 -15.8031 77.2234C-31.1223 71.6915 -27.8868 54.9264 -29.0689 38.4664C-33.3843 -7.84829 -19.3267 -13.0093 -1.15171 -14.2731Z"></path>
  <path fill="none" stroke="#010101" stroke-width="5" stroke-linejoin="round" transform="matrix(1.44842 0 0 1.31786 433.103 138.15)" d="M-3.8147e-06 -40C20.9426 -40 35.0096 -26.8589 47.8597 -2.20018C49.1253 -3.81499 50.3123 -3.57653 51.1974 -3.11682C52.0824 -2.65711 52.5509 -1.60562 52.2206 -0.665342C53.8523 0.0631991 55.2854 1.47333 55.8775 2.67698C56.9197 4.79566 57.6743 10.5072 53.7931 11.8212C58.5977 31.9882 20.3682 22.0914 -1.71109e-05 22.0914C-20.2357 22.0914 -45.0732 28.3281 -41.8836 12.9784C-44.6787 11.8212 -48.2008 8.95144 -46.5316 4.29175C-45.7036 1.98006 -43.8185 0.567089 -42.3936 0.566997C-41.0392 0.56691 -42.9934 -2.2 -40.2188 -3.81491C-39.0195 -4.51291 -37.7273 -4.43211 -36.6068 -4.12355C-28.0141 -23.7311 -20.4124 -40 -3.8147e-06 -40Z"></path>
  <path fill="#867CA2" transform="matrix(1.70226 0.0261988 -0.0277736 1.60574 478.218 283.869)" d="M-11.3238 -80.2543C25.8014 -80.2543 54.9476 -94.6926 58.9092 -40.8672C62.8708 12.9582 37.0524 74.7499 0.0572995 75.3534C-14.1177 75.5847 -17.7665 75.6442 -48.2096 76.1409C-78.6526 76.6376 -84.25 60.12 -84.25 0C-86.6442 -86.62 -88.6279 -78.3873 -11.3238 -80.2543Z"></path>
  <clipPath id="cl_43">
    <path d="M461.171 154.705C524.368 155.677 574.383 133.257 579.632 219.79C584.881 306.323 539.215 404.868 476.223 404.868C452.087 404.868 445.874 404.868 394.039 404.868C342.203 404.868 333.134 378.198 334.803 281.661C333.134 142.51 329.528 155.677 461.171 154.705Z"></path>
  </clipPath>
  <g clip-path="url(#cl_43)">
    <path fill="#9388AF" transform="matrix(1.70248 0 0 1.70248 513.333 266.919)" d="M-0.158646 -48.2656C25.513 -48.2656 46.324 -26.6563 46.324 4.76837e-07C46.324 26.6563 25.513 48.2656 -0.158646 48.2656C-25.8303 48.2656 -46.6413 26.6563 -46.6413 4.76837e-07C-46.6413 -26.6563 -25.8303 -48.2656 -0.158646 -48.2656Z"></path>
  </g>
  <path fill="none" stroke="#010101" stroke-width="2" stroke-linejoin="round" transform="matrix(3.67759 -0.721864 0.653943 3.33157 439.534 64.1411)" d="M-4.34758 -5.25471C-4.34758 -11.5047 3.66088 -11.5047 3.66088 -5.25472C3.66088 0.995284 3.66088 12.5 3.66088 12.5L-4.57314 12.5C-4.57314 12.5 -4.34758 0.995284 -4.34758 -5.25471Z"></path>
  <path fill="none" stroke="#010101" stroke-width="2" stroke-linejoin="round" transform="matrix(3.33157 -0.653943 0.653943 3.33157 407.179 69.2607)" d="M-5.1645 -6.50117C-5.16451 -12.7512 6 -12.7512 6 -6.50117C6 -0.251166 6 12.5 6 12.5L-6 12.5C-6 12.5 -5.1645 -0.251167 -5.1645 -6.50117Z"></path>
  <path fill="#7F749F" transform="matrix(3.67759 -0.721864 0.653943 3.33157 439.534 64.1411)" d="M-4.34758 -5.25471C-4.34758 -11.5047 3.66088 -11.5047 3.66088 -5.25472C3.66088 0.995284 3.66088 12.5 3.66088 12.5L-4.57314 12.5C-4.57314 12.5 -4.34758 0.995284 -4.34758 -5.25471Z"></path>
  <path fill="none" stroke="#636363" stroke-width="0.5" stroke-linecap="round" stroke-linejoin="round" transform="matrix(3.67759 -0.721864 0.653943 3.33157 435 45.6676)" d="M7.30771e-07 1.51652L1.59903e-08 10.5382"></path>
  <path fill="#867CA2" transform="matrix(3.33157 -0.653943 0.653943 3.33157 407.179 69.2607)" d="M-5.16451 -6.50117C-5.16451 -12.7512 6 -12.7512 6 -6.50117C6 -0.251166 6 12.5 6 12.5L-6 12.5C-6 12.5 -5.16451 -0.251167 -5.16451 -6.50117Z"></path>
  <path fill="none" stroke="#636363" stroke-width="0.5" stroke-linecap="round" stroke-linejoin="round" transform="matrix(3.33157 -0.653943 0.653943 3.33157 407.382 50.3267)" d="M1.92589e-06 2.6499e-08L5.74058e-06 10.5382"></path>
  <path fill="none" stroke="#010101" stroke-width="7" stroke-linejoin="round" transform="matrix(1.00146 0 0 1.00146 343 256)" d="M41.157 -137.745L139.535 -151.701C139.535 -151.701 125.812 -218.919 81.1718 -211.282C78.8219 -210.88 76.7957 -209.95 75.0066 -208.664C74.1793 -200.592 71.5831 -185.189 48.8487 -183.846C39.3568 -162.694 41.157 -137.745 41.157 -137.745Z"></path>
  <path fill="none" stroke="#010101" stroke-width="7" stroke-miterlimit="4" transform="matrix(1.00146 0 0 1.00146 343 256)" d="M82.0406 -218.396C86.6885 -219.056 90.9909 -215.822 91.6502 -211.174C92.3096 -206.526 89.0763 -202.224 84.4284 -201.565C79.7806 -200.905 75.4782 -204.139 74.8188 -208.787C74.1594 -213.434 77.3927 -217.737 82.0406 -218.396Z"></path>
  <path fill="#E3CEC2" transform="matrix(0.526751 -0.0747291 0.0747291 0.526751 426.356 45.713)" d="M0 -16C8.83656 -16 16 -8.83659 16 -3.05176e-05C16 8.83652 8.83656 16 0 16C-8.83656 16 -16 8.83652 -16 -3.05176e-05C-16 -8.83659 -8.83656 -16 0 -16Z"></path>
  <path fill="#8D5A3E" transform="matrix(0.526751 -0.0747291 0.0747291 0.526751 377.146 119.058)" d="M13.4248 -3.05176e-05L200.462 -6.10352e-05C200.462 -6.10352e-05 192.659 -128.902 107.443 -126.472C102.958 -126.344 98.9354 -125.146 95.2612 -123.223C91.5849 -108.397 82.6738 -80.3767 39.9489 -83.8848C16.6664 -46.9736 13.4248 -3.05176e-05 13.4248 -3.05176e-05Z"></path>
  <path fill="#4A4848" transform="matrix(0.477162 -0.067694 0.0215722 0.152058 432.34 101.153)" d="M-4.33996e-07 -116.5C64.3412 -116.5 116.5 -64.3412 116.5 0C116.5 64.3412 64.3412 116.5 4.33996e-07 116.5C-64.3412 116.5 -116.5 64.3412 -116.5 0C-116.5 -64.3412 -64.3412 -116.5 -4.33996e-07 -116.5Z"></path>
  <path fill="none" stroke="#010101" stroke-width="7" stroke-miterlimit="4" transform="matrix(1.00146 0 0 1.00146 343 256)" d="M87.8367 -162.412C121.679 -167.213 150.237 -163.186 151.623 -153.416C153.009 -143.647 126.698 -131.835 92.8557 -127.034C59.0133 -122.233 30.4551 -126.26 29.0691 -136.03C27.6832 -145.799 53.9943 -157.611 87.8367 -162.412Z"></path>
  <path fill="#C9B1AA" transform="matrix(0.526751 -0.0747291 0.0215722 0.152058 433.478 111.066)" d="M-0.519148 93.3572C63.822 93.3572 81.6546 -40.5055 116.5 -6.10352e-05C116.333 7.78596 114.666 35.3783 103.443 64.6423C92.2187 93.9063 32.9113 142.08 1.2554 142.08C-34.5183 142.08 -86.5851 95.3331 -99.0913 78.9828C-111.597 62.6326 -116.509 26.4158 -116.5 -6.10352e-05C-66.3811 -27.3191 -64.8603 93.3572 -0.519148 93.3572Z"></path>
  <path fill="#65524C" transform="matrix(0.422841 -0.0599876 0.0173167 0.122062 433.478 111.066)" d="M-3.05176e-05 -116.5C64.3411 -116.5 116.5 -64.3411 116.5 0.000125542C116.5 64.3413 64.3411 116.5 -3.05176e-05 116.5C-64.3412 116.5 -116.5 64.3413 -116.5 0.000118598C-116.5 -64.3411 -64.3412 -116.5 -3.05176e-05 -116.5Z"></path>
  <clipPath id="cl_44">
    <path d="M431.461 96.8455C458.667 92.9858 481.625 96.2235 482.739 104.077C483.853 111.931 462.702 121.426 435.495 125.286C408.289 129.146 385.331 125.908 384.217 118.054C383.103 110.201 404.255 100.705 431.461 96.8455Z"></path>
  </clipPath>
  <g clip-path="url(#cl_44)">
    <path fill="#857069" transform="matrix(1.69198 -0.240038 0.240038 1.69198 393.723 101.66)" d="M6.3453 -18.4774C15.1819 -18.4774 19.9785 -8.83656 25.4977 -7.77841e-06C40.8823 25.7165 8.83656 21.8364 2.5928e-06 19.1868C-8.83655 16.5373 -16 8.83655 -16 -7.62939e-06C-16 -8.83656 -2.49126 -18.4774 6.3453 -18.4774Z"></path>
  </g>
  <clipPath id="cl_45">
    <path d="M384.217 118.054L482.739 104.077C482.739 104.077 468.996 36.7611 424.29 44.4091C421.937 44.8118 419.908 45.7431 418.116 47.031C417.288 55.1151 414.688 70.5408 391.92 71.8858C382.414 93.0687 384.217 118.054 384.217 118.054Z"></path>
  </clipPath>
  <g clip-path="url(#cl_45)">
    <path fill="#65524C" transform="matrix(0.645476 -0.0915723 0.0561954 0.396111 405.208 53.4635)" d="M0 -50.5C11.1423 -50.5 26.7229 -45.7372 27.5442 -33.3093C28.6357 -16.7925 29.2617 -6.93543 29.2617 5.94992C29.2617 33.8403 20.7107 50.5 0 50.5C-20.7107 50.5 -29.0363 45.6072 -29.0363 17.7168C-29.0363 -10.1736 -20.7107 -50.5 0 -50.5Z"></path>
    <path fill="#714035" transform="matrix(0.282525 -0.239439 0.239439 0.282525 452.3 59.0228)" d="M-46.3834 -19.9076C-36.9946 -19.9076 -29.3834 -27.5188 -29.3834 -36.9076L29.3834 -36.9076C29.3834 -27.5188 36.9946 -19.9076 46.3834 -19.9076L46.3834 19.9075C36.9946 19.9075 29.3834 27.5187 29.3834 36.9075L-29.3834 36.9075C-29.3834 27.5187 -36.9946 19.9075 -46.3834 19.9075L-46.3834 -19.9076Z"></path>
  </g>
  <clipPath id="cl_47">
    <path d="M402.37 33.4599C409.563 32.4396 419.887 32.8995 421.116 37.7471C422.748 44.1896 423.706 48.0368 424.43 53.1408C425.998 64.1885 421.414 71.5706 408.046 73.4671C394.678 75.3636 389.029 74.1879 387.462 63.1403C385.894 52.0926 389.002 35.3564 402.37 33.4599Z"></path>
  </clipPath>
  <g clip-path="url(#cl_47)">
    <clipPath id="cl_48">
      <path d="M384.217 118.054L482.739 104.077C482.739 104.077 468.996 36.7611 424.29 44.4091C421.937 44.8118 419.908 45.7431 418.116 47.031C417.288 55.1151 414.688 70.5408 391.92 71.8858C382.414 93.0687 384.217 118.054 384.217 118.054Z"></path>
    </clipPath>
    <g clip-path="url(#cl_48)">
      <path fill="#857069" transform="matrix(1.69198 -0.240038 0.240038 1.69198 389.611 74.5695)" d="M-4.05312e-06 -16C8.83655 -16 12.0102 -8.83656 16.201 -1.45594e-06C20.3918 8.83655 8.83655 16 -3.57628e-06 16C-8.83656 16 -16 8.83656 -16 2.38419e-07C-16 -8.83656 -8.83656 -16 -4.05312e-06 -16Z"></path>
    </g>
  </g>
  <path fill="none" stroke="#010101" stroke-width="7" stroke-linejoin="round" transform="matrix(1.00146 0 0 1.00146 343 256)" d="M29.0691 -136.03C27.6173 -146.264 30.5426 -149.057 30.5426 -149.057C33.3717 -153.044 36.8528 -156.443 41.5035 -159.379"></path>
  <path fill="none" stroke="#010101" stroke-width="7" stroke-linejoin="round" transform="matrix(1.00146 0 0 1.00146 343 256)" d="M133.395 -172.536C140.194 -170.915 145.004 -168.328 147.843 -164.953C147.843 -164.953 151.989 -161.718 151.743 -154.906"></path>
  <path fill="#867CA2" transform="matrix(1.44842 0 0 1.31786 433.103 138.15)" d="M-3.8147e-06 -40C20.9426 -40 35.0096 -26.8589 47.8597 -2.20018C49.1253 -3.81499 50.3123 -3.57653 51.1974 -3.11682C52.0824 -2.65711 52.5509 -1.60562 52.2206 -0.665342C53.8523 0.0631991 55.2854 1.47333 55.8775 2.67698C56.9197 4.79566 57.6743 10.5072 53.7931 11.8212C58.5977 31.9882 20.3682 22.0914 -1.71109e-05 22.0914C-20.2357 22.0914 -45.0732 28.3281 -41.8836 12.9784C-44.6787 11.8212 -48.2008 8.95144 -46.5316 4.29175C-45.7036 1.98006 -43.8185 0.567089 -42.3936 0.566997C-41.0392 0.56691 -42.9934 -2.2 -40.2188 -3.81491C-39.0195 -4.51291 -37.7273 -4.43211 -36.6068 -4.12355C-28.0141 -23.7311 -20.4124 -40 -3.8147e-06 -40Z"></path>
  <path fill="#E3CEC2" transform="matrix(0.526751 -0.0747291 0.0747291 0.526751 372.112 119.772)" d="M-7.62939e-06 -3.05176e-05C-3.8147e-06 -19.4564 6.19047 -23.8887 6.19047 -23.8887C25.0053 -43.7609 53.1913 -52.4203 117 -52.4203C180.809 -52.4203 217.711 -40.5795 229.005 -22.5C229.005 -22.5 236.876 -14.3389 233 -3.05176e-05C233 -3.05176e-05 222.592 -33.1384 117.06 -33.1384C11.5269 -33.1384 -7.62939e-06 -3.05176e-05 -7.62939e-06 -3.05176e-05Z"></path>
  <path fill="#C9B1AA" transform="matrix(0.526751 -0.0747291 0.0215722 0.152058 433.478 111.066)" d="M1.48248e-05 -116.5C64.3412 -116.5 116.5 -64.3412 116.5 -6.10352e-05C116.333 7.78596 114.079 -0.846992 92.5947 -2.56891C90.1363 -68.6432 33.7083 -93.0965 2.05242 -93.0965C-33.7213 -93.0965 -91.7603 -68.5196 -92.7458 3.01559C-107.568 13.607 -116.5 28.5674 -116.5 -6.10352e-05C-116.5 -64.3412 -64.3412 -116.5 1.48248e-05 -116.5Z"></path>
  <clipPath id="cl_49">
    <path d="M402.37 33.4599C409.563 32.4396 419.887 32.8995 421.116 37.7471C422.748 44.1896 423.706 48.0368 424.43 53.1408C425.998 64.1885 421.414 71.5706 408.046 73.4671C394.678 75.3636 389.029 74.1879 387.462 63.1403C385.894 52.0926 389.002 35.3564 402.37 33.4599Z"></path>
  </clipPath>
  <g clip-path="url(#cl_49)">
    <path fill="#867CA2" transform="matrix(3.33157 -0.653943 0.653943 3.33157 407.179 69.2607)" d="M-5.16451 -6.50117C-5.16451 -12.7512 6 -12.7512 6 -6.50117C6 -0.251166 6 12.5 6 12.5L-6 12.5C-6 12.5 -5.16451 -0.251167 -5.16451 -6.50117Z"></path>
    <path fill="none" stroke="#636363" stroke-width="0.5" stroke-linecap="round" stroke-linejoin="round" transform="matrix(3.33157 -0.653943 0.653943 3.33157 407.382 50.3267)" d="M1.92589e-06 2.6499e-08L5.74058e-06 10.5382"></path>
  </g>
  <clipPath id="cl_4b">
    <path d="M433.103 85.4358C463.436 85.4358 483.811 102.754 502.424 135.251C504.257 133.122 505.976 133.437 507.258 134.043C508.54 134.648 509.218 136.034 508.74 137.273C511.104 138.233 513.179 140.092 514.037 141.678C515.546 144.47 516.639 151.997 511.018 153.729C517.977 180.306 462.604 167.263 433.103 167.263C403.793 167.263 367.818 175.482 372.438 155.254C368.389 153.729 363.288 149.947 365.705 143.806C366.905 140.76 369.635 138.897 371.699 138.897C373.661 138.897 370.83 135.251 374.849 133.123C376.586 132.203 378.458 132.309 380.081 132.716C392.527 106.876 403.537 85.4358 433.103 85.4358Z"></path>
  </clipPath>
  <g clip-path="url(#cl_4b)">
    <path fill="#9C91B9" transform="matrix(1.70248 0 0.00718207 1.70248 430.014 123.828)" d="M3.81202e-06 -5.5C3.866 -5.5 7 -2.92564 7 0.25C7 3.42564 3.866 6 3.81737e-06 6C-3.86599 6 -7 3.42564 -7 0.25C-7 -2.92564 -3.86599 -5.5 3.81202e-06 -5.5Z"></path>
    <path fill="#9C91B9" transform="matrix(1.7367 0 0.00718207 1.70248 479.715 116.123)" d="M-7.62695e-06 -5C2.76142 -5 4.99999 -2.6495 4.99999 0.25C4.99999 3.1495 2.76142 5.5 -7.63184e-06 5.5C-2.76143 5.5 -5.00001 3.1495 -5.00001 0.25C-5.00001 -2.6495 -2.76143 -5 -7.62695e-06 -5Z"></path>
    <path fill="none" stroke="#131212" stroke-width="1" stroke-linecap="round" stroke-linejoin="round" transform="matrix(2.182 -0.353477 0.259285 1.60056 459.126 109.79)" d="M4.30294e-06 7.21529e-06L2.92892 -0.71456"></path>
    <path fill="none" stroke="#131212" stroke-width="1" stroke-linecap="round" stroke-linejoin="round" transform="matrix(2.182 -0.353477 0.259285 1.60056 438.554 109.005)" d="M0 -7.77785e-06L4.25731 1.79212"></path>
    <path fill="#131212" transform="matrix(2.33716 -0.378612 0.383771 2.36901 451.592 111.947)" d="M3.3151e-06 -2.15485e-07L1.96141 0.352738L0.915093 1.42246L3.3151e-06 -2.15485e-07Z"></path>
    <path fill="none" stroke="#131212" stroke-width="0.5" stroke-linecap="round" stroke-linejoin="round" transform="matrix(1.83262 -0.296878 0.300923 1.85759 454.486 115.291)" d="M1.0783e-07 -0.711224L-3.70687e-06 1.1102"></path>
    <path fill="#32225E" transform="matrix(1.64843 0.417573 -0.40107 1.65095 448.61 104.507)" d="M5.74338e-08 -1.92716C1.62851 -1.92716 2.94867 -1.06435 2.94867 -7.58546e-06C2.94867 1.06433 1.62851 1.92715 -5.74338e-08 1.92715C-1.62851 1.92715 -2.94867 1.06433 -2.94867 -7.67333e-06C-2.94867 -1.06435 -1.62851 -1.92716 5.74338e-08 -1.92716Z"></path>
    <path fill="#32225E" transform="matrix(1.61937 0.410211 -0.390122 1.60588 459.197 103.68)" d="M-1.14724e-05 -1.89919C0.889978 -1.89919 1.61146 -1.04889 1.61146 -2.40127e-08C1.61146 1.04889 0.889978 1.89919 -1.14158e-05 1.89919C-0.89 1.89919 -1.61148 1.04889 -1.61148 2.40127e-08C-1.61148 -1.04889 -0.89 -1.89919 -1.14724e-05 -1.89919Z"></path>
  </g>
  <path fill="none" stroke="#565656" stroke-width="4" stroke-linejoin="round" transform="matrix(1.70248 0 0 1.70248 551.498 174.984)" d="M-11.7479 -12.9046C-11.318 -13.5165 -10.7601 -14.1187 -10.0572 -14.7065C-5.4735 -18.5399 3.93805 -16.1165 4.43082 -14.7065C7.46665 -16.1165 10.8961 -16.6614 15.0174 -13.9738C19.1387 -11.2862 16.2386 -4.86794 16.6118 -4.55445C16.985 -4.24095 25.2116 0.494539 17.5976 8.33765C16.6439 8.92035 15.7365 9.39702 14.8736 9.77867"></path>
  <path fill="#9C91B9" transform="matrix(1.70248 0 0 1.70248 551.498 174.984)" d="M-0.116447 -3.8147e-06C-2.60164 -0.663944 -7.05858 1.11792 -10.0572 -2.65577C-13.0559 -6.42945 -14.6409 -10.8732 -10.0572 -14.7065C-5.4735 -18.5399 3.93805 -16.1165 4.43082 -14.7065C7.46665 -16.1165 10.8961 -16.6614 15.0174 -13.9738C19.1387 -11.2862 16.2386 -4.86794 16.6118 -4.55445C16.985 -4.24095 25.2116 0.494539 17.5976 8.33765C2.9012 17.3171 -0.809979 1.11792 -0.116447 -3.8147e-06Z"></path>
  <path fill="none" stroke="#565656" stroke-width="6" stroke-linejoin="round" transform="matrix(1.70248 0 0 1.70248 379.447 267.34)" d="M-31.3182 -0.0774002C-31.1509 -39.8026 32.3485 -39.535 32.1812 0.190123C32.1099 17.1097 31.991 45.3346 31.9172 62.8691C31.8912 69.0299 23.3337 80.3095 0.092659 80.4821C-23.1483 80.6547 -31.6122 69.6979 -31.592 64.8959C-31.5177 47.2586 -31.3708 12.4088 -31.3182 -0.0774002Z"></path>
  <path fill="none" stroke="#565656" stroke-width="6" stroke-linecap="round" stroke-linejoin="bevel" transform="matrix(1.70248 0 0 1.58041 379.447 181.982)" d="M32.1295 38.2461C32.1562 46.1277 32.1792 52.91 32.191 56.4171C32.3363 99.3734 -31.1634 99.5805 -31.3087 56.6242C-31.3452 45.8409 -31.4122 26.0188 -31.4545 13.5332C-31.4967 1.04763 -25.2957 -16.8123 -9.21602 -16.8754C-7.4449 -16.8824 -5.82289 -16.8887 -4.32918 -16.8946"></path>
  <path fill="#867CA2" transform="matrix(1.70248 0 0 1.70248 379.447 267.34)" d="M-31.3182 -0.0774016C-31.1439 -41.4525 32.3555 -41.1849 32.1812 0.190122C32.1099 17.1097 31.991 45.3346 31.9172 62.8691C31.8912 69.0299 23.3337 80.3095 0.092659 80.4821C-23.1483 80.6547 -31.6122 69.6979 -31.592 64.8959C-31.5177 47.2586 -31.3708 12.4088 -31.3182 -0.0774016Z"></path>
  <path fill="#867CA2" transform="matrix(1.70248 0 0 1.58041 379.447 181.982)" d="M-31.4545 13.5332C-31.4967 1.04762 -25.2957 -16.8123 -9.21602 -16.8754C6.86368 -16.9385 10.6536 -16.9534 17.7178 -16.9811C24.782 -17.0089 31.9561 -13.034 32.0092 2.66797C32.0623 18.3699 32.1613 47.6431 32.191 56.4171C32.3188 94.2019 -31.1809 94.409 -31.3087 56.6242C-31.3452 45.8409 -31.4122 26.0188 -31.4545 13.5332Z"></path>
</svg>