<?xml version="1.0" encoding="utf-8"?>
<svg xmlns="http://www.w3.org/2000/svg" xmlns:xlink="http://www.w3.org/1999/xlink" width="686" height="512">
  <path fill="none" stroke="black" stroke-width="7" stroke-linejoin="round" transform="matrix(1.8047 -3.73073e-09 3.73073e-09 1.8047 256.895 489.115)" d="M-11.0982 -37.4828C-8.90955 -55.5764 -0.141159 -67.2908 43.8866 -62.2236C72.7836 -59.2878 81.943 -50.8038 80.4849 -40.385C79.0268 -29.9663 78.1496 -21.3713 77.0586 -11.0956C75.7745 -0.711365 64.1435 3.33551 35.29 0.405579C-10.9056 -4.61224 -13.2869 -19.3894 -11.0982 -37.4828Z"></path>
  <path fill="none" stroke="black" stroke-width="7" stroke-linejoin="round" transform="matrix(-2.15907 -3.21357e-07 -3.1872e-07 2.14135 402.476 352.588)" d="M18.4249 -58.663C21.7945 -54.1681 27.9211 -39.0214 27.8783 -35.094C27.8355 -31.1666 32.2355 -22.2521 30.9557 2.08303C29.7398 30.9469 25.3067 54.0363 0.042429 53.1161C-15.8146 52.437 -27.2874 28.5047 -26.0716 -0.359142C-24.5472 -36.5461 1.14599 -64.9291 18.4249 -58.663Z"></path>
  <path fill="none" stroke="black" stroke-width="7" stroke-linejoin="round" transform="matrix(1.80446 0.0294411 -0.0294411 1.80446 312.537 353.757)" d="M0.209626 -80.0966C37.3348 -80.0966 84.5 -60 84.5 0C84.5 41.1452 46.7396 76.2788 0.209626 76.2788C-62.1658 76.2788 -84 60.12 -84 0C-84 -71.2881 -50.5087 -80.0966 0.209626 -80.0966Z"></path>
  <path fill="none" stroke="black" stroke-width="7" stroke-linejoin="round" transform="matrix(1.54072 -3.18503e-09 3.73073e-09 1.8047 355.251 477.385)" d="M-18.3049 -36.3049C-16.0202 -51.7417 -6.0645 -63.8963 51.5216 -57.5203C67.6665 -56.1088 94.4257 -47.8212 92.4974 -36.2603C90.5691 -24.6994 89.7042 -19.5136 87.984 -9.2004C86.2639 1.11278 59.3929 -0.207214 43.248 -1.61873C-16.9229 -8.00606 -20.5896 -20.8681 -18.3049 -36.3049Z"></path>
  <path fill="#6C88D9" transform="matrix(-2.15907 -3.21357e-07 -3.1872e-07 2.14135 402.476 352.588)" d="M18.4249 -58.663C21.7945 -54.1681 27.9211 -39.0214 27.8783 -35.094C27.8355 -31.1666 32.2355 -22.2521 30.9557 2.08303C29.7398 30.9469 25.3067 54.0363 0.042429 53.1161C-15.8146 52.437 -27.2874 28.5047 -26.0716 -0.359142C-24.5472 -36.5461 1.14599 -64.9291 18.4249 -58.663Z"></path>
  <path fill="#5170C8" transform="matrix(1.54072 -3.18503e-09 3.73073e-09 1.8047 355.251 477.385)" d="M-18.3049 -36.3049C-16.0202 -51.7417 -6.0645 -63.8963 51.5216 -57.5203C67.6665 -56.1088 94.4257 -47.8212 92.4974 -36.2603C90.5691 -24.6994 89.7042 -19.5136 87.984 -9.2004C86.2639 1.11278 59.3929 -0.207214 43.248 -1.61873C-16.9229 -8.00606 -20.5896 -20.8681 -18.3049 -36.3049Z"></path>
  <path fill="#839BE0" transform="matrix(1.20641 -2.49394e-09 2.92124e-09 1.41311 355.251 477.385)" d="M-8.61019 -44.7723C-6.3255 -60.2091 3.65819 -71.8858 66.481 -65.0543C87.2534 -62.3773 103.628 -52.8801 101.7 -41.3193C99.7714 -29.7584 99.8547 -29.8991 98.1345 -19.5859C96.4144 -9.27277 78.9798 -6.47572 58.2073 -9.15279C-7.20025 -15.9956 -10.8949 -29.3355 -8.61019 -44.7723Z"></path>
  <path fill="#6C88D9" transform="matrix(1.8047 -3.73073e-09 3.73073e-09 1.8047 256.895 489.115)" d="M-11.0982 -37.4828C-8.90955 -55.5764 -0.141159 -67.2908 43.8866 -62.2236C72.7836 -59.2878 81.943 -50.8038 80.4849 -40.385C79.0268 -29.9663 78.1496 -21.3713 77.0586 -11.0956C75.7745 -0.711365 64.1435 3.33551 35.29 0.405579C-10.9056 -4.61224 -13.2869 -19.3894 -11.0982 -37.4828Z"></path>
  <path fill="#91A8EB" transform="matrix(-1.68124 -2.50237e-07 -3.12059e-07 2.0966 398.476 346.86)" d="M20.2864 -52.2364C42.4347 -51.4821 34.2247 -26.9092 31.077 1.601C27.9293 30.1112 14.8084 53.0387 -0.641659 52.5125C-16.0917 51.9863 -26.9984 28.3127 -25.4787 -0.380257C-23.9589 -29.0732 -1.86188 -52.9908 20.2864 -52.2364Z"></path>
  <path fill="none" stroke="black" stroke-width="7" stroke-miterlimit="4" transform="matrix(1.80446 0.0294411 -0.0294411 1.80446 270.977 190.635)" d="M0 -29.5C19.0538 -29.5 34.5 -16.1805 34.5 0.249996C34.5 16.6805 19.0538 30 0 30C-19.0538 30 -34.5 16.6805 -34.5 0.249996C-34.5 -16.1805 -19.0538 -29.5 0 -29.5Z"></path>
  <path fill="#6C88D9" transform="matrix(1.80446 0.0294411 -0.0294411 1.80446 312.537 353.757)" d="M0.209626 -80.0966C37.3348 -80.0966 84.5 -60 84.5 0C84.5 41.1452 46.7396 76.2788 0.209626 76.2788C-62.1658 76.2788 -84 60.12 -84 0C-84 -71.2881 -50.5087 -80.0966 0.209626 -80.0966Z"></path>
  <path fill="none" stroke="black" stroke-width="9" stroke-miterlimit="4" transform="matrix(1.00146 0 0 1.00146 343 256)" d="M-98.2572 -123.153C-83.4576 -122.912 -71.629 -112.371 -71.8372 -99.6087C-72.0455 -86.8468 -84.2117 -76.6969 -99.0112 -76.9384C-113.811 -77.1799 -125.639 -87.7212 -125.431 -100.483C-125.223 -113.245 -113.057 -123.395 -98.2572 -123.153Z"></path>
  <path fill="none" stroke="black" stroke-width="9" stroke-miterlimit="4" transform="matrix(1.00146 0 0 1.00146 343 256)" d="M-113.788 -108.224C-101.474 -108.023 -91.6325 -99.2523 -91.8058 -88.6339C-91.979 -78.0156 -102.102 -69.5706 -114.415 -69.7715C-126.729 -69.9724 -136.571 -78.7431 -136.398 -89.3615C-136.224 -99.9798 -126.102 -108.425 -113.788 -108.224Z"></path>
  <path fill="none" stroke="black" stroke-width="9" stroke-miterlimit="4" transform="matrix(1.00146 0 0 1.00146 343 256)" d="M-133.818 -132.586C-127.129 -132.477 -121.783 -127.712 -121.877 -121.945C-121.972 -116.177 -127.47 -111.59 -134.159 -111.699C-140.848 -111.808 -146.194 -116.572 -146.099 -122.34C-146.005 -128.108 -140.507 -132.695 -133.818 -132.586Z"></path>
  <path fill="#6C88D9" transform="matrix(1.80446 0.0294411 -0.0294411 1.80446 270.977 190.635)" d="M0 -29.5C19.0538 -29.5 34.5 -16.1805 34.5 0.249996C34.5 16.6805 19.0538 30 0 30C-19.0538 30 -34.5 16.6805 -34.5 0.249996C-34.5 -16.1805 -19.0538 -29.5 0 -29.5Z"></path>
  <path fill="#6C88D9" transform="matrix(0.777858 0.0126914 -0.0126914 0.777858 244.225 155.614)" d="M0 -29.5C19.0538 -29.5 34.5 -16.1805 34.5 0.250008C34.5 16.6805 19.0538 30 0 30C-19.0538 30 -34.5 16.6805 -34.5 0.250008C-34.5 -16.1805 -19.0538 -29.5 0 -29.5Z"></path>
  <path fill="#6C88D9" transform="matrix(0.647202 0.0105596 -0.0105596 0.647202 228.734 166.711)" d="M-1.52034e-05 -29.5C19.0538 -29.5 34.5 -16.1805 34.5 0.25C34.5 16.6805 19.0538 30 -1.53142e-05 30C-19.0538 30 -34.5 16.6805 -34.5 0.25C-34.5 -16.1805 -19.0538 -29.5 -1.52034e-05 -29.5Z"></path>
  <path fill="#6C88D9" transform="matrix(0.351555 0.0057359 -0.0057359 0.351555 208.817 133.592)" d="M-3.05176e-05 -29.5C19.0538 -29.5 34.5 -16.1805 34.5 0.25C34.5 16.6805 19.0538 30 -3.05176e-05 30C-19.0539 30 -34.5 16.6805 -34.5 0.25C-34.5 -16.1805 -19.0539 -29.5 -3.05176e-05 -29.5Z"></path>
  <path fill="#91A8EB" transform="matrix(1.51307 0.0246868 -0.0246868 1.51307 311.169 353.757)" d="M0.24998 -81.5196C49.8787 -81.2985 84.5 -60 84.5 0C84.5 41.1452 46.78 74.5 0.25 74.5C-62.1254 74.5 -84 60.12 -84 0C-84 -71.2881 -62.1254 -81.5197 0.24998 -81.5196Z"></path>
  <clipPath id="cl_6c">
    <path d="M315.273 209.232C382.264 210.325 466.78 247.977 465.013 356.245C463.802 430.489 394.631 492.775 310.669 491.405C198.116 489.568 159.193 459.768 160.963 351.284C163.061 222.648 223.754 207.739 315.273 209.232Z"></path>
  </clipPath>
  <g clip-path="url(#cl_6c)">
    <path fill="#A6B8EF" transform="matrix(0.808055 0.0131841 -0.0152049 0.931916 366.972 318.543)" d="M0.24998 -81.5196C49.8787 -81.2985 84.5 -60 84.5 0C84.5 41.1452 67.1354 74.5 20.6054 74.5C-41.77 74.5 -84 60.12 -84 0C-84 -71.2881 -62.1254 -81.5197 0.24998 -81.5196Z"></path>
    <path fill="#C1CBE8" transform="matrix(0.198512 -0.203255 0.446866 0.436437 390.133 269.567)" d="M11.5671 -77.0972C58.0971 -77.0972 97.5959 -41.1452 97.5959 -1.52588e-05C97.5959 41.1452 73.4188 83.0524 26.8888 83.0524C-35.4866 83.0524 11.8086 60.12 11.8086 -1.52588e-05C11.8086 -41.1452 -34.9629 -77.0972 11.5671 -77.0972Z"></path>
    <path fill="#C1CBE8" transform="matrix(0.198512 -0.203255 0.184682 0.180372 434.691 334.091)" d="M48.9301 -79.7642C80.6763 -79.0529 77.4946 -42.8889 62.8508 4.00565C48.2069 50.9001 -0.0393707 91.2963 -20.4536 67.777C-40.8678 44.2576 -16.8141 31.8032 -0.458948 -5.13881C15.8962 -42.0808 17.1838 -80.4755 48.9301 -79.7642Z"></path>
  </g>
  <path fill="#91A8EB" transform="matrix(1.38307 -2.85912e-09 2.85912e-09 1.38307 256.895 425.951)" d="M-0.603024 -1.56094C1.58563 -19.6545 2.48464 -33.3156 53.6788 -27.503C78.9535 -24.213 92.5629 -14.9009 91.1049 -4.48221C89.6469 5.93652 88.7696 14.5315 87.6786 24.8072C86.5098 35.1214 69.0898 40.5085 43.8151 37.2185C-9.54631 31.4559 -2.79168 16.5326 -0.603024 -1.56094Z"></path>
  <path fill="#91A8EB" transform="matrix(1.80446 0.0294411 -0.0294411 1.80446 270.977 190.635)" d="M0 -22.5C14.6355 -22.5 26.5 -12.3145 26.5 0.249996C26.5 12.8145 14.6355 23 0 23C-14.6355 23 -26.5 12.8145 -26.5 0.249996C-26.5 -12.3145 -14.6355 -22.5 0 -22.5Z"></path>
  <path fill="#91A8EB" transform="matrix(0.608457 0.00992746 -0.00992746 0.608457 244.225 157.826)" d="M0 -22.5C14.6355 -22.5 26.5 -12.3145 26.5 0.250015C26.5 12.8145 14.6355 23 0 23C-14.6355 23 -26.5 12.8145 -26.5 0.250015C-26.5 -12.3145 -14.6355 -22.5 0 -22.5Z"></path>
  <path fill="#91A8EB" transform="matrix(0.506256 0.00825995 -0.00825995 0.506256 228.734 168.552)" d="M1.52588e-05 -22.5C14.6356 -22.5 26.5 -12.3145 26.5 0.25C26.5 12.8145 14.6356 23 1.52588e-05 23C-14.6355 23 -26.5 12.8145 -26.5 0.25C-26.5 -12.3145 -14.6355 -22.5 1.52588e-05 -22.5Z"></path>
  <path fill="#91A8EB" transform="matrix(0.274994 0.00448674 -0.00448674 0.274994 209.816 135.68)" d="M-3.05176e-05 -22.4261C14.2961 -22.4261 25.8855 -12.274 25.8855 0.249268C25.8855 12.7726 14.2961 22.9247 -3.05176e-05 22.9247C-14.2962 22.9247 -25.8855 12.7726 -25.8855 0.249268C-25.8855 -12.274 -14.2962 -22.4261 -3.05176e-05 -22.4261Z"></path>
  <path fill="#C1CBE8" transform="matrix(0.0740086 -0.115129 0.264569 0.170073 206.047 133.073)" d="M4.57764e-05 -11.5C14.6356 -11.5 28.0061 -7.98328 28.0061 -1.63201C28.0061 4.71926 15.5059 0.400185 0.870402 0.400186C-13.7651 0.400185 -26.766 4.37689 -26.766 -1.97439C-26.766 -8.32566 -14.6355 -11.5 4.57764e-05 -11.5Z"></path>
  <path fill="#C1CBE8" transform="matrix(-0.167276 -0.57196 0.882738 -0.258167 228.642 194.996)" d="M0 -11.5C14.6355 -11.5 28.0061 -7.98328 28.0061 -1.63201C28.0061 4.71927 15.5059 0.400186 0.870357 0.400186C-13.7652 0.400184 -26.766 4.37689 -26.766 -1.97439C-26.766 -8.32566 -14.6355 -11.5 0 -11.5Z"></path>
  <path fill="#1B2B56" transform="matrix(1.79135 -0.21905 0.065715 0.537406 283.02 167.449)" d="M1.90735e-06 -2.5C1.38071 -2.5 2.5 -1.38071 2.5 0C2.5 1.38071 1.38071 2.5 1.90735e-06 2.5C-1.38071 2.5 -2.5 1.38071 -2.5 0C-2.5 -1.38071 -1.38071 -2.5 1.90735e-06 -2.5Z"></path>
  <path fill="none" stroke="#1B2B56" stroke-width="0.5" stroke-linecap="round" stroke-linejoin="round" transform="matrix(1.78754 -0.248244 0.248244 1.78754 291.686 166.335)" d="M1.98548 0.277981C2.99639 0.254547 6.02909 0.184244 6.02909 0.184244"></path>
  <path fill="#1B2B56" transform="matrix(1.79135 -0.21905 0.065715 0.537406 311.681 163.945)" d="M1.90735e-06 -2.5C1.38071 -2.5 2.5 -1.38071 2.5 0C2.5 1.38071 1.38071 2.5 1.90735e-06 2.5C-1.38071 2.5 -2.5 1.38071 -2.5 0C-2.5 -1.38071 -1.38071 -2.5 1.90735e-06 -2.5Z"></path>
  <path fill="#354B89" transform="matrix(1.46889 -0.887314 0.931996 0.727112 303.437 156.994)" d="M0 -2.50001C1.38071 -2.50001 2.5 -1.38072 2.5 -7.48038e-06C2.5 1.3807 1.38071 2.49999 0 2.49999C-1.38071 2.49999 -2.5 1.3807 -2.5 -7.77841e-06C-2.5 -1.38072 -1.38071 -2.50001 0 -2.50001Z"></path>
  <path fill="#354B89" transform="matrix(2.16819 0.297712 -0.631481 1.0761 287.423 157.936)" d="M-3.90367e-06 -2.98534C1.68305 -2.98534 3.04744 -1.64876 3.04744 0C3.04744 1.64876 1.68305 2.98534 -3.72573e-06 2.98534C-1.68306 2.98534 -3.04744 1.64876 -3.04744 0C-3.04744 -1.64876 -1.68306 -2.98534 -3.90367e-06 -2.98534Z"></path>
  <path fill="none" stroke="black" stroke-width="7" stroke-linecap="round" stroke-linejoin="round" transform="matrix(2.15907 -4.46329e-09 4.42666e-09 2.14135 196.047 362.277)" d="M26.5996 -28.4242C27.9611 -22.5993 29.5111 -13.4955 29.0425 1.03399C28.1823 29.9082 22.8908 53.4219 -2.36454 52.2795C-18.2151 51.461 -28.8578 28.1812 -27.9979 -0.683384C-27.4977 -23.8969 -17.1727 -44.1458 -5.21257 -54.0293"></path>
  <path fill="#6C88D9" transform="matrix(2.15907 -4.46329e-09 4.42666e-09 2.14135 196.047 362.277)" d="M14.5389 -59.7336C18.0571 -55.3559 24.687 -40.4262 24.7757 -36.4996C24.8644 -32.573 29.8342 -23.5121 29.0425 1.03399C28.1823 29.9082 22.8908 53.4219 -2.36454 52.2795C-18.2151 51.461 -28.8578 28.1812 -27.9979 -0.683384C-27.2241 -36.593 -2.9398 -65.4083 14.5389 -59.7336Z"></path>
  <path fill="#91A8EB" transform="matrix(1.68124 -3.47551e-09 4.33415e-09 2.0966 200.047 356.549)" d="M15.5048 -53.3058C37.6722 -53.1511 29.8216 -28.7104 28.4962 -0.338558C27.6264 28.2615 18.2832 51.5474 2.84 52.1905C-12.6031 52.8337 -27.3072 29.2799 -28.0759 0.58083C-28.4013 -28.4556 -6.66261 -53.4604 15.5048 -53.3058Z"></path>
  <path fill="none" stroke="white" stroke-width="5" stroke-linecap="round" stroke-linejoin="round" transform="matrix(1.50219 0 0 1.50219 258.877 362.655)" d=""></path>
  <path fill="none" stroke="white" stroke-width="5" stroke-linecap="round" stroke-linejoin="round" transform="matrix(1.11139 0 0 1.11139 243.355 245.985)" d=""></path>
</svg>