<?xml version="1.0" encoding="utf-8"?>
<svg xmlns="http://www.w3.org/2000/svg" xmlns:xlink="http://www.w3.org/1999/xlink" width="686" height="512">
  <path fill="none" stroke="black" stroke-width="7" stroke-linejoin="round" transform="matrix(1.77286 3.73073e-09 -3.73073e-09 1.77286 257.796 487.981)" d="M-11.0982 -37.4829C-8.90955 -55.5764 -0.141178 -67.2908 43.8866 -62.2236C72.7837 -59.2878 81.943 -50.8038 80.4849 -40.3851C79.0269 -29.9664 78.1496 -21.3714 77.0586 -11.0956C75.7745 -0.71138 64.1436 3.33546 35.2901 0.405579C-10.9056 -4.61226 -13.2869 -19.3894 -11.0982 -37.4829Z"></path>
  <path fill="none" stroke="black" stroke-width="7" stroke-linejoin="round" transform="matrix(-2.12098 -3.2582e-07 -3.23146e-07 2.10358 400.809 353.862)" d="M18.4248 -58.663C21.7944 -54.1681 27.9211 -39.0214 27.8783 -35.094C27.8355 -31.1666 32.2355 -22.2521 30.9557 2.08299C29.7398 30.9469 25.3066 54.0363 0.0423775 53.1161C-15.8147 52.4371 -27.2875 28.5047 -26.0716 -0.35918C-24.5473 -36.5461 1.14598 -64.9291 18.4248 -58.663Z"></path>
  <path fill="none" stroke="black" stroke-width="7" stroke-linejoin="round" transform="matrix(1.77263 0.0289218 -0.0289218 1.77263 312.456 355.01)" d="M0.209625 -80.0966C37.3348 -80.0966 84.5 -60 84.5 -3.97163e-06C84.5 41.1452 46.7396 76.2788 0.209625 76.2788C-62.1658 76.2788 -84 60.12 -84 -3.65777e-06C-84 -71.2881 -50.5087 -80.0966 0.209625 -80.0966Z"></path>
  <path fill="none" stroke="black" stroke-width="7" stroke-linejoin="round" transform="matrix(1.51354 3.18503e-09 -3.73073e-09 1.77286 354.417 476.457)" d="M-18.305 -36.3049C-16.0203 -51.7417 -6.06448 -63.8963 51.5216 -57.5202C67.6666 -56.1088 94.4257 -47.8212 92.4974 -36.2603C90.5692 -24.6995 89.7042 -19.5136 87.9841 -9.20041C86.2639 1.11277 59.393 -0.207214 43.248 -1.61862C-16.9229 -8.006 -20.5897 -20.8681 -18.305 -36.3049Z"></path>
  <path fill="#6C88D9" transform="matrix(-2.12098 -3.2582e-07 -3.23146e-07 2.10358 400.809 353.862)" d="M18.4248 -58.663C21.7945 -54.1681 27.9211 -39.0214 27.8783 -35.094C27.8355 -31.1666 32.2355 -22.2521 30.9557 2.08299C29.7398 30.9469 25.3066 54.0363 0.0423794 53.1161C-15.8147 52.4371 -27.2875 28.5047 -26.0716 -0.35918C-24.5473 -36.5461 1.14598 -64.9291 18.4248 -58.663Z"></path>
  <path fill="#5170C8" transform="matrix(1.51354 3.18503e-09 -3.73073e-09 1.77286 354.417 476.457)" d="M-18.305 -36.3049C-16.0203 -51.7417 -6.06448 -63.8963 51.5216 -57.5202C67.6666 -56.1088 94.4257 -47.8212 92.4974 -36.2603C90.5692 -24.6995 89.7042 -19.5136 87.9841 -9.20041C86.2639 1.11277 59.393 -0.207214 43.248 -1.61862C-16.9229 -8.006 -20.5897 -20.8681 -18.305 -36.3049Z"></path>
  <path fill="#839BE0" transform="matrix(1.18514 2.49394e-09 -2.92124e-09 1.38819 354.417 476.457)" d="M-8.61028 -44.7723C-6.32558 -60.2091 3.65825 -71.8858 66.4809 -65.0542C87.2534 -62.3773 103.628 -52.8802 101.7 -41.3194C99.7715 -29.7585 99.8547 -29.8992 98.1346 -19.586C96.4144 -9.2728 78.9798 -6.47577 58.2073 -9.15268C-7.20025 -15.9955 -10.895 -29.3355 -8.61028 -44.7723Z"></path>
  <path fill="#6C88D9" transform="matrix(1.77286 3.73073e-09 -3.73073e-09 1.77286 257.796 487.981)" d="M-11.0982 -37.4829C-8.90955 -55.5764 -0.141178 -67.2908 43.8866 -62.2236C72.7837 -59.2878 81.943 -50.8038 80.4849 -40.3851C79.0269 -29.9664 78.1496 -21.3714 77.0586 -11.0956C75.7745 -0.71138 64.1436 3.33546 35.2901 0.405579C-10.9056 -4.61226 -13.2869 -19.3894 -11.0982 -37.4829Z"></path>
  <path fill="#91A8EB" transform="matrix(-1.65158 -2.53713e-07 -3.16393e-07 2.05962 396.879 348.235)" d="M20.2864 -52.2365C42.4347 -51.4821 34.2246 -26.9093 31.077 1.60097C27.9293 30.1112 14.8084 53.0388 -0.641701 52.5126C-16.0917 51.9863 -26.9984 28.3127 -25.4787 -0.38028C-23.9589 -29.0732 -1.86189 -52.9908 20.2864 -52.2365Z"></path>
  <path fill="none" stroke="black" stroke-width="7" stroke-miterlimit="4" transform="matrix(1.77263 0.0289218 -0.0289218 1.77263 271.63 194.765)" d="M3.75928e-06 -29.5C19.0538 -29.5 34.5 -16.1805 34.5 0.250004C34.5 16.6805 19.0538 30 3.87011e-06 30C-19.0538 30 -34.5 16.6805 -34.5 0.250004C-34.5 -16.1805 -19.0538 -29.5 3.75928e-06 -29.5Z"></path>
  <path fill="#6C88D9" transform="matrix(1.77263 0.0289218 -0.0289218 1.77263 312.456 355.01)" d="M0.209625 -80.0966C37.3348 -80.0966 84.5 -60 84.5 -3.97163e-06C84.5 41.1452 46.7396 76.2788 0.209625 76.2788C-62.1658 76.2788 -84 60.12 -84 -3.65777e-06C-84 -71.2881 -50.5087 -80.0966 0.209625 -80.0966Z"></path>
  <path fill="none" stroke="black" stroke-width="9" stroke-miterlimit="4" transform="matrix(1.00146 0 0 1.00146 343 256)" d="M-97.1414 -118.008C-82.6029 -117.771 -70.9829 -107.415 -71.1875 -94.8785C-71.392 -82.3416 -83.3437 -72.3708 -97.8822 -72.608C-112.421 -72.8452 -124.041 -83.2007 -123.836 -95.7375C-123.632 -108.274 -111.68 -118.245 -97.1414 -118.008Z"></path>
  <path fill="none" stroke="black" stroke-width="9" stroke-miterlimit="4" transform="matrix(1.00146 0 0 1.00146 343 256)" d="M-112.398 -103.342C-100.302 -103.144 -90.6336 -94.5283 -90.8038 -84.0973C-90.974 -73.6662 -100.918 -65.3702 -113.015 -65.5676C-125.111 -65.7649 -134.779 -74.381 -134.609 -84.812C-134.439 -95.243 -124.495 -103.539 -112.398 -103.342Z"></path>
  <path fill="none" stroke="black" stroke-width="9" stroke-miterlimit="4" transform="matrix(1.00146 0 0 1.00146 343 256)" d="M-132.075 -127.274C-125.504 -127.167 -120.253 -122.487 -120.345 -116.821C-120.438 -111.154 -125.839 -106.648 -132.41 -106.755C-138.981 -106.863 -144.232 -111.543 -144.14 -117.209C-144.047 -122.875 -138.646 -127.381 -132.075 -127.274Z"></path>
  <path fill="#6C88D9" transform="matrix(1.77263 0.0289218 -0.0289218 1.77263 271.63 194.765)" d="M3.75928e-06 -29.5C19.0538 -29.5 34.5 -16.1805 34.5 0.250004C34.5 16.6805 19.0538 30 3.87011e-06 30C-19.0538 30 -34.5 16.6805 -34.5 0.250004C-34.5 -16.1805 -19.0538 -29.5 3.75928e-06 -29.5Z"></path>
  <path fill="#6C88D9" transform="matrix(0.764138 0.0124675 -0.0124675 0.764138 245.349 160.362)" d="M0 -29.5C19.0538 -29.5 34.5 -16.1805 34.5 0.249992C34.5 16.6805 19.0538 30 0 30C-19.0538 30 -34.5 16.6805 -34.5 0.249992C-34.5 -16.1805 -19.0538 -29.5 0 -29.5Z"></path>
  <path fill="#6C88D9" transform="matrix(0.635786 0.0103734 -0.0103734 0.635786 230.132 171.263)" d="M0 -29.5C19.0538 -29.5 34.5 -16.1805 34.5 0.250015C34.5 16.6805 19.0538 30 0 30C-19.0538 30 -34.5 16.6805 -34.5 0.250015C-34.5 -16.1805 -19.0538 -29.5 0 -29.5Z"></path>
  <path fill="#6C88D9" transform="matrix(0.345354 0.00563473 -0.00563473 0.345354 210.566 138.728)" d="M3.05176e-05 -29.5C19.0539 -29.5 34.5 -16.1805 34.5 0.249969C34.5 16.6804 19.0539 30 3.05176e-05 30C-19.0538 30 -34.5 16.6804 -34.5 0.249969C-34.5 -16.1805 -19.0538 -29.5 3.05176e-05 -29.5Z"></path>
  <path fill="#91A8EB" transform="matrix(1.48638 0.0242514 -0.0242514 1.48638 311.112 355.01)" d="M0.24998 -81.5196C49.8787 -81.2985 84.5 -60 84.5 -1.56928e-07C84.5 41.1452 46.78 74.5 0.25 74.5C-62.1254 74.5 -84 60.12 -84 1.56928e-07C-84 -71.2881 -62.1254 -81.5196 0.24998 -81.5196Z"></path>
  <clipPath id="cl_66">
    <path d="M315.144 213.035C380.953 214.108 463.978 251.096 462.243 357.454C461.053 430.389 393.102 491.576 310.621 490.23C200.053 488.426 161.816 459.151 163.555 352.581C165.617 226.214 225.239 211.568 315.144 213.035Z"></path>
  </clipPath>
  <g clip-path="url(#cl_66)">
    <path fill="#A6B8EF" transform="matrix(0.793803 0.0129515 -0.0149367 0.915479 365.931 320.418)" d="M0.249982 -81.5196C49.8788 -81.2985 84.5 -60 84.5 7.70786e-06C84.5 41.1452 67.1354 74.5 20.6054 74.5C-41.77 74.5 -84 60.12 -84 7.55093e-06C-84 -71.2881 -62.1254 -81.5196 0.249982 -81.5196Z"></path>
    <path fill="#C1CBE8" transform="matrix(0.19501 -0.19967 0.438984 0.428739 388.683 272.305)" d="M11.5671 -77.0972C58.0971 -77.0972 97.5959 -41.1452 97.5959 -1.67094e-05C97.5959 41.1452 73.4188 83.0524 26.8888 83.0524C-35.4866 83.0524 11.8086 60.12 11.8086 -1.5431e-05C11.8086 -41.1452 -34.9629 -77.0972 11.5671 -77.0972Z"></path>
    <path fill="#C1CBE8" transform="matrix(0.19501 -0.19967 0.181425 0.17719 432.455 335.691)" d="M48.9301 -79.7642C80.6763 -79.0529 77.4946 -42.8888 62.8508 4.00568C48.2069 50.9002 -0.0393677 91.2964 -20.4536 67.777C-40.8678 44.2577 -16.8141 31.8032 -0.458942 -5.13878C15.8962 -42.0808 17.1838 -80.4755 48.9301 -79.7642Z"></path>
  </g>
  <path fill="#91A8EB" transform="matrix(1.35867 2.85912e-09 -2.85912e-09 1.35867 257.796 425.931)" d="M-0.60302 -1.56099C1.58561 -19.6545 2.48466 -33.3156 53.6788 -27.503C78.9535 -24.2131 92.5629 -14.901 91.1049 -4.4823C89.6469 5.93645 88.7695 14.5314 87.6786 24.8071C86.5098 35.1213 69.0898 40.5084 43.8151 37.2184C-9.54631 31.4559 -2.79169 16.5325 -0.60302 -1.56099Z"></path>
  <path fill="#91A8EB" transform="matrix(1.77263 0.0289218 -0.0289218 1.77263 271.63 194.765)" d="M3.77232e-06 -22.5C14.6356 -22.5 26.5 -12.3145 26.5 0.250004C26.5 12.8145 14.6356 23 3.85707e-06 23C-14.6355 23 -26.5 12.8145 -26.5 0.250004C-26.5 -12.3145 -14.6355 -22.5 3.77232e-06 -22.5Z"></path>
  <path fill="#91A8EB" transform="matrix(0.597725 0.00975235 -0.00975235 0.597725 245.349 162.536)" d="M-1.52164e-05 -22.5C14.6355 -22.5 26.5 -12.3145 26.5 0.25C26.5 12.8145 14.6355 23 -1.53012e-05 23C-14.6356 23 -26.5 12.8145 -26.5 0.25C-26.5 -12.3145 -14.6356 -22.5 -1.52164e-05 -22.5Z"></path>
  <path fill="#91A8EB" transform="matrix(0.497326 0.00811426 -0.00811426 0.497326 230.132 173.072)" d="M-4.23752e-08 -22.5C14.6355 -22.5 26.5 -12.3145 26.5 0.249985C26.5 12.8145 14.6355 23 4.23752e-08 23C-14.6355 23 -26.5 12.8145 -26.5 0.249985C-26.5 -12.3145 -14.6355 -22.5 -4.23752e-08 -22.5Z"></path>
  <path fill="#91A8EB" transform="matrix(0.270144 0.00440761 -0.00440761 0.270144 211.547 140.78)" d="M3.05176e-05 -22.4261C14.2962 -22.4261 25.8855 -12.274 25.8855 0.249268C25.8855 12.7726 14.2962 22.9247 3.05176e-05 22.9247C-14.2961 22.9247 -25.8855 12.7726 -25.8855 0.249268C-25.8855 -12.274 -14.2961 -22.4261 3.05176e-05 -22.4261Z"></path>
  <path fill="#C1CBE8" transform="matrix(0.0727032 -0.113099 0.259902 0.167073 207.845 138.219)" d="M1.38879e-05 -11.5C14.6356 -11.5 28.0061 -7.98328 28.0061 -1.63201C28.0061 4.71927 15.5059 0.400186 0.870372 0.400186C-13.7652 0.400184 -26.766 4.37689 -26.766 -1.97439C-26.766 -8.32566 -14.6355 -11.5 1.38879e-05 -11.5Z"></path>
  <path fill="#C1CBE8" transform="matrix(-0.164326 -0.561872 0.867168 -0.253613 230.041 199.049)" d="M0 -11.5C14.6355 -11.5 28.0061 -7.98328 28.0061 -1.63201C28.0061 4.71927 15.5059 0.400186 0.870357 0.400186C-13.7652 0.400184 -26.766 4.37689 -26.766 -1.97439C-26.766 -8.32566 -14.6355 -11.5 0 -11.5Z"></path>
  <path fill="#1B2B56" transform="matrix(1.75976 -0.215186 0.0645559 0.527927 283.459 171.989)" d="M-1.90735e-06 -2.5C1.38071 -2.5 2.5 -1.38071 2.5 0C2.5 1.38071 1.38071 2.5 -1.90735e-06 2.5C-1.38071 2.5 -2.5 1.38071 -2.5 0C-2.5 -1.38071 -1.38071 -2.5 -1.90735e-06 -2.5Z"></path>
  <path fill="none" stroke="#1B2B56" stroke-width="0.5" stroke-linecap="round" stroke-linejoin="round" transform="matrix(1.75601 -0.243866 0.243866 1.75601 291.973 170.894)" d="M1.98548 0.277974C2.99638 0.254539 6.02909 0.184236 6.02909 0.184236"></path>
  <path fill="#1B2B56" transform="matrix(1.75976 -0.215186 0.0645559 0.527927 311.616 168.546)" d="M0 -2.5C1.38071 -2.5 2.5 -1.38071 2.5 0C2.5 1.38071 1.38071 2.5 0 2.5C-1.38071 2.5 -2.5 1.38071 -2.5 0C-2.5 -1.38071 -1.38071 -2.5 0 -2.5Z"></path>
  <path fill="#354B89" transform="matrix(1.44298 -0.871663 0.915557 0.714287 303.517 161.718)" d="M-3.8147e-06 -2.5C1.38071 -2.5 2.5 -1.38071 2.5 -1.49012e-07C2.5 1.38071 1.38071 2.5 -3.8147e-06 2.5C-1.38072 2.5 -2.5 1.38071 -2.5 1.49012e-07C-2.5 -1.38071 -1.38072 -2.5 -3.8147e-06 -2.5Z"></path>
  <path fill="#354B89" transform="matrix(2.12994 0.292461 -0.620342 1.05712 287.785 162.644)" d="M-3.8147e-06 -2.98533C1.68305 -2.98533 3.04744 -1.64875 3.04744 7.62939e-06C3.04744 1.64876 1.68305 2.98535 -3.8147e-06 2.98535C-1.68306 2.98535 -3.04744 1.64876 -3.04744 7.62939e-06C-3.04744 -1.64875 -1.68306 -2.98533 -3.8147e-06 -2.98533Z"></path>
  <path fill="none" stroke="black" stroke-width="7" stroke-linecap="round" stroke-linejoin="round" transform="matrix(2.12098 4.46329e-09 -4.42666e-09 2.10358 198.021 363.38)" d="M26.5995 -28.4242C27.9611 -22.5993 29.5111 -13.4955 29.0425 1.03399C28.1823 29.9082 22.8908 53.4219 -2.36456 52.2795C-18.2151 51.461 -28.8578 28.1812 -27.9979 -0.683384C-27.4977 -23.8969 -17.1727 -44.1458 -5.2126 -54.0293"></path>
  <path fill="#6C88D9" transform="matrix(2.12098 4.46329e-09 -4.42666e-09 2.10358 198.021 363.38)" d="M14.5389 -59.7336C18.057 -55.3559 24.687 -40.4262 24.7757 -36.4996C24.8644 -32.573 29.8342 -23.5121 29.0425 1.03399C28.1823 29.9082 22.8908 53.4219 -2.36456 52.2795C-18.2151 51.461 -28.8578 28.1812 -27.9979 -0.683384C-27.2241 -36.593 -2.93981 -65.4083 14.5389 -59.7336Z"></path>
  <path fill="#91A8EB" transform="matrix(1.65158 3.47551e-09 -4.33415e-09 2.05962 201.95 357.753)" d="M15.5047 -53.3058C37.6721 -53.1511 29.8217 -28.7104 28.4962 -0.338566C27.6264 28.2615 18.2831 51.5474 2.83998 52.1905C-12.6032 52.8337 -27.3072 29.2799 -28.0759 0.58083C-28.4013 -28.4556 -6.66262 -53.4604 15.5047 -53.3058Z"></path>
  <path fill="none" stroke="white" stroke-width="5" stroke-linecap="round" stroke-linejoin="round" transform="matrix(1.50219 0 0 1.50219 258.877 362.655)" d=""></path>
  <path fill="none" stroke="white" stroke-width="5" stroke-linecap="round" stroke-linejoin="round" transform="matrix(1.11139 0 0 1.11139 243.355 245.985)" d=""></path>
</svg>