<?xml version="1.0" encoding="utf-8"?>
<svg xmlns="http://www.w3.org/2000/svg" xmlns:xlink="http://www.w3.org/1999/xlink" width="686" height="512">
  <path fill="none" stroke="white" stroke-width="5" stroke-linecap="round" stroke-linejoin="round" transform="matrix(1.50219 0 0 1.50219 258.877 362.655)" d="M-31.1628 -19.9043C-39.9668 -21.8795 -50.6805 -22.02 -63.3599 -18.4432M69.9502 -5.66412C77.8609 -7.28735 86.5722 -7.37442 94.6872 -3.82458M-1.13859 28.9733C-4.58023 31.1026 -7.95172 34.2948 -10.4673 39.0771M55.9133 -49.9269C59.533 -53.5434 64.5992 -56.7275 71.6839 -58.3952M-0.666608 -64.3866C-4.77555 -69.2525 -10.8326 -73.3872 -19.7612 -75.0149"></path>
  <path fill="none" stroke="white" stroke-width="5" stroke-linecap="round" stroke-linejoin="round" transform="matrix(1.11139 0 0 1.11139 243.355 245.985)" d="M-4.09118 -4.82614C-5.95393 -6.73047 -8.45847 -8.99341 -11.6165 -11.2224M47.2844 3.21994C49.0786 2.18734 51.3845 0.949701 54.0714 -0.296547M11.6702 24.8263C10.5426 24.9223 9.10438 25.1127 7.48345 25.4833M47.5307 -34.7015C47.8807 -36.1619 48.4284 -37.9938 49.2788 -39.9982M7.62069 -44.8807C7.36097 -46.6876 6.92344 -48.9332 6.18639 -51.3835"></path>
</svg>