<?xml version="1.0" encoding="utf-8"?>
<svg xmlns="http://www.w3.org/2000/svg" xmlns:xlink="http://www.w3.org/1999/xlink" width="686" height="512">
  <path fill="none" stroke="#A7A7A7" stroke-width="7" stroke-linejoin="round" transform="matrix(1.75255 0 0 1.75255 356.405 415.25)" d="M-11.1092 -37.4231C-9.02263 -55.5286 -0.322717 -67.29 43.7319 -62.4743C72.6442 -59.7061 81.8512 -51.2782 80.4541 -40.8511C79.0571 -30.424 78.2301 -21.8241 77.1993 -11.5421C75.976 -1.1505 64.3668 2.96616 35.4954 0.203331C-10.7295 -4.55103 -13.1958 -19.3175 -11.1092 -37.4231Z"></path>
  <path fill="none" stroke="#A7A7A7" stroke-width="7" stroke-linejoin="round" transform="matrix(-2.09669 -3.16894e-07 -3.14293e-07 2.07948 497.78 282.667)" d="M18.4249 -58.663C21.7945 -54.1681 27.9211 -39.0213 27.8783 -35.094C27.8355 -31.1666 32.2355 -22.2521 30.9557 2.083C29.7398 30.9469 25.3067 54.0363 0.0424271 53.1161C-15.8146 52.437 -27.2875 28.5047 -26.0716 -0.359184C-24.5472 -36.5461 1.14602 -64.9291 18.4249 -58.663Z"></path>
  <path fill="none" stroke="#A7A7A7" stroke-width="7" stroke-linejoin="round" transform="matrix(1.75232 0.0285905 -0.0285905 1.75232 410.439 283.802)" d="M0.209621 -80.0966C37.3348 -80.0966 84.5 -60 84.5 -9.53674e-07C84.5 41.1452 46.7396 76.2788 0.209621 76.2788C-62.1658 76.2788 -84 60.12 -84 -9.53674e-07C-84 -71.2881 -50.5087 -80.0966 0.209621 -80.0966Z"></path>
  <path fill="none" stroke="#A7A7A7" stroke-width="7" stroke-linejoin="round" transform="matrix(1.49621 0 0 1.75255 451.919 403.858)" d="M-18.4082 -35.86C-16.6843 -51.3498 -7.17404 -63.7616 50.6157 -58.9106C66.804 -57.9264 93.8509 -50.35 92.3427 -38.7437C90.8346 -27.1375 90.1581 -21.9312 88.8127 -11.5775C87.4673 -1.22382 60.5613 -1.83295 44.373 -2.81711C-16.0007 -7.6112 -20.1321 -20.3703 -18.4082 -35.86Z"></path>
  <path fill="#BFC5D7" transform="matrix(-2.09669 -3.16894e-07 -3.14293e-07 2.07948 497.78 282.667)" d="M18.4249 -58.663C21.7945 -54.1681 27.9211 -39.0213 27.8783 -35.094C27.8355 -31.1666 32.2355 -22.2521 30.9557 2.083C29.7398 30.9469 25.3067 54.0363 0.0424347 53.1161C-15.8146 52.437 -27.2874 28.5047 -26.0716 -0.359184C-24.5472 -36.5461 1.14603 -64.9291 18.4249 -58.663Z"></path>
  <path fill="#B9C0D4" transform="matrix(1.49621 0 0 1.75255 451.919 403.858)" d="M-18.4082 -35.86C-16.6843 -51.3498 -7.17404 -63.7616 50.6157 -58.9106C66.804 -57.9264 93.8509 -50.35 92.3427 -38.7437C90.8346 -27.1375 90.1581 -21.9312 88.8127 -11.5775C87.4673 -1.22382 60.5613 -1.83295 44.373 -2.81711C-16.0007 -7.6112 -20.1321 -20.3703 -18.4082 -35.86Z"></path>
  <path fill="#C4CAD9" transform="matrix(1.17156 0 0 1.37229 451.919 403.858)" d="M-8.69141 -44.5951C-6.96754 -60.0849 2.58808 -72.0199 65.6285 -66.8519C86.488 -64.7252 103.199 -55.6654 101.691 -44.0591C100.183 -32.4528 100.261 -32.5956 98.9155 -22.2419C97.5701 -11.8882 80.2453 -8.6317 59.3858 -10.7584C-6.23862 -15.8694 -10.4153 -29.1053 -8.69141 -44.5951Z"></path>
  <path fill="#BFC5D7" transform="matrix(1.75255 0 0 1.75255 356.405 415.25)" d="M-11.1092 -37.4231C-9.02263 -55.5286 -0.322717 -67.29 43.7319 -62.4743C72.6442 -59.7061 81.8512 -51.2782 80.4541 -40.8511C79.0571 -30.424 78.2301 -21.8241 77.1993 -11.5421C75.976 -1.1505 64.3668 2.96616 35.4954 0.203331C-10.7295 -4.55103 -13.1958 -19.3175 -11.1092 -37.4231Z"></path>
  <path fill="#C7CDDB" transform="matrix(-1.63266 -2.46762e-07 -3.07725e-07 2.03602 493.895 277.105)" d="M20.2864 -52.2365C42.4347 -51.4821 34.2247 -26.9093 31.077 1.60096C27.9294 30.1112 14.8084 53.0388 -0.641647 52.5125C-16.0917 51.9863 -26.9984 28.3127 -25.4786 -0.380294C-23.9589 -29.0732 -1.86185 -52.9908 20.2864 -52.2365Z"></path>
  <path fill="none" stroke="#A7A7A7" stroke-width="7" stroke-miterlimit="4" transform="matrix(1.75232 0.0285905 -0.0285905 1.75232 350.139 125.879)" d="M0 -29.5C19.0538 -29.5 34.5 -16.1805 34.5 0.25C34.5 16.6805 19.0538 30 0 30C-19.0538 30 -34.5 16.6805 -34.5 0.25C-34.5 -16.1805 -19.0538 -29.5 0 -29.5Z"></path>
  <path fill="#BFC5D7" transform="matrix(1.75232 0.0285905 -0.0285905 1.75232 410.439 283.802)" d="M0.209621 -80.0966C37.3348 -80.0966 84.5 -60 84.5 -9.53674e-07C84.5 41.1452 46.7396 76.2788 0.209621 76.2788C-62.1658 76.2788 -84 60.12 -84 -9.53674e-07C-84 -71.2881 -50.5087 -80.0966 0.209621 -80.0966Z"></path>
  <path fill="none" stroke="#A7A7A7" stroke-width="9" stroke-miterlimit="4" transform="matrix(1.00146 0 0 1.00146 343 256)" d="M-18.45 -186.142C-4.07802 -185.908 7.40884 -175.671 7.20664 -163.278C7.00443 -150.884 -4.81027 -141.028 -19.1822 -141.262C-33.5542 -141.497 -45.0411 -151.734 -44.8389 -164.127C-44.6367 -176.52 -32.822 -186.377 -18.45 -186.142Z"></path>
  <path fill="none" stroke="#A7A7A7" stroke-width="9" stroke-miterlimit="4" transform="matrix(1.00146 0 0 1.00146 343 256)" d="M-33.5321 -171.644C-21.5742 -171.449 -12.0167 -162.931 -12.185 -152.62C-12.3532 -142.308 -22.1834 -134.107 -34.1413 -134.302C-46.0993 -134.498 -55.6567 -143.015 -55.4884 -153.326C-55.3202 -163.638 -45.49 -171.839 -33.5321 -171.644Z"></path>
  <path fill="none" stroke="#A7A7A7" stroke-width="9" stroke-miterlimit="4" transform="matrix(1.00146 0 0 1.00146 343 256)" d="M-52.9834 -195.302C-46.488 -195.196 -41.2965 -190.569 -41.3878 -184.968C-41.4792 -179.367 -46.8189 -174.912 -53.3144 -175.018C-59.8098 -175.124 -65.0014 -179.751 -64.91 -185.352C-64.8186 -190.953 -59.4789 -195.408 -52.9834 -195.302Z"></path>
  <path fill="#BFC5D7" transform="matrix(1.75232 0.0285905 -0.0285905 1.75232 350.139 125.879)" d="M0 -29.5C19.0538 -29.5 34.5 -16.1805 34.5 0.25C34.5 16.6805 19.0538 30 0 30C-19.0538 30 -34.5 16.6805 -34.5 0.25C-34.5 -16.1805 -19.0538 -29.5 0 -29.5Z"></path>
  <path fill="#BFC5D7" transform="matrix(0.755384 0.0123247 -0.0123247 0.755384 324.16 91.87)" d="M0 -29.5C19.0538 -29.5 34.5 -16.1805 34.5 0.250015C34.5 16.6805 19.0538 30 0 30C-19.0538 30 -34.5 16.6805 -34.5 0.250015C-34.5 -16.1805 -19.0538 -29.5 0 -29.5Z"></path>
  <path fill="#BFC5D7" transform="matrix(0.628503 0.0102545 -0.0102545 0.628503 309.116 102.646)" d="M-3.75928e-06 -29.5C19.0538 -29.5 34.5 -16.1805 34.5 0.24997C34.5 16.6804 19.0538 30 -3.87011e-06 30C-19.0538 30 -34.5 16.6804 -34.5 0.249969C-34.5 -16.1805 -19.0538 -29.5 -3.75928e-06 -29.5Z"></path>
  <path fill="#BFC5D7" transform="matrix(0.341398 0.00557018 -0.00557018 0.341398 289.775 70.4842)" d="M1.52588e-05 -29.4999C19.0538 -29.4999 34.5 -16.1804 34.5 0.250061C34.5 16.6805 19.0538 30.0001 1.52588e-05 30.0001C-19.0538 30.0001 -34.5 16.6805 -34.5 0.250061C-34.5 -16.1804 -19.0538 -29.4999 1.52588e-05 -29.4999Z"></path>
  <path fill="#C7CDDB" transform="matrix(1.46935 0.0239736 -0.0239736 1.46935 409.11 283.802)" d="M0.24998 -81.5196C49.8787 -81.2985 84.5 -60 84.5 0C84.5 41.1452 46.78 74.5 0.25 74.5C-62.1254 74.5 -84 60.12 -84 0C-84 -71.2881 -62.1254 -81.5197 0.24998 -81.5196Z"></path>
  <clipPath id="cl_24">
    <path d="M413.096 143.453C478.151 144.515 560.225 181.079 558.51 286.218C557.334 358.318 490.161 418.804 408.625 417.473C299.323 415.69 261.525 386.75 263.244 281.401C265.282 156.481 324.221 142.003 413.096 143.453Z"></path>
  </clipPath>
  <g clip-path="url(#cl_24)">
    <path fill="#CCD0DC" transform="matrix(0.784709 0.0128031 -0.0147656 0.904991 463.302 249.606)" d="M0.24998 -81.5197C49.8788 -81.2985 84.5 -60 84.5 -9.53674e-07C84.5 41.1452 67.1354 74.5 20.6054 74.5C-41.77 74.5 -84 60.12 -84 -9.53674e-07C-84 -71.2881 -62.1254 -81.5197 0.24998 -81.5197Z"></path>
    <path fill="#D2D4DB" transform="matrix(0.192776 -0.197383 0.433955 0.423827 485.793 202.044)" d="M11.5671 -77.0972C58.0971 -77.0972 97.5959 -41.1452 97.5959 -1.38082e-05C97.5959 41.1452 73.4188 83.0524 26.8888 83.0524C-35.4866 83.0524 11.8086 60.12 11.8086 -1.50866e-05C11.8086 -41.1452 -34.9629 -77.0972 11.5671 -77.0972Z"></path>
    <path fill="#D2D4DB" transform="matrix(0.192776 -0.197383 0.179346 0.175161 529.064 264.704)" d="M48.93 -79.7643C80.6763 -79.053 77.4946 -42.8889 62.8508 4.00562C48.2069 50.9001 -0.0393867 91.2963 -20.4536 67.7769C-40.8678 44.2576 -16.8141 31.8032 -0.458961 -5.13884C15.8962 -42.0808 17.1838 -80.4755 48.93 -79.7643Z"></path>
  </g>
  <path fill="#C7CDDB" transform="matrix(1.34311 0 0 1.34311 356.405 353.91)" d="M-0.608141 -1.56123C1.47847 -19.6668 2.29801 -33.3299 53.5231 -27.8096C78.8163 -24.6648 92.4769 -15.436 91.0798 -5.00892C89.6828 5.41818 88.8558 14.0182 87.825 24.3001C86.7166 34.6209 69.3246 40.1122 44.0314 36.9675C-9.36341 31.5092 -2.69475 16.5443 -0.608141 -1.56123Z"></path>
  <path fill="#C7CDDB" transform="matrix(1.75232 0.0285905 -0.0285905 1.75232 350.139 125.879)" d="M0 -22.5C14.6355 -22.5 26.5 -12.3145 26.5 0.25C26.5 12.8145 14.6355 23 0 23C-14.6355 23 -26.5 12.8145 -26.5 0.25C-26.5 -12.3145 -14.6355 -22.5 0 -22.5Z"></path>
  <path fill="#C7CDDB" transform="matrix(0.590878 0.00964063 -0.00964063 0.590878 324.16 94.0189)" d="M-3.77232e-06 -22.5C14.6355 -22.5 26.5 -12.3145 26.5 0.25C26.5 12.8145 14.6355 23 -3.85707e-06 23C-14.6355 23 -26.5 12.8145 -26.5 0.25C-26.5 -12.3145 -14.6355 -22.5 -3.77232e-06 -22.5Z"></path>
  <path fill="#C7CDDB" transform="matrix(0.491629 0.00802131 -0.00802131 0.491629 309.116 104.434)" d="M0 -22.5C14.6355 -22.5 26.5 -12.3144 26.5 0.250031C26.5 12.8145 14.6355 23 0 23C-14.6355 23 -26.5 12.8145 -26.5 0.250031C-26.5 -12.3144 -14.6355 -22.5 0 -22.5Z"></path>
  <path fill="#C7CDDB" transform="matrix(0.267049 0.00435711 -0.00435711 0.267049 290.745 72.512)" d="M0 -22.4261C14.2962 -22.4261 25.8855 -12.274 25.8855 0.249268C25.8855 12.7726 14.2962 22.9247 0 22.9247C-14.2962 22.9247 -25.8855 12.7726 -25.8855 0.249268C-25.8855 -12.274 -14.2962 -22.4261 0 -22.4261Z"></path>
  <path fill="#D2D4DB" transform="matrix(0.0718703 -0.111803 0.256925 0.165159 287.085 69.9804)" d="M-6.10352e-05 -11.5C14.6355 -11.5 28.006 -7.98325 28.006 -1.63198C28.006 4.7193 15.5058 0.400216 0.870295 0.400216C-13.7653 0.400215 -26.7661 4.37692 -26.7661 -1.97436C-26.7661 -8.32563 -14.6356 -11.5 -6.10352e-05 -11.5Z"></path>
  <path fill="#D2D4DB" transform="matrix(-0.162443 -0.555435 0.857234 -0.250708 309.027 130.114)" d="M0 -11.5C14.6355 -11.5 28.0061 -7.98328 28.0061 -1.632C28.0061 4.71927 15.5059 0.40019 0.870357 0.40019C-13.7652 0.400188 -26.766 4.37689 -26.766 -1.97438C-26.766 -8.32566 -14.6355 -11.5 0 -11.5Z"></path>
  <path fill="#ADB1BA" transform="matrix(1.7396 -0.212721 0.0638164 0.521879 361.833 103.364)" d="M9.31323e-09 -2.5C1.38071 -2.5 2.5 -1.38071 2.5 0C2.5 1.38071 1.38071 2.5 -9.31323e-09 2.5C-1.38071 2.5 -2.5 1.38071 -2.5 0C-2.5 -1.38071 -1.38071 -2.5 9.31323e-09 -2.5Z"></path>
  <path fill="none" stroke="#ADB1BA" stroke-width="0.5" stroke-linecap="round" stroke-linejoin="round" transform="matrix(1.7359 -0.241072 0.241072 1.7359 370.249 102.282)" d="M1.98548 0.277989C2.99638 0.254555 6.02909 0.184252 6.02909 0.184252"></path>
  <path fill="#ADB1BA" transform="matrix(1.7396 -0.212721 0.0638164 0.521879 389.667 99.9603)" d="M9.31323e-09 -2.5C1.38071 -2.5 2.5 -1.38071 2.5 0C2.5 1.38071 1.38071 2.5 -9.31323e-09 2.5C-1.38071 2.5 -2.5 1.38071 -2.5 0C-2.5 -1.38071 -1.38071 -2.5 9.31323e-09 -2.5Z"></path>
  <path fill="#B3B8C6" transform="matrix(1.42645 -0.861678 0.905069 0.706104 381.661 93.211)" d="M7.62939e-06 -2.5C1.38072 -2.5 2.50001 -1.38071 2.50001 0C2.50001 1.38071 1.38072 2.5 7.62939e-06 2.5C-1.3807 2.5 -2.49999 1.38071 -2.49999 0C-2.49999 -1.38071 -1.3807 -2.5 7.62939e-06 -2.5Z"></path>
  <path fill="#B3B8C6" transform="matrix(2.10554 0.289111 -0.613236 1.04501 366.11 94.1258)" d="M3.8147e-06 -2.98532C1.68306 -2.98532 3.04744 -1.64874 3.04744 1.52588e-05C3.04744 1.64877 1.68306 2.98535 3.8147e-06 2.98535C-1.68305 2.98535 -3.04744 1.64877 -3.04744 1.52588e-05C-3.04744 -1.64874 -1.68305 -2.98532 3.8147e-06 -2.98532Z"></path>
  <path fill="none" stroke="#A7A7A7" stroke-width="7" stroke-linecap="round" stroke-linejoin="round" transform="matrix(2.09669 0 0 2.07948 297.315 292.077)" d="M30.2472 -36.1676C33.5357 -31.2023 38.1252 -23.2566 42.7439 -9.57664C52.0754 17.7367 55.5155 41.5088 31.518 49.5266C16.421 54.4639 -1.8821 36.4779 -11.2109 9.17238C-18.8862 -12.7855 -16.2506 -35.4722 -8.46089 -48.9781"></path>
  <path fill="#BFC5D7" transform="matrix(2.09669 0 0 2.07948 297.315 292.077)" d="M8.02123 -61.2748C12.8397 -58.421 24.2459 -46.7883 25.6961 -43.143C27.1463 -39.4977 34.9031 -32.8002 42.7439 -9.57664C52.0754 17.7367 55.5155 41.5088 31.518 49.5266C16.421 54.4639 -1.8821 36.4779 -11.2109 9.17238C-23.0667 -24.7451 -10.3208 -60.4015 8.02123 -61.2748Z"></path>
  <path fill="#C7CDDB" transform="matrix(1.63266 0 0 2.03602 301.199 286.514)" d="M9.36095 -54.9747C30.1851 -61.0703 33.4546 -35.9858 44.6822 -9.08517C56.4901 17.9082 58.1982 42.257 44.0575 47.276C29.9168 52.295 5.56616 34.4489 -7.8176 7.82797C-20.9089 -19.2788 -11.4633 -48.8791 9.36095 -54.9747Z"></path>
  <path fill="none" stroke="white" stroke-width="5" stroke-linecap="round" stroke-linejoin="round" transform="matrix(1.50219 0 0 1.50219 258.877 362.655)" d=""></path>
  <path fill="none" stroke="white" stroke-width="5" stroke-linecap="round" stroke-linejoin="round" transform="matrix(1.11139 0 0 1.11139 243.355 245.985)" d=""></path>
</svg>