<?xml version="1.0" encoding="utf-8"?>
<svg xmlns="http://www.w3.org/2000/svg" xmlns:xlink="http://www.w3.org/1999/xlink" width="686" height="512">
  <path fill="none" stroke="black" stroke-width="6" stroke-linejoin="round" transform="matrix(1.63761 -0.465503 0.393814 1.38541 365.559 271.35)" d="M-8.67928 -13.5885C-5.48985 -12.5168 -3.05336 -11.6981 0.0328226 -10.6612C6.82786 -8.37802 12.7896 -2.21323 9.15748 12.8905C5.52531 27.9942 -1.24612 56.152 -3.27573 64.5918C-13.2123 105.911 -74.2828 85.3476 -64.3462 44.028C-61.8518 33.6555 -57.2666 14.5887 -54.3784 2.57877C-51.4903 -9.4311 -41.3418 -24.5632 -25.8748 -19.3662C-24.3621 -18.858 -22.9625 -18.3877 -21.6619 -17.9507"></path>
  <path fill="none" stroke="black" stroke-width="6" stroke-linejoin="round" transform="matrix(1.63761 -0.465503 0.424231 1.49242 386.828 346.176)" d="M-61.9134 9.63601C-79.2579 -30.3561 -21.6953 -53.6767 -4.35073 -13.6846C2.53445 2.19088 14.0202 28.6742 21.1557 45.1267C23.6627 50.9073 20.5531 64.6498 -0.403873 73.4386C-21.3609 82.2274 -33.5193 75.1057 -35.4734 70.6C-42.6506 54.0511 -56.8323 21.3518 -61.9134 9.63601Z"></path>
  <path fill="#503F7E" transform="matrix(1.63761 -0.465503 0.393814 1.38541 365.559 271.35)" d="M-54.3784 2.57877C-51.4903 -9.43111 -41.3418 -24.5632 -25.8748 -19.3662C-10.4077 -14.1692 -6.76222 -12.9443 0.0328226 -10.6612C6.82786 -8.37802 12.7896 -2.21324 9.15748 12.8905C5.52531 27.9942 -1.24612 56.152 -3.27573 64.5917C-13.2123 105.911 -74.2828 85.3476 -64.3462 44.028C-61.8518 33.6555 -57.2666 14.5886 -54.3784 2.57877Z"></path>
  <path fill="#503F7E" transform="matrix(1.63761 -0.465503 0.424231 1.49242 386.828 346.176)" d="M-61.9134 9.63601C-79.2579 -30.3561 -21.6953 -53.6767 -4.35073 -13.6846C2.53445 2.19088 14.0202 28.6742 21.1557 45.1267C23.6627 50.9073 20.5531 64.6498 -0.403873 73.4386C-21.3609 82.2274 -33.5193 75.1057 -35.4734 70.6C-42.6506 54.0511 -56.8323 21.3518 -61.9134 9.63601Z"></path>
  <path fill="none" stroke="black" stroke-width="5" stroke-linejoin="round" transform="matrix(1.58884 0 0 1.70248 305.218 444.338)" d="M-12.2831 -0.364532C-12.811 -17.3662 -8.71746 -29.5636 42.0396 -30.9363C57.1303 -31.7547 73.24 -36.0845 83.2647 -22.3606C83.5036 -11.566 84.7444 0.46608 84.9416 15.8329C75.8041 26.203 60.8967 27.0522 42.9034 28.0559C-6.86867 29.9771 -11.7551 16.6372 -12.2831 -0.364532Z"></path>
  <path fill="#453279" transform="matrix(1.58884 0 0 1.70248 305.218 444.338)" d="M-12.2831 -0.364532C-12.811 -17.3662 -8.71746 -29.5636 42.0396 -30.9363C57.1303 -31.7547 73.24 -36.0845 83.2647 -22.3606C83.5036 -11.566 84.7444 0.46608 84.9416 15.8329C75.8041 26.203 60.8967 27.0522 42.9034 28.0559C-6.86867 29.9771 -11.7551 16.6372 -12.2831 -0.364532Z"></path>
  <path fill="none" stroke="black" stroke-width="5" stroke-linejoin="round" transform="matrix(1.58884 0 0 1.70248 231.565 450.612)" d="M-14.9963 1.64227C-16.3715 -15.3181 -12.8907 -27.68 37.7429 -31.2558C57.8654 -33.2528 71.4838 -36.8246 79.714 -22.9238C81.2786 -8.55219 82.3055 1.37744 83.0614 15.2098C77.1516 29.5129 59.1836 26.5127 41.5477 27.6349C-8.07461 31.7159 -13.6211 18.6026 -14.9963 1.64227Z"></path>
  <path fill="none" stroke="black" stroke-width="5" stroke-linejoin="round" transform="matrix(1.70226 0.0261988 -0.0277736 1.60574 310.118 371.933)" d="M-11.3238 -80.2543C25.8014 -80.2543 54.9476 -94.6926 58.9092 -40.8672C62.8708 12.9582 37.0524 74.7499 0.05729 75.3534C-14.1177 75.5847 -17.7665 75.6442 -48.2096 76.1409C-78.6526 76.6376 -84.25 60.12 -84.25 0C-86.6294 -86.0849 -88.6034 -78.4854 -12.7475 -80.2208"></path>
  <path fill="#503F7E" transform="matrix(1.58884 0 0 1.70248 231.565 450.612)" d="M-14.9963 1.64227C-16.3715 -15.3181 -12.8907 -27.68 37.7429 -31.2558C57.8654 -33.2528 71.4838 -36.8246 79.714 -22.9238C81.2786 -8.55219 82.3055 1.37744 83.0614 15.2098C77.1516 29.5129 59.1836 26.5127 41.5477 27.6349C-8.07461 31.7159 -13.6211 18.6026 -14.9963 1.64227Z"></path>
  <path fill="none" stroke="black" stroke-width="5" stroke-linejoin="round" transform="matrix(1.44842 1.48659e-24 -1.35259e-24 1.31786 265.002 226.869)" d="M0 -40C20.9426 -40 35.0096 -26.8589 47.8597 -2.20017C49.1253 -3.81499 50.3123 -3.57653 51.1974 -3.11682C52.0824 -2.65711 52.5509 -1.60562 52.2206 -0.66534C53.8523 0.063201 55.2854 1.47333 55.8775 2.67698C56.9197 4.79567 57.6743 10.5072 53.7931 11.8212C58.5977 31.9882 20.3682 22.0914 -1.32962e-05 22.0914C-20.2357 22.0914 -45.0732 28.3281 -41.8836 12.9784C-44.6787 11.8212 -48.2008 8.95145 -46.5316 4.29176C-45.7036 1.98006 -43.8185 0.567091 -42.3936 0.566999C-41.0392 0.566912 -42.9934 -2.2 -40.2188 -3.8149C-39.0195 -4.5129 -37.7273 -4.43211 -36.6068 -4.12355C-28.0141 -23.7311 -20.4124 -40 0 -40Z"></path>
  <path fill="#503F7E" transform="matrix(1.70226 0.0261988 -0.0277736 1.60574 310.118 371.933)" d="M-11.3238 -80.2543C25.8014 -80.2543 54.9476 -94.6926 58.9092 -40.8672C62.8708 12.9582 37.0524 74.7499 0.05729 75.3534C-14.1177 75.5847 -17.7665 75.6442 -48.2096 76.1409C-78.6526 76.6376 -84.25 60.12 -84.25 0C-86.6442 -86.62 -88.6279 -78.3873 -11.3238 -80.2543Z"></path>
  <clipPath id="cl_1f2">
    <path d="M293.071 242.769C356.267 243.741 406.282 221.321 411.531 307.854C416.78 394.387 371.114 492.932 308.122 492.932C283.987 492.932 277.774 492.932 225.938 492.932C174.102 492.932 165.033 466.262 166.703 369.725C165.033 230.574 161.427 243.741 293.071 242.769Z"></path>
  </clipPath>
  <g clip-path="url(#cl_1f2)">
    <path fill="#655494" transform="matrix(1.70248 0 0 1.70248 345.232 354.983)" d="M-0.158644 -48.2656C25.513 -48.2656 46.324 -26.6563 46.324 0C46.324 26.6563 25.513 48.2656 -0.158644 48.2656C-25.8303 48.2656 -46.6413 26.6563 -46.6413 0C-46.6413 -26.6563 -25.8303 -48.2656 -0.158644 -48.2656Z"></path>
  </g>
  <path fill="none" stroke="black" stroke-width="2" stroke-linejoin="round" transform="matrix(3.16727 -2.00354 1.81502 2.86926 256.116 157.14)" d="M-4.34758 -5.25471C-4.34758 -11.5047 3.66088 -11.5047 3.66088 -5.25471C3.66088 0.995287 3.66088 12.5 3.66088 12.5L-4.57314 12.5C-4.57314 12.5 -4.34758 0.995288 -4.34758 -5.25471Z"></path>
  <path fill="none" stroke="black" stroke-width="2" stroke-linejoin="round" transform="matrix(2.86926 -1.81502 1.81502 2.86926 227.806 173.619)" d="M-5.1645 -6.50117C-5.16451 -12.7512 6 -12.7512 6 -6.50117C6 -0.251166 6 12.5 6 12.5L-6 12.5C-6 12.5 -5.1645 -0.251167 -5.1645 -6.50117Z"></path>
  <path fill="#453279" transform="matrix(3.16727 -2.00354 1.81502 2.86926 256.116 157.14)" d="M-4.34758 -5.25471C-4.34758 -11.5047 3.66088 -11.5047 3.66088 -5.25471C3.66088 0.995287 3.66088 12.5 3.66088 12.5L-4.57314 12.5C-4.57314 12.5 -4.34758 0.995288 -4.34758 -5.25471Z"></path>
  <path fill="none" stroke="#161616" stroke-width="0.5" stroke-linecap="round" stroke-linejoin="round" transform="matrix(3.16727 -2.00354 1.81502 2.86926 245.206 141.558)" d="M4.97711e-06 1.51652L3.99346e-06 10.5382"></path>
  <path fill="#503F7E" transform="matrix(2.86926 -1.81502 1.81502 2.86926 227.806 173.619)" d="M-5.1645 -6.50116C-5.16451 -12.7512 6 -12.7512 6 -6.50116C6 -0.251162 6 12.5 6 12.5L-6 12.5C-6 12.5 -5.1645 -0.251163 -5.1645 -6.50116Z"></path>
  <path fill="none" stroke="#161616" stroke-width="0.5" stroke-linecap="round" stroke-linejoin="round" transform="matrix(2.86926 -1.81502 1.81502 2.86926 221.144 155.894)" d="M1.85391e-08 2.6499e-08L3.83324e-06 10.5382"></path>
  <path fill="#503F7E" transform="matrix(1.44842 0 0 1.31786 265.002 226.869)" d="M0 -40C20.9426 -40 35.0096 -26.8589 47.8597 -2.20018C49.1253 -3.81499 50.3123 -3.57653 51.1974 -3.11682C52.0824 -2.65711 52.5509 -1.60562 52.2206 -0.665342C53.8523 0.0631991 55.2854 1.47333 55.8775 2.67698C56.9197 4.79566 57.6743 10.5072 53.7931 11.8212C58.5977 31.9882 20.3682 22.0914 -1.32962e-05 22.0914C-20.2357 22.0914 -45.0732 28.3281 -41.8836 12.9784C-44.6787 11.8212 -48.2008 8.95144 -46.5316 4.29175C-45.7036 1.98006 -43.8185 0.567089 -42.3936 0.566997C-41.0392 0.56691 -42.9934 -2.2 -40.2188 -3.81491C-39.0195 -4.51291 -37.7273 -4.43211 -36.6068 -4.12355C-28.0141 -23.7311 -20.4124 -40 0 -40Z"></path>
  <clipPath id="cl_1f3">
    <path d="M265.002 174.154C295.336 174.154 315.711 191.472 334.323 223.969C336.156 221.841 337.875 222.155 339.157 222.761C340.439 223.367 341.118 224.753 340.639 225.992C343.003 226.952 345.078 228.81 345.936 230.396C347.446 233.189 348.539 240.716 342.917 242.447C349.876 269.024 294.504 255.982 265.002 255.982C235.692 255.982 199.717 264.201 204.337 243.972C200.288 242.447 195.187 238.665 197.605 232.525C198.804 229.478 201.534 227.616 203.598 227.616C205.56 227.616 202.729 223.969 206.748 221.841C208.485 220.921 210.357 221.028 211.98 221.434C224.426 195.594 235.436 174.154 265.002 174.154Z"></path>
  </clipPath>
  <g clip-path="url(#cl_1f3)">
    <path fill="#7463A5" transform="matrix(1.70248 0 0.00718207 1.70248 264.971 221.049)" d="M3.81202e-06 -5.5C3.866 -5.5 7 -2.92564 7 0.25C7 3.42564 3.866 6 3.81737e-06 6C-3.86599 6 -7 3.42564 -7 0.25C-7 -2.92564 -3.86599 -5.5 3.81202e-06 -5.5Z"></path>
    <path fill="#7463A5" transform="matrix(1.7367 0 0.00718207 1.70248 314.673 213.344)" d="M1.90979e-06 -5C2.76143 -5 5 -2.6495 5 0.25C5 3.1495 2.76143 5.5 1.9049e-06 5.5C-2.76142 5.5 -5 3.1495 -5 0.25C-5 -2.6495 -2.76142 -5 1.90979e-06 -5Z"></path>
    <path fill="none" stroke="#131212" stroke-width="1" stroke-linecap="round" stroke-linejoin="round" transform="matrix(2.182 -0.353477 0.259285 1.60056 294.084 207.011)" d="M4.88246e-07 -4.14104e-07L2.92891 -0.714567"></path>
    <path fill="none" stroke="#131212" stroke-width="1" stroke-linecap="round" stroke-linejoin="round" transform="matrix(2.182 -0.353477 0.259285 1.60056 273.512 206.226)" d="M-1.90735e-06 -3.96316e-06L4.2573 1.79212"></path>
    <path fill="#131212" transform="matrix(2.33716 -0.378612 0.383771 2.36901 286.55 209.168)" d="M-2.40694e-06 1.69186e-06L1.9614 0.35274L0.915087 1.42246L-2.40694e-06 1.69186e-06Z"></path>
    <path fill="none" stroke="#131212" stroke-width="0.5" stroke-linecap="round" stroke-linejoin="round" transform="matrix(1.83262 -0.296878 0.300923 1.85759 289.444 212.512)" d="M1.0783e-07 -0.711224L-3.70687e-06 1.1102"></path>
    <path fill="#32225E" transform="matrix(1.64843 0.417573 -0.40107 1.65095 283.568 201.728)" d="M-3.75726e-06 -1.92716C1.6285 -1.92716 2.94867 -1.06434 2.94867 4.39386e-08C2.94867 1.06434 1.6285 1.92716 -3.87213e-06 1.92716C-1.62851 1.92716 -2.94867 1.06434 -2.94867 -4.39386e-08C-2.94867 -1.06434 -1.62851 -1.92716 -3.75726e-06 -1.92716Z"></path>
    <path fill="#32225E" transform="matrix(1.61937 0.410211 -0.390122 1.60588 294.155 200.901)" d="M-7.65769e-06 -1.89919C0.889981 -1.89919 1.61146 -1.04889 1.61146 1.88334e-06C1.61146 1.0489 0.889981 1.89919 -7.60109e-06 1.89919C-0.889997 1.89919 -1.61148 1.0489 -1.61148 1.93136e-06C-1.61148 -1.04889 -0.889997 -1.89919 -7.65769e-06 -1.89919Z"></path>
  </g>
  <path fill="none" stroke="black" stroke-width="4" stroke-linejoin="round" transform="matrix(1.70248 0 0 1.70248 383.397 302.902)" d="M-11.7479 -12.9046C-11.318 -13.5165 -10.7601 -14.1187 -10.0572 -14.7065C-5.47351 -18.5399 3.93804 -16.1165 4.43081 -14.7065C7.46665 -16.1165 10.8961 -16.6614 15.0174 -13.9738C19.1387 -11.2862 16.2386 -4.86793 16.6118 -4.55444C16.985 -4.24095 25.2116 0.494545 17.5976 8.33766C16.6439 8.92036 15.7365 9.39703 14.8735 9.77867"></path>
  <path fill="#7463A5" transform="matrix(1.70248 0 0 1.70248 383.397 302.902)" d="M-0.116453 1.90735e-06C-2.60165 -0.663938 -7.05858 1.11792 -10.0572 -2.65576C-13.0559 -6.42944 -14.6409 -10.8732 -10.0572 -14.7065C-5.47351 -18.5399 3.93804 -16.1165 4.43081 -14.7065C7.46665 -16.1165 10.8961 -16.6614 15.0174 -13.9738C19.1387 -11.2862 16.2386 -4.86793 16.6118 -4.55444C16.985 -4.24095 25.2116 0.494545 17.5976 8.33766C2.9012 17.3171 -0.809984 1.11792 -0.116453 1.90735e-06Z"></path>
  <path fill="none" stroke="black" stroke-width="6" stroke-linejoin="round" transform="matrix(1.70248 0 0 1.70248 211.347 355.404)" d="M-31.0333 8.07098C-33.2903 -31.5904 30.1071 -35.1981 32.3641 4.4632C33.3254 21.3556 34.9291 49.5352 35.9253 67.0415C36.2753 73.1924 28.422 84.9732 5.23487 86.5637C-17.9523 88.1541 -27.069 77.7342 -27.3418 72.9399C-28.3439 55.331 -30.3239 20.5372 -31.0333 8.07098Z"></path>
  <path fill="none" stroke="black" stroke-width="6" stroke-linecap="round" stroke-linejoin="bevel" transform="matrix(1.70248 0 0 1.58041 211.347 270.046)" d="M31.4062 42.8518C31.88 50.73 32.2879 57.5112 32.4987 61.0155C35.077 103.882 -28.2926 108.263 -30.871 65.3963C-31.5182 54.6355 -32.708 34.8548 -33.4574 22.3952C-34.2068 9.93567 -29.0291 -8.29857 -12.9829 -9.41857C-11.258 -9.53897 -9.67474 -9.64947 -8.21394 -9.75144"></path>
  <path fill="#503F7E" transform="matrix(1.70248 0 0 1.70248 211.347 355.404)" d="M-31.0333 8.07098C-33.3841 -33.2376 30.0134 -36.8454 32.3641 4.4632C33.3254 21.3556 34.9291 49.5352 35.9253 67.0415C36.2753 73.1924 28.422 84.9732 5.23487 86.5637C-17.9523 88.1541 -27.069 77.7342 -27.3418 72.9399C-28.3439 55.331 -30.3239 20.5372 -31.0333 8.07098Z"></path>
  <path fill="#503F7E" transform="matrix(1.70248 0 0 1.58041 211.347 270.046)" d="M-33.4574 22.3952C-34.2068 9.93567 -29.0291 -8.29857 -12.9829 -9.41857C3.06323 -10.5386 6.84522 -10.8025 13.8947 -11.2946C20.9441 -11.7866 28.33 -8.29074 29.2725 7.37848C30.215 23.0477 31.972 52.2598 32.4987 61.0155C34.7666 98.7215 -28.603 103.102 -30.871 65.3963C-31.5182 54.6355 -32.708 34.8548 -33.4574 22.3952Z"></path>
</svg>