<?xml version="1.0" encoding="utf-8"?>
<svg xmlns="http://www.w3.org/2000/svg" xmlns:xlink="http://www.w3.org/1999/xlink" width="686" height="512">
  <path fill="none" stroke="black" stroke-width="6" stroke-linejoin="round" transform="matrix(1.70248 0 0 1.44029 499.893 203.192)" d="M-12.9438 -16.9737C-9.28958 -16.9737 -6.63602 -16.9737 -3.2142 -16.9737C3.85004 -16.9737 11.0107 -12.9707 11.0107 2.73134C11.0107 18.4334 11.0107 47.7067 11.0107 56.4808C11.0107 99.4374 -52.4893 99.3952 -52.4893 56.4387C-52.4893 45.6553 -52.4893 25.833 -52.4893 13.3474C-52.4893 0.861706 -46.228 -16.9737 -30.1482 -16.9737C-28.9444 -16.9737 -27.8096 -16.9737 -26.7371 -16.9737"></path>
  <path fill="none" stroke="black" stroke-width="6" stroke-linejoin="round" transform="matrix(1.70248 0 0 1.55154 499.893 280.982)" d="M-50.3432 11.2567C-65.5597 -28.5571 -6.24426 -51.227 8.97226 -11.4132C15.0127 4.39149 25.0893 30.7567 31.3493 47.1359C33.5487 52.8907 29.6393 66.4987 8.02729 75.0482C-13.5847 83.5978 -25.4328 76.4345 -27.1471 71.9489C-33.4438 55.4738 -45.8855 22.9202 -50.3432 11.2567Z"></path>
  <path fill="#503F7E" transform="matrix(1.70248 0 0 1.44029 499.893 203.192)" d="M-52.4893 13.3474C-52.4893 0.86171 -46.228 -16.9737 -30.1482 -16.9737C-14.0683 -16.9737 -10.2784 -16.9737 -3.2142 -16.9737C3.85004 -16.9737 11.0107 -12.9707 11.0107 2.73135C11.0107 18.4334 11.0107 47.7067 11.0107 56.4809C11.0107 99.4374 -52.4893 99.3952 -52.4893 56.4387C-52.4893 45.6553 -52.4893 25.8331 -52.4893 13.3474Z"></path>
  <path fill="#503F7E" transform="matrix(1.70248 0 0 1.55154 499.893 280.982)" d="M-50.3432 11.2567C-65.5597 -28.5571 -6.24426 -51.227 8.97226 -11.4132C15.0127 4.39149 25.0893 30.7567 31.3493 47.1359C33.5487 52.8907 29.6393 66.4987 8.02729 75.0482C-13.5847 83.5978 -25.4328 76.4345 -27.1471 71.9489C-33.4438 55.4738 -45.8855 22.9202 -50.3432 11.2567Z"></path>
  <path fill="none" stroke="black" stroke-width="5" stroke-linejoin="round" transform="matrix(1.58884 0 0 1.70248 415.195 379.693)" d="M-12.14 -3.32764C-8.94646 -20.0733 -2.27684 -31.237 47.7159 -22.9334C62.6689 -20.8663 79.3858 -22.0434 86.2054 -6.70166C84.0836 3.91205 82.6726 15.9278 79.512 31.01C68.3029 39.426 53.5227 37.4239 35.6875 34.9865C-13.4606 27.4072 -15.3335 13.418 -12.14 -3.32764Z"></path>
  <path fill="#453279" transform="matrix(1.58884 0 0 1.70248 415.195 379.693)" d="M-12.14 -3.32764C-8.94646 -20.0733 -2.27684 -31.237 47.7159 -22.9334C62.6689 -20.8663 79.3858 -22.0434 86.2054 -6.70166C84.0836 3.91205 82.6726 15.9278 79.512 31.01C68.3029 39.426 53.5227 37.4239 35.6875 34.9865C-13.4606 27.4072 -15.3335 13.418 -12.14 -3.32764Z"></path>
  <path fill="none" stroke="black" stroke-width="5" stroke-linejoin="round" transform="matrix(1.58884 0 0 1.70248 341.542 385.967)" d="M-14.9398 -1.80695C-11.9794 -18.5899 -5.46557 -29.8334 44.6384 -22.1358C64.6963 -19.6363 78.8335 -20.102 83.3089 -4.77936C81.1882 9.52997 79.6705 19.4047 76.9008 33.0117C67.5351 45.6053 50.8365 38.7257 33.4163 35.9248C-15.8331 28.9413 -17.9003 14.976 -14.9398 -1.80695Z"></path>
  <path fill="none" stroke="black" stroke-width="5" stroke-linejoin="round" transform="matrix(1.70226 0.0261988 -0.0277736 1.60574 420.094 307.288)" d="M-11.3238 -80.2543C25.8014 -80.2543 54.9476 -94.6926 58.9092 -40.8672C62.8708 12.9582 37.0524 74.7499 0.0572957 75.3534C-14.1177 75.5847 -17.7665 75.6442 -48.2096 76.1409C-78.6526 76.6376 -84.25 60.12 -84.25 1.90735e-06C-86.6294 -86.0849 -88.6034 -78.4854 -12.7475 -80.2208"></path>
  <path fill="#503F7E" transform="matrix(1.58884 0 0 1.70248 341.542 385.967)" d="M-14.9398 -1.80695C-11.9794 -18.5899 -5.46557 -29.8334 44.6384 -22.1358C64.6963 -19.6363 78.8335 -20.102 83.3089 -4.77936C81.1882 9.52997 79.6705 19.4047 76.9008 33.0117C67.5351 45.6053 50.8365 38.7257 33.4163 35.9248C-15.8331 28.9413 -17.9003 14.976 -14.9398 -1.80695Z"></path>
  <path fill="none" stroke="black" stroke-width="5" stroke-linejoin="round" transform="matrix(1.44842 1.48659e-24 -1.35259e-24 1.31786 372.697 162.224)" d="M0 -40C20.9426 -40 35.0096 -26.8589 47.8597 -2.20017C49.1253 -3.81498 50.3123 -3.57652 51.1974 -3.11681C52.0824 -2.6571 52.5509 -1.60561 52.2206 -0.665335C53.8523 0.0632067 55.2854 1.47333 55.8775 2.67699C56.9197 4.79567 57.6743 10.5072 53.7931 11.8212C58.5977 31.9882 20.3682 22.0914 -1.32962e-05 22.0914C-20.2357 22.0914 -45.0732 28.3281 -41.8836 12.9784C-44.6787 11.8212 -48.2008 8.95145 -46.5316 4.29176C-45.7036 1.98007 -43.8185 0.567096 -42.3936 0.567005C-41.0392 0.566917 -42.9934 -2.19999 -40.2188 -3.8149C-39.0195 -4.5129 -37.7273 -4.43211 -36.6068 -4.12355C-28.0141 -23.731 -20.4124 -40 0 -40Z"></path>
  <path fill="#503F7E" transform="matrix(1.70226 0.0261988 -0.0277736 1.60574 420.094 307.288)" d="M-11.3238 -80.2543C25.8014 -80.2543 54.9476 -94.6926 58.9092 -40.8672C62.8708 12.9582 37.0524 74.7499 0.0572957 75.3534C-14.1177 75.5847 -17.7665 75.6442 -48.2096 76.1409C-78.6526 76.6376 -84.25 60.12 -84.25 1.90735e-06C-86.6442 -86.62 -88.6279 -78.3873 -11.3238 -80.2543Z"></path>
  <clipPath id="cl_b7">
    <path d="M403.047 178.124C466.244 179.097 516.259 156.676 521.508 243.209C526.756 329.743 481.091 428.287 418.099 428.287C393.963 428.287 387.75 428.287 335.914 428.287C284.079 428.287 275.009 401.617 276.679 305.081C275.009 165.929 271.404 179.097 403.047 178.124Z"></path>
  </clipPath>
  <g clip-path="url(#cl_b7)">
    <path fill="#655494" transform="matrix(1.70248 0 0 1.70248 455.208 290.338)" d="M-0.158646 -48.2656C25.513 -48.2656 46.324 -26.6563 46.324 0C46.324 26.6563 25.513 48.2656 -0.158646 48.2656C-25.8303 48.2656 -46.6413 26.6563 -46.6413 0C-46.6413 -26.6563 -25.8303 -48.2656 -0.158646 -48.2656Z"></path>
  </g>
  <path fill="none" stroke="black" stroke-width="2" stroke-linejoin="round" transform="matrix(3.67759 -0.721864 0.653943 3.33157 379.128 88.215)" d="M-4.34759 -5.25472C-4.34759 -11.5047 3.66088 -11.5047 3.66088 -5.25472C3.66088 0.99528 3.66088 12.5 3.66088 12.5L-4.57314 12.5C-4.57314 12.5 -4.34758 0.99528 -4.34759 -5.25472Z"></path>
  <path fill="none" stroke="black" stroke-width="2" stroke-linejoin="round" transform="matrix(3.33157 -0.653943 0.653943 3.33157 346.773 93.3345)" d="M-5.1645 -6.50117C-5.16451 -12.7512 6 -12.7512 6 -6.50117C6 -0.25117 6 12.5 6 12.5L-6 12.5C-6 12.5 -5.1645 -0.251171 -5.1645 -6.50117Z"></path>
  <path fill="#453279" transform="matrix(3.67759 -0.721864 0.653943 3.33157 379.128 88.215)" d="M-4.34759 -5.25472C-4.34759 -11.5047 3.66088 -11.5047 3.66088 -5.25472C3.66088 0.99528 3.66088 12.5 3.66088 12.5L-4.57314 12.5C-4.57314 12.5 -4.34758 0.99528 -4.34759 -5.25472Z"></path>
  <path fill="none" stroke="#161616" stroke-width="0.5" stroke-linecap="round" stroke-linejoin="round" transform="matrix(3.67759 -0.721864 0.653943 3.33157 374.594 69.7415)" d="M4.54547e-06 1.51651L3.83069e-06 10.5382"></path>
  <path fill="#503F7E" transform="matrix(3.33157 -0.653943 0.653943 3.33157 346.773 93.3346)" d="M-5.1645 -6.50117C-5.16451 -12.7512 6 -12.7512 6 -6.50117C6 -0.25117 6 12.5 6 12.5L-6 12.5C-6 12.5 -5.1645 -0.251171 -5.1645 -6.50117Z"></path>
  <path fill="none" stroke="#161616" stroke-width="0.5" stroke-linecap="round" stroke-linejoin="round" transform="matrix(3.33157 -0.653943 0.653943 3.33157 346.976 74.4006)" d="M-9.35135e-07 -3.7882e-06L2.87956e-06 10.5382"></path>
  <path fill="#503F7E" transform="matrix(1.44842 0 0 1.31786 372.697 162.224)" d="M0 -40C20.9426 -40 35.0096 -26.8589 47.8597 -2.20017C49.1253 -3.81498 50.3123 -3.57652 51.1974 -3.11681C52.0824 -2.6571 52.5509 -1.60561 52.2206 -0.665335C53.8523 0.0632067 55.2854 1.47333 55.8775 2.67699C56.9197 4.79567 57.6743 10.5072 53.7931 11.8212C58.5977 31.9882 20.3682 22.0914 -1.32962e-05 22.0914C-20.2357 22.0914 -45.0732 28.3281 -41.8836 12.9784C-44.6787 11.8212 -48.2008 8.95145 -46.5316 4.29176C-45.7036 1.98007 -43.8185 0.567096 -42.3936 0.567005C-41.0392 0.566917 -42.9934 -2.19999 -40.2188 -3.8149C-39.0195 -4.5129 -37.7273 -4.43211 -36.6068 -4.12355C-28.0141 -23.731 -20.4124 -40 0 -40Z"></path>
  <clipPath id="cl_b8">
    <path d="M372.697 109.51C403.03 109.51 423.405 126.828 442.018 159.324C443.851 157.196 445.57 157.511 446.852 158.116C448.134 158.722 448.812 160.108 448.334 161.347C450.697 162.307 452.773 164.166 453.631 165.752C455.14 168.544 456.233 176.071 450.612 177.803C457.571 204.38 402.198 191.337 372.697 191.337C343.387 191.337 307.412 199.556 312.032 179.328C307.983 177.803 302.882 174.021 305.299 167.88C306.499 164.833 309.229 162.971 311.293 162.971C313.255 162.971 310.424 159.325 314.443 157.196C316.18 156.277 318.052 156.383 319.675 156.79C332.121 130.95 343.131 109.51 372.697 109.51Z"></path>
  </clipPath>
  <g clip-path="url(#cl_b8)">
    <path fill="#7463A5" transform="matrix(1.70248 0 0.00718207 1.70248 369.608 147.902)" d="M9.50997e-07 -5.5C3.86599 -5.5 7 -2.92563 7 0.250004C7 3.42564 3.86599 6 9.56352e-07 6C-3.86599 6 -7 3.42564 -7 0.250004C-7 -2.92563 -3.86599 -5.5 9.50997e-07 -5.5Z"></path>
    <path fill="#7463A5" transform="matrix(1.7367 0 0.00718207 1.70248 419.309 140.197)" d="M2.44472e-09 -5C2.76142 -5 5 -2.6495 5 0.25C5 3.1495 2.76142 5.5 -2.44472e-09 5.5C-2.76142 5.5 -5 3.1495 -5 0.25C-5 -2.6495 -2.76142 -5 2.44472e-09 -5Z"></path>
    <path fill="none" stroke="#131212" stroke-width="1" stroke-linecap="round" stroke-linejoin="round" transform="matrix(2.182 -0.353477 0.259285 1.60056 398.72 133.864)" d="M4.30294e-06 -8.0435e-06L2.92892 -0.714575"></path>
    <path fill="none" stroke="#131212" stroke-width="1" stroke-linecap="round" stroke-linejoin="round" transform="matrix(2.182 -0.353477 0.259285 1.60056 378.148 133.079)" d="M0 -1.48459e-07L4.25731 1.79213"></path>
    <path fill="#131212" transform="matrix(2.33716 -0.378612 0.383771 2.36901 391.186 136.021)" d="M-4.99596e-07 -7.84488e-06L1.9614 0.35273L0.915089 1.42245L-4.99596e-07 -7.84488e-06Z"></path>
    <path fill="none" stroke="#131212" stroke-width="0.5" stroke-linecap="round" stroke-linejoin="round" transform="matrix(1.83262 -0.296878 0.300923 1.85759 394.08 139.365)" d="M1.0783e-07 -0.711224L-3.70687e-06 1.1102"></path>
    <path fill="#32225E" transform="matrix(1.64843 0.417573 -0.40107 1.65095 388.204 128.581)" d="M-1.84991e-06 -1.92716C1.6285 -1.92716 2.94867 -1.06434 2.94867 4.39386e-08C2.94867 1.06434 1.6285 1.92716 -1.96478e-06 1.92716C-1.62851 1.92716 -2.94867 1.06434 -2.94867 -4.39386e-08C-2.94867 -1.06434 -1.62851 -1.92716 -1.84991e-06 -1.92716Z"></path>
    <path fill="#32225E" transform="matrix(1.61937 0.410211 -0.390122 1.60588 398.791 127.754)" d="M-5.75035e-06 -1.8992C0.889983 -1.8992 1.61146 -1.0489 1.61146 -7.65341e-06C1.61146 1.04889 0.889983 1.89918 -5.69375e-06 1.89918C-0.889995 1.89918 -1.61147 1.04889 -1.61147 -7.60538e-06C-1.61147 -1.0489 -0.889995 -1.8992 -5.75035e-06 -1.8992Z"></path>
  </g>
  <path fill="none" stroke="black" stroke-width="4" stroke-linejoin="round" transform="matrix(1.70248 0 0 1.70248 493.373 198.404)" d="M-11.7479 -12.9046C-11.318 -13.5165 -10.7601 -14.1187 -10.0572 -14.7065C-5.47351 -18.5399 3.93804 -16.1165 4.43081 -14.7065C7.46664 -16.1165 10.8961 -16.6614 15.0174 -13.9738C19.1387 -11.2862 16.2386 -4.86794 16.6118 -4.55445C16.985 -4.24095 25.2116 0.494539 17.5976 8.33765C16.6439 8.92035 15.7365 9.39702 14.8735 9.77867"></path>
  <path fill="#7463A5" transform="matrix(1.70248 0 0 1.70248 493.373 198.404)" d="M-0.116455 -3.8147e-06C-2.60165 -0.663944 -7.05858 1.11792 -10.0572 -2.65577C-13.0559 -6.42945 -14.641 -10.8732 -10.0572 -14.7065C-5.47351 -18.5399 3.93804 -16.1165 4.43081 -14.7065C7.46664 -16.1165 10.8961 -16.6614 15.0174 -13.9738C19.1387 -11.2862 16.2386 -4.86794 16.6118 -4.55445C16.985 -4.24095 25.2116 0.494539 17.5976 8.33765C2.9012 17.3171 -0.809986 1.11792 -0.116455 -3.8147e-06Z"></path>
  <path fill="none" stroke="black" stroke-width="6" stroke-linejoin="round" transform="matrix(1.70248 0 0 1.70248 321.323 290.76)" d="M-15.682 11.0664C-29.9192 -26.0202 29.3626 -48.778 43.5999 -11.6914C49.6637 4.10431 59.7794 30.4546 66.0637 46.8244C68.2716 52.576 64.3824 66.1898 42.7831 74.7713C21.1837 83.3529 9.32509 76.2072 7.60409 71.7241C1.283 55.2583 -11.207 22.7233 -15.682 11.0664Z"></path>
  <path fill="none" stroke="black" stroke-width="6" stroke-linecap="round" stroke-linejoin="bevel" transform="matrix(1.70248 0 0 1.58041 321.323 205.401)" d="M43.8201 34.2046C44.6486 42.0614 45.3618 48.826 45.7302 52.3196C50.2307 95.0017 -12.868 102.68 -17.3685 59.9979C-18.4983 49.2834 -20.575 29.5878 -21.8831 17.182C-23.1913 4.77605 -18.8385 -13.7067 -2.86143 -15.6617C-1.17823 -15.8676 0.369438 -16.057 1.79965 -16.232"></path>
  <path fill="#503F7E" transform="matrix(1.70248 0 0 1.70248 321.323 290.76)" d="M-15.682 11.0664C-30.5105 -27.5606 28.7713 -50.3184 43.5999 -11.6914C49.6637 4.10431 59.7794 30.4546 66.0637 46.8244C68.2716 52.576 64.3824 66.1898 42.7831 74.7713C21.1837 83.3529 9.32509 76.2072 7.60409 71.7241C1.283 55.2583 -11.207 22.7233 -15.682 11.0664Z"></path>
  <path fill="#503F7E" transform="matrix(1.70248 0 0 1.58041 321.323 205.401)" d="M-21.8831 17.182C-23.1912 4.77605 -18.8385 -13.7067 -2.86143 -15.6617C13.1156 -17.6166 16.8813 -18.0774 23.9004 -18.9362C30.9195 -19.7951 38.4538 -16.6883 40.0989 -1.08651C41.744 14.5152 44.811 43.6015 45.7302 52.3196C49.6889 89.8632 -13.4098 97.5415 -17.3685 59.9979C-18.4983 49.2834 -20.575 29.5878 -21.8831 17.182Z"></path>
</svg>