<?xml version="1.0" encoding="utf-8"?>
<svg xmlns="http://www.w3.org/2000/svg" xmlns:xlink="http://www.w3.org/1999/xlink" width="686" height="512">
  <path fill="none" stroke="black" stroke-width="6" stroke-linejoin="round" transform="matrix(1.70248 0 0 1.44029 404.016 259.549)" d="M-12.9438 -16.9737C-9.28959 -16.9737 -6.63602 -16.9737 -3.2142 -16.9737C3.85003 -16.9737 11.0107 -12.9707 11.0107 2.73135C11.0107 18.4334 11.0107 47.7067 11.0107 56.4808C11.0107 99.4374 -52.4893 99.3952 -52.4893 56.4387C-52.4893 45.6553 -52.4893 25.833 -52.4893 13.3474C-52.4893 0.861707 -46.228 -16.9737 -30.1482 -16.9737C-28.9445 -16.9737 -27.8096 -16.9737 -26.7371 -16.9737"></path>
  <path fill="none" stroke="black" stroke-width="6" stroke-linejoin="round" transform="matrix(1.70248 0 0 1.55154 404.016 337.339)" d="M-51.7202 6.74022C-60.8355 -34.8962 1.1954 -48.4764 10.3107 -6.84003C13.9292 9.68821 19.9655 37.2604 23.7155 54.3894C25.0331 60.4077 19.14 73.2814 -3.50454 78.5158C-26.1491 83.7502 -36.7977 74.9018 -37.8247 70.2108C-41.5967 52.9815 -49.0498 18.9377 -51.7202 6.74022Z"></path>
  <path fill="#503F7E" transform="matrix(1.70248 0 0 1.44029 404.016 259.549)" d="M-52.4893 13.3474C-52.4893 0.861708 -46.228 -16.9737 -30.1482 -16.9737C-14.0684 -16.9737 -10.2784 -16.9737 -3.2142 -16.9737C3.85003 -16.9737 11.0107 -12.9707 11.0107 2.73135C11.0107 18.4334 11.0107 47.7067 11.0107 56.4809C11.0107 99.4374 -52.4893 99.3952 -52.4893 56.4387C-52.4893 45.6553 -52.4893 25.833 -52.4893 13.3474Z"></path>
  <path fill="#503F7E" transform="matrix(1.70248 0 0 1.55154 404.016 337.339)" d="M-51.7202 6.74022C-60.8355 -34.8962 1.1954 -48.4764 10.3107 -6.84003C13.9292 9.68821 19.9655 37.2604 23.7155 54.3894C25.0331 60.4077 19.14 73.2814 -3.50454 78.5158C-26.1491 83.7502 -36.7977 74.9018 -37.8247 70.2108C-41.5967 52.9815 -49.0498 18.9377 -51.7202 6.74022Z"></path>
  <path fill="none" stroke="black" stroke-width="5" stroke-linejoin="round" transform="matrix(1.58884 0 0 1.70248 319.318 436.05)" d="M-12.2693 -0.165878C-13.0475 -17.1592 -9.13393 -29.4079 41.5981 -31.4313C56.6753 -32.4431 72.7198 -36.9791 82.9456 -23.385C83.3434 -12.5945 84.7612 -0.579453 85.1846 14.7834C76.2006 25.2697 61.3071 26.3099 43.3303 27.5442C-6.40875 30.1035 -11.4912 16.8274 -12.2693 -0.165878Z"></path>
  <path fill="#453279" transform="matrix(1.58884 0 0 1.70248 319.318 436.05)" d="M-12.2693 -0.165878C-13.0475 -17.1592 -9.13393 -29.4079 41.5981 -31.4313C56.6753 -32.4431 72.7198 -36.9791 82.9456 -23.385C83.3434 -12.5945 84.7612 -0.579453 85.1846 14.7834C76.2006 25.2697 61.3071 26.3099 43.3303 27.5442C-6.40875 30.1035 -11.4912 16.8274 -12.2693 -0.165878Z"></path>
  <path fill="none" stroke="black" stroke-width="5" stroke-linejoin="round" transform="matrix(1.58884 0 0 1.70248 245.665 442.324)" d="M-14.9969 1.63661C-16.365 -15.3242 -12.8789 -27.6849 37.7562 -31.242C57.8795 -33.2316 71.4995 -36.7983 79.7238 -22.8945C81.2822 -8.52237 82.305 1.40765 83.055 15.2403C77.1392 29.5412 59.1724 26.5344 41.536 27.6501C-8.08797 31.7128 -13.6289 18.5975 -14.9969 1.63661Z"></path>
  <path fill="none" stroke="black" stroke-width="5" stroke-linejoin="round" transform="matrix(1.70226 0.0261988 -0.0277736 1.60574 324.217 363.645)" d="M-11.3238 -80.2543C25.8014 -80.2543 54.9476 -94.6926 58.9092 -40.8672C62.8708 12.9582 37.0524 74.7499 0.0572919 75.3534C-14.1177 75.5847 -17.7665 75.6442 -48.2096 76.1409C-78.6526 76.6376 -84.25 60.12 -84.25 0C-86.6294 -86.0849 -88.6034 -78.4854 -12.7475 -80.2208"></path>
  <path fill="#503F7E" transform="matrix(1.58884 0 0 1.70248 245.665 442.324)" d="M-14.9969 1.63661C-16.365 -15.3242 -12.8789 -27.6849 37.7562 -31.242C57.8795 -33.2316 71.4995 -36.7983 79.7238 -22.8945C81.2822 -8.52237 82.305 1.40765 83.055 15.2403C77.1392 29.5412 59.1724 26.5344 41.536 27.6501C-8.08797 31.7128 -13.6289 18.5975 -14.9969 1.63661Z"></path>
  <path fill="none" stroke="black" stroke-width="5" stroke-linejoin="round" transform="matrix(1.44842 1.48659e-24 -1.35259e-24 1.31786 279.101 218.581)" d="M3.8147e-06 -40C20.9426 -40 35.0096 -26.8589 47.8597 -2.20018C49.1253 -3.81499 50.3123 -3.57653 51.1974 -3.11682C52.0824 -2.65711 52.5509 -1.60562 52.2206 -0.665342C53.8524 0.0631991 55.2854 1.47333 55.8775 2.67698C56.9197 4.79566 57.6743 10.5072 53.7931 11.8212C58.5977 31.9882 20.3683 22.0914 -9.48146e-06 22.0914C-20.2357 22.0914 -45.0732 28.3281 -41.8836 12.9784C-44.6787 11.8212 -48.2008 8.95144 -46.5316 4.29175C-45.7036 1.98006 -43.8185 0.567089 -42.3936 0.566997C-41.0392 0.56691 -42.9934 -2.2 -40.2188 -3.81491C-39.0195 -4.51291 -37.7273 -4.43211 -36.6067 -4.12355C-28.014 -23.7311 -20.4124 -40 3.8147e-06 -40Z"></path>
  <path fill="#503F7E" transform="matrix(1.70226 0.0261988 -0.0277736 1.60574 324.217 363.645)" d="M-11.3238 -80.2543C25.8014 -80.2543 54.9476 -94.6926 58.9092 -40.8672C62.8708 12.9582 37.0524 74.7499 0.0572919 75.3534C-14.1177 75.5847 -17.7665 75.6442 -48.2096 76.1409C-78.6526 76.6376 -84.25 60.12 -84.25 0C-86.6442 -86.62 -88.6279 -78.3873 -11.3238 -80.2543Z"></path>
  <clipPath id="cl_123">
    <path d="M307.17 234.481C370.367 235.454 420.382 213.033 425.631 299.566C430.879 386.099 385.214 484.644 322.222 484.644C298.086 484.644 291.873 484.644 240.037 484.644C188.202 484.644 179.132 457.974 180.802 361.438C179.132 222.286 175.527 235.454 307.17 234.481Z"></path>
  </clipPath>
  <g clip-path="url(#cl_123)">
    <path fill="#655494" transform="matrix(1.70248 0 0 1.70248 359.331 346.695)" d="M-0.158644 -48.2656C25.513 -48.2656 46.324 -26.6563 46.324 3.8147e-06C46.324 26.6563 25.513 48.2656 -0.158644 48.2656C-25.8303 48.2656 -46.6413 26.6563 -46.6413 3.8147e-06C-46.6413 -26.6563 -25.8303 -48.2656 -0.158644 -48.2656Z"></path>
  </g>
  <path fill="none" stroke="black" stroke-width="2" stroke-linejoin="round" transform="matrix(3.67759 -0.721864 0.653943 3.33157 285.533 144.572)" d="M-4.34758 -5.25471C-4.34758 -11.5047 3.66088 -11.5047 3.66088 -5.25472C3.66088 0.995283 3.66088 12.5 3.66088 12.5L-4.57314 12.5C-4.57314 12.5 -4.34758 0.995284 -4.34758 -5.25471Z"></path>
  <path fill="none" stroke="black" stroke-width="2" stroke-linejoin="round" transform="matrix(3.33157 -0.653943 0.653943 3.33157 253.178 149.691)" d="M-5.1645 -6.50116C-5.1645 -12.7512 6 -12.7512 6 -6.50116C6 -0.251162 6 12.5 6 12.5L-6 12.5C-6 12.5 -5.1645 -0.251163 -5.1645 -6.50116Z"></path>
  <path fill="#453279" transform="matrix(3.67759 -0.721864 0.653943 3.33157 285.533 144.572)" d="M-4.34758 -5.25471C-4.34758 -11.5047 3.66088 -11.5047 3.66088 -5.25472C3.66088 0.995283 3.66088 12.5 3.66088 12.5L-4.57314 12.5C-4.57314 12.5 -4.34758 0.995284 -4.34758 -5.25471Z"></path>
  <path fill="none" stroke="#161616" stroke-width="0.5" stroke-linecap="round" stroke-linejoin="round" transform="matrix(3.67759 -0.721864 0.653943 3.33157 280.999 126.098)" d="M6.45282e-06 1.51651L5.73804e-06 10.5382"></path>
  <path fill="#503F7E" transform="matrix(3.33157 -0.653943 0.653943 3.33157 253.178 149.691)" d="M-5.1645 -6.50117C-5.16451 -12.7512 6 -12.7512 6 -6.50117C6 -0.251166 6 12.5 6 12.5L-6 12.5C-6 12.5 -5.1645 -0.251167 -5.1645 -6.50117Z"></path>
  <path fill="none" stroke="#161616" stroke-width="0.5" stroke-linecap="round" stroke-linejoin="round" transform="matrix(3.33157 -0.653943 0.653943 3.33157 253.381 130.758)" d="M1.85391e-08 2.6499e-08L3.83324e-06 10.5382"></path>
  <path fill="#503F7E" transform="matrix(1.44842 0 0 1.31786 279.101 218.581)" d="M0 -40C20.9426 -40 35.0096 -26.8589 47.8597 -2.20018C49.1253 -3.81499 50.3123 -3.57653 51.1974 -3.11682C52.0824 -2.65711 52.5509 -1.60562 52.2206 -0.665342C53.8523 0.0631991 55.2854 1.47333 55.8775 2.67698C56.9197 4.79566 57.6743 10.5072 53.7931 11.8212C58.5977 31.9882 20.3682 22.0914 -1.32962e-05 22.0914C-20.2357 22.0914 -45.0732 28.3281 -41.8836 12.9784C-44.6787 11.8212 -48.2008 8.95144 -46.5316 4.29175C-45.7036 1.98006 -43.8185 0.567089 -42.3936 0.566997C-41.0392 0.56691 -42.9934 -2.2 -40.2188 -3.81491C-39.0195 -4.51291 -37.7273 -4.43211 -36.6068 -4.12355C-28.0141 -23.7311 -20.4124 -40 0 -40Z"></path>
  <clipPath id="cl_124">
    <path d="M279.101 165.867C309.435 165.867 329.81 183.185 348.422 215.681C350.255 213.553 351.975 213.868 353.257 214.473C354.539 215.079 355.217 216.465 354.739 217.704C357.102 218.664 359.178 220.523 360.035 222.109C361.545 224.901 362.638 232.428 357.016 234.16C363.975 260.737 308.603 247.694 279.101 247.694C249.792 247.694 213.816 255.913 218.436 235.685C214.388 234.16 209.286 230.378 211.704 224.237C212.903 221.19 215.634 219.328 217.698 219.328C219.659 219.328 216.829 215.682 220.848 213.553C222.585 212.634 224.456 212.74 226.079 213.147C238.525 187.307 249.536 165.867 279.101 165.867Z"></path>
  </clipPath>
  <g clip-path="url(#cl_124)">
    <path fill="#7463A5" transform="matrix(1.70248 0 0.00718207 1.70248 276.012 204.259)" d="M-3.81737e-06 -5.5C3.86599 -5.5 7 -2.92564 7 0.25C7 3.42564 3.86599 6 -3.81202e-06 6C-3.866 6 -7 3.42564 -7 0.25C-7 -2.92564 -3.866 -5.5 -3.81737e-06 -5.5Z"></path>
    <path fill="#7463A5" transform="matrix(1.7367 0 0.00718207 1.70248 325.714 196.554)" d="M2.44472e-09 -5C2.76142 -5 5 -2.6495 5 0.25C5 3.1495 2.76142 5.5 -2.44472e-09 5.5C-2.76142 5.5 -5 3.1495 -5 0.25C-5 -2.6495 -2.76142 -5 2.44472e-09 -5Z"></path>
    <path fill="none" stroke="#131212" stroke-width="1" stroke-linecap="round" stroke-linejoin="round" transform="matrix(2.182 -0.353477 0.259285 1.60056 305.125 190.221)" d="M4.88246e-07 -4.2288e-06L2.92891 -0.714571"></path>
    <path fill="none" stroke="#131212" stroke-width="1" stroke-linecap="round" stroke-linejoin="round" transform="matrix(2.182 -0.353477 0.259285 1.60056 284.552 189.436)" d="M-1.90735e-06 -1.48459e-07L4.2573 1.79213"></path>
    <path fill="#131212" transform="matrix(2.33716 -0.378612 0.383771 2.36901 297.59 192.378)" d="M4.54078e-07 -2.12283e-06L1.9614 0.352736L0.91509 1.42246L4.54078e-07 -2.12283e-06Z"></path>
    <path fill="none" stroke="#131212" stroke-width="0.5" stroke-linecap="round" stroke-linejoin="round" transform="matrix(1.83262 -0.296878 0.300923 1.85759 300.484 195.722)" d="M-1.79952e-06 -0.711224L-5.61422e-06 1.1102"></path>
    <path fill="#32225E" transform="matrix(1.64843 0.417573 -0.40107 1.65095 294.609 184.938)" d="M5.74338e-08 -1.92716C1.62851 -1.92716 2.94867 -1.06434 2.94867 4.39386e-08C2.94867 1.06434 1.62851 1.92716 -5.74338e-08 1.92716C-1.62851 1.92716 -2.94867 1.06434 -2.94867 -4.39386e-08C-2.94867 -1.06434 -1.62851 -1.92716 5.74338e-08 -1.92716Z"></path>
    <path fill="#32225E" transform="matrix(1.61937 0.410211 -0.390122 1.60588 305.195 184.111)" d="M-3.843e-06 -1.89919C0.889985 -1.89919 1.61146 -1.04889 1.61146 -2.40127e-08C1.61146 1.04889 0.889985 1.89919 -3.7864e-06 1.89919C-0.889993 1.89919 -1.61147 1.04889 -1.61147 2.40127e-08C-1.61147 -1.04889 -0.889993 -1.89919 -3.843e-06 -1.89919Z"></path>
  </g>
  <path fill="none" stroke="black" stroke-width="4" stroke-linejoin="round" transform="matrix(1.70248 0 0 1.70248 397.496 254.761)" d="M-11.7479 -12.9046C-11.318 -13.5165 -10.7601 -14.1187 -10.0572 -14.7065C-5.47351 -18.5399 3.93804 -16.1165 4.43081 -14.7065C7.46664 -16.1165 10.8961 -16.6614 15.0174 -13.9738C19.1387 -11.2862 16.2386 -4.86793 16.6118 -4.55444C16.985 -4.24095 25.2116 0.494543 17.5976 8.33766C16.6439 8.92035 15.7365 9.39703 14.8735 9.77867"></path>
  <path fill="#7463A5" transform="matrix(1.70248 0 0 1.70248 397.496 254.761)" d="M-0.116455 -5.96046e-08C-2.60165 -0.66394 -7.05858 1.11792 -10.0572 -2.65576C-13.0559 -6.42944 -14.641 -10.8732 -10.0572 -14.7065C-5.47351 -18.5399 3.93804 -16.1165 4.43081 -14.7065C7.46664 -16.1165 10.8961 -16.6614 15.0174 -13.9738C19.1387 -11.2862 16.2386 -4.86793 16.6118 -4.55444C16.985 -4.24095 25.2116 0.494543 17.5976 8.33766C2.9012 17.3171 -0.809986 1.11792 -0.116455 -5.96046e-08Z"></path>
  <path fill="none" stroke="black" stroke-width="6" stroke-linejoin="round" transform="matrix(1.70248 0 0 1.70248 225.446 347.116)" d="M-23.4898 -0.192734C-23.1776 -39.917 40.3204 -39.4181 40.0083 0.30619C39.8754 17.2254 39.6536 45.4497 39.5158 62.9838C39.4674 69.1445 30.8688 80.3928 7.62736 80.4807C-15.6141 80.5686 -24.038 69.581 -24.0003 64.7791C-23.8617 47.1423 -23.5879 12.2932 -23.4898 -0.192734Z"></path>
  <path fill="none" stroke="black" stroke-width="6" stroke-linecap="round" stroke-linejoin="bevel" transform="matrix(1.70248 0 0 1.58041 225.446 261.758)" d="M40.0107 38.3726C40.0107 46.2536 40.0107 53.0353 40.0107 56.5422C40.0107 99.4987 -23.4893 99.4565 -23.4893 56.5C-23.4893 45.7166 -23.4893 25.8944 -23.4893 13.4087C-23.4893 0.92303 -17.228 -16.9124 -1.14816 -16.9124C0.625457 -16.9124 2.24955 -16.9124 3.74501 -16.9124"></path>
  <path fill="#503F7E" transform="matrix(1.70248 0 0 1.70248 225.446 347.116)" d="M-23.4898 -0.192734C-23.1647 -41.5669 40.3334 -41.068 40.0083 0.30619C39.8754 17.2254 39.6536 45.4497 39.5158 62.9838C39.4674 69.1445 30.8688 80.3928 7.62736 80.4807C-15.6141 80.5686 -24.038 69.581 -24.0003 64.7791C-23.8617 47.1423 -23.5879 12.2932 -23.4898 -0.192734Z"></path>
  <path fill="#503F7E" transform="matrix(1.70248 0 0 1.58041 225.446 261.758)" d="M-23.4893 13.4087C-23.4893 0.92303 -17.228 -16.9124 -1.14816 -16.9124C14.9316 -16.9124 18.7216 -16.9124 25.7858 -16.9124C32.85 -16.9124 40.0107 -12.9094 40.0107 2.79267C40.0107 18.4947 40.0107 47.7681 40.0107 56.5422C40.0107 94.3272 -23.4893 94.285 -23.4893 56.5C-23.4893 45.7166 -23.4893 25.8944 -23.4893 13.4087Z"></path>
</svg>