<?xml version="1.0" encoding="utf-8"?>
<svg xmlns="http://www.w3.org/2000/svg" xmlns:xlink="http://www.w3.org/1999/xlink" width="686" height="512">
  <path fill="none" stroke="#2B2B2B" stroke-width="6" stroke-linejoin="round" transform="matrix(1.70248 0 0 1.44029 514.311 194.717)" d="M-12.9438 -16.9737C-9.28958 -16.9737 -6.63601 -16.9737 -3.21419 -16.9737C3.85004 -16.9737 11.0107 -12.9707 11.0107 2.73135C11.0107 18.4334 11.0107 47.7067 11.0107 56.4808C11.0107 99.4374 -52.4893 99.3952 -52.4893 56.4387C-52.4893 45.6553 -52.4893 25.833 -52.4893 13.3474C-52.4893 0.86171 -46.228 -16.9737 -30.1481 -16.9737C-28.9444 -16.9737 -27.8096 -16.9737 -26.7371 -16.9737"></path>
  <path fill="none" stroke="#2B2B2B" stroke-width="6" stroke-linejoin="round" transform="matrix(1.70248 0 0 1.55154 514.311 272.508)" d="M-48.6561 14.8952C-68.7922 -22.6709 -12.8253 -52.6702 7.31082 -15.104C15.3042 -0.191525 28.6386 24.6853 36.9225 40.1398C39.833 45.5698 37.6785 59.5633 17.3232 70.781C-3.0321 81.9987 -15.6919 76.3935 -17.9605 72.1612C-26.293 56.6161 -42.7572 25.9003 -48.6561 14.8952Z"></path>
  <path fill="#6B5D90" transform="matrix(1.70248 0 0 1.44029 514.311 194.717)" d="M-52.4893 13.3474C-52.4893 0.86171 -46.228 -16.9737 -30.1481 -16.9737C-14.0683 -16.9737 -10.2784 -16.9737 -3.21419 -16.9737C3.85004 -16.9737 11.0107 -12.9707 11.0107 2.73135C11.0107 18.4334 11.0107 47.7067 11.0107 56.4809C11.0107 99.4374 -52.4893 99.3952 -52.4893 56.4387C-52.4893 45.6553 -52.4893 25.833 -52.4893 13.3474Z"></path>
  <path fill="#6B5D90" transform="matrix(1.70248 0 0 1.55154 514.311 272.508)" d="M-48.6561 14.8952C-68.7922 -22.6709 -12.8253 -52.6702 7.31082 -15.104C15.3042 -0.191526 28.6386 24.6853 36.9225 40.1398C39.833 45.5698 37.6785 59.5633 17.3232 70.781C-3.0321 81.9987 -15.6919 76.3935 -17.9605 72.1612C-26.293 56.6161 -42.7572 25.9003 -48.6561 14.8952Z"></path>
  <path fill="none" stroke="#2B2B2B" stroke-width="5" stroke-linejoin="round" transform="matrix(1.58884 0 0 1.70248 429.612 371.218)" d="M-11.7719 -4.97403C-6.5204 -21.2615 1.49063 -31.6285 50.1153 -17.9737C64.7109 -14.3033 81.4613 -13.6643 86.3298 2.31162C82.9042 12.6243 80.0105 24.4065 74.9983 39.0452C62.8196 46.1921 48.3875 42.6049 30.9752 38.2549C-16.9005 25.4109 -17.0235 11.3134 -11.7719 -4.97403Z"></path>
  <path fill="#62538C" transform="matrix(1.58884 0 0 1.70248 429.612 371.218)" d="M-11.7719 -4.97403C-6.5204 -21.2615 1.49063 -31.6285 50.1153 -17.9737C64.7109 -14.3033 81.4613 -13.6643 86.3298 2.31162C82.9042 12.6243 80.0105 24.4065 74.9983 39.0452C62.8196 46.1921 48.3875 42.6049 30.9752 38.2549C-16.9005 25.4109 -17.0235 11.3134 -11.7719 -4.97403Z"></path>
  <path fill="none" stroke="#2B2B2B" stroke-width="5" stroke-linejoin="round" transform="matrix(1.58884 0 0 1.70248 355.959 377.492)" d="M-14.6084 -3.40733C-9.64659 -19.7737 -1.8206 -30.2631 47.0397 -17.3615C66.6698 -12.7751 80.7736 -11.7557 83.3762 3.93915C79.5465 17.9356 76.8498 27.5887 72.4597 40.8192C61.6374 52.3512 45.8726 43.7645 28.8998 39.1551C-19.1972 27.0526 -19.5703 12.959 -14.6084 -3.40733Z"></path>
  <path fill="none" stroke="#2B2B2B" stroke-width="5" stroke-linejoin="round" transform="matrix(1.70226 0.0261988 -0.0277736 1.60574 434.512 298.813)" d="M-11.3238 -80.2543C25.8014 -80.2543 54.9476 -94.6926 58.9092 -40.8672C62.8708 12.9582 37.0524 74.7499 0.0572957 75.3534C-14.1177 75.5847 -17.7665 75.6442 -48.2096 76.1409C-78.6526 76.6376 -84.25 60.12 -84.25 1.90735e-06C-86.6294 -86.0849 -88.6034 -78.4854 -12.7475 -80.2208"></path>
  <path fill="#6B5D90" transform="matrix(1.58884 0 0 1.70248 355.959 377.492)" d="M-14.6084 -3.40733C-9.64659 -19.7737 -1.8206 -30.2631 47.0397 -17.3615C66.6698 -12.7751 80.7736 -11.7557 83.3762 3.93915C79.5465 17.9356 76.8498 27.5887 72.4597 40.8192C61.6374 52.3512 45.8726 43.7645 28.8998 39.1551C-19.1972 27.0526 -19.5703 12.959 -14.6084 -3.40733Z"></path>
  <path fill="none" stroke="#2B2B2B" stroke-width="5" stroke-linejoin="round" transform="matrix(1.44842 1.48659e-24 -1.35259e-24 1.31786 383.308 153.749)" d="M0 -40C20.9426 -40 35.0096 -26.8589 47.8597 -2.20018C49.1253 -3.81499 50.3123 -3.57653 51.1974 -3.11682C52.0824 -2.65711 52.5509 -1.60562 52.2206 -0.665342C53.8523 0.0631991 55.2854 1.47333 55.8775 2.67698C56.9197 4.79566 57.6743 10.5072 53.7931 11.8212C58.5977 31.9882 20.3682 22.0914 -1.32962e-05 22.0914C-20.2357 22.0914 -45.0732 28.3281 -41.8836 12.9784C-44.6787 11.8212 -48.2008 8.95144 -46.5316 4.29175C-45.7036 1.98006 -43.8185 0.567089 -42.3936 0.566997C-41.0392 0.56691 -42.9934 -2.2 -40.2188 -3.81491C-39.0195 -4.51291 -37.7273 -4.43211 -36.6068 -4.12355C-28.0141 -23.7311 -20.4124 -40 0 -40Z"></path>
  <path fill="#6B5D90" transform="matrix(1.70226 0.0261988 -0.0277736 1.60574 434.512 298.813)" d="M-11.3238 -80.2543C25.8014 -80.2543 54.9476 -94.6926 58.9092 -40.8672C62.8708 12.9582 37.0524 74.7499 0.0572957 75.3534C-14.1177 75.5847 -17.7665 75.6442 -48.2096 76.1409C-78.6526 76.6376 -84.25 60.12 -84.25 1.90735e-06C-86.6442 -86.62 -88.6279 -78.3873 -11.3238 -80.2543Z"></path>
  <clipPath id="cl_a5">
    <path d="M417.465 169.649C480.661 170.622 530.676 148.201 535.925 234.735C541.174 321.268 495.508 419.812 432.516 419.812C408.381 419.812 402.168 419.812 350.332 419.812C298.496 419.812 289.427 393.143 291.097 296.606C289.427 157.454 285.822 170.622 417.465 169.649Z"></path>
  </clipPath>
  <g clip-path="url(#cl_a5)">
    <path fill="#7C6EA1" transform="matrix(1.70248 0 0 1.70248 469.626 281.863)" d="M-0.158638 -48.2656C25.513 -48.2656 46.324 -26.6563 46.324 0C46.324 26.6563 25.513 48.2656 -0.158638 48.2656C-25.8303 48.2656 -46.6413 26.6563 -46.6413 0C-46.6413 -26.6563 -25.8303 -48.2656 -0.158638 -48.2656Z"></path>
  </g>
  <path fill="none" stroke="#2B2B2B" stroke-width="2" stroke-linejoin="round" transform="matrix(3.67759 -0.721864 0.653943 3.33157 389.739 79.7402)" d="M-4.34758 -5.25472C-4.34758 -11.5047 3.66088 -11.5047 3.66088 -5.25472C3.66088 0.99528 3.66088 12.5 3.66088 12.5L-4.57314 12.5C-4.57314 12.5 -4.34758 0.99528 -4.34758 -5.25472Z"></path>
  <path fill="none" stroke="#2B2B2B" stroke-width="2" stroke-linejoin="round" transform="matrix(3.33157 -0.653943 0.653943 3.33157 357.385 84.8598)" d="M-5.1645 -6.50117C-5.1645 -12.7512 6 -12.7512 6 -6.50117C6 -0.25117 6 12.5 6 12.5L-6 12.5C-6 12.5 -5.1645 -0.251171 -5.1645 -6.50117Z"></path>
  <path fill="#62538C" transform="matrix(3.67759 -0.721864 0.653943 3.33157 389.739 79.7402)" d="M-4.34758 -5.25472C-4.34758 -11.5047 3.66088 -11.5047 3.66088 -5.25472C3.66088 0.99528 3.66088 12.5 3.66088 12.5L-4.57314 12.5C-4.57314 12.5 -4.34758 0.99528 -4.34758 -5.25472Z"></path>
  <path fill="none" stroke="#3D3D3D" stroke-width="0.5" stroke-linecap="round" stroke-linejoin="round" transform="matrix(3.67759 -0.721864 0.653943 3.33157 385.205 61.2668)" d="M6.45282e-06 1.51652L5.73804e-06 10.5382"></path>
  <path fill="#6B5D90" transform="matrix(3.33157 -0.653943 0.653943 3.33157 357.385 84.8598)" d="M-5.1645 -6.50117C-5.16451 -12.7512 6 -12.7512 6 -6.50117C6 -0.25117 6 12.5 6 12.5L-6 12.5C-6 12.5 -5.1645 -0.251171 -5.1645 -6.50117Z"></path>
  <path fill="none" stroke="#3D3D3D" stroke-width="0.5" stroke-linecap="round" stroke-linejoin="round" transform="matrix(3.33157 -0.653943 0.653943 3.33157 357.587 65.9259)" d="M1.85391e-08 2.6499e-08L3.83324e-06 10.5382"></path>
  <path fill="#6B5D90" transform="matrix(1.44842 0 0 1.31786 383.308 153.749)" d="M0 -40C20.9426 -40 35.0096 -26.8589 47.8597 -2.20018C49.1253 -3.81499 50.3123 -3.57653 51.1974 -3.11682C52.0824 -2.65711 52.5509 -1.60562 52.2206 -0.665342C53.8523 0.0631991 55.2854 1.47333 55.8775 2.67698C56.9197 4.79566 57.6743 10.5072 53.7931 11.8212C58.5977 31.9882 20.3682 22.0914 -1.32962e-05 22.0914C-20.2357 22.0914 -45.0732 28.3281 -41.8836 12.9784C-44.6787 11.8212 -48.2008 8.95144 -46.5316 4.29175C-45.7036 1.98006 -43.8185 0.567089 -42.3936 0.566997C-41.0392 0.56691 -42.9934 -2.2 -40.2188 -3.81491C-39.0195 -4.51291 -37.7273 -4.43211 -36.6068 -4.12355C-28.0141 -23.7311 -20.4124 -40 0 -40Z"></path>
  <clipPath id="cl_a6">
    <path d="M383.308 101.035C413.642 101.035 434.017 118.353 452.629 150.85C454.462 148.722 456.181 149.036 457.463 149.642C458.745 150.248 459.424 151.633 458.945 152.872C461.309 153.832 463.385 155.691 464.242 157.277C465.752 160.069 466.845 167.596 461.223 169.328C468.182 195.905 412.81 182.862 383.308 182.862C353.998 182.862 318.023 191.082 322.643 170.853C318.595 169.328 313.493 165.546 315.911 159.405C317.11 156.359 319.841 154.497 321.904 154.496C323.866 154.496 321.036 150.85 325.054 148.722C326.791 147.802 328.663 147.908 330.286 148.315C342.732 122.475 353.742 101.035 383.308 101.035Z"></path>
  </clipPath>
  <g clip-path="url(#cl_a6)">
    <path fill="#887AAF" transform="matrix(1.70248 0 0.00718207 1.70248 380.219 139.427)" d="M-1.91003e-06 -5.5C3.86599 -5.5 7 -2.92564 7 0.25C7 3.42564 3.86599 6 -1.90467e-06 6C-3.866 6 -7 3.42564 -7 0.25C-7 -2.92564 -3.866 -5.5 -1.91003e-06 -5.5Z"></path>
    <path fill="#887AAF" transform="matrix(1.7367 0 0.00718207 1.70248 429.921 131.722)" d="M2.44472e-09 -5C2.76142 -5 5 -2.6495 5 0.25C5 3.1495 2.76142 5.5 -2.44472e-09 5.5C-2.76142 5.5 -5 3.1495 -5 0.25C-5 -2.6495 -2.76142 -5 2.44472e-09 -5Z"></path>
    <path fill="none" stroke="#3A3939" stroke-width="1" stroke-linecap="round" stroke-linejoin="round" transform="matrix(2.182 -0.353477 0.259285 1.60056 409.331 125.389)" d="M4.88246e-07 -4.14104e-07L2.92891 -0.714567"></path>
    <path fill="none" stroke="#3A3939" stroke-width="1" stroke-linecap="round" stroke-linejoin="round" transform="matrix(2.182 -0.353477 0.259285 1.60056 388.759 124.604)" d="M0 -7.77785e-06L4.25731 1.79212"></path>
    <path fill="#3A3939" transform="matrix(2.33716 -0.378612 0.383771 2.36901 401.797 127.546)" d="M-4.99596e-07 -4.03018e-06L1.9614 0.352734L0.915089 1.42246L-4.99596e-07 -4.03018e-06Z"></path>
    <path fill="none" stroke="#3A3939" stroke-width="0.5" stroke-linecap="round" stroke-linejoin="round" transform="matrix(1.83262 -0.296878 0.300923 1.85759 404.691 130.89)" d="M1.0783e-07 -0.711221L-3.70687e-06 1.1102"></path>
    <path fill="#534676" transform="matrix(1.64843 0.417573 -0.40107 1.65095 398.816 120.107)" d="M1.96478e-06 -1.92716C1.62851 -1.92716 2.94867 -1.06435 2.94867 -7.58546e-06C2.94867 1.06433 1.62851 1.92715 1.84991e-06 1.92715C-1.6285 1.92715 -2.94867 1.06433 -2.94867 -7.67333e-06C-2.94867 -1.06435 -1.6285 -1.92716 1.96478e-06 -1.92716Z"></path>
    <path fill="#534676" transform="matrix(1.61937 0.410211 -0.390122 1.60588 409.402 119.279)" d="M-5.75035e-06 -1.89918C0.889983 -1.89918 1.61146 -1.04889 1.61146 7.60538e-06C1.61146 1.0489 0.889983 1.8992 -5.69375e-06 1.8992C-0.889995 1.8992 -1.61147 1.0489 -1.61147 7.65341e-06C-1.61147 -1.04889 -0.889995 -1.89918 -5.75035e-06 -1.89918Z"></path>
  </g>
  <path fill="none" stroke="#2B2B2B" stroke-width="4" stroke-linejoin="round" transform="matrix(1.70248 0 0 1.70248 507.791 189.929)" d="M-11.7479 -12.9046C-11.318 -13.5165 -10.7601 -14.1187 -10.0572 -14.7065C-5.47351 -18.5399 3.93804 -16.1165 4.43081 -14.7065C7.46664 -16.1165 10.8961 -16.6614 15.0174 -13.9738C19.1387 -11.2862 16.2386 -4.86793 16.6118 -4.55444C16.985 -4.24095 25.2116 0.494543 17.5976 8.33766C16.6439 8.92035 15.7365 9.39703 14.8735 9.77867"></path>
  <path fill="#887AAF" transform="matrix(1.70248 0 0 1.70248 507.791 189.929)" d="M-0.116455 0C-2.60165 -0.66394 -7.05858 1.11792 -10.0572 -2.65576C-13.0559 -6.42944 -14.641 -10.8732 -10.0572 -14.7065C-5.47351 -18.5399 3.93804 -16.1165 4.43081 -14.7065C7.46664 -16.1165 10.8961 -16.6614 15.0174 -13.9738C19.1387 -11.2862 16.2386 -4.86793 16.6118 -4.55444C16.985 -4.24095 25.2116 0.494543 17.5976 8.33766C2.9012 17.3171 -0.809986 1.11792 -0.116455 0Z"></path>
  <path fill="none" stroke="#2B2B2B" stroke-width="6" stroke-linejoin="round" transform="matrix(1.70248 0 0 1.70248 335.741 282.285)" d="M-10.3215 12.598C-27.3533 -23.2912 30.0144 -50.5161 47.0463 -14.6269C54.3004 0.658845 66.4016 26.1583 73.9194 41.9996C76.5608 47.5655 73.724 61.4368 52.8443 71.6451C31.9645 81.8534 19.5941 75.6355 17.5353 71.2972C9.97345 55.3631 -4.9681 23.8785 -10.3215 12.598Z"></path>
  <path fill="none" stroke="#2B2B2B" stroke-width="6" stroke-linecap="round" stroke-linejoin="bevel" transform="matrix(1.70248 0 0 1.58041 335.741 196.927)" d="M46.4879 30.5984C47.9666 38.3727 49.2404 45.0699 49.8974 48.5241C57.9017 90.6064 -4.31382 104.296 -12.318 62.2133C-14.3274 51.6494 -18.0209 32.2306 -20.3474 19.999C-22.6739 7.76748 -19.8633 -11.0589 -4.11074 -14.5358C-2.51403 -14.8882 -1.04103 -15.2133 0.324157 -15.5147"></path>
  <path fill="#6B5D90" transform="matrix(1.70248 0 0 1.70248 335.741 282.285)" d="M-10.3215 12.598C-28.0607 -24.7818 29.307 -52.0067 47.0463 -14.6269C54.3004 0.658844 66.4016 26.1583 73.9194 41.9996C76.5608 47.5655 73.724 61.4368 52.8443 71.6451C31.9645 81.8534 19.5941 75.6355 17.5353 71.2972C9.97345 55.3631 -4.9681 23.8785 -10.3215 12.598Z"></path>
  <path fill="#6B5D90" transform="matrix(1.70248 0 0 1.58041 335.741 196.927)" d="M-20.3474 19.999C-22.6739 7.76748 -19.8633 -11.0589 -4.11074 -14.5358C11.6418 -18.0127 15.3546 -18.8322 22.2751 -20.3597C29.1955 -21.8872 36.9563 -19.514 39.8821 -4.13147C42.8079 11.251 48.2625 39.9286 49.8974 48.5241C56.938 85.5401 -5.27745 99.2293 -12.3181 62.2133C-14.3274 51.6494 -18.0209 32.2306 -20.3474 19.999Z"></path>
</svg>