<?xml version="1.0" encoding="utf-8"?>
<svg xmlns="http://www.w3.org/2000/svg" xmlns:xlink="http://www.w3.org/1999/xlink" width="686" height="512">
  <path fill="none" stroke="black" stroke-width="6" stroke-linejoin="round" transform="matrix(1.70248 0 0 1.44029 389.917 267.837)" d="M-12.9438 -16.9737C-9.2896 -16.9737 -6.63603 -16.9737 -3.2142 -16.9737C3.85003 -16.9737 11.0107 -12.9707 11.0107 2.73135C11.0107 18.4334 11.0107 47.7067 11.0107 56.4808C11.0107 99.4374 -52.4893 99.3952 -52.4893 56.4387C-52.4893 45.6553 -52.4893 25.833 -52.4893 13.3474C-52.4893 0.861708 -46.228 -16.9737 -30.1482 -16.9737C-28.9445 -16.9737 -27.8096 -16.9737 -26.7371 -16.9737"></path>
  <path fill="none" stroke="black" stroke-width="6" stroke-linejoin="round" transform="matrix(1.70248 0 0 1.55154 389.917 345.627)" d="M-50.125 11.8031C-66.0801 -27.7205 -7.19686 -51.4907 8.75823 -11.9671C15.0919 3.72239 25.6575 29.8955 32.2214 46.1552C34.5276 51.8681 30.8722 65.5465 9.42303 74.4969C-12.0261 83.4473 -24.0055 76.5059 -25.803 72.053C-32.4053 55.6979 -45.4509 23.3816 -50.125 11.8031Z"></path>
  <path fill="#503F7E" transform="matrix(1.70248 0 0 1.44029 389.917 267.837)" d="M-52.4893 13.3474C-52.4893 0.861708 -46.228 -16.9737 -30.1482 -16.9737C-14.0684 -16.9737 -10.2784 -16.9737 -3.2142 -16.9737C3.85003 -16.9737 11.0107 -12.9707 11.0107 2.73135C11.0107 18.4334 11.0107 47.7067 11.0107 56.4808C11.0107 99.4374 -52.4893 99.3952 -52.4893 56.4387C-52.4893 45.6553 -52.4893 25.833 -52.4893 13.3474Z"></path>
  <path fill="#503F7E" transform="matrix(1.70248 0 0 1.55154 389.917 345.627)" d="M-50.125 11.8031C-66.0801 -27.7205 -7.19686 -51.4907 8.75823 -11.9671C15.0919 3.72239 25.6575 29.8955 32.2214 46.1552C34.5276 51.8681 30.8722 65.5465 9.42303 74.4969C-12.0261 83.4473 -24.0055 76.5059 -25.803 72.053C-32.4053 55.6979 -45.4509 23.3816 -50.125 11.8031Z"></path>
  <path fill="none" stroke="black" stroke-width="5" stroke-linejoin="round" transform="matrix(1.58884 0 0 1.70248 305.218 444.338)" d="M-12.2831 -0.364532C-12.811 -17.3662 -8.71746 -29.5636 42.0396 -30.9363C57.1303 -31.7547 73.24 -36.0845 83.2647 -22.3606C83.5036 -11.566 84.7444 0.46608 84.9416 15.8329C75.8041 26.203 60.8967 27.0522 42.9034 28.0559C-6.86867 29.9771 -11.7551 16.6372 -12.2831 -0.364532Z"></path>
  <path fill="#453279" transform="matrix(1.58884 0 0 1.70248 305.218 444.338)" d="M-12.2831 -0.364532C-12.811 -17.3662 -8.71746 -29.5636 42.0396 -30.9363C57.1303 -31.7547 73.24 -36.0845 83.2647 -22.3606C83.5036 -11.566 84.7444 0.46608 84.9416 15.8329C75.8041 26.203 60.8967 27.0522 42.9034 28.0559C-6.86867 29.9771 -11.7551 16.6372 -12.2831 -0.364532Z"></path>
  <path fill="none" stroke="black" stroke-width="5" stroke-linejoin="round" transform="matrix(1.58884 0 0 1.70248 231.565 450.612)" d="M-14.9963 1.64227C-16.3715 -15.3181 -12.8907 -27.68 37.7429 -31.2558C57.8654 -33.2528 71.4838 -36.8246 79.714 -22.9238C81.2786 -8.55219 82.3055 1.37744 83.0614 15.2098C77.1516 29.5129 59.1836 26.5127 41.5477 27.6349C-8.07461 31.7159 -13.6211 18.6026 -14.9963 1.64227Z"></path>
  <path fill="none" stroke="black" stroke-width="5" stroke-linejoin="round" transform="matrix(1.70226 0.0261988 -0.0277736 1.60574 310.118 371.933)" d="M-11.3238 -80.2543C25.8014 -80.2543 54.9476 -94.6926 58.9092 -40.8672C62.8708 12.9582 37.0524 74.7499 0.05729 75.3534C-14.1177 75.5847 -17.7665 75.6442 -48.2096 76.1409C-78.6526 76.6376 -84.25 60.12 -84.25 0C-86.6294 -86.0849 -88.6034 -78.4854 -12.7475 -80.2208"></path>
  <path fill="#503F7E" transform="matrix(1.58884 0 0 1.70248 231.565 450.612)" d="M-14.9963 1.64227C-16.3715 -15.3181 -12.8907 -27.68 37.7429 -31.2558C57.8654 -33.2528 71.4838 -36.8246 79.714 -22.9238C81.2786 -8.55219 82.3055 1.37744 83.0614 15.2098C77.1516 29.5129 59.1836 26.5127 41.5477 27.6349C-8.07461 31.7159 -13.6211 18.6026 -14.9963 1.64227Z"></path>
  <path fill="none" stroke="black" stroke-width="5" stroke-linejoin="round" transform="matrix(1.44842 1.48659e-24 -1.35259e-24 1.31786 265.002 226.869)" d="M0 -40C20.9426 -40 35.0096 -26.8589 47.8597 -2.20017C49.1253 -3.81499 50.3123 -3.57653 51.1974 -3.11682C52.0824 -2.65711 52.5509 -1.60562 52.2206 -0.66534C53.8523 0.063201 55.2854 1.47333 55.8775 2.67698C56.9197 4.79567 57.6743 10.5072 53.7931 11.8212C58.5977 31.9882 20.3682 22.0914 -1.32962e-05 22.0914C-20.2357 22.0914 -45.0732 28.3281 -41.8836 12.9784C-44.6787 11.8212 -48.2008 8.95145 -46.5316 4.29176C-45.7036 1.98006 -43.8185 0.567091 -42.3936 0.566999C-41.0392 0.566912 -42.9934 -2.2 -40.2188 -3.8149C-39.0195 -4.5129 -37.7273 -4.43211 -36.6068 -4.12355C-28.0141 -23.7311 -20.4124 -40 0 -40Z"></path>
  <path fill="#503F7E" transform="matrix(1.70226 0.0261988 -0.0277736 1.60574 310.118 371.933)" d="M-11.3238 -80.2543C25.8014 -80.2543 54.9476 -94.6926 58.9092 -40.8672C62.8708 12.9582 37.0524 74.7499 0.05729 75.3534C-14.1177 75.5847 -17.7665 75.6442 -48.2096 76.1409C-78.6526 76.6376 -84.25 60.12 -84.25 0C-86.6442 -86.62 -88.6279 -78.3873 -11.3238 -80.2543Z"></path>
  <clipPath id="cl_18f">
    <path d="M293.071 242.769C356.267 243.741 406.282 221.321 411.531 307.854C416.78 394.387 371.114 492.932 308.122 492.932C283.987 492.932 277.774 492.932 225.938 492.932C174.102 492.932 165.033 466.262 166.703 369.725C165.033 230.574 161.427 243.741 293.071 242.769Z"></path>
  </clipPath>
  <g clip-path="url(#cl_18f)">
    <path fill="#655494" transform="matrix(1.70248 0 0 1.70248 345.232 354.983)" d="M-0.158644 -48.2656C25.513 -48.2656 46.324 -26.6563 46.324 0C46.324 26.6563 25.513 48.2656 -0.158644 48.2656C-25.8303 48.2656 -46.6413 26.6563 -46.6413 0C-46.6413 -26.6563 -25.8303 -48.2656 -0.158644 -48.2656Z"></path>
  </g>
  <path fill="none" stroke="black" stroke-width="2" stroke-linejoin="round" transform="matrix(3.67759 -0.721864 0.653943 3.33157 271.433 152.86)" d="M-4.34758 -5.25471C-4.34758 -11.5047 3.66088 -11.5047 3.66088 -5.25471C3.66088 0.995287 3.66088 12.5 3.66088 12.5L-4.57314 12.5C-4.57314 12.5 -4.34758 0.995288 -4.34758 -5.25471Z"></path>
  <path fill="none" stroke="black" stroke-width="2" stroke-linejoin="round" transform="matrix(3.33157 -0.653943 0.653943 3.33157 239.078 157.979)" d="M-5.1645 -6.50116C-5.16451 -12.7512 6 -12.7512 6 -6.50116C6 -0.251162 6 12.5 6 12.5L-6 12.5C-6 12.5 -5.1645 -0.251163 -5.1645 -6.50116Z"></path>
  <path fill="#453279" transform="matrix(3.67759 -0.721864 0.653943 3.33157 271.433 152.86)" d="M-4.34758 -5.25471C-4.34758 -11.5047 3.66088 -11.5047 3.66088 -5.25471C3.66088 0.995287 3.66088 12.5 3.66088 12.5L-4.57314 12.5C-4.57314 12.5 -4.34758 0.995288 -4.34758 -5.25471Z"></path>
  <path fill="none" stroke="#161616" stroke-width="0.5" stroke-linecap="round" stroke-linejoin="round" transform="matrix(3.67759 -0.721864 0.653943 3.33157 266.899 134.386)" d="M4.54547e-06 1.51652L3.83069e-06 10.5382"></path>
  <path fill="#503F7E" transform="matrix(3.33157 -0.653943 0.653943 3.33157 239.078 157.979)" d="M-5.1645 -6.50117C-5.16451 -12.7512 6 -12.7512 6 -6.50117C6 -0.251166 6 12.5 6 12.5L-6 12.5C-6 12.5 -5.1645 -0.251167 -5.1645 -6.50117Z"></path>
  <path fill="none" stroke="#161616" stroke-width="0.5" stroke-linecap="round" stroke-linejoin="round" transform="matrix(3.33157 -0.653943 0.653943 3.33157 239.281 139.045)" d="M1.85391e-08 3.8412e-06L3.83324e-06 10.5382"></path>
  <path fill="#503F7E" transform="matrix(1.44842 0 0 1.31786 265.002 226.869)" d="M0 -40C20.9426 -40 35.0096 -26.8589 47.8597 -2.20018C49.1253 -3.81499 50.3123 -3.57653 51.1974 -3.11682C52.0824 -2.65711 52.5509 -1.60562 52.2206 -0.665342C53.8523 0.0631991 55.2854 1.47333 55.8775 2.67698C56.9197 4.79566 57.6743 10.5072 53.7931 11.8212C58.5977 31.9882 20.3682 22.0914 -1.32962e-05 22.0914C-20.2357 22.0914 -45.0732 28.3281 -41.8836 12.9784C-44.6787 11.8212 -48.2008 8.95144 -46.5316 4.29175C-45.7036 1.98006 -43.8185 0.567089 -42.3936 0.566997C-41.0392 0.56691 -42.9934 -2.2 -40.2188 -3.81491C-39.0195 -4.51291 -37.7273 -4.43211 -36.6068 -4.12355C-28.0141 -23.7311 -20.4124 -40 0 -40Z"></path>
  <clipPath id="cl_190">
    <path d="M265.002 174.154C295.336 174.154 315.711 191.472 334.323 223.969C336.156 221.841 337.875 222.155 339.157 222.761C340.439 223.367 341.118 224.753 340.639 225.992C343.003 226.952 345.078 228.81 345.936 230.396C347.446 233.189 348.539 240.716 342.917 242.447C349.876 269.024 294.504 255.982 265.002 255.982C235.692 255.982 199.717 264.201 204.337 243.972C200.288 242.447 195.187 238.665 197.605 232.525C198.804 229.478 201.534 227.616 203.598 227.616C205.56 227.616 202.729 223.969 206.748 221.841C208.485 220.921 210.357 221.028 211.98 221.434C224.426 195.594 235.436 174.154 265.002 174.154Z"></path>
  </clipPath>
  <g clip-path="url(#cl_190)">
    <path fill="#7463A5" transform="matrix(1.70248 0 0.00718207 1.70248 261.913 212.546)" d="M-2.67755e-09 -5.5C3.86599 -5.5 7 -2.92564 7 0.25C7 3.42564 3.86599 6 2.67755e-09 6C-3.86599 6 -7 3.42564 -7 0.25C-7 -2.92564 -3.86599 -5.5 -2.67755e-09 -5.5Z"></path>
    <path fill="#7463A5" transform="matrix(1.7367 0 0.00718207 1.70248 311.614 204.842)" d="M2.44472e-09 -5C2.76142 -5 5 -2.6495 5 0.249998C5 3.14949 2.76142 5.5 -2.44472e-09 5.5C-2.76142 5.5 -5 3.14949 -5 0.249998C-5 -2.6495 -2.76142 -5 2.44472e-09 -5Z"></path>
    <path fill="none" stroke="#131212" stroke-width="1" stroke-linecap="round" stroke-linejoin="round" transform="matrix(2.182 -0.353477 0.259285 1.60056 291.025 198.508)" d="M4.88246e-07 -4.14104e-07L2.92891 -0.714567"></path>
    <path fill="none" stroke="#131212" stroke-width="1" stroke-linecap="round" stroke-linejoin="round" transform="matrix(2.182 -0.353477 0.259285 1.60056 270.453 197.724)" d="M0 -1.48459e-07L4.25731 1.79213"></path>
    <path fill="#131212" transform="matrix(2.33716 -0.378612 0.383771 2.36901 283.491 200.665)" d="M-4.99596e-07 -2.15485e-07L1.9614 0.352738L0.915089 1.42246L-4.99596e-07 -2.15485e-07Z"></path>
    <path fill="none" stroke="#131212" stroke-width="0.5" stroke-linecap="round" stroke-linejoin="round" transform="matrix(1.83262 -0.296878 0.300923 1.85759 286.385 204.009)" d="M1.0783e-07 -0.711228L-3.70687e-06 1.11019"></path>
    <path fill="#32225E" transform="matrix(1.64843 0.417573 -0.40107 1.65095 280.509 193.226)" d="M-3.75726e-06 -1.92716C1.6285 -1.92716 2.94867 -1.06434 2.94867 -1.86341e-06C2.94867 1.06434 1.6285 1.92716 -3.87213e-06 1.92716C-1.62851 1.92716 -2.94867 1.06434 -2.94867 -1.95129e-06C-2.94867 -1.06434 -1.62851 -1.92716 -3.75726e-06 -1.92716Z"></path>
    <path fill="#32225E" transform="matrix(1.61937 0.410211 -0.390122 1.60588 291.096 192.398)" d="M-3.843e-06 -1.89919C0.889985 -1.89919 1.61146 -1.04889 1.61146 3.79068e-06C1.61146 1.0489 0.889985 1.89919 -3.7864e-06 1.89919C-0.889993 1.89919 -1.61147 1.0489 -1.61147 3.83871e-06C-1.61147 -1.04889 -0.889993 -1.89919 -3.843e-06 -1.89919Z"></path>
  </g>
  <path fill="none" stroke="black" stroke-width="4" stroke-linejoin="round" transform="matrix(1.70248 0 0 1.70248 383.397 263.048)" d="M-11.7479 -12.9046C-11.318 -13.5165 -10.7601 -14.1187 -10.0572 -14.7065C-5.47351 -18.5399 3.93804 -16.1165 4.43081 -14.7065C7.46665 -16.1165 10.8961 -16.6614 15.0174 -13.9738C19.1387 -11.2862 16.2386 -4.86793 16.6118 -4.55444C16.985 -4.24095 25.2116 0.494543 17.5976 8.33766C16.6439 8.92035 15.7365 9.39703 14.8735 9.77867"></path>
  <path fill="#7463A5" transform="matrix(1.70248 0 0 1.70248 383.397 263.048)" d="M-0.116453 0C-2.60165 -0.66394 -7.05858 1.11792 -10.0572 -2.65576C-13.0559 -6.42944 -14.6409 -10.8732 -10.0572 -14.7065C-5.47351 -18.5399 3.93804 -16.1165 4.43081 -14.7065C7.46665 -16.1165 10.8961 -16.6614 15.0174 -13.9738C19.1387 -11.2862 16.2386 -4.86793 16.6118 -4.55444C16.985 -4.24095 25.2116 0.494543 17.5976 8.33766C2.9012 17.3171 -0.809984 1.11792 -0.116453 0Z"></path>
  <path fill="none" stroke="black" stroke-width="6" stroke-linejoin="round" transform="matrix(1.70248 0 0 1.70248 211.347 355.404)" d="M-23.4898 -0.192745C-23.1776 -39.917 40.3204 -39.4181 40.0083 0.306179C39.8754 17.2254 39.6536 45.4497 39.5158 62.9838C39.4674 69.1445 30.8688 80.3928 7.62736 80.4807C-15.6141 80.5686 -24.038 69.581 -24.0003 64.7791C-23.8617 47.1422 -23.5879 12.2932 -23.4898 -0.192745Z"></path>
  <path fill="none" stroke="black" stroke-width="6" stroke-linecap="round" stroke-linejoin="bevel" transform="matrix(1.70248 0 0 1.58041 211.347 270.046)" d="M40.0106 38.3726C40.0106 46.2536 40.0106 53.0353 40.0106 56.5422C40.0106 99.4987 -23.4894 99.4565 -23.4894 56.5C-23.4894 45.7166 -23.4894 25.8944 -23.4894 13.4087C-23.4894 0.92303 -17.228 -16.9124 -1.14818 -16.9124C0.625446 -16.9124 2.24955 -16.9124 3.74501 -16.9124"></path>
  <path fill="#503F7E" transform="matrix(1.70248 0 0 1.70248 211.347 355.404)" d="M-23.4898 -0.192745C-23.1647 -41.5669 40.3334 -41.068 40.0083 0.306179C39.8754 17.2254 39.6536 45.4497 39.5158 62.9838C39.4674 69.1445 30.8688 80.3928 7.62736 80.4807C-15.6141 80.5686 -24.038 69.581 -24.0003 64.7791C-23.8617 47.1422 -23.5879 12.2932 -23.4898 -0.192745Z"></path>
  <path fill="#503F7E" transform="matrix(1.70248 0 0 1.58041 211.347 270.046)" d="M-23.4894 13.4087C-23.4894 0.92303 -17.228 -16.9124 -1.14818 -16.9124C14.9316 -16.9124 18.7216 -16.9124 25.7858 -16.9124C32.85 -16.9124 40.0106 -12.9094 40.0106 2.79267C40.0106 18.4947 40.0106 47.7681 40.0106 56.5422C40.0106 94.3272 -23.4894 94.285 -23.4894 56.5C-23.4894 45.7166 -23.4894 25.8944 -23.4894 13.4087Z"></path>
</svg>