<?xml version="1.0" encoding="utf-8"?>
<svg xmlns="http://www.w3.org/2000/svg" xmlns:xlink="http://www.w3.org/1999/xlink" width="686" height="512">
  <path fill="none" stroke="#6C6C6C" stroke-width="6" stroke-linejoin="round" transform="matrix(1.70248 0 0 1.44029 530.045 185.469)" d="M-12.9438 -16.9737C-9.28958 -16.9737 -6.63601 -16.9737 -3.21419 -16.9737C3.85004 -16.9737 11.0107 -12.9707 11.0107 2.73135C11.0107 18.4334 11.0107 47.7067 11.0107 56.4808C11.0107 99.4374 -52.4893 99.3952 -52.4893 56.4387C-52.4893 45.6553 -52.4893 25.833 -52.4893 13.3474C-52.4893 0.861706 -46.228 -16.9737 -30.1481 -16.9737C-28.9444 -16.9737 -27.8096 -16.9737 -26.7371 -16.9737"></path>
  <path fill="none" stroke="#6C6C6C" stroke-width="6" stroke-linejoin="round" transform="matrix(1.70248 0 0 1.55154 530.045 263.259)" d="M-49.9746 12.1634C-66.4166 -27.1602 -7.83143 -51.6558 8.61058 -12.3323C15.1375 3.27778 26.0256 29.3183 32.7898 45.4958C35.1664 51.1798 31.6802 64.9023 10.3432 74.1169C-10.9938 83.3316 -23.0579 76.5386 -24.9104 72.1082C-31.7141 55.8359 -45.1579 23.6833 -49.9746 12.1634Z"></path>
  <path fill="#948BAB" transform="matrix(1.70248 0 0 1.44029 530.045 185.469)" d="M-52.4893 13.3474C-52.4893 0.861702 -46.228 -16.9737 -30.1481 -16.9737C-14.0683 -16.9737 -10.2784 -16.9737 -3.21419 -16.9737C3.85004 -16.9737 11.0107 -12.9707 11.0107 2.73135C11.0107 18.4334 11.0107 47.7067 11.0107 56.4808C11.0107 99.4374 -52.4893 99.3952 -52.4893 56.4387C-52.4893 45.6553 -52.4893 25.833 -52.4893 13.3474Z"></path>
  <path fill="#948BAB" transform="matrix(1.70248 0 0 1.55154 530.045 263.259)" d="M-49.9746 12.1634C-66.4166 -27.1602 -7.83143 -51.6558 8.61058 -12.3323C15.1375 3.27778 26.0256 29.3183 32.7898 45.4958C35.1664 51.1798 31.6802 64.9023 10.3432 74.1169C-10.9938 83.3316 -23.0579 76.5386 -24.9104 72.1082C-31.7141 55.8359 -45.1579 23.6833 -49.9746 12.1634Z"></path>
  <path fill="none" stroke="#6C6C6C" stroke-width="5" stroke-linejoin="round" transform="matrix(1.58884 0 0 1.70248 445.346 361.97)" d="M-10.4106 -8.13906C-1.22451 -22.8294 9.16151 -31.1614 53.0182 -7.2762C66.2898 -0.523094 82.4161 3.75274 83.1476 20.3481C77.2336 29.6277 71.4686 40.452 62.9283 53.5916C49.2967 57.8833 36.1632 51.2467 20.3231 43.2183C-23.0085 20.2849 -19.5966 6.55129 -10.4106 -8.13906Z"></path>
  <path fill="#8E85A8" transform="matrix(1.58884 0 0 1.70248 445.346 361.97)" d="M-10.4106 -8.13906C-1.22451 -22.8294 9.16151 -31.1614 53.0182 -7.2762C66.2898 -0.523094 82.4161 3.75274 83.1476 20.3481C77.2336 29.6277 71.4686 40.452 62.9283 53.5916C49.2967 57.8833 36.1632 51.2467 20.3231 43.2183C-23.0085 20.2849 -19.5966 6.55129 -10.4106 -8.13906Z"></path>
  <path fill="none" stroke="#6C6C6C" stroke-width="5" stroke-linejoin="round" transform="matrix(1.58884 0 0 1.70248 371.693 368.244)" d="M-13.3546 -6.50114C-4.54418 -21.3905 5.6273 -29.9499 50.0783 -7.04151C68.082 1.58086 81.5704 5.55924 80.2904 21.3959C73.1588 34.2169 68.1862 43.0475 60.6948 55.0038C47.3517 63.9443 34.0848 52.2442 18.6747 44.162C-25.2271 22.1935 -22.165 8.38828 -13.3546 -6.50114Z"></path>
  <path fill="none" stroke="#6C6C6C" stroke-width="5" stroke-linejoin="round" transform="matrix(1.70226 0.0261988 -0.0277736 1.60574 450.245 289.565)" d="M-11.3238 -80.2543C25.8014 -80.2543 54.9476 -94.6926 58.9092 -40.8672C62.8708 12.9582 37.0524 74.7499 0.0572957 75.3534C-14.1177 75.5847 -17.7665 75.6442 -48.2096 76.1409C-78.6526 76.6376 -84.25 60.12 -84.25 0C-86.6294 -86.0849 -88.6034 -78.4854 -12.7475 -80.2208"></path>
  <path fill="#948BAB" transform="matrix(1.58884 0 0 1.70248 371.693 368.244)" d="M-13.3546 -6.50114C-4.54418 -21.3905 5.6273 -29.9499 50.0783 -7.04151C68.082 1.58086 81.5704 5.55924 80.2904 21.3959C73.1588 34.2169 68.1862 43.0475 60.6948 55.0038C47.3517 63.9443 34.0848 52.2442 18.6747 44.162C-25.2271 22.1935 -22.165 8.38828 -13.3546 -6.50114Z"></path>
  <path fill="none" stroke="#6C6C6C" stroke-width="5" stroke-linejoin="round" transform="matrix(1.44842 1.48659e-24 -1.35259e-24 1.31786 393.948 144.501)" d="M0 -40C20.9426 -40 35.0096 -26.8589 47.8597 -2.20018C49.1253 -3.81499 50.3123 -3.57653 51.1974 -3.11682C52.0824 -2.65711 52.5509 -1.60562 52.2206 -0.665342C53.8523 0.0631991 55.2854 1.47333 55.8775 2.67698C56.9197 4.79566 57.6743 10.5072 53.7931 11.8212C58.5977 31.9882 20.3682 22.0914 -1.32962e-05 22.0914C-20.2357 22.0914 -45.0732 28.3281 -41.8836 12.9784C-44.6787 11.8212 -48.2008 8.95144 -46.5316 4.29175C-45.7036 1.98006 -43.8185 0.567089 -42.3936 0.566997C-41.0392 0.56691 -42.9934 -2.2 -40.2188 -3.81491C-39.0195 -4.51291 -37.7273 -4.43211 -36.6068 -4.12355C-28.0141 -23.7311 -20.4124 -40 0 -40Z"></path>
  <path fill="#948BAB" transform="matrix(1.70226 0.0261988 -0.0277736 1.60574 450.245 289.565)" d="M-11.3238 -80.2543C25.8014 -80.2543 54.9476 -94.6926 58.9092 -40.8672C62.8708 12.9582 37.0524 74.7499 0.0572957 75.3534C-14.1177 75.5847 -17.7665 75.6442 -48.2096 76.1409C-78.6526 76.6376 -84.25 60.12 -84.25 0C-86.6442 -86.62 -88.6279 -78.3873 -11.3238 -80.2543Z"></path>
  <clipPath id="cl_8a">
    <path d="M433.198 160.401C496.395 161.374 546.41 138.953 551.659 225.486C556.908 312.019 511.242 410.564 448.25 410.564C424.114 410.564 417.901 410.564 366.066 410.564C314.23 410.564 305.161 383.894 306.83 287.358C305.161 148.206 301.555 161.374 433.198 160.401Z"></path>
  </clipPath>
  <g clip-path="url(#cl_8a)">
    <path fill="#9E96B6" transform="matrix(1.70248 0 0 1.70248 485.36 272.615)" d="M-0.158646 -48.2656C25.513 -48.2656 46.324 -26.6563 46.324 0C46.324 26.6563 25.513 48.2656 -0.158646 48.2656C-25.8303 48.2656 -46.6413 26.6563 -46.6413 0C-46.6413 -26.6563 -25.8303 -48.2656 -0.158646 -48.2656Z"></path>
  </g>
  <path fill="none" stroke="#6C6C6C" stroke-width="2" stroke-linejoin="round" transform="matrix(3.67759 -0.721864 0.653943 3.33157 400.379 70.4919)" d="M-4.34758 -5.25471C-4.34758 -11.5047 3.66088 -11.5047 3.66088 -5.25471C3.66088 0.995287 3.66088 12.5 3.66088 12.5L-4.57314 12.5C-4.57314 12.5 -4.34758 0.995288 -4.34758 -5.25471Z"></path>
  <path fill="none" stroke="#6C6C6C" stroke-width="2" stroke-linejoin="round" transform="matrix(3.33157 -0.653943 0.653943 3.33157 368.025 75.6115)" d="M-5.1645 -6.50116C-5.1645 -12.7512 6 -12.7512 6 -6.50116C6 -0.251162 6 12.5 6 12.5L-6 12.5C-6 12.5 -5.1645 -0.251163 -5.1645 -6.50116Z"></path>
  <path fill="#8E85A8" transform="matrix(3.67759 -0.721864 0.653943 3.33157 400.379 70.4919)" d="M-4.34758 -5.25471C-4.34758 -11.5047 3.66088 -11.5047 3.66088 -5.25471C3.66088 0.995287 3.66088 12.5 3.66088 12.5L-4.57314 12.5C-4.57314 12.5 -4.34758 0.995288 -4.34758 -5.25471Z"></path>
  <path fill="none" stroke="#777" stroke-width="0.5" stroke-linecap="round" stroke-linejoin="round" transform="matrix(3.67759 -0.721864 0.653943 3.33157 395.846 52.0184)" d="M6.45282e-06 1.51652L5.73804e-06 10.5382"></path>
  <path fill="#948BAB" transform="matrix(3.33157 -0.653943 0.653943 3.33157 368.025 75.6115)" d="M-5.1645 -6.50116C-5.16451 -12.7512 6 -12.7512 6 -6.50116C6 -0.251159 6 12.5 6 12.5L-6 12.5C-6 12.5 -5.1645 -0.25116 -5.1645 -6.50116Z"></path>
  <path fill="none" stroke="#777" stroke-width="0.5" stroke-linecap="round" stroke-linejoin="round" transform="matrix(3.33157 -0.653943 0.653943 3.33157 368.227 56.6775)" d="M1.85391e-08 2.6499e-08L3.83324e-06 10.5382"></path>
  <path fill="#948BAB" transform="matrix(1.44842 0 0 1.31786 393.948 144.501)" d="M-3.8147e-06 -40C20.9426 -40 35.0096 -26.8589 47.8597 -2.20018C49.1253 -3.81499 50.3123 -3.57653 51.1974 -3.11682C52.0824 -2.65711 52.5509 -1.60562 52.2206 -0.665342C53.8523 0.0631991 55.2854 1.47333 55.8775 2.67698C56.9197 4.79566 57.6743 10.5072 53.7931 11.8212C58.5977 31.9882 20.3682 22.0914 -1.71109e-05 22.0914C-20.2357 22.0914 -45.0732 28.3281 -41.8836 12.9784C-44.6787 11.8212 -48.2008 8.95144 -46.5316 4.29175C-45.7036 1.98006 -43.8185 0.567089 -42.3936 0.566997C-41.0392 0.56691 -42.9934 -2.2 -40.2188 -3.81491C-39.0195 -4.51291 -37.7273 -4.43211 -36.6068 -4.12355C-28.0141 -23.7311 -20.4124 -40 -3.8147e-06 -40Z"></path>
  <clipPath id="cl_8b">
    <path d="M393.948 91.7866C424.282 91.7866 444.657 109.105 463.269 141.601C465.102 139.473 466.822 139.787 468.104 140.393C469.385 140.999 470.064 142.385 469.586 143.624C471.949 144.584 474.025 146.442 474.882 148.029C476.392 150.821 477.485 158.348 471.863 160.08C478.822 186.657 423.45 173.614 393.948 173.614C364.638 173.614 328.663 181.833 333.283 161.605C329.235 160.08 324.133 156.298 326.551 150.157C327.75 147.11 330.481 145.248 332.545 145.248C334.506 145.248 331.676 141.602 335.695 139.473C337.432 138.553 339.303 138.66 340.926 139.067C353.372 113.227 364.382 91.7866 393.948 91.7866Z"></path>
  </clipPath>
  <g clip-path="url(#cl_8b)">
    <path fill="#A69DBE" transform="matrix(1.70248 0 0.00718207 1.70248 390.859 130.179)" d="M-2.67755e-09 -5.5C3.86599 -5.5 7 -2.92564 7 0.25C7 3.42564 3.86599 6 2.67755e-09 6C-3.86599 6 -7 3.42564 -7 0.25C-7 -2.92564 -3.86599 -5.5 -2.67755e-09 -5.5Z"></path>
    <path fill="#A69DBE" transform="matrix(1.7367 0 0.00718207 1.70248 440.561 122.474)" d="M-3.81225e-06 -5C2.76142 -5 5 -2.6495 5 0.25C5 3.1495 2.76142 5.5 -3.81714e-06 5.5C-2.76143 5.5 -5 3.1495 -5 0.25C-5 -2.6495 -2.76143 -5 -3.81225e-06 -5Z"></path>
    <path fill="none" stroke="#757575" stroke-width="1" stroke-linecap="round" stroke-linejoin="round" transform="matrix(2.182 -0.353477 0.259285 1.60056 419.971 116.141)" d="M4.88246e-07 -4.14104e-07L2.92891 -0.714567"></path>
    <path fill="none" stroke="#757575" stroke-width="1" stroke-linecap="round" stroke-linejoin="round" transform="matrix(2.182 -0.353477 0.259285 1.60056 399.399 115.356)" d="M3.8147e-06 -7.77785e-06L4.25731 1.79212"></path>
    <path fill="#757575" transform="matrix(2.33716 -0.378612 0.383771 2.36901 412.437 118.298)" d="M3.3151e-06 -4.03018e-06L1.96141 0.352734L0.915093 1.42246L3.3151e-06 -4.03018e-06Z"></path>
    <path fill="none" stroke="#757575" stroke-width="0.5" stroke-linecap="round" stroke-linejoin="round" transform="matrix(1.83262 -0.296878 0.300923 1.85759 415.331 121.642)" d="M1.0783e-07 -0.711224L-3.70687e-06 1.1102"></path>
    <path fill="#857D9B" transform="matrix(1.64843 0.417573 -0.40107 1.65095 409.456 110.858)" d="M3.87213e-06 -1.92716C1.62851 -1.92716 2.94867 -1.06434 2.94867 4.39386e-08C2.94867 1.06434 1.62851 1.92716 3.75726e-06 1.92716C-1.6285 1.92716 -2.94867 1.06434 -2.94867 -4.39386e-08C-2.94867 -1.06434 -1.6285 -1.92716 3.87213e-06 -1.92716Z"></path>
    <path fill="#857D9B" transform="matrix(1.61937 0.410211 -0.390122 1.60588 420.042 110.031)" d="M-5.75035e-06 -1.89919C0.889983 -1.89919 1.61146 -1.04889 1.61146 -2.40127e-08C1.61146 1.04889 0.889983 1.89919 -5.69375e-06 1.89919C-0.889995 1.89919 -1.61147 1.04889 -1.61147 2.40127e-08C-1.61147 -1.04889 -0.889995 -1.89919 -5.75035e-06 -1.89919Z"></path>
  </g>
  <path fill="none" stroke="#6C6C6C" stroke-width="4" stroke-linejoin="round" transform="matrix(1.70248 0 0 1.70248 523.525 180.681)" d="M-11.7479 -12.9046C-11.318 -13.5165 -10.7601 -14.1187 -10.0572 -14.7065C-5.47351 -18.5399 3.93804 -16.1165 4.43081 -14.7065C7.46664 -16.1165 10.8961 -16.6614 15.0174 -13.9738C19.1387 -11.2862 16.2386 -4.86794 16.6118 -4.55445C16.985 -4.24095 25.2116 0.494539 17.5976 8.33765C16.6439 8.92035 15.7365 9.39702 14.8735 9.77867"></path>
  <path fill="#A69DBE" transform="matrix(1.70248 0 0 1.70248 523.525 180.681)" d="M-0.116455 -3.8147e-06C-2.60165 -0.663944 -7.05858 1.11792 -10.0572 -2.65577C-13.0559 -6.42945 -14.641 -10.8732 -10.0572 -14.7065C-5.47351 -18.5399 3.93804 -16.1165 4.43081 -14.7065C7.46664 -16.1165 10.8961 -16.6614 15.0174 -13.9738C19.1387 -11.2862 16.2386 -4.86794 16.6118 -4.55445C16.985 -4.24095 25.2116 0.494539 17.5976 8.33765C2.9012 17.3171 -0.809986 1.11792 -0.116455 -3.8147e-06Z"></path>
  <path fill="none" stroke="#6C6C6C" stroke-width="6" stroke-linejoin="round" transform="matrix(1.70248 0 0 1.70248 351.474 273.036)" d="M-5.31003 12.2085C-23.3213 -23.1992 33.2769 -51.9897 51.2882 -16.582C58.9595 -1.50125 71.7566 23.6562 79.7067 39.285C82.5 44.7762 80.0454 58.7202 59.4539 69.4982C38.8624 80.2762 26.3259 74.4005 24.1487 70.1204C16.152 54.4 0.351195 23.3377 -5.31003 12.2085Z"></path>
  <path fill="none" stroke="#6C6C6C" stroke-width="6" stroke-linecap="round" stroke-linejoin="bevel" transform="matrix(1.70248 0 0 1.58041 351.474 187.678)" d="M48.9951 26.4524C51.1647 34.0748 53.035 40.6462 53.998 44.0295C65.6873 85.099 4.96538 105.111 -6.72394 64.0412C-9.65831 53.7315 -15.0523 34.7801 -18.4499 22.8429C-21.8475 10.9057 -20.7146 -8.12345 -5.34117 -13.2011C-3.84747 -13.6945 -2.4647 -14.1512 -1.1792 -14.5758"></path>
  <path fill="#948BAB" transform="matrix(1.70248 0 0 1.70248 351.474 273.036)" d="M-5.31003 12.2085C-24.0694 -24.6698 32.5288 -53.4603 51.2882 -16.582C58.9595 -1.50125 71.7566 23.6562 79.7067 39.285C82.5 44.7762 80.0454 58.7202 59.4539 69.4982C38.8624 80.2762 26.3259 74.4005 24.1487 70.1204C16.152 54.4 0.351195 23.3377 -5.31003 12.2085Z"></path>
  <path fill="#948BAB" transform="matrix(1.70248 0 0 1.58041 351.474 187.678)" d="M-18.4499 22.8429C-21.8475 10.9057 -20.7146 -8.12345 -5.34117 -13.2011C10.0323 -18.2788 13.6557 -19.4756 20.4096 -21.7063C27.1635 -23.937 35.0989 -22.3711 39.3717 -7.35877C43.6445 7.65351 51.6104 35.6409 53.998 44.0295C64.2801 80.1547 3.55812 100.166 -6.72394 64.0412C-9.65831 53.7315 -15.0523 34.7801 -18.4499 22.8429Z"></path>
</svg>