<?xml version="1.0" encoding="utf-8"?>
<svg xmlns="http://www.w3.org/2000/svg" xmlns:xlink="http://www.w3.org/1999/xlink" width="686" height="512">
  <path fill="none" stroke="black" stroke-width="6" stroke-linejoin="round" transform="matrix(1.44792 -0.89553 0.757616 1.22494 343.089 281.39)" d="M-6.11646 -9.25117C-3.24251 -7.15008 -1.06797 -5.56031 1.69591 -3.53968C7.70387 0.852638 12.0124 8.70935 5.02491 22.0636C-1.96261 35.4178 -14.9894 60.314 -18.894 67.7762C-38.0099 104.31 -91.9964 64.7915 -72.8804 28.258C-68.0817 19.087 -59.2607 2.22869 -53.7045 -8.39006C-48.1483 -19.0088 -34.8863 -30.2843 -21.2108 -20.2864C-19.7233 -19.1989 -18.3595 -18.2018 -17.1022 -17.2827"></path>
  <path fill="none" stroke="black" stroke-width="6" stroke-linejoin="round" transform="matrix(1.44792 -0.89553 0.816132 1.31955 384.008 347.549)" d="M-72.3486 4.4931C-90.9568 -36.1807 -35.5074 -60.4279 -16.8992 -19.7542C-9.51236 -3.60806 2.81025 23.3267 10.4656 40.0596C13.1553 45.9388 10.6644 59.9865 -9.51121 69.1187C-29.6868 78.251 -41.8858 71.0788 -43.9823 66.4963C-51.6824 49.6653 -66.8973 16.4086 -72.3486 4.4931Z"></path>
  <path fill="#503F7E" transform="matrix(1.44792 -0.89553 0.757616 1.22494 343.089 281.39)" d="M-53.7045 -8.39007C-48.1483 -19.0088 -34.8863 -30.2843 -21.2108 -20.2864C-7.53529 -10.2885 -4.31206 -7.93201 1.69591 -3.53969C7.70386 0.852633 12.0124 8.70935 5.0249 22.0636C-1.96262 35.4178 -14.9894 60.314 -18.894 67.7762C-38.0099 104.31 -91.9964 64.7915 -72.8804 28.258C-68.0817 19.087 -59.2607 2.22869 -53.7045 -8.39007Z"></path>
  <path fill="#503F7E" transform="matrix(1.44792 -0.89553 0.816132 1.31955 384.008 347.549)" d="M-72.3486 4.4931C-90.9568 -36.1807 -35.5074 -60.4279 -16.8992 -19.7542C-9.51236 -3.60806 2.81025 23.3267 10.4656 40.0596C13.1553 45.9388 10.6644 59.9865 -9.51121 69.1187C-29.6868 78.251 -41.8858 71.0788 -43.9823 66.4963C-51.6824 49.6653 -66.8973 16.4086 -72.3486 4.4931Z"></path>
  <path fill="none" stroke="black" stroke-width="5" stroke-linejoin="round" transform="matrix(1.58884 0 0 1.70248 305.218 444.338)" d="M-12.2831 -0.364532C-12.811 -17.3662 -8.71746 -29.5636 42.0396 -30.9363C57.1303 -31.7547 73.24 -36.0845 83.2647 -22.3606C83.5036 -11.566 84.7444 0.46608 84.9416 15.8329C75.8041 26.203 60.8967 27.0522 42.9034 28.0559C-6.86867 29.9771 -11.7551 16.6372 -12.2831 -0.364532Z"></path>
  <path fill="#453279" transform="matrix(1.58884 0 0 1.70248 305.218 444.338)" d="M-12.2831 -0.364532C-12.811 -17.3662 -8.71746 -29.5636 42.0396 -30.9363C57.1303 -31.7547 73.24 -36.0845 83.2647 -22.3606C83.5036 -11.566 84.7444 0.46608 84.9416 15.8329C75.8041 26.203 60.8967 27.0522 42.9034 28.0559C-6.86867 29.9771 -11.7551 16.6372 -12.2831 -0.364532Z"></path>
  <path fill="none" stroke="black" stroke-width="5" stroke-linejoin="round" transform="matrix(1.58884 0 0 1.70248 231.565 450.612)" d="M-14.9963 1.64227C-16.3715 -15.3181 -12.8907 -27.68 37.7429 -31.2558C57.8654 -33.2528 71.4838 -36.8246 79.714 -22.9238C81.2786 -8.55219 82.3055 1.37744 83.0614 15.2098C77.1516 29.5129 59.1836 26.5127 41.5477 27.6349C-8.07461 31.7159 -13.6211 18.6026 -14.9963 1.64227Z"></path>
  <path fill="none" stroke="black" stroke-width="5" stroke-linejoin="round" transform="matrix(1.70226 0.0261988 -0.0277736 1.60574 310.118 371.933)" d="M-11.3238 -80.2543C25.8014 -80.2543 54.9476 -94.6926 58.9092 -40.8672C62.8708 12.9582 37.0524 74.7499 0.05729 75.3534C-14.1177 75.5847 -17.7665 75.6442 -48.2096 76.1409C-78.6526 76.6376 -84.25 60.12 -84.25 0C-86.6294 -86.0849 -88.6034 -78.4854 -12.7475 -80.2208"></path>
  <path fill="#503F7E" transform="matrix(1.58884 0 0 1.70248 231.565 450.612)" d="M-14.9963 1.64227C-16.3715 -15.3181 -12.8907 -27.68 37.7429 -31.2558C57.8654 -33.2528 71.4838 -36.8246 79.714 -22.9238C81.2786 -8.55219 82.3055 1.37744 83.0614 15.2098C77.1516 29.5129 59.1836 26.5127 41.5477 27.6349C-8.07461 31.7159 -13.6211 18.6026 -14.9963 1.64227Z"></path>
  <path fill="none" stroke="black" stroke-width="5" stroke-linejoin="round" transform="matrix(1.44842 1.48659e-24 -1.35259e-24 1.31786 265.002 226.869)" d="M0 -40C20.9426 -40 35.0096 -26.8589 47.8597 -2.20017C49.1253 -3.81499 50.3123 -3.57653 51.1974 -3.11682C52.0824 -2.65711 52.5509 -1.60562 52.2206 -0.66534C53.8523 0.063201 55.2854 1.47333 55.8775 2.67698C56.9197 4.79567 57.6743 10.5072 53.7931 11.8212C58.5977 31.9882 20.3682 22.0914 -1.32962e-05 22.0914C-20.2357 22.0914 -45.0732 28.3281 -41.8836 12.9784C-44.6787 11.8212 -48.2008 8.95145 -46.5316 4.29176C-45.7036 1.98006 -43.8185 0.567091 -42.3936 0.566999C-41.0392 0.566912 -42.9934 -2.2 -40.2188 -3.8149C-39.0195 -4.5129 -37.7273 -4.43211 -36.6068 -4.12355C-28.0141 -23.7311 -20.4124 -40 0 -40Z"></path>
  <path fill="#503F7E" transform="matrix(1.70226 0.0261988 -0.0277736 1.60574 310.118 371.933)" d="M-11.3238 -80.2543C25.8014 -80.2543 54.9476 -94.6926 58.9092 -40.8672C62.8708 12.9582 37.0524 74.7499 0.05729 75.3534C-14.1177 75.5847 -17.7665 75.6442 -48.2096 76.1409C-78.6526 76.6376 -84.25 60.12 -84.25 0C-86.6442 -86.62 -88.6279 -78.3873 -11.3238 -80.2543Z"></path>
  <clipPath id="cl_243">
    <path d="M293.071 242.769C356.267 243.741 406.282 221.321 411.531 307.854C416.78 394.387 371.114 492.932 308.122 492.932C283.987 492.932 277.774 492.932 225.938 492.932C174.102 492.932 165.033 466.262 166.703 369.725C165.033 230.574 161.427 243.741 293.071 242.769Z"></path>
  </clipPath>
  <g clip-path="url(#cl_243)">
    <path fill="#655494" transform="matrix(1.70248 0 0 1.70248 345.232 354.983)" d="M-0.158644 -48.2656C25.513 -48.2656 46.324 -26.6563 46.324 0C46.324 26.6563 25.513 48.2656 -0.158644 48.2656C-25.8303 48.2656 -46.6413 26.6563 -46.6413 0C-46.6413 -26.6563 -25.8303 -48.2656 -0.158644 -48.2656Z"></path>
  </g>
  <path fill="none" stroke="black" stroke-width="2" stroke-linejoin="round" transform="matrix(2.01347 -3.16097 2.86355 1.82402 235.346 164.7)" d="M-4.34758 -5.25471C-4.34759 -11.5047 3.66088 -11.5047 3.66088 -5.25472C3.66088 0.995284 3.66088 12.5 3.66088 12.5L-4.57314 12.5C-4.57314 12.5 -4.34758 0.995284 -4.34758 -5.25471Z"></path>
  <path fill="none" stroke="black" stroke-width="2" stroke-linejoin="round" transform="matrix(1.82402 -2.86355 2.86355 1.82402 216.74 191.661)" d="M-5.16451 -6.50117C-5.16451 -12.7512 6 -12.7512 6 -6.50117C6 -0.251166 6 12.5 6 12.5L-6 12.5C-6 12.5 -5.16451 -0.251167 -5.16451 -6.50117Z"></path>
  <path fill="#453279" transform="matrix(2.01347 -3.16097 2.86355 1.82402 235.346 164.7)" d="M-4.34758 -5.25471C-4.34759 -11.5047 3.66088 -11.5047 3.66088 -5.25472C3.66088 0.995284 3.66088 12.5 3.66088 12.5L-4.57314 12.5C-4.57314 12.5 -4.34758 0.995284 -4.34758 -5.25471Z"></path>
  <path fill="none" stroke="#161616" stroke-width="0.5" stroke-linecap="round" stroke-linejoin="round" transform="matrix(2.01347 -3.16097 2.86355 1.82402 218.842 155.243)" d="M5.49914e-06 1.51651L4.78436e-06 10.5382"></path>
  <path fill="#503F7E" transform="matrix(1.82402 -2.86355 2.86355 1.82402 216.74 191.661)" d="M-5.1645 -6.50117C-5.16451 -12.7512 6 -12.7512 6 -6.50117C6 -0.25117 6 12.5 6 12.5L-6 12.5C-6 12.5 -5.1645 -0.251171 -5.1645 -6.50117Z"></path>
  <path fill="none" stroke="#161616" stroke-width="0.5" stroke-linecap="round" stroke-linejoin="round" transform="matrix(1.82402 -2.86355 2.86355 1.82402 203.169 178.456)" d="M1.85391e-08 7.65589e-06L3.83324e-06 10.5382"></path>
  <path fill="#503F7E" transform="matrix(1.44842 0 0 1.31786 265.002 226.869)" d="M0 -40C20.9426 -40 35.0096 -26.8589 47.8597 -2.20018C49.1253 -3.81499 50.3123 -3.57653 51.1974 -3.11682C52.0824 -2.65711 52.5509 -1.60562 52.2206 -0.665342C53.8523 0.0631991 55.2854 1.47333 55.8775 2.67698C56.9197 4.79566 57.6743 10.5072 53.7931 11.8212C58.5977 31.9882 20.3682 22.0914 -1.32962e-05 22.0914C-20.2357 22.0914 -45.0732 28.3281 -41.8836 12.9784C-44.6787 11.8212 -48.2008 8.95144 -46.5316 4.29175C-45.7036 1.98006 -43.8185 0.567089 -42.3936 0.566997C-41.0392 0.56691 -42.9934 -2.2 -40.2188 -3.81491C-39.0195 -4.51291 -37.7273 -4.43211 -36.6068 -4.12355C-28.0141 -23.7311 -20.4124 -40 0 -40Z"></path>
  <clipPath id="cl_244">
    <path d="M265.002 174.154C295.336 174.154 315.711 191.472 334.323 223.969C336.156 221.841 337.875 222.155 339.157 222.761C340.439 223.367 341.118 224.753 340.639 225.992C343.003 226.952 345.078 228.81 345.936 230.396C347.446 233.189 348.539 240.716 342.917 242.447C349.876 269.024 294.504 255.982 265.002 255.982C235.692 255.982 199.717 264.201 204.337 243.972C200.288 242.447 195.187 238.665 197.605 232.525C198.804 229.478 201.534 227.616 203.598 227.616C205.56 227.616 202.729 223.969 206.748 221.841C208.485 220.921 210.357 221.028 211.98 221.434C224.426 195.594 235.436 174.154 265.002 174.154Z"></path>
  </clipPath>
  <g clip-path="url(#cl_244)">
    <path fill="#7463A5" transform="matrix(1.70248 0 0.00718207 1.70248 268.03 229.551)" d="M-2.67755e-09 -5.5C3.86599 -5.5 7 -2.92564 7 0.25C7 3.42564 3.86599 6 2.67755e-09 6C-3.86599 6 -7 3.42564 -7 0.25C-7 -2.92564 -3.86599 -5.5 -2.67755e-09 -5.5Z"></path>
    <path fill="#7463A5" transform="matrix(1.7367 0 0.00718207 1.70248 317.732 221.847)" d="M9.56119e-07 -5C2.76142 -5 5 -2.6495 5 0.249998C5 3.14949 2.76142 5.5 9.5123e-07 5.5C-2.76142 5.5 -5 3.14949 -5 0.249998C-5 -2.6495 -2.76142 -5 9.56119e-07 -5Z"></path>
    <path fill="none" stroke="#131212" stroke-width="1" stroke-linecap="round" stroke-linejoin="round" transform="matrix(2.182 -0.353477 0.259285 1.60056 297.142 215.513)" d="M4.88246e-07 -2.32145e-06L2.92891 -0.714569"></path>
    <path fill="none" stroke="#131212" stroke-width="1" stroke-linecap="round" stroke-linejoin="round" transform="matrix(2.182 -0.353477 0.259285 1.60056 276.57 214.729)" d="M-1.90735e-06 -2.05581e-06L4.2573 1.79212"></path>
    <path fill="#131212" transform="matrix(2.33716 -0.378612 0.383771 2.36901 289.608 217.67)" d="M-2.40694e-06 -2.15485e-07L1.9614 0.352738L0.915087 1.42246L-2.40694e-06 -2.15485e-07Z"></path>
    <path fill="none" stroke="#131212" stroke-width="0.5" stroke-linecap="round" stroke-linejoin="round" transform="matrix(1.83262 -0.296878 0.300923 1.85759 292.502 221.014)" d="M2.01518e-06 -0.711226L-1.79952e-06 1.1102"></path>
    <path fill="#32225E" transform="matrix(1.64843 0.417573 -0.40107 1.65095 286.627 210.231)" d="M-3.75726e-06 -1.92716C1.6285 -1.92716 2.94867 -1.06434 2.94867 4.39386e-08C2.94867 1.06434 1.6285 1.92716 -3.87213e-06 1.92716C-1.62851 1.92716 -2.94867 1.06434 -2.94867 -4.39386e-08C-2.94867 -1.06434 -1.62851 -1.92716 -3.75726e-06 -1.92716Z"></path>
    <path fill="#32225E" transform="matrix(1.61937 0.410211 -0.390122 1.60588 297.213 209.404)" d="M-7.65769e-06 -1.89919C0.889981 -1.89919 1.61146 -1.04889 1.61146 1.88334e-06C1.61146 1.0489 0.889981 1.89919 -7.60109e-06 1.89919C-0.889997 1.89919 -1.61148 1.0489 -1.61148 1.93136e-06C-1.61148 -1.04889 -0.889997 -1.89919 -7.65769e-06 -1.89919Z"></path>
  </g>
  <path fill="none" stroke="black" stroke-width="4" stroke-linejoin="round" transform="matrix(1.70248 0 0 1.70248 383.397 402.161)" d="M-11.7479 -12.9046C-11.318 -13.5165 -10.7601 -14.1187 -10.0572 -14.7065C-5.47351 -18.5399 3.93804 -16.1165 4.43081 -14.7065C7.46665 -16.1165 10.8961 -16.6614 15.0174 -13.9738C19.1387 -11.2862 16.2386 -4.86793 16.6118 -4.55444C16.985 -4.24095 25.2116 0.494543 17.5976 8.33766C16.6439 8.92035 15.7365 9.39703 14.8735 9.77867"></path>
  <path fill="#7463A5" transform="matrix(1.70248 0 0 1.70248 383.397 402.161)" d="M-0.116453 0C-2.60165 -0.66394 -7.05858 1.11792 -10.0572 -2.65576C-13.0559 -6.42944 -14.6409 -10.8732 -10.0572 -14.7065C-5.47351 -18.5399 3.93804 -16.1165 4.43081 -14.7065C7.46665 -16.1165 10.8961 -16.6614 15.0174 -13.9738C19.1387 -11.2862 16.2386 -4.86793 16.6118 -4.55444C16.985 -4.24095 25.2116 0.494543 17.5976 8.33766C2.9012 17.3171 -0.809984 1.11792 -0.116453 0Z"></path>
  <path fill="none" stroke="black" stroke-width="6" stroke-linejoin="round" transform="matrix(1.70248 0 0 1.70248 211.347 355.404)" d="M15.5176 29.0195C-23.7874 23.255 -14.5731 -39.5729 24.732 -33.8085C41.4726 -31.3533 69.3991 -27.2576 86.7482 -24.7132C92.8438 -23.8192 102.805 -13.7573 99.7 9.27602C96.5954 32.3094 84.555 39.1445 79.8038 38.4477C62.3531 35.8884 27.8718 30.8313 15.5176 29.0195Z"></path>
  <path fill="none" stroke="black" stroke-width="6" stroke-linecap="round" stroke-linejoin="bevel" transform="matrix(1.70248 0 0 1.58041 211.347 270.046)" d="M8.95103 15.2307C16.663 16.3825 23.3708 17.3843 26.7574 17.8901C66.2561 23.7893 57.4969 91.5401 17.9982 85.6409C8.08283 84.16 -10.1438 81.4378 -21.6244 79.7232C-33.1051 78.0085 -48.645 68.8781 -46.4367 51.7204C-46.2379 50.1755 -46.0528 48.7369 -45.8797 47.3926"></path>
  <path fill="#503F7E" transform="matrix(1.70248 0 0 1.70248 211.347 355.404)" d="M15.5176 29.0195C-25.4199 23.0156 -16.2055 -39.8124 24.732 -33.8085C41.4726 -31.3533 69.3991 -27.2576 86.7482 -24.7132C92.8438 -23.8192 102.805 -13.7573 99.7 9.27602C96.5954 32.3094 84.555 39.1445 79.8038 38.4477C62.3531 35.8884 27.8718 30.8313 15.5176 29.0195Z"></path>
  <path fill="#503F7E" transform="matrix(1.70248 0 0 1.58041 211.347 270.046)" d="M-21.6244 79.7231C-33.1051 78.0085 -48.645 68.8781 -46.4367 51.7204C-44.2285 34.5627 -43.708 30.5188 -42.7379 22.981C-41.7678 15.4433 -37.1036 8.35237 -22.6655 10.5087C-8.22737 12.6651 18.6896 16.6852 26.7574 17.8901C61.5009 23.0791 52.7417 90.8299 17.9982 85.6409C8.08284 84.16 -10.1438 81.4378 -21.6244 79.7231Z"></path>
</svg>