<?xml version="1.0" encoding="utf-8"?>
<svg xmlns="http://www.w3.org/2000/svg" xmlns:xlink="http://www.w3.org/1999/xlink" width="512" height="512">
  <path fill="none" stroke="black" stroke-width="6" stroke-linejoin="round" transform="matrix(1.8 0 0 1.52279 359.051 169.591)" d="M-18.6509 -16.9737C-14.9966 -16.9737 -12.3431 -16.9737 -8.92125 -16.9737C-1.85701 -16.9737 5.30361 -12.9707 5.30361 2.73135C5.30361 18.4334 5.30361 47.7067 5.30361 56.4809C5.30361 99.4374 -58.1964 99.3952 -58.1964 56.4387C-58.1964 45.6553 -58.1964 25.833 -58.1964 13.3474C-58.1964 0.86171 -51.935 -16.9737 -35.8552 -16.9737C-34.6515 -16.9737 -33.5167 -16.9737 -32.4442 -16.9737"></path>
  <path fill="none" stroke="black" stroke-width="6" stroke-linejoin="round" transform="matrix(1.8 0 0 1.64041 359.051 251.837)" d="M-58.1961 -0.419859C-57.6498 -43.0389 5.84501 -42.225 5.29871 0.394035C5.08185 17.3123 4.72009 45.5352 4.49534 63.0685C4.41637 69.2288 -4.23789 80.4343 -27.4795 80.407C-50.7211 80.3796 -59.0904 69.3503 -59.0289 64.5487C-58.8028 46.9127 -58.3561 12.0655 -58.1961 -0.419859Z"></path>
  <path fill="#503F7E" transform="matrix(1.8 0 0 1.52279 359.051 169.591)" d="M-58.1964 13.3474C-58.1964 0.861706 -51.935 -16.9737 -35.8552 -16.9737C-19.7754 -16.9737 -15.9855 -16.9737 -8.92125 -16.9737C-1.85701 -16.9737 5.30361 -12.9707 5.30361 2.73135C5.30361 18.4334 5.30361 47.7067 5.30361 56.4809C5.30361 99.4374 -58.1964 99.3952 -58.1964 56.4387C-58.1964 45.6553 -58.1964 25.833 -58.1964 13.3474Z"></path>
  <path fill="#503F7E" transform="matrix(1.8 0 0 1.64041 359.051 251.837)" d="M-58.1961 -0.41986C-57.6498 -43.0389 5.84501 -42.225 5.29871 0.394034C5.08185 17.3123 4.72009 45.5352 4.49534 63.0685C4.41637 69.2288 -4.23789 80.4343 -27.4795 80.407C-50.7211 80.3796 -59.0904 69.3503 -59.0289 64.5487C-58.8028 46.9127 -58.3561 12.0655 -58.1961 -0.41986Z"></path>
  <path fill="none" stroke="black" stroke-width="5" stroke-linejoin="round" transform="matrix(1.67985 0 0 1.8 269.501 356.202)" d="M12.9094 -15.6842C31.1243 -15.1054 43.9104 -10.5248 42.1827 36.8366C42.1078 50.9435 45.5538 65.9771 30.5644 74.0509C18.9957 73.9588 6.07229 74.7652 -10.3924 74.5007C-21.2299 65.915 -21.0173 50.7491 -20.9578 33.927C-19.8788 -12.5515 -5.30543 -16.2629 12.9094 -15.6842Z"></path>
  <path fill="#453279" transform="matrix(1.67985 0 0 1.8 269.501 356.202)" d="M12.9094 -15.6842C31.1243 -15.1054 43.9104 -10.5248 42.1827 36.8366C42.1078 50.9435 45.5538 65.9771 30.5644 74.0509C18.9957 73.9588 6.07229 74.7652 -10.3924 74.5007C-21.2299 65.915 -21.0173 50.7491 -20.9578 33.927C-19.8788 -12.5515 -5.30543 -16.2629 12.9094 -15.6842Z"></path>
  <path fill="none" stroke="black" stroke-width="5" stroke-linejoin="round" transform="matrix(1.67985 0 0 1.8 191.63 362.835)" d="M1.14441e-05 -14.3439C18.2254 -14.3439 31.1711 -10.1719 31.1712 37.2169C31.7865 56.0934 34.5752 69.036 19.1016 75.646C3.62799 76.0176 -7.05902 76.224 -21.8955 75.8837C-36.732 69.3049 -32.1706 52.8104 -32.0389 36.314C-32.655 -10.1719 -18.2254 -14.3439 1.14441e-05 -14.3439Z"></path>
  <path fill="none" stroke="black" stroke-width="5" stroke-linejoin="round" transform="matrix(1.79976 0.0276995 -0.0293645 1.69771 278.53 279.649)" d="M-11.3238 -80.2543C25.8014 -80.2543 54.9476 -94.6926 58.9092 -40.8672C62.8708 12.9582 37.0524 74.7499 0.0572928 75.3534C-14.1177 75.5847 -17.7665 75.6442 -48.2096 76.1409C-78.6526 76.6376 -84.25 60.12 -84.25 0C-86.6294 -86.0849 -88.6034 -78.4854 -12.7475 -80.2208"></path>
  <path fill="#503F7E" transform="matrix(1.67985 0 0 1.8 191.63 362.835)" d="M1.14441e-05 -14.3439C18.2254 -14.3439 31.1711 -10.1719 31.1712 37.2169C31.7865 56.0934 34.5752 69.036 19.1016 75.646C3.62799 76.0176 -7.05902 76.224 -21.8955 75.8837C-36.732 69.3049 -32.1706 52.8104 -32.0389 36.314C-32.655 -10.1719 -18.2254 -14.3439 1.14441e-05 -14.3439Z"></path>
  <path fill="none" stroke="black" stroke-width="5" stroke-linejoin="round" transform="matrix(1.53139 0 0 1.39334 230.774 125.584)" d="M0 -40C20.9426 -40 35.0096 -26.8589 47.8597 -2.20017C49.1253 -3.81498 50.3123 -3.57652 51.1974 -3.11681C52.0824 -2.6571 52.5509 -1.60561 52.2206 -0.665335C53.8523 0.0632067 55.2854 1.47333 55.8775 2.67699C56.9197 4.79567 57.6743 10.5072 53.7931 11.8212C58.5977 31.9882 20.3682 22.0914 -1.32962e-05 22.0914C-20.2357 22.0914 -45.0732 28.3281 -41.8836 12.9784C-44.6787 11.8212 -48.2008 8.95145 -46.5316 4.29176C-45.7036 1.98007 -43.8185 0.567096 -42.3936 0.567005C-41.0392 0.566917 -42.9934 -2.19999 -40.2188 -3.8149C-39.0195 -4.5129 -37.7273 -4.43211 -36.6068 -4.12355C-28.0141 -23.731 -20.4124 -40 0 -40Z"></path>
  <path fill="#503F7E" transform="matrix(1.79976 0.0276995 -0.0293645 1.69771 278.53 279.649)" d="M-11.3238 -80.2543C25.8014 -80.2543 54.9476 -94.6926 58.9092 -40.8672C62.8708 12.9582 37.0524 74.7499 0.0572928 75.3534C-14.1177 75.5847 -17.7665 75.6442 -48.2096 76.1409C-78.6526 76.6376 -84.25 60.12 -84.25 0C-86.6442 -86.62 -88.6279 -78.3873 -11.3238 -80.2543Z"></path>
  <clipPath id="cl_28d">
    <path d="M260.506 143.087C327.323 144.115 380.203 120.411 385.752 211.9C391.302 303.39 343.02 407.579 276.42 407.579C250.902 407.579 244.333 407.579 189.528 407.579C134.723 407.579 125.134 379.382 126.9 277.316C125.134 130.193 121.322 144.115 260.506 143.087Z"></path>
  </clipPath>
  <g clip-path="url(#cl_28d)">
    <path fill="#655494" transform="matrix(1.8 0 0 1.8 315.655 261.728)" d="M-0.158646 -48.2655C25.513 -48.2655 46.324 -26.6563 46.324 0C46.324 26.6563 25.513 48.2655 -0.158646 48.2655C-25.8303 48.2655 -46.6413 26.6563 -46.6413 0C-46.6413 -26.6563 -25.8303 -48.2655 -0.158646 -48.2655Z"></path>
  </g>
  <path fill="none" stroke="black" stroke-width="2" stroke-linejoin="round" transform="matrix(3.88825 -0.763212 0.691401 3.5224 237.573 47.3358)" d="M-4.34758 -5.25471C-4.34758 -11.5047 3.66088 -11.5047 3.66088 -5.25471C3.66088 0.995287 3.66088 12.5 3.66088 12.5L-4.57314 12.5C-4.57314 12.5 -4.34758 0.995288 -4.34758 -5.25471Z"></path>
  <path fill="none" stroke="black" stroke-width="2" stroke-linejoin="round" transform="matrix(3.5224 -0.691401 0.691401 3.5224 203.365 52.7486)" d="M-5.1645 -6.50116C-5.1645 -12.7512 6 -12.7512 6 -6.50116C6 -0.251162 6 12.5 6 12.5L-6 12.5C-6 12.5 -5.1645 -0.251163 -5.1645 -6.50116Z"></path>
  <path fill="#453279" transform="matrix(3.88825 -0.763212 0.691401 3.5224 237.573 47.3358)" d="M-4.34758 -5.25471C-4.34758 -11.5047 3.66088 -11.5047 3.66088 -5.25471C3.66088 0.995287 3.66088 12.5 3.66088 12.5L-4.57314 12.5C-4.57314 12.5 -4.34758 0.995288 -4.34758 -5.25471Z"></path>
  <path fill="none" stroke="#161616" stroke-width="0.5" stroke-linecap="round" stroke-linejoin="round" transform="matrix(3.88825 -0.763212 0.691401 3.5224 232.78 27.8041)" d="M4.06863e-06 1.51652L3.35385e-06 10.5382"></path>
  <path fill="#503F7E" transform="matrix(3.5224 -0.691401 0.691401 3.5224 203.365 52.7486)" d="M-5.1645 -6.50117C-5.1645 -12.7512 6 -12.7512 6 -6.50117C6 -0.251166 6 12.5 6 12.5L-6 12.5C-6 12.5 -5.1645 -0.251167 -5.1645 -6.50117Z"></path>
  <path fill="none" stroke="#161616" stroke-width="0.5" stroke-linecap="round" stroke-linejoin="round" transform="matrix(3.5224 -0.691401 0.691401 3.5224 203.58 32.7301)" d="M4.95376e-07 7.65589e-06L4.31007e-06 10.5382"></path>
  <path fill="#503F7E" transform="matrix(1.53139 0 0 1.39334 230.774 125.584)" d="M0 -40C20.9426 -40 35.0096 -26.8589 47.8597 -2.20017C49.1253 -3.81498 50.3123 -3.57652 51.1974 -3.11681C52.0824 -2.6571 52.5509 -1.60561 52.2206 -0.665335C53.8523 0.0632067 55.2854 1.47333 55.8775 2.67699C56.9197 4.79567 57.6743 10.5072 53.7931 11.8212C58.5977 31.9882 20.3682 22.0914 -1.32962e-05 22.0914C-20.2357 22.0914 -45.0732 28.3281 -41.8836 12.9784C-44.6787 11.8212 -48.2008 8.95145 -46.5316 4.29176C-45.7036 1.98007 -43.8185 0.567096 -42.3936 0.567005C-41.0392 0.566917 -42.9934 -2.19999 -40.2188 -3.8149C-39.0195 -4.5129 -37.7273 -4.43211 -36.6068 -4.12355C-28.0141 -23.731 -20.4124 -40 0 -40Z"></path>
  <clipPath id="cl_28e">
    <path d="M230.774 69.8503C262.845 69.8503 284.387 88.1603 304.065 122.518C306.004 120.268 307.821 120.601 309.177 121.241C310.532 121.882 311.249 123.347 310.744 124.657C313.242 125.672 315.437 127.637 316.344 129.314C317.94 132.266 319.095 140.224 313.152 142.055C320.509 170.155 261.965 156.365 230.774 156.365C199.785 156.365 161.749 165.055 166.634 143.667C162.353 142.055 156.96 138.056 159.516 131.564C160.784 128.343 163.671 126.374 165.853 126.374C167.927 126.374 164.934 122.519 169.183 120.269C171.02 119.296 172.999 119.409 174.715 119.838C187.873 92.5185 199.514 69.8503 230.774 69.8503Z"></path>
  </clipPath>
  <g clip-path="url(#cl_28e)">
    <path fill="#7463A5" transform="matrix(1.8 2.98023e-08 0.00759348 1.8 237.183 110.441)" d="M9.53674e-07 -5.5C3.86599 -5.5 7 -2.92564 7 0.25C7 3.42564 3.86599 6 9.53674e-07 6C-3.86599 6 -7 3.42564 -7 0.25C-7 -2.92564 -3.86599 -5.5 9.53674e-07 -5.5Z"></path>
    <path fill="#7463A5" transform="matrix(1.83618 3.04014e-08 0.00759348 1.8 289.732 102.295)" d="M0 -5.00001C2.76142 -5.00001 5 -2.6495 5 0.249992C5 3.14949 2.76142 5.49999 0 5.49999C-2.76142 5.49999 -5 3.14949 -5 0.249992C-5 -2.6495 -2.76142 -5.00001 0 -5.00001Z"></path>
    <path fill="none" stroke="#131212" stroke-width="1" stroke-linecap="round" stroke-linejoin="round" transform="matrix(2.30699 -0.373724 0.274137 1.69224 267.963 95.5994)" d="M2.39559e-06 7.21529e-06L2.92892 -0.71456"></path>
    <path fill="none" stroke="#131212" stroke-width="1" stroke-linecap="round" stroke-linejoin="round" transform="matrix(2.30699 -0.373724 0.274137 1.69224 246.213 94.7697)" d="M9.53674e-07 -1.48459e-07L4.25731 1.79213"></path>
    <path fill="#131212" transform="matrix(2.47104 -0.400299 0.405754 2.50471 259.997 97.8799)" d="M4.54078e-07 -4.03018e-06L1.9614 0.352734L0.91509 1.42246L4.54078e-07 -4.03018e-06Z"></path>
    <path fill="none" stroke="#131212" stroke-width="0.5" stroke-linecap="round" stroke-linejoin="round" transform="matrix(1.93759 -0.313883 0.31816 1.96399 263.057 101.415)" d="M1.18428e-07 -0.711232L-3.72341e-06 1.11019"></path>
    <path fill="#32225E" transform="matrix(1.74285 0.441491 -0.424043 1.74552 256.845 90.0143)" d="M-1.93607e-06 -1.92716C1.6285 -1.92716 2.94867 -1.06434 2.94867 -4.39386e-08C2.94867 1.06434 1.6285 1.92716 -1.87863e-06 1.92716C-1.62851 1.92716 -2.94867 1.06434 -2.94867 4.39386e-08C-2.94867 -1.06434 -1.62851 -1.92716 -1.93607e-06 -1.92716Z"></path>
    <path fill="#32225E" transform="matrix(1.71213 0.433708 -0.412468 1.69787 268.038 89.1394)" d="M-5.72205e-06 -1.89918C0.889983 -1.89918 1.61146 -1.04889 1.61146 7.60538e-06C1.61146 1.0489 0.889983 1.8992 -5.72205e-06 1.8992C-0.889995 1.8992 -1.61147 1.0489 -1.61147 7.65341e-06C-1.61147 -1.04889 -0.889995 -1.89918 -5.72205e-06 -1.89918Z"></path>
  </g>
  <path fill="none" stroke="black" stroke-width="6" stroke-linejoin="round" transform="matrix(1.8 0 0 1.8 170.253 262.174)" d="M75.1909 -0.264718C35.5593 2.46544 31.1952 -60.8844 70.8268 -63.6146C87.7065 -64.7774 114.557 -68.2735 131.994 -70.1197C138.121 -70.7684 150.27 -63.4972 152.986 -40.4147C155.702 -17.3323 145.737 -7.71982 140.962 -7.21422C123.422 -5.35719 87.6477 -1.12284 75.1909 -0.264718Z"></path>
  <path fill="none" stroke="black" stroke-width="6" stroke-linecap="round" stroke-linejoin="bevel" transform="matrix(1.8 0 0 1.67094 170.253 171.927)" d="M70.0617 -18.2933C77.2961 -15.2445 83.586 -12.5938 86.7644 -11.2544C123.9 4.39551 100.73 68.0836 63.5936 52.4337C54.2714 48.5051 37.135 41.2834 26.3411 36.7347C15.5472 32.1859 2.40962 19.4066 8.26781 3.27531C8.75737 1.92726 9.21565 0.665311 9.64598 -0.519651"></path>
  <path fill="#503F7E" transform="matrix(1.8 0 0 1.67094 170.253 171.927)" d="M26.3411 36.7346C15.5473 32.1859 2.40963 19.4066 8.26782 3.27531C14.126 -12.856 15.5068 -16.6581 18.0804 -23.7449C20.654 -30.8318 26.7234 -36.557 40.2979 -30.8364C53.8723 -25.1158 79.1792 -14.451 86.7644 -11.2544C119.43 2.51143 96.2588 66.1995 63.5936 52.4337C54.2714 48.5051 37.135 41.2834 26.3411 36.7346Z"></path>
  <path fill="none" stroke="black" stroke-width="4" stroke-linejoin="round" transform="matrix(1.8 0 0 1.8 365.435 164.528)" d="M-11.7479 -12.9046C-11.318 -13.5165 -10.7601 -14.1187 -10.0572 -14.7065C-5.47351 -18.5399 3.93804 -16.1165 4.43081 -14.7065C7.46664 -16.1165 10.8961 -16.6614 15.0174 -13.9738C19.1387 -11.2862 16.2386 -4.86793 16.6118 -4.55444C16.985 -4.24095 25.2116 0.494543 17.5976 8.33766C16.6439 8.92035 15.7365 9.39702 14.8735 9.77867"></path>
  <path fill="#7463A5" transform="matrix(1.8 0 0 1.8 365.435 164.528)" d="M-0.116455 0C-2.60165 -0.66394 -7.05858 1.11792 -10.0572 -2.65576C-13.0559 -6.42944 -14.6409 -10.8732 -10.0572 -14.7065C-5.47351 -18.5399 3.93804 -16.1165 4.43081 -14.7065C7.46664 -16.1165 10.8961 -16.6614 15.0174 -13.9738C19.1387 -11.2862 16.2386 -4.86793 16.6118 -4.55444C16.985 -4.24095 25.2116 0.494543 17.5976 8.33766C2.9012 17.3171 -0.809986 1.11792 -0.116455 0Z"></path>
  <path fill="#503F7E" transform="matrix(1.8 0 0 1.8 170.253 262.174)" d="M75.1909 -0.264719C33.9133 2.57882 29.5492 -60.771 70.8268 -63.6146C87.7065 -64.7774 114.557 -68.2735 131.994 -70.1197C138.121 -70.7684 150.27 -63.4972 152.986 -40.4147C155.702 -17.3323 145.737 -7.71982 140.962 -7.21422C123.422 -5.3572 87.6477 -1.12284 75.1909 -0.264719Z"></path>
  <path fill="#312F2F" transform="matrix(0.53305 -0.056438 0.0672945 0.635588 406.489 184.784)" d="M6.10352e-05 -128C70.6925 -128 128 -70.6925 128 -7.62939e-06C128 70.6924 70.6925 128 6.10352e-05 128C-70.6924 128 -128 70.6924 -128 -7.62939e-06C-128 -70.6925 -70.6924 -128 6.10352e-05 -128Z"></path>
  <path fill="none" stroke="black" stroke-width="7" stroke-miterlimit="4" transform="translate(256 256)" d="M153.952 -153.85C191.634 -157.84 226.039 -124.65 230.796 -79.7189C235.553 -34.7876 208.862 4.87074 171.179 8.86047C133.497 12.8502 99.0924 -20.3395 94.3352 -65.2707C89.5779 -110.202 116.269 -149.86 153.952 -153.85Z"></path>
  <path fill="none" stroke="black" stroke-width="7" stroke-linejoin="round" transform="translate(256 256)" d="M153.952 -153.85C153.952 -153.85 144.29 -152.827 142.342 -152.621C111.865 -148.556 75.8174 -124.832 82.259 -63.9921C88.7006 -3.15185 135.648 12.6224 159.103 10.1391C161.051 9.93279 171.179 8.86047 171.179 8.86048C170.647 8.91682 170.074 8.95519 169.464 8.97457"></path>
  <path fill="#8D5A3E" transform="matrix(0.53305 -0.056438 0.0672945 0.635588 418.566 183.505)" d="M0 -128C70.6925 -128 128 -70.6924 128 0C128 70.6924 70.6925 128 0 128C-70.6925 128 -128 70.6924 -128 0C-128 -70.6924 -70.6925 -128 0 -128Z"></path>
  <path fill="#4B2713" transform="matrix(0.53305 -0.056438 0.0672945 0.635588 421.963 182.503)" d="M0.250031 -87.5C51.4744 -87.5 93 -48.4368 93 -0.25C93 47.9368 51.4744 87 0.250031 87C-50.9744 87 -92.5 47.9368 -92.5 -0.25C-92.5 -48.4368 -50.9744 -87.5 0.250031 -87.5Z"></path>
  <path fill="#693920" transform="matrix(0.53305 -0.056438 0.0672945 0.635588 418.566 183.505)" d="M0 -86C47.4965 -86 86 -47.4965 86 0C86 47.4965 47.4965 86 0 86C-47.4965 86 -86 47.4965 -86 0C-86 -47.4965 -47.4965 -86 0 -86Z"></path>
  <path fill="#1F0D04" transform="matrix(1.48132 0.357415 -0.246298 1.74723 404.923 192.949)" d="M9.19536e-08 -6.17089C3.40809 -6.17089 6.1709 -3.40809 6.1709 3.72274e-06C6.1709 3.4081 3.40809 6.1709 -9.19536e-08 6.1709C-3.40809 6.1709 -6.1709 3.4081 -6.1709 3.90665e-06C-6.1709 -3.40809 -3.40809 -6.17089 9.19536e-08 -6.17089Z"></path>
  <clipPath id="cl_296">
    <path d="M406.443 182.167C411.491 183.386 414.904 189.2 414.064 195.155C413.225 201.11 408.452 204.949 403.403 203.731C398.355 202.513 394.943 196.699 395.782 190.744C396.621 184.789 401.395 180.949 406.443 182.167Z"></path>
  </clipPath>
  <g clip-path="url(#cl_296)">
    <path fill="#2F1507" transform="matrix(1.48132 0.357415 -0.246298 1.74723 402.856 195.372)" d="M9.19536e-08 -6.17089C3.40809 -6.17089 6.1709 -3.40809 6.1709 3.72274e-06C6.1709 3.4081 3.40809 6.1709 -9.19536e-08 6.1709C-3.40809 6.1709 -6.1709 3.4081 -6.1709 3.90665e-06C-6.1709 -3.40809 -3.40809 -6.17089 9.19536e-08 -6.17089Z"></path>
  </g>
  <path fill="#1F0D04" transform="matrix(1.48132 0.357415 -0.246298 1.74723 408.56 167.149)" d="M9.19536e-08 -6.1709C3.40809 -6.1709 6.1709 -3.40809 6.1709 -9.19536e-08C6.1709 3.40809 3.40809 6.1709 -9.19536e-08 6.1709C-3.40809 6.1709 -6.1709 3.40809 -6.1709 9.19536e-08C-6.1709 -3.40809 -3.40809 -6.1709 9.19536e-08 -6.1709Z"></path>
  <clipPath id="cl_297">
    <path d="M410.08 156.367C415.128 157.585 418.541 163.4 417.701 169.355C416.862 175.309 412.089 179.149 407.04 177.931C401.992 176.713 398.58 170.898 399.419 164.944C400.258 158.989 405.031 155.149 410.08 156.367Z"></path>
  </clipPath>
  <g clip-path="url(#cl_297)">
    <path fill="#2F1507" transform="matrix(1.48132 0.357415 -0.246298 1.74723 406.304 170.91)" d="M-7.53744e-06 -6.1709C3.40809 -6.1709 6.17089 -3.40809 6.17089 -9.19536e-08C6.17089 3.40809 3.40809 6.1709 -7.72135e-06 6.1709C-3.4081 6.1709 -6.17091 3.40809 -6.17091 9.19536e-08C-6.17091 -3.40809 -3.4081 -6.1709 -7.53744e-06 -6.1709Z"></path>
  </g>
  <path fill="#1F0D04" transform="matrix(1.48132 0.357415 -0.246298 1.74723 428.249 198.577)" d="M7.72135e-06 -6.17089C3.4081 -6.17089 6.17091 -3.40809 6.17091 3.72274e-06C6.17091 3.4081 3.4081 6.1709 7.53744e-06 6.1709C-3.40809 6.1709 -6.17089 3.4081 -6.17089 3.90665e-06C-6.17089 -3.40809 -3.40809 -6.17089 7.72135e-06 -6.17089Z"></path>
  <clipPath id="cl_298">
    <path d="M429.769 187.795C434.817 189.014 438.229 194.828 437.39 200.783C436.55 206.738 431.777 210.577 426.729 209.359C421.68 208.141 418.268 202.327 419.108 196.372C419.947 190.417 424.72 186.577 429.769 187.795Z"></path>
  </clipPath>
  <g clip-path="url(#cl_298)">
    <path fill="#2F1507" transform="matrix(1.48132 0.357415 -0.246298 1.74723 426.68 200.217)" d="M-7.53744e-06 -6.17089C3.40809 -6.17089 6.17089 -3.40809 6.17089 3.72274e-06C6.17089 3.4081 3.40809 6.1709 -7.72135e-06 6.1709C-3.4081 6.1709 -6.17091 3.4081 -6.17091 3.90665e-06C-6.17091 -3.40809 -3.4081 -6.17089 -7.53744e-06 -6.17089Z"></path>
  </g>
  <path fill="#1F0D04" transform="matrix(1.48132 0.357415 -0.246298 1.74723 431.886 172.777)" d="M9.19536e-08 -6.1709C3.40809 -6.1709 6.1709 -3.40809 6.1709 -9.19536e-08C6.1709 3.40809 3.40809 6.1709 -9.19536e-08 6.1709C-3.40809 6.1709 -6.1709 3.40809 -6.1709 9.19536e-08C-6.1709 -3.40809 -3.40809 -6.1709 9.19536e-08 -6.1709Z"></path>
  <clipPath id="cl_299">
    <path d="M433.406 161.995C438.454 163.213 441.866 169.028 441.027 174.983C440.187 180.938 435.414 184.777 430.366 183.559C425.317 182.341 421.905 176.526 422.745 170.572C423.584 164.617 428.357 160.777 433.406 161.995Z"></path>
  </clipPath>
  <g clip-path="url(#cl_299)">
    <path fill="#2F1507" transform="matrix(1.48132 0.357415 -0.246298 1.74723 428.647 175.398)" d="M-7.72135e-06 -6.1709C3.40809 -6.1709 6.17089 -3.40809 6.17089 0C6.17089 3.40809 3.40809 6.1709 -7.53744e-06 6.1709C-3.4081 6.1709 -6.17091 3.40809 -6.17091 0C-6.17091 -3.40809 -3.4081 -6.1709 -7.72135e-06 -6.1709Z"></path>
  </g>
  <path fill="none" stroke="#E3CEC2" stroke-width="4" stroke-linecap="round" stroke-linejoin="round" transform="matrix(1.48132 0.357415 -0.246298 1.74723 407.417 166.461)" d="M2.42519 2.41433L15.2044 14.4568"></path>
  <path fill="none" stroke="#C8AD9D" stroke-width="4" stroke-linecap="round" stroke-linejoin="round" transform="matrix(1.48132 0.357415 -0.246298 1.74723 407.417 166.461)" d="M3.28776 13.1788L15.6779 1.98901"></path>
  <path fill="#4B2713" transform="matrix(0.635588 -0.0672945 0.0672945 0.635588 409.952 102.15)" d="M1.52588e-05 0C1.52588e-05 0 -15.2011 0 -18.2664 1.52588e-05C-66.3551 1.3037 -126.35 32.2772 -126.35 128C-126.35 223.723 -55.9022 256 -19 256C-15.9348 256 0 256 0 256C-25.5438 256 -107.35 223.723 -107.35 128C-107.35 32.2772 -25.5438 1.52588e-05 1.52588e-05 0Z"></path>
</svg>