<?xml version="1.0" encoding="utf-8"?>
<svg xmlns="http://www.w3.org/2000/svg" xmlns:xlink="http://www.w3.org/1999/xlink" width="512" height="512">
  <path fill="none" stroke="black" stroke-width="6" stroke-linejoin="round" transform="matrix(1.8 0 0 1.52279 359.051 169.591)" d="M-14.0557 -16.9737C-10.4015 -16.9737 -7.74794 -16.9737 -4.32611 -16.9737C2.73812 -16.9737 9.89875 -12.9707 9.89875 2.73135C9.89875 18.4334 9.89875 47.7067 9.89875 56.4809C9.89875 99.4374 -53.6013 99.3952 -53.6013 56.4387C-53.6013 45.6553 -53.6013 25.833 -53.6013 13.3474C-53.6013 0.86171 -47.3399 -16.9737 -31.2601 -16.9737C-30.0564 -16.9737 -28.9215 -16.9737 -27.849 -16.9737"></path>
  <path fill="none" stroke="black" stroke-width="6" stroke-linejoin="round" transform="matrix(1.8 0 0 1.64041 359.051 251.837)" d="M-53.6012 -0.013454C-53.603 -42.636 9.897 -42.6386 9.89876 -0.0160766C9.89946 16.9036 9.90063 45.1288 9.90134 62.6635C9.9016 68.8243 1.39214 80.1402 -21.8479 80.4117C-45.088 80.6832 -53.5984 69.7625 -53.5986 64.9604C-53.5993 47.323 -53.6007 12.4729 -53.6012 -0.013454Z"></path>
  <path fill="#503F7E" transform="matrix(1.8 0 0 1.52279 359.051 169.591)" d="M-53.6013 13.3474C-53.6013 0.861706 -47.3399 -16.9737 -31.2601 -16.9737C-15.1803 -16.9737 -11.3904 -16.9737 -4.32611 -16.9737C2.73812 -16.9737 9.89875 -12.9707 9.89875 2.73135C9.89875 18.4334 9.89875 47.7067 9.89875 56.4809C9.89875 99.4374 -53.6013 99.3952 -53.6013 56.4387C-53.6013 45.6553 -53.6013 25.833 -53.6013 13.3474Z"></path>
  <path fill="#503F7E" transform="matrix(1.8 0 0 1.64041 359.051 251.837)" d="M-53.6012 -0.0134552C-53.603 -42.636 9.897 -42.6386 9.89876 -0.0160778C9.89946 16.9036 9.90063 45.1288 9.90134 62.6635C9.9016 68.8243 1.39214 80.1402 -21.8479 80.4117C-45.088 80.6832 -53.5984 69.7625 -53.5986 64.9604C-53.5993 47.323 -53.6007 12.4729 -53.6012 -0.0134552Z"></path>
  <path fill="none" stroke="black" stroke-width="5" stroke-linejoin="round" transform="matrix(1.67985 0 0 1.8 269.501 356.202)" d="M5.43744 -15.6807C23.639 -14.8114 36.3394 -10.0274 33.7441 37.2995C33.4108 51.4032 36.4937 66.3671 21.5176 73.9975C9.94892 73.9053 -2.97449 74.7117 -19.4392 74.4472C-30.2786 65.9833 -29.7016 50.2015 -29.3339 33.3828C-27.4034 -13.0717 -12.7641 -16.55 5.43744 -15.6807Z"></path>
  <path fill="#453279" transform="matrix(1.67985 0 0 1.8 269.501 356.202)" d="M5.43744 -15.6807C23.639 -14.8114 36.3394 -10.0274 33.7441 37.2995C33.4108 51.4032 36.4937 66.3671 21.5176 73.9975C9.94892 73.9053 -2.97449 74.7117 -19.4392 74.4472C-30.2786 65.9833 -29.7016 50.2015 -29.3339 33.3828C-27.4034 -13.0717 -12.7641 -16.55 5.43744 -15.6807Z"></path>
  <path fill="none" stroke="black" stroke-width="5" stroke-linejoin="round" transform="matrix(1.67985 0 0 1.8 191.63 362.835)" d="M1.14441e-05 -14.3439C18.2254 -14.3439 31.1711 -10.1719 31.1712 37.2169C31.7865 56.0934 34.5752 69.036 19.1016 75.646C3.62799 76.0176 -7.05902 76.224 -21.8955 75.8837C-36.732 69.3049 -32.1706 52.8104 -32.0389 36.314C-32.655 -10.1719 -18.2254 -14.3439 1.14441e-05 -14.3439Z"></path>
  <path fill="none" stroke="black" stroke-width="5" stroke-linejoin="round" transform="matrix(1.79976 0.0276995 -0.0293645 1.69771 275.431 279.649)" d="M-11.3238 -80.2543C25.8014 -80.2543 54.9476 -94.6926 58.9092 -40.8672C62.8708 12.9582 37.0524 74.7499 0.0572919 75.3534C-14.1177 75.5847 -17.7665 75.6442 -48.2096 76.1409C-78.6526 76.6376 -84.25 60.12 -84.25 0C-86.6294 -86.0849 -88.6034 -78.4854 -12.7475 -80.2208"></path>
  <path fill="#503F7E" transform="matrix(1.67985 0 0 1.8 191.63 362.835)" d="M1.14441e-05 -14.3439C18.2254 -14.3439 31.1711 -10.1719 31.1712 37.2169C31.7865 56.0934 34.5752 69.036 19.1016 75.646C3.62799 76.0176 -7.05902 76.224 -21.8955 75.8837C-36.732 69.3049 -32.1706 52.8104 -32.0389 36.314C-32.655 -10.1719 -18.2254 -14.3439 1.14441e-05 -14.3439Z"></path>
  <path fill="none" stroke="black" stroke-width="5" stroke-linejoin="round" transform="matrix(1.53139 0 0 1.39334 226.227 125.584)" d="M1.90735e-06 -40C20.9426 -40 35.0096 -26.8589 47.8597 -2.20017C49.1253 -3.81498 50.3123 -3.57652 51.1974 -3.11681C52.0824 -2.6571 52.5509 -1.60561 52.2206 -0.665335C53.8523 0.0632067 55.2854 1.47333 55.8775 2.67699C56.9197 4.79567 57.6743 10.5072 53.7931 11.8212C58.5977 31.9882 20.3682 22.0914 -1.13888e-05 22.0914C-20.2357 22.0914 -45.0732 28.3281 -41.8836 12.9784C-44.6787 11.8212 -48.2008 8.95145 -46.5316 4.29176C-45.7036 1.98007 -43.8185 0.567096 -42.3936 0.567005C-41.0392 0.566917 -42.9934 -2.19999 -40.2188 -3.8149C-39.0195 -4.5129 -37.7273 -4.43211 -36.6068 -4.12355C-28.0141 -23.731 -20.4124 -40 1.90735e-06 -40Z"></path>
  <path fill="#503F7E" transform="matrix(1.79976 0.0276995 -0.0293645 1.69771 275.431 279.649)" d="M-11.3238 -80.2543C25.8014 -80.2543 54.9476 -94.6926 58.9092 -40.8672C62.8708 12.9582 37.0524 74.7499 0.0572919 75.3534C-14.1177 75.5847 -17.7665 75.6442 -48.2096 76.1409C-78.6526 76.6376 -84.25 60.12 -84.25 0C-86.6442 -86.62 -88.6279 -78.3873 -11.3238 -80.2543Z"></path>
  <clipPath id="cl_391">
    <path d="M257.408 143.087C324.224 144.115 377.104 120.411 382.654 211.9C388.203 303.39 339.922 407.579 273.322 407.579C247.803 407.579 241.234 407.579 186.43 407.579C131.625 407.579 122.036 379.382 123.801 277.316C122.036 130.193 118.224 144.115 257.408 143.087Z"></path>
  </clipPath>
  <g clip-path="url(#cl_391)">
    <path fill="#655494" transform="matrix(1.8 0 0 1.8 312.557 261.728)" d="M-0.158644 -48.2655C25.513 -48.2655 46.324 -26.6563 46.324 0C46.324 26.6563 25.513 48.2655 -0.158644 48.2655C-25.8303 48.2655 -46.6413 26.6563 -46.6413 0C-46.6413 -26.6563 -25.8303 -48.2655 -0.158644 -48.2655Z"></path>
  </g>
  <path fill="none" stroke="black" stroke-width="2" stroke-linejoin="round" transform="matrix(3.88825 -0.763212 0.691401 3.5224 233.026 47.3358)" d="M-4.34758 -5.25471C-4.34758 -11.5047 3.66088 -11.5047 3.66088 -5.25471C3.66088 0.995287 3.66088 12.5 3.66088 12.5L-4.57314 12.5C-4.57314 12.5 -4.34758 0.995288 -4.34758 -5.25471Z"></path>
  <path fill="none" stroke="black" stroke-width="2" stroke-linejoin="round" transform="matrix(3.5224 -0.691401 0.691401 3.5224 198.818 52.7486)" d="M-5.1645 -6.50117C-5.16451 -12.7512 6 -12.7512 6 -6.50117C6 -0.251166 6 12.5 6 12.5L-6 12.5C-6 12.5 -5.1645 -0.251167 -5.1645 -6.50117Z"></path>
  <path fill="#453279" transform="matrix(3.88825 -0.763212 0.691401 3.5224 233.026 47.3358)" d="M-4.34758 -5.25471C-4.34758 -11.5047 3.66088 -11.5047 3.66088 -5.25471C3.66088 0.995287 3.66088 12.5 3.66088 12.5L-4.57314 12.5C-4.57314 12.5 -4.34758 0.995288 -4.34758 -5.25471Z"></path>
  <path fill="none" stroke="#161616" stroke-width="0.5" stroke-linecap="round" stroke-linejoin="round" transform="matrix(3.88825 -0.763212 0.691401 3.5224 228.233 27.8041)" d="M4.06863e-06 1.51652L3.35385e-06 10.5382"></path>
  <path fill="#503F7E" transform="matrix(3.5224 -0.691401 0.691401 3.5224 198.818 52.7486)" d="M-5.1645 -6.50117C-5.1645 -12.7512 6 -12.7512 6 -6.50117C6 -0.251166 6 12.5 6 12.5L-6 12.5C-6 12.5 -5.1645 -0.251167 -5.1645 -6.50117Z"></path>
  <path fill="none" stroke="#161616" stroke-width="0.5" stroke-linecap="round" stroke-linejoin="round" transform="matrix(3.5224 -0.691401 0.691401 3.5224 199.033 32.7301)" d="M9.72213e-07 7.65589e-06L4.78691e-06 10.5382"></path>
  <path fill="#503F7E" transform="matrix(1.53139 0 0 1.39334 226.227 125.584)" d="M1.90735e-06 -40C20.9426 -40 35.0096 -26.8589 47.8597 -2.20017C49.1253 -3.81498 50.3123 -3.57652 51.1974 -3.11681C52.0824 -2.6571 52.5509 -1.60561 52.2206 -0.665335C53.8523 0.0632067 55.2854 1.47333 55.8775 2.67699C56.9197 4.79567 57.6743 10.5072 53.7931 11.8212C58.5977 31.9882 20.3682 22.0914 -1.13888e-05 22.0914C-20.2357 22.0914 -45.0732 28.3281 -41.8836 12.9784C-44.6787 11.8212 -48.2008 8.95145 -46.5316 4.29176C-45.7036 1.98007 -43.8185 0.567096 -42.3936 0.567005C-41.0392 0.566917 -42.9934 -2.19999 -40.2188 -3.8149C-39.0195 -4.5129 -37.7273 -4.43211 -36.6068 -4.12355C-28.0141 -23.731 -20.4124 -40 1.90735e-06 -40Z"></path>
  <clipPath id="cl_392">
    <path d="M226.227 69.8503C258.298 69.8503 279.84 88.1603 299.518 122.518C301.456 120.268 303.274 120.601 304.63 121.241C305.985 121.882 306.702 123.347 306.196 124.657C308.695 125.672 310.89 127.637 311.797 129.314C313.393 132.266 314.548 140.224 308.605 142.055C315.962 170.155 257.418 156.365 226.227 156.365C195.238 156.365 157.202 165.055 162.087 143.667C157.806 142.055 152.413 138.056 154.969 131.564C156.237 128.343 159.124 126.374 161.306 126.374C163.38 126.374 160.387 122.519 164.636 120.269C166.473 119.296 168.452 119.409 170.168 119.838C183.326 92.5185 194.967 69.8503 226.227 69.8503Z"></path>
  </clipPath>
  <g clip-path="url(#cl_392)">
    <path fill="#7463A5" transform="matrix(1.8 2.98023e-08 0.00759348 1.8 224.846 110.441)" d="M-1.90735e-06 -5.5C3.86599 -5.5 7 -2.92564 7 0.25C7 3.42564 3.86599 6 -1.90735e-06 6C-3.866 6 -7 3.42564 -7 0.25C-7 -2.92564 -3.866 -5.5 -1.90735e-06 -5.5Z"></path>
    <path fill="#7463A5" transform="matrix(1.83618 3.04014e-08 0.00759348 1.8 277.394 102.295)" d="M-9.53674e-07 -5.00001C2.76142 -5.00001 5 -2.6495 5 0.249992C5 3.14949 2.76142 5.49999 -9.53674e-07 5.49999C-2.76142 5.49999 -5 3.14949 -5 0.249992C-5 -2.6495 -2.76142 -5.00001 -9.53674e-07 -5.00001Z"></path>
    <path fill="none" stroke="#131212" stroke-width="1" stroke-linecap="round" stroke-linejoin="round" transform="matrix(2.30699 -0.373724 0.274137 1.69224 255.626 95.5994)" d="M2.39559e-06 -4.14104e-07L2.92892 -0.714567"></path>
    <path fill="none" stroke="#131212" stroke-width="1" stroke-linecap="round" stroke-linejoin="round" transform="matrix(2.30699 -0.373724 0.274137 1.69224 233.875 94.7697)" d="M5.96046e-07 7.48094e-06L4.25731 1.79213"></path>
    <path fill="#131212" transform="matrix(2.47104 -0.400299 0.405754 2.50471 247.66 97.8799)" d="M-2.27592e-08 -2.15485e-07L1.9614 0.352738L0.91509 1.42246L-2.27592e-08 -2.15485e-07Z"></path>
    <path fill="none" stroke="#131212" stroke-width="0.5" stroke-linecap="round" stroke-linejoin="round" transform="matrix(1.93759 -0.313883 0.31816 1.96399 250.72 101.415)" d="M1.18428e-07 -0.711224L-3.72341e-06 1.1102"></path>
    <path fill="#32225E" transform="matrix(1.74285 0.441491 -0.424043 1.74552 244.507 90.0143)" d="M-1.93607e-06 -1.92716C1.6285 -1.92716 2.94867 -1.06435 2.94867 -7.67333e-06C2.94867 1.06433 1.6285 1.92715 -1.87863e-06 1.92715C-1.62851 1.92715 -2.94867 1.06433 -2.94867 -7.58546e-06C-2.94867 -1.06435 -1.62851 -1.92716 -1.93607e-06 -1.92716Z"></path>
    <path fill="#32225E" transform="matrix(1.71213 0.433708 -0.412468 1.69787 255.7 89.1394)" d="M-5.72205e-06 -1.89919C0.889983 -1.89919 1.61146 -1.04889 1.61146 -2.40127e-08C1.61146 1.04889 0.889983 1.89919 -5.72205e-06 1.89919C-0.889995 1.89919 -1.61147 1.04889 -1.61147 2.40127e-08C-1.61147 -1.04889 -0.889995 -1.89919 -5.72205e-06 -1.89919Z"></path>
  </g>
  <path fill="none" stroke="black" stroke-width="6" stroke-linejoin="round" transform="matrix(1.8 0 0 1.8 170.253 262.174)" d="M5.46001 27.8163C-31.2362 12.601 -6.91505 -46.0567 29.7811 -30.8415C45.4106 -24.3611 71.0062 -15.5265 87.4393 -9.40951C93.2131 -7.26029 100.849 4.6625 92.9952 26.5369C85.1413 48.4114 71.9376 52.5768 67.4372 50.9016C50.9079 44.7487 16.9942 32.5987 5.46001 27.8163Z"></path>
  <path fill="none" stroke="black" stroke-width="6" stroke-linecap="round" stroke-linejoin="bevel" transform="matrix(1.8 0 0 1.67094 170.253 171.927)" d="M45.069 29.2688C46.7751 37.0005 48.2453 43.6626 49.0032 47.0969C58.2256 88.8888 -3.56193 104.668 -12.7843 62.876C-15.0994 52.385 -19.3551 33.1002 -22.0357 20.953C-24.7162 8.80582 -22.4538 -10.106 -6.80988 -14.1121C-5.24601 -14.5126 -3.80162 -14.8825 -2.46159 -15.2256"></path>
  <path fill="#503F7E" transform="matrix(1.8 0 0 1.67094 170.253 171.927)" d="M-22.0357 20.953C-24.7162 8.80582 -22.4537 -10.106 -6.80987 -14.1121C8.83399 -18.1182 12.5212 -19.0624 19.3939 -20.8224C26.2666 -22.5823 34.0925 -20.4718 37.4636 -5.19543C40.8347 10.0809 47.1194 38.5606 49.0032 47.0968C57.1153 83.8575 -4.67221 99.6367 -12.7843 62.876C-15.0994 52.385 -19.3551 33.1002 -22.0357 20.953Z"></path>
  <path fill="none" stroke="black" stroke-width="4" stroke-linejoin="round" transform="matrix(1.8 0 0 1.8 354.745 164.528)" d="M-11.7479 -12.9046C-11.318 -13.5165 -10.7601 -14.1187 -10.0572 -14.7065C-5.47351 -18.5399 3.93804 -16.1165 4.43081 -14.7065C7.46664 -16.1165 10.8961 -16.6614 15.0174 -13.9738C19.1387 -11.2862 16.2386 -4.86793 16.6118 -4.55444C16.985 -4.24095 25.2116 0.494543 17.5976 8.33766C16.6439 8.92035 15.7365 9.39702 14.8735 9.77867"></path>
  <path fill="#7463A5" transform="matrix(1.8 0 0 1.8 354.745 164.528)" d="M-0.116455 0C-2.60165 -0.66394 -7.05858 1.11792 -10.0572 -2.65576C-13.0559 -6.42944 -14.6409 -10.8732 -10.0572 -14.7065C-5.47351 -18.5399 3.93804 -16.1165 4.43081 -14.7065C7.46664 -16.1165 10.8961 -16.6614 15.0174 -13.9738C19.1387 -11.2862 16.2386 -4.86793 16.6118 -4.55444C16.985 -4.24095 25.2116 0.494543 17.5976 8.33766C2.9012 17.3171 -0.809986 1.11792 -0.116455 0Z"></path>
  <path fill="#503F7E" transform="matrix(1.8 0 0 1.8 170.253 262.174)" d="M5.46001 27.8163C-32.7603 11.9691 -8.43916 -46.6887 29.7811 -30.8415C45.4106 -24.3611 71.0062 -15.5265 87.4393 -9.40952C93.2131 -7.26029 100.849 4.6625 92.9952 26.5369C85.1413 48.4114 71.9376 52.5768 67.4372 50.9016C50.9079 44.7487 16.9942 32.5987 5.46001 27.8163Z"></path>
  <path fill="#312F2F" transform="matrix(0.502354 0.186996 -0.222966 0.598988 304.676 288.344)" d="M-3.8147e-06 -128C70.6924 -128 128 -70.6924 128 -1.90735e-06C128 70.6924 70.6924 128 -1.14441e-05 128C-70.6925 128 -128 70.6924 -128 -1.90735e-06C-128 -70.6924 -70.6924 -128 -3.8147e-06 -128Z"></path>
  <path fill="none" stroke="black" stroke-width="7" stroke-miterlimit="4" transform="translate(256 256)" d="M88.5965 -40.0901C124.109 -26.8709 140.12 18.1719 124.358 60.5159C108.596 102.86 67.0297 126.47 31.5171 113.251C-3.99559 100.032 -20.0066 54.9889 -4.24458 12.645C11.5175 -29.699 53.0838 -53.3092 88.5965 -40.0901Z"></path>
  <path fill="none" stroke="black" stroke-width="7" stroke-linejoin="round" transform="translate(256 256)" d="M88.5965 -40.0901C88.5965 -40.0901 79.4912 -43.4794 77.6551 -44.1628C48.5599 -54.1041 5.71762 -48.9282 -15.6254 8.40861C-36.9683 65.7454 -1.96768 100.787 20.1363 109.015C21.9723 109.698 31.5171 113.251 31.5171 113.251C31.0156 113.064 30.4857 112.843 29.9304 112.589"></path>
  <path fill="#8D5A3E" transform="matrix(0.502354 0.186996 -0.222966 0.598988 316.057 292.58)" d="M1.90735e-05 -128C70.6925 -128 128 -70.6924 128 1.90735e-06C128 70.6924 70.6925 128 1.14441e-05 128C-70.6924 128 -128 70.6924 -128 1.90735e-06C-128 -70.6924 -70.6924 -128 1.90735e-05 -128Z"></path>
  <path fill="#4B2713" transform="matrix(0.502354 0.186996 -0.222966 0.598988 319.545 293.197)" d="M0.250003 -87.5C51.4744 -87.5 93 -48.4368 93 -0.249998C93 47.9368 51.4744 87 0.249997 87C-50.9744 87 -92.5 47.9368 -92.5 -0.249998C-92.5 -48.4368 -50.9744 -87.5 0.250003 -87.5Z"></path>
  <path fill="#693920" transform="matrix(0.502354 0.186996 -0.222966 0.598988 316.057 292.58)" d="M1.78218e-05 -86C47.4965 -86 86 -47.4965 86 1.90735e-06C86 47.4965 47.4965 86 1.26958e-05 86C-47.4965 86 -86 47.4965 -86 1.90735e-06C-86 -47.4965 -47.4965 -86 1.78218e-05 -86Z"></path>
  <path fill="#1F0D04" transform="matrix(1.16687 0.980032 -0.99904 1.45444 299.635 294.956)" d="M0 -6.1709C3.40809 -6.1709 6.1709 -3.40809 6.1709 1.07288e-06C6.1709 3.40809 3.40809 6.1709 0 6.1709C-3.40809 6.1709 -6.1709 3.40809 -6.1709 1.07288e-06C-6.1709 -3.40809 -3.40809 -6.1709 0 -6.1709Z"></path>
  <clipPath id="cl_39a">
    <path d="M305.8 285.981C309.777 289.321 310.241 296.047 306.836 301.004C303.431 305.961 297.447 307.272 293.47 303.931C289.494 300.591 289.03 293.865 292.435 288.909C295.84 283.952 301.823 282.641 305.8 285.981Z"></path>
  </clipPath>
  <g clip-path="url(#cl_39a)">
    <path fill="#2F1507" transform="matrix(1.16687 0.980032 -0.99904 1.45444 296.705 296.204)" d="M3.8147e-06 -6.1709C3.4081 -6.1709 6.1709 -3.40809 6.1709 1.66893e-06C6.1709 3.40809 3.4081 6.1709 3.8147e-06 6.1709C-3.40809 6.1709 -6.1709 3.40809 -6.1709 1.66893e-06C-6.1709 -3.40809 -3.40809 -6.1709 3.8147e-06 -6.1709Z"></path>
  </g>
  <path fill="#1F0D04" transform="matrix(1.16687 0.980032 -0.99904 1.45444 314.388 273.48)" d="M3.8147e-06 -6.1709C3.4081 -6.1709 6.1709 -3.40809 6.1709 0C6.1709 3.40809 3.4081 6.1709 3.8147e-06 6.1709C-3.40809 6.1709 -6.1709 3.40809 -6.1709 0C-6.1709 -3.40809 -3.40809 -6.1709 3.8147e-06 -6.1709Z"></path>
  <clipPath id="cl_39b">
    <path d="M320.552 264.504C324.529 267.844 324.993 274.57 321.588 279.527C318.183 284.484 312.199 285.795 308.223 282.455C304.246 279.115 303.782 272.389 307.187 267.432C310.592 262.475 316.576 261.164 320.552 264.504Z"></path>
  </clipPath>
  <g clip-path="url(#cl_39b)">
    <path fill="#2F1507" transform="matrix(1.16687 0.980032 -0.99904 1.45444 310.692 275.841)" d="M0 -6.1709C3.40809 -6.1709 6.1709 -3.40809 6.1709 1.90735e-06C6.1709 3.4081 3.40809 6.1709 0 6.1709C-3.40809 6.1709 -6.1709 3.4081 -6.1709 1.90735e-06C-6.1709 -3.40809 -3.40809 -6.1709 0 -6.1709Z"></path>
  </g>
  <path fill="#1F0D04" transform="matrix(1.16687 0.980032 -0.99904 1.45444 318.009 310.388)" d="M-3.8147e-06 -6.1709C3.40809 -6.1709 6.1709 -3.40809 6.1709 -8.34465e-07C6.1709 3.40809 3.40809 6.1709 -3.8147e-06 6.1709C-3.4081 6.1709 -6.1709 3.40809 -6.1709 -8.34465e-07C-6.1709 -3.40809 -3.4081 -6.1709 -3.8147e-06 -6.1709Z"></path>
  <clipPath id="cl_39c">
    <path d="M324.174 301.413C328.151 304.753 328.615 311.479 325.21 316.436C321.805 321.393 315.821 322.704 311.845 319.363C307.868 316.023 307.404 309.298 310.809 304.341C314.214 299.384 320.198 298.073 324.174 301.413Z"></path>
  </clipPath>
  <g clip-path="url(#cl_39c)">
    <path fill="#2F1507" transform="matrix(1.16687 0.980032 -0.99904 1.45444 315.875 311.157)" d="M0 -6.1709C3.40809 -6.1709 6.1709 -3.40809 6.1709 2.38419e-06C6.1709 3.4081 3.40809 6.1709 0 6.1709C-3.40809 6.1709 -6.1709 3.4081 -6.1709 2.38419e-06C-6.1709 -3.40809 -3.40809 -6.1709 0 -6.1709Z"></path>
  </g>
  <path fill="#1F0D04" transform="matrix(1.16687 0.980032 -0.99904 1.45444 332.762 288.912)" d="M0 -6.1709C3.40809 -6.1709 6.1709 -3.40809 6.1709 9.53674e-07C6.1709 3.40809 3.40809 6.1709 0 6.1709C-3.40809 6.1709 -6.1709 3.40809 -6.1709 9.53674e-07C-6.1709 -3.40809 -3.40809 -6.1709 0 -6.1709Z"></path>
  <clipPath id="cl_39d">
    <path d="M338.927 279.936C342.903 283.276 343.367 290.002 339.962 294.959C336.558 299.916 330.574 301.227 326.597 297.887C322.62 294.547 322.156 287.821 325.561 282.864C328.966 277.907 334.95 276.596 338.927 279.936Z"></path>
  </clipPath>
  <g clip-path="url(#cl_39d)">
    <path fill="#2F1507" transform="matrix(1.16687 0.980032 -0.99904 1.45444 328.694 289.815)" d="M4.18251e-06 -6.1709C3.4081 -6.1709 6.1709 -3.40809 6.1709 -9.53674e-07C6.1709 3.40809 3.4081 6.1709 3.44688e-06 6.1709C-3.40809 6.1709 -6.17089 3.40809 -6.17089 -9.53674e-07C-6.17089 -3.40809 -3.40809 -6.1709 4.18251e-06 -6.1709Z"></path>
  </g>
  <path fill="none" stroke="#E3CEC2" stroke-width="4" stroke-linecap="round" stroke-linejoin="round" transform="matrix(1.16687 0.980032 -0.99904 1.45444 313.671 272.354)" d="M2.42519 2.41434L15.2044 14.4568"></path>
  <path fill="none" stroke="#C8AD9D" stroke-width="4" stroke-linecap="round" stroke-linejoin="round" transform="matrix(1.16687 0.980032 -0.99904 1.45444 313.671 272.354)" d="M3.28776 13.1788L15.6779 1.98902"></path>
  <path fill="#4B2713" transform="matrix(0.598988 0.222966 -0.222966 0.598988 344.596 215.91)" d="M-1.52588e-05 0C-1.52588e-05 0 -15.2012 -3.8147e-06 -18.2664 0C-66.3551 1.3037 -126.35 32.2772 -126.35 128C-126.35 223.723 -55.9022 256 -19 256C-15.9348 256 -1.90735e-05 256 -1.52588e-05 256C-25.5439 256 -107.35 223.723 -107.35 128C-107.35 32.2772 -25.5439 7.62939e-06 -1.52588e-05 0Z"></path>
</svg>