<?xml version="1.0" encoding="utf-8"?>
<svg xmlns="http://www.w3.org/2000/svg" xmlns:xlink="http://www.w3.org/1999/xlink" width="512" height="512">
  <path fill="none" stroke="black" stroke-width="6" stroke-linejoin="round" transform="matrix(1.8 0 0 1.52279 359.051 169.591)" d="M-16.828 -16.9737C-13.1738 -16.9737 -10.5202 -16.9737 -7.0984 -16.9737C-0.0341644 -16.9737 7.12646 -12.9707 7.12646 2.73135C7.12646 18.4334 7.12646 47.7067 7.12646 56.4809C7.12646 99.4374 -56.3735 99.3952 -56.3735 56.4387C-56.3735 45.6553 -56.3735 25.833 -56.3735 13.3474C-56.3735 0.86171 -50.1122 -16.9737 -34.0324 -16.9737C-32.8287 -16.9737 -31.6938 -16.9737 -30.6213 -16.9737"></path>
  <path fill="none" stroke="black" stroke-width="6" stroke-linejoin="round" transform="matrix(1.8 0 0 1.64041 359.051 251.837)" d="M-56.374 -0.258652C-56.0451 -42.8799 7.45304 -42.3899 7.12414 0.231359C6.99358 17.1506 6.77576 45.3749 6.64045 62.9091C6.59291 69.0697 -2.00408 80.3193 -25.2455 80.4104C-48.487 80.5016 -56.9124 69.5152 -56.8754 64.7133C-56.7393 47.0764 -56.4703 12.2273 -56.374 -0.258652Z"></path>
  <path fill="#503F7E" transform="matrix(1.8 0 0 1.52279 359.051 169.591)" d="M-56.3735 13.3474C-56.3735 0.861706 -50.1122 -16.9737 -34.0324 -16.9737C-17.9526 -16.9737 -14.1626 -16.9737 -7.0984 -16.9737C-0.0341644 -16.9737 7.12646 -12.9707 7.12646 2.73135C7.12646 18.4334 7.12646 47.7067 7.12646 56.4809C7.12646 99.4374 -56.3735 99.3952 -56.3735 56.4387C-56.3735 45.6553 -56.3735 25.833 -56.3735 13.3474Z"></path>
  <path fill="#503F7E" transform="matrix(1.8 0 0 1.64041 359.051 251.837)" d="M-56.374 -0.258653C-56.0451 -42.8799 7.45304 -42.3899 7.12414 0.231358C6.99358 17.1506 6.77576 45.3749 6.64045 62.9091C6.59291 69.0697 -2.00408 80.3193 -25.2455 80.4104C-48.487 80.5016 -56.9124 69.5152 -56.8754 64.7133C-56.7393 47.0764 -56.4703 12.2273 -56.374 -0.258653Z"></path>
  <path fill="none" stroke="black" stroke-width="5" stroke-linejoin="round" transform="matrix(1.67985 0 0 1.8 269.501 356.202)" d="M10.1415 -15.6799C28.3408 -14.7712 41.0293 -9.95973 38.3165 37.3614C37.9481 51.4644 40.9819 66.4184 26.0082 73.9886C14.4395 73.8965 1.51613 74.7029 -14.9485 74.4384C-25.7884 65.991 -25.1611 50.1261 -24.7517 33.3082C-22.7058 -13.142 -8.05791 -16.5886 10.1415 -15.6799Z"></path>
  <path fill="#453279" transform="matrix(1.67985 0 0 1.8 269.501 356.202)" d="M10.1415 -15.6799C28.3408 -14.7712 41.0293 -9.95973 38.3165 37.3614C37.9481 51.4644 40.9819 66.4184 26.0082 73.9886C14.4395 73.8965 1.51613 74.7029 -14.9485 74.4384C-25.7884 65.991 -25.1611 50.1261 -24.7517 33.3082C-22.7058 -13.142 -8.05791 -16.5886 10.1415 -15.6799Z"></path>
  <path fill="none" stroke="black" stroke-width="5" stroke-linejoin="round" transform="matrix(1.67985 0 0 1.8 191.63 362.835)" d="M1.14441e-05 -14.3439C18.2254 -14.3439 31.1711 -10.1719 31.1712 37.2169C31.7865 56.0934 34.5752 69.036 19.1016 75.646C3.62799 76.0176 -7.05902 76.224 -21.8955 75.8837C-36.732 69.3049 -32.1706 52.8104 -32.0389 36.314C-32.655 -10.1719 -18.2254 -14.3439 1.14441e-05 -14.3439Z"></path>
  <path fill="none" stroke="black" stroke-width="5" stroke-linejoin="round" transform="matrix(1.79976 0.0276995 -0.0293645 1.69771 277.301 279.649)" d="M-11.3238 -80.2543C25.8014 -80.2543 54.9476 -94.6926 58.9092 -40.8672C62.8708 12.9582 37.0524 74.7499 0.0572909 75.3534C-14.1177 75.5847 -17.7665 75.6442 -48.2096 76.1409C-78.6526 76.6376 -84.25 60.12 -84.25 -9.53674e-07C-86.6294 -86.0849 -88.6034 -78.4854 -12.7475 -80.2208"></path>
  <path fill="#503F7E" transform="matrix(1.67985 0 0 1.8 191.63 362.835)" d="M1.14441e-05 -14.3439C18.2254 -14.3439 31.1711 -10.1719 31.1712 37.2169C31.7865 56.0934 34.5752 69.036 19.1016 75.646C3.62799 76.0176 -7.05902 76.224 -21.8955 75.8837C-36.732 69.3049 -32.1706 52.8104 -32.0389 36.314C-32.655 -10.1719 -18.2254 -14.3439 1.14441e-05 -14.3439Z"></path>
  <path fill="none" stroke="black" stroke-width="5" stroke-linejoin="round" transform="matrix(1.53139 0 0 1.39334 228.97 125.584)" d="M0 -40C20.9426 -40 35.0096 -26.8589 47.8597 -2.20017C49.1253 -3.81498 50.3123 -3.57652 51.1974 -3.11681C52.0824 -2.6571 52.5509 -1.60561 52.2206 -0.665335C53.8523 0.0632067 55.2854 1.47333 55.8775 2.67699C56.9197 4.79567 57.6743 10.5072 53.7931 11.8212C58.5977 31.9882 20.3682 22.0914 -1.32962e-05 22.0914C-20.2357 22.0914 -45.0732 28.3281 -41.8836 12.9784C-44.6787 11.8212 -48.2008 8.95145 -46.5316 4.29176C-45.7036 1.98007 -43.8185 0.567096 -42.3936 0.567005C-41.0392 0.566917 -42.9934 -2.19999 -40.2188 -3.8149C-39.0195 -4.5129 -37.7273 -4.43211 -36.6068 -4.12355C-28.0141 -23.731 -20.4124 -40 0 -40Z"></path>
  <path fill="#503F7E" transform="matrix(1.79976 0.0276995 -0.0293645 1.69771 277.301 279.649)" d="M-11.3238 -80.2543C25.8014 -80.2543 54.9476 -94.6926 58.9092 -40.8672C62.8708 12.9582 37.0524 74.7499 0.0572909 75.3534C-14.1177 75.5847 -17.7665 75.6442 -48.2096 76.1409C-78.6526 76.6376 -84.25 60.12 -84.25 -9.53674e-07C-86.6442 -86.62 -88.6279 -78.3873 -11.3238 -80.2543Z"></path>
  <clipPath id="cl_2f5">
    <path d="M259.277 143.087C326.094 144.115 378.974 120.411 384.523 211.9C390.072 303.39 341.791 407.579 275.191 407.579C249.673 407.579 243.104 407.579 188.299 407.579C133.494 407.579 123.905 379.382 125.671 277.316C123.905 130.193 120.093 144.115 259.277 143.087Z"></path>
  </clipPath>
  <g clip-path="url(#cl_2f5)">
    <path fill="#655494" transform="matrix(1.8 0 0 1.8 314.426 261.728)" d="M-0.158646 -48.2655C25.513 -48.2655 46.324 -26.6563 46.324 0C46.324 26.6563 25.513 48.2655 -0.158646 48.2655C-25.8303 48.2655 -46.6413 26.6563 -46.6413 0C-46.6413 -26.6563 -25.8303 -48.2655 -0.158646 -48.2655Z"></path>
  </g>
  <path fill="none" stroke="black" stroke-width="2" stroke-linejoin="round" transform="matrix(3.88825 -0.763212 0.691401 3.5224 235.769 47.3358)" d="M-4.34758 -5.25471C-4.34758 -11.5047 3.66088 -11.5047 3.66088 -5.25471C3.66088 0.995287 3.66088 12.5 3.66088 12.5L-4.57314 12.5C-4.57314 12.5 -4.34758 0.995288 -4.34758 -5.25471Z"></path>
  <path fill="none" stroke="black" stroke-width="2" stroke-linejoin="round" transform="matrix(3.5224 -0.691401 0.691401 3.5224 201.562 52.7486)" d="M-5.1645 -6.50117C-5.16451 -12.7512 6 -12.7512 6 -6.50117C6 -0.251166 6 12.5 6 12.5L-6 12.5C-6 12.5 -5.1645 -0.251167 -5.1645 -6.50117Z"></path>
  <path fill="#453279" transform="matrix(3.88825 -0.763212 0.691401 3.5224 235.769 47.3358)" d="M-4.34758 -5.25471C-4.34758 -11.5047 3.66088 -11.5047 3.66088 -5.25471C3.66088 0.995287 3.66088 12.5 3.66088 12.5L-4.57314 12.5C-4.57314 12.5 -4.34758 0.995288 -4.34758 -5.25471Z"></path>
  <path fill="none" stroke="#161616" stroke-width="0.5" stroke-linecap="round" stroke-linejoin="round" transform="matrix(3.88825 -0.763212 0.691401 3.5224 230.976 27.8041)" d="M4.06863e-06 1.51652L3.35385e-06 10.5382"></path>
  <path fill="#503F7E" transform="matrix(3.5224 -0.691401 0.691401 3.5224 201.562 52.7486)" d="M-5.1645 -6.50117C-5.16451 -12.7512 6 -12.7512 6 -6.50117C6 -0.251166 6 12.5 6 12.5L-6 12.5C-6 12.5 -5.1645 -0.251167 -5.1645 -6.50117Z"></path>
  <path fill="none" stroke="#161616" stroke-width="0.5" stroke-linecap="round" stroke-linejoin="round" transform="matrix(3.5224 -0.691401 0.691401 3.5224 201.776 32.7301)" d="M2.56958e-07 3.8412e-06L4.07165e-06 10.5382"></path>
  <path fill="#503F7E" transform="matrix(1.53139 0 0 1.39334 228.97 125.584)" d="M0 -40C20.9426 -40 35.0096 -26.8589 47.8597 -2.20017C49.1253 -3.81498 50.3123 -3.57652 51.1974 -3.11681C52.0824 -2.6571 52.5509 -1.60561 52.2206 -0.665335C53.8523 0.0632067 55.2854 1.47333 55.8775 2.67699C56.9197 4.79567 57.6743 10.5072 53.7931 11.8212C58.5977 31.9882 20.3682 22.0914 -1.32962e-05 22.0914C-20.2357 22.0914 -45.0732 28.3281 -41.8836 12.9784C-44.6787 11.8212 -48.2008 8.95145 -46.5316 4.29176C-45.7036 1.98007 -43.8185 0.567096 -42.3936 0.567005C-41.0392 0.566917 -42.9934 -2.19999 -40.2188 -3.8149C-39.0195 -4.5129 -37.7273 -4.43211 -36.6068 -4.12355C-28.0141 -23.731 -20.4124 -40 0 -40Z"></path>
  <clipPath id="cl_2f6">
    <path d="M228.97 69.8503C261.041 69.8503 282.583 88.1603 302.262 122.518C304.2 120.268 306.018 120.601 307.373 121.241C308.728 121.882 309.446 123.347 308.94 124.657C311.439 125.672 313.633 127.637 314.54 129.314C316.136 132.266 317.292 140.224 311.348 142.055C318.706 170.155 260.162 156.365 228.97 156.365C197.981 156.365 159.946 165.055 164.83 143.667C160.55 142.055 155.156 138.056 157.712 131.564C158.98 128.343 161.867 126.374 164.049 126.374C166.123 126.374 163.13 122.519 167.379 120.269C169.216 119.296 171.195 119.409 172.911 119.838C186.07 92.5185 197.711 69.8503 228.97 69.8503Z"></path>
  </clipPath>
  <g clip-path="url(#cl_2f6)">
    <path fill="#7463A5" transform="matrix(1.8 2.98023e-08 0.00759348 1.8 232.289 110.441)" d="M0 -5.5C3.86599 -5.5 7 -2.92564 7 0.25C7 3.42564 3.86599 6 0 6C-3.86599 6 -7 3.42564 -7 0.25C-7 -2.92564 -3.86599 -5.5 0 -5.5Z"></path>
    <path fill="#7463A5" transform="matrix(1.83618 3.04014e-08 0.00759348 1.8 284.838 102.295)" d="M0 -5.00001C2.76142 -5.00001 5 -2.6495 5 0.249992C5 3.14949 2.76142 5.49999 0 5.49999C-2.76142 5.49999 -5 3.14949 -5 0.249992C-5 -2.6495 -2.76142 -5.00001 0 -5.00001Z"></path>
    <path fill="none" stroke="#131212" stroke-width="1" stroke-linecap="round" stroke-linejoin="round" transform="matrix(2.30699 -0.373724 0.274137 1.69224 263.069 95.5994)" d="M1.44192e-06 1.48447e-05L2.92891 -0.714552"></path>
    <path fill="none" stroke="#131212" stroke-width="1" stroke-linecap="round" stroke-linejoin="round" transform="matrix(2.30699 -0.373724 0.274137 1.69224 241.318 94.7697)" d="M4.76837e-07 -1.48459e-07L4.25731 1.79213"></path>
    <path fill="#131212" transform="matrix(2.47104 -0.400299 0.405754 2.50471 255.103 97.8799)" d="M-4.99596e-07 -2.15485e-07L1.9614 0.352738L0.915089 1.42246L-4.99596e-07 -2.15485e-07Z"></path>
    <path fill="none" stroke="#131212" stroke-width="0.5" stroke-linecap="round" stroke-linejoin="round" transform="matrix(1.93759 -0.313883 0.31816 1.96399 258.163 101.415)" d="M1.18428e-07 -0.711224L-3.72341e-06 1.1102"></path>
    <path fill="#32225E" transform="matrix(1.74285 0.441491 -0.424043 1.74552 251.951 90.0143)" d="M-1.93607e-06 -1.92716C1.6285 -1.92716 2.94867 -1.06434 2.94867 -4.39386e-08C2.94867 1.06434 1.6285 1.92716 -1.87863e-06 1.92716C-1.62851 1.92716 -2.94867 1.06434 -2.94867 4.39386e-08C-2.94867 -1.06434 -1.62851 -1.92716 -1.93607e-06 -1.92716Z"></path>
    <path fill="#32225E" transform="matrix(1.71213 0.433708 -0.412468 1.69787 263.144 89.1394)" d="M-3.8147e-06 -1.89918C0.889985 -1.89918 1.61146 -1.04889 1.61146 7.60538e-06C1.61146 1.0489 0.889985 1.8992 -3.8147e-06 1.8992C-0.889993 1.8992 -1.61147 1.0489 -1.61147 7.65341e-06C-1.61147 -1.04889 -0.889993 -1.89918 -3.8147e-06 -1.89918Z"></path>
  </g>
  <path fill="none" stroke="black" stroke-width="6" stroke-linejoin="round" transform="matrix(1.8 0 0 1.8 170.253 262.174)" d="M51.4944 15.6822C12.0212 11.2122 19.1664 -51.8845 58.6396 -47.4145C75.4519 -45.5106 102.493 -44.1015 119.977 -42.7691C126.12 -42.301 136.756 -32.9559 135.26 -9.76243C133.763 13.431 122.227 21.0865 117.439 20.7216C99.8527 19.3815 63.9014 17.0872 51.4944 15.6822Z"></path>
  <path fill="none" stroke="black" stroke-width="6" stroke-linecap="round" stroke-linejoin="bevel" transform="matrix(1.8 0 0 1.67094 170.253 171.927)" d="M65.7119 0.848086C71.2723 6.49022 76.0919 11.3807 78.5434 13.8683C107.57 43.322 64.0022 93.0861 34.9753 63.6324C27.6887 56.2386 14.2942 42.6472 5.85731 34.0862C-2.5796 25.5253 -10.3383 8.38637 0.687035 -4.22249C1.589 -5.254 2.43458 -6.22102 3.22959 -7.13022"></path>
  <path fill="#503F7E" transform="matrix(1.8 0 0 1.67094 170.253 171.927)" d="M5.85732 34.0862C-2.57959 25.5253 -10.3383 8.38636 0.687035 -4.22249C11.7124 -16.8314 14.311 -19.8032 19.1547 -25.3426C23.9984 -30.8819 31.6131 -33.7521 42.2234 -22.9858C52.8337 -12.2195 72.6145 7.85217 78.5434 13.8683C104.076 39.7761 60.5076 89.5402 34.9753 63.6324C27.6887 56.2386 14.2942 42.6472 5.85732 34.0862Z"></path>
  <path fill="none" stroke="black" stroke-width="4" stroke-linejoin="round" transform="matrix(1.8 0 0 1.8 361.194 164.528)" d="M-11.7479 -12.9046C-11.318 -13.5165 -10.7601 -14.1187 -10.0572 -14.7065C-5.47351 -18.5399 3.93804 -16.1165 4.43081 -14.7065C7.46664 -16.1165 10.8961 -16.6614 15.0174 -13.9738C19.1387 -11.2862 16.2386 -4.86793 16.6118 -4.55444C16.985 -4.24095 25.2116 0.494543 17.5976 8.33766C16.6439 8.92035 15.7365 9.39702 14.8735 9.77867"></path>
  <path fill="#7463A5" transform="matrix(1.8 0 0 1.8 361.194 164.528)" d="M-0.116455 0C-2.60165 -0.66394 -7.05858 1.11792 -10.0572 -2.65576C-13.0559 -6.42944 -14.6409 -10.8732 -10.0572 -14.7065C-5.47351 -18.5399 3.93804 -16.1165 4.43081 -14.7065C7.46664 -16.1165 10.8961 -16.6614 15.0174 -13.9738C19.1387 -11.2862 16.2386 -4.86793 16.6118 -4.55444C16.985 -4.24095 25.2116 0.494543 17.5976 8.33766C2.9012 17.3171 -0.809986 1.11792 -0.116455 0Z"></path>
  <path fill="#503F7E" transform="matrix(1.8 0 0 1.8 170.253 262.174)" d="M51.4944 15.6822C10.3817 11.0265 17.527 -52.0702 58.6396 -47.4145C75.4519 -45.5106 102.493 -44.1015 119.977 -42.7691C126.12 -42.301 136.756 -32.9559 135.26 -9.76243C133.763 13.431 122.227 21.0865 117.439 20.7216C99.8527 19.3815 63.9014 17.0872 51.4944 15.6822Z"></path>
  <path fill="#312F2F" transform="matrix(0.53448 0.0407297 -0.0485645 0.637293 376.064 232.968)" d="M0 -128C70.6925 -128 128 -70.6925 128 0C128 70.6925 70.6925 128 0 128C-70.6925 128 -128 70.6925 -128 0C-128 -70.6925 -70.6925 -128 0 -128Z"></path>
  <path fill="none" stroke="black" stroke-width="7" stroke-miterlimit="4" transform="translate(256 256)" d="M138.389 -103.683C176.173 -100.803 204.019 -61.9475 200.586 -16.8957C197.153 28.1561 163.74 62.3436 125.956 59.4644C88.1728 56.5851 60.3262 17.7293 63.7593 -27.3225C67.1925 -72.3743 100.605 -106.562 138.389 -103.683Z"></path>
  <path fill="none" stroke="black" stroke-width="7" stroke-linejoin="round" transform="translate(256 256)" d="M138.389 -103.683C138.389 -103.683 128.701 -104.421 126.748 -104.57C96.0381 -106.074 56.2995 -89.2487 51.6508 -28.2453C47.002 32.7582 90.3304 56.7495 113.848 58.5416C115.801 58.6905 125.956 59.4643 125.956 59.4644C125.423 59.4237 124.853 59.358 124.249 59.2668"></path>
  <path fill="#8D5A3E" transform="matrix(0.53448 0.0407297 -0.0485645 0.637293 388.173 233.891)" d="M1.52588e-05 -128C70.6925 -128 128 -70.6925 128 0C128 70.6925 70.6925 128 1.52588e-05 128C-70.6924 128 -128 70.6925 -128 0C-128 -70.6925 -70.6924 -128 1.52588e-05 -128Z"></path>
  <path fill="#4B2713" transform="matrix(0.53448 0.0407297 -0.0485645 0.637293 391.695 233.518)" d="M0.250015 -87.5C51.4744 -87.5 93 -48.4368 93 -0.25C93 47.9368 51.4744 87 0.250015 87C-50.9744 87 -92.5 47.9368 -92.5 -0.25C-92.5 -48.4368 -50.9744 -87.5 0.250015 -87.5Z"></path>
  <path fill="#693920" transform="matrix(0.53448 0.0407297 -0.0485645 0.637293 388.173 233.891)" d="M1.52588e-05 -86C47.4965 -86 86 -47.4965 86 0C86 47.4965 47.4965 86 1.52588e-05 86C-47.4965 86 -86 47.4965 -86 0C-86 -47.4965 -47.4965 -86 1.52588e-05 -86Z"></path>
  <path fill="#1F0D04" transform="matrix(1.39245 0.618989 -0.557706 1.67405 373.049 240.717)" d="M0 -6.1709C3.40809 -6.1709 6.1709 -3.40809 6.1709 0C6.1709 3.40809 3.40809 6.1709 0 6.1709C-3.40809 6.1709 -6.1709 3.40809 -6.1709 0C-6.1709 -3.40809 -3.40809 -6.1709 0 -6.1709Z"></path>
  <clipPath id="cl_2fe">
    <path d="M376.491 230.386C381.237 232.496 383.543 238.831 381.642 244.536C379.741 250.242 374.353 253.157 369.608 251.047C364.862 248.938 362.556 242.602 364.457 236.897C366.357 231.192 371.745 228.277 376.491 230.386Z"></path>
  </clipPath>
  <g clip-path="url(#cl_2fe)">
    <path fill="#2F1507" transform="matrix(1.39245 0.618989 -0.557706 1.67405 370.579 242.726)" d="M0 -6.1709C3.40809 -6.1709 6.1709 -3.40809 6.1709 0C6.1709 3.40809 3.40809 6.1709 0 6.1709C-3.40809 6.1709 -6.1709 3.40809 -6.1709 0C-6.1709 -3.40809 -3.40809 -6.1709 0 -6.1709Z"></path>
  </g>
  <path fill="#1F0D04" transform="matrix(1.39245 0.618989 -0.557706 1.67405 381.285 215.997)" d="M0 -6.1709C3.40809 -6.1709 6.1709 -3.4081 6.1709 -3.8147e-06C6.1709 3.40809 3.40809 6.17089 0 6.17089C-3.40809 6.17089 -6.1709 3.40809 -6.1709 -3.8147e-06C-6.1709 -3.4081 -3.40809 -6.1709 0 -6.1709Z"></path>
  <clipPath id="cl_2ff">
    <path d="M384.726 205.667C389.472 207.776 391.778 214.112 389.877 219.817C387.977 225.522 382.589 228.437 377.843 226.328C373.098 224.218 370.791 217.883 372.692 212.177C374.593 206.472 379.981 203.557 384.726 205.667Z"></path>
  </clipPath>
  <g clip-path="url(#cl_2ff)">
    <path fill="#2F1507" transform="matrix(1.39245 0.618989 -0.557706 1.67405 378.387 219.289)" d="M0 -6.1709C3.40809 -6.1709 6.1709 -3.40809 6.1709 0C6.1709 3.40809 3.40809 6.1709 0 6.1709C-3.40809 6.1709 -6.1709 3.40809 -6.1709 0C-6.1709 -3.40809 -3.40809 -6.1709 0 -6.1709Z"></path>
  </g>
  <path fill="#1F0D04" transform="matrix(1.39245 0.618989 -0.557706 1.67405 394.976 250.464)" d="M0 -6.1709C3.40809 -6.1709 6.1709 -3.4081 6.1709 -3.8147e-06C6.1709 3.40809 3.40809 6.17089 0 6.17089C-3.40809 6.17089 -6.1709 3.40809 -6.1709 -3.8147e-06C-6.1709 -3.4081 -3.40809 -6.1709 0 -6.1709Z"></path>
  <clipPath id="cl_300">
    <path d="M398.417 240.133C403.163 242.243 405.469 248.578 403.568 254.283C401.667 259.989 396.28 262.904 391.534 260.794C386.788 258.684 384.482 252.349 386.383 246.644C388.284 240.939 393.671 238.024 398.417 240.133Z"></path>
  </clipPath>
  <g clip-path="url(#cl_300)">
    <path fill="#2F1507" transform="matrix(1.39245 0.618989 -0.557706 1.67405 393.137 251.793)" d="M0 -6.1709C3.40809 -6.1709 6.1709 -3.40809 6.1709 0C6.1709 3.40809 3.40809 6.1709 0 6.1709C-3.40809 6.1709 -6.1709 3.40809 -6.1709 0C-6.1709 -3.40809 -3.40809 -6.1709 0 -6.1709Z"></path>
  </g>
  <path fill="#1F0D04" transform="matrix(1.39245 0.618989 -0.557706 1.67405 403.211 225.744)" d="M7.62939e-06 -6.17089C3.4081 -6.17089 6.17091 -3.40809 6.17091 3.8147e-06C6.17091 3.4081 3.4081 6.1709 7.62939e-06 6.1709C-3.40809 6.1709 -6.17089 3.4081 -6.17089 3.8147e-06C-6.17089 -3.40809 -3.40809 -6.17089 7.62939e-06 -6.17089Z"></path>
  <clipPath id="cl_301">
    <path d="M406.652 215.414C411.398 217.523 413.704 223.859 411.803 229.564C409.903 235.269 404.515 238.184 399.769 236.074C395.024 233.965 392.717 227.63 394.618 221.924C396.519 216.219 401.907 213.304 406.652 215.414Z"></path>
  </clipPath>
  <g clip-path="url(#cl_301)">
    <path fill="#2F1507" transform="matrix(1.39245 0.618989 -0.557706 1.67405 399.552 227.737)" d="M0 -6.1709C3.40809 -6.1709 6.1709 -3.4081 6.1709 -3.8147e-06C6.1709 3.40809 3.40809 6.17089 0 6.17089C-3.40809 6.17089 -6.1709 3.40809 -6.1709 -3.8147e-06C-6.1709 -3.4081 -3.40809 -6.1709 0 -6.1709Z"></path>
  </g>
  <path fill="none" stroke="#E3CEC2" stroke-width="4" stroke-linecap="round" stroke-linejoin="round" transform="matrix(1.39245 0.618989 -0.557706 1.67405 380.284 215.114)" d="M2.42519 2.41434L15.2044 14.4568"></path>
  <path fill="none" stroke="#C8AD9D" stroke-width="4" stroke-linecap="round" stroke-linejoin="round" transform="matrix(1.39245 0.618989 -0.557706 1.67405 380.284 215.114)" d="M3.28776 13.1788L15.6779 1.98902"></path>
  <path fill="#4B2713" transform="matrix(0.637293 0.0485645 -0.0485645 0.637293 394.389 152.317)" d="M3.05176e-05 -1.52588e-05C3.05176e-05 -1.52588e-05 -15.2011 -1.52588e-05 -18.2663 0C-66.355 1.3037 -126.35 32.2772 -126.35 128C-126.35 223.723 -55.9022 256 -19 256C-15.9347 256 4.57764e-05 256 4.57764e-05 256C-25.5438 256 -107.35 223.723 -107.35 128C-107.35 32.2772 -25.5438 -1.52588e-05 3.05176e-05 -1.52588e-05Z"></path>
</svg>