<?xml version="1.0" encoding="utf-8"?>
<svg xmlns="http://www.w3.org/2000/svg" xmlns:xlink="http://www.w3.org/1999/xlink" width="512" height="512">
  <path fill="none" stroke="black" stroke-width="6" stroke-linejoin="round" transform="matrix(1.8 0 0 1.52279 359.051 169.591)" d="M-12.9499 -16.9737C-9.29564 -16.9737 -6.64207 -16.9737 -3.22024 -16.9737C3.84399 -16.9737 11.0046 -12.9707 11.0046 2.73135C11.0046 18.4334 11.0046 47.7067 11.0046 56.4809C11.0046 99.4374 -52.4954 99.3952 -52.4954 56.4387C-52.4954 45.6553 -52.4954 25.833 -52.4954 13.3474C-52.4954 0.86171 -46.234 -16.9737 -30.1542 -16.9737C-28.9505 -16.9737 -27.8157 -16.9737 -26.7432 -16.9737"></path>
  <path fill="none" stroke="black" stroke-width="6" stroke-linejoin="round" transform="matrix(1.8 0 0 1.64041 359.051 251.837)" d="M-52.4947 0.0843637C-52.6283 -42.538 10.8713 -42.7371 11.005 -0.114778C11.0581 16.8048 11.1466 45.0299 11.2016 62.5645C11.2209 68.7253 2.74649 80.0675 -20.4926 80.4109C-43.7317 80.7542 -52.2759 69.8599 -52.2909 65.0579C-52.3462 47.4206 -52.4555 12.5707 -52.4947 0.0843637Z"></path>
  <path fill="#503F7E" transform="matrix(1.8 0 0 1.52279 359.051 169.591)" d="M-52.4954 13.3474C-52.4954 0.861706 -46.234 -16.9737 -30.1542 -16.9737C-14.0744 -16.9737 -10.2845 -16.9737 -3.22024 -16.9737C3.84399 -16.9737 11.0046 -12.9707 11.0046 2.73135C11.0046 18.4334 11.0046 47.7067 11.0046 56.4809C11.0046 99.4374 -52.4954 99.3952 -52.4954 56.4387C-52.4954 45.6553 -52.4954 25.833 -52.4954 13.3474Z"></path>
  <path fill="#503F7E" transform="matrix(1.8 0 0 1.64041 359.051 251.837)" d="M-52.4947 0.0843625C-52.6283 -42.538 10.8713 -42.7371 11.005 -0.114779C11.0581 16.8048 11.1466 45.0299 11.2016 62.5645C11.2209 68.7253 2.74649 80.0675 -20.4926 80.4109C-43.7317 80.7542 -52.2759 69.8599 -52.2909 65.0579C-52.3462 47.4206 -52.4555 12.5707 -52.4947 0.0843625Z"></path>
  <path fill="none" stroke="black" stroke-width="5" stroke-linejoin="round" transform="matrix(1.67985 0 0 1.8 269.501 356.202)" d="M3.26075 -15.6843C21.4775 -15.1595 34.2791 -10.6167 32.7122 36.7496C32.6853 50.8567 36.1987 65.9025 21.2077 74.0586C9.63898 73.9664 -3.28444 74.7728 -19.7491 74.5083C-30.5866 65.9001 -30.4402 50.8489 -30.4379 34.0268C-29.5167 -12.4547 -14.956 -16.2092 3.26075 -15.6843Z"></path>
  <path fill="#453279" transform="matrix(1.67985 0 0 1.8 269.501 356.202)" d="M3.26075 -15.6843C21.4775 -15.1595 34.2791 -10.6167 32.7122 36.7496C32.6853 50.8567 36.1987 65.9025 21.2077 74.0586C9.63898 73.9664 -3.28444 74.7728 -19.7491 74.5083C-30.5866 65.9001 -30.4402 50.8489 -30.4379 34.0268C-29.5167 -12.4547 -14.956 -16.2092 3.26075 -15.6843Z"></path>
  <path fill="none" stroke="black" stroke-width="5" stroke-linejoin="round" transform="matrix(1.67985 0 0 1.8 191.63 362.835)" d="M1.14441e-05 -14.3439C18.2254 -14.3439 31.1711 -10.1719 31.1712 37.2169C31.7865 56.0934 34.5752 69.036 19.1016 75.646C3.62799 76.0176 -7.05902 76.224 -21.8955 75.8837C-36.732 69.3049 -32.1706 52.8104 -32.0389 36.314C-32.655 -10.1719 -18.2254 -14.3439 1.14441e-05 -14.3439Z"></path>
  <path fill="none" stroke="black" stroke-width="5" stroke-linejoin="round" transform="matrix(1.79976 0.0276995 -0.0293645 1.69771 274.686 279.649)" d="M-11.3238 -80.2543C25.8014 -80.2543 54.9476 -94.6926 58.9092 -40.8672C62.8708 12.9582 37.0524 74.7499 0.0572928 75.3534C-14.1177 75.5847 -17.7665 75.6442 -48.2096 76.1409C-78.6526 76.6376 -84.25 60.12 -84.25 0C-86.6294 -86.0849 -88.6034 -78.4854 -12.7475 -80.2208"></path>
  <path fill="#503F7E" transform="matrix(1.67985 0 0 1.8 191.63 362.835)" d="M1.14441e-05 -14.3439C18.2254 -14.3439 31.1711 -10.1719 31.1712 37.2169C31.7865 56.0934 34.5752 69.036 19.1016 75.646C3.62799 76.0176 -7.05902 76.224 -21.8955 75.8837C-36.732 69.3049 -32.1706 52.8104 -32.0389 36.314C-32.655 -10.1719 -18.2254 -14.3439 1.14441e-05 -14.3439Z"></path>
  <path fill="none" stroke="black" stroke-width="5" stroke-linejoin="round" transform="matrix(1.53139 0 0 1.39334 225.132 125.584)" d="M0 -40C20.9426 -40 35.0096 -26.8589 47.8597 -2.20017C49.1253 -3.81498 50.3123 -3.57652 51.1974 -3.11681C52.0824 -2.6571 52.5509 -1.60561 52.2206 -0.665335C53.8523 0.0632067 55.2854 1.47333 55.8775 2.67699C56.9197 4.79567 57.6743 10.5072 53.7931 11.8212C58.5977 31.9882 20.3682 22.0914 -1.32962e-05 22.0914C-20.2357 22.0914 -45.0732 28.3281 -41.8836 12.9784C-44.6787 11.8212 -48.2008 8.95145 -46.5316 4.29176C-45.7036 1.98007 -43.8185 0.567096 -42.3936 0.567005C-41.0392 0.566917 -42.9934 -2.19999 -40.2188 -3.8149C-39.0195 -4.5129 -37.7273 -4.43211 -36.6068 -4.12355C-28.0141 -23.731 -20.4124 -40 0 -40Z"></path>
  <path fill="#503F7E" transform="matrix(1.79976 0.0276995 -0.0293645 1.69771 274.686 279.649)" d="M-11.3238 -80.2543C25.8014 -80.2543 54.9476 -94.6926 58.9092 -40.8672C62.8708 12.9582 37.0524 74.7499 0.0572928 75.3534C-14.1177 75.5847 -17.7665 75.6442 -48.2096 76.1409C-78.6526 76.6376 -84.25 60.12 -84.25 0C-86.6442 -86.62 -88.6279 -78.3873 -11.3238 -80.2543Z"></path>
  <clipPath id="cl_42d">
    <path d="M256.662 143.087C323.479 144.115 376.359 120.411 381.908 211.9C387.457 303.39 339.176 407.579 272.576 407.579C247.058 407.579 240.489 407.579 185.684 407.579C130.879 407.579 121.29 379.382 123.056 277.316C121.29 130.193 117.478 144.115 256.662 143.087Z"></path>
  </clipPath>
  <g clip-path="url(#cl_42d)">
    <path fill="#655494" transform="matrix(1.8 0 0 1.8 311.811 261.728)" d="M-0.158646 -48.2655C25.513 -48.2655 46.324 -26.6563 46.324 0C46.324 26.6563 25.513 48.2655 -0.158646 48.2655C-25.8303 48.2655 -46.6413 26.6563 -46.6413 0C-46.6413 -26.6563 -25.8303 -48.2655 -0.158646 -48.2655Z"></path>
  </g>
  <path fill="none" stroke="black" stroke-width="2" stroke-linejoin="round" transform="matrix(3.88825 -0.763212 0.691401 3.5224 231.932 47.3358)" d="M-4.34758 -5.25471C-4.34758 -11.5047 3.66088 -11.5047 3.66088 -5.25471C3.66088 0.995287 3.66088 12.5 3.66088 12.5L-4.57314 12.5C-4.57314 12.5 -4.34758 0.995288 -4.34758 -5.25471Z"></path>
  <path fill="none" stroke="black" stroke-width="2" stroke-linejoin="round" transform="matrix(3.5224 -0.691401 0.691401 3.5224 197.724 52.7486)" d="M-5.1645 -6.50117C-5.16451 -12.7512 6 -12.7512 6 -6.50117C6 -0.251166 6 12.5 6 12.5L-6 12.5C-6 12.5 -5.1645 -0.251167 -5.1645 -6.50117Z"></path>
  <path fill="#453279" transform="matrix(3.88825 -0.763212 0.691401 3.5224 231.932 47.3358)" d="M-4.34758 -5.25471C-4.34758 -11.5047 3.66088 -11.5047 3.66088 -5.25471C3.66088 0.995287 3.66088 12.5 3.66088 12.5L-4.57314 12.5C-4.57314 12.5 -4.34758 0.995288 -4.34758 -5.25471Z"></path>
  <path fill="none" stroke="#161616" stroke-width="0.5" stroke-linecap="round" stroke-linejoin="round" transform="matrix(3.88825 -0.763212 0.691401 3.5224 227.138 27.8041)" d="M3.83021e-06 1.51652L3.11543e-06 10.5382"></path>
  <path fill="#503F7E" transform="matrix(3.5224 -0.691401 0.691401 3.5224 197.724 52.7486)" d="M-5.1645 -6.50117C-5.1645 -12.7512 6 -12.7512 6 -6.50117C6 -0.251166 6 12.5 6 12.5L-6 12.5C-6 12.5 -5.1645 -0.251167 -5.1645 -6.50117Z"></path>
  <path fill="none" stroke="#161616" stroke-width="0.5" stroke-linecap="round" stroke-linejoin="round" transform="matrix(3.5224 -0.691401 0.691401 3.5224 197.938 32.7301)" d="M1.85391e-08 7.65589e-06L3.83324e-06 10.5382"></path>
  <path fill="#503F7E" transform="matrix(1.53139 0 0 1.39334 225.132 125.584)" d="M0 -40C20.9426 -40 35.0096 -26.8589 47.8597 -2.20017C49.1253 -3.81498 50.3123 -3.57652 51.1974 -3.11681C52.0824 -2.6571 52.5509 -1.60561 52.2206 -0.665335C53.8523 0.0632067 55.2854 1.47333 55.8775 2.67699C56.9197 4.79567 57.6743 10.5072 53.7931 11.8212C58.5977 31.9882 20.3682 22.0914 -1.32962e-05 22.0914C-20.2357 22.0914 -45.0732 28.3281 -41.8836 12.9784C-44.6787 11.8212 -48.2008 8.95145 -46.5316 4.29176C-45.7036 1.98007 -43.8185 0.567096 -42.3936 0.567005C-41.0392 0.566917 -42.9934 -2.19999 -40.2188 -3.8149C-39.0195 -4.5129 -37.7273 -4.43211 -36.6068 -4.12355C-28.0141 -23.731 -20.4124 -40 0 -40Z"></path>
  <clipPath id="cl_42e">
    <path d="M225.132 69.8503C257.204 69.8503 278.746 88.1603 298.424 122.518C300.362 120.268 302.18 120.601 303.535 121.241C304.891 121.882 305.608 123.347 305.102 124.657C307.601 125.672 309.796 127.637 310.702 129.314C312.298 132.266 313.454 140.224 307.51 142.055C314.868 170.155 256.324 156.365 225.132 156.365C194.144 156.365 156.108 165.055 160.992 143.667C156.712 142.055 151.318 138.056 153.874 131.564C155.143 128.343 158.029 126.374 160.211 126.374C162.286 126.374 159.293 122.519 163.542 120.269C165.378 119.296 167.357 119.409 169.073 119.838C182.232 92.5185 193.873 69.8503 225.132 69.8503Z"></path>
  </clipPath>
  <g clip-path="url(#cl_42e)">
    <path fill="#7463A5" transform="matrix(1.8 2.98023e-08 0.00759348 1.8 221.877 110.441)" d="M0 -5.5C3.86599 -5.5 7 -2.92564 7 0.25C7 3.42564 3.86599 6 0 6C-3.86599 6 -7 3.42564 -7 0.25C-7 -2.92564 -3.86599 -5.5 0 -5.5Z"></path>
    <path fill="#7463A5" transform="matrix(1.83618 3.04014e-08 0.00759348 1.8 274.425 102.295)" d="M-9.53674e-07 -5.00001C2.76142 -5.00001 5 -2.6495 5 0.249992C5 3.14949 2.76142 5.49999 -9.53674e-07 5.49999C-2.76142 5.49999 -5 3.14949 -5 0.249992C-5 -2.6495 -2.76142 -5.00001 -9.53674e-07 -5.00001Z"></path>
    <path fill="none" stroke="#131212" stroke-width="1" stroke-linecap="round" stroke-linejoin="round" transform="matrix(2.30699 -0.373724 0.274137 1.69224 252.656 95.5994)" d="M1.44192e-06 7.21529e-06L2.92891 -0.71456"></path>
    <path fill="none" stroke="#131212" stroke-width="1" stroke-linecap="round" stroke-linejoin="round" transform="matrix(2.30699 -0.373724 0.274137 1.69224 230.906 94.7697)" d="M5.96046e-08 -1.48459e-07L4.25731 1.79213"></path>
    <path fill="#131212" transform="matrix(2.47104 -0.400299 0.405754 2.50471 244.691 97.8799)" d="M4.54078e-07 -4.03018e-06L1.9614 0.352734L0.91509 1.42246L4.54078e-07 -4.03018e-06Z"></path>
    <path fill="none" stroke="#131212" stroke-width="0.5" stroke-linecap="round" stroke-linejoin="round" transform="matrix(1.93759 -0.313883 0.31816 1.96399 247.75 101.415)" d="M1.18428e-07 -0.711224L-3.72341e-06 1.1102"></path>
    <path fill="#32225E" transform="matrix(1.74285 0.441491 -0.424043 1.74552 241.538 90.0143)" d="M-1.93607e-06 -1.92716C1.6285 -1.92716 2.94867 -1.06435 2.94867 -7.67333e-06C2.94867 1.06433 1.6285 1.92715 -1.87863e-06 1.92715C-1.62851 1.92715 -2.94867 1.06433 -2.94867 -7.58546e-06C-2.94867 -1.06435 -1.62851 -1.92716 -1.93607e-06 -1.92716Z"></path>
    <path fill="#32225E" transform="matrix(1.71213 0.433708 -0.412468 1.69787 252.731 89.1394)" d="M-5.72205e-06 -1.89919C0.889983 -1.89919 1.61146 -1.04889 1.61146 -2.40127e-08C1.61146 1.04889 0.889983 1.89919 -5.72205e-06 1.89919C-0.889995 1.89919 -1.61147 1.04889 -1.61147 2.40127e-08C-1.61147 -1.04889 -0.889995 -1.89919 -5.72205e-06 -1.89919Z"></path>
  </g>
  <path fill="none" stroke="black" stroke-width="6" stroke-linejoin="round" transform="matrix(1.8 0 0 1.8 170.253 262.174)" d="M-9.60381 29.8994C-47.2679 17.2687 -27.0781 -42.9361 10.5859 -30.3054C26.6276 -24.9258 52.7749 -17.8898 69.593 -12.9285C75.5021 -11.1853 83.9474 0.178516 77.6313 22.5455C71.3151 44.9124 58.4325 49.9846 53.8267 48.6259C36.91 43.6355 2.23461 33.8694 -9.60381 29.8994Z"></path>
  <path fill="none" stroke="black" stroke-width="6" stroke-linecap="round" stroke-linejoin="bevel" transform="matrix(1.8 0 0 1.67094 170.253 171.927)" d="M32.1533 38.3286C32.1626 46.2098 32.1706 52.9917 32.1747 56.4987C32.2253 99.4552 -31.2747 99.4998 -31.3253 56.5433C-31.338 45.76 -31.3614 25.9377 -31.3761 13.4521C-31.3908 0.966423 -25.1504 -16.8776 -9.07062 -16.8996C-7.29787 -16.902 -5.67449 -16.9042 -4.17963 -16.9062"></path>
  <path fill="#503F7E" transform="matrix(1.8 0 0 1.67094 170.253 171.927)" d="M-31.3761 13.4521C-31.3908 0.966419 -25.1504 -16.8776 -9.07062 -16.8996C7.00917 -16.9215 10.7991 -16.9267 17.8633 -16.9364C24.9276 -16.946 32.0929 -12.9528 32.1114 2.74925C32.1299 18.4513 32.1644 47.7246 32.1747 56.4987C32.2192 94.2837 -31.2808 94.3283 -31.3253 56.5433C-31.338 45.76 -31.3614 25.9377 -31.3761 13.4521Z"></path>
  <path fill="none" stroke="black" stroke-width="4" stroke-linejoin="round" transform="matrix(1.8 0 0 1.8 352.172 164.528)" d="M-11.7479 -12.9046C-11.318 -13.5165 -10.7601 -14.1187 -10.0572 -14.7065C-5.47351 -18.5399 3.93804 -16.1165 4.43081 -14.7065C7.46665 -16.1165 10.8961 -16.6614 15.0174 -13.9738C19.1387 -11.2862 16.2386 -4.86793 16.6118 -4.55444C16.985 -4.24095 25.2116 0.494543 17.5976 8.33766C16.6439 8.92035 15.7365 9.39702 14.8735 9.77867"></path>
  <path fill="#7463A5" transform="matrix(1.8 0 0 1.8 352.172 164.528)" d="M-0.116451 0C-2.60164 -0.66394 -7.05858 1.11792 -10.0572 -2.65576C-13.0559 -6.42944 -14.6409 -10.8732 -10.0572 -14.7065C-5.47351 -18.5399 3.93804 -16.1165 4.43081 -14.7065C7.46665 -16.1165 10.8961 -16.6614 15.0174 -13.9738C19.1387 -11.2862 16.2386 -4.86793 16.6118 -4.55444C16.985 -4.24095 25.2116 0.494543 17.5976 8.33766C2.9012 17.3171 -0.809982 1.11792 -0.116451 0Z"></path>
  <path fill="#503F7E" transform="matrix(1.8 0 0 1.8 170.253 262.174)" d="M-9.60381 29.8994C-48.8322 16.7441 -28.6424 -43.4607 10.5859 -30.3054C26.6276 -24.9259 52.7749 -17.8898 69.593 -12.9285C75.5021 -11.1853 83.9474 0.178515 77.6313 22.5455C71.3151 44.9124 58.4325 49.9846 53.8267 48.6259C36.91 43.6355 2.23461 33.8694 -9.60381 29.8994Z"></path>
  <path fill="#312F2F" transform="matrix(0.514126 0.151665 -0.18084 0.613023 275.601 283.501)" d="M-3.8147e-06 -128C70.6924 -128 128 -70.6925 128 -3.8147e-06C128 70.6924 70.6925 128 3.8147e-06 128C-70.6924 128 -128 70.6924 -128 -3.8147e-06C-128 -70.6925 -70.6925 -128 -3.8147e-06 -128Z"></path>
  <path fill="none" stroke="black" stroke-width="7" stroke-miterlimit="4" transform="translate(256 256)" d="M54.396 -47.5305C90.7408 -36.8089 109.841 7.01353 97.0566 50.3497C84.2726 93.6858 44.4458 120.125 8.10104 109.404C-28.2438 98.6819 -47.3435 54.8595 -34.5595 11.5234C-21.7755 -31.8128 18.0512 -58.2521 54.396 -47.5305Z"></path>
  <path fill="none" stroke="black" stroke-width="7" stroke-linejoin="round" transform="translate(256 256)" d="M54.396 -47.5305C54.396 -47.5305 45.0774 -50.2795 43.1983 -50.8338C13.4831 -58.7309 -28.8965 -50.5929 -46.207 8.08741C-63.5175 66.7677 -26.1683 99.2942 -3.5464 105.968C-1.66734 106.522 8.10104 109.404 8.10104 109.404C7.58781 109.252 7.04381 109.069 6.4722 108.853"></path>
  <path fill="#8D5A3E" transform="matrix(0.514126 0.151665 -0.18084 0.613023 287.249 286.937)" d="M-3.8147e-06 -128C70.6924 -128 128 -70.6925 128 -3.8147e-06C128 70.6924 70.6925 128 3.8147e-06 128C-70.6924 128 -128 70.6924 -128 -3.8147e-06C-128 -70.6925 -70.6925 -128 -3.8147e-06 -128Z"></path>
  <path fill="#4B2713" transform="matrix(0.514126 0.151665 -0.18084 0.613023 290.771 287.309)" d="M0.249997 -87.5C51.4744 -87.5 93 -48.4369 93 -0.250006C93 47.9368 51.4744 87 0.250003 87C-50.9744 87 -92.5 47.9368 -92.5 -0.250006C-92.5 -48.4369 -50.9744 -87.5 0.249997 -87.5Z"></path>
  <path fill="#693920" transform="matrix(0.514126 0.151665 -0.18084 0.613023 287.249 286.937)" d="M-2.563e-06 -86C47.4965 -86 86 -47.4965 86 -3.8147e-06C86 47.4965 47.4965 86 2.563e-06 86C-47.4965 86 -86 47.4965 -86 -3.8147e-06C-86 -47.4965 -47.4965 -86 -2.563e-06 -86Z"></path>
  <path fill="#1F0D04" transform="matrix(1.2321 0.896649 -0.895646 1.52029 271.032 290.447)" d="M0 -6.1709C3.40809 -6.1709 6.1709 -3.40809 6.1709 -9.53674e-07C6.1709 3.40809 3.40809 6.1709 0 6.1709C-3.40809 6.1709 -6.1709 3.40809 -6.1709 -9.53674e-07C-6.1709 -3.40809 -3.40809 -6.1709 0 -6.1709Z"></path>
  <clipPath id="cl_436">
    <path d="M276.559 281.065C280.758 284.121 281.687 290.799 278.635 295.98C275.582 301.161 269.704 302.884 265.505 299.828C261.306 296.773 260.376 290.095 263.428 284.914C266.481 279.732 272.359 278.009 276.559 281.065Z"></path>
  </clipPath>
  <g clip-path="url(#cl_436)">
    <path fill="#2F1507" transform="matrix(1.2321 0.896649 -0.895646 1.52029 268.195 291.895)" d="M0 -6.1709C3.40809 -6.1709 6.1709 -3.40809 6.1709 0C6.1709 3.40809 3.40809 6.1709 0 6.1709C-3.40809 6.1709 -6.1709 3.40809 -6.1709 0C-6.1709 -3.40809 -3.40809 -6.1709 0 -6.1709Z"></path>
  </g>
  <path fill="#1F0D04" transform="matrix(1.2321 0.896649 -0.895646 1.52029 284.257 267.998)" d="M0 -6.1709C3.40809 -6.1709 6.1709 -3.40809 6.1709 -9.53674e-07C6.1709 3.40809 3.40809 6.1709 0 6.1709C-3.40809 6.1709 -6.1709 3.40809 -6.1709 -9.53674e-07C-6.1709 -3.40809 -3.40809 -6.1709 0 -6.1709Z"></path>
  <clipPath id="cl_437">
    <path d="M289.784 258.616C293.983 261.672 294.913 268.35 291.86 273.531C288.808 278.712 282.929 280.435 278.73 277.379C274.531 274.323 273.601 267.646 276.654 262.465C279.706 257.283 285.585 255.56 289.784 258.616Z"></path>
  </clipPath>
  <g clip-path="url(#cl_437)">
    <path fill="#2F1507" transform="matrix(1.2321 0.896649 -0.895646 1.52029 280.734 270.61)" d="M0 -6.1709C3.40809 -6.1709 6.1709 -3.40809 6.1709 -4.76837e-07C6.1709 3.40809 3.40809 6.1709 0 6.1709C-3.40809 6.1709 -6.1709 3.40809 -6.1709 -4.76837e-07C-6.1709 -3.40809 -3.40809 -6.1709 0 -6.1709Z"></path>
  </g>
  <path fill="#1F0D04" transform="matrix(1.2321 0.896649 -0.895646 1.52029 290.433 304.566)" d="M-3.8147e-06 -6.1709C3.40809 -6.1709 6.17089 -3.40809 6.17089 -9.53674e-07C6.17089 3.40809 3.40809 6.1709 -3.8147e-06 6.1709C-3.4081 6.1709 -6.1709 3.40809 -6.1709 -9.53674e-07C-6.1709 -3.40809 -3.4081 -6.1709 -3.8147e-06 -6.1709Z"></path>
  <clipPath id="cl_438">
    <path d="M295.96 295.184C300.159 298.24 301.089 304.918 298.036 310.099C294.984 315.28 289.105 317.003 284.906 313.947C280.707 310.892 279.777 304.214 282.83 299.033C285.882 293.851 291.761 292.128 295.96 295.184Z"></path>
  </clipPath>
  <g clip-path="url(#cl_438)">
    <path fill="#2F1507" transform="matrix(1.2321 0.896649 -0.895646 1.52029 288.357 305.481)" d="M0 -6.1709C3.40809 -6.1709 6.1709 -3.4081 6.1709 -1.90735e-06C6.1709 3.40809 3.40809 6.1709 0 6.1709C-3.40809 6.1709 -6.1709 3.40809 -6.1709 -1.90735e-06C-6.1709 -3.4081 -3.40809 -6.1709 0 -6.1709Z"></path>
  </g>
  <path fill="#1F0D04" transform="matrix(1.2321 0.896649 -0.895646 1.52029 303.658 282.117)" d="M0 -6.1709C3.40809 -6.1709 6.1709 -3.40809 6.1709 -1.19209e-06C6.1709 3.40809 3.40809 6.1709 0 6.1709C-3.40809 6.1709 -6.1709 3.40809 -6.1709 -1.19209e-06C-6.1709 -3.40809 -3.40809 -6.1709 0 -6.1709Z"></path>
  <clipPath id="cl_439">
    <path d="M309.185 272.735C313.384 275.791 314.314 282.469 311.262 287.65C308.209 292.831 302.331 294.554 298.131 291.498C293.932 288.442 293.003 281.765 296.055 276.584C299.108 271.402 304.986 269.679 309.185 272.735Z"></path>
  </clipPath>
  <g clip-path="url(#cl_439)">
    <path fill="#2F1507" transform="matrix(1.2321 0.896649 -0.895645 1.52029 299.664 283.3)" d="M-3.8147e-06 -6.1709C3.40809 -6.1709 6.17089 -3.40809 6.17089 -2.38419e-07C6.17089 3.40809 3.40809 6.1709 -3.8147e-06 6.1709C-3.4081 6.1709 -6.1709 3.40809 -6.1709 -2.38419e-07C-6.1709 -3.40809 -3.4081 -6.1709 -3.8147e-06 -6.1709Z"></path>
  </g>
  <path fill="none" stroke="#E3CEC2" stroke-width="4" stroke-linecap="round" stroke-linejoin="round" transform="matrix(1.2321 0.896649 -0.895646 1.52029 283.464 266.925)" d="M2.42519 2.41434L15.2044 14.4568"></path>
  <path fill="none" stroke="#C8AD9D" stroke-width="4" stroke-linecap="round" stroke-linejoin="round" transform="matrix(1.2321 0.896649 -0.895646 1.52029 283.464 266.925)" d="M3.28776 13.1788L15.6779 1.98902"></path>
  <path fill="#4B2713" transform="matrix(0.613023 0.18084 -0.18084 0.613023 310.396 208.47)" d="M0 0C0 0 -15.2012 0 -18.2664 -1.52588e-05C-66.3551 1.30369 -126.35 32.2772 -126.35 128C-126.35 223.723 -55.9022 256 -19 256C-15.9348 256 1.90735e-06 256 -9.53674e-07 256C-25.5439 256 -107.35 223.723 -107.35 128C-107.35 32.2772 -25.5439 0 0 0Z"></path>
</svg>