<?xml version="1.0" encoding="utf-8"?>
<svg xmlns="http://www.w3.org/2000/svg" xmlns:xlink="http://www.w3.org/1999/xlink" width="512" height="512">
  <path fill="none" stroke="black" stroke-width="6" stroke-linejoin="round" transform="matrix(1.8 0 0 1.52279 359.051 169.591)" d="M-14.5091 -16.9737C-10.8548 -16.9737 -8.20128 -16.9737 -4.77945 -16.9737C2.28478 -16.9737 9.44541 -12.9707 9.44541 2.73135C9.44541 18.4334 9.44541 47.7067 9.44541 56.4809C9.44541 99.4374 -54.0546 99.3952 -54.0546 56.4387C-54.0546 45.6553 -54.0546 25.833 -54.0546 13.3474C-54.0546 0.86171 -47.7932 -16.9737 -31.7134 -16.9737C-30.5097 -16.9737 -29.3749 -16.9737 -28.3024 -16.9737"></path>
  <path fill="none" stroke="black" stroke-width="6" stroke-linejoin="round" transform="matrix(1.8 0 0 1.64041 359.051 251.837)" d="M-54.0551 -0.194333C-53.8129 -42.8162 9.68605 -42.4554 9.44387 0.166467C9.34773 17.0859 9.18736 45.3106 9.08773 62.845C9.05273 69.0058 0.478645 80.2728 -22.7626 80.4112C-46.0038 80.5497 -54.4516 69.5804 -54.4243 64.7785C-54.3241 47.1413 -54.126 12.2918 -54.0551 -0.194333Z"></path>
  <path fill="#503F7E" transform="matrix(1.8 0 0 1.52279 359.051 169.591)" d="M-54.0546 13.3474C-54.0546 0.861706 -47.7932 -16.9737 -31.7134 -16.9737C-15.6336 -16.9737 -11.8437 -16.9737 -4.77945 -16.9737C2.28478 -16.9737 9.44541 -12.9707 9.44541 2.73135C9.44541 18.4334 9.44541 47.7067 9.44541 56.4809C9.44541 99.4374 -54.0546 99.3952 -54.0546 56.4387C-54.0546 45.6553 -54.0546 25.833 -54.0546 13.3474Z"></path>
  <path fill="#503F7E" transform="matrix(1.8 0 0 1.64041 359.051 251.837)" d="M-54.0551 -0.194334C-53.8129 -42.8162 9.68605 -42.4554 9.44387 0.166466C9.34773 17.0859 9.18736 45.3106 9.08773 62.845C9.05273 69.0058 0.478645 80.2728 -22.7626 80.4112C-46.0038 80.5497 -54.4516 69.5804 -54.4243 64.7785C-54.3241 47.1413 -54.126 12.2918 -54.0551 -0.194334Z"></path>
  <path fill="none" stroke="black" stroke-width="5" stroke-linejoin="round" transform="matrix(1.67985 0 0 1.8 269.501 356.202)" d="M11.3017 -15.6838C29.5236 -15.3527 42.3799 -10.9464 41.3915 36.4335C41.5368 50.5399 45.293 65.6283 30.2987 74.08C18.73 73.9879 5.80658 74.7943 -10.6581 74.5298C-21.4958 65.8403 -21.5847 51.2036 -21.7877 34.3825C-21.4342 -12.1057 -6.92029 -16.0148 11.3017 -15.6838Z"></path>
  <path fill="#453279" transform="matrix(1.67985 0 0 1.8 269.501 356.202)" d="M11.3017 -15.6838C29.5236 -15.3527 42.3799 -10.9464 41.3915 36.4335C41.5368 50.5399 45.293 65.6283 30.2987 74.08C18.73 73.9879 5.80658 74.7943 -10.6581 74.5298C-21.4958 65.8403 -21.5847 51.2036 -21.7877 34.3825C-21.4342 -12.1057 -6.92029 -16.0148 11.3017 -15.6838Z"></path>
  <path fill="none" stroke="black" stroke-width="5" stroke-linejoin="round" transform="matrix(1.67985 0 0 1.8 191.63 362.835)" d="M-2.24505 -14.3295C15.9749 -14.7435 29.0257 -10.8668 30.2614 36.508C31.3689 55.3649 34.4391 68.7833 19.1042 75.6263C3.63058 75.9979 -7.05643 76.2043 -21.8929 75.8639C-36.8597 69.5412 -32.6549 53.5355 -32.9535 37.041C-34.7816 -9.41711 -20.465 -13.9156 -2.24505 -14.3295Z"></path>
  <path fill="none" stroke="black" stroke-width="5" stroke-linejoin="round" transform="matrix(1.79976 0.0276995 -0.0293645 1.69771 273.967 279.649)" d="M-11.3238 -80.2543C25.8014 -80.2543 54.9476 -94.6926 58.9092 -40.8672C62.8708 12.9582 37.0524 74.7499 0.0572928 75.3534C-14.1177 75.5847 -17.7665 75.6442 -48.2096 76.1409C-78.6526 76.6376 -84.25 60.12 -84.25 9.53674e-07C-86.6294 -86.0849 -88.6034 -78.4854 -12.7475 -80.2208"></path>
  <path fill="#503F7E" transform="matrix(1.67985 0 0 1.8 191.63 362.835)" d="M-2.24505 -14.3295C15.9749 -14.7435 29.0257 -10.8668 30.2614 36.508C31.3689 55.3649 34.4391 68.7833 19.1042 75.6263C3.63058 75.9979 -7.05643 76.2043 -21.8929 75.8639C-36.8597 69.5412 -32.6549 53.5355 -32.9535 37.041C-34.7816 -9.41711 -20.465 -13.9156 -2.24505 -14.3295Z"></path>
  <path fill="none" stroke="black" stroke-width="5" stroke-linejoin="round" transform="matrix(1.53139 0 0 1.39334 228.249 125.584)" d="M1.90735e-06 -40C20.9426 -40 35.0096 -26.8589 47.8597 -2.20017C49.1253 -3.81498 50.3123 -3.57652 51.1974 -3.11681C52.0824 -2.6571 52.5509 -1.60561 52.2206 -0.665335C53.8523 0.0632067 55.2854 1.47333 55.8775 2.67699C56.9197 4.79567 57.6743 10.5072 53.7931 11.8212C58.5977 31.9882 20.3682 22.0914 -1.13888e-05 22.0914C-20.2357 22.0914 -45.0732 28.3281 -41.8836 12.9784C-44.6787 11.8212 -48.2008 8.95145 -46.5316 4.29176C-45.7036 1.98007 -43.8185 0.567096 -42.3936 0.567005C-41.0392 0.566917 -42.9934 -2.19999 -40.2188 -3.8149C-39.0195 -4.5129 -37.7273 -4.43211 -36.6068 -4.12355C-28.0141 -23.731 -20.4124 -40 1.90735e-06 -40Z"></path>
  <path fill="#503F7E" transform="matrix(1.79976 0.0276995 -0.0293645 1.69771 273.967 279.649)" d="M-11.3238 -80.2543C25.8014 -80.2543 54.9476 -94.6926 58.9092 -40.8672C62.8708 12.9582 37.0524 74.7499 0.0572928 75.3534C-14.1177 75.5847 -17.7665 75.6442 -48.2096 76.1409C-78.6526 76.6376 -84.25 60.12 -84.25 9.53674e-07C-86.6442 -86.62 -88.6279 -78.3873 -11.3238 -80.2543Z"></path>
  <clipPath id="cl_16f">
    <path d="M255.943 143.087C322.76 144.115 375.64 120.411 381.189 211.9C386.739 303.39 338.457 407.579 271.857 407.579C246.339 407.579 239.77 407.579 184.965 407.579C130.16 407.579 120.572 379.382 122.337 277.316C120.572 130.193 116.76 144.115 255.943 143.087Z"></path>
  </clipPath>
  <g clip-path="url(#cl_16f)">
    <path fill="#655494" transform="matrix(1.8 0 0 1.8 311.092 261.728)" d="M-0.158644 -48.2655C25.513 -48.2655 46.324 -26.6563 46.324 0C46.324 26.6563 25.513 48.2655 -0.158644 48.2655C-25.8303 48.2655 -46.6413 26.6563 -46.6413 0C-46.6413 -26.6563 -25.8303 -48.2655 -0.158644 -48.2655Z"></path>
  </g>
  <path fill="none" stroke="black" stroke-width="2" stroke-linejoin="round" transform="matrix(3.88825 -0.763212 0.691401 3.5224 235.048 47.3358)" d="M-4.34758 -5.25471C-4.34758 -11.5047 3.66088 -11.5047 3.66088 -5.25471C3.66088 0.995287 3.66088 12.5 3.66088 12.5L-4.57314 12.5C-4.57314 12.5 -4.34758 0.995288 -4.34758 -5.25471Z"></path>
  <path fill="none" stroke="black" stroke-width="2" stroke-linejoin="round" transform="matrix(3.5224 -0.691401 0.691401 3.5224 200.84 52.7486)" d="M-5.1645 -6.50116C-5.16451 -12.7512 6 -12.7512 6 -6.50116C6 -0.251162 6 12.5 6 12.5L-6 12.5C-6 12.5 -5.1645 -0.251163 -5.1645 -6.50116Z"></path>
  <path fill="#453279" transform="matrix(3.88825 -0.763212 0.691401 3.5224 235.048 47.3358)" d="M-4.34758 -5.25471C-4.34758 -11.5047 3.66088 -11.5047 3.66088 -5.25471C3.66088 0.995287 3.66088 12.5 3.66088 12.5L-4.57314 12.5C-4.57314 12.5 -4.34758 0.995288 -4.34758 -5.25471Z"></path>
  <path fill="none" stroke="#161616" stroke-width="0.5" stroke-linecap="round" stroke-linejoin="round" transform="matrix(3.88825 -0.763212 0.691401 3.5224 230.255 27.8041)" d="M4.54547e-06 1.51652L3.83069e-06 10.5382"></path>
  <path fill="#503F7E" transform="matrix(3.5224 -0.691401 0.691401 3.5224 200.84 52.7486)" d="M-5.1645 -6.50117C-5.1645 -12.7512 6 -12.7512 6 -6.50117C6 -0.25117 6 12.5 6 12.5L-6 12.5C-6 12.5 -5.1645 -0.251171 -5.1645 -6.50117Z"></path>
  <path fill="none" stroke="#161616" stroke-width="0.5" stroke-linecap="round" stroke-linejoin="round" transform="matrix(3.5224 -0.691401 0.691401 3.5224 201.055 32.7301)" d="M1.21063e-06 2.6499e-08L5.02533e-06 10.5382"></path>
  <path fill="#503F7E" transform="matrix(1.53139 0 0 1.39334 228.249 125.584)" d="M1.90735e-06 -40C20.9426 -40 35.0096 -26.8589 47.8597 -2.20017C49.1253 -3.81498 50.3123 -3.57652 51.1974 -3.11681C52.0824 -2.6571 52.5509 -1.60561 52.2206 -0.665335C53.8523 0.0632067 55.2854 1.47333 55.8775 2.67699C56.9197 4.79567 57.6743 10.5072 53.7931 11.8212C58.5977 31.9882 20.3682 22.0914 -1.13888e-05 22.0914C-20.2357 22.0914 -45.0732 28.3281 -41.8836 12.9784C-44.6787 11.8212 -48.2008 8.95145 -46.5316 4.29176C-45.7036 1.98007 -43.8185 0.567096 -42.3936 0.567005C-41.0392 0.566917 -42.9934 -2.19999 -40.2188 -3.8149C-39.0195 -4.5129 -37.7273 -4.43211 -36.6068 -4.12355C-28.0141 -23.731 -20.4124 -40 1.90735e-06 -40Z"></path>
  <clipPath id="cl_170">
    <path d="M228.249 69.8503C260.32 69.8503 281.862 88.1603 301.541 122.518C303.479 120.268 305.296 120.601 306.652 121.241C308.007 121.882 308.724 123.347 308.219 124.657C310.718 125.672 312.912 127.637 313.819 129.314C315.415 132.266 316.57 140.224 310.627 142.055C317.985 170.155 259.44 156.365 228.249 156.365C197.26 156.365 159.224 165.055 164.109 143.667C159.829 142.055 154.435 138.056 156.991 131.564C158.259 128.343 161.146 126.374 163.328 126.374C165.402 126.374 162.409 122.519 166.658 120.269C168.495 119.296 170.474 119.409 172.19 119.838C185.349 92.5185 196.99 69.8503 228.249 69.8503Z"></path>
  </clipPath>
  <g clip-path="url(#cl_170)">
    <path fill="#7463A5" transform="matrix(1.8 2.98023e-08 0.00759348 1.8 231.959 110.441)" d="M0 -5.5C3.86599 -5.5 7 -2.92564 7 0.25C7 3.42564 3.86599 6 0 6C-3.86599 6 -7 3.42564 -7 0.25C-7 -2.92564 -3.86599 -5.5 0 -5.5Z"></path>
    <path fill="#7463A5" transform="matrix(1.83618 3.04014e-08 0.00759348 1.8 284.508 102.295)" d="M0 -5.00001C2.76142 -5.00001 5 -2.6495 5 0.249992C5 3.14949 2.76142 5.49999 0 5.49999C-2.76142 5.49999 -5 3.14949 -5 0.249992C-5 -2.6495 -2.76142 -5.00001 0 -5.00001Z"></path>
    <path fill="none" stroke="#131212" stroke-width="1" stroke-linecap="round" stroke-linejoin="round" transform="matrix(2.30699 -0.373724 0.274137 1.69224 262.739 95.5994)" d="M2.39559e-06 7.21529e-06L2.92892 -0.71456"></path>
    <path fill="none" stroke="#131212" stroke-width="1" stroke-linecap="round" stroke-linejoin="round" transform="matrix(2.30699 -0.373724 0.274137 1.69224 240.989 94.7697)" d="M4.76837e-07 -7.77785e-06L4.25731 1.79212"></path>
    <path fill="#131212" transform="matrix(2.47104 -0.400299 0.405754 2.50471 254.773 97.8799)" d="M4.54078e-07 -4.03018e-06L1.9614 0.352734L0.91509 1.42246L4.54078e-07 -4.03018e-06Z"></path>
    <path fill="none" stroke="#131212" stroke-width="0.5" stroke-linecap="round" stroke-linejoin="round" transform="matrix(1.93759 -0.313883 0.31816 1.96399 257.833 101.415)" d="M-8.35247e-07 -0.711232L-4.67709e-06 1.11019"></path>
    <path fill="#32225E" transform="matrix(1.74285 0.441491 -0.424043 1.74552 251.621 90.0143)" d="M-2.87169e-08 -1.92716C1.62851 -1.92716 2.94867 -1.06434 2.94867 -4.39386e-08C2.94867 1.06434 1.62851 1.92716 2.87169e-08 1.92716C-1.62851 1.92716 -2.94867 1.06434 -2.94867 4.39386e-08C-2.94867 -1.06434 -1.62851 -1.92716 -2.87169e-08 -1.92716Z"></path>
    <path fill="#32225E" transform="matrix(1.71213 0.433708 -0.412468 1.69787 262.814 89.1394)" d="M-5.72205e-06 -1.89919C0.889983 -1.89919 1.61146 -1.04889 1.61146 -2.40127e-08C1.61146 1.04889 0.889983 1.89919 -5.72205e-06 1.89919C-0.889995 1.89919 -1.61147 1.04889 -1.61147 2.40127e-08C-1.61147 -1.04889 -0.889995 -1.89919 -5.72205e-06 -1.89919Z"></path>
  </g>
  <path fill="none" stroke="black" stroke-width="6" stroke-linejoin="round" transform="matrix(1.8 0 0 1.8 170.253 262.174)" d="M56.4307 7.32892C16.9753 2.70431 24.3676 -60.3639 63.823 -55.7393C80.6277 -53.7696 107.663 -52.2546 125.141 -50.8538C131.282 -50.3616 141.882 -40.9749 140.295 -17.7875C138.708 5.39993 127.142 13.0102 122.355 12.6266C104.774 11.2175 68.8322 8.78251 56.4307 7.32892Z"></path>
  <path fill="none" stroke="black" stroke-width="6" stroke-linecap="round" stroke-linejoin="bevel" transform="matrix(1.8 0 0 1.67094 170.253 171.927)" d="M63.3651 -9.87292C69.9594 -5.56506 75.6851 -1.82466 78.5865 0.0708008C112.683 22.3452 79.7229 80.8132 45.6262 58.5388C37.0669 52.9472 21.333 42.6687 11.4225 36.1945C1.51197 29.7202 -9.39816 14.7046 -1.06023 -0.106514C-0.380733 -1.31354 0.25644 -2.44539 0.855658 -3.50981"></path>
  <path fill="#503F7E" transform="matrix(1.8 0 0 1.67094 170.253 171.927)" d="M11.4225 36.1945C1.51199 29.7202 -9.39815 14.7046 -1.06022 -0.106518C7.27771 -14.9176 9.24291 -18.4085 12.906 -24.9154C16.569 -31.4223 23.4594 -35.9422 35.9229 -27.8002C48.3864 -19.6581 71.6221 -4.47888 78.5866 0.0708008C108.578 19.6636 75.618 78.1316 45.6262 58.5388C37.0669 52.9472 21.333 42.6687 11.4225 36.1945Z"></path>
  <path fill="none" stroke="black" stroke-width="4" stroke-linejoin="round" transform="matrix(1.8 0 0 1.8 358.66 164.528)" d="M-11.7479 -12.9046C-11.318 -13.5165 -10.7601 -14.1187 -10.0572 -14.7065C-5.47351 -18.5399 3.93804 -16.1165 4.43081 -14.7065C7.46664 -16.1165 10.8961 -16.6614 15.0174 -13.9738C19.1387 -11.2862 16.2386 -4.86793 16.6118 -4.55444C16.985 -4.24095 25.2116 0.494543 17.5976 8.33766C16.6439 8.92035 15.7365 9.39702 14.8735 9.77867"></path>
  <path fill="#7463A5" transform="matrix(1.8 0 0 1.8 358.66 164.528)" d="M-0.116455 0C-2.60165 -0.66394 -7.05858 1.11792 -10.0572 -2.65576C-13.0559 -6.42944 -14.6409 -10.8732 -10.0572 -14.7065C-5.47351 -18.5399 3.93804 -16.1165 4.43081 -14.7065C7.46664 -16.1165 10.8961 -16.6614 15.0174 -13.9738C19.1387 -11.2862 16.2386 -4.86793 16.6118 -4.55444C16.985 -4.24095 25.2116 0.494543 17.5976 8.33766C2.9012 17.3171 -0.809986 1.11792 -0.116455 0Z"></path>
  <path fill="#503F7E" transform="matrix(1.8 0 0 1.8 170.253 262.174)" d="M56.4307 7.32892C15.3366 2.51222 22.7289 -60.556 63.823 -55.7393C80.6277 -53.7696 107.663 -52.2546 125.141 -50.8538C131.282 -50.3616 141.882 -40.9749 140.295 -17.7875C138.708 5.39993 127.142 13.0102 122.355 12.6266C104.774 11.2175 68.8322 8.78251 56.4307 7.32892Z"></path>
  <path fill="#312F2F" transform="matrix(0.534316 0.0428226 -0.0510601 0.637098 385.174 218.376)" d="M1.52588e-05 -128C70.6925 -128 128 -70.6924 128 0C128 70.6924 70.6925 128 1.52588e-05 128C-70.6924 128 -128 70.6924 -128 0C-128 -70.6924 -70.6924 -128 1.52588e-05 -128Z"></path>
  <path fill="none" stroke="black" stroke-width="7" stroke-miterlimit="4" transform="translate(256 256)" d="M147.814 -118.203C185.586 -115.175 213.281 -76.2109 209.671 -31.1729C206.061 13.8651 172.515 47.9215 134.743 44.8943C96.9707 41.8671 69.2765 2.9025 72.8861 -42.1355C76.4956 -87.1735 110.042 -121.23 147.814 -118.203Z"></path>
  <path fill="none" stroke="black" stroke-width="7" stroke-linejoin="round" transform="translate(256 256)" d="M147.814 -118.203C147.814 -118.203 138.13 -118.979 136.177 -119.135C105.473 -120.76 65.6688 -104.09 60.7812 -43.1057C55.8936 17.8792 99.1276 42.0399 122.638 43.9242C124.591 44.0807 134.743 44.8943 134.743 44.8943C134.209 44.8516 133.639 44.7836 133.036 44.6901"></path>
  <path fill="#8D5A3E" transform="matrix(0.534316 0.0428226 -0.0510601 0.637098 397.279 219.346)" d="M0 -128C70.6924 -128 128 -70.6924 128 0C128 70.6924 70.6924 128 0 128C-70.6924 128 -128 70.6924 -128 0C-128 -70.6924 -70.6924 -128 0 -128Z"></path>
  <path fill="#4B2713" transform="matrix(0.534316 0.0428226 -0.0510601 0.637098 400.803 218.987)" d="M0.25 -87.5C51.4744 -87.5 93 -48.4368 93 -0.25C93 47.9368 51.4744 87 0.25 87C-50.9744 87 -92.5 47.9368 -92.5 -0.25C-92.5 -48.4368 -50.9744 -87.5 0.25 -87.5Z"></path>
  <path fill="#693920" transform="matrix(0.534316 0.0428226 -0.0510601 0.637098 397.279 219.346)" d="M0 -86C47.4965 -86 86 -47.4965 86 0C86 47.4965 47.4965 86 0 86C-47.4965 86 -86 47.4965 -86 0C-86 -47.4965 -47.4965 -86 0 -86Z"></path>
  <path fill="#1F0D04" transform="matrix(1.39001 0.624437 -0.564258 1.67185 382.129 226.112)" d="M-7.8133e-06 -6.17089C3.40808 -6.17089 6.17089 -3.40809 6.17089 3.8147e-06C6.17089 3.4081 3.40809 6.1709 -7.44549e-06 6.1709C-3.4081 6.1709 -6.17091 3.4081 -6.17091 3.8147e-06C-6.17091 -3.40809 -3.4081 -6.17089 -7.8133e-06 -6.17089Z"></path>
  <clipPath id="cl_178">
    <path d="M385.611 215.796C390.348 217.924 392.629 224.268 390.706 229.966C388.783 235.664 383.384 238.557 378.647 236.429C373.909 234.301 371.628 227.957 373.551 222.259C375.474 216.561 380.873 213.667 385.611 215.796Z"></path>
  </clipPath>
  <g clip-path="url(#cl_178)">
    <path fill="#2F1507" transform="matrix(1.39001 0.624437 -0.564258 1.67185 379.65 228.112)" d="M-7.8133e-06 -6.1709C3.40808 -6.1709 6.17089 -3.40809 6.17089 0C6.17089 3.40809 3.40809 6.1709 -7.44549e-06 6.1709C-3.4081 6.1709 -6.17091 3.40809 -6.17091 0C-6.17091 -3.40809 -3.4081 -6.1709 -7.8133e-06 -6.1709Z"></path>
  </g>
  <path fill="#1F0D04" transform="matrix(1.39001 0.624437 -0.564258 1.67185 390.461 201.425)" d="M-7.8133e-06 -6.1709C3.40808 -6.1709 6.17089 -3.4081 6.17089 -3.8147e-06C6.17089 3.40809 3.40809 6.17089 -7.44549e-06 6.17089C-3.4081 6.17089 -6.17091 3.40809 -6.17091 -3.8147e-06C-6.17091 -3.4081 -3.4081 -6.1709 -7.8133e-06 -6.1709Z"></path>
  <clipPath id="cl_179">
    <path d="M393.943 191.108C398.68 193.237 400.961 199.581 399.038 205.279C397.115 210.976 391.716 213.87 386.979 211.742C382.241 209.614 379.96 203.27 381.883 197.572C383.806 191.874 389.205 188.98 393.943 191.108Z"></path>
  </clipPath>
  <g clip-path="url(#cl_179)">
    <path fill="#2F1507" transform="matrix(1.39001 0.624437 -0.564258 1.67185 387.55 204.706)" d="M-7.8133e-06 -6.17089C3.40808 -6.17089 6.17089 -3.40809 6.17089 3.8147e-06C6.17089 3.4081 3.40809 6.1709 -7.44549e-06 6.1709C-3.4081 6.1709 -6.17091 3.4081 -6.17091 3.8147e-06C-6.17091 -3.40809 -3.4081 -6.17089 -7.8133e-06 -6.17089Z"></path>
  </g>
  <path fill="#1F0D04" transform="matrix(1.39001 0.624437 -0.564258 1.67185 404.016 235.945)" d="M-1.83907e-07 -6.1709C3.40809 -6.1709 6.1709 -3.40809 6.1709 0C6.1709 3.40809 3.40809 6.1709 1.83907e-07 6.1709C-3.40809 6.1709 -6.1709 3.40809 -6.1709 0C-6.1709 -3.40809 -3.40809 -6.1709 -1.83907e-07 -6.1709Z"></path>
  <clipPath id="cl_17a">
    <path d="M407.498 225.628C412.236 227.756 414.517 234.101 412.594 239.798C410.671 245.496 405.272 248.39 400.534 246.262C395.797 244.134 393.516 237.79 395.439 232.092C397.362 226.394 402.761 223.5 407.498 225.628Z"></path>
  </clipPath>
  <g clip-path="url(#cl_17a)">
    <path fill="#2F1507" transform="matrix(1.39001 0.624437 -0.564258 1.67185 402.172 237.267)" d="M-1.83907e-07 -6.17089C3.40809 -6.17089 6.1709 -3.40809 6.1709 3.8147e-06C6.1709 3.4081 3.40809 6.1709 1.83907e-07 6.1709C-3.40809 6.1709 -6.1709 3.4081 -6.1709 3.8147e-06C-6.1709 -3.40809 -3.40809 -6.17089 -1.83907e-07 -6.17089Z"></path>
  </g>
  <path fill="#1F0D04" transform="matrix(1.39001 0.624437 -0.564258 1.67185 412.348 211.258)" d="M-7.8133e-06 -6.17089C3.40808 -6.17089 6.17089 -3.40809 6.17089 3.8147e-06C6.17089 3.4081 3.40809 6.1709 -7.44549e-06 6.1709C-3.4081 6.1709 -6.17091 3.4081 -6.17091 3.8147e-06C-6.17091 -3.40809 -3.4081 -6.17089 -7.8133e-06 -6.17089Z"></path>
  <clipPath id="cl_17b">
    <path d="M415.83 200.941C420.568 203.069 422.849 209.413 420.926 215.111C419.003 220.809 413.604 223.703 408.866 221.575C404.129 219.447 401.848 213.102 403.771 207.405C405.694 201.707 411.093 198.813 415.83 200.941Z"></path>
  </clipPath>
  <g clip-path="url(#cl_17b)">
    <path fill="#2F1507" transform="matrix(1.39001 0.624437 -0.564258 1.67185 408.682 213.237)" d="M-1.83907e-07 -6.1709C3.40809 -6.1709 6.1709 -3.4081 6.1709 -3.8147e-06C6.1709 3.40809 3.40809 6.17089 1.83907e-07 6.17089C-3.40809 6.17089 -6.1709 3.40809 -6.1709 -3.8147e-06C-6.1709 -3.4081 -3.40809 -6.1709 -1.83907e-07 -6.1709Z"></path>
  </g>
  <path fill="none" stroke="#E3CEC2" stroke-width="4" stroke-linecap="round" stroke-linejoin="round" transform="matrix(1.39001 0.624437 -0.564258 1.67185 389.464 200.538)" d="M2.42519 2.41434L15.2044 14.4568"></path>
  <path fill="none" stroke="#C8AD9D" stroke-width="4" stroke-linecap="round" stroke-linejoin="round" transform="matrix(1.39001 0.624437 -0.564258 1.67185 389.464 200.538)" d="M3.28776 13.1788L15.6779 1.98902"></path>
  <path fill="#4B2713" transform="matrix(0.637098 0.0510601 -0.0510601 0.637098 403.814 137.797)" d="M0 -1.52588e-05C0 -1.52588e-05 -15.2012 0 -18.2664 0C-66.3551 1.30368 -126.35 32.2772 -126.35 128C-126.35 223.723 -55.9022 256 -19 256C-15.9348 256 0 256 0 256C-25.5439 256 -107.35 223.723 -107.35 128C-107.35 32.2772 -25.5439 0 0 -1.52588e-05Z"></path>
</svg>