<?xml version="1.0" encoding="utf-8"?>
<svg xmlns="http://www.w3.org/2000/svg" xmlns:xlink="http://www.w3.org/1999/xlink" width="512" height="512">
  <path fill="none" stroke="black" stroke-width="6" stroke-linejoin="round" transform="matrix(1.8 0 0 1.52279 359.051 169.591)" d="M-12.9682 -16.9737C-9.314 -16.9737 -6.66043 -16.9737 -3.2386 -16.9737C3.82563 -16.9737 10.9863 -12.9707 10.9863 2.73135C10.9863 18.4334 10.9863 47.7067 10.9863 56.4809C10.9863 99.4374 -52.5137 99.3952 -52.5137 56.4387C-52.5137 45.6553 -52.5137 25.833 -52.5137 13.3474C-52.5137 0.86171 -46.2524 -16.9737 -30.1726 -16.9737C-28.9689 -16.9737 -27.834 -16.9737 -26.7615 -16.9737"></path>
  <path fill="none" stroke="black" stroke-width="6" stroke-linejoin="round" transform="matrix(1.8 0 0 1.64041 359.051 251.837)" d="M-52.5131 0.0827301C-52.6445 -42.5396 10.8552 -42.7355 10.9866 -0.113147C11.0388 16.8065 11.1259 45.0316 11.18 62.5661C11.199 68.7269 2.72402 80.0687 -20.5151 80.4109C-43.7542 80.7531 -52.2978 69.8583 -52.3126 65.0563C-52.367 47.419 -52.4745 12.569 -52.5131 0.0827301Z"></path>
  <path fill="#503F7E" transform="matrix(1.8 0 0 1.52279 359.051 169.591)" d="M-52.5137 13.3474C-52.5137 0.861706 -46.2524 -16.9737 -30.1726 -16.9737C-14.0928 -16.9737 -10.3028 -16.9737 -3.2386 -16.9737C3.82563 -16.9737 10.9863 -12.9707 10.9863 2.73135C10.9863 18.4334 10.9863 47.7067 10.9863 56.4809C10.9863 99.4374 -52.5137 99.3952 -52.5137 56.4387C-52.5137 45.6553 -52.5137 25.833 -52.5137 13.3474Z"></path>
  <path fill="#503F7E" transform="matrix(1.8 0 0 1.64041 359.051 251.837)" d="M-52.5131 0.0827289C-52.6445 -42.5396 10.8552 -42.7355 10.9866 -0.113148C11.0388 16.8065 11.1259 45.0316 11.18 62.5661C11.199 68.7269 2.72402 80.0687 -20.5151 80.4109C-43.7542 80.7531 -52.2978 69.8583 -52.3126 65.0563C-52.367 47.419 -52.4745 12.569 -52.5131 0.0827289Z"></path>
  <path fill="none" stroke="black" stroke-width="5" stroke-linejoin="round" transform="matrix(1.67985 0 0 1.8 269.501 356.202)" d="M3.29783 -15.6843C21.5143 -15.1527 34.314 -10.6052 32.727 36.7605C32.694 50.8676 36.1989 65.9119 21.2081 74.0577C9.63942 73.9655 -3.284 74.7719 -19.7487 74.5074C-30.5861 65.902 -30.4315 50.8364 -30.422 34.0143C-29.4809 -12.4669 -14.9187 -16.2159 3.29783 -15.6843Z"></path>
  <path fill="#453279" transform="matrix(1.67985 0 0 1.8 269.501 356.202)" d="M3.29783 -15.6843C21.5143 -15.1527 34.314 -10.6052 32.727 36.7605C32.694 50.8676 36.1989 65.9119 21.2081 74.0577C9.63942 73.9655 -3.284 74.7719 -19.7487 74.5074C-30.5861 65.902 -30.4315 50.8364 -30.422 34.0143C-29.4809 -12.4669 -14.9187 -16.2159 3.29783 -15.6843Z"></path>
  <path fill="none" stroke="black" stroke-width="5" stroke-linejoin="round" transform="matrix(1.67985 0 0 1.8 191.63 362.835)" d="M1.14441e-05 -14.3439C18.2254 -14.3439 31.1711 -10.1719 31.1712 37.2169C31.7865 56.0934 34.5752 69.036 19.1016 75.646C3.62799 76.0176 -7.05902 76.224 -21.8955 75.8837C-36.732 69.3049 -32.1706 52.8104 -32.0389 36.314C-32.655 -10.1719 -18.2254 -14.3439 1.14441e-05 -14.3439Z"></path>
  <path fill="none" stroke="black" stroke-width="5" stroke-linejoin="round" transform="matrix(1.79976 0.0276995 -0.0293645 1.69771 274.698 279.649)" d="M-11.3238 -80.2543C25.8014 -80.2543 54.9476 -94.6926 58.9092 -40.8672C62.8708 12.9582 37.0524 74.7499 0.0572919 75.3534C-14.1177 75.5847 -17.7665 75.6442 -48.2096 76.1409C-78.6526 76.6376 -84.25 60.12 -84.25 0C-86.6294 -86.0849 -88.6034 -78.4854 -12.7475 -80.2208"></path>
  <path fill="#503F7E" transform="matrix(1.67985 0 0 1.8 191.63 362.835)" d="M1.14441e-05 -14.3439C18.2254 -14.3439 31.1711 -10.1719 31.1712 37.2169C31.7865 56.0934 34.5752 69.036 19.1016 75.646C3.62799 76.0176 -7.05902 76.224 -21.8955 75.8837C-36.732 69.3049 -32.1706 52.8104 -32.0389 36.314C-32.655 -10.1719 -18.2254 -14.3439 1.14441e-05 -14.3439Z"></path>
  <path fill="none" stroke="black" stroke-width="5" stroke-linejoin="round" transform="matrix(1.53139 0 0 1.39334 225.151 125.584)" d="M1.90735e-06 -40C20.9426 -40 35.0096 -26.8589 47.8597 -2.20017C49.1253 -3.81498 50.3123 -3.57652 51.1974 -3.11681C52.0824 -2.6571 52.5509 -1.60561 52.2206 -0.665335C53.8523 0.0632067 55.2854 1.47333 55.8775 2.67699C56.9197 4.79567 57.6743 10.5072 53.7931 11.8212C58.5977 31.9882 20.3682 22.0914 -1.13888e-05 22.0914C-20.2357 22.0914 -45.0732 28.3281 -41.8836 12.9784C-44.6787 11.8212 -48.2008 8.95145 -46.5316 4.29176C-45.7036 1.98007 -43.8185 0.567096 -42.3936 0.567005C-41.0392 0.566917 -42.9934 -2.19999 -40.2188 -3.8149C-39.0195 -4.5129 -37.7273 -4.43211 -36.6068 -4.12355C-28.0141 -23.731 -20.4124 -40 1.90735e-06 -40Z"></path>
  <path fill="#503F7E" transform="matrix(1.79976 0.0276995 -0.0293645 1.69771 274.698 279.649)" d="M-11.3238 -80.2543C25.8014 -80.2543 54.9476 -94.6926 58.9092 -40.8672C62.8708 12.9582 37.0524 74.7499 0.0572919 75.3534C-14.1177 75.5847 -17.7665 75.6442 -48.2096 76.1409C-78.6526 76.6376 -84.25 60.12 -84.25 0C-86.6442 -86.62 -88.6279 -78.3873 -11.3238 -80.2543Z"></path>
  <clipPath id="cl_420">
    <path d="M256.674 143.087C323.491 144.115 376.371 120.411 381.92 211.9C387.47 303.39 339.188 407.579 272.588 407.579C247.07 407.579 240.501 407.579 185.696 407.579C130.892 407.579 121.303 379.382 123.068 277.316C121.303 130.193 117.491 144.115 256.674 143.087Z"></path>
  </clipPath>
  <g clip-path="url(#cl_420)">
    <path fill="#655494" transform="matrix(1.8 0 0 1.8 311.824 261.728)" d="M-0.158644 -48.2655C25.513 -48.2655 46.324 -26.6563 46.324 0C46.324 26.6563 25.513 48.2655 -0.158644 48.2655C-25.8303 48.2655 -46.6413 26.6563 -46.6413 0C-46.6413 -26.6563 -25.8303 -48.2655 -0.158644 -48.2655Z"></path>
  </g>
  <path fill="none" stroke="black" stroke-width="2" stroke-linejoin="round" transform="matrix(3.88825 -0.763212 0.691401 3.5224 231.95 47.3358)" d="M-4.34758 -5.25471C-4.34758 -11.5047 3.66088 -11.5047 3.66088 -5.25472C3.66088 0.995284 3.66088 12.5 3.66088 12.5L-4.57314 12.5C-4.57314 12.5 -4.34758 0.995284 -4.34758 -5.25471Z"></path>
  <path fill="none" stroke="black" stroke-width="2" stroke-linejoin="round" transform="matrix(3.5224 -0.691401 0.691401 3.5224 197.742 52.7486)" d="M-5.1645 -6.50117C-5.16451 -12.7512 6 -12.7512 6 -6.50117C6 -0.251166 6 12.5 6 12.5L-6 12.5C-6 12.5 -5.1645 -0.251167 -5.1645 -6.50117Z"></path>
  <path fill="#453279" transform="matrix(3.88825 -0.763212 0.691401 3.5224 231.95 47.3358)" d="M-4.34758 -5.25471C-4.34758 -11.5047 3.66088 -11.5047 3.66088 -5.25472C3.66088 0.995284 3.66088 12.5 3.66088 12.5L-4.57314 12.5C-4.57314 12.5 -4.34758 0.995284 -4.34758 -5.25471Z"></path>
  <path fill="none" stroke="#161616" stroke-width="0.5" stroke-linecap="round" stroke-linejoin="round" transform="matrix(3.88825 -0.763212 0.691401 3.5224 227.157 27.8041)" d="M4.06863e-06 1.51651L3.35385e-06 10.5382"></path>
  <path fill="#503F7E" transform="matrix(3.5224 -0.691401 0.691401 3.5224 197.742 52.7486)" d="M-5.1645 -6.50117C-5.1645 -12.7512 6 -12.7512 6 -6.50117C6 -0.251166 6 12.5 6 12.5L-6 12.5C-6 12.5 -5.1645 -0.251167 -5.1645 -6.50117Z"></path>
  <path fill="none" stroke="#161616" stroke-width="0.5" stroke-linecap="round" stroke-linejoin="round" transform="matrix(3.5224 -0.691401 0.691401 3.5224 197.956 32.7301)" d="M9.72213e-07 2.6499e-08L4.78691e-06 10.5382"></path>
  <path fill="#503F7E" transform="matrix(1.53139 0 0 1.39334 225.151 125.584)" d="M1.90735e-06 -40C20.9426 -40 35.0096 -26.8589 47.8597 -2.20017C49.1253 -3.81498 50.3123 -3.57652 51.1974 -3.11681C52.0824 -2.6571 52.5509 -1.60561 52.2206 -0.665335C53.8523 0.0632067 55.2854 1.47333 55.8775 2.67699C56.9197 4.79567 57.6743 10.5072 53.7931 11.8212C58.5977 31.9882 20.3682 22.0914 -1.13888e-05 22.0914C-20.2357 22.0914 -45.0732 28.3281 -41.8836 12.9784C-44.6787 11.8212 -48.2008 8.95145 -46.5316 4.29176C-45.7036 1.98007 -43.8185 0.567096 -42.3936 0.567005C-41.0392 0.566917 -42.9934 -2.19999 -40.2188 -3.8149C-39.0195 -4.5129 -37.7273 -4.43211 -36.6068 -4.12355C-28.0141 -23.731 -20.4124 -40 1.90735e-06 -40Z"></path>
  <clipPath id="cl_421">
    <path d="M225.151 69.8503C257.222 69.8503 278.764 88.1603 298.442 122.518C300.38 120.268 302.198 120.601 303.553 121.241C304.909 121.882 305.626 123.347 305.12 124.657C307.619 125.672 309.814 127.637 310.721 129.314C312.317 132.266 313.472 140.224 307.528 142.055C314.886 170.155 256.342 156.365 225.15 156.365C194.162 156.365 156.126 165.055 161.011 143.667C156.73 142.055 151.337 138.056 153.893 131.564C155.161 128.343 158.048 126.374 160.23 126.374C162.304 126.374 159.311 122.519 163.56 120.269C165.397 119.296 167.375 119.409 169.091 119.838C182.25 92.5185 193.891 69.8503 225.151 69.8503Z"></path>
  </clipPath>
  <g clip-path="url(#cl_421)">
    <path fill="#7463A5" transform="matrix(1.8 2.98023e-08 0.00759348 1.8 221.926 110.441)" d="M0 -5.5C3.86599 -5.5 7 -2.92564 7 0.25C7 3.42564 3.86599 6 0 6C-3.86599 6 -7 3.42564 -7 0.25C-7 -2.92564 -3.86599 -5.5 0 -5.5Z"></path>
    <path fill="#7463A5" transform="matrix(1.83618 3.04014e-08 0.00759348 1.8 274.474 102.295)" d="M-9.53674e-07 -5.00001C2.76142 -5.00001 5 -2.6495 5 0.249992C5 3.14949 2.76142 5.49999 -9.53674e-07 5.49999C-2.76142 5.49999 -5 3.14949 -5 0.249992C-5 -2.6495 -2.76142 -5.00001 -9.53674e-07 -5.00001Z"></path>
    <path fill="none" stroke="#131212" stroke-width="1" stroke-linecap="round" stroke-linejoin="round" transform="matrix(2.30699 -0.373724 0.274137 1.69224 252.706 95.5994)" d="M1.44192e-06 7.21529e-06L2.92891 -0.71456"></path>
    <path fill="none" stroke="#131212" stroke-width="1" stroke-linecap="round" stroke-linejoin="round" transform="matrix(2.30699 -0.373724 0.274137 1.69224 230.955 94.7697)" d="M1.49012e-07 -1.48459e-07L4.25731 1.79213"></path>
    <path fill="#131212" transform="matrix(2.47104 -0.400299 0.405754 2.50471 244.74 97.8799)" d="M-2.27592e-08 -2.15485e-07L1.9614 0.352738L0.91509 1.42246L-2.27592e-08 -2.15485e-07Z"></path>
    <path fill="none" stroke="#131212" stroke-width="0.5" stroke-linecap="round" stroke-linejoin="round" transform="matrix(1.93759 -0.313883 0.31816 1.96399 247.8 101.415)" d="M1.18428e-07 -0.711224L-3.72341e-06 1.1102"></path>
    <path fill="#32225E" transform="matrix(1.74285 0.441491 -0.424043 1.74552 241.588 90.0143)" d="M-2.87169e-08 -1.92715C1.62851 -1.92715 2.94867 -1.06433 2.94867 7.58546e-06C2.94867 1.06435 1.62851 1.92716 2.87169e-08 1.92716C-1.62851 1.92716 -2.94867 1.06435 -2.94867 7.67333e-06C-2.94867 -1.06433 -1.62851 -1.92715 -2.87169e-08 -1.92715Z"></path>
    <path fill="#32225E" transform="matrix(1.71213 0.433708 -0.412468 1.69787 252.781 89.1394)" d="M-5.72205e-06 -1.89919C0.889983 -1.89919 1.61146 -1.04889 1.61146 -2.40127e-08C1.61146 1.04889 0.889983 1.89919 -5.72205e-06 1.89919C-0.889995 1.89919 -1.61147 1.04889 -1.61147 2.40127e-08C-1.61147 -1.04889 -0.889995 -1.89919 -5.72205e-06 -1.89919Z"></path>
  </g>
  <path fill="none" stroke="black" stroke-width="6" stroke-linejoin="round" transform="matrix(1.8 0 0 1.8 170.253 262.174)" d="M-9.91022 29.6823C-47.297 16.2531 -25.8308 -43.5086 11.556 -30.0793C27.4796 -24.3596 53.4712 -16.7688 70.1799 -11.4508C76.0506 -9.5823 84.2522 1.95866 77.4616 24.1862C70.671 46.4137 57.6834 51.2106 53.1075 49.7542C36.3008 44.405 1.84105 33.9033 -9.91022 29.6823Z"></path>
  <path fill="none" stroke="black" stroke-width="6" stroke-linecap="round" stroke-linejoin="bevel" transform="matrix(1.8 0 0 1.67094 170.253 171.927)" d="M32.4276 38.1945C32.465 46.0764 32.4973 52.8589 32.514 56.3661C32.7183 99.3221 -30.7811 99.6304 -30.9854 56.6744C-31.0367 45.8912 -31.131 26.0692 -31.1903 13.5837C-31.2497 1.09821 -25.0733 -16.7716 -8.99368 -16.8603C-7.22358 -16.8701 -5.60242 -16.879 -4.10943 -16.8873"></path>
  <path fill="#503F7E" transform="matrix(1.8 0 0 1.67094 170.253 171.927)" d="M-31.1903 13.5837C-31.2497 1.09821 -25.0733 -16.7716 -8.99368 -16.8603C7.08592 -16.9491 10.8758 -16.97 17.9399 -17.009C25.0041 -17.048 32.1836 -13.0845 32.2583 2.61734C32.333 18.3192 32.4722 47.5921 32.514 56.3661C32.6937 94.1507 -30.8057 94.459 -30.9854 56.6744C-31.0367 45.8912 -31.131 26.0692 -31.1903 13.5837Z"></path>
  <path fill="none" stroke="black" stroke-width="4" stroke-linejoin="round" transform="matrix(1.8 0 0 1.8 352.215 164.528)" d="M-11.7479 -12.9046C-11.318 -13.5165 -10.7601 -14.1187 -10.0572 -14.7065C-5.47351 -18.5399 3.93804 -16.1165 4.43081 -14.7065C7.46664 -16.1165 10.8961 -16.6614 15.0174 -13.9738C19.1387 -11.2862 16.2386 -4.86793 16.6118 -4.55444C16.985 -4.24095 25.2116 0.494543 17.5976 8.33766C16.6439 8.92035 15.7365 9.39702 14.8735 9.77867"></path>
  <path fill="#7463A5" transform="matrix(1.8 0 0 1.8 352.215 164.528)" d="M-0.116455 0C-2.60165 -0.66394 -7.05858 1.11792 -10.0572 -2.65576C-13.0559 -6.42944 -14.6409 -10.8732 -10.0572 -14.7065C-5.47351 -18.5399 3.93804 -16.1165 4.43081 -14.7065C7.46664 -16.1165 10.8961 -16.6614 15.0174 -13.9738C19.1387 -11.2862 16.2386 -4.86793 16.6118 -4.55444C16.985 -4.24095 25.2116 0.494543 17.5976 8.33766C2.9012 17.3171 -0.809986 1.11792 -0.116455 0Z"></path>
  <path fill="#503F7E" transform="matrix(1.8 0 0 1.8 170.253 262.174)" d="M-9.91022 29.6823C-48.8498 15.6953 -27.3836 -44.0663 11.556 -30.0794C27.4796 -24.3596 53.4712 -16.7688 70.1799 -11.4508C76.0506 -9.5823 84.2522 1.95866 77.4616 24.1862C70.671 46.4137 57.6834 51.2106 53.1075 49.7542C36.3008 44.405 1.84105 33.9033 -9.91022 29.6823Z"></path>
  <path fill="#312F2F" transform="matrix(0.510782 0.16257 -0.193843 0.609037 275.713 285.726)" d="M0 -128C70.6925 -128 128 -70.6925 128 0C128 70.6925 70.6925 128 0 128C-70.6925 128 -128 70.6925 -128 0C-128 -70.6925 -70.6925 -128 0 -128Z"></path>
  <path fill="none" stroke="black" stroke-width="7" stroke-miterlimit="4" transform="translate(256 256)" d="M56.0967 -44.5472C92.2051 -33.0547 110.368 11.1642 96.665 54.2185C82.9618 97.2728 42.5815 122.859 6.47301 111.366C-29.6354 99.8737 -47.7985 55.6548 -34.0952 12.6005C-20.392 -30.4538 19.9883 -56.0397 56.0967 -44.5472Z"></path>
  <path fill="none" stroke="black" stroke-width="7" stroke-linejoin="round" transform="translate(256 256)" d="M56.0967 -44.5472C56.0967 -44.5472 46.8386 -47.4939 44.9718 -48.088C15.4313 -56.6157 -27.1118 -49.3813 -45.6669 8.91748C-64.2221 67.2162 -27.5735 100.53 -5.09869 107.683C-3.23185 108.277 6.47301 111.366 6.47301 111.366C5.96313 111.204 5.42316 111.009 4.85628 110.781"></path>
  <path fill="#8D5A3E" transform="matrix(0.510782 0.16257 -0.193843 0.609037 287.285 289.409)" d="M7.62939e-06 -128C70.6925 -128 128 -70.6925 128 0C128 70.6925 70.6925 128 7.62939e-06 128C-70.6924 128 -128 70.6925 -128 0C-128 -70.6925 -70.6924 -128 7.62939e-06 -128Z"></path>
  <path fill="#4B2713" transform="matrix(0.510782 0.16257 -0.193843 0.609037 290.799 289.857)" d="M0.249992 -87.5C51.4744 -87.5 93 -48.4368 93 -0.25C93 47.9368 51.4744 87 0.249992 87C-50.9744 87 -92.5 47.9368 -92.5 -0.25C-92.5 -48.4368 -50.9744 -87.5 0.249992 -87.5Z"></path>
  <path fill="#693920" transform="matrix(0.510782 0.16257 -0.193843 0.609037 287.285 289.409)" d="M7.62939e-06 -86C47.4965 -86 86 -47.4965 86 0C86 47.4965 47.4965 86 7.62939e-06 86C-47.4965 86 -86 47.4965 -86 0C-86 -47.4965 -47.4965 -86 7.62939e-06 -86Z"></path>
  <path fill="#1F0D04" transform="matrix(1.21275 0.922662 -0.927791 1.50089 270.997 292.574)" d="M0 -6.1709C3.40809 -6.1709 6.1709 -3.40809 6.1709 -1.83907e-07C6.1709 3.40809 3.40809 6.1709 0 6.1709C-3.40809 6.1709 -6.1709 3.40809 -6.1709 1.83907e-07C-6.1709 -3.40809 -3.40809 -6.1709 0 -6.1709Z"></path>
  <clipPath id="cl_429">
    <path d="M276.722 283.312C280.855 286.457 281.643 293.152 278.481 298.268C275.319 303.383 269.405 304.98 265.272 301.836C261.139 298.691 260.351 291.995 263.513 286.88C266.675 281.765 272.589 280.168 276.722 283.312Z"></path>
  </clipPath>
  <g clip-path="url(#cl_429)">
    <path fill="#2F1507" transform="matrix(1.21275 0.922662 -0.927791 1.50089 268.13 293.961)" d="M0 -6.1709C3.40809 -6.1709 6.1709 -3.40809 6.1709 -1.83907e-07C6.1709 3.40809 3.40809 6.1709 0 6.1709C-3.40809 6.1709 -6.1709 3.40809 -6.1709 1.83907e-07C-6.1709 -3.40809 -3.40809 -6.1709 0 -6.1709Z"></path>
  </g>
  <path fill="#1F0D04" transform="matrix(1.21275 0.922662 -0.927791 1.50089 284.697 270.411)" d="M-1.90735e-06 -6.1709C3.40809 -6.1709 6.1709 -3.40809 6.1709 -6.60744e-07C6.1709 3.40809 3.40809 6.1709 -1.90735e-06 6.1709C-3.40809 6.1709 -6.1709 3.40809 -6.1709 -2.9293e-07C-6.1709 -3.40809 -3.40809 -6.1709 -1.90735e-06 -6.1709Z"></path>
  <clipPath id="cl_42a">
    <path d="M290.422 261.149C294.556 264.294 295.343 270.99 292.181 276.105C289.019 281.22 283.105 282.818 278.972 279.673C274.839 276.529 274.051 269.833 277.213 264.718C280.375 259.602 286.289 258.005 290.422 261.149Z"></path>
  </clipPath>
  <g clip-path="url(#cl_42a)">
    <path fill="#2F1507" transform="matrix(1.21275 0.922662 -0.927791 1.50089 281.12 272.949)" d="M0 -6.1709C3.40809 -6.1709 6.1709 -3.40809 6.1709 -8.39558e-07C6.1709 3.40809 3.40809 6.1709 0 6.1709C-3.40809 6.1709 -6.1709 3.40809 -6.1709 -4.71744e-07C-6.1709 -3.40809 -3.40809 -6.1709 0 -6.1709Z"></path>
  </g>
  <path fill="#1F0D04" transform="matrix(1.21275 0.922662 -0.927791 1.50089 290.093 307.103)" d="M0 -6.1709C3.40809 -6.1709 6.1709 -3.40809 6.1709 -1.83907e-07C6.1709 3.40809 3.40809 6.1709 0 6.1709C-3.40809 6.1709 -6.1709 3.40809 -6.1709 1.83907e-07C-6.1709 -3.40809 -3.40809 -6.1709 0 -6.1709Z"></path>
  <clipPath id="cl_42b">
    <path d="M295.819 297.841C299.952 300.985 300.739 307.681 297.577 312.796C294.415 317.911 288.501 319.509 284.368 316.364C280.235 313.22 279.448 306.524 282.61 301.409C285.772 296.294 291.686 294.696 295.819 297.841Z"></path>
  </clipPath>
  <g clip-path="url(#cl_42b)">
    <path fill="#2F1507" transform="matrix(1.21275 0.922662 -0.927791 1.50089 287.998 307.973)" d="M0 -6.1709C3.40809 -6.1709 6.1709 -3.4081 6.1709 -2.09126e-06C6.1709 3.40809 3.40809 6.1709 0 6.1709C-3.40809 6.1709 -6.1709 3.40809 -6.1709 -1.72344e-06C-6.1709 -3.40809 -3.40809 -6.1709 0 -6.1709Z"></path>
  </g>
  <path fill="#1F0D04" transform="matrix(1.21275 0.922662 -0.927791 1.50089 303.794 284.94)" d="M0 -6.1709C3.40809 -6.1709 6.1709 -3.40809 6.1709 2.9293e-07C6.1709 3.40809 3.40809 6.1709 0 6.1709C-3.40809 6.1709 -6.1709 3.40809 -6.1709 6.60744e-07C-6.1709 -3.40809 -3.40809 -6.1709 0 -6.1709Z"></path>
  <clipPath id="cl_42c">
    <path d="M309.519 275.678C313.652 278.823 314.439 285.518 311.277 290.634C308.115 295.749 302.201 297.346 298.068 294.202C293.935 291.057 293.148 284.361 296.31 279.246C299.472 274.131 305.386 272.534 309.519 275.678Z"></path>
  </clipPath>
  <g clip-path="url(#cl_42c)">
    <path fill="#2F1507" transform="matrix(1.21275 0.922662 -0.927791 1.50089 299.775 286.038)" d="M-3.67814e-07 -6.1709C3.40809 -6.1709 6.1709 -3.40809 6.1709 -5.45115e-08C6.1709 3.40809 3.40809 6.1709 3.67814e-07 6.1709C-3.40809 6.1709 -6.1709 3.40809 -6.1709 -4.22326e-07C-6.1709 -3.40809 -3.40809 -6.1709 -3.67814e-07 -6.1709Z"></path>
  </g>
  <path fill="none" stroke="#E3CEC2" stroke-width="4" stroke-linecap="round" stroke-linejoin="round" transform="matrix(1.21275 0.922662 -0.927791 1.50089 283.927 269.322)" d="M2.42519 2.41434L15.2044 14.4568"></path>
  <path fill="none" stroke="#C8AD9D" stroke-width="4" stroke-linecap="round" stroke-linejoin="round" transform="matrix(1.21275 0.922662 -0.927791 1.50089 283.927 269.322)" d="M3.28776 13.1788L15.6779 1.98902"></path>
  <path fill="#4B2713" transform="matrix(0.609037 0.193843 -0.193843 0.609037 312.097 211.453)" d="M0 0C0 0 -15.2012 7.62939e-06 -18.2664 7.62939e-06C-66.3551 1.3037 -126.35 32.2772 -126.35 128C-126.35 223.723 -55.9022 256 -19 256C-15.9348 256 -5.72205e-06 256 -9.53674e-06 256C-25.5439 256 -107.35 223.723 -107.35 128C-107.35 32.2772 -25.5439 7.62939e-06 0 0Z"></path>
</svg>