<?xml version="1.0" encoding="utf-8"?>
<svg xmlns="http://www.w3.org/2000/svg" xmlns:xlink="http://www.w3.org/1999/xlink" width="512" height="512">
  <path fill="none" stroke="black" stroke-width="6" stroke-linejoin="round" transform="matrix(1.8 0 0 1.52279 359.051 175.307)" d="M-12.6482 -16.8186C-9.02602 -16.7482 -6.38339 -16.6968 -2.98118 -16.6307C4.0821 -16.4934 11.1861 -12.3518 10.9677 3.34816C10.7493 19.0481 10.3422 48.3175 10.2202 57.0904C9.62275 100.041 -53.8681 98.765 -53.2707 55.8143C-53.1207 45.0324 -52.845 25.2128 -52.6714 12.7288C-52.4977 0.244831 -45.9892 -17.4665 -29.9115 -17.1541C-28.6827 -17.1302 -27.5257 -17.1077 -26.4336 -17.0865"></path>
  <path fill="none" stroke="black" stroke-width="6" stroke-linejoin="round" transform="matrix(1.8 0 0 1.64041 359.051 257.553)" d="M-52.7336 -5.92127C-44.913 -47.7972 17.5075 -35.9546 9.68692 5.92131C6.58241 22.5446 1.40352 50.2754 -1.81382 67.503C-2.94423 73.5559 -13.3857 83.0861 -36.2803 79.0177C-59.1749 74.9493 -65.5363 62.6324 -64.6552 57.9145C-61.4191 40.586 -55.0246 6.34637 -52.7336 -5.92127Z"></path>
  <path fill="#503F7E" transform="matrix(1.8 0 0 1.52279 359.051 175.307)" d="M-52.6714 12.7288C-52.4977 0.244823 -45.9892 -17.4665 -29.9115 -17.1541C-13.8339 -16.8416 -10.0445 -16.768 -2.98118 -16.6307C4.0821 -16.4934 11.1861 -12.3518 10.9677 3.34815C10.7493 19.0481 10.3422 48.3175 10.2202 57.0904C9.62275 100.041 -53.8681 98.765 -53.2707 55.8143C-53.1207 45.0324 -52.845 25.2128 -52.6714 12.7288Z"></path>
  <path fill="#503F7E" transform="matrix(1.8 0 0 1.64041 359.051 257.553)" d="M-52.7336 -5.92127C-44.913 -47.7972 17.5075 -35.9546 9.68692 5.92131C6.58241 22.5446 1.40352 50.2754 -1.81382 67.503C-2.94423 73.5559 -13.3857 83.0861 -36.2803 79.0177C-59.1749 74.9493 -65.5363 62.6324 -64.6552 57.9145C-61.4191 40.586 -55.0246 6.34637 -52.7336 -5.92127Z"></path>
  <path fill="none" stroke="black" stroke-width="5" stroke-linejoin="round" transform="matrix(1.67985 0 0 1.8 269.501 356.202)" d="M-29.2272 -14.7911C-11.9528 -20.2134 18.7221 -10.1969 17.8394 34.4476C17.9907 47.7393 11.0747 72.9546 -6.38595 76.4655C-17.1669 72.5487 -29.556 69.0232 -44.8489 63.324C-51.6174 51.4527 -41.4849 48.4209 -41.6934 32.5714C-41.4079 -11.2325 -46.5017 -9.36883 -29.2272 -14.7911Z"></path>
  <path fill="#453279" transform="matrix(1.67985 0 0 1.8 269.501 356.202)" d="M-29.2272 -14.7911C-11.9528 -20.2134 18.7221 -10.1969 17.8394 34.4476C17.9907 47.7393 11.0747 72.9546 -6.38595 76.4655C-17.1669 72.5487 -29.556 69.0232 -44.8489 63.324C-51.6174 51.4527 -41.4849 48.4209 -41.6934 32.5714C-41.4079 -11.2325 -46.5017 -9.36883 -29.2272 -14.7911Z"></path>
  <path fill="none" stroke="black" stroke-width="5" stroke-linejoin="round" transform="matrix(1.67985 0 0 1.8 191.63 362.835)" d="M25.9968 -14.3491C44.2189 -14.0257 57.0773 -9.62477 56.1118 37.7555C56.3425 56.6394 58.92 69.2061 43.3422 75.6319C27.8686 76.0034 17.1816 76.2098 2.34507 75.8695C-12.385 69.0928 -7.53624 52.2222 -7.06845 35.731C-6.73732 -10.7574 7.7747 -14.6725 25.9968 -14.3491Z"></path>
  <path fill="none" stroke="black" stroke-width="5" stroke-linejoin="round" transform="matrix(1.79976 0.0276995 -0.0293645 1.69771 274.681 285.366)" d="M-11.3238 -80.2543C25.8014 -80.2543 54.9476 -94.6926 58.9092 -40.8672C62.8708 12.9582 37.0524 74.7499 0.0572909 75.3534C-14.1177 75.5847 -17.7665 75.6442 -48.2096 76.1409C-78.6526 76.6376 -84.25 60.12 -84.25 1.90735e-06C-86.6294 -86.0849 -88.6034 -78.4854 -12.7475 -80.2208"></path>
  <path fill="#503F7E" transform="matrix(1.67985 0 0 1.8 191.63 362.835)" d="M25.9968 -14.3491C44.2189 -14.0257 57.0773 -9.62477 56.1118 37.7555C56.3425 56.6394 58.92 69.2061 43.3422 75.6319C27.8686 76.0034 17.1816 76.2098 2.34507 75.8695C-12.385 69.0928 -7.53624 52.2222 -7.06845 35.731C-6.73732 -10.7574 7.7747 -14.6725 25.9968 -14.3491Z"></path>
  <path fill="none" stroke="black" stroke-width="5" stroke-linejoin="round" transform="matrix(1.53139 0 0 1.39334 226.981 131.3)" d="M0 -40C20.9426 -40 35.0096 -26.8589 47.8597 -2.20018C49.1253 -3.81499 50.3123 -3.57653 51.1974 -3.11682C52.0824 -2.65711 52.5509 -1.60562 52.2206 -0.665342C53.8523 0.0631991 55.2854 1.47333 55.8775 2.67698C56.9197 4.79566 57.6743 10.5072 53.7931 11.8212C58.5977 31.9882 20.3682 22.0914 -1.32962e-05 22.0914C-20.2357 22.0914 -45.0732 28.3281 -41.8836 12.9784C-44.6787 11.8212 -48.2008 8.95144 -46.5316 4.29175C-45.7036 1.98006 -43.8185 0.567089 -42.3936 0.566997C-41.0392 0.56691 -42.9934 -2.2 -40.2188 -3.81491C-39.0195 -4.51291 -37.7273 -4.43211 -36.6068 -4.12355C-28.0141 -23.7311 -20.4124 -40 0 -40Z"></path>
  <path fill="#503F7E" transform="matrix(1.79976 0.0276995 -0.0293645 1.69771 274.681 285.366)" d="M-11.3238 -80.2543C25.8014 -80.2543 54.9476 -94.6926 58.9092 -40.8672C62.8708 12.9582 37.0524 74.7499 0.0572909 75.3534C-14.1177 75.5847 -17.7665 75.6442 -48.2096 76.1409C-78.6526 76.6376 -84.25 60.12 -84.25 1.90735e-06C-86.6442 -86.62 -88.6279 -78.3873 -11.3238 -80.2543Z"></path>
  <clipPath id="cl_593">
    <path d="M256.658 148.803C323.474 149.832 376.354 126.127 381.904 217.617C387.453 309.107 339.172 413.296 272.572 413.296C247.053 413.296 240.485 413.296 185.68 413.296C130.875 413.296 121.286 385.099 123.052 283.032C121.286 135.91 117.474 149.832 256.658 148.803Z"></path>
  </clipPath>
  <g clip-path="url(#cl_593)">
    <path fill="#655494" transform="matrix(1.8 0 0 1.8 311.807 267.445)" d="M-0.158648 -48.2655C25.513 -48.2655 46.324 -26.6563 46.324 0C46.324 26.6563 25.513 48.2655 -0.158648 48.2655C-25.8303 48.2655 -46.6413 26.6563 -46.6413 0C-46.6413 -26.6563 -25.8303 -48.2655 -0.158648 -48.2655Z"></path>
  </g>
  <path fill="none" stroke="black" stroke-width="2" stroke-linejoin="round" transform="matrix(3.88825 -0.763212 0.691401 3.5224 233.781 53.0522)" d="M-4.34758 -5.25471C-4.34758 -11.5047 3.66088 -11.5047 3.66088 -5.25471C3.66088 0.995291 3.66088 12.5 3.66088 12.5L-4.57314 12.5C-4.57314 12.5 -4.34758 0.995292 -4.34758 -5.25471Z"></path>
  <path fill="none" stroke="black" stroke-width="2" stroke-linejoin="round" transform="matrix(3.5224 -0.691401 0.691401 3.5224 199.573 58.465)" d="M-5.1645 -6.50117C-5.16451 -12.7512 6 -12.7512 6 -6.50117C6 -0.251166 6 12.5 6 12.5L-6 12.5C-6 12.5 -5.1645 -0.251167 -5.1645 -6.50117Z"></path>
  <path fill="#453279" transform="matrix(3.88825 -0.763212 0.691401 3.5224 233.781 53.0522)" d="M-4.34758 -5.25471C-4.34758 -11.5047 3.66088 -11.5047 3.66088 -5.25471C3.66088 0.995291 3.66088 12.5 3.66088 12.5L-4.57314 12.5C-4.57314 12.5 -4.34758 0.995292 -4.34758 -5.25471Z"></path>
  <path fill="none" stroke="#161616" stroke-width="0.5" stroke-linecap="round" stroke-linejoin="round" transform="matrix(3.88825 -0.763212 0.691401 3.5224 228.988 33.5205)" d="M3.59179e-06 1.51652L2.87701e-06 10.5382"></path>
  <path fill="#503F7E" transform="matrix(3.5224 -0.691401 0.691401 3.5224 199.573 58.465)" d="M-5.1645 -6.50117C-5.16451 -12.7512 6 -12.7512 6 -6.50117C6 -0.251166 6 12.5 6 12.5L-6 12.5C-6 12.5 -5.1645 -0.251167 -5.1645 -6.50117Z"></path>
  <path fill="none" stroke="#161616" stroke-width="0.5" stroke-linecap="round" stroke-linejoin="round" transform="matrix(3.5224 -0.691401 0.691401 3.5224 199.787 38.4465)" d="M1.85391e-08 2.6499e-08L3.83324e-06 10.5382"></path>
  <path fill="none" stroke="black" stroke-width="7" stroke-linejoin="round" transform="translate(256 256)" d="M-80.7043 -146.745L23.4611 -161.523C23.4611 -161.523 8.93091 -232.695 -38.3357 -224.608C-40.8238 -224.183 -42.9692 -223.198 -44.8635 -221.836C-45.7395 -213.289 -48.4884 -196.98 -72.5601 -195.558C-82.6104 -173.162 -80.7043 -146.745 -80.7043 -146.745Z"></path>
  <path fill="none" stroke="black" stroke-width="7" stroke-miterlimit="4" transform="translate(256 256)" d="M-37.4158 -232.141C-32.4945 -232.839 -27.939 -229.415 -27.2408 -224.494C-26.5427 -219.573 -29.9662 -215.017 -34.8875 -214.319C-39.8088 -213.621 -44.3642 -217.044 -45.0624 -221.966C-45.7606 -226.887 -42.3371 -231.442 -37.4158 -232.141Z"></path>
  <path fill="#E3CEC2" transform="matrix(0.556923 -0.0790095 0.0790095 0.556923 219.848 32.7702)" d="M-9.53674e-07 -16C8.83656 -16 16 -8.83659 16 -3.05176e-05C16 8.83653 8.83656 16 -9.53674e-07 16C-8.83656 16 -16 8.83653 -16 -3.05176e-05C-16 -8.83659 -8.83656 -16 -9.53674e-07 -16Z"></path>
  <path fill="#8D5A3E" transform="matrix(0.556923 -0.0790095 0.0790095 0.556923 167.819 110.316)" d="M13.4248 0L200.462 0C200.462 0 192.659 -128.902 107.443 -126.472C102.958 -126.344 98.9354 -125.146 95.2612 -123.223C91.5849 -108.397 82.6739 -80.3767 39.9489 -83.8848C16.6664 -46.9735 13.4248 0 13.4248 0Z"></path>
  <path fill="#4A4848" transform="matrix(0.504494 -0.0715715 0.0228078 0.160768 226.176 91.386)" d="M5.72205e-06 -116.5C64.3412 -116.5 116.5 -64.3411 116.5 0.000125542C116.5 64.3413 64.3412 116.5 5.72205e-06 116.5C-64.3412 116.5 -116.5 64.3413 -116.5 0.000118598C-116.5 -64.3411 -64.3412 -116.5 5.72205e-06 -116.5Z"></path>
  <path fill="none" stroke="black" stroke-width="7" stroke-miterlimit="4" transform="translate(256 256)" d="M-31.2787 -172.863C4.55437 -177.947 34.7925 -173.682 36.2599 -163.338C37.7274 -152.994 9.86859 -140.488 -25.9645 -135.404C-61.7976 -130.321 -92.0357 -134.585 -93.5032 -144.929C-94.9707 -155.273 -67.1119 -167.78 -31.2787 -172.863Z"></path>
  <path fill="#C9B1AA" transform="matrix(0.556923 -0.0790095 0.0228078 0.160768 227.378 101.866)" d="M-0.519166 93.3573C63.822 93.3573 81.6545 -40.5054 116.5 0C116.333 7.78602 114.666 35.3784 103.443 64.6424C92.2186 93.9064 32.9112 142.08 1.25538 142.08C-34.5183 142.08 -86.5851 95.3331 -99.0913 78.9829C-111.597 62.6327 -116.509 26.4158 -116.5 0C-66.3811 -27.319 -64.8603 93.3573 -0.519166 93.3573Z"></path>
  <path fill="#65524C" transform="matrix(0.447062 -0.0634237 0.0183086 0.129054 227.378 101.866)" d="M-9.53674e-07 -116.5C64.3412 -116.5 116.5 -64.3412 116.5 0C116.5 64.3412 64.3412 116.5 -9.53674e-07 116.5C-64.3412 116.5 -116.5 64.3412 -116.5 0C-116.5 -64.3412 -64.3412 -116.5 -9.53674e-07 -116.5Z"></path>
  <clipPath id="cl_594">
    <path d="M225.245 86.8315C254.01 82.7507 278.283 86.1739 279.461 94.4774C280.639 102.781 258.276 112.82 229.511 116.901C200.747 120.982 176.474 117.559 175.296 109.255C174.118 100.952 196.481 90.9122 225.245 86.8315Z"></path>
  </clipPath>
  <g clip-path="url(#cl_594)">
    <path fill="#857069" transform="matrix(1.7889 -0.253787 0.253787 1.7889 185.346 91.9216)" d="M6.3453 -18.4774C15.1819 -18.4774 19.9785 -8.83656 25.4977 -7.77841e-06C40.8822 25.7165 8.83656 21.8364 -1.2219e-06 19.1868C-8.83656 16.5373 -16 8.83655 -16 -7.62939e-06C-16 -8.83656 -2.49126 -18.4774 6.3453 -18.4774Z"></path>
  </g>
  <clipPath id="cl_595">
    <path d="M175.296 109.255L279.461 94.4774C279.461 94.4774 264.931 23.3055 217.664 31.3916C215.176 31.8173 213.031 32.802 211.137 34.1636C210.26 42.7108 207.512 59.0201 183.44 60.4421C173.39 82.8383 175.296 109.255 175.296 109.255Z"></path>
  </clipPath>
  <g clip-path="url(#cl_595)">
    <path fill="#65524C" transform="matrix(0.682449 -0.0968176 0.0594143 0.4188 197.489 40.9646)" d="M3.8147e-06 -50.5C11.1423 -50.5 26.7229 -45.7372 27.5442 -33.3093C28.6357 -16.7925 29.2617 -6.93543 29.2617 5.94992C29.2617 33.8403 20.7107 50.5 3.8147e-06 50.5C-20.7107 50.5 -29.0363 45.6071 -29.0363 17.7168C-29.0363 -10.1736 -20.7107 -50.5 3.8147e-06 -50.5Z"></path>
    <path fill="#714035" transform="matrix(0.298708 -0.253155 0.253155 0.298708 247.279 46.8424)" d="M-46.3835 -19.9076C-36.9946 -19.9076 -29.3835 -27.5187 -29.3835 -36.9076L29.3834 -36.9076C29.3834 -27.5187 36.9946 -19.9076 46.3834 -19.9076L46.3834 19.9076C36.9946 19.9076 29.3834 27.5187 29.3834 36.9076L-29.3835 36.9076C-29.3835 27.5187 -36.9946 19.9076 -46.3835 19.9076L-46.3835 -19.9076Z"></path>
  </g>
  <clipPath id="cl_597">
    <path d="M194.489 19.8152C202.093 18.7365 213.009 19.2227 214.308 24.348C216.034 31.1595 217.047 35.2271 217.812 40.6234C219.47 52.3039 214.624 60.1089 200.49 62.114C186.356 64.1192 180.383 62.8762 178.726 51.1957C177.069 39.5152 180.355 21.8204 194.489 19.8152Z"></path>
  </clipPath>
  <g clip-path="url(#cl_597)">
    <clipPath id="cl_598">
      <path d="M175.296 109.255L279.461 94.4774C279.461 94.4774 264.931 23.3055 217.664 31.3916C215.176 31.8173 213.031 32.802 211.137 34.1636C210.26 42.7108 207.512 59.0201 183.44 60.4421C173.39 82.8383 175.296 109.255 175.296 109.255Z"></path>
    </clipPath>
    <g clip-path="url(#cl_598)">
      <path fill="#857069" transform="matrix(1.7889 -0.253787 0.253787 1.7889 180.999 63.2796)" d="M-1.90735e-06 -16C8.83655 -16 12.0102 -8.83656 16.201 -1.21452e-06C20.3918 8.83655 8.83655 16 -1.90735e-06 16C-8.83656 16 -16 8.83656 -16 0C-16 -8.83656 -8.83656 -16 -1.90735e-06 -16Z"></path>
    </g>
  </g>
  <path fill="none" stroke="black" stroke-width="7" stroke-linejoin="round" transform="translate(256 256)" d="M-93.5032 -144.929C-95.0405 -155.765 -91.943 -158.722 -91.943 -158.722C-88.9473 -162.944 -85.2611 -166.543 -80.3362 -169.653"></path>
  <path fill="none" stroke="black" stroke-width="7" stroke-linejoin="round" transform="translate(256 256)" d="M16.9672 -183.581C24.1615 -181.865 29.2528 -179.126 32.2574 -175.553C32.2574 -175.553 36.6506 -172.126 36.3866 -164.907"></path>
  <path fill="#503F7E" transform="matrix(1.53139 0 0 1.39334 226.981 131.3)" d="M0 -40C20.9426 -40 35.0096 -26.8589 47.8597 -2.20018C49.1253 -3.81499 50.3123 -3.57653 51.1974 -3.11682C52.0824 -2.65711 52.5509 -1.60562 52.2206 -0.665342C53.8523 0.0631991 55.2854 1.47333 55.8775 2.67698C56.9197 4.79566 57.6743 10.5072 53.7931 11.8212C58.5977 31.9882 20.3682 22.0914 -1.32962e-05 22.0914C-20.2357 22.0914 -45.0732 28.3281 -41.8836 12.9784C-44.6787 11.8212 -48.2008 8.95144 -46.5316 4.29175C-45.7036 1.98006 -43.8185 0.567089 -42.3936 0.566997C-41.0392 0.56691 -42.9934 -2.2 -40.2188 -3.81491C-39.0195 -4.51291 -37.7273 -4.43211 -36.6068 -4.12355C-28.0141 -23.7311 -20.4124 -40 0 -40Z"></path>
  <path fill="#E3CEC2" transform="matrix(0.556923 -0.0790095 0.0790095 0.556923 162.497 111.071)" d="M-1.52588e-05 3.05176e-05C-1.52588e-05 -19.4564 6.19051 -23.8887 6.19051 -23.8887C25.0053 -43.7609 53.1913 -52.4203 117 -52.4203C180.809 -52.4203 217.711 -40.5794 229.005 -22.5C229.005 -22.5 236.876 -14.3388 233 3.05176e-05C233 3.05176e-05 222.592 -33.1383 117.06 -33.1383C11.5269 -33.1383 -1.52588e-05 3.05176e-05 -1.52588e-05 3.05176e-05Z"></path>
  <path fill="#C9B1AA" transform="matrix(0.556923 -0.0790095 0.0228078 0.160768 227.378 101.866)" d="M-2.86102e-06 -116.5C64.3412 -116.5 116.5 -64.3412 116.5 0C116.333 7.78602 114.079 -0.846931 92.5947 -2.56885C90.1363 -68.6432 33.7083 -93.0964 2.0524 -93.0964C-33.7213 -93.0964 -91.7603 -68.5196 -92.7458 3.01566C-107.568 13.6071 -116.5 28.5675 -116.5 0C-116.5 -64.3412 -64.3412 -116.5 -2.86102e-06 -116.5Z"></path>
  <clipPath id="cl_599">
    <path d="M194.489 19.8152C202.093 18.7365 213.009 19.2227 214.308 24.348C216.034 31.1595 217.047 35.2271 217.812 40.6234C219.47 52.3039 214.624 60.1089 200.49 62.114C186.356 64.1192 180.383 62.8762 178.726 51.1957C177.069 39.5152 180.355 21.8204 194.489 19.8152Z"></path>
  </clipPath>
  <g clip-path="url(#cl_599)">
    <path fill="#503F7E" transform="matrix(3.5224 -0.691401 0.691401 3.5224 199.573 58.465)" d="M-5.1645 -6.50116C-5.16451 -12.7512 6 -12.7512 6 -6.50116C6 -0.251162 6 12.5 6 12.5L-6 12.5C-6 12.5 -5.1645 -0.251163 -5.1645 -6.50116Z"></path>
    <path fill="none" stroke="#161616" stroke-width="0.5" stroke-linecap="round" stroke-linejoin="round" transform="matrix(3.5224 -0.691401 0.691401 3.5224 199.787 38.4465)" d="M1.85391e-08 2.6499e-08L3.83324e-06 10.5382"></path>
  </g>
  <clipPath id="cl_59b">
    <path d="M226.981 75.5667C259.053 75.5667 280.595 93.8767 300.273 128.235C302.211 125.985 304.029 126.317 305.384 126.958C306.74 127.598 307.457 129.063 306.951 130.373C309.45 131.388 311.645 133.353 312.551 135.03C314.148 137.982 315.303 145.941 309.359 147.771C316.717 175.871 258.173 162.081 226.981 162.081C195.993 162.081 157.957 170.771 162.842 149.384C158.561 147.771 153.168 143.773 155.724 137.28C156.992 134.059 159.879 132.091 162.061 132.09C164.135 132.09 161.142 128.235 165.391 125.985C167.228 125.012 169.206 125.125 170.922 125.555C184.081 98.2349 195.722 75.5667 226.981 75.5667Z"></path>
  </clipPath>
  <g clip-path="url(#cl_59b)">
    <path fill="#7463A5" transform="matrix(1.8 2.98023e-08 0.00759348 1.8 223.715 116.158)" d="M1.90735e-06 -5.49999C3.866 -5.49999 7 -2.92563 7 0.250008C7 3.42565 3.866 6.00001 1.90735e-06 6.00001C-3.86599 6.00001 -7 3.42565 -7 0.250008C-7 -2.92563 -3.86599 -5.49999 1.90735e-06 -5.49999Z"></path>
    <path fill="#7463A5" transform="matrix(1.83618 3.04014e-08 0.00759348 1.8 276.264 108.012)" d="M0 -5C2.76142 -5 5 -2.6495 5 0.25C5 3.1495 2.76142 5.5 0 5.5C-2.76142 5.5 -5 3.1495 -5 0.25C-5 -2.6495 -2.76142 -5 0 -5Z"></path>
    <path fill="none" stroke="#131212" stroke-width="1" stroke-linecap="round" stroke-linejoin="round" transform="matrix(2.30699 -0.373724 0.274137 1.69224 254.495 101.316)" d="M2.39559e-06 7.21529e-06L2.92892 -0.71456"></path>
    <path fill="none" stroke="#131212" stroke-width="1" stroke-linecap="round" stroke-linejoin="round" transform="matrix(2.30699 -0.373724 0.274137 1.69224 232.745 100.486)" d="M5.36442e-07 7.48094e-06L4.25731 1.79213"></path>
    <path fill="#131212" transform="matrix(2.47104 -0.400299 0.405754 2.50471 246.53 103.596)" d="M-4.99596e-07 3.59921e-06L1.9614 0.352742L0.915089 1.42246L-4.99596e-07 3.59921e-06Z"></path>
    <path fill="none" stroke="#131212" stroke-width="0.5" stroke-linecap="round" stroke-linejoin="round" transform="matrix(1.93759 -0.313883 0.31816 1.96399 249.589 107.132)" d="M1.18428e-07 -0.711224L-3.72341e-06 1.1102"></path>
    <path fill="#32225E" transform="matrix(1.74285 0.441491 -0.424043 1.74552 243.377 95.7307)" d="M-1.93607e-06 -1.92716C1.6285 -1.92716 2.94867 -1.06435 2.94867 -7.67333e-06C2.94867 1.06433 1.6285 1.92715 -1.87863e-06 1.92715C-1.62851 1.92715 -2.94867 1.06433 -2.94867 -7.58546e-06C-2.94867 -1.06435 -1.62851 -1.92716 -1.93607e-06 -1.92716Z"></path>
    <path fill="#32225E" transform="matrix(1.71213 0.433708 -0.412468 1.69787 254.57 94.8558)" d="M-3.8147e-06 -1.89919C0.889985 -1.89919 1.61146 -1.04889 1.61146 -2.40127e-08C1.61146 1.04889 0.889985 1.89919 -3.8147e-06 1.89919C-0.889993 1.89919 -1.61147 1.04889 -1.61147 2.40127e-08C-1.61147 -1.04889 -0.889993 -1.89919 -3.8147e-06 -1.89919Z"></path>
  </g>
  <path fill="none" stroke="black" stroke-width="4" stroke-linejoin="round" transform="matrix(1.8 0 0 1.8 352.158 170.245)" d="M-11.7479 -12.9046C-11.318 -13.5165 -10.7601 -14.1187 -10.0572 -14.7065C-5.47351 -18.5399 3.93804 -16.1165 4.43081 -14.7065C7.46664 -16.1165 10.8961 -16.6614 15.0174 -13.9738C19.1387 -11.2862 16.2386 -4.86793 16.6118 -4.55444C16.985 -4.24095 25.2116 0.494543 17.5976 8.33766C16.6439 8.92035 15.7365 9.39702 14.8735 9.77867"></path>
  <path fill="#7463A5" transform="matrix(1.8 0 0 1.8 352.158 170.245)" d="M-0.116455 0C-2.60165 -0.66394 -7.05858 1.11792 -10.0572 -2.65576C-13.0559 -6.42944 -14.6409 -10.8732 -10.0572 -14.7065C-5.47351 -18.5399 3.93804 -16.1165 4.43081 -14.7065C7.46664 -16.1165 10.8961 -16.6614 15.0174 -13.9738C19.1387 -11.2862 16.2386 -4.86793 16.6118 -4.55444C16.985 -4.24095 25.2116 0.494543 17.5976 8.33766C2.9012 17.3171 -0.809986 1.11792 -0.116455 0Z"></path>
  <path fill="none" stroke="black" stroke-width="6" stroke-linejoin="round" transform="matrix(1.8 0 0 1.8 168.878 267.891)" d="M-28.7881 1.43129C-30.5982 -38.2529 32.8358 -41.1464 34.646 -1.46211C35.4169 15.44 36.703 43.6359 37.502 61.1524C37.7827 67.3068 29.7972 78.9983 6.59362 80.3275C-16.61 81.6567 -25.6087 71.1347 -25.8275 66.3377C-26.6312 48.7186 -28.2191 13.9047 -28.7881 1.43129Z"></path>
  <path fill="none" stroke="black" stroke-width="6" stroke-linecap="round" stroke-linejoin="bevel" transform="matrix(1.8 0 0 1.67094 168.878 177.643)" d="M33.8553 36.4645C34.2467 44.3453 34.5835 51.1283 34.7575 54.634C36.8875 97.5293 -26.524 101.141 -28.6539 58.2456C-29.1886 47.4776 -30.1714 27.6837 -30.7905 15.2158C-31.4096 2.74797 -26.0415 -15.4223 -9.98465 -16.3475C-8.25059 -16.4474 -6.65966 -16.5391 -5.19229 -16.6236"></path>
  <path fill="#503F7E" transform="matrix(1.8 0 0 1.8 168.878 267.891)" d="M-28.7881 1.43129C-30.6734 -39.9012 32.7607 -42.7946 34.646 -1.46211C35.4169 15.44 36.703 43.6359 37.502 61.1524C37.7827 67.3068 29.7972 78.9983 6.59362 80.3275C-16.61 81.6567 -25.6087 71.1347 -25.8275 66.3377C-26.6312 48.7186 -28.2191 13.9047 -28.7881 1.43129Z"></path>
  <path fill="#503F7E" transform="matrix(1.8 0 0 1.67094 168.878 177.643)" d="M-30.7905 15.2158C-31.4096 2.74797 -26.0415 -15.4223 -9.98465 -16.3475C6.0722 -17.2727 9.85672 -17.4908 16.9109 -17.8972C23.965 -18.3037 31.3139 -14.7184 32.0925 0.961246C32.871 16.6409 34.3225 45.8724 34.7575 54.634C36.631 92.3651 -26.7804 95.9767 -28.6539 58.2456C-29.1886 47.4776 -30.1714 27.6837 -30.7905 15.2158Z"></path>
</svg>