<?xml version="1.0" encoding="utf-8"?>
<svg xmlns="http://www.w3.org/2000/svg" xmlns:xlink="http://www.w3.org/1999/xlink" width="512" height="512">
  <path fill="none" stroke="black" stroke-width="6" stroke-linejoin="round" transform="matrix(1.8 0 0 1.52279 359.051 178.211)" d="M-11.4919 -16.1166C-7.99556 -15.7705 -5.401 -15.5137 -2.08044 -15.185C4.95914 -14.4882 11.8122 -9.79279 10.7037 5.85452C9.59513 21.5018 7.52849 50.673 6.90906 59.4166C3.87643 102.223 -59.3991 95.9176 -56.3665 53.1109C-55.6052 42.3651 -54.2058 22.612 -53.3243 10.1699C-52.4429 -2.27224 -44.9442 -19.4279 -28.9205 -17.8417C-27.5962 -17.7107 -26.3556 -17.5879 -25.1899 -17.4725"></path>
  <path fill="none" stroke="black" stroke-width="6" stroke-linejoin="round" transform="matrix(1.8 0 0 1.64041 359.051 260.457)" d="M-55.3377 -8.48984C-44.8196 -49.6541 16.6778 -33.0135 6.15972 8.15086C1.98439 24.4917 -4.98086 51.7513 -9.30795 68.686C-10.8283 74.6361 -21.8622 83.3344 -44.4361 77.5054C-67.0101 71.6764 -72.5566 58.8989 -71.3716 54.2611C-67.0191 37.2271 -58.4191 3.56934 -55.3377 -8.48984Z"></path>
  <path fill="#503F7E" transform="matrix(1.8 0 0 1.52279 359.051 178.211)" d="M-53.3243 10.1699C-52.4429 -2.27224 -44.9442 -19.4279 -28.9205 -17.8417C-12.8967 -16.2556 -9.12004 -15.8818 -2.08044 -15.185C4.95914 -14.4882 11.8122 -9.79278 10.7037 5.85453C9.59512 21.5018 7.52849 50.673 6.90906 59.4166C3.87642 102.223 -59.3991 95.9176 -56.3665 53.1109C-55.6052 42.3651 -54.2058 22.612 -53.3243 10.1699Z"></path>
  <path fill="#503F7E" transform="matrix(1.8 0 0 1.64041 359.051 260.457)" d="M-55.3377 -8.48984C-44.8196 -49.6541 16.6778 -33.0135 6.15972 8.15086C1.98439 24.4917 -4.98086 51.7513 -9.30795 68.686C-10.8283 74.6361 -21.8622 83.3344 -44.4361 77.5054C-67.0101 71.6764 -72.5566 58.8989 -71.3716 54.2611C-67.0191 37.2271 -58.4191 3.56934 -55.3377 -8.48984Z"></path>
  <path fill="none" stroke="black" stroke-width="5" stroke-linejoin="round" transform="matrix(1.67985 0 0 1.8 269.501 356.202)" d="M-46.1785 -14.7639C-28.9355 -20.273 1.56999 -10.6717 1.23343 34.074C1.54824 47.3914 -4.85722 72.5838 -22.3441 76.4382C-33.1672 72.6239 -45.5941 69.2163 -60.9483 63.6625C-67.8286 51.8071 -58.0412 48.7103 -58.4447 32.8304C-58.6963 -11.0665 -63.4214 -9.25487 -46.1785 -14.7639Z"></path>
  <path fill="#453279" transform="matrix(1.67985 0 0 1.8 269.501 356.202)" d="M-46.1785 -14.7639C-28.9355 -20.273 1.56999 -10.6717 1.23343 34.074C1.54824 47.3914 -4.85722 72.5838 -22.3441 76.4382C-33.1672 72.6239 -45.5941 69.2163 -60.9483 63.6625C-67.8286 51.8071 -58.0412 48.7103 -58.4447 32.8304C-58.6963 -11.0665 -63.4214 -9.25487 -46.1785 -14.7639Z"></path>
  <path fill="none" stroke="black" stroke-width="5" stroke-linejoin="round" transform="matrix(1.67985 0 0 1.8 191.63 362.835)" d="M41.7862 -14.3493C60.0079 -14.007 72.8611 -9.59271 71.8392 37.7865C72.0474 56.6707 74.6128 69.2152 59.029 75.6303C43.5554 76.0018 32.8684 76.2082 18.0319 75.8679C3.3082 69.0797 8.17398 52.1872 8.6614 35.6966C9.04785 -10.7914 23.5645 -14.6916 41.7862 -14.3493Z"></path>
  <path fill="none" stroke="black" stroke-width="5" stroke-linejoin="round" transform="matrix(1.79976 0.0276995 -0.0293645 1.69771 274.681 288.269)" d="M-11.3238 -80.2543C25.8014 -80.2543 54.9476 -94.6926 58.9092 -40.8672C62.8708 12.9582 37.0524 74.7499 0.0572909 75.3534C-14.1177 75.5847 -17.7665 75.6442 -48.2096 76.1409C-78.6526 76.6376 -84.25 60.12 -84.25 0C-86.6294 -86.0849 -88.6034 -78.4854 -12.7475 -80.2208"></path>
  <path fill="#503F7E" transform="matrix(1.67985 0 0 1.8 191.63 362.835)" d="M41.7862 -14.3493C60.0079 -14.007 72.8611 -9.59271 71.8392 37.7865C72.0474 56.6707 74.6128 69.2152 59.029 75.6303C43.5554 76.0018 32.8684 76.2082 18.0319 75.8679C3.3082 69.0797 8.17398 52.1872 8.6614 35.6966C9.04785 -10.7914 23.5645 -14.6916 41.7862 -14.3493Z"></path>
  <path fill="none" stroke="black" stroke-width="5" stroke-linejoin="round" transform="matrix(1.53139 0 0 1.39334 226.981 134.204)" d="M0 -40C20.9426 -40 35.0096 -26.8589 47.8597 -2.20018C49.1253 -3.81499 50.3123 -3.57653 51.1974 -3.11682C52.0824 -2.65711 52.5509 -1.60562 52.2206 -0.665342C53.8523 0.0631991 55.2854 1.47333 55.8775 2.67698C56.9197 4.79566 57.6743 10.5072 53.7931 11.8212C58.5977 31.9882 20.3682 22.0914 -1.32962e-05 22.0914C-20.2357 22.0914 -45.0732 28.3281 -41.8836 12.9784C-44.6787 11.8212 -48.2008 8.95144 -46.5316 4.29175C-45.7036 1.98006 -43.8185 0.567089 -42.3936 0.566997C-41.0392 0.56691 -42.9934 -2.2 -40.2188 -3.81491C-39.0195 -4.51291 -37.7273 -4.43211 -36.6068 -4.12355C-28.0141 -23.7311 -20.4124 -40 0 -40Z"></path>
  <path fill="#503F7E" transform="matrix(1.79976 0.0276995 -0.0293645 1.69771 274.681 288.269)" d="M-11.3238 -80.2543C25.8014 -80.2543 54.9476 -94.6926 58.9092 -40.8672C62.8708 12.9582 37.0524 74.7499 0.0572909 75.3534C-14.1177 75.5847 -17.7665 75.6442 -48.2096 76.1409C-78.6526 76.6376 -84.25 60.12 -84.25 0C-86.6442 -86.62 -88.6279 -78.3873 -11.3238 -80.2543Z"></path>
  <clipPath id="cl_4b3">
    <path d="M256.658 151.707C323.474 152.735 376.354 129.03 381.904 220.52C387.453 312.01 339.172 416.199 272.572 416.199C247.053 416.199 240.485 416.199 185.68 416.199C130.875 416.199 121.286 388.002 123.052 285.935C121.286 138.813 117.474 152.735 256.658 151.707Z"></path>
  </clipPath>
  <g clip-path="url(#cl_4b3)">
    <path fill="#655494" transform="matrix(1.8 0 0 1.8 311.807 270.348)" d="M-0.158648 -48.2655C25.513 -48.2655 46.324 -26.6563 46.324 4.76837e-07C46.324 26.6563 25.513 48.2655 -0.158648 48.2655C-25.8303 48.2655 -46.6413 26.6563 -46.6413 4.76837e-07C-46.6413 -26.6563 -25.8303 -48.2655 -0.158648 -48.2655Z"></path>
  </g>
  <path fill="none" stroke="black" stroke-width="2" stroke-linejoin="round" transform="matrix(3.88825 -0.763212 0.691401 3.5224 233.781 55.9555)" d="M-4.34758 -5.25471C-4.34758 -11.5047 3.66088 -11.5047 3.66088 -5.25471C3.66088 0.995291 3.66088 12.5 3.66088 12.5L-4.57314 12.5C-4.57314 12.5 -4.34758 0.995292 -4.34758 -5.25471Z"></path>
  <path fill="none" stroke="black" stroke-width="2" stroke-linejoin="round" transform="matrix(3.5224 -0.691401 0.691401 3.5224 199.573 61.3683)" d="M-5.1645 -6.50116C-5.1645 -12.7512 6 -12.7512 6 -6.50116C6 -0.251162 6 12.5 6 12.5L-6 12.5C-6 12.5 -5.1645 -0.251163 -5.1645 -6.50116Z"></path>
  <path fill="#453279" transform="matrix(3.88825 -0.763212 0.691401 3.5224 233.781 55.9555)" d="M-4.34758 -5.25471C-4.34758 -11.5047 3.66088 -11.5047 3.66088 -5.25471C3.66088 0.995291 3.66088 12.5 3.66088 12.5L-4.57314 12.5C-4.57314 12.5 -4.34758 0.995292 -4.34758 -5.25471Z"></path>
  <path fill="none" stroke="#161616" stroke-width="0.5" stroke-linecap="round" stroke-linejoin="round" transform="matrix(3.88825 -0.763212 0.691401 3.5224 228.988 36.4239)" d="M5.02231e-06 1.51652L4.30753e-06 10.5382"></path>
  <path fill="#503F7E" transform="matrix(3.5224 -0.691401 0.691401 3.5224 199.573 61.3683)" d="M-5.1645 -6.50117C-5.1645 -12.7512 6 -12.7512 6 -6.50117C6 -0.251166 6 12.5 6 12.5L-6 12.5C-6 12.5 -5.1645 -0.251167 -5.1645 -6.50117Z"></path>
  <path fill="none" stroke="#161616" stroke-width="0.5" stroke-linecap="round" stroke-linejoin="round" transform="matrix(3.5224 -0.691401 0.691401 3.5224 199.787 41.3499)" d="M7.33795e-07 2.6499e-08L4.54849e-06 10.5382"></path>
  <path fill="none" stroke="black" stroke-width="7" stroke-linejoin="round" transform="translate(256 256)" d="M-80.7043 -143.046L23.4611 -157.824C23.4611 -157.824 8.93091 -228.996 -38.3357 -220.91C-40.8238 -220.484 -42.9692 -219.5 -44.8635 -218.138C-45.7395 -209.591 -48.4884 -193.281 -72.5601 -191.859C-82.6104 -169.463 -80.7043 -143.046 -80.7043 -143.046Z"></path>
  <path fill="none" stroke="black" stroke-width="7" stroke-miterlimit="4" transform="translate(256 256)" d="M-37.4158 -228.442C-32.4945 -229.14 -27.939 -225.717 -27.2408 -220.796C-26.5427 -215.874 -29.9662 -211.319 -34.8875 -210.621C-39.8088 -209.922 -44.3642 -213.346 -45.0624 -218.267C-45.7606 -223.188 -42.3371 -227.744 -37.4158 -228.442Z"></path>
  <path fill="#E3CEC2" transform="matrix(0.556923 -0.0790095 0.0790095 0.556923 219.848 36.4687)" d="M0 -16C8.83656 -16 16 -8.83656 16 0C16 8.83656 8.83656 16 0 16C-8.83656 16 -16 8.83656 -16 0C-16 -8.83656 -8.83656 -16 0 -16Z"></path>
  <path fill="#8D5A3E" transform="matrix(0.556923 -0.0790095 0.0790095 0.556923 167.819 114.014)" d="M13.4248 0L200.462 -3.05176e-05C200.462 -3.05176e-05 192.659 -128.902 107.443 -126.472C102.958 -126.344 98.9354 -125.146 95.2612 -123.223C91.5849 -108.397 82.6739 -80.3767 39.9489 -83.8848C16.6664 -46.9736 13.4248 0 13.4248 0Z"></path>
  <path fill="#4A4848" transform="matrix(0.504494 -0.0715715 0.0228078 0.160768 226.176 95.0844)" d="M4.76837e-06 -116.5C64.3412 -116.5 116.5 -64.3412 116.5 3.47197e-06C116.5 64.3412 64.3412 116.5 4.76837e-06 116.5C-64.3412 116.5 -116.5 64.3412 -116.5 -3.47197e-06C-116.5 -64.3412 -64.3412 -116.5 4.76837e-06 -116.5Z"></path>
  <path fill="none" stroke="black" stroke-width="7" stroke-miterlimit="4" transform="translate(256 256)" d="M-31.2787 -169.165C4.55437 -174.248 34.7925 -169.984 36.2599 -159.64C37.7274 -149.296 9.86859 -136.789 -25.9645 -131.706C-61.7976 -126.622 -92.0357 -130.887 -93.5032 -141.231C-94.9707 -151.575 -67.1119 -164.081 -31.2787 -169.165Z"></path>
  <path fill="#C9B1AA" transform="matrix(0.556923 -0.0790095 0.0228078 0.160768 227.378 105.565)" d="M-0.519165 93.3573C63.822 93.3573 81.6545 -40.5054 116.5 0C116.333 7.78602 114.666 35.3784 103.443 64.6424C92.2186 93.9064 32.9112 142.08 1.25538 142.08C-34.5183 142.08 -86.5851 95.3331 -99.0913 78.9829C-111.597 62.6327 -116.509 26.4158 -116.5 0C-66.3811 -27.319 -64.8603 93.3573 -0.519165 93.3573Z"></path>
  <path fill="#65524C" transform="matrix(0.447062 -0.0634237 0.0183086 0.129054 227.378 105.565)" d="M-2.86102e-06 -116.5C64.3412 -116.5 116.5 -64.3411 116.5 0.00012207C116.5 64.3413 64.3412 116.5 -2.86102e-06 116.5C-64.3412 116.5 -116.5 64.3413 -116.5 0.00012207C-116.5 -64.3411 -64.3412 -116.5 -2.86102e-06 -116.5Z"></path>
  <clipPath id="cl_4b4">
    <path d="M225.245 90.5299C254.01 86.4492 278.283 89.8724 279.461 98.1759C280.639 106.479 258.276 116.519 229.511 120.6C200.747 124.68 176.474 121.257 175.296 112.954C174.118 104.65 196.481 94.6107 225.245 90.5299Z"></path>
  </clipPath>
  <g clip-path="url(#cl_4b4)">
    <path fill="#857069" transform="matrix(1.7889 -0.253787 0.253787 1.7889 185.346 95.6201)" d="M6.3453 -18.4774C15.1819 -18.4774 19.9785 -8.83656 25.4977 -1.49012e-07C40.8823 25.7165 8.83656 21.8364 2.5928e-06 19.1869C-8.83655 16.5373 -16 8.83656 -16 0C-16 -8.83656 -2.49126 -18.4774 6.3453 -18.4774Z"></path>
  </g>
  <clipPath id="cl_4b5">
    <path d="M175.296 112.954L279.461 98.1759C279.461 98.1759 264.931 27.0039 217.664 35.0901C215.176 35.5157 213.031 36.5005 211.137 37.8621C210.26 46.4093 207.512 62.7186 183.44 64.1405C173.39 86.5368 175.296 112.954 175.296 112.954Z"></path>
  </clipPath>
  <g clip-path="url(#cl_4b5)">
    <path fill="#65524C" transform="matrix(0.682449 -0.0968176 0.0594143 0.4188 197.489 44.6631)" d="M7.62939e-06 -50.5C11.1424 -50.5 26.7229 -45.7372 27.5442 -33.3093C28.6357 -16.7925 29.2617 -6.93543 29.2617 5.94992C29.2617 33.8403 20.7107 50.5 7.62939e-06 50.5C-20.7107 50.5 -29.0363 45.6071 -29.0363 17.7168C-29.0363 -10.1736 -20.7107 -50.5 7.62939e-06 -50.5Z"></path>
    <path fill="#714035" transform="matrix(0.298708 -0.253155 0.253155 0.298708 247.279 50.5408)" d="M-46.3834 -19.9076C-36.9946 -19.9076 -29.3834 -27.5187 -29.3834 -36.9076L29.3834 -36.9076C29.3834 -27.5187 36.9946 -19.9076 46.3834 -19.9076L46.3834 19.9076C36.9946 19.9076 29.3834 27.5187 29.3834 36.9076L-29.3834 36.9076C-29.3834 27.5187 -36.9946 19.9076 -46.3834 19.9076L-46.3834 -19.9076Z"></path>
  </g>
  <clipPath id="cl_4b7">
    <path d="M194.489 23.5137C202.093 22.4349 213.009 22.9211 214.308 28.0464C216.034 34.8579 217.047 38.9255 217.812 44.3219C219.47 56.0024 214.624 63.8073 200.49 65.8125C186.356 67.8177 180.383 66.5746 178.726 54.8941C177.069 43.2136 180.355 25.5189 194.489 23.5137Z"></path>
  </clipPath>
  <g clip-path="url(#cl_4b7)">
    <clipPath id="cl_4b8">
      <path d="M175.296 112.954L279.461 98.1759C279.461 98.1759 264.931 27.0039 217.664 35.0901C215.176 35.5157 213.031 36.5005 211.137 37.8621C210.26 46.4093 207.512 62.7186 183.44 64.1405C173.39 86.5368 175.296 112.954 175.296 112.954Z"></path>
    </clipPath>
    <g clip-path="url(#cl_4b8)">
      <path fill="#857069" transform="matrix(1.7889 -0.253787 0.253787 1.7889 180.999 66.978)" d="M1.90735e-06 -16C8.83656 -16 12.0102 -8.83656 16.201 -1.21452e-06C20.3918 8.83655 8.83656 16 1.90735e-06 16C-8.83655 16 -16 8.83656 -16 0C-16 -8.83656 -8.83655 -16 1.90735e-06 -16Z"></path>
    </g>
  </g>
  <path fill="none" stroke="black" stroke-width="7" stroke-linejoin="round" transform="translate(256 256)" d="M-93.5032 -141.231C-95.0405 -152.066 -91.943 -155.024 -91.943 -155.024C-88.9473 -159.246 -85.2611 -162.845 -80.3362 -165.955"></path>
  <path fill="none" stroke="black" stroke-width="7" stroke-linejoin="round" transform="translate(256 256)" d="M16.9672 -179.882C24.1615 -178.166 29.2528 -175.427 32.2574 -171.855C32.2574 -171.855 36.6506 -168.427 36.3866 -161.209"></path>
  <path fill="#503F7E" transform="matrix(1.53139 0 0 1.39334 226.981 134.204)" d="M0 -40C20.9426 -40 35.0096 -26.8589 47.8597 -2.20018C49.1253 -3.81499 50.3123 -3.57653 51.1974 -3.11682C52.0824 -2.65711 52.5509 -1.60562 52.2206 -0.665342C53.8523 0.0631991 55.2854 1.47333 55.8775 2.67698C56.9197 4.79566 57.6743 10.5072 53.7931 11.8212C58.5977 31.9882 20.3682 22.0914 -1.32962e-05 22.0914C-20.2357 22.0914 -45.0732 28.3281 -41.8836 12.9784C-44.6787 11.8212 -48.2008 8.95144 -46.5316 4.29175C-45.7036 1.98006 -43.8185 0.567089 -42.3936 0.566997C-41.0392 0.56691 -42.9934 -2.2 -40.2188 -3.81491C-39.0195 -4.51291 -37.7273 -4.43211 -36.6068 -4.12355C-28.0141 -23.7311 -20.4124 -40 0 -40Z"></path>
  <path fill="#E3CEC2" transform="matrix(0.556923 -0.0790095 0.0790095 0.556923 162.497 114.769)" d="M0 1.52588e-05C0 -19.4564 6.19051 -23.8887 6.19051 -23.8887C25.0054 -43.7609 53.1913 -52.4203 117 -52.4203C180.809 -52.4203 217.711 -40.5795 229.005 -22.5C229.005 -22.5 236.876 -14.3388 233 3.05176e-05C233 3.05176e-05 222.592 -33.1383 117.06 -33.1383C11.5269 -33.1384 0 1.52588e-05 0 1.52588e-05Z"></path>
  <path fill="#C9B1AA" transform="matrix(0.556923 -0.0790095 0.0228078 0.160768 227.378 105.565)" d="M-9.53674e-07 -116.5C64.3412 -116.5 116.5 -64.3412 116.5 0C116.333 7.78602 114.079 -0.846931 92.5947 -2.56885C90.1363 -68.6432 33.7083 -93.0964 2.0524 -93.0964C-33.7213 -93.0964 -91.7603 -68.5196 -92.7458 3.01566C-107.568 13.6071 -116.5 28.5675 -116.5 0C-116.5 -64.3412 -64.3412 -116.5 -9.53674e-07 -116.5Z"></path>
  <clipPath id="cl_4b9">
    <path d="M194.489 23.5137C202.093 22.4349 213.009 22.9211 214.308 28.0464C216.034 34.8579 217.047 38.9255 217.812 44.3219C219.47 56.0024 214.624 63.8073 200.49 65.8125C186.356 67.8177 180.383 66.5746 178.726 54.8941C177.069 43.2136 180.355 25.5189 194.489 23.5137Z"></path>
  </clipPath>
  <g clip-path="url(#cl_4b9)">
    <path fill="#503F7E" transform="matrix(3.5224 -0.691401 0.691401 3.5224 199.573 61.3683)" d="M-5.1645 -6.50116C-5.1645 -12.7512 6 -12.7512 6 -6.50116C6 -0.251162 6 12.5 6 12.5L-6 12.5C-6 12.5 -5.1645 -0.251163 -5.1645 -6.50116Z"></path>
    <path fill="none" stroke="#161616" stroke-width="0.5" stroke-linecap="round" stroke-linejoin="round" transform="matrix(3.5224 -0.691401 0.691401 3.5224 199.787 41.3499)" d="M7.33795e-07 2.6499e-08L4.54849e-06 10.5382"></path>
  </g>
  <clipPath id="cl_4bb">
    <path d="M226.981 78.47C259.053 78.47 280.595 96.7801 300.273 131.138C302.211 128.888 304.029 129.22 305.384 129.861C306.74 130.501 307.457 131.967 306.951 133.277C309.45 134.292 311.645 136.257 312.551 137.934C314.148 140.886 315.303 148.844 309.359 150.675C316.717 178.774 258.173 164.985 226.981 164.985C195.993 164.985 157.957 173.674 162.842 152.287C158.561 150.675 153.168 146.676 155.724 140.184C156.992 136.963 159.879 134.994 162.061 134.994C164.135 134.994 161.142 131.138 165.391 128.888C167.228 127.916 169.206 128.028 170.922 128.458C184.081 101.138 195.722 78.47 226.981 78.47Z"></path>
  </clipPath>
  <g clip-path="url(#cl_4bb)">
    <path fill="#7463A5" transform="matrix(1.8 2.98023e-08 0.00759348 1.8 223.715 119.061)" d="M1.90735e-06 -5.5C3.866 -5.5 7 -2.92564 7 0.25C7 3.42564 3.866 6 1.90735e-06 6C-3.86599 6 -7 3.42564 -7 0.25C-7 -2.92564 -3.86599 -5.5 1.90735e-06 -5.5Z"></path>
    <path fill="#7463A5" transform="matrix(1.83618 3.04014e-08 0.00759348 1.8 276.264 110.915)" d="M9.53674e-07 -5C2.76142 -5 5 -2.6495 5 0.25C5 3.1495 2.76142 5.5 9.53674e-07 5.5C-2.76142 5.5 -5 3.1495 -5 0.25C-5 -2.6495 -2.76142 -5 9.53674e-07 -5Z"></path>
    <path fill="none" stroke="#131212" stroke-width="1" stroke-linecap="round" stroke-linejoin="round" transform="matrix(2.30699 -0.373724 0.274137 1.69224 254.495 104.219)" d="M1.44192e-06 -4.14104e-07L2.92891 -0.714567"></path>
    <path fill="none" stroke="#131212" stroke-width="1" stroke-linecap="round" stroke-linejoin="round" transform="matrix(2.30699 -0.373724 0.274137 1.69224 232.745 103.389)" d="M-5.96046e-08 7.48094e-06L4.25731 1.79213"></path>
    <path fill="#131212" transform="matrix(2.47104 -0.400299 0.405754 2.50471 246.53 106.5)" d="M4.54078e-07 3.59921e-06L1.9614 0.352742L0.91509 1.42246L4.54078e-07 3.59921e-06Z"></path>
    <path fill="none" stroke="#131212" stroke-width="0.5" stroke-linecap="round" stroke-linejoin="round" transform="matrix(1.93759 -0.313883 0.31816 1.96399 249.589 110.035)" d="M1.0721e-06 -0.711232L-2.76974e-06 1.11019"></path>
    <path fill="#32225E" transform="matrix(1.74285 0.441491 -0.424043 1.74552 243.377 98.634)" d="M-2.87169e-08 -1.92716C1.62851 -1.92716 2.94867 -1.06434 2.94867 -4.39386e-08C2.94867 1.06434 1.62851 1.92716 2.87169e-08 1.92716C-1.62851 1.92716 -2.94867 1.06434 -2.94867 4.39386e-08C-2.94867 -1.06434 -1.62851 -1.92716 -2.87169e-08 -1.92716Z"></path>
    <path fill="#32225E" transform="matrix(1.71213 0.433708 -0.412468 1.69787 254.57 97.7591)" d="M-5.72205e-06 -1.89918C0.889983 -1.89918 1.61146 -1.04889 1.61146 7.60538e-06C1.61146 1.0489 0.889983 1.8992 -5.72205e-06 1.8992C-0.889995 1.8992 -1.61147 1.0489 -1.61147 7.65341e-06C-1.61147 -1.04889 -0.889995 -1.89918 -5.72205e-06 -1.89918Z"></path>
  </g>
  <path fill="none" stroke="black" stroke-width="4" stroke-linejoin="round" transform="matrix(1.8 0 0 1.8 352.158 173.148)" d="M-11.7479 -12.9046C-11.318 -13.5165 -10.7601 -14.1187 -10.0572 -14.7065C-5.47351 -18.5399 3.93804 -16.1165 4.43081 -14.7065C7.46664 -16.1165 10.8961 -16.6614 15.0174 -13.9738C19.1387 -11.2862 16.2386 -4.86793 16.6118 -4.55444C16.985 -4.24095 25.2116 0.494543 17.5976 8.33766C16.6439 8.92035 15.7365 9.39702 14.8735 9.77867"></path>
  <path fill="#7463A5" transform="matrix(1.8 0 0 1.8 352.158 173.148)" d="M-0.116455 0C-2.60165 -0.66394 -7.05858 1.11792 -10.0572 -2.65576C-13.0559 -6.42944 -14.6409 -10.8732 -10.0572 -14.7065C-5.47351 -18.5399 3.93804 -16.1165 4.43081 -14.7065C7.46664 -16.1165 10.8961 -16.6614 15.0174 -13.9738C19.1387 -11.2862 16.2386 -4.86793 16.6118 -4.55444C16.985 -4.24095 25.2116 0.494543 17.5976 8.33766C2.9012 17.3171 -0.809986 1.11792 -0.116455 0Z"></path>
  <path fill="none" stroke="black" stroke-width="6" stroke-linejoin="round" transform="matrix(1.8 0 0 1.8 173.06 270.794)" d="M-23.9803 3.85697C-29.3911 -35.4983 33.5172 -44.1473 38.928 -4.79196C41.2325 11.9701 45.0769 39.9322 47.4651 57.3035C48.3043 63.4069 41.4149 75.7761 18.4282 79.2095C-4.55845 82.6428 -14.4766 72.9826 -15.1306 68.2253C-17.5329 50.7523 -22.2796 16.227 -23.9803 3.85697Z"></path>
  <path fill="none" stroke="black" stroke-width="6" stroke-linecap="round" stroke-linejoin="bevel" transform="matrix(1.8 0 0 1.67094 173.06 180.547)" d="M36.7849 32.9638C37.8431 40.798 38.7543 47.5443 39.2247 51.0269C44.9662 93.5359 -17.8778 103.343 -23.6193 60.8343C-25.0606 50.1633 -27.7101 30.5476 -29.3789 18.192C-31.0477 5.83647 -27.2355 -12.7843 -11.3232 -15.2784C-9.66921 -15.5376 -8.1466 -15.7762 -6.73811 -15.997"></path>
  <path fill="#503F7E" transform="matrix(1.8 0 0 1.8 173.06 270.794)" d="M-23.9803 3.85697C-29.6158 -37.1329 33.2925 -45.7818 38.928 -4.79197C41.2325 11.9701 45.0769 39.9322 47.4651 57.3035C48.3043 63.4069 41.4149 75.7761 18.4282 79.2095C-4.55845 82.6428 -14.4766 72.9826 -15.1306 68.2253C-17.5329 50.7523 -22.2796 16.227 -23.9803 3.85697Z"></path>
  <path fill="#503F7E" transform="matrix(1.8 0 0 1.67094 173.06 180.547)" d="M-29.3789 18.192C-31.0477 5.83646 -27.2355 -12.7843 -11.3232 -15.2784C4.58905 -17.7724 8.33947 -18.3602 15.3301 -19.4559C22.3207 -20.5516 29.9418 -17.701 32.0405 -2.1625C34.1393 13.376 38.0519 42.3442 39.2247 51.0269C44.275 88.4183 -18.569 98.2256 -23.6193 60.8343C-25.0606 50.1633 -27.7101 30.5476 -29.3789 18.192Z"></path>
</svg>