<?xml version="1.0" encoding="utf-8"?>
<svg xmlns="http://www.w3.org/2000/svg" xmlns:xlink="http://www.w3.org/1999/xlink" width="512" height="512">
  <path fill="none" stroke="black" stroke-width="6" stroke-linejoin="round" transform="matrix(1.8 0 0 1.52279 359.051 176.837)" d="M-12.0778 -16.492C-8.51765 -16.2859 -5.89767 -16.1342 -2.53477 -15.9396C4.52101 -15.5311 11.5074 -11.1189 10.8576 4.56441C10.2078 20.2477 8.99644 49.486 8.63335 58.2496C6.85571 101.155 -56.5665 97.441 -54.7889 54.5359C-54.3427 43.7654 -53.5224 23.9669 -53.0057 11.4962C-52.489 -0.974537 -45.4971 -18.4266 -29.4365 -17.4969C-28.16 -17.423 -26.961 -17.3536 -25.8318 -17.2882"></path>
  <path fill="none" stroke="black" stroke-width="6" stroke-linejoin="round" transform="matrix(1.8 0 0 1.64041 359.051 259.083)" d="M-54.002 -7.20233C-44.7872 -48.7411 17.1978 -34.4438 7.98301 7.095C4.32504 23.5845 -1.77712 51.092 -5.56804 68.1809C-6.89999 74.185 -17.6533 83.2968 -40.3974 78.3278C-63.1415 73.3589 -69.0873 60.7994 -68.0491 56.1195C-64.236 38.9305 -56.7015 4.96655 -54.002 -7.20233Z"></path>
  <path fill="#503F7E" transform="matrix(1.8 0 0 1.52279 359.051 176.837)" d="M-53.0057 11.4962C-52.489 -0.974537 -45.4971 -18.4266 -29.4365 -17.4969C-13.3759 -16.5671 -9.59054 -16.348 -2.53477 -15.9396C4.52101 -15.5311 11.5074 -11.1189 10.8576 4.56441C10.2078 20.2477 8.99644 49.486 8.63335 58.2496C6.85571 101.155 -56.5665 97.441 -54.7889 54.5359C-54.3427 43.7654 -53.5224 23.9669 -53.0057 11.4962Z"></path>
  <path fill="#503F7E" transform="matrix(1.8 0 0 1.64041 359.051 259.083)" d="M-54.002 -7.20233C-44.7872 -48.7411 17.1978 -34.4438 7.98301 7.095C4.32504 23.5845 -1.77712 51.092 -5.56804 68.1809C-6.89999 74.185 -17.6533 83.2968 -40.3974 78.3278C-63.1415 73.3589 -69.0873 60.7994 -68.0491 56.1195C-64.236 38.9305 -56.7015 4.96654 -54.002 -7.20233Z"></path>
  <path fill="none" stroke="black" stroke-width="5" stroke-linejoin="round" transform="matrix(1.67985 0 0 1.8 269.501 356.202)" d="M-37.7271 -14.6617C-20.6032 -20.4852 11.116 -10.2698 10.423 34.0338C10.6277 47.2224 3.20519 73.1678 -14.5923 76.5599C-25.2076 72.2668 -37.4457 68.3084 -52.4977 62.0757C-58.7272 49.8377 -48.3866 48.1111 -48.6585 32.3845C-48.5547 -11.0827 -54.851 -8.83819 -37.7271 -14.6617Z"></path>
  <path fill="#453279" transform="matrix(1.67985 0 0 1.8 269.501 356.202)" d="M-37.7271 -14.6617C-20.6032 -20.4852 11.116 -10.2698 10.423 34.0338C10.6277 47.2224 3.20519 73.1678 -14.5923 76.5599C-25.2076 72.2668 -37.4457 68.3084 -52.4977 62.0757C-58.7272 49.8377 -48.3866 48.1111 -48.6585 32.3845C-48.5547 -11.0827 -54.851 -8.83819 -37.7271 -14.6617Z"></path>
  <path fill="none" stroke="black" stroke-width="5" stroke-linejoin="round" transform="matrix(1.67985 0 0 1.8 191.63 362.835)" d="M33.6767 -14.3493C51.8985 -14.0104 64.7526 -9.59854 63.741 37.7809C63.9533 56.665 66.5209 69.2136 50.9382 75.6306C35.4645 76.0021 24.7775 76.2085 9.94105 75.8682C-4.78383 69.0821 0.0788536 52.1936 0.562691 35.7029C0.939075 -10.7852 15.4549 -14.6881 33.6767 -14.3493Z"></path>
  <path fill="none" stroke="black" stroke-width="5" stroke-linejoin="round" transform="matrix(1.79976 0.0276995 -0.0293645 1.69771 274.681 286.895)" d="M-11.3238 -80.2543C25.8014 -80.2543 54.9476 -94.6926 58.9092 -40.8672C62.8708 12.9582 37.0524 74.7499 0.0572909 75.3534C-14.1177 75.5847 -17.7665 75.6442 -48.2096 76.1409C-78.6526 76.6376 -84.25 60.12 -84.25 3.8147e-06C-86.6294 -86.0849 -88.6034 -78.4854 -12.7475 -80.2208"></path>
  <path fill="#503F7E" transform="matrix(1.67985 0 0 1.8 191.63 362.835)" d="M33.6767 -14.3493C51.8985 -14.0104 64.7526 -9.59854 63.741 37.7809C63.9533 56.665 66.5209 69.2136 50.9382 75.6306C35.4645 76.0021 24.7775 76.2085 9.94105 75.8682C-4.78383 69.0821 0.0788536 52.1936 0.562691 35.7029C0.939075 -10.7852 15.4549 -14.6881 33.6767 -14.3493Z"></path>
  <path fill="none" stroke="black" stroke-width="5" stroke-linejoin="round" transform="matrix(1.53139 0 0 1.39334 226.981 132.83)" d="M0 -40C20.9426 -40 35.0096 -26.8589 47.8597 -2.20017C49.1253 -3.81498 50.3123 -3.57652 51.1974 -3.11681C52.0824 -2.6571 52.5509 -1.60561 52.2206 -0.665335C53.8523 0.0632067 55.2854 1.47333 55.8775 2.67699C56.9197 4.79567 57.6743 10.5072 53.7931 11.8212C58.5977 31.9882 20.3682 22.0914 -1.32962e-05 22.0914C-20.2357 22.0914 -45.0732 28.3281 -41.8836 12.9784C-44.6787 11.8212 -48.2008 8.95145 -46.5316 4.29176C-45.7036 1.98007 -43.8185 0.567096 -42.3936 0.567005C-41.0392 0.566917 -42.9934 -2.19999 -40.2188 -3.8149C-39.0195 -4.5129 -37.7273 -4.43211 -36.6068 -4.12355C-28.0141 -23.731 -20.4124 -40 0 -40Z"></path>
  <path fill="#503F7E" transform="matrix(1.79976 0.0276995 -0.0293645 1.69771 274.681 286.895)" d="M-11.3238 -80.2543C25.8014 -80.2543 54.9476 -94.6926 58.9092 -40.8672C62.8708 12.9582 37.0524 74.7499 0.0572909 75.3534C-14.1177 75.5847 -17.7665 75.6442 -48.2096 76.1409C-78.6526 76.6376 -84.25 60.12 -84.25 3.8147e-06C-86.6442 -86.62 -88.6279 -78.3873 -11.3238 -80.2543Z"></path>
  <clipPath id="cl_533">
    <path d="M256.658 150.333C323.474 151.361 376.354 127.656 381.904 219.146C387.453 310.636 339.172 414.825 272.572 414.825C247.053 414.825 240.485 414.825 185.68 414.825C130.875 414.825 121.286 386.628 123.052 284.561C121.286 137.439 117.474 151.361 256.658 150.333Z"></path>
  </clipPath>
  <g clip-path="url(#cl_533)">
    <path fill="#655494" transform="matrix(1.8 0 0 1.8 311.807 268.974)" d="M-0.158648 -48.2655C25.513 -48.2655 46.324 -26.6563 46.324 -4.76837e-07C46.324 26.6563 25.513 48.2655 -0.158648 48.2655C-25.8303 48.2655 -46.6413 26.6563 -46.6413 -4.76837e-07C-46.6413 -26.6563 -25.8303 -48.2655 -0.158648 -48.2655Z"></path>
  </g>
  <path fill="none" stroke="black" stroke-width="2" stroke-linejoin="round" transform="matrix(3.88825 -0.763212 0.691401 3.5224 233.781 54.5814)" d="M-4.34758 -5.25471C-4.34759 -11.5047 3.66088 -11.5047 3.66088 -5.25471C3.66088 0.995287 3.66088 12.5 3.66088 12.5L-4.57314 12.5C-4.57314 12.5 -4.34758 0.995288 -4.34758 -5.25471Z"></path>
  <path fill="none" stroke="black" stroke-width="2" stroke-linejoin="round" transform="matrix(3.5224 -0.691401 0.691401 3.5224 199.573 59.9942)" d="M-5.1645 -6.50117C-5.1645 -12.7512 6 -12.7512 6 -6.50117C6 -0.25117 6 12.5 6 12.5L-6 12.5C-6 12.5 -5.1645 -0.251171 -5.1645 -6.50117Z"></path>
  <path fill="#453279" transform="matrix(3.88825 -0.763212 0.691401 3.5224 233.781 54.5814)" d="M-4.34758 -5.25471C-4.34759 -11.5047 3.66088 -11.5047 3.66088 -5.25471C3.66088 0.995287 3.66088 12.5 3.66088 12.5L-4.57314 12.5C-4.57314 12.5 -4.34758 0.995288 -4.34758 -5.25471Z"></path>
  <path fill="none" stroke="#161616" stroke-width="0.5" stroke-linecap="round" stroke-linejoin="round" transform="matrix(3.88825 -0.763212 0.691401 3.5224 228.988 35.0497)" d="M4.06863e-06 1.51652L3.35385e-06 10.5382"></path>
  <path fill="#503F7E" transform="matrix(3.5224 -0.691401 0.691401 3.5224 199.573 59.9942)" d="M-5.1645 -6.50117C-5.1645 -12.7512 6 -12.7512 6 -6.50117C6 -0.25117 6 12.5 6 12.5L-6 12.5C-6 12.5 -5.1645 -0.251171 -5.1645 -6.50117Z"></path>
  <path fill="none" stroke="#161616" stroke-width="0.5" stroke-linecap="round" stroke-linejoin="round" transform="matrix(3.5224 -0.691401 0.691401 3.5224 199.787 39.9757)" d="M2.56958e-07 -3.7882e-06L4.07165e-06 10.5382"></path>
  <path fill="none" stroke="black" stroke-width="7" stroke-linejoin="round" transform="translate(256 256)" d="M-80.7043 -144.698L23.4611 -159.476C23.4611 -159.476 8.93091 -230.648 -38.3357 -222.562C-40.8238 -222.136 -42.9692 -221.151 -44.8635 -219.79C-45.7395 -211.243 -48.4884 -194.933 -72.5601 -193.511C-82.6104 -171.115 -80.7043 -144.698 -80.7043 -144.698Z"></path>
  <path fill="none" stroke="black" stroke-width="7" stroke-miterlimit="4" transform="translate(256 256)" d="M-37.4158 -230.094C-32.4945 -230.792 -27.939 -227.369 -27.2408 -222.447C-26.5427 -217.526 -29.9662 -212.971 -34.8875 -212.272C-39.8088 -211.574 -44.3642 -214.998 -45.0624 -219.919C-45.7606 -224.84 -42.3371 -229.396 -37.4158 -230.094Z"></path>
  <path fill="#E3CEC2" transform="matrix(0.556923 -0.0790095 0.0790095 0.556923 219.848 34.8168)" d="M0 -16C8.83656 -16 16 -8.83659 16 -3.05176e-05C16 8.83653 8.83656 16 0 16C-8.83656 16 -16 8.83653 -16 -3.05176e-05C-16 -8.83659 -8.83656 -16 0 -16Z"></path>
  <path fill="#8D5A3E" transform="matrix(0.556923 -0.0790095 0.0790095 0.556923 167.819 112.362)" d="M13.4248 -1.52588e-05L200.462 -3.05176e-05C200.462 -3.05176e-05 192.659 -128.902 107.443 -126.472C102.958 -126.344 98.9354 -125.146 95.2612 -123.223C91.585 -108.397 82.6739 -80.3768 39.9489 -83.8848C16.6664 -46.9736 13.4248 -1.52588e-05 13.4248 -1.52588e-05Z"></path>
  <path fill="#4A4848" transform="matrix(0.504494 -0.0715715 0.0228078 0.160768 226.176 93.4326)" d="M3.8147e-06 -116.5C64.3412 -116.5 116.5 -64.3412 116.5 -5.75632e-05C116.5 64.3411 64.3412 116.5 3.8147e-06 116.5C-64.3412 116.5 -116.5 64.3411 -116.5 -6.45071e-05C-116.5 -64.3412 -64.3412 -116.5 3.8147e-06 -116.5Z"></path>
  <path fill="none" stroke="black" stroke-width="7" stroke-miterlimit="4" transform="translate(256 256)" d="M-31.2787 -170.817C4.55437 -175.9 34.7925 -171.636 36.2599 -161.292C37.7274 -150.948 9.86859 -138.441 -25.9645 -133.358C-61.7976 -128.274 -92.0357 -132.538 -93.5032 -142.882C-94.9707 -153.226 -67.1119 -165.733 -31.2787 -170.817Z"></path>
  <path fill="#C9B1AA" transform="matrix(0.556923 -0.0790095 0.0228078 0.160768 227.378 103.913)" d="M-0.519165 93.3574C63.822 93.3574 81.6545 -40.5053 116.5 6.10352e-05C116.333 7.78609 114.666 35.3784 103.443 64.6425C92.2186 93.9065 32.9112 142.08 1.25538 142.08C-34.5183 142.08 -86.5851 95.3332 -99.0913 78.983C-111.597 62.6328 -116.509 26.4159 -116.5 6.10352e-05C-66.3811 -27.3189 -64.8603 93.3574 -0.519165 93.3574Z"></path>
  <path fill="#65524C" transform="matrix(0.447062 -0.0634237 0.0183086 0.129054 227.378 103.913)" d="M-1.90735e-06 -116.5C64.3412 -116.5 116.5 -64.3412 116.5 0C116.5 64.3412 64.3412 116.5 -1.90735e-06 116.5C-64.3412 116.5 -116.5 64.3412 -116.5 0C-116.5 -64.3412 -64.3412 -116.5 -1.90735e-06 -116.5Z"></path>
  <clipPath id="cl_534">
    <path d="M225.245 88.8781C254.01 84.7973 278.283 88.2206 279.461 96.524C280.639 104.828 258.276 114.867 229.511 118.948C200.747 123.028 176.474 119.605 175.296 111.302C174.118 102.998 196.481 92.9588 225.245 88.8781Z"></path>
  </clipPath>
  <g clip-path="url(#cl_534)">
    <path fill="#857069" transform="matrix(1.7889 -0.253787 0.253787 1.7889 185.346 93.9682)" d="M6.3453 -18.4774C15.1819 -18.4774 19.9785 -8.83655 25.4977 7.48038e-06C40.8822 25.7165 8.83656 21.8364 6.85453e-07 19.1869C-8.83656 16.5373 -16 8.83656 -16 7.62939e-06C-16 -8.83655 -2.49126 -18.4774 6.3453 -18.4774Z"></path>
  </g>
  <clipPath id="cl_535">
    <path d="M175.296 111.302L279.461 96.524C279.461 96.524 264.931 25.3521 217.664 33.4382C215.176 33.8639 213.031 34.8486 211.137 36.2102C210.26 44.7574 207.512 61.0667 183.44 62.4887C173.39 84.8849 175.296 111.302 175.296 111.302Z"></path>
  </clipPath>
  <g clip-path="url(#cl_535)">
    <path fill="#65524C" transform="matrix(0.682449 -0.0968176 0.0594143 0.4188 197.489 43.0112)" d="M7.62939e-06 -50.5C11.1424 -50.5 26.7229 -45.7372 27.5442 -33.3093C28.6357 -16.7925 29.2617 -6.93543 29.2617 5.94992C29.2617 33.8403 20.7107 50.5 7.62939e-06 50.5C-20.7107 50.5 -29.0363 45.6071 -29.0363 17.7168C-29.0363 -10.1736 -20.7107 -50.5 7.62939e-06 -50.5Z"></path>
    <path fill="#714035" transform="matrix(0.298708 -0.253155 0.253155 0.298708 247.279 48.889)" d="M-46.3834 -19.9076C-36.9946 -19.9076 -29.3834 -27.5187 -29.3834 -36.9076L29.3835 -36.9076C29.3835 -27.5187 36.9946 -19.9076 46.3835 -19.9076L46.3835 19.9076C36.9946 19.9076 29.3835 27.5187 29.3835 36.9076L-29.3834 36.9076C-29.3834 27.5187 -36.9946 19.9076 -46.3834 19.9076L-46.3834 -19.9076Z"></path>
  </g>
  <clipPath id="cl_537">
    <path d="M194.489 21.8618C202.093 20.7831 213.009 21.2693 214.308 26.3946C216.034 33.2061 217.047 37.2737 217.812 42.67C219.47 54.3505 214.624 62.1555 200.49 64.1606C186.356 66.1658 180.383 64.9228 178.726 53.2423C177.069 41.5618 180.355 23.867 194.489 21.8618Z"></path>
  </clipPath>
  <g clip-path="url(#cl_537)">
    <clipPath id="cl_538">
      <path d="M175.296 111.302L279.461 96.524C279.461 96.524 264.931 25.3521 217.664 33.4382C215.176 33.8639 213.031 34.8486 211.137 36.2102C210.26 44.7574 207.512 61.0667 183.44 62.4887C173.39 84.8849 175.296 111.302 175.296 111.302Z"></path>
    </clipPath>
    <g clip-path="url(#cl_538)">
      <path fill="#857069" transform="matrix(1.7889 -0.253787 0.253787 1.7889 180.999 65.3262)" d="M0 -16C8.83656 -16 12.0102 -8.83656 16.201 -1.21452e-06C20.3918 8.83655 8.83656 16 0 16C-8.83656 16 -16 8.83656 -16 0C-16 -8.83656 -8.83656 -16 0 -16Z"></path>
    </g>
  </g>
  <path fill="none" stroke="black" stroke-width="7" stroke-linejoin="round" transform="translate(256 256)" d="M-93.5032 -142.882C-95.0405 -153.718 -91.943 -156.676 -91.943 -156.676C-88.9473 -160.897 -85.2611 -164.497 -80.3362 -167.606"></path>
  <path fill="none" stroke="black" stroke-width="7" stroke-linejoin="round" transform="translate(256 256)" d="M16.9672 -181.534C24.1615 -179.818 29.2528 -177.079 32.2574 -173.507C32.2574 -173.507 36.6506 -170.079 36.3866 -162.86"></path>
  <path fill="#503F7E" transform="matrix(1.53139 0 0 1.39334 226.981 132.83)" d="M0 -40C20.9426 -40 35.0096 -26.8589 47.8597 -2.20017C49.1253 -3.81498 50.3123 -3.57652 51.1974 -3.11681C52.0824 -2.6571 52.5509 -1.60561 52.2206 -0.665335C53.8523 0.0632067 55.2854 1.47333 55.8775 2.67699C56.9197 4.79567 57.6743 10.5072 53.7931 11.8212C58.5977 31.9882 20.3682 22.0914 -1.32962e-05 22.0914C-20.2357 22.0914 -45.0732 28.3281 -41.8836 12.9784C-44.6787 11.8212 -48.2008 8.95145 -46.5316 4.29176C-45.7036 1.98007 -43.8185 0.567096 -42.3936 0.567005C-41.0392 0.566917 -42.9934 -2.19999 -40.2188 -3.8149C-39.0195 -4.5129 -37.7273 -4.43211 -36.6068 -4.12355C-28.0141 -23.731 -20.4124 -40 0 -40Z"></path>
  <path fill="#E3CEC2" transform="matrix(0.556923 -0.0790095 0.0790095 0.556923 162.497 113.118)" d="M0 0C0 -19.4564 6.19052 -23.8887 6.19052 -23.8887C25.0054 -43.7609 53.1913 -52.4203 117 -52.4203C180.809 -52.4203 217.711 -40.5795 229.005 -22.5C229.005 -22.5 236.876 -14.3389 233 -3.05176e-05C233 -3.05176e-05 222.592 -33.1384 117.06 -33.1384C11.5269 -33.1384 0 0 0 0Z"></path>
  <path fill="#C9B1AA" transform="matrix(0.556923 -0.0790095 0.0228078 0.160768 227.378 103.913)" d="M-1.90735e-06 -116.5C64.3412 -116.5 116.5 -64.3411 116.5 6.10352e-05C116.333 7.78609 114.079 -0.84687 92.5947 -2.56879C90.1363 -68.6431 33.7083 -93.0964 2.0524 -93.0964C-33.7213 -93.0964 -91.7603 -68.5195 -92.7458 3.01572C-107.568 13.6071 -116.5 28.5675 -116.5 6.10352e-05C-116.5 -64.3411 -64.3412 -116.5 -1.90735e-06 -116.5Z"></path>
  <clipPath id="cl_539">
    <path d="M194.489 21.8618C202.093 20.7831 213.009 21.2693 214.308 26.3946C216.034 33.2061 217.047 37.2737 217.812 42.67C219.47 54.3505 214.624 62.1555 200.49 64.1606C186.356 66.1658 180.383 64.9228 178.726 53.2423C177.069 41.5618 180.355 23.867 194.489 21.8618Z"></path>
  </clipPath>
  <g clip-path="url(#cl_539)">
    <path fill="#503F7E" transform="matrix(3.5224 -0.691401 0.691401 3.5224 199.573 59.9942)" d="M-5.1645 -6.50117C-5.16451 -12.7512 6 -12.7512 6 -6.50117C6 -0.25117 6 12.5 6 12.5L-6 12.5C-6 12.5 -5.1645 -0.251171 -5.1645 -6.50117Z"></path>
    <path fill="none" stroke="#161616" stroke-width="0.5" stroke-linecap="round" stroke-linejoin="round" transform="matrix(3.5224 -0.691401 0.691401 3.5224 199.787 39.9757)" d="M2.56958e-07 -3.7882e-06L4.07165e-06 10.5382"></path>
  </g>
  <clipPath id="cl_53b">
    <path d="M226.981 77.0959C259.053 77.0959 280.595 95.4059 300.273 129.764C302.211 127.514 304.029 127.846 305.384 128.487C306.74 129.127 307.457 130.592 306.951 131.903C309.45 132.918 311.645 134.882 312.551 136.56C314.148 139.512 315.303 147.47 309.359 149.301C316.717 177.4 258.173 163.61 226.981 163.61C195.993 163.61 157.957 172.3 162.842 150.913C158.561 149.301 153.168 145.302 155.724 138.809C156.992 135.589 159.879 133.62 162.061 133.62C164.135 133.62 161.142 129.764 165.391 127.514C167.228 126.542 169.206 126.654 170.922 127.084C184.081 99.7641 195.722 77.0959 226.981 77.0959Z"></path>
  </clipPath>
  <g clip-path="url(#cl_53b)">
    <path fill="#7463A5" transform="matrix(1.8 2.98023e-08 0.00759348 1.8 223.715 117.687)" d="M1.90735e-06 -5.5C3.866 -5.5 7 -2.92564 7 0.25C7 3.42564 3.866 6 1.90735e-06 6C-3.86599 6 -7 3.42564 -7 0.25C-7 -2.92564 -3.86599 -5.5 1.90735e-06 -5.5Z"></path>
    <path fill="#7463A5" transform="matrix(1.83618 3.04014e-08 0.00759348 1.8 276.264 109.541)" d="M0 -5C2.76142 -5 5 -2.6495 5 0.25C5 3.1495 2.76142 5.5 0 5.5C-2.76142 5.5 -5 3.1495 -5 0.25C-5 -2.6495 -2.76142 -5 0 -5Z"></path>
    <path fill="none" stroke="#131212" stroke-width="1" stroke-linecap="round" stroke-linejoin="round" transform="matrix(2.30699 -0.373724 0.274137 1.69224 254.495 102.845)" d="M1.44192e-06 7.21529e-06L2.92891 -0.71456"></path>
    <path fill="none" stroke="#131212" stroke-width="1" stroke-linecap="round" stroke-linejoin="round" transform="matrix(2.30699 -0.373724 0.274137 1.69224 232.745 102.015)" d="M2.98023e-07 7.48094e-06L4.25731 1.79213"></path>
    <path fill="#131212" transform="matrix(2.47104 -0.400299 0.405754 2.50471 246.53 105.126)" d="M4.54078e-07 -2.15485e-07L1.9614 0.352738L0.91509 1.42246L4.54078e-07 -2.15485e-07Z"></path>
    <path fill="none" stroke="#131212" stroke-width="0.5" stroke-linecap="round" stroke-linejoin="round" transform="matrix(1.93759 -0.313883 0.31816 1.96399 249.589 108.661)" d="M1.18428e-07 -0.711232L-3.72341e-06 1.11019"></path>
    <path fill="#32225E" transform="matrix(1.74285 0.441491 -0.424043 1.74552 243.377 97.2599)" d="M1.87863e-06 -1.92716C1.62851 -1.92716 2.94867 -1.06434 2.94867 -4.39386e-08C2.94867 1.06434 1.62851 1.92716 1.93607e-06 1.92716C-1.6285 1.92716 -2.94867 1.06434 -2.94867 4.39386e-08C-2.94867 -1.06434 -1.6285 -1.92716 1.87863e-06 -1.92716Z"></path>
    <path fill="#32225E" transform="matrix(1.71213 0.433708 -0.412468 1.69787 254.57 96.385)" d="M-7.62939e-06 -1.89918C0.889981 -1.89918 1.61146 -1.04889 1.61146 7.60538e-06C1.61146 1.0489 0.889981 1.8992 -7.62939e-06 1.8992C-0.889997 1.8992 -1.61148 1.0489 -1.61148 7.65341e-06C-1.61148 -1.04889 -0.889997 -1.89918 -7.62939e-06 -1.89918Z"></path>
  </g>
  <path fill="none" stroke="black" stroke-width="4" stroke-linejoin="round" transform="matrix(1.8 0 0 1.8 352.158 171.774)" d="M-11.7479 -12.9046C-11.318 -13.5165 -10.7601 -14.1187 -10.0572 -14.7065C-5.47351 -18.5399 3.93804 -16.1165 4.43081 -14.7065C7.46664 -16.1165 10.8961 -16.6614 15.0174 -13.9738C19.1387 -11.2862 16.2386 -4.86793 16.6118 -4.55444C16.985 -4.24095 25.2116 0.494543 17.5976 8.33766C16.6439 8.92035 15.7365 9.39702 14.8735 9.77867"></path>
  <path fill="#7463A5" transform="matrix(1.8 0 0 1.8 352.158 171.774)" d="M-0.116455 0C-2.60165 -0.66394 -7.05858 1.11792 -10.0572 -2.65576C-13.0559 -6.42944 -14.6409 -10.8732 -10.0572 -14.7065C-5.47351 -18.5399 3.93804 -16.1165 4.43081 -14.7065C7.46664 -16.1165 10.8961 -16.6614 15.0174 -13.9738C19.1387 -11.2862 16.2386 -4.86793 16.6118 -4.55444C16.985 -4.24095 25.2116 0.494543 17.5976 8.33766C2.9012 17.3171 -0.809986 1.11792 -0.116455 0Z"></path>
  <path fill="none" stroke="black" stroke-width="6" stroke-linejoin="round" transform="matrix(1.8 0 0 1.8 171.075 269.42)" d="M-26.4876 2.66053C-30.045 -36.9054 33.1999 -42.5917 36.7573 -3.02581C38.2724 13.8259 40.7999 41.9377 42.3701 59.402C42.9218 65.538 35.4594 77.5702 12.3369 79.9207C-10.7856 82.2712 -20.2393 72.1561 -20.6693 67.3733C-22.2487 49.8068 -25.3695 15.0967 -26.4876 2.66053Z"></path>
  <path fill="none" stroke="black" stroke-width="6" stroke-linecap="round" stroke-linejoin="bevel" transform="matrix(1.8 0 0 1.67094 171.075 179.173)" d="M35.3117 34.8073C36.026 42.6728 36.641 49.4442 36.9587 52.9421C40.8415 95.6945 -22.3605 102.313 -26.2434 59.5608C-27.2181 48.8287 -29.0098 29.1006 -30.1384 16.6743C-31.267 4.24792 -26.6475 -14.1595 -10.6441 -15.8462C-8.94701 -16.0251 -7.38747 -16.1894 -5.94701 -16.3412"></path>
  <path fill="#503F7E" transform="matrix(1.8 0 0 1.8 171.075 269.42)" d="M-26.4876 2.66053C-30.1927 -38.5487 33.0522 -44.235 36.7573 -3.02581C38.2724 13.8259 40.7999 41.9377 42.3701 59.402C42.9218 65.538 35.4594 77.5702 12.3369 79.9207C-10.7856 82.2712 -20.2393 72.1561 -20.6693 67.3733C-22.2487 49.8068 -25.3695 15.0967 -26.4876 2.66053Z"></path>
  <path fill="#503F7E" transform="matrix(1.8 0 0 1.67094 171.075 179.173)" d="M-30.1384 16.6743C-31.267 4.24792 -26.6475 -14.1595 -10.6441 -15.8462C5.3593 -17.5328 9.13121 -17.9304 16.1619 -18.6714C23.1925 -19.4123 30.681 -16.1794 32.1003 -0.551979C33.5196 15.0755 36.1656 44.2097 36.9587 52.9421C40.3741 90.5476 -22.828 97.1663 -26.2434 59.5608C-27.2181 48.8287 -29.0098 29.1006 -30.1384 16.6743Z"></path>
</svg>