<?xml version="1.0" encoding="utf-8"?>
<svg xmlns="http://www.w3.org/2000/svg" xmlns:xlink="http://www.w3.org/1999/xlink" width="512" height="512">
  <path fill="none" stroke="black" stroke-width="6" stroke-linejoin="round" transform="matrix(1.8 0 0 1.52279 359.051 171.708)" d="M-13.8796 -17.4059C-10.1246 -17.6303 -7.43998 -17.7907 -3.95951 -17.9987C3.09571 -18.4202 10.4182 -14.8497 11.0888 0.832386C11.7595 16.5144 13.0099 45.7504 13.3846 54.5133C15.2194 97.4151 -48.2014 101.163 -50.0362 58.2608C-50.4968 47.4912 -51.3434 27.6942 -51.8767 15.2244C-52.41 2.75469 -46.9184 -15.4317 -30.8591 -16.3913C-29.7357 -16.4584 -28.6723 -16.522 -27.6637 -16.5822"></path>
  <path fill="none" stroke="black" stroke-width="6" stroke-linejoin="round" transform="matrix(1.8 0 0 1.64041 359.051 253.954)" d="M-50.0119 -3.23721C-45.3478 -45.6566 17.757 -39.2969 13.093 3.12246C11.2415 19.9615 8.15295 48.0522 6.23419 65.5033C5.56004 71.6347 -4.13517 82.0441 -27.2602 79.9857C-50.3853 77.9274 -57.6472 66.2061 -57.1217 61.4269C-55.1917 43.8736 -51.3782 9.18963 -50.0119 -3.23721Z"></path>
  <path fill="#503F7E" transform="matrix(1.8 0 0 1.52279 359.051 171.708)" d="M-51.8767 15.2244C-52.41 2.75469 -46.9184 -15.4317 -30.8591 -16.3913C-14.7998 -17.3509 -11.0147 -17.5771 -3.95951 -17.9987C3.09571 -18.4202 10.4182 -14.8497 11.0888 0.83239C11.7595 16.5144 13.0098 45.7504 13.3846 54.5133C15.2194 97.4151 -48.2014 101.163 -50.0362 58.2608C-50.4968 47.4912 -51.3434 27.6942 -51.8767 15.2244Z"></path>
  <path fill="#503F7E" transform="matrix(1.8 0 0 1.64041 359.051 253.954)" d="M-50.0119 -3.23721C-45.3478 -45.6566 17.757 -39.2969 13.093 3.12246C11.2415 19.9615 8.15295 48.0522 6.23419 65.5033C5.56004 71.6347 -4.13517 82.0441 -27.2602 79.9857C-50.3853 77.9274 -57.6472 66.2061 -57.1217 61.4269C-55.1917 43.8736 -51.3782 9.18963 -50.0119 -3.23721Z"></path>
  <path fill="none" stroke="black" stroke-width="5" stroke-linejoin="round" transform="matrix(1.67985 0 0 1.8 269.501 356.202)" d="M-10.7534 -15.3535C7.15903 -18.4919 30.8452 -10.7216 30.0318 35.7058C30.2203 49.5274 27.5748 70.5225 11.4315 75.768C0.0416641 73.8747 -12.8446 72.6562 -29.0309 69.83C-38.2009 59.7807 -31.6263 50.3575 -31.8803 33.8762C-31.686 -11.6758 -28.6659 -12.2151 -10.7534 -15.3535Z"></path>
  <path fill="#453279" transform="matrix(1.67985 0 0 1.8 269.501 356.202)" d="M-10.7534 -15.3535C7.15903 -18.4919 30.8452 -10.7216 30.0318 35.7058C30.2203 49.5274 27.5748 70.5225 11.4315 75.768C0.0416641 73.8747 -12.8446 72.6562 -29.0309 69.83C-38.2009 59.7807 -31.6263 50.3575 -31.8803 33.8762C-31.686 -11.6758 -28.6659 -12.2151 -10.7534 -15.3535Z"></path>
  <path fill="none" stroke="black" stroke-width="5" stroke-linejoin="round" transform="matrix(1.67985 0 0 1.8 191.63 362.835)" d="M9.78259 -14.348C28.0065 -14.1286 40.8935 -9.80109 40.2384 37.5838C40.5928 56.4661 43.2373 69.154 27.6926 75.6393C12.219 76.0108 1.53196 76.2172 -13.3045 75.8769C-28.0692 69.1636 -23.3137 52.4134 -22.954 35.9199C-22.9274 -10.5695 -8.44129 -14.5675 9.78259 -14.348Z"></path>
  <path fill="none" stroke="black" stroke-width="5" stroke-linejoin="round" transform="matrix(1.79976 0.0276995 -0.0293645 1.69771 274.681 281.766)" d="M-11.3238 -80.2543C25.8014 -80.2543 54.9476 -94.6926 58.9092 -40.8672C62.8708 12.9582 37.0524 74.7499 0.0572909 75.3534C-14.1177 75.5847 -17.7665 75.6442 -48.2096 76.1409C-78.6526 76.6376 -84.25 60.12 -84.25 0C-86.6294 -86.0849 -88.6034 -78.4854 -12.7475 -80.2208"></path>
  <path fill="#503F7E" transform="matrix(1.67985 0 0 1.8 191.63 362.835)" d="M9.78259 -14.348C28.0065 -14.1286 40.8935 -9.80109 40.2384 37.5838C40.5928 56.4661 43.2373 69.154 27.6926 75.6393C12.219 76.0108 1.53196 76.2172 -13.3045 75.8769C-28.0692 69.1636 -23.3137 52.4134 -22.954 35.9199C-22.9274 -10.5695 -8.44129 -14.5675 9.78259 -14.348Z"></path>
  <path fill="none" stroke="black" stroke-width="5" stroke-linejoin="round" transform="matrix(1.53139 0 0 1.39334 226.981 127.701)" d="M0 -40C20.9426 -40 35.0096 -26.8589 47.8597 -2.20018C49.1253 -3.81499 50.3123 -3.57653 51.1974 -3.11682C52.0824 -2.65711 52.5509 -1.60562 52.2206 -0.665342C53.8523 0.0631991 55.2854 1.47333 55.8775 2.67698C56.9197 4.79566 57.6743 10.5072 53.7931 11.8212C58.5977 31.9882 20.3682 22.0914 -1.32962e-05 22.0914C-20.2357 22.0914 -45.0732 28.3281 -41.8836 12.9784C-44.6787 11.8212 -48.2008 8.95144 -46.5316 4.29175C-45.7036 1.98006 -43.8185 0.567089 -42.3936 0.566997C-41.0392 0.56691 -42.9934 -2.2 -40.2188 -3.81491C-39.0195 -4.51291 -37.7273 -4.43211 -36.6068 -4.12355C-28.0141 -23.7311 -20.4124 -40 0 -40Z"></path>
  <path fill="#503F7E" transform="matrix(1.79976 0.0276995 -0.0293645 1.69771 274.681 281.766)" d="M-11.3238 -80.2543C25.8014 -80.2543 54.9476 -94.6926 58.9092 -40.8672C62.8708 12.9582 37.0524 74.7499 0.0572909 75.3534C-14.1177 75.5847 -17.7665 75.6442 -48.2096 76.1409C-78.6526 76.6376 -84.25 60.12 -84.25 0C-86.6442 -86.62 -88.6279 -78.3873 -11.3238 -80.2543Z"></path>
  <clipPath id="cl_663">
    <path d="M256.658 145.204C323.474 146.232 376.354 122.527 381.904 214.017C387.453 305.507 339.172 409.696 272.572 409.696C247.053 409.696 240.485 409.696 185.68 409.696C130.875 409.696 121.286 381.499 123.052 279.432C121.286 132.31 117.474 146.232 256.658 145.204Z"></path>
  </clipPath>
  <g clip-path="url(#cl_663)">
    <path fill="#655494" transform="matrix(1.8 0 0 1.8 311.807 263.845)" d="M-0.158648 -48.2655C25.513 -48.2655 46.324 -26.6563 46.324 0C46.324 26.6563 25.513 48.2655 -0.158648 48.2655C-25.8303 48.2655 -46.6413 26.6563 -46.6413 0C-46.6413 -26.6563 -25.8303 -48.2655 -0.158648 -48.2655Z"></path>
  </g>
  <path fill="none" stroke="black" stroke-width="2" stroke-linejoin="round" transform="matrix(3.88825 -0.763212 0.691401 3.5224 233.781 49.4525)" d="M-4.34758 -5.25471C-4.34759 -11.5047 3.66088 -11.5047 3.66088 -5.25471C3.66088 0.995287 3.66088 12.5 3.66088 12.5L-4.57314 12.5C-4.57314 12.5 -4.34758 0.995288 -4.34758 -5.25471Z"></path>
  <path fill="none" stroke="black" stroke-width="2" stroke-linejoin="round" transform="matrix(3.5224 -0.691401 0.691401 3.5224 199.573 54.8653)" d="M-5.16451 -6.50117C-5.16451 -12.7512 6 -12.7512 6 -6.50117C6 -0.25117 6 12.5 6 12.5L-6 12.5C-6 12.5 -5.1645 -0.251171 -5.16451 -6.50117Z"></path>
  <path fill="#453279" transform="matrix(3.88825 -0.763212 0.691401 3.5224 233.781 49.4525)" d="M-4.34758 -5.25471C-4.34759 -11.5047 3.66088 -11.5047 3.66088 -5.25471C3.66088 0.995287 3.66088 12.5 3.66088 12.5L-4.57314 12.5C-4.57314 12.5 -4.34758 0.995288 -4.34758 -5.25471Z"></path>
  <path fill="none" stroke="#161616" stroke-width="0.5" stroke-linecap="round" stroke-linejoin="round" transform="matrix(3.88825 -0.763212 0.691401 3.5224 228.988 29.9208)" d="M5.02231e-06 1.51652L4.30753e-06 10.5382"></path>
  <path fill="#503F7E" transform="matrix(3.5224 -0.691401 0.691401 3.5224 199.573 54.8653)" d="M-5.1645 -6.50117C-5.1645 -12.7512 6 -12.7512 6 -6.50117C6 -0.25117 6 12.5 6 12.5L-6 12.5C-6 12.5 -5.1645 -0.251171 -5.1645 -6.50117Z"></path>
  <path fill="none" stroke="#161616" stroke-width="0.5" stroke-linecap="round" stroke-linejoin="round" transform="matrix(3.5224 -0.691401 0.691401 3.5224 199.787 34.8468)" d="M9.72213e-07 -3.7882e-06L4.78691e-06 10.5382"></path>
  <path fill="none" stroke="black" stroke-width="7" stroke-linejoin="round" transform="translate(256 256)" d="M-80.7043 -152.001L23.4611 -166.779C23.4611 -166.779 8.93091 -237.951 -38.3357 -229.865C-40.8238 -229.439 -42.9692 -228.454 -44.8635 -227.093C-45.7395 -218.545 -48.4884 -202.236 -72.5601 -200.814C-82.6104 -178.418 -80.7043 -152.001 -80.7043 -152.001Z"></path>
  <path fill="none" stroke="black" stroke-width="7" stroke-miterlimit="4" transform="translate(256 256)" d="M-37.4158 -237.397C-32.4945 -238.095 -27.939 -234.671 -27.2408 -229.75C-26.5427 -224.829 -29.9662 -220.273 -34.8875 -219.575C-39.8088 -218.877 -44.3642 -222.301 -45.0624 -227.222C-45.7606 -232.143 -42.3371 -236.699 -37.4158 -237.397Z"></path>
  <path fill="#E3CEC2" transform="matrix(0.556923 -0.0790095 0.0790095 0.556923 219.848 27.514)" d="M-4.76837e-07 -16C8.83656 -16 16 -8.83659 16 -3.05176e-05C16 8.83653 8.83656 16 -4.76837e-07 16C-8.83656 16 -16 8.83653 -16 -3.05176e-05C-16 -8.83659 -8.83656 -16 -4.76837e-07 -16Z"></path>
  <path fill="#8D5A3E" transform="matrix(0.556923 -0.0790095 0.0790095 0.556923 167.819 105.06)" d="M13.4248 -3.05176e-05L200.462 -3.05176e-05C200.462 -3.05176e-05 192.659 -128.902 107.443 -126.472C102.958 -126.344 98.9354 -125.146 95.2612 -123.223C91.5849 -108.397 82.6739 -80.3767 39.9489 -83.8848C16.6664 -46.9736 13.4248 -3.05176e-05 13.4248 -3.05176e-05Z"></path>
  <path fill="#4A4848" transform="matrix(0.504494 -0.0715715 0.0228078 0.160768 226.176 86.1298)" d="M3.8147e-06 -116.5C64.3412 -116.5 116.5 -64.3412 116.5 3.47197e-06C116.5 64.3412 64.3412 116.5 3.8147e-06 116.5C-64.3412 116.5 -116.5 64.3412 -116.5 -3.47197e-06C-116.5 -64.3412 -64.3412 -116.5 3.8147e-06 -116.5Z"></path>
  <path fill="none" stroke="black" stroke-width="7" stroke-miterlimit="4" transform="translate(256 256)" d="M-31.2787 -178.119C4.55437 -183.203 34.7925 -178.939 36.2599 -168.595C37.7274 -158.251 9.86859 -145.744 -25.9645 -140.66C-61.7976 -135.577 -92.0357 -139.841 -93.5032 -150.185C-94.9707 -160.529 -67.1119 -173.036 -31.2787 -178.119Z"></path>
  <path fill="#C9B1AA" transform="matrix(0.556923 -0.0790095 0.0228078 0.160768 227.378 96.6101)" d="M-0.519164 93.3574C63.822 93.3574 81.6545 -40.5053 116.5 0.00012207C116.333 7.78615 114.666 35.3785 103.443 64.6425C92.2186 93.9065 32.9112 142.08 1.25538 142.08C-34.5183 142.08 -86.5851 95.3332 -99.0913 78.983C-111.597 62.6328 -116.509 26.4159 -116.5 0.00012207C-66.3811 -27.3189 -64.8603 93.3574 -0.519164 93.3574Z"></path>
  <path fill="#65524C" transform="matrix(0.447062 -0.0634237 0.0183086 0.129054 227.378 96.6101)" d="M-1.90735e-06 -116.5C64.3412 -116.5 116.5 -64.3412 116.5 0C116.5 64.3412 64.3412 116.5 -1.90735e-06 116.5C-64.3412 116.5 -116.5 64.3412 -116.5 0C-116.5 -64.3412 -64.3412 -116.5 -1.90735e-06 -116.5Z"></path>
  <clipPath id="cl_664">
    <path d="M225.245 81.5753C254.01 77.4945 278.283 80.9177 279.461 89.2212C280.639 97.5247 258.276 107.564 229.511 111.645C200.747 115.726 176.474 112.302 175.296 103.999C174.118 95.6954 196.481 85.656 225.245 81.5753Z"></path>
  </clipPath>
  <g clip-path="url(#cl_664)">
    <path fill="#857069" transform="matrix(1.7889 -0.253787 0.253787 1.7889 185.346 86.6654)" d="M6.3453 -18.4774C15.1819 -18.4774 19.9785 -8.83656 25.4977 -1.49012e-07C40.8822 25.7165 8.83656 21.8364 6.85453e-07 19.1869C-8.83656 16.5373 -16 8.83656 -16 0C-16 -8.83656 -2.49126 -18.4774 6.3453 -18.4774Z"></path>
  </g>
  <clipPath id="cl_665">
    <path d="M175.296 103.999L279.461 89.2212C279.461 89.2212 264.931 18.0493 217.664 26.1354C215.176 26.5611 213.031 27.5458 211.137 28.9074C210.26 37.4546 207.512 53.7639 183.44 55.1859C173.39 77.5821 175.296 103.999 175.296 103.999Z"></path>
  </clipPath>
  <g clip-path="url(#cl_665)">
    <path fill="#65524C" transform="matrix(0.682449 -0.0968176 0.0594143 0.4188 197.489 35.7084)" d="M7.62939e-06 -50.5001C11.1424 -50.5001 26.7229 -45.7372 27.5442 -33.3093C28.6357 -16.7926 29.2617 -6.93549 29.2617 5.94986C29.2617 33.8402 20.7107 50.4999 7.62939e-06 50.4999C-20.7107 50.4999 -29.0363 45.6071 -29.0363 17.7167C-29.0363 -10.1737 -20.7107 -50.5001 7.62939e-06 -50.5001Z"></path>
    <path fill="#714035" transform="matrix(0.298708 -0.253155 0.253155 0.298708 247.279 41.5862)" d="M-46.3835 -19.9076C-36.9946 -19.9076 -29.3835 -27.5187 -29.3835 -36.9076L29.3834 -36.9076C29.3834 -27.5187 36.9946 -19.9076 46.3834 -19.9076L46.3834 19.9076C36.9946 19.9076 29.3834 27.5187 29.3834 36.9076L-29.3835 36.9076C-29.3835 27.5187 -36.9946 19.9076 -46.3835 19.9076L-46.3835 -19.9076Z"></path>
  </g>
  <clipPath id="cl_667">
    <path d="M194.489 14.559C202.093 13.4802 213.009 13.9664 214.308 19.0917C216.034 25.9033 217.047 29.9708 217.812 35.3672C219.47 47.0477 214.624 54.8527 200.49 56.8578C186.356 58.863 180.383 57.6199 178.726 45.9394C177.069 34.2589 180.355 16.5642 194.489 14.559Z"></path>
  </clipPath>
  <g clip-path="url(#cl_667)">
    <clipPath id="cl_668">
      <path d="M175.296 103.999L279.461 89.2212C279.461 89.2212 264.931 18.0493 217.664 26.1354C215.176 26.5611 213.031 27.5458 211.137 28.9074C210.26 37.4546 207.512 53.7639 183.44 55.1859C173.39 77.5821 175.296 103.999 175.296 103.999Z"></path>
    </clipPath>
    <g clip-path="url(#cl_668)">
      <path fill="#857069" transform="matrix(1.7889 -0.253787 0.253787 1.7889 180.999 58.0233)" d="M1.90735e-06 -16C8.83656 -16 12.0102 -8.83656 16.201 -1.21452e-06C20.3918 8.83655 8.83656 16 1.90735e-06 16C-8.83655 16 -16 8.83656 -16 0C-16 -8.83656 -8.83655 -16 1.90735e-06 -16Z"></path>
    </g>
  </g>
  <path fill="none" stroke="black" stroke-width="7" stroke-linejoin="round" transform="translate(256 256)" d="M-93.5032 -150.185C-95.0405 -161.021 -91.943 -163.979 -91.943 -163.979C-88.9473 -168.2 -85.2611 -171.8 -80.3362 -174.909"></path>
  <path fill="none" stroke="black" stroke-width="7" stroke-linejoin="round" transform="translate(256 256)" d="M16.9672 -188.837C24.1615 -187.121 29.2528 -184.382 32.2574 -180.81C32.2574 -180.81 36.6506 -177.382 36.3866 -170.163"></path>
  <path fill="#503F7E" transform="matrix(1.53139 0 0 1.39334 226.981 127.701)" d="M0 -40C20.9426 -40 35.0096 -26.8589 47.8597 -2.20018C49.1253 -3.81499 50.3123 -3.57653 51.1974 -3.11682C52.0824 -2.65711 52.5509 -1.60562 52.2206 -0.665342C53.8523 0.0631991 55.2854 1.47333 55.8775 2.67698C56.9197 4.79566 57.6743 10.5072 53.7931 11.8212C58.5977 31.9882 20.3682 22.0914 -1.32962e-05 22.0914C-20.2357 22.0914 -45.0732 28.3281 -41.8836 12.9784C-44.6787 11.8212 -48.2008 8.95144 -46.5316 4.29175C-45.7036 1.98006 -43.8185 0.567089 -42.3936 0.566997C-41.0392 0.56691 -42.9934 -2.2 -40.2188 -3.81491C-39.0195 -4.51291 -37.7273 -4.43211 -36.6068 -4.12355C-28.0141 -23.7311 -20.4124 -40 0 -40Z"></path>
  <path fill="#E3CEC2" transform="matrix(0.556923 -0.0790095 0.0790095 0.556923 162.497 105.815)" d="M0 3.05176e-05C0 -19.4564 6.19051 -23.8887 6.19051 -23.8887C25.0053 -43.7609 53.1913 -52.4203 117 -52.4203C180.809 -52.4203 217.711 -40.5795 229.005 -22.5C229.005 -22.5 236.876 -14.3388 233 0C233 0 222.592 -33.1384 117.06 -33.1384C11.5269 -33.1384 0 3.05176e-05 0 3.05176e-05Z"></path>
  <path fill="#C9B1AA" transform="matrix(0.556923 -0.0790095 0.0228078 0.160768 227.378 96.6101)" d="M0 -116.5C64.3412 -116.5 116.5 -64.3411 116.5 0.00012207C116.333 7.78615 114.079 -0.846809 92.5947 -2.56873C90.1363 -68.643 33.7083 -93.0963 2.0524 -93.0963C-33.7213 -93.0963 -91.7603 -68.5194 -92.7458 3.01578C-107.568 13.6072 -116.5 28.5676 -116.5 0.00012207C-116.5 -64.3411 -64.3412 -116.5 0 -116.5Z"></path>
  <clipPath id="cl_669">
    <path d="M194.489 14.559C202.093 13.4802 213.009 13.9664 214.308 19.0917C216.034 25.9033 217.047 29.9708 217.812 35.3672C219.47 47.0477 214.624 54.8527 200.49 56.8578C186.356 58.863 180.383 57.6199 178.726 45.9394C177.069 34.2589 180.355 16.5642 194.489 14.559Z"></path>
  </clipPath>
  <g clip-path="url(#cl_669)">
    <path fill="#503F7E" transform="matrix(3.5224 -0.691401 0.691401 3.5224 199.573 54.8653)" d="M-5.1645 -6.50117C-5.1645 -12.7512 6 -12.7512 6 -6.50117C6 -0.25117 6 12.5 6 12.5L-6 12.5C-6 12.5 -5.1645 -0.251171 -5.1645 -6.50117Z"></path>
    <path fill="none" stroke="#161616" stroke-width="0.5" stroke-linecap="round" stroke-linejoin="round" transform="matrix(3.5224 -0.691401 0.691401 3.5224 199.787 34.8468)" d="M9.72213e-07 -3.7882e-06L4.78691e-06 10.5382"></path>
  </g>
  <clipPath id="cl_66b">
    <path d="M226.981 71.9669C259.053 71.9669 280.595 90.277 300.273 124.635C302.211 122.385 304.029 122.717 305.384 123.358C306.74 123.998 307.457 125.463 306.951 126.774C309.45 127.789 311.645 129.754 312.551 131.431C314.148 134.383 315.303 142.341 309.359 144.172C316.717 172.271 258.173 158.482 226.981 158.482C195.993 158.482 157.957 167.171 162.842 145.784C158.561 144.172 153.168 140.173 155.724 133.681C156.992 130.46 159.879 128.491 162.061 128.491C164.135 128.491 161.142 124.635 165.391 122.385C167.228 121.413 169.206 121.525 170.922 121.955C184.081 94.6351 195.722 71.9669 226.981 71.9669Z"></path>
  </clipPath>
  <g clip-path="url(#cl_66b)">
    <path fill="#7463A5" transform="matrix(1.8 2.98023e-08 0.00759348 1.8 223.715 112.558)" d="M0 -5.5C3.86599 -5.5 7 -2.92564 7 0.25C7 3.42564 3.86599 6 0 6C-3.86599 6 -7 3.42564 -7 0.25C-7 -2.92564 -3.86599 -5.5 0 -5.5Z"></path>
    <path fill="#7463A5" transform="matrix(1.83618 3.04014e-08 0.00759348 1.8 276.264 104.412)" d="M9.53674e-07 -5.00001C2.76142 -5.00001 5 -2.6495 5 0.249992C5 3.14949 2.76142 5.49999 9.53674e-07 5.49999C-2.76142 5.49999 -5 3.14949 -5 0.249992C-5 -2.6495 -2.76142 -5.00001 9.53674e-07 -5.00001Z"></path>
    <path fill="none" stroke="#131212" stroke-width="1" stroke-linecap="round" stroke-linejoin="round" transform="matrix(2.30699 -0.373724 0.274137 1.69224 254.495 97.716)" d="M4.88246e-07 7.21529e-06L2.92891 -0.71456"></path>
    <path fill="none" stroke="#131212" stroke-width="1" stroke-linecap="round" stroke-linejoin="round" transform="matrix(2.30699 -0.373724 0.274137 1.69224 232.745 96.8863)" d="M4.76837e-07 -7.77785e-06L4.25731 1.79212"></path>
    <path fill="#131212" transform="matrix(2.47104 -0.400299 0.405754 2.50471 246.53 99.9966)" d="M-2.27592e-08 -2.15485e-07L1.9614 0.352738L0.91509 1.42246L-2.27592e-08 -2.15485e-07Z"></path>
    <path fill="none" stroke="#131212" stroke-width="0.5" stroke-linecap="round" stroke-linejoin="round" transform="matrix(1.93759 -0.313883 0.31816 1.96399 249.589 103.532)" d="M1.18428e-07 -0.711232L-3.72341e-06 1.11019"></path>
    <path fill="#32225E" transform="matrix(1.74285 0.441491 -0.424043 1.74552 243.377 92.1309)" d="M-1.93607e-06 -1.92716C1.6285 -1.92716 2.94867 -1.06435 2.94867 -7.67333e-06C2.94867 1.06433 1.6285 1.92715 -1.87863e-06 1.92715C-1.62851 1.92715 -2.94867 1.06433 -2.94867 -7.58546e-06C-2.94867 -1.06435 -1.62851 -1.92716 -1.93607e-06 -1.92716Z"></path>
    <path fill="#32225E" transform="matrix(1.71213 0.433708 -0.412468 1.69787 254.57 91.256)" d="M-5.72205e-06 -1.89918C0.889983 -1.89918 1.61146 -1.04889 1.61146 7.60538e-06C1.61146 1.0489 0.889983 1.8992 -5.72205e-06 1.8992C-0.889995 1.8992 -1.61147 1.0489 -1.61147 7.65341e-06C-1.61147 -1.04889 -0.889995 -1.89918 -5.72205e-06 -1.89918Z"></path>
  </g>
  <path fill="none" stroke="black" stroke-width="4" stroke-linejoin="round" transform="matrix(1.8 0 0 1.8 352.158 166.645)" d="M-11.7479 -12.9046C-11.318 -13.5165 -10.7601 -14.1187 -10.0572 -14.7065C-5.47351 -18.5399 3.93804 -16.1165 4.43081 -14.7065C7.46664 -16.1165 10.8961 -16.6614 15.0174 -13.9738C19.1387 -11.2862 16.2386 -4.86793 16.6118 -4.55444C16.985 -4.24095 25.2116 0.494543 17.5976 8.33766C16.6439 8.92035 15.7365 9.39702 14.8735 9.77867"></path>
  <path fill="#7463A5" transform="matrix(1.8 0 0 1.8 352.158 166.645)" d="M-0.116455 0C-2.60165 -0.66394 -7.05858 1.11792 -10.0572 -2.65576C-13.0559 -6.42944 -14.6409 -10.8732 -10.0572 -14.7065C-5.47351 -18.5399 3.93804 -16.1165 4.43081 -14.7065C7.46664 -16.1165 10.8961 -16.6614 15.0174 -13.9738C19.1387 -11.2862 16.2386 -4.86793 16.6118 -4.55444C16.985 -4.24095 25.2116 0.494543 17.5976 8.33766C2.9012 17.3171 -0.809986 1.11792 -0.116455 0Z"></path>
  <path fill="none" stroke="black" stroke-width="6" stroke-linejoin="round" transform="matrix(1.8 0 0 1.8 163.819 264.291)" d="M-33.345 -1.41429C-31.548 -41.0991 31.887 -38.2266 30.09 1.45826C29.3246 18.3606 28.0478 46.557 27.2546 64.0737C26.9759 70.2282 17.9628 81.1472 -5.26575 80.3661C-28.4943 79.585 -36.5015 68.2902 -36.2842 63.493C-35.4864 45.8737 -33.9099 11.0593 -33.345 -1.41429Z"></path>
  <path fill="none" stroke="black" stroke-width="6" stroke-linecap="round" stroke-linejoin="bevel" transform="matrix(1.8 0 0 1.67094 163.819 174.044)" d="M30.646 39.6393C30.3727 47.5087 30.1375 54.2795 30.0159 57.7818C28.5251 100.708 -34.9291 98.1087 -33.4382 55.1822C-33.064 44.4064 -32.376 24.598 -31.9427 12.1211C-31.5094 -0.355877 -24.6334 -17.9267 -8.56483 -17.2791C-6.76733 -17.2066 -5.12351 -17.1404 -3.6116 -17.0795"></path>
  <path fill="#503F7E" transform="matrix(1.8 0 0 1.8 163.819 264.291)" d="M-33.345 -1.41429C-31.4733 -42.7474 31.9617 -39.8748 30.09 1.45826C29.3246 18.3606 28.0478 46.5569 27.2546 64.0737C26.9759 70.2282 17.9628 81.1472 -5.26575 80.3661C-28.4943 79.585 -36.5015 68.2902 -36.2842 63.493C-35.4864 45.8737 -33.9099 11.0593 -33.345 -1.41429Z"></path>
  <path fill="#503F7E" transform="matrix(1.8 0 0 1.67094 163.819 174.044)" d="M-31.9427 12.1211C-31.5094 -0.355881 -24.6334 -17.9267 -8.56483 -17.2791C7.50375 -16.6315 11.291 -16.4789 18.3503 -16.1943C25.4096 -15.9098 32.4263 -11.6212 31.8813 4.06987C31.3364 19.761 30.3204 49.0138 30.0159 57.7818C28.7046 95.5404 -34.7496 92.9409 -33.4382 55.1822C-33.064 44.4064 -32.376 24.598 -31.9427 12.1211Z"></path>
</svg>