<?xml version="1.0" encoding="utf-8"?>
<svg xmlns="http://www.w3.org/2000/svg" xmlns:xlink="http://www.w3.org/1999/xlink" width="512" height="512">
  <path fill="none" stroke="black" stroke-width="6" stroke-linejoin="round" transform="matrix(1.8 0 0 1.52279 359.051 178.626)" d="M-11.2563 -15.9533C-7.78558 -15.5505 -5.20188 -15.2506 -1.89892 -14.8673C5.1315 -14.0514 11.9269 -9.24044 10.6289 6.38649C9.33087 22.0134 6.91095 51.1466 6.18562 59.8788C2.63454 102.63 -60.5581 95.2533 -57.007 52.5024C-56.1156 41.7706 -54.477 22.0432 -53.4448 9.61729C-52.4127 -2.80863 -44.7068 -19.8355 -28.704 -17.9783C-27.361 -17.8224 -26.1041 -17.6765 -24.9243 -17.5396"></path>
  <path fill="none" stroke="black" stroke-width="6" stroke-linejoin="round" transform="matrix(1.8 0 0 1.64041 359.051 260.872)" d="M-55.8988 -8.96031C-44.949 -49.985 16.3666 -32.5347 5.41682 8.48994C1.07012 24.7754 -6.18098 51.9425 -10.6857 68.8198C-12.2684 74.7496 -23.3926 83.3024 -45.9027 77.1762C-68.4128 71.0501 -73.8243 58.1998 -72.5907 53.5778C-68.0596 36.6016 -59.1065 3.05796 -55.8988 -8.96031Z"></path>
  <path fill="#503F7E" transform="matrix(1.8 0 0 1.52279 359.051 178.626)" d="M-53.4448 9.6173C-52.4127 -2.80863 -44.7068 -19.8355 -28.704 -17.9782C-12.7011 -16.121 -8.92936 -15.6832 -1.89892 -14.8673C5.1315 -14.0514 11.9269 -9.24043 10.6289 6.3865C9.33087 22.0134 6.91095 51.1467 6.18562 59.8788C2.63454 102.63 -60.5581 95.2534 -57.007 52.5024C-56.1156 41.7706 -54.477 22.0432 -53.4448 9.6173Z"></path>
  <path fill="#503F7E" transform="matrix(1.8 0 0 1.64041 359.051 260.872)" d="M-55.8988 -8.96031C-44.949 -49.985 16.3666 -32.5347 5.41682 8.48994C1.07012 24.7754 -6.18098 51.9425 -10.6857 68.8198C-12.2684 74.7496 -23.3926 83.3024 -45.9027 77.1762C-68.4128 71.0501 -73.8243 58.1998 -72.5907 53.5778C-68.0596 36.6016 -59.1065 3.05796 -55.8988 -8.96031Z"></path>
  <path fill="none" stroke="black" stroke-width="5" stroke-linejoin="round" transform="matrix(1.67985 0 0 1.8 269.501 356.202)" d="M-48.3811 -15.1898C-30.6503 -19.1255 -5.23008 -11.2582 -5.20299 34.8607C-4.76724 48.5837 -7.90452 70.6698 -24.3627 75.9156C-35.6754 73.6549 -48.5086 72.0202 -64.5802 68.6721C-73.3378 58.1873 -66.1711 50.3767 -66.7197 34.0134C-67.3458 -11.2264 -66.1119 -11.2541 -48.3811 -15.1898Z"></path>
  <path fill="#453279" transform="matrix(1.67985 0 0 1.8 269.501 356.202)" d="M-48.3811 -15.1898C-30.6503 -19.1255 -5.23008 -11.2582 -5.20299 34.8607C-4.76724 48.5837 -7.90452 70.6698 -24.3627 75.9156C-35.6754 73.6549 -48.5086 72.0202 -64.5802 68.6721C-73.3378 58.1873 -66.1711 50.3767 -66.7197 34.0134C-67.3458 -11.2264 -66.1119 -11.2541 -48.3811 -15.1898Z"></path>
  <path fill="none" stroke="black" stroke-width="5" stroke-linejoin="round" transform="matrix(1.67985 0 0 1.8 191.63 362.835)" d="M45.1315 -14.3493C63.3532 -14.0076 76.2065 -9.59377 75.1865 37.7855C75.3954 56.6697 77.9612 69.215 62.3776 75.6303C46.904 76.0019 36.217 76.2083 21.3805 75.8679C6.65658 69.0801 11.5218 52.1884 12.0086 35.6977C12.3932 -10.7903 26.9097 -14.691 45.1315 -14.3493Z"></path>
  <path fill="none" stroke="black" stroke-width="5" stroke-linejoin="round" transform="matrix(1.79976 0.0276995 -0.0293645 1.69771 274.681 288.684)" d="M-11.3238 -80.2543C25.8014 -80.2543 54.9476 -94.6926 58.9092 -40.8672C62.8708 12.9582 37.0524 74.7499 0.0572909 75.3534C-14.1177 75.5847 -17.7665 75.6442 -48.2096 76.1409C-78.6526 76.6376 -84.25 60.12 -84.25 1.90735e-06C-86.6294 -86.0849 -88.6034 -78.4854 -12.7475 -80.2208"></path>
  <path fill="#503F7E" transform="matrix(1.67985 0 0 1.8 191.63 362.835)" d="M45.1315 -14.3493C63.3532 -14.0076 76.2065 -9.59377 75.1865 37.7855C75.3954 56.6697 77.9612 69.215 62.3776 75.6303C46.904 76.0019 36.217 76.2083 21.3805 75.8679C6.65658 69.0801 11.5218 52.1884 12.0086 35.6977C12.3932 -10.7903 26.9097 -14.691 45.1315 -14.3493Z"></path>
  <path fill="none" stroke="black" stroke-width="5" stroke-linejoin="round" transform="matrix(1.53139 0 0 1.39334 226.981 134.619)" d="M0 -40C20.9426 -40 35.0096 -26.8589 47.8597 -2.20018C49.1253 -3.81499 50.3123 -3.57653 51.1974 -3.11682C52.0824 -2.65711 52.5509 -1.60562 52.2206 -0.665342C53.8523 0.0631991 55.2854 1.47333 55.8775 2.67698C56.9197 4.79566 57.6743 10.5072 53.7931 11.8212C58.5977 31.9882 20.3682 22.0914 -1.32962e-05 22.0914C-20.2357 22.0914 -45.0732 28.3281 -41.8836 12.9784C-44.6787 11.8212 -48.2008 8.95144 -46.5316 4.29175C-45.7036 1.98006 -43.8185 0.567089 -42.3936 0.566997C-41.0392 0.56691 -42.9934 -2.2 -40.2188 -3.81491C-39.0195 -4.51291 -37.7273 -4.43211 -36.6068 -4.12355C-28.0141 -23.7311 -20.4124 -40 0 -40Z"></path>
  <path fill="#503F7E" transform="matrix(1.79976 0.0276995 -0.0293645 1.69771 274.681 288.684)" d="M-11.3238 -80.2543C25.8014 -80.2543 54.9476 -94.6926 58.9092 -40.8672C62.8708 12.9582 37.0524 74.7499 0.0572909 75.3534C-14.1177 75.5847 -17.7665 75.6442 -48.2096 76.1409C-78.6526 76.6376 -84.25 60.12 -84.25 1.90735e-06C-86.6442 -86.62 -88.6279 -78.3873 -11.3238 -80.2543Z"></path>
  <clipPath id="cl_463">
    <path d="M256.658 152.122C323.474 153.15 376.354 129.445 381.904 220.935C387.453 312.425 339.172 416.614 272.572 416.614C247.053 416.614 240.485 416.614 185.68 416.614C130.875 416.614 121.286 388.417 123.052 286.35C121.286 139.228 117.474 153.15 256.658 152.122Z"></path>
  </clipPath>
  <g clip-path="url(#cl_463)">
    <path fill="#655494" transform="matrix(1.8 0 0 1.8 311.807 270.763)" d="M-0.158648 -48.2655C25.513 -48.2655 46.324 -26.6563 46.324 0C46.324 26.6563 25.513 48.2655 -0.158648 48.2655C-25.8303 48.2655 -46.6413 26.6563 -46.6413 0C-46.6413 -26.6563 -25.8303 -48.2655 -0.158648 -48.2655Z"></path>
  </g>
  <path fill="none" stroke="black" stroke-width="2" stroke-linejoin="round" transform="matrix(3.88825 -0.763212 0.691401 3.5224 233.781 56.3703)" d="M-4.34758 -5.25471C-4.34758 -11.5047 3.66088 -11.5047 3.66088 -5.25471C3.66088 0.995287 3.66088 12.5 3.66088 12.5L-4.57314 12.5C-4.57314 12.5 -4.34758 0.995288 -4.34758 -5.25471Z"></path>
  <path fill="none" stroke="black" stroke-width="2" stroke-linejoin="round" transform="matrix(3.5224 -0.691401 0.691401 3.5224 199.573 61.7831)" d="M-5.1645 -6.50117C-5.1645 -12.7512 6 -12.7512 6 -6.50117C6 -0.251166 6 12.5 6 12.5L-6 12.5C-6 12.5 -5.1645 -0.251167 -5.1645 -6.50117Z"></path>
  <path fill="#453279" transform="matrix(3.88825 -0.763212 0.691401 3.5224 233.781 56.3703)" d="M-4.34758 -5.25471C-4.34758 -11.5047 3.66088 -11.5047 3.66088 -5.25471C3.66088 0.995287 3.66088 12.5 3.66088 12.5L-4.57314 12.5C-4.57314 12.5 -4.34758 0.995288 -4.34758 -5.25471Z"></path>
  <path fill="none" stroke="#161616" stroke-width="0.5" stroke-linecap="round" stroke-linejoin="round" transform="matrix(3.88825 -0.763212 0.691401 3.5224 228.988 36.8387)" d="M4.54547e-06 1.51652L3.83069e-06 10.5382"></path>
  <path fill="#503F7E" transform="matrix(3.5224 -0.691401 0.691401 3.5224 199.573 61.7832)" d="M-5.1645 -6.50117C-5.1645 -12.7512 6 -12.7512 6 -6.50117C6 -0.251166 6 12.5 6 12.5L-6 12.5C-6 12.5 -5.1645 -0.251167 -5.1645 -6.50117Z"></path>
  <path fill="none" stroke="#161616" stroke-width="0.5" stroke-linecap="round" stroke-linejoin="round" transform="matrix(3.5224 -0.691401 0.691401 3.5224 199.787 41.7647)" d="M2.56958e-07 2.6499e-08L4.07165e-06 10.5382"></path>
  <path fill="none" stroke="black" stroke-width="7" stroke-linejoin="round" transform="translate(256 256)" d="M-80.7043 -143.823L23.4611 -158.601C23.4611 -158.601 8.93091 -229.773 -38.3357 -221.687C-40.8238 -221.261 -42.9692 -220.276 -44.8635 -218.915C-45.7395 -210.368 -48.4884 -194.058 -72.5601 -192.636C-82.6104 -170.24 -80.7043 -143.823 -80.7043 -143.823Z"></path>
  <path fill="none" stroke="black" stroke-width="7" stroke-miterlimit="4" transform="translate(256 256)" d="M-37.4158 -229.219C-32.4945 -229.917 -27.939 -226.494 -27.2408 -221.572C-26.5427 -216.651 -29.9662 -212.095 -34.8875 -211.397C-39.8088 -210.699 -44.3642 -214.123 -45.0624 -219.044C-45.7606 -223.965 -42.3371 -228.521 -37.4158 -229.219Z"></path>
  <path fill="#E3CEC2" transform="matrix(0.556923 -0.0790095 0.0790095 0.556923 219.848 35.6919)" d="M-2.86102e-06 -16C8.83655 -16 16 -8.83659 16 -3.05176e-05C16 8.83653 8.83655 16 -2.86102e-06 16C-8.83656 16 -16 8.83653 -16 -3.05176e-05C-16 -8.83659 -8.83656 -16 -2.86102e-06 -16Z"></path>
  <path fill="#8D5A3E" transform="matrix(0.556923 -0.0790095 0.0790095 0.556923 167.819 113.238)" d="M13.4248 0L200.462 -3.05176e-05C200.462 -3.05176e-05 192.659 -128.902 107.443 -126.472C102.958 -126.344 98.9354 -125.146 95.2612 -123.223C91.5849 -108.397 82.6739 -80.3767 39.9489 -83.8848C16.6664 -46.9736 13.4248 0 13.4248 0Z"></path>
  <path fill="#4A4848" transform="matrix(0.504494 -0.0715715 0.0228078 0.160768 226.176 94.3077)" d="M6.67572e-06 -116.5C64.3412 -116.5 116.5 -64.3412 116.5 -5.75632e-05C116.5 64.3411 64.3412 116.5 6.67572e-06 116.5C-64.3412 116.5 -116.5 64.3411 -116.5 -6.45071e-05C-116.5 -64.3412 -64.3412 -116.5 6.67572e-06 -116.5Z"></path>
  <path fill="none" stroke="black" stroke-width="7" stroke-miterlimit="4" transform="translate(256 256)" d="M-31.2787 -169.942C4.55437 -175.025 34.7925 -170.761 36.2599 -160.417C37.7274 -150.073 9.86859 -137.566 -25.9645 -132.483C-61.7976 -127.399 -92.0357 -131.663 -93.5032 -142.007C-94.9707 -152.351 -67.1119 -164.858 -31.2787 -169.942Z"></path>
  <path fill="#C9B1AA" transform="matrix(0.556923 -0.0790095 0.0228078 0.160768 227.378 104.788)" d="M-0.519165 93.3574C63.822 93.3574 81.6545 -40.5053 116.5 0.00012207C116.333 7.78615 114.666 35.3785 103.443 64.6425C92.2186 93.9065 32.9112 142.08 1.25538 142.08C-34.5183 142.08 -86.5851 95.3332 -99.0913 78.983C-111.597 62.6328 -116.509 26.4159 -116.5 0.00012207C-66.3811 -27.3189 -64.8603 93.3574 -0.519165 93.3574Z"></path>
  <path fill="#65524C" transform="matrix(0.447062 -0.0634237 0.0183086 0.129054 227.378 104.788)" d="M-1.90735e-06 -116.5C64.3412 -116.5 116.5 -64.3411 116.5 0.00012207C116.5 64.3413 64.3412 116.5 -1.90735e-06 116.5C-64.3412 116.5 -116.5 64.3413 -116.5 0.00012207C-116.5 -64.3411 -64.3412 -116.5 -1.90735e-06 -116.5Z"></path>
  <clipPath id="cl_464">
    <path d="M225.245 89.7532C254.01 85.6724 278.283 89.0956 279.461 97.3991C280.639 105.703 258.276 115.742 229.511 119.823C200.747 123.904 176.474 120.48 175.296 112.177C174.118 103.873 196.481 93.8339 225.245 89.7532Z"></path>
  </clipPath>
  <g clip-path="url(#cl_464)">
    <path fill="#857069" transform="matrix(1.7889 -0.253787 0.253787 1.7889 185.346 94.8433)" d="M6.3453 -18.4774C15.1819 -18.4774 19.9785 -8.83656 25.4977 -1.49012e-07C40.8822 25.7165 8.83656 21.8364 6.85453e-07 19.1869C-8.83656 16.5373 -16 8.83656 -16 0C-16 -8.83656 -2.49126 -18.4774 6.3453 -18.4774Z"></path>
  </g>
  <clipPath id="cl_465">
    <path d="M175.296 112.177L279.461 97.3991C279.461 97.3991 264.931 26.2272 217.664 34.3133C215.176 34.739 213.031 35.7237 211.137 37.0853C210.26 45.6325 207.512 61.9418 183.44 63.3638C173.39 85.76 175.296 112.177 175.296 112.177Z"></path>
  </clipPath>
  <g clip-path="url(#cl_465)">
    <path fill="#65524C" transform="matrix(0.682449 -0.0968176 0.0594143 0.4188 197.489 43.8863)" d="M3.8147e-06 -50.5C11.1423 -50.5 26.7229 -45.7372 27.5442 -33.3093C28.6357 -16.7925 29.2617 -6.93543 29.2617 5.94992C29.2617 33.8403 20.7107 50.5 3.8147e-06 50.5C-20.7107 50.5 -29.0363 45.6071 -29.0363 17.7168C-29.0363 -10.1736 -20.7107 -50.5 3.8147e-06 -50.5Z"></path>
    <path fill="#714035" transform="matrix(0.298708 -0.253155 0.253155 0.298708 247.279 49.7641)" d="M-46.3834 -19.9075C-36.9946 -19.9075 -29.3834 -27.5187 -29.3834 -36.9075L29.3834 -36.9075C29.3834 -27.5187 36.9946 -19.9075 46.3834 -19.9075L46.3834 19.9076C36.9946 19.9076 29.3834 27.5188 29.3834 36.9076L-29.3834 36.9076C-29.3834 27.5188 -36.9946 19.9076 -46.3834 19.9076L-46.3834 -19.9075Z"></path>
  </g>
  <clipPath id="cl_467">
    <path d="M194.489 22.7369C202.093 21.6582 213.009 22.1443 214.308 27.2697C216.034 34.0812 217.047 38.1487 217.812 43.5451C219.47 55.2256 214.624 63.0306 200.49 65.0357C186.356 67.0409 180.383 65.7979 178.726 54.1174C177.069 42.4369 180.355 24.7421 194.489 22.7369Z"></path>
  </clipPath>
  <g clip-path="url(#cl_467)">
    <clipPath id="cl_468">
      <path d="M175.296 112.177L279.461 97.3991C279.461 97.3991 264.931 26.2272 217.664 34.3133C215.176 34.739 213.031 35.7237 211.137 37.0853C210.26 45.6325 207.512 61.9418 183.44 63.3638C173.39 85.76 175.296 112.177 175.296 112.177Z"></path>
    </clipPath>
    <g clip-path="url(#cl_468)">
      <path fill="#857069" transform="matrix(1.7889 -0.253787 0.253787 1.7889 180.999 66.2013)" d="M0 -16C8.83656 -16 12.0102 -8.83655 16.201 6.41487e-06C20.3918 8.83656 8.83656 16 0 16C-8.83656 16 -16 8.83656 -16 7.62939e-06C-16 -8.83655 -8.83656 -16 0 -16Z"></path>
    </g>
  </g>
  <path fill="none" stroke="black" stroke-width="7" stroke-linejoin="round" transform="translate(256 256)" d="M-93.5032 -142.007C-95.0405 -152.843 -91.943 -155.801 -91.943 -155.801C-88.9473 -160.022 -85.2611 -163.622 -80.3362 -166.731"></path>
  <path fill="none" stroke="black" stroke-width="7" stroke-linejoin="round" transform="translate(256 256)" d="M16.9672 -180.659C24.1615 -178.943 29.2528 -176.204 32.2574 -172.632C32.2574 -172.632 36.6506 -169.204 36.3866 -161.985"></path>
  <path fill="#503F7E" transform="matrix(1.53139 0 0 1.39334 226.981 134.619)" d="M0 -40C20.9426 -40 35.0096 -26.8589 47.8597 -2.20018C49.1253 -3.81499 50.3123 -3.57653 51.1974 -3.11682C52.0824 -2.65711 52.5509 -1.60562 52.2206 -0.665342C53.8523 0.0631991 55.2854 1.47333 55.8775 2.67698C56.9197 4.79566 57.6743 10.5072 53.7931 11.8212C58.5977 31.9882 20.3682 22.0914 -1.32962e-05 22.0914C-20.2357 22.0914 -45.0732 28.3281 -41.8836 12.9784C-44.6787 11.8212 -48.2008 8.95144 -46.5316 4.29175C-45.7036 1.98006 -43.8185 0.567089 -42.3936 0.566997C-41.0392 0.56691 -42.9934 -2.2 -40.2188 -3.81491C-39.0195 -4.51291 -37.7273 -4.43211 -36.6068 -4.12355C-28.0141 -23.7311 -20.4124 -40 0 -40Z"></path>
  <path fill="#E3CEC2" transform="matrix(0.556923 -0.0790095 0.0790095 0.556923 162.497 113.993)" d="M0 1.52588e-05C0 -19.4564 6.19051 -23.8887 6.19051 -23.8887C25.0053 -43.7609 53.1913 -52.4203 117 -52.4203C180.809 -52.4203 217.711 -40.5795 229.005 -22.5C229.005 -22.5 236.876 -14.3388 233 3.05176e-05C233 3.05176e-05 222.592 -33.1384 117.06 -33.1383C11.5269 -33.1384 0 1.52588e-05 0 1.52588e-05Z"></path>
  <path fill="#C9B1AA" transform="matrix(0.556923 -0.0790095 0.0228078 0.160768 227.378 104.788)" d="M-1.90735e-06 -116.5C64.3412 -116.5 116.5 -64.3411 116.5 0.00012207C116.333 7.78615 114.079 -0.846809 92.5947 -2.56873C90.1363 -68.643 33.7083 -93.0963 2.0524 -93.0963C-33.7213 -93.0963 -91.7603 -68.5194 -92.7458 3.01578C-107.568 13.6072 -116.5 28.5676 -116.5 0.00012207C-116.5 -64.3411 -64.3412 -116.5 -1.90735e-06 -116.5Z"></path>
  <clipPath id="cl_469">
    <path d="M194.489 22.7369C202.093 21.6582 213.009 22.1443 214.308 27.2697C216.034 34.0812 217.047 38.1487 217.812 43.5451C219.47 55.2256 214.624 63.0306 200.49 65.0357C186.356 67.0409 180.383 65.7979 178.726 54.1174C177.069 42.4369 180.355 24.7421 194.489 22.7369Z"></path>
  </clipPath>
  <g clip-path="url(#cl_469)">
    <path fill="#503F7E" transform="matrix(3.5224 -0.691401 0.691401 3.5224 199.573 61.7832)" d="M-5.1645 -6.50117C-5.1645 -12.7512 6 -12.7512 6 -6.50117C6 -0.251166 6 12.5 6 12.5L-6 12.5C-6 12.5 -5.1645 -0.251167 -5.1645 -6.50117Z"></path>
    <path fill="none" stroke="#161616" stroke-width="0.5" stroke-linecap="round" stroke-linejoin="round" transform="matrix(3.5224 -0.691401 0.691401 3.5224 199.787 41.7647)" d="M2.56958e-07 2.6499e-08L4.07165e-06 10.5382"></path>
  </g>
  <clipPath id="cl_46b">
    <path d="M226.981 78.8848C259.053 78.8848 280.595 97.1949 300.273 131.553C302.211 129.303 304.029 129.635 305.384 130.276C306.74 130.916 307.457 132.381 306.951 133.691C309.45 134.707 311.645 136.671 312.551 138.348C314.148 141.301 315.303 149.259 309.359 151.09C316.717 179.189 258.173 165.399 226.981 165.399C195.993 165.399 157.957 174.089 162.842 152.702C158.561 151.09 153.168 147.091 155.724 140.598C156.992 137.377 159.879 135.409 162.061 135.409C164.135 135.408 161.142 131.553 165.391 129.303C167.228 128.331 169.206 128.443 170.922 128.873C184.081 101.553 195.722 78.8848 226.981 78.8848Z"></path>
  </clipPath>
  <g clip-path="url(#cl_46b)">
    <path fill="#7463A5" transform="matrix(1.8 2.98023e-08 0.00759348 1.8 223.715 119.476)" d="M1.90735e-06 -5.5C3.866 -5.5 7 -2.92564 7 0.25C7 3.42564 3.866 6 1.90735e-06 6C-3.86599 6 -7 3.42564 -7 0.25C-7 -2.92564 -3.86599 -5.5 1.90735e-06 -5.5Z"></path>
    <path fill="#7463A5" transform="matrix(1.83618 3.04014e-08 0.00759348 1.8 276.264 111.33)" d="M0 -5.00001C2.76142 -5.00001 5 -2.6495 5 0.249992C5 3.14949 2.76142 5.49999 0 5.49999C-2.76142 5.49999 -5 3.14949 -5 0.249992C-5 -2.6495 -2.76142 -5.00001 0 -5.00001Z"></path>
    <path fill="none" stroke="#131212" stroke-width="1" stroke-linecap="round" stroke-linejoin="round" transform="matrix(2.30699 -0.373724 0.274137 1.69224 254.495 104.634)" d="M1.44192e-06 7.21529e-06L2.92891 -0.71456"></path>
    <path fill="none" stroke="#131212" stroke-width="1" stroke-linecap="round" stroke-linejoin="round" transform="matrix(2.30699 -0.373724 0.274137 1.69224 232.745 103.804)" d="M1.19209e-07 7.48094e-06L4.25731 1.79213"></path>
    <path fill="#131212" transform="matrix(2.47104 -0.400299 0.405754 2.50471 246.53 106.914)" d="M4.54078e-07 -4.03018e-06L1.9614 0.352734L0.91509 1.42246L4.54078e-07 -4.03018e-06Z"></path>
    <path fill="none" stroke="#131212" stroke-width="0.5" stroke-linecap="round" stroke-linejoin="round" transform="matrix(1.93759 -0.313883 0.31816 1.96399 249.589 110.45)" d="M1.18428e-07 -0.711217L-3.72341e-06 1.11021"></path>
    <path fill="#32225E" transform="matrix(1.74285 0.441491 -0.424043 1.74552 243.377 99.0488)" d="M1.87863e-06 -1.92716C1.62851 -1.92716 2.94867 -1.06434 2.94867 -4.39386e-08C2.94867 1.06434 1.62851 1.92716 1.93607e-06 1.92716C-1.6285 1.92716 -2.94867 1.06434 -2.94867 4.39386e-08C-2.94867 -1.06434 -1.6285 -1.92716 1.87863e-06 -1.92716Z"></path>
    <path fill="#32225E" transform="matrix(1.71213 0.433708 -0.412468 1.69787 254.57 98.1739)" d="M-5.72205e-06 -1.89919C0.889983 -1.89919 1.61146 -1.04889 1.61146 -2.40127e-08C1.61146 1.04889 0.889983 1.89919 -5.72205e-06 1.89919C-0.889995 1.89919 -1.61147 1.04889 -1.61147 2.40127e-08C-1.61147 -1.04889 -0.889995 -1.89919 -5.72205e-06 -1.89919Z"></path>
  </g>
  <path fill="none" stroke="black" stroke-width="4" stroke-linejoin="round" transform="matrix(1.8 0 0 1.8 352.158 173.563)" d="M-11.7479 -12.9046C-11.318 -13.5165 -10.7601 -14.1187 -10.0572 -14.7065C-5.47351 -18.5399 3.93804 -16.1165 4.43081 -14.7065C7.46664 -16.1165 10.8961 -16.6614 15.0174 -13.9738C19.1387 -11.2862 16.2386 -4.86793 16.6118 -4.55444C16.985 -4.24095 25.2116 0.494543 17.5976 8.33766C16.6439 8.92035 15.7365 9.39702 14.8735 9.77867"></path>
  <path fill="#7463A5" transform="matrix(1.8 0 0 1.8 352.158 173.563)" d="M-0.116455 0C-2.60165 -0.66394 -7.05858 1.11792 -10.0572 -2.65576C-13.0559 -6.42944 -14.6409 -10.8732 -10.0572 -14.7065C-5.47351 -18.5399 3.93804 -16.1165 4.43081 -14.7065C7.46664 -16.1165 10.8961 -16.6614 15.0174 -13.9738C19.1387 -11.2862 16.2386 -4.86793 16.6118 -4.55444C16.985 -4.24095 25.2116 0.494543 17.5976 8.33766C2.9012 17.3171 -0.809986 1.11792 -0.116455 0Z"></path>
  <path fill="none" stroke="black" stroke-width="6" stroke-linejoin="round" transform="matrix(1.8 0 0 1.8 173.66 271.209)" d="M-22.9266 4.31745C-29.1012 -34.9253 33.6271 -44.7951 39.8016 -5.5524C42.4315 11.1617 46.8185 39.0439 49.544 56.3654C50.5015 62.4514 43.8538 74.9521 20.9382 78.8316C-1.97735 82.711 -12.0813 73.2454 -12.8277 68.5017C-15.5691 51.0786 -20.9859 16.6521 -22.9266 4.31745Z"></path>
  <path fill="none" stroke="black" stroke-width="6" stroke-linecap="round" stroke-linejoin="bevel" transform="matrix(1.8 0 0 1.67094 173.66 180.961)" d="M37.3703 32.1783C38.5705 39.9949 39.6042 46.7269 40.1376 50.2012C46.645 92.5819 -16.0102 103.703 -22.5176 61.3223C-24.1511 50.6835 -27.1539 31.127 -29.0453 18.8087C-30.9368 6.49036 -27.4612 -12.2067 -11.5969 -15.0334C-9.96172 -15.3248 -8.45536 -15.5932 -7.061 -15.8416"></path>
  <path fill="#503F7E" transform="matrix(1.8 0 0 1.8 173.66 271.209)" d="M-22.9266 4.31744C-29.3576 -36.5551 33.3706 -46.425 39.8016 -5.55241C42.4315 11.1617 46.8185 39.0439 49.544 56.3654C50.5015 62.4514 43.8538 74.9521 20.9382 78.8316C-1.97735 82.711 -12.0813 73.2454 -12.8277 68.5017C-15.5691 51.0786 -20.9859 16.6521 -22.9266 4.31744Z"></path>
  <path fill="#503F7E" transform="matrix(1.8 0 0 1.67094 173.66 180.961)" d="M-29.0453 18.8087C-30.9368 6.49036 -27.4612 -12.2067 -11.5969 -15.0334C4.26737 -17.8601 8.00647 -18.5263 14.976 -19.7682C21.9456 -21.01 29.6166 -18.3194 31.9953 -2.82785C34.3739 12.6637 38.8084 41.5446 40.1376 50.2011C45.8615 87.4797 -16.7936 98.6008 -22.5176 61.3223C-24.1511 50.6835 -27.1539 31.127 -29.0453 18.8087Z"></path>
</svg>