<?xml version="1.0" encoding="utf-8"?>
<svg xmlns="http://www.w3.org/2000/svg" xmlns:xlink="http://www.w3.org/1999/xlink" width="512" height="512">
  <path fill="none" stroke="black" stroke-width="6" stroke-linejoin="round" transform="matrix(1.8 0 0 1.52279 359.051 175.853)" d="M-13.0528 -17.0286C-9.38676 -17.0546 -6.7293 -17.0734 -3.30037 -17.0977C3.76374 -17.1478 10.9445 -13.1956 11.0242 2.50623C11.1038 18.208 11.2523 47.4808 11.2968 56.2548C11.5146 99.2105 -51.9844 99.6183 -52.2023 56.6626C-52.257 45.8794 -52.3575 26.0575 -52.4208 13.572C-52.4842 1.0866 -46.3134 -16.7929 -30.2339 -16.9068C-29.0394 -16.9153 -27.9128 -16.9233 -26.8476 -16.9308"></path>
  <path fill="none" stroke="black" stroke-width="6" stroke-linejoin="round" transform="matrix(1.8 0 0 1.64041 359.051 258.099)" d="M-51.9502 -4.25286C-46.1898 -46.4909 16.7274 -37.979 10.967 4.25902C8.68035 21.0261 4.86574 48.9967 2.49594 66.3732C1.66331 72.4784 -8.2978 82.5512 -31.3611 79.704C-54.4245 76.8569 -61.3803 64.8936 -60.7313 60.1349C-58.3477 42.6566 -53.6377 8.12086 -51.9502 -4.25286Z"></path>
  <path fill="#503F7E" transform="matrix(1.8 0 0 1.52279 359.051 175.853)" d="M-52.4208 13.5721C-52.4842 1.08661 -46.3134 -16.7929 -30.2339 -16.9068C-14.1543 -17.0208 -10.3645 -17.0476 -3.30037 -17.0977C3.76374 -17.1478 10.9445 -13.1956 11.0242 2.50623C11.1038 18.208 11.2523 47.4808 11.2968 56.2548C11.5146 99.2106 -51.9844 99.6183 -52.2023 56.6626C-52.257 45.8794 -52.3575 26.0575 -52.4208 13.5721Z"></path>
  <path fill="#503F7E" transform="matrix(1.8 0 0 1.64041 359.051 258.099)" d="M-51.9502 -4.25287C-46.1898 -46.4909 16.7274 -37.979 10.967 4.25902C8.68035 21.0261 4.86574 48.9967 2.49594 66.3732C1.66331 72.4784 -8.2978 82.5512 -31.3611 79.704C-54.4245 76.8568 -61.3803 64.8936 -60.7313 60.1349C-58.3477 42.6566 -53.6377 8.12085 -51.9502 -4.25287Z"></path>
  <path fill="none" stroke="black" stroke-width="5" stroke-linejoin="round" transform="matrix(1.67985 0 0 1.8 269.501 356.202)" d="M-20.4574 -15.6707C-2.23405 -15.9232 10.7766 -11.931 11.5303 35.4526C12.194 49.5461 16.684 64.7468 1.70134 74.0885C-9.86733 73.9964 -22.7907 74.8028 -39.2554 74.5383C-50.1 65.6046 -50.866 52.23 -51.6872 35.4253C-53.0425 -11.0469 -38.6808 -15.4183 -20.4574 -15.6707Z"></path>
  <path fill="#453279" transform="matrix(1.67985 0 0 1.8 269.501 356.202)" d="M-20.4574 -15.6707C-2.23405 -15.9232 10.7766 -11.931 11.5303 35.4526C12.194 49.5461 16.684 64.7468 1.70134 74.0885C-9.86733 73.9964 -22.7907 74.8028 -39.2554 74.5383C-50.1 65.6046 -50.866 52.23 -51.6872 35.4253C-53.0425 -11.0469 -38.6808 -15.4183 -20.4574 -15.6707Z"></path>
  <path fill="none" stroke="black" stroke-width="5" stroke-linejoin="round" transform="matrix(1.67985 0 0 1.8 191.63 362.835)" d="M12.5548 -12.5343C28.7418 -20.3505 66.8231 -7.3527 65.2509 33.9616C65.1611 50.4361 52.2341 73.7416 35.1745 72.7181C20.6693 67.676 10.6712 64.1471 -2.95836 58.6663C-12.4912 46.2552 9.51115 45.7259 10.1733 31.3479C11.1785 -9.19703 -3.63225 -4.71801 12.5548 -12.5343Z"></path>
  <path fill="none" stroke="black" stroke-width="5" stroke-linejoin="round" transform="matrix(1.79976 0.0276995 -0.0293645 1.69771 274.681 285.911)" d="M-11.3238 -80.2543C25.8014 -80.2543 54.9476 -94.6926 58.9092 -40.8672C62.8708 12.9582 37.0524 74.7499 0.0572919 75.3534C-14.1177 75.5847 -17.7665 75.6442 -48.2096 76.1409C-78.6526 76.6376 -84.25 60.12 -84.25 1.90735e-06C-86.6294 -86.0849 -88.6034 -78.4854 -12.7475 -80.2208"></path>
  <path fill="#503F7E" transform="matrix(1.67985 0 0 1.8 191.63 362.835)" d="M12.5548 -12.5343C28.7418 -20.3505 66.8231 -7.3527 65.2509 33.9616C65.1611 50.4361 52.2341 73.7416 35.1745 72.7181C20.6693 67.676 10.6712 64.1471 -2.95836 58.6663C-12.4912 46.2552 9.51115 45.7259 10.1733 31.3479C11.1785 -9.19703 -3.63225 -4.71801 12.5548 -12.5343Z"></path>
  <path fill="none" stroke="black" stroke-width="5" stroke-linejoin="round" transform="matrix(1.53139 0 0 1.39334 226.981 131.846)" d="M0 -40C20.9426 -40 35.0096 -26.8589 47.8597 -2.20018C49.1253 -3.81499 50.3123 -3.57653 51.1974 -3.11682C52.0824 -2.65711 52.5509 -1.60562 52.2206 -0.665342C53.8523 0.0631991 55.2854 1.47333 55.8775 2.67698C56.9197 4.79566 57.6743 10.5072 53.7931 11.8212C58.5977 31.9882 20.3682 22.0914 -1.32962e-05 22.0914C-20.2357 22.0914 -45.0732 28.3281 -41.8836 12.9784C-44.6787 11.8212 -48.2008 8.95144 -46.5316 4.29175C-45.7036 1.98006 -43.8185 0.567089 -42.3936 0.566997C-41.0392 0.56691 -42.9934 -2.2 -40.2188 -3.81491C-39.0195 -4.51291 -37.7273 -4.43211 -36.6068 -4.12355C-28.0141 -23.7311 -20.4124 -40 0 -40Z"></path>
  <path fill="#503F7E" transform="matrix(1.79976 0.0276995 -0.0293645 1.69771 274.681 285.911)" d="M-11.3238 -80.2543C25.8014 -80.2543 54.9476 -94.6926 58.9092 -40.8672C62.8708 12.9582 37.0524 74.7499 0.0572919 75.3534C-14.1177 75.5847 -17.7665 75.6442 -48.2096 76.1409C-78.6526 76.6376 -84.25 60.12 -84.25 1.90735e-06C-86.6442 -86.62 -88.6279 -78.3873 -11.3238 -80.2543Z"></path>
  <clipPath id="cl_1b3">
    <path d="M256.658 149.349C323.474 150.377 376.354 126.673 381.904 218.162C387.453 309.652 339.172 413.841 272.572 413.841C247.053 413.841 240.485 413.841 185.68 413.841C130.875 413.841 121.286 385.644 123.052 283.578C121.286 136.456 117.474 150.377 256.658 149.349Z"></path>
  </clipPath>
  <g clip-path="url(#cl_1b3)">
    <path fill="#655494" transform="matrix(1.8 0 0 1.8 311.807 267.99)" d="M-0.158648 -48.2655C25.513 -48.2655 46.324 -26.6563 46.324 0C46.324 26.6563 25.513 48.2655 -0.158648 48.2655C-25.8303 48.2655 -46.6413 26.6563 -46.6413 0C-46.6413 -26.6563 -25.8303 -48.2655 -0.158648 -48.2655Z"></path>
  </g>
  <path fill="none" stroke="black" stroke-width="2" stroke-linejoin="round" transform="matrix(3.88825 -0.763212 0.691401 3.5224 233.781 53.5979)" d="M-4.34758 -5.25471C-4.34758 -11.5047 3.66088 -11.5047 3.66088 -5.25471C3.66088 0.995287 3.66088 12.5 3.66088 12.5L-4.57314 12.5C-4.57314 12.5 -4.34758 0.995288 -4.34758 -5.25471Z"></path>
  <path fill="none" stroke="black" stroke-width="2" stroke-linejoin="round" transform="matrix(3.5224 -0.691401 0.691401 3.5224 199.573 59.0107)" d="M-5.1645 -6.50117C-5.1645 -12.7512 6 -12.7512 6 -6.50117C6 -0.25117 6 12.5 6 12.5L-6 12.5C-6 12.5 -5.1645 -0.251171 -5.1645 -6.50117Z"></path>
  <path fill="#453279" transform="matrix(3.88825 -0.763212 0.691401 3.5224 233.781 53.5979)" d="M-4.34758 -5.25471C-4.34758 -11.5047 3.66088 -11.5047 3.66088 -5.25471C3.66088 0.995287 3.66088 12.5 3.66088 12.5L-4.57314 12.5C-4.57314 12.5 -4.34758 0.995288 -4.34758 -5.25471Z"></path>
  <path fill="none" stroke="#161616" stroke-width="0.5" stroke-linecap="round" stroke-linejoin="round" transform="matrix(3.88825 -0.763212 0.691401 3.5224 228.988 34.0663)" d="M4.54547e-06 1.51652L3.83069e-06 10.5382"></path>
  <path fill="#503F7E" transform="matrix(3.5224 -0.691401 0.691401 3.5224 199.573 59.0107)" d="M-5.1645 -6.50117C-5.1645 -12.7512 6 -12.7512 6 -6.50117C6 -0.25117 6 12.5 6 12.5L-6 12.5C-6 12.5 -5.1645 -0.251171 -5.1645 -6.50117Z"></path>
  <path fill="none" stroke="#161616" stroke-width="0.5" stroke-linecap="round" stroke-linejoin="round" transform="matrix(3.5224 -0.691401 0.691401 3.5224 199.787 38.9922)" d="M2.56958e-07 2.6499e-08L4.07165e-06 10.5382"></path>
  <path fill="none" stroke="black" stroke-width="7" stroke-linejoin="round" transform="translate(256 256)" d="M-80.7043 -146.145L23.4611 -160.922C23.4611 -160.922 8.93091 -232.094 -38.3357 -224.008C-40.8238 -223.582 -42.9692 -222.598 -44.8635 -221.236C-45.7395 -212.689 -48.4884 -196.38 -72.5601 -194.958C-82.6104 -172.561 -80.7043 -146.145 -80.7043 -146.145Z"></path>
  <path fill="none" stroke="black" stroke-width="7" stroke-miterlimit="4" transform="translate(256 256)" d="M-37.4158 -231.54C-32.4945 -232.238 -27.939 -228.815 -27.2408 -223.894C-26.5427 -218.972 -29.9662 -214.417 -34.8875 -213.719C-39.8088 -213.021 -44.3642 -216.444 -45.0624 -221.365C-45.7606 -226.287 -42.3371 -230.842 -37.4158 -231.54Z"></path>
  <path fill="#E3CEC2" transform="matrix(0.556923 -0.0790095 0.0790095 0.556923 219.848 33.3705)" d="M-9.53674e-07 -16C8.83656 -16 16 -8.83659 16 -3.05176e-05C16 8.83653 8.83656 16 -9.53674e-07 16C-8.83656 16 -16 8.83653 -16 -3.05176e-05C-16 -8.83659 -8.83656 -16 -9.53674e-07 -16Z"></path>
  <path fill="#8D5A3E" transform="matrix(0.556923 -0.0790095 0.0790095 0.556923 167.819 110.916)" d="M13.4248 -3.05176e-05L200.462 -6.10352e-05C200.462 -6.10352e-05 192.659 -128.902 107.443 -126.472C102.958 -126.344 98.9354 -125.146 95.2612 -123.223C91.5849 -108.397 82.6739 -80.3768 39.9489 -83.8848C16.6664 -46.9736 13.4248 -3.05176e-05 13.4248 -3.05176e-05Z"></path>
  <path fill="#4A4848" transform="matrix(0.504494 -0.0715715 0.0228078 0.160768 226.176 91.9863)" d="M5.72205e-06 -116.5C64.3412 -116.5 116.5 -64.3412 116.5 3.47197e-06C116.5 64.3412 64.3412 116.5 5.72205e-06 116.5C-64.3412 116.5 -116.5 64.3412 -116.5 -3.47197e-06C-116.5 -64.3412 -64.3412 -116.5 5.72205e-06 -116.5Z"></path>
  <path fill="none" stroke="black" stroke-width="7" stroke-miterlimit="4" transform="translate(256 256)" d="M-31.2787 -172.263C4.55437 -177.346 34.7925 -173.082 36.2599 -162.738C37.7274 -152.394 9.86859 -139.887 -25.9645 -134.804C-61.7976 -129.72 -92.0357 -133.985 -93.5032 -144.329C-94.9707 -154.673 -67.1119 -167.179 -31.2787 -172.263Z"></path>
  <path fill="#C9B1AA" transform="matrix(0.556923 -0.0790095 0.0228078 0.160768 227.378 102.467)" d="M-0.519166 93.3573C63.822 93.3573 81.6545 -40.5054 116.5 0C116.333 7.78602 114.666 35.3784 103.443 64.6424C92.2186 93.9064 32.9112 142.08 1.25538 142.08C-34.5183 142.08 -86.5851 95.3331 -99.0913 78.9829C-111.597 62.6327 -116.509 26.4158 -116.5 0C-66.3811 -27.319 -64.8603 93.3573 -0.519166 93.3573Z"></path>
  <path fill="#65524C" transform="matrix(0.447062 -0.0634237 0.0183086 0.129054 227.378 102.467)" d="M-9.53674e-07 -116.5C64.3412 -116.5 116.5 -64.3412 116.5 0C116.5 64.3412 64.3412 116.5 -9.53674e-07 116.5C-64.3412 116.5 -116.5 64.3412 -116.5 0C-116.5 -64.3412 -64.3412 -116.5 -9.53674e-07 -116.5Z"></path>
  <clipPath id="cl_1b4">
    <path d="M225.245 87.4318C254.01 83.3511 278.283 86.7743 279.461 95.0778C280.639 103.381 258.276 113.421 229.511 117.501C200.747 121.582 176.474 118.159 175.296 109.855C174.118 101.552 196.481 91.5126 225.245 87.4318Z"></path>
  </clipPath>
  <g clip-path="url(#cl_1b4)">
    <path fill="#857069" transform="matrix(1.7889 -0.253787 0.253787 1.7889 185.346 92.5219)" d="M6.3453 -18.4774C15.1819 -18.4774 19.9785 -8.83656 25.4977 -1.49012e-07C40.8822 25.7165 8.83656 21.8364 6.85453e-07 19.1869C-8.83656 16.5373 -16 8.83656 -16 0C-16 -8.83656 -2.49126 -18.4774 6.3453 -18.4774Z"></path>
  </g>
  <clipPath id="cl_1b5">
    <path d="M175.296 109.855L279.461 95.0777C279.461 95.0777 264.931 23.9058 217.664 31.9919C215.176 32.4176 213.031 33.4023 211.137 34.7639C210.26 43.3111 207.512 59.6204 183.44 61.0424C173.39 83.4387 175.296 109.855 175.296 109.855Z"></path>
  </clipPath>
  <g clip-path="url(#cl_1b5)">
    <path fill="#65524C" transform="matrix(0.682449 -0.0968176 0.0594143 0.4188 197.489 41.565)" d="M3.8147e-06 -50.5C11.1423 -50.5 26.7229 -45.7372 27.5442 -33.3093C28.6357 -16.7925 29.2617 -6.93543 29.2617 5.94992C29.2617 33.8403 20.7107 50.5 3.8147e-06 50.5C-20.7107 50.5 -29.0363 45.6071 -29.0363 17.7168C-29.0363 -10.1736 -20.7107 -50.5 3.8147e-06 -50.5Z"></path>
    <path fill="#714035" transform="matrix(0.298708 -0.253155 0.253155 0.298708 247.279 47.4427)" d="M-46.3834 -19.9076C-36.9946 -19.9076 -29.3834 -27.5188 -29.3834 -36.9076L29.3834 -36.9076C29.3834 -27.5188 36.9946 -19.9076 46.3834 -19.9076L46.3834 19.9075C36.9946 19.9075 29.3834 27.5187 29.3834 36.9075L-29.3834 36.9075C-29.3834 27.5187 -36.9946 19.9075 -46.3834 19.9075L-46.3834 -19.9076Z"></path>
  </g>
  <clipPath id="cl_1b7">
    <path d="M194.489 20.4156C202.093 19.3368 213.009 19.823 214.308 24.9483C216.034 31.7598 217.047 35.8274 217.812 41.2238C219.47 52.9042 214.624 60.7092 200.49 62.7144C186.356 64.7195 180.383 63.4765 178.726 51.796C177.069 40.1155 180.355 22.4207 194.489 20.4156Z"></path>
  </clipPath>
  <g clip-path="url(#cl_1b7)">
    <clipPath id="cl_1b8">
      <path d="M175.296 109.855L279.461 95.0777C279.461 95.0777 264.931 23.9058 217.664 31.9919C215.176 32.4176 213.031 33.4023 211.137 34.7639C210.26 43.3111 207.512 59.6204 183.44 61.0424C173.39 83.4387 175.296 109.855 175.296 109.855Z"></path>
    </clipPath>
    <g clip-path="url(#cl_1b8)">
      <path fill="#857069" transform="matrix(1.7889 -0.253787 0.253787 1.7889 180.999 63.8799)" d="M0 -16C8.83656 -16 12.0102 -8.83655 16.201 6.41487e-06C20.3918 8.83656 8.83656 16 0 16C-8.83656 16 -16 8.83656 -16 7.62939e-06C-16 -8.83655 -8.83656 -16 0 -16Z"></path>
    </g>
  </g>
  <path fill="none" stroke="black" stroke-width="7" stroke-linejoin="round" transform="translate(256 256)" d="M-93.5032 -144.329C-95.0405 -155.164 -91.943 -158.122 -91.943 -158.122C-88.9473 -162.344 -85.2611 -165.943 -80.3362 -169.053"></path>
  <path fill="none" stroke="black" stroke-width="7" stroke-linejoin="round" transform="translate(256 256)" d="M16.9672 -182.98C24.1615 -181.265 29.2528 -178.525 32.2574 -174.953C32.2574 -174.953 36.6506 -171.526 36.3866 -164.307"></path>
  <path fill="#503F7E" transform="matrix(1.53139 0 0 1.39334 226.981 131.846)" d="M0 -40C20.9426 -40 35.0096 -26.8589 47.8597 -2.20018C49.1253 -3.81499 50.3123 -3.57653 51.1974 -3.11682C52.0824 -2.65711 52.5509 -1.60562 52.2206 -0.665342C53.8523 0.0631991 55.2854 1.47333 55.8775 2.67698C56.9197 4.79566 57.6743 10.5072 53.7931 11.8212C58.5977 31.9882 20.3682 22.0914 -1.32962e-05 22.0914C-20.2357 22.0914 -45.0732 28.3281 -41.8836 12.9784C-44.6787 11.8212 -48.2008 8.95144 -46.5316 4.29175C-45.7036 1.98006 -43.8185 0.567089 -42.3936 0.566997C-41.0392 0.56691 -42.9934 -2.2 -40.2188 -3.81491C-39.0195 -4.51291 -37.7273 -4.43211 -36.6068 -4.12355C-28.0141 -23.7311 -20.4124 -40 0 -40Z"></path>
  <path fill="#E3CEC2" transform="matrix(0.556923 -0.0790095 0.0790095 0.556923 162.497 111.671)" d="M0 -1.52588e-05C0 -19.4564 6.19051 -23.8887 6.19051 -23.8887C25.0053 -43.7609 53.1913 -52.4203 117 -52.4203C180.809 -52.4203 217.711 -40.5795 229.005 -22.5001C229.005 -22.5001 236.876 -14.3389 233 -3.05176e-05C233 -3.05176e-05 222.592 -33.1384 117.06 -33.1384C11.5269 -33.1384 0 -1.52588e-05 0 -1.52588e-05Z"></path>
  <path fill="#C9B1AA" transform="matrix(0.556923 -0.0790095 0.0228078 0.160768 227.378 102.467)" d="M-2.86102e-06 -116.5C64.3412 -116.5 116.5 -64.3412 116.5 0C116.333 7.78602 114.079 -0.846931 92.5947 -2.56885C90.1363 -68.6432 33.7083 -93.0964 2.0524 -93.0964C-33.7213 -93.0964 -91.7603 -68.5196 -92.7458 3.01566C-107.568 13.6071 -116.5 28.5675 -116.5 0C-116.5 -64.3412 -64.3412 -116.5 -2.86102e-06 -116.5Z"></path>
  <clipPath id="cl_1b9">
    <path d="M194.489 20.4156C202.093 19.3368 213.009 19.823 214.308 24.9483C216.034 31.7598 217.047 35.8274 217.812 41.2238C219.47 52.9042 214.624 60.7092 200.49 62.7144C186.356 64.7195 180.383 63.4765 178.726 51.796C177.069 40.1155 180.355 22.4207 194.489 20.4156Z"></path>
  </clipPath>
  <g clip-path="url(#cl_1b9)">
    <path fill="#503F7E" transform="matrix(3.5224 -0.691401 0.691401 3.5224 199.573 59.0107)" d="M-5.1645 -6.50117C-5.16451 -12.7512 6 -12.7512 6 -6.50117C6 -0.251166 6 12.5 6 12.5L-6 12.5C-6 12.5 -5.1645 -0.251167 -5.1645 -6.50117Z"></path>
    <path fill="none" stroke="#161616" stroke-width="0.5" stroke-linecap="round" stroke-linejoin="round" transform="matrix(3.5224 -0.691401 0.691401 3.5224 199.787 38.9922)" d="M2.56958e-07 2.6499e-08L4.07165e-06 10.5382"></path>
  </g>
  <clipPath id="cl_1bb">
    <path d="M226.981 76.1124C259.053 76.1124 280.595 94.4224 300.273 128.781C302.211 126.531 304.029 126.863 305.384 127.503C306.74 128.144 307.457 129.609 306.951 130.919C309.45 131.934 311.645 133.899 312.551 135.576C314.148 138.528 315.303 146.486 309.359 148.317C316.717 176.417 258.173 162.627 226.981 162.627C195.993 162.627 157.957 171.317 162.842 149.929C158.561 148.317 153.168 144.319 155.724 137.826C156.992 134.605 159.879 132.636 162.061 132.636C164.135 132.636 161.142 128.781 165.391 126.531C167.228 125.558 169.206 125.671 170.922 126.101C184.081 98.7806 195.722 76.1124 226.981 76.1124Z"></path>
  </clipPath>
  <g clip-path="url(#cl_1bb)">
    <path fill="#7463A5" transform="matrix(1.8 2.98023e-08 0.00759348 1.8 223.715 116.703)" d="M1.90735e-06 -5.5C3.866 -5.5 7 -2.92564 7 0.25C7 3.42564 3.866 6 1.90735e-06 6C-3.86599 6 -7 3.42564 -7 0.25C-7 -2.92564 -3.86599 -5.5 1.90735e-06 -5.5Z"></path>
    <path fill="#7463A5" transform="matrix(1.83618 3.04014e-08 0.00759348 1.8 276.264 108.557)" d="M0 -5.00001C2.76142 -5.00001 5 -2.6495 5 0.249992C5 3.14949 2.76142 5.49999 0 5.49999C-2.76142 5.49999 -5 3.14949 -5 0.249992C-5 -2.6495 -2.76142 -5.00001 0 -5.00001Z"></path>
    <path fill="none" stroke="#131212" stroke-width="1" stroke-linecap="round" stroke-linejoin="round" transform="matrix(2.30699 -0.373724 0.274137 1.69224 254.495 101.861)" d="M2.39559e-06 7.21529e-06L2.92892 -0.71456"></path>
    <path fill="none" stroke="#131212" stroke-width="1" stroke-linecap="round" stroke-linejoin="round" transform="matrix(2.30699 -0.373724 0.274137 1.69224 232.745 101.032)" d="M6.55651e-07 -1.48459e-07L4.25731 1.79213"></path>
    <path fill="#131212" transform="matrix(2.47104 -0.400299 0.405754 2.50471 246.53 104.142)" d="M4.54078e-07 -4.03018e-06L1.9614 0.352734L0.91509 1.42246L4.54078e-07 -4.03018e-06Z"></path>
    <path fill="none" stroke="#131212" stroke-width="0.5" stroke-linecap="round" stroke-linejoin="round" transform="matrix(1.93759 -0.313883 0.31816 1.96399 249.589 107.677)" d="M1.0721e-06 -0.711224L-2.76974e-06 1.1102"></path>
    <path fill="#32225E" transform="matrix(1.74285 0.441491 -0.424043 1.74552 243.377 96.2764)" d="M-1.93607e-06 -1.92716C1.6285 -1.92716 2.94867 -1.06434 2.94867 -4.39386e-08C2.94867 1.06434 1.6285 1.92716 -1.87863e-06 1.92716C-1.62851 1.92716 -2.94867 1.06434 -2.94867 4.39386e-08C-2.94867 -1.06434 -1.62851 -1.92716 -1.93607e-06 -1.92716Z"></path>
    <path fill="#32225E" transform="matrix(1.71213 0.433708 -0.412468 1.69787 254.57 95.4015)" d="M-3.8147e-06 -1.89919C0.889985 -1.89919 1.61146 -1.04889 1.61146 -2.40127e-08C1.61146 1.04889 0.889985 1.89919 -3.8147e-06 1.89919C-0.889993 1.89919 -1.61147 1.04889 -1.61147 2.40127e-08C-1.61147 -1.04889 -0.889993 -1.89919 -3.8147e-06 -1.89919Z"></path>
  </g>
  <path fill="none" stroke="black" stroke-width="4" stroke-linejoin="round" transform="matrix(1.8 0 0 1.8 352.158 170.79)" d="M-11.7479 -12.9046C-11.318 -13.5165 -10.7601 -14.1187 -10.0572 -14.7065C-5.47351 -18.5399 3.93804 -16.1165 4.43081 -14.7065C7.46664 -16.1165 10.8961 -16.6614 15.0174 -13.9738C19.1387 -11.2862 16.2386 -4.86793 16.6118 -4.55444C16.985 -4.24095 25.2116 0.494543 17.5976 8.33766C16.6439 8.92035 15.7365 9.39702 14.8735 9.77867"></path>
  <path fill="#7463A5" transform="matrix(1.8 0 0 1.8 352.158 170.79)" d="M-0.116455 0C-2.60165 -0.66394 -7.05858 1.11792 -10.0572 -2.65576C-13.0559 -6.42944 -14.6409 -10.8732 -10.0572 -14.7065C-5.47351 -18.5399 3.93804 -16.1165 4.43081 -14.7065C7.46664 -16.1165 10.8961 -16.6614 15.0174 -13.9738C19.1387 -11.2862 16.2386 -4.86793 16.6118 -4.55444C16.985 -4.24095 25.2116 0.494543 17.5976 8.33766C2.9012 17.3171 -0.809986 1.11792 -0.116455 0Z"></path>
  <path fill="none" stroke="black" stroke-width="6" stroke-linejoin="round" transform="matrix(1.8 0 0 1.8 165.496 268.436)" d="M-30.3437 0.523987C-30.9452 -39.197 32.5475 -40.1585 33.149 -0.437507C33.4052 16.4803 33.8326 44.7022 34.0981 62.2349C34.1914 68.395 25.8538 79.8381 2.62044 80.4605C-20.6129 81.0828 -29.2872 70.2919 -29.3599 65.4904C-29.627 47.855 -30.1546 13.0089 -30.3437 0.523987Z"></path>
  <path fill="none" stroke="black" stroke-width="6" stroke-linecap="round" stroke-linejoin="bevel" transform="matrix(1.8 0 0 1.67094 165.496 178.189)" d="M32.8103 37.5652C32.9786 45.4486 33.1235 52.2329 33.1984 55.7404C34.1155 98.6856 -29.3687 100.217 -30.2857 57.2714C-30.5159 46.4908 -30.9391 26.6738 -31.2056 14.1915C-31.4722 1.70909 -25.5932 -16.2768 -9.51768 -16.6751C-7.76034 -16.7187 -6.14983 -16.7586 -4.66582 -16.7953"></path>
  <path fill="#503F7E" transform="matrix(1.8 0 0 1.8 165.496 268.436)" d="M-30.3437 0.523986C-30.9702 -40.8467 32.5225 -41.8082 33.149 -0.437508C33.4052 16.4802 33.8326 44.7022 34.0981 62.2349C34.1914 68.395 25.8538 79.8381 2.62044 80.4605C-20.6129 81.0828 -29.2872 70.2919 -29.3599 65.4904C-29.627 47.855 -30.1546 13.0089 -30.3437 0.523986Z"></path>
  <path fill="#503F7E" transform="matrix(1.8 0 0 1.67094 165.496 178.189)" d="M-31.2056 14.1915C-31.4722 1.70909 -25.5932 -16.2768 -9.51768 -16.6751C6.55788 -17.0735 10.3468 -17.1674 17.4092 -17.3424C24.4715 -17.5174 31.7157 -13.6928 32.0509 2.00511C32.3861 17.703 33.0111 46.9686 33.1984 55.7404C34.0051 93.5154 -29.479 95.0464 -30.2857 57.2714C-30.5159 46.4908 -30.9391 26.6738 -31.2056 14.1915Z"></path>
</svg>