<?xml version="1.0" encoding="utf-8"?>
<svg xmlns="http://www.w3.org/2000/svg" xmlns:xlink="http://www.w3.org/1999/xlink" width="512" height="512">
  <path fill="#312F2F" transform="matrix(0.774513 -0.110164 0.197147 1.38605 242.965 231.643)" d="M0 -128C70.6925 -128 128 -70.6925 128 0C128 70.6925 70.6925 128 0 128C-70.6925 128 -128 70.6925 -128 0C-128 -70.6925 -70.6925 -128 0 -128Z"></path>
  <path fill="none" stroke="black" stroke-width="7" stroke-miterlimit="4" transform="translate(256 256)" d="M-11.9348 -205.517C42.8174 -213.304 98.5009 -140.187 112.438 -42.2034C126.374 55.7799 93.287 141.524 38.5348 149.312C-16.2174 157.1 -71.9008 83.9818 -85.8376 -14.0014C-99.7744 -111.985 -66.687 -197.729 -11.9348 -205.517Z"></path>
  <path fill="none" stroke="black" stroke-width="7" stroke-linejoin="round" transform="translate(256 256)" d="M-11.9348 -205.517C-11.9348 -205.517 -25.973 -203.52 -37.5922 -201.867C-81.745 -193.744 -131.044 -142.932 -112.173 -10.2556C-93.3011 122.421 -21.8793 157.905 12.1998 153.058C23.819 151.405 38.5348 149.312 38.5348 149.312C38.3756 149.335 38.2137 149.356 38.0492 149.375"></path>
  <path fill="#8D5A3E" transform="matrix(0.774513 -0.110164 0.197147 1.38605 269.3 227.898)" d="M0 -128C70.6925 -128 128 -70.6925 128 0C128 70.6925 70.6925 128 0 128C-70.6925 128 -128 70.6925 -128 0C-128 -70.6925 -70.6925 -128 0 -128Z"></path>
  <path fill="#4B2713" transform="matrix(0.774513 -0.110164 0.197147 1.38605 274.137 225.795)" d="M0.25 -87.5C51.4744 -87.5 93 -48.4368 93 -0.25C93 47.9368 51.4744 87 0.25 87C-50.9744 87 -92.5 47.9368 -92.5 -0.25C-92.5 -48.4368 -50.9744 -87.5 0.25 -87.5Z"></path>
  <path fill="#693920" transform="matrix(0.774513 -0.110164 0.197147 1.38605 269.3 227.898)" d="M0 -86C47.4965 -86 86 -47.4965 86 0C86 47.4965 47.4965 86 0 86C-47.4965 86 -86 47.4965 -86 0C-86 -47.4965 -47.4965 -86 0 -86Z"></path>
  <path fill="#1F0D04" transform="matrix(2.23184 0.814006 -0.0917629 3.79991 250.715 248.142)" d="M2.38419e-07 -6.1709C3.40809 -6.1709 6.1709 -3.40809 6.1709 9.19536e-08C6.1709 3.40809 3.40809 6.1709 2.38419e-07 6.1709C-3.40809 6.1709 -6.1709 3.40809 -6.1709 -9.19536e-08C-6.1709 -3.40809 -3.40809 -6.1709 2.38419e-07 -6.1709Z"></path>
  <clipPath id="cl_d3">
    <path d="M251.281 224.693C258.887 227.467 264.8 240.215 264.487 253.165C264.174 266.116 257.755 274.365 250.148 271.591C242.542 268.817 236.629 256.069 236.942 243.119C237.255 230.169 243.675 221.919 251.281 224.693Z"></path>
  </clipPath>
  <g clip-path="url(#cl_d3)">
    <path fill="#2F1507" transform="matrix(2.23184 0.814006 -0.0917629 3.79991 248.051 253.369)" d="M2.38419e-07 -6.1709C3.40809 -6.1709 6.1709 -3.40809 6.1709 6.96018e-08C6.1709 3.40809 3.40809 6.1709 2.38419e-07 6.1709C-3.40809 6.1709 -6.1709 3.40809 -6.1709 -1.14305e-07C-6.1709 -3.40809 -3.40809 -6.1709 2.38419e-07 -6.1709Z"></path>
  </g>
  <path fill="#1F0D04" transform="matrix(2.23184 0.814006 -0.0917629 3.79991 252.07 192.031)" d="M0 -6.1709C3.40809 -6.1709 6.1709 -3.4081 6.1709 -1.8154e-06C6.1709 3.40809 3.40809 6.1709 0 6.1709C-3.40809 6.1709 -6.1709 3.40809 -6.1709 -1.9993e-06C-6.1709 -3.4081 -3.40809 -6.1709 0 -6.1709Z"></path>
  <clipPath id="cl_d4">
    <path d="M252.636 168.582C260.242 171.357 266.155 184.104 265.842 197.054C265.529 210.005 259.11 218.254 251.503 215.48C243.897 212.706 237.984 199.959 238.297 187.008C238.61 174.058 245.03 165.808 252.636 168.582Z"></path>
  </clipPath>
  <g clip-path="url(#cl_d4)">
    <path fill="#2F1507" transform="matrix(2.23184 0.814006 -0.0917629 3.79991 249.336 200.17)" d="M0 -6.1709C3.40809 -6.1709 6.1709 -3.4081 6.1709 -1.8154e-06C6.1709 3.40809 3.40809 6.1709 0 6.1709C-3.40809 6.1709 -6.1709 3.40809 -6.1709 -1.9993e-06C-6.1709 -3.4081 -3.40809 -6.1709 0 -6.1709Z"></path>
  </g>
  <path fill="#1F0D04" transform="matrix(2.23184 0.814006 -0.0917629 3.79991 285.858 260.96)" d="M0 -6.1709C3.40809 -6.1709 6.1709 -3.40809 6.1709 9.19536e-08C6.1709 3.40809 3.40809 6.1709 0 6.1709C-3.40809 6.1709 -6.1709 3.40809 -6.1709 -9.19536e-08C-6.1709 -3.40809 -3.40809 -6.1709 0 -6.1709Z"></path>
  <clipPath id="cl_d5">
    <path d="M286.425 237.511C294.031 240.285 299.943 253.033 299.631 265.983C299.318 278.933 292.898 287.183 285.292 284.409C277.686 281.634 271.773 268.887 272.086 255.937C272.399 242.986 278.818 234.737 286.425 237.511Z"></path>
  </clipPath>
  <g clip-path="url(#cl_d5)">
    <path fill="#2F1507" transform="matrix(2.23184 0.814006 -0.0917629 3.79991 283.807 264.493)" d="M0 -6.1709C3.40809 -6.1709 6.1709 -3.40809 6.1709 3.30372e-07C6.1709 3.40809 3.40809 6.1709 0 6.1709C-3.40809 6.1709 -6.1709 3.40809 -6.1709 1.46465e-07C-6.1709 -3.40809 -3.40809 -6.1709 0 -6.1709Z"></path>
  </g>
  <path fill="#1F0D04" transform="matrix(2.23184 0.814006 -0.0917629 3.79991 287.213 204.849)" d="M0 -6.1709C3.40809 -6.1709 6.1709 -3.40809 6.1709 9.19536e-08C6.1709 3.40809 3.40809 6.1709 0 6.1709C-3.40809 6.1709 -6.1709 3.40809 -6.1709 -9.19536e-08C-6.1709 -3.40809 -3.40809 -6.1709 0 -6.1709Z"></path>
  <clipPath id="cl_d6">
    <path d="M287.78 181.4C295.386 184.174 301.298 196.922 300.986 209.872C300.673 222.823 294.253 231.072 286.647 228.298C279.041 225.524 273.128 212.776 273.441 199.826C273.754 186.875 280.173 178.626 287.78 181.4Z"></path>
  </clipPath>
  <g clip-path="url(#cl_d6)">
    <path fill="#2F1507" transform="matrix(2.23184 0.814006 -0.0917629 3.79991 282.86 210.48)" d="M-9.53674e-07 -6.1709C3.40809 -6.1709 6.1709 -3.40809 6.1709 0C6.1709 3.40809 3.40809 6.1709 -9.53674e-07 6.1709C-3.40809 6.1709 -6.1709 3.40809 -6.1709 0C-6.1709 -3.40809 -3.40809 -6.1709 -9.53674e-07 -6.1709Z"></path>
  </g>
  <path fill="none" stroke="#E3CEC2" stroke-width="4" stroke-linecap="round" stroke-linejoin="round" transform="matrix(2.23184 0.814006 -0.0917629 3.79991 250.283 190.506)" d="M2.42519 2.41434L15.2044 14.4568"></path>
  <path fill="none" stroke="#C8AD9D" stroke-width="4" stroke-linecap="round" stroke-linejoin="round" transform="matrix(2.23184 0.814006 -0.0917629 3.79991 250.283 190.506)" d="M3.28776 13.1788L15.6779 1.98902"></path>
  <path fill="#4B2713" transform="matrix(1.38605 -0.197147 0.197147 1.38605 244.065 50.4833)" d="M-2.86102e-06 1.52588e-05C-2.86102e-06 1.52588e-05 -10.1283 1.52588e-05 -18.5112 1.52588e-05C-50.5518 1.30371 -90.5253 32.2772 -90.5253 128C-90.5253 223.723 -43.5873 256 -19 256C-10.617 256 -1.90735e-06 256 -1.90735e-06 256C-17.0194 256 -71.5253 223.723 -71.5253 128C-71.5253 32.2772 -17.0194 1.52588e-05 -2.86102e-06 1.52588e-05Z"></path>
  <path fill="#A5A5A5" transform="matrix(0.786227 0 0 0.196328 257.267 478.725)" d="M-0.25 -88C55.945 -88 101.5 -48.6011 101.5 0C101.5 48.6011 55.945 88 -0.25 88C-56.445 88 -102 48.6011 -102 0C-102 -48.6011 -56.445 -88 -0.25 -88Z" style="mix-blend-mode: multiply"></path>
</svg>