<?xml version="1.0" encoding="utf-8"?>
<svg xmlns="http://www.w3.org/2000/svg" xmlns:xlink="http://www.w3.org/1999/xlink" width="512" height="512">
  <path fill="#312F2F" transform="matrix(0.803831 -0.124576 0.21441 1.38348 243.014 229.29)" d="M-9.53674e-07 -128C70.6925 -128 128 -70.6925 128 0C128 70.6925 70.6925 128 -9.53674e-07 128C-70.6925 128 -128 70.6925 -128 0C-128 -70.6925 -70.6925 -128 -9.53674e-07 -128Z"></path>
  <path fill="none" stroke="black" stroke-width="7" stroke-miterlimit="4" transform="translate(256 256)" d="M-14.1445 -207.869C42.6803 -216.676 101.033 -144.531 116.19 -46.7292C131.348 51.0727 97.5693 137.496 40.7445 146.303C-16.0803 155.109 -74.4332 82.9643 -89.5904 -14.8376C-104.748 -112.639 -70.9693 -199.063 -14.1445 -207.869Z"></path>
  <path fill="none" stroke="black" stroke-width="7" stroke-linejoin="round" transform="translate(256 256)" d="M-14.1445 -207.869C-14.1445 -207.869 -28.7142 -205.611 -39.7276 -203.905C-85.539 -194.958 -136.401 -143.195 -115.877 -10.7638C-95.3526 121.667 -20.9109 155.858 14.4583 150.376C25.4717 148.67 40.7445 146.303 40.7445 146.303C40.5137 146.338 40.2775 146.371 40.0359 146.4"></path>
  <path fill="#8D5A3E" transform="matrix(0.803831 -0.124576 0.21441 1.38348 269.3 225.217)" d="M-1.90735e-06 -128C70.6925 -128 128 -70.6925 128 0C128 70.6925 70.6925 128 -1.90735e-06 128C-70.6925 128 -128 70.6925 -128 0C-128 -70.6925 -70.6925 -128 -1.90735e-06 -128Z"></path>
  <path fill="#4B2713" transform="matrix(0.803831 -0.124576 0.21441 1.38348 274.31 223.023)" d="M0.250002 -87.5C51.4744 -87.5 93 -48.4368 93 -0.25C93 47.9368 51.4744 87 0.250002 87C-50.9744 87 -92.5 47.9368 -92.5 -0.25C-92.5 -48.4368 -50.9744 -87.5 0.250002 -87.5Z"></path>
  <path fill="#693920" transform="matrix(0.803831 -0.124576 0.21441 1.38348 269.3 225.217)" d="M-1.90735e-06 -86C47.4965 -86 86 -47.4965 86 0C86 47.4965 47.4965 86 -1.90735e-06 86C-47.4965 86 -86 47.4965 -86 0C-86 -47.4965 -47.4965 -86 -1.90735e-06 -86Z"></path>
  <path fill="#1F0D04" transform="matrix(2.32417 0.773357 -0.0689906 3.80457 250.133 245.821)" d="M-2.49913e-07 -6.1709C3.40809 -6.1709 6.1709 -3.40809 6.1709 0C6.1709 3.40809 3.40809 6.1709 -2.26924e-07 6.1709C-3.40809 6.1709 -6.1709 3.40809 -6.1709 0C-6.1709 -3.40809 -3.40809 -6.1709 -2.49913e-07 -6.1709Z"></path>
  <clipPath id="cl_bb">
    <path d="M250.559 222.343C258.48 224.979 264.71 237.627 264.475 250.593C264.24 263.559 257.628 271.934 249.707 269.298C241.786 266.663 235.556 254.015 235.791 241.048C236.026 228.082 242.638 219.707 250.559 222.343Z"></path>
  </clipPath>
  <g clip-path="url(#cl_bb)">
    <path fill="#2F1507" transform="matrix(2.32417 0.773357 -0.0689906 3.80457 247.403 251.101)" d="M-1.14942e-08 -6.1709C3.40809 -6.1709 6.1709 -3.40809 6.1709 -5.96046e-08C6.1709 3.40809 3.40809 6.1709 1.14942e-08 6.1709C-3.40809 6.1709 -6.1709 3.40809 -6.1709 -5.96046e-08C-6.1709 -3.40809 -3.40809 -6.1709 -1.14942e-08 -6.1709Z"></path>
  </g>
  <path fill="#1F0D04" transform="matrix(2.32417 0.773357 -0.0689906 3.80457 251.152 189.641)" d="M2.26924e-07 -6.1709C3.40809 -6.1709 6.1709 -3.40809 6.1709 0C6.1709 3.40809 3.40809 6.1709 2.49913e-07 6.1709C-3.40809 6.1709 -6.1709 3.40809 -6.1709 0C-6.1709 -3.40809 -3.40809 -6.1709 2.26924e-07 -6.1709Z"></path>
  <clipPath id="cl_bc">
    <path d="M251.578 166.163C259.499 168.799 265.729 181.447 265.494 194.413C265.259 207.38 258.647 215.754 250.726 213.119C242.805 210.483 236.574 197.835 236.81 184.869C237.045 171.902 243.657 163.528 251.578 166.163Z"></path>
  </clipPath>
  <g clip-path="url(#cl_bc)">
    <path fill="#2F1507" transform="matrix(2.32417 0.773357 -0.0689906 3.80457 248.369 197.837)" d="M-2.49913e-07 -6.1709C3.40809 -6.1709 6.1709 -3.40809 6.1709 0C6.1709 3.40809 3.40809 6.1709 -2.26924e-07 6.1709C-3.40809 6.1709 -6.1709 3.40809 -6.1709 0C-6.1709 -3.40809 -3.40809 -6.1709 -2.49913e-07 -6.1709Z"></path>
  </g>
  <path fill="#1F0D04" transform="matrix(2.32417 0.773357 -0.0689906 3.80457 286.731 257.998)" d="M-1.14942e-08 -6.1709C3.40809 -6.1709 6.1709 -3.40809 6.1709 2.38419e-07C6.1709 3.40809 3.40809 6.1709 1.14942e-08 6.1709C-3.40809 6.1709 -6.1709 3.40809 -6.1709 2.38419e-07C-6.1709 -3.40809 -3.40809 -6.1709 -1.14942e-08 -6.1709Z"></path>
  <clipPath id="cl_bd">
    <path d="M287.156 234.521C295.077 237.156 301.308 249.804 301.073 262.771C300.838 275.737 294.226 284.112 286.305 281.476C278.384 278.84 272.153 266.192 272.388 253.226C272.623 240.26 279.235 231.885 287.156 234.521Z"></path>
  </clipPath>
  <g clip-path="url(#cl_bd)">
    <path fill="#2F1507" transform="matrix(2.32417 0.773357 -0.0689906 3.80457 284.624 261.572)" d="M-1.14942e-08 -6.1709C3.40809 -6.1709 6.1709 -3.40809 6.1709 0C6.1709 3.40809 3.40809 6.1709 1.14942e-08 6.1709C-3.40809 6.1709 -6.1709 3.40809 -6.1709 0C-6.1709 -3.40809 -3.40809 -6.1709 -1.14942e-08 -6.1709Z"></path>
  </g>
  <path fill="#1F0D04" transform="matrix(2.32417 0.773357 -0.0689906 3.80457 287.749 201.819)" d="M-1.91884e-06 -6.1709C3.40809 -6.1709 6.1709 -3.40809 6.1709 0C6.1709 3.40809 3.40809 6.1709 -1.89585e-06 6.1709C-3.4081 6.1709 -6.1709 3.40809 -6.1709 0C-6.1709 -3.40809 -3.4081 -6.1709 -1.91884e-06 -6.1709Z"></path>
  <clipPath id="cl_be">
    <path d="M288.175 178.341C296.096 180.977 302.327 193.625 302.091 206.591C301.856 219.557 295.245 227.932 287.324 225.296C279.403 222.661 273.172 210.013 273.407 197.046C273.642 184.08 280.254 175.705 288.175 178.341Z"></path>
  </clipPath>
  <g clip-path="url(#cl_be)">
    <path fill="#2F1507" transform="matrix(2.32417 0.773357 -0.0689906 3.80457 283.266 207.535)" d="M9.65169e-07 -6.1709C3.40809 -6.1709 6.1709 -3.40809 6.1709 0C6.1709 3.40809 3.40809 6.1709 9.4218e-07 6.1709C-3.40809 6.1709 -6.1709 3.40809 -6.1709 0C-6.1709 -3.40809 -3.40809 -6.1709 9.65169e-07 -6.1709Z"></path>
  </g>
  <path fill="none" stroke="#E3CEC2" stroke-width="4" stroke-linecap="round" stroke-linejoin="round" transform="matrix(2.32417 0.773357 -0.0689906 3.80457 249.286 188.147)" d="M2.42519 2.41434L15.2044 14.4568"></path>
  <path fill="none" stroke="#C8AD9D" stroke-width="4" stroke-linecap="round" stroke-linejoin="round" transform="matrix(2.32417 0.773357 -0.0689906 3.80457 249.286 188.147)" d="M3.28776 13.1788L15.6779 1.98901"></path>
  <path fill="#4B2713" transform="matrix(1.38348 -0.21441 0.21441 1.38348 241.855 48.1306)" d="M4.76837e-06 0C4.76837e-06 0 -10.5311 -1.52588e-05 -18.4918 -1.52588e-05C-51.8069 1.30368 -93.3705 32.2772 -93.3705 128C-93.3705 223.723 -44.5653 256 -19 256C-11.0394 256 7.62939e-06 256 3.8147e-06 256C-17.6964 256 -74.3705 223.723 -74.3705 128C-74.3705 32.2772 -17.6964 -1.52588e-05 4.76837e-06 0Z"></path>
  <path fill="#A5A5A5" transform="matrix(0.845092 0 0 0.196328 257.833 478.725)" d="M-0.25 -88C55.945 -88 101.5 -48.6011 101.5 0C101.5 48.6011 55.945 88 -0.25 88C-56.445 88 -102 48.6011 -102 0C-102 -48.6011 -56.445 -88 -0.25 -88Z" style="mix-blend-mode: multiply"></path>
</svg>