<?xml version="1.0" encoding="utf-8"?>
<svg xmlns="http://www.w3.org/2000/svg" xmlns:xlink="http://www.w3.org/1999/xlink" width="512" height="512">
  <path fill="#312F2F" transform="matrix(0.816771 -0.0765913 0.130709 1.39388 242.816 227.103)" d="M0 -128C70.6924 -128 128 -70.6924 128 1.90735e-06C128 70.6924 70.6924 128 0 128C-70.6924 128 -128 70.6924 -128 1.90735e-06C-128 -70.6924 -70.6924 -128 0 -128Z"></path>
  <path fill="none" stroke="black" stroke-width="7" stroke-miterlimit="4" transform="translate(256 256)" d="M-3.43076 -209.797C54.3088 -215.212 108.607 -139.721 117.847 -41.1839C127.087 57.3533 87.7703 141.623 30.0308 147.037C-27.7088 152.451 -82.0066 76.9606 -91.2467 -21.5765C-100.487 -120.114 -61.1703 -204.383 -3.43076 -209.797Z"></path>
  <path fill="none" stroke="black" stroke-width="7" stroke-linejoin="round" transform="translate(256 256)" d="M-3.43076 -209.797C-3.43076 -209.797 -18.235 -208.409 -29.2001 -207.381C-75.8626 -201.172 -130.242 -152.52 -117.731 -19.093C-105.219 114.334 -32.3916 152.891 3.54696 149.521C14.5121 148.492 30.0308 147.037 30.0308 147.037C29.7817 147.06 29.5268 147.08 29.266 147.095"></path>
  <path fill="#8D5A3E" transform="matrix(0.816771 -0.0765913 0.130709 1.39388 269.3 224.62)" d="M0 -128C70.6924 -128 128 -70.6924 128 0C128 70.6924 70.6924 128 0 128C-70.6924 128 -128 70.6924 -128 0C-128 -70.6924 -70.6924 -128 0 -128Z"></path>
  <path fill="#4B2713" transform="matrix(0.816771 -0.0765913 0.130709 1.39388 274.478 222.728)" d="M0.250002 -87.5C51.4744 -87.5 93 -48.4368 93 -0.249998C93 47.9368 51.4744 87 0.250002 87C-50.9744 87 -92.5 47.9368 -92.5 -0.249998C-92.5 -48.4368 -50.9744 -87.5 0.250002 -87.5Z"></path>
  <path fill="#693920" transform="matrix(0.816771 -0.0765913 0.130709 1.39388 269.3 224.62)" d="M0 -86C47.4965 -86 86 -47.4965 86 0C86 47.4965 47.4965 86 0 86C-47.4965 86 -86 47.4965 -86 0C-86 -47.4965 -47.4965 -86 0 -86Z"></path>
  <path fill="#1F0D04" transform="matrix(2.29185 0.910181 -0.303491 3.79403 248.74 244.05)" d="M0 -6.1709C3.40809 -6.1709 6.1709 -3.40809 6.1709 -1.46465e-07C6.1709 3.40809 3.40809 6.1709 0 6.1709C-3.40809 6.1709 -6.1709 3.40809 -6.1709 -3.30372e-07C-6.1709 -3.40809 -3.40809 -6.1709 0 -6.1709Z"></path>
  <clipPath id="cl_12f">
    <path d="M250.613 220.637C258.423 223.739 263.917 236.736 262.883 249.667C261.848 262.597 254.678 270.564 246.867 267.462C239.056 264.36 233.563 251.364 234.597 238.433C235.631 225.503 242.802 217.535 250.613 220.637Z"></path>
  </clipPath>
  <g clip-path="url(#cl_12f)">
    <path fill="#2F1507" transform="matrix(2.29185 0.910181 -0.303491 3.79403 245.667 249.159)" d="M-4.76837e-07 -6.1709C3.40809 -6.1709 6.1709 -3.40809 6.1709 3.23489e-08C6.1709 3.40809 3.40809 6.1709 -4.76837e-07 6.1709C-3.40809 6.1709 -6.1709 3.40809 -6.1709 -1.51558e-07C-6.1709 -3.40809 -3.40809 -6.1709 -4.76837e-07 -6.1709Z"></path>
  </g>
  <path fill="#1F0D04" transform="matrix(2.29185 0.910181 -0.303491 3.79403 253.221 188.026)" d="M4.76837e-07 -6.1709C3.40809 -6.1709 6.1709 -3.40809 6.1709 9.19536e-08C6.1709 3.40809 3.40809 6.1709 4.76837e-07 6.1709C-3.40809 6.1709 -6.1709 3.40809 -6.1709 -9.19536e-08C-6.1709 -3.40809 -3.40809 -6.1709 4.76837e-07 -6.1709Z"></path>
  <clipPath id="cl_130">
    <path d="M255.094 164.613C262.905 167.715 268.398 180.712 267.364 193.643C266.33 206.573 259.159 214.54 251.348 211.438C243.538 208.336 238.044 195.34 239.078 182.409C240.113 169.479 247.283 161.511 255.094 164.613Z"></path>
  </clipPath>
  <g clip-path="url(#cl_130)">
    <path fill="#2F1507" transform="matrix(2.29185 0.910181 -0.303491 3.79403 249.916 196.042)" d="M-4.76837e-07 -6.1709C3.40809 -6.1709 6.1709 -3.40809 6.1709 9.19536e-08C6.1709 3.40809 3.40809 6.1709 -4.76837e-07 6.1709C-3.40809 6.1709 -6.1709 3.40809 -6.1709 -9.19536e-08C-6.1709 -3.40809 -3.40809 -6.1709 -4.76837e-07 -6.1709Z"></path>
  </g>
  <path fill="#1F0D04" transform="matrix(2.29185 0.910181 -0.303491 3.79403 284.828 258.382)" d="M0 -6.1709C3.40809 -6.1709 6.1709 -3.40809 6.1709 9.19536e-08C6.1709 3.40809 3.40809 6.1709 0 6.1709C-3.40809 6.1709 -6.1709 3.40809 -6.1709 -9.19536e-08C-6.1709 -3.40809 -3.40809 -6.1709 0 -6.1709Z"></path>
  <clipPath id="cl_131">
    <path d="M286.701 234.969C294.512 238.071 300.005 251.068 298.971 263.999C297.937 276.929 290.766 284.897 282.955 281.795C275.145 278.693 269.651 265.696 270.686 252.765C271.72 239.835 278.89 231.867 286.701 234.969Z"></path>
  </clipPath>
  <g clip-path="url(#cl_131)">
    <path fill="#2F1507" transform="matrix(2.29185 0.910181 -0.303491 3.79403 282.488 261.824)" d="M-9.53674e-07 -6.1709C3.40809 -6.1709 6.1709 -3.40809 6.1709 2.11163e-07C6.1709 3.40809 3.40809 6.1709 -9.53674e-07 6.1709C-3.40809 6.1709 -6.1709 3.40809 -6.1709 2.72557e-08C-6.1709 -3.40809 -3.40809 -6.1709 -9.53674e-07 -6.1709Z"></path>
  </g>
  <path fill="#1F0D04" transform="matrix(2.29185 0.910181 -0.303491 3.79403 289.31 202.358)" d="M9.53674e-07 -6.1709C3.40809 -6.1709 6.1709 -3.40809 6.1709 9.19536e-08C6.1709 3.40809 3.40809 6.1709 9.53674e-07 6.1709C-3.40809 6.1709 -6.1709 3.40809 -6.1709 -9.19536e-08C-6.1709 -3.40809 -3.40809 -6.1709 9.53674e-07 -6.1709Z"></path>
  <clipPath id="cl_132">
    <path d="M291.183 178.945C298.993 182.047 304.487 195.044 303.453 207.975C302.418 220.905 295.248 228.873 287.437 225.771C279.626 222.669 274.133 209.672 275.167 196.741C276.201 183.811 283.372 175.843 291.183 178.945Z"></path>
  </clipPath>
  <g clip-path="url(#cl_132)">
    <path fill="#2F1507" transform="matrix(2.29185 0.910181 -0.303491 3.79403 284.445 207.798)" d="M0 -6.1709C3.40809 -6.1709 6.1709 -3.40809 6.1709 -9.19536e-08C6.1709 3.40809 3.40809 6.1709 0 6.1709C-3.40809 6.1709 -6.1709 3.40809 -6.1709 9.19536e-08C-6.1709 -3.40809 -3.40809 -6.1709 0 -6.1709Z"></path>
  </g>
  <path fill="none" stroke="#E3CEC2" stroke-width="4" stroke-linecap="round" stroke-linejoin="round" transform="matrix(2.29185 0.910181 -0.303491 3.79403 251.435 186.424)" d="M2.42519 2.41434L15.2044 14.4568"></path>
  <path fill="none" stroke="#C8AD9D" stroke-width="4" stroke-linecap="round" stroke-linejoin="round" transform="matrix(2.29185 0.910181 -0.303491 3.79403 251.435 186.424)" d="M3.28776 13.1788L15.6779 1.98901"></path>
  <path fill="#4B2713" transform="matrix(1.39388 -0.130709 0.130709 1.39388 252.569 46.2025)" d="M-4.05312e-06 -1.52588e-05C-4.05312e-06 -1.52588e-05 -10.6208 -3.05176e-05 -18.4874 -1.52588e-05C-52.0863 1.30368 -94.0039 32.2771 -94.0039 128C-94.0039 223.723 -44.783 256 -19 256C-11.1334 256 -1.90735e-06 256 -3.8147e-06 256C-17.8471 256 -75.0039 223.723 -75.0039 128C-75.0039 32.2772 -17.8471 -3.05176e-05 -4.05312e-06 -1.52588e-05Z"></path>
  <path fill="#A5A5A5" transform="matrix(0.858196 0 0 0.196328 257.959 478.725)" d="M-0.25 -88C55.945 -88 101.5 -48.6011 101.5 0C101.5 48.6011 55.945 88 -0.25 88C-56.445 88 -102 48.6011 -102 0C-102 -48.6011 -56.445 -88 -0.25 -88Z" style="mix-blend-mode: multiply"></path>
</svg>