<?xml version="1.0" encoding="utf-8"?>
<svg xmlns="http://www.w3.org/2000/svg" xmlns:xlink="http://www.w3.org/1999/xlink" width="512" height="512">
  <path fill="#312F2F" transform="matrix(1.17326 -0.00487574 0.00581794 1.39999 242.7 194.326)" d="M-1.01328e-06 -128C70.6925 -128 128 -70.6924 128 3.8147e-06C128 70.6925 70.6925 128 -8.9407e-07 128C-70.6925 128 -128 70.6925 -128 3.8147e-06C-128 -70.6924 -70.6925 -128 -1.01328e-06 -128Z"></path>
  <path fill="none" stroke="black" stroke-width="7" stroke-miterlimit="4" transform="translate(256 256)" d="M12.5553 -240.983C95.4963 -241.328 163.067 -161.378 163.478 -62.4091C163.889 36.5595 96.9857 117.069 14.0447 117.413C-68.8963 117.758 -136.467 37.8077 -136.878 -61.1609C-137.289 -160.129 -70.3856 -240.639 12.5553 -240.983Z"></path>
  <path fill="none" stroke="black" stroke-width="7" stroke-linejoin="round" transform="translate(256 256)" d="M12.5553 -240.983C12.5553 -240.983 -8.71044 -240.895 -13.0182 -240.877C-80.2845 -238.772 -164.035 -195.061 -163.478 -61.0503C-162.921 72.9605 -64.1796 117.739 -12.5551 117.524C-8.24733 117.506 14.0447 117.413 14.0447 117.413C12.7968 117.419 11.4528 117.369 10.0207 117.263"></path>
  <path fill="#8D5A3E" transform="matrix(1.17326 -0.00487574 0.00581794 1.39999 269.3 194.215)" d="M8.9407e-07 -128C70.6925 -128 128 -70.6925 128 -3.8147e-06C128 70.6924 70.6925 128 1.01328e-06 128C-70.6925 128 -128 70.6924 -128 -3.8147e-06C-128 -70.6925 -70.6925 -128 8.9407e-07 -128Z"></path>
  <path fill="#4B2713" transform="matrix(1.17326 -0.00487574 0.00581794 1.39999 276.92 192.783)" d="M0.25 -87.5C51.4744 -87.5 93 -48.4368 93 -0.25C93 47.9368 51.4744 87 0.25 87C-50.9744 87 -92.5 47.9368 -92.5 -0.25C-92.5 -48.4368 -50.9744 -87.5 0.25 -87.5Z"></path>
  <path fill="#693920" transform="matrix(1.17326 -0.00487574 0.00581794 1.39999 269.3 194.215)" d="M9.13627e-07 -86C47.4965 -86 86 -47.4965 86 -3.8147e-06C86 47.4965 47.4965 86 9.93721e-07 86C-47.4965 86 -86 47.4965 -86 -3.8147e-06C-86 -47.4965 -47.4965 -86 9.13627e-07 -86Z"></path>
  <path fill="#1F0D04" transform="matrix(3.14659 1.10711 -0.923183 3.75299 237.501 211.773)" d="M0 -6.1709C3.40809 -6.1709 6.1709 -3.40809 6.1709 -7.69767e-07C6.1709 3.40809 3.40809 6.1709 0 6.1709C-3.40809 6.1709 -6.1709 3.40809 -6.1709 -1.13758e-06C-6.1709 -3.40809 -3.40809 -6.1709 0 -6.1709Z"></path>
  <clipPath id="cl_1db">
    <path d="M243.198 188.614C253.922 192.387 260.065 205.814 256.919 218.605C253.772 231.395 242.528 238.705 231.804 234.932C221.081 231.159 214.938 217.732 218.084 204.941C221.23 192.151 232.474 184.84 243.198 188.614Z"></path>
  </clipPath>
  <g clip-path="url(#cl_1db)">
    <path fill="#2F1507" transform="matrix(3.14659 1.10711 -0.923183 3.75299 232.463 216.593)" d="M0 -6.1709C3.40809 -6.1709 6.1709 -3.40809 6.1709 6.60744e-07C6.1709 3.40809 3.40809 6.1709 0 6.1709C-3.40809 6.1709 -6.1709 3.40809 -6.1709 2.9293e-07C-6.1709 -3.40809 -3.40809 -6.1709 0 -6.1709Z"></path>
  </g>
  <path fill="#1F0D04" transform="matrix(3.14659 1.10711 -0.923183 3.75299 251.133 156.355)" d="M0 -6.1709C3.40809 -6.1709 6.1709 -3.40809 6.1709 1.83907e-07C6.1709 3.40809 3.40809 6.1709 0 6.1709C-3.40809 6.1709 -6.1709 3.40809 -6.1709 -1.83907e-07C-6.1709 -3.40809 -3.40809 -6.1709 0 -6.1709Z"></path>
  <clipPath id="cl_1dc">
    <path d="M256.83 133.196C267.554 136.969 273.697 150.396 270.551 163.187C267.404 175.977 256.16 183.287 245.436 179.514C234.713 175.741 228.57 162.314 231.716 149.523C234.862 136.733 246.106 129.423 256.83 133.196Z"></path>
  </clipPath>
  <g clip-path="url(#cl_1dc)">
    <path fill="#2F1507" transform="matrix(3.14659 1.10711 -0.923183 3.75299 245.388 164.052)" d="M0 -6.1709C3.40809 -6.1709 6.1709 -3.40809 6.1709 1.83907e-07C6.1709 3.40809 3.40809 6.1709 0 6.1709C-3.40809 6.1709 -6.1709 3.40809 -6.1709 -1.83907e-07C-6.1709 -3.40809 -3.40809 -6.1709 0 -6.1709Z"></path>
  </g>
  <path fill="#1F0D04" transform="matrix(3.14659 1.10711 -0.923183 3.75299 287.049 229.206)" d="M4.76837e-07 -6.1709C3.40809 -6.1709 6.1709 -3.40809 6.1709 1.83907e-07C6.1709 3.40809 3.40809 6.1709 4.76837e-07 6.1709C-3.40809 6.1709 -6.1709 3.40809 -6.1709 -1.83907e-07C-6.1709 -3.40809 -3.40809 -6.1709 4.76837e-07 -6.1709Z"></path>
  <clipPath id="cl_1dd">
    <path d="M292.746 206.047C303.47 209.82 309.613 223.247 306.466 236.038C303.32 248.829 292.076 256.139 281.352 252.365C270.628 248.592 264.485 235.165 267.632 222.374C270.778 209.584 282.022 202.274 292.746 206.047Z"></path>
  </clipPath>
  <g clip-path="url(#cl_1dd)">
    <path fill="#2F1507" transform="matrix(3.14659 1.10711 -0.923183 3.75299 283.27 232.431)" d="M4.76837e-07 -6.1709C3.40809 -6.1709 6.1709 -3.40809 6.1709 1.83907e-07C6.1709 3.40809 3.40809 6.1709 4.76837e-07 6.1709C-3.40809 6.1709 -6.1709 3.40809 -6.1709 -1.83907e-07C-6.1709 -3.40809 -3.40809 -6.1709 4.76837e-07 -6.1709Z"></path>
  </g>
  <path fill="#1F0D04" transform="matrix(3.14659 1.10711 -0.923183 3.75299 300.681 173.788)" d="M0 -6.1709C3.40809 -6.1709 6.1709 -3.40809 6.1709 1.83907e-07C6.1709 3.40809 3.40809 6.1709 0 6.1709C-3.40809 6.1709 -6.1709 3.40809 -6.1709 -1.83907e-07C-6.1709 -3.40809 -3.40809 -6.1709 0 -6.1709Z"></path>
  <clipPath id="cl_1de">
    <path d="M306.378 150.629C317.102 154.402 323.245 167.829 320.098 180.62C316.952 193.411 305.708 200.721 294.984 196.947C284.26 193.174 278.117 179.747 281.264 166.956C284.41 154.166 295.654 146.856 306.378 150.629Z"></path>
  </clipPath>
  <g clip-path="url(#cl_1de)">
    <path fill="#2F1507" transform="matrix(3.14659 1.10711 -0.923183 3.75299 293.048 178.782)" d="M4.76837e-07 -6.1709C3.40809 -6.1709 6.1709 -3.40809 6.1709 -1.83907e-07C6.1709 3.40809 3.40809 6.1709 4.76837e-07 6.1709C-3.40809 6.1709 -6.1709 3.40809 -6.1709 1.83907e-07C-6.1709 -3.40809 -3.40809 -6.1709 4.76837e-07 -6.1709Z"></path>
  </g>
  <path fill="none" stroke="#E3CEC2" stroke-width="4" stroke-linecap="round" stroke-linejoin="round" transform="matrix(3.14659 1.10711 -0.923183 3.75299 248.796 154.603)" d="M2.42519 2.41434L15.2044 14.4568"></path>
  <path fill="none" stroke="#C8AD9D" stroke-width="4" stroke-linecap="round" stroke-linejoin="round" transform="matrix(3.14659 1.10711 -0.923183 3.75299 248.796 154.603)" d="M3.28776 13.1788L15.6779 1.98902"></path>
  <path fill="#4B2713" transform="matrix(1.39999 -0.00581794 0.00581794 1.39999 268.555 15.0166)" d="M-1.90735e-06 -3.05176e-05C-1.90735e-06 -3.05176e-05 -15.19 -1.52588e-05 -18.2669 0C-66.3202 1.3037 -126.271 32.2772 -126.271 128C-126.271 223.723 -55.875 256 -19 256C-15.923 256 -1.90735e-06 256 9.53674e-07 256C-25.525 256 -107.271 223.723 -107.271 128C-107.271 32.2772 -25.525 -3.05176e-05 -1.90735e-06 -3.05176e-05Z"></path>
  <path fill="#A5A5A5" transform="matrix(1.52578 0 0 0.196328 264.384 478.725)" d="M-0.25 -88.0001C55.945 -88.0001 101.5 -48.6012 101.5 -0.00012207C101.5 48.6009 55.945 87.9999 -0.25 87.9999C-56.445 87.9999 -102 48.6009 -102 -0.00012207C-102 -48.6012 -56.445 -88.0001 -0.25 -88.0001Z" style="mix-blend-mode: multiply"></path>
</svg>