<?xml version="1.0" encoding="utf-8"?>
<svg xmlns="http://www.w3.org/2000/svg" xmlns:xlink="http://www.w3.org/1999/xlink" width="512" height="512">
  <path fill="#312F2F" transform="matrix(0.859066 -0.0715627 0.116221 1.39517 242.792 223.237)" d="M9.53674e-07 -128C70.6925 -128 128 -70.6925 128 -4.76837e-07C128 70.6925 70.6925 128 9.53674e-07 128C-70.6925 128 -128 70.6925 -128 4.76837e-07C-128 -70.6925 -70.6925 -128 9.53674e-07 -128Z"></path>
  <path fill="none" stroke="black" stroke-width="7" stroke-miterlimit="4" transform="translate(256 256)" d="M-1.57634 -213.553C59.1532 -218.612 115.045 -142.759 123.261 -44.1317C131.477 54.4961 88.9059 138.551 28.1764 143.61C-32.5532 148.669 -88.4445 72.8162 -96.6605 -25.8116C-104.876 -124.439 -62.3059 -208.494 -1.57634 -213.553Z"></path>
  <path fill="none" stroke="black" stroke-width="7" stroke-linejoin="round" transform="translate(256 256)" d="M-1.57634 -213.553C-1.57634 -213.553 -17.1472 -212.256 -27.3331 -211.407C-76.4396 -205.485 -134.294 -157.153 -123.169 -23.6034C-112.044 109.946 -36.1314 148.967 1.66817 145.818C11.8541 144.969 28.1764 143.61 28.1764 143.61C27.8274 143.639 27.4676 143.661 27.0971 143.675"></path>
  <path fill="#8D5A3E" transform="matrix(0.859066 -0.0715627 0.116221 1.39517 269.3 221.028)" d="M0 -128C70.6925 -128 128 -70.6925 128 -4.76837e-07C128 70.6925 70.6925 128 0 128C-70.6925 128 -128 70.6925 -128 4.76837e-07C-128 -70.6925 -70.6925 -128 0 -128Z"></path>
  <path fill="#4B2713" transform="matrix(0.859066 -0.0715627 0.116221 1.39517 274.768 219.168)" d="M0.25 -87.5C51.4744 -87.5 93 -48.4369 93 -0.250002C93 47.9368 51.4744 87 0.25 87C-50.9744 87 -92.5 47.9368 -92.5 -0.250002C-92.5 -48.4368 -50.9744 -87.5 0.25 -87.5Z"></path>
  <path fill="#693920" transform="matrix(0.859066 -0.0715627 0.116221 1.39517 269.3 221.028)" d="M0 -86C47.4965 -86 86 -47.4965 86 -3.20375e-07C86 47.4965 47.4965 86 0 86C-47.4965 86 -86 47.4965 -86 3.20375e-07C-86 -47.4965 -47.4965 -86 0 -86Z"></path>
  <path fill="#1F0D04" transform="matrix(2.39352 0.924674 -0.37613 3.79344 247.41 240.338)" d="M9.19536e-08 -6.1709C3.40809 -6.1709 6.1709 -3.40809 6.1709 3.30372e-07C6.1709 3.40809 3.40809 6.1709 -9.19536e-08 6.1709C-3.40809 6.1709 -6.1709 3.40809 -6.1709 1.46465e-07C-6.1709 -3.40809 -3.40809 -6.1709 9.19536e-08 -6.1709Z"></path>
  <clipPath id="cl_143">
    <path d="M249.732 216.929C257.889 220.08 263.463 233.115 262.181 246.044C260.899 258.972 253.247 266.898 245.089 263.747C236.932 260.595 231.358 247.56 232.64 234.632C233.922 221.703 241.574 213.777 249.732 216.929Z"></path>
  </clipPath>
  <g clip-path="url(#cl_143)">
    <path fill="#2F1507" transform="matrix(2.39352 0.924674 -0.37613 3.79344 244.105 245.429)" d="M-3.84884e-07 -6.1709C3.40809 -6.1709 6.1709 -3.40809 6.1709 9.19536e-08C6.1709 3.40809 3.40809 6.1709 -5.68791e-07 6.1709C-3.40809 6.1709 -6.1709 3.40809 -6.1709 -9.19536e-08C-6.1709 -3.40809 -3.40809 -6.1709 -3.84884e-07 -6.1709Z"></path>
  </g>
  <path fill="#1F0D04" transform="matrix(2.39352 0.924674 -0.37613 3.79344 252.965 184.323)" d="M9.19536e-08 -6.1709C3.40809 -6.1709 6.1709 -3.40809 6.1709 9.19536e-08C6.1709 3.40809 3.40809 6.1709 -9.19536e-08 6.1709C-3.40809 6.1709 -6.1709 3.40809 -6.1709 -9.19536e-08C-6.1709 -3.40809 -3.40809 -6.1709 9.19536e-08 -6.1709Z"></path>
  <clipPath id="cl_144">
    <path d="M255.286 160.914C263.443 164.065 269.017 177.1 267.735 190.029C266.453 202.957 258.801 210.883 250.644 207.731C242.486 204.58 236.912 191.545 238.194 178.616C239.476 165.688 247.128 157.762 255.286 160.914Z"></path>
  </clipPath>
  <g clip-path="url(#cl_144)">
    <path fill="#2F1507" transform="matrix(2.39352 0.924674 -0.37613 3.79344 249.371 192.321)" d="M-3.84884e-07 -6.1709C3.40809 -6.1709 6.1709 -3.40809 6.1709 9.19536e-08C6.1709 3.40809 3.40809 6.1709 -5.68791e-07 6.1709C-3.40809 6.1709 -6.1709 3.40809 -6.1709 -9.19536e-08C-6.1709 -3.40809 -3.40809 -6.1709 -3.84884e-07 -6.1709Z"></path>
  </g>
  <path fill="#1F0D04" transform="matrix(2.39352 0.924674 -0.37613 3.79344 285.1 254.898)" d="M1.04563e-06 -6.1709C3.40809 -6.1709 6.1709 -3.40809 6.1709 3.30372e-07C6.1709 3.40809 3.40809 6.1709 8.61721e-07 6.1709C-3.40809 6.1709 -6.1709 3.40809 -6.1709 1.46465e-07C-6.1709 -3.40809 -3.40809 -6.1709 1.04563e-06 -6.1709Z"></path>
  <clipPath id="cl_145">
    <path d="M287.421 231.489C295.578 234.641 301.152 247.676 299.87 260.604C298.588 273.533 290.936 281.458 282.779 278.307C274.622 275.156 269.048 262.12 270.33 249.192C271.612 236.264 279.264 228.338 287.421 231.489Z"></path>
  </clipPath>
  <g clip-path="url(#cl_145)">
    <path fill="#2F1507" transform="matrix(2.39352 0.924674 -0.37613 3.79344 282.59 258.327)" d="M1.04563e-06 -6.1709C3.40809 -6.1709 6.1709 -3.40809 6.1709 9.19536e-08C6.1709 3.40809 3.40809 6.1709 8.61721e-07 6.1709C-3.40809 6.1709 -6.1709 3.40809 -6.1709 -9.19536e-08C-6.1709 -3.40809 -3.40809 -6.1709 1.04563e-06 -6.1709Z"></path>
  </g>
  <path fill="#1F0D04" transform="matrix(2.39352 0.924674 -0.37613 3.79344 290.654 198.883)" d="M9.19536e-08 -6.1709C3.40809 -6.1709 6.1709 -3.40809 6.1709 9.19536e-08C6.1709 3.40809 3.40809 6.1709 -9.19536e-08 6.1709C-3.40809 6.1709 -6.1709 3.40809 -6.1709 -9.19536e-08C-6.1709 -3.40809 -3.40809 -6.1709 9.19536e-08 -6.1709Z"></path>
  <clipPath id="cl_146">
    <path d="M292.975 175.474C301.133 178.625 306.706 191.661 305.424 204.589C304.142 217.517 296.49 225.443 288.333 222.292C280.176 219.14 274.602 206.105 275.884 193.177C277.166 180.248 284.818 172.323 292.975 175.474Z"></path>
  </clipPath>
  <g clip-path="url(#cl_146)">
    <path fill="#2F1507" transform="matrix(2.39352 0.924674 -0.37613 3.79344 285.462 204.294)" d="M9.53674e-07 -6.1709C3.40809 -6.1709 6.1709 -3.40809 6.1709 -9.19536e-08C6.1709 3.40809 3.40809 6.1709 9.53674e-07 6.1709C-3.40809 6.1709 -6.1709 3.40809 -6.1709 9.19536e-08C-6.1709 -3.40809 -3.40809 -6.1709 9.53674e-07 -6.1709Z"></path>
  </g>
  <path fill="none" stroke="#E3CEC2" stroke-width="4" stroke-linecap="round" stroke-linejoin="round" transform="matrix(2.39352 0.924674 -0.37613 3.79344 251.112 182.709)" d="M2.42519 2.41434L15.2044 14.4568"></path>
  <path fill="none" stroke="#C8AD9D" stroke-width="4" stroke-linecap="round" stroke-linejoin="round" transform="matrix(2.39352 0.924674 -0.37613 3.79344 251.112 182.709)" d="M3.28776 13.1788L15.6779 1.98902"></path>
  <path fill="#4B2713" transform="matrix(1.39517 -0.116221 0.116221 1.39517 254.424 42.4469)" d="M-4.76837e-07 -1.52588e-05C-4.76837e-07 -1.52588e-05 -11.1605 -1.52588e-05 -18.4614 0C-53.7676 1.30371 -97.8153 32.2772 -97.8153 128C-97.8153 223.723 -46.0932 256 -19 256C-11.6991 256 0 256 3.8147e-06 256C-18.754 256 -78.8153 223.723 -78.8153 128C-78.8153 32.2772 -18.754 0 -4.76837e-07 -1.52588e-05Z"></path>
  <path fill="#A5A5A5" transform="matrix(0.937052 0 0 0.196328 258.718 478.725)" d="M-0.25 -88.0001C55.945 -88.0001 101.5 -48.6012 101.5 -0.00012207C101.5 48.6009 55.945 87.9999 -0.25 87.9999C-56.445 87.9999 -102 48.6009 -102 -0.00012207C-102 -48.6012 -56.445 -88.0001 -0.25 -88.0001Z" style="mix-blend-mode: multiply"></path>
</svg>