<?xml version="1.0" encoding="utf-8"?>
<svg xmlns="http://www.w3.org/2000/svg" xmlns:xlink="http://www.w3.org/1999/xlink" width="512" height="512">
  <path fill="#312F2F" transform="matrix(1.02698 -0.0533937 0.0726895 1.39811 242.736 208.081)" d="M-9.53674e-07 -128C70.6924 -128 128 -70.6924 128 4.76837e-07C128 70.6924 70.6924 128 -9.53674e-07 128C-70.6924 128 -128 70.6924 -128 -4.76837e-07C-128 -70.6924 -70.6924 -128 -9.53674e-07 -128Z"></path>
  <path fill="none" stroke="black" stroke-width="7" stroke-miterlimit="4" transform="translate(256 256)" d="M3.99575 -228.259C76.5952 -232.033 139.614 -154.971 144.753 -56.135C149.892 42.701 95.2038 125.883 22.6043 129.658C-49.9952 133.432 -113.014 56.3698 -118.153 -42.4662C-123.292 -141.302 -68.6037 -224.484 3.99575 -228.259Z"></path>
  <path fill="none" stroke="black" stroke-width="7" stroke-linejoin="round" transform="translate(256 256)" d="M3.99575 -228.259C3.99575 -228.259 -14.6185 -227.291 -21.6701 -226.924C-80.4612 -222.04 -151.675 -174.916 -144.717 -41.0851C-137.759 92.7461 -49.1476 133.388 -3.95986 131.039C3.09171 130.672 22.6043 129.658 22.6043 129.658C21.7963 129.7 20.9407 129.714 20.0405 129.7"></path>
  <path fill="#8D5A3E" transform="matrix(1.02698 -0.0533937 0.0726895 1.39811 269.3 206.699)" d="M-9.53674e-07 -128C70.6924 -128 128 -70.6924 128 4.76837e-07C128 70.6924 70.6924 128 -9.53674e-07 128C-70.6924 128 -128 70.6924 -128 -4.76837e-07C-128 -70.6924 -70.6924 -128 -9.53674e-07 -128Z"></path>
  <path fill="#4B2713" transform="matrix(1.02698 -0.0533937 0.0726895 1.39811 275.903 204.954)" d="M0.250002 -87.5C51.4744 -87.5 93 -48.4368 93 -0.25C93 47.9368 51.4744 87 0.250002 87C-50.9744 87 -92.5 47.9368 -92.5 -0.25C-92.5 -48.4368 -50.9744 -87.5 0.250002 -87.5Z"></path>
  <path fill="#693920" transform="matrix(1.02698 -0.0533937 0.0726895 1.39811 269.3 206.699)" d="M-9.53674e-07 -86C47.4965 -86 86 -47.4965 86 3.20375e-07C86 47.4965 47.4965 86 -9.53674e-07 86C-47.4965 86 -86 47.4965 -86 -3.20375e-07C-86 -47.4965 -47.4965 -86 -9.53674e-07 -86Z"></path>
  <path fill="#1F0D04" transform="matrix(2.80835 0.975685 -0.627056 3.78679 242.307 225.552)" d="M4.76837e-07 -6.1709C3.40809 -6.1709 6.1709 -3.40809 6.1709 -3.84884e-07C6.1709 3.40809 3.40809 6.1709 4.76837e-07 6.1709C-3.40809 6.1709 -6.1709 3.40809 -6.1709 -5.68791e-07C-6.1709 -3.40809 -3.40809 -6.1709 4.76837e-07 -6.1709Z"></path>
  <clipPath id="cl_17f">
    <path d="M246.177 202.184C255.748 205.509 261.775 218.667 259.637 231.573C257.5 244.479 248.009 252.245 238.438 248.92C228.867 245.595 222.84 232.437 224.977 219.531C227.115 206.625 236.606 198.859 246.177 202.184Z"></path>
  </clipPath>
  <g clip-path="url(#cl_17f)">
    <path fill="#2F1507" transform="matrix(2.80835 0.975685 -0.627056 3.78679 238.129 230.575)" d="M-4.76837e-07 -6.1709C3.40809 -6.1709 6.1709 -3.40809 6.1709 -8.61721e-07C6.1709 3.40809 3.40809 6.1709 -4.76837e-07 6.1709C-3.40809 6.1709 -6.1709 3.40809 -6.1709 -1.04563e-06C-6.1709 -3.40809 -3.40809 -6.1709 -4.76837e-07 -6.1709Z"></path>
  </g>
  <path fill="#1F0D04" transform="matrix(2.80835 0.975685 -0.627056 3.78679 251.567 169.635)" d="M0 -6.1709C3.40809 -6.1709 6.1709 -3.40809 6.1709 9.19536e-08C6.1709 3.40809 3.40809 6.1709 0 6.1709C-3.40809 6.1709 -6.1709 3.40809 -6.1709 -9.19536e-08C-6.1709 -3.40809 -3.40809 -6.1709 0 -6.1709Z"></path>
  <clipPath id="cl_180">
    <path d="M255.436 146.267C265.007 149.592 271.034 162.75 268.897 175.656C266.76 188.561 257.268 196.328 247.697 193.003C238.126 189.678 232.1 176.52 234.237 163.614C236.374 150.708 245.865 142.942 255.436 146.267Z"></path>
  </clipPath>
  <g clip-path="url(#cl_180)">
    <path fill="#2F1507" transform="matrix(2.80835 0.975685 -0.627056 3.78679 246.908 177.56)" d="M0 -6.1709C3.40809 -6.1709 6.1709 -3.4081 6.1709 -1.8154e-06C6.1709 3.40809 3.40809 6.1709 0 6.1709C-3.40809 6.1709 -6.1709 3.40809 -6.1709 -1.9993e-06C-6.1709 -3.4081 -3.40809 -6.1709 0 -6.1709Z"></path>
  </g>
  <path fill="#1F0D04" transform="matrix(2.80835 0.975685 -0.627056 3.78679 286.529 240.916)" d="M0 -6.1709C3.40809 -6.1709 6.1709 -3.40809 6.1709 5.68791e-07C6.1709 3.40809 3.40809 6.1709 0 6.1709C-3.40809 6.1709 -6.1709 3.40809 -6.1709 3.84884e-07C-6.1709 -3.40809 -3.40809 -6.1709 0 -6.1709Z"></path>
  <clipPath id="cl_181">
    <path d="M290.398 217.548C299.97 220.873 305.996 234.031 303.859 246.936C301.722 259.842 292.231 267.609 282.659 264.283C273.088 260.958 267.062 247.8 269.199 234.895C271.336 221.989 280.827 214.222 290.398 217.548Z"></path>
  </clipPath>
  <g clip-path="url(#cl_181)">
    <path fill="#2F1507" transform="matrix(2.80835 0.975685 -0.627056 3.78679 283.376 244.293)" d="M0 -6.1709C3.40809 -6.1709 6.1709 -3.40809 6.1709 -3.84884e-07C6.1709 3.40809 3.40809 6.1709 0 6.1709C-3.40809 6.1709 -6.1709 3.40809 -6.1709 -5.68791e-07C-6.1709 -3.40809 -3.40809 -6.1709 0 -6.1709Z"></path>
  </g>
  <path fill="#1F0D04" transform="matrix(2.80835 0.975685 -0.627056 3.78679 295.788 184.998)" d="M-9.53674e-07 -6.1709C3.40809 -6.1709 6.1709 -3.4081 6.1709 -1.8154e-06C6.1709 3.40809 3.40809 6.1709 -9.53674e-07 6.1709C-3.40809 6.1709 -6.1709 3.40809 -6.1709 -1.9993e-06C-6.1709 -3.4081 -3.40809 -6.1709 -9.53674e-07 -6.1709Z"></path>
  <clipPath id="cl_182">
    <path d="M299.658 161.631C309.229 164.956 315.255 178.114 313.118 191.019C310.981 203.925 301.49 211.692 291.919 208.366C282.348 205.041 276.321 191.883 278.458 178.978C280.595 166.072 290.087 158.305 299.658 161.631Z"></path>
  </clipPath>
  <g clip-path="url(#cl_182)">
    <path fill="#2F1507" transform="matrix(2.80835 0.975685 -0.627056 3.78679 289.347 190.302)" d="M5.68791e-07 -6.1709C3.40809 -6.1709 6.1709 -3.40809 6.1709 9.19536e-08C6.1709 3.40809 3.40809 6.1709 3.84884e-07 6.1709C-3.40809 6.1709 -6.1709 3.40809 -6.1709 -9.19536e-08C-6.1709 -3.40809 -3.40809 -6.1709 5.68791e-07 -6.1709Z"></path>
  </g>
  <path fill="none" stroke="#E3CEC2" stroke-width="4" stroke-linecap="round" stroke-linejoin="round" transform="matrix(2.80835 0.975685 -0.627056 3.78679 249.436 167.981)" d="M2.42519 2.41434L15.2044 14.4568"></path>
  <path fill="none" stroke="#C8AD9D" stroke-width="4" stroke-linecap="round" stroke-linejoin="round" transform="matrix(2.80835 0.975685 -0.627056 3.78679 249.436 167.981)" d="M3.28776 13.1788L15.6779 1.98902"></path>
  <path fill="#4B2713" transform="matrix(1.39811 -0.0726895 0.0726895 1.39811 259.996 27.7411)" d="M-5.72205e-06 0C-5.72205e-06 0 -13.3138 0 -18.3575 1.52588e-05C-60.4756 1.30371 -113.022 32.2772 -113.022 128C-113.022 223.723 -51.3206 256 -19 256C-13.9564 256 -5.72205e-06 256 -3.8147e-06 256C-22.3724 256 -94.0218 223.723 -94.0218 128C-94.0218 32.2772 -22.3724 0 -5.72205e-06 0Z"></path>
  <path fill="#A5A5A5" transform="matrix(1.25167 0 0 0.196328 261.746 478.725)" d="M-0.25 -88C55.945 -88 101.5 -48.6011 101.5 0C101.5 48.6011 55.945 88 -0.25 88C-56.445 88 -102 48.6011 -102 0C-102 -48.6011 -56.445 -88 -0.25 -88Z" style="mix-blend-mode: multiply"></path>
</svg>