<?xml version="1.0" encoding="utf-8"?>
<svg xmlns="http://www.w3.org/2000/svg" xmlns:xlink="http://www.w3.org/1999/xlink" width="512" height="512">
  <path fill="#312F2F" transform="matrix(0.841351 -0.139357 0.228771 1.38118 243.058 226.17)" d="M9.53674e-07 -128C70.6925 -128 128 -70.6925 128 -1.90735e-06C128 70.6925 70.6925 128 9.53674e-07 128C-70.6925 128 -128 70.6925 -128 -1.90735e-06C-128 -70.6925 -70.6925 -128 9.53674e-07 -128Z"></path>
  <path fill="none" stroke="black" stroke-width="7" stroke-miterlimit="4" transform="translate(256 256)" d="M-15.9827 -210.968C43.4945 -220.819 104.821 -149.653 120.993 -52.0143C137.165 45.6249 102.06 132.763 42.5827 142.615C-16.8944 152.466 -78.2205 81.3002 -94.3929 -16.339C-110.565 -113.978 -75.4599 -201.116 -15.9827 -210.968Z"></path>
  <path fill="none" stroke="black" stroke-width="7" stroke-linejoin="round" transform="translate(256 256)" d="M-15.9827 -210.968C-15.9827 -210.968 -31.2324 -208.442 -41.4892 -206.743C-89.4332 -196.952 -142.534 -144.203 -120.635 -11.9923C-98.7367 120.218 -20.6798 153.093 16.3403 146.961C26.597 145.262 42.5827 142.615 42.5827 142.615C42.26 142.668 41.9272 142.716 41.5846 142.758"></path>
  <path fill="#8D5A3E" transform="matrix(0.841351 -0.139357 0.228771 1.38118 269.3 221.823)" d="M0 -128C70.6925 -128 128 -70.6925 128 -1.90735e-06C128 70.6925 70.6925 128 0 128C-70.6925 128 -128 70.6925 -128 -1.90735e-06C-128 -70.6925 -70.6925 -128 0 -128Z"></path>
  <path fill="#4B2713" transform="matrix(0.841351 -0.139357 0.228771 1.38118 274.54 219.536)" d="M0.249998 -87.5C51.4744 -87.5 93 -48.4369 93 -0.250002C93 47.9368 51.4744 87 0.249998 87C-50.9744 87 -92.5 47.9368 -92.5 -0.250002C-92.5 -48.4369 -50.9744 -87.5 0.249998 -87.5Z"></path>
  <path fill="#693920" transform="matrix(0.841351 -0.139357 0.228771 1.38118 269.3 221.823)" d="M0 -86C47.4965 -86 86 -47.4965 86 -1.90735e-06C86 47.4965 47.4965 86 0 86C-47.4965 86 -86 47.4965 -86 -1.90735e-06C-86 -47.4965 -47.4965 -86 0 -86Z"></path>
  <path fill="#1F0D04" transform="matrix(2.43614 0.731935 -0.0605533 3.81023 249.293 242.8)" d="M-1.14942e-08 -6.1709C3.40809 -6.1709 6.1709 -3.40809 6.1709 2.38419e-07C6.1709 3.40809 3.40809 6.1709 1.14942e-08 6.1709C-3.40809 6.1709 -6.1709 3.40809 -6.1709 2.38419e-07C-6.1709 -3.40809 -3.40809 -6.1709 -1.14942e-08 -6.1709Z"></path>
  <clipPath id="cl_a7">
    <path d="M249.666 219.288C257.969 221.782 264.532 234.331 264.326 247.317C264.119 260.303 257.222 268.807 248.919 266.313C240.616 263.818 234.053 251.269 234.259 238.284C234.466 225.298 241.364 216.793 249.666 219.288Z"></path>
  </clipPath>
  <g clip-path="url(#cl_a7)">
    <path fill="#2F1507" transform="matrix(2.43614 0.731935 -0.0605533 3.81023 246.45 248.136)" d="M2.26924e-07 -6.1709C3.40809 -6.1709 6.1709 -3.40809 6.1709 0C6.1709 3.40809 3.40809 6.1709 2.49913e-07 6.1709C-3.40809 6.1709 -6.1709 3.40809 -6.1709 0C-6.1709 -3.40809 -3.40809 -6.1709 2.26924e-07 -6.1709Z"></path>
  </g>
  <path fill="#1F0D04" transform="matrix(2.43614 0.731935 -0.0605533 3.81023 250.187 186.537)" d="M2.26924e-07 -6.1709C3.40809 -6.1709 6.1709 -3.40809 6.1709 0C6.1709 3.40809 3.40809 6.1709 2.49913e-07 6.1709C-3.40809 6.1709 -6.1709 3.40809 -6.1709 0C-6.1709 -3.40809 -3.40809 -6.1709 2.26924e-07 -6.1709Z"></path>
  <clipPath id="cl_a8">
    <path d="M250.56 163.025C258.863 165.519 265.426 178.068 265.22 191.054C265.014 204.039 258.116 212.544 249.813 210.05C241.511 207.555 234.947 195.006 235.154 182.02C235.36 169.035 242.258 160.53 250.56 163.025Z"></path>
  </clipPath>
  <g clip-path="url(#cl_a8)">
    <path fill="#2F1507" transform="matrix(2.43614 0.731935 -0.0605533 3.81023 247.297 194.793)" d="M2.26924e-07 -6.1709C3.40809 -6.1709 6.1709 -3.40809 6.1709 0C6.1709 3.40809 3.40809 6.1709 2.49913e-07 6.1709C-3.40809 6.1709 -6.1709 3.40809 -6.1709 0C-6.1709 -3.40809 -3.40809 -6.1709 2.26924e-07 -6.1709Z"></path>
  </g>
  <path fill="#1F0D04" transform="matrix(2.43614 0.731935 -0.0605533 3.81023 287.653 254.326)" d="M1.89585e-06 -6.1709C3.4081 -6.1709 6.1709 -3.40809 6.1709 0C6.1709 3.40809 3.4081 6.1709 1.91884e-06 6.1709C-3.40809 6.1709 -6.1709 3.40809 -6.1709 0C-6.1709 -3.40809 -3.40809 -6.1709 1.89585e-06 -6.1709Z"></path>
  <clipPath id="cl_a9">
    <path d="M288.027 230.813C296.329 233.308 302.893 245.857 302.686 258.842C302.48 271.828 295.582 280.333 287.279 277.838C278.977 275.344 272.414 262.795 272.62 249.809C272.826 236.823 279.724 228.319 288.027 230.813Z"></path>
  </clipPath>
  <g clip-path="url(#cl_a9)">
    <path fill="#2F1507" transform="matrix(2.43614 0.731935 -0.0605533 3.81023 285.458 257.942)" d="M-1.14942e-08 -6.1709C3.40809 -6.1709 6.1709 -3.40809 6.1709 1.19209e-07C6.1709 3.40809 3.40809 6.1709 1.14942e-08 6.1709C-3.40809 6.1709 -6.1709 3.40809 -6.1709 1.19209e-07C-6.1709 -3.40809 -3.40809 -6.1709 -1.14942e-08 -6.1709Z"></path>
  </g>
  <path fill="#1F0D04" transform="matrix(2.43614 0.731935 -0.0605533 3.81023 288.547 198.062)" d="M9.4218e-07 -6.1709C3.40809 -6.1709 6.1709 -3.40809 6.1709 0C6.1709 3.40809 3.40809 6.1709 9.65169e-07 6.1709C-3.40809 6.1709 -6.1709 3.40809 -6.1709 0C-6.1709 -3.40809 -3.40809 -6.1709 9.4218e-07 -6.1709Z"></path>
  <clipPath id="cl_aa">
    <path d="M288.921 174.55C297.224 177.044 303.787 189.594 303.58 202.579C303.374 215.565 296.476 224.07 288.174 221.575C279.871 219.081 273.308 206.531 273.514 193.546C273.721 180.56 280.618 172.055 288.921 174.55Z"></path>
  </clipPath>
  <g clip-path="url(#cl_aa)">
    <path fill="#2F1507" transform="matrix(2.43614 0.731935 -0.0605532 3.81023 283.87 203.867)" d="M9.53674e-07 -6.1709C3.40809 -6.1709 6.1709 -3.40809 6.1709 0C6.1709 3.40809 3.40809 6.1709 9.53674e-07 6.1709C-3.40809 6.1709 -6.1709 3.40809 -6.1709 0C-6.1709 -3.40809 -3.40809 -6.1709 9.53674e-07 -6.1709Z"></path>
  </g>
  <path fill="none" stroke="#E3CEC2" stroke-width="4" stroke-linecap="round" stroke-linejoin="round" transform="matrix(2.43614 0.731935 -0.0605533 3.81023 248.228 185.076)" d="M2.42519 2.41434L15.2044 14.4568"></path>
  <path fill="none" stroke="#C8AD9D" stroke-width="4" stroke-linecap="round" stroke-linejoin="round" transform="matrix(2.43614 0.731935 -0.0605533 3.81023 248.228 185.076)" d="M3.28776 13.1788L15.6779 1.98902"></path>
  <path fill="#4B2713" transform="matrix(1.38118 -0.228771 0.228771 1.38118 240.017 45.0321)" d="M4.76837e-06 1.52588e-05C4.76837e-06 1.52588e-05 -11.0411 0 -18.4672 0C-53.3954 1.3037 -96.9715 32.2772 -96.9715 128C-96.9715 223.723 -45.8032 256 -19 256C-11.5739 256 3.8147e-06 256 9.53674e-06 256C-18.5533 256 -77.9715 223.723 -77.9715 128C-77.9715 32.2772 -18.5533 0 4.76837e-06 1.52588e-05Z"></path>
  <path fill="#A5A5A5" transform="matrix(0.919596 0 0 0.196328 258.55 478.725)" d="M-0.25 -88.0001C55.945 -88.0001 101.5 -48.6012 101.5 -0.00012207C101.5 48.6009 55.945 87.9999 -0.25 87.9999C-56.445 87.9999 -102 48.6009 -102 -0.00012207C-102 -48.6012 -56.445 -88.0001 -0.25 -88.0001Z" style="mix-blend-mode: multiply"></path>
</svg>