<?xml version="1.0" encoding="utf-8"?>
<svg xmlns="http://www.w3.org/2000/svg" xmlns:xlink="http://www.w3.org/1999/xlink" width="512" height="512">
  <path fill="#312F2F" transform="matrix(0.761935 -0.0970913 0.176967 1.38877 242.913 232.484)" d="M0 -128C70.6925 -128 128 -70.6925 128 -1.90735e-06C128 70.6925 70.6925 128 0 128C-70.6925 128 -128 70.6925 -128 -1.90735e-06C-128 -70.6925 -70.6925 -128 0 -128Z"></path>
  <path fill="none" stroke="black" stroke-width="7" stroke-miterlimit="4" transform="translate(256 256)" d="M-9.35179 -204.641C44.5113 -211.504 98.3175 -137.481 110.828 -39.3058C123.338 58.8698 89.8149 144.021 35.9518 150.885C-17.9113 157.748 -71.7175 83.7252 -84.2277 -14.4504C-96.738 -112.626 -63.2149 -197.777 -9.35179 -204.641Z"></path>
  <path fill="none" stroke="black" stroke-width="7" stroke-linejoin="round" transform="translate(256 256)" d="M-9.35179 -204.641C-9.35179 -204.641 -23.1621 -202.881 -35.0719 -201.363C-78.5299 -193.986 -127.554 -144.025 -110.614 -11.088C-93.6746 121.849 -23.9606 158.519 9.56517 154.247C21.475 152.729 35.9518 150.885 35.9518 150.885C35.8243 150.901 35.6951 150.916 35.5642 150.93"></path>
  <path fill="#8D5A3E" transform="matrix(0.761935 -0.0970913 0.176967 1.38877 269.3 229.122)" d="M-1.90735e-06 -128C70.6925 -128 128 -70.6925 128 0C128 70.6925 70.6925 128 -1.90735e-06 128C-70.6925 128 -128 70.6925 -128 0C-128 -70.6925 -70.6925 -128 -1.90735e-06 -128Z"></path>
  <path fill="#4B2713" transform="matrix(0.761935 -0.0970913 0.176967 1.38877 274.076 227.102)" d="M0.249998 -87.5C51.4744 -87.5 93 -48.4368 93 -0.25C93 47.9368 51.4744 87 0.249998 87C-50.9744 87 -92.5 47.9368 -92.5 -0.25C-92.5 -48.4368 -50.9744 -87.5 0.249998 -87.5Z"></path>
  <path fill="#693920" transform="matrix(0.761935 -0.0970913 0.176967 1.38877 269.3 229.122)" d="M-1.90735e-06 -86C47.4965 -86 86 -47.4965 86 0C86 47.4965 47.4965 86 -1.90735e-06 86C-47.4965 86 -86 47.4965 -86 0C-86 -47.4965 -47.4965 -86 -1.90735e-06 -86Z"></path>
  <path fill="#1F0D04" transform="matrix(2.18202 0.851191 -0.135739 3.79673 250.805 249.045)" d="M-2.29884e-08 -6.1709C3.40809 -6.1709 6.1709 -3.40809 6.1709 -9.19536e-08C6.1709 3.40809 3.40809 6.1709 2.29884e-08 6.1709C-3.40809 6.1709 -6.1709 3.40809 -6.1709 9.19536e-08C-6.1709 -3.40809 -3.40809 -6.1709 -2.29884e-08 -6.1709Z"></path>
  <clipPath id="cl_ef">
    <path d="M251.643 225.616C259.079 228.517 264.733 241.358 264.27 254.298C263.807 267.237 257.404 275.375 249.967 272.474C242.531 269.574 236.877 256.732 237.34 243.793C237.803 230.853 244.206 222.715 251.643 225.616Z"></path>
  </clipPath>
  <g clip-path="url(#cl_ef)">
    <path fill="#2F1507" transform="matrix(2.18202 0.851191 -0.135739 3.79673 248.127 254.225)" d="M2.1543e-07 -6.1709C3.40809 -6.1709 6.1709 -3.40809 6.1709 -9.19536e-08C6.1709 3.40809 3.40809 6.1709 2.61407e-07 6.1709C-3.40809 6.1709 -6.1709 3.40809 -6.1709 9.19536e-08C-6.1709 -3.40809 -3.40809 -6.1709 2.1543e-07 -6.1709Z"></path>
  </g>
  <path fill="#1F0D04" transform="matrix(2.18202 0.851191 -0.135739 3.79673 252.809 192.981)" d="M-2.29884e-08 -6.1709C3.40809 -6.1709 6.1709 -3.40809 6.1709 -9.19536e-08C6.1709 3.40809 3.40809 6.1709 2.29884e-08 6.1709C-3.40809 6.1709 -6.1709 3.40809 -6.1709 9.19536e-08C-6.1709 -3.40809 -3.40809 -6.1709 -2.29884e-08 -6.1709Z"></path>
  <clipPath id="cl_f0">
    <path d="M253.647 169.552C261.084 172.453 266.737 185.294 266.274 198.234C265.812 211.174 259.408 219.311 251.972 216.411C244.535 213.51 238.882 200.668 239.344 187.729C239.807 174.789 246.211 166.651 253.647 169.552Z"></path>
  </clipPath>
  <g clip-path="url(#cl_f0)">
    <path fill="#2F1507" transform="matrix(2.18202 0.851191 -0.135739 3.79673 250.027 201.07)" d="M-2.29884e-08 -6.1709C3.40809 -6.1709 6.1709 -3.40809 6.1709 -9.19536e-08C6.1709 3.40809 3.40809 6.1709 2.29884e-08 6.1709C-3.40809 6.1709 -6.1709 3.40809 -6.1709 9.19536e-08C-6.1709 -3.40809 -3.40809 -6.1709 -2.29884e-08 -6.1709Z"></path>
  </g>
  <path fill="#1F0D04" transform="matrix(2.18202 0.851191 -0.135739 3.79673 285.164 262.448)" d="M-2.29884e-08 -6.1709C3.40809 -6.1709 6.1709 -3.40809 6.1709 -9.19536e-08C6.1709 3.40809 3.40809 6.1709 2.29884e-08 6.1709C-3.40809 6.1709 -6.1709 3.40809 -6.1709 9.19536e-08C-6.1709 -3.40809 -3.40809 -6.1709 -2.29884e-08 -6.1709Z"></path>
  <clipPath id="cl_f1">
    <path d="M286.002 239.019C293.438 241.92 299.092 254.761 298.629 267.701C298.167 280.641 291.763 288.779 284.327 285.878C276.89 282.977 271.237 270.135 271.699 257.196C272.162 244.256 278.565 236.118 286.002 239.019Z"></path>
  </clipPath>
  <g clip-path="url(#cl_f1)">
    <path fill="#2F1507" transform="matrix(2.18202 0.851191 -0.135739 3.79673 283.107 265.945)" d="M-9.76663e-07 -6.1709C3.40809 -6.1709 6.1709 -3.40809 6.1709 -9.19536e-08C6.1709 3.40809 3.40809 6.1709 -9.30686e-07 6.1709C-3.40809 6.1709 -6.1709 3.40809 -6.1709 9.19536e-08C-6.1709 -3.40809 -3.40809 -6.1709 -9.76663e-07 -6.1709Z"></path>
  </g>
  <path fill="#1F0D04" transform="matrix(2.18202 0.851191 -0.135739 3.79673 287.169 206.385)" d="M-2.29884e-08 -6.1709C3.40809 -6.1709 6.1709 -3.40809 6.1709 -9.19536e-08C6.1709 3.40809 3.40809 6.1709 2.29884e-08 6.1709C-3.40809 6.1709 -6.1709 3.40809 -6.1709 9.19536e-08C-6.1709 -3.40809 -3.40809 -6.1709 -2.29884e-08 -6.1709Z"></path>
  <clipPath id="cl_f2">
    <path d="M288.006 182.955C295.443 185.856 301.096 198.698 300.634 211.637C300.171 224.577 293.767 232.715 286.331 229.814C278.894 226.913 273.241 214.072 273.703 201.132C274.166 188.192 280.57 180.054 288.006 182.955Z"></path>
  </clipPath>
  <g clip-path="url(#cl_f2)">
    <path fill="#2F1507" transform="matrix(2.18202 0.851191 -0.135739 3.79673 282.825 211.94)" d="M-9.53674e-07 -6.1709C3.40809 -6.1709 6.1709 -3.40809 6.1709 9.19536e-08C6.1709 3.40809 3.40809 6.1709 -9.53674e-07 6.1709C-3.40809 6.1709 -6.1709 3.40809 -6.1709 -9.19536e-08C-6.1709 -3.40809 -3.40809 -6.1709 -9.53674e-07 -6.1709Z"></path>
  </g>
  <path fill="none" stroke="#E3CEC2" stroke-width="4" stroke-linecap="round" stroke-linejoin="round" transform="matrix(2.18202 0.851191 -0.135739 3.79673 251.074 191.426)" d="M2.42519 2.41434L15.2044 14.4568"></path>
  <path fill="none" stroke="#C8AD9D" stroke-width="4" stroke-linecap="round" stroke-linejoin="round" transform="matrix(2.18202 0.851191 -0.135739 3.79673 251.074 191.426)" d="M3.28776 13.1788L15.6779 1.98902"></path>
  <path fill="#4B2713" transform="matrix(1.38877 -0.176967 0.176967 1.38877 246.648 51.3594)" d="M1.90735e-06 -1.52588e-05C1.90735e-06 -1.52588e-05 -9.94426 -3.05176e-05 -18.5201 -3.05176e-05C-49.9786 1.30367 -89.226 32.2772 -89.226 128C-89.226 223.723 -43.1406 256 -19 256C-10.4242 256 0 256 -3.8147e-06 256C-16.7102 256 -70.226 223.723 -70.226 128C-70.226 32.2772 -16.7102 -3.05176e-05 1.90735e-06 -1.52588e-05Z"></path>
  <path fill="#A5A5A5" transform="matrix(0.759344 0 0 0.196328 257.008 478.725)" d="M-0.25 -88.0001C55.945 -88.0001 101.5 -48.6012 101.5 -0.00012207C101.5 48.6009 55.945 87.9999 -0.25 87.9999C-56.445 87.9999 -102 48.6009 -102 -0.00012207C-102 -48.6012 -56.445 -88.0001 -0.25 -88.0001Z" style="mix-blend-mode: multiply"></path>
</svg>