<?xml version="1.0" encoding="utf-8"?>
<svg xmlns="http://www.w3.org/2000/svg" xmlns:xlink="http://www.w3.org/1999/xlink" width="512" height="512">
  <path fill="#312F2F" transform="matrix(0.763172 -0.0924183 0.168307 1.38985 242.893 232.264)" d="M0 -128C70.6925 -128 128 -70.6925 128 0C128 70.6925 70.6925 128 0 128C-70.6925 128 -128 70.6925 -128 0C-128 -70.6925 -70.6925 -128 0 -128Z"></path>
  <path fill="none" stroke="black" stroke-width="7" stroke-miterlimit="4" transform="translate(256 256)" d="M-8.24331 -204.834C45.7072 -211.368 99.088 -137.015 110.986 -38.7637C122.884 59.488 88.7938 144.433 34.8433 150.966C-19.1072 157.499 -72.488 83.147 -84.386 -15.1046C-96.2841 -113.356 -62.1938 -198.301 -8.24331 -204.834Z"></path>
  <path fill="none" stroke="black" stroke-width="7" stroke-linejoin="round" transform="translate(256 256)" d="M-8.24331 -204.834C-8.24331 -204.834 -22.076 -203.159 -33.9828 -201.717C-77.523 -194.606 -126.904 -144.947 -110.793 -11.9068C-94.6823 121.133 -25.1439 158.231 8.43625 154.164C20.3431 152.722 34.8433 150.966 34.8433 150.966C34.7143 150.982 34.5835 150.996 34.451 151.01"></path>
  <path fill="#8D5A3E" transform="matrix(0.763172 -0.0924183 0.168307 1.38985 269.3 229.066)" d="M0 -128C70.6925 -128 128 -70.6925 128 0C128 70.6925 70.6925 128 0 128C-70.6925 128 -128 70.6925 -128 0C-128 -70.6925 -70.6925 -128 0 -128Z"></path>
  <path fill="#4B2713" transform="matrix(0.763172 -0.0924183 0.168307 1.38985 274.092 227.075)" d="M0.25 -87.5C51.4744 -87.5 93 -48.4368 93 -0.25C93 47.9368 51.4744 87 0.25 87C-50.9744 87 -92.5 47.9368 -92.5 -0.25C-92.5 -48.4368 -50.9744 -87.5 0.25 -87.5Z"></path>
  <path fill="#693920" transform="matrix(0.763172 -0.0924183 0.168307 1.38985 269.3 229.066)" d="M0 -86C47.4965 -86 86 -47.4965 86 0C86 47.4965 47.4965 86 0 86C-47.4965 86 -86 47.4965 -86 0C-86 -47.4965 -47.4965 -86 0 -86Z"></path>
  <path fill="#1F0D04" transform="matrix(2.1784 0.864566 -0.159919 3.79588 250.664 248.876)" d="M2.38419e-07 -6.1709C3.40809 -6.1709 6.1709 -3.40809 6.1709 9.19536e-08C6.1709 3.40809 3.40809 6.1709 2.38419e-07 6.1709C-3.40809 6.1709 -6.1709 3.40809 -6.1709 -9.19536e-08C-6.1709 -3.40809 -3.40809 -6.1709 2.38419e-07 -6.1709Z"></path>
  <clipPath id="cl_fb">
    <path d="M251.651 225.452C259.075 228.398 264.651 241.274 264.106 254.211C263.561 267.147 257.101 275.246 249.677 272.3C242.253 269.353 236.676 256.477 237.221 243.54C237.766 230.604 244.226 222.505 251.651 225.452Z"></path>
  </clipPath>
  <g clip-path="url(#cl_fb)">
    <path fill="#2F1507" transform="matrix(2.1784 0.864566 -0.159919 3.79588 247.951 254.039)" d="M2.38419e-07 -6.1709C3.40809 -6.1709 6.1709 -3.40809 6.1709 3.23489e-08C6.1709 3.40809 3.40809 6.1709 2.38419e-07 6.1709C-3.40809 6.1709 -6.1709 3.40809 -6.1709 -1.51558e-07C-6.1709 -3.40809 -3.40809 -6.1709 2.38419e-07 -6.1709Z"></path>
  </g>
  <path fill="#1F0D04" transform="matrix(2.1784 0.864566 -0.159919 3.79588 253.025 192.824)" d="M-2.38419e-07 -6.1709C3.40809 -6.1709 6.1709 -3.40809 6.1709 1.9993e-06C6.1709 3.40809 3.40809 6.1709 -2.38419e-07 6.1709C-3.40809 6.1709 -6.1709 3.40809 -6.1709 1.8154e-06C-6.1709 -3.40809 -3.40809 -6.1709 -2.38419e-07 -6.1709Z"></path>
  <clipPath id="cl_fc">
    <path d="M254.012 169.4C261.436 172.347 267.013 185.223 266.468 198.159C265.923 211.096 259.462 219.195 252.038 216.248C244.614 213.302 239.037 200.426 239.582 187.489C240.127 174.552 246.588 166.454 254.012 169.4Z"></path>
  </clipPath>
  <g clip-path="url(#cl_fc)">
    <path fill="#2F1507" transform="matrix(2.1784 0.864566 -0.159919 3.79588 250.189 200.896)" d="M2.38419e-07 -6.1709C3.40809 -6.1709 6.1709 -3.40809 6.1709 -8.61721e-07C6.1709 3.40809 3.40809 6.1709 2.38419e-07 6.1709C-3.40809 6.1709 -6.1709 3.40809 -6.1709 -1.04563e-06C-6.1709 -3.40809 -3.40809 -6.1709 2.38419e-07 -6.1709Z"></path>
  </g>
  <path fill="#1F0D04" transform="matrix(2.1784 0.864566 -0.159919 3.79588 284.966 262.489)" d="M0 -6.1709C3.40809 -6.1709 6.1709 -3.40809 6.1709 3.30372e-07C6.1709 3.40809 3.40809 6.1709 0 6.1709C-3.40809 6.1709 -6.1709 3.40809 -6.1709 1.46465e-07C-6.1709 -3.40809 -3.40809 -6.1709 0 -6.1709Z"></path>
  <clipPath id="cl_fd">
    <path d="M285.953 239.065C293.377 242.012 298.953 254.888 298.408 267.825C297.863 280.761 291.403 288.86 283.979 285.913C276.555 282.967 270.978 270.091 271.523 257.154C272.068 244.218 278.528 236.119 285.953 239.065Z"></path>
  </clipPath>
  <g clip-path="url(#cl_fd)">
    <path fill="#2F1507" transform="matrix(2.1784 0.864566 -0.159919 3.79588 282.885 265.974)" d="M-9.53674e-07 -6.1709C3.40809 -6.1709 6.1709 -3.40809 6.1709 4.72501e-08C6.1709 3.40809 3.40809 6.1709 -9.53674e-07 6.1709C-3.40809 6.1709 -6.1709 3.40809 -6.1709 -1.36657e-07C-6.1709 -3.40809 -3.40809 -6.1709 -9.53674e-07 -6.1709Z"></path>
  </g>
  <path fill="#1F0D04" transform="matrix(2.1784 0.864566 -0.159919 3.79588 287.327 206.438)" d="M-9.53674e-07 -6.1709C3.40809 -6.1709 6.1709 -3.40809 6.1709 1.9993e-06C6.1709 3.40809 3.40809 6.1709 -9.53674e-07 6.1709C-3.40809 6.1709 -6.1709 3.40809 -6.1709 1.8154e-06C-6.1709 -3.40809 -3.40809 -6.1709 -9.53674e-07 -6.1709Z"></path>
  <clipPath id="cl_fe">
    <path d="M288.314 183.014C295.738 185.961 301.315 198.837 300.77 211.773C300.225 224.71 293.765 232.809 286.34 229.862C278.916 226.916 273.34 214.04 273.885 201.103C274.43 188.166 280.89 180.068 288.314 183.014Z"></path>
  </clipPath>
  <g clip-path="url(#cl_fe)">
    <path fill="#2F1507" transform="matrix(2.1784 0.864566 -0.159919 3.79588 282.945 211.967)" d="M0 -6.1709C3.40809 -6.1709 6.1709 -3.40809 6.1709 -8.61721e-07C6.1709 3.40809 3.40809 6.1709 0 6.1709C-3.40809 6.1709 -6.1709 3.40809 -6.1709 -1.04563e-06C-6.1709 -3.40809 -3.40809 -6.1709 0 -6.1709Z"></path>
  </g>
  <path fill="none" stroke="#E3CEC2" stroke-width="4" stroke-linecap="round" stroke-linejoin="round" transform="matrix(2.1784 0.864566 -0.159919 3.79588 251.298 191.259)" d="M2.42519 2.41434L15.2044 14.4568"></path>
  <path fill="none" stroke="#C8AD9D" stroke-width="4" stroke-linecap="round" stroke-linejoin="round" transform="matrix(2.1784 0.864566 -0.159919 3.79588 251.298 191.259)" d="M3.28776 13.1788L15.6779 1.98902"></path>
  <path fill="#4B2713" transform="matrix(1.38985 -0.168307 0.168307 1.38985 247.757 51.1655)" d="M1.43051e-06 3.05176e-05C1.43051e-06 3.05176e-05 -9.95269 1.52588e-05 -18.5197 1.52588e-05C-50.0049 1.30371 -89.2855 32.2772 -89.2855 128C-89.2855 223.723 -43.161 256 -19 256C-10.433 256 1.90735e-06 256 3.8147e-06 256C-16.7244 256 -70.2855 223.723 -70.2855 128C-70.2855 32.2772 -16.7244 3.05176e-05 1.43051e-06 3.05176e-05Z"></path>
  <path fill="#A5A5A5" transform="matrix(0.760575 0 0 0.196328 257.02 478.725)" d="M-0.25 -88C55.945 -88 101.5 -48.6011 101.5 0C101.5 48.6011 55.945 88 -0.25 88C-56.445 88 -102 48.6011 -102 0C-102 -48.6011 -56.445 -88 -0.25 -88Z" style="mix-blend-mode: multiply"></path>
</svg>