<?xml version="1.0" encoding="utf-8"?>
<svg xmlns="http://www.w3.org/2000/svg" xmlns:xlink="http://www.w3.org/1999/xlink" width="512" height="512">
  <path fill="#312F2F" transform="matrix(0.899818 -0.158423 0.242752 1.37879 243.103 221.194)" d="M4.76837e-07 -128C70.6925 -128 128 -70.6925 128 0C128 70.6925 70.6925 128 4.76837e-07 128C-70.6925 128 -128 70.6925 -128 0C-128 -70.6925 -70.6925 -128 4.76837e-07 -128Z"></path>
  <path fill="none" stroke="black" stroke-width="7" stroke-miterlimit="4" transform="translate(256 256)" d="M-17.7723 -215.904C45.8381 -227.103 111.316 -157.167 128.477 -59.6966C145.638 37.7736 107.983 125.868 44.3723 137.067C-19.2381 148.266 -84.716 78.33 -101.877 -19.1403C-119.037 -116.611 -81.3826 -204.705 -17.7723 -215.904Z"></path>
  <path fill="none" stroke="black" stroke-width="7" stroke-linejoin="round" transform="translate(256 256)" d="M-17.7723 -215.904C-17.7723 -215.904 -34.0817 -213.033 -43.1823 -211.43C-94.4605 -200.549 -151.311 -146.51 -128.074 -14.528C-104.837 117.454 -21.4175 148.65 18.1752 141.679C27.2757 140.077 44.3723 137.067 44.3723 137.067C43.8967 137.151 43.4006 137.224 42.8847 137.287"></path>
  <path fill="#8D5A3E" transform="matrix(0.899818 -0.158423 0.242752 1.37879 269.3 216.582)" d="M0 -128C70.6925 -128 128 -70.6925 128 1.90735e-06C128 70.6925 70.6925 128 0 128C-70.6925 128 -128 70.6925 -128 1.90735e-06C-128 -70.6925 -70.6925 -128 0 -128Z"></path>
  <path fill="#4B2713" transform="matrix(0.899818 -0.158423 0.242752 1.37879 274.906 214.173)" d="M0.25 -87.5C51.4744 -87.5 93 -48.4368 93 -0.25C93 47.9368 51.4744 87 0.25 87C-50.9744 87 -92.5 47.9368 -92.5 -0.25C-92.5 -48.4368 -50.9744 -87.5 0.25 -87.5Z"></path>
  <path fill="#693920" transform="matrix(0.899818 -0.158423 0.242752 1.37879 269.3 216.582)" d="M0 -86C47.4965 -86 86 -47.4965 86 1.90735e-06C86 47.4965 47.4965 86 0 86C-47.4965 86 -86 47.4965 -86 1.90735e-06C-86 -47.4965 -47.4965 -86 0 -86Z"></path>
  <path fill="#1F0D04" transform="matrix(2.6039 0.678964 -0.0698944 3.81909 247.878 238.047)" d="M2.38419e-07 -6.1709C3.40809 -6.1709 6.1709 -3.40809 6.1709 4.76837e-07C6.1709 3.40809 3.40809 6.1709 2.38419e-07 6.1709C-3.40809 6.1709 -6.1709 3.40809 -6.1709 4.76837e-07C-6.1709 -3.40809 -3.40809 -6.1709 2.38419e-07 -6.1709Z"></path>
  <clipPath id="cl_8f">
    <path d="M248.31 214.479C257.184 216.793 264.185 229.221 263.947 242.237C263.709 255.252 256.321 263.928 247.447 261.614C238.573 259.3 231.572 246.873 231.81 233.857C232.048 220.841 239.435 212.165 248.31 214.479Z"></path>
  </clipPath>
  <g clip-path="url(#cl_8f)">
    <path fill="#2F1507" transform="matrix(2.6039 0.678964 -0.0698944 3.81909 244.831 243.456)" d="M0 -6.1709C3.40809 -6.1709 6.1709 -3.40809 6.1709 2.38419e-07C6.1709 3.40809 3.40809 6.1709 0 6.1709C-3.40809 6.1709 -6.1709 3.40809 -6.1709 2.38419e-07C-6.1709 -3.40809 -3.40809 -6.1709 0 -6.1709Z"></path>
  </g>
  <path fill="#1F0D04" transform="matrix(2.6039 0.678964 -0.0698944 3.81909 248.91 181.653)" d="M-2.38419e-07 -6.1709C3.40809 -6.1709 6.1709 -3.40809 6.1709 1.90735e-06C6.1709 3.4081 3.40809 6.1709 -2.38419e-07 6.1709C-3.40809 6.1709 -6.1709 3.4081 -6.1709 1.90735e-06C-6.1709 -3.40809 -3.40809 -6.1709 -2.38419e-07 -6.1709Z"></path>
  <clipPath id="cl_90">
    <path d="M249.342 158.085C258.216 160.399 265.217 172.827 264.979 185.842C264.741 198.858 257.353 207.534 248.479 205.22C239.605 202.906 232.604 190.479 232.842 177.463C233.08 164.447 240.467 155.771 249.342 158.085Z"></path>
  </clipPath>
  <g clip-path="url(#cl_90)">
    <path fill="#2F1507" transform="matrix(2.6039 0.678964 -0.0698944 3.81909 245.81 189.989)" d="M0 -6.1709C3.40809 -6.1709 6.1709 -3.40809 6.1709 0C6.1709 3.40809 3.40809 6.1709 0 6.1709C-3.40809 6.1709 -6.1709 3.40809 -6.1709 0C-6.1709 -3.40809 -3.40809 -6.1709 0 -6.1709Z"></path>
  </g>
  <path fill="#1F0D04" transform="matrix(2.6039 0.678964 -0.0698944 3.81909 288.881 248.738)" d="M9.53674e-07 -6.1709C3.40809 -6.1709 6.1709 -3.40809 6.1709 4.76837e-07C6.1709 3.40809 3.40809 6.1709 9.53674e-07 6.1709C-3.40809 6.1709 -6.1709 3.40809 -6.1709 4.76837e-07C-6.1709 -3.40809 -3.40809 -6.1709 9.53674e-07 -6.1709Z"></path>
  <clipPath id="cl_91">
    <path d="M289.312 225.171C298.186 227.485 305.187 239.912 304.949 252.928C304.711 265.944 297.324 274.619 288.449 272.305C279.575 269.991 272.574 257.564 272.812 244.548C273.05 231.532 280.438 222.857 289.312 225.171Z"></path>
  </clipPath>
  <g clip-path="url(#cl_91)">
    <path fill="#2F1507" transform="matrix(2.6039 0.678964 -0.0698944 3.81909 286.529 252.41)" d="M0 -6.1709C3.40809 -6.1709 6.1709 -3.40809 6.1709 -2.38419e-07C6.1709 3.40809 3.40809 6.1709 0 6.1709C-3.40809 6.1709 -6.1709 3.40809 -6.1709 -2.38419e-07C-6.1709 -3.40809 -3.40809 -6.1709 0 -6.1709Z"></path>
  </g>
  <path fill="#1F0D04" transform="matrix(2.6039 0.678964 -0.0698944 3.81909 289.913 192.344)" d="M0 -6.1709C3.40809 -6.1709 6.1709 -3.40809 6.1709 0C6.1709 3.40809 3.40809 6.1709 0 6.1709C-3.40809 6.1709 -6.1709 3.40809 -6.1709 0C-6.1709 -3.40809 -3.40809 -6.1709 0 -6.1709Z"></path>
  <clipPath id="cl_92">
    <path d="M290.344 168.777C299.218 171.091 306.219 183.518 305.981 196.534C305.743 209.55 298.356 218.225 289.481 215.911C280.607 213.597 273.606 201.17 273.844 188.154C274.082 175.138 281.47 166.463 290.344 168.777Z"></path>
  </clipPath>
  <g clip-path="url(#cl_92)">
    <path fill="#2F1507" transform="matrix(2.6039 0.678964 -0.0698944 3.81909 284.903 198.264)" d="M9.53674e-07 -6.1709C3.40809 -6.1709 6.1709 -3.40809 6.1709 9.19536e-08C6.1709 3.40809 3.40809 6.1709 9.53674e-07 6.1709C-3.40809 6.1709 -6.1709 3.40809 -6.1709 -9.19536e-08C-6.1709 -3.40809 -3.40809 -6.1709 9.53674e-07 -6.1709Z"></path>
  </g>
  <path fill="none" stroke="#E3CEC2" stroke-width="4" stroke-linecap="round" stroke-linejoin="round" transform="matrix(2.6039 0.678964 -0.0698944 3.81909 246.818 180.232)" d="M2.42519 2.41434L15.2044 14.4568"></path>
  <path fill="none" stroke="#C8AD9D" stroke-width="4" stroke-linecap="round" stroke-linejoin="round" transform="matrix(2.6039 0.678964 -0.0698944 3.81909 246.818 180.232)" d="M3.28776 13.1788L15.6779 1.98902"></path>
  <path fill="#4B2713" transform="matrix(1.37879 -0.242752 0.242752 1.37879 238.228 40.096)" d="M5.72205e-06 0C5.72205e-06 0 -11.8288 0 -18.4291 0C-55.8494 1.30371 -102.534 32.2772 -102.534 128C-102.534 223.723 -47.7155 256 -19 256C-12.3996 256 3.8147e-06 256 3.8147e-06 256C-19.877 256 -83.5344 223.723 -83.5344 128C-83.5345 32.2772 -19.877 0 5.72205e-06 0Z"></path>
  <path fill="#A5A5A5" transform="matrix(1.03469 0 0 0.196328 259.658 478.725)" d="M-0.25 -88C55.945 -88 101.5 -48.6011 101.5 0C101.5 48.6011 55.945 88 -0.25 88C-56.445 88 -102 48.6011 -102 0C-102 -48.6011 -56.445 -88 -0.25 -88Z" style="mix-blend-mode: multiply"></path>
</svg>