<?xml version="1.0" encoding="utf-8"?>
<svg xmlns="http://www.w3.org/2000/svg" xmlns:xlink="http://www.w3.org/1999/xlink" width="512" height="512">
  <path fill="#312F2F" transform="matrix(1.15557 -0.0216118 0.0261786 1.39976 242.705 196.22)" d="M0 -128C70.6924 -128 128 -70.6924 128 3.93391e-06C128 70.6925 70.6924 128 0 128C-70.6924 128 -128 70.6924 -128 3.69549e-06C-128 -70.6924 -70.6924 -128 0 -128Z"></path>
  <path fill="none" stroke="black" stroke-width="7" stroke-miterlimit="4" transform="translate(256 256)" d="M9.94915 -239.446C91.6393 -240.974 159.362 -161.996 161.213 -63.0435C163.064 35.9086 98.341 117.364 16.6509 118.892C-65.0393 120.419 -132.762 41.4413 -134.613 -57.5109C-136.464 -156.463 -71.741 -237.918 9.94915 -239.446Z"></path>
  <path fill="none" stroke="black" stroke-width="7" stroke-linejoin="round" transform="translate(256 256)" d="M9.94915 -239.446C9.94915 -239.446 -10.9959 -239.054 -15.6354 -238.967C-81.8607 -235.903 -163.714 -191.002 -161.208 -57.0135C-158.703 76.9751 -60.7905 120.34 -9.94447 119.389C-5.30499 119.302 16.6509 118.891 16.6509 118.891C15.4584 118.914 14.1761 118.886 12.8111 118.806"></path>
  <path fill="#8D5A3E" transform="matrix(1.15557 -0.0216118 0.0261786 1.39976 269.3 195.723)" d="M0 -128C70.6924 -128 128 -70.6924 128 1.19209e-07C128 70.6924 70.6924 128 0 128C-70.6924 128 -128 70.6924 -128 -1.19209e-07C-128 -70.6924 -70.6924 -128 0 -128Z"></path>
  <path fill="#4B2713" transform="matrix(1.15557 -0.0216118 0.0261786 1.39976 276.785 194.183)" d="M0.25 -87.5C51.4744 -87.5 93 -48.4368 93 -0.25C93 47.9368 51.4744 87 0.25 87C-50.9744 87 -92.5 47.9368 -92.5 -0.25C-92.5 -48.4368 -50.9744 -87.5 0.25 -87.5Z"></path>
  <path fill="#693920" transform="matrix(1.15557 -0.0216118 0.0261786 1.39976 269.3 195.723)" d="M0 -86C47.4965 -86 86 -47.4965 86 8.00937e-08C86 47.4965 47.4965 86 0 86C-47.4965 86 -86 47.4965 -86 -8.00937e-08C-86 -47.4965 -47.4965 -86 0 -86Z"></path>
  <path fill="#1F0D04" transform="matrix(3.1155 1.06211 -0.854502 3.76576 238.235 213.732)" d="M0 -6.1709C3.40809 -6.1709 6.1709 -3.40809 6.1709 -1.83907e-07C6.1709 3.40809 3.40809 6.1709 0 6.1709C-3.40809 6.1709 -6.1709 3.40809 -6.1709 1.83907e-07C-6.1709 -3.40809 -3.40809 -6.1709 0 -6.1709Z"></path>
  <clipPath id="cl_1bf">
    <path d="M243.508 190.494C254.126 194.114 260.373 207.453 257.461 220.287C254.549 233.121 243.58 240.59 232.962 236.971C222.344 233.351 216.098 220.012 219.01 207.178C221.922 194.344 232.89 186.875 243.508 190.494Z"></path>
  </clipPath>
  <g clip-path="url(#cl_1bf)">
    <path fill="#2F1507" transform="matrix(3.1155 1.06211 -0.854502 3.76576 233.343 218.624)" d="M0 -6.1709C3.40809 -6.1709 6.1709 -3.40809 6.1709 -6.60744e-07C6.1709 3.40809 3.40809 6.1709 0 6.1709C-3.40809 6.1709 -6.1709 3.40809 -6.1709 -2.9293e-07C-6.1709 -3.40809 -3.40809 -6.1709 0 -6.1709Z"></path>
  </g>
  <path fill="#1F0D04" transform="matrix(3.1155 1.06211 -0.854502 3.76576 250.853 158.126)" d="M-9.53674e-07 -6.1709C3.40809 -6.1709 6.1709 -3.40809 6.1709 1.72344e-06C6.1709 3.40809 3.40809 6.1709 -9.53674e-07 6.1709C-3.40809 6.1709 -6.1709 3.4081 -6.1709 2.09126e-06C-6.1709 -3.40809 -3.40809 -6.1709 -9.53674e-07 -6.1709Z"></path>
  <clipPath id="cl_1c0">
    <path d="M256.126 134.888C266.744 138.508 272.991 151.846 270.079 164.68C267.166 177.514 256.198 184.984 245.58 181.364C234.962 177.744 228.716 164.406 231.628 151.572C234.54 138.738 245.508 131.268 256.126 134.888Z"></path>
  </clipPath>
  <g clip-path="url(#cl_1c0)">
    <path fill="#2F1507" transform="matrix(3.1155 1.06211 -0.854502 3.76576 245.306 165.904)" d="M0 -6.1709C3.40809 -6.1709 6.1709 -3.40809 6.1709 1.72344e-06C6.1709 3.40809 3.40809 6.1709 0 6.1709C-3.40809 6.1709 -6.1709 3.4081 -6.1709 2.09126e-06C-6.1709 -3.40809 -3.40809 -6.1709 0 -6.1709Z"></path>
  </g>
  <path fill="#1F0D04" transform="matrix(3.1155 1.06211 -0.854502 3.76576 287.293 230.457)" d="M0 -6.1709C3.40809 -6.1709 6.1709 -3.40809 6.1709 -1.83907e-07C6.1709 3.40809 3.40809 6.1709 0 6.1709C-3.40809 6.1709 -6.1709 3.40809 -6.1709 1.83907e-07C-6.1709 -3.40809 -3.40809 -6.1709 0 -6.1709Z"></path>
  <clipPath id="cl_1c1">
    <path d="M292.566 207.219C303.184 210.839 309.431 224.177 306.519 237.011C303.607 249.845 292.638 257.315 282.02 253.695C271.402 250.075 265.156 236.737 268.068 223.903C270.98 211.069 281.949 203.599 292.566 207.219Z"></path>
  </clipPath>
  <g clip-path="url(#cl_1c1)">
    <path fill="#2F1507" transform="matrix(3.1155 1.06211 -0.854502 3.76576 283.619 233.735)" d="M0 -6.1709C3.40809 -6.1709 6.1709 -3.40809 6.1709 -1.83907e-07C6.1709 3.40809 3.40809 6.1709 0 6.1709C-3.40809 6.1709 -6.1709 3.40809 -6.1709 1.83907e-07C-6.1709 -3.40809 -3.40809 -6.1709 0 -6.1709Z"></path>
  </g>
  <path fill="#1F0D04" transform="matrix(3.1155 1.06211 -0.854502 3.76576 299.911 174.85)" d="M9.53674e-07 -6.1709C3.40809 -6.1709 6.1709 -3.4081 6.1709 -2.09126e-06C6.1709 3.40809 3.40809 6.1709 9.53674e-07 6.1709C-3.40809 6.1709 -6.1709 3.40809 -6.1709 -1.72344e-06C-6.1709 -3.40809 -3.40809 -6.1709 9.53674e-07 -6.1709Z"></path>
  <clipPath id="cl_1c2">
    <path d="M305.184 151.612C315.802 155.232 322.049 168.571 319.137 181.405C316.225 194.239 305.256 201.708 294.638 198.089C284.02 194.469 277.774 181.13 280.686 168.296C283.598 155.462 294.566 147.993 305.184 151.612Z"></path>
  </clipPath>
  <g clip-path="url(#cl_1c2)">
    <path fill="#2F1507" transform="matrix(3.1155 1.06211 -0.854501 3.76576 292.466 179.952)" d="M-4.76837e-07 -6.1709C3.40809 -6.1709 6.1709 -3.40809 6.1709 0C6.1709 3.40809 3.40809 6.1709 -4.76837e-07 6.1709C-3.40809 6.1709 -6.1709 3.40809 -6.1709 0C-6.1709 -3.40809 -3.40809 -6.1709 -4.76837e-07 -6.1709Z"></path>
  </g>
  <path fill="none" stroke="#E3CEC2" stroke-width="4" stroke-linecap="round" stroke-linejoin="round" transform="matrix(3.1155 1.06211 -0.854502 3.76576 248.525 156.407)" d="M2.42519 2.41434L15.2044 14.4568"></path>
  <path fill="none" stroke="#C8AD9D" stroke-width="4" stroke-linecap="round" stroke-linejoin="round" transform="matrix(3.1155 1.06211 -0.854502 3.76576 248.525 156.407)" d="M3.28776 13.1788L15.6779 1.98902"></path>
  <path fill="#4B2713" transform="matrix(1.39976 -0.0261786 0.0261786 1.39976 265.949 16.5542)" d="M-1.90735e-06 1.52588e-05C-1.90735e-06 1.52588e-05 -14.9634 1.52588e-05 -18.2779 1.52588e-05C-65.6143 1.30371 -124.671 32.2772 -124.671 128C-124.671 223.723 -55.3249 256 -19 256C-15.6855 256 -1.90735e-06 256 -1.90735e-06 256C-25.1443 256 -105.671 223.723 -105.671 128C-105.671 32.2772 -25.1443 1.52588e-05 -1.90735e-06 1.52588e-05Z"></path>
  <path fill="#A5A5A5" transform="matrix(1.49268 0 0 0.196328 264.066 478.725)" d="M-0.25 -88C55.945 -88 101.5 -48.6011 101.5 0C101.5 48.6011 55.945 88 -0.25 88C-56.445 88 -102 48.6011 -102 0C-102 -48.6011 -56.445 -88 -0.25 -88Z" style="mix-blend-mode: multiply"></path>
</svg>