<?xml version="1.0" encoding="utf-8"?>
<svg xmlns="http://www.w3.org/2000/svg" xmlns:xlink="http://www.w3.org/1999/xlink" width="512" height="512">
  <path fill="#312F2F" transform="matrix(0.994216 -0.152285 0.211968 1.38386 243.007 212.67)" d="M2.38419e-06 -128C70.6924 -128 128 -70.6925 128 -2.86102e-06C128 70.6925 70.6924 128 -1.43051e-06 128C-70.6924 128 -128 70.6925 -128 -9.53674e-07C-128 -70.6925 -70.6924 -128 2.38419e-06 -128Z"></path>
  <path fill="none" stroke="black" stroke-width="7" stroke-miterlimit="4" transform="translate(256 256)" d="M-13.8318 -224.492C56.4517 -235.257 125.575 -164.679 140.56 -66.8502C155.544 30.9783 110.715 119.011 40.4319 129.776C-29.8517 140.542 -98.9751 69.9634 -113.96 -27.8651C-128.944 -125.694 -84.1154 -213.726 -13.8318 -224.492Z"></path>
  <path fill="none" stroke="black" stroke-width="7" stroke-linejoin="round" transform="translate(256 256)" d="M-13.8318 -224.492C-13.8318 -224.492 -31.8523 -221.732 -39.2555 -220.598C-95.9866 -210.062 -160.543 -156.305 -140.253 -23.8377C-119.963 108.629 -29.6078 140.505 14.1385 133.804C21.5418 132.67 40.4319 129.776 40.4319 129.776C39.6965 129.889 38.9177 129.981 38.0979 130.052"></path>
  <path fill="#8D5A3E" transform="matrix(0.994216 -0.152285 0.211968 1.38386 269.3 208.642)" d="M1.90735e-06 -128C70.6924 -128 128 -70.6925 128 -2.86102e-06C128 70.6925 70.6924 128 -1.90735e-06 128C-70.6924 128 -128 70.6925 -128 -9.53674e-07C-128 -70.6925 -70.6924 -128 1.90735e-06 -128Z"></path>
  <path fill="#4B2713" transform="matrix(0.994216 -0.152285 0.211968 1.38386 275.55 206.269)" d="M0.250001 -87.5C51.4744 -87.5 93 -48.4368 93 -0.250001C93 47.9368 51.4744 87 0.249999 87C-50.9744 87 -92.5 47.9368 -92.5 -0.249999C-92.5 -48.4368 -50.9744 -87.5 0.250001 -87.5Z"></path>
  <path fill="#693920" transform="matrix(0.994216 -0.152285 0.211968 1.38386 269.3 208.642)" d="M1.2815e-06 -86C47.4965 -86 86 -47.4965 86 -2.5481e-06C86 47.4965 47.4965 86 -1.2815e-06 86C-47.4965 86 -86 47.4965 -86 -1.2666e-06C-86 -47.4965 -47.4965 -86 1.2815e-06 -86Z"></path>
  <path fill="#1F0D04" transform="matrix(2.83206 0.699456 -0.227864 3.82775 244.931 230.004)" d="M0 -6.1709C3.40809 -6.1709 6.1709 -3.40809 6.1709 3.84884e-07C6.1709 3.40809 3.40809 6.1709 0 6.1709C-3.40809 6.1709 -6.1709 3.40809 -6.1709 5.68791e-07C-6.1709 -3.40809 -3.40809 -6.1709 0 -6.1709Z"></path>
  <clipPath id="cl_6f">
    <path d="M246.337 206.383C255.989 208.767 263.184 221.275 262.407 234.32C261.631 247.365 253.177 256.008 243.525 253.624C233.873 251.241 226.678 238.733 227.455 225.688C228.231 212.642 236.685 203.999 246.337 206.383Z"></path>
  </clipPath>
  <g clip-path="url(#cl_6f)">
    <path fill="#2F1507" transform="matrix(2.83206 0.699456 -0.227864 3.82775 241.371 235.404)" d="M-4.76837e-07 -6.1709C3.40809 -6.1709 6.1709 -3.40809 6.1709 -9.19536e-08C6.1709 3.40809 3.40809 6.1709 -4.76837e-07 6.1709C-3.40809 6.1709 -6.1709 3.40809 -6.1709 9.19536e-08C-6.1709 -3.40809 -3.40809 -6.1709 -4.76837e-07 -6.1709Z"></path>
  </g>
  <path fill="#1F0D04" transform="matrix(2.83206 0.699456 -0.227864 3.82775 248.296 173.482)" d="M-4.76837e-07 -6.1709C3.40809 -6.1709 6.1709 -3.40809 6.1709 -9.19536e-08C6.1709 3.40809 3.40809 6.1709 -4.76837e-07 6.1709C-3.40809 6.1709 -6.1709 3.40809 -6.1709 9.19536e-08C-6.1709 -3.40809 -3.40809 -6.1709 -4.76837e-07 -6.1709Z"></path>
  <clipPath id="cl_70">
    <path d="M249.702 149.861C259.354 152.245 266.549 164.753 265.772 177.798C264.995 190.844 256.541 199.486 246.89 197.103C237.238 194.719 230.043 182.211 230.819 169.166C231.596 156.12 240.05 147.477 249.702 149.861Z"></path>
  </clipPath>
  <g clip-path="url(#cl_70)">
    <path fill="#2F1507" transform="matrix(2.83206 0.699456 -0.227864 3.82775 244.562 181.816)" d="M0 -6.1709C3.40809 -6.1709 6.1709 -3.40809 6.1709 1.8154e-06C6.1709 3.40809 3.40809 6.1709 0 6.1709C-3.40809 6.1709 -6.1709 3.40809 -6.1709 1.9993e-06C-6.1709 -3.40809 -3.40809 -6.1709 0 -6.1709Z"></path>
  </g>
  <path fill="#1F0D04" transform="matrix(2.83206 0.699456 -0.227864 3.82775 289.526 241.018)" d="M9.53674e-07 -6.1709C3.40809 -6.1709 6.1709 -3.40809 6.1709 3.84884e-07C6.1709 3.40809 3.40809 6.1709 9.53674e-07 6.1709C-3.40809 6.1709 -6.1709 3.40809 -6.1709 5.68791e-07C-6.1709 -3.40809 -3.40809 -6.1709 9.53674e-07 -6.1709Z"></path>
  <clipPath id="cl_71">
    <path d="M290.932 217.397C300.584 219.781 307.779 232.289 307.002 245.334C306.226 258.379 297.772 267.022 288.12 264.638C278.468 262.255 271.273 249.747 272.049 236.702C272.826 223.656 281.28 215.013 290.932 217.397Z"></path>
  </clipPath>
  <g clip-path="url(#cl_71)">
    <path fill="#2F1507" transform="matrix(2.83206 0.699456 -0.227864 3.82775 286.798 244.682)" d="M0 -6.1709C3.40809 -6.1709 6.1709 -3.40809 6.1709 -9.19536e-08C6.1709 3.40809 3.40809 6.1709 0 6.1709C-3.40809 6.1709 -6.1709 3.40809 -6.1709 9.19536e-08C-6.1709 -3.40809 -3.40809 -6.1709 0 -6.1709Z"></path>
  </g>
  <path fill="#1F0D04" transform="matrix(2.83206 0.699456 -0.227864 3.82775 292.891 184.496)" d="M0 -6.1709C3.40809 -6.1709 6.1709 -3.40809 6.1709 1.8154e-06C6.1709 3.40809 3.40809 6.1709 0 6.1709C-3.40809 6.1709 -6.1709 3.40809 -6.1709 1.9993e-06C-6.1709 -3.40809 -3.40809 -6.1709 0 -6.1709Z"></path>
  <clipPath id="cl_72">
    <path d="M294.297 160.875C303.949 163.259 311.143 175.767 310.367 188.812C309.59 201.857 301.136 210.5 291.484 208.117C281.833 205.733 274.638 193.225 275.414 180.18C276.191 167.134 284.645 158.491 294.297 160.875Z"></path>
  </clipPath>
  <g clip-path="url(#cl_72)">
    <path fill="#2F1507" transform="matrix(2.83206 0.699456 -0.227864 3.82775 287.156 190.394)" d="M4.59768e-08 -6.1709C3.40809 -6.1709 6.1709 -3.40809 6.1709 0C6.1709 3.40809 3.40809 6.1709 -4.59768e-08 6.1709C-3.40809 6.1709 -6.1709 3.40809 -6.1709 0C-6.1709 -3.40809 -3.40809 -6.1709 4.59768e-08 -6.1709Z"></path>
  </g>
  <path fill="none" stroke="#E3CEC2" stroke-width="4" stroke-linecap="round" stroke-linejoin="round" transform="matrix(2.83206 0.699456 -0.227864 3.82775 246.054 172.043)" d="M2.42519 2.41434L15.2044 14.4568"></path>
  <path fill="none" stroke="#C8AD9D" stroke-width="4" stroke-linecap="round" stroke-linejoin="round" transform="matrix(2.83206 0.699456 -0.227864 3.82775 246.054 172.043)" d="M3.28776 13.1788L15.6779 1.98902"></path>
  <path fill="#4B2713" transform="matrix(1.38386 -0.211968 0.211968 1.38386 242.168 31.5082)" d="M-9.53674e-07 1.52588e-05C-9.53674e-07 1.52588e-05 -13.0219 0 -18.3716 0C-59.5661 1.30371 -110.96 32.2772 -110.96 128C-110.96 223.723 -50.6118 256 -19 256C-13.6503 256 0 256 0 256C-21.8818 256 -91.9599 223.723 -91.9599 128C-91.9599 32.2772 -21.8818 1.52588e-05 -9.53674e-07 1.52588e-05Z"></path>
  <path fill="#A5A5A5" transform="matrix(1.20901 0 0 0.196328 261.336 478.725)" d="M-0.25 -88C55.945 -88 101.5 -48.6011 101.5 0C101.5 48.6011 55.945 88 -0.25 88C-56.445 88 -102 48.6011 -102 0C-102 -48.6011 -56.445 -88 -0.25 -88Z" style="mix-blend-mode: multiply"></path>
</svg>