<?xml version="1.0" encoding="utf-8"?>
<svg xmlns="http://www.w3.org/2000/svg" xmlns:xlink="http://www.w3.org/1999/xlink" width="512" height="512">
  <path fill="none" stroke="black" stroke-width="6" stroke-linejoin="round" transform="matrix(1.8 0 0 1.52279 359.051 177.632)" d="M-13.7994 -17.3722C-10.053 -17.5772 -7.37078 -17.724 -3.89513 -17.9142C3.16154 -18.3003 10.4711 -14.693 11.0854 0.992283C11.6997 16.6776 12.8449 45.9196 13.1882 54.6843C14.8687 97.5949 -48.565 101.024 -50.2455 58.1132C-50.6674 47.3413 -51.4429 27.5403 -51.9313 15.068C-52.4198 2.59566 -46.8629 -15.563 -30.8003 -16.4419C-29.6699 -16.5038 -28.6003 -16.5623 -27.5862 -16.6178"></path>
  <path fill="none" stroke="black" stroke-width="6" stroke-linejoin="round" transform="matrix(1.8 0 0 1.64041 359.051 259.878)" d="M-50.2296 -3.02064C-45.8771 -45.4653 17.2794 -39.5212 12.9269 2.9235C11.1991 19.7726 8.31676 47.8801 6.52617 65.3416C5.89704 71.4767 -3.72237 81.9484 -26.8643 80.0424C-50.0063 78.1363 -57.355 66.4642 -56.8646 61.6822C-55.0635 44.1183 -51.5047 9.41363 -50.2296 -3.02064Z"></path>
  <path fill="#503F7E" transform="matrix(1.8 0 0 1.52279 359.051 177.632)" d="M-51.9313 15.068C-52.4198 2.59567 -46.8629 -15.563 -30.8003 -16.4419C-14.7377 -17.3209 -10.9518 -17.528 -3.89513 -17.9142C3.16154 -18.3003 10.4711 -14.693 11.0854 0.992283C11.6997 16.6776 12.8449 45.9196 13.1882 54.6843C14.8687 97.5949 -48.565 101.024 -50.2455 58.1132C-50.6674 47.3413 -51.4429 27.5403 -51.9313 15.068Z"></path>
  <path fill="#503F7E" transform="matrix(1.8 0 0 1.64041 359.051 259.878)" d="M-50.2296 -3.02064C-45.8771 -45.4653 17.2794 -39.5212 12.9269 2.92349C11.1991 19.7726 8.31676 47.8801 6.52617 65.3416C5.89704 71.4767 -3.72237 81.9484 -26.8643 80.0424C-50.0063 78.1363 -57.355 66.4642 -56.8646 61.6822C-55.0635 44.1183 -51.5047 9.41363 -50.2296 -3.02064Z"></path>
  <path fill="none" stroke="black" stroke-width="5" stroke-linejoin="round" transform="matrix(1.67985 0 0 1.8 269.501 356.202)" d="M-10.5594 -15.6724C7.66469 -15.8779 20.6635 -11.8522 21.2771 35.5332C21.8991 49.6283 26.3299 64.8208 11.3451 74.091C-0.223583 73.9988 -13.147 74.8052 -29.6117 74.5407C-40.4553 65.6266 -41.1686 52.1498 -41.9401 35.343C-43.158 -11.1325 -28.7834 -15.4669 -10.5594 -15.6724Z"></path>
  <path fill="#453279" transform="matrix(1.67985 0 0 1.8 269.501 356.202)" d="M-10.5594 -15.6724C7.66469 -15.8779 20.6635 -11.8522 21.2771 35.5332C21.8991 49.6283 26.3299 64.8208 11.3451 74.091C-0.223583 73.9988 -13.147 74.8052 -29.6117 74.5407C-40.4553 65.6266 -41.1686 52.1498 -41.9401 35.343C-43.158 -11.1325 -28.7834 -15.4669 -10.5594 -15.6724Z"></path>
  <path fill="none" stroke="black" stroke-width="5" stroke-linejoin="round" transform="matrix(1.67985 0 0 1.8 191.63 362.835)" d="M2.56218 -12.3945C18.5822 -20.5047 57.3715 -7.42727 55.9759 33.5218C55.9518 49.8489 42.5441 73.7731 25.506 72.5025C11.1307 67.1461 1.22343 63.4006 -12.2655 57.6246C-21.6059 45.0788 0.782562 45.3717 1.38218 31.1203C2.21872 -9.06428 -13.4579 -4.28419 2.56218 -12.3945Z"></path>
  <path fill="none" stroke="black" stroke-width="5" stroke-linejoin="round" transform="matrix(1.79976 0.0276995 -0.0293645 1.69771 274.681 287.69)" d="M-11.3238 -80.2543C25.8014 -80.2543 54.9476 -94.6926 58.9092 -40.8672C62.8708 12.9582 37.0524 74.7499 0.0572909 75.3534C-14.1177 75.5847 -17.7665 75.6442 -48.2096 76.1409C-78.6526 76.6376 -84.25 60.12 -84.25 1.90735e-06C-86.6294 -86.0849 -88.6034 -78.4854 -12.7475 -80.2208"></path>
  <path fill="#503F7E" transform="matrix(1.67985 0 0 1.8 191.63 362.835)" d="M2.56218 -12.3945C18.5822 -20.5047 57.3715 -7.42727 55.9759 33.5218C55.9518 49.8489 42.5441 73.7731 25.506 72.5025C11.1307 67.1461 1.22343 63.4006 -12.2655 57.6246C-21.6059 45.0788 0.782562 45.3717 1.38218 31.1203C2.21872 -9.06428 -13.4579 -4.28419 2.56218 -12.3945Z"></path>
  <path fill="none" stroke="black" stroke-width="5" stroke-linejoin="round" transform="matrix(1.53139 0 0 1.39334 226.982 138.838)" d="M0 -40C20.9426 -40 35.0096 -26.8589 47.8597 -2.20018C49.1253 -3.81499 50.3123 -3.57653 51.1974 -3.11682C52.0824 -2.65711 52.5509 -1.60562 52.2206 -0.665342C53.8523 0.0631991 55.2854 1.47333 55.8775 2.67698C56.9197 4.79566 57.6743 10.5072 53.7931 11.8212C58.5977 31.9882 20.3682 22.0914 -1.32962e-05 22.0914C-20.2357 22.0914 -45.0732 28.3281 -41.8836 12.9784C-44.6787 11.8212 -48.2008 8.95144 -46.5316 4.29175C-45.7036 1.98006 -43.8185 0.567089 -42.3936 0.566997C-41.0392 0.56691 -42.9934 -2.2 -40.2188 -3.81491C-39.0195 -4.51291 -37.7273 -4.43211 -36.6068 -4.12355C-28.0141 -23.7311 -20.4124 -40 0 -40Z"></path>
  <path fill="#503F7E" transform="matrix(1.79976 0.0276995 -0.0293645 1.69771 274.681 287.69)" d="M-11.3238 -80.2543C25.8014 -80.2543 54.9476 -94.6926 58.9092 -40.8672C62.8708 12.9582 37.0524 74.7499 0.0572909 75.3534C-14.1177 75.5847 -17.7665 75.6442 -48.2096 76.1409C-78.6526 76.6376 -84.25 60.12 -84.25 1.90735e-06C-86.6442 -86.62 -88.6279 -78.3873 -11.3238 -80.2543Z"></path>
  <clipPath id="cl_ae">
    <path d="M256.658 151.128C323.474 152.156 376.354 128.451 381.904 219.941C387.453 311.431 339.172 415.62 272.572 415.62C247.053 415.62 240.485 415.62 185.68 415.62C130.875 415.62 121.286 387.423 123.052 285.356C121.286 138.234 117.474 152.156 256.658 151.128Z"></path>
  </clipPath>
  <g clip-path="url(#cl_ae)">
    <path fill="#655494" transform="matrix(1.8 0 0 1.8 311.807 269.769)" d="M-0.158648 -48.2655C25.513 -48.2655 46.324 -26.6563 46.324 4.76837e-07C46.324 26.6563 25.513 48.2655 -0.158648 48.2655C-25.8303 48.2655 -46.6413 26.6563 -46.6413 4.76837e-07C-46.6413 -26.6563 -25.8303 -48.2655 -0.158648 -48.2655Z"></path>
  </g>
  <path fill="none" stroke="black" stroke-width="2" stroke-linejoin="round" transform="matrix(3.88825 -0.763212 0.691401 3.5224 233.781 60.5895)" d="M-4.34758 -5.25472C-4.34759 -11.5047 3.66088 -11.5047 3.66088 -5.25472C3.66088 0.99528 3.66088 12.5 3.66088 12.5L-4.57314 12.5C-4.57314 12.5 -4.34758 0.99528 -4.34758 -5.25472Z"></path>
  <path fill="none" stroke="black" stroke-width="2" stroke-linejoin="round" transform="matrix(3.5224 -0.691401 0.691401 3.5224 199.573 66.0023)" d="M-5.1645 -6.50117C-5.1645 -12.7512 6 -12.7512 6 -6.50117C6 -0.251166 6 12.5 6 12.5L-6 12.5C-6 12.5 -5.1645 -0.251167 -5.1645 -6.50117Z"></path>
  <path fill="#453279" transform="matrix(3.88825 -0.763212 0.691401 3.5224 233.781 60.5895)" d="M-4.34758 -5.25472C-4.34759 -11.5047 3.66088 -11.5047 3.66088 -5.25472C3.66088 0.99528 3.66088 12.5 3.66088 12.5L-4.57314 12.5C-4.57314 12.5 -4.34758 0.99528 -4.34758 -5.25472Z"></path>
  <path fill="none" stroke="#161616" stroke-width="0.5" stroke-linecap="round" stroke-linejoin="round" transform="matrix(3.88825 -0.763212 0.691401 3.5224 228.988 41.0578)" d="M3.35338e-06 1.51652L2.6386e-06 10.5382"></path>
  <path fill="#503F7E" transform="matrix(3.5224 -0.691401 0.691401 3.5224 199.573 66.0023)" d="M-5.1645 -6.50116C-5.1645 -12.7512 6 -12.7512 6 -6.50116C6 -0.251162 6 12.5 6 12.5L-6 12.5C-6 12.5 -5.1645 -0.251163 -5.1645 -6.50116Z"></path>
  <path fill="none" stroke="#161616" stroke-width="0.5" stroke-linecap="round" stroke-linejoin="round" transform="matrix(3.5224 -0.691401 0.691401 3.5224 199.787 45.9838)" d="M1.85391e-08 3.8412e-06L3.83324e-06 10.5382"></path>
  <path fill="#503F7E" transform="matrix(1.53139 0 0 1.39334 226.982 138.838)" d="M0 -40C20.9426 -40 35.0096 -26.8589 47.8597 -2.20018C49.1253 -3.81499 50.3123 -3.57653 51.1974 -3.11682C52.0824 -2.65711 52.5509 -1.60562 52.2206 -0.665342C53.8523 0.0631991 55.2854 1.47333 55.8775 2.67698C56.9197 4.79566 57.6743 10.5072 53.7931 11.8212C58.5977 31.9882 20.3682 22.0914 -1.32962e-05 22.0914C-20.2357 22.0914 -45.0732 28.3281 -41.8836 12.9784C-44.6787 11.8212 -48.2008 8.95144 -46.5316 4.29175C-45.7036 1.98006 -43.8185 0.567089 -42.3936 0.566997C-41.0392 0.56691 -42.9934 -2.2 -40.2188 -3.81491C-39.0195 -4.51291 -37.7273 -4.43211 -36.6068 -4.12355C-28.0141 -23.7311 -20.4124 -40 0 -40Z"></path>
  <clipPath id="cl_af">
    <path d="M226.982 83.1039C259.053 83.1039 280.595 101.414 300.273 135.772C302.211 133.522 304.029 133.854 305.384 134.495C306.74 135.135 307.457 136.6 306.951 137.911C309.45 138.926 311.645 140.891 312.552 142.568C314.148 145.52 315.303 153.478 309.359 155.309C316.717 183.408 258.173 169.619 226.981 169.619C195.993 169.619 157.957 178.308 162.842 156.921C158.561 155.309 153.168 151.31 155.724 144.818C156.992 141.597 159.879 139.628 162.061 139.628C164.135 139.628 161.142 135.772 165.391 133.522C167.228 132.55 169.206 132.662 170.922 133.092C184.081 105.772 195.722 83.1039 226.982 83.1039Z"></path>
  </clipPath>
  <g clip-path="url(#cl_af)">
    <path fill="#7463A5" transform="matrix(1.8 2.98023e-08 0.00759348 1.8 226.422 130.105)" d="M0 -5.5C3.86599 -5.5 7 -2.92564 7 0.25C7 3.42564 3.86599 6 0 6C-3.86599 6 -7 3.42564 -7 0.25C-7 -2.92564 -3.86599 -5.5 0 -5.5Z"></path>
    <path fill="#7463A5" transform="matrix(1.83618 3.04014e-08 0.00759348 1.8 278.971 121.959)" d="M0 -5C2.76142 -5 5 -2.6495 5 0.25C5 3.1495 2.76142 5.5 0 5.5C-2.76142 5.5 -5 3.1495 -5 0.25C-5 -2.6495 -2.76142 -5 0 -5Z"></path>
    <path fill="none" stroke="#131212" stroke-width="1" stroke-linecap="round" stroke-linejoin="round" transform="matrix(2.30699 -0.373724 0.274137 1.69224 257.202 115.263)" d="M1.44192e-06 -4.14104e-07L2.92891 -0.714567"></path>
    <path fill="none" stroke="#131212" stroke-width="1" stroke-linecap="round" stroke-linejoin="round" transform="matrix(2.30699 -0.373724 0.274137 1.69224 235.451 114.433)" d="M8.34465e-07 7.48094e-06L4.25731 1.79213"></path>
    <path fill="#131212" transform="matrix(2.47104 -0.400299 0.405754 2.50471 249.236 117.543)" d="M4.54078e-07 -2.15485e-07L1.9614 0.352738L0.91509 1.42246L4.54078e-07 -2.15485e-07Z"></path>
    <path fill="none" stroke="#131212" stroke-width="0.5" stroke-linecap="round" stroke-linejoin="round" transform="matrix(1.93759 -0.313883 0.31816 1.96399 252.296 121.079)" d="M1.18428e-07 -0.711224L-3.72341e-06 1.1102"></path>
    <path fill="#32225E" transform="matrix(1.74285 0.441491 -0.424043 1.74552 246.084 109.678)" d="M-3.84341e-06 -1.92715C1.6285 -1.92715 2.94867 -1.06433 2.94867 7.58546e-06C2.94867 1.06435 1.6285 1.92716 -3.78598e-06 1.92716C-1.62851 1.92716 -2.94867 1.06435 -2.94867 7.67333e-06C-2.94867 -1.06433 -1.62851 -1.92715 -3.84341e-06 -1.92715Z"></path>
    <path fill="#32225E" transform="matrix(1.71213 0.433708 -0.412468 1.69787 257.277 108.803)" d="M-3.8147e-06 -1.89919C0.889985 -1.89919 1.61146 -1.04889 1.61146 -2.40127e-08C1.61146 1.04889 0.889985 1.89919 -3.8147e-06 1.89919C-0.889993 1.89919 -1.61147 1.04889 -1.61147 2.40127e-08C-1.61147 -1.04889 -0.889993 -1.89919 -3.8147e-06 -1.89919Z"></path>
  </g>
  <path fill="none" stroke="black" stroke-width="4" stroke-linejoin="round" transform="matrix(1.8 0 0 1.8 352.158 172.569)" d="M-11.7479 -12.9046C-11.318 -13.5165 -10.7601 -14.1187 -10.0572 -14.7065C-5.47351 -18.5399 3.93804 -16.1165 4.43081 -14.7065C7.46664 -16.1165 10.8961 -16.6614 15.0174 -13.9738C19.1387 -11.2862 16.2386 -4.86793 16.6118 -4.55444C16.985 -4.24095 25.2116 0.494543 17.5976 8.33766C16.6439 8.92035 15.7365 9.39702 14.8735 9.77867"></path>
  <path fill="#7463A5" transform="matrix(1.8 0 0 1.8 352.158 172.569)" d="M-0.116455 0C-2.60165 -0.66394 -7.05858 1.11792 -10.0572 -2.65576C-13.0559 -6.42944 -14.6409 -10.8732 -10.0572 -14.7065C-5.47351 -18.5399 3.93804 -16.1165 4.43081 -14.7065C7.46664 -16.1165 10.8961 -16.6614 15.0174 -13.9738C19.1387 -11.2862 16.2386 -4.86793 16.6118 -4.55444C16.985 -4.24095 25.2116 0.494543 17.5976 8.33766C2.9012 17.3171 -0.809986 1.11792 -0.116455 0Z"></path>
  <path fill="none" stroke="black" stroke-width="6" stroke-linejoin="round" transform="matrix(1.8 0 0 1.8 163.282 270.215)" d="M-33.0637 -1.2215C-31.4954 -40.916 31.9551 -38.4092 30.3868 1.28533C29.7189 18.1918 28.6046 46.395 27.9124 63.9161C27.6692 70.0721 18.7192 81.0428 -4.51346 80.3957C-27.7461 79.7485 -35.8183 68.5 -35.6287 63.7017C-34.9324 46.078 -33.5566 11.2551 -33.0637 -1.2215Z"></path>
  <path fill="none" stroke="black" stroke-width="6" stroke-linecap="round" stroke-linejoin="bevel" transform="matrix(1.8 0 0 1.67094 163.282 179.968)" d="M30.8576 39.4478C30.6264 47.3196 30.4274 54.0926 30.3245 57.5959C29.0634 100.531 -34.4036 98.3255 -33.1425 55.3904C-32.8259 44.6125 -32.2439 24.8001 -31.8774 12.3207C-31.5108 -0.158726 -24.729 -17.7719 -8.65721 -17.2241C-6.86317 -17.163 -5.2222 -17.107 -3.71265 -17.0556"></path>
  <path fill="#503F7E" transform="matrix(1.8 0 0 1.8 163.282 270.215)" d="M-33.0637 -1.2215C-31.4303 -42.5647 32.0202 -40.0578 30.3868 1.28533C29.7189 18.1918 28.6046 46.395 27.9124 63.916C27.6692 70.0721 18.7192 81.0428 -4.51346 80.3957C-27.7461 79.7485 -35.8183 68.5 -35.6287 63.7017C-34.9324 46.078 -33.5566 11.2551 -33.0637 -1.2215Z"></path>
  <path fill="#503F7E" transform="matrix(1.8 0 0 1.67094 163.282 179.968)" d="M-31.8774 12.3207C-31.5108 -0.158726 -24.729 -17.7719 -8.65721 -17.2241C7.41455 -16.6763 11.2026 -16.5472 18.2633 -16.3065C25.324 -16.0659 32.3635 -11.8209 31.9025 3.87331C31.4415 19.5675 30.5821 48.8262 30.3245 57.5959C29.2153 95.3621 -34.2517 93.1566 -33.1425 55.3904C-32.8259 44.6125 -32.2439 24.8001 -31.8774 12.3207Z"></path>
</svg>