<?xml version="1.0" encoding="utf-8"?>
<svg xmlns="http://www.w3.org/2000/svg" xmlns:xlink="http://www.w3.org/1999/xlink" width="512" height="512">
  <path fill="none" stroke="black" stroke-width="6" stroke-linejoin="round" transform="matrix(1.8 0 0 1.52279 359.051 177.632)" d="M-11.7544 -16.29C-8.22941 -16.0067 -5.62318 -15.7973 -2.28341 -15.5289C4.76455 -14.9626 11.679 -10.3948 10.778 5.27116C9.8771 20.9371 8.19746 50.143 7.69402 58.8969C5.22926 101.755 -58.1221 96.6217 -55.6573 53.7641C-55.0386 43.0056 -53.9013 23.2289 -53.1849 10.772C-52.4685 -1.68491 -45.1982 -18.9773 -29.1554 -17.6882C-27.8523 -17.5835 -26.6301 -17.4853 -25.4805 -17.3929"></path>
  <path fill="none" stroke="black" stroke-width="6" stroke-linejoin="round" transform="matrix(1.8 0 0 1.64041 359.051 259.878)" d="M-54.7329 -7.9224C-44.774 -49.2549 16.9429 -33.6292 6.98399 7.70331C3.03064 24.1109 -3.56429 51.4819 -7.66132 68.4859C-9.10082 74.4603 -20.0157 83.3393 -42.6664 77.8828C-65.317 72.4264 -71.0362 59.7417 -69.9142 55.085C-65.7932 37.9814 -57.6504 4.18606 -54.7329 -7.9224Z"></path>
  <path fill="#503F7E" transform="matrix(1.8 0 0 1.52279 359.051 177.632)" d="M-53.1849 10.772C-52.4685 -1.68491 -45.1982 -18.9773 -29.1554 -17.6882C-13.1126 -16.3991 -9.33139 -16.0953 -2.28341 -15.5289C4.76455 -14.9626 11.679 -10.3948 10.778 5.27117C9.8771 20.9371 8.19746 50.143 7.69402 58.8969C5.22926 101.755 -58.1221 96.6217 -55.6573 53.7641C-55.0386 43.0055 -53.9013 23.2289 -53.1849 10.772Z"></path>
  <path fill="#503F7E" transform="matrix(1.8 0 0 1.64041 359.051 259.878)" d="M-54.7329 -7.9224C-44.774 -49.2549 16.9429 -33.6292 6.98399 7.70331C3.03064 24.1109 -3.56429 51.4819 -7.66132 68.4859C-9.10082 74.4603 -20.0157 83.3393 -42.6664 77.8828C-65.317 72.4264 -71.0362 59.7417 -69.9142 55.085C-65.7932 37.9814 -57.6504 4.18606 -54.7329 -7.9224Z"></path>
  <path fill="none" stroke="black" stroke-width="5" stroke-linejoin="round" transform="matrix(1.67985 0 0 1.8 269.501 356.202)" d="M-42.5671 -14.637C-25.472 -20.5337 6.34488 -10.3961 5.80721 33.8873C6.05789 47.0687 -1.30628 73.107 -19.1566 76.5658C-29.7603 72.2481 -41.9878 68.2612 -57.0231 61.9935C-63.2085 49.7113 -52.9236 48.1367 -53.2504 32.4188C-53.2986 -11.0268 -59.6622 -8.74039 -42.5671 -14.637Z"></path>
  <path fill="#453279" transform="matrix(1.67985 0 0 1.8 269.501 356.202)" d="M-42.5671 -14.637C-25.472 -20.5337 6.34488 -10.3961 5.80721 33.8873C6.05789 47.0687 -1.30628 73.107 -19.1566 76.5658C-29.7603 72.2481 -41.9878 68.2612 -57.0231 61.9935C-63.2085 49.7113 -52.9236 48.1367 -53.2504 32.4188C-53.2986 -11.0268 -59.6622 -8.74039 -42.5671 -14.637Z"></path>
  <path fill="none" stroke="black" stroke-width="5" stroke-linejoin="round" transform="matrix(1.67985 0 0 1.8 191.63 362.835)" d="M38.1207 -14.3493C56.3424 -14.0074 69.1957 -9.59336 68.1749 37.7859C68.3836 56.6701 70.9493 69.2151 55.3656 75.6303C39.892 76.0018 29.205 76.2083 14.3685 75.8679C-0.35535 69.0799 4.51008 52.188 4.99709 35.6973C5.38242 -10.7907 19.899 -14.6912 38.1207 -14.3493Z"></path>
  <path fill="none" stroke="black" stroke-width="5" stroke-linejoin="round" transform="matrix(1.79976 0.0276995 -0.0293645 1.69771 274.681 287.69)" d="M-11.3238 -80.2543C25.8014 -80.2543 54.9476 -94.6926 58.9092 -40.8672C62.8708 12.9582 37.0524 74.7499 0.0572909 75.3534C-14.1177 75.5847 -17.7665 75.6442 -48.2096 76.1409C-78.6526 76.6376 -84.25 60.12 -84.25 0C-86.6294 -86.0849 -88.6034 -78.4854 -12.7475 -80.2208"></path>
  <path fill="#503F7E" transform="matrix(1.67985 0 0 1.8 191.63 362.835)" d="M38.1207 -14.3493C56.3424 -14.0074 69.1957 -9.59336 68.1749 37.7859C68.3836 56.6701 70.9493 69.2151 55.3656 75.6303C39.892 76.0018 29.205 76.2083 14.3685 75.8679C-0.35535 69.0799 4.51008 52.188 4.99709 35.6973C5.38242 -10.7907 19.899 -14.6912 38.1207 -14.3493Z"></path>
  <path fill="none" stroke="black" stroke-width="5" stroke-linejoin="round" transform="matrix(1.53139 0 0 1.39334 226.982 138.838)" d="M0 -40C20.9426 -40 35.0096 -26.8589 47.8597 -2.20018C49.1253 -3.81499 50.3123 -3.57653 51.1974 -3.11682C52.0824 -2.65711 52.5509 -1.60562 52.2206 -0.665342C53.8523 0.0631991 55.2854 1.47333 55.8775 2.67698C56.9197 4.79566 57.6743 10.5072 53.7931 11.8212C58.5977 31.9882 20.3682 22.0914 -1.32962e-05 22.0914C-20.2357 22.0914 -45.0732 28.3281 -41.8836 12.9784C-44.6787 11.8212 -48.2008 8.95144 -46.5316 4.29175C-45.7036 1.98006 -43.8185 0.567089 -42.3936 0.566997C-41.0392 0.56691 -42.9934 -2.2 -40.2188 -3.81491C-39.0195 -4.51291 -37.7273 -4.43211 -36.6068 -4.12355C-28.0141 -23.7311 -20.4124 -40 0 -40Z"></path>
  <path fill="#503F7E" transform="matrix(1.79976 0.0276995 -0.0293645 1.69771 274.681 287.69)" d="M-11.3238 -80.2543C25.8014 -80.2543 54.9476 -94.6926 58.9092 -40.8672C62.8708 12.9582 37.0524 74.7499 0.0572909 75.3534C-14.1177 75.5847 -17.7665 75.6442 -48.2096 76.1409C-78.6526 76.6376 -84.25 60.12 -84.25 0C-86.6442 -86.62 -88.6279 -78.3873 -11.3238 -80.2543Z"></path>
  <clipPath id="cl_2ca">
    <path d="M256.658 151.128C323.474 152.156 376.354 128.451 381.904 219.941C387.453 311.431 339.172 415.62 272.572 415.62C247.053 415.62 240.485 415.62 185.68 415.62C130.875 415.62 121.286 387.423 123.052 285.356C121.286 138.234 117.474 152.156 256.658 151.128Z"></path>
  </clipPath>
  <g clip-path="url(#cl_2ca)">
    <path fill="#655494" transform="matrix(1.8 0 0 1.8 311.807 269.769)" d="M-0.158648 -48.2655C25.513 -48.2655 46.324 -26.6563 46.324 0C46.324 26.6563 25.513 48.2655 -0.158648 48.2655C-25.8303 48.2655 -46.6413 26.6563 -46.6413 0C-46.6413 -26.6563 -25.8303 -48.2655 -0.158648 -48.2655Z"></path>
  </g>
  <path fill="none" stroke="black" stroke-width="2" stroke-linejoin="round" transform="matrix(3.88825 -0.763212 0.691401 3.5224 233.781 60.5895)" d="M-4.34758 -5.25471C-4.34759 -11.5047 3.66088 -11.5047 3.66088 -5.25472C3.66088 0.995284 3.66088 12.5 3.66088 12.5L-4.57314 12.5C-4.57314 12.5 -4.34758 0.995284 -4.34758 -5.25471Z"></path>
  <path fill="none" stroke="black" stroke-width="2" stroke-linejoin="round" transform="matrix(3.5224 -0.691401 0.691401 3.5224 199.573 66.0023)" d="M-5.1645 -6.50116C-5.1645 -12.7512 6 -12.7512 6 -6.50116C6 -0.251162 6 12.5 6 12.5L-6 12.5C-6 12.5 -5.1645 -0.251163 -5.1645 -6.50116Z"></path>
  <path fill="#453279" transform="matrix(3.88825 -0.763212 0.691401 3.5224 233.781 60.5895)" d="M-4.34758 -5.25471C-4.34759 -11.5047 3.66088 -11.5047 3.66088 -5.25472C3.66088 0.995284 3.66088 12.5 3.66088 12.5L-4.57314 12.5C-4.57314 12.5 -4.34758 0.995284 -4.34758 -5.25471Z"></path>
  <path fill="none" stroke="#161616" stroke-width="0.5" stroke-linecap="round" stroke-linejoin="round" transform="matrix(3.88825 -0.763212 0.691401 3.5224 228.988 41.0578)" d="M4.54547e-06 1.51652L3.83069e-06 10.5382"></path>
  <path fill="#503F7E" transform="matrix(3.5224 -0.691401 0.691401 3.5224 199.573 66.0023)" d="M-5.1645 -6.50116C-5.1645 -12.7512 6 -12.7512 6 -6.50116C6 -0.251159 6 12.5 6 12.5L-6 12.5C-6 12.5 -5.1645 -0.25116 -5.1645 -6.50116Z"></path>
  <path fill="none" stroke="#161616" stroke-width="0.5" stroke-linecap="round" stroke-linejoin="round" transform="matrix(3.5224 -0.691401 0.691401 3.5224 199.787 45.9838)" d="M4.95376e-07 3.8412e-06L4.31007e-06 10.5382"></path>
  <path fill="#503F7E" transform="matrix(1.53139 0 0 1.39334 226.982 138.838)" d="M0 -40C20.9426 -40 35.0096 -26.8589 47.8597 -2.20018C49.1253 -3.81499 50.3123 -3.57653 51.1974 -3.11682C52.0824 -2.65711 52.5509 -1.60562 52.2206 -0.665342C53.8523 0.0631991 55.2854 1.47333 55.8775 2.67698C56.9197 4.79566 57.6743 10.5072 53.7931 11.8212C58.5977 31.9882 20.3682 22.0914 -1.32962e-05 22.0914C-20.2357 22.0914 -45.0732 28.3281 -41.8836 12.9784C-44.6787 11.8212 -48.2008 8.95144 -46.5316 4.29175C-45.7036 1.98006 -43.8185 0.567089 -42.3936 0.566997C-41.0392 0.56691 -42.9934 -2.2 -40.2188 -3.81491C-39.0195 -4.51291 -37.7273 -4.43211 -36.6068 -4.12355C-28.0141 -23.7311 -20.4124 -40 0 -40Z"></path>
  <clipPath id="cl_2cb">
    <path d="M226.982 83.1039C259.053 83.1039 280.595 101.414 300.273 135.772C302.211 133.522 304.029 133.854 305.384 134.495C306.74 135.135 307.457 136.6 306.951 137.911C309.45 138.926 311.645 140.891 312.552 142.568C314.148 145.52 315.303 153.478 309.359 155.309C316.717 183.408 258.173 169.619 226.981 169.619C195.993 169.619 157.957 178.308 162.842 156.921C158.561 155.309 153.168 151.31 155.724 144.818C156.992 141.597 159.879 139.628 162.061 139.628C164.135 139.628 161.142 135.772 165.391 133.522C167.228 132.55 169.206 132.662 170.922 133.092C184.081 105.772 195.722 83.1039 226.982 83.1039Z"></path>
  </clipPath>
  <g clip-path="url(#cl_2cb)">
    <path fill="#7463A5" transform="matrix(1.8 2.98023e-08 0.00759348 1.8 223.024 130.105)" d="M1.90735e-06 -5.5C3.866 -5.5 7 -2.92564 7 0.25C7 3.42564 3.866 6 1.90735e-06 6C-3.86599 6 -7 3.42564 -7 0.25C-7 -2.92564 -3.86599 -5.5 1.90735e-06 -5.5Z"></path>
    <path fill="#7463A5" transform="matrix(1.83618 3.04014e-08 0.00759348 1.8 275.573 121.959)" d="M0 -5C2.76142 -5 5 -2.6495 5 0.25C5 3.1495 2.76142 5.5 0 5.5C-2.76142 5.5 -5 3.1495 -5 0.25C-5 -2.6495 -2.76142 -5 0 -5Z"></path>
    <path fill="none" stroke="#131212" stroke-width="1" stroke-linecap="round" stroke-linejoin="round" transform="matrix(2.30699 -0.373724 0.274137 1.69224 253.804 115.263)" d="M1.44192e-06 -4.14104e-07L2.92891 -0.714567"></path>
    <path fill="none" stroke="#131212" stroke-width="1" stroke-linecap="round" stroke-linejoin="round" transform="matrix(2.30699 -0.373724 0.274137 1.69224 232.054 114.433)" d="M1.49012e-07 7.48094e-06L4.25731 1.79213"></path>
    <path fill="#131212" transform="matrix(2.47104 -0.400299 0.405754 2.50471 245.838 117.543)" d="M-2.27592e-08 -4.03018e-06L1.9614 0.352734L0.91509 1.42246L-2.27592e-08 -4.03018e-06Z"></path>
    <path fill="none" stroke="#131212" stroke-width="0.5" stroke-linecap="round" stroke-linejoin="round" transform="matrix(1.93759 -0.313883 0.31816 1.96399 248.898 121.079)" d="M1.54894e-06 -0.711224L-2.2929e-06 1.1102"></path>
    <path fill="#32225E" transform="matrix(1.74285 0.441491 -0.424043 1.74552 242.686 109.678)" d="M-2.87169e-08 -1.92716C1.62851 -1.92716 2.94867 -1.06434 2.94867 -4.39386e-08C2.94867 1.06434 1.62851 1.92716 2.87169e-08 1.92716C-1.62851 1.92716 -2.94867 1.06434 -2.94867 4.39386e-08C-2.94867 -1.06434 -1.62851 -1.92716 -2.87169e-08 -1.92716Z"></path>
    <path fill="#32225E" transform="matrix(1.71213 0.433708 -0.412468 1.69787 253.879 108.803)" d="M-5.72205e-06 -1.89919C0.889983 -1.89919 1.61146 -1.04889 1.61146 -2.40127e-08C1.61146 1.04889 0.889983 1.89919 -5.72205e-06 1.89919C-0.889995 1.89919 -1.61147 1.04889 -1.61147 2.40127e-08C-1.61147 -1.04889 -0.889995 -1.89919 -5.72205e-06 -1.89919Z"></path>
  </g>
  <path fill="none" stroke="black" stroke-width="4" stroke-linejoin="round" transform="matrix(1.8 0 0 1.8 352.158 172.569)" d="M-11.7479 -12.9046C-11.318 -13.5165 -10.7601 -14.1187 -10.0572 -14.7065C-5.47351 -18.5399 3.93804 -16.1165 4.43081 -14.7065C7.46664 -16.1165 10.8961 -16.6614 15.0174 -13.9738C19.1387 -11.2862 16.2386 -4.86793 16.6118 -4.55444C16.985 -4.24095 25.2116 0.494543 17.5976 8.33766C16.6439 8.92035 15.7365 9.39702 14.8735 9.77867"></path>
  <path fill="#7463A5" transform="matrix(1.8 0 0 1.8 352.158 172.569)" d="M-0.116455 0C-2.60165 -0.66394 -7.05858 1.11792 -10.0572 -2.65576C-13.0559 -6.42944 -14.6409 -10.8732 -10.0572 -14.7065C-5.47351 -18.5399 3.93804 -16.1165 4.43081 -14.7065C7.46664 -16.1165 10.8961 -16.6614 15.0174 -13.9738C19.1387 -11.2862 16.2386 -4.86793 16.6118 -4.55444C16.985 -4.24095 25.2116 0.494543 17.5976 8.33766C2.9012 17.3171 -0.809986 1.11792 -0.116455 0Z"></path>
  <path fill="none" stroke="black" stroke-width="6" stroke-linejoin="round" transform="matrix(1.8 0 0 1.8 172.223 270.215)" d="M-25.1225 3.32982C-29.6953 -36.1316 33.3826 -43.4411 37.9554 -3.97966C39.903 12.8276 43.152 40.8652 45.1704 58.2833C45.8796 64.4031 38.7288 76.623 15.6743 79.5669C-7.38013 82.5108 -17.0906 72.6419 -17.6434 67.8718C-19.6736 50.3516 -23.6852 15.7332 -25.1225 3.32982Z"></path>
  <path fill="none" stroke="black" stroke-width="6" stroke-linecap="round" stroke-linejoin="bevel" transform="matrix(1.8 0 0 1.67094 172.223 179.968)" d="M36.1281 33.8083C37.0306 41.6586 37.8077 48.4179 38.209 51.9083C43.1103 94.5391 -19.913 102.905 -24.8143 60.2741C-26.0447 49.5725 -28.3064 29.9006 -29.731 17.5096C-31.1556 5.11857 -26.9767 -13.4107 -11.0188 -15.5397C-9.34482 -15.7631 -7.80507 -15.9685 -6.38169 -16.1584"></path>
  <path fill="#503F7E" transform="matrix(1.8 0 0 1.8 172.223 270.215)" d="M-25.1225 3.32982C-29.8852 -37.7706 33.1927 -45.0801 37.9554 -3.97966C39.903 12.8276 43.152 40.8652 45.1704 58.2833C45.8796 64.4031 38.7288 76.623 15.6743 79.5669C-7.38013 82.5108 -17.0906 72.6419 -17.6434 67.8718C-19.6736 50.3516 -23.6852 15.7332 -25.1225 3.32982Z"></path>
  <path fill="#503F7E" transform="matrix(1.8 0 0 1.67094 172.223 179.968)" d="M-29.731 17.5096C-31.1556 5.11857 -26.9767 -13.4107 -11.0188 -15.5397C4.9391 -17.6688 8.70028 -18.1706 15.711 -19.1059C22.7216 -20.0412 30.2847 -17.0167 32.0763 -1.43367C33.8679 14.1493 37.2079 43.2007 38.209 51.9083C42.5202 89.4068 -20.5031 97.7727 -24.8143 60.2741C-26.0447 49.5725 -28.3064 29.9006 -29.731 17.5096Z"></path>
</svg>