<?xml version="1.0" encoding="utf-8"?>
<svg xmlns="http://www.w3.org/2000/svg" xmlns:xlink="http://www.w3.org/1999/xlink" width="512" height="512">
  <path fill="none" stroke="black" stroke-width="6" stroke-linejoin="round" transform="matrix(1.8 0 0 1.52279 359.051 175.584)" d="M-12.9517 -16.9777C-9.29662 -16.9796 -6.64277 -16.981 -3.22042 -16.9827C3.8438 -16.9864 11.0059 -12.987 11.0117 2.71505C11.0174 18.4171 11.0282 47.6904 11.0314 56.4646C11.0472 99.4211 -52.4528 99.4115 -52.4686 56.4549C-52.4726 45.6716 -52.4798 25.8493 -52.4844 13.3637C-52.489 0.877987 -46.2342 -16.9607 -30.1544 -16.9689C-28.9514 -16.9695 -27.8171 -16.9701 -26.7451 -16.9707"></path>
  <path fill="none" stroke="black" stroke-width="6" stroke-linejoin="round" transform="matrix(1.8 0 0 1.64041 359.051 257.83)" d="M-52.1841 -4.43211C-46.2257 -46.6366 16.6508 -37.7647 10.6924 4.43978C8.32712 21.1935 4.38139 49.1419 1.93013 66.5046C1.06888 72.605 -8.93933 82.6206 -31.989 79.6414C-55.0387 76.6623 -61.9384 64.6594 -61.2671 59.9045C-58.8014 42.44 -53.9296 7.93178 -52.1841 -4.43211Z"></path>
  <path fill="#503F7E" transform="matrix(1.8 0 0 1.52279 359.051 175.584)" d="M-52.4844 13.3637C-52.489 0.877983 -46.2342 -16.9607 -30.1544 -16.9689C-14.0746 -16.9772 -10.2847 -16.9791 -3.22042 -16.9827C3.8438 -16.9864 11.0059 -12.987 11.0117 2.71506C11.0174 18.4171 11.0282 47.6904 11.0314 56.4646C11.0472 99.4211 -52.4528 99.4115 -52.4686 56.4549C-52.4726 45.6716 -52.4798 25.8493 -52.4844 13.3637Z"></path>
  <path fill="#503F7E" transform="matrix(1.8 0 0 1.64041 359.051 257.83)" d="M-52.1841 -4.43212C-46.2257 -46.6366 16.6508 -37.7647 10.6924 4.43977C8.32712 21.1935 4.38139 49.1419 1.93013 66.5046C1.06888 72.605 -8.93933 82.6206 -31.989 79.6414C-55.0387 76.6623 -61.9384 64.6594 -61.2671 59.9045C-58.8014 42.44 -53.9296 7.93178 -52.1841 -4.43212Z"></path>
  <path fill="none" stroke="black" stroke-width="5" stroke-linejoin="round" transform="matrix(1.67985 0 0 1.8 269.501 356.202)" d="M-21.8047 -15.6706C-3.58136 -15.926 9.43002 -11.9358 10.1923 35.4477C10.8585 49.5411 15.3521 64.7423 0.36964 74.0884C-11.199 73.9963 -24.1224 74.8026 -40.5871 74.5381C-51.4317 65.6032 -52.201 52.235 -53.0252 35.4304C-54.389 -11.0416 -40.028 -15.4153 -21.8047 -15.6706Z"></path>
  <path fill="#453279" transform="matrix(1.67985 0 0 1.8 269.501 356.202)" d="M-21.8047 -15.6706C-3.58136 -15.926 9.43002 -11.9358 10.1923 35.4477C10.8585 49.5411 15.3521 64.7423 0.36964 74.0884C-11.199 73.9963 -24.1224 74.8026 -40.5871 74.5381C-51.4317 65.6032 -52.201 52.235 -53.0252 35.4304C-54.389 -11.0416 -40.028 -15.4153 -21.8047 -15.6706Z"></path>
  <path fill="none" stroke="black" stroke-width="5" stroke-linejoin="round" transform="matrix(1.67985 0 0 1.8 191.63 362.835)" d="M13.9774 -12.5749C30.2129 -20.3032 68.0594 -7.37053 66.4696 34.0701C66.3745 50.5951 53.6267 73.7178 36.5604 72.7909C22.0124 67.8571 11.9844 64.4028 -1.69166 59.0239C-11.3011 46.6664 10.5554 45.8554 11.224 31.4335C12.2448 -9.23546 -2.258 -4.84658 13.9774 -12.5749Z"></path>
  <path fill="none" stroke="black" stroke-width="5" stroke-linejoin="round" transform="matrix(1.79976 0.0276995 -0.0293645 1.69771 274.681 285.642)" d="M-11.3238 -80.2543C25.8014 -80.2543 54.9476 -94.6926 58.9092 -40.8672C62.8708 12.9582 37.0524 74.7499 0.0572919 75.3534C-14.1177 75.5847 -17.7665 75.6442 -48.2096 76.1409C-78.6526 76.6376 -84.25 60.12 -84.25 1.90735e-06C-86.6294 -86.0849 -88.6034 -78.4854 -12.7475 -80.2208"></path>
  <path fill="#503F7E" transform="matrix(1.67985 0 0 1.8 191.63 362.835)" d="M13.9774 -12.5749C30.2129 -20.3032 68.0594 -7.37053 66.4696 34.0701C66.3745 50.5951 53.6267 73.7178 36.5604 72.7909C22.0124 67.8571 11.9844 64.4028 -1.69166 59.0239C-11.3011 46.6664 10.5554 45.8554 11.224 31.4335C12.2448 -9.23546 -2.258 -4.84658 13.9774 -12.5749Z"></path>
  <path fill="none" stroke="black" stroke-width="5" stroke-linejoin="round" transform="matrix(1.53139 0 0 1.39334 226.982 135.821)" d="M0 -40C20.9426 -40 35.0096 -26.8589 47.8597 -2.20017C49.1253 -3.81498 50.3123 -3.57652 51.1974 -3.11681C52.0824 -2.6571 52.5509 -1.60561 52.2206 -0.665335C53.8523 0.0632067 55.2854 1.47333 55.8775 2.67699C56.9197 4.79567 57.6743 10.5072 53.7931 11.8212C58.5977 31.9882 20.3682 22.0914 -1.32962e-05 22.0914C-20.2357 22.0914 -45.0732 28.3281 -41.8836 12.9784C-44.6787 11.8212 -48.2008 8.95145 -46.5316 4.29176C-45.7036 1.98007 -43.8185 0.567096 -42.3936 0.567005C-41.0392 0.566917 -42.9934 -2.19999 -40.2188 -3.8149C-39.0195 -4.5129 -37.7273 -4.43211 -36.6068 -4.12355C-28.0141 -23.731 -20.4124 -40 0 -40Z"></path>
  <path fill="#503F7E" transform="matrix(1.79976 0.0276995 -0.0293645 1.69771 274.681 285.642)" d="M-11.3238 -80.2543C25.8014 -80.2543 54.9476 -94.6926 58.9092 -40.8672C62.8708 12.9582 37.0524 74.7499 0.0572919 75.3534C-14.1177 75.5847 -17.7665 75.6442 -48.2096 76.1409C-78.6526 76.6376 -84.25 60.12 -84.25 1.90735e-06C-86.6442 -86.62 -88.6279 -78.3873 -11.3238 -80.2543Z"></path>
  <clipPath id="cl_ff">
    <path d="M256.658 149.08C323.474 150.108 376.354 126.403 381.904 217.893C387.453 309.383 339.172 413.572 272.572 413.572C247.053 413.572 240.485 413.572 185.68 413.572C130.875 413.572 121.286 385.375 123.052 283.308C121.286 136.186 117.474 150.108 256.658 149.08Z"></path>
  </clipPath>
  <g clip-path="url(#cl_ff)">
    <path fill="#655494" transform="matrix(1.8 0 0 1.8 311.807 267.721)" d="M-0.158648 -48.2655C25.513 -48.2655 46.324 -26.6563 46.324 0C46.324 26.6563 25.513 48.2655 -0.158648 48.2655C-25.8303 48.2655 -46.6413 26.6563 -46.6413 0C-46.6413 -26.6563 -25.8303 -48.2655 -0.158648 -48.2655Z"></path>
  </g>
  <path fill="none" stroke="black" stroke-width="2" stroke-linejoin="round" transform="matrix(3.88825 -0.763212 0.691401 3.5224 233.781 57.5731)" d="M-4.34758 -5.25471C-4.34758 -11.5047 3.66088 -11.5047 3.66088 -5.25472C3.66088 0.995284 3.66088 12.5 3.66088 12.5L-4.57314 12.5C-4.57314 12.5 -4.34758 0.995284 -4.34758 -5.25471Z"></path>
  <path fill="none" stroke="black" stroke-width="2" stroke-linejoin="round" transform="matrix(3.5224 -0.691401 0.691401 3.5224 199.573 62.9859)" d="M-5.1645 -6.50116C-5.1645 -12.7512 6 -12.7512 6 -6.50116C6 -0.251162 6 12.5 6 12.5L-6 12.5C-6 12.5 -5.1645 -0.251163 -5.1645 -6.50116Z"></path>
  <path fill="#453279" transform="matrix(3.88825 -0.763212 0.691401 3.5224 233.781 57.5731)" d="M-4.34758 -5.25471C-4.34758 -11.5047 3.66088 -11.5047 3.66088 -5.25472C3.66088 0.995284 3.66088 12.5 3.66088 12.5L-4.57314 12.5C-4.57314 12.5 -4.34758 0.995284 -4.34758 -5.25471Z"></path>
  <path fill="none" stroke="#161616" stroke-width="0.5" stroke-linecap="round" stroke-linejoin="round" transform="matrix(3.88825 -0.763212 0.691401 3.5224 228.988 38.0414)" d="M4.06863e-06 1.51652L3.35385e-06 10.5382"></path>
  <path fill="#503F7E" transform="matrix(3.5224 -0.691401 0.691401 3.5224 199.573 62.9859)" d="M-5.1645 -6.50116C-5.1645 -12.7512 6 -12.7512 6 -6.50116C6 -0.251162 6 12.5 6 12.5L-6 12.5C-6 12.5 -5.1645 -0.251163 -5.1645 -6.50116Z"></path>
  <path fill="none" stroke="#161616" stroke-width="0.5" stroke-linecap="round" stroke-linejoin="round" transform="matrix(3.5224 -0.691401 0.691401 3.5224 199.787 42.9674)" d="M2.56958e-07 2.6499e-08L4.07165e-06 10.5382"></path>
  <path fill="#503F7E" transform="matrix(1.53139 0 0 1.39334 226.982 135.821)" d="M0 -40C20.9426 -40 35.0096 -26.8589 47.8597 -2.20017C49.1253 -3.81498 50.3123 -3.57652 51.1974 -3.11681C52.0824 -2.6571 52.5509 -1.60561 52.2206 -0.665335C53.8523 0.0632067 55.2854 1.47333 55.8775 2.67699C56.9197 4.79567 57.6743 10.5072 53.7931 11.8212C58.5977 31.9882 20.3682 22.0914 -1.32962e-05 22.0914C-20.2357 22.0914 -45.0732 28.3281 -41.8836 12.9784C-44.6787 11.8212 -48.2008 8.95145 -46.5316 4.29176C-45.7036 1.98007 -43.8185 0.567096 -42.3936 0.567005C-41.0392 0.566917 -42.9934 -2.19999 -40.2188 -3.8149C-39.0195 -4.5129 -37.7273 -4.43211 -36.6068 -4.12355C-28.0141 -23.731 -20.4124 -40 0 -40Z"></path>
  <clipPath id="cl_100">
    <path d="M226.982 80.0875C259.053 80.0875 280.595 98.3976 300.273 132.756C302.211 130.506 304.029 130.838 305.384 131.478C306.74 132.119 307.457 133.584 306.951 134.894C309.45 135.909 311.645 137.874 312.552 139.551C314.148 142.503 315.303 150.461 309.359 152.292C316.717 180.392 258.173 166.602 226.981 166.602C195.993 166.602 157.957 175.292 162.842 153.905C158.561 152.292 153.168 148.294 155.724 141.801C156.992 138.58 159.879 136.611 162.061 136.611C164.135 136.611 161.142 132.756 165.391 130.506C167.228 129.533 169.206 129.646 170.922 130.076C184.081 102.756 195.722 80.0875 226.982 80.0875Z"></path>
  </clipPath>
  <g clip-path="url(#cl_100)">
    <path fill="#7463A5" transform="matrix(1.8 2.98023e-08 0.00759348 1.8 225.918 125.896)" d="M0 -5.5C3.86599 -5.5 7 -2.92564 7 0.25C7 3.42564 3.86599 6 0 6C-3.86599 6 -7 3.42564 -7 0.25C-7 -2.92564 -3.86599 -5.5 0 -5.5Z"></path>
    <path fill="#7463A5" transform="matrix(1.83618 3.04014e-08 0.00759348 1.8 278.467 117.75)" d="M9.53674e-07 -5C2.76142 -5 5 -2.6495 5 0.25C5 3.1495 2.76142 5.5 9.53674e-07 5.5C-2.76142 5.5 -5 3.1495 -5 0.25C-5 -2.6495 -2.76142 -5 9.53674e-07 -5Z"></path>
    <path fill="none" stroke="#131212" stroke-width="1" stroke-linecap="round" stroke-linejoin="round" transform="matrix(2.30699 -0.373724 0.274137 1.69224 256.698 111.054)" d="M1.44192e-06 -4.14104e-07L2.92891 -0.714567"></path>
    <path fill="none" stroke="#131212" stroke-width="1" stroke-linecap="round" stroke-linejoin="round" transform="matrix(2.30699 -0.373724 0.274137 1.69224 234.948 110.224)" d="M5.96046e-07 7.48094e-06L4.25731 1.79213"></path>
    <path fill="#131212" transform="matrix(2.47104 -0.400299 0.405754 2.50471 248.733 113.334)" d="M-4.99596e-07 -2.15485e-07L1.9614 0.352738L0.915089 1.42246L-4.99596e-07 -2.15485e-07Z"></path>
    <path fill="none" stroke="#131212" stroke-width="0.5" stroke-linecap="round" stroke-linejoin="round" transform="matrix(1.93759 -0.313883 0.31816 1.96399 251.792 116.87)" d="M1.0721e-06 -0.711224L-2.76974e-06 1.1102"></path>
    <path fill="#32225E" transform="matrix(1.74285 0.441491 -0.424043 1.74552 245.58 105.469)" d="M-2.87169e-08 -1.92716C1.62851 -1.92716 2.94867 -1.06434 2.94867 -4.39386e-08C2.94867 1.06434 1.62851 1.92716 2.87169e-08 1.92716C-1.62851 1.92716 -2.94867 1.06434 -2.94867 4.39386e-08C-2.94867 -1.06434 -1.62851 -1.92716 -2.87169e-08 -1.92716Z"></path>
    <path fill="#32225E" transform="matrix(1.71213 0.433708 -0.412468 1.69787 256.773 104.594)" d="M-3.8147e-06 -1.89919C0.889985 -1.89919 1.61146 -1.04889 1.61146 -2.40127e-08C1.61146 1.04889 0.889985 1.89919 -3.8147e-06 1.89919C-0.889993 1.89919 -1.61147 1.04889 -1.61147 2.40127e-08C-1.61147 -1.04889 -0.889993 -1.89919 -3.8147e-06 -1.89919Z"></path>
  </g>
  <path fill="none" stroke="black" stroke-width="4" stroke-linejoin="round" transform="matrix(1.8 0 0 1.8 352.158 170.521)" d="M-11.7479 -12.9046C-11.318 -13.5165 -10.7601 -14.1187 -10.0572 -14.7065C-5.47351 -18.5399 3.93804 -16.1165 4.43081 -14.7065C7.46664 -16.1165 10.8961 -16.6614 15.0174 -13.9738C19.1387 -11.2862 16.2386 -4.86793 16.6118 -4.55444C16.985 -4.24095 25.2116 0.494546 17.5976 8.33766C16.6439 8.92036 15.7365 9.39703 14.8735 9.77867"></path>
  <path fill="#7463A5" transform="matrix(1.8 0 0 1.8 352.158 170.521)" d="M-0.116455 3.8147e-06C-2.60165 -0.663936 -7.05858 1.11792 -10.0572 -2.65576C-13.0559 -6.42944 -14.6409 -10.8732 -10.0572 -14.7065C-5.47351 -18.5399 3.93804 -16.1165 4.43081 -14.7065C7.46664 -16.1165 10.8961 -16.6614 15.0174 -13.9738C19.1387 -11.2862 16.2386 -4.86793 16.6118 -4.55444C16.985 -4.24095 25.2116 0.494546 17.5976 8.33766C2.9012 17.3171 -0.809986 1.11792 -0.116455 3.8147e-06Z"></path>
  <path fill="none" stroke="black" stroke-width="6" stroke-linejoin="round" transform="matrix(1.8 0 0 1.8 165.81 268.167)" d="M-29.9607 0.753295C-30.8619 -38.962 32.6218 -40.4025 33.523 -0.687219C33.9068 16.2281 34.5471 44.4461 34.9449 61.9762C35.0846 68.1355 26.8336 79.6411 3.60563 80.4388C-19.6223 81.2364 -28.3778 70.5112 -28.4867 65.7104C-28.8868 48.0775 -29.6774 13.2364 -29.9607 0.753295Z"></path>
  <path fill="none" stroke="black" stroke-width="6" stroke-linecap="round" stroke-linejoin="bevel" transform="matrix(1.8 0 0 1.67094 165.81 177.92)" d="M33.0723 37.2957C33.2959 45.1791 33.4883 51.9636 33.5878 55.4709C34.8056 98.4074 -28.666 100.454 -29.8838 57.5178C-30.1895 46.7395 -30.7515 26.9265 -31.1055 14.4466C-31.4594 1.96678 -25.7066 -16.0663 -9.6343 -16.5953C-7.88256 -16.653 -6.27674 -16.7059 -4.7967 -16.7546"></path>
  <path fill="#503F7E" transform="matrix(1.8 0 0 1.8 165.81 268.167)" d="M-29.9607 0.753294C-30.8993 -40.6115 32.5844 -42.052 33.523 -0.68722C33.9068 16.2281 34.5471 44.4461 34.9449 61.9762C35.0846 68.1355 26.8336 79.6411 3.60563 80.4388C-19.6223 81.2364 -28.3778 70.5112 -28.4867 65.7104C-28.8868 48.0775 -29.6774 13.2364 -29.9607 0.753294Z"></path>
  <path fill="#503F7E" transform="matrix(1.8 0 0 1.67094 165.81 177.92)" d="M-31.1055 14.4466C-31.4594 1.96678 -25.7066 -16.0663 -9.6343 -16.5953C6.43801 -17.1243 10.2262 -17.249 17.2871 -17.4814C24.348 -17.7138 31.6188 -13.9482 32.064 1.7465C32.5091 17.4412 33.339 46.7009 33.5878 55.4709C34.659 93.2383 -28.8126 95.2852 -29.8838 57.5178C-30.1895 46.7395 -30.7515 26.9265 -31.1055 14.4466Z"></path>
</svg>