<?xml version="1.0" encoding="utf-8"?>
<svg xmlns="http://www.w3.org/2000/svg" xmlns:xlink="http://www.w3.org/1999/xlink" width="512" height="512">
  <path fill="none" stroke="black" stroke-width="7" stroke-linejoin="round" transform="translate(256 256)" d="M-159.647 16.4987L154.11 -0.606999C154.11 -0.606999 129.978 -202.436 -12.7501 -190.566C-20.2633 -189.941 -26.901 -187.564 -32.8886 -184.001C-33.4186 -148.962 -50.0855 -110.976 -122.078 -112.953C-157.759 -48.9047 -159.647 16.4987 -159.647 16.4987Z"></path>
  <path fill="#4A4848" transform="matrix(1.51959 -0.0828463 0.0180085 0.330316 252.356 232.451)" d="M3.46918e-07 -116.5C64.3412 -116.5 116.5 -64.3412 116.5 7.62939e-06C116.5 64.3412 64.3412 116.5 1.29919e-07 116.5C-64.3412 116.5 -116.5 64.3412 -116.5 7.62939e-06C-116.5 -64.3412 -64.3412 -116.5 3.46918e-07 -116.5Z"></path>
  <path fill="none" stroke="black" stroke-width="7" stroke-miterlimit="4" transform="translate(256 256)" d="M-4.86668 -30.536C103.066 -36.4204 191.502 -23.9617 192.661 -2.70879C193.82 18.5442 107.262 40.5433 -0.670704 46.4277C-108.604 52.3121 -197.04 39.8534 -198.198 18.6005C-199.357 -2.65249 -112.8 -24.6516 -4.86668 -30.536Z"></path>
  <path fill="none" stroke="black" stroke-width="7" stroke-linejoin="round" transform="translate(256 256)" d="M-198.198 18.6005C-199.412 -3.66275 -189.849 -19.2975 -189.849 -19.2975C-178.806 -28.2057 -165.585 -35.5258 -148.066 -41.5148"></path>
  <path fill="none" stroke="black" stroke-width="7" stroke-linejoin="round" transform="translate(256 256)" d="M137.311 -57.1112C160.207 -52.6883 175.731 -46.1939 184.011 -38.0863C184.011 -38.0863 196.064 -22.35 193.648 -6.78624"></path>
  <path fill="none" stroke="black" stroke-width="5" stroke-miterlimit="4" transform="matrix(1.67751 -0.091456 0.091456 1.67751 249.393 70.0993)" d="M2.98023e-07 -16C8.83656 -16 16 -8.83656 16 5.96046e-08C16 8.83656 8.83656 16 1.78814e-07 16C-8.83656 16 -16 8.83656 -16 -5.96046e-08C-16 -8.83656 -8.83656 -16 2.98023e-07 -16Z"></path>
  <path fill="#E3CEC2" transform="matrix(1.67751 -0.091456 0.091456 1.67751 249.393 70.0994)" d="M5.96046e-08 -16C8.83656 -16 16 -8.83656 16 -7.56979e-06C16 8.83655 8.83656 16 -5.96046e-08 16C-8.83656 16 -16 8.83655 -16 -7.689e-06C-16 -8.83656 -8.83656 -16 5.96046e-08 -16Z"></path>
  <path fill="#8D5A3E" transform="matrix(1.67751 -0.091456 0.091456 1.67751 73.8329 273.726)" d="M13.4248 -1.90735e-06L200.462 2.08616e-06C200.462 2.08616e-06 192.659 -120.74 107.443 -118.31C102.958 -118.182 98.9354 -116.984 95.2612 -115.061C93.3771 -97.3501 86.6741 -72.8096 39.9489 -75.7229C16.6664 -38.8116 13.4248 -1.90735e-06 13.4248 -1.90735e-06Z"></path>
  <path fill="#C9B1AA" transform="matrix(1.67751 -0.091456 0.0180085 0.330316 253.231 263.946)" d="M1.08499e-07 -116.5C64.3412 -116.5 116.5 -64.3412 116.5 1.90735e-06C116.5 64.3412 64.3412 116.5 -1.08499e-07 116.5C-64.3412 116.5 -116.5 64.3412 -116.5 1.90735e-06C-116.5 -64.3412 -64.3412 -116.5 1.08499e-07 -116.5Z"></path>
  <defs>
    <linearGradient id="gradient_0" gradientUnits="userSpaceOnUse" x1="4.982996" y1="-447.75116" x2="4.982996" y2="84.5327">
      <stop offset="0" stop-color="#65524C"></stop>
      <stop offset="1" stop-color="#57443E"></stop>
    </linearGradient>
  </defs>
  <path fill="url(#gradient_0)" transform="matrix(1.34659 -0.0734149 0.014456 0.265156 253.231 263.946)" d="M-2.38419e-07 -116.5C64.3412 -116.5 116.5 -64.3412 116.5 1.90735e-06C116.5 64.3412 64.3412 116.5 -2.38419e-07 116.5C-64.3412 116.5 -116.5 64.3412 -116.5 1.90735e-06C-116.5 -64.3412 -64.3412 -116.5 -2.38419e-07 -116.5Z"></path>
  <clipPath id="cl_157">
    <path d="M96.3531 272.499L410.11 255.393C410.11 255.393 385.978 53.5643 243.25 65.4341C235.737 66.0589 229.099 68.4357 223.111 71.9986C221.571 101.881 212.571 143.661 133.922 143.047C98.2413 207.095 96.3531 272.499 96.3531 272.499Z"></path>
  </clipPath>
  <g clip-path="url(#cl_157)">
    <defs>
      <linearGradient id="gradient_1" gradientUnits="userSpaceOnUse" x1="32.522026" y1="-30.252893" x2="34.201527" y2="145.56622">
        <stop offset="0" stop-color="#705C56"></stop>
        <stop offset="1" stop-color="#58453F"></stop>
        <stop offset="1" stop-color="black"></stop>
      </linearGradient>
    </defs>
    <path fill="url(#gradient_1)" transform="matrix(2.0556 -0.112069 0.0687739 1.26147 177.636 107.231)" d="M0 -36C18.2254 -36 33 -19.8823 33 -1.52588e-05C33 19.8822 18.2254 36 0 36C-18.2254 36 -33 19.8822 -33 -1.52588e-05C-33 -19.8823 -18.2254 -36 0 -36Z"></path>
    <path fill="#714035" transform="matrix(0.9541 -0.676223 0.676223 0.9541 327.383 119.046)" d="M-46.3834 -19.9076C-36.9946 -19.9076 -29.3834 -27.5187 -29.3834 -36.9076L29.3834 -36.9076C29.3834 -27.5187 36.9946 -19.9076 46.3834 -19.9076L46.3834 19.9076C36.9946 19.9076 29.3834 27.5187 29.3834 36.9076L-29.3834 36.9076C-29.3834 27.5187 -36.9946 19.9076 -46.3834 19.9076L-46.3834 -19.9076Z"></path>
  </g>
  <clipPath id="cl_159">
    <path d="M251.547 233.055C338.189 228.332 409.179 238.333 410.109 255.393C411.04 272.453 341.557 290.113 254.915 294.837C168.274 299.56 97.2832 289.559 96.3531 272.499C95.423 255.438 164.906 237.779 251.547 233.055Z"></path>
  </clipPath>
  <g clip-path="url(#cl_159)">
    <defs>
      <linearGradient id="gradient_2" gradientUnits="userSpaceOnUse" x1="11.548142" y1="-21.297836" x2="11.45083" y2="17.121515">
        <stop offset="0" stop-color="#857069"></stop>
        <stop offset="1" stop-color="#745F58"></stop>
      </linearGradient>
    </defs>
    <path fill="url(#gradient_2)" transform="matrix(5.38834 -0.293767 0.200384 3.6755 131.543 238.446)" d="M6.3453 -18.4774C15.1819 -18.4774 19.9785 -8.83656 25.4977 -1.49012e-07C40.8822 25.7165 8.83656 21.8364 -1.2219e-06 19.1869C-8.83656 16.5373 -16 8.83656 -16 0C-16 -8.83656 -2.49126 -18.4774 6.3453 -18.4774Z"></path>
  </g>
  <clipPath id="cl_15a">
    <path d="M175.16 61.8179C212.624 59.7754 244.104 78.4516 245.471 103.532C246.838 128.613 217.576 150.601 180.112 152.644C142.648 154.686 111.168 136.01 109.801 110.929C108.434 85.8482 137.696 63.8604 175.16 61.8179Z"></path>
  </clipPath>
  <g clip-path="url(#cl_15a)">
    <clipPath id="cl_15b">
      <path d="M96.3531 272.499L410.11 255.393C410.11 255.393 385.978 53.5643 243.25 65.4341C235.737 66.0589 229.099 68.4357 223.111 71.9986C221.571 101.881 212.571 143.661 133.922 143.047C98.2413 207.095 96.3531 272.499 96.3531 272.499Z"></path>
    </clipPath>
    <g clip-path="url(#cl_15b)">
      <defs>
        <linearGradient id="gradient_3" gradientUnits="userSpaceOnUse" x1="10.008254" y1="-5.26476" x2="10.008254" y2="29.383497">
          <stop offset="0" stop-color="#8A756E"></stop>
          <stop offset="1" stop-color="#756059"></stop>
        </linearGradient>
      </defs>
      <path fill="url(#gradient_3)" transform="matrix(5.38834 -0.293767 0.293767 5.38834 125.926 150.86)" d="M0 -16C8.83656 -16 12.0102 -8.83656 16.201 -1.21452e-06C20.3918 8.83655 8.83656 16 0 16C-8.83656 16 -16 8.83656 -16 0C-16 -8.83656 -8.83656 -16 0 -16Z"></path>
    </g>
  </g>
  <path fill="#E3CEC2" transform="matrix(1.67751 -0.091456 0.091456 1.67751 57.8015 274.6)" d="M7.62939e-06 1.90735e-06C0 -13.2716 6.19049 -22.2543 6.19049 -22.2543C25.0053 -35.8095 53.1913 -41.7163 117 -41.7163C180.809 -41.7163 217.711 -33.6395 229.005 -21.3071C229.005 -21.3071 236.876 -9.78082 233 -7.15256e-07C233 -7.15256e-07 215.657 -22.9399 117 -22.9399C18.3427 -22.9399 7.62939e-06 1.90735e-06 7.62939e-06 1.90735e-06Z"></path>
  <path fill="#A5A5A5" transform="matrix(1.81391 0 0 0.301369 257.317 473.029)" d="M-0.25 -88C55.945 -88 101.5 -48.6011 101.5 0C101.5 48.6011 55.945 88 -0.25 88C-56.445 88 -102 48.6011 -102 0C-102 -48.6011 -56.445 -88 -0.25 -88Z" style="mix-blend-mode: multiply"></path>
</svg>