<?xml version="1.0" encoding="utf-8"?>
<svg xmlns="http://www.w3.org/2000/svg" xmlns:xlink="http://www.w3.org/1999/xlink" width="512" height="512">
  <path fill="none" stroke="black" stroke-width="7" stroke-linejoin="round" transform="translate(256 256)" d="M-159.629 0.56134L154.092 -17.1903C154.092 -17.1903 129.788 -214.657 -12.9148 -202.493C-20.4267 -201.853 -27.0595 -199.463 -33.0398 -195.887C-31.19 -157.573 -50.0863 -122.826 -122.083 -124.655C-157.631 -60.5337 -159.629 0.56134 -159.629 0.56134Z"></path>
  <path fill="#4A4848" transform="matrix(1.51941 -0.0859749 0.0159454 0.281799 252.291 216.193)" d="M2.87313e-07 -116.5C64.3412 -116.5 116.5 -64.3412 116.5 -1.52588e-05C116.5 64.3412 64.3412 116.5 7.03149e-08 116.5C-64.3412 116.5 -116.5 64.3412 -116.5 -1.52588e-05C-116.5 -64.3412 -64.3412 -116.5 2.87313e-07 -116.5Z"></path>
  <path fill="none" stroke="black" stroke-width="7" stroke-miterlimit="4" transform="translate(256 256)" d="M-4.62634 -41.1441C103.294 -47.2507 191.613 -37.5028 192.639 -19.3715C193.665 -1.24016 107.009 18.4086 -0.911053 24.5152C-108.832 30.6218 -197.15 20.8738 -198.176 2.74251C-199.202 -15.3888 -112.547 -35.0375 -4.62634 -41.1441Z"></path>
  <path fill="none" stroke="black" stroke-width="7" stroke-linejoin="round" transform="translate(256 256)" d="M-198.176 2.7425C-199.251 -16.2507 -189.856 -34.3092 -189.856 -34.3092C-178.502 -42.2055 -164.878 -48.7048 -146.712 -54.0649"></path>
  <path fill="none" stroke="black" stroke-width="7" stroke-linejoin="round" transform="translate(256 256)" d="M136.299 -70.0402C159.757 -66.4976 175.595 -61.0473 183.952 -54.1008C183.952 -54.1008 195.956 -37.1211 193.694 -23.2336"></path>
  <path fill="none" stroke="black" stroke-width="5" stroke-miterlimit="4" transform="matrix(1.67732 -0.0949098 0.0949098 1.67732 249.238 58.1593)" d="M2.38419e-07 -16C8.83656 -16 16 -8.83656 16 -7.62939e-06C16 8.83655 8.83656 16 2.38419e-07 16C-8.83656 16 -16 8.83655 -16 -7.62939e-06C-16 -8.83656 -8.83656 -16 2.38419e-07 -16Z"></path>
  <path fill="#E3CEC2" transform="matrix(1.67732 -0.0949098 0.0949098 1.67732 249.238 58.1594)" d="M-4.76837e-07 -16C8.83656 -16 16 -8.83656 16 -7.62939e-06C16 8.83655 8.83656 16 -4.76837e-07 16C-8.83656 16 -16 8.83655 -16 -7.62939e-06C-16 -8.83656 -8.83656 -16 -4.76837e-07 -16Z"></path>
  <path fill="#8D5A3E" transform="matrix(1.67732 -0.0949098 0.0949098 1.67732 73.8534 257.835)" d="M13.4248 -1.13249e-06L200.462 9.53674e-07C200.462 9.53674e-07 192.659 -118.169 107.443 -115.739C102.958 -115.611 98.9354 -114.414 95.2612 -112.49C94.0932 -93.9172 87.9326 -70.4585 39.9489 -73.1521C16.6664 -36.2409 13.4248 -1.13249e-06 13.4248 -1.13249e-06Z"></path>
  <path fill="#C9B1AA" transform="matrix(1.67732 -0.0949098 0.0159454 0.281799 253.231 247.686)" d="M-1.19209e-07 -116.5C64.3412 -116.5 116.5 -64.3412 116.5 0C116.5 64.3412 64.3412 116.5 -1.19209e-07 116.5C-64.3412 116.5 -116.5 64.3412 -116.5 0C-116.5 -64.3412 -64.3412 -116.5 -1.19209e-07 -116.5Z"></path>
  <defs>
    <linearGradient id="gradient_0" gradientUnits="userSpaceOnUse" x1="4.982996" y1="-447.75116" x2="4.982996" y2="84.5327">
      <stop offset="0" stop-color="#65524C"></stop>
      <stop offset="1" stop-color="#57443E"></stop>
    </linearGradient>
  </defs>
  <path fill="url(#gradient_0)" transform="matrix(1.34644 -0.0761873 0.0127999 0.22621 253.231 247.686)" d="M1.19209e-07 -116.5C64.3412 -116.5 116.5 -64.3412 116.5 -3.8147e-06C116.5 64.3412 64.3412 116.5 1.19209e-07 116.5C-64.3412 116.5 -116.5 64.3412 -116.5 -3.8147e-06C-116.5 -64.3412 -64.3412 -116.5 1.19209e-07 -116.5Z"></path>
  <clipPath id="cl_99">
    <path d="M96.371 256.561L410.092 238.81C410.092 238.81 385.788 41.3431 243.085 53.5068C235.573 54.1471 228.94 56.5375 222.96 60.1127C222.764 91.3761 214.657 131.309 133.917 131.345C98.3686 195.466 96.371 256.561 96.371 256.561Z"></path>
  </clipPath>
  <g clip-path="url(#cl_99)">
    <defs>
      <linearGradient id="gradient_1" gradientUnits="userSpaceOnUse" x1="32.522026" y1="-30.252893" x2="34.201527" y2="145.56622">
        <stop offset="0" stop-color="#705C56"></stop>
        <stop offset="1" stop-color="#58453F"></stop>
        <stop offset="1" stop-color="black"></stop>
      </linearGradient>
    </defs>
    <path fill="url(#gradient_1)" transform="matrix(2.05537 -0.116302 0.0713711 1.26132 177.557 95.4384)" d="M0 -36C18.2254 -36 33 -19.8823 33 -2.45869e-07C33 19.8823 18.2254 36 0 36C-18.2254 36 -33 19.8823 -33 2.45869e-07C-33 -19.8823 -18.2254 -36 0 -36Z"></path>
    <path fill="#714035" transform="matrix(0.952705 -0.678186 0.678186 0.952705 327.328 106.945)" d="M-46.3834 -19.9076C-36.9946 -19.9076 -29.3834 -27.5187 -29.3834 -36.9076L29.3835 -36.9076C29.3835 -27.5187 36.9946 -19.9076 46.3835 -19.9076L46.3835 19.9076C36.9946 19.9076 29.3835 27.5188 29.3835 36.9076L-29.3834 36.9076C-29.3834 27.5188 -36.9946 19.9076 -46.3834 19.9076L-46.3834 -19.9076Z"></path>
  </g>
  <clipPath id="cl_9b">
    <path d="M251.74 221.332C338.372 216.43 409.268 224.255 410.092 238.81C410.915 253.364 341.354 269.137 254.723 274.039C168.091 278.941 97.1946 271.116 96.371 256.561C95.5475 242.007 165.109 226.234 251.74 221.332Z"></path>
  </clipPath>
  <g clip-path="url(#cl_9b)">
    <defs>
      <linearGradient id="gradient_2" gradientUnits="userSpaceOnUse" x1="11.548142" y1="-21.297836" x2="11.45083" y2="17.121515">
        <stop offset="0" stop-color="#857069"></stop>
        <stop offset="1" stop-color="#745F58"></stop>
      </linearGradient>
    </defs>
    <path fill="url(#gradient_2)" transform="matrix(5.38773 -0.304861 0.177428 3.13564 131.757 227.138)" d="M6.3453 -18.4774C15.1819 -18.4774 19.9785 -8.83656 25.4977 -9.12713e-07C40.8822 25.7165 8.83656 21.8364 -1.15042e-06 19.1869C-8.83656 16.5373 -16 8.83656 -16 -1.07288e-06C-16 -8.83656 -2.49126 -18.4774 6.3453 -18.4774Z"></path>
  </g>
  <clipPath id="cl_9c">
    <path d="M174.988 50.0307C212.448 47.9111 243.966 66.5225 245.385 91.6004C246.804 116.678 217.587 138.726 180.127 140.846C142.667 142.966 111.149 124.354 109.73 99.2763C108.311 74.1984 137.528 52.1504 174.988 50.0307Z"></path>
  </clipPath>
  <g clip-path="url(#cl_9c)">
    <clipPath id="cl_9d">
      <path d="M96.371 256.561L410.092 238.81C410.092 238.81 385.788 41.3431 243.085 53.5068C235.573 54.1471 228.94 56.5375 222.96 60.1127C222.764 91.3761 214.657 131.309 133.917 131.345C98.3686 195.466 96.371 256.561 96.371 256.561Z"></path>
    </clipPath>
    <g clip-path="url(#cl_9d)">
      <defs>
        <linearGradient id="gradient_3" gradientUnits="userSpaceOnUse" x1="10.008254" y1="-5.26476" x2="10.008254" y2="29.383497">
          <stop offset="0" stop-color="#8A756E"></stop>
          <stop offset="1" stop-color="#756059"></stop>
        </linearGradient>
      </defs>
      <path fill="url(#gradient_3)" transform="matrix(5.38773 -0.304861 0.304861 5.38773 125.938 139.174)" d="M-1.19209e-07 -16C8.83656 -16 12.0102 -8.83656 16.201 -1.33523e-06C20.3918 8.83656 8.83656 16 1.19209e-07 16C-8.83656 16 -16 8.83656 -16 1.19209e-07C-16 -8.83656 -8.83656 -16 -1.19209e-07 -16Z"></path>
    </g>
  </g>
  <path fill="#E3CEC2" transform="matrix(1.67732 -0.0949098 0.0949098 1.67732 57.8239 258.742)" d="M0 -9.53674e-07C0 -11.3235 6.19048 -21.7395 6.19048 -21.7395C25.0053 -33.3051 53.1913 -38.3449 117 -38.3449C180.809 -38.3449 217.711 -31.4535 229.005 -20.9313C229.005 -20.9313 236.876 -8.34517 233 9.53674e-07C233 9.53674e-07 215.657 -19.5727 117 -19.5727C18.3427 -19.5727 0 -9.53674e-07 0 -9.53674e-07Z"></path>
  <path fill="#A5A5A5" transform="matrix(1.84524 0 0 0.264109 257.59 473.886)" d="M-0.25 -88C55.945 -88 101.5 -48.6011 101.5 0C101.5 48.6011 55.945 88 -0.25 88C-56.445 88 -102 48.6011 -102 0C-102 -48.6011 -56.445 -88 -0.25 -88Z" style="mix-blend-mode: multiply"></path>
</svg>