<?xml version="1.0" encoding="utf-8"?>
<svg xmlns="http://www.w3.org/2000/svg" xmlns:xlink="http://www.w3.org/1999/xlink" width="512" height="512">
  <path fill="none" stroke="black" stroke-width="7" stroke-linejoin="round" transform="translate(256 256)" d="M-159.88 -25.7959L154.342 -25.8029C154.342 -25.8029 141.229 -219.683 -1.93294 -215.597C-9.469 -215.382 -16.2262 -213.37 -22.3989 -210.138C-21.8529 -170.59 -43.544 -138.156 -115.322 -144.048C-154.435 -82.0365 -159.88 -25.7959 -159.88 -25.7959Z"></path>
  <path fill="#4A4848" transform="matrix(1.52184 -3.40726e-05 5.15029e-06 0.230037 254.071 198.705)" d="M1.19236e-07 -116.5C64.3412 -116.5 116.5 -64.3412 116.5 -1.6953e-09C116.5 64.3412 64.3412 116.5 1.19183e-07 116.5C-64.3412 116.5 -116.5 64.3412 -116.5 1.6953e-09C-116.5 -64.3412 -64.3412 -116.5 1.19236e-07 -116.5Z"></path>
  <path fill="none" stroke="black" stroke-width="7" stroke-miterlimit="4" transform="translate(256 256)" d="M-2.76929 -52.5986C105.324 -52.6011 192.951 -40.6046 192.951 -25.8038C192.952 -11.0029 105.325 0.997459 -2.76809 0.99988C-110.861 1.0023 -198.488 -10.9942 -198.489 -25.795C-198.489 -40.5958 -110.862 -52.5962 -2.76929 -52.5986Z"></path>
  <path fill="none" stroke="black" stroke-width="7" stroke-linejoin="round" transform="translate(256 256)" d="M-198.489 -25.795C-198.489 -41.2994 -188.089 -61.3877 -188.089 -61.3877C-176.032 -67.4288 -161.683 -72.1697 -142.595 -75.7235"></path>
  <path fill="none" stroke="black" stroke-width="7" stroke-linejoin="round" transform="translate(256 256)" d="M138.527 -75.6277C162.322 -71.643 178.171 -66.4158 186.239 -60.2895C186.239 -60.2895 197.087 -41.3738 194.295 -29.3172"></path>
  <path fill="none" stroke="black" stroke-width="5" stroke-miterlimit="4" transform="matrix(1.68 -3.76133e-05 3.76133e-05 1.68 259.947 45.3955)" d="M0 -16C8.83656 -16 16 -8.83655 16 7.62939e-06C16 8.83656 8.83656 16 0 16C-8.83656 16 -16 8.83656 -16 7.62939e-06C-16 -8.83655 -8.83656 -16 0 -16Z"></path>
  <path fill="#E3CEC2" transform="matrix(1.68 -3.76124e-05 3.76124e-05 1.68 259.947 45.3956)" d="M2.38419e-07 -16C8.83656 -16 16 -8.83656 16 0C16 8.83656 8.83656 16 2.38419e-07 16C-8.83656 16 -16 8.83656 -16 0C-16 -8.83656 -8.83656 -16 2.38419e-07 -16Z"></path>
  <path fill="#8D5A3E" transform="matrix(1.68 -3.76135e-05 3.76135e-05 1.68 73.5665 230.205)" d="M13.4248 9.53674e-07L200.462 9.53674e-07C200.462 9.53674e-07 192.659 -115.405 107.443 -112.975C102.958 -112.847 98.9354 -111.649 95.2612 -109.726C94.9424 -90.2598 89.2847 -67.9475 39.9489 -70.3877C16.6664 -33.4765 13.4248 9.53674e-07 13.4248 9.53674e-07Z"></path>
  <path fill="#C9B1AA" transform="matrix(1.68 -3.76135e-05 5.15029e-06 0.230037 253.231 230.201)" d="M1.19236e-07 -116.5C64.3412 -116.5 116.5 -64.3412 116.5 0C116.5 64.3412 64.3412 116.5 1.19183e-07 116.5C-64.3412 116.5 -116.5 64.3412 -116.5 0C-116.5 -64.3412 -64.3412 -116.5 1.19236e-07 -116.5Z"></path>
  <defs>
    <linearGradient id="gradient_0" gradientUnits="userSpaceOnUse" x1="4.982996" y1="-447.75116" x2="4.982996" y2="84.5327">
      <stop offset="0" stop-color="#65524C"></stop>
      <stop offset="1" stop-color="#57443E"></stop>
    </linearGradient>
  </defs>
  <path fill="url(#gradient_0)" transform="matrix(1.34859 -3.01937e-05 4.13431e-06 0.184658 253.231 230.201)" d="M-2.38392e-07 -116.5C64.3412 -116.5 116.5 -64.3412 116.5 -1.6953e-09C116.5 64.3412 64.3412 116.5 -2.38445e-07 116.5C-64.3412 116.5 -116.5 64.3412 -116.5 1.6953e-09C-116.5 -64.3412 -64.3412 -116.5 -2.38392e-07 -116.5Z"></path>
  <clipPath id="cl_256">
    <path d="M96.1201 230.204L410.342 230.197C410.342 230.197 397.229 36.3173 254.067 40.4029C246.531 40.618 239.774 42.63 233.601 45.8619C233.066 78.5646 223.562 116.049 140.678 111.952C101.565 173.964 96.1201 230.204 96.1201 230.204Z"></path>
  </clipPath>
  <g clip-path="url(#cl_256)">
    <defs>
      <linearGradient id="gradient_1" gradientUnits="userSpaceOnUse" x1="32.522026" y1="-30.252893" x2="34.201527" y2="145.56622">
        <stop offset="0" stop-color="#705C56"></stop>
        <stop offset="1" stop-color="#58453F"></stop>
        <stop offset="1" stop-color="black"></stop>
      </linearGradient>
    </defs>
    <path fill="url(#gradient_1)" transform="matrix(2.05866 -4.6093e-05 2.82871e-05 1.26334 186.276 78.5672)" d="M0 -36C18.2254 -36 33 -19.8823 33 -1.20053e-10C33 19.8823 18.2254 36 0 36C-18.2254 36 -33 19.8823 -33 1.20053e-10C-33 -19.8823 -18.2254 -36 0 -36Z"></path>
    <path fill="#714035" transform="matrix(0.989483 -0.623303 0.623303 0.989483 335.158 98.5134)" d="M-46.3834 -19.9076C-36.9946 -19.9076 -29.3834 -27.5187 -29.3834 -36.9076L29.3834 -36.9076C29.3834 -27.5187 36.9946 -19.9076 46.3834 -19.9076L46.3834 19.9076C36.9946 19.9076 29.3834 27.5187 29.3834 36.9076L-29.3834 36.9076C-29.3834 27.5187 -36.9946 19.9076 -46.3834 19.9076L-46.3834 -19.9076Z"></path>
  </g>
  <clipPath id="cl_258">
    <path d="M253.231 208.688C340.001 208.686 410.342 218.316 410.342 230.197C410.343 242.078 340.002 251.711 253.232 251.713C166.462 251.715 96.1204 242.085 96.1201 230.204C96.1199 218.323 166.461 208.69 253.231 208.688Z"></path>
  </clipPath>
  <g clip-path="url(#cl_258)">
    <defs>
      <linearGradient id="gradient_2" gradientUnits="userSpaceOnUse" x1="11.548142" y1="-21.297836" x2="11.45083" y2="17.121515">
        <stop offset="0" stop-color="#857069"></stop>
        <stop offset="1" stop-color="#745F58"></stop>
      </linearGradient>
    </defs>
    <path fill="url(#gradient_2)" transform="matrix(5.39634 -0.000120819 5.73083e-05 2.55966 133.111 207.891)" d="M6.3453 -18.4774C15.1819 -18.4774 19.9785 -8.83656 25.4977 -1.49012e-07C40.8823 25.7165 8.83656 21.8364 6.85471e-07 19.1869C-8.83656 16.5373 -16 8.83656 -16 0C-16 -8.83656 -2.49126 -18.4774 6.3453 -18.4774Z"></path>
  </g>
  <clipPath id="cl_259">
    <path d="M186.275 33.0869C223.795 33.0861 254.211 53.4476 254.212 78.5656C254.212 103.684 223.797 124.047 186.277 124.047C148.757 124.048 118.341 103.687 118.34 78.5687C118.34 53.4506 148.755 33.0877 186.275 33.0869Z"></path>
  </clipPath>
  <g clip-path="url(#cl_259)">
    <clipPath id="cl_25a">
      <path d="M96.1201 230.204L410.342 230.197C410.342 230.197 397.229 36.3173 254.067 40.4029C246.531 40.618 239.774 42.63 233.601 45.8619C233.066 78.5646 223.562 116.049 140.678 111.952C101.565 173.964 96.1201 230.204 96.1201 230.204Z"></path>
    </clipPath>
    <g clip-path="url(#cl_25a)">
      <defs>
        <linearGradient id="gradient_3" gradientUnits="userSpaceOnUse" x1="10.008254" y1="-5.26476" x2="10.008254" y2="29.383497">
          <stop offset="0" stop-color="#8A756E"></stop>
          <stop offset="1" stop-color="#756059"></stop>
        </linearGradient>
      </defs>
      <path fill="url(#gradient_3)" transform="matrix(5.39634 -0.000120824 0.000120824 5.39634 132.269 119.318)" d="M-1.90735e-06 -16C8.83655 -16 12.0102 -8.83655 16.201 6.92827e-07C20.3918 8.83656 8.83655 16 -1.90735e-06 16C-8.83656 16 -16 8.83656 -16 1.90735e-06C-16 -8.83655 -8.83656 -16 -1.90735e-06 -16Z"></path>
    </g>
  </g>
  <path fill="#E3CEC2" transform="matrix(1.68 -3.76135e-05 3.76135e-05 1.68 57.5113 230.205)" d="M0 9.53674e-07C7.62939e-06 -9.2288 6.19048 -21.186 6.19048 -21.186C25.0053 -30.612 53.1913 -34.7195 117 -34.7195C180.809 -34.7195 217.711 -29.103 229.005 -20.5273C229.005 -20.5273 236.876 -6.80139 233 0C233 0 215.657 -15.9519 117 -15.9519C18.3427 -15.9519 0 9.53674e-07 0 9.53674e-07Z"></path>
  <path fill="#A5A5A5" transform="matrix(1.87894 0 0 0.224042 257.882 474.807)" d="M-0.25 -88C55.945 -88 101.5 -48.6011 101.5 0C101.5 48.6011 55.945 88 -0.25 88C-56.445 88 -102 48.6011 -102 0C-102 -48.6011 -56.445 -88 -0.25 -88Z" style="mix-blend-mode: multiply"></path>
</svg>