<?xml version="1.0" encoding="utf-8"?>
<svg xmlns="http://www.w3.org/2000/svg" xmlns:xlink="http://www.w3.org/1999/xlink" width="512" height="512">
  <path fill="none" stroke="black" stroke-width="7" stroke-linejoin="round" transform="translate(256 256)" d="M-159.88 -25.6168L154.342 -25.6808C154.342 -25.6808 141.194 -219.598 -1.96738 -215.487C-9.50339 -215.27 -16.2602 -213.257 -22.4323 -210.024C-21.8793 -170.476 -43.5644 -138.038 -115.344 -143.917C-154.446 -81.8984 -159.88 -25.6168 -159.88 -25.6168Z"></path>
  <path fill="#4A4848" transform="matrix(1.52184 -0.0003101 4.69652e-05 0.230486 254.065 198.856)" d="M1.19209e-07 -116.5C64.3412 -116.5 116.5 -64.3412 116.5 -1.35624e-08C116.5 64.3412 64.3412 116.5 1.19209e-07 116.5C-64.3412 116.5 -116.5 64.3412 -116.5 1.35624e-08C-116.5 -64.3412 -64.3412 -116.5 1.19209e-07 -116.5Z"></path>
  <path fill="none" stroke="black" stroke-width="7" stroke-miterlimit="4" transform="translate(256 256)" d="M-2.77417 -52.5004C105.319 -52.5225 192.948 -40.5184 192.951 -25.6887C192.954 -10.8589 105.33 1.18081 -2.76322 1.20284C-110.856 1.22486 -198.486 -10.7792 -198.489 -25.6089C-198.492 -40.4387 -110.867 -52.4784 -2.77417 -52.5004Z"></path>
  <path fill="none" stroke="black" stroke-width="7" stroke-linejoin="round" transform="translate(256 256)" d="M-198.489 -25.6089C-198.492 -41.1436 -188.096 -61.2115 -188.096 -61.2115C-176.042 -67.2655 -161.697 -72.0176 -142.615 -75.5815"></path>
  <path fill="none" stroke="black" stroke-width="7" stroke-linejoin="round" transform="translate(256 256)" d="M138.526 -75.5372C162.318 -71.5492 178.164 -66.3152 186.233 -60.179C186.233 -60.179 197.086 -41.2761 194.293 -29.2051"></path>
  <path fill="none" stroke="black" stroke-width="5" stroke-miterlimit="4" transform="matrix(1.68 -0.000342327 0.000342327 1.68 259.914 45.5049)" d="M-2.38419e-07 -16C8.83656 -16 16 -8.83655 16 7.62939e-06C16 8.83656 8.83656 16 -2.38419e-07 16C-8.83656 16 -16 8.83656 -16 7.62939e-06C-16 -8.83655 -8.83656 -16 -2.38419e-07 -16Z"></path>
  <path fill="#E3CEC2" transform="matrix(1.68 -0.000342326 0.000342326 1.68 259.914 45.5049)" d="M0 -16C8.83656 -16 16 -8.83655 16 7.62939e-06C16 8.83656 8.83656 16 0 16C-8.83656 16 -16 8.83656 -16 7.62939e-06C-16 -8.83655 -8.83656 -16 0 -16Z"></path>
  <path fill="#8D5A3E" transform="matrix(1.68 -0.000342327 0.000342327 1.68 73.5665 230.388)" d="M13.4248 -9.53674e-07L200.462 0C200.462 0 192.659 -115.429 107.443 -112.999C102.958 -112.871 98.9354 -111.673 95.2612 -109.749C94.9348 -90.2911 89.2731 -67.9691 39.9489 -70.4115C16.6664 -33.5003 13.4248 -9.53674e-07 13.4248 -9.53674e-07Z"></path>
  <path fill="#C9B1AA" transform="matrix(1.68 -0.000342327 4.69652e-05 0.230486 253.231 230.351)" d="M-1.19421e-07 -116.5C64.3412 -116.5 116.5 -64.3412 116.5 1.35624e-08C116.5 64.3412 64.3412 116.5 -1.18997e-07 116.5C-64.3412 116.5 -116.5 64.3412 -116.5 -1.35624e-08C-116.5 -64.3412 -64.3412 -116.5 -1.19421e-07 -116.5Z"></path>
  <defs>
    <linearGradient id="gradient_0" gradientUnits="userSpaceOnUse" x1="4.982996" y1="-447.75116" x2="4.982996" y2="84.5327">
      <stop offset="0" stop-color="#65524C"></stop>
      <stop offset="1" stop-color="#57443E"></stop>
    </linearGradient>
  </defs>
  <path fill="url(#gradient_0)" transform="matrix(1.34859 -0.000274797 3.77006e-05 0.185019 253.231 230.351)" d="M2.3863e-07 -116.5C64.3412 -116.5 116.5 -64.3412 116.5 -1.52588e-05C116.5 64.3412 64.3412 116.5 2.38207e-07 116.5C-64.3412 116.5 -116.5 64.3412 -116.5 -1.52588e-05C-116.5 -64.3412 -64.3412 -116.5 2.3863e-07 -116.5Z"></path>
  <clipPath id="cl_24c">
    <path d="M96.1201 230.383L410.342 230.319C410.342 230.319 397.194 36.4018 254.033 40.5134C246.497 40.7298 239.74 42.743 233.568 45.976C233.026 78.6662 223.522 116.169 140.656 112.083C101.554 174.102 96.1201 230.383 96.1201 230.383Z"></path>
  </clipPath>
  <g clip-path="url(#cl_24c)">
    <defs>
      <linearGradient id="gradient_1" gradientUnits="userSpaceOnUse" x1="32.522026" y1="-30.252893" x2="34.201527" y2="145.56622">
        <stop offset="0" stop-color="#705C56"></stop>
        <stop offset="1" stop-color="#58453F"></stop>
        <stop offset="1" stop-color="black"></stop>
      </linearGradient>
    </defs>
    <path fill="url(#gradient_1)" transform="matrix(2.05866 -0.000419486 0.000257428 1.26334 186.248 78.6899)" d="M0 -36C18.2254 -36 33 -19.8823 33 0C33 19.8823 18.2254 36 0 36C-18.2254 36 -33 19.8823 -33 0C-33 -19.8823 -18.2254 -36 0 -36Z"></path>
    <path fill="#714035" transform="matrix(0.98937 -0.623483 0.623483 0.98937 335.134 98.6091)" d="M-46.3834 -19.9076C-36.9946 -19.9076 -29.3834 -27.5187 -29.3834 -36.9076L29.3835 -36.9076C29.3835 -27.5187 36.9946 -19.9076 46.3835 -19.9076L46.3835 19.9076C36.9946 19.9076 29.3835 27.5187 29.3835 36.9076L-29.3834 36.9076C-29.3834 27.5187 -36.9946 19.9076 -46.3834 19.9076L-46.3834 -19.9076Z"></path>
  </g>
  <clipPath id="cl_24e">
    <path d="M253.227 208.796C339.997 208.779 410.34 218.415 410.342 230.319C410.345 242.224 340.006 251.888 253.236 251.906C166.466 251.924 96.1226 242.288 96.1201 230.383C96.1177 218.479 166.457 208.814 253.227 208.796Z"></path>
  </clipPath>
  <g clip-path="url(#cl_24e)">
    <defs>
      <linearGradient id="gradient_2" gradientUnits="userSpaceOnUse" x1="11.548142" y1="-21.297836" x2="11.45083" y2="17.121515">
        <stop offset="0" stop-color="#857069"></stop>
        <stop offset="1" stop-color="#745F58"></stop>
      </linearGradient>
    </defs>
    <path fill="url(#gradient_2)" transform="matrix(5.39634 -0.00109959 0.000522591 2.56467 133.107 208.019)" d="M6.3453 -18.4774C15.1819 -18.4774 19.9785 -8.83656 25.4977 -1.49012e-07C40.8822 25.7165 8.83656 21.8364 -1.2219e-06 19.1869C-8.83656 16.5373 -16 8.83656 -16 0C-16 -8.83656 -2.49126 -18.4774 6.3453 -18.4774Z"></path>
  </g>
  <clipPath id="cl_24f">
    <path d="M186.239 33.2096C223.759 33.202 254.179 53.558 254.184 78.6761C254.189 103.794 223.778 124.163 186.258 124.17C148.738 124.178 118.318 103.822 118.313 78.7037C118.308 53.5857 148.719 33.2173 186.239 33.2096Z"></path>
  </clipPath>
  <g clip-path="url(#cl_24f)">
    <clipPath id="cl_250">
      <path d="M96.1201 230.383L410.342 230.319C410.342 230.319 397.194 36.4018 254.033 40.5134C246.497 40.7298 239.74 42.743 233.568 45.976C233.026 78.6662 223.522 116.169 140.656 112.083C101.554 174.102 96.1201 230.383 96.1201 230.383Z"></path>
    </clipPath>
    <g clip-path="url(#cl_250)">
      <defs>
        <linearGradient id="gradient_3" gradientUnits="userSpaceOnUse" x1="10.008254" y1="-5.26476" x2="10.008254" y2="29.383497">
          <stop offset="0" stop-color="#8A756E"></stop>
          <stop offset="1" stop-color="#756059"></stop>
        </linearGradient>
      </defs>
      <path fill="url(#gradient_3)" transform="matrix(5.39634 -0.0010996 0.0010996 5.39634 132.249 119.451)" d="M2.32831e-10 -16C8.83656 -16 12.0102 -8.83656 16.201 -1.21429e-06C20.3918 8.83655 8.83656 16 -2.32831e-10 16C-8.83656 16 -16 8.83656 -16 -2.32831e-10C-16 -8.83656 -8.83656 -16 2.32831e-10 -16Z"></path>
    </g>
  </g>
  <path fill="#E3CEC2" transform="matrix(1.68 -0.000342327 0.000342327 1.68 57.5113 230.391)" d="M7.62939e-06 0C0 -9.24684 6.1905 -21.1908 6.1905 -21.1908C25.0053 -30.6352 53.1913 -34.7507 117 -34.7507C180.809 -34.7507 217.711 -29.1232 229.005 -20.5308C229.005 -20.5308 236.876 -6.81469 233 -9.53674e-07C233 -9.53674e-07 215.657 -15.9831 117 -15.9831C18.3427 -15.9831 7.62939e-06 0 7.62939e-06 0Z"></path>
  <path fill="#A5A5A5" transform="matrix(1.87865 0 0 0.224387 257.88 474.799)" d="M-0.25 -88.0001C55.945 -88.0001 101.5 -48.6011 101.5 -6.10352e-05C101.5 48.601 55.945 87.9999 -0.25 87.9999C-56.445 87.9999 -102 48.601 -102 -6.10352e-05C-102 -48.6011 -56.445 -88.0001 -0.25 -88.0001Z" style="mix-blend-mode: multiply"></path>
</svg>