<?xml version="1.0" encoding="utf-8"?>
<svg xmlns="http://www.w3.org/2000/svg" xmlns:xlink="http://www.w3.org/1999/xlink" width="512" height="512">
  <path fill="none" stroke="black" stroke-width="7" stroke-linejoin="round" transform="translate(256 256)" d="M-159.871 -15.1813L154.333 -18.567C154.333 -18.567 139.111 -214.665 -3.99932 -209.04C-11.5326 -208.744 -18.2678 -206.66 -24.4054 -203.362C-23.6601 -164.118 -44.7753 -131.157 -116.613 -136.276C-155.057 -73.8477 -159.871 -15.1813 -159.871 -15.1813Z"></path>
  <path fill="#4A4848" transform="matrix(1.52176 -0.0163975 0.00276577 0.256674 253.732 207.623)" d="M0 -116.5C64.3412 -116.5 116.5 -64.3412 116.5 8.67993e-07C116.5 64.3412 64.3412 116.5 0 116.5C-64.3412 116.5 -116.5 64.3412 -116.5 -8.67993e-07C-116.5 -64.3412 -64.3412 -116.5 0 -116.5Z"></path>
  <path fill="none" stroke="black" stroke-width="7" stroke-miterlimit="4" transform="translate(256 256)" d="M-3.09091 -46.7767C104.996 -47.9414 192.762 -35.4977 192.94 -18.983C193.118 -2.46822 105.64 11.8638 -2.44648 13.0285C-110.533 14.1931 -198.299 1.74946 -198.477 -14.7653C-198.655 -31.28 -111.178 -45.612 -3.09091 -46.7767Z"></path>
  <path fill="none" stroke="black" stroke-width="7" stroke-linejoin="round" transform="translate(256 256)" d="M-198.477 -14.7653C-198.664 -32.065 -188.467 -50.9424 -188.467 -50.9424C-176.62 -57.7336 -162.52 -63.1312 -143.803 -67.2827"></path>
  <path fill="none" stroke="black" stroke-width="7" stroke-linejoin="round" transform="translate(256 256)" d="M138.47 -70.2524C162.029 -66.0711 177.77 -60.4418 185.854 -53.741C185.854 -53.741 196.99 -35.5917 194.208 -22.6623"></path>
  <path fill="none" stroke="black" stroke-width="5" stroke-miterlimit="4" transform="matrix(1.6799 -0.0181017 0.0181017 1.6799 257.934 51.8888)" d="M0 -16C8.83656 -16 16 -8.83656 16 0C16 8.83656 8.83656 16 0 16C-8.83656 16 -16 8.83656 -16 0C-16 -8.83656 -8.83656 -16 0 -16Z"></path>
  <path fill="#E3CEC2" transform="matrix(1.6799 -0.0181016 0.0181016 1.6799 257.934 51.8888)" d="M0 -16C8.83656 -16 16 -8.83656 16 0C16 8.83656 8.83656 16 0 16C-8.83656 16 -16 8.83656 -16 0C-16 -8.83656 -8.83656 -16 0 -16Z"></path>
  <path fill="#8D5A3E" transform="matrix(1.6799 -0.0181016 0.0181016 1.6799 73.5769 241.062)" d="M13.4248 0L200.462 1.90735e-06C200.462 1.90735e-06 192.659 -116.816 107.443 -114.386C102.958 -114.258 98.9354 -113.06 95.2612 -111.137C94.4988 -92.122 88.5947 -69.227 39.9489 -71.7988C16.6664 -34.8876 13.4248 0 13.4248 0Z"></path>
  <path fill="#C9B1AA" transform="matrix(1.6799 -0.0181016 0.00276577 0.256674 253.231 239.126)" d="M1.32772e-07 -116.5C64.3412 -116.5 116.5 -64.3412 116.5 -8.49739e-06C116.5 64.3412 64.3412 116.5 1.05647e-07 116.5C-64.3412 116.5 -116.5 64.3412 -116.5 -6.7614e-06C-116.5 -64.3412 -64.3412 -116.5 1.32772e-07 -116.5Z"></path>
  <defs>
    <linearGradient id="gradient_0" gradientUnits="userSpaceOnUse" x1="4.982996" y1="-447.75116" x2="4.982996" y2="84.5327">
      <stop offset="0" stop-color="#65524C"></stop>
      <stop offset="1" stop-color="#57443E"></stop>
    </linearGradient>
  </defs>
  <path fill="url(#gradient_0)" transform="matrix(1.34852 -0.0145308 0.00222018 0.206041 253.231 239.126)" d="M0 -116.5C64.3412 -116.5 116.5 -64.3412 116.5 7.62939e-06C116.5 64.3412 64.3412 116.5 0 116.5C-64.3412 116.5 -116.5 64.3412 -116.5 7.62939e-06C-116.5 -64.3412 -64.3412 -116.5 0 -116.5Z"></path>
  <clipPath id="cl_1f2">
    <path d="M96.1292 240.819L410.333 237.433C410.333 237.433 395.111 41.335 252.001 46.9597C244.467 47.2558 237.732 49.3403 231.595 52.6384C230.658 84.5951 221.154 123.163 139.387 119.724C100.943 182.152 96.1292 240.819 96.1292 240.819Z"></path>
  </clipPath>
  <g clip-path="url(#cl_1f2)">
    <defs>
      <linearGradient id="gradient_1" gradientUnits="userSpaceOnUse" x1="32.522026" y1="-30.252893" x2="34.201527" y2="145.56622">
        <stop offset="0" stop-color="#705C56"></stop>
        <stop offset="1" stop-color="#58453F"></stop>
        <stop offset="1" stop-color="black"></stop>
      </linearGradient>
    </defs>
    <path fill="url(#gradient_1)" transform="matrix(2.05854 -0.0221816 0.0136122 1.26327 184.624 85.8506)" d="M-3.83146e-06 -36C18.2254 -36 33 -19.8823 33 0C33 19.8823 18.2254 36 -3.79793e-06 36C-18.2254 36 -33 19.8823 -33 0C-33 -19.8823 -18.2254 -36 -3.83146e-06 -36Z"></path>
    <path fill="#714035" transform="matrix(0.982724 -0.633907 0.633907 0.982724 333.712 104.195)" d="M-46.3834 -19.9076C-36.9946 -19.9076 -29.3834 -27.5187 -29.3834 -36.9076L29.3835 -36.9076C29.3835 -27.5187 36.9946 -19.9076 46.3835 -19.9076L46.3835 19.9076C36.9946 19.9076 29.3835 27.5187 29.3835 36.9076L-29.3834 36.9076C-29.3834 27.5187 -36.9946 19.9076 -46.3834 19.9076L-46.3834 -19.9076Z"></path>
  </g>
  <clipPath id="cl_1f4">
    <path d="M252.973 215.122C339.738 214.187 410.19 224.176 410.333 237.433C410.476 250.69 340.255 262.195 253.49 263.13C166.725 264.065 96.2721 254.076 96.1293 240.819C95.9864 227.562 166.208 216.057 252.973 215.122Z"></path>
  </clipPath>
  <g clip-path="url(#cl_1f4)">
    <defs>
      <linearGradient id="gradient_2" gradientUnits="userSpaceOnUse" x1="11.548142" y1="-21.297836" x2="11.45083" y2="17.121515">
        <stop offset="0" stop-color="#857069"></stop>
        <stop offset="1" stop-color="#745F58"></stop>
      </linearGradient>
    </defs>
    <path fill="url(#gradient_2)" transform="matrix(5.39603 -0.0581445 0.0307753 2.85607 132.85 215.524)" d="M6.3453 -18.4774C15.1819 -18.4774 19.9785 -8.83656 25.4977 -1.49012e-07C40.8823 25.7165 8.83656 21.8364 -1.21296e-06 19.1869C-8.83656 16.5373 -16 8.83656 -16 0C-16 -8.83656 -2.49126 -18.4774 6.3453 -18.4774Z"></path>
  </g>
  <clipPath id="cl_1f5">
    <path d="M184.134 40.373C221.651 39.9688 252.285 60.002 252.556 85.1187C252.826 110.235 222.632 130.924 185.114 131.328C147.596 131.733 116.963 111.699 116.692 86.5826C116.421 61.466 146.616 40.7773 184.134 40.373Z"></path>
  </clipPath>
  <g clip-path="url(#cl_1f5)">
    <clipPath id="cl_1f6">
      <path d="M96.1292 240.819L410.333 237.433C410.333 237.433 395.111 41.335 252.001 46.9597C244.467 47.2558 237.732 49.3403 231.595 52.6384C230.658 84.5951 221.154 123.163 139.387 119.724C100.943 182.152 96.1292 240.819 96.1292 240.819Z"></path>
    </clipPath>
    <g clip-path="url(#cl_1f6)">
      <defs>
        <linearGradient id="gradient_3" gradientUnits="userSpaceOnUse" x1="10.008254" y1="-5.26476" x2="10.008254" y2="29.383497">
          <stop offset="0" stop-color="#8A756E"></stop>
          <stop offset="1" stop-color="#756059"></stop>
        </linearGradient>
      </defs>
      <path fill="url(#gradient_3)" transform="matrix(5.39603 -0.0581445 0.0581445 5.39603 131.058 127.18)" d="M1.49012e-08 -16C8.83656 -16 12.0102 -8.83656 16.201 -1.19943e-06C20.3918 8.83655 8.83656 16 -1.49012e-08 16C-8.83656 16 -16 8.83656 -16 -1.49012e-08C-16 -8.83656 -8.83656 -16 1.49012e-08 -16Z"></path>
    </g>
  </g>
  <path fill="#E3CEC2" transform="matrix(1.6799 -0.0181016 0.0181016 1.6799 57.5227 241.235)" d="M7.62939e-06 1.90735e-06C1.52588e-05 -10.2981 6.19048 -21.4686 6.19048 -21.4686C25.0053 -31.9867 53.1913 -36.5701 117 -36.5701C180.809 -36.5701 217.711 -30.3028 229.005 -20.7336C229.005 -20.7336 236.876 -7.58942 233 9.53674e-07C233 9.53674e-07 215.657 -17.8002 117 -17.8002C18.3428 -17.8002 7.62939e-06 1.90735e-06 7.62939e-06 1.90735e-06Z"></path>
  <path fill="#A5A5A5" transform="matrix(1.86174 0 0 0.244495 257.733 474.337)" d="M-0.25 -88.0001C55.945 -88.0001 101.5 -48.6011 101.5 -6.10352e-05C101.5 48.601 55.945 87.9999 -0.25 87.9999C-56.445 87.9999 -102 48.601 -102 -6.10352e-05C-102 -48.6011 -56.445 -88.0001 -0.25 -88.0001Z" style="mix-blend-mode: multiply"></path>
</svg>