<?xml version="1.0" encoding="utf-8"?>
<svg xmlns="http://www.w3.org/2000/svg" xmlns:xlink="http://www.w3.org/1999/xlink" width="512" height="512">
  <path fill="none" stroke="black" stroke-width="7" stroke-linejoin="round" transform="translate(256 256)" d="M-159.879 -23.4838L154.342 -24.222C154.342 -24.222 140.776 -218.588 -2.37574 -214.169C-9.91128 -213.936 -16.6638 -211.909 -22.8289 -208.662C-22.2014 -169.13 -43.8065 -136.632 -115.598 -142.357C-154.567 -80.254 -159.879 -23.4838 -159.879 -23.4838Z"></path>
  <path fill="#4A4848" transform="matrix(1.52184 -0.0035748 0.000554008 0.235848 253.997 200.65)" d="M1.226e-07 -116.5C64.3412 -116.5 116.5 -64.3412 116.5 -1.53673e-05C116.5 64.3412 64.3412 116.5 1.15819e-07 116.5C-64.3412 116.5 -116.5 64.3412 -116.5 -1.51503e-05C-116.5 -64.3412 -64.3412 -116.5 1.226e-07 -116.5Z"></path>
  <path fill="none" stroke="black" stroke-width="7" stroke-miterlimit="4" transform="translate(256 256)" d="M-2.83324 -51.3293C105.26 -51.5832 192.915 -39.4874 192.951 -24.3127C192.986 -9.13788 105.389 3.36953 -2.70415 3.62344C-110.797 3.87735 -198.453 -8.21839 -198.488 -23.3932C-198.524 -38.5679 -110.926 -51.0753 -2.83324 -51.3293Z"></path>
  <path fill="none" stroke="black" stroke-width="7" stroke-linejoin="round" transform="translate(256 256)" d="M-198.488 -23.3932C-198.525 -39.2893 -188.172 -59.1135 -188.172 -59.1135C-176.159 -65.3198 -161.863 -70.205 -142.854 -73.8898"></path>
  <path fill="none" stroke="black" stroke-width="7" stroke-linejoin="round" transform="translate(256 256)" d="M138.516 -74.4548C162.262 -70.427 178.087 -65.1112 186.158 -58.8582C186.158 -58.8582 197.07 -40.1077 194.278 -27.8638"></path>
  <path fill="none" stroke="black" stroke-width="5" stroke-miterlimit="4" transform="matrix(1.68 -0.00394631 0.00394631 1.68 259.516 46.8099)" d="M0 -16C8.83656 -16 16 -8.83656 16 -7.62939e-06C16 8.83655 8.83656 16 0 16C-8.83656 16 -16 8.83655 -16 -7.62939e-06C-16 -8.83656 -8.83656 -16 0 -16Z"></path>
  <path fill="#E3CEC2" transform="matrix(1.68 -0.00394631 0.00394631 1.68 259.516 46.8099)" d="M0 -16C8.83656 -16 16 -8.83656 16 -7.62939e-06C16 8.83655 8.83656 16 0 16C-8.83656 16 -16 8.83655 -16 -7.62939e-06C-16 -8.83656 -8.83656 -16 0 -16Z"></path>
  <path fill="#8D5A3E" transform="matrix(1.68 -0.00394631 0.00394631 1.68 73.567 232.569)" d="M13.4248 2.86102e-06L200.462 2.86102e-06C200.462 2.86102e-06 192.659 -115.713 107.443 -113.283C102.958 -113.155 98.9354 -111.957 95.2612 -110.033C94.8439 -90.6651 89.1343 -68.2262 39.9489 -70.6954C16.6664 -33.7842 13.4248 2.86102e-06 13.4248 2.86102e-06Z"></path>
  <path fill="#C9B1AA" transform="matrix(1.68 -0.00394631 0.000554008 0.235848 253.231 232.147)" d="M-1.19209e-07 -116.5C64.3412 -116.5 116.5 -64.3412 116.5 7.62939e-06C116.5 64.3412 64.3412 116.5 -1.19209e-07 116.5C-64.3412 116.5 -116.5 64.3412 -116.5 7.62939e-06C-116.5 -64.3412 -64.3412 -116.5 -1.19209e-07 -116.5Z"></path>
  <defs>
    <linearGradient id="gradient_0" gradientUnits="userSpaceOnUse" x1="4.982996" y1="-447.75116" x2="4.982996" y2="84.5327">
      <stop offset="0" stop-color="#65524C"></stop>
      <stop offset="1" stop-color="#57443E"></stop>
    </linearGradient>
  </defs>
  <path fill="url(#gradient_0)" transform="matrix(1.34859 -0.00316784 0.000444722 0.189324 253.231 232.147)" d="M0 -116.5C64.3412 -116.5 116.5 -64.3412 116.5 -7.84639e-06C116.5 64.3412 64.3412 116.5 0 116.5C-64.3412 116.5 -116.5 64.3412 -116.5 -7.4124e-06C-116.5 -64.3412 -64.3412 -116.5 0 -116.5Z"></path>
  <clipPath id="cl_229">
    <path d="M96.1206 232.516L410.342 231.778C410.342 231.778 396.776 37.4123 253.624 41.831C246.089 42.0636 239.336 44.0913 233.171 47.3375C232.546 79.8779 223.043 117.598 140.402 113.643C101.433 175.746 96.1206 232.516 96.1206 232.516Z"></path>
  </clipPath>
  <g clip-path="url(#cl_229)">
    <defs>
      <linearGradient id="gradient_1" gradientUnits="userSpaceOnUse" x1="32.522026" y1="-30.252893" x2="34.201527" y2="145.56622">
        <stop offset="0" stop-color="#705C56"></stop>
        <stop offset="1" stop-color="#58453F"></stop>
        <stop offset="1" stop-color="black"></stop>
      </linearGradient>
    </defs>
    <path fill="url(#gradient_1)" transform="matrix(2.05865 -0.00483577 0.00296758 1.26334 185.922 80.1528)" d="M3.8147e-06 -36C18.2254 -36 33 -19.8823 33 0C33 19.8823 18.2254 36 3.8147e-06 36C-18.2254 36 -33 19.8823 -33 0C-33 -19.8823 -18.2254 -36 3.8147e-06 -36Z"></path>
    <path fill="#714035" transform="matrix(0.98803 -0.625604 0.625604 0.98803 334.85 99.7526)" d="M-46.3834 -19.9076C-36.9946 -19.9076 -29.3834 -27.5187 -29.3834 -36.9076L29.3835 -36.9076C29.3835 -27.5187 36.9946 -19.9076 46.3834 -19.9076L46.3834 19.9076C36.9946 19.9076 29.3835 27.5187 29.3834 36.9076L-29.3834 36.9076C-29.3834 27.5187 -36.9946 19.9076 -46.3834 19.9076L-46.3834 -19.9076Z"></path>
  </g>
  <clipPath id="cl_22b">
    <path d="M253.179 210.091C339.949 209.887 410.313 219.597 410.342 231.778C410.371 243.959 340.053 253.999 253.283 254.203C166.513 254.407 96.1492 244.697 96.1206 232.516C96.092 220.335 166.41 210.295 253.179 210.091Z"></path>
  </clipPath>
  <g clip-path="url(#cl_22b)">
    <defs>
      <linearGradient id="gradient_2" gradientUnits="userSpaceOnUse" x1="11.548142" y1="-21.297836" x2="11.45083" y2="17.121515">
        <stop offset="0" stop-color="#857069"></stop>
        <stop offset="1" stop-color="#745F58"></stop>
      </linearGradient>
    </defs>
    <path fill="url(#gradient_2)" transform="matrix(5.39633 -0.012676 0.00616456 2.62433 133.058 209.553)" d="M6.3453 -18.4774C15.1819 -18.4774 19.9785 -8.83655 25.4977 1.77021e-06C40.8823 25.7165 8.83656 21.8364 -1.2219e-06 19.1869C-8.83656 16.5373 -16 8.83656 -16 1.8999e-06C-16 -8.83655 -2.49126 -18.4774 6.3453 -18.4774Z"></path>
  </g>
  <clipPath id="cl_22c">
    <path d="M185.815 34.6727C223.335 34.5845 253.799 54.8753 253.858 79.9933C253.917 105.111 223.549 125.545 186.029 125.633C148.509 125.721 118.046 105.43 117.987 80.3124C117.928 55.1944 148.296 34.7608 185.815 34.6727Z"></path>
  </clipPath>
  <g clip-path="url(#cl_22c)">
    <clipPath id="cl_22d">
      <path d="M96.1206 232.516L410.342 231.778C410.342 231.778 396.776 37.4123 253.624 41.831C246.089 42.0636 239.336 44.0913 233.171 47.3375C232.546 79.8779 223.043 117.598 140.402 113.643C101.433 175.746 96.1206 232.516 96.1206 232.516Z"></path>
    </clipPath>
    <g clip-path="url(#cl_22d)">
      <defs>
        <linearGradient id="gradient_3" gradientUnits="userSpaceOnUse" x1="10.008254" y1="-5.26476" x2="10.008254" y2="29.383497">
          <stop offset="0" stop-color="#8A756E"></stop>
          <stop offset="1" stop-color="#756059"></stop>
        </linearGradient>
      </defs>
      <path fill="url(#gradient_3)" transform="matrix(5.39633 -0.012676 0.012676 5.39633 132.01 121.03)" d="M1.91107e-06 -16C8.83656 -16 12.0102 -8.83655 16.201 6.96599e-07C20.3918 8.83656 8.83656 16 1.90362e-06 16C-8.83655 16 -16 8.83656 -16 1.90362e-06C-16 -8.83655 -8.83655 -16 1.91107e-06 -16Z"></path>
    </g>
  </g>
  <path fill="#E3CEC2" transform="matrix(1.68 -0.00394631 0.00394631 1.68 57.5118 232.607)" d="M0 0C0 -9.46199 6.1905 -21.2476 6.1905 -21.2476C25.0053 -30.9118 53.1913 -35.1231 117 -35.1231C180.809 -35.1231 217.711 -29.3647 229.005 -20.5723C229.005 -20.5723 236.876 -6.97325 233 0C233 0 215.657 -16.355 117 -16.355C18.3428 -16.355 0 0 0 0Z"></path>
  <path fill="#A5A5A5" transform="matrix(1.87519 0 0 0.228503 257.85 474.705)" d="M-0.25 -87.9999C55.945 -87.9999 101.5 -48.601 101.5 6.10352e-05C101.5 48.6011 55.945 88.0001 -0.25 88.0001C-56.445 88.0001 -102 48.6011 -102 6.10352e-05C-102 -48.601 -56.445 -87.9999 -0.25 -87.9999Z" style="mix-blend-mode: multiply"></path>
</svg>