<?xml version="1.0" encoding="utf-8"?>
<svg xmlns="http://www.w3.org/2000/svg" xmlns:xlink="http://www.w3.org/1999/xlink" width="512" height="512">
  <path fill="none" stroke="black" stroke-width="7" stroke-linejoin="round" transform="translate(256 256)" d="M-159.578 4.4251L154.04 -15.0567C154.04 -15.0567 128.599 -213.181 -14.0351 -200.231C-21.5433 -199.549 -28.1628 -197.122 -34.1233 -193.514C-32.4076 -155.652 -50.7665 -120.36 -122.772 -121.792C-157.966 -57.475 -159.578 4.4251 -159.578 4.4251Z"></path>
  <path fill="#4A4848" transform="matrix(1.51892 -0.0943543 0.0180547 0.290645 252.117 219.197)" d="M-1.19209e-07 -116.5C64.3412 -116.5 116.5 -64.3412 116.5 3.47197e-06C116.5 64.3412 64.3412 116.5 -1.19209e-07 116.5C-64.3412 116.5 -116.5 64.3412 -116.5 -3.47197e-06C-116.5 -64.3412 -64.3412 -116.5 -1.19209e-07 -116.5Z"></path>
  <path fill="none" stroke="black" stroke-width="7" stroke-miterlimit="4" transform="translate(256 256)" d="M-4.87207 -39.1759C103.013 -45.8777 191.413 -36.1508 192.575 -17.4504C193.736 1.25 107.22 21.8425 -0.665321 28.5443C-108.551 35.2461 -196.951 25.5193 -198.112 6.81885C-199.274 -11.8816 -112.757 -32.4741 -4.87207 -39.1759Z"></path>
  <path fill="none" stroke="black" stroke-width="7" stroke-linejoin="round" transform="translate(256 256)" d="M-198.112 6.81885C-199.329 -12.7705 -190.006 -30.4373 -190.006 -30.4373C-178.757 -38.5916 -165.247 -45.3249 -147.231 -50.9084"></path>
  <path fill="none" stroke="black" stroke-width="7" stroke-linejoin="round" transform="translate(256 256)" d="M136.107 -68.4833C159.487 -64.915 175.303 -59.3626 183.689 -52.2475C183.689 -52.2475 195.802 -35.5629 193.594 -21.3602"></path>
  <path fill="none" stroke="black" stroke-width="5" stroke-miterlimit="4" transform="matrix(1.67677 -0.10416 0.10416 1.67677 248.143 60.388)" d="M-2.98023e-07 -16C8.83656 -16 16 -8.83656 16 -7.689e-06C16 8.83655 8.83656 16 -1.78814e-07 16C-8.83656 16 -16 8.83655 -16 -7.56979e-06C-16 -8.83656 -8.83656 -16 -2.98023e-07 -16Z"></path>
  <path fill="#E3CEC2" transform="matrix(1.67677 -0.10416 0.10416 1.67677 248.143 60.388)" d="M-2.98023e-07 -16C8.83656 -16 16 -8.83656 16 -7.689e-06C16 8.83655 8.83656 16 -1.78814e-07 16C-8.83656 16 -16 8.83655 -16 -7.56979e-06C-16 -8.83656 -8.83656 -16 -2.98023e-07 -16Z"></path>
  <path fill="#8D5A3E" transform="matrix(1.67677 -0.10416 0.10416 1.67677 73.9121 261.823)" d="M13.4248 0L200.462 0C200.462 0 192.659 -118.643 107.443 -116.213C102.958 -116.085 98.9354 -114.888 95.2612 -112.964C93.9558 -94.5482 87.7006 -70.8909 39.9489 -73.6262C16.6664 -36.715 13.4248 0 13.4248 0Z"></path>
  <path fill="#C9B1AA" transform="matrix(1.67677 -0.10416 0.0180547 0.290645 253.231 250.684)" d="M0 -116.5C64.3412 -116.5 116.5 -64.3412 116.5 1.90735e-06C116.5 64.3412 64.3412 116.5 0 116.5C-64.3412 116.5 -116.5 64.3412 -116.5 1.90735e-06C-116.5 -64.3412 -64.3412 -116.5 0 -116.5Z"></path>
  <defs>
    <linearGradient id="gradient_0" gradientUnits="userSpaceOnUse" x1="4.982996" y1="-447.75116" x2="4.982996" y2="84.5327">
      <stop offset="0" stop-color="#65524C"></stop>
      <stop offset="1" stop-color="#57443E"></stop>
    </linearGradient>
  </defs>
  <path fill="url(#gradient_0)" transform="matrix(1.346 -0.0836128 0.0144931 0.23331 253.231 250.684)" d="M2.38419e-07 -116.5C64.3412 -116.5 116.5 -64.3412 116.5 3.47197e-06C116.5 64.3412 64.3412 116.5 2.38419e-07 116.5C-64.3412 116.5 -116.5 64.3412 -116.5 -3.47197e-06C-116.5 -64.3412 -64.3412 -116.5 2.38419e-07 -116.5Z"></path>
  <clipPath id="cl_a8">
    <path d="M96.4224 260.425L410.04 240.943C410.04 240.943 384.599 42.8189 241.965 55.7694C234.457 56.4512 227.837 58.8781 221.877 62.4863C221.606 93.5016 213.582 133.821 133.228 134.208C98.0335 198.525 96.4224 260.425 96.4224 260.425Z"></path>
  </clipPath>
  <g clip-path="url(#cl_a8)">
    <defs>
      <linearGradient id="gradient_1" gradientUnits="userSpaceOnUse" x1="32.522026" y1="-30.252893" x2="34.201527" y2="145.56622">
        <stop offset="0" stop-color="#705C56"></stop>
        <stop offset="1" stop-color="#58453F"></stop>
        <stop offset="1" stop-color="black"></stop>
      </linearGradient>
    </defs>
    <path fill="url(#gradient_1)" transform="matrix(2.0547 -0.127637 0.0783271 1.26091 176.669 98.0618)" d="M0 -36C18.2254 -36 33 -19.8823 33 -1.52588e-05C33 19.8822 18.2254 36 0 36C-18.2254 36 -33 19.8822 -33 -1.52588e-05C-33 -19.8823 -18.2254 -36 0 -36Z"></path>
    <path fill="#714035" transform="matrix(0.94895 -0.683431 0.683431 0.94895 326.502 108.742)" d="M-46.3834 -19.9076C-36.9946 -19.9076 -29.3834 -27.5187 -29.3834 -36.9076L29.3834 -36.9076C29.3834 -27.5187 36.9946 -19.9076 46.3834 -19.9076L46.3834 19.9076C36.9946 19.9076 29.3834 27.5187 29.3834 36.9076L-29.3834 36.9076C-29.3834 27.5187 -36.9946 19.9076 -46.3834 19.9076L-46.3834 -19.9076Z"></path>
  </g>
  <clipPath id="cl_aa">
    <path d="M251.543 223.504C338.146 218.124 409.108 225.932 410.04 240.943C410.973 255.955 341.523 272.485 254.92 277.865C168.317 283.245 97.3549 275.437 96.4224 260.425C95.4899 245.414 164.94 228.883 251.543 223.504Z"></path>
  </clipPath>
  <g clip-path="url(#cl_aa)">
    <defs>
      <linearGradient id="gradient_2" gradientUnits="userSpaceOnUse" x1="11.548142" y1="-21.297836" x2="11.45083" y2="17.121515">
        <stop offset="0" stop-color="#857069"></stop>
        <stop offset="1" stop-color="#745F58"></stop>
      </linearGradient>
    </defs>
    <path fill="url(#gradient_2)" transform="matrix(5.38596 -0.334573 0.200898 3.23406 131.591 229.94)" d="M6.34529 -18.4774C15.1819 -18.4774 19.9785 -8.83656 25.4977 -1.49012e-07C40.8823 25.7165 8.83656 21.8364 -3.05777e-06 19.1869C-8.83656 16.5373 -16 8.83656 -16 0C-16 -8.83656 -2.49126 -18.4774 6.34529 -18.4774Z"></path>
  </g>
  <clipPath id="cl_ab">
    <path d="M173.85 52.6691C211.297 50.3428 242.917 68.7801 244.474 93.8498C246.032 118.92 216.937 141.128 179.489 143.455C142.042 145.781 110.422 127.344 108.865 102.274C107.307 77.2041 136.402 54.9953 173.85 52.6691Z"></path>
  </clipPath>
  <g clip-path="url(#cl_ab)">
    <clipPath id="cl_ac">
      <path d="M96.4224 260.425L410.04 240.943C410.04 240.943 384.599 42.8189 241.965 55.7694C234.457 56.4512 227.837 58.8781 221.877 62.4863C221.606 93.5016 213.582 133.821 133.228 134.208C98.0335 198.525 96.4224 260.425 96.4224 260.425Z"></path>
    </clipPath>
    <g clip-path="url(#cl_ac)">
      <defs>
        <linearGradient id="gradient_3" gradientUnits="userSpaceOnUse" x1="10.008254" y1="-5.26476" x2="10.008254" y2="29.383497">
          <stop offset="0" stop-color="#8A756E"></stop>
          <stop offset="1" stop-color="#756059"></stop>
        </linearGradient>
      </defs>
      <path fill="url(#gradient_3)" transform="matrix(5.38596 -0.334573 0.334573 5.38596 125.292 142.082)" d="M-1.90735e-06 -16C8.83655 -16 12.0102 -8.83656 16.201 -1.21452e-06C20.3918 8.83655 8.83655 16 -1.90735e-06 16C-8.83656 16 -16 8.83656 -16 0C-16 -8.83656 -8.83656 -16 -1.90735e-06 -16Z"></path>
    </g>
  </g>
  <path fill="#E3CEC2" transform="matrix(1.67677 -0.10416 0.10416 1.67677 57.8878 262.819)" d="M1.52588e-05 9.53674e-07C7.62939e-06 -11.6828 6.19049 -21.8345 6.19049 -21.8345C25.0053 -33.767 53.1913 -38.9666 117 -38.9666C180.809 -38.9666 217.711 -31.8567 229.005 -21.0006C229.005 -21.0006 236.876 -8.60993 233 0C233 0 215.657 -20.1937 117 -20.1937C18.3427 -20.1937 1.52588e-05 9.53674e-07 1.52588e-05 9.53674e-07Z"></path>
  <path fill="#A5A5A5" transform="matrix(1.83946 0 0 0.27098 257.539 473.728)" d="M-0.25 -88C55.945 -88 101.5 -48.6011 101.5 0C101.5 48.6011 55.945 88 -0.25 88C-56.445 88 -102 48.6011 -102 0C-102 -48.6011 -56.445 -88 -0.25 -88Z" style="mix-blend-mode: multiply"></path>
</svg>