<?xml version="1.0" encoding="utf-8"?>
<svg xmlns="http://www.w3.org/2000/svg" xmlns:xlink="http://www.w3.org/1999/xlink" width="512" height="512">
  <path fill="none" stroke="black" stroke-width="7" stroke-linejoin="round" transform="translate(256 256)" d="M-159.658 15.962L154.12 -0.74951C154.12 -0.74951 130.247 -202.518 -12.4959 -190.828C-20.0099 -190.212 -26.6506 -187.844 -32.6427 -184.289C-33.1613 -149.162 -49.9313 -111.284 -121.921 -113.352C-157.682 -49.3489 -159.658 15.962 -159.658 15.962Z"></path>
  <path fill="#4A4848" transform="matrix(1.51969 -0.0809373 0.0175396 0.329326 252.395 232.111)" d="M2.27708e-07 -116.5C64.3412 -116.5 116.5 -64.3412 116.5 7.62939e-06C116.5 64.3412 64.3412 116.5 1.07102e-08 116.5C-64.3412 116.5 -116.5 64.3412 -116.5 7.62939e-06C-116.5 -64.3412 -64.3412 -116.5 2.27708e-07 -116.5Z"></path>
  <path fill="none" stroke="black" stroke-width="7" stroke-miterlimit="4" transform="translate(256 256)" d="M-4.81206 -30.7603C103.128 -36.509 191.546 -23.9921 192.674 -2.80287C193.803 18.3864 107.215 40.224 -0.72533 45.9727C-108.666 51.7215 -197.083 39.2046 -198.212 18.0154C-199.34 -3.17387 -112.752 -25.0115 -4.81206 -30.7603Z"></path>
  <path fill="none" stroke="black" stroke-width="7" stroke-linejoin="round" transform="translate(256 256)" d="M-198.212 18.0154C-199.394 -4.1811 -189.814 -19.8541 -189.814 -19.8541C-178.752 -28.7274 -165.513 -36.0135 -147.973 -41.9668"></path>
  <path fill="none" stroke="black" stroke-width="7" stroke-linejoin="round" transform="translate(256 256)" d="M137.373 -57.2004C160.275 -52.7659 175.798 -46.2727 184.069 -38.178C184.069 -38.178 196.101 -22.3994 193.668 -6.87478"></path>
  <path fill="none" stroke="black" stroke-width="5" stroke-miterlimit="4" transform="matrix(1.67762 -0.0893486 0.0893486 1.67762 249.641 69.8452)" d="M-2.38419e-07 -16C8.83656 -16 16 -8.83656 16 -7.62939e-06C16 8.83655 8.83656 16 -2.38419e-07 16C-8.83656 16 -16 8.83655 -16 -7.62939e-06C-16 -8.83656 -8.83656 -16 -2.38419e-07 -16Z"></path>
  <path fill="#E3CEC2" transform="matrix(1.67762 -0.0893486 0.0893486 1.67762 249.641 69.8452)" d="M-2.38419e-07 -16C8.83656 -16 16 -8.83656 16 -7.62939e-06C16 8.83655 8.83656 16 -2.38419e-07 16C-8.83656 16 -16 8.83655 -16 -7.62939e-06C-16 -8.83656 -8.83656 -16 -2.38419e-07 -16Z"></path>
  <path fill="#8D5A3E" transform="matrix(1.67762 -0.0893486 0.0893486 1.67762 73.8207 273.161)" d="M13.4248 0L200.462 -1.16229e-06C200.462 -1.16229e-06 192.659 -120.686 107.443 -118.256C102.958 -118.128 98.9354 -116.931 95.2612 -115.007C93.3913 -97.2781 86.7004 -72.7603 39.9489 -75.6692C16.6664 -38.758 13.4248 0 13.4248 0Z"></path>
  <path fill="#C9B1AA" transform="matrix(1.67762 -0.0893486 0.0175396 0.329326 253.231 263.606)" d="M1.08499e-07 -116.5C64.3412 -116.5 116.5 -64.3412 116.5 0C116.5 64.3412 64.3412 116.5 -1.08499e-07 116.5C-64.3412 116.5 -116.5 64.3412 -116.5 0C-116.5 -64.3412 -64.3412 -116.5 1.08499e-07 -116.5Z"></path>
  <defs>
    <linearGradient id="gradient_0" gradientUnits="userSpaceOnUse" x1="4.982996" y1="-447.75116" x2="4.982996" y2="84.5327">
      <stop offset="0" stop-color="#65524C"></stop>
      <stop offset="1" stop-color="#57443E"></stop>
    </linearGradient>
  </defs>
  <path fill="url(#gradient_0)" transform="matrix(1.34669 -0.0717232 0.0140796 0.264361 253.231 263.606)" d="M2.38419e-07 -116.5C64.3412 -116.5 116.5 -64.3412 116.5 0C116.5 64.3412 64.3412 116.5 2.38419e-07 116.5C-64.3412 116.5 -116.5 64.3412 -116.5 0C-116.5 -64.3412 -64.3412 -116.5 2.38419e-07 -116.5Z"></path>
  <clipPath id="cl_15c">
    <path d="M96.3425 271.962L410.12 255.25C410.12 255.25 386.247 53.4817 243.504 65.1722C235.99 65.7876 229.349 68.156 223.357 71.7114C221.804 101.621 212.77 143.351 134.079 142.648C98.3176 206.651 96.3425 271.962 96.3425 271.962Z"></path>
  </clipPath>
  <g clip-path="url(#cl_15c)">
    <defs>
      <linearGradient id="gradient_1" gradientUnits="userSpaceOnUse" x1="32.522026" y1="-30.252893" x2="34.201527" y2="145.56622">
        <stop offset="0" stop-color="#705C56"></stop>
        <stop offset="1" stop-color="#58453F"></stop>
        <stop offset="1" stop-color="black"></stop>
      </linearGradient>
    </defs>
    <path fill="url(#gradient_1)" transform="matrix(2.05574 -0.109487 0.0671891 1.26155 177.838 106.886)" d="M0 -36C18.2254 -36 33 -19.8823 33 -7.62939e-06C33 19.8822 18.2254 36 0 36C-18.2254 36 -33 19.8822 -33 -7.62939e-06C-33 -19.8823 -18.2254 -36 0 -36Z"></path>
    <path fill="#714035" transform="matrix(0.954948 -0.675024 0.675024 0.954948 327.57 118.89)" d="M-46.3834 -19.9076C-36.9946 -19.9076 -29.3834 -27.5187 -29.3834 -36.9076L29.3835 -36.9076C29.3835 -27.5187 36.9946 -19.9076 46.3834 -19.9076L46.3834 19.9076C36.9946 19.9076 29.3835 27.5188 29.3835 36.9076L-29.3834 36.9076C-29.3834 27.5188 -36.9946 19.9076 -46.3834 19.9076L-46.3834 -19.9076Z"></path>
  </g>
  <clipPath id="cl_15e">
    <path d="M251.591 232.808C338.238 228.193 409.214 238.241 410.12 255.25C411.026 272.26 341.519 289.79 254.872 294.404C168.224 299.019 97.2484 288.971 96.3425 271.962C95.4366 254.953 164.944 237.423 251.591 232.808Z"></path>
  </clipPath>
  <g clip-path="url(#cl_15e)">
    <defs>
      <linearGradient id="gradient_2" gradientUnits="userSpaceOnUse" x1="11.548142" y1="-21.297836" x2="11.45083" y2="17.121515">
        <stop offset="0" stop-color="#857069"></stop>
        <stop offset="1" stop-color="#745F58"></stop>
      </linearGradient>
    </defs>
    <path fill="url(#gradient_2)" transform="matrix(5.38871 -0.286998 0.195167 3.66448 131.58 238.051)" d="M6.34529 -18.4774C15.1819 -18.4774 19.9785 -8.83656 25.4977 -1.49012e-07C40.8822 25.7165 8.83656 21.8364 -1.2219e-06 19.1869C-8.83656 16.5373 -16 8.83656 -16 0C-16 -8.83656 -2.49126 -18.4774 6.34529 -18.4774Z"></path>
  </g>
  <clipPath id="cl_15f">
    <path d="M175.419 61.4704C212.886 59.475 244.341 78.1908 245.677 103.273C247.013 128.356 217.723 150.307 180.257 152.302C142.79 154.298 111.334 135.582 109.998 110.499C108.662 85.4169 137.952 63.4659 175.419 61.4704Z"></path>
  </clipPath>
  <g clip-path="url(#cl_15f)">
    <clipPath id="cl_160">
      <path d="M96.3425 271.962L410.12 255.25C410.12 255.25 386.247 53.4817 243.504 65.1722C235.99 65.7876 229.349 68.156 223.357 71.7114C221.804 101.621 212.77 143.351 134.079 142.648C98.3176 206.651 96.3425 271.962 96.3425 271.962Z"></path>
    </clipPath>
    <g clip-path="url(#cl_160)">
      <defs>
        <linearGradient id="gradient_3" gradientUnits="userSpaceOnUse" x1="10.008254" y1="-5.26476" x2="10.008254" y2="29.383497">
          <stop offset="0" stop-color="#8A756E"></stop>
          <stop offset="1" stop-color="#756059"></stop>
        </linearGradient>
      </defs>
      <path fill="url(#gradient_3)" transform="matrix(5.38871 -0.286998 0.286998 5.38871 126.073 150.451)" d="M-5.96046e-08 -16C8.83656 -16 12.0102 -8.83656 16.201 -1.27487e-06C20.3918 8.83655 8.83656 16 5.96046e-08 16C-8.83656 16 -16 8.83656 -16 5.96046e-08C-16 -8.83656 -8.83656 -16 -5.96046e-08 -16Z"></path>
    </g>
  </g>
  <path fill="#E3CEC2" transform="matrix(1.67762 -0.0893486 0.0893486 1.67762 57.7883 274.015)" d="M-7.62939e-06 9.53674e-07C0 -13.2309 6.19048 -22.2436 6.19048 -22.2436C25.0053 -35.7572 53.1913 -41.6459 117 -41.6459C180.809 -41.6459 217.711 -33.5938 229.005 -21.2992C229.005 -21.2992 236.876 -9.75084 233 8.34465e-07C233 8.34465e-07 215.657 -22.8696 117 -22.8696C18.3427 -22.8696 -7.62939e-06 9.53674e-07 -7.62939e-06 9.53674e-07Z"></path>
  <path fill="#A5A5A5" transform="matrix(1.81456 0 0 0.300591 257.323 473.047)" d="M-0.25 -88C55.945 -88 101.5 -48.6011 101.5 0C101.5 48.6011 55.945 88 -0.25 88C-56.445 88 -102 48.6011 -102 0C-102 -48.6011 -56.445 -88 -0.25 -88Z" style="mix-blend-mode: multiply"></path>
</svg>