<?xml version="1.0" encoding="utf-8"?>
<svg xmlns="http://www.w3.org/2000/svg" xmlns:xlink="http://www.w3.org/1999/xlink" width="512" height="512">
  <path fill="none" stroke="black" stroke-width="7" stroke-linejoin="round" transform="translate(256 256)" d="M-159.872 -16.1721L154.335 -19.2362C154.335 -19.2362 139.315 -215.129 -3.80054 -209.651C-11.3341 -209.363 -18.0715 -207.285 -24.2124 -203.993C-23.4669 -164.695 -44.6562 -131.809 -116.488 -137.002C-154.996 -74.6131 -159.872 -16.1721 -159.872 -16.1721Z"></path>
  <path fill="#4A4848" transform="matrix(1.52177 -0.0148404 0.00247896 0.254199 253.764 206.794)" d="M0 -116.5C64.3412 -116.5 116.5 -64.3412 116.5 4.33996e-07C116.5 64.3412 64.3412 116.5 0 116.5C-64.3412 116.5 -116.5 64.3412 -116.5 -4.33996e-07C-116.5 -64.3412 -64.3412 -116.5 0 -116.5Z"></path>
  <path fill="none" stroke="black" stroke-width="7" stroke-miterlimit="4" transform="translate(256 256)" d="M-3.05749 -47.3183C105.031 -48.3724 192.783 -35.9682 192.942 -19.6127C193.102 -3.2573 105.608 10.8559 -2.47989 11.91C-110.568 12.9641 -198.32 0.559872 -198.479 -15.7956C-198.639 -32.151 -111.146 -46.2642 -3.05749 -47.3183Z"></path>
  <path fill="none" stroke="black" stroke-width="7" stroke-linejoin="round" transform="translate(256 256)" d="M-198.479 -15.7956C-198.646 -32.9285 -188.431 -51.9183 -188.431 -51.9183C-176.564 -58.6404 -162.44 -63.9773 -143.688 -68.0732"></path>
  <path fill="none" stroke="black" stroke-width="7" stroke-linejoin="round" transform="translate(256 256)" d="M138.477 -70.75C162.059 -66.5866 177.81 -60.9939 185.892 -54.3458C185.892 -54.3458 197.001 -36.1242 194.217 -23.2775"></path>
  <path fill="none" stroke="black" stroke-width="5" stroke-miterlimit="4" transform="matrix(1.67992 -0.0163827 0.0163827 1.67992 258.128 51.2841)" d="M0 -16C8.83656 -16 16 -8.83656 16 0C16 8.83656 8.83656 16 0 16C-8.83656 16 -16 8.83656 -16 0C-16 -8.83656 -8.83656 -16 0 -16Z"></path>
  <path fill="#E3CEC2" transform="matrix(1.67992 -0.0163827 0.0163827 1.67992 258.128 51.2841)" d="M0 -16C8.83656 -16 16 -8.83656 16 0C16 8.83656 8.83656 16 0 16C-8.83656 16 -16 8.83656 -16 0C-16 -8.83656 -8.83656 -16 0 -16Z"></path>
  <path fill="#8D5A3E" transform="matrix(1.67992 -0.0163827 0.0163827 1.67992 73.575 240.048)" d="M13.4248 -9.53674e-07L200.462 0C200.462 0 192.659 -116.685 107.443 -114.255C102.958 -114.127 98.9354 -112.929 95.2612 -111.006C94.5391 -91.9484 88.6589 -69.1078 39.9489 -71.6676C16.6664 -34.7563 13.4248 -9.53674e-07 13.4248 -9.53674e-07Z"></path>
  <path fill="#C9B1AA" transform="matrix(1.67992 -0.0163827 0.00247896 0.254199 253.231 238.296)" d="M-2.24856e-07 -116.5C64.3412 -116.5 116.5 -64.3412 116.5 -8.67993e-07C116.5 64.3412 64.3412 116.5 -2.51981e-07 116.5C-64.3412 116.5 -116.5 64.3412 -116.5 8.67993e-07C-116.5 -64.3412 -64.3412 -116.5 -2.24856e-07 -116.5Z"></path>
  <defs>
    <linearGradient id="gradient_0" gradientUnits="userSpaceOnUse" x1="4.982996" y1="-447.75116" x2="4.982996" y2="84.5327">
      <stop offset="0" stop-color="#65524C"></stop>
      <stop offset="1" stop-color="#57443E"></stop>
    </linearGradient>
  </defs>
  <path fill="url(#gradient_0)" transform="matrix(1.34853 -0.013151 0.00198995 0.204054 253.231 238.296)" d="M0 -116.5C64.3412 -116.5 116.5 -64.3412 116.5 8.49739e-06C116.5 64.3412 64.3412 116.5 0 116.5C-64.3412 116.5 -116.5 64.3412 -116.5 6.7614e-06C-116.5 -64.3412 -64.3412 -116.5 0 -116.5Z"></path>
  <clipPath id="cl_1f7">
    <path d="M96.1276 239.828L410.335 236.764C410.335 236.764 395.315 40.8707 252.199 46.349C244.666 46.6373 237.929 48.715 231.788 52.0068C230.887 84.0331 221.383 122.5 139.512 118.998C101.004 181.387 96.1276 239.828 96.1276 239.828Z"></path>
  </clipPath>
  <g clip-path="url(#cl_1f7)">
    <defs>
      <linearGradient id="gradient_1" gradientUnits="userSpaceOnUse" x1="32.522026" y1="-30.252893" x2="34.201527" y2="145.56622">
        <stop offset="0" stop-color="#705C56"></stop>
        <stop offset="1" stop-color="#58453F"></stop>
        <stop offset="1" stop-color="black"></stop>
      </linearGradient>
    </defs>
    <path fill="url(#gradient_1)" transform="matrix(2.05856 -0.0200752 0.0123196 1.26328 184.783 85.171)" d="M0 -36C18.2254 -36 33 -19.8823 33 0C33 19.8823 18.2254 36 0 36C-18.2254 36 -33 19.8823 -33 0C-33 -19.8823 -18.2254 -36 0 -36Z"></path>
    <path fill="#714035" transform="matrix(0.983372 -0.632901 0.632901 0.983372 333.852 103.668)" d="M-46.3834 -19.9076C-36.9946 -19.9076 -29.3834 -27.5187 -29.3834 -36.9076L29.3835 -36.9076C29.3835 -27.5187 36.9946 -19.9076 46.3835 -19.9076L46.3835 19.9076C36.9946 19.9076 29.3835 27.5187 29.3835 36.9076L-29.3834 36.9076C-29.3834 27.5187 -36.9946 19.9076 -46.3834 19.9076L-46.3834 -19.9076Z"></path>
  </g>
  <clipPath id="cl_1f9">
    <path d="M252.999 214.524C339.765 213.677 410.207 223.635 410.335 236.764C410.463 249.893 340.229 261.222 253.463 262.068C166.697 262.914 96.2556 252.957 96.1276 239.828C95.9996 226.699 166.233 215.37 252.999 214.524Z"></path>
  </clipPath>
  <g clip-path="url(#cl_1f9)">
    <defs>
      <linearGradient id="gradient_2" gradientUnits="userSpaceOnUse" x1="11.548142" y1="-21.297836" x2="11.45083" y2="17.121515">
        <stop offset="0" stop-color="#857069"></stop>
        <stop offset="1" stop-color="#745F58"></stop>
      </linearGradient>
    </defs>
    <path fill="url(#gradient_2)" transform="matrix(5.39609 -0.0526231 0.0275839 2.82852 132.877 214.811)" d="M6.3453 -18.4774C15.1819 -18.4774 19.9785 -8.83656 25.4977 -1.10269e-06C40.8822 25.7165 8.83656 21.8364 -1.2219e-06 19.1869C-8.83656 16.5373 -16 8.83655 -16 -9.53674e-07C-16 -8.83656 -2.49126 -18.4774 6.3453 -18.4774Z"></path>
  </g>
  <clipPath id="cl_1fa">
    <path d="M184.339 39.6928C221.857 39.327 252.47 59.3916 252.715 84.5085C252.96 109.625 222.744 130.283 185.226 130.649C147.708 131.015 117.095 110.95 116.85 85.8334C116.605 60.7166 146.821 40.0587 184.339 39.6928Z"></path>
  </clipPath>
  <g clip-path="url(#cl_1fa)">
    <clipPath id="cl_1fb">
      <path d="M96.1276 239.828L410.335 236.764C410.335 236.764 395.315 40.8707 252.199 46.349C244.666 46.6373 237.929 48.715 231.788 52.0068C230.887 84.0331 221.383 122.5 139.512 118.998C101.004 181.387 96.1276 239.828 96.1276 239.828Z"></path>
    </clipPath>
    <g clip-path="url(#cl_1fb)">
      <defs>
        <linearGradient id="gradient_3" gradientUnits="userSpaceOnUse" x1="10.008254" y1="-5.26476" x2="10.008254" y2="29.383497">
          <stop offset="0" stop-color="#8A756E"></stop>
          <stop offset="1" stop-color="#756059"></stop>
        </linearGradient>
      </defs>
      <path fill="url(#gradient_3)" transform="matrix(5.39609 -0.0526231 0.0526231 5.39609 131.175 126.446)" d="M1.49012e-08 -16C8.83656 -16 12.0102 -8.83656 16.201 -1.19943e-06C20.3918 8.83655 8.83656 16 -1.49012e-08 16C-8.83656 16 -16 8.83656 -16 -1.49012e-08C-16 -8.83656 -8.83656 -16 1.49012e-08 -16Z"></path>
    </g>
  </g>
  <path fill="#E3CEC2" transform="matrix(1.67992 -0.0163827 0.0163827 1.67992 57.5206 240.204)" d="M7.62939e-06 9.53674e-07C7.62939e-06 -10.1986 6.19049 -21.4423 6.19049 -21.4423C25.0053 -31.8589 53.1913 -36.398 117 -36.398C180.809 -36.398 217.711 -30.1912 229.005 -20.7144C229.005 -20.7144 236.876 -7.51613 233 0C233 0 215.657 -17.6283 117 -17.6283C18.3428 -17.6283 7.62939e-06 9.53674e-07 7.62939e-06 9.53674e-07Z"></path>
  <path fill="#A5A5A5" transform="matrix(1.86334 0 0 0.242593 257.747 474.381)" d="M-0.25 -88C55.945 -88 101.5 -48.6011 101.5 0C101.5 48.6011 55.945 88 -0.25 88C-56.445 88 -102 48.6011 -102 0C-102 -48.6011 -56.445 -88 -0.25 -88Z" style="mix-blend-mode: multiply"></path>
</svg>