<?xml version="1.0" encoding="utf-8"?>
<svg xmlns="http://www.w3.org/2000/svg" xmlns:xlink="http://www.w3.org/1999/xlink" width="512" height="512">
  <path fill="none" stroke="black" stroke-width="7" stroke-linejoin="round" transform="translate(256 256)" d="M-159.818 -14.1058L154.281 -22.893C154.281 -22.893 135.701 -218.269 -7.29088 -210.185C-14.818 -209.759 -21.5163 -207.559 -27.5963 -204.156C-26.0993 -164.833 -46.7218 -131.611 -118.637 -135.495C-156.002 -72.4148 -159.818 -14.1058 -159.818 -14.1058Z"></path>
  <path fill="#4A4848" transform="matrix(1.52125 -0.0425579 0.00704252 0.251737 253.19 205.994)" d="M-5.42495e-08 -116.5C64.3412 -116.5 116.5 -64.3412 116.5 -1.69948e-05C116.5 64.3412 64.3412 116.5 5.42495e-08 116.5C-64.3412 116.5 -116.5 64.3412 -116.5 -1.35228e-05C-116.5 -64.3412 -64.3412 -116.5 -5.42495e-08 -116.5Z"></path>
  <path fill="none" stroke="black" stroke-width="7" stroke-miterlimit="4" transform="translate(256 256)" d="M-3.58915 -47.8268C104.462 -50.8496 192.422 -40.1697 192.875 -23.9726C193.328 -7.77556 106.103 7.80522 -1.94824 10.828C-109.999 13.8508 -197.959 3.17094 -198.412 -13.0261C-198.865 -29.2232 -111.64 -44.804 -3.58915 -47.8268Z"></path>
  <path fill="none" stroke="black" stroke-width="7" stroke-linejoin="round" transform="translate(256 256)" d="M-198.412 -13.0261C-198.887 -29.9931 -189.022 -49.2836 -189.022 -49.2836C-177.266 -56.1663 -163.223 -61.7155 -144.518 -66.118"></path>
  <path fill="none" stroke="black" stroke-width="7" stroke-linejoin="round" transform="translate(256 256)" d="M137.445 -73.9283C161.124 -70.2357 176.989 -64.9819 185.194 -58.5406C185.194 -58.5406 196.627 -40.4659 194.086 -27.647"></path>
  <path fill="none" stroke="black" stroke-width="5" stroke-miterlimit="4" transform="matrix(1.67934 -0.0469807 0.0469807 1.67934 254.726 50.6418)" d="M2.38419e-07 -16C8.83656 -16 16 -8.83655 16 7.62939e-06C16 8.83656 8.83656 16 2.38419e-07 16C-8.83656 16 -16 8.83656 -16 7.62939e-06C-16 -8.83655 -8.83656 -16 2.38419e-07 -16Z"></path>
  <path fill="#E3CEC2" transform="matrix(1.67934 -0.0469807 0.0469807 1.67934 254.726 50.6419)" d="M2.08616e-07 -16C8.83656 -16 16 -8.83656 16 -2.98023e-08C16 8.83656 8.83656 16 2.68221e-07 16C-8.83656 16 -16 8.83656 -16 2.98023e-08C-16 -8.83656 -8.83656 -16 2.08616e-07 -16Z"></path>
  <path fill="#8D5A3E" transform="matrix(1.67934 -0.0469807 0.0469807 1.67934 73.6367 242.525)" d="M13.4248 -9.53674e-07L200.462 0C200.462 0 192.659 -116.559 107.443 -114.129C102.958 -114.001 98.9354 -112.803 95.2612 -110.88C94.578 -91.7822 88.7204 -68.9937 39.9489 -71.5418C16.6664 -34.6306 13.4248 -9.53674e-07 13.4248 -9.53674e-07Z"></path>
  <path fill="#C9B1AA" transform="matrix(1.67934 -0.0469807 0.00704252 0.251737 253.231 237.501)" d="M-1.19209e-07 -116.5C64.3412 -116.5 116.5 -64.3412 116.5 9.36538e-06C116.5 64.3412 64.3412 116.5 -1.19209e-07 116.5C-64.3412 116.5 -116.5 64.3412 -116.5 5.89341e-06C-116.5 -64.3412 -64.3412 -116.5 -1.19209e-07 -116.5Z"></path>
  <defs>
    <linearGradient id="gradient_0" gradientUnits="userSpaceOnUse" x1="4.982996" y1="-447.75116" x2="4.982996" y2="84.5327">
      <stop offset="0" stop-color="#65524C"></stop>
      <stop offset="1" stop-color="#57443E"></stop>
    </linearGradient>
  </defs>
  <path fill="url(#gradient_0)" transform="matrix(1.34807 -0.037713 0.00565327 0.202078 253.231 237.501)" d="M0 -116.5C64.3412 -116.5 116.5 -64.3412 116.5 -1.73599e-06C116.5 64.3412 64.3412 116.5 0 116.5C-64.3412 116.5 -116.5 64.3412 -116.5 1.73599e-06C-116.5 -64.3412 -64.3412 -116.5 0 -116.5Z"></path>
  <clipPath id="cl_62">
    <path d="M96.1816 241.894L410.281 233.107C410.281 233.107 391.701 37.7312 248.709 45.8155C241.182 46.241 234.484 48.4411 228.404 51.8442C228.154 83.9478 219.387 122.493 137.363 120.505C99.9983 183.585 96.1816 241.894 96.1816 241.894Z"></path>
  </clipPath>
  <g clip-path="url(#cl_62)">
    <defs>
      <linearGradient id="gradient_1" gradientUnits="userSpaceOnUse" x1="32.522026" y1="-30.252893" x2="34.201527" y2="145.56622">
        <stop offset="0" stop-color="#705C56"></stop>
        <stop offset="1" stop-color="#58453F"></stop>
        <stop offset="1" stop-color="black"></stop>
      </linearGradient>
    </defs>
    <path fill="url(#gradient_1)" transform="matrix(2.05785 -0.0575697 0.035329 1.26285 182.011 85.8591)" d="M0 -36C18.2254 -36 33 -19.8822 33 0C33 19.8822 18.2254 36 0 36C-18.2254 36 -33 19.8822 -33 0C-33 -19.8822 -18.2254 -36 0 -36Z"></path>
    <path fill="#714035" transform="matrix(0.97168 -0.650708 0.650708 0.97168 331.392 101.637)" d="M-46.3834 -19.9076C-36.9946 -19.9076 -29.3834 -27.5187 -29.3834 -36.9076L29.3834 -36.9076C29.3834 -27.5187 36.9946 -19.9076 46.3834 -19.9076L46.3834 19.9076C36.9946 19.9076 29.3834 27.5187 29.3834 36.9076L-29.3834 36.9076C-29.3834 27.5187 -36.9946 19.9076 -46.3834 19.9076L-46.3834 -19.9076Z"></path>
  </g>
  <clipPath id="cl_64">
    <path d="M252.573 213.958C339.309 211.532 409.917 220.105 410.281 233.107C410.645 246.109 340.626 258.616 253.89 261.043C167.154 263.469 96.5453 254.896 96.1816 241.894C95.8178 228.892 165.837 216.385 252.573 213.958Z"></path>
  </clipPath>
  <g clip-path="url(#cl_64)">
    <defs>
      <linearGradient id="gradient_2" gradientUnits="userSpaceOnUse" x1="11.548142" y1="-21.297836" x2="11.45083" y2="17.121515">
        <stop offset="0" stop-color="#857069"></stop>
        <stop offset="1" stop-color="#745F58"></stop>
      </linearGradient>
    </defs>
    <path fill="url(#gradient_2)" transform="matrix(5.39423 -0.150907 0.0783635 2.80113 132.475 216.442)" d="M6.34529 -18.4774C15.1819 -18.4774 19.9785 -8.83656 25.4977 -1.49012e-07C40.8822 25.7165 8.83655 21.8364 -3.11137e-06 19.1869C-8.83656 16.5373 -16 8.83656 -16 0C-16 -8.83656 -2.49126 -18.4774 6.34529 -18.4774Z"></path>
  </g>
  <clipPath id="cl_65">
    <path d="M180.739 40.3966C218.244 39.3474 249.218 58.851 249.92 83.9593C250.622 109.068 220.788 130.272 183.283 131.322C145.778 132.371 114.804 112.867 114.102 87.7589C113.399 62.6506 143.234 41.4458 180.739 40.3966Z"></path>
  </clipPath>
  <g clip-path="url(#cl_65)">
    <clipPath id="cl_66">
      <path d="M96.1816 241.894L410.281 233.107C410.281 233.107 391.701 37.7312 248.709 45.8155C241.182 46.241 234.484 48.4411 228.404 51.8442C228.154 83.9478 219.387 122.493 137.363 120.505C99.9983 183.585 96.1816 241.894 96.1816 241.894Z"></path>
    </clipPath>
    <g clip-path="url(#cl_66)">
      <defs>
        <linearGradient id="gradient_3" gradientUnits="userSpaceOnUse" x1="10.008254" y1="-5.26476" x2="10.008254" y2="29.383497">
          <stop offset="0" stop-color="#8A756E"></stop>
          <stop offset="1" stop-color="#756059"></stop>
        </linearGradient>
      </defs>
      <path fill="url(#gradient_3)" transform="matrix(5.39423 -0.150907 0.150907 5.39423 129.164 128.103)" d="M0 -16C8.83656 -16 12.0102 -8.83656 16.201 -3.12187e-06C20.3918 8.83655 8.83656 16 0 16C-8.83656 16 -16 8.83655 -16 -1.90735e-06C-16 -8.83656 -8.83656 -16 0 -16Z"></path>
    </g>
  </g>
  <path fill="#E3CEC2" transform="matrix(1.67934 -0.0469807 0.0469807 1.67934 57.5878 242.974)" d="M7.62939e-06 1.43051e-06C0 -10.1034 6.1905 -21.4171 6.1905 -21.4171C25.0053 -31.7364 53.1913 -36.2331 117 -36.2331C180.809 -36.2331 217.711 -30.0843 229.005 -20.696C229.005 -20.696 236.876 -7.44592 233 -9.53674e-07C233 -9.53674e-07 215.657 -17.4636 117 -17.4636C18.3428 -17.4636 7.62939e-06 1.43051e-06 7.62939e-06 1.43051e-06Z"></path>
  <path fill="#A5A5A5" transform="matrix(1.86487 0 0 0.24077 257.76 474.423)" d="M-0.25 -87.9999C55.945 -87.9999 101.5 -48.601 101.5 6.10352e-05C101.5 48.6011 55.945 88.0001 -0.25 88.0001C-56.445 88.0001 -102 48.6011 -102 6.10352e-05C-102 -48.601 -56.445 -87.9999 -0.25 -87.9999Z" style="mix-blend-mode: multiply"></path>
</svg>