<?xml version="1.0" encoding="utf-8"?>
<svg xmlns="http://www.w3.org/2000/svg" xmlns:xlink="http://www.w3.org/1999/xlink" width="512" height="512">
  <path fill="none" stroke="black" stroke-width="6" stroke-linejoin="round" transform="matrix(1.8 0 0 1.52279 359.051 178.5)" d="M-11.3382 -16.0109C-7.85856 -15.6278 -5.27103 -15.343 -1.96192 -14.9787C5.07187 -14.2044 11.8876 -9.43374 10.6558 6.20068C9.42396 21.8351 7.12747 50.9823 6.43915 59.7186C3.06922 102.49 -60.1539 95.4878 -56.7839 52.7163C-55.938 41.9794 -54.3829 22.2426 -53.4034 9.81068C-52.4239 -2.6212 -44.7904 -19.6935 -28.7798 -17.931C-27.4433 -17.7838 -26.1921 -17.6461 -25.0171 -17.5167"></path>
  <path fill="none" stroke="black" stroke-width="6" stroke-linejoin="round" transform="matrix(1.8 0 0 1.64041 359.051 260.746)" d="M-55.7008 -8.8045C-44.8886 -49.8749 16.4865 -32.688 5.67431 8.38245C1.38226 24.686 -5.77771 51.8834 -10.2258 68.7796C-11.7886 74.7161 -22.8842 83.3163 -45.4152 77.2868C-67.9462 71.2572 -73.401 58.4306 -72.1828 53.8034C-67.7087 36.8082 -58.8682 3.22718 -55.7008 -8.8045Z"></path>
  <path fill="#503F7E" transform="matrix(1.8 0 0 1.52279 359.051 178.5)" d="M-53.4034 9.81068C-52.4239 -2.62119 -44.7904 -19.6935 -28.7798 -17.931C-12.7693 -16.1684 -8.99573 -15.753 -1.96192 -14.9787C5.07187 -14.2044 11.8876 -9.43373 10.6558 6.20068C9.42396 21.8351 7.12748 50.9823 6.43915 59.7186C3.06923 102.49 -60.1539 95.4878 -56.7839 52.7163C-55.938 41.9794 -54.3829 22.2426 -53.4034 9.81068Z"></path>
  <path fill="#503F7E" transform="matrix(1.8 0 0 1.64041 359.051 260.746)" d="M-55.7008 -8.8045C-44.8886 -49.8749 16.4865 -32.688 5.67431 8.38245C1.38226 24.686 -5.77771 51.8834 -10.2258 68.7796C-11.7886 74.7161 -22.8842 83.3163 -45.4152 77.2868C-67.9462 71.2572 -73.401 58.4306 -72.1828 53.8034C-67.7087 36.8082 -58.8682 3.22718 -55.7008 -8.8045Z"></path>
  <path fill="none" stroke="black" stroke-width="5" stroke-linejoin="round" transform="matrix(1.67985 0 0 1.8 269.501 356.202)" d="M-47.8335 -14.992C-30.3273 -19.7231 -2.33191 -11.001 -2.46764 34.4958C-2.08611 48.0351 -6.84659 71.6518 -23.7514 76.1767C-34.8731 73.2033 -47.5575 70.7578 -63.3479 66.3974C-71.2944 55.2886 -62.6679 49.6155 -63.1515 33.4712C-63.6098 -11.1602 -65.3396 -10.2608 -47.8335 -14.992Z"></path>
  <path fill="#453279" transform="matrix(1.67985 0 0 1.8 269.501 356.202)" d="M-47.8335 -14.992C-30.3273 -19.7231 -2.33191 -11.001 -2.46764 34.4958C-2.08611 48.0351 -6.84659 71.6518 -23.7514 76.1767C-34.8731 73.2033 -47.5575 70.7578 -63.3479 66.3974C-71.2944 55.2886 -62.6679 49.6155 -63.1515 33.4712C-63.6098 -11.1602 -65.3396 -10.2608 -47.8335 -14.992Z"></path>
  <path fill="none" stroke="black" stroke-width="5" stroke-linejoin="round" transform="matrix(1.67985 0 0 1.8 191.63 362.835)" d="M43.9624 -14.3493C62.1841 -14.0073 75.0374 -9.59329 74.0165 37.786C74.2251 56.6701 76.7908 69.2151 61.2071 75.6303C45.7335 76.0018 35.0465 76.2082 20.21 75.8679C5.48613 69.0799 10.3516 52.1879 10.8387 35.6972C11.2241 -10.7908 25.7407 -14.6912 43.9624 -14.3493Z"></path>
  <path fill="none" stroke="black" stroke-width="5" stroke-linejoin="round" transform="matrix(1.79976 0.0276995 -0.0293645 1.69771 274.681 288.558)" d="M-11.3238 -80.2543C25.8014 -80.2543 54.9476 -94.6926 58.9092 -40.8672C62.8708 12.9582 37.0524 74.7499 0.0572909 75.3534C-14.1177 75.5847 -17.7665 75.6442 -48.2096 76.1409C-78.6526 76.6376 -84.25 60.12 -84.25 1.90735e-06C-86.6294 -86.0849 -88.6034 -78.4854 -12.7475 -80.2208"></path>
  <path fill="#503F7E" transform="matrix(1.67985 0 0 1.8 191.63 362.835)" d="M43.9624 -14.3493C62.1841 -14.0073 75.0374 -9.59329 74.0165 37.786C74.2251 56.6701 76.7908 69.2151 61.2071 75.6303C45.7335 76.0018 35.0465 76.2082 20.21 75.8679C5.48613 69.0799 10.3516 52.1879 10.8387 35.6972C11.2241 -10.7908 25.7407 -14.6912 43.9624 -14.3493Z"></path>
  <path fill="none" stroke="black" stroke-width="5" stroke-linejoin="round" transform="matrix(1.53139 0 0 1.39334 226.982 140.001)" d="M0 -40C20.9426 -40 35.0096 -26.8589 47.8597 -2.20018C49.1253 -3.81499 50.3123 -3.57653 51.1974 -3.11682C52.0824 -2.65711 52.5509 -1.60562 52.2206 -0.665342C53.8523 0.0631991 55.2854 1.47333 55.8775 2.67698C56.9197 4.79566 57.6743 10.5072 53.7931 11.8212C58.5977 31.9882 20.3682 22.0914 -1.32962e-05 22.0914C-20.2357 22.0914 -45.0732 28.3281 -41.8836 12.9784C-44.6787 11.8212 -48.2008 8.95144 -46.5316 4.29175C-45.7036 1.98006 -43.8185 0.567089 -42.3936 0.566997C-41.0392 0.56691 -42.9934 -2.2 -40.2188 -3.81491C-39.0195 -4.51291 -37.7273 -4.43211 -36.6068 -4.12355C-28.0141 -23.7311 -20.4124 -40 0 -40Z"></path>
  <path fill="#503F7E" transform="matrix(1.79976 0.0276995 -0.0293645 1.69771 274.681 288.558)" d="M-11.3238 -80.2543C25.8014 -80.2543 54.9476 -94.6926 58.9092 -40.8672C62.8708 12.9582 37.0524 74.7499 0.0572909 75.3534C-14.1177 75.5847 -17.7665 75.6442 -48.2096 76.1409C-78.6526 76.6376 -84.25 60.12 -84.25 1.90735e-06C-86.6442 -86.62 -88.6279 -78.3873 -11.3238 -80.2543Z"></path>
  <clipPath id="cl_3ab">
    <path d="M256.658 151.996C323.474 153.024 376.354 129.319 381.904 220.809C387.453 312.299 339.172 416.488 272.572 416.488C247.053 416.488 240.485 416.488 185.68 416.488C130.875 416.488 121.286 388.291 123.052 286.225C121.286 139.102 117.474 153.024 256.658 151.996Z"></path>
  </clipPath>
  <g clip-path="url(#cl_3ab)">
    <path fill="#655494" transform="matrix(1.8 0 0 1.8 311.807 270.637)" d="M-0.158648 -48.2655C25.513 -48.2655 46.324 -26.6563 46.324 0C46.324 26.6563 25.513 48.2655 -0.158648 48.2655C-25.8303 48.2655 -46.6413 26.6563 -46.6413 0C-46.6413 -26.6563 -25.8303 -48.2655 -0.158648 -48.2655Z"></path>
  </g>
  <path fill="none" stroke="black" stroke-width="2" stroke-linejoin="round" transform="matrix(3.88825 -0.763212 0.691401 3.5224 233.781 61.7528)" d="M-4.34758 -5.25471C-4.34759 -11.5047 3.66088 -11.5047 3.66088 -5.25472C3.66088 0.995284 3.66088 12.5 3.66088 12.5L-4.57314 12.5C-4.57314 12.5 -4.34758 0.995284 -4.34758 -5.25471Z"></path>
  <path fill="none" stroke="black" stroke-width="2" stroke-linejoin="round" transform="matrix(3.5224 -0.691401 0.691401 3.5224 199.573 67.1656)" d="M-5.1645 -6.50117C-5.16451 -12.7512 6 -12.7512 6 -6.50117C6 -0.251166 6 12.5 6 12.5L-6 12.5C-6 12.5 -5.1645 -0.251167 -5.1645 -6.50117Z"></path>
  <path fill="#453279" transform="matrix(3.88825 -0.763212 0.691401 3.5224 233.781 61.7528)" d="M-4.34758 -5.25471C-4.34759 -11.5047 3.66088 -11.5047 3.66088 -5.25472C3.66088 0.995284 3.66088 12.5 3.66088 12.5L-4.57314 12.5C-4.57314 12.5 -4.34758 0.995284 -4.34758 -5.25471Z"></path>
  <path fill="none" stroke="#161616" stroke-width="0.5" stroke-linecap="round" stroke-linejoin="round" transform="matrix(3.88825 -0.763212 0.691401 3.5224 228.988 42.2212)" d="M3.59179e-06 1.51652L2.87701e-06 10.5382"></path>
  <path fill="#503F7E" transform="matrix(3.5224 -0.691401 0.691401 3.5224 199.573 67.1656)" d="M-5.1645 -6.50116C-5.1645 -12.7512 6 -12.7512 6 -6.50116C6 -0.251162 6 12.5 6 12.5L-6 12.5C-6 12.5 -5.1645 -0.251163 -5.1645 -6.50116Z"></path>
  <path fill="none" stroke="#161616" stroke-width="0.5" stroke-linecap="round" stroke-linejoin="round" transform="matrix(3.5224 -0.691401 0.691401 3.5224 199.787 47.1472)" d="M1.85391e-08 3.8412e-06L3.83324e-06 10.5382"></path>
  <path fill="#503F7E" transform="matrix(1.53139 0 0 1.39334 226.982 140.001)" d="M0 -40C20.9426 -40 35.0096 -26.8589 47.8597 -2.20018C49.1253 -3.81499 50.3123 -3.57653 51.1974 -3.11682C52.0824 -2.65711 52.5509 -1.60562 52.2206 -0.665342C53.8523 0.0631991 55.2854 1.47333 55.8775 2.67698C56.9197 4.79566 57.6743 10.5072 53.7931 11.8212C58.5977 31.9882 20.3682 22.0914 -1.32962e-05 22.0914C-20.2357 22.0914 -45.0732 28.3281 -41.8836 12.9784C-44.6787 11.8212 -48.2008 8.95144 -46.5316 4.29175C-45.7036 1.98006 -43.8185 0.567089 -42.3936 0.566997C-41.0392 0.56691 -42.9934 -2.2 -40.2188 -3.81491C-39.0195 -4.51291 -37.7273 -4.43211 -36.6068 -4.12355C-28.0141 -23.7311 -20.4124 -40 0 -40Z"></path>
  <clipPath id="cl_3ac">
    <path d="M226.982 84.2673C259.053 84.2673 280.595 102.577 300.273 136.935C302.211 134.685 304.029 135.018 305.384 135.658C306.74 136.299 307.457 137.764 306.951 139.074C309.45 140.089 311.645 142.054 312.552 143.731C314.148 146.683 315.303 154.641 309.359 156.472C316.717 184.572 258.173 170.782 226.981 170.782C195.993 170.782 157.957 179.472 162.842 158.084C158.561 156.472 153.168 152.473 155.724 145.981C156.992 142.76 159.879 140.791 162.061 140.791C164.135 140.791 161.142 136.936 165.391 134.686C167.228 133.713 169.206 133.826 170.922 134.255C184.081 106.936 195.722 84.2673 226.982 84.2673Z"></path>
  </clipPath>
  <g clip-path="url(#cl_3ac)">
    <path fill="#7463A5" transform="matrix(1.8 2.98023e-08 0.00759348 1.8 222.985 131.632)" d="M1.90735e-06 -5.5C3.866 -5.5 7 -2.92564 7 0.25C7 3.42564 3.866 6 1.90735e-06 6C-3.86599 6 -7 3.42564 -7 0.25C-7 -2.92564 -3.86599 -5.5 1.90735e-06 -5.5Z"></path>
    <path fill="#7463A5" transform="matrix(1.83618 3.04014e-08 0.00759348 1.8 275.534 123.485)" d="M0 -5.00001C2.76142 -5.00001 5 -2.6495 5 0.249992C5 3.14949 2.76142 5.49999 0 5.49999C-2.76142 5.49999 -5 3.14949 -5 0.249992C-5 -2.6495 -2.76142 -5.00001 0 -5.00001Z"></path>
    <path fill="none" stroke="#131212" stroke-width="1" stroke-linecap="round" stroke-linejoin="round" transform="matrix(2.30699 -0.373724 0.274137 1.69224 253.765 116.79)" d="M4.88246e-07 -4.14104e-07L2.92891 -0.714567"></path>
    <path fill="none" stroke="#131212" stroke-width="1" stroke-linecap="round" stroke-linejoin="round" transform="matrix(2.30699 -0.373724 0.274137 1.69224 232.014 115.96)" d="M2.98023e-07 -1.48459e-07L4.25731 1.79213"></path>
    <path fill="#131212" transform="matrix(2.47104 -0.400299 0.405754 2.50471 245.799 119.07)" d="M-4.99596e-07 -4.03018e-06L1.9614 0.352734L0.915089 1.42246L-4.99596e-07 -4.03018e-06Z"></path>
    <path fill="none" stroke="#131212" stroke-width="0.5" stroke-linecap="round" stroke-linejoin="round" transform="matrix(1.93759 -0.313883 0.31816 1.96399 248.859 122.605)" d="M1.18428e-07 -0.711224L-3.72341e-06 1.1102"></path>
    <path fill="#32225E" transform="matrix(1.74285 0.441491 -0.424043 1.74552 242.647 111.204)" d="M-1.93607e-06 -1.92716C1.6285 -1.92716 2.94867 -1.06434 2.94867 -4.39386e-08C2.94867 1.06434 1.6285 1.92716 -1.87863e-06 1.92716C-1.62851 1.92716 -2.94867 1.06434 -2.94867 4.39386e-08C-2.94867 -1.06434 -1.62851 -1.92716 -1.93607e-06 -1.92716Z"></path>
    <path fill="#32225E" transform="matrix(1.71213 0.433708 -0.412468 1.69787 253.84 110.33)" d="M-5.72205e-06 -1.89919C0.889983 -1.89919 1.61146 -1.04889 1.61146 -2.40127e-08C1.61146 1.04889 0.889983 1.89919 -5.72205e-06 1.89919C-0.889995 1.89919 -1.61147 1.04889 -1.61147 2.40127e-08C-1.61147 -1.04889 -0.889995 -1.89919 -5.72205e-06 -1.89919Z"></path>
  </g>
  <path fill="none" stroke="black" stroke-width="6" stroke-linejoin="round" transform="matrix(1.8 0 0 1.8 170.253 271.083)" d="M3.61619 30.5925C-35.7062 24.9479 -26.6836 -37.9078 12.6389 -32.2633C29.3869 -29.8591 56.3735 -27.6447 73.81 -25.7918C79.9364 -25.1408 90.2893 -15.4828 88.1026 7.65571C85.9158 30.7943 74.1566 38.1025 69.3815 37.5951C51.8428 35.7314 15.9759 32.3667 3.61619 30.5925Z"></path>
  <path fill="none" stroke="black" stroke-width="6" stroke-linecap="round" stroke-linejoin="bevel" transform="matrix(1.8 0 0 1.67094 170.253 180.836)" d="M37.1673 32.4544C38.3179 40.2774 39.3087 47.0147 39.8202 50.492C46.0601 92.9193 -16.6638 103.582 -22.9037 61.1544C-24.4701 50.5038 -27.3495 30.9258 -29.1632 18.5939C-30.9769 6.26205 -27.3835 -12.4091 -11.5017 -15.1197C-9.85991 -15.3999 -8.34782 -15.658 -6.94847 -15.8968"></path>
  <path fill="#503F7E" transform="matrix(1.8 0 0 1.67094 170.253 180.836)" d="M-29.1632 18.5939C-30.9769 6.26204 -27.3835 -12.4091 -11.5017 -15.1197C4.37999 -17.8302 8.12321 -18.4691 15.1004 -19.6599C22.0776 -20.8507 29.7315 -18.104 32.0124 -2.59537C34.2933 12.9133 38.5456 41.826 39.8202 50.492C45.3089 87.8115 -17.415 98.4739 -22.9037 61.1544C-24.4701 50.5038 -27.3495 30.9258 -29.1632 18.5939Z"></path>
  <path fill="none" stroke="black" stroke-width="4" stroke-linejoin="round" transform="matrix(1.8 0 0 1.8 352.158 173.437)" d="M-11.7479 -12.9046C-11.318 -13.5165 -10.7601 -14.1187 -10.0572 -14.7065C-5.47351 -18.5399 3.93804 -16.1165 4.43081 -14.7065C7.46664 -16.1165 10.8961 -16.6614 15.0174 -13.9738C19.1387 -11.2862 16.2386 -4.86793 16.6118 -4.55444C16.985 -4.24095 25.2116 0.494546 17.5976 8.33766C16.6439 8.92036 15.7365 9.39703 14.8735 9.77867"></path>
  <path fill="#7463A5" transform="matrix(1.8 0 0 1.8 352.158 173.437)" d="M-0.116455 3.8147e-06C-2.60165 -0.663936 -7.05858 1.11792 -10.0572 -2.65576C-13.0559 -6.42944 -14.6409 -10.8732 -10.0572 -14.7065C-5.47351 -18.5399 3.93804 -16.1165 4.43081 -14.7065C7.46664 -16.1165 10.8961 -16.6614 15.0174 -13.9738C19.1387 -11.2862 16.2386 -4.86793 16.6118 -4.55444C16.985 -4.24095 25.2116 0.494546 17.5976 8.33766C2.9012 17.3171 -0.809986 1.11792 -0.116455 3.8147e-06Z"></path>
  <path fill="#503F7E" transform="matrix(1.8 0 0 1.8 170.253 271.083)" d="M3.61619 30.5925C-37.3394 24.7135 -28.3168 -38.1423 12.6389 -32.2633C29.3869 -29.8591 56.3735 -27.6447 73.81 -25.7918C79.9364 -25.1408 90.2893 -15.4828 88.1026 7.65571C85.9158 30.7943 74.1566 38.1025 69.3815 37.5951C51.8428 35.7314 15.9759 32.3667 3.61619 30.5925Z"></path>
  <path fill="#312F2F" transform="matrix(0.533028 0.0566416 -0.0675372 0.635562 291.545 272.113)" d="M7.62939e-06 -128C70.6925 -128 128 -70.6925 128 1.90735e-06C128 70.6925 70.6925 128 7.62939e-06 128C-70.6924 128 -128 70.6925 -128 1.90735e-06C-128 -70.6925 -70.6924 -128 7.62939e-06 -128Z"></path>
  <path fill="none" stroke="black" stroke-width="7" stroke-miterlimit="4" transform="translate(256 256)" d="M56.2654 -63.9561C93.9465 -59.952 120.623 -20.2835 115.848 24.646C111.074 69.5754 76.657 102.752 38.9759 98.7478C1.29483 94.7437 -25.3813 55.0752 -20.6069 10.1457C-15.8326 -34.7838 18.5844 -67.9603 56.2654 -63.9561Z"></path>
  <path fill="none" stroke="black" stroke-width="7" stroke-linejoin="round" transform="translate(256 256)" d="M56.2654 -63.9562C56.2654 -63.9562 46.6041 -64.9828 44.656 -65.1898C14.0046 -67.609 -26.2178 -51.9753 -32.6826 8.86249C-39.1475 69.7003 3.44656 94.9723 26.9002 97.4646C28.8484 97.6716 38.9759 98.7478 38.9759 98.7478C38.4438 98.6913 37.8756 98.6086 37.2746 98.4994"></path>
  <path fill="#8D5A3E" transform="matrix(0.533028 0.0566416 -0.0675372 0.635562 303.621 273.396)" d="M0 -128C70.6925 -128 128 -70.6925 128 1.90735e-06C128 70.6925 70.6925 128 0 128C-70.6925 128 -128 70.6925 -128 1.90735e-06C-128 -70.6925 -70.6925 -128 0 -128Z"></path>
  <path fill="#4B2713" transform="matrix(0.533028 0.0566416 -0.0675372 0.635562 307.153 273.128)" d="M0.250008 -87.5C51.4744 -87.5 93 -48.4368 93 -0.25C93 47.9368 51.4744 87 0.250008 87C-50.9744 87 -92.5 47.9368 -92.5 -0.25C-92.5 -48.4368 -50.9744 -87.5 0.250008 -87.5Z"></path>
  <path fill="#693920" transform="matrix(0.533028 0.0566416 -0.0675372 0.635562 303.621 273.396)" d="M0 -86C47.4965 -86 86 -47.4965 86 1.90735e-06C86 47.4965 47.4965 86 0 86C-47.4965 86 -86 47.4965 -86 1.90735e-06C-86 -47.4965 -47.4965 -86 0 -86Z"></path>
  <path fill="#1F0D04" transform="matrix(1.37338 0.660215 -0.607352 1.65668 288.301 279.768)" d="M1.90735e-06 -6.1709C3.4081 -6.1709 6.1709 -3.40809 6.1709 4.76837e-07C6.1709 3.40809 3.4081 6.1709 1.90735e-06 6.1709C-3.40809 6.1709 -6.1709 3.40809 -6.1709 4.76837e-07C-6.1709 -3.40809 -3.40809 -6.1709 1.90735e-06 -6.1709Z"></path>
  <clipPath id="cl_3b4">
    <path d="M292.049 269.545C296.729 271.795 298.846 278.196 296.776 283.842C294.706 289.488 289.233 292.241 284.553 289.991C279.872 287.741 277.756 281.34 279.826 275.694C281.896 270.048 287.368 267.295 292.049 269.545Z"></path>
  </clipPath>
  <g clip-path="url(#cl_3b4)">
    <path fill="#2F1507" transform="matrix(1.37338 0.660215 -0.607352 1.65668 285.771 281.703)" d="M0 -6.1709C3.40809 -6.1709 6.1709 -3.40809 6.1709 -4.76837e-07C6.1709 3.40809 3.40809 6.1709 0 6.1709C-3.40809 6.1709 -6.1709 3.40809 -6.1709 -4.76837e-07C-6.1709 -3.40809 -3.40809 -6.1709 0 -6.1709Z"></path>
  </g>
  <path fill="#1F0D04" transform="matrix(1.37338 0.660215 -0.607352 1.65668 297.269 255.305)" d="M-1.90735e-06 -6.1709C3.40809 -6.1709 6.1709 -3.40809 6.1709 0C6.1709 3.40809 3.40809 6.1709 -1.90735e-06 6.1709C-3.4081 6.1709 -6.1709 3.40809 -6.1709 0C-6.1709 -3.40809 -3.4081 -6.1709 -1.90735e-06 -6.1709Z"></path>
  <clipPath id="cl_3b5">
    <path d="M301.017 245.082C305.698 247.332 307.814 253.733 305.744 259.379C303.674 265.025 298.202 267.778 293.521 265.528C288.84 263.278 286.724 256.877 288.794 251.231C290.864 245.585 296.336 242.832 301.017 245.082Z"></path>
  </clipPath>
  <g clip-path="url(#cl_3b5)">
    <path fill="#2F1507" transform="matrix(1.37338 0.660215 -0.607352 1.65668 294.274 258.509)" d="M0 -6.1709C3.40809 -6.1709 6.1709 -3.40809 6.1709 9.53674e-07C6.1709 3.40809 3.40809 6.1709 0 6.1709C-3.40809 6.1709 -6.1709 3.40809 -6.1709 9.53674e-07C-6.1709 -3.40809 -3.40809 -6.1709 0 -6.1709Z"></path>
  </g>
  <path fill="#1F0D04" transform="matrix(1.37338 0.660215 -0.607352 1.65668 309.926 290.164)" d="M0 -6.1709C3.40809 -6.1709 6.1709 -3.40809 6.1709 0C6.1709 3.40809 3.40809 6.1709 0 6.1709C-3.40809 6.1709 -6.1709 3.40809 -6.1709 0C-6.1709 -3.40809 -3.40809 -6.1709 0 -6.1709Z"></path>
  <clipPath id="cl_3b6">
    <path d="M313.674 279.941C318.355 282.191 320.471 288.592 318.401 294.238C316.332 299.884 310.859 302.637 306.179 300.387C301.498 298.137 299.382 291.736 301.451 286.09C303.521 280.444 308.994 277.691 313.674 279.941Z"></path>
  </clipPath>
  <g clip-path="url(#cl_3b6)">
    <path fill="#2F1507" transform="matrix(1.37338 0.660215 -0.607352 1.65668 308.049 291.438)" d="M0 -6.1709C3.40809 -6.1709 6.1709 -3.40809 6.1709 9.53674e-07C6.1709 3.40809 3.40809 6.1709 0 6.1709C-3.40809 6.1709 -6.1709 3.40809 -6.1709 9.53674e-07C-6.1709 -3.40809 -3.40809 -6.1709 0 -6.1709Z"></path>
  </g>
  <path fill="#1F0D04" transform="matrix(1.37338 0.660215 -0.607352 1.65668 318.895 265.701)" d="M-3.8147e-06 -6.1709C3.40809 -6.1709 6.17089 -3.40809 6.17089 9.53674e-07C6.17089 3.40809 3.40809 6.1709 -3.8147e-06 6.1709C-3.4081 6.1709 -6.1709 3.40809 -6.1709 9.53674e-07C-6.1709 -3.40809 -3.4081 -6.1709 -3.8147e-06 -6.1709Z"></path>
  <clipPath id="cl_3b7">
    <path d="M322.643 255.478C327.323 257.728 329.44 264.129 327.37 269.775C325.3 275.421 319.828 278.174 315.147 275.924C310.466 273.674 308.35 267.273 310.42 261.627C312.49 255.981 317.962 253.228 322.643 255.478Z"></path>
  </clipPath>
  <g clip-path="url(#cl_3b7)">
    <path fill="#2F1507" transform="matrix(1.37338 0.660215 -0.607352 1.65668 315.178 267.584)" d="M3.8147e-06 -6.1709C3.4081 -6.1709 6.1709 -3.40809 6.1709 0C6.1709 3.40809 3.4081 6.1709 3.8147e-06 6.1709C-3.40809 6.1709 -6.17089 3.40809 -6.17089 0C-6.17089 -3.40809 -3.40809 -6.1709 3.8147e-06 -6.1709Z"></path>
  </g>
  <path fill="none" stroke="#E3CEC2" stroke-width="4" stroke-linecap="round" stroke-linejoin="round" transform="matrix(1.37338 0.660215 -0.607352 1.65668 296.295 254.392)" d="M2.42519 2.41434L15.2044 14.4568"></path>
  <path fill="none" stroke="#C8AD9D" stroke-width="4" stroke-linecap="round" stroke-linejoin="round" transform="matrix(1.37338 0.660215 -0.607352 1.65668 296.295 254.392)" d="M3.28776 13.1788L15.6779 1.98902"></path>
  <path fill="#4B2713" transform="matrix(0.635562 0.0675372 -0.0675372 0.635562 312.265 192.044)" d="M-7.62939e-06 -1.52588e-05C-7.62939e-06 -1.52588e-05 -15.2012 -1.52588e-05 -18.2664 7.62939e-06C-66.3551 1.3037 -126.35 32.2772 -126.35 128C-126.35 223.723 -55.9022 256 -19 256C-15.9348 256 -3.8147e-06 256 -7.62939e-06 256C-25.5439 256 -107.35 223.723 -107.35 128C-107.35 32.2772 -25.5439 -7.62939e-06 -7.62939e-06 -1.52588e-05Z"></path>
</svg>