<?xml version="1.0" encoding="utf-8"?>
<svg xmlns="http://www.w3.org/2000/svg" xmlns:xlink="http://www.w3.org/1999/xlink" width="512" height="512">
  <path fill="none" stroke="black" stroke-width="6" stroke-linejoin="round" transform="matrix(1.8 0 0 1.52279 359.051 170.104)" d="M-11.0796 -15.826C-7.62815 -15.3805 -5.05284 -15.048 -1.7633 -14.6234C5.25919 -13.7169 12.0098 -8.81865 10.5677 6.79062C9.12555 22.3999 6.43697 51.5002 5.63112 60.2224C1.68582 102.925 -61.435 94.7345 -57.4897 52.0319C-56.4993 41.3122 -54.6788 21.6071 -53.532 9.19525C-52.3853 -3.21663 -44.5228 -20.1432 -28.5381 -18.0797C-27.1813 -17.9046 -25.9125 -17.7408 -24.7222 -17.5871"></path>
  <path fill="none" stroke="black" stroke-width="6" stroke-linejoin="round" transform="matrix(1.8 0 0 1.64041 359.051 252.35)" d="M-56.4755 -8.73344C-45.9966 -49.8757 15.489 -32.9965 5.0101 8.14577C0.850349 24.4779 -6.08888 51.7228 -10.3998 68.6485C-11.9145 74.5954 -22.9364 83.2559 -45.5057 77.3395C-68.075 71.423 -73.63 58.6192 -72.4494 53.9839C-68.1132 36.959 -59.5453 3.31928 -56.4755 -8.73344Z"></path>
  <path fill="#503F7E" transform="matrix(1.8 0 0 1.52279 359.051 170.104)" d="M-53.532 9.19524C-52.3853 -3.21663 -44.5228 -20.1432 -28.5381 -18.0797C-12.5533 -16.0163 -8.78579 -15.5299 -1.7633 -14.6234C5.25918 -13.7169 12.0098 -8.81865 10.5677 6.79062C9.12555 22.3999 6.43698 51.5002 5.63113 60.2224C1.68583 102.925 -61.435 94.7345 -57.4897 52.0319C-56.4993 41.3122 -54.6788 21.6071 -53.532 9.19524Z"></path>
  <path fill="#503F7E" transform="matrix(1.8 0 0 1.64041 359.051 252.35)" d="M-56.4755 -8.73344C-45.9966 -49.8757 15.489 -32.9965 5.0101 8.14577C0.850349 24.4779 -6.08888 51.7228 -10.3998 68.6485C-11.9145 74.5954 -22.9364 83.2559 -45.5057 77.3395C-68.075 71.423 -73.63 58.6192 -72.4494 53.9839C-68.1132 36.959 -59.5453 3.31928 -56.4755 -8.73344Z"></path>
  <path fill="none" stroke="black" stroke-width="5" stroke-linejoin="round" transform="matrix(1.67985 0 0 1.8 269.501 356.202)" d="M-47.7655 -15.6719C-29.5417 -15.8929 -16.5389 -11.8783 -15.879 35.5066C-15.2433 49.6012 -10.7828 64.8104 -25.7849 74.1275C-37.3534 74.0143 -50.2785 74.7971 -66.7426 74.5025C-77.5684 65.5483 -78.3084 52.1764 -79.0964 35.3703C-80.3597 -11.1042 -65.9894 -15.4508 -47.7655 -15.6719Z"></path>
  <path fill="#453279" transform="matrix(1.67985 0 0 1.8 269.501 356.202)" d="M-47.7655 -15.6719C-29.5417 -15.8929 -16.5389 -11.8783 -15.879 35.5066C-15.2433 49.6012 -10.7828 64.8104 -25.7849 74.1275C-37.3534 74.0143 -50.2785 74.7971 -66.7426 74.5025C-77.5684 65.5483 -78.3084 52.1764 -79.0964 35.3703C-80.3597 -11.1042 -65.9894 -15.4508 -47.7655 -15.6719Z"></path>
  <path fill="none" stroke="black" stroke-width="5" stroke-linejoin="round" transform="matrix(1.67985 0 0 1.8 191.63 362.835)" d="M47.678 -14.3493C65.8997 -14.0081 78.7532 -9.59468 77.7347 37.7846C77.9443 56.6688 80.5105 69.2147 64.9271 75.6304C49.4534 76.0019 38.7664 76.2083 23.93 75.868C9.20583 69.0805 14.0706 52.1894 14.5568 35.6987C14.9398 -10.7893 29.4562 -14.6904 47.678 -14.3493Z"></path>
  <path fill="none" stroke="black" stroke-width="5" stroke-linejoin="round" transform="matrix(1.79976 0.0276995 -0.0293645 1.69771 274.681 280.162)" d="M-11.3238 -80.2543C25.8014 -80.2543 54.9476 -94.6926 58.9092 -40.8672C62.8708 12.9582 37.0524 74.7499 0.0572909 75.3534C-14.1177 75.5847 -17.7665 75.6442 -48.2096 76.1409C-78.6526 76.6376 -84.25 60.12 -84.25 9.53674e-07C-86.6294 -86.0849 -88.6034 -78.4854 -12.7475 -80.2208"></path>
  <path fill="#503F7E" transform="matrix(1.67985 0 0 1.8 191.63 362.835)" d="M47.678 -14.3493C65.8997 -14.0081 78.7532 -9.59468 77.7347 37.7846C77.9443 56.6688 80.5105 69.2147 64.9271 75.6304C49.4534 76.0019 38.7664 76.2083 23.93 75.868C9.20583 69.0805 14.0706 52.1894 14.5568 35.6987C14.9398 -10.7893 29.4562 -14.6904 47.678 -14.3493Z"></path>
  <path fill="none" stroke="black" stroke-width="5" stroke-linejoin="round" transform="matrix(1.53139 0 0 1.39334 226.982 126.138)" d="M0 -40C20.9426 -40 35.0096 -26.8589 47.8597 -2.20017C49.1253 -3.81498 50.3123 -3.57652 51.1974 -3.11681C52.0824 -2.6571 52.5509 -1.60561 52.2206 -0.665335C53.8523 0.0632067 55.2854 1.47333 55.8775 2.67699C56.9197 4.79567 57.6743 10.5072 53.7931 11.8212C58.5977 31.9882 20.3682 22.0914 -1.32962e-05 22.0914C-20.2357 22.0914 -45.0732 28.3281 -41.8836 12.9784C-44.6787 11.8212 -48.2008 8.95145 -46.5316 4.29176C-45.7036 1.98007 -43.8185 0.567096 -42.3936 0.567005C-41.0392 0.566917 -42.9934 -2.19999 -40.2188 -3.8149C-39.0195 -4.5129 -37.7273 -4.43211 -36.6068 -4.12355C-28.0141 -23.731 -20.4124 -40 0 -40Z"></path>
  <path fill="#503F7E" transform="matrix(1.79976 0.0276995 -0.0293645 1.69771 274.681 280.162)" d="M-11.3238 -80.2543C25.8014 -80.2543 54.9476 -94.6926 58.9092 -40.8672C62.8708 12.9582 37.0524 74.7499 0.0572909 75.3534C-14.1177 75.5847 -17.7665 75.6442 -48.2096 76.1409C-78.6526 76.6376 -84.25 60.12 -84.25 9.53674e-07C-86.6442 -86.62 -88.6279 -78.3873 -11.3238 -80.2543Z"></path>
  <clipPath id="cl_31c">
    <path d="M256.658 143.6C323.474 144.628 376.354 120.923 381.904 212.413C387.453 303.903 339.172 408.092 272.572 408.092C247.053 408.092 240.485 408.092 185.68 408.092C130.875 408.092 121.286 379.895 123.052 277.828C121.286 130.706 117.474 144.628 256.658 143.6Z"></path>
  </clipPath>
  <g clip-path="url(#cl_31c)">
    <path fill="#655494" transform="matrix(1.8 0 0 1.8 311.807 262.241)" d="M-0.158648 -48.2655C25.513 -48.2655 46.324 -26.6563 46.324 0C46.324 26.6563 25.513 48.2655 -0.158648 48.2655C-25.8303 48.2655 -46.6413 26.6563 -46.6413 0C-46.6413 -26.6563 -25.8303 -48.2655 -0.158648 -48.2655Z"></path>
  </g>
  <path fill="none" stroke="black" stroke-width="2" stroke-linejoin="round" transform="matrix(3.88825 -0.763212 0.691401 3.5224 233.781 47.8894)" d="M-4.34758 -5.25471C-4.34758 -11.5047 3.66088 -11.5047 3.66088 -5.25471C3.66088 0.995287 3.66088 12.5 3.66088 12.5L-4.57314 12.5C-4.57314 12.5 -4.34758 0.995288 -4.34758 -5.25471Z"></path>
  <path fill="none" stroke="black" stroke-width="2" stroke-linejoin="round" transform="matrix(3.5224 -0.691401 0.691401 3.5224 199.573 53.3022)" d="M-5.1645 -6.50116C-5.1645 -12.7512 6 -12.7512 6 -6.50116C6 -0.251162 6 12.5 6 12.5L-6 12.5C-6 12.5 -5.1645 -0.251163 -5.1645 -6.50116Z"></path>
  <path fill="#453279" transform="matrix(3.88825 -0.763212 0.691401 3.5224 233.781 47.8894)" d="M-4.34758 -5.25471C-4.34758 -11.5047 3.66088 -11.5047 3.66088 -5.25471C3.66088 0.995287 3.66088 12.5 3.66088 12.5L-4.57314 12.5C-4.57314 12.5 -4.34758 0.995288 -4.34758 -5.25471Z"></path>
  <path fill="none" stroke="#161616" stroke-width="0.5" stroke-linecap="round" stroke-linejoin="round" transform="matrix(3.88825 -0.763212 0.691401 3.5224 228.988 28.3578)" d="M3.59179e-06 1.51652L2.87701e-06 10.5382"></path>
  <path fill="#503F7E" transform="matrix(3.5224 -0.691401 0.691401 3.5224 199.573 53.3022)" d="M-5.1645 -6.50117C-5.1645 -12.7512 6 -12.7512 6 -6.50117C6 -0.251166 6 12.5 6 12.5L-6 12.5C-6 12.5 -5.1645 -0.251167 -5.1645 -6.50117Z"></path>
  <path fill="none" stroke="#161616" stroke-width="0.5" stroke-linecap="round" stroke-linejoin="round" transform="matrix(3.5224 -0.691401 0.691401 3.5224 199.787 33.2838)" d="M1.85391e-08 7.65589e-06L3.83324e-06 10.5382"></path>
  <path fill="#503F7E" transform="matrix(1.53139 0 0 1.39334 226.982 126.138)" d="M0 -40C20.9426 -40 35.0096 -26.8589 47.8597 -2.20017C49.1253 -3.81498 50.3123 -3.57652 51.1974 -3.11681C52.0824 -2.6571 52.5509 -1.60561 52.2206 -0.665335C53.8523 0.0632067 55.2854 1.47333 55.8775 2.67699C56.9197 4.79567 57.6743 10.5072 53.7931 11.8212C58.5977 31.9882 20.3682 22.0914 -1.32962e-05 22.0914C-20.2357 22.0914 -45.0732 28.3281 -41.8836 12.9784C-44.6787 11.8212 -48.2008 8.95145 -46.5316 4.29176C-45.7036 1.98007 -43.8185 0.567096 -42.3936 0.567005C-41.0392 0.566917 -42.9934 -2.19999 -40.2188 -3.8149C-39.0195 -4.5129 -37.7273 -4.43211 -36.6068 -4.12355C-28.0141 -23.731 -20.4124 -40 0 -40Z"></path>
  <clipPath id="cl_31d">
    <path d="M226.982 70.4039C259.053 70.4039 280.595 88.7139 300.273 123.072C302.211 120.822 304.029 121.154 305.384 121.795C306.74 122.435 307.457 123.9 306.951 125.211C309.45 126.226 311.645 128.19 312.552 129.868C314.148 132.82 315.303 140.778 309.359 142.609C316.717 170.708 258.173 156.918 226.981 156.918C195.993 156.918 157.957 165.608 162.842 144.221C158.561 142.609 153.168 138.61 155.724 132.117C156.992 128.897 159.879 126.928 162.061 126.928C164.135 126.928 161.142 123.072 165.391 120.822C167.228 119.85 169.206 119.962 170.922 120.392C184.081 93.0721 195.722 70.4039 226.982 70.4039Z"></path>
  </clipPath>
  <g clip-path="url(#cl_31d)">
    <path fill="#7463A5" transform="matrix(1.8 2.98023e-08 0.00759348 1.8 223.733 111.036)" d="M0 -5.5C3.86599 -5.5 7 -2.92564 7 0.25C7 3.42564 3.86599 6 0 6C-3.86599 6 -7 3.42564 -7 0.25C-7 -2.92564 -3.86599 -5.5 0 -5.5Z"></path>
    <path fill="#7463A5" transform="matrix(1.83618 3.04014e-08 0.00759348 1.8 276.281 102.889)" d="M0 -5C2.76142 -5 5 -2.6495 5 0.25C5 3.1495 2.76142 5.5 0 5.5C-2.76142 5.5 -5 3.1495 -5 0.25C-5 -2.6495 -2.76142 -5 0 -5Z"></path>
    <path fill="none" stroke="#131212" stroke-width="1" stroke-linecap="round" stroke-linejoin="round" transform="matrix(2.30699 -0.373724 0.274137 1.69224 254.512 96.1936)" d="M1.44192e-06 7.21529e-06L2.92891 -0.71456"></path>
    <path fill="none" stroke="#131212" stroke-width="1" stroke-linecap="round" stroke-linejoin="round" transform="matrix(2.30699 -0.373724 0.274137 1.69224 232.762 95.3638)" d="M2.38419e-07 7.48094e-06L4.25731 1.79213"></path>
    <path fill="#131212" transform="matrix(2.47104 -0.400299 0.405754 2.50471 246.547 98.4741)" d="M-4.99596e-07 -7.84488e-06L1.9614 0.35273L0.915089 1.42245L-4.99596e-07 -7.84488e-06Z"></path>
    <path fill="none" stroke="#131212" stroke-width="0.5" stroke-linecap="round" stroke-linejoin="round" transform="matrix(1.93759 -0.313883 0.31816 1.96399 249.606 102.01)" d="M1.18428e-07 -0.711217L-3.72341e-06 1.11021"></path>
    <path fill="#32225E" transform="matrix(1.74285 0.441491 -0.424043 1.74552 243.394 90.6085)" d="M-1.93607e-06 -1.92716C1.6285 -1.92716 2.94867 -1.06434 2.94867 -4.39386e-08C2.94867 1.06434 1.6285 1.92716 -1.87863e-06 1.92716C-1.62851 1.92716 -2.94867 1.06434 -2.94867 4.39386e-08C-2.94867 -1.06434 -1.62851 -1.92716 -1.93607e-06 -1.92716Z"></path>
    <path fill="#32225E" transform="matrix(1.71213 0.433708 -0.412468 1.69787 254.587 89.7336)" d="M-5.72205e-06 -1.89919C0.889983 -1.89919 1.61146 -1.04889 1.61146 -2.40127e-08C1.61146 1.04889 0.889983 1.89919 -5.72205e-06 1.89919C-0.889995 1.89919 -1.61147 1.04889 -1.61147 2.40127e-08C-1.61147 -1.04889 -0.889995 -1.89919 -5.72205e-06 -1.89919Z"></path>
  </g>
  <path fill="none" stroke="black" stroke-width="6" stroke-linejoin="round" transform="matrix(1.8 0 0 1.8 170.253 262.687)" d="M5.35802 30.5007C-34.0771 25.7065 -26.4136 -37.3294 13.0216 -32.5351C29.8176 -30.4931 56.8458 -28.8618 74.3182 -27.3858C80.4572 -26.8672 91.0162 -17.435 89.3295 5.74536C87.6428 28.9257 76.0442 36.4862 71.2592 36.0819C53.6844 34.5973 17.7531 32.0077 5.35802 30.5007Z"></path>
  <path fill="none" stroke="black" stroke-width="6" stroke-linecap="round" stroke-linejoin="bevel" transform="matrix(1.8 0 0 1.67094 170.253 172.439)" d="M37.8061 31.5717C39.1144 39.3731 40.2412 46.0927 40.8226 49.5597C47.9114 91.8321 -14.5842 103.951 -21.673 61.6783C-23.4525 51.0667 -26.7236 31.5602 -28.784 19.2734C-30.8444 6.98658 -27.626 -11.7638 -11.8023 -14.8431C-10.1818 -15.1584 -8.68815 -15.4491 -7.30488 -15.7183"></path>
  <path fill="#503F7E" transform="matrix(1.8 0 0 1.67094 170.253 172.439)" d="M-28.784 19.2734C-30.8444 6.98657 -27.626 -11.7638 -11.8023 -14.8431C4.02141 -17.9223 7.75097 -18.6481 14.7027 -20.0009C21.6544 -21.3537 29.3616 -18.7857 31.9527 -3.3337C34.5439 12.1183 39.3747 40.9253 40.8226 49.5597C47.0579 86.7429 -15.4376 98.8615 -21.673 61.6783C-23.4525 51.0667 -26.7236 31.5602 -28.784 19.2734Z"></path>
  <path fill="none" stroke="black" stroke-width="4" stroke-linejoin="round" transform="matrix(1.8 0 0 1.8 352.158 165.041)" d="M-11.7479 -12.9046C-11.318 -13.5165 -10.7601 -14.1187 -10.0572 -14.7065C-5.47351 -18.5399 3.93804 -16.1165 4.43081 -14.7065C7.46664 -16.1165 10.8961 -16.6614 15.0174 -13.9738C19.1387 -11.2862 16.2386 -4.86793 16.6118 -4.55444C16.985 -4.24095 25.2116 0.494546 17.5976 8.33766C16.6439 8.92036 15.7365 9.39703 14.8735 9.77867"></path>
  <path fill="#7463A5" transform="matrix(1.8 0 0 1.8 352.158 165.041)" d="M-0.116455 3.8147e-06C-2.60165 -0.663936 -7.05858 1.11792 -10.0572 -2.65576C-13.0559 -6.42944 -14.6409 -10.8732 -10.0572 -14.7065C-5.47351 -18.5399 3.93804 -16.1165 4.43081 -14.7065C7.46664 -16.1165 10.8961 -16.6614 15.0174 -13.9738C19.1387 -11.2862 16.2386 -4.86793 16.6118 -4.55444C16.985 -4.24095 25.2116 0.494546 17.5976 8.33766C2.9012 17.3171 -0.809986 1.11792 -0.116455 3.8147e-06Z"></path>
  <path fill="#503F7E" transform="matrix(1.8 0 0 1.8 170.253 262.687)" d="M5.35802 30.5007C-35.715 25.5073 -28.0514 -37.5285 13.0216 -32.5351C29.8176 -30.4932 56.8458 -28.8618 74.3182 -27.3858C80.4572 -26.8672 91.0162 -17.435 89.3295 5.74536C87.6428 28.9257 76.0442 36.4862 71.2592 36.0819C53.6844 34.5973 17.7531 32.0077 5.35802 30.5007Z"></path>
  <path fill="#312F2F" transform="matrix(0.534127 0.0451208 -0.0538003 0.636872 293.487 261.086)" d="M-8.58307e-06 -128C70.6924 -128 128 -70.6924 128 -2.38419e-07C128 70.6924 70.6924 128 -6.67572e-06 128C-70.6925 128 -128 70.6924 -128 -2.38419e-07C-128 -70.6924 -70.6925 -128 -8.58307e-06 -128Z"></path>
  <path fill="none" stroke="black" stroke-width="7" stroke-miterlimit="4" transform="translate(256 256)" d="M56.4739 -75.4118C94.2327 -72.2221 121.759 -33.1388 117.956 11.8833C114.152 56.9053 80.4598 90.8172 42.7011 87.6275C4.94232 84.4378 -22.584 45.3544 -18.7807 0.332357C-14.9775 -44.6897 18.7152 -78.6015 56.4739 -75.4118Z"></path>
  <path fill="none" stroke="black" stroke-width="7" stroke-linejoin="round" transform="translate(256 256)" d="M56.4739 -75.4118C56.4739 -75.4118 46.7927 -76.2297 44.8406 -76.3946C14.1441 -78.1515 -25.7314 -61.6531 -30.8813 -0.689847C-36.0312 60.2734 7.09849 84.6199 30.6005 86.6053C32.5527 86.7702 42.7011 87.6275 42.7011 87.6275C42.1679 87.5824 41.598 87.512 40.9948 87.4159"></path>
  <path fill="#8D5A3E" transform="matrix(0.534127 0.0451208 -0.0538003 0.636872 305.587 262.108)" d="M-9.53674e-07 -128C70.6924 -128 128 -70.6924 128 -7.15256e-07C128 70.6924 70.6924 128 9.53674e-07 128C-70.6924 128 -128 70.6924 -128 -7.15256e-07C-128 -70.6924 -70.6924 -128 -9.53674e-07 -128Z"></path>
  <path fill="#4B2713" transform="matrix(0.534127 0.0451208 -0.0538003 0.636872 309.113 261.764)" d="M0.249999 -87.5C51.4744 -87.5 93 -48.4368 93 -0.25C93 47.9368 51.4744 87 0.250001 87C-50.9744 87 -92.5 47.9368 -92.5 -0.25C-92.5 -48.4368 -50.9744 -87.5 0.249999 -87.5Z"></path>
  <path fill="#693920" transform="matrix(0.534127 0.0451208 -0.0538003 0.636872 305.587 262.108)" d="M-6.4075e-07 -86C47.4965 -86 86 -47.4965 86 -7.15256e-07C86 47.4965 47.4965 86 6.4075e-07 86C-47.4965 86 -86 47.4965 -86 -7.15256e-07C-86 -47.4965 -47.4965 -86 -6.4075e-07 -86Z"></path>
  <path fill="#1F0D04" transform="matrix(1.38731 0.630411 -0.571445 1.66941 290.409 268.809)" d="M-2.09126e-06 -6.1709C3.40809 -6.1709 6.1709 -3.40809 6.1709 -3.57628e-07C6.1709 3.40809 3.40809 6.1709 -1.72344e-06 6.1709C-3.40809 6.1709 -6.1709 3.40809 -6.1709 -3.57628e-07C-6.1709 -3.40809 -3.40809 -6.1709 -2.09126e-06 -6.1709Z"></path>
  <clipPath id="cl_325">
    <path d="M293.935 258.507C298.663 260.656 300.917 267.01 298.97 272.699C297.022 278.389 291.61 281.259 286.882 279.111C282.154 276.962 279.9 270.608 281.848 264.919C283.795 259.229 289.207 256.359 293.935 258.507Z"></path>
  </clipPath>
  <g clip-path="url(#cl_325)">
    <path fill="#2F1507" transform="matrix(1.38731 0.630411 -0.571445 1.66941 287.921 270.798)" d="M1.72344e-06 -6.1709C3.40809 -6.1709 6.1709 -3.40809 6.1709 8.9407e-08C6.1709 3.40809 3.40809 6.1709 2.09126e-06 6.1709C-3.40809 6.1709 -6.1709 3.40809 -6.1709 8.9407e-08C-6.1709 -3.40809 -3.40809 -6.1709 1.72344e-06 -6.1709Z"></path>
  </g>
  <path fill="#1F0D04" transform="matrix(1.38731 0.630411 -0.571445 1.66941 298.847 244.158)" d="M-3.9986e-06 -6.1709C3.40809 -6.1709 6.17089 -3.4081 6.17089 -1.90735e-06C6.17089 3.40809 3.40809 6.1709 -3.63079e-06 6.1709C-3.4081 6.1709 -6.1709 3.40809 -6.1709 -1.90735e-06C-6.1709 -3.4081 -3.4081 -6.1709 -3.9986e-06 -6.1709Z"></path>
  <clipPath id="cl_326">
    <path d="M302.373 233.856C307.101 236.005 309.355 242.359 307.408 248.048C305.46 253.738 300.048 256.608 295.32 254.46C290.592 252.311 288.338 245.957 290.286 240.268C292.233 234.578 297.645 231.708 302.373 233.856Z"></path>
  </clipPath>
  <g clip-path="url(#cl_326)">
    <path fill="#2F1507" transform="matrix(1.38731 0.630411 -0.571445 1.66941 295.922 247.426)" d="M-1.83907e-07 -6.1709C3.40809 -6.1709 6.1709 -3.40809 6.1709 0C6.1709 3.40809 3.40809 6.1709 1.83907e-07 6.1709C-3.40809 6.1709 -6.1709 3.40809 -6.1709 0C-6.1709 -3.40809 -3.40809 -6.1709 -1.83907e-07 -6.1709Z"></path>
  </g>
  <path fill="#1F0D04" transform="matrix(1.38731 0.630411 -0.571445 1.66941 312.254 278.736)" d="M-1.83907e-07 -6.1709C3.40809 -6.1709 6.1709 -3.40809 6.1709 -1.07288e-06C6.1709 3.40809 3.40809 6.1709 1.83907e-07 6.1709C-3.40809 6.1709 -6.1709 3.40809 -6.1709 -1.07288e-06C-6.1709 -3.40809 -3.40809 -6.1709 -1.83907e-07 -6.1709Z"></path>
  <clipPath id="cl_327">
    <path d="M315.78 268.434C320.508 270.583 322.762 276.937 320.815 282.626C318.867 288.316 313.456 291.186 308.728 289.038C303.999 286.889 301.745 280.535 303.693 274.846C305.64 269.156 311.052 266.286 315.78 268.434Z"></path>
  </clipPath>
  <g clip-path="url(#cl_327)">
    <path fill="#2F1507" transform="matrix(1.38731 0.630411 -0.571445 1.66941 310.404 280.05)" d="M-3.9986e-06 -6.1709C3.40809 -6.1709 6.17089 -3.40809 6.17089 -2.08616e-07C6.17089 3.40809 3.40809 6.1709 -3.63079e-06 6.1709C-3.4081 6.1709 -6.1709 3.40809 -6.1709 -2.08616e-07C-6.1709 -3.40809 -3.4081 -6.1709 -3.9986e-06 -6.1709Z"></path>
  </g>
  <path fill="#1F0D04" transform="matrix(1.38731 0.630411 -0.571445 1.66941 320.692 254.085)" d="M-3.9986e-06 -6.1709C3.40809 -6.1709 6.17089 -3.40809 6.17089 0C6.17089 3.40809 3.40809 6.1709 -3.63079e-06 6.1709C-3.4081 6.1709 -6.1709 3.40809 -6.1709 0C-6.1709 -3.40809 -3.4081 -6.1709 -3.9986e-06 -6.1709Z"></path>
  <clipPath id="cl_328">
    <path d="M324.218 243.783C328.946 245.932 331.201 252.286 329.253 257.975C327.305 263.665 321.894 266.535 317.166 264.387C312.438 262.238 310.184 255.884 312.131 250.195C314.079 244.505 319.49 241.635 324.218 243.783Z"></path>
  </clipPath>
  <g clip-path="url(#cl_328)">
    <path fill="#2F1507" transform="matrix(1.38731 0.630411 -0.571445 1.66941 317.017 256.048)" d="M0 -6.1709C3.40809 -6.1709 6.1709 -3.40809 6.1709 9.53674e-07C6.1709 3.40809 3.40809 6.1709 0 6.1709C-3.40809 6.1709 -6.1709 3.40809 -6.1709 9.53674e-07C-6.1709 -3.40809 -3.40809 -6.1709 0 -6.1709Z"></path>
  </g>
  <path fill="none" stroke="#E3CEC2" stroke-width="4" stroke-linecap="round" stroke-linejoin="round" transform="matrix(1.38731 0.630411 -0.571445 1.66941 297.854 243.267)" d="M2.42519 2.41434L15.2044 14.4568"></path>
  <path fill="none" stroke="#C8AD9D" stroke-width="4" stroke-linecap="round" stroke-linejoin="round" transform="matrix(1.38731 0.630411 -0.571445 1.66941 297.854 243.267)" d="M3.28776 13.1788L15.6779 1.98902"></path>
  <path fill="#4B2713" transform="matrix(0.636872 0.0538003 -0.0538003 0.636872 312.474 180.588)" d="M0 -1.52588e-05C0 -1.52588e-05 -15.2012 -7.62939e-06 -18.2664 -7.62939e-06C-66.3551 1.30368 -126.35 32.2772 -126.35 128C-126.35 223.723 -55.9022 256 -19 256C-15.9348 256 7.62939e-06 256 0 256C-25.5439 256 -107.35 223.723 -107.35 128C-107.35 32.2772 -25.5438 -1.52588e-05 0 -1.52588e-05Z"></path>
</svg>