<?xml version="1.0" encoding="utf-8"?>
<svg xmlns="http://www.w3.org/2000/svg" xmlns:xlink="http://www.w3.org/1999/xlink" width="512" height="512">
  <path fill="none" stroke="black" stroke-width="6" stroke-linejoin="round" transform="matrix(1.8 0 0 1.52279 359.051 171.478)" d="M-13.956 -17.4374C-10.1928 -17.6803 -7.50591 -17.8537 -4.0209 -18.0786C3.03283 -18.5338 10.3674 -14.9981 11.0916 0.680592C11.8158 16.3593 13.1658 45.5891 13.5705 54.3502C15.5516 97.2428 -47.8559 101.293 -49.837 58.3999C-50.3343 47.6326 -51.2485 27.8398 -51.8244 15.3727C-52.4002 2.90561 -46.9707 -15.3068 -30.9148 -16.343C-29.7979 -16.415 -28.7405 -16.4833 -27.7371 -16.548"></path>
  <path fill="none" stroke="black" stroke-width="6" stroke-linejoin="round" transform="matrix(1.8 0 0 1.64041 359.051 253.724)" d="M-49.8421 -3.0779C-45.3747 -45.5215 17.7595 -39.5017 13.292 2.94183C11.5186 19.7905 8.56019 47.8972 6.7223 65.3582C6.07656 71.4932 -3.57037 81.9545 -26.7049 80.0207C-49.8394 78.087 -57.1556 66.405 -56.6523 61.6231C-54.8037 44.0598 -51.1509 9.35603 -49.8421 -3.0779Z"></path>
  <path fill="#503F7E" transform="matrix(1.8 0 0 1.52279 359.051 171.478)" d="M-51.8244 15.3727C-52.4002 2.9056 -46.9707 -15.3068 -30.9148 -16.343C-14.8589 -17.3791 -11.0746 -17.6234 -4.0209 -18.0786C3.03283 -18.5338 10.3674 -14.9981 11.0916 0.680584C11.8158 16.3593 13.1658 45.5891 13.5705 54.3502C15.5516 97.2428 -47.8559 101.293 -49.837 58.3999C-50.3343 47.6326 -51.2485 27.8398 -51.8244 15.3727Z"></path>
  <path fill="#503F7E" transform="matrix(1.8 0 0 1.64041 359.051 253.724)" d="M-49.8421 -3.0779C-45.3747 -45.5215 17.7595 -39.5017 13.292 2.94182C11.5186 19.7905 8.56019 47.8972 6.7223 65.3582C6.07656 71.4932 -3.57037 81.9545 -26.7049 80.0207C-49.8394 78.087 -57.1556 66.405 -56.6523 61.6231C-54.8037 44.0598 -51.1509 9.35603 -49.8421 -3.0779Z"></path>
  <path fill="none" stroke="black" stroke-width="5" stroke-linejoin="round" transform="matrix(1.67985 0 0 1.8 269.501 356.202)" d="M-9.54344 -15.4016C8.42125 -18.2683 31.2291 -10.7937 30.4566 35.7888C30.6587 49.6563 28.5684 70.1705 12.5179 75.6937C1.09539 73.9805 -11.8112 72.9658 -28.0464 70.3957C-37.3961 60.4863 -31.393 50.5398 -31.6633 34.0038C-31.5112 -11.6999 -27.5081 -12.535 -9.54344 -15.4016Z"></path>
  <path fill="#453279" transform="matrix(1.67985 0 0 1.8 269.501 356.202)" d="M-9.54344 -15.4016C8.42125 -18.2683 31.2291 -10.7937 30.4566 35.7888C30.6587 49.6563 28.5684 70.1705 12.5179 75.6937C1.09539 73.9805 -11.8112 72.9658 -28.0464 70.3957C-37.3961 60.4863 -31.393 50.5398 -31.6633 34.0038C-31.5112 -11.6999 -27.5081 -12.535 -9.54344 -15.4016Z"></path>
  <path fill="none" stroke="black" stroke-width="5" stroke-linejoin="round" transform="matrix(1.67985 0 0 1.8 191.63 362.835)" d="M8.77768 -14.3479C27.0017 -14.1399 39.8918 -9.82047 39.2709 37.5648C39.6389 56.4469 42.2909 69.1481 26.7498 75.6399C11.2762 76.0114 0.589195 76.2179 -14.2473 75.8775C-29.0158 69.1712 -24.2705 52.4343 -23.9226 35.9406C-23.9296 -10.5488 -9.44636 -14.5558 8.77768 -14.3479Z"></path>
  <path fill="none" stroke="black" stroke-width="5" stroke-linejoin="round" transform="matrix(1.79976 0.0276995 -0.0293645 1.69771 274.681 281.536)" d="M-11.3238 -80.2543C25.8014 -80.2543 54.9476 -94.6926 58.9092 -40.8672C62.8708 12.9582 37.0524 74.7499 0.0572909 75.3534C-14.1177 75.5847 -17.7665 75.6442 -48.2096 76.1409C-78.6526 76.6376 -84.25 60.12 -84.25 9.53674e-07C-86.6294 -86.0849 -88.6034 -78.4854 -12.7475 -80.2208"></path>
  <path fill="#503F7E" transform="matrix(1.67985 0 0 1.8 191.63 362.835)" d="M8.77768 -14.3479C27.0017 -14.1399 39.8918 -9.82047 39.2709 37.5648C39.6389 56.4469 42.2909 69.1481 26.7498 75.6399C11.2762 76.0114 0.589195 76.2179 -14.2473 75.8775C-29.0158 69.1712 -24.2705 52.4343 -23.9226 35.9406C-23.9296 -10.5488 -9.44636 -14.5558 8.77768 -14.3479Z"></path>
  <path fill="none" stroke="black" stroke-width="5" stroke-linejoin="round" transform="matrix(1.53139 0 0 1.39334 226.982 129.212)" d="M0 -40C20.9426 -40 35.0096 -26.8589 47.8597 -2.20017C49.1253 -3.81498 50.3123 -3.57652 51.1974 -3.11681C52.0824 -2.6571 52.5509 -1.60561 52.2206 -0.665335C53.8523 0.0632067 55.2854 1.47333 55.8775 2.67699C56.9197 4.79567 57.6743 10.5072 53.7931 11.8212C58.5977 31.9882 20.3682 22.0914 -1.32962e-05 22.0914C-20.2357 22.0914 -45.0732 28.3281 -41.8836 12.9784C-44.6787 11.8212 -48.2008 8.95145 -46.5316 4.29176C-45.7036 1.98007 -43.8185 0.567096 -42.3936 0.567005C-41.0392 0.566917 -42.9934 -2.19999 -40.2188 -3.8149C-39.0195 -4.5129 -37.7273 -4.43211 -36.6068 -4.12355C-28.0141 -23.731 -20.4124 -40 0 -40Z"></path>
  <path fill="#503F7E" transform="matrix(1.79976 0.0276995 -0.0293645 1.69771 274.681 281.536)" d="M-11.3238 -80.2543C25.8014 -80.2543 54.9476 -94.6926 58.9092 -40.8672C62.8708 12.9582 37.0524 74.7499 0.0572909 75.3534C-14.1177 75.5847 -17.7665 75.6442 -48.2096 76.1409C-78.6526 76.6376 -84.25 60.12 -84.25 9.53674e-07C-86.6442 -86.62 -88.6279 -78.3873 -11.3238 -80.2543Z"></path>
  <clipPath id="cl_53e">
    <path d="M256.658 144.974C323.474 146.002 376.354 122.297 381.904 213.787C387.453 305.277 339.172 409.466 272.572 409.466C247.053 409.466 240.485 409.466 185.68 409.466C130.875 409.466 121.286 381.269 123.052 279.202C121.286 132.08 117.474 146.002 256.658 144.974Z"></path>
  </clipPath>
  <g clip-path="url(#cl_53e)">
    <path fill="#655494" transform="matrix(1.8 0 0 1.8 311.807 263.615)" d="M-0.158648 -48.2655C25.513 -48.2655 46.324 -26.6563 46.324 0C46.324 26.6563 25.513 48.2655 -0.158648 48.2655C-25.8303 48.2655 -46.6413 26.6563 -46.6413 0C-46.6413 -26.6563 -25.8303 -48.2655 -0.158648 -48.2655Z"></path>
  </g>
  <path fill="none" stroke="black" stroke-width="2" stroke-linejoin="round" transform="matrix(3.88825 -0.763212 0.691401 3.5224 233.781 50.9638)" d="M-4.34758 -5.25471C-4.34758 -11.5047 3.66088 -11.5047 3.66088 -5.25472C3.66088 0.995284 3.66088 12.5 3.66088 12.5L-4.57314 12.5C-4.57314 12.5 -4.34758 0.995284 -4.34758 -5.25471Z"></path>
  <path fill="none" stroke="black" stroke-width="2" stroke-linejoin="round" transform="matrix(3.5224 -0.691401 0.691401 3.5224 199.573 56.3766)" d="M-5.1645 -6.50116C-5.1645 -12.7512 6 -12.7512 6 -6.50116C6 -0.251162 6 12.5 6 12.5L-6 12.5C-6 12.5 -5.1645 -0.251163 -5.1645 -6.50116Z"></path>
  <path fill="#453279" transform="matrix(3.88825 -0.763212 0.691401 3.5224 233.781 50.9638)" d="M-4.34758 -5.25471C-4.34758 -11.5047 3.66088 -11.5047 3.66088 -5.25472C3.66088 0.995284 3.66088 12.5 3.66088 12.5L-4.57314 12.5C-4.57314 12.5 -4.34758 0.995284 -4.34758 -5.25471Z"></path>
  <path fill="none" stroke="#161616" stroke-width="0.5" stroke-linecap="round" stroke-linejoin="round" transform="matrix(3.88825 -0.763212 0.691401 3.5224 228.988 31.4322)" d="M3.11496e-06 1.51652L2.40018e-06 10.5382"></path>
  <path fill="#503F7E" transform="matrix(3.5224 -0.691401 0.691401 3.5224 199.573 56.3766)" d="M-5.1645 -6.50116C-5.1645 -12.7512 6 -12.7512 6 -6.50116C6 -0.251159 6 12.5 6 12.5L-6 12.5C-6 12.5 -5.1645 -0.25116 -5.1645 -6.50116Z"></path>
  <path fill="none" stroke="#161616" stroke-width="0.5" stroke-linecap="round" stroke-linejoin="round" transform="matrix(3.5224 -0.691401 0.691401 3.5224 199.787 36.3582)" d="M-6.96717e-07 3.8412e-06L3.11798e-06 10.5382"></path>
  <path fill="#503F7E" transform="matrix(1.53139 0 0 1.39334 226.982 129.212)" d="M0 -40C20.9426 -40 35.0096 -26.8589 47.8597 -2.20017C49.1253 -3.81498 50.3123 -3.57652 51.1974 -3.11681C52.0824 -2.6571 52.5509 -1.60561 52.2206 -0.665335C53.8523 0.0632067 55.2854 1.47333 55.8775 2.67699C56.9197 4.79567 57.6743 10.5072 53.7931 11.8212C58.5977 31.9882 20.3682 22.0914 -1.32962e-05 22.0914C-20.2357 22.0914 -45.0732 28.3281 -41.8836 12.9784C-44.6787 11.8212 -48.2008 8.95145 -46.5316 4.29176C-45.7036 1.98007 -43.8185 0.567096 -42.3936 0.567005C-41.0392 0.566917 -42.9934 -2.19999 -40.2188 -3.8149C-39.0195 -4.5129 -37.7273 -4.43211 -36.6068 -4.12355C-28.0141 -23.731 -20.4124 -40 0 -40Z"></path>
  <clipPath id="cl_53f">
    <path d="M226.982 73.4783C259.053 73.4783 280.595 91.7884 300.273 126.146C302.211 123.896 304.029 124.229 305.384 124.869C306.74 125.51 307.457 126.975 306.951 128.285C309.45 129.3 311.645 131.265 312.552 132.942C314.148 135.894 315.303 143.852 309.359 145.683C316.717 173.783 258.173 159.993 226.981 159.993C195.993 159.993 157.957 168.683 162.842 147.295C158.561 145.683 153.168 141.684 155.724 135.192C156.992 131.971 159.879 130.002 162.061 130.002C164.135 130.002 161.142 126.147 165.391 123.897C167.228 122.924 169.206 123.037 170.922 123.466C184.081 96.1465 195.722 73.4783 226.982 73.4783Z"></path>
  </clipPath>
  <g clip-path="url(#cl_53f)">
    <path fill="#7463A5" transform="matrix(1.8 2.98023e-08 0.00759348 1.8 223.485 116.204)" d="M1.90735e-06 -5.5C3.866 -5.5 7 -2.92564 7 0.25C7 3.42564 3.866 6 1.90735e-06 6C-3.86599 6 -7 3.42564 -7 0.25C-7 -2.92564 -3.86599 -5.5 1.90735e-06 -5.5Z"></path>
    <path fill="#7463A5" transform="matrix(1.83618 3.04014e-08 0.00759348 1.8 276.034 108.058)" d="M0 -5C2.76142 -5 5 -2.6495 5 0.25C5 3.1495 2.76142 5.5 0 5.5C-2.76142 5.5 -5 3.1495 -5 0.25C-5 -2.6495 -2.76142 -5 0 -5Z"></path>
    <path fill="none" stroke="#131212" stroke-width="1" stroke-linecap="round" stroke-linejoin="round" transform="matrix(2.30699 -0.373724 0.274137 1.69224 254.265 101.362)" d="M4.88246e-07 -4.14104e-07L2.92891 -0.714567"></path>
    <path fill="none" stroke="#131212" stroke-width="1" stroke-linecap="round" stroke-linejoin="round" transform="matrix(2.30699 -0.373724 0.274137 1.69224 232.515 100.532)" d="M-4.76837e-07 7.48094e-06L4.25731 1.79213"></path>
    <path fill="#131212" transform="matrix(2.47104 -0.400299 0.405754 2.50471 246.299 103.642)" d="M-4.99596e-07 3.59921e-06L1.9614 0.352742L0.915089 1.42246L-4.99596e-07 3.59921e-06Z"></path>
    <path fill="none" stroke="#131212" stroke-width="0.5" stroke-linecap="round" stroke-linejoin="round" transform="matrix(1.93759 -0.313883 0.31816 1.96399 249.359 107.178)" d="M1.18428e-07 -0.711232L-3.72341e-06 1.11019"></path>
    <path fill="#32225E" transform="matrix(1.74285 0.441491 -0.424043 1.74552 243.147 95.7767)" d="M-1.93607e-06 -1.92716C1.6285 -1.92716 2.94867 -1.06435 2.94867 -7.67333e-06C2.94867 1.06433 1.6285 1.92715 -1.87863e-06 1.92715C-1.62851 1.92715 -2.94867 1.06433 -2.94867 -7.58546e-06C-2.94867 -1.06435 -1.62851 -1.92716 -1.93607e-06 -1.92716Z"></path>
    <path fill="#32225E" transform="matrix(1.71213 0.433708 -0.412468 1.69787 254.34 94.9018)" d="M-3.8147e-06 -1.89918C0.889985 -1.89918 1.61146 -1.04889 1.61146 7.60538e-06C1.61146 1.0489 0.889985 1.8992 -3.8147e-06 1.8992C-0.889993 1.8992 -1.61147 1.0489 -1.61147 7.65341e-06C-1.61147 -1.04889 -0.889993 -1.89918 -3.8147e-06 -1.89918Z"></path>
  </g>
  <path fill="none" stroke="black" stroke-width="6" stroke-linejoin="round" transform="matrix(1.8 0 0 1.8 170.253 264.061)" d="M-12.4867 29.6544C-49.904 16.3105 -28.5741 -43.4999 8.84324 -30.156C24.7798 -24.4725 50.7886 -16.941 67.5095 -11.661C73.3844 -9.80591 81.6123 1.71632 74.8723 23.9592C68.1324 46.2021 55.1557 51.0286 50.5765 49.5827C33.7577 44.2718 -0.72588 33.8487 -12.4867 29.6544Z"></path>
  <path fill="none" stroke="black" stroke-width="6" stroke-linecap="round" stroke-linejoin="bevel" transform="matrix(1.8 0 0 1.67094 170.253 173.814)" d="M30.4442 39.8198C30.1309 47.6866 29.8614 54.4552 29.722 57.9564C28.0131 100.874 -35.4269 97.9 -33.718 54.9829C-33.289 44.2094 -32.5004 24.4054 -32.0037 11.9312C-31.507 -0.543026 -24.5419 -18.073 -8.47686 -17.3307C-6.67614 -17.2475 -5.02969 -17.1714 -3.51561 -17.1015"></path>
  <path fill="#503F7E" transform="matrix(1.8 0 0 1.67094 170.253 173.814)" d="M-32.0037 11.9312C-31.507 -0.54303 -24.5419 -18.073 -8.47686 -17.3307C7.58817 -16.5884 11.3746 -16.4135 18.4324 -16.0873C25.4901 -15.7612 32.4849 -11.4313 31.8602 4.25632C31.2356 19.944 30.0711 49.1904 29.722 57.9564C28.2189 95.7068 -35.2211 92.7332 -33.718 54.9829C-33.289 44.2094 -32.5004 24.4054 -32.0037 11.9312Z"></path>
  <path fill="none" stroke="black" stroke-width="4" stroke-linejoin="round" transform="matrix(1.8 0 0 1.8 352.158 166.415)" d="M-11.7479 -12.9046C-11.318 -13.5165 -10.7601 -14.1187 -10.0572 -14.7065C-5.47351 -18.5399 3.93804 -16.1165 4.43081 -14.7065C7.46664 -16.1165 10.8961 -16.6614 15.0174 -13.9738C19.1387 -11.2862 16.2386 -4.86793 16.6118 -4.55444C16.985 -4.24095 25.2116 0.494543 17.5976 8.33766C16.6439 8.92035 15.7365 9.39702 14.8735 9.77867"></path>
  <path fill="#7463A5" transform="matrix(1.8 0 0 1.8 352.158 166.415)" d="M-0.116455 0C-2.60165 -0.66394 -7.05858 1.11792 -10.0572 -2.65576C-13.0559 -6.42944 -14.6409 -10.8732 -10.0572 -14.7065C-5.47351 -18.5399 3.93804 -16.1165 4.43081 -14.7065C7.46664 -16.1165 10.8961 -16.6614 15.0174 -13.9738C19.1387 -11.2862 16.2386 -4.86793 16.6118 -4.55444C16.985 -4.24095 25.2116 0.494543 17.5976 8.33766C2.9012 17.3171 -0.809986 1.11792 -0.116455 0Z"></path>
  <path fill="#503F7E" transform="matrix(1.8 0 0 1.8 170.253 264.061)" d="M-12.4867 29.6544C-51.4581 15.7562 -30.1281 -44.0542 8.84324 -30.156C24.7798 -24.4725 50.7886 -16.941 67.5095 -11.661C73.3844 -9.80592 81.6123 1.71632 74.8723 23.9592C68.1324 46.2021 55.1557 51.0286 50.5765 49.5827C33.7577 44.2718 -0.72588 33.8487 -12.4867 29.6544Z"></path>
  <path fill="#312F2F" transform="matrix(0.511151 0.161406 -0.192454 0.609477 271.007 287.282)" d="M0 -128C70.6924 -128 128 -70.6924 128 1.90735e-06C128 70.6924 70.6925 128 7.62939e-06 128C-70.6924 128 -128 70.6924 -128 -1.90735e-06C-128 -70.6924 -70.6924 -128 0 -128Z"></path>
  <path fill="none" stroke="black" stroke-width="7" stroke-miterlimit="4" transform="translate(256 256)" d="M51.2212 -43.0742C87.3558 -31.664 105.62 12.5134 92.0144 55.5988C78.4094 98.6842 38.0875 124.362 1.95296 112.952C-34.1816 101.542 -52.4453 57.3643 -38.8402 14.2789C-25.2352 -28.8065 15.0867 -54.4844 51.2212 -43.0742Z"></path>
  <path fill="none" stroke="black" stroke-width="7" stroke-linejoin="round" transform="translate(256 256)" d="M51.2212 -43.0742C51.2212 -43.0742 41.9565 -45.9997 40.0883 -46.5896C10.5284 -55.0499 -31.998 -47.7186 -50.4203 10.6223C-68.8426 68.9631 -32.1182 102.193 -9.6271 109.295C-7.75891 109.885 1.95296 112.952 1.95296 112.952C1.4427 112.791 0.90228 112.597 0.33487 112.371"></path>
  <path fill="#8D5A3E" transform="matrix(0.511151 0.161406 -0.192454 0.609477 282.587 290.939)" d="M-3.8147e-06 -128C70.6924 -128 128 -70.6924 128 1.90735e-06C128 70.6924 70.6924 128 3.8147e-06 128C-70.6924 128 -128 70.6924 -128 -1.90735e-06C-128 -70.6924 -70.6924 -128 -3.8147e-06 -128Z"></path>
  <path fill="#4B2713" transform="matrix(0.511151 0.161406 -0.192454 0.609477 286.102 291.379)" d="M0.249997 -87.5C51.4744 -87.5 93 -48.4368 93 -0.249995C93 47.9368 51.4744 87 0.250003 87C-50.9744 87 -92.5 47.9368 -92.5 -0.249998C-92.5 -48.4368 -50.9744 -87.5 0.249997 -87.5Z"></path>
  <path fill="#693920" transform="matrix(0.511151 0.161406 -0.192454 0.609477 282.587 290.939)" d="M-2.563e-06 -86C47.4965 -86 86 -47.4965 86 1.2815e-06C86 47.4965 47.4965 86 2.563e-06 86C-47.4965 86 -86 47.4965 -86 -1.2815e-06C-86 -47.4965 -47.4965 -86 -2.563e-06 -86Z"></path>
  <path fill="#1F0D04" transform="matrix(1.21485 0.919896 -0.924368 1.503 266.306 294.14)" d="M0 -6.1709C3.40809 -6.1709 6.1709 -3.40809 6.1709 1.90735e-06C6.1709 3.4081 3.40809 6.1709 0 6.1709C-3.40809 6.1709 -6.1709 3.4081 -6.1709 1.90735e-06C-6.1709 -3.40809 -3.40809 -6.1709 0 -6.1709Z"></path>
  <clipPath id="cl_547">
    <path d="M272.011 284.866C276.151 288.001 276.953 294.695 273.803 299.817C270.653 304.939 264.743 306.55 260.602 303.415C256.462 300.28 255.659 293.586 258.81 288.464C261.96 283.341 267.87 281.73 272.011 284.866Z"></path>
  </clipPath>
  <g clip-path="url(#cl_547)">
    <path fill="#2F1507" transform="matrix(1.21485 0.919896 -0.924368 1.503 263.443 295.534)" d="M0 -6.1709C3.40809 -6.1709 6.1709 -3.40809 6.1709 9.53674e-07C6.1709 3.40809 3.40809 6.1709 0 6.1709C-3.40809 6.1709 -6.1709 3.40809 -6.1709 9.53674e-07C-6.1709 -3.40809 -3.40809 -6.1709 0 -6.1709Z"></path>
  </g>
  <path fill="#1F0D04" transform="matrix(1.21485 0.919896 -0.924368 1.503 279.956 271.947)" d="M0 -6.1709C3.40809 -6.1709 6.1709 -3.40809 6.1709 4.76837e-07C6.1709 3.40809 3.40809 6.1709 0 6.1709C-3.40809 6.1709 -6.1709 3.40809 -6.1709 4.76837e-07C-6.1709 -3.40809 -3.40809 -6.1709 0 -6.1709Z"></path>
  <clipPath id="cl_548">
    <path d="M285.66 262.672C289.801 265.807 290.603 272.501 287.453 277.623C284.302 282.746 278.392 284.357 274.252 281.221C270.112 278.086 269.309 271.392 272.459 266.27C275.61 261.148 281.52 259.537 285.66 262.672Z"></path>
  </clipPath>
  <g clip-path="url(#cl_548)">
    <path fill="#2F1507" transform="matrix(1.21485 0.919896 -0.924368 1.503 276.384 274.492)" d="M1.90735e-06 -6.1709C3.4081 -6.1709 6.1709 -3.40809 6.1709 8.34465e-07C6.1709 3.40809 3.4081 6.1709 1.90735e-06 6.1709C-3.40809 6.1709 -6.1709 3.40809 -6.1709 8.34465e-07C-6.1709 -3.40809 -3.40809 -6.1709 1.90735e-06 -6.1709Z"></path>
  </g>
  <path fill="#1F0D04" transform="matrix(1.21485 0.919896 -0.924368 1.503 285.436 308.626)" d="M-3.8147e-06 -6.1709C3.40809 -6.1709 6.17089 -3.40809 6.17089 0C6.17089 3.40809 3.40809 6.1709 -3.8147e-06 6.1709C-3.4081 6.1709 -6.1709 3.40809 -6.1709 0C-6.1709 -3.40809 -3.4081 -6.1709 -3.8147e-06 -6.1709Z"></path>
  <clipPath id="cl_549">
    <path d="M291.14 299.351C295.28 302.486 296.083 309.18 292.933 314.302C289.782 319.424 283.872 321.035 279.732 317.9C275.592 314.765 274.789 308.071 277.939 302.949C281.09 297.827 287 296.216 291.14 299.351Z"></path>
  </clipPath>
  <g clip-path="url(#cl_549)">
    <path fill="#2F1507" transform="matrix(1.21485 0.919896 -0.924368 1.503 283.343 309.501)" d="M-3.8147e-06 -6.1709C3.40809 -6.1709 6.17089 -3.40809 6.17089 0C6.17089 3.40809 3.40809 6.1709 -3.8147e-06 6.1709C-3.4081 6.1709 -6.1709 3.40809 -6.1709 0C-6.1709 -3.40809 -3.4081 -6.1709 -3.8147e-06 -6.1709Z"></path>
  </g>
  <path fill="#1F0D04" transform="matrix(1.21485 0.919896 -0.924368 1.503 299.086 286.432)" d="M-3.8147e-06 -6.1709C3.40809 -6.1709 6.17089 -3.40809 6.17089 1.19209e-06C6.17089 3.40809 3.40809 6.1709 -3.8147e-06 6.1709C-3.4081 6.1709 -6.1709 3.40809 -6.1709 1.19209e-06C-6.1709 -3.40809 -3.4081 -6.1709 -3.8147e-06 -6.1709Z"></path>
  <clipPath id="cl_54a">
    <path d="M304.79 277.157C308.93 280.292 309.733 286.986 306.582 292.108C303.432 297.231 297.522 298.842 293.381 295.707C289.241 292.571 288.439 285.877 291.589 280.755C294.739 275.633 300.649 274.022 304.79 277.157Z"></path>
  </clipPath>
  <g clip-path="url(#cl_54a)">
    <path fill="#2F1507" transform="matrix(1.21485 0.919896 -0.924368 1.503 295.069 287.539)" d="M3.8147e-06 -6.1709C3.4081 -6.1709 6.1709 -3.40809 6.1709 7.7486e-07C6.1709 3.40809 3.4081 6.1709 3.8147e-06 6.1709C-3.40809 6.1709 -6.17089 3.40809 -6.17089 7.7486e-07C-6.17089 -3.40809 -3.40809 -6.1709 3.8147e-06 -6.1709Z"></path>
  </g>
  <path fill="none" stroke="#E3CEC2" stroke-width="4" stroke-linecap="round" stroke-linejoin="round" transform="matrix(1.21485 0.919896 -0.924368 1.503 279.183 270.859)" d="M2.42519 2.41434L15.2044 14.4568"></path>
  <path fill="none" stroke="#C8AD9D" stroke-width="4" stroke-linecap="round" stroke-linejoin="round" transform="matrix(1.21485 0.919896 -0.924368 1.503 279.183 270.859)" d="M3.28776 13.1788L15.6779 1.98902"></path>
  <path fill="#4B2713" transform="matrix(0.609477 0.192454 -0.192454 0.609477 307.221 212.926)" d="M0 7.62939e-06C0 7.62939e-06 -15.2012 0 -18.2664 -7.62939e-06C-66.3551 1.30369 -126.35 32.2772 -126.35 128C-126.35 223.723 -55.9022 256 -19 256C-15.9348 256 7.15256e-06 256 4.29153e-06 256C-25.5439 256 -107.35 223.723 -107.35 128C-107.35 32.2772 -25.5438 0 0 7.62939e-06Z"></path>
</svg>