<?xml version="1.0" encoding="utf-8"?>
<svg xmlns="http://www.w3.org/2000/svg" xmlns:xlink="http://www.w3.org/1999/xlink" width="512" height="512">
  <path fill="none" stroke="black" stroke-width="6" stroke-linejoin="round" transform="matrix(1.8 0 0 1.52279 359.051 170.683)" d="M-14.2199 -17.542C-10.4287 -17.849 -7.73406 -18.0671 -4.23362 -18.3505C2.8141 -18.9211 10.1894 -15.5058 11.0971 0.159607C12.0047 15.825 13.6969 45.0299 14.2041 53.7835C16.6873 96.6396 -46.6667 101.726 -49.1499 58.8702C-49.7732 48.112 -50.9191 28.3361 -51.6409 15.8796C-52.3626 3.42311 -47.1469 -14.8764 -31.1046 -16.1751C-30.0105 -16.2637 -28.9734 -16.3476 -27.9884 -16.4274"></path>
  <path fill="none" stroke="black" stroke-width="6" stroke-linejoin="round" transform="matrix(1.8 0 0 1.64041 359.051 252.929)" d="M-49.2541 -2.53647C-45.4625 -45.0548 17.7606 -40.2035 13.969 2.31478C12.4638 19.1931 9.95298 47.3493 8.39314 64.8411C7.84509 70.9869 -1.63433 81.6246 -24.7971 80.119C-47.9599 78.6133 -55.4612 67.0688 -55.034 62.2785C-53.465 44.6842 -50.3648 9.91936 -49.2541 -2.53647Z"></path>
  <path fill="#503F7E" transform="matrix(1.8 0 0 1.52279 359.051 170.683)" d="M-51.6409 15.8796C-52.3626 3.4231 -47.1469 -14.8764 -31.1046 -16.1751C-15.0624 -17.4739 -11.2814 -17.78 -4.23362 -18.3505C2.8141 -18.9211 10.1894 -15.5058 11.0971 0.159607C12.0047 15.825 13.6969 45.0299 14.2041 53.7835C16.6873 96.6396 -46.6667 101.726 -49.1499 58.8702C-49.7732 48.112 -50.9191 28.3361 -51.6409 15.8796Z"></path>
  <path fill="#503F7E" transform="matrix(1.8 0 0 1.64041 359.051 252.929)" d="M-49.2541 -2.53647C-45.4625 -45.0548 17.7606 -40.2035 13.969 2.31477C12.4638 19.1931 9.95298 47.3493 8.39314 64.8411C7.84509 70.9869 -1.63433 81.6246 -24.7971 80.119C-47.9599 78.6133 -55.4612 67.0688 -55.034 62.2785C-53.465 44.6842 -50.3648 9.91936 -49.2541 -2.53647Z"></path>
  <path fill="none" stroke="black" stroke-width="5" stroke-linejoin="round" transform="matrix(1.67985 0 0 1.8 269.501 356.202)" d="M-5.06253 -15.5828C13.0892 -17.1104 31.482 -11.1078 30.9379 36.0401C31.2132 50.0739 31.958 68.2904 16.222 75.4096C4.7081 74.3563 -8.24092 74.0853 -24.6149 72.4533C-34.5816 62.912 -31.5825 51.2438 -31.9405 34.5095C-32.0196 -11.7462 -23.2143 -14.0553 -5.06253 -15.5828Z"></path>
  <path fill="#453279" transform="matrix(1.67985 0 0 1.8 269.501 356.202)" d="M-5.06253 -15.5828C13.0892 -17.1104 31.482 -11.1078 30.9379 36.0401C31.2132 50.0739 31.958 68.2904 16.222 75.4096C4.7081 74.3563 -8.24092 74.0853 -24.6149 72.4533C-34.5816 62.912 -31.5825 51.2438 -31.9405 34.5095C-32.0196 -11.7462 -23.2143 -14.0553 -5.06253 -15.5828Z"></path>
  <path fill="none" stroke="black" stroke-width="5" stroke-linejoin="round" transform="matrix(1.67985 0 0 1.8 191.63 362.835)" d="M5.2816 -14.3471C23.5062 -14.1872 36.4093 -9.90181 35.9319 37.4849C36.3571 56.3659 39.0404 69.1231 23.5148 75.6423C8.04113 76.0138 -2.64587 76.2202 -17.4824 75.8799C-32.2667 69.203 -27.5642 52.5219 -27.2663 36.0273C-27.414 -10.4619 -12.943 -14.5071 5.2816 -14.3471Z"></path>
  <path fill="none" stroke="black" stroke-width="5" stroke-linejoin="round" transform="matrix(1.79976 0.0276995 -0.0293645 1.69771 274.681 280.741)" d="M-11.3238 -80.2543C25.8014 -80.2543 54.9476 -94.6926 58.9092 -40.8672C62.8708 12.9582 37.0524 74.7499 0.0572909 75.3534C-14.1177 75.5847 -17.7665 75.6442 -48.2096 76.1409C-78.6526 76.6376 -84.25 60.12 -84.25 9.53674e-07C-86.6294 -86.0849 -88.6034 -78.4854 -12.7475 -80.2208"></path>
  <path fill="#503F7E" transform="matrix(1.67985 0 0 1.8 191.63 362.835)" d="M5.2816 -14.3471C23.5062 -14.1872 36.4093 -9.90181 35.9319 37.4849C36.3571 56.3659 39.0404 69.1231 23.5148 75.6423C8.04113 76.0138 -2.64587 76.2202 -17.4824 75.8799C-32.2667 69.203 -27.5642 52.5219 -27.2663 36.0273C-27.414 -10.4619 -12.943 -14.5071 5.2816 -14.3471Z"></path>
  <path fill="none" stroke="black" stroke-width="5" stroke-linejoin="round" transform="matrix(1.53139 0 0 1.39334 226.982 127.823)" d="M0 -40C20.9426 -40 35.0096 -26.8589 47.8597 -2.20018C49.1253 -3.81499 50.3123 -3.57653 51.1974 -3.11682C52.0824 -2.65711 52.5509 -1.60562 52.2206 -0.665342C53.8523 0.0631991 55.2854 1.47333 55.8775 2.67698C56.9197 4.79566 57.6743 10.5072 53.7931 11.8212C58.5977 31.9882 20.3682 22.0914 -1.32962e-05 22.0914C-20.2357 22.0914 -45.0732 28.3281 -41.8836 12.9784C-44.6787 11.8212 -48.2008 8.95144 -46.5316 4.29175C-45.7036 1.98006 -43.8185 0.567089 -42.3936 0.566997C-41.0392 0.56691 -42.9934 -2.2 -40.2188 -3.81491C-39.0195 -4.51291 -37.7273 -4.43211 -36.6068 -4.12355C-28.0141 -23.7311 -20.4124 -40 0 -40Z"></path>
  <path fill="#503F7E" transform="matrix(1.79976 0.0276995 -0.0293645 1.69771 274.681 280.741)" d="M-11.3238 -80.2543C25.8014 -80.2543 54.9476 -94.6926 58.9092 -40.8672C62.8708 12.9582 37.0524 74.7499 0.0572909 75.3534C-14.1177 75.5847 -17.7665 75.6442 -48.2096 76.1409C-78.6526 76.6376 -84.25 60.12 -84.25 9.53674e-07C-86.6442 -86.62 -88.6279 -78.3873 -11.3238 -80.2543Z"></path>
  <clipPath id="cl_572">
    <path d="M256.658 144.179C323.474 145.207 376.354 121.502 381.904 212.992C387.453 304.482 339.172 408.671 272.572 408.671C247.053 408.671 240.485 408.671 185.68 408.671C130.875 408.671 121.286 380.474 123.052 278.407C121.286 131.285 117.474 145.207 256.658 144.179Z"></path>
  </clipPath>
  <g clip-path="url(#cl_572)">
    <path fill="#655494" transform="matrix(1.8 0 0 1.8 311.807 262.82)" d="M-0.158648 -48.2655C25.513 -48.2655 46.324 -26.6563 46.324 0C46.324 26.6563 25.513 48.2655 -0.158648 48.2655C-25.8303 48.2655 -46.6413 26.6563 -46.6413 0C-46.6413 -26.6563 -25.8303 -48.2655 -0.158648 -48.2655Z"></path>
  </g>
  <path fill="none" stroke="black" stroke-width="2" stroke-linejoin="round" transform="matrix(3.88825 -0.763212 0.691401 3.5224 233.781 49.5749)" d="M-4.34758 -5.25471C-4.34758 -11.5047 3.66088 -11.5047 3.66088 -5.25472C3.66088 0.995284 3.66088 12.5 3.66088 12.5L-4.57314 12.5C-4.57314 12.5 -4.34758 0.995284 -4.34758 -5.25471Z"></path>
  <path fill="none" stroke="black" stroke-width="2" stroke-linejoin="round" transform="matrix(3.5224 -0.691401 0.691401 3.5224 199.573 54.9877)" d="M-5.1645 -6.50117C-5.1645 -12.7512 6 -12.7512 6 -6.50117C6 -0.251166 6 12.5 6 12.5L-6 12.5C-6 12.5 -5.1645 -0.251167 -5.1645 -6.50117Z"></path>
  <path fill="#453279" transform="matrix(3.88825 -0.763212 0.691401 3.5224 233.781 49.5749)" d="M-4.34758 -5.25471C-4.34758 -11.5047 3.66088 -11.5047 3.66088 -5.25472C3.66088 0.995284 3.66088 12.5 3.66088 12.5L-4.57314 12.5C-4.57314 12.5 -4.34758 0.995284 -4.34758 -5.25471Z"></path>
  <path fill="none" stroke="#161616" stroke-width="0.5" stroke-linecap="round" stroke-linejoin="round" transform="matrix(3.88825 -0.763212 0.691401 3.5224 228.988 30.0432)" d="M3.59179e-06 1.51652L2.87701e-06 10.5382"></path>
  <path fill="#503F7E" transform="matrix(3.5224 -0.691401 0.691401 3.5224 199.573 54.9877)" d="M-5.1645 -6.50117C-5.1645 -12.7512 6 -12.7512 6 -6.50117C6 -0.251166 6 12.5 6 12.5L-6 12.5C-6 12.5 -5.1645 -0.251167 -5.1645 -6.50117Z"></path>
  <path fill="none" stroke="#161616" stroke-width="0.5" stroke-linecap="round" stroke-linejoin="round" transform="matrix(3.5224 -0.691401 0.691401 3.5224 199.787 34.9692)" d="M-2.19879e-07 3.8412e-06L3.59482e-06 10.5382"></path>
  <path fill="#503F7E" transform="matrix(1.53139 0 0 1.39334 226.982 127.823)" d="M0 -40C20.9426 -40 35.0096 -26.8589 47.8597 -2.20018C49.1253 -3.81499 50.3123 -3.57653 51.1974 -3.11682C52.0824 -2.65711 52.5509 -1.60562 52.2206 -0.665342C53.8523 0.0631991 55.2854 1.47333 55.8775 2.67698C56.9197 4.79566 57.6743 10.5072 53.7931 11.8212C58.5977 31.9882 20.3682 22.0914 -1.32962e-05 22.0914C-20.2357 22.0914 -45.0732 28.3281 -41.8836 12.9784C-44.6787 11.8212 -48.2008 8.95144 -46.5316 4.29175C-45.7036 1.98006 -43.8185 0.567089 -42.3936 0.566997C-41.0392 0.56691 -42.9934 -2.2 -40.2188 -3.81491C-39.0195 -4.51291 -37.7273 -4.43211 -36.6068 -4.12355C-28.0141 -23.7311 -20.4124 -40 0 -40Z"></path>
  <clipPath id="cl_573">
    <path d="M226.982 72.0894C259.053 72.0894 280.595 90.3994 300.273 124.757C302.211 122.507 304.029 122.84 305.384 123.48C306.74 124.121 307.457 125.586 306.951 126.896C309.45 127.911 311.645 129.876 312.552 131.553C314.148 134.505 315.303 142.463 309.359 144.294C316.717 172.394 258.173 158.604 226.981 158.604C195.993 158.604 157.957 167.294 162.842 145.906C158.561 144.294 153.168 140.296 155.724 133.803C156.992 130.582 159.879 128.613 162.061 128.613C164.135 128.613 161.142 124.758 165.391 122.508C167.228 121.535 169.206 121.648 170.922 122.078C184.081 94.7576 195.722 72.0894 226.982 72.0894Z"></path>
  </clipPath>
  <g clip-path="url(#cl_573)">
    <path fill="#7463A5" transform="matrix(1.8 2.98023e-08 0.00759348 1.8 223.564 114.083)" d="M0 -5.5C3.86599 -5.5 7 -2.92564 7 0.25C7 3.42564 3.86599 6 0 6C-3.86599 6 -7 3.42564 -7 0.25C-7 -2.92564 -3.86599 -5.5 0 -5.5Z"></path>
    <path fill="#7463A5" transform="matrix(1.83618 3.04014e-08 0.00759348 1.8 276.113 105.937)" d="M-9.53674e-07 -5.00001C2.76142 -5.00001 5 -2.6495 5 0.249992C5 3.14949 2.76142 5.49999 -9.53674e-07 5.49999C-2.76142 5.49999 -5 3.14949 -5 0.249992C-5 -2.6495 -2.76142 -5.00001 -9.53674e-07 -5.00001Z"></path>
    <path fill="none" stroke="#131212" stroke-width="1" stroke-linecap="round" stroke-linejoin="round" transform="matrix(2.30699 -0.373724 0.274137 1.69224 254.344 99.2415)" d="M1.44192e-06 -4.14104e-07L2.92891 -0.714567"></path>
    <path fill="none" stroke="#131212" stroke-width="1" stroke-linecap="round" stroke-linejoin="round" transform="matrix(2.30699 -0.373724 0.274137 1.69224 232.594 98.4118)" d="M9.53674e-07 7.48094e-06L4.25731 1.79213"></path>
    <path fill="#131212" transform="matrix(2.47104 -0.400299 0.405754 2.50471 246.378 101.522)" d="M-4.99596e-07 -2.15485e-07L1.9614 0.352738L0.915089 1.42246L-4.99596e-07 -2.15485e-07Z"></path>
    <path fill="none" stroke="#131212" stroke-width="0.5" stroke-linecap="round" stroke-linejoin="round" transform="matrix(1.93759 -0.313883 0.31816 1.96399 249.438 105.057)" d="M1.18428e-07 -0.711232L-3.72341e-06 1.11019"></path>
    <path fill="#32225E" transform="matrix(1.74285 0.441491 -0.424043 1.74552 243.226 93.6564)" d="M-2.87169e-08 -1.92716C1.62851 -1.92716 2.94867 -1.06434 2.94867 -4.39386e-08C2.94867 1.06434 1.62851 1.92716 2.87169e-08 1.92716C-1.62851 1.92716 -2.94867 1.06434 -2.94867 4.39386e-08C-2.94867 -1.06434 -1.62851 -1.92716 -2.87169e-08 -1.92716Z"></path>
    <path fill="#32225E" transform="matrix(1.71213 0.433708 -0.412468 1.69787 254.419 92.7815)" d="M-3.8147e-06 -1.89919C0.889985 -1.89919 1.61146 -1.04889 1.61146 -2.40127e-08C1.61146 1.04889 0.889985 1.89919 -3.8147e-06 1.89919C-0.889993 1.89919 -1.61147 1.04889 -1.61147 2.40127e-08C-1.61147 -1.04889 -0.889993 -1.89919 -3.8147e-06 -1.89919Z"></path>
  </g>
  <path fill="none" stroke="black" stroke-width="6" stroke-linejoin="round" transform="matrix(1.8 0 0 1.8 170.253 263.266)" d="M-13.9825 29.4014C-51.1427 15.3572 -28.6934 -44.0421 8.46676 -29.9979C24.2938 -24.0163 50.1566 -15.9976 66.7754 -10.4047C72.6144 -8.43956 80.6245 3.23514 73.4681 25.3476C66.3117 47.46 53.2467 52.042 48.6954 50.5103C31.9793 44.8845 -2.3025 33.8157 -13.9825 29.4014Z"></path>
  <path fill="none" stroke="black" stroke-width="6" stroke-linecap="round" stroke-linejoin="bevel" transform="matrix(1.8 0 0 1.67094 170.253 173.019)" d="M29.7447 40.4296C29.2945 48.2862 28.9072 55.0456 28.7068 58.5426C26.2502 101.418 -37.1268 97.1613 -34.6702 54.2863C-34.0535 43.5234 -32.9198 23.7388 -32.2058 11.2769C-31.4917 -1.18507 -24.2223 -18.5711 -8.173 -17.504C-6.36183 -17.3835 -4.70688 -17.2735 -3.18583 -17.1724"></path>
  <path fill="#503F7E" transform="matrix(1.8 0 0 1.67094 170.253 173.019)" d="M-32.2058 11.2769C-31.4917 -1.18508 -24.2223 -18.5711 -8.173 -17.504C7.87627 -16.4368 11.659 -16.1853 18.7098 -15.7165C25.7606 -15.2477 32.6787 -10.7771 31.7807 4.8952C30.8827 20.5674 29.2086 49.7852 28.7068 58.5426C26.5459 96.2559 -36.8311 91.9996 -34.6702 54.2863C-34.0535 43.5234 -32.9198 23.7388 -32.2058 11.2769Z"></path>
  <path fill="none" stroke="black" stroke-width="4" stroke-linejoin="round" transform="matrix(1.8 0 0 1.8 352.158 165.62)" d="M-11.7479 -12.9046C-11.318 -13.5165 -10.7601 -14.1187 -10.0572 -14.7065C-5.47351 -18.5399 3.93804 -16.1165 4.43081 -14.7065C7.46664 -16.1165 10.8961 -16.6614 15.0174 -13.9738C19.1387 -11.2862 16.2386 -4.86793 16.6118 -4.55444C16.985 -4.24095 25.2116 0.494543 17.5976 8.33766C16.6439 8.92035 15.7365 9.39702 14.8735 9.77867"></path>
  <path fill="#7463A5" transform="matrix(1.8 0 0 1.8 352.158 165.62)" d="M-0.116455 0C-2.60165 -0.66394 -7.05858 1.11792 -10.0572 -2.65576C-13.0559 -6.42944 -14.6409 -10.8732 -10.0572 -14.7065C-5.47351 -18.5399 3.93804 -16.1165 4.43081 -14.7065C7.46664 -16.1165 10.8961 -16.6614 15.0174 -13.9738C19.1387 -11.2862 16.2386 -4.86793 16.6118 -4.55444C16.985 -4.24095 25.2116 0.494543 17.5976 8.33766C2.9012 17.3171 -0.809986 1.11792 -0.116455 0Z"></path>
  <path fill="#503F7E" transform="matrix(1.8 0 0 1.8 170.253 263.266)" d="M-13.9825 29.4014C-52.686 14.7739 -30.2367 -44.6255 8.46676 -29.9979C24.2938 -24.0163 50.1566 -15.9976 66.7754 -10.4047C72.6144 -8.43956 80.6245 3.23514 73.4681 25.3476C66.3117 47.46 53.2467 52.042 48.6954 50.5103C31.9793 44.8845 -2.3025 33.8157 -13.9825 29.4014Z"></path>
  <path fill="#312F2F" transform="matrix(0.50803 0.170975 -0.203865 0.605756 268.859 288.351)" d="M0 -128C70.6925 -128 128 -70.6925 128 -7.62939e-06C128 70.6924 70.6925 128 0 128C-70.6925 128 -128 70.6925 -128 0C-128 -70.6925 -70.6925 -128 0 -128Z"></path>
  <path fill="none" stroke="black" stroke-width="7" stroke-miterlimit="4" transform="translate(256 256)" d="M50.4632 -41.3123C86.3771 -29.2257 103.808 15.2869 89.3964 58.1093C74.9847 100.932 34.1877 125.848 -1.72617 113.761C-37.6401 101.674 -55.0711 57.1619 -40.6594 14.3395C-26.2477 -28.4828 14.5493 -53.399 50.4632 -41.3123Z"></path>
  <path fill="none" stroke="black" stroke-width="7" stroke-linejoin="round" transform="translate(256 256)" d="M50.4632 -41.3123C50.4632 -41.3123 41.255 -44.4113 39.3982 -45.0362C10.0024 -54.0501 -32.6542 -47.5185 -52.1687 10.4661C-71.6832 68.4508 -35.5892 102.365 -13.2355 109.888C-11.3787 110.513 -1.72617 113.761 -1.72617 113.761C-2.23331 113.59 -2.76998 113.386 -3.33303 113.149"></path>
  <path fill="#8D5A3E" transform="matrix(0.50803 0.170975 -0.203865 0.605756 280.368 292.224)" d="M-7.62939e-06 -128C70.6924 -128 128 -70.6925 128 -3.8147e-06C128 70.6924 70.6924 128 -7.62939e-06 128C-70.6925 128 -128 70.6925 -128 3.8147e-06C-128 -70.6924 -70.6925 -128 -7.62939e-06 -128Z"></path>
  <path fill="#4B2713" transform="matrix(0.50803 0.170975 -0.203865 0.605756 283.875 292.73)" d="M0.25 -87.5C51.4744 -87.5 93 -48.4369 93 -0.250007C93 47.9368 51.4744 87 0.25 87C-50.9744 87 -92.5 47.9368 -92.5 -0.250001C-92.5 -48.4368 -50.9744 -87.5 0.25 -87.5Z"></path>
  <path fill="#693920" transform="matrix(0.50803 0.170975 -0.203865 0.605756 280.368 292.224)" d="M-7.62939e-06 -86C47.4965 -86 86 -47.4965 86 -2.563e-06C86 47.4965 47.4965 86 -7.62939e-06 86C-47.4965 86 -86 47.4965 -86 2.563e-06C-86 -47.4965 -47.4965 -86 -7.62939e-06 -86Z"></path>
  <path fill="#1F0D04" transform="matrix(1.19736 0.942546 -0.952428 1.48538 264.031 295.12)" d="M0 -6.1709C3.40809 -6.1709 6.1709 -3.40809 6.1709 -9.53674e-07C6.1709 3.40809 3.40809 6.1709 0 6.1709C-3.40809 6.1709 -6.1709 3.40809 -6.1709 -9.53674e-07C-6.1709 -3.40809 -3.40809 -6.1709 0 -6.1709Z"></path>
  <clipPath id="cl_57b">
    <path d="M269.908 285.954C273.989 289.166 274.665 295.874 271.419 300.936C268.173 305.998 262.234 307.498 258.153 304.286C254.073 301.074 253.396 294.366 256.642 289.303C259.888 284.241 265.827 282.741 269.908 285.954Z"></path>
  </clipPath>
  <g clip-path="url(#cl_57b)">
    <path fill="#2F1507" transform="matrix(1.19736 0.942546 -0.952428 1.48538 261.142 296.459)" d="M0 -6.1709C3.40809 -6.1709 6.1709 -3.40809 6.1709 0C6.1709 3.40809 3.40809 6.1709 0 6.1709C-3.40809 6.1709 -6.1709 3.40809 -6.1709 0C-6.1709 -3.40809 -3.40809 -6.1709 0 -6.1709Z"></path>
  </g>
  <path fill="#1F0D04" transform="matrix(1.19736 0.942546 -0.952428 1.48538 278.095 273.186)" d="M-1.90735e-06 -6.1709C3.40809 -6.1709 6.1709 -3.40809 6.1709 2.08616e-07C6.1709 3.40809 3.40809 6.1709 -1.90735e-06 6.1709C-3.4081 6.1709 -6.1709 3.40809 -6.1709 2.08616e-07C-6.1709 -3.40809 -3.4081 -6.1709 -1.90735e-06 -6.1709Z"></path>
  <clipPath id="cl_57c">
    <path d="M283.972 264.02C288.053 267.232 288.729 273.94 285.483 279.002C282.237 284.065 276.298 285.564 272.217 282.352C268.136 279.14 267.46 272.432 270.706 267.37C273.952 262.307 279.891 260.808 283.972 264.02Z"></path>
  </clipPath>
  <g clip-path="url(#cl_57c)">
    <path fill="#2F1507" transform="matrix(1.19736 0.942546 -0.952428 1.48538 274.476 275.664)" d="M1.90735e-06 -6.1709C3.4081 -6.1709 6.1709 -3.40809 6.1709 0C6.1709 3.40809 3.4081 6.1709 1.90735e-06 6.1709C-3.40809 6.1709 -6.1709 3.40809 -6.1709 0C-6.1709 -3.40809 -3.40809 -6.1709 1.90735e-06 -6.1709Z"></path>
  </g>
  <path fill="#1F0D04" transform="matrix(1.19736 0.942546 -0.952428 1.48538 282.885 309.961)" d="M0 -6.1709C3.40809 -6.1709 6.1709 -3.40809 6.1709 -9.53674e-07C6.1709 3.40809 3.40809 6.1709 0 6.1709C-3.40809 6.1709 -6.1709 3.40809 -6.1709 -9.53674e-07C-6.1709 -3.40809 -3.40809 -6.1709 0 -6.1709Z"></path>
  <clipPath id="cl_57d">
    <path d="M288.762 300.795C292.843 304.008 293.52 310.716 290.274 315.778C287.028 320.84 281.088 322.34 277.007 319.128C272.927 315.915 272.25 309.207 275.496 304.145C278.742 299.083 284.681 297.583 288.762 300.795Z"></path>
  </clipPath>
  <g clip-path="url(#cl_57d)">
    <path fill="#2F1507" transform="matrix(1.19736 0.942546 -0.952428 1.48538 280.776 310.797)" d="M0 -6.1709C3.40809 -6.1709 6.1709 -3.40809 6.1709 -9.53674e-07C6.1709 3.40809 3.40809 6.1709 0 6.1709C-3.40809 6.1709 -6.1709 3.40809 -6.1709 -9.53674e-07C-6.1709 -3.40809 -3.40809 -6.1709 0 -6.1709Z"></path>
  </g>
  <path fill="#1F0D04" transform="matrix(1.19736 0.942546 -0.952428 1.48538 296.949 288.028)" d="M0 -6.1709C3.40809 -6.1709 6.1709 -3.40809 6.1709 -1.46031e-06C6.1709 3.40809 3.40809 6.1709 0 6.1709C-3.40809 6.1709 -6.1709 3.40809 -6.1709 -1.46031e-06C-6.1709 -3.40809 -3.40809 -6.1709 0 -6.1709Z"></path>
  <clipPath id="cl_57e">
    <path d="M302.826 278.862C306.907 282.074 307.583 288.782 304.337 293.844C301.091 298.906 295.152 300.406 291.071 297.194C286.991 293.982 286.314 287.274 289.56 282.211C292.806 277.149 298.745 275.649 302.826 278.862Z"></path>
  </clipPath>
  <g clip-path="url(#cl_57e)">
    <path fill="#2F1507" transform="matrix(1.19736 0.942546 -0.952428 1.48538 292.912 289.059)" d="M0 -6.1709C3.40809 -6.1709 6.1709 -3.40809 6.1709 -8.99163e-07C6.1709 3.40809 3.40809 6.1709 0 6.1709C-3.40809 6.1709 -6.1709 3.40809 -6.1709 -5.31349e-07C-6.1709 -3.40809 -3.40809 -6.1709 0 -6.1709Z"></path>
  </g>
  <path fill="none" stroke="#E3CEC2" stroke-width="4" stroke-linecap="round" stroke-linejoin="round" transform="matrix(1.19736 0.942546 -0.952428 1.48538 277.342 272.084)" d="M2.42519 2.41434L15.2044 14.4568"></path>
  <path fill="none" stroke="#C8AD9D" stroke-width="4" stroke-linecap="round" stroke-linejoin="round" transform="matrix(1.19736 0.942546 -0.952428 1.48538 277.342 272.084)" d="M3.28776 13.1788L15.6779 1.98902"></path>
  <path fill="#4B2713" transform="matrix(0.605756 0.203865 -0.203865 0.605756 306.463 214.688)" d="M0 -1.52588e-05C0 -1.52588e-05 -15.2012 -1.52588e-05 -18.2664 0C-66.3551 1.30368 -126.35 32.2772 -126.35 128C-126.35 223.723 -55.9022 256 -19 256C-15.9348 256 -2.86102e-06 256 -1.90735e-06 256C-25.5438 256 -107.35 223.723 -107.35 128C-107.35 32.2772 -25.5439 -1.52588e-05 0 -1.52588e-05Z"></path>
</svg>