<?xml version="1.0" encoding="utf-8"?>
<svg xmlns="http://www.w3.org/2000/svg" xmlns:xlink="http://www.w3.org/1999/xlink" width="512" height="512">
  <path fill="none" stroke="black" stroke-width="6" stroke-linejoin="round" transform="matrix(1.8 0 0 1.52279 359.051 170.517)" d="M-14.2749 -17.563C-10.4778 -17.8834 -7.78167 -18.1108 -4.27808 -18.4064C2.76823 -19.0008 10.1518 -15.6105 11.0974 0.0517082C12.0431 15.7139 13.8061 44.913 14.3345 53.6648C16.9216 96.5124 -46.4198 101.814 -49.0069 58.9662C-49.6563 48.2101 -50.8501 28.4382 -51.6021 15.9842C-52.3541 3.53019 -47.1827 -14.7869 -31.1437 -16.14C-30.0543 -16.2319 -29.0215 -16.319 -28.0404 -16.4018"></path>
  <path fill="none" stroke="black" stroke-width="6" stroke-linejoin="round" transform="matrix(1.8 0 0 1.64041 359.051 252.763)" d="M-49.1312 -2.42555C-45.4796 -44.9577 17.7595 -40.3485 14.1079 2.18369C12.6583 19.0675 10.2402 47.2329 8.73795 64.7304C8.21014 70.8782 -1.23428 81.552 -24.4021 80.1351C-47.5698 78.7181 -55.1092 67.2025 -54.6978 62.4106C-53.1867 44.8106 -50.201 10.0343 -49.1312 -2.42555Z"></path>
  <path fill="#503F7E" transform="matrix(1.8 0 0 1.52279 359.051 170.517)" d="M-51.6021 15.9842C-52.3541 3.53019 -47.1827 -14.7869 -31.1437 -16.14C-15.1047 -17.493 -11.3244 -17.812 -4.27808 -18.4064C2.76823 -19.0008 10.1518 -15.6105 11.0974 0.051712C12.0431 15.7139 13.8061 44.913 14.3345 53.6648C16.9216 96.5124 -46.4198 101.814 -49.0069 58.9662C-49.6564 48.2101 -50.8501 28.4382 -51.6021 15.9842Z"></path>
  <path fill="#503F7E" transform="matrix(1.8 0 0 1.64041 359.051 252.763)" d="M-49.1312 -2.42555C-45.4796 -44.9577 17.7595 -40.3485 14.1079 2.18369C12.6583 19.0675 10.2402 47.2329 8.73795 64.7304C8.21014 70.8782 -1.23428 81.552 -24.4021 80.1351C-47.5698 78.7181 -55.1092 67.2025 -54.6978 62.4106C-53.1867 44.8106 -50.201 10.0343 -49.1312 -2.42555Z"></path>
  <path fill="none" stroke="black" stroke-width="5" stroke-linejoin="round" transform="matrix(1.67985 0 0 1.8 269.501 356.202)" d="M-3.95755 -15.6258C14.2335 -16.6695 31.003 -11.1983 30.5438 36.072C30.8456 50.1415 32.6523 67.5565 16.9817 75.3464C5.45378 74.4362 -7.49795 74.3262 -23.8938 72.8978C-33.9873 63.3505 -32.1097 51.4146 -32.4993 34.6378C-32.6634 -11.7369 -22.1486 -14.5821 -3.95755 -15.6258Z"></path>
  <path fill="#453279" transform="matrix(1.67985 0 0 1.8 269.501 356.202)" d="M-3.95755 -15.6258C14.2335 -16.6695 31.003 -11.1983 30.5438 36.072C30.8456 50.1415 32.6523 67.5565 16.9817 75.3464C5.45378 74.4362 -7.49795 74.3262 -23.8938 72.8978C-33.9873 63.3505 -32.1097 51.4146 -32.4993 34.6378C-32.6634 -11.7369 -22.1486 -14.5821 -3.95755 -15.6258Z"></path>
  <path fill="none" stroke="black" stroke-width="5" stroke-linejoin="round" transform="matrix(1.67985 0 0 1.8 191.63 362.835)" d="M4.54467 -14.3469C22.7694 -14.1994 35.6758 -9.92269 35.2352 37.4644C35.6751 56.3451 38.3665 69.1166 22.8449 75.6428C7.37123 76.0143 -3.31578 76.2208 -18.1523 75.8804C-32.9407 69.2111 -28.2491 52.5443 -27.9641 36.0496C-28.1479 -10.4395 -13.68 -14.4945 4.54467 -14.3469Z"></path>
  <path fill="none" stroke="black" stroke-width="5" stroke-linejoin="round" transform="matrix(1.79976 0.0276995 -0.0293645 1.69771 274.681 280.576)" d="M-11.3238 -80.2543C25.8014 -80.2543 54.9476 -94.6926 58.9092 -40.8672C62.8708 12.9582 37.0524 74.7499 0.0572909 75.3534C-14.1177 75.5847 -17.7665 75.6442 -48.2096 76.1409C-78.6526 76.6376 -84.25 60.12 -84.25 9.53674e-07C-86.6294 -86.0849 -88.6034 -78.4854 -12.7475 -80.2208"></path>
  <path fill="#503F7E" transform="matrix(1.67985 0 0 1.8 191.63 362.835)" d="M4.54467 -14.3469C22.7694 -14.1994 35.6758 -9.92269 35.2352 37.4644C35.6751 56.3451 38.3665 69.1166 22.8449 75.6428C7.37123 76.0143 -3.31578 76.2208 -18.1523 75.8804C-32.9407 69.2111 -28.2491 52.5443 -27.9641 36.0496C-28.1479 -10.4395 -13.68 -14.4945 4.54467 -14.3469Z"></path>
  <path fill="none" stroke="black" stroke-width="5" stroke-linejoin="round" transform="matrix(1.53139 0 0 1.39334 226.982 127.526)" d="M0 -40C20.9426 -40 35.0096 -26.8589 47.8597 -2.20018C49.1253 -3.81499 50.3123 -3.57653 51.1974 -3.11682C52.0824 -2.65711 52.5509 -1.60562 52.2206 -0.665342C53.8523 0.0631991 55.2854 1.47333 55.8775 2.67698C56.9197 4.79566 57.6743 10.5072 53.7931 11.8212C58.5977 31.9882 20.3682 22.0914 -1.32962e-05 22.0914C-20.2357 22.0914 -45.0732 28.3281 -41.8836 12.9784C-44.6787 11.8212 -48.2008 8.95144 -46.5316 4.29175C-45.7036 1.98006 -43.8185 0.567089 -42.3936 0.566997C-41.0392 0.56691 -42.9934 -2.2 -40.2188 -3.81491C-39.0195 -4.51291 -37.7273 -4.43211 -36.6068 -4.12355C-28.0141 -23.7311 -20.4124 -40 0 -40Z"></path>
  <path fill="#503F7E" transform="matrix(1.79976 0.0276995 -0.0293645 1.69771 274.681 280.576)" d="M-11.3238 -80.2543C25.8014 -80.2543 54.9476 -94.6926 58.9092 -40.8672C62.8708 12.9582 37.0524 74.7499 0.0572909 75.3534C-14.1177 75.5847 -17.7665 75.6442 -48.2096 76.1409C-78.6526 76.6376 -84.25 60.12 -84.25 9.53674e-07C-86.6442 -86.62 -88.6279 -78.3873 -11.3238 -80.2543Z"></path>
  <clipPath id="cl_57f">
    <path d="M256.658 144.013C323.474 145.042 376.354 121.337 381.904 212.826C387.453 304.316 339.172 408.506 272.572 408.505C247.053 408.505 240.485 408.505 185.68 408.505C130.875 408.505 121.286 380.308 123.052 278.242C121.286 131.12 117.474 145.042 256.658 144.013Z"></path>
  </clipPath>
  <g clip-path="url(#cl_57f)">
    <path fill="#655494" transform="matrix(1.8 0 0 1.8 311.807 262.655)" d="M-0.158648 -48.2655C25.513 -48.2655 46.324 -26.6563 46.324 0C46.324 26.6563 25.513 48.2655 -0.158648 48.2655C-25.8303 48.2655 -46.6413 26.6563 -46.6413 0C-46.6413 -26.6563 -25.8303 -48.2655 -0.158648 -48.2655Z"></path>
  </g>
  <path fill="none" stroke="black" stroke-width="2" stroke-linejoin="round" transform="matrix(3.88825 -0.763212 0.691401 3.5224 233.781 49.2777)" d="M-4.34758 -5.25471C-4.34758 -11.5047 3.66088 -11.5047 3.66088 -5.25472C3.66088 0.995284 3.66088 12.5 3.66088 12.5L-4.57314 12.5C-4.57314 12.5 -4.34758 0.995284 -4.34758 -5.25471Z"></path>
  <path fill="none" stroke="black" stroke-width="2" stroke-linejoin="round" transform="matrix(3.5224 -0.691401 0.691401 3.5224 199.573 54.6906)" d="M-5.1645 -6.50116C-5.1645 -12.7512 6 -12.7512 6 -6.50116C6 -0.251162 6 12.5 6 12.5L-6 12.5C-6 12.5 -5.1645 -0.251163 -5.1645 -6.50116Z"></path>
  <path fill="#453279" transform="matrix(3.88825 -0.763212 0.691401 3.5224 233.781 49.2777)" d="M-4.34758 -5.25471C-4.34758 -11.5047 3.66088 -11.5047 3.66088 -5.25472C3.66088 0.995284 3.66088 12.5 3.66088 12.5L-4.57314 12.5C-4.57314 12.5 -4.34758 0.995284 -4.34758 -5.25471Z"></path>
  <path fill="none" stroke="#161616" stroke-width="0.5" stroke-linecap="round" stroke-linejoin="round" transform="matrix(3.88825 -0.763212 0.691401 3.5224 228.988 29.7461)" d="M4.06863e-06 1.51652L3.35385e-06 10.5382"></path>
  <path fill="#503F7E" transform="matrix(3.5224 -0.691401 0.691401 3.5224 199.573 54.6906)" d="M-5.1645 -6.50117C-5.1645 -12.7512 6 -12.7512 6 -6.50117C6 -0.251166 6 12.5 6 12.5L-6 12.5C-6 12.5 -5.1645 -0.251167 -5.1645 -6.50117Z"></path>
  <path fill="none" stroke="#161616" stroke-width="0.5" stroke-linecap="round" stroke-linejoin="round" transform="matrix(3.5224 -0.691401 0.691401 3.5224 199.787 34.6721)" d="M2.56958e-07 2.6499e-08L4.07165e-06 10.5382"></path>
  <path fill="#503F7E" transform="matrix(1.53139 0 0 1.39334 226.982 127.526)" d="M0 -40C20.9426 -40 35.0096 -26.8589 47.8597 -2.20018C49.1253 -3.81499 50.3123 -3.57653 51.1974 -3.11682C52.0824 -2.65711 52.5509 -1.60562 52.2206 -0.665342C53.8523 0.0631991 55.2854 1.47333 55.8775 2.67698C56.9197 4.79566 57.6743 10.5072 53.7931 11.8212C58.5977 31.9882 20.3682 22.0914 -1.32962e-05 22.0914C-20.2357 22.0914 -45.0732 28.3281 -41.8836 12.9784C-44.6787 11.8212 -48.2008 8.95144 -46.5316 4.29175C-45.7036 1.98006 -43.8185 0.567089 -42.3936 0.566997C-41.0392 0.56691 -42.9934 -2.2 -40.2188 -3.81491C-39.0195 -4.51291 -37.7273 -4.43211 -36.6068 -4.12355C-28.0141 -23.7311 -20.4124 -40 0 -40Z"></path>
  <clipPath id="cl_580">
    <path d="M226.982 71.7922C259.053 71.7922 280.595 90.1023 300.273 124.46C302.211 122.21 304.029 122.543 305.384 123.183C306.74 123.824 307.457 125.289 306.951 126.599C309.45 127.614 311.645 129.579 312.552 131.256C314.148 134.208 315.303 142.166 309.359 143.997C316.717 172.096 258.173 158.307 226.981 158.307C195.993 158.307 157.957 166.997 162.842 145.609C158.561 143.997 153.168 139.998 155.724 133.506C156.992 130.285 159.879 128.316 162.061 128.316C164.135 128.316 161.142 124.461 165.391 122.21C167.228 121.238 169.206 121.35 170.922 121.78C184.081 94.4604 195.722 71.7922 226.982 71.7922Z"></path>
  </clipPath>
  <g clip-path="url(#cl_580)">
    <path fill="#7463A5" transform="matrix(1.8 2.98023e-08 0.00759348 1.8 223.582 113.624)" d="M0 -5.5C3.86599 -5.5 7 -2.92564 7 0.25C7 3.42564 3.86599 6 0 6C-3.86599 6 -7 3.42564 -7 0.25C-7 -2.92564 -3.86599 -5.5 0 -5.5Z"></path>
    <path fill="#7463A5" transform="matrix(1.83618 3.04014e-08 0.00759348 1.8 276.13 105.478)" d="M0 -5C2.76142 -5 5 -2.6495 5 0.25C5 3.1495 2.76142 5.5 0 5.5C-2.76142 5.5 -5 3.1495 -5 0.25C-5 -2.6495 -2.76142 -5 0 -5Z"></path>
    <path fill="none" stroke="#131212" stroke-width="1" stroke-linecap="round" stroke-linejoin="round" transform="matrix(2.30699 -0.373724 0.274137 1.69224 254.362 98.7822)" d="M1.44192e-06 -4.14104e-07L2.92891 -0.714567"></path>
    <path fill="none" stroke="#131212" stroke-width="1" stroke-linecap="round" stroke-linejoin="round" transform="matrix(2.30699 -0.373724 0.274137 1.69224 232.611 97.9525)" d="M3.57628e-07 1.51103e-05L4.25731 1.79214"></path>
    <path fill="#131212" transform="matrix(2.47104 -0.400299 0.405754 2.50471 246.396 101.063)" d="M-4.99596e-07 -2.15485e-07L1.9614 0.352738L0.915089 1.42246L-4.99596e-07 -2.15485e-07Z"></path>
    <path fill="none" stroke="#131212" stroke-width="0.5" stroke-linecap="round" stroke-linejoin="round" transform="matrix(1.93759 -0.313883 0.31816 1.96399 249.455 104.598)" d="M1.18428e-07 -0.711232L-3.72341e-06 1.11019"></path>
    <path fill="#32225E" transform="matrix(1.74285 0.441491 -0.424043 1.74552 243.243 93.1972)" d="M-1.93607e-06 -1.92716C1.6285 -1.92716 2.94867 -1.06434 2.94867 -4.39386e-08C2.94867 1.06434 1.6285 1.92716 -1.87863e-06 1.92716C-1.62851 1.92716 -2.94867 1.06434 -2.94867 4.39386e-08C-2.94867 -1.06434 -1.62851 -1.92716 -1.93607e-06 -1.92716Z"></path>
    <path fill="#32225E" transform="matrix(1.71213 0.433708 -0.412468 1.69787 254.436 92.3223)" d="M-5.72205e-06 -1.89918C0.889983 -1.89918 1.61146 -1.04889 1.61146 7.60538e-06C1.61146 1.0489 0.889983 1.8992 -5.72205e-06 1.8992C-0.889995 1.8992 -1.61147 1.0489 -1.61147 7.65341e-06C-1.61147 -1.04889 -0.889995 -1.89918 -5.72205e-06 -1.89918Z"></path>
  </g>
  <path fill="none" stroke="black" stroke-width="6" stroke-linejoin="round" transform="matrix(1.8 0 0 1.8 170.253 263.1)" d="M-14.2917 29.3455C-51.3969 15.1569 -28.7168 -44.1547 8.38843 -29.9661C24.1921 -23.9229 50.0235 -15.8038 66.6204 -10.1462C72.4518 -8.15845 80.4164 3.54732 73.174 25.6318C65.9317 47.7162 52.849 52.2473 48.3037 50.6979C31.6096 45.0072 -2.62889 33.8052 -14.2917 29.3455Z"></path>
  <path fill="none" stroke="black" stroke-width="6" stroke-linecap="round" stroke-linejoin="bevel" transform="matrix(1.8 0 0 1.67094 170.253 172.853)" d="M29.5985 40.554C29.12 48.4082 28.7083 55.1655 28.4953 58.6614C25.8839 101.526 -37.4772 97.004 -34.8658 54.1397C-34.2103 43.3794 -33.0052 23.5998 -32.2462 11.1409C-31.4872 -1.31799 -24.155 -18.6734 -8.1097 -17.5391C-6.29648 -17.4109 -4.63987 -17.2938 -3.11746 -17.1861"></path>
  <path fill="#503F7E" transform="matrix(1.8 0 0 1.67094 170.253 172.853)" d="M-32.2462 11.1409C-31.4872 -1.31799 -24.155 -18.6734 -8.1097 -17.5391C7.93559 -16.4047 11.7174 -16.1374 18.7664 -15.639C25.8155 -15.1407 32.7174 -10.6411 31.7629 5.02729C30.8083 20.6956 29.0287 49.9061 28.4953 58.6614C26.1983 96.3653 -37.1628 91.8436 -34.8658 54.1397C-34.2103 43.3794 -33.0052 23.5997 -32.2462 11.1409Z"></path>
  <path fill="none" stroke="black" stroke-width="4" stroke-linejoin="round" transform="matrix(1.8 0 0 1.8 352.158 165.454)" d="M-11.7479 -12.9046C-11.318 -13.5165 -10.7601 -14.1187 -10.0572 -14.7065C-5.47351 -18.5399 3.93804 -16.1165 4.43081 -14.7065C7.46664 -16.1165 10.8961 -16.6614 15.0174 -13.9738C19.1387 -11.2862 16.2386 -4.86794 16.6118 -4.55445C16.985 -4.24095 25.2116 0.494539 17.5976 8.33765C16.6439 8.92035 15.7365 9.39702 14.8735 9.77867"></path>
  <path fill="#7463A5" transform="matrix(1.8 0 0 1.8 352.158 165.454)" d="M-0.116455 -3.8147e-06C-2.60165 -0.663944 -7.05858 1.11792 -10.0572 -2.65577C-13.0559 -6.42945 -14.6409 -10.8732 -10.0572 -14.7065C-5.47351 -18.5399 3.93804 -16.1165 4.43081 -14.7065C7.46664 -16.1165 10.8961 -16.6614 15.0174 -13.9738C19.1387 -11.2862 16.2386 -4.86794 16.6118 -4.55445C16.985 -4.24095 25.2116 0.494539 17.5976 8.33765C2.9012 17.3171 -0.809986 1.11792 -0.116455 -3.8147e-06Z"></path>
  <path fill="#503F7E" transform="matrix(1.8 0 0 1.8 170.253 263.1)" d="M-14.2917 29.3455C-52.938 14.5676 -30.2579 -44.744 8.38843 -29.9661C24.1921 -23.9229 50.0235 -15.8038 66.6204 -10.1462C72.4518 -8.15845 80.4164 3.54732 73.174 25.6318C65.9317 47.7162 52.849 52.2473 48.3037 50.6979C31.6096 45.0072 -2.62889 33.8052 -14.2917 29.3455Z"></path>
  <path fill="#312F2F" transform="matrix(0.507362 0.17295 -0.206219 0.604958 268.41 288.566)" d="M3.8147e-06 -128C70.6925 -128 128 -70.6925 128 0C128 70.6925 70.6925 128 3.8147e-06 128C-70.6924 128 -128 70.6925 -128 0C-128 -70.6925 -70.6924 -128 3.8147e-06 -128Z"></path>
  <path fill="none" stroke="black" stroke-width="7" stroke-miterlimit="4" transform="translate(256 256)" d="M50.3002 -40.9502C86.1668 -28.7239 103.425 15.8561 88.8465 58.6221C74.2684 101.388 33.3749 126.145 -2.49177 113.919C-38.3584 101.693 -55.6162 57.1129 -41.0381 14.3469C-26.46 -28.4191 14.4335 -53.1764 50.3002 -40.9502Z"></path>
  <path fill="none" stroke="black" stroke-width="7" stroke-linejoin="round" transform="translate(256 256)" d="M50.3002 -40.9502C50.3002 -40.9502 41.1041 -44.0849 39.2498 -44.717C9.88928 -53.8451 -32.7925 -47.4795 -52.5323 10.4288C-72.2721 68.3371 -36.3103 102.391 -13.986 110.001C-12.1316 110.633 -2.49176 113.919 -2.49177 113.919C-2.99825 113.747 -3.53413 113.54 -4.09627 113.301"></path>
  <path fill="#8D5A3E" transform="matrix(0.507362 0.17295 -0.206219 0.604958 279.904 292.484)" d="M0 -128C70.6925 -128 128 -70.6924 128 3.8147e-06C128 70.6925 70.6925 128 0 128C-70.6925 128 -128 70.6925 -128 3.8147e-06C-128 -70.6924 -70.6925 -128 0 -128Z"></path>
  <path fill="#4B2713" transform="matrix(0.507362 0.17295 -0.206219 0.604958 283.408 293.004)" d="M0.250008 -87.5C51.4744 -87.5 93 -48.4368 93 -0.249996C93 47.9369 51.4744 87 0.250008 87C-50.9744 87 -92.5 47.9369 -92.5 -0.249996C-92.5 -48.4368 -50.9744 -87.5 0.250008 -87.5Z"></path>
  <path fill="#693920" transform="matrix(0.507362 0.17295 -0.206219 0.604958 279.904 292.484)" d="M0 -86C47.4965 -86 86 -47.4965 86 3.8147e-06C86 47.4965 47.4965 86 0 86C-47.4965 86 -86 47.4965 -86 3.8147e-06C-86 -47.4965 -47.4965 -86 0 -86Z"></path>
  <path fill="#1F0D04" transform="matrix(1.19368 0.947194 -0.958196 1.48166 263.555 295.316)" d="M-1.90735e-06 -6.1709C3.40809 -6.1709 6.1709 -3.40809 6.1709 0C6.1709 3.40809 3.40809 6.1709 -1.90735e-06 6.1709C-3.4081 6.1709 -6.1709 3.40809 -6.1709 0C-6.1709 -3.40809 -3.4081 -6.1709 -1.90735e-06 -6.1709Z"></path>
  <clipPath id="cl_588">
    <path d="M269.468 286.173C273.536 289.401 274.187 296.112 270.921 301.161C267.656 306.211 261.71 307.688 257.642 304.459C253.574 301.231 252.923 294.521 256.189 289.471C259.455 284.422 265.4 282.945 269.468 286.173Z"></path>
  </clipPath>
  <g clip-path="url(#cl_588)">
    <path fill="#2F1507" transform="matrix(1.19368 0.947194 -0.958196 1.48166 260.661 296.645)" d="M1.90735e-06 -6.1709C3.4081 -6.1709 6.1709 -3.40809 6.1709 0C6.1709 3.40809 3.4081 6.1709 1.90735e-06 6.1709C-3.40809 6.1709 -6.1709 3.40809 -6.1709 0C-6.1709 -3.40809 -3.40809 -6.1709 1.90735e-06 -6.1709Z"></path>
  </g>
  <path fill="#1F0D04" transform="matrix(1.19368 0.947194 -0.958196 1.48166 277.704 273.438)" d="M0 -6.1709C3.40809 -6.1709 6.1709 -3.40809 6.1709 3.20375e-07C6.1709 3.40809 3.40809 6.1709 0 6.1709C-3.40809 6.1709 -6.1709 3.40809 -6.1709 3.20375e-07C-6.1709 -3.40809 -3.40809 -6.1709 0 -6.1709Z"></path>
  <clipPath id="cl_589">
    <path d="M283.617 264.294C287.685 267.522 288.336 274.233 285.07 279.283C281.805 284.332 275.86 285.809 271.791 282.581C267.723 279.353 267.073 272.642 270.338 267.592C273.604 262.543 279.549 261.066 283.617 264.294Z"></path>
  </clipPath>
  <g clip-path="url(#cl_589)">
    <path fill="#2F1507" transform="matrix(1.19368 0.947194 -0.958196 1.48166 274.076 275.901)" d="M1.90735e-06 -6.1709C3.4081 -6.1709 6.1709 -3.40809 6.1709 -4.76837e-07C6.1709 3.40809 3.4081 6.1709 1.90735e-06 6.1709C-3.40809 6.1709 -6.1709 3.40809 -6.1709 -4.76837e-07C-6.1709 -3.40809 -3.40809 -6.1709 1.90735e-06 -6.1709Z"></path>
  </g>
  <path fill="#1F0D04" transform="matrix(1.19368 0.947194 -0.958196 1.48166 282.352 310.231)" d="M0 -6.1709C3.40809 -6.1709 6.1709 -3.40809 6.1709 0C6.1709 3.40809 3.40809 6.1709 0 6.1709C-3.40809 6.1709 -6.1709 3.40809 -6.1709 0C-6.1709 -3.40809 -3.40809 -6.1709 0 -6.1709Z"></path>
  <clipPath id="cl_58a">
    <path d="M288.264 301.088C292.333 304.316 292.983 311.027 289.718 316.076C286.452 321.126 280.507 322.603 276.439 319.374C272.37 316.146 271.72 309.436 274.985 304.386C278.251 299.337 284.196 297.86 288.264 301.088Z"></path>
  </clipPath>
  <g clip-path="url(#cl_58a)">
    <path fill="#2F1507" transform="matrix(1.19368 0.947194 -0.958196 1.48166 280.239 311.059)" d="M0 -6.1709C3.40809 -6.1709 6.1709 -3.40809 6.1709 1.90735e-06C6.1709 3.4081 3.40809 6.1709 0 6.1709C-3.40809 6.1709 -6.1709 3.4081 -6.1709 1.90735e-06C-6.1709 -3.40809 -3.40809 -6.1709 0 -6.1709Z"></path>
  </g>
  <path fill="#1F0D04" transform="matrix(1.19368 0.947194 -0.958196 1.48166 296.501 288.352)" d="M0 -6.1709C3.40809 -6.1709 6.1709 -3.40809 6.1709 -6.33299e-07C6.1709 3.40809 3.40809 6.1709 0 6.1709C-3.40809 6.1709 -6.1709 3.40809 -6.1709 -6.33299e-07C-6.1709 -3.40809 -3.40809 -6.1709 0 -6.1709Z"></path>
  <clipPath id="cl_58b">
    <path d="M302.414 279.209C306.482 282.437 307.132 289.148 303.867 294.197C300.601 299.247 294.656 300.724 290.588 297.496C286.519 294.268 285.869 287.557 289.134 282.507C292.4 277.458 298.345 275.981 302.414 279.209Z"></path>
  </clipPath>
  <g clip-path="url(#cl_58b)">
    <path fill="#2F1507" transform="matrix(1.19368 0.947194 -0.958196 1.48166 292.46 289.368)" d="M0 -6.1709C3.40809 -6.1709 6.1709 -3.40809 6.1709 0C6.1709 3.40809 3.40809 6.1709 0 6.1709C-3.40809 6.1709 -6.1709 3.40809 -6.1709 0C-6.1709 -3.40809 -3.40809 -6.1709 0 -6.1709Z"></path>
  </g>
  <path fill="none" stroke="#E3CEC2" stroke-width="4" stroke-linecap="round" stroke-linejoin="round" transform="matrix(1.19368 0.947194 -0.958196 1.48166 276.956 272.333)" d="M2.42519 2.41434L15.2044 14.4568"></path>
  <path fill="none" stroke="#C8AD9D" stroke-width="4" stroke-linecap="round" stroke-linejoin="round" transform="matrix(1.19368 0.947194 -0.958196 1.48166 276.956 272.333)" d="M3.28776 13.1788L15.6779 1.98902"></path>
  <path fill="#4B2713" transform="matrix(0.604958 0.206219 -0.206219 0.604958 306.3 215.05)" d="M1.52588e-05 0C1.52588e-05 0 -15.2011 -7.62939e-06 -18.2664 0C-66.3551 1.3037 -126.35 32.2772 -126.35 128C-126.35 223.723 -55.9022 256 -19 256C-15.9348 256 4.52995e-06 256 -4.05312e-06 256C-25.5439 256 -107.35 223.723 -107.35 128C-107.35 32.2772 -25.5438 -7.62939e-06 1.52588e-05 0Z"></path>
</svg>