<?xml version="1.0" encoding="utf-8"?>
<svg xmlns="http://www.w3.org/2000/svg" xmlns:xlink="http://www.w3.org/1999/xlink" width="512" height="512">
  <path fill="none" stroke="black" stroke-width="6" stroke-linejoin="round" transform="matrix(1.8 0 0 1.52279 359.051 173.289)" d="M-12.167 -16.5455C-8.5971 -16.3606 -5.97344 -16.2248 -2.60427 -16.0503C4.45319 -15.6848 11.4587 -11.3152 10.8773 4.37186C10.2959 20.0589 9.21196 49.3041 8.88707 58.0699C7.29647 100.985 -56.1411 97.6579 -54.5505 54.7425C-54.1512 43.9694 -53.4172 24.1662 -52.9549 11.6925C-52.4926 -0.781239 -45.5768 -18.2756 -29.5124 -17.4437C-28.2433 -17.378 -27.0508 -17.3163 -25.9273 -17.2581"></path>
  <path fill="none" stroke="black" stroke-width="6" stroke-linejoin="round" transform="matrix(1.8 0 0 1.64041 359.051 255.535)" d="M-54.0071 -5.93995C-46.4374 -47.8299 16.0427 -36.0405 8.47294 5.84949C5.468 22.4784 0.455208 50.2185 -2.65895 67.4518C-3.75311 73.5067 -14.136 83.0478 -37.0508 78.9989C-59.9657 74.95 -66.3993 62.6367 -65.5465 57.9172C-62.4141 40.5829 -56.2247 6.33181 -54.0071 -5.93995Z"></path>
  <path fill="#503F7E" transform="matrix(1.8 0 0 1.52279 359.051 173.289)" d="M-52.9549 11.6925C-52.4926 -0.781239 -45.5768 -18.2757 -29.5124 -17.4437C-13.448 -16.6118 -9.66174 -16.4158 -2.60427 -16.0503C4.45319 -15.6848 11.4587 -11.3152 10.8773 4.37186C10.2959 20.0589 9.21196 49.3041 8.88707 58.0699C7.29647 100.985 -56.1411 97.6579 -54.5505 54.7425C-54.1512 43.9694 -53.4172 24.1662 -52.9549 11.6925Z"></path>
  <path fill="#503F7E" transform="matrix(1.8 0 0 1.64041 359.051 255.535)" d="M-54.0071 -5.93995C-46.4374 -47.8299 16.0427 -36.0405 8.47294 5.84949C5.468 22.4784 0.455208 50.2185 -2.65895 67.4518C-3.75311 73.5067 -14.136 83.0478 -37.0508 78.9989C-59.9657 74.95 -66.3993 62.6367 -65.5465 57.9172C-62.4141 40.5829 -56.2247 6.33181 -54.0071 -5.93995Z"></path>
  <path fill="none" stroke="black" stroke-width="5" stroke-linejoin="round" transform="matrix(1.67985 0 0 1.8 269.501 356.202)" d="M-32.4026 -15.6706C-14.1793 -15.9279 -1.1674 -11.9391 -0.399209 35.4443C0.268791 49.5376 4.7649 64.7392 -10.2175 74.0883C-21.7862 73.9961 -34.7096 74.8025 -51.1743 74.538C-62.0189 65.6022 -62.7904 52.2383 -63.6167 35.4338C-64.9863 -11.038 -50.6259 -15.4132 -32.4026 -15.6706Z"></path>
  <path fill="#453279" transform="matrix(1.67985 0 0 1.8 269.501 356.202)" d="M-32.4026 -15.6706C-14.1793 -15.9279 -1.1674 -11.9391 -0.399209 35.4443C0.268791 49.5376 4.7649 64.7392 -10.2175 74.0883C-21.7862 73.9961 -34.7096 74.8025 -51.1743 74.538C-62.0189 65.6022 -62.7904 52.2383 -63.6167 35.4338C-64.9863 -11.038 -50.6259 -15.4132 -32.4026 -15.6706Z"></path>
  <path fill="none" stroke="black" stroke-width="5" stroke-linejoin="round" transform="matrix(1.67985 0 0 1.8 191.63 362.835)" d="M25.7205 -13.0675C42.5399 -19.6184 77.093 -7.75853 75.4327 35.2975C75.3304 52.4669 64.9949 73.2608 47.902 73.667C32.8914 70.141 22.5387 67.6575 8.34697 63.6058C-2.29745 52.033 17.3359 47.5324 18.0335 32.5482C19.1025 -9.70623 8.90104 -6.51663 25.7205 -13.0675Z"></path>
  <path fill="none" stroke="black" stroke-width="5" stroke-linejoin="round" transform="matrix(1.79976 0.0276995 -0.0293645 1.69771 274.681 283.348)" d="M-11.3238 -80.2543C25.8014 -80.2543 54.9476 -94.6926 58.9092 -40.8672C62.8708 12.9582 37.0524 74.7499 0.0572909 75.3534C-14.1177 75.5847 -17.7665 75.6442 -48.2096 76.1409C-78.6526 76.6376 -84.25 60.12 -84.25 9.53674e-07C-86.6294 -86.0849 -88.6034 -78.4854 -12.7475 -80.2208"></path>
  <path fill="#503F7E" transform="matrix(1.67985 0 0 1.8 191.63 362.835)" d="M25.7205 -13.0675C42.5399 -19.6184 77.093 -7.75853 75.4327 35.2975C75.3304 52.4669 64.9949 73.2608 47.902 73.667C32.8914 70.141 22.5387 67.6575 8.34697 63.6058C-2.29745 52.033 17.3359 47.5324 18.0335 32.5482C19.1025 -9.70623 8.90104 -6.51663 25.7205 -13.0675Z"></path>
  <path fill="none" stroke="black" stroke-width="5" stroke-linejoin="round" transform="matrix(1.53139 0 0 1.39334 226.982 132.223)" d="M0 -40C20.9426 -40 35.0096 -26.8589 47.8597 -2.20018C49.1253 -3.81499 50.3123 -3.57653 51.1974 -3.11682C52.0824 -2.65711 52.5509 -1.60562 52.2206 -0.665342C53.8523 0.0631991 55.2854 1.47333 55.8775 2.67698C56.9197 4.79566 57.6743 10.5072 53.7931 11.8212C58.5977 31.9882 20.3682 22.0914 -1.32962e-05 22.0914C-20.2357 22.0914 -45.0732 28.3281 -41.8836 12.9784C-44.6787 11.8212 -48.2008 8.95144 -46.5316 4.29175C-45.7036 1.98006 -43.8185 0.567089 -42.3936 0.566997C-41.0392 0.56691 -42.9934 -2.2 -40.2188 -3.81491C-39.0195 -4.51291 -37.7273 -4.43211 -36.6068 -4.12355C-28.0141 -23.7311 -20.4124 -40 0 -40Z"></path>
  <path fill="#503F7E" transform="matrix(1.79976 0.0276995 -0.0293645 1.69771 274.681 283.348)" d="M-11.3238 -80.2543C25.8014 -80.2543 54.9476 -94.6926 58.9092 -40.8672C62.8708 12.9582 37.0524 74.7499 0.0572909 75.3534C-14.1177 75.5847 -17.7665 75.6442 -48.2096 76.1409C-78.6526 76.6376 -84.25 60.12 -84.25 9.53674e-07C-86.6442 -86.62 -88.6279 -78.3873 -11.3238 -80.2543Z"></path>
  <clipPath id="cl_1d7">
    <path d="M256.658 146.785C323.474 147.814 376.354 124.109 381.904 215.599C387.453 307.088 339.172 411.278 272.572 411.278C247.053 411.278 240.485 411.278 185.68 411.278C130.875 411.278 121.286 383.08 123.052 281.014C121.286 133.892 117.474 147.814 256.658 146.785Z"></path>
  </clipPath>
  <g clip-path="url(#cl_1d7)">
    <path fill="#655494" transform="matrix(1.8 0 0 1.8 311.807 265.427)" d="M-0.158648 -48.2655C25.513 -48.2655 46.324 -26.6563 46.324 0C46.324 26.6563 25.513 48.2655 -0.158648 48.2655C-25.8303 48.2655 -46.6413 26.6563 -46.6413 0C-46.6413 -26.6563 -25.8303 -48.2655 -0.158648 -48.2655Z"></path>
  </g>
  <path fill="none" stroke="black" stroke-width="2" stroke-linejoin="round" transform="matrix(3.88825 -0.763212 0.691401 3.5224 233.781 53.9753)" d="M-4.34758 -5.25471C-4.34759 -11.5047 3.66088 -11.5047 3.66088 -5.25472C3.66088 0.995284 3.66088 12.5 3.66088 12.5L-4.57314 12.5C-4.57314 12.5 -4.34758 0.995284 -4.34758 -5.25471Z"></path>
  <path fill="none" stroke="black" stroke-width="2" stroke-linejoin="round" transform="matrix(3.5224 -0.691401 0.691401 3.5224 199.573 59.3881)" d="M-5.1645 -6.50117C-5.1645 -12.7512 6 -12.7512 6 -6.50117C6 -0.251166 6 12.5 6 12.5L-6 12.5C-6 12.5 -5.1645 -0.251167 -5.1645 -6.50117Z"></path>
  <path fill="#453279" transform="matrix(3.88825 -0.763212 0.691401 3.5224 233.781 53.9753)" d="M-4.34758 -5.25471C-4.34759 -11.5047 3.66088 -11.5047 3.66088 -5.25472C3.66088 0.995284 3.66088 12.5 3.66088 12.5L-4.57314 12.5C-4.57314 12.5 -4.34758 0.995284 -4.34758 -5.25471Z"></path>
  <path fill="none" stroke="#161616" stroke-width="0.5" stroke-linecap="round" stroke-linejoin="round" transform="matrix(3.88825 -0.763212 0.691401 3.5224 228.988 34.4436)" d="M3.59179e-06 1.51652L2.87701e-06 10.5382"></path>
  <path fill="#503F7E" transform="matrix(3.5224 -0.691401 0.691401 3.5224 199.573 59.3881)" d="M-5.1645 -6.50116C-5.1645 -12.7512 6 -12.7512 6 -6.50116C6 -0.251162 6 12.5 6 12.5L-6 12.5C-6 12.5 -5.1645 -0.251163 -5.1645 -6.50116Z"></path>
  <path fill="none" stroke="#161616" stroke-width="0.5" stroke-linecap="round" stroke-linejoin="round" transform="matrix(3.5224 -0.691401 0.691401 3.5224 199.787 39.3696)" d="M-6.96717e-07 7.65589e-06L3.11798e-06 10.5382"></path>
  <path fill="#503F7E" transform="matrix(1.53139 0 0 1.39334 226.982 132.223)" d="M0 -40C20.9426 -40 35.0096 -26.8589 47.8597 -2.20018C49.1253 -3.81499 50.3123 -3.57653 51.1974 -3.11682C52.0824 -2.65711 52.5509 -1.60562 52.2206 -0.665342C53.8523 0.0631991 55.2854 1.47333 55.8775 2.67698C56.9197 4.79566 57.6743 10.5072 53.7931 11.8212C58.5977 31.9882 20.3682 22.0914 -1.32962e-05 22.0914C-20.2357 22.0914 -45.0732 28.3281 -41.8836 12.9784C-44.6787 11.8212 -48.2008 8.95144 -46.5316 4.29175C-45.7036 1.98006 -43.8185 0.567089 -42.3936 0.566997C-41.0392 0.56691 -42.9934 -2.2 -40.2188 -3.81491C-39.0195 -4.51291 -37.7273 -4.43211 -36.6068 -4.12355C-28.0141 -23.7311 -20.4124 -40 0 -40Z"></path>
  <clipPath id="cl_1d8">
    <path d="M226.982 76.4898C259.053 76.4898 280.595 94.7998 300.273 129.158C302.211 126.908 304.029 127.24 305.384 127.881C306.74 128.521 307.457 129.986 306.951 131.296C309.45 132.312 311.645 134.276 312.552 135.953C314.148 138.906 315.303 146.864 309.359 148.695C316.717 176.794 258.173 163.004 226.981 163.004C195.993 163.004 157.957 171.694 162.842 150.307C158.561 148.695 153.168 144.696 155.724 138.203C156.992 134.982 159.879 133.014 162.061 133.014C164.135 133.013 161.142 129.158 165.391 126.908C167.228 125.935 169.206 126.048 170.922 126.478C184.081 99.158 195.722 76.4898 226.982 76.4898Z"></path>
  </clipPath>
  <g clip-path="url(#cl_1d8)">
    <path fill="#7463A5" transform="matrix(1.8 2.98023e-08 0.00759348 1.8 225.241 120.693)" d="M-1.90735e-06 -5.5C3.86599 -5.5 7 -2.92564 7 0.25C7 3.42564 3.86599 6 -1.90735e-06 6C-3.866 6 -7 3.42564 -7 0.25C-7 -2.92564 -3.866 -5.5 -1.90735e-06 -5.5Z"></path>
    <path fill="#7463A5" transform="matrix(1.83618 3.04014e-08 0.00759348 1.8 277.789 112.547)" d="M0 -5.00001C2.76142 -5.00001 5 -2.6495 5 0.249992C5 3.14949 2.76142 5.49999 0 5.49999C-2.76142 5.49999 -5 3.14949 -5 0.249992C-5 -2.6495 -2.76142 -5.00001 0 -5.00001Z"></path>
    <path fill="none" stroke="#131212" stroke-width="1" stroke-linecap="round" stroke-linejoin="round" transform="matrix(2.30699 -0.373724 0.274137 1.69224 256.021 105.851)" d="M4.88246e-07 -4.14104e-07L2.92891 -0.714567"></path>
    <path fill="none" stroke="#131212" stroke-width="1" stroke-linecap="round" stroke-linejoin="round" transform="matrix(2.30699 -0.373724 0.274137 1.69224 234.27 105.021)" d="M1.19209e-07 -1.48459e-07L4.25731 1.79213"></path>
    <path fill="#131212" transform="matrix(2.47104 -0.400299 0.405754 2.50471 248.055 108.132)" d="M-2.27592e-08 -2.15485e-07L1.9614 0.352738L0.91509 1.42246L-2.27592e-08 -2.15485e-07Z"></path>
    <path fill="none" stroke="#131212" stroke-width="0.5" stroke-linecap="round" stroke-linejoin="round" transform="matrix(1.93759 -0.313883 0.31816 1.96399 251.115 111.667)" d="M1.18428e-07 -0.711224L-3.72341e-06 1.1102"></path>
    <path fill="#32225E" transform="matrix(1.74285 0.441491 -0.424043 1.74552 244.903 100.266)" d="M-2.87169e-08 -1.92716C1.62851 -1.92716 2.94867 -1.06434 2.94867 -4.39386e-08C2.94867 1.06434 1.62851 1.92716 2.87169e-08 1.92716C-1.62851 1.92716 -2.94867 1.06434 -2.94867 4.39386e-08C-2.94867 -1.06434 -1.62851 -1.92716 -2.87169e-08 -1.92716Z"></path>
    <path fill="#32225E" transform="matrix(1.71213 0.433708 -0.412468 1.69787 256.096 99.3911)" d="M-3.8147e-06 -1.89919C0.889985 -1.89919 1.61146 -1.04889 1.61146 -2.40127e-08C1.61146 1.04889 0.889985 1.89919 -3.8147e-06 1.89919C-0.889993 1.89919 -1.61147 1.04889 -1.61147 2.40127e-08C-1.61147 -1.04889 -0.889993 -1.89919 -3.8147e-06 -1.89919Z"></path>
  </g>
  <path fill="none" stroke="black" stroke-width="6" stroke-linejoin="round" transform="matrix(1.8 0 0 1.8 170.253 265.872)" d="M-1.76239 30.6383C-40.6221 22.3896 -27.4369 -39.7264 11.4228 -31.4777C27.9737 -27.9645 54.7532 -23.9592 72.0278 -20.9502C78.0972 -19.893 87.7846 -9.56751 84.063 13.3742C80.3414 36.316 68.122 42.8256 63.3912 42.0015C46.0154 38.9749 10.4518 33.2309 -1.76239 30.6383Z"></path>
  <path fill="none" stroke="black" stroke-width="6" stroke-linecap="round" stroke-linejoin="bevel" transform="matrix(1.8 0 0 1.67094 170.253 175.625)" d="M35.0854 35.0749C35.7485 42.9438 36.3194 49.7178 36.6143 53.2173C40.2196 95.9979 -23.0238 102.141 -26.6292 59.3599C-27.5342 48.6207 -29.1979 28.8796 -30.2458 16.4451C-31.2937 4.01056 -26.5549 -14.3617 -10.5409 -15.9278C-8.83772 -16.0943 -7.27298 -16.2473 -5.82804 -16.3887"></path>
  <path fill="#503F7E" transform="matrix(1.8 0 0 1.67094 170.253 175.625)" d="M-30.2458 16.4451C-31.2937 4.01056 -26.5549 -14.3617 -10.5409 -15.9278C5.47304 -17.4939 9.24744 -17.863 16.2827 -18.551C23.318 -19.239 30.7853 -15.9498 32.1032 -0.312038C33.421 15.3257 35.8779 44.4791 36.6143 53.2173C39.7856 90.8476 -23.4579 96.9902 -26.6291 59.3599C-27.5342 48.6207 -29.1979 28.8796 -30.2458 16.4451Z"></path>
  <path fill="none" stroke="black" stroke-width="4" stroke-linejoin="round" transform="matrix(1.8 0 0 1.8 352.158 168.226)" d="M-11.7479 -12.9046C-11.318 -13.5165 -10.7601 -14.1187 -10.0572 -14.7065C-5.47351 -18.5399 3.93804 -16.1165 4.43081 -14.7065C7.46664 -16.1165 10.8961 -16.6614 15.0174 -13.9738C19.1387 -11.2862 16.2386 -4.86793 16.6118 -4.55444C16.985 -4.24095 25.2116 0.494543 17.5976 8.33766C16.6439 8.92035 15.7365 9.39702 14.8735 9.77867"></path>
  <path fill="#7463A5" transform="matrix(1.8 0 0 1.8 352.158 168.226)" d="M-0.116455 0C-2.60165 -0.66394 -7.05858 1.11792 -10.0572 -2.65576C-13.0559 -6.42944 -14.6409 -10.8732 -10.0572 -14.7065C-5.47351 -18.5399 3.93804 -16.1165 4.43081 -14.7065C7.46664 -16.1165 10.8961 -16.6614 15.0174 -13.9738C19.1387 -11.2862 16.2386 -4.86793 16.6118 -4.55444C16.985 -4.24095 25.2116 0.494543 17.5976 8.33766C2.9012 17.3171 -0.809986 1.11792 -0.116455 0Z"></path>
  <path fill="#503F7E" transform="matrix(1.8 0 0 1.8 170.253 265.872)" d="M-1.76239 30.6383C-42.236 22.047 -29.0508 -40.069 11.4228 -31.4777C27.9737 -27.9645 54.7532 -23.9592 72.0278 -20.9502C78.0972 -19.893 87.7846 -9.56751 84.063 13.3742C80.3414 36.316 68.122 42.8256 63.3912 42.0015C46.0154 38.9749 10.4518 33.2309 -1.76239 30.6383Z"></path>
  <path fill="#312F2F" transform="matrix(0.528078 0.0919849 -0.109679 0.62966 285.205 274.742)" d="M-3.8147e-06 -128C70.6924 -128 128 -70.6924 128 0C128 70.6924 70.6924 128 -3.8147e-06 128C-70.6924 128 -128 70.6924 -128 0C-128 -70.6924 -70.6924 -128 -3.8147e-06 -128Z"></path>
  <path fill="none" stroke="black" stroke-width="7" stroke-miterlimit="4" transform="translate(256 256)" d="M55.2073 -59.7705C92.5384 -53.2679 116.516 -11.9122 108.762 32.6C101.009 77.1121 64.4606 107.925 27.1294 101.422C-10.2017 94.9197 -34.1791 53.564 -26.4256 9.05183C-18.6721 -35.4604 17.8762 -66.2732 55.2073 -59.7705Z"></path>
  <path fill="none" stroke="black" stroke-width="7" stroke-linejoin="round" transform="translate(256 256)" d="M55.2073 -59.7705C55.2073 -59.7705 45.6358 -61.4378 43.7057 -61.774C13.2832 -66.2274 -27.8903 -53.3049 -38.3891 6.96793C-48.8879 67.2407 -8.06992 95.291 15.1659 99.3384C17.096 99.6746 27.1294 101.422 27.1294 101.422C26.6023 101.33 26.0409 101.21 25.4484 101.061"></path>
  <path fill="#8D5A3E" transform="matrix(0.528078 0.0919849 -0.109679 0.62966 297.168 276.826)" d="M7.62939e-06 -128C70.6925 -128 128 -70.6924 128 1.90735e-06C128 70.6924 70.6925 128 7.62939e-06 128C-70.6924 128 -128 70.6924 -128 1.90735e-06C-128 -70.6924 -70.6924 -128 7.62939e-06 -128Z"></path>
  <path fill="#4B2713" transform="matrix(0.528078 0.0919849 -0.109679 0.62966 300.711 276.794)" d="M0.25 -87.5C51.4744 -87.5 93 -48.4368 93 -0.249998C93 47.9368 51.4744 87 0.25 87C-50.9744 87 -92.5 47.9368 -92.5 -0.249998C-92.5 -48.4368 -50.9744 -87.5 0.25 -87.5Z"></path>
  <path fill="#693920" transform="matrix(0.528078 0.0919849 -0.109679 0.62966 297.168 276.826)" d="M7.62939e-06 -86C47.4965 -86 86 -47.4965 86 1.90735e-06C86 47.4965 47.4965 86 7.62939e-06 86C-47.4965 86 -86 47.4965 -86 1.90735e-06C-86 -47.4965 -47.4965 -86 7.62939e-06 -86Z"></path>
  <path fill="#1F0D04" transform="matrix(1.3264 0.750139 -0.716245 1.61259 281.458 282.164)" d="M-2.09126e-06 -6.1709C3.40809 -6.1709 6.1709 -3.40809 6.1709 -4.76837e-07C6.1709 3.40809 3.40809 6.1709 -1.72344e-06 6.1709C-3.40809 6.1709 -6.1709 3.40809 -6.1709 -4.76837e-07C-6.1709 -3.40809 -3.4081 -6.1709 -2.09126e-06 -6.1709Z"></path>
  <clipPath id="cl_1e0">
    <path d="M285.878 272.213C290.399 274.77 292.084 281.298 289.643 286.793C287.202 292.289 281.559 294.672 277.038 292.116C272.518 289.559 270.832 283.031 273.273 277.535C275.714 272.04 281.358 269.657 285.878 272.213Z"></path>
  </clipPath>
  <g clip-path="url(#cl_1e0)">
    <path fill="#2F1507" transform="matrix(1.3264 0.750139 -0.716245 1.61259 278.806 283.927)" d="M-1.83907e-07 -6.1709C3.40809 -6.1709 6.1709 -3.40809 6.1709 -4.76837e-07C6.1709 3.40809 3.40809 6.1709 1.83907e-07 6.1709C-3.40809 6.1709 -6.1709 3.40809 -6.1709 -4.76837e-07C-6.1709 -3.40809 -3.40809 -6.1709 -1.83907e-07 -6.1709Z"></path>
  </g>
  <path fill="#1F0D04" transform="matrix(1.3264 0.750139 -0.716245 1.61259 292.035 258.352)" d="M-2.09126e-06 -6.1709C3.40809 -6.1709 6.1709 -3.40809 6.1709 9.53674e-07C6.1709 3.40809 3.40809 6.1709 -1.72344e-06 6.1709C-3.40809 6.1709 -6.1709 3.40809 -6.1709 9.53674e-07C-6.1709 -3.40809 -3.4081 -6.1709 -2.09126e-06 -6.1709Z"></path>
  <clipPath id="cl_1e1">
    <path d="M296.454 248.401C300.975 250.958 302.661 257.486 300.22 262.981C297.779 268.477 292.135 270.86 287.615 268.303C283.094 265.747 281.408 259.219 283.849 253.723C286.29 248.227 291.934 245.845 296.454 248.401Z"></path>
  </clipPath>
  <g clip-path="url(#cl_1e1)">
    <path fill="#2F1507" transform="matrix(1.3264 0.750139 -0.716245 1.61259 288.833 261.35)" d="M-1.83907e-07 -6.1709C3.40809 -6.1709 6.1709 -3.40809 6.1709 -4.76837e-07C6.1709 3.40809 3.40809 6.1709 1.83907e-07 6.1709C-3.40809 6.1709 -6.1709 3.40809 -6.1709 -4.76837e-07C-6.1709 -3.40809 -3.40809 -6.1709 -1.83907e-07 -6.1709Z"></path>
  </g>
  <path fill="#1F0D04" transform="matrix(1.3264 0.750139 -0.716245 1.61259 302.344 293.977)" d="M-1.83907e-07 -6.1709C3.40809 -6.1709 6.1709 -3.40809 6.1709 -4.76837e-07C6.1709 3.40809 3.40809 6.1709 1.83907e-07 6.1709C-3.40809 6.1709 -6.1709 3.40809 -6.1709 -4.76837e-07C-6.1709 -3.40809 -3.40809 -6.1709 -1.83907e-07 -6.1709Z"></path>
  <clipPath id="cl_1e2">
    <path d="M306.764 284.025C311.285 286.582 312.971 293.11 310.53 298.606C308.089 304.101 302.445 306.484 297.925 303.928C293.404 301.371 291.718 294.843 294.159 289.347C296.6 283.852 302.244 281.469 306.764 284.025Z"></path>
  </clipPath>
  <g clip-path="url(#cl_1e2)">
    <path fill="#2F1507" transform="matrix(1.3264 0.750139 -0.716245 1.61259 300.386 295.122)" d="M-1.83907e-07 -6.1709C3.40809 -6.1709 6.1709 -3.40809 6.1709 9.53674e-07C6.1709 3.40809 3.40809 6.1709 1.83907e-07 6.1709C-3.40809 6.1709 -6.1709 3.40809 -6.1709 9.53674e-07C-6.1709 -3.40809 -3.40809 -6.1709 -1.83907e-07 -6.1709Z"></path>
  </g>
  <path fill="#1F0D04" transform="matrix(1.3264 0.750139 -0.716245 1.61259 312.921 270.164)" d="M-1.83907e-07 -6.1709C3.40809 -6.1709 6.1709 -3.40809 6.1709 0C6.1709 3.40809 3.40809 6.1709 1.83907e-07 6.1709C-3.40809 6.1709 -6.1709 3.40809 -6.1709 0C-6.1709 -3.40809 -3.40809 -6.1709 -1.83907e-07 -6.1709Z"></path>
  <clipPath id="cl_1e3">
    <path d="M317.341 260.213C321.861 262.77 323.547 269.298 321.106 274.793C318.665 280.289 313.021 282.672 308.501 280.116C303.98 277.559 302.295 271.031 304.736 265.535C307.177 260.039 312.82 257.657 317.341 260.213Z"></path>
  </clipPath>
  <g clip-path="url(#cl_1e3)">
    <path fill="#2F1507" transform="matrix(1.3264 0.750139 -0.716245 1.61259 309.087 271.796)" d="M0 -6.1709C3.40809 -6.1709 6.1709 -3.40809 6.1709 -4.76837e-07C6.1709 3.40809 3.40809 6.1709 0 6.1709C-3.40809 6.1709 -6.1709 3.40809 -6.1709 -4.76837e-07C-6.1709 -3.40809 -3.40809 -6.1709 0 -6.1709Z"></path>
  </g>
  <path fill="none" stroke="#E3CEC2" stroke-width="4" stroke-linecap="round" stroke-linejoin="round" transform="matrix(1.3264 0.750139 -0.716245 1.61259 291.124 257.377)" d="M2.42519 2.41434L15.2044 14.4568"></path>
  <path fill="none" stroke="#C8AD9D" stroke-width="4" stroke-linecap="round" stroke-linejoin="round" transform="matrix(1.3264 0.750139 -0.716245 1.61259 291.124 257.377)" d="M3.28776 13.1788L15.6779 1.98902"></path>
  <path fill="#4B2713" transform="matrix(0.62966 0.109679 -0.109679 0.62966 311.207 196.229)" d="M-7.62939e-06 0C-7.62939e-06 0 -15.2012 0 -18.2664 7.62939e-06C-66.3551 1.30371 -126.35 32.2772 -126.35 128C-126.35 223.723 -55.9022 256 -19 256C-15.9348 256 -7.62939e-06 256 -3.8147e-06 256C-25.5439 256 -107.35 223.723 -107.35 128C-107.35 32.2772 -25.5439 0 -7.62939e-06 0Z"></path>
</svg>