<?xml version="1.0" encoding="utf-8"?>
<svg xmlns="http://www.w3.org/2000/svg" xmlns:xlink="http://www.w3.org/1999/xlink" width="512" height="512">
  <path fill="none" stroke="black" stroke-width="6" stroke-linejoin="round" transform="matrix(1.8 0 0 1.52279 359.051 174.157)" d="M-14.5659 -17.6696C-10.7379 -18.0611 -8.03396 -18.3377 -4.51398 -18.6977C2.52395 -19.4176 9.94987 -16.1592 11.0951 -0.515598C12.2403 15.128 14.3754 44.2923 15.0153 53.0338C18.1484 95.8304 -45.1183 102.259 -48.2513 59.4628C-49.0378 48.7196 -50.4835 28.9711 -51.3942 16.5319C-52.3048 4.09274 -47.3676 -14.3144 -31.3477 -15.953C-30.2834 -16.0619 -29.2731 -16.1652 -28.3123 -16.2635"></path>
  <path fill="none" stroke="black" stroke-width="6" stroke-linejoin="round" transform="matrix(1.8 0 0 1.64041 359.051 256.403)" d="M-48.4772 -1.88482C-45.5134 -44.4782 17.7928 -41.0696 14.8291 1.52384C13.6526 18.432 11.6899 46.6379 10.4707 64.1606C10.0423 70.3172 0.771519 81.1683 -22.4165 80.1911C-45.6044 79.2139 -53.329 67.8434 -52.9951 63.0447C-51.7687 45.4193 -49.3454 10.593 -48.4772 -1.88482Z"></path>
  <path fill="#503F7E" transform="matrix(1.8 0 0 1.52279 359.051 174.157)" d="M-51.3942 16.5319C-52.3048 4.09275 -47.3676 -14.3144 -31.3477 -15.953C-15.3277 -17.5916 -11.5519 -17.9778 -4.51398 -18.6977C2.52395 -19.4176 9.94987 -16.1592 11.0951 -0.515594C12.2403 15.128 14.3754 44.2923 15.0153 53.0338C18.1484 95.8304 -45.1183 102.259 -48.2513 59.4628C-49.0378 48.7196 -50.4835 28.9711 -51.3942 16.5319Z"></path>
  <path fill="#503F7E" transform="matrix(1.8 0 0 1.64041 359.051 256.403)" d="M-48.4772 -1.88482C-45.5134 -44.4782 17.7928 -41.0696 14.8291 1.52384C13.6526 18.432 11.6899 46.6379 10.4707 64.1606C10.0423 70.3172 0.771519 81.1683 -22.4165 80.1911C-45.6044 79.2139 -53.329 67.8434 -52.9951 63.0447C-51.7687 45.4193 -49.3454 10.593 -48.4772 -1.88482Z"></path>
  <path fill="none" stroke="black" stroke-width="5" stroke-linejoin="round" transform="matrix(1.67985 0 0 1.8 269.501 356.202)" d="M-0.0513 -15.6775C18.1741 -15.7157 31.1298 -11.5709 31.2438 35.8179C31.7172 49.918 35.9373 65.0802 20.9465 74.0952C9.37788 74.0031 -3.54554 74.8094 -20.0102 74.5449C-30.8512 65.7009 -31.374 51.8604 -31.9683 35.0473C-32.6962 -11.4371 -18.2766 -15.6393 -0.0513 -15.6775Z"></path>
  <path fill="#453279" transform="matrix(1.67985 0 0 1.8 269.501 356.202)" d="M-0.0513 -15.6775C18.1741 -15.7157 31.1298 -11.5709 31.2438 35.8179C31.7172 49.918 35.9373 65.0802 20.9465 74.0952C9.37788 74.0031 -3.54554 74.8094 -20.0102 74.5449C-30.8512 65.7009 -31.374 51.8604 -31.9683 35.0473C-32.6962 -11.4371 -18.2766 -15.6393 -0.0513 -15.6775Z"></path>
  <path fill="none" stroke="black" stroke-width="5" stroke-linejoin="round" transform="matrix(1.67985 0 0 1.8 191.63 362.835)" d="M-1.41282 -14.2186C16.71 -16.0208 35.7144 -9.93827 35.4488 37.1584C35.9545 55.9214 35.3063 70.1469 19.2305 75.5196C3.75218 75.6251 -6.93709 75.6477 -21.7643 75.0523C-35.862 67.2372 -27.5899 52.3464 -27.3665 35.9523C-27.7181 -10.2499 -19.5356 -12.4163 -1.41282 -14.2186Z"></path>
  <path fill="none" stroke="black" stroke-width="5" stroke-linejoin="round" transform="matrix(1.79976 0.0276995 -0.0293645 1.69771 274.681 284.215)" d="M-11.3238 -80.2543C25.8014 -80.2543 54.9476 -94.6926 58.9092 -40.8672C62.8708 12.9582 37.0524 74.7499 0.0572919 75.3534C-14.1177 75.5847 -17.7665 75.6442 -48.2096 76.1409C-78.6526 76.6376 -84.25 60.12 -84.25 1.90735e-06C-86.6294 -86.0849 -88.6034 -78.4854 -12.7475 -80.2208"></path>
  <path fill="#503F7E" transform="matrix(1.67985 0 0 1.8 191.63 362.835)" d="M-1.41282 -14.2186C16.71 -16.0208 35.7144 -9.93827 35.4488 37.1584C35.9545 55.9214 35.3063 70.1469 19.2305 75.5196C3.75218 75.6251 -6.93709 75.6477 -21.7643 75.0523C-35.862 67.2372 -27.5899 52.3464 -27.3665 35.9523C-27.7181 -10.2499 -19.5356 -12.4163 -1.41282 -14.2186Z"></path>
  <path fill="none" stroke="black" stroke-width="5" stroke-linejoin="round" transform="matrix(1.53139 0 0 1.39334 226.982 130.158)" d="M0 -40C20.9426 -40 35.0096 -26.8589 47.8597 -2.20018C49.1253 -3.81499 50.3123 -3.57653 51.1974 -3.11682C52.0824 -2.65711 52.5509 -1.60562 52.2206 -0.665342C53.8523 0.0631991 55.2854 1.47333 55.8775 2.67698C56.9197 4.79566 57.6743 10.5072 53.7931 11.8212C58.5977 31.9882 20.3682 22.0914 -1.32962e-05 22.0914C-20.2357 22.0914 -45.0732 28.3281 -41.8836 12.9784C-44.6787 11.8212 -48.2008 8.95144 -46.5316 4.29175C-45.7036 1.98006 -43.8185 0.567089 -42.3936 0.566997C-41.0392 0.56691 -42.9934 -2.2 -40.2188 -3.81491C-39.0195 -4.51291 -37.7273 -4.43211 -36.6068 -4.12355C-28.0141 -23.7311 -20.4124 -40 0 -40Z"></path>
  <path fill="#503F7E" transform="matrix(1.79976 0.0276995 -0.0293645 1.69771 274.681 284.215)" d="M-11.3238 -80.2543C25.8014 -80.2543 54.9476 -94.6926 58.9092 -40.8672C62.8708 12.9582 37.0524 74.7499 0.0572919 75.3534C-14.1177 75.5847 -17.7665 75.6442 -48.2096 76.1409C-78.6526 76.6376 -84.25 60.12 -84.25 1.90735e-06C-86.6442 -86.62 -88.6279 -78.3873 -11.3238 -80.2543Z"></path>
  <clipPath id="cl_2a">
    <path d="M256.658 147.653C323.474 148.682 376.354 124.977 381.904 216.466C387.453 307.956 339.172 412.146 272.572 412.145C247.053 412.145 240.485 412.145 185.68 412.145C130.875 412.145 121.286 383.948 123.052 281.882C121.286 134.76 117.474 148.681 256.658 147.653Z"></path>
  </clipPath>
  <g clip-path="url(#cl_2a)">
    <path fill="#655494" transform="matrix(1.8 0 0 1.8 311.807 266.295)" d="M-0.158648 -48.2655C25.513 -48.2655 46.324 -26.6563 46.324 0C46.324 26.6563 25.513 48.2655 -0.158648 48.2655C-25.8303 48.2655 -46.6413 26.6563 -46.6413 0C-46.6413 -26.6563 -25.8303 -48.2655 -0.158648 -48.2655Z"></path>
  </g>
  <path fill="none" stroke="black" stroke-width="2" stroke-linejoin="round" transform="matrix(3.88825 -0.763212 0.691401 3.5224 233.781 51.91)" d="M-4.34758 -5.25472C-4.34758 -11.5047 3.66088 -11.5047 3.66088 -5.25472C3.66088 0.99528 3.66088 12.5 3.66088 12.5L-4.57314 12.5C-4.57314 12.5 -4.34758 0.99528 -4.34758 -5.25472Z"></path>
  <path fill="none" stroke="black" stroke-width="2" stroke-linejoin="round" transform="matrix(3.5224 -0.691401 0.691401 3.5224 199.573 57.3229)" d="M-5.1645 -6.50116C-5.16451 -12.7512 6 -12.7512 6 -6.50116C6 -0.251162 6 12.5 6 12.5L-6 12.5C-6 12.5 -5.1645 -0.251163 -5.1645 -6.50116Z"></path>
  <path fill="#453279" transform="matrix(3.88825 -0.763212 0.691401 3.5224 233.781 51.91)" d="M-4.34758 -5.25472C-4.34758 -11.5047 3.66088 -11.5047 3.66088 -5.25472C3.66088 0.99528 3.66088 12.5 3.66088 12.5L-4.57314 12.5C-4.57314 12.5 -4.34758 0.99528 -4.34758 -5.25472Z"></path>
  <path fill="none" stroke="#161616" stroke-width="0.5" stroke-linecap="round" stroke-linejoin="round" transform="matrix(3.88825 -0.763212 0.691401 3.5224 228.988 32.3784)" d="M4.54547e-06 1.51652L3.83069e-06 10.5382"></path>
  <path fill="#503F7E" transform="matrix(3.5224 -0.691401 0.691401 3.5224 199.573 57.3229)" d="M-5.1645 -6.50116C-5.1645 -12.7512 6 -12.7512 6 -6.50116C6 -0.251162 6 12.5 6 12.5L-6 12.5C-6 12.5 -5.1645 -0.251163 -5.1645 -6.50116Z"></path>
  <path fill="none" stroke="#161616" stroke-width="0.5" stroke-linecap="round" stroke-linejoin="round" transform="matrix(3.5224 -0.691401 0.691401 3.5224 199.787 37.3044)" d="M2.56958e-07 3.8412e-06L4.07165e-06 10.5382"></path>
  <path fill="#503F7E" transform="matrix(1.53139 0 0 1.39334 226.982 130.158)" d="M0 -40C20.9426 -40 35.0096 -26.8589 47.8597 -2.20018C49.1253 -3.81499 50.3123 -3.57653 51.1974 -3.11682C52.0824 -2.65711 52.5509 -1.60562 52.2206 -0.665342C53.8523 0.0631991 55.2854 1.47333 55.8775 2.67698C56.9197 4.79566 57.6743 10.5072 53.7931 11.8212C58.5977 31.9882 20.3682 22.0914 -1.32962e-05 22.0914C-20.2357 22.0914 -45.0732 28.3281 -41.8836 12.9784C-44.6787 11.8212 -48.2008 8.95144 -46.5316 4.29175C-45.7036 1.98006 -43.8185 0.567089 -42.3936 0.566997C-41.0392 0.56691 -42.9934 -2.2 -40.2188 -3.81491C-39.0195 -4.51291 -37.7273 -4.43211 -36.6068 -4.12355C-28.0141 -23.7311 -20.4124 -40 0 -40Z"></path>
  <clipPath id="cl_2b">
    <path d="M226.982 74.4245C259.053 74.4245 280.595 92.7346 300.273 127.093C302.211 124.843 304.029 125.175 305.384 125.815C306.74 126.456 307.457 127.921 306.951 129.231C309.45 130.246 311.645 132.211 312.552 133.888C314.148 136.84 315.303 144.798 309.359 146.629C316.717 174.729 258.173 160.939 226.981 160.939C195.993 160.939 157.957 169.629 162.842 148.242C158.561 146.629 153.168 142.631 155.724 136.138C156.992 132.917 159.879 130.948 162.061 130.948C164.135 130.948 161.142 127.093 165.391 124.843C167.228 123.87 169.206 123.983 170.922 124.413C184.081 97.0927 195.722 74.4245 226.982 74.4245Z"></path>
  </clipPath>
  <g clip-path="url(#cl_2b)">
    <path fill="#7463A5" transform="matrix(1.8 2.98023e-08 0.00759348 1.8 223.716 115.016)" d="M1.90735e-06 -5.5C3.866 -5.5 7 -2.92564 7 0.25C7 3.42564 3.866 6 1.90735e-06 6C-3.86599 6 -7 3.42564 -7 0.25C-7 -2.92564 -3.86599 -5.5 1.90735e-06 -5.5Z"></path>
    <path fill="#7463A5" transform="matrix(1.83618 3.04014e-08 0.00759348 1.8 276.264 106.869)" d="M0 -5C2.76142 -5 5 -2.6495 5 0.25C5 3.1495 2.76142 5.5 0 5.5C-2.76142 5.5 -5 3.1495 -5 0.25C-5 -2.6495 -2.76142 -5 0 -5Z"></path>
    <path fill="none" stroke="#131212" stroke-width="1" stroke-linecap="round" stroke-linejoin="round" transform="matrix(2.30699 -0.373724 0.274137 1.69224 254.495 100.174)" d="M4.88246e-07 -4.14104e-07L2.92891 -0.714567"></path>
    <path fill="none" stroke="#131212" stroke-width="1" stroke-linecap="round" stroke-linejoin="round" transform="matrix(2.30699 -0.373724 0.274137 1.69224 232.745 99.3439)" d="M2.38419e-07 -1.48459e-07L4.25731 1.79213"></path>
    <path fill="#131212" transform="matrix(2.47104 -0.400299 0.405754 2.50471 246.53 102.454)" d="M-4.99596e-07 -4.03018e-06L1.9614 0.352734L0.915089 1.42246L-4.99596e-07 -4.03018e-06Z"></path>
    <path fill="none" stroke="#131212" stroke-width="0.5" stroke-linecap="round" stroke-linejoin="round" transform="matrix(1.93759 -0.313883 0.31816 1.96399 249.589 105.99)" d="M1.18428e-07 -0.711224L-3.72341e-06 1.1102"></path>
    <path fill="#32225E" transform="matrix(1.74285 0.441491 -0.424043 1.74552 243.377 94.5885)" d="M-1.93607e-06 -1.92715C1.6285 -1.92715 2.94867 -1.06433 2.94867 7.58546e-06C2.94867 1.06435 1.6285 1.92716 -1.87863e-06 1.92716C-1.62851 1.92716 -2.94867 1.06435 -2.94867 7.67333e-06C-2.94867 -1.06433 -1.62851 -1.92715 -1.93607e-06 -1.92715Z"></path>
    <path fill="#32225E" transform="matrix(1.71213 0.433708 -0.412468 1.69787 254.57 93.7137)" d="M-3.8147e-06 -1.8992C0.889985 -1.8992 1.61146 -1.0489 1.61146 -7.65341e-06C1.61146 1.04889 0.889985 1.89918 -3.8147e-06 1.89918C-0.889993 1.89918 -1.61147 1.04889 -1.61147 -7.60538e-06C-1.61147 -1.0489 -0.889993 -1.8992 -3.8147e-06 -1.8992Z"></path>
  </g>
  <path fill="none" stroke="black" stroke-width="6" stroke-linejoin="round" transform="matrix(1.8 0 0 1.8 170.253 266.74)" d="M-15.9134 29.0318C-52.7208 14.0875 -28.8328 -44.748 7.97458 -29.8037C23.6514 -23.4387 49.3114 -14.7931 65.7892 -8.79739C71.5787 -6.6908 79.3023 5.17535 71.6099 27.1071C63.9176 49.0388 50.7449 53.3015 46.2323 51.6596C29.658 45.6287 -4.34427 33.729 -15.9134 29.0318Z"></path>
  <path fill="none" stroke="black" stroke-width="6" stroke-linecap="round" stroke-linejoin="bevel" transform="matrix(1.8 0 0 1.67094 170.253 176.493)" d="M28.8225 41.1974C28.1952 49.0372 27.6555 55.7817 27.3763 59.2715C23.9519 102.069 -39.3102 96.153 -35.8858 53.3552C-35.0261 42.6116 -33.4459 22.8626 -32.4506 10.4231C-31.4553 -2.01648 -23.7952 -19.2068 -7.77481 -17.7193C-5.95145 -17.55 -4.28669 -17.3954 -2.75769 -17.2534"></path>
  <path fill="#503F7E" transform="matrix(1.8 0 0 1.67094 170.253 176.493)" d="M-32.4506 10.4231C-31.4553 -2.01647 -23.7952 -19.2068 -7.77481 -17.7193C8.24559 -16.2318 12.0215 -15.8812 19.0597 -15.2277C26.0978 -14.5742 32.9128 -9.92354 31.6611 5.72052C30.4094 21.3646 28.0758 50.5298 27.3763 59.2715C24.3642 96.9169 -38.8979 91.0006 -35.8858 53.3552C-35.0261 42.6116 -33.4459 22.8626 -32.4506 10.4231Z"></path>
  <path fill="none" stroke="black" stroke-width="4" stroke-linejoin="round" transform="matrix(1.8 0 0 1.8 352.158 169.094)" d="M-11.7479 -12.9046C-11.318 -13.5165 -10.7601 -14.1187 -10.0572 -14.7065C-5.47351 -18.5399 3.93804 -16.1165 4.43081 -14.7065C7.46664 -16.1165 10.8961 -16.6614 15.0174 -13.9738C19.1387 -11.2862 16.2386 -4.86793 16.6118 -4.55444C16.985 -4.24095 25.2116 0.494543 17.5976 8.33766C16.6439 8.92035 15.7365 9.39702 14.8735 9.77867"></path>
  <path fill="#7463A5" transform="matrix(1.8 0 0 1.8 352.158 169.094)" d="M-0.116455 0C-2.60165 -0.66394 -7.05858 1.11792 -10.0572 -2.65576C-13.0559 -6.42944 -14.6409 -10.8732 -10.0572 -14.7065C-5.47351 -18.5399 3.93804 -16.1165 4.43081 -14.7065C7.46664 -16.1165 10.8961 -16.6614 15.0174 -13.9738C19.1387 -11.2862 16.2386 -4.86793 16.6118 -4.55444C16.985 -4.24095 25.2116 0.494543 17.5976 8.33766C2.9012 17.3171 -0.809986 1.11792 -0.116455 0Z"></path>
  <path fill="#503F7E" transform="matrix(1.8 0 0 1.8 170.253 266.74)" d="M-15.9134 29.0318C-54.2495 13.4668 -30.3615 -45.3687 7.97458 -29.8037C23.6514 -23.4387 49.3114 -14.7931 65.7892 -8.7974C71.5787 -6.6908 79.3023 5.17535 71.6099 27.1071C63.9176 49.0388 50.7449 53.3015 46.2323 51.6596C29.658 45.6287 -4.34427 33.729 -15.9134 29.0318Z"></path>
  <path fill="#312F2F" transform="matrix(0.503719 0.183287 -0.218544 0.600616 266.024 294.18)" d="M0 -128C70.6925 -128 128 -70.6924 128 3.8147e-06C128 70.6925 70.6925 128 0 128C-70.6925 128 -128 70.6925 -128 3.8147e-06C-128 -70.6924 -70.6925 -128 0 -128Z"></path>
  <path fill="none" stroke="black" stroke-width="7" stroke-miterlimit="4" transform="translate(256 256)" d="M49.4096 -34.5463C85.0187 -21.5893 101.361 23.3342 85.912 65.7932C70.4626 108.252 29.0715 132.168 -6.5377 119.211C-42.1469 106.254 -58.4896 61.3308 -43.0402 18.8718C-27.5907 -23.5872 13.8004 -47.5033 49.4096 -34.5463Z"></path>
  <path fill="none" stroke="black" stroke-width="7" stroke-linejoin="round" transform="translate(256 256)" d="M49.4096 -34.5463C49.4096 -34.5463 40.2795 -37.8684 38.4385 -38.5383C9.27077 -48.2648 -33.5322 -42.7732 -54.4518 14.7195C-75.3715 72.2121 -40.1134 106.994 -17.9494 115.059C-16.1084 115.729 -6.5377 119.211 -6.5377 119.211C-7.04054 119.028 -7.5721 118.811 -8.12923 118.561"></path>
  <path fill="#8D5A3E" transform="matrix(0.503719 0.183287 -0.218544 0.600616 277.436 298.333)" d="M0 -128C70.6925 -128 128 -70.6925 128 0C128 70.6925 70.6925 128 0 128C-70.6925 128 -128 70.6925 -128 0C-128 -70.6925 -70.6925 -128 0 -128Z"></path>
  <path fill="#4B2713" transform="matrix(0.503719 0.183287 -0.218544 0.600616 280.929 298.923)" d="M0.25 -87.5C51.4744 -87.5 93 -48.4368 93 -0.25C93 47.9368 51.4744 87 0.25 87C-50.9744 87 -92.5 47.9368 -92.5 -0.25C-92.5 -48.4368 -50.9744 -87.5 0.25 -87.5Z"></path>
  <path fill="#693920" transform="matrix(0.503719 0.183287 -0.218544 0.600616 277.436 298.333)" d="M0 -86C47.4965 -86 86 -47.4965 86 0C86 47.4965 47.4965 86 0 86C-47.4965 86 -86 47.4965 -86 0C-86 -47.4965 -47.4965 -86 0 -86Z"></path>
  <path fill="#1F0D04" transform="matrix(1.17407 0.971402 -0.988289 1.46176 261.032 300.829)" d="M3.67814e-07 -6.1709C3.40809 -6.1709 6.1709 -3.4081 6.1709 -1.90735e-06C6.1709 3.40809 3.40809 6.1709 -3.67814e-07 6.1709C-3.40809 6.1709 -6.1709 3.40809 -6.1709 -1.90735e-06C-6.1709 -3.4081 -3.40809 -6.1709 3.67814e-07 -6.1709Z"></path>
  <clipPath id="cl_33">
    <path d="M267.131 291.809C271.132 295.12 271.646 301.842 268.278 306.824C264.909 311.806 258.935 313.16 254.934 309.85C250.932 306.539 250.419 299.817 253.787 294.835C257.156 289.853 263.13 288.498 267.131 291.809Z"></path>
  </clipPath>
  <g clip-path="url(#cl_33)">
    <path fill="#2F1507" transform="matrix(1.17407 0.971402 -0.988289 1.46176 258.112 302.098)" d="M3.67814e-07 -6.1709C3.40809 -6.1709 6.1709 -3.40809 6.1709 1.90735e-06C6.1709 3.4081 3.40809 6.1709 -3.67814e-07 6.1709C-3.40809 6.1709 -6.1709 3.4081 -6.1709 1.90735e-06C-6.1709 -3.40809 -3.40809 -6.1709 3.67814e-07 -6.1709Z"></path>
  </g>
  <path fill="#1F0D04" transform="matrix(1.17407 0.971402 -0.988289 1.46176 275.626 279.245)" d="M3.67814e-07 -6.1709C3.40809 -6.1709 6.1709 -3.40809 6.1709 -7.15256e-07C6.1709 3.40809 3.40809 6.1709 -3.67814e-07 6.1709C-3.40809 6.1709 -6.1709 3.40809 -6.1709 -7.15256e-07C-6.1709 -3.40809 -3.40809 -6.1709 3.67814e-07 -6.1709Z"></path>
  <clipPath id="cl_34">
    <path d="M281.725 270.224C285.726 273.535 286.239 280.257 282.871 285.239C279.503 290.221 273.529 291.576 269.527 288.265C265.526 284.954 265.013 278.232 268.381 273.25C271.749 268.268 277.723 266.914 281.725 270.224Z"></path>
  </clipPath>
  <g clip-path="url(#cl_34)">
    <path fill="#2F1507" transform="matrix(1.17407 0.971402 -0.988289 1.46176 271.948 281.634)" d="M2.27516e-06 -6.1709C3.4081 -6.1709 6.1709 -3.40809 6.1709 0C6.1709 3.40809 3.4081 6.1709 1.53953e-06 6.1709C-3.40809 6.1709 -6.1709 3.40809 -6.1709 0C-6.1709 -3.40809 -3.40809 -6.1709 2.27516e-06 -6.1709Z"></path>
  </g>
  <path fill="#1F0D04" transform="matrix(1.17407 0.971402 -0.988289 1.46176 279.52 316.126)" d="M3.67814e-07 -6.1709C3.40809 -6.1709 6.1709 -3.40809 6.1709 1.90735e-06C6.1709 3.4081 3.40809 6.1709 -3.67814e-07 6.1709C-3.40809 6.1709 -6.1709 3.4081 -6.1709 1.90735e-06C-6.1709 -3.40809 -3.40809 -6.1709 3.67814e-07 -6.1709Z"></path>
  <clipPath id="cl_35">
    <path d="M285.619 307.105C289.62 310.416 290.133 317.138 286.765 322.12C283.397 327.102 277.423 328.457 273.421 325.146C269.42 321.835 268.907 315.113 272.275 310.131C275.643 305.149 281.617 303.795 285.619 307.105Z"></path>
  </clipPath>
  <g clip-path="url(#cl_35)">
    <path fill="#2F1507" transform="matrix(1.17407 0.971402 -0.988289 1.46176 277.391 316.91)" d="M3.67814e-07 -6.1709C3.40809 -6.1709 6.1709 -3.4081 6.1709 -1.90735e-06C6.1709 3.40809 3.40809 6.1709 -3.67814e-07 6.1709C-3.40809 6.1709 -6.1709 3.40809 -6.1709 -1.90735e-06C-6.1709 -3.4081 -3.40809 -6.1709 3.67814e-07 -6.1709Z"></path>
  </g>
  <path fill="#1F0D04" transform="matrix(1.17407 0.971402 -0.988289 1.46176 294.113 294.541)" d="M3.67814e-07 -6.1709C3.40809 -6.1709 6.1709 -3.40809 6.1709 -2.38419e-07C6.1709 3.40809 3.40809 6.1709 -3.67814e-07 6.1709C-3.40809 6.1709 -6.1709 3.40809 -6.1709 -2.38419e-07C-6.1709 -3.40809 -3.40809 -6.1709 3.67814e-07 -6.1709Z"></path>
  <clipPath id="cl_36">
    <path d="M300.212 285.52C304.213 288.831 304.727 295.553 301.358 300.535C297.99 305.517 292.016 306.872 288.015 303.561C284.013 300.25 283.5 293.528 286.868 288.546C290.236 283.564 296.211 282.21 300.212 285.52Z"></path>
  </clipPath>
  <g clip-path="url(#cl_36)">
    <path fill="#2F1507" transform="matrix(1.17407 0.971402 -0.988289 1.46176 290.053 295.474)" d="M3.8147e-06 -6.1709C3.4081 -6.1709 6.1709 -3.40809 6.1709 1.61442e-06C6.1709 3.40809 3.4081 6.1709 3.8147e-06 6.1709C-3.40809 6.1709 -6.1709 3.40809 -6.1709 1.2466e-06C-6.1709 -3.40809 -3.40809 -6.1709 3.8147e-06 -6.1709Z"></path>
  </g>
  <path fill="none" stroke="#E3CEC2" stroke-width="4" stroke-linecap="round" stroke-linejoin="round" transform="matrix(1.17407 0.971402 -0.988289 1.46176 274.901 278.125)" d="M2.42519 2.41434L15.2044 14.4568"></path>
  <path fill="none" stroke="#C8AD9D" stroke-width="4" stroke-linecap="round" stroke-linejoin="round" transform="matrix(1.17407 0.971402 -0.988289 1.46176 274.901 278.125)" d="M3.28776 13.1788L15.6779 1.98902"></path>
  <path fill="#4B2713" transform="matrix(0.600616 0.218544 -0.218544 0.600616 305.41 221.454)" d="M-7.62939e-06 7.62939e-06C-7.62939e-06 7.62939e-06 -15.2012 1.14441e-05 -18.2664 1.14441e-05C-66.3551 1.3037 -126.35 32.2772 -126.35 128C-126.35 223.723 -55.9022 256 -19 256C-15.9348 256 9.53674e-07 256 9.53674e-07 256C-25.5438 256 -107.35 223.723 -107.35 128C-107.35 32.2772 -25.5438 3.8147e-06 -7.62939e-06 7.62939e-06Z"></path>
</svg>