<?xml version="1.0" encoding="utf-8"?>
<svg xmlns="http://www.w3.org/2000/svg" xmlns:xlink="http://www.w3.org/1999/xlink" width="512" height="512">
  <path fill="none" stroke="black" stroke-width="6" stroke-linejoin="round" transform="matrix(1.8 0 0 1.52279 359.051 178.321)" d="M-14.1605 -17.519C-10.3755 -17.8115 -7.6826 -18.0196 -4.1856 -18.2898C2.86359 -18.8345 10.2299 -15.3921 11.0964 0.276531C11.9629 15.9452 13.5783 45.1561 14.0625 53.9116C16.4331 96.7766 -46.934 101.631 -49.3046 58.7656C-49.8996 48.0052 -50.9935 28.2252 -51.6825 15.7661C-52.3716 3.30702 -47.1078 -14.9732 -31.0622 -16.2131C-29.963 -16.298 -28.9213 -16.3785 -27.9322 -16.4549"></path>
  <path fill="none" stroke="black" stroke-width="6" stroke-linejoin="round" transform="matrix(1.8 0 0 1.64041 359.051 260.567)" d="M-49.4016 -2.48178C-45.6943 -45.0029 17.5421 -40.2416 13.8348 2.2795C12.3631 19.1589 9.90809 47.317 8.38293 64.8099C7.84706 70.9561 -1.61176 81.6066 -24.7789 80.1339C-47.946 78.6612 -55.4707 67.1281 -55.053 62.3374C-53.5189 44.742 -50.4876 9.97487 -49.4016 -2.48178Z"></path>
  <path fill="#503F7E" transform="matrix(1.8 0 0 1.52279 359.051 178.321)" d="M-51.6825 15.7661C-52.3716 3.30701 -47.1078 -14.9732 -31.0622 -16.2131C-15.0166 -17.4529 -11.2348 -17.7451 -4.1856 -18.2898C2.86359 -18.8345 10.2299 -15.3921 11.0964 0.276535C11.9629 15.9452 13.5783 45.1561 14.0625 53.9116C16.4331 96.7766 -46.934 101.631 -49.3046 58.7656C-49.8996 48.0052 -50.9935 28.2252 -51.6825 15.7661Z"></path>
  <path fill="#503F7E" transform="matrix(1.8 0 0 1.64041 359.051 260.567)" d="M-49.4016 -2.48178C-45.6943 -45.0029 17.5421 -40.2416 13.8348 2.2795C12.3631 19.1589 9.90809 47.317 8.38293 64.8099C7.84706 70.9561 -1.61176 81.6066 -24.7789 80.1339C-47.946 78.6612 -55.4707 67.1281 -55.053 62.3374C-53.5189 44.742 -50.4876 9.97487 -49.4016 -2.48178Z"></path>
  <path fill="none" stroke="black" stroke-width="5" stroke-linejoin="round" transform="matrix(1.67985 0 0 1.8 269.501 356.202)" d="M-5.75009 -15.674C12.4745 -15.8328 25.4614 -11.7737 25.9354 35.6131C26.5159 49.7097 30.8878 64.894 15.9011 74.0928C4.3324 74.0007 -8.59101 74.8071 -25.0557 74.5426C-35.8985 65.6481 -36.559 52.0694 -37.2809 35.2608C-38.362 -11.2177 -23.9747 -15.5152 -5.75009 -15.674Z"></path>
  <path fill="#453279" transform="matrix(1.67985 0 0 1.8 269.501 356.202)" d="M-5.75009 -15.674C12.4745 -15.8328 25.4614 -11.7737 25.9354 35.6131C26.5159 49.7097 30.8878 64.894 15.9011 74.0928C4.3324 74.0007 -8.59101 74.8071 -25.0557 74.5426C-35.8985 65.6481 -36.559 52.0694 -37.2809 35.2608C-38.362 -11.2177 -23.9747 -15.5152 -5.75009 -15.674Z"></path>
  <path fill="none" stroke="black" stroke-width="5" stroke-linejoin="round" transform="matrix(1.67985 0 0 1.8 191.63 362.835)" d="M-1.39845 -12.7194C15.009 -20.1245 51.6802 -7.93959 50.4901 34.1931C50.5632 50.9893 38.9421 73.4499 21.8489 73.1737C7.08667 68.8294 -3.0915 65.7815 -17.0032 60.9574C-27.1404 48.9754 -6.21765 46.6716 -5.68628 32.0077C-5.06665 -9.33558 -17.8059 -5.3143 -1.39845 -12.7194Z"></path>
  <path fill="none" stroke="black" stroke-width="5" stroke-linejoin="round" transform="matrix(1.79976 0.0276995 -0.0293645 1.69771 274.681 288.379)" d="M-11.3238 -80.2543C25.8014 -80.2543 54.9476 -94.6926 58.9092 -40.8672C62.8708 12.9582 37.0524 74.7499 0.0572909 75.3534C-14.1177 75.5847 -17.7665 75.6442 -48.2096 76.1409C-78.6526 76.6376 -84.25 60.12 -84.25 1.90735e-06C-86.6294 -86.0849 -88.6034 -78.4854 -12.7475 -80.2208"></path>
  <path fill="#503F7E" transform="matrix(1.67985 0 0 1.8 191.63 362.835)" d="M-1.39845 -12.7194C15.009 -20.1245 51.6802 -7.93959 50.4901 34.1931C50.5632 50.9893 38.9421 73.4499 21.8489 73.1737C7.08667 68.8294 -3.0915 65.7815 -17.0032 60.9574C-27.1404 48.9754 -6.21765 46.6716 -5.68628 32.0077C-5.06665 -9.33558 -17.8059 -5.3143 -1.39845 -12.7194Z"></path>
  <path fill="none" stroke="black" stroke-width="5" stroke-linejoin="round" transform="matrix(1.53139 0 0 1.39334 226.982 139.777)" d="M0 -40C20.9426 -40 35.0096 -26.8589 47.8597 -2.20018C49.1253 -3.81499 50.3123 -3.57653 51.1974 -3.11682C52.0824 -2.65711 52.5509 -1.60562 52.2206 -0.665342C53.8523 0.0631991 55.2854 1.47333 55.8775 2.67698C56.9197 4.79566 57.6743 10.5072 53.7931 11.8212C58.5977 31.9882 20.3682 22.0914 -1.32962e-05 22.0914C-20.2357 22.0914 -45.0732 28.3281 -41.8836 12.9784C-44.6787 11.8212 -48.2008 8.95144 -46.5316 4.29175C-45.7036 1.98006 -43.8185 0.567089 -42.3936 0.566997C-41.0392 0.56691 -42.9934 -2.2 -40.2188 -3.81491C-39.0195 -4.51291 -37.7273 -4.43211 -36.6068 -4.12355C-28.0141 -23.7311 -20.4124 -40 0 -40Z"></path>
  <path fill="#503F7E" transform="matrix(1.79976 0.0276995 -0.0293645 1.69771 274.681 288.379)" d="M-11.3238 -80.2543C25.8014 -80.2543 54.9476 -94.6926 58.9092 -40.8672C62.8708 12.9582 37.0524 74.7499 0.0572909 75.3534C-14.1177 75.5847 -17.7665 75.6442 -48.2096 76.1409C-78.6526 76.6376 -84.25 60.12 -84.25 1.90735e-06C-86.6442 -86.62 -88.6279 -78.3873 -11.3238 -80.2543Z"></path>
  <clipPath id="cl_b9">
    <path d="M256.658 151.817C323.474 152.845 376.354 129.14 381.904 220.63C387.453 312.12 339.172 416.309 272.572 416.309C247.053 416.309 240.485 416.309 185.68 416.309C130.875 416.309 121.286 388.112 123.052 286.045C121.286 138.923 117.474 152.845 256.658 151.817Z"></path>
  </clipPath>
  <g clip-path="url(#cl_b9)">
    <path fill="#655494" transform="matrix(1.8 0 0 1.8 311.807 270.458)" d="M-0.158648 -48.2655C25.513 -48.2655 46.324 -26.6563 46.324 0C46.324 26.6563 25.513 48.2655 -0.158648 48.2655C-25.8303 48.2655 -46.6413 26.6563 -46.6413 0C-46.6413 -26.6563 -25.8303 -48.2655 -0.158648 -48.2655Z"></path>
  </g>
  <path fill="none" stroke="black" stroke-width="2" stroke-linejoin="round" transform="matrix(3.88825 -0.763212 0.691401 3.5224 233.781 61.5291)" d="M-4.34758 -5.25471C-4.34758 -11.5047 3.66088 -11.5047 3.66088 -5.25472C3.66088 0.995284 3.66088 12.5 3.66088 12.5L-4.57314 12.5C-4.57314 12.5 -4.34758 0.995284 -4.34758 -5.25471Z"></path>
  <path fill="none" stroke="black" stroke-width="2" stroke-linejoin="round" transform="matrix(3.5224 -0.691401 0.691401 3.5224 199.573 66.942)" d="M-5.1645 -6.50117C-5.1645 -12.7512 6 -12.7512 6 -6.50117C6 -0.251166 6 12.5 6 12.5L-6 12.5C-6 12.5 -5.1645 -0.251167 -5.1645 -6.50117Z"></path>
  <path fill="#453279" transform="matrix(3.88825 -0.763212 0.691401 3.5224 233.781 61.5291)" d="M-4.34758 -5.25471C-4.34758 -11.5047 3.66088 -11.5047 3.66088 -5.25472C3.66088 0.995284 3.66088 12.5 3.66088 12.5L-4.57314 12.5C-4.57314 12.5 -4.34758 0.995284 -4.34758 -5.25471Z"></path>
  <path fill="none" stroke="#161616" stroke-width="0.5" stroke-linecap="round" stroke-linejoin="round" transform="matrix(3.88825 -0.763212 0.691401 3.5224 228.988 41.9975)" d="M4.06863e-06 1.51652L3.35385e-06 10.5382"></path>
  <path fill="#503F7E" transform="matrix(3.5224 -0.691401 0.691401 3.5224 199.573 66.942)" d="M-5.1645 -6.50117C-5.1645 -12.7512 6 -12.7512 6 -6.50117C6 -0.251166 6 12.5 6 12.5L-6 12.5C-6 12.5 -5.1645 -0.251167 -5.1645 -6.50117Z"></path>
  <path fill="none" stroke="#161616" stroke-width="0.5" stroke-linecap="round" stroke-linejoin="round" transform="matrix(3.5224 -0.691401 0.691401 3.5224 199.787 46.9235)" d="M4.95376e-07 3.8412e-06L4.31007e-06 10.5382"></path>
  <path fill="#503F7E" transform="matrix(1.53139 0 0 1.39334 226.982 139.777)" d="M0 -40C20.9426 -40 35.0096 -26.8589 47.8597 -2.20018C49.1253 -3.81499 50.3123 -3.57653 51.1974 -3.11682C52.0824 -2.65711 52.5509 -1.60562 52.2206 -0.665342C53.8523 0.0631991 55.2854 1.47333 55.8775 2.67698C56.9197 4.79566 57.6743 10.5072 53.7931 11.8212C58.5977 31.9882 20.3682 22.0914 -1.32962e-05 22.0914C-20.2357 22.0914 -45.0732 28.3281 -41.8836 12.9784C-44.6787 11.8212 -48.2008 8.95144 -46.5316 4.29175C-45.7036 1.98006 -43.8185 0.567089 -42.3936 0.566997C-41.0392 0.56691 -42.9934 -2.2 -40.2188 -3.81491C-39.0195 -4.51291 -37.7273 -4.43211 -36.6068 -4.12355C-28.0141 -23.7311 -20.4124 -40 0 -40Z"></path>
  <clipPath id="cl_ba">
    <path d="M226.982 84.0436C259.053 84.0436 280.595 102.354 300.273 136.712C302.211 134.462 304.029 134.794 305.384 135.435C306.74 136.075 307.457 137.54 306.951 138.85C309.45 139.865 311.645 141.83 312.552 143.507C314.148 146.459 315.303 154.417 309.359 156.248C316.717 184.348 258.173 170.558 226.981 170.558C195.993 170.558 157.957 179.248 162.842 157.861C158.561 156.248 153.168 152.25 155.724 145.757C156.992 142.536 159.879 140.567 162.061 140.567C164.135 140.567 161.142 136.712 165.391 134.462C167.228 133.489 169.206 133.602 170.922 134.032C184.081 106.712 195.722 84.0436 226.982 84.0436Z"></path>
  </clipPath>
  <g clip-path="url(#cl_ba)">
    <path fill="#7463A5" transform="matrix(1.8 2.98023e-08 0.00759348 1.8 226.552 131.353)" d="M-1.90735e-06 -5.5C3.86599 -5.5 7 -2.92564 7 0.25C7 3.42564 3.86599 6 -1.90735e-06 6C-3.866 6 -7 3.42564 -7 0.25C-7 -2.92564 -3.866 -5.5 -1.90735e-06 -5.5Z"></path>
    <path fill="#7463A5" transform="matrix(1.83618 3.04014e-08 0.00759348 1.8 279.101 123.207)" d="M0 -5.00001C2.76142 -5.00001 5 -2.6495 5 0.249992C5 3.14949 2.76142 5.49999 0 5.49999C-2.76142 5.49999 -5 3.14949 -5 0.249992C-5 -2.6495 -2.76142 -5.00001 0 -5.00001Z"></path>
    <path fill="none" stroke="#131212" stroke-width="1" stroke-linecap="round" stroke-linejoin="round" transform="matrix(2.30699 -0.373724 0.274137 1.69224 257.332 116.511)" d="M2.39559e-06 -4.14104e-07L2.92892 -0.714567"></path>
    <path fill="none" stroke="#131212" stroke-width="1" stroke-linecap="round" stroke-linejoin="round" transform="matrix(2.30699 -0.373724 0.274137 1.69224 235.582 115.681)" d="M-3.57628e-07 7.48094e-06L4.25731 1.79213"></path>
    <path fill="#131212" transform="matrix(2.47104 -0.400299 0.405754 2.50471 249.367 118.792)" d="M-4.99596e-07 3.59921e-06L1.9614 0.352742L0.915089 1.42246L-4.99596e-07 3.59921e-06Z"></path>
    <path fill="none" stroke="#131212" stroke-width="0.5" stroke-linecap="round" stroke-linejoin="round" transform="matrix(1.93759 -0.313883 0.31816 1.96399 252.426 122.327)" d="M1.18428e-07 -0.711217L-3.72341e-06 1.11021"></path>
    <path fill="#32225E" transform="matrix(1.74285 0.441491 -0.424043 1.74552 246.214 110.926)" d="M-1.93607e-06 -1.92716C1.6285 -1.92716 2.94867 -1.06434 2.94867 -4.39386e-08C2.94867 1.06434 1.6285 1.92716 -1.87863e-06 1.92716C-1.62851 1.92716 -2.94867 1.06434 -2.94867 4.39386e-08C-2.94867 -1.06434 -1.62851 -1.92716 -1.93607e-06 -1.92716Z"></path>
    <path fill="#32225E" transform="matrix(1.71213 0.433708 -0.412468 1.69787 257.407 110.051)" d="M-3.8147e-06 -1.89919C0.889985 -1.89919 1.61146 -1.04889 1.61146 -2.40127e-08C1.61146 1.04889 0.889985 1.89919 -3.8147e-06 1.89919C-0.889993 1.89919 -1.61147 1.04889 -1.61147 2.40127e-08C-1.61147 -1.04889 -0.889993 -1.89919 -3.8147e-06 -1.89919Z"></path>
  </g>
  <path fill="none" stroke="black" stroke-width="6" stroke-linejoin="round" transform="matrix(1.8 0 0 1.8 170.253 270.904)" d="M-13.6472 29.4606C-50.8662 15.5732 -28.6675 -43.9203 8.55151 -30.0328C24.4036 -24.1179 50.3 -16.2083 66.9422 -10.6854C72.7894 -8.74495 80.8487 2.89589 73.7855 25.0383C66.7223 47.1807 53.6768 51.8177 49.1191 50.3052C32.3794 44.7499 -1.94872 33.8257 -13.6472 29.4606Z"></path>
  <path fill="none" stroke="black" stroke-width="6" stroke-linecap="round" stroke-linejoin="bevel" transform="matrix(1.8 0 0 1.67094 170.253 180.657)" d="M29.9026 40.294C29.4831 48.1532 29.1222 54.9148 28.9355 58.4128C26.6466 101.299 -36.7464 97.33 -34.4575 54.4443C-33.8829 43.6787 -32.8267 23.8892 -32.1614 11.4241C-31.4961 -1.04101 -24.2948 -18.4599 -8.24146 -17.4656C-6.43256 -17.3536 -4.77944 -17.2512 -3.25988 -17.1571"></path>
  <path fill="#503F7E" transform="matrix(1.8 0 0 1.67094 170.253 180.657)" d="M-32.1614 11.4241C-31.4961 -1.04101 -24.2948 -18.4599 -8.24146 -17.4656C7.81184 -16.4714 11.5955 -16.237 18.6481 -15.8002C25.7007 -15.3634 32.6362 -10.9242 31.7995 4.75196C30.9629 20.4281 29.4031 49.6532 28.9355 58.4128C26.9222 96.1356 -36.4709 92.1671 -34.4575 54.4443C-33.8829 43.6787 -32.8267 23.8892 -32.1614 11.4241Z"></path>
  <path fill="none" stroke="black" stroke-width="4" stroke-linejoin="round" transform="matrix(1.8 0 0 1.8 352.158 173.258)" d="M-11.7479 -12.9046C-11.318 -13.5165 -10.7601 -14.1187 -10.0572 -14.7065C-5.47351 -18.5399 3.93804 -16.1165 4.43081 -14.7065C7.46664 -16.1165 10.8961 -16.6614 15.0174 -13.9738C19.1387 -11.2862 16.2386 -4.86793 16.6118 -4.55444C16.985 -4.24095 25.2116 0.494546 17.5976 8.33766C16.6439 8.92036 15.7365 9.39703 14.8735 9.77867"></path>
  <path fill="#7463A5" transform="matrix(1.8 0 0 1.8 352.158 173.258)" d="M-0.116455 3.8147e-06C-2.60165 -0.663936 -7.05858 1.11792 -10.0572 -2.65576C-13.0559 -6.42944 -14.6409 -10.8732 -10.0572 -14.7065C-5.47351 -18.5399 3.93804 -16.1165 4.43081 -14.7065C7.46664 -16.1165 10.8961 -16.6614 15.0174 -13.9738C19.1387 -11.2862 16.2386 -4.86793 16.6118 -4.55444C16.985 -4.24095 25.2116 0.494546 17.5976 8.33766C2.9012 17.3171 -0.809986 1.11792 -0.116455 3.8147e-06Z"></path>
  <path fill="#503F7E" transform="matrix(1.8 0 0 1.8 170.253 270.904)" d="M-13.6472 29.4606C-52.4121 14.9964 -30.2133 -44.4971 8.55151 -30.0328C24.4036 -24.1179 50.3 -16.2083 66.9422 -10.6854C72.7894 -8.74495 80.8487 2.89589 73.7855 25.0383C66.7223 47.1807 53.6768 51.8177 49.1191 50.3052C32.3794 44.7499 -1.94872 33.8257 -13.6472 29.4606Z"></path>
  <path fill="#312F2F" transform="matrix(0.508746 0.168833 -0.20131 0.60661 269.344 295.574)" d="M3.8147e-06 -128C70.6924 -128 128 -70.6924 128 -3.8147e-06C128 70.6924 70.6924 128 -3.8147e-06 128C-70.6924 128 -128 70.6924 -128 -3.8147e-06C-128 -70.6924 -70.6924 -128 3.8147e-06 -128Z"></path>
  <path fill="none" stroke="black" stroke-width="7" stroke-miterlimit="4" transform="translate(256 256)" d="M50.6375 -34.2468C86.602 -22.3116 104.22 22.1271 89.9893 65.0098C75.7583 107.893 35.0667 132.98 -0.89785 121.045C-36.8624 109.11 -54.4808 64.6713 -40.2497 21.7886C-26.0186 -21.0941 14.673 -46.182 50.6375 -34.2468Z"></path>
  <path fill="none" stroke="black" stroke-width="7" stroke-linejoin="round" transform="translate(256 256)" d="M50.6375 -34.2468C50.6375 -34.2468 41.4163 -37.3069 39.5569 -37.924C10.1234 -46.8139 -32.5053 -40.1027 -51.7753 17.9637C-71.0452 76.0301 -34.8087 109.792 -12.4234 117.22C-10.564 117.837 -0.897848 121.045 -0.89785 121.045C-1.40572 120.877 -1.94327 120.675 -2.50733 120.44"></path>
  <path fill="#8D5A3E" transform="matrix(0.508746 0.168833 -0.20131 0.60661 280.87 299.399)" d="M3.8147e-06 -128C70.6924 -128 128 -70.6924 128 3.8147e-06C128 70.6924 70.6924 128 -3.8147e-06 128C-70.6924 128 -128 70.6924 -128 3.8147e-06C-128 -70.6924 -70.6924 -128 3.8147e-06 -128Z"></path>
  <path fill="#4B2713" transform="matrix(0.508746 0.168833 -0.20131 0.60661 284.378 299.89)" d="M0.249995 -87.5C51.4744 -87.5 93 -48.4368 93 -0.249996C93 47.9368 51.4744 87 0.24999 87C-50.9744 87 -92.5 47.9368 -92.5 -0.249996C-92.5 -48.4368 -50.9744 -87.5 0.249995 -87.5Z"></path>
  <path fill="#693920" transform="matrix(0.508746 0.168833 -0.20131 0.60661 280.87 299.399)" d="M2.563e-06 -86C47.4965 -86 86 -47.4965 86 3.8147e-06C86 47.4965 47.4965 86 -2.563e-06 86C-47.4965 86 -86 47.4965 -86 3.8147e-06C-86 -47.4965 -47.4965 -86 2.563e-06 -86Z"></path>
  <path fill="#1F0D04" transform="matrix(1.20132 0.937491 -0.946159 1.48938 264.544 302.363)" d="M1.90735e-06 -6.1709C3.4081 -6.1709 6.1709 -3.40809 6.1709 1.90735e-06C6.1709 3.4081 3.4081 6.1709 1.90735e-06 6.1709C-3.40809 6.1709 -6.1709 3.4081 -6.1709 1.90735e-06C-6.1709 -3.40809 -3.40809 -6.1709 1.90735e-06 -6.1709Z"></path>
  <clipPath id="cl_c2">
    <path d="M270.383 293.173C274.477 296.368 275.182 303.073 271.958 308.148C268.733 313.224 262.8 314.749 258.706 311.554C254.611 308.359 253.906 301.654 257.131 296.578C260.356 291.502 266.289 289.977 270.383 293.173Z"></path>
  </clipPath>
  <g clip-path="url(#cl_c2)">
    <path fill="#2F1507" transform="matrix(1.20132 0.937491 -0.946159 1.48938 261.661 303.715)" d="M1.90735e-06 -6.1709C3.4081 -6.1709 6.1709 -3.40809 6.1709 0C6.1709 3.40809 3.4081 6.1709 1.90735e-06 6.1709C-3.40809 6.1709 -6.1709 3.40809 -6.1709 0C-6.1709 -3.40809 -3.40809 -6.1709 1.90735e-06 -6.1709Z"></path>
  </g>
  <path fill="#1F0D04" transform="matrix(1.20132 0.937491 -0.946159 1.48938 278.516 280.371)" d="M0 -6.1709C3.40809 -6.1709 6.1709 -3.40809 6.1709 2.38419e-07C6.1709 3.40809 3.40809 6.1709 0 6.1709C-3.40809 6.1709 -6.1709 3.40809 -6.1709 2.38419e-07C-6.1709 -3.40809 -3.40809 -6.1709 0 -6.1709Z"></path>
  <clipPath id="cl_c3">
    <path d="M284.354 271.18C288.448 274.375 289.153 281.08 285.929 286.156C282.704 291.232 276.771 292.757 272.677 289.561C268.583 286.366 267.878 279.661 271.102 274.585C274.327 269.51 280.26 267.985 284.354 271.18Z"></path>
  </clipPath>
  <g clip-path="url(#cl_c3)">
    <path fill="#2F1507" transform="matrix(1.20132 0.937491 -0.946159 1.48938 274.907 282.864)" d="M1.90735e-06 -6.1709C3.4081 -6.1709 6.1709 -3.40809 6.1709 9.53674e-07C6.1709 3.40809 3.4081 6.1709 1.90735e-06 6.1709C-3.40809 6.1709 -6.1709 3.40809 -6.1709 9.53674e-07C-6.1709 -3.40809 -3.40809 -6.1709 1.90735e-06 -6.1709Z"></path>
  </g>
  <path fill="#1F0D04" transform="matrix(1.20132 0.937491 -0.946159 1.48938 283.461 317.125)" d="M0 -6.1709C3.40809 -6.1709 6.1709 -3.40809 6.1709 1.90735e-06C6.1709 3.4081 3.40809 6.1709 0 6.1709C-3.40809 6.1709 -6.1709 3.4081 -6.1709 1.90735e-06C-6.1709 -3.40809 -3.40809 -6.1709 0 -6.1709Z"></path>
  <clipPath id="cl_c4">
    <path d="M289.299 307.935C293.394 311.13 294.099 317.835 290.874 322.911C287.649 327.987 281.716 329.511 277.622 326.316C273.528 323.121 272.823 316.416 276.048 311.34C279.272 306.264 285.205 304.74 289.299 307.935Z"></path>
  </clipPath>
  <g clip-path="url(#cl_c4)">
    <path fill="#2F1507" transform="matrix(1.20132 0.937491 -0.946159 1.48938 281.355 317.97)" d="M3.8147e-06 -6.1709C3.4081 -6.1709 6.1709 -3.40809 6.1709 1.90735e-06C6.1709 3.4081 3.4081 6.1709 3.8147e-06 6.1709C-3.40809 6.1709 -6.17089 3.4081 -6.17089 1.90735e-06C-6.17089 -3.40809 -3.40809 -6.1709 3.8147e-06 -6.1709Z"></path>
  </g>
  <path fill="#1F0D04" transform="matrix(1.20132 0.937491 -0.946159 1.48938 297.432 295.133)" d="M-3.8147e-06 -6.1709C3.40809 -6.1709 6.17089 -3.40809 6.17089 1.43051e-06C6.17089 3.40809 3.40809 6.1709 -3.8147e-06 6.1709C-3.4081 6.1709 -6.1709 3.40809 -6.1709 1.43051e-06C-6.1709 -3.40809 -3.4081 -6.1709 -3.8147e-06 -6.1709Z"></path>
  <clipPath id="cl_c5">
    <path d="M303.271 285.942C307.365 289.137 308.07 295.842 304.845 300.918C301.621 305.994 295.688 307.519 291.594 304.324C287.499 301.129 286.794 294.424 290.019 289.348C293.244 284.272 299.177 282.747 303.271 285.942Z"></path>
  </clipPath>
  <g clip-path="url(#cl_c5)">
    <path fill="#2F1507" transform="matrix(1.20132 0.937491 -0.946159 1.48938 293.4 296.181)" d="M-3.44688e-06 -6.1709C3.40809 -6.1709 6.17089 -3.40809 6.17089 -4.76837e-07C6.17089 3.40809 3.40809 6.1709 -4.18251e-06 6.1709C-3.4081 6.1709 -6.1709 3.40809 -6.1709 -4.76837e-07C-6.1709 -3.40809 -3.4081 -6.1709 -3.44688e-06 -6.1709Z"></path>
  </g>
  <path fill="none" stroke="#E3CEC2" stroke-width="4" stroke-linecap="round" stroke-linejoin="round" transform="matrix(1.20132 0.937491 -0.946159 1.48938 277.759 279.272)" d="M2.42519 2.41434L15.2044 14.4568"></path>
  <path fill="none" stroke="#C8AD9D" stroke-width="4" stroke-linecap="round" stroke-linejoin="round" transform="matrix(1.20132 0.937491 -0.946159 1.48938 277.759 279.272)" d="M3.28776 13.1788L15.6779 1.98902"></path>
  <path fill="#4B2713" transform="matrix(0.60661 0.20131 -0.20131 0.60661 306.637 221.753)" d="M0 3.8147e-06C0 3.8147e-06 -15.2012 7.62939e-06 -18.2664 0C-66.3551 1.3037 -126.35 32.2772 -126.35 128C-126.35 223.723 -55.9022 256 -19 256C-15.9348 256 1.54972e-06 256 -1.3113e-06 256C-25.5439 256 -107.35 223.723 -107.35 128C-107.35 32.2772 -25.5438 7.62939e-06 0 3.8147e-06Z"></path>
</svg>