<?xml version="1.0" encoding="utf-8"?>
<svg xmlns="http://www.w3.org/2000/svg" xmlns:xlink="http://www.w3.org/1999/xlink" width="512" height="512">
  <path fill="none" stroke="black" stroke-width="7" stroke-linejoin="round" transform="matrix(1.8 3.72529e-09 -3.72529e-09 1.8 210.879 409.868)" d="M0.345016 -46.2517C18.5693 -46.0452 31.1143 -38.6465 30.9319 5.64269C31.2539 34.6584 23.9067 44.6771 13.3898 44.409C2.87296 44.141 -5.76606 44.2432 -16.0992 44.3237C-26.5621 44.2245 -31.9431 33.0849 -32.2647 4.05615C-32.3687 -42.4403 -17.8792 -46.4582 0.345016 -46.2517Z"></path>
  <path fill="none" stroke="black" stroke-width="7" stroke-linejoin="round" transform="matrix(-2.15345 -3.29802e-07 -3.27096e-07 2.13577 356.082 273.717)" d="M20.0142 -55.9817C22.3944 -50.8839 25.2986 -34.7901 24.4553 -30.9557C23.6119 -27.1212 26.0984 -17.4846 19.8794 6.06422C12.7988 34.0581 3.74835 55.7336 -20.7874 49.5913C-36.1665 45.6368 -42.5096 19.8363 -35.429 -8.1576C-26.552 -43.2539 4.38396 -65.6987 20.0142 -55.9817Z"></path>
  <path fill="none" stroke="black" stroke-width="7" stroke-linejoin="round" transform="matrix(1.79976 0.0293645 -0.0293645 1.79976 266.377 274.882)" d="M0.209625 -80.0966C37.3348 -80.0966 84.5 -60 84.5 0C84.5 41.1452 46.7396 76.2788 0.209625 76.2788C-62.1658 76.2788 -84 60.12 -84 0C-84 -71.2881 -50.5087 -80.0966 0.209625 -80.0966Z"></path>
  <path fill="none" stroke="black" stroke-width="7" stroke-linejoin="round" transform="matrix(1.53671 3.18039e-09 -3.72529e-09 1.8 308.979 398.168)" d="M-0.34111 -47.848C17.8824 -48.0748 33.3715 -41.3581 34.0274 8.21339C34.6475 22.0588 28.7766 45.8381 15.0983 45.8244C1.42015 45.8106 -4.7155 45.8045 -16.9175 45.7922C-29.1195 45.78 -31.3455 22.8802 -31.9655 9.03482C-32.9697 -42.7233 -18.5646 -47.6211 -0.34111 -47.848Z"></path>
  <path fill="#6C88D9" transform="matrix(-2.15345 -3.29802e-07 -3.27096e-07 2.13577 356.082 273.717)" d="M20.0142 -55.9817C22.3944 -50.8839 25.2986 -34.7901 24.4553 -30.9557C23.6119 -27.1212 26.0984 -17.4846 19.8794 6.06422C12.7988 34.0581 3.74835 55.7336 -20.7874 49.5913C-36.1665 45.6368 -42.5096 19.8363 -35.429 -8.1576C-26.552 -43.2539 4.38396 -65.6987 20.0142 -55.9817Z"></path>
  <path fill="#5170C8" transform="matrix(1.53671 3.18039e-09 -3.72529e-09 1.8 308.979 398.168)" d="M-0.34111 -47.848C17.8824 -48.0748 33.3715 -41.3581 34.0274 8.21339C34.6475 22.0588 28.7766 45.8381 15.0983 45.8244C1.42015 45.8106 -4.7155 45.8045 -16.9175 45.7922C-29.1195 45.78 -31.3455 22.8802 -31.9655 9.03482C-32.9697 -42.7233 -18.5646 -47.6211 -0.34111 -47.848Z"></path>
  <path fill="#839BE0" transform="matrix(1.20328 2.49031e-09 -2.91698e-09 1.40944 308.979 398.168)" d="M-0.218636 -48.4009C18.0048 -48.6278 32.9437 -41.8206 33.8034 12.2413C33.6028 30.1754 24.877 45.3454 11.1988 45.3317C-2.47941 45.3179 -2.30457 45.3686 -14.5066 45.3564C-26.7086 45.3441 -32.3902 30.9969 -32.1896 13.0628C-33.3975 -43.1858 -18.4421 -48.1741 -0.218636 -48.4009Z"></path>
  <path fill="#6C88D9" transform="matrix(1.8 3.72529e-09 -3.72529e-09 1.8 210.879 409.868)" d="M0.345016 -46.2517C18.5693 -46.0452 31.1143 -38.6465 30.9319 5.64269C31.2539 34.6584 23.9067 44.6771 13.3898 44.409C2.87296 44.141 -5.76606 44.2432 -16.0992 44.3237C-26.5621 44.2245 -31.9431 33.0849 -32.2647 4.05615C-32.3687 -42.4403 -17.8792 -46.4582 0.345016 -46.2517Z"></path>
  <path fill="#91A8EB" transform="matrix(-1.67686 -2.56813e-07 -3.2026e-07 2.09114 352.092 268.004)" d="M21.0794 -49.768C42.5601 -45.3752 28.2202 -22.6829 17.8237 4.69778C7.42732 32.0785 -11.2963 52.3503 -26.2807 49.2859C-41.2651 46.2216 -45.8634 21.2548 -37.0132 -6.57327C-28.163 -34.4014 -0.401306 -54.1609 21.0794 -49.768Z"></path>
  <path fill="none" stroke="black" stroke-width="7" stroke-miterlimit="4" transform="matrix(1.79976 0.0293645 -0.0293645 1.79976 224.925 112.188)" d="M0 -29.5C19.0538 -29.5 34.5 -16.1805 34.5 0.249992C34.5 16.6805 19.0538 30 0 30C-19.0538 30 -34.5 16.6805 -34.5 0.249992C-34.5 -16.1805 -19.0538 -29.5 0 -29.5Z"></path>
  <path fill="#6C88D9" transform="matrix(1.79976 0.0293645 -0.0293645 1.79976 266.377 274.882)" d="M0.209625 -80.0966C37.3348 -80.0966 84.5 -60 84.5 0C84.5 41.1452 46.7396 76.2788 0.209625 76.2788C-62.1658 76.2788 -84 60.12 -84 0C-84 -71.2881 -50.5087 -80.0966 0.209625 -80.0966Z"></path>
  <path fill="none" stroke="black" stroke-width="9" stroke-miterlimit="4" transform="translate(256 256)" d="M-57.3842 -201.629C-42.6016 -201.387 -30.7865 -190.858 -30.9945 -178.111C-31.2025 -165.363 -43.3548 -155.225 -58.1374 -155.466C-72.92 -155.708 -84.735 -166.237 -84.527 -178.984C-84.3191 -191.731 -72.1668 -201.87 -57.3842 -201.629Z"></path>
  <path fill="none" stroke="black" stroke-width="9" stroke-miterlimit="4" transform="translate(256 256)" d="M-72.8972 -186.716C-60.5976 -186.515 -50.7671 -177.755 -50.9402 -167.149C-51.1132 -156.542 -61.2243 -148.107 -73.5239 -148.308C-85.8235 -148.508 -95.654 -157.269 -95.4809 -167.875C-95.3079 -178.481 -85.1968 -186.917 -72.8972 -186.716Z"></path>
  <path fill="none" stroke="black" stroke-width="9" stroke-miterlimit="4" transform="translate(256 256)" d="M-92.9043 -211.05C-86.2233 -210.941 -80.8834 -206.182 -80.9774 -200.421C-81.0714 -194.66 -86.5637 -190.078 -93.2447 -190.187C-99.9258 -190.296 -105.266 -195.055 -105.172 -200.816C-105.078 -206.577 -99.5854 -211.159 -92.9043 -211.05Z"></path>
  <path fill="#6C88D9" transform="matrix(1.79976 0.0293645 -0.0293645 1.79976 224.925 112.188)" d="M0 -29.5C19.0538 -29.5 34.5 -16.1805 34.5 0.249992C34.5 16.6805 19.0538 30 0 30C-19.0538 30 -34.5 16.6805 -34.5 0.249992C-34.5 -16.1805 -19.0538 -29.5 0 -29.5Z"></path>
  <path fill="#6C88D9" transform="matrix(0.775834 0.0126583 -0.0126583 0.775834 198.242 77.2586)" d="M0 -29.5C19.0538 -29.5 34.5 -16.1805 34.5 0.250015C34.5 16.6805 19.0538 30 0 30C-19.0538 30 -34.5 16.6805 -34.5 0.250015C-34.5 -16.1805 -19.0538 -29.5 0 -29.5Z"></path>
  <path fill="#6C88D9" transform="matrix(0.645518 0.0105321 -0.0105321 0.645518 182.792 88.3267)" d="M7.62939e-06 -29.5C19.0538 -29.5 34.5 -16.1805 34.5 0.25C34.5 16.6805 19.0538 30 7.62939e-06 30C-19.0538 30 -34.5 16.6805 -34.5 0.25C-34.5 -16.1805 -19.0538 -29.5 7.62939e-06 -29.5Z"></path>
  <path fill="#6C88D9" transform="matrix(0.35064 0.00572097 -0.00572097 0.35064 162.927 55.2938)" d="M3.05176e-05 -29.5C19.0539 -29.5 34.5 -16.1805 34.5 0.25C34.5 16.6805 19.0539 30 3.05176e-05 30C-19.0538 30 -34.5 16.6805 -34.5 0.25C-34.5 -16.1805 -19.0538 -29.5 3.05176e-05 -29.5Z"></path>
  <path fill="#91A8EB" transform="matrix(1.50913 0.0246226 -0.0246226 1.50913 265.012 274.882)" d="M0.24998 -81.5196C49.8787 -81.2985 84.5 -60 84.5 0C84.5 41.1452 46.78 74.5 0.25 74.5C-62.1254 74.5 -84 60.12 -84 0C-84 -71.2881 -62.1254 -81.5196 0.24998 -81.5196Z"></path>
  <clipPath id="cl_168">
    <path d="M269.106 130.734C335.922 131.824 420.218 169.378 418.456 277.363C417.248 351.415 348.257 413.538 264.514 412.172C152.253 410.34 113.431 380.617 115.197 272.416C117.29 144.114 177.825 129.244 269.106 130.734Z"></path>
  </clipPath>
  <g clip-path="url(#cl_168)">
    <path fill="#A6B8EF" transform="matrix(0.805953 0.0131497 -0.0151654 0.929491 320.67 239.76)" d="M0.249972 -81.5196C49.8787 -81.2985 84.5 -60 84.5 1.90735e-06C84.5 41.1452 67.1354 74.5 20.6054 74.5C-41.77 74.5 -84 60.12 -84 1.90735e-06C-84 -71.2881 -62.1254 -81.5197 0.249972 -81.5196Z"></path>
    <path fill="#C1CBE8" transform="matrix(0.197995 -0.202726 0.445703 0.435301 343.771 190.911)" d="M11.5671 -77.0972C58.0971 -77.0972 97.5959 -41.1452 97.5959 -3.00608e-05C97.5959 41.1452 73.4188 83.0524 26.8888 83.0524C-35.4866 83.0524 11.8087 60.12 11.8087 -2.87825e-05C11.8087 -41.1452 -34.9629 -77.0972 11.5671 -77.0972Z"></path>
    <path fill="#C1CBE8" transform="matrix(0.197995 -0.202726 0.184201 0.179903 388.213 255.267)" d="M48.93 -79.7642C80.6763 -79.0529 77.4946 -42.8889 62.8508 4.00565C48.2069 50.9001 -0.0393895 91.2963 -20.4536 67.777C-40.8678 44.2576 -16.8141 31.8032 -0.458961 -5.13881C15.8962 -42.0808 17.1838 -80.4755 48.93 -79.7642Z"></path>
  </g>
  <path fill="#91A8EB" transform="matrix(1.37947 2.85496e-09 -2.85496e-09 1.37947 210.879 346.868)" d="M0.291798 -0.703064C18.516 -0.496552 32.1281 -1.13388 31.993 50.3596C31.5304 75.8434 23.8837 90.3471 13.3668 90.0789C2.84998 89.8109 -5.78907 89.9132 -16.1222 89.9936C-26.5023 90.001 -33.8862 73.2288 -33.4236 47.745C-33.5746 -5.95604 -17.9324 -0.909584 0.291798 -0.703064Z"></path>
  <path fill="#91A8EB" transform="matrix(1.79976 0.0293645 -0.0293645 1.79976 224.925 112.188)" d="M0 -22.5C14.6355 -22.5 26.5 -12.3145 26.5 0.249992C26.5 12.8145 14.6355 23 0 23C-14.6355 23 -26.5 12.8145 -26.5 0.249992C-26.5 -12.3145 -14.6355 -22.5 0 -22.5Z"></path>
  <path fill="#91A8EB" transform="matrix(0.606874 0.00990163 -0.00990163 0.606874 198.242 79.4657)" d="M0 -22.5C14.6355 -22.5 26.5 -12.3145 26.5 0.25C26.5 12.8145 14.6355 23 0 23C-14.6355 23 -26.5 12.8145 -26.5 0.25C-26.5 -12.3145 -14.6355 -22.5 0 -22.5Z"></path>
  <path fill="#91A8EB" transform="matrix(0.504938 0.00823846 -0.00823846 0.504938 182.792 90.1631)" d="M-4.23752e-08 -22.5C14.6355 -22.5 26.5 -12.3144 26.5 0.25003C26.5 12.8145 14.6355 23 4.23752e-08 23C-14.6355 23 -26.5 12.8145 -26.5 0.250031C-26.5 -12.3144 -14.6355 -22.5 -4.23752e-08 -22.5Z"></path>
  <path fill="#91A8EB" transform="matrix(0.274279 0.00447507 -0.00447507 0.274279 163.923 57.3765)" d="M0 -22.4262C14.2962 -22.4262 25.8855 -12.2741 25.8855 0.249207C25.8855 12.7725 14.2962 22.9246 0 22.9246C-14.2962 22.9246 -25.8855 12.7725 -25.8855 0.249207C-25.8855 -12.2741 -14.2962 -22.4262 0 -22.4262Z"></path>
  <path fill="#C1CBE8" transform="matrix(0.073816 -0.11483 0.26388 0.16963 160.166 54.7739)" d="M6.10352e-05 -11.5C14.6356 -11.5 28.0061 -7.98328 28.0061 -1.63201C28.0061 4.71926 15.506 0.400185 0.870417 0.400186C-13.7651 0.400185 -26.766 4.37689 -26.766 -1.97439C-26.766 -8.32566 -14.6355 -11.5 6.10352e-05 -11.5Z"></path>
  <path fill="#C1CBE8" transform="matrix(-0.166841 -0.570472 0.880441 -0.257495 182.702 116.536)" d="M-3.05176e-05 -11.5C14.6355 -11.5 28.0061 -7.98328 28.0061 -1.63201C28.0061 4.71927 15.5059 0.400186 0.870326 0.400186C-13.7652 0.400184 -26.7661 4.37689 -26.7661 -1.97439C-26.7661 -8.32566 -14.6356 -11.5 -3.05176e-05 -11.5Z"></path>
  <path fill="#1B2B56" transform="matrix(1.78669 -0.21848 0.065544 0.536007 236.852 89.1893)" d="M-5.45755e-07 -2.50003C1.38071 -2.50003 2.5 -1.38074 2.5 -3.05176e-05C2.5 1.38068 1.38071 2.49997 -5.27129e-07 2.49997C-1.38071 2.49997 -2.5 1.38068 -2.5 -3.05176e-05C-2.5 -1.38074 -1.38071 -2.50003 -5.45755e-07 -2.50003Z"></path>
  <path fill="none" stroke="#1B2B56" stroke-width="0.5" stroke-linecap="round" stroke-linejoin="round" transform="matrix(1.78289 -0.247598 0.247598 1.78289 245.496 88.0777)" d="M1.98548 0.277981L6.02909 0.184244"></path>
  <path fill="#1B2B56" transform="matrix(1.78669 -0.21848 0.065544 0.536007 265.44 85.6936)" d="M-9.31323e-09 -2.5C1.38071 -2.5 2.5 -1.38071 2.5 0C2.5 1.38071 1.38071 2.5 9.31323e-09 2.5C-1.38071 2.5 -2.5 1.38071 -2.5 0C-2.5 -1.38071 -1.38071 -2.5 -9.31323e-09 -2.5Z"></path>
  <path fill="#354B89" transform="matrix(1.46507 -0.885005 0.929571 0.72522 257.217 78.7615)" d="M0 -2.5C1.38071 -2.5 2.5 -1.38071 2.5 1.49012e-07C2.5 1.38071 1.38071 2.5 0 2.5C-1.38071 2.5 -2.5 1.38071 -2.5 -1.49012e-07C-2.5 -1.38071 -1.38071 -2.5 0 -2.5Z"></path>
  <path fill="#354B89" transform="matrix(2.16254 0.296937 -0.629837 1.0733 241.244 79.701)" d="M-3.8147e-06 -2.98531C1.68305 -2.98531 3.04744 -1.64873 3.04744 3.04268e-05C3.04744 1.64879 1.68305 2.98537 -3.8147e-06 2.98537C-1.68306 2.98537 -3.04744 1.64879 -3.04744 3.06084e-05C-3.04744 -1.64873 -1.68306 -2.98531 -3.8147e-06 -2.98531Z"></path>
  <path fill="none" stroke="black" stroke-width="7" stroke-linecap="round" stroke-linejoin="round" transform="matrix(2.15345 4.45679e-09 -4.42021e-09 2.13577 150.19 283.38)" d="M22.029 -23.7772C21.7794 -17.5234 20.7442 -7.77633 15.482 6.6405C5.12925 33.5024 -10.7529 53.7475 -33.619 42.876C-47.9312 35.9593 -47.9181 12.7202 -37.5778 -14.1095C-30.1344 -35.3292 -15.1653 -51.2284 -1.38056 -57.1452"></path>
  <path fill="#6C88D9" transform="matrix(2.15345 4.45679e-09 -4.42021e-09 2.13577 150.19 283.38)" d="M19.0754 -56.9155C21.2313 -51.7173 23.4317 -35.5104 22.4221 -31.717C21.4125 -27.9236 24.0487 -16.8295 15.482 6.6405C5.12925 33.5024 -10.7529 53.7475 -33.619 42.876C-47.9312 35.9593 -47.9181 12.7202 -37.5778 -14.1095C-25.981 -47.1697 3.88345 -67.3153 19.0754 -56.9155Z"></path>
  <path fill="#91A8EB" transform="matrix(1.67686 3.47045e-09 -4.32784e-09 2.09114 154.18 277.667)" d="M19.6198 -50.8054C40.8392 -45.6603 25.684 -23.0779 13.2409 3.93453C0.520237 30.6672 -21.4842 49.624 -36.0427 45.4431C-50.6012 41.2621 -51.6972 16.9288 -40.4801 -10.3355C-29.7263 -37.4343 -1.59957 -55.9505 19.6198 -50.8054Z"></path>
  <path fill="none" stroke="white" stroke-width="5" stroke-linecap="round" stroke-linejoin="round" transform="matrix(1.5 0 0 1.5 158.539 362.24)" d=""></path>
</svg>