<?xml version="1.0" encoding="utf-8"?>
<svg xmlns="http://www.w3.org/2000/svg" xmlns:xlink="http://www.w3.org/1999/xlink" width="512" height="512">
  <path fill="none" stroke="black" stroke-width="7" stroke-linejoin="round" transform="matrix(1.8 3.72529e-09 -3.72529e-09 1.8 210.879 409.868)" d="M5.31236 -46.3717C23.5364 -46.1469 36.0739 -38.7356 35.8472 5.55331C36.14 34.5694 28.7828 44.5807 18.2662 44.3021C7.7496 44.0234 -0.889486 44.117 -11.2228 44.1871C-21.6855 44.0775 -27.0553 32.9325 -27.3478 3.9034C-27.4052 -42.5931 -12.9117 -46.5965 5.31236 -46.3717Z"></path>
  <path fill="none" stroke="black" stroke-width="7" stroke-linejoin="round" transform="matrix(-2.15345 -3.29802e-07 -3.27096e-07 2.13577 356.173 277.469)" d="M19.8863 -56.2523C22.3663 -51.2031 25.5869 -35.1706 24.8192 -31.3201C24.0515 -27.4695 26.7272 -17.8846 20.9732 5.78407C14.4452 33.9142 5.82326 55.7666 -18.8286 50.1167C-34.2826 46.4708 -41.1324 20.8023 -34.6044 -7.32782C-26.4202 -42.5949 4.06777 -65.6545 19.8863 -56.2523Z"></path>
  <path fill="none" stroke="black" stroke-width="7" stroke-linejoin="round" transform="matrix(1.79976 0.0293645 -0.0293645 1.79976 266.468 278.634)" d="M0.209625 -80.0966C37.3348 -80.0966 84.5 -60 84.5 0C84.5 41.1452 46.7396 76.2788 0.209625 76.2788C-62.1658 76.2788 -84 60.12 -84 0C-84 -71.2881 -50.5087 -80.0966 0.209625 -80.0966Z"></path>
  <path fill="none" stroke="black" stroke-width="7" stroke-linejoin="round" transform="matrix(1.53671 3.18039e-09 -3.72529e-09 1.8 308.979 398.168)" d="M-5.36882 -47.7419C12.8549 -47.9529 28.336 -41.2226 28.9328 8.34936C29.5364 22.1953 23.6369 45.9695 9.95873 45.9438C-3.71945 45.9182 -9.85505 45.9067 -22.0571 45.8838C-34.2591 45.8609 -36.4576 22.9593 -37.0611 9.11338C-38.0036 -42.6455 -23.5925 -47.5309 -5.36882 -47.7419Z"></path>
  <path fill="#6C88D9" transform="matrix(-2.15345 -3.29802e-07 -3.27096e-07 2.13577 356.173 277.469)" d="M19.8863 -56.2523C22.3663 -51.2031 25.5869 -35.1706 24.8192 -31.3201C24.0515 -27.4695 26.7272 -17.8846 20.9732 5.78407C14.4452 33.9142 5.82326 55.7666 -18.8286 50.1167C-34.2826 46.4708 -41.1324 20.8023 -34.6044 -7.32782C-26.4202 -42.5949 4.06777 -65.6545 19.8863 -56.2523Z"></path>
  <path fill="#5170C8" transform="matrix(1.53671 3.18039e-09 -3.72529e-09 1.8 308.979 398.168)" d="M-5.36882 -47.7419C12.8549 -47.9529 28.336 -41.2226 28.9328 8.34936C29.5364 22.1953 23.6369 45.9695 9.95873 45.9438C-3.71945 45.9182 -9.85505 45.9067 -22.0571 45.8838C-34.2591 45.8609 -36.4576 22.9593 -37.0611 9.11338C-38.0036 -42.6455 -23.5925 -47.5309 -5.36882 -47.7419Z"></path>
  <path fill="#839BE0" transform="matrix(1.20328 2.49031e-09 -2.91698e-09 1.40944 308.979 398.168)" d="M-6.65472 -48.2653C11.569 -48.4763 26.4998 -41.6561 27.295 12.4066C27.0728 30.3405 18.329 45.5028 4.65073 45.4772C-9.02745 45.4515 -8.85265 45.5024 -21.0547 45.4795C-33.2567 45.4566 -38.9211 31.1045 -38.699 13.1706C-39.8399 -43.079 -24.8785 -48.0543 -6.65472 -48.2653Z"></path>
  <path fill="#6C88D9" transform="matrix(1.8 3.72529e-09 -3.72529e-09 1.8 210.879 409.868)" d="M5.31236 -46.3717C23.5364 -46.1469 36.0739 -38.7356 35.8472 5.55331C36.14 34.5694 28.7828 44.5807 18.2662 44.3021C7.7496 44.0234 -0.889486 44.117 -11.2228 44.1871C-21.6855 44.0775 -27.0553 32.9325 -27.3478 3.9034C-27.4052 -42.5931 -12.9117 -46.5965 5.31236 -46.3717Z"></path>
  <path fill="#91A8EB" transform="matrix(-1.67686 -2.56813e-07 -3.2026e-07 2.09114 352.184 271.756)" d="M21.0313 -50.0096C42.6166 -45.9596 28.8412 -23.0435 19.1247 4.49731C9.40822 32.0381 -8.80986 52.604 -23.8672 49.7788C-38.9244 46.9536 -44.14 22.065 -35.9804 -5.89854C-27.8209 -33.8621 -0.553928 -54.0596 21.0313 -50.0096Z"></path>
  <path fill="none" stroke="black" stroke-width="7" stroke-miterlimit="4" transform="matrix(1.79976 0.0293645 -0.0293645 1.79976 225.017 116.69)" d="M1.90735e-06 -29.5C19.0538 -29.5 34.5 -16.1805 34.5 0.25C34.5 16.6805 19.0538 30 1.90735e-06 30C-19.0538 30 -34.5 16.6805 -34.5 0.25C-34.5 -16.1805 -19.0538 -29.5 1.90735e-06 -29.5Z"></path>
  <path fill="#6C88D9" transform="matrix(1.79976 0.0293645 -0.0293645 1.79976 266.468 278.634)" d="M0.209625 -80.0966C37.3348 -80.0966 84.5 -60 84.5 0C84.5 41.1452 46.7396 76.2788 0.209625 76.2788C-62.1658 76.2788 -84 60.12 -84 0C-84 -71.2881 -50.5087 -80.0966 0.209625 -80.0966Z"></path>
  <path fill="none" stroke="black" stroke-width="9" stroke-miterlimit="4" transform="translate(256 256)" d="M-57.2927 -197.127C-42.5101 -196.886 -30.6951 -186.357 -30.903 -173.609C-31.111 -160.862 -43.2633 -150.724 -58.0459 -150.965C-72.8285 -151.206 -84.6435 -161.736 -84.4356 -174.483C-84.2276 -187.23 -72.0753 -197.368 -57.2927 -197.127Z"></path>
  <path fill="none" stroke="black" stroke-width="9" stroke-miterlimit="4" transform="translate(256 256)" d="M-72.8057 -182.215C-60.5061 -182.014 -50.6756 -173.253 -50.8487 -162.647C-51.0217 -152.041 -61.1328 -143.606 -73.4324 -143.806C-85.732 -144.007 -95.5625 -152.768 -95.3894 -163.374C-95.2164 -173.98 -85.1053 -182.415 -72.8057 -182.215Z"></path>
  <path fill="none" stroke="black" stroke-width="9" stroke-miterlimit="4" transform="translate(256 256)" d="M-92.8128 -206.549C-86.1318 -206.44 -80.7919 -201.681 -80.8859 -195.92C-80.9799 -190.159 -86.4722 -185.577 -93.1532 -185.686C-99.8343 -185.795 -105.174 -190.553 -105.08 -196.315C-104.986 -202.076 -99.4939 -206.658 -92.8128 -206.549Z"></path>
  <path fill="#6C88D9" transform="matrix(1.79976 0.0293645 -0.0293645 1.79976 225.017 116.69)" d="M1.90735e-06 -29.5C19.0538 -29.5 34.5 -16.1805 34.5 0.25C34.5 16.6805 19.0538 30 1.90735e-06 30C-19.0538 30 -34.5 16.6805 -34.5 0.25C-34.5 -16.1805 -19.0538 -29.5 1.90735e-06 -29.5Z"></path>
  <path fill="#6C88D9" transform="matrix(0.775834 0.0126583 -0.0126583 0.775834 198.334 81.7599)" d="M0 -29.5C19.0538 -29.5 34.5 -16.1805 34.5 0.250015C34.5 16.6805 19.0538 30 0 30C-19.0538 30 -34.5 16.6805 -34.5 0.250015C-34.5 -16.1805 -19.0538 -29.5 0 -29.5Z"></path>
  <path fill="#6C88D9" transform="matrix(0.645518 0.0105321 -0.0105321 0.645518 182.884 92.8281)" d="M7.62939e-06 -29.5C19.0538 -29.5 34.5 -16.1805 34.5 0.249985C34.5 16.6805 19.0538 30 7.62939e-06 30C-19.0538 30 -34.5 16.6805 -34.5 0.249985C-34.5 -16.1805 -19.0538 -29.5 7.62939e-06 -29.5Z"></path>
  <path fill="#6C88D9" transform="matrix(0.35064 0.00572097 -0.00572097 0.35064 163.018 59.7952)" d="M3.05176e-05 -29.5C19.0539 -29.5 34.5 -16.1805 34.5 0.25C34.5 16.6805 19.0539 30 3.05176e-05 30C-19.0538 30 -34.5 16.6805 -34.5 0.25C-34.5 -16.1805 -19.0538 -29.5 3.05176e-05 -29.5Z"></path>
  <path fill="#91A8EB" transform="matrix(1.50913 0.0246226 -0.0246226 1.50913 265.104 278.634)" d="M0.249979 -81.5196C49.8787 -81.2985 84.5 -60 84.5 -9.53674e-07C84.5 41.1452 46.78 74.5 0.25 74.5C-62.1254 74.5 -84 60.12 -84 -9.53674e-07C-84 -71.2881 -62.1254 -81.5196 0.249979 -81.5196Z"></path>
  <clipPath id="cl_144">
    <path d="M269.197 134.486C336.014 135.576 420.31 173.13 418.548 281.116C417.34 355.167 348.348 417.29 264.605 415.924C152.345 414.093 113.523 384.369 115.288 276.168C117.381 147.866 177.916 132.996 269.197 134.486Z"></path>
  </clipPath>
  <g clip-path="url(#cl_144)">
    <path fill="#A6B8EF" transform="matrix(0.805953 0.0131497 -0.0151654 0.929491 320.762 243.513)" d="M0.249972 -81.5196C49.8787 -81.2985 84.5 -60 84.5 -9.53674e-07C84.5 41.1452 67.1354 74.5 20.6054 74.5C-41.77 74.5 -84 60.12 -84 -9.53674e-07C-84 -71.2881 -62.1254 -81.5197 0.249972 -81.5196Z"></path>
    <path fill="#C1CBE8" transform="matrix(0.197995 -0.202726 0.445703 0.435301 343.862 194.663)" d="M11.5671 -77.0972C58.0971 -77.0972 97.5959 -41.1452 97.5959 -2.43388e-05C97.5959 41.1452 73.4188 83.0524 26.8888 83.0524C-35.4866 83.0524 11.8087 60.12 11.8087 -2.30604e-05C11.8087 -41.1452 -34.9629 -77.0972 11.5671 -77.0972Z"></path>
    <path fill="#C1CBE8" transform="matrix(0.197995 -0.202726 0.184201 0.179903 388.304 259.019)" d="M48.93 -79.7643C80.6763 -79.053 77.4946 -42.8889 62.8508 4.00562C48.2069 50.9001 -0.0393895 91.2963 -20.4536 67.777C-40.8678 44.2576 -16.8141 31.8032 -0.458961 -5.13884C15.8962 -42.0808 17.1838 -80.4756 48.93 -79.7643Z"></path>
  </g>
  <path fill="#91A8EB" transform="matrix(1.37947 2.85496e-09 -2.85496e-09 1.37947 210.879 346.868)" d="M6.75941 -0.859848C24.9834 -0.63504 38.5961 -1.2587 38.4093 50.2346C37.9211 75.7179 30.2599 90.214 19.7433 89.9353C9.22676 89.6567 0.58762 89.7503 -9.74563 89.8203C-20.1257 89.8173 -27.4928 73.0377 -27.0046 47.5544C-27.1018 -6.14673 -11.4646 -1.08466 6.75941 -0.859848Z"></path>
  <path fill="#91A8EB" transform="matrix(1.79976 0.0293645 -0.0293645 1.79976 225.017 116.69)" d="M1.90735e-06 -22.5C14.6355 -22.5 26.5 -12.3145 26.5 0.25C26.5 12.8145 14.6355 23 1.90735e-06 23C-14.6355 23 -26.5 12.8145 -26.5 0.25C-26.5 -12.3145 -14.6355 -22.5 1.90735e-06 -22.5Z"></path>
  <path fill="#91A8EB" transform="matrix(0.606874 0.00990163 -0.00990163 0.606874 198.334 83.967)" d="M0 -22.5C14.6355 -22.5 26.5 -12.3144 26.5 0.250031C26.5 12.8145 14.6355 23 0 23C-14.6355 23 -26.5 12.8145 -26.5 0.250031C-26.5 -12.3144 -14.6355 -22.5 0 -22.5Z"></path>
  <path fill="#91A8EB" transform="matrix(0.504938 0.00823846 -0.00823846 0.504938 182.884 94.6644)" d="M1.52164e-05 -22.5C14.6356 -22.5 26.5 -12.3144 26.5 0.25003C26.5 12.8145 14.6356 23 1.53012e-05 23C-14.6355 23 -26.5 12.8145 -26.5 0.250031C-26.5 -12.3144 -14.6355 -22.5 1.52164e-05 -22.5Z"></path>
  <path fill="#91A8EB" transform="matrix(0.274279 0.00447507 -0.00447507 0.274279 164.014 61.8779)" d="M0 -22.4262C14.2962 -22.4262 25.8855 -12.2741 25.8855 0.249207C25.8855 12.7725 14.2962 22.9246 0 22.9246C-14.2962 22.9246 -25.8855 12.7725 -25.8855 0.249207C-25.8855 -12.2741 -14.2962 -22.4262 0 -22.4262Z"></path>
  <path fill="#C1CBE8" transform="matrix(0.073816 -0.11483 0.26388 0.16963 160.277 59.2451)" d="M6.10352e-05 -11.5C14.6356 -11.5 28.0061 -7.98328 28.0061 -1.63201C28.0061 4.71926 15.506 0.400185 0.870417 0.400186C-13.7651 0.400185 -26.766 4.37689 -26.766 -1.97439C-26.766 -8.32566 -14.6355 -11.5 6.10352e-05 -11.5Z"></path>
  <path fill="#C1CBE8" transform="matrix(-0.166841 -0.570472 0.880441 -0.257495 182.813 121.007)" d="M-1.52588e-05 -11.5C14.6355 -11.5 28.0061 -7.98328 28.0061 -1.632C28.0061 4.71927 15.5059 0.40019 0.870341 0.40019C-13.7652 0.400188 -26.766 4.37689 -26.766 -1.97438C-26.766 -8.32566 -14.6356 -11.5 -1.52588e-05 -11.5Z"></path>
  <path fill="#1B2B56" transform="matrix(1.78669 -0.21848 0.065544 0.536007 235.939 95.1976)" d="M3.33413e-07 -2.50003C1.38071 -2.50003 2.5 -1.38074 2.5 -3.05176e-05C2.5 1.38068 1.38071 2.49997 3.5204e-07 2.49997C-1.38071 2.49997 -2.5 1.38068 -2.5 -3.05176e-05C-2.5 -1.38074 -1.38071 -2.50003 3.33413e-07 -2.50003Z"></path>
  <path fill="none" stroke="#1B2B56" stroke-width="0.5" stroke-linecap="round" stroke-linejoin="round" transform="matrix(1.78289 -0.247598 0.247598 1.78289 244.583 94.086)" d="M1.98548 0.277989L6.02909 0.184252"></path>
  <path fill="#1B2B56" transform="matrix(1.78669 -0.21848 0.065544 0.536007 264.526 91.7019)" d="M-9.62988e-07 -2.50003C1.38071 -2.50003 2.5 -1.38074 2.5 -3.05176e-05C2.5 1.38068 1.38071 2.49997 -9.44361e-07 2.49997C-1.38071 2.49997 -2.5 1.38068 -2.5 -3.05176e-05C-2.5 -1.38074 -1.38071 -2.50003 -9.62988e-07 -2.50003Z"></path>
  <path fill="#354B89" transform="matrix(1.46507 -0.885005 0.929571 0.72522 256.304 84.7698)" d="M0 -2.5C1.38071 -2.5 2.5 -1.38071 2.5 1.49012e-07C2.5 1.38071 1.38071 2.5 0 2.5C-1.38071 2.5 -2.5 1.38071 -2.5 -1.49012e-07C-2.5 -1.38071 -1.38071 -2.5 0 -2.5Z"></path>
  <path fill="#354B89" transform="matrix(2.16254 0.296937 -0.629837 1.0733 240.331 85.7094)" d="M-3.8147e-06 -2.98532C1.68305 -2.98532 3.04744 -1.64874 3.04744 1.5168e-05C3.04744 1.64877 1.68305 2.98535 -3.8147e-06 2.98535C-1.68306 2.98535 -3.04744 1.64877 -3.04744 1.53496e-05C-3.04744 -1.64874 -1.68306 -2.98532 -3.8147e-06 -2.98532Z"></path>
  <path fill="none" stroke="black" stroke-width="7" stroke-linecap="round" stroke-linejoin="round" transform="matrix(2.15345 4.45679e-09 -4.42021e-09 2.13577 150.281 287.133)" d="M23.0526 -24.6452C23.1505 -18.4217 22.6679 -8.69877 18.3224 5.93356C9.69627 33.4225 -4.4826 54.6486 -28.0563 45.4409C-42.8193 39.5657 -44.5915 16.1057 -35.9747 -11.3532C-29.8117 -33.0794 -15.7014 -49.8929 -2.22024 -56.6202"></path>
  <path fill="#6C88D9" transform="matrix(2.15345 4.45679e-09 -4.42021e-09 2.13577 150.281 287.133)" d="M18.23 -57.5854C20.6776 -52.5201 23.7951 -36.4669 23.0026 -32.6215C22.2102 -28.776 25.4226 -17.9746 18.3224 5.93356C9.69627 33.4225 -4.4826 54.6486 -28.0563 45.4409C-42.8193 39.5657 -44.5915 16.1057 -35.9747 -11.3532C-26.3807 -45.1744 2.47219 -67.0907 18.23 -57.5854Z"></path>
  <path fill="#91A8EB" transform="matrix(1.67686 3.47045e-09 -4.32784e-09 2.09114 154.271 281.42)" d="M18.8663 -51.3823C40.4184 -47.2202 26.7826 -24.0891 16.4411 3.43911C5.88185 30.7747 -14.1268 50.866 -29.0186 47.5241C-43.9104 44.1822 -47.3342 19.747 -38.3183 -8.04196C-29.6288 -35.6935 -2.68576 -55.5443 18.8663 -51.3823Z"></path>
  <path fill="none" stroke="white" stroke-width="5" stroke-linecap="round" stroke-linejoin="round" transform="matrix(1.5 0 0 1.5 158.539 362.24)" d=""></path>
</svg>