<?xml version="1.0" encoding="utf-8"?>
<svg xmlns="http://www.w3.org/2000/svg" xmlns:xlink="http://www.w3.org/1999/xlink" width="512" height="512">
  <path fill="none" stroke="black" stroke-width="7" stroke-linejoin="round" transform="matrix(1.8 3.72529e-09 -3.72529e-09 1.8 210.879 409.868)" d="M51.9465 -47.4982C70.1676 -47.1047 82.636 -39.5776 81.9993 4.70733C82.0234 33.7248 74.5737 43.6677 64.0601 43.2916C53.5466 42.9156 44.907 42.9293 34.5735 42.9036C24.1122 42.6971 18.8459 31.5029 18.8222 2.47239C19.1953 -44.0227 33.7253 -47.8918 51.9465 -47.4982Z"></path>
  <path fill="none" stroke="black" stroke-width="7" stroke-linejoin="round" transform="matrix(-2.15345 -3.29802e-07 -3.27096e-07 2.13577 356.112 274.947)" d="M18.4339 -58.6509C21.799 -54.1526 27.9106 -38.9997 27.8639 -35.0723C27.8172 -31.145 32.2084 -22.2261 30.9044 2.10775C29.6598 30.9704 25.2037 54.0553 -0.0595932 53.1096C-15.9159 52.4146 -27.365 28.4706 -26.1205 -0.392011C-24.5602 -36.5774 1.16121 -64.9345 18.4339 -58.6509Z"></path>
  <path fill="none" stroke="black" stroke-width="7" stroke-linejoin="round" transform="matrix(1.79976 0.0293645 -0.0293645 1.79976 266.407 276.113)" d="M0.209624 -80.0966C37.3348 -80.0966 84.5 -60 84.5 0C84.5 41.1452 46.7396 76.2788 0.209624 76.2788C-62.1658 76.2788 -84 60.12 -84 0C-84 -71.2881 -50.5087 -80.0966 0.209624 -80.0966Z"></path>
  <path fill="none" stroke="black" stroke-width="7" stroke-linejoin="round" transform="matrix(1.53671 3.18039e-09 -3.72529e-09 1.8 308.979 398.168)" d="M-52.5233 -46.7418C-34.2979 -46.7596 -18.9158 -39.8659 -19.0397 9.70865C-18.6375 23.5598 -24.882 47.2698 -38.5588 47.0992C-52.2355 46.9286 -58.3704 46.8521 -70.5712 46.7C-82.7719 46.5478 -84.6374 23.6245 -85.0397 9.77338C-85.2295 -41.9916 -70.7487 -46.7239 -52.5233 -46.7418Z"></path>
  <path fill="#6C88D9" transform="matrix(-2.15345 -3.29802e-07 -3.27096e-07 2.13577 356.112 274.947)" d="M18.4339 -58.6509C21.799 -54.1526 27.9106 -38.9997 27.8639 -35.0723C27.8172 -31.145 32.2084 -22.2261 30.9044 2.10775C29.6598 30.9704 25.2037 54.0553 -0.0595932 53.1096C-15.9159 52.4146 -27.365 28.4706 -26.1205 -0.392011C-24.5602 -36.5774 1.16121 -64.9345 18.4339 -58.6509Z"></path>
  <path fill="#5170C8" transform="matrix(1.53671 3.18039e-09 -3.72529e-09 1.8 308.979 398.168)" d="M-52.5233 -46.7418C-34.2979 -46.7596 -18.9158 -39.8659 -19.0397 9.70865C-18.6375 23.5598 -24.882 47.2698 -38.5588 47.0992C-52.2355 46.9286 -58.3704 46.8521 -70.5712 46.7C-82.7719 46.5478 -84.6374 23.6245 -85.0397 9.77338C-85.2295 -41.9916 -70.7487 -46.7239 -52.5233 -46.7418Z"></path>
  <path fill="#839BE0" transform="matrix(1.20328 2.49031e-09 -2.91698e-09 1.40944 308.979 398.168)" d="M-67.0607 -46.9868C-48.8353 -47.0047 -34.0048 -40.0268 -33.9957 14.0401C-34.4785 31.9702 -43.442 47.0388 -57.1187 46.8682C-70.7955 46.6977 -70.6215 46.7504 -82.8223 46.5982C-95.023 46.4461 -100.478 32.035 -99.9956 14.1048C-100.319 -42.1525 -85.2861 -46.9689 -67.0607 -46.9868Z"></path>
  <path fill="#6C88D9" transform="matrix(1.8 3.72529e-09 -3.72529e-09 1.8 210.879 409.868)" d="M51.9465 -47.4982C70.1676 -47.1047 82.636 -39.5776 81.9993 4.70733C82.0234 33.7248 74.5737 43.6677 64.0601 43.2916C53.5466 42.9156 44.907 42.9293 34.5735 42.9036C24.1122 42.6971 18.8459 31.5029 18.8222 2.47239C19.1953 -44.0227 33.7253 -47.8918 51.9465 -47.4982Z"></path>
  <path fill="#91A8EB" transform="matrix(-1.67686 -2.56813e-07 -3.2026e-07 2.09114 352.122 269.234)" d="M20.2917 -52.2249C42.4391 -51.4527 34.1985 -26.8865 31.0152 1.62119C27.8319 30.1289 14.6823 53.0459 -0.767109 52.5072C-16.2165 51.9686 -27.0936 28.2862 -25.538 -0.405478C-23.9824 -29.0972 -1.85555 -52.997 20.2917 -52.2249Z"></path>
  <path fill="none" stroke="black" stroke-width="7" stroke-miterlimit="4" transform="matrix(1.79976 0.0293645 -0.0293645 1.79976 224.955 113.665)" d="M0 -29.5C19.0538 -29.5 34.5 -16.1805 34.5 0.25C34.5 16.6805 19.0538 30 0 30C-19.0538 30 -34.5 16.6805 -34.5 0.25C-34.5 -16.1805 -19.0538 -29.5 0 -29.5Z"></path>
  <path fill="#6C88D9" transform="matrix(1.79976 0.0293645 -0.0293645 1.79976 266.407 276.113)" d="M0.209624 -80.0966C37.3348 -80.0966 84.5 -60 84.5 0C84.5 41.1452 46.7396 76.2788 0.209624 76.2788C-62.1658 76.2788 -84 60.12 -84 0C-84 -71.2881 -50.5087 -80.0966 0.209624 -80.0966Z"></path>
  <path fill="none" stroke="black" stroke-width="9" stroke-miterlimit="4" transform="translate(256 256)" d="M-57.3542 -200.152C-42.5716 -199.911 -30.7565 -189.382 -30.9645 -176.634C-31.1725 -163.887 -43.3248 -153.749 -58.1074 -153.99C-72.89 -154.231 -84.705 -164.761 -84.497 -177.508C-84.2891 -190.255 -72.1368 -200.393 -57.3542 -200.152Z"></path>
  <path fill="none" stroke="black" stroke-width="9" stroke-miterlimit="4" transform="translate(256 256)" d="M-72.8672 -185.24C-60.5676 -185.039 -50.7371 -176.278 -50.9102 -165.672C-51.0832 -155.066 -61.1943 -146.631 -73.4939 -146.831C-85.7935 -147.032 -95.624 -155.793 -95.4509 -166.399C-95.2779 -177.005 -85.1668 -185.44 -72.8672 -185.24Z"></path>
  <path fill="none" stroke="black" stroke-width="9" stroke-miterlimit="4" transform="translate(256 256)" d="M-92.8743 -209.574C-86.1933 -209.465 -80.8534 -204.706 -80.9474 -198.945C-81.0414 -193.184 -86.5337 -188.602 -93.2147 -188.711C-99.8957 -188.82 -105.236 -193.578 -105.142 -199.34C-105.048 -205.101 -99.5554 -209.683 -92.8743 -209.574Z"></path>
  <path fill="#6C88D9" transform="matrix(1.79976 0.0293645 -0.0293645 1.79976 224.955 113.665)" d="M0 -29.5C19.0538 -29.5 34.5 -16.1805 34.5 0.25C34.5 16.6805 19.0538 30 0 30C-19.0538 30 -34.5 16.6805 -34.5 0.25C-34.5 -16.1805 -19.0538 -29.5 0 -29.5Z"></path>
  <path fill="#6C88D9" transform="matrix(0.775834 0.0126583 -0.0126583 0.775834 198.272 78.7349)" d="M7.62939e-06 -29.5C19.0538 -29.5 34.5 -16.1805 34.5 0.250015C34.5 16.6805 19.0538 30 7.62939e-06 30C-19.0538 30 -34.5 16.6805 -34.5 0.250015C-34.5 -16.1805 -19.0538 -29.5 7.62939e-06 -29.5Z"></path>
  <path fill="#6C88D9" transform="matrix(0.645518 0.0105321 -0.0105321 0.645518 182.822 89.803)" d="M1.52588e-05 -29.5C19.0538 -29.5 34.5 -16.1805 34.5 0.25C34.5 16.6805 19.0538 30 1.52588e-05 30C-19.0538 30 -34.5 16.6805 -34.5 0.25C-34.5 -16.1805 -19.0538 -29.5 1.52588e-05 -29.5Z"></path>
  <path fill="#6C88D9" transform="matrix(0.35064 0.00572097 -0.00572097 0.35064 162.957 56.7701)" d="M3.05176e-05 -29.5C19.0539 -29.5 34.5 -16.1805 34.5 0.25C34.5 16.6805 19.0539 30 3.05176e-05 30C-19.0538 30 -34.5 16.6805 -34.5 0.25C-34.5 -16.1805 -19.0538 -29.5 3.05176e-05 -29.5Z"></path>
  <path fill="#91A8EB" transform="matrix(1.50913 0.0246226 -0.0246226 1.50913 265.042 276.113)" d="M0.24998 -81.5196C49.8787 -81.2985 84.5 -60 84.5 -9.53674e-07C84.5 41.1452 46.78 74.5 0.25 74.5C-62.1254 74.5 -84 60.12 -84 -9.53674e-07C-84 -71.2881 -62.1254 -81.5196 0.24998 -81.5196Z"></path>
  <clipPath id="cl_c0">
    <path d="M269.136 131.964C335.952 133.054 420.248 170.608 418.486 278.594C417.278 352.646 348.287 414.769 264.544 413.403C152.283 411.571 113.461 381.848 115.227 273.646C117.32 145.345 177.855 130.475 269.136 131.964Z"></path>
  </clipPath>
  <g clip-path="url(#cl_c0)">
    <path fill="#A6B8EF" transform="matrix(0.805953 0.0131497 -0.0151654 0.929491 320.7 240.991)" d="M0.249964 -81.5196C49.8787 -81.2985 84.5 -60 84.5 0C84.5 41.1452 67.1354 74.5 20.6054 74.5C-41.77 74.5 -84 60.12 -84 0C-84 -71.2881 -62.1254 -81.5197 0.249964 -81.5196Z"></path>
    <path fill="#C1CBE8" transform="matrix(0.197995 -0.202726 0.445703 0.435301 343.801 192.142)" d="M11.5671 -77.0972C58.0971 -77.0972 97.5959 -41.1452 97.5959 -1.86167e-05C97.5959 41.1452 73.4188 83.0524 26.8888 83.0524C-35.4866 83.0524 11.8086 60.12 11.8086 -1.73384e-05C11.8086 -41.1452 -34.9629 -77.0972 11.5671 -77.0972Z"></path>
    <path fill="#C1CBE8" transform="matrix(0.197995 -0.202726 0.184201 0.179903 388.243 256.498)" d="M48.93 -79.7643C80.6763 -79.053 77.4946 -42.8889 62.8508 4.00562C48.2069 50.9001 -0.0393895 91.2963 -20.4536 67.777C-40.8678 44.2576 -16.8141 31.8032 -0.458961 -5.13884C15.8962 -42.0808 17.1838 -80.4756 48.93 -79.7643Z"></path>
  </g>
  <path fill="#91A8EB" transform="matrix(1.37947 2.85496e-09 -2.85496e-09 1.37947 210.879 346.868)" d="M67.4805 -2.33196C85.7017 -1.93844 99.3195 -2.43603 98.656 49.0534C97.9319 74.5311 90.1366 88.9556 79.6231 88.5796C69.1096 88.2036 60.4699 88.2171 50.1365 88.1915C39.7569 88.0924 32.5456 71.2453 33.2697 45.7676C33.6697 -7.93215 49.2593 -2.72548 67.4805 -2.33196Z"></path>
  <path fill="#91A8EB" transform="matrix(1.79976 0.0293645 -0.0293645 1.79976 224.955 113.665)" d="M0 -22.5C14.6355 -22.5 26.5 -12.3145 26.5 0.25C26.5 12.8145 14.6355 23 0 23C-14.6355 23 -26.5 12.8145 -26.5 0.25C-26.5 -12.3145 -14.6355 -22.5 0 -22.5Z"></path>
  <path fill="#91A8EB" transform="matrix(0.606874 0.00990163 -0.00990163 0.606874 198.272 80.942)" d="M0 -22.5C14.6355 -22.5 26.5 -12.3144 26.5 0.250031C26.5 12.8145 14.6355 23 0 23C-14.6355 23 -26.5 12.8145 -26.5 0.250031C-26.5 -12.3144 -14.6355 -22.5 0 -22.5Z"></path>
  <path fill="#91A8EB" transform="matrix(0.504938 0.00823846 -0.00823846 0.504938 182.822 91.6394)" d="M-4.23752e-08 -22.5C14.6355 -22.5 26.5 -12.3145 26.5 0.25C26.5 12.8145 14.6355 23 4.23752e-08 23C-14.6355 23 -26.5 12.8145 -26.5 0.25C-26.5 -12.3145 -14.6355 -22.5 -4.23752e-08 -22.5Z"></path>
  <path fill="#91A8EB" transform="matrix(0.274279 0.00447507 -0.00447507 0.274279 163.953 58.8529)" d="M3.05176e-05 -22.4262C14.2962 -22.4262 25.8855 -12.2741 25.8855 0.249207C25.8855 12.7725 14.2962 22.9246 3.05176e-05 22.9246C-14.2961 22.9246 -25.8855 12.7725 -25.8855 0.249207C-25.8855 -12.2741 -14.2961 -22.4262 3.05176e-05 -22.4262Z"></path>
  <path fill="#C1CBE8" transform="matrix(0.073816 -0.11483 0.26388 0.16963 160.207 56.2336)" d="M-6.10352e-05 -11.4999C14.6355 -11.4999 28.006 -7.98322 28.006 -1.63195C28.006 4.71933 15.5058 0.400246 0.870295 0.400247C-13.7652 0.400246 -26.7661 4.37695 -26.7661 -1.97432C-26.7661 -8.3256 -14.6356 -11.4999 -6.10352e-05 -11.4999Z"></path>
  <path fill="#C1CBE8" transform="matrix(-0.166841 -0.570472 0.880441 -0.257495 182.743 117.996)" d="M0 -11.5C14.6355 -11.5 28.0061 -7.98328 28.0061 -1.632C28.0061 4.71927 15.5059 0.400193 0.870357 0.400193C-13.7652 0.400192 -26.766 4.3769 -26.766 -1.97438C-26.766 -8.32565 -14.6355 -11.5 0 -11.5Z"></path>
  <path fill="#1B2B56" transform="matrix(1.78669 -0.21848 0.065544 0.536007 236.331 91.493)" d="M-6.64964e-07 -2.5C1.38071 -2.5 2.5 -1.38071 2.5 0C2.5 1.38071 1.38071 2.5 -6.46338e-07 2.5C-1.38071 2.5 -2.5 1.38071 -2.5 0C-2.5 -1.38071 -1.38071 -2.5 -6.64964e-07 -2.5Z"></path>
  <path fill="none" stroke="#1B2B56" stroke-width="0.5" stroke-linecap="round" stroke-linejoin="round" transform="matrix(1.78289 -0.247598 0.247598 1.78289 244.975 90.3813)" d="M1.98548 0.277966L6.02909 0.184229"></path>
  <path fill="#1B2B56" transform="matrix(1.78669 -0.21848 0.065544 0.536007 264.918 87.9972)" d="M-1.91666e-06 -2.5C1.38071 -2.5 2.5 -1.38071 2.5 0C2.5 1.38071 1.38071 2.5 -1.89804e-06 2.5C-1.38071 2.5 -2.5 1.38071 -2.5 0C-2.5 -1.38071 -1.38071 -2.5 -1.91666e-06 -2.5Z"></path>
  <path fill="#354B89" transform="matrix(1.46507 -0.885005 0.929571 0.72522 256.695 81.0652)" d="M0 -2.5C1.38071 -2.5 2.5 -1.38071 2.5 1.49012e-07C2.5 1.38071 1.38071 2.5 0 2.5C-1.38071 2.5 -2.5 1.38071 -2.5 -1.49012e-07C-2.5 -1.38071 -1.38071 -2.5 0 -2.5Z"></path>
  <path fill="#354B89" transform="matrix(2.16254 0.296937 -0.629837 1.0733 240.723 82.0047)" d="M-3.8147e-06 -2.98532C1.68305 -2.98532 3.04744 -1.64874 3.04744 1.5168e-05C3.04744 1.64877 1.68305 2.98535 -3.8147e-06 2.98535C-1.68306 2.98535 -3.04744 1.64877 -3.04744 1.53496e-05C-3.04744 -1.64874 -1.68306 -2.98532 -3.8147e-06 -2.98532Z"></path>
  <path fill="none" stroke="black" stroke-width="7" stroke-linecap="round" stroke-linejoin="round" transform="matrix(2.15345 4.45679e-09 -4.42021e-09 2.13577 150.22 284.611)" d="M29.7972 -34.9119C32.5877 -30.0194 36.488 -22.3308 40.7656 -9.32313C50.5505 17.7869 57.2361 39.0898 33.9732 49.0688C19.3295 55.2402 -3.02774 37.445 -12.8199 10.315C-20.5667 -12.4107 -16.7674 -35.9304 -8.09204 -49.5321"></path>
  <path fill="#6C88D9" transform="matrix(2.15345 4.45679e-09 -4.42021e-09 2.13577 150.22 284.611)" d="M8.92464 -61.2062C13.6008 -58.1213 24.4369 -45.947 25.7109 -42.2354C26.9849 -38.5238 33.3008 -32.023 40.7656 -9.32313C50.5505 17.7869 57.2361 39.0898 33.9732 49.0688C19.3295 55.2402 -3.02774 37.445 -12.8199 10.315C-24.6956 -24.5229 -9.43788 -61.2266 8.92464 -61.2062Z"></path>
  <path fill="#91A8EB" transform="matrix(1.67686 3.47045e-09 -4.32784e-09 2.09114 154.21 278.898)" d="M10.2259 -54.8546C31.3927 -60.1371 31.4422 -35.1569 42.0395 -8.69167C54.3556 18.0239 60.1498 40.5022 46.5712 46.436C32.9927 52.3699 4.00175 35.1714 -9.8756 8.84767C-22.9198 -18.9227 -10.9409 -49.5722 10.2259 -54.8546Z"></path>
  <path fill="none" stroke="white" stroke-width="5" stroke-linecap="round" stroke-linejoin="round" transform="matrix(1.5 0 0 1.5 158.539 362.24)" d=""></path>
</svg>