<?xml version="1.0" encoding="utf-8"?>
<svg xmlns="http://www.w3.org/2000/svg" xmlns:xlink="http://www.w3.org/1999/xlink" width="512" height="512">
  <path fill="none" stroke="black" stroke-width="7" stroke-linejoin="round" transform="matrix(1.8 3.72529e-09 -3.72529e-09 1.8 210.879 409.868)" d="M52.0866 -47.5016C70.3077 -47.1074 82.7758 -39.5799 82.1375 4.70506C82.1606 33.7225 74.7106 43.6651 64.1971 43.2887C53.6835 42.9123 45.0439 42.9257 34.7105 42.8996C24.2491 42.6928 18.9832 31.4984 18.9606 2.46785C19.3353 -44.0272 33.8654 -47.8958 52.0866 -47.5016Z"></path>
  <path fill="none" stroke="black" stroke-width="7" stroke-linejoin="round" transform="matrix(-2.15345 -3.29802e-07 -3.27096e-07 2.13577 356.084 273.783)" d="M18.4288 -58.6577C21.7965 -54.1613 27.9164 -39.0118 27.8719 -35.0844C27.8274 -31.1571 32.2235 -22.2406 30.933 2.09392C29.7045 30.9572 25.2612 54.0447 -0.00262451 53.1132C-15.8594 52.4271 -27.3217 28.4897 -26.0932 -0.373672C-24.5529 -36.5599 1.15271 -64.9315 18.4288 -58.6577Z"></path>
  <path fill="none" stroke="black" stroke-width="7" stroke-linejoin="round" transform="matrix(1.79976 0.0293645 -0.0293645 1.79976 266.378 274.948)" d="M0.209625 -80.0966C37.3348 -80.0966 84.5 -60 84.5 9.53674e-07C84.5 41.1452 46.7396 76.2788 0.209625 76.2788C-62.1658 76.2788 -84 60.12 -84 9.53674e-07C-84 -71.2881 -50.5087 -80.0966 0.209625 -80.0966Z"></path>
  <path fill="none" stroke="black" stroke-width="7" stroke-linejoin="round" transform="matrix(1.53671 3.18039e-09 -3.72529e-09 1.8 308.979 398.168)" d="M-52.6647 -46.7387C-34.4393 -46.7559 -19.0576 -39.8616 -19.184 9.71294C-18.7825 23.5642 -25.0283 47.2738 -38.7051 47.1027C-52.3818 46.9316 -58.5168 46.8549 -70.7176 46.7023C-82.9182 46.5497 -84.7825 23.6264 -85.184 9.77515C-85.3712 -41.9898 -70.8901 -46.7215 -52.6647 -46.7387Z"></path>
  <path fill="#6C88D9" transform="matrix(-2.15345 -3.29802e-07 -3.27096e-07 2.13577 356.084 273.783)" d="M18.4288 -58.6577C21.7965 -54.1613 27.9164 -39.0118 27.8719 -35.0844C27.8274 -31.1571 32.2235 -22.2406 30.933 2.09392C29.7045 30.9572 25.2612 54.0447 -0.00262451 53.1132C-15.8594 52.4271 -27.3217 28.4897 -26.0932 -0.373672C-24.5529 -36.5599 1.15271 -64.9315 18.4288 -58.6577Z"></path>
  <path fill="#5170C8" transform="matrix(1.53671 3.18039e-09 -3.72529e-09 1.8 308.979 398.168)" d="M-52.6647 -46.7387C-34.4393 -46.7559 -19.0576 -39.8616 -19.184 9.71294C-18.7825 23.5642 -25.0283 47.2738 -38.7051 47.1027C-52.3818 46.9316 -58.5168 46.8549 -70.7176 46.7023C-82.9182 46.5497 -84.7825 23.6264 -85.184 9.77515C-85.3712 -41.9898 -70.8901 -46.7215 -52.6647 -46.7387Z"></path>
  <path fill="#839BE0" transform="matrix(1.20328 2.49031e-09 -2.91698e-09 1.40944 308.979 398.168)" d="M-67.242 -46.983C-49.0166 -47.0002 -34.1865 -40.0217 -34.18 14.0451C-34.6638 31.9753 -43.6282 47.0435 -57.3049 46.8724C-70.9817 46.7013 -70.8077 46.7541 -83.0084 46.6015C-95.2092 46.4488 -100.664 32.0376 -100.18 14.1074C-100.5 -42.1499 -85.4674 -46.9658 -67.242 -46.983Z"></path>
  <path fill="#6C88D9" transform="matrix(1.8 3.72529e-09 -3.72529e-09 1.8 210.879 409.868)" d="M52.0866 -47.5016C70.3077 -47.1074 82.7758 -39.5799 82.1375 4.70506C82.1606 33.7225 74.7106 43.6651 64.1971 43.2887C53.6835 42.9123 45.0439 42.9257 34.7105 42.8996C24.2491 42.6928 18.9832 31.4984 18.9606 2.46785C19.3353 -44.0272 33.8654 -47.8958 52.0866 -47.5016Z"></path>
  <path fill="#91A8EB" transform="matrix(-1.67686 -2.56813e-07 -3.2026e-07 2.09114 352.094 268.07)" d="M20.2888 -52.2313C42.4367 -51.4692 34.2131 -26.8992 31.0497 1.60989C27.8863 30.119 14.7527 53.0419 -0.697041 52.5102C-16.1468 51.9785 -27.0404 28.301 -25.5049 -0.391402C-23.9693 -29.0838 -1.85908 -52.9935 20.2888 -52.2313Z"></path>
  <path fill="none" stroke="black" stroke-width="7" stroke-miterlimit="4" transform="matrix(1.79976 0.0293645 -0.0293645 1.79976 224.927 112.276)" d="M0 -29.5C19.0538 -29.5 34.5 -16.1805 34.5 0.249992C34.5 16.6805 19.0538 30 0 30C-19.0538 30 -34.5 16.6805 -34.5 0.249992C-34.5 -16.1805 -19.0538 -29.5 0 -29.5Z"></path>
  <path fill="#6C88D9" transform="matrix(1.79976 0.0293645 -0.0293645 1.79976 266.378 274.948)" d="M0.209625 -80.0966C37.3348 -80.0966 84.5 -60 84.5 9.53674e-07C84.5 41.1452 46.7396 76.2788 0.209625 76.2788C-62.1658 76.2788 -84 60.12 -84 9.53674e-07C-84 -71.2881 -50.5087 -80.0966 0.209625 -80.0966Z"></path>
  <path fill="none" stroke="black" stroke-width="9" stroke-miterlimit="4" transform="translate(256 256)" d="M-57.3826 -201.541C-42.6 -201.3 -30.7849 -190.771 -30.9929 -178.023C-31.2009 -165.276 -43.3532 -155.138 -58.1358 -155.379C-72.9184 -155.62 -84.7334 -166.149 -84.5254 -178.897C-84.3174 -191.644 -72.1652 -201.782 -57.3826 -201.541Z"></path>
  <path fill="none" stroke="black" stroke-width="9" stroke-miterlimit="4" transform="translate(256 256)" d="M-72.8956 -186.629C-60.596 -186.428 -50.7655 -177.667 -50.9386 -167.061C-51.1116 -156.455 -61.2227 -148.02 -73.5223 -148.22C-85.8218 -148.421 -95.6523 -157.182 -95.4793 -167.788C-95.3062 -178.394 -85.1952 -186.829 -72.8956 -186.629Z"></path>
  <path fill="none" stroke="black" stroke-width="9" stroke-miterlimit="4" transform="translate(256 256)" d="M-92.9027 -210.963C-86.2217 -210.854 -80.8818 -206.095 -80.9758 -200.334C-81.0698 -194.573 -86.5621 -189.991 -93.2431 -190.1C-99.9241 -190.209 -105.264 -194.967 -105.17 -200.729C-105.076 -206.49 -99.5837 -211.072 -92.9027 -210.963Z"></path>
  <path fill="#6C88D9" transform="matrix(1.79976 0.0293645 -0.0293645 1.79976 224.927 112.276)" d="M0 -29.5C19.0538 -29.5 34.5 -16.1805 34.5 0.249992C34.5 16.6805 19.0538 30 0 30C-19.0538 30 -34.5 16.6805 -34.5 0.249992C-34.5 -16.1805 -19.0538 -29.5 0 -29.5Z"></path>
  <path fill="#6C88D9" transform="matrix(0.775834 0.0126583 -0.0126583 0.775834 198.244 77.3459)" d="M-7.62939e-06 -29.5C19.0538 -29.5 34.5 -16.1805 34.5 0.25C34.5 16.6805 19.0538 30 -7.62939e-06 30C-19.0538 30 -34.5 16.6805 -34.5 0.25C-34.5 -16.1805 -19.0538 -29.5 -7.62939e-06 -29.5Z"></path>
  <path fill="#6C88D9" transform="matrix(0.645518 0.0105321 -0.0105321 0.645518 182.794 88.4141)" d="M7.62939e-06 -29.5C19.0538 -29.5 34.5 -16.1805 34.5 0.25C34.5 16.6805 19.0538 30 7.62939e-06 30C-19.0538 30 -34.5 16.6805 -34.5 0.25C-34.5 -16.1805 -19.0538 -29.5 7.62939e-06 -29.5Z"></path>
  <path fill="#6C88D9" transform="matrix(0.35064 0.00572097 -0.00572097 0.35064 162.929 55.3812)" d="M0 -29.5001C19.0538 -29.5001 34.5 -16.1805 34.5 0.249939C34.5 16.6804 19.0538 29.9999 0 29.9999C-19.0538 29.9999 -34.5 16.6804 -34.5 0.249939C-34.5 -16.1805 -19.0538 -29.5001 0 -29.5001Z"></path>
  <path fill="#91A8EB" transform="matrix(1.50913 0.0246226 -0.0246226 1.50913 265.014 274.948)" d="M0.24998 -81.5196C49.8787 -81.2985 84.5 -60 84.5 -9.53674e-07C84.5 41.1452 46.78 74.5 0.25 74.5C-62.1254 74.5 -84 60.12 -84 -9.53674e-07C-84 -71.2881 -62.1254 -81.5196 0.24998 -81.5196Z"></path>
  <clipPath id="cl_b1">
    <path d="M269.107 130.8C335.924 131.89 420.22 169.444 418.458 277.43C417.25 351.481 348.258 413.605 264.516 412.238C152.255 410.407 113.433 380.683 115.198 272.482C117.292 144.18 177.827 129.311 269.107 130.8Z"></path>
  </clipPath>
  <g clip-path="url(#cl_b1)">
    <path fill="#A6B8EF" transform="matrix(0.805953 0.0131497 -0.0151654 0.929491 320.672 239.827)" d="M0.249964 -81.5196C49.8787 -81.2985 84.5 -60 84.5 0C84.5 41.1452 67.1354 74.5 20.6054 74.5C-41.77 74.5 -84 60.12 -84 0C-84 -71.2881 -62.1254 -81.5197 0.249964 -81.5196Z"></path>
    <path fill="#C1CBE8" transform="matrix(0.197995 -0.202726 0.445703 0.435301 343.772 190.977)" d="M11.5671 -77.0972C58.0971 -77.0972 97.5959 -41.1452 97.5959 -1.86167e-05C97.5959 41.1452 73.4188 83.0524 26.8888 83.0524C-35.4866 83.0524 11.8087 60.12 11.8087 -1.73384e-05C11.8087 -41.1452 -34.9629 -77.0972 11.5671 -77.0972Z"></path>
    <path fill="#C1CBE8" transform="matrix(0.197995 -0.202726 0.184201 0.179903 388.214 255.333)" d="M48.93 -79.7642C80.6762 -79.0529 77.4946 -42.8888 62.8507 4.00568C48.2069 50.9002 -0.03942 91.2964 -20.4536 67.777C-40.8678 44.2577 -16.8141 31.8032 -0.458991 -5.13878C15.8961 -42.0808 17.1838 -80.4755 48.93 -79.7642Z"></path>
  </g>
  <path fill="#91A8EB" transform="matrix(1.37947 2.85496e-09 -2.85496e-09 1.37947 210.879 346.868)" d="M67.6628 -2.33636C85.884 -1.94223 99.5018 -2.43932 98.8365 49.05C98.1115 74.5277 90.3158 88.9519 79.8022 88.5755C69.2887 88.1992 60.6491 88.2125 50.3157 88.1865C39.936 88.0871 32.7253 71.2396 33.4503 45.762C33.8522 -7.93774 49.4417 -2.73055 67.6628 -2.33636Z"></path>
  <path fill="#91A8EB" transform="matrix(1.79976 0.0293645 -0.0293645 1.79976 224.927 112.276)" d="M0 -22.5C14.6355 -22.5 26.5 -12.3145 26.5 0.249992C26.5 12.8145 14.6355 23 0 23C-14.6355 23 -26.5 12.8145 -26.5 0.249992C-26.5 -12.3145 -14.6355 -22.5 0 -22.5Z"></path>
  <path fill="#91A8EB" transform="matrix(0.606874 0.00990163 -0.00990163 0.606874 198.244 79.5531)" d="M0 -22.5C14.6355 -22.5 26.5 -12.3145 26.5 0.25C26.5 12.8145 14.6355 23 0 23C-14.6355 23 -26.5 12.8145 -26.5 0.25C-26.5 -12.3145 -14.6355 -22.5 0 -22.5Z"></path>
  <path fill="#91A8EB" transform="matrix(0.504938 0.00823846 -0.00823846 0.504938 182.794 90.2505)" d="M-4.23752e-08 -22.5C14.6355 -22.5 26.5 -12.3145 26.5 0.25C26.5 12.8145 14.6355 23 4.23752e-08 23C-14.6355 23 -26.5 12.8145 -26.5 0.25C-26.5 -12.3145 -14.6355 -22.5 -4.23752e-08 -22.5Z"></path>
  <path fill="#91A8EB" transform="matrix(0.274279 0.00447507 -0.00447507 0.274279 163.925 57.4639)" d="M-3.05176e-05 -22.4261C14.2961 -22.4261 25.8855 -12.274 25.8855 0.249268C25.8855 12.7726 14.2961 22.9247 -3.05176e-05 22.9247C-14.2962 22.9247 -25.8855 12.7726 -25.8855 0.249268C-25.8855 -12.274 -14.2962 -22.4261 -3.05176e-05 -22.4261Z"></path>
  <path fill="#C1CBE8" transform="matrix(0.073816 -0.11483 0.26388 0.16963 160.162 54.8586)" d="M-0.00012207 -11.4999C14.6354 -11.4999 28.006 -7.98322 28.006 -1.63195C28.006 4.71933 15.5058 0.400246 0.870234 0.400247C-13.7653 0.400246 -26.7661 4.37695 -26.7661 -1.97432C-26.7661 -8.3256 -14.6357 -11.4999 -0.00012207 -11.4999Z"></path>
  <path fill="#C1CBE8" transform="matrix(-0.166841 -0.570472 0.880441 -0.257495 182.698 116.62)" d="M3.05176e-05 -11.5C14.6356 -11.5 28.0061 -7.98329 28.0061 -1.63201C28.0061 4.71926 15.5059 0.400182 0.870387 0.400182C-13.7652 0.400181 -26.766 4.37688 -26.766 -1.97439C-26.766 -8.32566 -14.6355 -11.5 3.05176e-05 -11.5Z"></path>
  <path fill="#1B2B56" transform="matrix(1.78669 -0.21848 0.065544 0.536007 237.109 89.4082)" d="M4.07919e-07 -2.50003C1.38071 -2.50003 2.5 -1.38074 2.5 -3.05176e-05C2.5 1.38068 1.38071 2.49997 4.26546e-07 2.49997C-1.38071 2.49997 -2.5 1.38068 -2.5 -3.05176e-05C-2.5 -1.38074 -1.38071 -2.50003 4.07919e-07 -2.50003Z"></path>
  <path fill="none" stroke="#1B2B56" stroke-width="0.5" stroke-linecap="round" stroke-linejoin="round" transform="matrix(1.78289 -0.247598 0.247598 1.78289 245.753 88.2966)" d="M1.98548 0.277974L6.02909 0.184236"></path>
  <path fill="#1B2B56" transform="matrix(1.78669 -0.21848 0.065544 0.536007 265.696 85.9125)" d="M-9.31323e-09 -2.5C1.38071 -2.5 2.5 -1.38071 2.5 0C2.5 1.38071 1.38071 2.5 9.31323e-09 2.5C-1.38071 2.5 -2.5 1.38071 -2.5 0C-2.5 -1.38071 -1.38071 -2.5 -9.31323e-09 -2.5Z"></path>
  <path fill="#354B89" transform="matrix(1.46507 -0.885005 0.929571 0.72522 257.474 78.9804)" d="M7.62939e-06 -2.5C1.38072 -2.5 2.50001 -1.38071 2.50001 1.49012e-07C2.50001 1.38071 1.38072 2.5 7.62939e-06 2.5C-1.3807 2.5 -2.49999 1.38071 -2.49999 -1.49012e-07C-2.49999 -1.38071 -1.3807 -2.5 7.62939e-06 -2.5Z"></path>
  <path fill="#354B89" transform="matrix(2.16254 0.296937 -0.629837 1.0733 241.501 79.92)" d="M0 -2.98532C1.68306 -2.98532 3.04744 -1.64874 3.04744 1.5168e-05C3.04744 1.64877 1.68306 2.98535 0 2.98535C-1.68306 2.98535 -3.04744 1.64877 -3.04744 1.53496e-05C-3.04744 -1.64874 -1.68306 -2.98532 0 -2.98532Z"></path>
  <path fill="none" stroke="black" stroke-width="7" stroke-linecap="round" stroke-linejoin="round" transform="matrix(2.15345 4.45679e-09 -4.42021e-09 2.13577 150.191 283.447)" d="M29.8089 -34.9484C32.6067 -30.0608 36.5187 -22.3796 40.8176 -9.38094C50.6494 17.7116 57.3776 38.9976 34.1334 49.0208C19.5013 55.22 -2.89433 37.4641 -12.7334 10.3515C-20.5191 -12.3625 -16.7573 -35.8905 -8.10315 -49.5073"></path>
  <path fill="#6C88D9" transform="matrix(2.15345 4.45679e-09 -4.42021e-09 2.13577 150.191 283.447)" d="M8.89449 -61.2092C13.5756 -58.1319 24.4311 -45.9753 25.7111 -42.2658C26.991 -38.5562 33.315 -32.0667 40.8176 -9.38094C50.6494 17.7116 57.3776 38.9976 34.1334 49.0208C19.5013 55.22 -2.89433 37.4641 -12.7334 10.3515C-24.6684 -24.4676 -9.46804 -61.1996 8.89449 -61.2092Z"></path>
  <path fill="#91A8EB" transform="matrix(1.67686 3.47045e-09 -4.32784e-09 2.09114 154.181 277.734)" d="M10.1971 -54.8592C31.3533 -60.169 31.4495 -35.1892 42.102 -8.73952C54.4762 17.9584 60.3266 40.4247 46.762 46.379C33.1974 52.3333 4.16042 35.1762 -9.77408 8.87231C-22.8775 -18.8813 -10.9591 -49.5493 10.1971 -54.8592Z"></path>
  <path fill="none" stroke="white" stroke-width="5" stroke-linecap="round" stroke-linejoin="round" transform="matrix(1.5 0 0 1.5 158.539 362.24)" d=""></path>
</svg>