<?xml version="1.0" encoding="utf-8"?>
<svg xmlns="http://www.w3.org/2000/svg" xmlns:xlink="http://www.w3.org/1999/xlink" width="512" height="512">
  <path fill="none" stroke="black" stroke-width="7" stroke-linejoin="round" transform="matrix(1.8 3.72529e-09 -3.72529e-09 1.8 210.879 409.868)" d="M51.4912 -47.4872C69.7124 -47.0953 82.1815 -39.5693 81.5486 4.71564C81.5754 33.7331 74.1266 43.6767 63.613 43.3016C53.0995 42.9265 44.4599 42.9409 34.1264 42.9162C23.6651 42.7107 18.3977 31.5169 18.3714 2.48633C18.7404 -44.0088 33.27 -47.8791 51.4912 -47.4872Z"></path>
  <path fill="none" stroke="black" stroke-width="7" stroke-linejoin="round" transform="matrix(-2.15345 -3.29802e-07 -3.27096e-07 2.13577 356.168 277.264)" d="M18.4501 -58.6289C21.8071 -54.1244 27.8914 -38.9603 27.8376 -35.033C27.7838 -31.1058 32.1589 -22.1788 30.8109 2.15255C29.5143 31.0129 25.0165 54.0895 -0.245007 53.0975C-16.1001 52.3734 -27.5059 28.4085 -26.2093 -0.451813C-24.5837 -36.6343 1.18883 -64.9441 18.4501 -58.6289Z"></path>
  <path fill="none" stroke="black" stroke-width="7" stroke-linejoin="round" transform="matrix(1.79976 0.0293645 -0.0293645 1.79976 266.463 278.429)" d="M0.209625 -80.0966C37.3348 -80.0966 84.5 -60 84.5 -9.53674e-07C84.5 41.1452 46.7396 76.2788 0.209625 76.2788C-62.1658 76.2788 -84 60.12 -84 -9.53674e-07C-84 -71.2881 -50.5087 -80.0966 0.209625 -80.0966Z"></path>
  <path fill="none" stroke="black" stroke-width="7" stroke-linejoin="round" transform="matrix(1.53671 3.18039e-09 -3.72529e-09 1.8 308.979 398.168)" d="M-54.3547 -46.7853C-36.295 -48.8786 -15.1049 -41.1202 -12.7233 9.70634C-13.6654 25.204 -25.9423 50.3698 -39.4089 48.3235C-52.8755 46.2773 -58.9162 45.3594 -70.9294 43.534C-82.9427 41.7086 -78.892 21.147 -78.0002 9.03011C-80.859 -40.6365 -72.4144 -44.6919 -54.3547 -46.7853Z"></path>
  <path fill="#6C88D9" transform="matrix(-2.15345 -3.29802e-07 -3.27096e-07 2.13577 356.168 277.264)" d="M18.4501 -58.6289C21.8071 -54.1244 27.8914 -38.9603 27.8376 -35.033C27.7838 -31.1058 32.1589 -22.1788 30.8109 2.15255C29.5143 31.0129 25.0165 54.0895 -0.245007 53.0975C-16.1001 52.3734 -27.5059 28.4085 -26.2093 -0.451813C-24.5837 -36.6343 1.18883 -64.9441 18.4501 -58.6289Z"></path>
  <path fill="#5170C8" transform="matrix(1.53671 3.18039e-09 -3.72529e-09 1.8 308.979 398.168)" d="M-54.3547 -46.7853C-36.295 -48.8786 -15.1049 -41.1202 -12.7233 9.70634C-13.6654 25.204 -25.9423 50.3698 -39.4089 48.3235C-52.8755 46.2773 -58.9162 45.3594 -70.9294 43.534C-82.9427 41.7086 -78.892 21.147 -78.0002 9.03011C-80.859 -40.6365 -72.4144 -44.6919 -54.3547 -46.7853Z"></path>
  <path fill="#839BE0" transform="matrix(1.20328 2.49031e-09 -2.91698e-09 1.40944 308.979 398.168)" d="M-67.4142 -47.1579C-49.3545 -49.2513 -28.4551 -41.355 -25.848 13.9106C-28.1639 33.3813 -42.1331 49.5697 -55.5997 47.5235C-69.0663 45.4773 -68.9045 45.5532 -80.9178 43.7277C-92.931 41.9023 -93.3905 29.3242 -91.125 13.2344C-94.2093 -40.8713 -85.4739 -45.0645 -67.4142 -47.1579Z"></path>
  <path fill="#6C88D9" transform="matrix(1.8 3.72529e-09 -3.72529e-09 1.8 210.879 409.868)" d="M51.4912 -47.4872C69.7124 -47.0953 82.1815 -39.5693 81.5486 4.71564C81.5754 33.7331 74.1266 43.6767 63.613 43.3016C53.0995 42.9265 44.4599 42.9409 34.1264 42.9162C23.6651 42.7107 18.3977 31.5169 18.3714 2.48633C18.7404 -44.0088 33.27 -47.8791 51.4912 -47.4872Z"></path>
  <path fill="#91A8EB" transform="matrix(-1.67686 -2.56813e-07 -3.2026e-07 2.09114 352.179 271.551)" d="M20.3014 -52.2038C42.447 -51.3994 34.1506 -26.8453 30.9026 1.65777C27.6547 30.1607 14.4531 53.0585 -0.99506 52.4974C-16.4432 51.9362 -27.2666 28.238 -25.6459 -0.451408C-24.0252 -29.1408 -1.84407 -53.0083 20.3014 -52.2038Z"></path>
  <path fill="none" stroke="black" stroke-width="7" stroke-miterlimit="4" transform="matrix(1.79976 0.0293645 -0.0293645 1.79976 225.012 116.444)" d="M0 -29.5C19.0538 -29.5 34.5 -16.1805 34.5 0.249992C34.5 16.6805 19.0538 30 0 30C-19.0538 30 -34.5 16.6805 -34.5 0.249992C-34.5 -16.1805 -19.0538 -29.5 0 -29.5Z"></path>
  <path fill="#6C88D9" transform="matrix(1.79976 0.0293645 -0.0293645 1.79976 266.463 278.429)" d="M0.209625 -80.0966C37.3348 -80.0966 84.5 -60 84.5 -9.53674e-07C84.5 41.1452 46.7396 76.2788 0.209625 76.2788C-62.1658 76.2788 -84 60.12 -84 -9.53674e-07C-84 -71.2881 -50.5087 -80.0966 0.209625 -80.0966Z"></path>
  <path fill="none" stroke="black" stroke-width="9" stroke-miterlimit="4" transform="translate(256 256)" d="M-57.2977 -197.373C-42.5151 -197.132 -30.7001 -186.603 -30.908 -173.856C-31.116 -161.108 -43.2683 -150.97 -58.0509 -151.211C-72.8335 -151.452 -84.6485 -161.982 -84.4406 -174.729C-84.2326 -187.476 -72.0803 -197.614 -57.2977 -197.373Z"></path>
  <path fill="none" stroke="black" stroke-width="9" stroke-miterlimit="4" transform="translate(256 256)" d="M-72.8107 -182.461C-60.5111 -182.26 -50.6806 -173.499 -50.8537 -162.893C-51.0267 -152.287 -61.1378 -143.852 -73.4374 -144.053C-85.737 -144.253 -95.5675 -153.014 -95.3944 -163.62C-95.2214 -174.226 -85.1103 -182.661 -72.8107 -182.461Z"></path>
  <path fill="none" stroke="black" stroke-width="9" stroke-miterlimit="4" transform="translate(256 256)" d="M-92.8178 -206.795C-86.1368 -206.686 -80.7969 -201.927 -80.8909 -196.166C-80.9849 -190.405 -86.4772 -185.823 -93.1582 -185.932C-99.8393 -186.041 -105.179 -190.799 -105.085 -196.561C-104.991 -202.322 -99.4989 -206.904 -92.8178 -206.795Z"></path>
  <path fill="#6C88D9" transform="matrix(1.79976 0.0293645 -0.0293645 1.79976 225.012 116.444)" d="M0 -29.5C19.0538 -29.5 34.5 -16.1805 34.5 0.249992C34.5 16.6805 19.0538 30 0 30C-19.0538 30 -34.5 16.6805 -34.5 0.249992C-34.5 -16.1805 -19.0538 -29.5 0 -29.5Z"></path>
  <path fill="#6C88D9" transform="matrix(0.775834 0.0126583 -0.0126583 0.775834 198.329 81.5138)" d="M0 -29.5C19.0538 -29.5 34.5 -16.1805 34.5 0.249985C34.5 16.6805 19.0538 30 0 30C-19.0538 30 -34.5 16.6805 -34.5 0.249985C-34.5 -16.1805 -19.0538 -29.5 0 -29.5Z"></path>
  <path fill="#6C88D9" transform="matrix(0.645518 0.0105321 -0.0105321 0.645518 182.879 92.582)" d="M7.62939e-06 -29.5C19.0538 -29.5 34.5 -16.1805 34.5 0.25C34.5 16.6805 19.0538 30 7.62939e-06 30C-19.0538 30 -34.5 16.6805 -34.5 0.25C-34.5 -16.1805 -19.0538 -29.5 7.62939e-06 -29.5Z"></path>
  <path fill="#6C88D9" transform="matrix(0.35064 0.00572097 -0.00572097 0.35064 163.013 59.5491)" d="M0 -29.5001C19.0538 -29.5001 34.5 -16.1805 34.5 0.249939C34.5 16.6804 19.0538 29.9999 0 29.9999C-19.0538 29.9999 -34.5 16.6804 -34.5 0.249939C-34.5 -16.1805 -19.0538 -29.5001 0 -29.5001Z"></path>
  <path fill="#91A8EB" transform="matrix(1.50913 0.0246226 -0.0246226 1.50913 265.099 278.429)" d="M0.24998 -81.5196C49.8787 -81.2985 84.5 -60 84.5 -1.90735e-06C84.5 41.1452 46.78 74.5 0.25 74.5C-62.1254 74.5 -84 60.12 -84 -1.90735e-06C-84 -71.2881 -62.1254 -81.5196 0.24998 -81.5196Z"></path>
  <clipPath id="cl_c6">
    <path d="M269.192 134.281C336.009 135.371 420.305 172.925 418.543 280.911C417.335 354.962 348.343 417.085 264.6 415.719C152.34 413.887 113.518 384.164 115.283 275.963C117.376 147.661 177.911 132.791 269.192 134.281Z"></path>
  </clipPath>
  <g clip-path="url(#cl_c6)">
    <path fill="#A6B8EF" transform="matrix(0.805953 0.0131497 -0.0151654 0.929491 320.757 243.307)" d="M0.249972 -81.5196C49.8787 -81.2985 84.5 -60 84.5 -9.53674e-07C84.5 41.1452 67.1354 74.5 20.6054 74.5C-41.77 74.5 -84 60.12 -84 -9.53674e-07C-84 -71.2881 -62.1254 -81.5197 0.249972 -81.5196Z"></path>
    <path fill="#C1CBE8" transform="matrix(0.197995 -0.202726 0.445703 0.435301 343.857 194.458)" d="M11.5671 -77.0972C58.0971 -77.0972 97.5959 -41.1452 97.5959 -1.4802e-05C97.5959 41.1452 73.4188 83.0524 26.8888 83.0524C-35.4866 83.0524 11.8086 60.12 11.8086 -1.35237e-05C11.8086 -41.1452 -34.9629 -77.0972 11.5671 -77.0972Z"></path>
    <path fill="#C1CBE8" transform="matrix(0.197995 -0.202726 0.184201 0.179903 388.299 258.814)" d="M48.93 -79.7643C80.6763 -79.053 77.4946 -42.8889 62.8508 4.00562C48.2069 50.9001 -0.0393895 91.2963 -20.4536 67.777C-40.8678 44.2576 -16.8141 31.8032 -0.458961 -5.13884C15.8962 -42.0808 17.1838 -80.4756 48.93 -79.7643Z"></path>
  </g>
  <path fill="#91A8EB" transform="matrix(1.37947 2.85496e-09 -2.85496e-09 1.37947 210.879 346.868)" d="M66.8877 -2.31758C85.1089 -1.92566 98.7267 -2.42446 98.0678 49.065C97.346 74.5427 89.5521 88.9679 79.0385 88.5929C68.525 88.2178 59.8853 88.2321 49.5519 88.2075C39.1722 88.1092 31.9594 71.2627 32.6812 45.785C33.0765 -7.91476 48.6665 -2.70947 66.8877 -2.31758Z"></path>
  <path fill="#91A8EB" transform="matrix(1.79976 0.0293645 -0.0293645 1.79976 225.012 116.444)" d="M0 -22.5C14.6355 -22.5 26.5 -12.3145 26.5 0.249992C26.5 12.8145 14.6355 23 0 23C-14.6355 23 -26.5 12.8145 -26.5 0.249992C-26.5 -12.3145 -14.6355 -22.5 0 -22.5Z"></path>
  <path fill="#91A8EB" transform="matrix(0.606874 0.00990163 -0.00990163 0.606874 198.329 83.7209)" d="M0 -22.5C14.6355 -22.5 26.5 -12.3145 26.5 0.25C26.5 12.8145 14.6355 23 0 23C-14.6355 23 -26.5 12.8145 -26.5 0.25C-26.5 -12.3145 -14.6355 -22.5 0 -22.5Z"></path>
  <path fill="#91A8EB" transform="matrix(0.504938 0.00823846 -0.00823846 0.504938 182.879 94.4184)" d="M-4.23752e-08 -22.5C14.6355 -22.5 26.5 -12.3144 26.5 0.25003C26.5 12.8145 14.6355 23 4.23752e-08 23C-14.6355 23 -26.5 12.8145 -26.5 0.250031C-26.5 -12.3144 -14.6355 -22.5 -4.23752e-08 -22.5Z"></path>
  <path fill="#91A8EB" transform="matrix(0.274279 0.00447507 -0.00447507 0.274279 164.009 61.6318)" d="M3.05176e-05 -22.4261C14.2962 -22.4261 25.8855 -12.274 25.8855 0.249329C25.8855 12.7726 14.2962 22.9247 3.05176e-05 22.9247C-14.2961 22.9247 -25.8855 12.7726 -25.8855 0.249329C-25.8855 -12.274 -14.2961 -22.4261 3.05176e-05 -22.4261Z"></path>
  <path fill="#C1CBE8" transform="matrix(0.073816 -0.11483 0.26388 0.16963 160.272 58.9999)" d="M0 -11.4999C14.6355 -11.4999 28.0061 -7.98322 28.0061 -1.63195C28.0061 4.71933 15.5059 0.400246 0.870356 0.400247C-13.7652 0.400246 -26.766 4.37695 -26.766 -1.97432C-26.766 -8.3256 -14.6355 -11.4999 0 -11.4999Z"></path>
  <path fill="#C1CBE8" transform="matrix(-0.166841 -0.570472 0.880441 -0.257495 182.808 120.762)" d="M-1.52588e-05 -11.5C14.6355 -11.5 28.0061 -7.98328 28.0061 -1.632C28.0061 4.71927 15.5059 0.40019 0.870341 0.40019C-13.7652 0.400188 -26.766 4.37689 -26.766 -1.97438C-26.766 -8.32566 -14.6356 -11.5 -1.52588e-05 -11.5Z"></path>
  <path fill="#1B2B56" transform="matrix(1.78669 -0.21848 0.065544 0.536007 235.964 94.9072)" d="M5.56931e-07 -2.5C1.38071 -2.5 2.5 -1.38071 2.5 0C2.5 1.38071 1.38071 2.5 5.75557e-07 2.5C-1.38071 2.5 -2.5 1.38071 -2.5 0C-2.5 -1.38071 -1.38071 -2.5 5.56931e-07 -2.5Z"></path>
  <path fill="none" stroke="#1B2B56" stroke-width="0.5" stroke-linecap="round" stroke-linejoin="round" transform="matrix(1.78289 -0.247598 0.247598 1.78289 244.608 93.7956)" d="M1.98548 0.277981L6.02909 0.184244"></path>
  <path fill="#1B2B56" transform="matrix(1.78669 -0.21848 0.065544 0.536007 264.551 91.4114)" d="M-9.62988e-07 -2.50003C1.38071 -2.50003 2.5 -1.38074 2.5 -3.05176e-05C2.5 1.38068 1.38071 2.49997 -9.44361e-07 2.49997C-1.38071 2.49997 -2.5 1.38068 -2.5 -3.05176e-05C-2.5 -1.38074 -1.38071 -2.50003 -9.62988e-07 -2.50003Z"></path>
  <path fill="#354B89" transform="matrix(1.46507 -0.885005 0.929571 0.72522 256.328 84.4794)" d="M0 -2.49998C1.38071 -2.49998 2.5 -1.3807 2.5 1.54078e-05C2.5 1.38073 1.38071 2.50002 0 2.50002C-1.38071 2.50002 -2.5 1.38073 -2.5 1.51098e-05C-2.5 -1.3807 -1.38071 -2.49998 0 -2.49998Z"></path>
  <path fill="#354B89" transform="matrix(2.16254 0.296937 -0.629837 1.0733 240.356 85.4189)" d="M-3.8147e-06 -2.98534C1.68305 -2.98534 3.04744 -1.64876 3.04744 -9.08208e-08C3.04744 1.64876 1.68305 2.98534 -3.8147e-06 2.98534C-1.68306 2.98534 -3.04744 1.64876 -3.04744 9.08208e-08C-3.04744 -1.64876 -1.68306 -2.98534 -3.8147e-06 -2.98534Z"></path>
  <path fill="none" stroke="black" stroke-width="7" stroke-linecap="round" stroke-linejoin="round" transform="matrix(2.15345 4.45679e-09 -4.42021e-09 2.13577 150.276 286.928)" d="M29.7586 -34.7934C32.5255 -29.8846 36.388 -22.1723 40.596 -9.13529C50.2276 18.0312 56.7729 39.389 33.4496 49.2236C18.7686 55.304 -3.46211 37.3813 -13.1007 10.1949C-20.721 -12.5686 -16.7999 -36.0605 -8.05561 -49.6127"></path>
  <path fill="#6C88D9" transform="matrix(2.15345 4.45679e-09 -4.42021e-09 2.13577 150.276 286.928)" d="M9.02267 -61.1961C13.6827 -58.0864 24.4552 -45.8549 25.7099 -42.1366C26.9645 -38.4183 33.2543 -31.8807 40.596 -9.13529C50.2276 18.0312 56.7729 39.389 33.4496 49.2236C18.7686 55.304 -3.46211 37.3813 -13.1007 10.1949C-24.7832 -24.7034 -9.33949 -61.3137 9.02267 -61.1961Z"></path>
  <path fill="#91A8EB" transform="matrix(1.67686 3.47045e-09 -4.32784e-09 2.09114 154.266 281.215)" d="M10.3195 -54.8395C31.5207 -60.0328 31.4184 -35.0519 41.8357 -8.5363C53.9623 18.2363 59.5718 40.7537 45.948 46.6204C32.3242 52.4872 3.48503 35.1541 -10.2055 8.76619C-23.0566 -19.0579 -10.8816 -49.6463 10.3195 -54.8395Z"></path>
  <path fill="none" stroke="white" stroke-width="5" stroke-linecap="round" stroke-linejoin="round" transform="matrix(1.5 0 0 1.5 158.539 362.24)" d=""></path>
</svg>