<?xml version="1.0" encoding="utf-8"?>
<svg xmlns="http://www.w3.org/2000/svg" xmlns:xlink="http://www.w3.org/1999/xlink" width="512" height="512">
  <path fill="none" stroke="black" stroke-width="7" stroke-linejoin="round" transform="matrix(1.8 3.72529e-09 -3.72529e-09 1.8 210.879 409.868)" d="M41.138 -47.2298C58.987 -50.9143 78.2374 -41.9777 81.0771 4.14396C77.8906 35.2568 63.786 47.4484 53.6481 44.6381C43.5101 41.8279 35.1041 39.8323 25.0598 37.4047C14.9333 34.7714 16.6124 26.9864 19.5684 1.61887C16.0442 -40.7619 23.2889 -43.5452 41.138 -47.2298Z"></path>
  <path fill="none" stroke="black" stroke-width="7" stroke-linejoin="round" transform="matrix(-2.15345 -3.29802e-07 -3.27096e-07 2.13577 356.245 280.425)" d="M18.728 -58.2394C21.9414 -53.6297 27.5447 -38.2783 27.3672 -34.3548C27.1897 -30.4313 31.2813 -21.3687 29.1674 2.90725C26.9621 31.7115 21.7395 54.6324 -3.47803 52.8317C-19.3023 51.6001 -29.9473 27.2819 -27.742 -1.52229C-24.9771 -37.6345 1.6744 -65.1044 18.728 -58.2394Z"></path>
  <path fill="none" stroke="black" stroke-width="7" stroke-linejoin="round" transform="matrix(1.79976 0.0293645 -0.0293645 1.79976 266.54 281.591)" d="M0.209625 -80.0966C37.3348 -80.0966 84.5 -60 84.5 9.53674e-07C84.5 41.1452 46.7396 76.2788 0.209625 76.2788C-62.1658 76.2788 -84 60.12 -84 9.53674e-07C-84 -71.2881 -50.5087 -80.0966 0.209625 -80.0966Z"></path>
  <path fill="none" stroke="black" stroke-width="7" stroke-linejoin="round" transform="matrix(1.53671 3.18039e-09 -3.72529e-09 1.8 308.979 398.168)" d="M-44.0243 -46.9221C-25.799 -46.9744 -10.3991 -40.1097 -10.3948 9.465C-9.95673 23.3154 -16.14 47.037 -29.8171 46.8922C-43.4943 46.7474 -49.6295 46.6825 -61.8306 46.5533C-74.0316 46.4241 -75.9564 23.5045 -76.3945 9.65414C-76.7182 -42.1103 -62.2496 -46.8699 -44.0243 -46.9221Z"></path>
  <path fill="#6C88D9" transform="matrix(-2.15345 -3.29802e-07 -3.27096e-07 2.13577 356.245 280.425)" d="M18.728 -58.2394C21.9414 -53.6297 27.5447 -38.2783 27.3672 -34.3548C27.1897 -30.4313 31.2813 -21.3687 29.1674 2.90725C26.9621 31.7115 21.7395 54.6324 -3.47803 52.8317C-19.3023 51.6001 -29.9473 27.2819 -27.742 -1.52229C-24.9771 -37.6345 1.6744 -65.1044 18.728 -58.2394Z"></path>
  <path fill="#5170C8" transform="matrix(1.53671 3.18039e-09 -3.72529e-09 1.8 308.979 398.168)" d="M-44.0243 -46.9221C-25.799 -46.9744 -10.3991 -40.1097 -10.3948 9.465C-9.95673 23.3154 -16.14 47.037 -29.8171 46.8922C-43.4943 46.7474 -49.6295 46.6825 -61.8306 46.5533C-74.0316 46.4241 -75.9564 23.5045 -76.3945 9.65414C-76.7182 -42.1103 -62.2496 -46.8699 -44.0243 -46.9221Z"></path>
  <path fill="#839BE0" transform="matrix(1.20328 2.49031e-09 -2.91698e-09 1.40944 308.979 398.168)" d="M-56.1737 -47.2173C-37.9484 -47.2695 -23.1 -40.3196 -22.951 13.7472C-23.3874 31.6782 -32.312 46.7636 -45.9891 46.6188C-59.6663 46.474 -59.4921 46.5264 -71.6932 46.3973C-83.8943 46.2681 -89.387 31.8674 -88.9506 13.9363C-89.4192 -42.3203 -74.399 -47.165 -56.1737 -47.2173Z"></path>
  <path fill="#6C88D9" transform="matrix(1.8 3.72529e-09 -3.72529e-09 1.8 210.879 409.868)" d="M41.138 -47.2298C58.987 -50.9143 78.2374 -41.9777 81.0771 4.14396C77.8906 35.2568 63.786 47.4484 53.6481 44.6381C43.5101 41.8279 35.1041 39.8323 25.0598 37.4047C14.9333 34.7714 16.6124 26.9864 19.5684 1.61887C16.0442 -40.7619 23.2889 -43.5452 41.138 -47.2298Z"></path>
  <path fill="#91A8EB" transform="matrix(-1.67686 -2.56813e-07 -3.2026e-07 2.09114 352.256 274.712)" d="M20.4629 -51.8344C42.5654 -50.4662 33.3004 -26.1358 28.9248 2.2701C24.5492 30.6759 10.4472 53.2258 -4.97092 52.2714C-20.389 51.317 -30.2681 27.355 -27.5116 -1.27862C-24.755 -29.9122 -1.63962 -53.2026 20.4629 -51.8344Z"></path>
  <path fill="none" stroke="black" stroke-width="7" stroke-miterlimit="4" transform="matrix(1.79976 0.0293645 -0.0293645 1.79976 225.089 120.847)" d="M0 -29.5C19.0538 -29.5 34.5 -16.1805 34.5 0.249992C34.5 16.6805 19.0538 30 0 30C-19.0538 30 -34.5 16.6805 -34.5 0.249992C-34.5 -16.1805 -19.0538 -29.5 0 -29.5Z"></path>
  <path fill="#6C88D9" transform="matrix(1.79976 0.0293645 -0.0293645 1.79976 266.54 281.591)" d="M0.209625 -80.0966C37.3348 -80.0966 84.5 -60 84.5 9.53674e-07C84.5 41.1452 46.7396 76.2788 0.209625 76.2788C-62.1658 76.2788 -84 60.12 -84 9.53674e-07C-84 -71.2881 -50.5087 -80.0966 0.209625 -80.0966Z"></path>
  <path fill="none" stroke="black" stroke-width="9" stroke-miterlimit="4" transform="translate(256 256)" d="M-57.2206 -192.97C-42.438 -192.728 -30.623 -182.199 -30.831 -169.452C-31.0389 -156.705 -43.1912 -146.566 -57.9738 -146.808C-72.7564 -147.049 -84.5715 -157.578 -84.3635 -170.325C-84.1555 -183.073 -72.0032 -193.211 -57.2206 -192.97Z"></path>
  <path fill="none" stroke="black" stroke-width="9" stroke-miterlimit="4" transform="translate(256 256)" d="M-72.7337 -178.057C-60.4341 -177.856 -50.6036 -169.096 -50.7766 -158.49C-50.9497 -147.883 -61.0607 -139.448 -73.3603 -139.649C-85.6599 -139.85 -95.4904 -148.61 -95.3173 -159.216C-95.1443 -169.823 -85.0332 -178.258 -72.7337 -178.057Z"></path>
  <path fill="none" stroke="black" stroke-width="9" stroke-miterlimit="4" transform="translate(256 256)" d="M-92.7408 -202.391C-86.0597 -202.282 -80.7199 -197.523 -80.8139 -191.762C-80.9079 -186.001 -86.4001 -181.419 -93.0811 -181.528C-99.7622 -181.637 -105.102 -186.396 -105.008 -192.157C-104.914 -197.918 -99.4218 -202.5 -92.7408 -202.391Z"></path>
  <path fill="#6C88D9" transform="matrix(1.79976 0.0293645 -0.0293645 1.79976 225.089 120.847)" d="M0 -29.5C19.0538 -29.5 34.5 -16.1805 34.5 0.249992C34.5 16.6805 19.0538 30 0 30C-19.0538 30 -34.5 16.6805 -34.5 0.249992C-34.5 -16.1805 -19.0538 -29.5 0 -29.5Z"></path>
  <path fill="#6C88D9" transform="matrix(0.775834 0.0126583 -0.0126583 0.775834 198.406 85.9175)" d="M0 -29.5C19.0538 -29.5 34.5 -16.1805 34.5 0.249985C34.5 16.6805 19.0538 30 0 30C-19.0538 30 -34.5 16.6805 -34.5 0.249985C-34.5 -16.1805 -19.0538 -29.5 0 -29.5Z"></path>
  <path fill="#6C88D9" transform="matrix(0.645518 0.0105321 -0.0105321 0.645518 182.956 96.9856)" d="M0 -29.5C19.0538 -29.5 34.5 -16.1805 34.5 0.250015C34.5 16.6805 19.0538 30 0 30C-19.0538 30 -34.5 16.6805 -34.5 0.250015C-34.5 -16.1805 -19.0538 -29.5 0 -29.5Z"></path>
  <path fill="#6C88D9" transform="matrix(0.35064 0.00572097 -0.00572097 0.35064 163.09 63.9527)" d="M0 -29.4999C19.0538 -29.4999 34.5 -16.1804 34.5 0.250061C34.5 16.6805 19.0538 30.0001 0 30.0001C-19.0538 30.0001 -34.5 16.6805 -34.5 0.250061C-34.5 -16.1804 -19.0538 -29.4999 0 -29.4999Z"></path>
  <path fill="#91A8EB" transform="matrix(1.50913 0.0246226 -0.0246226 1.50913 265.176 281.591)" d="M0.24998 -81.5196C49.8787 -81.2985 84.5 -60 84.5 0C84.5 41.1452 46.78 74.5 0.25 74.5C-62.1254 74.5 -84 60.12 -84 0C-84 -71.2881 -62.1254 -81.5196 0.24998 -81.5196Z"></path>
  <clipPath id="cl_84">
    <path d="M269.269 137.442C336.086 138.532 420.382 176.086 418.62 284.072C417.412 358.123 348.42 420.247 264.677 418.88C152.417 417.049 113.595 387.326 115.36 279.124C117.454 150.823 177.989 135.953 269.269 137.442Z"></path>
  </clipPath>
  <g clip-path="url(#cl_84)">
    <path fill="#A6B8EF" transform="matrix(0.805953 0.0131497 -0.0151654 0.929491 320.834 246.469)" d="M0.249964 -81.5196C49.8787 -81.2985 84.5 -60 84.5 0C84.5 41.1452 67.1354 74.5 20.6054 74.5C-41.77 74.5 -84 60.12 -84 0C-84 -71.2881 -62.1254 -81.5197 0.249964 -81.5196Z"></path>
    <path fill="#C1CBE8" transform="matrix(0.197995 -0.202726 0.445703 0.435301 343.934 197.619)" d="M11.5671 -77.0972C58.0971 -77.0972 97.5959 -41.1452 97.5959 -1.28947e-05C97.5959 41.1452 73.4188 83.0524 26.8888 83.0524C-35.4866 83.0524 11.8086 60.12 11.8086 -1.16163e-05C11.8086 -41.1452 -34.9629 -77.0972 11.5671 -77.0972Z"></path>
    <path fill="#C1CBE8" transform="matrix(0.197995 -0.202726 0.184201 0.179903 388.376 261.976)" d="M48.93 -79.7642C80.6763 -79.0529 77.4946 -42.8889 62.8508 4.00565C48.2069 50.9001 -0.0393895 91.2963 -20.4536 67.777C-40.8678 44.2576 -16.8141 31.8032 -0.458961 -5.13881C15.8962 -42.0808 17.1838 -80.4755 48.93 -79.7642Z"></path>
  </g>
  <path fill="#91A8EB" transform="matrix(1.37947 2.85496e-09 -2.85496e-09 1.37947 210.879 346.868)" d="M56.5051 -2.26703C74.3542 -5.95157 94.1086 -4.91514 97.6919 48.2861C96.8917 73.0935 79.441 92.5968 69.303 89.7866C59.1651 86.9763 50.7591 84.9807 40.7148 82.5531C30.6427 80.0433 33.231 69.6498 34.0312 44.8424C29.6714 -4.53016 38.656 1.4175 56.5051 -2.26703Z"></path>
  <path fill="#91A8EB" transform="matrix(1.79976 0.0293645 -0.0293645 1.79976 225.089 120.847)" d="M0 -22.5C14.6355 -22.5 26.5 -12.3145 26.5 0.249992C26.5 12.8145 14.6355 23 0 23C-14.6355 23 -26.5 12.8145 -26.5 0.249992C-26.5 -12.3145 -14.6355 -22.5 0 -22.5Z"></path>
  <path fill="#91A8EB" transform="matrix(0.606874 0.00990163 -0.00990163 0.606874 198.406 88.1246)" d="M0 -22.5C14.6355 -22.5 26.5 -12.3145 26.5 0.249969C26.5 12.8144 14.6355 23 0 23C-14.6355 23 -26.5 12.8144 -26.5 0.249969C-26.5 -12.3145 -14.6355 -22.5 0 -22.5Z"></path>
  <path fill="#91A8EB" transform="matrix(0.504938 0.00823846 -0.00823846 0.504938 182.956 98.822)" d="M-4.23752e-08 -22.5C14.6355 -22.5 26.5 -12.3145 26.5 0.25C26.5 12.8145 14.6355 23 4.23752e-08 23C-14.6355 23 -26.5 12.8145 -26.5 0.25C-26.5 -12.3145 -14.6355 -22.5 -4.23752e-08 -22.5Z"></path>
  <path fill="#91A8EB" transform="matrix(0.274279 0.00447507 -0.00447507 0.274279 164.087 66.0354)" d="M3.05176e-05 -22.4261C14.2962 -22.4261 25.8855 -12.274 25.8855 0.249268C25.8855 12.7726 14.2962 22.9247 3.05176e-05 22.9247C-14.2961 22.9247 -25.8855 12.7726 -25.8855 0.249268C-25.8855 -12.274 -14.2961 -22.4261 3.05176e-05 -22.4261Z"></path>
  <path fill="#C1CBE8" transform="matrix(0.073816 -0.11483 0.26388 0.16963 160.299 63.3916)" d="M-6.10352e-05 -11.5C14.6355 -11.5 28.006 -7.98328 28.006 -1.63201C28.006 4.71926 15.5058 0.400185 0.870295 0.400186C-13.7652 0.400185 -26.7661 4.37689 -26.7661 -1.97439C-26.7661 -8.32566 -14.6356 -11.5 -6.10352e-05 -11.5Z"></path>
  <path fill="#C1CBE8" transform="matrix(-0.166841 -0.570472 0.880441 -0.257495 182.834 125.153)" d="M-1.52588e-05 -11.5C14.6355 -11.5 28.0061 -7.98328 28.0061 -1.63201C28.0061 4.71927 15.5059 0.400186 0.870341 0.400186C-13.7652 0.400184 -26.766 4.37689 -26.766 -1.97439C-26.766 -8.32566 -14.6356 -11.5 -1.52588e-05 -11.5Z"></path>
  <path fill="#1B2B56" transform="matrix(1.78669 -0.21848 0.065544 0.536007 238.557 99.9083)" d="M-8.43778e-07 -2.49997C1.38071 -2.49997 2.5 -1.38068 2.5 3.05176e-05C2.5 1.38074 1.38071 2.50003 -8.25152e-07 2.50003C-1.38071 2.50003 -2.5 1.38074 -2.5 3.05176e-05C-2.5 -1.38068 -1.38071 -2.49997 -8.43778e-07 -2.49997Z"></path>
  <path fill="none" stroke="#1B2B56" stroke-width="0.5" stroke-linecap="round" stroke-linejoin="round" transform="matrix(1.78289 -0.247598 0.247598 1.78289 247.201 98.7967)" d="M1.98548 0.277981L6.02909 0.184244"></path>
  <path fill="#1B2B56" transform="matrix(1.78669 -0.21848 0.065544 0.536007 267.144 96.4126)" d="M-9.31323e-09 -2.49997C1.38071 -2.49997 2.5 -1.38068 2.5 3.05176e-05C2.5 1.38074 1.38071 2.50003 9.31323e-09 2.50003C-1.38071 2.50003 -2.5 1.38074 -2.5 3.05176e-05C-2.5 -1.38068 -1.38071 -2.49997 -9.31323e-09 -2.49997Z"></path>
  <path fill="#354B89" transform="matrix(1.46507 -0.885005 0.929571 0.72522 258.921 89.4805)" d="M0 -2.5C1.38071 -2.5 2.5 -1.38071 2.5 1.49012e-07C2.5 1.38071 1.38071 2.5 0 2.5C-1.38071 2.5 -2.5 1.38071 -2.5 -1.49012e-07C-2.5 -1.38071 -1.38071 -2.5 0 -2.5Z"></path>
  <path fill="#354B89" transform="matrix(2.16254 0.296937 -0.629837 1.0733 242.949 90.4201)" d="M0 -2.98532C1.68306 -2.98532 3.04744 -1.64874 3.04744 1.5168e-05C3.04744 1.64877 1.68306 2.98535 0 2.98535C-1.68306 2.98535 -3.04744 1.64877 -3.04744 1.53496e-05C-3.04744 -1.64874 -1.68306 -2.98532 0 -2.98532Z"></path>
  <path fill="none" stroke="black" stroke-width="7" stroke-linecap="round" stroke-linejoin="round" transform="matrix(2.15345 4.45679e-09 -4.42021e-09 2.13577 150.353 290.089)" d="M28.9988 -32.7675C31.354 -27.5791 34.5516 -19.4493 37.4917 -5.90544C44.2788 22.1383 48.0148 44.4613 23.7184 51.5049C8.43753 55.8293 -11.1402 35.7725 -17.9309 7.71367C-23.242 -15.5608 -17.2359 -38.3998 -7.35393 -51.0024"></path>
  <path fill="#6C88D9" transform="matrix(2.15345 4.45679e-09 -4.42021e-09 2.13577 150.353 290.089)" d="M10.7235 -60.9362C15.0816 -57.4092 24.6977 -44.2344 25.6093 -40.4159C26.5209 -36.5973 32.3934 -29.3911 37.4917 -5.90544C44.2788 22.1383 48.0148 44.4613 23.7184 51.5049C8.43753 55.8293 -11.1402 35.7725 -17.9309 7.71367C-26.0877 -28.0313 -7.55073 -62.7489 10.7235 -60.9362Z"></path>
  <path fill="#91A8EB" transform="matrix(1.67686 3.47045e-09 -4.32784e-09 2.09114 154.343 284.376)" d="M11.936 -54.5131C33.6412 -58.1275 31.0029 -33.21 38.1519 -5.89072C46.7611 21.777 48.7174 44.9311 34.3377 49.4925C19.9579 54.054 -5.69064 34.421 -15.9069 7.00611C-25.229 -21.599 -9.76918 -50.8988 11.936 -54.5131Z"></path>
  <path fill="none" stroke="white" stroke-width="5" stroke-linecap="round" stroke-linejoin="round" transform="matrix(1.5 0 0 1.5 158.539 362.24)" d=""></path>
</svg>