<?xml version="1.0" encoding="utf-8"?>
<svg xmlns="http://www.w3.org/2000/svg" xmlns:xlink="http://www.w3.org/1999/xlink" width="512" height="512">
  <path fill="none" stroke="black" stroke-width="7" stroke-linejoin="round" transform="matrix(1.8 3.72529e-09 -3.72529e-09 1.8 210.879 409.868)" d="M1.71936 -46.2849C19.9435 -46.0733 32.4865 -38.6711 32.2919 5.61801C32.6057 34.6338 25.2557 44.6505 14.739 44.3795C4.22217 44.1085 -4.41685 44.2083 -14.7501 44.2859C-25.2129 44.1838 -30.5908 33.0428 -30.9043 4.01394C-30.9955 -42.4826 -16.5048 -46.4965 1.71936 -46.2849Z"></path>
  <path fill="none" stroke="black" stroke-width="7" stroke-linejoin="round" transform="matrix(-2.15345 -3.29802e-07 -3.27096e-07 2.13577 356.107 274.756)" d="M19.9793 -56.0568C22.3872 -50.9723 25.3791 -34.8948 24.5567 -31.0558C23.7341 -27.2167 26.2731 -17.594 20.1826 5.9889C13.2546 34.0216 4.32236 55.7469 -20.2465 49.7406C-35.6469 45.8713 -42.1304 20.1063 -35.2025 -7.92636C-26.5168 -43.0713 4.29637 -65.6871 19.9793 -56.0568Z"></path>
  <path fill="none" stroke="black" stroke-width="7" stroke-linejoin="round" transform="matrix(1.79976 0.0293645 -0.0293645 1.79976 266.402 275.922)" d="M0.209625 -80.0966C37.3348 -80.0966 84.5 -60 84.5 0C84.5 41.1452 46.7396 76.2788 0.209625 76.2788C-62.1658 76.2788 -84 60.12 -84 0C-84 -71.2881 -50.5087 -80.0966 0.209625 -80.0966Z"></path>
  <path fill="none" stroke="black" stroke-width="7" stroke-linejoin="round" transform="matrix(1.53671 3.18039e-09 -3.72529e-09 1.8 308.979 398.168)" d="M-1.73219 -47.8186C16.4913 -48.0412 31.9783 -41.3207 32.6181 8.25089C33.2337 22.0964 27.3549 45.8743 13.6767 45.8573C-0.0014801 45.8403 -6.13708 45.8327 -18.3391 45.8176C-30.5411 45.8024 -32.7596 22.9022 -33.3751 9.05669C-34.3625 -42.7017 -19.9557 -47.5961 -1.73219 -47.8186Z"></path>
  <path fill="#6C88D9" transform="matrix(-2.15345 -3.29802e-07 -3.27096e-07 2.13577 356.107 274.756)" d="M19.9793 -56.0568C22.3872 -50.9723 25.3791 -34.8948 24.5567 -31.0558C23.7341 -27.2167 26.2731 -17.594 20.1826 5.9889C13.2546 34.0216 4.32236 55.7469 -20.2465 49.7406C-35.6469 45.8713 -42.1304 20.1063 -35.2025 -7.92636C-26.5168 -43.0713 4.29637 -65.6871 19.9793 -56.0568Z"></path>
  <path fill="#5170C8" transform="matrix(1.53671 3.18039e-09 -3.72529e-09 1.8 308.979 398.168)" d="M-1.73219 -47.8186C16.4913 -48.0412 31.9783 -41.3207 32.6181 8.25089C33.2337 22.0964 27.3549 45.8743 13.6767 45.8573C-0.0014801 45.8403 -6.13708 45.8327 -18.3391 45.8176C-30.5411 45.8024 -32.7596 22.9022 -33.3751 9.05669C-34.3625 -42.7017 -19.9557 -47.5961 -1.73219 -47.8186Z"></path>
  <path fill="#839BE0" transform="matrix(1.20328 2.49031e-09 -2.91698e-09 1.40944 308.979 398.168)" d="M-1.99936 -48.3634C16.2242 -48.5859 31.1609 -41.7752 32.0029 12.2869C31.7964 30.221 23.0658 45.3888 9.38756 45.3718C-4.29062 45.3548 -4.11583 45.4056 -16.3179 45.3904C-28.5199 45.3753 -34.1968 31.0268 -33.9903 13.0927C-35.18 -43.1561 -20.2229 -48.1409 -1.99936 -48.3634Z"></path>
  <path fill="#6C88D9" transform="matrix(1.8 3.72529e-09 -3.72529e-09 1.8 210.879 409.868)" d="M1.71936 -46.2849C19.9435 -46.0733 32.4865 -38.6711 32.2919 5.61801C32.6057 34.6338 25.2557 44.6505 14.739 44.3795C4.22217 44.1085 -4.41685 44.2083 -14.7501 44.2859C-25.2129 44.1838 -30.5908 33.0428 -30.9043 4.01394C-30.9955 -42.4826 -16.5048 -46.4965 1.71936 -46.2849Z"></path>
  <path fill="#91A8EB" transform="matrix(-1.67686 -2.56813e-07 -3.2026e-07 2.09114 352.117 269.043)" d="M21.0667 -49.8349C42.5772 -45.5368 28.3928 -22.7817 18.1841 4.6444C7.97545 32.0704 -10.609 52.4244 -25.6142 49.4261C-40.6193 46.4278 -45.3886 21.4817 -36.7292 -6.38493C-28.0697 -34.2516 -0.443771 -54.1331 21.0667 -49.8349Z"></path>
  <path fill="none" stroke="black" stroke-width="7" stroke-miterlimit="4" transform="matrix(1.79976 0.0293645 -0.0293645 1.79976 224.951 113.436)" d="M1.90735e-06 -29.5C19.0538 -29.5 34.5 -16.1805 34.5 0.25C34.5 16.6805 19.0538 30 1.90735e-06 30C-19.0538 30 -34.5 16.6805 -34.5 0.25C-34.5 -16.1805 -19.0538 -29.5 1.90735e-06 -29.5Z"></path>
  <path fill="#6C88D9" transform="matrix(1.79976 0.0293645 -0.0293645 1.79976 266.402 275.922)" d="M0.209625 -80.0966C37.3348 -80.0966 84.5 -60 84.5 0C84.5 41.1452 46.7396 76.2788 0.209625 76.2788C-62.1658 76.2788 -84 60.12 -84 0C-84 -71.2881 -50.5087 -80.0966 0.209625 -80.0966Z"></path>
  <path fill="none" stroke="black" stroke-width="9" stroke-miterlimit="4" transform="translate(256 256)" d="M-57.3589 -200.381C-42.5763 -200.14 -30.7612 -189.611 -30.9692 -176.864C-31.1772 -164.116 -43.3294 -153.978 -58.112 -154.219C-72.8946 -154.461 -84.7097 -164.99 -84.5017 -177.737C-84.2937 -190.484 -72.1414 -200.623 -57.3589 -200.381Z"></path>
  <path fill="none" stroke="black" stroke-width="9" stroke-miterlimit="4" transform="translate(256 256)" d="M-72.8719 -185.469C-60.5723 -185.268 -50.7418 -176.508 -50.9148 -165.901C-51.0879 -155.295 -61.199 -146.86 -73.4985 -147.061C-85.7981 -147.261 -95.6286 -156.022 -95.4556 -166.628C-95.2825 -177.234 -85.1715 -185.67 -72.8719 -185.469Z"></path>
  <path fill="none" stroke="black" stroke-width="9" stroke-miterlimit="4" transform="translate(256 256)" d="M-92.879 -209.803C-86.1979 -209.694 -80.8581 -204.935 -80.9521 -199.174C-81.0461 -193.413 -86.5383 -188.831 -93.2194 -188.94C-99.9004 -189.049 -105.24 -193.808 -105.146 -199.569C-105.052 -205.33 -99.56 -209.912 -92.879 -209.803Z"></path>
  <path fill="#6C88D9" transform="matrix(1.79976 0.0293645 -0.0293645 1.79976 224.951 113.436)" d="M1.90735e-06 -29.5C19.0538 -29.5 34.5 -16.1805 34.5 0.25C34.5 16.6805 19.0538 30 1.90735e-06 30C-19.0538 30 -34.5 16.6805 -34.5 0.25C-34.5 -16.1805 -19.0538 -29.5 1.90735e-06 -29.5Z"></path>
  <path fill="#6C88D9" transform="matrix(0.775834 0.0126583 -0.0126583 0.775834 198.268 78.5056)" d="M0 -29.5C19.0538 -29.5 34.5 -16.1805 34.5 0.25C34.5 16.6805 19.0538 30 0 30C-19.0538 30 -34.5 16.6805 -34.5 0.25C-34.5 -16.1805 -19.0538 -29.5 0 -29.5Z"></path>
  <path fill="#6C88D9" transform="matrix(0.645518 0.0105321 -0.0105321 0.645518 182.817 89.5738)" d="M7.62939e-06 -29.5C19.0538 -29.5 34.5 -16.1804 34.5 0.250031C34.5 16.6805 19.0538 30 7.62939e-06 30C-19.0538 30 -34.5 16.6805 -34.5 0.250031C-34.5 -16.1804 -19.0538 -29.5 7.62939e-06 -29.5Z"></path>
  <path fill="#6C88D9" transform="matrix(0.35064 0.00572097 -0.00572097 0.35064 162.952 56.5409)" d="M3.05176e-05 -29.5C19.0539 -29.5 34.5 -16.1805 34.5 0.25C34.5 16.6805 19.0539 30 3.05176e-05 30C-19.0538 30 -34.5 16.6805 -34.5 0.25C-34.5 -16.1805 -19.0538 -29.5 3.05176e-05 -29.5Z"></path>
  <path fill="#91A8EB" transform="matrix(1.50913 0.0246226 -0.0246226 1.50913 265.037 275.922)" d="M0.24998 -81.5196C49.8787 -81.2985 84.5 -60 84.5 -9.53674e-07C84.5 41.1452 46.78 74.5 0.25 74.5C-62.1254 74.5 -84 60.12 -84 -9.53674e-07C-84 -71.2881 -62.1254 -81.5196 0.24998 -81.5196Z"></path>
  <clipPath id="cl_156">
    <path d="M269.131 131.773C335.948 132.863 420.243 170.417 418.482 278.403C417.273 352.454 348.282 414.578 264.539 413.211C152.278 411.38 113.457 381.657 115.222 273.455C117.315 145.154 177.85 130.284 269.131 131.773Z"></path>
  </clipPath>
  <g clip-path="url(#cl_156)">
    <path fill="#A6B8EF" transform="matrix(0.805953 0.0131497 -0.0151654 0.929491 320.696 240.8)" d="M0.249972 -81.5196C49.8787 -81.2985 84.5 -60 84.5 0C84.5 41.1452 67.1354 74.5 20.6054 74.5C-41.77 74.5 -84 60.12 -84 0C-84 -71.2881 -62.1254 -81.5197 0.249972 -81.5196Z"></path>
    <path fill="#C1CBE8" transform="matrix(0.197995 -0.202726 0.445703 0.435301 343.796 191.951)" d="M11.5671 -77.0972C58.097 -77.0972 97.5959 -41.1452 97.5959 -2.81534e-05C97.5959 41.1452 73.4187 83.0524 26.8888 83.0524C-35.4867 83.0524 11.8086 60.12 11.8086 -2.68751e-05C11.8086 -41.1452 -34.9629 -77.0972 11.5671 -77.0972Z"></path>
    <path fill="#C1CBE8" transform="matrix(0.197995 -0.202726 0.184201 0.179903 388.238 256.307)" d="M48.93 -79.7642C80.6762 -79.0529 77.4946 -42.8889 62.8507 4.00565C48.2069 50.9001 -0.03942 91.2963 -20.4536 67.777C-40.8678 44.2576 -16.8141 31.8032 -0.458991 -5.13881C15.8961 -42.0808 17.1838 -80.4755 48.93 -79.7642Z"></path>
  </g>
  <path fill="#91A8EB" transform="matrix(1.37947 2.85496e-09 -2.85496e-09 1.37947 210.879 346.868)" d="M2.08121 -0.746429C20.3054 -0.534843 33.9176 -1.1684 33.7683 50.3251C33.2986 75.8087 25.6478 90.3103 15.131 90.0393C4.61422 89.7682 -4.02483 89.8681 -14.358 89.9457C-24.7381 89.9502 -32.1173 73.1759 -31.6476 47.6923C-31.7838 -6.00875 -16.1429 -0.958008 2.08121 -0.746429Z"></path>
  <path fill="#91A8EB" transform="matrix(1.79976 0.0293645 -0.0293645 1.79976 224.951 113.436)" d="M1.90735e-06 -22.5C14.6355 -22.5 26.5 -12.3145 26.5 0.25C26.5 12.8145 14.6355 23 1.90735e-06 23C-14.6355 23 -26.5 12.8145 -26.5 0.25C-26.5 -12.3145 -14.6355 -22.5 1.90735e-06 -22.5Z"></path>
  <path fill="#91A8EB" transform="matrix(0.606874 0.00990163 -0.00990163 0.606874 198.268 80.7128)" d="M7.62939e-06 -22.5C14.6356 -22.5 26.5 -12.3145 26.5 0.25C26.5 12.8145 14.6356 23 7.62939e-06 23C-14.6355 23 -26.5 12.8145 -26.5 0.25C-26.5 -12.3145 -14.6355 -22.5 7.62939e-06 -22.5Z"></path>
  <path fill="#91A8EB" transform="matrix(0.504938 0.00823846 -0.00823846 0.504938 182.817 91.4102)" d="M-4.23752e-08 -22.5C14.6355 -22.5 26.5 -12.3144 26.5 0.25003C26.5 12.8145 14.6355 23 4.23752e-08 23C-14.6355 23 -26.5 12.8145 -26.5 0.250031C-26.5 -12.3144 -14.6355 -22.5 -4.23752e-08 -22.5Z"></path>
  <path fill="#91A8EB" transform="matrix(0.274279 0.00447507 -0.00447507 0.274279 163.948 58.6236)" d="M0 -22.4261C14.2962 -22.4261 25.8855 -12.274 25.8855 0.249329C25.8855 12.7726 14.2962 22.9247 0 22.9247C-14.2962 22.9247 -25.8855 12.7726 -25.8855 0.249329C-25.8855 -12.274 -14.2962 -22.4261 0 -22.4261Z"></path>
  <path fill="#C1CBE8" transform="matrix(0.073816 -0.11483 0.26388 0.16963 160.201 56.0059)" d="M-6.10352e-05 -11.5C14.6355 -11.5 28.006 -7.98328 28.006 -1.63201C28.006 4.71926 15.5058 0.400185 0.870295 0.400186C-13.7652 0.400185 -26.7661 4.37689 -26.7661 -1.97439C-26.7661 -8.32566 -14.6356 -11.5 -6.10352e-05 -11.5Z"></path>
  <path fill="#C1CBE8" transform="matrix(-0.166841 -0.570472 0.880441 -0.257495 182.737 117.768)" d="M0 -11.5C14.6355 -11.5 28.0061 -7.98329 28.0061 -1.63201C28.0061 4.71926 15.5059 0.400182 0.870357 0.400182C-13.7652 0.400181 -26.766 4.37688 -26.766 -1.97439C-26.766 -8.32566 -14.6355 -11.5 0 -11.5Z"></path>
  <path fill="#1B2B56" transform="matrix(1.78669 -0.21848 0.065544 0.536007 236.375 91.1899)" d="M7.05943e-07 -2.50003C1.38071 -2.50003 2.5 -1.38074 2.5 -3.05176e-05C2.5 1.38068 1.38071 2.49997 7.24569e-07 2.49997C-1.38071 2.49997 -2.5 1.38068 -2.5 -3.05176e-05C-2.5 -1.38074 -1.38071 -2.50003 7.05943e-07 -2.50003Z"></path>
  <path fill="none" stroke="#1B2B56" stroke-width="0.5" stroke-linecap="round" stroke-linejoin="round" transform="matrix(1.78289 -0.247598 0.247598 1.78289 245.019 90.0783)" d="M1.98548 0.277981L6.02909 0.184244"></path>
  <path fill="#1B2B56" transform="matrix(1.78669 -0.21848 0.065544 0.536007 264.963 87.6941)" d="M-1.91666e-06 -2.49997C1.38071 -2.49997 2.5 -1.38068 2.5 3.05176e-05C2.5 1.38074 1.38071 2.50003 -1.89804e-06 2.50003C-1.38071 2.50003 -2.5 1.38074 -2.5 3.05176e-05C-2.5 -1.38068 -1.38071 -2.49997 -1.91666e-06 -2.49997Z"></path>
  <path fill="#354B89" transform="matrix(1.46507 -0.885005 0.929571 0.72522 256.74 80.7621)" d="M0 -2.5C1.38071 -2.5 2.5 -1.38071 2.5 1.49012e-07C2.5 1.38071 1.38071 2.5 0 2.5C-1.38071 2.5 -2.5 1.38071 -2.5 -1.49012e-07C-2.5 -1.38071 -1.38071 -2.5 0 -2.5Z"></path>
  <path fill="#354B89" transform="matrix(2.16254 0.296937 -0.629837 1.0733 240.768 81.7016)" d="M0 -2.98532C1.68306 -2.98532 3.04744 -1.64874 3.04744 1.5168e-05C3.04744 1.64877 1.68306 2.98535 0 2.98535C-1.68306 2.98535 -3.04744 1.64877 -3.04744 1.53496e-05C-3.04744 -1.64874 -1.68306 -2.98532 0 -2.98532Z"></path>
  <path fill="none" stroke="black" stroke-width="7" stroke-linecap="round" stroke-linejoin="round" transform="matrix(2.15345 4.45679e-09 -4.42021e-09 2.13577 150.215 284.42)" d="M22.3174 -24.0124C22.1647 -17.7634 21.2829 -8.01675 16.2693 6.46824C6.38176 33.5111 -9.05971 54.0357 -32.1267 43.6046C-46.5668 36.9635 -47.0235 13.6626 -37.1475 -13.3485C-30.0521 -34.7107 -15.3183 -50.864 -1.61548 -57.0055"></path>
  <path fill="#6C88D9" transform="matrix(2.15345 4.45679e-09 -4.42021e-09 2.13577 150.215 284.42)" d="M18.8453 -57.1057C21.0826 -51.9426 23.5377 -35.773 22.5878 -31.9639C21.638 -28.1548 24.4382 -17.133 16.2693 6.46824C6.38176 33.5111 -9.05971 54.0357 -32.1267 43.6046C-46.5668 36.9635 -47.0235 13.6626 -37.1475 -13.3485C-26.0949 -46.6246 3.49174 -67.2613 18.8453 -57.1057Z"></path>
  <path fill="#91A8EB" transform="matrix(1.67686 3.47045e-09 -4.32784e-09 2.09114 154.205 278.707)" d="M19.4155 -50.9684C40.734 -46.0938 26.0013 -23.348 14.129 3.81797C1.99081 30.7254 -19.4987 50.0005 -34.1537 46.0423C-48.8087 42.0842 -50.5193 17.7185 -39.8961 -9.69952C-29.7036 -36.9564 -1.90296 -55.8431 19.4155 -50.9684Z"></path>
  <path fill="none" stroke="white" stroke-width="5" stroke-linecap="round" stroke-linejoin="round" transform="matrix(1.5 0 0 1.5 158.539 362.24)" d=""></path>
</svg>