<?xml version="1.0" encoding="utf-8"?>
<svg xmlns="http://www.w3.org/2000/svg" xmlns:xlink="http://www.w3.org/1999/xlink" width="512" height="512">
  <path fill="none" stroke="black" stroke-width="7" stroke-linejoin="round" transform="matrix(1.8 3.72529e-09 -3.72529e-09 1.8 210.879 409.868)" d="M12.5142 -45.8633C28.834 -53.9768 54.5416 -44.0107 61.2444 1.28122C54.7004 32.7696 33.9841 46.7123 24.9268 41.3605C15.8696 36.0087 8.27259 31.8942 -0.793823 26.9363C-9.88612 21.7583 -0.513477 18.3752 5.52077 -1.22491C-2.3387 -36.2884 -3.80561 -37.7498 12.5142 -45.8633Z"></path>
  <path fill="none" stroke="black" stroke-width="7" stroke-linejoin="round" transform="matrix(-2.15345 -3.29802e-07 -3.27096e-07 2.13577 356.545 292.705)" d="M19.5488 -56.9067C22.2705 -51.9857 26.2638 -36.131 25.6835 -32.2472C25.1032 -28.3634 28.2401 -18.9217 23.6394 5.00208C18.4817 33.4201 10.9285 55.6709 -13.9676 51.2417C-29.5797 48.3611 -37.6646 23.0606 -32.507 -5.35743C-26.0408 -40.9854 3.29379 -65.5188 19.5488 -56.9067Z"></path>
  <path fill="none" stroke="black" stroke-width="7" stroke-linejoin="round" transform="matrix(1.79976 0.0293645 -0.0293645 1.79976 266.84 293.87)" d="M0.209625 -80.0966C37.3348 -80.0966 84.5 -60 84.5 0C84.5 41.1452 46.7396 76.2788 0.209625 76.2788C-62.1658 76.2788 -84 60.12 -84 0C-84 -71.2881 -50.5087 -80.0966 0.209625 -80.0966Z"></path>
  <path fill="none" stroke="black" stroke-width="7" stroke-linejoin="round" transform="matrix(1.53671 3.18039e-09 -3.72529e-09 1.8 308.979 398.168)" d="M-17.7257 -47.4798C0.498768 -47.6376 15.9529 -40.8623 16.3514 8.71116C16.8996 22.5587 10.9051 46.3156 -2.77289 46.2501C-16.4509 46.1846 -22.5864 46.1552 -34.7883 46.0967C-46.9901 46.0383 -49.097 23.1303 -49.6452 9.28279C-50.3806 -42.4786 -35.9502 -47.3219 -17.7257 -47.4798Z"></path>
  <path fill="#6C88D9" transform="matrix(-2.15345 -3.29802e-07 -3.27096e-07 2.13577 356.545 292.705)" d="M19.5488 -56.9067C22.2705 -51.9857 26.2638 -36.131 25.6835 -32.2472C25.1032 -28.3634 28.2401 -18.9217 23.6394 5.00208C18.4817 33.4201 10.9285 55.6709 -13.9676 51.2417C-29.5797 48.3611 -37.6646 23.0606 -32.507 -5.35743C-26.0408 -40.9854 3.29379 -65.5188 19.5488 -56.9067Z"></path>
  <path fill="#5170C8" transform="matrix(1.53671 3.18039e-09 -3.72529e-09 1.8 308.979 398.168)" d="M-17.7257 -47.4798C0.498768 -47.6376 15.9529 -40.8623 16.3514 8.71116C16.8996 22.5587 10.9051 46.3156 -2.77289 46.2501C-16.4509 46.1846 -22.5864 46.1552 -34.7883 46.0967C-46.9901 46.0383 -49.097 23.1303 -49.6452 9.28279C-50.3806 -42.4786 -35.9502 -47.3219 -17.7257 -47.4798Z"></path>
  <path fill="#839BE0" transform="matrix(1.20328 2.49031e-09 -2.91698e-09 1.40944 308.979 398.168)" d="M-22.4866 -47.93C-4.26212 -48.0879 10.6413 -41.2242 11.2202 12.8405C10.9264 30.7736 2.12198 45.9104 -11.556 45.8449C-25.234 45.7794 -25.0595 45.8307 -37.2613 45.7723C-49.4632 45.7138 -55.0702 31.3452 -54.7763 13.4121C-55.6923 -42.8405 -40.7111 -47.7722 -22.4866 -47.93Z"></path>
  <path fill="#6C88D9" transform="matrix(1.8 3.72529e-09 -3.72529e-09 1.8 210.879 409.868)" d="M12.5142 -45.8633C28.834 -53.9768 54.5416 -44.0107 61.2444 1.28122C54.7004 32.7696 33.9841 46.7123 24.9268 41.3605C15.8696 36.0087 8.27259 31.8942 -0.793823 26.9363C-9.88612 21.7583 -0.513477 18.3752 5.52077 -1.22491C-2.3387 -36.2884 -3.80561 -37.7498 12.5142 -45.8633Z"></path>
  <path fill="#91A8EB" transform="matrix(-1.67686 -2.56813e-07 -3.2026e-07 2.09114 352.555 286.991)" d="M20.8875 -50.6003C42.6936 -47.4005 30.3303 -23.9723 22.3028 3.9162C14.2753 31.8046 -2.66856 53.0595 -17.88 50.8273C-33.0914 48.5952 -39.8165 23.9405 -33.3698 -4.30918C-26.9231 -32.5589 -0.918655 -53.8002 20.8875 -50.6003Z"></path>
  <path fill="none" stroke="black" stroke-width="7" stroke-miterlimit="4" transform="matrix(1.79976 0.0293645 -0.0293645 1.79976 225.388 136.694)" d="M0 -29.5C19.0538 -29.5 34.5 -16.1805 34.5 0.250008C34.5 16.6805 19.0538 30 0 30C-19.0538 30 -34.5 16.6805 -34.5 0.250008C-34.5 -16.1805 -19.0538 -29.5 0 -29.5Z"></path>
  <path fill="#6C88D9" transform="matrix(1.79976 0.0293645 -0.0293645 1.79976 266.84 293.87)" d="M0.209625 -80.0966C37.3348 -80.0966 84.5 -60 84.5 0C84.5 41.1452 46.7396 76.2788 0.209625 76.2788C-62.1658 76.2788 -84 60.12 -84 0C-84 -71.2881 -50.5087 -80.0966 0.209625 -80.0966Z"></path>
  <path fill="none" stroke="black" stroke-width="9" stroke-miterlimit="4" transform="translate(256 256)" d="M-56.9212 -177.123C-42.1386 -176.882 -30.3236 -166.353 -30.5316 -153.606C-30.7395 -140.858 -42.8918 -130.72 -57.6744 -130.961C-72.457 -131.202 -84.272 -141.732 -84.0641 -154.479C-83.8561 -167.226 -71.7038 -177.365 -56.9212 -177.123Z"></path>
  <path fill="none" stroke="black" stroke-width="9" stroke-miterlimit="4" transform="translate(256 256)" d="M-72.4342 -162.211C-60.1347 -162.01 -50.3042 -153.25 -50.4772 -142.643C-50.6503 -132.037 -60.7613 -123.602 -73.0609 -123.803C-85.3605 -124.003 -95.191 -132.764 -95.0179 -143.37C-94.8449 -153.976 -84.7338 -162.412 -72.4342 -162.211Z"></path>
  <path fill="none" stroke="black" stroke-width="9" stroke-miterlimit="4" transform="translate(256 256)" d="M-92.4413 -186.545C-85.7603 -186.436 -80.4204 -181.677 -80.5145 -175.916C-80.6085 -170.155 -86.1007 -165.573 -92.7817 -165.682C-99.4628 -165.791 -104.803 -170.55 -104.709 -176.311C-104.615 -182.072 -99.1224 -186.654 -92.4413 -186.545Z"></path>
  <path fill="#6C88D9" transform="matrix(1.79976 0.0293645 -0.0293645 1.79976 225.388 136.694)" d="M0 -29.5C19.0538 -29.5 34.5 -16.1805 34.5 0.250008C34.5 16.6805 19.0538 30 0 30C-19.0538 30 -34.5 16.6805 -34.5 0.250008C-34.5 -16.1805 -19.0538 -29.5 0 -29.5Z"></path>
  <path fill="#6C88D9" transform="matrix(0.775834 0.0126583 -0.0126583 0.775834 198.705 101.764)" d="M0 -29.5C19.0538 -29.5 34.5 -16.1805 34.5 0.249985C34.5 16.6805 19.0538 30 0 30C-19.0538 30 -34.5 16.6805 -34.5 0.249985C-34.5 -16.1805 -19.0538 -29.5 0 -29.5Z"></path>
  <path fill="#6C88D9" transform="matrix(0.645518 0.0105321 -0.0105321 0.645518 183.255 112.832)" d="M7.62939e-06 -29.5C19.0538 -29.5 34.5 -16.1805 34.5 0.25C34.5 16.6805 19.0538 30 7.62939e-06 30C-19.0538 30 -34.5 16.6805 -34.5 0.25C-34.5 -16.1805 -19.0538 -29.5 7.62939e-06 -29.5Z"></path>
  <path fill="#6C88D9" transform="matrix(0.35064 0.00572097 -0.00572097 0.35064 163.39 79.799)" d="M0 -29.5C19.0538 -29.5 34.5 -16.1805 34.5 0.25C34.5 16.6805 19.0538 30 0 30C-19.0538 30 -34.5 16.6805 -34.5 0.25C-34.5 -16.1805 -19.0538 -29.5 0 -29.5Z"></path>
  <path fill="#91A8EB" transform="matrix(1.50913 0.0246226 -0.0246226 1.50913 265.475 293.87)" d="M0.249979 -81.5196C49.8787 -81.2985 84.5 -60 84.5 -1.90735e-06C84.5 41.1452 46.78 74.5 0.25 74.5C-62.1254 74.5 -84 60.12 -84 -1.90735e-06C-84 -71.2881 -62.1254 -81.5196 0.249979 -81.5196Z"></path>
  <clipPath id="cl_4b">
    <path d="M269.569 149.722C336.385 150.812 420.681 188.366 418.919 296.351C417.711 370.403 348.72 432.526 264.977 431.16C152.716 429.328 113.894 399.605 115.66 291.404C117.753 163.102 178.288 148.232 269.569 149.722Z"></path>
  </clipPath>
  <g clip-path="url(#cl_4b)">
    <path fill="#A6B8EF" transform="matrix(0.805953 0.0131497 -0.0151654 0.929491 321.133 258.748)" d="M0.249972 -81.5196C49.8787 -81.2985 84.5 -60 84.5 1.19209e-07C84.5 41.1452 67.1354 74.5 20.6054 74.5C-41.77 74.5 -84 60.12 -84 1.19209e-07C-84 -71.2881 -62.1254 -81.5197 0.249972 -81.5196Z"></path>
    <path fill="#C1CBE8" transform="matrix(0.197995 -0.202726 0.445703 0.435301 344.234 209.899)" d="M11.5671 -77.0972C58.0971 -77.0972 97.5959 -41.1452 97.5959 -2.43388e-05C97.5959 41.1452 73.4188 83.0524 26.8888 83.0524C-35.4866 83.0524 11.8087 60.12 11.8087 -2.30604e-05C11.8087 -41.1452 -34.9629 -77.0972 11.5671 -77.0972Z"></path>
    <path fill="#C1CBE8" transform="matrix(0.197995 -0.202726 0.184201 0.179903 388.676 274.255)" d="M48.93 -79.7643C80.6763 -79.053 77.4946 -42.8889 62.8508 4.00562C48.2069 50.9001 -0.0393895 91.2963 -20.4536 67.777C-40.8678 44.2576 -16.8141 31.8032 -0.458961 -5.13884C15.8962 -42.0808 17.1838 -80.4756 48.93 -79.7643Z"></path>
  </g>
  <path fill="#91A8EB" transform="matrix(1.37947 2.85496e-09 -2.85496e-09 1.37947 210.879 346.868)" d="M22.5526 -1.65701C38.8724 -9.7705 64.2994 -7.06932 72.5903 44.7161C71.8301 67.1929 44.5846 91.1664 35.5273 85.8145C26.4701 80.4628 18.8731 76.3483 9.80674 71.3903C0.734848 66.3457 14.152 63.9824 14.9123 41.5055C5.27383 0.129807 6.23276 6.45647 22.5526 -1.65701Z"></path>
  <path fill="#91A8EB" transform="matrix(1.79976 0.0293645 -0.0293645 1.79976 225.388 136.694)" d="M0 -22.5C14.6355 -22.5 26.5 -12.3145 26.5 0.250008C26.5 12.8145 14.6355 23 0 23C-14.6355 23 -26.5 12.8145 -26.5 0.250008C-26.5 -12.3145 -14.6355 -22.5 0 -22.5Z"></path>
  <path fill="#91A8EB" transform="matrix(0.606874 0.00990163 -0.00990163 0.606874 198.705 103.971)" d="M0 -22.5C14.6355 -22.5 26.5 -12.3145 26.5 0.250015C26.5 12.8145 14.6355 23 0 23C-14.6355 23 -26.5 12.8145 -26.5 0.250015C-26.5 -12.3145 -14.6355 -22.5 0 -22.5Z"></path>
  <path fill="#91A8EB" transform="matrix(0.504938 0.00823846 -0.00823846 0.504938 183.255 114.668)" d="M1.52164e-05 -22.5C14.6356 -22.5 26.5 -12.3145 26.5 0.25C26.5 12.8145 14.6356 23 1.53012e-05 23C-14.6355 23 -26.5 12.8145 -26.5 0.25C-26.5 -12.3145 -14.6355 -22.5 1.52164e-05 -22.5Z"></path>
  <path fill="#91A8EB" transform="matrix(0.274279 0.00447507 -0.00447507 0.274279 164.386 81.8817)" d="M3.05176e-05 -22.4262C14.2962 -22.4262 25.8855 -12.2741 25.8855 0.249207C25.8855 12.7725 14.2962 22.9246 3.05176e-05 22.9246C-14.2961 22.9246 -25.8855 12.7725 -25.8855 0.249207C-25.8855 -12.2741 -14.2961 -22.4262 3.05176e-05 -22.4262Z"></path>
  <path fill="#C1CBE8" transform="matrix(0.073816 -0.11483 0.26388 0.16963 160.565 79.189)" d="M0 -11.5C14.6355 -11.5 28.0061 -7.98328 28.0061 -1.63201C28.0061 4.71926 15.5059 0.400185 0.870356 0.400186C-13.7652 0.400185 -26.766 4.37689 -26.766 -1.97439C-26.766 -8.32566 -14.6355 -11.5 0 -11.5Z"></path>
  <path fill="#C1CBE8" transform="matrix(-0.166841 -0.570472 0.880441 -0.257495 183.101 140.951)" d="M-1.52588e-05 -11.5C14.6355 -11.5 28.0061 -7.98329 28.0061 -1.63201C28.0061 4.71926 15.5059 0.400182 0.870341 0.400182C-13.7652 0.400181 -26.766 4.37688 -26.766 -1.97439C-26.766 -8.32566 -14.6356 -11.5 -1.52588e-05 -11.5Z"></path>
  <path fill="#1B2B56" transform="matrix(1.78669 -0.21848 0.065544 0.536007 240.485 118.197)" d="M1.69501e-07 -2.50003C1.38071 -2.50003 2.5 -1.38074 2.5 -3.05176e-05C2.5 1.38068 1.38071 2.49997 1.88127e-07 2.49997C-1.38071 2.49997 -2.5 1.38068 -2.5 -3.05176e-05C-2.5 -1.38074 -1.38071 -2.50003 1.69501e-07 -2.50003Z"></path>
  <path fill="none" stroke="#1B2B56" stroke-width="0.5" stroke-linecap="round" stroke-linejoin="round" transform="matrix(1.78289 -0.247598 0.247598 1.78289 249.129 117.086)" d="M1.98548 0.277981L6.02909 0.184244"></path>
  <path fill="#1B2B56" transform="matrix(1.78669 -0.21848 0.065544 0.536007 269.072 114.702)" d="M-9.31323e-09 -2.5C1.38071 -2.5 2.5 -1.38071 2.5 0C2.5 1.38071 1.38071 2.5 9.31323e-09 2.5C-1.38071 2.5 -2.5 1.38071 -2.5 0C-2.5 -1.38071 -1.38071 -2.5 -9.31323e-09 -2.5Z"></path>
  <path fill="#354B89" transform="matrix(1.46507 -0.885005 0.929571 0.72522 260.849 107.77)" d="M-7.62939e-06 -2.5C1.3807 -2.5 2.49999 -1.38071 2.49999 1.49012e-07C2.49999 1.38071 1.3807 2.5 -7.62939e-06 2.5C-1.38072 2.5 -2.50001 1.38071 -2.50001 -1.49012e-07C-2.50001 -1.38071 -1.38072 -2.5 -7.62939e-06 -2.5Z"></path>
  <path fill="#354B89" transform="matrix(2.16254 0.296937 -0.629837 1.0733 244.877 108.709)" d="M-3.8147e-06 -2.98532C1.68305 -2.98532 3.04744 -1.64874 3.04744 1.5168e-05C3.04744 1.64877 1.68305 2.98535 -3.8147e-06 2.98535C-1.68306 2.98535 -3.04744 1.64877 -3.04744 1.53496e-05C-3.04744 -1.64874 -1.68306 -2.98532 -3.8147e-06 -2.98532Z"></path>
  <path fill="none" stroke="black" stroke-width="7" stroke-linecap="round" stroke-linejoin="round" transform="matrix(2.15345 4.45679e-09 -4.42021e-09 2.13577 150.653 302.368)" d="M25.3616 -26.8161C26.2587 -20.7995 27.0517 -11.418 25.1312 3.22397C21.2389 31.8291 12.4192 54.8625 -12.4941 50.5328C-28.1174 47.7147 -35.263 24.0144 -31.3732 -4.57249C-28.6405 -27.3785 -16.774 -46.3936 -4.15096 -55.1009"></path>
  <path fill="#6C88D9" transform="matrix(2.15345 4.45679e-09 -4.42021e-09 2.13577 150.653 302.368)" d="M15.9995 -59.0168C19.1289 -54.3487 24.4534 -38.8967 24.2049 -34.9771C23.9564 -31.0575 28.3464 -21.2885 25.1312 3.22397C21.2389 31.8291 12.4192 54.8625 -12.4941 50.5328C-28.1174 47.7147 -35.263 24.0144 -31.3732 -4.57249C-27.1351 -39.9425 -0.926926 -66.1945 15.9995 -59.0168Z"></path>
  <path fill="#91A8EB" transform="matrix(1.67686 3.47045e-09 -4.32784e-09 2.09114 154.643 296.655)" d="M16.8473 -52.6468C38.9149 -50.9553 28.8756 -26.904 24.0812 1.37902C19.4356 29.7557 5.80409 52.1851 -9.6176 51.2687C-25.0393 50.3523 -35.3454 26.0995 -32.3166 -2.51475C-29.1169 -31.2339 -5.22036 -54.3383 16.8473 -52.6468Z"></path>
  <path fill="none" stroke="white" stroke-width="5" stroke-linecap="round" stroke-linejoin="round" transform="matrix(1.5 0 0 1.5 158.539 362.24)" d=""></path>
</svg>