<?xml version="1.0" encoding="utf-8"?>
<svg xmlns="http://www.w3.org/2000/svg" xmlns:xlink="http://www.w3.org/1999/xlink" width="512" height="512">
  <path fill="none" stroke="black" stroke-width="7" stroke-linejoin="round" transform="matrix(1.8 3.72529e-09 -3.72529e-09 1.8 210.879 409.868)" d="M49.8533 -47.4475C68.0746 -47.0585 80.5449 -39.5346 79.9192 4.7505C79.9506 33.7681 72.5034 43.7127 61.9898 43.3393C51.4762 42.966 42.8365 42.9817 32.5031 42.9587C22.0417 42.7548 16.7726 31.5619 16.7416 2.53143C17.103 -43.9638 31.6321 -47.8365 49.8533 -47.4475Z"></path>
  <path fill="none" stroke="black" stroke-width="7" stroke-linejoin="round" transform="matrix(-2.15345 -3.29802e-07 -3.27096e-07 2.13577 356.127 275.561)" d="M18.5084 -58.5493C21.8361 -54.0227 27.8216 -38.8187 27.7423 -34.8919C27.663 -30.9651 31.98 -22.0094 30.4739 2.31255C28.9897 31.1637 24.342 54.2101 -0.912537 53.0512C-16.7626 52.2223 -28.0124 28.1825 -26.5282 -0.668564C-24.6674 -36.8395 1.2886 -64.9784 18.5084 -58.5493Z"></path>
  <path fill="none" stroke="black" stroke-width="7" stroke-linejoin="round" transform="matrix(1.79976 0.0293645 -0.0293645 1.79976 266.422 276.727)" d="M0.209625 -80.0966C37.3348 -80.0966 84.5 -60 84.5 0C84.5 41.1452 46.7396 76.2788 0.209625 76.2788C-62.1658 76.2788 -84 60.12 -84 0C-84 -71.2881 -50.5087 -80.0966 0.209625 -80.0966Z"></path>
  <path fill="none" stroke="black" stroke-width="7" stroke-linejoin="round" transform="matrix(1.53671 3.18039e-09 -3.72529e-09 1.8 308.979 398.168)" d="M-50.4047 -46.7867C-32.1793 -46.8131 -16.7929 -39.9265 -16.8851 9.64805C-16.474 23.499 -22.7034 47.2119 -36.3803 47.0477C-50.0571 46.8835 -56.1922 46.8099 -68.393 46.6634C-80.5938 46.5169 -82.4739 23.5945 -82.885 9.74354C-83.108 -42.0213 -68.6301 -46.7603 -50.4047 -46.7867Z"></path>
  <path fill="#6C88D9" transform="matrix(-2.15345 -3.29802e-07 -3.27096e-07 2.13577 356.127 275.561)" d="M18.5084 -58.5493C21.8361 -54.0227 27.8216 -38.8187 27.7423 -34.8919C27.663 -30.9651 31.98 -22.0094 30.4739 2.31255C28.9897 31.1637 24.342 54.2101 -0.912537 53.0512C-16.7626 52.2223 -28.0124 28.1825 -26.5282 -0.668564C-24.6674 -36.8395 1.2886 -64.9784 18.5084 -58.5493Z"></path>
  <path fill="#5170C8" transform="matrix(1.53671 3.18039e-09 -3.72529e-09 1.8 308.979 398.168)" d="M-50.4047 -46.7867C-32.1793 -46.8131 -16.7929 -39.9265 -16.8851 9.64805C-16.474 23.499 -22.7034 47.2119 -36.3803 47.0477C-50.0571 46.8835 -56.1922 46.8099 -68.393 46.6634C-80.5938 46.5169 -82.4739 23.5945 -82.885 9.74354C-83.108 -42.0213 -68.6301 -46.7603 -50.4047 -46.7867Z"></path>
  <path fill="#839BE0" transform="matrix(1.20328 2.49031e-09 -2.91698e-09 1.40944 308.979 398.168)" d="M-64.3469 -47.0442C-46.1216 -47.0706 -31.2867 -40.0997 -31.2429 13.9672C-31.7143 31.8976 -40.6682 46.9703 -54.3451 46.8061C-68.0219 46.6419 -67.848 46.6945 -80.0488 46.5481C-92.2496 46.4016 -97.7142 31.9931 -97.2428 14.0627C-97.6019 -42.1945 -82.5723 -47.0179 -64.3469 -47.0442Z"></path>
  <path fill="#6C88D9" transform="matrix(1.8 3.72529e-09 -3.72529e-09 1.8 210.879 409.868)" d="M49.8533 -47.4475C68.0746 -47.0585 80.5449 -39.5346 79.9192 4.7505C79.9506 33.7681 72.5034 43.7127 61.9898 43.3393C51.4762 42.966 42.8365 42.9817 32.5031 42.9587C22.0417 42.7548 16.7726 31.5619 16.7416 2.53143C17.103 -43.9638 31.6321 -47.8365 49.8533 -47.4475Z"></path>
  <path fill="#91A8EB" transform="matrix(-1.67686 -2.56813e-07 -3.2026e-07 2.09114 352.137 269.848)" d="M20.3359 -52.128C42.4744 -51.2072 33.9775 -26.6971 30.4967 1.78822C27.0158 30.2735 13.6274 53.1014 -1.81584 52.4591C-17.2591 51.8167 -27.8885 28.0621 -26.0334 -0.618104C-24.1782 -29.2984 -1.80257 -53.0488 20.3359 -52.128Z"></path>
  <path fill="none" stroke="black" stroke-width="7" stroke-miterlimit="4" transform="matrix(1.79976 0.0293645 -0.0293645 1.79976 224.97 114.571)" d="M-1.90735e-06 -29.5C19.0538 -29.5 34.5 -16.1805 34.5 0.25C34.5 16.6805 19.0538 30 -1.90735e-06 30C-19.0538 30 -34.5 16.6805 -34.5 0.25C-34.5 -16.1805 -19.0538 -29.5 -1.90735e-06 -29.5Z"></path>
  <path fill="#6C88D9" transform="matrix(1.79976 0.0293645 -0.0293645 1.79976 266.422 276.727)" d="M0.209625 -80.0966C37.3348 -80.0966 84.5 -60 84.5 0C84.5 41.1452 46.7396 76.2788 0.209625 76.2788C-62.1658 76.2788 -84 60.12 -84 0C-84 -71.2881 -50.5087 -80.0966 0.209625 -80.0966Z"></path>
  <path fill="none" stroke="black" stroke-width="9" stroke-miterlimit="4" transform="translate(256 256)" d="M-57.3392 -199.246C-42.5566 -199.005 -30.7416 -188.476 -30.9496 -175.728C-31.1575 -162.981 -43.3098 -152.843 -58.0924 -153.084C-72.875 -153.325 -84.69 -163.854 -84.4821 -176.602C-84.2741 -189.349 -72.1218 -199.487 -57.3392 -199.246Z"></path>
  <path fill="none" stroke="black" stroke-width="9" stroke-miterlimit="4" transform="translate(256 256)" d="M-72.8522 -184.334C-60.5527 -184.133 -50.7222 -175.372 -50.8952 -164.766C-51.0683 -154.16 -61.1793 -145.725 -73.4789 -145.925C-85.7785 -146.126 -95.609 -154.887 -95.4359 -165.493C-95.2629 -176.099 -85.1518 -184.534 -72.8522 -184.334Z"></path>
  <path fill="none" stroke="black" stroke-width="9" stroke-miterlimit="4" transform="translate(256 256)" d="M-92.8593 -208.668C-86.1783 -208.559 -80.8384 -203.8 -80.9324 -198.039C-81.0265 -192.278 -86.5187 -187.696 -93.1997 -187.805C-99.8808 -187.914 -105.221 -192.672 -105.127 -198.434C-105.033 -204.195 -99.5404 -208.777 -92.8593 -208.668Z"></path>
  <path fill="#6C88D9" transform="matrix(1.79976 0.0293645 -0.0293645 1.79976 224.97 114.571)" d="M-1.90735e-06 -29.5C19.0538 -29.5 34.5 -16.1805 34.5 0.25C34.5 16.6805 19.0538 30 -1.90735e-06 30C-19.0538 30 -34.5 16.6805 -34.5 0.25C-34.5 -16.1805 -19.0538 -29.5 -1.90735e-06 -29.5Z"></path>
  <path fill="#6C88D9" transform="matrix(0.775834 0.0126583 -0.0126583 0.775834 198.287 79.641)" d="M0 -29.5C19.0538 -29.5 34.5 -16.1805 34.5 0.25C34.5 16.6805 19.0538 30 0 30C-19.0538 30 -34.5 16.6805 -34.5 0.25C-34.5 -16.1805 -19.0538 -29.5 0 -29.5Z"></path>
  <path fill="#6C88D9" transform="matrix(0.645518 0.0105321 -0.0105321 0.645518 182.837 90.7091)" d="M0 -29.5C19.0538 -29.5 34.5 -16.1805 34.5 0.25C34.5 16.6805 19.0538 30 0 30C-19.0538 30 -34.5 16.6805 -34.5 0.25C-34.5 -16.1805 -19.0538 -29.5 0 -29.5Z"></path>
  <path fill="#6C88D9" transform="matrix(0.35064 0.00572097 -0.00572097 0.35064 162.972 57.6762)" d="M3.05176e-05 -29.5001C19.0539 -29.5001 34.5 -16.1805 34.5 0.249939C34.5 16.6804 19.0539 29.9999 3.05176e-05 29.9999C-19.0538 29.9999 -34.5 16.6804 -34.5 0.249939C-34.5 -16.1805 -19.0538 -29.5001 3.05176e-05 -29.5001Z"></path>
  <path fill="#91A8EB" transform="matrix(1.50913 0.0246226 -0.0246226 1.50913 265.057 276.727)" d="M0.249979 -81.5196C49.8787 -81.2985 84.5 -60 84.5 0C84.5 41.1452 46.78 74.5 0.25 74.5C-62.1254 74.5 -84 60.12 -84 0C-84 -71.2881 -62.1254 -81.5196 0.249979 -81.5196Z"></path>
  <clipPath id="cl_9c">
    <path d="M269.151 132.578C335.967 133.668 420.263 171.223 418.501 279.208C417.293 353.26 348.302 415.383 264.559 414.017C152.298 412.185 113.476 382.462 115.242 274.26C117.335 145.959 177.87 131.089 269.151 132.578Z"></path>
  </clipPath>
  <g clip-path="url(#cl_9c)">
    <path fill="#A6B8EF" transform="matrix(0.805953 0.0131497 -0.0151654 0.929491 320.715 241.605)" d="M0.249972 -81.5196C49.8787 -81.2985 84.5 -60 84.5 0C84.5 41.1452 67.1354 74.5 20.6054 74.5C-41.77 74.5 -84 60.12 -84 0C-84 -71.2881 -62.1254 -81.5197 0.249972 -81.5196Z"></path>
    <path fill="#C1CBE8" transform="matrix(0.197995 -0.202726 0.445703 0.435301 343.816 192.756)" d="M11.5671 -77.0972C58.097 -77.0972 97.5959 -41.1452 97.5959 -2.62461e-05C97.5959 41.1452 73.4187 83.0524 26.8888 83.0524C-35.4867 83.0524 11.8086 60.12 11.8086 -2.49678e-05C11.8086 -41.1452 -34.9629 -77.0972 11.5671 -77.0972Z"></path>
    <path fill="#C1CBE8" transform="matrix(0.197995 -0.202726 0.184201 0.179903 388.258 257.112)" d="M48.93 -79.7643C80.6762 -79.053 77.4946 -42.8889 62.8507 4.00562C48.2069 50.9001 -0.03942 91.2963 -20.4536 67.777C-40.8678 44.2576 -16.8141 31.8032 -0.458991 -5.13884C15.8961 -42.0808 17.1838 -80.4756 48.93 -79.7643Z"></path>
  </g>
  <path fill="#91A8EB" transform="matrix(1.37947 2.85496e-09 -2.85496e-09 1.37947 210.879 346.868)" d="M64.7527 -2.26568C82.974 -1.87672 96.5917 -2.37775 95.9411 49.1118C95.2234 74.5897 87.4318 89.0161 76.9182 88.6427C66.4046 88.2694 57.765 88.2851 47.4315 88.2621C37.0519 88.1656 29.8363 71.3204 30.554 45.8425C30.9406 -7.8574 46.5315 -2.65464 64.7527 -2.26568Z"></path>
  <path fill="#91A8EB" transform="matrix(1.79976 0.0293645 -0.0293645 1.79976 224.97 114.571)" d="M-1.90735e-06 -22.5C14.6355 -22.5 26.5 -12.3145 26.5 0.25C26.5 12.8145 14.6355 23 -1.90735e-06 23C-14.6355 23 -26.5 12.8145 -26.5 0.25C-26.5 -12.3145 -14.6355 -22.5 -1.90735e-06 -22.5Z"></path>
  <path fill="#91A8EB" transform="matrix(0.606874 0.00990163 -0.00990163 0.606874 198.287 81.8481)" d="M0 -22.5C14.6355 -22.5 26.5 -12.3144 26.5 0.250031C26.5 12.8145 14.6355 23 0 23C-14.6355 23 -26.5 12.8145 -26.5 0.250031C-26.5 -12.3144 -14.6355 -22.5 0 -22.5Z"></path>
  <path fill="#91A8EB" transform="matrix(0.504938 0.00823846 -0.00823846 0.504938 182.837 92.5455)" d="M1.52164e-05 -22.5C14.6356 -22.5 26.5 -12.3145 26.5 0.249969C26.5 12.8144 14.6356 23 1.53012e-05 23C-14.6355 23 -26.5 12.8144 -26.5 0.24997C-26.5 -12.3145 -14.6355 -22.5 1.52164e-05 -22.5Z"></path>
  <path fill="#91A8EB" transform="matrix(0.274279 0.00447507 -0.00447507 0.274279 163.968 59.7589)" d="M3.05176e-05 -22.4261C14.2962 -22.4261 25.8855 -12.274 25.8855 0.249268C25.8855 12.7726 14.2962 22.9247 3.05176e-05 22.9247C-14.2961 22.9247 -25.8855 12.7726 -25.8855 0.249268C-25.8855 -12.274 -14.2961 -22.4261 3.05176e-05 -22.4261Z"></path>
  <path fill="#C1CBE8" transform="matrix(0.073816 -0.11483 0.26388 0.16963 160.194 57.1356)" d="M-0.00012207 -11.4999C14.6354 -11.4999 28.006 -7.98322 28.006 -1.63195C28.006 4.71933 15.5058 0.400246 0.870234 0.400247C-13.7653 0.400246 -26.7661 4.37695 -26.7661 -1.97432C-26.7661 -8.3256 -14.6357 -11.4999 -0.00012207 -11.4999Z"></path>
  <path fill="#C1CBE8" transform="matrix(-0.166841 -0.570472 0.880441 -0.257495 182.73 118.898)" d="M-3.05176e-05 -11.5C14.6355 -11.5 28.0061 -7.98328 28.0061 -1.632C28.0061 4.71927 15.5059 0.40019 0.870326 0.40019C-13.7652 0.400188 -26.7661 4.37689 -26.7661 -1.97438C-26.7661 -8.32566 -14.6356 -11.5 -3.05176e-05 -11.5Z"></path>
  <path fill="#1B2B56" transform="matrix(1.78669 -0.21848 0.065544 0.536007 237.753 92.6033)" d="M-4.26546e-07 -2.49997C1.38071 -2.49997 2.5 -1.38068 2.5 3.05176e-05C2.5 1.38074 1.38071 2.50003 -4.07919e-07 2.50003C-1.38071 2.50003 -2.5 1.38074 -2.5 3.05176e-05C-2.5 -1.38068 -1.38071 -2.49997 -4.26546e-07 -2.49997Z"></path>
  <path fill="none" stroke="#1B2B56" stroke-width="0.5" stroke-linecap="round" stroke-linejoin="round" transform="matrix(1.78289 -0.247598 0.247598 1.78289 246.396 91.4917)" d="M1.98548 0.277974L6.02909 0.184236"></path>
  <path fill="#1B2B56" transform="matrix(1.78669 -0.21848 0.065544 0.536007 266.34 89.1075)" d="M-9.31323e-09 -2.5C1.38071 -2.5 2.5 -1.38071 2.5 0C2.5 1.38071 1.38071 2.5 9.31323e-09 2.5C-1.38071 2.5 -2.5 1.38071 -2.5 0C-2.5 -1.38071 -1.38071 -2.5 -9.31323e-09 -2.5Z"></path>
  <path fill="#354B89" transform="matrix(1.46507 -0.885005 0.929571 0.72522 258.117 82.1755)" d="M7.62939e-06 -2.5C1.38072 -2.5 2.50001 -1.38071 2.50001 1.49012e-07C2.50001 1.38071 1.38072 2.5 7.62939e-06 2.5C-1.3807 2.5 -2.49999 1.38071 -2.49999 -1.49012e-07C-2.49999 -1.38071 -1.3807 -2.5 7.62939e-06 -2.5Z"></path>
  <path fill="#354B89" transform="matrix(2.16254 0.296937 -0.629837 1.0733 242.145 83.115)" d="M-3.8147e-06 -2.98532C1.68305 -2.98532 3.04744 -1.64874 3.04744 1.5168e-05C3.04744 1.64877 1.68305 2.98535 -3.8147e-06 2.98535C-1.68306 2.98535 -3.04744 1.64877 -3.04744 1.53496e-05C-3.04744 -1.64874 -1.68306 -2.98532 -3.8147e-06 -2.98532Z"></path>
  <path fill="none" stroke="black" stroke-width="7" stroke-linecap="round" stroke-linejoin="round" transform="matrix(2.15345 4.45679e-09 -4.42021e-09 2.13577 150.235 285.225)" d="M29.6153 -34.3686C32.2971 -29.4018 36.0232 -21.6036 39.9782 -8.46113C49.0489 18.9039 55.0707 40.4615 31.5328 49.7616C16.7191 55.5057 -5.03254 37.1268 -14.1095 9.74253C-21.2684 -13.1497 -16.9101 -36.5327 -7.92106 -49.9023"></path>
  <path fill="#6C88D9" transform="matrix(2.15345 4.45679e-09 -4.42021e-09 2.13577 150.235 285.225)" d="M9.37531 -61.1554C13.9762 -57.9574 24.5173 -45.5226 25.7019 -41.7811C26.8866 -38.0395 33.0847 -31.3682 39.9782 -8.46113C49.0489 18.9039 55.0707 40.4615 31.5328 49.7616C16.7191 55.5057 -5.03254 37.1268 -14.1095 9.74253C-25.0878 -25.3634 -8.98134 -61.6232 9.37531 -61.1554Z"></path>
  <path fill="#91A8EB" transform="matrix(1.67686 3.47045e-09 -4.32784e-09 2.09114 154.225 279.512)" d="M10.6559 -54.782C31.9757 -59.6527 31.3327 -34.6736 41.0955 -7.98007C52.5284 18.9935 57.451 41.6509 43.6651 47.2691C29.8793 52.8872 1.61492 35.0703 -11.3919 8.45534C-23.5387 -19.5548 -10.664 -49.9113 10.6559 -54.782Z"></path>
  <path fill="none" stroke="white" stroke-width="5" stroke-linecap="round" stroke-linejoin="round" transform="matrix(1.5 0 0 1.5 158.539 362.24)" d=""></path>
</svg>