<?xml version="1.0" encoding="utf-8"?>
<svg xmlns="http://www.w3.org/2000/svg" xmlns:xlink="http://www.w3.org/1999/xlink" width="512" height="512">
  <path fill="none" stroke="black" stroke-width="7" stroke-linejoin="round" transform="matrix(1.8 3.72529e-09 -3.72529e-09 1.8 210.879 409.868)" d="M52.1695 -47.5036C70.3907 -47.1093 82.8588 -39.5816 82.22 4.70325C82.2429 33.7207 74.7928 43.6633 64.2793 43.2868C53.7658 42.9103 45.1262 42.9236 34.7927 42.8975C24.3314 42.6905 19.0655 31.496 19.0431 2.46552C19.4183 -44.0296 33.9484 -47.898 52.1695 -47.5036Z"></path>
  <path fill="none" stroke="black" stroke-width="7" stroke-linejoin="round" transform="matrix(-2.15345 -3.29802e-07 -3.27096e-07 2.13577 356.085 273.829)" d="M18.4259 -58.6617C21.795 -54.1664 27.92 -39.019 27.8768 -35.0916C27.8335 -31.1643 32.2326 -22.2493 30.9501 2.08572C29.7311 30.9495 25.2954 54.0384 0.0312843 53.1154C-15.8257 52.4346 -27.2959 28.501 -26.0769 -0.362755C-24.5486 -36.5496 1.1477 -64.9297 18.4259 -58.6617Z"></path>
  <path fill="none" stroke="black" stroke-width="7" stroke-linejoin="round" transform="matrix(1.79976 0.0293645 -0.0293645 1.79976 266.379 274.995)" d="M0.209625 -80.0966C37.3348 -80.0966 84.5 -60 84.5 -9.53674e-07C84.5 41.1452 46.7396 76.2788 0.209625 76.2788C-62.1658 76.2788 -84 60.12 -84 -9.53674e-07C-84 -71.2881 -50.5087 -80.0966 0.209625 -80.0966Z"></path>
  <path fill="none" stroke="black" stroke-width="7" stroke-linejoin="round" transform="matrix(1.53671 3.18039e-09 -3.72529e-09 1.8 308.979 398.168)" d="M-52.7488 -46.737C-34.5234 -46.7538 -19.1418 -39.8592 -19.2695 9.71529C-18.8683 23.5665 -25.1148 47.2761 -38.7915 47.1047C-52.4682 46.9334 -58.6032 46.8566 -70.8039 46.7037C-83.0046 46.5509 -84.8683 23.6276 -85.2695 9.77633C-85.4554 -41.9886 -70.9741 -46.7201 -52.7488 -46.737Z"></path>
  <path fill="#6C88D9" transform="matrix(-2.15345 -3.29802e-07 -3.27096e-07 2.13577 356.085 273.829)" d="M18.4259 -58.6617C21.795 -54.1664 27.92 -39.019 27.8768 -35.0916C27.8335 -31.1643 32.2326 -22.2493 30.9501 2.08572C29.7311 30.9495 25.2954 54.0384 0.0312843 53.1154C-15.8257 52.4346 -27.2959 28.501 -26.0769 -0.362755C-24.5486 -36.5496 1.1477 -64.9297 18.4259 -58.6617Z"></path>
  <path fill="#5170C8" transform="matrix(1.53671 3.18039e-09 -3.72529e-09 1.8 308.979 398.168)" d="M-52.7488 -46.737C-34.5234 -46.7538 -19.1418 -39.8592 -19.2695 9.71529C-18.8683 23.5665 -25.1148 47.2761 -38.7915 47.1047C-52.4682 46.9334 -58.6032 46.8566 -70.8039 46.7037C-83.0046 46.5509 -84.8683 23.6276 -85.2695 9.77633C-85.4554 -41.9886 -70.9741 -46.7201 -52.7488 -46.737Z"></path>
  <path fill="#839BE0" transform="matrix(1.20328 2.49031e-09 -2.91698e-09 1.40944 308.979 398.168)" d="M-67.3497 -46.9807C-49.1243 -46.9976 -34.2944 -40.0189 -34.2893 14.048C-34.7735 31.9782 -43.7382 47.0462 -57.415 46.8749C-71.0917 46.7035 -70.9177 46.7563 -83.1184 46.6034C-95.3192 46.4506 -100.773 32.0392 -100.289 14.1091C-100.608 -42.1483 -85.5751 -46.9638 -67.3497 -46.9807Z"></path>
  <path fill="#6C88D9" transform="matrix(1.8 3.72529e-09 -3.72529e-09 1.8 210.879 409.868)" d="M52.1695 -47.5036C70.3907 -47.1093 82.8588 -39.5816 82.22 4.70325C82.2429 33.7207 74.7928 43.6633 64.2793 43.2868C53.7658 42.9103 45.1262 42.9236 34.7927 42.8975C24.3314 42.6905 19.0655 31.496 19.0431 2.46552C19.4183 -44.0296 33.9484 -47.898 52.1695 -47.5036Z"></path>
  <path fill="#91A8EB" transform="matrix(-1.67686 -2.56813e-07 -3.2026e-07 2.09114 352.095 268.116)" d="M20.287 -52.2352C42.4352 -51.4789 34.2218 -26.9068 31.0703 1.60319C27.9187 30.1131 14.7946 53.0395 -0.655392 52.5119C-16.1053 51.9844 -27.0088 28.3098 -25.4851 -0.383025C-23.9614 -29.0758 -1.86114 -52.9915 20.287 -52.2352Z"></path>
  <path fill="none" stroke="black" stroke-width="7" stroke-miterlimit="4" transform="matrix(1.79976 0.0293645 -0.0293645 1.79976 224.928 112.323)" d="M-1.90735e-06 -29.5C19.0538 -29.5 34.5 -16.1805 34.5 0.25C34.5 16.6805 19.0538 30 -1.90735e-06 30C-19.0538 30 -34.5 16.6805 -34.5 0.25C-34.5 -16.1805 -19.0538 -29.5 -1.90735e-06 -29.5Z"></path>
  <path fill="#6C88D9" transform="matrix(1.79976 0.0293645 -0.0293645 1.79976 266.379 274.995)" d="M0.209625 -80.0966C37.3348 -80.0966 84.5 -60 84.5 -9.53674e-07C84.5 41.1452 46.7396 76.2788 0.209625 76.2788C-62.1658 76.2788 -84 60.12 -84 -9.53674e-07C-84 -71.2881 -50.5087 -80.0966 0.209625 -80.0966Z"></path>
  <path fill="none" stroke="black" stroke-width="9" stroke-miterlimit="4" transform="translate(256 256)" d="M-57.3815 -201.494C-42.5989 -201.252 -30.7838 -190.723 -30.9918 -177.976C-31.1998 -165.229 -43.352 -155.09 -58.1346 -155.331C-72.9172 -155.573 -84.7323 -166.102 -84.5243 -178.849C-84.3163 -191.597 -72.164 -201.735 -57.3815 -201.494Z"></path>
  <path fill="none" stroke="black" stroke-width="9" stroke-miterlimit="4" transform="translate(256 256)" d="M-72.8945 -186.581C-60.5949 -186.38 -50.7644 -177.62 -50.9374 -167.014C-51.1105 -156.407 -61.2215 -147.972 -73.5211 -148.173C-85.8207 -148.373 -95.6512 -157.134 -95.4782 -167.74C-95.3051 -178.346 -85.1941 -186.782 -72.8945 -186.581Z"></path>
  <path fill="none" stroke="black" stroke-width="9" stroke-miterlimit="4" transform="translate(256 256)" d="M-92.9016 -210.915C-86.2205 -210.806 -80.8807 -206.047 -80.9747 -200.286C-81.0687 -194.525 -86.5609 -189.943 -93.242 -190.052C-99.923 -190.161 -105.263 -194.92 -105.169 -200.681C-105.075 -206.442 -99.5826 -211.024 -92.9016 -210.915Z"></path>
  <path fill="#6C88D9" transform="matrix(1.79976 0.0293645 -0.0293645 1.79976 224.928 112.323)" d="M-1.90735e-06 -29.5C19.0538 -29.5 34.5 -16.1805 34.5 0.25C34.5 16.6805 19.0538 30 -1.90735e-06 30C-19.0538 30 -34.5 16.6805 -34.5 0.25C-34.5 -16.1805 -19.0538 -29.5 -1.90735e-06 -29.5Z"></path>
  <path fill="#6C88D9" transform="matrix(0.775834 0.0126583 -0.0126583 0.775834 198.245 77.3935)" d="M0 -29.5C19.0538 -29.5 34.5 -16.1805 34.5 0.249985C34.5 16.6805 19.0538 30 0 30C-19.0538 30 -34.5 16.6805 -34.5 0.249985C-34.5 -16.1805 -19.0538 -29.5 0 -29.5Z"></path>
  <path fill="#6C88D9" transform="matrix(0.645518 0.0105321 -0.0105321 0.645518 182.795 88.4617)" d="M7.62939e-06 -29.5C19.0538 -29.5 34.5 -16.1804 34.5 0.250031C34.5 16.6805 19.0538 30 7.62939e-06 30C-19.0538 30 -34.5 16.6805 -34.5 0.250031C-34.5 -16.1804 -19.0538 -29.5 7.62939e-06 -29.5Z"></path>
  <path fill="#6C88D9" transform="matrix(0.35064 0.00572097 -0.00572097 0.35064 162.93 55.4288)" d="M-3.05176e-05 -29.5001C19.0538 -29.5001 34.5 -16.1805 34.5 0.249939C34.5 16.6804 19.0538 29.9999 -3.05176e-05 29.9999C-19.0539 29.9999 -34.5 16.6804 -34.5 0.249939C-34.5 -16.1805 -19.0539 -29.5001 -3.05176e-05 -29.5001Z"></path>
  <path fill="#91A8EB" transform="matrix(1.50913 0.0246226 -0.0246226 1.50913 265.015 274.995)" d="M0.24998 -81.5196C49.8787 -81.2985 84.5 -60 84.5 -9.53674e-07C84.5 41.1452 46.78 74.5 0.25 74.5C-62.1254 74.5 -84 60.12 -84 -9.53674e-07C-84 -71.2881 -62.1254 -81.5196 0.24998 -81.5196Z"></path>
  <clipPath id="cl_ba">
    <path d="M269.109 130.846C335.925 131.936 420.221 169.49 418.459 277.476C417.251 351.527 348.259 413.651 264.517 412.284C152.256 410.453 113.434 380.73 115.199 272.528C117.293 144.227 177.828 129.357 269.109 130.846Z"></path>
  </clipPath>
  <g clip-path="url(#cl_ba)">
    <path fill="#A6B8EF" transform="matrix(0.805953 0.0131497 -0.0151654 0.929491 320.673 239.873)" d="M0.249972 -81.5196C49.8787 -81.2985 84.5 -60 84.5 1.90735e-06C84.5 41.1452 67.1354 74.5 20.6054 74.5C-41.77 74.5 -84 60.12 -84 1.90735e-06C-84 -71.2881 -62.1254 -81.5197 0.249972 -81.5196Z"></path>
    <path fill="#C1CBE8" transform="matrix(0.197995 -0.202726 0.445703 0.435301 343.773 191.023)" d="M11.5671 -77.0972C58.0971 -77.0972 97.5959 -41.1452 97.5959 -2.24314e-05C97.5959 41.1452 73.4188 83.0524 26.8888 83.0524C-35.4866 83.0524 11.8087 60.12 11.8087 -2.11531e-05C11.8087 -41.1452 -34.9629 -77.0972 11.5671 -77.0972Z"></path>
    <path fill="#C1CBE8" transform="matrix(0.197995 -0.202726 0.184201 0.179903 388.215 255.38)" d="M48.93 -79.7643C80.6763 -79.053 77.4946 -42.8889 62.8508 4.00562C48.2069 50.9001 -0.0393895 91.2963 -20.4536 67.777C-40.8678 44.2576 -16.8141 31.8032 -0.458961 -5.13884C15.8962 -42.0808 17.1838 -80.4756 48.93 -79.7643Z"></path>
  </g>
  <path fill="#91A8EB" transform="matrix(1.37947 2.85496e-09 -2.85496e-09 1.37947 210.879 346.868)" d="M67.771 -2.339C85.9921 -1.94468 99.61 -2.44169 98.9442 49.0476C98.219 74.5253 90.4232 88.9495 79.9097 88.573C69.3961 88.1965 60.7565 88.2098 50.4231 88.1837C40.0435 88.0842 32.8329 71.2367 33.5581 45.759C33.9605 -7.94066 49.5498 -2.73336 67.771 -2.339Z"></path>
  <path fill="#91A8EB" transform="matrix(1.79976 0.0293645 -0.0293645 1.79976 224.928 112.323)" d="M-1.90735e-06 -22.5C14.6355 -22.5 26.5 -12.3145 26.5 0.25C26.5 12.8145 14.6355 23 -1.90735e-06 23C-14.6355 23 -26.5 12.8145 -26.5 0.25C-26.5 -12.3145 -14.6355 -22.5 -1.90735e-06 -22.5Z"></path>
  <path fill="#91A8EB" transform="matrix(0.606874 0.00990163 -0.00990163 0.606874 198.245 79.6006)" d="M0 -22.5C14.6355 -22.5 26.5 -12.3145 26.5 0.25C26.5 12.8145 14.6355 23 0 23C-14.6355 23 -26.5 12.8145 -26.5 0.25C-26.5 -12.3145 -14.6355 -22.5 0 -22.5Z"></path>
  <path fill="#91A8EB" transform="matrix(0.504938 0.00823846 -0.00823846 0.504938 182.795 90.298)" d="M1.52164e-05 -22.5C14.6356 -22.5 26.5 -12.3145 26.5 0.25C26.5 12.8145 14.6356 23 1.53012e-05 23C-14.6355 23 -26.5 12.8145 -26.5 0.25C-26.5 -12.3145 -14.6355 -22.5 1.52164e-05 -22.5Z"></path>
  <path fill="#91A8EB" transform="matrix(0.274279 0.00447507 -0.00447507 0.274279 163.926 57.5115)" d="M3.05176e-05 -22.4261C14.2962 -22.4261 25.8855 -12.274 25.8855 0.249329C25.8855 12.7726 14.2962 22.9247 3.05176e-05 22.9247C-14.2961 22.9247 -25.8855 12.7726 -25.8855 0.249329C-25.8855 -12.274 -14.2961 -22.4261 3.05176e-05 -22.4261Z"></path>
  <path fill="#C1CBE8" transform="matrix(0.073816 -0.11483 0.26388 0.16963 160.171 54.905)" d="M-6.10352e-05 -11.5C14.6355 -11.5 28.006 -7.98328 28.006 -1.63201C28.006 4.71926 15.5058 0.400185 0.870295 0.400186C-13.7652 0.400185 -26.7661 4.37689 -26.7661 -1.97439C-26.7661 -8.32566 -14.6356 -11.5 -6.10352e-05 -11.5Z"></path>
  <path fill="#C1CBE8" transform="matrix(-0.166841 -0.570472 0.880441 -0.257495 182.707 116.667)" d="M0 -11.5C14.6355 -11.5 28.0061 -7.98328 28.0061 -1.632C28.0061 4.71927 15.5059 0.40019 0.870357 0.40019C-13.7652 0.400188 -26.766 4.37689 -26.766 -1.97438C-26.766 -8.32566 -14.6355 -11.5 0 -11.5Z"></path>
  <path fill="#1B2B56" transform="matrix(1.78669 -0.21848 0.065544 0.536007 236.727 89.5163)" d="M1.09896e-07 -2.50003C1.38071 -2.50003 2.5 -1.38074 2.5 -3.05176e-05C2.5 1.38068 1.38071 2.49997 1.28523e-07 2.49997C-1.38071 2.49997 -2.5 1.38068 -2.5 -3.05176e-05C-2.5 -1.38074 -1.38071 -2.50003 1.09896e-07 -2.50003Z"></path>
  <path fill="none" stroke="#1B2B56" stroke-width="0.5" stroke-linecap="round" stroke-linejoin="round" transform="matrix(1.78289 -0.247598 0.247598 1.78289 245.371 88.4047)" d="M1.98548 0.277974L6.02909 0.184236"></path>
  <path fill="#1B2B56" transform="matrix(1.78669 -0.21848 0.065544 0.536007 265.314 86.0206)" d="M-9.31323e-09 -2.5C1.38071 -2.5 2.5 -1.38071 2.5 0C2.5 1.38071 1.38071 2.5 9.31323e-09 2.5C-1.38071 2.5 -2.5 1.38071 -2.5 0C-2.5 -1.38071 -1.38071 -2.5 -9.31323e-09 -2.5Z"></path>
  <path fill="#354B89" transform="matrix(1.46507 -0.885005 0.929571 0.72522 257.092 79.0885)" d="M0 -2.5C1.38071 -2.5 2.5 -1.38071 2.5 1.49012e-07C2.5 1.38071 1.38071 2.5 0 2.5C-1.38071 2.5 -2.5 1.38071 -2.5 -1.49012e-07C-2.5 -1.38071 -1.38071 -2.5 0 -2.5Z"></path>
  <path fill="#354B89" transform="matrix(2.16254 0.296937 -0.629837 1.0733 241.119 80.028)" d="M0 -2.98532C1.68306 -2.98532 3.04744 -1.64874 3.04744 1.5168e-05C3.04744 1.64877 1.68306 2.98535 0 2.98535C-1.68306 2.98535 -3.04744 1.64877 -3.04744 1.53496e-05C-3.04744 -1.64874 -1.68306 -2.98532 0 -2.98532Z"></path>
  <path fill="none" stroke="black" stroke-width="7" stroke-linecap="round" stroke-linejoin="round" transform="matrix(2.15345 4.45679e-09 -4.42021e-09 2.13577 150.193 283.493)" d="M29.8158 -34.9701C32.618 -30.0855 36.5368 -22.4086 40.8484 -9.41527C50.7081 17.6668 57.4615 38.9429 34.2284 48.9922C19.6032 55.2078 -2.81515 37.4752 -12.6821 10.3731C-20.4908 -12.3339 -16.7513 -35.8668 -8.10977 -49.4925"></path>
  <path fill="#6C88D9" transform="matrix(2.15345 4.45679e-09 -4.42021e-09 2.13577 150.193 283.493)" d="M8.87656 -61.211C13.5606 -58.1382 24.4277 -45.9921 25.7112 -42.2838C26.9946 -38.5755 33.3234 -32.0927 40.8484 -9.41527C50.7081 17.6668 57.4615 38.9429 34.2284 48.9922C19.6032 55.2078 -2.81515 37.4752 -12.6821 10.3731C-24.6522 -24.4348 -9.48593 -61.1836 8.87656 -61.211Z"></path>
  <path fill="#91A8EB" transform="matrix(1.67686 3.47045e-09 -4.32784e-09 2.09114 154.182 277.78)" d="M10.18 -54.8619C31.3298 -60.188 31.4538 -35.2084 42.1391 -8.76796C54.5477 17.9194 60.4314 40.3786 46.8751 46.345C33.3187 52.3115 4.2546 35.1789 -9.71378 8.88683C-22.8524 -18.8568 -10.9698 -49.5357 10.18 -54.8619Z"></path>
  <path fill="none" stroke="white" stroke-width="5" stroke-linecap="round" stroke-linejoin="round" transform="matrix(1.5 0 0 1.5 158.539 362.24)" d=""></path>
</svg>