<?xml version="1.0" encoding="utf-8"?>
<svg xmlns="http://www.w3.org/2000/svg" xmlns:xlink="http://www.w3.org/1999/xlink" width="512" height="512">
  <path fill="none" stroke="black" stroke-width="7" stroke-linejoin="round" transform="matrix(1.8 3.72529e-09 -3.72529e-09 1.8 210.879 409.868)" d="M17.5361 -46.6671C35.7595 -46.3975 48.2788 -38.9554 47.9434 5.33282C48.1649 34.3494 40.7831 44.3427 30.2673 44.0383C19.7514 43.7338 11.1121 43.8062 0.778671 43.8509C-9.68375 43.7156 -15.0261 32.5574 -15.2474 3.52781C-15.1907 -42.9688 -0.687325 -46.9366 17.5361 -46.6671Z"></path>
  <path fill="none" stroke="black" stroke-width="7" stroke-linejoin="round" transform="matrix(-2.15345 -3.29802e-07 -3.27096e-07 2.13577 356.371 285.575)" d="M19.5489 -56.9067C22.2705 -51.9857 26.2638 -36.131 25.6835 -32.2472C25.1032 -28.3634 28.2401 -18.9217 23.6394 5.00207C18.4817 33.4201 10.9285 55.6709 -13.9676 51.2417C-29.5797 48.3611 -37.6646 23.0606 -32.507 -5.3574C-26.0408 -40.9854 3.29383 -65.5188 19.5489 -56.9067Z"></path>
  <path fill="none" stroke="black" stroke-width="7" stroke-linejoin="round" transform="matrix(1.79976 0.0293645 -0.0293645 1.79976 266.666 286.741)" d="M0.209625 -80.0966C37.3348 -80.0966 84.5 -60 84.5 -1.90735e-06C84.5 41.1452 46.7396 76.2788 0.209625 76.2788C-62.1658 76.2788 -84 60.12 -84 -1.90735e-06C-84 -71.2881 -50.5087 -80.0966 0.209625 -80.0966Z"></path>
  <path fill="none" stroke="black" stroke-width="7" stroke-linejoin="round" transform="matrix(1.53671 3.18039e-09 -3.72529e-09 1.8 308.979 398.168)" d="M-22.3416 -47.2433C-4.82822 -51.55 21.8845 -43.143 27.2703 7.85201C25.0976 24.6706 7.1573 50.7529 -5.77152 46.9407C-18.7003 43.1285 -24.4998 41.4184 -36.0333 38.0176C-47.5667 34.6168 -37.8284 16.9971 -35.7996 6.93828C-41.8846 -39.4981 -39.8549 -42.9366 -22.3416 -47.2433Z"></path>
  <path fill="#6C88D9" transform="matrix(-2.15345 -3.29802e-07 -3.27096e-07 2.13577 356.371 285.575)" d="M19.5489 -56.9067C22.2705 -51.9857 26.2638 -36.131 25.6835 -32.2472C25.1032 -28.3634 28.2401 -18.9217 23.6394 5.00207C18.4817 33.4201 10.9285 55.6709 -13.9676 51.2417C-29.5797 48.3611 -37.6646 23.0606 -32.507 -5.3574C-26.0408 -40.9854 3.29383 -65.5188 19.5489 -56.9067Z"></path>
  <path fill="#5170C8" transform="matrix(1.53671 3.18039e-09 -3.72529e-09 1.8 308.979 398.168)" d="M-22.3416 -47.2433C-4.82822 -51.55 21.8845 -43.143 27.2703 7.85201C25.0976 24.6706 7.1573 50.7529 -5.77152 46.9407C-18.7003 43.1285 -24.4998 41.4184 -36.0333 38.0176C-47.5667 34.6168 -37.8284 16.9971 -35.7996 6.93828C-41.8846 -39.4981 -39.8549 -42.9366 -22.3416 -47.2433Z"></path>
  <path fill="#839BE0" transform="matrix(1.20328 2.49031e-09 -2.91698e-09 1.40944 308.979 398.168)" d="M-24.4127 -48.1238C-6.89937 -52.4305 19.796 -43.8272 25.5438 11.453C21.5722 32.0496 2.9414 49.042 -9.98743 45.2298C-22.9162 41.4176 -22.7702 41.514 -34.3037 38.1132C-45.8372 34.7124 -41.3538 24.376 -37.5261 10.5393C-43.9732 -40.1823 -41.9261 -43.8171 -24.4127 -48.1238Z"></path>
  <path fill="#6C88D9" transform="matrix(1.8 3.72529e-09 -3.72529e-09 1.8 210.879 409.868)" d="M17.5361 -46.6671C35.7595 -46.3975 48.2788 -38.9554 47.9434 5.33282C48.1649 34.3494 40.7831 44.3427 30.2673 44.0383C19.7514 43.7338 11.1121 43.8062 0.778671 43.8509C-9.68375 43.7156 -15.0261 32.5574 -15.2474 3.52781C-15.1907 -42.9688 -0.687325 -46.9366 17.5361 -46.6671Z"></path>
  <path fill="#91A8EB" transform="matrix(-1.67686 -2.56813e-07 -3.2026e-07 2.09114 352.381 279.862)" d="M20.8874 -50.6003C42.6936 -47.4005 30.3303 -23.9723 22.3028 3.91619C14.2753 31.8046 -2.66852 53.0595 -17.8799 50.8273C-33.0913 48.5952 -39.8164 23.9406 -33.3697 -4.30914C-26.923 -32.5589 -0.918686 -53.8002 20.8874 -50.6003Z"></path>
  <path fill="none" stroke="black" stroke-width="7" stroke-miterlimit="4" transform="matrix(1.79976 0.0293645 -0.0293645 1.79976 225.214 126.415)" d="M-1.90735e-06 -29.5C19.0538 -29.5 34.5 -16.1805 34.5 0.25C34.5 16.6805 19.0538 30 -1.90735e-06 30C-19.0538 30 -34.5 16.6805 -34.5 0.25C-34.5 -16.1805 -19.0538 -29.5 -1.90735e-06 -29.5Z"></path>
  <path fill="#6C88D9" transform="matrix(1.79976 0.0293645 -0.0293645 1.79976 266.666 286.741)" d="M0.209625 -80.0966C37.3348 -80.0966 84.5 -60 84.5 -1.90735e-06C84.5 41.1452 46.7396 76.2788 0.209625 76.2788C-62.1658 76.2788 -84 60.12 -84 -1.90735e-06C-84 -71.2881 -50.5087 -80.0966 0.209625 -80.0966Z"></path>
  <path fill="none" stroke="black" stroke-width="9" stroke-miterlimit="4" transform="translate(256 256)" d="M-57.0951 -187.402C-42.3125 -187.161 -30.4974 -176.632 -30.7054 -163.884C-30.9134 -151.137 -43.0656 -140.999 -57.8482 -141.24C-72.6308 -141.481 -84.4459 -152.01 -84.2379 -164.758C-84.0299 -177.505 -71.8777 -187.643 -57.0951 -187.402Z"></path>
  <path fill="none" stroke="black" stroke-width="9" stroke-miterlimit="4" transform="translate(256 256)" d="M-72.6081 -172.49C-60.3085 -172.289 -50.478 -163.528 -50.651 -152.922C-50.8241 -142.316 -60.9352 -133.881 -73.2347 -134.081C-85.5343 -134.282 -95.3648 -143.043 -95.1918 -153.649C-95.0187 -164.255 -84.9077 -172.69 -72.6081 -172.49Z"></path>
  <path fill="none" stroke="black" stroke-width="9" stroke-miterlimit="4" transform="translate(256 256)" d="M-92.6152 -196.824C-85.9341 -196.715 -80.5943 -191.956 -80.6883 -186.195C-80.7823 -180.434 -86.2745 -175.852 -92.9556 -175.961C-99.6366 -176.07 -104.976 -180.828 -104.882 -186.59C-104.788 -192.351 -99.2962 -196.933 -92.6152 -196.824Z"></path>
  <path fill="#6C88D9" transform="matrix(1.79976 0.0293645 -0.0293645 1.79976 225.214 126.415)" d="M-1.90735e-06 -29.5C19.0538 -29.5 34.5 -16.1805 34.5 0.25C34.5 16.6805 19.0538 30 -1.90735e-06 30C-19.0538 30 -34.5 16.6805 -34.5 0.25C-34.5 -16.1805 -19.0538 -29.5 -1.90735e-06 -29.5Z"></path>
  <path fill="#6C88D9" transform="matrix(0.775834 0.0126583 -0.0126583 0.775834 198.532 91.485)" d="M0 -29.5C19.0538 -29.5 34.5 -16.1805 34.5 0.25C34.5 16.6805 19.0538 30 0 30C-19.0538 30 -34.5 16.6805 -34.5 0.25C-34.5 -16.1805 -19.0538 -29.5 0 -29.5Z"></path>
  <path fill="#6C88D9" transform="matrix(0.645518 0.0105321 -0.0105321 0.645518 183.081 102.553)" d="M7.62939e-06 -29.5C19.0538 -29.5 34.5 -16.1805 34.5 0.25C34.5 16.6805 19.0538 30 7.62939e-06 30C-19.0538 30 -34.5 16.6805 -34.5 0.25C-34.5 -16.1805 -19.0538 -29.5 7.62939e-06 -29.5Z"></path>
  <path fill="#6C88D9" transform="matrix(0.35064 0.00572097 -0.00572097 0.35064 163.216 69.5202)" d="M0 -29.4999C19.0538 -29.4999 34.5 -16.1804 34.5 0.250061C34.5 16.6805 19.0538 30.0001 0 30.0001C-19.0538 30.0001 -34.5 16.6805 -34.5 0.250061C-34.5 -16.1804 -19.0538 -29.4999 0 -29.4999Z"></path>
  <path fill="#91A8EB" transform="matrix(1.50913 0.0246226 -0.0246226 1.50913 265.301 286.741)" d="M0.249979 -81.5196C49.8787 -81.2985 84.5 -60 84.5 -1.90735e-06C84.5 41.1452 46.78 74.5 0.25 74.5C-62.1254 74.5 -84 60.12 -84 -1.90735e-06C-84 -71.2881 -62.1254 -81.5196 0.249979 -81.5196Z"></path>
  <clipPath id="cl_123">
    <path d="M269.395 142.592C336.211 143.683 420.507 181.237 418.745 289.222C417.537 363.274 348.546 425.397 264.803 424.031C152.542 422.199 113.72 392.476 115.486 284.274C117.579 155.973 178.114 141.103 269.395 142.592Z"></path>
  </clipPath>
  <g clip-path="url(#cl_123)">
    <path fill="#A6B8EF" transform="matrix(0.805953 0.0131497 -0.0151654 0.929491 320.96 251.619)" d="M0.24998 -81.5196C49.8787 -81.2985 84.5 -60 84.5 0C84.5 41.1452 67.1354 74.5 20.6054 74.5C-41.77 74.5 -84 60.12 -84 0C-84 -71.2881 -62.1254 -81.5197 0.24998 -81.5196Z"></path>
    <path fill="#C1CBE8" transform="matrix(0.197995 -0.202726 0.445703 0.435301 344.06 202.77)" d="M11.5671 -77.0972C58.097 -77.0972 97.5959 -41.1452 97.5959 -2.81534e-05C97.5959 41.1452 73.4187 83.0524 26.8888 83.0524C-35.4867 83.0524 11.8086 60.12 11.8086 -2.68751e-05C11.8086 -41.1452 -34.9629 -77.0972 11.5671 -77.0972Z"></path>
    <path fill="#C1CBE8" transform="matrix(0.197995 -0.202726 0.184201 0.179903 388.502 267.126)" d="M48.93 -79.7642C80.6763 -79.0529 77.4946 -42.8889 62.8508 4.00565C48.2069 50.9001 -0.0393895 91.2963 -20.4536 67.777C-40.8678 44.2576 -16.8141 31.8032 -0.458961 -5.13881C15.8962 -42.0808 17.1838 -80.4755 48.93 -79.7642Z"></path>
  </g>
  <path fill="#91A8EB" transform="matrix(1.37947 2.85496e-09 -2.85496e-09 1.37947 210.879 346.868)" d="M22.6752 -1.24569C40.8986 -0.976105 54.5127 -1.56638 54.1996 49.9263C53.6489 75.4084 45.952 89.8855 35.4362 89.581C24.9203 89.2766 16.281 89.349 5.94764 89.3937C-4.43251 89.3652 -11.7582 72.5675 -11.2075 47.0855C-11.1729 -6.61567 4.45179 -1.51524 22.6752 -1.24569Z"></path>
  <path fill="#91A8EB" transform="matrix(1.79976 0.0293645 -0.0293645 1.79976 225.214 126.415)" d="M-1.90735e-06 -22.5C14.6355 -22.5 26.5 -12.3145 26.5 0.25C26.5 12.8145 14.6355 23 -1.90735e-06 23C-14.6355 23 -26.5 12.8145 -26.5 0.25C-26.5 -12.3145 -14.6355 -22.5 -1.90735e-06 -22.5Z"></path>
  <path fill="#91A8EB" transform="matrix(0.606874 0.00990163 -0.00990163 0.606874 198.532 93.6921)" d="M0 -22.5C14.6355 -22.5 26.5 -12.3145 26.5 0.25C26.5 12.8145 14.6355 23 0 23C-14.6355 23 -26.5 12.8145 -26.5 0.25C-26.5 -12.3145 -14.6355 -22.5 0 -22.5Z"></path>
  <path fill="#91A8EB" transform="matrix(0.504938 0.00823846 -0.00823846 0.504938 183.081 104.389)" d="M1.52164e-05 -22.5C14.6356 -22.5 26.5 -12.3145 26.5 0.25C26.5 12.8145 14.6356 23 1.53012e-05 23C-14.6355 23 -26.5 12.8145 -26.5 0.25C-26.5 -12.3145 -14.6355 -22.5 1.52164e-05 -22.5Z"></path>
  <path fill="#91A8EB" transform="matrix(0.274279 0.00447507 -0.00447507 0.274279 164.212 71.6029)" d="M0 -22.4262C14.2962 -22.4262 25.8855 -12.2741 25.8855 0.249207C25.8855 12.7725 14.2962 22.9246 0 22.9246C-14.2962 22.9246 -25.8855 12.7725 -25.8855 0.249207C-25.8855 -12.2741 -14.2962 -22.4262 0 -22.4262Z"></path>
  <path fill="#C1CBE8" transform="matrix(0.073816 -0.11483 0.26388 0.16963 160.494 68.9425)" d="M-0.00012207 -11.4999C14.6354 -11.4999 28.006 -7.98322 28.006 -1.63195C28.006 4.71933 15.5058 0.400246 0.870234 0.400247C-13.7653 0.400246 -26.7661 4.37695 -26.7661 -1.97432C-26.7661 -8.3256 -14.6357 -11.4999 -0.00012207 -11.4999Z"></path>
  <path fill="#C1CBE8" transform="matrix(-0.166841 -0.570472 0.880441 -0.257495 183.029 130.704)" d="M0 -11.5C14.6355 -11.5 28.0061 -7.98328 28.0061 -1.632C28.0061 4.71927 15.5059 0.40019 0.870357 0.40019C-13.7652 0.400188 -26.766 4.37689 -26.766 -1.97438C-26.766 -8.32566 -14.6355 -11.5 0 -11.5Z"></path>
  <path fill="#1B2B56" transform="matrix(1.78669 -0.21848 0.065544 0.536007 235.216 106.304)" d="M-7.24569e-07 -2.5C1.38071 -2.5 2.5 -1.38071 2.5 0C2.5 1.38071 1.38071 2.5 -7.05943e-07 2.5C-1.38071 2.5 -2.5 1.38071 -2.5 0C-2.5 -1.38071 -1.38071 -2.5 -7.24569e-07 -2.5Z"></path>
  <path fill="none" stroke="#1B2B56" stroke-width="0.5" stroke-linecap="round" stroke-linejoin="round" transform="matrix(1.78289 -0.247598 0.247598 1.78289 243.86 105.192)" d="M1.98548 0.277981L6.02909 0.184244"></path>
  <path fill="#1B2B56" transform="matrix(1.78669 -0.21848 0.065544 0.536007 263.803 102.808)" d="M-9.62988e-07 -2.50003C1.38071 -2.50003 2.5 -1.38074 2.5 -3.05176e-05C2.5 1.38068 1.38071 2.49997 -9.44361e-07 2.49997C-1.38071 2.49997 -2.5 1.38068 -2.5 -3.05176e-05C-2.5 -1.38074 -1.38071 -2.50003 -9.62988e-07 -2.50003Z"></path>
  <path fill="#354B89" transform="matrix(1.46507 -0.885005 0.929571 0.72522 255.58 95.8763)" d="M0 -2.5C1.38071 -2.5 2.5 -1.38071 2.5 1.49012e-07C2.5 1.38071 1.38071 2.5 0 2.5C-1.38071 2.5 -2.5 1.38071 -2.5 -1.49012e-07C-2.5 -1.38071 -1.38071 -2.5 0 -2.5Z"></path>
  <path fill="#354B89" transform="matrix(2.16254 0.296937 -0.629837 1.0733 239.608 96.8158)" d="M0 -2.98532C1.68306 -2.98532 3.04744 -1.64874 3.04744 1.5168e-05C3.04744 1.64877 1.68306 2.98535 0 2.98535C-1.68306 2.98535 -3.04744 1.64877 -3.04744 1.53496e-05C-3.04744 -1.64874 -1.68306 -2.98532 0 -2.98532Z"></path>
  <path fill="none" stroke="black" stroke-width="7" stroke-linecap="round" stroke-linejoin="round" transform="matrix(2.15345 4.45679e-09 -4.42021e-09 2.13577 150.479 295.239)" d="M25.3617 -26.8161C26.2587 -20.7995 27.0518 -11.418 25.1313 3.2239C21.2391 31.8291 12.4194 54.8625 -12.4939 50.5329C-28.1172 47.7148 -35.2629 24.0145 -31.3731 -4.57242C-28.6405 -27.3784 -16.774 -46.3936 -4.15101 -55.1009"></path>
  <path fill="#6C88D9" transform="matrix(2.15345 4.45679e-09 -4.42021e-09 2.13577 150.479 295.239)" d="M15.9995 -59.0168C19.1289 -54.3487 24.4534 -38.8968 24.2049 -34.9771C23.9564 -31.0575 28.3464 -21.2886 25.1313 3.2239C21.2391 31.8291 12.4194 54.8625 -12.4939 50.5329C-28.1172 47.7148 -35.2629 24.0145 -31.3731 -4.57242C-27.1351 -39.9425 -0.926983 -66.1945 15.9995 -59.0168Z"></path>
  <path fill="#91A8EB" transform="matrix(1.67686 3.47045e-09 -4.32784e-09 2.09114 154.469 289.526)" d="M16.8472 -52.6469C38.9149 -50.9554 28.8756 -26.9041 24.0812 1.37901C19.4358 29.7556 5.80437 52.1851 -9.61731 51.2687C-25.039 50.3524 -35.3452 26.0996 -32.3165 -2.51466C-29.1169 -31.2339 -5.22042 -54.3383 16.8472 -52.6469Z"></path>
  <path fill="none" stroke="white" stroke-width="5" stroke-linecap="round" stroke-linejoin="round" transform="matrix(1.5 0 0 1.5 158.539 362.24)" d=""></path>
</svg>