<?xml version="1.0" encoding="utf-8"?>
<svg xmlns="http://www.w3.org/2000/svg" xmlns:xlink="http://www.w3.org/1999/xlink" width="512" height="512">
  <path fill="none" stroke="black" stroke-width="7" stroke-linejoin="round" transform="matrix(1.8 3.72529e-09 -3.72529e-09 1.8 210.879 409.868)" d="M11.1077 -45.8103C27.389 -54.0008 53.1974 -44.0273 59.9738 1.22115C53.3804 32.6981 32.562 46.6673 23.5285 41.2755C14.495 35.8836 6.91632 31.7356 -2.12808 26.7376C-11.1974 21.5195 -1.69481 18.2151 4.38626 -1.27179C-3.55272 -36.1828 -5.17368 -37.6199 11.1077 -45.8103Z"></path>
  <path fill="none" stroke="black" stroke-width="7" stroke-linejoin="round" transform="matrix(-2.15345 -3.29802e-07 -3.27096e-07 2.13577 356.551 292.957)" d="M19.588 -56.8346C22.2831 -51.8987 26.1906 -36.0223 25.5894 -32.1418C24.9881 -28.2612 28.0739 -18.8024 23.3441 5.09573C18.033 33.485 10.3597 55.6941 -14.5122 51.1282C-30.1084 48.1619 -38.0566 22.8173 -32.7455 -5.57193C-26.0869 -41.1639 3.37976 -65.5358 19.588 -56.8346Z"></path>
  <path fill="none" stroke="black" stroke-width="7" stroke-linejoin="round" transform="matrix(1.79976 0.0293645 -0.0293645 1.79976 266.846 294.123)" d="M0.209624 -80.0966C37.3348 -80.0966 84.5 -60 84.5 -1.90735e-06C84.5 41.1452 46.7396 76.2788 0.209624 76.2788C-62.1658 76.2788 -84 60.12 -84 -1.90735e-06C-84 -71.2881 -50.5087 -80.0966 0.209624 -80.0966Z"></path>
  <path fill="none" stroke="black" stroke-width="7" stroke-linejoin="round" transform="matrix(1.53671 3.18039e-09 -3.72529e-09 1.8 308.979 398.168)" d="M-16.3478 -47.509C1.87663 -47.6723 17.3335 -40.9017 17.7526 8.67166C18.3064 22.5191 12.3218 46.2778 -1.35622 46.2164C-15.0342 46.1549 -21.1698 46.1274 -33.3716 46.0726C-45.5735 46.0179 -47.6899 23.1106 -48.2438 9.26319C-49.0006 -42.498 -34.5721 -47.3456 -16.3478 -47.509Z"></path>
  <path fill="#6C88D9" transform="matrix(-2.15345 -3.29802e-07 -3.27096e-07 2.13577 356.551 292.957)" d="M19.588 -56.8346C22.2831 -51.8987 26.1906 -36.0223 25.5894 -32.1418C24.9881 -28.2612 28.0739 -18.8024 23.3441 5.09573C18.033 33.485 10.3597 55.6941 -14.5122 51.1282C-30.1084 48.1619 -38.0566 22.8173 -32.7455 -5.57193C-26.0869 -41.1639 3.37976 -65.5358 19.588 -56.8346Z"></path>
  <path fill="#5170C8" transform="matrix(1.53671 3.18039e-09 -3.72529e-09 1.8 308.979 398.168)" d="M-16.3478 -47.509C1.87663 -47.6723 17.3335 -40.9017 17.7526 8.67166C18.3064 22.5191 12.3218 46.2778 -1.35622 46.2164C-15.0342 46.1549 -21.1698 46.1274 -33.3716 46.0726C-45.5735 46.0179 -47.6899 23.1106 -48.2438 9.26319C-49.0006 -42.498 -34.5721 -47.3456 -16.3478 -47.509Z"></path>
  <path fill="#839BE0" transform="matrix(1.20328 2.49031e-09 -2.91698e-09 1.40944 308.979 398.168)" d="M-20.7216 -47.9673C-2.49712 -48.1307 12.409 -41.2715 13.0104 12.793C12.7239 30.7262 3.92583 45.8656 -9.7522 45.8042C-23.4303 45.7428 -23.2557 45.7942 -35.4575 45.7394C-47.6594 45.6846 -53.2725 31.3177 -52.9859 13.3845C-53.9251 -42.8678 -38.9459 -47.804 -20.7216 -47.9673Z"></path>
  <path fill="#6C88D9" transform="matrix(1.8 3.72529e-09 -3.72529e-09 1.8 210.879 409.868)" d="M11.1077 -45.8103C27.389 -54.0008 53.1974 -44.0273 59.9738 1.22115C53.3804 32.6981 32.562 46.6673 23.5285 41.2755C14.495 35.8836 6.91632 31.7356 -2.12808 26.7376C-11.1974 21.5195 -1.69481 18.2151 4.38626 -1.27179C-3.55272 -36.1828 -5.17368 -37.6199 11.1077 -45.8103Z"></path>
  <path fill="#91A8EB" transform="matrix(-1.67686 -2.56813e-07 -3.2026e-07 2.09114 352.561 287.244)" d="M20.9053 -50.5348C42.6894 -47.2397 30.1672 -23.8659 21.9503 3.98713C13.7335 31.8401 -3.35442 53.0206 -18.5504 50.722C-33.7464 48.4235 -40.304 23.7399 -33.6655 -4.48126C-27.027 -32.7024 -0.878799 -53.8298 20.9053 -50.5348Z"></path>
  <path fill="none" stroke="black" stroke-width="7" stroke-miterlimit="4" transform="matrix(1.79976 0.0293645 -0.0293645 1.79976 225.394 137.02)" d="M1.90735e-06 -29.5C19.0538 -29.5 34.5 -16.1805 34.5 0.250008C34.5 16.6805 19.0538 30 1.90735e-06 30C-19.0538 30 -34.5 16.6805 -34.5 0.250008C-34.5 -16.1805 -19.0538 -29.5 1.90735e-06 -29.5Z"></path>
  <path fill="#6C88D9" transform="matrix(1.79976 0.0293645 -0.0293645 1.79976 266.846 294.123)" d="M0.209624 -80.0966C37.3348 -80.0966 84.5 -60 84.5 -1.90735e-06C84.5 41.1452 46.7396 76.2788 0.209624 76.2788C-62.1658 76.2788 -84 60.12 -84 -1.90735e-06C-84 -71.2881 -50.5087 -80.0966 0.209624 -80.0966Z"></path>
  <path fill="none" stroke="black" stroke-width="9" stroke-miterlimit="4" transform="translate(256 256)" d="M-56.9151 -176.797C-42.1325 -176.556 -30.3174 -166.027 -30.5254 -153.28C-30.7334 -140.532 -42.8856 -130.394 -57.6682 -130.635C-72.4508 -130.876 -84.2659 -141.406 -84.0579 -154.153C-83.8499 -166.9 -71.6977 -177.039 -56.9151 -176.797Z"></path>
  <path fill="none" stroke="black" stroke-width="9" stroke-miterlimit="4" transform="translate(256 256)" d="M-72.4281 -161.885C-60.1285 -161.684 -50.298 -152.924 -50.4711 -142.317C-50.6441 -131.711 -60.7552 -123.276 -73.0547 -123.477C-85.3543 -123.677 -95.1848 -132.438 -95.0118 -143.044C-94.8387 -153.65 -84.7277 -162.086 -72.4281 -161.885Z"></path>
  <path fill="none" stroke="black" stroke-width="9" stroke-miterlimit="4" transform="translate(256 256)" d="M-92.4352 -186.219C-85.7542 -186.11 -80.4143 -181.351 -80.5083 -175.59C-80.6023 -169.829 -86.0945 -165.247 -92.7756 -165.356C-99.4566 -165.465 -104.796 -170.224 -104.702 -175.985C-104.608 -181.746 -99.1162 -186.328 -92.4352 -186.219Z"></path>
  <path fill="#6C88D9" transform="matrix(1.79976 0.0293645 -0.0293645 1.79976 225.394 137.02)" d="M1.90735e-06 -29.5C19.0538 -29.5 34.5 -16.1805 34.5 0.250008C34.5 16.6805 19.0538 30 1.90735e-06 30C-19.0538 30 -34.5 16.6805 -34.5 0.250008C-34.5 -16.1805 -19.0538 -29.5 1.90735e-06 -29.5Z"></path>
  <path fill="#6C88D9" transform="matrix(0.775834 0.0126583 -0.0126583 0.775834 198.712 102.09)" d="M-7.62939e-06 -29.5C19.0538 -29.5 34.5 -16.1805 34.5 0.25C34.5 16.6805 19.0538 30 -7.62939e-06 30C-19.0538 30 -34.5 16.6805 -34.5 0.25C-34.5 -16.1805 -19.0538 -29.5 -7.62939e-06 -29.5Z"></path>
  <path fill="#6C88D9" transform="matrix(0.645518 0.0105321 -0.0105321 0.645518 183.261 113.158)" d="M7.62939e-06 -29.5C19.0538 -29.5 34.5 -16.1805 34.5 0.250015C34.5 16.6805 19.0538 30 7.62939e-06 30C-19.0538 30 -34.5 16.6805 -34.5 0.250015C-34.5 -16.1805 -19.0538 -29.5 7.62939e-06 -29.5Z"></path>
  <path fill="#6C88D9" transform="matrix(0.35064 0.00572097 -0.00572097 0.35064 163.396 80.125)" d="M0 -29.5C19.0538 -29.5 34.5 -16.1805 34.5 0.25C34.5 16.6805 19.0538 30 0 30C-19.0538 30 -34.5 16.6805 -34.5 0.25C-34.5 -16.1805 -19.0538 -29.5 0 -29.5Z"></path>
  <path fill="#91A8EB" transform="matrix(1.50913 0.0246226 -0.0246226 1.50913 265.481 294.123)" d="M0.24998 -81.5196C49.8787 -81.2985 84.5 -60 84.5 -1.90735e-06C84.5 41.1452 46.78 74.5 0.25 74.5C-62.1254 74.5 -84 60.12 -84 -1.90735e-06C-84 -71.2881 -62.1254 -81.5196 0.24998 -81.5196Z"></path>
  <clipPath id="cl_48">
    <path d="M269.575 149.974C336.391 151.064 420.687 188.618 418.925 296.604C417.717 370.656 348.726 432.779 264.983 431.413C152.722 429.581 113.9 399.858 115.666 291.656C117.759 163.355 178.294 148.485 269.575 149.974Z"></path>
  </clipPath>
  <g clip-path="url(#cl_48)">
    <path fill="#A6B8EF" transform="matrix(0.805953 0.0131497 -0.0151654 0.929491 321.139 259.001)" d="M0.24998 -81.5196C49.8787 -81.2985 84.5 -60 84.5 2.38419e-07C84.5 41.1452 67.1354 74.5 20.6054 74.5C-41.77 74.5 -84 60.12 -84 2.38419e-07C-84 -71.2881 -62.1254 -81.5197 0.24998 -81.5196Z"></path>
    <path fill="#C1CBE8" transform="matrix(0.197995 -0.202726 0.445703 0.435301 344.24 210.152)" d="M11.5671 -77.0972C58.097 -77.0972 97.5959 -41.1452 97.5959 -1.28947e-05C97.5959 41.1452 73.4187 83.0524 26.8888 83.0524C-35.4867 83.0524 11.8086 60.12 11.8086 -1.16163e-05C11.8086 -41.1452 -34.9629 -77.0972 11.5671 -77.0972Z"></path>
    <path fill="#C1CBE8" transform="matrix(0.197995 -0.202726 0.184201 0.179903 388.682 274.508)" d="M48.93 -79.7642C80.6762 -79.0529 77.4946 -42.8889 62.8507 4.00565C48.2069 50.9001 -0.03942 91.2963 -20.4536 67.777C-40.8678 44.2576 -16.8141 31.8032 -0.458991 -5.13881C15.8961 -42.0808 17.1838 -80.4755 48.93 -79.7642Z"></path>
  </g>
  <path fill="#91A8EB" transform="matrix(1.37947 2.85496e-09 -2.85496e-09 1.37947 210.879 346.868)" d="M20.7762 -1.61744C37.0576 -9.80791 62.5702 -7.08365 70.9499 44.6437C70.1955 67.0656 42.7974 91.1088 33.7639 85.7169C24.7304 80.3252 17.1517 76.1771 8.1073 71.1791C-0.942207 66.0944 12.6581 63.8729 13.4126 41.451C3.67776 0.244003 4.49489 6.57302 20.7762 -1.61744Z"></path>
  <path fill="#91A8EB" transform="matrix(1.79976 0.0293645 -0.0293645 1.79976 225.394 137.02)" d="M1.90735e-06 -22.5C14.6355 -22.5 26.5 -12.3145 26.5 0.250008C26.5 12.8145 14.6355 23 1.90735e-06 23C-14.6355 23 -26.5 12.8145 -26.5 0.250008C-26.5 -12.3145 -14.6355 -22.5 1.90735e-06 -22.5Z"></path>
  <path fill="#91A8EB" transform="matrix(0.606874 0.00990163 -0.00990163 0.606874 198.712 104.297)" d="M0 -22.5C14.6355 -22.5 26.5 -12.3145 26.5 0.25C26.5 12.8145 14.6355 23 0 23C-14.6355 23 -26.5 12.8145 -26.5 0.25C-26.5 -12.3145 -14.6355 -22.5 0 -22.5Z"></path>
  <path fill="#91A8EB" transform="matrix(0.504938 0.00823846 -0.00823846 0.504938 183.261 114.994)" d="M1.52164e-05 -22.5C14.6356 -22.5 26.5 -12.3145 26.5 0.249969C26.5 12.8144 14.6356 23 1.53012e-05 23C-14.6355 23 -26.5 12.8144 -26.5 0.24997C-26.5 -12.3145 -14.6355 -22.5 1.52164e-05 -22.5Z"></path>
  <path fill="#91A8EB" transform="matrix(0.274279 0.00447507 -0.00447507 0.274279 164.392 82.2077)" d="M0 -22.4261C14.2962 -22.4261 25.8855 -12.274 25.8855 0.249268C25.8855 12.7726 14.2962 22.9247 0 22.9247C-14.2962 22.9247 -25.8855 12.7726 -25.8855 0.249268C-25.8855 -12.274 -14.2962 -22.4261 0 -22.4261Z"></path>
  <path fill="#C1CBE8" transform="matrix(0.073816 -0.11483 0.26388 0.16963 160.57 79.5124)" d="M-6.10352e-05 -11.5C14.6355 -11.5 28.006 -7.98328 28.006 -1.63201C28.006 4.71926 15.5058 0.400185 0.870295 0.400186C-13.7652 0.400185 -26.7661 4.37689 -26.7661 -1.97439C-26.7661 -8.32566 -14.6356 -11.5 -6.10352e-05 -11.5Z"></path>
  <path fill="#C1CBE8" transform="matrix(-0.166841 -0.570472 0.880441 -0.257495 183.106 141.274)" d="M0 -11.5C14.6355 -11.5 28.0061 -7.98328 28.0061 -1.63201C28.0061 4.71927 15.5059 0.400186 0.870357 0.400186C-13.7652 0.400184 -26.766 4.37689 -26.766 -1.97439C-26.766 -8.32566 -14.6355 -11.5 0 -11.5Z"></path>
  <path fill="#1B2B56" transform="matrix(1.78669 -0.21848 0.065544 0.536007 240.577 118.652)" d="M-3.66941e-07 -2.5C1.38071 -2.5 2.5 -1.38071 2.5 0C2.5 1.38071 1.38071 2.5 -3.48315e-07 2.5C-1.38071 2.5 -2.5 1.38071 -2.5 0C-2.5 -1.38071 -1.38071 -2.5 -3.66941e-07 -2.5Z"></path>
  <path fill="none" stroke="#1B2B56" stroke-width="0.5" stroke-linecap="round" stroke-linejoin="round" transform="matrix(1.78289 -0.247598 0.247598 1.78289 249.22 117.54)" d="M1.98548 0.277974L6.02909 0.184236"></path>
  <path fill="#1B2B56" transform="matrix(1.78669 -0.21848 0.065544 0.536007 269.164 115.156)" d="M-9.31323e-09 -2.50003C1.38071 -2.50003 2.5 -1.38074 2.5 -3.05176e-05C2.5 1.38068 1.38071 2.49997 9.31323e-09 2.49997C-1.38071 2.49997 -2.5 1.38068 -2.5 -3.05176e-05C-2.5 -1.38074 -1.38071 -2.50003 -9.31323e-09 -2.50003Z"></path>
  <path fill="#354B89" transform="matrix(1.46507 -0.885005 0.929571 0.72522 260.941 108.224)" d="M7.62939e-06 -2.49999C1.38072 -2.49999 2.50001 -1.3807 2.50001 7.77841e-06C2.50001 1.38072 1.38072 2.50001 7.62939e-06 2.50001C-1.3807 2.50001 -2.49999 1.38072 -2.49999 7.48038e-06C-2.49999 -1.3807 -1.3807 -2.49999 7.62939e-06 -2.49999Z"></path>
  <path fill="#354B89" transform="matrix(2.16254 0.296937 -0.629837 1.0733 244.969 109.164)" d="M0 -2.98532C1.68306 -2.98532 3.04744 -1.64874 3.04744 1.5168e-05C3.04744 1.64877 1.68306 2.98535 0 2.98535C-1.68306 2.98535 -3.04744 1.64877 -3.04744 1.53496e-05C-3.04744 -1.64874 -1.68306 -2.98532 0 -2.98532Z"></path>
  <path fill="none" stroke="black" stroke-width="7" stroke-linecap="round" stroke-linejoin="round" transform="matrix(2.15345 4.45679e-09 -4.42021e-09 2.13577 150.659 302.621)" d="M25.1226 -26.5364C25.9332 -20.4872 26.5849 -11.0587 24.3937 3.59079C19.9453 32.1092 10.4618 55.0016 -14.3436 50.0816C-29.8967 46.8933 -36.384 23.178 -31.9387 -5.32046C-28.8043 -28.0234 -16.6754 -46.798 -3.94692 -55.2858"></path>
  <path fill="#6C88D9" transform="matrix(2.15345 4.45679e-09 -4.42021e-09 2.13577 150.659 302.621)" d="M16.2578 -58.8731C19.314 -54.156 24.3969 -38.6215 24.0874 -34.7063C23.7778 -30.7912 28.0556 -20.8906 24.3937 3.59079C19.9453 32.1092 10.4618 55.0016 -14.3436 50.0816C-29.8967 46.8933 -36.384 23.178 -31.9387 -5.32046C-27.0751 -40.5486 -0.554653 -66.3182 16.2578 -58.8731Z"></path>
  <path fill="#91A8EB" transform="matrix(1.67686 3.47045e-09 -4.32784e-09 2.09114 154.649 296.908)" d="M17.0831 -52.5173C39.1149 -50.5478 28.6862 -26.5743 23.2543 1.66407C17.9152 29.9631 3.48568 52.1824 -11.9048 50.975C-27.2953 49.7677 -36.7676 25.4457 -33.0392 -3.11642C-29.201 -31.7432 -4.94865 -54.4868 17.0831 -52.5173Z"></path>
  <path fill="none" stroke="white" stroke-width="5" stroke-linecap="round" stroke-linejoin="round" transform="matrix(1.5 0 0 1.5 158.539 362.24)" d=""></path>
</svg>