<?xml version="1.0" encoding="utf-8"?>
<svg xmlns="http://www.w3.org/2000/svg" xmlns:xlink="http://www.w3.org/1999/xlink" width="512" height="512">
  <path fill="none" stroke="black" stroke-width="7" stroke-linejoin="round" transform="matrix(1.8 3.72529e-09 -3.72529e-09 1.8 210.879 409.868)" d="M52.197 -47.5043C70.4182 -47.1099 82.8862 -39.5821 82.2472 4.70275C82.27 33.7203 74.8198 43.6627 64.3063 43.2862C53.7927 42.9096 45.1531 42.9228 34.8197 42.8967C24.3584 42.6898 19.0926 31.4952 19.0703 2.46469C19.4457 -44.0304 33.9759 -47.8987 52.197 -47.5043Z"></path>
  <path fill="none" stroke="black" stroke-width="7" stroke-linejoin="round" transform="matrix(-2.15345 -3.29802e-07 -3.27096e-07 2.13577 356.081 273.696)" d="M18.4249 -58.663C21.7945 -54.1681 27.9211 -39.0214 27.8783 -35.094C27.8355 -31.1666 32.2355 -22.2521 30.9557 2.08301C29.7398 30.9469 25.3066 54.0363 0.0424194 53.1161C-15.8146 52.437 -27.2875 28.5047 -26.0716 -0.359166C-24.5472 -36.5461 1.146 -64.9291 18.4249 -58.663Z"></path>
  <path fill="none" stroke="black" stroke-width="7" stroke-linejoin="round" transform="matrix(1.79976 0.0293645 -0.0293645 1.79976 266.376 274.862)" d="M0.209625 -80.0966C37.3348 -80.0966 84.5 -60 84.5 9.53674e-07C84.5 41.1452 46.7396 76.2788 0.209625 76.2788C-62.1658 76.2788 -84 60.12 -84 9.53674e-07C-84 -71.2881 -50.5087 -80.0966 0.209625 -80.0966Z"></path>
  <path fill="none" stroke="black" stroke-width="7" stroke-linejoin="round" transform="matrix(1.53671 3.18039e-09 -3.72529e-09 1.8 308.979 398.168)" d="M-52.7764 -46.7364C-34.5511 -46.7531 -19.1696 -39.8584 -19.2977 9.71614C-18.8967 23.5674 -25.1434 47.2769 -38.8201 47.1054C-52.4968 46.934 -58.6318 46.8571 -70.8325 46.7042C-83.0332 46.5513 -84.8967 23.628 -85.2977 9.77673C-85.4832 -41.9882 -71.0018 -46.7196 -52.7764 -46.7364Z"></path>
  <path fill="#6C88D9" transform="matrix(-2.15345 -3.29802e-07 -3.27096e-07 2.13577 356.081 273.696)" d="M18.4249 -58.663C21.7945 -54.1681 27.9211 -39.0214 27.8783 -35.094C27.8355 -31.1666 32.2355 -22.2521 30.9557 2.08301C29.7398 30.9469 25.3066 54.0363 0.0424194 53.1161C-15.8146 52.437 -27.2875 28.5047 -26.0716 -0.359166C-24.5472 -36.5461 1.146 -64.9291 18.4249 -58.663Z"></path>
  <path fill="#5170C8" transform="matrix(1.53671 3.18039e-09 -3.72529e-09 1.8 308.979 398.168)" d="M-52.7764 -46.7364C-34.5511 -46.7531 -19.1696 -39.8584 -19.2977 9.71614C-18.8967 23.5674 -25.1434 47.2769 -38.8201 47.1054C-52.4968 46.934 -58.6318 46.8571 -70.8325 46.7042C-83.0332 46.5513 -84.8967 23.628 -85.2977 9.77673C-85.4832 -41.9882 -71.0018 -46.7196 -52.7764 -46.7364Z"></path>
  <path fill="#839BE0" transform="matrix(1.20328 2.49031e-09 -2.91698e-09 1.40944 308.979 398.168)" d="M-67.3852 -46.9799C-49.1598 -46.9967 -34.3299 -40.0178 -34.3254 14.049C-34.8098 31.9792 -43.7747 47.0471 -57.4514 46.8757C-71.1282 46.7043 -70.9542 46.757 -83.1549 46.6041C-95.3556 46.4512 -100.81 32.0398 -100.325 14.1096C-100.644 -42.1477 -85.6106 -46.9632 -67.3852 -46.9799Z"></path>
  <path fill="#6C88D9" transform="matrix(1.8 3.72529e-09 -3.72529e-09 1.8 210.879 409.868)" d="M52.197 -47.5043C70.4182 -47.1099 82.8862 -39.5821 82.2472 4.70275C82.27 33.7203 74.8198 43.6627 64.3063 43.2862C53.7927 42.9096 45.1531 42.9228 34.8197 42.8967C24.3584 42.6898 19.0926 31.4952 19.0703 2.46469C19.4457 -44.0304 33.9759 -47.8987 52.197 -47.5043Z"></path>
  <path fill="#91A8EB" transform="matrix(-1.67686 -2.56813e-07 -3.2026e-07 2.09114 352.092 267.983)" d="M20.2864 -52.2364C42.4347 -51.4821 34.2247 -26.9093 31.077 1.60097C27.9294 30.1112 14.8084 53.0387 -0.641705 52.5125C-16.0917 51.9863 -26.9984 28.3127 -25.4787 -0.38028C-23.9589 -29.0732 -1.86187 -52.9908 20.2864 -52.2364Z"></path>
  <path fill="none" stroke="black" stroke-width="7" stroke-miterlimit="4" transform="matrix(1.79976 0.0293645 -0.0293645 1.79976 224.925 112.164)" d="M0 -29.5C19.0538 -29.5 34.5 -16.1805 34.5 0.25C34.5 16.6805 19.0538 30 0 30C-19.0538 30 -34.5 16.6805 -34.5 0.25C-34.5 -16.1805 -19.0538 -29.5 0 -29.5Z"></path>
  <path fill="#6C88D9" transform="matrix(1.79976 0.0293645 -0.0293645 1.79976 266.376 274.862)" d="M0.209625 -80.0966C37.3348 -80.0966 84.5 -60 84.5 9.53674e-07C84.5 41.1452 46.7396 76.2788 0.209625 76.2788C-62.1658 76.2788 -84 60.12 -84 9.53674e-07C-84 -71.2881 -50.5087 -80.0966 0.209625 -80.0966Z"></path>
  <path fill="none" stroke="black" stroke-width="9" stroke-miterlimit="4" transform="translate(256 256)" d="M-57.3847 -201.653C-42.6021 -201.412 -30.787 -190.883 -30.995 -178.135C-31.203 -165.388 -43.3553 -155.25 -58.1379 -155.491C-72.9205 -155.732 -84.7355 -166.261 -84.5275 -179.009C-84.3196 -191.756 -72.1673 -201.894 -57.3847 -201.653Z"></path>
  <path fill="none" stroke="black" stroke-width="9" stroke-miterlimit="4" transform="translate(256 256)" d="M-72.8977 -186.741C-60.5981 -186.54 -50.7676 -177.779 -50.9407 -167.173C-51.1137 -156.567 -61.2248 -148.132 -73.5244 -148.332C-85.824 -148.533 -95.6545 -157.294 -95.4814 -167.9C-95.3084 -178.506 -85.1973 -186.941 -72.8977 -186.741Z"></path>
  <path fill="none" stroke="black" stroke-width="9" stroke-miterlimit="4" transform="translate(256 256)" d="M-92.9048 -211.075C-86.2238 -210.966 -80.8839 -206.207 -80.9779 -200.446C-81.0719 -194.685 -86.5642 -190.103 -93.2452 -190.212C-99.9262 -190.321 -105.266 -195.079 -105.172 -200.84C-105.078 -206.602 -99.5859 -211.184 -92.9048 -211.075Z"></path>
  <path fill="#6C88D9" transform="matrix(1.79976 0.0293645 -0.0293645 1.79976 224.925 112.164)" d="M0 -29.5C19.0538 -29.5 34.5 -16.1805 34.5 0.25C34.5 16.6805 19.0538 30 0 30C-19.0538 30 -34.5 16.6805 -34.5 0.25C-34.5 -16.1805 -19.0538 -29.5 0 -29.5Z"></path>
  <path fill="#6C88D9" transform="matrix(0.775834 0.0126583 -0.0126583 0.775834 198.242 77.234)" d="M0 -29.5C19.0538 -29.5 34.5 -16.1805 34.5 0.25C34.5 16.6805 19.0538 30 0 30C-19.0538 30 -34.5 16.6805 -34.5 0.25C-34.5 -16.1805 -19.0538 -29.5 0 -29.5Z"></path>
  <path fill="#6C88D9" transform="matrix(0.645518 0.0105321 -0.0105321 0.645518 182.792 88.3022)" d="M7.62939e-06 -29.5C19.0538 -29.5 34.5 -16.1805 34.5 0.25C34.5 16.6805 19.0538 30 7.62939e-06 30C-19.0538 30 -34.5 16.6805 -34.5 0.25C-34.5 -16.1805 -19.0538 -29.5 7.62939e-06 -29.5Z"></path>
  <path fill="#6C88D9" transform="matrix(0.35064 0.00572097 -0.00572097 0.35064 162.926 55.2693)" d="M3.05176e-05 -29.5C19.0539 -29.5 34.5 -16.1805 34.5 0.25C34.5 16.6805 19.0539 30 3.05176e-05 30C-19.0538 30 -34.5 16.6805 -34.5 0.25C-34.5 -16.1805 -19.0538 -29.5 3.05176e-05 -29.5Z"></path>
  <path fill="#91A8EB" transform="matrix(1.50913 0.0246226 -0.0246226 1.50913 265.012 274.862)" d="M0.24998 -81.5196C49.8787 -81.2985 84.5 -60 84.5 -9.53674e-07C84.5 41.1452 46.78 74.5 0.25 74.5C-62.1254 74.5 -84 60.12 -84 -9.53674e-07C-84 -71.2881 -62.1254 -81.5196 0.24998 -81.5196Z"></path>
  <clipPath id="cl_b7">
    <path d="M269.105 130.713C335.922 131.803 420.218 169.357 418.456 277.343C417.248 351.395 348.256 413.518 264.513 412.151C152.253 410.32 113.431 380.597 115.196 272.395C117.289 144.094 177.824 129.224 269.105 130.713Z"></path>
  </clipPath>
  <g clip-path="url(#cl_b7)">
    <path fill="#A6B8EF" transform="matrix(0.805953 0.0131497 -0.0151654 0.929491 320.67 239.74)" d="M0.249972 -81.5196C49.8787 -81.2985 84.5 -60 84.5 1.90735e-06C84.5 41.1452 67.1354 74.5 20.6054 74.5C-41.77 74.5 -84 60.12 -84 1.90735e-06C-84 -71.2881 -62.1254 -81.5197 0.249972 -81.5196Z"></path>
    <path fill="#C1CBE8" transform="matrix(0.197995 -0.202726 0.445703 0.435301 343.77 190.891)" d="M11.5671 -77.0972C58.097 -77.0972 97.5959 -41.1452 97.5959 -1.67094e-05C97.5959 41.1452 73.4187 83.0524 26.8888 83.0524C-35.4867 83.0524 11.8086 60.12 11.8086 -1.5431e-05C11.8086 -41.1452 -34.9629 -77.0972 11.5671 -77.0972Z"></path>
    <path fill="#C1CBE8" transform="matrix(0.197995 -0.202726 0.184201 0.179903 388.212 255.247)" d="M48.93 -79.7642C80.6763 -79.0529 77.4946 -42.8889 62.8508 4.00565C48.2069 50.9001 -0.0393895 91.2963 -20.4536 67.777C-40.8678 44.2576 -16.8141 31.8032 -0.458961 -5.13881C15.8962 -42.0808 17.1838 -80.4755 48.93 -79.7642Z"></path>
  </g>
  <path fill="#91A8EB" transform="matrix(1.37947 2.85496e-09 -2.85496e-09 1.37947 210.879 346.868)" d="M67.8068 -2.33981C86.0279 -1.94541 99.6458 -2.44233 98.9798 49.047C98.2544 74.5247 90.4584 88.9487 79.9449 88.5722C69.4314 88.1956 60.7918 88.2088 50.4584 88.1827C40.0787 88.0831 32.8682 71.2357 33.5936 45.758C33.9962 -7.94168 49.5856 -2.73426 67.8068 -2.33981Z"></path>
  <path fill="#91A8EB" transform="matrix(1.79976 0.0293645 -0.0293645 1.79976 224.925 112.164)" d="M0 -22.5C14.6355 -22.5 26.5 -12.3145 26.5 0.25C26.5 12.8145 14.6355 23 0 23C-14.6355 23 -26.5 12.8145 -26.5 0.25C-26.5 -12.3145 -14.6355 -22.5 0 -22.5Z"></path>
  <path fill="#91A8EB" transform="matrix(0.606874 0.00990163 -0.00990163 0.606874 198.242 79.4411)" d="M0 -22.5C14.6355 -22.5 26.5 -12.3145 26.5 0.25C26.5 12.8145 14.6355 23 0 23C-14.6355 23 -26.5 12.8145 -26.5 0.25C-26.5 -12.3145 -14.6355 -22.5 0 -22.5Z"></path>
  <path fill="#91A8EB" transform="matrix(0.504938 0.00823846 -0.00823846 0.504938 182.792 90.1385)" d="M1.52164e-05 -22.5C14.6356 -22.5 26.5 -12.3144 26.5 0.25003C26.5 12.8145 14.6356 23 1.53012e-05 23C-14.6355 23 -26.5 12.8145 -26.5 0.250031C-26.5 -12.3144 -14.6355 -22.5 1.52164e-05 -22.5Z"></path>
  <path fill="#91A8EB" transform="matrix(0.274279 0.00447507 -0.00447507 0.274279 163.923 57.352)" d="M0 -22.4261C14.2962 -22.4261 25.8855 -12.274 25.8855 0.249268C25.8855 12.7726 14.2962 22.9247 0 22.9247C-14.2962 22.9247 -25.8855 12.7726 -25.8855 0.249268C-25.8855 -12.274 -14.2962 -22.4261 0 -22.4261Z"></path>
  <path fill="#C1CBE8" transform="matrix(0.073816 -0.11483 0.26388 0.16963 160.164 54.7518)" d="M6.10352e-05 -11.5C14.6356 -11.5 28.0061 -7.98328 28.0061 -1.63201C28.0061 4.71926 15.506 0.400185 0.870417 0.400186C-13.7651 0.400185 -26.766 4.37689 -26.766 -1.97439C-26.766 -8.32566 -14.6355 -11.5 6.10352e-05 -11.5Z"></path>
  <path fill="#C1CBE8" transform="matrix(-0.166841 -0.570472 0.880441 -0.257495 182.699 116.514)" d="M0 -11.5C14.6355 -11.5 28.0061 -7.98329 28.0061 -1.63201C28.0061 4.71926 15.5059 0.400182 0.870357 0.400182C-13.7652 0.400181 -26.766 4.37688 -26.766 -1.97439C-26.766 -8.32566 -14.6355 -11.5 0 -11.5Z"></path>
  <path fill="#1B2B56" transform="matrix(1.78669 -0.21848 0.065544 0.536007 236.936 89.0392)" d="M4.67524e-07 -2.5C1.38071 -2.5 2.5 -1.38071 2.5 0C2.5 1.38071 1.38071 2.5 4.8615e-07 2.5C-1.38071 2.5 -2.5 1.38071 -2.5 0C-2.5 -1.38071 -1.38071 -2.5 4.67524e-07 -2.5Z"></path>
  <path fill="none" stroke="#1B2B56" stroke-width="0.5" stroke-linecap="round" stroke-linejoin="round" transform="matrix(1.78289 -0.247598 0.247598 1.78289 245.579 87.9276)" d="M1.98548 0.277974L6.02909 0.184236"></path>
  <path fill="#1B2B56" transform="matrix(1.78669 -0.21848 0.065544 0.536007 265.523 85.5434)" d="M-9.31323e-09 -2.50003C1.38071 -2.50003 2.5 -1.38074 2.5 -3.05176e-05C2.5 1.38068 1.38071 2.49997 9.31323e-09 2.49997C-1.38071 2.49997 -2.5 1.38068 -2.5 -3.05176e-05C-2.5 -1.38074 -1.38071 -2.50003 -9.31323e-09 -2.50003Z"></path>
  <path fill="#354B89" transform="matrix(1.46507 -0.885005 0.929571 0.72522 257.3 78.6114)" d="M0 -2.5C1.38071 -2.5 2.5 -1.38071 2.5 1.49012e-07C2.5 1.38071 1.38071 2.5 0 2.5C-1.38071 2.5 -2.5 1.38071 -2.5 -1.49012e-07C-2.5 -1.38071 -1.38071 -2.5 0 -2.5Z"></path>
  <path fill="#354B89" transform="matrix(2.16254 0.296937 -0.629837 1.0733 241.328 79.5509)" d="M-3.8147e-06 -2.98534C1.68305 -2.98534 3.04744 -1.64876 3.04744 -9.08208e-08C3.04744 1.64876 1.68305 2.98534 -3.8147e-06 2.98534C-1.68306 2.98534 -3.04744 1.64876 -3.04744 9.08208e-08C-3.04744 -1.64876 -1.68306 -2.98534 -3.8147e-06 -2.98534Z"></path>
  <path fill="none" stroke="black" stroke-width="7" stroke-linecap="round" stroke-linejoin="round" transform="matrix(2.15345 4.45679e-09 -4.42021e-09 2.13577 150.189 283.36)" d="M29.8181 -34.9773C32.6217 -30.0936 36.5428 -22.4182 40.8586 -9.4266C50.7274 17.6521 57.4892 38.9249 34.2597 48.9827C19.6368 55.2038 -2.78901 37.4789 -12.6652 10.3801C-20.4814 -12.3245 -16.7493 -35.859 -8.11194 -49.4876"></path>
  <path fill="#6C88D9" transform="matrix(2.15345 4.45679e-09 -4.42021e-09 2.13577 150.189 283.36)" d="M8.87064 -61.2115C13.5557 -58.1402 24.4266 -45.9976 25.7112 -42.2897C26.9959 -38.5818 33.3262 -32.1012 40.8586 -9.4266C50.7274 17.6521 57.4892 38.9249 34.2597 48.9827C19.6368 55.2038 -2.78901 37.4789 -12.6652 10.3801C-24.6468 -24.424 -9.49183 -61.1784 8.87064 -61.2115Z"></path>
  <path fill="#91A8EB" transform="matrix(1.67686 3.47045e-09 -4.32784e-09 2.09114 154.179 277.647)" d="M10.1743 -54.8627C31.3221 -60.1942 31.4553 -35.2147 42.1513 -8.77734C54.5713 17.9066 60.4659 40.3634 46.9123 46.3338C33.3588 52.3042 4.28569 35.1798 -9.69387 8.89162C-22.8441 -18.8487 -10.9734 -49.5312 10.1743 -54.8627Z"></path>
  <path fill="none" stroke="white" stroke-width="5" stroke-linecap="round" stroke-linejoin="round" transform="matrix(1.5 0 0 1.5 158.539 362.24)" d=""></path>
</svg>