<?xml version="1.0" encoding="utf-8"?>
<svg xmlns="http://www.w3.org/2000/svg" xmlns:xlink="http://www.w3.org/1999/xlink" width="512" height="512">
  <path fill="none" stroke="black" stroke-width="7" stroke-linejoin="round" transform="matrix(1.8 3.72529e-09 -3.72529e-09 1.8 210.879 409.868)" d="M38.943 -47.1842C57.1651 -46.8372 69.6527 -39.3419 69.129 4.94449C69.2272 33.9618 61.8029 43.9237 51.2885 43.5745C40.774 43.2253 32.1345 43.261 21.801 43.2618C11.3392 43.0819 6.04429 31.9012 5.94645 2.87088C6.20083 -43.6251 20.7209 -47.5312 38.943 -47.1842Z"></path>
  <path fill="none" stroke="black" stroke-width="7" stroke-linejoin="round" transform="matrix(-2.15345 -3.29802e-07 -3.27096e-07 2.13577 356.556 293.178)" d="M18.8831 -58.0101C22.0119 -53.3416 27.3344 -37.889 27.0854 -33.9694C26.8365 -30.0499 30.7621 -20.9129 28.206 3.31972C25.4759 32.0782 19.8363 54.8985 -5.34415 52.6307C-21.1433 51.1059 -31.3431 26.5946 -28.613 -2.16382C-25.1902 -38.2186 1.95757 -65.19 18.8831 -58.0101Z"></path>
  <path fill="none" stroke="black" stroke-width="7" stroke-linejoin="round" transform="matrix(1.79976 0.0293645 -0.0293645 1.79976 266.851 294.344)" d="M0.209624 -80.0966C37.3348 -80.0966 84.5 -60 84.5 -3.8147e-06C84.5 41.1452 46.7396 76.2788 0.209624 76.2788C-62.1658 76.2788 -84 60.12 -84 -3.8147e-06C-84 -71.2881 -50.5087 -80.0966 0.209624 -80.0966Z"></path>
  <path fill="none" stroke="black" stroke-width="7" stroke-linejoin="round" transform="matrix(1.53671 3.18039e-09 -3.72529e-09 1.8 308.979 398.168)" d="M-45.9068 -46.3937C-29.0506 -52.3106 1.74973 -43.0653 8.73454 7.26931C5.22498 24.8647 -17.7141 50.93 -29.8369 45.5217C-41.9596 40.1133 -47.3976 37.6873 -58.212 32.8627C-69.0265 28.038 -54.3618 13.4868 -51.2749 5.42133C-59.3003 -37.537 -62.763 -40.4768 -45.9068 -46.3937Z"></path>
  <path fill="#6C88D9" transform="matrix(-2.15345 -3.29802e-07 -3.27096e-07 2.13577 356.556 293.178)" d="M18.8831 -58.0101C22.0119 -53.3416 27.3344 -37.889 27.0854 -33.9694C26.8365 -30.0499 30.7621 -20.9129 28.206 3.31972C25.4759 32.0782 19.8363 54.8985 -5.34415 52.6307C-21.1433 51.1059 -31.3431 26.5946 -28.613 -2.16382C-25.1902 -38.2186 1.95757 -65.19 18.8831 -58.0101Z"></path>
  <path fill="#5170C8" transform="matrix(1.53671 3.18039e-09 -3.72529e-09 1.8 308.979 398.168)" d="M-45.9068 -46.3937C-29.0506 -52.3106 1.74973 -43.0653 8.73454 7.26931C5.22498 24.8647 -17.7141 50.93 -29.8369 45.5217C-41.9596 40.1133 -47.3976 37.6873 -58.212 32.8627C-69.0265 28.038 -54.3618 13.4868 -51.2749 5.42133C-59.3003 -37.537 -62.763 -40.4768 -45.9068 -46.3937Z"></path>
  <path fill="#839BE0" transform="matrix(1.20328 2.49031e-09 -2.91698e-09 1.40944 308.979 398.168)" d="M-52.9677 -47.4969C-36.1115 -53.4138 -5.09881 -43.9208 2.28896 10.4961C-3.41101 31.6033 -26.0107 48.6573 -38.1335 43.249C-50.2563 37.8406 -50.1287 37.9546 -60.9432 33.13C-71.7576 28.3053 -62.9978 20.2254 -57.7205 8.64815C-66.1489 -38.3925 -69.8239 -41.5801 -52.9677 -47.4969Z"></path>
  <path fill="#6C88D9" transform="matrix(1.8 3.72529e-09 -3.72529e-09 1.8 210.879 409.868)" d="M38.943 -47.1842C57.1651 -46.8372 69.6527 -39.3419 69.129 4.94449C69.2272 33.9618 61.8029 43.9237 51.2885 43.5745C40.774 43.2253 32.1345 43.261 21.801 43.2618C11.3392 43.0819 6.04429 31.9012 5.94645 2.87088C6.20083 -43.6251 20.7209 -47.5312 38.943 -47.1842Z"></path>
  <path fill="#91A8EB" transform="matrix(-1.67686 -2.56813e-07 -3.2026e-07 2.09114 352.567 287.465)" d="M20.5496 -51.6189C42.617 -49.9251 32.7959 -25.7353 27.7699 2.60125C22.7439 30.9378 8.12727 53.276 -7.26637 52.0945C-22.66 50.913 -31.9881 26.8094 -28.5757 -1.77874C-25.1632 -30.3669 -1.51777 -53.3126 20.5496 -51.6189Z"></path>
  <path fill="none" stroke="black" stroke-width="7" stroke-miterlimit="4" transform="matrix(1.79976 0.0293645 -0.0293645 1.79976 225.4 135.535)" d="M0 -29.5C19.0538 -29.5 34.5 -16.1805 34.5 0.25C34.5 16.6805 19.0538 30 0 30C-19.0538 30 -34.5 16.6805 -34.5 0.25C-34.5 -16.1805 -19.0538 -29.5 0 -29.5Z"></path>
  <path fill="#6C88D9" transform="matrix(1.79976 0.0293645 -0.0293645 1.79976 266.851 294.344)" d="M0.209624 -80.0966C37.3348 -80.0966 84.5 -60 84.5 -3.8147e-06C84.5 41.1452 46.7396 76.2788 0.209624 76.2788C-62.1658 76.2788 -84 60.12 -84 -3.8147e-06C-84 -71.2881 -50.5087 -80.0966 0.209624 -80.0966Z"></path>
  <path fill="none" stroke="black" stroke-width="9" stroke-miterlimit="4" transform="translate(256 256)" d="M-56.9097 -178.282C-42.1271 -178.041 -30.312 -167.511 -30.52 -154.764C-30.728 -142.017 -42.8803 -131.879 -57.6629 -132.12C-72.4454 -132.361 -84.2605 -142.89 -84.0525 -155.637C-83.8445 -168.385 -71.6923 -178.523 -56.9097 -178.282Z"></path>
  <path fill="none" stroke="black" stroke-width="9" stroke-miterlimit="4" transform="translate(256 256)" d="M-72.4227 -163.369C-60.1231 -163.169 -50.2926 -154.408 -50.4657 -143.802C-50.6387 -133.196 -60.7498 -124.76 -73.0494 -124.961C-85.3489 -125.162 -95.1794 -133.922 -95.0064 -144.529C-94.8333 -155.135 -84.7223 -163.57 -72.4227 -163.369Z"></path>
  <path fill="none" stroke="black" stroke-width="9" stroke-miterlimit="4" transform="translate(256 256)" d="M-92.4298 -187.703C-85.7488 -187.594 -80.4089 -182.836 -80.5029 -177.074C-80.5969 -171.313 -86.0892 -166.731 -92.7702 -166.84C-99.4512 -166.949 -104.791 -171.708 -104.697 -177.469C-104.603 -183.23 -99.1108 -187.812 -92.4298 -187.703Z"></path>
  <path fill="#6C88D9" transform="matrix(1.79976 0.0293645 -0.0293645 1.79976 225.4 135.535)" d="M0 -29.5C19.0538 -29.5 34.5 -16.1805 34.5 0.25C34.5 16.6805 19.0538 30 0 30C-19.0538 30 -34.5 16.6805 -34.5 0.25C-34.5 -16.1805 -19.0538 -29.5 0 -29.5Z"></path>
  <path fill="#6C88D9" transform="matrix(0.775834 0.0126583 -0.0126583 0.775834 198.717 100.605)" d="M-7.62939e-06 -29.5C19.0538 -29.5 34.5 -16.1805 34.5 0.25C34.5 16.6805 19.0538 30 -7.62939e-06 30C-19.0538 30 -34.5 16.6805 -34.5 0.25C-34.5 -16.1805 -19.0538 -29.5 -7.62939e-06 -29.5Z"></path>
  <path fill="#6C88D9" transform="matrix(0.645518 0.0105321 -0.0105321 0.645518 183.267 111.673)" d="M7.62939e-06 -29.5C19.0538 -29.5 34.5 -16.1805 34.5 0.25C34.5 16.6805 19.0538 30 7.62939e-06 30C-19.0538 30 -34.5 16.6805 -34.5 0.25C-34.5 -16.1805 -19.0538 -29.5 7.62939e-06 -29.5Z"></path>
  <path fill="#6C88D9" transform="matrix(0.35064 0.00572097 -0.00572097 0.35064 163.401 78.6405)" d="M0 -29.5C19.0538 -29.5 34.5 -16.1805 34.5 0.25C34.5 16.6805 19.0538 30 0 30C-19.0538 30 -34.5 16.6805 -34.5 0.25C-34.5 -16.1805 -19.0538 -29.5 0 -29.5Z"></path>
  <path fill="#91A8EB" transform="matrix(1.50913 0.0246226 -0.0246226 1.50913 265.487 294.344)" d="M0.249979 -81.5196C49.8787 -81.2985 84.5 -60 84.5 1.90735e-06C84.5 41.1452 46.78 74.5 0.25 74.5C-62.1254 74.5 -84 60.12 -84 1.90735e-06C-84 -71.2881 -62.1254 -81.5196 0.249979 -81.5196Z"></path>
  <clipPath id="cl_f6">
    <path d="M269.58 150.195C336.397 151.285 420.693 188.839 418.931 296.825C417.723 370.876 348.731 433 264.988 431.633C152.728 429.802 113.906 400.079 115.671 291.877C117.765 163.575 178.299 148.706 269.58 150.195Z"></path>
  </clipPath>
  <g clip-path="url(#cl_f6)">
    <path fill="#A6B8EF" transform="matrix(0.805953 0.0131497 -0.0151654 0.929491 321.145 259.222)" d="M0.249972 -81.5196C49.8787 -81.2985 84.5 -60 84.5 2.38419e-07C84.5 41.1452 67.1354 74.5 20.6054 74.5C-41.77 74.5 -84 60.12 -84 2.38419e-07C-84 -71.2881 -62.1254 -81.5197 0.249972 -81.5196Z"></path>
    <path fill="#C1CBE8" transform="matrix(0.197995 -0.202726 0.445703 0.435301 344.245 210.372)" d="M11.5671 -77.0972C58.097 -77.0972 97.5959 -41.1452 97.5959 -2.05241e-05C97.5959 41.1452 73.4187 83.0524 26.8888 83.0524C-35.4867 83.0524 11.8086 60.12 11.8086 -1.92457e-05C11.8086 -41.1452 -34.9629 -77.0972 11.5671 -77.0972Z"></path>
    <path fill="#C1CBE8" transform="matrix(0.197995 -0.202726 0.184201 0.179903 388.687 274.728)" d="M48.93 -79.7642C80.6762 -79.0529 77.4946 -42.8889 62.8507 4.00565C48.2069 50.9001 -0.03942 91.2963 -20.4536 67.777C-40.8678 44.2576 -16.8141 31.8032 -0.458991 -5.13881C15.8961 -42.0808 17.1838 -80.4755 48.93 -79.7642Z"></path>
  </g>
  <path fill="#91A8EB" transform="matrix(1.37947 2.85496e-09 -2.85496e-09 1.37947 210.879 346.868)" d="M50.5486 -1.92145C68.7708 -1.57443 82.3872 -2.1068 81.8552 49.3841C81.1962 74.8635 73.4379 89.3079 62.9234 88.9588C52.4089 88.6097 43.7694 88.6453 33.4359 88.646C23.0561 88.5734 15.8017 71.7447 16.4608 46.2653C16.7237 -7.43529 32.3265 -2.26847 50.5486 -1.92145Z"></path>
  <path fill="#91A8EB" transform="matrix(1.79976 0.0293645 -0.0293645 1.79976 225.4 135.535)" d="M0 -22.5C14.6355 -22.5 26.5 -12.3145 26.5 0.25C26.5 12.8145 14.6355 23 0 23C-14.6355 23 -26.5 12.8145 -26.5 0.25C-26.5 -12.3145 -14.6355 -22.5 0 -22.5Z"></path>
  <path fill="#91A8EB" transform="matrix(0.606874 0.00990163 -0.00990163 0.606874 198.717 102.812)" d="M7.62939e-06 -22.5C14.6356 -22.5 26.5 -12.3145 26.5 0.25C26.5 12.8145 14.6356 23 7.62939e-06 23C-14.6355 23 -26.5 12.8145 -26.5 0.25C-26.5 -12.3145 -14.6355 -22.5 7.62939e-06 -22.5Z"></path>
  <path fill="#91A8EB" transform="matrix(0.504938 0.00823846 -0.00823846 0.504938 183.267 113.51)" d="M1.52164e-05 -22.5C14.6356 -22.5 26.5 -12.3144 26.5 0.25003C26.5 12.8145 14.6356 23 1.53012e-05 23C-14.6355 23 -26.5 12.8145 -26.5 0.250031C-26.5 -12.3144 -14.6355 -22.5 1.52164e-05 -22.5Z"></path>
  <path fill="#91A8EB" transform="matrix(0.274279 0.00447507 -0.00447507 0.274279 164.398 80.7232)" d="M0 -22.4261C14.2962 -22.4261 25.8855 -12.274 25.8855 0.249268C25.8855 12.7726 14.2962 22.9247 0 22.9247C-14.2962 22.9247 -25.8855 12.7726 -25.8855 0.249268C-25.8855 -12.274 -14.2962 -22.4261 0 -22.4261Z"></path>
  <path fill="#C1CBE8" transform="matrix(0.073816 -0.11483 0.26388 0.16963 160.704 78.0251)" d="M0.00012207 -11.5C14.6357 -11.5 28.0062 -7.98328 28.0062 -1.63201C28.0062 4.71926 15.506 0.400185 0.870479 0.400186C-13.7651 0.400185 -26.7659 4.37689 -26.7659 -1.97439C-26.7659 -8.32566 -14.6354 -11.5 0.00012207 -11.5Z"></path>
  <path fill="#C1CBE8" transform="matrix(-0.166841 -0.570472 0.880441 -0.257495 183.24 139.787)" d="M0 -11.5C14.6355 -11.5 28.0061 -7.98329 28.0061 -1.63201C28.0061 4.71926 15.5059 0.400182 0.870357 0.400182C-13.7652 0.400181 -26.766 4.37688 -26.766 -1.97439C-26.766 -8.32566 -14.6355 -11.5 0 -11.5Z"></path>
  <path fill="#1B2B56" transform="matrix(1.78669 -0.21848 0.065544 0.536007 234.146 117.308)" d="M2.29105e-07 -2.50003C1.38071 -2.50003 2.5 -1.38074 2.5 -3.05176e-05C2.5 1.38068 1.38071 2.49997 2.47732e-07 2.49997C-1.38071 2.49997 -2.5 1.38068 -2.5 -3.05176e-05C-2.5 -1.38074 -1.38071 -2.50003 2.29105e-07 -2.50003Z"></path>
  <path fill="none" stroke="#1B2B56" stroke-width="0.5" stroke-linecap="round" stroke-linejoin="round" transform="matrix(1.78289 -0.247598 0.247598 1.78289 242.789 116.196)" d="M1.98548 0.277981L6.02909 0.184244"></path>
  <path fill="#1B2B56" transform="matrix(1.78669 -0.21848 0.065544 0.536007 262.733 113.812)" d="M-9.31323e-09 -2.5C1.38071 -2.5 2.5 -1.38071 2.5 0C2.5 1.38071 1.38071 2.5 9.31323e-09 2.5C-1.38071 2.5 -2.5 1.38071 -2.5 0C-2.5 -1.38071 -1.38071 -2.5 -9.31323e-09 -2.5Z"></path>
  <path fill="#354B89" transform="matrix(1.46507 -0.885005 0.929571 0.72522 254.51 106.88)" d="M0 -2.5C1.38071 -2.5 2.5 -1.38071 2.5 1.49012e-07C2.5 1.38071 1.38071 2.5 0 2.5C-1.38071 2.5 -2.5 1.38071 -2.5 -1.49012e-07C-2.5 -1.38071 -1.38071 -2.5 0 -2.5Z"></path>
  <path fill="#354B89" transform="matrix(2.16254 0.296937 -0.629837 1.0733 238.538 107.82)" d="M-3.8147e-06 -2.98533C1.68305 -2.98533 3.04744 -1.64875 3.04744 7.53857e-06C3.04744 1.64876 1.68305 2.98535 -3.8147e-06 2.98535C-1.68306 2.98535 -3.04744 1.64876 -3.04744 7.72022e-06C-3.04744 -1.64875 -1.68306 -2.98533 -3.8147e-06 -2.98533Z"></path>
  <path fill="none" stroke="black" stroke-width="7" stroke-linecap="round" stroke-linejoin="round" transform="matrix(2.15345 4.45679e-09 -4.42021e-09 2.13577 150.664 302.842)" d="M28.4846 -31.6356C30.6003 -26.2874 33.4053 -17.9151 35.5611 -4.09133C40.5679 24.3414 42.3722 47.1644 17.6254 52.3753C2.06898 55.5474 -15.6159 34.3987 -20.6246 5.95538C-24.5305 -17.4761 -17.3683 -39.8012 -6.8897 -51.7864"></path>
  <path fill="#6C88D9" transform="matrix(2.15345 4.45679e-09 -4.42021e-09 2.13577 150.664 302.842)" d="M11.6945 -60.7144C15.8609 -56.9594 24.7705 -43.2888 25.4799 -39.4269C26.1894 -35.565 31.8415 -27.9425 35.5611 -4.09133C40.5679 24.3414 42.3722 47.1644 17.6254 52.3753C2.06898 55.5474 -15.6159 34.3987 -20.6246 5.95538C-26.6318 -30.0818 -6.45872 -63.5018 11.6945 -60.7144Z"></path>
  <path fill="#91A8EB" transform="matrix(1.67686 3.47045e-09 -4.32784e-09 2.09114 154.654 297.129)" d="M12.852 -54.2705C34.7657 -56.9566 30.7512 -32.1276 35.9027 -4.42416C42.3093 23.65 41.7965 47.0736 27.0352 50.769C12.2738 54.4643 -11.0831 33.6063 -19.115 5.70293C-26.2806 -23.2033 -9.06173 -51.5844 12.852 -54.2705Z"></path>
  <path fill="none" stroke="white" stroke-width="5" stroke-linecap="round" stroke-linejoin="round" transform="matrix(1.5 0 0 1.5 158.539 362.24)" d=""></path>
</svg>