<?xml version="1.0" encoding="utf-8"?>
<svg xmlns="http://www.w3.org/2000/svg" xmlns:xlink="http://www.w3.org/1999/xlink" width="512" height="512">
  <path fill="none" stroke="black" stroke-width="7" stroke-linejoin="round" transform="matrix(1.8 3.72529e-09 -3.72529e-09 1.8 210.879 409.868)" d="M18.9339 -46.7009C37.1572 -46.4262 49.6744 -38.9807 49.3266 5.30751C49.5401 34.3242 42.1555 44.3155 31.6397 44.0081C21.1239 43.7007 12.4846 43.7707 2.15118 43.8125C-8.31124 43.6742 -13.6506 32.5146 -13.8636 3.48483C-13.7939 -43.0117 0.71055 -46.9755 18.9339 -46.7009Z"></path>
  <path fill="none" stroke="black" stroke-width="7" stroke-linejoin="round" transform="matrix(-2.15345 -3.29802e-07 -3.27096e-07 2.13577 356.39 286.341)" d="M19.5083 -56.9805C22.2571 -52.0749 26.3382 -36.2429 25.7795 -32.3559C25.2207 -28.469 28.4098 -19.045 23.9418 4.90427C18.9417 33.3509 11.5119 55.644 -13.4084 51.3551C-29.0362 48.5625 -37.2612 23.3079 -32.2611 -5.13874C-25.9924 -40.8026 3.20573 -65.5009 19.5083 -56.9805Z"></path>
  <path fill="none" stroke="black" stroke-width="7" stroke-linejoin="round" transform="matrix(1.79976 0.0293645 -0.0293645 1.79976 266.684 287.506)" d="M0.209625 -80.0966C37.3348 -80.0966 84.5 -60 84.5 -1.90735e-06C84.5 41.1452 46.7396 76.2788 0.209625 76.2788C-62.1658 76.2788 -84 60.12 -84 -1.90735e-06C-84 -71.2881 -50.5087 -80.0966 0.209625 -80.0966Z"></path>
  <path fill="none" stroke="black" stroke-width="7" stroke-linejoin="round" transform="matrix(1.53671 3.18039e-09 -3.72529e-09 1.8 308.979 398.168)" d="M-23.9757 -47.1764C-6.52819 -51.6734 20.6751 -43.1801 26.2672 7.77736C23.9505 24.7008 5.44053 50.8168 -7.41299 46.8234C-20.2665 42.8299 -26.0322 41.0386 -37.4986 37.4762C-48.9649 33.9137 -38.6609 16.6156 -36.5103 6.7719C-42.8323 -39.3032 -41.4233 -42.6793 -23.9757 -47.1764Z"></path>
  <path fill="#6C88D9" transform="matrix(-2.15345 -3.29802e-07 -3.27096e-07 2.13577 356.39 286.341)" d="M19.5083 -56.9805C22.2571 -52.0749 26.3382 -36.2429 25.7795 -32.3559C25.2207 -28.469 28.4098 -19.045 23.9418 4.90427C18.9417 33.3509 11.5119 55.644 -13.4084 51.3551C-29.0362 48.5625 -37.2612 23.3079 -32.2611 -5.13874C-25.9924 -40.8026 3.20573 -65.5009 19.5083 -56.9805Z"></path>
  <path fill="#5170C8" transform="matrix(1.53671 3.18039e-09 -3.72529e-09 1.8 308.979 398.168)" d="M-23.9757 -47.1764C-6.52819 -51.6734 20.6751 -43.1801 26.2672 7.77736C23.9505 24.7008 5.44053 50.8168 -7.41299 46.8234C-20.2665 42.8299 -26.0322 41.0386 -37.4986 37.4762C-48.9649 33.9137 -38.6609 16.6156 -36.5103 6.7719C-42.8323 -39.3032 -41.4233 -42.6793 -23.9757 -47.1764Z"></path>
  <path fill="#839BE0" transform="matrix(1.20328 2.49031e-09 -2.91698e-09 1.40944 308.979 398.168)" d="M-26.3175 -48.0842C-8.87005 -52.5813 18.342 -43.8861 24.3025 11.337C20.1421 32.0126 1.05393 49.0386 -11.7996 45.0452C-24.6531 41.0517 -24.509 41.1503 -35.9754 37.5878C-47.4417 34.0254 -42.4693 23.9274 -38.475 10.3315C-45.1653 -40.0092 -43.7651 -43.5871 -26.3175 -48.0842Z"></path>
  <path fill="#6C88D9" transform="matrix(1.8 3.72529e-09 -3.72529e-09 1.8 210.879 409.868)" d="M18.9339 -46.7009C37.1572 -46.4262 49.6744 -38.9807 49.3266 5.30751C49.5401 34.3242 42.1555 44.3155 31.6397 44.0081C21.1239 43.7007 12.4846 43.7707 2.15118 43.8125C-8.31124 43.6742 -13.6506 32.5146 -13.8636 3.48483C-13.7939 -43.0117 0.71055 -46.9755 18.9339 -46.7009Z"></path>
  <path fill="#91A8EB" transform="matrix(-1.67686 -2.56813e-07 -3.2026e-07 2.09114 352.4 280.628)" d="M20.8687 -50.6675C42.6968 -47.5654 30.497 -24.0822 22.6639 3.84179C14.8308 31.7658 -1.96466 53.0962 -17.1914 50.9322C-32.4181 48.7683 -39.3148 24.1442 -33.0651 -4.13399C-26.8153 -32.4121 -0.959354 -53.7697 20.8687 -50.6675Z"></path>
  <path fill="none" stroke="black" stroke-width="7" stroke-miterlimit="4" transform="matrix(1.79976 0.0293645 -0.0293645 1.79976 225.233 127.333)" d="M1.90735e-06 -29.5C19.0538 -29.5 34.5 -16.1805 34.5 0.249992C34.5 16.6805 19.0538 30 1.90735e-06 30C-19.0538 30 -34.5 16.6805 -34.5 0.249992C-34.5 -16.1805 -19.0538 -29.5 1.90735e-06 -29.5Z"></path>
  <path fill="#6C88D9" transform="matrix(1.79976 0.0293645 -0.0293645 1.79976 266.684 287.506)" d="M0.209625 -80.0966C37.3348 -80.0966 84.5 -60 84.5 -1.90735e-06C84.5 41.1452 46.7396 76.2788 0.209625 76.2788C-62.1658 76.2788 -84 60.12 -84 -1.90735e-06C-84 -71.2881 -50.5087 -80.0966 0.209625 -80.0966Z"></path>
  <path fill="none" stroke="black" stroke-width="9" stroke-miterlimit="4" transform="translate(256 256)" d="M-57.0764 -186.484C-42.2938 -186.243 -30.4787 -175.714 -30.6867 -162.966C-30.8947 -150.219 -43.047 -140.081 -57.8296 -140.322C-72.6122 -140.563 -84.4272 -151.092 -84.2192 -163.84C-84.0113 -176.587 -71.859 -186.725 -57.0764 -186.484Z"></path>
  <path fill="none" stroke="black" stroke-width="9" stroke-miterlimit="4" transform="translate(256 256)" d="M-72.5894 -171.571C-60.2898 -171.371 -50.4593 -162.61 -50.6324 -152.004C-50.8054 -141.398 -60.9165 -132.963 -73.2161 -133.163C-85.5157 -133.364 -95.3462 -142.125 -95.1731 -152.731C-95.0001 -163.337 -84.889 -171.772 -72.5894 -171.571Z"></path>
  <path fill="none" stroke="black" stroke-width="9" stroke-miterlimit="4" transform="translate(256 256)" d="M-92.5965 -195.906C-85.9155 -195.796 -80.5756 -191.038 -80.6696 -185.277C-80.7636 -179.515 -86.2559 -174.933 -92.9369 -175.042C-99.6179 -175.151 -104.958 -179.91 -104.864 -185.671C-104.77 -191.433 -99.2775 -196.015 -92.5965 -195.906Z"></path>
  <path fill="#6C88D9" transform="matrix(1.79976 0.0293645 -0.0293645 1.79976 225.233 127.333)" d="M1.90735e-06 -29.5C19.0538 -29.5 34.5 -16.1805 34.5 0.249992C34.5 16.6805 19.0538 30 1.90735e-06 30C-19.0538 30 -34.5 16.6805 -34.5 0.249992C-34.5 -16.1805 -19.0538 -29.5 1.90735e-06 -29.5Z"></path>
  <path fill="#6C88D9" transform="matrix(0.775834 0.0126583 -0.0126583 0.775834 198.55 92.4031)" d="M0 -29.5C19.0538 -29.5 34.5 -16.1805 34.5 0.25C34.5 16.6805 19.0538 30 0 30C-19.0538 30 -34.5 16.6805 -34.5 0.25C-34.5 -16.1805 -19.0538 -29.5 0 -29.5Z"></path>
  <path fill="#6C88D9" transform="matrix(0.645518 0.0105321 -0.0105321 0.645518 183.1 103.471)" d="M7.62939e-06 -29.5C19.0538 -29.5 34.5 -16.1805 34.5 0.250015C34.5 16.6805 19.0538 30 7.62939e-06 30C-19.0538 30 -34.5 16.6805 -34.5 0.250015C-34.5 -16.1805 -19.0538 -29.5 7.62939e-06 -29.5Z"></path>
  <path fill="#6C88D9" transform="matrix(0.35064 0.00572097 -0.00572097 0.35064 163.235 70.4384)" d="M0 -29.5C19.0538 -29.5 34.5 -16.1805 34.5 0.25C34.5 16.6805 19.0538 30 0 30C-19.0538 30 -34.5 16.6805 -34.5 0.25C-34.5 -16.1805 -19.0538 -29.5 0 -29.5Z"></path>
  <path fill="#91A8EB" transform="matrix(1.50913 0.0246226 -0.0246226 1.50913 265.32 287.506)" d="M0.249979 -81.5196C49.8787 -81.2985 84.5 -60 84.5 0C84.5 41.1452 46.78 74.5 0.25 74.5C-62.1254 74.5 -84 60.12 -84 0C-84 -71.2881 -62.1254 -81.5196 0.249979 -81.5196Z"></path>
  <clipPath id="cl_120">
    <path d="M269.414 143.358C336.23 144.448 420.526 182.002 418.764 289.988C417.556 364.039 348.565 426.162 264.822 424.796C152.561 422.965 113.739 393.241 115.504 285.04C117.598 156.738 178.133 141.868 269.414 143.358Z"></path>
  </clipPath>
  <g clip-path="url(#cl_120)">
    <path fill="#A6B8EF" transform="matrix(0.805953 0.0131497 -0.0151654 0.929491 320.978 252.385)" d="M0.249972 -81.5196C49.8787 -81.2985 84.5 -60 84.5 0C84.5 41.1452 67.1354 74.5 20.6054 74.5C-41.77 74.5 -84 60.12 -84 0C-84 -71.2881 -62.1254 -81.5197 0.249972 -81.5196Z"></path>
    <path fill="#C1CBE8" transform="matrix(0.197995 -0.202726 0.445703 0.435301 344.078 203.535)" d="M11.5671 -77.0972C58.0971 -77.0972 97.5959 -41.1452 97.5959 -2.05241e-05C97.5959 41.1452 73.4188 83.0524 26.8888 83.0524C-35.4866 83.0524 11.8087 60.12 11.8087 -1.92457e-05C11.8087 -41.1452 -34.9629 -77.0972 11.5671 -77.0972Z"></path>
    <path fill="#C1CBE8" transform="matrix(0.197995 -0.202726 0.184201 0.179903 388.521 267.891)" d="M48.93 -79.7642C80.6763 -79.0529 77.4946 -42.8888 62.8508 4.00568C48.2069 50.9002 -0.0393895 91.2964 -20.4536 67.777C-40.8678 44.2577 -16.8141 31.8032 -0.458961 -5.13878C15.8962 -42.0808 17.1838 -80.4755 48.93 -79.7642Z"></path>
  </g>
  <path fill="#91A8EB" transform="matrix(1.37947 2.85496e-09 -2.85496e-09 1.37947 210.879 346.868)" d="M24.4952 -1.2898C42.7185 -1.01517 56.3328 -1.60165 56.0053 49.891C55.4474 75.3729 47.7465 89.848 37.2308 89.5405C26.715 89.2331 18.0757 89.3031 7.74232 89.3449C-2.63778 89.3136 -9.95891 72.5138 -9.40109 47.0319C-9.3514 -6.66929 6.27187 -1.56444 24.4952 -1.2898Z"></path>
  <path fill="#91A8EB" transform="matrix(1.79976 0.0293645 -0.0293645 1.79976 225.233 127.333)" d="M1.90735e-06 -22.5C14.6355 -22.5 26.5 -12.3145 26.5 0.249992C26.5 12.8145 14.6355 23 1.90735e-06 23C-14.6355 23 -26.5 12.8145 -26.5 0.249992C-26.5 -12.3145 -14.6355 -22.5 1.90735e-06 -22.5Z"></path>
  <path fill="#91A8EB" transform="matrix(0.606874 0.00990163 -0.00990163 0.606874 198.55 94.6102)" d="M0 -22.5C14.6355 -22.5 26.5 -12.3145 26.5 0.249969C26.5 12.8144 14.6355 23 0 23C-14.6355 23 -26.5 12.8144 -26.5 0.249969C-26.5 -12.3145 -14.6355 -22.5 0 -22.5Z"></path>
  <path fill="#91A8EB" transform="matrix(0.504938 0.00823846 -0.00823846 0.504938 183.1 105.308)" d="M1.52164e-05 -22.5C14.6356 -22.5 26.5 -12.3145 26.5 0.25C26.5 12.8145 14.6356 23 1.53012e-05 23C-14.6355 23 -26.5 12.8145 -26.5 0.25C-26.5 -12.3145 -14.6355 -22.5 1.52164e-05 -22.5Z"></path>
  <path fill="#91A8EB" transform="matrix(0.274279 0.00447507 -0.00447507 0.274279 164.231 72.5211)" d="M3.05176e-05 -22.4262C14.2962 -22.4262 25.8855 -12.2741 25.8855 0.249207C25.8855 12.7725 14.2962 22.9246 3.05176e-05 22.9246C-14.2961 22.9246 -25.8855 12.7725 -25.8855 0.249207C-25.8855 -12.2741 -14.2961 -22.4262 3.05176e-05 -22.4262Z"></path>
  <path fill="#C1CBE8" transform="matrix(0.073816 -0.11483 0.26388 0.16963 160.514 69.8582)" d="M-6.10352e-05 -11.5C14.6355 -11.5 28.006 -7.98328 28.006 -1.63201C28.006 4.71926 15.5058 0.400185 0.870295 0.400186C-13.7652 0.400185 -26.7661 4.37689 -26.7661 -1.97439C-26.7661 -8.32566 -14.6356 -11.5 -6.10352e-05 -11.5Z"></path>
  <path fill="#C1CBE8" transform="matrix(-0.166841 -0.570472 0.880441 -0.257495 183.05 131.62)" d="M0 -11.5C14.6355 -11.5 28.0061 -7.98329 28.0061 -1.63201C28.0061 4.71926 15.5059 0.400182 0.870357 0.400182C-13.7652 0.400181 -26.766 4.37688 -26.766 -1.97439C-26.766 -8.32566 -14.6355 -11.5 0 -11.5Z"></path>
  <path fill="#1B2B56" transform="matrix(1.78669 -0.21848 0.065544 0.536007 235.151 107.348)" d="M-9.31323e-09 -2.5C1.38071 -2.5 2.5 -1.38071 2.5 0C2.5 1.38071 1.38071 2.5 9.31323e-09 2.5C-1.38071 2.5 -2.5 1.38071 -2.5 0C-2.5 -1.38071 -1.38071 -2.5 -9.31323e-09 -2.5Z"></path>
  <path fill="none" stroke="#1B2B56" stroke-width="0.5" stroke-linecap="round" stroke-linejoin="round" transform="matrix(1.78289 -0.247598 0.247598 1.78289 243.795 106.236)" d="M1.98548 0.277966L6.02909 0.184229"></path>
  <path fill="#1B2B56" transform="matrix(1.78669 -0.21848 0.065544 0.536007 263.738 103.852)" d="M-9.62988e-07 -2.50003C1.38071 -2.50003 2.5 -1.38074 2.5 -3.05176e-05C2.5 1.38068 1.38071 2.49997 -9.44361e-07 2.49997C-1.38071 2.49997 -2.5 1.38068 -2.5 -3.05176e-05C-2.5 -1.38074 -1.38071 -2.50003 -9.62988e-07 -2.50003Z"></path>
  <path fill="#354B89" transform="matrix(1.46507 -0.885005 0.929571 0.72522 255.515 96.92)" d="M0 -2.5C1.38071 -2.5 2.5 -1.38071 2.5 1.49012e-07C2.5 1.38071 1.38071 2.5 0 2.5C-1.38071 2.5 -2.5 1.38071 -2.5 -1.49012e-07C-2.5 -1.38071 -1.38071 -2.5 0 -2.5Z"></path>
  <path fill="#354B89" transform="matrix(2.16254 0.296937 -0.629837 1.0733 239.543 97.8595)" d="M0 -2.98531C1.68306 -2.98531 3.04744 -1.64873 3.04744 3.04268e-05C3.04744 1.64879 1.68306 2.98537 0 2.98537C-1.68306 2.98537 -3.04744 1.64879 -3.04744 3.06084e-05C-3.04744 -1.64873 -1.68306 -2.98531 0 -2.98531Z"></path>
  <path fill="none" stroke="black" stroke-width="7" stroke-linecap="round" stroke-linejoin="round" transform="matrix(2.15345 4.45679e-09 -4.42021e-09 2.13577 150.498 296.005)" d="M25.602 -27.1067C26.5866 -21.1254 27.5228 -11.7954 25.8804 2.83213C22.5641 31.5149 14.4373 54.6739 -10.5734 50.9589C-26.2603 48.5262 -34.0926 24.8566 -30.7782 -3.80975C-28.4621 -26.7154 -16.8687 -45.9755 -4.35702 -54.9075"></path>
  <path fill="#6C88D9" transform="matrix(2.15345 4.45679e-09 -4.42021e-09 2.13577 150.498 296.005)" d="M15.7322 -59.1599C18.9359 -54.5433 24.5069 -39.1799 24.3211 -35.2568C24.1353 -31.3337 28.6353 -21.7025 25.8804 2.83213C22.5641 31.5149 14.4373 54.6739 -10.5734 50.9589C-26.2603 48.5262 -34.0926 24.8566 -30.7782 -3.80975C-27.1881 -39.3154 -1.3068 -66.0614 15.7322 -59.1599Z"></path>
  <path fill="#91A8EB" transform="matrix(1.67686 3.47045e-09 -4.32784e-09 2.09114 154.487 290.292)" d="M16.6027 -52.7766C38.7015 -51.3707 29.0589 -27.2447 24.9213 1.07351C20.9937 29.5183 8.19769 52.1465 -7.2473 51.5323C-22.6923 50.9181 -33.8655 26.7529 -31.5603 -1.90322C-29.0215 -30.7088 -5.49608 -54.1825 16.6027 -52.7766Z"></path>
  <path fill="none" stroke="white" stroke-width="5" stroke-linecap="round" stroke-linejoin="round" transform="matrix(1.5 0 0 1.5 158.539 362.24)" d=""></path>
</svg>