<?xml version="1.0" encoding="utf-8"?>
<svg xmlns="http://www.w3.org/2000/svg" xmlns:xlink="http://www.w3.org/1999/xlink" width="512" height="512">
  <path fill="none" stroke="black" stroke-width="6" stroke-linejoin="round" transform="matrix(1.8 0 0 1.52279 359.051 169.591)" d="M-2.33443 -16.9737C1.31979 -16.9737 3.97336 -16.9737 7.39518 -16.9737C14.4594 -16.9737 21.62 -12.9707 21.62 2.73135C21.62 18.4334 21.62 47.7067 21.62 56.4809C21.62 99.4374 -41.88 99.3952 -41.88 56.4387C-41.88 45.6553 -41.88 25.833 -41.88 13.3474C-41.88 0.86171 -35.6186 -16.9737 -19.5388 -16.9737C-18.3351 -16.9737 -17.2002 -16.9737 -16.1277 -16.9737"></path>
  <path fill="none" stroke="black" stroke-width="6" stroke-linejoin="round" transform="matrix(1.8 0 0 1.64041 359.051 251.837)" d="M-41.8712 0.573394C-42.6644 -42.0417 20.8246 -43.2235 21.6178 -0.608372C21.9327 16.3084 22.458 44.5287 22.7843 62.0604C22.899 68.2201 14.6011 79.6921 -8.62991 80.3951C-31.8609 81.098 -40.5726 70.3372 -40.662 65.536C-40.9902 47.9016 -41.6388 13.0576 -41.8712 0.573394Z"></path>
  <path fill="#503F7E" transform="matrix(1.8 0 0 1.52279 359.051 169.591)" d="M-41.88 13.3474C-41.88 0.861706 -35.6186 -16.9737 -19.5388 -16.9737C-3.45898 -16.9737 0.330944 -16.9737 7.39518 -16.9737C14.4594 -16.9737 21.62 -12.9707 21.62 2.73135C21.62 18.4334 21.62 47.7067 21.62 56.4809C21.62 99.4374 -41.88 99.3952 -41.88 56.4387C-41.88 45.6553 -41.88 25.833 -41.88 13.3474Z"></path>
  <path fill="#503F7E" transform="matrix(1.8 0 0 1.64041 359.051 251.837)" d="M-41.8712 0.573393C-42.6644 -42.0417 20.8246 -43.2235 21.6178 -0.608373C21.9327 16.3084 22.458 44.5287 22.7843 62.0604C22.899 68.2201 14.6011 79.6921 -8.62991 80.3951C-31.8609 81.098 -40.5726 70.3372 -40.662 65.536C-40.9902 47.9016 -41.6388 13.0576 -41.8712 0.573393Z"></path>
  <path fill="none" stroke="black" stroke-width="5" stroke-linejoin="round" transform="matrix(1.67985 0 0 1.8 269.501 356.202)" d="M3.24853 -15.6843C21.4653 -15.1617 34.2676 -10.6205 32.7074 36.746C32.6824 50.8531 36.1986 65.8994 21.2075 74.0589C9.63882 73.9668 -3.28459 74.7731 -19.7493 74.5086C-30.5867 65.8994 -30.4431 50.8531 -30.4431 34.0309C-29.5284 -12.4507 -14.9683 -16.207 3.24853 -15.6843Z"></path>
  <path fill="#453279" transform="matrix(1.67985 0 0 1.8 269.501 356.202)" d="M3.24853 -15.6843C21.4653 -15.1617 34.2676 -10.6205 32.7074 36.746C32.6824 50.8531 36.1986 65.8994 21.2075 74.0589C9.63882 73.9668 -3.28459 74.7731 -19.7493 74.5086C-30.5867 65.8994 -30.4431 50.8531 -30.4431 34.0309C-29.5284 -12.4507 -14.9683 -16.207 3.24853 -15.6843Z"></path>
  <path fill="none" stroke="black" stroke-width="5" stroke-linejoin="round" transform="matrix(1.67985 0 0 1.8 191.63 362.835)" d="M-7.16745 -14.2682C11.0031 -15.587 24.2565 -12.3642 28.1934 34.882C30.3751 53.6571 34.104 68.0935 19.0938 75.435C3.6202 75.8066 -7.06681 76.013 -21.9033 75.6727C-37.1317 69.92 -33.6623 55.0117 -34.9015 38.5553C-39.3776 -7.74602 -25.338 -12.9495 -7.16745 -14.2682Z"></path>
  <path fill="none" stroke="black" stroke-width="5" stroke-linejoin="round" transform="matrix(1.79976 0.0276995 -0.0293645 1.69771 261.873 279.649)" d="M-11.3238 -80.2543C25.8014 -80.2543 54.9476 -94.6926 58.9092 -40.8672C62.8708 12.9582 37.0524 74.7499 0.0572916 75.3534C-14.1177 75.5847 -17.7665 75.6442 -48.2096 76.1409C-78.6526 76.6376 -84.25 60.12 -84.25 9.53674e-07C-86.6294 -86.0849 -88.6034 -78.4854 -12.7475 -80.2208"></path>
  <path fill="#503F7E" transform="matrix(1.67985 0 0 1.8 191.63 362.835)" d="M-7.16745 -14.2682C11.0031 -15.587 24.2565 -12.3642 28.1934 34.882C30.3751 53.6571 34.104 68.0935 19.0938 75.435C3.6202 75.8066 -7.06681 76.013 -21.9033 75.6727C-37.1317 69.92 -33.6623 55.0117 -34.9015 38.5553C-39.3776 -7.74602 -25.338 -12.9495 -7.16745 -14.2682Z"></path>
  <path fill="none" stroke="black" stroke-width="5" stroke-linejoin="round" transform="matrix(1.53139 0 0 1.39334 219.655 125.584)" d="M1.90735e-06 -40C20.9426 -40 35.0096 -26.8589 47.8597 -2.20017C49.1253 -3.81498 50.3123 -3.57652 51.1974 -3.11681C52.0824 -2.6571 52.5509 -1.60561 52.2206 -0.665335C53.8523 0.0632067 55.2854 1.47333 55.8775 2.67699C56.9197 4.79567 57.6743 10.5072 53.7931 11.8212C58.5977 31.9882 20.3682 22.0914 -1.13888e-05 22.0914C-20.2357 22.0914 -45.0732 28.3281 -41.8836 12.9784C-44.6787 11.8212 -48.2008 8.95145 -46.5316 4.29176C-45.7036 1.98007 -43.8185 0.567096 -42.3936 0.567005C-41.0392 0.566917 -42.9934 -2.19999 -40.2188 -3.8149C-39.0195 -4.5129 -37.7273 -4.43211 -36.6068 -4.12355C-28.0141 -23.731 -20.4124 -40 1.90735e-06 -40Z"></path>
  <path fill="#503F7E" transform="matrix(1.79976 0.0276995 -0.0293645 1.69771 261.873 279.649)" d="M-11.3238 -80.2543C25.8014 -80.2543 54.9476 -94.6926 58.9092 -40.8672C62.8708 12.9582 37.0524 74.7499 0.0572916 75.3534C-14.1177 75.5847 -17.7665 75.6442 -48.2096 76.1409C-78.6526 76.6376 -84.25 60.12 -84.25 9.53674e-07C-86.6442 -86.62 -88.6279 -78.3873 -11.3238 -80.2543Z"></path>
  <clipPath id="cl_d3">
    <path d="M243.85 143.087C310.666 144.115 363.546 120.411 369.096 211.9C374.645 303.39 326.363 407.579 259.763 407.579C234.245 407.579 227.676 407.579 172.872 407.579C118.067 407.579 108.478 379.382 110.243 277.316C108.478 130.193 104.666 144.115 243.85 143.087Z"></path>
  </clipPath>
  <g clip-path="url(#cl_d3)">
    <path fill="#655494" transform="matrix(1.8 0 0 1.8 298.999 261.728)" d="M-0.158644 -48.2655C25.513 -48.2655 46.324 -26.6563 46.324 0C46.324 26.6563 25.513 48.2655 -0.158644 48.2655C-25.8303 48.2655 -46.6413 26.6563 -46.6413 0C-46.6413 -26.6563 -25.8303 -48.2655 -0.158644 -48.2655Z"></path>
  </g>
  <path fill="none" stroke="black" stroke-width="2" stroke-linejoin="round" transform="matrix(3.88825 -0.763212 0.691401 3.5224 226.454 47.3358)" d="M-4.34758 -5.25471C-4.34758 -11.5047 3.66088 -11.5047 3.66088 -5.25472C3.66088 0.995284 3.66088 12.5 3.66088 12.5L-4.57314 12.5C-4.57314 12.5 -4.34758 0.995284 -4.34758 -5.25471Z"></path>
  <path fill="none" stroke="black" stroke-width="2" stroke-linejoin="round" transform="matrix(3.5224 -0.691401 0.691401 3.5224 192.246 52.7486)" d="M-5.1645 -6.50117C-5.1645 -12.7512 6 -12.7512 6 -6.50117C6 -0.251166 6 12.5 6 12.5L-6 12.5C-6 12.5 -5.1645 -0.251167 -5.1645 -6.50117Z"></path>
  <path fill="#453279" transform="matrix(3.88825 -0.763212 0.691401 3.5224 226.454 47.3358)" d="M-4.34758 -5.25471C-4.34758 -11.5047 3.66088 -11.5047 3.66088 -5.25472C3.66088 0.995284 3.66088 12.5 3.66088 12.5L-4.57314 12.5C-4.57314 12.5 -4.34758 0.995284 -4.34758 -5.25471Z"></path>
  <path fill="none" stroke="#161616" stroke-width="0.5" stroke-linecap="round" stroke-linejoin="round" transform="matrix(3.88825 -0.763212 0.691401 3.5224 221.661 27.8041)" d="M4.30705e-06 1.51652L3.59227e-06 10.5382"></path>
  <path fill="#503F7E" transform="matrix(3.5224 -0.691401 0.691401 3.5224 192.246 52.7486)" d="M-5.1645 -6.50117C-5.1645 -12.7512 6 -12.7512 6 -6.50117C6 -0.251166 6 12.5 6 12.5L-6 12.5C-6 12.5 -5.1645 -0.251167 -5.1645 -6.50117Z"></path>
  <path fill="none" stroke="#161616" stroke-width="0.5" stroke-linecap="round" stroke-linejoin="round" transform="matrix(3.5224 -0.691401 0.691401 3.5224 192.461 32.7301)" d="M9.72213e-07 7.65589e-06L4.78691e-06 10.5382"></path>
  <path fill="#503F7E" transform="matrix(1.53139 0 0 1.39334 219.655 125.584)" d="M1.90735e-06 -40C20.9426 -40 35.0096 -26.8589 47.8597 -2.20017C49.1253 -3.81498 50.3123 -3.57652 51.1974 -3.11681C52.0824 -2.6571 52.5509 -1.60561 52.2206 -0.665335C53.8523 0.0632067 55.2854 1.47333 55.8775 2.67699C56.9197 4.79567 57.6743 10.5072 53.7931 11.8212C58.5977 31.9882 20.3682 22.0914 -1.13888e-05 22.0914C-20.2357 22.0914 -45.0732 28.3281 -41.8836 12.9784C-44.6787 11.8212 -48.2008 8.95145 -46.5316 4.29176C-45.7036 1.98007 -43.8185 0.567096 -42.3936 0.567005C-41.0392 0.566917 -42.9934 -2.19999 -40.2188 -3.8149C-39.0195 -4.5129 -37.7273 -4.43211 -36.6068 -4.12355C-28.0141 -23.731 -20.4124 -40 1.90735e-06 -40Z"></path>
  <clipPath id="cl_d4">
    <path d="M219.655 69.8503C251.726 69.8503 273.268 88.1603 292.946 122.518C294.884 120.268 296.702 120.601 298.058 121.241C299.413 121.882 300.13 123.347 299.624 124.657C302.123 125.672 304.318 127.637 305.225 129.314C306.821 132.266 307.976 140.224 302.033 142.055C309.39 170.155 250.846 156.365 219.655 156.365C188.666 156.365 150.63 165.055 155.515 143.667C151.234 142.055 145.841 138.056 148.397 131.564C149.665 128.343 152.552 126.374 154.734 126.374C156.808 126.374 153.815 122.519 158.064 120.269C159.901 119.296 161.88 119.409 163.596 119.838C176.754 92.5185 188.395 69.8503 219.655 69.8503Z"></path>
  </clipPath>
  <g clip-path="url(#cl_d4)">
    <path fill="#7463A5" transform="matrix(1.8 2.98023e-08 0.00759348 1.8 212.21 110.441)" d="M1.90735e-06 -5.5C3.866 -5.5 7 -2.92564 7 0.25C7 3.42564 3.866 6 1.90735e-06 6C-3.86599 6 -7 3.42564 -7 0.25C-7 -2.92564 -3.86599 -5.5 1.90735e-06 -5.5Z"></path>
    <path fill="#7463A5" transform="matrix(1.83618 3.04014e-08 0.00759348 1.8 264.759 102.295)" d="M0 -5.00001C2.76142 -5.00001 5 -2.6495 5 0.249992C5 3.14949 2.76142 5.49999 0 5.49999C-2.76142 5.49999 -5 3.14949 -5 0.249992C-5 -2.6495 -2.76142 -5.00001 0 -5.00001Z"></path>
    <path fill="none" stroke="#131212" stroke-width="1" stroke-linecap="round" stroke-linejoin="round" transform="matrix(2.30699 -0.373724 0.274137 1.69224 242.99 95.5994)" d="M1.44192e-06 7.21529e-06L2.92891 -0.71456"></path>
    <path fill="none" stroke="#131212" stroke-width="1" stroke-linecap="round" stroke-linejoin="round" transform="matrix(2.30699 -0.373724 0.274137 1.69224 221.239 94.7697)" d="M2.38419e-07 -1.48459e-07L4.25731 1.79213"></path>
    <path fill="#131212" transform="matrix(2.47104 -0.400299 0.405754 2.50471 235.024 97.8799)" d="M-2.27592e-08 -4.03018e-06L1.9614 0.352734L0.91509 1.42246L-2.27592e-08 -4.03018e-06Z"></path>
    <path fill="none" stroke="#131212" stroke-width="0.5" stroke-linecap="round" stroke-linejoin="round" transform="matrix(1.93759 -0.313883 0.31816 1.96399 238.084 101.415)" d="M-5.96828e-07 -0.711224L-4.43867e-06 1.1102"></path>
    <path fill="#32225E" transform="matrix(1.74285 0.441491 -0.424043 1.74552 231.872 90.0143)" d="M-2.87169e-08 -1.92715C1.62851 -1.92715 2.94867 -1.06433 2.94867 7.58546e-06C2.94867 1.06435 1.62851 1.92716 2.87169e-08 1.92716C-1.62851 1.92716 -2.94867 1.06435 -2.94867 7.67333e-06C-2.94867 -1.06433 -1.62851 -1.92715 -2.87169e-08 -1.92715Z"></path>
    <path fill="#32225E" transform="matrix(1.71213 0.433708 -0.412468 1.69787 243.065 89.1394)" d="M-3.8147e-06 -1.89919C0.889985 -1.89919 1.61146 -1.04889 1.61146 -2.40127e-08C1.61146 1.04889 0.889985 1.89919 -3.8147e-06 1.89919C-0.889993 1.89919 -1.61147 1.04889 -1.61147 2.40127e-08C-1.61147 -1.04889 -0.889993 -1.89919 -3.8147e-06 -1.89919Z"></path>
  </g>
  <path fill="none" stroke="black" stroke-width="6" stroke-linejoin="round" transform="matrix(1.8 0 0 1.8 170.253 262.174)" d="M-10.7613 31.0709C-49.9318 24.4535 -39.354 -38.1593 -0.183559 -31.5419C16.4997 -28.7235 44.3306 -24.0218 61.6203 -21.1009C67.695 -20.0746 77.4349 -9.79867 73.8303 13.1618C70.2258 36.1222 58.0397 42.694 53.3048 41.8941C35.9138 38.9561 1.55062 33.1508 -10.7613 31.0709Z"></path>
  <path fill="none" stroke="black" stroke-width="6" stroke-linecap="round" stroke-linejoin="bevel" transform="matrix(1.8 0 0 1.67094 170.253 171.927)" d="M26.2233 38.3726C26.2233 46.2536 26.2233 53.0353 26.2233 56.5422C26.2233 99.4987 -37.2767 99.4565 -37.2767 56.5C-37.2767 45.7166 -37.2767 25.8944 -37.2767 13.4087C-37.2767 0.923035 -31.0153 -16.9124 -14.9355 -16.9124C-13.1619 -16.9124 -11.5378 -16.9124 -10.0423 -16.9124"></path>
  <path fill="#503F7E" transform="matrix(1.8 0 0 1.8 170.253 262.174)" d="M-10.7613 31.0709C-51.5586 24.1786 -40.9809 -38.4342 -0.183559 -31.5419C16.4997 -28.7235 44.3306 -24.0218 61.6203 -21.1009C67.695 -20.0746 77.4349 -9.79867 73.8303 13.1618C70.2258 36.1222 58.0397 42.694 53.3048 41.8941C35.9138 38.9561 1.55062 33.1508 -10.7613 31.0709Z"></path>
  <path fill="#503F7E" transform="matrix(1.8 0 0 1.67094 170.253 171.927)" d="M-37.2767 13.4087C-37.2767 0.923035 -31.0153 -16.9124 -14.9355 -16.9124C1.14433 -16.9124 4.93425 -16.9124 11.9985 -16.9124C19.0627 -16.9124 26.2233 -12.9094 26.2233 2.79268C26.2233 18.4947 26.2233 47.7681 26.2233 56.5422C26.2233 94.3272 -37.2767 94.285 -37.2767 56.5C-37.2767 45.7166 -37.2767 25.8944 -37.2767 13.4087Z"></path>
  <path fill="none" stroke="black" stroke-width="7" stroke-linecap="round" stroke-miterlimit="4" transform="translate(256 256)" d="M-6.14386 -136.948C52.2601 -136.948 99.6059 -136.873 99.6059 -136.781C99.6059 -136.689 52.2601 -136.615 -6.14386 -136.615C-64.5478 -136.615 -111.894 -136.689 -111.894 -136.781C-111.894 -136.873 -64.5478 -136.948 -6.14386 -136.948Z"></path>
  <path fill="#8D5A3E" transform="matrix(1.27409 9.56891e-23 -1.50956e-25 0.00200997 249.856 119.219)" d="M-1.02305e-30 -83C45.8396 -83 83 -45.8396 83 0C83 45.8396 45.8396 83 1.02305e-30 83C-45.8396 83 -83 45.8396 -83 0C-83 -45.8396 -45.8396 -83 -1.02305e-30 -83Z"></path>
  <path fill="#65524C" transform="matrix(0.732603 5.50213e-23 -1.39281e-25 0.00185451 249.856 119.246)" d="M0 -97.5C45.8396 -97.5 83 -53.8478 83 -2.68187e-25C83 53.8478 45.8396 97.5 0 97.5C-45.8396 97.5 -83 53.8478 -83 2.68187e-25C-83 -53.8478 -45.8396 -97.5 0 -97.5Z"></path>
  <clipPath id="cl_dc">
    <path d="M249.856 119.065C283.438 119.065 310.662 119.146 310.662 119.246C310.662 119.346 283.438 119.427 249.856 119.427C216.274 119.427 189.05 119.346 189.05 119.246C189.05 119.146 216.274 119.065 249.856 119.065Z"></path>
  </clipPath>
  <g clip-path="url(#cl_dc)">
    <path fill="#281C18" transform="matrix(0.732603 5.50213e-23 -1.39281e-25 0.00185451 230.745 119.246)" d="M3.8147e-06 -97.5C45.8396 -97.5 83 -53.8478 83 -2.68187e-25C83 53.8478 45.8396 97.5 3.8147e-06 97.5C-45.8396 97.5 -83 53.8478 -83 2.68187e-25C-83 -53.8478 -45.8396 -97.5 3.8147e-06 -97.5Z"></path>
  </g>
  <path fill="none" stroke="black" stroke-width="7" stroke-linejoin="round" transform="translate(256 256)" d="M-110.671 -136.805C-110.685 -136.805 -110.698 -136.806 -110.709 -136.806C-110.709 -136.806 -156.311 -122.341 -156.534 -81.3774C-156.534 -81.3774 -139.16 -73.8584 -93.3282 -60.2483C-57.5869 -49.6345 -62.6492 -56.6714 -7.0665 -53.7359C16.793 -51.1274 62.959 -60.3993 62.959 -60.3993C62.959 -60.3993 62.6623 -69.4442 67.9277 -69.4442C73.1931 -69.4442 76.2347 -60.3993 76.2347 -60.3993C88.9785 -60.3993 100.393 -66.8493 109.976 -68.2442C140.175 -72.6398 143.8 -81.3774 143.8 -81.3774C143.8 -122.341 98.027 -136.806 98.027 -136.806C83.8013 -136.695 46.701 -136.615 -6.14386 -136.614C-58.7284 -136.614 -107.877 -136.694 -110.671 -136.805"></path>
  <path fill="none" stroke="black" stroke-width="21" stroke-linecap="round" stroke-linejoin="round" transform="matrix(0.972 7.30008e-23 -7.30008e-23 0.972 91.4201 174.623)" d="M8.27734 0C8.27734 0 26.1524 7.73552 73.3042 21.7377C110.075 32.6572 104.867 25.4176 162.051 28.4377C186.598 31.1214 234.093 21.5824 234.093 21.5824C234.093 21.5824 233.788 12.2769 239.205 12.2769C244.622 12.2769 247.752 21.5824 247.752 21.5824C260.863 21.5824 272.606 14.9466 282.465 13.5115C313.534 8.9893 317.263 0 317.263 0C317.263 -0.789502 317.246 -1.56944 317.214 -2.33988"></path>
  <path fill="none" stroke="white" stroke-width="14" stroke-linecap="round" stroke-linejoin="round" transform="matrix(0.972 7.30008e-23 -7.30008e-23 0.972 91.4201 174.623)" d="M8.27734 0C8.27734 0 26.1524 7.73552 73.3042 21.7377C110.075 32.6572 104.867 25.4176 162.051 28.4377C186.598 31.1214 234.093 21.5824 234.093 21.5824C234.093 21.5824 233.788 12.2769 239.205 12.2769C244.622 12.2769 247.752 21.5824 247.752 21.5824C260.863 21.5824 272.606 14.9466 282.465 13.5115C313.534 8.9893 317.263 0 317.263 0C317.263 -1.08846 317.231 -2.15874 317.17 -3.21105"></path>
  <path fill="#8D5A3E" transform="matrix(0.972 7.30008e-23 -7.30008e-23 0.972 91.4201 174.623)" d="M8.27734 0C8.27734 0 28.6505 6.97292 72.0222 20.0838C95.5232 27.188 124.361 26.4472 162.051 28.4377C186.598 31.1214 234.093 21.5824 234.093 21.5824C234.093 21.5824 234.776 13.5868 238.41 13.5868C242.043 13.5868 247.752 21.5824 247.752 21.5824C260.529 21.5824 277.837 13.8723 286.934 12.7945C317.391 9.18614 317.263 0 317.263 0C317.263 -42.1439 270.172 -57.0257 270.172 -57.0257C255.536 -56.9111 217.367 -56.8284 163 -56.8281C108.633 -56.8279 57.8352 -56.9111 55.4223 -57.0258C55.4223 -57.0258 8.50731 -42.1439 8.27734 0Z"></path>
  <clipPath id="cl_dd">
    <path d="M99.4657 174.623C99.4657 174.623 119.268 181.4 161.426 194.144C184.269 201.049 212.299 200.329 248.934 202.264C272.793 204.873 318.959 195.601 318.959 195.601C318.959 195.601 319.623 187.829 323.154 187.829C326.686 187.829 332.235 195.601 332.235 195.601C344.655 195.601 361.478 188.107 370.32 187.059C399.924 183.552 399.8 174.623 399.8 174.623C399.8 133.659 354.027 119.194 354.027 119.194C339.801 119.305 302.701 119.385 249.856 119.386C197.011 119.386 147.636 119.305 145.291 119.194C145.291 119.194 99.6892 133.659 99.4657 174.623Z"></path>
  </clipPath>
  <g clip-path="url(#cl_dd)">
    <path fill="#7F4728" transform="matrix(2.61439 -0.086419 0.123843 3.74656 194.452 174.137)" d="M-14.8742 -9.69253L16.7537 -6.3603L15.092 9.39556L-21.0084 4.35254L-14.8742 -9.69253Z"></path>
  </g>
  <path fill="none" stroke="#612F13" stroke-width="1" stroke-linecap="round" stroke-linejoin="round" transform="matrix(0.0654088 -1.56104 1.56104 0.0654088 205.396 148.492)" d="M1.02357 0.373775L4.21644 0.641899"></path>
  <path fill="none" stroke="#612F13" stroke-width="1" stroke-linecap="round" stroke-linejoin="round" transform="matrix(0.0654088 -1.56104 1.56104 0.0654088 193.246 148.006)" d="M1.02358 0.373772L4.21645 0.641895"></path>
  <clipPath id="cl_de">
    <path d="M99.4657 174.623C99.4657 174.623 119.268 181.4 161.426 194.144C184.269 201.049 212.299 200.329 248.934 202.264C272.793 204.873 318.959 195.601 318.959 195.601C318.959 195.601 319.623 187.829 323.154 187.829C326.686 187.829 332.235 195.601 332.235 195.601C344.655 195.601 361.478 188.107 370.32 187.059C399.924 183.552 399.8 174.623 399.8 174.623C399.8 133.659 354.027 119.194 354.027 119.194C339.801 119.305 302.701 119.385 249.856 119.386C197.011 119.386 147.636 119.305 145.291 119.194C145.291 119.194 99.6892 133.659 99.4657 174.623Z"></path>
  </clipPath>
  <g clip-path="url(#cl_de)">
    <clipPath id="cl_df">
      <path d="M99.4657 174.623C99.4657 174.623 119.268 181.4 161.426 194.144C184.269 201.049 212.299 200.329 248.934 202.264C272.793 204.873 318.959 195.601 318.959 195.601C318.959 195.601 319.623 187.829 323.154 187.829C326.686 187.829 332.235 195.601 332.235 195.601C344.655 195.601 361.478 188.107 370.32 187.059C399.924 183.552 399.8 174.623 399.8 174.623C399.8 133.659 354.027 119.194 354.027 119.194C339.801 119.305 302.701 119.385 249.856 119.386C197.011 119.386 147.636 119.305 145.291 119.194C145.291 119.194 99.6892 133.659 99.4657 174.623Z"></path>
    </clipPath>
    <g clip-path="url(#cl_df)">
      <path fill="#7F4728" transform="matrix(0.972 7.30008e-23 -7.30008e-23 0.972 379.618 150.566)" d="M7.62939e-06 -32.5C25.6812 -32.5 46.5 -17.8373 46.5 0.249992C46.5 18.3373 25.6812 33 7.62939e-06 33C-25.6812 33 -46.5 18.3373 -46.5 0.249992C-46.5 -17.8373 -25.6812 -32.5 7.62939e-06 -32.5Z"></path>
    </g>
    <path fill="none" stroke="#612F13" stroke-width="1" stroke-linecap="round" stroke-linejoin="round" transform="matrix(-1.42852 0.632822 -0.632822 -1.42852 338.794 155.183)" d="M1.02357 0.373779L4.21644 0.641903"></path>
    <path fill="none" stroke="#612F13" stroke-width="1" stroke-linecap="round" stroke-linejoin="round" transform="matrix(-0.810895 1.33551 -1.33551 -0.810895 353.86 171.707)" d="M1.02357 0.373773L4.21644 0.641897"></path>
    <path fill="none" stroke="#612F13" stroke-width="1" stroke-linecap="round" stroke-linejoin="round" transform="matrix(-1.5617 -0.0472275 0.0472275 -1.5617 339.28 145.463)" d="M1.02357 0.373779L4.21644 0.641903"></path>
  </g>
</svg>