<?xml version="1.0" encoding="utf-8"?>
<svg xmlns="http://www.w3.org/2000/svg" xmlns:xlink="http://www.w3.org/1999/xlink" width="512" height="512">
  <path fill="none" stroke="black" stroke-width="6" stroke-linejoin="round" transform="matrix(1.8 0 0 1.52279 359.051 169.591)" d="M-18.6509 -16.9737C-14.9966 -16.9737 -12.3431 -16.9737 -8.92125 -16.9737C-1.85701 -16.9737 5.30361 -12.9707 5.30361 2.73135C5.30361 18.4334 5.30361 47.7067 5.30361 56.4809C5.30361 99.4374 -58.1964 99.3952 -58.1964 56.4387C-58.1964 45.6553 -58.1964 25.833 -58.1964 13.3474C-58.1964 0.86171 -51.935 -16.9737 -35.8552 -16.9737C-34.6515 -16.9737 -33.5167 -16.9737 -32.4442 -16.9737"></path>
  <path fill="none" stroke="black" stroke-width="6" stroke-linejoin="round" transform="matrix(1.8 0 0 1.64041 359.051 251.837)" d="M-58.1961 -0.419859C-57.6498 -43.0389 5.84501 -42.225 5.29871 0.394035C5.08185 17.3123 4.72009 45.5352 4.49534 63.0685C4.41637 69.2288 -4.23789 80.4343 -27.4795 80.407C-50.7211 80.3796 -59.0904 69.3503 -59.0289 64.5487C-58.8028 46.9127 -58.3561 12.0655 -58.1961 -0.419859Z"></path>
  <path fill="#503F7E" transform="matrix(1.8 0 0 1.52279 359.051 169.591)" d="M-58.1964 13.3474C-58.1964 0.861706 -51.935 -16.9737 -35.8552 -16.9737C-19.7754 -16.9737 -15.9855 -16.9737 -8.92125 -16.9737C-1.85701 -16.9737 5.30361 -12.9707 5.30361 2.73135C5.30361 18.4334 5.30361 47.7067 5.30361 56.4809C5.30361 99.4374 -58.1964 99.3952 -58.1964 56.4387C-58.1964 45.6553 -58.1964 25.833 -58.1964 13.3474Z"></path>
  <path fill="#503F7E" transform="matrix(1.8 0 0 1.64041 359.051 251.837)" d="M-58.1961 -0.41986C-57.6498 -43.0389 5.84501 -42.225 5.29871 0.394034C5.08185 17.3123 4.72009 45.5352 4.49534 63.0685C4.41637 69.2288 -4.23789 80.4343 -27.4795 80.407C-50.7211 80.3796 -59.0904 69.3503 -59.0289 64.5487C-58.8028 46.9127 -58.3561 12.0655 -58.1961 -0.41986Z"></path>
  <path fill="none" stroke="black" stroke-width="5" stroke-linejoin="round" transform="matrix(1.67985 0 0 1.8 269.501 356.202)" d="M12.9094 -15.6842C31.1243 -15.1054 43.9104 -10.5248 42.1827 36.8366C42.1078 50.9435 45.5538 65.9771 30.5644 74.0509C18.9957 73.9588 6.07229 74.7652 -10.3924 74.5007C-21.2299 65.915 -21.0173 50.7491 -20.9578 33.927C-19.8788 -12.5515 -5.30543 -16.2629 12.9094 -15.6842Z"></path>
  <path fill="#453279" transform="matrix(1.67985 0 0 1.8 269.501 356.202)" d="M12.9094 -15.6842C31.1243 -15.1054 43.9104 -10.5248 42.1827 36.8366C42.1078 50.9435 45.5538 65.9771 30.5644 74.0509C18.9957 73.9588 6.07229 74.7652 -10.3924 74.5007C-21.2299 65.915 -21.0173 50.7491 -20.9578 33.927C-19.8788 -12.5515 -5.30543 -16.2629 12.9094 -15.6842Z"></path>
  <path fill="none" stroke="black" stroke-width="5" stroke-linejoin="round" transform="matrix(1.67985 0 0 1.8 191.63 362.835)" d="M1.14441e-05 -14.3439C18.2254 -14.3439 31.1711 -10.1719 31.1712 37.2169C31.7865 56.0934 34.5752 69.036 19.1016 75.646C3.62799 76.0176 -7.05902 76.224 -21.8955 75.8837C-36.732 69.3049 -32.1706 52.8104 -32.0389 36.314C-32.655 -10.1719 -18.2254 -14.3439 1.14441e-05 -14.3439Z"></path>
  <path fill="none" stroke="black" stroke-width="5" stroke-linejoin="round" transform="matrix(1.79976 0.0276995 -0.0293645 1.69771 278.53 279.649)" d="M-11.3238 -80.2543C25.8014 -80.2543 54.9476 -94.6926 58.9092 -40.8672C62.8708 12.9582 37.0524 74.7499 0.0572928 75.3534C-14.1177 75.5847 -17.7665 75.6442 -48.2096 76.1409C-78.6526 76.6376 -84.25 60.12 -84.25 0C-86.6294 -86.0849 -88.6034 -78.4854 -12.7475 -80.2208"></path>
  <path fill="#503F7E" transform="matrix(1.67985 0 0 1.8 191.63 362.835)" d="M1.14441e-05 -14.3439C18.2254 -14.3439 31.1711 -10.1719 31.1712 37.2169C31.7865 56.0934 34.5752 69.036 19.1016 75.646C3.62799 76.0176 -7.05902 76.224 -21.8955 75.8837C-36.732 69.3049 -32.1706 52.8104 -32.0389 36.314C-32.655 -10.1719 -18.2254 -14.3439 1.14441e-05 -14.3439Z"></path>
  <path fill="none" stroke="black" stroke-width="5" stroke-linejoin="round" transform="matrix(1.53139 0 0 1.39334 230.774 125.584)" d="M0 -40C20.9426 -40 35.0096 -26.8589 47.8597 -2.20017C49.1253 -3.81498 50.3123 -3.57652 51.1974 -3.11681C52.0824 -2.6571 52.5509 -1.60561 52.2206 -0.665335C53.8523 0.0632067 55.2854 1.47333 55.8775 2.67699C56.9197 4.79567 57.6743 10.5072 53.7931 11.8212C58.5977 31.9882 20.3682 22.0914 -1.32962e-05 22.0914C-20.2357 22.0914 -45.0732 28.3281 -41.8836 12.9784C-44.6787 11.8212 -48.2008 8.95145 -46.5316 4.29176C-45.7036 1.98007 -43.8185 0.567096 -42.3936 0.567005C-41.0392 0.566917 -42.9934 -2.19999 -40.2188 -3.8149C-39.0195 -4.5129 -37.7273 -4.43211 -36.6068 -4.12355C-28.0141 -23.731 -20.4124 -40 0 -40Z"></path>
  <path fill="#503F7E" transform="matrix(1.79976 0.0276995 -0.0293645 1.69771 278.53 279.649)" d="M-11.3238 -80.2543C25.8014 -80.2543 54.9476 -94.6926 58.9092 -40.8672C62.8708 12.9582 37.0524 74.7499 0.0572928 75.3534C-14.1177 75.5847 -17.7665 75.6442 -48.2096 76.1409C-78.6526 76.6376 -84.25 60.12 -84.25 0C-86.6442 -86.62 -88.6279 -78.3873 -11.3238 -80.2543Z"></path>
  <clipPath id="cl_323">
    <path d="M260.506 143.087C327.323 144.115 380.203 120.411 385.752 211.9C391.302 303.39 343.02 407.579 276.42 407.579C250.902 407.579 244.333 407.579 189.528 407.579C134.723 407.579 125.134 379.382 126.9 277.316C125.134 130.193 121.322 144.115 260.506 143.087Z"></path>
  </clipPath>
  <g clip-path="url(#cl_323)">
    <path fill="#655494" transform="matrix(1.8 0 0 1.8 315.655 261.728)" d="M-0.158646 -48.2655C25.513 -48.2655 46.324 -26.6563 46.324 0C46.324 26.6563 25.513 48.2655 -0.158646 48.2655C-25.8303 48.2655 -46.6413 26.6563 -46.6413 0C-46.6413 -26.6563 -25.8303 -48.2655 -0.158646 -48.2655Z"></path>
  </g>
  <path fill="none" stroke="black" stroke-width="2" stroke-linejoin="round" transform="matrix(3.88825 -0.763212 0.691401 3.5224 237.573 47.3358)" d="M-4.34758 -5.25471C-4.34758 -11.5047 3.66088 -11.5047 3.66088 -5.25471C3.66088 0.995287 3.66088 12.5 3.66088 12.5L-4.57314 12.5C-4.57314 12.5 -4.34758 0.995288 -4.34758 -5.25471Z"></path>
  <path fill="none" stroke="black" stroke-width="2" stroke-linejoin="round" transform="matrix(3.5224 -0.691401 0.691401 3.5224 203.365 52.7486)" d="M-5.1645 -6.50116C-5.1645 -12.7512 6 -12.7512 6 -6.50116C6 -0.251162 6 12.5 6 12.5L-6 12.5C-6 12.5 -5.1645 -0.251163 -5.1645 -6.50116Z"></path>
  <path fill="#453279" transform="matrix(3.88825 -0.763212 0.691401 3.5224 237.573 47.3358)" d="M-4.34758 -5.25471C-4.34758 -11.5047 3.66088 -11.5047 3.66088 -5.25471C3.66088 0.995287 3.66088 12.5 3.66088 12.5L-4.57314 12.5C-4.57314 12.5 -4.34758 0.995288 -4.34758 -5.25471Z"></path>
  <path fill="none" stroke="#161616" stroke-width="0.5" stroke-linecap="round" stroke-linejoin="round" transform="matrix(3.88825 -0.763212 0.691401 3.5224 232.78 27.8041)" d="M4.06863e-06 1.51652L3.35385e-06 10.5382"></path>
  <path fill="#503F7E" transform="matrix(3.5224 -0.691401 0.691401 3.5224 203.365 52.7486)" d="M-5.1645 -6.50117C-5.1645 -12.7512 6 -12.7512 6 -6.50117C6 -0.251166 6 12.5 6 12.5L-6 12.5C-6 12.5 -5.1645 -0.251167 -5.1645 -6.50117Z"></path>
  <path fill="none" stroke="#161616" stroke-width="0.5" stroke-linecap="round" stroke-linejoin="round" transform="matrix(3.5224 -0.691401 0.691401 3.5224 203.58 32.7301)" d="M4.95376e-07 7.65589e-06L4.31007e-06 10.5382"></path>
  <path fill="#503F7E" transform="matrix(1.53139 0 0 1.39334 230.774 125.584)" d="M0 -40C20.9426 -40 35.0096 -26.8589 47.8597 -2.20017C49.1253 -3.81498 50.3123 -3.57652 51.1974 -3.11681C52.0824 -2.6571 52.5509 -1.60561 52.2206 -0.665335C53.8523 0.0632067 55.2854 1.47333 55.8775 2.67699C56.9197 4.79567 57.6743 10.5072 53.7931 11.8212C58.5977 31.9882 20.3682 22.0914 -1.32962e-05 22.0914C-20.2357 22.0914 -45.0732 28.3281 -41.8836 12.9784C-44.6787 11.8212 -48.2008 8.95145 -46.5316 4.29176C-45.7036 1.98007 -43.8185 0.567096 -42.3936 0.567005C-41.0392 0.566917 -42.9934 -2.19999 -40.2188 -3.8149C-39.0195 -4.5129 -37.7273 -4.43211 -36.6068 -4.12355C-28.0141 -23.731 -20.4124 -40 0 -40Z"></path>
  <clipPath id="cl_324">
    <path d="M230.774 69.8503C262.845 69.8503 284.387 88.1603 304.065 122.518C306.004 120.268 307.821 120.601 309.177 121.241C310.532 121.882 311.249 123.347 310.744 124.657C313.242 125.672 315.437 127.637 316.344 129.314C317.94 132.266 319.095 140.224 313.152 142.055C320.509 170.155 261.965 156.365 230.774 156.365C199.785 156.365 161.749 165.055 166.634 143.667C162.353 142.055 156.96 138.056 159.516 131.564C160.784 128.343 163.671 126.374 165.853 126.374C167.927 126.374 164.934 122.519 169.183 120.269C171.02 119.296 172.999 119.409 174.715 119.838C187.873 92.5185 199.514 69.8503 230.774 69.8503Z"></path>
  </clipPath>
  <g clip-path="url(#cl_324)">
    <path fill="#7463A5" transform="matrix(1.8 2.98023e-08 0.00759348 1.8 237.183 110.441)" d="M9.53674e-07 -5.5C3.86599 -5.5 7 -2.92564 7 0.25C7 3.42564 3.86599 6 9.53674e-07 6C-3.86599 6 -7 3.42564 -7 0.25C-7 -2.92564 -3.86599 -5.5 9.53674e-07 -5.5Z"></path>
    <path fill="#7463A5" transform="matrix(1.83618 3.04014e-08 0.00759348 1.8 289.732 102.295)" d="M0 -5.00001C2.76142 -5.00001 5 -2.6495 5 0.249992C5 3.14949 2.76142 5.49999 0 5.49999C-2.76142 5.49999 -5 3.14949 -5 0.249992C-5 -2.6495 -2.76142 -5.00001 0 -5.00001Z"></path>
    <path fill="none" stroke="#131212" stroke-width="1" stroke-linecap="round" stroke-linejoin="round" transform="matrix(2.30699 -0.373724 0.274137 1.69224 267.963 95.5994)" d="M2.39559e-06 7.21529e-06L2.92892 -0.71456"></path>
    <path fill="none" stroke="#131212" stroke-width="1" stroke-linecap="round" stroke-linejoin="round" transform="matrix(2.30699 -0.373724 0.274137 1.69224 246.213 94.7697)" d="M9.53674e-07 -1.48459e-07L4.25731 1.79213"></path>
    <path fill="#131212" transform="matrix(2.47104 -0.400299 0.405754 2.50471 259.997 97.8799)" d="M4.54078e-07 -4.03018e-06L1.9614 0.352734L0.91509 1.42246L4.54078e-07 -4.03018e-06Z"></path>
    <path fill="none" stroke="#131212" stroke-width="0.5" stroke-linecap="round" stroke-linejoin="round" transform="matrix(1.93759 -0.313883 0.31816 1.96399 263.057 101.415)" d="M1.18428e-07 -0.711232L-3.72341e-06 1.11019"></path>
    <path fill="#32225E" transform="matrix(1.74285 0.441491 -0.424043 1.74552 256.845 90.0143)" d="M-1.93607e-06 -1.92716C1.6285 -1.92716 2.94867 -1.06434 2.94867 -4.39386e-08C2.94867 1.06434 1.6285 1.92716 -1.87863e-06 1.92716C-1.62851 1.92716 -2.94867 1.06434 -2.94867 4.39386e-08C-2.94867 -1.06434 -1.62851 -1.92716 -1.93607e-06 -1.92716Z"></path>
    <path fill="#32225E" transform="matrix(1.71213 0.433708 -0.412468 1.69787 268.038 89.1394)" d="M-5.72205e-06 -1.89918C0.889983 -1.89918 1.61146 -1.04889 1.61146 7.60538e-06C1.61146 1.0489 0.889983 1.8992 -5.72205e-06 1.8992C-0.889995 1.8992 -1.61147 1.0489 -1.61147 7.65341e-06C-1.61147 -1.04889 -0.889995 -1.89918 -5.72205e-06 -1.89918Z"></path>
  </g>
  <path fill="none" stroke="black" stroke-width="6" stroke-linejoin="round" transform="matrix(1.8 0 0 1.8 170.253 262.174)" d="M64.2871 -5.42695C26.3124 -17.0905 44.9562 -77.7919 82.9309 -66.1283C99.1049 -61.1606 126.086 -52.8736 142.848 -47.7254C148.737 -45.9165 157.056 -34.4594 150.491 -12.1641C143.926 10.1311 130.988 15.0595 126.397 13.6496C109.537 8.47121 76.2231 -1.76091 64.2871 -5.42695Z"></path>
  <path fill="none" stroke="black" stroke-width="6" stroke-linecap="round" stroke-linejoin="bevel" transform="matrix(1.8 0 0 1.67094 170.253 171.927)" d="M67.6765 -22.1348C75.1321 -19.7369 81.6162 -17.6515 84.8906 -16.5984C123.101 -4.3092 104.897 61.2244 66.6868 48.9352C57.095 45.8502 39.4631 40.1794 28.357 36.6075C17.251 33.0355 3.17764 21.47 7.77782 4.87218C8.1709 3.45392 8.53831 2.12828 8.88282 0.885242"></path>
  <path fill="#503F7E" transform="matrix(1.8 0 0 1.67094 170.253 171.927)" d="M28.357 36.6075C17.251 33.0355 3.17765 21.47 7.77783 4.87218C12.378 -11.7256 13.4622 -15.6376 15.4832 -22.9295C17.5042 -30.2213 23.1134 -36.4674 37.0804 -31.9753C51.0474 -27.4831 77.0861 -19.1085 84.8906 -16.5984C118.5 -5.78869 100.297 59.7449 66.6868 48.9352C57.095 45.8502 39.4631 40.1794 28.357 36.6075Z"></path>
  <path fill="none" stroke="black" stroke-width="7" stroke-linecap="round" stroke-miterlimit="4" transform="translate(256 256)" d="M-6.14386 -139.422C52.2601 -139.422 99.6059 -139.347 99.6059 -139.255C99.6059 -139.163 52.2601 -139.088 -6.14386 -139.088C-64.5478 -139.088 -111.894 -139.163 -111.894 -139.255C-111.894 -139.347 -64.5478 -139.422 -6.14386 -139.422Z"></path>
  <path fill="#8D5A3E" transform="matrix(1.27409 9.56891e-23 -1.50956e-25 0.00200997 249.856 116.745)" d="M-1.02305e-30 -83C45.8396 -83 83 -45.8396 83 0C83 45.8396 45.8396 83 1.02305e-30 83C-45.8396 83 -83 45.8396 -83 0C-83 -45.8396 -45.8396 -83 -1.02305e-30 -83Z"></path>
  <path fill="#65524C" transform="matrix(0.732603 5.50213e-23 -1.39281e-25 0.00185451 249.856 116.772)" d="M0 -97.4922C45.8396 -97.4922 83 -53.84 83 0.0078125C83 53.8556 45.8396 97.5078 0 97.5078C-45.8396 97.5078 -83 53.8556 -83 0.0078125C-83 -53.84 -45.8396 -97.4922 0 -97.4922Z"></path>
  <clipPath id="cl_32c">
    <path d="M249.856 116.591C283.438 116.591 310.662 116.672 310.662 116.772C310.662 116.872 283.438 116.953 249.856 116.953C216.274 116.953 189.05 116.872 189.05 116.772C189.05 116.672 216.274 116.591 249.856 116.591Z"></path>
  </clipPath>
  <g clip-path="url(#cl_32c)">
    <path fill="#281C18" transform="matrix(0.732603 5.50213e-23 -1.39281e-25 0.00185451 230.745 116.772)" d="M3.8147e-06 -97.5C45.8396 -97.5 83 -53.8478 83 -2.68187e-25C83 53.8478 45.8396 97.5 3.8147e-06 97.5C-45.8396 97.5 -83 53.8478 -83 2.68187e-25C-83 -53.8478 -45.8396 -97.5 3.8147e-06 -97.5Z"></path>
  </g>
  <path fill="none" stroke="black" stroke-width="7" stroke-linejoin="round" transform="translate(256 256)" d="M-107.233 -139.237C-109.194 -139.251 -110.389 -139.265 -110.709 -139.28C-110.709 -139.28 -156.311 -124.815 -156.534 -83.8513C-156.534 -83.8513 -139.16 -76.3324 -93.3282 -62.7222C-57.5869 -52.1085 -72.0843 -97.8924 -20.6428 -105.34C3.71195 -107.409 26.6988 -123.389 26.6988 -123.389C26.6988 -123.389 26.8238 -129.167 32.0892 -129.167C37.3546 -129.167 37.8034 -125.755 37.8034 -125.755C48.4632 -128.025 100.393 -69.3232 109.976 -70.7181C140.175 -75.1137 143.8 -83.8513 143.8 -83.8513C143.8 -124.815 98.027 -139.28 98.027 -139.28C83.8013 -139.169 46.701 -139.088 -6.14386 -139.088C-51.778 -139.088 -94.8248 -139.148 -107.233 -139.237"></path>
  <path fill="none" stroke="black" stroke-width="21" stroke-linecap="round" stroke-linejoin="round" transform="matrix(0.972 7.30008e-23 -7.30008e-23 0.972 91.4201 172.149)" d="M8.27734 0C8.27734 0 26.1524 7.73553 73.3042 21.7377C110.075 32.6573 95.1601 -14.4456 148.083 -22.1074C173.14 -24.2359 196.789 -40.677 196.789 -40.677C196.789 -40.677 196.917 -46.6214 202.334 -46.6214C207.752 -46.6214 208.213 -43.1103 208.213 -43.1103C219.18 -45.4462 272.606 14.9466 282.465 13.5115C292.553 12.0433 299.758 10.1041 304.889 8.15462"></path>
  <path fill="none" stroke="white" stroke-width="14" stroke-linecap="round" stroke-linejoin="round" transform="matrix(0.972 7.30008e-23 -7.30008e-23 0.972 91.4201 172.149)" d="M8.27734 0C8.27734 0 26.1524 7.73553 73.3042 21.7377C110.075 32.6573 95.1601 -14.4456 148.083 -22.1074C173.14 -24.2359 196.789 -40.677 196.789 -40.677C196.789 -40.677 196.917 -46.6214 202.334 -46.6214C207.752 -46.6214 208.213 -43.1103 208.213 -43.1103C219.18 -45.4462 272.606 14.9466 282.465 13.5115C303.412 10.4627 311.931 5.38342 315.259 2.39731"></path>
  <path fill="#8D5A3E" transform="matrix(0.972 7.30008e-23 -7.30008e-23 0.972 91.4201 172.149)" d="M8.27734 0C8.27734 0 28.6505 6.97293 72.0222 20.0838C95.5232 27.188 113.202 -17.0576 148.083 -22.1074C173.14 -24.2359 196.789 -40.677 196.789 -40.677C196.789 -40.677 197.906 -45.3115 201.539 -45.3115C205.172 -45.3115 208.213 -43.1103 208.213 -43.1103C218.901 -45.3868 277.837 13.8723 286.934 12.7945C317.391 9.18614 317.263 0 317.263 0C317.263 -42.1439 270.172 -57.0257 270.172 -57.0257C255.536 -56.9111 217.367 -56.8284 163 -56.8281C108.633 -56.8279 57.8352 -56.9111 55.4223 -57.0258C55.4223 -57.0258 8.50731 -42.1439 8.27734 0Z"></path>
  <clipPath id="cl_32d">
    <path d="M99.4657 172.149C99.4657 172.149 119.268 178.926 161.426 191.67C184.269 198.575 201.453 155.569 235.357 150.66C259.712 148.591 282.699 132.611 282.699 132.611C282.699 132.611 283.784 128.106 287.316 128.106C290.847 128.106 293.803 130.245 293.803 130.245C304.192 128.033 361.478 185.633 370.32 184.585C399.924 181.078 399.8 172.149 399.8 172.149C399.8 131.185 354.027 116.72 354.027 116.72C339.801 116.831 302.701 116.912 249.856 116.912C197.011 116.912 147.636 116.831 145.291 116.72C145.291 116.72 99.6892 131.185 99.4657 172.149Z"></path>
  </clipPath>
  <g clip-path="url(#cl_32d)">
    <path fill="#7F4728" transform="matrix(2.61439 -0.086419 0.123843 3.74656 194.452 171.663)" d="M-14.8742 -9.69253L16.7537 -6.3603L15.092 9.39556L-21.0084 4.35254L-14.8742 -9.69253Z"></path>
  </g>
  <path fill="none" stroke="#612F13" stroke-width="1" stroke-linecap="round" stroke-linejoin="round" transform="matrix(0.0654088 -1.56104 1.56104 0.0654088 205.396 146.018)" d="M1.02357 0.373772L4.21644 0.641895"></path>
  <path fill="none" stroke="#612F13" stroke-width="1" stroke-linecap="round" stroke-linejoin="round" transform="matrix(0.0654088 -1.56104 1.56104 0.0654088 193.246 145.532)" d="M1.02357 0.373775L4.21644 0.641899"></path>
  <clipPath id="cl_32e">
    <path d="M99.4657 172.149C99.4657 172.149 119.268 178.926 161.426 191.67C184.269 198.575 201.453 155.569 235.357 150.66C259.712 148.591 282.699 132.611 282.699 132.611C282.699 132.611 283.784 128.106 287.316 128.106C290.847 128.106 293.803 130.245 293.803 130.245C304.192 128.033 361.478 185.633 370.32 184.585C399.924 181.078 399.8 172.149 399.8 172.149C399.8 131.185 354.027 116.72 354.027 116.72C339.801 116.831 302.701 116.912 249.856 116.912C197.011 116.912 147.636 116.831 145.291 116.72C145.291 116.72 99.6892 131.185 99.4657 172.149Z"></path>
  </clipPath>
  <g clip-path="url(#cl_32e)">
    <clipPath id="cl_32f">
      <path d="M99.4657 172.149C99.4657 172.149 119.268 178.926 161.426 191.67C184.269 198.575 201.453 155.569 235.357 150.66C259.712 148.591 282.699 132.611 282.699 132.611C282.699 132.611 283.784 128.106 287.316 128.106C290.847 128.106 293.803 130.245 293.803 130.245C304.192 128.033 361.478 185.633 370.32 184.585C399.924 181.078 399.8 172.149 399.8 172.149C399.8 131.185 354.027 116.72 354.027 116.72C339.801 116.831 302.701 116.912 249.856 116.912C197.011 116.912 147.636 116.831 145.291 116.72C145.291 116.72 99.6892 131.185 99.4657 172.149Z"></path>
    </clipPath>
    <g clip-path="url(#cl_32f)">
      <path fill="#7F4728" transform="matrix(0.972 7.30008e-23 -7.30008e-23 0.972 379.618 148.092)" d="M7.62939e-06 -32.5C25.6812 -32.5 46.5 -17.8373 46.5 0.249992C46.5 18.3373 25.6812 33 7.62939e-06 33C-25.6812 33 -46.5 18.3373 -46.5 0.249992C-46.5 -17.8373 -25.6812 -32.5 7.62939e-06 -32.5Z"></path>
    </g>
    <path fill="none" stroke="#612F13" stroke-width="1" stroke-linecap="round" stroke-linejoin="round" transform="matrix(-1.42852 0.632822 -0.632822 -1.42852 338.794 152.709)" d="M1.02356 0.373772L4.21643 0.641895"></path>
    <path fill="none" stroke="#612F13" stroke-width="1" stroke-linecap="round" stroke-linejoin="round" transform="matrix(-0.810895 1.33551 -1.33551 -0.810895 353.86 169.233)" d="M1.02357 0.373773L4.21644 0.641897"></path>
    <path fill="none" stroke="#612F13" stroke-width="1" stroke-linecap="round" stroke-linejoin="round" transform="matrix(-1.5617 -0.0472275 0.0472275 -1.5617 339.28 142.989)" d="M1.02357 0.373779L4.21644 0.641903"></path>
  </g>
  <path fill="#503F7E" transform="matrix(1.8 0 0 1.8 170.253 262.174)" d="M64.2871 -5.42695C24.7352 -17.5749 43.379 -78.2763 82.9309 -66.1283C99.1049 -61.1606 126.086 -52.8736 142.848 -47.7254C148.737 -45.9165 157.056 -34.4594 150.491 -12.1641C143.926 10.1311 130.988 15.0595 126.397 13.6496C109.537 8.47121 76.2231 -1.76091 64.2871 -5.42695Z"></path>
</svg>