<?xml version="1.0" encoding="utf-8"?>
<svg xmlns="http://www.w3.org/2000/svg" xmlns:xlink="http://www.w3.org/1999/xlink" width="512" height="512">
  <path fill="none" stroke="black" stroke-width="6" stroke-linejoin="round" transform="matrix(1.8 0 0 1.52279 359.051 169.591)" d="M-19.1542 -16.9737C-15.4999 -16.9737 -12.8464 -16.9737 -9.42453 -16.9737C-2.3603 -16.9737 4.80032 -12.9707 4.80032 2.73135C4.80032 18.4334 4.80032 47.7067 4.80032 56.4809C4.80032 99.4374 -58.6997 99.3952 -58.6997 56.4387C-58.6997 45.6553 -58.6997 25.833 -58.6997 13.3474C-58.6997 0.86171 -52.4383 -16.9737 -36.3585 -16.9737C-35.1548 -16.9737 -34.02 -16.9737 -32.9475 -16.9737"></path>
  <path fill="none" stroke="black" stroke-width="6" stroke-linejoin="round" transform="matrix(1.8 0 0 1.64041 359.051 251.837)" d="M-58.699 -0.464364C-58.0927 -43.0826 5.40089 -42.1793 4.79457 0.43894C4.55389 17.3569 4.15237 45.5793 3.90294 63.1122C3.8153 69.2724 -4.85473 80.4657 -28.0963 80.4056C-51.3379 80.3455 -59.6916 69.3045 -59.6233 64.5029C-59.3724 46.8673 -58.8766 12.0207 -58.699 -0.464364Z"></path>
  <path fill="#503F7E" transform="matrix(1.8 0 0 1.52279 359.051 169.591)" d="M-58.6997 13.3474C-58.6997 0.861706 -52.4383 -16.9737 -36.3585 -16.9737C-20.2787 -16.9737 -16.4888 -16.9737 -9.42453 -16.9737C-2.3603 -16.9737 4.80032 -12.9707 4.80032 2.73135C4.80032 18.4334 4.80032 47.7067 4.80032 56.4809C4.80032 99.4374 -58.6997 99.3952 -58.6997 56.4387C-58.6997 45.6553 -58.6997 25.833 -58.6997 13.3474Z"></path>
  <path fill="#503F7E" transform="matrix(1.8 0 0 1.64041 359.051 251.837)" d="M-58.699 -0.464365C-58.0927 -43.0826 5.40089 -42.1793 4.79457 0.438939C4.55389 17.3569 4.15237 45.5793 3.90294 63.1122C3.8153 69.2724 -4.85473 80.4657 -28.0963 80.4056C-51.3379 80.3455 -59.6916 69.3045 -59.6233 64.5029C-59.3724 46.8673 -58.8766 12.0207 -58.699 -0.464365Z"></path>
  <path fill="none" stroke="black" stroke-width="5" stroke-linejoin="round" transform="matrix(1.67985 0 0 1.8 269.501 356.202)" d="M13.6436 -15.6843C31.8624 -15.2298 44.6841 -10.7363 43.3269 36.6356C43.3624 50.7426 46.9637 65.8042 31.9711 74.0674C20.4024 73.9753 7.47899 74.7817 -8.98569 74.5172C-19.8231 65.8795 -19.7626 50.9783 -19.8347 34.1562C-19.1193 -12.3284 -4.57533 -16.1389 13.6436 -15.6843Z"></path>
  <path fill="#453279" transform="matrix(1.67985 0 0 1.8 269.501 356.202)" d="M13.6436 -15.6843C31.8624 -15.2298 44.6841 -10.7363 43.3269 36.6356C43.3624 50.7426 46.9637 65.8042 31.9711 74.0674C20.4024 73.9753 7.47899 74.7817 -8.98569 74.5172C-19.8231 65.8795 -19.7626 50.9783 -19.8347 34.1562C-19.1193 -12.3284 -4.57533 -16.1389 13.6436 -15.6843Z"></path>
  <path fill="none" stroke="black" stroke-width="5" stroke-linejoin="round" transform="matrix(1.67985 0 0 1.8 191.63 362.835)" d="M1.14441e-05 -14.3439C18.2254 -14.3439 31.1711 -10.1719 31.1712 37.2169C31.7865 56.0934 34.5752 69.036 19.1016 75.646C3.62799 76.0176 -7.05902 76.224 -21.8955 75.8837C-36.732 69.3049 -32.1706 52.8104 -32.0389 36.314C-32.655 -10.1719 -18.2254 -14.3439 1.14441e-05 -14.3439Z"></path>
  <path fill="none" stroke="black" stroke-width="5" stroke-linejoin="round" transform="matrix(1.79976 0.0276995 -0.0293645 1.69771 278.869 279.649)" d="M-11.3238 -80.2543C25.8014 -80.2543 54.9476 -94.6926 58.9092 -40.8672C62.8708 12.9582 37.0524 74.7499 0.0572928 75.3534C-14.1177 75.5847 -17.7665 75.6442 -48.2096 76.1409C-78.6526 76.6376 -84.25 60.12 -84.25 9.53674e-07C-86.6294 -86.0849 -88.6034 -78.4854 -12.7475 -80.2208"></path>
  <path fill="#503F7E" transform="matrix(1.67985 0 0 1.8 191.63 362.835)" d="M1.14441e-05 -14.3439C18.2254 -14.3439 31.1711 -10.1719 31.1712 37.2169C31.7865 56.0934 34.5752 69.036 19.1016 75.646C3.62799 76.0176 -7.05902 76.224 -21.8955 75.8837C-36.732 69.3049 -32.1706 52.8104 -32.0389 36.314C-32.655 -10.1719 -18.2254 -14.3439 1.14441e-05 -14.3439Z"></path>
  <path fill="none" stroke="black" stroke-width="5" stroke-linejoin="round" transform="matrix(1.53139 0 0 1.39334 231.272 125.584)" d="M0 -40C20.9426 -40 35.0096 -26.8589 47.8597 -2.20017C49.1253 -3.81498 50.3123 -3.57652 51.1974 -3.11681C52.0824 -2.6571 52.5509 -1.60561 52.2206 -0.665335C53.8523 0.0632067 55.2854 1.47333 55.8775 2.67699C56.9197 4.79567 57.6743 10.5072 53.7931 11.8212C58.5977 31.9882 20.3682 22.0914 -1.32962e-05 22.0914C-20.2357 22.0914 -45.0732 28.3281 -41.8836 12.9784C-44.6787 11.8212 -48.2008 8.95145 -46.5316 4.29176C-45.7036 1.98007 -43.8185 0.567096 -42.3936 0.567005C-41.0392 0.566917 -42.9934 -2.19999 -40.2188 -3.8149C-39.0195 -4.5129 -37.7273 -4.43211 -36.6068 -4.12355C-28.0141 -23.731 -20.4124 -40 0 -40Z"></path>
  <path fill="#503F7E" transform="matrix(1.79976 0.0276995 -0.0293645 1.69771 278.869 279.649)" d="M-11.3238 -80.2543C25.8014 -80.2543 54.9476 -94.6926 58.9092 -40.8672C62.8708 12.9582 37.0524 74.7499 0.0572928 75.3534C-14.1177 75.5847 -17.7665 75.6442 -48.2096 76.1409C-78.6526 76.6376 -84.25 60.12 -84.25 9.53674e-07C-86.6442 -86.62 -88.6279 -78.3873 -11.3238 -80.2543Z"></path>
  <clipPath id="cl_2f3">
    <path d="M260.845 143.087C327.662 144.115 380.542 120.411 386.091 211.9C391.641 303.39 343.359 407.579 276.759 407.579C251.241 407.579 244.672 407.579 189.867 407.579C135.063 407.579 125.474 379.382 127.239 277.316C125.474 130.193 121.662 144.115 260.845 143.087Z"></path>
  </clipPath>
  <g clip-path="url(#cl_2f3)">
    <path fill="#655494" transform="matrix(1.8 0 0 1.8 315.995 261.728)" d="M-0.158646 -48.2655C25.513 -48.2655 46.324 -26.6563 46.324 0C46.324 26.6563 25.513 48.2655 -0.158646 48.2655C-25.8303 48.2655 -46.6413 26.6563 -46.6413 0C-46.6413 -26.6563 -25.8303 -48.2655 -0.158646 -48.2655Z"></path>
  </g>
  <path fill="none" stroke="black" stroke-width="2" stroke-linejoin="round" transform="matrix(3.88825 -0.763212 0.691401 3.5224 238.071 47.3358)" d="M-4.34758 -5.25471C-4.34758 -11.5047 3.66088 -11.5047 3.66088 -5.25472C3.66088 0.995284 3.66088 12.5 3.66088 12.5L-4.57314 12.5C-4.57314 12.5 -4.34758 0.995284 -4.34758 -5.25471Z"></path>
  <path fill="none" stroke="black" stroke-width="2" stroke-linejoin="round" transform="matrix(3.5224 -0.691401 0.691401 3.5224 203.863 52.7486)" d="M-5.16451 -6.50117C-5.16451 -12.7512 6 -12.7512 6 -6.50117C6 -0.251166 6 12.5 6 12.5L-6 12.5C-6 12.5 -5.1645 -0.251167 -5.16451 -6.50117Z"></path>
  <path fill="#453279" transform="matrix(3.88825 -0.763212 0.691401 3.5224 238.071 47.3358)" d="M-4.34758 -5.25471C-4.34758 -11.5047 3.66088 -11.5047 3.66088 -5.25472C3.66088 0.995284 3.66088 12.5 3.66088 12.5L-4.57314 12.5C-4.57314 12.5 -4.34758 0.995284 -4.34758 -5.25471Z"></path>
  <path fill="none" stroke="#161616" stroke-width="0.5" stroke-linecap="round" stroke-linejoin="round" transform="matrix(3.88825 -0.763212 0.691401 3.5224 233.278 27.8041)" d="M4.54547e-06 1.51652L3.83069e-06 10.5382"></path>
  <path fill="#503F7E" transform="matrix(3.5224 -0.691401 0.691401 3.5224 203.863 52.7486)" d="M-5.1645 -6.50117C-5.16451 -12.7512 6 -12.7512 6 -6.50117C6 -0.251166 6 12.5 6 12.5L-6 12.5C-6 12.5 -5.1645 -0.251167 -5.1645 -6.50117Z"></path>
  <path fill="none" stroke="#161616" stroke-width="0.5" stroke-linecap="round" stroke-linejoin="round" transform="matrix(3.5224 -0.691401 0.691401 3.5224 204.078 32.7301)" d="M7.33795e-07 3.8412e-06L4.54849e-06 10.5382"></path>
  <path fill="#503F7E" transform="matrix(1.53139 0 0 1.39334 231.272 125.584)" d="M0 -40C20.9426 -40 35.0096 -26.8589 47.8597 -2.20017C49.1253 -3.81498 50.3123 -3.57652 51.1974 -3.11681C52.0824 -2.6571 52.5509 -1.60561 52.2206 -0.665335C53.8523 0.0632067 55.2854 1.47333 55.8775 2.67699C56.9197 4.79567 57.6743 10.5072 53.7931 11.8212C58.5977 31.9882 20.3682 22.0914 -1.32962e-05 22.0914C-20.2357 22.0914 -45.0732 28.3281 -41.8836 12.9784C-44.6787 11.8212 -48.2008 8.95145 -46.5316 4.29176C-45.7036 1.98007 -43.8185 0.567096 -42.3936 0.567005C-41.0392 0.566917 -42.9934 -2.19999 -40.2188 -3.8149C-39.0195 -4.5129 -37.7273 -4.43211 -36.6068 -4.12355C-28.0141 -23.731 -20.4124 -40 0 -40Z"></path>
  <clipPath id="cl_2f4">
    <path d="M231.272 69.8503C263.343 69.8503 284.885 88.1603 304.563 122.518C306.502 120.268 308.319 120.601 309.675 121.241C311.03 121.882 311.747 123.347 311.242 124.657C313.74 125.672 315.935 127.637 316.842 129.314C318.438 132.266 319.593 140.224 313.65 142.055C321.007 170.155 262.463 156.365 231.272 156.365C200.283 156.365 162.247 165.055 167.132 143.667C162.851 142.055 157.458 138.056 160.014 131.564C161.282 128.343 164.169 126.374 166.351 126.374C168.425 126.374 165.432 122.519 169.681 120.269C171.518 119.296 173.497 119.409 175.213 119.838C188.371 92.5185 200.012 69.8503 231.272 69.8503Z"></path>
  </clipPath>
  <g clip-path="url(#cl_2f4)">
    <path fill="#7463A5" transform="matrix(1.8 2.98023e-08 0.00759348 1.8 238.535 110.441)" d="M0 -5.5C3.86599 -5.5 7 -2.92564 7 0.25C7 3.42564 3.86599 6 0 6C-3.86599 6 -7 3.42564 -7 0.25C-7 -2.92564 -3.86599 -5.5 0 -5.5Z"></path>
    <path fill="#7463A5" transform="matrix(1.83618 3.04014e-08 0.00759348 1.8 291.083 102.295)" d="M1.90735e-06 -5.00001C2.76143 -5.00001 5 -2.6495 5 0.249992C5 3.14949 2.76143 5.49999 1.90735e-06 5.49999C-2.76142 5.49999 -5 3.14949 -5 0.249992C-5 -2.6495 -2.76142 -5.00001 1.90735e-06 -5.00001Z"></path>
    <path fill="none" stroke="#131212" stroke-width="1" stroke-linecap="round" stroke-linejoin="round" transform="matrix(2.30699 -0.373724 0.274137 1.69224 269.314 95.5994)" d="M2.39559e-06 -4.14104e-07L2.92892 -0.714567"></path>
    <path fill="none" stroke="#131212" stroke-width="1" stroke-linecap="round" stroke-linejoin="round" transform="matrix(2.30699 -0.373724 0.274137 1.69224 247.564 94.7697)" d="M4.76837e-07 7.48094e-06L4.25731 1.79213"></path>
    <path fill="#131212" transform="matrix(2.47104 -0.400299 0.405754 2.50471 261.349 97.8799)" d="M-4.99596e-07 -2.15485e-07L1.9614 0.352738L0.915089 1.42246L-4.99596e-07 -2.15485e-07Z"></path>
    <path fill="none" stroke="#131212" stroke-width="0.5" stroke-linecap="round" stroke-linejoin="round" transform="matrix(1.93759 -0.313883 0.31816 1.96399 264.408 101.415)" d="M-1.78892e-06 -0.711232L-5.63076e-06 1.11019"></path>
    <path fill="#32225E" transform="matrix(1.74285 0.441491 -0.424043 1.74552 258.196 90.0143)" d="M-1.93607e-06 -1.92716C1.6285 -1.92716 2.94867 -1.06434 2.94867 -4.39386e-08C2.94867 1.06434 1.6285 1.92716 -1.87863e-06 1.92716C-1.62851 1.92716 -2.94867 1.06434 -2.94867 4.39386e-08C-2.94867 -1.06434 -1.62851 -1.92716 -1.93607e-06 -1.92716Z"></path>
    <path fill="#32225E" transform="matrix(1.71213 0.433708 -0.412468 1.69787 269.389 89.1394)" d="M-4.76837e-06 -1.89918C0.889984 -1.89918 1.61146 -1.04889 1.61146 7.60538e-06C1.61146 1.0489 0.889984 1.8992 -4.76837e-06 1.8992C-0.889994 1.8992 -1.61147 1.0489 -1.61147 7.65341e-06C-1.61147 -1.04889 -0.889994 -1.89918 -4.76837e-06 -1.89918Z"></path>
  </g>
  <path fill="none" stroke="black" stroke-width="6" stroke-linejoin="round" transform="matrix(1.8 0 0 1.8 170.253 262.174)" d="M71.3071 -10.0804C32.2598 -17.39 43.9441 -79.8058 82.9913 -72.4962C99.6221 -69.3829 127.365 -64.1894 144.601 -60.9629C150.656 -59.8293 160.213 -49.3826 156.202 -26.4895C152.192 -3.59649 139.892 2.75862 135.172 1.87502C117.835 -1.37032 83.5802 -7.78286 71.3071 -10.0804Z"></path>
  <path fill="none" stroke="black" stroke-width="6" stroke-linecap="round" stroke-linejoin="bevel" transform="matrix(1.8 0 0 1.67094 170.253 171.927)" d="M67.3066 -27.114C74.9714 -25.6354 81.6384 -24.3493 85.0042 -23.7C124.256 -16.1278 113.024 51.1982 73.7722 43.6261C63.9187 41.7252 45.8059 38.2311 34.3969 36.0302C22.988 33.8292 7.7943 24.0459 10.6288 6.9954C10.8803 5.48254 11.1147 4.07228 11.334 2.75309"></path>
  <path fill="#503F7E" transform="matrix(1.8 0 0 1.67094 170.253 171.927)" d="M34.3969 36.0302C22.988 33.8292 7.79431 24.0459 10.6288 6.99539C13.4632 -10.0552 14.1313 -14.0739 15.3766 -21.5646C16.6218 -29.0553 21.5418 -35.9426 35.8898 -33.1747C50.2378 -30.4068 76.9867 -25.2466 85.0042 -23.7C119.531 -17.0394 108.299 50.2866 73.7722 43.6261C63.9187 41.7252 45.8059 38.2311 34.3969 36.0302Z"></path>
  <path fill="none" stroke="black" stroke-width="7" stroke-linecap="round" stroke-miterlimit="4" transform="translate(256 256)" d="M-6.14386 -139.866C52.2601 -139.866 99.6059 -139.792 99.6059 -139.699C99.6059 -139.607 52.2601 -139.533 -6.14386 -139.533C-64.5478 -139.533 -111.894 -139.607 -111.894 -139.699C-111.894 -139.792 -64.5478 -139.866 -6.14386 -139.866Z"></path>
  <path fill="#8D5A3E" transform="matrix(1.27409 9.56891e-23 -1.50956e-25 0.00200997 249.856 116.301)" d="M-1.02305e-30 -83C45.8396 -83 83 -45.8396 83 0C83 45.8396 45.8396 83 1.02305e-30 83C-45.8396 83 -83 45.8396 -83 0C-83 -45.8396 -45.8396 -83 -1.02305e-30 -83Z"></path>
  <path fill="#65524C" transform="matrix(0.732603 5.50213e-23 -1.39281e-25 0.00185451 249.856 116.328)" d="M0 -97.5C45.8396 -97.5 83 -53.8478 83 -2.68187e-25C83 53.8478 45.8396 97.5 0 97.5C-45.8396 97.5 -83 53.8478 -83 2.68187e-25C-83 -53.8478 -45.8396 -97.5 0 -97.5Z"></path>
  <clipPath id="cl_2fc">
    <path d="M249.856 116.147C283.438 116.147 310.662 116.228 310.662 116.328C310.662 116.428 283.438 116.508 249.856 116.508C216.274 116.508 189.05 116.428 189.05 116.328C189.05 116.228 216.274 116.147 249.856 116.147Z"></path>
  </clipPath>
  <g clip-path="url(#cl_2fc)">
    <path fill="#281C18" transform="matrix(0.732603 5.50213e-23 -1.39281e-25 0.00185451 230.745 116.328)" d="M3.8147e-06 -97.5C45.8396 -97.5 83 -53.8478 83 -2.68187e-25C83 53.8478 45.8396 97.5 3.8147e-06 97.5C-45.8396 97.5 -83 53.8478 -83 2.68187e-25C-83 -53.8478 -45.8396 -97.5 3.8147e-06 -97.5Z"></path>
  </g>
  <path fill="none" stroke="black" stroke-width="7" stroke-linejoin="round" transform="translate(256 256)" d="M-107.009 -139.679C-109.103 -139.694 -110.377 -139.709 -110.709 -139.725C-110.709 -139.725 -156.311 -125.259 -156.534 -84.2954C-156.534 -84.2954 -139.16 -76.7765 -93.3282 -63.1664C-57.5869 -52.5526 -72.1323 -99.7979 -21.1811 -107.593C3.03532 -109.827 24.9894 -125.961 24.9894 -125.961C24.9894 -125.961 25.5318 -131.675 30.7972 -131.675C36.0626 -131.675 35.9395 -128.401 35.9395 -128.401C46.451 -130.743 100.393 -69.7673 109.976 -71.1623C140.175 -75.5579 143.8 -84.2954 143.8 -84.2954C143.8 -125.259 98.027 -139.724 98.027 -139.724C83.8013 -139.613 46.701 -139.533 -6.14386 -139.532C-51.5069 -139.532 -94.3133 -139.592 -107.009 -139.679"></path>
  <path fill="none" stroke="black" stroke-width="21" stroke-linecap="round" stroke-linejoin="round" transform="matrix(0.972 7.30008e-23 -7.30008e-23 0.972 91.4201 171.705)" d="M8.27734 0C8.27734 0 26.1524 7.73552 73.3042 21.7377C110.075 32.6572 95.1106 -15.949 147.53 -23.9689C172.444 -26.2673 195.03 -42.8654 195.03 -42.8654C195.03 -42.8654 195.588 -48.7447 201.005 -48.7447C206.422 -48.7447 206.296 -45.3759 206.296 -45.3759C217.11 -47.7859 272.606 14.9466 282.465 13.5115C291.747 12.1605 298.589 10.4108 303.62 8.6212"></path>
  <path fill="none" stroke="white" stroke-width="14" stroke-linecap="round" stroke-linejoin="round" transform="matrix(0.972 7.30008e-23 -7.30008e-23 0.972 91.4201 171.705)" d="M8.27734 0C8.27734 0 26.1524 7.73552 73.3042 21.7377C110.075 32.6572 95.1106 -15.949 147.53 -23.9689C172.444 -26.2673 195.03 -42.8654 195.03 -42.8654C195.03 -42.8654 195.588 -48.7447 201.005 -48.7447C206.422 -48.7447 206.296 -45.3759 206.296 -45.3759C217.11 -47.7859 272.606 14.9466 282.465 13.5115C299.998 10.9595 308.824 6.98495 313.187 4.00609"></path>
  <path fill="#8D5A3E" transform="matrix(0.972 7.30008e-23 -7.30008e-23 0.972 91.4201 171.705)" d="M8.27734 0C8.27734 0 28.6505 6.97293 72.0222 20.0838C95.5232 27.188 112.981 -18.6831 147.53 -23.9689C172.444 -26.2673 195.03 -42.8654 195.03 -42.8654C195.03 -42.8654 196.576 -47.4348 200.21 -47.4348C203.843 -47.4348 206.296 -45.3759 206.296 -45.3759C216.835 -47.7246 277.837 13.8723 286.934 12.7945C317.391 9.18614 317.263 0 317.263 0C317.263 -42.1439 270.172 -57.0257 270.172 -57.0257C255.536 -56.9111 217.367 -56.8284 163 -56.8281C108.633 -56.8279 57.8352 -56.9111 55.4223 -57.0258C55.4223 -57.0258 8.50731 -42.1439 8.27734 0Z"></path>
  <clipPath id="cl_2fd">
    <path d="M99.4657 171.705C99.4657 171.705 119.268 178.482 161.426 191.226C184.269 198.131 201.237 153.545 234.819 148.407C259.035 146.173 280.989 130.039 280.989 130.039C280.989 130.039 282.492 125.598 286.024 125.598C289.555 125.598 291.94 127.599 291.94 127.599C302.184 125.316 361.478 185.188 370.32 184.141C399.924 180.633 399.8 171.705 399.8 171.705C399.8 130.741 354.027 116.276 354.027 116.276C339.801 116.387 302.701 116.467 249.856 116.468C197.011 116.468 147.636 116.387 145.291 116.275C145.291 116.275 99.6892 130.741 99.4657 171.705Z"></path>
  </clipPath>
  <g clip-path="url(#cl_2fd)">
    <path fill="#7F4728" transform="matrix(2.61439 -0.086419 0.123843 3.74656 194.452 171.219)" d="M-14.8742 -9.69253L16.7537 -6.3603L15.092 9.39556L-21.0084 4.35254L-14.8742 -9.69253Z"></path>
  </g>
  <path fill="none" stroke="#612F13" stroke-width="1" stroke-linecap="round" stroke-linejoin="round" transform="matrix(0.0654088 -1.56104 1.56104 0.0654088 205.396 145.574)" d="M1.02357 0.373772L4.21644 0.641895"></path>
  <path fill="none" stroke="#612F13" stroke-width="1" stroke-linecap="round" stroke-linejoin="round" transform="matrix(0.0654088 -1.56104 1.56104 0.0654088 193.246 145.088)" d="M1.02358 0.373772L4.21645 0.641895"></path>
  <clipPath id="cl_2fe">
    <path d="M99.4657 171.705C99.4657 171.705 119.268 178.482 161.426 191.226C184.269 198.131 201.237 153.545 234.819 148.407C259.035 146.173 280.989 130.039 280.989 130.039C280.989 130.039 282.492 125.598 286.024 125.598C289.555 125.598 291.94 127.599 291.94 127.599C302.184 125.316 361.478 185.188 370.32 184.141C399.924 180.633 399.8 171.705 399.8 171.705C399.8 130.741 354.027 116.276 354.027 116.276C339.801 116.387 302.701 116.467 249.856 116.468C197.011 116.468 147.636 116.387 145.291 116.275C145.291 116.275 99.6892 130.741 99.4657 171.705Z"></path>
  </clipPath>
  <g clip-path="url(#cl_2fe)">
    <clipPath id="cl_2ff">
      <path d="M99.4657 171.705C99.4657 171.705 119.268 178.482 161.426 191.226C184.269 198.131 201.237 153.545 234.819 148.407C259.035 146.173 280.989 130.039 280.989 130.039C280.989 130.039 282.492 125.598 286.024 125.598C289.555 125.598 291.94 127.599 291.94 127.599C302.184 125.316 361.478 185.188 370.32 184.141C399.924 180.633 399.8 171.705 399.8 171.705C399.8 130.741 354.027 116.276 354.027 116.276C339.801 116.387 302.701 116.467 249.856 116.468C197.011 116.468 147.636 116.387 145.291 116.275C145.291 116.275 99.6892 130.741 99.4657 171.705Z"></path>
    </clipPath>
    <g clip-path="url(#cl_2ff)">
      <path fill="#7F4728" transform="matrix(0.972 7.30008e-23 -7.30008e-23 0.972 379.618 147.648)" d="M7.62939e-06 -32.5C25.6812 -32.5 46.5 -17.8373 46.5 0.249992C46.5 18.3373 25.6812 33 7.62939e-06 33C-25.6812 33 -46.5 18.3373 -46.5 0.249992C-46.5 -17.8373 -25.6812 -32.5 7.62939e-06 -32.5Z"></path>
    </g>
    <path fill="none" stroke="#612F13" stroke-width="1" stroke-linecap="round" stroke-linejoin="round" transform="matrix(-1.42852 0.632822 -0.632822 -1.42852 338.794 152.265)" d="M1.02357 0.373772L4.21644 0.641895"></path>
    <path fill="none" stroke="#612F13" stroke-width="1" stroke-linecap="round" stroke-linejoin="round" transform="matrix(-0.810895 1.33551 -1.33551 -0.810895 353.86 168.789)" d="M1.02357 0.373772L4.21644 0.641895"></path>
    <path fill="none" stroke="#612F13" stroke-width="1" stroke-linecap="round" stroke-linejoin="round" transform="matrix(-1.5617 -0.0472275 0.0472275 -1.5617 339.28 142.545)" d="M1.02357 0.373772L4.21644 0.641895"></path>
  </g>
  <path fill="#503F7E" transform="matrix(1.8 0 0 1.8 170.253 262.174)" d="M71.3071 -10.0804C30.6381 -17.6936 42.3223 -80.1094 82.9913 -72.4962C99.6221 -69.3829 127.365 -64.1894 144.601 -60.9629C150.656 -59.8293 160.213 -49.3826 156.202 -26.4895C152.192 -3.59649 139.892 2.75862 135.172 1.87502C117.835 -1.37032 83.5802 -7.78286 71.3071 -10.0804Z"></path>
</svg>