<?xml version="1.0" encoding="utf-8"?>
<svg xmlns="http://www.w3.org/2000/svg" xmlns:xlink="http://www.w3.org/1999/xlink" width="512" height="512">
  <path fill="none" stroke="black" stroke-width="6" stroke-linejoin="round" transform="matrix(1.8 0 0 1.52279 359.051 169.591)" d="M-9.2931 -16.9737C-5.63888 -16.9737 -2.98531 -16.9737 0.436512 -16.9737C7.50074 -16.9737 14.6614 -12.9707 14.6614 2.73135C14.6614 18.4334 14.6614 47.7067 14.6614 56.4809C14.6614 99.4374 -48.8386 99.3952 -48.8386 56.4387C-48.8386 45.6553 -48.8386 25.833 -48.8386 13.3474C-48.8386 0.86171 -42.5773 -16.9737 -26.4975 -16.9737C-25.2938 -16.9737 -24.1589 -16.9737 -23.0864 -16.9737"></path>
  <path fill="none" stroke="black" stroke-width="6" stroke-linejoin="round" transform="matrix(1.8 0 0 1.64041 359.051 251.837)" d="M-48.836 0.253025C-49.1971 -42.368 14.3006 -42.906 14.6617 -0.284996C14.8051 16.6341 15.0442 44.8583 15.1928 62.3923C15.245 68.5529 6.83125 79.9402 -16.4057 80.4076C-39.6427 80.875 -48.2448 70.0264 -48.2855 65.2245C-48.4349 47.5878 -48.7302 12.7389 -48.836 0.253025Z"></path>
  <path fill="#503F7E" transform="matrix(1.8 0 0 1.52279 359.051 169.591)" d="M-48.8386 13.3474C-48.8386 0.861706 -42.5773 -16.9737 -26.4975 -16.9737C-10.4176 -16.9737 -6.62773 -16.9737 0.436512 -16.9737C7.50074 -16.9737 14.6614 -12.9707 14.6614 2.73135C14.6614 18.4334 14.6614 47.7067 14.6614 56.4809C14.6614 99.4374 -48.8386 99.3952 -48.8386 56.4387C-48.8386 45.6553 -48.8386 25.833 -48.8386 13.3474Z"></path>
  <path fill="#503F7E" transform="matrix(1.8 0 0 1.64041 359.051 251.837)" d="M-48.836 0.253023C-49.1971 -42.368 14.3006 -42.906 14.6617 -0.284997C14.8051 16.6341 15.0442 44.8583 15.1928 62.3923C15.245 68.5529 6.83125 79.9402 -16.4057 80.4076C-39.6427 80.875 -48.2448 70.0264 -48.2855 65.2245C-48.4349 47.5878 -48.7302 12.7389 -48.836 0.253023Z"></path>
  <path fill="none" stroke="black" stroke-width="5" stroke-linejoin="round" transform="matrix(1.67985 0 0 1.8 269.501 356.202)" d="M3.24853 -15.6843C21.4653 -15.1617 34.2676 -10.6205 32.7074 36.746C32.6824 50.8531 36.1986 65.8994 21.2075 74.0589C9.63882 73.9668 -3.28459 74.7731 -19.7493 74.5086C-30.5867 65.8994 -30.4431 50.8531 -30.4431 34.0309C-29.5284 -12.4507 -14.9683 -16.207 3.24853 -15.6843Z"></path>
  <path fill="#453279" transform="matrix(1.67985 0 0 1.8 269.501 356.202)" d="M3.24853 -15.6843C21.4653 -15.1617 34.2676 -10.6205 32.7074 36.746C32.6824 50.8531 36.1986 65.8994 21.2075 74.0589C9.63882 73.9668 -3.28459 74.7731 -19.7493 74.5086C-30.5867 65.8994 -30.4431 50.8531 -30.4431 34.0309C-29.5284 -12.4507 -14.9683 -16.207 3.24853 -15.6843Z"></path>
  <path fill="none" stroke="black" stroke-width="5" stroke-linejoin="round" transform="matrix(1.67985 0 0 1.8 191.63 362.835)" d="M-2.46775 -14.3276C15.7511 -14.7826 28.8118 -10.9353 30.1701 36.4366C31.3263 55.2909 34.4251 68.7561 19.1043 75.622C3.63071 75.9936 -7.0563 76.2 -21.8928 75.8597C-36.8721 69.5624 -32.702 53.6058 -33.0432 37.1119C-34.9915 -9.34194 -20.6866 -13.8727 -2.46775 -14.3276Z"></path>
  <path fill="none" stroke="black" stroke-width="5" stroke-linejoin="round" transform="matrix(1.79976 0.0276995 -0.0293645 1.69771 270.274 279.649)" d="M-11.3238 -80.2543C25.8014 -80.2543 54.9476 -94.6926 58.9092 -40.8672C62.8708 12.9582 37.0524 74.7499 0.0572919 75.3534C-14.1177 75.5847 -17.7665 75.6442 -48.2096 76.1409C-78.6526 76.6376 -84.25 60.12 -84.25 9.53674e-07C-86.6294 -86.0849 -88.6034 -78.4854 -12.7475 -80.2208"></path>
  <path fill="#503F7E" transform="matrix(1.67985 0 0 1.8 191.63 362.835)" d="M-2.46775 -14.3276C15.7511 -14.7826 28.8118 -10.9353 30.1701 36.4366C31.3263 55.2909 34.4251 68.7561 19.1043 75.622C3.63071 75.9936 -7.0563 76.2 -21.8928 75.8597C-36.8721 69.5624 -32.702 53.6058 -33.0432 37.1119C-34.9915 -9.34194 -20.6866 -13.8727 -2.46775 -14.3276Z"></path>
  <path fill="none" stroke="black" stroke-width="5" stroke-linejoin="round" transform="matrix(1.53139 0 0 1.39334 223.244 125.584)" d="M0 -40C20.9426 -40 35.0096 -26.8589 47.8597 -2.20017C49.1253 -3.81498 50.3123 -3.57652 51.1974 -3.11681C52.0824 -2.6571 52.5509 -1.60561 52.2206 -0.665335C53.8523 0.0632067 55.2854 1.47333 55.8775 2.67699C56.9197 4.79567 57.6743 10.5072 53.7931 11.8212C58.5977 31.9882 20.3682 22.0914 -1.32962e-05 22.0914C-20.2357 22.0914 -45.0732 28.3281 -41.8836 12.9784C-44.6787 11.8212 -48.2008 8.95145 -46.5316 4.29176C-45.7036 1.98007 -43.8185 0.567096 -42.3936 0.567005C-41.0392 0.566917 -42.9934 -2.19999 -40.2188 -3.8149C-39.0195 -4.5129 -37.7273 -4.43211 -36.6068 -4.12355C-28.0141 -23.731 -20.4124 -40 0 -40Z"></path>
  <path fill="#503F7E" transform="matrix(1.79976 0.0276995 -0.0293645 1.69771 270.274 279.649)" d="M-11.3238 -80.2543C25.8014 -80.2543 54.9476 -94.6926 58.9092 -40.8672C62.8708 12.9582 37.0524 74.7499 0.0572919 75.3534C-14.1177 75.5847 -17.7665 75.6442 -48.2096 76.1409C-78.6526 76.6376 -84.25 60.12 -84.25 9.53674e-07C-86.6442 -86.62 -88.6279 -78.3873 -11.3238 -80.2543Z"></path>
  <clipPath id="cl_63">
    <path d="M252.251 143.087C319.067 144.115 371.947 120.411 377.497 211.9C383.046 303.39 334.764 407.579 268.164 407.579C242.646 407.579 236.077 407.579 181.273 407.579C126.468 407.579 116.879 379.382 118.644 277.316C116.879 130.193 113.067 144.115 252.251 143.087Z"></path>
  </clipPath>
  <g clip-path="url(#cl_63)">
    <path fill="#655494" transform="matrix(1.8 0 0 1.8 307.4 261.728)" d="M-0.158644 -48.2655C25.513 -48.2655 46.324 -26.6563 46.324 0C46.324 26.6563 25.513 48.2655 -0.158644 48.2655C-25.8303 48.2655 -46.6413 26.6563 -46.6413 0C-46.6413 -26.6563 -25.8303 -48.2655 -0.158644 -48.2655Z"></path>
  </g>
  <path fill="none" stroke="black" stroke-width="2" stroke-linejoin="round" transform="matrix(3.88825 -0.763212 0.691401 3.5224 230.043 47.3358)" d="M-4.34758 -5.25471C-4.34758 -11.5047 3.66088 -11.5047 3.66088 -5.25472C3.66088 0.995284 3.66088 12.5 3.66088 12.5L-4.57314 12.5C-4.57314 12.5 -4.34758 0.995284 -4.34758 -5.25471Z"></path>
  <path fill="none" stroke="black" stroke-width="2" stroke-linejoin="round" transform="matrix(3.5224 -0.691401 0.691401 3.5224 195.835 52.7486)" d="M-5.1645 -6.50117C-5.1645 -12.7512 6 -12.7512 6 -6.50117C6 -0.251166 6 12.5 6 12.5L-6 12.5C-6 12.5 -5.1645 -0.251167 -5.1645 -6.50117Z"></path>
  <path fill="#453279" transform="matrix(3.88825 -0.763212 0.691401 3.5224 230.043 47.3358)" d="M-4.34758 -5.25471C-4.34758 -11.5047 3.66088 -11.5047 3.66088 -5.25472C3.66088 0.995284 3.66088 12.5 3.66088 12.5L-4.57314 12.5C-4.57314 12.5 -4.34758 0.995284 -4.34758 -5.25471Z"></path>
  <path fill="none" stroke="#161616" stroke-width="0.5" stroke-linecap="round" stroke-linejoin="round" transform="matrix(3.88825 -0.763212 0.691401 3.5224 225.25 27.8041)" d="M4.30705e-06 1.51652L3.59227e-06 10.5382"></path>
  <path fill="#503F7E" transform="matrix(3.5224 -0.691401 0.691401 3.5224 195.835 52.7486)" d="M-5.1645 -6.50117C-5.1645 -12.7512 6 -12.7512 6 -6.50117C6 -0.25117 6 12.5 6 12.5L-6 12.5C-6 12.5 -5.1645 -0.251171 -5.1645 -6.50117Z"></path>
  <path fill="none" stroke="#161616" stroke-width="0.5" stroke-linecap="round" stroke-linejoin="round" transform="matrix(3.5224 -0.691401 0.691401 3.5224 196.049 32.7301)" d="M4.95376e-07 2.6499e-08L4.31007e-06 10.5382"></path>
  <path fill="#503F7E" transform="matrix(1.53139 0 0 1.39334 223.244 125.584)" d="M0 -40C20.9426 -40 35.0096 -26.8589 47.8597 -2.20017C49.1253 -3.81498 50.3123 -3.57652 51.1974 -3.11681C52.0824 -2.6571 52.5509 -1.60561 52.2206 -0.665335C53.8523 0.0632067 55.2854 1.47333 55.8775 2.67699C56.9197 4.79567 57.6743 10.5072 53.7931 11.8212C58.5977 31.9882 20.3682 22.0914 -1.32962e-05 22.0914C-20.2357 22.0914 -45.0732 28.3281 -41.8836 12.9784C-44.6787 11.8212 -48.2008 8.95145 -46.5316 4.29176C-45.7036 1.98007 -43.8185 0.567096 -42.3936 0.567005C-41.0392 0.566917 -42.9934 -2.19999 -40.2188 -3.8149C-39.0195 -4.5129 -37.7273 -4.43211 -36.6068 -4.12355C-28.0141 -23.731 -20.4124 -40 0 -40Z"></path>
  <clipPath id="cl_64">
    <path d="M223.244 69.8503C255.315 69.8503 276.857 88.1603 296.535 122.518C298.473 120.268 300.291 120.601 301.646 121.241C303.002 121.882 303.719 123.347 303.213 124.657C305.712 125.672 307.907 127.637 308.814 129.314C310.41 132.266 311.565 140.224 305.621 142.055C312.979 170.155 254.435 156.365 223.243 156.365C192.255 156.365 154.219 165.055 159.104 143.667C154.823 142.055 149.43 138.056 151.986 131.564C153.254 128.343 156.141 126.374 158.323 126.374C160.397 126.374 157.404 122.519 161.653 120.269C163.49 119.296 165.468 119.409 167.184 119.838C180.343 92.5185 191.984 69.8503 223.244 69.8503Z"></path>
  </clipPath>
  <g clip-path="url(#cl_64)">
    <path fill="#7463A5" transform="matrix(1.8 2.98023e-08 0.00759348 1.8 218.54 110.441)" d="M-1.90735e-06 -5.5C3.86599 -5.5 7 -2.92564 7 0.25C7 3.42564 3.86599 6 -1.90735e-06 6C-3.866 6 -7 3.42564 -7 0.25C-7 -2.92564 -3.866 -5.5 -1.90735e-06 -5.5Z"></path>
    <path fill="#7463A5" transform="matrix(1.83618 3.04014e-08 0.00759348 1.8 271.088 102.295)" d="M9.53674e-07 -5.00001C2.76142 -5.00001 5 -2.6495 5 0.249992C5 3.14949 2.76142 5.49999 9.53674e-07 5.49999C-2.76142 5.49999 -5 3.14949 -5 0.249992C-5 -2.6495 -2.76142 -5.00001 9.53674e-07 -5.00001Z"></path>
    <path fill="none" stroke="#131212" stroke-width="1" stroke-linecap="round" stroke-linejoin="round" transform="matrix(2.30699 -0.373724 0.274137 1.69224 249.32 95.5994)" d="M1.44192e-06 1.48447e-05L2.92891 -0.714552"></path>
    <path fill="none" stroke="#131212" stroke-width="1" stroke-linecap="round" stroke-linejoin="round" transform="matrix(2.30699 -0.373724 0.274137 1.69224 227.569 94.7697)" d="M7.7486e-07 -1.48459e-07L4.25731 1.79213"></path>
    <path fill="#131212" transform="matrix(2.47104 -0.400299 0.405754 2.50471 241.354 97.8799)" d="M-2.27592e-08 -2.15485e-07L1.9614 0.352738L0.91509 1.42246L-2.27592e-08 -2.15485e-07Z"></path>
    <path fill="none" stroke="#131212" stroke-width="0.5" stroke-linecap="round" stroke-linejoin="round" transform="matrix(1.93759 -0.313883 0.31816 1.96399 244.413 101.415)" d="M1.18428e-07 -0.711224L-3.72341e-06 1.1102"></path>
    <path fill="#32225E" transform="matrix(1.74285 0.441491 -0.424043 1.74552 238.201 90.0143)" d="M-2.87169e-08 -1.92716C1.62851 -1.92716 2.94867 -1.06434 2.94867 -4.39386e-08C2.94867 1.06434 1.62851 1.92716 2.87169e-08 1.92716C-1.62851 1.92716 -2.94867 1.06434 -2.94867 4.39386e-08C-2.94867 -1.06434 -1.62851 -1.92716 -2.87169e-08 -1.92716Z"></path>
    <path fill="#32225E" transform="matrix(1.71213 0.433708 -0.412468 1.69787 249.394 89.1394)" d="M-3.8147e-06 -1.89919C0.889985 -1.89919 1.61146 -1.04889 1.61146 -2.40127e-08C1.61146 1.04889 0.889985 1.89919 -3.8147e-06 1.89919C-0.889993 1.89919 -1.61147 1.04889 -1.61147 2.40127e-08C-1.61147 -1.04889 -0.889993 -1.89919 -3.8147e-06 -1.89919Z"></path>
  </g>
  <path fill="none" stroke="black" stroke-width="6" stroke-linejoin="round" transform="matrix(1.8 0 0 1.8 170.253 262.174)" d="M-29.867 14.5677C-48.1329 -20.7094 8.25643 -49.9068 26.5223 -14.6298C34.3021 0.395286 47.2801 25.4599 55.3426 41.031C58.1753 46.502 55.8213 60.4633 35.308 71.3894C14.7947 82.3154 2.21614 76.5302 0.00814819 72.2659C-8.10158 56.6035 -24.1257 25.6559 -29.867 14.5677Z"></path>
  <path fill="none" stroke="black" stroke-width="6" stroke-linecap="round" stroke-linejoin="bevel" transform="matrix(1.8 0 0 1.67094 170.253 171.927)" d="M30.0122 38.3726C30.0122 46.2536 30.0122 53.0353 30.0122 56.5422C30.0122 99.4987 -33.4878 99.4565 -33.4878 56.5C-33.4878 45.7166 -33.4878 25.8944 -33.4878 13.4087C-33.4878 0.923035 -27.2264 -16.9124 -11.1466 -16.9124C-9.37297 -16.9124 -7.74887 -16.9124 -6.2534 -16.9124"></path>
  <path fill="#503F7E" transform="matrix(1.8 0 0 1.8 170.253 262.174)" d="M-29.867 14.5677C-48.8915 -22.1745 7.49781 -51.372 26.5223 -14.6298C34.3021 0.395285 47.2801 25.4599 55.3426 41.031C58.1753 46.502 55.8213 60.4633 35.308 71.3894C14.7947 82.3154 2.21614 76.5302 0.00814819 72.2659C-8.10158 56.6035 -24.1257 25.6559 -29.867 14.5677Z"></path>
  <path fill="#503F7E" transform="matrix(1.8 0 0 1.67094 170.253 171.927)" d="M-33.4878 13.4087C-33.4878 0.923035 -27.2264 -16.9124 -11.1466 -16.9124C4.93322 -16.9124 8.72314 -16.9124 15.7874 -16.9124C22.8516 -16.9124 30.0122 -12.9094 30.0122 2.79268C30.0122 18.4947 30.0122 47.7681 30.0122 56.5422C30.0122 94.3272 -33.4878 94.285 -33.4878 56.5C-33.4878 45.7166 -33.4878 25.8944 -33.4878 13.4087Z"></path>
  <path fill="none" stroke="black" stroke-width="7" stroke-linecap="round" stroke-miterlimit="4" transform="translate(256 256)" d="M-6.14386 -126.448C52.2601 -126.448 99.6059 -126.374 99.6059 -126.281C99.6059 -126.189 52.2601 -126.115 -6.14386 -126.115C-64.5478 -126.115 -111.894 -126.189 -111.894 -126.281C-111.894 -126.374 -64.5478 -126.448 -6.14386 -126.448Z"></path>
  <path fill="#8D5A3E" transform="matrix(1.27409 9.56891e-23 -1.50956e-25 0.00200997 249.856 129.719)" d="M-1.02305e-30 -83.0039C45.8396 -83.0039 83 -45.8435 83 -0.00390625C83 45.8357 45.8396 82.9961 1.02305e-30 82.9961C-45.8396 82.9961 -83 45.8357 -83 -0.00390625C-83 -45.8435 -45.8396 -83.0039 -1.02305e-30 -83.0039Z"></path>
  <path fill="#65524C" transform="matrix(0.732603 5.50213e-23 -1.39281e-25 0.00185451 249.856 129.746)" d="M0 -97.5C45.8396 -97.5 83 -53.8478 83 -2.68187e-25C83 53.8478 45.8396 97.5 0 97.5C-45.8396 97.5 -83 53.8478 -83 2.68187e-25C-83 -53.8478 -45.8396 -97.5 0 -97.5Z"></path>
  <clipPath id="cl_6c">
    <path d="M249.856 129.565C283.438 129.565 310.662 129.646 310.662 129.746C310.662 129.846 283.438 129.927 249.856 129.927C216.274 129.927 189.05 129.846 189.05 129.746C189.05 129.646 216.274 129.565 249.856 129.565Z"></path>
  </clipPath>
  <g clip-path="url(#cl_6c)">
    <path fill="#281C18" transform="matrix(0.732603 5.50213e-23 -1.39281e-25 0.00185451 230.745 129.746)" d="M3.8147e-06 -97.4922C45.8396 -97.4922 83 -53.84 83 0.0078125C83 53.8556 45.8396 97.5078 3.8147e-06 97.5078C-45.8396 97.5078 -83 53.8556 -83 0.0078125C-83 -53.84 -45.8396 -97.4922 3.8147e-06 -97.4922Z"></path>
  </g>
  <path fill="none" stroke="black" stroke-width="7" stroke-linejoin="round" transform="translate(256 256)" d="M-110.671 -126.305C-110.685 -126.305 -110.698 -126.306 -110.709 -126.306C-110.709 -126.306 -156.311 -111.841 -156.534 -70.8774C-156.534 -70.8774 -139.16 -63.3584 -93.3282 -49.7483C-57.5869 -39.1345 -62.6492 -46.1714 -7.0665 -43.2359C16.793 -40.6274 62.959 -49.8993 62.959 -49.8993C62.959 -49.8993 62.6623 -58.9442 67.9277 -58.9442C73.1931 -58.9442 76.2347 -49.8993 76.2347 -49.8993C88.9785 -49.8993 100.393 -56.3493 109.976 -57.7442C140.175 -62.1398 143.8 -70.8774 143.8 -70.8774C143.8 -111.841 98.027 -126.306 98.027 -126.306C83.8013 -126.195 46.701 -126.115 -6.14386 -126.114C-58.7284 -126.114 -107.877 -126.194 -110.671 -126.305"></path>
  <path fill="none" stroke="black" stroke-width="21" stroke-linecap="round" stroke-linejoin="round" transform="matrix(0.972 7.30008e-23 -7.30008e-23 0.972 91.4201 185.123)" d="M8.27734 0C8.27734 0 26.1524 7.73552 73.3042 21.7377C110.075 32.6572 104.867 25.4176 162.051 28.4377C186.598 31.1214 234.093 21.5824 234.093 21.5824C234.093 21.5824 233.788 12.2769 239.205 12.2769C244.622 12.2769 247.752 21.5824 247.752 21.5824C260.863 21.5824 272.606 14.9466 282.465 13.5115C313.534 8.98929 317.263 0 317.263 0C317.263 -0.78948 317.246 -1.56939 317.214 -2.33982"></path>
  <path fill="none" stroke="white" stroke-width="14" stroke-linecap="round" stroke-linejoin="round" transform="matrix(0.972 7.30008e-23 -7.30008e-23 0.972 91.4201 185.123)" d="M8.27734 0C8.27734 0 26.1524 7.73552 73.3042 21.7377C110.075 32.6572 104.867 25.4176 162.051 28.4377C186.598 31.1214 234.093 21.5824 234.093 21.5824C234.093 21.5824 233.788 12.2769 239.205 12.2769C244.622 12.2769 247.752 21.5824 247.752 21.5824C260.863 21.5824 272.606 14.9466 282.465 13.5115C313.534 8.98929 317.263 0 317.263 0C317.263 -0.927456 317.24 -1.84171 317.195 -2.74289"></path>
  <path fill="#8D5A3E" transform="matrix(0.972 7.30008e-23 -7.30008e-23 0.972 91.4201 185.123)" d="M8.27734 0C8.27734 0 28.6505 6.97293 72.0222 20.0838C95.5232 27.188 124.361 26.4472 162.051 28.4377C186.598 31.1214 234.093 21.5824 234.093 21.5824C234.093 21.5824 234.776 13.5868 238.41 13.5868C242.043 13.5868 247.752 21.5824 247.752 21.5824C260.529 21.5824 277.837 13.8723 286.934 12.7945C317.391 9.18615 317.263 0 317.263 0C317.263 -42.1439 270.172 -57.0257 270.172 -57.0257C255.536 -56.9111 217.367 -56.8284 163 -56.8281C108.633 -56.8279 57.8352 -56.9111 55.4223 -57.0258C55.4223 -57.0258 8.50731 -42.1439 8.27734 0Z"></path>
  <clipPath id="cl_6d">
    <path d="M99.4657 185.123C99.4657 185.123 119.268 191.9 161.426 204.644C184.269 211.549 212.299 210.829 248.934 212.764C272.793 215.373 318.959 206.101 318.959 206.101C318.959 206.101 319.623 198.329 323.154 198.329C326.686 198.329 332.235 206.101 332.235 206.101C344.655 206.101 361.478 198.607 370.32 197.559C399.924 194.052 399.8 185.123 399.8 185.123C399.8 144.159 354.027 129.694 354.027 129.694C339.801 129.805 302.701 129.885 249.856 129.886C197.011 129.886 147.636 129.805 145.291 129.694C145.291 129.694 99.6892 144.159 99.4657 185.123Z"></path>
  </clipPath>
  <g clip-path="url(#cl_6d)">
    <path fill="#7F4728" transform="matrix(2.61439 -0.086419 0.123843 3.74656 194.452 184.637)" d="M-14.8742 -9.69253L16.7537 -6.3603L15.092 9.39556L-21.0084 4.35254L-14.8742 -9.69253Z"></path>
  </g>
  <path fill="none" stroke="#612F13" stroke-width="1" stroke-linecap="round" stroke-linejoin="round" transform="matrix(0.0654088 -1.56104 1.56104 0.0654088 205.396 158.992)" d="M1.02357 0.373768L4.21644 0.641892"></path>
  <path fill="none" stroke="#612F13" stroke-width="1" stroke-linecap="round" stroke-linejoin="round" transform="matrix(0.0654088 -1.56104 1.56104 0.0654088 193.246 158.506)" d="M1.02357 0.373775L4.21644 0.641899"></path>
  <clipPath id="cl_6e">
    <path d="M99.4657 185.123C99.4657 185.123 119.268 191.9 161.426 204.644C184.269 211.549 212.299 210.829 248.934 212.764C272.793 215.373 318.959 206.101 318.959 206.101C318.959 206.101 319.623 198.329 323.154 198.329C326.686 198.329 332.235 206.101 332.235 206.101C344.655 206.101 361.478 198.607 370.32 197.559C399.924 194.052 399.8 185.123 399.8 185.123C399.8 144.159 354.027 129.694 354.027 129.694C339.801 129.805 302.701 129.885 249.856 129.886C197.011 129.886 147.636 129.805 145.291 129.694C145.291 129.694 99.6892 144.159 99.4657 185.123Z"></path>
  </clipPath>
  <g clip-path="url(#cl_6e)">
    <clipPath id="cl_6f">
      <path d="M99.4657 185.123C99.4657 185.123 119.268 191.9 161.426 204.644C184.269 211.549 212.299 210.829 248.934 212.764C272.793 215.373 318.959 206.101 318.959 206.101C318.959 206.101 319.623 198.329 323.154 198.329C326.686 198.329 332.235 206.101 332.235 206.101C344.655 206.101 361.478 198.607 370.32 197.559C399.924 194.052 399.8 185.123 399.8 185.123C399.8 144.159 354.027 129.694 354.027 129.694C339.801 129.805 302.701 129.885 249.856 129.886C197.011 129.886 147.636 129.805 145.291 129.694C145.291 129.694 99.6892 144.159 99.4657 185.123Z"></path>
    </clipPath>
    <g clip-path="url(#cl_6f)">
      <path fill="#7F4728" transform="matrix(0.972 7.30008e-23 -7.30008e-23 0.972 379.618 161.066)" d="M7.62939e-06 -32.5C25.6812 -32.5 46.5 -17.8373 46.5 0.249992C46.5 18.3373 25.6812 33 7.62939e-06 33C-25.6812 33 -46.5 18.3373 -46.5 0.249992C-46.5 -17.8373 -25.6812 -32.5 7.62939e-06 -32.5Z"></path>
    </g>
    <path fill="none" stroke="#612F13" stroke-width="1" stroke-linecap="round" stroke-linejoin="round" transform="matrix(-1.42852 0.632822 -0.632822 -1.42852 338.794 165.683)" d="M1.02357 0.373773L4.21644 0.641897"></path>
    <path fill="none" stroke="#612F13" stroke-width="1" stroke-linecap="round" stroke-linejoin="round" transform="matrix(-0.810895 1.33551 -1.33551 -0.810895 353.86 182.207)" d="M1.02357 0.373772L4.21644 0.641895"></path>
    <path fill="none" stroke="#612F13" stroke-width="1" stroke-linecap="round" stroke-linejoin="round" transform="matrix(-1.5617 -0.0472275 0.0472275 -1.5617 339.28 155.963)" d="M1.02357 0.373779L4.21644 0.641903"></path>
  </g>
</svg>