<?xml version="1.0" encoding="utf-8"?>
<svg xmlns="http://www.w3.org/2000/svg" xmlns:xlink="http://www.w3.org/1999/xlink" width="512" height="512">
  <path fill="none" stroke="black" stroke-width="6" stroke-linejoin="round" transform="matrix(1.8 0 0 1.52279 359.051 169.591)" d="M-17.0812 -16.9737C-13.427 -16.9737 -10.7734 -16.9737 -7.35157 -16.9737C-0.287342 -16.9737 6.87328 -12.9707 6.87328 2.73135C6.87328 18.4334 6.87328 47.7067 6.87328 56.4809C6.87328 99.4374 -56.6267 99.3952 -56.6267 56.4387C-56.6267 45.6553 -56.6267 25.833 -56.6267 13.3474C-56.6267 0.86171 -50.3654 -16.9737 -34.2855 -16.9737C-33.0818 -16.9737 -31.947 -16.9737 -30.8745 -16.9737"></path>
  <path fill="none" stroke="black" stroke-width="6" stroke-linejoin="round" transform="matrix(1.8 0 0 1.64041 359.051 251.837)" d="M-56.6271 -0.281033C-56.268 -42.902 7.22976 -42.367 6.87066 0.253963C6.72811 17.1731 6.4903 45.3973 6.34256 62.9313C6.29066 69.0919 -2.3143 80.3354 -25.5558 80.4101C-48.7974 80.4848 -57.215 69.4924 -57.1745 64.6905C-57.0259 47.0537 -56.7323 12.2049 -56.6271 -0.281033Z"></path>
  <path fill="#503F7E" transform="matrix(1.8 0 0 1.52279 359.051 169.591)" d="M-56.6267 13.3474C-56.6267 0.861706 -50.3654 -16.9737 -34.2855 -16.9737C-18.2057 -16.9737 -14.4158 -16.9737 -7.35157 -16.9737C-0.287342 -16.9737 6.87328 -12.9707 6.87328 2.73135C6.87328 18.4334 6.87328 47.7067 6.87328 56.4809C6.87328 99.4374 -56.6267 99.3952 -56.6267 56.4387C-56.6267 45.6553 -56.6267 25.833 -56.6267 13.3474Z"></path>
  <path fill="#503F7E" transform="matrix(1.8 0 0 1.64041 359.051 251.837)" d="M-56.6271 -0.281034C-56.268 -42.902 7.22976 -42.367 6.87066 0.253962C6.72811 17.1731 6.4903 45.3973 6.34256 62.9313C6.29066 69.0919 -2.3143 80.3354 -25.5558 80.4101C-48.7974 80.4848 -57.215 69.4924 -57.1745 64.6905C-57.0259 47.0537 -56.7323 12.2049 -56.6271 -0.281034Z"></path>
  <path fill="none" stroke="black" stroke-width="5" stroke-linejoin="round" transform="matrix(1.67985 0 0 1.8 269.501 356.202)" d="M10.5387 -15.6805C28.7399 -14.8037 41.4379 -10.0144 38.8202 37.3114C38.4801 51.415 41.5536 66.377 26.5779 73.9958C15.0092 73.9037 2.08582 74.7101 -14.3789 74.4456C-25.2184 65.9848 -24.6317 50.187 -24.256 33.3685C-22.3034 -13.0852 -7.66245 -16.5574 10.5387 -15.6805Z"></path>
  <path fill="#453279" transform="matrix(1.67985 0 0 1.8 269.501 356.202)" d="M10.5387 -15.6805C28.7399 -14.8037 41.4379 -10.0144 38.8202 37.3114C38.4801 51.415 41.5536 66.377 26.5779 73.9958C15.0092 73.9037 2.08582 74.7101 -14.3789 74.4456C-25.2184 65.9848 -24.6317 50.187 -24.256 33.3685C-22.3034 -13.0852 -7.66245 -16.5574 10.5387 -15.6805Z"></path>
  <path fill="none" stroke="black" stroke-width="5" stroke-linejoin="round" transform="matrix(1.67985 0 0 1.8 191.63 362.835)" d="M1.14441e-05 -14.3439C18.2254 -14.3439 31.1711 -10.1719 31.1712 37.2169C31.7865 56.0934 34.5752 69.036 19.1016 75.646C3.62799 76.0176 -7.05902 76.224 -21.8955 75.8837C-36.732 69.3049 -32.1706 52.8104 -32.0389 36.314C-32.655 -10.1719 -18.2254 -14.3439 1.14441e-05 -14.3439Z"></path>
  <path fill="none" stroke="black" stroke-width="5" stroke-linejoin="round" transform="matrix(1.79976 0.0276995 -0.0293645 1.69771 277.471 279.649)" d="M-11.3238 -80.2543C25.8014 -80.2543 54.9476 -94.6926 58.9092 -40.8672C62.8708 12.9582 37.0524 74.7499 0.0572919 75.3534C-14.1177 75.5847 -17.7665 75.6442 -48.2096 76.1409C-78.6526 76.6376 -84.25 60.12 -84.25 0C-86.6294 -86.0849 -88.6034 -78.4854 -12.7475 -80.2208"></path>
  <path fill="#503F7E" transform="matrix(1.67985 0 0 1.8 191.63 362.835)" d="M1.14441e-05 -14.3439C18.2254 -14.3439 31.1711 -10.1719 31.1712 37.2169C31.7865 56.0934 34.5752 69.036 19.1016 75.646C3.62799 76.0176 -7.05902 76.224 -21.8955 75.8837C-36.732 69.3049 -32.1706 52.8104 -32.0389 36.314C-32.655 -10.1719 -18.2254 -14.3439 1.14441e-05 -14.3439Z"></path>
  <path fill="none" stroke="black" stroke-width="5" stroke-linejoin="round" transform="matrix(1.53139 0 0 1.39334 229.22 125.584)" d="M0 -40C20.9426 -40 35.0096 -26.8589 47.8597 -2.20017C49.1253 -3.81498 50.3123 -3.57652 51.1974 -3.11681C52.0824 -2.6571 52.5509 -1.60561 52.2206 -0.665335C53.8523 0.0632067 55.2854 1.47333 55.8775 2.67699C56.9197 4.79567 57.6743 10.5072 53.7931 11.8212C58.5977 31.9882 20.3682 22.0914 -1.32962e-05 22.0914C-20.2357 22.0914 -45.0732 28.3281 -41.8836 12.9784C-44.6787 11.8212 -48.2008 8.95145 -46.5316 4.29176C-45.7036 1.98007 -43.8185 0.567096 -42.3936 0.567005C-41.0392 0.566917 -42.9934 -2.19999 -40.2188 -3.8149C-39.0195 -4.5129 -37.7273 -4.43211 -36.6068 -4.12355C-28.0141 -23.731 -20.4124 -40 0 -40Z"></path>
  <path fill="#503F7E" transform="matrix(1.79976 0.0276995 -0.0293645 1.69771 277.471 279.649)" d="M-11.3238 -80.2543C25.8014 -80.2543 54.9476 -94.6926 58.9092 -40.8672C62.8708 12.9582 37.0524 74.7499 0.0572919 75.3534C-14.1177 75.5847 -17.7665 75.6442 -48.2096 76.1409C-78.6526 76.6376 -84.25 60.12 -84.25 0C-86.6442 -86.62 -88.6279 -78.3873 -11.3238 -80.2543Z"></path>
  <clipPath id="cl_393">
    <path d="M259.448 143.087C326.264 144.115 379.144 120.411 384.694 211.9C390.243 303.39 341.962 407.579 275.362 407.579C249.843 407.579 243.274 407.579 188.47 407.579C133.665 407.579 124.076 379.382 125.841 277.316C124.076 130.193 120.264 144.115 259.448 143.087Z"></path>
  </clipPath>
  <g clip-path="url(#cl_393)">
    <path fill="#655494" transform="matrix(1.8 0 0 1.8 314.597 261.728)" d="M-0.158646 -48.2655C25.513 -48.2655 46.324 -26.6563 46.324 0C46.324 26.6563 25.513 48.2655 -0.158646 48.2655C-25.8303 48.2655 -46.6413 26.6563 -46.6413 0C-46.6413 -26.6563 -25.8303 -48.2655 -0.158646 -48.2655Z"></path>
  </g>
  <path fill="none" stroke="black" stroke-width="2" stroke-linejoin="round" transform="matrix(3.88825 -0.763212 0.691401 3.5224 236.02 47.3358)" d="M-4.34758 -5.25471C-4.34758 -11.5047 3.66088 -11.5047 3.66088 -5.25472C3.66088 0.995284 3.66088 12.5 3.66088 12.5L-4.57314 12.5C-4.57314 12.5 -4.34758 0.995284 -4.34758 -5.25471Z"></path>
  <path fill="none" stroke="black" stroke-width="2" stroke-linejoin="round" transform="matrix(3.5224 -0.691401 0.691401 3.5224 201.812 52.7486)" d="M-5.1645 -6.50116C-5.16451 -12.7512 6 -12.7512 6 -6.50116C6 -0.251162 6 12.5 6 12.5L-6 12.5C-6 12.5 -5.1645 -0.251163 -5.1645 -6.50116Z"></path>
  <path fill="#453279" transform="matrix(3.88825 -0.763212 0.691401 3.5224 236.02 47.3358)" d="M-4.34758 -5.25471C-4.34758 -11.5047 3.66088 -11.5047 3.66088 -5.25472C3.66088 0.995284 3.66088 12.5 3.66088 12.5L-4.57314 12.5C-4.57314 12.5 -4.34758 0.995284 -4.34758 -5.25471Z"></path>
  <path fill="none" stroke="#161616" stroke-width="0.5" stroke-linecap="round" stroke-linejoin="round" transform="matrix(3.88825 -0.763212 0.691401 3.5224 231.227 27.8041)" d="M4.54547e-06 1.51652L3.83069e-06 10.5382"></path>
  <path fill="#503F7E" transform="matrix(3.5224 -0.691401 0.691401 3.5224 201.812 52.7486)" d="M-5.1645 -6.50117C-5.1645 -12.7512 6 -12.7512 6 -6.50117C6 -0.251166 6 12.5 6 12.5L-6 12.5C-6 12.5 -5.1645 -0.251167 -5.1645 -6.50117Z"></path>
  <path fill="none" stroke="#161616" stroke-width="0.5" stroke-linecap="round" stroke-linejoin="round" transform="matrix(3.5224 -0.691401 0.691401 3.5224 202.026 32.7301)" d="M1.21063e-06 7.65589e-06L5.02533e-06 10.5382"></path>
  <path fill="#503F7E" transform="matrix(1.53139 0 0 1.39334 229.22 125.584)" d="M0 -40C20.9426 -40 35.0096 -26.8589 47.8597 -2.20017C49.1253 -3.81498 50.3123 -3.57652 51.1974 -3.11681C52.0824 -2.6571 52.5509 -1.60561 52.2206 -0.665335C53.8523 0.0632067 55.2854 1.47333 55.8775 2.67699C56.9197 4.79567 57.6743 10.5072 53.7931 11.8212C58.5977 31.9882 20.3682 22.0914 -1.32962e-05 22.0914C-20.2357 22.0914 -45.0732 28.3281 -41.8836 12.9784C-44.6787 11.8212 -48.2008 8.95145 -46.5316 4.29176C-45.7036 1.98007 -43.8185 0.567096 -42.3936 0.567005C-41.0392 0.566917 -42.9934 -2.19999 -40.2188 -3.8149C-39.0195 -4.5129 -37.7273 -4.43211 -36.6068 -4.12355C-28.0141 -23.731 -20.4124 -40 0 -40Z"></path>
  <clipPath id="cl_394">
    <path d="M229.22 69.8503C261.292 69.8503 282.834 88.1603 302.512 122.518C304.45 120.268 306.268 120.601 307.623 121.241C308.979 121.882 309.696 123.347 309.19 124.657C311.689 125.672 313.884 127.637 314.79 129.314C316.387 132.266 317.542 140.224 311.598 142.055C318.956 170.155 260.412 156.365 229.22 156.365C198.232 156.365 160.196 165.055 165.081 143.667C160.8 142.055 155.407 138.056 157.963 131.564C159.231 128.343 162.118 126.374 164.3 126.374C166.374 126.374 163.381 122.519 167.63 120.269C169.467 119.296 171.445 119.409 173.161 119.838C186.32 92.5185 197.961 69.8503 229.22 69.8503Z"></path>
  </clipPath>
  <g clip-path="url(#cl_394)">
    <path fill="#7463A5" transform="matrix(1.8 2.98023e-08 0.00759348 1.8 232.969 110.441)" d="M0 -5.5C3.86599 -5.5 7 -2.92564 7 0.25C7 3.42564 3.86599 6 0 6C-3.86599 6 -7 3.42564 -7 0.25C-7 -2.92564 -3.86599 -5.5 0 -5.5Z"></path>
    <path fill="#7463A5" transform="matrix(1.83618 3.04014e-08 0.00759348 1.8 285.517 102.295)" d="M0 -5.00001C2.76142 -5.00001 5 -2.6495 5 0.249992C5 3.14949 2.76142 5.49999 0 5.49999C-2.76142 5.49999 -5 3.14949 -5 0.249992C-5 -2.6495 -2.76142 -5.00001 0 -5.00001Z"></path>
    <path fill="none" stroke="#131212" stroke-width="1" stroke-linecap="round" stroke-linejoin="round" transform="matrix(2.30699 -0.373724 0.274137 1.69224 263.749 95.5994)" d="M1.44192e-06 7.21529e-06L2.92891 -0.71456"></path>
    <path fill="none" stroke="#131212" stroke-width="1" stroke-linecap="round" stroke-linejoin="round" transform="matrix(2.30699 -0.373724 0.274137 1.69224 241.998 94.7697)" d="M9.53674e-07 -1.48459e-07L4.25731 1.79213"></path>
    <path fill="#131212" transform="matrix(2.47104 -0.400299 0.405754 2.50471 255.783 97.8799)" d="M4.54078e-07 -4.03018e-06L1.9614 0.352734L0.91509 1.42246L4.54078e-07 -4.03018e-06Z"></path>
    <path fill="none" stroke="#131212" stroke-width="0.5" stroke-linecap="round" stroke-linejoin="round" transform="matrix(1.93759 -0.313883 0.31816 1.96399 258.843 101.415)" d="M-8.35247e-07 -0.711224L-4.67709e-06 1.1102"></path>
    <path fill="#32225E" transform="matrix(1.74285 0.441491 -0.424043 1.74552 252.631 90.0143)" d="M-1.93607e-06 -1.92716C1.6285 -1.92716 2.94867 -1.06434 2.94867 -4.39386e-08C2.94867 1.06434 1.6285 1.92716 -1.87863e-06 1.92716C-1.62851 1.92716 -2.94867 1.06434 -2.94867 4.39386e-08C-2.94867 -1.06434 -1.62851 -1.92716 -1.93607e-06 -1.92716Z"></path>
    <path fill="#32225E" transform="matrix(1.71213 0.433708 -0.412468 1.69787 263.824 89.1394)" d="M-5.72205e-06 -1.89918C0.889983 -1.89918 1.61146 -1.04889 1.61146 7.60538e-06C1.61146 1.0489 0.889983 1.8992 -5.72205e-06 1.8992C-0.889995 1.8992 -1.61147 1.0489 -1.61147 7.65341e-06C-1.61147 -1.04889 -0.889995 -1.89918 -5.72205e-06 -1.89918Z"></path>
  </g>
  <path fill="none" stroke="black" stroke-width="6" stroke-linejoin="round" transform="matrix(1.8 0 0 1.8 170.253 262.174)" d="M39.5328 5.20253C7.91341 -18.846 46.3543 -69.3886 77.9736 -45.34C91.4408 -35.0974 113.907 -18.0107 127.863 -7.39583C132.767 -3.66626 136.622 9.95726 122.768 28.6188C108.915 47.2804 95.0706 47.4426 91.2484 44.5356C77.21 33.8585 49.4712 12.7614 39.5328 5.20253Z"></path>
  <path fill="none" stroke="black" stroke-width="6" stroke-linecap="round" stroke-linejoin="bevel" transform="matrix(1.8 0 0 1.67094 170.253 171.927)" d="M65.4263 -4.9487C71.5727 0.00544953 76.905 4.30341 79.612 6.48535C111.54 32.2204 73.4663 86.9652 41.5381 61.2301C33.5231 54.7699 18.7899 42.8944 9.50966 35.4143C0.22945 27.9342 -9.27592 11.8485 0.357418 -2.02063C1.14035 -3.14781 1.87464 -4.20498 2.56531 -5.19934"></path>
  <path fill="#503F7E" transform="matrix(1.8 0 0 1.67094 170.253 171.927)" d="M9.50967 35.4143C0.22945 27.9342 -9.27591 11.8485 0.357418 -2.02063C9.99077 -15.8898 12.2613 -19.1587 16.4934 -25.2517C20.7256 -31.3448 27.9908 -35.1228 39.6617 -25.7157C51.3325 -16.3087 73.0905 1.22882 79.612 6.48535C107.696 29.1222 69.6225 83.867 41.5381 61.2301C33.5231 54.7699 18.7899 42.8944 9.50967 35.4143Z"></path>
  <path fill="none" stroke="black" stroke-width="7" stroke-linecap="round" stroke-miterlimit="4" transform="translate(256 256)" d="M-6.14386 -136.777C52.2601 -136.777 99.6059 -136.703 99.6059 -136.611C99.6059 -136.518 52.2601 -136.444 -6.14386 -136.444C-64.5478 -136.444 -111.894 -136.518 -111.894 -136.611C-111.894 -136.703 -64.5478 -136.777 -6.14386 -136.777Z"></path>
  <path fill="#8D5A3E" transform="matrix(1.27409 9.56891e-23 -1.50956e-25 0.00200997 249.856 119.389)" d="M-1.02305e-30 -83.0078C45.8396 -83.0078 83 -45.8475 83 -0.0078125C83 45.8318 45.8396 82.9922 1.02305e-30 82.9922C-45.8396 82.9922 -83 45.8318 -83 -0.0078125C-83 -45.8475 -45.8396 -83.0078 -1.02305e-30 -83.0078Z"></path>
  <path fill="#65524C" transform="matrix(0.732603 5.50213e-23 -1.39281e-25 0.00185451 249.856 119.417)" d="M0 -97.5C45.8396 -97.5 83 -53.8478 83 -2.68187e-25C83 53.8478 45.8396 97.5 0 97.5C-45.8396 97.5 -83 53.8478 -83 2.68187e-25C-83 -53.8478 -45.8396 -97.5 0 -97.5Z"></path>
  <clipPath id="cl_39c">
    <path d="M249.856 119.236C283.438 119.236 310.662 119.317 310.662 119.417C310.662 119.516 283.438 119.597 249.856 119.597C216.274 119.597 189.05 119.516 189.05 119.417C189.05 119.317 216.274 119.236 249.856 119.236Z"></path>
  </clipPath>
  <g clip-path="url(#cl_39c)">
    <path fill="#281C18" transform="matrix(0.732603 5.50213e-23 -1.39281e-25 0.00185451 230.745 119.417)" d="M3.8147e-06 -97.5C45.8396 -97.5 83 -53.8478 83 -2.68187e-25C83 53.8478 45.8396 97.5 3.8147e-06 97.5C-45.8396 97.5 -83 53.8478 -83 2.68187e-25C-83 -53.8478 -45.8396 -97.5 3.8147e-06 -97.5Z"></path>
  </g>
  <path fill="none" stroke="black" stroke-width="7" stroke-linejoin="round" transform="translate(256 256)" d="M-108.342 -136.6C-109.647 -136.612 -110.455 -136.623 -110.709 -136.636C-110.709 -136.636 -156.311 -122.17 -156.534 -81.2065C-156.534 -81.2065 -139.16 -73.6876 -93.3282 -60.0774C-57.5869 -49.4637 -71.4294 -86.7251 -17.5572 -92.0547C7.39622 -93.1321 36.2654 -108.07 36.2654 -108.07C36.2654 -108.07 34.4579 -114.328 39.7233 -114.328C44.9887 -114.328 48.182 -109.972 48.182 -109.972C59.6212 -111.798 100.393 -66.6784 109.976 -68.0733C140.175 -72.4689 143.8 -81.2065 143.8 -81.2065C143.8 -122.17 98.027 -136.635 98.027 -136.635C83.8013 -136.524 46.701 -136.444 -6.14386 -136.443C-53.2573 -136.443 -97.6129 -136.508 -108.342 -136.6"></path>
  <path fill="none" stroke="black" stroke-width="21" stroke-linecap="round" stroke-linejoin="round" transform="matrix(0.972 7.30008e-23 -7.30008e-23 0.972 91.4201 174.793)" d="M8.27734 0C8.27734 0 26.1524 7.73552 73.3042 21.7377C110.075 32.6572 95.8338 -5.67755 151.258 -11.1607C176.93 -12.2691 206.631 -27.6374 206.631 -27.6374C206.631 -27.6374 204.771 -34.0753 210.188 -34.0753C215.605 -34.0753 218.891 -29.5945 218.891 -29.5945C230.66 -31.4732 272.606 14.9466 282.465 13.5115C297.203 11.3664 305.788 8.2162 310.743 5.49707"></path>
  <path fill="none" stroke="white" stroke-width="14" stroke-linecap="round" stroke-linejoin="round" transform="matrix(0.972 7.30008e-23 -7.30008e-23 0.972 91.4201 174.793)" d="M8.27734 0C8.27734 0 26.1524 7.73552 73.3042 21.7377C110.075 32.6572 95.8338 -5.67755 151.258 -11.1607C176.93 -12.2691 206.631 -27.6374 206.631 -27.6374C206.631 -27.6374 204.771 -34.0753 210.188 -34.0753C215.605 -34.0753 218.891 -29.5945 218.891 -29.5945C230.66 -31.4732 272.606 14.9466 282.465 13.5115C306.643 9.9923 314.264 3.76779 316.455 1.1798"></path>
  <path fill="#8D5A3E" transform="matrix(0.972 7.30008e-23 -7.30008e-23 0.972 91.4201 174.793)" d="M8.27734 0C8.27734 0 28.6505 6.97293 72.0222 20.0838C95.5232 27.188 114.728 -7.54681 151.258 -11.1607C176.93 -12.2691 206.631 -27.6374 206.631 -27.6374C206.631 -27.6374 205.76 -32.7653 209.393 -32.7653C213.026 -32.7653 218.891 -29.5945 218.891 -29.5945C230.36 -31.4255 277.837 13.8723 286.934 12.7945C317.391 9.18614 317.263 0 317.263 0C317.263 -42.1439 270.172 -57.0257 270.172 -57.0257C255.536 -56.9111 217.367 -56.8284 163 -56.8281C108.633 -56.8279 57.8352 -56.9111 55.4223 -57.0258C55.4223 -57.0258 8.50731 -42.1439 8.27734 0Z"></path>
  <clipPath id="cl_39d">
    <path d="M99.4657 174.793C99.4657 174.793 119.268 181.571 161.426 194.315C184.269 201.22 202.936 167.458 238.443 163.945C263.396 162.868 292.265 147.93 292.265 147.93C292.265 147.93 291.418 142.946 294.95 142.946C298.481 142.946 304.182 146.028 304.182 146.028C315.33 144.248 361.478 188.277 370.32 187.23C399.924 183.722 399.8 174.793 399.8 174.793C399.8 133.83 354.027 119.365 354.027 119.365C339.801 119.476 302.701 119.556 249.856 119.557C197.011 119.557 147.636 119.476 145.291 119.364C145.291 119.364 99.6892 133.83 99.4657 174.793Z"></path>
  </clipPath>
  <g clip-path="url(#cl_39d)">
    <path fill="#7F4728" transform="matrix(2.61439 -0.086419 0.123843 3.74656 194.452 174.307)" d="M-14.8742 -9.69253L16.7537 -6.3603L15.092 9.39556L-21.0084 4.35254L-14.8742 -9.69253Z"></path>
  </g>
  <path fill="none" stroke="#612F13" stroke-width="1" stroke-linecap="round" stroke-linejoin="round" transform="matrix(0.0654088 -1.56104 1.56104 0.0654088 205.396 148.663)" d="M1.02357 0.373775L4.21644 0.641899"></path>
  <path fill="none" stroke="#612F13" stroke-width="1" stroke-linecap="round" stroke-linejoin="round" transform="matrix(0.0654088 -1.56104 1.56104 0.0654088 193.246 148.177)" d="M1.02357 0.373772L4.21644 0.641895"></path>
  <clipPath id="cl_39e">
    <path d="M99.4657 174.793C99.4657 174.793 119.268 181.571 161.426 194.315C184.269 201.22 202.936 167.458 238.443 163.945C263.396 162.868 292.265 147.93 292.265 147.93C292.265 147.93 291.418 142.946 294.95 142.946C298.481 142.946 304.182 146.028 304.182 146.028C315.33 144.248 361.478 188.277 370.32 187.23C399.924 183.722 399.8 174.793 399.8 174.793C399.8 133.83 354.027 119.365 354.027 119.365C339.801 119.476 302.701 119.556 249.856 119.557C197.011 119.557 147.636 119.476 145.291 119.364C145.291 119.364 99.6892 133.83 99.4657 174.793Z"></path>
  </clipPath>
  <g clip-path="url(#cl_39e)">
    <clipPath id="cl_39f">
      <path d="M99.4657 174.793C99.4657 174.793 119.268 181.571 161.426 194.315C184.269 201.22 202.936 167.458 238.443 163.945C263.396 162.868 292.265 147.93 292.265 147.93C292.265 147.93 291.418 142.946 294.95 142.946C298.481 142.946 304.182 146.028 304.182 146.028C315.33 144.248 361.478 188.277 370.32 187.23C399.924 183.722 399.8 174.793 399.8 174.793C399.8 133.83 354.027 119.365 354.027 119.365C339.801 119.476 302.701 119.556 249.856 119.557C197.011 119.557 147.636 119.476 145.291 119.364C145.291 119.364 99.6892 133.83 99.4657 174.793Z"></path>
    </clipPath>
    <g clip-path="url(#cl_39f)">
      <path fill="#7F4728" transform="matrix(0.972 7.30008e-23 -7.30008e-23 0.972 379.618 150.736)" d="M7.62939e-06 -32.5C25.6812 -32.5 46.5 -17.8373 46.5 0.249985C46.5 18.3373 25.6812 33 7.62939e-06 33C-25.6812 33 -46.5 18.3373 -46.5 0.249985C-46.5 -17.8373 -25.6812 -32.5 7.62939e-06 -32.5Z"></path>
    </g>
    <path fill="none" stroke="#612F13" stroke-width="1" stroke-linecap="round" stroke-linejoin="round" transform="matrix(-1.42852 0.632822 -0.632822 -1.42852 338.794 155.353)" d="M1.02357 0.373775L4.21644 0.641899"></path>
    <path fill="none" stroke="#612F13" stroke-width="1" stroke-linecap="round" stroke-linejoin="round" transform="matrix(-0.810895 1.33551 -1.33551 -0.810895 353.86 171.878)" d="M1.02358 0.373772L4.21645 0.641895"></path>
    <path fill="none" stroke="#612F13" stroke-width="1" stroke-linecap="round" stroke-linejoin="round" transform="matrix(-1.5617 -0.0472275 0.0472275 -1.5617 339.28 145.633)" d="M1.02357 0.373772L4.21644 0.641895"></path>
  </g>
  <path fill="#503F7E" transform="matrix(1.8 0 0 1.8 170.253 262.174)" d="M39.5328 5.20253C6.60016 -19.8448 45.041 -70.3874 77.9736 -45.34C91.4408 -35.0974 113.907 -18.0107 127.863 -7.39583C132.767 -3.66626 136.622 9.95725 122.768 28.6188C108.915 47.2804 95.0706 47.4426 91.2484 44.5356C77.21 33.8585 49.4712 12.7614 39.5328 5.20253Z"></path>
</svg>