<?xml version="1.0" encoding="utf-8"?>
<svg xmlns="http://www.w3.org/2000/svg" xmlns:xlink="http://www.w3.org/1999/xlink" width="686" height="512">
  <path fill="none" stroke="#414141" stroke-width="6" stroke-linejoin="round" transform="matrix(1.70248 0 0 1.44029 561.971 179.773)" d="M-12.9438 -16.9737C-9.28959 -16.9737 -6.63603 -16.9737 -3.2142 -16.9737C3.85004 -16.9737 11.0107 -12.9707 11.0107 2.73135C11.0107 18.4334 11.0107 47.7067 11.0107 56.4808C11.0107 99.4374 -52.4893 99.3952 -52.4893 56.4387C-52.4893 45.6553 -52.4893 25.833 -52.4893 13.3474C-52.4893 0.861706 -46.228 -16.9737 -30.1482 -16.9737C-28.9445 -16.9737 -27.8096 -16.9737 -26.7371 -16.9737"></path>
  <path fill="none" stroke="#414141" stroke-width="6" stroke-linejoin="round" transform="matrix(1.70248 0 0 1.55154 561.971 257.563)" d="M-52.4284 1.77709C-54.8453 -40.7768 8.55263 -44.3776 10.9695 -1.82365C11.9289 15.0688 13.5294 43.2486 14.5237 60.7551C14.8731 66.906 7.01848 78.6859 -16.1689 80.2738C-39.3563 81.8617 -48.4718 71.4407 -48.7441 66.6464C-49.7442 49.0374 -51.7204 14.2434 -52.4284 1.77709Z"></path>
  <path fill="#796D99" transform="matrix(1.70248 0 0 1.44029 561.971 179.773)" d="M-52.4893 13.3474C-52.4893 0.861706 -46.228 -16.9737 -30.1482 -16.9737C-14.0684 -16.9737 -10.2784 -16.9737 -3.2142 -16.9737C3.85004 -16.9737 11.0107 -12.9707 11.0107 2.73135C11.0107 18.4334 11.0107 47.7067 11.0107 56.4809C11.0107 99.4374 -52.4893 99.3952 -52.4893 56.4387C-52.4893 45.6553 -52.4893 25.833 -52.4893 13.3474Z"></path>
  <path fill="#796D99" transform="matrix(1.70248 0 0 1.55154 561.971 257.563)" d="M-52.4284 1.77709C-54.8453 -40.7768 8.55263 -44.3776 10.9695 -1.82365C11.9289 15.0688 13.5294 43.2486 14.5237 60.7551C14.8731 66.906 7.01848 78.6859 -16.1689 80.2738C-39.3563 81.8617 -48.4718 71.4407 -48.7441 66.6464C-49.7442 49.0374 -51.7204 14.2434 -52.4284 1.77709Z"></path>
  <path fill="none" stroke="#414141" stroke-width="5" stroke-linejoin="round" transform="matrix(1.58884 0 0 1.70248 477.273 356.274)" d="M2.60361 -15.6732C20.828 -15.8573 33.8214 -11.8163 34.3711 35.5698C34.9741 49.6657 39.3206 64.7761 24.4355 73.8812C12.8665 73.9083 -0.046669 74.8478 -16.5135 74.7529C-27.4577 66.0386 -28.097 52.1132 -28.8459 35.3055C-30.0012 -11.1715 -15.6208 -15.489 2.60361 -15.6732Z"></path>
  <path fill="#716495" transform="matrix(1.58884 0 0 1.70248 477.273 356.274)" d="M2.60361 -15.6732C20.828 -15.8573 33.8214 -11.8163 34.3711 35.5698C34.9741 49.6657 39.3206 64.7761 24.4355 73.8812C12.8665 73.9083 -0.046669 74.8478 -16.5135 74.7529C-27.4577 66.0386 -28.097 52.1132 -28.8459 35.3055C-30.0012 -11.1715 -15.6208 -15.489 2.60361 -15.6732Z"></path>
  <path fill="none" stroke="#414141" stroke-width="5" stroke-linejoin="round" transform="matrix(1.58884 0 0 1.70248 403.62 362.548)" d="M-0.651836 -14.3137C17.5575 -15.0287 30.6797 -11.3682 32.8142 35.9788C34.2792 54.8144 37.6484 67.6363 22.4861 74.8474C7.04288 75.8257 -3.62542 76.4511 -18.4642 76.6931C-33.5839 70.7021 -29.7695 54.0433 -30.3809 37.5562C-33.0902 -8.86441 -18.8612 -13.5988 -0.651836 -14.3137Z"></path>
  <path fill="none" stroke="#414141" stroke-width="5" stroke-linejoin="round" transform="matrix(1.70226 0.0261988 -0.0277736 1.60574 482.172 283.869)" d="M-11.3238 -80.2543C25.8014 -80.2543 54.9476 -94.6926 58.9092 -40.8672C62.8708 12.9582 37.0524 74.7499 0.0572995 75.3534C-14.1177 75.5847 -17.7665 75.6442 -48.2096 76.1409C-78.6526 76.6376 -84.25 60.12 -84.25 1.90735e-06C-86.6294 -86.0849 -88.6034 -78.4854 -12.7475 -80.2208"></path>
  <path fill="#796D99" transform="matrix(1.58884 0 0 1.70248 403.62 362.548)" d="M-0.651836 -14.3137C17.5575 -15.0287 30.6797 -11.3682 32.8142 35.9788C34.2792 54.8144 37.6484 67.6363 22.4861 74.8474C7.04288 75.8257 -3.62542 76.4511 -18.4642 76.6931C-33.5839 70.7021 -29.7695 54.0433 -30.3809 37.5562C-33.0902 -8.86441 -18.8612 -13.5988 -0.651836 -14.3137Z"></path>
  <path fill="none" stroke="#414141" stroke-width="5" stroke-linejoin="round" transform="matrix(1.44842 1.48659e-24 -1.35259e-24 1.31786 428.922 138.15)" d="M3.8147e-06 -40C20.9426 -40 35.0096 -26.8589 47.8597 -2.20018C49.1253 -3.81499 50.3123 -3.57653 51.1974 -3.11682C52.0824 -2.65711 52.5509 -1.60562 52.2206 -0.665342C53.8524 0.0631991 55.2854 1.47333 55.8775 2.67698C56.9197 4.79566 57.6743 10.5072 53.7931 11.8212C58.5977 31.9882 20.3683 22.0914 -9.48146e-06 22.0914C-20.2357 22.0914 -45.0732 28.3281 -41.8836 12.9784C-44.6787 11.8212 -48.2008 8.95144 -46.5316 4.29175C-45.7036 1.98006 -43.8185 0.567089 -42.3936 0.566997C-41.0392 0.56691 -42.9934 -2.2 -40.2188 -3.81491C-39.0195 -4.51291 -37.7273 -4.43211 -36.6067 -4.12355C-28.014 -23.7311 -20.4124 -40 3.8147e-06 -40Z"></path>
  <path fill="#796D99" transform="matrix(1.70226 0.0261988 -0.0277736 1.60574 482.172 283.869)" d="M-11.3238 -80.2543C25.8014 -80.2543 54.9476 -94.6926 58.9092 -40.8672C62.8708 12.9582 37.0524 74.7499 0.0572995 75.3534C-14.1177 75.5847 -17.7665 75.6442 -48.2096 76.1409C-78.6526 76.6376 -84.25 60.12 -84.25 1.90735e-06C-86.6442 -86.62 -88.6279 -78.3873 -11.3238 -80.2543Z"></path>
  <clipPath id="cl_e0">
    <path d="M465.125 154.705C528.322 155.677 578.337 133.257 583.586 219.79C588.834 306.323 543.169 404.868 480.177 404.868C456.041 404.868 449.828 404.868 397.992 404.868C346.157 404.868 337.087 378.198 338.757 281.661C337.087 142.51 333.482 155.677 465.125 154.705Z"></path>
  </clipPath>
  <g clip-path="url(#cl_e0)">
    <path fill="#877BA8" transform="matrix(1.70248 0 0 1.70248 517.286 266.919)" d="M-0.158653 -48.2656C25.513 -48.2656 46.324 -26.6563 46.324 4.76837e-07C46.324 26.6563 25.513 48.2656 -0.158653 48.2656C-25.8303 48.2656 -46.6413 26.6563 -46.6413 4.76837e-07C-46.6413 -26.6563 -25.8303 -48.2656 -0.158653 -48.2656Z"></path>
  </g>
  <path fill="none" stroke="#414141" stroke-width="2" stroke-linejoin="round" transform="matrix(3.67759 -0.721864 0.653943 3.33157 435.353 64.1411)" d="M-4.34758 -5.25471C-4.34758 -11.5047 3.66088 -11.5047 3.66088 -5.25472C3.66088 0.995283 3.66088 12.5 3.66088 12.5L-4.57314 12.5C-4.57314 12.5 -4.34758 0.995284 -4.34758 -5.25471Z"></path>
  <path fill="none" stroke="#414141" stroke-width="2" stroke-linejoin="round" transform="matrix(3.33157 -0.653943 0.653943 3.33157 402.998 69.2607)" d="M-5.1645 -6.50117C-5.16451 -12.7512 6 -12.7512 6 -6.50117C6 -0.251166 6 12.5 6 12.5L-6 12.5C-6 12.5 -5.1645 -0.251167 -5.1645 -6.50117Z"></path>
  <path fill="#716495" transform="matrix(3.67759 -0.721864 0.653943 3.33157 435.353 64.1411)" d="M-4.34758 -5.25471C-4.34758 -11.5047 3.66088 -11.5047 3.66088 -5.25472C3.66088 0.995283 3.66088 12.5 3.66088 12.5L-4.57314 12.5C-4.57314 12.5 -4.34758 0.995284 -4.34758 -5.25471Z"></path>
  <path fill="none" stroke="#505050" stroke-width="0.5" stroke-linecap="round" stroke-linejoin="round" transform="matrix(3.67759 -0.721864 0.653943 3.33157 430.819 45.6676)" d="M7.30771e-07 1.51651L1.59903e-08 10.5382"></path>
  <path fill="#796D99" transform="matrix(3.33157 -0.653943 0.653943 3.33157 402.998 69.2607)" d="M-5.1645 -6.50117C-5.16451 -12.7512 6 -12.7512 6 -6.50117C6 -0.25117 6 12.5 6 12.5L-6 12.5C-6 12.5 -5.1645 -0.251171 -5.1645 -6.50117Z"></path>
  <path fill="none" stroke="#505050" stroke-width="0.5" stroke-linecap="round" stroke-linejoin="round" transform="matrix(3.33157 -0.653943 0.653943 3.33157 403.201 50.3267)" d="M-1.88881e-06 2.6499e-08L1.92589e-06 10.5382"></path>
  <path fill="#796D99" transform="matrix(1.44842 0 0 1.31786 428.922 138.15)" d="M3.8147e-06 -40C20.9426 -40 35.0096 -26.8589 47.8597 -2.20018C49.1253 -3.81499 50.3123 -3.57653 51.1974 -3.11682C52.0824 -2.65711 52.5509 -1.60562 52.2206 -0.665342C53.8524 0.0631991 55.2854 1.47333 55.8775 2.67698C56.9197 4.79566 57.6743 10.5072 53.7931 11.8212C58.5977 31.9882 20.3683 22.0914 -9.48146e-06 22.0914C-20.2357 22.0914 -45.0732 28.3281 -41.8836 12.9784C-44.6787 11.8212 -48.2008 8.95144 -46.5316 4.29175C-45.7036 1.98006 -43.8185 0.567089 -42.3936 0.566997C-41.0392 0.56691 -42.9934 -2.2 -40.2188 -3.81491C-39.0195 -4.51291 -37.7273 -4.43211 -36.6067 -4.12355C-28.014 -23.7311 -20.4124 -40 3.8147e-06 -40Z"></path>
  <clipPath id="cl_e1">
    <path d="M428.922 85.4358C459.255 85.4358 479.63 102.754 498.242 135.251C500.076 133.122 501.795 133.437 503.077 134.043C504.359 134.648 505.037 136.034 504.559 137.273C506.922 138.233 508.998 140.092 509.856 141.678C511.365 144.47 512.458 151.997 506.836 153.729C513.796 180.306 458.423 167.263 428.921 167.263C399.612 167.263 363.637 175.482 368.256 155.254C364.208 153.729 359.107 149.947 361.524 143.806C362.724 140.76 365.454 138.897 367.518 138.897C369.48 138.897 366.649 135.251 370.668 133.123C372.405 132.203 374.276 132.309 375.9 132.716C388.345 106.876 399.356 85.4358 428.922 85.4358Z"></path>
  </clipPath>
  <g clip-path="url(#cl_e1)">
    <path fill="#9286B4" transform="matrix(1.70248 0 0.00718207 1.70248 409.817 123.828)" d="M-2.67755e-09 -5.5C3.86599 -5.5 7 -2.92564 7 0.25C7 3.42564 3.86599 6 2.67755e-09 6C-3.86599 6 -7 3.42564 -7 0.25C-7 -2.92564 -3.86599 -5.5 -2.67755e-09 -5.5Z"></path>
    <path fill="#9286B4" transform="matrix(1.7367 0 0.00718207 1.70248 459.519 116.123)" d="M2.44472e-09 -5C2.76142 -5 5 -2.6495 5 0.25C5 3.1495 2.76142 5.5 -2.44472e-09 5.5C-2.76142 5.5 -5 3.1495 -5 0.25C-5 -2.6495 -2.76142 -5 2.44472e-09 -5Z"></path>
    <path fill="none" stroke="#4E4D4D" stroke-width="1" stroke-linecap="round" stroke-linejoin="round" transform="matrix(2.182 -0.353477 0.259285 1.60056 438.93 109.79)" d="M4.88246e-07 -4.14104e-07L2.92891 -0.714567"></path>
    <path fill="none" stroke="#4E4D4D" stroke-width="1" stroke-linecap="round" stroke-linejoin="round" transform="matrix(2.182 -0.353477 0.259285 1.60056 418.358 109.005)" d="M0 -1.48459e-07L4.25731 1.79213"></path>
    <path fill="#4E4D4D" transform="matrix(2.33716 -0.378612 0.383771 2.36901 431.396 111.947)" d="M-4.99596e-07 -7.84488e-06L1.9614 0.35273L0.915089 1.42245L-4.99596e-07 -7.84488e-06Z"></path>
    <path fill="none" stroke="#4E4D4D" stroke-width="0.5" stroke-linecap="round" stroke-linejoin="round" transform="matrix(1.83262 -0.296878 0.300923 1.85759 434.289 115.291)" d="M-3.70687e-06 -0.711232L-7.52156e-06 1.11019"></path>
    <path fill="#645882" transform="matrix(1.64843 0.417573 -0.40107 1.65095 428.414 104.507)" d="M5.74338e-08 -1.92716C1.62851 -1.92716 2.94867 -1.06434 2.94867 4.39386e-08C2.94867 1.06434 1.62851 1.92716 -5.74338e-08 1.92716C-1.62851 1.92716 -2.94867 1.06434 -2.94867 -4.39386e-08C-2.94867 -1.06434 -1.62851 -1.92716 5.74338e-08 -1.92716Z"></path>
    <path fill="#645882" transform="matrix(1.61937 0.410211 -0.390122 1.60588 439 103.68)" d="M-3.843e-06 -1.89919C0.889985 -1.89919 1.61146 -1.04889 1.61146 -2.40127e-08C1.61146 1.04889 0.889985 1.89919 -3.7864e-06 1.89919C-0.889993 1.89919 -1.61147 1.04889 -1.61147 2.40127e-08C-1.61147 -1.04889 -0.889993 -1.89919 -3.843e-06 -1.89919Z"></path>
  </g>
  <path fill="none" stroke="#010101" stroke-width="6" stroke-linejoin="round" transform="matrix(1.70248 0 0 1.70248 383.401 267.34)" d="M-9.05615 30.1265C-47.0109 18.3983 -28.2637 -42.2712 9.69109 -30.543C25.8566 -25.5478 52.1643 -19.1377 69.096 -14.5792C75.045 -12.9775 83.7592 -1.81848 77.9786 20.6928C72.198 43.2042 59.4401 48.5823 54.8032 47.3339C37.7722 42.7487 2.87364 33.8129 -9.05615 30.1265Z"></path>
  <path fill="none" stroke="#010101" stroke-width="6" stroke-linecap="round" stroke-linejoin="bevel" transform="matrix(1.70248 0 0 1.58041 383.401 181.982)" d="M32 38.3726C32 46.2536 32 53.0353 32 56.5422C32 99.4987 -31.5 99.4565 -31.5 56.5C-31.5 45.7166 -31.5 25.8944 -31.5 13.4087C-31.5 0.923031 -25.2386 -16.9124 -9.15882 -16.9124C-7.3852 -16.9124 -5.76111 -16.9124 -4.26565 -16.9124"></path>
  <path fill="#796D99" transform="matrix(1.70248 0 0 1.58041 383.401 181.982)" d="M-31.5 13.4087C-31.5 0.923031 -25.2386 -16.9124 -9.15882 -16.9124C6.92098 -16.9124 10.7109 -16.9124 17.7751 -16.9124C24.8394 -16.9124 32 -12.9094 32 2.79267C32 18.4947 32 47.7681 32 56.5422C32 94.3272 -31.5 94.285 -31.5 56.5C-31.5 45.7166 -31.5 25.8944 -31.5 13.4087Z"></path>
  <path fill="none" stroke="#414141" stroke-width="4" stroke-linejoin="round" transform="matrix(1.70248 0 0 1.70248 555.451 174.984)" d="M-11.7479 -12.9046C-11.318 -13.5165 -10.7601 -14.1187 -10.0572 -14.7065C-5.47351 -18.5399 3.93804 -16.1165 4.43081 -14.7065C7.46664 -16.1165 10.8961 -16.6614 15.0174 -13.9738C19.1387 -11.2862 16.2386 -4.86794 16.6118 -4.55445C16.985 -4.24095 25.2116 0.494539 17.5976 8.33765C16.6439 8.92035 15.7365 9.39702 14.8735 9.77867"></path>
  <path fill="#9286B4" transform="matrix(1.70248 0 0 1.70248 555.451 174.984)" d="M-0.116455 -3.8147e-06C-2.60165 -0.663944 -7.05858 1.11792 -10.0572 -2.65577C-13.0559 -6.42945 -14.641 -10.8732 -10.0572 -14.7065C-5.47351 -18.5399 3.93804 -16.1165 4.43081 -14.7065C7.46664 -16.1165 10.8961 -16.6614 15.0174 -13.9738C19.1387 -11.2862 16.2386 -4.86794 16.6118 -4.55445C16.985 -4.24095 25.2116 0.494539 17.5976 8.33765C2.9012 17.3171 -0.809986 1.11792 -0.116455 -3.8147e-06Z"></path>
  <path fill="#796D99" transform="matrix(1.70248 0 0 1.70248 383.401 267.34)" d="M-9.05615 30.1265C-48.5873 17.9112 -29.8401 -42.7584 9.69109 -30.543C25.8566 -25.5478 52.1643 -19.1377 69.096 -14.5792C75.045 -12.9775 83.7592 -1.81848 77.9786 20.6928C72.198 43.2042 59.4401 48.5823 54.8032 47.3339C37.7722 42.7487 2.87364 33.8129 -9.05615 30.1265Z"></path>
  <path fill="#312F2F" transform="matrix(0.489557 0.131803 -0.157157 0.583728 326.268 290.348)" d="M-2.86102e-06 -128C70.6925 -128 128 -70.6925 128 -3.8147e-06C128 70.6925 70.6925 128 4.76837e-06 128C-70.6925 128 -128 70.6925 -128 -3.8147e-06C-128 -70.6925 -70.6925 -128 -2.86102e-06 -128Z"></path>
  <path fill="none" stroke="#010101" stroke-width="7" stroke-miterlimit="4" transform="matrix(1.00146 0 0 1.00146 343 256)" d="M14.4534 -37.3289C49.0109 -28.025 68.0322 12.9206 56.9386 54.1256C45.845 95.3306 8.83743 121.192 -25.7201 111.888C-60.2776 102.584 -79.2988 61.6383 -68.2052 20.4332C-57.1116 -20.7718 -20.1041 -46.6328 14.4534 -37.3289Z"></path>
  <path fill="none" stroke="#010101" stroke-width="7" stroke-linejoin="round" transform="matrix(1.00146 0 0 1.00146 343 256)" d="M14.4534 -37.3289C14.4534 -37.3289 5.59299 -39.7144 3.80634 -40.1954C-24.4281 -46.982 -64.2583 -38.3431 -79.2799 17.4516C-94.3015 73.2463 -58.3042 103.115 -36.7947 108.906C-35.0081 109.387 -25.7201 111.888 -25.7201 111.888C-26.2114 111.755 -26.7329 111.593 -27.2816 111.401"></path>
  <path fill="#8D5A3E" transform="matrix(0.489557 0.131803 -0.157157 0.583728 337.358 293.334)" d="M-3.8147e-06 -128C70.6925 -128 128 -70.6925 128 3.8147e-06C128 70.6925 70.6925 128 3.8147e-06 128C-70.6925 128 -128 70.6925 -128 3.8147e-06C-128 -70.6925 -70.6925 -128 -3.8147e-06 -128Z"></path>
  <path fill="#4B2713" transform="matrix(0.489557 0.131803 -0.157157 0.583728 340.698 293.607)" d="M0.249998 -87.5C51.4744 -87.5 93 -48.4369 93 -0.250004C93 47.9369 51.4744 87 0.250004 87C-50.9744 87 -92.5 47.9369 -92.5 -0.250004C-92.5 -48.4369 -50.9744 -87.5 0.249998 -87.5Z"></path>
  <path fill="#693920" transform="matrix(0.489557 0.131803 -0.157157 0.583728 337.358 293.334)" d="M-2.563e-06 -86C47.4965 -86 86 -47.4965 86 3.8147e-06C86 47.4965 47.4965 86 2.563e-06 86C-47.4965 86 -86 47.4965 -86 3.8147e-06C-86 -47.4965 -47.4965 -86 -2.563e-06 -86Z"></path>
  <path fill="#1F0D04" transform="matrix(1.18526 0.820019 -0.812566 1.45773 322.104 297.019)" d="M2.38419e-07 -6.1709C3.40809 -6.1709 6.1709 -3.40809 6.1709 0C6.1709 3.40809 3.40809 6.1709 2.38419e-07 6.1709C-3.40809 6.1709 -6.1709 3.40809 -6.1709 0C-6.1709 -3.40809 -3.40809 -6.1709 2.38419e-07 -6.1709Z"></path>
  <clipPath id="cl_e9">
    <path d="M327.118 288.024C331.158 290.818 332.187 297.111 329.418 302.079C326.649 307.047 321.129 308.809 317.09 306.015C313.05 303.22 312.02 296.927 314.79 291.959C317.559 286.991 323.079 285.229 327.118 288.024Z"></path>
  </clipPath>
  <g clip-path="url(#cl_e9)">
    <path fill="#2F1507" transform="matrix(1.18526 0.820019 -0.812566 1.45773 319.454 298.452)" d="M-3.27826e-07 -6.1709C3.40809 -6.1709 6.1709 -3.40809 6.1709 1.90735e-06C6.1709 3.4081 3.40809 6.1709 -3.27826e-07 6.1709C-3.40809 6.1709 -6.1709 3.4081 -6.1709 1.90735e-06C-6.1709 -3.40809 -3.40809 -6.1709 -3.27826e-07 -6.1709Z"></path>
  </g>
  <path fill="#1F0D04" transform="matrix(1.18526 0.820019 -0.812566 1.45773 334.102 275.494)" d="M2.38419e-07 -6.1709C3.40809 -6.1709 6.1709 -3.40809 6.1709 0C6.1709 3.40809 3.40809 6.1709 2.38419e-07 6.1709C-3.40809 6.1709 -6.1709 3.40809 -6.1709 0C-6.1709 -3.40809 -3.40809 -6.1709 2.38419e-07 -6.1709Z"></path>
  <clipPath id="cl_ea">
    <path d="M339.117 266.498C343.156 269.293 344.186 275.586 341.417 280.554C338.647 285.522 333.128 287.284 329.088 284.489C325.049 281.694 324.019 275.401 326.788 270.433C329.558 265.465 335.077 263.703 339.117 266.498Z"></path>
  </clipPath>
  <g clip-path="url(#cl_ea)">
    <path fill="#2F1507" transform="matrix(1.18526 0.820019 -0.812566 1.45773 330.83 278.044)" d="M-1.63913e-07 -6.1709C3.40809 -6.1709 6.1709 -3.40809 6.1709 -9.53674e-07C6.1709 3.40809 3.40809 6.1709 -1.63913e-07 6.1709C-3.40809 6.1709 -6.1709 3.40809 -6.1709 -9.53674e-07C-6.1709 -3.40809 -3.40809 -6.1709 -1.63913e-07 -6.1709Z"></path>
  </g>
  <path fill="#1F0D04" transform="matrix(1.18526 0.820019 -0.812566 1.45773 340.767 309.931)" d="M-1.90735e-06 -6.1709C3.40809 -6.1709 6.1709 -3.40809 6.1709 0C6.1709 3.40809 3.40809 6.1709 -1.90735e-06 6.1709C-3.40809 6.1709 -6.1709 3.40809 -6.1709 0C-6.1709 -3.40809 -3.40809 -6.1709 -1.90735e-06 -6.1709Z"></path>
  <clipPath id="cl_eb">
    <path d="M345.782 300.936C349.821 303.731 350.851 310.024 348.082 314.992C345.312 319.96 339.793 321.722 335.753 318.927C331.714 316.132 330.684 309.839 333.453 304.871C336.223 299.903 341.742 298.141 345.782 300.936Z"></path>
  </clipPath>
  <g clip-path="url(#cl_eb)">
    <path fill="#2F1507" transform="matrix(1.18526 0.820019 -0.812566 1.45773 338.825 310.843)" d="M0 -6.1709C3.40809 -6.1709 6.1709 -3.4081 6.1709 -1.90735e-06C6.1709 3.40809 3.40809 6.1709 0 6.1709C-3.40809 6.1709 -6.1709 3.40809 -6.1709 -1.90735e-06C-6.1709 -3.4081 -3.40809 -6.1709 0 -6.1709Z"></path>
  </g>
  <path fill="#1F0D04" transform="matrix(1.18526 0.820019 -0.812566 1.45773 352.766 288.406)" d="M-1.90735e-06 -6.1709C3.40809 -6.1709 6.1709 -3.40809 6.1709 0C6.1709 3.40809 3.40809 6.1709 -1.90735e-06 6.1709C-3.40809 6.1709 -6.1709 3.40809 -6.1709 0C-6.1709 -3.40809 -3.40809 -6.1709 -1.90735e-06 -6.1709Z"></path>
  <clipPath id="cl_ec">
    <path d="M357.78 279.411C361.82 282.205 362.849 288.498 360.08 293.466C357.311 298.434 351.791 300.196 347.752 297.402C343.712 294.607 342.683 288.314 345.452 283.346C348.221 278.378 353.741 276.616 357.78 279.411Z"></path>
  </clipPath>
  <g clip-path="url(#cl_ec)">
    <path fill="#2F1507" transform="matrix(1.18526 0.820019 -0.812565 1.45773 349.016 289.615)" d="M1.83907e-07 -6.1709C3.40809 -6.1709 6.1709 -3.40809 6.1709 -7.69767e-07C6.1709 3.40809 3.40809 6.1709 -1.83907e-07 6.1709C-3.40809 6.1709 -6.1709 3.40809 -6.1709 -1.13758e-06C-6.1709 -3.40809 -3.40809 -6.1709 1.83907e-07 -6.1709Z"></path>
  </g>
  <path fill="none" stroke="#E3CEC2" stroke-width="4" stroke-linecap="round" stroke-linejoin="round" transform="matrix(1.18526 0.820019 -0.812566 1.45773 333.328 274.497)" d="M2.42519 2.41434L15.2044 14.4568"></path>
  <path fill="none" stroke="#C8AD9D" stroke-width="4" stroke-linecap="round" stroke-linejoin="round" transform="matrix(1.18526 0.820019 -0.812566 1.45773 333.328 274.497)" d="M3.28776 13.1788L15.6779 1.98902"></path>
  <path fill="#4B2713" transform="matrix(0.583728 0.157157 -0.157157 0.583728 357.475 218.617)" d="M-1.90735e-06 -1.52588e-05C-1.90735e-06 -1.52588e-05 -15.2012 -1.52588e-05 -18.2664 -1.52588e-05C-66.3551 1.30367 -126.35 32.2772 -126.35 128C-126.35 223.723 -55.9022 256 -19 256C-15.9348 256 0 256 0 256C-25.5439 256 -107.35 223.723 -107.35 128C-107.35 32.2772 -25.5439 -1.52588e-05 -1.90735e-06 -1.52588e-05Z"></path>
</svg>