<?xml version="1.0" encoding="utf-8"?>
<svg xmlns="http://www.w3.org/2000/svg" xmlns:xlink="http://www.w3.org/1999/xlink" width="686" height="512">
  <path fill="none" stroke="#2B2B2B" stroke-width="6" stroke-linejoin="round" transform="matrix(1.70248 0 0 1.44029 564.865 179.773)" d="M-12.9438 -16.9737C-9.28958 -16.9737 -6.63601 -16.9737 -3.21418 -16.9737C3.85005 -16.9737 11.0107 -12.9707 11.0107 2.73135C11.0107 18.4334 11.0107 47.7067 11.0107 56.4808C11.0107 99.4374 -52.4893 99.3952 -52.4893 56.4387C-52.4893 45.6553 -52.4893 25.833 -52.4893 13.3474C-52.4893 0.861706 -46.228 -16.9737 -30.1481 -16.9737C-28.9444 -16.9737 -27.8096 -16.9737 -26.7371 -16.9737"></path>
  <path fill="none" stroke="#2B2B2B" stroke-width="6" stroke-linejoin="round" transform="matrix(1.70248 0 0 1.55154 564.865 257.563)" d="M-52.4735 0.823302C-53.6038 -41.7842 9.87389 -43.4682 11.0042 -0.860645C11.4529 16.0531 12.2014 44.2684 12.6664 61.7969C12.8298 67.9556 4.62289 79.4928 -18.6018 80.3795C-41.8266 81.2662 -50.6231 70.5747 -50.7505 65.7743C-51.2182 48.1431 -52.1424 13.3053 -52.4735 0.823302Z"></path>
  <path fill="#6B5D90" transform="matrix(1.70248 0 0 1.44029 564.865 179.773)" d="M-52.4893 13.3474C-52.4893 0.861706 -46.228 -16.9737 -30.1481 -16.9737C-14.0683 -16.9737 -10.2784 -16.9737 -3.21418 -16.9737C3.85005 -16.9737 11.0107 -12.9707 11.0107 2.73135C11.0107 18.4334 11.0107 47.7067 11.0107 56.4809C11.0107 99.4374 -52.4893 99.3952 -52.4893 56.4387C-52.4893 45.6553 -52.4893 25.833 -52.4893 13.3474Z"></path>
  <path fill="#6B5D90" transform="matrix(1.70248 0 0 1.55154 564.865 257.563)" d="M-52.4735 0.823301C-53.6038 -41.7842 9.87389 -43.4682 11.0042 -0.860646C11.4529 16.0531 12.2014 44.2684 12.6664 61.7969C12.8298 67.9556 4.62289 79.4928 -18.6018 80.3795C-41.8266 81.2662 -50.6231 70.5747 -50.7505 65.7743C-51.2182 48.1431 -52.1424 13.3053 -52.4735 0.823301Z"></path>
  <path fill="none" stroke="#2B2B2B" stroke-width="5" stroke-linejoin="round" transform="matrix(1.58884 0 0 1.70248 480.166 356.274)" d="M2.96751 -15.6825C21.1915 -15.4678 34.0798 -11.1436 33.4386 36.2415C33.6873 50.3467 37.6528 65.5481 22.5431 74.3249C10.9766 74.0988 -1.95658 74.7554 -18.4165 74.3002C-29.1387 65.3488 -29.4279 51.4132 -29.7542 34.5938C-29.7414 -11.8957 -15.2564 -15.8973 2.96751 -15.6825Z"></path>
  <path fill="#62538C" transform="matrix(1.58884 0 0 1.70248 480.166 356.274)" d="M2.96751 -15.6825C21.1915 -15.4678 34.0798 -11.1436 33.4386 36.2415C33.6873 50.3467 37.6528 65.5481 22.5431 74.3249C10.9766 74.0988 -1.95658 74.7554 -18.4165 74.3002C-29.1387 65.3488 -29.4279 51.4132 -29.7542 34.5938C-29.7414 -11.8957 -15.2564 -15.8973 2.96751 -15.6825Z"></path>
  <path fill="none" stroke="#2B2B2B" stroke-width="5" stroke-linejoin="round" transform="matrix(1.58884 0 0 1.70248 406.513 362.548)" d="M-0.284359 -14.3339C17.938 -14.6457 30.9635 -10.6958 31.8943 36.6851C32.8803 55.5478 35.9228 68.4406 20.5815 75.3142C5.11779 75.9504 -5.56337 76.3396 -20.4041 76.2531C-35.3673 69.9292 -31.1306 53.3595 -31.323 36.8635C-32.852 -9.60398 -18.5067 -14.0221 -0.284359 -14.3339Z"></path>
  <path fill="none" stroke="#2B2B2B" stroke-width="5" stroke-linejoin="round" transform="matrix(1.70226 0.0261988 -0.0277736 1.60574 485.066 283.869)" d="M-11.3238 -80.2543C25.8014 -80.2543 54.9476 -94.6926 58.9092 -40.8672C62.8708 12.9582 37.0524 74.7499 0.0572919 75.3534C-14.1177 75.5847 -17.7665 75.6442 -48.2096 76.1409C-78.6526 76.6376 -84.25 60.12 -84.25 0C-86.6294 -86.0849 -88.6034 -78.4854 -12.7475 -80.2208"></path>
  <path fill="#6B5D90" transform="matrix(1.58884 0 0 1.70248 406.513 362.548)" d="M-0.284359 -14.3339C17.938 -14.6457 30.9635 -10.6958 31.8943 36.6851C32.8803 55.5478 35.9228 68.4406 20.5815 75.3142C5.11779 75.9504 -5.56337 76.3396 -20.4041 76.2531C-35.3673 69.9292 -31.1306 53.3595 -31.323 36.8635C-32.852 -9.60398 -18.5067 -14.0221 -0.284359 -14.3339Z"></path>
  <path fill="none" stroke="#2B2B2B" stroke-width="5" stroke-linejoin="round" transform="matrix(1.44842 1.48659e-24 -1.35259e-24 1.31786 439.95 138.15)" d="M0 -40C20.9426 -40 35.0096 -26.8589 47.8597 -2.20018C49.1253 -3.81499 50.3123 -3.57653 51.1974 -3.11682C52.0824 -2.65711 52.5509 -1.60562 52.2206 -0.665342C53.8523 0.0631991 55.2854 1.47333 55.8775 2.67698C56.9197 4.79566 57.6743 10.5072 53.7931 11.8212C58.5977 31.9882 20.3682 22.0914 -1.32962e-05 22.0914C-20.2357 22.0914 -45.0732 28.3281 -41.8836 12.9784C-44.6787 11.8212 -48.2008 8.95144 -46.5316 4.29175C-45.7036 1.98006 -43.8185 0.567089 -42.3936 0.566997C-41.0392 0.56691 -42.9934 -2.2 -40.2188 -3.81491C-39.0195 -4.51291 -37.7273 -4.43211 -36.6068 -4.12355C-28.0141 -23.7311 -20.4124 -40 0 -40Z"></path>
  <path fill="#6B5D90" transform="matrix(1.70226 0.0261988 -0.0277736 1.60574 485.066 283.869)" d="M-11.3238 -80.2543C25.8014 -80.2543 54.9476 -94.6926 58.9092 -40.8672C62.8708 12.9582 37.0524 74.7499 0.0572919 75.3534C-14.1177 75.5847 -17.7665 75.6442 -48.2096 76.1409C-78.6526 76.6376 -84.25 60.12 -84.25 0C-86.6442 -86.62 -88.6279 -78.3873 -11.3238 -80.2543Z"></path>
  <clipPath id="cl_1d">
    <path d="M468.018 154.705C531.215 155.677 581.23 133.257 586.479 219.79C591.728 306.323 546.062 404.868 483.07 404.868C458.934 404.868 452.721 404.868 400.886 404.868C349.05 404.868 339.981 378.198 341.651 281.661C339.981 142.51 336.375 155.677 468.018 154.705Z"></path>
  </clipPath>
  <g clip-path="url(#cl_1d)">
    <path fill="#7C6EA1" transform="matrix(1.70248 0 0 1.70248 520.18 266.919)" d="M-0.158638 -48.2656C25.513 -48.2656 46.324 -26.6563 46.324 4.76837e-07C46.324 26.6563 25.513 48.2656 -0.158638 48.2656C-25.8303 48.2656 -46.6413 26.6563 -46.6413 4.76837e-07C-46.6413 -26.6563 -25.8303 -48.2656 -0.158638 -48.2656Z"></path>
  </g>
  <path fill="none" stroke="#2B2B2B" stroke-width="2" stroke-linejoin="round" transform="matrix(3.67759 -0.721864 0.653943 3.33157 446.381 64.1411)" d="M-4.34758 -5.25471C-4.34758 -11.5047 3.66088 -11.5047 3.66088 -5.25472C3.66088 0.995283 3.66088 12.5 3.66088 12.5L-4.57314 12.5C-4.57314 12.5 -4.34758 0.995284 -4.34758 -5.25471Z"></path>
  <path fill="none" stroke="#2B2B2B" stroke-width="2" stroke-linejoin="round" transform="matrix(3.33157 -0.653943 0.653943 3.33157 414.026 69.2607)" d="M-5.1645 -6.50117C-5.16451 -12.7512 6 -12.7512 6 -6.50117C6 -0.25117 6 12.5 6 12.5L-6 12.5C-6 12.5 -5.1645 -0.251171 -5.1645 -6.50117Z"></path>
  <path fill="#62538C" transform="matrix(3.67759 -0.721864 0.653943 3.33157 446.381 64.1411)" d="M-4.34758 -5.25471C-4.34758 -11.5047 3.66088 -11.5047 3.66088 -5.25472C3.66088 0.995283 3.66088 12.5 3.66088 12.5L-4.57314 12.5C-4.57314 12.5 -4.34758 0.995284 -4.34758 -5.25471Z"></path>
  <path fill="none" stroke="#3D3D3D" stroke-width="0.5" stroke-linecap="round" stroke-linejoin="round" transform="matrix(3.67759 -0.721864 0.653943 3.33157 441.847 45.6676)" d="M4.54547e-06 1.51652L3.83069e-06 10.5382"></path>
  <path fill="#6B5D90" transform="matrix(3.33157 -0.653943 0.653943 3.33157 414.026 69.2607)" d="M-5.1645 -6.50117C-5.16451 -12.7512 6 -12.7512 6 -6.50117C6 -0.25117 6 12.5 6 12.5L-6 12.5C-6 12.5 -5.1645 -0.251171 -5.1645 -6.50117Z"></path>
  <path fill="none" stroke="#3D3D3D" stroke-width="0.5" stroke-linecap="round" stroke-linejoin="round" transform="matrix(3.33157 -0.653943 0.653943 3.33157 414.229 50.3267)" d="M1.85391e-08 3.8412e-06L3.83324e-06 10.5382"></path>
  <path fill="#6B5D90" transform="matrix(1.44842 0 0 1.31786 439.95 138.15)" d="M0 -40C20.9426 -40 35.0096 -26.8589 47.8597 -2.20018C49.1253 -3.81499 50.3123 -3.57653 51.1974 -3.11682C52.0824 -2.65711 52.5509 -1.60562 52.2206 -0.665342C53.8523 0.0631991 55.2854 1.47333 55.8775 2.67698C56.9197 4.79566 57.6743 10.5072 53.7931 11.8212C58.5977 31.9882 20.3682 22.0914 -1.32962e-05 22.0914C-20.2357 22.0914 -45.0732 28.3281 -41.8836 12.9784C-44.6787 11.8212 -48.2008 8.95144 -46.5316 4.29175C-45.7036 1.98006 -43.8185 0.567089 -42.3936 0.566997C-41.0392 0.56691 -42.9934 -2.2 -40.2188 -3.81491C-39.0195 -4.51291 -37.7273 -4.43211 -36.6068 -4.12355C-28.0141 -23.7311 -20.4124 -40 0 -40Z"></path>
  <clipPath id="cl_1e">
    <path d="M439.95 85.4358C470.284 85.4358 490.658 102.754 509.271 135.251C511.104 133.122 512.823 133.437 514.105 134.043C515.387 134.648 516.065 136.034 515.587 137.273C517.951 138.233 520.026 140.092 520.884 141.678C522.393 144.47 523.486 151.997 517.865 153.729C524.824 180.306 469.452 167.263 439.95 167.263C410.64 167.263 374.665 175.482 379.285 155.254C375.236 153.729 370.135 149.947 372.552 143.806C373.752 140.76 376.482 138.897 378.546 138.897C380.508 138.897 377.677 135.251 381.696 133.123C383.433 132.203 385.305 132.309 386.928 132.716C399.374 106.876 410.384 85.4358 439.95 85.4358Z"></path>
  </clipPath>
  <g clip-path="url(#cl_1e)">
    <path fill="#887AAF" transform="matrix(1.70248 0 0.00718207 1.70248 436.861 123.828)" d="M-2.67755e-09 -5.5C3.86599 -5.5 7 -2.92564 7 0.25C7 3.42564 3.86599 6 2.67755e-09 6C-3.86599 6 -7 3.42564 -7 0.25C-7 -2.92564 -3.86599 -5.5 -2.67755e-09 -5.5Z"></path>
    <path fill="#887AAF" transform="matrix(1.7367 0 0.00718207 1.70248 486.562 116.123)" d="M-7.62695e-06 -5C2.76142 -5 4.99999 -2.6495 4.99999 0.25C4.99999 3.1495 2.76142 5.5 -7.63184e-06 5.5C-2.76143 5.5 -5.00001 3.1495 -5.00001 0.25C-5.00001 -2.6495 -2.76143 -5 -7.62695e-06 -5Z"></path>
    <path fill="none" stroke="#3A3939" stroke-width="1" stroke-linecap="round" stroke-linejoin="round" transform="matrix(2.182 -0.353477 0.259285 1.60056 465.973 109.79)" d="M8.11764e-06 7.21529e-06L2.92892 -0.71456"></path>
    <path fill="none" stroke="#3A3939" stroke-width="1" stroke-linecap="round" stroke-linejoin="round" transform="matrix(2.182 -0.353477 0.259285 1.60056 445.401 109.005)" d="M0 -1.48459e-07L4.25731 1.79213"></path>
    <path fill="#3A3939" transform="matrix(2.33716 -0.378612 0.383771 2.36901 458.439 111.947)" d="M-4.99596e-07 -4.03018e-06L1.9614 0.352734L0.915089 1.42246L-4.99596e-07 -4.03018e-06Z"></path>
    <path fill="none" stroke="#3A3939" stroke-width="0.5" stroke-linecap="round" stroke-linejoin="round" transform="matrix(1.83262 -0.296878 0.300923 1.85759 461.333 115.291)" d="M7.73722e-06 -0.711224L3.92253e-06 1.1102"></path>
    <path fill="#534676" transform="matrix(1.64843 0.417573 -0.40107 1.65095 455.457 104.507)" d="M3.87213e-06 -1.92716C1.62851 -1.92716 2.94867 -1.06434 2.94867 4.39386e-08C2.94867 1.06434 1.62851 1.92716 3.75726e-06 1.92716C-1.6285 1.92716 -2.94867 1.06434 -2.94867 -4.39386e-08C-2.94867 -1.06434 -1.6285 -1.92716 3.87213e-06 -1.92716Z"></path>
    <path fill="#534676" transform="matrix(1.61937 0.410211 -0.390122 1.60588 466.044 103.68)" d="M-3.843e-06 -1.89919C0.889985 -1.89919 1.61146 -1.04889 1.61146 -2.40127e-08C1.61146 1.04889 0.889985 1.89919 -3.7864e-06 1.89919C-0.889993 1.89919 -1.61147 1.04889 -1.61147 2.40127e-08C-1.61147 -1.04889 -0.889993 -1.89919 -3.843e-06 -1.89919Z"></path>
  </g>
  <path fill="none" stroke="#010101" stroke-width="6" stroke-linejoin="round" transform="matrix(1.70248 0 0 1.70248 386.295 267.34)" d="M-9.05615 30.1265C-47.0109 18.3983 -28.2637 -42.2712 9.69109 -30.543C25.8566 -25.5478 52.1643 -19.1377 69.096 -14.5792C75.045 -12.9775 83.7592 -1.81848 77.9786 20.6928C72.198 43.2042 59.4401 48.5823 54.8032 47.3339C37.7722 42.7487 2.87364 33.8129 -9.05615 30.1265Z"></path>
  <path fill="none" stroke="#010101" stroke-width="6" stroke-linecap="round" stroke-linejoin="bevel" transform="matrix(1.70248 0 0 1.58041 386.295 181.982)" d="M32 38.3726C32 46.2536 32 53.0353 32 56.5422C32 99.4987 -31.5 99.4565 -31.5 56.5C-31.5 45.7166 -31.5 25.8944 -31.5 13.4087C-31.5 0.923031 -25.2386 -16.9124 -9.15882 -16.9124C-7.3852 -16.9124 -5.76111 -16.9124 -4.26564 -16.9124"></path>
  <path fill="#6B5D90" transform="matrix(1.70248 0 0 1.58041 386.295 181.982)" d="M-31.5 13.4087C-31.5 0.923031 -25.2386 -16.9124 -9.15882 -16.9124C6.92098 -16.9124 10.7109 -16.9124 17.7751 -16.9124C24.8394 -16.9124 32 -12.9094 32 2.79267C32 18.4947 32 47.7681 32 56.5422C32 94.3272 -31.5 94.285 -31.5 56.5C-31.5 45.7166 -31.5 25.8944 -31.5 13.4087Z"></path>
  <path fill="none" stroke="#2B2B2B" stroke-width="4" stroke-linejoin="round" transform="matrix(1.70248 0 0 1.70248 558.345 174.984)" d="M-11.7479 -12.9046C-11.318 -13.5165 -10.7601 -14.1187 -10.0572 -14.7065C-5.47351 -18.5399 3.93804 -16.1165 4.43081 -14.7065C7.46664 -16.1165 10.8961 -16.6614 15.0174 -13.9738C19.1387 -11.2862 16.2386 -4.86794 16.6118 -4.55445C16.985 -4.24095 25.2116 0.494539 17.5976 8.33765C16.6439 8.92035 15.7365 9.39702 14.8735 9.77867"></path>
  <path fill="#887AAF" transform="matrix(1.70248 0 0 1.70248 558.345 174.984)" d="M-0.116455 -3.8147e-06C-2.60165 -0.663944 -7.05858 1.11792 -10.0572 -2.65577C-13.0559 -6.42945 -14.641 -10.8732 -10.0572 -14.7065C-5.47351 -18.5399 3.93804 -16.1165 4.43081 -14.7065C7.46664 -16.1165 10.8961 -16.6614 15.0174 -13.9738C19.1387 -11.2862 16.2386 -4.86794 16.6118 -4.55445C16.985 -4.24095 25.2116 0.494539 17.5976 8.33765C2.9012 17.3171 -0.809986 1.11792 -0.116455 -3.8147e-06Z"></path>
  <path fill="#6B5D90" transform="matrix(1.70248 0 0 1.70248 386.295 267.34)" d="M-9.05615 30.1265C-48.5873 17.9112 -29.8401 -42.7584 9.69109 -30.543C25.8566 -25.5478 52.1643 -19.1377 69.096 -14.5792C75.045 -12.9775 83.7592 -1.81848 77.9786 20.6928C72.198 43.2042 59.4401 48.5823 54.8032 47.3339C37.7722 42.7487 2.87364 33.8129 -9.05615 30.1265Z"></path>
  <path fill="#312F2F" transform="matrix(0.489557 0.131803 -0.157157 0.583728 486.101 285.139)" d="M-3.8147e-06 -128C70.6925 -128 128 -70.6925 128 4.76837e-06C128 70.6925 70.6925 128 3.8147e-06 128C-70.6925 128 -128 70.6925 -128 4.76837e-06C-128 -70.6925 -70.6925 -128 -3.8147e-06 -128Z"></path>
  <path fill="none" stroke="#010101" stroke-width="7" stroke-miterlimit="4" transform="matrix(1.00146 0 0 1.00146 343 256)" d="M174.054 -42.5307C208.612 -33.2268 227.633 7.7188 216.539 48.9238C205.446 90.1289 168.438 115.99 133.881 106.686C99.3231 97.3821 80.3018 56.4365 91.3954 15.2315C102.489 -25.9736 139.497 -51.8346 174.054 -42.5307Z"></path>
  <path fill="none" stroke="#010101" stroke-width="7" stroke-linejoin="round" transform="matrix(1.00146 0 0 1.00146 343 256)" d="M174.054 -42.5307C174.054 -42.5307 165.194 -44.9162 163.407 -45.3972C135.173 -52.1837 95.3423 -43.5448 80.3208 12.2498C65.2992 68.0445 101.296 97.9134 122.806 103.704C124.593 104.185 133.881 106.686 133.881 106.686C133.389 106.554 132.868 106.391 132.319 106.199"></path>
  <path fill="#8D5A3E" transform="matrix(0.489557 0.131803 -0.157157 0.583728 497.192 288.124)" d="M-3.8147e-06 -128C70.6925 -128 128 -70.6925 128 1.90735e-06C128 70.6925 70.6925 128 3.8147e-06 128C-70.6925 128 -128 70.6925 -128 1.90735e-06C-128 -70.6925 -70.6925 -128 -3.8147e-06 -128Z"></path>
  <path fill="#4B2713" transform="matrix(0.489557 0.131803 -0.157157 0.583728 500.531 288.397)" d="M0.249967 -87.5C51.4744 -87.5 93 -48.4369 93 -0.249995C93 47.9369 51.4744 87 0.249972 87C-50.9744 87 -92.5 47.9369 -92.5 -0.249995C-92.5 -48.4369 -50.9745 -87.5 0.249967 -87.5Z"></path>
  <path fill="#693920" transform="matrix(0.489557 0.131803 -0.157157 0.583728 497.192 288.124)" d="M-2.563e-06 -86C47.4965 -86 86 -47.4965 86 1.90735e-06C86 47.4965 47.4965 86 2.563e-06 86C-47.4965 86 -86 47.4965 -86 1.90735e-06C-86 -47.4965 -47.4965 -86 -2.563e-06 -86Z"></path>
  <path fill="#1F0D04" transform="matrix(1.18526 0.820019 -0.812566 1.45773 481.937 291.81)" d="M0 -6.1709C3.40809 -6.1709 6.1709 -3.4081 6.1709 -1.90735e-06C6.1709 3.40809 3.40809 6.1709 0 6.1709C-3.40809 6.1709 -6.1709 3.40809 -6.1709 -1.90735e-06C-6.1709 -3.4081 -3.40809 -6.1709 0 -6.1709Z"></path>
  <clipPath id="cl_26">
    <path d="M486.952 282.814C490.991 285.609 492.021 291.902 489.252 296.87C486.482 301.838 480.963 303.6 476.923 300.805C472.884 298.011 471.854 291.718 474.623 286.749C477.393 281.781 482.912 280.02 486.952 282.814Z"></path>
  </clipPath>
  <g clip-path="url(#cl_26)">
    <path fill="#2F1507" transform="matrix(1.18526 0.820019 -0.812566 1.45773 479.288 293.243)" d="M-7.62939e-06 -6.1709C3.40809 -6.1709 6.17089 -3.40809 6.17089 1.90735e-06C6.17089 3.4081 3.40809 6.1709 -7.62939e-06 6.1709C-3.4081 6.1709 -6.17091 3.4081 -6.17091 1.90735e-06C-6.17091 -3.40809 -3.4081 -6.1709 -7.62939e-06 -6.1709Z"></path>
  </g>
  <path fill="#1F0D04" transform="matrix(1.18526 0.820019 -0.812566 1.45773 493.936 270.284)" d="M-7.62939e-06 -6.1709C3.40809 -6.1709 6.17089 -3.40809 6.17089 0C6.17089 3.40809 3.40809 6.1709 -7.62939e-06 6.1709C-3.4081 6.1709 -6.17091 3.40809 -6.17091 0C-6.17091 -3.40809 -3.4081 -6.1709 -7.62939e-06 -6.1709Z"></path>
  <clipPath id="cl_27">
    <path d="M498.95 261.289C502.99 264.083 504.02 270.376 501.25 275.345C498.481 280.313 492.961 282.075 488.922 279.28C484.882 276.485 483.853 270.192 486.622 265.224C489.391 260.256 494.911 258.494 498.95 261.289Z"></path>
  </clipPath>
  <g clip-path="url(#cl_27)">
    <path fill="#2F1507" transform="matrix(1.18526 0.820019 -0.812566 1.45773 490.664 272.834)" d="M0 -6.1709C3.40809 -6.1709 6.1709 -3.40809 6.1709 0C6.1709 3.40809 3.40809 6.1709 0 6.1709C-3.40809 6.1709 -6.1709 3.40809 -6.1709 0C-6.1709 -3.40809 -3.40809 -6.1709 0 -6.1709Z"></path>
  </g>
  <path fill="#1F0D04" transform="matrix(1.18526 0.820019 -0.812566 1.45773 500.601 304.722)" d="M0 -6.1709C3.40809 -6.1709 6.1709 -3.40809 6.1709 1.90735e-06C6.1709 3.4081 3.40809 6.1709 0 6.1709C-3.40809 6.1709 -6.1709 3.4081 -6.1709 1.90735e-06C-6.1709 -3.40809 -3.40809 -6.1709 0 -6.1709Z"></path>
  <clipPath id="cl_28">
    <path d="M505.615 295.727C509.655 298.521 510.685 304.814 507.915 309.782C505.146 314.75 499.626 316.512 495.587 313.718C491.547 310.923 490.518 304.63 493.287 299.662C496.056 294.694 501.576 292.932 505.615 295.727Z"></path>
  </clipPath>
  <g clip-path="url(#cl_28)">
    <path fill="#2F1507" transform="matrix(1.18526 0.820019 -0.812566 1.45773 498.659 305.634)" d="M7.62939e-06 -6.1709C3.4081 -6.1709 6.17091 -3.40809 6.17091 0C6.17091 3.40809 3.4081 6.1709 7.62939e-06 6.1709C-3.40809 6.1709 -6.17089 3.40809 -6.17089 0C-6.17089 -3.40809 -3.40809 -6.1709 7.62939e-06 -6.1709Z"></path>
  </g>
  <path fill="#1F0D04" transform="matrix(1.18526 0.820019 -0.812566 1.45773 512.6 283.197)" d="M0 -6.1709C3.40809 -6.1709 6.1709 -3.40809 6.1709 0C6.1709 3.40809 3.40809 6.1709 0 6.1709C-3.40809 6.1709 -6.1709 3.40809 -6.1709 0C-6.1709 -3.40809 -3.40809 -6.1709 0 -6.1709Z"></path>
  <clipPath id="cl_29">
    <path d="M517.614 274.201C521.653 276.996 522.683 283.289 519.914 288.257C517.145 293.225 511.625 294.987 507.585 292.192C503.546 289.398 502.516 283.105 505.286 278.136C508.055 273.168 513.574 271.406 517.614 274.201Z"></path>
  </clipPath>
  <g clip-path="url(#cl_29)">
    <path fill="#2F1507" transform="matrix(1.18526 0.820019 -0.812565 1.45773 508.849 284.406)" d="M7.8133e-06 -6.1709C3.4081 -6.1709 6.17091 -3.40809 6.17091 1.83907e-07C6.17091 3.40809 3.4081 6.1709 7.44549e-06 6.1709C-3.40809 6.1709 -6.17089 3.40809 -6.17089 -1.83907e-07C-6.17089 -3.40809 -3.40809 -6.1709 7.8133e-06 -6.1709Z"></path>
  </g>
  <path fill="none" stroke="#E3CEC2" stroke-width="4" stroke-linecap="round" stroke-linejoin="round" transform="matrix(1.18526 0.820019 -0.812566 1.45773 493.162 269.288)" d="M2.42518 2.41434L15.2044 14.4568"></path>
  <path fill="none" stroke="#C8AD9D" stroke-width="4" stroke-linecap="round" stroke-linejoin="round" transform="matrix(1.18526 0.820019 -0.812566 1.45773 493.162 269.288)" d="M3.28774 13.1788L15.6779 1.98902"></path>
  <path fill="#4B2713" transform="matrix(0.583728 0.157157 -0.157157 0.583728 517.308 213.407)" d="M3.05176e-05 -1.52588e-05C3.05176e-05 -1.52588e-05 -15.2012 -7.62939e-06 -18.2664 0C-66.3551 1.30369 -126.35 32.2772 -126.35 128C-126.35 223.723 -55.9022 256 -19 256C-15.9347 256 0 256 0 256C-25.5438 256 -107.35 223.723 -107.35 128C-107.35 32.2772 -25.5438 -7.62939e-06 3.05176e-05 -1.52588e-05Z"></path>
</svg>