<?xml version="1.0" encoding="utf-8"?>
<svg xmlns="http://www.w3.org/2000/svg" xmlns:xlink="http://www.w3.org/1999/xlink" width="686" height="512">
  <path fill="none" stroke="black" stroke-width="6" stroke-linejoin="round" transform="matrix(1.70248 0 0 1.44029 567.099 179.773)" d="M-12.9438 -16.9737C-9.2896 -16.9737 -6.63603 -16.9737 -3.2142 -16.9737C3.85004 -16.9737 11.0107 -12.9707 11.0107 2.73135C11.0107 18.4334 11.0107 47.7067 11.0107 56.4808C11.0107 99.4374 -52.4893 99.3952 -52.4893 56.4387C-52.4893 45.6553 -52.4893 25.833 -52.4893 13.3474C-52.4893 0.861706 -46.228 -16.9737 -30.1482 -16.9737C-28.9445 -16.9737 -27.8096 -16.9737 -26.7371 -16.9737"></path>
  <path fill="none" stroke="black" stroke-width="6" stroke-linejoin="round" transform="matrix(1.70248 0 0 1.55154 567.099 257.563)" d="M-52.4886 0.0848538C-52.623 -42.5374 10.8768 -42.7376 11.0112 -0.115283C11.0645 16.8043 11.1535 45.0294 11.2088 62.564C11.2282 68.7248 2.75394 80.0671 -20.4852 80.4108C-43.7244 80.7546 -52.2687 69.8604 -52.2838 65.0584C-52.3394 47.4211 -52.4493 12.5712 -52.4886 0.0848538Z"></path>
  <path fill="#503F7E" transform="matrix(1.70248 0 0 1.44029 567.099 179.773)" d="M-52.4893 13.3474C-52.4893 0.861706 -46.228 -16.9737 -30.1482 -16.9737C-14.0684 -16.9737 -10.2784 -16.9737 -3.2142 -16.9737C3.85004 -16.9737 11.0107 -12.9707 11.0107 2.73135C11.0107 18.4334 11.0107 47.7067 11.0107 56.4809C11.0107 99.4374 -52.4893 99.3952 -52.4893 56.4387C-52.4893 45.6553 -52.4893 25.833 -52.4893 13.3474Z"></path>
  <path fill="#503F7E" transform="matrix(1.70248 0 0 1.55154 567.099 257.563)" d="M-52.4886 0.0848526C-52.623 -42.5375 10.8768 -42.7376 11.0112 -0.115284C11.0645 16.8043 11.1535 45.0294 11.2088 62.564C11.2282 68.7248 2.75394 80.0671 -20.4852 80.4108C-43.7244 80.7546 -52.2687 69.8604 -52.2838 65.0584C-52.3394 47.4211 -52.4493 12.5711 -52.4886 0.0848526Z"></path>
  <path fill="none" stroke="black" stroke-width="5" stroke-linejoin="round" transform="matrix(1.58884 0 0 1.70248 482.401 356.274)" d="M3.2486 -15.6843C21.4654 -15.1617 34.2677 -10.6205 32.7075 36.7461C32.6825 50.8532 36.3525 66.1191 21.075 74.6392C9.51464 74.2177 -3.42916 74.6557 -19.8776 73.9225C-30.4244 64.7914 -30.4432 50.8531 -30.4432 34.0309C-29.5285 -12.4507 -14.9682 -16.207 3.2486 -15.6843Z"></path>
  <path fill="#453279" transform="matrix(1.58884 0 0 1.70248 482.401 356.274)" d="M3.2486 -15.6843C21.4654 -15.1617 34.2677 -10.6205 32.7075 36.7461C32.6825 50.8532 36.3525 66.1191 21.075 74.6392C9.51464 74.2177 -3.42916 74.6557 -19.8776 73.9225C-30.4244 64.7914 -30.4432 50.8531 -30.4432 34.0309C-29.5285 -12.4507 -14.9682 -16.207 3.2486 -15.6843Z"></path>
  <path fill="none" stroke="black" stroke-width="5" stroke-linejoin="round" transform="matrix(1.58884 0 0 1.70248 408.748 362.548)" d="M-0.0200195 -14.3434C18.2054 -14.3653 31.226 -10.1701 31.2229 37.2187C31.837 56.0952 34.5794 69.0808 19.0958 75.6705C3.62161 76.0217 -7.06572 76.2142 -21.9017 75.8544C-36.7283 69.2561 -32.12 52.8085 -31.9872 36.3121C-32.6002 -10.1738 -18.2454 -14.3214 -0.0200195 -14.3434Z"></path>
  <path fill="none" stroke="black" stroke-width="5" stroke-linejoin="round" transform="matrix(1.70226 0.0261988 -0.0277736 1.60574 487.3 283.869)" d="M-11.3238 -80.2543C25.8014 -80.2543 54.9476 -94.6926 58.9092 -40.8672C62.8708 12.9582 37.0524 74.7499 0.0572919 75.3534C-14.1177 75.5847 -17.7665 75.6442 -48.2096 76.1409C-78.6526 76.6376 -84.25 60.12 -84.25 0C-86.6294 -86.0849 -88.6034 -78.4854 -12.7475 -80.2208"></path>
  <path fill="#503F7E" transform="matrix(1.58884 0 0 1.70248 408.748 362.548)" d="M-0.0200195 -14.3434C18.2054 -14.3653 31.226 -10.1701 31.2229 37.2187C31.837 56.0952 34.5794 69.0808 19.0958 75.6705C3.62161 76.0217 -7.06572 76.2142 -21.9017 75.8544C-36.7283 69.2561 -32.12 52.8085 -31.9872 36.3121C-32.6002 -10.1738 -18.2454 -14.3214 -0.0200195 -14.3434Z"></path>
  <path fill="none" stroke="black" stroke-width="5" stroke-linejoin="round" transform="matrix(1.44842 1.48659e-24 -1.35259e-24 1.31786 439.903 138.15)" d="M0 -40C20.9426 -40 35.0096 -26.8589 47.8597 -2.20018C49.1253 -3.81499 50.3123 -3.57653 51.1974 -3.11682C52.0824 -2.65711 52.5509 -1.60562 52.2206 -0.665342C53.8523 0.0631991 55.2854 1.47333 55.8775 2.67698C56.9197 4.79566 57.6743 10.5072 53.7931 11.8212C58.5977 31.9882 20.3682 22.0914 -1.32962e-05 22.0914C-20.2357 22.0914 -45.0732 28.3281 -41.8836 12.9784C-44.6787 11.8212 -48.2008 8.95144 -46.5316 4.29175C-45.7036 1.98006 -43.8185 0.567089 -42.3936 0.566997C-41.0392 0.56691 -42.9934 -2.2 -40.2188 -3.81491C-39.0195 -4.51291 -37.7273 -4.43211 -36.6068 -4.12355C-28.0141 -23.7311 -20.4124 -40 0 -40Z"></path>
  <path fill="#503F7E" transform="matrix(1.70226 0.0261988 -0.0277736 1.60574 487.3 283.869)" d="M-11.3238 -80.2543C25.8014 -80.2543 54.9476 -94.6926 58.9092 -40.8672C62.8708 12.9582 37.0524 74.7499 0.0572919 75.3534C-14.1177 75.5847 -17.7665 75.6442 -48.2096 76.1409C-78.6526 76.6376 -84.25 60.12 -84.25 0C-86.6442 -86.62 -88.6279 -78.3873 -11.3238 -80.2543Z"></path>
  <clipPath id="cl_107">
    <path d="M470.253 154.705C533.45 155.677 583.465 133.257 588.714 219.79C593.962 306.323 548.297 404.868 485.305 404.868C461.169 404.868 454.956 404.868 403.12 404.868C351.285 404.868 342.215 378.198 343.885 281.661C342.215 142.51 338.61 155.677 470.253 154.705Z"></path>
  </clipPath>
  <g clip-path="url(#cl_107)">
    <path fill="#655494" transform="matrix(1.70248 0 0 1.70248 522.414 266.919)" d="M-0.158638 -48.2656C25.513 -48.2656 46.324 -26.6563 46.324 4.76837e-07C46.324 26.6563 25.513 48.2656 -0.158638 48.2656C-25.8303 48.2656 -46.6413 26.6563 -46.6413 4.76837e-07C-46.6413 -26.6563 -25.8303 -48.2656 -0.158638 -48.2656Z"></path>
  </g>
  <path fill="none" stroke="black" stroke-width="2" stroke-linejoin="round" transform="matrix(3.67759 -0.721864 0.653943 3.33157 446.334 64.1411)" d="M-4.34758 -5.25471C-4.34758 -11.5047 3.66088 -11.5047 3.66088 -5.25472C3.66088 0.995283 3.66088 12.5 3.66088 12.5L-4.57314 12.5C-4.57314 12.5 -4.34758 0.995284 -4.34758 -5.25471Z"></path>
  <path fill="none" stroke="black" stroke-width="2" stroke-linejoin="round" transform="matrix(3.33157 -0.653943 0.653943 3.33157 413.979 69.2607)" d="M-5.1645 -6.50117C-5.16451 -12.7512 6 -12.7512 6 -6.50117C6 -0.25117 6 12.5 6 12.5L-6 12.5C-6 12.5 -5.1645 -0.251171 -5.1645 -6.50117Z"></path>
  <path fill="#453279" transform="matrix(3.67759 -0.721864 0.653943 3.33157 446.334 64.1411)" d="M-4.34758 -5.25471C-4.34758 -11.5047 3.66088 -11.5047 3.66088 -5.25472C3.66088 0.995283 3.66088 12.5 3.66088 12.5L-4.57314 12.5C-4.57314 12.5 -4.34758 0.995284 -4.34758 -5.25471Z"></path>
  <path fill="none" stroke="#161616" stroke-width="0.5" stroke-linecap="round" stroke-linejoin="round" transform="matrix(3.67759 -0.721864 0.653943 3.33157 441.8 45.6676)" d="M4.54547e-06 1.51651L3.83069e-06 10.5382"></path>
  <path fill="#503F7E" transform="matrix(3.33157 -0.653943 0.653943 3.33157 413.979 69.2607)" d="M-5.1645 -6.50117C-5.16451 -12.7512 6 -12.7512 6 -6.50117C6 -0.251166 6 12.5 6 12.5L-6 12.5C-6 12.5 -5.1645 -0.251167 -5.1645 -6.50117Z"></path>
  <path fill="none" stroke="#161616" stroke-width="0.5" stroke-linecap="round" stroke-linejoin="round" transform="matrix(3.33157 -0.653943 0.653943 3.33157 414.182 50.3267)" d="M3.83324e-06 2.6499e-08L7.64793e-06 10.5382"></path>
  <path fill="#503F7E" transform="matrix(1.44842 0 0 1.31786 439.903 138.15)" d="M0 -40C20.9426 -40 35.0096 -26.8589 47.8597 -2.20018C49.1253 -3.81499 50.3123 -3.57653 51.1974 -3.11682C52.0824 -2.65711 52.5509 -1.60562 52.2206 -0.665342C53.8523 0.0631991 55.2854 1.47333 55.8775 2.67698C56.9197 4.79566 57.6743 10.5072 53.7931 11.8212C58.5977 31.9882 20.3682 22.0914 -1.32962e-05 22.0914C-20.2357 22.0914 -45.0732 28.3281 -41.8836 12.9784C-44.6787 11.8212 -48.2008 8.95144 -46.5316 4.29175C-45.7036 1.98006 -43.8185 0.567089 -42.3936 0.566997C-41.0392 0.56691 -42.9934 -2.2 -40.2188 -3.81491C-39.0195 -4.51291 -37.7273 -4.43211 -36.6068 -4.12355C-28.0141 -23.7311 -20.4124 -40 0 -40Z"></path>
  <clipPath id="cl_108">
    <path d="M439.903 85.4358C470.236 85.4358 490.611 102.754 509.224 135.251C511.057 133.122 512.776 133.437 514.058 134.043C515.34 134.648 516.018 136.034 515.54 137.273C517.903 138.233 519.979 140.092 520.837 141.678C522.346 144.47 523.439 151.997 517.818 153.729C524.777 180.306 469.404 167.263 439.903 167.263C410.593 167.263 374.618 175.482 379.238 155.254C375.189 153.729 370.088 149.947 372.505 143.806C373.705 140.76 376.435 138.897 378.499 138.897C380.461 138.897 377.63 135.251 381.649 133.123C383.386 132.203 385.258 132.309 386.881 132.716C399.326 106.876 410.337 85.4358 439.903 85.4358Z"></path>
  </clipPath>
  <g clip-path="url(#cl_108)">
    <path fill="#7463A5" transform="matrix(1.70248 0 0.00718207 1.70248 423.8 123.828)" d="M-2.67755e-09 -5.5C3.86599 -5.5 7 -2.92564 7 0.25C7 3.42564 3.86599 6 2.67755e-09 6C-3.86599 6 -7 3.42564 -7 0.25C-7 -2.92564 -3.86599 -5.5 -2.67755e-09 -5.5Z"></path>
    <path fill="#7463A5" transform="matrix(1.7367 0 0.00718207 1.70248 473.501 116.123)" d="M-7.62695e-06 -5C2.76142 -5 4.99999 -2.6495 4.99999 0.25C4.99999 3.1495 2.76142 5.5 -7.63184e-06 5.5C-2.76143 5.5 -5.00001 3.1495 -5.00001 0.25C-5.00001 -2.6495 -2.76143 -5 -7.62695e-06 -5Z"></path>
    <path fill="none" stroke="#131212" stroke-width="1" stroke-linecap="round" stroke-linejoin="round" transform="matrix(2.182 -0.353477 0.259285 1.60056 452.912 109.79)" d="M-3.32645e-06 -4.14104e-07L2.92891 -0.714567"></path>
    <path fill="none" stroke="#131212" stroke-width="1" stroke-linecap="round" stroke-linejoin="round" transform="matrix(2.182 -0.353477 0.259285 1.60056 432.34 109.005)" d="M0 -1.48459e-07L4.25731 1.79213"></path>
    <path fill="#131212" transform="matrix(2.33716 -0.378612 0.383771 2.36901 445.378 111.947)" d="M3.3151e-06 -4.03018e-06L1.96141 0.352734L0.915093 1.42246L3.3151e-06 -4.03018e-06Z"></path>
    <path fill="none" stroke="#131212" stroke-width="0.5" stroke-linecap="round" stroke-linejoin="round" transform="matrix(1.83262 -0.296878 0.300923 1.85759 448.272 115.291)" d="M1.0783e-07 -0.711224L-3.70687e-06 1.1102"></path>
    <path fill="#32225E" transform="matrix(1.64843 0.417573 -0.40107 1.65095 442.396 104.507)" d="M5.74338e-08 -1.92715C1.62851 -1.92715 2.94867 -1.06433 2.94867 7.67333e-06C2.94867 1.06435 1.62851 1.92716 -5.74338e-08 1.92716C-1.62851 1.92716 -2.94867 1.06435 -2.94867 7.58546e-06C-2.94867 -1.06433 -1.62851 -1.92715 5.74338e-08 -1.92715Z"></path>
    <path fill="#32225E" transform="matrix(1.61937 0.410211 -0.390122 1.60588 452.983 103.68)" d="M-7.65769e-06 -1.89918C0.889981 -1.89918 1.61146 -1.04889 1.61146 7.60538e-06C1.61146 1.0489 0.889981 1.8992 -7.60109e-06 1.8992C-0.889997 1.8992 -1.61148 1.0489 -1.61148 7.65341e-06C-1.61148 -1.04889 -0.889997 -1.89918 -7.65769e-06 -1.89918Z"></path>
  </g>
  <path fill="none" stroke="#010101" stroke-width="6" stroke-linejoin="round" transform="matrix(1.70248 0 0 1.70248 388.529 267.34)" d="M-9.05615 30.1265C-47.0109 18.3983 -28.2637 -42.2712 9.69109 -30.543C25.8566 -25.5478 52.1643 -19.1377 69.096 -14.5792C75.045 -12.9775 83.7592 -1.81848 77.9786 20.6928C72.198 43.2042 59.4401 48.5823 54.8032 47.3339C37.7722 42.7487 2.87364 33.8129 -9.05615 30.1265Z"></path>
  <path fill="none" stroke="#010101" stroke-width="6" stroke-linecap="round" stroke-linejoin="bevel" transform="matrix(1.70248 0 0 1.58041 388.529 181.982)" d="M32 38.3726C32 46.2536 32 53.0353 32 56.5422C32 99.4987 -31.5 99.4565 -31.5 56.5C-31.5 45.7166 -31.5 25.8944 -31.5 13.4087C-31.5 0.923031 -25.2386 -16.9124 -9.15883 -16.9124C-7.38521 -16.9124 -5.76111 -16.9124 -4.26565 -16.9124"></path>
  <path fill="#503F7E" transform="matrix(1.70248 0 0 1.58041 388.529 181.982)" d="M-31.5 13.4087C-31.5 0.923031 -25.2386 -16.9124 -9.15883 -16.9124C6.92098 -16.9124 10.7109 -16.9124 17.7751 -16.9124C24.8394 -16.9124 32 -12.9094 32 2.79267C32 18.4947 32 47.7681 32 56.5422C32 94.3272 -31.5 94.285 -31.5 56.5C-31.5 45.7166 -31.5 25.8944 -31.5 13.4087Z"></path>
  <path fill="none" stroke="black" stroke-width="4" stroke-linejoin="round" transform="matrix(1.70248 0 0 1.70248 560.579 174.984)" d="M-11.7479 -12.9046C-11.318 -13.5165 -10.7601 -14.1187 -10.0572 -14.7065C-5.4735 -18.5399 3.93805 -16.1165 4.43082 -14.7065C7.46665 -16.1165 10.8961 -16.6614 15.0174 -13.9738C19.1387 -11.2862 16.2386 -4.86794 16.6118 -4.55445C16.985 -4.24095 25.2116 0.494539 17.5976 8.33765C16.6439 8.92035 15.7365 9.39702 14.8736 9.77867"></path>
  <path fill="#7463A5" transform="matrix(1.70248 0 0 1.70248 560.579 174.984)" d="M-0.116447 -3.8147e-06C-2.60164 -0.663944 -7.05858 1.11792 -10.0572 -2.65577C-13.0559 -6.42945 -14.6409 -10.8732 -10.0572 -14.7065C-5.4735 -18.5399 3.93805 -16.1165 4.43082 -14.7065C7.46665 -16.1165 10.8961 -16.6614 15.0174 -13.9738C19.1387 -11.2862 16.2386 -4.86794 16.6118 -4.55445C16.985 -4.24095 25.2116 0.494539 17.5976 8.33765C2.9012 17.3171 -0.809979 1.11792 -0.116447 -3.8147e-06Z"></path>
  <path fill="#503F7E" transform="matrix(1.70248 0 0 1.70248 388.529 267.34)" d="M-9.05615 30.1265C-48.5873 17.9112 -29.8401 -42.7584 9.69109 -30.543C25.8566 -25.5478 52.1643 -19.1377 69.096 -14.5792C75.045 -12.9775 83.7592 -1.81848 77.9786 20.6928C72.198 43.2042 59.4401 48.5823 54.8032 47.3339C37.7722 42.7487 2.87364 33.8129 -9.05615 30.1265Z"></path>
  <path fill="#312F2F" transform="matrix(0.489557 0.131803 -0.157157 0.583728 295.862 314.264)" d="M-3.8147e-06 -128C70.6925 -128 128 -70.6925 128 0C128 70.6925 70.6925 128 3.8147e-06 128C-70.6925 128 -128 70.6925 -128 0C-128 -70.6925 -70.6925 -128 -3.8147e-06 -128Z"></path>
  <path fill="none" stroke="#010101" stroke-width="7" stroke-miterlimit="4" transform="matrix(1.00146 0 0 1.00146 343 256)" d="M-15.9082 -13.4475C18.6493 -4.14357 37.6706 36.802 26.577 78.0071C15.4833 119.212 -21.5242 145.073 -56.0817 135.769C-90.6392 126.465 -109.66 85.5197 -98.5669 44.3147C-87.4733 3.10964 -50.4657 -22.7514 -15.9082 -13.4475Z"></path>
  <path fill="none" stroke="#010101" stroke-width="7" stroke-linejoin="round" transform="matrix(1.00146 0 0 1.00146 343 256)" d="M-15.9082 -13.4475C-15.9082 -13.4475 -24.7686 -15.833 -26.5553 -16.314C-54.7897 -23.1005 -94.62 -14.4616 -109.642 41.3331C-124.663 97.1278 -88.6658 126.997 -67.1564 132.788C-65.3697 133.269 -56.0817 135.769 -56.0817 135.769C-56.573 135.637 -57.0946 135.475 -57.6432 135.282"></path>
  <path fill="#8D5A3E" transform="matrix(0.489557 0.131803 -0.157157 0.583728 306.952 317.25)" d="M0 -128C70.6925 -128 128 -70.6925 128 0C128 70.6925 70.6925 128 7.62939e-06 128C-70.6925 128 -128 70.6925 -128 0C-128 -70.6925 -70.6925 -128 0 -128Z"></path>
  <path fill="#4B2713" transform="matrix(0.489557 0.131803 -0.157157 0.583728 310.292 317.523)" d="M0.249997 -87.5C51.4744 -87.5 93 -48.4369 93 -0.250008C93 47.9368 51.4744 87 0.250003 87C-50.9744 87 -92.5 47.9368 -92.5 -0.250008C-92.5 -48.4369 -50.9744 -87.5 0.249997 -87.5Z"></path>
  <path fill="#693920" transform="matrix(0.489557 0.131803 -0.157157 0.583728 306.952 317.25)" d="M1.2517e-06 -86C47.4965 -86 86 -47.4965 86 0C86 47.4965 47.4965 86 6.3777e-06 86C-47.4965 86 -86 47.4965 -86 0C-86 -47.4965 -47.4965 -86 1.2517e-06 -86Z"></path>
  <path fill="#1F0D04" transform="matrix(1.18526 0.820019 -0.812566 1.45773 291.698 320.935)" d="M9.53674e-07 -6.1709C3.40809 -6.1709 6.1709 -3.40809 6.1709 0C6.1709 3.40809 3.40809 6.1709 9.53674e-07 6.1709C-3.40809 6.1709 -6.1709 3.40809 -6.1709 0C-6.1709 -3.40809 -3.40809 -6.1709 9.53674e-07 -6.1709Z"></path>
  <clipPath id="cl_110">
    <path d="M296.712 311.94C300.752 314.735 301.781 321.028 299.012 325.996C296.243 330.964 290.723 332.726 286.684 329.931C282.644 327.136 281.614 320.843 284.384 315.875C287.153 310.907 292.673 309.145 296.712 311.94Z"></path>
  </clipPath>
  <g clip-path="url(#cl_110)">
    <path fill="#2F1507" transform="matrix(1.18526 0.820019 -0.812566 1.45773 289.049 322.368)" d="M-1.90735e-06 -6.1709C3.40809 -6.1709 6.1709 -3.4081 6.1709 -3.8147e-06C6.1709 3.40809 3.40809 6.17089 -1.90735e-06 6.17089C-3.40809 6.17089 -6.1709 3.40809 -6.1709 -3.8147e-06C-6.1709 -3.4081 -3.40809 -6.1709 -1.90735e-06 -6.1709Z"></path>
  </g>
  <path fill="#1F0D04" transform="matrix(1.18526 0.820019 -0.812566 1.45773 303.696 299.41)" d="M-9.53674e-07 -6.1709C3.40809 -6.1709 6.1709 -3.40809 6.1709 0C6.1709 3.40809 3.40809 6.1709 -9.53674e-07 6.1709C-3.40809 6.1709 -6.1709 3.40809 -6.1709 0C-6.1709 -3.40809 -3.40809 -6.1709 -9.53674e-07 -6.1709Z"></path>
  <clipPath id="cl_111">
    <path d="M308.711 290.414C312.75 293.209 313.78 299.502 311.011 304.47C308.241 309.438 302.722 311.2 298.682 308.406C294.643 305.611 293.613 299.318 296.382 294.35C299.152 289.382 304.671 287.62 308.711 290.414Z"></path>
  </clipPath>
  <g clip-path="url(#cl_111)">
    <path fill="#2F1507" transform="matrix(1.18526 0.820019 -0.812566 1.45773 300.424 301.96)" d="M9.53674e-07 -6.17089C3.40809 -6.17089 6.1709 -3.40809 6.1709 3.8147e-06C6.1709 3.4081 3.40809 6.1709 9.53674e-07 6.1709C-3.40809 6.1709 -6.1709 3.4081 -6.1709 3.8147e-06C-6.1709 -3.40809 -3.40809 -6.17089 9.53674e-07 -6.17089Z"></path>
  </g>
  <path fill="#1F0D04" transform="matrix(1.18526 0.820019 -0.812566 1.45773 310.361 333.848)" d="M-2.38419e-06 -6.1709C3.40809 -6.1709 6.1709 -3.4081 6.1709 -3.8147e-06C6.1709 3.40809 3.40809 6.17089 -2.38419e-06 6.17089C-3.4081 6.17089 -6.1709 3.40809 -6.1709 -3.8147e-06C-6.1709 -3.4081 -3.4081 -6.1709 -2.38419e-06 -6.1709Z"></path>
  <clipPath id="cl_112">
    <path d="M315.376 324.852C319.415 327.647 320.445 333.94 317.676 338.908C314.906 343.876 309.387 345.638 305.347 342.843C301.308 340.049 300.278 333.756 303.047 328.788C305.817 323.819 311.336 322.058 315.376 324.852Z"></path>
  </clipPath>
  <g clip-path="url(#cl_112)">
    <path fill="#2F1507" transform="matrix(1.18526 0.820019 -0.812566 1.45773 308.419 334.76)" d="M4.76837e-07 -6.17089C3.40809 -6.17089 6.1709 -3.40809 6.1709 3.8147e-06C6.1709 3.4081 3.40809 6.1709 4.76837e-07 6.1709C-3.40809 6.1709 -6.1709 3.4081 -6.1709 3.8147e-06C-6.1709 -3.40809 -3.40809 -6.17089 4.76837e-07 -6.17089Z"></path>
  </g>
  <path fill="#1F0D04" transform="matrix(1.18526 0.820019 -0.812566 1.45773 322.36 312.322)" d="M0 -6.1709C3.40809 -6.1709 6.1709 -3.40809 6.1709 0C6.1709 3.40809 3.40809 6.1709 0 6.1709C-3.40809 6.1709 -6.1709 3.40809 -6.1709 0C-6.1709 -3.40809 -3.40809 -6.1709 0 -6.1709Z"></path>
  <clipPath id="cl_113">
    <path d="M327.374 303.327C331.414 306.122 332.444 312.415 329.674 317.383C326.905 322.351 321.385 324.113 317.346 321.318C313.306 318.523 312.277 312.23 315.046 307.262C317.815 302.294 323.335 300.532 327.374 303.327Z"></path>
  </clipPath>
  <g clip-path="url(#cl_113)">
    <path fill="#2F1507" transform="matrix(1.18526 0.820019 -0.812565 1.45773 318.61 313.531)" d="M1.83907e-07 -6.1709C3.40809 -6.1709 6.1709 -3.4081 6.1709 -3.63079e-06C6.1709 3.40809 3.40809 6.17089 -1.83907e-07 6.17089C-3.40809 6.17089 -6.1709 3.40809 -6.1709 -3.9986e-06C-6.1709 -3.4081 -3.40809 -6.1709 1.83907e-07 -6.1709Z"></path>
  </g>
  <path fill="none" stroke="#E3CEC2" stroke-width="4" stroke-linecap="round" stroke-linejoin="round" transform="matrix(1.18526 0.820019 -0.812566 1.45773 302.922 298.414)" d="M2.42519 2.41434L15.2044 14.4568"></path>
  <path fill="none" stroke="#C8AD9D" stroke-width="4" stroke-linecap="round" stroke-linejoin="round" transform="matrix(1.18526 0.820019 -0.812566 1.45773 302.922 298.414)" d="M3.28776 13.1788L15.6779 1.98902"></path>
  <path fill="#4B2713" transform="matrix(0.583728 0.157157 -0.157157 0.583728 327.069 242.533)" d="M-9.53674e-06 -1.14441e-05C-9.53674e-06 -1.14441e-05 -15.2012 -9.53674e-06 -18.2664 0C-66.3551 1.30369 -126.35 32.2772 -126.35 128C-126.35 223.723 -55.9022 256 -19 256C-15.9348 256 0 256 0 256C-25.5439 256 -107.35 223.723 -107.35 128C-107.35 32.2772 -25.5439 -9.53674e-06 -9.53674e-06 -1.14441e-05Z"></path>
</svg>