<?xml version="1.0" encoding="utf-8"?>
<svg xmlns="http://www.w3.org/2000/svg" xmlns:xlink="http://www.w3.org/1999/xlink" width="512" height="512">
  <path fill="none" stroke="black" stroke-width="6" stroke-linejoin="round" transform="matrix(1.8 0 0 1.52279 359.051 174.157)" d="M-11.0932 -15.836C-7.64026 -15.3937 -5.0643 -15.0638 -1.77372 -14.6423C5.2494 -13.7428 12.0035 -8.85131 10.5725 6.75939C9.14155 22.3701 6.47374 51.4731 5.67411 60.1961C1.7593 102.903 -61.3673 94.775 -57.4525 52.0685C-56.4698 41.3478 -54.6633 21.6409 -53.5254 9.22793C-52.3875 -3.18509 -44.5372 -20.1195 -28.551 -18.072C-27.1952 -17.8983 -25.9273 -17.7359 -24.7378 -17.5836"></path>
  <path fill="none" stroke="black" stroke-width="6" stroke-linejoin="round" transform="matrix(1.8 0 0 1.64041 359.051 256.403)" d="M-56.3813 -8.94724C-45.6007 -50.0065 15.77 -32.6891 4.98933 8.37025C0.709774 24.6694 -6.42934 51.8594 -10.8644 68.751C-12.4227 74.6859 -23.5094 83.2656 -46.0385 77.1883C-68.5677 71.1109 -74.03 58.2696 -72.8154 53.6437C-68.3543 36.6531 -59.5395 3.08117 -56.3813 -8.94724Z"></path>
  <path fill="#503F7E" transform="matrix(1.8 0 0 1.52279 359.051 174.157)" d="M-53.5254 9.22793C-52.3875 -3.18509 -44.5372 -20.1195 -28.551 -18.0719C-12.5647 -16.0245 -8.79685 -15.5419 -1.77372 -14.6423C5.2494 -13.7428 12.0035 -8.85132 10.5725 6.75938C9.14155 22.3701 6.47375 51.4731 5.67412 60.1961C1.75931 102.903 -61.3673 94.775 -57.4525 52.0685C-56.4698 41.3478 -54.6633 21.6409 -53.5254 9.22793Z"></path>
  <path fill="#503F7E" transform="matrix(1.8 0 0 1.64041 359.051 256.403)" d="M-56.3813 -8.94724C-45.6007 -50.0065 15.77 -32.6891 4.98933 8.37025C0.709774 24.6694 -6.42934 51.8594 -10.8644 68.751C-12.4227 74.6859 -23.5094 83.2656 -46.0385 77.1883C-68.5677 71.1109 -74.03 58.2696 -72.8154 53.6436C-68.3543 36.6531 -59.5395 3.08117 -56.3813 -8.94724Z"></path>
  <path fill="none" stroke="black" stroke-width="5" stroke-linejoin="round" transform="matrix(1.67985 0 0 1.8 269.501 356.202)" d="M-47.5504 -15.6719C-29.3265 -15.8911 -16.3242 -11.8752 -15.6698 35.5097C-15.0357 49.6044 -10.4945 64.9305 -25.649 74.4387C-37.2139 74.149 -50.151 74.7346 -66.6077 74.1889C-77.2794 64.9551 -78.1011 52.1732 -78.8871 35.367C-80.1451 -11.1076 -65.7743 -15.4527 -47.5504 -15.6719Z"></path>
  <path fill="#453279" transform="matrix(1.67985 0 0 1.8 269.501 356.202)" d="M-47.5504 -15.6719C-29.3265 -15.8911 -16.3242 -11.8752 -15.6698 35.5097C-15.0357 49.6044 -10.4945 64.9305 -25.649 74.4387C-37.2139 74.149 -50.151 74.7346 -66.6077 74.1889C-77.2794 64.9551 -78.1011 52.1732 -78.8871 35.367C-80.1451 -11.1076 -65.7743 -15.4527 -47.5504 -15.6719Z"></path>
  <path fill="none" stroke="black" stroke-width="5" stroke-linejoin="round" transform="matrix(1.67985 0 0 1.8 191.63 362.835)" d="M47.4809 -14.3493C65.7026 -14.0081 78.556 -9.59465 77.5376 37.7847C77.7471 56.6688 80.3133 69.2147 64.7299 75.6304C49.2562 76.0019 38.5692 76.2083 23.7327 75.868C9.00864 69.0805 13.8734 52.1894 14.3596 35.6987C14.7427 -10.7894 29.2591 -14.6904 47.4809 -14.3493Z"></path>
  <path fill="none" stroke="black" stroke-width="5" stroke-linejoin="round" transform="matrix(1.79976 0.0276995 -0.0293645 1.69771 274.681 284.215)" d="M-11.3238 -80.2543C25.8014 -80.2543 54.9476 -94.6926 58.9092 -40.8672C62.8708 12.9582 37.0524 74.7499 0.0572909 75.3534C-14.1177 75.5847 -17.7665 75.6442 -48.2096 76.1409C-78.6526 76.6376 -84.25 60.12 -84.25 1.90735e-06C-86.6294 -86.0849 -88.6034 -78.4854 -12.7475 -80.2208"></path>
  <path fill="#503F7E" transform="matrix(1.67985 0 0 1.8 191.63 362.835)" d="M47.4809 -14.3493C65.7026 -14.0081 78.556 -9.59465 77.5376 37.7847C77.7471 56.6688 80.3133 69.2147 64.7299 75.6304C49.2562 76.0019 38.5692 76.2083 23.7327 75.868C9.00864 69.0805 13.8734 52.1894 14.3596 35.6987C14.7427 -10.7894 29.2591 -14.6904 47.4809 -14.3493Z"></path>
  <path fill="none" stroke="black" stroke-width="5" stroke-linejoin="round" transform="matrix(1.53139 0 0 1.39334 226.982 130.162)" d="M0 -40C20.9426 -40 35.0096 -26.8589 47.8597 -2.20017C49.1253 -3.81498 50.3123 -3.57652 51.1974 -3.11681C52.0824 -2.6571 52.5509 -1.60561 52.2206 -0.665335C53.8523 0.0632067 55.2854 1.47333 55.8775 2.67699C56.9197 4.79567 57.6743 10.5072 53.7931 11.8212C58.5977 31.9882 20.3682 22.0914 -1.32962e-05 22.0914C-20.2357 22.0914 -45.0732 28.3281 -41.8836 12.9784C-44.6787 11.8212 -48.2008 8.95145 -46.5316 4.29176C-45.7036 1.98007 -43.8185 0.567096 -42.3936 0.567005C-41.0392 0.566917 -42.9934 -2.19999 -40.2188 -3.8149C-39.0195 -4.5129 -37.7273 -4.43211 -36.6068 -4.12355C-28.0141 -23.731 -20.4124 -40 0 -40Z"></path>
  <path fill="#503F7E" transform="matrix(1.79976 0.0276995 -0.0293645 1.69771 274.681 284.215)" d="M-11.3238 -80.2543C25.8014 -80.2543 54.9476 -94.6926 58.9092 -40.8672C62.8708 12.9582 37.0524 74.7499 0.0572909 75.3534C-14.1177 75.5847 -17.7665 75.6442 -48.2096 76.1409C-78.6526 76.6376 -84.25 60.12 -84.25 1.90735e-06C-86.6442 -86.62 -88.6279 -78.3873 -11.3238 -80.2543Z"></path>
  <clipPath id="cl_23a">
    <path d="M256.658 147.653C323.474 148.681 376.354 124.977 381.904 216.466C387.453 307.956 339.172 412.145 272.572 412.145C247.053 412.145 240.485 412.145 185.68 412.145C130.875 412.145 121.286 383.948 123.052 281.882C121.286 134.759 117.474 148.681 256.658 147.653Z"></path>
  </clipPath>
  <g clip-path="url(#cl_23a)">
    <path fill="#655494" transform="matrix(1.8 0 0 1.8 311.807 266.294)" d="M-0.158648 -48.2655C25.513 -48.2655 46.324 -26.6563 46.324 0C46.324 26.6563 25.513 48.2655 -0.158648 48.2655C-25.8303 48.2655 -46.6413 26.6563 -46.6413 0C-46.6413 -26.6563 -25.8303 -48.2655 -0.158648 -48.2655Z"></path>
  </g>
  <path fill="none" stroke="black" stroke-width="2" stroke-linejoin="round" transform="matrix(3.88825 -0.763212 0.691401 3.5224 233.781 51.9135)" d="M-4.34758 -5.25471C-4.34758 -11.5047 3.66088 -11.5047 3.66088 -5.25472C3.66088 0.995284 3.66088 12.5 3.66088 12.5L-4.57314 12.5C-4.57314 12.5 -4.34758 0.995284 -4.34758 -5.25471Z"></path>
  <path fill="none" stroke="black" stroke-width="2" stroke-linejoin="round" transform="matrix(3.5224 -0.691401 0.691401 3.5224 199.573 57.3263)" d="M-5.1645 -6.50117C-5.16451 -12.7512 6 -12.7512 6 -6.50117C6 -0.251166 6 12.5 6 12.5L-6 12.5C-6 12.5 -5.1645 -0.251167 -5.1645 -6.50117Z"></path>
  <path fill="#453279" transform="matrix(3.88825 -0.763212 0.691401 3.5224 233.781 51.9135)" d="M-4.34758 -5.25471C-4.34758 -11.5047 3.66088 -11.5047 3.66088 -5.25472C3.66088 0.995284 3.66088 12.5 3.66088 12.5L-4.57314 12.5C-4.57314 12.5 -4.34758 0.995284 -4.34758 -5.25471Z"></path>
  <path fill="none" stroke="#161616" stroke-width="0.5" stroke-linecap="round" stroke-linejoin="round" transform="matrix(3.88825 -0.763212 0.691401 3.5224 228.988 32.3819)" d="M3.59179e-06 1.51652L2.87701e-06 10.5382"></path>
  <path fill="#503F7E" transform="matrix(3.5224 -0.691401 0.691401 3.5224 199.573 57.3263)" d="M-5.1645 -6.50117C-5.1645 -12.7512 6 -12.7512 6 -6.50117C6 -0.251166 6 12.5 6 12.5L-6 12.5C-6 12.5 -5.1645 -0.251167 -5.1645 -6.50117Z"></path>
  <path fill="none" stroke="#161616" stroke-width="0.5" stroke-linecap="round" stroke-linejoin="round" transform="matrix(3.5224 -0.691401 0.691401 3.5224 199.787 37.3079)" d="M2.56958e-07 2.6499e-08L4.07165e-06 10.5382"></path>
  <path fill="#503F7E" transform="matrix(1.53139 0 0 1.39334 226.982 130.162)" d="M0 -40C20.9426 -40 35.0096 -26.8589 47.8597 -2.20017C49.1253 -3.81498 50.3123 -3.57652 51.1974 -3.11681C52.0824 -2.6571 52.5509 -1.60561 52.2206 -0.665335C53.8523 0.0632067 55.2854 1.47333 55.8775 2.67699C56.9197 4.79567 57.6743 10.5072 53.7931 11.8212C58.5977 31.9882 20.3682 22.0914 -1.32962e-05 22.0914C-20.2357 22.0914 -45.0732 28.3281 -41.8836 12.9784C-44.6787 11.8212 -48.2008 8.95145 -46.5316 4.29176C-45.7036 1.98007 -43.8185 0.567096 -42.3936 0.567005C-41.0392 0.566917 -42.9934 -2.19999 -40.2188 -3.8149C-39.0195 -4.5129 -37.7273 -4.43211 -36.6068 -4.12355C-28.0141 -23.731 -20.4124 -40 0 -40Z"></path>
  <clipPath id="cl_23b">
    <path d="M226.982 74.428C259.053 74.428 280.595 92.738 300.273 127.096C302.211 124.846 304.029 125.178 305.384 125.819C306.74 126.459 307.457 127.925 306.951 129.235C309.45 130.25 311.645 132.215 312.552 133.892C314.148 136.844 315.303 144.802 309.359 146.633C316.717 174.732 258.173 160.943 226.981 160.943C195.993 160.943 157.957 169.632 162.842 148.245C158.561 146.633 153.168 142.634 155.724 136.142C156.992 132.921 159.879 130.952 162.061 130.952C164.135 130.952 161.142 127.096 165.391 124.846C167.228 123.874 169.206 123.986 170.922 124.416C184.081 97.0962 195.722 74.428 226.982 74.428Z"></path>
  </clipPath>
  <g clip-path="url(#cl_23b)">
    <path fill="#7463A5" transform="matrix(1.8 2.98023e-08 0.00759348 1.8 223.717 115.023)" d="M0 -5.5C3.86599 -5.5 7 -2.92564 7 0.25C7 3.42564 3.86599 6 0 6C-3.86599 6 -7 3.42564 -7 0.25C-7 -2.92564 -3.86599 -5.5 0 -5.5Z"></path>
    <path fill="#7463A5" transform="matrix(1.83618 3.04014e-08 0.00759348 1.8 276.266 106.877)" d="M9.53674e-07 -5.00001C2.76142 -5.00001 5 -2.6495 5 0.249992C5 3.14949 2.76142 5.49999 9.53674e-07 5.49999C-2.76142 5.49999 -5 3.14949 -5 0.249992C-5 -2.6495 -2.76142 -5.00001 9.53674e-07 -5.00001Z"></path>
    <path fill="none" stroke="#131212" stroke-width="1" stroke-linecap="round" stroke-linejoin="round" transform="matrix(2.30699 -0.373724 0.274137 1.69224 254.497 100.182)" d="M1.44192e-06 -4.14104e-07L2.92891 -0.714567"></path>
    <path fill="none" stroke="#131212" stroke-width="1" stroke-linecap="round" stroke-linejoin="round" transform="matrix(2.30699 -0.373724 0.274137 1.69224 232.747 99.3518)" d="M6.55651e-07 7.48094e-06L4.25731 1.79213"></path>
    <path fill="#131212" transform="matrix(2.47104 -0.400299 0.405754 2.50471 246.532 102.462)" d="M-4.99596e-07 -2.15485e-07L1.9614 0.352738L0.915089 1.42246L-4.99596e-07 -2.15485e-07Z"></path>
    <path fill="none" stroke="#131212" stroke-width="0.5" stroke-linecap="round" stroke-linejoin="round" transform="matrix(1.93759 -0.313883 0.31816 1.96399 249.591 105.997)" d="M-8.35247e-07 -0.711224L-4.67709e-06 1.1102"></path>
    <path fill="#32225E" transform="matrix(1.74285 0.441491 -0.424043 1.74552 243.379 94.5964)" d="M-2.87169e-08 -1.92715C1.62851 -1.92715 2.94867 -1.06433 2.94867 7.58546e-06C2.94867 1.06435 1.62851 1.92716 2.87169e-08 1.92716C-1.62851 1.92716 -2.94867 1.06435 -2.94867 7.67333e-06C-2.94867 -1.06433 -1.62851 -1.92715 -2.87169e-08 -1.92715Z"></path>
    <path fill="#32225E" transform="matrix(1.71213 0.433708 -0.412468 1.69787 254.572 93.7216)" d="M-3.8147e-06 -1.89919C0.889985 -1.89919 1.61146 -1.04889 1.61146 -2.40127e-08C1.61146 1.04889 0.889985 1.89919 -3.8147e-06 1.89919C-0.889993 1.89919 -1.61147 1.04889 -1.61147 2.40127e-08C-1.61147 -1.04889 -0.889993 -1.89919 -3.8147e-06 -1.89919Z"></path>
  </g>
  <path fill="none" stroke="black" stroke-width="4" stroke-linejoin="round" transform="matrix(1.8 0 0 1.8 352.158 169.094)" d="M-11.7479 -12.9046C-11.318 -13.5165 -10.7601 -14.1187 -10.0572 -14.7065C-5.47351 -18.5399 3.93804 -16.1165 4.43081 -14.7065C7.46664 -16.1165 10.8961 -16.6614 15.0174 -13.9738C19.1387 -11.2862 16.2386 -4.86794 16.6118 -4.55445C16.985 -4.24095 25.2116 0.494539 17.5976 8.33765C16.6439 8.92035 15.7365 9.39702 14.8735 9.77867"></path>
  <path fill="#7463A5" transform="matrix(1.8 0 0 1.8 352.158 169.094)" d="M-0.116455 -3.8147e-06C-2.60165 -0.663944 -7.05858 1.11792 -10.0572 -2.65577C-13.0559 -6.42945 -14.6409 -10.8732 -10.0572 -14.7065C-5.47351 -18.5399 3.93804 -16.1165 4.43081 -14.7065C7.46664 -16.1165 10.8961 -16.6614 15.0174 -13.9738C19.1387 -11.2862 16.2386 -4.86794 16.6118 -4.55445C16.985 -4.24095 25.2116 0.494539 17.5976 8.33765C2.9012 17.3171 -0.809986 1.11792 -0.116455 -3.8147e-06Z"></path>
  <path fill="none" stroke="black" stroke-width="6" stroke-linejoin="round" transform="matrix(1.8 0 0 1.8 173.751 266.74)" d="M-22.1812 4.62864C-28.891 -34.5261 33.6967 -45.2514 40.4065 -6.09665C43.2642 10.58 48.0315 38.3997 50.9932 55.6824C52.0338 61.7547 45.5573 74.345 22.6968 78.537C-0.163673 82.7289 -10.3959 73.402 -11.207 68.669C-14.186 51.285 -20.0723 16.9356 -22.1812 4.62864Z"></path>
  <path fill="none" stroke="black" stroke-width="6" stroke-linecap="round" stroke-linejoin="bevel" transform="matrix(1.8 0 0 1.67094 173.751 176.493)" d="M37.7727 31.6188C39.0726 39.4215 40.1922 46.1421 40.7699 49.6097C47.8138 91.8908 -14.6946 103.932 -21.7385 61.6513C-23.5067 51.0375 -26.7571 31.5269 -28.8044 19.2376C-30.8518 6.94824 -27.6135 -11.7982 -11.7865 -14.8579C-10.1649 -15.1714 -8.67021 -15.4604 -7.28608 -15.728"></path>
  <path fill="#503F7E" transform="matrix(1.8 0 0 1.8 173.751 266.74)" d="M-22.1812 4.62864C-29.1696 -36.1523 33.4181 -46.8776 40.4065 -6.09665C43.2642 10.58 48.0315 38.3997 50.9932 55.6824C52.0338 61.7547 45.5573 74.345 22.6968 78.537C-0.163673 82.7289 -10.3959 73.402 -11.207 68.669C-14.186 51.285 -20.0723 16.9356 -22.1812 4.62864Z"></path>
  <path fill="#503F7E" transform="matrix(1.8 0 0 1.67094 173.751 176.493)" d="M-28.8044 19.2376C-30.8518 6.94824 -27.6134 -11.7982 -11.7865 -14.8579C4.04047 -17.9177 7.77078 -18.6388 14.7239 -19.9831C21.6771 -21.3273 29.3815 -18.7498 31.9563 -3.29459C34.531 12.1606 39.3312 40.9736 40.7699 49.6097C46.9658 86.8006 -15.5426 98.8422 -21.7385 61.6513C-23.5067 51.0375 -26.7571 31.5269 -28.8044 19.2376Z"></path>
</svg>