<?xml version="1.0" encoding="utf-8"?>
<svg xmlns="http://www.w3.org/2000/svg" xmlns:xlink="http://www.w3.org/1999/xlink" width="512" height="512">
  <path fill="none" stroke="black" stroke-width="6" stroke-linejoin="round" transform="matrix(1.8 0 0 1.52279 359.051 177.797)" d="M-13.8796 -17.4059C-10.1246 -17.6303 -7.43997 -17.7907 -3.95951 -17.9987C3.09572 -18.4203 10.4182 -14.8497 11.0889 0.832375C11.7595 16.5144 13.0099 45.7504 13.3846 54.5133C15.2194 97.4151 -48.2014 101.163 -50.0362 58.2608C-50.4968 47.4912 -51.3434 27.6942 -51.8767 15.2245C-52.41 2.7547 -46.9184 -15.4317 -30.8591 -16.3913C-29.7357 -16.4584 -28.6723 -16.522 -27.6636 -16.5822"></path>
  <path fill="none" stroke="black" stroke-width="6" stroke-linejoin="round" transform="matrix(1.8 0 0 1.64041 359.051 260.043)" d="M-50.0454 -2.89754C-45.8386 -45.3605 17.3376 -39.6829 13.1307 2.78003C11.4608 19.6364 8.67493 47.7559 6.94425 65.2249C6.33617 71.3627 -3.2472 81.875 -26.3955 80.0666C-49.5437 78.2582 -56.9323 66.6171 -56.4584 61.833C-54.7175 44.2617 -51.2778 9.54207 -50.0454 -2.89754Z"></path>
  <path fill="#503F7E" transform="matrix(1.8 0 0 1.52279 359.051 177.797)" d="M-51.8767 15.2244C-52.41 2.7547 -46.9184 -15.4317 -30.8591 -16.3913C-14.7998 -17.3509 -11.0147 -17.5771 -3.95951 -17.9987C3.09572 -18.4203 10.4182 -14.8497 11.0889 0.832375C11.7595 16.5144 13.0099 45.7504 13.3846 54.5133C15.2194 97.4151 -48.2014 101.163 -50.0362 58.2608C-50.4968 47.4912 -51.3434 27.6942 -51.8767 15.2244Z"></path>
  <path fill="#503F7E" transform="matrix(1.8 0 0 1.64041 359.051 260.043)" d="M-50.0454 -2.89754C-45.8386 -45.3605 17.3376 -39.6829 13.1307 2.78003C11.4608 19.6364 8.67493 47.7559 6.94425 65.2249C6.33617 71.3627 -3.2472 81.875 -26.3955 80.0666C-49.5437 78.2582 -56.9323 66.6171 -56.4584 61.833C-54.7175 44.2617 -51.2778 9.54207 -50.0454 -2.89754Z"></path>
  <path fill="none" stroke="black" stroke-width="5" stroke-linejoin="round" transform="matrix(1.67985 0 0 1.8 269.501 356.202)" d="M-9.4953 -15.6727C8.72888 -15.8697 21.7255 -11.8379 22.3137 35.5477C22.9281 49.6432 27.3482 64.8342 12.363 74.0914C0.794331 73.9992 -12.1291 74.8056 -28.5938 74.5411C-39.4373 65.6306 -40.1409 52.1352 -40.9034 35.328C-42.0963 -11.148 -27.7195 -15.4757 -9.4953 -15.6727Z"></path>
  <path fill="#453279" transform="matrix(1.67985 0 0 1.8 269.501 356.202)" d="M-9.4953 -15.6727C8.72888 -15.8697 21.7255 -11.8379 22.3137 35.5477C22.9281 49.6432 27.3482 64.8342 12.363 74.0914C0.794331 73.9992 -12.1291 74.8056 -28.5938 74.5411C-39.4373 65.6306 -40.1409 52.1352 -40.9034 35.328C-42.0963 -11.148 -27.7195 -15.4757 -9.4953 -15.6727Z"></path>
  <path fill="none" stroke="black" stroke-width="5" stroke-linejoin="round" transform="matrix(1.67985 0 0 1.8 191.63 362.835)" d="M1.57992 -12.4184C17.6286 -20.4793 56.261 -7.48319 54.8958 33.5628C54.885 49.9282 41.6255 73.7474 24.5803 72.5594C10.1704 67.2845 0.238987 63.5951 -13.2872 57.8957C-22.6956 45.3951 -0.417145 45.4798 0.172195 31.1947C0.977795 -9.08467 -14.4688 -4.35756 1.57992 -12.4184Z"></path>
  <path fill="none" stroke="black" stroke-width="5" stroke-linejoin="round" transform="matrix(1.79976 0.0276995 -0.0293645 1.69771 274.681 287.855)" d="M-11.3238 -80.2543C25.8014 -80.2543 54.9476 -94.6926 58.9092 -40.8672C62.8708 12.9582 37.0524 74.7499 0.0572919 75.3534C-14.1177 75.5847 -17.7665 75.6442 -48.2096 76.1409C-78.6526 76.6376 -84.25 60.12 -84.25 1.90735e-06C-86.6294 -86.0849 -88.6034 -78.4854 -12.7475 -80.2208"></path>
  <path fill="#503F7E" transform="matrix(1.67985 0 0 1.8 191.63 362.835)" d="M1.57992 -12.4184C17.6286 -20.4793 56.261 -7.48319 54.8958 33.5628C54.885 49.9282 41.6255 73.7474 24.5803 72.5594C10.1704 67.2845 0.238987 63.5951 -13.2872 57.8957C-22.6956 45.3951 -0.417145 45.4798 0.172195 31.1947C0.977795 -9.08467 -14.4688 -4.35756 1.57992 -12.4184Z"></path>
  <path fill="none" stroke="black" stroke-width="5" stroke-linejoin="round" transform="matrix(1.53139 0 0 1.39334 226.982 139.07)" d="M0 -40C20.9426 -40 35.0096 -26.8589 47.8597 -2.20017C49.1253 -3.81498 50.3123 -3.57652 51.1974 -3.11681C52.0824 -2.6571 52.5509 -1.60561 52.2206 -0.665335C53.8523 0.0632067 55.2854 1.47333 55.8775 2.67699C56.9197 4.79567 57.6743 10.5072 53.7931 11.8212C58.5977 31.9882 20.3682 22.0914 -1.32962e-05 22.0914C-20.2357 22.0914 -45.0732 28.3281 -41.8836 12.9784C-44.6787 11.8212 -48.2008 8.95145 -46.5316 4.29176C-45.7036 1.98007 -43.8185 0.567096 -42.3936 0.567005C-41.0392 0.566917 -42.9934 -2.19999 -40.2188 -3.8149C-39.0195 -4.5129 -37.7273 -4.43211 -36.6068 -4.12355C-28.0141 -23.731 -20.4124 -40 0 -40Z"></path>
  <path fill="#503F7E" transform="matrix(1.79976 0.0276995 -0.0293645 1.69771 274.681 287.855)" d="M-11.3238 -80.2543C25.8014 -80.2543 54.9476 -94.6926 58.9092 -40.8672C62.8708 12.9582 37.0524 74.7499 0.0572919 75.3534C-14.1177 75.5847 -17.7665 75.6442 -48.2096 76.1409C-78.6526 76.6376 -84.25 60.12 -84.25 1.90735e-06C-86.6442 -86.62 -88.6279 -78.3873 -11.3238 -80.2543Z"></path>
  <clipPath id="cl_a5">
    <path d="M256.658 151.293C323.474 152.322 376.354 128.617 381.904 220.106C387.453 311.596 339.172 415.786 272.572 415.785C247.053 415.785 240.485 415.785 185.68 415.785C130.875 415.785 121.286 387.588 123.052 285.522C121.286 138.4 117.474 152.321 256.658 151.293Z"></path>
  </clipPath>
  <g clip-path="url(#cl_a5)">
    <path fill="#655494" transform="matrix(1.8 0 0 1.8 311.807 269.935)" d="M-0.158648 -48.2655C25.513 -48.2655 46.324 -26.6563 46.324 0C46.324 26.6563 25.513 48.2655 -0.158648 48.2655C-25.8303 48.2655 -46.6413 26.6563 -46.6413 0C-46.6413 -26.6563 -25.8303 -48.2655 -0.158648 -48.2655Z"></path>
  </g>
  <path fill="none" stroke="black" stroke-width="2" stroke-linejoin="round" transform="matrix(3.88825 -0.763212 0.691401 3.5224 233.781 60.8215)" d="M-4.34758 -5.25471C-4.34759 -11.5047 3.66088 -11.5047 3.66088 -5.25472C3.66088 0.995284 3.66088 12.5 3.66088 12.5L-4.57314 12.5C-4.57314 12.5 -4.34758 0.995284 -4.34758 -5.25471Z"></path>
  <path fill="none" stroke="black" stroke-width="2" stroke-linejoin="round" transform="matrix(3.5224 -0.691401 0.691401 3.5224 199.573 66.2343)" d="M-5.1645 -6.50117C-5.1645 -12.7512 6 -12.7512 6 -6.50117C6 -0.251166 6 12.5 6 12.5L-6 12.5C-6 12.5 -5.1645 -0.251167 -5.1645 -6.50117Z"></path>
  <path fill="#453279" transform="matrix(3.88825 -0.763212 0.691401 3.5224 233.781 60.8215)" d="M-4.34758 -5.25471C-4.34759 -11.5047 3.66088 -11.5047 3.66088 -5.25472C3.66088 0.995284 3.66088 12.5 3.66088 12.5L-4.57314 12.5C-4.57314 12.5 -4.34758 0.995284 -4.34758 -5.25471Z"></path>
  <path fill="none" stroke="#161616" stroke-width="0.5" stroke-linecap="round" stroke-linejoin="round" transform="matrix(3.88825 -0.763212 0.691401 3.5224 228.988 41.2898)" d="M4.30705e-06 1.51652L3.59227e-06 10.5382"></path>
  <path fill="#503F7E" transform="matrix(3.5224 -0.691401 0.691401 3.5224 199.573 66.2343)" d="M-5.1645 -6.50116C-5.1645 -12.7512 6 -12.7512 6 -6.50116C6 -0.251162 6 12.5 6 12.5L-6 12.5C-6 12.5 -5.1645 -0.251163 -5.1645 -6.50116Z"></path>
  <path fill="none" stroke="#161616" stroke-width="0.5" stroke-linecap="round" stroke-linejoin="round" transform="matrix(3.5224 -0.691401 0.691401 3.5224 199.787 46.2158)" d="M4.95376e-07 3.8412e-06L4.31007e-06 10.5382"></path>
  <path fill="#503F7E" transform="matrix(1.53139 0 0 1.39334 226.982 139.07)" d="M0 -40C20.9426 -40 35.0096 -26.8589 47.8597 -2.20017C49.1253 -3.81498 50.3123 -3.57652 51.1974 -3.11681C52.0824 -2.6571 52.5509 -1.60561 52.2206 -0.665335C53.8523 0.0632067 55.2854 1.47333 55.8775 2.67699C56.9197 4.79567 57.6743 10.5072 53.7931 11.8212C58.5977 31.9882 20.3682 22.0914 -1.32962e-05 22.0914C-20.2357 22.0914 -45.0732 28.3281 -41.8836 12.9784C-44.6787 11.8212 -48.2008 8.95145 -46.5316 4.29176C-45.7036 1.98007 -43.8185 0.567096 -42.3936 0.567005C-41.0392 0.566917 -42.9934 -2.19999 -40.2188 -3.8149C-39.0195 -4.5129 -37.7273 -4.43211 -36.6068 -4.12355C-28.0141 -23.731 -20.4124 -40 0 -40Z"></path>
  <clipPath id="cl_a6">
    <path d="M226.982 83.3359C259.053 83.3359 280.595 101.646 300.273 136.004C302.211 133.754 304.029 134.086 305.384 134.727C306.74 135.367 307.457 136.832 306.951 138.143C309.45 139.158 311.645 141.123 312.552 142.8C314.148 145.752 315.303 153.71 309.359 155.541C316.717 183.64 258.173 169.851 226.981 169.851C195.993 169.851 157.957 178.54 162.842 157.153C158.561 155.541 153.168 151.542 155.724 145.05C156.992 141.829 159.879 139.86 162.061 139.86C164.135 139.86 161.142 136.004 165.391 133.754C167.228 132.782 169.206 132.894 170.922 133.324C184.081 106.004 195.722 83.3359 226.982 83.3359Z"></path>
  </clipPath>
  <g clip-path="url(#cl_a6)">
    <path fill="#7463A5" transform="matrix(1.8 2.98023e-08 0.00759348 1.8 226.457 130.419)" d="M0 -5.5C3.86599 -5.5 7 -2.92564 7 0.25C7 3.42564 3.86599 6 0 6C-3.86599 6 -7 3.42564 -7 0.25C-7 -2.92564 -3.86599 -5.5 0 -5.5Z"></path>
    <path fill="#7463A5" transform="matrix(1.83618 3.04014e-08 0.00759348 1.8 279.005 122.273)" d="M0 -5.00001C2.76142 -5.00001 5 -2.6495 5 0.249992C5 3.14949 2.76142 5.49999 0 5.49999C-2.76142 5.49999 -5 3.14949 -5 0.249992C-5 -2.6495 -2.76142 -5.00001 0 -5.00001Z"></path>
    <path fill="none" stroke="#131212" stroke-width="1" stroke-linecap="round" stroke-linejoin="round" transform="matrix(2.30699 -0.373724 0.274137 1.69224 257.237 115.577)" d="M4.88246e-07 7.21529e-06L2.92891 -0.71456"></path>
    <path fill="none" stroke="#131212" stroke-width="1" stroke-linecap="round" stroke-linejoin="round" transform="matrix(2.30699 -0.373724 0.274137 1.69224 235.486 114.747)" d="M-7.15256e-07 -1.48459e-07L4.25731 1.79213"></path>
    <path fill="#131212" transform="matrix(2.47104 -0.400299 0.405754 2.50471 249.271 117.857)" d="M-2.27592e-08 -4.03018e-06L1.9614 0.352734L0.91509 1.42246L-2.27592e-08 -4.03018e-06Z"></path>
    <path fill="none" stroke="#131212" stroke-width="0.5" stroke-linecap="round" stroke-linejoin="round" transform="matrix(1.93759 -0.313883 0.31816 1.96399 252.331 121.393)" d="M1.0721e-06 -0.711224L-2.76974e-06 1.1102"></path>
    <path fill="#32225E" transform="matrix(1.74285 0.441491 -0.424043 1.74552 246.118 109.992)" d="M-3.84341e-06 -1.92716C1.6285 -1.92716 2.94867 -1.06434 2.94867 -4.39386e-08C2.94867 1.06434 1.6285 1.92716 -3.78598e-06 1.92716C-1.62851 1.92716 -2.94867 1.06434 -2.94867 4.39386e-08C-2.94867 -1.06434 -1.62851 -1.92716 -3.84341e-06 -1.92716Z"></path>
    <path fill="#32225E" transform="matrix(1.71213 0.433708 -0.412468 1.69787 257.311 109.117)" d="M-5.72205e-06 -1.89918C0.889983 -1.89918 1.61146 -1.04889 1.61146 7.60538e-06C1.61146 1.0489 0.889983 1.8992 -5.72205e-06 1.8992C-0.889995 1.8992 -1.61147 1.0489 -1.61147 7.65341e-06C-1.61147 -1.04889 -0.889995 -1.89918 -5.72205e-06 -1.89918Z"></path>
  </g>
  <path fill="none" stroke="black" stroke-width="4" stroke-linejoin="round" transform="matrix(1.8 0 0 1.8 352.158 172.734)" d="M-11.7479 -12.9046C-11.318 -13.5165 -10.7601 -14.1187 -10.0572 -14.7065C-5.47351 -18.5399 3.93804 -16.1165 4.43081 -14.7065C7.46664 -16.1165 10.8961 -16.6614 15.0174 -13.9738C19.1387 -11.2862 16.2386 -4.86793 16.6118 -4.55444C16.985 -4.24095 25.2116 0.494543 17.5976 8.33766C16.6439 8.92035 15.7365 9.39702 14.8735 9.77867"></path>
  <path fill="#7463A5" transform="matrix(1.8 0 0 1.8 352.158 172.734)" d="M-0.116455 0C-2.60165 -0.66394 -7.05858 1.11792 -10.0572 -2.65576C-13.0559 -6.42944 -14.6409 -10.8732 -10.0572 -14.7065C-5.47351 -18.5399 3.93804 -16.1165 4.43081 -14.7065C7.46664 -16.1165 10.8961 -16.6614 15.0174 -13.9738C19.1387 -11.2862 16.2386 -4.86793 16.6118 -4.55444C16.985 -4.24095 25.2116 0.494543 17.5976 8.33766C2.9012 17.3171 -0.809986 1.11792 -0.116455 0Z"></path>
  <path fill="none" stroke="black" stroke-width="6" stroke-linejoin="round" transform="matrix(1.8 0 0 1.8 163.053 270.38)" d="M-33.345 -1.41431C-31.548 -41.0991 31.887 -38.2266 30.09 1.45828C29.3245 18.3607 28.0477 46.557 27.2545 64.0737C26.9758 70.2282 17.9627 81.1472 -5.26584 80.3661C-28.4944 79.585 -36.5015 68.2901 -36.2843 63.493C-35.4864 45.8737 -33.9099 11.0593 -33.345 -1.41431Z"></path>
  <path fill="none" stroke="black" stroke-width="6" stroke-linecap="round" stroke-linejoin="bevel" transform="matrix(1.8 0 0 1.67094 163.053 180.133)" d="M30.646 39.6393C30.3727 47.5087 30.1375 54.2795 30.0159 57.7818C28.525 100.708 -34.9291 98.1087 -33.4383 55.1822C-33.064 44.4064 -32.3761 24.598 -31.9427 12.121C-31.5094 -0.355904 -24.6334 -17.9267 -8.56482 -17.2791C-6.76732 -17.2066 -5.1235 -17.1404 -3.6116 -17.0795"></path>
  <path fill="#503F7E" transform="matrix(1.8 0 0 1.8 163.053 270.38)" d="M-33.345 -1.41431C-31.4733 -42.7474 31.9617 -39.8748 30.09 1.45828C29.3245 18.3607 28.0477 46.557 27.2545 64.0737C26.9758 70.2282 17.9627 81.1472 -5.26584 80.3661C-28.4944 79.585 -36.5015 68.2901 -36.2843 63.493C-35.4864 45.8737 -33.9099 11.0593 -33.345 -1.41431Z"></path>
  <path fill="#503F7E" transform="matrix(1.8 0 0 1.67094 163.053 180.133)" d="M-31.9427 12.121C-31.5094 -0.355904 -24.6334 -17.9267 -8.56482 -17.2791C7.50374 -16.6315 11.291 -16.4788 18.3503 -16.1943C25.4096 -15.9098 32.4263 -11.6212 31.8813 4.06988C31.3364 19.761 30.3204 49.0138 30.0159 57.7818C28.7045 95.5404 -34.7496 92.9408 -33.4383 55.1822C-33.064 44.4064 -32.3761 24.598 -31.9427 12.121Z"></path>
</svg>