<?xml version="1.0" encoding="utf-8"?>
<svg xmlns="http://www.w3.org/2000/svg" xmlns:xlink="http://www.w3.org/1999/xlink" width="512" height="512">
  <path fill="none" stroke="black" stroke-width="6" stroke-linejoin="round" transform="matrix(1.8 0 0 1.52279 359.051 173.007)" d="M-12.0779 -16.492C-8.51766 -16.2859 -5.89767 -16.1343 -2.53477 -15.9396C4.52101 -15.5311 11.5074 -11.1189 10.8576 4.56439C10.2078 20.2477 8.99646 49.4859 8.63337 58.2496C6.85575 101.155 -56.5665 97.441 -54.7889 54.5359C-54.3426 43.7654 -53.5224 23.9669 -53.0057 11.4962C-52.489 -0.974529 -45.4971 -18.4266 -29.4365 -17.4969C-28.16 -17.423 -26.961 -17.3536 -25.8318 -17.2882"></path>
  <path fill="none" stroke="black" stroke-width="6" stroke-linejoin="round" transform="matrix(1.8 0 0 1.64041 359.051 255.253)" d="M-54.2148 -6.12602C-46.4519 -47.9733 15.9729 -35.8359 8.20997 6.0114C5.12835 22.6234 -0.0123634 50.3352 -3.20599 67.5509C-4.32808 73.5997 -14.7548 83.0828 -37.6507 78.9063C-60.5465 74.7298 -66.9233 62.3807 -66.0487 57.666C-62.8363 40.3494 -56.489 6.13323 -54.2148 -6.12602Z"></path>
  <path fill="#503F7E" transform="matrix(1.8 0 0 1.52279 359.051 173.007)" d="M-53.0057 11.4962C-52.489 -0.974525 -45.4971 -18.4266 -29.4365 -17.4969C-13.3759 -16.5672 -9.59055 -16.348 -2.53477 -15.9396C4.52101 -15.5311 11.5074 -11.1189 10.8576 4.5644C10.2078 20.2477 8.99646 49.486 8.63337 58.2496C6.85575 101.155 -56.5665 97.441 -54.7889 54.5359C-54.3426 43.7655 -53.5224 23.9669 -53.0057 11.4962Z"></path>
  <path fill="#503F7E" transform="matrix(1.8 0 0 1.64041 359.051 255.253)" d="M-54.2148 -6.12603C-46.4519 -47.9733 15.9729 -35.8359 8.20997 6.0114C5.12835 22.6234 -0.0123634 50.3352 -3.20599 67.5509C-4.32808 73.5997 -14.7548 83.0828 -37.6507 78.9063C-60.5465 74.7298 -66.9233 62.3807 -66.0487 57.666C-62.8363 40.3494 -56.489 6.13323 -54.2148 -6.12603Z"></path>
  <path fill="none" stroke="black" stroke-width="5" stroke-linejoin="round" transform="matrix(1.67985 0 0 1.8 269.501 356.202)" d="M-33.6269 -15.6706C-15.4036 -15.9263 -2.39214 -11.9363 -1.62894 35.4472C-0.962423 49.5405 3.53158 64.7418 -11.4509 74.0883C-23.0196 73.9962 -35.943 74.8026 -52.4077 74.5381C-63.2523 65.603 -64.0219 52.2355 -64.8464 35.4309C-66.2111 -11.0411 -51.8503 -15.415 -33.6269 -15.6706Z"></path>
  <path fill="#453279" transform="matrix(1.67985 0 0 1.8 269.501 356.202)" d="M-33.6269 -15.6706C-15.4036 -15.9263 -2.39214 -11.9363 -1.62894 35.4472C-0.962423 49.5405 3.53158 64.7418 -11.4509 74.0883C-23.0196 73.9962 -35.943 74.8026 -52.4077 74.5381C-63.2523 65.603 -64.0219 52.2355 -64.8464 35.4309C-66.2111 -11.0411 -51.8503 -15.415 -33.6269 -15.6706Z"></path>
  <path fill="none" stroke="black" stroke-width="5" stroke-linejoin="round" transform="matrix(1.67985 0 0 1.8 191.63 362.835)" d="M27.1539 -13.1456C44.0651 -19.4871 78.0138 -7.83575 76.3556 35.4831C76.2577 52.757 66.3383 73.1618 49.2534 73.8007C34.1823 70.5073 23.7869 68.1841 9.52523 64.3523C-1.29504 52.925 17.9084 47.8069 18.606 32.7313C19.6694 -9.78086 10.2426 -6.80402 27.1539 -13.1456Z"></path>
  <path fill="none" stroke="black" stroke-width="5" stroke-linejoin="round" transform="matrix(1.79976 0.0276995 -0.0293645 1.69771 274.681 283.065)" d="M-11.3238 -80.2543C25.8014 -80.2543 54.9476 -94.6926 58.9092 -40.8672C62.8708 12.9582 37.0524 74.7499 0.0572909 75.3534C-14.1177 75.5847 -17.7665 75.6442 -48.2096 76.1409C-78.6526 76.6376 -84.25 60.12 -84.25 1.90735e-06C-86.6294 -86.0849 -88.6034 -78.4854 -12.7475 -80.2208"></path>
  <path fill="#503F7E" transform="matrix(1.67985 0 0 1.8 191.63 362.835)" d="M27.1539 -13.1456C44.0651 -19.4871 78.0138 -7.83575 76.3556 35.4831C76.2577 52.757 66.3383 73.1618 49.2534 73.8007C34.1823 70.5073 23.7869 68.1841 9.52523 64.3523C-1.29504 52.925 17.9084 47.8069 18.606 32.7313C19.6694 -9.78086 10.2426 -6.80402 27.1539 -13.1456Z"></path>
  <path fill="none" stroke="black" stroke-width="5" stroke-linejoin="round" transform="matrix(1.53139 0 0 1.39334 226.982 131.765)" d="M0 -40C20.9426 -40 35.0096 -26.8589 47.8597 -2.20017C49.1253 -3.81498 50.3123 -3.57652 51.1974 -3.11681C52.0824 -2.6571 52.5509 -1.60561 52.2206 -0.665335C53.8523 0.0632067 55.2854 1.47333 55.8775 2.67699C56.9197 4.79567 57.6743 10.5072 53.7931 11.8212C58.5977 31.9882 20.3682 22.0914 -1.32962e-05 22.0914C-20.2357 22.0914 -45.0732 28.3281 -41.8836 12.9784C-44.6787 11.8212 -48.2008 8.95145 -46.5316 4.29176C-45.7036 1.98007 -43.8185 0.567096 -42.3936 0.567005C-41.0392 0.566917 -42.9934 -2.19999 -40.2188 -3.8149C-39.0195 -4.5129 -37.7273 -4.43211 -36.6068 -4.12355C-28.0141 -23.731 -20.4124 -40 0 -40Z"></path>
  <path fill="#503F7E" transform="matrix(1.79976 0.0276995 -0.0293645 1.69771 274.681 283.065)" d="M-11.3238 -80.2543C25.8014 -80.2543 54.9476 -94.6926 58.9092 -40.8672C62.8708 12.9582 37.0524 74.7499 0.0572909 75.3534C-14.1177 75.5847 -17.7665 75.6442 -48.2096 76.1409C-78.6526 76.6376 -84.25 60.12 -84.25 1.90735e-06C-86.6442 -86.62 -88.6279 -78.3873 -11.3238 -80.2543Z"></path>
  <clipPath id="cl_150">
    <path d="M256.658 146.503C323.474 147.531 376.354 123.826 381.904 215.316C387.453 306.806 339.172 410.995 272.572 410.995C247.053 410.995 240.485 410.995 185.68 410.995C130.875 410.995 121.286 382.798 123.052 280.732C121.286 133.609 117.474 147.531 256.658 146.503Z"></path>
  </clipPath>
  <g clip-path="url(#cl_150)">
    <path fill="#655494" transform="matrix(1.8 0 0 1.8 311.807 265.144)" d="M-0.158648 -48.2655C25.513 -48.2655 46.324 -26.6563 46.324 0C46.324 26.6563 25.513 48.2655 -0.158648 48.2655C-25.8303 48.2655 -46.6413 26.6563 -46.6413 0C-46.6413 -26.6563 -25.8303 -48.2655 -0.158648 -48.2655Z"></path>
  </g>
  <path fill="none" stroke="black" stroke-width="2" stroke-linejoin="round" transform="matrix(3.88825 -0.763212 0.691401 3.5224 233.781 53.5171)" d="M-4.34758 -5.25471C-4.34758 -11.5047 3.66088 -11.5047 3.66088 -5.25472C3.66088 0.995284 3.66088 12.5 3.66088 12.5L-4.57314 12.5C-4.57314 12.5 -4.34758 0.995284 -4.34758 -5.25471Z"></path>
  <path fill="none" stroke="black" stroke-width="2" stroke-linejoin="round" transform="matrix(3.5224 -0.691401 0.691401 3.5224 199.573 58.9299)" d="M-5.1645 -6.50117C-5.1645 -12.7512 6 -12.7512 6 -6.50117C6 -0.251166 6 12.5 6 12.5L-6 12.5C-6 12.5 -5.1645 -0.251167 -5.1645 -6.50117Z"></path>
  <path fill="#453279" transform="matrix(3.88825 -0.763212 0.691401 3.5224 233.781 53.5171)" d="M-4.34758 -5.25471C-4.34758 -11.5047 3.66088 -11.5047 3.66088 -5.25472C3.66088 0.995284 3.66088 12.5 3.66088 12.5L-4.57314 12.5C-4.57314 12.5 -4.34758 0.995284 -4.34758 -5.25471Z"></path>
  <path fill="none" stroke="#161616" stroke-width="0.5" stroke-linecap="round" stroke-linejoin="round" transform="matrix(3.88825 -0.763212 0.691401 3.5224 228.988 33.9854)" d="M3.59179e-06 1.51652L2.87701e-06 10.5382"></path>
  <path fill="#503F7E" transform="matrix(3.5224 -0.691401 0.691401 3.5224 199.573 58.9299)" d="M-5.1645 -6.50117C-5.16451 -12.7512 6 -12.7512 6 -6.50117C6 -0.251166 6 12.5 6 12.5L-6 12.5C-6 12.5 -5.1645 -0.251167 -5.1645 -6.50117Z"></path>
  <path fill="none" stroke="#161616" stroke-width="0.5" stroke-linecap="round" stroke-linejoin="round" transform="matrix(3.5224 -0.691401 0.691401 3.5224 199.787 38.9114)" d="M1.85391e-08 2.6499e-08L3.83324e-06 10.5382"></path>
  <path fill="#503F7E" transform="matrix(1.53139 0 0 1.39334 226.982 131.765)" d="M0 -40C20.9426 -40 35.0096 -26.8589 47.8597 -2.20017C49.1253 -3.81498 50.3123 -3.57652 51.1974 -3.11681C52.0824 -2.6571 52.5509 -1.60561 52.2206 -0.665335C53.8523 0.0632067 55.2854 1.47333 55.8775 2.67699C56.9197 4.79567 57.6743 10.5072 53.7931 11.8212C58.5977 31.9882 20.3682 22.0914 -1.32962e-05 22.0914C-20.2357 22.0914 -45.0732 28.3281 -41.8836 12.9784C-44.6787 11.8212 -48.2008 8.95145 -46.5316 4.29176C-45.7036 1.98007 -43.8185 0.567096 -42.3936 0.567005C-41.0392 0.566917 -42.9934 -2.19999 -40.2188 -3.8149C-39.0195 -4.5129 -37.7273 -4.43211 -36.6068 -4.12355C-28.0141 -23.731 -20.4124 -40 0 -40Z"></path>
  <clipPath id="cl_151">
    <path d="M226.982 76.0316C259.053 76.0316 280.595 94.3416 300.273 128.7C302.211 126.45 304.029 126.782 305.384 127.423C306.74 128.063 307.457 129.528 306.951 130.838C309.45 131.853 311.645 133.818 312.552 135.495C314.148 138.447 315.303 146.405 309.359 148.236C316.717 176.336 258.173 162.546 226.981 162.546C195.993 162.546 157.957 171.236 162.842 149.849C158.561 148.236 153.168 144.238 155.724 137.745C156.992 134.524 159.879 132.555 162.061 132.555C164.135 132.555 161.142 128.7 165.391 126.45C167.228 125.477 169.206 125.59 170.922 126.02C184.081 98.6998 195.722 76.0316 226.982 76.0316Z"></path>
  </clipPath>
  <g clip-path="url(#cl_151)">
    <path fill="#7463A5" transform="matrix(1.8 2.98023e-08 0.00759348 1.8 225.149 120.018)" d="M1.90735e-06 -5.5C3.866 -5.5 7 -2.92564 7 0.25C7 3.42564 3.866 6 1.90735e-06 6C-3.86599 6 -7 3.42564 -7 0.25C-7 -2.92564 -3.86599 -5.5 1.90735e-06 -5.5Z"></path>
    <path fill="#7463A5" transform="matrix(1.83618 3.04014e-08 0.00759348 1.8 277.698 111.872)" d="M9.53674e-07 -4.99999C2.76142 -4.99999 5 -2.64949 5 0.250008C5 3.1495 2.76142 5.50001 9.53674e-07 5.50001C-2.76142 5.50001 -5 3.1495 -5 0.250008C-5 -2.64949 -2.76142 -4.99999 9.53674e-07 -4.99999Z"></path>
    <path fill="none" stroke="#131212" stroke-width="1" stroke-linecap="round" stroke-linejoin="round" transform="matrix(2.30699 -0.373724 0.274137 1.69224 255.929 105.176)" d="M4.88246e-07 7.21529e-06L2.92891 -0.71456"></path>
    <path fill="none" stroke="#131212" stroke-width="1" stroke-linecap="round" stroke-linejoin="round" transform="matrix(2.30699 -0.373724 0.274137 1.69224 234.179 104.346)" d="M7.15256e-07 -1.48459e-07L4.25731 1.79213"></path>
    <path fill="#131212" transform="matrix(2.47104 -0.400299 0.405754 2.50471 247.963 107.457)" d="M-2.27592e-08 -2.15485e-07L1.9614 0.352738L0.91509 1.42246L-2.27592e-08 -2.15485e-07Z"></path>
    <path fill="none" stroke="#131212" stroke-width="0.5" stroke-linecap="round" stroke-linejoin="round" transform="matrix(1.93759 -0.313883 0.31816 1.96399 251.023 110.992)" d="M1.18428e-07 -0.711217L-3.72341e-06 1.11021"></path>
    <path fill="#32225E" transform="matrix(1.74285 0.441491 -0.424043 1.74552 244.811 99.5911)" d="M-2.87169e-08 -1.92716C1.62851 -1.92716 2.94867 -1.06434 2.94867 -4.39386e-08C2.94867 1.06434 1.62851 1.92716 2.87169e-08 1.92716C-1.62851 1.92716 -2.94867 1.06434 -2.94867 4.39386e-08C-2.94867 -1.06434 -1.62851 -1.92716 -2.87169e-08 -1.92716Z"></path>
    <path fill="#32225E" transform="matrix(1.71213 0.433708 -0.412468 1.69787 256.004 98.7162)" d="M-3.8147e-06 -1.8992C0.889985 -1.8992 1.61146 -1.0489 1.61146 -7.65341e-06C1.61146 1.04889 0.889985 1.89918 -3.8147e-06 1.89918C-0.889993 1.89918 -1.61147 1.04889 -1.61147 -7.60538e-06C-1.61147 -1.0489 -0.889993 -1.8992 -3.8147e-06 -1.8992Z"></path>
  </g>
  <path fill="none" stroke="black" stroke-width="4" stroke-linejoin="round" transform="matrix(1.8 0 0 1.8 352.158 167.944)" d="M-11.7479 -12.9046C-11.318 -13.5165 -10.7601 -14.1187 -10.0572 -14.7065C-5.47351 -18.5399 3.93804 -16.1165 4.43081 -14.7065C7.46664 -16.1165 10.8961 -16.6614 15.0174 -13.9738C19.1387 -11.2862 16.2386 -4.86793 16.6118 -4.55444C16.985 -4.24095 25.2116 0.494546 17.5976 8.33766C16.6439 8.92036 15.7365 9.39703 14.8735 9.77867"></path>
  <path fill="#7463A5" transform="matrix(1.8 0 0 1.8 352.158 167.944)" d="M-0.116455 3.8147e-06C-2.60165 -0.663936 -7.05858 1.11792 -10.0572 -2.65576C-13.0559 -6.42944 -14.6409 -10.8732 -10.0572 -14.7065C-5.47351 -18.5399 3.93804 -16.1165 4.43081 -14.7065C7.46664 -16.1165 10.8961 -16.6614 15.0174 -13.9738C19.1387 -11.2862 16.2386 -4.86793 16.6118 -4.55444C16.985 -4.24095 25.2116 0.494546 17.5976 8.33766C2.9012 17.3171 -0.809986 1.11792 -0.116455 3.8147e-06Z"></path>
  <path fill="none" stroke="black" stroke-width="6" stroke-linejoin="round" transform="matrix(1.8 0 0 1.8 168.762 265.59)" d="M-26.4877 2.66051C-30.045 -36.9054 33.1999 -42.5917 36.7572 -3.02578C38.2724 13.8259 40.7999 41.9378 42.3701 59.402C42.9217 65.5381 35.4593 77.5702 12.3368 79.9207C-10.7857 82.2712 -20.2394 72.1561 -20.6694 67.3733C-22.2488 49.8068 -25.3695 15.0967 -26.4877 2.66051Z"></path>
  <path fill="none" stroke="black" stroke-width="6" stroke-linecap="round" stroke-linejoin="bevel" transform="matrix(1.8 0 0 1.67094 168.762 175.343)" d="M35.3116 34.8073C36.026 42.6729 36.641 49.4443 36.9586 52.9421C40.8415 95.6946 -22.3606 102.313 -26.2434 59.5608C-27.2181 48.8286 -29.0099 29.1006 -30.1384 16.6742C-31.267 4.24789 -26.6475 -14.1596 -10.6441 -15.8462C-8.94701 -16.0251 -7.38746 -16.1894 -5.947 -16.3412"></path>
  <path fill="#503F7E" transform="matrix(1.8 0 0 1.8 168.762 265.59)" d="M-26.4877 2.6605C-30.1927 -38.5487 33.0522 -44.235 36.7572 -3.02578C38.2724 13.8259 40.7999 41.9378 42.3701 59.402C42.9217 65.5381 35.4593 77.5702 12.3368 79.9207C-10.7857 82.2712 -20.2394 72.1561 -20.6694 67.3733C-22.2488 49.8068 -25.3695 15.0967 -26.4877 2.6605Z"></path>
  <path fill="#503F7E" transform="matrix(1.8 0 0 1.67094 168.762 175.343)" d="M-30.1384 16.6742C-31.267 4.24789 -26.6475 -14.1596 -10.6441 -15.8462C5.35931 -17.5328 9.13121 -17.9304 16.1619 -18.6713C23.1925 -19.4123 30.681 -16.1794 32.1003 -0.551956C33.5196 15.0755 36.1656 44.2097 36.9586 52.9421C40.374 90.5476 -22.8281 97.1662 -26.2434 59.5608C-27.2181 48.8286 -29.0099 29.1006 -30.1384 16.6742Z"></path>
</svg>