<?xml version="1.0" encoding="utf-8"?>
<svg xmlns="http://www.w3.org/2000/svg" xmlns:xlink="http://www.w3.org/1999/xlink" width="512" height="512">
  <path fill="none" stroke="black" stroke-width="6" stroke-linejoin="round" transform="matrix(1.8 0 0 1.52279 359.051 176.114)" d="M-12.3534 -16.6544C-8.76324 -16.5139 -6.13205 -16.4109 -2.74992 -16.2785C4.31044 -16.0022 11.3551 -11.7212 10.9154 3.97226C10.4758 19.6657 9.65623 48.923 9.41058 57.6923C8.2079 100.625 -55.2561 98.0991 -54.0535 55.1661C-53.7515 44.3887 -53.1966 24.5773 -52.847 12.0984C-52.4974 -0.380398 -45.7401 -17.9611 -29.6691 -17.3321C-28.4156 -17.2831 -27.2367 -17.2369 -26.1252 -17.1934"></path>
  <path fill="none" stroke="black" stroke-width="6" stroke-linejoin="round" transform="matrix(1.8 0 0 1.64041 359.051 258.36)" d="M-53.387 -6.58322C-44.8358 -48.2902 17.3671 -35.1655 8.81587 6.54153C5.42134 23.0978 -0.241356 50.7168 -3.75927 67.8748C-4.99529 73.9033 -15.6016 83.2169 -38.4212 78.6781C-61.2408 74.1394 -67.3859 61.694 -66.4225 56.995C-62.8839 39.7365 -55.8921 5.63494 -53.387 -6.58322Z"></path>
  <path fill="#503F7E" transform="matrix(1.8 0 0 1.52279 359.051 176.114)" d="M-52.847 12.0984C-52.4974 -0.380394 -45.7401 -17.9611 -29.6691 -17.3321C-13.5981 -16.7031 -9.8103 -16.5548 -2.74992 -16.2785C4.31044 -16.0021 11.3551 -11.7212 10.9154 3.97227C10.4758 19.6657 9.65623 48.923 9.41058 57.6923C8.2079 100.625 -55.2561 98.0992 -54.0535 55.1661C-53.7515 44.3887 -53.1966 24.5773 -52.847 12.0984Z"></path>
  <path fill="#503F7E" transform="matrix(1.8 0 0 1.64041 359.051 258.36)" d="M-53.387 -6.58322C-44.8358 -48.2902 17.3671 -35.1655 8.81587 6.54153C5.42134 23.0978 -0.241356 50.7168 -3.75927 67.8748C-4.99529 73.9033 -15.6016 83.2169 -38.4212 78.6781C-61.2408 74.1394 -67.3859 61.694 -66.4225 56.995C-62.8839 39.7365 -55.8921 5.63494 -53.387 -6.58322Z"></path>
  <path fill="none" stroke="black" stroke-width="5" stroke-linejoin="round" transform="matrix(1.67985 0 0 1.8 269.501 356.202)" d="M-33.6104 -14.7134C-16.4263 -20.3802 14.9091 -10.2126 14.1112 34.2158C14.2858 47.4425 7.02316 73.111 -10.6413 76.5269C-21.3193 72.3716 -33.615 68.5718 -48.7581 62.5343C-55.1902 50.4349 -44.8986 48.2142 -45.1348 32.4423C-44.9297 -11.1485 -50.7945 -9.0466 -33.6104 -14.7134Z"></path>
  <path fill="#453279" transform="matrix(1.67985 0 0 1.8 269.501 356.202)" d="M-33.6104 -14.7134C-16.4263 -20.3802 14.9091 -10.2126 14.1112 34.2158C14.2858 47.4425 7.02316 73.111 -10.6413 76.5269C-21.3193 72.3716 -33.615 68.5718 -48.7581 62.5343C-55.1902 50.4349 -44.8986 48.2142 -45.1348 32.4423C-44.9297 -11.1485 -50.7945 -9.0466 -33.6104 -14.7134Z"></path>
  <path fill="none" stroke="black" stroke-width="5" stroke-linejoin="round" transform="matrix(1.67985 0 0 1.8 191.63 362.835)" d="M29.9447 -14.3492C48.1666 -14.016 61.0223 -9.60808 60.0274 37.7717C60.2464 56.6557 62.8176 69.2109 47.2367 75.6311C31.7631 76.0026 21.076 76.209 6.23956 75.8687C-8.48721 69.086 -3.62959 52.204 -3.15158 35.7131C-2.79165 -10.7751 11.7228 -14.6824 29.9447 -14.3492Z"></path>
  <path fill="none" stroke="black" stroke-width="5" stroke-linejoin="round" transform="matrix(1.79976 0.0276995 -0.0293645 1.69771 274.681 286.172)" d="M-11.3238 -80.2543C25.8014 -80.2543 54.9476 -94.6926 58.9092 -40.8672C62.8708 12.9582 37.0524 74.7499 0.0572909 75.3534C-14.1177 75.5847 -17.7665 75.6442 -48.2096 76.1409C-78.6526 76.6376 -84.25 60.12 -84.25 1.90735e-06C-86.6294 -86.0849 -88.6034 -78.4854 -12.7475 -80.2208"></path>
  <path fill="#503F7E" transform="matrix(1.67985 0 0 1.8 191.63 362.835)" d="M29.9447 -14.3492C48.1666 -14.016 61.0223 -9.60808 60.0274 37.7717C60.2464 56.6557 62.8176 69.2109 47.2367 75.6311C31.7631 76.0026 21.076 76.209 6.23956 75.8687C-8.48721 69.086 -3.62959 52.204 -3.15158 35.7131C-2.79165 -10.7751 11.7228 -14.6824 29.9447 -14.3492Z"></path>
  <path fill="none" stroke="black" stroke-width="5" stroke-linejoin="round" transform="matrix(1.53139 0 0 1.39334 226.982 136.622)" d="M0 -40C20.9426 -40 35.0096 -26.8589 47.8597 -2.20018C49.1253 -3.81499 50.3123 -3.57653 51.1974 -3.11682C52.0824 -2.65711 52.5509 -1.60562 52.2206 -0.665342C53.8523 0.0631991 55.2854 1.47333 55.8775 2.67698C56.9197 4.79566 57.6743 10.5072 53.7931 11.8212C58.5977 31.9882 20.3682 22.0914 -1.32962e-05 22.0914C-20.2357 22.0914 -45.0732 28.3281 -41.8836 12.9784C-44.6787 11.8212 -48.2008 8.95144 -46.5316 4.29175C-45.7036 1.98006 -43.8185 0.567089 -42.3936 0.566997C-41.0392 0.56691 -42.9934 -2.2 -40.2188 -3.81491C-39.0195 -4.51291 -37.7273 -4.43211 -36.6068 -4.12355C-28.0141 -23.7311 -20.4124 -40 0 -40Z"></path>
  <path fill="#503F7E" transform="matrix(1.79976 0.0276995 -0.0293645 1.69771 274.681 286.172)" d="M-11.3238 -80.2543C25.8014 -80.2543 54.9476 -94.6926 58.9092 -40.8672C62.8708 12.9582 37.0524 74.7499 0.0572909 75.3534C-14.1177 75.5847 -17.7665 75.6442 -48.2096 76.1409C-78.6526 76.6376 -84.25 60.12 -84.25 1.90735e-06C-86.6442 -86.62 -88.6279 -78.3873 -11.3238 -80.2543Z"></path>
  <clipPath id="cl_309">
    <path d="M256.658 149.61C323.474 150.638 376.354 126.934 381.904 218.423C387.453 309.913 339.172 414.102 272.572 414.102C247.053 414.102 240.485 414.102 185.68 414.102C130.875 414.102 121.286 385.905 123.052 283.839C121.286 136.717 117.474 150.638 256.658 149.61Z"></path>
  </clipPath>
  <g clip-path="url(#cl_309)">
    <path fill="#655494" transform="matrix(1.8 0 0 1.8 311.807 268.251)" d="M-0.158648 -48.2655C25.513 -48.2655 46.324 -26.6563 46.324 -4.76837e-07C46.324 26.6563 25.513 48.2655 -0.158648 48.2655C-25.8303 48.2655 -46.6413 26.6563 -46.6413 -4.76837e-07C-46.6413 -26.6563 -25.8303 -48.2655 -0.158648 -48.2655Z"></path>
  </g>
  <path fill="none" stroke="black" stroke-width="2" stroke-linejoin="round" transform="matrix(3.88825 -0.763212 0.691401 3.5224 233.781 58.3738)" d="M-4.34759 -5.25472C-4.34759 -11.5047 3.66088 -11.5047 3.66088 -5.25472C3.66088 0.99528 3.66088 12.5 3.66088 12.5L-4.57314 12.5C-4.57314 12.5 -4.34758 0.99528 -4.34759 -5.25472Z"></path>
  <path fill="none" stroke="black" stroke-width="2" stroke-linejoin="round" transform="matrix(3.5224 -0.691401 0.691401 3.5224 199.573 63.7866)" d="M-5.1645 -6.50117C-5.16451 -12.7512 6 -12.7512 6 -6.50117C6 -0.251166 6 12.5 6 12.5L-6 12.5C-6 12.5 -5.1645 -0.251167 -5.1645 -6.50117Z"></path>
  <path fill="#453279" transform="matrix(3.88825 -0.763212 0.691401 3.5224 233.781 58.3738)" d="M-4.34759 -5.25472C-4.34759 -11.5047 3.66088 -11.5047 3.66088 -5.25472C3.66088 0.99528 3.66088 12.5 3.66088 12.5L-4.57314 12.5C-4.57314 12.5 -4.34758 0.99528 -4.34759 -5.25472Z"></path>
  <path fill="none" stroke="#161616" stroke-width="0.5" stroke-linecap="round" stroke-linejoin="round" transform="matrix(3.88825 -0.763212 0.691401 3.5224 228.988 38.8421)" d="M3.83021e-06 1.51652L3.11543e-06 10.5382"></path>
  <path fill="#503F7E" transform="matrix(3.5224 -0.691401 0.691401 3.5224 199.573 63.7866)" d="M-5.1645 -6.50116C-5.1645 -12.7512 6 -12.7512 6 -6.50116C6 -0.251162 6 12.5 6 12.5L-6 12.5C-6 12.5 -5.1645 -0.251163 -5.1645 -6.50116Z"></path>
  <path fill="none" stroke="#161616" stroke-width="0.5" stroke-linecap="round" stroke-linejoin="round" transform="matrix(3.5224 -0.691401 0.691401 3.5224 199.787 43.7681)" d="M1.85391e-08 3.8412e-06L3.83324e-06 10.5382"></path>
  <path fill="#503F7E" transform="matrix(1.53139 0 0 1.39334 226.982 136.622)" d="M0 -40C20.9426 -40 35.0096 -26.8589 47.8597 -2.20018C49.1253 -3.81499 50.3123 -3.57653 51.1974 -3.11682C52.0824 -2.65711 52.5509 -1.60562 52.2206 -0.665342C53.8523 0.0631991 55.2854 1.47333 55.8775 2.67698C56.9197 4.79566 57.6743 10.5072 53.7931 11.8212C58.5977 31.9882 20.3682 22.0914 -1.32962e-05 22.0914C-20.2357 22.0914 -45.0732 28.3281 -41.8836 12.9784C-44.6787 11.8212 -48.2008 8.95144 -46.5316 4.29175C-45.7036 1.98006 -43.8185 0.567089 -42.3936 0.566997C-41.0392 0.56691 -42.9934 -2.2 -40.2188 -3.81491C-39.0195 -4.51291 -37.7273 -4.43211 -36.6068 -4.12355C-28.0141 -23.7311 -20.4124 -40 0 -40Z"></path>
  <clipPath id="cl_30a">
    <path d="M226.982 80.8882C259.053 80.8882 280.595 99.1983 300.273 133.556C302.211 131.306 304.029 131.639 305.384 132.279C306.74 132.92 307.457 134.385 306.951 135.695C309.45 136.71 311.645 138.675 312.552 140.352C314.148 143.304 315.303 151.262 309.359 153.093C316.717 181.193 258.173 167.403 226.981 167.403C195.993 167.403 157.957 176.093 162.842 154.705C158.561 153.093 153.168 149.094 155.724 142.602C156.992 139.381 159.879 137.412 162.061 137.412C164.135 137.412 161.142 133.557 165.391 131.306C167.228 130.334 169.206 130.447 170.922 130.876C184.081 103.556 195.722 80.8882 226.982 80.8882Z"></path>
  </clipPath>
  <g clip-path="url(#cl_30a)">
    <path fill="#7463A5" transform="matrix(1.8 2.98023e-08 0.00759348 1.8 223.117 127.029)" d="M1.90735e-06 -5.5C3.866 -5.5 7 -2.92564 7 0.25C7 3.42564 3.866 6 1.90735e-06 6C-3.86599 6 -7 3.42564 -7 0.25C-7 -2.92564 -3.86599 -5.5 1.90735e-06 -5.5Z"></path>
    <path fill="#7463A5" transform="matrix(1.83618 3.04014e-08 0.00759348 1.8 275.665 118.883)" d="M0 -5C2.76142 -5 5 -2.6495 5 0.25C5 3.1495 2.76142 5.5 0 5.5C-2.76142 5.5 -5 3.1495 -5 0.25C-5 -2.6495 -2.76142 -5 0 -5Z"></path>
    <path fill="none" stroke="#131212" stroke-width="1" stroke-linecap="round" stroke-linejoin="round" transform="matrix(2.30699 -0.373724 0.274137 1.69224 253.897 112.187)" d="M1.44192e-06 -4.14104e-07L2.92891 -0.714567"></path>
    <path fill="none" stroke="#131212" stroke-width="1" stroke-linecap="round" stroke-linejoin="round" transform="matrix(2.30699 -0.373724 0.274137 1.69224 232.146 111.358)" d="M5.96046e-07 -7.77785e-06L4.25731 1.79212"></path>
    <path fill="#131212" transform="matrix(2.47104 -0.400299 0.405754 2.50471 245.931 114.468)" d="M-2.27592e-08 -2.15485e-07L1.9614 0.352738L0.91509 1.42246L-2.27592e-08 -2.15485e-07Z"></path>
    <path fill="none" stroke="#131212" stroke-width="0.5" stroke-linecap="round" stroke-linejoin="round" transform="matrix(1.93759 -0.313883 0.31816 1.96399 248.991 118.003)" d="M1.18428e-07 -0.711232L-3.72341e-06 1.11019"></path>
    <path fill="#32225E" transform="matrix(1.74285 0.441491 -0.424043 1.74552 242.779 106.602)" d="M1.87863e-06 -1.92716C1.62851 -1.92716 2.94867 -1.06434 2.94867 -4.39386e-08C2.94867 1.06434 1.62851 1.92716 1.93607e-06 1.92716C-1.6285 1.92716 -2.94867 1.06434 -2.94867 4.39386e-08C-2.94867 -1.06434 -1.6285 -1.92716 1.87863e-06 -1.92716Z"></path>
    <path fill="#32225E" transform="matrix(1.71213 0.433708 -0.412468 1.69787 253.972 105.728)" d="M-5.72205e-06 -1.89918C0.889983 -1.89918 1.61146 -1.04889 1.61146 7.60538e-06C1.61146 1.0489 0.889983 1.8992 -5.72205e-06 1.8992C-0.889995 1.8992 -1.61147 1.0489 -1.61147 7.65341e-06C-1.61147 -1.04889 -0.889995 -1.89918 -5.72205e-06 -1.89918Z"></path>
  </g>
  <path fill="none" stroke="black" stroke-width="4" stroke-linejoin="round" transform="matrix(1.8 0 0 1.8 352.158 171.051)" d="M-11.7479 -12.9046C-11.318 -13.5165 -10.7601 -14.1187 -10.0572 -14.7065C-5.47351 -18.5399 3.93804 -16.1165 4.43081 -14.7065C7.46664 -16.1165 10.8961 -16.6614 15.0174 -13.9738C19.1387 -11.2862 16.2386 -4.86793 16.6118 -4.55444C16.985 -4.24095 25.2116 0.494543 17.5976 8.33766C16.6439 8.92035 15.7365 9.39702 14.8735 9.77867"></path>
  <path fill="#7463A5" transform="matrix(1.8 0 0 1.8 352.158 171.051)" d="M-0.116455 0C-2.60165 -0.66394 -7.05858 1.11792 -10.0572 -2.65576C-13.0559 -6.42944 -14.6409 -10.8732 -10.0572 -14.7065C-5.47351 -18.5399 3.93804 -16.1165 4.43081 -14.7065C7.46664 -16.1165 10.8961 -16.6614 15.0174 -13.9738C19.1387 -11.2862 16.2386 -4.86793 16.6118 -4.55444C16.985 -4.24095 25.2116 0.494543 17.5976 8.33766C2.9012 17.3171 -0.809986 1.11792 -0.116455 0Z"></path>
  <path fill="none" stroke="black" stroke-width="6" stroke-linejoin="round" transform="matrix(1.8 0 0 1.8 170.034 268.697)" d="M-27.6154 2.0742C-30.322 -37.559 33.0305 -41.8854 35.7371 -2.2522C36.8898 14.6282 38.8129 42.7878 40.0076 60.2817C40.4273 66.4282 32.7081 78.2973 9.54047 80.1506C-13.6272 82.0039 -22.8614 71.688 -23.1886 66.8971C-24.3902 49.3006 -26.7647 14.5315 -27.6154 2.0742Z"></path>
  <path fill="none" stroke="black" stroke-width="6" stroke-linecap="round" stroke-linejoin="bevel" transform="matrix(1.8 0 0 1.67094 170.034 178.45)" d="M34.6106 35.624C35.1676 43.4986 35.647 50.2771 35.8947 53.7796C38.9241 96.612 -24.3954 101.767 -27.4247 58.9342C-28.1852 48.182 -29.5831 28.417 -30.4636 15.9674C-31.3442 3.51784 -26.3587 -14.7785 -10.3253 -16.0944C-8.60975 -16.2352 -7.03449 -16.3645 -5.58051 -16.4838"></path>
  <path fill="#503F7E" transform="matrix(1.8 0 0 1.8 170.034 268.697)" d="M-27.6154 2.0742C-30.4344 -39.2051 32.9181 -43.5315 35.7371 -2.2522C36.8898 14.6282 38.8129 42.7878 40.0076 60.2817C40.4273 66.4282 32.7081 78.2973 9.54047 80.1506C-13.6272 82.0039 -22.8614 71.688 -23.1886 66.8971C-24.3902 49.3006 -26.7647 14.5315 -27.6154 2.0742Z"></path>
  <path fill="#503F7E" transform="matrix(1.8 0 0 1.67094 170.034 178.45)" d="M-30.4636 15.9674C-31.3442 3.51785 -26.3587 -14.7785 -10.3253 -16.0944C5.70803 -17.4103 9.487 -17.7205 16.5308 -18.2986C23.5746 -18.8767 30.9969 -15.4712 32.1042 0.185452C33.2115 15.8421 35.276 45.0309 35.8947 53.7796C38.5594 91.4555 -24.7601 96.61 -27.4247 58.9342C-28.1852 48.182 -29.5831 28.417 -30.4636 15.9674Z"></path>
</svg>