<?xml version="1.0" encoding="utf-8"?>
<svg xmlns="http://www.w3.org/2000/svg" xmlns:xlink="http://www.w3.org/1999/xlink" width="512" height="512">
  <path fill="none" stroke="black" stroke-width="6" stroke-linejoin="round" transform="matrix(1.8 0 0 1.52279 359.051 176.837)" d="M-13.445 -17.216C-9.73669 -17.3358 -7.06581 -17.4221 -3.61191 -17.5336C3.44969 -17.7617 10.7001 -13.9914 11.063 1.70478C11.4259 17.401 12.1024 46.6634 12.3052 55.4342C13.2979 98.3748 -50.1794 100.383 -51.1721 57.4425C-51.4213 46.6631 -51.8794 26.8482 -52.1679 14.3672C-52.4565 1.88622 -46.6096 -16.1447 -30.5358 -16.664C-29.375 -16.7015 -28.2782 -16.7369 -27.2397 -16.7704"></path>
  <path fill="none" stroke="black" stroke-width="6" stroke-linejoin="round" transform="matrix(1.8 0 0 1.64041 359.051 259.083)" d="M-51.0447 -3.58583C-46.0356 -45.9411 17.0203 -38.7978 12.0113 3.55748C10.0228 20.3711 6.70578 48.4193 4.64508 65.844C3.92106 71.9662 -5.85916 82.2535 -28.9685 79.908C-52.0778 77.5624 -59.2448 65.7525 -58.6805 60.9806C-56.6077 43.4538 -52.5121 8.82223 -51.0447 -3.58583Z"></path>
  <path fill="#503F7E" transform="matrix(1.8 0 0 1.52279 359.051 176.837)" d="M-52.1679 14.3672C-52.4565 1.88622 -46.6096 -16.1448 -30.5358 -16.664C-14.462 -17.1832 -10.6735 -17.3055 -3.61191 -17.5336C3.44969 -17.7617 10.7001 -13.9914 11.063 1.70478C11.4259 17.401 12.1024 46.6634 12.3052 55.4342C13.2979 98.3747 -50.1794 100.383 -51.1721 57.4424C-51.4213 46.6631 -51.8794 26.8482 -52.1679 14.3672Z"></path>
  <path fill="#503F7E" transform="matrix(1.8 0 0 1.64041 359.051 259.083)" d="M-51.0447 -3.58583C-46.0356 -45.9411 17.0203 -38.7978 12.0113 3.55748C10.0228 20.3711 6.70578 48.4193 4.64508 65.844C3.92106 71.9662 -5.85916 82.2535 -28.9685 79.908C-52.0778 77.5624 -59.2448 65.7525 -58.6805 60.9806C-56.6077 43.4538 -52.5121 8.82223 -51.0447 -3.58583Z"></path>
  <path fill="none" stroke="black" stroke-width="5" stroke-linejoin="round" transform="matrix(1.67985 0 0 1.8 269.501 356.202)" d="M-15.251 -15.6714C2.97267 -15.9055 15.9787 -11.9002 16.6777 35.4841C17.3251 49.5783 21.7919 64.7758 6.80845 74.0896C-4.76022 73.9974 -17.6836 74.8038 -34.1483 74.5393C-44.9925 65.6132 -45.7379 52.1987 -46.5397 35.3932C-47.8414 -11.0803 -33.4747 -15.4373 -15.251 -15.6714Z"></path>
  <path fill="#453279" transform="matrix(1.67985 0 0 1.8 269.501 356.202)" d="M-15.251 -15.6714C2.97267 -15.9055 15.9787 -11.9002 16.6777 35.4841C17.3251 49.5783 21.7919 64.7758 6.80845 74.0896C-4.76022 73.9974 -17.6836 74.8038 -34.1483 74.5393C-44.9925 65.6132 -45.7379 52.1987 -46.5397 35.3932C-47.8414 -11.0803 -33.4747 -15.4373 -15.251 -15.6714Z"></path>
  <path fill="none" stroke="black" stroke-width="5" stroke-linejoin="round" transform="matrix(1.67985 0 0 1.8 191.63 362.835)" d="M7.18972 -12.4222C23.2429 -20.4752 61.9323 -7.34334 60.442 33.6431C60.3806 49.9861 47.0007 73.7887 29.9612 72.5258C15.5716 67.203 5.65432 63.4806 -7.85004 57.7363C-17.193 45.1941 5.16749 45.3948 5.80021 31.1307C6.72933 -9.09161 -8.86351 -4.36924 7.18972 -12.4222Z"></path>
  <path fill="none" stroke="black" stroke-width="5" stroke-linejoin="round" transform="matrix(1.79976 0.0276995 -0.0293645 1.69771 274.681 286.895)" d="M-11.3238 -80.2543C25.8014 -80.2543 54.9476 -94.6926 58.9092 -40.8672C62.8708 12.9582 37.0524 74.7499 0.0572909 75.3534C-14.1177 75.5847 -17.7665 75.6442 -48.2096 76.1409C-78.6526 76.6376 -84.25 60.12 -84.25 1.90735e-06C-86.6294 -86.0849 -88.6034 -78.4854 -12.7475 -80.2208"></path>
  <path fill="#503F7E" transform="matrix(1.67985 0 0 1.8 191.63 362.835)" d="M7.18972 -12.4222C23.2429 -20.4752 61.9323 -7.34334 60.442 33.6431C60.3806 49.9861 47.0007 73.7887 29.9612 72.5258C15.5716 67.203 5.65432 63.4806 -7.85004 57.7363C-17.193 45.1941 5.16749 45.3948 5.80021 31.1307C6.72933 -9.09161 -8.86351 -4.36924 7.18972 -12.4222Z"></path>
  <path fill="none" stroke="black" stroke-width="5" stroke-linejoin="round" transform="matrix(1.53139 0 0 1.39334 226.982 137.693)" d="M0 -40C20.9426 -40 35.0096 -26.8589 47.8597 -2.20018C49.1253 -3.81499 50.3123 -3.57653 51.1974 -3.11682C52.0824 -2.65711 52.5509 -1.60562 52.2206 -0.665342C53.8523 0.0631991 55.2854 1.47333 55.8775 2.67698C56.9197 4.79566 57.6743 10.5072 53.7931 11.8212C58.5977 31.9882 20.3682 22.0914 -1.32962e-05 22.0914C-20.2357 22.0914 -45.0732 28.3281 -41.8836 12.9784C-44.6787 11.8212 -48.2008 8.95144 -46.5316 4.29175C-45.7036 1.98006 -43.8185 0.567089 -42.3936 0.566997C-41.0392 0.56691 -42.9934 -2.2 -40.2188 -3.81491C-39.0195 -4.51291 -37.7273 -4.43211 -36.6068 -4.12355C-28.0141 -23.7311 -20.4124 -40 0 -40Z"></path>
  <path fill="#503F7E" transform="matrix(1.79976 0.0276995 -0.0293645 1.69771 274.681 286.895)" d="M-11.3238 -80.2543C25.8014 -80.2543 54.9476 -94.6926 58.9092 -40.8672C62.8708 12.9582 37.0524 74.7499 0.0572909 75.3534C-14.1177 75.5847 -17.7665 75.6442 -48.2096 76.1409C-78.6526 76.6376 -84.25 60.12 -84.25 1.90735e-06C-86.6442 -86.62 -88.6279 -78.3873 -11.3238 -80.2543Z"></path>
  <clipPath id="cl_12e">
    <path d="M256.658 150.333C323.474 151.361 376.354 127.656 381.904 219.146C387.453 310.636 339.172 414.825 272.572 414.825C247.053 414.825 240.485 414.825 185.68 414.825C130.875 414.825 121.286 386.628 123.052 284.561C121.286 137.439 117.474 151.361 256.658 150.333Z"></path>
  </clipPath>
  <g clip-path="url(#cl_12e)">
    <path fill="#655494" transform="matrix(1.8 0 0 1.8 311.807 268.974)" d="M-0.158648 -48.2655C25.513 -48.2655 46.324 -26.6563 46.324 0C46.324 26.6563 25.513 48.2655 -0.158648 48.2655C-25.8303 48.2655 -46.6413 26.6563 -46.6413 0C-46.6413 -26.6563 -25.8303 -48.2655 -0.158648 -48.2655Z"></path>
  </g>
  <path fill="none" stroke="black" stroke-width="2" stroke-linejoin="round" transform="matrix(3.88825 -0.763212 0.691401 3.5224 233.781 59.4447)" d="M-4.34758 -5.25471C-4.34759 -11.5047 3.66088 -11.5047 3.66088 -5.25472C3.66088 0.995284 3.66088 12.5 3.66088 12.5L-4.57314 12.5C-4.57314 12.5 -4.34758 0.995284 -4.34758 -5.25471Z"></path>
  <path fill="none" stroke="black" stroke-width="2" stroke-linejoin="round" transform="matrix(3.5224 -0.691401 0.691401 3.5224 199.573 64.8576)" d="M-5.1645 -6.50116C-5.1645 -12.7512 6 -12.7512 6 -6.50116C6 -0.251162 6 12.5 6 12.5L-6 12.5C-6 12.5 -5.1645 -0.251163 -5.1645 -6.50116Z"></path>
  <path fill="#453279" transform="matrix(3.88825 -0.763212 0.691401 3.5224 233.781 59.4447)" d="M-4.34758 -5.25471C-4.34759 -11.5047 3.66088 -11.5047 3.66088 -5.25472C3.66088 0.995284 3.66088 12.5 3.66088 12.5L-4.57314 12.5C-4.57314 12.5 -4.34758 0.995284 -4.34758 -5.25471Z"></path>
  <path fill="none" stroke="#161616" stroke-width="0.5" stroke-linecap="round" stroke-linejoin="round" transform="matrix(3.88825 -0.763212 0.691401 3.5224 228.988 39.9131)" d="M3.59179e-06 1.51652L2.87701e-06 10.5382"></path>
  <path fill="#503F7E" transform="matrix(3.5224 -0.691401 0.691401 3.5224 199.573 64.8576)" d="M-5.1645 -6.50116C-5.1645 -12.7512 6 -12.7512 6 -6.50116C6 -0.251162 6 12.5 6 12.5L-6 12.5C-6 12.5 -5.1645 -0.251163 -5.1645 -6.50116Z"></path>
  <path fill="none" stroke="#161616" stroke-width="0.5" stroke-linecap="round" stroke-linejoin="round" transform="matrix(3.5224 -0.691401 0.691401 3.5224 199.787 44.8391)" d="M-4.58298e-07 3.8412e-06L3.3564e-06 10.5382"></path>
  <path fill="#503F7E" transform="matrix(1.53139 0 0 1.39334 226.982 137.693)" d="M0 -40C20.9426 -40 35.0096 -26.8589 47.8597 -2.20018C49.1253 -3.81499 50.3123 -3.57653 51.1974 -3.11682C52.0824 -2.65711 52.5509 -1.60562 52.2206 -0.665342C53.8523 0.0631991 55.2854 1.47333 55.8775 2.67698C56.9197 4.79566 57.6743 10.5072 53.7931 11.8212C58.5977 31.9882 20.3682 22.0914 -1.32962e-05 22.0914C-20.2357 22.0914 -45.0732 28.3281 -41.8836 12.9784C-44.6787 11.8212 -48.2008 8.95144 -46.5316 4.29175C-45.7036 1.98006 -43.8185 0.567089 -42.3936 0.566997C-41.0392 0.56691 -42.9934 -2.2 -40.2188 -3.81491C-39.0195 -4.51291 -37.7273 -4.43211 -36.6068 -4.12355C-28.0141 -23.7311 -20.4124 -40 0 -40Z"></path>
  <clipPath id="cl_12f">
    <path d="M226.982 81.9592C259.053 81.9592 280.595 100.269 300.273 134.627C302.211 132.377 304.029 132.71 305.384 133.35C306.74 133.991 307.457 135.456 306.951 136.766C309.45 137.781 311.645 139.746 312.552 141.423C314.148 144.375 315.303 152.333 309.359 154.164C316.717 182.264 258.173 168.474 226.981 168.474C195.993 168.474 157.957 177.164 162.842 155.776C158.561 154.164 153.168 150.165 155.724 143.673C156.992 140.452 159.879 138.483 162.061 138.483C164.135 138.483 161.142 134.628 165.391 132.377C167.228 131.405 169.206 131.517 170.922 131.947C184.081 104.627 195.722 81.9592 226.982 81.9592Z"></path>
  </clipPath>
  <g clip-path="url(#cl_12f)">
    <path fill="#7463A5" transform="matrix(1.8 2.98023e-08 0.00759348 1.8 226.24 128.53)" d="M-1.90735e-06 -5.5C3.86599 -5.5 7 -2.92564 7 0.25C7 3.42564 3.86599 6 -1.90735e-06 6C-3.866 6 -7 3.42564 -7 0.25C-7 -2.92564 -3.866 -5.5 -1.90735e-06 -5.5Z"></path>
    <path fill="#7463A5" transform="matrix(1.83618 3.04014e-08 0.00759348 1.8 278.789 120.383)" d="M9.53674e-07 -5.00001C2.76142 -5.00001 5 -2.6495 5 0.249992C5 3.14949 2.76142 5.49999 9.53674e-07 5.49999C-2.76142 5.49999 -5 3.14949 -5 0.249992C-5 -2.6495 -2.76142 -5.00001 9.53674e-07 -5.00001Z"></path>
    <path fill="none" stroke="#131212" stroke-width="1" stroke-linecap="round" stroke-linejoin="round" transform="matrix(2.30699 -0.373724 0.274137 1.69224 257.02 113.688)" d="M1.44192e-06 -4.14104e-07L2.92891 -0.714567"></path>
    <path fill="none" stroke="#131212" stroke-width="1" stroke-linecap="round" stroke-linejoin="round" transform="matrix(2.30699 -0.373724 0.274137 1.69224 235.27 112.858)" d="M0 7.48094e-06L4.25731 1.79213"></path>
    <path fill="#131212" transform="matrix(2.47104 -0.400299 0.405754 2.50471 249.054 115.968)" d="M-4.99596e-07 -4.03018e-06L1.9614 0.352734L0.915089 1.42246L-4.99596e-07 -4.03018e-06Z"></path>
    <path fill="none" stroke="#131212" stroke-width="0.5" stroke-linecap="round" stroke-linejoin="round" transform="matrix(1.93759 -0.313883 0.31816 1.96399 252.114 119.504)" d="M1.18428e-07 -0.711232L-3.72341e-06 1.11019"></path>
    <path fill="#32225E" transform="matrix(1.74285 0.441491 -0.424043 1.74552 245.902 108.102)" d="M-1.93607e-06 -1.92715C1.6285 -1.92715 2.94867 -1.06433 2.94867 7.58546e-06C2.94867 1.06435 1.6285 1.92716 -1.87863e-06 1.92716C-1.62851 1.92716 -2.94867 1.06435 -2.94867 7.67333e-06C-2.94867 -1.06433 -1.62851 -1.92715 -1.93607e-06 -1.92715Z"></path>
    <path fill="#32225E" transform="matrix(1.71213 0.433708 -0.412468 1.69787 257.095 107.228)" d="M-3.8147e-06 -1.89918C0.889985 -1.89918 1.61146 -1.04889 1.61146 7.60538e-06C1.61146 1.0489 0.889985 1.8992 -3.8147e-06 1.8992C-0.889993 1.8992 -1.61147 1.0489 -1.61147 7.65341e-06C-1.61147 -1.04889 -0.889993 -1.89918 -3.8147e-06 -1.89918Z"></path>
  </g>
  <path fill="none" stroke="black" stroke-width="6" stroke-linejoin="round" transform="matrix(1.8 0 0 1.8 170.253 269.42)" d="M-9.53218 30.07C-47.4167 18.1167 -28.3098 -42.4405 9.57473 -30.4873C25.7103 -25.3962 51.9795 -18.8301 68.8839 -14.1712C74.8233 -12.5343 83.4711 -1.32375 77.557 21.1529C71.643 43.6295 58.8534 48.9319 54.224 47.656C37.2205 42.9697 2.37553 33.827 -9.53218 30.07Z"></path>
  <path fill="none" stroke="black" stroke-width="6" stroke-linecap="round" stroke-linejoin="bevel" transform="matrix(1.8 0 0 1.67094 170.253 179.172)" d="M31.7881 38.5774C31.7447 46.4572 31.7074 53.2377 31.6881 56.7442C31.4515 99.7 -32.0472 99.2519 -31.8106 56.2961C-31.7512 45.5129 -31.642 25.691 -31.5732 13.2056C-31.5045 0.720139 -25.145 -17.075 -9.06543 -16.9722C-7.28781 -16.9608 -5.66038 -16.9504 -4.16213 -16.9408"></path>
  <path fill="#503F7E" transform="matrix(1.8 0 0 1.67094 170.253 179.172)" d="M-31.5732 13.2056C-31.5045 0.720146 -25.145 -17.075 -9.06543 -16.9722C7.0141 -16.8694 10.8039 -16.8452 17.8681 -16.8C24.9322 -16.7549 32.0706 -12.7062 31.9841 2.99564C31.8976 18.6974 31.7364 47.9702 31.6881 56.7442C31.4799 94.5286 -32.0187 94.0805 -31.8106 56.2961C-31.7512 45.513 -31.642 25.691 -31.5732 13.2056Z"></path>
  <path fill="none" stroke="black" stroke-width="4" stroke-linejoin="round" transform="matrix(1.8 0 0 1.8 352.158 171.774)" d="M-11.7479 -12.9046C-11.318 -13.5165 -10.7601 -14.1187 -10.0572 -14.7065C-5.47351 -18.5399 3.93804 -16.1165 4.43081 -14.7065C7.46664 -16.1165 10.8961 -16.6614 15.0174 -13.9738C19.1387 -11.2862 16.2386 -4.86793 16.6118 -4.55444C16.985 -4.24095 25.2116 0.494543 17.5976 8.33766C16.6439 8.92035 15.7365 9.39702 14.8735 9.77867"></path>
  <path fill="#7463A5" transform="matrix(1.8 0 0 1.8 352.158 171.774)" d="M-0.116455 0C-2.60165 -0.66394 -7.05858 1.11792 -10.0572 -2.65576C-13.0559 -6.42944 -14.6409 -10.8732 -10.0572 -14.7065C-5.47351 -18.5399 3.93804 -16.1165 4.43081 -14.7065C7.46664 -16.1165 10.8961 -16.6614 15.0174 -13.9738C19.1387 -11.2862 16.2386 -4.86793 16.6118 -4.55444C16.985 -4.24095 25.2116 0.494543 17.5976 8.33766C2.9012 17.3171 -0.809986 1.11792 -0.116455 0Z"></path>
  <path fill="#503F7E" transform="matrix(1.8 0 0 1.8 170.253 269.42)" d="M-9.53218 30.07C-48.9901 17.6202 -29.8832 -42.937 9.57473 -30.4873C25.7103 -25.3962 51.9795 -18.8301 68.8839 -14.1712C74.8233 -12.5343 83.4711 -1.32376 77.557 21.1529C71.643 43.6295 58.8534 48.9319 54.224 47.656C37.2205 42.9697 2.37553 33.827 -9.53218 30.07Z"></path>
  <path fill="#312F2F" transform="matrix(0.516763 0.142421 -0.169818 0.616168 275.128 288.859)" d="M0 -128C70.6925 -128 128 -70.6925 128 0C128 70.6925 70.6925 128 0 128C-70.6925 128 -128 70.6925 -128 0C-128 -70.6925 -70.6925 -128 0 -128Z"></path>
  <path fill="none" stroke="black" stroke-width="7" stroke-miterlimit="4" transform="translate(256 256)" d="M52.5715 -42.7837C89.1027 -32.7156 108.985 10.7573 96.9805 54.3157C84.9756 97.8741 45.6294 125.023 9.09817 114.955C-27.433 104.887 -47.3156 61.4142 -35.3108 17.8558C-23.3059 -25.7026 16.0403 -52.8518 52.5715 -42.7837Z"></path>
  <path fill="none" stroke="black" stroke-width="7" stroke-linejoin="round" transform="translate(256 256)" d="M52.5715 -42.7837C52.5715 -42.7837 43.2051 -45.3651 41.3164 -45.8857C11.4643 -53.2487 -30.7625 -44.352 -47.0179 14.6293C-63.2734 73.6106 -25.347 105.462 -2.60902 111.729C-0.720325 112.249 9.09816 114.955 9.09817 114.955C8.5823 114.813 8.03509 114.639 7.45971 114.434"></path>
  <path fill="#8D5A3E" transform="matrix(0.516763 0.142421 -0.169818 0.616168 286.835 292.086)" d="M0 -128C70.6925 -128 128 -70.6924 128 3.8147e-06C128 70.6925 70.6925 128 0 128C-70.6925 128 -128 70.6925 -128 3.8147e-06C-128 -70.6924 -70.6925 -128 0 -128Z"></path>
  <path fill="#4B2713" transform="matrix(0.516763 0.142421 -0.169818 0.616168 290.364 292.395)" d="M0.250008 -87.5C51.4744 -87.5 93 -48.4368 93 -0.249996C93 47.9369 51.4744 87 0.250008 87C-50.9744 87 -92.5 47.9369 -92.5 -0.249996C-92.5 -48.4368 -50.9744 -87.5 0.250008 -87.5Z"></path>
  <path fill="#693920" transform="matrix(0.516763 0.142421 -0.169818 0.616168 286.835 292.086)" d="M0 -86C47.4965 -86 86 -47.4965 86 3.8147e-06C86 47.4965 47.4965 86 0 86C-47.4965 86 -86 47.4965 -86 3.8147e-06C-86 -47.4965 -47.4965 -86 0 -86Z"></path>
  <path fill="#1F0D04" transform="matrix(1.24798 0.87441 -0.868239 1.53611 270.684 295.886)" d="M1.83907e-07 -6.1709C3.40809 -6.1709 6.1709 -3.40809 6.1709 -1.13758e-06C6.1709 3.40809 3.40809 6.1709 -1.83907e-07 6.1709C-3.40809 6.1709 -6.1709 3.40809 -6.1709 -7.69767e-07C-6.1709 -3.40809 -3.40809 -6.1709 1.83907e-07 -6.1709Z"></path>
  <clipPath id="cl_137">
    <path d="M276.041 286.407C280.295 289.387 281.344 296.047 278.385 301.282C275.426 306.517 269.579 308.346 265.326 305.365C261.072 302.385 260.023 295.726 262.982 290.49C265.941 285.255 271.788 283.427 276.041 286.407Z"></path>
  </clipPath>
  <g clip-path="url(#cl_137)">
    <path fill="#2F1507" transform="matrix(1.24798 0.87441 -0.868239 1.53611 267.874 297.385)" d="M-1.72344e-06 -6.1709C3.40809 -6.1709 6.1709 -3.40809 6.1709 -1.83907e-07C6.1709 3.40809 3.40809 6.1709 -2.09126e-06 6.1709C-3.4081 6.1709 -6.1709 3.40809 -6.1709 1.83907e-07C-6.1709 -3.40809 -3.40809 -6.1709 -1.72344e-06 -6.1709Z"></path>
  </g>
  <path fill="#1F0D04" transform="matrix(1.24798 0.87441 -0.868239 1.53611 283.504 273.204)" d="M1.83907e-07 -6.1709C3.40809 -6.1709 6.1709 -3.40809 6.1709 -7.20349e-07C6.1709 3.40809 3.40809 6.1709 -1.83907e-07 6.1709C-3.40809 6.1709 -6.1709 3.40809 -6.1709 -3.52535e-07C-6.1709 -3.40809 -3.40809 -6.1709 1.83907e-07 -6.1709Z"></path>
  <clipPath id="cl_138">
    <path d="M288.862 263.724C293.115 266.705 294.165 273.364 291.205 278.6C288.246 283.835 282.4 285.663 278.146 282.683C273.893 279.703 272.844 273.043 275.803 267.808C278.762 262.573 284.609 260.744 288.862 263.724Z"></path>
  </clipPath>
  <g clip-path="url(#cl_138)">
    <path fill="#2F1507" transform="matrix(1.24798 0.87441 -0.868239 1.53611 280.029 275.879)" d="M1.83907e-07 -6.1709C3.40809 -6.1709 6.1709 -3.40809 6.1709 -7.79954e-07C6.1709 3.40809 3.40809 6.1709 -1.83907e-07 6.1709C-3.40809 6.1709 -6.1709 3.40809 -6.1709 -4.12139e-07C-6.1709 -3.40809 -3.40809 -6.1709 1.83907e-07 -6.1709Z"></path>
  </g>
  <path fill="#1F0D04" transform="matrix(1.24798 0.87441 -0.868239 1.53611 290.335 309.655)" d="M1.83907e-07 -6.1709C3.40809 -6.1709 6.1709 -3.40809 6.1709 -1.13758e-06C6.1709 3.40809 3.40809 6.1709 -1.83907e-07 6.1709C-3.40809 6.1709 -6.1709 3.40809 -6.1709 -7.69767e-07C-6.1709 -3.40809 -3.40809 -6.1709 1.83907e-07 -6.1709Z"></path>
  <clipPath id="cl_139">
    <path d="M295.693 300.176C299.946 303.156 300.995 309.816 298.036 315.051C295.077 320.286 289.23 322.114 284.977 319.134C280.724 316.154 279.675 309.494 282.634 304.259C285.593 299.024 291.439 297.196 295.693 300.176Z"></path>
  </clipPath>
  <g clip-path="url(#cl_139)">
    <path fill="#2F1507" transform="matrix(1.24798 0.87441 -0.868239 1.53611 288.275 310.607)" d="M1.83907e-07 -6.1709C3.40809 -6.1709 6.1709 -3.40809 6.1709 -1.83907e-07C6.1709 3.40809 3.40809 6.1709 -1.83907e-07 6.1709C-3.40809 6.1709 -6.1709 3.40809 -6.1709 1.83907e-07C-6.1709 -3.40809 -3.40809 -6.1709 1.83907e-07 -6.1709Z"></path>
  </g>
  <path fill="#1F0D04" transform="matrix(1.24798 0.87441 -0.868239 1.53611 303.156 286.972)" d="M3.9986e-06 -6.1709C3.4081 -6.1709 6.1709 -3.40809 6.1709 -7.20349e-07C6.1709 3.40809 3.4081 6.1709 3.63079e-06 6.1709C-3.40809 6.1709 -6.17089 3.40809 -6.17089 -3.52535e-07C-6.17089 -3.40809 -3.40809 -6.1709 3.9986e-06 -6.1709Z"></path>
  <clipPath id="cl_13a">
    <path d="M308.513 277.493C312.767 280.473 313.816 287.133 310.857 292.368C307.898 297.604 302.051 299.432 297.798 296.452C293.545 293.472 292.495 286.812 295.454 281.577C298.413 276.341 304.26 274.513 308.513 277.493Z"></path>
  </clipPath>
  <g clip-path="url(#cl_13a)">
    <path fill="#2F1507" transform="matrix(1.24798 0.87441 -0.868239 1.53611 299.183 288.227)" d="M1.83907e-07 -6.1709C3.40809 -6.1709 6.1709 -3.40809 6.1709 8.34465e-07C6.1709 3.40809 3.40809 6.1709 -1.83907e-07 6.1709C-3.40809 6.1709 -6.1709 3.40809 -6.1709 8.34465e-07C-6.1709 -3.40809 -3.40809 -6.1709 1.83907e-07 -6.1709Z"></path>
  </g>
  <path fill="none" stroke="#E3CEC2" stroke-width="4" stroke-linecap="round" stroke-linejoin="round" transform="matrix(1.24798 0.87441 -0.868239 1.53611 282.692 272.145)" d="M2.42519 2.41434L15.2044 14.4568"></path>
  <path fill="none" stroke="#C8AD9D" stroke-width="4" stroke-linecap="round" stroke-linejoin="round" transform="matrix(1.24798 0.87441 -0.868239 1.53611 282.692 272.145)" d="M3.28776 13.1788L15.6779 1.98902"></path>
  <path fill="#4B2713" transform="matrix(0.616168 0.169818 -0.169818 0.616168 308.572 213.216)" d="M0 -7.62939e-06C0 -7.62939e-06 -15.2012 0 -18.2664 0C-66.3551 1.3037 -126.35 32.2772 -126.35 128C-126.35 223.723 -55.9022 256 -19 256C-15.9348 256 -9.53674e-06 256 -3.8147e-06 256C-25.5439 256 -107.35 223.723 -107.35 128C-107.35 32.2772 -25.5439 0 0 -7.62939e-06Z"></path>
</svg>