<?xml version="1.0" encoding="utf-8"?>
<svg xmlns="http://www.w3.org/2000/svg" xmlns:xlink="http://www.w3.org/1999/xlink" width="512" height="512">
  <path fill="none" stroke="black" stroke-width="6" stroke-linejoin="round" transform="matrix(1.8 0 0 1.52279 359.051 170.228)" d="M-11.2563 -15.9533C-7.78558 -15.5505 -5.20187 -15.2506 -1.89892 -14.8673C5.1315 -14.0514 11.9269 -9.24046 10.6289 6.38648C9.33088 22.0134 6.91095 51.1466 6.18563 59.8788C2.63456 102.63 -60.5581 95.2534 -57.007 52.5024C-56.1156 41.7706 -54.4769 22.0432 -53.4448 9.61729C-52.4127 -2.80862 -44.7068 -19.8355 -28.704 -17.9782C-27.361 -17.8224 -26.1041 -17.6765 -24.9243 -17.5396"></path>
  <path fill="none" stroke="black" stroke-width="6" stroke-linejoin="round" transform="matrix(1.8 0 0 1.64041 359.051 252.474)" d="M-56.1192 -8.06102C-46.3839 -49.4123 15.3848 -33.7661 5.64945 7.58513C1.78487 24.0002 -4.66198 51.3835 -8.66704 68.3952C-10.0742 74.3723 -20.9367 83.2535 -43.6049 77.7897C-66.2731 72.3259 -72.0565 59.6337 -70.9597 54.9749C-66.9312 37.8636 -58.9712 4.05292 -56.1192 -8.06102Z"></path>
  <path fill="#503F7E" transform="matrix(1.8 0 0 1.52279 359.051 170.228)" d="M-53.4448 9.61731C-52.4127 -2.80862 -44.7068 -19.8355 -28.704 -17.9782C-12.7011 -16.121 -8.92936 -15.6832 -1.89892 -14.8673C5.1315 -14.0514 11.9269 -9.24044 10.6289 6.38649C9.33088 22.0134 6.91096 51.1466 6.18563 59.8788C2.63457 102.63 -60.5581 95.2534 -57.007 52.5024C-56.1156 41.7706 -54.4769 22.0432 -53.4448 9.61731Z"></path>
  <path fill="#503F7E" transform="matrix(1.8 0 0 1.64041 359.051 252.474)" d="M-56.1192 -8.06102C-46.3839 -49.4123 15.3848 -33.7661 5.64945 7.58513C1.78487 24.0002 -4.66198 51.3835 -8.66704 68.3952C-10.0742 74.3723 -20.9367 83.2535 -43.6049 77.7897C-66.2731 72.3259 -72.0565 59.6337 -70.9597 54.9749C-66.9312 37.8636 -58.9712 4.05292 -56.1192 -8.06102Z"></path>
  <path fill="none" stroke="black" stroke-width="5" stroke-linejoin="round" transform="matrix(1.67985 0 0 1.8 269.501 356.202)" d="M-45.1956 -15.6716C-26.9719 -15.9001 -13.9672 -11.8909 -13.285 35.4937C-12.6425 49.5881 -8.18272 64.7846 -23.1665 74.0898C-34.7351 73.9977 -47.6586 74.8041 -64.1232 74.5396C-74.9673 65.6159 -75.7065 52.1892 -76.5024 35.3834C-77.7876 -11.0905 -63.4194 -15.4431 -45.1956 -15.6716Z"></path>
  <path fill="#453279" transform="matrix(1.67985 0 0 1.8 269.501 356.202)" d="M-45.1956 -15.6716C-26.9719 -15.9001 -13.9672 -11.8909 -13.285 35.4937C-12.6425 49.5881 -8.18272 64.7846 -23.1665 74.0898C-34.7351 73.9977 -47.6586 74.8041 -64.1232 74.5396C-74.9673 65.6159 -75.7065 52.1892 -76.5024 35.3834C-77.7876 -11.0905 -63.4194 -15.4431 -45.1956 -15.6716Z"></path>
  <path fill="none" stroke="black" stroke-width="5" stroke-linejoin="round" transform="matrix(1.67985 0 0 1.8 191.63 362.835)" d="M42.2717 -14.0944C60.2658 -16.796 83.1121 -9.00893 81.7136 37.5372C81.7609 56.0938 78.609 71.0991 62.1141 75.288C46.641 74.8991 35.9571 74.5805 21.1604 73.5121C7.83326 64.6522 19.038 51.2253 19.6542 35.0256C20.4209 -10.6494 24.2777 -11.3928 42.2717 -14.0944Z"></path>
  <path fill="none" stroke="black" stroke-width="5" stroke-linejoin="round" transform="matrix(1.79976 0.0276995 -0.0293645 1.69771 274.681 280.286)" d="M-11.3238 -80.2543C25.8014 -80.2543 54.9476 -94.6926 58.9092 -40.8672C62.8708 12.9582 37.0524 74.7499 0.0572909 75.3534C-14.1177 75.5847 -17.7665 75.6442 -48.2096 76.1409C-78.6526 76.6376 -84.25 60.12 -84.25 9.53674e-07C-86.6294 -86.0849 -88.6034 -78.4854 -12.7475 -80.2208"></path>
  <path fill="#503F7E" transform="matrix(1.67985 0 0 1.8 191.63 362.835)" d="M42.2717 -14.0944C60.2658 -16.796 83.1121 -9.00893 81.7136 37.5372C81.7609 56.0938 78.609 71.0991 62.1141 75.288C46.641 74.8991 35.9571 74.5805 21.1604 73.5121C7.83326 64.6522 19.038 51.2253 19.6542 35.0256C20.4209 -10.6494 24.2777 -11.3928 42.2717 -14.0944Z"></path>
  <path fill="none" stroke="black" stroke-width="5" stroke-linejoin="round" transform="matrix(1.53139 0 0 1.39334 226.982 126.996)" d="M0 -40C20.9426 -40 35.0096 -26.8589 47.8597 -2.20017C49.1253 -3.81498 50.3123 -3.57652 51.1974 -3.11681C52.0824 -2.6571 52.5509 -1.60561 52.2206 -0.665335C53.8523 0.0632067 55.2854 1.47333 55.8775 2.67699C56.9197 4.79567 57.6743 10.5072 53.7931 11.8212C58.5977 31.9882 20.3682 22.0914 -1.32962e-05 22.0914C-20.2357 22.0914 -45.0732 28.3281 -41.8836 12.9784C-44.6787 11.8212 -48.2008 8.95145 -46.5316 4.29176C-45.7036 1.98007 -43.8185 0.567096 -42.3936 0.567005C-41.0392 0.566917 -42.9934 -2.19999 -40.2188 -3.8149C-39.0195 -4.5129 -37.7273 -4.43211 -36.6068 -4.12355C-28.0141 -23.731 -20.4124 -40 0 -40Z"></path>
  <path fill="#503F7E" transform="matrix(1.79976 0.0276995 -0.0293645 1.69771 274.681 280.286)" d="M-11.3238 -80.2543C25.8014 -80.2543 54.9476 -94.6926 58.9092 -40.8672C62.8708 12.9582 37.0524 74.7499 0.0572909 75.3534C-14.1177 75.5847 -17.7665 75.6442 -48.2096 76.1409C-78.6526 76.6376 -84.25 60.12 -84.25 9.53674e-07C-86.6442 -86.62 -88.6279 -78.3873 -11.3238 -80.2543Z"></path>
  <clipPath id="cl_28d">
    <path d="M256.658 143.724C323.474 144.752 376.354 121.047 381.904 212.537C387.453 304.027 339.172 408.216 272.572 408.216C247.053 408.216 240.485 408.216 185.68 408.216C130.875 408.216 121.286 380.019 123.052 277.952C121.286 130.83 117.474 144.752 256.658 143.724Z"></path>
  </clipPath>
  <g clip-path="url(#cl_28d)">
    <path fill="#655494" transform="matrix(1.8 0 0 1.8 311.807 262.365)" d="M-0.158648 -48.2655C25.513 -48.2655 46.324 -26.6563 46.324 -2.38419e-07C46.324 26.6563 25.513 48.2655 -0.158648 48.2655C-25.8303 48.2655 -46.6413 26.6563 -46.6413 -2.38419e-07C-46.6413 -26.6563 -25.8303 -48.2655 -0.158648 -48.2655Z"></path>
  </g>
  <path fill="none" stroke="black" stroke-width="2" stroke-linejoin="round" transform="matrix(3.88825 -0.763212 0.691401 3.5224 233.781 48.7478)" d="M-4.34758 -5.25471C-4.34759 -11.5047 3.66088 -11.5047 3.66088 -5.25471C3.66088 0.995287 3.66088 12.5 3.66088 12.5L-4.57314 12.5C-4.57314 12.5 -4.34758 0.995288 -4.34758 -5.25471Z"></path>
  <path fill="none" stroke="black" stroke-width="2" stroke-linejoin="round" transform="matrix(3.5224 -0.691401 0.691401 3.5224 199.573 54.1607)" d="M-5.1645 -6.50116C-5.1645 -12.7512 6 -12.7512 6 -6.50116C6 -0.251159 6 12.5 6 12.5L-6 12.5C-6 12.5 -5.1645 -0.25116 -5.1645 -6.50116Z"></path>
  <path fill="#453279" transform="matrix(3.88825 -0.763212 0.691401 3.5224 233.781 48.7478)" d="M-4.34758 -5.25471C-4.34759 -11.5047 3.66088 -11.5047 3.66088 -5.25471C3.66088 0.995287 3.66088 12.5 3.66088 12.5L-4.57314 12.5C-4.57314 12.5 -4.34758 0.995288 -4.34758 -5.25471Z"></path>
  <path fill="none" stroke="#161616" stroke-width="0.5" stroke-linecap="round" stroke-linejoin="round" transform="matrix(3.88825 -0.763212 0.691401 3.5224 228.988 29.2162)" d="M4.06863e-06 1.51652L3.35385e-06 10.5382"></path>
  <path fill="#503F7E" transform="matrix(3.5224 -0.691401 0.691401 3.5224 199.573 54.1607)" d="M-5.1645 -6.50116C-5.1645 -12.7512 6 -12.7512 6 -6.50116C6 -0.251162 6 12.5 6 12.5L-6 12.5C-6 12.5 -5.1645 -0.251163 -5.1645 -6.50116Z"></path>
  <path fill="none" stroke="#161616" stroke-width="0.5" stroke-linecap="round" stroke-linejoin="round" transform="matrix(3.5224 -0.691401 0.691401 3.5224 199.787 34.1422)" d="M2.56958e-07 3.8412e-06L4.07165e-06 10.5382"></path>
  <path fill="#503F7E" transform="matrix(1.53139 0 0 1.39334 226.982 126.996)" d="M0 -40C20.9426 -40 35.0096 -26.8589 47.8597 -2.20017C49.1253 -3.81498 50.3123 -3.57652 51.1974 -3.11681C52.0824 -2.6571 52.5509 -1.60561 52.2206 -0.665335C53.8523 0.0632067 55.2854 1.47333 55.8775 2.67699C56.9197 4.79567 57.6743 10.5072 53.7931 11.8212C58.5977 31.9882 20.3682 22.0914 -1.32962e-05 22.0914C-20.2357 22.0914 -45.0732 28.3281 -41.8836 12.9784C-44.6787 11.8212 -48.2008 8.95145 -46.5316 4.29176C-45.7036 1.98007 -43.8185 0.567096 -42.3936 0.567005C-41.0392 0.566917 -42.9934 -2.19999 -40.2188 -3.8149C-39.0195 -4.5129 -37.7273 -4.43211 -36.6068 -4.12355C-28.0141 -23.731 -20.4124 -40 0 -40Z"></path>
  <clipPath id="cl_28e">
    <path d="M226.982 71.2623C259.053 71.2623 280.595 89.5724 300.273 123.93C302.211 121.68 304.029 122.013 305.384 122.653C306.74 123.294 307.457 124.759 306.951 126.069C309.45 127.084 311.645 129.049 312.552 130.726C314.148 133.678 315.303 141.636 309.359 143.467C316.717 171.567 258.173 157.777 226.981 157.777C195.993 157.777 157.957 166.467 162.842 145.079C158.561 143.467 153.168 139.468 155.724 132.976C156.992 129.755 159.879 127.786 162.061 127.786C164.135 127.786 161.142 123.931 165.391 121.681C167.228 120.708 169.206 120.821 170.922 121.251C184.081 93.9305 195.722 71.2623 226.982 71.2623Z"></path>
  </clipPath>
  <g clip-path="url(#cl_28e)">
    <path fill="#7463A5" transform="matrix(1.8 2.98023e-08 0.00759348 1.8 224.115 112.798)" d="M0 -5.5C3.86599 -5.5 7 -2.92564 7 0.25C7 3.42564 3.86599 6 0 6C-3.86599 6 -7 3.42564 -7 0.25C-7 -2.92564 -3.86599 -5.5 0 -5.5Z"></path>
    <path fill="#7463A5" transform="matrix(1.83618 3.04014e-08 0.00759348 1.8 276.663 104.652)" d="M0 -5C2.76142 -5 5 -2.6495 5 0.25C5 3.1495 2.76142 5.5 0 5.5C-2.76142 5.5 -5 3.1495 -5 0.25C-5 -2.6495 -2.76142 -5 0 -5Z"></path>
    <path fill="none" stroke="#131212" stroke-width="1" stroke-linecap="round" stroke-linejoin="round" transform="matrix(2.30699 -0.373724 0.274137 1.69224 254.894 97.9564)" d="M1.44192e-06 -8.0435e-06L2.92891 -0.714575"></path>
    <path fill="none" stroke="#131212" stroke-width="1" stroke-linecap="round" stroke-linejoin="round" transform="matrix(2.30699 -0.373724 0.274137 1.69224 233.144 97.1267)" d="M1.66893e-06 7.48094e-06L4.25731 1.79213"></path>
    <path fill="#131212" transform="matrix(2.47104 -0.400299 0.405754 2.50471 246.929 100.237)" d="M-4.99596e-07 -4.03018e-06L1.9614 0.352734L0.915089 1.42246L-4.99596e-07 -4.03018e-06Z"></path>
    <path fill="none" stroke="#131212" stroke-width="0.5" stroke-linecap="round" stroke-linejoin="round" transform="matrix(1.93759 -0.313883 0.31816 1.96399 249.988 103.772)" d="M1.18428e-07 -0.711217L-3.72341e-06 1.11021"></path>
    <path fill="#32225E" transform="matrix(1.74285 0.441491 -0.424043 1.74552 243.776 92.3713)" d="M-3.84341e-06 -1.92716C1.6285 -1.92716 2.94867 -1.06434 2.94867 -4.39386e-08C2.94867 1.06434 1.6285 1.92716 -3.78598e-06 1.92716C-1.62851 1.92716 -2.94867 1.06434 -2.94867 4.39386e-08C-2.94867 -1.06434 -1.62851 -1.92716 -3.84341e-06 -1.92716Z"></path>
    <path fill="#32225E" transform="matrix(1.71213 0.433708 -0.412468 1.69787 254.969 91.4965)" d="M-3.8147e-06 -1.89918C0.889985 -1.89918 1.61146 -1.04889 1.61146 7.60538e-06C1.61146 1.0489 0.889985 1.8992 -3.8147e-06 1.8992C-0.889993 1.8992 -1.61147 1.0489 -1.61147 7.65341e-06C-1.61147 -1.04889 -0.889993 -1.89918 -3.8147e-06 -1.89918Z"></path>
  </g>
  <path fill="none" stroke="black" stroke-width="6" stroke-linejoin="round" transform="matrix(1.8 0 0 1.8 170.253 262.811)" d="M4.16446 30.5677C-35.1954 25.1904 -26.6 -37.7252 12.7599 -32.3479C29.5239 -30.0576 56.5249 -28.0266 73.9736 -26.2922C80.1042 -25.6828 90.5226 -16.0954 88.4931 7.05749C86.4636 30.2104 74.7543 37.5983 69.9758 37.1234C52.4249 35.3788 16.5359 32.2578 4.16446 30.5677Z"></path>
  <path fill="none" stroke="black" stroke-width="6" stroke-linecap="round" stroke-linejoin="bevel" transform="matrix(1.8 0 0 1.67094 170.253 172.563)" d="M37.3703 32.1783C38.5705 39.9949 39.6041 46.7269 40.1376 50.2012C46.6449 92.5819 -16.0102 103.703 -22.5176 61.3223C-24.1511 50.6835 -27.1539 31.1269 -29.0453 18.8086C-30.9368 6.49035 -27.4612 -12.2067 -11.5969 -15.0334C-9.96172 -15.3248 -8.45535 -15.5932 -7.061 -15.8416"></path>
  <path fill="#503F7E" transform="matrix(1.8 0 0 1.67094 170.253 172.563)" d="M-29.0453 18.8087C-30.9368 6.49035 -27.4612 -12.2067 -11.5969 -15.0334C4.26737 -17.8601 8.00648 -18.5263 14.976 -19.7682C21.9456 -21.01 29.6166 -18.3194 31.9953 -2.82784C34.3739 12.6637 38.8084 41.5447 40.1376 50.2012C45.8615 87.4797 -16.7937 98.6008 -22.5176 61.3223C-24.1511 50.6835 -27.1539 31.1269 -29.0453 18.8087Z"></path>
  <path fill="none" stroke="black" stroke-width="4" stroke-linejoin="round" transform="matrix(1.8 0 0 1.8 352.158 165.165)" d="M-11.7479 -12.9046C-11.318 -13.5165 -10.7601 -14.1187 -10.0572 -14.7065C-5.47351 -18.5399 3.93804 -16.1165 4.43081 -14.7065C7.46664 -16.1165 10.8961 -16.6614 15.0174 -13.9738C19.1387 -11.2862 16.2386 -4.86793 16.6118 -4.55444C16.985 -4.24095 25.2116 0.494546 17.5976 8.33766C16.6439 8.92036 15.7365 9.39703 14.8735 9.77867"></path>
  <path fill="#7463A5" transform="matrix(1.8 0 0 1.8 352.158 165.165)" d="M-0.116455 3.8147e-06C-2.60165 -0.663936 -7.05858 1.11792 -10.0572 -2.65576C-13.0559 -6.42944 -14.6409 -10.8732 -10.0572 -14.7065C-5.47351 -18.5399 3.93804 -16.1165 4.43081 -14.7065C7.46664 -16.1165 10.8961 -16.6614 15.0174 -13.9738C19.1387 -11.2862 16.2386 -4.86793 16.6118 -4.55444C16.985 -4.24095 25.2116 0.494546 17.5976 8.33766C2.9012 17.3171 -0.809986 1.11792 -0.116455 3.8147e-06Z"></path>
  <path fill="#503F7E" transform="matrix(1.8 0 0 1.8 170.253 262.811)" d="M4.16446 30.5677C-36.8302 24.967 -28.2347 -37.9485 12.7599 -32.3479C29.5239 -30.0576 56.5249 -28.0266 73.9736 -26.2922C80.1042 -25.6828 90.5226 -16.0954 88.4931 7.05749C86.4636 30.2104 74.7543 37.5983 69.9758 37.1234C52.4249 35.3788 16.5359 32.2578 4.16446 30.5677Z"></path>
  <path fill="#312F2F" transform="matrix(0.533401 0.0530192 -0.063218 0.636007 292.162 263.017)" d="M-7.62939e-06 -128C70.6924 -128 128 -70.6924 128 1.43051e-06C128 70.6924 70.6924 128 -7.62939e-06 128C-70.6925 128 -128 70.6924 -128 -4.76837e-07C-128 -70.6924 -70.6925 -128 -7.62939e-06 -128Z"></path>
  <path fill="none" stroke="black" stroke-width="7" stroke-miterlimit="4" transform="translate(256 256)" d="M56.3382 -73.1907C94.0456 -69.4426 120.991 -29.9562 116.522 15.0046C112.053 59.9655 77.8617 93.3751 40.1543 89.627C2.44693 85.879 -24.4981 46.3926 -20.0291 1.43173C-15.56 -43.5291 18.6307 -76.9387 56.3382 -73.1907Z"></path>
  <path fill="none" stroke="black" stroke-width="7" stroke-linejoin="round" transform="translate(256 256)" d="M56.3382 -73.1907C56.3382 -73.1907 46.6701 -74.1516 44.7206 -74.3454C14.0535 -76.5563 -26.0618 -60.6498 -32.1132 0.230583C-38.1646 61.1109 4.60017 86.093 28.0702 88.4259C30.0197 88.6197 40.1543 89.627 40.1543 89.627C39.6219 89.5741 39.0532 89.4953 38.4513 89.3902"></path>
  <path fill="#8D5A3E" transform="matrix(0.533401 0.0530192 -0.063218 0.636007 304.246 264.218)" d="M0 -128C70.6924 -128 128 -70.6924 128 1.43051e-06C128 70.6924 70.6924 128 0 128C-70.6924 128 -128 70.6924 -128 -4.76837e-07C-128 -70.6924 -70.6924 -128 0 -128Z"></path>
  <path fill="#4B2713" transform="matrix(0.533401 0.0530192 -0.063218 0.636007 307.777 263.927)" d="M0.249992 -87.5C51.4744 -87.5 93 -48.4368 93 -0.249999C93 47.9368 51.4744 87 0.249992 87C-50.9744 87 -92.5 47.9368 -92.5 -0.25C-92.5 -48.4368 -50.9744 -87.5 0.249992 -87.5Z"></path>
  <path fill="#693920" transform="matrix(0.533401 0.0530192 -0.063218 0.636007 304.246 264.218)" d="M0 -86C47.4965 -86 86 -47.4965 86 1.11759e-06C86 47.4965 47.4965 86 0 86C-47.4965 86 -86 47.4965 -86 -1.63913e-07C-86 -47.4965 -47.4965 -86 0 -86Z"></path>
  <path fill="#1F0D04" transform="matrix(1.37783 0.65087 -0.596084 1.66077 288.97 270.694)" d="M0 -6.1709C3.40809 -6.1709 6.1709 -3.40809 6.1709 -1.78814e-07C6.1709 3.40809 3.40809 6.1709 0 6.1709C-3.40809 6.1709 -6.1709 3.40809 -6.1709 -1.78814e-07C-6.1709 -3.40809 -3.40809 -6.1709 0 -6.1709Z"></path>
  <clipPath id="cl_296">
    <path d="M292.648 260.446C297.344 262.664 299.504 269.051 297.472 274.711C295.441 280.371 289.987 283.161 285.291 280.943C280.596 278.724 278.436 272.338 280.467 266.678C282.499 261.018 287.952 258.228 292.648 260.446Z"></path>
  </clipPath>
  <g clip-path="url(#cl_296)">
    <path fill="#2F1507" transform="matrix(1.37783 0.65087 -0.596084 1.66077 286.454 272.646)" d="M0 -6.1709C3.40809 -6.1709 6.1709 -3.40809 6.1709 -4.76837e-07C6.1709 3.40809 3.40809 6.1709 0 6.1709C-3.40809 6.1709 -6.1709 3.40809 -6.1709 -4.76837e-07C-6.1709 -3.40809 -3.40809 -6.1709 0 -6.1709Z"></path>
  </g>
  <path fill="#1F0D04" transform="matrix(1.37783 0.65087 -0.596084 1.66077 297.772 246.171)" d="M1.90735e-06 -6.1709C3.4081 -6.1709 6.1709 -3.40809 6.1709 9.53674e-07C6.1709 3.40809 3.4081 6.1709 1.90735e-06 6.1709C-3.40809 6.1709 -6.1709 3.40809 -6.1709 9.53674e-07C-6.1709 -3.40809 -3.40809 -6.1709 1.90735e-06 -6.1709Z"></path>
  <clipPath id="cl_297">
    <path d="M301.45 235.922C306.146 238.141 308.306 244.527 306.274 250.187C304.243 255.847 298.789 258.637 294.093 256.419C289.398 254.201 287.238 247.814 289.269 242.154C291.301 236.494 296.754 233.704 301.45 235.922Z"></path>
  </clipPath>
  <g clip-path="url(#cl_297)">
    <path fill="#2F1507" transform="matrix(1.37783 0.65087 -0.596084 1.66077 294.799 249.395)" d="M0 -6.1709C3.40809 -6.1709 6.1709 -3.40809 6.1709 9.53674e-07C6.1709 3.40809 3.40809 6.1709 0 6.1709C-3.40809 6.1709 -6.1709 3.40809 -6.1709 9.53674e-07C-6.1709 -3.40809 -3.40809 -6.1709 0 -6.1709Z"></path>
  </g>
  <path fill="#1F0D04" transform="matrix(1.37783 0.65087 -0.596084 1.66077 310.666 280.943)" d="M0 -6.1709C3.40809 -6.1709 6.1709 -3.40809 6.1709 -1.78814e-07C6.1709 3.40809 3.40809 6.1709 0 6.1709C-3.40809 6.1709 -6.1709 3.40809 -6.1709 -1.78814e-07C-6.1709 -3.40809 -3.40809 -6.1709 0 -6.1709Z"></path>
  <clipPath id="cl_298">
    <path d="M314.344 270.695C319.04 272.913 321.2 279.3 319.168 284.96C317.137 290.62 311.683 293.41 306.987 291.192C302.292 288.973 300.132 282.587 302.163 276.927C304.195 271.267 309.648 268.476 314.344 270.695Z"></path>
  </clipPath>
  <g clip-path="url(#cl_298)">
    <path fill="#2F1507" transform="matrix(1.37783 0.65087 -0.596084 1.66077 308.797 282.23)" d="M3.8147e-06 -6.1709C3.4081 -6.1709 6.1709 -3.40809 6.1709 -4.76837e-07C6.1709 3.40809 3.4081 6.1709 3.8147e-06 6.1709C-3.40809 6.1709 -6.17089 3.40809 -6.17089 -4.76837e-07C-6.17089 -3.40809 -3.40809 -6.1709 3.8147e-06 -6.1709Z"></path>
  </g>
  <path fill="#1F0D04" transform="matrix(1.37783 0.65087 -0.596084 1.66077 319.468 256.42)" d="M-3.8147e-06 -6.1709C3.40809 -6.1709 6.17089 -3.40809 6.17089 -9.53674e-07C6.17089 3.40809 3.40809 6.1709 -3.8147e-06 6.1709C-3.4081 6.1709 -6.1709 3.40809 -6.1709 -9.53674e-07C-6.1709 -3.40809 -3.4081 -6.1709 -3.8147e-06 -6.1709Z"></path>
  <clipPath id="cl_299">
    <path d="M323.146 246.171C327.842 248.389 330.002 254.776 327.97 260.436C325.939 266.096 320.485 268.886 315.789 266.668C311.094 264.45 308.934 258.063 310.965 252.403C312.997 246.743 318.45 243.953 323.146 246.171Z"></path>
  </clipPath>
  <g clip-path="url(#cl_299)">
    <path fill="#2F1507" transform="matrix(1.37783 0.65087 -0.596084 1.66077 315.764 258.328)" d="M0 -6.1709C3.40809 -6.1709 6.1709 -3.40809 6.1709 9.53674e-07C6.1709 3.40809 3.40809 6.1709 0 6.1709C-3.40809 6.1709 -6.1709 3.40809 -6.1709 9.53674e-07C-6.1709 -3.40809 -3.40809 -6.1709 0 -6.1709Z"></path>
  </g>
  <path fill="none" stroke="#E3CEC2" stroke-width="4" stroke-linecap="round" stroke-linejoin="round" transform="matrix(1.37783 0.65087 -0.596084 1.66077 296.792 245.265)" d="M2.42519 2.41434L15.2044 14.4568"></path>
  <path fill="none" stroke="#C8AD9D" stroke-width="4" stroke-linecap="round" stroke-linejoin="round" transform="matrix(1.37783 0.65087 -0.596084 1.66077 296.792 245.265)" d="M3.28776 13.1788L15.6779 1.98902"></path>
  <path fill="#4B2713" transform="matrix(0.636007 0.063218 -0.063218 0.636007 312.338 182.809)" d="M0 -7.62939e-06C0 -7.62939e-06 -15.2012 -7.62939e-06 -18.2664 -7.62939e-06C-66.3551 1.3037 -126.35 32.2772 -126.35 128C-126.35 223.723 -55.9022 256 -19 256C-15.9348 256 0 256 0 256C-25.5438 256 -107.35 223.723 -107.35 128C-107.35 32.2772 -25.5438 0 0 -7.62939e-06Z"></path>
</svg>