<?xml version="1.0" encoding="utf-8"?>
<svg xmlns="http://www.w3.org/2000/svg" xmlns:xlink="http://www.w3.org/1999/xlink" width="512" height="512">
  <path fill="none" stroke="black" stroke-width="6" stroke-linejoin="round" transform="matrix(1.8 0 0 1.52279 359.051 172.461)" d="M-13.6283 -17.2983C-9.90025 -17.4621 -7.22343 -17.5797 -3.75819 -17.732C3.30117 -18.0422 10.5826 -14.3563 11.0761 1.33493C11.5695 17.0262 12.4894 46.2793 12.7651 55.0473C14.115 97.9742 -49.3425 100.72 -50.6924 57.7933C-51.0313 47.0173 -51.6542 27.2087 -52.0465 14.7317C-52.4389 2.25463 -46.7423 -15.8434 -30.6736 -16.5494C-29.5285 -16.5997 -28.4458 -16.6473 -27.4198 -16.6924"></path>
  <path fill="none" stroke="black" stroke-width="6" stroke-linejoin="round" transform="matrix(1.8 0 0 1.64041 359.051 254.707)" d="M-50.569 -3.76851C-45.2568 -46.1002 17.7406 -38.619 12.4284 3.71273C10.3196 20.517 6.80173 48.5496 4.61631 65.9647C3.84846 72.0835 -6.00442 82.3192 -29.0943 79.8499C-52.1841 77.3805 -59.2655 65.5313 -58.667 60.7621C-56.4688 43.245 -52.1253 8.63266 -50.569 -3.76851Z"></path>
  <path fill="#503F7E" transform="matrix(1.8 0 0 1.52279 359.051 172.461)" d="M-52.0465 14.7317C-52.4389 2.25464 -46.7423 -15.8434 -30.6736 -16.5494C-14.6049 -17.2554 -10.8176 -17.4218 -3.75819 -17.732C3.30117 -18.0422 10.5826 -14.3563 11.0761 1.33493C11.5695 17.0262 12.4894 46.2793 12.7651 55.0473C14.115 97.9743 -49.3425 100.72 -50.6924 57.7933C-51.0313 47.0173 -51.6542 27.2088 -52.0465 14.7317Z"></path>
  <path fill="#503F7E" transform="matrix(1.8 0 0 1.64041 359.051 254.707)" d="M-50.569 -3.76851C-45.2568 -46.1002 17.7406 -38.619 12.4284 3.71272C10.3196 20.517 6.80173 48.5496 4.61631 65.9647C3.84846 72.0835 -6.00442 82.3192 -29.0943 79.8499C-52.1841 77.3805 -59.2655 65.5313 -58.667 60.7621C-56.4688 43.245 -52.1253 8.63266 -50.569 -3.76851Z"></path>
  <path fill="none" stroke="black" stroke-width="5" stroke-linejoin="round" transform="matrix(1.67985 0 0 1.8 269.501 356.202)" d="M-14.626 -15.2066C3.12355 -19.0677 29.1088 -10.5239 28.2044 35.4261C28.3614 49.1064 24.2755 71.4049 7.82665 75.9848C-3.44206 73.5405 -16.2429 71.6973 -32.2495 68.0883C-40.8372 57.5722 -32.8531 49.8128 -33.0692 33.4999C-32.7795 -11.5848 -32.3756 -11.3454 -14.626 -15.2066Z"></path>
  <path fill="#453279" transform="matrix(1.67985 0 0 1.8 269.501 356.202)" d="M-14.626 -15.2066C3.12355 -19.0677 29.1088 -10.5239 28.2044 35.4261C28.3614 49.1064 24.2755 71.4049 7.82665 75.9848C-3.44206 73.5405 -16.2429 71.6973 -32.2495 68.0883C-40.8372 57.5722 -32.8531 49.8128 -33.0692 33.4999C-32.7795 -11.5848 -32.3756 -11.3454 -14.626 -15.2066Z"></path>
  <path fill="none" stroke="black" stroke-width="5" stroke-linejoin="round" transform="matrix(1.67985 0 0 1.8 191.63 362.835)" d="M13.0791 -14.3484C31.3025 -14.0968 44.1807 -9.74659 43.4296 37.6371C43.7457 56.5199 46.3694 69.1704 30.8145 75.6373C15.3408 76.0088 4.65381 76.2152 -10.1827 75.8749C-24.9367 69.142 -20.1524 52.3545 -19.7593 35.8616C-19.6385 -10.6277 -5.14433 -14.6 13.0791 -14.3484Z"></path>
  <path fill="none" stroke="black" stroke-width="5" stroke-linejoin="round" transform="matrix(1.79976 0.0276995 -0.0293645 1.69771 274.681 282.52)" d="M-11.3238 -80.2543C25.8014 -80.2543 54.9476 -94.6926 58.9092 -40.8672C62.8708 12.9582 37.0524 74.7499 0.0572909 75.3534C-14.1177 75.5847 -17.7665 75.6442 -48.2096 76.1409C-78.6526 76.6376 -84.25 60.12 -84.25 9.53674e-07C-86.6294 -86.0849 -88.6034 -78.4854 -12.7475 -80.2208"></path>
  <path fill="#503F7E" transform="matrix(1.67985 0 0 1.8 191.63 362.835)" d="M13.0791 -14.3484C31.3025 -14.0968 44.1807 -9.74659 43.4296 37.6371C43.7457 56.5199 46.3694 69.1704 30.8145 75.6373C15.3408 76.0088 4.65381 76.2152 -10.1827 75.8749C-24.9367 69.142 -20.1524 52.3545 -19.7593 35.8616C-19.6385 -10.6277 -5.14433 -14.6 13.0791 -14.3484Z"></path>
  <path fill="none" stroke="black" stroke-width="5" stroke-linejoin="round" transform="matrix(1.53139 0 0 1.39334 226.982 130.869)" d="M0 -40C20.9426 -40 35.0096 -26.8589 47.8597 -2.20018C49.1253 -3.81499 50.3123 -3.57653 51.1974 -3.11682C52.0824 -2.65711 52.5509 -1.60562 52.2206 -0.665342C53.8523 0.0631991 55.2854 1.47333 55.8775 2.67698C56.9197 4.79566 57.6743 10.5072 53.7931 11.8212C58.5977 31.9882 20.3682 22.0914 -1.32962e-05 22.0914C-20.2357 22.0914 -45.0732 28.3281 -41.8836 12.9784C-44.6787 11.8212 -48.2008 8.95144 -46.5316 4.29175C-45.7036 1.98006 -43.8185 0.567089 -42.3936 0.566997C-41.0392 0.56691 -42.9934 -2.2 -40.2188 -3.81491C-39.0195 -4.51291 -37.7273 -4.43211 -36.6068 -4.12355C-28.0141 -23.7311 -20.4124 -40 0 -40Z"></path>
  <path fill="#503F7E" transform="matrix(1.79976 0.0276995 -0.0293645 1.69771 274.681 282.52)" d="M-11.3238 -80.2543C25.8014 -80.2543 54.9476 -94.6926 58.9092 -40.8672C62.8708 12.9582 37.0524 74.7499 0.0572909 75.3534C-14.1177 75.5847 -17.7665 75.6442 -48.2096 76.1409C-78.6526 76.6376 -84.25 60.12 -84.25 9.53674e-07C-86.6442 -86.62 -88.6279 -78.3873 -11.3238 -80.2543Z"></path>
  <clipPath id="cl_50a">
    <path d="M256.658 145.957C323.474 146.986 376.354 123.281 381.904 214.771C387.453 306.26 339.172 410.45 272.572 410.45C247.053 410.449 240.485 410.449 185.68 410.45C130.875 410.45 121.286 382.252 123.052 280.186C121.286 133.064 117.474 146.986 256.658 145.957Z"></path>
  </clipPath>
  <g clip-path="url(#cl_50a)">
    <path fill="#655494" transform="matrix(1.8 0 0 1.8 311.807 264.599)" d="M-0.158648 -48.2655C25.513 -48.2655 46.324 -26.6563 46.324 0C46.324 26.6563 25.513 48.2655 -0.158648 48.2655C-25.8303 48.2655 -46.6413 26.6563 -46.6413 0C-46.6413 -26.6563 -25.8303 -48.2655 -0.158648 -48.2655Z"></path>
  </g>
  <path fill="none" stroke="black" stroke-width="2" stroke-linejoin="round" transform="matrix(3.88825 -0.763212 0.691401 3.5224 233.781 52.6205)" d="M-4.34758 -5.25472C-4.34758 -11.5047 3.66088 -11.5047 3.66088 -5.25472C3.66088 0.99528 3.66088 12.5 3.66088 12.5L-4.57314 12.5C-4.57314 12.5 -4.34758 0.99528 -4.34758 -5.25472Z"></path>
  <path fill="none" stroke="black" stroke-width="2" stroke-linejoin="round" transform="matrix(3.5224 -0.691401 0.691401 3.5224 199.573 58.0333)" d="M-5.1645 -6.50117C-5.1645 -12.7512 6 -12.7512 6 -6.50117C6 -0.251166 6 12.5 6 12.5L-6 12.5C-6 12.5 -5.1645 -0.251167 -5.1645 -6.50117Z"></path>
  <path fill="#453279" transform="matrix(3.88825 -0.763212 0.691401 3.5224 233.781 52.6205)" d="M-4.34758 -5.25472C-4.34758 -11.5047 3.66088 -11.5047 3.66088 -5.25472C3.66088 0.99528 3.66088 12.5 3.66088 12.5L-4.57314 12.5C-4.57314 12.5 -4.34758 0.99528 -4.34758 -5.25472Z"></path>
  <path fill="none" stroke="#161616" stroke-width="0.5" stroke-linecap="round" stroke-linejoin="round" transform="matrix(3.88825 -0.763212 0.691401 3.5224 228.988 33.0888)" d="M4.06863e-06 1.51652L3.35385e-06 10.5382"></path>
  <path fill="#503F7E" transform="matrix(3.5224 -0.691401 0.691401 3.5224 199.573 58.0333)" d="M-5.1645 -6.50116C-5.1645 -12.7512 6 -12.7512 6 -6.50116C6 -0.251162 6 12.5 6 12.5L-6 12.5C-6 12.5 -5.1645 -0.251163 -5.1645 -6.50116Z"></path>
  <path fill="none" stroke="#161616" stroke-width="0.5" stroke-linecap="round" stroke-linejoin="round" transform="matrix(3.5224 -0.691401 0.691401 3.5224 199.787 38.0148)" d="M-4.58298e-07 3.8412e-06L3.3564e-06 10.5382"></path>
  <path fill="#503F7E" transform="matrix(1.53139 0 0 1.39334 226.982 130.869)" d="M0 -40C20.9426 -40 35.0096 -26.8589 47.8597 -2.20018C49.1253 -3.81499 50.3123 -3.57653 51.1974 -3.11682C52.0824 -2.65711 52.5509 -1.60562 52.2206 -0.665342C53.8523 0.0631991 55.2854 1.47333 55.8775 2.67698C56.9197 4.79566 57.6743 10.5072 53.7931 11.8212C58.5977 31.9882 20.3682 22.0914 -1.32962e-05 22.0914C-20.2357 22.0914 -45.0732 28.3281 -41.8836 12.9784C-44.6787 11.8212 -48.2008 8.95144 -46.5316 4.29175C-45.7036 1.98006 -43.8185 0.567089 -42.3936 0.566997C-41.0392 0.56691 -42.9934 -2.2 -40.2188 -3.81491C-39.0195 -4.51291 -37.7273 -4.43211 -36.6068 -4.12355C-28.0141 -23.7311 -20.4124 -40 0 -40Z"></path>
  <clipPath id="cl_50b">
    <path d="M226.982 75.1349C259.053 75.1349 280.595 93.445 300.273 127.803C302.211 125.553 304.029 125.885 305.384 126.526C306.74 127.166 307.457 128.632 306.951 129.942C309.45 130.957 311.645 132.922 312.552 134.599C314.148 137.551 315.303 145.509 309.359 147.34C316.717 175.439 258.173 161.65 226.981 161.65C195.993 161.65 157.957 170.339 162.842 148.952C158.561 147.34 153.168 143.341 155.724 136.849C156.992 133.628 159.879 131.659 162.061 131.659C164.135 131.659 161.142 127.803 165.391 125.553C167.228 124.581 169.206 124.693 170.922 125.123C184.081 97.8032 195.722 75.1349 226.982 75.1349Z"></path>
  </clipPath>
  <g clip-path="url(#cl_50b)">
    <path fill="#7463A5" transform="matrix(1.8 2.98023e-08 0.00759348 1.8 223.396 118.689)" d="M1.90735e-06 -5.5C3.866 -5.5 7 -2.92564 7 0.25C7 3.42564 3.866 6 1.90735e-06 6C-3.86599 6 -7 3.42564 -7 0.25C-7 -2.92564 -3.86599 -5.5 1.90735e-06 -5.5Z"></path>
    <path fill="#7463A5" transform="matrix(1.83618 3.04014e-08 0.00759348 1.8 275.944 110.543)" d="M9.53674e-07 -5C2.76142 -5 5 -2.6495 5 0.25C5 3.1495 2.76142 5.5 9.53674e-07 5.5C-2.76142 5.5 -5 3.1495 -5 0.25C-5 -2.6495 -2.76142 -5 9.53674e-07 -5Z"></path>
    <path fill="none" stroke="#131212" stroke-width="1" stroke-linecap="round" stroke-linejoin="round" transform="matrix(2.30699 -0.373724 0.274137 1.69224 254.176 103.847)" d="M4.88246e-07 -4.14104e-07L2.92891 -0.714567"></path>
    <path fill="none" stroke="#131212" stroke-width="1" stroke-linecap="round" stroke-linejoin="round" transform="matrix(2.30699 -0.373724 0.274137 1.69224 232.425 103.018)" d="M3.57628e-07 -1.48459e-07L4.25731 1.79213"></path>
    <path fill="#131212" transform="matrix(2.47104 -0.400299 0.405754 2.50471 246.21 106.128)" d="M-4.99596e-07 -4.03018e-06L1.9614 0.352734L0.915089 1.42246L-4.99596e-07 -4.03018e-06Z"></path>
    <path fill="none" stroke="#131212" stroke-width="0.5" stroke-linecap="round" stroke-linejoin="round" transform="matrix(1.93759 -0.313883 0.31816 1.96399 249.27 109.663)" d="M1.0721e-06 -0.711232L-2.76974e-06 1.11019"></path>
    <path fill="#32225E" transform="matrix(1.74285 0.441491 -0.424043 1.74552 243.058 98.2624)" d="M-1.93607e-06 -1.92716C1.6285 -1.92716 2.94867 -1.06434 2.94867 -4.39386e-08C2.94867 1.06434 1.6285 1.92716 -1.87863e-06 1.92716C-1.62851 1.92716 -2.94867 1.06434 -2.94867 4.39386e-08C-2.94867 -1.06434 -1.62851 -1.92716 -1.93607e-06 -1.92716Z"></path>
    <path fill="#32225E" transform="matrix(1.71213 0.433708 -0.412468 1.69787 254.251 97.3875)" d="M-3.8147e-06 -1.89919C0.889985 -1.89919 1.61146 -1.04889 1.61146 -2.40127e-08C1.61146 1.04889 0.889985 1.89919 -3.8147e-06 1.89919C-0.889993 1.89919 -1.61147 1.04889 -1.61147 2.40127e-08C-1.61147 -1.04889 -0.889993 -1.89919 -3.8147e-06 -1.89919Z"></path>
  </g>
  <path fill="none" stroke="black" stroke-width="6" stroke-linejoin="round" transform="matrix(1.8 0 0 1.8 170.253 265.044)" d="M-10.6012 29.9325C-48.3228 17.4749 -28.4098 -42.822 9.31192 -30.3645C25.3782 -25.0586 51.5574 -18.1427 68.3982 -13.2587C74.3152 -11.5427 82.8126 -0.217725 76.5993 22.178C70.3859 44.5737 57.5267 49.705 52.9147 48.3675C35.9753 43.4548 1.25536 33.8481 -10.6012 29.9325Z"></path>
  <path fill="none" stroke="black" stroke-width="6" stroke-linecap="round" stroke-linejoin="bevel" transform="matrix(1.8 0 0 1.67094 170.253 174.797)" d="M31.3076 39.0327C31.1667 46.9089 31.0454 53.686 30.9827 57.1911C30.2141 100.14 -33.2733 98.7791 -32.5048 55.8305C-32.3118 45.0492 -31.9572 25.2306 -31.7338 12.7472C-31.5104 0.263878 -24.9311 -17.4383 -8.85425 -17.1044C-7.06791 -17.0673 -5.43328 -17.0334 -3.92901 -17.0021"></path>
  <path fill="#503F7E" transform="matrix(1.8 0 0 1.67094 170.253 174.797)" d="M-31.7338 12.7472C-31.5104 0.263878 -24.9311 -17.4383 -8.85425 -17.1044C7.22257 -16.7705 11.0118 -16.6919 18.0747 -16.5452C25.1376 -16.3985 32.2253 -12.2476 31.9444 3.45158C31.6634 19.1507 31.1397 48.4186 30.9827 57.1911C30.3067 94.9691 -33.1808 93.6085 -32.5048 55.8305C-32.3118 45.0492 -31.9572 25.2306 -31.7338 12.7472Z"></path>
  <path fill="none" stroke="black" stroke-width="4" stroke-linejoin="round" transform="matrix(1.8 0 0 1.8 352.158 167.398)" d="M-11.7479 -12.9046C-11.318 -13.5165 -10.7601 -14.1187 -10.0572 -14.7065C-5.47351 -18.5399 3.93804 -16.1165 4.43081 -14.7065C7.46664 -16.1165 10.8961 -16.6614 15.0174 -13.9738C19.1387 -11.2862 16.2386 -4.86793 16.6118 -4.55444C16.985 -4.24095 25.2116 0.494543 17.5976 8.33766C16.6439 8.92035 15.7365 9.39702 14.8735 9.77867"></path>
  <path fill="#7463A5" transform="matrix(1.8 0 0 1.8 352.158 167.398)" d="M-0.116455 0C-2.60165 -0.66394 -7.05858 1.11792 -10.0572 -2.65576C-13.0559 -6.42944 -14.6409 -10.8732 -10.0572 -14.7065C-5.47351 -18.5399 3.93804 -16.1165 4.43081 -14.7065C7.46664 -16.1165 10.8961 -16.6614 15.0174 -13.9738C19.1387 -11.2862 16.2386 -4.86793 16.6118 -4.55444C16.985 -4.24095 25.2116 0.494543 17.5976 8.33766C2.9012 17.3171 -0.809986 1.11792 -0.116455 0Z"></path>
  <path fill="#503F7E" transform="matrix(1.8 0 0 1.8 170.253 265.044)" d="M-10.6012 29.9325C-49.8895 16.9575 -29.9765 -43.3395 9.31192 -30.3645C25.3782 -25.0586 51.5574 -18.1427 68.3982 -13.2587C74.3152 -11.5427 82.8126 -0.217726 76.5993 22.178C70.3859 44.5737 57.5267 49.705 52.9147 48.3674C35.9753 43.4548 1.25536 33.8481 -10.6012 29.9325Z"></path>
  <path fill="#312F2F" transform="matrix(0.514817 0.149303 -0.178023 0.613847 273.655 285.867)" d="M-3.8147e-06 -128C70.6924 -128 128 -70.6924 128 0C128 70.6924 70.6924 128 3.8147e-06 128C-70.6924 128 -128 70.6924 -128 0C-128 -70.6924 -70.6924 -128 -3.8147e-06 -128Z"></path>
  <path fill="none" stroke="black" stroke-width="7" stroke-miterlimit="4" transform="translate(256 256)" d="M52.1054 -45.3225C88.499 -34.768 107.8 8.9663 95.215 52.3607C82.6301 95.7551 42.9252 122.377 6.53153 111.822C-29.8621 101.268 -49.1629 57.5336 -36.5781 14.1392C-23.9932 -29.2552 15.7117 -55.8771 52.1054 -45.3225Z"></path>
  <path fill="none" stroke="black" stroke-width="7" stroke-linejoin="round" transform="translate(256 256)" d="M52.1054 -45.3225C52.1054 -45.3225 42.7742 -48.0287 40.8926 -48.5744C11.1414 -56.335 -31.2003 -48.0025 -48.2412 10.7567C-65.282 69.5159 -27.7839 101.871 -5.13157 108.44C-3.24998 108.986 6.53153 111.822 6.53153 111.822C6.01763 111.673 5.4728 111.492 4.90023 111.279"></path>
  <path fill="#8D5A3E" transform="matrix(0.514817 0.149303 -0.178023 0.613847 285.318 289.25)" d="M-1.14441e-05 -128C70.6924 -128 128 -70.6924 128 -3.8147e-06C128 70.6924 70.6924 128 -3.8147e-06 128C-70.6924 128 -128 70.6924 -128 -3.8147e-06C-128 -70.6924 -70.6925 -128 -1.14441e-05 -128Z"></path>
  <path fill="#4B2713" transform="matrix(0.514817 0.149303 -0.178023 0.613847 288.843 289.607)" d="M0.250005 -87.5C51.4744 -87.5 93 -48.4368 93 -0.249996C93 47.9368 51.4744 87 0.25001 87C-50.9744 87 -92.5 47.9368 -92.5 -0.249996C-92.5 -48.4368 -50.9744 -87.5 0.250005 -87.5Z"></path>
  <path fill="#693920" transform="matrix(0.514817 0.149303 -0.178023 0.613847 285.318 289.25)" d="M-1.01924e-05 -86C47.4965 -86 86 -47.4965 86 -3.8147e-06C86 47.4965 47.4965 86 -5.06639e-06 86C-47.4965 86 -86 47.4965 -86 -3.8147e-06C-86 -47.4965 -47.4965 -86 -1.01924e-05 -86Z"></path>
  <path fill="#1F0D04" transform="matrix(1.23621 0.890982 -0.888655 1.52439 269.118 292.835)" d="M0 -6.1709C3.40809 -6.1709 6.1709 -3.40809 6.1709 1.90735e-06C6.1709 3.4081 3.40809 6.1709 0 6.1709C-3.40809 6.1709 -6.1709 3.4081 -6.1709 1.90735e-06C-6.1709 -3.40809 -3.40809 -6.1709 0 -6.1709Z"></path>
  <clipPath id="cl_513">
    <path d="M274.602 283.428C278.815 286.464 279.775 293.138 276.746 298.333C273.718 303.528 267.847 305.278 263.634 302.242C259.421 299.205 258.461 292.532 261.489 287.337C264.518 282.141 270.389 280.391 274.602 283.428Z"></path>
  </clipPath>
  <g clip-path="url(#cl_513)">
    <path fill="#2F1507" transform="matrix(1.23621 0.890982 -0.888655 1.52439 266.288 294.295)" d="M-1.90735e-06 -6.1709C3.40809 -6.1709 6.1709 -3.40809 6.1709 -9.53674e-07C6.1709 3.40809 3.40809 6.1709 -1.90735e-06 6.1709C-3.40809 6.1709 -6.1709 3.40809 -6.1709 -9.53674e-07C-6.1709 -3.40809 -3.40809 -6.1709 -1.90735e-06 -6.1709Z"></path>
  </g>
  <path fill="#1F0D04" transform="matrix(1.23621 0.890982 -0.888655 1.52439 282.24 270.325)" d="M0 -6.1709C3.40809 -6.1709 6.1709 -3.40809 6.1709 7.15256e-07C6.1709 3.40809 3.40809 6.1709 0 6.1709C-3.40809 6.1709 -6.1709 3.40809 -6.1709 7.15256e-07C-6.1709 -3.40809 -3.40809 -6.1709 0 -6.1709Z"></path>
  <clipPath id="cl_514">
    <path d="M287.724 260.918C291.937 263.955 292.897 270.628 289.869 275.823C286.84 281.018 280.969 282.768 276.756 279.732C272.543 276.695 271.583 270.022 274.612 264.827C277.64 259.632 283.511 257.882 287.724 260.918Z"></path>
  </clipPath>
  <g clip-path="url(#cl_514)">
    <path fill="#2F1507" transform="matrix(1.23621 0.890982 -0.888655 1.52439 278.729 272.954)" d="M-1.90735e-06 -6.1709C3.40809 -6.1709 6.1709 -3.40809 6.1709 8.9407e-08C6.1709 3.40809 3.40809 6.1709 -1.90735e-06 6.1709C-3.40809 6.1709 -6.1709 3.40809 -6.1709 8.9407e-08C-6.1709 -3.40809 -3.40809 -6.1709 -1.90735e-06 -6.1709Z"></path>
  </g>
  <path fill="#1F0D04" transform="matrix(1.23621 0.890982 -0.888655 1.52439 288.584 306.864)" d="M0 -6.1709C3.40809 -6.1709 6.1709 -3.40809 6.1709 9.53674e-07C6.1709 3.40809 3.40809 6.1709 0 6.1709C-3.40809 6.1709 -6.1709 3.40809 -6.1709 9.53674e-07C-6.1709 -3.40809 -3.40809 -6.1709 0 -6.1709Z"></path>
  <clipPath id="cl_515">
    <path d="M294.068 297.458C298.281 300.494 299.241 307.167 296.212 312.363C293.184 317.558 287.313 319.308 283.1 316.271C278.887 313.235 277.927 306.562 280.955 301.366C283.984 296.171 289.854 294.421 294.068 297.458Z"></path>
  </clipPath>
  <g clip-path="url(#cl_515)">
    <path fill="#2F1507" transform="matrix(1.23621 0.890982 -0.888655 1.52439 286.512 307.789)" d="M0 -6.1709C3.40809 -6.1709 6.1709 -3.40809 6.1709 9.53674e-07C6.1709 3.40809 3.40809 6.1709 0 6.1709C-3.40809 6.1709 -6.1709 3.40809 -6.1709 9.53674e-07C-6.1709 -3.40809 -3.40809 -6.1709 0 -6.1709Z"></path>
  </g>
  <path fill="#1F0D04" transform="matrix(1.23621 0.890982 -0.888655 1.52439 301.706 284.355)" d="M-3.8147e-06 -6.1709C3.40809 -6.1709 6.17089 -3.40809 6.17089 -2.38419e-07C6.17089 3.40809 3.40809 6.1709 -3.8147e-06 6.1709C-3.4081 6.1709 -6.1709 3.40809 -6.1709 -2.38419e-07C-6.1709 -3.40809 -3.4081 -6.1709 -3.8147e-06 -6.1709Z"></path>
  <clipPath id="cl_516">
    <path d="M307.19 274.948C311.403 277.985 312.363 284.658 309.335 289.853C306.306 295.048 300.435 296.798 296.222 293.762C292.009 290.725 291.049 284.052 294.077 278.857C297.106 273.661 302.977 271.911 307.19 274.948Z"></path>
  </clipPath>
  <g clip-path="url(#cl_516)">
    <path fill="#2F1507" transform="matrix(1.23621 0.890982 -0.888655 1.52439 297.717 285.557)" d="M3.44688e-06 -6.1709C3.4081 -6.1709 6.1709 -3.40809 6.1709 -6.45843e-07C6.1709 3.40809 3.4081 6.1709 4.18251e-06 6.1709C-3.40809 6.1709 -6.17089 3.40809 -6.17089 -2.78029e-07C-6.17089 -3.40809 -3.40809 -6.1709 3.44688e-06 -6.1709Z"></path>
  </g>
  <path fill="none" stroke="#E3CEC2" stroke-width="4" stroke-linecap="round" stroke-linejoin="round" transform="matrix(1.23621 0.890982 -0.888655 1.52439 281.442 269.256)" d="M2.42519 2.41434L15.2044 14.4568"></path>
  <path fill="none" stroke="#C8AD9D" stroke-width="4" stroke-linecap="round" stroke-linejoin="round" transform="matrix(1.23621 0.890982 -0.888655 1.52439 281.442 269.256)" d="M3.28776 13.1788L15.6779 1.98902"></path>
  <path fill="#4B2713" transform="matrix(0.613847 0.178023 -0.178023 0.613847 308.105 210.677)" d="M7.62939e-06 7.62939e-06C7.62939e-06 7.62939e-06 -15.2012 7.62939e-06 -18.2664 1.52588e-05C-66.3551 1.30371 -126.35 32.2772 -126.35 128C-126.35 223.723 -55.9022 256 -19 256C-15.9348 256 5.72205e-06 256 -3.8147e-06 256C-25.5439 256 -107.35 223.723 -107.35 128C-107.35 32.2772 -25.5438 7.62939e-06 7.62939e-06 7.62939e-06Z"></path>
</svg>