<?xml version="1.0" encoding="utf-8"?>
<svg xmlns="http://www.w3.org/2000/svg" xmlns:xlink="http://www.w3.org/1999/xlink" width="512" height="512">
  <path fill="none" stroke="black" stroke-width="6" stroke-linejoin="round" transform="matrix(1.8 0 0 1.52279 359.051 175.307)" d="M-12.8503 -16.9256C-9.20618 -16.9034 -6.55602 -16.8871 -3.14035 -16.8663C3.92379 -16.823 11.0668 -12.7763 10.9981 2.92559C10.9293 18.6274 10.8012 47.9004 10.7628 56.6744C10.5747 99.6303 -52.9243 99.1998 -52.7362 56.2438C-52.689 45.4606 -52.6022 25.6386 -52.5476 13.1531C-52.4929 0.667561 -46.1536 -17.1293 -30.0739 -17.031C-28.8623 -17.0236 -27.7204 -17.0166 -26.6417 -17.01"></path>
  <path fill="none" stroke="black" stroke-width="6" stroke-linejoin="round" transform="matrix(1.8 0 0 1.64041 359.051 257.553)" d="M-52.419 -4.61514C-46.26 -46.7845 16.5734 -37.5481 10.4144 4.62119C7.96951 21.361 3.89091 49.2861 1.35714 66.6343C0.466885 72.7297 -9.58882 82.6871 -32.624 79.5744C-55.6592 76.4616 -62.5017 64.4189 -61.8078 59.6679C-59.2592 42.218 -54.2233 7.73846 -52.419 -4.61514Z"></path>
  <path fill="#503F7E" transform="matrix(1.8 0 0 1.52279 359.051 175.307)" d="M-52.5476 13.1531C-52.4929 0.667561 -46.1536 -17.1293 -30.0739 -17.031C-13.9944 -16.9326 -10.2045 -16.9095 -3.14035 -16.8662C3.92379 -16.823 11.0668 -12.7763 10.9981 2.92558C10.9293 18.6274 10.8012 47.9004 10.7628 56.6744C10.5747 99.6303 -52.9243 99.1998 -52.7362 56.2438C-52.689 45.4606 -52.6022 25.6386 -52.5476 13.1531Z"></path>
  <path fill="#503F7E" transform="matrix(1.8 0 0 1.64041 359.051 257.553)" d="M-52.419 -4.61514C-46.26 -46.7845 16.5734 -37.5481 10.4144 4.62119C7.96951 21.361 3.89091 49.2861 1.35714 66.6343C0.466885 72.7297 -9.58882 82.6871 -32.624 79.5744C-55.6592 76.4616 -62.5017 64.4189 -61.8078 59.6679C-59.2592 42.218 -54.2233 7.73846 -52.419 -4.61514Z"></path>
  <path fill="none" stroke="black" stroke-width="5" stroke-linejoin="round" transform="matrix(1.67985 0 0 1.8 269.501 356.202)" d="M-23.1597 -15.6706C-4.93639 -15.9281 8.07555 -11.9395 8.84441 35.4439C9.51262 49.5372 14.009 64.7388 -0.97338 74.0882C-12.5421 73.9961 -25.4655 74.8025 -41.9301 74.538C-52.7748 65.6021 -53.5465 52.2387 -54.3731 35.4342C-55.7433 -11.0376 -41.383 -15.413 -23.1597 -15.6706Z"></path>
  <path fill="#453279" transform="matrix(1.67985 0 0 1.8 269.501 356.202)" d="M-23.1597 -15.6706C-4.93639 -15.9281 8.07555 -11.9395 8.84441 35.4439C9.51262 49.5372 14.009 64.7388 -0.97338 74.0882C-12.5421 73.9961 -25.4655 74.8025 -41.9301 74.538C-52.7748 65.6021 -53.5465 52.2387 -54.3731 35.4342C-55.7433 -11.0376 -41.383 -15.413 -23.1597 -15.6706Z"></path>
  <path fill="none" stroke="black" stroke-width="5" stroke-linejoin="round" transform="matrix(1.67985 0 0 1.8 191.63 362.835)" d="M15.4227 -12.6205C31.7125 -20.2485 69.2883 -7.39505 67.6824 34.1897C67.5828 50.7724 55.0416 73.6881 37.9682 72.8731C23.3726 68.0634 13.3113 64.6946 -0.416763 59.4323C-10.1149 47.1376 11.5702 46.0039 12.2448 31.5318C13.2794 -9.27879 -0.867104 -4.99255 15.4227 -12.6205Z"></path>
  <path fill="none" stroke="black" stroke-width="5" stroke-linejoin="round" transform="matrix(1.79976 0.0276995 -0.0293645 1.69771 274.681 285.366)" d="M-11.3238 -80.2543C25.8014 -80.2543 54.9476 -94.6926 58.9092 -40.8672C62.8708 12.9582 37.0524 74.7499 0.0572909 75.3534C-14.1177 75.5847 -17.7665 75.6442 -48.2096 76.1409C-78.6526 76.6376 -84.25 60.12 -84.25 1.90735e-06C-86.6294 -86.0849 -88.6034 -78.4854 -12.7475 -80.2208"></path>
  <path fill="#503F7E" transform="matrix(1.67985 0 0 1.8 191.63 362.835)" d="M15.4227 -12.6205C31.7125 -20.2485 69.2883 -7.39505 67.6824 34.1897C67.5828 50.7724 55.0416 73.6881 37.9682 72.8731C23.3726 68.0634 13.3113 64.6946 -0.416763 59.4323C-10.1149 47.1376 11.5702 46.0039 12.2448 31.5318C13.2794 -9.27879 -0.867104 -4.99255 15.4227 -12.6205Z"></path>
  <path fill="none" stroke="black" stroke-width="5" stroke-linejoin="round" transform="matrix(1.53139 0 0 1.39334 226.982 135.399)" d="M0 -40C20.9426 -40 35.0096 -26.8589 47.8597 -2.20017C49.1253 -3.81498 50.3123 -3.57652 51.1974 -3.11681C52.0824 -2.6571 52.5509 -1.60561 52.2206 -0.665335C53.8523 0.0632067 55.2854 1.47333 55.8775 2.67699C56.9197 4.79567 57.6743 10.5072 53.7931 11.8212C58.5977 31.9882 20.3682 22.0914 -1.32962e-05 22.0914C-20.2357 22.0914 -45.0732 28.3281 -41.8836 12.9784C-44.6787 11.8212 -48.2008 8.95145 -46.5316 4.29176C-45.7036 1.98007 -43.8185 0.567096 -42.3936 0.567005C-41.0392 0.566917 -42.9934 -2.19999 -40.2188 -3.8149C-39.0195 -4.5129 -37.7273 -4.43211 -36.6068 -4.12355C-28.0141 -23.731 -20.4124 -40 0 -40Z"></path>
  <path fill="#503F7E" transform="matrix(1.79976 0.0276995 -0.0293645 1.69771 274.681 285.366)" d="M-11.3238 -80.2543C25.8014 -80.2543 54.9476 -94.6926 58.9092 -40.8672C62.8708 12.9582 37.0524 74.7499 0.0572909 75.3534C-14.1177 75.5847 -17.7665 75.6442 -48.2096 76.1409C-78.6526 76.6376 -84.25 60.12 -84.25 1.90735e-06C-86.6442 -86.62 -88.6279 -78.3873 -11.3238 -80.2543Z"></path>
  <clipPath id="cl_17c">
    <path d="M256.658 148.803C323.474 149.832 376.354 126.127 381.904 217.617C387.453 309.107 339.172 413.296 272.572 413.296C247.053 413.296 240.485 413.296 185.68 413.296C130.875 413.296 121.286 385.099 123.052 283.032C121.286 135.91 117.474 149.832 256.658 148.803Z"></path>
  </clipPath>
  <g clip-path="url(#cl_17c)">
    <path fill="#655494" transform="matrix(1.8 0 0 1.8 311.807 267.445)" d="M-0.158648 -48.2655C25.513 -48.2655 46.324 -26.6563 46.324 -4.76837e-07C46.324 26.6563 25.513 48.2655 -0.158648 48.2655C-25.8303 48.2655 -46.6413 26.6563 -46.6413 -4.76837e-07C-46.6413 -26.6563 -25.8303 -48.2655 -0.158648 -48.2655Z"></path>
  </g>
  <path fill="none" stroke="black" stroke-width="2" stroke-linejoin="round" transform="matrix(3.88825 -0.763212 0.691401 3.5224 233.781 57.151)" d="M-4.34758 -5.25472C-4.34759 -11.5047 3.66088 -11.5047 3.66088 -5.25472C3.66088 0.99528 3.66088 12.5 3.66088 12.5L-4.57314 12.5C-4.57314 12.5 -4.34758 0.99528 -4.34758 -5.25472Z"></path>
  <path fill="none" stroke="black" stroke-width="2" stroke-linejoin="round" transform="matrix(3.5224 -0.691401 0.691401 3.5224 199.573 62.5638)" d="M-5.1645 -6.50117C-5.1645 -12.7512 6 -12.7512 6 -6.50117C6 -0.251166 6 12.5 6 12.5L-6 12.5C-6 12.5 -5.1645 -0.251167 -5.1645 -6.50117Z"></path>
  <path fill="#453279" transform="matrix(3.88825 -0.763212 0.691401 3.5224 233.781 57.151)" d="M-4.34758 -5.25472C-4.34759 -11.5047 3.66088 -11.5047 3.66088 -5.25472C3.66088 0.99528 3.66088 12.5 3.66088 12.5L-4.57314 12.5C-4.57314 12.5 -4.34758 0.99528 -4.34758 -5.25472Z"></path>
  <path fill="none" stroke="#161616" stroke-width="0.5" stroke-linecap="round" stroke-linejoin="round" transform="matrix(3.88825 -0.763212 0.691401 3.5224 228.988 37.6194)" d="M4.54547e-06 1.51652L3.83069e-06 10.5382"></path>
  <path fill="#503F7E" transform="matrix(3.5224 -0.691401 0.691401 3.5224 199.573 62.5638)" d="M-5.1645 -6.50117C-5.1645 -12.7512 6 -12.7512 6 -6.50117C6 -0.251166 6 12.5 6 12.5L-6 12.5C-6 12.5 -5.1645 -0.251167 -5.1645 -6.50117Z"></path>
  <path fill="none" stroke="#161616" stroke-width="0.5" stroke-linecap="round" stroke-linejoin="round" transform="matrix(3.5224 -0.691401 0.691401 3.5224 199.787 42.5453)" d="M7.33795e-07 3.8412e-06L4.54849e-06 10.5382"></path>
  <path fill="#503F7E" transform="matrix(1.53139 0 0 1.39334 226.982 135.399)" d="M0 -40C20.9426 -40 35.0096 -26.8589 47.8597 -2.20017C49.1253 -3.81498 50.3123 -3.57652 51.1974 -3.11681C52.0824 -2.6571 52.5509 -1.60561 52.2206 -0.665335C53.8523 0.0632067 55.2854 1.47333 55.8775 2.67699C56.9197 4.79567 57.6743 10.5072 53.7931 11.8212C58.5977 31.9882 20.3682 22.0914 -1.32962e-05 22.0914C-20.2357 22.0914 -45.0732 28.3281 -41.8836 12.9784C-44.6787 11.8212 -48.2008 8.95145 -46.5316 4.29176C-45.7036 1.98007 -43.8185 0.567096 -42.3936 0.567005C-41.0392 0.566917 -42.9934 -2.19999 -40.2188 -3.8149C-39.0195 -4.5129 -37.7273 -4.43211 -36.6068 -4.12355C-28.0141 -23.731 -20.4124 -40 0 -40Z"></path>
  <clipPath id="cl_17d">
    <path d="M226.982 79.6655C259.053 79.6655 280.595 97.9755 300.273 132.334C302.211 130.084 304.029 130.416 305.384 131.056C306.74 131.697 307.457 133.162 306.951 134.472C309.45 135.487 311.645 137.452 312.552 139.129C314.148 142.081 315.303 150.039 309.359 151.87C316.717 179.97 258.173 166.18 226.981 166.18C195.993 166.18 157.957 174.87 162.842 153.483C158.561 151.87 153.168 147.872 155.724 141.379C156.992 138.158 159.879 136.189 162.061 136.189C164.135 136.189 161.142 132.334 165.391 130.084C167.228 129.111 169.206 129.224 170.922 129.654C184.081 102.334 195.722 79.6655 226.982 79.6655Z"></path>
  </clipPath>
  <g clip-path="url(#cl_17d)">
    <path fill="#7463A5" transform="matrix(1.8 2.98023e-08 0.00759348 1.8 225.843 125.294)" d="M1.90735e-06 -5.5C3.866 -5.5 7 -2.92564 7 0.25C7 3.42564 3.866 6 1.90735e-06 6C-3.86599 6 -7 3.42564 -7 0.25C-7 -2.92564 -3.86599 -5.5 1.90735e-06 -5.5Z"></path>
    <path fill="#7463A5" transform="matrix(1.83618 3.04014e-08 0.00759348 1.8 278.391 117.148)" d="M0 -5C2.76142 -5 5 -2.6495 5 0.25C5 3.1495 2.76142 5.5 0 5.5C-2.76142 5.5 -5 3.1495 -5 0.25C-5 -2.6495 -2.76142 -5 0 -5Z"></path>
    <path fill="none" stroke="#131212" stroke-width="1" stroke-linecap="round" stroke-linejoin="round" transform="matrix(2.30699 -0.373724 0.274137 1.69224 256.623 110.452)" d="M4.88246e-07 7.21529e-06L2.92891 -0.71456"></path>
    <path fill="none" stroke="#131212" stroke-width="1" stroke-linecap="round" stroke-linejoin="round" transform="matrix(2.30699 -0.373724 0.274137 1.69224 234.872 109.623)" d="M9.53674e-07 -1.48459e-07L4.25731 1.79213"></path>
    <path fill="#131212" transform="matrix(2.47104 -0.400299 0.405754 2.50471 248.657 112.733)" d="M4.54078e-07 -7.84488e-06L1.9614 0.35273L0.91509 1.42245L4.54078e-07 -7.84488e-06Z"></path>
    <path fill="none" stroke="#131212" stroke-width="0.5" stroke-linecap="round" stroke-linejoin="round" transform="matrix(1.93759 -0.313883 0.31816 1.96399 251.717 116.268)" d="M2.02578e-06 -0.711232L-1.81606e-06 1.11019"></path>
    <path fill="#32225E" transform="matrix(1.74285 0.441491 -0.424043 1.74552 245.505 104.867)" d="M-1.93607e-06 -1.92715C1.6285 -1.92715 2.94867 -1.06433 2.94867 7.58546e-06C2.94867 1.06435 1.6285 1.92716 -1.87863e-06 1.92716C-1.62851 1.92716 -2.94867 1.06435 -2.94867 7.67333e-06C-2.94867 -1.06433 -1.62851 -1.92715 -1.93607e-06 -1.92715Z"></path>
    <path fill="#32225E" transform="matrix(1.71213 0.433708 -0.412468 1.69787 256.697 103.992)" d="M-5.72205e-06 -1.8992C0.889983 -1.8992 1.61146 -1.0489 1.61146 -7.65341e-06C1.61146 1.04889 0.889983 1.89918 -5.72205e-06 1.89918C-0.889995 1.89918 -1.61147 1.04889 -1.61147 -7.60538e-06C-1.61147 -1.0489 -0.889995 -1.8992 -5.72205e-06 -1.8992Z"></path>
  </g>
  <path fill="none" stroke="black" stroke-width="6" stroke-linejoin="round" transform="matrix(1.8 0 0 1.8 170.253 267.891)" d="M-5.98822 30.4227C-44.3627 20.1508 -27.9434 -41.1897 10.4311 -30.9178C26.7754 -26.5428 53.3085 -21.1409 70.4018 -17.2315C76.4076 -15.858 85.541 -5.03947 80.6233 17.676C75.7057 40.3914 63.1622 46.2523 58.481 45.1817C41.2875 41.2494 6.07349 33.6513 -5.98822 30.4227Z"></path>
  <path fill="none" stroke="black" stroke-width="6" stroke-linecap="round" stroke-linejoin="bevel" transform="matrix(1.8 0 0 1.67094 170.253 177.643)" d="M33.3345 37.0217C33.6139 44.9046 33.8543 51.689 33.9785 55.196C35.4996 98.1212 -27.9557 100.688 -29.4767 57.7631C-29.8586 46.9876 -30.5605 27.1797 -31.0026 14.7032C-31.4447 2.22657 -25.8195 -15.8532 -9.75133 -16.5139C-8.00534 -16.5857 -6.40436 -16.6515 -4.92843 -16.7122"></path>
  <path fill="#503F7E" transform="matrix(1.8 0 0 1.67094 170.253 177.643)" d="M-31.0026 14.7032C-31.4447 2.22657 -25.8195 -15.8532 -9.75133 -16.5139C6.31678 -17.1747 10.1039 -17.3304 17.163 -17.6207C24.2221 -17.9109 31.5193 -14.2051 32.0753 1.48558C32.6313 17.1762 33.6679 46.4282 33.9785 55.196C35.3165 92.9535 -28.1388 95.5206 -29.4767 57.7631C-29.8586 46.9876 -30.5605 27.1797 -31.0026 14.7032Z"></path>
  <path fill="none" stroke="black" stroke-width="4" stroke-linejoin="round" transform="matrix(1.8 0 0 1.8 352.158 170.245)" d="M-11.7479 -12.9046C-11.318 -13.5165 -10.7601 -14.1187 -10.0572 -14.7065C-5.47351 -18.5399 3.93804 -16.1165 4.43081 -14.7065C7.46664 -16.1165 10.8961 -16.6614 15.0174 -13.9738C19.1387 -11.2862 16.2386 -4.86793 16.6118 -4.55444C16.985 -4.24095 25.2116 0.494546 17.5976 8.33766C16.6439 8.92036 15.7365 9.39703 14.8735 9.77867"></path>
  <path fill="#7463A5" transform="matrix(1.8 0 0 1.8 352.158 170.245)" d="M-0.116455 3.8147e-06C-2.60165 -0.663936 -7.05858 1.11792 -10.0572 -2.65576C-13.0559 -6.42944 -14.6409 -10.8732 -10.0572 -14.7065C-5.47351 -18.5399 3.93804 -16.1165 4.43081 -14.7065C7.46664 -16.1165 10.8961 -16.6614 15.0174 -13.9738C19.1387 -11.2862 16.2386 -4.86793 16.6118 -4.55444C16.985 -4.24095 25.2116 0.494546 17.5976 8.33766C2.9012 17.3171 -0.809986 1.11792 -0.116455 3.8147e-06Z"></path>
  <path fill="#503F7E" transform="matrix(1.8 0 0 1.8 170.253 267.891)" d="M-5.98822 30.4227C-45.9565 19.7241 -29.5372 -41.6164 10.4311 -30.9178C26.7754 -26.5428 53.3085 -21.1409 70.4018 -17.2316C76.4076 -15.858 85.541 -5.03947 80.6233 17.676C75.7057 40.3914 63.1622 46.2523 58.481 45.1817C41.2875 41.2494 6.07349 33.6513 -5.98822 30.4227Z"></path>
  <path fill="#312F2F" transform="matrix(0.522537 0.119508 -0.142496 0.623053 279.859 282.62)" d="M3.8147e-06 -128C70.6924 -128 128 -70.6925 128 0C128 70.6925 70.6924 128 3.8147e-06 128C-70.6924 128 -128 70.6925 -128 0C-128 -70.6925 -70.6924 -128 3.8147e-06 -128Z"></path>
  <path fill="none" stroke="black" stroke-width="7" stroke-miterlimit="4" transform="translate(256 256)" d="M53.937 -50.4231C90.8764 -41.9749 112.656 0.579491 102.582 44.6247C92.5088 88.6698 54.3974 117.527 17.4579 109.079C-19.4815 100.63 -41.2608 58.0759 -31.1873 14.0307C-21.1139 -30.0145 16.9975 -58.8714 53.937 -50.4231Z"></path>
  <path fill="none" stroke="black" stroke-width="7" stroke-linejoin="round" transform="translate(256 256)" d="M53.937 -50.4231C53.937 -50.4231 44.4658 -52.5893 42.556 -53.026C12.4084 -59.0662 -29.3852 -48.3172 -43.0254 11.3233C-56.6655 70.9637 -17.3722 101.113 5.6199 106.371C7.52971 106.808 17.4579 109.079 17.4579 109.079C16.9363 108.959 16.382 108.81 15.7981 108.63"></path>
  <path fill="#8D5A3E" transform="matrix(0.522537 0.119508 -0.142496 0.623053 291.697 285.328)" d="M0 -128C70.6924 -128 128 -70.6924 128 3.8147e-06C128 70.6925 70.6924 128 0 128C-70.6924 128 -128 70.6925 -128 3.8147e-06C-128 -70.6924 -70.6924 -128 0 -128Z"></path>
  <path fill="#4B2713" transform="matrix(0.522537 0.119508 -0.142496 0.623053 295.236 285.481)" d="M0.249992 -87.5C51.4744 -87.5 93 -48.4368 93 -0.25C93 47.9368 51.4744 87 0.249992 87C-50.9744 87 -92.5 47.9368 -92.5 -0.25C-92.5 -48.4368 -50.9744 -87.5 0.249992 -87.5Z"></path>
  <path fill="#693920" transform="matrix(0.522537 0.119508 -0.142496 0.623053 291.697 285.328)" d="M0 -86C47.4965 -86 86 -47.4965 86 3.8147e-06C86 47.4965 47.4965 86 0 86C-47.4965 86 -86 47.4965 -86 3.8147e-06C-86 -47.4965 -47.4965 -86 0 -86Z"></path>
  <path fill="#1F0D04" transform="matrix(1.28531 0.818558 -0.799694 1.57288 275.729 289.836)" d="M0 -6.1709C3.40809 -6.1709 6.1709 -3.40809 6.1709 0C6.1709 3.40809 3.40809 6.1709 0 6.1709C-3.40809 6.1709 -6.1709 3.40809 -6.1709 0C-6.1709 -3.40809 -3.40809 -6.1709 0 -6.1709Z"></path>
  <clipPath id="cl_185">
    <path d="M280.664 280.13C285.045 282.92 286.386 289.527 283.661 294.888C280.935 300.248 275.175 302.332 270.795 299.542C266.414 296.753 265.072 290.146 267.798 284.785C270.523 279.425 276.284 277.341 280.664 280.13Z"></path>
  </clipPath>
  <g clip-path="url(#cl_185)">
    <path fill="#2F1507" transform="matrix(1.28531 0.818558 -0.799694 1.57288 272.988 291.457)" d="M1.90735e-06 -6.1709C3.4081 -6.1709 6.1709 -3.40809 6.1709 0C6.1709 3.40809 3.4081 6.1709 1.90735e-06 6.1709C-3.40809 6.1709 -6.1709 3.40809 -6.1709 0C-6.1709 -3.40809 -3.40809 -6.1709 1.90735e-06 -6.1709Z"></path>
  </g>
  <path fill="#1F0D04" transform="matrix(1.28531 0.818558 -0.799694 1.57288 287.538 266.611)" d="M0 -6.1709C3.40809 -6.1709 6.1709 -3.40809 6.1709 4.76837e-07C6.1709 3.40809 3.40809 6.1709 0 6.1709C-3.40809 6.1709 -6.1709 3.40809 -6.1709 4.76837e-07C-6.1709 -3.40809 -3.40809 -6.1709 0 -6.1709Z"></path>
  <clipPath id="cl_186">
    <path d="M292.473 256.905C296.853 259.694 298.195 266.301 295.469 271.662C292.744 277.022 286.984 279.106 282.603 276.317C278.223 273.527 276.881 266.92 279.606 261.559C282.332 256.199 288.092 254.115 292.473 256.905Z"></path>
  </clipPath>
  <g clip-path="url(#cl_186)">
    <path fill="#2F1507" transform="matrix(1.28531 0.818558 -0.799694 1.57288 284.184 269.437)" d="M0 -6.1709C3.40809 -6.1709 6.1709 -3.40809 6.1709 -4.76837e-07C6.1709 3.40809 3.40809 6.1709 0 6.1709C-3.40809 6.1709 -6.1709 3.40809 -6.1709 -4.76837e-07C-6.1709 -3.40809 -3.40809 -6.1709 0 -6.1709Z"></path>
  </g>
  <path fill="#1F0D04" transform="matrix(1.28531 0.818558 -0.799694 1.57288 295.968 302.726)" d="M0 -6.1709C3.40809 -6.1709 6.1709 -3.40809 6.1709 0C6.1709 3.40809 3.40809 6.1709 0 6.1709C-3.40809 6.1709 -6.1709 3.40809 -6.1709 0C-6.1709 -3.40809 -3.40809 -6.1709 0 -6.1709Z"></path>
  <clipPath id="cl_187">
    <path d="M300.903 293.02C305.284 295.809 306.625 302.417 303.9 307.777C301.175 313.138 295.414 315.222 291.034 312.432C286.653 309.642 285.311 303.035 288.037 297.675C290.762 292.314 296.523 290.23 300.903 293.02Z"></path>
  </clipPath>
  <g clip-path="url(#cl_187)">
    <path fill="#2F1507" transform="matrix(1.28531 0.818558 -0.799694 1.57288 293.953 303.768)" d="M3.8147e-06 -6.1709C3.4081 -6.1709 6.1709 -3.40809 6.1709 0C6.1709 3.40809 3.4081 6.1709 3.8147e-06 6.1709C-3.40809 6.1709 -6.17089 3.40809 -6.17089 0C-6.17089 -3.40809 -3.40809 -6.1709 3.8147e-06 -6.1709Z"></path>
  </g>
  <path fill="#1F0D04" transform="matrix(1.28531 0.818558 -0.799694 1.57288 307.777 279.5)" d="M0 -6.1709C3.40809 -6.1709 6.1709 -3.40809 6.1709 9.53674e-07C6.1709 3.40809 3.40809 6.1709 0 6.1709C-3.40809 6.1709 -6.1709 3.40809 -6.1709 9.53674e-07C-6.1709 -3.40809 -3.40809 -6.1709 0 -6.1709Z"></path>
  <clipPath id="cl_188">
    <path d="M312.712 269.794C317.092 272.584 318.434 279.191 315.709 284.551C312.983 289.912 307.223 291.996 302.842 289.206C298.462 286.416 297.12 279.809 299.845 274.449C302.571 269.088 308.331 267.004 312.712 269.794Z"></path>
  </clipPath>
  <g clip-path="url(#cl_188)">
    <path fill="#2F1507" transform="matrix(1.28531 0.818558 -0.799694 1.57288 303.863 280.929)" d="M0 -6.1709C3.40809 -6.1709 6.1709 -3.40809 6.1709 -7.15256e-07C6.1709 3.40809 3.40809 6.1709 0 6.1709C-3.40809 6.1709 -6.1709 3.40809 -6.1709 -7.15256e-07C-6.1709 -3.40809 -3.40809 -6.1709 0 -6.1709Z"></path>
  </g>
  <path fill="none" stroke="#E3CEC2" stroke-width="4" stroke-linecap="round" stroke-linejoin="round" transform="matrix(1.28531 0.818558 -0.799694 1.57288 286.68 265.589)" d="M2.42519 2.41434L15.2044 14.4568"></path>
  <path fill="none" stroke="#C8AD9D" stroke-width="4" stroke-linecap="round" stroke-linejoin="round" transform="matrix(1.28531 0.818558 -0.799694 1.57288 286.68 265.589)" d="M3.28776 13.1788L15.6779 1.98902"></path>
  <path fill="#4B2713" transform="matrix(0.623053 0.142496 -0.142496 0.623053 309.937 205.577)" d="M7.62939e-06 0C7.62939e-06 0 -15.2012 7.62939e-06 -18.2664 7.62939e-06C-66.3551 1.3037 -126.35 32.2772 -126.35 128C-126.35 223.723 -55.9022 256 -19 256C-15.9348 256 3.8147e-06 256 3.8147e-06 256C-25.5439 256 -107.35 223.723 -107.35 128C-107.35 32.2772 -25.5438 -7.62939e-06 7.62939e-06 0Z"></path>
</svg>