<?xml version="1.0" encoding="utf-8"?>
<svg xmlns="http://www.w3.org/2000/svg" xmlns:xlink="http://www.w3.org/1999/xlink" width="512" height="512">
  <path fill="none" stroke="black" stroke-width="6" stroke-linejoin="round" transform="matrix(1.8 0 0 1.52279 359.051 178.626)" d="M-11.2563 -15.9533C-7.78558 -15.5505 -5.20188 -15.2506 -1.89892 -14.8673C5.1315 -14.0514 11.9269 -9.24044 10.6289 6.38649C9.33087 22.0134 6.91095 51.1466 6.18562 59.8788C2.63454 102.63 -60.5581 95.2533 -57.007 52.5024C-56.1156 41.7706 -54.477 22.0432 -53.4448 9.61729C-52.4127 -2.80863 -44.7068 -19.8355 -28.704 -17.9783C-27.361 -17.8224 -26.1041 -17.6765 -24.9243 -17.5396"></path>
  <path fill="none" stroke="black" stroke-width="6" stroke-linejoin="round" transform="matrix(1.8 0 0 1.64041 359.051 260.872)" d="M-55.8988 -8.96031C-44.949 -49.985 16.3666 -32.5347 5.41682 8.48994C1.07012 24.7754 -6.18098 51.9425 -10.6857 68.8198C-12.2684 74.7496 -23.3926 83.3024 -45.9027 77.1762C-68.4128 71.0501 -73.8243 58.1998 -72.5907 53.5778C-68.0596 36.6016 -59.1065 3.05796 -55.8988 -8.96031Z"></path>
  <path fill="#503F7E" transform="matrix(1.8 0 0 1.52279 359.051 178.626)" d="M-53.4448 9.6173C-52.4127 -2.80863 -44.7068 -19.8355 -28.704 -17.9782C-12.7011 -16.121 -8.92936 -15.6832 -1.89892 -14.8673C5.1315 -14.0514 11.9269 -9.24043 10.6289 6.3865C9.33087 22.0134 6.91095 51.1467 6.18562 59.8788C2.63454 102.63 -60.5581 95.2534 -57.007 52.5024C-56.1156 41.7706 -54.477 22.0432 -53.4448 9.6173Z"></path>
  <path fill="#503F7E" transform="matrix(1.8 0 0 1.64041 359.051 260.872)" d="M-55.8988 -8.96031C-44.949 -49.985 16.3666 -32.5347 5.41682 8.48994C1.07012 24.7754 -6.18098 51.9425 -10.6857 68.8198C-12.2684 74.7496 -23.3926 83.3024 -45.9027 77.1762C-68.4128 71.0501 -73.8243 58.1998 -72.5907 53.5778C-68.0596 36.6016 -59.1065 3.05796 -55.8988 -8.96031Z"></path>
  <path fill="none" stroke="black" stroke-width="5" stroke-linejoin="round" transform="matrix(1.67985 0 0 1.8 269.501 356.202)" d="M-48.3811 -15.1898C-30.6503 -19.1255 -5.23008 -11.2582 -5.20299 34.8607C-4.76724 48.5837 -7.90452 70.6698 -24.3627 75.9156C-35.6754 73.6549 -48.5086 72.0202 -64.5802 68.6721C-73.3378 58.1873 -66.1711 50.3767 -66.7197 34.0134C-67.3458 -11.2264 -66.1119 -11.2541 -48.3811 -15.1898Z"></path>
  <path fill="#453279" transform="matrix(1.67985 0 0 1.8 269.501 356.202)" d="M-48.3811 -15.1898C-30.6503 -19.1255 -5.23008 -11.2582 -5.20299 34.8607C-4.76724 48.5837 -7.90452 70.6698 -24.3627 75.9156C-35.6754 73.6549 -48.5086 72.0202 -64.5802 68.6721C-73.3378 58.1873 -66.1711 50.3767 -66.7197 34.0134C-67.3458 -11.2264 -66.1119 -11.2541 -48.3811 -15.1898Z"></path>
  <path fill="none" stroke="black" stroke-width="5" stroke-linejoin="round" transform="matrix(1.67985 0 0 1.8 191.63 362.835)" d="M45.1315 -14.3493C63.3532 -14.0076 76.2065 -9.59377 75.1865 37.7855C75.3954 56.6697 77.9612 69.215 62.3776 75.6303C46.904 76.0019 36.217 76.2083 21.3805 75.8679C6.65658 69.0801 11.5218 52.1884 12.0086 35.6977C12.3932 -10.7903 26.9097 -14.691 45.1315 -14.3493Z"></path>
  <path fill="none" stroke="black" stroke-width="5" stroke-linejoin="round" transform="matrix(1.79976 0.0276995 -0.0293645 1.69771 274.681 288.684)" d="M-11.3238 -80.2543C25.8014 -80.2543 54.9476 -94.6926 58.9092 -40.8672C62.8708 12.9582 37.0524 74.7499 0.0572909 75.3534C-14.1177 75.5847 -17.7665 75.6442 -48.2096 76.1409C-78.6526 76.6376 -84.25 60.12 -84.25 1.90735e-06C-86.6294 -86.0849 -88.6034 -78.4854 -12.7475 -80.2208"></path>
  <path fill="#503F7E" transform="matrix(1.67985 0 0 1.8 191.63 362.835)" d="M45.1315 -14.3493C63.3532 -14.0076 76.2065 -9.59377 75.1865 37.7855C75.3954 56.6697 77.9612 69.215 62.3776 75.6303C46.904 76.0019 36.217 76.2083 21.3805 75.8679C6.65658 69.0801 11.5218 52.1884 12.0086 35.6977C12.3932 -10.7903 26.9097 -14.691 45.1315 -14.3493Z"></path>
  <path fill="none" stroke="black" stroke-width="5" stroke-linejoin="round" transform="matrix(1.53139 0 0 1.39334 226.982 140.141)" d="M0 -40C20.9426 -40 35.0096 -26.8589 47.8597 -2.20018C49.1253 -3.81499 50.3123 -3.57653 51.1974 -3.11682C52.0824 -2.65711 52.5509 -1.60562 52.2206 -0.665342C53.8523 0.0631991 55.2854 1.47333 55.8775 2.67698C56.9197 4.79566 57.6743 10.5072 53.7931 11.8212C58.5977 31.9882 20.3682 22.0914 -1.32962e-05 22.0914C-20.2357 22.0914 -45.0732 28.3281 -41.8836 12.9784C-44.6787 11.8212 -48.2008 8.95144 -46.5316 4.29175C-45.7036 1.98006 -43.8185 0.567089 -42.3936 0.566997C-41.0392 0.56691 -42.9934 -2.2 -40.2188 -3.81491C-39.0195 -4.51291 -37.7273 -4.43211 -36.6068 -4.12355C-28.0141 -23.7311 -20.4124 -40 0 -40Z"></path>
  <path fill="#503F7E" transform="matrix(1.79976 0.0276995 -0.0293645 1.69771 274.681 288.684)" d="M-11.3238 -80.2543C25.8014 -80.2543 54.9476 -94.6926 58.9092 -40.8672C62.8708 12.9582 37.0524 74.7499 0.0572909 75.3534C-14.1177 75.5847 -17.7665 75.6442 -48.2096 76.1409C-78.6526 76.6376 -84.25 60.12 -84.25 1.90735e-06C-86.6442 -86.62 -88.6279 -78.3873 -11.3238 -80.2543Z"></path>
  <clipPath id="cl_391">
    <path d="M256.658 152.122C323.474 153.15 376.354 129.445 381.904 220.935C387.453 312.425 339.172 416.614 272.572 416.614C247.053 416.614 240.485 416.614 185.68 416.614C130.875 416.614 121.286 388.417 123.052 286.35C121.286 139.228 117.474 153.15 256.658 152.122Z"></path>
  </clipPath>
  <g clip-path="url(#cl_391)">
    <path fill="#655494" transform="matrix(1.8 0 0 1.8 311.807 270.763)" d="M-0.158648 -48.2655C25.513 -48.2655 46.324 -26.6563 46.324 0C46.324 26.6563 25.513 48.2655 -0.158648 48.2655C-25.8303 48.2655 -46.6413 26.6563 -46.6413 0C-46.6413 -26.6563 -25.8303 -48.2655 -0.158648 -48.2655Z"></path>
  </g>
  <path fill="none" stroke="black" stroke-width="2" stroke-linejoin="round" transform="matrix(3.88825 -0.763212 0.691401 3.5224 233.781 61.8929)" d="M-4.34758 -5.25471C-4.34758 -11.5047 3.66088 -11.5047 3.66088 -5.25472C3.66088 0.995284 3.66088 12.5 3.66088 12.5L-4.57314 12.5C-4.57314 12.5 -4.34758 0.995284 -4.34758 -5.25471Z"></path>
  <path fill="none" stroke="black" stroke-width="2" stroke-linejoin="round" transform="matrix(3.5224 -0.691401 0.691401 3.5224 199.573 67.3057)" d="M-5.1645 -6.50116C-5.1645 -12.7512 6 -12.7512 6 -6.50116C6 -0.251162 6 12.5 6 12.5L-6 12.5C-6 12.5 -5.1645 -0.251163 -5.1645 -6.50116Z"></path>
  <path fill="#453279" transform="matrix(3.88825 -0.763212 0.691401 3.5224 233.781 61.8929)" d="M-4.34758 -5.25471C-4.34758 -11.5047 3.66088 -11.5047 3.66088 -5.25472C3.66088 0.995284 3.66088 12.5 3.66088 12.5L-4.57314 12.5C-4.57314 12.5 -4.34758 0.995284 -4.34758 -5.25471Z"></path>
  <path fill="none" stroke="#161616" stroke-width="0.5" stroke-linecap="round" stroke-linejoin="round" transform="matrix(3.88825 -0.763212 0.691401 3.5224 228.988 42.3612)" d="M3.35338e-06 1.51652L2.6386e-06 10.5382"></path>
  <path fill="#503F7E" transform="matrix(3.5224 -0.691401 0.691401 3.5224 199.573 67.3057)" d="M-5.1645 -6.50116C-5.1645 -12.7512 6 -12.7512 6 -6.50116C6 -0.251162 6 12.5 6 12.5L-6 12.5C-6 12.5 -5.1645 -0.251163 -5.1645 -6.50116Z"></path>
  <path fill="none" stroke="#161616" stroke-width="0.5" stroke-linecap="round" stroke-linejoin="round" transform="matrix(3.5224 -0.691401 0.691401 3.5224 199.787 47.2872)" d="M-4.58298e-07 3.8412e-06L3.3564e-06 10.5382"></path>
  <path fill="#503F7E" transform="matrix(1.53139 0 0 1.39334 226.982 140.141)" d="M0 -40C20.9426 -40 35.0096 -26.8589 47.8597 -2.20018C49.1253 -3.81499 50.3123 -3.57653 51.1974 -3.11682C52.0824 -2.65711 52.5509 -1.60562 52.2206 -0.665342C53.8523 0.0631991 55.2854 1.47333 55.8775 2.67698C56.9197 4.79566 57.6743 10.5072 53.7931 11.8212C58.5977 31.9882 20.3682 22.0914 -1.32962e-05 22.0914C-20.2357 22.0914 -45.0732 28.3281 -41.8836 12.9784C-44.6787 11.8212 -48.2008 8.95144 -46.5316 4.29175C-45.7036 1.98006 -43.8185 0.567089 -42.3936 0.566997C-41.0392 0.56691 -42.9934 -2.2 -40.2188 -3.81491C-39.0195 -4.51291 -37.7273 -4.43211 -36.6068 -4.12355C-28.0141 -23.7311 -20.4124 -40 0 -40Z"></path>
  <clipPath id="cl_392">
    <path d="M226.982 84.4073C259.053 84.4073 280.595 102.717 300.273 137.075C302.211 134.825 304.029 135.158 305.384 135.798C306.74 136.439 307.457 137.904 306.951 139.214C309.45 140.229 311.645 142.194 312.552 143.871C314.148 146.823 315.303 154.781 309.359 156.612C316.717 184.712 258.173 170.922 226.981 170.922C195.993 170.922 157.957 179.612 162.842 158.224C158.561 156.612 153.168 152.614 155.724 146.121C156.992 142.9 159.879 140.931 162.061 140.931C164.135 140.931 161.142 137.076 165.391 134.826C167.228 133.853 169.206 133.966 170.922 134.396C184.081 107.076 195.722 84.4073 226.982 84.4073Z"></path>
  </clipPath>
  <g clip-path="url(#cl_392)">
    <path fill="#7463A5" transform="matrix(1.8 2.98023e-08 0.00759348 1.8 222.983 131.789)" d="M1.90735e-06 -5.5C3.866 -5.5 7 -2.92564 7 0.25C7 3.42564 3.866 6 1.90735e-06 6C-3.86599 6 -7 3.42564 -7 0.25C-7 -2.92564 -3.86599 -5.5 1.90735e-06 -5.5Z"></path>
    <path fill="#7463A5" transform="matrix(1.83618 3.04014e-08 0.00759348 1.8 275.532 123.643)" d="M9.53674e-07 -5C2.76142 -5 5 -2.6495 5 0.25C5 3.1495 2.76142 5.5 9.53674e-07 5.5C-2.76142 5.5 -5 3.1495 -5 0.25C-5 -2.6495 -2.76142 -5 9.53674e-07 -5Z"></path>
    <path fill="none" stroke="#131212" stroke-width="1" stroke-linecap="round" stroke-linejoin="round" transform="matrix(2.30699 -0.373724 0.274137 1.69224 253.763 116.948)" d="M1.44192e-06 -4.14104e-07L2.92891 -0.714567"></path>
    <path fill="none" stroke="#131212" stroke-width="1" stroke-linecap="round" stroke-linejoin="round" transform="matrix(2.30699 -0.373724 0.274137 1.69224 232.012 116.118)" d="M-2.38419e-07 -7.77785e-06L4.25731 1.79212"></path>
    <path fill="#131212" transform="matrix(2.47104 -0.400299 0.405754 2.50471 245.797 119.228)" d="M-2.27592e-08 -2.15485e-07L1.9614 0.352738L0.91509 1.42246L-2.27592e-08 -2.15485e-07Z"></path>
    <path fill="none" stroke="#131212" stroke-width="0.5" stroke-linecap="round" stroke-linejoin="round" transform="matrix(1.93759 -0.313883 0.31816 1.96399 248.857 122.763)" d="M1.0721e-06 -0.711224L-2.76974e-06 1.1102"></path>
    <path fill="#32225E" transform="matrix(1.74285 0.441491 -0.424043 1.74552 242.645 111.362)" d="M-1.93607e-06 -1.92715C1.6285 -1.92715 2.94867 -1.06433 2.94867 7.58546e-06C2.94867 1.06435 1.6285 1.92716 -1.87863e-06 1.92716C-1.62851 1.92716 -2.94867 1.06435 -2.94867 7.67333e-06C-2.94867 -1.06433 -1.62851 -1.92715 -1.93607e-06 -1.92715Z"></path>
    <path fill="#32225E" transform="matrix(1.71213 0.433708 -0.412468 1.69787 253.838 110.488)" d="M-1.90735e-06 -1.89919C0.889987 -1.89919 1.61147 -1.04889 1.61147 -2.40127e-08C1.61147 1.04889 0.889987 1.89919 -1.90735e-06 1.89919C-0.889991 1.89919 -1.61147 1.04889 -1.61147 2.40127e-08C-1.61147 -1.04889 -0.889991 -1.89919 -1.90735e-06 -1.89919Z"></path>
  </g>
  <path fill="none" stroke="black" stroke-width="6" stroke-linejoin="round" transform="matrix(1.8 0 0 1.8 170.253 271.209)" d="M4.16449 30.5677C-35.1954 25.1904 -26.6 -37.7252 12.7599 -32.3479C29.5239 -30.0576 56.525 -28.0266 73.9736 -26.2922C80.1043 -25.6828 90.5226 -16.0954 88.4931 7.05746C86.4636 30.2103 74.7543 37.5983 69.9758 37.1233C52.4249 35.3788 16.5359 32.2578 4.16449 30.5677Z"></path>
  <path fill="none" stroke="black" stroke-width="6" stroke-linecap="round" stroke-linejoin="bevel" transform="matrix(1.8 0 0 1.67094 170.253 180.961)" d="M37.3703 32.1783C38.5705 39.9949 39.6041 46.7269 40.1376 50.2011C46.645 92.5819 -16.0102 103.703 -22.5176 61.3223C-24.1511 50.6835 -27.1539 31.127 -29.0453 18.8087C-30.9368 6.49035 -27.4612 -12.2067 -11.5969 -15.0334C-9.96173 -15.3248 -8.45537 -15.5932 -7.06101 -15.8416"></path>
  <path fill="#503F7E" transform="matrix(1.8 0 0 1.67094 170.253 180.961)" d="M-29.0453 18.8087C-30.9368 6.49035 -27.4612 -12.2067 -11.5969 -15.0334C4.26736 -17.8601 8.00647 -18.5263 14.976 -19.7682C21.9456 -21.01 29.6166 -18.3194 31.9953 -2.82785C34.3739 12.6637 38.8084 41.5446 40.1376 50.2011C45.8615 87.4797 -16.7936 98.6008 -22.5176 61.3223C-24.1511 50.6835 -27.1539 31.127 -29.0453 18.8087Z"></path>
  <path fill="none" stroke="black" stroke-width="4" stroke-linejoin="round" transform="matrix(1.8 0 0 1.8 352.158 173.563)" d="M-11.7479 -12.9046C-11.318 -13.5165 -10.7601 -14.1187 -10.0572 -14.7065C-5.47351 -18.5399 3.93804 -16.1165 4.43081 -14.7065C7.46664 -16.1165 10.8961 -16.6614 15.0174 -13.9738C19.1387 -11.2862 16.2386 -4.86793 16.6118 -4.55444C16.985 -4.24095 25.2116 0.494543 17.5976 8.33766C16.6439 8.92035 15.7365 9.39702 14.8735 9.77867"></path>
  <path fill="#7463A5" transform="matrix(1.8 0 0 1.8 352.158 173.563)" d="M-0.116455 0C-2.60165 -0.66394 -7.05858 1.11792 -10.0572 -2.65576C-13.0559 -6.42944 -14.6409 -10.8732 -10.0572 -14.7065C-5.47351 -18.5399 3.93804 -16.1165 4.43081 -14.7065C7.46664 -16.1165 10.8961 -16.6614 15.0174 -13.9738C19.1387 -11.2862 16.2386 -4.86793 16.6118 -4.55444C16.985 -4.24095 25.2116 0.494543 17.5976 8.33766C2.9012 17.3171 -0.809986 1.11792 -0.116455 0Z"></path>
  <path fill="#503F7E" transform="matrix(1.8 0 0 1.8 170.253 271.209)" d="M4.16449 30.5677C-36.8301 24.9671 -28.2347 -37.9485 12.7599 -32.3479C29.5239 -30.0576 56.525 -28.0266 73.9736 -26.2922C80.1043 -25.6828 90.5226 -16.0954 88.4931 7.05746C86.4636 30.2103 74.7543 37.5983 69.9758 37.1233C52.4249 35.3788 16.5359 32.2578 4.16449 30.5677Z"></path>
  <path fill="#312F2F" transform="matrix(0.533401 0.053019 -0.0632178 0.636007 292.162 271.415)" d="M0 -128C70.6925 -128 128 -70.6924 128 -1.90735e-06C128 70.6924 70.6925 128 0 128C-70.6925 128 -128 70.6924 -128 -1.90735e-06C-128 -70.6924 -70.6925 -128 0 -128Z"></path>
  <path fill="none" stroke="black" stroke-width="7" stroke-miterlimit="4" transform="translate(256 256)" d="M56.3382 -64.7928C94.0456 -61.0447 120.991 -21.5583 116.522 23.4025C112.053 68.3634 77.8618 101.773 40.1544 98.0249C2.44699 94.2769 -24.498 54.7905 -20.029 9.82965C-15.56 -35.1312 18.6307 -68.5408 56.3382 -64.7928Z"></path>
  <path fill="none" stroke="black" stroke-width="7" stroke-linejoin="round" transform="translate(256 256)" d="M56.3382 -64.7928C56.3382 -64.7928 46.6701 -65.7537 44.7206 -65.9475C14.0535 -68.1584 -26.0618 -52.2518 -32.1131 8.62851C-38.1645 69.5089 4.60023 94.4909 28.0703 96.8238C30.0198 97.0175 40.1544 98.0249 40.1544 98.0249C39.6219 97.972 39.0532 97.8932 38.4514 97.7881"></path>
  <path fill="#8D5A3E" transform="matrix(0.533401 0.053019 -0.0632178 0.636007 304.246 272.616)" d="M0 -128C70.6925 -128 128 -70.6924 128 0C128 70.6924 70.6925 128 0 128C-70.6925 128 -128 70.6924 -128 0C-128 -70.6924 -70.6925 -128 0 -128Z"></path>
  <path fill="#4B2713" transform="matrix(0.533401 0.053019 -0.0632178 0.636007 307.777 272.325)" d="M0.25 -87.5C51.4744 -87.5 93 -48.4368 93 -0.249998C93 47.9368 51.4744 87 0.25 87C-50.9744 87 -92.5 47.9368 -92.5 -0.249998C-92.5 -48.4368 -50.9744 -87.5 0.25 -87.5Z"></path>
  <path fill="#693920" transform="matrix(0.533401 0.053019 -0.0632178 0.636007 304.246 272.616)" d="M0 -86C47.4965 -86 86 -47.4965 86 0C86 47.4965 47.4965 86 0 86C-47.4965 86 -86 47.4965 -86 0C-86 -47.4965 -47.4965 -86 0 -86Z"></path>
  <path fill="#1F0D04" transform="matrix(1.37783 0.650869 -0.596083 1.66077 288.97 279.092)" d="M-1.90735e-06 -6.1709C3.40809 -6.1709 6.1709 -3.40809 6.1709 2.38419e-07C6.1709 3.40809 3.40809 6.1709 -1.90735e-06 6.1709C-3.40809 6.1709 -6.1709 3.40809 -6.1709 2.38419e-07C-6.1709 -3.40809 -3.40809 -6.1709 -1.90735e-06 -6.1709Z"></path>
  <clipPath id="cl_39a">
    <path d="M292.648 268.844C297.344 271.062 299.504 277.449 297.472 283.109C295.441 288.769 289.987 291.559 285.291 289.341C280.596 287.122 278.436 280.736 280.467 275.076C282.499 269.416 287.952 266.625 292.648 268.844Z"></path>
  </clipPath>
  <g clip-path="url(#cl_39a)">
    <path fill="#2F1507" transform="matrix(1.37783 0.650869 -0.596083 1.66077 286.454 281.044)" d="M1.90735e-06 -6.1709C3.40809 -6.1709 6.1709 -3.40809 6.1709 4.76837e-07C6.1709 3.40809 3.40809 6.1709 1.90735e-06 6.1709C-3.40809 6.1709 -6.1709 3.40809 -6.1709 4.76837e-07C-6.1709 -3.40809 -3.40809 -6.1709 1.90735e-06 -6.1709Z"></path>
  </g>
  <path fill="#1F0D04" transform="matrix(1.37783 0.650869 -0.596083 1.66077 297.772 254.569)" d="M-1.90735e-06 -6.1709C3.40809 -6.1709 6.1709 -3.40809 6.1709 0C6.1709 3.40809 3.40809 6.1709 -1.90735e-06 6.1709C-3.40809 6.1709 -6.1709 3.40809 -6.1709 0C-6.1709 -3.40809 -3.40809 -6.1709 -1.90735e-06 -6.1709Z"></path>
  <clipPath id="cl_39b">
    <path d="M301.45 244.32C306.146 246.538 308.306 252.925 306.274 258.585C304.243 264.245 298.789 267.035 294.093 264.817C289.398 262.599 287.238 256.212 289.269 250.552C291.301 244.892 296.754 242.102 301.45 244.32Z"></path>
  </clipPath>
  <g clip-path="url(#cl_39b)">
    <path fill="#2F1507" transform="matrix(1.37783 0.650869 -0.596083 1.66077 294.799 257.793)" d="M-1.90735e-06 -6.1709C3.40809 -6.1709 6.1709 -3.40809 6.1709 -9.53674e-07C6.1709 3.40809 3.40809 6.1709 -1.90735e-06 6.1709C-3.40809 6.1709 -6.1709 3.40809 -6.1709 -9.53674e-07C-6.1709 -3.40809 -3.40809 -6.1709 -1.90735e-06 -6.1709Z"></path>
  </g>
  <path fill="#1F0D04" transform="matrix(1.37783 0.650869 -0.596083 1.66077 310.666 289.341)" d="M-3.8147e-06 -6.1709C3.40809 -6.1709 6.17089 -3.40809 6.17089 -2.38419e-07C6.17089 3.40809 3.40809 6.1709 -3.8147e-06 6.1709C-3.4081 6.1709 -6.1709 3.40809 -6.1709 -2.38419e-07C-6.1709 -3.40809 -3.4081 -6.1709 -3.8147e-06 -6.1709Z"></path>
  <clipPath id="cl_39c">
    <path d="M314.344 279.093C319.04 281.311 321.2 287.697 319.168 293.357C317.137 299.018 311.683 301.808 306.987 299.589C302.292 297.371 300.132 290.985 302.163 285.325C304.195 279.665 309.648 276.874 314.344 279.093Z"></path>
  </clipPath>
  <g clip-path="url(#cl_39c)">
    <path fill="#2F1507" transform="matrix(1.37783 0.650869 -0.596083 1.66077 308.797 290.627)" d="M0 -6.1709C3.40809 -6.1709 6.1709 -3.40809 6.1709 0C6.1709 3.40809 3.40809 6.1709 0 6.1709C-3.40809 6.1709 -6.1709 3.40809 -6.1709 0C-6.1709 -3.40809 -3.40809 -6.1709 0 -6.1709Z"></path>
  </g>
  <path fill="#1F0D04" transform="matrix(1.37783 0.650869 -0.596083 1.66077 319.468 264.818)" d="M0 -6.1709C3.40809 -6.1709 6.1709 -3.40809 6.1709 0C6.1709 3.40809 3.40809 6.1709 0 6.1709C-3.40809 6.1709 -6.1709 3.40809 -6.1709 0C-6.1709 -3.40809 -3.40809 -6.1709 0 -6.1709Z"></path>
  <clipPath id="cl_39d">
    <path d="M323.146 254.569C327.842 256.787 330.002 263.174 327.97 268.834C325.939 274.494 320.485 277.284 315.789 275.066C311.094 272.848 308.934 266.461 310.965 260.801C312.997 255.141 318.45 252.351 323.146 254.569Z"></path>
  </clipPath>
  <g clip-path="url(#cl_39d)">
    <path fill="#2F1507" transform="matrix(1.37783 0.650869 -0.596083 1.66077 315.764 266.726)" d="M-1.83907e-07 -6.1709C3.40809 -6.1709 6.1709 -3.40809 6.1709 1.83907e-07C6.1709 3.40809 3.40809 6.1709 1.83907e-07 6.1709C-3.40809 6.1709 -6.1709 3.40809 -6.1709 -1.83907e-07C-6.1709 -3.40809 -3.40809 -6.1709 -1.83907e-07 -6.1709Z"></path>
  </g>
  <path fill="none" stroke="#E3CEC2" stroke-width="4" stroke-linecap="round" stroke-linejoin="round" transform="matrix(1.37783 0.650869 -0.596083 1.66077 296.792 253.663)" d="M2.42519 2.41434L15.2044 14.4568"></path>
  <path fill="none" stroke="#C8AD9D" stroke-width="4" stroke-linecap="round" stroke-linejoin="round" transform="matrix(1.37783 0.650869 -0.596083 1.66077 296.792 253.663)" d="M3.28776 13.1788L15.6779 1.98902"></path>
  <path fill="#4B2713" transform="matrix(0.636007 0.0632178 -0.0632178 0.636007 312.338 191.207)" d="M0 -1.52588e-05C0 -1.52588e-05 -15.2012 -7.62939e-06 -18.2664 0C-66.3551 1.3037 -126.35 32.2772 -126.35 128C-126.35 223.723 -55.9022 256 -19 256C-15.9348 256 -3.8147e-06 256 0 256C-25.5439 256 -107.35 223.723 -107.35 128C-107.35 32.2772 -25.5439 -2.28882e-05 0 -1.52588e-05Z"></path>
</svg>