<?xml version="1.0" encoding="utf-8"?>
<svg xmlns="http://www.w3.org/2000/svg" xmlns:xlink="http://www.w3.org/1999/xlink" width="512" height="512">
  <path fill="none" stroke="black" stroke-width="7" stroke-linejoin="round" transform="matrix(1.8 3.72529e-09 -3.72529e-09 1.8 210.879 409.868)" d="M-0.337797 -46.2356C17.8865 -46.0374 30.4349 -38.6445 30.273 5.64478C30.6083 34.6603 23.2656 44.6824 12.7486 44.4192C2.23168 44.1559 -6.40727 44.2622 -16.7404 44.3474C-27.2033 44.2531 -32.5894 33.116 -32.9244 4.08733C-33.0498 -42.4091 -18.5621 -46.4337 -0.337797 -46.2356Z"></path>
  <path fill="none" stroke="black" stroke-width="7" stroke-linejoin="round" transform="matrix(-2.15345 -3.29802e-07 -3.27096e-07 2.13577 356.081 273.696)" d="M9.25975 -58.8883C12.6294 -54.3935 18.756 -39.2467 18.7132 -35.3193C18.6704 -31.392 23.0704 -22.4774 21.7906 1.85769C20.5747 30.7216 16.1415 53.811 -9.12269 52.8908C-24.9798 52.2117 -36.4526 28.2794 -35.2367 -0.584486C-33.7123 -36.7715 -8.01911 -65.1545 9.25975 -58.8883Z"></path>
  <path fill="none" stroke="black" stroke-width="7" stroke-linejoin="round" transform="matrix(1.79976 0.0293645 -0.0293645 1.79976 266.376 274.862)" d="M0.209625 -80.0966C37.3348 -80.0966 84.5 -60 84.5 9.53674e-07C84.5 41.1452 46.7396 76.2788 0.209625 76.2788C-62.1658 76.2788 -84 60.12 -84 9.53674e-07C-84 -71.2881 -50.5087 -80.0966 0.209625 -80.0966Z"></path>
  <path fill="none" stroke="black" stroke-width="7" stroke-linejoin="round" transform="matrix(1.53671 3.18039e-09 -3.72529e-09 1.8 308.979 398.168)" d="M1.69782 -47.9217C19.9082 -48.553 35.5967 -42.1824 37.7624 7.35774C38.8039 21.1846 33.6592 45.0863 19.9852 45.3762C6.31119 45.6661 0.177448 45.7962 -12.0208 46.0548C-24.2191 46.3134 -27.1417 23.4709 -28.1833 9.64398C-30.7637 -42.0743 -16.5126 -47.2904 1.69782 -47.9217Z"></path>
  <path fill="#6C88D9" transform="matrix(-2.15345 -3.29802e-07 -3.27096e-07 2.13577 356.081 273.696)" d="M9.25975 -58.8883C12.6294 -54.3935 18.756 -39.2467 18.7132 -35.3193C18.6704 -31.392 23.0704 -22.4774 21.7906 1.85769C20.5747 30.7216 16.1415 53.811 -9.12269 52.8908C-24.9798 52.2117 -36.4526 28.2794 -35.2367 -0.584486C-33.7123 -36.7715 -8.01911 -65.1545 9.25975 -58.8883Z"></path>
  <path fill="#5170C8" transform="matrix(1.53671 3.18039e-09 -3.72529e-09 1.8 308.979 398.168)" d="M1.69782 -47.9217C19.9082 -48.553 35.5967 -42.1824 37.7624 7.35774C38.8039 21.1846 33.6592 45.0863 19.9852 45.3762C6.31119 45.6661 0.177448 45.7962 -12.0208 46.0548C-24.2191 46.3134 -27.1417 23.4709 -28.1833 9.64398C-30.7637 -42.0743 -16.5126 -47.2904 1.69782 -47.9217Z"></path>
  <path fill="#839BE0" transform="matrix(1.20328 2.49031e-09 -2.91698e-09 1.40944 308.979 398.168)" d="M2.77226 -48.5042C20.9826 -49.1355 36.1238 -42.6623 38.6299 11.3623C38.9755 29.2948 30.7148 44.6533 17.0408 44.9432C3.3668 45.2331 3.54312 45.2799 -8.65513 45.5386C-20.8534 45.7972 -26.9702 31.581 -27.3156 13.6485C-30.2366 -42.5542 -15.4382 -47.8729 2.77226 -48.5042Z"></path>
  <path fill="#6C88D9" transform="matrix(1.8 3.72529e-09 -3.72529e-09 1.8 210.879 409.868)" d="M-0.337797 -46.2356C17.8865 -46.0374 30.4349 -38.6445 30.273 5.64478C30.6083 34.6603 23.2656 44.6824 12.7486 44.4192C2.23168 44.1559 -6.40727 44.2622 -16.7404 44.3474C-27.2033 44.2531 -32.5894 33.116 -32.9244 4.08733C-33.0498 -42.4091 -18.5621 -46.4337 -0.337797 -46.2356Z"></path>
  <path fill="#91A8EB" transform="matrix(-1.67686 -2.56813e-07 -3.2026e-07 2.09114 352.092 267.983)" d="M8.51648 -52.4666C30.6648 -51.7122 22.4548 -27.1394 19.3071 1.37084C16.1594 29.8811 3.03846 52.8086 -12.4116 52.2824C-27.8617 51.7562 -38.7684 28.0825 -37.2486 -0.61041C-35.7288 -29.3034 -13.6318 -53.2209 8.51648 -52.4666Z"></path>
  <path fill="none" stroke="black" stroke-width="7" stroke-miterlimit="4" transform="matrix(1.79976 0.0293645 -0.0293645 1.79976 214.035 112.429)" d="M3.8147e-06 -29.5C19.0538 -29.5 34.5 -16.1805 34.5 0.25C34.5 16.6805 19.0538 30 3.8147e-06 30C-19.0538 30 -34.5 16.6805 -34.5 0.25C-34.5 -16.1805 -19.0538 -29.5 3.8147e-06 -29.5Z"></path>
  <path fill="none" stroke="black" stroke-width="7" stroke-linejoin="round" transform="translate(256 256)" d="M-35.752 -164.18L-29.0389 -171.565C-29.0389 -171.565 11.8211 -108.794 8.01568 -105.384C8.01568 -105.384 7.37574 -104.814 6.40649 -103.95"></path>
  <path fill="none" stroke="black" stroke-width="7" stroke-linejoin="round" transform="translate(256 256)" d="M-3.91006 -106.415C-9.29319 -121.071 -24.5138 -146.238 -31.7869 -157.904"></path>
  <path fill="none" stroke="black" stroke-width="7" stroke-linejoin="round" transform="translate(256 256)" d="M7.12182 -104.606C4.46228 -102.222 2.44384 -100.413 -4.40443 -94.2743C-10.659 -88.6679 -93.1028 -142.96 -98.4782 -145.209C-98.7861 -150.068 -95.987 -154.312 -88.6862 -156.641C-68.879 -140.633 -0.899162 -97.4164 7.8407 -105.251C7.59367 -105.029 7.35528 -104.815 7.12183 -104.606"></path>
  <path fill="#6C88D9" transform="matrix(1.79976 0.0293645 -0.0293645 1.79976 266.376 274.862)" d="M0.209625 -80.0966C37.3348 -80.0966 84.5 -60 84.5 9.53674e-07C84.5 41.1452 46.7396 76.2788 0.209625 76.2788C-62.1658 76.2788 -84 60.12 -84 9.53674e-07C-84 -71.2881 -50.5087 -80.0966 0.209625 -80.0966Z"></path>
  <path fill="#3A6D3D" transform="matrix(0.605664 -0.524085 0.698428 0.807145 152.405 104.259)" d="M74.2156 32.7782L86.5869 31.6617C86.5869 31.6617 73.8823 101.182 67.5039 101.265C67.5039 101.265 49.336 101.463 49.336 101.463C61.2865 101.485 74.2156 32.7782 74.2156 32.7782Z"></path>
  <path fill="none" stroke="black" stroke-width="7" stroke-miterlimit="4" transform="translate(256 256)" d="M-75.7229 -176.846C-49.7992 -199.278 -23.9989 -211.933 -18.0963 -205.111C-12.1936 -198.29 -28.4239 -174.575 -54.3476 -152.143C-80.2713 -129.711 -106.072 -117.056 -111.974 -123.878C-117.877 -130.699 -101.647 -154.414 -75.7229 -176.846Z"></path>
  <path fill="#585555" transform="matrix(0.605664 -0.524085 0.138801 0.160406 190.965 91.5055)" d="M0 -77.0001C42.8021 -77.0001 77.5 -42.526 77.5 -6.10352e-05C77.5 42.5259 42.8021 76.9999 0 76.9999C-42.8021 76.9999 -77.5 42.5259 -77.5 -6.10352e-05C-77.5 -42.526 -42.8021 -77.0001 0 -77.0001Z"></path>
  <path fill="none" stroke="black" stroke-width="7" stroke-linejoin="round" transform="translate(256 256)" d="M-144.588 -199.115L-108.407 -134.039"></path>
  <path fill="none" stroke="black" stroke-width="7" stroke-linejoin="round" transform="translate(256 256)" d="M-17.4065 -194.455L-87.8672 -248.196L-104.966 -233.4"></path>
  <path fill="none" stroke="black" stroke-width="8" stroke-miterlimit="4" transform="translate(256 256)" d="M-124.585 -233.314C-108.922 -246.867 -92.4831 -253.53 -87.8672 -248.196C-83.2513 -242.861 -92.2067 -227.55 -107.87 -213.996C-123.533 -200.443 -139.972 -193.781 -144.588 -199.115C-149.204 -204.449 -140.248 -219.761 -124.585 -233.314Z"></path>
  <path fill="#9C4040" transform="matrix(0.605664 -0.524085 0.524085 0.605664 97.3172 52.8339)" d="M9.99828 15.3403L-13.0685 125.78L126.715 125.78L103.648 15.3403L9.99828 15.3403Z"></path>
  <path fill="none" stroke="black" stroke-width="7" stroke-miterlimit="4" transform="translate(256 256)" d="M-68.9098 -168.972C-42.9861 -191.404 -17.1858 -204.059 -11.2832 -197.237C-5.38054 -190.416 -21.6108 -166.702 -47.5345 -144.27C-73.4582 -121.838 -99.2585 -109.183 -105.161 -116.004C-111.064 -122.826 -94.8335 -146.54 -68.9098 -168.972Z"></path>
  <path fill="none" stroke="black" stroke-width="7" stroke-linejoin="round" transform="translate(256 256)" d="M-105.161 -116.004C-105.161 -116.004 -112.006 -123.915 -112.006 -123.915C-113.64 -125.803 -113.532 -129.05 -111.98 -133.217"></path>
  <path fill="none" stroke="black" stroke-width="7" stroke-linejoin="round" transform="translate(256 256)" d="M-18.7192 -205.711C-18.5039 -205.542 -18.3067 -205.354 -18.1282 -205.148C-18.1282 -205.148 -12.3779 -198.503 -11.4182 -197.394"></path>
  <path fill="#611E1E" transform="matrix(0.605664 -0.524085 0.138801 0.160406 197.778 99.3791)" d="M0.749693 55.1992C17.8705 55.1992 66.8714 46.0031 69.8043 0.434675C69.9644 -2.05384 77.4999 -10.588 77.5 0C77.5 42.5259 42.8021 77 0 77C-42.8021 77 -77.5 42.5259 -77.5 0C-76.7271 -10.3619 -70.1795 -1.22879 -69.733 1.90431C-67.4205 42.6838 -17.7408 55.1992 0.749693 55.1992Z"></path>
  <defs>
    <linearGradient id="gradient_0" gradientUnits="userSpaceOnUse" x1="8.5369253" y1="175.39754" x2="0.96320713" y2="-480.78424">
      <stop offset="0" stop-color="#583636"></stop>
      <stop offset="0.015997024" stop-color="#583636"></stop>
      <stop offset="0.98742092" stop-color="#EE1010"></stop>
      <stop offset="1" stop-color="#EE1010"></stop>
    </linearGradient>
  </defs>
  <path fill="url(#gradient_0)" transform="matrix(0.656294 -0.567895 0.119878 0.138539 197.778 99.3791)" d="M0 -64C35.6224 -64 64.5 -35.3462 64.5 1.5378e-05C64.5 35.3462 35.6224 64 0 64C-35.6224 64 -64.5 35.3462 -64.5 -1.5378e-05C-64.5 -35.3462 -35.6224 -64 0 -64Z"></path>
  <path fill="#6C88D9" transform="matrix(1.79976 0.0293645 -0.0293645 1.79976 214.035 112.429)" d="M3.8147e-06 -29.5C19.0538 -29.5 34.5 -16.1805 34.5 0.25C34.5 16.6805 19.0538 30 3.8147e-06 30C-19.0538 30 -34.5 16.6805 -34.5 0.25C-34.5 -16.1805 -19.0538 -29.5 3.8147e-06 -29.5Z"></path>
  <path fill="#91A8EB" transform="matrix(1.50913 0.0246226 -0.0246226 1.50913 265.012 274.862)" d="M0.24998 -81.5196C49.8787 -81.2985 84.5 -60 84.5 -9.53674e-07C84.5 41.1452 46.78 74.5 0.25 74.5C-62.1254 74.5 -84 60.12 -84 -9.53674e-07C-84 -71.2881 -62.1254 -81.5196 0.24998 -81.5196Z"></path>
  <clipPath id="cl_75">
    <path d="M269.105 130.713C335.922 131.803 420.218 169.357 418.456 277.343C417.248 351.394 348.256 413.518 264.513 412.151C152.253 410.32 113.431 380.597 115.196 272.395C117.289 144.094 177.824 129.224 269.105 130.713Z"></path>
  </clipPath>
  <g clip-path="url(#cl_75)">
    <path fill="#A6B8EF" transform="matrix(0.805953 0.0131497 -0.0151654 0.929491 298.921 239.74)" d="M0.249972 -81.5196C49.8787 -81.2985 84.5 -60 84.5 0C84.5 41.1452 67.1354 74.5 20.6054 74.5C-41.77 74.5 -84 60.12 -84 0C-84 -71.2881 -62.1254 -81.5197 0.249972 -81.5196Z"></path>
    <path fill="#C1CBE8" transform="matrix(0.197995 -0.202726 0.445703 0.435301 322.021 190.891)" d="M11.5671 -77.0972C58.0971 -77.0972 97.5959 -41.1452 97.5959 -2.33851e-05C97.5959 41.1452 73.4188 83.0524 26.8888 83.0524C-35.4866 83.0524 11.8087 60.12 11.8087 -2.21067e-05C11.8087 -41.1452 -34.9629 -77.0972 11.5671 -77.0972Z"></path>
    <path fill="#C1CBE8" transform="matrix(0.197995 -0.202726 0.184201 0.179903 366.463 255.247)" d="M48.93 -79.7642C80.6763 -79.0529 77.4946 -42.8888 62.8508 4.00568C48.2069 50.9002 -0.0393895 91.2964 -20.4536 67.777C-40.8678 44.2577 -16.8141 31.8032 -0.458961 -5.13878C15.8962 -42.0808 17.1838 -80.4755 48.93 -79.7642Z"></path>
  </g>
  <path fill="#91A8EB" transform="matrix(1.37947 2.85496e-09 -2.85496e-09 1.37947 210.879 346.868)" d="M-0.592758 -0.681915C17.6316 -0.483788 31.2433 -1.12736 31.1318 50.3662C30.681 75.8502 23.0409 90.3574 12.524 90.0941C2.00701 89.8309 -6.63195 89.9371 -16.9651 90.0222C-27.3452 90.0345 -34.7368 73.2657 -34.2859 47.7816C-34.4616 -5.91925 -18.8171 -0.880074 -0.592758 -0.681915Z"></path>
  <path fill="#91A8EB" transform="matrix(1.79976 0.0293645 -0.0293645 1.79976 214.035 112.429)" d="M3.8147e-06 -22.5C14.6356 -22.5 26.5 -12.3145 26.5 0.25C26.5 12.8145 14.6356 23 3.8147e-06 23C-14.6355 23 -26.5 12.8145 -26.5 0.25C-26.5 -12.3145 -14.6355 -22.5 3.8147e-06 -22.5Z"></path>
  <path fill="#1B2B56" transform="matrix(1.78669 -0.21848 0.065544 0.536007 226.046 89.3047)" d="M-1.43982e-06 -2.5C1.38071 -2.5 2.5 -1.38071 2.5 0C2.5 1.38071 1.38071 2.5 -1.4212e-06 2.5C-1.38071 2.5 -2.5 1.38071 -2.5 0C-2.5 -1.38071 -1.38071 -2.5 -1.43982e-06 -2.5Z"></path>
  <path fill="none" stroke="#1B2B56" stroke-width="0.5" stroke-linecap="round" stroke-linejoin="round" transform="matrix(1.78289 -0.247598 0.247598 1.78289 234.69 88.1931)" d="M1.98548 0.277974L6.02909 0.184236"></path>
  <path fill="#1B2B56" transform="matrix(1.78669 -0.21848 0.065544 0.536007 254.633 85.8089)" d="M-9.62988e-07 -2.5C1.38071 -2.5 2.5 -1.38071 2.5 0C2.5 1.38071 1.38071 2.5 -9.44361e-07 2.5C-1.38071 2.5 -2.5 1.38071 -2.5 0C-2.5 -1.38071 -1.38071 -2.5 -9.62988e-07 -2.5Z"></path>
  <path fill="#354B89" transform="matrix(1.45897 -0.895021 0.934518 0.718834 246.567 78.6843)" d="M7.7039e-06 -2.5C1.38072 -2.5 2.50001 -1.38071 2.50001 0C2.50001 1.38071 1.38072 2.5 7.55489e-06 2.5C-1.3807 2.5 -2.49999 1.38071 -2.49999 0C-2.49999 -1.38071 -1.3807 -2.5 7.7039e-06 -2.5Z"></path>
  <path fill="#354B89" transform="matrix(2.16453 0.282115 -0.62247 1.07759 231.327 79.7132)" d="M3.8147e-06 -2.98532C1.68306 -2.98532 3.04744 -1.64874 3.04744 1.52588e-05C3.04744 1.64877 1.68306 2.98535 3.8147e-06 2.98535C-1.68305 2.98535 -3.04744 1.64877 -3.04744 1.52588e-05C-3.04744 -1.64874 -1.68305 -2.98532 3.8147e-06 -2.98532Z"></path>
  <clipPath id="cl_78">
    <path d="M267.396 151.844C342.287 153.4 394.01 186.395 392.533 276.942C391.52 339.036 333.774 388.444 263.554 387.298C169.422 385.762 136.764 363.522 138.245 272.793C140 165.21 173.264 150.308 267.396 151.844Z" clip-rule="evenodd"></path>
  </clipPath>
  <g clip-path="url(#cl_78)">
    <path fill="#3A6D3D" transform="matrix(0.605664 -0.524085 0.698428 0.807145 152.405 104.259)" d="M74.2156 32.7782L86.5869 31.6617C86.5869 31.6617 73.8823 101.182 67.5039 101.265C67.5039 101.265 49.336 101.463 49.336 101.463C61.2865 101.485 74.2156 32.7782 74.2156 32.7782Z"></path>
  </g>
  <path fill="#9C4040" transform="matrix(0.365938 -0.316649 0.108543 0.125439 139.773 32.3447)" d="M0 -77C42.8021 -77 77.5 -42.5259 77.5 9.23872e-06C77.5 42.5259 42.8021 77 0 77C-42.8021 77 -77.5 42.5259 -77.5 -9.23872e-06C-77.5 -42.5259 -42.8021 -77 0 -77Z"></path>
  <path fill="#C1CBE8" transform="matrix(0.167375 -0.632967 0.886841 0.234507 173.528 109.279)" d="M0 -11.5C14.6355 -11.5 28.0061 -7.98328 28.0061 -1.63201C28.0061 4.71927 15.5059 0.400186 0.870357 0.400186C-13.7652 0.400184 -26.766 4.37689 -26.766 -1.97439C-26.766 -8.32566 -14.6355 -11.5 0 -11.5Z"></path>
  <path fill="#611E1E" transform="matrix(0.605664 -0.524085 0.138801 0.160406 197.778 99.3791)" d="M0 -77C42.8021 -77 77.5 -42.5259 77.5 0C76.8894 5.3405 70.0211 3.38985 69.8079 -1.63419C68.2223 -39.0047 22.4635 -53.8416 1.14807 -53.8416C-18.1129 -53.8416 -70.7895 -39.8299 -69.4931 2.24309C-69.4637 3.19753 -74.2395 10.5248 -77.5 0C-77.5 -42.5259 -42.8021 -77 0 -77Z"></path>
  <clipPath id="cl_79">
    <path d="M111.412 56.885L155.322 135.864L239.983 62.605L168.133 7.80446L111.412 56.885Z"></path>
  </clipPath>
  <g clip-path="url(#cl_79)">
    <path fill="#BA4646" transform="matrix(0.445843 -0.385791 0.333216 0.385084 145.678 63.8291)" d="M-67.4615 -84L67.4615 -84L92.3226 83.7694L-67.4615 84L-67.4615 -84Z"></path>
  </g>
  <clipPath id="cl_7a">
    <path d="M131.415 22.6859C147.078 9.13271 163.517 2.47006 168.133 7.80447C172.749 13.1389 163.793 28.4503 148.13 42.0036C132.467 55.5568 116.028 62.2194 111.412 56.885C106.796 51.5506 115.752 36.2392 131.415 22.6859Z"></path>
  </clipPath>
  <g clip-path="url(#cl_7a)">
    <path fill="#BA4646" transform="matrix(0.445843 -0.385791 0.333216 0.385084 145.678 63.8291)" d="M-67.4615 -84L67.4615 -84L92.3226 83.7694L-67.4615 84L-67.4615 -84Z"></path>
  </g>
  <path fill="#993535" transform="matrix(0.605664 -0.524085 0.524085 0.605664 150.839 139.996)" d="M7.62939e-06 0C7.62939e-06 0 0 -13.0609 0 -13.0609C7.62939e-06 -24.308 35.8327 -33.7054 77.5 -33.393C119.167 -33.0805 155 -24.308 155 -13.0609C155 -13.0609 155 1.52588e-05 155 1.52588e-05C155 -10.5378 119.167 -20.393 77.5 -20.393C35.8327 -20.393 7.62939e-06 -10.5379 7.62939e-06 0Z"></path>
  <path fill="#669969" transform="matrix(0.605664 -0.524085 0.644995 0.745395 157.814 110.509)" d="M-0.506065 0.0225983C3.17321 -3.90973 9.28304 -5.30724 18.0791 -2.24782C23.7018 23.1815 52.5776 101.462 67.2296 101.254C62.0975 101.327 59.1898 101.368 46.7011 101.546C36.2156 101.695 2.7315 5.31647 -0.506065 0.0225983Z"></path>
  <path fill="none" stroke="black" stroke-width="7" stroke-linecap="round" stroke-linejoin="round" transform="matrix(2.15345 4.45679e-09 -4.42021e-09 2.13577 150.189 283.36)" d="M18.3382 -28.4499C19.491 -23.0443 20.8955 -14.7101 21.3254 -1.2444C23.3352 27.4897 25.1667 49.2546 0.158401 52.9868C-15.5563 55.2294 -33.4607 31.5264 -35.4728 2.76054C-36.5244 -21.4732 -25.865 -43.1088 -13.4609 -53.6506"></path>
  <path fill="#6C88D9" transform="matrix(2.15345 4.45679e-09 -4.42021e-09 2.13577 150.189 283.36)" d="M6.25748 -59.7955C9.81144 -55.4473 16.5639 -40.5735 16.6849 -36.6478C16.8058 -32.7221 20.5701 -24.9047 21.3254 -1.2444C23.3352 27.4897 25.1667 49.2546 0.158401 52.9868C-15.5563 55.2294 -33.4607 31.5264 -35.4728 2.76054C-37.082 -34.3236 -11.2673 -65.3239 6.25748 -59.7955Z"></path>
  <path fill="#91A8EB" transform="matrix(1.67686 3.47045e-09 -4.32784e-09 2.09114 154.179 277.647)" d="M4.92103 -53.3639C27.0892 -53.3566 17.2879 -29.6708 18.0157 -2.10879C20.6805 26.2196 20 48.7315 4.99284 51.7232C-10.0143 54.7149 -33.4734 31.5784 -37.7692 3.28213C-40.4613 -26.5064 -17.2472 -53.3712 4.92103 -53.3639Z"></path>
  <path fill="none" stroke="white" stroke-width="5" stroke-linecap="round" stroke-linejoin="round" transform="matrix(1.5 0 0 1.5 158.539 362.24)" d=""></path>
</svg>