<?xml version="1.0" encoding="utf-8"?>
<svg xmlns="http://www.w3.org/2000/svg" xmlns:xlink="http://www.w3.org/1999/xlink" width="512" height="512">
  <path fill="none" stroke="black" stroke-width="7" stroke-linejoin="round" transform="matrix(1.8 3.72529e-09 -3.72529e-09 1.8 210.879 409.868)" d="M0.317585 -46.251C18.5418 -46.0446 31.0869 -38.646 30.9048 5.64317C31.2269 34.6589 23.8797 44.6777 13.3629 44.4096C2.84604 44.1416 -5.79298 44.2439 -16.1262 44.3244C-26.589 44.2253 -31.97 33.0858 -32.2918 4.05704C-32.3961 -42.4394 -17.9066 -46.4575 0.317585 -46.251Z"></path>
  <path fill="none" stroke="black" stroke-width="7" stroke-linejoin="round" transform="matrix(-2.15345 -3.29802e-07 -3.27096e-07 2.13577 356.081 273.696)" d="M23.4597 -58.5392C26.8293 -54.0443 32.9559 -38.8976 32.9131 -34.9702C32.8703 -31.0428 37.2704 -22.1284 35.9905 2.20679C34.7746 31.0707 30.3415 54.1601 5.07727 53.2399C-10.7798 52.5608 -22.2526 28.6285 -21.0367 -0.235381C-19.5124 -36.4224 6.18082 -64.8054 23.4597 -58.5392Z"></path>
  <path fill="none" stroke="black" stroke-width="7" stroke-linejoin="round" transform="matrix(1.79976 0.0293645 -0.0293645 1.79976 266.376 274.862)" d="M0.209625 -80.0966C37.3348 -80.0966 84.5 -60 84.5 9.53674e-07C84.5 41.1452 46.7396 76.2788 0.209625 76.2788C-62.1658 76.2788 -84 60.12 -84 9.53674e-07C-84 -71.2881 -50.5087 -80.0966 0.209625 -80.0966Z"></path>
  <path fill="none" stroke="black" stroke-width="7" stroke-linejoin="round" transform="matrix(1.53671 3.18039e-09 -3.72529e-09 1.8 308.979 398.168)" d="M5.00681 -47.971C23.2272 -48.3355 38.7853 -41.736 39.9548 7.82863C40.7183 21.6687 35.0938 45.4915 21.416 45.581C7.73822 45.6706 1.60277 45.7107 -10.5989 45.7906C-22.8006 45.8705 -25.2636 22.9885 -26.0271 9.14831C-27.5675 -42.6002 -13.2136 -47.6066 5.00681 -47.971Z"></path>
  <path fill="#6C88D9" transform="matrix(-2.15345 -3.29802e-07 -3.27096e-07 2.13577 356.081 273.696)" d="M23.4597 -58.5392C26.8293 -54.0443 32.9559 -38.8976 32.9131 -34.9702C32.8703 -31.0428 37.2704 -22.1284 35.9905 2.20679C34.7746 31.0707 30.3415 54.1601 5.07727 53.2399C-10.7798 52.5608 -22.2526 28.6285 -21.0367 -0.235381C-19.5124 -36.4224 6.18082 -64.8054 23.4597 -58.5392Z"></path>
  <path fill="#5170C8" transform="matrix(1.53671 3.18039e-09 -3.72529e-09 1.8 308.979 398.168)" d="M5.00681 -47.971C23.2272 -48.3355 38.7853 -41.736 39.9548 7.82863C40.7183 21.6687 35.0938 45.4915 21.416 45.581C7.73822 45.6706 1.60277 45.7107 -10.5989 45.7906C-22.8006 45.8705 -25.2636 22.9885 -26.0271 9.14831C-27.5675 -42.6002 -13.2136 -47.6066 5.00681 -47.971Z"></path>
  <path fill="#839BE0" transform="matrix(1.20328 2.49031e-09 -2.91698e-09 1.40944 308.979 398.168)" d="M6.74285 -48.5602C24.9633 -48.9247 39.9721 -42.2305 41.3918 11.8227C41.377 29.7577 32.8087 44.9929 19.1309 45.0825C5.45304 45.172 5.62839 45.2214 -6.57331 45.3013C-18.775 45.3812 -24.6049 31.0774 -24.5901 13.1424C-26.3808 -43.0948 -11.4776 -48.1958 6.74285 -48.5602Z"></path>
  <path fill="#6C88D9" transform="matrix(1.8 3.72529e-09 -3.72529e-09 1.8 210.879 409.868)" d="M0.317585 -46.251C18.5418 -46.0446 31.0869 -38.646 30.9048 5.64317C31.2269 34.6589 23.8797 44.6777 13.3629 44.4096C2.84604 44.1416 -5.79298 44.2439 -16.1262 44.3244C-26.589 44.2253 -31.97 33.0858 -32.2918 4.05704C-32.3961 -42.4394 -17.9066 -46.4575 0.317585 -46.251Z"></path>
  <path fill="#91A8EB" transform="matrix(-1.67686 -2.56813e-07 -3.2026e-07 2.09114 352.092 267.983)" d="M26.7522 -52.11C48.9005 -51.3557 40.6905 -26.7828 37.5428 1.7274C34.3952 30.2376 21.2742 53.1652 5.8241 52.639C-9.62592 52.1127 -20.5326 28.4391 -19.0129 -0.253853C-17.4931 -28.9468 4.6039 -52.8644 26.7522 -52.11Z"></path>
  <path fill="none" stroke="black" stroke-width="7" stroke-miterlimit="4" transform="matrix(1.79976 0.0293645 -0.0293645 1.79976 225.243 112.156)" d="M-1.90735e-06 -29.5C19.0538 -29.5 34.5 -16.1805 34.5 0.25C34.5 16.6805 19.0538 30 -1.90735e-06 30C-19.0538 30 -34.5 16.6805 -34.5 0.25C-34.5 -16.1805 -19.0538 -29.5 -1.90735e-06 -29.5Z"></path>
  <path fill="none" stroke="black" stroke-width="7" stroke-linejoin="round" transform="translate(256 256)" d="M-24.5444 -164.453L-17.8314 -171.838C-17.8314 -171.838 23.0287 -109.067 19.2233 -105.657C19.2233 -105.657 18.5833 -105.087 17.614 -104.223"></path>
  <path fill="none" stroke="black" stroke-width="7" stroke-linejoin="round" transform="translate(256 256)" d="M7.29751 -106.688C1.91438 -121.344 -13.3063 -146.511 -20.5793 -158.177"></path>
  <path fill="none" stroke="black" stroke-width="7" stroke-linejoin="round" transform="translate(256 256)" d="M18.3294 -104.879C15.6699 -102.495 13.6514 -100.686 6.80315 -94.5476C0.548592 -88.9412 -81.8952 -143.233 -87.2706 -145.482C-87.5786 -150.341 -84.7794 -154.585 -77.4786 -156.915C-57.6714 -140.907 10.3084 -97.6896 19.0483 -105.524C18.8013 -105.302 18.5629 -105.089 18.3294 -104.879"></path>
  <path fill="#6C88D9" transform="matrix(1.79976 0.0293645 -0.0293645 1.79976 266.376 274.862)" d="M0.209625 -80.0966C37.3348 -80.0966 84.5 -60 84.5 9.53674e-07C84.5 41.1452 46.7396 76.2788 0.209625 76.2788C-62.1658 76.2788 -84 60.12 -84 9.53674e-07C-84 -71.2881 -50.5087 -80.0966 0.209625 -80.0966Z"></path>
  <path fill="#3A6D3D" transform="matrix(0.605664 -0.524085 0.698428 0.807145 163.613 103.985)" d="M74.2156 32.7782L86.5869 31.6617C86.5869 31.6617 73.8823 101.182 67.5039 101.264C67.5039 101.264 49.336 101.463 49.336 101.463C61.2865 101.485 74.2156 32.7782 74.2156 32.7782Z"></path>
  <path fill="none" stroke="black" stroke-width="7" stroke-miterlimit="4" transform="translate(256 256)" d="M-64.5153 -177.119C-38.5916 -199.551 -12.7913 -212.206 -6.88869 -205.384C-0.986065 -198.563 -17.2163 -174.848 -43.14 -152.417C-69.0637 -129.985 -94.864 -117.33 -100.767 -124.151C-106.669 -130.973 -90.439 -154.687 -64.5153 -177.119Z"></path>
  <path fill="#585555" transform="matrix(0.605664 -0.524085 0.138801 0.160406 202.172 91.2322)" d="M0 -77C42.8021 -77 77.5 -42.5259 77.5 0C77.5 42.5259 42.8021 77 0 77C-42.8021 77 -77.5 42.5259 -77.5 0C-77.5 -42.5259 -42.8021 -77 0 -77Z"></path>
  <path fill="none" stroke="black" stroke-width="7" stroke-linejoin="round" transform="translate(256 256)" d="M-133.38 -199.388L-97.1999 -134.312"></path>
  <path fill="none" stroke="black" stroke-width="7" stroke-linejoin="round" transform="translate(256 256)" d="M-6.19894 -194.728L-76.6596 -248.469L-93.7582 -233.673"></path>
  <path fill="none" stroke="black" stroke-width="8" stroke-miterlimit="4" transform="translate(256 256)" d="M-113.378 -233.587C-97.7147 -247.141 -81.2755 -253.803 -76.6596 -248.469C-72.0437 -243.134 -80.9991 -227.823 -96.662 -214.27C-112.325 -200.717 -128.764 -194.054 -133.38 -199.388C-137.996 -204.723 -129.041 -220.034 -113.378 -233.587Z"></path>
  <path fill="#9C4040" transform="matrix(0.605664 -0.524085 0.524085 0.605664 108.525 52.5606)" d="M9.99828 15.3403L-13.0685 125.78L126.715 125.78L103.648 15.3403L9.99828 15.3403Z"></path>
  <path fill="none" stroke="black" stroke-width="7" stroke-miterlimit="4" transform="translate(256 256)" d="M-57.7022 -169.245C-31.7785 -191.677 -5.97821 -204.332 -0.0755844 -197.511C5.82704 -190.689 -10.4032 -166.975 -36.3269 -144.543C-62.2506 -122.111 -88.0509 -109.456 -93.9536 -116.278C-99.8562 -123.099 -83.6259 -146.814 -57.7022 -169.245Z"></path>
  <path fill="none" stroke="black" stroke-width="7" stroke-linejoin="round" transform="translate(256 256)" d="M-93.9536 -116.278C-93.9536 -116.278 -100.799 -124.188 -100.799 -124.188C-102.433 -126.077 -102.324 -129.323 -100.772 -133.49"></path>
  <path fill="none" stroke="black" stroke-width="7" stroke-linejoin="round" transform="translate(256 256)" d="M-7.5116 -205.985C-7.29629 -205.815 -7.09909 -205.628 -6.92061 -205.421C-6.92061 -205.421 -1.1703 -198.776 -0.210621 -197.667"></path>
  <path fill="#611E1E" transform="matrix(0.605664 -0.524085 0.138801 0.160406 208.985 99.1059)" d="M0.749693 55.1992C17.8705 55.1992 66.8714 46.0031 69.8043 0.434675C69.9644 -2.05384 77.4999 -10.588 77.5 0C77.5 42.5259 42.8021 77 0 77C-42.8021 77 -77.5 42.5259 -77.5 0C-76.7271 -10.3619 -70.1795 -1.22879 -69.733 1.90431C-67.4205 42.6838 -17.7408 55.1992 0.749693 55.1992Z"></path>
  <defs>
    <linearGradient id="gradient_0" gradientUnits="userSpaceOnUse" x1="8.5369253" y1="175.39754" x2="0.96320713" y2="-480.78424">
      <stop offset="0" stop-color="#583636"></stop>
      <stop offset="0.015997024" stop-color="#583636"></stop>
      <stop offset="0.98742092" stop-color="#EE1010"></stop>
      <stop offset="1" stop-color="#EE1010"></stop>
    </linearGradient>
  </defs>
  <path fill="url(#gradient_0)" transform="matrix(0.656294 -0.567895 0.119878 0.138539 208.985 99.1059)" d="M0 -64C35.6224 -64 64.5 -35.3462 64.5 1.5378e-05C64.5 35.3462 35.6224 64 0 64C-35.6224 64 -64.5 35.3462 -64.5 -1.5378e-05C-64.5 -35.3462 -35.6224 -64 0 -64Z"></path>
  <path fill="#6C88D9" transform="matrix(1.79976 0.0293645 -0.0293645 1.79976 225.243 112.156)" d="M-1.90735e-06 -29.5C19.0538 -29.5 34.5 -16.1805 34.5 0.25C34.5 16.6805 19.0538 30 -1.90735e-06 30C-19.0538 30 -34.5 16.6805 -34.5 0.25C-34.5 -16.1805 -19.0538 -29.5 -1.90735e-06 -29.5Z"></path>
  <path fill="#91A8EB" transform="matrix(1.50913 0.0246226 -0.0246226 1.50913 265.012 274.862)" d="M0.24998 -81.5196C49.8787 -81.2985 84.5 -60 84.5 -9.53674e-07C84.5 41.1452 46.78 74.5 0.25 74.5C-62.1254 74.5 -84 60.12 -84 -9.53674e-07C-84 -71.2881 -62.1254 -81.5196 0.24998 -81.5196Z"></path>
  <clipPath id="cl_bd">
    <path d="M269.105 130.713C335.922 131.803 420.218 169.357 418.456 277.343C417.248 351.394 348.256 413.518 264.513 412.151C152.253 410.32 113.431 380.597 115.196 272.395C117.289 144.094 177.824 129.224 269.105 130.713Z"></path>
  </clipPath>
  <g clip-path="url(#cl_bd)">
    <path fill="#A6B8EF" transform="matrix(0.805953 0.0131497 -0.0151654 0.929491 315.566 239.74)" d="M0.24998 -81.5196C49.8787 -81.2985 84.5 -60 84.5 1.90735e-06C84.5 41.1452 67.1354 74.5 20.6054 74.5C-41.77 74.5 -84 60.12 -84 1.90735e-06C-84 -71.2881 -62.1254 -81.5197 0.24998 -81.5196Z"></path>
    <path fill="#C1CBE8" transform="matrix(0.197995 -0.202726 0.445703 0.435301 338.666 190.891)" d="M11.5671 -77.0972C58.0971 -77.0972 97.5959 -41.1452 97.5959 -2.05241e-05C97.5959 41.1452 73.4188 83.0524 26.8888 83.0524C-35.4866 83.0524 11.8087 60.12 11.8087 -1.92457e-05C11.8087 -41.1452 -34.9629 -77.0972 11.5671 -77.0972Z"></path>
    <path fill="#C1CBE8" transform="matrix(0.197995 -0.202726 0.184201 0.179903 383.108 255.247)" d="M48.9301 -79.7642C80.6763 -79.0529 77.4946 -42.8888 62.8508 4.00568C48.2069 50.9002 -0.039359 91.2964 -20.4536 67.777C-40.8678 44.2577 -16.8141 31.8032 -0.45893 -5.13878C15.8962 -42.0808 17.1838 -80.4755 48.9301 -79.7642Z"></path>
  </g>
  <path fill="#91A8EB" transform="matrix(1.37947 2.85496e-09 -2.85496e-09 1.37947 210.879 346.868)" d="M0.256088 -0.702179C18.4803 -0.495773 32.0923 -1.13318 31.9576 50.3603C31.4951 75.8441 23.8484 90.3478 13.3316 90.0797C2.81476 89.8117 -5.82429 89.9141 -16.1575 89.9945C-26.5376 90.002 -33.9215 73.2298 -33.459 47.746C-33.6104 -5.95491 -17.9682 -0.908607 0.256088 -0.702179Z"></path>
  <path fill="#91A8EB" transform="matrix(1.79976 0.0293645 -0.0293645 1.79976 225.243 112.156)" d="M-1.90735e-06 -22.5C14.6355 -22.5 26.5 -12.3145 26.5 0.25C26.5 12.8145 14.6355 23 -1.90735e-06 23C-14.6355 23 -26.5 12.8145 -26.5 0.25C-26.5 -12.3145 -14.6355 -22.5 -1.90735e-06 -22.5Z"></path>
  <path fill="#1B2B56" transform="matrix(1.78669 -0.21848 0.065544 0.536007 237.254 89.0314)" d="M2.8871e-07 -2.5C1.38071 -2.5 2.5 -1.38071 2.5 0C2.5 1.38071 1.38071 2.5 3.07336e-07 2.5C-1.38071 2.5 -2.5 1.38071 -2.5 0C-2.5 -1.38071 -1.38071 -2.5 2.8871e-07 -2.5Z"></path>
  <path fill="none" stroke="#1B2B56" stroke-width="0.5" stroke-linecap="round" stroke-linejoin="round" transform="matrix(1.78289 -0.247598 0.247598 1.78289 245.897 87.9198)" d="M1.98548 0.277981L6.02909 0.184244"></path>
  <path fill="#1B2B56" transform="matrix(1.78669 -0.21848 0.065544 0.536007 265.841 85.5357)" d="M-9.31323e-09 -2.5C1.38071 -2.5 2.5 -1.38071 2.5 0C2.5 1.38071 1.38071 2.5 9.31323e-09 2.5C-1.38071 2.5 -2.5 1.38071 -2.5 0C-2.5 -1.38071 -1.38071 -2.5 -9.31323e-09 -2.5Z"></path>
  <path fill="#354B89" transform="matrix(1.45897 -0.895021 0.934518 0.718834 257.775 78.4111)" d="M-7.55489e-06 -2.5C1.3807 -2.5 2.49999 -1.38071 2.49999 0C2.49999 1.38071 1.3807 2.5 -7.7039e-06 2.5C-1.38072 2.5 -2.50001 1.38071 -2.50001 0C-2.50001 -1.38071 -1.38072 -2.5 -7.55489e-06 -2.5Z"></path>
  <path fill="#354B89" transform="matrix(2.16453 0.282115 -0.62247 1.07759 242.534 79.4399)" d="M0 -2.98532C1.68306 -2.98532 3.04744 -1.64874 3.04744 1.52588e-05C3.04744 1.64877 1.68306 2.98535 0 2.98535C-1.68306 2.98535 -3.04744 1.64877 -3.04744 1.52588e-05C-3.04744 -1.64874 -1.68306 -2.98532 0 -2.98532Z"></path>
  <clipPath id="cl_c0">
    <path d="M267.396 151.844C342.287 153.4 394.01 186.395 392.533 276.942C391.52 339.036 333.774 388.444 263.554 387.298C169.422 385.762 136.764 363.522 138.245 272.793C140 165.21 173.264 150.308 267.396 151.844Z" clip-rule="evenodd"></path>
  </clipPath>
  <g clip-path="url(#cl_c0)">
    <path fill="#3A6D3D" transform="matrix(0.605664 -0.524085 0.698428 0.807145 163.613 103.985)" d="M74.2156 32.7782L86.5869 31.6617C86.5869 31.6617 73.8823 101.182 67.5039 101.264C67.5039 101.264 49.336 101.463 49.336 101.463C61.2865 101.485 74.2156 32.7782 74.2156 32.7782Z"></path>
  </g>
  <path fill="#9C4040" transform="matrix(0.365938 -0.316649 0.108543 0.125439 150.98 32.0715)" d="M0 -77C42.8021 -77 77.5 -42.5259 77.5 9.23872e-06C77.5 42.5259 42.8021 77 0 77C-42.8021 77 -77.5 42.5259 -77.5 -9.23872e-06C-77.5 -42.5259 -42.8021 -77 0 -77Z"></path>
  <path fill="#C1CBE8" transform="matrix(0.167375 -0.632967 0.886841 0.234507 184.735 109.006)" d="M0 -11.5C14.6355 -11.5 28.0061 -7.98328 28.0061 -1.632C28.0061 4.71927 15.5059 0.400193 0.870357 0.400193C-13.7652 0.400192 -26.766 4.3769 -26.766 -1.97438C-26.766 -8.32565 -14.6355 -11.5 0 -11.5Z"></path>
  <path fill="#611E1E" transform="matrix(0.605664 -0.524085 0.138801 0.160406 208.985 99.1059)" d="M0 -77C42.8021 -77 77.5 -42.5259 77.5 0C76.8894 5.3405 70.0211 3.38985 69.8079 -1.63419C68.2223 -39.0047 22.4635 -53.8416 1.14807 -53.8416C-18.1129 -53.8416 -70.7895 -39.8299 -69.4931 2.24309C-69.4637 3.19753 -74.2395 10.5248 -77.5 0C-77.5 -42.5259 -42.8021 -77 0 -77Z"></path>
  <clipPath id="cl_c1">
    <path d="M122.62 56.6117L166.529 135.59L251.191 62.3318L179.34 7.53117L122.62 56.6117Z"></path>
  </clipPath>
  <g clip-path="url(#cl_c1)">
    <path fill="#BA4646" transform="matrix(0.445843 -0.385791 0.333216 0.385084 156.885 63.5558)" d="M-67.4615 -84L67.4615 -84L92.3226 83.7694L-67.4615 84L-67.4615 -84Z"></path>
  </g>
  <clipPath id="cl_c2">
    <path d="M142.622 22.4126C158.285 8.85942 174.724 2.19678 179.34 7.53119C183.956 12.8656 175.001 28.177 159.338 41.7303C143.675 55.2835 127.236 61.9461 122.62 56.6117C118.004 51.2773 126.959 35.9659 142.622 22.4126Z"></path>
  </clipPath>
  <g clip-path="url(#cl_c2)">
    <path fill="#BA4646" transform="matrix(0.445843 -0.385791 0.333216 0.385084 156.885 63.5558)" d="M-67.4615 -84L67.4615 -84L92.3226 83.7694L-67.4615 84L-67.4615 -84Z"></path>
  </g>
  <path fill="#993535" transform="matrix(0.605664 -0.524085 0.524085 0.605664 162.046 139.722)" d="M0 1.52588e-05C0 1.52588e-05 -7.62939e-06 -13.0609 7.62939e-06 -13.0609C0 -24.308 35.8327 -33.7055 77.5 -33.393C119.167 -33.0805 155 -24.3079 155 -13.0609C155 -13.0609 155 1.52588e-05 155 1.52588e-05C155 -10.5378 119.167 -20.393 77.5 -20.393C35.8327 -20.393 -7.62939e-06 -10.5378 0 1.52588e-05Z"></path>
  <path fill="#669969" transform="matrix(0.605664 -0.524085 0.644995 0.745395 169.021 110.236)" d="M-0.506073 0.0225906C3.1732 -3.90974 9.28304 -5.30725 18.0792 -2.24782C23.7018 23.1815 52.5776 101.462 67.2296 101.254C62.0975 101.327 59.1898 101.368 46.7011 101.546C36.2156 101.695 2.7315 5.31647 -0.506073 0.0225906Z"></path>
  <path fill="none" stroke="black" stroke-width="7" stroke-linecap="round" stroke-linejoin="round" transform="matrix(2.15345 4.45679e-09 -4.42021e-09 2.13577 150.189 283.36)" d="M32.8939 -37.1867C34.1913 -33.2106 36.6516 -27.9029 42.3737 -20.9208C62.8611 -6.54465 84.9079 -19.2024 82.4592 6.16768C80.8218 22.085 34.3476 34.7398 13.6821 20.238C-4.80274 1.63676 -7.73998 -27.7569 -2.10521 -45.7329"></path>
  <path fill="#6C88D9" transform="matrix(2.15345 4.45679e-09 -4.42021e-09 2.13577 150.189 283.36)" d="M11.1827 -61.2736C16.2671 -58.9356 28.8013 -48.5497 30.6162 -45.0744C32.4312 -41.5992 31.3572 -34.363 42.3737 -20.9208C62.8611 -6.54465 84.9079 -19.2024 82.4592 6.16768C80.8218 22.085 34.3476 34.7398 13.6821 20.238C-13.6857 -7.30209 -6.97256 -58.4995 11.1827 -61.2736Z"></path>
  <path fill="#91A8EB" transform="matrix(1.67686 3.47045e-09 -4.32784e-09 2.09114 154.179 277.647)" d="M14.0397 -55.1183C33.9699 -62.9019 28.5953 -33.4513 44.9103 -16.4459C69.7661 -2.59692 99.048 -10.1857 99.0435 2.21468C99.0389 14.6151 45.0139 29.0794 19.3057 16.1148C-8.30586 -5.29011 -5.89049 -47.3347 14.0397 -55.1183Z"></path>
  <path fill="none" stroke="white" stroke-width="5" stroke-linecap="round" stroke-linejoin="round" transform="matrix(1.5 0 0 1.5 158.539 362.24)" d=""></path>
</svg>