<?xml version="1.0" encoding="utf-8"?>
<svg xmlns="http://www.w3.org/2000/svg" xmlns:xlink="http://www.w3.org/1999/xlink" width="512" height="512">
  <path fill="none" stroke="black" stroke-width="7" stroke-linejoin="round" transform="matrix(1.8 3.72529e-09 -3.72529e-09 1.8 210.879 409.868)" d="M-0.852663 -46.2234C17.3718 -46.0318 29.9228 -38.6432 29.7767 5.64602C30.1223 34.6615 22.7832 44.6862 12.2661 44.4267C1.7491 44.1672 -6.88982 44.2765 -17.223 44.3654C-27.6859 44.2748 -33.0759 33.1397 -33.4212 4.11115C-33.5633 -42.3852 -19.077 -46.415 -0.852663 -46.2234Z"></path>
  <path fill="none" stroke="black" stroke-width="7" stroke-linejoin="round" transform="matrix(-2.15345 -3.29802e-07 -3.27096e-07 2.13577 356.081 273.696)" d="M14.3153 -58.764C17.685 -54.2692 23.8116 -39.1224 23.7688 -35.195C23.726 -31.2677 28.126 -22.3532 26.8462 1.98197C25.6303 30.8459 21.1972 53.9353 -4.06706 53.0151C-19.9241 52.336 -31.3969 28.4037 -30.1811 -0.460202C-28.6567 -36.6472 -2.96351 -65.0302 14.3153 -58.764Z"></path>
  <path fill="none" stroke="black" stroke-width="7" stroke-linejoin="round" transform="matrix(1.79976 0.0293645 -0.0293645 1.79976 266.376 274.862)" d="M0.209625 -80.0966C37.3348 -80.0966 84.5 -60 84.5 9.53674e-07C84.5 41.1452 46.7396 76.2788 0.209625 76.2788C-62.1658 76.2788 -84 60.12 -84 9.53674e-07C-84 -71.2881 -50.5087 -80.0966 0.209625 -80.0966Z"></path>
  <path fill="none" stroke="black" stroke-width="7" stroke-linejoin="round" transform="matrix(1.53671 3.18039e-09 -3.72529e-09 1.8 308.979 398.168)" d="M1.57211 -47.9197C19.782 -48.5612 35.4754 -42.1993 37.6788 7.33963C38.731 21.1659 33.6046 45.0704 19.9307 45.3679C6.25701 45.6655 0.123352 45.7989 -12.0747 46.0644C-24.2728 46.3298 -27.2129 23.4889 -28.2651 9.6626C-30.8849 -42.0543 -16.6378 -47.2783 1.57211 -47.9197Z"></path>
  <path fill="#6C88D9" transform="matrix(-2.15345 -3.29802e-07 -3.27096e-07 2.13577 356.081 273.696)" d="M14.3153 -58.764C17.685 -54.2692 23.8116 -39.1224 23.7688 -35.195C23.726 -31.2677 28.126 -22.3532 26.8462 1.98197C25.6303 30.8459 21.1972 53.9353 -4.06706 53.0151C-19.9241 52.336 -31.3969 28.4037 -30.1811 -0.460202C-28.6567 -36.6472 -2.96351 -65.0302 14.3153 -58.764Z"></path>
  <path fill="#5170C8" transform="matrix(1.53671 3.18039e-09 -3.72529e-09 1.8 308.979 398.168)" d="M1.57211 -47.9197C19.782 -48.5612 35.4754 -42.1993 37.6788 7.33963C38.731 21.1659 33.6046 45.0704 19.9307 45.3679C6.25701 45.6655 0.123352 45.7989 -12.0747 46.0644C-24.2728 46.3298 -27.2129 23.4889 -28.2651 9.6626C-30.8849 -42.0543 -16.6378 -47.2783 1.57211 -47.9197Z"></path>
  <path fill="#839BE0" transform="matrix(1.20328 2.49031e-09 -2.91698e-09 1.40944 308.979 398.168)" d="M2.62141 -48.502C20.8313 -49.1435 35.9774 -42.6787 38.5248 11.3445C38.8841 29.2768 30.6352 44.6398 16.9614 44.9374C3.28762 45.2349 3.46394 45.2816 -8.73416 45.5471C-20.9322 45.8125 -27.0598 31.5997 -27.4191 13.6674C-30.3829 -42.5337 -15.5885 -47.8606 2.62141 -48.502Z"></path>
  <path fill="#6C88D9" transform="matrix(1.8 3.72529e-09 -3.72529e-09 1.8 210.879 409.868)" d="M-0.852663 -46.2234C17.3718 -46.0318 29.9228 -38.6432 29.7767 5.64602C30.1223 34.6615 22.7832 44.6862 12.2661 44.4267C1.7491 44.1672 -6.88982 44.2765 -17.223 44.3654C-27.6859 44.2748 -33.0759 33.1397 -33.4212 4.11115C-33.5633 -42.3852 -19.077 -46.415 -0.852663 -46.2234Z"></path>
  <path fill="#91A8EB" transform="matrix(-1.67686 -2.56813e-07 -3.2026e-07 2.09114 352.092 267.983)" d="M15.0089 -52.3396C37.1572 -51.5853 28.9473 -27.0124 25.7996 1.49778C22.6519 30.008 9.53095 52.9356 -5.91914 52.4093C-21.3692 51.8831 -32.2759 28.2095 -30.7561 -0.483473C-29.2363 -29.1764 -7.13935 -53.094 15.0089 -52.3396Z"></path>
  <path fill="none" stroke="black" stroke-width="7" stroke-miterlimit="4" transform="matrix(1.79976 0.0293645 -0.0293645 1.79976 223.177 112.207)" d="M1.90735e-06 -29.5C19.0538 -29.5 34.5 -16.1805 34.5 0.25C34.5 16.6805 19.0538 30 1.90735e-06 30C-19.0538 30 -34.5 16.6805 -34.5 0.25C-34.5 -16.1805 -19.0538 -29.5 1.90735e-06 -29.5Z"></path>
  <path fill="none" stroke="black" stroke-width="7" stroke-linejoin="round" transform="translate(256 256)" d="M-26.6101 -164.403L-19.897 -171.788C-19.897 -171.788 20.963 -109.016 17.1576 -105.607C17.1576 -105.607 16.5177 -105.037 15.5484 -104.173"></path>
  <path fill="none" stroke="black" stroke-width="7" stroke-linejoin="round" transform="translate(256 256)" d="M5.23187 -106.638C-0.151256 -121.294 -15.3719 -146.46 -22.6449 -158.126"></path>
  <path fill="none" stroke="black" stroke-width="7" stroke-linejoin="round" transform="translate(256 256)" d="M16.2637 -104.829C13.6042 -102.445 11.5858 -100.636 4.7375 -94.4972C-1.51706 -88.8908 -83.9609 -143.182 -89.3363 -145.432C-89.6442 -150.291 -86.8451 -154.535 -79.5443 -156.864C-59.7371 -140.856 8.24277 -97.6393 16.9826 -105.473C16.7356 -105.252 16.4972 -105.038 16.2637 -104.829"></path>
  <path fill="#6C88D9" transform="matrix(1.79976 0.0293645 -0.0293645 1.79976 266.376 274.862)" d="M0.209625 -80.0966C37.3348 -80.0966 84.5 -60 84.5 9.53674e-07C84.5 41.1452 46.7396 76.2788 0.209625 76.2788C-62.1658 76.2788 -84 60.12 -84 9.53674e-07C-84 -71.2881 -50.5087 -80.0966 0.209625 -80.0966Z"></path>
  <path fill="#3A6D3D" transform="matrix(0.605664 -0.524085 0.698428 0.807145 161.547 104.036)" d="M74.2156 32.7782L86.5869 31.6617C86.5869 31.6617 73.8823 101.182 67.5039 101.264C67.5039 101.264 49.336 101.463 49.336 101.463C61.2865 101.485 74.2156 32.7782 74.2156 32.7782Z"></path>
  <path fill="none" stroke="black" stroke-width="7" stroke-miterlimit="4" transform="translate(256 256)" d="M-66.581 -177.069C-40.6573 -199.501 -14.857 -212.155 -8.95434 -205.334C-3.05172 -198.513 -19.282 -174.798 -45.2057 -152.366C-71.1294 -129.934 -96.9297 -117.279 -102.832 -124.101C-108.735 -130.922 -92.5047 -154.637 -66.581 -177.069Z"></path>
  <path fill="#585555" transform="matrix(0.605664 -0.524085 0.138801 0.160406 200.107 91.2826)" d="M-7.62939e-06 -77.0001C42.8021 -77.0001 77.5 -42.526 77.5 -6.10352e-05C77.5 42.5259 42.8021 76.9999 -7.62939e-06 76.9999C-42.8021 76.9999 -77.5 42.5259 -77.5 -6.10352e-05C-77.5 -42.526 -42.8021 -77.0001 -7.62939e-06 -77.0001Z"></path>
  <path fill="none" stroke="black" stroke-width="7" stroke-linejoin="round" transform="translate(256 256)" d="M-135.446 -199.338L-99.2656 -134.261"></path>
  <path fill="none" stroke="black" stroke-width="7" stroke-linejoin="round" transform="translate(256 256)" d="M-8.26457 -194.678L-78.7253 -248.418L-95.8238 -233.623"></path>
  <path fill="none" stroke="black" stroke-width="8" stroke-miterlimit="4" transform="translate(256 256)" d="M-115.443 -233.537C-99.7804 -247.09 -83.3412 -253.753 -78.7253 -248.418C-74.1094 -243.084 -83.0647 -227.773 -98.7277 -214.219C-114.391 -200.666 -130.83 -194.003 -135.446 -199.338C-140.062 -204.672 -131.106 -219.984 -115.443 -233.537Z"></path>
  <path fill="#9C4040" transform="matrix(0.605664 -0.524085 0.524085 0.605664 106.459 52.611)" d="M9.99828 15.3403L-13.0685 125.78L126.715 125.78L103.648 15.3403L9.99828 15.3403Z"></path>
  <path fill="none" stroke="black" stroke-width="7" stroke-miterlimit="4" transform="translate(256 256)" d="M-59.7679 -169.195C-33.8442 -191.627 -8.04386 -204.282 -2.14124 -197.46C3.76139 -190.639 -12.4689 -166.924 -38.3926 -144.492C-64.3163 -122.061 -90.1166 -109.406 -96.0192 -116.227C-101.922 -123.049 -85.6916 -146.763 -59.7679 -169.195Z"></path>
  <path fill="none" stroke="black" stroke-width="7" stroke-linejoin="round" transform="translate(256 256)" d="M-96.0192 -116.227C-96.0192 -116.227 -102.864 -124.138 -102.864 -124.138C-104.498 -126.026 -104.39 -129.272 -102.838 -133.44"></path>
  <path fill="none" stroke="black" stroke-width="7" stroke-linejoin="round" transform="translate(256 256)" d="M-9.57725 -205.934C-9.36194 -205.765 -9.16474 -205.577 -8.98626 -205.371C-8.98626 -205.371 -3.23598 -198.726 -2.27628 -197.616"></path>
  <path fill="#611E1E" transform="matrix(0.605664 -0.524085 0.138801 0.160406 206.92 99.1562)" d="M0.749685 55.1993C17.8705 55.1993 66.8714 46.0032 69.8043 0.434736C69.9644 -2.05378 77.4999 -10.5879 77.5 6.10352e-05C77.5 42.526 42.8021 77.0001 -7.62939e-06 77.0001C-42.8021 77.0001 -77.5 42.526 -77.5 6.10352e-05C-76.7271 -10.3618 -70.1795 -1.22873 -69.733 1.90438C-67.4205 42.6839 -17.7408 55.1993 0.749685 55.1993Z"></path>
  <defs>
    <linearGradient id="gradient_0" gradientUnits="userSpaceOnUse" x1="8.5369253" y1="175.39754" x2="0.96320713" y2="-480.78424">
      <stop offset="0" stop-color="#583636"></stop>
      <stop offset="0.015997024" stop-color="#583636"></stop>
      <stop offset="0.98742092" stop-color="#EE1010"></stop>
      <stop offset="1" stop-color="#EE1010"></stop>
    </linearGradient>
  </defs>
  <path fill="url(#gradient_0)" transform="matrix(0.656294 -0.567895 0.119878 0.138539 206.92 99.1562)" d="M1.52588e-05 -63.9999C35.6224 -63.9999 64.5 -35.3461 64.5 7.64132e-05C64.5 35.3463 35.6224 64.0001 1.52588e-05 64.0001C-35.6224 64.0001 -64.5 35.3463 -64.5 4.56572e-05C-64.5 -35.3462 -35.6224 -63.9999 1.52588e-05 -63.9999Z"></path>
  <path fill="#6C88D9" transform="matrix(1.79976 0.0293645 -0.0293645 1.79976 223.177 112.207)" d="M1.90735e-06 -29.5C19.0538 -29.5 34.5 -16.1805 34.5 0.25C34.5 16.6805 19.0538 30 1.90735e-06 30C-19.0538 30 -34.5 16.6805 -34.5 0.25C-34.5 -16.1805 -19.0538 -29.5 1.90735e-06 -29.5Z"></path>
  <path fill="#91A8EB" transform="matrix(1.50913 0.0246226 -0.0246226 1.50913 265.012 274.862)" d="M0.24998 -81.5196C49.8787 -81.2985 84.5 -60 84.5 -9.53674e-07C84.5 41.1452 46.78 74.5 0.25 74.5C-62.1254 74.5 -84 60.12 -84 -9.53674e-07C-84 -71.2881 -62.1254 -81.5196 0.24998 -81.5196Z"></path>
  <clipPath id="cl_1b">
    <path d="M269.105 130.713C335.922 131.803 420.218 169.357 418.456 277.343C417.248 351.394 348.256 413.518 264.513 412.151C152.253 410.32 113.431 380.597 115.196 272.395C117.289 144.094 177.824 129.224 269.105 130.713Z"></path>
  </clipPath>
  <g clip-path="url(#cl_1b)">
    <path fill="#A6B8EF" transform="matrix(0.805953 0.0131497 -0.0151654 0.929491 318.696 239.74)" d="M0.24998 -81.5196C49.8787 -81.2985 84.5 -60 84.5 0C84.5 41.1452 67.1354 74.5 20.6054 74.5C-41.77 74.5 -84 60.12 -84 0C-84 -71.2881 -62.1254 -81.5197 0.24998 -81.5196Z"></path>
    <path fill="#C1CBE8" transform="matrix(0.197995 -0.202726 0.445703 0.435301 341.796 190.891)" d="M11.5671 -77.0972C58.0971 -77.0972 97.5959 -41.1452 97.5959 -3.00608e-05C97.5959 41.1452 73.4188 83.0524 26.8888 83.0524C-35.4866 83.0524 11.8086 60.12 11.8086 -2.87825e-05C11.8086 -41.1452 -34.9629 -77.0972 11.5671 -77.0972Z"></path>
    <path fill="#C1CBE8" transform="matrix(0.197995 -0.202726 0.184201 0.179903 386.239 255.247)" d="M48.93 -79.7642C80.6762 -79.0529 77.4946 -42.8889 62.8507 4.00565C48.2069 50.9001 -0.03942 91.2963 -20.4536 67.777C-40.8678 44.2576 -16.8141 31.8032 -0.458991 -5.13881C15.8961 -42.0808 17.1838 -80.4755 48.93 -79.7642Z"></path>
  </g>
  <path fill="#91A8EB" transform="matrix(1.37947 2.85496e-09 -2.85496e-09 1.37947 210.879 346.868)" d="M-1.25958 -0.66597C16.9648 -0.474319 30.5763 -1.12278 30.4833 50.3708C30.0415 75.8549 22.4066 90.3649 11.8895 90.1053C1.37249 89.8459 -7.26647 89.9552 -17.5995 90.0441C-27.9796 90.06 -35.3772 73.2938 -34.9354 47.8097C-35.1303 -5.89122 -19.484 -0.857597 -1.25958 -0.66597Z"></path>
  <path fill="#91A8EB" transform="matrix(1.79976 0.0293645 -0.0293645 1.79976 223.177 112.207)" d="M1.90735e-06 -22.5C14.6355 -22.5 26.5 -12.3145 26.5 0.25C26.5 12.8145 14.6355 23 1.90735e-06 23C-14.6355 23 -26.5 12.8145 -26.5 0.25C-26.5 -12.3145 -14.6355 -22.5 1.90735e-06 -22.5Z"></path>
  <path fill="#1B2B56" transform="matrix(1.78669 -0.21848 0.065544 0.536007 235.188 89.0818)" d="M1.09896e-07 -2.5C1.38071 -2.5 2.5 -1.38071 2.5 0C2.5 1.38071 1.38071 2.5 1.28523e-07 2.5C-1.38071 2.5 -2.5 1.38071 -2.5 0C-2.5 -1.38071 -1.38071 -2.5 1.09896e-07 -2.5Z"></path>
  <path fill="none" stroke="#1B2B56" stroke-width="0.5" stroke-linecap="round" stroke-linejoin="round" transform="matrix(1.78289 -0.247598 0.247598 1.78289 243.832 87.9702)" d="M1.98548 0.277981L6.02909 0.184244"></path>
  <path fill="#1B2B56" transform="matrix(1.78669 -0.21848 0.065544 0.536007 263.775 85.586)" d="M-9.31323e-09 -2.50003C1.38071 -2.50003 2.5 -1.38074 2.5 -3.05176e-05C2.5 1.38068 1.38071 2.49997 9.31323e-09 2.49997C-1.38071 2.49997 -2.5 1.38068 -2.5 -3.05176e-05C-2.5 -1.38074 -1.38071 -2.50003 -9.31323e-09 -2.50003Z"></path>
  <path fill="#354B89" transform="matrix(1.45897 -0.895021 0.934518 0.718834 255.709 78.4614)" d="M7.45058e-08 -2.5C1.38071 -2.5 2.5 -1.38071 2.5 0C2.5 1.38071 1.38071 2.5 -7.45058e-08 2.5C-1.38071 2.5 -2.5 1.38071 -2.5 0C-2.5 -1.38071 -1.38071 -2.5 7.45058e-08 -2.5Z"></path>
  <path fill="#354B89" transform="matrix(2.16453 0.282115 -0.62247 1.07759 240.469 79.4903)" d="M0 -2.98531C1.68306 -2.98531 3.04744 -1.64873 3.04744 3.05176e-05C3.04744 1.64879 1.68306 2.98537 0 2.98537C-1.68306 2.98537 -3.04744 1.64879 -3.04744 3.05176e-05C-3.04744 -1.64873 -1.68306 -2.98531 0 -2.98531Z"></path>
  <clipPath id="cl_1e">
    <path d="M267.396 151.844C342.287 153.4 394.01 186.395 392.533 276.942C391.52 339.036 333.774 388.444 263.554 387.298C169.422 385.762 136.764 363.522 138.245 272.793C140 165.21 173.264 150.308 267.396 151.844Z" clip-rule="evenodd"></path>
  </clipPath>
  <g clip-path="url(#cl_1e)">
    <path fill="#3A6D3D" transform="matrix(0.605664 -0.524085 0.698428 0.807145 161.547 104.036)" d="M74.2156 32.7782L86.5869 31.6617C86.5869 31.6617 73.8823 101.182 67.5039 101.264C67.5039 101.264 49.336 101.463 49.336 101.463C61.2865 101.485 74.2156 32.7782 74.2156 32.7782Z"></path>
  </g>
  <path fill="#9C4040" transform="matrix(0.365938 -0.316649 0.108543 0.125439 148.915 32.1218)" d="M0 -77C42.8021 -77 77.5 -42.5259 77.5 9.23872e-06C77.5 42.5259 42.8021 77 0 77C-42.8021 77 -77.5 42.5259 -77.5 -9.23872e-06C-77.5 -42.5259 -42.8021 -77 0 -77Z"></path>
  <path fill="#C1CBE8" transform="matrix(0.167375 -0.632967 0.886841 0.234507 182.67 109.056)" d="M0 -11.5C14.6355 -11.5 28.0061 -7.98328 28.0061 -1.63201C28.0061 4.71927 15.5059 0.400186 0.870357 0.400186C-13.7652 0.400184 -26.766 4.37689 -26.766 -1.97439C-26.766 -8.32566 -14.6355 -11.5 0 -11.5Z"></path>
  <path fill="#611E1E" transform="matrix(0.605664 -0.524085 0.138801 0.160406 206.92 99.1562)" d="M-7.62939e-06 -76.9999C42.8021 -76.9999 77.5 -42.5259 77.5 6.10352e-05C76.8893 5.34056 70.0211 3.38991 69.8079 -1.63413C68.2223 -39.0047 22.4635 -53.8415 1.14806 -53.8415C-18.1129 -53.8415 -70.7895 -39.8299 -69.4931 2.24315C-69.4637 3.19759 -74.2395 10.5248 -77.5 6.10352e-05C-77.5 -42.5259 -42.8021 -76.9999 -7.62939e-06 -76.9999Z"></path>
  <clipPath id="cl_1f">
    <path d="M120.554 56.6621L164.463 135.641L249.125 62.3821L177.275 7.58156L120.554 56.6621Z"></path>
  </clipPath>
  <g clip-path="url(#cl_1f)">
    <path fill="#BA4646" transform="matrix(0.445843 -0.385791 0.333216 0.385084 154.82 63.6062)" d="M-67.4615 -84L67.4615 -84L92.3226 83.7694L-67.4615 84L-67.4615 -84Z"></path>
  </g>
  <clipPath id="cl_20">
    <path d="M140.557 22.463C156.22 8.90981 172.659 2.24716 177.275 7.58157C181.891 12.916 172.935 28.2274 157.272 41.7807C141.609 55.3339 125.17 61.9965 120.554 56.6621C115.938 51.3277 124.894 36.0163 140.557 22.463Z"></path>
  </clipPath>
  <g clip-path="url(#cl_20)">
    <path fill="#BA4646" transform="matrix(0.445843 -0.385791 0.333216 0.385084 154.82 63.6062)" d="M-67.4615 -84L67.4615 -84L92.3226 83.7694L-67.4615 84L-67.4615 -84Z"></path>
  </g>
  <path fill="#993535" transform="matrix(0.605664 -0.524085 0.524085 0.605664 159.981 139.773)" d="M0 -7.62939e-06C0 -7.62939e-06 0 -13.0609 7.62939e-06 -13.0609C1.52588e-05 -24.308 35.8327 -33.7055 77.5 -33.393C119.167 -33.0805 155 -24.308 155 -13.0609C155 -13.0609 155 0 155 0C155 -10.5378 119.167 -20.393 77.5 -20.393C35.8327 -20.393 0 -10.5379 0 -7.62939e-06Z"></path>
  <path fill="#669969" transform="matrix(0.605664 -0.524085 0.644995 0.745395 166.956 110.286)" d="M-0.506065 0.0226212C3.17321 -3.90972 9.28303 -5.30721 18.0791 -2.2478C23.7018 23.1815 52.5776 101.462 67.2296 101.254C62.0975 101.327 59.1898 101.368 46.7011 101.546C36.2156 101.695 2.7315 5.31649 -0.506065 0.0226212Z"></path>
  <path fill="none" stroke="black" stroke-width="7" stroke-linecap="round" stroke-linejoin="round" transform="matrix(2.15345 4.45679e-09 -4.42021e-09 2.13577 150.189 283.36)" d="M25.6338 -28.043C26.8344 -22.3028 28.1757 -13.3713 27.6692 0.893867C26.9685 29.7747 23.0596 52.9033 -2.21783 52.4942C-18.0852 52.1359 -30.093 28.3671 -29.3922 -0.514649C-28.8035 -24.0065 -17.9695 -44.3868 -5.68724 -54.1852"></path>
  <path fill="#6C88D9" transform="matrix(2.15345 4.45679e-09 -4.42021e-09 2.13577 150.189 283.36)" d="M14.1771 -59.5964C17.6171 -55.156 23.9818 -40.1094 24.001 -36.1818C24.0202 -32.2543 28.5332 -23.4408 27.6692 0.893867C26.9685 29.7747 23.0596 52.9033 -2.21783 52.4942C-18.0852 52.1359 -30.093 28.3671 -29.3922 -0.514649C-28.484 -36.7514 -3.19844 -65.5846 14.1771 -59.5964Z"></path>
  <path fill="#91A8EB" transform="matrix(1.67686 3.47045e-09 -4.32784e-09 2.09114 154.179 277.647)" d="M14.9296 -53.1776C37.09 -52.7058 28.1627 -28.628 26.6765 -0.452849C25.9991 28.1226 18.2974 51.2217 2.8837 52.2209C-12.53 53.2201 -28.8732 29.3764 -29.8333 0.709222C-30.0134 -28.5584 -7.23086 -53.6495 14.9296 -53.1776Z"></path>
  <path fill="none" stroke="white" stroke-width="5" stroke-linecap="round" stroke-linejoin="round" transform="matrix(1.5 0 0 1.5 158.539 362.24)" d=""></path>
</svg>