<?xml version="1.0" encoding="utf-8"?>
<svg xmlns="http://www.w3.org/2000/svg" xmlns:xlink="http://www.w3.org/1999/xlink" width="512" height="512">
  <path fill="none" stroke="black" stroke-width="6" stroke-linejoin="round" transform="matrix(1.8 0 0 1.52279 359.051 172.461)" d="M-13.6283 -17.2983C-9.90025 -17.4621 -7.22343 -17.5797 -3.75819 -17.732C3.30117 -18.0422 10.5826 -14.3563 11.0761 1.33493C11.5695 17.0262 12.4894 46.2793 12.7651 55.0473C14.115 97.9742 -49.3425 100.72 -50.6924 57.7933C-51.0313 47.0173 -51.6542 27.2087 -52.0465 14.7317C-52.4389 2.25463 -46.7423 -15.8434 -30.6736 -16.5494C-29.5285 -16.5997 -28.4458 -16.6473 -27.4198 -16.6924"></path>
  <path fill="none" stroke="black" stroke-width="6" stroke-linejoin="round" transform="matrix(1.8 0 0 1.64041 359.051 254.707)" d="M-50.569 -3.76851C-45.2568 -46.1002 17.7406 -38.619 12.4284 3.71273C10.3196 20.517 6.80173 48.5496 4.61631 65.9647C3.84846 72.0835 -6.00442 82.3192 -29.0943 79.8499C-52.1841 77.3805 -59.2655 65.5313 -58.667 60.7621C-56.4688 43.245 -52.1253 8.63266 -50.569 -3.76851Z"></path>
  <path fill="#503F7E" transform="matrix(1.8 0 0 1.52279 359.051 172.461)" d="M-52.0465 14.7317C-52.4389 2.25464 -46.7423 -15.8434 -30.6736 -16.5494C-14.6049 -17.2554 -10.8176 -17.4218 -3.75819 -17.732C3.30117 -18.0422 10.5826 -14.3563 11.0761 1.33493C11.5695 17.0262 12.4894 46.2793 12.7651 55.0473C14.115 97.9743 -49.3425 100.72 -50.6924 57.7933C-51.0313 47.0173 -51.6542 27.2088 -52.0465 14.7317Z"></path>
  <path fill="#503F7E" transform="matrix(1.8 0 0 1.64041 359.051 254.707)" d="M-50.569 -3.76851C-45.2568 -46.1002 17.7406 -38.619 12.4284 3.71272C10.3196 20.517 6.80173 48.5496 4.61631 65.9647C3.84846 72.0835 -6.00442 82.3192 -29.0943 79.8499C-52.1841 77.3805 -59.2655 65.5313 -58.667 60.7621C-56.4688 43.245 -52.1253 8.63266 -50.569 -3.76851Z"></path>
  <path fill="none" stroke="black" stroke-width="5" stroke-linejoin="round" transform="matrix(1.67985 0 0 1.8 269.501 356.202)" d="M-14.626 -15.2066C3.12355 -19.0677 29.1088 -10.5239 28.2044 35.4261C28.3614 49.1064 24.2755 71.4049 7.82665 75.9848C-3.44206 73.5405 -16.2429 71.6973 -32.2495 68.0883C-40.8372 57.5722 -32.8531 49.8128 -33.0692 33.4999C-32.7795 -11.5848 -32.3756 -11.3454 -14.626 -15.2066Z"></path>
  <path fill="#453279" transform="matrix(1.67985 0 0 1.8 269.501 356.202)" d="M-14.626 -15.2066C3.12355 -19.0677 29.1088 -10.5239 28.2044 35.4261C28.3614 49.1064 24.2755 71.4049 7.82665 75.9848C-3.44206 73.5405 -16.2429 71.6973 -32.2495 68.0883C-40.8372 57.5722 -32.8531 49.8128 -33.0692 33.4999C-32.7795 -11.5848 -32.3756 -11.3454 -14.626 -15.2066Z"></path>
  <path fill="none" stroke="black" stroke-width="5" stroke-linejoin="round" transform="matrix(1.67985 0 0 1.8 191.63 362.835)" d="M13.0791 -14.3484C31.3025 -14.0968 44.1807 -9.74659 43.4296 37.6371C43.7457 56.5199 46.3694 69.1704 30.8145 75.6373C15.3408 76.0088 4.65381 76.2152 -10.1827 75.8749C-24.9367 69.142 -20.1524 52.3545 -19.7593 35.8616C-19.6385 -10.6277 -5.14433 -14.6 13.0791 -14.3484Z"></path>
  <path fill="none" stroke="black" stroke-width="5" stroke-linejoin="round" transform="matrix(1.79976 0.0276995 -0.0293645 1.69771 274.681 282.52)" d="M-11.3238 -80.2543C25.8014 -80.2543 54.9476 -94.6926 58.9092 -40.8672C62.8708 12.9582 37.0524 74.7499 0.0572909 75.3534C-14.1177 75.5847 -17.7665 75.6442 -48.2096 76.1409C-78.6526 76.6376 -84.25 60.12 -84.25 9.53674e-07C-86.6294 -86.0849 -88.6034 -78.4854 -12.7475 -80.2208"></path>
  <path fill="#503F7E" transform="matrix(1.67985 0 0 1.8 191.63 362.835)" d="M13.0791 -14.3484C31.3025 -14.0968 44.1807 -9.74659 43.4296 37.6371C43.7457 56.5199 46.3694 69.1704 30.8145 75.6373C15.3408 76.0088 4.65381 76.2152 -10.1827 75.8749C-24.9367 69.142 -20.1524 52.3545 -19.7593 35.8616C-19.6385 -10.6277 -5.14433 -14.6 13.0791 -14.3484Z"></path>
  <path fill="none" stroke="black" stroke-width="5" stroke-linejoin="round" transform="matrix(1.53139 0 0 1.39334 226.981 128.454)" d="M0 -40C20.9426 -40 35.0096 -26.8589 47.8597 -2.20017C49.1253 -3.81498 50.3123 -3.57652 51.1974 -3.11681C52.0824 -2.6571 52.5509 -1.60561 52.2206 -0.665335C53.8523 0.0632067 55.2854 1.47333 55.8775 2.67699C56.9197 4.79567 57.6743 10.5072 53.7931 11.8212C58.5977 31.9882 20.3682 22.0914 -1.32962e-05 22.0914C-20.2357 22.0914 -45.0732 28.3281 -41.8836 12.9784C-44.6787 11.8212 -48.2008 8.95145 -46.5316 4.29176C-45.7036 1.98007 -43.8185 0.567096 -42.3936 0.567005C-41.0392 0.566917 -42.9934 -2.19999 -40.2188 -3.8149C-39.0195 -4.5129 -37.7273 -4.43211 -36.6068 -4.12355C-28.0141 -23.731 -20.4124 -40 0 -40Z"></path>
  <path fill="#503F7E" transform="matrix(1.79976 0.0276995 -0.0293645 1.69771 274.681 282.52)" d="M-11.3238 -80.2543C25.8014 -80.2543 54.9476 -94.6926 58.9092 -40.8672C62.8708 12.9582 37.0524 74.7499 0.0572909 75.3534C-14.1177 75.5847 -17.7665 75.6442 -48.2096 76.1409C-78.6526 76.6376 -84.25 60.12 -84.25 9.53674e-07C-86.6442 -86.62 -88.6279 -78.3873 -11.3238 -80.2543Z"></path>
  <clipPath id="cl_633">
    <path d="M256.658 145.957C323.474 146.986 376.354 123.281 381.904 214.771C387.453 306.26 339.172 410.45 272.572 410.45C247.053 410.449 240.485 410.449 185.68 410.45C130.875 410.45 121.286 382.252 123.052 280.186C121.286 133.064 117.474 146.986 256.658 145.957Z"></path>
  </clipPath>
  <g clip-path="url(#cl_633)">
    <path fill="#655494" transform="matrix(1.8 0 0 1.8 311.807 264.599)" d="M-0.158648 -48.2655C25.513 -48.2655 46.324 -26.6563 46.324 0C46.324 26.6563 25.513 48.2655 -0.158648 48.2655C-25.8303 48.2655 -46.6413 26.6563 -46.6413 0C-46.6413 -26.6563 -25.8303 -48.2655 -0.158648 -48.2655Z"></path>
  </g>
  <path fill="none" stroke="black" stroke-width="2" stroke-linejoin="round" transform="matrix(3.88825 -0.763212 0.691401 3.5224 233.781 50.2061)" d="M-4.34758 -5.25471C-4.34758 -11.5047 3.66088 -11.5047 3.66088 -5.25471C3.66088 0.995291 3.66088 12.5 3.66088 12.5L-4.57314 12.5C-4.57314 12.5 -4.34758 0.995292 -4.34758 -5.25471Z"></path>
  <path fill="none" stroke="black" stroke-width="2" stroke-linejoin="round" transform="matrix(3.5224 -0.691401 0.691401 3.5224 199.573 55.6189)" d="M-5.1645 -6.50117C-5.16451 -12.7512 6 -12.7512 6 -6.50117C6 -0.251166 6 12.5 6 12.5L-6 12.5C-6 12.5 -5.1645 -0.251167 -5.1645 -6.50117Z"></path>
  <path fill="#453279" transform="matrix(3.88825 -0.763212 0.691401 3.5224 233.781 50.2061)" d="M-4.34758 -5.25471C-4.34758 -11.5047 3.66088 -11.5047 3.66088 -5.25471C3.66088 0.995291 3.66088 12.5 3.66088 12.5L-4.57314 12.5C-4.57314 12.5 -4.34758 0.995292 -4.34758 -5.25471Z"></path>
  <path fill="none" stroke="#161616" stroke-width="0.5" stroke-linecap="round" stroke-linejoin="round" transform="matrix(3.88825 -0.763212 0.691401 3.5224 228.988 30.6744)" d="M3.59179e-06 1.51652L2.87701e-06 10.5382"></path>
  <path fill="#503F7E" transform="matrix(3.5224 -0.691401 0.691401 3.5224 199.573 55.6189)" d="M-5.1645 -6.50117C-5.1645 -12.7512 6 -12.7512 6 -6.50117C6 -0.25117 6 12.5 6 12.5L-6 12.5C-6 12.5 -5.1645 -0.251171 -5.1645 -6.50117Z"></path>
  <path fill="none" stroke="#161616" stroke-width="0.5" stroke-linecap="round" stroke-linejoin="round" transform="matrix(3.5224 -0.691401 0.691401 3.5224 199.787 35.6004)" d="M1.85391e-08 -3.7882e-06L3.83324e-06 10.5382"></path>
  <path fill="none" stroke="black" stroke-width="7" stroke-linejoin="round" transform="translate(256 256)" d="M-80.7043 -150.861L23.4611 -165.639C23.4611 -165.639 8.93091 -236.811 -38.3357 -228.725C-40.8238 -228.299 -42.9692 -227.314 -44.8635 -225.953C-45.7395 -217.406 -48.4884 -201.096 -72.5601 -199.674C-82.6104 -177.278 -80.7043 -150.861 -80.7043 -150.861Z"></path>
  <path fill="none" stroke="black" stroke-width="7" stroke-miterlimit="4" transform="translate(256 256)" d="M-37.4158 -236.257C-32.4945 -236.955 -27.939 -233.532 -27.2408 -228.61C-26.5427 -223.689 -29.9662 -219.134 -34.8875 -218.435C-39.8088 -217.737 -44.3642 -221.161 -45.0624 -226.082C-45.7606 -231.003 -42.3371 -235.559 -37.4158 -236.257Z"></path>
  <path fill="#E3CEC2" transform="matrix(0.556923 -0.0790095 0.0790095 0.556923 219.848 28.6539)" d="M-1.90735e-06 -16C8.83655 -16 16 -8.83659 16 -3.05176e-05C16 8.83653 8.83655 16 -1.90735e-06 16C-8.83656 16 -16 8.83653 -16 -3.05176e-05C-16 -8.83659 -8.83656 -16 -1.90735e-06 -16Z"></path>
  <path fill="#8D5A3E" transform="matrix(0.556923 -0.0790095 0.0790095 0.556923 167.819 106.2)" d="M13.4248 -6.10352e-05L200.462 -6.10352e-05C200.462 -6.10352e-05 192.659 -128.902 107.443 -126.472C102.958 -126.344 98.9354 -125.146 95.2612 -123.223C91.5849 -108.397 82.6739 -80.3768 39.9489 -83.8848C16.6664 -46.9736 13.4248 -6.10352e-05 13.4248 -6.10352e-05Z"></path>
  <path fill="#4A4848" transform="matrix(0.504494 -0.0715715 0.0228078 0.160768 226.176 87.2697)" d="M6.67572e-06 -116.5C64.3412 -116.5 116.5 -64.3413 116.5 -0.000118598C116.5 64.3411 64.3412 116.5 6.67572e-06 116.5C-64.3412 116.5 -116.5 64.3411 -116.5 -0.000125542C-116.5 -64.3413 -64.3412 -116.5 6.67572e-06 -116.5Z"></path>
  <path fill="none" stroke="black" stroke-width="7" stroke-miterlimit="4" transform="translate(256 256)" d="M-31.2787 -176.98C4.55437 -182.063 34.7925 -177.799 36.2599 -167.455C37.7274 -157.111 9.86859 -144.604 -25.9645 -139.521C-61.7976 -134.437 -92.0357 -138.701 -93.5032 -149.045C-94.9707 -159.389 -67.1119 -171.896 -31.2787 -176.98Z"></path>
  <path fill="#C9B1AA" transform="matrix(0.556923 -0.0790095 0.0228078 0.160768 227.378 97.75)" d="M-0.519164 93.3574C63.822 93.3574 81.6545 -40.5053 116.5 0.00012207C116.333 7.78615 114.666 35.3785 103.443 64.6425C92.2186 93.9065 32.9112 142.08 1.25538 142.08C-34.5183 142.08 -86.5851 95.3332 -99.0913 78.983C-111.597 62.6328 -116.509 26.4159 -116.5 0.00012207C-66.3811 -27.3189 -64.8603 93.3574 -0.519164 93.3574Z"></path>
  <path fill="#65524C" transform="matrix(0.447062 -0.0634237 0.0183086 0.129054 227.378 97.75)" d="M2.86102e-06 -116.5C64.3412 -116.5 116.5 -64.3412 116.5 0C116.5 64.3412 64.3412 116.5 2.86102e-06 116.5C-64.3412 116.5 -116.5 64.3412 -116.5 0C-116.5 -64.3412 -64.3412 -116.5 2.86102e-06 -116.5Z"></path>
  <clipPath id="cl_634">
    <path d="M225.245 82.7152C254.01 78.6344 278.283 82.0576 279.461 90.3611C280.639 98.6646 258.276 108.704 229.511 112.785C200.747 116.866 176.474 113.442 175.296 105.139C174.118 96.8353 196.481 86.7959 225.245 82.7152Z"></path>
  </clipPath>
  <g clip-path="url(#cl_634)">
    <path fill="#857069" transform="matrix(1.7889 -0.253787 0.253787 1.7889 185.346 87.8053)" d="M6.3453 -18.4774C15.1819 -18.4774 19.9785 -8.83656 25.4977 -1.49012e-07C40.8823 25.7165 8.83656 21.8364 2.5928e-06 19.1869C-8.83655 16.5373 -16 8.83656 -16 0C-16 -8.83656 -2.49126 -18.4774 6.3453 -18.4774Z"></path>
  </g>
  <clipPath id="cl_635">
    <path d="M175.296 105.139L279.461 90.3611C279.461 90.3611 264.931 19.1891 217.664 27.2753C215.176 27.701 213.031 28.6857 211.137 30.0473C210.26 38.5945 207.512 54.9038 183.44 56.3258C173.39 78.722 175.296 105.139 175.296 105.139Z"></path>
  </clipPath>
  <g clip-path="url(#cl_635)">
    <path fill="#65524C" transform="matrix(0.682449 -0.0968176 0.0594143 0.4188 197.489 36.8483)" d="M3.8147e-06 -50.5C11.1423 -50.5 26.7229 -45.7372 27.5442 -33.3093C28.6357 -16.7925 29.2617 -6.93543 29.2617 5.94992C29.2617 33.8403 20.7107 50.5 3.8147e-06 50.5C-20.7107 50.5 -29.0363 45.6071 -29.0363 17.7168C-29.0363 -10.1736 -20.7107 -50.5 3.8147e-06 -50.5Z"></path>
    <path fill="#714035" transform="matrix(0.298708 -0.253155 0.253155 0.298708 247.279 42.726)" d="M-46.3834 -19.9076C-36.9946 -19.9076 -29.3834 -27.5188 -29.3834 -36.9076L29.3834 -36.9076C29.3834 -27.5188 36.9946 -19.9076 46.3834 -19.9076L46.3834 19.9075C36.9946 19.9075 29.3834 27.5187 29.3834 36.9075L-29.3834 36.9075C-29.3834 27.5187 -36.9946 19.9075 -46.3834 19.9075L-46.3834 -19.9076Z"></path>
  </g>
  <clipPath id="cl_637">
    <path d="M194.489 15.6989C202.093 14.6201 213.009 15.1063 214.308 20.2316C216.034 27.0432 217.047 31.1107 217.812 36.5071C219.47 48.1876 214.624 55.9926 200.49 57.9977C186.356 60.0029 180.383 58.7598 178.726 47.0793C177.069 35.3988 180.355 17.7041 194.489 15.6989Z"></path>
  </clipPath>
  <g clip-path="url(#cl_637)">
    <clipPath id="cl_638">
      <path d="M175.296 105.139L279.461 90.3611C279.461 90.3611 264.931 19.1891 217.664 27.2753C215.176 27.701 213.031 28.6857 211.137 30.0473C210.26 38.5945 207.512 54.9038 183.44 56.3258C173.39 78.722 175.296 105.139 175.296 105.139Z"></path>
    </clipPath>
    <g clip-path="url(#cl_638)">
      <path fill="#857069" transform="matrix(1.7889 -0.253787 0.253787 1.7889 180.999 59.1632)" d="M0 -16C8.83656 -16 12.0102 -8.83656 16.201 -1.21452e-06C20.3918 8.83655 8.83656 16 0 16C-8.83656 16 -16 8.83656 -16 0C-16 -8.83656 -8.83656 -16 0 -16Z"></path>
    </g>
  </g>
  <path fill="none" stroke="black" stroke-width="7" stroke-linejoin="round" transform="translate(256 256)" d="M-93.5032 -149.045C-95.0405 -159.881 -91.943 -162.839 -91.943 -162.839C-88.9473 -167.06 -85.2611 -170.66 -80.3362 -173.769"></path>
  <path fill="none" stroke="black" stroke-width="7" stroke-linejoin="round" transform="translate(256 256)" d="M16.9672 -187.697C24.1615 -185.981 29.2528 -183.242 32.2574 -179.67C32.2574 -179.67 36.6506 -176.242 36.3866 -169.023"></path>
  <path fill="#503F7E" transform="matrix(1.53139 0 0 1.39334 226.981 128.454)" d="M0 -40C20.9426 -40 35.0096 -26.8589 47.8597 -2.20017C49.1253 -3.81498 50.3123 -3.57652 51.1974 -3.11681C52.0824 -2.6571 52.5509 -1.60561 52.2206 -0.665335C53.8523 0.0632067 55.2854 1.47333 55.8775 2.67699C56.9197 4.79567 57.6743 10.5072 53.7931 11.8212C58.5977 31.9882 20.3682 22.0914 -1.32962e-05 22.0914C-20.2357 22.0914 -45.0732 28.3281 -41.8836 12.9784C-44.6787 11.8212 -48.2008 8.95145 -46.5316 4.29176C-45.7036 1.98007 -43.8185 0.567096 -42.3936 0.567005C-41.0392 0.566917 -42.9934 -2.19999 -40.2188 -3.8149C-39.0195 -4.5129 -37.7273 -4.43211 -36.6068 -4.12355C-28.0141 -23.731 -20.4124 -40 0 -40Z"></path>
  <path fill="#E3CEC2" transform="matrix(0.556923 -0.0790095 0.0790095 0.556923 162.497 106.955)" d="M0 0C0 -19.4564 6.19051 -23.8887 6.19051 -23.8887C25.0053 -43.7609 53.1913 -52.4203 117 -52.4204C180.809 -52.4203 217.711 -40.5795 229.005 -22.5001C229.005 -22.5001 236.876 -14.3389 233 -6.10352e-05C233 -6.10352e-05 222.592 -33.1384 117.06 -33.1384C11.5269 -33.1384 0 0 0 0Z"></path>
  <path fill="#C9B1AA" transform="matrix(0.556923 -0.0790095 0.0228078 0.160768 227.378 97.75)" d="M0 -116.5C64.3412 -116.5 116.5 -64.3411 116.5 0.00012207C116.333 7.78615 114.079 -0.846809 92.5947 -2.56873C90.1363 -68.643 33.7083 -93.0963 2.0524 -93.0963C-33.7213 -93.0963 -91.7603 -68.5194 -92.7458 3.01578C-107.568 13.6072 -116.5 28.5676 -116.5 0.00012207C-116.5 -64.3411 -64.3412 -116.5 0 -116.5Z"></path>
  <clipPath id="cl_639">
    <path d="M194.489 15.6989C202.093 14.6201 213.009 15.1063 214.308 20.2316C216.034 27.0432 217.047 31.1107 217.812 36.5071C219.47 48.1876 214.624 55.9926 200.49 57.9977C186.356 60.0029 180.383 58.7598 178.726 47.0793C177.069 35.3988 180.355 17.7041 194.489 15.6989Z"></path>
  </clipPath>
  <g clip-path="url(#cl_639)">
    <path fill="#503F7E" transform="matrix(3.5224 -0.691401 0.691401 3.5224 199.573 55.6189)" d="M-5.1645 -6.50117C-5.1645 -12.7512 6 -12.7512 6 -6.50117C6 -0.25117 6 12.5 6 12.5L-6 12.5C-6 12.5 -5.1645 -0.251171 -5.1645 -6.50117Z"></path>
    <path fill="none" stroke="#161616" stroke-width="0.5" stroke-linecap="round" stroke-linejoin="round" transform="matrix(3.5224 -0.691401 0.691401 3.5224 199.787 35.6004)" d="M1.85391e-08 -3.7882e-06L3.83324e-06 10.5382"></path>
  </g>
  <clipPath id="cl_63b">
    <path d="M226.981 72.7205C259.053 72.7205 280.595 91.0306 300.273 125.389C302.211 123.139 304.029 123.471 305.384 124.111C306.74 124.752 307.457 126.217 306.951 127.527C309.45 128.542 311.645 130.507 312.551 132.184C314.148 135.136 315.303 143.094 309.359 144.925C316.717 173.025 258.173 159.235 226.981 159.235C195.993 159.235 157.957 167.925 162.842 146.538C158.561 144.925 153.168 140.927 155.724 134.434C156.992 131.213 159.879 129.244 162.061 129.244C164.135 129.244 161.142 125.389 165.391 123.139C167.228 122.166 169.206 122.279 170.922 122.709C184.081 95.3887 195.722 72.7205 226.981 72.7205Z"></path>
  </clipPath>
  <g clip-path="url(#cl_63b)">
    <path fill="#7463A5" transform="matrix(1.8 2.98023e-08 0.00759348 1.8 223.715 113.312)" d="M0 -5.5C3.86599 -5.5 7 -2.92564 7 0.25C7 3.42564 3.86599 6 0 6C-3.86599 6 -7 3.42564 -7 0.25C-7 -2.92564 -3.86599 -5.5 0 -5.5Z"></path>
    <path fill="#7463A5" transform="matrix(1.83618 3.04014e-08 0.00759348 1.8 276.264 105.165)" d="M9.53674e-07 -5.00001C2.76142 -5.00001 5 -2.6495 5 0.249992C5 3.14949 2.76142 5.49999 9.53674e-07 5.49999C-2.76142 5.49999 -5 3.14949 -5 0.249992C-5 -2.6495 -2.76142 -5.00001 9.53674e-07 -5.00001Z"></path>
    <path fill="none" stroke="#131212" stroke-width="1" stroke-linecap="round" stroke-linejoin="round" transform="matrix(2.30699 -0.373724 0.274137 1.69224 254.495 98.4696)" d="M1.44192e-06 -4.14104e-07L2.92891 -0.714567"></path>
    <path fill="none" stroke="#131212" stroke-width="1" stroke-linecap="round" stroke-linejoin="round" transform="matrix(2.30699 -0.373724 0.274137 1.69224 232.745 97.6399)" d="M5.96046e-07 -7.77785e-06L4.25731 1.79212"></path>
    <path fill="#131212" transform="matrix(2.47104 -0.400299 0.405754 2.50471 246.53 100.75)" d="M4.54078e-07 -2.15485e-07L1.9614 0.352738L0.91509 1.42246L4.54078e-07 -2.15485e-07Z"></path>
    <path fill="none" stroke="#131212" stroke-width="0.5" stroke-linecap="round" stroke-linejoin="round" transform="matrix(1.93759 -0.313883 0.31816 1.96399 249.589 104.286)" d="M1.0721e-06 -0.711224L-2.76974e-06 1.1102"></path>
    <path fill="#32225E" transform="matrix(1.74285 0.441491 -0.424043 1.74552 243.377 92.8845)" d="M-3.84341e-06 -1.92716C1.6285 -1.92716 2.94867 -1.06434 2.94867 -4.39386e-08C2.94867 1.06434 1.6285 1.92716 -3.78598e-06 1.92716C-1.62851 1.92716 -2.94867 1.06434 -2.94867 4.39386e-08C-2.94867 -1.06434 -1.62851 -1.92716 -3.84341e-06 -1.92716Z"></path>
    <path fill="#32225E" transform="matrix(1.71213 0.433708 -0.412468 1.69787 254.57 92.0096)" d="M-5.72205e-06 -1.89919C0.889983 -1.89919 1.61146 -1.04889 1.61146 -2.40127e-08C1.61146 1.04889 0.889983 1.89919 -5.72205e-06 1.89919C-0.889995 1.89919 -1.61147 1.04889 -1.61147 2.40127e-08C-1.61147 -1.04889 -0.889995 -1.89919 -5.72205e-06 -1.89919Z"></path>
  </g>
  <path fill="none" stroke="black" stroke-width="4" stroke-linejoin="round" transform="matrix(1.8 0 0 1.8 352.158 167.398)" d="M-11.7479 -12.9046C-11.318 -13.5165 -10.7601 -14.1187 -10.0572 -14.7065C-5.47351 -18.5399 3.93804 -16.1165 4.43081 -14.7065C7.46664 -16.1165 10.8961 -16.6614 15.0174 -13.9738C19.1387 -11.2862 16.2386 -4.86793 16.6118 -4.55444C16.985 -4.24095 25.2116 0.494543 17.5976 8.33766C16.6439 8.92035 15.7365 9.39702 14.8735 9.77867"></path>
  <path fill="#7463A5" transform="matrix(1.8 0 0 1.8 352.158 167.398)" d="M-0.116455 0C-2.60165 -0.66394 -7.05858 1.11792 -10.0572 -2.65576C-13.0559 -6.42944 -14.6409 -10.8732 -10.0572 -14.7065C-5.47351 -18.5399 3.93804 -16.1165 4.43081 -14.7065C7.46664 -16.1165 10.8961 -16.6614 15.0174 -13.9738C19.1387 -11.2862 16.2386 -4.86793 16.6118 -4.55444C16.985 -4.24095 25.2116 0.494543 17.5976 8.33766C2.9012 17.3171 -0.809986 1.11792 -0.116455 0Z"></path>
  <path fill="none" stroke="black" stroke-width="6" stroke-linejoin="round" transform="matrix(1.8 0 0 1.8 164.859 265.045)" d="M-32.4569 -0.813758C-31.3792 -40.5246 32.0974 -38.802 31.0197 0.908914C30.5607 17.8224 29.795 46.0372 29.3193 63.5654C29.1522 69.724 20.3384 80.8045 -2.90043 80.4444C-26.1393 80.0844 -34.3498 68.9365 -34.2195 64.1362C-33.7411 46.5053 -32.7956 11.668 -32.4569 -0.813758Z"></path>
  <path fill="none" stroke="black" stroke-width="6" stroke-linecap="round" stroke-linejoin="bevel" transform="matrix(1.8 0 0 1.67094 164.859 174.797)" d="M31.3076 39.0327C31.1667 46.9089 31.0454 53.686 30.9827 57.1911C30.2141 100.14 -33.2733 98.7791 -32.5048 55.8305C-32.3118 45.0492 -31.9572 25.2306 -31.7338 12.7472C-31.5104 0.263874 -24.9311 -17.4383 -8.85425 -17.1044C-7.0679 -17.0673 -5.43326 -17.0334 -3.92898 -17.0021"></path>
  <path fill="#503F7E" transform="matrix(1.8 0 0 1.8 164.859 265.045)" d="M-32.4569 -0.81376C-31.3344 -42.174 32.1422 -40.4513 31.0197 0.908912C30.5607 17.8224 29.795 46.0372 29.3193 63.5654C29.1522 69.724 20.3384 80.8045 -2.90043 80.4444C-26.1393 80.0844 -34.3498 68.9365 -34.2195 64.1362C-33.7411 46.5053 -32.7956 11.668 -32.4569 -0.81376Z"></path>
  <path fill="#503F7E" transform="matrix(1.8 0 0 1.67094 164.859 174.797)" d="M-31.7338 12.7472C-31.5104 0.263882 -24.9311 -17.4383 -8.85425 -17.1044C7.22257 -16.7705 11.0118 -16.6919 18.0747 -16.5452C25.1376 -16.3985 32.2253 -12.2476 31.9444 3.45158C31.6634 19.1507 31.1397 48.4186 30.9827 57.1911C30.3067 94.9691 -33.1808 93.6085 -32.5048 55.8305C-32.3118 45.0492 -31.9572 25.2306 -31.7338 12.7472Z"></path>
</svg>