<?xml version="1.0" encoding="utf-8"?>
<svg xmlns="http://www.w3.org/2000/svg" xmlns:xlink="http://www.w3.org/1999/xlink" width="512" height="512">
  <path fill="none" stroke="black" stroke-width="6" stroke-linejoin="round" transform="matrix(1.8 0 0 1.52279 359.051 169.597)" d="M-14.5822 -17.6753C-10.7526 -18.0709 -8.04819 -18.3502 -4.5273 -18.7139C2.51011 -19.4408 9.93836 -16.1898 11.0948 -0.547348C12.2512 15.0951 14.407 44.2573 15.0532 52.9981C18.2168 95.7916 -45.0453 102.284 -48.2088 59.4902C-49.003 48.7478 -50.4628 29.0008 -51.3824 16.5625C-52.3019 4.12421 -47.3778 -14.2878 -31.359 -15.9424C-30.2961 -16.0522 -29.2871 -16.1564 -28.3275 -16.2555"></path>
  <path fill="none" stroke="black" stroke-width="6" stroke-linejoin="round" transform="matrix(1.8 0 0 1.64041 359.051 251.843)" d="M-48.4425 -1.81912C-45.5654 -44.4181 17.7489 -41.1485 14.8718 1.45049C13.7297 18.3608 11.8244 46.5704 10.6408 64.0954C10.2249 70.2528 0.976048 81.124 -22.2143 80.1977C-45.4047 79.2714 -53.1525 67.9182 -52.8284 63.1188C-51.6378 45.4912 -49.2854 10.6603 -48.4425 -1.81912Z"></path>
  <path fill="#503F7E" transform="matrix(1.8 0 0 1.52279 359.051 169.597)" d="M-51.3824 16.5625C-52.3019 4.12422 -47.3778 -14.2878 -31.359 -15.9424C-15.3402 -17.597 -11.5647 -17.987 -4.5273 -18.7139C2.51011 -19.4408 9.93836 -16.1898 11.0948 -0.547348C12.2512 15.0951 14.407 44.2573 15.0532 52.9981C18.2168 95.7916 -45.0453 102.284 -48.2088 59.4902C-49.003 48.7478 -50.4628 29.0008 -51.3824 16.5625Z"></path>
  <path fill="#503F7E" transform="matrix(1.8 0 0 1.64041 359.051 251.843)" d="M-48.4425 -1.81912C-45.5654 -44.4181 17.7489 -41.1485 14.8718 1.45049C13.7297 18.3608 11.8244 46.5704 10.6408 64.0954C10.2249 70.2528 0.976048 81.124 -22.2143 80.1977C-45.4047 79.2714 -53.1525 67.9182 -52.8284 63.1188C-51.6378 45.4912 -49.2854 10.6603 -48.4425 -1.81912Z"></path>
  <path fill="none" stroke="black" stroke-width="5" stroke-linejoin="round" transform="matrix(1.67985 0 0 1.8 269.501 356.202)" d="M0.389673 -15.6786C18.6151 -15.6732 31.5594 -11.4973 31.5431 35.8915C31.9778 49.9928 36.1454 65.1502 21.1492 74.1044C9.58053 74.007 -3.3433 74.8076 -19.8078 74.5356C-30.6438 65.7015 -31.1185 51.7841 -31.6666 34.9697C-32.2668 -11.5164 -17.8357 -15.684 0.389673 -15.6786Z"></path>
  <path fill="#453279" transform="matrix(1.67985 0 0 1.8 269.501 356.202)" d="M0.389673 -15.6786C18.6151 -15.6732 31.5594 -11.4973 31.5431 35.8915C31.9778 49.9928 36.1454 65.1502 21.1492 74.1044C9.58053 74.007 -3.3433 74.8076 -19.8078 74.5356C-30.6438 65.7015 -31.1185 51.7841 -31.6666 34.9697C-32.2668 -11.5164 -17.8357 -15.684 0.389673 -15.6786Z"></path>
  <path fill="none" stroke="black" stroke-width="5" stroke-linejoin="round" transform="matrix(1.67985 0 0 1.8 191.63 362.835)" d="M0.112564 -14.3443C18.3379 -14.328 31.2794 -10.1444 31.2308 37.2444C31.8268 56.1213 34.6047 69.0452 19.1257 75.646C3.65211 76.0175 -7.0349 76.2239 -21.8714 75.8836C-36.7026 69.2948 -32.127 52.7813 -31.9783 36.2849C-32.5467 -10.2015 -18.1128 -14.3606 0.112564 -14.3443Z"></path>
  <path fill="none" stroke="black" stroke-width="5" stroke-linejoin="round" transform="matrix(1.79976 0.0276995 -0.0293645 1.69771 274.681 279.655)" d="M-11.3238 -80.2543C25.8014 -80.2543 54.9476 -94.6926 58.9092 -40.8672C62.8708 12.9582 37.0524 74.7499 0.0572919 75.3534C-14.1177 75.5847 -17.7665 75.6442 -48.2096 76.1409C-78.6526 76.6376 -84.25 60.12 -84.25 9.53674e-07C-86.6294 -86.0849 -88.6034 -78.4854 -12.7475 -80.2208"></path>
  <path fill="#503F7E" transform="matrix(1.67985 0 0 1.8 191.63 362.835)" d="M0.112564 -14.3443C18.3379 -14.328 31.2794 -10.1444 31.2308 37.2444C31.8268 56.1213 34.6047 69.0452 19.1257 75.646C3.65211 76.0175 -7.0349 76.2239 -21.8714 75.8836C-36.7026 69.2948 -32.127 52.7813 -31.9783 36.2849C-32.5467 -10.2015 -18.1128 -14.3606 0.112564 -14.3443Z"></path>
  <path fill="none" stroke="black" stroke-width="5" stroke-linejoin="round" transform="matrix(1.53139 0 0 1.39334 226.981 125.59)" d="M0 -40C20.9426 -40 35.0096 -26.8589 47.8597 -2.20018C49.1253 -3.81499 50.3123 -3.57653 51.1974 -3.11682C52.0824 -2.65711 52.5509 -1.60562 52.2206 -0.665342C53.8523 0.0631991 55.2854 1.47333 55.8775 2.67698C56.9197 4.79566 57.6743 10.5072 53.7931 11.8212C58.5977 31.9882 20.3682 22.0914 -1.32962e-05 22.0914C-20.2357 22.0914 -45.0732 28.3281 -41.8836 12.9784C-44.6787 11.8212 -48.2008 8.95144 -46.5316 4.29175C-45.7036 1.98006 -43.8185 0.567089 -42.3936 0.566997C-41.0392 0.56691 -42.9934 -2.2 -40.2188 -3.81491C-39.0195 -4.51291 -37.7273 -4.43211 -36.6068 -4.12355C-28.0141 -23.7311 -20.4124 -40 0 -40Z"></path>
  <path fill="#503F7E" transform="matrix(1.79976 0.0276995 -0.0293645 1.69771 274.681 279.655)" d="M-11.3238 -80.2543C25.8014 -80.2543 54.9476 -94.6926 58.9092 -40.8672C62.8708 12.9582 37.0524 74.7499 0.0572919 75.3534C-14.1177 75.5847 -17.7665 75.6442 -48.2096 76.1409C-78.6526 76.6376 -84.25 60.12 -84.25 9.53674e-07C-86.6442 -86.62 -88.6279 -78.3873 -11.3238 -80.2543Z"></path>
  <clipPath id="cl_773">
    <path d="M256.658 143.093C323.474 144.121 376.354 120.416 381.904 211.906C387.453 303.396 339.172 407.585 272.572 407.585C247.053 407.585 240.485 407.585 185.68 407.585C130.875 407.585 121.286 379.388 123.052 277.322C121.286 130.199 117.474 144.121 256.658 143.093Z"></path>
  </clipPath>
  <g clip-path="url(#cl_773)">
    <path fill="#655494" transform="matrix(1.8 0 0 1.8 311.807 261.734)" d="M-0.158648 -48.2655C25.513 -48.2655 46.324 -26.6563 46.324 0C46.324 26.6563 25.513 48.2655 -0.158648 48.2655C-25.8303 48.2655 -46.6413 26.6563 -46.6413 0C-46.6413 -26.6563 -25.8303 -48.2655 -0.158648 -48.2655Z"></path>
  </g>
  <path fill="none" stroke="black" stroke-width="2" stroke-linejoin="round" transform="matrix(3.88825 -0.763212 0.691401 3.5224 233.781 47.3418)" d="M-4.34758 -5.25471C-4.34759 -11.5047 3.66088 -11.5047 3.66088 -5.25471C3.66088 0.995287 3.66088 12.5 3.66088 12.5L-4.57314 12.5C-4.57314 12.5 -4.34758 0.995288 -4.34758 -5.25471Z"></path>
  <path fill="none" stroke="black" stroke-width="2" stroke-linejoin="round" transform="matrix(3.5224 -0.691401 0.691401 3.5224 199.573 52.7546)" d="M-5.1645 -6.50117C-5.1645 -12.7512 6 -12.7512 6 -6.50117C6 -0.25117 6 12.5 6 12.5L-6 12.5C-6 12.5 -5.1645 -0.251171 -5.1645 -6.50117Z"></path>
  <path fill="#453279" transform="matrix(3.88825 -0.763212 0.691401 3.5224 233.781 47.3418)" d="M-4.34758 -5.25471C-4.34759 -11.5047 3.66088 -11.5047 3.66088 -5.25471C3.66088 0.995287 3.66088 12.5 3.66088 12.5L-4.57314 12.5C-4.57314 12.5 -4.34758 0.995288 -4.34758 -5.25471Z"></path>
  <path fill="none" stroke="#161616" stroke-width="0.5" stroke-linecap="round" stroke-linejoin="round" transform="matrix(3.88825 -0.763212 0.691401 3.5224 228.988 27.8101)" d="M5.02231e-06 1.51652L4.30753e-06 10.5382"></path>
  <path fill="#503F7E" transform="matrix(3.5224 -0.691401 0.691401 3.5224 199.573 52.7546)" d="M-5.1645 -6.50117C-5.16451 -12.7512 6 -12.7512 6 -6.50117C6 -0.25117 6 12.5 6 12.5L-6 12.5C-6 12.5 -5.1645 -0.251171 -5.1645 -6.50117Z"></path>
  <path fill="none" stroke="#161616" stroke-width="0.5" stroke-linecap="round" stroke-linejoin="round" transform="matrix(3.5224 -0.691401 0.691401 3.5224 199.787 32.7361)" d="M9.72213e-07 2.6499e-08L4.78691e-06 10.5382"></path>
  <path fill="none" stroke="black" stroke-width="7" stroke-linejoin="round" transform="translate(256 256)" d="M-80.7043 -155.254L23.4611 -170.031C23.4611 -170.031 8.93091 -241.203 -38.3357 -233.117C-40.8238 -232.692 -42.9692 -231.707 -44.8635 -230.345C-45.7395 -221.798 -48.4884 -205.489 -72.5601 -204.067C-82.6104 -181.67 -80.7043 -155.254 -80.7043 -155.254Z"></path>
  <path fill="none" stroke="black" stroke-width="7" stroke-miterlimit="4" transform="translate(256 256)" d="M-37.4158 -240.649C-32.4945 -241.348 -27.939 -237.924 -27.2408 -233.003C-26.5427 -228.081 -29.9662 -223.526 -34.8875 -222.828C-39.8088 -222.13 -44.3642 -225.553 -45.0624 -230.474C-45.7606 -235.396 -42.3371 -239.951 -37.4158 -240.649Z"></path>
  <path fill="#E3CEC2" transform="matrix(0.556923 -0.0790095 0.0790095 0.556923 219.848 24.2614)" d="M3.33786e-06 -16C8.83656 -16 16 -8.83659 16 -3.05176e-05C16 8.83653 8.83656 16 3.33786e-06 16C-8.83655 16 -16 8.83653 -16 -3.05176e-05C-16 -8.83659 -8.83655 -16 3.33786e-06 -16Z"></path>
  <path fill="#8D5A3E" transform="matrix(0.556923 -0.0790095 0.0790095 0.556923 167.819 101.807)" d="M13.4248 -3.05176e-05L200.462 -3.05176e-05C200.462 -3.05176e-05 192.659 -128.902 107.443 -126.472C102.958 -126.344 98.9354 -125.146 95.2612 -123.223C91.5849 -108.397 82.6739 -80.3768 39.9489 -83.8848C16.6664 -46.9736 13.4248 -3.05176e-05 13.4248 -3.05176e-05Z"></path>
  <path fill="#4A4848" transform="matrix(0.504494 -0.0715715 0.0228078 0.160768 226.176 82.8772)" d="M2.86102e-06 -116.5C64.3412 -116.5 116.5 -64.3412 116.5 3.47197e-06C116.5 64.3412 64.3412 116.5 2.86102e-06 116.5C-64.3412 116.5 -116.5 64.3412 -116.5 -3.47197e-06C-116.5 -64.3412 -64.3412 -116.5 2.86102e-06 -116.5Z"></path>
  <path fill="none" stroke="black" stroke-width="7" stroke-miterlimit="4" transform="translate(256 256)" d="M-31.2787 -181.372C4.55437 -186.456 34.7925 -182.191 36.2599 -171.847C37.7274 -161.503 9.86859 -148.997 -25.9645 -143.913C-61.7976 -138.829 -92.0357 -143.094 -93.5032 -153.438C-94.9707 -163.782 -67.1119 -176.288 -31.2787 -181.372Z"></path>
  <path fill="#C9B1AA" transform="matrix(0.556923 -0.0790095 0.0228078 0.160768 227.378 93.3575)" d="M-0.519165 93.3574C63.822 93.3574 81.6545 -40.5053 116.5 6.10352e-05C116.333 7.78609 114.666 35.3784 103.443 64.6425C92.2186 93.9065 32.9112 142.08 1.25538 142.08C-34.5183 142.08 -86.5851 95.3332 -99.0913 78.983C-111.597 62.6328 -116.509 26.4159 -116.5 6.10352e-05C-66.3811 -27.3189 -64.8603 93.3574 -0.519165 93.3574Z"></path>
  <path fill="#65524C" transform="matrix(0.447062 -0.0634237 0.0183086 0.129054 227.378 93.3575)" d="M-9.53674e-07 -116.5C64.3412 -116.5 116.5 -64.3412 116.5 0C116.5 64.3412 64.3412 116.5 -9.53674e-07 116.5C-64.3412 116.5 -116.5 64.3412 -116.5 0C-116.5 -64.3412 -64.3412 -116.5 -9.53674e-07 -116.5Z"></path>
  <clipPath id="cl_774">
    <path d="M225.245 78.3227C254.01 74.2419 278.283 77.6651 279.461 85.9686C280.639 94.2721 258.276 104.312 229.511 108.392C200.747 112.473 176.474 109.05 175.296 100.746C174.118 92.4428 196.481 82.4034 225.245 78.3227Z"></path>
  </clipPath>
  <g clip-path="url(#cl_774)">
    <path fill="#857069" transform="matrix(1.7889 -0.253787 0.253787 1.7889 185.346 83.4128)" d="M6.3453 -18.4774C15.1819 -18.4774 19.9785 -8.83656 25.4977 -1.49012e-07C40.8822 25.7165 8.83656 21.8364 6.85453e-07 19.1869C-8.83656 16.5373 -16 8.83656 -16 0C-16 -8.83656 -2.49126 -18.4774 6.3453 -18.4774Z"></path>
  </g>
  <clipPath id="cl_775">
    <path d="M175.296 100.746L279.461 85.9686C279.461 85.9686 264.931 14.7967 217.664 22.8828C215.176 23.3085 213.031 24.2932 211.137 25.6548C210.26 34.202 207.512 50.5113 183.44 51.9333C173.39 74.3295 175.296 100.746 175.296 100.746Z"></path>
  </clipPath>
  <g clip-path="url(#cl_775)">
    <path fill="#65524C" transform="matrix(0.682449 -0.0968176 0.0594143 0.4188 197.489 32.4558)" d="M7.62939e-06 -50.5001C11.1424 -50.5001 26.7229 -45.7372 27.5442 -33.3093C28.6357 -16.7926 29.2617 -6.93549 29.2617 5.94986C29.2617 33.8402 20.7107 50.4999 7.62939e-06 50.4999C-20.7107 50.4999 -29.0363 45.6071 -29.0363 17.7167C-29.0363 -10.1737 -20.7107 -50.5001 7.62939e-06 -50.5001Z"></path>
    <path fill="#714035" transform="matrix(0.298708 -0.253155 0.253155 0.298708 247.279 38.3336)" d="M-46.3834 -19.9076C-36.9946 -19.9076 -29.3834 -27.5187 -29.3834 -36.9076L29.3834 -36.9076C29.3834 -27.5187 36.9946 -19.9076 46.3834 -19.9076L46.3834 19.9076C36.9946 19.9076 29.3834 27.5187 29.3834 36.9076L-29.3834 36.9076C-29.3834 27.5187 -36.9946 19.9076 -46.3834 19.9076L-46.3834 -19.9076Z"></path>
  </g>
  <clipPath id="cl_777">
    <path d="M194.489 11.3064C202.093 10.2276 213.009 10.7138 214.308 15.8391C216.034 22.6507 217.047 26.7182 217.812 32.1146C219.47 43.7951 214.624 51.6001 200.49 53.6052C186.356 55.6104 180.383 54.3673 178.726 42.6868C177.069 31.0063 180.355 13.3116 194.489 11.3064Z"></path>
  </clipPath>
  <g clip-path="url(#cl_777)">
    <clipPath id="cl_778">
      <path d="M175.296 100.746L279.461 85.9686C279.461 85.9686 264.931 14.7967 217.664 22.8828C215.176 23.3085 213.031 24.2932 211.137 25.6548C210.26 34.202 207.512 50.5113 183.44 51.9333C173.39 74.3295 175.296 100.746 175.296 100.746Z"></path>
    </clipPath>
    <g clip-path="url(#cl_778)">
      <path fill="#857069" transform="matrix(1.7889 -0.253787 0.253787 1.7889 180.999 54.7708)" d="M1.90735e-06 -16C8.83656 -16 12.0102 -8.83655 16.201 6.41487e-06C20.3918 8.83656 8.83656 16 1.90735e-06 16C-8.83655 16 -16 8.83656 -16 7.62939e-06C-16 -8.83655 -8.83655 -16 1.90735e-06 -16Z"></path>
    </g>
  </g>
  <path fill="none" stroke="black" stroke-width="7" stroke-linejoin="round" transform="translate(256 256)" d="M-93.5032 -153.438C-95.0405 -164.274 -91.943 -167.231 -91.943 -167.231C-88.9473 -171.453 -85.2611 -175.052 -80.3362 -178.162"></path>
  <path fill="none" stroke="black" stroke-width="7" stroke-linejoin="round" transform="translate(256 256)" d="M16.9672 -192.09C24.1615 -190.374 29.2528 -187.635 32.2574 -184.062C32.2574 -184.062 36.6506 -180.635 36.3866 -173.416"></path>
  <path fill="#503F7E" transform="matrix(1.53139 0 0 1.39334 226.981 125.59)" d="M0 -40C20.9426 -40 35.0096 -26.8589 47.8597 -2.20018C49.1253 -3.81499 50.3123 -3.57653 51.1974 -3.11682C52.0824 -2.65711 52.5509 -1.60562 52.2206 -0.665342C53.8523 0.0631991 55.2854 1.47333 55.8775 2.67698C56.9197 4.79566 57.6743 10.5072 53.7931 11.8212C58.5977 31.9882 20.3682 22.0914 -1.32962e-05 22.0914C-20.2357 22.0914 -45.0732 28.3281 -41.8836 12.9784C-44.6787 11.8212 -48.2008 8.95144 -46.5316 4.29175C-45.7036 1.98006 -43.8185 0.567089 -42.3936 0.566997C-41.0392 0.56691 -42.9934 -2.2 -40.2188 -3.81491C-39.0195 -4.51291 -37.7273 -4.43211 -36.6068 -4.12355C-28.0141 -23.7311 -20.4124 -40 0 -40Z"></path>
  <path fill="#E3CEC2" transform="matrix(0.556923 -0.0790095 0.0790095 0.556923 162.497 102.562)" d="M0 3.05176e-05C0 -19.4564 6.19051 -23.8887 6.19051 -23.8887C25.0053 -43.7609 53.1913 -52.4203 117 -52.4203C180.809 -52.4203 217.711 -40.5795 229.005 -22.5C229.005 -22.5 236.876 -14.3389 233 -3.05176e-05C233 -3.05176e-05 222.592 -33.1384 117.06 -33.1384C11.5269 -33.1384 0 3.05176e-05 0 3.05176e-05Z"></path>
  <path fill="#C9B1AA" transform="matrix(0.556923 -0.0790095 0.0228078 0.160768 227.378 93.3575)" d="M-1.90735e-06 -116.5C64.3412 -116.5 116.5 -64.3411 116.5 6.10352e-05C116.333 7.78609 114.079 -0.84687 92.5947 -2.56879C90.1363 -68.6431 33.7083 -93.0964 2.0524 -93.0964C-33.7213 -93.0964 -91.7603 -68.5195 -92.7458 3.01572C-107.568 13.6071 -116.5 28.5675 -116.5 6.10352e-05C-116.5 -64.3411 -64.3412 -116.5 -1.90735e-06 -116.5Z"></path>
  <clipPath id="cl_779">
    <path d="M194.489 11.3064C202.093 10.2276 213.009 10.7138 214.308 15.8391C216.034 22.6507 217.047 26.7182 217.812 32.1146C219.47 43.7951 214.624 51.6001 200.49 53.6052C186.356 55.6104 180.383 54.3673 178.726 42.6868C177.069 31.0063 180.355 13.3116 194.489 11.3064Z"></path>
  </clipPath>
  <g clip-path="url(#cl_779)">
    <path fill="#503F7E" transform="matrix(3.5224 -0.691401 0.691401 3.5224 199.573 52.7546)" d="M-5.16451 -6.50117C-5.16451 -12.7512 6 -12.7512 6 -6.50117C6 -0.25117 6 12.5 6 12.5L-6 12.5C-6 12.5 -5.1645 -0.251171 -5.16451 -6.50117Z"></path>
    <path fill="none" stroke="#161616" stroke-width="0.5" stroke-linecap="round" stroke-linejoin="round" transform="matrix(3.5224 -0.691401 0.691401 3.5224 199.787 32.7361)" d="M9.72213e-07 2.6499e-08L4.78691e-06 10.5382"></path>
  </g>
  <clipPath id="cl_77b">
    <path d="M226.981 69.8562C259.053 69.8562 280.595 88.1663 300.273 122.524C302.211 120.274 304.029 120.607 305.384 121.247C306.74 121.888 307.457 123.353 306.951 124.663C309.45 125.678 311.645 127.643 312.551 129.32C314.148 132.272 315.303 140.23 309.359 142.061C316.717 170.161 258.173 156.371 226.981 156.371C195.993 156.371 157.957 165.061 162.842 143.673C158.561 142.061 153.168 138.062 155.724 131.57C156.992 128.349 159.879 126.38 162.061 126.38C164.135 126.38 161.142 122.525 165.391 120.274C167.228 119.302 169.206 119.415 170.922 119.844C184.081 92.5245 195.722 69.8562 226.981 69.8562Z"></path>
  </clipPath>
  <g clip-path="url(#cl_77b)">
    <path fill="#7463A5" transform="matrix(1.8 2.98023e-08 0.00759348 1.8 223.715 110.447)" d="M1.90735e-06 -5.5C3.866 -5.5 7 -2.92564 7 0.25C7 3.42564 3.866 6 1.90735e-06 6C-3.86599 6 -7 3.42564 -7 0.25C-7 -2.92564 -3.86599 -5.5 1.90735e-06 -5.5Z"></path>
    <path fill="#7463A5" transform="matrix(1.83618 3.04014e-08 0.00759348 1.8 276.264 102.301)" d="M0 -5.00001C2.76142 -5.00001 5 -2.6495 5 0.249992C5 3.14949 2.76142 5.49999 0 5.49999C-2.76142 5.49999 -5 3.14949 -5 0.249992C-5 -2.6495 -2.76142 -5.00001 0 -5.00001Z"></path>
    <path fill="none" stroke="#131212" stroke-width="1" stroke-linecap="round" stroke-linejoin="round" transform="matrix(2.30699 -0.373724 0.274137 1.69224 254.495 95.6053)" d="M1.44192e-06 7.21529e-06L2.92891 -0.71456"></path>
    <path fill="none" stroke="#131212" stroke-width="1" stroke-linecap="round" stroke-linejoin="round" transform="matrix(2.30699 -0.373724 0.274137 1.69224 232.745 94.7756)" d="M-2.38419e-07 -7.77785e-06L4.25731 1.79212"></path>
    <path fill="#131212" transform="matrix(2.47104 -0.400299 0.405754 2.50471 246.53 97.8859)" d="M4.54078e-07 -2.15485e-07L1.9614 0.352738L0.91509 1.42246L4.54078e-07 -2.15485e-07Z"></path>
    <path fill="none" stroke="#131212" stroke-width="0.5" stroke-linecap="round" stroke-linejoin="round" transform="matrix(1.93759 -0.313883 0.31816 1.96399 249.589 101.421)" d="M1.0721e-06 -0.711224L-2.76974e-06 1.1102"></path>
    <path fill="#32225E" transform="matrix(1.74285 0.441491 -0.424043 1.74552 243.377 90.0202)" d="M-3.84341e-06 -1.92716C1.6285 -1.92716 2.94867 -1.06435 2.94867 -7.67333e-06C2.94867 1.06433 1.6285 1.92715 -3.78598e-06 1.92715C-1.62851 1.92715 -2.94867 1.06433 -2.94867 -7.58546e-06C-2.94867 -1.06435 -1.62851 -1.92716 -3.84341e-06 -1.92716Z"></path>
    <path fill="#32225E" transform="matrix(1.71213 0.433708 -0.412468 1.69787 254.57 89.1454)" d="M-7.62939e-06 -1.89919C0.889981 -1.89919 1.61146 -1.04889 1.61146 -2.40127e-08C1.61146 1.04889 0.889981 1.89919 -7.62939e-06 1.89919C-0.889997 1.89919 -1.61148 1.04889 -1.61148 2.40127e-08C-1.61148 -1.04889 -0.889997 -1.89919 -7.62939e-06 -1.89919Z"></path>
  </g>
  <path fill="none" stroke="black" stroke-width="4" stroke-linejoin="round" transform="matrix(1.8 0 0 1.8 352.158 164.534)" d="M-11.7479 -12.9046C-11.318 -13.5165 -10.7601 -14.1187 -10.0572 -14.7065C-5.47351 -18.5399 3.93804 -16.1165 4.43081 -14.7065C7.46664 -16.1165 10.8961 -16.6614 15.0174 -13.9738C19.1387 -11.2862 16.2386 -4.86793 16.6118 -4.55444C16.985 -4.24095 25.2116 0.494543 17.5976 8.33766C16.6439 8.92035 15.7365 9.39702 14.8735 9.77867"></path>
  <path fill="#7463A5" transform="matrix(1.8 0 0 1.8 352.158 164.534)" d="M-0.116455 0C-2.60165 -0.66394 -7.05858 1.11792 -10.0572 -2.65576C-13.0559 -6.42944 -14.6409 -10.8732 -10.0572 -14.7065C-5.47351 -18.5399 3.93804 -16.1165 4.43081 -14.7065C7.46664 -16.1165 10.8961 -16.6614 15.0174 -13.9738C19.1387 -11.2862 16.2386 -4.86793 16.6118 -4.55444C16.985 -4.24095 25.2116 0.494543 17.5976 8.33766C2.9012 17.3171 -0.809986 1.11792 -0.116455 0Z"></path>
  <path fill="none" stroke="black" stroke-width="6" stroke-linejoin="round" transform="matrix(1.8 0 0 1.8 161.092 262.18)" d="M-35.7249 -3.14398C-31.9573 -42.6904 31.2565 -36.6681 27.4889 2.87836C25.8842 19.7218 23.2073 47.8198 21.5444 65.2754C20.9601 71.4085 11.4153 81.8659 -11.7457 79.9311C-34.9066 77.9963 -42.3424 66.3174 -41.887 61.537C-40.2143 43.9791 -36.9091 9.28609 -35.7249 -3.14398Z"></path>
  <path fill="none" stroke="black" stroke-width="6" stroke-linecap="round" stroke-linejoin="bevel" transform="matrix(1.8 0 0 1.67094 161.092 171.933)" d="M28.7787 41.2329C28.1431 49.0718 27.5963 55.8155 27.3133 59.3049C23.8435 102.098 -39.4123 96.1042 -35.9424 53.3106C-35.0714 42.5681 -33.4702 22.8211 -32.4617 10.3828C-31.4531 -2.05555 -23.7748 -19.2364 -7.75597 -17.7292C-5.93207 -17.5575 -4.26689 -17.4009 -2.73754 -17.257"></path>
  <path fill="#503F7E" transform="matrix(1.8 0 0 1.8 161.092 262.18)" d="M-35.7249 -3.14398C-31.8008 -44.3329 31.4129 -38.3106 27.4889 2.87836C25.8842 19.7218 23.2073 47.8198 21.5444 65.2754C20.9601 71.4085 11.4153 81.8659 -11.7457 79.9311C-34.9066 77.9963 -42.3424 66.3174 -41.887 61.537C-40.2143 43.9791 -36.9091 9.28609 -35.7249 -3.14398Z"></path>
  <path fill="#503F7E" transform="matrix(1.8 0 0 1.67094 161.092 171.933)" d="M-32.4617 10.3828C-31.4531 -2.05555 -23.7748 -19.2364 -7.75597 -17.7292C8.26284 -16.2219 12.0384 -15.8666 19.0758 -15.2045C26.1133 -14.5423 32.9234 -9.88326 31.655 5.75927C30.3867 21.4018 28.0221 50.5641 27.3133 59.3049C24.2612 96.9466 -38.9946 90.9523 -35.9424 53.3106C-35.0714 42.5681 -33.4702 22.8211 -32.4617 10.3828Z"></path>
</svg>