<?xml version="1.0" encoding="utf-8"?>
<svg xmlns="http://www.w3.org/2000/svg" xmlns:xlink="http://www.w3.org/1999/xlink" width="512" height="512">
  <path fill="none" stroke="black" stroke-width="6" stroke-linejoin="round" transform="matrix(1.8 0 0 1.52279 359.051 170.228)" d="M-11.2563 -15.9533C-7.78558 -15.5505 -5.20187 -15.2506 -1.89892 -14.8673C5.1315 -14.0514 11.9269 -9.24046 10.6289 6.38648C9.33088 22.0134 6.91095 51.1466 6.18563 59.8788C2.63456 102.63 -60.5581 95.2534 -57.007 52.5024C-56.1156 41.7706 -54.4769 22.0432 -53.4448 9.61729C-52.4127 -2.80862 -44.7068 -19.8355 -28.704 -17.9782C-27.361 -17.8224 -26.1041 -17.6765 -24.9243 -17.5396"></path>
  <path fill="none" stroke="black" stroke-width="6" stroke-linejoin="round" transform="matrix(1.8 0 0 1.64041 359.051 252.474)" d="M-56.1192 -8.06102C-46.3839 -49.4123 15.3848 -33.7661 5.64945 7.58513C1.78487 24.0002 -4.66198 51.3835 -8.66704 68.3952C-10.0742 74.3723 -20.9367 83.2535 -43.6049 77.7897C-66.2731 72.3259 -72.0565 59.6337 -70.9597 54.9749C-66.9312 37.8636 -58.9712 4.05292 -56.1192 -8.06102Z"></path>
  <path fill="#503F7E" transform="matrix(1.8 0 0 1.52279 359.051 170.228)" d="M-53.4448 9.61731C-52.4127 -2.80862 -44.7068 -19.8355 -28.704 -17.9782C-12.7011 -16.121 -8.92936 -15.6832 -1.89892 -14.8673C5.1315 -14.0514 11.9269 -9.24044 10.6289 6.38649C9.33088 22.0134 6.91096 51.1466 6.18563 59.8788C2.63457 102.63 -60.5581 95.2534 -57.007 52.5024C-56.1156 41.7706 -54.4769 22.0432 -53.4448 9.61731Z"></path>
  <path fill="#503F7E" transform="matrix(1.8 0 0 1.64041 359.051 252.474)" d="M-56.1192 -8.06102C-46.3839 -49.4123 15.3848 -33.7661 5.64945 7.58513C1.78487 24.0002 -4.66198 51.3835 -8.66704 68.3952C-10.0742 74.3723 -20.9367 83.2535 -43.6049 77.7897C-66.2731 72.3259 -72.0565 59.6337 -70.9597 54.9749C-66.9312 37.8636 -58.9712 4.05292 -56.1192 -8.06102Z"></path>
  <path fill="none" stroke="black" stroke-width="5" stroke-linejoin="round" transform="matrix(1.67985 0 0 1.8 269.501 356.202)" d="M-45.1956 -15.6716C-26.9719 -15.9001 -13.9672 -11.8909 -13.285 35.4937C-12.6425 49.5881 -8.18272 64.7846 -23.1665 74.0898C-34.7351 73.9977 -47.6586 74.8041 -64.1232 74.5396C-74.9673 65.6159 -75.7065 52.1892 -76.5024 35.3834C-77.7876 -11.0905 -63.4194 -15.4431 -45.1956 -15.6716Z"></path>
  <path fill="#453279" transform="matrix(1.67985 0 0 1.8 269.501 356.202)" d="M-45.1956 -15.6716C-26.9719 -15.9001 -13.9672 -11.8909 -13.285 35.4937C-12.6425 49.5881 -8.18272 64.7846 -23.1665 74.0898C-34.7351 73.9977 -47.6586 74.8041 -64.1232 74.5396C-74.9673 65.6159 -75.7065 52.1892 -76.5024 35.3834C-77.7876 -11.0905 -63.4194 -15.4431 -45.1956 -15.6716Z"></path>
  <path fill="none" stroke="black" stroke-width="5" stroke-linejoin="round" transform="matrix(1.67985 0 0 1.8 191.63 362.835)" d="M42.2717 -14.0944C60.2658 -16.796 83.1121 -9.00893 81.7136 37.5372C81.7609 56.0938 78.609 71.0991 62.1141 75.288C46.641 74.8991 35.9571 74.5805 21.1604 73.5121C7.83326 64.6522 19.038 51.2253 19.6542 35.0256C20.4209 -10.6494 24.2777 -11.3928 42.2717 -14.0944Z"></path>
  <path fill="none" stroke="black" stroke-width="5" stroke-linejoin="round" transform="matrix(1.79976 0.0276995 -0.0293645 1.69771 274.681 280.286)" d="M-11.3238 -80.2543C25.8014 -80.2543 54.9476 -94.6926 58.9092 -40.8672C62.8708 12.9582 37.0524 74.7499 0.0572909 75.3534C-14.1177 75.5847 -17.7665 75.6442 -48.2096 76.1409C-78.6526 76.6376 -84.25 60.12 -84.25 9.53674e-07C-86.6294 -86.0849 -88.6034 -78.4854 -12.7475 -80.2208"></path>
  <path fill="#503F7E" transform="matrix(1.67985 0 0 1.8 191.63 362.835)" d="M42.2717 -14.0944C60.2658 -16.796 83.1121 -9.00893 81.7136 37.5372C81.7609 56.0938 78.609 71.0991 62.1141 75.288C46.641 74.8991 35.9571 74.5805 21.1604 73.5121C7.83326 64.6522 19.038 51.2253 19.6542 35.0256C20.4209 -10.6494 24.2777 -11.3928 42.2717 -14.0944Z"></path>
  <path fill="none" stroke="black" stroke-width="5" stroke-linejoin="round" transform="matrix(1.53139 0 0 1.39334 226.981 126.221)" d="M0 -40C20.9426 -40 35.0096 -26.8589 47.8597 -2.20017C49.1253 -3.81498 50.3123 -3.57652 51.1974 -3.11681C52.0824 -2.6571 52.5509 -1.60561 52.2206 -0.665335C53.8523 0.0632067 55.2854 1.47333 55.8775 2.67699C56.9197 4.79567 57.6743 10.5072 53.7931 11.8212C58.5977 31.9882 20.3682 22.0914 -1.32962e-05 22.0914C-20.2357 22.0914 -45.0732 28.3281 -41.8836 12.9784C-44.6787 11.8212 -48.2008 8.95145 -46.5316 4.29176C-45.7036 1.98007 -43.8185 0.567096 -42.3936 0.567005C-41.0392 0.566917 -42.9934 -2.19999 -40.2188 -3.8149C-39.0195 -4.5129 -37.7273 -4.43211 -36.6068 -4.12355C-28.0141 -23.731 -20.4124 -40 0 -40Z"></path>
  <path fill="#503F7E" transform="matrix(1.79976 0.0276995 -0.0293645 1.69771 274.681 280.286)" d="M-11.3238 -80.2543C25.8014 -80.2543 54.9476 -94.6926 58.9092 -40.8672C62.8708 12.9582 37.0524 74.7499 0.0572909 75.3534C-14.1177 75.5847 -17.7665 75.6442 -48.2096 76.1409C-78.6526 76.6376 -84.25 60.12 -84.25 9.53674e-07C-86.6442 -86.62 -88.6279 -78.3873 -11.3238 -80.2543Z"></path>
  <clipPath id="cl_323">
    <path d="M256.658 143.724C323.474 144.752 376.354 121.047 381.904 212.537C387.453 304.027 339.172 408.216 272.572 408.216C247.053 408.216 240.485 408.216 185.68 408.216C130.875 408.216 121.286 380.019 123.052 277.952C121.286 130.83 117.474 144.752 256.658 143.724Z"></path>
  </clipPath>
  <g clip-path="url(#cl_323)">
    <path fill="#655494" transform="matrix(1.8 0 0 1.8 311.807 262.365)" d="M-0.158648 -48.2655C25.513 -48.2655 46.324 -26.6563 46.324 -2.38419e-07C46.324 26.6563 25.513 48.2655 -0.158648 48.2655C-25.8303 48.2655 -46.6413 26.6563 -46.6413 -2.38419e-07C-46.6413 -26.6563 -25.8303 -48.2655 -0.158648 -48.2655Z"></path>
  </g>
  <path fill="none" stroke="black" stroke-width="2" stroke-linejoin="round" transform="matrix(3.88825 -0.763212 0.691401 3.5224 233.781 47.9724)" d="M-4.34759 -5.25471C-4.34759 -11.5047 3.66088 -11.5047 3.66088 -5.25471C3.66088 0.995291 3.66088 12.5 3.66088 12.5L-4.57314 12.5C-4.57314 12.5 -4.34758 0.995292 -4.34759 -5.25471Z"></path>
  <path fill="none" stroke="black" stroke-width="2" stroke-linejoin="round" transform="matrix(3.5224 -0.691401 0.691401 3.5224 199.573 53.3852)" d="M-5.1645 -6.50117C-5.1645 -12.7512 6 -12.7512 6 -6.50117C6 -0.251166 6 12.5 6 12.5L-6 12.5C-6 12.5 -5.1645 -0.251167 -5.1645 -6.50117Z"></path>
  <path fill="#453279" transform="matrix(3.88825 -0.763212 0.691401 3.5224 233.781 47.9724)" d="M-4.34759 -5.25471C-4.34759 -11.5047 3.66088 -11.5047 3.66088 -5.25471C3.66088 0.995291 3.66088 12.5 3.66088 12.5L-4.57314 12.5C-4.57314 12.5 -4.34758 0.995292 -4.34759 -5.25471Z"></path>
  <path fill="none" stroke="#161616" stroke-width="0.5" stroke-linecap="round" stroke-linejoin="round" transform="matrix(3.88825 -0.763212 0.691401 3.5224 228.988 28.4407)" d="M4.54547e-06 1.51652L3.83069e-06 10.5382"></path>
  <path fill="#503F7E" transform="matrix(3.5224 -0.691401 0.691401 3.5224 199.573 53.3852)" d="M-5.1645 -6.50117C-5.1645 -12.7512 6 -12.7512 6 -6.50117C6 -0.251166 6 12.5 6 12.5L-6 12.5C-6 12.5 -5.1645 -0.251167 -5.1645 -6.50117Z"></path>
  <path fill="none" stroke="#161616" stroke-width="0.5" stroke-linecap="round" stroke-linejoin="round" transform="matrix(3.5224 -0.691401 0.691401 3.5224 199.787 33.3667)" d="M1.85391e-08 2.6499e-08L3.83324e-06 10.5382"></path>
  <path fill="none" stroke="black" stroke-width="7" stroke-linejoin="round" transform="translate(256 256)" d="M-80.7043 -154.125L23.4611 -168.903C23.4611 -168.903 8.93091 -240.075 -38.3357 -231.989C-40.8238 -231.563 -42.9692 -230.578 -44.8635 -229.217C-45.7395 -220.67 -48.4884 -204.36 -72.5601 -202.938C-82.6104 -180.542 -80.7043 -154.125 -80.7043 -154.125Z"></path>
  <path fill="none" stroke="black" stroke-width="7" stroke-miterlimit="4" transform="translate(256 256)" d="M-37.4158 -239.521C-32.4945 -240.219 -27.939 -236.796 -27.2408 -231.874C-26.5427 -226.953 -29.9662 -222.398 -34.8875 -221.7C-39.8088 -221.001 -44.3642 -224.425 -45.0624 -229.346C-45.7606 -234.267 -42.3371 -238.823 -37.4158 -239.521Z"></path>
  <path fill="#E3CEC2" transform="matrix(0.556923 -0.0790095 0.0790095 0.556923 219.848 25.3897)" d="M0 -16C8.83656 -16 16 -8.83656 16 0C16 8.83656 8.83656 16 0 16C-8.83656 16 -16 8.83656 -16 0C-16 -8.83656 -8.83656 -16 0 -16Z"></path>
  <path fill="#8D5A3E" transform="matrix(0.556923 -0.0790095 0.0790095 0.556923 167.819 102.935)" d="M13.4248 -6.10352e-05L200.462 -6.10352e-05C200.462 -6.10352e-05 192.659 -128.902 107.443 -126.472C102.958 -126.344 98.9354 -125.146 95.2612 -123.223C91.585 -108.397 82.6739 -80.3768 39.9489 -83.8848C16.6664 -46.9736 13.4248 -6.10352e-05 13.4248 -6.10352e-05Z"></path>
  <path fill="#4A4848" transform="matrix(0.504494 -0.0715715 0.0228078 0.160768 226.176 84.0055)" d="M1.90735e-06 -116.5C64.3412 -116.5 116.5 -64.3413 116.5 -0.000118598C116.5 64.3411 64.3412 116.5 1.90735e-06 116.5C-64.3412 116.5 -116.5 64.3411 -116.5 -0.000125542C-116.5 -64.3413 -64.3412 -116.5 1.90735e-06 -116.5Z"></path>
  <path fill="none" stroke="black" stroke-width="7" stroke-miterlimit="4" transform="translate(256 256)" d="M-31.2787 -180.244C4.55437 -185.327 34.7925 -181.063 36.2599 -170.719C37.7274 -160.375 9.86859 -147.868 -25.9645 -142.785C-61.7976 -137.701 -92.0357 -141.966 -93.5032 -152.31C-94.9707 -162.654 -67.1119 -175.16 -31.2787 -180.244Z"></path>
  <path fill="#C9B1AA" transform="matrix(0.556923 -0.0790095 0.0228078 0.160768 227.378 94.4858)" d="M-0.519165 93.3574C63.822 93.3574 81.6545 -40.5053 116.5 6.10352e-05C116.333 7.78609 114.666 35.3784 103.443 64.6425C92.2186 93.9065 32.9112 142.08 1.25538 142.08C-34.5183 142.08 -86.5851 95.3332 -99.0913 78.983C-111.597 62.6328 -116.509 26.4159 -116.5 6.10352e-05C-66.3811 -27.3189 -64.8603 93.3574 -0.519165 93.3574Z"></path>
  <path fill="#65524C" transform="matrix(0.447062 -0.0634237 0.0183086 0.129054 227.378 94.4858)" d="M-9.53674e-07 -116.5C64.3412 -116.5 116.5 -64.3412 116.5 0C116.5 64.3412 64.3412 116.5 -9.53674e-07 116.5C-64.3412 116.5 -116.5 64.3412 -116.5 0C-116.5 -64.3412 -64.3412 -116.5 -9.53674e-07 -116.5Z"></path>
  <clipPath id="cl_324">
    <path d="M225.245 79.451C254.01 75.3703 278.283 78.7935 279.461 87.097C280.639 95.4005 258.276 105.44 229.511 109.521C200.747 113.601 176.474 110.178 175.296 101.875C174.118 93.5712 196.481 83.5318 225.245 79.451Z"></path>
  </clipPath>
  <g clip-path="url(#cl_324)">
    <path fill="#857069" transform="matrix(1.7889 -0.253787 0.253787 1.7889 185.346 84.5411)" d="M6.3453 -18.4774C15.1819 -18.4774 19.9785 -8.83656 25.4977 -1.49012e-07C40.8822 25.7165 8.83656 21.8364 -1.2219e-06 19.1869C-8.83656 16.5373 -16 8.83656 -16 0C-16 -8.83656 -2.49126 -18.4774 6.3453 -18.4774Z"></path>
  </g>
  <clipPath id="cl_325">
    <path d="M175.296 101.875L279.461 87.0969C279.461 87.0969 264.931 15.925 217.664 24.0111C215.176 24.4368 213.031 25.4215 211.137 26.7831C210.26 35.3303 207.512 51.6396 183.44 53.0616C173.39 75.4579 175.296 101.875 175.296 101.875Z"></path>
  </clipPath>
  <g clip-path="url(#cl_325)">
    <path fill="#65524C" transform="matrix(0.682449 -0.0968176 0.0594143 0.4188 197.489 33.5842)" d="M7.62939e-06 -50.5C11.1424 -50.5 26.7229 -45.7372 27.5442 -33.3093C28.6357 -16.7925 29.2617 -6.93543 29.2617 5.94992C29.2617 33.8403 20.7107 50.5 7.62939e-06 50.5C-20.7107 50.5 -29.0363 45.6071 -29.0363 17.7168C-29.0363 -10.1736 -20.7107 -50.5 7.62939e-06 -50.5Z"></path>
    <path fill="#714035" transform="matrix(0.298708 -0.253155 0.253155 0.298708 247.279 39.4619)" d="M-46.3834 -19.9076C-36.9946 -19.9076 -29.3834 -27.5187 -29.3834 -36.9076L29.3834 -36.9076C29.3834 -27.5187 36.9946 -19.9076 46.3834 -19.9076L46.3834 19.9076C36.9946 19.9076 29.3834 27.5187 29.3834 36.9076L-29.3834 36.9076C-29.3834 27.5187 -36.9946 19.9076 -46.3834 19.9076L-46.3834 -19.9076Z"></path>
  </g>
  <clipPath id="cl_327">
    <path d="M194.489 12.4348C202.093 11.356 213.009 11.8422 214.308 16.9675C216.034 23.779 217.047 27.8466 217.812 33.243C219.47 44.9234 214.624 52.7284 200.49 54.7336C186.356 56.7387 180.383 55.4957 178.726 43.8152C177.069 32.1347 180.355 14.4399 194.489 12.4348Z"></path>
  </clipPath>
  <g clip-path="url(#cl_327)">
    <clipPath id="cl_328">
      <path d="M175.296 101.875L279.461 87.0969C279.461 87.0969 264.931 15.925 217.664 24.0111C215.176 24.4368 213.031 25.4215 211.137 26.7831C210.26 35.3303 207.512 51.6396 183.44 53.0616C173.39 75.4579 175.296 101.875 175.296 101.875Z"></path>
    </clipPath>
    <g clip-path="url(#cl_328)">
      <path fill="#857069" transform="matrix(1.7889 -0.253787 0.253787 1.7889 180.999 55.8991)" d="M0 -16C8.83656 -16 12.0102 -8.83655 16.201 6.41487e-06C20.3918 8.83656 8.83656 16 0 16C-8.83656 16 -16 8.83656 -16 7.62939e-06C-16 -8.83655 -8.83656 -16 0 -16Z"></path>
    </g>
  </g>
  <path fill="none" stroke="black" stroke-width="7" stroke-linejoin="round" transform="translate(256 256)" d="M-93.5032 -152.31C-95.0405 -163.145 -91.943 -166.103 -91.943 -166.103C-88.9473 -170.325 -85.2611 -173.924 -80.3362 -177.034"></path>
  <path fill="none" stroke="black" stroke-width="7" stroke-linejoin="round" transform="translate(256 256)" d="M16.9672 -190.961C24.1615 -189.245 29.2528 -186.506 32.2574 -182.934C32.2574 -182.934 36.6506 -179.506 36.3866 -172.288"></path>
  <path fill="#503F7E" transform="matrix(1.53139 0 0 1.39334 226.981 126.221)" d="M0 -40C20.9426 -40 35.0096 -26.8589 47.8597 -2.20017C49.1253 -3.81498 50.3123 -3.57652 51.1974 -3.11681C52.0824 -2.6571 52.5509 -1.60561 52.2206 -0.665335C53.8523 0.0632067 55.2854 1.47333 55.8775 2.67699C56.9197 4.79567 57.6743 10.5072 53.7931 11.8212C58.5977 31.9882 20.3682 22.0914 -1.32962e-05 22.0914C-20.2357 22.0914 -45.0732 28.3281 -41.8836 12.9784C-44.6787 11.8212 -48.2008 8.95145 -46.5316 4.29176C-45.7036 1.98007 -43.8185 0.567096 -42.3936 0.567005C-41.0392 0.566917 -42.9934 -2.19999 -40.2188 -3.8149C-39.0195 -4.5129 -37.7273 -4.43211 -36.6068 -4.12355C-28.0141 -23.731 -20.4124 -40 0 -40Z"></path>
  <path fill="#E3CEC2" transform="matrix(0.556923 -0.0790095 0.0790095 0.556923 162.497 103.69)" d="M-1.52588e-05 0C-1.52588e-05 -19.4564 6.19051 -23.8887 6.19051 -23.8887C25.0053 -43.7609 53.1913 -52.4203 117 -52.4204C180.809 -52.4203 217.711 -40.5795 229.005 -22.5001C229.005 -22.5001 236.876 -14.3389 233 -6.10352e-05C233 -6.10352e-05 222.592 -33.1384 117.06 -33.1384C11.5269 -33.1384 -1.52588e-05 0 -1.52588e-05 0Z"></path>
  <path fill="#C9B1AA" transform="matrix(0.556923 -0.0790095 0.0228078 0.160768 227.378 94.4858)" d="M-1.90735e-06 -116.5C64.3412 -116.5 116.5 -64.3411 116.5 6.10352e-05C116.333 7.78609 114.079 -0.84687 92.5947 -2.56879C90.1363 -68.6431 33.7083 -93.0964 2.0524 -93.0964C-33.7213 -93.0964 -91.7603 -68.5195 -92.7458 3.01572C-107.568 13.6071 -116.5 28.5675 -116.5 6.10352e-05C-116.5 -64.3411 -64.3412 -116.5 -1.90735e-06 -116.5Z"></path>
  <clipPath id="cl_329">
    <path d="M194.489 12.4348C202.093 11.356 213.009 11.8422 214.308 16.9675C216.034 23.779 217.047 27.8466 217.812 33.243C219.47 44.9234 214.624 52.7284 200.49 54.7336C186.356 56.7387 180.383 55.4957 178.726 43.8152C177.069 32.1347 180.355 14.4399 194.489 12.4348Z"></path>
  </clipPath>
  <g clip-path="url(#cl_329)">
    <path fill="#503F7E" transform="matrix(3.5224 -0.691401 0.691401 3.5224 199.573 53.3852)" d="M-5.1645 -6.50116C-5.1645 -12.7512 6 -12.7512 6 -6.50116C6 -0.251162 6 12.5 6 12.5L-6 12.5C-6 12.5 -5.1645 -0.251163 -5.1645 -6.50116Z"></path>
    <path fill="none" stroke="#161616" stroke-width="0.5" stroke-linecap="round" stroke-linejoin="round" transform="matrix(3.5224 -0.691401 0.691401 3.5224 199.787 33.3667)" d="M1.85391e-08 2.6499e-08L3.83324e-06 10.5382"></path>
  </g>
  <clipPath id="cl_32b">
    <path d="M226.981 70.4868C259.053 70.4868 280.595 88.7969 300.273 123.155C302.211 120.905 304.029 121.237 305.384 121.878C306.74 122.518 307.457 123.983 306.951 125.294C309.45 126.309 311.645 128.273 312.551 129.951C314.148 132.903 315.303 140.861 309.359 142.692C316.717 170.791 258.173 157.001 226.981 157.001C195.993 157.001 157.957 165.691 162.842 144.304C158.561 142.692 153.168 138.693 155.724 132.2C156.992 128.979 159.879 127.011 162.061 127.011C164.135 127.01 161.142 123.155 165.391 120.905C167.228 119.933 169.206 120.045 170.922 120.475C184.081 93.1551 195.722 70.4868 226.981 70.4868Z"></path>
  </clipPath>
  <g clip-path="url(#cl_32b)">
    <path fill="#7463A5" transform="matrix(1.8 2.98023e-08 0.00759348 1.8 223.715 111.078)" d="M1.90735e-06 -5.49999C3.866 -5.49999 7 -2.92563 7 0.250008C7 3.42565 3.866 6.00001 1.90735e-06 6.00001C-3.86599 6.00001 -7 3.42565 -7 0.250008C-7 -2.92563 -3.86599 -5.49999 1.90735e-06 -5.49999Z"></path>
    <path fill="#7463A5" transform="matrix(1.83618 3.04014e-08 0.00759348 1.8 276.264 102.932)" d="M9.53674e-07 -5.00001C2.76142 -5.00001 5 -2.6495 5 0.249992C5 3.14949 2.76142 5.49999 9.53674e-07 5.49999C-2.76142 5.49999 -5 3.14949 -5 0.249992C-5 -2.6495 -2.76142 -5.00001 9.53674e-07 -5.00001Z"></path>
    <path fill="none" stroke="#131212" stroke-width="1" stroke-linecap="round" stroke-linejoin="round" transform="matrix(2.30699 -0.373724 0.274137 1.69224 254.495 96.2359)" d="M1.44192e-06 -4.14104e-07L2.92891 -0.714567"></path>
    <path fill="none" stroke="#131212" stroke-width="1" stroke-linecap="round" stroke-linejoin="round" transform="matrix(2.30699 -0.373724 0.274137 1.69224 232.745 95.4062)" d="M1.19209e-07 7.48094e-06L4.25731 1.79213"></path>
    <path fill="#131212" transform="matrix(2.47104 -0.400299 0.405754 2.50471 246.53 98.5165)" d="M-2.27592e-08 -2.15485e-07L1.9614 0.352738L0.91509 1.42246L-2.27592e-08 -2.15485e-07Z"></path>
    <path fill="none" stroke="#131212" stroke-width="0.5" stroke-linecap="round" stroke-linejoin="round" transform="matrix(1.93759 -0.313883 0.31816 1.96399 249.589 102.052)" d="M1.18428e-07 -0.711217L-3.72341e-06 1.11021"></path>
    <path fill="#32225E" transform="matrix(1.74285 0.441491 -0.424043 1.74552 243.377 90.6508)" d="M-1.93607e-06 -1.92716C1.6285 -1.92716 2.94867 -1.06434 2.94867 -4.39386e-08C2.94867 1.06434 1.6285 1.92716 -1.87863e-06 1.92716C-1.62851 1.92716 -2.94867 1.06434 -2.94867 4.39386e-08C-2.94867 -1.06434 -1.62851 -1.92716 -1.93607e-06 -1.92716Z"></path>
    <path fill="#32225E" transform="matrix(1.71213 0.433708 -0.412468 1.69787 254.57 89.776)" d="M-5.72205e-06 -1.89919C0.889983 -1.89919 1.61146 -1.04889 1.61146 -2.40127e-08C1.61146 1.04889 0.889983 1.89919 -5.72205e-06 1.89919C-0.889995 1.89919 -1.61147 1.04889 -1.61147 2.40127e-08C-1.61147 -1.04889 -0.889995 -1.89919 -5.72205e-06 -1.89919Z"></path>
  </g>
  <path fill="none" stroke="black" stroke-width="4" stroke-linejoin="round" transform="matrix(1.8 0 0 1.8 352.158 165.165)" d="M-11.7479 -12.9046C-11.318 -13.5165 -10.7601 -14.1187 -10.0572 -14.7065C-5.47351 -18.5399 3.93804 -16.1165 4.43081 -14.7065C7.46664 -16.1165 10.8961 -16.6614 15.0174 -13.9738C19.1387 -11.2862 16.2386 -4.86793 16.6118 -4.55444C16.985 -4.24095 25.2116 0.494546 17.5976 8.33766C16.6439 8.92036 15.7365 9.39703 14.8735 9.77867"></path>
  <path fill="#7463A5" transform="matrix(1.8 0 0 1.8 352.158 165.165)" d="M-0.116455 3.8147e-06C-2.60165 -0.663936 -7.05858 1.11792 -10.0572 -2.65576C-13.0559 -6.42944 -14.6409 -10.8732 -10.0572 -14.7065C-5.47351 -18.5399 3.93804 -16.1165 4.43081 -14.7065C7.46664 -16.1165 10.8961 -16.6614 15.0174 -13.9738C19.1387 -11.2862 16.2386 -4.86793 16.6118 -4.55444C16.985 -4.24095 25.2116 0.494546 17.5976 8.33766C2.9012 17.3171 -0.809986 1.11792 -0.116455 3.8147e-06Z"></path>
  <path fill="none" stroke="black" stroke-width="6" stroke-linejoin="round" transform="matrix(1.8 0 0 1.8 172.26 262.811)" d="M-22.9266 4.31744C-29.1012 -34.9253 33.6271 -44.7951 39.8016 -5.55238C42.4315 11.1617 46.8185 39.0439 49.5439 56.3654C50.5015 62.4514 43.8538 74.9521 20.9382 78.8316C-1.97739 82.711 -12.0814 73.2453 -12.8277 68.5017C-15.5691 51.0786 -20.9859 16.6521 -22.9266 4.31744Z"></path>
  <path fill="none" stroke="black" stroke-width="6" stroke-linecap="round" stroke-linejoin="bevel" transform="matrix(1.8 0 0 1.67094 172.26 172.564)" d="M37.3703 32.1783C38.5705 39.9949 39.6041 46.7269 40.1376 50.2012C46.6449 92.5819 -16.0102 103.703 -22.5176 61.3223C-24.1511 50.6835 -27.1539 31.1269 -29.0453 18.8086C-30.9368 6.49035 -27.4612 -12.2067 -11.5969 -15.0334C-9.96172 -15.3248 -8.45536 -15.5932 -7.061 -15.8416"></path>
  <path fill="#503F7E" transform="matrix(1.8 0 0 1.8 172.26 262.811)" d="M-22.9266 4.31744C-29.3576 -36.5551 33.3706 -46.425 39.8016 -5.55238C42.4315 11.1617 46.8185 39.0439 49.5439 56.3654C50.5015 62.4514 43.8538 74.9521 20.9382 78.8316C-1.97739 82.711 -12.0814 73.2453 -12.8277 68.5017C-15.5691 51.0786 -20.9859 16.6521 -22.9266 4.31744Z"></path>
  <path fill="#503F7E" transform="matrix(1.8 0 0 1.67094 172.26 172.564)" d="M-29.0453 18.8086C-30.9368 6.49034 -27.4612 -12.2067 -11.5969 -15.0334C4.26737 -17.8601 8.00649 -18.5263 14.976 -19.7682C21.9456 -21.01 29.6166 -18.3194 31.9953 -2.82784C34.3739 12.6637 38.8084 41.5447 40.1376 50.2012C45.8615 87.4797 -16.7937 98.6008 -22.5176 61.3223C-24.1511 50.6835 -27.1539 31.1269 -29.0453 18.8086Z"></path>
</svg>