<?xml version="1.0" encoding="utf-8"?>
<svg xmlns="http://www.w3.org/2000/svg" xmlns:xlink="http://www.w3.org/1999/xlink" width="512" height="512">
  <path fill="none" stroke="black" stroke-width="6" stroke-linejoin="round" transform="matrix(1.8 0 0 1.52279 359.051 178.211)" d="M-14.0966 -17.494C-10.3184 -17.7709 -7.62736 -17.9681 -4.13408 -18.2242C2.91661 -18.741 10.2731 -15.2695 11.0953 0.402435C11.9174 16.0744 13.4502 45.2916 13.9096 54.0489C16.1589 96.9231 -47.2216 101.527 -49.4708 58.6524C-50.0355 47.8897 -51.0734 28.1054 -51.7271 15.6437C-52.3809 3.18198 -47.0654 -15.0774 -31.0164 -16.2537C-29.9116 -16.3347 -28.865 -16.4114 -27.8714 -16.4843"></path>
  <path fill="none" stroke="black" stroke-width="6" stroke-linejoin="round" transform="matrix(1.8 0 0 1.64041 359.051 260.457)" d="M-49.5479 -2.57414C-45.7286 -45.0828 17.4953 -40.1157 13.6759 2.39297C12.1598 19.2675 9.6306 47.4172 8.05935 64.9051C7.50729 71.0494 -1.97959 81.6691 -25.1428 80.121C-48.3061 78.5729 -55.8004 67.0153 -55.3701 62.2261C-53.7896 44.6358 -50.6668 9.87885 -49.5479 -2.57414Z"></path>
  <path fill="#503F7E" transform="matrix(1.8 0 0 1.52279 359.051 178.211)" d="M-51.7271 15.6437C-52.3809 3.18198 -47.0654 -15.0773 -31.0164 -16.2537C-14.9674 -17.4301 -11.1848 -17.7074 -4.13408 -18.2242C2.91661 -18.741 10.2731 -15.2695 11.0953 0.402447C11.9174 16.0744 13.4502 45.2916 13.9096 54.0489C16.1589 96.9231 -47.2216 101.527 -49.4708 58.6524C-50.0355 47.8897 -51.0734 28.1055 -51.7271 15.6437Z"></path>
  <path fill="#503F7E" transform="matrix(1.8 0 0 1.64041 359.051 260.457)" d="M-49.5479 -2.57414C-45.7286 -45.0828 17.4953 -40.1157 13.6759 2.39297C12.1598 19.2675 9.6306 47.4172 8.05935 64.905C7.50729 71.0494 -1.97959 81.6691 -25.1428 80.121C-48.3061 78.5729 -55.8004 67.0153 -55.3701 62.2261C-53.7896 44.6358 -50.6668 9.87885 -49.5479 -2.57414Z"></path>
  <path fill="none" stroke="black" stroke-width="5" stroke-linejoin="round" transform="matrix(1.67985 0 0 1.8 269.501 356.202)" d="M-6.60618 -15.6736C11.6183 -15.8425 24.6078 -11.7907 25.1119 35.5958C25.7013 49.6922 30.0859 64.8783 15.0996 74.0925C3.53095 74.0004 -9.39247 74.8067 -25.8571 74.5422C-36.7001 65.6435 -37.372 52.0868 -38.1047 35.2785C-39.2152 -11.1993 -24.8307 -15.5048 -6.60618 -15.6736Z"></path>
  <path fill="#453279" transform="matrix(1.67985 0 0 1.8 269.501 356.202)" d="M-6.60618 -15.6736C11.6183 -15.8425 24.6078 -11.7907 25.1119 35.5958C25.7013 49.6922 30.0859 64.8783 15.0996 74.0925C3.53095 74.0004 -9.39247 74.8067 -25.8571 74.5422C-36.7001 65.6435 -37.372 52.0868 -38.1047 35.2785C-39.2152 -11.1993 -24.8307 -15.5048 -6.60618 -15.6736Z"></path>
  <path fill="none" stroke="black" stroke-width="5" stroke-linejoin="round" transform="matrix(1.67985 0 0 1.8 191.63 362.835)" d="M-0.806046 -12.6128C15.4746 -20.2578 52.8607 -7.79033 51.6178 33.9652C51.6649 50.6118 39.4719 73.5617 22.3889 72.9655C7.74135 68.2955 -2.35646 65.023 -16.1415 59.8922C-26.0264 47.7239 -4.60329 46.2581 -4.05455 31.7256C-3.37815 -9.24836 -17.0867 -4.96788 -0.806046 -12.6128Z"></path>
  <path fill="none" stroke="black" stroke-width="5" stroke-linejoin="round" transform="matrix(1.79976 0.0276995 -0.0293645 1.69771 274.681 288.269)" d="M-11.3238 -80.2543C25.8014 -80.2543 54.9476 -94.6926 58.9092 -40.8672C62.8708 12.9582 37.0524 74.7499 0.0572909 75.3534C-14.1177 75.5847 -17.7665 75.6442 -48.2096 76.1409C-78.6526 76.6376 -84.25 60.12 -84.25 1.90735e-06C-86.6294 -86.0849 -88.6034 -78.4854 -12.7475 -80.2208"></path>
  <path fill="#503F7E" transform="matrix(1.67985 0 0 1.8 191.63 362.835)" d="M-0.806046 -12.6128C15.4746 -20.2578 52.8607 -7.79033 51.6178 33.9652C51.6649 50.6118 39.4719 73.5617 22.3889 72.9655C7.74135 68.2955 -2.35646 65.023 -16.1415 59.8922C-26.0264 47.7239 -4.60329 46.2581 -4.05455 31.7256C-3.37815 -9.24836 -17.0867 -4.96788 -0.806046 -12.6128Z"></path>
  <path fill="none" stroke="black" stroke-width="5" stroke-linejoin="round" transform="matrix(1.53139 0 0 1.39334 226.981 134.204)" d="M0 -40C20.9426 -40 35.0096 -26.8589 47.8597 -2.20018C49.1253 -3.81499 50.3123 -3.57653 51.1974 -3.11682C52.0824 -2.65711 52.5509 -1.60562 52.2206 -0.665342C53.8523 0.0631991 55.2854 1.47333 55.8775 2.67698C56.9197 4.79566 57.6743 10.5072 53.7931 11.8212C58.5977 31.9882 20.3682 22.0914 -1.32962e-05 22.0914C-20.2357 22.0914 -45.0732 28.3281 -41.8836 12.9784C-44.6787 11.8212 -48.2008 8.95144 -46.5316 4.29175C-45.7036 1.98006 -43.8185 0.567089 -42.3936 0.566997C-41.0392 0.56691 -42.9934 -2.2 -40.2188 -3.81491C-39.0195 -4.51291 -37.7273 -4.43211 -36.6068 -4.12355C-28.0141 -23.7311 -20.4124 -40 0 -40Z"></path>
  <path fill="#503F7E" transform="matrix(1.79976 0.0276995 -0.0293645 1.69771 274.681 288.269)" d="M-11.3238 -80.2543C25.8014 -80.2543 54.9476 -94.6926 58.9092 -40.8672C62.8708 12.9582 37.0524 74.7499 0.0572909 75.3534C-14.1177 75.5847 -17.7665 75.6442 -48.2096 76.1409C-78.6526 76.6376 -84.25 60.12 -84.25 1.90735e-06C-86.6442 -86.62 -88.6279 -78.3873 -11.3238 -80.2543Z"></path>
  <clipPath id="cl_f3">
    <path d="M256.658 151.707C323.474 152.735 376.354 129.03 381.904 220.52C387.453 312.01 339.172 416.199 272.572 416.199C247.053 416.199 240.485 416.199 185.68 416.199C130.875 416.199 121.286 388.002 123.052 285.935C121.286 138.813 117.474 152.735 256.658 151.707Z"></path>
  </clipPath>
  <g clip-path="url(#cl_f3)">
    <path fill="#655494" transform="matrix(1.8 0 0 1.8 311.807 270.348)" d="M-0.158648 -48.2655C25.513 -48.2655 46.324 -26.6563 46.324 0C46.324 26.6563 25.513 48.2655 -0.158648 48.2655C-25.8303 48.2655 -46.6413 26.6563 -46.6413 0C-46.6413 -26.6563 -25.8303 -48.2655 -0.158648 -48.2655Z"></path>
  </g>
  <path fill="none" stroke="black" stroke-width="2" stroke-linejoin="round" transform="matrix(3.88825 -0.763212 0.691401 3.5224 233.781 55.9555)" d="M-4.34758 -5.25471C-4.34758 -11.5047 3.66088 -11.5047 3.66088 -5.25471C3.66088 0.995291 3.66088 12.5 3.66088 12.5L-4.57314 12.5C-4.57314 12.5 -4.34758 0.995292 -4.34758 -5.25471Z"></path>
  <path fill="none" stroke="black" stroke-width="2" stroke-linejoin="round" transform="matrix(3.5224 -0.691401 0.691401 3.5224 199.573 61.3683)" d="M-5.1645 -6.50116C-5.1645 -12.7512 6 -12.7512 6 -6.50116C6 -0.251162 6 12.5 6 12.5L-6 12.5C-6 12.5 -5.1645 -0.251163 -5.1645 -6.50116Z"></path>
  <path fill="#453279" transform="matrix(3.88825 -0.763212 0.691401 3.5224 233.781 55.9555)" d="M-4.34758 -5.25471C-4.34758 -11.5047 3.66088 -11.5047 3.66088 -5.25471C3.66088 0.995291 3.66088 12.5 3.66088 12.5L-4.57314 12.5C-4.57314 12.5 -4.34758 0.995292 -4.34758 -5.25471Z"></path>
  <path fill="none" stroke="#161616" stroke-width="0.5" stroke-linecap="round" stroke-linejoin="round" transform="matrix(3.88825 -0.763212 0.691401 3.5224 228.988 36.4239)" d="M5.02231e-06 1.51652L4.30753e-06 10.5382"></path>
  <path fill="#503F7E" transform="matrix(3.5224 -0.691401 0.691401 3.5224 199.573 61.3683)" d="M-5.1645 -6.50117C-5.1645 -12.7512 6 -12.7512 6 -6.50117C6 -0.251166 6 12.5 6 12.5L-6 12.5C-6 12.5 -5.1645 -0.251167 -5.1645 -6.50117Z"></path>
  <path fill="none" stroke="#161616" stroke-width="0.5" stroke-linecap="round" stroke-linejoin="round" transform="matrix(3.5224 -0.691401 0.691401 3.5224 199.787 41.3499)" d="M7.33795e-07 2.6499e-08L4.54849e-06 10.5382"></path>
  <path fill="none" stroke="black" stroke-width="7" stroke-linejoin="round" transform="translate(256 256)" d="M-80.7043 -143.104L23.4611 -157.882C23.4611 -157.882 8.93091 -229.053 -38.3357 -220.967C-40.8238 -220.542 -42.9692 -219.557 -44.8635 -218.195C-45.7395 -209.648 -48.4884 -193.339 -72.5601 -191.917C-82.6104 -169.521 -80.7043 -143.104 -80.7043 -143.104Z"></path>
  <path fill="none" stroke="black" stroke-width="7" stroke-miterlimit="4" transform="translate(256 256)" d="M-37.4158 -228.5C-32.4945 -229.198 -27.939 -225.774 -27.2408 -220.853C-26.5427 -215.932 -29.9662 -211.376 -34.8875 -210.678C-39.8088 -209.98 -44.3642 -213.403 -45.0624 -218.325C-45.7606 -223.246 -42.3371 -227.801 -37.4158 -228.5Z"></path>
  <path fill="#E3CEC2" transform="matrix(0.556923 -0.0790095 0.0790095 0.556923 219.848 36.4112)" d="M1.90735e-06 -16C8.83656 -16 16 -8.83659 16 -3.05176e-05C16 8.83653 8.83656 16 1.90735e-06 16C-8.83655 16 -16 8.83653 -16 -3.05176e-05C-16 -8.83659 -8.83655 -16 1.90735e-06 -16Z"></path>
  <path fill="#8D5A3E" transform="matrix(0.556923 -0.0790095 0.0790095 0.556923 167.819 113.957)" d="M13.4248 1.52588e-05L200.462 0C200.462 0 192.659 -128.902 107.443 -126.472C102.958 -126.344 98.9354 -125.146 95.2612 -123.223C91.5849 -108.397 82.6739 -80.3767 39.9489 -83.8847C16.6664 -46.9735 13.4248 1.52588e-05 13.4248 1.52588e-05Z"></path>
  <path fill="#4A4848" transform="matrix(0.504494 -0.0715715 0.0228078 0.160768 226.176 95.027)" d="M4.76837e-06 -116.5C64.3412 -116.5 116.5 -64.3412 116.5 3.47197e-06C116.5 64.3412 64.3412 116.5 4.76837e-06 116.5C-64.3412 116.5 -116.5 64.3412 -116.5 -3.47197e-06C-116.5 -64.3412 -64.3412 -116.5 4.76837e-06 -116.5Z"></path>
  <path fill="none" stroke="black" stroke-width="7" stroke-miterlimit="4" transform="translate(256 256)" d="M-31.2787 -169.222C4.55437 -174.306 34.7925 -170.041 36.2599 -159.697C37.7274 -149.353 9.86859 -136.847 -25.9645 -131.763C-61.7976 -126.68 -92.0357 -130.944 -93.5032 -141.288C-94.9707 -151.632 -67.1119 -164.139 -31.2787 -169.222Z"></path>
  <path fill="#C9B1AA" transform="matrix(0.556923 -0.0790095 0.0228078 0.160768 227.378 105.507)" d="M-0.519165 93.3574C63.822 93.3574 81.6545 -40.5053 116.5 0.00012207C116.333 7.78615 114.666 35.3785 103.443 64.6425C92.2186 93.9065 32.9112 142.08 1.25538 142.08C-34.5183 142.08 -86.5851 95.3332 -99.0913 78.983C-111.597 62.6328 -116.509 26.4159 -116.5 0.00012207C-66.3811 -27.3189 -64.8603 93.3574 -0.519165 93.3574Z"></path>
  <path fill="#65524C" transform="matrix(0.447062 -0.0634237 0.0183086 0.129054 227.378 105.507)" d="M9.53674e-07 -116.5C64.3412 -116.5 116.5 -64.3412 116.5 0C116.5 64.3412 64.3412 116.5 9.53674e-07 116.5C-64.3412 116.5 -116.5 64.3412 -116.5 0C-116.5 -64.3412 -64.3412 -116.5 9.53674e-07 -116.5Z"></path>
  <clipPath id="cl_f4">
    <path d="M225.245 90.4725C254.01 86.3918 278.283 89.815 279.461 98.1185C280.639 106.422 258.276 116.461 229.511 120.542C200.747 124.623 176.474 121.2 175.296 112.896C174.118 104.593 196.481 94.5533 225.245 90.4725Z"></path>
  </clipPath>
  <g clip-path="url(#cl_f4)">
    <path fill="#857069" transform="matrix(1.7889 -0.253787 0.253787 1.7889 185.346 95.5626)" d="M6.3453 -18.4774C15.1819 -18.4774 19.9785 -8.83656 25.4977 -1.49012e-07C40.8822 25.7165 8.83656 21.8364 6.85453e-07 19.1869C-8.83656 16.5373 -16 8.83656 -16 0C-16 -8.83656 -2.49126 -18.4774 6.3453 -18.4774Z"></path>
  </g>
  <clipPath id="cl_f5">
    <path d="M175.296 112.896L279.461 98.1184C279.461 98.1184 264.931 26.9465 217.664 35.0327C215.176 35.4583 213.031 36.4431 211.137 37.8047C210.26 46.3518 207.512 62.6611 183.44 64.0831C173.39 86.4794 175.296 112.896 175.296 112.896Z"></path>
  </clipPath>
  <g clip-path="url(#cl_f5)">
    <path fill="#65524C" transform="matrix(0.682449 -0.0968176 0.0594143 0.4188 197.489 44.6057)" d="M7.62939e-06 -50.5C11.1424 -50.5 26.7229 -45.7372 27.5442 -33.3093C28.6357 -16.7925 29.2617 -6.93543 29.2617 5.94992C29.2617 33.8403 20.7107 50.5 7.62939e-06 50.5C-20.7107 50.5 -29.0363 45.6071 -29.0363 17.7168C-29.0363 -10.1736 -20.7107 -50.5 7.62939e-06 -50.5Z"></path>
    <path fill="#714035" transform="matrix(0.298708 -0.253155 0.253155 0.298708 247.279 50.4834)" d="M-46.3834 -19.9076C-36.9946 -19.9076 -29.3834 -27.5187 -29.3834 -36.9076L29.3834 -36.9076C29.3834 -27.5187 36.9946 -19.9076 46.3834 -19.9076L46.3834 19.9076C36.9946 19.9076 29.3834 27.5187 29.3834 36.9076L-29.3834 36.9076C-29.3834 27.5187 -36.9946 19.9076 -46.3834 19.9076L-46.3834 -19.9076Z"></path>
  </g>
  <clipPath id="cl_f7">
    <path d="M194.489 23.4563C202.093 22.3775 213.009 22.8637 214.308 27.989C216.034 34.8005 217.047 38.8681 217.812 44.2645C219.47 55.9449 214.624 63.7499 200.49 65.7551C186.356 67.7602 180.383 66.5172 178.726 54.8367C177.069 43.1562 180.355 25.4614 194.489 23.4563Z"></path>
  </clipPath>
  <g clip-path="url(#cl_f7)">
    <clipPath id="cl_f8">
      <path d="M175.296 112.896L279.461 98.1184C279.461 98.1184 264.931 26.9465 217.664 35.0327C215.176 35.4583 213.031 36.4431 211.137 37.8047C210.26 46.3518 207.512 62.6611 183.44 64.0831C173.39 86.4794 175.296 112.896 175.296 112.896Z"></path>
    </clipPath>
    <g clip-path="url(#cl_f8)">
      <path fill="#857069" transform="matrix(1.7889 -0.253787 0.253787 1.7889 180.999 66.9206)" d="M-1.90735e-06 -16C8.83655 -16 12.0102 -8.83655 16.201 6.41487e-06C20.3918 8.83656 8.83655 16 -1.90735e-06 16C-8.83656 16 -16 8.83656 -16 7.62939e-06C-16 -8.83655 -8.83656 -16 -1.90735e-06 -16Z"></path>
    </g>
  </g>
  <path fill="none" stroke="black" stroke-width="7" stroke-linejoin="round" transform="translate(256 256)" d="M-93.5032 -141.288C-95.0405 -152.124 -91.943 -155.081 -91.943 -155.081C-88.9473 -159.303 -85.2611 -162.902 -80.3362 -166.012"></path>
  <path fill="none" stroke="black" stroke-width="7" stroke-linejoin="round" transform="translate(256 256)" d="M16.9672 -179.94C24.1615 -178.224 29.2528 -175.485 32.2574 -171.912C32.2574 -171.912 36.6506 -168.485 36.3866 -161.266"></path>
  <path fill="#503F7E" transform="matrix(1.53139 0 0 1.39334 226.981 134.204)" d="M0 -40C20.9426 -40 35.0096 -26.8589 47.8597 -2.20018C49.1253 -3.81499 50.3123 -3.57653 51.1974 -3.11682C52.0824 -2.65711 52.5509 -1.60562 52.2206 -0.665342C53.8523 0.0631991 55.2854 1.47333 55.8775 2.67698C56.9197 4.79566 57.6743 10.5072 53.7931 11.8212C58.5977 31.9882 20.3682 22.0914 -1.32962e-05 22.0914C-20.2357 22.0914 -45.0732 28.3281 -41.8836 12.9784C-44.6787 11.8212 -48.2008 8.95144 -46.5316 4.29175C-45.7036 1.98006 -43.8185 0.567089 -42.3936 0.566997C-41.0392 0.56691 -42.9934 -2.2 -40.2188 -3.81491C-39.0195 -4.51291 -37.7273 -4.43211 -36.6068 -4.12355C-28.0141 -23.7311 -20.4124 -40 0 -40Z"></path>
  <path fill="#E3CEC2" transform="matrix(0.556923 -0.0790095 0.0790095 0.556923 162.497 114.712)" d="M-1.52588e-05 3.05176e-05C-1.52588e-05 -19.4563 6.19049 -23.8887 6.19049 -23.8887C25.0053 -43.7609 53.1913 -52.4203 117 -52.4203C180.809 -52.4203 217.711 -40.5794 229.005 -22.5C229.005 -22.5 236.876 -14.3388 233 3.05176e-05C233 3.05176e-05 222.592 -33.1383 117.06 -33.1383C11.5269 -33.1383 -1.52588e-05 3.05176e-05 -1.52588e-05 3.05176e-05Z"></path>
  <path fill="#C9B1AA" transform="matrix(0.556923 -0.0790095 0.0228078 0.160768 227.378 105.507)" d="M-1.90735e-06 -116.5C64.3412 -116.5 116.5 -64.3411 116.5 0.00012207C116.333 7.78615 114.079 -0.846809 92.5947 -2.56873C90.1363 -68.643 33.7083 -93.0963 2.0524 -93.0963C-33.7213 -93.0963 -91.7603 -68.5194 -92.7458 3.01578C-107.568 13.6072 -116.5 28.5676 -116.5 0.00012207C-116.5 -64.3411 -64.3412 -116.5 -1.90735e-06 -116.5Z"></path>
  <clipPath id="cl_f9">
    <path d="M194.489 23.4563C202.093 22.3775 213.009 22.8637 214.308 27.989C216.034 34.8005 217.047 38.8681 217.812 44.2645C219.47 55.9449 214.624 63.7499 200.49 65.7551C186.356 67.7602 180.383 66.5172 178.726 54.8367C177.069 43.1562 180.355 25.4614 194.489 23.4563Z"></path>
  </clipPath>
  <g clip-path="url(#cl_f9)">
    <path fill="#503F7E" transform="matrix(3.5224 -0.691401 0.691401 3.5224 199.573 61.3683)" d="M-5.1645 -6.50116C-5.1645 -12.7512 6 -12.7512 6 -6.50116C6 -0.251162 6 12.5 6 12.5L-6 12.5C-6 12.5 -5.1645 -0.251163 -5.1645 -6.50116Z"></path>
    <path fill="none" stroke="#161616" stroke-width="0.5" stroke-linecap="round" stroke-linejoin="round" transform="matrix(3.5224 -0.691401 0.691401 3.5224 199.787 41.3499)" d="M7.33795e-07 2.6499e-08L4.54849e-06 10.5382"></path>
  </g>
  <clipPath id="cl_fb">
    <path d="M226.981 78.47C259.053 78.47 280.595 96.7801 300.273 131.138C302.211 128.888 304.029 129.22 305.384 129.861C306.74 130.501 307.457 131.967 306.951 133.277C309.45 134.292 311.645 136.257 312.551 137.934C314.148 140.886 315.303 148.844 309.359 150.675C316.717 178.774 258.173 164.985 226.981 164.985C195.993 164.985 157.957 173.674 162.842 152.287C158.561 150.675 153.168 146.676 155.724 140.184C156.992 136.963 159.879 134.994 162.061 134.994C164.135 134.994 161.142 131.138 165.391 128.888C167.228 127.916 169.206 128.028 170.922 128.458C184.081 101.138 195.722 78.47 226.981 78.47Z"></path>
  </clipPath>
  <g clip-path="url(#cl_fb)">
    <path fill="#7463A5" transform="matrix(1.8 2.98023e-08 0.00759348 1.8 223.715 119.061)" d="M1.90735e-06 -5.5C3.866 -5.5 7 -2.92564 7 0.25C7 3.42564 3.866 6 1.90735e-06 6C-3.86599 6 -7 3.42564 -7 0.25C-7 -2.92564 -3.86599 -5.5 1.90735e-06 -5.5Z"></path>
    <path fill="#7463A5" transform="matrix(1.83618 3.04014e-08 0.00759348 1.8 276.264 110.915)" d="M9.53674e-07 -5C2.76142 -5 5 -2.6495 5 0.25C5 3.1495 2.76142 5.5 9.53674e-07 5.5C-2.76142 5.5 -5 3.1495 -5 0.25C-5 -2.6495 -2.76142 -5 9.53674e-07 -5Z"></path>
    <path fill="none" stroke="#131212" stroke-width="1" stroke-linecap="round" stroke-linejoin="round" transform="matrix(2.30699 -0.373724 0.274137 1.69224 254.495 104.219)" d="M1.44192e-06 -4.14104e-07L2.92891 -0.714567"></path>
    <path fill="none" stroke="#131212" stroke-width="1" stroke-linecap="round" stroke-linejoin="round" transform="matrix(2.30699 -0.373724 0.274137 1.69224 232.745 103.389)" d="M-5.96046e-08 7.48094e-06L4.25731 1.79213"></path>
    <path fill="#131212" transform="matrix(2.47104 -0.400299 0.405754 2.50471 246.53 106.5)" d="M4.54078e-07 3.59921e-06L1.9614 0.352742L0.91509 1.42246L4.54078e-07 3.59921e-06Z"></path>
    <path fill="none" stroke="#131212" stroke-width="0.5" stroke-linecap="round" stroke-linejoin="round" transform="matrix(1.93759 -0.313883 0.31816 1.96399 249.589 110.035)" d="M1.0721e-06 -0.711232L-2.76974e-06 1.11019"></path>
    <path fill="#32225E" transform="matrix(1.74285 0.441491 -0.424043 1.74552 243.377 98.634)" d="M-2.87169e-08 -1.92716C1.62851 -1.92716 2.94867 -1.06434 2.94867 -4.39386e-08C2.94867 1.06434 1.62851 1.92716 2.87169e-08 1.92716C-1.62851 1.92716 -2.94867 1.06434 -2.94867 4.39386e-08C-2.94867 -1.06434 -1.62851 -1.92716 -2.87169e-08 -1.92716Z"></path>
    <path fill="#32225E" transform="matrix(1.71213 0.433708 -0.412468 1.69787 254.57 97.7591)" d="M-5.72205e-06 -1.89918C0.889983 -1.89918 1.61146 -1.04889 1.61146 7.60538e-06C1.61146 1.0489 0.889983 1.8992 -5.72205e-06 1.8992C-0.889995 1.8992 -1.61147 1.0489 -1.61147 7.65341e-06C-1.61147 -1.04889 -0.889995 -1.89918 -5.72205e-06 -1.89918Z"></path>
  </g>
  <path fill="none" stroke="black" stroke-width="4" stroke-linejoin="round" transform="matrix(1.8 0 0 1.8 352.158 173.148)" d="M-11.7479 -12.9046C-11.318 -13.5165 -10.7601 -14.1187 -10.0572 -14.7065C-5.47351 -18.5399 3.93804 -16.1165 4.43081 -14.7065C7.46664 -16.1165 10.8961 -16.6614 15.0174 -13.9738C19.1387 -11.2862 16.2386 -4.86793 16.6118 -4.55444C16.985 -4.24095 25.2116 0.494543 17.5976 8.33766C16.6439 8.92035 15.7365 9.39702 14.8735 9.77867"></path>
  <path fill="#7463A5" transform="matrix(1.8 0 0 1.8 352.158 173.148)" d="M-0.116455 0C-2.60165 -0.66394 -7.05858 1.11792 -10.0572 -2.65576C-13.0559 -6.42944 -14.6409 -10.8732 -10.0572 -14.7065C-5.47351 -18.5399 3.93804 -16.1165 4.43081 -14.7065C7.46664 -16.1165 10.8961 -16.6614 15.0174 -13.9738C19.1387 -11.2862 16.2386 -4.86793 16.6118 -4.55444C16.985 -4.24095 25.2116 0.494543 17.5976 8.33766C2.9012 17.3171 -0.809986 1.11792 -0.116455 0Z"></path>
  <path fill="none" stroke="black" stroke-width="6" stroke-linejoin="round" transform="matrix(1.8 0 0 1.8 162.442 270.794)" d="M-34.0959 -1.94061C-31.684 -41.5928 31.6988 -37.7375 29.287 1.91467C28.2598 18.8032 26.5461 46.9763 25.4815 64.4786C25.1075 70.6281 15.9263 81.4061 -7.28737 80.2651C-30.501 79.1241 -38.3322 67.7066 -38.0406 62.9134C-36.9698 45.3085 -34.8539 10.5227 -34.0959 -1.94061Z"></path>
  <path fill="none" stroke="black" stroke-width="6" stroke-linecap="round" stroke-linejoin="bevel" transform="matrix(1.8 0 0 1.67094 162.442 180.547)" d="M30.072 40.1472C29.6857 48.0089 29.3532 54.7728 29.1813 58.272C27.073 101.168 -36.3361 97.5098 -34.2279 54.6134C-33.6986 43.8451 -32.7258 24.0506 -32.113 11.5824C-31.5003 -0.885857 -24.3723 -18.3398 -8.31501 -17.424C-6.5086 -17.321 -4.85751 -17.2268 -3.33961 -17.1402"></path>
  <path fill="#503F7E" transform="matrix(1.8 0 0 1.8 162.442 270.794)" d="M-34.0959 -1.94062C-31.5838 -43.2397 31.799 -39.3844 29.287 1.91467C28.2598 18.8032 26.5461 46.9763 25.4815 64.4786C25.1075 70.6281 15.9263 81.4061 -7.28737 80.2651C-30.501 79.1241 -38.3322 67.7066 -38.0406 62.9134C-36.9698 45.3085 -34.8539 10.5227 -34.0959 -1.94062Z"></path>
  <path fill="#503F7E" transform="matrix(1.8 0 0 1.67094 162.442 180.547)" d="M-32.113 11.5823C-31.5003 -0.885864 -24.3723 -18.3398 -8.31501 -17.424C7.74232 -16.5082 11.5269 -16.2924 18.5813 -15.89C25.6357 -15.4877 32.5898 -11.0825 31.8192 4.59762C31.0486 20.2777 29.6119 49.5101 29.1813 58.272C27.3268 96.0042 -36.0823 92.3456 -34.2279 54.6134C-33.6986 43.8451 -32.7258 24.0506 -32.113 11.5823Z"></path>
</svg>