<?xml version="1.0" encoding="utf-8"?>
<svg xmlns="http://www.w3.org/2000/svg" xmlns:xlink="http://www.w3.org/1999/xlink" width="512" height="512">
  <path fill="none" stroke="black" stroke-width="6" stroke-linejoin="round" transform="matrix(1.8 0 0 1.52279 359.051 177.26)" d="M-13.6283 -17.2983C-9.90026 -17.4621 -7.22343 -17.5798 -3.75819 -17.732C3.30117 -18.0422 10.5826 -14.3563 11.0761 1.33491C11.5695 17.0261 12.4894 46.2793 12.7651 55.0473C14.115 97.9742 -49.3425 100.72 -50.6924 57.7933C-51.0312 47.0173 -51.6541 27.2088 -52.0465 14.7317C-52.4389 2.25465 -46.7423 -15.8434 -30.6736 -16.5494C-29.5285 -16.5997 -28.4458 -16.6473 -27.4198 -16.6924"></path>
  <path fill="none" stroke="black" stroke-width="6" stroke-linejoin="round" transform="matrix(1.8 0 0 1.64041 359.051 259.506)" d="M-50.6228 -3.28911C-45.956 -45.6925 17.1548 -39.1739 12.488 3.22952C10.6354 20.0622 7.54504 48.1423 5.62514 65.5868C4.95058 71.716 -4.74614 82.0998 -27.8734 79.9832C-51.0006 77.8665 -58.2626 66.128 -57.7368 61.3507C-55.8057 43.804 -51.9899 9.13305 -50.6228 -3.28911Z"></path>
  <path fill="#503F7E" transform="matrix(1.8 0 0 1.52279 359.051 177.26)" d="M-52.0465 14.7317C-52.4389 2.25466 -46.7423 -15.8434 -30.6736 -16.5494C-14.6049 -17.2554 -10.8176 -17.4218 -3.75819 -17.732C3.30117 -18.0422 10.5826 -14.3563 11.0761 1.33492C11.5695 17.0261 12.4894 46.2793 12.7651 55.0473C14.115 97.9742 -49.3425 100.72 -50.6924 57.7933C-51.0312 47.0173 -51.6541 27.2088 -52.0465 14.7317Z"></path>
  <path fill="#503F7E" transform="matrix(1.8 0 0 1.64041 359.051 259.506)" d="M-50.6228 -3.28911C-45.956 -45.6925 17.1548 -39.1739 12.488 3.22952C10.6354 20.0622 7.54504 48.1423 5.62514 65.5868C4.95058 71.716 -4.74614 82.0998 -27.8734 79.9832C-51.0006 77.8665 -58.2626 66.128 -57.7368 61.3507C-55.8057 43.804 -51.9899 9.13305 -50.6228 -3.28911Z"></path>
  <path fill="none" stroke="black" stroke-width="5" stroke-linejoin="round" transform="matrix(1.67985 0 0 1.8 269.501 356.202)" d="M-12.8246 -15.6719C5.39929 -15.8929 18.402 -11.8782 19.0618 35.5066C19.6976 49.6012 24.1479 64.7965 9.16376 74.0902C-2.40491 73.9981 -15.3283 74.8045 -31.793 74.54C-42.6369 65.6194 -43.3676 52.1763 -44.1555 35.3702C-45.4188 -11.1043 -31.0484 -15.4509 -12.8246 -15.6719Z"></path>
  <path fill="#453279" transform="matrix(1.67985 0 0 1.8 269.501 356.202)" d="M-12.8246 -15.6719C5.39929 -15.8929 18.402 -11.8782 19.0618 35.5066C19.6976 49.6012 24.1479 64.7965 9.16376 74.0902C-2.40491 73.9981 -15.3283 74.8045 -31.793 74.54C-42.6369 65.6194 -43.3676 52.1763 -44.1555 35.3702C-45.4188 -11.1043 -31.0484 -15.4509 -12.8246 -15.6719Z"></path>
  <path fill="none" stroke="black" stroke-width="5" stroke-linejoin="round" transform="matrix(1.67985 0 0 1.8 191.63 362.835)" d="M4.76453 -12.3956C20.786 -20.5035 59.5994 -7.37174 58.1547 33.5526C58.1106 49.8704 44.6537 73.7894 27.618 72.4885C13.2512 67.1122 3.34998 63.3529 -10.1297 57.5584C-19.4436 44.9958 2.97815 45.337 3.59483 31.0944C4.48 -9.06651 -11.2569 -4.28777 4.76453 -12.3956Z"></path>
  <path fill="none" stroke="black" stroke-width="5" stroke-linejoin="round" transform="matrix(1.79976 0.0276995 -0.0293645 1.69771 274.681 287.318)" d="M-11.3238 -80.2543C25.8014 -80.2543 54.9476 -94.6926 58.9092 -40.8672C62.8708 12.9582 37.0524 74.7499 0.05729 75.3534C-14.1177 75.5847 -17.7665 75.6442 -48.2096 76.1409C-78.6526 76.6376 -84.25 60.12 -84.25 3.8147e-06C-86.6294 -86.0849 -88.6034 -78.4854 -12.7475 -80.2208"></path>
  <path fill="#503F7E" transform="matrix(1.67985 0 0 1.8 191.63 362.835)" d="M4.76453 -12.3956C20.786 -20.5035 59.5994 -7.37174 58.1547 33.5526C58.1106 49.8704 44.6537 73.7894 27.618 72.4885C13.2512 67.1122 3.34998 63.3529 -10.1297 57.5584C-19.4436 44.9958 2.97815 45.337 3.59483 31.0944C4.48 -9.06651 -11.2569 -4.28777 4.76453 -12.3956Z"></path>
  <path fill="none" stroke="black" stroke-width="5" stroke-linejoin="round" transform="matrix(1.53139 0 0 1.39334 226.981 133.253)" d="M0 -40C20.9426 -40 35.0096 -26.8589 47.8597 -2.20018C49.1253 -3.81499 50.3123 -3.57653 51.1974 -3.11682C52.0824 -2.65711 52.5509 -1.60562 52.2206 -0.665342C53.8523 0.0631991 55.2854 1.47333 55.8775 2.67698C56.9197 4.79566 57.6743 10.5072 53.7931 11.8212C58.5977 31.9882 20.3682 22.0914 -1.32962e-05 22.0914C-20.2357 22.0914 -45.0732 28.3281 -41.8836 12.9784C-44.6787 11.8212 -48.2008 8.95144 -46.5316 4.29175C-45.7036 1.98006 -43.8185 0.567089 -42.3936 0.566997C-41.0392 0.56691 -42.9934 -2.2 -40.2188 -3.81491C-39.0195 -4.51291 -37.7273 -4.43211 -36.6068 -4.12355C-28.0141 -23.7311 -20.4124 -40 0 -40Z"></path>
  <path fill="#503F7E" transform="matrix(1.79976 0.0276995 -0.0293645 1.69771 274.681 287.318)" d="M-11.3238 -80.2543C25.8014 -80.2543 54.9476 -94.6926 58.9092 -40.8672C62.8708 12.9582 37.0524 74.7499 0.05729 75.3534C-14.1177 75.5847 -17.7665 75.6442 -48.2096 76.1409C-78.6526 76.6376 -84.25 60.12 -84.25 3.8147e-06C-86.6442 -86.62 -88.6279 -78.3873 -11.3238 -80.2543Z"></path>
  <clipPath id="cl_153">
    <path d="M256.658 150.756C323.474 151.784 376.354 128.08 381.904 219.569C387.453 311.059 339.172 415.248 272.572 415.248C247.053 415.248 240.485 415.248 185.68 415.248C130.875 415.248 121.286 387.051 123.052 284.985C121.286 137.862 117.474 151.784 256.658 150.756Z"></path>
  </clipPath>
  <g clip-path="url(#cl_153)">
    <path fill="#655494" transform="matrix(1.8 0 0 1.8 311.807 269.397)" d="M-0.158648 -48.2655C25.513 -48.2655 46.324 -26.6563 46.324 0C46.324 26.6563 25.513 48.2655 -0.158648 48.2655C-25.8303 48.2655 -46.6413 26.6563 -46.6413 0C-46.6413 -26.6563 -25.8303 -48.2655 -0.158648 -48.2655Z"></path>
  </g>
  <path fill="none" stroke="black" stroke-width="2" stroke-linejoin="round" transform="matrix(3.88825 -0.763212 0.691401 3.5224 233.781 55.0049)" d="M-4.34758 -5.25471C-4.34758 -11.5047 3.66088 -11.5047 3.66088 -5.25471C3.66088 0.995287 3.66088 12.5 3.66088 12.5L-4.57314 12.5C-4.57314 12.5 -4.34758 0.995288 -4.34758 -5.25471Z"></path>
  <path fill="none" stroke="black" stroke-width="2" stroke-linejoin="round" transform="matrix(3.5224 -0.691401 0.691401 3.5224 199.573 60.4177)" d="M-5.1645 -6.50117C-5.1645 -12.7512 6 -12.7512 6 -6.50117C6 -0.251166 6 12.5 6 12.5L-6 12.5C-6 12.5 -5.1645 -0.251167 -5.1645 -6.50117Z"></path>
  <path fill="#453279" transform="matrix(3.88825 -0.763212 0.691401 3.5224 233.781 55.0049)" d="M-4.34758 -5.25471C-4.34758 -11.5047 3.66088 -11.5047 3.66088 -5.25471C3.66088 0.995287 3.66088 12.5 3.66088 12.5L-4.57314 12.5C-4.57314 12.5 -4.34758 0.995288 -4.34758 -5.25471Z"></path>
  <path fill="none" stroke="#161616" stroke-width="0.5" stroke-linecap="round" stroke-linejoin="round" transform="matrix(3.88825 -0.763212 0.691401 3.5224 228.988 35.4732)" d="M4.54547e-06 1.51652L3.83069e-06 10.5382"></path>
  <path fill="#503F7E" transform="matrix(3.5224 -0.691401 0.691401 3.5224 199.573 60.4177)" d="M-5.1645 -6.50117C-5.1645 -12.7512 6 -12.7512 6 -6.50117C6 -0.251166 6 12.5 6 12.5L-6 12.5C-6 12.5 -5.1645 -0.251167 -5.1645 -6.50117Z"></path>
  <path fill="none" stroke="#161616" stroke-width="0.5" stroke-linecap="round" stroke-linejoin="round" transform="matrix(3.5224 -0.691401 0.691401 3.5224 199.787 40.3992)" d="M2.56958e-07 2.6499e-08L4.07165e-06 10.5382"></path>
  <path fill="none" stroke="black" stroke-width="7" stroke-linejoin="round" transform="translate(256 256)" d="M-80.7043 -144.299L23.4611 -159.077C23.4611 -159.077 8.93091 -230.249 -38.3357 -222.163C-40.8238 -221.737 -42.9692 -220.752 -44.8635 -219.391C-45.7395 -210.843 -48.4884 -194.534 -72.5601 -193.112C-82.6104 -170.716 -80.7043 -144.299 -80.7043 -144.299Z"></path>
  <path fill="none" stroke="black" stroke-width="7" stroke-miterlimit="4" transform="translate(256 256)" d="M-37.4158 -229.695C-32.4945 -230.393 -27.939 -226.969 -27.2408 -222.048C-26.5427 -217.127 -29.9662 -212.571 -34.8875 -211.873C-39.8088 -211.175 -44.3642 -214.599 -45.0624 -219.52C-45.7606 -224.441 -42.3371 -228.997 -37.4158 -229.695Z"></path>
  <path fill="#E3CEC2" transform="matrix(0.556923 -0.0790095 0.0790095 0.556923 219.848 35.2159)" d="M2.86102e-06 -16C8.83656 -16 16 -8.83659 16 -3.05176e-05C16 8.83653 8.83656 16 2.86102e-06 16C-8.83655 16 -16 8.83653 -16 -3.05176e-05C-16 -8.83659 -8.83655 -16 2.86102e-06 -16Z"></path>
  <path fill="#8D5A3E" transform="matrix(0.556923 -0.0790095 0.0790095 0.556923 167.819 112.762)" d="M13.4248 -1.52588e-05L200.462 -3.05176e-05C200.462 -3.05176e-05 192.659 -128.902 107.443 -126.472C102.958 -126.344 98.9354 -125.146 95.2612 -123.223C91.5849 -108.397 82.6739 -80.3768 39.9489 -83.8848C16.6664 -46.9736 13.4248 -1.52588e-05 13.4248 -1.52588e-05Z"></path>
  <path fill="#4A4848" transform="matrix(0.504494 -0.0715715 0.0228078 0.160768 226.176 93.8317)" d="M2.86102e-06 -116.5C64.3412 -116.5 116.5 -64.3412 116.5 3.47197e-06C116.5 64.3412 64.3412 116.5 2.86102e-06 116.5C-64.3412 116.5 -116.5 64.3412 -116.5 -3.47197e-06C-116.5 -64.3412 -64.3412 -116.5 2.86102e-06 -116.5Z"></path>
  <path fill="none" stroke="black" stroke-width="7" stroke-miterlimit="4" transform="translate(256 256)" d="M-31.2787 -170.417C4.55437 -175.501 34.7925 -171.237 36.2599 -160.893C37.7274 -150.549 9.86859 -138.042 -25.9645 -132.958C-61.7976 -127.875 -92.0357 -132.139 -93.5032 -142.483C-94.9707 -152.827 -67.1119 -165.334 -31.2787 -170.417Z"></path>
  <path fill="#C9B1AA" transform="matrix(0.556923 -0.0790095 0.0228078 0.160768 227.378 104.312)" d="M-0.519163 93.3574C63.822 93.3574 81.6545 -40.5053 116.5 6.10352e-05C116.333 7.78609 114.666 35.3784 103.443 64.6425C92.2186 93.9065 32.9112 142.08 1.25538 142.08C-34.5183 142.08 -86.5851 95.3332 -99.0913 78.983C-111.597 62.6328 -116.509 26.4159 -116.5 6.10352e-05C-66.3811 -27.3189 -64.8603 93.3574 -0.519163 93.3574Z"></path>
  <path fill="#65524C" transform="matrix(0.447062 -0.0634237 0.0183086 0.129054 227.378 104.312)" d="M0 -116.5C64.3412 -116.5 116.5 -64.3412 116.5 0C116.5 64.3412 64.3412 116.5 0 116.5C-64.3412 116.5 -116.5 64.3412 -116.5 0C-116.5 -64.3412 -64.3412 -116.5 0 -116.5Z"></path>
  <clipPath id="cl_154">
    <path d="M225.245 89.2772C254.01 85.1965 278.283 88.6197 279.461 96.9232C280.639 105.227 258.276 115.266 229.511 119.347C200.747 123.428 176.474 120.004 175.296 111.701C174.118 103.397 196.481 93.358 225.245 89.2772Z"></path>
  </clipPath>
  <g clip-path="url(#cl_154)">
    <path fill="#857069" transform="matrix(1.7889 -0.253787 0.253787 1.7889 185.346 94.3674)" d="M6.3453 -18.4774C15.1819 -18.4774 19.9785 -8.83656 25.4977 -1.49012e-07C40.8822 25.7165 8.83656 21.8364 6.85453e-07 19.1869C-8.83656 16.5373 -16 8.83656 -16 0C-16 -8.83656 -2.49126 -18.4774 6.3453 -18.4774Z"></path>
  </g>
  <clipPath id="cl_155">
    <path d="M175.296 111.701L279.461 96.9232C279.461 96.9232 264.931 25.7512 217.664 33.8374C215.176 34.263 213.031 35.2478 211.137 36.6094C210.26 45.1565 207.512 61.4659 183.44 62.8878C173.39 85.2841 175.296 111.701 175.296 111.701Z"></path>
  </clipPath>
  <g clip-path="url(#cl_155)">
    <path fill="#65524C" transform="matrix(0.682449 -0.0968176 0.0594143 0.4188 197.489 43.4104)" d="M3.8147e-06 -50.5C11.1423 -50.5 26.7229 -45.7372 27.5442 -33.3093C28.6357 -16.7925 29.2617 -6.93543 29.2617 5.94992C29.2617 33.8403 20.7107 50.5 3.8147e-06 50.5C-20.7107 50.5 -29.0363 45.6071 -29.0363 17.7168C-29.0363 -10.1736 -20.7107 -50.5 3.8147e-06 -50.5Z"></path>
    <path fill="#714035" transform="matrix(0.298708 -0.253155 0.253155 0.298708 247.279 49.2881)" d="M-46.3834 -19.9076C-36.9946 -19.9076 -29.3834 -27.5187 -29.3834 -36.9076L29.3834 -36.9076C29.3834 -27.5187 36.9946 -19.9076 46.3834 -19.9076L46.3834 19.9076C36.9946 19.9076 29.3834 27.5187 29.3834 36.9076L-29.3834 36.9076C-29.3834 27.5187 -36.9946 19.9076 -46.3834 19.9076L-46.3834 -19.9076Z"></path>
  </g>
  <clipPath id="cl_157">
    <path d="M194.489 22.261C202.093 21.1822 213.009 21.6684 214.308 26.7937C216.034 33.6052 217.047 37.6728 217.812 43.0692C219.47 54.7497 214.624 62.5546 200.49 64.5598C186.356 66.5649 180.383 65.3219 178.726 53.6414C177.069 41.9609 180.355 24.2661 194.489 22.261Z"></path>
  </clipPath>
  <g clip-path="url(#cl_157)">
    <clipPath id="cl_158">
      <path d="M175.296 111.701L279.461 96.9232C279.461 96.9232 264.931 25.7512 217.664 33.8374C215.176 34.263 213.031 35.2478 211.137 36.6094C210.26 45.1565 207.512 61.4659 183.44 62.8878C173.39 85.2841 175.296 111.701 175.296 111.701Z"></path>
    </clipPath>
    <g clip-path="url(#cl_158)">
      <path fill="#857069" transform="matrix(1.7889 -0.253787 0.253787 1.7889 180.999 65.7253)" d="M-1.90735e-06 -16C8.83655 -16 12.0102 -8.83656 16.201 -1.21452e-06C20.3918 8.83655 8.83655 16 -1.90735e-06 16C-8.83656 16 -16 8.83656 -16 0C-16 -8.83656 -8.83656 -16 -1.90735e-06 -16Z"></path>
    </g>
  </g>
  <path fill="none" stroke="black" stroke-width="7" stroke-linejoin="round" transform="translate(256 256)" d="M-93.5032 -142.483C-95.0405 -153.319 -91.943 -156.277 -91.943 -156.277C-88.9473 -160.498 -85.2611 -164.098 -80.3362 -167.207"></path>
  <path fill="none" stroke="black" stroke-width="7" stroke-linejoin="round" transform="translate(256 256)" d="M16.9672 -181.135C24.1615 -179.419 29.2528 -176.68 32.2574 -173.108C32.2574 -173.108 36.6506 -169.68 36.3866 -162.461"></path>
  <path fill="#503F7E" transform="matrix(1.53139 0 0 1.39334 226.981 133.253)" d="M0 -40C20.9426 -40 35.0096 -26.8589 47.8597 -2.20018C49.1253 -3.81499 50.3123 -3.57653 51.1974 -3.11682C52.0824 -2.65711 52.5509 -1.60562 52.2206 -0.665342C53.8523 0.0631991 55.2854 1.47333 55.8775 2.67698C56.9197 4.79566 57.6743 10.5072 53.7931 11.8212C58.5977 31.9882 20.3682 22.0914 -1.32962e-05 22.0914C-20.2357 22.0914 -45.0732 28.3281 -41.8836 12.9784C-44.6787 11.8212 -48.2008 8.95144 -46.5316 4.29175C-45.7036 1.98006 -43.8185 0.567089 -42.3936 0.566997C-41.0392 0.56691 -42.9934 -2.2 -40.2188 -3.81491C-39.0195 -4.51291 -37.7273 -4.43211 -36.6068 -4.12355C-28.0141 -23.7311 -20.4124 -40 0 -40Z"></path>
  <path fill="#E3CEC2" transform="matrix(0.556923 -0.0790095 0.0790095 0.556923 162.497 113.517)" d="M0 0C-1.52588e-05 -19.4564 6.19051 -23.8887 6.19051 -23.8887C25.0053 -43.7609 53.1913 -52.4203 117 -52.4203C180.809 -52.4203 217.711 -40.5795 229.005 -22.5C229.005 -22.5 236.876 -14.3389 233 -3.05176e-05C233 -3.05176e-05 222.592 -33.1384 117.06 -33.1384C11.5269 -33.1384 0 0 0 0Z"></path>
  <path fill="#C9B1AA" transform="matrix(0.556923 -0.0790095 0.0228078 0.160768 227.378 104.312)" d="M9.53674e-07 -116.5C64.3412 -116.5 116.5 -64.3411 116.5 6.10352e-05C116.333 7.78609 114.079 -0.84687 92.5947 -2.56879C90.1363 -68.6431 33.7083 -93.0964 2.0524 -93.0964C-33.7213 -93.0964 -91.7603 -68.5195 -92.7458 3.01572C-107.568 13.6071 -116.5 28.5675 -116.5 6.10352e-05C-116.5 -64.3411 -64.3412 -116.5 9.53674e-07 -116.5Z"></path>
  <clipPath id="cl_159">
    <path d="M194.489 22.261C202.093 21.1822 213.009 21.6684 214.308 26.7937C216.034 33.6052 217.047 37.6728 217.812 43.0692C219.47 54.7497 214.624 62.5546 200.49 64.5598C186.356 66.5649 180.383 65.3219 178.726 53.6414C177.069 41.9609 180.355 24.2661 194.489 22.261Z"></path>
  </clipPath>
  <g clip-path="url(#cl_159)">
    <path fill="#503F7E" transform="matrix(3.5224 -0.691401 0.691401 3.5224 199.573 60.4177)" d="M-5.1645 -6.50116C-5.1645 -12.7512 6 -12.7512 6 -6.50116C6 -0.251162 6 12.5 6 12.5L-6 12.5C-6 12.5 -5.1645 -0.251163 -5.1645 -6.50116Z"></path>
    <path fill="none" stroke="#161616" stroke-width="0.5" stroke-linecap="round" stroke-linejoin="round" transform="matrix(3.5224 -0.691401 0.691401 3.5224 199.787 40.3992)" d="M2.56958e-07 2.6499e-08L4.07165e-06 10.5382"></path>
  </g>
  <clipPath id="cl_15b">
    <path d="M226.981 77.5193C259.053 77.5193 280.595 95.8294 300.273 130.187C302.211 127.937 304.029 128.27 305.384 128.91C306.74 129.551 307.457 131.016 306.951 132.326C309.45 133.341 311.645 135.306 312.551 136.983C314.148 139.935 315.303 147.893 309.359 149.724C316.717 177.824 258.173 164.034 226.981 164.034C195.993 164.034 157.957 172.724 162.842 151.336C158.561 149.724 153.168 145.725 155.724 139.233C156.992 136.012 159.879 134.043 162.061 134.043C164.135 134.043 161.142 130.188 165.391 127.938C167.228 126.965 169.206 127.078 170.922 127.508C184.081 100.188 195.722 77.5193 226.981 77.5193Z"></path>
  </clipPath>
  <g clip-path="url(#cl_15b)">
    <path fill="#7463A5" transform="matrix(1.8 2.98023e-08 0.00759348 1.8 223.715 118.11)" d="M1.90735e-06 -5.49999C3.866 -5.49999 7 -2.92563 7 0.250008C7 3.42565 3.866 6.00001 1.90735e-06 6.00001C-3.86599 6.00001 -7 3.42565 -7 0.250008C-7 -2.92563 -3.86599 -5.49999 1.90735e-06 -5.49999Z"></path>
    <path fill="#7463A5" transform="matrix(1.83618 3.04014e-08 0.00759348 1.8 276.264 109.964)" d="M0 -5C2.76142 -5 5 -2.6495 5 0.25C5 3.1495 2.76142 5.5 0 5.5C-2.76142 5.5 -5 3.1495 -5 0.25C-5 -2.6495 -2.76142 -5 0 -5Z"></path>
    <path fill="none" stroke="#131212" stroke-width="1" stroke-linecap="round" stroke-linejoin="round" transform="matrix(2.30699 -0.373724 0.274137 1.69224 254.495 103.268)" d="M1.44192e-06 -4.14104e-07L2.92891 -0.714567"></path>
    <path fill="none" stroke="#131212" stroke-width="1" stroke-linecap="round" stroke-linejoin="round" transform="matrix(2.30699 -0.373724 0.274137 1.69224 232.745 102.439)" d="M4.76837e-07 7.48094e-06L4.25731 1.79213"></path>
    <path fill="#131212" transform="matrix(2.47104 -0.400299 0.405754 2.50471 246.53 105.549)" d="M-2.27592e-08 -4.03018e-06L1.9614 0.352734L0.91509 1.42246L-2.27592e-08 -4.03018e-06Z"></path>
    <path fill="none" stroke="#131212" stroke-width="0.5" stroke-linecap="round" stroke-linejoin="round" transform="matrix(1.93759 -0.313883 0.31816 1.96399 249.589 109.084)" d="M1.18428e-07 -0.711232L-3.72341e-06 1.11019"></path>
    <path fill="#32225E" transform="matrix(1.74285 0.441491 -0.424043 1.74552 243.377 97.6833)" d="M-1.93607e-06 -1.92716C1.6285 -1.92716 2.94867 -1.06434 2.94867 -4.39386e-08C2.94867 1.06434 1.6285 1.92716 -1.87863e-06 1.92716C-1.62851 1.92716 -2.94867 1.06434 -2.94867 4.39386e-08C-2.94867 -1.06434 -1.62851 -1.92716 -1.93607e-06 -1.92716Z"></path>
    <path fill="#32225E" transform="matrix(1.71213 0.433708 -0.412468 1.69787 254.57 96.8084)" d="M-7.62939e-06 -1.89918C0.889981 -1.89918 1.61146 -1.04889 1.61146 7.60538e-06C1.61146 1.0489 0.889981 1.8992 -7.62939e-06 1.8992C-0.889997 1.8992 -1.61148 1.0489 -1.61148 7.65341e-06C-1.61148 -1.04889 -0.889997 -1.89918 -7.62939e-06 -1.89918Z"></path>
  </g>
  <path fill="none" stroke="black" stroke-width="4" stroke-linejoin="round" transform="matrix(1.8 0 0 1.8 352.158 172.197)" d="M-11.7479 -12.9046C-11.318 -13.5165 -10.7601 -14.1187 -10.0572 -14.7065C-5.47351 -18.5399 3.93804 -16.1165 4.43081 -14.7065C7.46664 -16.1165 10.8961 -16.6614 15.0174 -13.9738C19.1387 -11.2862 16.2386 -4.86793 16.6118 -4.55444C16.985 -4.24095 25.2116 0.494546 17.5976 8.33766C16.6439 8.92036 15.7365 9.39703 14.8735 9.77867"></path>
  <path fill="#7463A5" transform="matrix(1.8 0 0 1.8 352.158 172.197)" d="M-0.116455 3.8147e-06C-2.60165 -0.663936 -7.05858 1.11792 -10.0572 -2.65576C-13.0559 -6.42944 -14.6409 -10.8732 -10.0572 -14.7065C-5.47351 -18.5399 3.93804 -16.1165 4.43081 -14.7065C7.46664 -16.1165 10.8961 -16.6614 15.0174 -13.9738C19.1387 -11.2862 16.2386 -4.86793 16.6118 -4.55444C16.985 -4.24095 25.2116 0.494546 17.5976 8.33766C2.9012 17.3171 -0.809986 1.11792 -0.116455 3.8147e-06Z"></path>
  <path fill="none" stroke="black" stroke-width="6" stroke-linejoin="round" transform="matrix(1.8 0 0 1.8 163.775 269.843)" d="M-32.4569 -0.813783C-31.3792 -40.5247 32.0974 -38.8019 31.0197 0.908935C30.5607 17.8224 29.795 46.0372 29.3193 63.5654C29.1521 69.724 20.3383 80.8045 -2.90052 80.4444C-26.1394 80.0844 -34.3499 68.9364 -34.2196 64.1362C-33.7411 46.5052 -32.7957 11.668 -32.4569 -0.813783Z"></path>
  <path fill="none" stroke="black" stroke-width="6" stroke-linecap="round" stroke-linejoin="bevel" transform="matrix(1.8 0 0 1.67094 163.775 179.596)" d="M31.3076 39.0327C31.1667 46.9089 31.0454 53.686 30.9827 57.1911C30.2141 100.14 -33.2734 98.7791 -32.5048 55.8305C-32.3118 45.0491 -31.9572 25.2306 -31.7338 12.7472C-31.5104 0.263859 -24.9311 -17.4383 -8.85423 -17.1044C-7.06789 -17.0673 -5.43326 -17.0334 -3.92898 -17.0021"></path>
  <path fill="#503F7E" transform="matrix(1.8 0 0 1.8 163.775 269.843)" d="M-32.4569 -0.813785C-31.3344 -42.174 32.1422 -40.4513 31.0197 0.908934C30.5607 17.8224 29.795 46.0372 29.3193 63.5654C29.1521 69.724 20.3383 80.8045 -2.90052 80.4444C-26.1394 80.0844 -34.3499 68.9364 -34.2196 64.1362C-33.7411 46.5052 -32.7957 11.668 -32.4569 -0.813785Z"></path>
  <path fill="#503F7E" transform="matrix(1.8 0 0 1.67094 163.775 179.596)" d="M-31.7338 12.7472C-31.5104 0.263855 -24.9311 -17.4383 -8.85423 -17.1044C7.22259 -16.7705 11.0118 -16.6918 18.0747 -16.5452C25.1376 -16.3985 32.2253 -12.2476 31.9444 3.4516C31.6634 19.1508 31.1397 48.4186 30.9827 57.1911C30.3066 94.9691 -33.1808 93.6085 -32.5048 55.8305C-32.3118 45.0491 -31.9572 25.2306 -31.7338 12.7472Z"></path>
</svg>