<?xml version="1.0" encoding="utf-8"?>
<svg xmlns="http://www.w3.org/2000/svg" xmlns:xlink="http://www.w3.org/1999/xlink" width="512" height="512">
  <path fill="none" stroke="black" stroke-width="7" stroke-linejoin="round" transform="matrix(1.8 3.72529e-09 -3.72529e-09 1.8 210.879 409.868)" d="M23.2629 -46.328C40.0084 -53.522 64.4701 -43.6991 70.3392 2.03294C64.4473 33.6164 45.0172 47.2479 35.6802 42.4008C26.3431 37.5536 18.532 33.8618 9.20742 29.4084C-0.155107 24.7367 7.62863 20.3949 13.0604 -0.549118C6.12369 -37.3854 6.51747 -39.134 23.2629 -46.328Z"></path>
  <path fill="none" stroke="black" stroke-width="7" stroke-linejoin="round" transform="matrix(1.79976 0.0293645 -0.0298671 1.83057 266.801 288.374)" d="M0.209625 -80.0966C37.3348 -80.0966 80.6639 -60.1508 80.6639 -0.150776C80.6639 40.9944 46.7396 76.2788 0.209625 76.2788C-62.1658 76.2788 -84 60.12 -84 -1.90735e-06C-84 -71.2881 -50.5087 -80.0966 0.209625 -80.0966Z"></path>
  <path fill="none" stroke="black" stroke-width="7" stroke-linejoin="round" transform="matrix(-2.15345 -3.29802e-07 -3.27096e-07 2.13577 356.468 289.558)" d="M19.243 -57.4402C22.1615 -52.6353 26.7931 -36.958 26.3705 -33.0536C25.9478 -29.1492 29.4642 -19.8444 25.8355 4.24874C21.8322 32.8553 15.1857 55.3984 -9.86891 51.9971C-25.5846 49.7612 -34.6866 24.8144 -30.6833 -3.79216C-25.6643 -39.6565 2.65294 -65.3764 19.243 -57.4402Z"></path>
  <path fill="none" stroke="black" stroke-width="7" stroke-linejoin="round" transform="matrix(1.53671 3.18039e-09 -3.72529e-09 1.8 308.979 398.168)" d="M-28.0521 -47.2609C-9.82725 -47.3775 5.60575 -40.5672 5.85018 9.00701C6.35527 22.8558 0.286953 46.599 -13.3908 46.5025C-27.0685 46.406 -33.2039 46.3627 -45.4056 46.2766C-57.6072 46.1905 -59.6429 23.2779 -60.148 9.42914C-60.7225 -42.3337 -46.277 -47.1443 -28.0521 -47.2609Z"></path>
  <path fill="#6C88D9" transform="matrix(-2.15345 -3.29802e-07 -3.27096e-07 2.13577 356.468 289.558)" d="M19.243 -57.4402C22.1615 -52.6353 26.7931 -36.958 26.3705 -33.0536C25.9478 -29.1492 29.4642 -19.8444 25.8355 4.24874C21.8322 32.8553 15.1857 55.3984 -9.86891 51.9971C-25.5846 49.7612 -34.6866 24.8144 -30.6833 -3.79216C-25.6643 -39.6565 2.65294 -65.3764 19.243 -57.4402Z"></path>
  <path fill="#5170C8" transform="matrix(1.53671 3.18039e-09 -3.72529e-09 1.8 308.979 398.168)" d="M-28.0521 -47.2609C-9.82725 -47.3775 5.60575 -40.5672 5.85018 9.00701C6.35527 22.8558 0.286953 46.599 -13.3908 46.5025C-27.0685 46.406 -33.2039 46.3627 -45.4056 46.2766C-57.6072 46.1905 -59.6429 23.2779 -60.148 9.42914C-60.7225 -42.3337 -46.277 -47.1443 -28.0521 -47.2609Z"></path>
  <path fill="#839BE0" transform="matrix(1.20328 2.49031e-09 -2.91698e-09 1.40944 308.979 398.168)" d="M-35.714 -47.6502C-17.4892 -47.7667 -2.60719 -40.8693 -2.19622 13.1964C-2.54586 31.1289 -11.3973 46.2456 -25.0751 46.1491C-38.7528 46.0526 -38.5784 46.1044 -50.78 46.0183C-62.9816 45.9322 -68.5441 31.551 -68.1944 13.6186C-68.9354 -42.6359 -53.9389 -47.5336 -35.714 -47.6502Z"></path>
  <path fill="#6C88D9" transform="matrix(1.8 3.72529e-09 -3.72529e-09 1.8 210.879 409.868)" d="M23.2629 -46.328C40.0084 -53.522 64.4701 -43.6991 70.3392 2.03294C64.4473 33.6164 45.0172 47.2479 35.6802 42.4008C26.3431 37.5536 18.532 33.8618 9.20742 29.4084C-0.155107 24.7367 7.62863 20.3949 13.0604 -0.549118C6.12369 -37.3854 6.51747 -39.134 23.2629 -46.328Z"></path>
  <path fill="#91A8EB" transform="matrix(-1.67686 -2.56813e-07 -3.2026e-07 2.09114 352.478 283.845)" d="M20.7398 -51.0891C42.6907 -48.6054 31.5299 -24.7922 24.9281 3.33576C18.3264 31.4636 2.47821 53.2552 -12.8341 51.5226C-28.1464 49.7901 -36.1204 25.376 -31.1166 -3.06112C-26.1128 -31.4982 -1.21093 -53.5728 20.7398 -51.0891Z"></path>
  <path fill="none" stroke="black" stroke-width="7" stroke-miterlimit="4" transform="matrix(1.79976 0.0293645 -0.0293645 1.79976 225.311 132.634)" d="M-1.90735e-06 -29.5C19.0538 -29.5 34.5 -16.1805 34.5 0.25C34.5 16.6805 19.0538 30 -1.90735e-06 30C-19.0538 30 -34.5 16.6805 -34.5 0.25C-34.5 -16.1805 -19.0538 -29.5 -1.90735e-06 -29.5Z"></path>
  <path fill="none" stroke="black" stroke-width="9" stroke-miterlimit="4" transform="translate(256 256)" d="M-56.9979 -181.183C-42.2153 -180.942 -30.4003 -170.413 -30.6083 -157.665C-30.8162 -144.918 -42.9685 -134.78 -57.7511 -135.021C-72.5337 -135.262 -84.3488 -145.792 -84.1408 -158.539C-83.9328 -171.286 -71.7805 -181.424 -56.9979 -181.183Z"></path>
  <path fill="none" stroke="black" stroke-width="9" stroke-miterlimit="4" transform="translate(256 256)" d="M-72.5109 -166.271C-60.2114 -166.07 -50.3809 -157.309 -50.5539 -146.703C-50.727 -136.097 -60.838 -127.662 -73.1376 -127.862C-85.4372 -128.063 -95.2677 -136.824 -95.0946 -147.43C-94.9216 -158.036 -84.8105 -166.471 -72.5109 -166.271Z"></path>
  <path fill="none" stroke="black" stroke-width="9" stroke-miterlimit="4" transform="translate(256 256)" d="M-92.5181 -190.605C-85.837 -190.496 -80.4972 -185.737 -80.5912 -179.976C-80.6852 -174.215 -86.1774 -169.633 -92.8584 -169.742C-99.5395 -169.851 -104.879 -174.609 -104.785 -180.371C-104.691 -186.132 -99.1991 -190.714 -92.5181 -190.605Z"></path>
  <path fill="#6C88D9" transform="matrix(1.79976 0.0293645 -0.0293645 1.79976 225.311 132.634)" d="M-1.90735e-06 -29.5C19.0538 -29.5 34.5 -16.1805 34.5 0.25C34.5 16.6805 19.0538 30 -1.90735e-06 30C-19.0538 30 -34.5 16.6805 -34.5 0.25C-34.5 -16.1805 -19.0538 -29.5 -1.90735e-06 -29.5Z"></path>
  <path fill="#6C88D9" transform="matrix(0.775834 0.0126583 -0.0126583 0.775834 198.629 97.7039)" d="M0 -29.5C19.0538 -29.5 34.5 -16.1805 34.5 0.25C34.5 16.6805 19.0538 30 0 30C-19.0538 30 -34.5 16.6805 -34.5 0.25C-34.5 -16.1805 -19.0538 -29.5 0 -29.5Z"></path>
  <path fill="#6C88D9" transform="matrix(0.645518 0.0105321 -0.0105321 0.645518 183.178 108.772)" d="M7.62939e-06 -29.5C19.0538 -29.5 34.5 -16.1805 34.5 0.249985C34.5 16.6805 19.0538 30 7.62939e-06 30C-19.0538 30 -34.5 16.6805 -34.5 0.249985C-34.5 -16.1805 -19.0538 -29.5 7.62939e-06 -29.5Z"></path>
  <path fill="#6C88D9" transform="matrix(0.35064 0.00572097 -0.00572097 0.35064 163.313 75.7391)" d="M6.10352e-05 -29.5C19.0539 -29.5 34.5001 -16.1805 34.5001 0.249969C34.5001 16.6804 19.0539 30 6.10352e-05 30C-19.0538 30 -34.4999 16.6804 -34.4999 0.249969C-34.4999 -16.1805 -19.0538 -29.5 6.10352e-05 -29.5Z"></path>
  <path fill="none" stroke="black" stroke-width="7" stroke-linejoin="round" transform="translate(256 256)" d="M-89.1541 -89.9873C-69.6815 -116.709 23.6344 -102.697 39.8684 -100.03"></path>
  <defs>
    <linearGradient id="gradient_0" gradientUnits="userSpaceOnUse" x1="-10.499905" y1="-40.34568" x2="-3.0814617" y2="20.75737">
      <stop offset="0" stop-color="#A1A8AF"></stop>
      <stop offset="0.99830264" stop-color="#242B4A"></stop>
      <stop offset="1" stop-color="#000417"></stop>
    </linearGradient>
  </defs>
  <path fill="url(#gradient_0)" transform="matrix(1.63997 3.39408e-09 -3.39408e-09 1.63997 255.065 180.561)" d="M-53.7932 -8.87113C-40.7768 -26.7335 26.3506 -14.7462 26.3506 -14.7462L53.5854 -9.77639L68.6389 10.0869L-57 14.5C-57 14.5 -53.7932 -8.87113 -53.7932 -8.87113Z"></path>
  <path fill="none" stroke="black" stroke-width="7" stroke-linejoin="round" transform="translate(256 256)" d="M164.346 -49.2263C148.625 -85.5475 130.483 -108.744 79.7893 -113.658C59.25 -64.4456 34.7815 -42.5614 34.7815 -42.5614C34.7815 -36.735 37.5247 -33.4325 44.6763 -33.4325C44.6763 -33.4325 130.483 -20.1487 164.346 -49.2263Z"></path>
  <path fill="#828594" transform="matrix(-1.63997 -2.51022e-07 -2.51022e-07 1.63997 405.044 203.834)" d="M-9.33072 1.7923C0.255683 -20.3552 11.318 -34.4995 42.2294 -37.4963C57.7294 -9.48985 69.6738 5.85638 69.6738 5.85638C69.6737 9.4091 68.001 11.4229 63.6402 11.4229C63.6402 11.4229 11.318 19.5229 -9.33072 1.7923Z"></path>
  <path fill="#6C88D9" transform="matrix(1.79976 0.0293645 -0.0297683 1.82451 266.794 288.836)" d="M0.445611 -80.8406C37.5708 -80.8406 80.6032 -59.9373 80.6032 0.062733C80.6032 41.2079 46.7396 76.2788 0.209625 76.2788C-62.1658 76.2788 -84 60.12 -84 -1.56928e-07C-84 -71.2881 -50.2727 -80.8406 0.445611 -80.8406Z"></path>
  <path fill="#91A8EB" transform="matrix(1.37947 2.85496e-09 -2.85496e-09 1.37947 210.879 346.868)" d="M35.8728 -1.93681C52.6183 -9.13081 76.9733 -6.75026 84.252 45.639C83.4556 68.7427 58.1334 91.8754 48.7964 87.0281C39.4593 82.181 31.6482 78.4892 22.3237 74.0357C12.9888 69.4962 24.1698 65.4043 24.9661 42.3006C16.449 -1.03064 19.1272 5.2572 35.8728 -1.93681Z"></path>
  <path fill="#91A8EB" transform="matrix(1.50913 0.0246226 -0.0246226 1.50913 266.763 290.724)" d="M0.249979 -81.5196C49.8787 -81.2985 84.5 -60 84.5 0C84.5 41.1452 46.78 74.5 0.25 74.5C-62.1254 74.5 -84 60.12 -84 0C-84 -71.2881 -62.1254 -81.5196 0.249979 -81.5196Z"></path>
  <path fill="#A6B8EF" transform="matrix(0.805953 0.0131497 -0.0151654 0.929491 321.057 255.602)" d="M0.24998 -81.5196C49.8787 -81.2985 84.5 -60 84.5 0C84.5 41.1452 67.1354 74.5 20.6054 74.5C-41.77 74.5 -84 60.12 -84 0C-84 -71.2881 -62.1254 -81.5197 0.24998 -81.5196Z"></path>
  <path fill="#C1CBE8" transform="matrix(0.197995 -0.202726 0.445703 0.435301 344.157 206.753)" d="M11.5671 -77.0972C58.0971 -77.0972 97.5959 -41.1452 97.5959 -1.67094e-05C97.5959 41.1452 73.4188 83.0524 26.8888 83.0524C-35.4866 83.0524 11.8086 60.12 11.8086 -1.5431e-05C11.8086 -41.1452 -34.9629 -77.0972 11.5671 -77.0972Z"></path>
  <path fill="#C1CBE8" transform="matrix(0.197995 -0.202726 0.184201 0.179903 388.599 271.109)" d="M48.93 -79.7643C80.6763 -79.053 77.4946 -42.8889 62.8508 4.00562C48.2069 50.9001 -0.0393895 91.2963 -20.4536 67.777C-40.8678 44.2576 -16.8141 31.8032 -0.458961 -5.13884C15.8962 -42.0808 17.1838 -80.4756 48.93 -79.7643Z"></path>
  <path fill="none" stroke="black" stroke-width="7" stroke-linecap="round" stroke-linejoin="round" transform="translate(256 256)" d="M50.5002 -112.471C57.868 -112.214 64.7423 -111.498 71.1544 -110.369"></path>
  <path fill="#91A8EB" transform="matrix(1.79976 0.0293645 -0.0293645 1.79976 225.311 132.634)" d="M-1.90735e-06 -22.5C14.6355 -22.5 26.5 -12.3145 26.5 0.25C26.5 12.8145 14.6355 23 -1.90735e-06 23C-14.6355 23 -26.5 12.8145 -26.5 0.25C-26.5 -12.3145 -14.6355 -22.5 -1.90735e-06 -22.5Z"></path>
  <path fill="#C1CBE8" transform="matrix(-0.166841 -0.570472 0.880441 -0.257495 183.037 136.909)" d="M-1.52588e-05 -11.5C14.6355 -11.5 28.0061 -7.98329 28.0061 -1.63201C28.0061 4.71926 15.5059 0.400182 0.870341 0.400182C-13.7652 0.400181 -26.766 4.37688 -26.766 -1.97439C-26.766 -8.32566 -14.6356 -11.5 -1.52588e-05 -11.5Z"></path>
  <path fill="#999CA8" transform="matrix(1.63997 3.39408e-09 -3.39408e-09 1.63997 188.696 148.697)" d="M62.3459 -3.30945C159.851 -6.62469 133.382 106.511 133.382 106.511C124.858 120.697 103.931 125.217 103.931 125.217C99.8122 122.738 97.0384 114.991 97.0384 114.991C97.0384 114.991 92.571 122.978 80.9884 132.097C33.5051 142.01 -40.0389 126.614 -41.66 116.833C-51.8317 89.8804 -42.4754 41.613 -40.0228 35.3241C-37.5701 29.0351 -23.4335 12.2991 -23.4335 12.2991L-3.96149 -3.64613C-3.96149 -3.64613 28.6909 8.70726 69.7818 7.76566C67.3158 -2.81972 62.3459 -3.30945 62.3459 -3.30945Z"></path>
  <clipPath id="cl_9e">
    <path d="M290.941 143.27C450.847 137.833 407.439 323.372 407.439 323.372C393.458 346.636 359.14 354.049 359.14 354.049C352.385 349.983 347.836 337.278 347.836 337.278C347.836 337.278 340.509 350.377 321.514 365.332C243.643 381.589 123.033 356.34 120.375 340.299C103.694 296.098 119.038 216.941 123.06 206.627C127.082 196.314 150.266 168.867 150.266 168.867L182.199 142.718C182.199 142.718 235.748 162.977 303.136 161.433C299.092 144.073 290.941 143.27 290.941 143.27Z"></path>
  </clipPath>
  <g clip-path="url(#cl_9e)">
    <path fill="#686B77" transform="matrix(1.78416 3.69251e-09 -3.42908e-09 1.65688 276.307 257.953)" d="M-5.81434 -76.9003C-5.81434 -76.9003 -38.015 -34.4167 -37.875 19.4009C-37.7351 73.2184 27.8948 68.4574 27.8948 68.4574L-79.1489 92.4107L-102.257 16.7671L-83.3847 -74.5391L-5.81434 -76.9003Z"></path>
    <path fill="#BCBFC5" transform="matrix(1.78416 3.69251e-09 -3.42908e-09 1.65688 276.307 257.953)" d="M45.4521 -82.9725L93.7889 -50.8112C93.7889 -50.8112 78.8995 -3.97774 47.484 1.7428C16.0686 7.46333 -45.8161 -37.4435 -45.8161 -37.4435L-73.0634 -72.0992L45.4521 -82.9725Z"></path>
    <path fill="#DADDE0" transform="matrix(1.78416 3.69251e-09 -3.42908e-09 1.65688 305.826 137.416)" d="M33.8967 14.5768L59.8776 19.1892C59.8776 19.1892 48.6614 51.4509 28.5602 52.2698C8.45895 53.0887 -29.101 32.4093 -29.101 32.4093C-29.101 32.4093 17.1176 36.5863 22.2728 36.8407C27.4281 37.0951 33.8967 14.5768 33.8967 14.5768Z"></path>
    <path fill="none" stroke="#494B53" stroke-width="1" stroke-linejoin="round" transform="matrix(1.78416 3.69251e-09 -3.42908e-09 1.65688 238.006 258.013)" d="M59.9289 52.7444C57.3564 60.3316 54.1158 68.2952 50.1158 76.6343C16.1594 77.1498 -25.2378 65.559 -25.2378 65.559C-34.9636 44.2166 -33.6264 3.12168 -31.9909 -19.2678"></path>
    <path fill="none" stroke="#898FA2" stroke-width="1" stroke-linejoin="round" transform="matrix(1.78416 3.69251e-09 -3.42908e-09 1.65688 238.006 258.013)" d="M-52.5751 -90.6465C-52.5751 -90.6465 29.9049 -60.6268 29.9049 -60.6268C47.3122 -58.4025 83.4637 -21.4663 61.0933 49.1929"></path>
  </g>
  <defs>
    <linearGradient id="gradient_1" gradientUnits="userSpaceOnUse" x1="-60.30225" y1="-15.24908" x2="-29.287821" y2="-15.24908">
      <stop offset="0" stop-color="#42444C"></stop>
      <stop offset="0.99602401" stop-color="#161823"></stop>
      <stop offset="1" stop-color="black"></stop>
    </linearGradient>
  </defs>
  <path fill="url(#gradient_1)" transform="matrix(2.06931 4.28265e-09 -3.39408e-09 1.63997 281.203 254.673)" d="M-58.1232 -38.8393C-54.5001 -50.2495 -36.6337 -48.5811 -31.9012 -38.5612C-27.1688 -28.5414 -29.2878 -16.904 -29.2878 -16.904C-37.342 10.4732 -59.3233 2.22359 -60.3022 -21.2052C-60.3022 -21.2052 -61.7464 -27.4291 -58.1232 -38.8393Z"></path>
  <path fill="#91A8EB" transform="matrix(0.606874 0.00990163 -0.00990163 0.606874 198.629 99.911)" d="M0 -22.5C14.6355 -22.5 26.5 -12.3145 26.5 0.25C26.5 12.8145 14.6355 23 0 23C-14.6355 23 -26.5 12.8145 -26.5 0.25C-26.5 -12.3145 -14.6355 -22.5 0 -22.5Z"></path>
  <path fill="#91A8EB" transform="matrix(0.504938 0.00823846 -0.00823846 0.504938 183.178 110.608)" d="M1.52164e-05 -22.5C14.6356 -22.5 26.5 -12.3145 26.5 0.25C26.5 12.8145 14.6356 23 1.53012e-05 23C-14.6355 23 -26.5 12.8145 -26.5 0.25C-26.5 -12.3145 -14.6355 -22.5 1.52164e-05 -22.5Z"></path>
  <path fill="#91A8EB" transform="matrix(0.274279 0.00447507 -0.00447507 0.274279 164.309 77.8218)" d="M0 -22.4261C14.2962 -22.4261 25.8855 -12.274 25.8855 0.249268C25.8855 12.7726 14.2962 22.9247 0 22.9247C-14.2962 22.9247 -25.8855 12.7726 -25.8855 0.249268C-25.8855 -12.274 -14.2962 -22.4261 0 -22.4261Z"></path>
  <path fill="#C1CBE8" transform="matrix(0.073816 -0.11483 0.26388 0.16963 160.501 75.1471)" d="M0 -11.4999C14.6355 -11.4999 28.0061 -7.98322 28.0061 -1.63195C28.0061 4.71933 15.5059 0.400246 0.870356 0.400247C-13.7652 0.400246 -26.766 4.37695 -26.766 -1.97432C-26.766 -8.3256 -14.6355 -11.4999 0 -11.4999Z"></path>
  <path fill="#1B2B56" transform="matrix(1.78669 -0.21848 0.065544 0.536007 239.808 113.238)" d="M-1.88127e-07 -2.5C1.38071 -2.5 2.5 -1.38071 2.5 0C2.5 1.38071 1.38071 2.5 -1.69501e-07 2.5C-1.38071 2.5 -2.5 1.38071 -2.5 0C-2.5 -1.38071 -1.38071 -2.5 -1.88127e-07 -2.5Z"></path>
  <path fill="none" stroke="#1B2B56" stroke-width="0.5" stroke-linecap="round" stroke-linejoin="round" transform="matrix(1.78289 -0.247598 0.247598 1.78289 248.452 112.126)" d="M1.98548 0.277989L6.02909 0.184252"></path>
  <path fill="#1B2B56" transform="matrix(1.78669 -0.21848 0.065544 0.536007 268.395 109.742)" d="M-9.31323e-09 -2.5C1.38071 -2.5 2.5 -1.38071 2.5 0C2.5 1.38071 1.38071 2.5 9.31323e-09 2.5C-1.38071 2.5 -2.5 1.38071 -2.5 0C-2.5 -1.38071 -1.38071 -2.5 -9.31323e-09 -2.5Z"></path>
  <path fill="#354B89" transform="matrix(1.46507 -0.885005 0.929571 0.72522 260.173 102.81)" d="M7.62939e-06 -2.49999C1.38072 -2.49999 2.50001 -1.3807 2.50001 7.77841e-06C2.50001 1.38072 1.38072 2.50001 7.62939e-06 2.50001C-1.3807 2.50001 -2.49999 1.38072 -2.49999 7.48038e-06C-2.49999 -1.3807 -1.3807 -2.49999 7.62939e-06 -2.49999Z"></path>
  <path fill="#354B89" transform="matrix(2.16254 0.296937 -0.629837 1.0733 244.2 103.749)" d="M3.8147e-06 -2.98532C1.68306 -2.98532 3.04744 -1.64874 3.04744 1.5168e-05C3.04744 1.64877 1.68306 2.98535 3.8147e-06 2.98535C-1.68305 2.98535 -3.04744 1.64877 -3.04744 1.53496e-05C-3.04744 -1.64874 -1.68305 -2.98532 3.8147e-06 -2.98532Z"></path>
  <path fill="none" stroke="black" stroke-width="7" stroke-linecap="round" stroke-linejoin="round" transform="matrix(2.15345 4.45679e-09 -4.42021e-09 2.13577 150.576 299.222)" d="M27.0006 -29.0207C28.5087 -23.297 30.3086 -14.3519 30.4002 0.0410423C30.7883 28.9287 27.1698 52.4102 1.89067 52.6904C-13.9805 52.7649 -26.2829 29.7085 -26.6709 0.824808C-27.0654 -22.5417 -17.2975 -43.2792 -5.57184 -53.6064"></path>
  <path fill="none" stroke="black" stroke-width="7" stroke-linejoin="round" transform="translate(256 256)" d="M-148.029 -41.5923C-156.068 -44.3565 -163.287 -48.0644 -169.018 -52.9856C-157.581 -88.4957 -121.849 -115.643 -92.3329 -116.652"></path>
  <path fill="#6C88D9" transform="matrix(2.15345 4.45679e-09 -4.42021e-09 2.13577 150.576 299.222)" d="M13.9982 -59.9603C17.6501 -55.6955 24.739 -40.9817 24.9491 -37.0598C25.1593 -33.1379 30.2446 -24.4087 30.4002 0.0410423C30.7883 28.9287 27.1698 52.4102 1.89067 52.6904C-13.9805 52.7649 -26.2829 29.7085 -26.6709 0.824808C-27.2803 -35.2644 -3.64772 -65.0823 13.9982 -59.9603Z"></path>
  <path fill="#91A8EB" transform="matrix(1.67686 3.47045e-09 -4.32784e-09 2.09114 154.566 293.509)" d="M15.0041 -53.5201C37.1667 -53.9203 29.9834 -29.4165 30.0066 -1.12428C30.6874 27.4663 23.3922 50.9139 8.01781 52.247C-7.35654 53.5801 -24.1145 30.3967 -26.4368 1.76441C-28.1622 -27.3636 -7.15846 -53.1198 15.0041 -53.5201Z"></path>
  <path fill="#999696" transform="matrix(1.63997 3.39408e-09 -3.39408e-09 1.63997 102.284 200.075)" d="M-9.33072 1.7923C0.255683 -20.3552 11.318 -34.4995 42.2294 -37.4963C57.7294 -9.48986 69.6738 5.85638 69.6738 5.85638C69.6737 9.4091 68.001 11.4229 63.6402 11.4229C63.6402 11.4229 11.318 19.5229 -9.33072 1.7923Z"></path>
  <path fill="#828594" transform="matrix(1.63997 3.39408e-09 -3.39408e-09 1.63997 102.284 200.075)" d="M-9.33072 1.7923C0.255683 -20.3552 11.318 -34.4995 42.2294 -37.4963C57.7294 -9.48986 69.6738 5.85638 69.6738 5.85638C69.6737 9.4091 68.001 11.4229 63.6402 11.4229C63.6402 11.4229 11.318 19.5229 -9.33072 1.7923Z"></path>
  <clipPath id="cl_a2">
    <path d="M86.9822 203.014C102.704 166.693 120.845 143.497 171.539 138.582C196.959 184.512 216.547 209.679 216.547 209.679C216.547 215.506 213.804 218.808 206.652 218.808C206.652 218.808 120.845 232.092 86.9822 203.014Z"></path>
  </clipPath>
  <g clip-path="url(#cl_a2)">
    <path fill="#686B77" transform="matrix(1.63997 3.39408e-09 -3.39408e-09 1.63997 102.284 200.075)" d="M-18.5853 15.5755L-13.4615 -44.4622C-13.4615 -44.4622 70.2014 -44.8304 70.2014 -44.8304C29.0482 -45.0949 3.69743 17.5905 3.69743 17.5905L-18.5853 15.5755Z"></path>
  </g>
  <path fill="#42444C" transform="matrix(1.63997 3.39408e-09 -3.39408e-09 1.63997 102.284 200.075)" d="M-9.33072 -5.18064C-9.33072 -5.18064 -8.34054 -14.2229 2.12125 -18.7125C16.6016 -6.18101 67.6134 6.22991 67.6134 6.22991L66.536 9.4091C66.536 9.4091 1.13099 9.26386 -9.33072 -5.18064Z"></path>
  <path fill="#4B4949" transform="matrix(1.63997 3.39408e-09 -3.39408e-09 1.63997 213.168 214.494)" d="M0 -12C6.90356 -12 12.5 -6.62742 12.5 1.90735e-06C12.5 6.62742 6.90356 12 0 12C-6.90356 12 -12.5 6.62742 -12.5 1.90735e-06C-12.5 -6.62742 -6.90356 -12 0 -12Z"></path>
  <path fill="#827A7A" transform="matrix(1.63997 3.39408e-09 -3.39408e-09 1.63997 218.088 216.134)" d="M0 -12C6.90356 -12 12.5 -6.62742 12.5 1.90735e-06C12.5 6.62742 6.90356 12 0 12C-6.90356 12 -12.5 6.62742 -12.5 1.90735e-06C-12.5 -6.62742 -6.90356 -12 0 -12Z"></path>
  <path fill="none" stroke="white" stroke-width="5" stroke-linecap="round" stroke-linejoin="round" transform="matrix(1.5 0 0 1.5 158.539 362.24)" d=""></path>
</svg>