<?xml version="1.0" encoding="utf-8"?>
<svg xmlns="http://www.w3.org/2000/svg" xmlns:xlink="http://www.w3.org/1999/xlink" width="512" height="512">
  <path fill="none" stroke="black" stroke-width="7" stroke-linejoin="round" transform="matrix(1.8 3.72529e-09 -3.72529e-09 1.8 210.879 409.868)" d="M50.7954 -47.4705C69.0166 -47.081 81.4868 -39.5567 80.8599 4.72837C80.8906 33.7459 73.4431 43.6904 62.9295 43.3167C52.4159 42.9431 43.7763 42.9586 33.4428 42.9353C22.9815 42.7313 17.7126 31.5381 17.6824 2.50764C18.045 -43.9876 32.5741 -47.8599 50.7954 -47.4705Z"></path>
  <path fill="none" stroke="black" stroke-width="7" stroke-linejoin="round" transform="matrix(1.79976 0.0293645 -0.0298671 1.83057 266.584 279.465)" d="M0.209626 -80.0966C37.3348 -80.0966 80.6639 -60.1508 80.6639 -0.150774C80.6639 40.9944 46.7396 76.2788 0.209626 76.2788C-62.1658 76.2788 -84 60.12 -84 0C-84 -71.2881 -50.5087 -80.0966 0.209626 -80.0966Z"></path>
  <path fill="none" stroke="black" stroke-width="7" stroke-linejoin="round" transform="matrix(-2.15345 -3.29802e-07 -3.27096e-07 2.13577 356.251 280.649)" d="M18.475 -58.5951C21.8195 -54.0813 27.8619 -38.9001 27.7973 -34.9731C27.7326 -31.046 32.0831 -22.1068 30.6681 2.2207C29.2918 31.0773 24.7304 54.1413 -0.528336 53.0784C-16.3813 52.3098 -27.721 28.313 -26.3447 -0.543571C-24.6193 -36.7213 1.23113 -64.9588 18.475 -58.5951Z"></path>
  <path fill="none" stroke="black" stroke-width="7" stroke-linejoin="round" transform="matrix(1.53671 3.18039e-09 -3.72529e-09 1.8 308.979 398.168)" d="M-55.0526 -46.6909C-37.2554 -50.0436 -12.7246 -41.7656 -8.84522 9.31668C-10.6338 25.6475 -26.5241 51.3689 -39.6857 48.1898C-52.8473 45.0107 -58.7512 43.5847 -70.4923 40.7487C-82.2335 37.9128 -74.6151 19.0992 -72.9625 8.19774C-77.4695 -39.6725 -72.8499 -43.3382 -55.0526 -46.6909Z"></path>
  <path fill="#6C88D9" transform="matrix(-2.15345 -3.29802e-07 -3.27096e-07 2.13577 356.251 280.649)" d="M18.475 -58.5951C21.8195 -54.0813 27.8619 -38.9001 27.7973 -34.9731C27.7326 -31.046 32.0831 -22.1068 30.6681 2.2207C29.2918 31.0773 24.7304 54.1413 -0.528336 53.0784C-16.3813 52.3098 -27.721 28.313 -26.3447 -0.543571C-24.6193 -36.7213 1.23113 -64.9588 18.475 -58.5951Z"></path>
  <path fill="#5170C8" transform="matrix(1.53671 3.18039e-09 -3.72529e-09 1.8 308.979 398.168)" d="M-55.0526 -46.6909C-37.2554 -50.0436 -12.7246 -41.7656 -8.84522 9.31668C-10.6338 25.6475 -26.5241 51.3689 -39.6857 48.1898C-52.8473 45.0107 -58.7512 43.5847 -70.4923 40.7487C-82.2335 37.9128 -74.6151 19.0992 -72.9625 8.19774C-77.4695 -39.6725 -72.8499 -43.3382 -55.0526 -46.6909Z"></path>
  <path fill="#839BE0" transform="matrix(1.20328 2.49031e-09 -2.91698e-09 1.40944 308.979 398.168)" d="M-67.1009 -47.2204C-49.3036 -50.5731 -24.9004 -42.1225 -20.7402 13.3194C-24.1876 33.5092 -41.113 50.1548 -54.2746 46.9757C-67.4362 43.7966 -67.284 43.8859 -79.0252 41.0499C-90.7663 38.2139 -88.1688 26.9609 -84.8575 12.2004C-89.6453 -40.0294 -84.8981 -43.8677 -67.1009 -47.2204Z"></path>
  <path fill="#6C88D9" transform="matrix(1.8 3.72529e-09 -3.72529e-09 1.8 210.879 409.868)" d="M50.7954 -47.4705C69.0166 -47.081 81.4868 -39.5567 80.8599 4.72837C80.8906 33.7459 73.4431 43.6904 62.9295 43.3167C52.4159 42.9431 43.7763 42.9586 33.4428 42.9353C22.9815 42.7313 17.7126 31.5381 17.6824 2.50764C18.045 -43.9876 32.5741 -47.8599 50.7954 -47.4705Z"></path>
  <path fill="#91A8EB" transform="matrix(-1.67686 -2.56813e-07 -3.2026e-07 2.09114 352.261 274.936)" d="M20.3162 -52.1717C42.4588 -51.3178 34.0773 -26.7823 30.7305 1.71337C27.3837 30.209 14.1027 53.0772 -1.34341 52.4816C-16.7895 51.886 -27.5307 28.1637 -25.8105 -0.521935C-24.0902 -29.2076 -1.8265 -53.0255 20.3162 -52.1717Z"></path>
  <path fill="none" stroke="black" stroke-width="7" stroke-miterlimit="4" transform="matrix(1.79976 0.0293645 -0.0293645 1.79976 225.094 120.505)" d="M0 -29.5C19.0538 -29.5 34.5 -16.1805 34.5 0.249992C34.5 16.6805 19.0538 30 0 30C-19.0538 30 -34.5 16.6805 -34.5 0.249992C-34.5 -16.1805 -19.0538 -29.5 0 -29.5Z"></path>
  <path fill="none" stroke="black" stroke-width="9" stroke-miterlimit="4" transform="translate(256 256)" d="M-57.2152 -193.312C-42.4326 -193.071 -30.6175 -182.541 -30.8255 -169.794C-31.0335 -157.047 -43.1857 -146.908 -57.9683 -147.15C-72.7509 -147.391 -84.566 -157.92 -84.358 -170.667C-84.15 -183.415 -71.9978 -193.553 -57.2152 -193.312Z"></path>
  <path fill="none" stroke="black" stroke-width="9" stroke-miterlimit="4" transform="translate(256 256)" d="M-72.7282 -178.399C-60.4286 -178.199 -50.5981 -169.438 -50.7711 -158.832C-50.9442 -148.226 -61.0553 -139.79 -73.3548 -139.991C-85.6544 -140.192 -95.4849 -148.952 -95.3119 -159.559C-95.1388 -170.165 -85.0278 -178.6 -72.7282 -178.399Z"></path>
  <path fill="none" stroke="black" stroke-width="9" stroke-miterlimit="4" transform="translate(256 256)" d="M-92.7353 -202.733C-86.0542 -202.624 -80.7144 -197.866 -80.8084 -192.104C-80.9024 -186.343 -86.3946 -181.761 -93.0757 -181.87C-99.7567 -181.979 -105.097 -186.738 -105.003 -192.499C-104.909 -198.26 -99.4163 -202.842 -92.7353 -202.733Z"></path>
  <path fill="#6C88D9" transform="matrix(1.79976 0.0293645 -0.0293645 1.79976 225.094 120.505)" d="M0 -29.5C19.0538 -29.5 34.5 -16.1805 34.5 0.249992C34.5 16.6805 19.0538 30 0 30C-19.0538 30 -34.5 16.6805 -34.5 0.249992C-34.5 -16.1805 -19.0538 -29.5 0 -29.5Z"></path>
  <path fill="#6C88D9" transform="matrix(0.775834 0.0126583 -0.0126583 0.775834 198.411 85.5753)" d="M0 -29.5C19.0538 -29.5 34.5 -16.1805 34.5 0.250015C34.5 16.6805 19.0538 30 0 30C-19.0538 30 -34.5 16.6805 -34.5 0.250015C-34.5 -16.1805 -19.0538 -29.5 0 -29.5Z"></path>
  <path fill="#6C88D9" transform="matrix(0.645518 0.0105321 -0.0105321 0.645518 182.961 96.6435)" d="M7.62939e-06 -29.5C19.0538 -29.5 34.5 -16.1805 34.5 0.250015C34.5 16.6805 19.0538 30 7.62939e-06 30C-19.0538 30 -34.5 16.6805 -34.5 0.250015C-34.5 -16.1805 -19.0538 -29.5 7.62939e-06 -29.5Z"></path>
  <path fill="#6C88D9" transform="matrix(0.35064 0.00572097 -0.00572097 0.35064 163.096 63.6106)" d="M0 -29.5C19.0538 -29.5 34.5 -16.1805 34.5 0.25C34.5 16.6805 19.0538 30 0 30C-19.0538 30 -34.5 16.6805 -34.5 0.25C-34.5 -16.1805 -19.0538 -29.5 0 -29.5Z"></path>
  <path fill="none" stroke="black" stroke-width="7" stroke-linejoin="round" transform="translate(256 256)" d="M-89.3713 -98.8965C-69.8988 -125.619 23.417 -111.606 39.6511 -108.94"></path>
  <defs>
    <linearGradient id="gradient_0" gradientUnits="userSpaceOnUse" x1="-10.499905" y1="-40.34568" x2="-3.0814617" y2="20.75737">
      <stop offset="0" stop-color="#A1A8AF"></stop>
      <stop offset="0.99830264" stop-color="#242B4A"></stop>
      <stop offset="1" stop-color="#000417"></stop>
    </linearGradient>
  </defs>
  <path fill="url(#gradient_0)" transform="matrix(1.63997 3.39408e-09 -3.39408e-09 1.63997 254.848 171.652)" d="M-53.7932 -8.87113C-40.7768 -26.7335 26.3506 -14.7462 26.3506 -14.7462L53.5854 -9.77639L68.6389 10.0869L-57 14.5C-57 14.5 -53.7932 -8.87113 -53.7932 -8.87113Z"></path>
  <path fill="none" stroke="black" stroke-width="7" stroke-linejoin="round" transform="translate(256 256)" d="M164.129 -60.2507C148.408 -96.5719 130.266 -119.768 79.5721 -124.683C59.0328 -75.47 34.5642 -53.5857 34.5642 -53.5857C34.5643 -47.7594 37.3075 -44.4569 44.459 -44.4569C44.459 -44.4569 130.266 -31.173 164.129 -60.2507Z"></path>
  <path fill="#828594" transform="matrix(-1.63997 -2.51022e-07 -2.51022e-07 1.63997 404.827 192.81)" d="M-9.33073 1.7923C0.255675 -20.3552 11.318 -34.4995 42.2294 -37.4963C57.7294 -9.48986 69.6737 5.85638 69.6737 5.85638C69.6737 9.4091 68.001 11.4229 63.6402 11.4229C63.6402 11.4229 11.318 19.5229 -9.33073 1.7923Z"></path>
  <path fill="#6C88D9" transform="matrix(1.79976 0.0293645 -0.0297683 1.82451 266.576 279.927)" d="M0.445611 -80.8406C37.5708 -80.8406 80.6032 -59.9373 80.6032 0.062734C80.6032 41.2079 46.7396 76.2788 0.209625 76.2788C-62.1658 76.2788 -84 60.12 -84 7.96746e-07C-84 -71.2881 -50.2727 -80.8406 0.445611 -80.8406Z"></path>
  <path fill="#91A8EB" transform="matrix(1.37947 2.85496e-09 -2.85496e-09 1.37947 210.879 346.868)" d="M65.9816 -2.29564C84.2029 -1.90619 97.8206 -2.40683 97.1687 49.0827C96.4504 74.5605 88.6584 88.9868 78.1448 88.6132C67.6312 88.2395 58.9916 88.255 48.6581 88.2318C38.2784 88.135 31.0633 71.2895 31.7817 45.8116C32.1696 -7.88819 47.7604 -2.68509 65.9816 -2.29564Z"></path>
  <path fill="#91A8EB" transform="matrix(1.50913 0.0246226 -0.0246226 1.50913 266.546 281.815)" d="M0.249979 -81.5196C49.8787 -81.2985 84.5 -60 84.5 -1.90735e-06C84.5 41.1452 46.78 74.5 0.249999 74.5C-62.1254 74.5 -84 60.12 -84 -1.90735e-06C-84 -71.2881 -62.1254 -81.5196 0.249979 -81.5196Z"></path>
  <path fill="#A6B8EF" transform="matrix(0.805953 0.0131497 -0.0151654 0.929491 320.839 246.693)" d="M0.24998 -81.5196C49.8787 -81.2985 84.5 -60 84.5 0C84.5 41.1452 67.1354 74.5 20.6054 74.5C-41.77 74.5 -84 60.12 -84 0C-84 -71.2881 -62.1254 -81.5197 0.24998 -81.5196Z"></path>
  <path fill="#C1CBE8" transform="matrix(0.197995 -0.202726 0.445703 0.435301 343.94 197.844)" d="M11.5671 -77.0972C58.097 -77.0972 97.5959 -41.1452 97.5959 -1.67094e-05C97.5959 41.1452 73.4187 83.0524 26.8888 83.0524C-35.4867 83.0524 11.8086 60.12 11.8086 -1.5431e-05C11.8086 -41.1452 -34.9629 -77.0972 11.5671 -77.0972Z"></path>
  <path fill="#C1CBE8" transform="matrix(0.197995 -0.202726 0.184201 0.179903 388.382 262.2)" d="M48.93 -79.7643C80.6762 -79.053 77.4946 -42.8889 62.8507 4.00562C48.2069 50.9001 -0.03942 91.2963 -20.4536 67.777C-40.8678 44.2576 -16.8141 31.8032 -0.458991 -5.13884C15.8961 -42.0808 17.1838 -80.4756 48.93 -79.7643Z"></path>
  <path fill="none" stroke="black" stroke-width="7" stroke-linecap="round" stroke-linejoin="round" transform="translate(256 256)" d="M50.283 -123.495C57.6508 -123.239 64.525 -122.522 70.9372 -121.393"></path>
  <path fill="#91A8EB" transform="matrix(1.79976 0.0293645 -0.0293645 1.79976 225.094 120.505)" d="M0 -22.5C14.6355 -22.5 26.5 -12.3145 26.5 0.249992C26.5 12.8145 14.6355 23 0 23C-14.6355 23 -26.5 12.8145 -26.5 0.249992C-26.5 -12.3145 -14.6355 -22.5 0 -22.5Z"></path>
  <path fill="#C1CBE8" transform="matrix(-0.166841 -0.570472 0.880441 -0.257495 182.899 124.811)" d="M1.52588e-05 -11.5C14.6356 -11.5 28.0061 -7.98329 28.0061 -1.63201C28.0061 4.71926 15.5059 0.400182 0.870372 0.400182C-13.7652 0.400181 -26.766 4.37688 -26.766 -1.97439C-26.766 -8.32566 -14.6355 -11.5 1.52588e-05 -11.5Z"></path>
  <path fill="#999CA8" transform="matrix(1.63997 3.39408e-09 -3.39408e-09 1.63997 188.479 137.673)" d="M62.3068 -2.05292C159.964 -6.72865 133.382 106.511 133.382 106.511C124.858 120.697 103.931 125.217 103.931 125.217C99.8122 122.738 97.0384 114.991 97.0384 114.991C97.0384 114.991 92.571 122.978 80.9884 132.097C33.5051 142.01 -40.0389 126.614 -41.66 116.832C-51.8318 89.8804 -42.4754 41.613 -40.0228 35.324C-37.5701 29.0351 -23.4335 12.2991 -23.4335 12.2991L-3.96149 -3.64614C-3.96149 -3.64614 28.6909 8.70725 69.7818 7.76565C67.3158 -2.81973 62.3068 -2.05292 62.3068 -2.05292Z"></path>
  <clipPath id="cl_152">
    <path d="M290.66 134.306C450.814 126.638 407.221 312.347 407.221 312.347C393.241 335.612 358.923 343.025 358.923 343.025C352.168 338.958 347.618 326.254 347.618 326.254C347.618 326.254 340.292 339.353 321.297 354.308C243.426 370.564 122.816 345.316 120.158 329.274C103.476 285.074 118.821 205.917 122.843 195.603C126.865 185.289 150.049 157.843 150.049 157.843L181.982 131.693C181.982 131.693 235.531 151.952 302.919 150.408C298.874 133.049 290.66 134.306 290.66 134.306Z"></path>
  </clipPath>
  <g clip-path="url(#cl_152)">
    <path fill="#686B77" transform="matrix(1.78416 3.69251e-09 -3.42908e-09 1.65688 276.089 246.929)" d="M-5.81434 -76.9003C-5.81434 -76.9003 -38.015 -34.4167 -37.875 19.4009C-37.7351 73.2184 27.8948 68.4574 27.8948 68.4574L-79.1489 92.4107L-102.257 16.7671L-83.3847 -74.5391L-5.81434 -76.9003Z"></path>
    <path fill="#BCBFC5" transform="matrix(1.78416 3.69251e-09 -3.42908e-09 1.65688 276.089 246.929)" d="M45.4521 -82.9725L93.7889 -50.8112C93.7889 -50.8112 78.8995 -3.97774 47.484 1.7428C16.0686 7.46333 -45.8161 -37.4435 -45.8161 -37.4435L-73.0634 -72.0992L45.4521 -82.9725Z"></path>
    <path fill="#DADDE0" transform="matrix(1.78416 3.69251e-09 -3.42908e-09 1.65688 305.609 126.391)" d="M33.8967 14.5768L59.8776 19.1892C59.8776 19.1892 48.6614 51.4509 28.5602 52.2698C8.45895 53.0887 -29.101 32.4093 -29.101 32.4093C-29.101 32.4093 17.1176 36.5863 22.2728 36.8407C27.4281 37.0951 33.8967 14.5768 33.8967 14.5768Z"></path>
    <path fill="none" stroke="#494B53" stroke-width="1" stroke-linejoin="round" transform="matrix(1.78416 3.69251e-09 -3.42908e-09 1.65688 237.789 246.988)" d="M59.9289 52.7444C57.3564 60.3316 54.1158 68.2952 50.1158 76.6343C16.1594 77.1498 -25.2378 65.559 -25.2378 65.559C-34.9636 44.2166 -33.6264 3.12168 -31.9909 -19.2678"></path>
    <path fill="none" stroke="#898FA2" stroke-width="1" stroke-linejoin="round" transform="matrix(1.78416 3.69251e-09 -3.42908e-09 1.65688 237.789 246.988)" d="M-52.5751 -90.6465C-52.5751 -90.6465 29.9049 -60.6268 29.9049 -60.6268C47.3122 -58.4025 83.4637 -21.4663 61.0933 49.1929"></path>
  </g>
  <defs>
    <linearGradient id="gradient_1" gradientUnits="userSpaceOnUse" x1="-60.30225" y1="-15.24908" x2="-29.287821" y2="-15.24908">
      <stop offset="0" stop-color="#42444C"></stop>
      <stop offset="0.99602401" stop-color="#161823"></stop>
      <stop offset="1" stop-color="black"></stop>
    </linearGradient>
  </defs>
  <path fill="url(#gradient_1)" transform="matrix(2.06931 4.28265e-09 -3.39408e-09 1.63997 280.986 243.649)" d="M-58.1232 -38.8393C-54.5001 -50.2495 -36.6337 -48.5811 -31.9012 -38.5612C-27.1688 -28.5414 -29.2878 -16.904 -29.2878 -16.904C-37.342 10.4732 -59.3233 2.22359 -60.3022 -21.2052C-60.3022 -21.2052 -61.7464 -27.4291 -58.1232 -38.8393Z"></path>
  <path fill="#91A8EB" transform="matrix(0.606874 0.00990163 -0.00990163 0.606874 198.411 87.7824)" d="M0 -22.5C14.6355 -22.5 26.5 -12.3145 26.5 0.25C26.5 12.8145 14.6355 23 0 23C-14.6355 23 -26.5 12.8145 -26.5 0.25C-26.5 -12.3145 -14.6355 -22.5 0 -22.5Z"></path>
  <path fill="#91A8EB" transform="matrix(0.504938 0.00823846 -0.00823846 0.504938 182.961 98.4798)" d="M-4.23752e-08 -22.5C14.6355 -22.5 26.5 -12.3145 26.5 0.25C26.5 12.8145 14.6355 23 4.23752e-08 23C-14.6355 23 -26.5 12.8145 -26.5 0.25C-26.5 -12.3145 -14.6355 -22.5 -4.23752e-08 -22.5Z"></path>
  <path fill="#91A8EB" transform="matrix(0.274279 0.00447507 -0.00447507 0.274279 164.092 65.6933)" d="M0 -22.4261C14.2962 -22.4261 25.8855 -12.274 25.8855 0.249268C25.8855 12.7726 14.2962 22.9247 0 22.9247C-14.2962 22.9247 -25.8855 12.7726 -25.8855 0.249268C-25.8855 -12.274 -14.2962 -22.4261 0 -22.4261Z"></path>
  <path fill="#C1CBE8" transform="matrix(0.073816 -0.11483 0.26388 0.16963 160.363 63.0487)" d="M0 -11.5C14.6355 -11.5 28.0061 -7.98328 28.0061 -1.63201C28.0061 4.71926 15.5059 0.400185 0.870356 0.400186C-13.7652 0.400185 -26.766 4.37689 -26.766 -1.97439C-26.766 -8.32566 -14.6355 -11.5 0 -11.5Z"></path>
  <path fill="#1B2B56" transform="matrix(1.78669 -0.21848 0.065544 0.536007 235.623 99.604)" d="M-9.31323e-09 -2.5C1.38071 -2.5 2.5 -1.38071 2.5 0C2.5 1.38071 1.38071 2.5 9.31323e-09 2.5C-1.38071 2.5 -2.5 1.38071 -2.5 0C-2.5 -1.38071 -1.38071 -2.5 -9.31323e-09 -2.5Z"></path>
  <path fill="none" stroke="#1B2B56" stroke-width="0.5" stroke-linecap="round" stroke-linejoin="round" transform="matrix(1.78289 -0.247598 0.247598 1.78289 244.267 98.4924)" d="M1.98548 0.277981L6.02909 0.184244"></path>
  <path fill="#1B2B56" transform="matrix(1.78669 -0.21848 0.065544 0.536007 264.21 96.1082)" d="M-9.62988e-07 -2.5C1.38071 -2.5 2.5 -1.38071 2.5 0C2.5 1.38071 1.38071 2.5 -9.44361e-07 2.5C-1.38071 2.5 -2.5 1.38071 -2.5 0C-2.5 -1.38071 -1.38071 -2.5 -9.62988e-07 -2.5Z"></path>
  <path fill="#354B89" transform="matrix(1.46507 -0.885005 0.929571 0.72522 255.987 89.1762)" d="M0 -2.5C1.38071 -2.5 2.5 -1.38071 2.5 1.49012e-07C2.5 1.38071 1.38071 2.5 0 2.5C-1.38071 2.5 -2.5 1.38071 -2.5 -1.49012e-07C-2.5 -1.38071 -1.38071 -2.5 0 -2.5Z"></path>
  <path fill="#354B89" transform="matrix(2.16254 0.296937 -0.629837 1.0733 240.015 90.1157)" d="M0 -2.98532C1.68306 -2.98532 3.04744 -1.64874 3.04744 1.5168e-05C3.04744 1.64877 1.68306 2.98535 0 2.98535C-1.68306 2.98535 -3.04744 1.64877 -3.04744 1.53496e-05C-3.04744 -1.64874 -1.68306 -2.98532 0 -2.98532Z"></path>
  <path fill="none" stroke="black" stroke-width="7" stroke-linecap="round" stroke-linejoin="round" transform="matrix(2.15345 4.45679e-09 -4.42021e-09 2.13577 150.359 290.313)" d="M29.6987 -34.6127C32.4294 -29.6793 36.234 -21.9305 40.3352 -8.84874C49.7304 18.403 56.0571 39.8453 32.642 49.4556C17.9043 55.395 -4.1275 37.278 -13.5294 10.0067C-20.9549 -12.8128 -16.8479 -36.2601 -7.99915 -49.7358"></path>
  <path fill="none" stroke="black" stroke-width="7" stroke-linejoin="round" transform="translate(256 256)" d="M-140.589 -50.3194C-151.688 -53.2082 -161.735 -57.5702 -169.235 -64.01C-157.839 -99.3946 -122.319 -126.476 -92.8634 -127.664"></path>
  <path fill="#6C88D9" transform="matrix(2.15345 4.45679e-09 -4.42021e-09 2.13577 150.359 290.313)" d="M9.17245 -61.1796C13.8076 -58.0323 24.4823 -45.7141 25.7073 -41.9857C26.9323 -38.2574 33.1828 -31.6632 40.3352 -8.84874C49.7304 18.403 56.0571 39.8453 32.642 49.4556C17.9043 55.395 -4.1275 37.278 -13.5294 10.0067C-24.9146 -24.9817 -9.18818 -61.4459 9.17245 -61.1796Z"></path>
  <path fill="#91A8EB" transform="matrix(1.67686 3.47045e-09 -4.32784e-09 2.09114 154.349 284.6)" d="M10.4624 -54.8157C31.7149 -59.8723 31.382 -34.8914 41.5227 -8.29961C53.357 18.5592 58.6792 41.1362 44.9864 46.8988C31.2936 52.6613 2.69309 35.1227 -10.7094 8.63757C-23.2632 -19.267 -10.79 -49.7591 10.4624 -54.8157Z"></path>
  <path fill="#999696" transform="matrix(1.63997 3.39408e-09 -3.39408e-09 1.63997 102.067 189.051)" d="M-9.33073 1.7923C0.255675 -20.3552 11.318 -34.4995 42.2294 -37.4963C57.7294 -9.48986 69.6737 5.85638 69.6737 5.85638C69.6737 9.4091 68.001 11.4229 63.6402 11.4229C63.6402 11.4229 11.318 19.5229 -9.33073 1.7923Z"></path>
  <path fill="#828594" transform="matrix(1.63997 3.39408e-09 -3.39408e-09 1.63997 102.067 189.051)" d="M-9.33073 1.7923C0.255675 -20.3552 11.318 -34.4995 42.2294 -37.4963C57.7294 -9.48986 69.6737 5.85638 69.6737 5.85638C69.6737 9.4091 68.001 11.4229 63.6402 11.4229C63.6402 11.4229 11.318 19.5229 -9.33073 1.7923Z"></path>
  <clipPath id="cl_156">
    <path d="M86.765 191.99C102.486 155.669 120.628 132.473 171.322 127.558C196.741 173.488 216.33 198.655 216.33 198.655C216.33 204.481 213.586 207.784 206.435 207.784C206.435 207.784 120.628 221.068 86.765 191.99Z"></path>
  </clipPath>
  <g clip-path="url(#cl_156)">
    <path fill="#686B77" transform="matrix(1.63997 3.39408e-09 -3.39408e-09 1.63997 102.067 189.051)" d="M-18.5853 15.5755L-13.4615 -44.4622C-13.4615 -44.4622 70.2014 -44.8304 70.2014 -44.8304C29.0482 -45.0949 3.69742 17.5905 3.69742 17.5905L-18.5853 15.5755Z"></path>
  </g>
  <path fill="#42444C" transform="matrix(1.63997 3.39408e-09 -3.39408e-09 1.63997 102.067 189.051)" d="M-9.33073 -5.18064C-9.33073 -5.18064 -8.34054 -14.2229 2.12124 -18.7125C16.6016 -6.18101 67.6134 6.22991 67.6134 6.22991L66.536 9.4091C66.536 9.4091 1.13099 9.26386 -9.33073 -5.18064Z"></path>
  <path fill="#4B4949" transform="matrix(1.63997 3.39408e-09 -3.39408e-09 1.63997 212.951 203.47)" d="M0 -12C6.90356 -12 12.5 -6.62742 12.5 0C12.5 6.62742 6.90356 12 0 12C-6.90356 12 -12.5 6.62742 -12.5 0C-12.5 -6.62742 -6.90356 -12 0 -12Z"></path>
  <path fill="#827A7A" transform="matrix(1.63997 3.39408e-09 -3.39408e-09 1.63997 217.871 205.11)" d="M0 -12C6.90356 -12 12.5 -6.62742 12.5 0C12.5 6.62742 6.90356 12 0 12C-6.90356 12 -12.5 6.62742 -12.5 0C-12.5 -6.62742 -6.90356 -12 0 -12Z"></path>
  <path fill="none" stroke="white" stroke-width="5" stroke-linecap="round" stroke-linejoin="round" transform="matrix(1.5 0 0 1.5 158.539 362.24)" d=""></path>
</svg>