<?xml version="1.0" encoding="utf-8"?>
<svg xmlns="http://www.w3.org/2000/svg" xmlns:xlink="http://www.w3.org/1999/xlink" width="512" height="512">
  <path fill="none" stroke="black" stroke-width="7" stroke-linejoin="round" transform="matrix(1.8 3.72529e-09 -3.72529e-09 1.8 210.879 409.868)" d="M49.2872 -47.4338C67.5084 -47.0461 79.9793 -39.5231 79.3569 4.76202C79.3904 33.7795 71.944 43.7247 61.4303 43.3521C50.9166 42.9796 42.277 42.996 31.9435 42.9737C21.4822 42.7706 16.2123 31.5781 16.1792 2.5476C16.5371 -43.9476 31.0659 -47.8214 49.2872 -47.4338Z"></path>
  <path fill="none" stroke="black" stroke-width="7" stroke-linejoin="round" transform="matrix(1.79976 0.0293645 -0.0298671 1.83057 266.471 274.828)" d="M0.209625 -80.0966C37.3348 -80.0966 80.6639 -60.1508 80.6639 -0.150774C80.6639 40.9944 46.7396 76.2788 0.209625 76.2788C-62.1658 76.2788 -84 60.12 -84 0C-84 -71.2881 -50.5087 -80.0966 0.209625 -80.0966Z"></path>
  <path fill="none" stroke="black" stroke-width="7" stroke-linejoin="round" transform="matrix(-2.15345 -3.29802e-07 -3.27096e-07 2.13577 356.138 276.012)" d="M18.5285 -58.5217C21.8459 -53.9876 27.7973 -38.7699 27.7092 -34.8433C27.6211 -30.9167 31.9179 -21.9512 30.3572 2.36729C28.8082 31.2149 24.1088 54.2507 -1.1431 53.0341C-16.9912 52.169 -28.187 28.1037 -26.638 -0.743968C-24.696 -36.9106 1.32309 -64.9902 18.5285 -58.5217Z"></path>
  <path fill="none" stroke="black" stroke-width="7" stroke-linejoin="round" transform="matrix(1.53671 3.18039e-09 -3.72529e-09 1.8 308.979 398.168)" d="M-49.8317 -46.7989C-31.6064 -46.8276 -16.2188 -39.943 -16.3023 9.63161C-15.8888 23.4826 -22.114 47.1962 -35.7909 47.0337C-49.4678 46.8713 -55.6028 46.7984 -67.8037 46.6535C-80.0045 46.5086 -81.8887 23.5865 -82.3022 9.73553C-82.5343 -42.0293 -68.0571 -46.7702 -49.8317 -46.7989Z"></path>
  <path fill="#6C88D9" transform="matrix(-2.15345 -3.29802e-07 -3.27096e-07 2.13577 356.138 276.012)" d="M18.5285 -58.5217C21.8459 -53.9876 27.7973 -38.7699 27.7092 -34.8433C27.6211 -30.9167 31.9179 -21.9512 30.3572 2.36729C28.8082 31.2149 24.1088 54.2507 -1.1431 53.0341C-16.9912 52.169 -28.187 28.1037 -26.638 -0.743968C-24.696 -36.9106 1.32309 -64.9902 18.5285 -58.5217Z"></path>
  <path fill="#5170C8" transform="matrix(1.53671 3.18039e-09 -3.72529e-09 1.8 308.979 398.168)" d="M-49.8317 -46.7989C-31.6064 -46.8276 -16.2188 -39.943 -16.3023 9.63161C-15.8888 23.4826 -22.114 47.1962 -35.7909 47.0337C-49.4678 46.8713 -55.6028 46.7984 -67.8037 46.6535C-80.0045 46.5086 -81.8887 23.5865 -82.3022 9.73553C-82.5343 -42.0293 -68.0571 -46.7702 -49.8317 -46.7989Z"></path>
  <path fill="#839BE0" transform="matrix(1.20328 2.49031e-09 -2.91698e-09 1.40944 308.979 398.168)" d="M-63.613 -47.0598C-45.3877 -47.0885 -30.5516 -40.1194 -30.4984 13.9475C-30.9666 31.8779 -39.9178 46.9518 -53.5947 46.7893C-67.2716 46.6269 -67.0975 46.6795 -79.2984 46.5346C-91.4992 46.3897 -96.9665 31.9818 -96.4982 14.0514C-96.8672 -42.2058 -81.8384 -47.0311 -63.613 -47.0598Z"></path>
  <path fill="#6C88D9" transform="matrix(1.8 3.72529e-09 -3.72529e-09 1.8 210.879 409.868)" d="M49.2872 -47.4338C67.5084 -47.0461 79.9793 -39.5231 79.3569 4.76202C79.3904 33.7795 71.944 43.7247 61.4303 43.3521C50.9166 42.9796 42.277 42.996 31.9435 42.9737C21.4822 42.7706 16.2123 31.5781 16.1792 2.5476C16.5371 -43.9476 31.0659 -47.8214 49.2872 -47.4338Z"></path>
  <path fill="#91A8EB" transform="matrix(-1.67686 -2.56813e-07 -3.2026e-07 2.09114 352.148 270.299)" d="M20.3477 -52.1017C42.4836 -51.1407 33.9174 -26.6462 30.3562 1.83276C26.7949 30.3117 13.342 53.1152 -2.09938 52.4448C-17.5407 51.7744 -28.1031 28.0006 -26.167 -0.676218C-24.2308 -29.353 -1.78812 -53.0627 20.3477 -52.1017Z"></path>
  <path fill="none" stroke="black" stroke-width="7" stroke-miterlimit="4" transform="matrix(1.79976 0.0293645 -0.0293645 1.79976 224.981 115.153)" d="M0 -29.5C19.0538 -29.5 34.5 -16.1805 34.5 0.25C34.5 16.6805 19.0538 30 0 30C-19.0538 30 -34.5 16.6805 -34.5 0.25C-34.5 -16.1805 -19.0538 -29.5 0 -29.5Z"></path>
  <path fill="none" stroke="black" stroke-width="9" stroke-miterlimit="4" transform="translate(256 256)" d="M-57.3282 -198.664C-42.5456 -198.423 -30.7306 -187.894 -30.9386 -175.147C-31.1465 -162.399 -43.2988 -152.261 -58.0814 -152.502C-72.864 -152.743 -84.679 -163.273 -84.4711 -176.02C-84.2631 -188.767 -72.1108 -198.905 -57.3282 -198.664Z"></path>
  <path fill="none" stroke="black" stroke-width="9" stroke-miterlimit="4" transform="translate(256 256)" d="M-72.8412 -183.752C-60.5417 -183.551 -50.7112 -174.79 -50.8842 -164.184C-51.0573 -153.578 -61.1683 -145.143 -73.4679 -145.344C-85.7675 -145.544 -95.598 -154.305 -95.4249 -164.911C-95.2519 -175.517 -85.1408 -183.952 -72.8412 -183.752Z"></path>
  <path fill="none" stroke="black" stroke-width="9" stroke-miterlimit="4" transform="translate(256 256)" d="M-92.8483 -208.086C-86.1673 -207.977 -80.8274 -203.218 -80.9214 -197.457C-81.0154 -191.696 -86.5077 -187.114 -93.1887 -187.223C-99.8698 -187.332 -105.21 -192.09 -105.116 -197.852C-105.022 -203.613 -99.5294 -208.195 -92.8483 -208.086Z"></path>
  <path fill="#6C88D9" transform="matrix(1.79976 0.0293645 -0.0293645 1.79976 224.981 115.153)" d="M0 -29.5C19.0538 -29.5 34.5 -16.1805 34.5 0.25C34.5 16.6805 19.0538 30 0 30C-19.0538 30 -34.5 16.6805 -34.5 0.25C-34.5 -16.1805 -19.0538 -29.5 0 -29.5Z"></path>
  <path fill="#6C88D9" transform="matrix(0.775834 0.0126583 -0.0126583 0.775834 198.298 80.2228)" d="M-7.62939e-06 -29.5C19.0538 -29.5 34.5 -16.1805 34.5 0.249985C34.5 16.6805 19.0538 30 -7.62939e-06 30C-19.0538 30 -34.5 16.6805 -34.5 0.249985C-34.5 -16.1805 -19.0538 -29.5 -7.62939e-06 -29.5Z"></path>
  <path fill="#6C88D9" transform="matrix(0.645518 0.0105321 -0.0105321 0.645518 182.848 91.291)" d="M-7.62939e-06 -29.5C19.0538 -29.5 34.5 -16.1805 34.5 0.25C34.5 16.6805 19.0538 30 -7.62939e-06 30C-19.0538 30 -34.5 16.6805 -34.5 0.25C-34.5 -16.1805 -19.0538 -29.5 -7.62939e-06 -29.5Z"></path>
  <path fill="#6C88D9" transform="matrix(0.35064 0.00572097 -0.00572097 0.35064 162.983 58.2581)" d="M0 -29.5C19.0538 -29.5 34.5 -16.1805 34.5 0.25C34.5 16.6805 19.0538 30 0 30C-19.0538 30 -34.5 16.6805 -34.5 0.25C-34.5 -16.1805 -19.0538 -29.5 0 -29.5Z"></path>
  <path fill="none" stroke="black" stroke-width="7" stroke-linejoin="round" transform="translate(256 256)" d="M-89.4844 -103.534C-70.0118 -130.256 23.3041 -116.243 39.5381 -113.577"></path>
  <defs>
    <linearGradient id="gradient_0" gradientUnits="userSpaceOnUse" x1="-10.499905" y1="-40.34568" x2="-3.0814617" y2="20.75737">
      <stop offset="0" stop-color="#A1A8AF"></stop>
      <stop offset="0.99830264" stop-color="#242B4A"></stop>
      <stop offset="1" stop-color="#000417"></stop>
    </linearGradient>
  </defs>
  <path fill="url(#gradient_0)" transform="matrix(1.63997 3.39408e-09 -3.39408e-09 1.63997 254.735 167.015)" d="M-53.7932 -8.87113C-40.7768 -26.7335 26.3506 -14.7462 26.3506 -14.7462L53.5854 -9.77639L68.6389 10.0869L-57 14.5C-57 14.5 -53.7932 -8.87113 -53.7932 -8.87113Z"></path>
  <path fill="none" stroke="black" stroke-width="7" stroke-linejoin="round" transform="translate(256 256)" d="M164.016 -65.9887C148.295 -102.31 130.153 -125.506 79.459 -130.421C58.9197 -81.208 34.4512 -59.3238 34.4512 -59.3238C34.4512 -53.4974 37.1944 -50.1949 44.346 -50.1949C44.346 -50.1949 130.153 -36.9111 164.016 -65.9887Z"></path>
  <path fill="#828594" transform="matrix(-1.63997 -2.51022e-07 -2.51022e-07 1.63997 404.714 187.072)" d="M-9.33072 1.7923C0.255683 -20.3552 11.318 -34.4995 42.2294 -37.4963C57.7294 -9.48985 69.6738 5.85638 69.6738 5.85638C69.6737 9.40911 68.001 11.4229 63.6402 11.4229C63.6402 11.4229 11.318 19.5229 -9.33072 1.7923Z"></path>
  <path fill="#6C88D9" transform="matrix(1.79976 0.0293645 -0.0297683 1.82451 266.463 275.29)" d="M0.445611 -80.8406C37.5708 -80.8406 80.6032 -59.9373 80.6032 0.0627349C80.6032 41.208 46.7396 76.2788 0.209625 76.2788C-62.1658 76.2788 -84 60.12 -84 1.75042e-06C-84 -71.2881 -50.2727 -80.8406 0.445611 -80.8406Z"></path>
  <path fill="#91A8EB" transform="matrix(1.37947 2.85496e-09 -2.85496e-09 1.37947 210.879 346.868)" d="M64.015 -2.24772C82.2363 -1.86013 95.854 -2.36216 95.2072 49.1274C94.4914 74.6054 86.7008 89.0324 76.1871 88.6597C65.6735 88.2872 57.0339 88.3036 46.7004 88.2813C36.3207 88.1856 29.104 71.3408 29.8198 45.8629C30.2024 -7.83698 45.7937 -2.63535 64.015 -2.24772Z"></path>
  <path fill="#91A8EB" transform="matrix(1.50913 0.0246226 -0.0246226 1.50913 266.432 277.178)" d="M0.24998 -81.5196C49.8787 -81.2985 84.5 -60 84.5 -9.53674e-07C84.5 41.1452 46.78 74.5 0.25 74.5C-62.1254 74.5 -84 60.12 -84 -9.53674e-07C-84 -71.2881 -62.1254 -81.5196 0.24998 -81.5196Z"></path>
  <path fill="#A6B8EF" transform="matrix(0.805953 0.0131497 -0.0151654 0.929491 320.726 242.056)" d="M0.249972 -81.5196C49.8787 -81.2985 84.5 -60 84.5 1.90735e-06C84.5 41.1452 67.1354 74.5 20.6054 74.5C-41.77 74.5 -84 60.12 -84 1.90735e-06C-84 -71.2881 -62.1254 -81.5197 0.249972 -81.5196Z"></path>
  <path fill="#C1CBE8" transform="matrix(0.197995 -0.202726 0.445703 0.435301 343.827 193.207)" d="M11.5671 -77.0972C58.097 -77.0972 97.5959 -41.1452 97.5959 -2.43388e-05C97.5959 41.1452 73.4187 83.0524 26.8888 83.0524C-35.4867 83.0524 11.8086 60.12 11.8086 -2.30604e-05C11.8086 -41.1452 -34.9629 -77.0972 11.5671 -77.0972Z"></path>
  <path fill="#C1CBE8" transform="matrix(0.197995 -0.202726 0.184201 0.179903 388.269 257.563)" d="M48.93 -79.7643C80.6762 -79.053 77.4946 -42.8889 62.8507 4.00562C48.2069 50.9001 -0.03942 91.2963 -20.4536 67.777C-40.8678 44.2576 -16.8141 31.8032 -0.458991 -5.13884C15.8961 -42.0808 17.1838 -80.4756 48.93 -79.7643Z"></path>
  <path fill="none" stroke="black" stroke-width="7" stroke-linecap="round" stroke-linejoin="round" transform="translate(256 256)" d="M50.1699 -129.233C57.5377 -128.977 64.412 -128.26 70.8242 -127.131"></path>
  <path fill="#91A8EB" transform="matrix(1.79976 0.0293645 -0.0293645 1.79976 224.981 115.153)" d="M0 -22.5C14.6355 -22.5 26.5 -12.3145 26.5 0.25C26.5 12.8145 14.6355 23 0 23C-14.6355 23 -26.5 12.8145 -26.5 0.25C-26.5 -12.3145 -14.6355 -22.5 0 -22.5Z"></path>
  <path fill="#C1CBE8" transform="matrix(-0.166841 -0.570472 0.880441 -0.257495 182.739 119.477)" d="M-1.52588e-05 -11.5C14.6355 -11.5 28.0061 -7.98328 28.0061 -1.63201C28.0061 4.71927 15.5059 0.400186 0.870341 0.400186C-13.7652 0.400184 -26.766 4.37689 -26.766 -1.97439C-26.766 -8.32566 -14.6356 -11.5 -1.52588e-05 -11.5Z"></path>
  <path fill="#999CA8" transform="matrix(1.63997 3.39408e-09 -3.39408e-09 1.63997 188.366 131.935)" d="M62.2864 -1.3989C159.99 -6.52729 133.382 106.511 133.382 106.511C124.858 120.697 103.931 125.217 103.931 125.217C99.8122 122.738 97.0384 114.991 97.0384 114.991C97.0384 114.991 92.571 122.978 80.9884 132.097C33.5051 142.01 -40.0389 126.614 -41.66 116.832C-51.8318 89.8804 -42.4754 41.613 -40.0228 35.324C-37.5701 29.0351 -23.4335 12.2991 -23.4335 12.2991L-3.96149 -3.64614C-3.96149 -3.64614 28.6909 8.70725 69.7818 7.76565C67.3158 -2.81973 62.2864 -1.3989 62.2864 -1.3989Z"></path>
  <clipPath id="cl_fd">
    <path d="M290.513 129.641C450.743 121.23 407.108 306.609 407.108 306.609C393.128 329.874 358.81 337.287 358.81 337.287C352.054 333.22 347.505 320.516 347.505 320.516C347.505 320.516 340.179 333.615 321.184 348.57C243.313 364.826 122.703 339.578 120.045 323.536C103.363 279.336 118.708 200.179 122.73 189.865C126.752 179.551 149.935 152.105 149.935 152.105L181.869 125.955C181.869 125.955 235.418 146.214 302.806 144.67C298.761 127.311 290.513 129.641 290.513 129.641Z"></path>
  </clipPath>
  <g clip-path="url(#cl_fd)">
    <path fill="#686B77" transform="matrix(1.78416 3.69251e-09 -3.42908e-09 1.65688 275.976 241.191)" d="M-5.81434 -76.9003C-5.81434 -76.9003 -38.015 -34.4167 -37.875 19.4009C-37.7351 73.2184 27.8948 68.4574 27.8948 68.4574L-79.1489 92.4107L-102.257 16.7671L-83.3847 -74.5391L-5.81434 -76.9003Z"></path>
    <path fill="#BCBFC5" transform="matrix(1.78416 3.69251e-09 -3.42908e-09 1.65688 275.976 241.191)" d="M45.4521 -82.9725L93.7889 -50.8112C93.7889 -50.8112 78.8995 -3.97774 47.484 1.7428C16.0686 7.46333 -45.8161 -37.4435 -45.8161 -37.4435L-73.0634 -72.0992L45.4521 -82.9725Z"></path>
    <path fill="#DADDE0" transform="matrix(1.78416 3.69251e-09 -3.42908e-09 1.65688 305.496 120.653)" d="M33.8967 14.5768L59.8776 19.1892C59.8776 19.1892 48.6614 51.4509 28.5602 52.2698C8.45895 53.0887 -29.101 32.4093 -29.101 32.4093C-29.101 32.4093 17.1176 36.5863 22.2728 36.8407C27.4281 37.0951 33.8967 14.5768 33.8967 14.5768Z"></path>
    <path fill="none" stroke="#494B53" stroke-width="1" stroke-linejoin="round" transform="matrix(1.78416 3.69251e-09 -3.42908e-09 1.65688 237.676 241.25)" d="M59.9289 52.7444C57.3564 60.3316 54.1158 68.2952 50.1158 76.6343C16.1594 77.1498 -25.2378 65.559 -25.2378 65.559C-34.9636 44.2166 -33.6264 3.12168 -31.9909 -19.2678"></path>
    <path fill="none" stroke="#898FA2" stroke-width="1" stroke-linejoin="round" transform="matrix(1.78416 3.69251e-09 -3.42908e-09 1.65688 237.676 241.25)" d="M-52.5751 -90.6465C-52.5751 -90.6465 29.9049 -60.6268 29.9049 -60.6268C47.3122 -58.4025 83.4637 -21.4663 61.0933 49.1929"></path>
  </g>
  <defs>
    <linearGradient id="gradient_1" gradientUnits="userSpaceOnUse" x1="-60.30225" y1="-15.24908" x2="-29.287821" y2="-15.24908">
      <stop offset="0" stop-color="#42444C"></stop>
      <stop offset="0.99602401" stop-color="#161823"></stop>
      <stop offset="1" stop-color="black"></stop>
    </linearGradient>
  </defs>
  <path fill="url(#gradient_1)" transform="matrix(2.06931 4.28265e-09 -3.39408e-09 1.63997 280.872 237.911)" d="M-58.1232 -38.8393C-54.5001 -50.2495 -36.6337 -48.5811 -31.9012 -38.5612C-27.1688 -28.5414 -29.2878 -16.904 -29.2878 -16.904C-37.342 10.4732 -59.3233 2.22359 -60.3022 -21.2052C-60.3022 -21.2052 -61.7464 -27.4291 -58.1232 -38.8393Z"></path>
  <path fill="#91A8EB" transform="matrix(0.606874 0.00990163 -0.00990163 0.606874 198.298 82.4299)" d="M0 -22.5C14.6355 -22.5 26.5 -12.3145 26.5 0.25C26.5 12.8145 14.6355 23 0 23C-14.6355 23 -26.5 12.8145 -26.5 0.25C-26.5 -12.3145 -14.6355 -22.5 0 -22.5Z"></path>
  <path fill="#91A8EB" transform="matrix(0.504938 0.00823846 -0.00823846 0.504938 182.848 93.1273)" d="M-4.23752e-08 -22.5C14.6355 -22.5 26.5 -12.3145 26.5 0.25C26.5 12.8145 14.6355 23 4.23752e-08 23C-14.6355 23 -26.5 12.8145 -26.5 0.25C-26.5 -12.3145 -14.6355 -22.5 -4.23752e-08 -22.5Z"></path>
  <path fill="#91A8EB" transform="matrix(0.274279 0.00447507 -0.00447507 0.274279 163.979 60.3408)" d="M3.05176e-05 -22.4261C14.2962 -22.4261 25.8855 -12.274 25.8855 0.249268C25.8855 12.7726 14.2962 22.9247 3.05176e-05 22.9247C-14.2961 22.9247 -25.8855 12.7726 -25.8855 0.249268C-25.8855 -12.274 -14.2961 -22.4261 3.05176e-05 -22.4261Z"></path>
  <path fill="#C1CBE8" transform="matrix(0.073816 -0.11483 0.26388 0.16963 160.203 57.7149)" d="M0.00012207 -11.4999C14.6357 -11.4999 28.0062 -7.98322 28.0062 -1.63195C28.0062 4.71933 15.506 0.400246 0.870479 0.400247C-13.7651 0.400246 -26.7659 4.37695 -26.7659 -1.97432C-26.7659 -8.3256 -14.6354 -11.4999 0.00012207 -11.4999Z"></path>
  <path fill="#1B2B56" transform="matrix(1.78669 -0.21848 0.065544 0.536007 237.849 93.3137)" d="M-6.64964e-07 -2.5C1.38071 -2.5 2.5 -1.38071 2.5 0C2.5 1.38071 1.38071 2.5 -6.46338e-07 2.5C-1.38071 2.5 -2.5 1.38071 -2.5 0C-2.5 -1.38071 -1.38071 -2.5 -6.64964e-07 -2.5Z"></path>
  <path fill="none" stroke="#1B2B56" stroke-width="0.5" stroke-linecap="round" stroke-linejoin="round" transform="matrix(1.78289 -0.247598 0.247598 1.78289 246.493 92.2021)" d="M1.98548 0.277974L6.02909 0.184236"></path>
  <path fill="#1B2B56" transform="matrix(1.78669 -0.21848 0.065544 0.536007 266.436 89.8179)" d="M-9.31323e-09 -2.5C1.38071 -2.5 2.5 -1.38071 2.5 0C2.5 1.38071 1.38071 2.5 9.31323e-09 2.5C-1.38071 2.5 -2.5 1.38071 -2.5 0C-2.5 -1.38071 -1.38071 -2.5 -9.31323e-09 -2.5Z"></path>
  <path fill="#354B89" transform="matrix(1.46507 -0.885005 0.929571 0.72522 258.214 82.8859)" d="M7.62939e-06 -2.5C1.38072 -2.5 2.50001 -1.38071 2.50001 1.49012e-07C2.50001 1.38071 1.38072 2.5 7.62939e-06 2.5C-1.3807 2.5 -2.49999 1.38071 -2.49999 -1.49012e-07C-2.49999 -1.38071 -1.3807 -2.5 7.62939e-06 -2.5Z"></path>
  <path fill="#354B89" transform="matrix(2.16254 0.296937 -0.629837 1.0733 242.241 83.8254)" d="M0 -2.98532C1.68306 -2.98532 3.04744 -1.64874 3.04744 1.5168e-05C3.04744 1.64877 1.68306 2.98535 0 2.98535C-1.68306 2.98535 -3.04744 1.64877 -3.04744 1.53496e-05C-3.04744 -1.64874 -1.68306 -2.98532 0 -2.98532Z"></path>
  <path fill="none" stroke="black" stroke-width="7" stroke-linecap="round" stroke-linejoin="round" transform="matrix(2.15345 4.45679e-09 -4.42021e-09 2.13577 150.246 285.676)" d="M29.5642 -34.2227C32.2166 -29.2359 35.8956 -21.408 39.7621 -8.22907C48.6358 19.2027 54.4701 40.8297 30.8593 49.9402C16.0006 55.5649 -5.57715 37.0296 -14.4569 9.579C-21.4544 -13.355 -16.9458 -36.6972 -7.87335 -50.002"></path>
  <path fill="none" stroke="black" stroke-width="7" stroke-linejoin="round" transform="translate(256 256)" d="M-141.77 -56.3407C-152.445 -59.2289 -162.09 -63.5153 -169.348 -69.748C-157.946 -105.15 -122.397 -132.24 -92.9337 -133.404"></path>
  <path fill="#6C88D9" transform="matrix(2.15345 4.45679e-09 -4.42021e-09 2.13577 150.246 285.676)" d="M9.49702 -61.1397C14.0771 -57.9115 24.5373 -45.4075 25.6977 -41.6582C26.858 -37.9089 33.0253 -31.1911 39.7621 -8.22907C48.6358 19.2027 54.4701 40.8297 30.8593 49.9402C16.0006 55.5649 -5.57715 37.0296 -14.4569 9.579C-25.1889 -25.5948 -8.85621 -61.7285 9.49702 -61.1397Z"></path>
  <path fill="#91A8EB" transform="matrix(1.67686 3.47045e-09 -4.32784e-09 2.09114 154.236 279.963)" d="M10.7718 -54.7609C32.131 -59.5197 31.3033 -34.5428 40.8375 -7.78912C52.0268 19.2522 56.7039 41.9574 42.8626 47.4871C29.0213 53.0169 0.965607 35.0334 -11.8009 8.3416C-23.7013 -19.73 -10.5873 -50.002 10.7718 -54.7609Z"></path>
  <path fill="#999696" transform="matrix(1.63997 3.39408e-09 -3.39408e-09 1.63997 101.954 183.313)" d="M-9.33072 1.7923C0.255683 -20.3552 11.318 -34.4995 42.2294 -37.4963C57.7294 -9.48985 69.6738 5.85638 69.6738 5.85638C69.6737 9.40911 68.001 11.4229 63.6402 11.4229C63.6402 11.4229 11.318 19.5229 -9.33072 1.7923Z"></path>
  <path fill="#828594" transform="matrix(1.63997 3.39408e-09 -3.39408e-09 1.63997 101.954 183.313)" d="M-9.33072 1.7923C0.255683 -20.3552 11.318 -34.4995 42.2294 -37.4963C57.7294 -9.48985 69.6738 5.85638 69.6738 5.85638C69.6737 9.40911 68.001 11.4229 63.6402 11.4229C63.6402 11.4229 11.318 19.5229 -9.33072 1.7923Z"></path>
  <clipPath id="cl_101">
    <path d="M86.6519 186.252C102.373 149.931 120.515 126.735 171.209 121.82C196.628 167.75 216.217 192.917 216.217 192.917C216.217 198.743 213.473 202.046 206.322 202.046C206.322 202.046 120.515 215.33 86.6519 186.252Z"></path>
  </clipPath>
  <g clip-path="url(#cl_101)">
    <path fill="#686B77" transform="matrix(1.63997 3.39408e-09 -3.39408e-09 1.63997 101.954 183.313)" d="M-18.5853 15.5755L-13.4615 -44.4622C-13.4615 -44.4622 70.2014 -44.8304 70.2014 -44.8304C29.0482 -45.0949 3.69743 17.5905 3.69743 17.5905L-18.5853 15.5755Z"></path>
  </g>
  <path fill="#42444C" transform="matrix(1.63997 3.39408e-09 -3.39408e-09 1.63997 101.954 183.313)" d="M-9.33072 -5.18063C-9.33072 -5.18063 -8.34054 -14.2229 2.12125 -18.7125C16.6016 -6.181 67.6134 6.22992 67.6134 6.22992L66.536 9.40911C66.536 9.40911 1.13099 9.26387 -9.33072 -5.18063Z"></path>
  <path fill="#4B4949" transform="matrix(1.63997 3.39408e-09 -3.39408e-09 1.63997 212.838 197.732)" d="M0 -12C6.90356 -12 12.5 -6.62741 12.5 3.8147e-06C12.5 6.62742 6.90356 12 0 12C-6.90356 12 -12.5 6.62742 -12.5 3.8147e-06C-12.5 -6.62741 -6.90356 -12 0 -12Z"></path>
  <path fill="#827A7A" transform="matrix(1.63997 3.39408e-09 -3.39408e-09 1.63997 217.758 199.372)" d="M0 -12C6.90356 -12 12.5 -6.62741 12.5 3.8147e-06C12.5 6.62742 6.90356 12 0 12C-6.90356 12 -12.5 6.62742 -12.5 3.8147e-06C-12.5 -6.62741 -6.90356 -12 0 -12Z"></path>
  <path fill="none" stroke="white" stroke-width="5" stroke-linecap="round" stroke-linejoin="round" transform="matrix(1.5 0 0 1.5 158.539 362.24)" d=""></path>
</svg>