<?xml version="1.0" encoding="utf-8"?>
<svg xmlns="http://www.w3.org/2000/svg" xmlns:xlink="http://www.w3.org/1999/xlink" width="512" height="512">
  <path fill="none" stroke="black" stroke-width="7" stroke-linejoin="round" transform="matrix(1.8 3.72529e-09 -3.72529e-09 1.8 210.879 409.868)" d="M0.766262 -46.2619C18.9905 -46.0538 31.5348 -38.654 31.3488 5.63513C31.6683 34.6509 24.3201 44.669 13.8033 44.4C3.28644 44.131 -5.35258 44.2325 -15.6858 44.3121C-26.1486 44.2121 -31.5286 33.072 -31.8477 4.04324C-31.9478 -42.4533 -17.458 -46.47 0.766262 -46.2619Z"></path>
  <path fill="none" stroke="black" stroke-width="7" stroke-linejoin="round" transform="matrix(1.79976 0.0293645 -0.0298671 1.83057 266.423 272.849)" d="M0.209625 -80.0966C37.3348 -80.0966 80.6639 -60.1508 80.6639 -0.150775C80.6639 40.9944 46.7396 76.2788 0.209625 76.2788C-62.1658 76.2788 -84 60.12 -84 -9.53674e-07C-84 -71.2881 -50.5087 -80.0966 0.209625 -80.0966Z"></path>
  <path fill="none" stroke="black" stroke-width="7" stroke-linejoin="round" transform="matrix(-2.15345 -3.29802e-07 -3.27096e-07 2.13577 356.09 274.033)" d="M20.0036 -56.0047C22.3922 -50.911 25.3234 -34.8222 24.4864 -30.9863C23.6494 -27.1504 26.152 -17.518 19.9724 6.0413C12.9385 34.0472 3.92424 55.738 -20.6218 49.6374C-36.0075 45.709 -42.3936 19.9193 -35.3597 -8.08662C-26.5413 -43.1979 4.35711 -65.6952 20.0036 -56.0047Z"></path>
  <path fill="none" stroke="black" stroke-width="7" stroke-linejoin="round" transform="matrix(1.53671 3.18039e-09 -3.72529e-09 1.8 308.979 398.168)" d="M-0.767365 -47.839C17.4561 -48.0645 32.9445 -41.3466 33.5955 8.22491C34.2143 22.0703 28.3408 45.8492 14.6626 45.8345C0.984402 45.8197 -5.1512 45.8131 -17.3533 45.8C-29.5552 45.7868 -31.7788 22.8869 -32.3975 9.04156C-33.3966 -42.7166 -18.9909 -47.6135 -0.767365 -47.839Z"></path>
  <path fill="#6C88D9" transform="matrix(-2.15345 -3.29802e-07 -3.27096e-07 2.13577 356.09 274.033)" d="M20.0036 -56.0047C22.3922 -50.911 25.3234 -34.8222 24.4864 -30.9863C23.6494 -27.1504 26.152 -17.518 19.9724 6.0413C12.9385 34.0472 3.92424 55.738 -20.6218 49.6374C-36.0075 45.709 -42.3936 19.9193 -35.3597 -8.08662C-26.5413 -43.1979 4.35711 -65.6952 20.0036 -56.0047Z"></path>
  <path fill="#5170C8" transform="matrix(1.53671 3.18039e-09 -3.72529e-09 1.8 308.979 398.168)" d="M-0.767365 -47.839C17.4561 -48.0645 32.9445 -41.3466 33.5955 8.22491C34.2143 22.0703 28.3408 45.8492 14.6626 45.8345C0.984402 45.8197 -5.1512 45.8131 -17.3533 45.8C-29.5552 45.7868 -31.7788 22.8869 -32.3975 9.04156C-33.3966 -42.7166 -18.9909 -47.6135 -0.767365 -47.839Z"></path>
  <path fill="#839BE0" transform="matrix(1.20328 2.49031e-09 -2.91698e-09 1.40944 308.979 398.168)" d="M-0.764278 -48.3895C17.4592 -48.615 32.3973 -41.8066 33.2517 12.2554C33.0492 30.1894 24.3219 45.3587 10.6437 45.344C-3.03454 45.3292 -2.85969 45.38 -15.0617 45.3668C-27.2638 45.3537 -32.9439 31.006 -32.7414 13.072C-33.9438 -43.1767 -18.9878 -48.1639 -0.764278 -48.3895Z"></path>
  <path fill="#6C88D9" transform="matrix(1.8 3.72529e-09 -3.72529e-09 1.8 210.879 409.868)" d="M0.766262 -46.2619C18.9905 -46.0538 31.5348 -38.654 31.3488 5.63513C31.6683 34.6509 24.3201 44.669 13.8033 44.4C3.28644 44.131 -5.35258 44.2325 -15.6858 44.3121C-26.1486 44.2121 -31.5286 33.072 -31.8477 4.04324C-31.9478 -42.4533 -17.458 -46.47 0.766262 -46.2619Z"></path>
  <path fill="#91A8EB" transform="matrix(-1.67686 -2.56813e-07 -3.2026e-07 2.09114 352.1 268.32)" d="M21.0756 -49.7886C42.5655 -45.4247 28.2731 -22.7131 17.9342 4.68157C7.59532 32.0762 -11.0858 52.3733 -26.0765 49.3292C-41.0673 46.2851 -45.7181 21.3246 -36.9263 -6.51543C-28.1345 -34.3555 -0.414314 -54.1524 21.0756 -49.7886Z"></path>
  <path fill="none" stroke="black" stroke-width="7" stroke-miterlimit="4" transform="matrix(1.79976 0.0293645 -0.0293645 1.79976 224.933 112.569)" d="M0 -29.5C19.0538 -29.5 34.5 -16.1805 34.5 0.25C34.5 16.6805 19.0538 30 0 30C-19.0538 30 -34.5 16.6805 -34.5 0.25C-34.5 -16.1805 -19.0538 -29.5 0 -29.5Z"></path>
  <path fill="none" stroke="black" stroke-width="9" stroke-miterlimit="4" transform="translate(256 256)" d="M-57.3765 -201.248C-42.5939 -201.007 -30.7788 -190.478 -30.9868 -177.731C-31.1948 -164.983 -43.347 -154.845 -58.1296 -155.086C-72.9122 -155.328 -84.7273 -165.857 -84.5193 -178.604C-84.3113 -191.351 -72.1591 -201.49 -57.3765 -201.248Z"></path>
  <path fill="none" stroke="black" stroke-width="9" stroke-miterlimit="4" transform="translate(256 256)" d="M-72.8895 -186.336C-60.5899 -186.135 -50.7594 -177.375 -50.9325 -166.768C-51.1055 -156.162 -61.2166 -147.727 -73.5162 -147.928C-85.8157 -148.128 -95.6462 -156.889 -95.4732 -167.495C-95.3001 -178.101 -85.1891 -186.537 -72.8895 -186.336Z"></path>
  <path fill="none" stroke="black" stroke-width="9" stroke-miterlimit="4" transform="translate(256 256)" d="M-92.8966 -210.67C-86.2156 -210.561 -80.8757 -205.802 -80.9697 -200.041C-81.0637 -194.28 -86.5559 -189.698 -93.237 -189.807C-99.918 -189.916 -105.258 -194.675 -105.164 -200.436C-105.07 -206.197 -99.5776 -210.779 -92.8966 -210.67Z"></path>
  <path fill="#6C88D9" transform="matrix(1.79976 0.0293645 -0.0293645 1.79976 224.933 112.569)" d="M0 -29.5C19.0538 -29.5 34.5 -16.1805 34.5 0.25C34.5 16.6805 19.0538 30 0 30C-19.0538 30 -34.5 16.6805 -34.5 0.25C-34.5 -16.1805 -19.0538 -29.5 0 -29.5Z"></path>
  <path fill="#6C88D9" transform="matrix(0.775834 0.0126583 -0.0126583 0.775834 198.25 77.6387)" d="M0 -29.5C19.0538 -29.5 34.5 -16.1805 34.5 0.25C34.5 16.6805 19.0538 30 0 30C-19.0538 30 -34.5 16.6805 -34.5 0.25C-34.5 -16.1805 -19.0538 -29.5 0 -29.5Z"></path>
  <path fill="#6C88D9" transform="matrix(0.645518 0.0105321 -0.0105321 0.645518 182.8 88.7068)" d="M0 -29.5C19.0538 -29.5 34.5 -16.1805 34.5 0.25C34.5 16.6805 19.0538 30 0 30C-19.0538 30 -34.5 16.6805 -34.5 0.25C-34.5 -16.1805 -19.0538 -29.5 0 -29.5Z"></path>
  <path fill="#6C88D9" transform="matrix(0.35064 0.00572097 -0.00572097 0.35064 162.935 55.6739)" d="M3.05176e-05 -29.5001C19.0539 -29.5001 34.5 -16.1805 34.5 0.249939C34.5 16.6804 19.0539 29.9999 3.05176e-05 29.9999C-19.0538 29.9999 -34.5 16.6804 -34.5 0.249939C-34.5 -16.1805 -19.0538 -29.5001 3.05176e-05 -29.5001Z"></path>
  <path fill="none" stroke="black" stroke-width="7" stroke-linejoin="round" transform="translate(256 256)" d="M-89.5326 -105.512C-70.0601 -132.234 23.2559 -118.222 39.4899 -115.555"></path>
  <defs>
    <linearGradient id="gradient_0" gradientUnits="userSpaceOnUse" x1="-10.499905" y1="-40.34568" x2="-3.0814617" y2="20.75737">
      <stop offset="0" stop-color="#A1A8AF"></stop>
      <stop offset="0.99830264" stop-color="#242B4A"></stop>
      <stop offset="1" stop-color="#000417"></stop>
    </linearGradient>
  </defs>
  <path fill="url(#gradient_0)" transform="matrix(1.63997 3.39408e-09 -3.39408e-09 1.63997 254.686 165.036)" d="M-53.7932 -8.87113C-40.7768 -26.7335 26.3506 -14.7462 26.3506 -14.7462L53.5854 -9.77639L68.6389 10.0869L-57 14.5C-57 14.5 -53.7932 -8.87113 -53.7932 -8.87113Z"></path>
  <path fill="none" stroke="black" stroke-width="7" stroke-linejoin="round" transform="translate(256 256)" d="M163.968 -68.4372C148.246 -104.758 130.105 -127.955 79.4108 -132.869C58.8715 -83.6565 34.4029 -61.7723 34.4029 -61.7723C34.403 -55.9459 37.1462 -52.6434 44.2977 -52.6434C44.2977 -52.6434 130.104 -39.3596 163.968 -68.4372Z"></path>
  <path fill="#828594" transform="matrix(-1.63997 -2.51022e-07 -2.51022e-07 1.63997 404.666 184.623)" d="M-9.33072 1.7923C0.255683 -20.3552 11.318 -34.4995 42.2294 -37.4963C57.7294 -9.48986 69.6738 5.85638 69.6738 5.85638C69.6737 9.4091 68.001 11.4229 63.6402 11.4229C63.6402 11.4229 11.318 19.5229 -9.33072 1.7923Z"></path>
  <path fill="#6C88D9" transform="matrix(1.79976 0.0293645 -0.0297683 1.82451 266.415 273.311)" d="M0.44561 -80.8406C37.5708 -80.8406 80.6032 -59.9373 80.6032 0.062733C80.6032 41.2079 46.7396 76.2788 0.209624 76.2788C-62.1658 76.2788 -84 60.12 -84 -1.56928e-07C-84 -71.2881 -50.2727 -80.8406 0.44561 -80.8406Z"></path>
  <path fill="#91A8EB" transform="matrix(1.37947 2.85496e-09 -2.85496e-09 1.37947 210.879 346.868)" d="M0.840261 -0.716339C19.0645 -0.508278 32.6766 -1.14446 32.5371 50.349C32.0723 75.8327 24.4243 90.3358 13.9075 90.0668C3.39066 89.7979 -5.24839 89.8993 -15.5816 89.9789C-25.9617 89.9855 -33.344 73.2126 -32.8793 47.7288C-33.0257 -5.97216 -17.3839 -0.924423 0.840261 -0.716339Z"></path>
  <path fill="#91A8EB" transform="matrix(1.50913 0.0246226 -0.0246226 1.50913 266.384 275.199)" d="M0.24998 -81.5196C49.8787 -81.2985 84.5 -60 84.5 0C84.5 41.1452 46.78 74.5 0.25 74.5C-62.1254 74.5 -84 60.12 -84 0C-84 -71.2881 -62.1254 -81.5196 0.24998 -81.5196Z"></path>
  <path fill="#A6B8EF" transform="matrix(0.805953 0.0131497 -0.0151654 0.929491 320.678 240.077)" d="M0.249972 -81.5196C49.8787 -81.2985 84.5 -60 84.5 -1.90735e-06C84.5 41.1452 67.1354 74.5 20.6054 74.5C-41.77 74.5 -84 60.12 -84 -1.90735e-06C-84 -71.2881 -62.1254 -81.5197 0.249972 -81.5196Z"></path>
  <path fill="#C1CBE8" transform="matrix(0.197995 -0.202726 0.445703 0.435301 343.778 191.228)" d="M11.5671 -77.0972C58.0971 -77.0972 97.5959 -41.1452 97.5959 -1.67094e-05C97.5959 41.1452 73.4188 83.0524 26.8888 83.0524C-35.4866 83.0524 11.8086 60.12 11.8086 -1.5431e-05C11.8086 -41.1452 -34.9629 -77.0972 11.5671 -77.0972Z"></path>
  <path fill="#C1CBE8" transform="matrix(0.197995 -0.202726 0.184201 0.179903 388.22 255.584)" d="M48.9301 -79.7642C80.6763 -79.0529 77.4946 -42.8889 62.8508 4.00565C48.2069 50.9001 -0.039359 91.2963 -20.4536 67.777C-40.8678 44.2576 -16.8141 31.8032 -0.45893 -5.13881C15.8962 -42.0808 17.1838 -80.4755 48.9301 -79.7642Z"></path>
  <path fill="none" stroke="black" stroke-width="7" stroke-linecap="round" stroke-linejoin="round" transform="translate(256 256)" d="M50.1217 -131.682C57.4895 -131.425 64.3637 -130.709 70.7759 -129.58"></path>
  <path fill="#91A8EB" transform="matrix(1.79976 0.0293645 -0.0293645 1.79976 224.933 112.569)" d="M0 -22.5C14.6355 -22.5 26.5 -12.3145 26.5 0.25C26.5 12.8145 14.6355 23 0 23C-14.6355 23 -26.5 12.8145 -26.5 0.25C-26.5 -12.3145 -14.6355 -22.5 0 -22.5Z"></path>
  <path fill="#C1CBE8" transform="matrix(-0.166841 -0.570472 0.880441 -0.257495 182.714 116.908)" d="M-3.05176e-05 -11.5C14.6355 -11.5 28.0061 -7.98329 28.0061 -1.63201C28.0061 4.71926 15.5059 0.400182 0.870326 0.400182C-13.7652 0.400181 -26.7661 4.37688 -26.7661 -1.97439C-26.7661 -8.32566 -14.6356 -11.5 -3.05176e-05 -11.5Z"></path>
  <path fill="#999CA8" transform="matrix(1.63997 3.39408e-09 -3.39408e-09 1.63997 188.317 129.486)" d="M62.2777 -1.11982C160.037 -6.83146 133.382 106.511 133.382 106.511C124.858 120.697 103.931 125.217 103.931 125.217C99.8122 122.738 97.0384 114.991 97.0384 114.991C97.0384 114.991 92.571 122.978 80.9884 132.097C33.5051 142.01 -40.0389 126.614 -41.66 116.833C-51.8317 89.8804 -42.4754 41.613 -40.0228 35.3241C-37.5701 29.0351 -23.4335 12.2991 -23.4335 12.2991L-3.96149 -3.64613C-3.96149 -3.64613 28.6909 8.70726 69.7818 7.76566C67.3158 -2.81972 62.2777 -1.11982 62.2777 -1.11982Z"></path>
  <clipPath id="cl_247">
    <path d="M290.451 127.65C450.773 118.283 407.06 304.161 407.06 304.161C393.08 327.426 358.762 334.839 358.762 334.839C352.006 330.772 347.457 318.068 347.457 318.068C347.457 318.068 340.131 331.166 321.136 346.122C243.265 362.378 122.655 337.129 119.997 321.088C103.315 276.887 118.659 197.73 122.681 187.417C126.704 177.103 149.887 149.656 149.887 149.656L181.821 123.507C181.821 123.507 235.37 143.766 302.757 142.222C298.713 124.862 290.451 127.65 290.451 127.65Z"></path>
  </clipPath>
  <g clip-path="url(#cl_247)">
    <path fill="#686B77" transform="matrix(1.78416 3.69251e-09 -3.42908e-09 1.65688 275.928 238.742)" d="M-5.81434 -76.9003C-5.81434 -76.9003 -38.015 -34.4167 -37.875 19.4009C-37.7351 73.2184 27.8948 68.4574 27.8948 68.4574L-79.1489 92.4107L-102.257 16.7671L-83.3847 -74.5391L-5.81434 -76.9003Z"></path>
    <path fill="#BCBFC5" transform="matrix(1.78416 3.69251e-09 -3.42908e-09 1.65688 275.928 238.742)" d="M45.4521 -82.9725L93.7889 -50.8112C93.7889 -50.8112 78.8995 -3.97774 47.484 1.7428C16.0686 7.46333 -45.8161 -37.4435 -45.8161 -37.4435L-73.0634 -72.0992L45.4521 -82.9725Z"></path>
    <path fill="#DADDE0" transform="matrix(1.78416 3.69251e-09 -3.42908e-09 1.65688 305.448 118.205)" d="M33.8967 14.5768L59.8776 19.1892C59.8776 19.1892 48.6614 51.4509 28.5602 52.2698C8.45895 53.0887 -29.101 32.4093 -29.101 32.4093C-29.101 32.4093 17.1176 36.5863 22.2728 36.8407C27.4281 37.0951 33.8967 14.5768 33.8967 14.5768Z"></path>
    <path fill="none" stroke="#494B53" stroke-width="1" stroke-linejoin="round" transform="matrix(1.78416 3.69251e-09 -3.42908e-09 1.65688 237.628 238.802)" d="M59.9289 52.7444C57.3564 60.3316 54.1158 68.2952 50.1158 76.6343C16.1594 77.1498 -25.2378 65.559 -25.2378 65.559C-34.9636 44.2166 -33.6264 3.12168 -31.9909 -19.2678"></path>
    <path fill="none" stroke="#898FA2" stroke-width="1" stroke-linejoin="round" transform="matrix(1.78416 3.69251e-09 -3.42908e-09 1.65688 237.628 238.802)" d="M-52.5751 -90.6465C-52.5751 -90.6465 29.9049 -60.6268 29.9049 -60.6268C47.3122 -58.4025 83.4637 -21.4663 61.0933 49.1929"></path>
  </g>
  <defs>
    <linearGradient id="gradient_1" gradientUnits="userSpaceOnUse" x1="-60.30225" y1="-15.24908" x2="-29.287821" y2="-15.24908">
      <stop offset="0" stop-color="#42444C"></stop>
      <stop offset="0.99602401" stop-color="#161823"></stop>
      <stop offset="1" stop-color="black"></stop>
    </linearGradient>
  </defs>
  <path fill="url(#gradient_1)" transform="matrix(2.06931 4.28265e-09 -3.39408e-09 1.63997 280.824 235.462)" d="M-58.1232 -38.8393C-54.5001 -50.2495 -36.6337 -48.5811 -31.9012 -38.5612C-27.1688 -28.5414 -29.2878 -16.904 -29.2878 -16.904C-37.342 10.4732 -59.3233 2.22359 -60.3022 -21.2052C-60.3022 -21.2052 -61.7464 -27.4291 -58.1232 -38.8393Z"></path>
  <path fill="#91A8EB" transform="matrix(0.606874 0.00990163 -0.00990163 0.606874 198.25 79.8458)" d="M-7.62939e-06 -22.5C14.6355 -22.5 26.5 -12.3145 26.5 0.25C26.5 12.8145 14.6355 23 -7.62939e-06 23C-14.6356 23 -26.5 12.8145 -26.5 0.25C-26.5 -12.3145 -14.6356 -22.5 -7.62939e-06 -22.5Z"></path>
  <path fill="#91A8EB" transform="matrix(0.504938 0.00823846 -0.00823846 0.504938 182.8 90.5432)" d="M-4.23752e-08 -22.5C14.6355 -22.5 26.5 -12.3145 26.5 0.25C26.5 12.8145 14.6355 23 4.23752e-08 23C-14.6355 23 -26.5 12.8145 -26.5 0.25C-26.5 -12.3145 -14.6355 -22.5 -4.23752e-08 -22.5Z"></path>
  <path fill="#91A8EB" transform="matrix(0.274279 0.00447507 -0.00447507 0.274279 163.931 57.7566)" d="M3.05176e-05 -22.4261C14.2962 -22.4261 25.8855 -12.274 25.8855 0.249268C25.8855 12.7726 14.2962 22.9247 3.05176e-05 22.9247C-14.2961 22.9247 -25.8855 12.7726 -25.8855 0.249268C-25.8855 -12.274 -14.2961 -22.4261 3.05176e-05 -22.4261Z"></path>
  <path fill="#C1CBE8" transform="matrix(0.073816 -0.11483 0.26388 0.16963 160.179 55.1464)" d="M0 -11.5C14.6355 -11.5 28.0061 -7.98328 28.0061 -1.63201C28.0061 4.71926 15.5059 0.400185 0.870356 0.400186C-13.7652 0.400185 -26.766 4.37689 -26.766 -1.97439C-26.766 -8.32566 -14.6355 -11.5 0 -11.5Z"></path>
  <path fill="#1B2B56" transform="matrix(1.78669 -0.21848 0.065544 0.536007 236.609 89.9462)" d="M1.69501e-07 -2.5C1.38071 -2.5 2.5 -1.38071 2.5 0C2.5 1.38071 1.38071 2.5 1.88127e-07 2.5C-1.38071 2.5 -2.5 1.38071 -2.5 0C-2.5 -1.38071 -1.38071 -2.5 1.69501e-07 -2.5Z"></path>
  <path fill="none" stroke="#1B2B56" stroke-width="0.5" stroke-linecap="round" stroke-linejoin="round" transform="matrix(1.78289 -0.247598 0.247598 1.78289 245.253 88.8345)" d="M1.98548 0.277981L6.02909 0.184244"></path>
  <path fill="#1B2B56" transform="matrix(1.78669 -0.21848 0.065544 0.536007 265.196 86.4504)" d="M1.89804e-06 -2.5C1.38071 -2.5 2.5 -1.38071 2.5 0C2.5 1.38071 1.38071 2.5 1.91666e-06 2.5C-1.38071 2.5 -2.5 1.38071 -2.5 0C-2.5 -1.38071 -1.38071 -2.5 1.89804e-06 -2.5Z"></path>
  <path fill="#354B89" transform="matrix(1.46507 -0.885005 0.929571 0.72522 256.973 79.5184)" d="M0 -2.49998C1.38071 -2.49998 2.5 -1.3807 2.5 1.54078e-05C2.5 1.38073 1.38071 2.50002 0 2.50002C-1.38071 2.50002 -2.5 1.38073 -2.5 1.51098e-05C-2.5 -1.3807 -1.38071 -2.49998 0 -2.49998Z"></path>
  <path fill="#354B89" transform="matrix(2.16254 0.296937 -0.629837 1.0733 241.001 80.4579)" d="M0 -2.98532C1.68306 -2.98532 3.04744 -1.64874 3.04744 1.5168e-05C3.04744 1.64877 1.68306 2.98535 0 2.98535C-1.68306 2.98535 -3.04744 1.64877 -3.04744 1.53496e-05C-3.04744 -1.64874 -1.68306 -2.98532 0 -2.98532Z"></path>
  <path fill="none" stroke="black" stroke-width="7" stroke-linecap="round" stroke-linejoin="round" transform="matrix(2.15345 4.45679e-09 -4.42021e-09 2.13577 150.198 283.697)" d="M22.1178 -23.8488C21.8979 -17.5963 20.9098 -7.84879 15.7234 6.58962C5.51216 33.5076 -10.2374 53.8388 -33.1654 43.1007C-47.517 36.2674 -47.646 13.0094 -37.4469 -13.8764C-30.1097 -35.1399 -15.2126 -51.1171 -1.45277 -57.1028"></path>
  <path fill="none" stroke="black" stroke-width="7" stroke-linejoin="round" transform="translate(256 256)" d="M-157.595 -64.5792C-161.969 -66.719 -165.952 -69.2386 -169.396 -72.1965C-157.91 -107.861 -121.917 -135.09 -92.3274 -135.874"></path>
  <path fill="#6C88D9" transform="matrix(2.15345 4.45679e-09 -4.42021e-09 2.13577 150.198 283.697)" d="M19.0052 -56.9742C21.1861 -51.7866 23.4646 -35.5907 22.4733 -31.7924C21.482 -27.9941 24.1688 -16.9214 15.7234 6.58962C5.51216 33.5076 -10.2374 53.8388 -33.1654 43.1007C-47.517 36.2674 -47.646 13.0094 -37.4469 -13.8764C-26.0161 -47.0032 3.76333 -67.2994 19.0052 -56.9742Z"></path>
  <path fill="#91A8EB" transform="matrix(1.67686 3.47045e-09 -4.32784e-09 2.09114 154.187 277.984)" d="M19.5576 -50.8556C40.8079 -45.7933 25.7823 -23.1599 13.5133 3.90049C0.969826 30.6873 -20.8799 49.742 -35.4683 45.6285C-50.0566 41.515 -51.3385 17.1716 -40.3022 -10.1405C-29.7197 -37.2881 -1.69275 -55.918 19.5576 -50.8556Z"></path>
  <path fill="#999696" transform="matrix(1.63997 3.39408e-09 -3.39408e-09 1.63997 101.906 180.864)" d="M-9.33072 1.7923C0.255683 -20.3552 11.318 -34.4995 42.2294 -37.4963C57.7294 -9.48985 69.6738 5.85638 69.6738 5.85638C69.6737 9.40911 68.001 11.4229 63.6402 11.4229C63.6402 11.4229 11.318 19.5229 -9.33072 1.7923Z"></path>
  <path fill="#828594" transform="matrix(1.63997 3.39408e-09 -3.39408e-09 1.63997 101.906 180.864)" d="M-9.33072 1.7923C0.255683 -20.3552 11.318 -34.4995 42.2294 -37.4963C57.7294 -9.48985 69.6738 5.85638 69.6738 5.85638C69.6737 9.40911 68.001 11.4229 63.6402 11.4229C63.6402 11.4229 11.318 19.5229 -9.33072 1.7923Z"></path>
  <clipPath id="cl_24b">
    <path d="M86.6037 183.803C102.325 147.482 120.467 124.286 171.161 119.371C196.58 165.301 216.168 190.468 216.168 190.468C216.168 196.295 213.425 199.597 206.274 199.597C206.274 199.597 120.467 212.881 86.6037 183.803Z"></path>
  </clipPath>
  <g clip-path="url(#cl_24b)">
    <path fill="#686B77" transform="matrix(1.63997 3.39408e-09 -3.39408e-09 1.63997 101.906 180.864)" d="M-18.5853 15.5755L-13.4615 -44.4622C-13.4615 -44.4622 70.2014 -44.8304 70.2014 -44.8304C29.0482 -45.0949 3.69743 17.5905 3.69743 17.5905L-18.5853 15.5755Z"></path>
  </g>
  <path fill="#42444C" transform="matrix(1.63997 3.39408e-09 -3.39408e-09 1.63997 101.906 180.864)" d="M-9.33072 -5.18063C-9.33072 -5.18063 -8.34054 -14.2229 2.12125 -18.7125C16.6016 -6.181 67.6134 6.22992 67.6134 6.22992L66.536 9.40911C66.536 9.40911 1.13099 9.26387 -9.33072 -5.18063Z"></path>
  <path fill="#4B4949" transform="matrix(1.63997 3.39408e-09 -3.39408e-09 1.63997 212.789 195.283)" d="M1.90735e-06 -12C6.90356 -12 12.5 -6.62741 12.5 3.8147e-06C12.5 6.62742 6.90356 12 1.90735e-06 12C-6.90356 12 -12.5 6.62742 -12.5 3.8147e-06C-12.5 -6.62741 -6.90356 -12 1.90735e-06 -12Z"></path>
  <path fill="#827A7A" transform="matrix(1.63997 3.39408e-09 -3.39408e-09 1.63997 217.709 196.923)" d="M1.90735e-06 -12C6.90356 -12 12.5 -6.62742 12.5 0C12.5 6.62742 6.90356 12 1.90735e-06 12C-6.90356 12 -12.5 6.62742 -12.5 0C-12.5 -6.62742 -6.90356 -12 1.90735e-06 -12Z"></path>
  <path fill="none" stroke="white" stroke-width="5" stroke-linecap="round" stroke-linejoin="round" transform="matrix(1.5 0 0 1.5 158.539 362.24)" d=""></path>
</svg>