<?xml version="1.0" encoding="utf-8"?>
<svg xmlns="http://www.w3.org/2000/svg" xmlns:xlink="http://www.w3.org/1999/xlink" width="512" height="512">
  <path fill="none" stroke="black" stroke-width="7" stroke-linejoin="round" transform="matrix(1.8 3.72529e-09 -3.72529e-09 1.8 210.879 409.868)" d="M3.86007 -46.3366C22.0841 -46.1172 34.6239 -38.7095 34.4102 5.57947C34.7115 34.5954 27.3571 44.6089 16.8404 44.3334C6.32378 44.0578 -2.31527 44.154 -12.6485 44.2271C-23.1113 44.1205 -28.4843 32.9771 -28.7853 3.9481C-28.8564 -42.5485 -14.364 -46.5561 3.86007 -46.3366Z"></path>
  <path fill="none" stroke="black" stroke-width="7" stroke-linejoin="round" transform="matrix(1.79976 0.0293645 -0.0298671 1.83057 266.48 275.195)" d="M0.209625 -80.0966C37.3348 -80.0966 80.6639 -60.1508 80.6639 -0.150773C80.6639 40.9944 46.7396 76.2788 0.209625 76.2788C-62.1658 76.2788 -84 60.12 -84 9.53674e-07C-84 -71.2881 -50.5087 -80.0966 0.209625 -80.0966Z"></path>
  <path fill="none" stroke="black" stroke-width="7" stroke-linejoin="round" transform="matrix(-2.15345 -3.29802e-07 -3.27096e-07 2.13577 356.147 276.38)" d="M19.9242 -56.1734C22.3752 -51.1098 25.5034 -35.0588 24.7135 -31.2128C23.9236 -27.3668 26.5442 -17.7663 20.654 5.86825C13.9641 33.9597 5.21652 55.7612 -19.4024 49.9671C-34.8351 46.2309 -41.537 20.5227 -34.8472 -7.56872C-26.46 -42.7873 4.16014 -65.6681 19.9242 -56.1734Z"></path>
  <path fill="none" stroke="black" stroke-width="7" stroke-linejoin="round" transform="matrix(1.53671 3.18039e-09 -3.72529e-09 1.8 308.979 398.168)" d="M-3.89893 -47.7729C14.3247 -47.9886 29.8082 -41.2624 30.4225 8.30946C31.0311 22.1552 25.1401 45.9309 11.4619 45.9088C-2.21628 45.8867 -8.35188 45.8768 -20.5539 45.8571C-32.7559 45.8374 -34.9626 22.9363 -35.5711 9.09055C-36.5319 -42.6682 -22.1226 -47.5572 -3.89893 -47.7729Z"></path>
  <path fill="#6C88D9" transform="matrix(-2.15345 -3.29802e-07 -3.27096e-07 2.13577 356.147 276.38)" d="M19.9242 -56.1734C22.3752 -51.1098 25.5034 -35.0588 24.7135 -31.2128C23.9236 -27.3668 26.5442 -17.7663 20.654 5.86825C13.9641 33.9597 5.21652 55.7612 -19.4024 49.9671C-34.8351 46.2309 -41.537 20.5227 -34.8472 -7.56872C-26.46 -42.7873 4.16014 -65.6681 19.9242 -56.1734Z"></path>
  <path fill="#5170C8" transform="matrix(1.53671 3.18039e-09 -3.72529e-09 1.8 308.979 398.168)" d="M-3.89893 -47.7729C14.3247 -47.9886 29.8082 -41.2624 30.4225 8.30946C31.0311 22.1552 25.1401 45.9309 11.4619 45.9088C-2.21628 45.8867 -8.35188 45.8768 -20.5539 45.8571C-32.7559 45.8374 -34.9626 22.9363 -35.5711 9.09055C-36.5319 -42.6682 -22.1226 -47.5572 -3.89893 -47.7729Z"></path>
  <path fill="#839BE0" transform="matrix(1.20328 2.49031e-09 -2.91698e-09 1.40944 308.979 398.168)" d="M-4.77301 -48.3049C13.4506 -48.5206 28.3838 -41.7043 29.1981 12.3581C28.9825 30.2921 20.244 45.4566 6.56577 45.4345C-7.11241 45.4125 -6.93761 45.4633 -19.1396 45.4436C-31.3416 45.4239 -37.0113 31.0732 -36.7955 13.1392C-37.9564 -43.1101 -22.9967 -48.0892 -4.77301 -48.3049Z"></path>
  <path fill="#6C88D9" transform="matrix(1.8 3.72529e-09 -3.72529e-09 1.8 210.879 409.868)" d="M3.86007 -46.3366C22.0841 -46.1172 34.6239 -38.7095 34.4102 5.57947C34.7115 34.5954 27.3571 44.6089 16.8404 44.3334C6.32378 44.0578 -2.31527 44.154 -12.6485 44.2271C-23.1113 44.1205 -28.4843 32.9771 -28.7853 3.9481C-28.8564 -42.5485 -14.364 -46.5561 3.86007 -46.3366Z"></path>
  <path fill="#91A8EB" transform="matrix(-1.67686 -2.56813e-07 -3.2026e-07 2.09114 352.157 270.666)" d="M21.046 -49.9391C42.6016 -45.7886 28.6605 -22.9371 18.7449 4.55805C8.8292 32.0532 -9.53754 52.5339 -24.5742 49.6387C-39.6107 46.7434 -44.6459 21.831 -36.2841 -6.0941C-27.9223 -34.0192 -0.50956 -54.0895 21.046 -49.9391Z"></path>
  <path fill="none" stroke="black" stroke-width="7" stroke-miterlimit="4" transform="matrix(1.79976 0.0293645 -0.0293645 1.79976 224.99 115.383)" d="M1.90735e-06 -29.5C19.0538 -29.5 34.5 -16.1805 34.5 0.25C34.5 16.6805 19.0538 30 1.90735e-06 30C-19.0538 30 -34.5 16.6805 -34.5 0.25C-34.5 -16.1805 -19.0538 -29.5 1.90735e-06 -29.5Z"></path>
  <path fill="none" stroke="black" stroke-width="9" stroke-miterlimit="4" transform="translate(256 256)" d="M-57.3193 -198.434C-42.5367 -198.193 -30.7216 -187.663 -30.9296 -174.916C-31.1376 -162.169 -43.2898 -152.031 -58.0724 -152.272C-72.855 -152.513 -84.6701 -163.042 -84.4621 -175.79C-84.2541 -188.537 -72.1019 -198.675 -57.3193 -198.434Z"></path>
  <path fill="none" stroke="black" stroke-width="9" stroke-miterlimit="4" transform="translate(256 256)" d="M-72.8323 -183.521C-60.5327 -183.321 -50.7022 -174.56 -50.8753 -163.954C-51.0483 -153.348 -61.1594 -144.912 -73.4589 -145.113C-85.7585 -145.314 -95.589 -154.075 -95.416 -164.681C-95.2429 -175.287 -85.1319 -183.722 -72.8323 -183.521Z"></path>
  <path fill="none" stroke="black" stroke-width="9" stroke-miterlimit="4" transform="translate(256 256)" d="M-92.8394 -207.855C-86.1583 -207.746 -80.8185 -202.988 -80.9125 -197.227C-81.0065 -191.465 -86.4987 -186.883 -93.1798 -186.992C-99.8608 -187.101 -105.201 -191.86 -105.107 -197.621C-105.013 -203.382 -99.5204 -207.964 -92.8394 -207.855Z"></path>
  <path fill="#6C88D9" transform="matrix(1.79976 0.0293645 -0.0293645 1.79976 224.99 115.383)" d="M1.90735e-06 -29.5C19.0538 -29.5 34.5 -16.1805 34.5 0.25C34.5 16.6805 19.0538 30 1.90735e-06 30C-19.0538 30 -34.5 16.6805 -34.5 0.25C-34.5 -16.1805 -19.0538 -29.5 1.90735e-06 -29.5Z"></path>
  <path fill="#6C88D9" transform="matrix(0.775834 0.0126583 -0.0126583 0.775834 198.307 80.4532)" d="M0 -29.5C19.0538 -29.5 34.5 -16.1805 34.5 0.250015C34.5 16.6805 19.0538 30 0 30C-19.0538 30 -34.5 16.6805 -34.5 0.250015C-34.5 -16.1805 -19.0538 -29.5 0 -29.5Z"></path>
  <path fill="#6C88D9" transform="matrix(0.645518 0.0105321 -0.0105321 0.645518 182.857 91.5213)" d="M7.62939e-06 -29.5C19.0538 -29.5 34.5 -16.1805 34.5 0.25C34.5 16.6805 19.0538 30 7.62939e-06 30C-19.0538 30 -34.5 16.6805 -34.5 0.25C-34.5 -16.1805 -19.0538 -29.5 7.62939e-06 -29.5Z"></path>
  <path fill="#6C88D9" transform="matrix(0.35064 0.00572097 -0.00572097 0.35064 162.992 58.4884)" d="M0 -29.5C19.0538 -29.5 34.5 -16.1805 34.5 0.25C34.5 16.6805 19.0538 30 0 30C-19.0538 30 -34.5 16.6805 -34.5 0.25C-34.5 -16.1805 -19.0538 -29.5 0 -29.5Z"></path>
  <path fill="none" stroke="black" stroke-width="7" stroke-linejoin="round" transform="translate(256 256)" d="M-89.4754 -103.166C-70.0028 -129.888 23.3131 -115.875 39.5471 -113.209"></path>
  <defs>
    <linearGradient id="gradient_0" gradientUnits="userSpaceOnUse" x1="-10.499905" y1="-40.34568" x2="-3.0814617" y2="20.75737">
      <stop offset="0" stop-color="#A1A8AF"></stop>
      <stop offset="0.99830264" stop-color="#242B4A"></stop>
      <stop offset="1" stop-color="#000417"></stop>
    </linearGradient>
  </defs>
  <path fill="url(#gradient_0)" transform="matrix(1.63997 3.39408e-09 -3.39408e-09 1.63997 254.744 167.382)" d="M-53.7932 -8.87112C-40.7768 -26.7335 26.3506 -14.7462 26.3506 -14.7462L53.5854 -9.77638L68.6389 10.0869L-57 14.5C-57 14.5 -53.7932 -8.87112 -53.7932 -8.87112Z"></path>
  <path fill="none" stroke="black" stroke-width="7" stroke-linejoin="round" transform="translate(256 256)" d="M164.025 -65.5341C148.303 -101.855 130.162 -125.052 79.468 -129.966C58.9287 -80.7534 34.4601 -58.8692 34.4601 -58.8692C34.4602 -53.0428 37.2034 -49.7403 44.3549 -49.7403C44.3549 -49.7403 130.162 -36.4565 164.025 -65.5341Z"></path>
  <path fill="#828594" transform="matrix(-1.63997 -2.51022e-07 -2.51022e-07 1.63997 404.723 187.527)" d="M-9.33072 1.7923C0.255683 -20.3552 11.318 -34.4995 42.2294 -37.4963C57.7294 -9.48985 69.6738 5.85638 69.6738 5.85638C69.6737 9.40911 68.001 11.4229 63.6402 11.4229C63.6402 11.4229 11.318 19.5229 -9.33072 1.7923Z"></path>
  <path fill="#6C88D9" transform="matrix(1.79976 0.0293645 -0.0297683 1.82451 266.472 275.657)" d="M0.445611 -80.8406C37.5708 -80.8406 80.6032 -59.9373 80.6032 0.062734C80.6032 41.2079 46.7396 76.2788 0.209625 76.2788C-62.1658 76.2788 -84 60.12 -84 7.96746e-07C-84 -71.2881 -50.2727 -80.8406 0.445611 -80.8406Z"></path>
  <path fill="#91A8EB" transform="matrix(1.37947 2.85496e-09 -2.85496e-09 1.37947 210.879 346.868)" d="M4.8685 -0.814011C23.0926 -0.594559 36.705 -1.22222 36.5334 50.2712C36.0527 75.7546 28.3956 90.2529 17.879 89.9773C7.36234 89.7018 -1.27675 89.7979 -11.61 89.871C-21.9901 89.871 -29.362 73.0936 -28.8813 47.6101C-28.9943 -6.09098 -13.3556 -1.03349 4.8685 -0.814011Z"></path>
  <path fill="#91A8EB" transform="matrix(1.50913 0.0246226 -0.0246226 1.50913 266.441 277.545)" d="M0.24998 -81.5196C49.8787 -81.2985 84.5 -60 84.5 -9.53674e-07C84.5 41.1452 46.78 74.5 0.25 74.5C-62.1254 74.5 -84 60.12 -84 -9.53674e-07C-84 -71.2881 -62.1254 -81.5196 0.24998 -81.5196Z"></path>
  <path fill="#A6B8EF" transform="matrix(0.805953 0.0131497 -0.0151654 0.929491 320.735 242.423)" d="M0.24998 -81.5196C49.8787 -81.2985 84.5 -60 84.5 -9.53674e-07C84.5 41.1452 67.1354 74.5 20.6054 74.5C-41.77 74.5 -84 60.12 -84 -9.53674e-07C-84 -71.2881 -62.1254 -81.5197 0.24998 -81.5196Z"></path>
  <path fill="#C1CBE8" transform="matrix(0.197995 -0.202726 0.445703 0.435301 343.836 193.574)" d="M11.5671 -77.0972C58.0971 -77.0972 97.5959 -41.1452 97.5959 -2.43388e-05C97.5959 41.1452 73.4188 83.0524 26.8888 83.0524C-35.4866 83.0524 11.8086 60.12 11.8086 -2.30604e-05C11.8086 -41.1452 -34.9629 -77.0972 11.5671 -77.0972Z"></path>
  <path fill="#C1CBE8" transform="matrix(0.197995 -0.202726 0.184201 0.179903 388.278 257.93)" d="M48.93 -79.7643C80.6762 -79.053 77.4946 -42.8889 62.8507 4.00562C48.2069 50.9001 -0.03942 91.2963 -20.4536 67.777C-40.8678 44.2576 -16.8141 31.8032 -0.458991 -5.13884C15.8961 -42.0808 17.1838 -80.4756 48.93 -79.7643Z"></path>
  <path fill="none" stroke="black" stroke-width="7" stroke-linecap="round" stroke-linejoin="round" transform="translate(256 256)" d="M50.1789 -128.779C57.5467 -128.522 64.4209 -127.805 70.8331 -126.677"></path>
  <path fill="#91A8EB" transform="matrix(1.79976 0.0293645 -0.0293645 1.79976 224.99 115.383)" d="M1.90735e-06 -22.5C14.6355 -22.5 26.5 -12.3145 26.5 0.25C26.5 12.8145 14.6355 23 1.90735e-06 23C-14.6355 23 -26.5 12.8145 -26.5 0.25C-26.5 -12.3145 -14.6355 -22.5 1.90735e-06 -22.5Z"></path>
  <path fill="#C1CBE8" transform="matrix(-0.166841 -0.570472 0.880441 -0.257495 182.783 119.705)" d="M0 -11.5C14.6355 -11.5 28.0061 -7.98328 28.0061 -1.63201C28.0061 4.71927 15.5059 0.400186 0.870357 0.400186C-13.7652 0.400184 -26.766 4.37689 -26.766 -1.97439C-26.766 -8.32566 -14.6355 -11.5 0 -11.5Z"></path>
  <path fill="#999CA8" transform="matrix(1.63997 3.39408e-09 -3.39408e-09 1.63997 188.375 132.389)" d="M62.288 -1.45071C159.984 -6.50791 133.382 106.511 133.382 106.511C124.858 120.697 103.931 125.217 103.931 125.217C99.8122 122.738 97.0384 114.991 97.0384 114.991C97.0384 114.991 92.571 122.978 80.9884 132.097C33.5051 142.01 -40.0389 126.614 -41.66 116.833C-51.8317 89.8804 -42.4754 41.613 -40.0228 35.3241C-37.5701 29.0351 -23.4335 12.2991 -23.4335 12.2991L-3.96149 -3.64613C-3.96149 -3.64613 28.6909 8.70726 69.7818 7.76566C67.3158 -2.81972 62.288 -1.45071 62.288 -1.45071Z"></path>
  <clipPath id="cl_224">
    <path d="M290.525 130.01C450.743 121.717 407.117 307.064 407.117 307.064C393.137 330.329 358.819 337.742 358.819 337.742C352.063 333.675 347.514 320.971 347.514 320.971C347.514 320.971 340.188 334.069 321.193 349.025C243.322 365.281 122.712 340.032 120.054 323.991C103.372 279.79 118.716 200.633 122.739 190.32C126.761 180.006 149.944 152.56 149.944 152.56L181.878 126.41C181.878 126.41 235.427 146.669 302.814 145.125C298.77 127.765 290.525 130.01 290.525 130.01Z"></path>
  </clipPath>
  <g clip-path="url(#cl_224)">
    <path fill="#686B77" transform="matrix(1.78416 3.69251e-09 -3.42908e-09 1.65688 275.985 241.645)" d="M-5.81434 -76.9003C-5.81434 -76.9003 -38.015 -34.4167 -37.875 19.4009C-37.7351 73.2184 27.8948 68.4574 27.8948 68.4574L-79.1489 92.4107L-102.257 16.7671L-83.3847 -74.5391L-5.81434 -76.9003Z"></path>
    <path fill="#BCBFC5" transform="matrix(1.78416 3.69251e-09 -3.42908e-09 1.65688 275.985 241.645)" d="M45.4521 -82.9725L93.7889 -50.8112C93.7889 -50.8112 78.8995 -3.97774 47.484 1.7428C16.0686 7.46333 -45.8161 -37.4435 -45.8161 -37.4435L-73.0634 -72.0992L45.4521 -82.9725Z"></path>
    <path fill="#DADDE0" transform="matrix(1.78416 3.69251e-09 -3.42908e-09 1.65688 305.505 121.108)" d="M33.8967 14.5768L59.8776 19.1892C59.8776 19.1892 48.6614 51.4509 28.5602 52.2698C8.45895 53.0887 -29.101 32.4093 -29.101 32.4093C-29.101 32.4093 17.1176 36.5863 22.2728 36.8407C27.4281 37.0951 33.8967 14.5768 33.8967 14.5768Z"></path>
    <path fill="none" stroke="#494B53" stroke-width="1" stroke-linejoin="round" transform="matrix(1.78416 3.69251e-09 -3.42908e-09 1.65688 237.685 241.705)" d="M59.9289 52.7444C57.3564 60.3316 54.1158 68.2952 50.1158 76.6343C16.1594 77.1498 -25.2378 65.559 -25.2378 65.559C-34.9636 44.2166 -33.6264 3.12165 -31.9909 -19.2678"></path>
    <path fill="none" stroke="#898FA2" stroke-width="1" stroke-linejoin="round" transform="matrix(1.78416 3.69251e-09 -3.42908e-09 1.65688 237.685 241.705)" d="M-52.5751 -90.6465C-52.5751 -90.6465 29.9049 -60.6268 29.9049 -60.6268C47.3122 -58.4025 83.4637 -21.4663 61.0933 49.1929"></path>
  </g>
  <defs>
    <linearGradient id="gradient_1" gradientUnits="userSpaceOnUse" x1="-60.30225" y1="-15.24908" x2="-29.287821" y2="-15.24908">
      <stop offset="0" stop-color="#42444C"></stop>
      <stop offset="0.99602401" stop-color="#161823"></stop>
      <stop offset="1" stop-color="black"></stop>
    </linearGradient>
  </defs>
  <path fill="url(#gradient_1)" transform="matrix(2.06931 4.28265e-09 -3.39408e-09 1.63997 280.881 238.366)" d="M-58.1232 -38.8393C-54.5001 -50.2495 -36.6337 -48.5811 -31.9012 -38.5612C-27.1688 -28.5414 -29.2878 -16.904 -29.2878 -16.904C-37.342 10.4732 -59.3233 2.22359 -60.3022 -21.2052C-60.3022 -21.2052 -61.7464 -27.4291 -58.1232 -38.8393Z"></path>
  <path fill="#91A8EB" transform="matrix(0.606874 0.00990163 -0.00990163 0.606874 198.307 82.6603)" d="M7.62939e-06 -22.5C14.6356 -22.5 26.5 -12.3145 26.5 0.25C26.5 12.8145 14.6356 23 7.62939e-06 23C-14.6355 23 -26.5 12.8145 -26.5 0.25C-26.5 -12.3145 -14.6355 -22.5 7.62939e-06 -22.5Z"></path>
  <path fill="#91A8EB" transform="matrix(0.504938 0.00823846 -0.00823846 0.504938 182.857 93.3577)" d="M1.52164e-05 -22.5C14.6356 -22.5 26.5 -12.3145 26.5 0.25C26.5 12.8145 14.6356 23 1.53012e-05 23C-14.6355 23 -26.5 12.8145 -26.5 0.25C-26.5 -12.3145 -14.6355 -22.5 1.52164e-05 -22.5Z"></path>
  <path fill="#91A8EB" transform="matrix(0.274279 0.00447507 -0.00447507 0.274279 163.988 60.5711)" d="M0 -22.4262C14.2962 -22.4262 25.8855 -12.2741 25.8855 0.249207C25.8855 12.7725 14.2962 22.9246 0 22.9246C-14.2962 22.9246 -25.8855 12.7725 -25.8855 0.249207C-25.8855 -12.2741 -14.2962 -22.4262 0 -22.4262Z"></path>
  <path fill="#C1CBE8" transform="matrix(0.073816 -0.11483 0.26388 0.16963 160.248 57.9433)" d="M0 -11.5001C14.6355 -11.5001 28.0061 -7.98334 28.0061 -1.63207C28.0061 4.7192 15.5059 0.400124 0.870356 0.400125C-13.7652 0.400124 -26.766 4.37683 -26.766 -1.97445C-26.766 -8.32572 -14.6355 -11.5001 0 -11.5001Z"></path>
  <path fill="#1B2B56" transform="matrix(1.78669 -0.21848 0.065544 0.536007 236.08 93.6397)" d="M9.31323e-09 -2.5C1.38071 -2.5 2.5 -1.38071 2.5 0C2.5 1.38071 1.38071 2.5 2.79397e-08 2.5C-1.38071 2.5 -2.5 1.38071 -2.5 0C-2.5 -1.38071 -1.38071 -2.5 9.31323e-09 -2.5Z"></path>
  <path fill="none" stroke="#1B2B56" stroke-width="0.5" stroke-linecap="round" stroke-linejoin="round" transform="matrix(1.78289 -0.247598 0.247598 1.78289 244.724 92.5281)" d="M1.98548 0.277981L6.02909 0.184244"></path>
  <path fill="#1B2B56" transform="matrix(1.78669 -0.21848 0.065544 0.536007 264.667 90.144)" d="M-9.31323e-09 -2.49997C1.38071 -2.49997 2.5 -1.38068 2.5 3.05176e-05C2.5 1.38074 1.38071 2.50003 9.31323e-09 2.50003C-1.38071 2.50003 -2.5 1.38074 -2.5 3.05176e-05C-2.5 -1.38068 -1.38071 -2.49997 -9.31323e-09 -2.49997Z"></path>
  <path fill="#354B89" transform="matrix(1.46507 -0.885005 0.929571 0.72522 256.445 83.2119)" d="M0 -2.5C1.38071 -2.5 2.5 -1.38071 2.5 1.49012e-07C2.5 1.38071 1.38071 2.5 0 2.5C-1.38071 2.5 -2.5 1.38071 -2.5 -1.49012e-07C-2.5 -1.38071 -1.38071 -2.5 0 -2.5Z"></path>
  <path fill="#354B89" transform="matrix(2.16254 0.296937 -0.629837 1.0733 240.472 84.1514)" d="M3.8147e-06 -2.98532C1.68306 -2.98532 3.04744 -1.64874 3.04744 1.5168e-05C3.04744 1.64877 1.68306 2.98535 3.8147e-06 2.98535C-1.68305 2.98535 -3.04744 1.64877 -3.04744 1.53496e-05C-3.04744 -1.64874 -1.68305 -2.98532 3.8147e-06 -2.98532Z"></path>
  <path fill="none" stroke="black" stroke-width="7" stroke-linecap="round" stroke-linejoin="round" transform="matrix(2.15345 4.45679e-09 -4.42021e-09 2.13577 150.255 286.043)" d="M22.7588 -24.3863C22.7559 -18.1503 22.1123 -8.41387 17.4939 6.16437C8.34997 33.4781 -6.35833 54.4265 -29.731 44.7118C-44.3658 38.5191 -45.591 15.1222 -36.4574 -12.1606C-29.9134 -33.7413 -15.5496 -50.2886 -1.97754 -56.7794"></path>
  <path fill="none" stroke="black" stroke-width="7" stroke-linejoin="round" transform="translate(256 256)" d="M-155.24 -60.6027C-160.523 -62.9599 -165.3 -65.8254 -169.339 -69.2934C-157.865 -104.918 -121.94 -132.126 -92.3697 -132.968"></path>
  <path fill="#6C88D9" transform="matrix(2.15345 4.45679e-09 -4.42021e-09 2.13577 150.255 286.043)" d="M18.4811 -57.3946C20.8442 -52.2887 23.6945 -36.1851 22.8382 -32.3536C21.982 -28.522 25.0308 -17.6261 17.4939 6.16437C8.34997 33.4781 -6.35833 54.4265 -29.731 44.7118C-44.3658 38.5191 -45.591 15.1222 -36.4574 -12.1606C-26.2674 -45.7651 2.88344 -67.1648 18.4811 -57.3946Z"></path>
  <path fill="#91A8EB" transform="matrix(1.67686 3.47045e-09 -4.32784e-09 2.09114 154.245 280.33)" d="M19.0908 -51.2172C40.5529 -46.7662 26.4755 -23.7836 15.5086 3.60515C4.30153 30.773 -16.3291 50.538 -31.1283 46.9411C-45.9274 43.3443 -48.6402 18.9337 -38.9652 -8.71098C-29.662 -36.2064 -2.37123 -55.6682 19.0908 -51.2172Z"></path>
  <path fill="#999696" transform="matrix(1.63997 3.39408e-09 -3.39408e-09 1.63997 101.963 183.767)" d="M-9.33072 1.7923C0.255683 -20.3552 11.318 -34.4995 42.2294 -37.4963C57.7294 -9.48985 69.6738 5.85638 69.6738 5.85638C69.6737 9.40911 68.001 11.4229 63.6402 11.4229C63.6402 11.4229 11.318 19.5229 -9.33072 1.7923Z"></path>
  <path fill="#828594" transform="matrix(1.63997 3.39408e-09 -3.39408e-09 1.63997 101.963 183.767)" d="M-9.33072 1.7923C0.255683 -20.3552 11.318 -34.4995 42.2294 -37.4963C57.7294 -9.48985 69.6738 5.85638 69.6738 5.85638C69.6737 9.40911 68.001 11.4229 63.6402 11.4229C63.6402 11.4229 11.318 19.5229 -9.33072 1.7923Z"></path>
  <clipPath id="cl_228">
    <path d="M86.6609 186.707C102.382 150.385 120.524 127.189 171.218 122.275C196.637 168.204 216.226 193.372 216.226 193.372C216.226 199.198 213.482 202.5 206.331 202.5C206.331 202.5 120.524 215.784 86.6609 186.707Z"></path>
  </clipPath>
  <g clip-path="url(#cl_228)">
    <path fill="#686B77" transform="matrix(1.63997 3.39408e-09 -3.39408e-09 1.63997 101.963 183.767)" d="M-18.5853 15.5755L-13.4615 -44.4622C-13.4615 -44.4622 70.2014 -44.8304 70.2014 -44.8304C29.0482 -45.0949 3.69743 17.5905 3.69743 17.5905L-18.5853 15.5755Z"></path>
  </g>
  <path fill="#42444C" transform="matrix(1.63997 3.39408e-09 -3.39408e-09 1.63997 101.963 183.767)" d="M-9.33072 -5.18063C-9.33072 -5.18063 -8.34054 -14.2229 2.12125 -18.7125C16.6016 -6.181 67.6134 6.22992 67.6134 6.22992L66.536 9.40911C66.536 9.40911 1.13099 9.26387 -9.33072 -5.18063Z"></path>
  <path fill="#4B4949" transform="matrix(1.63997 3.39408e-09 -3.39408e-09 1.63997 212.847 198.186)" d="M1.90735e-06 -12C6.90356 -12 12.5 -6.62742 12.5 0C12.5 6.62742 6.90356 12 1.90735e-06 12C-6.90356 12 -12.5 6.62742 -12.5 0C-12.5 -6.62742 -6.90356 -12 1.90735e-06 -12Z"></path>
  <path fill="#827A7A" transform="matrix(1.63997 3.39408e-09 -3.39408e-09 1.63997 217.767 199.826)" d="M0 -12C6.90356 -12 12.5 -6.62741 12.5 3.8147e-06C12.5 6.62742 6.90356 12 0 12C-6.90356 12 -12.5 6.62742 -12.5 3.8147e-06C-12.5 -6.62741 -6.90356 -12 0 -12Z"></path>
  <path fill="none" stroke="white" stroke-width="5" stroke-linecap="round" stroke-linejoin="round" transform="matrix(1.5 0 0 1.5 158.539 362.24)" d=""></path>
</svg>