<?xml version="1.0" encoding="utf-8"?>
<svg xmlns="http://www.w3.org/2000/svg" xmlns:xlink="http://www.w3.org/1999/xlink" width="512" height="512">
  <path fill="none" stroke="black" stroke-width="7" stroke-linejoin="round" transform="matrix(1.8 3.72529e-09 -3.72529e-09 1.8 210.879 409.868)" d="M0.428194 -46.2537C18.6524 -46.0469 31.1973 -38.6479 31.0143 5.6412C31.3357 34.6569 23.9882 44.6756 13.4714 44.4073C2.95457 44.139 -5.68444 44.2411 -16.0176 44.3214C-26.4805 44.2221 -31.8613 33.0824 -32.1823 4.05364C-32.2857 -42.4428 -17.796 -46.4605 0.428194 -46.2537Z"></path>
  <path fill="none" stroke="black" stroke-width="7" stroke-linejoin="round" transform="matrix(1.79976 0.0293645 -0.0298671 1.83057 266.416 272.595)" d="M0.209625 -80.0966C37.3348 -80.0966 80.6639 -60.1508 80.6639 -0.150774C80.6639 40.9944 46.7396 76.2788 0.209625 76.2788C-62.1658 76.2788 -84 60.12 -84 0C-84 -71.2881 -50.5087 -80.0966 0.209625 -80.0966Z"></path>
  <path fill="none" stroke="black" stroke-width="7" stroke-linejoin="round" transform="matrix(-2.15345 -3.29802e-07 -3.27096e-07 2.13577 356.083 273.779)" d="M20.0122 -55.9862C22.394 -50.8892 25.3036 -34.7964 24.4614 -30.9617C23.6193 -27.127 26.109 -17.4912 19.8978 6.05968C12.8265 34.056 3.78307 55.7345 -20.7547 49.6005C-36.1351 45.6511 -42.4866 19.8527 -35.4153 -8.14359C-26.5499 -43.2428 4.37869 -65.698 20.0122 -55.9862Z"></path>
  <path fill="none" stroke="black" stroke-width="7" stroke-linejoin="round" transform="matrix(1.53671 3.18039e-09 -3.72529e-09 1.8 308.979 398.168)" d="M-0.425152 -47.8462C17.7983 -48.0728 33.2873 -41.3558 33.9423 8.21566C34.562 22.061 28.6906 45.8403 15.0123 45.8263C1.33416 45.8124 -4.80149 45.8061 -17.0035 45.7937C-29.2055 45.7813 -31.431 22.8815 -32.0507 9.03614C-33.0539 -42.7219 -18.6486 -47.6196 -0.425152 -47.8462Z"></path>
  <path fill="#6C88D9" transform="matrix(-2.15345 -3.29802e-07 -3.27096e-07 2.13577 356.083 273.779)" d="M20.0122 -55.9862C22.394 -50.8892 25.3036 -34.7964 24.4614 -30.9617C23.6193 -27.127 26.109 -17.4912 19.8978 6.05968C12.8265 34.056 3.78307 55.7345 -20.7547 49.6005C-36.1351 45.6511 -42.4866 19.8527 -35.4153 -8.14359C-26.5499 -43.2428 4.37869 -65.698 20.0122 -55.9862Z"></path>
  <path fill="#5170C8" transform="matrix(1.53671 3.18039e-09 -3.72529e-09 1.8 308.979 398.168)" d="M-0.425152 -47.8462C17.7983 -48.0728 33.2873 -41.3558 33.9423 8.21566C34.562 22.061 28.6906 45.8403 15.0123 45.8263C1.33416 45.8124 -4.80149 45.8061 -17.0035 45.7937C-29.2055 45.7813 -31.431 22.8815 -32.0507 9.03614C-33.0539 -42.7219 -18.6486 -47.6196 -0.425152 -47.8462Z"></path>
  <path fill="#839BE0" transform="matrix(1.20328 2.49031e-09 -2.91698e-09 1.40944 308.979 398.168)" d="M-0.326221 -48.3987C17.8973 -48.6252 32.836 -41.8178 33.6946 12.2441C33.4935 30.1782 24.7675 45.348 11.0893 45.3341C-2.58898 45.3201 -2.41413 45.3708 -14.6161 45.3584C-26.8181 45.346 -32.4995 30.9987 -32.2983 13.0646C-33.5053 -43.184 -18.5497 -48.1721 -0.326221 -48.3987Z"></path>
  <path fill="#6C88D9" transform="matrix(1.8 3.72529e-09 -3.72529e-09 1.8 210.879 409.868)" d="M0.428194 -46.2537C18.6524 -46.0469 31.1973 -38.6479 31.0143 5.6412C31.3357 34.6569 23.9882 44.6756 13.4714 44.4073C2.95457 44.139 -5.68444 44.2411 -16.0176 44.3214C-26.4805 44.2221 -31.8613 33.0824 -32.1823 4.05364C-32.2857 -42.4428 -17.796 -46.4605 0.428194 -46.2537Z"></path>
  <path fill="#91A8EB" transform="matrix(-1.67686 -2.56813e-07 -3.2026e-07 2.09114 352.094 268.066)" d="M21.0787 -49.7721C42.5613 -45.385 28.2306 -22.6889 17.8456 4.69459C7.46054 32.078 -11.2548 52.3548 -26.2404 49.2944C-41.2261 46.2341 -45.8347 21.2686 -36.996 -6.56185C-28.1573 -34.3923 -0.403824 -54.1592 21.0787 -49.7721Z"></path>
  <path fill="none" stroke="black" stroke-width="7" stroke-miterlimit="4" transform="matrix(1.79976 0.0293645 -0.0293645 1.79976 224.927 112.263)" d="M0 -29.5C19.0538 -29.5 34.5 -16.1805 34.5 0.25C34.5 16.6805 19.0538 30 0 30C-19.0538 30 -34.5 16.6805 -34.5 0.25C-34.5 -16.1805 -19.0538 -29.5 0 -29.5Z"></path>
  <path fill="none" stroke="black" stroke-width="9" stroke-miterlimit="4" transform="translate(256 256)" d="M-57.3827 -201.554C-42.6001 -201.313 -30.785 -190.783 -30.993 -178.036C-31.201 -165.289 -43.3533 -155.151 -58.1359 -155.392C-72.9185 -155.633 -84.7335 -166.162 -84.5255 -178.91C-84.3176 -191.657 -72.1653 -201.795 -57.3827 -201.554Z"></path>
  <path fill="none" stroke="black" stroke-width="9" stroke-miterlimit="4" transform="translate(256 256)" d="M-72.8957 -186.641C-60.5961 -186.441 -50.7656 -177.68 -50.9387 -167.074C-51.1117 -156.468 -61.2228 -148.032 -73.5224 -148.233C-85.8219 -148.434 -95.6524 -157.194 -95.4794 -167.801C-95.3063 -178.407 -85.1953 -186.842 -72.8957 -186.641Z"></path>
  <path fill="none" stroke="black" stroke-width="9" stroke-miterlimit="4" transform="translate(256 256)" d="M-92.9028 -210.975C-86.2218 -210.866 -80.8819 -206.108 -80.9759 -200.346C-81.0699 -194.585 -86.5622 -190.003 -93.2432 -190.112C-99.9242 -190.221 -105.264 -194.98 -105.17 -200.741C-105.076 -206.502 -99.5838 -211.084 -92.9028 -210.975Z"></path>
  <path fill="#6C88D9" transform="matrix(1.79976 0.0293645 -0.0293645 1.79976 224.927 112.263)" d="M0 -29.5C19.0538 -29.5 34.5 -16.1805 34.5 0.25C34.5 16.6805 19.0538 30 0 30C-19.0538 30 -34.5 16.6805 -34.5 0.25C-34.5 -16.1805 -19.0538 -29.5 0 -29.5Z"></path>
  <path fill="#6C88D9" transform="matrix(0.775834 0.0126583 -0.0126583 0.775834 198.244 77.3333)" d="M7.62939e-06 -29.5C19.0538 -29.5 34.5 -16.1805 34.5 0.25C34.5 16.6805 19.0538 30 7.62939e-06 30C-19.0538 30 -34.5 16.6805 -34.5 0.25C-34.5 -16.1805 -19.0538 -29.5 7.62939e-06 -29.5Z"></path>
  <path fill="#6C88D9" transform="matrix(0.645518 0.0105321 -0.0105321 0.645518 182.794 88.4014)" d="M7.62939e-06 -29.5C19.0538 -29.5 34.5 -16.1805 34.5 0.25C34.5 16.6805 19.0538 30 7.62939e-06 30C-19.0538 30 -34.5 16.6805 -34.5 0.25C-34.5 -16.1805 -19.0538 -29.5 7.62939e-06 -29.5Z"></path>
  <path fill="#6C88D9" transform="matrix(0.35064 0.00572097 -0.00572097 0.35064 162.928 55.3685)" d="M0 -29.5C19.0538 -29.5 34.5 -16.1805 34.5 0.25C34.5 16.6805 19.0538 30 0 30C-19.0538 30 -34.5 16.6805 -34.5 0.25C-34.5 -16.1805 -19.0538 -29.5 0 -29.5Z"></path>
  <path fill="none" stroke="black" stroke-width="7" stroke-linejoin="round" transform="translate(256 256)" d="M-89.5388 -105.767C-70.0663 -132.489 23.2496 -118.476 39.4836 -115.81"></path>
  <defs>
    <linearGradient id="gradient_0" gradientUnits="userSpaceOnUse" x1="-10.499905" y1="-40.34568" x2="-3.0814617" y2="20.75737">
      <stop offset="0" stop-color="#A1A8AF"></stop>
      <stop offset="0.99830264" stop-color="#242B4A"></stop>
      <stop offset="1" stop-color="#000417"></stop>
    </linearGradient>
  </defs>
  <path fill="url(#gradient_0)" transform="matrix(1.63997 3.39408e-09 -3.39408e-09 1.63997 254.68 164.781)" d="M-53.7932 -8.87113C-40.7768 -26.7335 26.3506 -14.7462 26.3506 -14.7462L53.5854 -9.77639L68.6389 10.0869L-57 14.5C-57 14.5 -53.7932 -8.87113 -53.7932 -8.87113Z"></path>
  <path fill="none" stroke="black" stroke-width="7" stroke-linejoin="round" transform="translate(256 256)" d="M163.961 -68.7523C148.24 -105.074 130.098 -128.27 79.4046 -133.184C58.8653 -83.9716 34.3967 -62.0873 34.3967 -62.0873C34.3968 -56.261 37.1399 -52.9585 44.2915 -52.9585C44.2915 -52.9585 130.098 -39.6746 163.961 -68.7523Z"></path>
  <path fill="#828594" transform="matrix(-1.63997 -2.51022e-07 -2.51022e-07 1.63997 404.659 184.308)" d="M-9.33072 1.7923C0.255683 -20.3552 11.318 -34.4995 42.2294 -37.4963C57.7294 -9.48986 69.6738 5.85638 69.6738 5.85638C69.6737 9.4091 68.001 11.4229 63.6402 11.4229C63.6402 11.4229 11.318 19.5229 -9.33072 1.7923Z"></path>
  <path fill="#6C88D9" transform="matrix(1.79976 0.0293645 -0.0297683 1.82451 266.409 273.057)" d="M0.445611 -80.8406C37.5708 -80.8406 80.6032 -59.9373 80.6032 0.062734C80.6032 41.2079 46.7396 76.2788 0.209625 76.2788C-62.1658 76.2788 -84 60.12 -84 7.96746e-07C-84 -71.2881 -50.2727 -80.8406 0.445611 -80.8406Z"></path>
  <path fill="#91A8EB" transform="matrix(1.37947 2.85496e-09 -2.85496e-09 1.37947 210.879 346.868)" d="M0.400108 -0.705658C18.6243 -0.498833 32.2363 -1.13594 32.1004 50.3575C31.6374 75.8413 23.9903 90.3449 13.4735 90.0766C2.9567 89.8083 -5.68235 89.9105 -16.0155 89.9907C-26.3956 89.998 -33.7792 73.2256 -33.3161 47.7418C-33.4663 -5.95916 -17.8241 -0.912506 0.400108 -0.705658Z"></path>
  <path fill="#91A8EB" transform="matrix(1.50913 0.0246226 -0.0246226 1.50913 266.378 274.944)" d="M0.24998 -81.5196C49.8787 -81.2985 84.5 -60 84.5 -9.53674e-07C84.5 41.1452 46.78 74.5 0.25 74.5C-62.1254 74.5 -84 60.12 -84 -9.53674e-07C-84 -71.2881 -62.1254 -81.5196 0.24998 -81.5196Z"></path>
  <path fill="#A6B8EF" transform="matrix(0.805953 0.0131497 -0.0151654 0.929491 320.672 239.823)" d="M0.249972 -81.5196C49.8787 -81.2985 84.5 -60 84.5 0C84.5 41.1452 67.1354 74.5 20.6054 74.5C-41.77 74.5 -84 60.12 -84 0C-84 -71.2881 -62.1254 -81.5197 0.249972 -81.5196Z"></path>
  <path fill="#C1CBE8" transform="matrix(0.197995 -0.202726 0.445703 0.435301 343.772 190.973)" d="M11.5671 -77.0972C58.0971 -77.0972 97.5959 -41.1452 97.5959 -1.09873e-05C97.5959 41.1452 73.4188 83.0524 26.8888 83.0524C-35.4866 83.0524 11.8086 60.12 11.8086 -9.70898e-06C11.8086 -41.1452 -34.9629 -77.0972 11.5671 -77.0972Z"></path>
  <path fill="#C1CBE8" transform="matrix(0.197995 -0.202726 0.184201 0.179903 388.214 255.329)" d="M48.93 -79.7643C80.6763 -79.053 77.4946 -42.8889 62.8508 4.00562C48.2069 50.9001 -0.0393895 91.2963 -20.4536 67.777C-40.8678 44.2576 -16.8141 31.8032 -0.458961 -5.13884C15.8962 -42.0808 17.1838 -80.4756 48.93 -79.7643Z"></path>
  <path fill="none" stroke="black" stroke-width="7" stroke-linecap="round" stroke-linejoin="round" transform="translate(256 256)" d="M50.1155 -131.997C57.4833 -131.74 64.3575 -131.024 70.7697 -129.895"></path>
  <path fill="#91A8EB" transform="matrix(1.79976 0.0293645 -0.0293645 1.79976 224.927 112.263)" d="M0 -22.5C14.6355 -22.5 26.5 -12.3145 26.5 0.25C26.5 12.8145 14.6355 23 0 23C-14.6355 23 -26.5 12.8145 -26.5 0.25C-26.5 -12.3145 -14.6355 -22.5 0 -22.5Z"></path>
  <path fill="#C1CBE8" transform="matrix(-0.166841 -0.570472 0.880441 -0.257495 182.705 116.608)" d="M0 -11.5C14.6355 -11.5 28.0061 -7.98328 28.0061 -1.63201C28.0061 4.71927 15.5059 0.400186 0.870357 0.400186C-13.7652 0.400184 -26.766 4.37689 -26.766 -1.97439C-26.766 -8.32566 -14.6355 -11.5 0 -11.5Z"></path>
  <path fill="#999CA8" transform="matrix(1.63997 3.39408e-09 -3.39408e-09 1.63997 188.311 129.171)" d="M62.2766 -1.08392C160.053 -6.98274 133.382 106.511 133.382 106.511C124.858 120.697 103.931 125.217 103.931 125.217C99.8122 122.738 97.0384 114.991 97.0384 114.991C97.0384 114.991 92.571 122.978 80.9884 132.097C33.5051 142.01 -40.0389 126.614 -41.66 116.832C-51.8318 89.8804 -42.4754 41.613 -40.0228 35.324C-37.5701 29.0351 -23.4335 12.2991 -23.4335 12.2991L-3.96149 -3.64614C-3.96149 -3.64614 28.6909 8.70725 69.7818 7.76565C67.3158 -2.81973 62.2766 -1.08392 62.2766 -1.08392Z"></path>
  <clipPath id="cl_251">
    <path d="M290.443 127.394C450.793 117.72 407.054 303.846 407.054 303.846C393.074 327.111 358.755 334.524 358.755 334.524C352 330.457 347.451 317.752 347.451 317.752C347.451 317.752 340.125 330.851 321.13 345.806C243.259 362.063 122.649 336.814 119.99 320.773C103.309 276.572 118.653 197.415 122.675 187.101C126.697 176.788 149.881 149.341 149.881 149.341L181.815 123.192C181.815 123.192 235.363 143.451 302.751 141.907C298.707 124.547 290.443 127.394 290.443 127.394Z"></path>
  </clipPath>
  <g clip-path="url(#cl_251)">
    <path fill="#686B77" transform="matrix(1.78416 3.69251e-09 -3.42908e-09 1.65688 275.922 238.427)" d="M-5.81434 -76.9003C-5.81434 -76.9003 -38.015 -34.4167 -37.875 19.4009C-37.7351 73.2184 27.8948 68.4574 27.8948 68.4574L-79.1489 92.4107L-102.257 16.7671L-83.3847 -74.5391L-5.81434 -76.9003Z"></path>
    <path fill="#BCBFC5" transform="matrix(1.78416 3.69251e-09 -3.42908e-09 1.65688 275.922 238.427)" d="M45.4521 -82.9725L93.7889 -50.8112C93.7889 -50.8112 78.8995 -3.97774 47.484 1.7428C16.0686 7.46333 -45.8161 -37.4435 -45.8161 -37.4435L-73.0634 -72.0992L45.4521 -82.9725Z"></path>
    <path fill="#DADDE0" transform="matrix(1.78416 3.69251e-09 -3.42908e-09 1.65688 305.441 117.89)" d="M33.8967 14.5768L59.8776 19.1892C59.8776 19.1892 48.6614 51.4509 28.5602 52.2698C8.45895 53.0887 -29.101 32.4093 -29.101 32.4093C-29.101 32.4093 17.1176 36.5863 22.2728 36.8407C27.4281 37.0951 33.8967 14.5768 33.8967 14.5768Z"></path>
    <path fill="none" stroke="#494B53" stroke-width="1" stroke-linejoin="round" transform="matrix(1.78416 3.69251e-09 -3.42908e-09 1.65688 237.622 238.487)" d="M59.9289 52.7444C57.3564 60.3316 54.1158 68.2952 50.1158 76.6343C16.1594 77.1498 -25.2378 65.559 -25.2378 65.559C-34.9636 44.2166 -33.6264 3.12168 -31.9909 -19.2678"></path>
    <path fill="none" stroke="#898FA2" stroke-width="1" stroke-linejoin="round" transform="matrix(1.78416 3.69251e-09 -3.42908e-09 1.65688 237.622 238.487)" d="M-52.5751 -90.6465C-52.5751 -90.6465 29.9049 -60.6268 29.9049 -60.6268C47.3122 -58.4025 83.4637 -21.4663 61.0933 49.1929"></path>
  </g>
  <defs>
    <linearGradient id="gradient_1" gradientUnits="userSpaceOnUse" x1="-60.30225" y1="-15.24908" x2="-29.287821" y2="-15.24908">
      <stop offset="0" stop-color="#42444C"></stop>
      <stop offset="0.99602401" stop-color="#161823"></stop>
      <stop offset="1" stop-color="black"></stop>
    </linearGradient>
  </defs>
  <path fill="url(#gradient_1)" transform="matrix(2.06931 4.28265e-09 -3.39408e-09 1.63997 280.818 235.147)" d="M-58.1232 -38.8393C-54.5001 -50.2495 -36.6337 -48.5811 -31.9012 -38.5612C-27.1688 -28.5414 -29.2878 -16.904 -29.2878 -16.904C-37.342 10.4732 -59.3233 2.22359 -60.3022 -21.2052C-60.3022 -21.2052 -61.7464 -27.4291 -58.1232 -38.8393Z"></path>
  <path fill="#91A8EB" transform="matrix(0.606874 0.00990163 -0.00990163 0.606874 198.244 79.5404)" d="M-7.62939e-06 -22.5C14.6355 -22.5 26.5 -12.3145 26.5 0.25C26.5 12.8145 14.6355 23 -7.62939e-06 23C-14.6356 23 -26.5 12.8145 -26.5 0.25C-26.5 -12.3145 -14.6356 -22.5 -7.62939e-06 -22.5Z"></path>
  <path fill="#91A8EB" transform="matrix(0.504938 0.00823846 -0.00823846 0.504938 182.794 90.2378)" d="M-4.23752e-08 -22.5C14.6355 -22.5 26.5 -12.3145 26.5 0.249969C26.5 12.8144 14.6355 23 4.23752e-08 23C-14.6355 23 -26.5 12.8144 -26.5 0.24997C-26.5 -12.3145 -14.6355 -22.5 -4.23752e-08 -22.5Z"></path>
  <path fill="#91A8EB" transform="matrix(0.274279 0.00447507 -0.00447507 0.274279 163.925 57.4512)" d="M3.05176e-05 -22.4261C14.2962 -22.4261 25.8855 -12.274 25.8855 0.249268C25.8855 12.7726 14.2962 22.9247 3.05176e-05 22.9247C-14.2961 22.9247 -25.8855 12.7726 -25.8855 0.249268C-25.8855 -12.274 -14.2961 -22.4261 3.05176e-05 -22.4261Z"></path>
  <path fill="#C1CBE8" transform="matrix(0.073816 -0.11483 0.26388 0.16963 160.169 54.846)" d="M6.10352e-05 -11.5C14.6356 -11.5 28.0061 -7.98328 28.0061 -1.63201C28.0061 4.71926 15.506 0.400185 0.870417 0.400186C-13.7651 0.400185 -26.766 4.37689 -26.766 -1.97439C-26.766 -8.32566 -14.6355 -11.5 6.10352e-05 -11.5Z"></path>
  <path fill="#1B2B56" transform="matrix(1.78669 -0.21848 0.065544 0.536007 236.77 89.3896)" d="M-1.1418e-06 -2.50003C1.38071 -2.50003 2.5 -1.38074 2.5 -3.05176e-05C2.5 1.38068 1.38071 2.49997 -1.12318e-06 2.49997C-1.38071 2.49997 -2.5 1.38068 -2.5 -3.05176e-05C-2.5 -1.38074 -1.38071 -2.50003 -1.1418e-06 -2.50003Z"></path>
  <path fill="none" stroke="#1B2B56" stroke-width="0.5" stroke-linecap="round" stroke-linejoin="round" transform="matrix(1.78289 -0.247598 0.247598 1.78289 245.414 88.278)" d="M1.98548 0.277981L6.02909 0.184244"></path>
  <path fill="#1B2B56" transform="matrix(1.78669 -0.21848 0.065544 0.536007 265.357 85.8938)" d="M-1.91666e-06 -2.50003C1.38071 -2.50003 2.5 -1.38074 2.5 -3.05176e-05C2.5 1.38068 1.38071 2.49997 -1.89804e-06 2.49997C-1.38071 2.49997 -2.5 1.38068 -2.5 -3.05176e-05C-2.5 -1.38074 -1.38071 -2.50003 -1.91666e-06 -2.50003Z"></path>
  <path fill="#354B89" transform="matrix(1.46507 -0.885005 0.929571 0.72522 257.135 78.9618)" d="M7.62939e-06 -2.50002C1.38072 -2.50002 2.50001 -1.38073 2.50001 -1.51098e-05C2.50001 1.3807 1.38072 2.49998 7.62939e-06 2.49998C-1.3807 2.49998 -2.49999 1.3807 -2.49999 -1.54078e-05C-2.49999 -1.38073 -1.3807 -2.50002 7.62939e-06 -2.50002Z"></path>
  <path fill="#354B89" transform="matrix(2.16254 0.296937 -0.629837 1.0733 241.162 79.9013)" d="M-3.8147e-06 -2.98532C1.68305 -2.98532 3.04744 -1.64874 3.04744 1.5168e-05C3.04744 1.64877 1.68305 2.98535 -3.8147e-06 2.98535C-1.68306 2.98535 -3.04744 1.64877 -3.04744 1.53496e-05C-3.04744 -1.64874 -1.68306 -2.98532 -3.8147e-06 -2.98532Z"></path>
  <path fill="none" stroke="black" stroke-width="7" stroke-linecap="round" stroke-linejoin="round" transform="matrix(2.15345 4.45679e-09 -4.42021e-09 2.13577 150.191 283.443)" d="M22.0465 -23.7913C21.8028 -17.5378 20.7769 -7.79056 15.5297 6.63059C5.20473 33.5036 -10.6514 53.7658 -33.5297 42.9205C-47.8497 36.0201 -47.8646 12.7773 -37.552 -14.0635C-30.1296 -35.2918 -15.1747 -51.2064 -1.39488 -57.1369"></path>
  <path fill="none" stroke="black" stroke-width="7" stroke-linejoin="round" transform="translate(256 256)" d="M-158.245 -65.2133C-162.367 -67.2834 -166.128 -69.6994 -169.403 -72.5116C-157.912 -108.187 -121.9 -135.422 -92.3052 -136.19"></path>
  <path fill="#6C88D9" transform="matrix(2.15345 4.45679e-09 -4.42021e-09 2.13577 150.191 283.443)" d="M19.0616 -56.9272C21.2223 -51.7309 23.4382 -35.5263 22.4322 -31.7319C21.4262 -27.9375 24.0724 -16.8476 15.5297 6.63059C5.20473 33.5036 -10.6514 53.7658 -33.5297 42.9205C-47.8497 36.0201 -47.8646 12.7773 -37.552 -14.0635C-25.9879 -47.1369 3.85971 -67.3122 19.0616 -56.9272Z"></path>
  <path fill="#91A8EB" transform="matrix(1.67686 3.47045e-09 -4.32784e-09 2.09114 154.181 277.73)" d="M19.6076 -50.8153C40.8331 -45.6865 25.7035 -23.094 13.2947 3.92794C0.608837 30.6713 -21.3652 49.6475 -35.9296 45.4798C-50.4941 41.3121 -51.6266 16.9768 -40.445 -10.297C-29.725 -37.4054 -1.61798 -55.9441 19.6076 -50.8153Z"></path>
  <path fill="#999696" transform="matrix(1.63997 3.39408e-09 -3.39408e-09 1.63997 101.9 180.549)" d="M-9.33072 1.7923C0.255683 -20.3552 11.318 -34.4995 42.2294 -37.4963C57.7294 -9.48985 69.6738 5.85638 69.6738 5.85638C69.6737 9.40911 68.001 11.4229 63.6402 11.4229C63.6402 11.4229 11.318 19.5229 -9.33072 1.7923Z"></path>
  <path fill="#828594" transform="matrix(1.63997 3.39408e-09 -3.39408e-09 1.63997 101.9 180.549)" d="M-9.33072 1.7923C0.255683 -20.3552 11.318 -34.4995 42.2294 -37.4963C57.7294 -9.48985 69.6738 5.85638 69.6738 5.85638C69.6737 9.40911 68.001 11.4229 63.6402 11.4229C63.6402 11.4229 11.318 19.5229 -9.33072 1.7923Z"></path>
  <clipPath id="cl_255">
    <path d="M86.5975 183.488C102.319 147.167 120.461 123.971 171.154 119.056C196.574 164.986 216.162 190.153 216.162 190.153C216.162 195.98 213.419 199.282 206.267 199.282C206.267 199.282 120.461 212.566 86.5975 183.488Z"></path>
  </clipPath>
  <g clip-path="url(#cl_255)">
    <path fill="#686B77" transform="matrix(1.63997 3.39408e-09 -3.39408e-09 1.63997 101.9 180.549)" d="M-18.5853 15.5755L-13.4615 -44.4622C-13.4615 -44.4622 70.2014 -44.8304 70.2014 -44.8304C29.0482 -45.0949 3.69743 17.5905 3.69743 17.5905L-18.5853 15.5755Z"></path>
  </g>
  <path fill="#42444C" transform="matrix(1.63997 3.39408e-09 -3.39408e-09 1.63997 101.9 180.549)" d="M-9.33072 -5.18063C-9.33072 -5.18063 -8.34054 -14.2229 2.12125 -18.7125C16.6016 -6.181 67.6134 6.22992 67.6134 6.22992L66.536 9.40911C66.536 9.40911 1.13099 9.26387 -9.33072 -5.18063Z"></path>
  <path fill="#4B4949" transform="matrix(1.63997 3.39408e-09 -3.39408e-09 1.63997 212.783 194.968)" d="M0 -12C6.90356 -12 12.5 -6.62741 12.5 3.8147e-06C12.5 6.62742 6.90356 12 0 12C-6.90356 12 -12.5 6.62742 -12.5 3.8147e-06C-12.5 -6.62741 -6.90356 -12 0 -12Z"></path>
  <path fill="#827A7A" transform="matrix(1.63997 3.39408e-09 -3.39408e-09 1.63997 217.703 196.608)" d="M0 -12C6.90356 -12 12.5 -6.62741 12.5 3.8147e-06C12.5 6.62742 6.90356 12 0 12C-6.90356 12 -12.5 6.62742 -12.5 3.8147e-06C-12.5 -6.62741 -6.90356 -12 0 -12Z"></path>
  <path fill="none" stroke="white" stroke-width="5" stroke-linecap="round" stroke-linejoin="round" transform="matrix(1.5 0 0 1.5 158.539 362.24)" d=""></path>
</svg>