<?xml version="1.0" encoding="utf-8"?>
<svg xmlns="http://www.w3.org/2000/svg" xmlns:xlink="http://www.w3.org/1999/xlink" width="512" height="512">
  <path fill="none" stroke="black" stroke-width="7" stroke-linejoin="round" transform="matrix(1.8 3.72529e-09 -3.72529e-09 1.8 210.879 409.868)" d="M45.4965 -47.3425C63.7181 -46.9719 76.196 -39.4606 75.6152 4.8251C75.676 33.8425 68.2389 43.7948 57.7248 43.4321C47.2109 43.0693 38.5713 43.0939 28.2378 43.0813C17.7762 42.888 12.4958 31.7005 12.4354 2.66998C12.7497 -43.8256 27.2748 -47.713 45.4965 -47.3425Z"></path>
  <path fill="none" stroke="black" stroke-width="7" stroke-linejoin="round" transform="matrix(1.79976 0.0293645 -0.0298671 1.83057 266.884 291.786)" d="M0.209626 -80.0966C37.3348 -80.0966 80.6639 -60.1508 80.6639 -0.150774C80.6639 40.9944 46.7396 76.2788 0.209626 76.2788C-62.1658 76.2788 -84 60.12 -84 0C-84 -71.2881 -50.5087 -80.0966 0.209626 -80.0966Z"></path>
  <path fill="none" stroke="black" stroke-width="7" stroke-linejoin="round" transform="matrix(-2.15345 -3.29802e-07 -3.27096e-07 2.13577 356.551 292.97)" d="M18.6608 -58.336C21.9098 -53.7517 27.6319 -38.445 27.4849 -34.5202C27.3378 -30.5954 31.4994 -21.5653 29.5737 2.72661C27.5916 31.5473 22.5468 54.5087 -2.68399 52.9067C-18.5173 51.7997 -29.3504 27.5662 -27.3683 -1.25452C-24.8833 -37.3874 1.55456 -65.0664 18.6608 -58.336Z"></path>
  <path fill="none" stroke="black" stroke-width="7" stroke-linejoin="round" transform="matrix(1.53671 3.18039e-09 -3.72529e-09 1.8 308.979 398.168)" d="M-52.5611 -46.2557C-35.704 -52.1706 -4.86432 -42.864 2.03645 7.46519C-1.53166 25.0644 -24.6016 51.0886 -36.698 45.6374C-48.7943 40.1861 -54.2204 37.7409 -65.0113 32.8779C-75.8022 28.015 -61.0327 13.5378 -57.9132 5.50967C-65.8767 -37.4021 -69.4183 -40.3408 -52.5611 -46.2557Z"></path>
  <path fill="#6C88D9" transform="matrix(-2.15345 -3.29802e-07 -3.27096e-07 2.13577 356.551 292.97)" d="M18.6608 -58.336C21.9098 -53.7517 27.6319 -38.445 27.4849 -34.5202C27.3378 -30.5954 31.4994 -21.5653 29.5737 2.72661C27.5916 31.5473 22.5468 54.5087 -2.68399 52.9067C-18.5173 51.7997 -29.3504 27.5662 -27.3683 -1.25452C-24.8833 -37.3874 1.55456 -65.0664 18.6608 -58.336Z"></path>
  <path fill="#5170C8" transform="matrix(1.53671 3.18039e-09 -3.72529e-09 1.8 308.979 398.168)" d="M-52.5611 -46.2557C-35.704 -52.1706 -4.86432 -42.864 2.03645 7.46519C-1.53166 25.0644 -24.6016 51.0886 -36.698 45.6374C-48.7943 40.1861 -54.2204 37.7409 -65.0113 32.8779C-75.8022 28.015 -61.0327 13.5378 -57.9132 5.50967C-65.8767 -37.4021 -69.4183 -40.3408 -52.5611 -46.2557Z"></path>
  <path fill="#839BE0" transform="matrix(1.20328 2.49031e-09 -2.91698e-09 1.40944 308.979 398.168)" d="M-61.4678 -47.3201C-44.6107 -53.235 -13.5556 -43.6796 -6.26014 10.729C-12.0319 31.8319 -34.7271 48.8481 -46.8235 43.3968C-58.9199 37.9456 -58.7928 38.0599 -69.5837 33.197C-80.3747 28.3341 -71.533 20.3054 -66.2097 8.77347C-74.5681 -38.2176 -78.325 -41.4051 -61.4678 -47.3201Z"></path>
  <path fill="#6C88D9" transform="matrix(1.8 3.72529e-09 -3.72529e-09 1.8 210.879 409.868)" d="M45.4965 -47.3425C63.7181 -46.9719 76.196 -39.4606 75.6152 4.8251C75.676 33.8425 68.2389 43.7948 57.7248 43.4321C47.2109 43.0693 38.5713 43.0939 28.2378 43.0813C17.7762 42.888 12.4958 31.7005 12.4354 2.66998C12.7497 -43.8256 27.2748 -47.713 45.4965 -47.3425Z"></path>
  <path fill="#91A8EB" transform="matrix(-1.67686 -2.56813e-07 -3.2026e-07 2.09114 352.562 287.257)" d="M20.4245 -51.9256C42.5397 -50.6959 33.512 -26.3082 29.4133 2.12424C25.3146 30.5566 11.4327 53.1942 -3.99426 52.3364C-19.4212 51.4786 -29.5334 27.5792 -27.0559 -1.07082C-24.5785 -29.7208 -1.69058 -53.1553 20.4245 -51.9256Z"></path>
  <path fill="none" stroke="black" stroke-width="7" stroke-miterlimit="4" transform="matrix(1.79976 0.0293645 -0.0293645 1.79976 225.395 135.286)" d="M0 -29.5C19.0538 -29.5 34.5 -16.1805 34.5 0.25C34.5 16.6805 19.0538 30 0 30C-19.0538 30 -34.5 16.6805 -34.5 0.25C-34.5 -16.1805 -19.0538 -29.5 0 -29.5Z"></path>
  <path fill="none" stroke="black" stroke-width="9" stroke-miterlimit="4" transform="translate(256 256)" d="M-56.9147 -178.531C-42.1321 -178.29 -30.3171 -167.76 -30.5251 -155.013C-30.7331 -142.266 -42.8853 -132.127 -57.6679 -132.369C-72.4505 -132.61 -84.2656 -143.139 -84.0576 -155.886C-83.8496 -168.634 -71.6973 -178.772 -56.9147 -178.531Z"></path>
  <path fill="none" stroke="black" stroke-width="9" stroke-miterlimit="4" transform="translate(256 256)" d="M-72.4278 -163.618C-60.1282 -163.418 -50.2977 -154.657 -50.4707 -144.051C-50.6438 -133.445 -60.7548 -125.009 -73.0544 -125.21C-85.354 -125.411 -95.1845 -134.171 -95.0115 -144.777C-94.8384 -155.384 -84.7273 -163.819 -72.4278 -163.618Z"></path>
  <path fill="none" stroke="black" stroke-width="9" stroke-miterlimit="4" transform="translate(256 256)" d="M-92.4349 -187.952C-85.7538 -187.843 -80.414 -183.085 -80.508 -177.323C-80.602 -171.562 -86.0942 -166.98 -92.7753 -167.089C-99.4563 -167.198 -104.796 -171.957 -104.702 -177.718C-104.608 -183.479 -99.1159 -188.061 -92.4349 -187.952Z"></path>
  <path fill="#6C88D9" transform="matrix(1.79976 0.0293645 -0.0293645 1.79976 225.395 135.286)" d="M0 -29.5C19.0538 -29.5 34.5 -16.1805 34.5 0.25C34.5 16.6805 19.0538 30 0 30C-19.0538 30 -34.5 16.6805 -34.5 0.25C-34.5 -16.1805 -19.0538 -29.5 0 -29.5Z"></path>
  <path fill="#6C88D9" transform="matrix(0.775834 0.0126583 -0.0126583 0.775834 198.712 100.356)" d="M7.62939e-06 -29.5C19.0538 -29.5 34.5 -16.1805 34.5 0.25C34.5 16.6805 19.0538 30 7.62939e-06 30C-19.0538 30 -34.5 16.6805 -34.5 0.25C-34.5 -16.1805 -19.0538 -29.5 7.62939e-06 -29.5Z"></path>
  <path fill="#6C88D9" transform="matrix(0.645518 0.0105321 -0.0105321 0.645518 183.262 111.424)" d="M0 -29.5C19.0538 -29.5 34.5 -16.1805 34.5 0.250015C34.5 16.6805 19.0538 30 0 30C-19.0538 30 -34.5 16.6805 -34.5 0.250015C-34.5 -16.1805 -19.0538 -29.5 0 -29.5Z"></path>
  <path fill="#6C88D9" transform="matrix(0.35064 0.00572097 -0.00572097 0.35064 163.396 78.3916)" d="M3.05176e-05 -29.5C19.0539 -29.5 34.5 -16.1805 34.5 0.25C34.5 16.6805 19.0539 30 3.05176e-05 30C-19.0538 30 -34.5 16.6805 -34.5 0.25C-34.5 -16.1805 -19.0538 -29.5 3.05176e-05 -29.5Z"></path>
  <path fill="none" stroke="black" stroke-width="7" stroke-linejoin="round" transform="translate(256 256)" d="M-89.0709 -86.5753C-69.5983 -113.297 23.7176 -99.2846 39.9516 -96.6183"></path>
  <defs>
    <linearGradient id="gradient_0" gradientUnits="userSpaceOnUse" x1="-10.499905" y1="-40.34568" x2="-3.0814617" y2="20.75737">
      <stop offset="0" stop-color="#A1A8AF"></stop>
      <stop offset="0.99830264" stop-color="#242B4A"></stop>
      <stop offset="1" stop-color="#000417"></stop>
    </linearGradient>
  </defs>
  <path fill="url(#gradient_0)" transform="matrix(1.63997 3.39408e-09 -3.39408e-09 1.63997 255.148 183.973)" d="M-53.7932 -8.87113C-40.7768 -26.7335 26.3506 -14.7462 26.3506 -14.7462L53.5854 -9.77639L68.6389 10.0869L-57 14.5C-57 14.5 -53.7932 -8.87113 -53.7932 -8.87113Z"></path>
  <path fill="none" stroke="black" stroke-width="7" stroke-linejoin="round" transform="translate(256 256)" d="M164.429 -45.0043C148.708 -81.3255 130.566 -104.522 79.8725 -109.436C59.3332 -60.2236 34.8647 -38.3393 34.8647 -38.3393C34.8647 -32.513 37.6079 -29.2105 44.7595 -29.2105C44.7595 -29.2105 130.566 -15.9266 164.429 -45.0043Z"></path>
  <path fill="#828594" transform="matrix(-1.63997 -2.51022e-07 -2.51022e-07 1.63997 405.127 208.056)" d="M-9.33072 1.7923C0.255683 -20.3552 11.318 -34.4995 42.2294 -37.4963C57.7294 -9.48985 69.6738 5.85638 69.6738 5.85638C69.6737 9.40911 68.001 11.4229 63.6402 11.4229C63.6402 11.4229 11.318 19.5229 -9.33072 1.7923Z"></path>
  <path fill="#6C88D9" transform="matrix(1.79976 0.0293645 -0.0297683 1.82451 266.877 292.248)" d="M0.445611 -80.8406C37.5708 -80.8406 80.6032 -59.9373 80.6032 0.062733C80.6032 41.2079 46.7396 76.2788 0.209625 76.2788C-62.1658 76.2788 -84 60.12 -84 -1.56928e-07C-84 -71.2881 -50.2727 -80.8406 0.445611 -80.8406Z"></path>
  <path fill="#91A8EB" transform="matrix(1.37947 2.85496e-09 -2.85496e-09 1.37947 210.879 346.868)" d="M59.0819 -2.12832C77.3035 -1.75781 90.9207 -2.27263 90.3223 49.2175C89.6304 74.6961 81.8534 89.1305 71.3394 88.7678C60.8254 88.4051 52.1858 88.4296 41.8523 88.417C31.4726 88.331 24.24 71.493 24.9319 46.0144C25.2641 -7.68576 40.8602 -2.49883 59.0819 -2.12832Z"></path>
  <path fill="#91A8EB" transform="matrix(1.50913 0.0246226 -0.0246226 1.50913 266.846 294.136)" d="M0.249979 -81.5196C49.8787 -81.2985 84.5 -60 84.5 0C84.5 41.1452 46.78 74.5 0.25 74.5C-62.1254 74.5 -84 60.12 -84 0C-84 -71.2881 -62.1254 -81.5196 0.249979 -81.5196Z"></path>
  <path fill="#A6B8EF" transform="matrix(0.805953 0.0131497 -0.0151654 0.929491 321.14 259.014)" d="M0.249972 -81.5196C49.8787 -81.2985 84.5 -60 84.5 2.38419e-07C84.5 41.1452 67.1354 74.5 20.6054 74.5C-41.77 74.5 -84 60.12 -84 2.38419e-07C-84 -71.2881 -62.1254 -81.5197 0.249972 -81.5196Z"></path>
  <path fill="#C1CBE8" transform="matrix(0.197995 -0.202726 0.445703 0.435301 344.24 210.165)" d="M11.5671 -77.0972C58.0971 -77.0972 97.5959 -41.1452 97.5959 -1.67094e-05C97.5959 41.1452 73.4188 83.0524 26.8888 83.0524C-35.4866 83.0524 11.8086 60.12 11.8086 -1.5431e-05C11.8086 -41.1452 -34.9629 -77.0972 11.5671 -77.0972Z"></path>
  <path fill="#C1CBE8" transform="matrix(0.197995 -0.202726 0.184201 0.179903 388.682 274.521)" d="M48.93 -79.7643C80.6762 -79.053 77.4946 -42.8889 62.8507 4.00562C48.2069 50.9001 -0.03942 91.2963 -20.4536 67.777C-40.8678 44.2576 -16.8141 31.8032 -0.458991 -5.13884C15.8961 -42.0808 17.1838 -80.4756 48.93 -79.7643Z"></path>
  <path fill="none" stroke="black" stroke-width="7" stroke-linecap="round" stroke-linejoin="round" transform="translate(256 256)" d="M50.5834 -108.249C57.9512 -107.992 64.8255 -107.276 71.2376 -106.147"></path>
  <path fill="#91A8EB" transform="matrix(1.79976 0.0293645 -0.0293645 1.79976 225.395 135.286)" d="M0 -22.5C14.6355 -22.5 26.5 -12.3145 26.5 0.25C26.5 12.8145 14.6355 23 0 23C-14.6355 23 -26.5 12.8145 -26.5 0.25C-26.5 -12.3145 -14.6355 -22.5 0 -22.5Z"></path>
  <path fill="#C1CBE8" transform="matrix(-0.166841 -0.570472 0.880441 -0.257495 183.233 139.541)" d="M0 -11.5C14.6355 -11.5 28.0061 -7.98329 28.0061 -1.63201C28.0061 4.71926 15.5059 0.400182 0.870357 0.400182C-13.7652 0.400181 -26.766 4.37688 -26.766 -1.97439C-26.766 -8.32566 -14.6355 -11.5 0 -11.5Z"></path>
  <path fill="#999CA8" transform="matrix(1.63997 3.39408e-09 -3.39408e-09 1.63997 188.779 152.919)" d="M62.3609 -3.79068C159.726 -5.98005 133.382 106.511 133.382 106.511C124.858 120.697 103.931 125.217 103.931 125.217C99.8122 122.738 97.0384 114.991 97.0384 114.991C97.0384 114.991 92.571 122.978 80.9884 132.097C33.5051 142.01 -40.0389 126.614 -41.66 116.832C-51.8318 89.8804 -42.4754 41.613 -40.0228 35.324C-37.5701 29.0351 -23.4335 12.2991 -23.4335 12.2991L-3.96149 -3.64614C-3.96149 -3.64614 28.6909 8.70725 69.7818 7.76565C67.3158 -2.81973 62.3609 -3.79068 62.3609 -3.79068Z"></path>
  <clipPath id="cl_17a">
    <path d="M291.049 146.703C450.725 143.112 407.522 327.594 407.522 327.594C393.542 350.858 359.223 358.272 359.223 358.272C352.468 354.205 347.919 341.5 347.919 341.5C347.919 341.5 340.593 354.599 321.598 369.554C243.727 385.811 123.117 360.562 120.458 344.521C103.777 300.32 119.121 221.163 123.143 210.849C127.165 200.536 150.349 173.089 150.349 173.089L182.282 146.94C182.282 146.94 235.831 167.199 303.219 165.655C299.175 148.295 291.049 146.703 291.049 146.703Z"></path>
  </clipPath>
  <g clip-path="url(#cl_17a)">
    <path fill="#686B77" transform="matrix(1.78416 3.69251e-09 -3.42908e-09 1.65688 276.39 262.175)" d="M-5.81434 -76.9003C-5.81434 -76.9003 -38.015 -34.4167 -37.875 19.4009C-37.7351 73.2184 27.8948 68.4574 27.8948 68.4574L-79.1489 92.4107L-102.257 16.7671L-83.3847 -74.5391L-5.81434 -76.9003Z"></path>
    <path fill="#BCBFC5" transform="matrix(1.78416 3.69251e-09 -3.42908e-09 1.65688 276.39 262.175)" d="M45.4521 -82.9725L93.7889 -50.8112C93.7889 -50.8112 78.8995 -3.97774 47.484 1.7428C16.0686 7.46333 -45.8161 -37.4435 -45.8161 -37.4435L-73.0634 -72.0992L45.4521 -82.9725Z"></path>
    <path fill="#DADDE0" transform="matrix(1.78416 3.69251e-09 -3.42908e-09 1.65688 305.909 141.638)" d="M33.8967 14.5768L59.8776 19.1892C59.8776 19.1892 48.6614 51.4509 28.5602 52.2698C8.45895 53.0887 -29.101 32.4093 -29.101 32.4093C-29.101 32.4093 17.1176 36.5863 22.2728 36.8407C27.4281 37.0951 33.8967 14.5768 33.8967 14.5768Z"></path>
    <path fill="none" stroke="#494B53" stroke-width="1" stroke-linejoin="round" transform="matrix(1.78416 3.69251e-09 -3.42908e-09 1.65688 238.09 262.235)" d="M59.9289 52.7444C57.3564 60.3316 54.1158 68.2952 50.1158 76.6343C16.1594 77.1498 -25.2378 65.559 -25.2378 65.559C-34.9636 44.2166 -33.6264 3.12168 -31.9909 -19.2678"></path>
    <path fill="none" stroke="#898FA2" stroke-width="1" stroke-linejoin="round" transform="matrix(1.78416 3.69251e-09 -3.42908e-09 1.65688 238.09 262.235)" d="M-52.5751 -90.6465C-52.5751 -90.6465 29.9049 -60.6268 29.9049 -60.6268C47.3122 -58.4025 83.4637 -21.4663 61.0933 49.1929"></path>
  </g>
  <defs>
    <linearGradient id="gradient_1" gradientUnits="userSpaceOnUse" x1="-60.30225" y1="-15.24908" x2="-29.287821" y2="-15.24908">
      <stop offset="0" stop-color="#42444C"></stop>
      <stop offset="0.99602401" stop-color="#161823"></stop>
      <stop offset="1" stop-color="black"></stop>
    </linearGradient>
  </defs>
  <path fill="url(#gradient_1)" transform="matrix(2.06931 4.28265e-09 -3.39408e-09 1.63997 281.286 258.895)" d="M-58.1232 -38.8393C-54.5001 -50.2495 -36.6337 -48.5811 -31.9012 -38.5612C-27.1688 -28.5414 -29.2878 -16.904 -29.2878 -16.904C-37.342 10.4732 -59.3233 2.22359 -60.3022 -21.2052C-60.3022 -21.2052 -61.7464 -27.4291 -58.1232 -38.8393Z"></path>
  <path fill="#91A8EB" transform="matrix(0.606874 0.00990163 -0.00990163 0.606874 198.712 102.563)" d="M0 -22.5C14.6355 -22.5 26.5 -12.3145 26.5 0.25C26.5 12.8145 14.6355 23 0 23C-14.6355 23 -26.5 12.8145 -26.5 0.25C-26.5 -12.3145 -14.6355 -22.5 0 -22.5Z"></path>
  <path fill="#91A8EB" transform="matrix(0.504938 0.00823846 -0.00823846 0.504938 183.262 113.261)" d="M-1.53012e-05 -22.5C14.6355 -22.5 26.5 -12.3145 26.5 0.25C26.5 12.8145 14.6355 23 -1.52164e-05 23C-14.6356 23 -26.5 12.8145 -26.5 0.25C-26.5 -12.3145 -14.6356 -22.5 -1.53012e-05 -22.5Z"></path>
  <path fill="#91A8EB" transform="matrix(0.274279 0.00447507 -0.00447507 0.274279 164.392 80.4743)" d="M0 -22.4261C14.2962 -22.4261 25.8855 -12.274 25.8855 0.249268C25.8855 12.7726 14.2962 22.9247 0 22.9247C-14.2962 22.9247 -25.8855 12.7726 -25.8855 0.249268C-25.8855 -12.274 -14.2962 -22.4261 0 -22.4261Z"></path>
  <path fill="#C1CBE8" transform="matrix(0.073816 -0.11483 0.26388 0.16963 160.697 77.7789)" d="M0 -11.5C14.6355 -11.5 28.0061 -7.98328 28.0061 -1.63201C28.0061 4.71926 15.5059 0.400185 0.870356 0.400186C-13.7652 0.400185 -26.766 4.37689 -26.766 -1.97439C-26.766 -8.32566 -14.6355 -11.5 0 -11.5Z"></path>
  <path fill="#1B2B56" transform="matrix(1.78669 -0.21848 0.065544 0.536007 234.229 116.926)" d="M-4.8615e-07 -2.5C1.38071 -2.5 2.5 -1.38071 2.5 0C2.5 1.38071 1.38071 2.5 -4.67524e-07 2.5C-1.38071 2.5 -2.5 1.38071 -2.5 0C-2.5 -1.38071 -1.38071 -2.5 -4.8615e-07 -2.5Z"></path>
  <path fill="none" stroke="#1B2B56" stroke-width="0.5" stroke-linecap="round" stroke-linejoin="round" transform="matrix(1.78289 -0.247598 0.247598 1.78289 242.873 115.815)" d="M1.98548 0.277974L6.02909 0.184236"></path>
  <path fill="#1B2B56" transform="matrix(1.78669 -0.21848 0.065544 0.536007 262.816 113.43)" d="M-9.62988e-07 -2.50003C1.38071 -2.50003 2.5 -1.38074 2.5 -3.05176e-05C2.5 1.38068 1.38071 2.49997 -9.44361e-07 2.49997C-1.38071 2.49997 -2.5 1.38068 -2.5 -3.05176e-05C-2.5 -1.38074 -1.38071 -2.50003 -9.62988e-07 -2.50003Z"></path>
  <path fill="#354B89" transform="matrix(1.46507 -0.885005 0.929571 0.72522 254.594 106.498)" d="M7.62939e-06 -2.5C1.38072 -2.5 2.50001 -1.38071 2.50001 1.49012e-07C2.50001 1.38071 1.38072 2.5 7.62939e-06 2.5C-1.3807 2.5 -2.49999 1.38071 -2.49999 -1.49012e-07C-2.49999 -1.38071 -1.3807 -2.5 7.62939e-06 -2.5Z"></path>
  <path fill="#354B89" transform="matrix(2.16254 0.296937 -0.629837 1.0733 238.621 107.438)" d="M3.8147e-06 -2.98532C1.68306 -2.98532 3.04744 -1.64874 3.04744 1.5168e-05C3.04744 1.64877 1.68306 2.98535 3.8147e-06 2.98535C-1.68305 2.98535 -3.04744 1.64877 -3.04744 1.53496e-05C-3.04744 -1.64874 -1.68305 -2.98532 3.8147e-06 -2.98532Z"></path>
  <path fill="none" stroke="black" stroke-width="7" stroke-linecap="round" stroke-linejoin="round" transform="matrix(2.15345 4.45679e-09 -4.42021e-09 2.13577 150.659 302.634)" d="M29.2009 -33.2576C31.6572 -28.1376 35.0194 -20.1107 38.2812 -6.68989C45.7963 21.1597 50.2865 43.2504 26.2108 51.0263C11.0656 55.8114 -9.24041 36.2568 -16.76 8.39057C-22.6547 -14.7855 -17.1522 -37.8137 -7.53807 -50.6643"></path>
  <path fill="none" stroke="black" stroke-width="7" stroke-linejoin="round" transform="translate(256 256)" d="M-143.12 -35.849C-153.092 -38.7251 -162.078 -42.876 -168.935 -48.7636C-157.523 -84.1938 -121.926 -111.299 -92.449 -112.422"></path>
  <path fill="#6C88D9" transform="matrix(2.15345 4.45679e-09 -4.42021e-09 2.13577 150.659 302.634)" d="M10.3077 -61.0146C14.7435 -57.5877 24.6518 -44.6348 25.6485 -40.838C26.6453 -37.0411 32.6148 -30.0046 38.2812 -6.68989C45.7963 21.1597 50.2865 43.2504 26.2108 51.0263C11.0656 55.8114 -9.24041 36.2568 -16.76 8.39057C-25.8083 -27.1847 -8.00248 -62.4115 10.3077 -61.0146Z"></path>
  <path fill="#91A8EB" transform="matrix(1.67686 3.47045e-09 -4.32784e-09 2.09114 154.649 296.921)" d="M11.5422 -54.6044C33.1402 -58.6102 31.1059 -33.6653 39.0806 -6.52892C48.5901 20.9388 51.5193 43.9501 37.3168 48.8557C23.1143 53.7613 -3.41219 34.6789 -14.5195 7.49767C-24.7348 -20.9446 -10.0559 -50.5985 11.5422 -54.6044Z"></path>
  <path fill="#999696" transform="matrix(1.63997 3.39408e-09 -3.39408e-09 1.63997 102.368 204.297)" d="M-9.33072 1.7923C0.255683 -20.3552 11.318 -34.4995 42.2294 -37.4963C57.7294 -9.48985 69.6738 5.85638 69.6738 5.85638C69.6737 9.4091 68.001 11.4229 63.6402 11.4229C63.6402 11.4229 11.318 19.5229 -9.33072 1.7923Z"></path>
  <path fill="#828594" transform="matrix(1.63997 3.39408e-09 -3.39408e-09 1.63997 102.368 204.297)" d="M-9.33072 1.7923C0.255683 -20.3552 11.318 -34.4995 42.2294 -37.4963C57.7294 -9.48985 69.6738 5.85638 69.6738 5.85638C69.6737 9.4091 68.001 11.4229 63.6402 11.4229C63.6402 11.4229 11.318 19.5229 -9.33072 1.7923Z"></path>
  <clipPath id="cl_17e">
    <path d="M87.0654 207.236C102.787 170.915 120.929 147.719 171.622 142.804C197.042 188.734 216.63 213.901 216.63 213.901C216.63 219.728 213.887 223.03 206.735 223.03C206.735 223.03 120.929 236.314 87.0654 207.236Z"></path>
  </clipPath>
  <g clip-path="url(#cl_17e)">
    <path fill="#686B77" transform="matrix(1.63997 3.39408e-09 -3.39408e-09 1.63997 102.368 204.297)" d="M-18.5853 15.5755L-13.4615 -44.4622C-13.4615 -44.4622 70.2014 -44.8304 70.2014 -44.8304C29.0482 -45.0949 3.69743 17.5905 3.69743 17.5905L-18.5853 15.5755Z"></path>
  </g>
  <path fill="#42444C" transform="matrix(1.63997 3.39408e-09 -3.39408e-09 1.63997 102.368 204.297)" d="M-9.33072 -5.18064C-9.33072 -5.18064 -8.34054 -14.2229 2.12125 -18.7125C16.6016 -6.181 67.6134 6.22992 67.6134 6.22992L66.536 9.4091C66.536 9.4091 1.13099 9.26387 -9.33072 -5.18064Z"></path>
  <path fill="#4B4949" transform="matrix(1.63997 3.39408e-09 -3.39408e-09 1.63997 213.251 218.716)" d="M1.90735e-06 -12C6.90356 -12 12.5 -6.62742 12.5 0C12.5 6.62742 6.90356 12 1.90735e-06 12C-6.90356 12 -12.5 6.62742 -12.5 0C-12.5 -6.62742 -6.90356 -12 1.90735e-06 -12Z"></path>
  <path fill="#827A7A" transform="matrix(1.63997 3.39408e-09 -3.39408e-09 1.63997 218.171 220.356)" d="M1.90735e-06 -12C6.90356 -12 12.5 -6.62742 12.5 1.90735e-06C12.5 6.62742 6.90356 12 1.90735e-06 12C-6.90356 12 -12.5 6.62742 -12.5 1.90735e-06C-12.5 -6.62742 -6.90356 -12 1.90735e-06 -12Z"></path>
  <path fill="none" stroke="white" stroke-width="5" stroke-linecap="round" stroke-linejoin="round" transform="matrix(1.5 0 0 1.5 158.539 362.24)" d=""></path>
</svg>