<?xml version="1.0" encoding="utf-8"?>
<svg xmlns="http://www.w3.org/2000/svg" xmlns:xlink="http://www.w3.org/1999/xlink" width="512" height="512">
  <path fill="none" stroke="black" stroke-width="7" stroke-linejoin="round" transform="matrix(1.8 3.72529e-09 -3.72529e-09 1.8 210.879 409.868)" d="M35.6598 -46.9553C53.1377 -52.1213 74.666 -42.765 78.7733 3.42973C74.4285 34.9003 58.0195 47.7561 48.1642 44.0751C38.309 40.3942 30.1084 37.6754 20.3131 34.3837C10.4538 30.8801 14.7013 24.4929 18.7195 0.845673C13.7658 -39.4314 18.1819 -41.7893 35.6598 -46.9553Z"></path>
  <path fill="none" stroke="black" stroke-width="7" stroke-linejoin="round" transform="matrix(1.79976 0.0293645 -0.0298671 1.83057 266.656 282.421)" d="M0.209625 -80.0966C37.3348 -80.0966 80.6639 -60.1508 80.6639 -0.150775C80.6639 40.9944 46.7396 76.2788 0.209625 76.2788C-62.1658 76.2788 -84 60.12 -84 -9.53674e-07C-84 -71.2881 -50.5087 -80.0966 0.209625 -80.0966Z"></path>
  <path fill="none" stroke="black" stroke-width="7" stroke-linejoin="round" transform="matrix(-2.15345 -3.29802e-07 -3.27096e-07 2.13577 356.323 283.606)" d="M18.8831 -58.0101C22.0119 -53.3416 27.3344 -37.889 27.0854 -33.9694C26.8365 -30.0498 30.7621 -20.9129 28.206 3.31975C25.4759 32.0782 19.8363 54.8985 -5.3442 52.6307C-21.1433 51.1059 -31.3432 26.5946 -28.6131 -2.16382C-25.1903 -38.2186 1.95757 -65.19 18.8831 -58.0101Z"></path>
  <path fill="none" stroke="black" stroke-width="7" stroke-linejoin="round" transform="matrix(1.53671 3.18039e-09 -3.72529e-09 1.8 308.979 398.168)" d="M-39.3735 -47.0208C-21.1482 -47.0918 -5.73871 -40.243 -5.66424 9.33158C-5.20653 23.1816 -11.3562 46.9095 -25.0336 46.7788C-38.711 46.6481 -44.8462 46.5895 -57.0475 46.4729C-69.2487 46.3564 -71.2059 23.4388 -71.6636 9.58881C-72.0606 -42.1753 -57.5987 -46.9498 -39.3735 -47.0208Z"></path>
  <path fill="#6C88D9" transform="matrix(-2.15345 -3.29802e-07 -3.27096e-07 2.13577 356.323 283.606)" d="M18.8831 -58.0101C22.0119 -53.3416 27.3344 -37.889 27.0854 -33.9694C26.8365 -30.0498 30.7621 -20.9129 28.206 3.31975C25.4759 32.0782 19.8363 54.8985 -5.3442 52.6307C-21.1433 51.1059 -31.3432 26.5946 -28.6131 -2.16382C-25.1903 -38.2186 1.95757 -65.19 18.8831 -58.0101Z"></path>
  <path fill="#5170C8" transform="matrix(1.53671 3.18039e-09 -3.72529e-09 1.8 308.979 398.168)" d="M-39.3735 -47.0208C-21.1482 -47.0918 -5.73871 -40.243 -5.66424 9.33158C-5.20653 23.1816 -11.3562 46.9095 -25.0336 46.7788C-38.711 46.6481 -44.8462 46.5895 -57.0475 46.4729C-69.2487 46.3564 -71.2059 23.4388 -71.6636 9.58881C-72.0606 -42.1753 -57.5987 -46.9498 -39.3735 -47.0208Z"></path>
  <path fill="#839BE0" transform="matrix(1.20328 2.49031e-09 -2.91698e-09 1.40944 308.979 398.168)" d="M-50.2161 -47.3433C-31.9909 -47.4143 -17.1327 -40.4798 -16.9072 13.5868C-17.3182 31.5183 -26.2214 46.6128 -39.8988 46.4821C-53.5762 46.3515 -53.4019 46.4037 -65.6032 46.2871C-77.8045 46.1705 -83.3175 31.7755 -82.9064 13.844C-83.4546 -42.4121 -68.4414 -47.2723 -50.2161 -47.3433Z"></path>
  <path fill="#6C88D9" transform="matrix(1.8 3.72529e-09 -3.72529e-09 1.8 210.879 409.868)" d="M35.6598 -46.9553C53.1377 -52.1213 74.666 -42.765 78.7733 3.42973C74.4285 34.9003 58.0195 47.7561 48.1642 44.0751C38.309 40.3942 30.1084 37.6754 20.3131 34.3837C10.4538 30.8801 14.7013 24.4929 18.7195 0.845673C13.7658 -39.4314 18.1819 -41.7893 35.6598 -46.9553Z"></path>
  <path fill="#91A8EB" transform="matrix(-1.67686 -2.56813e-07 -3.2026e-07 2.09114 352.333 277.893)" d="M20.5496 -51.6188C42.617 -49.9251 32.7958 -25.7353 27.7698 2.60126C22.7438 30.9378 8.1272 53.276 -7.26644 52.0945C-22.66 50.913 -31.9881 26.8094 -28.5757 -1.77875C-25.1633 -30.3669 -1.51777 -53.3126 20.5496 -51.6188Z"></path>
  <path fill="none" stroke="black" stroke-width="7" stroke-miterlimit="4" transform="matrix(1.79976 0.0293645 -0.0293645 1.79976 225.166 124.952)" d="M0 -29.5C19.0538 -29.5 34.5 -16.1805 34.5 0.25C34.5 16.6805 19.0538 30 0 30C-19.0538 30 -34.5 16.6805 -34.5 0.25C-34.5 -16.1805 -19.0538 -29.5 0 -29.5Z"></path>
  <path fill="none" stroke="black" stroke-width="9" stroke-miterlimit="4" transform="translate(256 256)" d="M-57.1431 -188.865C-42.3605 -188.624 -30.5454 -178.095 -30.7534 -165.347C-30.9614 -152.6 -43.1137 -142.462 -57.8962 -142.703C-72.6788 -142.944 -84.4939 -153.473 -84.2859 -166.221C-84.0779 -178.968 -71.9257 -189.106 -57.1431 -188.865Z"></path>
  <path fill="none" stroke="black" stroke-width="9" stroke-miterlimit="4" transform="translate(256 256)" d="M-72.6561 -173.953C-60.3565 -173.752 -50.526 -164.991 -50.6991 -154.385C-50.8721 -143.779 -60.9832 -135.344 -73.2828 -135.544C-85.5823 -135.745 -95.4128 -144.506 -95.2398 -155.112C-95.0667 -165.718 -84.9557 -174.153 -72.6561 -173.953Z"></path>
  <path fill="none" stroke="black" stroke-width="9" stroke-miterlimit="4" transform="translate(256 256)" d="M-92.6632 -198.287C-85.9822 -198.178 -80.6423 -193.419 -80.7363 -187.658C-80.8303 -181.897 -86.3225 -177.315 -93.0036 -177.424C-99.6846 -177.533 -105.024 -182.291 -104.93 -188.052C-104.836 -193.814 -99.3442 -198.396 -92.6632 -198.287Z"></path>
  <path fill="#6C88D9" transform="matrix(1.79976 0.0293645 -0.0293645 1.79976 225.166 124.952)" d="M0 -29.5C19.0538 -29.5 34.5 -16.1805 34.5 0.25C34.5 16.6805 19.0538 30 0 30C-19.0538 30 -34.5 16.6805 -34.5 0.25C-34.5 -16.1805 -19.0538 -29.5 0 -29.5Z"></path>
  <path fill="#6C88D9" transform="matrix(0.775834 0.0126583 -0.0126583 0.775834 198.484 90.022)" d="M7.62939e-06 -29.5C19.0538 -29.5 34.5 -16.1805 34.5 0.25C34.5 16.6805 19.0538 30 7.62939e-06 30C-19.0538 30 -34.5 16.6805 -34.5 0.25C-34.5 -16.1805 -19.0538 -29.5 7.62939e-06 -29.5Z"></path>
  <path fill="#6C88D9" transform="matrix(0.645518 0.0105321 -0.0105321 0.645518 183.033 101.09)" d="M1.52588e-05 -29.5C19.0538 -29.5 34.5 -16.1805 34.5 0.25C34.5 16.6805 19.0538 30 1.52588e-05 30C-19.0538 30 -34.5 16.6805 -34.5 0.25C-34.5 -16.1805 -19.0538 -29.5 1.52588e-05 -29.5Z"></path>
  <path fill="#6C88D9" transform="matrix(0.35064 0.00572097 -0.00572097 0.35064 163.168 68.0572)" d="M3.05176e-05 -29.4999C19.0539 -29.4999 34.5 -16.1804 34.5 0.250061C34.5 16.6805 19.0539 30.0001 3.05176e-05 30.0001C-19.0538 30.0001 -34.5 16.6805 -34.5 0.250061C-34.5 -16.1804 -19.0538 -29.4999 3.05176e-05 -29.4999Z"></path>
  <path fill="none" stroke="black" stroke-width="7" stroke-linejoin="round" transform="translate(256 256)" d="M-89.2992 -95.9401C-69.8267 -122.662 23.4892 -108.649 39.7232 -105.983"></path>
  <defs>
    <linearGradient id="gradient_0" gradientUnits="userSpaceOnUse" x1="-10.499905" y1="-40.34568" x2="-3.0814617" y2="20.75737">
      <stop offset="0" stop-color="#A1A8AF"></stop>
      <stop offset="0.99830264" stop-color="#242B4A"></stop>
      <stop offset="1" stop-color="#000417"></stop>
    </linearGradient>
  </defs>
  <path fill="url(#gradient_0)" transform="matrix(1.63997 3.39408e-09 -3.39408e-09 1.63997 254.92 174.608)" d="M-53.7932 -8.87113C-40.7768 -26.7335 26.3506 -14.7462 26.3506 -14.7462L53.5854 -9.77639L68.6389 10.0869L-57 14.5C-57 14.5 -53.7932 -8.87113 -53.7932 -8.87113Z"></path>
  <path fill="none" stroke="black" stroke-width="7" stroke-linejoin="round" transform="translate(256 256)" d="M164.201 -56.5924C148.48 -92.9136 130.338 -116.11 79.6442 -121.024C59.1049 -71.8117 34.6363 -49.9274 34.6363 -49.9274C34.6364 -44.1011 37.3795 -40.7986 44.5311 -40.7986C44.5311 -40.7986 130.338 -27.5147 164.201 -56.5924Z"></path>
  <path fill="#828594" transform="matrix(-1.63997 -2.51022e-07 -2.51022e-07 1.63997 404.899 196.468)" d="M-9.33072 1.7923C0.255683 -20.3552 11.318 -34.4995 42.2294 -37.4963C57.7294 -9.48986 69.6738 5.85638 69.6738 5.85638C69.6737 9.4091 68.001 11.4229 63.6402 11.4229C63.6402 11.4229 11.318 19.5229 -9.33072 1.7923Z"></path>
  <path fill="#6C88D9" transform="matrix(1.79976 0.0293645 -0.0297683 1.82451 266.648 282.884)" d="M0.445611 -80.8406C37.5708 -80.8406 80.6032 -59.9373 80.6032 0.0627349C80.6032 41.208 46.7396 76.2788 0.209625 76.2788C-62.1658 76.2788 -84 60.12 -84 1.75042e-06C-84 -71.2881 -50.2727 -80.8406 0.445611 -80.8406Z"></path>
  <path fill="#91A8EB" transform="matrix(1.37947 2.85496e-09 -2.85496e-09 1.37947 210.879 346.868)" d="M50.4932 -2.19361C67.9712 -7.35961 89.7532 -5.75193 94.8842 47.3818C94.0726 71.6035 73.2337 92.7256 63.3785 89.0446C53.5232 85.3636 45.3225 82.6448 35.5273 79.3532C25.7115 75.9773 31.9168 68.1632 32.7284 43.9416C26.6256 -3.15508 33.0153 2.9724 50.4932 -2.19361Z"></path>
  <path fill="#91A8EB" transform="matrix(1.50913 0.0246226 -0.0246226 1.50913 266.618 284.771)" d="M0.249979 -81.5196C49.8787 -81.2985 84.5 -60 84.5 0C84.5 41.1452 46.78 74.5 0.25 74.5C-62.1254 74.5 -84 60.12 -84 0C-84 -71.2881 -62.1254 -81.5196 0.249979 -81.5196Z"></path>
  <path fill="#A6B8EF" transform="matrix(0.805953 0.0131497 -0.0151654 0.929491 320.911 249.65)" d="M0.249972 -81.5196C49.8787 -81.2985 84.5 -60 84.5 0C84.5 41.1452 67.1354 74.5 20.6054 74.5C-41.77 74.5 -84 60.12 -84 0C-84 -71.2881 -62.1254 -81.5197 0.249972 -81.5196Z"></path>
  <path fill="#C1CBE8" transform="matrix(0.197995 -0.202726 0.445703 0.435301 344.012 200.8)" d="M11.5671 -77.0972C58.0971 -77.0972 97.5959 -41.1452 97.5959 -2.81534e-05C97.5959 41.1452 73.4188 83.0524 26.8888 83.0524C-35.4866 83.0524 11.8086 60.12 11.8086 -2.68751e-05C11.8086 -41.1452 -34.9629 -77.0972 11.5671 -77.0972Z"></path>
  <path fill="#C1CBE8" transform="matrix(0.197995 -0.202726 0.184201 0.179903 388.454 265.156)" d="M48.93 -79.7642C80.6763 -79.0529 77.4946 -42.8888 62.8508 4.00568C48.2069 50.9002 -0.0393895 91.2964 -20.4536 67.777C-40.8678 44.2577 -16.8141 31.8032 -0.458961 -5.13878C15.8962 -42.0808 17.1838 -80.4755 48.93 -79.7642Z"></path>
  <path fill="none" stroke="black" stroke-width="7" stroke-linecap="round" stroke-linejoin="round" transform="translate(256 256)" d="M50.3551 -119.837C57.7229 -119.581 64.5971 -118.864 71.0093 -117.735"></path>
  <path fill="#91A8EB" transform="matrix(1.79976 0.0293645 -0.0293645 1.79976 225.166 124.952)" d="M0 -22.5C14.6355 -22.5 26.5 -12.3145 26.5 0.25C26.5 12.8145 14.6355 23 0 23C-14.6355 23 -26.5 12.8145 -26.5 0.25C-26.5 -12.3145 -14.6355 -22.5 0 -22.5Z"></path>
  <path fill="#C1CBE8" transform="matrix(-0.166841 -0.570472 0.880441 -0.257495 182.905 129.248)" d="M1.52588e-05 -11.5C14.6356 -11.5 28.0061 -7.98328 28.0061 -1.63201C28.0061 4.71927 15.5059 0.400186 0.870372 0.400186C-13.7652 0.400184 -26.766 4.37689 -26.766 -1.97439C-26.766 -8.32566 -14.6355 -11.5 1.52588e-05 -11.5Z"></path>
  <path fill="#999CA8" transform="matrix(1.63997 3.39408e-09 -3.39408e-09 1.63997 188.551 141.331)" d="M62.3197 -2.46989C159.913 -6.54749 133.382 106.511 133.382 106.511C124.858 120.697 103.931 125.217 103.931 125.217C99.8122 122.738 97.0384 114.991 97.0384 114.991C97.0384 114.991 92.571 122.978 80.9884 132.097C33.5051 142.01 -40.0389 126.614 -41.66 116.832C-51.8318 89.8804 -42.4754 41.613 -40.0228 35.324C-37.5701 29.0351 -23.4335 12.2991 -23.4335 12.2991L-3.96149 -3.64614C-3.96149 -3.64614 28.6909 8.70725 69.7818 7.76565C67.3158 -2.81973 62.3197 -2.46989 62.3197 -2.46989Z"></path>
  <clipPath id="cl_c6">
    <path d="M290.753 137.281C450.802 130.593 407.294 316.006 407.294 316.006C393.313 339.27 358.995 346.683 358.995 346.683C352.24 342.617 347.691 329.912 347.691 329.912C347.691 329.912 340.364 343.011 321.369 357.966C243.498 374.223 122.888 348.974 120.23 332.933C103.548 288.732 118.893 209.575 122.915 199.261C126.937 188.948 150.121 161.501 150.121 161.501L182.054 135.352C182.054 135.352 235.603 155.611 302.991 154.067C298.947 136.707 290.753 137.281 290.753 137.281Z"></path>
  </clipPath>
  <g clip-path="url(#cl_c6)">
    <path fill="#686B77" transform="matrix(1.78416 3.69251e-09 -3.42908e-09 1.65688 276.162 250.587)" d="M-5.81434 -76.9003C-5.81434 -76.9003 -38.015 -34.4167 -37.875 19.4009C-37.7351 73.2184 27.8948 68.4574 27.8948 68.4574L-79.1489 92.4107L-102.257 16.7671L-83.3847 -74.5391L-5.81434 -76.9003Z"></path>
    <path fill="#BCBFC5" transform="matrix(1.78416 3.69251e-09 -3.42908e-09 1.65688 276.162 250.587)" d="M45.4521 -82.9725L93.7889 -50.8112C93.7889 -50.8112 78.8995 -3.97774 47.484 1.7428C16.0686 7.46333 -45.8161 -37.4435 -45.8161 -37.4435L-73.0634 -72.0992L45.4521 -82.9725Z"></path>
    <path fill="#DADDE0" transform="matrix(1.78416 3.69251e-09 -3.42908e-09 1.65688 305.681 130.05)" d="M33.8967 14.5768L59.8776 19.1892C59.8776 19.1892 48.6614 51.4509 28.5602 52.2698C8.45895 53.0887 -29.101 32.4093 -29.101 32.4093C-29.101 32.4093 17.1176 36.5863 22.2728 36.8407C27.4281 37.0951 33.8967 14.5768 33.8967 14.5768Z"></path>
    <path fill="none" stroke="#494B53" stroke-width="1" stroke-linejoin="round" transform="matrix(1.78416 3.69251e-09 -3.42908e-09 1.65688 237.861 250.647)" d="M59.9289 52.7444C57.3564 60.3316 54.1158 68.2952 50.1158 76.6343C16.1594 77.1498 -25.2378 65.559 -25.2378 65.559C-34.9636 44.2166 -33.6264 3.12168 -31.9909 -19.2678"></path>
    <path fill="none" stroke="#898FA2" stroke-width="1" stroke-linejoin="round" transform="matrix(1.78416 3.69251e-09 -3.42908e-09 1.65688 237.861 250.647)" d="M-52.5751 -90.6465C-52.5751 -90.6465 29.9049 -60.6268 29.9049 -60.6268C47.3122 -58.4025 83.4637 -21.4663 61.0933 49.1929"></path>
  </g>
  <defs>
    <linearGradient id="gradient_1" gradientUnits="userSpaceOnUse" x1="-60.30225" y1="-15.24908" x2="-29.287821" y2="-15.24908">
      <stop offset="0" stop-color="#42444C"></stop>
      <stop offset="0.99602401" stop-color="#161823"></stop>
      <stop offset="1" stop-color="black"></stop>
    </linearGradient>
  </defs>
  <path fill="url(#gradient_1)" transform="matrix(2.06931 4.28265e-09 -3.39408e-09 1.63997 281.058 247.307)" d="M-58.1232 -38.8393C-54.5001 -50.2495 -36.6337 -48.5811 -31.9012 -38.5612C-27.1688 -28.5414 -29.2878 -16.904 -29.2878 -16.904C-37.342 10.4732 -59.3233 2.22359 -60.3022 -21.2052C-60.3022 -21.2052 -61.7464 -27.4291 -58.1232 -38.8393Z"></path>
  <path fill="#91A8EB" transform="matrix(0.606874 0.00990163 -0.00990163 0.606874 198.484 92.2291)" d="M0 -22.5C14.6355 -22.5 26.5 -12.3145 26.5 0.25C26.5 12.8145 14.6355 23 0 23C-14.6355 23 -26.5 12.8145 -26.5 0.25C-26.5 -12.3145 -14.6355 -22.5 0 -22.5Z"></path>
  <path fill="#91A8EB" transform="matrix(0.504938 0.00823846 -0.00823846 0.504938 183.033 102.926)" d="M-4.23752e-08 -22.5C14.6355 -22.5 26.5 -12.3145 26.5 0.25C26.5 12.8145 14.6355 23 4.23752e-08 23C-14.6355 23 -26.5 12.8145 -26.5 0.25C-26.5 -12.3145 -14.6355 -22.5 -4.23752e-08 -22.5Z"></path>
  <path fill="#91A8EB" transform="matrix(0.274279 0.00447507 -0.00447507 0.274279 164.164 70.1399)" d="M3.05176e-05 -22.4262C14.2962 -22.4262 25.8855 -12.2741 25.8855 0.249207C25.8855 12.7725 14.2962 22.9246 3.05176e-05 22.9246C-14.2961 22.9246 -25.8855 12.7725 -25.8855 0.249207C-25.8855 -12.2741 -14.2961 -22.4262 3.05176e-05 -22.4262Z"></path>
  <path fill="#C1CBE8" transform="matrix(0.073816 -0.11483 0.26388 0.16963 160.369 67.4858)" d="M0 -11.5C14.6355 -11.5 28.0061 -7.98328 28.0061 -1.63201C28.0061 4.71926 15.5059 0.400185 0.870356 0.400186C-13.7652 0.400185 -26.766 4.37689 -26.766 -1.97439C-26.766 -8.32566 -14.6355 -11.5 0 -11.5Z"></path>
  <path fill="#1B2B56" transform="matrix(1.78669 -0.21848 0.065544 0.536007 238.977 104.527)" d="M-1.88127e-07 -2.50003C1.38071 -2.50003 2.5 -1.38074 2.5 -3.05176e-05C2.5 1.38068 1.38071 2.49997 -1.69501e-07 2.49997C-1.38071 2.49997 -2.5 1.38068 -2.5 -3.05176e-05C-2.5 -1.38074 -1.38071 -2.50003 -1.88127e-07 -2.50003Z"></path>
  <path fill="none" stroke="#1B2B56" stroke-width="0.5" stroke-linecap="round" stroke-linejoin="round" transform="matrix(1.78289 -0.247598 0.247598 1.78289 247.621 103.416)" d="M1.98548 0.277974L6.02909 0.184236"></path>
  <path fill="#1B2B56" transform="matrix(1.78669 -0.21848 0.065544 0.536007 267.564 101.031)" d="M-9.31323e-09 -2.5C1.38071 -2.5 2.5 -1.38071 2.5 0C2.5 1.38071 1.38071 2.5 9.31323e-09 2.5C-1.38071 2.5 -2.5 1.38071 -2.5 0C-2.5 -1.38071 -1.38071 -2.5 -9.31323e-09 -2.5Z"></path>
  <path fill="#354B89" transform="matrix(1.46507 -0.885005 0.929571 0.72522 259.342 94.0993)" d="M-7.62939e-06 -2.5C1.3807 -2.5 2.49999 -1.38071 2.49999 1.49012e-07C2.49999 1.38071 1.3807 2.5 -7.62939e-06 2.5C-1.38072 2.5 -2.50001 1.38071 -2.50001 -1.49012e-07C-2.50001 -1.38071 -1.38072 -2.5 -7.62939e-06 -2.5Z"></path>
  <path fill="#354B89" transform="matrix(2.16254 0.296937 -0.629837 1.0733 243.369 95.0389)" d="M0 -2.98532C1.68306 -2.98532 3.04744 -1.64874 3.04744 1.5168e-05C3.04744 1.64877 1.68306 2.98535 0 2.98535C-1.68306 2.98535 -3.04744 1.64877 -3.04744 1.53496e-05C-3.04744 -1.64874 -1.68306 -2.98532 0 -2.98532Z"></path>
  <path fill="none" stroke="black" stroke-width="7" stroke-linecap="round" stroke-linejoin="round" transform="matrix(2.15345 4.45679e-09 -4.42021e-09 2.13577 150.431 293.27)" d="M28.4846 -31.6355C30.6002 -26.2873 33.4052 -17.9151 35.561 -4.09126C40.5677 24.3414 42.372 47.1645 17.6252 52.3754C2.06875 55.5474 -15.6161 34.3986 -20.6247 5.95531C-24.5305 -17.4762 -17.3683 -39.8013 -6.88967 -51.7865"></path>
  <path fill="none" stroke="black" stroke-width="7" stroke-linejoin="round" transform="translate(256 256)" d="M-145.438 -48.0631C-154.574 -50.9058 -162.789 -54.8782 -169.163 -60.3516C-157.741 -95.8162 -122.086 -122.94 -92.5919 -124.014"></path>
  <path fill="#6C88D9" transform="matrix(2.15345 4.45679e-09 -4.42021e-09 2.13577 150.431 293.27)" d="M11.6945 -60.7144C15.8609 -56.9594 24.7704 -43.2888 25.4799 -39.4269C26.1893 -35.565 31.8414 -27.9425 35.561 -4.09126C40.5677 24.3414 42.372 47.1645 17.6252 52.3754C2.06875 55.5474 -15.6161 34.3986 -20.6247 5.95531C-26.6318 -30.0818 -6.45869 -63.5019 11.6945 -60.7144Z"></path>
  <path fill="#91A8EB" transform="matrix(1.67686 3.47045e-09 -4.32784e-09 2.09114 154.421 287.557)" d="M12.852 -54.2705C34.7657 -56.9566 30.7512 -32.1276 35.9026 -4.42409C42.3091 23.65 41.7963 47.0737 27.0349 50.769C12.2735 54.4644 -11.0834 33.6063 -19.1152 5.70289C-26.2806 -23.2034 -9.06173 -51.5844 12.852 -54.2705Z"></path>
  <path fill="#999696" transform="matrix(1.63997 3.39408e-09 -3.39408e-09 1.63997 102.139 192.709)" d="M-9.33073 1.7923C0.255675 -20.3552 11.318 -34.4995 42.2294 -37.4963C57.7294 -9.48986 69.6737 5.85638 69.6737 5.85638C69.6737 9.4091 68.001 11.4229 63.6402 11.4229C63.6402 11.4229 11.318 19.5229 -9.33073 1.7923Z"></path>
  <path fill="#828594" transform="matrix(1.63997 3.39408e-09 -3.39408e-09 1.63997 102.139 192.709)" d="M-9.33073 1.7923C0.255675 -20.3552 11.318 -34.4995 42.2294 -37.4963C57.7294 -9.48986 69.6737 5.85638 69.6737 5.85638C69.6737 9.4091 68.001 11.4229 63.6402 11.4229C63.6402 11.4229 11.318 19.5229 -9.33073 1.7923Z"></path>
  <clipPath id="cl_ca">
    <path d="M86.8371 195.648C102.558 159.327 120.7 136.131 171.394 131.216C196.813 177.146 216.402 202.313 216.402 202.313C216.402 208.14 213.659 211.442 206.507 211.442C206.507 211.442 120.7 224.726 86.8371 195.648Z"></path>
  </clipPath>
  <g clip-path="url(#cl_ca)">
    <path fill="#686B77" transform="matrix(1.63997 3.39408e-09 -3.39408e-09 1.63997 102.139 192.709)" d="M-18.5853 15.5755L-13.4615 -44.4622C-13.4615 -44.4622 70.2014 -44.8304 70.2014 -44.8304C29.0482 -45.0949 3.69742 17.5905 3.69742 17.5905L-18.5853 15.5755Z"></path>
  </g>
  <path fill="#42444C" transform="matrix(1.63997 3.39408e-09 -3.39408e-09 1.63997 102.139 192.709)" d="M-9.33073 -5.18064C-9.33073 -5.18064 -8.34054 -14.2229 2.12124 -18.7125C16.6016 -6.18101 67.6134 6.22991 67.6134 6.22991L66.536 9.4091C66.536 9.4091 1.13099 9.26386 -9.33073 -5.18064Z"></path>
  <path fill="#4B4949" transform="matrix(1.63997 3.39408e-09 -3.39408e-09 1.63997 213.023 207.128)" d="M0 -12C6.90356 -12 12.5 -6.62742 12.5 1.90735e-06C12.5 6.62742 6.90356 12 0 12C-6.90356 12 -12.5 6.62742 -12.5 1.90735e-06C-12.5 -6.62742 -6.90356 -12 0 -12Z"></path>
  <path fill="#827A7A" transform="matrix(1.63997 3.39408e-09 -3.39408e-09 1.63997 217.943 208.768)" d="M1.90735e-06 -12C6.90356 -12 12.5 -6.62742 12.5 1.90735e-06C12.5 6.62742 6.90356 12 1.90735e-06 12C-6.90356 12 -12.5 6.62742 -12.5 1.90735e-06C-12.5 -6.62742 -6.90356 -12 1.90735e-06 -12Z"></path>
  <path fill="none" stroke="white" stroke-width="5" stroke-linecap="round" stroke-linejoin="round" transform="matrix(1.5 0 0 1.5 158.539 362.24)" d=""></path>
</svg>