<?xml version="1.0" encoding="utf-8"?>
<svg xmlns="http://www.w3.org/2000/svg" xmlns:xlink="http://www.w3.org/1999/xlink" width="692" height="512">
  <path fill="none" stroke="black" stroke-width="9" stroke-linecap="round" stroke-miterlimit="4" transform="translate(346 256)" d="M-1.7294 -125.542C104.605 -121.298 190.551 -111.476 190.236 -103.605C189.922 -95.7336 103.467 -92.7933 -2.86715 -97.0376C-109.201 -101.282 -195.147 -111.104 -194.833 -118.975C-194.519 -126.846 -108.063 -129.786 -1.7294 -125.542Z"></path>
  <path fill="#8D5A3E" transform="matrix(2.31969 0.0925902 -0.00685393 0.171714 343.702 144.71)" d="M-1.93249e-08 -83C45.8396 -83 83 -45.8396 83 0C83 45.8396 45.8396 83 1.93249e-08 83C-45.8396 83 -83 45.8396 -83 0C-83 -45.8396 -45.8396 -83 -1.93249e-08 -83Z"></path>
  <path fill="#523329" transform="matrix(1.33382 0.0532394 -0.00632382 0.158433 343.609 147.028)" d="M4.5402e-08 -97.5C45.8396 -97.5 83 -53.8478 83 0C83 53.8478 45.8396 97.5 -4.5402e-08 97.5C-45.8396 97.5 -83 53.8478 -83 0C-83 -53.8478 -45.8396 -97.5 4.5402e-08 -97.5Z"></path>
  <clipPath id="cl_1f4">
    <path d="M344.226 131.581C405.368 134.022 454.657 142.916 454.317 151.447C453.976 159.978 404.135 164.916 342.993 162.476C281.851 160.035 232.561 151.141 232.902 142.609C233.242 134.078 283.084 129.141 344.226 131.581Z"></path>
  </clipPath>
  <g clip-path="url(#cl_1f4)">
    <defs>
      <linearGradient id="gradient_0" gradientUnits="userSpaceOnUse" x1="5.4406481" y1="403.39456" x2="7.5799842" y2="-188.55998">
        <stop offset="0" stop-color="#9F6B5B"></stop>
        <stop offset="1" stop-color="#190603"></stop>
      </linearGradient>
    </defs>
    <path fill="url(#gradient_0)" transform="matrix(1.33382 0.0532394 -0.00551259 0.138109 343.404 152.18)" d="M-5.22239e-07 -97.5C45.8396 -97.5 83 -53.8478 83 0C83 53.8478 45.8396 97.5 -4.31435e-07 97.5C-45.8396 97.5 -83 53.8478 -83 0C-83 -53.8478 -45.8396 -97.5 -5.22239e-07 -97.5Z"></path>
  </g>
  <path fill="none" stroke="black" stroke-width="19" stroke-linecap="round" stroke-linejoin="round" transform="translate(346 256)" d="M-279.537 -36.3155C-279.537 -36.3155 -236.713 -9.71125 -7.06536 8.14141C36.2394 13.2661 120.773 4.56859 120.773 4.56859L131.614 -30.2803C131.614 -30.2803 144.944 5.53335 144.944 5.53335C243.258 9.45758 267.27 -14.4898 267.27 -14.4898C267.331 -16.0209 267.336 -17.5335 267.288 -19.0277"></path>
  <path fill="none" stroke="black" stroke-width="9" stroke-linejoin="round" transform="translate(346 256)" d="M-194.95 -120.267C-208.609 -115.662 -277.03 -89.9528 -279.537 -36.3155C-279.537 -36.3155 -236.713 -9.71125 -7.06536 8.14141C36.2394 13.2661 120.773 4.56859 120.773 4.56859C120.773 4.56859 125.332 -16.087 131.762 -15.8304C138.191 -15.5737 144.944 5.53335 144.944 5.53335C243.258 9.45758 267.27 -14.4898 267.27 -14.4898C269.501 -70.4047 197.32 -101.804 188.356 -105.485"></path>
  <path fill="none" stroke="#E3CEC2" stroke-width="10" stroke-linecap="round" stroke-linejoin="round" transform="translate(346 256)" d="M-279.537 -36.3155C-279.537 -36.3155 -236.713 -9.71125 -7.06536 8.14141C36.2394 13.2661 120.773 4.56859 120.773 4.56859L131.411 -25.1946C131.411 -25.1946 144.944 5.53335 144.944 5.53335C243.258 9.45758 267.27 -14.4898 267.27 -14.4898C267.395 -17.6303 267.286 -20.6934 266.966 -23.6786"></path>
  <path fill="#8D5A3E" transform="matrix(1.76968 0.0706367 -0.0706367 1.76968 51.2169 234.068)" d="M8.27733 -8.45837C8.27733 -8.45837 33.0366 5.58671 163 10.4873C187.547 12.4033 235.043 5.59281 235.043 5.59281C235.043 5.59281 237.149 -6.1632 240.783 -6.16319C244.416 -6.1632 248.701 5.59281 248.701 5.59281C304.256 5.59282 317.263 -8.45837 317.263 -8.45837C317.263 -42.1439 270.172 -58.2041 270.172 -58.2041C255.536 -52.8306 217.367 -48.9464 163 -48.9351C108.633 -48.9238 57.8352 -52.8306 55.4223 -58.2097C55.4223 -58.2097 8.50731 -42.1439 8.27733 -8.45837Z"></path>
  <clipPath id="cl_1f5">
    <path d="M66.4626 219.684C66.4626 219.684 109.287 246.289 338.935 264.141C382.239 269.266 466.773 260.569 466.773 260.569C466.773 260.569 471.332 239.913 477.762 240.17C484.191 240.426 490.944 261.533 490.944 261.533C589.258 265.458 613.27 241.51 613.27 241.51C615.649 181.897 533.447 150.15 533.447 150.15C507.167 158.625 439.346 162.803 343.132 158.983C246.919 155.162 157.299 144.66 153.409 134.97C153.409 134.97 69.249 160.088 66.4626 219.684Z"></path>
  </clipPath>
  <g clip-path="url(#cl_1f5)">
    <path fill="#7F4728" transform="matrix(4.7662 0.0326514 -0.0467913 6.83023 238.344 253.07)" d="M-14.8742 -9.69253L16.7537 -6.3603L15.092 9.39556L-21.0084 4.35254L-14.8742 -9.69253Z"></path>
  </g>
  <path fill="none" stroke="#612F13" stroke-width="1" stroke-linecap="round" stroke-linejoin="round" transform="matrix(0.232531 -2.83738 2.83738 0.232531 260.133 207.175)" d="M1.02357 0.373773L4.21644 0.641897"></path>
  <path fill="none" stroke="#612F13" stroke-width="1" stroke-linecap="round" stroke-linejoin="round" transform="matrix(0.232531 -2.83738 2.83738 0.232531 238.047 205.407)" d="M1.02357 0.373772L4.21644 0.641895"></path>
  <clipPath id="cl_1f6">
    <path d="M66.4626 219.684C66.4626 219.684 109.287 246.289 338.935 264.141C382.239 269.266 466.773 260.569 466.773 260.569C466.773 260.569 471.332 239.913 477.762 240.17C484.191 240.426 490.944 261.533 490.944 261.533C589.258 265.458 613.27 241.51 613.27 241.51C615.649 181.897 533.447 150.15 533.447 150.15C507.167 158.625 439.346 162.803 343.132 158.983C246.919 155.162 157.299 144.66 153.409 134.97C153.409 134.97 69.249 160.088 66.4626 219.684Z"></path>
  </clipPath>
  <g clip-path="url(#cl_1f6)">
    <clipPath id="cl_1f7">
      <path d="M66.4626 219.684C66.4626 219.684 109.287 246.289 338.935 264.141C382.239 269.266 466.773 260.569 466.773 260.569C466.773 260.569 471.332 239.913 477.762 240.17C484.191 240.426 490.944 261.533 490.944 261.533C589.258 265.458 613.27 241.51 613.27 241.51C615.649 181.897 533.447 150.15 533.447 150.15C507.167 158.625 439.346 162.803 343.132 158.983C246.919 155.162 157.299 144.66 153.409 134.97C153.409 134.97 69.249 160.088 66.4626 219.684Z"></path>
    </clipPath>
    <g clip-path="url(#cl_1f7)">
      <path fill="#7F4728" transform="matrix(1.76968 0.0706367 -0.0706367 1.76968 577.182 223.611)" d="M1.51368e-05 -32.5C25.6813 -32.5 46.5 -17.8373 46.5 0.25C46.5 18.3373 25.6813 33 1.53808e-05 33C-25.6812 33 -46.5 18.3373 -46.5 0.25C-46.5 -17.8373 -25.6812 -32.5 1.51368e-05 -32.5Z"></path>
    </g>
    <path fill="none" stroke="#612F13" stroke-width="1" stroke-linecap="round" stroke-linejoin="round" transform="matrix(-2.64684 1.04834 -1.04834 -2.64684 502.519 229.051)" d="M1.02357 0.373773L4.21644 0.641896"></path>
    <path fill="none" stroke="#612F13" stroke-width="1" stroke-linecap="round" stroke-linejoin="round" transform="matrix(-1.57342 2.37259 -2.37259 -1.57342 528.749 260.23)" d="M1.02357 0.373768L4.21644 0.641892"></path>
    <path fill="none" stroke="#612F13" stroke-width="1" stroke-linecap="round" stroke-linejoin="round" transform="matrix(-2.8399 -0.199476 0.199476 -2.8399 504.111 211.389)" d="M1.02357 0.373772L4.21644 0.641895"></path>
  </g>
  <path fill="#A5A5A5" transform="matrix(2.72068 0 0 0.386809 355.013 457.924)" d="M-0.25 -88C55.945 -88 101.5 -48.6011 101.5 0C101.5 48.6011 55.945 88 -0.25 88C-56.445 88 -102 48.6011 -102 0C-102 -48.6011 -56.445 -88 -0.25 -88Z" style="mix-blend-mode: multiply"></path>
</svg>