<?xml version="1.0" encoding="utf-8"?>
<svg xmlns="http://www.w3.org/2000/svg" xmlns:xlink="http://www.w3.org/1999/xlink" width="692" height="512">
  <path fill="none" stroke="black" stroke-width="9" stroke-linecap="round" stroke-miterlimit="4" transform="translate(346 256)" d="M-0.845248 -134.435C105.46 -129.521 191.439 -121.247 191.194 -115.954C190.95 -110.661 104.574 -110.354 -1.73116 -115.267C-108.036 -120.18 -194.015 -128.454 -193.771 -133.747C-193.526 -139.04 -107.15 -139.348 -0.845248 -134.435Z"></path>
  <path fill="#8D5A3E" transform="matrix(2.31907 0.107186 -0.00533684 0.115468 344.712 131.149)" d="M4.76837e-07 -83.0001C45.8396 -83.0001 83 -45.8398 83 -0.00012207C83 45.8395 45.8396 82.9999 4.76837e-07 82.9999C-45.8396 82.9999 -83 45.8395 -83 -0.00012207C-83 -45.8398 -45.8396 -83.0001 4.76837e-07 -83.0001Z"></path>
  <path fill="#523329" transform="matrix(1.33346 0.0616317 -0.00492407 0.106537 344.64 132.708)" d="M2.2701e-08 -97.5C45.8396 -97.5 83 -53.8478 83 0C83 53.8478 45.8396 97.5 -2.2701e-08 97.5C-45.8396 97.5 -83 53.8478 -83 0C-83 -53.8478 -45.8396 -97.5 2.2701e-08 -97.5Z"></path>
  <clipPath id="cl_f8">
    <path d="M345.12 122.321C406.245 125.146 455.582 132.087 455.317 137.823C455.052 143.56 405.285 145.921 344.16 143.095C283.034 140.27 233.697 133.329 233.962 127.593C234.228 121.856 283.994 119.495 345.12 122.321Z"></path>
  </clipPath>
  <g clip-path="url(#cl_f8)">
    <defs>
      <linearGradient id="gradient_0" gradientUnits="userSpaceOnUse" x1="5.4406481" y1="403.39456" x2="7.5799842" y2="-188.55998">
        <stop offset="0" stop-color="#9F6B5B"></stop>
        <stop offset="1" stop-color="#190603"></stop>
      </linearGradient>
    </defs>
    <path fill="url(#gradient_0)" transform="matrix(1.33346 0.0616317 -0.00429241 0.0928704 344.48 136.172)" d="M-4.99538e-07 -97.5001C45.8396 -97.5001 83 -53.8479 83 -0.00012207C83 53.8476 45.8396 97.4999 -4.54136e-07 97.4999C-45.8396 97.4999 -83 53.8476 -83 -0.00012207C-83 -53.8479 -45.8396 -97.5001 -4.99538e-07 -97.5001Z"></path>
  </g>
  <path fill="none" stroke="black" stroke-width="19" stroke-linecap="round" stroke-linejoin="round" transform="translate(346 256)" d="M-279.225 -46.6169C-279.225 -46.6169 -236.354 -24.4082 -6.74729 -6.73832C36.5538 -1.97756 121.036 -7.8811 121.036 -7.8811L132.112 -43.0002C132.112 -43.0002 145.2 -6.76426 145.2 -6.76426C243.488 -2.22144 267.434 -21.3507 267.434 -21.3507C267.502 -22.8211 267.526 -24.2744 267.507 -25.7106"></path>
  <path fill="none" stroke="black" stroke-width="9" stroke-linejoin="round" transform="translate(346 256)" d="M-193.481 -134.493C-206.081 -130.452 -276.138 -105.381 -279.225 -46.6169C-279.225 -46.6169 -236.354 -24.4082 -6.74729 -6.73832C36.5538 -1.97756 121.036 -7.8811 121.036 -7.8811C121.036 -7.8811 125.74 -28.8468 132.168 -28.5497C138.596 -28.2526 145.2 -6.76426 145.2 -6.76426C243.488 -2.22144 267.434 -21.3507 267.434 -21.3507C270.117 -79.4019 204.15 -110.778 190.743 -116.545"></path>
  <path fill="none" stroke="#E3CEC2" stroke-width="10" stroke-linecap="round" stroke-linejoin="round" transform="translate(346 256)" d="M-279.225 -46.6169C-279.225 -46.6169 -236.354 -24.4082 -6.74729 -6.73832C36.5538 -1.97756 121.036 -7.8811 121.036 -7.8811L131.877 -37.9159C131.877 -37.9159 145.2 -6.76426 145.2 -6.76426C243.488 -2.22144 267.434 -21.3507 267.434 -21.3507C267.562 -24.1205 267.534 -26.8295 267.362 -29.4779"></path>
  <path fill="#8D5A3E" transform="matrix(1.76921 0.0817715 -0.0817715 1.76921 51.6704 218.665)" d="M8.27736 -5.62902C8.27736 -5.62902 33.0367 5.77954 163 9.7602C187.547 11.3166 235.043 5.7845 235.043 5.7845C235.043 5.7845 237.15 -6.1632 240.783 -6.1632C244.416 -6.1632 248.701 5.7845 248.701 5.7845C304.256 5.78451 317.263 -5.62902 317.263 -5.62902C317.263 -42.1439 270.172 -57.8099 270.172 -57.8099C255.536 -54.1956 217.367 -51.583 163 -51.5753C108.633 -51.5677 57.8352 -54.1956 55.4223 -57.8137C55.4223 -57.8137 8.50732 -42.1439 8.27736 -5.62902Z"></path>
  <clipPath id="cl_f9">
    <path d="M66.775 209.383C66.775 209.383 109.646 231.592 339.253 249.262C382.554 254.022 467.036 248.119 467.036 248.119C467.036 248.119 471.74 227.153 478.168 227.45C484.596 227.747 491.2 249.236 491.2 249.236C589.488 253.779 613.434 234.649 613.434 234.649C616.42 170.047 534.387 138.48 534.387 138.48C508.198 143.678 440.455 145.179 344.268 140.747C248.081 136.314 158.424 127.511 154.451 120.913C154.451 120.913 70.1677 144.8 66.775 209.383Z"></path>
  </clipPath>
  <g clip-path="url(#cl_f9)">
    <path fill="#7F4728" transform="matrix(4.7659 0.0626432 -0.0897712 6.8298 238.867 234.679)" d="M-14.8742 -9.69254L16.7537 -6.36031L15.092 9.39556L-21.0084 4.35254L-14.8742 -9.69254Z"></path>
  </g>
  <path fill="none" stroke="#612F13" stroke-width="1" stroke-linecap="round" stroke-linejoin="round" transform="matrix(0.250381 -2.83586 2.83586 0.250381 260.944 188.923)" d="M1.02357 0.373768L4.21644 0.641892"></path>
  <path fill="none" stroke="#612F13" stroke-width="1" stroke-linecap="round" stroke-linejoin="round" transform="matrix(0.250381 -2.83586 2.83586 0.250381 238.87 187.016)" d="M1.02357 0.373768L4.21644 0.641892"></path>
  <clipPath id="cl_fa">
    <path d="M66.775 209.383C66.775 209.383 109.646 231.592 339.253 249.262C382.554 254.022 467.036 248.119 467.036 248.119C467.036 248.119 471.74 227.153 478.168 227.45C484.596 227.747 491.2 249.236 491.2 249.236C589.488 253.779 613.434 234.649 613.434 234.649C616.42 170.047 534.387 138.48 534.387 138.48C508.198 143.678 440.455 145.179 344.268 140.747C248.081 136.314 158.424 127.511 154.451 120.913C154.451 120.913 70.1677 144.8 66.775 209.383Z"></path>
  </clipPath>
  <g clip-path="url(#cl_fa)">
    <clipPath id="cl_fb">
      <path d="M66.775 209.383C66.775 209.383 109.646 231.592 339.253 249.262C382.554 254.022 467.036 248.119 467.036 248.119C467.036 248.119 471.74 227.153 478.168 227.45C484.596 227.747 491.2 249.236 491.2 249.236C589.488 253.779 613.434 234.649 613.434 234.649C616.42 170.047 534.387 138.48 534.387 138.48C508.198 143.678 440.455 145.179 344.268 140.747C248.081 136.314 158.424 127.511 154.451 120.913C154.451 120.913 70.1677 144.8 66.775 209.383Z"></path>
    </clipPath>
    <g clip-path="url(#cl_fb)">
      <path fill="#7F4728" transform="matrix(1.76921 0.0817715 -0.0817715 1.76921 577.883 207.353)" d="M1.51368e-05 -32.5C25.6813 -32.5 46.5 -17.8373 46.5 0.25C46.5 18.3373 25.6813 33 1.53808e-05 33C-25.6812 33 -46.5 18.3373 -46.5 0.25C-46.5 -17.8373 -25.6812 -32.5 1.51368e-05 -32.5Z"></path>
    </g>
    <path fill="none" stroke="#612F13" stroke-width="1" stroke-linecap="round" stroke-linejoin="round" transform="matrix(-2.65339 1.03167 -1.03167 -2.65339 503.188 212.323)" d="M1.02357 0.37377L4.21644 0.641894"></path>
    <path fill="none" stroke="#612F13" stroke-width="1" stroke-linecap="round" stroke-linejoin="round" transform="matrix(-1.58832 2.36264 -2.36264 -1.58832 529.221 243.667)" d="M1.02357 0.373775L4.21644 0.641899"></path>
    <path fill="none" stroke="#612F13" stroke-width="1" stroke-linecap="round" stroke-linejoin="round" transform="matrix(-2.83859 -0.217343 0.217343 -2.83859 504.89 194.672)" d="M1.02357 0.373772L4.21644 0.641895"></path>
  </g>
  <path fill="#A5A5A5" transform="matrix(2.77936 0 0 0.335184 355.629 459.112)" d="M-0.25 -87.9999C55.945 -87.9999 101.5 -48.601 101.5 6.10352e-05C101.5 48.6011 55.945 88.0001 -0.25 88.0001C-56.445 88.0001 -102 48.6011 -102 6.10352e-05C-102 -48.601 -56.445 -87.9999 -0.25 -87.9999Z" style="mix-blend-mode: multiply"></path>
</svg>