<?xml version="1.0" encoding="utf-8"?>
<svg xmlns="http://www.w3.org/2000/svg" xmlns:xlink="http://www.w3.org/1999/xlink" width="692" height="512">
  <path fill="none" stroke="black" stroke-width="9" stroke-linecap="round" stroke-miterlimit="4" transform="translate(346 256)" d="M-4.239 -149.398C102.178 -148.858 188.444 -147.923 188.441 -147.31C188.438 -146.697 102.167 -146.638 -4.25027 -147.178C-110.668 -147.718 -196.933 -148.653 -196.93 -149.266C-196.927 -149.879 -110.656 -149.938 -4.239 -149.398Z"></path>
  <path fill="#8D5A3E" transform="matrix(2.32151 0.0117829 -6.78695e-05 0.0133719 341.755 107.712)" d="M0 -83C45.8396 -83 83 -45.8396 83 0C83 45.8396 45.8396 83 0 83C-45.8396 83 -83 45.8396 -83 0C-83 -45.8396 -45.8396 -83 0 -83Z"></path>
  <path fill="#523329" transform="matrix(1.33487 0.00677519 -6.26202e-05 0.0123376 341.754 107.892)" d="M0 -97.5C45.8396 -97.5 83 -53.8478 83 4.94719e-06C83 53.8478 45.8396 97.5 0 97.5C-45.8396 97.5 -83 53.8478 -83 -4.94719e-06C-83 -53.8478 -45.8396 -97.5 0 -97.5Z"></path>
  <clipPath id="cl_49">
    <path d="M341.761 106.689C402.95 107 452.552 107.79 452.549 108.455C452.545 109.119 402.938 109.406 341.748 109.095C280.558 108.785 230.957 107.994 230.96 107.33C230.964 106.666 280.571 106.379 341.761 106.689Z"></path>
  </clipPath>
  <g clip-path="url(#cl_49)">
    <defs>
      <linearGradient id="gradient_0" gradientUnits="userSpaceOnUse" x1="5.4406481" y1="403.39456" x2="7.5799842" y2="-188.55998">
        <stop offset="0" stop-color="#9F6B5B"></stop>
        <stop offset="1" stop-color="#190603"></stop>
      </linearGradient>
    </defs>
    <path fill="url(#gradient_0)" transform="matrix(1.33487 0.00677519 -5.45872e-05 0.0107549 341.752 108.294)" d="M-2.38064e-07 -97.5C45.8396 -97.5 83 -53.8478 83 0C83 53.8478 45.8396 97.5 -2.38773e-07 97.5C-45.8396 97.5 -83 53.8478 -83 0C-83 -53.8478 -45.8396 -97.5 -2.38064e-07 -97.5Z"></path>
  </g>
  <path fill="none" stroke="black" stroke-width="19" stroke-linecap="round" stroke-linejoin="round" transform="translate(346 256)" d="M-278.777 -49.5927C-278.777 -49.5927 -234.986 -37.6488 -4.83288 -32.3908C38.6331 -30.5711 122.781 -35.8279 122.781 -35.8279L132.407 -71.9893C132.407 -71.9893 146.97 -35.7051 146.97 -35.7051C245.362 -35.2057 268.458 -46.8152 268.458 -46.8152C268.465 -48.2442 268.441 -49.6556 268.387 -51.0495"></path>
  <path fill="none" stroke="black" stroke-width="9" stroke-linejoin="round" transform="translate(346 256)" d="M-195.138 -149.303C-201.109 -147.327 -278.026 -120.502 -278.777 -49.5927C-278.777 -49.5927 -234.986 -37.6488 -4.83288 -32.3908C38.6331 -30.5711 122.781 -35.8279 122.781 -35.8279C122.781 -35.8279 126.622 -57.586 133.057 -57.5533C139.492 -57.5207 146.97 -35.7051 146.97 -35.7051C245.362 -35.2057 268.458 -46.8152 268.458 -46.8152C268.779 -110.17 207.419 -138.956 190.078 -145.824"></path>
  <path fill="none" stroke="#E3CEC2" stroke-width="10" stroke-linecap="round" stroke-linejoin="round" transform="translate(346 256)" d="M-278.777 -49.5927C-278.777 -49.5927 -234.986 -37.6488 -4.83288 -32.3908C38.6331 -30.5711 122.781 -35.8279 122.781 -35.8279L132.381 -66.8997C132.381 -66.8997 146.97 -35.7051 146.97 -35.7051C245.362 -35.2057 268.458 -46.8152 268.458 -46.8152C268.469 -48.9483 268.41 -51.0421 268.285 -53.0973"></path>
  <path fill="#8D5A3E" transform="matrix(1.77107 0.00898915 -0.00898915 1.77107 52.5584 207.198)" d="M8.27734 -0.488312C8.27734 -0.488312 33.0366 6.1299 163 8.43912C187.547 9.34198 235.043 6.13278 235.043 6.13278C235.043 6.13278 237.149 -6.1632 240.783 -6.1632C244.416 -6.1632 248.701 6.13278 248.701 6.13278C304.256 6.13278 317.263 -0.48831 317.263 -0.48831C317.263 -42.1439 270.172 -57.0937 270.172 -57.0937C255.536 -56.6756 217.367 -56.3733 163 -56.3725C108.633 -56.3716 57.8352 -56.6756 55.4223 -57.0941C55.4223 -57.0941 8.50729 -42.1439 8.27734 -0.488312Z"></path>
  <clipPath id="cl_4a">
    <path d="M67.2226 206.407C67.2226 206.407 111.014 218.351 341.167 223.609C384.633 225.429 468.781 220.172 468.781 220.172C468.781 220.172 472.622 198.414 479.057 198.447C485.492 198.479 492.97 220.295 492.97 220.295C591.362 220.794 614.458 209.185 614.458 209.185C614.832 135.41 531.565 108.509 531.565 108.509C505.641 109.118 438.038 109.31 341.75 108.823C245.462 108.336 155.498 107.341 151.228 106.578C151.228 106.578 68.0043 132.634 67.2226 206.407Z"></path>
  </clipPath>
  <g clip-path="url(#cl_4a)">
    <path fill="#7F4728" transform="matrix(4.76444 -0.133285 0.191005 6.82772 240.293 207.98)" d="M-14.8742 -9.69254L16.7537 -6.36031L15.092 9.39556L-21.0084 4.35254L-14.8742 -9.69254Z"></path>
  </g>
  <path fill="none" stroke="#612F13" stroke-width="1" stroke-linecap="round" stroke-linejoin="round" transform="matrix(0.133617 -2.84376 2.84376 0.133617 260.471 161.354)" d="M1.02357 0.373772L4.21644 0.641895"></path>
  <path fill="none" stroke="#612F13" stroke-width="1" stroke-linecap="round" stroke-linejoin="round" transform="matrix(0.133617 -2.84376 2.84376 0.133617 238.337 160.357)" d="M1.02357 0.373775L4.21644 0.641899"></path>
  <clipPath id="cl_4b">
    <path d="M67.2226 206.407C67.2226 206.407 111.014 218.351 341.167 223.609C384.633 225.429 468.781 220.172 468.781 220.172C468.781 220.172 472.622 198.414 479.057 198.447C485.492 198.479 492.97 220.295 492.97 220.295C591.362 220.794 614.458 209.185 614.458 209.185C614.832 135.41 531.565 108.509 531.565 108.509C505.641 109.118 438.038 109.31 341.75 108.823C245.462 108.336 155.498 107.341 151.228 106.578C151.228 106.578 68.0043 132.634 67.2226 206.407Z"></path>
  </clipPath>
  <g clip-path="url(#cl_4b)">
    <clipPath id="cl_4c">
      <path d="M67.2226 206.407C67.2226 206.407 111.014 218.351 341.167 223.609C384.633 225.429 468.781 220.172 468.781 220.172C468.781 220.172 472.622 198.414 479.057 198.447C485.492 198.479 492.97 220.295 492.97 220.295C591.362 220.794 614.458 209.185 614.458 209.185C614.832 135.41 531.565 108.509 531.565 108.509C505.641 109.118 438.038 109.31 341.75 108.823C245.462 108.336 155.498 107.341 151.228 106.578C151.228 106.578 68.0043 132.634 67.2226 206.407Z"></path>
    </clipPath>
    <g clip-path="url(#cl_4c)">
      <path fill="#7F4728" transform="matrix(1.77107 0.00898915 -0.00898915 1.77107 577.9 166.744)" d="M1.52504e-08 -32.5C25.6812 -32.5 46.5 -17.8373 46.5 0.249996C46.5 18.3373 25.6812 33 -1.52504e-08 33C-25.6812 33 -46.5 18.3373 -46.5 0.249996C-46.5 -17.8373 -25.6812 -32.5 1.52504e-08 -32.5Z"></path>
    </g>
    <path fill="none" stroke="#612F13" stroke-width="1" stroke-linecap="round" stroke-linejoin="round" transform="matrix(-2.60875 1.13985 -1.13985 -2.60875 503.472 174.779)" d="M1.02357 0.373772L4.21644 0.641895"></path>
    <path fill="none" stroke="#612F13" stroke-width="1" stroke-linecap="round" stroke-linejoin="round" transform="matrix(-1.48987 2.42592 -2.42592 -1.48987 530.771 205.026)" d="M1.02357 0.373768L4.21644 0.641892"></path>
    <path fill="none" stroke="#612F13" stroke-width="1" stroke-linecap="round" stroke-linejoin="round" transform="matrix(-2.84512 -0.100495 0.100495 -2.84512 504.448 157.073)" d="M1.02357 0.373768L4.21644 0.641892"></path>
  </g>
  <path fill="#A5A5A5" transform="matrix(2.88526 0 0 0.241999 356.741 461.255)" d="M-0.25 -88.0001C55.945 -88.0001 101.5 -48.6011 101.5 -6.10352e-05C101.5 48.601 55.945 87.9999 -0.25 87.9999C-56.445 87.9999 -102 48.601 -102 -6.10352e-05C-102 -48.6011 -56.445 -88.0001 -0.25 -88.0001Z" style="mix-blend-mode: multiply"></path>
</svg>