<?xml version="1.0" encoding="utf-8"?>
<svg xmlns="http://www.w3.org/2000/svg" xmlns:xlink="http://www.w3.org/1999/xlink" width="692" height="512">
  <path fill="none" stroke="black" stroke-width="9" stroke-linecap="round" stroke-miterlimit="4" transform="translate(346 256)" d="M-0.637303 -130.373C105.642 -124.934 191.528 -115.236 191.194 -108.713C190.86 -102.189 104.433 -101.311 -1.84635 -106.75C-108.126 -112.189 -194.012 -121.887 -193.678 -128.411C-193.344 -134.934 -106.917 -135.813 -0.637303 -130.373Z"></path>
  <path fill="#8D5A3E" transform="matrix(2.31851 0.118662 -0.00728342 0.142309 344.758 137.438)" d="M2.38419e-07 -83C45.8396 -83 83 -45.8396 83 0C83 45.8396 45.8396 83 2.38419e-07 83C-45.8396 83 -83 45.8396 -83 0C-83 -45.8396 -45.8396 -83 2.38419e-07 -83Z"></path>
  <path fill="#523329" transform="matrix(1.33314 0.0682305 -0.00672009 0.131302 344.66 139.36)" d="M0 -97.5C45.8396 -97.5 83 -53.8478 83 0C83 53.8478 45.8396 97.5 0 97.5C-45.8396 97.5 -83 53.8478 -83 0C-83 -53.8478 -45.8396 -97.5 0 -97.5Z"></path>
  <clipPath id="cl_122">
    <path d="M345.315 126.558C406.426 129.685 455.672 137.952 455.311 145.023C454.949 152.093 405.115 155.289 344.005 152.162C282.894 149.034 233.647 140.767 234.009 133.696C234.371 126.626 284.204 123.43 345.315 126.558Z"></path>
  </clipPath>
  <g clip-path="url(#cl_122)">
    <defs>
      <linearGradient id="gradient_0" gradientUnits="userSpaceOnUse" x1="5.4406481" y1="403.39456" x2="7.5799842" y2="-188.55998">
        <stop offset="0" stop-color="#9F6B5B"></stop>
        <stop offset="1" stop-color="#190603"></stop>
      </linearGradient>
    </defs>
    <path fill="url(#gradient_0)" transform="matrix(1.33314 0.0682305 -0.00585803 0.114459 344.441 143.629)" d="M-4.76837e-07 -97.5C45.8396 -97.5 83 -53.8478 83 0C83 53.8478 45.8396 97.5 -4.76837e-07 97.5C-45.8396 97.5 -83 53.8478 -83 0C-83 -53.8478 -45.8396 -97.5 -4.76837e-07 -97.5Z"></path>
  </g>
  <path fill="none" stroke="black" stroke-width="19" stroke-linecap="round" stroke-linejoin="round" transform="translate(346 256)" d="M-279.44 -44.0974C-279.44 -44.0974 -236.793 -19.4467 -7.31688 0.137461C35.9445 5.4167 120.51 -1.15005 120.51 -1.15005L131.752 -36.0517C131.752 -36.0517 144.669 0.0863743 144.669 0.0863743C242.933 5.11558 267.087 -16.126 267.087 -16.126C267.163 -17.6182 267.191 -19.0931 267.172 -20.5507"></path>
  <path fill="none" stroke="black" stroke-width="9" stroke-linejoin="round" transform="translate(346 256)" d="M-193.57 -129.42C-206.719 -125.214 -276.191 -100.373 -279.44 -44.0974C-279.44 -44.0974 -236.793 -19.4467 -7.31688 0.137461C35.9445 5.4167 120.51 -1.15005 120.51 -1.15005C120.51 -1.15005 125.31 -21.93 131.736 -21.6011C138.163 -21.2722 144.669 0.0863743 144.669 0.0863743C242.933 5.11558 267.087 -16.126 267.087 -16.126C269.985 -72.7525 202.385 -104.603 190.259 -109.851"></path>
  <path fill="none" stroke="#E3CEC2" stroke-width="10" stroke-linecap="round" stroke-linejoin="round" transform="translate(346 256)" d="M-279.44 -44.0974C-279.44 -44.0974 -236.793 -19.4467 -7.31688 0.137461C35.9445 5.4167 120.51 -1.15005 120.51 -1.15005L131.492 -30.9687C131.492 -30.9687 144.669 0.0863743 144.669 0.0863743C242.933 5.11558 267.087 -16.126 267.087 -16.126C267.238 -19.0703 267.198 -21.9477 266.985 -24.7578"></path>
  <path fill="#8D5A3E" transform="matrix(1.76878 0.0905266 -0.0905266 1.76878 51.2872 223.503)" d="M8.27734 -6.98207C8.27734 -6.98207 33.0367 5.68733 163 10.1079C187.547 11.8363 235.043 5.69284 235.043 5.69284C235.043 5.69284 237.149 -6.16319 240.783 -6.16319C244.416 -6.16319 248.701 5.69283 248.701 5.69283C304.256 5.69284 317.263 -6.98207 317.263 -6.98207C317.263 -42.1439 270.172 -57.9984 270.172 -57.9984C255.536 -53.5428 217.367 -50.3221 163 -50.3127C108.633 -50.3033 57.8352 -53.5428 55.4223 -58.0031C55.4223 -58.0031 8.50731 -42.1439 8.27734 -6.98207Z"></path>
  <clipPath id="cl_123">
    <path d="M66.5601 211.903C66.5601 211.903 109.207 236.553 338.683 256.137C381.945 261.417 466.51 254.85 466.51 254.85C466.51 254.85 471.31 234.07 477.737 234.399C484.163 234.728 490.669 256.086 490.669 256.086C588.933 261.116 613.087 239.874 613.087 239.874C616.27 177.68 534.411 145.374 534.411 145.374C508.121 151.93 440.317 154.172 344.153 149.267C247.989 144.362 158.432 134.033 154.568 125.926C154.568 125.926 70.1499 149.73 66.5601 211.903Z"></path>
  </clipPath>
  <g clip-path="url(#cl_123)">
    <path fill="#7F4728" transform="matrix(4.76553 0.0862297 -0.123572 6.82927 238.301 242.421)" d="M-14.8742 -9.69254L16.7537 -6.36031L15.092 9.39556L-21.0084 4.35254L-14.8742 -9.69254Z"></path>
  </g>
  <path fill="none" stroke="#612F13" stroke-width="1" stroke-linecap="round" stroke-linejoin="round" transform="matrix(0.264413 -2.83459 2.83459 0.264413 260.604 196.774)" d="M1.02357 0.373773L4.21644 0.641897"></path>
  <path fill="none" stroke="#612F13" stroke-width="1" stroke-linecap="round" stroke-linejoin="round" transform="matrix(0.264413 -2.83459 2.83459 0.264413 238.54 194.759)" d="M1.02357 0.373772L4.21644 0.641895"></path>
  <clipPath id="cl_124">
    <path d="M66.5601 211.903C66.5601 211.903 109.207 236.553 338.683 256.137C381.945 261.417 466.51 254.85 466.51 254.85C466.51 254.85 471.31 234.07 477.737 234.399C484.163 234.728 490.669 256.086 490.669 256.086C588.933 261.116 613.087 239.874 613.087 239.874C616.27 177.68 534.411 145.374 534.411 145.374C508.121 151.93 440.317 154.172 344.153 149.267C247.989 144.362 158.432 134.033 154.568 125.926C154.568 125.926 70.1499 149.73 66.5601 211.903Z"></path>
  </clipPath>
  <g clip-path="url(#cl_124)">
    <clipPath id="cl_125">
      <path d="M66.5601 211.903C66.5601 211.903 109.207 236.553 338.683 256.137C381.945 261.417 466.51 254.85 466.51 254.85C466.51 254.85 471.31 234.07 477.737 234.399C484.163 234.728 490.669 256.086 490.669 256.086C588.933 261.116 613.087 239.874 613.087 239.874C616.27 177.68 534.411 145.374 534.411 145.374C508.121 151.93 440.317 154.172 344.153 149.267C247.989 144.362 158.432 134.033 154.568 125.926C154.568 125.926 70.1499 149.73 66.5601 211.903Z"></path>
    </clipPath>
    <g clip-path="url(#cl_125)">
      <path fill="#7F4728" transform="matrix(1.76878 0.0905266 -0.0905266 1.76878 577.448 216.774)" d="M1.52588e-05 -32.5C25.6813 -32.5 46.5 -17.8373 46.5 0.25C46.5 18.3373 25.6813 33 1.52588e-05 33C-25.6812 33 -46.5 18.3373 -46.5 0.25C-46.5 -17.8373 -25.6812 -32.5 1.52588e-05 -32.5Z"></path>
    </g>
    <path fill="none" stroke="#612F13" stroke-width="1" stroke-linecap="round" stroke-linejoin="round" transform="matrix(-2.65846 1.01852 -1.01852 -2.65846 502.73 221.373)" d="M1.02357 0.373771L4.21644 0.641894"></path>
    <path fill="none" stroke="#612F13" stroke-width="1" stroke-linecap="round" stroke-linejoin="round" transform="matrix(-1.59999 2.35475 -2.35475 -1.59999 528.607 252.846)" d="M1.02357 0.373768L4.21644 0.641892"></path>
    <path fill="none" stroke="#612F13" stroke-width="1" stroke-linecap="round" stroke-linejoin="round" transform="matrix(-2.83748 -0.231389 0.231389 -2.83748 504.519 203.731)" d="M1.02357 0.373772L4.21644 0.641895"></path>
  </g>
  <path fill="#A5A5A5" transform="matrix(2.75148 0 0 0.35971 355.336 458.548)" d="M-0.25 -88C55.945 -88 101.5 -48.6011 101.5 0C101.5 48.6011 55.945 88 -0.25 88C-56.445 88 -102 48.6011 -102 0C-102 -48.6011 -56.445 -88 -0.25 -88Z" style="mix-blend-mode: multiply"></path>
</svg>