<?xml version="1.0" encoding="utf-8"?>
<svg xmlns="http://www.w3.org/2000/svg" xmlns:xlink="http://www.w3.org/1999/xlink" width="692" height="512">
  <path fill="none" stroke="black" stroke-width="9" stroke-linecap="round" stroke-miterlimit="4" transform="translate(346 256)" d="M-3.02396 -135.183C103.373 -133.038 189.547 -127.445 189.451 -122.691C189.356 -117.936 103.026 -115.819 -3.37098 -117.964C-109.768 -120.108 -195.942 -125.701 -195.846 -130.456C-195.75 -135.211 -109.421 -137.327 -3.02396 -135.183Z"></path>
  <path fill="#8D5A3E" transform="matrix(2.32107 0.0467772 -0.00209046 0.103728 342.803 129.427)" d="M0 -82.9999C45.8396 -82.9999 83 -45.8395 83 0.000119597C83 45.8398 45.8396 83.0001 0 83.0001C-45.8396 83.0001 -83 45.8398 -83 0.000124544C-83 -45.8395 -45.8396 -82.9999 0 -82.9999Z"></path>
  <path fill="#523329" transform="matrix(1.33462 0.0268969 -0.00192877 0.0957052 342.774 130.827)" d="M0 -97.5C45.8396 -97.5 83 -53.8478 83 0C83 53.8478 45.8396 97.5 0 97.5C-45.8396 97.5 -83 53.8478 -83 0C-83 -53.8478 -45.8396 -97.5 0 -97.5Z"></path>
  <clipPath id="cl_26b">
    <path d="M342.962 121.496C404.141 122.729 453.651 127.906 453.547 133.06C453.444 138.213 403.765 141.391 342.586 140.158C281.408 138.926 231.897 133.748 232.001 128.595C232.105 123.441 281.784 120.263 342.962 121.496Z"></path>
  </clipPath>
  <g clip-path="url(#cl_26b)">
    <defs>
      <linearGradient id="gradient_0" gradientUnits="userSpaceOnUse" x1="5.4406481" y1="403.39456" x2="7.5799842" y2="-188.55998">
        <stop offset="0" stop-color="#9F6B5B"></stop>
        <stop offset="1" stop-color="#190603"></stop>
      </linearGradient>
    </defs>
    <path fill="url(#gradient_0)" transform="matrix(1.33462 0.0268969 -0.00168135 0.083428 342.712 133.939)" d="M0 -97.5001C45.8396 -97.5001 83 -53.8479 83 -0.000119597C83 53.8477 45.8396 97.4999 0 97.4999C-45.8396 97.4999 -83 53.8476 -83 -0.000124544C-83 -53.8479 -45.8396 -97.5001 0 -97.5001Z"></path>
  </g>
  <path fill="none" stroke="black" stroke-width="19" stroke-linecap="round" stroke-linejoin="round" transform="translate(346 256)" d="M-279.025 -40.0757C-279.025 -40.0757 -235.57 -19.9733 -5.57442 -8.62957C37.8386 -5.13174 122.129 -12.7561 122.129 -12.7561L132.288 -48.223C132.288 -48.223 146.314 -12.2687 146.314 -12.2687C244.687 -10.2861 268.107 -29.0492 268.107 -29.0492C268.137 -30.5711 268.123 -32.0735 268.065 -33.5564"></path>
  <path fill="none" stroke="black" stroke-width="9" stroke-linejoin="round" transform="translate(346 256)" d="M-195.603 -131.055C-208.16 -126.675 -277.45 -99.8207 -279.025 -40.0757C-279.025 -40.0757 -235.57 -19.9733 -5.57442 -8.62957C37.8386 -5.13174 122.129 -12.7561 122.129 -12.7561C122.129 -12.7561 126.287 -33.9085 132.721 -33.7789C139.154 -33.6492 146.314 -12.2687 146.314 -12.2687C244.687 -10.2861 268.107 -29.0492 268.107 -29.0492C269.292 -87.8582 203.076 -117.483 189.15 -123.058"></path>
  <path fill="none" stroke="#E3CEC2" stroke-width="10" stroke-linecap="round" stroke-linejoin="round" transform="translate(346 256)" d="M-279.025 -40.0757C-279.025 -40.0757 -235.57 -19.9733 -5.57442 -8.62957C37.8386 -5.13174 122.129 -12.7561 122.129 -12.7561L132.186 -43.1344C132.186 -43.1344 146.314 -12.2687 146.314 -12.2687C244.687 -10.2861 268.107 -29.0492 268.107 -29.0492C268.161 -31.745 268.074 -34.3796 267.856 -36.9533"></path>
  <path fill="#8D5A3E" transform="matrix(1.77073 0.0356861 -0.0356861 1.77073 52.1388 224.542)" d="M8.27734 -5.03347C8.27734 -5.03347 33.0367 5.82014 163 9.60715C187.547 11.0878 235.043 5.82485 235.043 5.82485C235.043 5.82485 237.15 -6.16319 240.783 -6.16319C244.416 -6.16319 248.701 5.82485 248.701 5.82485C304.256 5.82486 317.263 -5.03347 317.263 -5.03347C317.263 -42.1439 270.172 -57.7269 270.172 -57.7269C255.536 -54.4829 217.367 -52.1379 163 -52.1311C108.633 -52.1243 57.8352 -54.4829 55.4223 -57.7303C55.4223 -57.7303 8.50731 -42.1439 8.27734 -5.03347Z"></path>
  <clipPath id="cl_26c">
    <path d="M66.9753 215.924C66.9753 215.924 110.43 236.027 340.426 247.37C383.839 250.868 468.129 243.244 468.129 243.244C468.129 243.244 472.287 222.091 478.721 222.221C485.154 222.351 492.314 243.731 492.314 243.731C590.687 245.714 614.107 226.951 614.107 226.951C615.431 161.238 532.601 131.964 532.601 131.964C506.57 137.186 438.899 139.976 342.629 138.048C246.359 136.12 156.494 130.131 152.337 124.295C152.337 124.295 68.7069 150.22 66.9753 215.924Z"></path>
  </clipPath>
  <g clip-path="url(#cl_26c)">
    <path fill="#7F4728" transform="matrix(4.76591 -0.0614483 0.0880589 6.82982 239.702 234.983)" d="M-14.8742 -9.69254L16.7537 -6.3603L15.092 9.39556L-21.0084 4.35254L-14.8742 -9.69254Z"></path>
  </g>
  <path fill="none" stroke="#612F13" stroke-width="1" stroke-linecap="round" stroke-linejoin="round" transform="matrix(0.17647 -2.84142 2.84142 0.17647 260.581 188.667)" d="M1.02357 0.37377L4.21644 0.641893"></path>
  <path fill="none" stroke="#612F13" stroke-width="1" stroke-linecap="round" stroke-linejoin="round" transform="matrix(0.17647 -2.84142 2.84142 0.17647 238.465 187.336)" d="M1.02357 0.373772L4.21644 0.641895"></path>
  <clipPath id="cl_26d">
    <path d="M66.9753 215.924C66.9753 215.924 110.43 236.027 340.426 247.37C383.839 250.868 468.129 243.244 468.129 243.244C468.129 243.244 472.287 222.091 478.721 222.221C485.154 222.351 492.314 243.731 492.314 243.731C590.687 245.714 614.107 226.951 614.107 226.951C615.431 161.238 532.601 131.964 532.601 131.964C506.57 137.186 438.899 139.976 342.629 138.048C246.359 136.12 156.494 130.131 152.337 124.295C152.337 124.295 68.7069 150.22 66.9753 215.924Z"></path>
  </clipPath>
  <g clip-path="url(#cl_26d)">
    <clipPath id="cl_26e">
      <path d="M66.9753 215.924C66.9753 215.924 110.43 236.027 340.426 247.37C383.839 250.868 468.129 243.244 468.129 243.244C468.129 243.244 472.287 222.091 478.721 222.221C485.154 222.351 492.314 243.731 492.314 243.731C590.687 245.714 614.107 226.951 614.107 226.951C615.431 161.238 532.601 131.964 532.601 131.964C506.57 137.186 438.899 139.976 342.629 138.048C246.359 136.12 156.494 130.131 152.337 124.295C152.337 124.295 68.7069 150.22 66.9753 215.924Z"></path>
    </clipPath>
    <g clip-path="url(#cl_26e)">
      <path fill="#7F4728" transform="matrix(1.77073 0.0356861 -0.0356861 1.77073 577.893 198.841)" d="M0 -32.5C25.6812 -32.5 46.5 -17.8373 46.5 0.25C46.5 18.3373 25.6812 33 0 33C-25.6812 33 -46.5 18.3373 -46.5 0.25C-46.5 -17.8373 -25.6812 -32.5 0 -32.5Z"></path>
    </g>
    <path fill="none" stroke="#612F13" stroke-width="1" stroke-linecap="round" stroke-linejoin="round" transform="matrix(-2.62563 1.10039 -1.10039 -2.62563 503.352 205.753)" d="M1.02357 0.373775L4.21644 0.641899"></path>
    <path fill="none" stroke="#612F13" stroke-width="1" stroke-linecap="round" stroke-linejoin="round" transform="matrix(-1.52627 2.40319 -2.40319 -1.52627 530.192 236.409)" d="M1.02357 0.373772L4.21644 0.641895"></path>
    <path fill="none" stroke="#612F13" stroke-width="1" stroke-linecap="round" stroke-linejoin="round" transform="matrix(-2.84328 -0.143373 0.143373 -2.84328 504.595 188.063)" d="M1.02357 0.373773L4.21644 0.641897"></path>
  </g>
  <path fill="#A5A5A5" transform="matrix(2.78913 0 0 0.326582 355.732 459.31)" d="M-0.25 -88.0001C55.945 -88.0001 101.5 -48.6011 101.5 -6.10352e-05C101.5 48.601 55.945 87.9999 -0.25 87.9999C-56.445 87.9999 -102 48.601 -102 -6.10352e-05C-102 -48.6011 -56.445 -88.0001 -0.25 -88.0001Z" style="mix-blend-mode: multiply"></path>
</svg>