<?xml version="1.0" encoding="utf-8"?>
<svg xmlns="http://www.w3.org/2000/svg" xmlns:xlink="http://www.w3.org/1999/xlink" width="692" height="512">
  <path fill="none" stroke="black" stroke-width="9" stroke-linecap="round" stroke-miterlimit="4" transform="translate(346 256)" d="M-3.99607 -144.096C102.419 -143.252 188.673 -140.943 188.657 -138.939C188.641 -136.935 102.362 -135.995 -4.05364 -136.839C-110.469 -137.684 -196.723 -139.992 -196.707 -141.996C-196.691 -144 -110.411 -144.941 -3.99607 -144.096Z"></path>
  <path fill="#8D5A3E" transform="matrix(2.32147 0.0184171 -0.000346821 0.0437167 341.975 115.532)" d="M1.20781e-09 -82.9998C45.8396 -82.9998 83 -45.8394 83 0.000244141C83 45.8399 45.8396 83.0002 -1.20781e-09 83.0002C-45.8396 83.0002 -83 45.8399 -83 0.000244141C-83 -45.8394 -45.8396 -82.9998 1.20781e-09 -82.9998Z"></path>
  <path fill="#523329" transform="matrix(1.33484 0.0105898 -0.000319997 0.0403355 341.97 116.122)" d="M2.39837e-07 -97.5002C45.8396 -97.5002 83 -53.848 83 -0.000244141C83 53.8475 45.8396 97.4998 2.37e-07 97.4998C-45.8396 97.4998 -83 53.8475 -83 -0.000244141C-83 -53.848 -45.8396 -97.5002 2.39837e-07 -97.5002Z"></path>
  <clipPath id="cl_2bf">
    <path d="M342.002 112.19C403.19 112.675 452.78 114.829 452.763 117.001C452.745 119.173 403.128 120.541 341.939 120.055C280.75 119.57 231.161 117.415 231.178 115.243C231.196 113.071 280.813 111.704 342.002 112.19Z"></path>
  </clipPath>
  <g clip-path="url(#cl_2bf)">
    <defs>
      <linearGradient id="gradient_0" gradientUnits="userSpaceOnUse" x1="5.4406481" y1="403.39456" x2="7.5799842" y2="-188.55998">
        <stop offset="0" stop-color="#9F6B5B"></stop>
        <stop offset="1" stop-color="#190603"></stop>
      </linearGradient>
    </defs>
    <path fill="url(#gradient_0)" transform="matrix(1.33484 0.0105898 -0.000278947 0.0351612 341.96 117.434)" d="M0 -97.5005C45.8396 -97.5005 83 -53.8483 83 -0.000485808C83 53.8473 45.8396 97.4995 0 97.4995C-45.8396 97.4995 -83 53.8473 -83 -0.000490755C-83 -53.8483 -45.8396 -97.5005 0 -97.5005Z"></path>
  </g>
  <path fill="none" stroke="black" stroke-width="19" stroke-linecap="round" stroke-linejoin="round" transform="translate(346 256)" d="M-278.817 -45.2602C-278.817 -45.2602 -235.08 -30.6726 -4.94981 -23.878C38.5081 -21.5905 122.68 -27.8281 122.68 -27.8281L132.408 -63.7788C132.408 -63.7788 146.869 -27.6362 146.869 -27.6362C245.259 -26.8556 268.408 -40.9188 268.408 -40.9188C268.42 -42.4236 268.394 -43.9089 268.333 -45.3747"></path>
  <path fill="none" stroke="black" stroke-width="9" stroke-linejoin="round" transform="translate(346 256)" d="M-195.695 -142.139C-205.718 -138.669 -277.913 -111.392 -278.817 -45.2602C-278.817 -45.2602 -235.08 -30.6726 -4.94981 -23.878C38.5081 -21.5905 122.68 -27.8281 122.68 -27.8281C122.68 -27.8281 126.582 -49.392 133.017 -49.341C139.452 -49.2899 146.869 -27.6362 146.869 -27.6362C245.259 -26.8556 268.408 -40.9188 268.408 -40.9188C268.899 -102.844 205.807 -131.702 189.561 -138.103"></path>
  <path fill="none" stroke="#E3CEC2" stroke-width="10" stroke-linecap="round" stroke-linejoin="round" transform="translate(346 256)" d="M-278.817 -45.2602C-278.817 -45.2602 -235.08 -30.6726 -4.94981 -23.878C38.5081 -21.5905 122.68 -27.8281 122.68 -27.8281L132.368 -58.6893C132.368 -58.6893 146.869 -27.6362 146.869 -27.6362C245.259 -26.8556 268.408 -40.9188 268.408 -40.9188C268.426 -43.2374 268.356 -45.5097 268.202 -47.7361"></path>
  <path fill="#8D5A3E" transform="matrix(1.77104 0.0140503 -0.0140503 1.77104 52.4951 214.191)" d="M8.27733 -2.01445C8.27733 -2.01445 33.0366 6.02589 163 8.83131C187.547 9.92818 235.043 6.02939 235.043 6.02939C235.043 6.02939 237.149 -6.1632 240.783 -6.1632C244.416 -6.1632 248.701 6.02939 248.701 6.02939C304.256 6.02939 317.263 -2.01445 317.263 -2.01445C317.263 -42.1439 270.172 -57.3063 270.172 -57.3063C255.536 -55.9393 217.367 -54.9512 163 -54.9483C108.633 -54.9454 57.8352 -55.9393 55.4223 -57.3078C55.4223 -57.3078 8.50729 -42.1439 8.27733 -2.01445Z"></path>
  <clipPath id="cl_2c0">
    <path d="M67.1829 210.74C67.1829 210.74 110.92 225.327 341.05 232.122C384.508 234.409 468.68 228.172 468.68 228.172C468.68 228.172 472.582 206.608 479.017 206.659C485.452 206.71 492.869 228.364 492.869 228.364C591.259 229.144 614.408 215.081 614.408 215.081C614.972 144.01 531.785 116.496 531.785 116.496C505.845 118.711 438.233 119.925 341.946 119.166C245.66 118.407 155.709 115.933 151.455 113.476C151.455 113.476 68.154 139.672 67.1829 210.74Z"></path>
  </clipPath>
  <g clip-path="url(#cl_2c0)">
    <path fill="#7F4728" transform="matrix(4.76481 -0.119669 0.171493 6.82823 240.207 217.953)" d="M-14.8742 -9.69253L16.7537 -6.3603L15.092 9.39556L-21.0084 4.35254L-14.8742 -9.69253Z"></path>
  </g>
  <path fill="none" stroke="#612F13" stroke-width="1" stroke-linecap="round" stroke-linejoin="round" transform="matrix(0.141743 -2.84336 2.84336 0.141743 260.518 171.385)" d="M1.02357 0.373773L4.21644 0.641897"></path>
  <path fill="none" stroke="#612F13" stroke-width="1" stroke-linecap="round" stroke-linejoin="round" transform="matrix(0.141743 -2.84336 2.84336 0.141743 238.387 170.324)" d="M1.02357 0.373768L4.21644 0.641892"></path>
  <clipPath id="cl_2c1">
    <path d="M67.1829 210.74C67.1829 210.74 110.92 225.327 341.05 232.122C384.508 234.409 468.68 228.172 468.68 228.172C468.68 228.172 472.582 206.608 479.017 206.659C485.452 206.71 492.869 228.364 492.869 228.364C591.259 229.144 614.408 215.081 614.408 215.081C614.972 144.01 531.785 116.496 531.785 116.496C505.845 118.711 438.233 119.925 341.946 119.166C245.66 118.407 155.709 115.933 151.455 113.476C151.455 113.476 68.154 139.672 67.1829 210.74Z"></path>
  </clipPath>
  <g clip-path="url(#cl_2c1)">
    <clipPath id="cl_2c2">
      <path d="M67.1829 210.74C67.1829 210.74 110.92 225.327 341.05 232.122C384.508 234.409 468.68 228.172 468.68 228.172C468.68 228.172 472.582 206.608 479.017 206.659C485.452 206.71 492.869 228.364 492.869 228.364C591.259 229.144 614.408 215.081 614.408 215.081C614.972 144.01 531.785 116.496 531.785 116.496C505.845 118.711 438.233 119.925 341.946 119.166C245.66 118.407 155.709 115.933 151.455 113.476C151.455 113.476 68.154 139.672 67.1829 210.74Z"></path>
    </clipPath>
    <g clip-path="url(#cl_2c2)">
      <path fill="#7F4728" transform="matrix(1.77104 0.0140503 -0.0140503 1.77104 577.931 177.682)" d="M1.52588e-05 -32.5C25.6813 -32.5 46.5 -17.8373 46.5 0.25C46.5 18.3373 25.6813 33 1.52588e-05 33C-25.6812 33 -46.5 18.3373 -46.5 0.25C-46.5 -17.8373 -25.6812 -32.5 1.52588e-05 -32.5Z"></path>
    </g>
    <path fill="none" stroke="#612F13" stroke-width="1" stroke-linecap="round" stroke-linejoin="round" transform="matrix(-2.61199 1.13239 -1.13239 -2.61199 503.48 185.504)" d="M1.02357 0.373771L4.21644 0.641895"></path>
    <path fill="none" stroke="#612F13" stroke-width="1" stroke-linecap="round" stroke-linejoin="round" transform="matrix(-1.4968 2.42165 -2.42165 -1.4968 530.692 215.829)" d="M1.02357 0.373772L4.21644 0.641895"></path>
    <path fill="none" stroke="#612F13" stroke-width="1" stroke-linecap="round" stroke-linejoin="round" transform="matrix(-2.84482 -0.108626 0.108626 -2.84482 504.506 167.801)" d="M1.02357 0.373772L4.21644 0.641895"></path>
  </g>
  <path fill="#A5A5A5" transform="matrix(2.85088 0 0 0.272253 356.38 460.559)" d="M-0.25 -88C55.945 -88 101.5 -48.6011 101.5 0C101.5 48.6011 55.945 88 -0.25 88C-56.445 88 -102 48.6011 -102 0C-102 -48.6011 -56.445 -88 -0.25 -88Z" style="mix-blend-mode: multiply"></path>
</svg>