<?xml version="1.0" encoding="utf-8"?>
<svg xmlns="http://www.w3.org/2000/svg" xmlns:xlink="http://www.w3.org/1999/xlink" width="692" height="512">
  <path fill="none" stroke="black" stroke-width="9" stroke-linecap="round" stroke-miterlimit="4" transform="translate(346 256)" d="M-0.733786 -126.772C105.539 -121.211 191.368 -110.543 190.971 -102.945C190.573 -95.3479 104.1 -93.6976 -2.17366 -99.2594C-108.447 -104.821 -194.276 -115.489 -193.878 -123.086C-193.481 -130.684 -107.007 -132.334 -0.733786 -126.772Z"></path>
  <path fill="#8D5A3E" transform="matrix(2.31837 0.12133 -0.00867394 0.165741 344.546 142.984)" d="M1.93249e-08 -83C45.8396 -83 83 -45.8396 83 0C83 45.8396 45.8396 83 -1.93249e-08 83C-45.8396 83 -83 45.8396 -83 0C-83 -45.8396 -45.8396 -83 1.93249e-08 -83Z"></path>
  <path fill="#523329" transform="matrix(1.33306 0.069765 -0.00800306 0.152922 344.429 145.222)" d="M-4.5402e-08 -97.5C45.8396 -97.5 83 -53.8478 83 -2.47359e-06C83 53.8478 45.8396 97.5 4.5402e-08 97.5C-45.8396 97.5 -83 53.8478 -83 2.47359e-06C-83 -53.8478 -45.8396 -97.5 -4.5402e-08 -97.5Z"></path>
  <clipPath id="cl_153">
    <path d="M345.209 130.312C406.317 133.51 455.504 142.778 455.073 151.012C454.642 159.247 404.756 163.33 343.649 160.132C282.542 156.934 233.354 147.666 233.785 139.431C234.216 131.197 284.102 127.114 345.209 130.312Z"></path>
  </clipPath>
  <g clip-path="url(#cl_153)">
    <defs>
      <linearGradient id="gradient_0" gradientUnits="userSpaceOnUse" x1="5.4406481" y1="403.39456" x2="7.5799842" y2="-188.55998">
        <stop offset="0" stop-color="#9F6B5B"></stop>
        <stop offset="1" stop-color="#190603"></stop>
      </linearGradient>
    </defs>
    <path fill="url(#gradient_0)" transform="matrix(1.33306 0.069765 -0.00697642 0.133305 344.169 150.194)" d="M4.76837e-07 -97.5C45.8396 -97.5 83 -53.8478 83 0C83 53.8478 45.8396 97.5 4.76837e-07 97.5C-45.8396 97.5 -83 53.8478 -83 0C-83 -53.8478 -45.8396 -97.5 4.76837e-07 -97.5Z"></path>
  </g>
  <path fill="none" stroke="black" stroke-width="19" stroke-linecap="round" stroke-linejoin="round" transform="translate(346 256)" d="M-279.628 -40.9597C-279.628 -40.9597 -237.111 -14.3144 -7.69348 6.21271C35.5479 11.8072 120.171 4.39436 120.171 4.39436L131.445 -30.3529C131.445 -30.3529 144.327 5.6586 144.327 5.6586C242.586 10.8009 266.866 -12.3593 266.866 -12.3593C266.946 -13.8742 266.971 -15.3718 266.945 -16.8518"></path>
  <path fill="none" stroke="black" stroke-width="9" stroke-linejoin="round" transform="translate(346 256)" d="M-193.923 -124.327C-207.493 -119.953 -276.426 -95.1132 -279.628 -40.9597C-279.628 -40.9597 -237.111 -14.3144 -7.69348 6.21271C35.5479 11.8072 120.171 4.39436 120.171 4.39436C120.171 4.39436 124.987 -16.2386 131.413 -15.9023C137.839 -15.566 144.327 5.6586 144.327 5.6586C242.586 10.8009 266.866 -12.3593 266.866 -12.3593C269.79 -68.2315 199.299 -100.415 189.363 -104.668"></path>
  <path fill="none" stroke="#E3CEC2" stroke-width="10" stroke-linecap="round" stroke-linejoin="round" transform="translate(346 256)" d="M-279.628 -40.9597C-279.628 -40.9597 -237.111 -14.3144 -7.69348 6.21271C35.5479 11.8072 120.171 4.39436 120.171 4.39436L131.179 -25.2702C131.179 -25.2702 144.327 5.6586 144.327 5.6586C242.586 10.8009 266.866 -12.3593 266.866 -12.3593C267.029 -15.4587 266.965 -18.4852 266.698 -21.4381"></path>
  <path fill="#8D5A3E" transform="matrix(1.76867 0.0925625 -0.0925625 1.76867 50.9764 228.711)" d="M8.27736 -8.16251C8.27736 -8.16251 33.0367 5.60688 163 10.4113C187.547 12.2897 235.043 5.61286 235.043 5.61286C235.043 5.61286 237.149 -6.16319 240.783 -6.16319C244.416 -6.16319 248.701 5.61286 248.701 5.61286C304.256 5.61287 317.263 -8.16251 317.263 -8.16251C317.263 -42.1439 270.172 -58.1628 270.172 -58.1628C255.536 -52.9733 217.367 -49.2221 163 -49.2112C108.633 -49.2003 57.8352 -52.9734 55.4223 -58.1683C55.4223 -58.1683 8.50732 -42.1439 8.27736 -8.16251Z"></path>
  <clipPath id="cl_154">
    <path d="M66.3719 215.04C66.3719 215.04 108.889 241.686 338.307 262.213C381.548 267.807 466.171 260.394 466.171 260.394C466.171 260.394 470.987 239.761 477.413 240.098C483.839 240.434 490.327 261.659 490.327 261.659C588.586 266.801 612.866 243.641 612.866 243.641C616.012 183.539 534.206 150.848 534.206 150.848C507.84 158.671 439.984 161.773 343.825 156.76C247.667 151.747 158.171 140.372 154.385 130.96C154.385 130.96 69.9241 154.96 66.3719 215.04Z"></path>
  </clipPath>
  <g clip-path="url(#cl_154)">
    <path fill="#7F4728" transform="matrix(4.76543 0.0917151 -0.131433 6.82912 237.878 249.57)" d="M-14.8742 -9.69254L16.7537 -6.36031L15.092 9.39556L-21.0084 4.35254L-14.8742 -9.69254Z"></path>
  </g>
  <path fill="none" stroke="#612F13" stroke-width="1" stroke-linecap="round" stroke-linejoin="round" transform="matrix(0.267676 -2.83428 2.83428 0.267676 260.234 203.949)" d="M1.02357 0.373773L4.21644 0.641897"></path>
  <path fill="none" stroke="#612F13" stroke-width="1" stroke-linecap="round" stroke-linejoin="round" transform="matrix(0.267676 -2.83428 2.83428 0.267676 238.172 201.908)" d="M1.02357 0.373775L4.21644 0.641899"></path>
  <clipPath id="cl_155">
    <path d="M66.3719 215.04C66.3719 215.04 108.889 241.686 338.307 262.213C381.548 267.807 466.171 260.394 466.171 260.394C466.171 260.394 470.987 239.761 477.413 240.098C483.839 240.434 490.327 261.659 490.327 261.659C588.586 266.801 612.866 243.641 612.866 243.641C616.012 183.539 534.206 150.848 534.206 150.848C507.84 158.671 439.984 161.773 343.825 156.76C247.667 151.747 158.171 140.372 154.385 130.96C154.385 130.96 69.9241 154.96 66.3719 215.04Z"></path>
  </clipPath>
  <g clip-path="url(#cl_155)">
    <clipPath id="cl_156">
      <path d="M66.3719 215.04C66.3719 215.04 108.889 241.686 338.307 262.213C381.548 267.807 466.171 260.394 466.171 260.394C466.171 260.394 470.987 239.761 477.413 240.098C483.839 240.434 490.327 261.659 490.327 261.659C588.586 266.801 612.866 243.641 612.866 243.641C616.012 183.539 534.206 150.848 534.206 150.848C507.84 158.671 439.984 161.773 343.825 156.76C247.667 151.747 158.171 140.372 154.385 130.96C154.385 130.96 69.9241 154.96 66.3719 215.04Z"></path>
    </clipPath>
    <g clip-path="url(#cl_156)">
      <path fill="#7F4728" transform="matrix(1.76867 0.0925625 -0.0925625 1.76867 577.055 224.313)" d="M1.53808e-05 -32.5C25.6813 -32.5 46.5 -17.8373 46.5 0.250002C46.5 18.3373 25.6813 33 1.51368e-05 33C-25.6812 33 -46.5 18.3373 -46.5 0.250002C-46.5 -17.8373 -25.6812 -32.5 1.53808e-05 -32.5Z"></path>
    </g>
    <path fill="none" stroke="#612F13" stroke-width="1" stroke-linecap="round" stroke-linejoin="round" transform="matrix(-2.65963 1.01546 -1.01546 -2.65963 502.331 228.826)" d="M1.02357 0.37377L4.21644 0.641894"></path>
    <path fill="none" stroke="#612F13" stroke-width="1" stroke-linecap="round" stroke-linejoin="round" transform="matrix(-1.6027 2.3529 -2.3529 -1.6027 528.172 260.329)" d="M1.02357 0.373772L4.21644 0.641895"></path>
    <path fill="none" stroke="#612F13" stroke-width="1" stroke-linecap="round" stroke-linejoin="round" transform="matrix(-2.83721 -0.234655 0.234655 -2.83721 504.141 211.186)" d="M1.02357 0.373772L4.21644 0.641895"></path>
  </g>
  <path fill="#A5A5A5" transform="matrix(2.72717 0 0 0.381107 355.081 458.056)" d="M-0.25 -88C55.945 -88 101.5 -48.6011 101.5 0C101.5 48.6011 55.945 88 -0.25 88C-56.445 88 -102 48.6011 -102 0C-102 -48.6011 -56.445 -88 -0.25 -88Z" style="mix-blend-mode: multiply"></path>
</svg>