<?xml version="1.0" encoding="utf-8"?>
<svg xmlns="http://www.w3.org/2000/svg" xmlns:xlink="http://www.w3.org/1999/xlink" width="692" height="512">
  <path fill="none" stroke="black" stroke-width="9" stroke-linecap="round" stroke-miterlimit="4" transform="translate(346 256)" d="M-0.916276 -124.903C105.363 -119.462 191.182 -108.447 190.765 -100.301C190.347 -92.1549 103.853 -89.9617 -2.42651 -95.4025C-108.706 -100.843 -194.524 -111.858 -194.107 -120.004C-193.69 -128.151 -107.196 -130.344 -0.916276 -124.903Z"></path>
  <path fill="#8D5A3E" transform="matrix(2.31851 0.118693 -0.0090978 0.177713 344.329 145.847)" d="M2.38419e-07 -82.9999C45.8396 -82.9999 83 -45.8396 83 6.10352e-05C83 45.8397 45.8396 83.0001 2.38419e-07 83.0001C-45.8396 83.0001 -83 45.8397 -83 6.10352e-05C-83 -45.8396 -45.8396 -82.9999 2.38419e-07 -82.9999Z"></path>
  <path fill="#523329" transform="matrix(1.33314 0.0682485 -0.00839414 0.163968 344.206 148.246)" d="M0 -97.5001C45.8396 -97.5001 83 -53.8478 83 -6.10352e-05C83 53.8477 45.8396 97.4999 0 97.4999C-45.8396 97.4999 -83 53.8477 -83 -6.10352e-05C-83 -53.8478 -45.8396 -97.5001 0 -97.5001Z"></path>
  <clipPath id="cl_17d">
    <path d="M345.024 132.26C406.135 135.388 455.308 145.082 454.856 153.911C454.404 162.74 404.498 167.362 343.387 164.233C282.277 161.105 233.103 151.411 233.555 142.582C234.007 133.753 283.914 129.131 345.024 132.26Z"></path>
  </clipPath>
  <g clip-path="url(#cl_17d)">
    <defs>
      <linearGradient id="gradient_0" gradientUnits="userSpaceOnUse" x1="5.4406481" y1="403.39456" x2="7.5799842" y2="-188.55998">
        <stop offset="0" stop-color="#9F6B5B"></stop>
        <stop offset="1" stop-color="#190603"></stop>
      </linearGradient>
    </defs>
    <path fill="url(#gradient_0)" transform="matrix(1.33314 0.0682485 -0.00731733 0.142934 343.933 153.578)" d="M5.22239e-07 -97.5C45.8396 -97.5 83 -53.8478 83 2.47359e-06C83 53.8478 45.8396 97.5 4.31435e-07 97.5C-45.8396 97.5 -83 53.8478 -83 -2.47359e-06C-83 -53.8478 -45.8396 -97.5 5.22239e-07 -97.5Z"></path>
  </g>
  <path fill="none" stroke="black" stroke-width="19" stroke-linecap="round" stroke-linejoin="round" transform="translate(346 256)" d="M-279.709 -38.8457C-279.709 -38.8457 -237.213 -11.2559 -7.78953 9.35669C35.4513 15.0374 120.09 7.04688 120.09 7.04688L131.321 -27.641C131.321 -27.641 144.248 8.28363 144.248 8.28363C242.513 13.3142 266.818 -10.8669 266.818 -10.8669C266.896 -12.3949 266.917 -13.9053 266.885 -15.3979"></path>
  <path fill="none" stroke="black" stroke-width="9" stroke-linejoin="round" transform="translate(346 256)" d="M-194.229 -121.364C-207.99 -116.886 -276.624 -91.9346 -279.709 -38.8457C-279.709 -38.8457 -237.213 -11.2559 -7.78953 9.35669C35.4513 15.0374 120.09 7.04688 120.09 7.04688C120.09 7.04688 124.879 -13.5194 131.306 -13.1904C137.732 -12.8614 144.248 8.28363 144.248 8.28363C242.513 13.3142 266.818 -10.8669 266.818 -10.8669C269.675 -66.6858 196.682 -99.002 188.708 -102.362"></path>
  <path fill="none" stroke="#E3CEC2" stroke-width="10" stroke-linecap="round" stroke-linejoin="round" transform="translate(346 256)" d="M-279.709 -38.8457C-279.709 -38.8457 -237.213 -11.2559 -7.78953 9.35669C35.4513 15.0374 120.09 7.04688 120.09 7.04688L131.061 -22.558C131.061 -22.558 144.248 8.28363 144.248 8.28363C242.513 13.3142 266.818 -10.8669 266.818 -10.8669C266.98 -14.0466 266.897 -17.1499 266.594 -20.176"></path>
  <path fill="#8D5A3E" transform="matrix(1.76878 0.0905504 -0.0905504 1.76878 50.8565 231.908)" d="M8.27734 -8.76491C8.27734 -8.76491 33.0366 5.56582 163 10.5661C187.547 12.5211 235.043 5.57205 235.043 5.57205C235.043 5.57205 237.149 -6.16319 240.783 -6.16319C244.416 -6.16319 248.701 5.57205 248.701 5.57205C304.256 5.57206 317.263 -8.76491 317.263 -8.76491C317.263 -42.1439 270.172 -58.2468 270.172 -58.2468C255.536 -52.6827 217.367 -48.6608 163 -48.6491C108.633 -48.6373 57.8352 -52.6827 55.4223 -58.2526C55.4223 -58.2526 8.50729 -42.1439 8.27734 -8.76491Z"></path>
  <clipPath id="cl_17e">
    <path d="M66.291 217.154C66.291 217.154 108.787 244.744 338.21 265.357C381.451 271.037 466.09 263.047 466.09 263.047C466.09 263.047 470.879 242.481 477.306 242.81C483.732 243.139 490.248 264.284 490.248 264.284C588.513 269.314 612.818 245.133 612.818 245.133C615.84 186.093 534.004 153.347 534.004 153.347C507.614 161.863 439.737 165.521 343.572 160.618C247.408 155.716 157.925 143.961 154.161 133.891C154.161 133.891 69.7202 158.135 66.291 217.154Z"></path>
  </clipPath>
  <g clip-path="url(#cl_17e)">
    <path fill="#7F4728" transform="matrix(4.76553 0.0862939 -0.123664 6.82927 237.736 253.435)" d="M-14.8742 -9.69253L16.7537 -6.3603L15.092 9.39556L-21.0084 4.35254L-14.8742 -9.69253Z"></path>
  </g>
  <path fill="none" stroke="#612F13" stroke-width="1" stroke-linecap="round" stroke-linejoin="round" transform="matrix(0.264451 -2.83459 2.83459 0.264451 260.04 207.789)" d="M1.02357 0.37377L4.21644 0.641894"></path>
  <path fill="none" stroke="#612F13" stroke-width="1" stroke-linecap="round" stroke-linejoin="round" transform="matrix(0.264451 -2.83459 2.83459 0.264451 237.976 205.772)" d="M1.02357 0.373768L4.21644 0.641892"></path>
  <clipPath id="cl_17f">
    <path d="M66.291 217.154C66.291 217.154 108.787 244.744 338.21 265.357C381.451 271.037 466.09 263.047 466.09 263.047C466.09 263.047 470.879 242.481 477.306 242.81C483.732 243.139 490.248 264.284 490.248 264.284C588.513 269.314 612.818 245.133 612.818 245.133C615.84 186.093 534.004 153.347 534.004 153.347C507.614 161.863 439.737 165.521 343.572 160.618C247.408 155.716 157.925 143.961 154.161 133.891C154.161 133.891 69.7202 158.135 66.291 217.154Z"></path>
  </clipPath>
  <g clip-path="url(#cl_17f)">
    <clipPath id="cl_180">
      <path d="M66.291 217.154C66.291 217.154 108.787 244.744 338.21 265.357C381.451 271.037 466.09 263.047 466.09 263.047C466.09 263.047 470.879 242.481 477.306 242.81C483.732 243.139 490.248 264.284 490.248 264.284C588.513 269.314 612.818 245.133 612.818 245.133C615.84 186.093 534.004 153.347 534.004 153.347C507.614 161.863 439.737 165.521 343.572 160.618C247.408 155.716 157.925 143.961 154.161 133.891C154.161 133.891 69.7202 158.135 66.291 217.154Z"></path>
    </clipPath>
    <g clip-path="url(#cl_180)">
      <path fill="#7F4728" transform="matrix(1.76878 0.0905504 -0.0905504 1.76878 576.884 227.792)" d="M-1.52588e-05 -32.5C25.6812 -32.5 46.5 -17.8373 46.5 0.250002C46.5 18.3373 25.6812 33 -1.52588e-05 33C-25.6813 33 -46.5 18.3373 -46.5 0.250002C-46.5 -17.8373 -25.6813 -32.5 -1.52588e-05 -32.5Z"></path>
    </g>
    <path fill="none" stroke="#612F13" stroke-width="1" stroke-linecap="round" stroke-linejoin="round" transform="matrix(-2.65848 1.01849 -1.01849 -2.65848 502.165 232.391)" d="M1.02356 0.373772L4.21643 0.641895"></path>
    <path fill="none" stroke="#612F13" stroke-width="1" stroke-linecap="round" stroke-linejoin="round" transform="matrix(-1.60002 2.35473 -2.35473 -1.60002 528.042 263.863)" d="M1.02357 0.373772L4.21644 0.641896"></path>
    <path fill="none" stroke="#612F13" stroke-width="1" stroke-linecap="round" stroke-linejoin="round" transform="matrix(-2.83747 -0.231427 0.231427 -2.83747 503.955 214.748)" d="M1.02357 0.373772L4.21644 0.641895"></path>
  </g>
  <path fill="#A5A5A5" transform="matrix(2.71476 0 0 0.392027 354.951 457.804)" d="M-0.25 -88C55.945 -88 101.5 -48.6011 101.5 0C101.5 48.6011 55.945 88 -0.25 88C-56.445 88 -102 48.6011 -102 0C-102 -48.6011 -56.445 -88 -0.25 -88Z" style="mix-blend-mode: multiply"></path>
</svg>