<?xml version="1.0" encoding="utf-8"?>
<svg xmlns="http://www.w3.org/2000/svg" xmlns:xlink="http://www.w3.org/1999/xlink" width="692" height="512">
  <path fill="none" stroke="black" stroke-width="9" stroke-linecap="round" stroke-miterlimit="4" transform="translate(346 256)" d="M-2.28858 -129.05C104.079 -125.749 190.138 -117.624 189.929 -110.903C189.72 -104.181 103.323 -101.408 -3.04396 -104.709C-109.411 -108.01 -195.47 -116.135 -195.261 -122.856C-195.053 -129.578 -108.656 -132.351 -2.28858 -129.05Z"></path>
  <path fill="#8D5A3E" transform="matrix(2.32042 0.0720111 -0.00455046 0.14663 343.334 139.12)" d="M0 -82.9999C45.8396 -82.9999 83 -45.8396 83 5.85616e-05C83 45.8397 45.8396 83.0001 0 83.0001C-45.8396 83.0001 -83 45.8397 -83 6.35087e-05C-83 -45.8396 -45.8396 -82.9999 0 -82.9999Z"></path>
  <path fill="#523329" transform="matrix(1.33424 0.0414064 -0.00419851 0.135289 343.272 141.1)" d="M0 -97.5001C45.8396 -97.5001 83 -53.8478 83 -6.10352e-05C83 53.8477 45.8396 97.4999 0 97.4999C-45.8396 97.4999 -83 53.8477 -83 -6.10352e-05C-83 -53.8478 -45.8396 -97.5001 0 -97.5001Z"></path>
  <clipPath id="cl_22c">
    <path d="M343.682 127.909C404.843 129.807 454.241 137.252 454.015 144.537C453.788 151.822 404.024 156.189 342.863 154.291C281.702 152.393 232.304 144.948 232.53 137.663C232.756 130.378 282.52 126.011 343.682 127.909Z"></path>
  </clipPath>
  <g clip-path="url(#cl_22c)">
    <defs>
      <linearGradient id="gradient_0" gradientUnits="userSpaceOnUse" x1="5.4406481" y1="403.39456" x2="7.5799842" y2="-188.55998">
        <stop offset="0" stop-color="#9F6B5B"></stop>
        <stop offset="1" stop-color="#190603"></stop>
      </linearGradient>
    </defs>
    <path fill="url(#gradient_0)" transform="matrix(1.33424 0.0414064 -0.00365992 0.117934 343.136 145.499)" d="M-4.76837e-07 -97.4999C45.8396 -97.4999 83 -53.8476 83 0.000119597C83 53.8479 45.8396 97.5001 -4.76837e-07 97.5001C-45.8396 97.5001 -83 53.8479 -83 0.000124544C-83 -53.8476 -45.8396 -97.4999 -4.76837e-07 -97.4999Z"></path>
  </g>
  <path fill="none" stroke="black" stroke-width="19" stroke-linecap="round" stroke-linejoin="round" transform="translate(346 256)" d="M-279.299 -37.2101C-279.299 -37.2101 -236.176 -13.0731 -6.35596 2.01388C37.0014 6.46963 121.423 -1.96565 121.423 -1.96565L131.96 -37.061C131.96 -37.061 145.601 -1.21531 145.601 -1.21531C243.947 1.83672 267.68 -20.2354 267.68 -20.2354C267.727 -21.7622 267.723 -23.2699 267.67 -24.7588"></path>
  <path fill="none" stroke="black" stroke-width="9" stroke-linejoin="round" transform="translate(346 256)" d="M-195.265 -123.887C-208.559 -119.32 -277.198 -93.0686 -279.299 -37.2101C-279.299 -37.2101 -236.176 -13.0731 -6.35596 2.01388C37.0014 6.46963 121.423 -1.96565 121.423 -1.96565C121.423 -1.96565 125.803 -22.8126 132.235 -22.613C138.667 -22.4134 145.601 -1.21531 145.601 -1.21531C243.947 1.83672 267.68 -20.2354 267.68 -20.2354C269.433 -76.73 200.808 -107.24 188.869 -112.116"></path>
  <path fill="none" stroke="#E3CEC2" stroke-width="10" stroke-linecap="round" stroke-linejoin="round" transform="translate(346 256)" d="M-279.299 -37.2101C-279.299 -37.2101 -236.176 -13.0731 -6.35596 2.01388C37.0014 6.46963 121.423 -1.96565 121.423 -1.96565L131.802 -31.9738C131.802 -31.9738 145.601 -1.21531 145.601 -1.21531C243.947 1.83672 267.68 -20.2354 267.68 -20.2354C267.772 -23.2098 267.67 -26.1122 267.39 -28.9425"></path>
  <path fill="#8D5A3E" transform="matrix(1.77024 0.0549369 -0.0549369 1.77024 51.653 231.07)" d="M8.27736 -7.19357C8.27736 -7.19357 33.0367 5.67291 163 10.1623C187.547 11.9175 235.043 5.67851 235.043 5.67851C235.043 5.67851 237.149 -6.1632 240.783 -6.16319C244.416 -6.1632 248.701 5.67851 248.701 5.67851C304.256 5.67851 317.263 -7.19357 317.263 -7.19357C317.263 -42.1439 270.172 -58.0279 270.172 -58.0279C255.536 -53.4408 217.367 -50.125 163 -50.1154C108.633 -50.1057 57.8352 -53.4408 55.4223 -58.0327C55.4223 -58.0327 8.50731 -42.1439 8.27736 -7.19357Z"></path>
  <clipPath id="cl_22d">
    <path d="M66.701 218.79C66.701 218.79 109.824 242.927 339.644 258.014C383.001 262.47 467.423 254.034 467.423 254.034C467.423 254.034 471.803 233.187 478.235 233.387C484.667 233.587 491.601 254.785 491.601 254.785C589.947 257.837 613.68 235.765 613.68 235.765C615.6 173.894 533.11 143.189 533.11 143.189C506.95 150.505 439.199 154.278 342.956 151.308C246.712 148.338 156.971 139.644 152.952 131.382C152.952 131.382 69.0282 156.932 66.701 218.79Z"></path>
  </clipPath>
  <g clip-path="url(#cl_22d)">
    <path fill="#7F4728" transform="matrix(4.7663 -0.00962573 0.0137942 6.83037 238.997 246.622)" d="M-14.8742 -9.69253L16.7537 -6.3603L15.092 9.39556L-21.0084 4.35254L-14.8742 -9.69253Z"></path>
  </g>
  <path fill="none" stroke="#612F13" stroke-width="1" stroke-linecap="round" stroke-linejoin="round" transform="matrix(0.207354 -2.83933 2.83933 0.207354 260.378 200.536)" d="M1.02357 0.37377L4.21644 0.641894"></path>
  <path fill="none" stroke="#612F13" stroke-width="1" stroke-linecap="round" stroke-linejoin="round" transform="matrix(0.207354 -2.83933 2.83933 0.207354 238.277 198.964)" d="M1.02357 0.373768L4.21644 0.641892"></path>
  <clipPath id="cl_22e">
    <path d="M66.701 218.79C66.701 218.79 109.824 242.927 339.644 258.014C383.001 262.47 467.423 254.034 467.423 254.034C467.423 254.034 471.803 233.187 478.235 233.387C484.667 233.587 491.601 254.785 491.601 254.785C589.947 257.837 613.68 235.765 613.68 235.765C615.6 173.894 533.11 143.189 533.11 143.189C506.95 150.505 439.199 154.278 342.956 151.308C246.712 148.338 156.971 139.644 152.952 131.382C152.952 131.382 69.0282 156.932 66.701 218.79Z"></path>
  </clipPath>
  <g clip-path="url(#cl_22e)">
    <clipPath id="cl_22f">
      <path d="M66.701 218.79C66.701 218.79 109.824 242.927 339.644 258.014C383.001 262.47 467.423 254.034 467.423 254.034C467.423 254.034 471.803 233.187 478.235 233.387C484.667 233.587 491.601 254.785 491.601 254.785C589.947 257.837 613.68 235.765 613.68 235.765C615.6 173.894 533.11 143.189 533.11 143.189C506.95 150.505 439.199 154.278 342.956 151.308C246.712 148.338 156.971 139.644 152.952 131.382C152.952 131.382 69.0282 156.932 66.701 218.79Z"></path>
    </clipPath>
    <g clip-path="url(#cl_22f)">
      <path fill="#7F4728" transform="matrix(1.77024 0.0549369 -0.0549369 1.77024 577.56 214.159)" d="M6.10016e-08 -32.5C25.6812 -32.5 46.5 -17.8373 46.5 0.250002C46.5 18.3373 25.6812 33 -6.10016e-08 33C-25.6812 33 -46.5 18.3373 -46.5 0.250002C-46.5 -17.8373 -25.6812 -32.5 6.10016e-08 -32.5Z"></path>
    </g>
    <path fill="none" stroke="#612F13" stroke-width="1" stroke-linecap="round" stroke-linejoin="round" transform="matrix(-2.63744 1.07178 -1.07178 -2.63744 502.949 220.261)" d="M1.02357 0.373773L4.21644 0.641896"></path>
    <path fill="none" stroke="#612F13" stroke-width="1" stroke-linecap="round" stroke-linejoin="round" transform="matrix(-1.55231 2.38645 -2.38645 -1.55231 529.454 251.206)" d="M1.02357 0.373764L4.21644 0.641888"></path>
    <path fill="none" stroke="#612F13" stroke-width="1" stroke-linecap="round" stroke-linejoin="round" transform="matrix(-2.84156 -0.174279 0.174279 -2.84156 504.383 202.586)" d="M1.02357 0.373772L4.21644 0.641895"></path>
  </g>
  <path fill="#A5A5A5" transform="matrix(2.74586 0 0 0.364657 355.277 458.434)" d="M-0.25 -88C55.945 -88 101.5 -48.6011 101.5 0C101.5 48.6011 55.945 88 -0.25 88C-56.445 88 -102 48.6011 -102 0C-102 -48.6011 -56.445 -88 -0.25 -88Z" style="mix-blend-mode: multiply"></path>
</svg>