<?xml version="1.0" encoding="utf-8"?>
<svg xmlns="http://www.w3.org/2000/svg" xmlns:xlink="http://www.w3.org/1999/xlink" width="692" height="512">
  <path fill="none" stroke="black" stroke-width="9" stroke-linecap="round" stroke-miterlimit="4" transform="translate(346 256)" d="M-4.65303 -149.932C101.766 -149.834 188.035 -149.478 188.034 -149.136C188.034 -148.795 101.764 -148.598 -4.65417 -148.696C-111.073 -148.794 -197.342 -149.15 -197.341 -149.492C-197.341 -149.833 -111.072 -150.03 -4.65303 -149.932Z"></path>
  <path fill="#8D5A3E" transform="matrix(2.32154 0.00214064 -6.86459e-06 0.0074447 341.346 106.686)" d="M2.38419e-07 -83C45.8396 -83 83 -45.8396 83 0C83 45.8396 45.8396 83 2.38419e-07 83C-45.8396 83 -83 45.8396 -83 0C-83 -45.8396 -45.8396 -83 2.38419e-07 -83Z"></path>
  <path fill="#523329" transform="matrix(1.33489 0.00123087 -6.33365e-06 0.0068689 341.346 106.787)" d="M0 -97.4981C45.8396 -97.4981 83 -53.8458 83 0.00195436C83 53.8497 45.8396 97.502 0 97.502C-45.8396 97.502 -83 53.8497 -83 0.00195189C-83 -53.8458 -45.8396 -97.4981 0 -97.4981Z"></path>
  <clipPath id="cl_31a">
    <path d="M341.347 106.117C402.538 106.173 452.142 106.519 452.142 106.889C452.141 107.259 402.536 107.513 341.346 107.456C280.155 107.4 230.55 107.054 230.551 106.684C230.551 106.314 280.156 106.06 341.347 106.117Z"></path>
  </clipPath>
  <g clip-path="url(#cl_31a)">
    <defs>
      <linearGradient id="gradient_0" gradientUnits="userSpaceOnUse" x1="5.4406481" y1="403.39456" x2="7.5799842" y2="-188.55998">
        <stop offset="0" stop-color="#9F6B5B"></stop>
        <stop offset="1" stop-color="#190603"></stop>
      </linearGradient>
    </defs>
    <path fill="url(#gradient_0)" transform="matrix(1.33489 0.00123087 -5.52117e-06 0.00598775 341.346 107.01)" d="M0 -97.502C45.8396 -97.502 83 -53.8497 83 -0.00195189C83 53.8458 45.8396 97.4981 0 97.4981C-45.8396 97.4981 -83 53.8458 -83 -0.00195436C-83 -53.8497 -45.8396 -97.502 0 -97.502Z"></path>
  </g>
  <path fill="none" stroke="black" stroke-width="19" stroke-linecap="round" stroke-linejoin="round" transform="translate(346 256)" d="M-278.775 -48.9512C-278.775 -48.9512 -234.934 -37.6813 -4.76035 -33.5509C38.7129 -31.9789 122.838 -37.3465 122.838 -37.3465L132.314 -73.5834C132.314 -73.5834 147.027 -37.3242 147.027 -37.3242C245.42 -37.2335 268.468 -48.4467 268.468 -48.4467C268.469 -49.9026 268.438 -51.3402 268.377 -52.7596"></path>
  <path fill="none" stroke="black" stroke-width="9" stroke-linejoin="round" transform="translate(346 256)" d="M-195.542 -149.465C-201.444 -147.49 -278.317 -120.402 -278.775 -48.9512C-278.775 -48.9512 -234.934 -37.6813 -4.76035 -33.5509C38.7129 -31.9789 122.838 -37.3465 122.838 -37.3465C122.838 -37.3465 126.589 -59.1562 133.024 -59.1502C139.459 -59.1443 147.027 -37.3242 147.027 -37.3242C245.42 -37.2335 268.468 -48.4467 268.468 -48.4467C268.526 -111.96 207.615 -140.531 189.922 -147.491"></path>
  <path fill="none" stroke="#E3CEC2" stroke-width="10" stroke-linecap="round" stroke-linejoin="round" transform="translate(346 256)" d="M-278.775 -48.9512C-278.775 -48.9512 -234.934 -37.6813 -4.76035 -33.5509C38.7129 -31.9789 122.838 -37.3465 122.838 -37.3465L132.309 -68.4937C132.309 -68.4937 147.027 -37.3242 147.027 -37.3242C245.42 -37.2335 268.468 -48.4467 268.468 -48.4467C268.469 -50.5389 268.405 -52.5933 268.279 -54.6101"></path>
  <path fill="#8D5A3E" transform="matrix(1.77109 0.00163308 -0.00163308 1.77109 52.5651 207.372)" d="M8.27736 -0.190214C8.27736 -0.190214 33.0367 6.15022 163 8.36251C187.547 9.22748 235.043 6.15298 235.043 6.15298C235.043 6.15298 237.15 -6.16319 240.783 -6.16319C244.416 -6.16319 248.701 6.15298 248.701 6.15298C304.256 6.15298 317.263 -0.190214 317.263 -0.190214C317.263 -42.1439 270.172 -57.0522 270.172 -57.0522C255.536 -56.8194 217.367 -56.6511 163 -56.6506C108.633 -56.6501 57.8352 -56.8194 55.4223 -57.0524C55.4223 -57.0524 8.50729 -42.1439 8.27736 -0.190214Z"></path>
  <clipPath id="cl_31b">
    <path d="M67.2254 207.049C67.2254 207.049 111.066 218.319 341.24 222.449C384.713 224.021 468.838 218.653 468.838 218.653C468.838 218.653 472.589 196.844 479.024 196.85C485.459 196.856 493.027 218.676 493.027 218.676C591.42 218.766 614.468 207.553 614.468 207.553C614.536 133.249 531.157 106.769 531.157 106.769C505.236 107.157 437.635 107.393 341.346 107.305C245.057 107.217 155.089 106.834 150.816 106.418C150.816 106.418 67.7011 132.745 67.2254 207.049Z"></path>
  </clipPath>
  <g clip-path="url(#cl_31b)">
    <path fill="#7F4728" transform="matrix(4.76385 -0.153073 0.219362 6.82686 240.301 207.028)" d="M-14.8742 -9.69253L16.7537 -6.3603L15.092 9.39556L-21.0084 4.35254L-14.8742 -9.69253Z"></path>
  </g>
  <path fill="none" stroke="#612F13" stroke-width="1" stroke-linecap="round" stroke-linejoin="round" transform="matrix(0.121805 -2.84429 2.84429 0.121805 260.286 160.319)" d="M1.02357 0.373773L4.21644 0.641897"></path>
  <path fill="none" stroke="#612F13" stroke-width="1" stroke-linecap="round" stroke-linejoin="round" transform="matrix(0.121805 -2.84429 2.84429 0.121805 238.148 159.413)" d="M1.02357 0.373772L4.21644 0.641895"></path>
  <clipPath id="cl_31c">
    <path d="M67.2254 207.049C67.2254 207.049 111.066 218.319 341.24 222.449C384.713 224.021 468.838 218.653 468.838 218.653C468.838 218.653 472.589 196.844 479.024 196.85C485.459 196.856 493.027 218.676 493.027 218.676C591.42 218.766 614.468 207.553 614.468 207.553C614.536 133.249 531.157 106.769 531.157 106.769C505.236 107.157 437.635 107.393 341.346 107.305C245.057 107.217 155.089 106.834 150.816 106.418C150.816 106.418 67.7011 132.745 67.2254 207.049Z"></path>
  </clipPath>
  <g clip-path="url(#cl_31c)">
    <clipPath id="cl_31d">
      <path d="M67.2254 207.049C67.2254 207.049 111.066 218.319 341.24 222.449C384.713 224.021 468.838 218.653 468.838 218.653C468.838 218.653 472.589 196.844 479.024 196.85C485.459 196.856 493.027 218.676 493.027 218.676C591.42 218.766 614.468 207.553 614.468 207.553C614.536 133.249 531.157 106.769 531.157 106.769C505.236 107.157 437.635 107.393 341.346 107.305C245.057 107.217 155.089 106.834 150.816 106.418C150.816 106.418 67.7011 132.745 67.2254 207.049Z"></path>
    </clipPath>
    <g clip-path="url(#cl_31d)">
      <path fill="#7F4728" transform="matrix(1.77109 0.00163308 -0.00163308 1.77109 577.734 164.39)" d="M-1.52588e-05 -32.5C25.6812 -32.5 46.5 -17.8373 46.5 0.250004C46.5 18.3373 25.6812 33 -1.52588e-05 33C-25.6813 33 -46.5 18.3373 -46.5 0.250004C-46.5 -17.8373 -25.6813 -32.5 -1.52588e-05 -32.5Z"></path>
    </g>
    <path fill="none" stroke="#612F13" stroke-width="1" stroke-linecap="round" stroke-linejoin="round" transform="matrix(-2.60399 1.15067 -1.15067 -2.60399 503.341 172.734)" d="M1.02357 0.373773L4.21644 0.641897"></path>
    <path fill="none" stroke="#612F13" stroke-width="1" stroke-linecap="round" stroke-linejoin="round" transform="matrix(-1.47978 2.43209 -2.43209 -1.47978 530.765 202.868)" d="M1.02357 0.373772L4.21644 0.641895"></path>
    <path fill="none" stroke="#612F13" stroke-width="1" stroke-linecap="round" stroke-linejoin="round" transform="matrix(-2.84551 -0.0886777 0.0886777 -2.84551 504.243 155.024)" d="M1.02357 0.373772L4.21644 0.641895"></path>
  </g>
  <path fill="#A5A5A5" transform="matrix(2.89014 0 0 0.23771 356.792 461.354)" d="M-0.25 -87.9999C55.945 -87.9999 101.5 -48.601 101.5 6.10352e-05C101.5 48.6011 55.945 88.0001 -0.25 88.0001C-56.445 88.0001 -102 48.6011 -102 6.10352e-05C-102 -48.601 -56.445 -87.9999 -0.25 -87.9999Z" style="mix-blend-mode: multiply"></path>
</svg>