<?xml version="1.0" encoding="utf-8"?>
<svg xmlns="http://www.w3.org/2000/svg" xmlns:xlink="http://www.w3.org/1999/xlink" width="692" height="512">
  <path fill="none" stroke="black" stroke-width="9" stroke-linecap="round" stroke-miterlimit="4" transform="translate(346 256)" d="M-4.06614 -144.732C102.35 -143.972 188.606 -141.885 188.593 -140.071C188.58 -138.256 102.303 -137.402 -4.11308 -138.162C-110.529 -138.922 -196.786 -141.009 -196.773 -142.823C-196.76 -144.638 -110.482 -145.492 -4.06614 -144.732Z"></path>
  <path fill="#8D5A3E" transform="matrix(2.32148 0.0165822 -0.000282727 0.0395812 341.91 114.553)" d="M2.37815e-07 -82.9998C45.8396 -82.9998 83 -45.8394 83 0.000241667C83 45.8399 45.8396 83.0002 2.39022e-07 83.0002C-45.8396 83.0002 -83 45.8399 -83 0.000246614C-83 -45.8394 -45.8396 -82.9998 2.37815e-07 -82.9998Z"></path>
  <path fill="#523329" transform="matrix(1.33485 0.00953479 -0.00026086 0.0365199 341.907 115.087)" d="M0 -97.5002C45.8396 -97.5002 83 -53.848 83 -0.000244141C83 53.8475 45.8396 97.4997 0 97.4997C-45.8396 97.4997 -83 53.8475 -83 -0.000244141C-83 -53.848 -45.8396 -97.5002 0 -97.5002Z"></path>
  <clipPath id="cl_2c6">
    <path d="M341.932 111.527C403.121 111.964 452.713 113.912 452.699 115.879C452.685 117.845 403.07 119.085 341.881 118.648C280.692 118.211 231.1 116.262 231.114 114.296C231.128 112.329 280.743 111.09 341.932 111.527Z"></path>
  </clipPath>
  <g clip-path="url(#cl_2c6)">
    <defs>
      <linearGradient id="gradient_0" gradientUnits="userSpaceOnUse" x1="5.4406481" y1="403.39456" x2="7.5799842" y2="-188.55998">
        <stop offset="0" stop-color="#9F6B5B"></stop>
        <stop offset="1" stop-color="#190603"></stop>
      </linearGradient>
    </defs>
    <path fill="url(#gradient_0)" transform="matrix(1.33485 0.00953479 -0.000227396 0.031835 341.898 116.275)" d="M-1.41881e-09 -97.4995C45.8396 -97.4995 83 -53.8473 83 0.000488281C83 53.8483 45.8396 97.5005 1.41881e-09 97.5005C-45.8396 97.5005 -83 53.8483 -83 0.000488281C-83 -53.8473 -45.8396 -97.4995 -1.41881e-09 -97.4995Z"></path>
  </g>
  <path fill="none" stroke="black" stroke-width="19" stroke-linecap="round" stroke-linejoin="round" transform="translate(346 256)" d="M-278.809 -45.6539C-278.809 -45.6539 -235.059 -31.4441 -4.92173 -24.9513C38.5383 -22.7449 122.704 -28.8826 122.704 -28.8826L132.404 -64.8659C132.404 -64.8659 146.893 -28.7098 146.893 -28.7098C245.284 -28.007 268.419 -41.7451 268.419 -41.7451C268.43 -43.2473 268.404 -44.7301 268.342 -46.1935"></path>
  <path fill="none" stroke="black" stroke-width="9" stroke-linejoin="round" transform="translate(346 256)" d="M-195.668 -142.948C-205.323 -139.615 -277.953 -112.34 -278.809 -45.6539C-278.809 -45.6539 -235.059 -31.4441 -4.92173 -24.9513C38.5383 -22.7449 122.704 -28.8826 122.704 -28.8826C122.704 -28.8826 126.59 -50.4745 133.024 -50.4286C139.459 -50.3826 146.893 -28.7098 146.893 -28.7098C245.284 -28.007 268.419 -41.7451 268.419 -41.7451C268.863 -103.88 205.976 -132.698 189.586 -139.151"></path>
  <path fill="none" stroke="#E3CEC2" stroke-width="10" stroke-linecap="round" stroke-linejoin="round" transform="translate(346 256)" d="M-278.809 -45.6539C-278.809 -45.6539 -235.059 -31.4441 -4.92173 -24.9513C38.5383 -22.7449 122.704 -28.8826 122.704 -28.8826L132.368 -59.7763C132.368 -59.7763 146.893 -28.7098 146.893 -28.7098C245.284 -28.007 268.419 -41.7451 268.419 -41.7451C268.436 -44.0382 268.366 -46.286 268.215 -48.4889"></path>
  <path fill="#8D5A3E" transform="matrix(1.77105 0.0126505 -0.0126505 1.77105 52.5084 213.441)" d="M8.27734 -1.80645C8.27734 -1.80645 33.0367 6.04007 163 8.77786C187.547 9.84829 235.043 6.04348 235.043 6.04348C235.043 6.04348 237.15 -6.16319 240.783 -6.16319C244.416 -6.16319 248.701 6.04348 248.701 6.04348C304.256 6.04348 317.263 -1.80645 317.263 -1.80645C317.263 -42.1439 270.172 -57.2773 270.172 -57.2773C255.536 -56.0397 217.367 -55.145 163 -55.1424C108.633 -55.1398 57.8352 -56.0397 55.4223 -57.2786C55.4223 -57.2786 8.50731 -42.1439 8.27734 -1.80645Z"></path>
  <clipPath id="cl_2c7">
    <path d="M67.1908 210.346C67.1908 210.346 110.941 224.556 341.078 231.049C384.538 233.255 468.704 227.117 468.704 227.117C468.704 227.117 472.59 205.525 479.024 205.571C485.459 205.617 492.893 227.29 492.893 227.29C591.284 227.993 614.419 214.255 614.419 214.255C614.93 142.815 531.72 115.418 531.72 115.418C505.784 117.424 438.174 118.526 341.887 117.843C245.6 117.16 155.646 114.923 151.389 112.699C151.389 112.699 68.1084 138.909 67.1908 210.346Z"></path>
  </clipPath>
  <g clip-path="url(#cl_2c7)">
    <path fill="#7F4728" transform="matrix(4.76471 -0.123435 0.176889 6.8281 240.226 216.745)" d="M-14.8742 -9.69253L16.7537 -6.3603L15.092 9.39556L-21.0084 4.35254L-14.8742 -9.69253Z"></path>
  </g>
  <path fill="none" stroke="#612F13" stroke-width="1" stroke-linecap="round" stroke-linejoin="round" transform="matrix(0.139496 -2.84348 2.84348 0.139496 260.5 170.162)" d="M1.02357 0.373773L4.21644 0.641897"></path>
  <path fill="none" stroke="#612F13" stroke-width="1" stroke-linecap="round" stroke-linejoin="round" transform="matrix(0.139496 -2.84348 2.84348 0.139496 238.368 169.118)" d="M1.02357 0.373768L4.21644 0.641892"></path>
  <clipPath id="cl_2c8">
    <path d="M67.1908 210.346C67.1908 210.346 110.941 224.556 341.078 231.049C384.538 233.255 468.704 227.117 468.704 227.117C468.704 227.117 472.59 205.525 479.024 205.571C485.459 205.617 492.893 227.29 492.893 227.29C591.284 227.993 614.419 214.255 614.419 214.255C614.93 142.815 531.72 115.418 531.72 115.418C505.784 117.424 438.174 118.526 341.887 117.843C245.6 117.16 155.646 114.923 151.389 112.699C151.389 112.699 68.1084 138.909 67.1908 210.346Z"></path>
  </clipPath>
  <g clip-path="url(#cl_2c8)">
    <clipPath id="cl_2c9">
      <path d="M67.1908 210.346C67.1908 210.346 110.941 224.556 341.078 231.049C384.538 233.255 468.704 227.117 468.704 227.117C468.704 227.117 472.59 205.525 479.024 205.571C485.459 205.617 492.893 227.29 492.893 227.29C591.284 227.993 614.419 214.255 614.419 214.255C614.93 142.815 531.72 115.418 531.72 115.418C505.784 117.424 438.174 118.526 341.887 117.843C245.6 117.16 155.646 114.923 151.389 112.699C151.389 112.699 68.1084 138.909 67.1908 210.346Z"></path>
    </clipPath>
    <g clip-path="url(#cl_2c9)">
      <path fill="#7F4728" transform="matrix(1.77105 0.0126505 -0.0126505 1.77105 577.917 176.207)" d="M1.52588e-05 -32.5C25.6813 -32.5 46.5 -17.8373 46.5 0.249996C46.5 18.3373 25.6813 33 1.52588e-05 33C-25.6812 33 -46.5 18.3373 -46.5 0.249996C-46.5 -17.8373 -25.6812 -32.5 1.52588e-05 -32.5Z"></path>
    </g>
    <path fill="none" stroke="#612F13" stroke-width="1" stroke-linecap="round" stroke-linejoin="round" transform="matrix(-2.6111 1.13445 -1.13445 -2.6111 503.473 184.088)" d="M1.02357 0.373771L4.21644 0.641895"></path>
    <path fill="none" stroke="#612F13" stroke-width="1" stroke-linecap="round" stroke-linejoin="round" transform="matrix(-1.49489 2.42283 -2.42283 -1.49489 530.709 214.392)" d="M1.02357 0.373772L4.21644 0.641895"></path>
    <path fill="none" stroke="#612F13" stroke-width="1" stroke-linecap="round" stroke-linejoin="round" transform="matrix(-2.84491 -0.106377 0.106377 -2.84491 504.485 166.384)" d="M1.02357 0.373772L4.21644 0.641895"></path>
  </g>
  <path fill="#A5A5A5" transform="matrix(2.85523 0 0 0.268429 356.426 460.647)" d="M-0.25 -87.9999C55.945 -87.9999 101.5 -48.601 101.5 6.10352e-05C101.5 48.6011 55.945 88.0001 -0.25 88.0001C-56.445 88.0001 -102 48.6011 -102 6.10352e-05C-102 -48.601 -56.445 -87.9999 -0.25 -87.9999Z" style="mix-blend-mode: multiply"></path>
</svg>