<?xml version="1.0" encoding="utf-8"?>
<svg xmlns="http://www.w3.org/2000/svg" xmlns:xlink="http://www.w3.org/1999/xlink" width="692" height="512">
  <path fill="none" stroke="black" stroke-width="9" stroke-linecap="round" stroke-miterlimit="4" transform="translate(346 256)" d="M-1.60726 -125.001C104.718 -120.552 190.639 -110.418 190.302 -102.366C189.965 -94.3139 103.498 -91.3931 -2.82734 -95.8421C-109.153 -100.291 -195.074 -110.425 -194.737 -118.477C-194.4 -126.529 -107.933 -129.45 -1.60726 -125.001Z"></path>
  <path fill="#8D5A3E" transform="matrix(2.31951 0.0970552 -0.0073499 0.175655 343.783 145.579)" d="M-2.57744e-07 -82.9999C45.8396 -82.9999 83 -45.8396 83 6.10352e-05C83 45.8397 45.8396 83.0001 -2.19094e-07 83.0001C-45.8396 83.0001 -83 45.8397 -83 6.10352e-05C-83 -45.8396 -45.8396 -82.9999 -2.57744e-07 -82.9999Z"></path>
  <path fill="#523329" transform="matrix(1.33372 0.0558067 -0.00678143 0.162069 343.683 147.95)" d="M-5.22239e-07 -97.4999C45.8396 -97.4999 83 -53.8477 83 6.10352e-05C83 53.8478 45.8396 97.5001 -4.31435e-07 97.5001C-45.8396 97.5001 -83 53.8478 -83 6.10352e-05C-83 -53.8477 -45.8396 -97.4999 -5.22239e-07 -97.4999Z"></path>
  <clipPath id="cl_1e6">
    <path d="M344.345 132.148C405.482 134.706 454.747 143.855 454.382 152.582C454.017 161.309 404.159 166.31 343.022 163.752C281.885 161.193 232.62 152.045 232.985 143.318C233.35 134.591 283.207 129.59 344.345 132.148Z"></path>
  </clipPath>
  <g clip-path="url(#cl_1e6)">
    <defs>
      <linearGradient id="gradient_0" gradientUnits="userSpaceOnUse" x1="5.4406481" y1="403.39456" x2="7.5799842" y2="-188.55998">
        <stop offset="0" stop-color="#9F6B5B"></stop>
        <stop offset="1" stop-color="#190603"></stop>
      </linearGradient>
    </defs>
    <path fill="url(#gradient_0)" transform="matrix(1.33372 0.0558067 -0.0059115 0.141278 343.463 153.22)" d="M-4.76837e-07 -97.5001C45.8396 -97.5001 83 -53.8478 83 -6.10352e-05C83 53.8477 45.8396 97.4999 -4.76837e-07 97.4999C-45.8396 97.4999 -83 53.8477 -83 -6.10352e-05C-83 -53.8478 -45.8396 -97.5001 -4.76837e-07 -97.5001Z"></path>
  </g>
  <path fill="none" stroke="black" stroke-width="19" stroke-linecap="round" stroke-linejoin="round" transform="translate(346 256)" d="M-279.585 -36.3331C-279.585 -36.3331 -236.826 -9.31825 -7.21805 9.09094C36.0749 14.3438 120.632 5.64982 120.632 5.64982L131.539 -29.1542C131.539 -29.1542 144.801 6.66111 144.801 6.66111C243.108 10.7746 267.178 -13.4549 267.178 -13.4549C267.243 -14.9868 267.25 -16.5004 267.204 -17.9957"></path>
  <path fill="none" stroke="black" stroke-width="9" stroke-linejoin="round" transform="translate(346 256)" d="M-194.87 -119.811C-208.584 -115.209 -276.989 -89.6225 -279.585 -36.3331C-279.585 -36.3331 -236.826 -9.31825 -7.21805 9.09094C36.0749 14.3438 120.632 5.64982 120.632 5.64982C120.632 5.64982 125.229 -14.9731 131.659 -14.7041C138.088 -14.4351 144.801 6.66111 144.801 6.66111C243.108 10.7746 267.178 -13.4549 267.178 -13.4549C269.517 -69.3322 196.61 -100.933 188.289 -104.355"></path>
  <path fill="none" stroke="#E3CEC2" stroke-width="10" stroke-linecap="round" stroke-linejoin="round" transform="translate(346 256)" d="M-279.585 -36.3331C-279.585 -36.3331 -236.826 -9.31825 -7.21805 9.09094C36.0749 14.3438 120.632 5.64982 120.632 5.64982L131.326 -24.069C131.326 -24.069 144.801 6.66111 144.801 6.66111C243.108 10.7746 267.178 -13.4549 267.178 -13.4549C267.311 -16.6216 267.202 -19.7103 266.876 -22.7203"></path>
  <path fill="#8D5A3E" transform="matrix(1.76955 0.074043 -0.074043 1.76955 51.1264 234.374)" d="M8.27733 -8.65742C8.27733 -8.65742 33.0366 5.57315 163 10.5384C187.547 12.4798 235.043 5.57933 235.043 5.57933C235.043 5.57933 237.149 -6.16319 240.783 -6.16319C244.416 -6.16319 248.701 5.57933 248.701 5.57933C304.256 5.57933 317.263 -8.65742 317.263 -8.65742C317.263 -42.1439 270.172 -58.2318 270.172 -58.2318C255.536 -52.7346 217.367 -48.761 163 -48.7494C108.633 -48.7378 57.8352 -52.7346 55.4223 -58.2376C55.4223 -58.2376 8.50726 -42.1439 8.27733 -8.65742Z"></path>
  <clipPath id="cl_1e7">
    <path d="M66.4145 219.667C66.4145 219.667 109.174 246.682 338.782 265.091C382.075 270.344 466.632 261.65 466.632 261.65C466.632 261.65 471.229 241.027 477.659 241.296C484.088 241.565 490.801 262.661 490.801 262.661C589.108 266.775 613.178 242.545 613.178 242.545C615.658 183.289 533.519 151.334 533.519 151.334C507.214 159.978 439.378 164.183 343.172 160.178C246.966 156.173 157.373 145.34 153.511 135.423C153.511 135.423 69.3009 160.428 66.4145 219.667Z"></path>
  </clipPath>
  <g clip-path="url(#cl_1e7)">
    <path fill="#7F4728" transform="matrix(4.76612 0.0418256 -0.0599385 6.83013 238.205 254.016)" d="M-14.8742 -9.69253L16.7537 -6.3603L15.092 9.39556L-21.0084 4.35254L-14.8742 -9.69253Z"></path>
  </g>
  <path fill="none" stroke="#612F13" stroke-width="1" stroke-linecap="round" stroke-linejoin="round" transform="matrix(0.237992 -2.83693 2.83693 0.237992 260.082 208.164)" d="M1.02357 0.373772L4.21644 0.641895"></path>
  <path fill="none" stroke="#612F13" stroke-width="1" stroke-linecap="round" stroke-linejoin="round" transform="matrix(0.237992 -2.83693 2.83693 0.237992 238 206.353)" d="M1.02357 0.373772L4.21644 0.641895"></path>
  <clipPath id="cl_1e8">
    <path d="M66.4145 219.667C66.4145 219.667 109.174 246.682 338.782 265.091C382.075 270.344 466.632 261.65 466.632 261.65C466.632 261.65 471.229 241.027 477.659 241.296C484.088 241.565 490.801 262.661 490.801 262.661C589.108 266.775 613.178 242.545 613.178 242.545C615.658 183.289 533.519 151.334 533.519 151.334C507.214 159.978 439.378 164.183 343.172 160.178C246.966 156.173 157.373 145.34 153.511 135.423C153.511 135.423 69.3009 160.428 66.4145 219.667Z"></path>
  </clipPath>
  <g clip-path="url(#cl_1e8)">
    <clipPath id="cl_1e9">
      <path d="M66.4145 219.667C66.4145 219.667 109.174 246.682 338.782 265.091C382.075 270.344 466.632 261.65 466.632 261.65C466.632 261.65 471.229 241.027 477.659 241.296C484.088 241.565 490.801 262.661 490.801 262.661C589.108 266.775 613.178 242.545 613.178 242.545C615.658 183.289 533.519 151.334 533.519 151.334C507.214 159.978 439.378 164.183 343.172 160.178C246.966 156.173 157.373 145.34 153.511 135.423C153.511 135.423 69.3009 160.428 66.4145 219.667Z"></path>
    </clipPath>
    <g clip-path="url(#cl_1e9)">
      <path fill="#7F4728" transform="matrix(1.76955 0.074043 -0.074043 1.76955 577.099 225.21)" d="M0 -32.5C25.6812 -32.5 46.5 -17.8373 46.5 0.250002C46.5 18.3373 25.6812 33 0 33C-25.6812 33 -46.5 18.3373 -46.5 0.250002C-46.5 -17.8373 -25.6812 -32.5 0 -32.5Z"></path>
    </g>
    <path fill="none" stroke="#612F13" stroke-width="1" stroke-linecap="round" stroke-linejoin="round" transform="matrix(-2.64886 1.04325 -1.04325 -2.64886 502.426 230.505)" d="M1.02357 0.373772L4.21644 0.641895"></path>
    <path fill="none" stroke="#612F13" stroke-width="1" stroke-linecap="round" stroke-linejoin="round" transform="matrix(-1.57798 2.36955 -2.36955 -1.57798 528.595 261.735)" d="M1.02357 0.373768L4.21644 0.641892"></path>
    <path fill="none" stroke="#612F13" stroke-width="1" stroke-linecap="round" stroke-linejoin="round" transform="matrix(-2.83951 -0.204942 0.204942 -2.83951 504.051 212.847)" d="M1.02357 0.37377L4.21644 0.641894"></path>
  </g>
  <path fill="#A5A5A5" transform="matrix(2.71673 0 0 0.390292 354.971 457.844)" d="M-0.25 -88.0001C55.945 -88.0001 101.5 -48.6011 101.5 -6.10352e-05C101.5 48.601 55.945 87.9999 -0.25 87.9999C-56.445 87.9999 -102 48.601 -102 -6.10352e-05C-102 -48.6011 -56.445 -88.0001 -0.25 -88.0001Z" style="mix-blend-mode: multiply"></path>
</svg>