<?xml version="1.0" encoding="utf-8"?>
<svg xmlns="http://www.w3.org/2000/svg" xmlns:xlink="http://www.w3.org/1999/xlink" width="692" height="512">
  <path fill="none" stroke="black" stroke-width="9" stroke-linecap="round" stroke-miterlimit="4" transform="translate(346 256)" d="M-2.52434 -130.886C103.854 -127.97 189.955 -120.64 189.787 -114.512C189.619 -108.385 103.246 -105.781 -3.13247 -108.696C-109.511 -111.612 -195.612 -118.942 -195.444 -125.07C-195.276 -131.197 -108.903 -133.801 -2.52434 -130.886Z"></path>
  <path fill="#8D5A3E" transform="matrix(2.32067 0.0636008 -0.00366344 0.133672 343.172 136.209)" d="M0 -83.0001C45.8396 -83.0001 83 -45.8397 83 -6.10352e-05C83 45.8396 45.8396 82.9999 0 82.9999C-45.8396 82.9999 -83 45.8396 -83 -6.10352e-05C-83 -45.8397 -45.8396 -83.0001 0 -83.0001Z"></path>
  <path fill="#523329" transform="matrix(1.33439 0.0365704 -0.00338009 0.123333 343.122 138.014)" d="M0 -97.5001C45.8396 -97.5001 83 -53.8478 83 -5.85616e-05C83 53.8477 45.8396 97.4999 0 97.4999C-45.8396 97.4999 -83 53.8477 -83 -6.35087e-05C-83 -53.8478 -45.8396 -97.5001 0 -97.5001Z"></path>
  <clipPath id="cl_241">
    <path d="M343.452 125.989C404.619 127.665 454.058 134.408 453.876 141.049C453.694 147.69 403.96 151.715 342.793 150.039C281.625 148.362 232.186 141.619 232.368 134.978C232.55 128.337 282.284 124.312 343.452 125.989Z"></path>
  </clipPath>
  <g clip-path="url(#cl_241)">
    <defs>
      <linearGradient id="gradient_0" gradientUnits="userSpaceOnUse" x1="5.4406481" y1="403.39456" x2="7.5799842" y2="-188.55998">
        <stop offset="0" stop-color="#9F6B5B"></stop>
        <stop offset="1" stop-color="#190603"></stop>
      </linearGradient>
    </defs>
    <path fill="url(#gradient_0)" transform="matrix(1.33439 0.0365704 -0.00294649 0.107512 343.012 142.024)" d="M0 -97.5C45.8396 -97.5 83 -53.8478 83 0C83 53.8478 45.8396 97.5 0 97.5C-45.8396 97.5 -83 53.8478 -83 0C-83 -53.8478 -45.8396 -97.5 0 -97.5Z"></path>
  </g>
  <path fill="none" stroke="black" stroke-width="19" stroke-linecap="round" stroke-linejoin="round" transform="translate(346 256)" d="M-279.202 -37.9639C-279.202 -37.9639 -235.962 -15.0602 -6.07903 -1.18194C37.2982 2.96975 121.675 -5.24928 121.675 -5.24928L132.086 -40.4609C132.086 -40.4609 145.855 -4.58658 145.855 -4.58658C244.211 -1.891 267.835 -22.9717 267.835 -22.9717C267.877 -24.4969 267.869 -26.0029 267.814 -27.4897"></path>
  <path fill="none" stroke="black" stroke-width="9" stroke-linejoin="round" transform="translate(346 256)" d="M-195.38 -125.968C-208.47 -121.444 -277.271 -94.9821 -279.202 -37.9639C-279.202 -37.9639 -235.962 -15.0602 -6.07903 -1.18194C37.2982 2.96975 121.675 -5.24928 121.675 -5.24928C121.675 -5.24928 125.981 -26.1902 132.414 -26.0139C138.846 -25.8377 145.855 -4.58658 145.855 -4.58658C244.211 -1.891 267.835 -22.9717 267.835 -22.9717C269.403 -80.174 201.517 -110.374 188.945 -115.471"></path>
  <path fill="none" stroke="#E3CEC2" stroke-width="10" stroke-linecap="round" stroke-linejoin="round" transform="translate(346 256)" d="M-279.202 -37.9639C-279.202 -37.9639 -235.962 -15.0602 -6.07903 -1.18194C37.2982 2.96975 121.675 -5.24928 121.675 -5.24928L131.947 -35.3731C131.947 -35.3731 145.855 -4.58658 145.855 -4.58658C244.211 -1.891 267.835 -22.9717 267.835 -22.9717C267.914 -25.8612 267.816 -28.6818 267.557 -31.4337"></path>
  <path fill="#8D5A3E" transform="matrix(1.77043 0.0485208 -0.0485208 1.77043 51.826 229.215)" d="M8.27733 -6.54085C8.27733 -6.54085 33.0366 5.7174 163 9.99452C187.547 11.6668 235.043 5.72273 235.043 5.72273C235.043 5.72273 237.149 -6.16319 240.783 -6.16319C244.416 -6.16319 248.701 5.72273 248.701 5.72273C304.256 5.72273 317.263 -6.54085 317.263 -6.54085C317.263 -42.1439 270.172 -57.9369 270.172 -57.9369C255.536 -53.7557 217.367 -50.7333 163 -50.7245C108.633 -50.7157 57.8352 -53.7557 55.4223 -57.9413C55.4223 -57.9413 8.50729 -42.1439 8.27733 -6.54085Z"></path>
  <clipPath id="cl_242">
    <path d="M66.7978 218.036C66.7978 218.036 110.038 240.94 339.921 254.818C383.298 258.97 467.675 250.751 467.675 250.751C467.675 250.751 471.981 229.81 478.414 229.986C484.846 230.162 491.855 251.413 491.855 251.413C590.211 254.109 613.835 233.028 613.835 233.028C615.562 169.996 532.957 139.75 532.957 139.75C506.843 146.443 439.121 149.942 342.867 147.319C246.614 144.697 156.827 136.85 152.759 129.323C152.759 129.323 68.9324 155.015 66.7978 218.036Z"></path>
  </clipPath>
  <g clip-path="url(#cl_242)">
    <path fill="#7F4728" transform="matrix(4.76623 -0.0268999 0.0385492 6.83028 239.25 243.163)" d="M-14.8742 -9.69253L16.7537 -6.3603L15.092 9.39556L-21.0084 4.35254L-14.8742 -9.69253Z"></path>
  </g>
  <path fill="none" stroke="#612F13" stroke-width="1" stroke-linecap="round" stroke-linejoin="round" transform="matrix(0.197062 -2.84007 2.84007 0.197062 260.464 197)" d="M1.02357 0.373773L4.21644 0.641897"></path>
  <path fill="none" stroke="#612F13" stroke-width="1" stroke-linecap="round" stroke-linejoin="round" transform="matrix(0.197062 -2.84007 2.84007 0.197062 238.358 195.508)" d="M1.02357 0.373768L4.21644 0.641892"></path>
  <clipPath id="cl_243">
    <path d="M66.7978 218.036C66.7978 218.036 110.038 240.94 339.921 254.818C383.298 258.97 467.675 250.751 467.675 250.751C467.675 250.751 471.981 229.81 478.414 229.986C484.846 230.162 491.855 251.413 491.855 251.413C590.211 254.109 613.835 233.028 613.835 233.028C615.562 169.996 532.957 139.75 532.957 139.75C506.843 146.443 439.121 149.942 342.867 147.319C246.614 144.697 156.827 136.85 152.759 129.323C152.759 129.323 68.9324 155.015 66.7978 218.036Z"></path>
  </clipPath>
  <g clip-path="url(#cl_243)">
    <clipPath id="cl_244">
      <path d="M66.7978 218.036C66.7978 218.036 110.038 240.94 339.921 254.818C383.298 258.97 467.675 250.751 467.675 250.751C467.675 250.751 471.981 229.81 478.414 229.986C484.846 230.162 491.855 251.413 491.855 251.413C590.211 254.109 613.835 233.028 613.835 233.028C615.562 169.996 532.957 139.75 532.957 139.75C506.843 146.443 439.121 149.942 342.867 147.319C246.614 144.697 156.827 136.85 152.759 129.323C152.759 129.323 68.9324 155.015 66.7978 218.036Z"></path>
    </clipPath>
    <g clip-path="url(#cl_244)">
      <path fill="#7F4728" transform="matrix(1.77043 0.0485208 -0.0485208 1.77043 577.693 209.473)" d="M-1.52588e-05 -32.5C25.6812 -32.5 46.5 -17.8373 46.5 0.25C46.5 18.3373 25.6812 33 -1.52588e-05 33C-25.6813 33 -46.5 18.3373 -46.5 0.25C-46.5 -17.8373 -25.6813 -32.5 -1.52588e-05 -32.5Z"></path>
    </g>
    <path fill="none" stroke="#612F13" stroke-width="1" stroke-linecap="round" stroke-linejoin="round" transform="matrix(-2.63354 1.08133 -1.08133 -2.63354 503.105 215.845)" d="M1.02357 0.373773L4.21644 0.641897"></path>
    <path fill="none" stroke="#612F13" stroke-width="1" stroke-linecap="round" stroke-linejoin="round" transform="matrix(-1.54365 2.39206 -2.39206 -1.54365 529.722 246.694)" d="M1.02357 0.373772L4.21644 0.641895"></path>
    <path fill="none" stroke="#612F13" stroke-width="1" stroke-linecap="round" stroke-linejoin="round" transform="matrix(-2.84217 -0.163979 0.163979 -2.84217 504.475 198.165)" d="M1.02358 0.373772L4.21645 0.641895"></path>
  </g>
  <path fill="#A5A5A5" transform="matrix(2.75889 0 0 0.353194 355.414 458.698)" d="M-0.25 -88C55.945 -88 101.5 -48.6011 101.5 0C101.5 48.6011 55.945 88 -0.25 88C-56.445 88 -102 48.6011 -102 0C-102 -48.6011 -56.445 -88 -0.25 -88Z" style="mix-blend-mode: multiply"></path>
</svg>