<?xml version="1.0" encoding="utf-8"?>
<svg xmlns="http://www.w3.org/2000/svg" xmlns:xlink="http://www.w3.org/1999/xlink" width="512" height="512">
  <path fill="#312F2F" transform="matrix(1.14003 -0.0461421 0.0566178 1.39885 250.741 197.895)" d="M0 -128C70.6924 -128 128 -70.6924 128 0C128 70.6924 70.6924 128 0 128C-70.6924 128 -128 70.6924 -128 0C-128 -70.6924 -70.6924 -128 0 -128Z"></path>
  <path fill="none" stroke="black" stroke-width="7" stroke-miterlimit="4" transform="translate(256 256)" d="M14.0722 -238.234C94.6639 -241.496 163.241 -163.976 167.243 -65.087C171.246 33.8014 109.158 116.611 28.5664 119.873C-52.0253 123.134 -120.602 45.6138 -124.605 -53.2747C-128.607 -152.163 -66.5194 -234.972 14.0722 -238.234Z"></path>
  <path fill="none" stroke="black" stroke-width="7" stroke-linejoin="round" transform="translate(256 256)" d="M14.0722 -238.234C14.0722 -238.234 -6.59116 -237.398 -11.5088 -237.199C-76.8034 -232.729 -156.603 -186.101 -151.183 -52.1989C-145.763 81.7034 -48.1741 122.979 1.98817 120.948C6.90579 120.749 28.5664 119.873 28.5664 119.873C27.421 119.919 26.1904 119.92 24.8812 119.873"></path>
  <path fill="#DEDEDE" transform="matrix(1.14003 -0.0461421 0.0566178 1.39885 277.319 196.819)" d="M-1.90735e-06 -128C70.6924 -128 128 -70.6924 128 0C128 70.6924 70.6924 128 -1.90735e-06 128C-70.6924 128 -128 70.6924 -128 0C-128 -70.6924 -70.6924 -128 -1.90735e-06 -128Z"></path>
  <clipPath id="cl_57">
    <path d="M270.072 17.7657C350.664 14.5038 419.241 92.0245 423.243 190.913C427.246 289.801 365.158 372.611 284.566 375.873C203.975 379.134 135.398 301.614 131.395 202.725C127.393 103.837 189.481 21.0276 270.072 17.7657Z"></path>
  </clipPath>
  <g clip-path="url(#cl_57)">
    <path fill="#F2F1F1" transform="matrix(1.09503 0.417328 -0.32216 1.33595 281.91 253.807)" d="M-170.753 -28.5017L169.944 -28.5017L169.944 28.5017L-170.753 28.5017L-170.753 -28.5017Z"></path>
    <path fill="#F2F1F1" transform="matrix(1.09503 0.417328 -0.32216 1.33595 267.413 304.725)" d="M-170.753 -5.22016L169.944 -5.22017L169.944 5.22015L-170.753 5.22016L-170.753 -5.22016Z"></path>
  </g>
  <path fill="#8B8B8B" transform="matrix(1.14003 -0.0461421 0.0566178 1.39885 284.673 195.12)" d="M0.25 -87.5C51.4744 -87.5 93 -48.4368 93 -0.25C93 47.9368 51.4744 87 0.25 87C-50.9744 87 -92.5 47.9368 -92.5 -0.25C-92.5 -48.4368 -50.9744 -87.5 0.25 -87.5Z"></path>
  <path fill="#B0AFAF" transform="matrix(1.14003 -0.0461421 0.0566178 1.39885 277.319 196.819)" d="M-1.90735e-06 -86C47.4965 -86 86 -47.4965 86 0C86 47.4965 47.4965 86 -1.90735e-06 86C-47.4965 86 -86 47.4965 -86 0C-86 -47.4965 -47.4965 -86 -1.90735e-06 -86Z"></path>
  <path fill="#8B8B8B" transform="matrix(1.14003 -0.0461421 0.0566178 1.39885 277.663 191.201)" d="M-52.3281 27.625L-52.3281 -27.668L-46.756 -30.4056L-46.7825 24.7561L-42.4192 24.6238L-47.1315 27.6684L-52.3281 27.625ZM-50.25 21.3164C-54.7526 21.3164 -58.6058 20.4196 -61.8096 18.626C-65.0134 16.8323 -67.4626 14.3337 -69.1572 11.1299C-70.8519 7.9261 -71.6992 4.19661 -71.6992 -0.0585995C-71.6992 -4.31381 -70.8519 -8.0433 -69.1572 -11.2471C-67.4626 -14.4509 -65.0134 -16.9495 -61.8096 -18.7432C-58.6058 -20.5368 -54.7526 -21.4336 -50.25 -21.4336C-47.3802 -21.4336 -44.7826 -21.0625 -42.457 -20.3203C-40.1315 -19.5781 -38.1091 -18.5205 -36.3897 -17.1475C-34.6702 -15.7744 -27.78 -10.4694 -25.0591 -8.68546C-26.0599 -7.96244 -28.21 -6.9054 -30.3965 -5.66211C-30.3965 -5.66211 -44.0898 -3.6211 -44.0898 -3.6211C-44.0898 -3.6211 -44.5166 -5.6683 -44.8506 -6.49707C-45.1846 -7.32585 -45.599 -8.02475 -46.0938 -8.59375C-46.5885 -9.16276 -47.1637 -9.58952 -47.8193 -9.87403C-48.4749 -10.1585 -49.2109 -10.3008 -50.0273 -10.3008C-51.3385 -10.3008 -52.4766 -9.92969 -53.4414 -9.1875C-54.4062 -8.44532 -55.1546 -7.31967 -55.6865 -5.81055C-56.2184 -4.30144 -56.4844 -2.40886 -56.4844 -0.132818C-56.4844 2.11848 -56.2184 4.01106 -55.6865 5.54492C-55.1546 7.07877 -54.4062 8.23535 -53.4414 9.01464C-52.4766 9.79394 -51.3385 10.1836 -50.0273 10.1836C-49.2109 10.1836 -48.4749 10.0352 -47.8193 9.73828C-47.1637 9.4414 -46.5824 9.00227 -46.0752 8.42089C-45.568 7.83951 -45.8968 6.99337 -44.8135 6.24999C-43.7302 5.50662 -38.8902 1.52307 -38.7417 0.409792C-38.7417 0.409792 -30.3965 5.28515 -30.3965 5.28515C-30.3965 5.28515 -31.2747 9.97949 -32.2891 11.9463C-33.3034 13.9131 -34.6641 15.5954 -36.3711 16.9932C-38.0781 18.3909 -40.1006 19.4609 -42.4385 20.2031C-44.7764 20.9453 -47.3802 21.3164 -50.25 21.3164ZM-24.5332 27.625L-24.5332 16.8633L-3.90039 -0.207037C-3.90039 -0.207037 -1.36458 -2.41504 -0.375 -3.417C0.614584 -4.41895 1.37533 -5.45182 1.90723 -6.51563C2.43913 -7.57943 2.70508 -8.76693 2.70508 -10.0781C2.70508 -11.4883 2.40202 -12.6943 1.7959 -13.6963C1.18978 -14.6982 0.361002 -15.4714 -0.69043 -16.0156C-1.74186 -16.5599 -2.96029 -16.832 -4.3457 -16.832C-5.73112 -16.832 -6.94954 -16.5537 -8.00098 -15.9971C-9.05241 -15.4404 -6.2922 -13.7058 -5.868 -12.6284C-7.10779 -11.907 -9.37628 -10.5827 -11.3223 -9.63282C-11.3223 -9.63282 -25.5723 -9.63282 -25.5723 -9.63282C-25.5723 -9.63282 -24.7002 -16.8568 -22.9561 -19.6523C-21.2119 -22.4479 -18.7441 -24.6064 -15.5527 -26.1279C-12.3613 -27.6494 -8.62565 -28.4102 -4.3457 -28.4102C0.0826817 -28.4102 3.91732 -27.7051 7.1582 -26.2949C10.3991 -24.8848 12.904 -22.8994 14.6728 -20.3389C16.4417 -17.7783 17.3262 -14.7786 17.3262 -11.3398C17.3262 -9.21225 16.887 -7.10319 16.0088 -5.0127C15.1305 -2.92221 13.5534 -0.602871 11.2773 1.94531C9.0013 4.49348 5.74804 7.51171 1.51758 11C1.51758 11 -3.67773 15.3047 -3.67773 15.3047L-3.67773 15.6758L17.9199 15.6758L23.3601 24.6526L17.9199 27.625L-24.5332 27.625ZM45.3066 28.3672C41.0514 28.3672 37.2786 27.6188 33.9883 26.1221C30.6979 24.6253 28.1126 22.5534 26.2324 19.9062C24.3522 17.2591 23.3874 14.2161 23.3379 10.7773C23.3379 10.7773 28.8025 7.82546 28.8025 7.82546L37.959 10.7773C37.959 10.7773 38.293 13.14 38.9609 14.0801C39.6289 15.0202 40.5195 15.7438 41.6328 16.251C42.7461 16.7581 43.9707 17.0117 45.3066 17.0117C46.8405 17.0117 48.1826 16.6839 49.333 16.0283C50.4834 15.3727 51.3864 14.4512 52.042 13.2637C52.6976 12.0762 53.0254 10.6784 53.0254 9.07031C53.0254 7.43749 52.6976 6.02115 52.042 4.82128C51.3864 3.62141 50.4834 2.69368 49.333 2.03808C48.1826 1.38248 46.8405 1.05468 45.3066 1.05468C43.6986 1.05468 43.4422 2.31533 43.4422 2.31533C43.4422 2.31533 38.6022 4.02343 37.959 5.35937C37.959 5.35937 24.748 2.76171 24.748 2.76171L26.9004 -27.668L32.366 -30.6324L64.084 -27.668L69.5014 -18.6129L64.084 -15.6445L39.2207 -15.6445L38.1816 -3.47266L38.4785 -3.47266C38.4785 -3.47266 40.8411 -6.54037 42.9687 -7.62891C45.0964 -8.71745 47.5579 -9.26172 50.3535 -9.26172C52.8027 -9.26172 55.0726 -8.82878 57.1631 -7.96289C59.2536 -7.09701 61.0719 -5.86621 62.6182 -4.27051C64.1644 -2.67481 65.3643 -0.782232 66.2178 1.40722C67.0713 3.59667 67.498 6.0026 67.498 8.62499C67.498 12.4844 66.5827 15.8984 64.7519 18.8672C62.9212 21.8359 60.3421 24.1615 57.0146 25.8437C53.6872 27.526 49.7845 28.3672 45.3066 28.3672Z"></path>
  <path fill="#DEDEDE" transform="matrix(1.14003 -0.0461421 0.0566178 1.39885 283.137 185.375)" d="M-51.8282 28.625L-51.8282 -26.668L-47.375 -26.668L-47.375 28.625L-51.8282 28.625ZM-49.75 22.3164C-54.2526 22.3164 -58.1058 21.4196 -61.3096 19.626C-64.5134 17.8324 -66.9626 15.3337 -68.6573 12.1299C-70.3519 8.92611 -71.1992 5.19662 -71.1992 0.94141C-71.1992 -3.3138 -70.3519 -7.04329 -68.6573 -10.2471C-66.9626 -13.4508 -64.5134 -15.9495 -61.3096 -17.7432C-58.1058 -19.5368 -54.2526 -20.4336 -49.75 -20.4336C-46.8802 -20.4336 -44.2826 -20.0625 -41.9571 -19.3203C-39.6315 -18.5781 -37.6091 -17.5205 -35.8897 -16.1475C-34.1703 -14.7744 -32.8034 -13.1169 -31.7891 -11.1748C-30.7748 -9.23274 -30.1439 -7.06185 -29.8965 -4.6621C-29.8965 -4.6621 -43.5899 -2.62109 -43.5899 -2.62109C-43.5899 -2.62109 -44.0166 -4.66829 -44.3506 -5.49706C-44.6846 -6.32584 -45.099 -7.02474 -45.5938 -7.59374C-46.0886 -8.16275 -46.6638 -8.58951 -47.3194 -8.87402C-47.975 -9.15853 -48.711 -9.30078 -49.5274 -9.30078C-50.8386 -9.30078 -51.9766 -8.92968 -52.9414 -8.18749C-53.9063 -7.44531 -54.6547 -6.31966 -55.1866 -4.81054C-55.7185 -3.30143 -55.9844 -1.40885 -55.9844 0.867191C-55.9844 3.11849 -55.7185 5.01107 -55.1866 6.54493C-54.6547 8.07878 -53.9063 9.23536 -52.9414 10.0147C-51.9766 10.7939 -50.8386 11.1836 -49.5274 11.1836C-48.711 11.1836 -47.975 11.0352 -47.3194 10.7383C-46.6638 10.4414 -46.0824 10.0023 -45.5752 9.4209C-45.0681 8.83952 -44.6475 8.11589 -44.3135 7.25C-43.9795 6.38412 -43.7383 5.39454 -43.5899 4.28125C-43.5899 4.28125 -29.8965 6.28516 -29.8965 6.28516C-29.8965 6.28516 -30.7748 10.9795 -31.7891 12.9463C-32.8034 14.9131 -34.1641 16.5954 -35.8711 17.9932C-37.5782 19.391 -39.6006 20.4609 -41.9385 21.2031C-44.2764 21.9453 -46.8802 22.3164 -49.75 22.3164ZM-24.0332 28.625L-24.0332 17.8633L-3.4004 0.792971C-3.4004 0.792971 -0.864595 -1.41504 0.124989 -2.41699C1.11457 -3.41894 1.87531 -4.45182 2.40722 -5.51562C2.93912 -6.57943 3.20507 -7.76693 3.20507 -9.07812C3.20507 -10.4883 2.90201 -11.6943 2.29589 -12.6963C1.68977 -13.6982 0.860991 -14.4714 -0.190441 -15.0156C-1.24187 -15.5599 -2.4603 -15.832 -3.84571 -15.832C-5.23113 -15.832 -6.44956 -15.5537 -7.50099 -14.9971C-8.55242 -14.4404 -9.36883 -13.6302 -9.95021 -12.5664C-10.5316 -11.5026 -10.8223 -10.1914 -10.8223 -8.63281C-10.8223 -8.63281 -25.0723 -8.63281 -25.0723 -8.63281C-25.0723 -8.63281 -24.2002 -15.8568 -22.4561 -18.6523C-20.7119 -21.4479 -18.2442 -23.6064 -15.0527 -25.1279C-11.8613 -26.6494 -8.12566 -27.4102 -3.84571 -27.4102C0.58267 -27.4102 4.41731 -26.7051 7.65819 -25.2949C10.8991 -23.8848 13.404 -21.8994 15.1728 -19.3389C16.9417 -16.7783 17.8262 -13.7786 17.8262 -10.3398C17.8262 -8.21224 17.387 -6.10318 16.5088 -4.01269C15.6305 -1.9222 14.0534 0.397137 11.7773 2.94531C9.50129 5.49349 6.24803 8.51172 2.01757 12C2.01757 12 -3.17775 16.3047 -3.17775 16.3047L-3.17775 16.6758L18.4199 16.6758L18.4199 28.625L-24.0332 28.625ZM45.8066 29.3672C41.5514 29.3672 37.7786 28.6188 34.4883 27.1221C31.1979 25.6253 28.6126 23.5534 26.7324 20.9062C24.8522 18.2591 23.8874 15.2161 23.8379 11.7773C23.8379 11.7773 38.459 11.7773 38.459 11.7773C38.459 11.7773 38.793 14.14 39.4609 15.0801C40.1289 16.0202 41.0195 16.7438 42.1328 17.251C43.2461 17.7581 44.4707 18.0117 45.8066 18.0117C47.3405 18.0117 48.6826 17.6839 49.833 17.0283C50.9834 16.3727 51.8864 15.4512 52.542 14.2637C53.1976 13.0762 53.5254 11.6784 53.5254 10.0703C53.5254 8.4375 53.1976 7.02116 52.542 5.82129C51.8864 4.62142 50.9834 3.69369 49.833 3.03809C48.6826 2.38249 47.3405 2.05469 45.8066 2.05469C44.1986 2.05469 42.7327 2.43815 41.4092 3.20508C40.0856 3.97201 39.1022 5.02344 38.459 6.35938C38.459 6.35938 25.248 3.76172 25.248 3.76172L27.4004 -26.668L64.584 -26.668L64.584 -14.6445L39.7207 -14.6445L38.6816 -2.47265L38.9785 -2.47265C38.9785 -2.47265 41.3411 -5.54036 43.4687 -6.6289C45.5964 -7.71744 48.0579 -8.26171 50.8535 -8.26171C53.3027 -8.26171 55.5726 -7.82877 57.6631 -6.96289C59.7536 -6.097 61.5719 -4.86621 63.1182 -3.27051C64.6644 -1.6748 65.8643 0.217775 66.7178 2.40723C67.5713 4.59668 67.998 7.00261 67.998 9.625C67.998 13.4844 67.0827 16.8984 65.2519 19.8672C63.4212 22.8359 60.8421 25.1615 57.5146 26.8438C54.1872 28.526 50.2845 29.3672 45.8066 29.3672Z"></path>
  <clipPath id="cl_59">
    <path d="M225.671 227.808L222.541 150.461L227.618 150.256L230.748 227.603L225.671 227.808ZM227.683 218.888C222.55 219.095 218.107 218.019 214.353 215.657C210.599 213.296 207.665 209.914 205.552 205.51C203.438 201.107 202.261 195.929 202.02 189.977C201.779 184.024 202.534 178.768 204.285 174.208C206.035 169.649 208.686 166.04 212.237 163.383C215.788 160.727 220.13 159.294 225.263 159.086C228.535 158.954 231.517 159.353 234.21 160.284C236.903 161.215 239.269 162.601 241.307 164.443C243.345 166.284 244.997 168.54 246.263 171.209C247.53 173.879 248.372 176.887 248.79 180.232C248.79 180.232 233.294 183.719 233.294 183.719C233.294 183.719 232.692 180.875 232.264 179.731C231.837 178.587 231.325 177.629 230.728 176.856C230.132 176.083 229.452 175.512 228.689 175.144C227.925 174.777 227.078 174.612 226.147 174.649C224.652 174.71 223.376 175.282 222.318 176.364C221.26 177.447 220.471 179.056 219.95 181.192C219.429 183.327 219.233 185.987 219.362 189.171C219.489 192.32 219.899 194.955 220.593 197.076C221.286 199.197 222.205 200.781 223.349 201.826C224.493 202.872 225.812 203.365 227.307 203.304C228.238 203.266 229.068 203.025 229.799 202.579C230.53 202.134 231.167 201.493 231.713 200.656C232.258 199.819 232.696 198.788 233.028 197.561C233.36 196.334 233.579 194.939 233.685 193.375C233.685 193.375 249.409 195.546 249.409 195.546C249.409 195.546 248.674 202.153 247.629 204.951C246.584 207.749 245.128 210.165 243.261 212.2C241.394 214.234 239.149 215.824 236.526 216.97C233.903 218.116 230.955 218.755 227.683 218.888ZM257.359 226.526L256.749 211.472L279.305 186.641C279.305 186.641 282.071 183.435 283.142 181.988C284.214 180.54 285.022 179.061 285.569 177.548C286.115 176.035 286.351 174.362 286.276 172.528C286.197 170.555 285.783 168.882 285.035 167.508C284.287 166.135 283.299 165.091 282.069 164.379C280.84 163.666 279.435 163.341 277.856 163.405C276.277 163.469 274.903 163.915 273.736 164.742C272.569 165.569 271.684 166.74 271.082 168.255C270.479 169.77 270.222 171.618 270.31 173.798C270.31 173.798 254.065 174.455 254.065 174.455C254.065 174.455 254.65 164.31 256.48 160.319C258.31 156.328 261.001 153.194 264.553 150.919C268.105 148.643 272.321 147.407 277.2 147.209C282.249 147.005 286.66 147.814 290.435 149.637C294.21 151.46 297.178 154.122 299.339 157.622C301.501 161.122 302.679 165.278 302.874 170.088C302.994 173.064 302.613 176.035 301.73 179C300.847 181.964 299.18 185.282 296.73 188.951C294.279 192.621 290.741 196.993 286.116 202.068C286.116 202.068 280.437 208.329 280.437 208.329L280.458 208.848L305.08 207.852L305.757 224.567L257.359 226.526ZM337.02 224.341C332.169 224.538 327.826 223.665 323.99 221.723C320.154 219.781 317.089 217.002 314.796 213.386C312.503 209.77 311.23 205.557 310.979 200.749C310.979 200.749 327.648 200.075 327.648 200.075C327.648 200.075 328.162 203.364 328.977 204.649C329.792 205.933 330.848 206.904 332.146 207.562C333.444 208.22 334.854 208.518 336.377 208.457C338.126 208.386 339.638 207.865 340.912 206.895C342.186 205.925 343.164 204.594 343.844 202.903C344.524 201.212 344.818 199.241 344.727 196.992C344.635 194.708 344.181 192.741 343.366 191.093C342.55 189.445 341.468 188.189 340.12 187.325C338.771 186.461 337.223 186.064 335.474 186.135C333.641 186.209 331.991 186.813 330.526 187.947C329.06 189.081 327.999 190.597 327.341 192.496C327.341 192.496 312.133 189.472 312.133 189.472L312.864 146.806L355.254 145.09L355.935 161.909L327.59 163.056L327.095 180.131L327.433 180.117C327.433 180.117 329.953 175.717 332.317 174.096C334.681 172.475 337.456 171.6 340.643 171.471C343.436 171.358 346.048 171.859 348.48 172.974C350.912 174.089 353.055 175.726 354.908 177.887C356.761 180.048 358.236 182.64 359.333 185.663C360.43 188.687 361.053 192.033 361.201 195.701C361.42 201.1 360.57 205.918 358.651 210.155C356.732 214.392 353.923 217.764 350.225 220.271C346.527 222.778 342.125 224.135 337.02 224.341Z"></path>
  </clipPath>
  <g clip-path="url(#cl_59)">
    <path fill="#F2F1F1" transform="matrix(1.09503 0.417328 -0.32216 1.33595 255.615 243.247)" d="M-170.753 -28.5017L169.944 -28.5017L169.944 28.5017L-170.753 28.5017L-170.753 -28.5017Z"></path>
    <path fill="#F2F1F1" transform="matrix(1.09503 0.417328 -0.32216 1.33595 241.123 294.275)" d="M-170.753 -5.22017L169.944 -5.22018L169.944 5.22015L-170.753 5.22016L-170.753 -5.22017Z"></path>
  </g>
  <path fill="#8E8B8B" transform="matrix(1.39885 -0.0566178 0.0566178 1.39885 270.072 17.7657)" d="M3.8147e-06 0C3.8147e-06 0 -14.7717 0 -18.2871 0C-65.0171 1.3037 -123.317 32.2772 -123.317 128C-123.317 223.723 -54.8595 256 -19 256C-15.4845 256 3.8147e-06 256 3.8147e-06 256C-24.8221 256 -104.317 223.723 -104.317 128C-104.317 32.2772 -24.8221 1.52588e-05 3.8147e-06 0Z"></path>
  <clipPath id="cl_5b">
    <path d="M270.072 17.7657C270.072 17.7657 249.409 18.6021 244.491 18.8011C179.197 23.2706 99.3974 69.8987 104.817 203.801C110.237 337.703 207.826 378.979 257.988 376.948C262.906 376.749 284.566 375.873 284.566 375.873C249.844 377.278 136.815 336.628 131.395 202.725C125.976 68.823 235.35 19.1711 270.072 17.7657Z"></path>
  </clipPath>
  <g clip-path="url(#cl_5b)">
    <path fill="#ACABAB" transform="matrix(1.14003 -0.0461421 0.0566178 1.39885 184.338 279.606)" d="M-105.5 -80.1478L105 -80.1478L105 4.51264L-105.5 4.51264L-105.5 -80.1478Z"></path>
    <path fill="#D6D6D6" transform="matrix(1.14003 -0.0461421 0.0566178 1.39885 173.719 255.719)" d="M-105.5 -6.45964L105 -6.45964L105 6.37892L-105.5 6.37892L-105.5 -6.45964Z"></path>
    <path fill="#D6D6D6" transform="matrix(1.14327 -0.0462734 0.0564573 1.39489 176.471 196.752)" d="M-175.043 -30.286L174.214 -30.286L174.214 30.286L-175.043 30.286L-175.043 -30.286Z"></path>
  </g>
  <path fill="#A5A5A5" transform="matrix(1.34284 0 0 0.225254 272.419 478.039)" d="M-0.25 -87.9999C55.945 -87.9999 101.5 -48.6009 101.5 0.00012207C101.5 48.6012 55.945 88.0001 -0.25 88.0001C-56.445 88.0001 -102 48.6012 -102 0.00012207C-102 -48.6009 -56.445 -87.9999 -0.25 -87.9999Z" style="mix-blend-mode: multiply"></path>
</svg>