<?xml version="1.0" encoding="utf-8"?>
<svg xmlns="http://www.w3.org/2000/svg" xmlns:xlink="http://www.w3.org/1999/xlink" width="512" height="512">
  <path fill="#312F2F" transform="matrix(1.16855 -0.0121405 0.0145443 1.39992 250.721 194.713)" d="M0 -128C70.6925 -128 128 -70.6925 128 -1.19209e-07C128 70.6925 70.6925 128 0 128C-70.6925 128 -128 70.6925 -128 1.19209e-07C-128 -70.6925 -70.6925 -128 0 -128Z"></path>
  <path fill="none" stroke="black" stroke-width="7" stroke-miterlimit="4" transform="translate(256 256)" d="M19.4576 -240.753C102.065 -241.612 169.866 -162.081 170.894 -63.1171C171.922 35.847 105.789 116.769 23.181 117.627C-59.4267 118.485 -127.227 38.955 -128.255 -60.0091C-129.283 -158.973 -63.15 -239.895 19.4576 -240.753Z"></path>
  <path fill="none" stroke="black" stroke-width="7" stroke-linejoin="round" transform="translate(256 256)" d="M19.4576 -240.753C19.4576 -240.753 -1.72266 -240.533 -6.11877 -240.488C-73.1034 -237.967 -156.246 -193.738 -154.854 -59.7328C-153.461 74.2719 -54.8347 118.438 -3.41756 117.904C0.978539 117.858 23.181 117.627 23.181 117.627C21.948 117.64 20.6203 117.6 19.2059 117.504"></path>
  <path fill="#DEDEDE" transform="matrix(1.16855 -0.0121405 0.0145443 1.39992 277.319 194.437)" d="M-1.90735e-06 -128C70.6925 -128 128 -70.6925 128 3.69549e-06C128 70.6925 70.6925 128 -1.90735e-06 128C-70.6925 128 -128 70.6925 -128 3.93391e-06C-128 -70.6924 -70.6925 -128 -1.90735e-06 -128Z"></path>
  <clipPath id="cl_328">
    <path d="M275.458 15.2466C358.065 14.3883 425.866 93.9188 426.894 192.883C427.922 291.847 361.789 372.769 279.181 373.627C196.573 374.485 128.773 294.955 127.745 195.991C126.717 97.0268 192.85 16.1048 275.458 15.2466Z"></path>
  </clipPath>
  <g clip-path="url(#cl_328)">
    <path fill="#F2F1F1" transform="matrix(1.10809 0.449783 -0.371281 1.32576 280.296 255.943)" d="M-170.753 -28.5017L169.944 -28.5017L169.944 28.5017L-170.753 28.5017L-170.753 -28.5017Z"></path>
    <path fill="#F2F1F1" transform="matrix(1.10809 0.449783 -0.371281 1.32576 263.874 306.402)" d="M-170.753 -5.22017L169.944 -5.22017L169.944 5.22016L-170.753 5.22016L-170.753 -5.22017Z"></path>
  </g>
  <path fill="#8B8B8B" transform="matrix(1.16855 -0.0121405 0.0145443 1.39992 284.9 192.958)" d="M0.249998 -87.5C51.4744 -87.5 93 -48.4369 93 -0.250004C93 47.9368 51.4744 87 0.249998 87C-50.9744 87 -92.5 47.9368 -92.5 -0.250004C-92.5 -48.4369 -50.9744 -87.5 0.249998 -87.5Z"></path>
  <path fill="#B0AFAF" transform="matrix(1.16855 -0.0121405 0.0145443 1.39992 277.319 194.437)" d="M-1.90735e-06 -86C47.4965 -86 86 -47.4965 86 3.7346e-06C86 47.4965 47.4965 86 -1.90735e-06 86C-47.4965 86 -86 47.4965 -86 3.89479e-06C-86 -47.4965 -47.4965 -86 -1.90735e-06 -86Z"></path>
  <path fill="#8B8B8B" transform="matrix(1.16855 -0.0121405 0.0145443 1.39992 277.845 188.831)" d="M-52.3281 27.625L-52.3281 -27.668L-46.756 -30.4056L-46.7825 24.7561L-42.4192 24.6238L-47.1315 27.6684L-52.3281 27.625ZM-50.25 21.3164C-54.7526 21.3164 -58.6058 20.4196 -61.8096 18.626C-65.0133 16.8324 -67.4626 14.3337 -69.1572 11.1299C-70.8519 7.92611 -71.6992 4.19662 -71.6992 -0.0585918C-71.6992 -4.3138 -70.8519 -8.04329 -69.1572 -11.2471C-67.4626 -14.4508 -65.0133 -16.9495 -61.8096 -18.7432C-58.6058 -20.5368 -54.7526 -21.4336 -50.25 -21.4336C-47.3802 -21.4336 -44.7826 -21.0625 -42.457 -20.3203C-40.1315 -19.5781 -38.109 -18.5205 -36.3896 -17.1475C-34.6702 -15.7744 -27.78 -10.4693 -25.0591 -8.68545C-26.0599 -7.96244 -28.21 -6.90539 -30.3965 -5.66211C-30.3965 -5.66211 -44.0898 -3.62109 -44.0898 -3.62109C-44.0898 -3.62109 -44.5166 -5.66829 -44.8506 -6.49707C-45.1846 -7.32584 -45.599 -8.02474 -46.0938 -8.59375C-46.5885 -9.16276 -47.1637 -9.58951 -47.8193 -9.87402C-48.4749 -10.1585 -49.2109 -10.3008 -50.0273 -10.3008C-51.3385 -10.3008 -52.4766 -9.92969 -53.4414 -9.1875C-54.4062 -8.44531 -55.1546 -7.31966 -55.6865 -5.81054C-56.2184 -4.30143 -56.4844 -2.40885 -56.4844 -0.132811C-56.4844 2.11849 -56.2184 4.01107 -55.6865 5.54492C-55.1546 7.07878 -54.4062 8.23535 -53.4414 9.01465C-52.4766 9.79395 -51.3385 10.1836 -50.0273 10.1836C-49.2109 10.1836 -48.4749 10.0352 -47.8193 9.73828C-47.1637 9.44141 -46.5824 9.00228 -46.0752 8.4209C-45.568 7.83952 -45.8968 6.99338 -44.8135 6.25C-43.7302 5.50663 -38.8902 1.52308 -38.7417 0.4098C-38.7417 0.4098 -30.3965 5.28516 -30.3965 5.28516C-30.3965 5.28516 -31.2747 9.97949 -32.2891 11.9463C-33.3034 13.9131 -34.6641 15.5954 -36.3711 16.9932C-38.0781 18.391 -40.1006 19.4609 -42.4385 20.2031C-44.7764 20.9453 -47.3802 21.3164 -50.25 21.3164ZM-24.5332 27.625L-24.5332 16.8633L-3.90039 -0.207029C-3.90039 -0.207029 -1.36458 -2.41504 -0.375 -3.41699C0.614584 -4.41894 1.37533 -5.45182 1.90723 -6.51562C2.43913 -7.57943 2.70508 -8.76693 2.70508 -10.0781C2.70508 -11.4883 2.40202 -12.6943 1.7959 -13.6963C1.18978 -14.6982 0.361002 -15.4714 -0.69043 -16.0156C-1.74186 -16.5599 -2.96029 -16.832 -4.3457 -16.832C-5.73112 -16.832 -6.94954 -16.5537 -8.00098 -15.9971C-9.05241 -15.4404 -6.2922 -13.7058 -5.868 -12.6284C-7.10779 -11.907 -9.37628 -10.5827 -11.3223 -9.63281C-11.3223 -9.63281 -25.5723 -9.63281 -25.5723 -9.63281C-25.5723 -9.63281 -24.7002 -16.8568 -22.9561 -19.6523C-21.2119 -22.4479 -18.7441 -24.6064 -15.5527 -26.1279C-12.3613 -27.6494 -8.62565 -28.4102 -4.3457 -28.4102C0.0826817 -28.4102 3.91732 -27.7051 7.1582 -26.2949C10.3991 -24.8848 12.904 -22.8994 14.6729 -20.3389C16.4417 -17.7783 17.3262 -14.7786 17.3262 -11.3398C17.3262 -9.21224 16.887 -7.10319 16.0088 -5.01269C15.1305 -2.9222 13.5534 -0.602863 11.2773 1.94531C9.0013 4.49349 5.74805 7.51172 1.51758 11C1.51758 11 -3.67773 15.3047 -3.67773 15.3047L-3.67773 15.6758L17.9199 15.6758L23.3601 24.6527L17.9199 27.625L-24.5332 27.625ZM45.3066 28.3672C41.0514 28.3672 37.2786 27.6188 33.9883 26.1221C30.6979 24.6253 28.1126 22.5534 26.2324 19.9063C24.3522 17.2591 23.3874 14.2162 23.3379 10.7773C23.3379 10.7773 28.8025 7.82547 28.8025 7.82547L37.959 10.7773C37.959 10.7773 38.293 13.14 38.9609 14.0801C39.6289 15.0202 40.5195 15.7438 41.6328 16.251C42.7461 16.7581 43.9707 17.0117 45.3066 17.0117C46.8405 17.0117 48.1826 16.6839 49.333 16.0283C50.4834 15.3727 51.3864 14.4512 52.042 13.2637C52.6976 12.0762 53.0254 10.6784 53.0254 9.07032C53.0254 7.4375 52.6976 6.02116 52.042 4.82129C51.3864 3.62142 50.4834 2.69369 49.333 2.03809C48.1826 1.38249 46.8405 1.05469 45.3066 1.05469C43.6986 1.05469 43.4423 2.31534 43.4423 2.31534C43.4423 2.31534 38.6022 4.02344 37.959 5.35938C37.959 5.35938 24.748 2.76172 24.748 2.76172L26.9004 -27.668L32.366 -30.6324L64.084 -27.668L69.5014 -18.6128L64.084 -15.6445L39.2207 -15.6445L38.1816 -3.47265L38.4785 -3.47265C38.4785 -3.47265 40.8411 -6.54036 42.9688 -7.6289C45.0964 -8.71744 47.5579 -9.26171 50.3535 -9.26171C52.8027 -9.26171 55.0726 -8.82877 57.1631 -7.96289C59.2536 -7.097 61.0719 -5.86621 62.6182 -4.2705C64.1644 -2.6748 65.3643 -0.782223 66.2178 1.40723C67.0713 3.59668 67.498 6.00261 67.498 8.625C67.498 12.4844 66.5827 15.8984 64.752 18.8672C62.9212 21.8359 60.3421 24.1615 57.0146 25.8438C53.6872 27.526 49.7845 28.3672 45.3066 28.3672Z"></path>
  <path fill="#DEDEDE" transform="matrix(1.16855 -0.0121405 0.0145443 1.39992 283.63 183.171)" d="M-51.8282 28.625L-51.8282 -26.668L-47.375 -26.668L-47.375 28.625L-51.8282 28.625ZM-49.75 22.3164C-54.2526 22.3164 -58.1058 21.4196 -61.3096 19.626C-64.5134 17.8324 -66.9626 15.3337 -68.6573 12.1299C-70.3519 8.92611 -71.1992 5.19661 -71.1992 0.941404C-71.1992 -3.3138 -70.3519 -7.0433 -68.6573 -10.2471C-66.9626 -13.4508 -64.5134 -15.9495 -61.3096 -17.7432C-58.1058 -19.5368 -54.2526 -20.4336 -49.75 -20.4336C-46.8802 -20.4336 -44.2826 -20.0625 -41.9571 -19.3203C-39.6315 -18.5781 -37.6091 -17.5205 -35.8897 -16.1475C-34.1703 -14.7744 -32.8034 -13.1169 -31.7891 -11.1748C-30.7748 -9.23275 -30.1439 -7.06185 -29.8965 -4.66211C-29.8965 -4.66211 -43.5899 -2.6211 -43.5899 -2.6211C-43.5899 -2.6211 -44.0166 -4.6683 -44.3506 -5.49707C-44.6846 -6.32585 -45.099 -7.02474 -45.5938 -7.59375C-46.0886 -8.16276 -46.6638 -8.58952 -47.3194 -8.87403C-47.975 -9.15853 -48.711 -9.30078 -49.5274 -9.30078C-50.8386 -9.30078 -51.9766 -8.92969 -52.9414 -8.1875C-53.9063 -7.44531 -54.6547 -6.31967 -55.1866 -4.81055C-55.7185 -3.30143 -55.9844 -1.40886 -55.9844 0.867186C-55.9844 3.11849 -55.7185 5.01107 -55.1866 6.54492C-54.6547 8.07877 -53.9063 9.23535 -52.9414 10.0146C-51.9766 10.7939 -50.8386 11.1836 -49.5274 11.1836C-48.711 11.1836 -47.975 11.0352 -47.3194 10.7383C-46.6638 10.4414 -46.0824 10.0023 -45.5752 9.4209C-45.0681 8.83952 -44.6475 8.11588 -44.3135 7.25C-43.9795 6.38411 -43.7383 5.39453 -43.5899 4.28125C-43.5899 4.28125 -29.8965 6.28515 -29.8965 6.28515C-29.8965 6.28515 -30.7748 10.9795 -31.7891 12.9463C-32.8034 14.9131 -34.1641 16.5954 -35.8711 17.9932C-37.5782 19.3909 -39.6006 20.4609 -41.9385 21.2031C-44.2764 21.9453 -46.8802 22.3164 -49.75 22.3164ZM-24.0332 28.625L-24.0332 17.8633L-3.4004 0.792967C-3.4004 0.792967 -0.864595 -1.41504 0.124989 -2.41699C1.11457 -3.41895 1.87531 -4.45182 2.40722 -5.51563C2.93912 -6.57943 3.20507 -7.76693 3.20507 -9.07813C3.20507 -10.4883 2.90201 -11.6943 2.29589 -12.6963C1.68977 -13.6982 0.860991 -14.4714 -0.190441 -15.0156C-1.24187 -15.5599 -2.4603 -15.832 -3.84571 -15.832C-5.23113 -15.832 -6.44956 -15.5537 -7.50099 -14.9971C-8.55242 -14.4404 -9.36883 -13.6302 -9.95021 -12.5664C-10.5316 -11.5026 -10.8223 -10.1914 -10.8223 -8.63281C-10.8223 -8.63281 -25.0723 -8.63281 -25.0723 -8.63281C-25.0723 -8.63281 -24.2002 -15.8568 -22.4561 -18.6523C-20.7119 -21.4479 -18.2442 -23.6064 -15.0527 -25.1279C-11.8613 -26.6494 -8.12566 -27.4102 -3.84571 -27.4102C0.58267 -27.4102 4.41731 -26.7051 7.65819 -25.2949C10.8991 -23.8848 13.404 -21.8994 15.1728 -19.3389C16.9417 -16.7783 17.8262 -13.7786 17.8262 -10.3398C17.8262 -8.21224 17.387 -6.10319 16.5088 -4.0127C15.6305 -1.9222 14.0534 0.397133 11.7773 2.94531C9.50129 5.49349 6.24804 8.51172 2.01757 12C2.01757 12 -3.17775 16.3047 -3.17775 16.3047L-3.17775 16.6758L18.4199 16.6758L18.4199 28.625L-24.0332 28.625ZM45.8066 29.3672C41.5514 29.3672 37.7786 28.6188 34.4883 27.1221C31.1979 25.6253 28.6126 23.5534 26.7324 20.9062C24.8522 18.2591 23.8874 15.2161 23.8379 11.7773C23.8379 11.7773 38.459 11.7773 38.459 11.7773C38.459 11.7773 38.793 14.14 39.4609 15.0801C40.1289 16.0202 41.0195 16.7438 42.1328 17.251C43.2461 17.7581 44.4707 18.0117 45.8066 18.0117C47.3405 18.0117 48.6826 17.6839 49.833 17.0283C50.9834 16.3727 51.8864 15.4512 52.542 14.2637C53.1976 13.0762 53.5254 11.6784 53.5254 10.0703C53.5254 8.4375 53.1976 7.02116 52.542 5.82129C51.8864 4.62142 50.9834 3.69368 49.833 3.03808C48.6826 2.38248 47.3405 2.05469 45.8066 2.05469C44.1986 2.05469 42.7327 2.43815 41.4092 3.20508C40.0856 3.972 39.1022 5.02344 38.459 6.35937C38.459 6.35937 25.248 3.76172 25.248 3.76172L27.4004 -26.668L64.584 -26.668L64.584 -14.6445L39.7207 -14.6445L38.6816 -2.47266L38.9785 -2.47266C38.9785 -2.47266 41.3411 -5.54037 43.4688 -6.62891C45.5964 -7.71745 48.0579 -8.26172 50.8535 -8.26172C53.3027 -8.26172 55.5726 -7.82878 57.6631 -6.96289C59.7536 -6.09701 61.5719 -4.86621 63.1182 -3.27051C64.6644 -1.67481 65.8643 0.217772 66.7178 2.40722C67.5713 4.59668 67.998 7.0026 67.998 9.625C67.998 13.4844 67.0827 16.8984 65.252 19.8672C63.4212 22.8359 60.8421 25.1615 57.5146 26.8437C54.1872 28.526 50.2845 29.3672 45.8066 29.3672Z"></path>
  <clipPath id="cl_32a">
    <path d="M223.483 223.873L222.678 146.467L227.882 146.413L228.686 223.819L223.483 223.873ZM225.819 215.016C220.558 215.071 216.042 213.862 212.272 211.39C208.502 208.918 205.604 205.45 203.577 200.985C201.55 196.521 200.506 191.31 200.444 185.353C200.382 179.396 201.318 174.165 203.251 169.659C205.185 165.154 208.011 161.626 211.729 159.076C215.446 156.526 219.936 155.224 225.197 155.169C228.551 155.134 231.592 155.622 234.32 156.633C237.048 157.644 239.427 159.1 241.456 161.001C243.485 162.902 245.107 165.206 246.32 167.913C247.534 170.619 248.303 173.651 248.627 177.007C248.627 177.007 232.655 180.031 232.655 180.031C232.655 180.031 232.126 177.17 231.724 176.014C231.322 174.858 230.827 173.884 230.241 173.094C229.654 172.303 228.976 171.713 228.206 171.322C227.436 170.932 226.574 170.742 225.619 170.752C224.087 170.768 222.763 171.301 221.646 172.352C220.529 173.402 219.671 174.987 219.072 177.106C218.472 179.225 218.189 181.878 218.222 185.064C218.255 188.216 218.593 190.862 219.237 193.003C219.881 195.144 220.772 196.754 221.911 197.833C223.05 198.912 224.385 199.444 225.917 199.428C226.871 199.418 227.729 199.202 228.491 198.778C229.253 198.354 229.926 197.733 230.51 196.913C231.094 196.093 231.575 195.074 231.953 193.858C232.331 192.642 232.598 191.254 232.755 189.693C232.755 189.693 248.786 192.332 248.786 192.332C248.786 192.332 247.828 198.915 246.671 201.68C245.514 204.446 243.949 206.818 241.974 208.795C240 210.773 237.652 212.295 234.931 213.363C232.21 214.43 229.173 214.981 225.819 215.016ZM255.962 223.535L255.806 208.47L279.668 184.322C279.668 184.322 282.599 181.2 283.741 179.786C284.883 178.371 285.757 176.916 286.363 175.42C286.969 173.924 287.262 172.259 287.243 170.423C287.223 168.449 286.851 166.764 286.128 165.369C285.405 163.974 284.426 162.901 283.189 162.152C281.952 161.403 280.525 161.037 278.906 161.054C277.287 161.071 275.867 161.475 274.647 162.267C273.426 163.059 272.484 164.203 271.82 165.699C271.156 167.196 270.835 169.035 270.858 171.217C270.858 171.217 254.206 171.39 254.206 171.39C254.206 171.39 255.12 161.266 257.118 157.331C259.115 153.397 261.967 150.345 265.675 148.176C269.382 146.008 273.736 144.897 278.737 144.845C283.912 144.791 288.403 145.732 292.211 147.667C296.019 149.602 298.975 152.35 301.079 155.914C303.183 159.477 304.26 163.665 304.31 168.479C304.341 171.458 303.859 174.416 302.863 177.353C301.867 180.29 300.058 183.556 297.435 187.151C294.813 190.746 291.055 195.011 286.162 199.945C286.162 199.945 280.154 206.035 280.154 206.035L280.159 206.554L305.397 206.292L305.571 223.02L255.962 223.535ZM337.584 223.726C332.612 223.778 328.192 222.776 324.326 220.721C320.459 218.665 317.408 215.796 315.172 212.113C312.937 208.43 311.765 204.182 311.657 199.369C311.657 199.369 328.743 199.191 328.743 199.191C328.743 199.191 329.167 202.495 329.961 203.803C330.756 205.111 331.807 206.113 333.115 206.809C334.424 207.506 335.858 207.846 337.419 207.83C339.212 207.811 340.775 207.336 342.11 206.404C343.445 205.472 344.487 204.171 345.235 202.501C345.984 200.831 346.347 198.87 346.324 196.619C346.3 194.333 345.896 192.354 345.113 190.682C344.329 189.01 343.26 187.723 341.907 186.819C340.553 185.915 338.98 185.472 337.187 185.491C335.308 185.511 333.601 186.065 332.065 187.155C330.53 188.245 329.396 189.728 328.664 191.606C328.664 191.606 313.188 188.13 313.188 188.13L315.261 145.505L358.712 145.053L358.887 161.885L329.833 162.187L328.795 179.24L329.142 179.236C329.142 179.236 331.859 174.913 334.329 173.363C336.799 171.813 339.668 171.021 342.935 170.988C345.797 170.958 348.456 171.536 350.911 172.723C353.366 173.91 355.509 175.611 357.339 177.826C359.169 180.041 360.599 182.676 361.628 185.731C362.657 188.785 363.191 192.148 363.229 195.819C363.285 201.222 362.265 206.013 360.169 210.191C358.073 214.369 355.093 217.656 351.229 220.052C347.365 222.447 342.817 223.672 337.584 223.726Z"></path>
  </clipPath>
  <g clip-path="url(#cl_32a)">
    <path fill="#F2F1F1" transform="matrix(1.10809 0.449783 -0.371281 1.32576 252.876 244.279)" d="M-170.753 -28.5017L169.944 -28.5017L169.944 28.5017L-170.753 28.5017L-170.753 -28.5017Z"></path>
    <path fill="#F2F1F1" transform="matrix(1.10809 0.449783 -0.371281 1.32576 236.455 294.853)" d="M-170.753 -5.22017L169.944 -5.22017L169.944 5.22016L-170.753 5.22016L-170.753 -5.22017Z"></path>
  </g>
  <path fill="#8E8B8B" transform="matrix(1.39992 -0.0145443 0.0145443 1.39992 275.458 15.2466)" d="M2.86102e-06 0C2.86102e-06 0 -15.1296 -1.52588e-05 -18.2698 0C-66.1321 1.3037 -125.845 32.2772 -125.845 128C-125.845 223.723 -55.7285 256 -19 256C-15.8597 256 1.90735e-06 256 0 256C-25.4236 256 -106.845 223.723 -106.845 128C-106.845 32.2772 -25.4236 0 2.86102e-06 0Z"></path>
  <clipPath id="cl_32c">
    <path d="M275.458 15.2466C275.458 15.2466 254.277 15.4666 249.881 15.5123C182.897 18.0335 99.7541 62.2625 101.146 196.267C102.539 330.272 201.165 374.438 252.582 373.904C256.979 373.858 279.181 373.627 279.181 373.627C243.59 373.997 129.137 329.996 127.745 195.991C126.353 61.9861 239.867 15.6163 275.458 15.2466Z"></path>
  </clipPath>
  <g clip-path="url(#cl_32c)">
    <path fill="#ACABAB" transform="matrix(1.16855 -0.0121405 0.0145443 1.39992 180.204 274.409)" d="M-105.5 -78.8758L105 -78.8758L105 3.24058L-105.5 3.24058L-105.5 -78.8758Z"></path>
    <path fill="#D6D6D6" transform="matrix(1.16855 -0.0121405 0.0145443 1.39992 170.122 254.831)" d="M-105.5 -6.49328L105 -6.49328L105 6.47983L-105.5 6.47983L-105.5 -6.49328Z"></path>
    <path fill="#D6D6D6" transform="matrix(1.17187 -0.012175 0.0145031 1.39595 174.766 195.571)" d="M-175.044 -30.601L174.214 -30.601L174.214 30.601L-175.044 30.601L-175.044 -30.601Z"></path>
  </g>
  <path fill="#A5A5A5" transform="matrix(1.39048 0 0 0.219378 272.419 478.039)" d="M-0.250001 -87.9999C55.945 -87.9999 101.5 -48.601 101.5 6.10352e-05C101.5 48.6011 55.945 88.0001 -0.250001 88.0001C-56.445 88.0001 -102 48.6011 -102 6.10352e-05C-102 -48.601 -56.445 -87.9999 -0.250001 -87.9999Z" style="mix-blend-mode: multiply"></path>
</svg>