<?xml version="1.0" encoding="utf-8"?>
<svg xmlns="http://www.w3.org/2000/svg" xmlns:xlink="http://www.w3.org/1999/xlink" width="512" height="512">
  <path fill="#312F2F" transform="matrix(1.03802 -0.0518054 0.0697844 1.39826 250.752 206.904)" d="M0 -128C70.6925 -128 128 -70.6924 128 3.8147e-06C128 70.6925 70.6925 128 0 128C-70.6925 128 -128 70.6925 -128 3.8147e-06C-128 -70.6924 -70.6925 -128 0 -128Z"></path>
  <path fill="none" stroke="black" stroke-width="7" stroke-miterlimit="4" transform="translate(256 256)" d="M12.3869 -229.399C85.7669 -233.061 149.252 -155.899 154.186 -57.0527C159.119 41.7937 103.632 124.893 30.2517 128.556C-43.1283 132.218 -106.614 55.0559 -111.547 -43.7905C-116.48 -142.637 -60.9931 -225.737 12.3869 -229.399Z"></path>
  <path fill="none" stroke="black" stroke-width="7" stroke-linejoin="round" transform="translate(256 256)" d="M12.3869 -229.399C12.3869 -229.399 -6.42744 -228.46 -13.272 -228.118C-72.7 -223.325 -144.794 -176.31 -138.114 -42.4646C-131.434 91.3808 -41.9888 132.161 3.68478 129.882C10.5294 129.54 30.2517 128.556 30.2517 128.556C29.4118 128.598 28.5211 128.61 27.5828 128.592"></path>
  <path fill="#DEDEDE" transform="matrix(1.03802 -0.0518054 0.0697844 1.39826 277.319 205.578)" d="M1.90735e-06 -128C70.6925 -128 128 -70.6925 128 0C128 70.6925 70.6925 128 1.90735e-06 128C-70.6925 128 -128 70.6925 -128 0C-128 -70.6925 -70.6925 -128 1.90735e-06 -128Z"></path>
  <clipPath id="cl_2a3">
    <path d="M268.387 26.6012C341.767 22.9389 405.252 100.101 410.186 198.947C415.119 297.794 359.632 380.893 286.252 384.556C212.872 388.218 149.386 311.056 144.453 212.209C139.52 113.363 195.007 30.2634 268.387 26.6012Z"></path>
  </clipPath>
  <g clip-path="url(#cl_2a3)">
    <path fill="#F2F1F1" transform="matrix(1.00305 0.411784 -0.276117 1.33725 281.435 246.348)" d="M-170.753 -28.5017L169.944 -28.5017L169.944 28.5017L-170.753 28.5017L-170.753 -28.5017Z"></path>
    <path fill="#F2F1F1" transform="matrix(1.00305 0.411784 -0.276117 1.33725 268.891 297.34)" d="M-170.753 -5.22017L169.944 -5.22017L169.944 5.22016L-170.753 5.22016L-170.753 -5.22017Z"></path>
  </g>
  <path fill="#8B8B8B" transform="matrix(1.03802 -0.0518054 0.0697844 1.39826 283.997 203.843)" d="M0.249998 -87.5C51.4744 -87.5 93 -48.4368 93 -0.25C93 47.9368 51.4744 87 0.249998 87C-50.9744 87 -92.5 47.9368 -92.5 -0.25C-92.5 -48.4368 -50.9744 -87.5 0.249998 -87.5Z"></path>
  <path fill="#B0AFAF" transform="matrix(1.03802 -0.0518054 0.0697844 1.39826 277.319 205.578)" d="M1.90735e-06 -86C47.4965 -86 86 -47.4965 86 0C86 47.4965 47.4965 86 1.90735e-06 86C-47.4965 86 -86 47.4965 -86 0C-86 -47.4965 -47.4965 -86 1.90735e-06 -86Z"></path>
  <path fill="#8B8B8B" transform="matrix(1.03802 -0.0518054 0.0697844 1.39826 277.559 199.959)" d="M-52.3281 27.625L-52.3281 -27.668L-46.756 -30.4056L-46.7825 24.7561L-42.4192 24.6238L-47.1315 27.6684L-52.3281 27.625ZM-50.25 21.3164C-54.7526 21.3164 -58.6058 20.4196 -61.8096 18.626C-65.0133 16.8324 -67.4626 14.3337 -69.1572 11.1299C-70.8519 7.92611 -71.6992 4.19662 -71.6992 -0.0585938C-71.6992 -4.3138 -70.8519 -8.0433 -69.1572 -11.2471C-67.4626 -14.4508 -65.0133 -16.9495 -61.8096 -18.7432C-58.6058 -20.5368 -54.7526 -21.4336 -50.25 -21.4336C-47.3802 -21.4336 -44.7826 -21.0625 -42.457 -20.3203C-40.1315 -19.5781 -38.109 -18.5205 -36.3896 -17.1475C-34.6702 -15.7744 -27.78 -10.4693 -25.0591 -8.68546C-26.0599 -7.96244 -28.21 -6.9054 -30.3965 -5.66211C-30.3965 -5.66211 -44.0898 -3.62109 -44.0898 -3.62109C-44.0898 -3.62109 -44.5166 -5.6683 -44.8506 -6.49707C-45.1846 -7.32584 -45.599 -8.02474 -46.0938 -8.59375C-46.5885 -9.16276 -47.1637 -9.58952 -47.8193 -9.87402C-48.4749 -10.1585 -49.2109 -10.3008 -50.0273 -10.3008C-51.3385 -10.3008 -52.4766 -9.92969 -53.4414 -9.1875C-54.4062 -8.44531 -55.1546 -7.31966 -55.6865 -5.81055C-56.2184 -4.30143 -56.4844 -2.40885 -56.4844 -0.132812C-56.4844 2.11849 -56.2184 4.01107 -55.6865 5.54492C-55.1546 7.07878 -54.4062 8.23535 -53.4414 9.01465C-52.4766 9.79395 -51.3385 10.1836 -50.0273 10.1836C-49.2109 10.1836 -48.4749 10.0352 -47.8193 9.73828C-47.1637 9.44141 -46.5824 9.00228 -46.0752 8.4209C-45.568 7.83952 -45.8968 6.99338 -44.8135 6.25C-43.7302 5.50662 -38.8902 1.52308 -38.7417 0.409798C-38.7417 0.409798 -30.3965 5.28516 -30.3965 5.28516C-30.3965 5.28516 -31.2747 9.97949 -32.2891 11.9463C-33.3034 13.9131 -34.6641 15.5954 -36.3711 16.9932C-38.0781 18.3909 -40.1006 19.4609 -42.4385 20.2031C-44.7764 20.9453 -47.3802 21.3164 -50.25 21.3164ZM-24.5332 27.625L-24.5332 16.8633L-3.90039 -0.207031C-3.90039 -0.207031 -1.36458 -2.41504 -0.375 -3.41699C0.614584 -4.41895 1.37533 -5.45182 1.90723 -6.51562C2.43913 -7.57943 2.70508 -8.76693 2.70508 -10.0781C2.70508 -11.4883 2.40202 -12.6943 1.7959 -13.6963C1.18978 -14.6982 0.361002 -15.4714 -0.69043 -16.0156C-1.74186 -16.5599 -2.96029 -16.832 -4.3457 -16.832C-5.73112 -16.832 -6.94954 -16.5537 -8.00098 -15.9971C-9.05241 -15.4404 -6.2922 -13.7058 -5.868 -12.6284C-7.10779 -11.907 -9.37628 -10.5827 -11.3223 -9.63281C-11.3223 -9.63281 -25.5723 -9.63281 -25.5723 -9.63281C-25.5723 -9.63281 -24.7002 -16.8568 -22.9561 -19.6523C-21.2119 -22.4479 -18.7441 -24.6064 -15.5527 -26.1279C-12.3613 -27.6494 -8.62565 -28.4102 -4.3457 -28.4102C0.0826817 -28.4102 3.91732 -27.7051 7.1582 -26.2949C10.3991 -24.8848 12.904 -22.8994 14.6729 -20.3389C16.4417 -17.7783 17.3262 -14.7786 17.3262 -11.3398C17.3262 -9.21224 16.887 -7.10319 16.0088 -5.0127C15.1305 -2.9222 13.5534 -0.602865 11.2773 1.94531C9.0013 4.49349 5.74805 7.51172 1.51758 11C1.51758 11 -3.67773 15.3047 -3.67773 15.3047L-3.67773 15.6758L17.9199 15.6758L23.3601 24.6527L17.9199 27.625L-24.5332 27.625ZM45.3066 28.3672C41.0514 28.3672 37.2786 27.6188 33.9883 26.1221C30.6979 24.6253 28.1126 22.5534 26.2324 19.9062C24.3522 17.2591 23.3874 14.2161 23.3379 10.7773C23.3379 10.7773 28.8025 7.82547 28.8025 7.82547L37.959 10.7773C37.959 10.7773 38.293 13.14 38.9609 14.0801C39.6289 15.0202 40.5195 15.7438 41.6328 16.251C42.7461 16.7581 43.9707 17.0117 45.3066 17.0117C46.8405 17.0117 48.1826 16.6839 49.333 16.0283C50.4834 15.3727 51.3864 14.4512 52.042 13.2637C52.6976 12.0762 53.0254 10.6784 53.0254 9.07031C53.0254 7.4375 52.6976 6.02116 52.042 4.82129C51.3864 3.62142 50.4834 2.69369 49.333 2.03809C48.1826 1.38249 46.8405 1.05469 45.3066 1.05469C43.6986 1.05469 43.4423 2.31534 43.4423 2.31534C43.4423 2.31534 38.6022 4.02344 37.959 5.35938C37.959 5.35938 24.748 2.76172 24.748 2.76172L26.9004 -27.668L32.366 -30.6324L64.084 -27.668L69.5014 -18.6129L64.084 -15.6445L39.2207 -15.6445L38.1816 -3.47266L38.4785 -3.47266C38.4785 -3.47266 40.8411 -6.54037 42.9688 -7.62891C45.0964 -8.71745 47.5579 -9.26172 50.3535 -9.26172C52.8027 -9.26172 55.0726 -8.82877 57.1631 -7.96289C59.2536 -7.097 61.0719 -5.86621 62.6182 -4.27051C64.1644 -2.6748 65.3643 -0.782227 66.2178 1.40723C67.0713 3.59668 67.498 6.0026 67.498 8.625C67.498 12.4844 66.5827 15.8984 64.752 18.8672C62.9212 21.8359 60.3421 24.1615 57.0146 25.8438C53.6872 27.526 49.7845 28.3672 45.3066 28.3672Z"></path>
  <path fill="#DEDEDE" transform="matrix(1.03802 -0.0518054 0.0697844 1.39826 282.47 194.107)" d="M-51.8282 28.625L-51.8282 -26.668L-47.375 -26.668L-47.375 28.625L-51.8282 28.625ZM-49.75 22.3164C-54.2526 22.3164 -58.1058 21.4196 -61.3096 19.626C-64.5134 17.8324 -66.9626 15.3337 -68.6573 12.1299C-70.3519 8.92611 -71.1993 5.19662 -71.1993 0.941408C-71.1993 -3.3138 -70.3519 -7.04329 -68.6573 -10.2471C-66.9626 -13.4508 -64.5134 -15.9495 -61.3096 -17.7432C-58.1058 -19.5368 -54.2526 -20.4336 -49.75 -20.4336C-46.8802 -20.4336 -44.2826 -20.0625 -41.9571 -19.3203C-39.6315 -18.5781 -37.6091 -17.5205 -35.8897 -16.1475C-34.1703 -14.7744 -32.8034 -13.1169 -31.7891 -11.1748C-30.7748 -9.23274 -30.1439 -7.06185 -29.8965 -4.66211C-29.8965 -4.66211 -43.5899 -2.62109 -43.5899 -2.62109C-43.5899 -2.62109 -44.0166 -4.66829 -44.3506 -5.49707C-44.6846 -6.32584 -45.099 -7.02474 -45.5938 -7.59375C-46.0886 -8.16276 -46.6638 -8.58951 -47.3194 -8.87402C-47.975 -9.15853 -48.711 -9.30078 -49.5274 -9.30078C-50.8386 -9.30078 -51.9766 -8.92969 -52.9414 -8.1875C-53.9063 -7.44531 -54.6547 -6.31966 -55.1866 -4.81054C-55.7185 -3.30143 -55.9844 -1.40885 -55.9844 0.867189C-55.9844 3.11849 -55.7185 5.01107 -55.1866 6.54492C-54.6547 8.07878 -53.9063 9.23535 -52.9414 10.0147C-51.9766 10.7939 -50.8386 11.1836 -49.5274 11.1836C-48.711 11.1836 -47.975 11.0352 -47.3194 10.7383C-46.6638 10.4414 -46.0824 10.0023 -45.5752 9.4209C-45.0681 8.83952 -44.6475 8.11589 -44.3135 7.25C-43.9795 6.38412 -43.7383 5.39453 -43.5899 4.28125C-43.5899 4.28125 -29.8965 6.28516 -29.8965 6.28516C-29.8965 6.28516 -30.7748 10.9795 -31.7891 12.9463C-32.8034 14.9131 -34.1641 16.5954 -35.8711 17.9932C-37.5782 19.391 -39.6006 20.4609 -41.9385 21.2031C-44.2764 21.9453 -46.8802 22.3164 -49.75 22.3164ZM-24.0332 28.625L-24.0332 17.8633L-3.4004 0.792973C-3.4004 0.792973 -0.864594 -1.41504 0.12499 -2.41699C1.11457 -3.41894 1.87532 -4.45182 2.40722 -5.51562C2.93912 -6.57943 3.20507 -7.76693 3.20507 -9.07812C3.20507 -10.4883 2.90201 -11.6943 2.29589 -12.6963C1.68977 -13.6982 0.860992 -14.4714 -0.190439 -15.0156C-1.24187 -15.5599 -2.4603 -15.832 -3.84571 -15.832C-5.23113 -15.832 -6.44955 -15.5537 -7.50099 -14.9971C-8.55242 -14.4404 -9.36883 -13.6302 -9.9502 -12.5664C-10.5316 -11.5026 -10.8223 -10.1914 -10.8223 -8.63281C-10.8223 -8.63281 -25.0723 -8.63281 -25.0723 -8.63281C-25.0723 -8.63281 -24.2002 -15.8568 -22.4561 -18.6523C-20.7119 -21.4479 -18.2442 -23.6064 -15.0527 -25.1279C-11.8613 -26.6494 -8.12566 -27.4102 -3.84571 -27.4102C0.582672 -27.4102 4.41731 -26.7051 7.65819 -25.2949C10.8991 -23.8848 13.404 -21.8994 15.1728 -19.3389C16.9417 -16.7783 17.8262 -13.7786 17.8262 -10.3398C17.8262 -8.21224 17.387 -6.10318 16.5088 -4.01269C15.6305 -1.9222 14.0534 0.397139 11.7773 2.94532C9.50129 5.49349 6.24804 8.51172 2.01757 12C2.01757 12 -3.17774 16.3047 -3.17774 16.3047L-3.17774 16.6758L18.4199 16.6758L18.4199 28.625L-24.0332 28.625ZM45.8066 29.3672C41.5514 29.3672 37.7786 28.6188 34.4883 27.1221C31.1979 25.6253 28.6126 23.5534 26.7324 20.9063C24.8522 18.2591 23.8874 15.2162 23.8379 11.7773C23.8379 11.7773 38.459 11.7773 38.459 11.7773C38.459 11.7773 38.793 14.14 39.4609 15.0801C40.1289 16.0202 41.0195 16.7438 42.1328 17.251C43.2461 17.7581 44.4707 18.0117 45.8066 18.0117C47.3405 18.0117 48.6826 17.6839 49.833 17.0283C50.9834 16.3727 51.8864 15.4512 52.542 14.2637C53.1976 13.0762 53.5254 11.6784 53.5254 10.0703C53.5254 8.4375 53.1976 7.02116 52.542 5.82129C51.8864 4.62142 50.9834 3.69369 49.833 3.03809C48.6826 2.38249 47.3405 2.05469 45.8066 2.05469C44.1986 2.05469 42.7327 2.43815 41.4092 3.20508C40.0856 3.97201 39.1022 5.02344 38.459 6.35938C38.459 6.35938 25.248 3.76172 25.248 3.76172L27.4004 -26.668L64.584 -26.668L64.584 -14.6445L39.7207 -14.6445L38.6816 -2.47265L38.9785 -2.47265C38.9785 -2.47265 41.3411 -5.54036 43.4688 -6.6289C45.5964 -7.71744 48.0579 -8.26171 50.8535 -8.26171C53.3027 -8.26171 55.5726 -7.82877 57.6631 -6.96289C59.7536 -6.097 61.5719 -4.86621 63.1182 -3.2705C64.6644 -1.6748 65.8643 0.217777 66.7178 2.40723C67.5713 4.59668 67.998 7.00261 67.998 9.625C67.998 13.4844 67.0827 16.8984 65.252 19.8672C63.4212 22.8359 60.8421 25.1615 57.5146 26.8438C54.1872 28.526 50.2845 29.3672 45.8066 29.3672Z"></path>
  <clipPath id="cl_2a5">
    <path d="M230.669 236.818L226.811 159.504L231.433 159.273L235.292 236.587L230.669 236.818ZM232.386 227.889C227.712 228.122 223.65 227.068 220.199 224.726C216.749 222.384 214.032 219.017 212.049 214.625C210.067 210.233 208.927 205.062 208.63 199.112C208.333 193.162 208.952 187.904 210.488 183.336C212.023 178.769 214.391 175.148 217.592 172.474C220.792 169.8 224.729 168.346 229.403 168.113C232.382 167.965 235.104 168.349 237.57 169.266C240.035 170.183 242.209 171.558 244.089 173.388C245.97 175.219 247.504 177.466 248.693 180.129C249.881 182.792 250.687 185.795 251.112 189.137C251.112 189.137 237.04 192.701 237.04 192.701C237.04 192.701 236.454 189.86 236.05 188.719C235.645 187.577 235.166 186.621 234.613 185.851C234.06 185.081 233.433 184.514 232.733 184.151C232.032 183.787 231.258 183.626 230.411 183.668C229.05 183.736 227.894 184.314 226.945 185.402C225.995 186.49 225.297 188.102 224.85 190.24C224.403 192.378 224.259 195.038 224.418 198.22C224.575 201.368 224.983 204.001 225.642 206.118C226.301 208.235 227.159 209.813 228.215 210.853C229.271 211.893 230.479 212.379 231.84 212.311C232.688 212.268 233.441 212.023 234.101 211.574C234.761 211.125 235.334 210.48 235.82 209.641C236.306 208.802 236.692 207.768 236.978 206.54C237.264 205.312 237.445 203.916 237.522 202.352C237.522 202.352 251.876 204.444 251.876 204.444C251.876 204.444 251.292 211.054 250.376 213.857C249.46 216.659 248.165 219.082 246.491 221.125C244.817 223.168 242.792 224.769 240.417 225.928C238.042 227.086 235.365 227.74 232.386 227.889ZM259.521 235.378L258.77 220.33L278.996 195.392C278.996 195.392 281.474 192.174 282.431 190.721C283.388 189.269 284.106 187.785 284.584 186.27C285.062 184.755 285.255 183.081 285.164 181.248C285.065 179.276 284.666 177.605 283.967 176.236C283.268 174.866 282.354 173.828 281.225 173.122C280.095 172.415 278.811 172.098 277.373 172.169C275.935 172.241 274.69 172.693 273.637 173.526C272.585 174.359 271.794 175.534 271.265 177.052C270.735 178.569 270.525 180.418 270.634 182.597C270.634 182.597 255.842 183.335 255.842 183.335C255.842 183.335 256.243 173.189 257.859 169.19C259.474 165.191 261.885 162.045 265.092 159.752C268.298 157.459 272.123 156.202 276.565 155.98C281.162 155.751 285.192 156.538 288.654 158.342C292.117 160.146 294.855 162.792 296.87 166.281C298.885 169.769 300.012 173.918 300.252 178.726C300.401 181.701 300.092 184.673 299.327 187.641C298.561 190.61 297.086 193.935 294.901 197.616C292.716 201.296 289.55 205.685 285.402 210.782C285.402 210.782 280.309 217.07 280.309 217.07L280.335 217.589L302.754 216.47L303.588 233.178L259.521 235.378ZM332.068 232.797C327.651 233.018 323.682 232.167 320.162 230.244C316.642 228.322 313.814 225.559 311.678 221.955C309.541 218.351 308.327 214.146 308.036 209.34C308.036 209.34 323.213 208.583 323.213 208.583C323.213 208.583 323.725 211.869 324.484 213.149C325.243 214.429 326.218 215.395 327.409 216.046C328.6 216.698 329.888 216.989 331.275 216.919C332.867 216.84 334.238 216.312 335.386 215.336C336.534 214.359 337.407 213.024 338.005 211.33C338.603 209.635 338.845 207.664 338.733 205.415C338.619 203.132 338.18 201.169 337.416 199.525C336.652 197.881 335.65 196.631 334.41 195.774C333.17 194.917 331.754 194.528 330.162 194.607C328.492 194.691 326.998 195.303 325.677 196.444C324.357 197.585 323.409 199.106 322.835 201.007C322.835 201.007 308.941 198.059 308.941 198.059L309.051 155.399L347.648 153.473L348.487 170.285L322.679 171.573L322.45 188.646L322.758 188.631C322.758 188.631 324.996 184.219 327.129 182.587C329.261 180.954 331.779 180.066 334.68 179.921C337.223 179.794 339.609 180.282 341.84 181.384C344.07 182.487 346.043 184.113 347.76 186.265C349.476 188.416 350.854 191 351.892 194.017C352.931 197.034 353.542 200.376 353.725 204.043C353.994 209.439 353.282 214.261 351.589 218.506C349.896 222.752 347.381 226.138 344.045 228.662C340.708 231.187 336.716 232.565 332.068 232.797Z"></path>
  </clipPath>
  <g clip-path="url(#cl_2a5)">
    <path fill="#F2F1F1" transform="matrix(1.00305 0.411784 -0.276117 1.33725 260.1 237.011)" d="M-170.753 -28.5017L169.944 -28.5017L169.944 28.5017L-170.753 28.5017L-170.753 -28.5017Z"></path>
    <path fill="#F2F1F1" transform="matrix(1.00305 0.411784 -0.276117 1.33725 247.561 288.099)" d="M-170.753 -5.22017L169.944 -5.22017L169.944 5.22016L-170.753 5.22016L-170.753 -5.22017Z"></path>
  </g>
  <path fill="#8E8B8B" transform="matrix(1.39826 -0.0697844 0.0697844 1.39826 268.387 26.6012)" d="M-9.53674e-07 0C-9.53674e-07 0 -13.4556 -1.52588e-05 -18.3506 1.52588e-05C-60.9171 1.30371 -114.023 32.2772 -114.023 128C-114.023 223.723 -51.6646 256 -19 256C-14.1049 256 0 256 1.90735e-06 256C-22.6105 256 -95.0226 223.723 -95.0226 128C-95.0226 32.2772 -22.6105 0 -9.53674e-07 0Z"></path>
  <clipPath id="cl_2a7">
    <path d="M268.387 26.6012C268.387 26.6012 249.573 27.5401 242.728 27.8817C183.3 32.6751 111.206 79.69 117.886 213.535C124.566 347.381 214.011 388.161 259.685 385.882C266.529 385.54 286.252 384.556 286.252 384.556C254.636 386.134 151.133 346.055 144.453 212.209C137.773 78.3641 236.771 28.179 268.387 26.6012Z"></path>
  </clipPath>
  <g clip-path="url(#cl_2a7)">
    <path fill="#ACABAB" transform="matrix(1.03802 -0.0518054 0.0697844 1.39826 191.32 288.927)" d="M-105.5 -84.825L105 -84.825L105 9.18979L-105.5 9.18979L-105.5 -84.825Z"></path>
    <path fill="#D6D6D6" transform="matrix(1.03802 -0.0518054 0.0697844 1.39826 180.489 248.152)" d="M-105.5 -6.33596L105 -6.33596L105 6.00789L-105.5 6.00789L-105.5 -6.33596Z"></path>
    <path fill="#D6D6D6" transform="matrix(1.04097 -0.0519527 0.0695865 1.39429 182.302 190.656)" d="M-175.044 -29.1276L174.214 -29.1276L174.214 29.1276L-175.044 29.1276L-175.044 -29.1276Z"></path>
  </g>
  <path fill="#A5A5A5" transform="matrix(1.16768 0 0 0.246859 272.419 478.039)" d="M-0.25 -88C55.945 -88 101.5 -48.6011 101.5 0C101.5 48.6011 55.945 88 -0.25 88C-56.445 88 -102 48.6011 -102 0C-102 -48.6011 -56.445 -88 -0.25 -88Z" style="mix-blend-mode: multiply"></path>
</svg>