<?xml version="1.0" encoding="utf-8"?>
<svg xmlns="http://www.w3.org/2000/svg" xmlns:xlink="http://www.w3.org/1999/xlink" width="512" height="512">
  <path fill="#312F2F" transform="matrix(0.911243 -0.0663846 0.101721 1.3963 250.79 218.338)" d="M-2.38419e-07 -128C70.6924 -128 128 -70.6924 128 1.90735e-06C128 70.6924 70.6924 128 -2.38419e-07 128C-70.6924 128 -128 70.6924 -128 1.90735e-06C-128 -70.6924 -70.6924 -128 -2.38419e-07 -128Z"></path>
  <path fill="none" stroke="black" stroke-width="7" stroke-miterlimit="4" transform="translate(256 256)" d="M8.299 -218.321C72.717 -223.014 130.767 -146.8 137.958 -48.092C145.149 50.6158 98.7576 134.439 34.3396 139.132C-30.0784 143.824 -88.1288 67.6102 -95.3198 -31.0976C-102.511 -129.805 -56.119 -213.628 8.299 -218.321Z"></path>
  <path fill="none" stroke="black" stroke-width="7" stroke-linejoin="round" transform="translate(256 256)" d="M8.299 -218.321C8.299 -218.321 -8.21753 -217.118 -17.4336 -216.447C-69.5508 -210.82 -131.587 -162.823 -121.849 -29.1649C-112.112 104.493 -32.2854 143.985 7.80995 141.064C17.026 140.393 34.3396 139.132 34.3396 139.132C33.8581 139.167 33.3571 139.189 32.8375 139.2"></path>
  <path fill="#DEDEDE" transform="matrix(0.911243 -0.0663846 0.101721 1.3963 277.319 216.405)" d="M0 -128C70.6924 -128 128 -70.6924 128 -1.90735e-06C128 70.6924 70.6924 128 0 128C-70.6924 128 -128 70.6924 -128 -1.90735e-06C-128 -70.6924 -70.6924 -128 0 -128Z"></path>
  <clipPath id="cl_256">
    <path d="M264.299 37.6788C328.717 32.9859 386.767 109.2 393.958 207.908C401.149 306.616 354.758 390.439 290.34 395.132C225.922 399.824 167.871 323.61 160.68 224.902C153.489 126.195 199.881 42.3717 264.299 37.6788Z"></path>
  </clipPath>
  <g clip-path="url(#cl_256)">
    <path fill="#F2F1F1" transform="matrix(0.893877 0.397373 -0.204194 1.34021 280.66 237.113)" d="M-170.753 -28.5017L169.944 -28.5017L169.944 28.5017L-170.753 28.5017L-170.753 -28.5017Z"></path>
    <path fill="#F2F1F1" transform="matrix(0.893877 0.397373 -0.204194 1.34021 271.103 288.264)" d="M-170.753 -5.22017L169.944 -5.22017L169.944 5.22016L-170.753 5.22016L-170.753 -5.22017Z"></path>
  </g>
  <path fill="#8B8B8B" transform="matrix(0.911243 -0.0663846 0.101721 1.3963 283.141 214.577)" d="M0.25 -87.5C51.4744 -87.5 93 -48.4368 93 -0.250002C93 47.9368 51.4744 87 0.25 87C-50.9744 87 -92.5 47.9368 -92.5 -0.250002C-92.5 -48.4368 -50.9744 -87.5 0.25 -87.5Z"></path>
  <path fill="#B0AFAF" transform="matrix(0.911243 -0.0663846 0.101721 1.3963 277.319 216.405)" d="M0 -86C47.4965 -86 86 -47.4965 86 -1.90735e-06C86 47.4965 47.4965 86 0 86C-47.4965 86 -86 47.4965 -86 -1.90735e-06C-86 -47.4965 -47.4965 -86 0 -86Z"></path>
  <path fill="#8B8B8B" transform="matrix(0.911243 -0.0663846 0.101721 1.3963 277.368 210.787)" d="M-52.3281 27.625L-52.3281 -27.668L-46.756 -30.4056L-46.7825 24.7561L-42.4191 24.6238L-47.1315 27.6684L-52.3281 27.625ZM-50.25 21.3164C-54.7526 21.3164 -58.6058 20.4196 -61.8096 18.626C-65.0133 16.8324 -67.4626 14.3337 -69.1572 11.1299C-70.8519 7.92611 -71.6992 4.19662 -71.6992 -0.0585938C-71.6992 -4.3138 -70.8519 -8.04329 -69.1572 -11.2471C-67.4626 -14.4508 -65.0133 -16.9495 -61.8096 -18.7432C-58.6058 -20.5368 -54.7526 -21.4336 -50.25 -21.4336C-47.3802 -21.4336 -44.7825 -21.0625 -42.457 -20.3203C-40.1315 -19.5781 -38.109 -18.5205 -36.3896 -17.1475C-34.6702 -15.7744 -27.78 -10.4693 -25.0591 -8.68545C-26.0599 -7.96244 -28.21 -6.90539 -30.3965 -5.66211C-30.3965 -5.66211 -44.0898 -3.62109 -44.0898 -3.62109C-44.0898 -3.62109 -44.5166 -5.66829 -44.8506 -6.49707C-45.1846 -7.32584 -45.599 -8.02474 -46.0937 -8.59375C-46.5885 -9.16276 -47.1637 -9.58951 -47.8193 -9.87402C-48.4749 -10.1585 -49.2109 -10.3008 -50.0273 -10.3008C-51.3385 -10.3008 -52.4766 -9.92969 -53.4414 -9.1875C-54.4062 -8.44531 -55.1546 -7.31966 -55.6865 -5.81054C-56.2184 -4.30143 -56.4844 -2.40885 -56.4844 -0.132812C-56.4844 2.11849 -56.2184 4.01107 -55.6865 5.54492C-55.1546 7.07878 -54.4062 8.23535 -53.4414 9.01465C-52.4766 9.79395 -51.3385 10.1836 -50.0273 10.1836C-49.2109 10.1836 -48.4749 10.0352 -47.8193 9.73828C-47.1637 9.44141 -46.5824 9.00228 -46.0752 8.4209C-45.568 7.83952 -45.8968 6.99338 -44.8135 6.25C-43.7302 5.50662 -38.8902 1.52308 -38.7417 0.409798C-38.7417 0.409798 -30.3965 5.28516 -30.3965 5.28516C-30.3965 5.28516 -31.2747 9.97949 -32.2891 11.9463C-33.3034 13.9131 -34.6641 15.5954 -36.3711 16.9932C-38.0781 18.3909 -40.1006 19.4609 -42.4385 20.2031C-44.7764 20.9453 -47.3802 21.3164 -50.25 21.3164ZM-24.5332 27.625L-24.5332 16.8633L-3.90039 -0.207033C-3.90039 -0.207033 -1.36459 -2.41504 -0.375002 -3.41699C0.614582 -4.41895 1.37532 -5.45182 1.90722 -6.51562C2.43913 -7.57943 2.70508 -8.76693 2.70508 -10.0781C2.70508 -11.4883 2.40202 -12.6943 1.7959 -13.6963C1.18978 -14.6982 0.361 -15.4714 -0.690432 -16.0156C-1.74186 -16.5599 -2.96029 -16.832 -4.34571 -16.832C-5.73112 -16.832 -6.94955 -16.5537 -8.00098 -15.9971C-9.05241 -15.4404 -6.2922 -13.7058 -5.86801 -12.6284C-7.10779 -11.907 -9.37628 -10.5827 -11.3223 -9.63281C-11.3223 -9.63281 -25.5723 -9.63281 -25.5723 -9.63281C-25.5723 -9.63281 -24.7002 -16.8568 -22.9561 -19.6523C-21.2119 -22.4479 -18.7441 -24.6064 -15.5527 -26.1279C-12.3613 -27.6494 -8.62565 -28.4102 -4.34571 -28.4102C0.0826797 -28.4102 3.91732 -27.7051 7.1582 -26.2949C10.3991 -24.8848 12.904 -22.8994 14.6728 -20.3389C16.4417 -17.7783 17.3262 -14.7786 17.3262 -11.3398C17.3262 -9.21224 16.887 -7.10319 16.0088 -5.0127C15.1305 -2.9222 13.5534 -0.602867 11.2773 1.94531C9.0013 4.49349 5.74804 7.51172 1.51758 11C1.51758 11 -3.67774 15.3047 -3.67774 15.3047L-3.67774 15.6758L17.9199 15.6758L23.3601 24.6526L17.9199 27.625L-24.5332 27.625ZM45.3066 28.3672C41.0514 28.3672 37.2786 27.6188 33.9883 26.1221C30.6979 24.6253 28.1126 22.5534 26.2324 19.9062C24.3522 17.2591 23.3874 14.2161 23.3379 10.7773C23.3379 10.7773 28.8025 7.82547 28.8025 7.82547L37.959 10.7773C37.959 10.7773 38.293 13.14 38.9609 14.0801C39.6289 15.0202 40.5195 15.7438 41.6328 16.251C42.7461 16.7581 43.9707 17.0117 45.3066 17.0117C46.8405 17.0117 48.1826 16.6839 49.333 16.0283C50.4834 15.3727 51.3864 14.4512 52.042 13.2637C52.6976 12.0762 53.0254 10.6784 53.0254 9.07031C53.0254 7.4375 52.6976 6.02116 52.042 4.82129C51.3864 3.62142 50.4834 2.69368 49.333 2.03808C48.1826 1.38248 46.8405 1.05469 45.3066 1.05469C43.6986 1.05469 43.4422 2.31534 43.4422 2.31534C43.4422 2.31534 38.6022 4.02344 37.959 5.35937C37.959 5.35937 24.748 2.76172 24.748 2.76172L26.9004 -27.668L32.366 -30.6324L64.084 -27.668L69.5014 -18.6129L64.084 -15.6445L39.2207 -15.6445L38.1816 -3.47266L38.4785 -3.47266C38.4785 -3.47266 40.8411 -6.54037 42.9687 -7.62891C45.0964 -8.71745 47.5579 -9.26172 50.3535 -9.26172C52.8027 -9.26172 55.0726 -8.82877 57.1631 -7.96289C59.2536 -7.097 61.0719 -5.86621 62.6182 -4.27051C64.1644 -2.67481 65.3643 -0.782228 66.2178 1.40722C67.0713 3.59668 67.498 6.0026 67.498 8.625C67.498 12.4844 66.5827 15.8984 64.7519 18.8672C62.9212 21.8359 60.3421 24.1615 57.0146 25.8437C53.6872 27.526 49.7845 28.3672 45.3066 28.3672Z"></path>
  <path fill="#DEDEDE" transform="matrix(0.911243 -0.0663846 0.101721 1.3963 281.517 204.87)" d="M-51.8281 28.625L-51.8281 -26.668L-47.375 -26.668L-47.375 28.625L-51.8281 28.625ZM-49.75 22.3164C-54.2526 22.3164 -58.1058 21.4196 -61.3096 19.626C-64.5134 17.8324 -66.9626 15.3337 -68.6572 12.1299C-70.3519 8.92611 -71.1992 5.19662 -71.1992 0.941406C-71.1992 -3.3138 -70.3519 -7.04329 -68.6572 -10.2471C-66.9626 -13.4508 -64.5134 -15.9495 -61.3096 -17.7432C-58.1058 -19.5368 -54.2526 -20.4336 -49.75 -20.4336C-46.8802 -20.4336 -44.2826 -20.0625 -41.9571 -19.3203C-39.6315 -18.5781 -37.6091 -17.5205 -35.8897 -16.1475C-34.1703 -14.7744 -32.8034 -13.1169 -31.7891 -11.1748C-30.7748 -9.23274 -30.1439 -7.06185 -29.8965 -4.66211C-29.8965 -4.66211 -43.5899 -2.62109 -43.5899 -2.62109C-43.5899 -2.62109 -44.0166 -4.66829 -44.3506 -5.49707C-44.6846 -6.32584 -45.099 -7.02474 -45.5938 -7.59375C-46.0886 -8.16276 -46.6638 -8.58951 -47.3194 -8.87402C-47.975 -9.15853 -48.711 -9.30078 -49.5274 -9.30078C-50.8386 -9.30078 -51.9766 -8.92969 -52.9414 -8.1875C-53.9063 -7.44531 -54.6546 -6.31966 -55.1865 -4.81054C-55.7185 -3.30143 -55.9844 -1.40885 -55.9844 0.867188C-55.9844 3.11849 -55.7185 5.01107 -55.1865 6.54492C-54.6546 8.07878 -53.9063 9.23535 -52.9414 10.0146C-51.9766 10.7939 -50.8386 11.1836 -49.5274 11.1836C-48.711 11.1836 -47.975 11.0352 -47.3194 10.7383C-46.6638 10.4414 -46.0824 10.0023 -45.5752 9.4209C-45.0681 8.83952 -44.6475 8.11588 -44.3135 7.25C-43.9795 6.38412 -43.7383 5.39453 -43.5899 4.28125C-43.5899 4.28125 -29.8965 6.28516 -29.8965 6.28516C-29.8965 6.28516 -30.7748 10.9795 -31.7891 12.9463C-32.8034 14.9131 -34.1641 16.5954 -35.8711 17.9932C-37.5782 19.3909 -39.6006 20.4609 -41.9385 21.2031C-44.2764 21.9453 -46.8802 22.3164 -49.75 22.3164ZM-24.0332 28.625L-24.0332 17.8633L-3.4004 0.792969C-3.4004 0.792969 -0.864594 -1.41504 0.12499 -2.41699C1.11457 -3.41894 1.87532 -4.45182 2.40722 -5.51562C2.93912 -6.57943 3.20507 -7.76693 3.20507 -9.07812C3.20507 -10.4883 2.90201 -11.6943 2.29589 -12.6963C1.68977 -13.6982 0.860992 -14.4714 -0.190439 -15.0156C-1.24187 -15.5599 -2.4603 -15.832 -3.84571 -15.832C-5.23113 -15.832 -6.44955 -15.5537 -7.50099 -14.9971C-8.55242 -14.4404 -9.36883 -13.6302 -9.9502 -12.5664C-10.5316 -11.5026 -10.8223 -10.1914 -10.8223 -8.63281C-10.8223 -8.63281 -25.0723 -8.63281 -25.0723 -8.63281C-25.0723 -8.63281 -24.2002 -15.8568 -22.4561 -18.6523C-20.7119 -21.4479 -18.2441 -23.6064 -15.0527 -25.1279C-11.8613 -26.6494 -8.12566 -27.4102 -3.84571 -27.4102C0.582672 -27.4102 4.41731 -26.7051 7.65819 -25.2949C10.8991 -23.8848 13.404 -21.8994 15.1728 -19.3389C16.9417 -16.7783 17.8262 -13.7786 17.8262 -10.3398C17.8262 -8.21224 17.387 -6.10319 16.5088 -4.01269C15.6305 -1.9222 14.0534 0.397135 11.7773 2.94531C9.50129 5.49349 6.24804 8.51172 2.01757 12C2.01757 12 -3.17774 16.3047 -3.17774 16.3047L-3.17774 16.6758L18.4199 16.6758L18.4199 28.625L-24.0332 28.625ZM45.8066 29.3672C41.5514 29.3672 37.7786 28.6188 34.4883 27.1221C31.1979 25.6253 28.6126 23.5534 26.7324 20.9062C24.8522 18.2591 23.8874 15.2161 23.8379 11.7773C23.8379 11.7773 38.459 11.7773 38.459 11.7773C38.459 11.7773 38.793 14.14 39.4609 15.0801C40.1289 16.0202 41.0195 16.7438 42.1328 17.251C43.2461 17.7581 44.4707 18.0117 45.8066 18.0117C47.3405 18.0117 48.6826 17.6839 49.833 17.0283C50.9834 16.3727 51.8864 15.4512 52.542 14.2637C53.1976 13.0762 53.5254 11.6784 53.5254 10.0703C53.5254 8.4375 53.1976 7.02116 52.542 5.82129C51.8864 4.62142 50.9834 3.69369 49.833 3.03809C48.6826 2.38249 47.3405 2.05469 45.8066 2.05469C44.1986 2.05469 42.7327 2.43815 41.4092 3.20508C40.0856 3.97201 39.1022 5.02344 38.459 6.35938C38.459 6.35938 25.248 3.76172 25.248 3.76172L27.4004 -26.668L64.584 -26.668L64.584 -14.6445L39.7207 -14.6445L38.6816 -2.47265L38.9785 -2.47265C38.9785 -2.47265 41.3411 -5.54036 43.4688 -6.6289C45.5964 -7.71744 48.0579 -8.26171 50.8535 -8.26171C53.3027 -8.26171 55.5726 -7.82877 57.6631 -6.96289C59.7536 -6.097 61.5719 -4.86621 63.1182 -3.27051C64.6644 -1.6748 65.8643 0.217775 66.7178 2.40723C67.5713 4.59668 67.998 7.00261 67.998 9.625C67.998 13.4844 67.0827 16.8984 65.252 19.8672C63.4212 22.8359 60.8421 25.1615 57.5146 26.8438C54.1872 28.526 50.2845 29.3672 45.8066 29.3672Z"></path>
  <clipPath id="cl_258">
    <path d="M237.201 248.279L231.577 171.074L235.635 170.778L241.259 247.984L237.201 248.279ZM238.453 239.333C234.35 239.632 230.748 238.635 227.646 236.343C224.544 234.052 222.058 230.725 220.188 226.364C218.318 222.003 217.166 216.852 216.733 210.911C216.3 204.969 216.693 199.705 217.912 195.119C219.13 190.534 221.108 186.882 223.845 184.165C226.582 181.448 230.002 179.94 234.104 179.641C236.72 179.45 239.124 179.796 241.319 180.678C243.514 181.56 245.464 182.902 247.171 184.706C248.877 186.509 250.291 188.732 251.413 191.377C252.535 194.021 253.331 197.01 253.8 200.345C253.8 200.345 241.53 204.104 241.53 204.104C241.53 204.104 240.933 201.273 240.544 200.138C240.155 199.003 239.707 198.055 239.198 197.293C238.689 196.532 238.122 195.974 237.495 195.62C236.869 195.266 236.184 195.117 235.44 195.171C234.245 195.258 233.246 195.852 232.442 196.952C231.638 198.052 231.071 199.674 230.74 201.816C230.409 203.959 230.359 206.619 230.59 209.797C230.819 212.941 231.254 215.565 231.895 217.672C232.536 219.778 233.335 221.344 234.294 222.368C235.252 223.392 236.329 223.86 237.524 223.773C238.267 223.719 238.923 223.463 239.49 223.005C240.057 222.547 240.543 221.895 240.946 221.05C241.349 220.204 241.658 219.166 241.874 217.935C242.091 216.703 242.21 215.306 242.232 213.741C242.232 213.741 254.914 215.63 254.914 215.63C254.914 215.63 254.591 222.243 253.867 225.057C253.142 227.87 252.074 230.31 250.66 232.375C249.247 234.44 247.513 236.068 245.458 237.26C243.403 238.451 241.068 239.142 238.453 239.333ZM262.529 246.434L261.434 231.408L278.499 206.203C278.499 206.203 280.586 202.951 281.385 201.487C282.185 200.022 282.773 198.529 283.15 197.008C283.526 195.488 283.648 193.812 283.515 191.981C283.371 190.012 282.972 188.348 282.318 186.989C281.664 185.631 280.83 184.606 279.816 183.916C278.803 183.226 277.665 182.927 276.403 183.019C275.14 183.111 274.058 183.58 273.157 184.427C272.255 185.274 271.594 186.46 271.172 187.984C270.75 189.508 270.619 191.358 270.778 193.534C270.778 193.534 257.792 194.48 257.792 194.48C257.792 194.48 257.852 184.335 259.157 180.316C260.462 176.297 262.491 173.119 265.245 170.783C267.998 168.447 271.325 167.136 275.225 166.852C279.26 166.558 282.826 167.288 285.923 169.042C289.02 170.796 291.504 173.402 293.376 176.86C295.249 180.317 296.36 184.447 296.71 189.249C296.926 192.22 296.74 195.194 296.153 198.171C295.565 201.148 294.364 204.491 292.549 208.2C290.734 211.909 288.077 216.34 284.577 221.491C284.577 221.491 280.28 227.847 280.28 227.847L280.318 228.365L299.999 226.931L301.214 243.616L262.529 246.434ZM326.246 242.834C322.368 243.117 318.854 242.322 315.703 240.451C312.553 238.579 309.986 235.858 308.004 232.286C306.021 228.715 304.832 224.53 304.438 219.732C304.438 219.732 317.761 218.761 317.761 218.761C317.761 218.761 318.306 222.038 319.01 223.306C319.714 224.575 320.599 225.526 321.665 226.16C322.731 226.794 323.873 227.067 325.091 226.979C326.488 226.877 327.678 226.33 328.659 225.338C329.641 224.346 330.37 223 330.847 221.298C331.323 219.596 331.48 217.623 331.316 215.378C331.15 213.098 330.708 211.142 329.988 209.51C329.269 207.878 328.351 206.643 327.236 205.804C326.121 204.965 324.865 204.596 323.467 204.698C322.002 204.805 320.705 205.437 319.577 206.596C318.449 207.755 317.66 209.288 317.21 211.196C317.21 211.196 304.907 208.446 304.907 208.446L303.773 165.814L337.656 163.346L338.879 180.134L316.223 181.785L316.514 198.849L316.785 198.83C316.785 198.83 318.626 194.389 320.454 192.728C322.282 191.067 324.469 190.144 327.017 189.958C329.249 189.795 331.361 190.249 333.354 191.319C335.347 192.39 337.129 193.988 338.701 196.113C340.272 198.238 341.558 200.801 342.558 203.802C343.559 206.802 344.192 210.133 344.459 213.795C344.852 219.184 344.365 224.012 342.999 228.278C341.632 232.545 339.519 235.964 336.658 238.534C333.797 241.103 330.326 242.537 326.246 242.834Z"></path>
  </clipPath>
  <g clip-path="url(#cl_258)">
    <path fill="#F2F1F1" transform="matrix(0.893877 0.397373 -0.204194 1.34021 264.665 229.381)" d="M-170.753 -28.5017L169.944 -28.5017L169.944 28.5017L-170.753 28.5017L-170.753 -28.5017Z"></path>
    <path fill="#F2F1F1" transform="matrix(0.893877 0.397373 -0.204194 1.34021 255.114 280.611)" d="M-170.753 -5.22017L169.944 -5.22017L169.944 5.22016L-170.753 5.22016L-170.753 -5.22017Z"></path>
  </g>
  <path fill="#8E8B8B" transform="matrix(1.3963 -0.101721 0.101721 1.3963 264.299 37.6788)" d="M1.90735e-06 1.52588e-05C1.90735e-06 1.52588e-05 -11.8288 0 -18.4291 1.52588e-05C-55.8494 1.30371 -102.534 32.2772 -102.534 128C-102.534 223.723 -47.7155 256 -19 256C-12.3996 256 0 256 3.8147e-06 256C-19.8769 256 -83.5344 223.723 -83.5344 128C-83.5344 32.2772 -19.877 1.52588e-05 1.90735e-06 1.52588e-05Z"></path>
  <clipPath id="cl_25a">
    <path d="M264.299 37.6788C264.299 37.6788 247.782 38.8821 238.566 39.5535C186.449 45.1803 124.413 93.1774 134.151 226.835C143.888 360.493 223.715 399.985 263.81 397.064C273.026 396.393 290.34 395.132 290.34 395.132C262.585 397.153 170.417 358.56 160.68 224.902C150.943 91.2447 236.545 39.7007 264.299 37.6788Z"></path>
  </clipPath>
  <g clip-path="url(#cl_25a)">
    <path fill="#ACABAB" transform="matrix(0.911243 -0.0663846 0.101721 1.3963 200.898 301.14)" d="M-105.5 -90.6061L105 -90.6061L105 14.9709L-105.5 14.9709L-105.5 -90.6061Z"></path>
    <path fill="#D6D6D6" transform="matrix(0.911243 -0.0663846 0.101721 1.3963 188.673 239.628)" d="M-105.5 -6.18309L105 -6.18309L105 5.54928L-105.5 5.54928L-105.5 -6.18309Z"></path>
    <path fill="#D6D6D6" transform="matrix(0.913834 -0.0665734 0.101433 1.39234 188.74 183.964)" d="M-175.043 -27.6959L174.214 -27.6959L174.214 27.6959L-175.043 27.6959L-175.043 -27.6959Z"></path>
  </g>
  <path fill="#A5A5A5" transform="matrix(0.951178 0 0 0.273564 272.419 478.039)" d="M-0.250002 -88C55.945 -88 101.5 -48.6011 101.5 0C101.5 48.6011 55.945 88 -0.250002 88C-56.445 88 -102 48.6011 -102 0C-102 -48.6011 -56.445 -88 -0.250002 -88Z" style="mix-blend-mode: multiply"></path>
</svg>