<?xml version="1.0" encoding="utf-8"?>
<svg xmlns="http://www.w3.org/2000/svg" xmlns:xlink="http://www.w3.org/1999/xlink" width="512" height="512">
  <path fill="#312F2F" transform="matrix(0.868919 -0.149493 0.237376 1.37973 251.104 223.67)" d="M2.38419e-07 -128C70.6924 -128 128 -70.6925 128 -1.90735e-06C128 70.6925 70.6924 128 2.38419e-07 128C-70.6924 128 -128 70.6925 -128 -1.90735e-06C-128 -70.6925 -70.6924 -128 2.38419e-07 -128Z"></path>
  <path fill="none" stroke="black" stroke-width="7" stroke-miterlimit="4" transform="translate(256 256)" d="M-9.06481 -213.445C52.3612 -224.013 115.76 -153.511 132.541 -55.975C149.322 41.5614 113.129 129.197 51.7034 139.765C-9.72257 150.334 -73.1216 79.8317 -89.9023 -17.7047C-106.683 -115.241 -70.4908 -202.877 -9.06481 -213.445Z"></path>
  <path fill="none" stroke="black" stroke-width="7" stroke-linejoin="round" transform="translate(256 256)" d="M-9.06481 -213.445C-9.06481 -213.445 -24.8142 -210.736 -34.5196 -209.066C-84.0332 -198.695 -138.839 -145.266 -116.117 -13.1946C-93.3949 118.877 -12.7445 150.853 25.4886 144.276C35.194 142.606 51.7034 139.765 51.7034 139.765C51.3094 139.833 50.9007 139.893 50.4778 139.946"></path>
  <path fill="#DEDEDE" transform="matrix(0.868919 -0.149493 0.237376 1.37973 277.319 219.16)" d="M-1.90735e-06 -128C70.6924 -128 128 -70.6925 128 -1.90735e-06C128 70.6925 70.6924 128 -1.90735e-06 128C-70.6924 128 -128 70.6925 -128 -1.90735e-06C-128 -70.6925 -70.6924 -128 -1.90735e-06 -128Z"></path>
  <clipPath id="cl_10d">
    <path d="M246.935 42.5548C308.361 31.9867 371.76 102.489 388.541 200.025C405.322 297.561 369.129 385.197 307.703 395.765C246.277 406.334 182.878 335.832 166.098 238.295C149.317 140.759 185.509 53.1229 246.935 42.5548Z"></path>
  </clipPath>
  <g clip-path="url(#cl_10d)">
    <path fill="#F2F1F1" transform="matrix(0.898612 0.313446 -0.062169 1.35194 281.736 234.432)" d="M-170.753 -28.5017L169.944 -28.5017L169.944 28.5017L-170.753 28.5017L-170.753 -28.5017Z"></path>
    <path fill="#F2F1F1" transform="matrix(0.898612 0.313446 -0.062169 1.35194 277.67 286.196)" d="M-170.753 -5.22017L169.944 -5.22017L169.944 5.22016L-170.753 5.22016L-170.753 -5.22017Z"></path>
  </g>
  <path fill="#8B8B8B" transform="matrix(0.868919 -0.149493 0.237376 1.37973 282.73 216.809)" d="M0.249996 -87.5C51.4744 -87.5 93 -48.4368 93 -0.25C93 47.9368 51.4744 87 0.249996 87C-50.9744 87 -92.5 47.9368 -92.5 -0.25C-92.5 -48.4368 -50.9744 -87.5 0.249996 -87.5Z"></path>
  <path fill="#B0AFAF" transform="matrix(0.868919 -0.149493 0.237376 1.37973 277.319 219.16)" d="M-1.90735e-06 -86C47.4965 -86 86 -47.4965 86 -1.90735e-06C86 47.4965 47.4965 86 -1.90735e-06 86C-47.4965 86 -86 47.4965 -86 -1.90735e-06C-86 -47.4965 -47.4965 -86 -1.90735e-06 -86Z"></path>
  <path fill="#8B8B8B" transform="matrix(0.868919 -0.149493 0.237376 1.37973 276.804 213.566)" d="M-52.3281 27.625L-52.3281 -27.668L-46.756 -30.4056L-46.7825 24.7561L-42.4192 24.6238L-47.1315 27.6684L-52.3281 27.625ZM-50.25 21.3164C-54.7526 21.3164 -58.6058 20.4196 -61.8096 18.626C-65.0134 16.8324 -67.4626 14.3337 -69.1572 11.1299C-70.8519 7.92611 -71.6992 4.19662 -71.6992 -0.0585938C-71.6992 -4.3138 -70.8519 -8.0433 -69.1572 -11.2471C-67.4626 -14.4508 -65.0134 -16.9495 -61.8096 -18.7432C-58.6058 -20.5368 -54.7526 -21.4336 -50.25 -21.4336C-47.3802 -21.4336 -44.7826 -21.0625 -42.457 -20.3203C-40.1315 -19.5781 -38.1091 -18.5205 -36.3897 -17.1475C-34.6702 -15.7744 -27.78 -10.4693 -25.0591 -8.68546C-26.0599 -7.96244 -28.21 -6.9054 -30.3965 -5.66211C-30.3965 -5.66211 -44.0898 -3.62109 -44.0898 -3.62109C-44.0898 -3.62109 -44.5166 -5.6683 -44.8506 -6.49707C-45.1846 -7.32584 -45.599 -8.02474 -46.0938 -8.59375C-46.5885 -9.16276 -47.1637 -9.58952 -47.8193 -9.87402C-48.4749 -10.1585 -49.2109 -10.3008 -50.0273 -10.3008C-51.3385 -10.3008 -52.4766 -9.92969 -53.4414 -9.1875C-54.4062 -8.44531 -55.1546 -7.31966 -55.6865 -5.81055C-56.2184 -4.30143 -56.4844 -2.40885 -56.4844 -0.132812C-56.4844 2.11849 -56.2184 4.01107 -55.6865 5.54492C-55.1546 7.07878 -54.4062 8.23535 -53.4414 9.01465C-52.4766 9.79395 -51.3385 10.1836 -50.0273 10.1836C-49.2109 10.1836 -48.4749 10.0352 -47.8193 9.73828C-47.1637 9.44141 -46.5824 9.00228 -46.0752 8.4209C-45.568 7.83952 -45.8968 6.99338 -44.8135 6.25C-43.7302 5.50662 -38.8902 1.52308 -38.7417 0.409798C-38.7417 0.409798 -30.3965 5.28516 -30.3965 5.28516C-30.3965 5.28516 -31.2747 9.97949 -32.2891 11.9463C-33.3034 13.9131 -34.6641 15.5954 -36.3711 16.9932C-38.0781 18.3909 -40.1006 19.4609 -42.4385 20.2031C-44.7764 20.9453 -47.3802 21.3164 -50.25 21.3164ZM-24.5332 27.625L-24.5332 16.8633L-3.90039 -0.207031C-3.90039 -0.207031 -1.36459 -2.41504 -0.375002 -3.41699C0.614582 -4.41895 1.37532 -5.45182 1.90722 -6.51562C2.43913 -7.57943 2.70508 -8.76693 2.70508 -10.0781C2.70508 -11.4883 2.40202 -12.6943 1.7959 -13.6963C1.18978 -14.6982 0.361 -15.4714 -0.690432 -16.0156C-1.74186 -16.5599 -2.96029 -16.832 -4.34571 -16.832C-5.73112 -16.832 -6.94955 -16.5537 -8.00098 -15.9971C-9.05241 -15.4404 -6.2922 -13.7058 -5.86801 -12.6284C-7.10779 -11.907 -9.37628 -10.5827 -11.3223 -9.63281C-11.3223 -9.63281 -25.5723 -9.63281 -25.5723 -9.63281C-25.5723 -9.63281 -24.7002 -16.8568 -22.9561 -19.6523C-21.2119 -22.4479 -18.7441 -24.6064 -15.5527 -26.1279C-12.3613 -27.6494 -8.62565 -28.4102 -4.34571 -28.4102C0.0826797 -28.4102 3.91732 -27.7051 7.1582 -26.2949C10.3991 -24.8848 12.904 -22.8994 14.6728 -20.3389C16.4417 -17.7783 17.3262 -14.7786 17.3262 -11.3398C17.3262 -9.21224 16.887 -7.10319 16.0088 -5.0127C15.1305 -2.9222 13.5534 -0.602865 11.2773 1.94531C9.0013 4.49349 5.74804 7.51172 1.51758 11C1.51758 11 -3.67774 15.3047 -3.67774 15.3047L-3.67774 15.6758L17.9199 15.6758L23.3601 24.6527L17.9199 27.625L-24.5332 27.625ZM45.3066 28.3672C41.0514 28.3672 37.2786 27.6188 33.9883 26.1221C30.6979 24.6253 28.1126 22.5534 26.2324 19.9062C24.3522 17.2591 23.3874 14.2161 23.3379 10.7773C23.3379 10.7773 28.8025 7.82547 28.8025 7.82547L37.959 10.7773C37.959 10.7773 38.293 13.14 38.9609 14.0801C39.6289 15.0202 40.5195 15.7438 41.6328 16.251C42.7461 16.7581 43.9707 17.0117 45.3066 17.0117C46.8405 17.0117 48.1826 16.6839 49.333 16.0283C50.4834 15.3727 51.3864 14.4512 52.042 13.2637C52.6976 12.0762 53.0254 10.6784 53.0254 9.07031C53.0254 7.4375 52.6976 6.02116 52.042 4.82129C51.3864 3.62142 50.4834 2.69369 49.333 2.03809C48.1826 1.38249 46.8405 1.05469 45.3066 1.05469C43.6986 1.05469 43.4422 2.31534 43.4422 2.31534C43.4422 2.31534 38.6022 4.02344 37.959 5.35938C37.959 5.35938 24.748 2.76172 24.748 2.76172L26.9004 -27.668L32.366 -30.6324L64.084 -27.668L69.5014 -18.6129L64.084 -15.6445L39.2207 -15.6445L38.1816 -3.47266L38.4785 -3.47266C38.4785 -3.47266 40.8411 -6.54037 42.9687 -7.62891C45.0963 -8.71745 47.5579 -9.26172 50.3535 -9.26172C52.8027 -9.26172 55.0726 -8.82877 57.1631 -7.96289C59.2536 -7.097 61.0719 -5.86621 62.6182 -4.27051C64.1644 -2.6748 65.3643 -0.782227 66.2178 1.40723C67.0713 3.59668 67.498 6.0026 67.498 8.625C67.498 12.4844 66.5827 15.8984 64.7519 18.8672C62.9212 21.8359 60.3421 24.1615 57.0146 25.8438C53.6872 27.526 49.7845 28.3672 45.3066 28.3672Z"></path>
  <path fill="#DEDEDE" transform="matrix(0.868919 -0.149493 0.237376 1.37973 280.199 207.3)" d="M-51.8282 28.625L-51.8282 -26.668L-47.375 -26.668L-47.375 28.625L-51.8282 28.625ZM-49.75 22.3164C-54.2526 22.3164 -58.1058 21.4196 -61.3096 19.626C-64.5134 17.8324 -66.9626 15.3337 -68.6573 12.1299C-70.3519 8.92611 -71.1992 5.19662 -71.1992 0.941406C-71.1992 -3.3138 -70.3519 -7.0433 -68.6573 -10.2471C-66.9626 -13.4508 -64.5134 -15.9495 -61.3096 -17.7432C-58.1058 -19.5368 -54.2526 -20.4336 -49.75 -20.4336C-46.8802 -20.4336 -44.2826 -20.0625 -41.9571 -19.3203C-39.6315 -18.5781 -37.6091 -17.5205 -35.8897 -16.1475C-34.1703 -14.7744 -32.8034 -13.1169 -31.7891 -11.1748C-30.7748 -9.23275 -30.1439 -7.06185 -29.8965 -4.66211C-29.8965 -4.66211 -43.5899 -2.62109 -43.5899 -2.62109C-43.5899 -2.62109 -44.0166 -4.6683 -44.3506 -5.49707C-44.6846 -6.32584 -45.099 -7.02474 -45.5938 -7.59375C-46.0886 -8.16276 -46.6638 -8.58952 -47.3194 -8.87402C-47.975 -9.15853 -48.711 -9.30078 -49.5274 -9.30078C-50.8386 -9.30078 -51.9766 -8.92969 -52.9414 -8.1875C-53.9063 -7.44531 -54.6547 -6.31966 -55.1866 -4.81055C-55.7185 -3.30143 -55.9844 -1.40885 -55.9844 0.867188C-55.9844 3.11849 -55.7185 5.01107 -55.1866 6.54492C-54.6547 8.07878 -53.9063 9.23535 -52.9414 10.0146C-51.9766 10.7939 -50.8386 11.1836 -49.5274 11.1836C-48.711 11.1836 -47.975 11.0352 -47.3194 10.7383C-46.6638 10.4414 -46.0824 10.0023 -45.5752 9.4209C-45.0681 8.83952 -44.6475 8.11588 -44.3135 7.25C-43.9795 6.38412 -43.7383 5.39453 -43.5899 4.28125C-43.5899 4.28125 -29.8965 6.28516 -29.8965 6.28516C-29.8965 6.28516 -30.7748 10.9795 -31.7891 12.9463C-32.8034 14.9131 -34.1641 16.5954 -35.8711 17.9932C-37.5782 19.3909 -39.6006 20.4609 -41.9385 21.2031C-44.2764 21.9453 -46.8802 22.3164 -49.75 22.3164ZM-24.0332 28.625L-24.0332 17.8633L-3.4004 0.792969C-3.4004 0.792969 -0.864597 -1.41504 0.124987 -2.41699C1.11457 -3.41895 1.87531 -4.45182 2.40721 -5.51562C2.93911 -6.57943 3.20506 -7.76693 3.20506 -9.07812C3.20506 -10.4883 2.902 -11.6943 2.29589 -12.6963C1.68977 -13.6982 0.860989 -14.4714 -0.190443 -15.0156C-1.24187 -15.5599 -2.4603 -15.832 -3.84572 -15.832C-5.23113 -15.832 -6.44956 -15.5537 -7.50099 -14.9971C-8.55242 -14.4404 -9.36883 -13.6302 -9.95021 -12.5664C-10.5316 -11.5026 -10.8223 -10.1914 -10.8223 -8.63281C-10.8223 -8.63281 -25.0723 -8.63281 -25.0723 -8.63281C-25.0723 -8.63281 -24.2002 -15.8568 -22.4561 -18.6523C-20.7119 -21.4479 -18.2442 -23.6064 -15.0527 -25.1279C-11.8613 -26.6494 -8.12566 -27.4102 -3.84572 -27.4102C0.582668 -27.4102 4.4173 -26.7051 7.65819 -25.2949C10.8991 -23.8848 13.404 -21.8994 15.1728 -19.3389C16.9417 -16.7783 17.8262 -13.7786 17.8262 -10.3398C17.8262 -8.21224 17.387 -6.10319 16.5088 -4.0127C15.6305 -1.9222 14.0534 0.397135 11.7773 2.94531C9.50129 5.49349 6.24803 8.51172 2.01756 12C2.01756 12 -3.17775 16.3047 -3.17775 16.3047L-3.17775 16.6758L18.4199 16.6758L18.4199 28.625L-24.0332 28.625ZM45.8066 29.3672C41.5514 29.3672 37.7786 28.6188 34.4883 27.1221C31.1979 25.6253 28.6126 23.5534 26.7324 20.9063C24.8522 18.2591 23.8874 15.2161 23.8379 11.7773C23.8379 11.7773 38.459 11.7773 38.459 11.7773C38.459 11.7773 38.793 14.14 39.4609 15.0801C40.1289 16.0202 41.0195 16.7438 42.1328 17.251C43.2461 17.7581 44.4707 18.0117 45.8066 18.0117C47.3405 18.0117 48.6826 17.6839 49.833 17.0283C50.9834 16.3727 51.8864 15.4512 52.542 14.2637C53.1976 13.0762 53.5254 11.6784 53.5254 10.0703C53.5254 8.4375 53.1976 7.02116 52.542 5.82129C51.8864 4.62142 50.9834 3.69369 49.833 3.03809C48.6826 2.38249 47.3405 2.05469 45.8066 2.05469C44.1986 2.05469 42.7327 2.43815 41.4092 3.20508C40.0856 3.97201 39.1022 5.02344 38.459 6.35938C38.459 6.35938 25.248 3.76172 25.248 3.76172L27.4004 -26.668L64.584 -26.668L64.584 -14.6445L39.7207 -14.6445L38.6816 -2.47265L38.9785 -2.47265C38.9785 -2.47265 41.3411 -5.54037 43.4687 -6.6289C45.5963 -7.71744 48.0579 -8.26172 50.8535 -8.26172C53.3027 -8.26172 55.5726 -7.82877 57.6631 -6.96289C59.7536 -6.097 61.5719 -4.86621 63.1182 -3.27051C64.6644 -1.6748 65.8643 0.217775 66.7178 2.40723C67.5713 4.59668 67.998 7.00261 67.998 9.625C67.998 13.4844 67.0827 16.8984 65.2519 19.8672C63.4212 22.8359 60.8421 25.1615 57.5146 26.8438C54.1872 28.526 50.2845 29.3672 45.8066 29.3672Z"></path>
  <clipPath id="cl_10f">
    <path d="M241.96 254.543L228.835 178.253L232.704 177.588L245.829 253.877L241.96 254.543ZM242.268 245.528C238.356 246.201 234.795 245.54 231.585 243.544C228.375 241.548 225.654 238.467 223.421 234.3C221.188 230.133 219.567 225.114 218.556 219.243C217.546 213.372 217.397 208.099 218.109 203.426C218.821 198.752 220.356 194.938 222.714 191.985C225.073 189.031 228.208 187.218 232.12 186.545C234.614 186.116 236.959 186.239 239.156 186.916C241.353 187.592 243.361 188.749 245.181 190.386C247.001 192.024 248.582 194.106 249.925 196.634C251.267 199.162 252.33 202.063 253.115 205.337C253.115 205.337 241.701 210.2 241.701 210.2C241.701 210.2 240.844 207.439 240.357 206.346C239.87 205.252 239.344 204.35 238.779 203.639C238.214 202.928 237.613 202.425 236.976 202.13C236.339 201.836 235.666 201.749 234.956 201.872C233.817 202.068 232.916 202.75 232.254 203.918C231.592 205.086 231.209 206.751 231.105 208.913C231.001 211.075 231.219 213.726 231.759 216.866C232.294 219.972 232.974 222.544 233.8 224.58C234.627 226.617 235.551 228.101 236.575 229.032C237.598 229.963 238.679 230.33 239.819 230.134C240.528 230.012 241.132 229.698 241.632 229.19C242.131 228.682 242.532 227.99 242.834 227.112C243.137 226.234 243.331 225.172 243.415 223.928C243.5 222.683 243.475 221.282 243.34 219.723C243.34 219.723 255.714 220.441 255.714 220.441C255.714 220.441 256.065 227.049 255.65 229.915C255.236 232.78 254.453 235.305 253.301 237.488C252.15 239.672 250.647 241.451 248.791 242.824C246.936 244.198 244.762 245.099 242.268 245.528ZM266.111 250.388L263.557 235.539L277.433 208.902C277.433 208.902 279.112 205.477 279.734 203.947C280.356 202.416 280.772 200.877 280.982 199.33C281.191 197.783 281.141 196.105 280.829 194.296C280.495 192.35 279.945 190.731 279.181 189.439C278.416 188.148 277.512 187.205 276.47 186.611C275.427 186.017 274.303 185.824 273.1 186.031C271.896 186.238 270.903 186.804 270.122 187.73C269.34 188.655 268.823 189.895 268.57 191.449C268.318 193.004 268.376 194.857 268.746 197.007C268.746 197.007 256.364 199.137 256.364 199.137C256.364 199.137 255.407 189.04 256.259 184.922C257.111 180.804 258.743 177.457 261.155 174.881C263.567 172.304 266.632 170.696 270.351 170.056C274.199 169.394 277.699 169.794 280.849 171.255C284 172.716 286.648 175.081 288.793 178.349C290.938 181.618 292.418 185.624 293.234 190.369C293.739 193.305 293.859 196.28 293.592 199.296C293.325 202.311 292.505 205.747 291.132 209.603C289.759 213.459 287.649 218.11 284.801 223.555C284.801 223.555 281.309 230.271 281.309 230.271L281.397 230.783L300.163 227.554L303 244.041L266.111 250.388ZM326.973 240.971C323.275 241.607 319.819 241.139 316.605 239.565C313.391 237.992 310.652 235.52 308.39 232.149C306.128 228.777 304.568 224.723 303.708 219.986C303.708 219.986 316.413 217.8 316.413 217.8C316.413 217.8 317.264 221.01 318.067 222.207C318.871 223.405 319.817 224.27 320.904 224.803C321.992 225.336 323.116 225.503 324.277 225.304C325.61 225.074 326.698 224.421 327.542 223.345C328.386 222.268 328.952 220.862 329.24 219.125C329.528 217.389 329.481 215.411 329.099 213.193C328.711 210.94 328.09 209.035 327.236 207.477C326.381 205.92 325.377 204.775 324.221 204.042C323.066 203.31 321.822 203.058 320.489 203.287C319.092 203.528 317.909 204.276 316.941 205.532C315.973 206.788 315.368 208.386 315.127 210.325C315.127 210.325 303.031 208.716 303.031 208.716L297.678 166.409L329.987 160.851L332.841 177.44L311.237 181.157L313.224 198.106L313.482 198.061C313.482 198.061 314.806 193.476 316.397 191.656C317.987 189.836 319.997 188.717 322.426 188.299C324.554 187.933 326.629 188.191 328.651 189.073C330.673 189.955 332.545 191.381 334.268 193.352C335.99 195.322 337.482 197.754 338.743 200.648C340.004 203.541 340.946 206.797 341.569 210.415C342.485 215.74 342.5 220.587 341.614 224.957C340.728 229.326 339.039 232.921 336.547 235.739C334.055 238.558 330.864 240.302 326.973 240.971Z"></path>
  </clipPath>
  <g clip-path="url(#cl_10f)">
    <path fill="#F2F1F1" transform="matrix(0.898612 0.313446 -0.062169 1.35194 266.37 228.463)" d="M-170.753 -28.5017L169.944 -28.5017L169.944 28.5017L-170.753 28.5017L-170.753 -28.5017Z"></path>
    <path fill="#F2F1F1" transform="matrix(0.898612 0.313446 -0.062169 1.35194 262.316 280.301)" d="M-170.753 -5.22017L169.944 -5.22017L169.944 5.22016L-170.753 5.22016L-170.753 -5.22017Z"></path>
  </g>
  <path fill="#8E8B8B" transform="matrix(1.37973 -0.237376 0.237376 1.37973 246.935 42.5548)" d="M-9.53674e-07 -1.52588e-05C-9.53674e-07 -1.52588e-05 -11.4149 0 -18.4491 -1.52588e-05C-54.5598 1.30368 -99.6112 32.2772 -99.6112 128C-99.6112 223.723 -46.7106 256 -19 256C-11.9657 256 0 256 3.8147e-06 256C-19.1814 256 -80.6112 223.723 -80.6112 128C-80.6112 32.2772 -19.1814 -1.52588e-05 -9.53674e-07 -1.52588e-05Z"></path>
  <clipPath id="cl_111">
    <path d="M246.935 42.5548C246.935 42.5548 231.186 45.2644 221.48 46.9342C171.967 57.3047 117.161 110.734 139.883 242.805C162.605 374.877 243.255 406.853 281.489 400.276C291.194 398.606 307.703 395.765 307.703 395.765C281.238 400.319 188.82 370.367 166.098 238.295C143.375 106.224 220.47 47.108 246.935 42.5548Z"></path>
  </clipPath>
  <g clip-path="url(#cl_111)">
    <path fill="#ACABAB" transform="matrix(0.868919 -0.149493 0.237376 1.37973 211.447 310.612)" d="M-105.5 -92.0772L105 -92.0772L105 16.442L-105.5 16.442L-105.5 -92.0772Z"></path>
    <path fill="#D6D6D6" transform="matrix(0.868919 -0.149493 0.237376 1.37973 192.645 245.279)" d="M-105.5 -6.14419L105 -6.14419L105 5.43258L-105.5 5.43258L-105.5 -6.14419Z"></path>
    <path fill="#D6D6D6" transform="matrix(0.87139 -0.149919 0.236703 1.37582 187.221 190.355)" d="M-175.044 -27.3316L174.214 -27.3316L174.214 27.3316L-175.044 27.3316L-175.044 -27.3316Z"></path>
  </g>
  <path fill="#A5A5A5" transform="matrix(0.896088 0 0 0.28036 272.419 478.039)" d="M-0.25 -88C55.945 -88 101.5 -48.6011 101.5 0C101.5 48.6011 55.945 88 -0.25 88C-56.445 88 -102 48.6011 -102 0C-102 -48.6011 -56.445 -88 -0.25 -88Z" style="mix-blend-mode: multiply"></path>
</svg>