<?xml version="1.0" encoding="utf-8"?>
<svg xmlns="http://www.w3.org/2000/svg" xmlns:xlink="http://www.w3.org/1999/xlink" width="512" height="512">
  <path fill="#312F2F" transform="matrix(1.16607 -0.011424 0.0137151 1.39993 250.721 194.912)" d="M-4.76837e-07 -128C70.6925 -128 128 -70.6925 128 0C128 70.6925 70.6925 128 -4.76837e-07 128C-70.6925 128 -128 70.6925 -128 0C-128 -70.6925 -70.6925 -128 -4.76837e-07 -128Z"></path>
  <path fill="none" stroke="black" stroke-width="7" stroke-miterlimit="4" transform="translate(256 256)" d="M19.5638 -240.54C101.996 -241.348 169.607 -161.776 170.577 -62.8113C171.546 36.1534 105.507 117.035 23.0749 117.842C-59.3576 118.65 -126.968 39.078 -127.938 -59.8867C-128.907 -158.851 -62.8687 -239.733 19.5638 -240.54Z"></path>
  <path fill="none" stroke="black" stroke-width="7" stroke-linejoin="round" transform="translate(256 256)" d="M19.5638 -240.54C19.5638 -240.54 -1.57161 -240.333 -6.01495 -240.29C-72.8586 -237.81 -155.85 -193.632 -154.537 -59.6261C-153.224 74.3794 -54.8319 118.606 -3.52386 118.103C0.919477 118.059 23.0749 117.842 23.0749 117.842C21.8497 117.854 20.5308 117.814 19.1263 117.718"></path>
  <path fill="#DEDEDE" transform="matrix(1.16607 -0.011424 0.0137151 1.39993 277.319 194.651)" d="M0 -128C70.6925 -128 128 -70.6925 128 0C128 70.6925 70.6925 128 0 128C-70.6925 128 -128 70.6925 -128 0C-128 -70.6925 -70.6925 -128 0 -128Z"></path>
  <clipPath id="cl_2d">
    <path d="M275.564 15.4596C357.996 14.652 425.607 94.224 426.577 193.189C427.546 292.153 361.507 373.035 279.075 373.842C196.642 374.65 129.032 295.078 128.062 196.113C127.093 97.1486 193.131 16.2672 275.564 15.4596Z"></path>
  </clipPath>
  <g clip-path="url(#cl_2d)">
    <path fill="#F2F1F1" transform="matrix(1.10548 0.450462 -0.371247 1.32553 280.25 255.763)" d="M-170.753 -28.5017L169.944 -28.5017L169.944 28.5017L-170.753 28.5017L-170.753 -28.5017Z"></path>
    <path fill="#F2F1F1" transform="matrix(1.10548 0.450462 -0.371247 1.32553 263.835 306.212)" d="M-170.753 -5.22017L169.944 -5.22017L169.944 5.22016L-170.753 5.22016L-170.753 -5.22017Z"></path>
  </g>
  <path fill="#8B8B8B" transform="matrix(1.16607 -0.011424 0.0137151 1.39993 284.885 193.177)" d="M0.25 -87.5C51.4744 -87.5 93 -48.4369 93 -0.25C93 47.9369 51.4744 87 0.25 87C-50.9744 87 -92.5 47.9369 -92.5 -0.25C-92.5 -48.4369 -50.9744 -87.5 0.25 -87.5Z"></path>
  <path fill="#B0AFAF" transform="matrix(1.16607 -0.011424 0.0137151 1.39993 277.319 194.651)" d="M0 -86C47.4965 -86 86 -47.4965 86 0C86 47.4965 47.4965 86 0 86C-47.4965 86 -86 47.4965 -86 0C-86 -47.4965 -47.4965 -86 0 -86Z"></path>
  <path fill="#8B8B8B" transform="matrix(1.16607 -0.011424 0.0137151 1.39993 277.848 189.046)" d="M-52.3281 27.625L-52.3281 -27.668L-46.756 -30.4056L-46.7825 24.7561L-42.4192 24.6238L-47.1315 27.6684L-52.3281 27.625ZM-50.25 21.3164C-54.7526 21.3164 -58.6058 20.4196 -61.8096 18.626C-65.0133 16.8324 -67.4626 14.3337 -69.1572 11.1299C-70.8519 7.9261 -71.6992 4.19661 -71.6992 -0.0585995C-71.6992 -4.31381 -70.8519 -8.0433 -69.1572 -11.2471C-67.4626 -14.4509 -65.0133 -16.9495 -61.8096 -18.7432C-58.6058 -20.5368 -54.7526 -21.4336 -50.25 -21.4336C-47.3802 -21.4336 -44.7826 -21.0625 -42.457 -20.3203C-40.1315 -19.5781 -38.109 -18.5205 -36.3896 -17.1475C-34.6702 -15.7744 -27.78 -10.4694 -25.0591 -8.68546C-26.0599 -7.96245 -28.21 -6.9054 -30.3965 -5.66212C-30.3965 -5.66212 -44.0898 -3.6211 -44.0898 -3.6211C-44.0898 -3.6211 -44.5166 -5.6683 -44.8506 -6.49708C-45.1846 -7.32585 -45.599 -8.02475 -46.0938 -8.59376C-46.5885 -9.16276 -47.1637 -9.58952 -47.8193 -9.87403C-48.4749 -10.1585 -49.2109 -10.3008 -50.0273 -10.3008C-51.3385 -10.3008 -52.4766 -9.92969 -53.4414 -9.18751C-54.4062 -8.44532 -55.1546 -7.31967 -55.6865 -5.81055C-56.2184 -4.30144 -56.4844 -2.40886 -56.4844 -0.132818C-56.4844 2.11848 -56.2184 4.01106 -55.6865 5.54492C-55.1546 7.07877 -54.4062 8.23535 -53.4414 9.01464C-52.4766 9.79394 -51.3385 10.1836 -50.0273 10.1836C-49.2109 10.1836 -48.4749 10.0352 -47.8193 9.73828C-47.1637 9.4414 -46.5824 9.00227 -46.0752 8.42089C-45.568 7.83951 -45.8968 6.99337 -44.8135 6.25C-43.7302 5.50662 -38.8902 1.52307 -38.7417 0.409792C-38.7417 0.409792 -30.3965 5.28515 -30.3965 5.28515C-30.3965 5.28515 -31.2747 9.97949 -32.2891 11.9463C-33.3034 13.9131 -34.6641 15.5954 -36.3711 16.9932C-38.0781 18.3909 -40.1006 19.4609 -42.4385 20.2031C-44.7764 20.9453 -47.3802 21.3164 -50.25 21.3164ZM-24.5332 27.625L-24.5332 16.8633L-3.90039 -0.207035C-3.90039 -0.207035 -1.36459 -2.41504 -0.375004 -3.417C0.61458 -4.41895 1.37532 -5.45182 1.90722 -6.51563C2.43912 -7.57943 2.70507 -8.76693 2.70507 -10.0781C2.70507 -11.4883 2.40201 -12.6943 1.79589 -13.6963C1.18978 -14.6982 0.360998 -15.4714 -0.690434 -16.0156C-1.74187 -16.5599 -2.96029 -16.832 -4.34571 -16.832C-5.73112 -16.832 -6.94955 -16.5537 -8.00098 -15.9971C-9.05241 -15.4404 -6.2922 -13.7058 -5.86801 -12.6284C-7.10779 -11.907 -9.37628 -10.5827 -11.3223 -9.63282C-11.3223 -9.63282 -25.5723 -9.63282 -25.5723 -9.63282C-25.5723 -9.63282 -24.7002 -16.8568 -22.9561 -19.6523C-21.2119 -22.4479 -18.7441 -24.6065 -15.5527 -26.1279C-12.3613 -27.6494 -8.62565 -28.4102 -4.34571 -28.4102C0.0826778 -28.4102 3.91732 -27.7051 7.1582 -26.2949C10.3991 -24.8848 12.904 -22.8994 14.6728 -20.3389C16.4417 -17.7783 17.3262 -14.7786 17.3262 -11.3398C17.3262 -9.21225 16.887 -7.10319 16.0088 -5.0127C15.1305 -2.9222 13.5534 -0.602869 11.2773 1.94531C9.0013 4.49349 5.74804 7.51172 1.51757 11C1.51757 11 -3.67774 15.3047 -3.67774 15.3047L-3.67774 15.6758L17.9199 15.6758L23.3601 24.6527L17.9199 27.625L-24.5332 27.625ZM45.3066 28.3672C41.0514 28.3672 37.2786 27.6188 33.9883 26.1221C30.6979 24.6253 28.1126 22.5534 26.2324 19.9062C24.3522 17.2591 23.3874 14.2161 23.3379 10.7773C23.3379 10.7773 28.8025 7.82547 28.8025 7.82547L37.959 10.7773C37.959 10.7773 38.293 13.14 38.9609 14.0801C39.6289 15.0202 40.5195 15.7438 41.6328 16.251C42.7461 16.7581 43.9707 17.0117 45.3066 17.0117C46.8405 17.0117 48.1826 16.6839 49.333 16.0283C50.4834 15.3727 51.3864 14.4512 52.042 13.2637C52.6976 12.0762 53.0254 10.6784 53.0254 9.07031C53.0254 7.4375 52.6976 6.02116 52.042 4.82129C51.3864 3.62142 50.4834 2.69368 49.333 2.03808C48.1826 1.38248 46.8405 1.05468 45.3066 1.05468C43.6986 1.05468 43.4423 2.31534 43.4423 2.31534C43.4423 2.31534 38.6022 4.02344 37.959 5.35937C37.959 5.35937 24.748 2.76171 24.748 2.76171L26.9004 -27.668L32.366 -30.6324L64.084 -27.668L69.5014 -18.6129L64.084 -15.6445L39.2207 -15.6445L38.1816 -3.47266L38.4785 -3.47266C38.4785 -3.47266 40.8411 -6.54037 42.9688 -7.62891C45.0964 -8.71745 47.5579 -9.26172 50.3535 -9.26172C52.8027 -9.26172 55.0726 -8.82878 57.1631 -7.96289C59.2536 -7.09701 61.0719 -5.86621 62.6182 -4.27051C64.1644 -2.67481 65.3643 -0.78223 66.2178 1.40722C67.0713 3.59668 67.498 6.0026 67.498 8.625C67.498 12.4844 66.5827 15.8984 64.752 18.8672C62.9212 21.8359 60.3421 24.1615 57.0146 25.8438C53.6872 27.526 49.7845 28.3672 45.3066 28.3672Z"></path>
  <path fill="#DEDEDE" transform="matrix(1.16607 -0.011424 0.0137151 1.39993 283.623 183.389)" d="M-51.8282 28.625L-51.8282 -26.668L-47.375 -26.668L-47.375 28.625L-51.8282 28.625ZM-49.75 22.3164C-54.2526 22.3164 -58.1058 21.4196 -61.3096 19.626C-64.5134 17.8324 -66.9626 15.3337 -68.6573 12.1299C-70.3519 8.92611 -71.1992 5.19662 -71.1992 0.941404C-71.1992 -3.3138 -70.3519 -7.0433 -68.6573 -10.2471C-66.9626 -13.4508 -64.5134 -15.9495 -61.3096 -17.7432C-58.1058 -19.5368 -54.2526 -20.4336 -49.75 -20.4336C-46.8802 -20.4336 -44.2826 -20.0625 -41.9571 -19.3203C-39.6315 -18.5781 -37.6091 -17.5205 -35.8897 -16.1475C-34.1703 -14.7744 -32.8034 -13.1169 -31.7891 -11.1748C-30.7748 -9.23275 -30.1439 -7.06185 -29.8965 -4.66211C-29.8965 -4.66211 -43.5899 -2.6211 -43.5899 -2.6211C-43.5899 -2.6211 -44.0166 -4.6683 -44.3506 -5.49707C-44.6846 -6.32585 -45.099 -7.02474 -45.5938 -7.59375C-46.0886 -8.16276 -46.6638 -8.58952 -47.3194 -8.87403C-47.975 -9.15853 -48.711 -9.30078 -49.5274 -9.30078C-50.8386 -9.30078 -51.9766 -8.92969 -52.9414 -8.1875C-53.9063 -7.44531 -54.6547 -6.31967 -55.1866 -4.81055C-55.7185 -3.30143 -55.9844 -1.40886 -55.9844 0.867186C-55.9844 3.11849 -55.7185 5.01107 -55.1866 6.54492C-54.6547 8.07878 -53.9063 9.23535 -52.9414 10.0146C-51.9766 10.7939 -50.8386 11.1836 -49.5274 11.1836C-48.711 11.1836 -47.975 11.0352 -47.3194 10.7383C-46.6638 10.4414 -46.0824 10.0023 -45.5752 9.4209C-45.0681 8.83952 -44.6475 8.11588 -44.3135 7.25C-43.9795 6.38412 -43.7383 5.39453 -43.5899 4.28125C-43.5899 4.28125 -29.8965 6.28516 -29.8965 6.28516C-29.8965 6.28516 -30.7748 10.9795 -31.7891 12.9463C-32.8034 14.9131 -34.1641 16.5954 -35.8711 17.9932C-37.5782 19.391 -39.6006 20.4609 -41.9385 21.2031C-44.2764 21.9453 -46.8802 22.3164 -49.75 22.3164ZM-24.0332 28.625L-24.0332 17.8633L-3.4004 0.792969C-3.4004 0.792969 -0.864595 -1.41504 0.124989 -2.41699C1.11457 -3.41895 1.87531 -4.45182 2.40722 -5.51562C2.93912 -6.57943 3.20507 -7.76693 3.20507 -9.07812C3.20507 -10.4883 2.90201 -11.6943 2.29589 -12.6963C1.68977 -13.6982 0.860991 -14.4714 -0.190441 -15.0156C-1.24187 -15.5599 -2.4603 -15.832 -3.84571 -15.832C-5.23113 -15.832 -6.44956 -15.5537 -7.50099 -14.9971C-8.55242 -14.4404 -9.36883 -13.6302 -9.95021 -12.5664C-10.5316 -11.5026 -10.8223 -10.1914 -10.8223 -8.63281C-10.8223 -8.63281 -25.0723 -8.63281 -25.0723 -8.63281C-25.0723 -8.63281 -24.2002 -15.8568 -22.4561 -18.6523C-20.7119 -21.4479 -18.2442 -23.6064 -15.0527 -25.1279C-11.8613 -26.6494 -8.12566 -27.4102 -3.84571 -27.4102C0.58267 -27.4102 4.41731 -26.7051 7.65819 -25.2949C10.8991 -23.8848 13.404 -21.8994 15.1728 -19.3389C16.9417 -16.7783 17.8262 -13.7786 17.8262 -10.3398C17.8262 -8.21224 17.387 -6.10319 16.5088 -4.0127C15.6305 -1.9222 14.0534 0.397135 11.7773 2.94531C9.50129 5.49349 6.24804 8.51172 2.01757 12C2.01757 12 -3.17775 16.3047 -3.17775 16.3047L-3.17775 16.6758L18.4199 16.6758L18.4199 28.625L-24.0332 28.625ZM45.8066 29.3672C41.5514 29.3672 37.7786 28.6188 34.4883 27.1221C31.1979 25.6253 28.6126 23.5534 26.7324 20.9062C24.8522 18.2591 23.8874 15.2161 23.8379 11.7773C23.8379 11.7773 38.459 11.7773 38.459 11.7773C38.459 11.7773 38.793 14.14 39.4609 15.0801C40.1289 16.0202 41.0195 16.7438 42.1328 17.251C43.2461 17.7581 44.4707 18.0117 45.8066 18.0117C47.3405 18.0117 48.6826 17.6839 49.833 17.0283C50.9834 16.3727 51.8864 15.4512 52.542 14.2637C53.1976 13.0762 53.5254 11.6784 53.5254 10.0703C53.5254 8.4375 53.1976 7.02116 52.542 5.82129C51.8864 4.62142 50.9834 3.69368 49.833 3.03808C48.6826 2.38248 47.3405 2.05469 45.8066 2.05469C44.1986 2.05469 42.7327 2.43815 41.4092 3.20508C40.0856 3.972 39.1022 5.02344 38.459 6.35938C38.459 6.35938 25.248 3.76172 25.248 3.76172L27.4004 -26.668L64.584 -26.668L64.584 -14.6445L39.7207 -14.6445L38.6816 -2.47266L38.9785 -2.47266C38.9785 -2.47266 41.3411 -5.54037 43.4688 -6.62891C45.5964 -7.71745 48.0579 -8.26172 50.8535 -8.26172C53.3027 -8.26172 55.5726 -7.82878 57.6631 -6.96289C59.7536 -6.09701 61.5719 -4.86621 63.1182 -3.27051C64.6644 -1.67481 65.8643 0.217772 66.7178 2.40722C67.5713 4.59668 67.998 7.0026 67.998 9.625C67.998 13.4844 67.0827 16.8984 65.252 19.8672C63.4212 22.8359 60.8421 25.1615 57.5146 26.8438C54.1872 28.526 50.2845 29.3672 45.8066 29.3672Z"></path>
  <clipPath id="cl_2f">
    <path d="M223.58 224.054L222.822 146.647L228.015 146.597L228.773 224.003L223.58 224.054ZM225.917 215.199C220.667 215.25 216.161 214.038 212.401 211.564C208.64 209.09 205.75 205.62 203.73 201.154C201.71 196.688 200.671 191.477 200.612 185.52C200.554 179.563 201.491 174.332 203.423 169.828C205.355 165.323 208.177 161.797 211.888 159.25C215.599 156.702 220.08 155.403 225.331 155.351C228.677 155.319 231.711 155.808 234.433 156.821C237.155 157.833 239.528 159.291 241.552 161.193C243.575 163.096 245.192 165.401 246.401 168.108C247.611 170.815 248.376 173.847 248.698 177.204C248.698 177.204 232.758 180.217 232.758 180.217C232.758 180.217 232.232 177.356 231.832 176.2C231.431 175.043 230.938 174.07 230.353 173.279C229.768 172.488 229.092 171.897 228.323 171.506C227.555 171.115 226.695 170.925 225.743 170.934C224.214 170.949 222.892 171.482 221.777 172.532C220.662 173.582 219.805 175.166 219.206 177.285C218.606 179.403 218.322 182.056 218.353 185.242C218.384 188.394 218.72 191.04 219.361 193.182C220.003 195.323 220.891 196.933 222.027 198.013C223.163 199.093 224.495 199.626 226.024 199.611C226.976 199.601 227.832 199.385 228.592 198.962C229.353 198.539 230.025 197.918 230.608 197.098C231.192 196.278 231.672 195.26 232.05 194.044C232.427 192.828 232.695 191.44 232.853 189.88C232.853 189.88 248.848 192.529 248.848 192.529C248.848 192.529 247.888 199.111 246.732 201.876C245.576 204.641 244.013 207.011 242.041 208.988C240.07 210.964 237.726 212.485 235.01 213.551C232.294 214.616 229.263 215.166 225.917 215.199ZM255.991 223.736L255.844 208.671L279.669 184.538C279.669 184.538 282.595 181.418 283.736 180.004C284.876 178.59 285.749 177.135 286.354 175.64C286.96 174.144 287.254 172.479 287.236 170.643C287.216 168.669 286.847 166.984 286.126 165.589C285.406 164.193 284.428 163.12 283.195 162.37C281.961 161.62 280.537 161.253 278.921 161.269C277.306 161.285 275.889 161.688 274.671 162.479C273.452 163.271 272.511 164.414 271.848 165.91C271.185 167.406 270.864 169.245 270.885 171.427C270.885 171.427 254.269 171.59 254.269 171.59C254.269 171.59 255.186 161.467 257.182 157.533C259.177 153.6 262.025 150.55 265.726 148.383C269.426 146.217 273.772 145.109 278.763 145.06C283.927 145.01 288.408 145.953 292.206 147.89C296.005 149.827 298.953 152.578 301.05 156.142C303.148 159.707 304.221 163.896 304.268 168.71C304.297 171.688 303.814 174.646 302.818 177.583C301.823 180.519 300.016 183.784 297.397 187.377C294.778 190.971 291.025 195.233 286.14 200.165C286.14 200.165 280.141 206.25 280.141 206.25L280.146 206.77L305.331 206.523L305.495 223.251L255.991 223.736ZM337.44 223.977C332.478 224.026 328.068 223.022 324.211 220.964C320.353 218.906 317.31 216.035 315.082 212.351C312.853 208.666 311.686 204.417 311.581 199.604C311.581 199.604 328.63 199.437 328.63 199.437C328.63 199.437 329.052 202.741 329.844 204.049C330.636 205.357 331.684 206.36 332.99 207.058C334.295 207.755 335.726 208.096 337.284 208.081C339.072 208.063 340.633 207.589 341.965 206.658C343.298 205.727 344.338 204.427 345.086 202.757C345.835 201.087 346.198 199.126 346.176 196.875C346.153 194.589 345.752 192.61 344.971 190.938C344.19 189.266 343.124 187.977 341.774 187.073C340.423 186.168 338.854 185.724 337.065 185.742C335.19 185.76 333.486 186.314 331.953 187.403C330.42 188.491 329.288 189.974 328.556 191.852C328.556 191.852 313.116 188.366 313.116 188.366L315.208 145.742L358.567 145.318L358.732 162.15L329.739 162.434L328.695 179.485L329.041 179.482C329.041 179.482 331.754 175.16 334.22 173.612C336.686 172.064 339.549 171.274 342.809 171.242C345.665 171.214 348.317 171.794 350.767 172.982C353.216 174.171 355.354 175.873 357.178 178.089C359.003 180.305 360.428 182.941 361.454 185.996C362.479 189.052 363.01 192.415 363.046 196.086C363.099 201.489 362.078 206.279 359.984 210.456C357.89 214.633 354.914 217.918 351.057 220.311C347.2 222.704 342.661 223.926 337.44 223.977Z"></path>
  </clipPath>
  <g clip-path="url(#cl_2f)">
    <path fill="#F2F1F1" transform="matrix(1.10548 0.450462 -0.371247 1.32553 252.97 244.111)" d="M-170.753 -28.5017L169.944 -28.5017L169.944 28.5017L-170.753 28.5017L-170.753 -28.5017Z"></path>
    <path fill="#F2F1F1" transform="matrix(1.10548 0.450462 -0.371247 1.32553 236.555 294.675)" d="M-170.753 -5.22017L169.944 -5.22017L169.944 5.22016L-170.753 5.22016L-170.753 -5.22017Z"></path>
  </g>
  <path fill="#8E8B8B" transform="matrix(1.39993 -0.0137151 0.0137151 1.39993 275.564 15.4596)" d="M-9.53674e-07 -1.52588e-05C-9.53674e-07 -1.52588e-05 -15.0974 -1.52588e-05 -18.2714 0C-66.0319 1.3037 -125.617 32.2772 -125.617 128C-125.617 223.723 -55.6504 256 -19 256C-15.826 256 -3.8147e-06 256 -1.90735e-06 256C-25.3695 256 -106.617 223.723 -106.617 128C-106.617 32.2772 -25.3695 -1.52588e-05 -9.53674e-07 -1.52588e-05Z"></path>
  <clipPath id="cl_31">
    <path d="M275.564 15.4596C275.564 15.4596 254.428 15.6666 249.985 15.7102C183.141 18.1903 100.15 62.3683 101.463 196.374C102.776 330.379 201.168 374.606 252.476 374.103C256.919 374.059 279.075 373.842 279.075 373.842C243.559 374.19 129.375 330.119 128.062 196.113C126.749 62.1077 240.048 15.8075 275.564 15.4596Z"></path>
  </clipPath>
  <g clip-path="url(#cl_31)">
    <path fill="#ACABAB" transform="matrix(1.16607 -0.011424 0.0137151 1.39993 180.309 274.564)" d="M-105.5 -78.9901L105 -78.9901L105 3.35493L-105.5 3.35493L-105.5 -78.9901Z"></path>
    <path fill="#D6D6D6" transform="matrix(1.16607 -0.011424 0.0137151 1.39993 170.255 254.565)" d="M-105.5 -6.49025L105 -6.49025L105 6.47076L-105.5 6.47076L-105.5 -6.49025Z"></path>
    <path fill="#D6D6D6" transform="matrix(1.16939 -0.0114565 0.0136762 1.39596 174.923 195.344)" d="M-175.044 -30.5727L174.214 -30.5727L174.214 30.5727L-175.044 30.5727L-175.044 -30.5727Z"></path>
  </g>
  <path fill="#A5A5A5" transform="matrix(1.38619 0 0 0.219906 272.419 478.039)" d="M-0.25 -88C55.945 -88 101.5 -48.6011 101.5 0C101.5 48.6011 55.945 88 -0.25 88C-56.445 88 -102 48.6011 -102 0C-102 -48.6011 -56.445 -88 -0.25 -88Z" style="mix-blend-mode: multiply"></path>
</svg>