<?xml version="1.0" encoding="utf-8"?>
<svg xmlns="http://www.w3.org/2000/svg" xmlns:xlink="http://www.w3.org/1999/xlink" width="512" height="512">
  <path fill="#312F2F" transform="matrix(0.868814 -0.0705573 0.113322 1.39541 250.807 222.176)" d="M-2.14577e-06 -128C70.6925 -128 128 -70.6924 128 0C128 70.6924 70.6925 128 1.66893e-06 128C-70.6925 128 -128 70.6924 -128 0C-128 -70.6924 -70.6925 -128 -2.14577e-06 -128Z"></path>
  <path fill="none" stroke="black" stroke-width="7" stroke-miterlimit="4" transform="translate(256 256)" d="M6.81406 -214.589C68.2327 -219.577 124.517 -143.653 132.528 -45.0087C140.539 53.636 97.2432 137.647 35.8246 142.635C-25.594 147.622 -81.8779 71.6987 -89.8889 -26.946C-97.9 -125.591 -54.6046 -209.601 6.81406 -214.589Z"></path>
  <path fill="none" stroke="black" stroke-width="7" stroke-linejoin="round" transform="translate(256 256)" d="M6.81406 -214.589C6.81406 -214.589 -8.93345 -213.31 -18.9387 -212.498C-68.608 -206.633 -127.249 -158.365 -116.402 -24.7929C-105.554 108.779 -28.9166 147.892 9.31187 144.788C19.3171 143.975 35.8246 142.635 35.8246 142.635C35.4514 142.665 35.066 142.687 34.6686 142.701"></path>
  <path fill="#DEDEDE" transform="matrix(0.868814 -0.0705573 0.113322 1.39541 277.319 220.023)" d="M-1.90735e-06 -128C70.6925 -128 128 -70.6924 128 1.90735e-06C128 70.6924 70.6925 128 1.90735e-06 128C-70.6925 128 -128 70.6924 -128 1.90735e-06C-128 -70.6924 -70.6925 -128 -1.90735e-06 -128Z"></path>
  <clipPath id="cl_23a">
    <path d="M262.814 41.4107C324.233 36.4228 380.517 112.347 388.528 210.991C396.539 309.636 353.243 393.647 291.825 398.635C230.406 403.622 174.122 327.699 166.111 229.054C158.1 130.409 201.395 46.3985 262.814 41.4107Z"></path>
  </clipPath>
  <g clip-path="url(#cl_23a)">
    <path fill="#F2F1F1" transform="matrix(0.85764 0.393139 -0.179261 1.34074 280.207 234.038)" d="M-170.753 -28.5017L169.944 -28.5017L169.944 28.5017L-170.753 28.5017L-170.753 -28.5017Z"></path>
    <path fill="#F2F1F1" transform="matrix(0.85764 0.393139 -0.179261 1.34074 271.683 285.224)" d="M-170.753 -5.22017L169.944 -5.22017L169.944 5.22016L-170.753 5.22016L-170.753 -5.22017Z"></path>
  </g>
  <path fill="#8B8B8B" transform="matrix(0.868814 -0.0705573 0.113322 1.39541 282.853 218.169)" d="M0.249995 -87.5C51.4744 -87.5 93 -48.4368 93 -0.25C93 47.9368 51.4744 87 0.249997 87C-50.9744 87 -92.5 47.9368 -92.5 -0.25C-92.5 -48.4368 -50.9744 -87.5 0.249995 -87.5Z"></path>
  <path fill="#B0AFAF" transform="matrix(0.868814 -0.0705573 0.113322 1.39541 277.319 220.023)" d="M-1.2815e-06 -86C47.4965 -86 86 -47.4965 86 1.90735e-06C86 47.4965 47.4965 86 1.2815e-06 86C-47.4965 86 -86 47.4965 -86 1.90735e-06C-86 -47.4965 -47.4965 -86 -1.2815e-06 -86Z"></path>
  <path fill="#8B8B8B" transform="matrix(0.868814 -0.0705573 0.113322 1.39541 277.3 214.406)" d="M-52.3281 27.625L-52.3281 -27.668L-46.756 -30.4056L-46.7825 24.7561L-42.4192 24.6238L-47.1315 27.6684L-52.3281 27.625ZM-50.25 21.3164C-54.7526 21.3164 -58.6058 20.4196 -61.8096 18.626C-65.0133 16.8324 -67.4626 14.3337 -69.1572 11.1299C-70.8519 7.92611 -71.6992 4.19662 -71.6992 -0.0585938C-71.6992 -4.3138 -70.8519 -8.04329 -69.1572 -11.2471C-67.4626 -14.4508 -65.0133 -16.9495 -61.8096 -18.7432C-58.6058 -20.5368 -54.7526 -21.4336 -50.25 -21.4336C-47.3802 -21.4336 -44.7826 -21.0625 -42.457 -20.3203C-40.1315 -19.5781 -38.109 -18.5205 -36.3896 -17.1475C-34.6702 -15.7744 -27.78 -10.4693 -25.0591 -8.68545C-26.0599 -7.96244 -28.21 -6.90539 -30.3965 -5.66211C-30.3965 -5.66211 -44.0898 -3.62109 -44.0898 -3.62109C-44.0898 -3.62109 -44.5166 -5.66829 -44.8506 -6.49707C-45.1846 -7.32584 -45.599 -8.02474 -46.0938 -8.59375C-46.5885 -9.16276 -47.1637 -9.58951 -47.8193 -9.87402C-48.4749 -10.1585 -49.2109 -10.3008 -50.0273 -10.3008C-51.3385 -10.3008 -52.4766 -9.92969 -53.4414 -9.1875C-54.4062 -8.44531 -55.1546 -7.31966 -55.6865 -5.81054C-56.2184 -4.30143 -56.4844 -2.40885 -56.4844 -0.132812C-56.4844 2.11849 -56.2184 4.01107 -55.6865 5.54492C-55.1546 7.07878 -54.4062 8.23535 -53.4414 9.01465C-52.4766 9.79395 -51.3385 10.1836 -50.0273 10.1836C-49.2109 10.1836 -48.4749 10.0352 -47.8193 9.73828C-47.1637 9.44141 -46.5824 9.00228 -46.0752 8.4209C-45.568 7.83952 -45.8968 6.99338 -44.8135 6.25C-43.7302 5.50662 -38.8902 1.52308 -38.7417 0.409798C-38.7417 0.409798 -30.3965 5.28516 -30.3965 5.28516C-30.3965 5.28516 -31.2747 9.97949 -32.2891 11.9463C-33.3034 13.9131 -34.6641 15.5954 -36.3711 16.9932C-38.0781 18.3909 -40.1006 19.4609 -42.4385 20.2031C-44.7764 20.9453 -47.3802 21.3164 -50.25 21.3164ZM-24.5332 27.625L-24.5332 16.8633L-3.90039 -0.207029C-3.90039 -0.207029 -1.36458 -2.41504 -0.374998 -3.41699C0.614586 -4.41894 1.37533 -5.45182 1.90723 -6.51562C2.43913 -7.57943 2.70508 -8.76693 2.70508 -10.0781C2.70508 -11.4883 2.40202 -12.6943 1.7959 -13.6963C1.18978 -14.6982 0.361004 -15.4714 -0.690428 -16.0156C-1.74186 -16.5599 -2.96029 -16.832 -4.3457 -16.832C-5.73112 -16.832 -6.94954 -16.5537 -8.00097 -15.9971C-9.05241 -15.4404 -6.2922 -13.7058 -5.868 -12.6284C-7.10778 -11.907 -9.37628 -10.5827 -11.3223 -9.63281C-11.3223 -9.63281 -25.5723 -9.63281 -25.5723 -9.63281C-25.5723 -9.63281 -24.7002 -16.8568 -22.9561 -19.6523C-21.2119 -22.4479 -18.7441 -24.6064 -15.5527 -26.1279C-12.3613 -27.6494 -8.62565 -28.4102 -4.3457 -28.4102C0.0826836 -28.4102 3.91732 -27.7051 7.15821 -26.2949C10.3991 -24.8848 12.904 -22.8994 14.6729 -20.3389C16.4417 -17.7783 17.3262 -14.7786 17.3262 -11.3398C17.3262 -9.21224 16.887 -7.10318 16.0088 -5.01269C15.1305 -2.9222 13.5534 -0.602863 11.2773 1.94531C9.0013 4.49349 5.74805 7.51172 1.51758 11C1.51758 11 -3.67773 15.3047 -3.67773 15.3047L-3.67773 15.6758L17.9199 15.6758L23.3601 24.6527L17.9199 27.625L-24.5332 27.625ZM45.3066 28.3672C41.0514 28.3672 37.2786 27.6188 33.9883 26.1221C30.6979 24.6253 28.1126 22.5534 26.2324 19.9062C24.3522 17.2591 23.3874 14.2161 23.3379 10.7773C23.3379 10.7773 28.8025 7.82547 28.8025 7.82547L37.959 10.7773C37.959 10.7773 38.293 13.14 38.9609 14.0801C39.6289 15.0202 40.5195 15.7438 41.6328 16.251C42.7461 16.7581 43.9707 17.0117 45.3066 17.0117C46.8405 17.0117 48.1826 16.6839 49.333 16.0283C50.4834 15.3727 51.3864 14.4512 52.042 13.2637C52.6976 12.0762 53.0254 10.6784 53.0254 9.07031C53.0254 7.4375 52.6976 6.02116 52.042 4.82129C51.3864 3.62142 50.4834 2.69369 49.333 2.03809C48.1826 1.38249 46.8405 1.05469 45.3066 1.05469C43.6986 1.05469 43.4423 2.31534 43.4423 2.31534C43.4423 2.31534 38.6022 4.02344 37.959 5.35938C37.959 5.35938 24.748 2.76172 24.748 2.76172L26.9004 -27.668L32.366 -30.6324L64.084 -27.668L69.5014 -18.6128L64.084 -15.6445L39.2207 -15.6445L38.1816 -3.47265L38.4785 -3.47265C38.4785 -3.47265 40.8411 -6.54036 42.9688 -7.6289C45.0964 -8.71744 47.5579 -9.26171 50.3535 -9.26171C52.8027 -9.26171 55.0726 -8.82877 57.1631 -7.96289C59.2536 -7.097 61.0719 -5.86621 62.6182 -4.27051C64.1644 -2.6748 65.3643 -0.782225 66.2178 1.40723C67.0713 3.59668 67.498 6.00261 67.498 8.625C67.498 12.4844 66.5827 15.8984 64.752 18.8672C62.9212 21.8359 60.3421 24.1615 57.0146 25.8438C53.6872 27.526 49.7845 28.3672 45.3066 28.3672Z"></path>
  <path fill="#DEDEDE" transform="matrix(0.868814 -0.0705573 0.113322 1.39541 281.191 208.471)" d="M-51.8282 28.625L-51.8282 -26.668L-47.375 -26.668L-47.375 28.625L-51.8282 28.625ZM-49.75 22.3164C-54.2526 22.3164 -58.1058 21.4196 -61.3096 19.626C-64.5134 17.8324 -66.9626 15.3337 -68.6573 12.1299C-70.3519 8.92611 -71.1992 5.19662 -71.1992 0.941408C-71.1992 -3.3138 -70.3519 -7.04329 -68.6573 -10.2471C-66.9626 -13.4508 -64.5134 -15.9495 -61.3096 -17.7432C-58.1058 -19.5368 -54.2526 -20.4336 -49.75 -20.4336C-46.8802 -20.4336 -44.2826 -20.0625 -41.9571 -19.3203C-39.6315 -18.5781 -37.6091 -17.5205 -35.8897 -16.1475C-34.1703 -14.7744 -32.8034 -13.1169 -31.7891 -11.1748C-30.7748 -9.23274 -30.1439 -7.06185 -29.8965 -4.66211C-29.8965 -4.66211 -43.5899 -2.62109 -43.5899 -2.62109C-43.5899 -2.62109 -44.0166 -4.66829 -44.3506 -5.49707C-44.6846 -6.32584 -45.099 -7.02474 -45.5938 -7.59375C-46.0886 -8.16275 -46.6638 -8.58951 -47.3194 -8.87402C-47.975 -9.15853 -48.711 -9.30078 -49.5274 -9.30078C-50.8386 -9.30078 -51.9766 -8.92968 -52.9414 -8.1875C-53.9063 -7.44531 -54.6547 -6.31966 -55.1866 -4.81054C-55.7185 -3.30143 -55.9844 -1.40885 -55.9844 0.867189C-55.9844 3.11849 -55.7185 5.01107 -55.1866 6.54492C-54.6547 8.07878 -53.9063 9.23535 -52.9414 10.0147C-51.9766 10.7939 -50.8386 11.1836 -49.5274 11.1836C-48.711 11.1836 -47.975 11.0352 -47.3194 10.7383C-46.6638 10.4414 -46.0824 10.0023 -45.5752 9.4209C-45.0681 8.83952 -44.6475 8.11589 -44.3135 7.25C-43.9795 6.38412 -43.7383 5.39453 -43.5899 4.28125C-43.5899 4.28125 -29.8965 6.28516 -29.8965 6.28516C-29.8965 6.28516 -30.7748 10.9795 -31.7891 12.9463C-32.8034 14.9131 -34.1641 16.5954 -35.8711 17.9932C-37.5782 19.391 -39.6006 20.4609 -41.9385 21.2031C-44.2764 21.9453 -46.8802 22.3164 -49.75 22.3164ZM-24.0332 28.625L-24.0332 17.8633L-3.4004 0.792971C-3.4004 0.792971 -0.864594 -1.41504 0.12499 -2.41699C1.11457 -3.41894 1.87532 -4.45182 2.40722 -5.51562C2.93912 -6.57943 3.20507 -7.76693 3.20507 -9.07812C3.20507 -10.4883 2.90201 -11.6943 2.29589 -12.6963C1.68977 -13.6982 0.860992 -14.4714 -0.190439 -15.0156C-1.24187 -15.5599 -2.4603 -15.832 -3.84571 -15.832C-5.23113 -15.832 -6.44955 -15.5537 -7.50099 -14.9971C-8.55242 -14.4404 -9.36883 -13.6302 -9.9502 -12.5664C-10.5316 -11.5026 -10.8223 -10.1914 -10.8223 -8.63281C-10.8223 -8.63281 -25.0723 -8.63281 -25.0723 -8.63281C-25.0723 -8.63281 -24.2002 -15.8568 -22.4561 -18.6523C-20.7119 -21.4479 -18.2442 -23.6064 -15.0527 -25.1279C-11.8613 -26.6494 -8.12566 -27.4102 -3.84571 -27.4102C0.582672 -27.4102 4.41731 -26.7051 7.65819 -25.2949C10.8991 -23.8848 13.404 -21.8994 15.1728 -19.3389C16.9417 -16.7783 17.8262 -13.7786 17.8262 -10.3398C17.8262 -8.21224 17.387 -6.10318 16.5088 -4.01269C15.6305 -1.9222 14.0534 0.397137 11.7773 2.94531C9.50129 5.49349 6.24804 8.51172 2.01757 12C2.01757 12 -3.17774 16.3047 -3.17774 16.3047L-3.17774 16.6758L18.4199 16.6758L18.4199 28.625L-24.0332 28.625ZM45.8066 29.3672C41.5514 29.3672 37.7786 28.6188 34.4883 27.1221C31.1979 25.6253 28.6126 23.5534 26.7324 20.9063C24.8522 18.2591 23.8874 15.2161 23.8379 11.7773C23.8379 11.7773 38.459 11.7773 38.459 11.7773C38.459 11.7773 38.793 14.14 39.4609 15.0801C40.1289 16.0202 41.0195 16.7438 42.1328 17.251C43.2461 17.7581 44.4707 18.0117 45.8066 18.0117C47.3405 18.0117 48.6826 17.6839 49.833 17.0283C50.9834 16.3727 51.8864 15.4512 52.542 14.2637C53.1976 13.0762 53.5254 11.6784 53.5254 10.0703C53.5254 8.4375 53.1976 7.02116 52.542 5.82129C51.8864 4.62142 50.9834 3.69369 49.833 3.03809C48.6826 2.38249 47.3405 2.05469 45.8066 2.05469C44.1986 2.05469 42.7327 2.43815 41.4092 3.20508C40.0856 3.97201 39.1022 5.02344 38.459 6.35938C38.459 6.35938 25.2481 3.76172 25.2481 3.76172L27.4004 -26.668L64.584 -26.668L64.584 -14.6445L39.7207 -14.6445L38.6816 -2.47265L38.9785 -2.47265C38.9785 -2.47265 41.3411 -5.54036 43.4688 -6.6289C45.5964 -7.71744 48.0579 -8.26171 50.8535 -8.26171C53.3027 -8.26171 55.5726 -7.82877 57.6631 -6.96288C59.7536 -6.097 61.5719 -4.86621 63.1182 -3.2705C64.6644 -1.6748 65.8643 0.217777 66.7178 2.40723C67.5713 4.59668 67.998 7.00261 67.998 9.625C67.998 13.4844 67.0827 16.8984 65.252 19.8672C63.4212 22.8359 60.8421 25.1615 57.5147 26.8438C54.1872 28.526 50.2845 29.3672 45.8066 29.3672Z"></path>
  <clipPath id="cl_23c">
    <path d="M239.406 252.072L233.14 174.916L237.009 174.601L243.275 251.757L239.406 252.072ZM240.497 243.122C236.585 243.44 233.135 242.46 230.149 240.183C227.162 237.907 224.751 234.593 222.915 230.242C221.08 225.891 219.921 220.746 219.439 214.809C218.957 208.871 219.27 203.607 220.38 199.017C221.489 194.427 223.334 190.767 225.914 188.038C228.494 185.309 231.74 183.786 235.652 183.468C238.145 183.266 240.444 183.6 242.549 184.472C244.653 185.344 246.53 186.677 248.18 188.471C249.829 190.266 251.205 192.482 252.306 195.121C253.407 197.759 254.201 200.744 254.688 204.075C254.688 204.075 243.023 207.889 243.023 207.889C243.023 207.889 242.42 205.063 242.036 203.93C241.652 202.797 241.213 201.851 240.718 201.092C240.224 200.333 239.676 199.778 239.074 199.427C238.472 199.076 237.816 198.93 237.107 198.987C235.968 199.08 235.021 199.678 234.267 200.782C233.513 201.886 232.99 203.509 232.699 205.652C232.408 207.796 232.392 210.456 232.649 213.632C232.905 216.773 233.35 219.395 233.986 221.498C234.622 223.601 235.403 225.162 236.33 226.181C237.256 227.201 238.289 227.664 239.428 227.572C240.138 227.514 240.76 227.255 241.296 226.794C241.832 226.334 242.288 225.68 242.662 224.833C243.037 223.986 243.321 222.946 243.513 221.715C243.705 220.483 243.802 219.085 243.805 217.521C243.805 217.521 255.929 219.351 255.929 219.351C255.929 219.351 255.698 225.964 255.04 228.78C254.381 231.596 253.39 234.039 252.065 236.11C250.74 238.181 249.104 239.817 247.157 241.017C245.21 242.218 242.99 242.92 240.497 243.122ZM263.555 250.111L262.335 235.094L278.327 209.818C278.327 209.818 280.28 206.558 281.026 205.09C281.772 203.622 282.316 202.127 282.658 200.605C282.999 199.083 283.096 197.407 282.947 195.578C282.787 193.61 282.387 191.948 281.747 190.593C281.107 189.237 280.299 188.217 279.324 187.532C278.349 186.847 277.26 186.553 276.056 186.651C274.852 186.748 273.825 187.223 272.975 188.074C272.124 188.924 271.507 190.113 271.122 191.638C270.738 193.164 270.634 195.014 270.81 197.189C270.81 197.189 258.43 198.194 258.43 198.194C258.43 198.194 258.369 188.052 259.567 184.028C260.766 180.004 262.665 176.818 265.266 174.47C267.866 172.121 271.025 170.796 274.744 170.494C278.591 170.182 282.003 170.895 284.978 172.634C287.954 174.373 290.355 176.967 292.182 180.415C294.009 183.863 295.117 187.987 295.507 192.785C295.748 195.754 295.606 198.728 295.08 201.707C294.553 204.686 293.446 208.034 291.757 211.75C290.069 215.467 287.584 219.908 284.304 225.074C284.304 225.074 280.278 231.447 280.278 231.447L280.32 231.965L299.084 230.441L300.439 247.115L263.555 250.111ZM324.317 246.218C320.62 246.519 317.257 245.741 314.229 243.884C311.2 242.028 308.719 239.319 306.786 235.758C304.852 232.197 303.669 228.019 303.237 223.224C303.237 223.224 315.94 222.192 315.94 222.192C315.94 222.192 316.497 225.465 317.184 226.73C317.871 227.995 318.727 228.942 319.752 229.571C320.776 230.2 321.869 230.467 323.03 230.373C324.362 230.265 325.491 229.713 326.417 228.717C327.342 227.721 328.022 226.371 328.457 224.668C328.892 222.964 329.018 220.991 328.836 218.747C328.651 216.468 328.206 214.515 327.5 212.887C326.795 211.259 325.905 210.028 324.831 209.195C323.757 208.361 322.554 207.998 321.222 208.106C319.824 208.22 318.594 208.858 317.531 210.022C316.468 211.186 315.733 212.722 315.326 214.632C315.326 214.632 303.553 211.939 303.553 211.939L301.975 169.325L334.281 166.702L335.643 183.479L314.042 185.234L314.518 202.292L314.776 202.271C314.776 202.271 316.481 197.823 318.206 196.154C319.931 194.485 322.008 193.552 324.437 193.355C326.565 193.182 328.586 193.626 330.501 194.687C332.415 195.747 334.134 197.337 335.659 199.454C337.183 201.572 338.44 204.128 339.429 207.123C340.419 210.118 341.062 213.445 341.36 217.104C341.797 222.49 341.389 227.318 340.134 231.59C338.88 235.862 336.903 239.289 334.203 241.871C331.502 244.453 328.207 245.903 324.317 246.218Z"></path>
  </clipPath>
  <g clip-path="url(#cl_23c)">
    <path fill="#F2F1F1" transform="matrix(0.85764 0.393139 -0.179261 1.34074 265.826 226.812)" d="M-170.753 -28.5017L169.944 -28.5017L169.944 28.5017L-170.753 28.5017L-170.753 -28.5017Z"></path>
    <path fill="#F2F1F1" transform="matrix(0.85764 0.393139 -0.179261 1.34074 257.308 278.07)" d="M-170.753 -5.22017L169.944 -5.22017L169.944 5.22016L-170.753 5.22016L-170.753 -5.22017Z"></path>
  </g>
  <path fill="#8E8B8B" transform="matrix(1.39541 -0.113322 0.113322 1.39541 262.814 41.4107)" d="M-1.43051e-06 0C-1.43051e-06 0 -11.2852 0 -18.4554 0C-54.1561 1.3037 -98.696 32.2772 -98.696 128C-98.696 223.723 -46.396 256 -19 256C-11.8299 256 -1.90735e-06 256 -3.8147e-06 256C-18.9636 256 -79.696 223.723 -79.696 128C-79.696 32.2772 -18.9636 1.52588e-05 -1.43051e-06 0Z"></path>
  <clipPath id="cl_23e">
    <path d="M262.814 41.4107C262.814 41.4107 247.067 42.6895 237.061 43.5021C187.392 49.367 128.751 97.6349 139.598 231.207C150.446 364.779 227.083 403.892 265.312 400.788C275.317 399.975 291.825 398.635 291.825 398.635C265.363 400.784 176.959 362.626 166.111 229.054C155.264 95.4818 236.352 43.5597 262.814 41.4107Z"></path>
  </clipPath>
  <g clip-path="url(#cl_23e)">
    <path fill="#ACABAB" transform="matrix(0.868814 -0.0705573 0.113322 1.39541 204.159 305.183)" d="M-105.5 -92.5378L105 -92.5378L105 16.9026L-105.5 16.9026L-105.5 -92.5378Z"></path>
    <path fill="#D6D6D6" transform="matrix(0.868814 -0.0705573 0.113322 1.39541 191.21 236.76)" d="M-105.5 -6.13201L105 -6.13201L105 5.39605L-105.5 5.39605L-105.5 -6.13201Z"></path>
    <path fill="#D6D6D6" transform="matrix(0.871285 -0.070758 0.113001 1.39145 190.676 181.72)" d="M-175.044 -27.2175L174.214 -27.2175L174.214 27.2175L-175.044 27.2175L-175.044 -27.2175Z"></path>
  </g>
  <path fill="#A5A5A5" transform="matrix(0.878839 0 0 0.282487 272.419 478.039)" d="M-0.249998 -88C55.945 -88 101.5 -48.6011 101.5 0C101.5 48.6011 55.945 88 -0.249998 88C-56.445 88 -102 48.6011 -102 0C-102 -48.6011 -56.445 -88 -0.249998 -88Z" style="mix-blend-mode: multiply"></path>
</svg>