<?xml version="1.0" encoding="utf-8"?>
<svg xmlns="http://www.w3.org/2000/svg" xmlns:xlink="http://www.w3.org/1999/xlink" width="512" height="512">
  <path fill="#312F2F" transform="matrix(1.16859 -0.00787459 0.00943376 1.39997 250.72 194.616)" d="M-5.96046e-07 -128C70.6925 -128 128 -70.6925 128 -3.8147e-06C128 70.6924 70.6925 128 -3.57628e-07 128C-70.6925 128 -128 70.6924 -128 -3.8147e-06C-128 -70.6925 -70.6925 -128 -5.96046e-07 -128Z"></path>
  <path fill="none" stroke="black" stroke-width="7" stroke-miterlimit="4" transform="translate(256 256)" d="M20.1118 -240.759C102.722 -241.316 170.232 -161.538 170.898 -62.5711C171.565 36.3961 105.137 117.076 22.5268 117.633C-60.0834 118.189 -127.593 38.412 -128.26 -60.5552C-128.927 -159.522 -62.4985 -240.202 20.1118 -240.759Z"></path>
  <path fill="none" stroke="black" stroke-width="7" stroke-linejoin="round" transform="translate(256 256)" d="M20.1118 -240.759C20.1118 -240.759 -1.06917 -240.616 -5.4654 -240.587C-72.4588 -238.31 -155.762 -194.385 -154.859 -60.376C-153.956 73.633 -55.4913 118.159 -4.07255 117.812C0.323689 117.782 22.5268 117.633 22.5268 117.633C21.2937 117.641 19.9662 117.596 18.5521 117.495"></path>
  <path fill="#DEDEDE" transform="matrix(1.16859 -0.00787459 0.00943376 1.39997 277.319 194.437)" d="M-2.02656e-06 -128C70.6925 -128 128 -70.6925 128 0C128 70.6925 70.6925 128 -1.78814e-06 128C-70.6925 128 -128 70.6925 -128 0C-128 -70.6925 -70.6925 -128 -2.02656e-06 -128Z"></path>
  <clipPath id="cl_26">
    <path d="M276.112 15.2409C358.722 14.6843 426.232 94.4617 426.898 193.429C427.565 292.396 361.137 373.076 278.527 373.633C195.917 374.189 128.407 294.412 127.74 195.445C127.073 96.4776 193.502 15.7976 276.112 15.2409Z"></path>
  </clipPath>
  <g clip-path="url(#cl_26)">
    <path fill="#F2F1F1" transform="matrix(1.10644 0.453825 -0.376118 1.32439 280.071 255.954)" d="M-170.753 -28.5017L169.944 -28.5017L169.944 28.5017L-170.753 28.5017L-170.753 -28.5017Z"></path>
    <path fill="#F2F1F1" transform="matrix(1.10644 0.453825 -0.376118 1.32439 263.465 306.353)" d="M-170.753 -5.22017L169.944 -5.22016L169.944 5.22017L-170.753 5.22016L-170.753 -5.22017Z"></path>
  </g>
  <path fill="#8B8B8B" transform="matrix(1.16859 -0.00787459 0.00943376 1.39997 284.906 192.986)" d="M0.25 -87.5C51.4744 -87.5 93 -48.4368 93 -0.25C93 47.9368 51.4744 87 0.25 87C-50.9744 87 -92.5 47.9368 -92.5 -0.25C-92.5 -48.4368 -50.9744 -87.5 0.25 -87.5Z"></path>
  <path fill="#B0AFAF" transform="matrix(1.16859 -0.00787459 0.00943376 1.39997 277.319 194.437)" d="M-1.98744e-06 -86C47.4965 -86 86 -47.4965 86 0C86 47.4965 47.4965 86 -1.82725e-06 86C-47.4965 86 -86 47.4965 -86 0C-86 -47.4965 -47.4965 -86 -1.98744e-06 -86Z"></path>
  <path fill="#8B8B8B" transform="matrix(1.16859 -0.00787459 0.00943376 1.39997 277.866 188.833)" d="M-52.3281 27.625L-52.3281 -27.668L-46.756 -30.4056L-46.7825 24.7561L-42.4192 24.6238L-47.1315 27.6684L-52.3281 27.625ZM-50.25 21.3164C-54.7526 21.3164 -58.6058 20.4196 -61.8096 18.626C-65.0133 16.8324 -67.4626 14.3337 -69.1572 11.1299C-70.8519 7.9261 -71.6992 4.19661 -71.6992 -0.0585995C-71.6992 -4.31381 -70.8519 -8.0433 -69.1572 -11.2471C-67.4626 -14.4509 -65.0133 -16.9495 -61.8096 -18.7432C-58.6058 -20.5368 -54.7526 -21.4336 -50.25 -21.4336C-47.3802 -21.4336 -44.7826 -21.0625 -42.457 -20.3203C-40.1315 -19.5781 -38.109 -18.5205 -36.3896 -17.1475C-34.6702 -15.7744 -27.78 -10.4694 -25.0591 -8.68546C-26.0599 -7.96245 -28.21 -6.9054 -30.3965 -5.66212C-30.3965 -5.66212 -44.0898 -3.6211 -44.0898 -3.6211C-44.0898 -3.6211 -44.5166 -5.6683 -44.8506 -6.49708C-45.1846 -7.32585 -45.599 -8.02475 -46.0938 -8.59376C-46.5885 -9.16276 -47.1637 -9.58952 -47.8193 -9.87403C-48.4749 -10.1585 -49.2109 -10.3008 -50.0273 -10.3008C-51.3385 -10.3008 -52.4766 -9.92969 -53.4414 -9.18751C-54.4062 -8.44532 -55.1546 -7.31967 -55.6865 -5.81055C-56.2184 -4.30144 -56.4844 -2.40886 -56.4844 -0.132818C-56.4844 2.11848 -56.2184 4.01106 -55.6865 5.54492C-55.1546 7.07877 -54.4062 8.23535 -53.4414 9.01464C-52.4766 9.79394 -51.3385 10.1836 -50.0273 10.1836C-49.2109 10.1836 -48.4749 10.0352 -47.8193 9.73828C-47.1637 9.4414 -46.5824 9.00227 -46.0752 8.42089C-45.568 7.83951 -45.8968 6.99337 -44.8135 6.24999C-43.7302 5.50662 -38.8902 1.52307 -38.7417 0.409792C-38.7417 0.409792 -30.3965 5.28515 -30.3965 5.28515C-30.3965 5.28515 -31.2747 9.97949 -32.2891 11.9463C-33.3034 13.9131 -34.6641 15.5954 -36.3711 16.9932C-38.0781 18.3909 -40.1006 19.4609 -42.4385 20.2031C-44.7764 20.9453 -47.3802 21.3164 -50.25 21.3164ZM-24.5332 27.625L-24.5332 16.8633L-3.90039 -0.207037C-3.90039 -0.207037 -1.36458 -2.41504 -0.374998 -3.417C0.614586 -4.41895 1.37533 -5.45183 1.90723 -6.51563C2.43913 -7.57944 2.70508 -8.76694 2.70508 -10.0781C2.70508 -11.4883 2.40202 -12.6943 1.7959 -13.6963C1.18978 -14.6982 0.361004 -15.4714 -0.690428 -16.0156C-1.74186 -16.5599 -2.96029 -16.832 -4.3457 -16.832C-5.73112 -16.832 -6.94954 -16.5537 -8.00097 -15.9971C-9.05241 -15.4404 -6.2922 -13.7058 -5.868 -12.6284C-7.10778 -11.907 -9.37628 -10.5827 -11.3223 -9.63282C-11.3223 -9.63282 -25.5723 -9.63282 -25.5723 -9.63282C-25.5723 -9.63282 -24.7002 -16.8568 -22.9561 -19.6523C-21.2119 -22.4479 -18.7441 -24.6065 -15.5527 -26.1279C-12.3613 -27.6494 -8.62565 -28.4102 -4.3457 -28.4102C0.0826836 -28.4102 3.91732 -27.7051 7.15821 -26.2949C10.3991 -24.8848 12.904 -22.8994 14.6729 -20.3389C16.4417 -17.7783 17.3262 -14.7787 17.3262 -11.3398C17.3262 -9.21225 16.887 -7.10319 16.0088 -5.0127C15.1305 -2.92221 13.5534 -0.602871 11.2773 1.94531C9.0013 4.49348 5.74805 7.51171 1.51758 11C1.51758 11 -3.67773 15.3047 -3.67773 15.3047L-3.67773 15.6758L17.9199 15.6758L23.3601 24.6526L17.9199 27.625L-24.5332 27.625ZM45.3066 28.3672C41.0514 28.3672 37.2786 27.6188 33.9883 26.1221C30.6979 24.6253 28.1126 22.5534 26.2324 19.9062C24.3522 17.2591 23.3874 14.2161 23.3379 10.7773C23.3379 10.7773 28.8025 7.82546 28.8025 7.82546L37.959 10.7773C37.959 10.7773 38.293 13.14 38.9609 14.0801C39.6289 15.0202 40.5195 15.7438 41.6328 16.251C42.7461 16.7581 43.9707 17.0117 45.3066 17.0117C46.8405 17.0117 48.1826 16.6839 49.333 16.0283C50.4834 15.3727 51.3864 14.4512 52.042 13.2637C52.6976 12.0762 53.0254 10.6784 53.0254 9.07031C53.0254 7.4375 52.6976 6.02115 52.042 4.82129C51.3864 3.62142 50.4834 2.69368 49.333 2.03808C48.1826 1.38248 46.8405 1.05468 45.3066 1.05468C43.6986 1.05468 43.4423 2.31534 43.4423 2.31534C43.4423 2.31534 38.6022 4.02343 37.959 5.35937C37.959 5.35937 24.748 2.76171 24.748 2.76171L26.9004 -27.668L32.366 -30.6324L64.084 -27.668L69.5014 -18.6129L64.084 -15.6445L39.2207 -15.6445L38.1816 -3.47266L38.4785 -3.47266C38.4785 -3.47266 40.8411 -6.54037 42.9688 -7.62891C45.0964 -8.71745 47.5579 -9.26172 50.3535 -9.26172C52.8027 -9.26172 55.0726 -8.82878 57.1631 -7.96289C59.2536 -7.09701 61.0719 -5.86621 62.6182 -4.27051C64.1644 -2.67481 65.3643 -0.78223 66.2178 1.40722C67.0713 3.59668 67.498 6.0026 67.498 8.625C67.498 12.4844 66.5827 15.8984 64.752 18.8672C62.9212 21.8359 60.3421 24.1615 57.0146 25.8437C53.6872 27.526 49.7845 28.3672 45.3066 28.3672Z"></path>
  <path fill="#DEDEDE" transform="matrix(1.16859 -0.00787459 0.00943376 1.39997 283.671 183.194)" d="M-51.8281 28.625L-51.8281 -26.668L-47.375 -26.668L-47.375 28.625L-51.8281 28.625ZM-49.75 22.3164C-54.2526 22.3164 -58.1058 21.4196 -61.3096 19.626C-64.5134 17.8324 -66.9626 15.3337 -68.6572 12.1299C-70.3519 8.92611 -71.1992 5.19662 -71.1992 0.941406C-71.1992 -3.3138 -70.3519 -7.0433 -68.6572 -10.2471C-66.9626 -13.4508 -64.5134 -15.9495 -61.3096 -17.7432C-58.1058 -19.5368 -54.2526 -20.4336 -49.75 -20.4336C-46.8802 -20.4336 -44.2826 -20.0625 -41.9571 -19.3203C-39.6315 -18.5781 -37.6091 -17.5205 -35.8897 -16.1475C-34.1703 -14.7744 -32.8034 -13.1169 -31.7891 -11.1748C-30.7748 -9.23275 -30.1439 -7.06185 -29.8965 -4.66211C-29.8965 -4.66211 -43.5899 -2.62109 -43.5899 -2.62109C-43.5899 -2.62109 -44.0166 -4.6683 -44.3506 -5.49707C-44.6846 -6.32584 -45.099 -7.02474 -45.5938 -7.59375C-46.0886 -8.16276 -46.6638 -8.58952 -47.3194 -8.87402C-47.975 -9.15853 -48.711 -9.30078 -49.5274 -9.30078C-50.8386 -9.30078 -51.9766 -8.92969 -52.9414 -8.1875C-53.9063 -7.44531 -54.6546 -6.31966 -55.1865 -4.81055C-55.7184 -3.30143 -55.9844 -1.40885 -55.9844 0.867188C-55.9844 3.11849 -55.7184 5.01107 -55.1865 6.54492C-54.6546 8.07878 -53.9063 9.23535 -52.9414 10.0146C-51.9766 10.7939 -50.8386 11.1836 -49.5274 11.1836C-48.711 11.1836 -47.975 11.0352 -47.3194 10.7383C-46.6638 10.4414 -46.0824 10.0023 -45.5752 9.4209C-45.0681 8.83952 -44.6475 8.11588 -44.3135 7.25C-43.9795 6.38412 -43.7383 5.39453 -43.5899 4.28125C-43.5899 4.28125 -29.8965 6.28516 -29.8965 6.28516C-29.8965 6.28516 -30.7748 10.9795 -31.7891 12.9463C-32.8034 14.9131 -34.1641 16.5954 -35.8711 17.9932C-37.5781 19.3909 -39.6006 20.4609 -41.9385 21.2031C-44.2764 21.9453 -46.8802 22.3164 -49.75 22.3164ZM-24.0332 28.625L-24.0332 17.8633L-3.4004 0.792969C-3.4004 0.792969 -0.864592 -1.41504 0.124992 -2.41699C1.11458 -3.41895 1.87532 -4.45182 2.40722 -5.51562C2.93912 -6.57943 3.20507 -7.76693 3.20507 -9.07812C3.20507 -10.4883 2.90201 -11.6943 2.29589 -12.6963C1.68977 -13.6982 0.860994 -14.4714 -0.190437 -15.0156C-1.24187 -15.5599 -2.46029 -15.832 -3.84571 -15.832C-5.23113 -15.832 -6.44955 -15.5537 -7.50098 -14.9971C-8.55242 -14.4404 -9.36882 -13.6302 -9.9502 -12.5664C-10.5316 -11.5026 -10.8223 -10.1914 -10.8223 -8.63281C-10.8223 -8.63281 -25.0723 -8.63281 -25.0723 -8.63281C-25.0723 -8.63281 -24.2002 -15.8568 -22.4561 -18.6523C-20.7119 -21.4479 -18.2441 -23.6064 -15.0527 -25.1279C-11.8613 -26.6494 -8.12566 -27.4102 -3.84571 -27.4102C0.582674 -27.4102 4.41731 -26.7051 7.6582 -25.2949C10.8991 -23.8848 13.404 -21.8994 15.1728 -19.3389C16.9417 -16.7783 17.8262 -13.7786 17.8262 -10.3398C17.8262 -8.21224 17.387 -6.10319 16.5088 -4.0127C15.6305 -1.9222 14.0534 0.397135 11.7773 2.94531C9.50129 5.49349 6.24804 8.51172 2.01757 12C2.01757 12 -3.17774 16.3047 -3.17774 16.3047L-3.17774 16.6758L18.4199 16.6758L18.4199 28.625L-24.0332 28.625ZM45.8066 29.3672C41.5514 29.3672 37.7786 28.6188 34.4883 27.1221C31.1979 25.6253 28.6126 23.5534 26.7324 20.9063C24.8522 18.2591 23.8874 15.2161 23.8379 11.7773C23.8379 11.7773 38.459 11.7773 38.459 11.7773C38.459 11.7773 38.793 14.14 39.4609 15.0801C40.1289 16.0202 41.0195 16.7438 42.1328 17.251C43.2461 17.7581 44.4707 18.0117 45.8066 18.0117C47.3405 18.0117 48.6826 17.6839 49.833 17.0283C50.9834 16.3727 51.8864 15.4512 52.542 14.2637C53.1976 13.0762 53.5254 11.6784 53.5254 10.0703C53.5254 8.4375 53.1976 7.02116 52.542 5.82129C51.8864 4.62142 50.9834 3.69369 49.833 3.03809C48.6826 2.38249 47.3405 2.05469 45.8066 2.05469C44.1986 2.05469 42.7327 2.43815 41.4092 3.20508C40.0856 3.97201 39.1022 5.02344 38.459 6.35938C38.459 6.35938 25.2481 3.76172 25.2481 3.76172L27.4004 -26.668L64.584 -26.668L64.584 -14.6445L39.7207 -14.6445L38.6816 -2.47265L38.9785 -2.47265C38.9785 -2.47265 41.3411 -5.54037 43.4688 -6.6289C45.5964 -7.71744 48.0579 -8.26172 50.8535 -8.26172C53.3027 -8.26172 55.5726 -7.82877 57.6631 -6.96289C59.7536 -6.097 61.5719 -4.86621 63.1182 -3.27051C64.6644 -1.6748 65.8643 0.217775 66.7178 2.40723C67.5713 4.59668 67.998 7.00261 67.998 9.625C67.998 13.4844 67.0827 16.8984 65.252 19.8672C63.4212 22.8359 60.8421 25.1615 57.5147 26.8438C54.1872 28.526 50.2845 29.3672 45.8066 29.3672Z"></path>
  <clipPath id="cl_28">
    <path d="M223.375 223.676L222.854 146.268L228.058 146.233L228.579 223.641L223.375 223.676ZM225.744 214.828C220.483 214.863 215.971 213.638 212.211 211.152C208.45 208.667 205.564 205.188 203.554 200.716C201.543 196.244 200.518 191.03 200.477 185.072C200.437 179.115 201.392 173.887 203.342 169.389C205.293 164.89 208.131 161.373 211.858 158.837C215.585 156.3 220.079 155.015 225.341 154.979C228.695 154.957 231.734 155.456 234.458 156.476C237.183 157.497 239.556 158.962 241.579 160.87C243.601 162.779 245.214 165.089 246.417 167.8C247.621 170.511 248.379 173.545 248.69 176.902C248.69 176.902 232.708 179.868 232.708 179.868C232.708 179.868 232.19 177.005 231.792 175.847C231.394 174.69 230.903 173.715 230.319 172.922C229.736 172.129 229.059 171.536 228.291 171.143C227.522 170.75 226.66 170.557 225.706 170.563C224.174 170.573 222.848 171.102 221.727 172.148C220.607 173.195 219.743 174.777 219.135 176.894C218.528 179.011 218.235 181.662 218.257 184.849C218.278 188 218.607 190.648 219.243 192.791C219.879 194.934 220.764 196.547 221.899 197.631C223.034 198.714 224.367 199.251 225.9 199.24C226.854 199.234 227.712 199.02 228.476 198.6C229.239 198.179 229.914 197.56 230.501 196.742C231.089 195.924 231.573 194.907 231.955 193.693C232.337 192.478 232.61 191.09 232.773 189.531C232.773 189.531 248.794 192.228 248.794 192.228C248.794 192.228 247.812 198.807 246.645 201.569C245.478 204.33 243.904 206.696 241.922 208.666C239.941 210.636 237.587 212.15 234.862 213.208C232.137 214.265 229.098 214.805 225.744 214.828ZM255.856 223.457L255.755 208.391L279.705 184.331C279.705 184.331 282.647 181.22 283.794 179.809C284.941 178.399 285.821 176.947 286.432 175.453C287.044 173.96 287.343 172.295 287.331 170.459C287.318 168.485 286.952 166.799 286.234 165.401C285.517 164.003 284.541 162.928 283.307 162.174C282.073 161.42 280.647 161.049 279.028 161.06C277.409 161.071 275.987 161.47 274.764 162.257C273.541 163.045 272.594 164.186 271.925 165.68C271.255 167.173 270.928 169.011 270.943 171.193C270.943 171.193 254.291 171.306 254.291 171.306C254.291 171.306 255.241 161.185 257.253 157.258C259.265 153.331 262.129 150.289 265.844 148.134C269.559 145.979 273.917 144.884 278.918 144.851C284.093 144.816 288.581 145.773 292.382 147.721C296.182 149.67 299.128 152.43 301.219 156.001C303.311 159.571 304.373 163.764 304.405 168.578C304.425 171.557 303.932 174.513 302.925 177.446C301.919 180.38 300.097 183.639 297.462 187.224C294.826 190.81 291.053 195.061 286.142 199.978C286.142 199.978 280.111 206.045 280.111 206.045L280.115 206.564L305.354 206.394L305.466 223.123L255.856 223.457ZM337.477 223.946C332.505 223.98 328.089 222.962 324.229 220.892C320.37 218.823 317.33 215.942 315.107 212.251C312.885 208.56 311.729 204.308 311.639 199.494C311.639 199.494 328.725 199.379 328.725 199.379C328.725 199.379 329.137 202.684 329.927 203.995C330.716 205.306 331.764 206.312 333.07 207.013C334.375 207.714 335.809 208.059 337.37 208.049C339.162 208.037 340.728 207.567 342.066 206.641C343.404 205.714 344.451 204.416 345.206 202.749C345.96 201.081 346.33 199.122 346.315 196.87C346.3 194.585 345.903 192.604 345.126 190.93C344.348 189.255 343.284 187.963 341.934 187.055C340.583 186.146 339.012 185.698 337.22 185.71C335.34 185.722 333.631 186.271 332.092 187.355C330.552 188.439 329.413 189.919 328.674 191.794C328.674 191.794 313.211 188.261 313.211 188.261L315.439 145.644L358.892 145.351L359.005 162.183L329.95 162.379L328.851 179.428L329.198 179.425C329.198 179.425 331.93 175.112 334.406 173.571C336.882 172.031 339.753 171.249 343.02 171.227C345.882 171.208 348.539 171.796 350.99 172.992C353.441 174.188 355.577 175.896 357.399 178.118C359.221 180.34 360.641 182.98 361.659 186.038C362.677 189.097 363.199 192.462 363.224 196.133C363.26 201.536 362.222 206.323 360.111 210.493C358 214.664 355.008 217.94 351.135 220.321C347.263 222.703 342.71 223.911 337.477 223.946Z"></path>
  </clipPath>
  <g clip-path="url(#cl_28)">
    <path fill="#F2F1F1" transform="matrix(1.10644 0.453825 -0.376118 1.32439 252.694 244.19)" d="M-170.753 -28.5017L169.944 -28.5017L169.944 28.5017L-170.753 28.5017L-170.753 -28.5017Z"></path>
    <path fill="#F2F1F1" transform="matrix(1.10644 0.453825 -0.376118 1.32439 236.089 294.703)" d="M-170.753 -5.22017L169.944 -5.22016L169.944 5.22016L-170.753 5.22015L-170.753 -5.22017Z"></path>
  </g>
  <path fill="#8E8B8B" transform="matrix(1.39997 -0.00943376 0.00943376 1.39997 276.112 15.2409)" d="M-2.86102e-06 0C-2.86102e-06 0 -15.1296 0 -18.2698 -1.52588e-05C-66.1321 1.3037 -125.845 32.2772 -125.845 128C-125.845 223.723 -55.7285 256 -19 256C-15.8598 256 -1.90735e-06 256 -1.90735e-06 256C-25.4236 256 -106.845 223.723 -106.845 128C-106.845 32.2772 -25.4236 0 -2.86102e-06 0Z"></path>
  <clipPath id="cl_2a">
    <path d="M276.112 15.2409C276.112 15.2409 254.931 15.3837 250.535 15.4133C183.541 17.6899 100.238 61.6151 101.141 195.624C102.044 329.633 200.509 374.159 251.927 373.812C256.324 373.782 278.527 373.633 278.527 373.633C242.935 373.873 128.643 329.454 127.74 195.445C126.837 61.4359 240.52 15.4808 276.112 15.2409Z"></path>
  </clipPath>
  <g clip-path="url(#cl_2a)">
    <path fill="#ACABAB" transform="matrix(1.16859 -0.00787459 0.00943376 1.39997 179.913 274.054)" d="M-105.5 -78.8758L105 -78.8758L105 3.24057L-105.5 3.24057L-105.5 -78.8758Z"></path>
    <path fill="#D6D6D6" transform="matrix(1.16859 -0.00787459 0.00943376 1.39997 169.903 254.439)" d="M-105.5 -6.49328L105 -6.49328L105 6.47983L-105.5 6.47983L-105.5 -6.49328Z"></path>
    <path fill="#D6D6D6" transform="matrix(1.17191 -0.00789699 0.00940702 1.396 174.762 195.196)" d="M-175.044 -30.601L174.214 -30.601L174.214 30.601L-175.044 30.601L-175.044 -30.601Z"></path>
  </g>
  <path fill="#A5A5A5" transform="matrix(1.39048 0 0 0.219378 272.419 478.039)" d="M-0.250001 -88C55.945 -88 101.5 -48.6011 101.5 0C101.5 48.6011 55.945 88 -0.250001 88C-56.445 88 -102 48.6011 -102 0C-102 -48.6011 -56.445 -88 -0.250001 -88Z" style="mix-blend-mode: multiply"></path>
</svg>