<?xml version="1.0" encoding="utf-8"?>
<svg xmlns="http://www.w3.org/2000/svg" xmlns:xlink="http://www.w3.org/1999/xlink" width="512" height="512">
  <path fill="#312F2F" transform="matrix(1.15955 -0.0192763 0.0232702 1.39981 250.723 195.646)" d="M0 -128C70.6924 -128 128 -70.6924 128 3.8147e-06C128 70.6924 70.6924 128 -4.76837e-07 128C-70.6924 128 -128 70.6924 -128 3.8147e-06C-128 -70.6924 -70.6924 -128 0 -128Z"></path>
  <path fill="none" stroke="black" stroke-width="7" stroke-miterlimit="4" transform="translate(256 256)" d="M18.3407 -239.972C100.312 -241.334 168.097 -162.219 169.742 -63.2637C171.387 35.6921 106.27 117.016 24.2979 118.379C-57.6738 119.742 -125.459 40.6268 -127.104 -58.329C-128.749 -157.285 -63.631 -238.609 18.3407 -239.972Z"></path>
  <path fill="none" stroke="black" stroke-width="7" stroke-linejoin="round" transform="translate(256 256)" d="M18.3407 -239.972C18.3407 -239.972 -2.6765 -239.622 -7.24129 -239.546C-73.6987 -236.616 -155.927 -191.88 -153.7 -57.8868C-151.472 76.1066 -53.3197 119.669 -2.29841 118.821C2.26638 118.745 24.2979 118.379 24.2979 118.379C23.093 118.399 21.7966 118.368 20.4164 118.284"></path>
  <path fill="#DEDEDE" transform="matrix(1.15955 -0.0192763 0.0232702 1.39981 277.319 195.204)" d="M-1.66893e-06 -128C70.6924 -128 128 -70.6924 128 -3.8147e-06C128 70.6924 70.6924 128 -2.14577e-06 128C-70.6924 128 -128 70.6924 -128 -3.8147e-06C-128 -70.6924 -70.6924 -128 -1.66893e-06 -128Z"></path>
  <clipPath id="cl_313">
    <path d="M274.341 16.0284C356.312 14.6658 424.097 93.7806 425.742 192.736C427.387 291.692 362.27 373.016 280.298 374.379C198.326 375.742 130.541 296.627 128.896 197.671C127.251 98.7153 192.369 17.3911 274.341 16.0284Z"></path>
  </clipPath>
  <g clip-path="url(#cl_313)">
    <path fill="#F2F1F1" transform="matrix(1.10247 0.443007 -0.360078 1.328 280.638 255.272)" d="M-170.753 -28.5017L169.944 -28.5017L169.944 28.5017L-170.753 28.5017L-170.753 -28.5017Z"></path>
    <path fill="#F2F1F1" transform="matrix(1.10247 0.443007 -0.360078 1.328 264.66 305.832)" d="M-170.753 -5.22017L169.944 -5.22017L169.944 5.22016L-170.753 5.22016L-170.753 -5.22017Z"></path>
  </g>
  <path fill="#8B8B8B" transform="matrix(1.15955 -0.0192763 0.0232702 1.39981 284.833 193.679)" d="M0.25 -87.5C51.4744 -87.5 93 -48.4368 93 -0.249996C93 47.9368 51.4744 87 0.25 87C-50.9744 87 -92.5 47.9368 -92.5 -0.249996C-92.5 -48.4368 -50.9744 -87.5 0.25 -87.5Z"></path>
  <path fill="#B0AFAF" transform="matrix(1.15955 -0.0192763 0.0232702 1.39981 277.319 195.204)" d="M-1.74716e-06 -86C47.4965 -86 86 -47.4965 86 -3.8147e-06C86 47.4965 47.4965 86 -2.06754e-06 86C-47.4965 86 -86 47.4965 -86 -3.8147e-06C-86 -47.4965 -47.4965 -86 -1.74716e-06 -86Z"></path>
  <path fill="#8B8B8B" transform="matrix(1.15955 -0.0192763 0.0232702 1.39981 277.806 189.595)" d="M-52.3281 27.625L-52.3281 -27.668L-46.756 -30.4055L-46.7825 24.7561L-42.4192 24.6238L-47.1315 27.6684L-52.3281 27.625ZM-50.25 21.3164C-54.7526 21.3164 -58.6058 20.4196 -61.8096 18.626C-65.0133 16.8324 -67.4626 14.3337 -69.1572 11.1299C-70.8519 7.92611 -71.6992 4.19661 -71.6992 -0.0585938C-71.6992 -4.3138 -70.8519 -8.0433 -69.1572 -11.2471C-67.4626 -14.4508 -65.0133 -16.9495 -61.8096 -18.7432C-58.6058 -20.5368 -54.7526 -21.4336 -50.25 -21.4336C-47.3802 -21.4336 -44.7825 -21.0625 -42.457 -20.3203C-40.1315 -19.5781 -38.109 -18.5205 -36.3896 -17.1475C-34.6702 -15.7744 -27.78 -10.4693 -25.0591 -8.68546C-26.0599 -7.96244 -28.21 -6.9054 -30.3965 -5.66211C-30.3965 -5.66211 -44.0898 -3.62109 -44.0898 -3.62109C-44.0898 -3.62109 -44.5166 -5.6683 -44.8506 -6.49707C-45.1846 -7.32584 -45.599 -8.02474 -46.0937 -8.59375C-46.5885 -9.16276 -47.1637 -9.58952 -47.8193 -9.87402C-48.4749 -10.1585 -49.2109 -10.3008 -50.0273 -10.3008C-51.3385 -10.3008 -52.4766 -9.92969 -53.4414 -9.1875C-54.4062 -8.44531 -55.1546 -7.31966 -55.6865 -5.81055C-56.2184 -4.30143 -56.4844 -2.40885 -56.4844 -0.132812C-56.4844 2.11849 -56.2184 4.01107 -55.6865 5.54492C-55.1546 7.07877 -54.4062 8.23535 -53.4414 9.01465C-52.4766 9.79394 -51.3385 10.1836 -50.0273 10.1836C-49.2109 10.1836 -48.4749 10.0352 -47.8193 9.73828C-47.1637 9.4414 -46.5824 9.00228 -46.0752 8.4209C-45.568 7.83952 -45.8968 6.99337 -44.8135 6.25C-43.7302 5.50662 -38.8902 1.52308 -38.7417 0.409798C-38.7417 0.409798 -30.3965 5.28515 -30.3965 5.28515C-30.3965 5.28515 -31.2747 9.97949 -32.2891 11.9463C-33.3034 13.9131 -34.6641 15.5954 -36.3711 16.9932C-38.0781 18.3909 -40.1006 19.4609 -42.4385 20.2031C-44.7764 20.9453 -47.3802 21.3164 -50.25 21.3164ZM-24.5332 27.625L-24.5332 16.8633L-3.90039 -0.207029C-3.90039 -0.207029 -1.36459 -2.41504 -0.375004 -3.41699C0.61458 -4.41894 1.37532 -5.45182 1.90722 -6.51562C2.43912 -7.57943 2.70507 -8.76693 2.70507 -10.0781C2.70507 -11.4883 2.40201 -12.6943 1.79589 -13.6963C1.18978 -14.6982 0.360998 -15.4714 -0.690434 -16.0156C-1.74187 -16.5599 -2.96029 -16.832 -4.34571 -16.832C-5.73112 -16.832 -6.94955 -16.5537 -8.00098 -15.9971C-9.05241 -15.4404 -6.2922 -13.7058 -5.86801 -12.6284C-7.10779 -11.907 -9.37628 -10.5827 -11.3223 -9.63281C-11.3223 -9.63281 -25.5723 -9.63281 -25.5723 -9.63281C-25.5723 -9.63281 -24.7002 -16.8568 -22.9561 -19.6523C-21.2119 -22.4479 -18.7441 -24.6064 -15.5527 -26.1279C-12.3613 -27.6494 -8.62565 -28.4102 -4.34571 -28.4102C0.0826778 -28.4102 3.91732 -27.7051 7.1582 -26.2949C10.3991 -24.8848 12.904 -22.8994 14.6728 -20.3389C16.4417 -17.7783 17.3262 -14.7786 17.3262 -11.3398C17.3262 -9.21224 16.887 -7.10319 16.0088 -5.01269C15.1305 -2.9222 13.5534 -0.602863 11.2773 1.94531C9.0013 4.49349 5.74804 7.51172 1.51757 11C1.51757 11 -3.67774 15.3047 -3.67774 15.3047L-3.67774 15.6758L17.9199 15.6758L23.3601 24.6526L17.9199 27.625L-24.5332 27.625ZM45.3066 28.3672C41.0514 28.3672 37.2786 27.6188 33.9883 26.1221C30.6979 24.6253 28.1126 22.5534 26.2324 19.9062C24.3522 17.2591 23.3874 14.2161 23.3379 10.7773C23.3379 10.7773 28.8025 7.82547 28.8025 7.82547L37.959 10.7773C37.959 10.7773 38.293 13.14 38.9609 14.0801C39.6289 15.0202 40.5195 15.7438 41.6328 16.251C42.7461 16.7581 43.9707 17.0117 45.3066 17.0117C46.8405 17.0117 48.1826 16.6839 49.333 16.0283C50.4834 15.3727 51.3864 14.4512 52.042 13.2637C52.6976 12.0762 53.0254 10.6784 53.0254 9.07031C53.0254 7.4375 52.6976 6.02116 52.042 4.82129C51.3864 3.62142 50.4834 2.69369 49.333 2.03809C48.1826 1.38249 46.8405 1.05469 45.3066 1.05469C43.6986 1.05469 43.4422 2.31534 43.4422 2.31534C43.4422 2.31534 38.6022 4.02344 37.959 5.35938C37.959 5.35938 24.748 2.76172 24.748 2.76172L26.9004 -27.668L32.366 -30.6324L64.084 -27.668L69.5014 -18.6128L64.084 -15.6445L39.2207 -15.6445L38.1816 -3.47265L38.4785 -3.47265C38.4785 -3.47265 40.8411 -6.54037 42.9687 -7.6289C45.0963 -8.71744 47.5579 -9.26172 50.3535 -9.26172C52.8027 -9.26172 55.0726 -8.82877 57.1631 -7.96289C59.2536 -7.097 61.0719 -5.86621 62.6182 -4.27051C64.1644 -2.6748 65.3643 -0.782225 66.2178 1.40723C67.0713 3.59668 67.498 6.0026 67.498 8.625C67.498 12.4844 66.5827 15.8984 64.7519 18.8672C62.9212 21.8359 60.3421 24.1615 57.0146 25.8437C53.6872 27.526 49.7845 28.3672 45.3066 28.3672Z"></path>
  <path fill="#DEDEDE" transform="matrix(1.15955 -0.0192763 0.0232702 1.39981 283.511 183.899)" d="M-51.8282 28.625L-51.8282 -26.668L-47.375 -26.668L-47.375 28.625L-51.8282 28.625ZM-49.75 22.3164C-54.2526 22.3164 -58.1058 21.4196 -61.3096 19.626C-64.5134 17.8324 -66.9626 15.3337 -68.6573 12.1299C-70.3519 8.92611 -71.1992 5.19661 -71.1992 0.941406C-71.1992 -3.3138 -70.3519 -7.0433 -68.6573 -10.2471C-66.9626 -13.4508 -64.5134 -15.9495 -61.3096 -17.7432C-58.1058 -19.5368 -54.2526 -20.4336 -49.75 -20.4336C-46.8802 -20.4336 -44.2826 -20.0625 -41.9571 -19.3203C-39.6315 -18.5781 -37.6091 -17.5205 -35.8897 -16.1475C-34.1703 -14.7744 -32.8034 -13.1169 -31.7891 -11.1748C-30.7748 -9.23275 -30.1439 -7.06185 -29.8965 -4.66211C-29.8965 -4.66211 -43.5899 -2.62109 -43.5899 -2.62109C-43.5899 -2.62109 -44.0166 -4.6683 -44.3506 -5.49707C-44.6846 -6.32584 -45.099 -7.02474 -45.5938 -7.59375C-46.0886 -8.16276 -46.6638 -8.58952 -47.3194 -8.87402C-47.975 -9.15853 -48.711 -9.30078 -49.5274 -9.30078C-50.8386 -9.30078 -51.9766 -8.92969 -52.9414 -8.1875C-53.9063 -7.44531 -54.6547 -6.31966 -55.1866 -4.81055C-55.7185 -3.30143 -55.9844 -1.40885 -55.9844 0.867188C-55.9844 3.11849 -55.7185 5.01107 -55.1866 6.54492C-54.6547 8.07877 -53.9063 9.23535 -52.9414 10.0146C-51.9766 10.7939 -50.8386 11.1836 -49.5274 11.1836C-48.711 11.1836 -47.975 11.0352 -47.3194 10.7383C-46.6638 10.4414 -46.0824 10.0023 -45.5752 9.4209C-45.0681 8.83952 -44.6475 8.11588 -44.3135 7.25C-43.9795 6.38411 -43.7383 5.39453 -43.5899 4.28125C-43.5899 4.28125 -29.8965 6.28515 -29.8965 6.28515C-29.8965 6.28515 -30.7748 10.9795 -31.7891 12.9463C-32.8034 14.9131 -34.1641 16.5954 -35.8711 17.9932C-37.5782 19.3909 -39.6006 20.4609 -41.9385 21.2031C-44.2764 21.9453 -46.8802 22.3164 -49.75 22.3164ZM-24.0332 28.625L-24.0332 17.8633L-3.4004 0.792967C-3.4004 0.792967 -0.864597 -1.41504 0.124987 -2.41699C1.11457 -3.41895 1.87531 -4.45182 2.40721 -5.51563C2.93911 -6.57943 3.20506 -7.76693 3.20506 -9.07813C3.20506 -10.4883 2.902 -11.6943 2.29589 -12.6963C1.68977 -13.6982 0.860989 -14.4714 -0.190443 -15.0156C-1.24187 -15.5599 -2.4603 -15.832 -3.84571 -15.832C-5.23113 -15.832 -6.44956 -15.5537 -7.50099 -14.9971C-8.55242 -14.4404 -9.36883 -13.6302 -9.95021 -12.5664C-10.5316 -11.5026 -10.8223 -10.1914 -10.8223 -8.63281C-10.8223 -8.63281 -25.0723 -8.63281 -25.0723 -8.63281C-25.0723 -8.63281 -24.2002 -15.8568 -22.4561 -18.6523C-20.7119 -21.4479 -18.2442 -23.6064 -15.0527 -25.1279C-11.8613 -26.6494 -8.12566 -27.4102 -3.84571 -27.4102C0.582668 -27.4102 4.41731 -26.7051 7.65819 -25.2949C10.8991 -23.8848 13.404 -21.8994 15.1728 -19.3389C16.9417 -16.7783 17.8262 -13.7786 17.8262 -10.3398C17.8262 -8.21224 17.387 -6.10319 16.5088 -4.0127C15.6305 -1.9222 14.0534 0.397133 11.7773 2.94531C9.50129 5.49349 6.24803 8.51171 2.01756 12C2.01756 12 -3.17775 16.3047 -3.17775 16.3047L-3.17775 16.6758L18.4199 16.6758L18.4199 28.625L-24.0332 28.625ZM45.8066 29.3672C41.5514 29.3672 37.7786 28.6188 34.4883 27.1221C31.1979 25.6253 28.6126 23.5534 26.7324 20.9062C24.8522 18.2591 23.8874 15.2161 23.8379 11.7773C23.8379 11.7773 38.459 11.7773 38.459 11.7773C38.459 11.7773 38.793 14.14 39.4609 15.0801C40.1289 16.0202 41.0195 16.7438 42.1328 17.251C43.2461 17.7581 44.4707 18.0117 45.8066 18.0117C47.3405 18.0117 48.6826 17.6839 49.833 17.0283C50.9834 16.3727 51.8864 15.4512 52.542 14.2637C53.1976 13.0762 53.5254 11.6784 53.5254 10.0703C53.5254 8.4375 53.1976 7.02116 52.542 5.82129C51.8864 4.62142 50.9834 3.69369 49.833 3.03809C48.6826 2.38249 47.3405 2.05469 45.8066 2.05469C44.1986 2.05469 42.7327 2.43815 41.4092 3.20508C40.0856 3.97201 39.1022 5.02344 38.459 6.35938C38.459 6.35938 25.248 3.76172 25.248 3.76172L27.4004 -26.668L64.584 -26.668L64.584 -14.6445L39.7207 -14.6445L38.6816 -2.47265L38.9785 -2.47265C38.9785 -2.47265 41.3411 -5.54037 43.4687 -6.6289C45.5963 -7.71744 48.0579 -8.26172 50.8535 -8.26172C53.3027 -8.26172 55.5726 -7.82877 57.6631 -6.96289C59.7536 -6.097 61.5719 -4.86621 63.1182 -3.27051C64.6644 -1.6748 65.8643 0.217775 66.7178 2.40723C67.5713 4.59668 67.998 7.0026 67.998 9.625C67.998 13.4844 67.0827 16.8984 65.2519 19.8672C63.4212 22.8359 60.8421 25.1615 57.5146 26.8437C54.1872 28.526 50.2845 29.3672 45.8066 29.3672Z"></path>
  <clipPath id="cl_315">
    <path d="M224.079 224.968L222.793 147.568L227.956 147.482L229.243 224.882L224.079 224.968ZM226.342 216.097C221.121 216.184 216.632 215.003 212.876 212.554C209.119 210.105 206.221 206.654 204.181 202.202C202.142 197.75 201.072 192.546 200.973 186.589C200.874 180.633 201.77 175.396 203.66 170.879C205.551 166.361 208.333 162.816 212.006 160.244C215.679 157.672 220.126 156.342 225.347 156.255C228.675 156.2 231.696 156.669 234.41 157.663C237.123 158.657 239.493 160.099 241.519 161.988C243.545 163.877 245.168 166.17 246.389 168.869C247.611 171.568 248.393 174.595 248.736 177.949C248.736 177.949 232.905 181.07 232.905 181.07C232.905 181.07 232.362 178.213 231.956 177.059C231.549 175.906 231.053 174.935 230.466 174.148C229.879 173.361 229.202 172.775 228.435 172.389C227.668 172.004 226.811 171.819 225.865 171.835C224.344 171.86 223.033 172.401 221.932 173.459C220.83 174.516 219.989 176.106 219.407 178.229C218.825 180.352 218.561 183.006 218.614 186.192C218.666 189.344 219.019 191.988 219.671 194.125C220.324 196.261 221.218 197.866 222.355 198.938C223.492 200.011 224.821 200.534 226.341 200.509C227.288 200.493 228.138 200.271 228.891 199.843C229.645 199.415 230.308 198.789 230.883 197.965C231.458 197.142 231.928 196.121 232.296 194.902C232.663 193.683 232.919 192.294 233.066 190.732C233.066 190.732 248.99 193.273 248.99 193.273C248.99 193.273 248.081 199.862 246.951 202.634C245.82 205.407 244.282 207.788 242.335 209.778C240.388 211.767 238.068 213.304 235.374 214.388C232.68 215.472 229.67 216.042 226.342 216.097ZM256.309 224.432L256.059 209.368L279.586 185.075C279.586 185.075 282.475 181.935 283.599 180.513C284.724 179.092 285.582 177.631 286.174 176.132C286.766 174.633 287.046 172.965 287.016 171.13C286.983 169.156 286.604 167.473 285.877 166.083C285.151 164.692 284.172 163.626 282.94 162.884C281.709 162.142 280.289 161.785 278.683 161.812C277.077 161.838 275.67 162.251 274.464 163.051C273.258 163.85 272.33 165 271.68 166.5C271.031 168.001 270.725 169.842 270.761 172.024C270.761 172.024 254.237 172.298 254.237 172.298C254.237 172.298 255.08 162.169 257.038 158.222C258.995 154.276 261.806 151.206 265.471 149.015C269.137 146.824 273.451 145.687 278.414 145.604C283.549 145.519 288.011 146.432 291.802 148.344C295.593 150.255 298.544 152.986 300.654 156.536C302.765 160.086 303.86 164.268 303.94 169.082C303.99 172.06 303.53 175.021 302.56 177.964C301.59 180.907 299.816 184.184 297.236 187.795C294.656 191.406 290.954 195.694 286.129 200.658C286.129 200.658 280.205 206.784 280.205 206.784L280.214 207.303L305.258 206.887L305.536 223.614L256.309 224.432ZM337.309 224.125C332.375 224.207 327.983 223.232 324.133 221.2C320.283 219.168 317.237 216.318 314.995 212.649C312.753 208.979 311.563 204.738 311.426 199.926C311.426 199.926 328.38 199.644 328.38 199.644C328.38 199.644 328.822 202.945 329.619 204.248C330.415 205.551 331.465 206.547 332.767 207.235C334.07 207.924 335.496 208.255 337.045 208.229C338.824 208.2 340.372 207.715 341.691 206.775C343.01 205.835 344.035 204.528 344.768 202.853C345.5 201.178 345.848 199.215 345.811 196.964C345.773 194.678 345.36 192.702 344.571 191.035C343.783 189.368 342.715 188.087 341.365 187.191C340.016 186.296 338.452 185.863 336.674 185.892C334.809 185.923 333.118 186.488 331.601 187.587C330.085 188.687 328.969 190.177 328.254 192.06C328.254 192.06 312.875 188.678 312.875 188.678L314.662 146.041L357.779 145.324L358.059 162.155L329.228 162.634L328.307 179.692L328.651 179.687C328.651 179.687 331.319 175.347 333.761 173.782C336.203 172.217 339.044 171.408 342.286 171.354C345.126 171.307 347.768 171.869 350.212 173.041C352.656 174.213 354.793 175.901 356.624 178.104C358.454 180.308 359.889 182.934 360.93 185.983C361.97 189.031 362.521 192.391 362.582 196.062C362.672 201.464 361.69 206.261 359.636 210.452C357.582 214.643 354.646 217.948 350.827 220.367C347.007 222.786 342.502 224.038 337.309 224.125Z"></path>
  </clipPath>
  <g clip-path="url(#cl_315)">
    <path fill="#F2F1F1" transform="matrix(1.10247 0.443007 -0.360078 1.328 253.619 243.879)" d="M-170.753 -28.5017L169.944 -28.5017L169.944 28.5017L-170.753 28.5017L-170.753 -28.5017Z"></path>
    <path fill="#F2F1F1" transform="matrix(1.10247 0.443007 -0.360078 1.328 237.643 294.551)" d="M-170.753 -5.22017L169.944 -5.22017L169.944 5.22016L-170.753 5.22016L-170.753 -5.22017Z"></path>
  </g>
  <path fill="#8E8B8B" transform="matrix(1.39981 -0.0232702 0.0232702 1.39981 274.341 16.0284)" d="M9.53674e-07 1.52588e-05C9.53674e-07 1.52588e-05 -15.0144 -1.52588e-05 -18.2754 1.52588e-05C-65.7732 1.30371 -125.031 32.2772 -125.031 128C-125.031 223.723 -55.4488 256 -19 256C-15.739 256 1.90735e-06 256 3.8147e-06 256C-25.23 256 -106.031 223.723 -106.031 128C-106.031 32.2772 -25.23 0 9.53674e-07 1.52588e-05Z"></path>
  <clipPath id="cl_317">
    <path d="M274.341 16.0284C274.341 16.0284 253.324 16.3778 248.759 16.4537C182.301 19.3839 100.073 64.1197 102.3 198.113C104.528 332.107 202.68 375.669 253.702 374.821C258.266 374.745 280.298 374.379 280.298 374.379C244.981 374.966 131.124 331.664 128.896 197.671C126.669 63.6776 239.024 16.6156 274.341 16.0284Z"></path>
  </clipPath>
  <g clip-path="url(#cl_317)">
    <path fill="#ACABAB" transform="matrix(1.15955 -0.0192763 0.0232702 1.39981 181.248 275.77)" d="M-105.5 -79.2852L105 -79.2852L105 3.65003L-105.5 3.65003L-105.5 -79.2852Z"></path>
    <path fill="#D6D6D6" transform="matrix(1.15955 -0.0192763 0.0232702 1.39981 171.095 254.769)" d="M-105.5 -6.48245L105 -6.48245L105 6.44734L-105.5 6.44734L-105.5 -6.48245Z"></path>
    <path fill="#D6D6D6" transform="matrix(1.16285 -0.0193311 0.0232042 1.39584 175.331 195.611)" d="M-175.044 -30.4996L174.214 -30.4996L174.214 30.4996L-175.044 30.4996L-175.044 -30.4996Z"></path>
  </g>
  <path fill="#A5A5A5" transform="matrix(1.37514 0 0 0.221269 272.419 478.039)" d="M-0.25 -88.0001C55.945 -88.0001 101.5 -48.6011 101.5 -6.10352e-05C101.5 48.601 55.945 87.9999 -0.25 87.9999C-56.445 87.9999 -102 48.601 -102 -6.10352e-05C-102 -48.6011 -56.445 -88.0001 -0.25 -88.0001Z" style="mix-blend-mode: multiply"></path>
</svg>