<?xml version="1.0" encoding="utf-8"?>
<svg xmlns="http://www.w3.org/2000/svg" xmlns:xlink="http://www.w3.org/1999/xlink" width="512" height="512">
  <path fill="#312F2F" transform="matrix(1.17393 -0.000302478 0.000360729 1.4 250.719 193.986)" d="M-4.76837e-07 -128C70.6925 -128 128 -70.6925 128 1.86265e-09C128 70.6925 70.6925 128 -4.76837e-07 128C-70.6925 128 -128 70.6925 -128 -1.86265e-09C-128 -70.6925 -70.6925 -128 -4.76837e-07 -128Z"></path>
  <path fill="none" stroke="black" stroke-width="7" stroke-miterlimit="4" transform="translate(256 256)" d="M21.2731 -241.221C104.261 -241.242 171.556 -161.029 171.582 -62.0596C171.607 36.9099 104.353 117.158 21.3655 117.179C-61.6222 117.201 -128.918 36.9873 -128.943 -61.9821C-128.969 -160.952 -61.7145 -241.199 21.2731 -241.221Z"></path>
  <path fill="none" stroke="black" stroke-width="7" stroke-linejoin="round" transform="translate(256 256)" d="M21.2731 -241.221C21.2731 -241.221 -0.00458145 -241.215 -4.29999 -241.214C-71.6113 -239.372 -155.578 -195.987 -155.543 -61.9753C-155.509 72.0367 -56.8881 117.199 -5.2345 117.186C-0.939091 117.185 21.3655 117.179 21.3655 117.179C20.1156 117.179 18.7694 117.125 17.3352 117.013"></path>
  <path fill="#DEDEDE" transform="matrix(1.17393 -0.000302478 0.000360729 1.4 277.319 193.979)" d="M0 -128C70.6925 -128 128 -70.6924 128 7.63126e-06C128 70.6925 70.6925 128 0 128C-70.6925 128 -128 70.6925 -128 7.62753e-06C-128 -70.6924 -70.6925 -128 0 -128Z"></path>
  <clipPath id="cl_a">
    <path d="M277.273 14.7792C360.261 14.7578 427.556 94.971 427.582 193.94C427.607 292.91 360.353 373.158 277.365 373.179C194.378 373.201 127.082 292.987 127.057 194.018C127.031 95.0484 194.285 14.8006 277.273 14.7792Z"></path>
  </clipPath>
  <g clip-path="url(#cl_a)">
    <path fill="#F2F1F1" transform="matrix(1.1085 0.460985 -0.386443 1.32193 279.683 256.359)" d="M-170.753 -28.5017L169.944 -28.5017L169.944 28.5017L-170.753 28.5017L-170.753 -28.5017Z"></path>
    <path fill="#F2F1F1" transform="matrix(1.1085 0.460985 -0.386443 1.32193 262.674 306.649)" d="M-170.753 -5.22017L169.944 -5.22017L169.944 5.22016L-170.753 5.22016L-170.753 -5.22017Z"></path>
  </g>
  <path fill="#8B8B8B" transform="matrix(1.17393 -0.000302478 0.000360729 1.4 284.949 192.577)" d="M0.250002 -87.5C51.4744 -87.5 93 -48.4369 93 -0.250004C93 47.9368 51.4744 87 0.250002 87C-50.9744 87 -92.5 47.9368 -92.5 -0.250004C-92.5 -48.4369 -50.9744 -87.5 0.250002 -87.5Z"></path>
  <path fill="#B0AFAF" transform="matrix(1.17393 -0.000302478 0.000360729 1.4 277.319 193.979)" d="M0 -86C47.4965 -86 86 -47.4965 86 7.63065e-06C86 47.4965 47.4965 86 0 86C-47.4965 86 -86 47.4965 -86 7.62814e-06C-86 -47.4965 -47.4965 -86 0 -86Z"></path>
  <path fill="#8B8B8B" transform="matrix(1.17393 -0.000302478 0.000360729 1.4 277.905 188.379)" d="M-52.3281 27.625L-52.3281 -27.668L-46.756 -30.4055L-46.7825 24.7561L-42.4192 24.6238L-47.1315 27.6684L-52.3281 27.625ZM-50.25 21.3164C-54.7526 21.3164 -58.6058 20.4196 -61.8096 18.626C-65.0134 16.8324 -67.4626 14.3337 -69.1572 11.1299C-70.8519 7.92611 -71.6992 4.19662 -71.6992 -0.0585899C-71.6992 -4.3138 -70.8519 -8.04329 -69.1572 -11.2471C-67.4626 -14.4508 -65.0134 -16.9495 -61.8096 -18.7432C-58.6058 -20.5368 -54.7526 -21.4336 -50.25 -21.4336C-47.3802 -21.4336 -44.7826 -21.0625 -42.457 -20.3203C-40.1315 -19.5781 -38.1091 -18.5205 -36.3897 -17.1475C-34.6702 -15.7744 -27.78 -10.4693 -25.0591 -8.68545C-26.0599 -7.96244 -28.21 -6.90539 -30.3965 -5.66211C-30.3965 -5.66211 -44.0898 -3.62109 -44.0898 -3.62109C-44.0898 -3.62109 -44.5166 -5.66829 -44.8506 -6.49707C-45.1846 -7.32584 -45.599 -8.02474 -46.0938 -8.59375C-46.5885 -9.16275 -47.1637 -9.58951 -47.8193 -9.87402C-48.4749 -10.1585 -49.2109 -10.3008 -50.0274 -10.3008C-51.3385 -10.3008 -52.4766 -9.92968 -53.4414 -9.1875C-54.4063 -8.44531 -55.1546 -7.31966 -55.6865 -5.81054C-56.2184 -4.30143 -56.4844 -2.40885 -56.4844 -0.132809C-56.4844 2.11849 -56.2184 4.01107 -55.6865 5.54493C-55.1546 7.07878 -54.4063 8.23536 -53.4414 9.01465C-52.4766 9.79395 -51.3385 10.1836 -50.0274 10.1836C-49.2109 10.1836 -48.4749 10.0352 -47.8193 9.73829C-47.1637 9.44141 -46.5824 9.00228 -46.0752 8.4209C-45.568 7.83952 -45.8968 6.99338 -44.8135 6.25C-43.7302 5.50663 -38.8902 1.52308 -38.7417 0.409801C-38.7417 0.409801 -30.3965 5.28516 -30.3965 5.28516C-30.3965 5.28516 -31.2747 9.9795 -32.2891 11.9463C-33.3034 13.9131 -34.6641 15.5954 -36.3711 16.9932C-38.0781 18.391 -40.1006 19.4609 -42.4385 20.2031C-44.7764 20.9453 -47.3802 21.3164 -50.25 21.3164ZM-24.5332 27.625L-24.5332 16.8633L-3.90039 -0.207026C-3.90039 -0.207026 -1.36458 -2.41503 -0.374998 -3.41699C0.614586 -4.41894 1.37533 -5.45181 1.90723 -6.51562C2.43913 -7.57942 2.70508 -8.76692 2.70508 -10.0781C2.70508 -11.4883 2.40202 -12.6943 1.7959 -13.6963C1.18978 -14.6982 0.361004 -15.4713 -0.690428 -16.0156C-1.74186 -16.5599 -2.96029 -16.832 -4.3457 -16.832C-5.73112 -16.832 -6.94954 -16.5537 -8.00098 -15.9971C-9.05241 -15.4404 -6.2922 -13.7058 -5.868 -12.6284C-7.10779 -11.907 -9.37628 -10.5827 -11.3223 -9.63281C-11.3223 -9.63281 -25.5723 -9.63281 -25.5723 -9.63281C-25.5723 -9.63281 -24.7002 -16.8568 -22.9561 -19.6523C-21.2119 -22.4479 -18.7441 -24.6064 -15.5527 -26.1279C-12.3613 -27.6494 -8.62565 -28.4102 -4.3457 -28.4102C0.0826836 -28.4102 3.91732 -27.7051 7.15821 -26.2949C10.3991 -24.8848 12.904 -22.8994 14.6729 -20.3389C16.4417 -17.7783 17.3262 -14.7786 17.3262 -11.3398C17.3262 -9.21224 16.887 -7.10318 16.0088 -5.01269C15.1305 -2.9222 13.5534 -0.602859 11.2773 1.94532C9.0013 4.4935 5.74805 7.51172 1.51758 11C1.51758 11 -3.67773 15.3047 -3.67773 15.3047L-3.67773 15.6758L17.9199 15.6758L23.3601 24.6527L17.9199 27.625L-24.5332 27.625ZM45.3066 28.3672C41.0514 28.3672 37.2787 27.6188 33.9883 26.1221C30.6979 24.6253 28.1126 22.5534 26.2324 19.9063C24.3522 17.2591 23.3874 14.2162 23.3379 10.7773C23.3379 10.7773 28.8025 7.82547 28.8025 7.82547L37.959 10.7773C37.959 10.7773 38.293 13.14 38.9609 14.0801C39.6289 15.0202 40.5195 15.7438 41.6328 16.251C42.7461 16.7581 43.9707 17.0117 45.3066 17.0117C46.8405 17.0117 48.1826 16.6839 49.333 16.0283C50.4834 15.3727 51.3864 14.4512 52.042 13.2637C52.6976 12.0762 53.0254 10.6784 53.0254 9.07032C53.0254 7.4375 52.6976 6.02116 52.042 4.82129C51.3864 3.62142 50.4834 2.69369 49.333 2.03809C48.1826 1.38249 46.8405 1.05469 45.3066 1.05469C43.6986 1.05469 43.4423 2.31534 43.4423 2.31534C43.4423 2.31534 38.6022 4.02344 37.959 5.35938C37.959 5.35938 24.7481 2.76172 24.7481 2.76172L26.9004 -27.668L32.366 -30.6324L64.084 -27.668L69.5015 -18.6128L64.084 -15.6445L39.2207 -15.6445L38.1816 -3.47265L38.4785 -3.47265C38.4785 -3.47265 40.8412 -6.54036 42.9688 -7.6289C45.0964 -8.71744 47.558 -9.26171 50.3535 -9.26171C52.8027 -9.26171 55.0726 -8.82877 57.1631 -7.96289C59.2536 -7.097 61.0719 -5.86621 62.6182 -4.2705C64.1644 -2.6748 65.3643 -0.782223 66.2178 1.40723C67.0713 3.59668 67.4981 6.00261 67.4981 8.625C67.4981 12.4844 66.5827 15.8984 64.752 18.8672C62.9212 21.8359 60.3421 24.1615 57.0147 25.8438C53.6872 27.526 49.7845 28.3672 45.3066 28.3672Z"></path>
  <path fill="#DEDEDE" transform="matrix(1.17393 -0.000302478 0.000360729 1.4 283.773 182.777)" d="M-51.8282 28.625L-51.8282 -26.668L-47.375 -26.668L-47.375 28.625L-51.8282 28.625ZM-49.75 22.3164C-54.2526 22.3164 -58.1058 21.4196 -61.3096 19.626C-64.5134 17.8324 -66.9626 15.3337 -68.6573 12.1299C-70.3519 8.92611 -71.1992 5.19661 -71.1992 0.941404C-71.1992 -3.3138 -70.3519 -7.0433 -68.6573 -10.2471C-66.9626 -13.4508 -64.5134 -15.9495 -61.3096 -17.7432C-58.1058 -19.5368 -54.2526 -20.4336 -49.75 -20.4336C-46.8802 -20.4336 -44.2826 -20.0625 -41.9571 -19.3203C-39.6315 -18.5781 -37.6091 -17.5205 -35.8897 -16.1475C-34.1703 -14.7744 -32.8034 -13.1169 -31.7891 -11.1748C-30.7748 -9.23275 -30.1439 -7.06185 -29.8965 -4.66211C-29.8965 -4.66211 -43.5899 -2.6211 -43.5899 -2.6211C-43.5899 -2.6211 -44.0166 -4.6683 -44.3506 -5.49707C-44.6846 -6.32585 -45.099 -7.02474 -45.5938 -7.59375C-46.0886 -8.16276 -46.6638 -8.58952 -47.3194 -8.87403C-47.975 -9.15853 -48.711 -9.30078 -49.5274 -9.30078C-50.8386 -9.30078 -51.9766 -8.92969 -52.9414 -8.1875C-53.9063 -7.44531 -54.6546 -6.31967 -55.1866 -4.81055C-55.7185 -3.30143 -55.9844 -1.40886 -55.9844 0.867186C-55.9844 3.11849 -55.7185 5.01107 -55.1866 6.54492C-54.6546 8.07877 -53.9063 9.23535 -52.9414 10.0146C-51.9766 10.7939 -50.8386 11.1836 -49.5274 11.1836C-48.711 11.1836 -47.975 11.0352 -47.3194 10.7383C-46.6638 10.4414 -46.0824 10.0023 -45.5752 9.4209C-45.0681 8.83952 -44.6475 8.11588 -44.3135 7.25C-43.9795 6.38411 -43.7383 5.39453 -43.5899 4.28125C-43.5899 4.28125 -29.8965 6.28515 -29.8965 6.28515C-29.8965 6.28515 -30.7748 10.9795 -31.7891 12.9463C-32.8034 14.9131 -34.1641 16.5954 -35.8711 17.9932C-37.5782 19.3909 -39.6006 20.4609 -41.9385 21.2031C-44.2764 21.9453 -46.8802 22.3164 -49.75 22.3164ZM-24.0332 28.625L-24.0332 17.8633L-3.4004 0.792969C-3.4004 0.792969 -0.86459 -1.41504 0.124994 -2.41699C1.11458 -3.41895 1.87532 -4.45182 2.40722 -5.51562C2.93912 -6.57943 3.20507 -7.76693 3.20507 -9.07812C3.20507 -10.4883 2.90201 -11.6943 2.29589 -12.6963C1.68977 -13.6982 0.860996 -14.4714 -0.190435 -15.0156C-1.24187 -15.5599 -2.46029 -15.832 -3.84571 -15.832C-5.23113 -15.832 -6.44955 -15.5537 -7.50098 -14.9971C-8.55242 -14.4404 -9.36882 -13.6302 -9.9502 -12.5664C-10.5316 -11.5026 -10.8223 -10.1914 -10.8223 -8.63281C-10.8223 -8.63281 -25.0723 -8.63281 -25.0723 -8.63281C-25.0723 -8.63281 -24.2002 -15.8568 -22.4561 -18.6523C-20.7119 -21.4479 -18.2441 -23.6064 -15.0527 -25.1279C-11.8613 -26.6494 -8.12566 -27.4102 -3.84571 -27.4102C0.582676 -27.4102 4.41731 -26.7051 7.6582 -25.2949C10.8991 -23.8848 13.404 -21.8994 15.1728 -19.3389C16.9417 -16.7783 17.8262 -13.7786 17.8262 -10.3398C17.8262 -8.21224 17.387 -6.10319 16.5088 -4.0127C15.6305 -1.9222 14.0534 0.397135 11.7773 2.94531C9.5013 5.49349 6.24804 8.51172 2.01757 12C2.01757 12 -3.17774 16.3047 -3.17774 16.3047L-3.17774 16.6758L18.4199 16.6758L18.4199 28.625L-24.0332 28.625ZM45.8066 29.3672C41.5514 29.3672 37.7786 28.6188 34.4883 27.1221C31.1979 25.6253 28.6126 23.5534 26.7324 20.9062C24.8522 18.2591 23.8874 15.2161 23.8379 11.7773C23.8379 11.7773 38.459 11.7773 38.459 11.7773C38.459 11.7773 38.793 14.14 39.4609 15.0801C40.1289 16.0202 41.0195 16.7438 42.1328 17.251C43.2461 17.7581 44.4707 18.0117 45.8066 18.0117C47.3405 18.0117 48.6826 17.6839 49.833 17.0283C50.9834 16.3727 51.8864 15.4512 52.542 14.2637C53.1976 13.0762 53.5254 11.6784 53.5254 10.0703C53.5254 8.4375 53.1976 7.02116 52.542 5.82129C51.8864 4.62142 50.9834 3.69368 49.833 3.03808C48.6826 2.38248 47.3405 2.05469 45.8066 2.05469C44.1986 2.05469 42.7327 2.43815 41.4092 3.20508C40.0856 3.972 39.1022 5.02344 38.459 6.35937C38.459 6.35937 25.248 3.76172 25.248 3.76172L27.4004 -26.668L64.584 -26.668L64.584 -14.6445L39.7207 -14.6445L38.6816 -2.47266L38.9785 -2.47266C38.9785 -2.47266 41.3411 -5.54037 43.4688 -6.62891C45.5964 -7.71745 48.0579 -8.26172 50.8535 -8.26172C53.3027 -8.26172 55.5726 -7.82878 57.6631 -6.96289C59.7536 -6.09701 61.5719 -4.86621 63.1182 -3.27051C64.6644 -1.67481 65.8643 0.217772 66.7178 2.40722C67.5713 4.59668 67.998 7.0026 67.998 9.625C67.998 13.4844 67.0827 16.8984 65.252 19.8672C63.4212 22.8359 60.8421 25.1615 57.5147 26.8437C54.1872 28.526 50.2845 29.3672 45.8066 29.3672Z"></path>
  <clipPath id="cl_c">
    <path d="M222.941 222.868L222.921 145.458L228.149 145.457L228.169 222.867L222.941 222.868ZM225.378 214.036C220.093 214.037 215.569 212.783 211.807 210.272C208.046 207.762 205.169 204.265 203.179 199.78C201.188 195.295 200.192 190.074 200.191 184.117C200.189 178.16 201.183 172.938 203.171 168.452C205.159 163.967 208.033 160.468 211.794 157.956C215.554 155.444 220.077 154.187 225.363 154.186C228.732 154.185 231.781 154.703 234.512 155.742C237.242 156.78 239.616 158.26 241.635 160.182C243.654 162.104 245.26 164.424 246.451 167.142C247.642 169.861 248.384 172.9 248.675 176.26C248.675 176.26 232.601 179.121 232.601 179.121C232.601 179.121 232.099 176.255 231.707 175.095C231.314 173.935 230.828 172.956 230.247 172.16C229.666 171.364 228.99 170.766 228.22 170.368C227.451 169.97 226.587 169.771 225.628 169.771C224.089 169.772 222.753 170.292 221.621 171.331C220.488 172.37 219.61 173.947 218.986 176.059C218.363 178.172 218.051 180.822 218.052 184.008C218.053 187.16 218.366 189.81 218.99 191.957C219.615 194.104 220.494 195.723 221.627 196.814C222.76 197.905 224.096 198.45 225.636 198.45C226.594 198.449 227.458 198.241 228.227 197.825C228.997 197.41 229.679 196.795 230.274 195.981C230.87 195.166 231.363 194.153 231.755 192.941C232.147 191.729 232.429 190.343 232.603 188.784C232.603 188.784 248.679 191.586 248.679 191.586C248.679 191.586 247.65 198.158 246.46 200.912C245.27 203.666 243.673 206.021 241.669 207.979C239.666 209.936 237.292 211.435 234.548 212.475C231.804 213.514 228.747 214.035 225.378 214.036ZM255.57 222.86L255.566 207.793L279.781 183.889C279.781 183.889 282.758 180.797 283.919 179.394C285.08 177.991 285.973 176.544 286.597 175.055C287.221 173.565 287.533 171.903 287.532 170.067C287.532 168.093 287.176 166.405 286.464 165.002C285.752 163.599 284.779 162.517 283.544 161.756C282.31 160.994 280.879 160.613 279.253 160.614C277.626 160.614 276.196 161.004 274.962 161.784C273.728 162.563 272.77 163.698 272.088 165.188C271.406 166.677 271.065 168.513 271.065 170.695C271.065 170.695 254.337 170.699 254.337 170.699C254.337 170.699 255.358 160.585 257.405 156.671C259.451 152.757 262.347 149.734 266.093 147.603C269.839 145.472 274.224 144.406 279.249 144.404C284.447 144.403 288.949 145.389 292.754 147.362C296.559 149.336 299.5 152.114 301.578 155.699C303.655 159.283 304.695 163.482 304.696 168.296C304.697 171.275 304.182 174.228 303.152 177.155C302.121 180.082 300.271 183.329 297.6 186.897C294.929 190.466 291.111 194.692 286.146 199.577C286.146 199.577 280.048 205.605 280.048 205.605L280.049 206.125L305.403 206.118L305.407 222.847L255.57 222.86ZM337.557 223.878C332.562 223.879 328.133 222.832 324.269 220.738C320.406 218.644 317.371 215.744 315.162 212.038C312.954 208.333 311.82 204.073 311.761 199.259C311.761 199.259 328.925 199.254 328.925 199.254C328.925 199.254 329.318 202.562 330.103 203.878C330.887 205.194 331.933 206.206 333.24 206.916C334.547 207.626 335.985 207.98 337.553 207.98C339.354 207.98 340.929 207.52 342.279 206.602C343.63 205.684 344.689 204.393 345.459 202.731C346.228 201.068 346.612 199.111 346.611 196.86C346.611 194.574 346.226 192.591 345.456 190.911C344.685 189.232 343.625 187.933 342.274 187.016C340.924 186.098 339.348 185.64 337.547 185.64C335.66 185.641 333.939 186.178 332.385 187.252C330.832 188.326 329.678 189.798 328.923 191.669C328.923 191.669 313.414 188.036 313.414 188.036L315.929 145.434L359.58 145.423L359.585 162.256L330.397 162.263L329.182 179.304L329.53 179.304C329.53 179.304 332.302 175.008 334.8 173.484C337.297 171.959 340.186 171.197 343.468 171.196C346.344 171.195 349.008 171.8 351.463 173.012C353.917 174.224 356.052 175.946 357.868 178.18C359.684 180.413 361.093 183.062 362.096 186.127C363.098 189.192 363.6 192.561 363.601 196.232C363.603 201.635 362.529 206.415 360.381 210.572C358.233 214.729 355.206 217.985 351.301 220.341C347.395 222.698 342.814 223.876 337.557 223.878Z"></path>
  </clipPath>
  <g clip-path="url(#cl_c)">
    <path fill="#F2F1F1" transform="matrix(1.1085 0.460985 -0.386443 1.32193 252.099 244.354)" d="M-170.753 -28.5017L169.944 -28.5017L169.944 28.5017L-170.753 28.5017L-170.753 -28.5017Z"></path>
    <path fill="#F2F1F1" transform="matrix(1.1085 0.460985 -0.386443 1.32193 235.09 294.758)" d="M-170.753 -5.22017L169.944 -5.22017L169.944 5.22016L-170.753 5.22016L-170.753 -5.22017Z"></path>
  </g>
  <path fill="#8E8B8B" transform="matrix(1.4 -0.000360729 0.000360729 1.4 277.273 14.7792)" d="M1.90735e-06 1.52588e-05C1.90735e-06 1.52588e-05 -15.1984 0 -18.2665 0C-66.3464 1.3037 -126.33 32.2772 -126.33 128C-126.33 223.723 -55.8955 256 -19 256C-15.9318 256 9.53674e-07 256 9.53674e-07 256C-25.5392 256 -107.33 223.723 -107.33 128C-107.33 32.2772 -25.5392 0 1.90735e-06 1.52588e-05Z"></path>
  <clipPath id="cl_e">
    <path d="M277.273 14.7792C277.273 14.7792 255.995 14.7847 251.7 14.7858C184.389 16.6283 100.422 60.0128 100.457 194.025C100.491 328.037 199.112 373.199 250.766 373.186C255.061 373.185 277.366 373.179 277.366 373.179C241.611 373.188 127.091 328.03 127.057 194.018C127.022 60.0059 241.518 14.7884 277.273 14.7792Z"></path>
  </clipPath>
  <g clip-path="url(#cl_e)">
    <path fill="#ACABAB" transform="matrix(1.17393 -0.000302478 0.000360729 1.4 179.075 272.963)" d="M-105.5 -78.6314L105 -78.6314L105 2.99616L-105.5 2.99616L-105.5 -78.6314Z"></path>
    <path fill="#D6D6D6" transform="matrix(1.17393 -0.000302478 0.000360729 1.4 169.147 254.171)" d="M-105.5 -6.49974L105 -6.49974L105 6.49922L-105.5 6.49922L-105.5 -6.49974Z"></path>
    <path fill="#D6D6D6" transform="matrix(1.17726 -0.000303346 0.000359713 1.39603 174.414 194.884)" d="M-175.044 -30.6615L174.214 -30.6615L174.214 30.6615L-175.044 30.6615L-175.044 -30.6615Z"></path>
  </g>
  <path fill="#A5A5A5" transform="matrix(1.39963 0 0 0.218249 272.419 478.039)" d="M-0.249999 -87.9999C55.945 -87.9999 101.5 -48.601 101.5 6.10352e-05C101.5 48.6011 55.945 88.0001 -0.249999 88.0001C-56.445 88.0001 -102 48.6011 -102 6.10352e-05C-102 -48.601 -56.445 -87.9999 -0.249999 -87.9999Z" style="mix-blend-mode: multiply"></path>
</svg>