<?xml version="1.0" encoding="utf-8"?>
<svg xmlns="http://www.w3.org/2000/svg" xmlns:xlink="http://www.w3.org/1999/xlink" width="512" height="512">
  <path fill="#312F2F" transform="matrix(1.05923 -0.0484523 0.0639733 1.39854 250.747 204.982)" d="M0 -128C70.6924 -128 128 -70.6925 128 0C128 70.6925 70.6924 128 0 128C-70.6924 128 -128 70.6925 -128 0C-128 -70.6925 -70.6924 -128 0 -128Z"></path>
  <path fill="none" stroke="black" stroke-width="7" stroke-miterlimit="4" transform="translate(256 256)" d="M13.1307 -231.246C88.0102 -234.671 152.378 -157.301 156.901 -58.4353C161.423 40.4307 104.387 123.354 29.5079 126.779C-45.3716 130.205 -109.74 52.8345 -114.262 -46.0315C-118.784 -144.898 -61.7488 -227.821 13.1307 -231.246Z"></path>
  <path fill="none" stroke="black" stroke-width="7" stroke-linejoin="round" transform="translate(256 256)" d="M13.1307 -231.246C13.1307 -231.246 -6.06808 -230.368 -12.5149 -230.073C-73.1668 -225.472 -146.958 -178.688 -140.834 -44.816C-134.71 89.0559 -43.6712 130.127 2.93569 127.995C9.38255 127.7 29.5079 126.779 29.5079 126.779C28.6058 126.821 27.6464 126.829 26.6337 126.804"></path>
  <path fill="#DEDEDE" transform="matrix(1.05923 -0.0484523 0.0639733 1.39854 277.319 203.767)" d="M-1.90735e-06 -128C70.6924 -128 128 -70.6925 128 0C128 70.6925 70.6924 128 -1.90735e-06 128C-70.6924 128 -128 70.6925 -128 0C-128 -70.6925 -70.6924 -128 -1.90735e-06 -128Z"></path>
  <clipPath id="cl_2b1">
    <path d="M269.131 24.7538C344.01 21.3285 408.378 98.6986 412.901 197.565C417.423 296.431 360.387 379.354 285.508 382.779C210.628 386.205 146.26 308.835 141.738 209.968C137.216 111.102 194.251 28.179 269.131 24.7538Z"></path>
  </clipPath>
  <g clip-path="url(#cl_2b1)">
    <path fill="#F2F1F1" transform="matrix(1.02116 0.415042 -0.288592 1.33641 281.461 247.899)" d="M-170.753 -28.5017L169.944 -28.5017L169.944 28.5017L-170.753 28.5017L-170.753 -28.5017Z"></path>
    <path fill="#F2F1F1" transform="matrix(1.02116 0.415042 -0.288592 1.33641 268.401 298.85)" d="M-170.753 -5.22017L169.944 -5.22017L169.944 5.22016L-170.753 5.22016L-170.753 -5.22017Z"></path>
  </g>
  <path fill="#8B8B8B" transform="matrix(1.05923 -0.0484523 0.0639733 1.39854 284.14 202.053)" d="M0.25 -87.5C51.4744 -87.5 93 -48.4368 93 -0.25C93 47.9368 51.4744 87 0.25 87C-50.9744 87 -92.5 47.9368 -92.5 -0.25C-92.5 -48.4368 -50.9744 -87.5 0.25 -87.5Z"></path>
  <path fill="#B0AFAF" transform="matrix(1.05923 -0.0484523 0.0639733 1.39854 277.319 203.767)" d="M-1.90735e-06 -86C47.4965 -86 86 -47.4965 86 0C86 47.4965 47.4965 86 -1.90735e-06 86C-47.4965 86 -86 47.4965 -86 0C-86 -47.4965 -47.4965 -86 -1.90735e-06 -86Z"></path>
  <path fill="#8B8B8B" transform="matrix(1.05923 -0.0484523 0.0639733 1.39854 277.593 198.148)" d="M-52.3281 27.625L-52.3281 -27.668L-46.756 -30.4056L-46.7825 24.7561L-42.4192 24.6238L-47.1315 27.6684L-52.3281 27.625ZM-50.25 21.3164C-54.7526 21.3164 -58.6058 20.4196 -61.8096 18.626C-65.0134 16.8324 -67.4626 14.3337 -69.1572 11.1299C-70.8519 7.92611 -71.6992 4.19661 -71.6992 -0.0585957C-71.6992 -4.3138 -70.8519 -8.0433 -69.1572 -11.2471C-67.4626 -14.4508 -65.0134 -16.9495 -61.8096 -18.7432C-58.6058 -20.5368 -54.7526 -21.4336 -50.25 -21.4336C-47.3802 -21.4336 -44.7826 -21.0625 -42.457 -20.3203C-40.1315 -19.5781 -38.1091 -18.5205 -36.3897 -17.1475C-34.6702 -15.7744 -27.78 -10.4694 -25.0591 -8.68546C-26.0599 -7.96244 -28.21 -6.9054 -30.3965 -5.66211C-30.3965 -5.66211 -44.0898 -3.6211 -44.0898 -3.6211C-44.0898 -3.6211 -44.5166 -5.6683 -44.8506 -6.49707C-45.1846 -7.32585 -45.599 -8.02474 -46.0938 -8.59375C-46.5885 -9.16276 -47.1637 -9.58952 -47.8193 -9.87403C-48.4749 -10.1585 -49.2109 -10.3008 -50.0273 -10.3008C-51.3385 -10.3008 -52.4766 -9.92969 -53.4414 -9.1875C-54.4062 -8.44531 -55.1546 -7.31967 -55.6865 -5.81055C-56.2184 -4.30143 -56.4844 -2.40886 -56.4844 -0.132814C-56.4844 2.11849 -56.2184 4.01107 -55.6865 5.54492C-55.1546 7.07877 -54.4062 8.23535 -53.4414 9.01465C-52.4766 9.79394 -51.3385 10.1836 -50.0273 10.1836C-49.2109 10.1836 -48.4749 10.0352 -47.8193 9.73828C-47.1637 9.4414 -46.5824 9.00228 -46.0752 8.4209C-45.568 7.83952 -45.8968 6.99337 -44.8135 6.25C-43.7302 5.50662 -38.8902 1.52308 -38.7417 0.409796C-38.7417 0.409796 -30.3965 5.28515 -30.3965 5.28515C-30.3965 5.28515 -31.2747 9.97949 -32.2891 11.9463C-33.3034 13.9131 -34.6641 15.5954 -36.3711 16.9932C-38.0781 18.3909 -40.1006 19.4609 -42.4385 20.2031C-44.7764 20.9453 -47.3802 21.3164 -50.25 21.3164ZM-24.5332 27.625L-24.5332 16.8633L-3.90039 -0.207031C-3.90039 -0.207031 -1.36458 -2.41504 -0.375 -3.41699C0.614584 -4.41895 1.37533 -5.45182 1.90723 -6.51562C2.43913 -7.57943 2.70508 -8.76693 2.70508 -10.0781C2.70508 -11.4883 2.40202 -12.6943 1.7959 -13.6963C1.18978 -14.6982 0.361002 -15.4714 -0.69043 -16.0156C-1.74186 -16.5599 -2.96029 -16.832 -4.3457 -16.832C-5.73112 -16.832 -6.94954 -16.5537 -8.00098 -15.9971C-9.05241 -15.4404 -6.2922 -13.7058 -5.868 -12.6284C-7.10779 -11.907 -9.37628 -10.5827 -11.3223 -9.63281C-11.3223 -9.63281 -25.5723 -9.63281 -25.5723 -9.63281C-25.5723 -9.63281 -24.7002 -16.8568 -22.9561 -19.6523C-21.2119 -22.4479 -18.7441 -24.6064 -15.5527 -26.1279C-12.3613 -27.6494 -8.62565 -28.4102 -4.3457 -28.4102C0.0826817 -28.4102 3.91732 -27.7051 7.1582 -26.2949C10.3991 -24.8848 12.904 -22.8994 14.6728 -20.3389C16.4417 -17.7783 17.3262 -14.7786 17.3262 -11.3398C17.3262 -9.21224 16.887 -7.10319 16.0088 -5.0127C15.1305 -2.9222 13.5534 -0.602865 11.2773 1.94531C9.0013 4.49349 5.74804 7.51172 1.51758 11C1.51758 11 -3.67773 15.3047 -3.67773 15.3047L-3.67773 15.6758L17.9199 15.6758L23.3601 24.6527L17.9199 27.625L-24.5332 27.625ZM45.3066 28.3672C41.0514 28.3672 37.2786 27.6188 33.9883 26.1221C30.6979 24.6253 28.1126 22.5534 26.2324 19.9062C24.3522 17.2591 23.3874 14.2161 23.3379 10.7773C23.3379 10.7773 28.8025 7.82547 28.8025 7.82547L37.959 10.7773C37.959 10.7773 38.293 13.14 38.9609 14.0801C39.6289 15.0202 40.5195 15.7438 41.6328 16.251C42.7461 16.7581 43.9707 17.0117 45.3066 17.0117C46.8405 17.0117 48.1826 16.6839 49.333 16.0283C50.4834 15.3727 51.3864 14.4512 52.042 13.2637C52.6976 12.0762 53.0254 10.6784 53.0254 9.07031C53.0254 7.4375 52.6976 6.02116 52.042 4.82129C51.3864 3.62142 50.4834 2.69369 49.333 2.03809C48.1826 1.38249 46.8405 1.05469 45.3066 1.05469C43.6986 1.05469 43.4422 2.31534 43.4422 2.31534C43.4422 2.31534 38.6022 4.02344 37.959 5.35938C37.959 5.35938 24.748 2.76172 24.748 2.76172L26.9004 -27.668L32.366 -30.6324L64.084 -27.668L69.5014 -18.6129L64.084 -15.6445L39.2207 -15.6445L38.1816 -3.47266L38.4785 -3.47266C38.4785 -3.47266 40.8411 -6.54037 42.9687 -7.62891C45.0963 -8.71745 47.5579 -9.26172 50.3535 -9.26172C52.8027 -9.26172 55.0726 -8.82877 57.1631 -7.96289C59.2536 -7.097 61.0719 -5.86621 62.6182 -4.27051C64.1644 -2.6748 65.3643 -0.782227 66.2178 1.40723C67.0713 3.59668 67.498 6.0026 67.498 8.625C67.498 12.4844 66.5827 15.8984 64.7519 18.8672C62.9212 21.8359 60.3421 24.1615 57.0146 25.8438C53.6872 27.526 49.7845 28.3672 45.3066 28.3672Z"></path>
  <path fill="#DEDEDE" transform="matrix(1.05923 -0.0484523 0.0639733 1.39854 282.633 192.312)" d="M-51.8281 28.625L-51.8281 -26.668L-47.375 -26.668L-47.375 28.625L-51.8281 28.625ZM-49.75 22.3164C-54.2526 22.3164 -58.1058 21.4196 -61.3096 19.626C-64.5134 17.8324 -66.9626 15.3337 -68.6572 12.1299C-70.3519 8.92611 -71.1992 5.19662 -71.1992 0.941406C-71.1992 -3.3138 -70.3519 -7.0433 -68.6572 -10.2471C-66.9626 -13.4508 -64.5134 -15.9495 -61.3096 -17.7432C-58.1058 -19.5368 -54.2526 -20.4336 -49.75 -20.4336C-46.8802 -20.4336 -44.2826 -20.0625 -41.9571 -19.3203C-39.6315 -18.5781 -37.6091 -17.5205 -35.8897 -16.1475C-34.1703 -14.7744 -32.8034 -13.1169 -31.7891 -11.1748C-30.7748 -9.23275 -30.1439 -7.06185 -29.8965 -4.66211C-29.8965 -4.66211 -43.5899 -2.62109 -43.5899 -2.62109C-43.5899 -2.62109 -44.0166 -4.6683 -44.3506 -5.49707C-44.6846 -6.32584 -45.099 -7.02474 -45.5938 -7.59375C-46.0886 -8.16276 -46.6638 -8.58952 -47.3194 -8.87402C-47.975 -9.15853 -48.711 -9.30078 -49.5274 -9.30078C-50.8386 -9.30078 -51.9766 -8.92969 -52.9414 -8.1875C-53.9063 -7.44531 -54.6546 -6.31966 -55.1865 -4.81055C-55.7185 -3.30143 -55.9844 -1.40885 -55.9844 0.867188C-55.9844 3.11849 -55.7185 5.01107 -55.1865 6.54492C-54.6546 8.07878 -53.9063 9.23535 -52.9414 10.0146C-51.9766 10.7939 -50.8386 11.1836 -49.5274 11.1836C-48.711 11.1836 -47.975 11.0352 -47.3194 10.7383C-46.6638 10.4414 -46.0824 10.0023 -45.5752 9.4209C-45.0681 8.83952 -44.6475 8.11588 -44.3135 7.25C-43.9795 6.38412 -43.7383 5.39453 -43.5899 4.28125C-43.5899 4.28125 -29.8965 6.28516 -29.8965 6.28516C-29.8965 6.28516 -30.7748 10.9795 -31.7891 12.9463C-32.8034 14.9131 -34.1641 16.5954 -35.8711 17.9932C-37.5782 19.3909 -39.6006 20.4609 -41.9385 21.2031C-44.2764 21.9453 -46.8802 22.3164 -49.75 22.3164ZM-24.0332 28.625L-24.0332 17.8633L-3.4004 0.792969C-3.4004 0.792969 -0.864594 -1.41504 0.12499 -2.41699C1.11457 -3.41895 1.87532 -4.45182 2.40722 -5.51562C2.93912 -6.57943 3.20507 -7.76693 3.20507 -9.07812C3.20507 -10.4883 2.90201 -11.6943 2.29589 -12.6963C1.68977 -13.6982 0.860992 -14.4714 -0.190439 -15.0156C-1.24187 -15.5599 -2.4603 -15.832 -3.84571 -15.832C-5.23113 -15.832 -6.44955 -15.5537 -7.50099 -14.9971C-8.55242 -14.4404 -9.36883 -13.6302 -9.9502 -12.5664C-10.5316 -11.5026 -10.8223 -10.1914 -10.8223 -8.63281C-10.8223 -8.63281 -25.0723 -8.63281 -25.0723 -8.63281C-25.0723 -8.63281 -24.2002 -15.8568 -22.4561 -18.6523C-20.7119 -21.4479 -18.2441 -23.6064 -15.0527 -25.1279C-11.8613 -26.6494 -8.12566 -27.4102 -3.84571 -27.4102C0.582672 -27.4102 4.41731 -26.7051 7.65819 -25.2949C10.8991 -23.8848 13.404 -21.8994 15.1728 -19.3389C16.9417 -16.7783 17.8262 -13.7786 17.8262 -10.3398C17.8262 -8.21224 17.387 -6.10319 16.5088 -4.0127C15.6305 -1.9222 14.0534 0.397135 11.7773 2.94531C9.50129 5.49349 6.24804 8.51172 2.01757 12C2.01757 12 -3.17774 16.3047 -3.17774 16.3047L-3.17774 16.6758L18.4199 16.6758L18.4199 28.625L-24.0332 28.625ZM45.8066 29.3672C41.5514 29.3672 37.7786 28.6188 34.4883 27.1221C31.1979 25.6253 28.6126 23.5534 26.7324 20.9063C24.8522 18.2591 23.8874 15.2161 23.8379 11.7773C23.8379 11.7773 38.459 11.7773 38.459 11.7773C38.459 11.7773 38.793 14.14 39.4609 15.0801C40.1289 16.0202 41.0195 16.7438 42.1328 17.251C43.2461 17.7581 44.4707 18.0117 45.8066 18.0117C47.3405 18.0117 48.6826 17.6839 49.833 17.0283C50.9834 16.3727 51.8864 15.4512 52.542 14.2637C53.1976 13.0762 53.5254 11.6784 53.5254 10.0703C53.5254 8.4375 53.1976 7.02116 52.542 5.82129C51.8864 4.62142 50.9834 3.69369 49.833 3.03809C48.6826 2.38249 47.3405 2.05469 45.8066 2.05469C44.1986 2.05469 42.7327 2.43815 41.4092 3.20508C40.0856 3.97201 39.1022 5.02344 38.459 6.35938C38.459 6.35938 25.248 3.76172 25.248 3.76172L27.4004 -26.668L64.584 -26.668L64.584 -14.6445L39.7207 -14.6445L38.6816 -2.47265L38.9785 -2.47265C38.9785 -2.47265 41.3411 -5.54037 43.4688 -6.6289C45.5964 -7.71744 48.0579 -8.26172 50.8535 -8.26172C53.3027 -8.26172 55.5726 -7.82877 57.6631 -6.96289C59.7536 -6.097 61.5719 -4.86621 63.1182 -3.27051C64.6644 -1.6748 65.8643 0.217775 66.7178 2.40723C67.5713 4.59668 67.998 7.00261 67.998 9.625C67.998 13.4844 67.0827 16.8984 65.252 19.8672C63.4212 22.8359 60.8421 25.1615 57.5146 26.8438C54.1872 28.526 50.2845 29.3672 45.8066 29.3672Z"></path>
  <clipPath id="cl_2b3">
    <path d="M229.567 234.856L226.029 157.527L230.746 157.311L234.284 234.64L229.567 234.856ZM231.364 225.933C226.595 226.151 222.456 225.083 218.948 222.73C215.44 220.377 212.686 217.001 210.686 212.602C208.686 208.204 207.549 203.029 207.277 197.078C207.005 191.127 207.664 185.87 209.254 181.307C210.844 176.745 213.279 173.132 216.557 170.468C219.836 167.804 223.86 166.363 228.629 166.145C231.669 166.006 234.444 166.399 236.955 167.325C239.466 168.25 241.676 169.631 243.585 171.468C245.494 173.305 247.048 175.557 248.246 178.224C249.445 180.891 250.252 183.896 250.668 187.24C250.668 187.24 236.294 190.758 236.294 190.758C236.294 190.758 235.711 187.916 235.304 186.773C234.897 185.63 234.414 184.673 233.853 183.901C233.293 183.129 232.656 182.56 231.944 182.194C231.231 181.828 230.442 181.664 229.577 181.704C228.189 181.768 227.007 182.342 226.032 183.426C225.058 184.511 224.337 186.122 223.87 188.258C223.403 190.394 223.243 193.054 223.388 196.237C223.532 199.386 223.935 202.02 224.597 204.139C225.258 206.258 226.125 207.84 227.197 208.883C228.269 209.926 229.499 210.416 230.888 210.352C231.753 210.313 232.523 210.069 233.198 209.622C233.874 209.175 234.461 208.533 234.961 207.695C235.461 206.858 235.861 205.825 236.159 204.598C236.457 203.371 236.65 201.975 236.736 200.411C236.736 200.411 251.368 202.55 251.368 202.55C251.368 202.55 250.738 209.158 249.79 211.958C248.841 214.758 247.507 217.176 245.789 219.214C244.07 221.251 241.996 222.846 239.567 223.997C237.138 225.148 234.404 225.794 231.364 225.933ZM259.008 233.509L258.319 218.459L279.082 193.586C279.082 193.586 281.627 190.375 282.611 188.925C283.595 187.476 284.335 185.995 284.83 184.481C285.326 182.968 285.531 181.294 285.447 179.46C285.357 177.488 284.959 175.816 284.253 174.444C283.547 173.072 282.62 172.031 281.471 171.321C280.322 170.611 279.014 170.289 277.547 170.356C276.079 170.424 274.807 170.872 273.729 171.701C272.651 172.531 271.838 173.703 271.29 175.219C270.742 176.735 270.518 178.583 270.618 180.763C270.618 180.763 255.524 181.453 255.524 181.453C255.524 181.453 255.985 171.308 257.654 167.314C259.323 163.32 261.798 160.181 265.081 157.899C268.365 155.616 272.273 154.371 276.806 154.164C281.497 153.949 285.604 154.75 289.127 156.565C292.65 158.38 295.43 161.035 297.468 164.53C299.505 168.026 300.634 172.178 300.854 176.987C300.99 179.963 300.66 182.934 299.863 185.9C299.067 188.866 297.544 192.186 295.297 195.86C293.049 199.534 289.796 203.913 285.538 208.996C285.538 208.996 280.31 215.268 280.31 215.268L280.334 215.787L303.211 214.741L303.975 231.452L259.008 233.509ZM333.032 231.163C328.524 231.37 324.48 230.506 320.899 228.572C317.318 226.638 314.447 223.866 312.286 220.255C310.126 216.644 308.909 212.435 308.637 207.628C308.637 207.628 324.124 206.919 324.124 206.919C324.124 206.919 324.629 210.207 325.396 211.49C326.164 212.772 327.154 213.741 328.365 214.396C329.577 215.052 330.89 215.347 332.305 215.282C333.93 215.208 335.331 214.685 336.507 213.712C337.684 212.739 338.581 211.407 339.2 209.714C339.818 208.022 340.076 206.051 339.973 203.802C339.869 201.519 339.431 199.554 338.66 197.907C337.889 196.261 336.873 195.007 335.612 194.146C334.352 193.285 332.909 192.892 331.284 192.966C329.581 193.044 328.053 193.651 326.7 194.788C325.347 195.925 324.373 197.443 323.777 199.342C323.777 199.342 309.617 196.349 309.617 196.349L309.951 153.688L349.336 151.886L350.106 168.702L323.77 169.906L323.448 186.979L323.762 186.965C323.762 186.965 326.069 182.56 328.253 180.935C330.437 179.309 333.009 178.429 335.97 178.293C338.565 178.175 340.997 178.67 343.266 179.78C345.536 180.89 347.541 182.523 349.281 184.68C351.021 186.836 352.413 189.425 353.457 192.446C354.501 195.466 355.107 198.811 355.275 202.478C355.521 207.876 354.77 212.695 353.021 216.935C351.272 221.176 348.689 224.553 345.272 227.067C341.855 229.581 337.775 230.947 333.032 231.163Z"></path>
  </clipPath>
  <g clip-path="url(#cl_2b3)">
    <path fill="#F2F1F1" transform="matrix(1.02116 0.415042 -0.288592 1.33641 259.163 238.265)" d="M-170.753 -28.5017L169.944 -28.5017L169.944 28.5017L-170.753 28.5017L-170.753 -28.5017Z"></path>
    <path fill="#F2F1F1" transform="matrix(1.02116 0.415042 -0.288592 1.33641 246.107 289.315)" d="M-170.753 -5.22017L169.944 -5.22017L169.944 5.22016L-170.753 5.22016L-170.753 -5.22017Z"></path>
  </g>
  <path fill="#8E8B8B" transform="matrix(1.39854 -0.0639733 0.0639733 1.39854 269.131 24.7538)" d="M-2.86102e-06 0C-2.86102e-06 0 -13.7278 0 -18.3375 0C-61.7652 1.3037 -115.945 32.2772 -115.945 128C-115.945 223.723 -52.3254 256 -19 256C-14.3903 256 -1.90735e-06 256 -1.90735e-06 256C-23.068 256 -96.9451 223.723 -96.9451 128C-96.9451 32.2772 -23.068 0 -2.86102e-06 0Z"></path>
  <clipPath id="cl_2b5">
    <path d="M269.131 24.7538C269.131 24.7538 249.932 25.632 243.485 25.9269C182.833 30.5284 109.042 77.312 115.166 211.184C121.29 345.056 212.329 386.127 258.936 383.995C265.383 383.7 285.508 382.779 285.508 382.779C253.246 384.255 147.862 343.84 141.738 209.968C135.614 76.0965 236.869 26.2295 269.131 24.7538Z"></path>
  </clipPath>
  <g clip-path="url(#cl_2b5)">
    <path fill="#ACABAB" transform="matrix(1.05923 -0.0484523 0.0639733 1.39854 189.692 286.816)" d="M-105.5 -83.8575L105 -83.8575L105 8.22234L-105.5 8.22234L-105.5 -83.8575Z"></path>
    <path fill="#D6D6D6" transform="matrix(1.05923 -0.0484523 0.0639733 1.39854 179.014 249.51)" d="M-105.5 -6.36154L105 -6.36154L105 6.08463L-105.5 6.08463L-105.5 -6.36154Z"></path>
    <path fill="#D6D6D6" transform="matrix(1.06224 -0.0485901 0.0637919 1.39457 181.146 191.714)" d="M-175.044 -29.3672L174.214 -29.3672L174.214 29.3672L-175.044 29.3672L-175.044 -29.3672Z"></path>
  </g>
  <path fill="#A5A5A5" transform="matrix(1.20391 0 0 0.24239 272.419 478.039)" d="M-0.25 -87.9999C55.945 -87.9999 101.5 -48.601 101.5 6.10352e-05C101.5 48.6011 55.945 88.0001 -0.25 88.0001C-56.445 88.0001 -102 48.6011 -102 6.10352e-05C-102 -48.601 -56.445 -87.9999 -0.25 -87.9999Z" style="mix-blend-mode: multiply"></path>
</svg>