<?xml version="1.0" encoding="utf-8"?>
<svg xmlns="http://www.w3.org/2000/svg" xmlns:xlink="http://www.w3.org/1999/xlink" width="512" height="512">
  <path fill="#312F2F" transform="matrix(1.01822 -0.144099 0.196174 1.38619 250.982 210.249)" d="M1.90735e-06 -128C70.6925 -128 128 -70.6925 128 -9.53674e-07C128 70.6925 70.6925 128 -1.90735e-06 128C-70.6925 128 -128 70.6925 -128 9.53674e-07C-128 -70.6925 -70.6925 -128 1.90735e-06 -128Z"></path>
  <path fill="none" stroke="black" stroke-width="7" stroke-miterlimit="4" transform="translate(256 256)" d="M-3.79094 -226.911C68.1894 -237.097 137.783 -165.916 151.651 -67.9231C165.519 30.0698 118.41 117.767 46.4296 127.953C-25.5508 138.14 -95.1446 66.9591 -109.013 -31.0339C-122.881 -129.027 -75.7713 -216.724 -3.79094 -226.911Z"></path>
  <path fill="none" stroke="black" stroke-width="7" stroke-linejoin="round" transform="translate(256 256)" d="M-3.79093 -226.911C-3.79093 -226.911 -22.2464 -224.299 -29.2378 -223.309C-87.3658 -213.24 -154.128 -159.996 -135.35 -27.3066C-116.572 105.383 -24.7104 138.021 20.092 131.681C27.0834 130.691 46.4296 127.953 46.4296 127.954C45.6285 128.067 44.7776 128.157 43.8797 128.222"></path>
  <path fill="#DEDEDE" transform="matrix(1.01822 -0.144099 0.196174 1.38619 277.319 206.521)" d="M0 -128C70.6925 -128 128 -70.6925 128 -9.53674e-07C128 70.6925 70.6924 128 -3.8147e-06 128C-70.6925 128 -128 70.6925 -128 9.53674e-07C-128 -70.6925 -70.6925 -128 0 -128Z"></path>
  <clipPath id="cl_b2">
    <path d="M252.209 29.0895C324.189 18.9028 393.783 90.0839 407.651 188.077C421.519 286.07 374.41 373.767 302.43 383.953C230.449 394.14 160.855 322.959 146.987 224.966C133.119 126.973 180.229 39.2762 252.209 29.0895Z"></path>
  </clipPath>
  <g clip-path="url(#cl_b2)">
    <path fill="#F2F1F1" transform="matrix(1.026 0.320667 -0.150261 1.35626 284.846 245.026)" d="M-170.753 -28.5017L169.944 -28.5017L169.944 28.5017L-170.753 28.5017L-170.753 -28.5017Z"></path>
    <path fill="#F2F1F1" transform="matrix(1.026 0.320667 -0.150261 1.35626 277.131 296.924)" d="M-170.753 -5.22017L169.944 -5.22017L169.944 5.22016L-170.753 5.22015L-170.753 -5.22017Z"></path>
  </g>
  <path fill="#8B8B8B" transform="matrix(1.01822 -0.144099 0.196174 1.38619 283.742 204.199)" d="M0.250001 -87.5C51.4744 -87.5 93 -48.4369 93 -0.250001C93 47.9369 51.4744 87 0.249999 87C-50.9744 87 -92.5 47.9369 -92.5 -0.249999C-92.5 -48.4369 -50.9744 -87.5 0.250001 -87.5Z"></path>
  <path fill="#B0AFAF" transform="matrix(1.01822 -0.144099 0.196174 1.38619 277.319 206.521)" d="M-6.25849e-07 -86C47.4965 -86 86 -47.4965 86 -6.4075e-07C86 47.4965 47.4965 86 -3.18885e-06 86C-47.4965 86 -86 47.4965 -86 6.4075e-07C-86 -47.4965 -47.4965 -86 -6.25849e-07 -86Z"></path>
  <path fill="#8B8B8B" transform="matrix(1.01822 -0.144099 0.196174 1.38619 277.044 200.905)" d="M-52.3281 27.625L-52.3281 -27.668L-46.756 -30.4056L-46.7825 24.7561L-42.4192 24.6238L-47.1315 27.6684L-52.3281 27.625ZM-50.25 21.3164C-54.7526 21.3164 -58.6058 20.4196 -61.8096 18.626C-65.0133 16.8324 -67.4626 14.3337 -69.1572 11.1299C-70.8519 7.92611 -71.6992 4.19661 -71.6992 -0.0585976C-71.6992 -4.31381 -70.8519 -8.0433 -69.1572 -11.2471C-67.4626 -14.4509 -65.0133 -16.9495 -61.8096 -18.7432C-58.6058 -20.5368 -54.7526 -21.4336 -50.25 -21.4336C-47.3802 -21.4336 -44.7826 -21.0625 -42.457 -20.3203C-40.1315 -19.5781 -38.109 -18.5205 -36.3896 -17.1475C-34.6702 -15.7744 -27.78 -10.4694 -25.0591 -8.68546C-26.0599 -7.96244 -28.21 -6.9054 -30.3965 -5.66211C-30.3965 -5.66211 -44.0898 -3.6211 -44.0898 -3.6211C-44.0898 -3.6211 -44.5166 -5.6683 -44.8506 -6.49707C-45.1846 -7.32585 -45.599 -8.02475 -46.0938 -8.59375C-46.5885 -9.16276 -47.1637 -9.58952 -47.8193 -9.87403C-48.4749 -10.1585 -49.2109 -10.3008 -50.0273 -10.3008C-51.3385 -10.3008 -52.4766 -9.92969 -53.4414 -9.1875C-54.4062 -8.44532 -55.1546 -7.31967 -55.6865 -5.81055C-56.2184 -4.30144 -56.4844 -2.40886 -56.4844 -0.132816C-56.4844 2.11849 -56.2184 4.01107 -55.6865 5.54492C-55.1546 7.07877 -54.4062 8.23535 -53.4414 9.01465C-52.4766 9.79394 -51.3385 10.1836 -50.0273 10.1836C-49.2109 10.1836 -48.4749 10.0352 -47.8193 9.73828C-47.1637 9.4414 -46.5824 9.00228 -46.0752 8.4209C-45.568 7.83952 -45.8968 6.99337 -44.8135 6.25C-43.7302 5.50662 -38.8902 1.52308 -38.7417 0.409794C-38.7417 0.409794 -30.3965 5.28515 -30.3965 5.28515C-30.3965 5.28515 -31.2747 9.97949 -32.2891 11.9463C-33.3034 13.9131 -34.6641 15.5954 -36.3711 16.9932C-38.0781 18.3909 -40.1006 19.4609 -42.4385 20.2031C-44.7764 20.9453 -47.3802 21.3164 -50.25 21.3164ZM-24.5332 27.625L-24.5332 16.8633L-3.90039 -0.207035C-3.90039 -0.207035 -1.36458 -2.41504 -0.375 -3.417C0.614584 -4.41895 1.37533 -5.45182 1.90723 -6.51563C2.43913 -7.57943 2.70508 -8.76693 2.70508 -10.0781C2.70508 -11.4883 2.40202 -12.6943 1.7959 -13.6963C1.18978 -14.6982 0.361002 -15.4714 -0.69043 -16.0156C-1.74186 -16.5599 -2.96029 -16.832 -4.3457 -16.832C-5.73112 -16.832 -6.94954 -16.5537 -8.00098 -15.9971C-9.05241 -15.4404 -6.2922 -13.7058 -5.868 -12.6284C-7.10779 -11.907 -9.37628 -10.5827 -11.3223 -9.63282C-11.3223 -9.63282 -25.5723 -9.63282 -25.5723 -9.63282C-25.5723 -9.63282 -24.7002 -16.8568 -22.9561 -19.6523C-21.2119 -22.4479 -18.7441 -24.6065 -15.5527 -26.1279C-12.3613 -27.6494 -8.62565 -28.4102 -4.3457 -28.4102C0.0826817 -28.4102 3.91732 -27.7051 7.1582 -26.2949C10.3991 -24.8848 12.904 -22.8994 14.6729 -20.3389C16.4417 -17.7783 17.3262 -14.7786 17.3262 -11.3398C17.3262 -9.21225 16.887 -7.10319 16.0088 -5.0127C15.1305 -2.9222 13.5534 -0.602869 11.2773 1.94531C9.0013 4.49349 5.74805 7.51172 1.51758 11C1.51758 11 -3.67773 15.3047 -3.67773 15.3047L-3.67773 15.6758L17.9199 15.6758L23.3601 24.6527L17.9199 27.625L-24.5332 27.625ZM45.3066 28.3672C41.0514 28.3672 37.2786 27.6188 33.9883 26.1221C30.6979 24.6253 28.1126 22.5534 26.2324 19.9062C24.3522 17.2591 23.3874 14.2161 23.3379 10.7773C23.3379 10.7773 28.8025 7.82546 28.8025 7.82546L37.959 10.7773C37.959 10.7773 38.293 13.14 38.9609 14.0801C39.6289 15.0202 40.5195 15.7438 41.6328 16.251C42.7461 16.7581 43.9707 17.0117 45.3066 17.0117C46.8405 17.0117 48.1826 16.6839 49.333 16.0283C50.4834 15.3727 51.3864 14.4512 52.042 13.2637C52.6976 12.0762 53.0254 10.6784 53.0254 9.07031C53.0254 7.4375 52.6976 6.02115 52.042 4.82129C51.3864 3.62141 50.4834 2.69368 49.333 2.03808C48.1826 1.38248 46.8405 1.05468 45.3066 1.05468C43.6986 1.05468 43.4423 2.31533 43.4423 2.31533C43.4423 2.31533 38.6022 4.02343 37.959 5.35937C37.959 5.35937 24.748 2.76171 24.748 2.76171L26.9004 -27.668L32.366 -30.6324L64.084 -27.668L69.5014 -18.6129L64.084 -15.6445L39.2207 -15.6445L38.1816 -3.47266L38.4785 -3.47266C38.4785 -3.47266 40.8411 -6.54037 42.9688 -7.62891C45.0964 -8.71745 47.5579 -9.26172 50.3535 -9.26172C52.8027 -9.26172 55.0726 -8.82878 57.1631 -7.9629C59.2536 -7.09701 61.0719 -5.86622 62.6182 -4.27051C64.1644 -2.67481 65.3643 -0.782232 66.2178 1.40722C67.0713 3.59667 67.498 6.0026 67.498 8.625C67.498 12.4844 66.5827 15.8984 64.752 18.8672C62.9212 21.8359 60.3421 24.1615 57.0146 25.8437C53.6872 27.526 49.7845 28.3672 45.3066 28.3672Z"></path>
  <path fill="#DEDEDE" transform="matrix(1.01822 -0.144099 0.196174 1.38619 281.35 194.639)" d="M-51.8282 28.625L-51.8282 -26.668L-47.375 -26.668L-47.375 28.625L-51.8282 28.625ZM-49.75 22.3164C-54.2526 22.3164 -58.1058 21.4196 -61.3096 19.626C-64.5134 17.8324 -66.9626 15.3337 -68.6573 12.1299C-70.3519 8.92611 -71.1992 5.19662 -71.1992 0.941406C-71.1992 -3.3138 -70.3519 -7.0433 -68.6573 -10.2471C-66.9626 -13.4508 -64.5134 -15.9495 -61.3096 -17.7432C-58.1058 -19.5368 -54.2526 -20.4336 -49.75 -20.4336C-46.8802 -20.4336 -44.2826 -20.0625 -41.9571 -19.3203C-39.6315 -18.5781 -37.6091 -17.5205 -35.8897 -16.1475C-34.1703 -14.7744 -32.8034 -13.1169 -31.7891 -11.1748C-30.7748 -9.23275 -30.1439 -7.06185 -29.8965 -4.66211C-29.8965 -4.66211 -43.5899 -2.62109 -43.5899 -2.62109C-43.5899 -2.62109 -44.0166 -4.6683 -44.3506 -5.49707C-44.6846 -6.32584 -45.099 -7.02474 -45.5938 -7.59375C-46.0886 -8.16276 -46.6638 -8.58952 -47.3194 -8.87402C-47.975 -9.15853 -48.711 -9.30078 -49.5274 -9.30078C-50.8386 -9.30078 -51.9766 -8.92969 -52.9414 -8.1875C-53.9063 -7.44531 -54.6547 -6.31966 -55.1866 -4.81055C-55.7185 -3.30143 -55.9844 -1.40885 -55.9844 0.867188C-55.9844 3.11849 -55.7185 5.01107 -55.1866 6.54492C-54.6547 8.07878 -53.9063 9.23535 -52.9414 10.0147C-51.9766 10.7939 -50.8386 11.1836 -49.5274 11.1836C-48.711 11.1836 -47.975 11.0352 -47.3194 10.7383C-46.6638 10.4414 -46.0824 10.0023 -45.5752 9.4209C-45.0681 8.83952 -44.6475 8.11589 -44.3135 7.25C-43.9795 6.38412 -43.7383 5.39453 -43.5899 4.28125C-43.5899 4.28125 -29.8965 6.28516 -29.8965 6.28516C-29.8965 6.28516 -30.7748 10.9795 -31.7891 12.9463C-32.8034 14.9131 -34.1641 16.5954 -35.8711 17.9932C-37.5782 19.391 -39.6006 20.4609 -41.9385 21.2031C-44.2764 21.9453 -46.8802 22.3164 -49.75 22.3164ZM-24.0332 28.625L-24.0332 17.8633L-3.4004 0.792969C-3.4004 0.792969 -0.864595 -1.41504 0.124989 -2.41699C1.11457 -3.41895 1.87531 -4.45182 2.40722 -5.51562C2.93912 -6.57943 3.20507 -7.76693 3.20507 -9.07812C3.20507 -10.4883 2.90201 -11.6943 2.29589 -12.6963C1.68977 -13.6982 0.860991 -14.4714 -0.190441 -15.0156C-1.24187 -15.5599 -2.4603 -15.832 -3.84571 -15.832C-5.23113 -15.832 -6.44956 -15.5537 -7.50099 -14.9971C-8.55242 -14.4404 -9.36883 -13.6302 -9.95021 -12.5664C-10.5316 -11.5026 -10.8223 -10.1914 -10.8223 -8.63281C-10.8223 -8.63281 -25.0723 -8.63281 -25.0723 -8.63281C-25.0723 -8.63281 -24.2002 -15.8568 -22.4561 -18.6523C-20.7119 -21.4479 -18.2442 -23.6064 -15.0527 -25.1279C-11.8613 -26.6494 -8.12566 -27.4102 -3.84571 -27.4102C0.58267 -27.4102 4.41731 -26.7051 7.65819 -25.2949C10.8991 -23.8848 13.404 -21.8994 15.1728 -19.3389C16.9417 -16.7783 17.8262 -13.7786 17.8262 -10.3398C17.8262 -8.21224 17.387 -6.10319 16.5088 -4.0127C15.6305 -1.9222 14.0534 0.397135 11.7773 2.94531C9.50129 5.49349 6.24804 8.51172 2.01757 12C2.01757 12 -3.17775 16.3047 -3.17775 16.3047L-3.17775 16.6758L18.4199 16.6758L18.4199 28.625L-24.0332 28.625ZM45.8066 29.3672C41.5514 29.3672 37.7786 28.6188 34.4883 27.1221C31.1979 25.6253 28.6126 23.5534 26.7324 20.9063C24.8522 18.2591 23.8874 15.2161 23.8379 11.7773C23.8379 11.7773 38.459 11.7773 38.459 11.7773C38.459 11.7773 38.793 14.14 39.4609 15.0801C40.1289 16.0202 41.0195 16.7438 42.1328 17.251C43.2461 17.7581 44.4707 18.0117 45.8066 18.0117C47.3405 18.0117 48.6826 17.6839 49.833 17.0283C50.9834 16.3727 51.8864 15.4512 52.542 14.2637C53.1976 13.0762 53.5254 11.6784 53.5254 10.0703C53.5254 8.4375 53.1976 7.02116 52.542 5.82129C51.8864 4.62142 50.9834 3.69369 49.833 3.03809C48.6826 2.38249 47.3405 2.05469 45.8066 2.05469C44.1986 2.05469 42.7327 2.43815 41.4092 3.20508C40.0856 3.97201 39.1022 5.02344 38.459 6.35938C38.459 6.35938 25.248 3.76172 25.248 3.76172L27.4004 -26.668L64.584 -26.668L64.584 -14.6445L39.7207 -14.6445L38.6816 -2.47266L38.9785 -2.47266C38.9785 -2.47266 41.3411 -5.54037 43.4688 -6.62891C45.5964 -7.71745 48.0579 -8.26172 50.8535 -8.26172C53.3027 -8.26172 55.5726 -7.82877 57.6631 -6.96289C59.7536 -6.097 61.5719 -4.86621 63.1182 -3.27051C64.6644 -1.6748 65.8643 0.217773 66.7178 2.40723C67.5713 4.59668 67.998 7.00261 67.998 9.625C67.998 13.4844 67.0827 16.8984 65.252 19.8672C63.4212 22.8359 60.8421 25.1615 57.5146 26.8438C54.1872 28.526 50.2845 29.3672 45.8066 29.3672Z"></path>
  <clipPath id="cl_b4">
    <path d="M234.193 241.787L223.346 165.141L227.88 164.499L238.727 241.146L234.193 241.787ZM235.072 232.743C230.487 233.392 226.388 232.704 222.774 230.679C219.16 228.655 216.176 225.544 213.822 221.347C211.468 217.15 209.873 212.103 209.038 206.204C208.204 200.306 208.335 195.014 209.432 190.329C210.529 185.643 212.533 181.827 215.443 178.879C218.353 175.931 222.101 174.132 226.685 173.484C229.607 173.07 232.325 173.21 234.839 173.904C237.352 174.598 239.619 175.772 241.639 177.428C243.659 179.083 245.376 181.184 246.79 183.73C248.203 186.276 249.272 189.194 249.994 192.485C249.994 192.485 236.452 197.287 236.452 197.287C236.452 197.287 235.616 194.511 235.113 193.41C234.61 192.31 234.051 191.401 233.436 190.683C232.821 189.966 232.151 189.457 231.428 189.157C230.704 188.857 229.927 188.766 229.096 188.884C227.761 189.073 226.675 189.751 225.838 190.919C225.001 192.087 224.46 193.755 224.214 195.923C223.969 198.092 224.069 200.754 224.516 203.909C224.958 207.03 225.6 209.615 226.442 211.664C227.285 213.714 228.274 215.209 229.409 216.15C230.544 217.092 231.779 217.468 233.114 217.279C233.946 217.161 234.666 216.849 235.275 216.343C235.885 215.837 236.39 215.145 236.793 214.266C237.195 213.387 237.481 212.323 237.652 211.075C237.822 209.826 237.873 208.42 237.806 206.855C237.806 206.855 252.142 207.66 252.142 207.66C252.142 207.66 252.169 214.294 251.522 217.166C250.875 220.039 249.819 222.567 248.355 224.75C246.891 226.934 245.042 228.709 242.807 230.074C240.572 231.44 237.994 232.33 235.072 232.743ZM262.495 237.782L260.383 222.864L278.043 196.229C278.043 196.229 280.192 192.803 281.003 191.271C281.814 189.74 282.386 188.198 282.719 186.647C283.052 185.096 283.09 183.411 282.833 181.594C282.556 179.639 282.011 178.011 281.197 176.709C280.383 175.408 279.388 174.455 278.211 173.852C277.033 173.249 275.739 173.048 274.329 173.247C272.918 173.447 271.732 174.008 270.77 174.932C269.809 175.855 269.137 177.095 268.753 178.654C268.37 180.212 268.331 182.072 268.637 184.232C268.637 184.232 254.128 186.286 254.128 186.286C254.128 186.286 253.598 176.146 254.826 172.02C256.053 167.893 258.143 164.545 261.094 161.977C264.045 159.408 267.699 157.815 272.057 157.198C276.566 156.56 280.609 156.985 284.186 158.472C287.762 159.96 290.702 162.351 293.006 165.646C295.309 168.94 296.798 172.971 297.473 177.738C297.89 180.687 297.857 183.674 297.372 186.698C296.888 189.723 295.737 193.165 293.92 197.025C292.102 200.885 289.382 205.538 285.759 210.983C285.759 210.983 281.313 217.699 281.313 217.699L281.386 218.213L303.377 215.101L305.721 231.665L262.495 237.782ZM333.752 228.747C329.42 229.36 325.431 228.867 321.787 227.266C318.143 225.665 315.105 223.166 312.671 219.767C310.237 216.369 308.658 212.29 307.933 207.53C307.933 207.53 322.82 205.423 322.82 205.423C322.82 205.423 323.624 208.65 324.488 209.857C325.353 211.064 326.402 211.939 327.635 212.481C328.868 213.024 330.164 213.199 331.525 213.006C333.087 212.785 334.389 212.138 335.432 211.063C336.474 209.988 337.213 208.581 337.647 206.84C338.082 205.1 338.142 203.115 337.826 200.886C337.506 198.622 336.894 196.706 335.991 195.138C335.088 193.569 333.987 192.413 332.687 191.67C331.387 190.927 329.956 190.666 328.394 190.887C326.757 191.119 325.34 191.861 324.142 193.115C322.945 194.369 322.15 195.968 321.757 197.913C321.757 197.913 307.796 196.216 307.796 196.216L304.018 153.724L341.879 148.366L344.238 165.033L318.922 168.616L320.251 185.638L320.554 185.595C320.554 185.595 322.358 181.002 324.31 179.187C326.263 177.371 328.663 176.262 331.509 175.859C334.003 175.506 336.399 175.779 338.698 176.678C340.996 177.577 343.089 179.022 344.977 181.011C346.864 183 348.457 185.45 349.756 188.362C351.054 191.274 351.961 194.548 352.475 198.183C353.232 203.533 352.97 208.397 351.688 212.776C350.407 217.155 348.237 220.751 345.179 223.562C342.121 226.374 338.312 228.102 333.752 228.747Z"></path>
  </clipPath>
  <g clip-path="url(#cl_b4)">
    <path fill="#F2F1F1" transform="matrix(1.026 0.320667 -0.150261 1.35626 263.273 237.72)" d="M-170.753 -28.5017L169.944 -28.5017L169.944 28.5017L-170.753 28.5017L-170.753 -28.5017Z"></path>
    <path fill="#F2F1F1" transform="matrix(1.026 0.320667 -0.150261 1.35626 255.571 289.712)" d="M-170.753 -5.22017L169.944 -5.22017L169.944 5.22016L-170.753 5.22015L-170.753 -5.22017Z"></path>
  </g>
  <path fill="#8E8B8B" transform="matrix(1.38619 -0.196174 0.196174 1.38619 252.209 29.0895)" d="M2.6226e-06 0C2.6226e-06 0 -13.3138 0 -18.3575 0C-60.4756 1.30368 -113.022 32.2772 -113.022 128C-113.022 223.723 -51.3206 256 -19 256C-13.9564 256 0 256 -7.62939e-06 256C-22.3724 256 -94.0218 223.723 -94.0218 128C-94.0219 32.2772 -22.3724 0 2.6226e-06 0Z"></path>
  <clipPath id="cl_b6">
    <path d="M252.209 29.0895C252.209 29.0895 233.754 31.7013 226.762 32.6907C168.634 42.7604 101.872 96.0036 120.65 228.693C139.428 361.383 231.29 394.021 276.092 387.681C283.083 386.691 302.43 383.953 302.43 383.953C271.417 388.342 165.766 357.656 146.987 224.966C128.209 92.2763 221.197 33.4784 252.209 29.0895Z"></path>
  </clipPath>
  <g clip-path="url(#cl_b6)">
    <path fill="#ACABAB" transform="matrix(1.01822 -0.144099 0.196174 1.38619 199.886 297.225)" d="M-105.5 -85.3286L105 -85.3286L105 9.69338L-105.5 9.69338L-105.5 -85.3286Z"></path>
    <path fill="#D6D6D6" transform="matrix(1.01822 -0.144099 0.196174 1.38619 185.241 255.777)" d="M-105.5 -6.32265L105 -6.32265L105 5.96794L-105.5 5.96794L-105.5 -6.32265Z"></path>
    <path fill="#D6D6D6" transform="matrix(1.02111 -0.144508 0.195618 1.38226 181.812 198.517)" d="M-175.044 -29.0029L174.214 -29.0029L174.214 29.0029L-175.044 29.0029L-175.044 -29.0029Z"></path>
  </g>
  <path fill="#A5A5A5" transform="matrix(1.14882 0 0 0.249186 272.419 478.039)" d="M-0.249999 -88C55.945 -88 101.5 -48.6011 101.5 0C101.5 48.6011 55.945 88 -0.249999 88C-56.445 88 -102 48.6011 -102 0C-102 -48.6011 -56.445 -88 -0.249999 -88Z" style="mix-blend-mode: multiply"></path>
</svg>