<?xml version="1.0" encoding="utf-8"?>
<svg xmlns="http://www.w3.org/2000/svg" xmlns:xlink="http://www.w3.org/1999/xlink" width="512" height="512">
  <path fill="#312F2F" transform="matrix(0.764451 -0.090962 0.165419 1.39019 250.906 231.94)" d="M0 -128C70.6924 -128 128 -70.6925 128 0C128 70.6925 70.6924 128 0 128C-70.6924 128 -128 70.6925 -128 0C-128 -70.6925 -70.6924 -128 0 -128Z"></path>
  <path fill="none" stroke="black" stroke-width="7" stroke-miterlimit="4" transform="translate(256 256)" d="M0.145691 -205.148C54.1866 -211.578 107.475 -137.122 119.169 -38.8462C130.863 59.43 96.5339 144.311 42.493 150.742C-11.548 157.172 -64.8365 82.7162 -76.5304 -15.5599C-88.2243 -113.836 -53.8952 -198.717 0.145691 -205.148Z"></path>
  <path fill="none" stroke="black" stroke-width="7" stroke-linejoin="round" transform="translate(256 256)" d="M0.145689 -205.148C0.145689 -205.148 -13.7102 -203.499 -25.5993 -202.084C-69.2166 -195.056 -118.778 -145.49 -102.944 -12.417C-87.1097 120.656 -17.5571 157.887 16.0793 153.885C27.9684 152.47 42.493 150.742 42.493 150.742C42.3615 150.757 42.2282 150.772 42.0931 150.785"></path>
  <path fill="#DEDEDE" transform="matrix(0.764451 -0.090962 0.165419 1.39019 277.319 228.797)" d="M-3.8147e-06 -128C70.6924 -128 128 -70.6925 128 0C128 70.6925 70.6924 128 -3.8147e-06 128C-70.6924 128 -128 70.6925 -128 0C-128 -70.6925 -70.6924 -128 -3.8147e-06 -128Z"></path>
  <clipPath id="cl_1bc">
    <path d="M256.146 50.8522C310.187 44.4219 363.475 118.878 375.169 217.154C386.863 315.43 352.534 400.311 298.493 406.742C244.452 413.172 191.163 338.716 179.47 240.44C167.776 142.164 202.105 57.2826 256.146 50.8522Z"></path>
  </clipPath>
  <g clip-path="url(#cl_1bc)">
    <path fill="#F2F1F1" transform="matrix(0.776268 0.372156 -0.0956881 1.34254 278.609 226.601)" d="M-170.753 -28.5017L169.944 -28.5017L169.944 28.5017L-170.753 28.5017L-170.753 -28.5017Z"></path>
    <path fill="#F2F1F1" transform="matrix(0.776268 0.372156 -0.0956881 1.34254 273.472 277.909)" d="M-170.753 -5.22017L169.944 -5.22017L169.944 5.22016L-170.753 5.22016L-170.753 -5.22017Z"></path>
  </g>
  <path fill="#8B8B8B" transform="matrix(0.764451 -0.090962 0.165419 1.39019 282.123 226.815)" d="M0.25 -87.5C51.4744 -87.5 93 -48.4368 93 -0.25C93 47.9368 51.4744 87 0.25 87C-50.9744 87 -92.5 47.9368 -92.5 -0.25C-92.5 -48.4368 -50.9744 -87.5 0.25 -87.5Z"></path>
  <path fill="#B0AFAF" transform="matrix(0.764451 -0.090962 0.165419 1.39019 277.319 228.797)" d="M-3.8147e-06 -86C47.4965 -86 86 -47.4965 86 0C86 47.4965 47.4965 86 -3.8147e-06 86C-47.4965 86 -86 47.4965 -86 0C-86 -47.4965 -47.4965 -86 -3.8147e-06 -86Z"></path>
  <path fill="#8B8B8B" transform="matrix(0.764451 -0.090962 0.165419 1.39019 277.04 223.191)" d="M-52.3281 27.625L-52.3281 -27.668L-46.756 -30.4056L-46.7825 24.7561L-42.4192 24.6238L-47.1315 27.6684L-52.3281 27.625ZM-50.25 21.3164C-54.7526 21.3164 -58.6058 20.4196 -61.8096 18.626C-65.0134 16.8324 -67.4626 14.3337 -69.1572 11.1299C-70.8519 7.92611 -71.6992 4.19662 -71.6992 -0.0585938C-71.6992 -4.3138 -70.8519 -8.0433 -69.1572 -11.2471C-67.4626 -14.4508 -65.0134 -16.9495 -61.8096 -18.7432C-58.6058 -20.5368 -54.7526 -21.4336 -50.25 -21.4336C-47.3802 -21.4336 -44.7826 -21.0625 -42.457 -20.3203C-40.1315 -19.5781 -38.1091 -18.5205 -36.3897 -17.1475C-34.6702 -15.7744 -27.78 -10.4693 -25.0591 -8.68546C-26.0599 -7.96244 -28.21 -6.9054 -30.3965 -5.66211C-30.3965 -5.66211 -44.0898 -3.62109 -44.0898 -3.62109C-44.0898 -3.62109 -44.5166 -5.6683 -44.8506 -6.49707C-45.1846 -7.32584 -45.599 -8.02474 -46.0938 -8.59375C-46.5885 -9.16276 -47.1637 -9.58952 -47.8193 -9.87402C-48.4749 -10.1585 -49.2109 -10.3008 -50.0273 -10.3008C-51.3385 -10.3008 -52.4766 -9.92969 -53.4414 -9.1875C-54.4062 -8.44531 -55.1546 -7.31966 -55.6865 -5.81055C-56.2184 -4.30143 -56.4844 -2.40885 -56.4844 -0.132812C-56.4844 2.11849 -56.2184 4.01107 -55.6865 5.54492C-55.1546 7.07878 -54.4062 8.23535 -53.4414 9.01465C-52.4766 9.79395 -51.3385 10.1836 -50.0273 10.1836C-49.2109 10.1836 -48.4749 10.0352 -47.8193 9.73828C-47.1637 9.44141 -46.5824 9.00228 -46.0752 8.4209C-45.568 7.83952 -45.8968 6.99338 -44.8135 6.25C-43.7302 5.50662 -38.8902 1.52308 -38.7417 0.409798C-38.7417 0.409798 -30.3965 5.28516 -30.3965 5.28516C-30.3965 5.28516 -31.2747 9.97949 -32.2891 11.9463C-33.3034 13.9131 -34.6641 15.5954 -36.3711 16.9932C-38.0781 18.3909 -40.1006 19.4609 -42.4385 20.2031C-44.7764 20.9453 -47.3802 21.3164 -50.25 21.3164ZM-24.5332 27.625L-24.5332 16.8633L-3.90039 -0.207031C-3.90039 -0.207031 -1.36458 -2.41504 -0.375 -3.41699C0.614584 -4.41895 1.37533 -5.45182 1.90723 -6.51562C2.43913 -7.57943 2.70508 -8.76693 2.70508 -10.0781C2.70508 -11.4883 2.40202 -12.6943 1.7959 -13.6963C1.18978 -14.6982 0.361002 -15.4714 -0.69043 -16.0156C-1.74186 -16.5599 -2.96029 -16.832 -4.3457 -16.832C-5.73112 -16.832 -6.94954 -16.5537 -8.00098 -15.9971C-9.05241 -15.4404 -6.2922 -13.7058 -5.868 -12.6284C-7.10779 -11.907 -9.37628 -10.5827 -11.3223 -9.63281C-11.3223 -9.63281 -25.5723 -9.63281 -25.5723 -9.63281C-25.5723 -9.63281 -24.7002 -16.8568 -22.9561 -19.6523C-21.2119 -22.4479 -18.7441 -24.6064 -15.5527 -26.1279C-12.3613 -27.6494 -8.62565 -28.4102 -4.3457 -28.4102C0.0826817 -28.4102 3.91732 -27.7051 7.1582 -26.2949C10.3991 -24.8848 12.904 -22.8994 14.6728 -20.3389C16.4417 -17.7783 17.3262 -14.7786 17.3262 -11.3398C17.3262 -9.21224 16.887 -7.10319 16.0088 -5.0127C15.1305 -2.9222 13.5534 -0.602865 11.2773 1.94531C9.0013 4.49349 5.74804 7.51172 1.51758 11C1.51758 11 -3.67773 15.3047 -3.67773 15.3047L-3.67773 15.6758L17.9199 15.6758L23.3601 24.6527L17.9199 27.625L-24.5332 27.625ZM45.3066 28.3672C41.0514 28.3672 37.2786 27.6188 33.9883 26.1221C30.6979 24.6253 28.1126 22.5534 26.2324 19.9062C24.3522 17.2591 23.3874 14.2161 23.3379 10.7773C23.3379 10.7773 28.8025 7.82547 28.8025 7.82547L37.959 10.7773C37.959 10.7773 38.293 13.14 38.9609 14.0801C39.6289 15.0202 40.5195 15.7438 41.6328 16.251C42.7461 16.7581 43.9707 17.0117 45.3066 17.0117C46.8405 17.0117 48.1826 16.6839 49.333 16.0283C50.4834 15.3727 51.3864 14.4512 52.042 13.2637C52.6976 12.0762 53.0254 10.6784 53.0254 9.07031C53.0254 7.4375 52.6976 6.02116 52.042 4.82129C51.3864 3.62142 50.4834 2.69369 49.333 2.03809C48.1826 1.38249 46.8405 1.05469 45.3066 1.05469C43.6986 1.05469 43.4422 2.31534 43.4422 2.31534C43.4422 2.31534 38.6022 4.02344 37.959 5.35938C37.959 5.35938 24.748 2.76172 24.748 2.76172L26.9004 -27.668L32.366 -30.6324L64.084 -27.668L69.5014 -18.6129L64.084 -15.6445L39.2207 -15.6445L38.1816 -3.47266L38.4785 -3.47266C38.4785 -3.47266 40.8411 -6.54037 42.9687 -7.62891C45.0963 -8.71745 47.5579 -9.26172 50.3535 -9.26172C52.8027 -9.26172 55.0726 -8.82877 57.1631 -7.96289C59.2536 -7.097 61.0719 -5.86621 62.6182 -4.27051C64.1644 -2.6748 65.3643 -0.782227 66.2178 1.40723C67.0713 3.59668 67.498 6.0026 67.498 8.625C67.498 12.4844 66.5827 15.8984 64.7519 18.8672C62.9212 21.8359 60.3421 24.1615 57.0146 25.8438C53.6872 27.526 49.7845 28.3672 45.3066 28.3672Z"></path>
  <path fill="#DEDEDE" transform="matrix(0.764451 -0.090962 0.165419 1.39019 280.2 217.175)" d="M-51.8282 28.625L-51.8282 -26.668L-47.375 -26.668L-47.375 28.625L-51.8282 28.625ZM-49.75 22.3164C-54.2526 22.3164 -58.1058 21.4196 -61.3096 19.626C-64.5134 17.8324 -66.9626 15.3337 -68.6573 12.1299C-70.3519 8.92611 -71.1992 5.19661 -71.1992 0.941404C-71.1992 -3.3138 -70.3519 -7.0433 -68.6573 -10.2471C-66.9626 -13.4508 -64.5134 -15.9495 -61.3096 -17.7432C-58.1058 -19.5368 -54.2526 -20.4336 -49.75 -20.4336C-46.8802 -20.4336 -44.2826 -20.0625 -41.9571 -19.3203C-39.6315 -18.5781 -37.6091 -17.5205 -35.8897 -16.1475C-34.1703 -14.7744 -32.8034 -13.1169 -31.7891 -11.1748C-30.7748 -9.23275 -30.1439 -7.06185 -29.8965 -4.66211C-29.8965 -4.66211 -43.5899 -2.6211 -43.5899 -2.6211C-43.5899 -2.6211 -44.0166 -4.6683 -44.3506 -5.49707C-44.6846 -6.32585 -45.099 -7.02474 -45.5938 -7.59375C-46.0886 -8.16276 -46.6638 -8.58952 -47.3194 -8.87403C-47.975 -9.15853 -48.711 -9.30078 -49.5274 -9.30078C-50.8386 -9.30078 -51.9766 -8.92969 -52.9414 -8.1875C-53.9063 -7.44531 -54.6547 -6.31967 -55.1866 -4.81055C-55.7185 -3.30143 -55.9844 -1.40886 -55.9844 0.867186C-55.9844 3.11849 -55.7185 5.01107 -55.1866 6.54492C-54.6547 8.07877 -53.9063 9.23535 -52.9414 10.0146C-51.9766 10.7939 -50.8386 11.1836 -49.5274 11.1836C-48.711 11.1836 -47.975 11.0352 -47.3194 10.7383C-46.6638 10.4414 -46.0824 10.0023 -45.5752 9.4209C-45.0681 8.83952 -44.6475 8.11588 -44.3135 7.25C-43.9795 6.38411 -43.7383 5.39453 -43.5899 4.28125C-43.5899 4.28125 -29.8965 6.28515 -29.8965 6.28515C-29.8965 6.28515 -30.7748 10.9795 -31.7891 12.9463C-32.8034 14.9131 -34.1641 16.5954 -35.8711 17.9932C-37.5782 19.3909 -39.6006 20.4609 -41.9385 21.2031C-44.2764 21.9453 -46.8802 22.3164 -49.75 22.3164ZM-24.0332 28.625L-24.0332 17.8633L-3.4004 0.792967C-3.4004 0.792967 -0.864594 -1.41504 0.12499 -2.41699C1.11457 -3.41895 1.87532 -4.45182 2.40722 -5.51563C2.93912 -6.57943 3.20507 -7.76693 3.20507 -9.07813C3.20507 -10.4883 2.90201 -11.6943 2.29589 -12.6963C1.68977 -13.6982 0.860992 -14.4714 -0.190439 -15.0156C-1.24187 -15.5599 -2.4603 -15.832 -3.84571 -15.832C-5.23113 -15.832 -6.44955 -15.5537 -7.50099 -14.9971C-8.55242 -14.4404 -9.36883 -13.6302 -9.9502 -12.5664C-10.5316 -11.5026 -10.8223 -10.1914 -10.8223 -8.63281C-10.8223 -8.63281 -25.0723 -8.63281 -25.0723 -8.63281C-25.0723 -8.63281 -24.2002 -15.8568 -22.4561 -18.6523C-20.7119 -21.4479 -18.2441 -23.6064 -15.0527 -25.1279C-11.8613 -26.6494 -8.12566 -27.4102 -3.84571 -27.4102C0.582672 -27.4102 4.41731 -26.7051 7.65819 -25.2949C10.8991 -23.8848 13.404 -21.8994 15.1728 -19.3389C16.9417 -16.7783 17.8262 -13.7786 17.8262 -10.3398C17.8262 -8.21224 17.387 -6.10319 16.5088 -4.0127C15.6305 -1.9222 14.0534 0.397133 11.7773 2.94531C9.50129 5.49349 6.24804 8.51172 2.01757 12C2.01757 12 -3.17774 16.3047 -3.17774 16.3047L-3.17774 16.6758L18.4199 16.6758L18.4199 28.625L-24.0332 28.625ZM45.8066 29.3672C41.5514 29.3672 37.7786 28.6188 34.4883 27.1221C31.1979 25.6253 28.6126 23.5534 26.7324 20.9062C24.8522 18.2591 23.8874 15.2161 23.8379 11.7773C23.8379 11.7773 38.459 11.7773 38.459 11.7773C38.459 11.7773 38.793 14.14 39.4609 15.0801C40.1289 16.0202 41.0195 16.7438 42.1328 17.251C43.2461 17.7581 44.4707 18.0117 45.8066 18.0117C47.3405 18.0117 48.6826 17.6839 49.833 17.0283C50.9834 16.3727 51.8864 15.4512 52.542 14.2637C53.1976 13.0762 53.5254 11.6784 53.5254 10.0703C53.5254 8.4375 53.1976 7.02116 52.542 5.82129C51.8864 4.62142 50.9834 3.69368 49.833 3.03808C48.6826 2.38248 47.3405 2.05469 45.8066 2.05469C44.1986 2.05469 42.7327 2.43815 41.4092 3.20508C40.0856 3.972 39.1022 5.02344 38.459 6.35937C38.459 6.35937 25.248 3.76172 25.248 3.76172L27.4004 -26.668L64.584 -26.668L64.584 -14.6445L39.7207 -14.6445L38.6816 -2.47266L38.9785 -2.47266C38.9785 -2.47266 41.3411 -5.54037 43.4687 -6.62891C45.5963 -7.71745 48.0579 -8.26172 50.8535 -8.26172C53.3027 -8.26172 55.5726 -7.82878 57.6631 -6.96289C59.7536 -6.09701 61.5719 -4.86621 63.1182 -3.27051C64.6644 -1.67481 65.8643 0.217772 66.7178 2.40722C67.5713 4.59668 67.998 7.0026 67.998 9.625C67.998 13.4844 67.0827 16.8984 65.2519 19.8672C63.4212 22.8359 60.8421 25.1615 57.5146 26.8437C54.1872 28.526 50.2845 29.3672 45.8066 29.3672Z"></path>
  <clipPath id="cl_1be">
    <path d="M245.315 261.684L236.169 184.816L239.573 184.411L248.72 261.279L245.315 261.684ZM245.861 252.725C242.419 253.134 239.325 252.238 236.579 250.036C233.833 247.834 231.547 244.583 229.722 240.283C227.896 235.983 226.632 230.876 225.928 224.96C225.224 219.045 225.255 213.783 226.02 209.175C226.786 204.567 228.245 200.87 230.397 198.086C232.55 195.301 235.347 193.703 238.789 193.294C240.983 193.033 243.03 193.312 244.93 194.133C246.831 194.953 248.552 196.239 250.093 197.992C251.635 199.744 252.954 201.924 254.051 204.532C255.147 207.139 255.989 210.1 256.575 213.413C256.575 213.413 246.445 217.496 246.445 217.496C246.445 217.496 245.78 214.689 245.387 213.567C244.995 212.446 244.562 211.512 244.09 210.766C243.618 210.02 243.107 209.479 242.559 209.143C242.011 208.807 241.425 208.676 240.801 208.75C239.798 208.87 238.99 209.489 238.375 210.609C237.76 211.728 237.374 213.361 237.217 215.507C237.06 217.654 237.17 220.309 237.547 223.473C237.919 226.603 238.435 229.21 239.096 231.294C239.756 233.378 240.519 234.917 241.386 235.913C242.252 236.909 243.187 237.347 244.189 237.228C244.813 237.153 245.351 236.88 245.803 236.408C246.255 235.935 246.627 235.272 246.919 234.418C247.21 233.563 247.412 232.519 247.524 231.285C247.636 230.051 247.657 228.653 247.586 227.092C247.586 227.092 258.386 228.632 258.386 228.632C258.386 228.632 258.491 235.238 258.041 238.065C257.591 240.891 256.829 243.354 255.755 245.452C254.681 247.55 253.312 249.222 251.648 250.466C249.983 251.711 248.054 252.464 245.861 252.725ZM266.563 259.155L264.783 244.195L277.732 218.587C277.732 218.587 279.305 215.287 279.896 213.804C280.487 212.321 280.898 210.816 281.128 209.288C281.359 207.761 281.366 206.086 281.149 204.263C280.916 202.303 280.484 200.654 279.855 199.316C279.226 197.978 278.465 196.979 277.571 196.318C276.677 195.657 275.701 195.389 274.642 195.515C273.583 195.641 272.697 196.139 271.986 197.009C271.274 197.878 270.784 199.079 270.515 200.61C270.247 202.142 270.241 203.991 270.499 206.158C270.499 206.158 259.606 207.454 259.606 207.454C259.606 207.454 259.078 197.332 259.948 193.287C260.819 189.242 262.349 186.017 264.537 183.612C266.725 181.206 269.455 179.809 272.726 179.42C276.112 179.017 279.16 179.648 281.871 181.314C284.581 182.979 286.825 185.511 288.6 188.91C290.376 192.309 291.548 196.399 292.117 201.179C292.469 204.137 292.482 207.109 292.157 210.095C291.831 213.081 291.009 216.449 289.691 220.198C288.372 223.948 286.385 228.44 283.728 233.674C283.728 233.674 280.468 240.131 280.468 240.131L280.53 240.647L297.04 238.682L299.017 255.294L266.563 259.155ZM320.075 253.834C316.822 254.222 313.814 253.524 311.052 251.743C308.289 249.961 305.97 247.316 304.094 243.807C302.219 240.298 300.978 236.156 300.372 231.38C300.372 231.38 311.549 230.05 311.549 230.05C311.549 230.05 312.195 233.304 312.861 234.55C313.527 235.796 314.328 236.721 315.263 237.325C316.198 237.929 317.176 238.17 318.197 238.048C319.369 237.909 320.341 237.331 321.112 236.315C321.883 235.299 322.421 233.936 322.726 232.225C323.03 230.515 323.05 228.542 322.784 226.306C322.514 224.036 322.029 222.097 321.329 220.488C320.63 218.88 319.786 217.672 318.798 216.866C317.81 216.059 316.73 215.725 315.557 215.865C314.328 216.011 313.271 216.678 312.386 217.864C311.501 219.051 310.923 220.602 310.652 222.518C310.652 222.518 300.124 220.108 300.124 220.108L296.735 177.609L325.16 174.227L327.149 190.942L308.142 193.203L309.362 210.219L309.589 210.192C309.589 210.192 310.887 205.712 312.334 204.006C313.78 202.299 315.572 201.318 317.709 201.064C319.581 200.841 321.388 201.237 323.129 202.25C324.871 203.264 326.464 204.809 327.91 206.887C329.356 208.965 330.586 211.487 331.601 214.453C332.616 217.419 333.34 220.725 333.774 224.37C334.412 229.736 334.277 234.565 333.369 238.859C332.46 243.153 330.873 246.62 328.608 249.261C326.343 251.903 323.498 253.427 320.075 253.834Z"></path>
  </clipPath>
  <g clip-path="url(#cl_1be)">
    <path fill="#F2F1F1" transform="matrix(0.776268 0.372156 -0.0956881 1.34254 267.697 220.711)" d="M-170.753 -28.5017L169.944 -28.5017L169.944 28.5017L-170.753 28.5017L-170.753 -28.5017Z"></path>
    <path fill="#F2F1F1" transform="matrix(0.776268 0.372156 -0.0956881 1.34254 262.567 272.077)" d="M-170.753 -5.22017L169.944 -5.22017L169.944 5.22016L-170.753 5.22016L-170.753 -5.22017Z"></path>
  </g>
  <path fill="#8E8B8B" transform="matrix(1.39019 -0.165419 0.165419 1.39019 256.146 50.8522)" d="M2.08616e-06 0C2.08616e-06 0 -9.96688 0 -18.519 1.52588e-05C-50.0491 1.30371 -89.3857 32.2772 -89.3857 128C-89.3857 223.723 -43.1955 256 -19 256C-10.4479 256 0 256 0 256C-16.7482 256 -70.3857 223.723 -70.3857 128C-70.3857 32.2772 -16.7482 -1.52588e-05 2.08616e-06 0Z"></path>
  <clipPath id="cl_1c0">
    <path d="M256.146 50.8522C256.146 50.8522 242.29 52.5009 230.401 53.9156C186.783 60.9437 137.222 110.51 153.056 243.583C168.89 376.656 238.443 413.887 272.079 409.885C283.968 408.47 298.493 406.742 298.493 406.742C275.21 409.512 195.304 373.513 179.47 240.44C163.635 107.367 232.862 53.6227 256.146 50.8522Z"></path>
  </clipPath>
  <g clip-path="url(#cl_1c0)">
    <path fill="#ACABAB" transform="matrix(0.764451 -0.090962 0.165419 1.39019 213.567 315.898)" d="M-105.5 -97.2229L105 -97.2229L105 21.5877L-105.5 21.5877L-105.5 -97.2229Z"></path>
    <path fill="#D6D6D6" transform="matrix(0.764451 -0.090962 0.165419 1.39019 196.916 231.028)" d="M-105.5 -6.00813L105 -6.00813L105 5.02438L-105.5 5.02438L-105.5 -6.00813Z"></path>
    <path fill="#D6D6D6" transform="matrix(0.766625 -0.0912207 0.16495 1.38625 194.043 177.566)" d="M-175.044 -26.0572L174.214 -26.0572L174.214 26.0572L-175.044 26.0572L-175.044 -26.0572Z"></path>
  </g>
  <path fill="#A5A5A5" transform="matrix(0.703381 0 0 0.30413 272.419 478.039)" d="M-0.250002 -88C55.945 -88 101.5 -48.6011 101.5 0C101.5 48.6011 55.945 88 -0.250002 88C-56.445 88 -102 48.6011 -102 0C-102 -48.6011 -56.445 -88 -0.250002 -88Z" style="mix-blend-mode: multiply"></path>
</svg>